<?xml version="1.0" encoding="utf-8"?>
<!-- Generator: Adobe Illustrator 19.0.0, SVG Export Plug-In . SVG Version: 6.00 Build 0)  -->
<svg version="1.1" id="Layer_1" xmlns="http://www.w3.org/2000/svg" xmlns:xlink="http://www.w3.org/1999/xlink" x="0px" y="0px"
	 viewBox="0 0 400 400" style="enable-background:new 0 0 400 400;" xml:space="preserve">
<style type="text/css">
	.st0{clip-path:url(#SVGID_3_);}
	.st1{clip-path:url(#SVGID_4_);fill-rule:evenodd;clip-rule:evenodd;fill:#FFFFFF;}
	.st2{clip-path:url(#SVGID_4_);fill-rule:evenodd;clip-rule:evenodd;fill:#010101;}
	.st3{clip-path:url(#SVGID_4_);fill:#B28C2E;}
</style>
<g>
	<g>
		<defs>
			<rect id="SVGID_1_" x="38.3" y="6.2" width="322.1" height="388.1"/>
		</defs>
		<defs>
			<path id="SVGID_2_" d="M-25.3-24h449v449h-449V-24L-25.3-24z M-25.3-24"/>
		</defs>
		<clipPath id="SVGID_3_">
			<use xlink:href="#SVGID_1_"  style="overflow:visible;"/>
		</clipPath>
		<clipPath id="SVGID_4_" class="st0">
			<use xlink:href="#SVGID_2_"  style="overflow:visible;"/>
		</clipPath>
		<path class="st1" d="M98.9,7.1C78.6,42,58.6,77.2,38.3,112v0.4c53.6,93.9,106.9,188,160.5,281.9c53.8-94,107.7-187.9,161.4-282
			c-20.4-35.3-41-70.4-61.4-105.7H99.2C99,6.7,98.9,6.9,98.9,7.1"/>
		<path class="st2" d="M99.2,6.7h199.6c20.4,35.3,41,70.4,61.4,105.7c-53.7,94.1-107.5,188-161.4,282
			c-53.5-93.9-106.9-188-160.5-281.8V112C58.6,77.2,78.6,42,98.9,7.1C98.9,6.9,99,6.7,99.2,6.7 M41,112.3
			c52.8,92.2,105,185,158,277.1c52.6-92.6,105.9-184.6,158.4-277.3C338.7,80,319.9,48,301.1,15.5c-0.6-1.1-3.1-6.3-4.3-6.3H100.5
			C80.5,43.4,60.8,78,41,112.3"/>
		<path class="st1" d="M100.5,9.2h196.3c1.1,0,3.6,5.2,4.3,6.3c18.8,32.5,37.6,64.4,56.3,96.7C304.8,204.9,251.6,296.9,199,389.5
			C146,297.4,93.8,204.6,41,112.3C60.8,78,80.5,43.4,100.5,9.2 M96.1,28.3c-6.7,11.6-13.4,23.5-20,35c-0.6,1.1-1.6,2-1.5,2.9h42.8
			V15.4c-4.3-0.3-9.2-0.1-13.7-0.1C101.1,19.3,98.7,23.9,96.1,28.3 M121.6,15.7v50.6c12.7,0.2,26.3,0.2,38.9,0v-51h-38.8
			C121.6,15.2,121.6,15.4,121.6,15.7 M165,15.7v50.6h67.5c-0.1-16.9,0.2-34.3-0.2-51h-67.2C165,15.2,165,15.4,165,15.7 M237,15.7
			v50.6c12.1,0.2,27.3,0.2,39.4,0v-51h-39.2C237,15.2,237,15.4,237,15.7 M281.2,15.7v50.6h42.5c-4.6-8.5-9.5-17.1-14.5-25.6
			c-5.1-8.5-9.7-17.2-15-25.4h-12.8C281.2,15.2,281.2,15.4,281.2,15.7 M48,112.3c7.5,13.6,14.3,26.4,21.9,40
			c0.8,1.4,2.4,5.1,3.5,5.4c1.7,0.5,5.1,0,7.8,0c17.7,0,35-0.2,53.8-0.2h189.9c2.5-3.5,4.4-7.4,6.5-11.2
			c6.3-11.4,13.1-22.5,19.3-33.9c-7.4-12.7-14.6-25.3-21.9-38.1c-0.8-1.4-2.4-4.8-3.5-5.1c-1.7-0.5-5.1,0-7.8,0
			c-81.3,0-164.3,0-244.7,0C64.4,83.6,56.2,97.9,48,112.3 M74.9,161.3c-0.2,0-0.1,0.3,0,0.4c12.7,22.1,26.3,45.6,39.2,67.9
			c0.9,1.6,0.8,2.3,2.8,1.5c0.8-1.1,0.4-2.6,0.4-3.8v-66H74.9L74.9,161.3z M122,161.7v69.9c0,3.4-0.6,7.4,0,10.2
			c0.2,1,1.4,2.6,2.2,4.1c11,19.6,21.7,38.1,32.5,57.8c0.8,1.4,1.1,3.7,3.1,2.8c1-0.5,0.8-0.6,0.9-1.9c0.8-14.5-0.8-28.7,0.2-42.6
			c24.5,0.4,51,0.1,76.3,0.2c0.2,11.5,0.1,22.6,0.1,34.2c0,2.4-0.6,7.8,0,10.1c0.2,0.7,0.1,0.3,0.7,0.7c0.7,0.4,1.4,0.5,2.1-0.3
			c0.4-0.5,0.9-1.6,1.2-2.1c11.3-20.2,22-39,33.4-58.8c0.9-1.6,2.1-3.2,2.4-4.3c0.5-2.8,0-6.6,0-10v-70.5h-40
			c-0.1,22.8,0.2,45.3,0.2,68c-25.4-0.1-51.2,0.2-76.4-0.2v-67.4c-12.7-0.2-25.6-0.3-38.5-0.4C121.9,161.3,121.9,161.5,122,161.7
			 M164.9,161.7v63.6h67.7c-0.1-21.3,0.2-43-0.1-64.1H165C164.8,161.3,164.9,161.5,164.9,161.7 M281.2,161.7
			c0.2,22.9-0.4,46.6,0.3,68.9c2.4,1.5,2.9-1.2,3.6-2.5c12.6-21.7,25-43.4,37.5-64.8c0.3-0.6,1.2-1.2,0.9-2.1h-42.2
			C281.2,161.3,281.2,161.5,281.2,161.7 M165.4,266.5c0-0.3-0.4,0-0.4,0.1v45.6c0,2.3-0.3,4.9,0,6.6c0.2,0.9,1.3,2.4,2.1,3.7
			c10.6,18.4,21.4,36.6,31.7,54.5c9.7-16.5,19.7-33.6,29.5-50.4c1-1.7,3.8-5.4,4.1-7.3c0.6-4,0-8.8,0-13.1v-39.7
			C211.4,266.5,186.4,266.5,165.4,266.5"/>
		<path class="st2" d="M103.7,15.2c4.5,0.1,9.4-0.2,13.7,0.2v50.8H74.6c-0.1-0.9,0.9-1.9,1.5-2.9c6.6-11.5,13.2-23.4,20-35
			C98.6,23.9,101.1,19.3,103.7,15.2 M98.1,29.6c-5.9,10.5-12.3,21.2-18.2,31.5c-0.6,1-1.2,2.1-1.2,2.8h36.1V17.7h-9.8
			C102.6,21.4,100.4,25.6,98.1,29.6"/>
		<path class="st2" d="M121.8,15.2h38.8v51c-12.7,0.2-26.3,0.2-38.9,0V15.6C121.6,15.4,121.6,15.2,121.8,15.2"/>
		<path class="st2" d="M165.2,15.2h67.2c0.3,16.7,0.1,34,0.2,51H165V15.6C165,15.4,165,15.2,165.2,15.2 M167.4,18.1v45.7h62.8V17.7
			h-62.6C167.3,17.7,167.3,17.9,167.4,18.1"/>
		<path class="st2" d="M237.2,15.2h39.2v51c-12.1,0.3-27.3,0.2-39.4,0V15.6C237,15.4,237,15.2,237.2,15.2"/>
		<path class="st2" d="M281.4,15.2h12.8c5.3,8.2,10,16.9,15,25.4c5,8.5,9.9,17.1,14.5,25.6h-42.5V15.6
			C281.2,15.4,281.2,15.2,281.4,15.2 M283.6,18.1v45.7h36.1c-4.2-7.8-9-15.4-13.4-23.1c-4.4-7.8-8.7-15.7-13.5-23.1h-9.1
			C283.6,17.7,283.6,17.9,283.6,18.1"/>
		<path class="st2" d="M72.7,69.3h244.7c2.6,0,6.1-0.5,7.8,0c1.1,0.3,2.7,3.7,3.5,5.1c7.3,12.8,14.5,25.4,21.9,38.1
			c-6.1,11.5-12.9,22.6-19.3,34c-2.1,3.8-3.9,7.7-6.5,11.2H135c-18.8,0-36,0.1-53.8,0.1c-2.7,0-6.1,0.5-7.8,0
			c-1.2-0.4-2.8-4.1-3.5-5.4c-7.6-13.6-14.5-26.4-21.9-40C56.2,97.9,64.4,83.6,72.7,69.3 M120.6,86.8c-7.1,0.6-12.8,4.7-13.4,11.3
			c-0.8,8.5,5.8,14.4,15.1,14.4c3.5,0,5.9-0.7,8.5-2.1v-5.3c-6,4.6-18.1,3.6-17.5-6.2c0.4-6.8,8.5-9.8,14.8-6.9
			c1.1,0.5,1.8,1.5,2.6,1.5c0.3-1.5,0-3.5,0.3-5C128.2,87.2,124.9,86.4,120.6,86.8 M155.7,87.4c-3.8,7.9-7.2,16.2-10.7,24.4h6.5
			c0.7-1.7,1.2-3.6,2.1-5.1h10.6c0.7,1.7,1.5,3.4,2.2,5.1h6.9c-3.5-8.2-7.1-16.3-10.7-24.4H155.7L155.7,87.4z M187.9,87.8v23.8
			c5.3,0,12.4,0.9,16.2-1.6c2.9-2,4-7.1,0.7-9.6c-1.2-0.9-2.6-1-4.3-1.6c3.7-0.2,6.4-3.5,5-7.2c-1.9-5.1-10.6-4.3-17.3-4.3
			C188,87.4,187.9,87.5,187.9,87.8 M230,95.6c1.5-9.3-9.7-8.4-18.7-8.2v24.4h6v-11c2.5,3.5,4.8,7.4,7.2,11h6.9
			c-2.2-3.7-5.4-7.4-7.3-11C227.2,99.9,229.5,98.5,230,95.6 M235,111.7h6V87.4h-5.9C234.7,95.2,235.1,103.7,235,111.7 M254.2,111.7
			h5.9c3.3-8.2,6.9-16.2,10.3-24.4h-6.6c-2.2,6.4-4.9,12.3-6.6,19.3c-1.6-6.9-4.3-12.8-6.5-19.3h-6.6
			C247.3,95.6,251,103.5,254.2,111.7 M273.5,87.4c-0.3,7.8-0.1,16.3-0.2,24.4h16.5v-4.5c-3.4-0.1-7.2,0.2-10.4-0.1v-5.7h10.4v-4.5
			c-3.4-0.1-7.2,0.2-10.4-0.1c0.1-1.6-0.2-3.5,0.2-4.8c3.1,0.3,6.8,0.1,10.1,0.1c0.3-1.2,0.1-3.1,0.2-4.6H273.5L273.5,87.4z
			 M140.5,112.2c3.4-1,2.3-6.8-2.2-5.6C134,107.8,136.6,113.3,140.5,112.2 M175.6,109.3c-0.1,3.6,5.7,3.9,6.6,1
			c0.8-2.5-1.6-4.2-4.1-3.7C176.3,107,175.6,108.1,175.6,109.3 M136.1,128.5c-2.9,3.4-2.2,8.9,0.7,11.6c3.9,3.5,12.4,4.9,19,3.2
			v-5.3c-5.1,1.7-14.1,0.7-13.8-4.5c0.3-4.7,9.3-6.3,13.8-4.1v-5C148,123,139.7,124.3,136.1,128.5 M159.9,137.2
			c3.1,8.2,16.9,9.2,21.9,1.9c0.6-0.9,1.3-2.4,1.5-3.7c1.1-7.8-6.5-12.3-13.7-11.5C163.5,124.7,157.2,130.2,159.9,137.2
			 M199.5,125.1c-3.2-2-8.2-1-12.3-1.3c-0.7,6.2-0.1,13.6-0.3,20.3h5.7v-6.8c0.7,1,1.6,2,2.6,3.4c0.7,0.9,1.6,3,2.7,3.4
			c1.2,0.4,2.5-0.3,4.2,0c0.1-0.9,0.6-1.4,0.6-2.4c-1.5-2.3-3.8-4.5-4.8-6.8C202.4,134.4,202.9,127.2,199.5,125.1 M219.5,130.3
			c0.5-7.2-8-6.5-14.7-6.5c-0.3,6.5-0.1,13.6-0.2,20.3h5.7v-6.6c0.7,0.9,1.7,1.9,2.6,3.2c0.7,0.9,1.5,3,2.6,3.4
			c1.2,0.4,2.5-0.3,4.3,0c0.1-0.9,0.4-1.5,0.6-2.4c-1.6-2.3-3.5-4.3-5-6.8C218,134.4,219.4,132.7,219.5,130.3 M222.3,123.8v20.3
			h13.1v-4.8h-7.4c0.1-1-0.2-2.5,0.1-3.2h6.6v-4.7c-2-0.3-4.5-0.1-6.7-0.2c0.1-0.8-0.2-2,0.1-2.5h7.2V124
			C232.4,123.6,226,123.9,222.3,123.8 M237.3,124.1v4.5h6.6c-1.8,3-3.8,6.8-5.7,10c-1.1,1.9-2.6,3.3-1.3,5.4h14.4
			c0.1-0.6-0.1-3.5,0-4.8c-2.3-0.1-4.9,0.2-6.9-0.2c1.6-2.8,3.8-6.7,5.6-9.8c1.1-1.9,2.8-3.5,1-5.4
			C246.5,124,241.3,123.4,237.3,124.1 M254.1,124c0-0.4-0.4,0.1-0.3,0.3v19.8h13.1v-4.8h-7.4c0.1-1-0.2-2.5,0.1-3.2h6.6v-4.8h-6.8
			c0.1-0.8-0.2-2,0.1-2.5h7.2V124C263.5,123.7,257.9,123.7,254.1,124"/>
		<path class="st2" d="M194.1,97.1v-5.6c3.5-0.8,7.9,1.3,5.7,4.4C198.9,97.2,196.2,97,194.1,97.1"/>
		<path class="st2" d="M217.3,97.6v-6.2c4.1-0.9,8.5,1.5,6.3,5C222.7,98,219.9,97.5,217.3,97.6"/>
		<path class="st2" d="M158.8,91.9c1,3.7,2.4,6.9,3.8,10.3c-2.2,0.3-5,0-7.5,0.2C156.4,98.9,158,95.8,158.8,91.9"/>
		<path class="st2" d="M194.1,107.6v-6.5c4.3-0.8,8.5,1.6,6.3,5C199.4,107.7,196.9,107.6,194.1,107.6"/>
		<path class="st2" d="M192.6,128.7c1.3,0,2.5,0,3.2,0.6c0.7,1.9-1.3,2.4-3.2,2.2V128.7L192.6,128.7z M192.6,128.7"/>
		<path class="st2" d="M210.4,128.7c1.3,0,2.5,0,3.2,0.6c0.2,0.6,0,0.7,0,1.5c-0.7,0.6-1.8,0.8-3.2,0.7V128.7L210.4,128.7z
			 M210.4,128.7"/>
		<path class="st2" d="M170.4,129.1c3.5-0.5,7.5,1.6,6.8,5.9c-0.9,5-11,5.6-11.8-0.3C165,131.4,167.2,129.5,170.4,129.1"/>
		<path class="st2" d="M117.4,161.3v66c0,1.2,0.4,2.8-0.4,3.8c-2,0.8-1.9,0.2-2.8-1.5c-12.9-22.3-26.6-45.8-39.2-67.9
			c-0.1-0.1-0.2-0.4,0-0.4H117.4L117.4,161.3z M79.2,163.6c-0.3,0.1-0.3,0.2-0.2,0.4c12.1,20.7,23.8,41.7,36,62.2v-62.5
			C103.4,163.4,91.1,163.7,79.2,163.6"/>
		<path class="st2" d="M122.1,161.3c12.9,0.1,25.8,0.2,38.5,0.4v67.4c25.2,0.3,51,0.1,76.4,0.2c0-22.8-0.3-45.2-0.2-68h40v70.5
			c0,3.4,0.5,7.2,0,10c-0.2,1.1-1.4,2.7-2.4,4.3c-11.4,19.8-22,38.6-33.4,58.8c-0.3,0.5-0.7,1.5-1.2,2.1c-0.7,0.8-1.4,0.7-2.1,0.3
			c-0.7-0.4-0.6,0-0.7-0.7c-0.6-2.3,0-7.7,0-10.1c0-11.7,0.1-22.8-0.1-34.2c-25.3-0.1-51.7,0.2-76.3-0.2c-0.9,14,0.7,28.1-0.1,42.6
			c-0.1,1.3,0.2,1.4-0.9,1.9c-1.9,0.9-2.3-1.3-3.1-2.8c-10.8-19.6-21.5-38.2-32.5-57.8c-0.8-1.5-2-3.1-2.2-4.1
			c-0.6-2.7,0-6.8,0-10.2v-69.9C121.9,161.5,121.9,161.3,122.1,161.3 M178.7,243c-1.4,6.7,3.4,13.1,10.7,13.1c3.2,0,6.5-1.6,8.4-3.8
			c6.1-7.3,0-18.5-9.6-17.5C183.3,235.3,179.6,238.6,178.7,243 M222.3,240.5c-0.1,3.6,2.6,5.1,5,6.3c1.3,0.7,3.8,1.6,3.8,2.9
			c0,1.6-2.6,2.3-4.3,1.5c-1.1-0.5-1.2-1.4-1.6-2.4c-1.2,1.1-2.3,2.3-3.2,3.7c1.5,2.6,4.2,3.6,7.4,3.5c5.6-0.2,9.2-6.4,5.3-10.6
			c-1.6-1.7-7.3-3.1-7.1-5.1c0.3-2.5,5.2-1,4.7,0.6c1.2-1,2.5-1.9,3.4-3.2C232.8,232.5,222.5,234.2,222.3,240.5 M133.6,235
			c-0.3,6.5,0,13.7-0.1,20.4h11.9v-4.7c-2.1-0.1-4.6,0.2-6.5-0.1c-0.1-4.6,0.2-10.8-0.1-15.6H133.6L133.6,235z M146.9,235
			c-0.3,6.5,0,13.7-0.1,20.4h5.4V235H146.9L146.9,235z M156.6,235c-1,6.9-2,13.7-3.1,20.4h5.1c0.7-3.9,0.8-8.3,1.6-11.9
			c1.2,4.1,2.6,7.9,3.8,11.9h3.2c1.3-4,2.5-8.1,4-11.9c0.5,4,0.9,8,1.5,11.9c1.7-0.1,3.7,0.2,5.1-0.2c-1.1-6.7-2.2-13.4-3.1-20.3
			h-5.3c-1.3,3.8-2.5,7.7-3.8,11.3c-1.4-3.6-2.5-7.6-3.8-11.3H156.6L156.6,235z M202.5,235.5c0.4,7.4-1.6,16.3,3.1,19.3
			c3.1,1.9,8.5,1.7,11.3,0.1c5.1-2.9,2.9-12.3,3.4-19.8H215c-0.9,4.9,1.8,13.4-1.5,15.6c-1.8,1.2-4.2,0.6-5.1-0.8
			c-2.1-3.1,0.4-11.5-0.7-14.8h-5C202.5,235.1,202.2,235.5,202.5,235.5 M238.6,235c-0.3,6.5-0.1,13.7-0.2,20.4h5.3V235H238.6
			L238.6,235z M252,235h-5v20.4h5.1v-12.1c2.1,2.7,4.7,6.1,7.1,9.1c0.6,0.8,1.7,2.7,2.5,2.9c1.6,0.5,3-0.3,4.7,0V235h-5.1v11.9
			C258.1,243,255.3,238.8,252,235"/>
		<path class="st2" d="M165,161.3h67.4c0.4,21.1,0.1,42.8,0.2,64.1h-67.8v-63.6C164.9,161.5,164.8,161.3,165,161.3 M167.2,164.1V223
			h63c0.1-20.5-0.1-39.5-0.1-59.4h-62.8C167.2,163.6,167.2,163.9,167.2,164.1"/>
		<path class="st2" d="M281.4,161.3h42.2c0.3,0.8-0.5,1.5-0.9,2.1c-12.5,21.4-24.9,43.1-37.5,64.8c-0.7,1.3-1.3,4-3.7,2.5
			c-0.7-22.4-0.1-46-0.3-68.9C281.2,161.5,281.2,161.3,281.4,161.3 M283.7,164.1v61.6c12-20.1,24.1-41.4,35.9-62h-35.7
			C283.7,163.6,283.7,163.9,283.7,164.1"/>
		<path class="st2" d="M188.4,239.6c9.2-1.5,7.8,14.4-1,11.3C182.3,249.2,182.9,240.5,188.4,239.6"/>
		<path class="st2" d="M232.5,266.5v39.7c0,4.3,0.6,9.1,0,13.1c-0.3,1.9-3.1,5.6-4.1,7.3c-9.9,16.8-19.8,33.9-29.5,50.4
			c-10.4-17.9-21.1-36.2-31.7-54.5c-0.7-1.2-1.9-2.7-2.1-3.7c-0.3-1.7,0-4.3,0-6.6v-45.6c0-0.1,0.5-0.4,0.4-0.1H232.5 M167.4,269.3
			v42.8c0,2.1-0.4,4.5,0,6.2c0.2,0.8,1.3,2.3,1.9,3.4c9.9,17.1,19.9,34,29.4,50.7c9.4-15.1,18.3-31.1,27.5-46.7c1-1.6,3.6-5,4-6.8
			c0.3-1.7,0-4.1,0-6.2v-43.8h-62.6C167.3,268.9,167.3,269.1,167.4,269.3"/>
		<path class="st3" d="M198.6,208.7l-18.8,13.7l7.2-22.1l-18.7-13.6h23.1l7.2-22l7.2,22h23.1l-18.7,13.6l7.2,22.1L198.6,208.7z
			 M198.6,208.7"/>
	</g>
</g>
</svg>
