<?xml version="1.0" encoding="utf-8"?>
<!-- Generator: Adobe Illustrator 19.0.0, SVG Export Plug-In . SVG Version: 6.00 Build 0)  -->
<svg version="1.1" id="Layer_1" xmlns="http://www.w3.org/2000/svg" xmlns:xlink="http://www.w3.org/1999/xlink" x="0px" y="0px"
	 viewBox="0 0 400 400" style="enable-background:new 0 0 400 400;" xml:space="preserve">
<style type="text/css">
	.st0{fill-rule:evenodd;clip-rule:evenodd;fill:#0060A9;}
	.st1{fill-rule:evenodd;clip-rule:evenodd;fill:#D1D3D4;}
</style>
<g>
	<path class="st0" d="M352.9,91.7c0,0-75.5-16.7-153.4-81.1v-0.2c0,0-0.1,0.1-0.1,0.1c0,0-0.1-0.1-0.1-0.1v0.2
		C121.4,75,45.9,91.7,45.9,91.7c0,201.3,147.6,297,153.4,300.7v0.1c0,0,0,0,0.1-0.1c0.1,0,0.1,0.1,0.1,0.1v-0.1
		C205.3,388.7,352.9,293,352.9,91.7L352.9,91.7z"/>
	<path class="st1" d="M199.4,368.6C57,266.7,62.6,108.4,62.6,108.4s120.5-50,136.8-71.5c16.3,21.6,136.8,71.5,136.8,71.5
		S341.7,266.7,199.4,368.6L199.4,368.6z"/>
	<path class="st0" d="M260.8,164.9c13.5,2.4,40.6,12.7,46.2,16.7c5.6,4,15.9,4,16.7-2.4c0,0-14.3-19.1-19.9-50.1
		c0,0-12.7-8.8-12.7,13.5c0,0-4.8,5.6-50.9-11.9c0,0-16.7-48.5-41.4-47.8c-24.7,0.8-39.8,47-39.8,47s-39.8,10.3-56.5,22.3
		c0,0-23.1,17.5-23.1,39.8c0,22.3,45.4,52.5,71.6,53.3c0,0,17.5,56.5,46.2,56.5c28.7,0,48.5-54.9,48.5-54.9s8.8-16.7,19.9-11.1
		l7.2,9.6c0,0,1.6,8.8,5.6,10.3c4,1.6,7.2,2.4,13.5-7.2c6.4-9.6,25.5-44.6,25.5-44.6s5.6-9.6-7.2-6.4c-12.7,3.2-29.4,7.2-29.4,7.2
		s-10.3,3.2-1.6-5.6l-25.5-31C253.6,168.1,247.2,162.6,260.8,164.9L260.8,164.9z M298.2,149l11.9,21.5l-5.6,1.6l-16.7-13.5
		L298.2,149L298.2,149z M299.8,210.3c0,0-6.4,24.7-15.1,30.2l-7.2-22.3L299.8,210.3L299.8,210.3z M200.2,110.3
		c7.2,0,10.3,15.9,10.3,15.9h-22.3C188.2,126.2,193,110.3,200.2,110.3L200.2,110.3z M187.5,137.9H209l3.2,8l-27.1,0.8L187.5,137.9
		L187.5,137.9z M163.7,169.7v37.4c0,0-18.3,0.8-18.3-15.1C145.4,192,155.7,169.7,163.7,169.7L163.7,169.7z M96,192
		c0-38.2,52.5-47,52.5-47l1.6,7.2l-5.6,8c0,0-31,8-31,28.7c0,20.7,52.5,42.2,84.4,41.4v4C197.9,234.2,96,235.8,96,192L96,192z
		 M199.5,276.4c-13.5,0.8-17.5-29.4-17.5-29.4l32.6-2.4C214.6,244.5,213,275.6,199.5,276.4L199.5,276.4z M217,215.9
		c0,0-28.7,4.8-39.8-5.6c0,0-3.2-27.9,6.4-54.1c0,0,27.9-5.6,30.2,0.8C216.2,163.3,224.9,205.5,217,215.9L217,215.9z M257.6,196.8
		l-23.1,36.6l-2.4-66.1c0,0-0.8-11.1,4-3.2C240.9,172.1,257.6,196.8,257.6,196.8L257.6,196.8z"/>
</g>
</svg>
