<?xml version="1.0" encoding="utf-8"?>
<!-- Generator: Adobe Illustrator 19.0.0, SVG Export Plug-In . SVG Version: 6.00 Build 0)  -->
<svg version="1.1" id="Layer_1" xmlns="http://www.w3.org/2000/svg" xmlns:xlink="http://www.w3.org/1999/xlink" x="0px" y="0px"
	 viewBox="0 0 400 400" style="enable-background:new 0 0 400 400;" xml:space="preserve">
<style type="text/css">
	.st0{clip-path:url(#XMLID_34_);fill:#FBE918;}
	.st1{fill:#0E60A7;}
</style>
<g id="g3" transform="matrix(7.0476302,0,0,7.0476302,-80.421419,-54.00976)">
	<g>
		<defs>
			<rect id="XMLID_32_" x="-106" y="-153.1" width="292" height="378.4"/>
		</defs>
		<clipPath id="XMLID_34_">
			<use xlink:href="#XMLID_32_"  style="overflow:visible;"/>
		</clipPath>
		<path id="path11" class="st0" d="M39.3,62.4c-3-2.8-5.7-5.8-8.1-9.1c-2.4-3.3-4.7-6.8-6.6-10.7c-3.4-7.2-5.4-15.9-5.4-26.3
			c0-0.9,0-1.9,0-2.9l0-0.8l0.7-0.2c5.5-1.5,11.6-2.8,18.3-3.1c0.6,0,1.2,0,1.8,0c3.4,0,6.7,0.5,9.7,0.9c3.5,0.6,6.9,1.3,10,2.2
			l0.7,0.2l0,0.7c0,1.1,0.1,2.1,0.1,3.2c0,10.2-2,18.8-5.3,25.9c-1.8,3.9-4.2,7.4-6.6,10.7c-2.4,3.3-5.2,6.4-8.1,9.2L40,63
			L39.3,62.4z"/>
	</g>
</g>
<path id="path13" class="st1" d="M211.1,47.6c0.5,2.2,0.6,4.8,1.1,6.9h-2C210.4,52.1,211,50,211.1,47.6"/>
<path id="path15" class="st1" d="M153.2,51.5c4.3-1.1,4.9,8.7,1.5,8.9C151.2,60.7,149.6,52.5,153.2,51.5"/>
<path id="path17" class="st1" d="M274.8,52.4c2.5-0.2,2.1,4.3-0.4,3.9C273.7,55.1,274.8,53.8,274.8,52.4"/>
<path id="path19" class="st1" d="M113.7,62.6c-0.1-1.4-0.7-2.4-0.9-3.7C115.2,57.7,116.7,62.8,113.7,62.6"/>
<path id="path21" class="st1" d="M280.2,110.8c1.8,46.1-5.3,85.7-20,117.4c-10.7,23.1-24.9,43.8-41,62.5c-3.8,4.4-7.8,9.1-12.4,13.7
	c-0.9,0.9-4.2,4.1-4.3,4.1c-0.3,0-3.4-3.1-4.6-4.1c-4.5-4.2-8.6-9.3-12.4-13.7c-16.1-18.7-30.4-39.1-41-62.7
	c-14.3-31.7-22.3-71.1-20.2-117.2c21.8-5.8,46.1-11.5,72.7-12.8C227.8,96.5,255.9,105.1,280.2,110.8 M207.2,104.3
	c-9.7-0.7-16.7,3.1-20.8,7.2c-4.8,4.8-8,11-7.2,21.3c1,13.1,9.1,21,16.9,31c3.4,4.4,7.1,8.8,10.4,13.5c5.1,7.2,11.8,13.3,11.3,24.5
	c-0.4,9.1-10.6,18.2-21.1,12.6c-4.4-2.4-6.5-6.3-7.6-12.2c-3.7,1-7.1,2.3-10.6,3.5c2.6,13.5,12.9,22.6,28,21.3
	c12.3-1.1,22-11.3,22.4-24.3c0.4-15.5-8.1-23.6-15.4-33.6c-3.3-4.5-7-9.2-10.6-13.9c-3.7-4.7-8.1-9.4-10.4-14.3
	c-2.5-5.3-3.1-13.9,0-18.9c7.1-11.4,26.3-6.5,26.3,7.2c3.7-1,7.1-2.3,10.6-3.5C227.4,114.2,219.4,105.2,207.2,104.3 M149.3,127.1
	c-3.7,4.6-8,10.6-11.9,15.8c-1.2,1.7-3.4,3.8-3.7,5.2c-0.6,2.9,0.5,8,0.9,11.3c2.6,26,8.9,49.8,17.8,67.9c3.7-0.1,8,0.3,11.3-0.2
	c-5.4-10.7-9.4-22.9-12.6-35.8c6.6-9.5,13-19.3,19.8-28.7c2,2.3,4,4.6,5.6,7.2c3.2-2.6,5.6-5.8,8.2-8.9
	C174.5,148,164.1,135.3,149.3,127.1 M223.1,158.8c2.6,3.1,5.4,5.9,8.5,8.5c6.8-5.5,13-12.7,20.4-16.7v10.6c1.9,0.1,4.3-0.3,5.9,0.2
	c-2.8,25.3-9.2,47.1-18.5,66h11.7c11.1-21.9,17.5-48.4,19.8-79.2h-7.4c-0.1-6.8,0.3-14.2-0.2-20.6
	C248.6,136.7,235.2,147,223.1,158.8 M169.7,254.1c0.1-6.4-0.3-13.3,0.2-19.3c-4,0.1-8.5-0.3-12.2,0.2
	C161.6,241.4,165.2,248.2,169.7,254.1 M176.6,234.7c-0.2,0-0.2,0.3-0.2,0.6v28.4c2.8,3.7,5.4,7.6,8.7,10.9v-39.9H176.6z
	 M191.4,235.4v35c0,3.6-0.8,8.7,0,11.7c0.5,1.7,3.9,4.6,5.2,5.9c2,2,3.7,3.8,5.9,5.4c2.1-1.6,3.8-3.4,5.9-5.4
	c1.4-1.4,4.7-4.1,5.2-6.1c0.8-3.2,0-7.9,0-11.7v-35.4h-21.9C191.4,234.8,191.4,235.1,191.4,235.4 M220.3,234.7
	c-0.5,12.8-0.1,26.6-0.2,39.7c1.4-1.3,2.8-3.1,4.3-5c1.2-1.5,3.7-4,4.1-5.9c0.9-4.2,0-9.6,0-14.3v-14.5H220.3L220.3,234.7z
	 M235.2,234.7c0.1,6.4-0.3,13.3,0.2,19.3c4.2-6.2,8.1-12.6,11.7-19.3H235.2z"/>
<path id="path23" class="st1" d="M164.5,154.8c-5.1,8.1-10.8,15.6-15.8,23.7c-1.5-5.8-2.6-14.7-3.3-22.1c-0.2-2.7-1-5.9-0.7-7.8
	c0.3-1.3,4.5-5.3,5.4-6.7C155.7,145.4,160.6,149.6,164.5,154.8"/>
<path id="path25" class="st1" d="M339.6,40.9c3.2,80.8-11.2,147.5-36.5,201.7c-12.6,27-28.9,51.1-45.6,74
	c-16.8,23.2-35.7,44.4-56,63.6c-20.6-19.1-39.6-40.3-56.4-63.4c-16.8-22.9-32.8-47.1-45.6-74C73.8,188.7,60.2,122.3,62.9,40.9
	c38.5-10.2,80.8-19.5,127.6-21.7c28.1-1.3,54.6,2.3,79.2,6.3C294.4,29.5,317.8,34.8,339.6,40.9 M208.1,38.9c-2,8-3.7,16.4-5.6,24.5
	h6.3c0.2-1.1,0-2.4,0.6-3c1.4-0.1,2.4,0.4,3.9,0.2c0,1.1,0.2,2.2,0.4,3h6.1c-1.8-8.3-3.4-16.9-5.6-24.7H208.1z M221.8,39.1v0.7
	c-0.3,9.6-4,25.3,6.7,24.7c9.6-0.5,6.4-15.3,7.8-24.5c-1.8-0.3-4.1-0.1-5.9-0.4c-0.2,3.1-0.2,5.6-0.4,9.3c-0.1,1.9,0.2,7.9-2,7.8
	c-2.3-0.1-1-5.9-0.9-7.8c0.2-3.8,0.1-6.3,0.4-9.3C225.9,39.2,223.7,39.3,221.8,39.1 M181,40c0,2.9,0.5,5.3,0.4,8.2
	c0.9,0,2.4-0.6,3-0.2c0.5,5.2,0.8,10.8,1.1,16.3c2.2,0.2,3.7-0.3,5.9-0.2c-0.3-5.6-0.6-11.3-1.1-16.7c1-0.1,2.6,0.3,3.3-0.2
	c-0.5-2.3-0.3-5.4-0.7-7.8C188.9,39.5,185.1,40,181,40 M241.5,65.2c1.8,0.1,3.2,0.4,5,0.4c2.9-7.9,5.7-15.8,8.7-23.7
	c-2-0.3-4-0.5-6.1-0.6c-1.4,4.1-2.5,8.5-3.9,12.6c-0.1-4.6-0.7-8.7-0.9-13.2c-2.1-0.1-4.2-0.3-6.1-0.7
	C239.2,48.5,240.5,56.7,241.5,65.2 M169,41.3c-1.9,0.2-3.9,0.3-5.6,0.6c0.8,8.2,1.6,16.3,2.6,24.3c1.9,0,3.4-0.5,5.4-0.4
	c-0.2-4.1-0.7-7.9-1.3-11.7c2.2,3.5,3.9,7.4,5.9,11.1c2,0,3.6-0.5,5.6-0.4c-0.9-8.1-1.8-16.3-2.6-24.5c-1.8,0.3-3.9,0.3-5.6,0.7
	c0.6,4.1,0.7,8.7,1.7,12.4C172.8,49.5,171,45.4,169,41.3 M253,66.5c3.6,0.6,7.3,1.1,10.9,1.7c0.1-2.5,0.8-4.4,0.9-6.9
	c-1.7-0.1-3.4-0.3-4.8-0.9c0.5-0.4-0.2-1.9,0.7-2c1.3,0.3,2.6,0.6,4.1,0.7c0-2.4,0.7-4.2,0.9-6.5c-1.5-0.2-3.2-0.1-4.1-0.9
	c0-0.7-0.1-1.5,0.4-1.7c1.5,0.2,2.9,0.6,4.6,0.6c0.1-2.5,0.8-4.3,0.9-6.7c-3.4-0.7-7.1-1-10.4-1.7C255.6,50.3,254.5,58.5,253,66.5
	 M152.5,68c4,1.2,7.4-0.8,8.9-3.5c4.8-8.4-0.9-22.3-9.1-21.3C141.4,44.6,144.4,65.6,152.5,68 M280.6,47.4c-1.9-1.9-7-2.3-10.2-2.8
	c-1.4,8.1-3.3,15.8-4.8,23.9c1.8,0.4,3.6,0.9,5.6,1.1c0.5-2.4,0.8-5,1.5-7.2c0,2.8,0.6,5,0.7,7.8c2.3,0.1,4.8,1.3,6.7,1.1
	c-1-3.1-1.1-7.1-2.4-10C282.7,60.3,283.7,50.5,280.6,47.4 M133.2,47c0,4,0.5,8.6,0.2,12.2c-1.2-3.9-3-7.1-4.1-11.1
	c-2.3,0.1-4,0.8-6.1,1.1c0.9,8,1.7,16.1,2.6,24.1c-0.8-1-1.7-2.2-3-3.9c-0.6-0.8-3.2-3.1-3.3-3.9c0-0.5,1.4-1.6,1.5-2
	c0.9-3.1-1-8.4-3-10.2c-3.4-3.1-8.1-0.3-12.6,0.4c2.1,7.9,4.3,15.8,6.3,23.9c1.9-0.5,3.8-1,5.6-1.5c-0.6-2.2-1.3-4.4-1.7-6.7
	c1.4,1.9,2.6,4.1,3.9,6.1c4.1-0.8,7.7-2.2,11.9-2.8c-0.5-3.8-1.5-8.2-1.5-11.7c1.4,3.9,2.9,7.7,4.8,11.1c0.9-0.5,2.4-0.4,3.3-0.9
	c-0.3-3.6-0.4-8.5,0-12.2c0.9,4,2.1,7.6,3,11.5c2-0.2,3.7-0.8,5.6-1.1c-2.8-7.7-4.7-16.2-8-23.4C136.8,46.2,135.1,46.7,133.2,47
	 M294.5,49.3c-10.5-1.9-16.1,17.4-9.3,23.2c7,6.1,15-4.5,15-10.9c-2.9-0.7-5.6-1.7-8.7-2.2c-0.2,2.1-1,3.6-1.3,5.6
	c0.6,0.5,1.9,0.3,2.4,0.9c-0.9,0.6-1.2,1.4-2.6,1.1c-5-1.1,1.8-16,4.6-7.8c2.1-0.4,3.9-1.1,6.1-1.5C299.9,53.3,298.1,50,294.5,49.3
	 M305.4,53c-2.5,7.8-5.2,15.3-7.6,23.2c1.9,0.5,3.6,1.2,5.4,1.7c1-4,2.4-7.4,3.5-11.3c0.4,4.1,0.5,8.4,0.6,12.8
	c2,0.3,3.3,1.3,5.4,1.5c2.5-7.8,5.2-15.3,7.6-23.2c-1.9-0.5-3.6-1.2-5.4-1.7c-1.2,4.3-2.7,8.2-3.7,12.6c0-4.9-0.4-9.3-0.4-14.1
	C308.8,54.3,307.5,53.3,305.4,53 M92.6,57.6c2,8.2,4.8,15.6,6.9,23.7c3.4-1.1,7.1-2.1,10.4-3.3c-0.6-2.2-1.3-4.3-2-6.5
	c-1.7,0.3-3,1-4.8,1.3c-0.1-0.7-0.5-1-0.4-2c1.3-0.3,2.4-1,3.9-1.1c-0.5-2.3-1.1-4.5-2-6.5c-1.3,0.5-2.7,0.9-4.1,1.3
	c0-0.8-0.3-1.3-0.4-2c1.4-0.5,2.9-0.9,4.3-1.3c-0.6-2.4-1-4.9-2.2-6.7C99.3,55.7,95.9,56.6,92.6,57.6 M323.2,59.1
	c-2.8,7.7-6,15-8.7,22.8c3.3,1.3,6.7,2.6,10,3.9c0.7-2.2,1.8-4.1,2.4-6.5c-1.4-0.7-3.3-0.9-4.3-2c0.3-0.6,0.3-1.4,0.9-1.7
	c1.2,0.6,2.5,1.1,3.9,1.5c0.6-2.2,1.8-3.9,2.2-6.3c-1.5-0.3-2.8-0.9-3.9-1.5c0.5-0.4,0.3-1.4,0.9-1.7c1.4,0.6,2.9,1.2,4.3,1.7
	c0.7-2.3,1.8-4.2,2.4-6.5C329.8,61.6,326.8,60.1,323.2,59.1 M85.9,59.8c-1.4,1.1-3.9,1-5.2,2.2c3,7.4,5.1,15.8,8.2,23
	c3.1-1.4,6.9-2,9.8-3.7c-1.2-2.2-1.5-5.3-2.8-7.4c-1.3,0.7-2.9,1-4.3,1.5C89.7,70.2,88.4,64.4,85.9,59.8 M79.6,87.6
	c2.7,0.6,6.9-0.7,7.2-2.8c0.1-1-1.1-3.1-1.5-4.3c-0.6-1.6-0.9-3-1.7-4.1c-0.6,1.8-0.9,3.2-2.8,3.3c-5.6,0.2-5.6-12.9,1.3-7.6
	c-1-3.2-2.4-5.9-3.5-8.9C63.9,63.2,70.9,85.6,79.6,87.6 M195.3,89.7c-29.3,1.4-56.2,7.8-80.1,14.3c-2.1,52.4,5.9,95.9,22.4,131.1
	c16.4,35.2,38.7,64.8,64.9,89.7c51.2-51,91.7-115.1,86.8-220.8C261.6,97.3,230.6,88.1,195.3,89.7 M134.7,291v-38.9h-23.9
	C118.2,265.6,125.9,278.9,134.7,291 M267.4,252.1c-0.5,12.5-0.1,26-0.2,38.9c8.8-12.1,16.4-25.4,23.9-38.9H267.4z M148.4,306.4
	c-0.1,1.4-0.5,2.8-0.2,3.9c0.4,1.8,2.6,3.7,4.1,5.6c4.6,6,8.5,11.5,13.2,16.5v-35.8c-6-8.2-11.6-16.9-17.4-25.4
	C148.2,282,148.9,295.9,148.4,306.4 M240.4,294.6c-1.4,2-3.8,4.5-4.1,6.1c-0.5,2.2,0,5.2,0,7.8v23.7c4.4-4.5,8.7-10.3,13-15.8
	c1.5-1.9,3.7-4.1,4.1-5.9c0.5-2.3,0-5.6,0-8.5c0-8.3,0.2-19.1-0.2-26C249.8,281.9,244.8,288.7,240.4,294.6 M178.6,339.1
	c0,2.7-0.6,6.4,0,8.5c0.5,1.6,3.6,4.3,5.2,6.1c5.7,6.2,11.3,11.5,17.1,16.7c6-5,11.5-10.9,16.9-16.9c1.8-2,4.9-4.1,5.4-6.1
	c0.5-2.1,0-5.1,0-7.6v-23c-6.9,7.2-13.3,14.9-20.8,21.5c-8.6-7.7-16.2-16.5-23.9-25.2V339.1L178.6,339.1z"/>
</svg>
