<?xml version="1.0" encoding="utf-8"?>
<!-- Generator: Adobe Illustrator 19.0.0, SVG Export Plug-In . SVG Version: 6.00 Build 0)  -->
<svg version="1.1" id="Layer_1" xmlns="http://www.w3.org/2000/svg" xmlns:xlink="http://www.w3.org/1999/xlink" x="0px" y="0px"
	 viewBox="0 0 400 400" style="enable-background:new 0 0 400 400;" xml:space="preserve">
<style type="text/css">
	.st0{fill-rule:evenodd;clip-rule:evenodd;fill:#FFFFFF;}
	.st1{clip-path:url(#XMLID_68_);}
	.st2{clip-path:url(#XMLID_69_);}
	.st3{clip-path:url(#XMLID_71_);fill:#193059;}
	.st4{clip-path:url(#XMLID_71_);fill:#8CC2E4;}
	.st5{clip-path:url(#XMLID_72_);}
	.st6{clip-path:url(#XMLID_73_);}
	.st7{clip-path:url(#XMLID_75_);fill:#8CC2E4;}
	.st8{clip-path:url(#XMLID_75_);fill:#193059;}
	.st9{clip-path:url(#XMLID_76_);}
	.st10{clip-path:url(#XMLID_78_);}
	.st11{clip-path:url(#XMLID_79_);fill:#193059;}
	.st12{clip-path:url(#XMLID_81_);}
	.st13{clip-path:url(#XMLID_82_);}
	.st14{clip-path:url(#XMLID_84_);fill:#193059;}
	.st15{clip-path:url(#XMLID_85_);}
	.st16{clip-path:url(#XMLID_86_);fill:#193059;}
</style>
<g id="XMLID_65_">
	<path id="XMLID_153_" class="st0" d="M249.7,186.9c0,21.5-22.8,39-51,39s-51-17.5-51-39c0-21.5,22.8-39,51-39
		S249.7,165.3,249.7,186.9L249.7,186.9z M249.7,186.9"/>
	<g id="XMLID_125_">
		<defs>
			<rect id="XMLID_61_" x="5.2" y="41.9" width="385.3" height="304.1"/>
		</defs>
		<defs>
			<path id="XMLID_149_" d="M3.8-24.7H392v388.2H3.8V-24.7L3.8-24.7z M3.8-24.7"/>
		</defs>
		<defs>
			<rect id="XMLID_43_" x="5.3" y="41.9" width="385.2" height="304.6"/>
		</defs>
		<clipPath id="XMLID_68_">
			<use xlink:href="#XMLID_61_"  style="overflow:visible;"/>
		</clipPath>
		<clipPath id="XMLID_69_" class="st1">
			<use xlink:href="#XMLID_149_"  style="overflow:visible;"/>
		</clipPath>
		<clipPath id="XMLID_71_" class="st2">
			<use xlink:href="#XMLID_43_"  style="overflow:visible;"/>
		</clipPath>
		<path id="XMLID_146_" class="st3" d="M247.8,129.7c0-12.9-0.9-26.3-15.5-31.8c-27.4-9.2-64.7-6.2-88.5,13.8
			c-7.4,7.3-10.7,22.2-3.4,27.7c-50.5-19.8-57.6,116.5-16.8,87.5c-5.6,27.4,16.2,55.5,36.1,63.8c14.9,6.2,40.5,9.5,49.7-14.2
			c14.2,10.2,34.3,18.2,61.5-5.6c14.4-12.6,24.3-48.8,10.6-58.6C319.1,187.9,281.6,95.9,247.8,129.7 M211.7,211.2
			c-14.5,12.2-32.8,14.5-40.8,5c-8-9.5-2.8-27.1,11.8-39.3c14.5-12.2,32.8-14.5,40.8-5C231.5,181.4,226.2,198.9,211.7,211.2"/>
		<path id="XMLID_143_" class="st4" d="M144.9,264.2l13.9-29.1h7.9l-5.3,11.2h8.4L175,235h7.9L169,264.2h-7.9l5.5-11.5h-8.4
			l-5.5,11.5H144.9z M144.9,264.2"/>
		<path id="XMLID_140_" class="st4" d="M237.6,264.2h-9.1l-0.5-10.8h-2.6l-5.2,10.8h-7.9l13.9-29.1h12.7c3.4,0,5.6,0.9,6.7,2.7
			c1.1,1.9,1,4.1-0.2,6.6c-0.9,1.8-2.1,3.4-3.8,4.7c-1.6,1.3-3.3,2.2-5.1,2.9L237.6,264.2L237.6,264.2z M235.5,246.5
			c0.9-0.6,1.5-1.3,1.9-2.1c0.4-0.8,0.4-1.5,0-2.1c-0.4-0.6-1.1-0.9-2.1-0.9h-4.4l-2.8,5.9h4.5C233.6,247.4,234.5,247.1,235.5,246.5
			"/>
		<path id="XMLID_136_" class="st4" d="M274.3,264.2h-8.3l0.6-4.3h-9.9l-3.6,4.3h-8.2l25.5-29.1h6.1L274.3,264.2L274.3,264.2z
			 M267.4,253.9l1-7.8l-6.6,7.8H267.4L267.4,253.9z M267.4,253.9"/>
		<path id="XMLID_133_" class="st4" d="M308.9,254c-1.5,3.1-3.9,5.6-7.1,7.6c-3.3,1.9-6.6,2.9-10,2.9c-3.4,0-5.9-1-7.2-2.9
			c-1.4-1.9-1.4-4.5,0.1-7.6l9-18.9h7.9l-8.9,18.7c-0.6,1.3-0.8,2.4-0.4,3.1c0.4,0.7,1.3,1.1,2.6,1.1c1.3,0,2.5-0.4,3.7-1.1
			c1.1-0.8,2-1.8,2.7-3.1l8.9-18.7h7.9L308.9,254L308.9,254z M308.9,254"/>
		<path id="XMLID_130_" class="st4" d="M340.3,257.8l-3,6.4H316l13.8-29.1h7.9l-10.8,22.8H340.3z M340.3,257.8"/>
		<path id="XMLID_127_" class="st4" d="M350,241.4l3.1-6.4h23.6l-3.1,6.4h-7.9L355,264.2h-7.9l10.8-22.7H350z M350,241.4"/>
	</g>
	<g id="XMLID_115_">
		<defs>
			<rect id="XMLID_42_" x="5.2" y="41.9" width="385.3" height="304.1"/>
		</defs>
		<defs>
			<path id="XMLID_121_" d="M5.2,42.4h385.3v303.5H5.2V42.4L5.2,42.4z M5.2,42.4"/>
		</defs>
		<defs>
			<rect id="XMLID_36_" x="5.3" y="41.9" width="385.2" height="304.6"/>
		</defs>
		<clipPath id="XMLID_72_">
			<use xlink:href="#XMLID_42_"  style="overflow:visible;"/>
		</clipPath>
		<clipPath id="XMLID_73_" class="st5">
			<use xlink:href="#XMLID_121_"  style="overflow:visible;"/>
		</clipPath>
		<clipPath id="XMLID_75_" class="st6">
			<use xlink:href="#XMLID_36_"  style="overflow:visible;"/>
		</clipPath>
		<path id="XMLID_118_" class="st7" d="M204.6,257.8h-13.9l2.4-5.1H205l3-6.4h-11.9l2.3-4.9h13.9l3-6.4h-21.8l-13.9,29.1h21.8
			L204.6,257.8z M204.6,257.8"/>
		<path id="XMLID_37_" class="st8" d="M50.6,105.6c-2.7,1.1-5.4,2.2-8,3.4c-2.1-4.9-4.3-9.9-6.4-14.8c-0.5,3.2-0.9,6.5-1.4,9.7
			c-1.7,0.8-3.5,1.6-5.2,2.4c-2.7-1.8-5.5-3.6-8.3-5.3c2.3,4.9,4.7,9.7,7,14.5c-2.6,1.3-5.2,2.6-7.9,3.9c-5.1-10-10.2-20-15.3-30
			c2.8-1.4,5.6-2.8,8.4-4.1c4.8,3.2,9.4,6.5,14,9.8c0.5-5.7,1-11.3,1.7-17c2.8-1.2,5.7-2.4,8.5-3.6C42.1,84.8,46.3,95.2,50.6,105.6"
			/>
	</g>
	<g id="XMLID_97_">
		<defs>
			<rect id="XMLID_35_" x="5.2" y="41.9" width="385.3" height="304.1"/>
		</defs>
		<defs>
			<path id="XMLID_111_" d="M3.8-24.7H392v388.2H3.8V-24.7L3.8-24.7z M3.8-24.7"/>
		</defs>
		<defs>
			<rect id="XMLID_22_" x="5.3" y="41.9" width="385.2" height="304.6"/>
		</defs>
		<clipPath id="XMLID_76_">
			<use xlink:href="#XMLID_35_"  style="overflow:visible;"/>
		</clipPath>
		<clipPath id="XMLID_78_" class="st9">
			<use xlink:href="#XMLID_111_"  style="overflow:visible;"/>
		</clipPath>
		<clipPath id="XMLID_79_" class="st10">
			<use xlink:href="#XMLID_22_"  style="overflow:visible;"/>
		</clipPath>
		<path id="XMLID_108_" class="st11" d="M80.4,73.9c0.2,0.5,0.5,1.5,0.9,3c0.4,1.5,0.7,2.5,0.9,3c0.1,0.5,0.3,1.4,0.6,2.6
			c0.2,1.3,0.4,2.2,0.3,2.9c0,0.7-0.2,1.5-0.4,2.5c-0.2,1-0.6,1.9-1,2.8c-1.8,3.2-4.5,5.4-8.2,6.6c-3.7,1.3-7.2,1.2-10.6-0.3
			c-0.9-0.4-1.8-0.9-2.5-1.6c-0.7-0.7-1.4-1.3-1.8-1.8c-0.4-0.5-1-1.4-1.5-2.5c-0.6-1.1-0.9-2-1.1-2.4c-0.2-0.5-0.5-1.4-1.1-2.9
			c-0.6-1.5-0.9-2.4-1.1-2.9c-0.2-0.5-0.4-1.3-0.8-2.6c-0.3-1.2-0.5-2.2-0.5-2.9c0-0.7,0.1-1.6,0.2-2.6c0.2-1,0.5-2,1-2.9
			c1.8-3.4,4.7-5.7,8.8-7.1c4-1.4,7.8-1.3,11.2,0.3c0.9,0.4,1.8,1,2.5,1.7c0.7,0.7,1.3,1.3,1.8,1.9c0.4,0.6,0.9,1.4,1.4,2.6
			C79.9,72.6,80.2,73.4,80.4,73.9 M74.2,85.2c-0.1-1.1-0.6-2.9-1.5-5.6c-0.9-2.7-1.6-4.5-2.1-5.5c-0.5-0.9-1.1-1.6-1.7-2
			c-1.1-0.7-2.4-0.7-4-0.2c-1.5,0.5-2.5,1.4-3,2.6c-0.3,0.7-0.3,1.6-0.2,2.7c0.1,1.1,0.7,2.9,1.6,5.6c0.9,2.7,1.7,4.5,2.2,5.4
			c0.5,0.9,1.1,1.6,1.8,1.9c1.1,0.7,2.4,0.8,3.8,0.3c1.5-0.5,2.4-1.3,2.9-2.6C74.2,87.1,74.3,86.3,74.2,85.2"/>
		<path id="XMLID_30_" class="st11" d="M123.1,83.8c-2.4,0.5-4.9,1-7.3,1.5c-4.8-4.7-9.8-9.4-15-13.9c1.4,5.5,2.7,11,4.1,16.4
			c-2.8,0.7-5.5,1.4-8.3,2.2c-2.9-10.8-5.9-21.7-8.8-32.5c2.6-0.7,5.3-1.4,7.9-2.1c5.3,4.5,10.5,9.1,15.5,13.7
			c-1.2-5.5-2.4-11-3.7-16.5c3-0.7,6.1-1.3,9.1-1.9C118.7,61.8,120.9,72.8,123.1,83.8"/>
		<path id="XMLID_29_" class="st11" d="M155.4,52.3c-3,0.3-6,0.7-9,1.1c1.1,8.7,2.2,17.4,3.4,26.1c-2.8,0.4-5.6,0.8-8.4,1.2
			c-1.3-8.7-2.6-17.3-3.9-26c-3,0.5-6,0.9-9,1.5c-0.4-2.4-0.8-4.8-1.3-7.3c9.1-1.6,18.3-2.9,27.5-3.9
			C154.8,47.4,155.1,49.8,155.4,52.3"/>
		<path id="XMLID_103_" class="st11" d="M189.6,45.8c2.3,2.1,3.5,4.6,3.6,7.6c0.1,3-1,5.5-3.2,7.7c-2.1,2.2-5.1,3.3-8.8,3.5
			c-1.8,0.1-3.6,0.2-5.4,0.3c0.2,4,0.5,8,0.7,12c-2.8,0.2-5.7,0.4-8.5,0.6c-0.9-11.2-1.8-22.4-2.8-33.6c5-0.4,9.9-0.7,14.9-1
			C184.1,42.7,187.3,43.7,189.6,45.8 M183.1,56c0.7-0.7,1-1.5,1-2.4c0-0.9-0.4-1.7-1.2-2.3c-0.7-0.6-1.7-0.9-2.9-0.9
			c-1.7,0.1-3.4,0.2-5.1,0.3c0.1,2.3,0.3,4.5,0.4,6.8c1.7-0.1,3.4-0.2,5.1-0.3C181.5,57.1,182.4,56.7,183.1,56"/>
		<path id="XMLID_26_" class="st11" d="M227,77c-7.8-0.5-15.7-0.8-23.6-0.9c0.1-11.2,0.1-22.5,0.2-33.7c8.5,0.1,17,0.4,25.6,0.9
			c-0.2,2.5-0.3,4.9-0.5,7.4c-5.4-0.4-10.7-0.6-16-0.8c0,1.9-0.1,3.8-0.2,5.6c4.5,0.1,9,0.3,13.5,0.6c-0.2,2.5-0.3,4.9-0.4,7.4
			c-4.4-0.3-8.9-0.5-13.3-0.6c-0.1,2-0.1,3.9-0.2,5.9c5.1,0.1,10.2,0.4,15.3,0.7C227.3,72.1,227.1,74.5,227,77"/>
		<path id="XMLID_25_" class="st11" d="M260.8,80.7c-7.6-1.2-15.3-2.1-23-2.8c1.1-11.2,2.1-22.4,3.2-33.5c3.1,0.3,6.1,0.6,9.2,1
			c-1,8.7-2,17.4-3,26.1c4.9,0.6,9.8,1.2,14.7,2C261.5,75.8,261.2,78.3,260.8,80.7"/>
		<path id="XMLID_24_" class="st11" d="M293.3,87.1c-7.5-1.8-15.1-3.4-22.7-4.7c2-11,4-22.1,5.9-33.2c3,0.6,6.1,1.1,9.1,1.7
			c-1.7,8.6-3.5,17.2-5.2,25.8c4.9,1,9.7,2,14.6,3.2C294.4,82.3,293.8,84.7,293.3,87.1"/>
		<path id="XMLID_23_" class="st11" d="M311.1,91.8c-2.8-0.8-5.5-1.6-8.3-2.3c2.9-10.9,5.8-21.7,8.7-32.6c3,0.8,6,1.6,9,2.5
			C317.4,70.2,314.3,81,311.1,91.8"/>
	</g>
	<g id="XMLID_87_">
		<defs>
			<rect id="XMLID_21_" x="5.2" y="41.9" width="385.3" height="304.1"/>
		</defs>
		<defs>
			<path id="XMLID_93_" d="M5.2,42.4h385.3v303.5H5.2V42.4L5.2,42.4z M5.2,42.4"/>
		</defs>
		<defs>
			<rect id="XMLID_15_" x="5.3" y="41.9" width="385.2" height="304.6"/>
		</defs>
		<clipPath id="XMLID_81_">
			<use xlink:href="#XMLID_21_"  style="overflow:visible;"/>
		</clipPath>
		<clipPath id="XMLID_82_" class="st12">
			<use xlink:href="#XMLID_93_"  style="overflow:visible;"/>
		</clipPath>
		<clipPath id="XMLID_84_" class="st13">
			<use xlink:href="#XMLID_15_"  style="overflow:visible;"/>
		</clipPath>
		<path id="XMLID_18_" class="st14" d="M345.2,103.3c-7.4-2.9-15-5.6-22.5-8c3.5-10.7,6.9-21.4,10.4-32.1c8.2,2.7,16.4,5.6,24.4,8.7
			c-0.9,2.3-1.8,4.6-2.7,6.9c-5.1-2-10.2-3.9-15.3-5.6c-0.6,1.8-1.2,3.6-1.9,5.3c4.3,1.5,8.6,3.1,12.9,4.7c-0.9,2.3-1.8,4.6-2.6,6.9
			c-4.2-1.6-8.4-3.2-12.7-4.6c-0.6,1.9-1.3,3.7-1.9,5.6c4.9,1.7,9.8,3.5,14.6,5.4C347,98.8,346.1,101.1,345.2,103.3"/>
		<path id="XMLID_89_" class="st14" d="M380.9,119.4c-3-1.5-6-3-9.1-4.5c-0.1-4.7-0.2-9.4-0.5-14.1c-0.9-0.4-1.8-0.8-2.8-1.3
			c-1.7,3.8-3.4,7.6-5.2,11.4c-2.6-1.2-5.3-2.4-7.9-3.5c4.4-10.3,8.7-20.7,13.1-31c4.7,2,9.3,4,13.9,6.2c3.7,1.7,6.1,4.1,7.3,7
			c1.2,2.9,1,5.7-0.3,8.4c-1,1.9-2.3,3.2-4,4.1c-1.7,0.8-3.5,1.2-5.3,1.1C380.5,108.7,380.7,114.1,380.9,119.4 M379.1,95.7
			c0.9-0.3,1.6-0.9,2-1.7c0.4-0.8,0.4-1.7,0-2.6c-0.4-0.9-1.1-1.7-2.2-2.2c-1.6-0.7-3.2-1.5-4.8-2.2c-0.9,2.1-1.9,4.1-2.8,6.2
			c1.6,0.7,3.1,1.4,4.7,2.2C377.2,95.9,378.2,96,379.1,95.7"/>
	</g>
	<g id="XMLID_66_">
		<defs>
			<rect id="XMLID_14_" x="5.2" y="41.9" width="385.3" height="304.1"/>
		</defs>
		<defs>
			<path id="XMLID_83_" d="M3.8-24.7H392v388.2H3.8V-24.7L3.8-24.7z M3.8-24.7"/>
		</defs>
		<clipPath id="XMLID_85_">
			<use xlink:href="#XMLID_14_"  style="overflow:visible;"/>
		</clipPath>
		<clipPath id="XMLID_86_" class="st15">
			<use xlink:href="#XMLID_83_"  style="overflow:visible;"/>
		</clipPath>
		<path id="XMLID_80_" class="st16" d="M120.9,345.6h-10.6l-6.6-12.5h-3.1v12.5h-9.1v-33.7h14.7c3.9,0,7,1.1,9.3,3.2
			c2.2,2.1,3.4,4.7,3.4,7.6c0,2.1-0.6,3.9-1.8,5.4c-1.2,1.5-2.6,2.6-4.3,3.4L120.9,345.6L120.9,345.6z M108.7,325.2
			c0.7-0.7,1.1-1.5,1.1-2.4c0-0.9-0.4-1.7-1.1-2.4c-0.7-0.7-1.7-1-2.9-1h-5.2v6.8h5.2C107,326.2,108,325.8,108.7,325.2"/>
		<path id="XMLID_77_" class="st16" d="M165.9,333.8c0,3.6-1.4,6.5-4.1,8.8c-2.7,2.2-6.1,3.4-10,3.4c-3.9,0-7.3-1.1-10-3.4
			c-2.7-2.2-4-5.2-4-8.8v-21.9h9.1v21.7c0,1.5,0.4,2.7,1.3,3.6c0.9,0.9,2.1,1.3,3.6,1.3c1.5,0,2.7-0.4,3.6-1.3
			c0.9-0.9,1.4-2.1,1.4-3.6v-21.7h9.1V333.8L165.9,333.8z M165.9,333.8"/>
		<path id="XMLID_74_" class="st16" d="M211.3,330.9c0,2.8-0.3,5-0.8,6.7c-0.5,1.7-1.5,3.2-2.9,4.5c-2.7,2.5-6.3,3.8-10.8,3.8
			c-4.1,0-7.5-1.3-10.3-3.8c-0.8-0.7-1.4-1.5-1.9-2.4c-0.5-0.9-0.9-1.7-1.1-2.3c-0.2-0.7-0.4-1.6-0.6-2.9c-0.1-1.3-0.2-2.2-0.2-2.7
			v-3.1v-3.1c0-0.5,0.1-1.4,0.2-2.7c0.1-1.3,0.3-2.2,0.6-2.9c0.2-0.7,0.6-1.4,1.1-2.3c0.5-0.9,1.1-1.7,1.9-2.4
			c2.8-2.5,6.2-3.8,10.3-3.8c4.4,0,7.8,1.1,10.1,3.2c2.4,2.1,3.8,4.8,4.3,7.9h-9.2c-0.4-1.3-1-2.3-1.8-2.9c-0.8-0.6-2-0.9-3.5-0.9
			c-1.6,0-2.8,0.5-3.6,1.5c-0.5,0.6-0.8,1.4-1,2.4c-0.2,1.1-0.3,3-0.3,5.8c0,2.8,0.1,4.8,0.3,5.9c0.2,1.1,0.6,1.9,1,2.5
			c0.8,1,2,1.4,3.6,1.4c1.8,0,3.2-0.4,4.1-1.3c0.9-0.9,1.4-2.1,1.4-3.6v-0.5h-5.5v-6.9h14.5V330.9L211.3,330.9z M211.3,330.9"/>
		<path id="XMLID_70_" class="st16" d="M255.8,335.7c0,3.1-1.1,5.6-3.2,7.3c-2.2,1.8-4.9,2.6-8.3,2.6h-16.2v-33.7h15.4
			c3.8,0,6.7,0.9,8.7,2.6c2.1,1.8,3.1,4.1,3.1,7.1c0,2.8-1.3,5-4.1,6.7c0.5,0.3,1,0.6,1.4,0.8c0.4,0.3,0.8,0.7,1.4,1.3
			c0.6,0.6,1,1.3,1.3,2.2C255.7,333.6,255.8,334.6,255.8,335.7 M245.4,324c0.5-0.5,0.8-1.2,0.8-1.9c0-0.8-0.3-1.4-0.8-2
			c-0.5-0.5-1.4-0.8-2.5-0.8h-5.7v5.5h5.7C244.1,324.8,244.9,324.6,245.4,324 M245.9,337.3c0.5-0.6,0.8-1.3,0.8-2.1
			c0-0.8-0.3-1.5-0.8-2.1c-0.5-0.6-1.4-0.8-2.5-0.8h-6.1v5.9h6.1C244.5,338.2,245.4,337.9,245.9,337.3"/>
		<path id="XMLID_67_" class="st16" d="M272.7,311.9h9.9l5.9,12.1l5.8-12.1h9.9l-11.2,20v13.7h-9.1v-13.7L272.7,311.9z M272.7,311.9
			"/>
	</g>
</g>
</svg>
