<?xml version="1.0" encoding="utf-8"?>
<!-- Generator: Adobe Illustrator 19.0.0, SVG Export Plug-In . SVG Version: 6.00 Build 0)  -->
<svg version="1.1" id="Layer_1" xmlns="http://www.w3.org/2000/svg" xmlns:xlink="http://www.w3.org/1999/xlink" x="0px" y="0px"
	 viewBox="0 0 400 400" style="enable-background:new 0 0 400 400;" xml:space="preserve">
<style type="text/css">
	.st0{clip-path:url(#XMLID_31_);}
	.st1{clip-path:url(#XMLID_32_);}
	.st2{clip-path:url(#XMLID_33_);fill-rule:evenodd;clip-rule:evenodd;fill:#FFFFFF;}
	.st3{clip-path:url(#XMLID_33_);fill-rule:evenodd;clip-rule:evenodd;fill:#E12228;}
	.st4{fill-rule:evenodd;clip-rule:evenodd;fill:#010101;}
	.st5{fill-rule:evenodd;clip-rule:evenodd;fill:#E12228;}
	.st6{fill-rule:evenodd;clip-rule:evenodd;fill:#FFFFFF;}
	.st7{fill:none;stroke:#9A9B9D;stroke-width:2.4004;}
</style>
<g id="XMLID_2_">
	<g id="XMLID_21_">
		<defs>
			<rect id="XMLID_30_" x="22.2" y="-97" width="357.5" height="488.9"/>
		</defs>
		<defs>
			<path id="XMLID_27_" d="M22.3-97h357.2v488.9H22.3V-97L22.3-97z M22.3-97"/>
		</defs>
		<defs>
			<rect id="XMLID_22_" x="22.2" y="-96.9" width="356.6" height="489.5"/>
		</defs>
		<clipPath id="XMLID_31_">
			<use xlink:href="#XMLID_30_"  style="overflow:visible;"/>
		</clipPath>
		<clipPath id="XMLID_32_" class="st0">
			<use xlink:href="#XMLID_27_"  style="overflow:visible;"/>
		</clipPath>
		<clipPath id="XMLID_33_" class="st1">
			<use xlink:href="#XMLID_22_"  style="overflow:visible;"/>
		</clipPath>
		<path id="XMLID_26_" class="st2" d="M235.7,10.3c-11.7-2.1-23.5-5.4-34.8-6.1c-4.8-0.3-12.4,2-18.1,2.9
			c-40.7,6.8-80.3,14.2-120.8,21c-7,41-16.7,78.4-25.5,117.8c-8.3,37.3-16.7,87.4-2.9,125.2c12.4,33.9,38.1,57.5,66.7,76.6
			c14.1,9.4,30.2,17.1,46.8,24.8c7.8,3.6,16.3,7.5,24.9,10.8c8.7,3.4,18.2,7,27.8,8.2c10,1.2,20.8-1.9,30.1-5
			c27.2-9.2,49.5-23.1,70.5-37.1c28.5-19.1,54.1-42.4,66.1-77.2c6.4-18.6,8.8-40.1,8.2-63.5c-1.1-45.4-11.5-84.9-20.5-122.8
			c-4.6-19.5-9-38.7-14.6-57C305.4,22.9,270.1,16.4,235.7,10.3"/>
		<path id="XMLID_23_" class="st3" d="M339.6,29c5.7,18.3,10,37.5,14.6,57c9,37.9,19.4,77.5,20.5,122.9c0.6,23.3-1.8,44.8-8.2,63.5
			c-11.9,34.9-37.6,58.1-66.1,77.2c-21,14-43.2,28-70.5,37.1c-9.3,3.1-20.1,6.2-30.1,5c-9.6-1.2-19.1-4.7-27.8-8.2
			c-8.6-3.4-17.1-7.2-24.9-10.8c-16.6-7.7-32.7-15.4-46.8-24.8c-28.6-19.2-54.3-42.7-66.7-76.6c-13.8-37.8-5.3-87.8,2.9-125.2
			c8.7-39.4,18.5-76.9,25.5-117.9c40.5-6.8,80.1-14.2,120.8-21.1c5.7-1,13.3-3.2,18.1-2.9c11.3,0.7,23.1,4.1,34.8,6.1
			C270.1,16.4,305.4,22.9,339.6,29 M217.6,12.9c-5.2-1-13.4-2.9-17.8-2.7c-5.4,0.4-10.9,2-16.4,2.9c-39.1,7-77.5,13.1-116.1,20.2
			C60.2,72.7,50.9,109,42.5,147.1c-8.1,36.1-16.1,84.5-3.2,121.4c11.6,33.4,37.1,55.5,64.6,74c20.6,13.8,44.7,25.3,69.3,34.8
			c8.4,3.2,17.3,7,26.3,8.5c9.1,1.5,20.5-2.1,28.9-5c26-8.8,48.2-22.3,68.2-36c27.1-18.6,53-40.8,64.3-74.6
			c6-17.8,8.6-39.2,7.6-61.1c-3-65.8-20.6-119.7-33.3-174.9C296.8,27.4,255.9,20,217.6,12.9"/>
	</g>
	<path id="XMLID_20_" class="st4" d="M329.6,40.7c10.8,53.1,30.7,102.7,32.5,165.5c0.6,20.5-1.6,40.6-7.3,57.9
		c-5.4,16.4-14.4,29.2-24.8,41.2c-20.6,23.8-46.8,40.4-76,55.8c-6.8,3.6-14.4,7.4-22.5,10.5c-7.9,3.1-16.7,6.2-25.4,7.3
		c-5.9,0.7-11-1.5-16.7-3.5c-12.4-4.4-24.4-9.8-35.4-14.9c-15.8-7.4-30.6-14.7-44.2-23.1c-27.5-17.1-52.7-38.5-63.2-71.1
		c-5.7-17.7-8.5-38.4-7.3-59.4c3.5-62.2,25.7-109.3,33.9-167.3c37.1-6.2,73.8-12.9,111.1-19.3c5.2-0.9,12.3-3,16.7-2.6
		c10.6,0.9,21.5,3.6,32.5,5.5C264.9,29.1,297.7,35.3,329.6,40.7"/>
	<path id="XMLID_14_" class="st5" d="M302.1,212.7H123.3l21.8,42.1h178.7L302.1,212.7L302.1,212.7z M189,339.4h101.8
		c1.8-1.2,3.5-2.4,5.2-3.6c0.3-0.2,0.7-0.5,1-0.7c1.3-1,2.7-1.9,4-2.9c0.5-0.4,1-0.7,1.4-1.1c1.2-0.9,2.3-1.8,3.5-2.7
		c0.5-0.4,1.1-0.9,1.6-1.3c1.1-0.9,2.1-1.7,3.2-2.6c0.5-0.5,1.1-1,1.7-1.5c1-0.9,2-1.7,3-2.6c0.6-0.5,1.1-1,1.7-1.6
		c1-0.9,1.9-1.8,2.8-2.7c0.5-0.5,1.1-1.1,1.6-1.6c1-1,2-2,2.9-3c0.4-0.5,1-0.9,1.4-1.4c1.4-1.5,2.8-3.1,4.2-4.6c0.9-1,1.7-2,2.6-3
		c0.2-0.2,0.4-0.4,0.5-0.7c0.8-1,1.7-2,2.5-3.1H167.8L189,339.4L189,339.4z M258.5,128.6H79.8l21.8,42h178.7L258.5,128.6
		L258.5,128.6z M215,44.5H72.4c-0.3,1.8-0.6,3.5-0.9,5.2v0c-0.3,1.7-0.6,3.4-0.9,5.1c0,0.1,0,0.1,0,0.2c-0.3,1.6-0.6,3.3-1,4.9
		c0,0.1,0,0.2-0.1,0.3c-0.3,1.6-0.6,3.2-1,4.8c0,0.1-0.1,0.3-0.1,0.4c-0.3,1.6-0.7,3.1-1,4.7c0,0.1-0.1,0.3-0.1,0.4
		c-0.4,1.6-0.7,3.1-1.1,4.6c0,0.1-0.1,0.3-0.1,0.4c-0.4,1.6-0.7,3.1-1.1,4.7c0,0.1,0,0.2-0.1,0.3c-0.4,1.6-0.8,3.3-1.2,4.9h172.2
		L215,44.5L215,44.5z M215,44.5"/>
	<path id="XMLID_9_" class="st6" d="M184.6,117.8V44.7h18.7v70.5c31.3,1.3,52,13.4,54.1,43.9c-6.2,0.6-12.5,1.2-19,1.5
		c-2-18.9-14.2-27.5-35.4-27.2c-1.5,16.7-6.4,30.1-16.9,37.7c24.3,9.1,57,9.7,70.2,29.8c29.9,2.7,49.1,19.4,56.4,44.7
		c9,31-0.5,61.7-17,77.5c-8.6,8.3-20.3,14.3-34.5,16.1c-15,1.9-30.3-1.3-41.5-7.6c-21.2-11.8-33.5-35.2-31.6-68.7
		c-23.4-6.1-39.1-20-40.9-47.7c5.8-1.1,12.6-1.2,19-1.8c1.4,17.2,10.7,26.5,25.2,30.7c6.8-19,18.8-32.8,37.7-39.8
		c-17.9-8.1-43.2-8.8-59.6-19.3c-2.1-1.4-4.8-4.4-6.4-4.7c-2.5-0.5-5.7,0.8-7.9,0.9c-33.6,1.5-52.4-12.3-56.4-40.1
		c-4.1-27.8,0.6-62.9-1.2-96.5h18.7v54.7c0,18.1-1.9,38.8,4.1,50.6c5.5,11,17.2,15.2,33.4,14.3c-3.7-13,2.3-24.4,6.1-30.4
		C164.8,126,173.9,120.6,184.6,117.8 M172.3,159.1c7.2-3.8,9.9-12.3,11.4-21.9C175.6,141,170.3,146.9,172.3,159.1 M261.8,218.7
		c0,16-6.5,27.2-15.5,34.2c-9.2,7.1-22.6,11.8-39.2,11.4c-1,16.9,1.6,30.5,8.5,40.7c6.3,9.3,17.3,17.4,31.3,18.4
		c28,2,44.1-15,48.5-36.9c6.4-31.1-5.8-63.8-33.3-68.5C262,217.7,261.7,218.2,261.8,218.7 M210.3,246.5c15.6-0.8,30.3-7,32.2-20.7
		c0.3-2.4,0.7-6.5-1.2-7.6C225.6,222.3,215,231.4,210.3,246.5"/>
	<path id="XMLID_3_" class="st7" d="M184.6,117.8V44.7h18.7v70.5c31.3,1.3,52,13.4,54.1,43.9c-6.2,0.6-12.5,1.2-19,1.5
		c-2-18.9-14.2-27.5-35.4-27.2c-1.5,16.7-6.4,30.1-16.9,37.7c24.3,9.1,57,9.7,70.2,29.8c29.9,2.7,49.1,19.4,56.4,44.7
		c9,31-0.5,61.7-17,77.5c-8.6,8.3-20.3,14.3-34.5,16.1c-15,1.9-30.3-1.3-41.5-7.6c-21.2-11.8-33.5-35.2-31.6-68.7
		c-23.4-6.1-39.1-20-40.9-47.7c5.8-1.1,12.6-1.2,19-1.8c1.4,17.2,10.7,26.5,25.2,30.7c6.8-19,18.8-32.8,37.7-39.8
		c-17.9-8.1-43.2-8.8-59.6-19.3c-2.1-1.4-4.8-4.4-6.4-4.7c-2.5-0.5-5.7,0.8-7.9,0.9c-33.6,1.5-52.4-12.3-56.4-40.1
		c-4.1-27.8,0.6-62.9-1.2-96.5h18.7v54.7c0,18.1-1.9,38.8,4.1,50.6c5.5,11,17.2,15.2,33.4,14.3c-3.7-13,2.3-24.4,6.1-30.4
		C164.8,126,173.9,120.6,184.6,117.8L184.6,117.8z M172.3,159.1c7.2-3.8,9.9-12.3,11.4-21.9C175.6,141,170.3,146.9,172.3,159.1
		L172.3,159.1z M261.8,218.7c0,16-6.5,27.2-15.5,34.2c-9.2,7.1-22.6,11.8-39.2,11.4c-1,16.9,1.6,30.5,8.5,40.7
		c6.3,9.3,17.3,17.4,31.3,18.4c28,2,44.1-15,48.5-36.9c6.4-31.1-5.8-63.8-33.3-68.5C262,217.7,261.7,218.2,261.8,218.7L261.8,218.7z
		 M210.3,246.5c15.6-0.8,30.3-7,32.2-20.7c0.3-2.4,0.7-6.5-1.2-7.6C225.6,222.3,215,231.4,210.3,246.5L210.3,246.5z M210.3,246.5"/>
</g>
</svg>
