<?xml version="1.0" encoding="utf-8"?>
<!-- Generator: Adobe Illustrator 19.0.0, SVG Export Plug-In . SVG Version: 6.00 Build 0)  -->
<svg version="1.1" id="Layer_1" xmlns="http://www.w3.org/2000/svg" xmlns:xlink="http://www.w3.org/1999/xlink" x="0px" y="0px"
	 viewBox="0 0 400 400" style="enable-background:new 0 0 400 400;" xml:space="preserve">
<style type="text/css">
	.st0{fill:#96B8DC;}
	.st1{clip-path:url(#SVGID_3_);}
	.st2{clip-path:url(#SVGID_4_);fill:#FFFFFF;}
	.st3{fill:#FFFFFF;}
	.st4{fill:#1C181C;}
</style>
<g>
	<path class="st0" d="M199.9,392.8c73.5-26.5,120.4-73.1,145.8-128.1C382,186,375.2,48.9,375.2,48.9C266.2,48.9,199.9,7,199.9,7
		S133.5,48.9,24.5,48.9c0,0-6.8,137.1,29.6,215.8C79.4,319.7,126.4,366.3,199.9,392.8"/>
	<g>
		<defs>
			<rect id="SVGID_1_" x="24" y="7" width="352.1" height="385.8"/>
		</defs>
		<defs>
			<path id="SVGID_2_" d="M33.2,57.6c0,0-6.5,130.3,28.1,205.1c24.1,52.2,68.8,96.5,138.6,121.7c69.8-25.2,114.5-69.5,138.6-121.7
				c34.6-74.8,28.1-205.1,28.1-205.1c-103.6,0-166.7-39.9-166.7-39.9S136.8,57.6,33.2,57.6"/>
		</defs>
		<clipPath id="SVGID_3_">
			<use xlink:href="#SVGID_1_"  style="overflow:visible;"/>
		</clipPath>
		<clipPath id="SVGID_4_" class="st1">
			<use xlink:href="#SVGID_2_"  style="overflow:visible;"/>
		</clipPath>
		<path class="st2" d="M26.6,62.7H373v41H26.6V62.7L26.6,62.7z M26.6,62.7"/>
		<path class="st2" d="M28.5,144l6.1,41H363l6.6-41H28.5z M28.5,144"/>
		<path class="st2" d="M41.7,225.3l15.2,41h286.3l14.7-41H41.7z M41.7,225.3"/>
		<path class="st2" d="M81.7,306.7l39.5,41h157.6l39-41H81.7z M81.7,306.7"/>
	</g>
	<path class="st3" d="M73.7,169.4c0.3,0.3,1,0.5,2.1,0.6v1.1H57.5V170c1.1-0.1,1.8-0.3,2.1-0.6c0.3-0.3,0.4-0.6,0.4-1v-41.5
		c0-0.4-0.1-0.8-0.4-1c-0.3-0.3-1-0.5-2.1-0.6v-1.1h32.6c6.6,0,11.4,1.2,14.3,3.6c3,2.4,4.5,6.1,4.5,11.2c0,4.1-1.2,7.3-3.6,9.6
		c-2.4,2.3-5.4,4-9.1,5l10.5,14.8c0.7,1.1,1.6,1.6,2.6,1.6v1.1H90.7V170c1.3-0.1,2-0.6,2-1.6c0-0.1-0.2-0.5-0.7-1.2
		c-0.5-0.7-1.1-1.6-1.8-2.6c-0.7-1-1.5-2.1-2.4-3.2c-0.9-1.2-1.7-2.3-2.5-3.3c-0.8-1.1-1.5-2-2.1-2.8c-0.6-0.8-1-1.4-1.2-1.7h-8.7
		v15C73.3,168.8,73.5,169.2,73.7,169.4 M88.3,144c2.6,0,4.4-0.5,5.4-1.5c1-1,1.5-2.1,1.5-3.4c0-1.3-0.5-2.4-1.5-3.4
		c-1-1-2.8-1.5-5.4-1.5h-15v9.8H88.3L88.3,144z M88.3,144"/>
	<path class="st3" d="M150.5,170c0.2,0,0.4,0,0.7-0.1c0.3-0.1,0.4-0.3,0.4-0.7c0-0.2-0.1-0.6-0.3-1.1c-0.2-0.5-0.4-1.1-0.7-1.7
		c-0.3-0.6-0.5-1.2-0.8-1.8c-0.3-0.6-0.5-1.1-0.7-1.5h-20.7c-0.1,0.4-0.3,0.9-0.6,1.5c-0.3,0.6-0.5,1.2-0.8,1.8
		c-0.3,0.6-0.6,1.1-0.8,1.7c-0.2,0.5-0.4,0.9-0.4,1.1c0,0.4,0.2,0.7,0.4,0.7c0.3,0.1,0.5,0.1,0.7,0.1v1.1h-13.4V170
		c0.4,0,0.7-0.1,1.1-0.2c0.4-0.1,0.6-0.4,0.7-0.7c1.8-4.2,3.6-8.3,5.4-12.3c1.8-4.1,3.5-7.8,4.9-11c1.5-3.3,2.7-6,3.6-8.2
		c0.9-2.2,1.4-3.4,1.4-3.7c0-0.5-0.4-0.8-1.2-0.9v-1.1h18.6v1.1c-0.8,0.1-1.2,0.4-1.2,0.9c0,0.2,0.3,1,0.9,2.4
		c0.6,1.4,1.4,3.1,2.5,5.3c1,2.1,2.1,4.4,3.3,7c1.2,2.6,2.4,5.1,3.6,7.7c1.2,2.6,2.4,5,3.4,7.3c1.1,2.3,1.9,4.2,2.6,5.7
		c0.1,0.3,0.4,0.5,0.7,0.7c0.4,0.1,0.7,0.2,1.1,0.2v1.1h-14.8V170L150.5,170z M138.6,141.2l-7.3,15.6h14.8L138.6,141.2L138.6,141.2z
		 M138.6,141.2"/>
	<path class="st3" d="M207.6,147l-1.2-0.6c0.1-0.2,0.1-0.5,0.2-0.7c0.1-0.2,0.1-0.5,0.1-0.8c0-0.4-0.4-0.8-1.1-1.2
		c-0.7-0.5-1.7-0.9-2.9-1.3c-1.2-0.4-2.5-0.7-3.9-1c-1.5-0.3-2.9-0.4-4.4-0.4c-1.7,0-3.4,0.2-5.1,0.6c-1.7,0.4-3.3,1.1-4.6,1.9
		c-1.4,0.9-2.5,2-3.4,3.3c-0.9,1.3-1.3,3-1.3,4.9c0,1.8,0.4,3.5,1.3,4.8c0.9,1.4,2,2.5,3.4,3.4c1.4,0.9,2.9,1.5,4.6,1.9
		c1.7,0.4,3.4,0.6,5.1,0.6c1.8,0,3.5-0.2,5-0.7c1.6-0.4,3-1,4.2-1.6c1.2-0.6,2.2-1.2,2.9-1.9c0.7-0.6,1-1.1,1-1.4v-0.8
		c0-0.4,0-0.6-0.1-0.8l1-0.6l8.5,12.2l-1.1,0.6c-0.5-0.6-1-1-1.4-1c-0.2,0-0.9,0.3-1.9,0.8c-1,0.5-2.4,1.1-4.1,1.8
		c-1.7,0.7-3.8,1.3-6.1,1.7c-2.3,0.5-4.9,0.7-7.8,0.7c-3.3,0-6.5-0.3-9.6-1c-3.1-0.7-5.9-1.8-8.3-3.3c-2.4-1.6-4.4-3.6-5.9-6.2
		c-1.5-2.6-2.2-5.7-2.2-9.3c0-3.6,0.7-6.7,2.2-9.3c1.5-2.6,3.4-4.6,5.9-6.2c2.4-1.6,5.2-2.8,8.3-3.5c3.1-0.7,6.3-1.1,9.6-1.1
		c2,0,3.9,0.2,5.7,0.5c1.8,0.3,3.5,0.7,5.1,1c1.5,0.4,2.9,0.7,4,1c1.1,0.3,1.9,0.5,2.4,0.5c0.3,0,0.6-0.1,0.8-0.3
		c0.2-0.2,0.4-0.4,0.5-0.5l1.1,0.4L207.6,147L207.6,147z M207.6,147"/>
	<path class="st3" d="M238.7,133c-0.9,0.1-1.6,0.2-2.1,0.4c-0.5,0.2-0.8,0.6-0.8,1.2v33.8c0,0.7,0.2,1.1,0.8,1.2
		c0.5,0.2,1.2,0.3,2.1,0.4v1.1h-17.6V170c0.9-0.1,1.6-0.2,2.1-0.4c0.5-0.2,0.8-0.6,0.8-1.2v-33.8c0-0.7-0.3-1.1-0.8-1.2
		c-0.5-0.2-1.2-0.3-2.1-0.4v-1.1h17.6V133L238.7,133z M238.7,133"/>
	<path class="st3" d="M292.5,169.7c0.5,0.2,1.1,0.3,1.8,0.4v1.1h-16.5V170c0.5,0,1-0.1,1.6-0.2c0.6-0.1,0.9-0.4,0.9-1
		c0-0.5-0.7-1.5-2-3c-1.3-1.5-3-3.2-5-5.4c-2-2.1-4.4-4.5-6.9-7.2c-2.6-2.6-5.1-5.4-7.6-8.4l-0.2,0.2v23.3c0,0.7,0.2,1.1,0.7,1.2
		c0.4,0.2,1,0.3,1.6,0.4v1.1h-15.2V170c0.6-0.1,1.1-0.2,1.6-0.4c0.4-0.2,0.7-0.6,0.7-1.2v-33.8c0-0.7-0.2-1.1-0.7-1.2
		c-0.5-0.2-1-0.3-1.7-0.4v-1.1h21.2v1.1c-0.4,0.1-0.8,0.2-1.2,0.4c-0.4,0.2-0.6,0.6-0.6,1.2c0,0.1,0.5,0.7,1.5,1.8
		c1,1.1,2.2,2.5,3.8,4.1c1.5,1.7,3.3,3.5,5.2,5.5c1.9,2,3.8,4,5.7,6.1v-17.5c0-0.7-0.2-1.1-0.7-1.2c-0.5-0.2-1.1-0.3-1.8-0.4v-1.1
		h15.7v1.1c-0.7,0.1-1.3,0.2-1.8,0.4c-0.5,0.2-0.7,0.6-0.7,1.2v33.8C291.8,169.1,292,169.5,292.5,169.7"/>
	<path class="st3" d="M343.8,161.9c0,0.6,0.1,1.1,0.4,1.6c0.3,0.5,0.7,0.7,1.2,0.7h0.8v1.1c-1.4,0.7-3.1,1.4-4.9,2.2
		c-1.8,0.7-3.8,1.4-6,2c-2.1,0.6-4.3,1.1-6.6,1.4c-2.3,0.3-4.5,0.5-6.8,0.5c-3.4,0-6.6-0.4-9.5-1.1c-2.9-0.7-5.4-1.9-7.4-3.5
		c-2-1.6-3.7-3.7-4.8-6.2c-1.2-2.5-1.7-5.5-1.7-9c0-3.5,0.7-6.5,2-9c1.3-2.5,3.1-4.6,5.3-6.2c2.2-1.6,4.7-2.8,7.5-3.7
		c2.8-0.8,5.7-1.2,8.8-1.2c2.3,0,4.3,0.1,6.2,0.4c1.9,0.3,3.5,0.6,4.9,0.9c1.4,0.4,2.6,0.7,3.5,0.9c0.9,0.3,1.5,0.4,1.8,0.4
		c0.5,0,0.8-0.1,0.9-0.3c0.1-0.2,0.3-0.4,0.6-0.6l1.1,0.2l-4.6,11.8l-1.1-0.5v-0.6c0-0.5-0.4-1-1.2-1.5c-0.8-0.5-1.8-0.9-3-1.3
		c-1.2-0.4-2.5-0.7-3.8-0.9c-1.3-0.2-2.5-0.3-3.6-0.3c-1.8,0-3.6,0.2-5.3,0.6c-1.7,0.4-3.1,1.1-4.3,2c-1.2,1-2.2,2.2-2.9,3.6
		c-0.7,1.5-1.1,3.2-1.1,5.3c0,2.1,0.4,4,1.1,5.5c0.7,1.5,1.7,2.8,2.9,3.7c1.2,1,2.7,1.7,4.4,2.2c1.7,0.5,3.5,0.7,5.4,0.7
		c1.5,0,2.9-0.1,4.4-0.3c1.4-0.2,2.9-0.5,4.3-1v-5.8h-7.5c-0.7,0-1.2,0.3-1.3,0.8s-0.3,1-0.3,1.3h-1.1v-11h1.1
		c0,0.4,0.1,0.8,0.3,1.3c0.2,0.5,0.6,0.8,1.3,0.8h18.5V161.9L343.8,161.9z M343.8,161.9"/>
	<path class="st3" d="M131.4,214.6c0.3,0,0.5-0.1,0.7-0.2c0.2-0.1,0.3-0.4,0.3-0.7v-22.7c0-0.3-0.1-0.5-0.3-0.6
		c-0.2-0.1-0.4-0.2-0.7-0.2v-0.9h9.3v0.9c-0.2,0-0.3,0-0.5,0.2c-0.2,0.1-0.3,0.2-0.3,0.4c0,0.2,0.1,0.4,0.2,0.6
		c0.1,0.3,0.3,0.5,0.4,0.8l7.1,13l7.2-12.8c0.2-0.4,0.4-0.8,0.5-1c0.1-0.2,0.2-0.5,0.2-0.7c0-0.4-0.2-0.5-0.6-0.5v-0.9h9.2v0.9
		c-0.3,0-0.5,0.1-0.7,0.2c-0.2,0.1-0.3,0.3-0.3,0.6v22.7c0,0.3,0.1,0.5,0.3,0.7c0.2,0.1,0.4,0.2,0.7,0.2v0.9h-7.8v-0.9
		c0.9,0,1.3-0.3,1.3-0.9v-16.6h-0.1l-10,18.4h-0.2l-9.8-18.4h-0.1v16.6c0,0.6,0.5,0.9,1.4,0.9v0.9h-7.5V214.6L131.4,214.6z
		 M131.4,214.6"/>
	<path class="st3" d="M189.4,198.2c0-0.6-0.5-0.9-1.5-0.9h-12.2v5h7.7c0.6,0,1,0,1.2-0.1c0.3-0.1,0.4-0.3,0.4-0.7h0.9v5.3h-1
		c0.1-0.4,0-0.6-0.4-0.7c-0.4-0.1-0.9-0.1-1.5-0.1h-7.3v5.9h12.8c0.4,0,0.7-0.1,1-0.3c0.3-0.2,0.4-0.4,0.4-0.7h0.9v5.2h-0.9
		c0-0.3-0.1-0.5-0.4-0.5c-0.3,0-0.6,0-1,0h-18.3v-0.9c0.2,0,0.3-0.1,0.5-0.2c0.2-0.1,0.2-0.3,0.2-0.6v-18.6c0-0.3-0.1-0.5-0.2-0.6
		c-0.2-0.1-0.3-0.2-0.5-0.2v-0.9h17.7c1,0,1.5-0.3,1.5-0.9h0.9v5.5H189.4L189.4,198.2z M189.4,198.2"/>
	<path class="st3" d="M201.1,214.4c0.2-0.1,0.2-0.3,0.2-0.6v-16.6h-6.5c-0.3,0-0.5,0.1-0.8,0.2c-0.2,0.1-0.3,0.3-0.3,0.6h-0.9v-5.7
		h0.9c0,0.5,0.1,0.8,0.3,0.9c0.2,0.2,0.5,0.3,0.8,0.3h17.7c0.3,0,0.5-0.1,0.8-0.3c0.2-0.2,0.3-0.5,0.3-0.9h0.9v5.7h-0.9
		c0-0.3-0.1-0.5-0.3-0.6c-0.2-0.1-0.5-0.2-0.8-0.2h-6.5v16.6c0,0.5,0.3,0.8,0.9,0.8v0.9h-6.4v-0.9
		C200.8,214.6,200.9,214.5,201.1,214.4"/>
	<path class="st3" d="M238.3,195c1.7,1,2.5,2.7,2.5,5c0,0.9-0.2,1.7-0.5,2.4c-0.3,0.7-0.8,1.3-1.3,1.8c-0.5,0.5-1.2,0.9-1.8,1.2
		c-0.7,0.3-1.4,0.6-2,0.7l4.9,7.1c0.3,0.4,0.6,0.6,0.9,0.8c0.3,0.2,0.7,0.3,1,0.4v0.9h-7.6v-0.9c0.4,0,0.6-0.2,0.6-0.4
		c0-0.3-0.2-0.9-0.7-1.5l-3.9-5.9h-6.9v7.1c0,0.3,0.1,0.5,0.3,0.6c0.2,0.1,0.4,0.2,0.6,0.2v0.9h-6.6v-0.9c0.6,0,0.9-0.3,0.9-0.8
		v-18.6c0-0.5-0.3-0.7-0.9-0.7v-0.9h13.8C234.3,193.5,236.6,194,238.3,195 M231.3,203c3.3,0,4.9-1,4.9-3.1c0-0.8-0.4-1.5-1.2-2
		c-0.8-0.5-2-0.7-3.7-0.7h-7.9v5.8H231.3L231.3,203z M231.3,203"/>
	<path class="st3" d="M262.1,193.9c1.6,0.5,3,1.2,4.2,2.1c1.2,0.9,2.1,2.1,2.8,3.5c0.7,1.4,1,3.1,1,5c0,1.9-0.3,3.5-1,5
		c-0.7,1.4-1.6,2.6-2.8,3.5c-1.2,0.9-2.6,1.6-4.2,2c-1.6,0.4-3.3,0.6-5.2,0.6c-1.8,0-3.5-0.2-5.2-0.6c-1.6-0.4-3-1.1-4.2-2
		c-1.2-0.9-2.1-2.1-2.8-3.5c-0.7-1.4-1-3.1-1-5c0-1.9,0.3-3.5,1-5c0.7-1.4,1.6-2.6,2.8-3.5c1.2-0.9,2.6-1.6,4.2-2.1
		c1.6-0.5,3.3-0.7,5.2-0.7C258.7,193.2,260.5,193.5,262.1,193.9 M253.8,197.4c-1,0.3-1.9,0.9-2.7,1.5c-0.8,0.6-1.4,1.4-1.9,2.4
		c-0.5,0.9-0.7,2-0.7,3.2c0,1.2,0.2,2.3,0.7,3.2c0.5,0.9,1.1,1.7,1.9,2.4c0.8,0.6,1.7,1.1,2.7,1.5c1,0.4,2.1,0.5,3.1,0.5
		c1.1,0,2.1-0.2,3.1-0.5c1-0.3,1.9-0.9,2.7-1.5c0.8-0.6,1.4-1.4,1.9-2.4c0.5-0.9,0.7-2,0.7-3.2c0-1.2-0.2-2.3-0.7-3.2
		c-0.5-0.9-1.1-1.7-1.9-2.4c-0.8-0.6-1.7-1.1-2.7-1.5c-1-0.4-2.1-0.5-3.1-0.5C255.8,196.9,254.8,197.1,253.8,197.4"/>
	<path class="st3" d="M168.5,252.5l0.8,0.4c0,0.2,0,0.5,0.1,0.9c0.1,0.3,0.2,0.6,0.4,0.8c0.5,0.6,1.1,1.1,1.9,1.6
		c0.8,0.4,1.7,0.8,2.6,1.1c0.9,0.3,1.8,0.5,2.8,0.6c0.9,0.1,1.8,0.2,2.5,0.2c7.3,0,11.2-3.7,11.7-11.1c-2,1-3.9,1.8-5.9,2.5
		c-2,0.7-4,1.1-6.2,1.1c-1.7,0-3.4-0.2-5.2-0.6c-1.8-0.4-3.4-1.1-4.8-2c-1.4-0.9-2.6-2-3.5-3.5c-0.9-1.4-1.4-3.1-1.4-5.1
		c0-2.4,0.5-4.4,1.6-6.1c1.1-1.7,2.4-3.1,4.1-4.2c1.7-1.1,3.6-1.9,5.7-2.4c2.1-0.5,4.2-0.8,6.2-0.8c2.6,0,5,0.4,7.1,1.3
		c2.1,0.9,4,2.1,5.5,3.7c1.5,1.6,2.8,3.4,3.6,5.6c0.9,2.2,1.3,4.5,1.3,7.1c0,3.1-0.5,5.8-1.5,8.3c-1,2.5-2.3,4.6-4.1,6.3
		c-1.8,1.8-3.9,3.1-6.4,4c-2.5,0.9-5.2,1.4-8.3,1.4c-2.1,0-3.9-0.2-5.4-0.5c-1.5-0.3-2.7-0.7-3.7-1.1c-1-0.4-1.8-0.9-2.4-1.2
		c-0.6-0.4-1.1-0.5-1.5-0.5c-0.5,0-1,0.1-1.3,0.4l-0.6-0.5L168.5,252.5L168.5,252.5z M177.9,232.3c-1.1,0.2-2,0.6-2.9,1.1
		c-0.8,0.5-1.5,1.2-2,2c-0.5,0.8-0.7,1.8-0.7,3.1c0,1.2,0.2,2.2,0.7,3.1c0.5,0.8,1.2,1.5,2,2c0.8,0.5,1.8,0.8,2.9,1.1
		c1.1,0.2,2.2,0.3,3.3,0.3c1.1,0,2.2-0.1,3.3-0.3c1.1-0.2,2-0.6,2.9-1.1c0.8-0.5,1.5-1.2,2-2c0.5-0.8,0.7-1.8,0.7-3.1
		c0-1.2-0.2-2.2-0.7-3.1c-0.5-0.8-1.2-1.5-2-2c-0.8-0.5-1.8-0.8-2.9-1.1c-1.1-0.2-2.2-0.3-3.3-0.3C180.1,232,179,232.1,177.9,232.3"
		/>
	<path class="st3" d="M238.5,264.3h-0.9c0-0.5-0.2-0.8-0.7-0.8c-0.4,0-0.9-0.1-1.4-0.1h-29.7c-0.5,0-0.9,0-1.3,0.1
		c-0.3,0.1-0.5,0.3-0.5,0.7h-0.8v-2.5c0-2.5,0.6-4.6,1.9-6.4c1.2-1.8,2.8-3.4,4.7-4.7c1.9-1.4,3.9-2.6,6.1-3.6
		c2.2-1,4.2-2.1,6.1-3.1c1.9-1,3.4-2.1,4.7-3.1c1.2-1.1,1.9-2.3,1.9-3.8c0-1-0.2-1.8-0.7-2.4c-0.4-0.6-1-1.2-1.7-1.6
		c-0.7-0.4-1.5-0.7-2.3-0.8c-0.8-0.1-1.7-0.2-2.5-0.2c-0.8,0-1.8,0.1-3,0.4c-1.2,0.3-2.3,0.7-3.4,1.3c-1.1,0.6-2,1.2-2.8,2
		c-0.8,0.8-1.2,1.7-1.2,2.6c0,0.2,0.1,0.5,0.2,0.9c0.1,0.4,0.3,0.6,0.5,0.8l-0.7,0.5l-7.3-7.8l0.7-0.5c0.2,0.1,0.4,0.2,0.6,0.3
		c0.2,0.1,0.4,0.1,0.6,0.1c0.3,0,0.8-0.4,1.6-1.1c0.8-0.7,1.8-1.5,3.1-2.3c1.3-0.8,3-1.6,4.9-2.3c2-0.7,4.3-1.1,7.1-1.1
		c1.8,0,3.5,0.2,5.3,0.6c1.7,0.4,3.2,1.1,4.6,2c1.3,0.9,2.4,2.1,3.2,3.5c0.8,1.4,1.2,3.2,1.2,5.3c0,2.2-0.4,4-1.3,5.5
		c-0.8,1.5-2,2.7-3.4,3.7c-1.4,1-2.9,1.9-4.7,2.6c-1.7,0.7-3.5,1.4-5.3,2.1c-1.8,0.7-3.6,1.4-5.2,2.1c-1.7,0.8-3.1,1.7-4.4,2.9v0.7
		h23.3c0.5,0,1-0.1,1.4-0.3c0.5-0.2,0.7-0.8,0.7-1.7h0.9V264.3L238.5,264.3z M238.5,264.3"/>
	<path class="st4" d="M71.9,168.8c0.3,0.3,1,0.5,2.1,0.6v1.1H55.6v-1.1c1.1-0.1,1.8-0.3,2.1-0.6c0.3-0.3,0.4-0.6,0.4-1v-41.5
		c0-0.4-0.1-0.8-0.4-1c-0.3-0.3-1-0.5-2.1-0.6v-1.1h32.6c6.6,0,11.4,1.2,14.3,3.6c3,2.4,4.5,6.1,4.5,11.2c0,4.1-1.2,7.3-3.6,9.6
		c-2.4,2.3-5.4,4-9.1,5l10.5,14.8c0.7,1.1,1.6,1.6,2.6,1.6v1.1H88.8v-1.1c1.3-0.1,2-0.6,2-1.6c0-0.1-0.2-0.5-0.7-1.2
		c-0.5-0.7-1.1-1.6-1.8-2.6c-0.7-1-1.5-2.1-2.4-3.2c-0.9-1.2-1.7-2.3-2.5-3.3c-0.8-1.1-1.5-2-2.1-2.9c-0.6-0.8-1-1.4-1.2-1.7h-8.7
		v15C71.5,168.2,71.6,168.5,71.9,168.8 M86.4,143.4c2.6,0,4.4-0.5,5.4-1.5c1-1,1.5-2.1,1.5-3.4c0-1.3-0.5-2.4-1.5-3.4
		c-1-1-2.8-1.5-5.4-1.5h-15v9.8H86.4L86.4,143.4z M86.4,143.4"/>
	<path class="st4" d="M148.7,169.4c0.2,0,0.4,0,0.7-0.1c0.3-0.1,0.4-0.3,0.4-0.7c0-0.2-0.1-0.6-0.3-1.1c-0.2-0.5-0.4-1.1-0.7-1.6
		c-0.3-0.6-0.6-1.2-0.8-1.8c-0.3-0.6-0.5-1.1-0.7-1.5h-20.7c-0.1,0.4-0.3,0.9-0.6,1.5c-0.3,0.6-0.5,1.2-0.8,1.8
		c-0.3,0.6-0.6,1.1-0.8,1.6c-0.2,0.5-0.4,0.9-0.4,1.1c0,0.4,0.2,0.7,0.4,0.7c0.3,0.1,0.5,0.1,0.7,0.1v1.1h-13.4v-1.1
		c0.4,0,0.7-0.1,1.1-0.2c0.4-0.1,0.6-0.4,0.7-0.7c1.8-4.2,3.6-8.3,5.4-12.3c1.8-4.1,3.5-7.7,4.9-11c1.5-3.3,2.7-6,3.6-8.2
		c1-2.2,1.4-3.4,1.4-3.7c0-0.5-0.4-0.8-1.2-0.9v-1.1h18.6v1.1c-0.8,0.1-1.2,0.4-1.2,0.9c0,0.2,0.3,1,0.9,2.4
		c0.6,1.4,1.4,3.1,2.4,5.3c1,2.1,2.1,4.4,3.3,7c1.2,2.6,2.4,5.1,3.7,7.7c1.2,2.6,2.4,5,3.4,7.3c1.1,2.3,1.9,4.2,2.6,5.7
		c0.1,0.3,0.4,0.5,0.7,0.7c0.4,0.2,0.7,0.2,1.1,0.2v1.1h-14.8V169.4L148.7,169.4z M136.7,140.5l-7.3,15.6h14.8L136.7,140.5
		L136.7,140.5z M136.7,140.5"/>
	<path class="st4" d="M205.8,146.3l-1.2-0.6c0.1-0.2,0.1-0.5,0.2-0.7c0.1-0.2,0.1-0.5,0.1-0.8c0-0.4-0.4-0.8-1.1-1.2
		c-0.7-0.5-1.7-0.9-2.8-1.3c-1.2-0.4-2.5-0.7-3.9-1c-1.5-0.3-2.9-0.4-4.4-0.4c-1.7,0-3.4,0.2-5.1,0.6c-1.7,0.4-3.3,1.1-4.6,1.9
		c-1.4,0.9-2.5,2-3.4,3.3c-0.9,1.3-1.3,3-1.3,4.9c0,1.8,0.4,3.5,1.3,4.8c0.9,1.4,2,2.5,3.4,3.4c1.4,0.9,2.9,1.5,4.6,1.9
		c1.7,0.4,3.4,0.6,5.1,0.6c1.8,0,3.5-0.2,5-0.7c1.6-0.4,3-1,4.2-1.6c1.2-0.6,2.2-1.3,2.9-1.9c0.7-0.6,1-1.1,1-1.4v-0.8
		c0-0.4,0-0.6-0.1-0.8l1-0.6l8.5,12.2l-1.1,0.6c-0.5-0.6-1-1-1.4-1c-0.2,0-0.9,0.3-1.9,0.8c-1,0.5-2.4,1.1-4.1,1.8
		c-1.7,0.7-3.8,1.2-6.1,1.7c-2.3,0.5-4.9,0.7-7.8,0.7c-3.3,0-6.5-0.3-9.6-1c-3.1-0.7-5.9-1.8-8.3-3.3c-2.4-1.6-4.4-3.6-5.9-6.2
		c-1.5-2.5-2.2-5.7-2.2-9.3c0-3.6,0.7-6.7,2.2-9.3c1.5-2.6,3.4-4.6,5.9-6.2c2.4-1.6,5.2-2.8,8.3-3.5c3.1-0.7,6.3-1.1,9.6-1.1
		c2,0,3.9,0.2,5.7,0.5c1.8,0.3,3.5,0.7,5.1,1c1.5,0.4,2.9,0.7,4,1c1.1,0.3,1.9,0.5,2.4,0.5c0.3,0,0.6-0.1,0.8-0.3
		c0.2-0.2,0.4-0.4,0.5-0.5l1.1,0.4L205.8,146.3L205.8,146.3z M205.8,146.3"/>
	<path class="st4" d="M236.8,132.3c-0.9,0.1-1.6,0.2-2.1,0.4c-0.5,0.2-0.8,0.6-0.8,1.3v33.8c0,0.7,0.2,1.1,0.8,1.2
		c0.5,0.2,1.2,0.3,2.1,0.4v1.1h-17.6v-1.1c0.9-0.1,1.6-0.2,2.1-0.4c0.5-0.2,0.8-0.6,0.8-1.2V134c0-0.7-0.3-1.1-0.8-1.3
		c-0.5-0.2-1.2-0.3-2.1-0.4v-1.1h17.6V132.3L236.8,132.3z M236.8,132.3"/>
	<path class="st4" d="M290.6,169c0.5,0.2,1.1,0.3,1.8,0.4v1.1h-16.5v-1.1c0.5,0,1-0.1,1.6-0.2c0.6-0.1,0.9-0.4,0.9-1
		c0-0.5-0.7-1.5-2-3c-1.3-1.5-3-3.2-5-5.4c-2-2.1-4.3-4.5-6.9-7.2c-2.6-2.6-5.1-5.4-7.6-8.4l-0.2,0.2v23.3c0,0.7,0.2,1.1,0.7,1.2
		c0.4,0.2,1,0.3,1.6,0.4v1.1H244v-1.1c0.6-0.1,1.1-0.2,1.6-0.4c0.4-0.2,0.7-0.6,0.7-1.2V134c0-0.7-0.2-1.1-0.7-1.2
		c-0.5-0.2-1-0.3-1.7-0.4v-1.1H265v1.1c-0.4,0.1-0.8,0.2-1.2,0.4c-0.4,0.2-0.6,0.6-0.6,1.2c0,0.1,0.5,0.7,1.5,1.8
		c1,1.1,2.2,2.5,3.8,4.1c1.5,1.7,3.3,3.5,5.2,5.5c1.9,2,3.8,4,5.7,6.1V134c0-0.7-0.2-1.1-0.7-1.2c-0.5-0.2-1.1-0.3-1.8-0.4v-1.1
		h15.7v1.1c-0.7,0.1-1.3,0.2-1.8,0.4c-0.5,0.2-0.7,0.6-0.7,1.2v33.8C289.9,168.4,290.1,168.9,290.6,169"/>
	<path class="st4" d="M341.9,161.3c0,0.6,0.1,1.1,0.4,1.6c0.3,0.5,0.7,0.7,1.2,0.7h0.8v1.1c-1.4,0.7-3.1,1.4-4.9,2.2
		c-1.8,0.7-3.8,1.4-6,2c-2.1,0.6-4.3,1.1-6.6,1.4c-2.3,0.3-4.5,0.5-6.8,0.5c-3.4,0-6.6-0.4-9.5-1.1c-2.9-0.7-5.4-1.9-7.4-3.5
		c-2-1.6-3.7-3.7-4.8-6.2c-1.2-2.5-1.7-5.5-1.7-9c0-3.5,0.7-6.5,2-9c1.3-2.5,3.1-4.6,5.3-6.2c2.2-1.6,4.7-2.8,7.5-3.7
		c2.8-0.8,5.7-1.2,8.8-1.2c2.3,0,4.3,0.1,6.2,0.4c1.9,0.3,3.5,0.6,4.9,0.9c1.4,0.4,2.6,0.7,3.5,0.9c0.9,0.3,1.5,0.4,1.8,0.4
		c0.5,0,0.8-0.1,0.9-0.3c0.1-0.2,0.3-0.4,0.6-0.6l1.1,0.2l-4.6,11.8l-1.1-0.5v-0.6c0-0.5-0.4-1-1.2-1.5c-0.8-0.5-1.8-0.9-3-1.3
		c-1.2-0.4-2.5-0.7-3.8-0.9c-1.3-0.2-2.5-0.3-3.6-0.3c-1.8,0-3.6,0.2-5.3,0.6c-1.7,0.4-3.1,1.1-4.3,2c-1.2,1-2.2,2.2-2.9,3.6
		c-0.7,1.5-1.1,3.2-1.1,5.3c0,2.1,0.4,4,1.1,5.5c0.7,1.5,1.7,2.8,2.9,3.7c1.2,1,2.7,1.7,4.4,2.2c1.7,0.5,3.5,0.7,5.4,0.7
		c1.5,0,2.9-0.1,4.4-0.3c1.4-0.2,2.8-0.5,4.3-1v-5.8h-7.5c-0.7,0-1.2,0.3-1.3,0.8c-0.2,0.5-0.3,1-0.3,1.3h-1.1v-11h1.1
		c0,0.4,0.1,0.8,0.3,1.3c0.2,0.5,0.6,0.8,1.3,0.8h18.5V161.3L341.9,161.3z M341.9,161.3"/>
	<path class="st4" d="M128.8,215c0.3,0,0.5-0.1,0.7-0.2c0.2-0.2,0.3-0.4,0.3-0.7v-22.7c0-0.3-0.1-0.5-0.3-0.6
		c-0.2-0.1-0.4-0.2-0.7-0.2v-0.9h9.3v0.9c-0.2,0-0.3,0-0.5,0.2c-0.2,0.1-0.3,0.2-0.3,0.4c0,0.2,0.1,0.4,0.2,0.6
		c0.1,0.3,0.3,0.5,0.4,0.8l7.1,13l7.2-12.8c0.2-0.4,0.4-0.8,0.5-1c0.1-0.2,0.2-0.5,0.2-0.7c0-0.4-0.2-0.5-0.6-0.5v-0.9h9.2v0.9
		c-0.3,0-0.5,0.1-0.7,0.2c-0.2,0.1-0.3,0.3-0.3,0.6v22.7c0,0.3,0.1,0.5,0.3,0.7c0.2,0.1,0.4,0.2,0.7,0.2v0.9h-7.8V215
		c0.9,0,1.3-0.3,1.3-0.9v-16.6H155l-10,18.4h-0.1l-9.8-18.4h-0.1v16.6c0,0.6,0.5,0.9,1.4,0.9v0.9h-7.5V215L128.8,215z M128.8,215"/>
	<path class="st4" d="M186.8,198.6c0-0.6-0.5-0.9-1.5-0.9h-12.2v5h7.7c0.6,0,1,0,1.2-0.1c0.3-0.1,0.4-0.3,0.4-0.7h0.9v5.3h-1
		c0.1-0.4,0-0.6-0.4-0.7c-0.4-0.1-0.9-0.1-1.5-0.1h-7.3v5.9h12.8c0.4,0,0.7-0.1,1-0.3c0.3-0.2,0.4-0.4,0.4-0.7h0.9v5.2h-0.9
		c0-0.3-0.1-0.5-0.4-0.5c-0.3,0-0.6,0-1,0h-18.3V215c0.2,0,0.3-0.1,0.5-0.2c0.2-0.1,0.2-0.3,0.2-0.6v-18.7c0-0.3-0.1-0.5-0.2-0.6
		c-0.2-0.1-0.3-0.2-0.5-0.2v-0.9h17.7c1,0,1.5-0.3,1.5-0.9h0.9v5.5H186.8L186.8,198.6z M186.8,198.6"/>
	<path class="st4" d="M198.5,214.8c0.2-0.1,0.2-0.3,0.2-0.6v-16.6h-6.5c-0.3,0-0.5,0.1-0.7,0.2c-0.2,0.1-0.3,0.3-0.3,0.6h-0.9v-5.7
		h0.9c0,0.5,0.1,0.8,0.3,0.9c0.2,0.2,0.5,0.3,0.7,0.3H210c0.3,0,0.5-0.1,0.7-0.3c0.2-0.2,0.4-0.5,0.4-0.9h0.9v5.7h-0.9
		c0-0.3-0.1-0.5-0.4-0.6c-0.2-0.1-0.5-0.2-0.7-0.2h-6.5v16.6c0,0.5,0.3,0.7,0.9,0.7v0.9H198V215C198.2,215,198.4,214.9,198.5,214.8"
		/>
	<path class="st4" d="M235.7,195.4c1.7,1,2.5,2.7,2.5,5c0,0.9-0.2,1.7-0.5,2.4c-0.3,0.7-0.8,1.3-1.3,1.8c-0.5,0.5-1.2,0.9-1.8,1.3
		c-0.7,0.3-1.3,0.6-2,0.7l4.9,7.1c0.3,0.4,0.6,0.6,0.9,0.8c0.3,0.2,0.7,0.3,1,0.4v0.9h-7.6V215c0.4,0,0.6-0.2,0.6-0.4
		c0-0.3-0.2-0.9-0.7-1.5l-3.9-5.9h-6.9v7.1c0,0.3,0.1,0.5,0.3,0.6c0.2,0.1,0.4,0.2,0.6,0.2v0.9H215V215c0.6,0,0.9-0.2,0.9-0.7v-18.7
		c0-0.5-0.3-0.7-0.9-0.7v-0.9h13.8C231.7,193.9,234.1,194.4,235.7,195.4 M228.7,203.4c3.3,0,4.9-1,4.9-3.1c0-0.8-0.4-1.5-1.2-2
		c-0.8-0.5-2-0.7-3.7-0.7h-7.9v5.8H228.7L228.7,203.4z M228.7,203.4"/>
	<path class="st4" d="M259.5,194.3c1.6,0.5,3,1.2,4.2,2.1c1.2,0.9,2.1,2.1,2.8,3.5c0.7,1.4,1,3.1,1,5c0,1.9-0.3,3.5-1,5
		c-0.7,1.4-1.6,2.6-2.8,3.5c-1.2,0.9-2.6,1.6-4.2,2c-1.6,0.4-3.3,0.6-5.2,0.6c-1.8,0-3.5-0.2-5.2-0.6c-1.6-0.4-3-1.1-4.2-2
		c-1.2-0.9-2.1-2.1-2.8-3.5c-0.7-1.4-1-3.1-1-5c0-1.9,0.3-3.6,1-5c0.7-1.4,1.6-2.6,2.8-3.5c1.2-0.9,2.6-1.6,4.2-2.1
		c1.6-0.5,3.3-0.7,5.2-0.7C256.1,193.6,257.9,193.9,259.5,194.3 M251.2,197.8c-1,0.3-1.9,0.8-2.7,1.5c-0.8,0.7-1.4,1.4-1.9,2.4
		c-0.5,0.9-0.7,2-0.7,3.2c0,1.2,0.2,2.3,0.7,3.2c0.5,0.9,1.1,1.7,1.9,2.4c0.8,0.7,1.7,1.2,2.7,1.5c1,0.3,2.1,0.5,3.1,0.5
		c1.1,0,2.1-0.2,3.1-0.5c1-0.3,1.9-0.8,2.7-1.5c0.8-0.6,1.4-1.4,1.9-2.4c0.5-0.9,0.7-2,0.7-3.2c0-1.2-0.2-2.3-0.7-3.2
		c-0.5-0.9-1.1-1.7-1.9-2.4c-0.8-0.6-1.7-1.1-2.7-1.5c-1-0.4-2.1-0.5-3.1-0.5C253.3,197.3,252.2,197.5,251.2,197.8"/>
	<path class="st4" d="M164.8,253.1l0.8,0.4c0,0.2,0,0.5,0.1,0.9c0.1,0.3,0.2,0.6,0.4,0.8c0.5,0.6,1.1,1.1,1.9,1.6
		c0.8,0.4,1.7,0.8,2.6,1.1c0.9,0.3,1.8,0.5,2.8,0.6c0.9,0.1,1.8,0.2,2.5,0.2c7.3,0,11.2-3.7,11.7-11.1c-2,1-3.9,1.8-5.9,2.5
		c-2,0.7-4,1.1-6.2,1.1c-1.7,0-3.4-0.2-5.2-0.6c-1.8-0.4-3.4-1.1-4.8-2c-1.4-0.9-2.6-2-3.5-3.5c-0.9-1.4-1.4-3.1-1.4-5.1
		c0-2.4,0.5-4.5,1.6-6.1c1.1-1.7,2.4-3.1,4.1-4.2c1.7-1.1,3.6-1.9,5.7-2.4c2.1-0.5,4.2-0.8,6.2-0.8c2.6,0,4.9,0.4,7.1,1.3
		c2.1,0.9,4,2.1,5.5,3.7c1.6,1.6,2.8,3.5,3.6,5.6c0.8,2.2,1.3,4.5,1.3,7.1c0,3.1-0.5,5.8-1.4,8.3c-1,2.5-2.3,4.6-4.1,6.4
		c-1.8,1.8-3.9,3.1-6.4,4c-2.5,0.9-5.2,1.4-8.3,1.4c-2.1,0-3.9-0.1-5.4-0.5c-1.5-0.3-2.7-0.7-3.7-1.1c-1-0.5-1.8-0.9-2.4-1.2
		c-0.6-0.3-1.1-0.5-1.5-0.5c-0.5,0-1,0.1-1.3,0.4l-0.6-0.5L164.8,253.1L164.8,253.1z M174.3,232.9c-1.1,0.2-2,0.6-2.9,1.1
		c-0.8,0.5-1.5,1.2-2,2c-0.5,0.8-0.7,1.8-0.7,3.1c0,1.2,0.2,2.2,0.7,3.1c0.5,0.8,1.2,1.5,2,2c0.8,0.5,1.8,0.8,2.9,1.1
		c1.1,0.2,2.2,0.3,3.3,0.3c1.1,0,2.2-0.1,3.3-0.3c1.1-0.2,2-0.6,2.9-1.1c0.8-0.5,1.5-1.1,2-2c0.5-0.8,0.7-1.8,0.7-3.1
		c0-1.2-0.2-2.2-0.7-3.1c-0.5-0.8-1.2-1.5-2-2c-0.8-0.5-1.8-0.8-2.9-1.1c-1.1-0.2-2.2-0.3-3.3-0.3
		C176.5,232.6,175.3,232.7,174.3,232.9"/>
	<path class="st4" d="M234.8,264.9H234c0-0.5-0.2-0.8-0.7-0.8c-0.4-0.1-0.9-0.1-1.4-0.1h-29.7c-0.5,0-0.9,0-1.3,0.1
		c-0.3,0.1-0.5,0.3-0.5,0.7h-0.8v-2.5c0-2.5,0.6-4.6,1.9-6.4c1.2-1.8,2.8-3.4,4.7-4.7c1.9-1.4,3.9-2.6,6.1-3.6
		c2.2-1,4.2-2.1,6.1-3.1c1.9-1,3.4-2.1,4.7-3.1c1.3-1.1,1.9-2.4,1.9-3.8c0-1-0.2-1.8-0.7-2.4c-0.4-0.6-1-1.2-1.7-1.6
		c-0.7-0.4-1.5-0.7-2.3-0.8c-0.8-0.1-1.7-0.2-2.5-0.2c-0.8,0-1.8,0.1-3,0.4c-1.2,0.3-2.3,0.7-3.4,1.3c-1.1,0.6-2,1.2-2.8,2
		c-0.8,0.8-1.2,1.7-1.2,2.6c0,0.2,0.1,0.5,0.2,0.9c0.1,0.4,0.3,0.6,0.5,0.8l-0.7,0.5l-7.3-7.8l0.7-0.5c0.2,0.1,0.4,0.2,0.6,0.3
		c0.2,0.1,0.4,0.1,0.6,0.1c0.3,0,0.8-0.4,1.6-1.1c0.8-0.7,1.8-1.5,3.1-2.3c1.3-0.8,3-1.6,4.9-2.3c2-0.7,4.3-1.1,7.1-1.1
		c1.8,0,3.5,0.2,5.3,0.6c1.7,0.4,3.2,1.1,4.6,2c1.3,0.9,2.4,2.1,3.2,3.5c0.8,1.4,1.2,3.2,1.2,5.3c0,2.2-0.4,4-1.3,5.5
		c-0.8,1.5-2,2.7-3.3,3.7c-1.4,1-3,1.9-4.7,2.6c-1.7,0.7-3.5,1.4-5.3,2.1c-1.8,0.7-3.6,1.4-5.2,2.1c-1.7,0.8-3.1,1.7-4.4,2.9v0.7
		h23.3c0.5,0,1-0.1,1.4-0.3c0.4-0.2,0.7-0.8,0.7-1.7h0.9V264.9L234.8,264.9z M234.8,264.9"/>
	<path class="st3" d="M199.3,16.9c-0.2,0.1-16,10-44.4,19.9c-26.1,9.1-68.5,19.9-121.8,19.9h-0.9l0,0.9c0,0.3-1.6,33.1,1.1,74.6
		c2.5,38.3,9.2,92.2,27.1,131c12.6,27.2,30.2,51.2,52.4,71.3c23.9,21.6,53.1,38.8,86.8,50.9l0.3,0.1l0.3-0.1
		c33.7-12.2,62.9-29.3,86.8-50.9c22.2-20.1,39.8-44.1,52.4-71.3c17.9-38.8,24.6-92.6,27.1-131c2.7-41.5,1.1-74.3,1.1-74.6l0-0.9
		h-0.9c-53.4,0-95.7-10.8-121.8-19.9c-28.3-9.8-44.2-19.8-44.4-19.9l-0.5-0.3L199.3,16.9L199.3,16.9z M155.7,38.6
		c25.8-8.9,41.3-18,44.2-19.7c2.9,1.7,18.4,10.8,44.2,19.7c26.1,9.1,68.4,19.8,121.6,20c0.1,2.7,0.4,11.1,0.4,23.4
		c0,41.3-3.3,126-28.5,180.4c-12.5,27-29.9,50.7-51.9,70.7c-23.6,21.4-52.5,38.3-85.8,50.4c-33.3-12.1-62.2-29-85.8-50.4
		c-22-19.9-39.5-43.7-51.9-70.7C37,207.9,33.7,123.2,33.7,81.9c0-12.3,0.3-20.7,0.4-23.3C87.3,58.4,129.6,47.6,155.7,38.6"/>
	<path class="st0" d="M145.9,325.9c0,2.5-0.8,4.8-2.5,7c-1.7,2.1-3.5,3.2-5.5,3.2c-0.9,0-1.7-0.1-2.3-0.4c-0.6-0.3-1.1-0.4-1.4-0.4
		c-0.7,0.2-1.3,0.4-1.9,0.6c-0.6,0.2-1.2,0.3-1.8,0.3c-0.9,0-1.7-0.2-2.4-0.6c-0.8-0.4-1.2-1-1.2-1.8c0-0.5,0.2-0.9,0.6-1.3
		c0.3-0.3,0.6-0.4,0.9-0.4h1.9c0.2,0,0.8,0.2,1.9,0.7c0.3,0.1,0.9,0.4,1.5,0.7c0.5,0,0.9-0.9,1.2-2.6c0.4-1.7,0.7-3.5,1.1-5.3
		c0.6-2.3,1.2-4,2-5.2c0.2-0.2,0.4-0.6,0.7-1.2c0.3-0.6,0.6-0.8,0.9-0.8c0.2,0,0.4,0.1,0.7,0.1c-0.4,0.7-0.8,1.3-1.2,1.9
		c-0.3,0.8-0.5,1.5-0.5,2.1v4.9v1.2c-0.1,0.9-0.4,1.9-1,2.8c-0.4,0.7-0.9,1.4-1.5,2c-0.4,0.5-0.7,0.7-0.8,0.7
		c0.4,0.3,0.9,0.6,1.4,0.7c0.5,0.2,1,0.3,1.3,0.3c1.5,0,2.9-0.7,4-2.1c1.3-1.7,2-4,2-7c0-2.2-0.5-4.3-1.6-6.2
		c-1.3-2.3-2.9-3.4-4.8-3.4h-2.9c-1,0-2.1,0.5-3.4,1.5c-1.4,1.2-2.1,2.4-2.1,3.7c0,1,0.4,1.8,1.1,2.4c0.6,0.5,1.3,0.8,1.9,0.8
		c0.1,0,0.4-0.1,0.8-0.3c0.4-0.2,0.9-0.3,1.4-0.4v0.7c-0.4,0.7-1,1.3-1.7,1.7c-0.6,0.4-1.2,0.5-1.7,0.5c-1,0-1.9-0.4-2.8-1.2
		c-0.9-0.8-1.3-1.7-1.3-2.7c0-1,0.3-2,1-3.2c0.8-1.3,1.8-2.4,3.1-3.3c1.6-1,3.4-1.5,5.4-1.5c2.4,0,4.6,0.7,6.4,2.2
		c1.9,1.5,2.8,3.4,2.8,5.6V325.9L145.9,325.9z M132.5,334.2c-0.8-0.4-1.5-0.6-2-0.9c-0.6-0.2-1-0.3-1.4-0.3c-0.4,0-0.7,0.1-1,0.3
		c-0.2,0.2-0.4,0.4-0.4,0.6c0,0.3,0.2,0.5,0.7,0.7c0.5,0.2,1,0.3,1.7,0.3c0.4,0,0.8,0,1-0.1C131.7,334.7,132.1,334.5,132.5,334.2"/>
	<path class="st0" d="M156.3,333.1c-0.6,0.7-1.2,1.1-1.6,1.5c-1.3,1-2.4,1.5-3.3,1.5h-1.8c-0.7,0-1.5-0.3-2.2-1
		c-0.9-0.8-1.4-1.8-1.4-3c0-0.5,0.2-1.2,0.7-2c0.6-1,1.3-1.8,2.1-2.5c1.1-0.8,2.3-1.2,3.6-1.2c1,0,1.8,0.2,2.2,0.6
		c0.4,0.3,0.5,0.9,0.5,1.6c0,1-0.5,2-1.6,2.7c-0.6,0.4-1.6,0.9-3,1.5c-1.1,0.4-1.6,0.8-1.6,1.1c0,0.3,0.2,0.6,0.6,0.8
		c0.4,0.3,0.9,0.4,1.4,0.4c1.1,0,2-0.2,2.6-0.7c0.9-0.7,1.9-1.5,2.8-2.2V333.1L156.3,333.1z M152.6,328.5c0-0.4-0.1-0.7-0.2-0.9
		c-0.1-0.2-0.4-0.2-0.7-0.2c-0.7,0-1.2,0.3-1.6,1c-0.4,0.7-0.8,1.4-1.1,2.1v1.6c0.8-0.3,1.4-0.6,1.8-0.9
		C152,330.5,152.6,329.6,152.6,328.5"/>
	<path class="st0" d="M168.6,332.7c-0.5,0.9-1.2,1.7-2,2.3c-0.9,0.7-1.9,1.1-2.8,1.1h-1.7c-0.8,0-1.5-0.3-2.1-1
		c-0.6-0.6-0.9-1.2-0.9-1.8c0-0.3,0.1-0.5,0.2-0.8c0.2-0.4,0.5-0.5,0.9-0.5c0.2,0,0.4,0.1,0.6,0.3c0.2,0.2,0.3,0.4,0.3,0.7
		c0,0.1-0.1,0.3-0.2,0.4c-0.4,0.4-0.6,0.8-0.7,1.2h1.5c0.8-0.8,1.3-1.3,1.4-1.5c0.4-0.6,0.6-1.2,0.6-1.8v-1.7c0-0.5-0.2-0.9-0.5-1.3
		c-0.3-0.4-0.7-0.6-1.2-0.6c-0.6,0-1.2,0.4-1.9,1.2c-0.8,1-1.4,2.3-1.9,4c-0.6,2-0.9,4.4-0.9,7.3c0,0.5,0,0.9,0,1.4
		c0,0.4,0,0.9,0,1.3c0,0.6,0,1.1,0.1,1.5h-2V336c0.1-0.5,0.2-1,0.2-1.5c0.2-1.2,0.5-2.5,0.7-3.7c0.3-1.7,0.6-3.3,0.9-4.8
		c0.1-0.9,0.3-1.8,0.4-2.7c0.3-1.3,0.8-2.1,1.4-2.4h0.9v0.9c0,0.5-0.1,1.2-0.3,2c-0.4,1.8-0.6,2.8-0.6,3.1v1.9
		c0.8-0.8,1.4-1.3,1.7-1.6c0.7-0.6,1.5-0.8,2.4-0.8c1.1,0,2,0.4,2.5,1.1c0.4,0.6,0.6,1.3,0.6,2.3c0,1.2-0.4,2.3-1.2,3.3
		c-0.9,1-1.5,1.6-1.7,1.9h1.1c0.8-0.1,1.6-0.5,2.4-1.3c0.6-0.5,1.1-1.1,1.7-1.6V332.7L168.6,332.7z M168.6,332.7"/>
	<path class="st0" d="M180.9,333c0,0.5-0.4,1.2-1.2,2c-0.8,0.8-1.5,1.2-2.2,1.2c-1,0-1.6-0.4-1.9-1.3c-0.3-1.2-0.6-1.9-0.8-2.1
		c-0.6,1.1-1.2,1.8-1.7,2.3c-0.7,0.6-1.5,0.9-2.5,0.9c-0.8,0-1.3-0.3-1.7-1c-0.3-0.5-0.4-1.3-0.4-2.2c0.1-0.5,0.1-1.1,0.2-1.6
		c0.2-1.2,0.5-2.3,0.8-3c0.5-1.1,1.1-1.6,1.9-1.6c0.1,0,0.3,0,0.4,0.1c0.1,0.1,0.3,0.3,0.6,0.6c-0.4,0.4-0.7,1.3-0.9,2.7
		c-0.3,1.9-0.5,3-0.6,3.2v1.9h0.9c1.4-1.1,2.4-2.4,3.1-3.9c0.4-1,0.8-2.1,1.1-3.2c0.3-0.9,0.9-1.3,1.6-1.3c0.1,0,0.2,0,0.3,0
		c0.1,0,0.2,0,0.3,0c0.1,0,0.2,0,0.3,0v1.5c-0.4,0.4-0.6,1.1-0.7,2.1c-0.2,1.3-0.3,2.1-0.4,2.5v2.1c0.6,0,1.1-0.2,1.5-0.5
		c0.5-0.4,1-1.1,1.5-2.2C180.8,332.5,180.9,332.7,180.9,333"/>
	<path class="st0" d="M187,332.5c0,0.6-0.4,1.3-1.2,2.1c-0.9,0.9-1.9,1.4-2.9,1.4c-0.8,0-1.4-0.4-1.9-1.1c-0.4-0.6-0.6-1.1-0.6-1.5
		v-1.5c0.2-1.3,0.4-2.2,0.6-2.8c0.6-1.9,1.2-2.8,2-2.8c0.4,0,0.6,0.1,0.8,0.2c0.1,0.1,0.2,0.3,0.2,0.6c0,0.2,0,0.4,0,0.5
		c0,0.3-0.2,1.3-0.5,3.1c-0.4,1.8-0.6,2.9-0.6,3.4c0,0.5,0.2,0.8,0.7,0.8c0.3,0,0.7-0.3,1.2-0.8c0.7-0.7,1.3-1.5,2-2.2
		c0.1,0.1,0.1,0.1,0.1,0.1C187,332.1,187,332.2,187,332.5 M185.4,321.7c0,0.5-0.2,0.8-0.7,1.1c-0.3,0.2-0.6,0.4-0.8,0.4
		c-0.4,0-0.7-0.1-1-0.4c-0.3-0.3-0.5-0.6-0.5-0.9c0-0.3,0.2-0.7,0.5-1c0.4-0.4,0.8-0.6,1.2-0.6c0.5,0,0.9,0.2,1.1,0.5
		C185.3,321,185.4,321.3,185.4,321.7"/>
	<path class="st0" d="M195.6,333.3c-0.4,0.6-0.9,1.2-1.6,1.7c-0.9,0.7-1.7,1-2.4,1h-1.8c-0.6,0-1.2-0.2-1.8-0.7
		c-0.8-0.6-1.1-1.5-1.1-2.7c0-0.3,0.5-1.4,1.6-3.4c1.1-1.9,1.7-2.9,1.9-2.9c0.3,0,0.5,0.1,0.6,0.2c0,0.1,0,0.2,0,0.4v1.1
		c0,0.5,0.4,1.1,1.1,1.9c0.8,0.8,1.1,1.6,1.1,2.4c-0.1,0.3-0.1,0.6-0.2,0.7c-0.1,0.6-0.2,1-0.3,1.2c0.7-0.1,1.2-0.3,1.5-0.7
		c0.3-0.5,0.7-0.8,1.2-1V333.3L195.6,333.3z M190.9,332.8v-1.4c0-0.2-0.1-0.6-0.4-1.1c-0.2-0.3-0.3-0.6-0.5-1
		c-0.4,0.2-0.7,0.5-0.9,0.9c-0.2,0.4-0.5,0.8-0.7,1.2c0.2,0.1,0.4,0.3,0.5,0.5c0.1,0.2,0.2,0.4,0.2,0.7c0,0.4-0.1,0.7-0.3,1
		c-0.2,0.3-0.3,0.5-0.3,0.6c0,0.1,0.1,0.3,0.2,0.4c0.2,0.2,0.3,0.2,0.4,0.2c0.2,0,0.6-0.2,1-0.5
		C190.6,333.8,190.9,333.3,190.9,332.8"/>
	<path class="st0" d="M217.5,316.5c-1.2,3-2,6.3-2.4,10c-0.5,4.5-0.8,6.8-0.8,6.9c-0.4,1.7-1.4,2.6-3,2.6c-1,0-1.5-0.5-1.5-1.5
		c0-1.1,0.3-2.6,0.9-4.3c0.6-1.5,1.2-3.1,1.8-4.7c0.6-1.6,0.9-2.8,0.9-3.7c0-0.2,0-0.5-0.1-0.7l-7,6.9H206v-1l10.5-11.8h1V316.5
		L217.5,316.5z M217.5,316.5"/>
	<path class="st0" d="M235.4,320.1c0,0.6-0.3,1.3-0.8,1.9c-0.1,0.2-1.2,1-3.1,2.5c1.1,0.9,1.8,1.5,2.3,1.9c0.7,0.7,1.1,1.8,1.1,3.3
		c0,1.9-0.7,3.5-2.2,4.6c-1.5,1.1-3.5,1.7-6.1,1.7c-2.7,0-4.8-0.5-6.1-1.6c-1.1-0.9-1.7-2.1-1.7-3.6c0-0.8,0.4-1.6,1.3-2.4
		c0.6-0.7,1.4-1.3,2.3-1.9c0.4-0.3,0.9-0.6,1.4-0.8c-0.6-0.7-1.2-1.3-1.8-2c-0.4-0.7-0.6-1.5-0.6-2.5c0-1.2,0.6-2.5,1.9-3.7
		c1.5-1.5,3.3-2.3,5.4-2.3c1.7,0,3.2,0.4,4.5,1.3C234.6,317.4,235.4,318.7,235.4,320.1 M231.5,331.3c0-0.9-0.5-1.7-1.5-2.5
		c-0.8-0.6-1.7-1.1-2.9-1.5c-0.9-0.3-1.4-0.5-1.6-0.5c-0.8,0-1.5,0.5-2.3,1.6c-0.7,1-1.1,1.8-1.1,2.5c0,0.8,0.3,1.6,1,2.4
		c0.6,0.7,1.3,1,1.8,1h3.4c0.4,0,1-0.2,1.7-0.8C231,333.1,231.5,332.3,231.5,331.3 M232.3,319.9c0-1-0.5-1.8-1.4-2.4
		c-0.7-0.5-1.3-0.7-1.7-0.7c-1.2,0-2.3,0.3-3.1,1c-0.9,0.6-1.3,1.4-1.3,2.2c0,0.8,0.6,1.6,1.9,2.4c1.1,0.7,1.8,1,2.3,1
		c1.1,0,2-0.5,2.6-1.4C232,321.2,232.3,320.5,232.3,319.9"/>
	<path class="st0" d="M253.7,320.1c0,0.6-0.3,1.3-0.8,1.9c-0.1,0.2-1.2,1-3.1,2.5c1.1,0.9,1.8,1.5,2.3,1.9c0.8,0.7,1.1,1.8,1.1,3.3
		c0,1.9-0.7,3.5-2.2,4.6c-1.5,1.1-3.5,1.7-6.1,1.7c-2.7,0-4.8-0.5-6.1-1.6c-1.1-0.9-1.7-2.1-1.7-3.6c0-0.8,0.4-1.6,1.3-2.4
		c0.6-0.7,1.4-1.3,2.3-1.9c0.4-0.3,0.9-0.6,1.4-0.8c-0.6-0.7-1.2-1.3-1.8-2c-0.4-0.7-0.6-1.5-0.6-2.5c0-1.2,0.6-2.5,1.9-3.7
		c1.5-1.5,3.3-2.3,5.4-2.3c1.7,0,3.2,0.4,4.5,1.3C253,317.4,253.7,318.7,253.7,320.1 M249.8,331.3c0-0.9-0.5-1.7-1.5-2.5
		c-0.7-0.6-1.7-1.1-2.9-1.5c-0.9-0.3-1.4-0.5-1.6-0.5c-0.8,0-1.5,0.5-2.3,1.6c-0.7,1-1.1,1.8-1.1,2.5c0,0.8,0.4,1.6,1,2.4
		c0.6,0.7,1.3,1,1.8,1h3.4c0.4,0,1-0.2,1.7-0.8C249.4,333.1,249.8,332.3,249.8,331.3 M250.6,319.9c0-1-0.5-1.8-1.4-2.4
		c-0.7-0.5-1.3-0.7-1.7-0.7c-1.2,0-2.3,0.3-3.1,1c-0.9,0.6-1.3,1.4-1.3,2.2c0,0.8,0.6,1.6,1.9,2.4c1.1,0.7,1.8,1,2.3,1
		c1.1,0,2-0.5,2.6-1.4C250.4,321.2,250.6,320.5,250.6,319.9"/>
	<path class="st0" d="M271.3,320.6c0,1.8-0.8,3.4-2.5,4.8c-0.7,0.6-2.3,1.6-4.8,3.1c-1.9,1.1-2.9,2-3.2,2.8l6.3,2.1
		c0.3,0,1-0.5,2.1-1.4c0.6-0.5,1.1-0.8,1.5-1v1c-1.2,1.6-2.2,2.7-3,3.2c-0.9,0.5-1.8,0.7-3,0.7c-1,0-2.1-0.3-3.4-1
		c-1.2-0.7-2.2-1-2.9-1c-0.2,0-0.7,0.3-1.6,1c-0.5,0.4-1,0.7-1.5,0.9v-1c0.8-1.3,2.3-2.9,4.6-4.9c2.8-2.4,4.6-4.1,5.3-4.9
		c1.7-1.9,2.6-3.8,2.6-5.5c0-0.9-0.4-1.7-1.2-2.3c-0.7-0.5-1.3-0.8-1.9-0.8c-0.9,0-1.8,0.3-2.8,1c-1.3,0.9-1.9,2-1.9,3.4
		c0,1,0.4,1.7,1.3,2c0.7,0.3,1.2,0.6,1.6,0.8c-0.4,0.3-0.6,0.6-0.8,0.7c-0.2,0.1-0.3,0.2-0.4,0.2c0,0-0.2,0-0.4,0
		c-0.2,0-0.5,0-0.8,0c-1.2,0-2-0.3-2.6-0.9c-0.5-0.6-0.8-1.4-0.8-2.5c0-1.6,0.9-3,2.6-4.2c1.4-1,2.6-1.5,3.7-1.5h2.9
		c1,0,2,0.4,3,1.3C270.7,317.5,271.3,318.9,271.3,320.6"/>
</g>
</svg>
