<?xml version="1.0" encoding="utf-8"?>
<!-- Generator: Adobe Illustrator 19.0.0, SVG Export Plug-In . SVG Version: 6.00 Build 0)  -->
<svg version="1.1" id="Layer_1" xmlns="http://www.w3.org/2000/svg" xmlns:xlink="http://www.w3.org/1999/xlink" x="0px" y="0px"
	 viewBox="0 0 400 400" style="enable-background:new 0 0 400 400;" xml:space="preserve">
<style type="text/css">
	.st0{fill-rule:evenodd;clip-rule:evenodd;fill:#582726;}
	.st1{fill-rule:evenodd;clip-rule:evenodd;fill:#BB9384;}
	.st2{clip-path:url(#SVGID_4_);}
	.st3{clip-path:url(#SVGID_5_);}
	.st4{clip-path:url(#SVGID_6_);fill-rule:evenodd;clip-rule:evenodd;fill:#582726;}
	.st5{clip-path:url(#SVGID_6_);fill-rule:evenodd;clip-rule:evenodd;fill:#CC2027;}
	.st6{clip-path:url(#SVGID_6_);fill:none;stroke:#CC2027;stroke-width:4.4678;}
	.st7{fill-rule:evenodd;clip-rule:evenodd;fill:#120F10;}
	.st8{fill:none;stroke:#120F10;stroke-width:4.4678;}
	.st9{fill:#FFFFFF;}
	.st10{fill-rule:evenodd;clip-rule:evenodd;fill:#0F9146;}
	.st11{fill-rule:evenodd;clip-rule:evenodd;fill:#FFFFFF;}
</style>
<g>
	<path class="st0" d="M285.1,145.3c1.3-0.3,2.7-0.7,4-1C288.8,145,285.8,145.7,285.1,145.3"/>
	<path class="st1" d="M295,172.5c0.2-0.9,2.3-0.7,3.2-1.2C298,172.2,295.9,172,295,172.5"/>
	<path class="st1" d="M295.5,174.3c-0.1,1.3,2,3.8-0.2,3.9c0-0.1-0.1-0.2-0.1-0.4C297,177.7,294.3,174.9,295.5,174.3"/>
	<path class="st0" d="M295.5,182c1,0.2,2.5-0.4,2.9,0.8C297.5,182.4,295.5,183.9,295.5,182"/>
	<path class="st0" d="M292.6,187.7c-0.2,0.8-2.4,1-2.9,0.7C289.6,187,291.5,188,292.6,187.7"/>
	<path class="st0" d="M283.1,211.6c0.6,0.1,1.8-0.9,1.9-0.1C284.4,211.5,283.2,212.4,283.1,211.6"/>
	<path class="st0" d="M288.7,218.7c-0.1,0.6,0.9,1.8,0.1,1.9C288.9,220,287.9,218.8,288.7,218.7"/>
	<path class="st1" d="M282.7,188.2c0.7-1.6,1.6-3.1,2.7-4.5C284.7,185.3,283.8,186.8,282.7,188.2"/>
	<g>
		<defs>
			<rect id="SVGID_1_" x="40.3" y="8.7" width="311.7" height="382.1"/>
		</defs>
		<defs>
			<path id="SVGID_2_" d="M40.3,8.6h311.5V391H40.3V8.6L40.3,8.6z M40.3,8.6"/>
		</defs>
		<defs>
			<rect id="SVGID_3_" x="40.3" y="-82.1" width="365.4" height="472.9"/>
		</defs>
		<clipPath id="SVGID_4_">
			<use xlink:href="#SVGID_1_"  style="overflow:visible;"/>
		</clipPath>
		<clipPath id="SVGID_5_" class="st2">
			<use xlink:href="#SVGID_2_"  style="overflow:visible;"/>
		</clipPath>
		<clipPath id="SVGID_6_" class="st3">
			<use xlink:href="#SVGID_3_"  style="overflow:visible;"/>
		</clipPath>
		<path class="st4" d="M297.7,167.6c0.9,0.3,1.6,0.7,2.3,1.3C299.1,168.7,298.3,168.2,297.7,167.6"/>
		<path class="st5" d="M42.6,41.5c0,0,44.7,0.1,82.6-9.6C163,22.1,196.4,10,196.4,10s40,16.5,76.8,22.3c36.8,5.7,76.1,7,76.1,7
			S357,142.6,332.8,214c-37.7,130.6-134,175.5-134,175.5s-85.5-46.7-120.4-129.8C32.2,155.1,42.6,41.5,42.6,41.5"/>
		<path class="st6" d="M42.6,41.5c0,0,44.7,0.1,82.6-9.6C163,22.1,196.4,10,196.4,10s40,16.5,76.8,22.3c36.8,5.7,76.1,7,76.1,7
			S357,142.6,332.8,214c-37.7,130.6-134,175.5-134,175.5s-85.5-46.7-120.4-129.8C32.2,155.1,42.6,41.5,42.6,41.5L42.6,41.5z
			 M42.6,41.5"/>
	</g>
	<path class="st7" d="M75.4,95.1c0,0,35,0,64.6-7.5c29.6-7.5,55.8-16.9,55.8-16.9s31.3,12.8,60.1,17.2c28.8,4.4,59.6,5.4,59.6,5.4
		s6,79.7-13,134.9c-29.6,100.9-104.9,135.6-104.9,135.6s-66.9-36-94.2-100.2C67.2,182.9,75.4,95.1,75.4,95.1"/>
	<path class="st8" d="M75.4,95.1c0,0,35,0,64.6-7.5c29.6-7.5,55.8-16.9,55.8-16.9s31.3,12.8,60.1,17.2c28.8,4.4,59.6,5.4,59.6,5.4
		s6,79.7-13,134.9c-29.6,100.9-104.9,135.6-104.9,135.6s-66.9-36-94.2-100.2C67.2,182.9,75.4,95.1,75.4,95.1L75.4,95.1z M75.4,95.1"
		/>
	<path class="st9" d="M245.1,73.4l-9.8,0.3L234.5,43l-10,0.3l-0.3-10l29.7-0.8l0.3,10l-10,0.3L245.1,73.4z M245.1,73.4"/>
	<path class="st10" d="M131.2,144.3c-0.4-1.1-0.8-1.2-0.1-1.9c1.1-1,1.2,0.2,2.3,1.4c0.8,0.9,1.7,2.1,2.3,2.9
		c2.3,3.2,4.3,6.2,6.1,8.9c2.1,3.2,4.3,6.9,5.9,9.7c0.7-1.9,0.4-4.5,0.2-7c0.4-0.6,0.4-1.4,0.2-2.4c0.4-1.2,0.4-2.6,0.6-4
		c0.6-3.9,1.7-7.4,3.6-10.5c1.3-0.9,2.9-3.1,4.7-2.7c0,0.1,0.1,0.2,0.1,0.4c0.1,2-2.8,2.2-3.3,3.9c0,0.1,0.1,0.2,0.1,0.4
		c-0.1,0.1-0.3,0-0.4,0.1c-3,4.8-3.7,14.6-3.5,21.7c0.1,4.3,0.8,4.8,2.8,8.2c13.6,22.6,26.7,49.5,36.2,76.9c0.3,0.5,0,2,0.8,1.7
		c0.2,0.9,0.4,1.7,0.6,2.5c0.4,0.7,0.1,2.5,1,2.4c0.3,1.1,0.5,2.2,0.8,3.3c0.5,1,0.3,3,1.2,3.2c0.5,2.1,1,4.1,1.5,6.2c1,4,2,8,3,12
		c0.5,1.8,0.9,3.6,1.4,5.4c-0.7,0.7,0.5,2.6,0.5,3.7c0.4-0.4,0.3-1.3,0.3-2c-0.2-4.4,0.4-8.4,0.3-12.8c0.4-0.7,0.2-1.7,0.1-2.7
		c0.9-4.6,1.1-9.7,1.9-14.3c0.9-4.7,1.8-9.4,3.1-13.9c1.6-2.1,1.1-5,0.8-7.5c-0.1-1.1,1-1.5,0.4-2.8c0.3-3.2-0.4-7.8-2.5-10.2
		c-0.5-0.9,0.5-0.9,0.3-1.6c0.2-0.1,0.4-0.2,0.3-0.5c2,1.1,2.9,4.1,3.7,7.2c0.8-2.3,1.7-4.5,2.1-7.1c0.4-0.3,0.5-0.9,0.3-1.6
		c0.7-0.3,0.5-1.1,0.7-1.7c0.4-2.1,1.3-4,1.5-6.1c0.9-1.5,0.7-3.6,1.1-4.9c0.7-2.1,0.8-4,0.6-6.7c-0.2-5-1.4-9.4-4.1-13.3
		c-0.2-0.5-0.2-1.4-0.7-1.4c-0.1-0.6-0.4-1.1-0.7-1.4c-0.2-0.7,0.9-0.7,0.4-1.6c0.5-0.2,0.8,0,1.2,0.1c2.4,4.2,4.8,8.5,6,14.7
		c-0.9,1.4,0.9,1.8,0.8,0.2c0.9-2.9,2.6-5.3,3.4-8.2c2-2.9,3.8-5.9,5.5-9.1c1-0.4,1-1.5,0.9-2.5c0.5-2.5,0.9-5.1,0.8-7.9
		c0.7-3,0-9.6-2.4-12.5c-0.2-0.3-0.2-0.7-0.5-0.6c-0.3-0.9-1-1-0.4-1.8c0.2-0.1,0.4-0.2,0.3-0.5c0.3-0.1,0.5-0.1,0.7-0.2
		c1.1,1,2.3,2,2.9,3.9c0.3,0.5,0.1,2,0.8,1.7c0.2,0.6,0.3,1.2,0.4,1.8c-0.8,0.1,0.2,1.3,0.1,1.9c0.4,4.1,0.3,7.8-0.3,11.2
		c1,0.6,1.6-1.3,1.9-1.6c0.3-0.3,0.7-0.3,1-0.6c0.5-0.5,0.7-1.3,1.1-1.8c0.5-0.6,1-0.9,1.5-1.5c1.8-2.2,3.4-4.5,4.9-6.6
		c3-4.1,5.1-8.6,7.1-13.3c0.3-1.2,1-2.3,1-3.7c0.5-0.9,0.8-2,0.7-3.3c0.5-2.4,0.9-4.8-0.1-8.1c-0.1-0.4-0.2-0.7-0.3-1.1
		c-0.1-0.3-0.2-0.7-0.3-1.1c-0.1-0.8,1.6-0.5,1.6-1.2c0.1,0.2,0.1,0.5,0.2,0.7c0.3,1.3,0.6,2.6,1,4c0.7,5.5-0.5,9.8-2,14
		c1.4-1.2,2.8-2.5,4.1-3.7c4.4-4.1,8.7-7.6,14.4-10.5c0.5,0,0.6,0.7,1,0.9c0.5,1.3-1.8,1-1.8,2c-0.4,0.2-1.1,0.2-1,0.6
		c-8.6,4.8-14.7,11.1-19.9,18c-1.6,2.1-3,4.4-4.1,6.8c-0.6,1-1.8,1.6-2,2.8c3.1-1.9,6.1-3.8,9.9-5.2c0.6-0.4,2.3-0.1,2.1-0.9
		c1.5-0.4,2.9-0.7,4.4-1.1c0.2,0.8,1.6-0.2,2.3-0.2c1.2,0,2.5-0.5,3.7-0.5c1.1,0,2.9-0.2,3.3,0.7c0.1,0.2,0.1,0.5,0.2,0.7
		c-1.1,1.2-3.1,0.2-4.9,0.8c-1.1,0.5-1.4-0.3-2.6,0.3c-16.4,3.1-23.8,11.6-30.5,20.6c-1.7,2.5-3.3,5-4.7,7.7
		c-2.4,4.4-4.3,9.1-5.8,14.1c4.4-3.4,8.6-6.9,15.1-9.1c0.6-0.1,1.7-0.8,1.6,0.4c0.3,1.3-1.7,1.3-2.2,2.1c-0.4,0.3-2,0-1.7,0.8
		c-4.7,1.7-8.5,4.8-11.3,7.4c-1.1,1.1-2.5,1.9-3.1,3.1c-0.5,0.8-0.4,2.1-0.7,3.2c-1,3.5-1.9,7-2.9,10.3c-1.4,4.7-3.1,8.9-4,13.3
		c0.7,0.1,1.1-0.9,1.5-1.5c1.5-2.2,2.9-4.7,5.5-6c0.5-0.1,0.4-0.6,1-0.6c0.5-0.1,1-0.2,1.4-0.4c-0.2,0.5-0.2,1.1,0.1,1.9
		c-0.3,0.2-0.7,0.2-0.6,0.6c-2.4,0.8-4.2,2.9-5.2,4.3c-0.8,1.3-1.3,1.9-1.9,3.2c-3.3,6.5-5.4,14.8-6.5,22
		c-1.9,12.7-2.4,25.9-2.2,39.4c0.1,8.1,1.3,16.3,1.3,23.9c0,1.1,0.5,2.6-0.4,3.2c-1.3,1.1-1.2-0.6-1.8-1.1c-0.6-0.4-1.6-0.6-2.2-1
		c-0.3-0.3-0.3-0.8-0.6-1c-0.2-0.2-0.6-0.3-0.9-0.5c-4.2-3.3-8.9-6.5-12.8-9.5c-13.4-10.6-26.1-21.6-38.6-33.6
		c-7.8-7.6-15.8-15.6-22.6-23.7c-1.1-1.4-1.9-2.9-3-4.3c-1.5-2-3.1-3.5-4.5-5.5c-1.1-1.6-2.2-2.9-2.9-3.9c-2-2.9-3.8-6.4-5.4-9.1
		c-3.1-5.4-6.4-11.8-8.2-18.8c-0.9-3.6-1.1-7.2-1.1-10.9c0.1-1.8,0.1-3.6,0.6-5.2c0.5-1.4,0.2-3.4,1.6-4.2
		c6.8,15.2,14.1,30.2,25.2,37.3c2.8,1.8,5.7,2.9,8.2,4.9c0.8,0.7,1.7,1.3,2.7,1.6c23.5,17.1,46,35.8,58.9,70.2
		c0.4,0.7,0.1,2.5,1,2.4c0.4,1.8,0.9,3.6,1.4,5.5c0.6,1,1.8,1.1,2.7,1.6c-0.2-2.3,0.1-4.2-0.5-6.8c0.5-0.2,0.1-1,0-1.5
		c-0.2-7.4-1.6-15.8-3.4-24.6c-1.7-8.6-4.2-17.1-6.7-25.3c-2-6.7-5-15-7.9-22.3c-2-5.3-4.4-10.5-6.5-15.4c-1.8-4.1-2.4-6.8-7.1-6.7
		c-1,0.3-3.1-0.3-3.7,0.9c-1.7,0.3-2.8,1-3.8,1.7c-0.2,0-0.4,0-0.4-0.3c-1.3-1.8,0.7-2.1,2-2.8c3.1-1.7,7.3-2,9-1.1
		c-0.4-1.6-1-2.8-1.7-3.8c0-0.1,0-0.2-0.1-0.3c-3-6.8-6.4-13.1-9.8-19.1c-0.6-0.8-1.6-1.2-2.4-1.7c-1.4-0.9-2.3-1.4-3.6-1.8
		c-0.8-0.2-1.5-0.6-2.1-0.6c-1,0.3-1.3-0.6-2.4-0.2c-4-0.1-9,2.2-11.5,3.6c-1.2,0.7-2.4,2.6-3.5,1.6c-1.3-1.4,1.1-2.5,2.3-3.2
		c1.5-1,3.5-1.7,4.8-2.4c0.5-0.3,2,0,1.7-0.8c4.2-1.2,7.5-0.8,10.7-0.3c1.1,0.6,2.1,1.4,3.5,1.5c-0.1-0.2-0.2-0.4-0.4-0.3
		c-0.5-1.7-1.5-2.7-2.2-4.1c-0.1-0.4-0.4-0.4-0.6-0.6c-1.2-2.9-3.1-5.9-4.9-8.8c-3.9-6.4-6.7-12.5-13.7-12.8
		c-1.1,0.2-1.7-0.3-2.7-0.1c-1.8-0.4-6.2,0.6-7.5,1.1c-1,0.4-0.7-1.3-1.4-1.2c0-0.1-0.1-0.2-0.1-0.4c4.2-2.1,9.4-1.5,13.2-1.3
		c1,0.5,2.2,0.8,3.4,1.1c-0.1-0.4-0.2-1-0.6-1c-0.3-1.1-0.9-1.6-1.4-2.4c-0.2-0.7-0.5-1.2-1.1-1.3c-0.8-1.7-1.7-3.2-2.7-4.7
		c-0.9-1.3-2-2.9-3.3-3.8C131.6,144.9,131.6,144.3,131.2,144.3"/>
	<path class="st10" d="M270.1,214.1c3.1-0.8,6.3-1.6,9.5-2.3c0.1,0.8,1.3-0.2,1.9-0.1c0.8-0.3,1.4-0.3,1.9-0.1
		c0.6,2.4,1.2,4.8,1.8,7.3c-0.8,0.1,0.2,1.3,0.1,1.9c1.7,16.3-3.2,28.5-8.9,40.3c-0.9,1.1-1.7,2.3-2.2,3.6c-0.2,0.7-0.5,1.4-1.1,1.8
		c-1,1.3-1.8,2.6-2.5,4.1c-4.5,5.8-8.8,11.8-14.8,16.7c-0.2,0-0.4,0-0.4-0.3c-1.8-5.4-1.6-9.6-1.5-13.9c0.3-5.6,1-10.9,1.7-16.2
		c0.3-1,2.2-7.3-0.1-5c-0.3,0.1-0.7,0.2-0.6,0.5c-7,4.3-10.7,10.5-14.9,16.4c-2.1,3-4,6.2-5.8,9.5c-0.2,1.2-1.3,1.9-1.5,3.1
		c-0.7,0.8-1.3,1.7-1.6,2.7c0.1,0.8-0.8,1-0.7,1.7c-0.6,0.6-1.1,1.4-1.4,2.3c-8.7,17.3-16.8,35-24.4,53c-0.1,0-0.2,0.1-0.3,0.1
		c-0.3-6.8-0.1-13.4,0.5-19.8c-0.5-1,0.4-1.2-0.2-2.3c1.7-17.9,4.9-34.9,11.1-50.1c1.8-4.5,4-8.7,6.1-13c1.6-2.3,3.1-4.7,4.4-7.2
		c9.8-13.9,21.9-26.4,42.3-33.9C268.8,214.5,270.3,214.8,270.1,214.1"/>
	<path class="st11" d="M238.9,107.4c0.3,0.4,0.6,0.6,1.3,0.5c-0.1-0.4,0.2-0.5,0.2-0.8c0.9-1.1,1.6-2.3,2.2-3.6
		c0-0.3,0.2-0.5,0.6-0.5c0,0.1,0,0.2,0.1,0.4c0.8,0.7,1.7,1.3,2.7,1.6c2.1,1.7,4.4-2.8,6.5-2c-0.2,2.4-0.9,4.6-0.5,7.4
		c-0.6,0-0.1,2.1,0.4,1.8c0.1,0.4,0.2,0.7,0.3,1.1c0.4,1.6,0.8,3.1,1.2,4.7c1.3,6.2,0.4,11.1-3.4,14.3c-0.1,0.7-1.7,0.4-1.6,1.2
		c-0.5,0.1-1,0.2-1.4,0.4c-2.9,0.9-4.7-0.1-6.8-0.6c-1.6-1.2-3.3-2.4-4.9-4.2c-0.4-0.5-1.3-1.1-1.5-1.5c-0.6-1.1-1-3.1-1.6-4.6
		c-1.5-3.9-3.2-8.8-5.7-12.1c-0.3-0.2-0.5-0.5-0.6-1c2.9-0.7,4.7,0.4,7.1,0.6c0.1-1.7,1.1-2.8,1.2-4.5c0.3,0,0.3-0.2,0.3-0.5
		C236.3,105.7,237.3,107,238.9,107.4"/>
	<path class="st11" d="M115.7,206.7c3.7-6.4,6.7-14.7,17.8-15.6c2.2,1.6,4.7,2.8,5.5,6.7c0.2,0.9,0.4,1.7,0.6,2.5
		c1.3,6.6-0.3,11.3-1.3,16.5c-1.8-0.2-3-1.2-4.6-1.5c-1.4,0.4-1,1.9-2.6,2.2c-1.4-1.3-2.9-2.3-4.4-3.5c0-0.2-0.1-0.5-0.2-0.7
		c-1.6,0.9-2.8,2-4.3,3c-0.1,0-0.2,0.1-0.3,0.1c-0.7-1.3-1.3-2.6-1.8-4.2c-1.5-0.6-3.2-0.8-5.2-0.6c-0.9-1,0.8-2.7,0.9-4.1
		C115.8,207.2,115.8,206.9,115.7,206.7"/>
	<path class="st11" d="M289.6,118.4c0.6,1.3,0,1.8,0.3,3c1.8,0.2,4.2-0.4,5.6,0.5c-0.3,1.9-1.4,3.3-1.4,5.4c2,0.2,3.6,0.8,5.4,1.4
		c-0.3,1.4-0.7,2.9-1.3,4.1c1.2,2.1,3.4,2.6,4.4,5.1c-0.9,0.2-1.3-0.4-2.3,0.2c-0.3-0.8-1.6,0.2-2.3,0.2c-0.5,0.3-2,0-1.7,0.8
		c-4.5,1.2-5.9,4.2-10.7,5.3c-1.3,0.3-2.7,0.6-4,1c-1.3,0.6-1.7-0.2-3,0.4c-0.6-0.5-1.8-0.2-2.5-0.5c-3-1.2-6.1-3.8-6.3-8.1
		c-0.4-2,0.4-3.2,0.7-4.8c1.5-5.2,6.8-7.8,11.2-11.2c2.1-1.6,3.8-3.2,5.4-4.8c0.5-0.5,0.8-1.4,1.7-1.2
		C289.1,116.2,289.3,117.3,289.6,118.4"/>
	<path class="st11" d="M189.9,164.1c0.5-2,0.3-4.3,1.6-5.8c1.6,1.7,2.9,3.8,4.7,5c0.6,0.7,1.4,1.1,2.3,1.4c1.2,0,1.9,0.9,3,1.2
		c1,0.8,2,1.5,3.2,1.9c2.9,1.9,7.6,6,7.8,11.2c0.1,1.8-1.2,3.2-1.4,5c-0.3-0.1-0.7-0.2-1.2-0.1c0.5,0.9-0.5,0.9-0.4,1.6
		c-1.2,0.4-1.4,1.4-3.1,1.5c-1.3,0.3-2.7,0.7-4,1c-1.5,0.7-2.3,0.1-3.7,0.5c-2.1-0.8-4.3-1.5-6.4-2.3c-0.9-1-2.2-1.1-3.5-1.5
		c-1.5,0.1-2.3-0.9-3.7-1c-1.5-1.3-4.1-0.8-5.8-1.6c0.9-0.2,1-0.8,1.2-1.5c1.1-1.2,2.9-2,3.8-3.2c-1-1.1-1.9-2.4-2.5-4
		c-0.4-1,2.1-0.2,1.6-1.2c0.5-0.1,1-0.2,1.5-0.4c0.7-0.2,1.4-0.4,2.2-0.5c-0.2-0.6-0.3-1.2-0.5-1.8c-0.4-0.7-0.1-2.5-1-2.5
		c-0.1-0.5-0.2-1-0.3-1.5c1-0.2,1.9-0.5,2.9-0.7C188.6,164.6,190.2,164.9,189.9,164.1"/>
	<path class="st11" d="M195.2,194.8c0.4-0.1,0.4-0.4,0.6-0.5c1.2,4.1,3.2,6.6,5.2,8.3c2.7,2.4,4.9,4.7,6.4,8.8
		c0.2,0.8,0.4,1.7,0.6,2.5c0.6,4.3-1.2,7.1-4.8,8.9c-0.7,0.2-1.5,0.4-2.2,0.5c-1.6,0.6-2.3-0.3-3.8,0.2c-0.8-0.6-2-0.5-2.9-0.8
		c-1.2-0.8-1.5-0.6-2.4-1.7c-0.1-0.1-0.7-0.1-0.8-0.2c-1.2-1-1.9-1.8-3-2.7c-1.1-0.9-2.5-1.7-3.3-2.3c-0.5-0.4-0.7-1-1.1-1.3
		c-1.9-1.3-4.1-2-5.4-2.9c0.1,0.1,0.5-0.3,0.3-0.4c0.3-0.1,0.3-0.4,0.6-0.5c1.6-0.5,2.7-1.3,4.6-1.5c0-0.1-0.1-0.3-0.1-0.4
		c0.9-0.9-1.3-3.6-0.4-4.5c1.8-0.4,3.1,0,4.6,0c0.3-1.8-0.6-4.3,0.6-5.5c1,0.3,4.1,1.1,4.5-0.7C194.1,197,194.8,196,195.2,194.8"/>
	<path class="st11" d="M105.9,125.2c1.1-0.3,1.8,0,2.7,0.1c0.5-1.8,0-4.1,0.5-5.9c1.8,0.7,3.7,1.1,5.5,1.7c0.9-1.6,0.6-4,1.7-5.4
		c1.6,0.1,2.8,0.8,4.2,1.3c1.9-1.3,2.9-3.2,5.1-4.3c-0.1,1,0,2.1,0.4,3.4c-0.4,0.8,0.3,3.9,1.1,4.3c1.5,3.5,4,5.3,4.8,10
		c0.2,0.7,0.4,1.5,0.6,2.2c0.1,0.6,0.3,1.2,0.4,1.8c0.3,2.1-0.2,3.8-0.6,5.5c-0.7,0.6-1.1,1.4-1.4,2.3c-1.9,2.2-5,3.5-8.5,3.2
		c-1.4-0.7-3.3-0.7-4.6-1.5c-2.5-0.9-4.3-3.8-6.3-6.5c-0.8-1.1-1.9-2.1-2.7-3.2c-1.3-1.7-2.6-3.5-4-5.2c-0.9-1.1-1.7-1.6-2.6-2.8
		C103.4,125.8,104.6,125.5,105.9,125.2"/>
	<path class="st11" d="M158.8,134.1c1.7-2.3,4.8-3.7,8.9-4.5c0.1,0.8,1.3-0.2,1.9-0.1c5.7,0.8,11.1,2.2,17.2,2.3
		c0,1.1,1.7-0.7,1.7,0.4c-0.2,0.1-0.4,0.2-0.3,0.5c-0.6,1.8-1.9,3.2-3.6,4.3c0.7,1.9,3.4,3.2,3.4,4.5c-1.5,0.9-2.8,1.8-4.8,2.4
		c0.7,2.3,2,3.5,2.9,5.4c-2,0.4-2.5,1.6-4.5,1.9c0.3,2.4,0.3,4.5-0.4,6.2c-1,0-1.2-1.4-2.3-1.3c0-1.1-0.9-0.6-1.1-1.3
		c-0.8-0.7-1.7-1.3-2.7-1.6c-2.2-0.4-4.5-0.8-6.5-1.5c-4.7-2.6-11.3-4.4-11.6-12.5c0-0.1-0.1-0.2-0.1-0.4c0.1-0.8,0.2-1.7,0.6-2.4
		C158.1,135.7,158.5,134.9,158.8,134.1"/>
	<path class="st11" d="M202.7,134.8c2-0.2,3.4,0.5,5.2,0.6c0.3-1.8,0.1-4,0.9-5.6c1.7-0.2,2.8,0.5,4.3,0.5c1.6-1.2,2.6-4.4,4.3-4.5
		c0.2,1,0.5,1.9,0.7,2.9c0.3,0.5,0,2,0.8,1.7c0.6,2.7,1.5,3.4,2.7,4.7c2.4,2.7,4.5,5.1,5.8,9.4c0.2,0.7,0.4,1.4,0.5,2.2
		c0.5,3,0.3,5.5-1.3,7.2c-0.6,0.6-1,1.3-1.5,1.9c0.2,0.3,0,0.4-0.3,0.5c-0.9,0.2-0.9,0.9-2.1,0.9c-0.9,0.2-1.7,0.4-2.6,0.6
		c-1.3,0.6-1.8,0-3,0.4c-1.2-0.7-3-0.6-4.2-1.3c0,0,0-0.3-0.1-0.4c-2.9-0.9-4.1-2.8-6.3-5c-1.7-1.7-3.6-3.6-5.1-4.9
		c-0.6-0.5-1.3-1-1.9-1.5c-0.7-0.6-1.1-1.4-1.6-1.9c-0.5-0.4-1.7-0.2-1.5-1.2c0.3-0.1,0.7-0.2,0.6-0.5c0.5-0.1,1-0.2,1.5-0.4
		c0.7-0.2,1.4-0.4,2.2-0.5c0.5-0.1,1-0.2,1.4-0.4c0.1-1.2,0.2-2.6-0.3-4.2c0.1,0,0.3,0,0.3-0.1C202.4,135.5,202.3,135,202.7,134.8"
		/>
	<path class="st11" d="M100.8,171.8c1.5-0.3,2.4-1.7,2.9-2.3c0.3-0.3,0.8-0.3,1-0.6c0.7-0.9,0.8-2.3,1.2-3c0.2-0.3,0.8-0.3,1-0.6
		c0.7-1.1,1.3-2.6,2.2-3.6c0.3-0.3,0.8-0.4,1-0.6c2.6-2.6,7.9-5.9,11.4-4c0.8,0.7,1.7,1.3,2.7,1.6c0,0.1,0.1,0.2,0.1,0.4
		c0.2,1.3,1,1.4,1.6,1.9c1.6,3.5,1.4,7.9,0.3,10.7c-0.7,0.6-1.1,1.4-1.4,2.3c-0.9,1.5-1.4,3-2,4.3c-0.1,0.2-0.5,0.4-0.6,0.6
		c-0.2,0.3,0.1,0.8-0.1,1.2c-0.4,0.8-1.3,1.8-1.7,2.7c-0.2,0.5-0.2,1.1-0.4,1.6c-0.2,0.6-0.7,1.3-0.3,2c-0.6,0.2-1-0.1-1.3-0.5
		c-1-1.1-2.2-1.9-2.5-4c0-0.6-2.1-0.1-1.8,0.4c-0.9,0.2-0.9,0.9-2.1,0.9c-2.3,1.1-0.8-3.1-2-4.9c-1.6,0.1-4,1.5-5.2,0.9
		c-0.7-1.7,0-2.5-0.6-4.1c-1.9-0.5-4.1-0.4-5.2-2.2c0.5-0.1,1.1-0.2,1-0.6C100.6,172.3,100.8,172.1,100.8,171.8"/>
	<path class="st11" d="M266.1,160.7c1.2-1.2,2-2.7,4.2-3.3c1-0.2,2-0.5,2.9-0.7c2.2-0.4,4.1,0.2,5.6,0.6c0.6,0.2,1.6,0.1,2,0.3
		c1.7,0.7,3.5,2.8,4.8,3.8c2.9,2.3,5.8,4.4,8.6,6.4c0.6,0.6,1.4,1.1,2.3,1.4c0.3,0,1.8,0.6,1,0.9c-0.8,0.5-1.4,1.2-2.7,1.4
		c-0.9,0.5-3,0.2-3.2,1.2c0.1,0.6,0.3,1.2,0.4,1.8c-1.1,0.6,1.5,3.4-0.3,3.5c-1.7,0.3-3.1-0.1-4.6,0c-0.5,1.8,0.4,4.4-0.5,5.9
		c-1.4,0-3.8-0.9-4.7,0c-1.1,1.4-2,2.9-2.7,4.5c-0.5,0.7-0.7,0.5-0.9-0.5c-1-2.4-1.7-4.7-3.2-6.5c-0.8-0.9-2.2-1.6-2.9-2.4
		c-4.3-4.1-9.6-11.6-5.9-17.4C266.2,161.2,266.2,161,266.1,160.7"/>
	<path class="st11" d="M237,189.9c1.1-1,2.3-1.9,4-2.5c1.1-0.3,2.2-0.5,3.3-0.8c4.4-1,6.9,0.6,9.7,1.8c1.7,0.7,4.2,1.5,5.6,2.1
		c2.8,1.3,5.3,1.9,8.4,2.6c-0.9,1.9-3,3.1-5.1,4.3c0.9,1.8,1.9,3.4,2.8,5.1c-2,0.5-3.9,1-5.8,1.4c0.1,0.2,0.1,0.5,0.2,0.7
		c0.5,1,0.3,3.2,1.3,3.5c0.1,0.4,0.2,0.7,0.3,1.1c-1.6,0.7-4.8,0.4-4.9,2c-0.1,1.8-0.6,3.4-1.1,4.9c-0.3,0.1-0.3,0.4-0.6,0.5
		c-0.1-0.6-0.6-0.6-0.7-1.4c-1.3-2.2-3.2-3.2-4.7-5c-2.7-0.8-6.2-2.5-8-4.2c-0.8-0.7-1.2-1.1-2-1.8c-1.1-1-1.4-1.7-2.3-2.9
		c-1.1-1.6-1.7-2.8-2.1-5.3c-0.3-0.7,0-1,0-1.5c0.2-0.8,0.4-1.6,0.5-2.4C236.2,191.5,236.7,190.8,237,189.9"/>
	<path class="st11" d="M147.9,222.6c1.7-1.8,2.8-4.1,6.1-5c0.7-0.2,1.5-0.4,2.2-0.5c1.9-0.6,3,0.3,4.4,0.5c0,0.3,0.2,0.3,0.5,0.3
		c1.3,1.2,2.8,1.9,3.4,4.2c0.3,0.5,0,2,0.8,1.7c0.1,0.2,0.1,0.5,0.2,0.7c-0.8,0.2,0.2,1.6,0.2,2.3c0.7,2.2,0.1,3.4-0.4,4.7
		c-1.8,5.1-3.2,9.6-4,14.9c-0.7-0.2-1.3-0.5-1.8-1.1c-1.1-0.4-2-3.8-3.3-2.3c-1.7,0.3-2,1.5-3.4,2c-0.4,0-0.5-0.5-0.6-1
		c-0.5-1.1-0.4-3.5-1.4-3.9c-0.2,0-0.5,0.1-0.7,0.2c-0.5,0.3-2,0-1.7,0.8c-0.5,0.2-1.4,0.2-1.4,0.7c-0.6,0.1-1.2,0.3-1.3-0.5
		c-0.3-1.2-0.6-2.4-0.9-3.6c-1.7,0-3.4-0.2-4.8-0.7c-0.6,0.2-1,0-1.3-0.5c0.5-0.1,0.8-0.4,1-0.6c0.4-0.5,0.9-0.9,1.2-1.4
		c3.1-1.6,3.4-5,4.6-7.7C146.5,225.4,147.3,224.1,147.9,222.6"/>
	<path class="st11" d="M220,218.3c2.2-1.9,5.2-3.3,7.7-5c1.7-1.1,3-2.4,4.2-3.3c0.3-0.3,0.9-0.8,1.4-0.7c0.7,1.9,0.3,3,0.8,4.8
		c1.4,0.1,3-0.1,4,0.5c-0.2,1.4-0.9,2.5-1.3,3.8c1.4,0.4,2.9,0.7,4.2,1.3c0.2,1.6-1.2,2.2-1,3.7c0.9,0.6,3.1,2,2.7,3.2
		c-1.3,0.6-1.7-0.3-3,0.3c-0.4-0.5-3.1,0.1-3.3,0.8c-1.8,0.9-3,2.1-5.6,2.5c-1.1,0.3-2.2,0.5-3.3,0.8c-1.5,0.7-2.3,0-3.7,0.5
		c-1.2-0.9-3.3-0.3-4-2.1c-1.2-0.8-1.9-2.3-2.3-4.4C217.1,222.1,219.2,220.6,220,218.3"/>
	<path class="st9" d="M138,76.4l-1.2-40.7l17-0.5c3.1-0.1,5.6,0.2,7.2,0.8c1.7,0.6,3.1,1.8,4.1,3.6c1.1,1.8,1.7,4,1.7,6.6
		c0.1,2.3-0.3,4.2-1,5.9c-0.7,1.7-1.7,3-3.1,4.1c-0.9,0.7-2,1.2-3.5,1.7c1.2,0.5,2.1,0.9,2.7,1.4c0.4,0.3,1,1,1.7,2.1
		c0.7,1.1,1.2,1.9,1.5,2.5l5.3,11.6l-11.5,0.3l-5.8-12.3c-0.7-1.6-1.4-2.6-1.9-3.1c-0.8-0.6-1.6-0.9-2.5-0.9l-0.9,0l0.5,16.5
		L138,76.4L138,76.4z M147.5,51.9l4.3-0.1c0.4,0,1.3-0.2,2.7-0.6c0.7-0.2,1.2-0.6,1.6-1.3c0.4-0.7,0.6-1.5,0.6-2.4
		c0-1.3-0.4-2.3-1.1-3c-0.7-0.7-2-1-3.8-1l-4.5,0.1L147.5,51.9L147.5,51.9z M147.5,51.9"/>
	<path class="st9" d="M203.8,45.7l10.2,3c-0.6,3.1-1.6,5.7-3,7.8c-1.4,2.1-3.1,3.7-5.3,4.8c-2.1,1.1-4.9,1.7-8.2,1.8
		c-4.1,0.1-7.4-0.4-9.9-1.6c-2.6-1.2-4.9-3.4-6.8-6.5c-2-3.2-3-7.2-3.2-12.3c-0.2-6.7,1.3-11.9,4.5-15.5c3.2-3.7,7.8-5.6,13.7-5.8
		c4.7-0.1,8.4,0.8,11.2,2.8c2.7,2,4.8,5.1,6.2,9.3l-10.1,2.7c-0.4-1.2-0.8-2.1-1.2-2.7c-0.7-0.9-1.5-1.6-2.4-2.1
		c-0.9-0.5-2-0.7-3.1-0.7c-2.6,0.1-4.6,1.3-5.9,3.6c-1,1.7-1.4,4.4-1.3,8c0.1,4.5,0.9,7.5,2.2,9.2c1.3,1.6,3.1,2.4,5.4,2.3
		c2.2-0.1,3.8-0.8,4.9-2.2C202.7,50.3,203.4,48.3,203.8,45.7"/>
</g>
</svg>
