<?xml version="1.0" encoding="utf-8"?>
<!-- Generator: Adobe Illustrator 19.0.0, SVG Export Plug-In . SVG Version: 6.00 Build 0)  -->
<svg version="1.1" id="Layer_1" xmlns="http://www.w3.org/2000/svg" xmlns:xlink="http://www.w3.org/1999/xlink" x="0px" y="0px"
	 viewBox="0 0 400 400" style="enable-background:new 0 0 400 400;" xml:space="preserve">
<style type="text/css">
	.st0{fill:#044827;}
	.st1{fill:#FFFFFF;}
	.st2{fill:none;stroke:#FFFFFF;stroke-width:0.5892;}
</style>
<g>
	<path class="st0" d="M356,11l0,145.3c0,34.5-1,52.9-6.8,74.5C330.8,299.8,222.7,374.8,198.3,391C174,374.5,69,299.9,50.6,230.9
		c-5.8-21.7-6.8-40-6.8-74.5l0-145.4H356L356,11z M356,11"/>
	<path class="st1" d="M337.5,227.7c5.4-20,6.4-37,6.4-71.4l0-133.2H56l-0.1,133.2c0,34.3,1,51.4,6.3,71.4
		c15.8,58.9,102.8,125.2,136.1,148.6C232.2,353.1,321.8,286.5,337.5,227.7 M349.4,156.3c0,34.4-1,52.1-6.5,72.8
		C325.9,292.3,228.8,362.4,198.3,383c-30.1-20.8-124.5-90.6-141.4-153.9c-5.5-20.8-6.5-38.4-6.5-72.8l0-138.7h298.9L349.4,156.3
		L349.4,156.3z M349.4,156.3"/>
	<path class="st1" d="M245.7,136.5c12.1-12.8,19.9-27.9,21.9-40.7c1.9-12.4,0.2-19.5,0.2-19.5c0,0,0.5,12.1-5.9,27.2
		c-4.9,11.5-11,20.3-18.9,27.8l-10.9-20.6l-9.7,14.1l-26.6-45c0,0-51.7,76.7-50.3,76.7L197.1,92l17.3,45.4l16.7-18.3l9.1,14.7
		c-5.1,4.4-10.9,8.4-17.6,12.3c-15.1,8.8-34.1,14.1-52.2,14.4c-16,0.3-28.6-3.3-32.1-9.2c-2-3.3-2.5-10.3-0.8-16.9
		c4.3-16.7,20.3-41.3,45.2-55.8c25.6-14.9,55.4-16.2,71.6-10.9c1.7,0.6,10.1,3.9,10.1,3.9c0,0-1.1-1.4-1.1-1.4l0,0c0,0,0,0,0,0
		c-7.1-6.2-21.2-10.2-36.8-10.5c-18-0.3-35.9,4.2-50.4,12.6c-24.8,14.5-38.7,39.1-43,55.9c-2.6,10-2.3,18.3,0.8,23.5
		c9.1,15.3,56.4,21.9,90.7,1.9c6.9-4,13.2-9,18.7-14.5l25,40.4L245.7,136.5L245.7,136.5z M245.7,136.5"/>
	<path class="st1" d="M284.3,189h11l21,25.1V189h7.4v36.7h-8.8l-23.3-27.5v27.5h-7.3L284.3,189L284.3,189z M87.4,189h13.4
		c7.4,0,11.1,3.3,11.1,10.4H104c0-2.2-0.7-3.1-3.8-3.1H87.9c-2.1,0-3.6,0.6-3.6,3.4c0,3.3,1.5,3.4,3.6,3.4h13.7
		c6.8,0,10.4,1,10.4,11.4c0,7.8-3.1,11.2-10.4,11.2H86.4c-7.8,0-10.3-3.3-10.3-10.4h7.5c0,1.8,1.5,3.1,3.6,3.1h12.3
		c3.2,0,4.8-0.7,4.8-3.7c0-2.6-0.8-4.1-5-4.1H87.4c-8.3,0-11.4-1.8-11.4-11.2C76,192,79.2,189,87.4,189 M116.9,189h31.4v7.3h-24v6.8
		h23.3v7.3h-23.3v7.9h24v7.3h-31.4V189L116.9,189z M164.4,225.8c-8.6,0-11.3-3.2-11.4-13.1c0-2.2,0-3.8,0-5.4c0-1.6,0-3.1,0-5.3
		c0.1-10.6,2.9-13.4,11.9-13.4H177c7.3,0,11.9,2.5,11.9,12.9h-7.6c0-2.9-1.3-4.3-5.6-4.3h-9.4c-4.4,0-5.8,0.7-5.9,6.5
		c0,1.5,0,2.6,0,3.7c0,1.1,0,2.2,0,3.8c0,5.7,1.7,6.7,5.9,6.7h9.4c4.3,0,5.6-0.7,5.6-4.8h7.6c-0.4,9.8-2,12.8-11.1,12.8H164.4
		L164.4,225.8z M225.8,189v8.2h-12.9v28.5h-7.3v-28.5h-12.9V189H225.8L225.8,189z M230.3,189h7.4v36.7h-7.4V189L230.3,189z
		 M271.9,203.6c-0.1-6-1.4-6.5-5.7-6.5h-9.5c-4.6,0-5.8,0.5-5.9,6.5v5.1v2.9c0,6,1.6,6.3,5.9,6.3h9.5c4.1,0,5.6-0.3,5.7-6.3v-2.9
		V203.6L271.9,203.6z M279.3,213.2c-0.2,10.6-3,12.5-11.1,12.5h-13.5c-8.2,0-11.2-2-11.3-12.5c-0.1-2.6-0.1-4.4-0.1-6.4
		c0-1.4,0-2.9,0.1-4.8c0.2-10.6,2.7-13,11.3-13h13.5c7.4,0,11,2.4,11.1,13c0.1,1.9,0.1,3.8,0.1,5.8
		C279.3,209.7,279.3,211.5,279.3,213.2"/>
	<path class="st2" d="M284.3,189h11l21,25.1V189h7.4v36.7h-8.8l-23.3-27.5v27.5h-7.3L284.3,189L284.3,189z M87.4,189h13.4
		c7.4,0,11.1,3.3,11.1,10.4H104c0-2.2-0.7-3.1-3.8-3.1H87.9c-2.1,0-3.6,0.6-3.6,3.4c0,3.3,1.5,3.4,3.6,3.4h13.7
		c6.8,0,10.4,1,10.4,11.4c0,7.8-3.1,11.2-10.4,11.2H86.4c-7.8,0-10.3-3.3-10.3-10.4h7.5c0,1.8,1.5,3.1,3.6,3.1h12.3
		c3.2,0,4.8-0.7,4.8-3.7c0-2.6-0.8-4.1-5-4.1H87.4c-8.3,0-11.4-1.8-11.4-11.2C76,192,79.2,189,87.4,189L87.4,189z M116.9,189h31.4
		v7.3h-24v6.8h23.3v7.3h-23.3v7.9h24v7.3h-31.4V189L116.9,189z M164.4,225.8c-8.6,0-11.3-3.2-11.4-13.1c0-2.2,0-3.8,0-5.4
		c0-1.6,0-3.1,0-5.3c0.1-10.6,2.9-13.4,11.9-13.4H177c7.3,0,11.9,2.5,11.9,12.9h-7.6c0-2.9-1.3-4.3-5.6-4.3h-9.4
		c-4.4,0-5.8,0.7-5.9,6.5c0,1.5,0,2.6,0,3.7c0,1.1,0,2.2,0,3.8c0,5.7,1.7,6.7,5.9,6.7h9.4c4.3,0,5.6-0.7,5.6-4.8h7.6
		c-0.4,9.8-2,12.8-11.1,12.8H164.4L164.4,225.8z M225.8,189v8.2h-12.9v28.5h-7.3v-28.5h-12.9V189H225.8L225.8,189z M230.3,189h7.4
		v36.7h-7.4V189L230.3,189z M271.9,203.6c-0.1-6-1.4-6.5-5.7-6.5h-9.5c-4.6,0-5.8,0.5-5.9,6.5v5.1v2.9c0,6,1.6,6.3,5.9,6.3h9.5
		c4.1,0,5.6-0.3,5.7-6.3v-2.9V203.6L271.9,203.6z M279.3,213.2c-0.2,10.6-3,12.5-11.1,12.5h-13.5c-8.2,0-11.2-2-11.3-12.5
		c-0.1-2.6-0.1-4.4-0.1-6.4c0-1.4,0-2.9,0.1-4.8c0.2-10.6,2.7-13,11.3-13h13.5c7.4,0,11,2.4,11.1,13c0.1,1.9,0.1,3.8,0.1,5.8
		C279.3,209.7,279.3,211.5,279.3,213.2L279.3,213.2z M279.3,213.2"/>
	<path class="st1" d="M270.6,238.4h9.1v4.1H276v3.9h3.4v3.9H276v4.5h4v4.1h-9.4L270.6,238.4L270.6,238.4z M126.6,242.2
		c-0.2-0.2-0.7-0.3-1.4-0.3v5.2h0.4c0.5,0,0.9-0.1,1.1-0.3c0.2-0.2,0.3-0.7,0.3-1.5v-1.7C127,242.9,126.9,242.4,126.6,242.2
		 M119.8,258.9v-20.4h5.5c1.5,0,2.6,0.1,3.5,0.4c0.8,0.2,1.4,0.5,1.8,1c0.4,0.4,0.7,1,0.8,1.6c0.2,0.6,0.2,1.6,0.2,2.8v1.8
		c0,1.3-0.1,2.2-0.4,2.9c-0.3,0.6-0.8,1-1.5,1.4c-0.7,0.3-1.7,0.5-2.9,0.5h-1.5v8.2H119.8L119.8,258.9z M150.2,251.6h1.8
		c-0.3-2.3-0.5-5.2-0.8-8.6C150.7,246.9,150.4,249.8,150.2,251.6 M147.1,238.4h7.8l3.1,20.4h-5.5l-0.3-3.7h-2l-0.3,3.7h-5.6
		L147.1,238.4L147.1,238.4z M177.7,238.4v16.3h3.3v4.1h-8.7v-20.4H177.7L177.7,238.4z M202.1,253.1v-9.4c0-1,0-1.6-0.2-1.8
		c-0.1-0.3-0.3-0.4-0.7-0.4c-0.3,0-0.5,0.1-0.7,0.3c-0.2,0.2-0.2,0.9-0.2,1.9v9.6c0,1.2,0,1.9,0.1,2.2c0.1,0.3,0.4,0.4,0.7,0.4
		c0.4,0,0.6-0.2,0.7-0.5C202.1,255,202.1,254.3,202.1,253.1 M207.6,246.9v3.5c0,2.1-0.1,3.5-0.2,4.4c-0.1,0.9-0.4,1.6-0.9,2.3
		c-0.5,0.7-1.2,1.2-2.1,1.6c-0.9,0.4-1.9,0.6-3.1,0.6c-1.1,0-2.1-0.2-3-0.5c-0.9-0.4-1.6-0.9-2.2-1.6c-0.5-0.7-0.9-1.5-1-2.3
		c-0.1-0.9-0.2-2.3-0.2-4.4v-3.5c0-2.1,0.1-3.5,0.2-4.4c0.1-0.9,0.4-1.6,0.9-2.3c0.5-0.7,1.2-1.2,2.1-1.6c0.9-0.4,1.9-0.6,3.1-0.6
		c1.1,0,2.1,0.2,3,0.5c0.9,0.3,1.6,0.9,2.2,1.6c0.5,0.7,0.9,1.5,1,2.3C207.5,243.3,207.6,244.8,207.6,246.9 M228.3,258.9h-5.4v-20.4
		h5.4V258.9L228.3,258.9z M255.2,244.6h-5v-1.5c0-0.7-0.1-1.2-0.2-1.4c-0.1-0.2-0.3-0.3-0.7-0.3c-0.3,0-0.6,0.2-0.7,0.4
		c-0.2,0.2-0.2,0.7-0.2,1.2c0,0.7,0.1,1.2,0.3,1.5c0.2,0.4,0.7,0.8,1.6,1.2c2.4,1.4,4,2.6,4.6,3.5c0.6,0.9,0.9,2.3,0.9,4.3
		c0,1.5-0.2,2.5-0.5,3.2c-0.3,0.7-1,1.3-2,1.7c-1,0.5-2.2,0.7-3.5,0.7c-1.5,0-2.7-0.3-3.7-0.8c-1-0.5-1.7-1.2-2-2.1
		c-0.3-0.8-0.5-2-0.5-3.6v-1.3h5.1v2.5c0,0.8,0.1,1.3,0.2,1.5c0.1,0.2,0.4,0.3,0.7,0.3c0.4,0,0.6-0.2,0.8-0.4
		c0.2-0.3,0.3-0.7,0.3-1.2c0-1.2-0.2-2-0.5-2.4c-0.3-0.4-1.2-1-2.5-1.8c-1.4-0.9-2.2-1.5-2.7-1.9c-0.4-0.4-0.8-0.9-1.1-1.6
		c-0.3-0.7-0.4-1.6-0.4-2.7c0-1.6,0.2-2.7,0.6-3.5c0.4-0.7,1.1-1.3,2-1.7c0.9-0.4,2-0.6,3.3-0.6c1.4,0,2.6,0.2,3.6,0.7
		c1,0.4,1.6,1,2,1.7c0.3,0.7,0.5,1.8,0.5,3.5L255.2,244.6L255.2,244.6z M255.2,244.6"/>
</g>
</svg>
