<?xml version="1.0" encoding="utf-8"?>
<!-- Generator: Adobe Illustrator 19.0.0, SVG Export Plug-In . SVG Version: 6.00 Build 0)  -->
<svg version="1.1" id="Layer_1" xmlns="http://www.w3.org/2000/svg" xmlns:xlink="http://www.w3.org/1999/xlink" x="0px" y="0px"
	 viewBox="0 0 400 400" style="enable-background:new 0 0 400 400;" xml:space="preserve">
<style type="text/css">
	.st0{fill:#173C67;}
	.st1{fill:#005F9D;}
	.st2{fill:none;stroke:#FFFFFF;stroke-width:7.835;}
	.st3{fill:#EB6E90;}
	.st4{fill:none;stroke:#FFFFFF;stroke-width:2.8595;}
</style>
<g>
	<path class="st0" d="M199.8,13h-40.7c0,0-14,21.2-39,21.2c-13.2,0-22.9-7.7-22.9-7.7L50.7,90.4c0,0,29.6,16.7,29.6,48.1
		c0,31.4-20.4,40.7-20.4,73.7c0,33,8.5,60.3,34.3,85.1c25.8,24.9,105.5,95.7,105.5,95.7V13L199.8,13z M199.8,13"/>
	<path class="st1" d="M199.8,13h40.7c0,0,14,21.2,39,21.2c21.2,0,22.9-7.7,22.9-7.7L349,90.4c0,0-29.6,16.7-29.6,48.1
		c0,31.4,20.3,40.7,20.3,73.7c0,33-8.5,60.3-34.3,85.1C279.5,322.1,199.8,393,199.8,393V13L199.8,13z M199.8,13"/>
	<path class="st2" d="M199.8,371.2c0,0,67.6-60.5,88.2-79.8c20.6-19.3,34.2-39.3,34.2-77.2c0-37.9-18.6-37.5-18.6-73.7
		s21.4-53.9,21.4-53.9L296.9,48c0,0,7.6,2.7-19.5,2.7c-27.1,0-44.9-21.5-44.9-21.5h-32.6h-32.6c0,0-17.8,21.5-44.9,21.5
		c-27.1,0-19.5-2.7-19.5-2.7L74.6,86.6c0,0,21.4,17.7,21.4,53.9c0,36.3-18.6,35.8-18.6,73.7c0,37.9,13.6,57.9,34.2,77.2
		C132.2,310.7,199.8,371.2,199.8,371.2L199.8,371.2z M199.8,371.2"/>
	<path class="st3" d="M171.6,103.1c-1.8-10.3-7.7-27.1-19.4-27.1c-5.1,0-10.6,4.4-10.6,13.9c0,7.9,1.9,11.1,10.2,17.3l14.6,10.7
		c3.4,2.5,10.9,11,10.9,27c0,12.9-6.3,30.6-24.6,30.6c-9.4,0-13.9-5-17-5c-2.1,0-2.6,2.6-3,5h-2.9v-36.2h2.9
		c2,14.8,7.7,31.4,20.3,31.4c11.9,0,12.4-14.5,12.4-16.4c0-9.8-4.6-13.3-11.1-17.9l-6.7-4.7c-17-12-17-24.6-17-31.4
		c0-8.9,3.1-28.9,21.9-28.9c7.9,0,12.6,4.8,15.5,4.8c2.3,0,2.8-2.2,3.3-5h2.9v31.8H171.6L171.6,103.1z M171.6,103.1"/>
	<path class="st4" d="M171.6,103.1c-1.8-10.3-7.7-27.1-19.4-27.1c-5.1,0-10.6,4.4-10.6,13.9c0,7.9,1.9,11.1,10.2,17.3l14.6,10.7
		c3.4,2.5,10.9,11,10.9,27c0,12.9-6.3,30.6-24.6,30.6c-9.4,0-13.9-5-17-5c-2.1,0-2.6,2.6-3,5h-2.9v-36.2h2.9
		c2,14.8,7.7,31.4,20.3,31.4c11.9,0,12.4-14.5,12.4-16.4c0-9.8-4.6-13.3-11.1-17.9l-6.7-4.7c-17-12-17-24.6-17-31.4
		c0-8.9,3.1-28.9,21.9-28.9c7.9,0,12.6,4.8,15.5,4.8c2.3,0,2.8-2.2,3.3-5h2.9v31.8H171.6L171.6,103.1z M171.6,103.1"/>
	<path class="st3" d="M216.8,73.6h56.2v29.5h-2.4c-2.2-15.3-4.9-24.5-21.9-24.5c-5.3,0-7.2,0.6-7.2,6.9v34
		c12.3,0.3,13.8-10.1,15.2-21.9h2.5v49.6h-2.5c-1.1-12-2.7-22.7-15.2-22.7v34.2c0,9.7,4,10,10.9,10.4v3.7h-35.7V169
		c5.6-0.9,8.7-1.3,8.7-10.4v-71c0-9.7-4.1-10-8.7-10.4V73.6L216.8,73.6z M216.8,73.6"/>
	<path class="st4" d="M216.8,73.6h56.2v29.5h-2.4c-2.2-15.3-4.9-24.5-21.9-24.5c-5.3,0-7.2,0.6-7.2,6.9v34
		c12.3,0.3,13.8-10.1,15.2-21.8h2.5v49.6h-2.5c-1.1-12-2.7-22.7-15.2-22.7v34.2c0,9.7,4,10,10.9,10.4v3.7h-35.7V169
		c5.6-0.9,8.7-1.3,8.7-10.4v-71c0-9.7-4.1-10-8.7-10.4V73.6L216.8,73.6z M216.8,73.6"/>
	<path class="st3" d="M139,206.5l14.4-3.8l17.8,31l-11,3.4l24.6,32.6l-11.4,3.8l23.8,46.6l-38.6-51.5l13.6-3l-26.5-31.8l12.9-3.4
		L139,206.5z M139,206.5"/>
	<path class="st4" d="M139,206.5l14.4-3.8l17.8,31l-11,3.4l24.6,32.6l-11.4,3.8l23.8,46.6l-38.6-51.5l13.6-3l-26.5-31.8l12.9-3.4
		L139,206.5z M139,206.5"/>
	<path class="st3" d="M166.6,200l14.4-3.8l17.8,31l-10.9,3.4l24.6,32.6l-11.4,3.8l23.9,46.6l-38.6-51.5l13.6-3l-26.5-31.8l12.9-3.4
		L166.6,200z M166.6,200"/>
	<path class="st4" d="M166.6,200l14.4-3.8l17.8,31l-10.9,3.4l24.6,32.6l-11.4,3.8l23.9,46.6l-38.6-51.5l13.6-3l-26.5-31.8l12.9-3.4
		L166.6,200z M166.6,200"/>
	<path class="st3" d="M194.6,192.9l14.4-3.8l17.8,31l-10.9,3.4l24.6,32.6l-11.4,3.8l23.9,46.6L214.4,255l13.6-3l-26.5-31.8l12.9-3.4
		L194.6,192.9z M194.6,192.9"/>
	<path class="st4" d="M194.6,192.9l14.4-3.8l17.8,31l-10.9,3.4l24.6,32.6l-11.4,3.8l23.9,46.6L214.4,255l13.6-3l-26.5-31.8l12.9-3.4
		L194.6,192.9z M194.6,192.9"/>
</g>
</svg>
