<?xml version="1.0" encoding="utf-8"?>
<!-- Generator: Adobe Illustrator 19.0.0, SVG Export Plug-In . SVG Version: 6.00 Build 0)  -->
<svg version="1.1" id="Layer_1" xmlns="http://www.w3.org/2000/svg" xmlns:xlink="http://www.w3.org/1999/xlink" x="0px" y="0px"
	 viewBox="0 0 840 840" style="enable-background:new 0 0 840 840;" xml:space="preserve">
<style type="text/css">
	.st0{clip-path:url(#XMLID_107_);fill:#101519;}
	.st1{clip-path:url(#XMLID_108_);fill:#101519;}
	.st2{clip-path:url(#XMLID_109_);fill:url(#polygon23373_1_);}
	.st3{clip-path:url(#XMLID_110_);fill:#010101;}
	.st4{clip-path:url(#XMLID_111_);fill:#010101;}
	.st5{clip-path:url(#XMLID_112_);fill:#010101;}
	.st6{clip-path:url(#XMLID_113_);fill:#010101;}
	.st7{clip-path:url(#XMLID_114_);fill:#010101;}
	.st8{clip-path:url(#XMLID_115_);fill:#010101;}
	.st9{clip-path:url(#XMLID_116_);fill:#010101;}
	.st10{clip-path:url(#XMLID_117_);fill:#010101;}
	.st11{clip-path:url(#XMLID_118_);fill:#010101;}
	.st12{clip-path:url(#XMLID_119_);fill:#010101;}
	.st13{clip-path:url(#XMLID_120_);fill:#010101;}
	.st14{clip-path:url(#XMLID_121_);fill:#010101;}
	.st15{clip-path:url(#XMLID_122_);fill:#010101;}
	.st16{clip-path:url(#XMLID_123_);fill:#010101;}
	.st17{clip-path:url(#XMLID_124_);fill:#010101;}
	.st18{clip-path:url(#XMLID_125_);fill:#010101;}
	.st19{clip-path:url(#XMLID_126_);fill:#010101;}
	.st20{clip-path:url(#XMLID_127_);fill:#010101;}
	.st21{clip-path:url(#XMLID_128_);fill:#010101;}
	.st22{clip-path:url(#XMLID_129_);fill:#010101;}
	.st23{clip-path:url(#XMLID_130_);fill:#010101;}
	.st24{clip-path:url(#XMLID_131_);fill:#010101;}
	.st25{clip-path:url(#XMLID_132_);fill:#010101;}
	.st26{clip-path:url(#XMLID_133_);fill:#010101;}
	.st27{clip-path:url(#XMLID_134_);fill:#010101;}
	.st28{clip-path:url(#XMLID_135_);fill:#010101;}
	.st29{clip-path:url(#XMLID_136_);fill:#010101;}
	.st30{clip-path:url(#XMLID_137_);fill:#010101;}
	.st31{clip-path:url(#XMLID_138_);fill:#010101;}
	.st32{clip-path:url(#XMLID_139_);fill:#010101;}
	.st33{clip-path:url(#XMLID_140_);fill:#010101;}
	.st34{clip-path:url(#XMLID_141_);fill:#010101;}
	.st35{clip-path:url(#XMLID_142_);fill:#010101;}
	.st36{clip-path:url(#XMLID_143_);fill:#010101;}
</style>
<g id="g23316_2_" transform="matrix(25.850643,0,0,25.850643,-15400.133,-6719.6936)">
	<g id="XMLID_105_">
		<defs>
			<rect id="XMLID_106_" x="-3870.9" y="-4162.1" width="9085.9" height="8910.5"/>
		</defs>
		<clipPath id="XMLID_107_">
			<use xlink:href="#XMLID_106_"  style="overflow:visible;"/>
		</clipPath>
		<path id="path23324_2_" class="st0" d="M624.2,265.4l-25.1,0.1l-0.7,0l0,0.6c0.1,3.8,1.3,16.9,13,25.2l0.4,0.3l0.4-0.3
			c11.7-8.3,12.6-21.4,12.6-25.2v-0.6L624.2,265.4L624.2,265.4z"/>
	</g>
	<g id="XMLID_103_">
		<defs>
			<rect id="XMLID_104_" x="-3870.9" y="-4162.1" width="9085.9" height="8910.5"/>
		</defs>
		<clipPath id="XMLID_108_">
			<use xlink:href="#XMLID_104_"  style="overflow:visible;"/>
		</clipPath>
		<path id="path23326_2_" class="st1" d="M624.2,265.4l0,0.3l-25.1,0.1l-0.3,0l0,0.3v0v0c0.1,3.8,1.3,16.8,12.9,24.9l0.2,0.1
			l0.2-0.2l0,0l0,0c11.5-8.2,12.4-21.2,12.5-25v-0.3l-0.3,0L624.2,265.4l0-0.3l0.6,0l0.3,0v1c0,3.9-0.9,17.1-12.7,25.5l-0.2-0.3
			l0.2,0.2l-0.4,0.3l-0.2,0.2l-0.6-0.4l0,0c-11.9-8.3-13.1-21.6-13.2-25.4l0-0.6l0-0.3l1,0l25.1-0.1L624.2,265.4L624.2,265.4z"/>
	</g>
</g>
<g id="g23328_2_" transform="matrix(25.850643,0,0,25.850643,-15400.133,-6719.6936)">
	<g id="XMLID_94_">
		<defs>
			<path id="XMLID_95_" d="M611.7,281.5l-1.1,0l1.2,1.8v-1h1.4l0-0.6l-1.4-0.6L611.7,281.5L611.7,281.5z M614,281.1l1,0v-0.9
				c0,0-0.6-0.3-1-0.4V281.1z M614.8,274.7c0,0-1.8,1.4-1.6,4.5c0,0,2.7,0.9,3.5,1.8c0,0-0.6-4.8,3.3-7.3L614.8,274.7L614.8,274.7z
				 M610.8,271.6v0.9c0,0-6.7-0.4-7.2,4c-0.3,2.9,1.7,4.4,2.1,4.7l-0.4,0c0,0,1.1,2.3,3.4,4l6.4,0c0,0,2.1-1.8,3.3-4l-2.8,0.1
				c0,0-1.1,2.2-3.6,2.2c-2.6,0-3.4-2.2-3.4-2.2s-2.2-0.1-2.7-0.1c0,0-0.3-0.8,1.2-0.8l0.1,0.4l1.4,0.2c0,0,2.6-1.4,5.3,0.9
				c0,0-4-5.7,2.4-9.1l0.5-0.4l-9.1,3c0,0-1.4,2.8,0.2,4.8c0,0-3.7-1.8-1.9-4.8c1.5-2.5,4.9-2.1,4.9-2.1v0.8l0.9,0l0-2.5
				L610.8,271.6L610.8,271.6z M613.9,271.6v1.5c0,0,0.5-0.1,1-0.1l0-1.4H613.9z M600.3,271.1l22.8-0.1c-0.9,5.4-3.6,13.3-11.3,19
				C604.1,284.4,601.3,276.5,600.3,271.1 M624.2,265.4l-25.1,0.1h-0.7l0,0.6c0.1,3.8,1.3,16.9,13,25.2l0.4,0.3l0.4-0.3
				c11.7-8.3,12.6-21.4,12.6-25.2v-0.6H624.2L624.2,265.4z"/>
		</defs>
		<clipPath id="XMLID_109_">
			<use xlink:href="#XMLID_95_"  style="overflow:visible;"/>
		</clipPath>
		
			<linearGradient id="polygon23373_1_" gradientUnits="userSpaceOnUse" x1="604.2741" y1="254.8977" x2="605.2741" y2="254.8977" gradientTransform="matrix(681.4617 58.182 -59.6193 665.0104 -395995.5 -204390.2031)">
			<stop  offset="0" style="stop-color:#F9D118"/>
			<stop  offset="9.530000e-02" style="stop-color:#F9D21B"/>
			<stop  offset="0.1547" style="stop-color:#FAD429"/>
			<stop  offset="0.2043" style="stop-color:#FAD73C"/>
			<stop  offset="0.2486" style="stop-color:#FBDC54"/>
			<stop  offset="0.2892" style="stop-color:#FDE370"/>
			<stop  offset="0.3266" style="stop-color:#FEEA8B"/>
			<stop  offset="0.3333" style="stop-color:#FFED90"/>
			<stop  offset="0.3588" style="stop-color:#FEEA8B"/>
			<stop  offset="0.3935" style="stop-color:#FEE77D"/>
			<stop  offset="0.4336" style="stop-color:#FBDF62"/>
			<stop  offset="0.4772" style="stop-color:#FAD636"/>
			<stop  offset="0.4967" style="stop-color:#F9D118"/>
			<stop  offset="0.6388" style="stop-color:#F2CB1D"/>
			<stop  offset="0.76" style="stop-color:#E1BD23"/>
			<stop  offset="0.8736" style="stop-color:#C8A72D"/>
			<stop  offset="0.9819" style="stop-color:#A68B30"/>
			<stop  offset="1" style="stop-color:#A0862F"/>
		</linearGradient>
		<polygon id="polygon23373_2_" class="st2" points="627.2,265.6 624.7,293.8 596.1,291.4 598.7,263.2 		"/>
	</g>
</g>
<g id="g23375_2_" transform="matrix(25.850643,0,0,25.850643,-15400.133,-6719.6936)">
	<g id="XMLID_90_">
		<defs>
			<rect id="XMLID_93_" x="-3870.9" y="-4162.1" width="9085.9" height="8910.5"/>
		</defs>
		<clipPath id="XMLID_110_">
			<use xlink:href="#XMLID_93_"  style="overflow:visible;"/>
		</clipPath>
		<path id="path23383_2_" class="st3" d="M601.2,264.1l-1,0l0-0.3l0.3,0l-0.3-0.7l-1.2,0l-0.3,0.7l0.3,0l0,0.3l-0.9,0v-0.3l0.3,0
			l0.9-2.3l-0.3,0v-0.3l0.7,0l1,2.6l0.3,0L601.2,264.1L601.2,264.1z M600.2,263l-0.5-1.4l-0.5,1.4L600.2,263L600.2,263z"/>
	</g>
	<g id="XMLID_86_">
		<defs>
			<rect id="XMLID_89_" x="-3870.9" y="-4162.1" width="9085.9" height="8910.5"/>
		</defs>
		<clipPath id="XMLID_111_">
			<use xlink:href="#XMLID_89_"  style="overflow:visible;"/>
		</clipPath>
		<path id="path23385_2_" class="st4" d="M601.2,264.1L601.2,264.1l-1,0.1l0-0.3v-0.1l0.3,0l-0.2-0.5l-1.1,0l-0.2,0.5l0.2,0h0.1
			l0,0.3v0.1l-1.1,0v-0.3v-0.1l0.3,0l0.9-2.1l-0.2,0h-0.1v-0.3v-0.1l0.8,0l1,2.6l0.3,0h0.1L601.2,264.1L601.2,264.1L601.2,264.1
			L601.2,264.1L601.2,264.1l-0.1-0.2l-0.2,0h-0.1l-1-2.6l-0.5,0v0.1l0.3,0l0.1,0l-1,2.5l-0.3,0v0.1l0.8,0v-0.1l-0.2,0h-0.1l0.3-0.8
			l1.3,0l0.3,0.8l-0.4,0l0,0.1L601.2,264.1L601.2,264.1L601.2,264.1L601.2,264.1L601.2,264.1z M600.2,263L600.2,263l-0.5-1.1l-0.4,1
			L600.2,263L600.2,263L600.2,263L600.2,263L600.2,263l-1.2,0.1l0.6-1.7l0.6,1.7L600.2,263L600.2,263z"/>
	</g>
	<g id="XMLID_84_">
		<defs>
			<rect id="XMLID_85_" x="-3870.9" y="-4162.1" width="9085.9" height="8910.5"/>
		</defs>
		<clipPath id="XMLID_112_">
			<use xlink:href="#XMLID_85_"  style="overflow:visible;"/>
		</clipPath>
		<polygon id="polygon23387_2_" class="st5" points="603.1,263.8 603.1,264.1 602.2,264.1 602.2,263.8 602.5,263.8 602.5,261.5 
			601.9,261.5 601.9,262 601.7,262 601.7,261.3 603.5,261.3 603.5,262 603.3,262 603.3,261.5 602.7,261.5 602.7,263.8 		"/>
	</g>
	<g id="XMLID_82_">
		<defs>
			<rect id="XMLID_83_" x="-3870.9" y="-4162.1" width="9085.9" height="8910.5"/>
		</defs>
		<clipPath id="XMLID_113_">
			<use xlink:href="#XMLID_83_"  style="overflow:visible;"/>
		</clipPath>
		<polygon id="polygon23389_2_" class="st6" points="602.8,261.6 602.8,263.8 603.1,263.8 603.2,263.8 603.2,264.1 603.2,264.2 
			602.1,264.2 602.1,263.8 602.1,263.8 602.4,263.8 602.4,261.6 602,261.6 602,262 602,262.1 601.7,262.1 601.6,262.1 601.6,261.2 
			603.6,261.2 603.6,262.1 603.5,262.1 603.5,262 603.4,262 603.4,261.4 601.8,261.4 601.8,262 601.8,262 601.8,261.5 601.8,261.5 
			602.5,261.5 602.6,261.5 602.6,263.9 602.2,263.9 602.2,264 603,264 603,263.9 602.7,263.9 602.7,263.9 602.7,261.5 603.3,261.4 
			603.4,261.4 603.4,261.9 603.5,261.9 603.5,262 603.4,262 603.5,262 603.5,262.1 603.3,262.1 603.2,262.1 603.2,261.6 		"/>
	</g>
	<g id="XMLID_80_">
		<defs>
			<rect id="XMLID_81_" x="-3870.9" y="-4162.1" width="9085.9" height="8910.5"/>
		</defs>
		<clipPath id="XMLID_114_">
			<use xlink:href="#XMLID_81_"  style="overflow:visible;"/>
		</clipPath>
		<polygon id="polygon23391_2_" class="st7" points="604.1,261.5 604.1,261.3 605,261.3 605,261.5 604.7,261.5 604.7,263.8 
			605.5,263.8 605.5,263.4 605.8,263.4 605.8,264.1 604.1,264.1 604.1,263.8 604.4,263.8 604.4,261.5 		"/>
	</g>
	<g id="XMLID_78_">
		<defs>
			<rect id="XMLID_79_" x="-3870.9" y="-4162.1" width="9085.9" height="8910.5"/>
		</defs>
		<clipPath id="XMLID_115_">
			<use xlink:href="#XMLID_79_"  style="overflow:visible;"/>
		</clipPath>
		<polygon id="polygon23393_2_" class="st8" points="604.3,263.8 604.3,261.6 604.1,261.6 604,261.6 604,261.3 604,261.2 
			605.1,261.2 605.1,261.5 605.1,261.6 604.7,261.6 604.7,263.8 605.4,263.8 605.4,263.4 605.4,263.3 605.8,263.3 605.9,263.3 
			605.9,264.2 605.8,264.2 605.8,264.1 605.7,264.1 605.7,263.4 605.6,263.4 605.6,263.8 605.6,263.9 604.6,263.9 604.6,261.4 
			604.9,261.4 604.9,261.3 604.1,261.3 604.1,261.4 604.4,261.4 604.5,261.4 604.5,263.9 604.2,263.9 604.2,264 605.8,264 
			605.8,264.1 605.7,264.1 605.8,264.1 605.8,264.2 604,264.2 604,263.8 604,263.8 		"/>
	</g>
	<g id="XMLID_74_">
		<defs>
			<rect id="XMLID_77_" x="-3870.9" y="-4162.1" width="9085.9" height="8910.5"/>
		</defs>
		<clipPath id="XMLID_116_">
			<use xlink:href="#XMLID_77_"  style="overflow:visible;"/>
		</clipPath>
		<path id="path23395_2_" class="st9" d="M609.2,264.1l-1,0l0-0.3h0.3l-0.3-0.7l-1.2,0l-0.3,0.7l0.3,0l0,0.3l-0.9,0l0-0.3l0.3,0
			l0.9-2.3l-0.3,0l0-0.3l0.7,0l1,2.6l0.3,0V264.1L609.2,264.1z M608.3,262.9l-0.5-1.4l-0.5,1.4L608.3,262.9z"/>
	</g>
	<g id="XMLID_70_">
		<defs>
			<rect id="XMLID_73_" x="-3870.9" y="-4162.1" width="9085.9" height="8910.5"/>
		</defs>
		<clipPath id="XMLID_117_">
			<use xlink:href="#XMLID_73_"  style="overflow:visible;"/>
		</clipPath>
		<path id="path23397_2_" class="st10" d="M609.2,264.1L609.2,264.1l-1,0.1l0-0.3v-0.1h0.3l-0.2-0.5l-1.1,0l-0.2,0.5l0.2,0h0.1
			l0,0.3v0.1l-1.1,0l0-0.3l0-0.1l0.4,0l0.9-2.1h-0.2h-0.1l0-0.3v-0.1l0.8,0l1,2.6l0.3,0h0.1L609.2,264.1L609.2,264.1L609.2,264.1
			L609.2,264.1L609.2,264.1l-0.1-0.2l-0.2,0h-0.1l-1-2.6l-0.5,0l0,0.1l0.3,0h0.1l-1,2.5l-0.3,0v0.1l0.8,0l0-0.1l-0.2,0h-0.1l0.3-0.8
			l1.3,0l0.3,0.8h-0.4l0,0.1L609.2,264.1L609.2,264.1L609.2,264.1L609.2,264.1L609.2,264.1z M608.3,262.9L608.3,262.9l-0.5-1.1
			l-0.4,1L608.3,262.9L608.3,262.9L608.3,262.9L608.3,262.9L608.3,262.9l-1.2,0.1l0.6-1.7l0.6,1.7L608.3,262.9L608.3,262.9
			L608.3,262.9z"/>
	</g>
	<g id="XMLID_68_">
		<defs>
			<rect id="XMLID_69_" x="-3870.9" y="-4162.1" width="9085.9" height="8910.5"/>
		</defs>
		<clipPath id="XMLID_118_">
			<use xlink:href="#XMLID_69_"  style="overflow:visible;"/>
		</clipPath>
		<polygon id="polygon23399_2_" class="st11" points="610.4,263.8 610.7,263.8 610.7,264.1 609.8,264.1 609.8,263.8 610.1,263.8 
			610.1,261.5 609.8,261.5 609.8,261.2 610.4,261.2 611.9,263.6 611.9,261.5 611.6,261.5 611.6,261.2 612.5,261.2 612.5,261.5 
			612.2,261.5 612.2,264.1 611.9,264.1 610.4,261.7 		"/>
	</g>
	<g id="XMLID_66_">
		<defs>
			<rect id="XMLID_67_" x="-3870.9" y="-4162.1" width="9085.9" height="8910.5"/>
		</defs>
		<clipPath id="XMLID_119_">
			<use xlink:href="#XMLID_67_"  style="overflow:visible;"/>
		</clipPath>
		<polygon id="polygon23401_2_" class="st12" points="611.9,264.2 610.5,262 610.5,263.7 610.7,263.7 610.8,263.7 610.8,264.1 
			610.8,264.2 609.7,264.2 609.7,263.8 609.7,263.7 610,263.7 610,261.6 609.8,261.6 609.7,261.6 609.7,261.2 609.7,261.2 
			610.4,261.2 610.4,261.2 611.9,263.3 611.8,261.6 611.6,261.6 611.5,261.6 611.5,261.2 611.5,261.2 612.6,261.2 612.6,261.5 
			612.6,261.6 612.5,261.6 612.5,261.5 612.4,261.5 612.4,261.3 611.7,261.3 611.7,261.4 611.9,261.4 612,261.4 612,263.9 
			610.3,261.3 609.9,261.3 609.9,261.4 610.1,261.4 610.2,261.4 610.2,263.9 609.9,263.9 609.9,264 610.6,264 610.6,263.9 
			610.4,263.9 610.3,263.9 610.3,261.4 612,264 612.1,264 612.1,261.4 612.5,261.4 612.5,261.5 612.4,261.5 612.5,261.5 
			612.5,261.6 612.3,261.6 612.3,264.2 611.9,264.2 		"/>
	</g>
	<g id="XMLID_64_">
		<defs>
			<rect id="XMLID_65_" x="-3870.9" y="-4162.1" width="9085.9" height="8910.5"/>
		</defs>
		<clipPath id="XMLID_120_">
			<use xlink:href="#XMLID_65_"  style="overflow:visible;"/>
		</clipPath>
		<polygon id="polygon23403_2_" class="st13" points="614.4,263.8 614.4,264.1 613.5,264.1 613.5,263.8 613.9,263.8 613.8,261.5 
			613.3,261.5 613.3,262 613.1,262 613.1,261.2 614.9,261.2 614.9,262 614.7,262 614.7,261.5 614.1,261.5 614.1,263.8 		"/>
	</g>
	<g id="XMLID_62_">
		<defs>
			<rect id="XMLID_63_" x="-3870.9" y="-4162.1" width="9085.9" height="8910.5"/>
		</defs>
		<clipPath id="XMLID_121_">
			<use xlink:href="#XMLID_63_"  style="overflow:visible;"/>
		</clipPath>
		<polygon id="polygon23405_2_" class="st14" points="614.2,261.6 614.2,263.7 614.4,263.7 614.5,263.7 614.5,264.1 614.5,264.2 
			613.4,264.2 613.4,263.8 613.4,263.7 613.8,263.7 613.8,261.6 613.4,261.6 613.4,262 613.4,262.1 613.1,262.1 613,262.1 
			613,261.2 615,261.2 615,262.1 614.9,262.1 614.9,262 614.8,262 614.8,261.3 613.1,261.3 613.1,261.9 613.2,261.9 613.2,261.5 
			613.2,261.4 613.8,261.4 613.9,261.4 613.9,263.9 613.6,263.9 613.6,264 614.4,264 614.4,263.9 614.1,263.9 614,263.9 614,261.4 
			614.7,261.4 614.8,261.4 614.8,261.9 614.9,261.9 614.9,262 614.8,262 614.9,262 614.9,262.1 614.7,262.1 614.6,262.1 
			614.6,261.6 		"/>
	</g>
	<g id="XMLID_60_">
		<defs>
			<rect id="XMLID_61_" x="-3870.9" y="-4162.1" width="9085.9" height="8910.5"/>
		</defs>
		<clipPath id="XMLID_122_">
			<use xlink:href="#XMLID_61_"  style="overflow:visible;"/>
		</clipPath>
		<polygon id="polygon23407_2_" class="st15" points="615.4,261.5 615.4,261.2 616.4,261.2 616.4,261.5 616,261.5 616,263.8 
			616.4,263.8 616.4,264.1 615.4,264.1 615.4,263.8 615.8,263.8 615.8,261.5 		"/>
	</g>
	<g id="XMLID_58_">
		<defs>
			<rect id="XMLID_59_" x="-3870.9" y="-4162.1" width="9085.9" height="8910.5"/>
		</defs>
		<clipPath id="XMLID_123_">
			<use xlink:href="#XMLID_59_"  style="overflow:visible;"/>
		</clipPath>
		<polygon id="polygon23409_2_" class="st16" points="615.7,263.7 615.7,261.6 615.4,261.6 615.3,261.6 615.3,261.2 615.3,261.1 
			616.4,261.1 616.4,261.5 616.4,261.6 616.1,261.6 616.1,263.7 616.4,263.7 616.4,263.7 616.4,264.1 616.4,264.1 616.4,264.1 
			616.4,264.1 616.3,264.1 616.3,263.9 616,263.9 615.9,263.9 615.9,261.4 616.3,261.4 616.3,261.3 615.5,261.3 615.5,261.4 
			615.8,261.4 615.8,261.4 615.9,263.9 615.5,263.9 615.5,264 616.4,264 616.4,264.1 616.3,264.1 616.4,264.1 616.4,264.1 
			615.4,264.2 615.4,263.8 615.4,263.7 		"/>
	</g>
	<g id="XMLID_53_">
		<defs>
			<rect id="XMLID_57_" x="-3870.9" y="-4162.1" width="9085.9" height="8910.5"/>
		</defs>
		<clipPath id="XMLID_124_">
			<use xlink:href="#XMLID_57_"  style="overflow:visible;"/>
		</clipPath>
		<path id="path23411_2_" class="st17" d="M619.9,264.1c-0.3,0-0.6-0.1-0.8-0.3c-0.2,0.2-0.5,0.3-0.8,0.3c-0.4,0-0.7-0.1-1-0.4
			c-0.3-0.3-0.4-0.6-0.4-1.1c0-0.4,0.1-0.8,0.4-1c0.3-0.3,0.6-0.4,1-0.4c0.4,0,0.7,0.1,1,0.4c0.3,0.3,0.4,0.6,0.4,1
			c0,0.4-0.1,0.8-0.4,1.1c0.2,0.1,0.3,0.2,0.5,0.2l0-0.3h0.2L619.9,264.1z M619.4,262.6c0-0.3-0.1-0.6-0.3-0.9
			c-0.2-0.2-0.5-0.4-0.8-0.4c-0.3,0-0.6,0.1-0.8,0.4c-0.2,0.2-0.3,0.5-0.3,0.8c0,0.1,0,0.2,0.1,0.3c0.2-0.1,0.4-0.1,0.6-0.1
			c0.2,0,0.5,0.1,0.7,0.2c0.2,0.1,0.4,0.3,0.6,0.5C619.2,263.3,619.4,263,619.4,262.6 M618.8,263.6c-0.2-0.2-0.4-0.3-0.5-0.4
			c-0.2-0.1-0.4-0.2-0.6-0.2c-0.2,0-0.3,0-0.5,0.1c0.1,0.2,0.2,0.4,0.4,0.5c0.2,0.1,0.4,0.2,0.6,0.2
			C618.5,263.8,618.7,263.8,618.8,263.6"/>
	</g>
	<g id="XMLID_48_">
		<defs>
			<rect id="XMLID_52_" x="-3870.9" y="-4162.1" width="9085.9" height="8910.5"/>
		</defs>
		<clipPath id="XMLID_125_">
			<use xlink:href="#XMLID_52_"  style="overflow:visible;"/>
		</clipPath>
		<path id="path23413_2_" class="st18" d="M619.9,264.1L619.9,264.1L619.9,264.1c-0.3,0.1-0.6,0-0.9-0.2l0.1-0.1l0.1,0.1
			c-0.3,0.2-0.5,0.3-0.8,0.3h0c-0.4,0-0.7-0.2-1-0.5c-0.3-0.3-0.4-0.7-0.4-1.1v0v0v0c0-0.4,0.1-0.8,0.4-1.1c0.3-0.3,0.6-0.5,1-0.5h0
			c0.4,0,0.7,0.2,1,0.5c0.3,0.3,0.4,0.7,0.4,1.1v0c0,0.4-0.1,0.8-0.4,1.1l-0.1-0.1l0.1-0.1c0.1,0.1,0.3,0.2,0.4,0.2l0,0.1h-0.1
			l0-0.3v-0.1h0.3h0.1L619.9,264.1L619.9,264.1L619.9,264.1L619.9,264.1L619.9,264.1l-0.1-0.5h0l0,0.2v0.1l-0.1,0
			c-0.2,0-0.3-0.1-0.5-0.2l-0.1-0.1l0.1-0.1c0.3-0.3,0.4-0.6,0.4-1v0c0-0.4-0.1-0.7-0.4-1c-0.3-0.3-0.6-0.4-0.9-0.4h0
			c-0.3,0-0.6,0.1-0.9,0.4c-0.2,0.3-0.4,0.6-0.4,1v0c0,0.4,0.1,0.7,0.4,1c0.3,0.3,0.5,0.4,0.9,0.4h0c0.3,0,0.5-0.1,0.7-0.3l0.1,0
			l0.1,0C619.3,264,619.6,264,619.9,264.1L619.9,264.1L619.9,264.1L619.9,264.1L619.9,264.1L619.9,264.1z M619.4,262.6L619.4,262.6
			c-0.1-0.3-0.2-0.6-0.4-0.8h0c-0.2-0.2-0.4-0.3-0.7-0.3h0c-0.3,0-0.5,0.1-0.7,0.3c-0.2,0.2-0.3,0.5-0.3,0.8v0v0
			c0,0.1,0,0.2,0.1,0.3l-0.1,0l0-0.1c0.2-0.1,0.4-0.1,0.6-0.1h0c0.2,0,0.5,0.1,0.7,0.2c0.2,0.1,0.4,0.3,0.6,0.5l-0.1,0.1l-0.1-0.1
			C619.2,263.2,619.3,263,619.4,262.6L619.4,262.6L619.4,262.6L619.4,262.6L619.4,262.6c0.1,0.4,0,0.7-0.3,0.9l-0.1,0.1l-0.1-0.1
			c-0.2-0.2-0.4-0.4-0.5-0.4c-0.2-0.1-0.4-0.2-0.6-0.2h0h0c-0.2,0-0.3,0-0.5,0.1l-0.1,0l0-0.1c0-0.1-0.1-0.2-0.1-0.3v0
			c0-0.3,0.1-0.6,0.3-0.9c0.2-0.2,0.5-0.4,0.8-0.4h0c0.3,0,0.6,0.1,0.8,0.4v0C619.3,262,619.4,262.3,619.4,262.6L619.4,262.6
			L619.4,262.6L619.4,262.6z M618.8,263.6L618.8,263.6c-0.3-0.1-0.4-0.3-0.5-0.3l0-0.1l0,0.1c-0.2-0.1-0.3-0.2-0.5-0.2h0
			c-0.2,0-0.3,0-0.5,0.1l0-0.1l0.1,0c0.1,0.2,0.2,0.3,0.4,0.4c0.2,0.1,0.3,0.2,0.5,0.2h0C618.5,263.7,618.6,263.7,618.8,263.6
			L618.8,263.6L618.8,263.6L618.8,263.6L618.8,263.6c-0.1,0.2-0.3,0.3-0.6,0.3h0h0c-0.2,0-0.4-0.1-0.6-0.2c-0.2-0.1-0.3-0.3-0.4-0.5
			l0-0.1l0.1,0c0.2-0.1,0.3-0.1,0.5-0.1h0c0.2,0,0.4,0.1,0.6,0.2l0,0C618.5,263.2,618.7,263.4,618.8,263.6l0.1,0L618.8,263.6
			L618.8,263.6L618.8,263.6z"/>
	</g>
	<g id="XMLID_46_">
		<defs>
			<rect id="XMLID_47_" x="-3870.9" y="-4162.1" width="9085.9" height="8910.5"/>
		</defs>
		<clipPath id="XMLID_126_">
			<use xlink:href="#XMLID_47_"  style="overflow:visible;"/>
		</clipPath>
		<path id="path23415_2_" class="st19" d="M622.8,261.5l-0.3,0l0,1.6c0,0.3-0.1,0.5-0.2,0.7c-0.2,0.2-0.4,0.3-0.6,0.3
			c-0.3,0-0.5-0.1-0.6-0.3c-0.1-0.2-0.2-0.4-0.2-0.7l0-1.6l-0.3,0l0-0.3l0.9,0l0,0.3H621l0,1.6c0,0.5,0.2,0.8,0.6,0.8
			c0.4,0,0.6-0.3,0.6-0.8l0-1.6l-0.3,0l0-0.3l0.9,0L622.8,261.5L622.8,261.5z"/>
	</g>
	<g id="XMLID_44_">
		<defs>
			<rect id="XMLID_45_" x="-3870.9" y="-4162.1" width="9085.9" height="8910.5"/>
		</defs>
		<clipPath id="XMLID_127_">
			<use xlink:href="#XMLID_45_"  style="overflow:visible;"/>
		</clipPath>
		<path id="path23417_2_" class="st20" d="M622.8,261.5L622.8,261.5l-0.2,0.1l0,1.6v0c0,0.3-0.1,0.6-0.2,0.8
			c-0.2,0.2-0.4,0.3-0.7,0.3h0c-0.3,0-0.5-0.1-0.7-0.3c-0.2-0.2-0.2-0.5-0.2-0.8l0-1.5h-0.2l-0.1,0l0-0.3v-0.1l1.1,0l0,0.3v0.1h-0.3
			l0,1.5v0c0,0.2,0,0.4,0.1,0.5c0.1,0.1,0.2,0.2,0.4,0.2h0c0.2,0,0.3-0.1,0.4-0.2c0.1-0.1,0.1-0.3,0.1-0.5v0l0-1.5l-0.2,0h-0.1
			l0-0.3v-0.1l1.1,0L622.8,261.5L622.8,261.5L622.8,261.5L622.8,261.5L622.8,261.5l-0.1-0.2l-0.7,0v0.1h0.2h0.1l0,1.6v0
			c0,0.3,0,0.5-0.2,0.6c-0.1,0.2-0.3,0.2-0.5,0.2h0c-0.2,0-0.4-0.1-0.5-0.2s-0.2-0.4-0.2-0.6l0-1.6h0.3v-0.1l-0.7,0v0.1l0.2,0h0.1
			l0,1.7c0,0.3,0.1,0.5,0.2,0.7c0.1,0.2,0.3,0.3,0.6,0.3h0h0c0.2,0,0.4-0.1,0.6-0.3c0.1-0.2,0.2-0.4,0.2-0.7v0l0-1.7L622.8,261.5
			L622.8,261.5L622.8,261.5L622.8,261.5L622.8,261.5z"/>
	</g>
	<g id="XMLID_42_">
		<defs>
			<rect id="XMLID_43_" x="-3870.9" y="-4162.1" width="9085.9" height="8910.5"/>
		</defs>
		<clipPath id="XMLID_128_">
			<use xlink:href="#XMLID_43_"  style="overflow:visible;"/>
		</clipPath>
		<polygon id="polygon23419_2_" class="st21" points="623.3,261.5 623.3,261.2 625.1,261.2 625.1,261.9 624.9,261.9 624.9,261.5 
			623.9,261.5 623.9,262.5 624.9,262.5 624.9,262.7 623.9,262.7 623.9,263.8 624.9,263.8 624.9,263.3 625.1,263.3 625.1,264 
			623.3,264 623.3,263.8 623.6,263.8 623.6,261.5 		"/>
	</g>
	<g id="XMLID_40_">
		<defs>
			<rect id="XMLID_41_" x="-3870.9" y="-4162.1" width="9085.9" height="8910.5"/>
		</defs>
		<clipPath id="XMLID_129_">
			<use xlink:href="#XMLID_41_"  style="overflow:visible;"/>
		</clipPath>
		<polygon id="polygon23421_2_" class="st22" points="623.6,263.7 623.6,261.6 623.3,261.6 623.2,261.6 623.2,261.2 623.2,261.1 
			625.2,261.1 625.2,262 624.9,262 624.8,262 624.8,261.5 624,261.5 624,262.4 625,262.4 625,262.7 625,262.8 624,262.8 624,263.7 
			624.8,263.7 624.8,263.3 624.8,263.2 625.1,263.2 625.2,263.2 625.2,264.1 625.1,264.1 625.1,264 625.1,264 625.1,263.4 
			625,263.4 625,263.8 625,263.9 623.8,263.9 623.8,262.6 624.8,262.6 624.8,262.6 623.8,262.6 623.8,261.4 625,261.4 625,261.8 
			625.1,261.8 625,261.3 623.4,261.3 623.4,261.4 623.6,261.4 623.7,261.4 623.7,263.9 623.4,263.9 623.4,264 625.1,264 625.1,264 
			625.1,264 625.1,264 625.1,264.1 623.2,264.1 623.2,263.8 623.2,263.7 		"/>
	</g>
	<g id="XMLID_38_">
		<defs>
			<rect id="XMLID_39_" x="-3870.9" y="-4162.1" width="9085.9" height="8910.5"/>
		</defs>
		<clipPath id="XMLID_130_">
			<use xlink:href="#XMLID_39_"  style="overflow:visible;"/>
		</clipPath>
		<path id="path23423_2_" class="st23" d="M600.6,267.8l0-0.5c0-0.2,0-0.3-0.1-0.3c-0.1,0-0.1,0.1-0.1,0.3l0,0.2
			c0,0.3,0.2,0.4,0.4,0.6c0.3,0.3,0.6,0.5,0.6,0.9l0,0.3c0,0.6-0.2,0.9-0.8,0.9c-0.6,0-0.8-0.3-0.8-0.9l0-0.5l0.6,0l0,0.7
			c0,0.2,0,0.3,0.1,0.3c0.1,0,0.1-0.1,0.1-0.3l0-0.3c0-0.4-0.1-0.5-0.4-0.8c-0.3-0.3-0.5-0.4-0.5-0.9v-0.2c0-0.4,0.3-0.7,0.8-0.7
			c0.6,0,0.8,0.3,0.8,0.9l0,0.3L600.6,267.8L600.6,267.8z"/>
	</g>
	<g id="XMLID_36_">
		<defs>
			<rect id="XMLID_37_" x="-3870.9" y="-4162.1" width="9085.9" height="8910.5"/>
		</defs>
		<clipPath id="XMLID_131_">
			<use xlink:href="#XMLID_37_"  style="overflow:visible;"/>
		</clipPath>
		<polygon id="polygon23425_2_" class="st24" points="602.4,267.1 602.4,270.1 601.8,270.1 601.8,267.1 601.5,267.1 601.5,266.7 
			602.8,266.7 602.8,267.1 		"/>
	</g>
	<g id="XMLID_32_">
		<defs>
			<rect id="XMLID_35_" x="-3870.9" y="-4162.1" width="9085.9" height="8910.5"/>
		</defs>
		<clipPath id="XMLID_132_">
			<use xlink:href="#XMLID_35_"  style="overflow:visible;"/>
		</clipPath>
		<path id="path23427_2_" class="st25" d="M603.7,269.4l-0.3,0l0,0.7l-0.6,0l0-0.7c0-1.2,0.1-2.1,0.4-2.8l0.7,0
			c0.3,0.6,0.4,1.5,0.4,2.8l0,0.7l-0.6,0L603.7,269.4L603.7,269.4z M603.5,269l0.3,0c0-0.7,0-1.3-0.1-1.8
			C603.5,267.7,603.5,268.3,603.5,269"/>
	</g>
	<g id="XMLID_28_">
		<defs>
			<rect id="XMLID_31_" x="-3870.9" y="-4162.1" width="9085.9" height="8910.5"/>
		</defs>
		<clipPath id="XMLID_133_">
			<use xlink:href="#XMLID_31_"  style="overflow:visible;"/>
		</clipPath>
		<path id="path23429_2_" class="st26" d="M605.4,266.7c0.6,0,0.8,0.2,0.8,0.7l0,2c0,0.5-0.2,0.7-0.8,0.7l-0.7,0l0-3.4L605.4,266.7
			L605.4,266.7z M605.6,267.4c0-0.2,0-0.3-0.2-0.3h0l0,2.6h0c0.2,0,0.2-0.1,0.2-0.3L605.6,267.4L605.6,267.4z"/>
	</g>
	<g id="XMLID_26_">
		<defs>
			<rect id="XMLID_27_" x="-3870.9" y="-4162.1" width="9085.9" height="8910.5"/>
		</defs>
		<clipPath id="XMLID_134_">
			<use xlink:href="#XMLID_27_"  style="overflow:visible;"/>
		</clipPath>
		<polygon id="polygon23431_2_" class="st27" points="607.8,267.9 607.8,268.3 607.2,268.3 607.2,269.7 607.9,269.6 607.9,270.1 
			606.6,270.1 606.6,266.7 607.8,266.7 607.8,267.1 607.2,267.1 607.2,267.9 		"/>
	</g>
	<g id="XMLID_22_">
		<defs>
			<rect id="XMLID_25_" x="-3870.9" y="-4162.1" width="9085.9" height="8910.5"/>
		</defs>
		<clipPath id="XMLID_135_">
			<use xlink:href="#XMLID_25_"  style="overflow:visible;"/>
		</clipPath>
		<path id="path23433_2_" class="st28" d="M609,266.7l0.7,0c0.6,0,0.9,0.1,0.9,0.6l0,0.5c0,0.3,0,0.5-0.2,0.5l0.2,1.8l-0.6,0
			l-0.2-1.7h-0.1l0,1.7l-0.6,0L609,266.7L609,266.7z M609.9,267.3c0-0.2,0-0.2-0.2-0.2h0l0,0.9h0c0.2,0,0.2-0.1,0.2-0.2L609.9,267.3
			L609.9,267.3z"/>
	</g>
	<g id="XMLID_18_">
		<defs>
			<rect id="XMLID_21_" x="-3870.9" y="-4162.1" width="9085.9" height="8910.5"/>
		</defs>
		<clipPath id="XMLID_136_">
			<use xlink:href="#XMLID_21_"  style="overflow:visible;"/>
		</clipPath>
		<path id="path23435_2_" class="st29" d="M611.6,266.6c0.6,0,0.8,0.3,0.8,0.9l0,1.8c0,0.6-0.2,0.9-0.8,0.9c-0.6,0-0.8-0.3-0.8-0.9
			l0-1.8C610.8,266.9,611,266.6,611.6,266.6 M611.6,269.7c0.1,0,0.1-0.1,0.1-0.3l0-2.2c0-0.2,0-0.3-0.1-0.3c-0.1,0-0.1,0.1-0.1,0.3
			l0,2.2C611.5,269.6,611.5,269.7,611.6,269.7"/>
	</g>
	<g id="XMLID_16_">
		<defs>
			<rect id="XMLID_17_" x="-3870.9" y="-4162.1" width="9085.9" height="8910.5"/>
		</defs>
		<clipPath id="XMLID_137_">
			<use xlink:href="#XMLID_17_"  style="overflow:visible;"/>
		</clipPath>
		<path id="path23437_2_" class="st30" d="M614.2,267.7l-0.6,0l0-0.5c0-0.2,0-0.3-0.1-0.3c-0.1,0-0.1,0.1-0.1,0.3l0,2.2
			c0,0.2,0,0.3,0.1,0.3c0.1,0,0.1-0.1,0.1-0.3l0-0.7l0.6,0l0,0.5c0,0.6-0.2,0.9-0.8,0.9c-0.6,0-0.8-0.3-0.8-0.9l0-1.8
			c0-0.6,0.1-0.9,0.8-0.9c0.6,0,0.8,0.3,0.8,0.9L614.2,267.7L614.2,267.7z"/>
	</g>
	<g id="XMLID_14_">
		<defs>
			<rect id="XMLID_15_" x="-3870.9" y="-4162.1" width="9085.9" height="8910.5"/>
		</defs>
		<clipPath id="XMLID_138_">
			<use xlink:href="#XMLID_15_"  style="overflow:visible;"/>
		</clipPath>
		<polygon id="polygon23439_2_" class="st31" points="616,266.6 616,270 615.4,270 615.4,268.3 615.1,268.3 615.1,270 614.5,270 
			614.5,266.6 615.1,266.6 615.1,267.9 615.4,267.9 615.4,266.6 		"/>
	</g>
	<g id="XMLID_12_">
		<defs>
			<rect id="XMLID_13_" x="-3870.9" y="-4162.1" width="9085.9" height="8910.5"/>
		</defs>
		<clipPath id="XMLID_139_">
			<use xlink:href="#XMLID_13_"  style="overflow:visible;"/>
		</clipPath>
		<polygon id="polygon23441_2_" class="st32" points="617.6,267.9 617.6,268.3 617,268.3 617,269.6 617.7,269.6 617.7,270 
			616.4,270 616.4,266.6 617.7,266.6 617.7,267 617,267 617,267.9 		"/>
	</g>
	<g id="XMLID_10_">
		<defs>
			<rect id="XMLID_11_" x="-3870.9" y="-4162.1" width="9085.9" height="8910.5"/>
		</defs>
		<clipPath id="XMLID_140_">
			<use xlink:href="#XMLID_11_"  style="overflow:visible;"/>
		</clipPath>
		<polygon id="polygon23443_2_" class="st33" points="617.9,270 617.9,266.6 618.6,266.6 618.6,269.6 619.2,269.6 619.2,270 		"/>
	</g>
	<g id="XMLID_6_">
		<defs>
			<rect id="XMLID_9_" x="-3870.9" y="-4162.1" width="9085.9" height="8910.5"/>
		</defs>
		<clipPath id="XMLID_141_">
			<use xlink:href="#XMLID_9_"  style="overflow:visible;"/>
		</clipPath>
		<path id="path23445_2_" class="st34" d="M620.2,269.4H620l0,0.7l-0.6,0l0-0.7c0-1.2,0.1-2.1,0.4-2.8l0.7,0
			c0.3,0.6,0.4,1.5,0.4,2.8l0,0.7l-0.6,0L620.2,269.4L620.2,269.4z M619.9,269l0.3,0c0-0.7,0-1.3-0.1-1.8
			C620,267.7,619.9,268.2,619.9,269"/>
	</g>
	<g id="XMLID_4_">
		<defs>
			<rect id="XMLID_5_" x="-3870.9" y="-4162.1" width="9085.9" height="8910.5"/>
		</defs>
		<clipPath id="XMLID_142_">
			<use xlink:href="#XMLID_5_"  style="overflow:visible;"/>
		</clipPath>
		<rect id="rect23447_2_" x="621.2" y="266.6" class="st35" width="0.6" height="3.4"/>
	</g>
	<g id="XMLID_2_">
		<defs>
			<rect id="XMLID_3_" x="-3870.9" y="-4162.1" width="9085.9" height="8910.5"/>
		</defs>
		<clipPath id="XMLID_143_">
			<use xlink:href="#XMLID_3_"  style="overflow:visible;"/>
		</clipPath>
		<path id="path23449_2_" class="st36" d="M623.1,267.7l0-0.5c0-0.2,0-0.3-0.1-0.3c-0.1,0-0.1,0.1-0.1,0.3l0,0.2
			c0,0.3,0.2,0.4,0.4,0.6c0.3,0.3,0.6,0.5,0.6,0.9l0,0.3c0,0.6-0.2,0.9-0.8,0.9c-0.6,0-0.8-0.3-0.8-0.9l0-0.5l0.6,0l0,0.7
			c0,0.2,0,0.3,0.1,0.3c0.1,0,0.1-0.1,0.1-0.3l0-0.3c0-0.4-0.1-0.5-0.4-0.8c-0.3-0.3-0.5-0.4-0.5-0.9v-0.2c0-0.4,0.3-0.7,0.8-0.7
			c0.6,0,0.8,0.3,0.8,0.9v0.3L623.1,267.7L623.1,267.7z"/>
	</g>
</g>
</svg>
