<?xml version="1.0" encoding="utf-8"?>
<!-- Generator: Adobe Illustrator 19.0.0, SVG Export Plug-In . SVG Version: 6.00 Build 0)  -->
<svg version="1.1" id="Layer_1" xmlns="http://www.w3.org/2000/svg" xmlns:xlink="http://www.w3.org/1999/xlink" x="0px" y="0px"
	 viewBox="0 0 400 400" style="enable-background:new 0 0 400 400;" xml:space="preserve">
<style type="text/css">
	.st0{fill-rule:evenodd;clip-rule:evenodd;fill:#EF3E33;}
	.st1{fill-rule:evenodd;clip-rule:evenodd;}
</style>
<g>
	<path class="st0" d="M198.3,11.2h-0.7l-0.7,0.2C155.8,22.9,85.1,39,70.5,33.2l-10.3-4.1l3.6,10.5c0,0.1,2.1,6.5,2.1,18
		c0,11.7-2.1,28.6-10.7,49.7c-25.8,63.6-28.7,99-28.7,111.7c0,2.7,0.1,4.1,0.2,4.8c-0.1,0.7-0.2,2.3-0.2,4.9
		c0,15.5,4.8,60.8,56.4,96.6c31.2,21.6,46.1,28,62,34.7c13.2,5.6,26.8,11.4,51.5,26.2l2.6,1.6l3-1.4c24.9-15,38.5-20.8,51.8-26.4
		c15.8-6.7,30.7-13.1,61.9-34.7c51.7-35.8,56.4-81,56.4-96.6c0-2.6-0.1-4.1-0.2-4.9c0.1-0.7,0.2-2.1,0.2-4.8
		c0-12.7-2.9-48.1-28.7-111.7c-8.5-21.1-10.7-38-10.7-49.7c0-11.5,2.1-17.9,2.1-18l3.6-10.5l-10.3,4.1C313.7,39,243,22.9,201.8,11.4
		l-0.7-0.2h-0.7H198.3L198.3,11.2z M199.8,21.4c12.2,3.4,92.2,25.2,123.8,22.8c-0.5,3.5-1,7.8-1,13.5c0,12.8,2.4,31,11.5,53.5
		c25.5,62.8,27.9,97.3,27.9,108.2c0,2.5-0.1,3.8-0.1,3.8l-0.1,0.6l0.1,0.6c0,0.3,0.2,1.9,0.2,4.5c0,13.6-4.2,54.9-52,88.1
		c-30.4,21-44.2,26.9-60.1,33.7c-12.4,5.3-26.6,11.4-50.4,25.5c-23.8-14.2-38-20.2-50.4-25.5c-16-6.8-29.8-12.7-60.1-33.7
		c-47.8-33.1-52-74.5-52-88.1c0-2.5,0.1-4.1,0.2-4.5l0.1-0.6l-0.1-0.6c0-0.1-0.1-1.3-0.1-3.8c0-10.9,2.4-45.4,27.9-108.2
		c9.1-22.5,11.5-40.7,11.5-53.5c0-5.6-0.5-10-1-13.5c31.6,2.4,111.6-19.4,123.8-22.8C199.3,21.4,199.4,21.4,199.8,21.4L199.8,21.4z"
		/>
	<path class="st0" d="M220.5,136.9l30.2-2.4c0,0-1.4,21,18.6,24.5c0,0,7.9-14.1,25.9-14.1c17.9,0,20.7,20.7,20.7,20.7
		s-1.7,22.8-28.3,22.8l-15.9-2.1l-51.2-20.4V136.9L220.5,136.9z"/>
	<path class="st0" d="M180.7,139.3v16.2c0,0-43.1-3.1-43.1,26.9c0,30,46.6,22.1,46.6,22.1H260l13.5,5.2c0,0,49.3,31.7,49.3,40
		c0,0-25.2,41.7-102.1,50.4l0.3-26.2c0,0,38.3-1.4,35.5-22.4c0,0,1.7-18.6-29.3-18.6l-56.6-0.7c0,0-59.7-5.9-72.4-19.7
		c-12.8-13.8-17.9-22.8-17.9-22.8l7.2-14.5c0,0,19-21.4,37.9-29C125.5,146.2,151,138.3,180.7,139.3L180.7,139.3z"/>
	<path class="st0" d="M180.7,299.3l-17.6-3.4c0,0-23.5-12.4-27.6-15.9c0,0-7.9,3.8-21,1.7c0,0-4.1-0.7-8.3-14.1c0,0,0.3-9-9.7-9.7
		c0,0-13.1-0.7-13.8-16.9c0,0-0.7-15.5,19.3-17.2c0,0,10-1.4,21.4,13.8c0,0,12.8,19.7,27.2,26.2c0,0,5.9,5.9,30,11.4V299.3
		L180.7,299.3z"/>
	<path class="st1" d="M302.6,91c-12.1,0-18,7-14.2,13.2l-2,0.5c-9.3-1.4-12.2-10.9-12.9-21.2c-13.5-1-18.3-5.9-20.7-14.9
		c-17.2,21.4-36,22.1-53.1,22.1c-17.1,0-35.8-0.7-53.1-22.1c-2.4,9-7.2,13.9-20.7,14.9c-0.7,10.3-3.6,19.8-12.9,21.2l-2-0.5
		C115,98,109.1,91,97.1,91c-12.1,0-17.6,14.6-17.6,26.3c0,11.7,13,27.3,31.9,27.3c19,0,27.8-4.2,36.1-31.8h32.1h0.7v90.7h40v-90.7
		h31.9c8.3,27.6,17.1,31.8,36.1,31.8c19,0,31.9-15.6,31.9-27.3C320.2,105.6,314.6,91,302.6,91L302.6,91z"/>
	<path class="st1" d="M179.8,231.7h41.6v74.5l10.7,11v24.7c0,0-16-7.8-30.9-7.8c-14.8,0-31.9,7.4-31.9,7.4v-22.8l10.5-11.4V231.7
		L179.8,231.7z"/>
</g>
</svg>
