<?xml version="1.0" encoding="utf-8"?>
<!-- Generator: Adobe Illustrator 19.0.0, SVG Export Plug-In . SVG Version: 6.00 Build 0)  -->
<svg version="1.1" id="Layer_1" xmlns="http://www.w3.org/2000/svg" xmlns:xlink="http://www.w3.org/1999/xlink" x="0px" y="0px"
	 viewBox="0 0 400 400" style="enable-background:new 0 0 400 400;" xml:space="preserve">
<style type="text/css">
	.st0{fill:#FFFFFF;}
	.st1{clip-path:url(#SVGID_4_);}
	.st2{clip-path:url(#SVGID_5_);}
	.st3{clip-path:url(#SVGID_6_);fill:none;stroke:#15375F;stroke-width:1.9298;}
	.st4{clip-path:url(#SVGID_6_);fill:none;stroke:#15375F;stroke-width:13.856;}
	.st5{fill:#15375F;}
</style>
<g>
	<path class="st0" d="M334.2,73.7l-13.3-2.6c-22-4.4-83.1-22.2-102.2-51.7l-4.9-7.5h-25.5l-5,6.5C146.6,65.9,79.6,70.8,78.9,70.9
		l-15.7,1l0.2,15.6l1.5,129.2c4.9,109.4,123.9,170,129,172.4l7,3.5l7.2-3.3c4.8-2.1,116.7-53.3,127.3-171.3l0.1-0.8L334.2,73.7
		L334.2,73.7z M334.2,73.7"/>
	<g>
		<defs>
			<rect id="SVGID_1_" x="62.6" y="11" width="273.9" height="382.3"/>
		</defs>
		<defs>
			<path id="SVGID_2_" d="M62.6,11.3h273.6v382.2H62.6V11.3L62.6,11.3z M62.6,11.3"/>
		</defs>
		<defs>
			<rect id="SVGID_3_" x="62.6" y="11.1" width="273.8" height="382.9"/>
		</defs>
		<clipPath id="SVGID_4_">
			<use xlink:href="#SVGID_1_"  style="overflow:visible;"/>
		</clipPath>
		<clipPath id="SVGID_5_" class="st1">
			<use xlink:href="#SVGID_2_"  style="overflow:visible;"/>
		</clipPath>
		<clipPath id="SVGID_6_" class="st2">
			<use xlink:href="#SVGID_3_"  style="overflow:visible;"/>
		</clipPath>
		<path class="st3" d="M334.2,73.7l-13.3-2.6c-22-4.4-83.1-22.2-102.2-51.7l-4.9-7.5h-25.5l-5,6.5C146.6,65.9,79.6,70.8,78.9,70.9
			l-15.7,1l0.2,15.6l1.5,129.2c4.9,109.4,123.9,170,129,172.4l7,3.6l7.2-3.3c4.8-2.1,116.7-53.3,127.3-171.3l0.1-0.8L334.2,73.7
			L334.2,73.7z M334.2,73.7"/>
		<path class="st4" d="M317.6,87.4c0,0-85.7-17-112.9-58.9h-8.3C154.5,82.9,80,87.4,80,87.4s0,68.4,1.5,128.9
			c4.6,100.4,119.8,157.9,119.8,157.9s107.7-48,117.4-157.6C318.7,178.9,317.6,87.4,317.6,87.4L317.6,87.4z M317.6,87.4"/>
	</g>
	<path class="st5" d="M167,66.3l-0.1,17.2l67-0.3l0.3-17.2c0,0-20-7.5-33.5-28.5C182,60.6,167,66.3,167,66.3"/>
	<path class="st5" d="M151.3,103h-44l-10,16.1v24l12.2,12l37.2,0.1v14.5c6-2.1,13-3.4,13-3.4v-19.6l-6.4-8.4h-39.7v-18.2l31.2,0.2
		l-0.2,9.9l15.1-0.1v-16L151.3,103"/>
	<path class="st5" d="M97.2,159.8l-0.1,16.1l8.9,10.1h7.2c0,0,8.6-6.6,16.4-9.8c0-2.5-0.1-5.4-0.1-5.4l-17.9-0.1l0.1-10.8
		L97.2,159.8"/>
	<path class="st5" d="M297.6,168.1l-23.6-65h-12.8l-24.3,62.2l11.7,3.7l7.1-16.1h22.3l5.6,15.3H277l0.3,10.8l7.6,4.8h18.6v-15.7
		H297.6L297.6,168.1z M261.2,140.6l6.7-16.3l5.4,16.3H261.2L261.2,140.6z M261.2,140.6"/>
	<path class="st5" d="M167,271.9l0.1,69.7c0,0,31.8,22.7,33.9,22.9c2,0.2,32.9-21.4,32.9-21.4l0-70.8c0,0-13.4,2.7-33,2.7
		C181.2,275.1,167,271.9,167,271.9"/>
	<path class="st5" d="M170.6,233v-19.6h-2.3v-5.6h6.6V233H170.6z M170.6,233"/>
	<path class="st5" d="M187.4,233l4.7-8.4l-0.1-0.1c-0.7,0.5-1.4,0.7-2.3,0.7c-3.2,0-5.2-4.3-5.2-8.8c0-6.2,3.3-9.5,7-9.5
		c1.6,0,3.4,0.6,4.7,2.2c1.3,1.5,2.2,4.3,2.2,7c0,3.6-1.3,7-2.6,10l-3.5,7L187.4,233 M188.9,216.3c0,2.2,1.2,4.1,2.6,4.1
		c1.5,0,2.7-1.9,2.7-4.1c0-2.4-1.2-4.2-2.7-4.2C190,212.1,188.9,213.9,188.9,216.3"/>
	<path class="st5" d="M217.5,220.5c0,6.5-2,13.5-6.9,13.5c-4.9,0-6.9-7-6.9-13.5c0-6.6,2.1-13.6,6.9-13.6S217.5,213.9,217.5,220.5
		 M207.9,220.4c0,2.4,0.5,7.9,2.7,7.9c2.2,0,2.7-5.5,2.7-7.9c0-2.4-0.5-7.8-2.7-7.8C208.4,212.6,207.9,218,207.9,220.4"/>
	<path class="st5" d="M235.3,214.1c0,2.6-1.1,5-2.6,5.6v0.2c2,1,3.3,3.2,3.3,6.5c0,5.2-3.4,7.6-6.2,7.6c-2.8,0-6.3-2.4-6.3-7.6
		c0-3.3,1.3-5.6,3.2-6.5v-0.2c-1.5-0.7-2.6-3-2.6-5.6c0-4.8,2.8-7.2,5.6-7.2C232.6,206.9,235.3,209.3,235.3,214.1 M227.9,225.6
		c0,1.7,0.8,3.1,1.9,3.1c1.1,0,1.9-1.4,1.9-3.1c0-1.8-0.8-3-1.9-3C228.7,222.6,227.9,223.9,227.9,225.6 M228,214.3
		c0,1.5,0.8,2.8,1.8,2.8c1,0,1.8-1.3,1.8-2.8c0-1.6-0.8-2.9-1.8-2.9C228.8,211.4,228,212.7,228,214.3"/>
	<path class="st5" d="M302.8,218.9c0-21.4-26.1-39.8-63.2-47.5l-1.6,5.2c3.7,0.8,7.3,1.6,10.8,2.6h0c4.3,3.7,8,7.9,11.1,12.3
		c-6.9-2.4-15.7-5-25.5-7l-1.8,5.5c12.6,2.2,23.5,5.7,31.6,8.8c3.4,6.7,5.2,13.8,5.2,20.6c0,6.2-1.2,12.1-3.5,17.9
		c-13.9,4-38,9.8-65.3,10.3H200c-27.4-0.5-51.9-6.3-65.8-10.4c-2.4-5.7-3.6-11.7-3.6-17.9c0-6.7,1.9-13.9,5.2-20.6
		c8.1-3,19-6.5,31.6-8.7l-1.8-5.6c-9.9,2-18.6,4.6-25.5,7c3.1-4.5,6.8-8.6,11.2-12.3h0c3.5-1,7.1-1.8,10.8-2.6l-1.6-5.2
		c-37.1,7.7-63.2,26.1-63.2,47.4c0,28.3,45.9,51.3,102.6,51.3C256.4,270,302.8,247.1,302.8,218.9 M296.4,214.9
		c0.1,0.2,0.1,0.4,0.1,0.7c-5.3-4.4-14.5-9.4-17.1-10.8l-2.4-6.4C281.3,199.5,291.6,209.8,296.4,214.9 M268.7,194.7
		c-0.9-1.6-1.8-3.2-2.8-4.9c2.6,1.5,7.7,4.7,10.2,8.1C274.8,197.3,272.3,196.2,268.7,194.7 M134.2,189.8c-1,1.6-2,3.3-2.8,4.9
		c-3.6,1.4-6.2,2.6-7.4,3.2C126.4,194.4,131.6,191.3,134.2,189.8 M103.7,214.8c4.7-5,15.1-15.4,19.5-16.5l-2.5,6.4
		c-2.7,1.4-11.8,6.5-17.1,10.8C103.6,215.3,103.6,215.1,103.7,214.8 M124.3,240.1c-2.4,0.2-13.7-9.2-19.7-14.3
		c-0.1-0.1-0.1-0.3-0.2-0.4c6.7,3.9,18.1,7.7,18.1,7.7s-3.6-7-3.6-13.3c0-5.4,1.8-12.5,2.4-14.7c1.2-0.6,3.5-1.8,6.9-3.3
		c-2.2,5.8-3.3,11.8-3.3,17.6c0,5.4,0.8,10.6,2.4,15.7c-3.4-1.1-5.4-1.9-5.4-1.9L124.3,240.1c0,0,2.1,0.8,5.8,2
		c1.2,2.5,2.7,5.2,4.4,7.5C130.7,246.2,126,241.8,124.3,240.1 M251.2,257.3c-14.7,4.4-32.1,6.9-50.6,6.9h-0.5h-0.6
		c-18.6,0-36-2.5-50.6-6.9c-4.5-3.9-8.1-8.3-11-12.9c14,3.9,37.2,9.1,61.5,9.4h0.4c24.7-0.1,48.3-5.4,62.4-9.4
		C259.4,249.1,255.6,253.4,251.2,257.3 M265.6,249.8c1.7-2.5,3.1-5,4.4-7.6c3.7-1.2,5.7-1.9,5.7-1.9l2.4-7c0,0-1.9,0.8-5.3,1.9
		c1.6-5.1,2.5-10.3,2.5-15.7c0-5.9-1.2-11.9-3.3-17.6c3.4,1.5,5.8,2.7,7,3.3c0.6,2.2,2.4,9.3,2.4,14.7c0,6.4-3.6,13.3-3.6,13.3
		s11.3-3.7,18.1-7.6c-0.1,0.2-0.2,0.4-0.2,0.4c-5.9,5.1-17.2,14.5-19.7,14.3C274,241.9,269.4,246.2,265.6,249.8"/>
	<path class="st0" d="M213.3,306.2l-2.7,3.6c-1.3-0.7-2.6-1.6-3.9-2.7c-0.9,0.9-2,1.4-3,1.9c-1.1,0.4-2.3,0.6-3.9,0.6
		c-2.9,0-5.1-0.8-6.6-2.4c-1.1-1.3-1.7-2.8-1.7-4.4c0-1.5,0.4-2.9,1.3-4.1c0.9-1.3,2.2-2.3,4-3.2c-0.8-0.9-1.4-1.9-1.9-2.7
		c-0.4-0.8-0.5-1.7-0.5-2.5c0-1.3,0.5-2.6,1.7-3.6c1.1-1.1,2.8-1.5,4.9-1.5c2,0,3.6,0.5,4.8,1.6c1.1,1,1.7,2.3,1.7,3.7
		c0,1-0.3,1.9-0.8,2.8c-0.5,0.9-1.7,1.9-3.5,2.9l3.3,4.3c0.4-0.7,0.7-1.6,1-2.7l4.1,0.9c-0.5,1.4-0.8,2.5-1.1,3.3
		c-0.3,0.6-0.7,1.1-1,1.6c0.5,0.4,1.1,0.9,1.9,1.6C212.4,305.7,212.9,306,213.3,306.2 M199.3,298.4c-1,0.6-1.8,1.2-2.3,1.9
		c-0.5,0.7-0.8,1.5-0.8,2.3c0,0.9,0.3,1.7,1,2.4c0.6,0.6,1.5,0.9,2.6,0.9c0.7,0,1.4-0.1,2.1-0.4c0.6-0.2,1.3-0.7,2.1-1.4
		L199.3,298.4L199.3,298.4z M201,293.5l1.3-1c0.8-0.6,1.3-1.4,1.3-2.1c0-0.5-0.2-1-0.7-1.4c-0.4-0.4-1-0.6-1.7-0.6
		c-0.7,0-1.3,0.2-1.7,0.6c-0.4,0.3-0.6,0.7-0.6,1.2c0,0.6,0.4,1.2,1.1,2.1L201,293.5L201,293.5z M201,293.5"/>
	<path class="st5" d="M179.4,191.8l3.3-0.5c2.6-0.4,4.9,1,5.2,3c0.4,2.1-1.4,4.1-3.9,4.6l-3.4,0.5L179.4,191.8 M182.7,197.4l0.5-0.1
		c1.4-0.3,2.5-1,2.3-2.6c-0.2-1.3-1.4-1.9-2.9-1.7l-0.6,0.1L182.7,197.4L182.7,197.4z M182.7,197.4"/>
	<path class="st5" d="M194.1,190.1l0.1,1.7l-2.8,0.2l0.1,1.3l2.6-0.2l0.1,1.7l-2.7,0.2l0.1,1.4l2.8-0.2l0.1,1.6l-5.2,0.4l-0.6-7.7
		L194.1,190.1z M194.1,190.1"/>
	<path class="st5" d="M195.9,190.1l3.6-0.1c2,0,3.3,0.7,3.3,2.5c0,1.7-1.1,2.6-3.2,2.6h-1.3v2.6H196L195.9,190.1 M198.3,193.5h0.4
		c0.9,0,1.8,0,1.7-0.9c0-1-0.8-1-1.7-1l-0.4,0.1L198.3,193.5L198.3,193.5z M198.3,193.5"/>
	<path class="st5" d="M212.2,190.4l-0.3,4.4c0,0.9-0.1,1.9-1.1,2.6c-0.8,0.6-2,0.9-3,0.7c-1.1-0.1-2.3-0.4-3-1
		c-0.9-0.8-0.9-1.7-0.8-2.8l0.3-4.2l2.3,0.1l-0.2,4c0,1,0,2.1,1.5,2.2c1.5,0.1,1.7-1,1.8-2l0.2-4L212.2,190.4"/>
	<path class="st5" d="M214,190.8l2.4,0.2l-0.9,7.7l-2.4-0.3L214,190.8z M214,190.8"/>
	<path class="st5" d="M222.9,194.1c-0.3-0.3-0.8-0.6-1.4-0.8c-0.4-0.1-1,0.1-1.2,0.4c-0.1,0.4,0.5,0.7,0.9,0.9l0.6,0.2
		c1.2,0.6,2,1.3,1.8,2.6c-0.1,0.8-0.5,1.5-1.3,1.9c-0.8,0.3-1.8,0.3-2.7,0.1c-1.1-0.2-2.2-0.7-3-1.5l1.3-1.4c0.5,0.6,1.1,1,1.9,1.1
		c0.5,0.1,1.2,0,1.3-0.6c0.1-0.5-0.8-0.8-1.2-1c-1.4-0.6-2.3-1.2-2-2.6c0.3-1.5,1.8-2.3,3.6-1.9c0.9,0.1,1.9,0.6,2.6,1.2
		L222.9,194.1"/>
	<path class="st5" d="M160.6,298l-0.7,10.9h-20.1v-5.2h1.5v-20.9h-1.5v-5.3h10.1v5.3h-1.5v20.9h4.3c1.6,0,1.7-0.3,2-2.1l0.5-3.6
		H160.6"/>
	<path class="st5" d="M261,277.4l0.6,9.9h-5.8l-0.4-3.2c-0.2-1.2-0.7-1.4-1.9-1.4h-2.1c-2.2,0-2.8,1.2-2.8,3.7v14.1
		c0,1.6,0.2,3.2,3.4,3.2h3.7v-8.6h-3.9v-4.7h10.6v18.5h-12.5c-2.7,0-3.2-0.1-5.6-2.3c-2.3-2.1-2.7-2.7-2.7-5.8V285
		c0.1-2.4,0.1-2.8,2.2-5c2.3-2.4,3.1-2.7,5.9-2.7L261,277.4"/>
	<path class="st5" d="M202.8,166.9l-5.4-0.1h-12.9v-59.5h5.8V88.9h-29.1v18.4h6.1v68.3l8.4,8.4H201h-1.8h25.3l8.4-8.4v-68.3h6.1
		V88.9H210v18.4h5.7v59.5H202.8z M202.8,166.9"/>
</g>
</svg>
