<?xml version="1.0" encoding="utf-8"?>
<!-- Generator: Adobe Illustrator 19.0.0, SVG Export Plug-In . SVG Version: 6.00 Build 0)  -->
<svg version="1.1" id="Layer_1" xmlns="http://www.w3.org/2000/svg" xmlns:xlink="http://www.w3.org/1999/xlink" x="0px" y="0px"
	 viewBox="0 0 840 840" style="enable-background:new 0 0 840 840;" xml:space="preserve">
<style type="text/css">
	.st0{fill:#1B171B;}
	.st1{clip-path:url(#SVGID_4_);}
	.st2{clip-path:url(#SVGID_5_);}
	.st3{clip-path:url(#SVGID_6_);fill:#FFFFFF;}
	.st4{clip-path:url(#SVGID_6_);fill:#F39911;}
</style>
<g>
	<path class="st0" d="M680,825.6H304.7L159.1,15h375.3L680,825.6z M680,825.6"/>
	<g>
		<defs>
			<rect id="SVGID_1_" x="159.1" y="15" width="521.8" height="810.6"/>
		</defs>
		<defs>
			<path id="SVGID_2_" d="M159.1,15H680v810.6H159.1V15L159.1,15z M159.1,15"/>
		</defs>
		<defs>
			<rect id="SVGID_3_" x="159.1" y="15" width="521.8" height="810.6"/>
		</defs>
		<clipPath id="SVGID_4_">
			<use xlink:href="#SVGID_1_"  style="overflow:visible;"/>
		</clipPath>
		<clipPath id="SVGID_5_" class="st1">
			<use xlink:href="#SVGID_2_"  style="overflow:visible;"/>
		</clipPath>
		<clipPath id="SVGID_6_" class="st2">
			<use xlink:href="#SVGID_3_"  style="overflow:visible;"/>
		</clipPath>
		<path class="st3" d="M288.2,78.4c0,10.5,2.2,20,10.7,27c1.7,1.3,3.3,0.5,3.3-1.6c-0.1-10-2.5-22.2-10.7-28.7
			C288.5,72.8,288.2,76.6,288.2,78.4 M279.7,74.9c-2.3,1.9-4.6,4.6-5.4-0.7c2.9-6.6,14.4-13,16.5-14.7c0.7-0.5,1.4-0.8,2.2-0.8
			c2.5,0,4.8,0.3,6.8,0.9l0.6,0.2c13.2,4.5,16.5,20.6,16.5,32.6c0,1.9-0.9,15.7-2.4,16.8l-14.9,12.1c-1.9,1.5-4.8,0.8-7.2,0.9
			l-1.1-0.2c-14.7-7-18.2-18.3-18.2-31.7C273.2,81.9,281.1,75,279.7,74.9"/>
		<path class="st4" d="M454.7,153.9c-7.2-6.6-2.2-23.6,12.5-35.5c14.7-11.8,33.6-13.8,40.8-7.2c7.2,6.6,2.1,23.3-12.6,35
			C480.7,158,461.9,160.5,454.7,153.9"/>
		<path class="st3" d="M431.8,325.6c43.2,14.2,68.7,21,114,24.6c13.3,1-11.3,24-16.2,23.6c-46.2-3.6-72.3-10.6-115.8-25
			c-19.8-6.5-38.5-14.4-54.4-24.8c1.2,40.6,26.9,62.5,61.4,86.7c7.2,5.1-14.6,27.6-20.5,23.5c-35.4-24.9-64.9-49.4-64.9-96.3
			c0-10.4,2.2-20,5.1-29.1c-14.2-14.3-24-32.6-26.8-56.5c-0.1-0.6,0.8-2.9,1.1-3.3c8.3-8.3,21-24.8,22.4-13.2
			c1.9,16,7.1,29.3,15,40.5c3-9.2,5.2-18.6,5.2-28.9c0-16.8-5.5-30.7-16.3-30.7c-1.5,0-3.1,0.9-4.7,1.1c-4.7,0.6-6.8-3.3-3.5-6.8
			l15.9-16.8c0.8-0.8,3.2-1.4,4.3-1.8c0.9-0.3,2.2-0.6,3.8-0.6c19.4,0,24.3,23.5,24.3,38.8c0,22.2-9.8,40.6-16.4,60
			C382,306.2,405.4,316.9,431.8,325.6"/>
		<path class="st3" d="M444.4,170.7c23.8,0,34.4-4.2,56.3-16.2c4.7-2.6,8.5,2.3,4.9,6.2c0,0-5.7,7.6-12,11.5
			c-19,11.8-40.2,15.2-65,15.2c-17.4,0-32.5-3.9-45.4-11.9c-14.1,5-27.9,8.1-43.7,9.5c-33.4,2.9-55.7,2.1-84.1-18.2
			c-6.9-4.9,12.3-23.4,17.7-19.5c13,9.3,24.4,12.9,36.7,14.5c12.6,1.7,25.9,2.9,42.6,2.2c4.6-0.2,9.6-0.8,14.7-1.8
			c-7.2-7.8-13.4-17.4-18.6-28.9c-2.3-5.2,15-25.4,19.2-16.3c7.2,15.9,17.1,28.6,29,37.7c17.2-5.5,30.6-11.3,30.6-11.3
			c5.2-1.4,7.8,3.9,3.5,7.1c0,0-7.3,6.9-13,9.8l-6.6,3.3C421.4,168.2,432.6,170.7,444.4,170.7"/>
		<path class="st3" d="M357.8,486h19.4c7,0,12.9,3.4,12.9,11c0,5.4-2.8,9.8-8.3,10.8v0.1c5.5,0.7,7.1,4.5,7.4,9.6
			c0.2,2.9,0.2,8.7,2,10.9h-4.4c-1-1.7-1-4.8-1.1-6.6c-0.4-5.9-0.8-12.5-8.5-12.2h-15.3v18.8h-4V486L357.8,486z M361.8,506.1h15.1
			c4.9,0,9.1-3.1,9.1-8.3c0-5.2-3.1-8.4-9.1-8.4h-15.1V506.1L361.8,506.1z M361.8,506.1"/>
		<path class="st3" d="M395.8,486h4v26.2c0,9.9,4.6,13.6,12.4,13.6c7.8,0,12.5-3.7,12.5-13.6V486h4v27.1c0,8.7-4.7,16.1-16.5,16.1
			c-11.7,0-16.4-7.4-16.4-16.1V486L395.8,486z M395.8,486"/>
		<path class="st3" d="M471.9,528.4H469l-0.5-7.7h-0.1c-2.8,6-8.5,8.6-14.7,8.6c-13.4,0-20-10.5-20-22.1c0-11.6,6.6-22.1,20-22.1
			c8.9,0,16.1,4.8,17.7,14.1h-4c-0.5-4.9-5.6-10.6-13.6-10.6c-11.2,0-16,9.4-16,18.6c0,9.3,4.7,18.6,16,18.6
			c9.4,0,14.8-6.6,14.7-15.6h-14.4v-3.4h18V528.4L471.9,528.4z M471.9,528.4"/>
		<path class="st3" d="M478.5,486h17.9c7.1,0,13.6,2.5,13.6,10.4c0,4.5-2.9,8.6-7.3,9.5v0.1c5.5,0.7,9,4.8,9,10.3
			c0,4-1.5,12.1-15.2,12.1h-17.9V486L478.5,486z M482.5,504.6h13.9c6.5,0,9.6-3.2,9.6-7.2c0-5.3-3.3-8-9.6-8h-13.9V504.6
			L482.5,504.6z M482.5,524.9h13.9c6,0,11.2-2,11.2-8.7c0-5.4-4.1-8.2-11.2-8.2h-13.9V524.9L482.5,524.9z M482.5,524.9"/>
		<path class="st3" d="M512.1,486h4.8l14,21.5l13.9-21.5h4.8l-16.7,24.9v17.5h-4v-17.5L512.1,486z M512.1,486"/>
		<path class="st3" d="M381.5,628.3h-21.9V563h-25.1v-18.9h72.1V563h-25.1V628.3z M381.5,628.3"/>
		<path class="st3" d="M452.2,542.4c26.5,0,41.5,19.4,41.5,43.8c0,24.4-15,43.8-41.5,43.8c-26.5,0-41.5-19.4-41.5-43.8
			C410.7,561.9,425.7,542.4,452.2,542.4 M452.2,611.2c14.1,0,19.6-12.5,19.6-25c0-12.5-5.4-25-19.6-25c-14.1,0-19.6,12.5-19.6,25
			C432.6,598.7,438.1,611.2,452.2,611.2"/>
		<path class="st3" d="M503.2,544.2h39.9c15.7,0,30.4,7.2,30.4,27.1c0,20.9-11.9,29-30.4,29h-18v28.1h-21.9V544.2L503.2,544.2z
			 M525.1,583.3h14.7c6.8,0,11.8-2.8,11.8-10.5c0-7.9-5.1-11.1-11.8-11.1h-14.7V583.3L525.1,583.3z M525.1,583.3"/>
		<path class="st3" d="M392.8,673.3v-14.7c11.5,0.3,23.5-4,24.3-16.9h16.6v82.1h-21.2v-50.4H392.8L392.8,673.3z M392.8,673.3"/>
		<path class="st3" d="M522.6,688.5v17h-10.7v18.2h-20v-18.2h-36v-18.8l36.8-45.1h19.2v46.9H522.6L522.6,688.5z M492.5,688.5V662
			h-0.2l-20.7,26.5H492.5L492.5,688.5z M492.5,688.5"/>
		<path class="st4" d="M358.6,728.4c18.6-0.1,30.4,13.2,31.4,30.5c1,16.8-9.2,30.2-27.9,30.4c-18.6,0.1-30.4-13.3-31.3-30
			C329.7,741.9,339.9,728.5,358.6,728.4 M361.4,778.4c11.9-0.1,15.8-9.9,15.3-19.5c-0.6-10.2-5.6-19.9-17.5-19.8
			c-11.9,0.1-15.8,9.9-15.2,20C344.5,768.8,349.5,778.5,361.4,778.4"/>
		<path class="st4" d="M396.9,745.5l11.4-0.1l0.5,7.8l0.2,0c1.9-5.3,7.6-9,13.4-9c0.8,0,1.9,0.2,2.6,0.4l0.6,10.7
			c-1.1-0.2-2.9-0.4-4.3-0.4c-8.8,0.1-11.5,6.2-11.1,13.6l1.1,19l-12,0.1L396.9,745.5L396.9,745.5z M396.9,745.5"/>
		<path class="st4" d="M430,758.3c0.1-10.8,9.9-14.1,19.7-14.2c8.7,0,19.3,1.8,19.8,11.8l1.2,21.9c0.2,3.8,0.8,7.6,2.1,9.3
			l-12.2,0.1c-0.5-1.3-0.9-2.7-1.1-4.1c-3.6,3.9-9.1,5.3-14.4,5.3c-8.3,0.1-15.1-3.9-15.6-12.5c-0.6-9.5,6.8-11.8,14.1-12.9
			c7.3-1.1,14.1-0.9,13.8-5.6c-0.3-5-3.9-5.7-8.1-5.6c-4.6,0-7.4,1.8-7.6,6.4L430,758.3L430,758.3z M458.2,766.6
			c-1.9,1.7-6.2,1.8-9.8,2.5c-3.7,0.8-7,2-6.8,6.2c0.3,4.3,3.8,5.4,7.6,5.3c9.4,0,9.3-7.2,9.2-9.7L458.2,766.6L458.2,766.6z
			 M458.2,766.6"/>
		<path class="st4" d="M478.2,745.1l11.4-0.1l0.4,5.9h0.3c2.7-4.8,7.9-7.1,12.9-7.1c12.8-0.1,16.4,6.8,16.9,17.2l1.5,25.9l-12,0.1
			l-1.3-23.8c-0.4-6.9-2.7-10.3-8.3-10.3c-6.5,0-9.1,3.5-8.6,12.1l1.3,22.1l-12,0.1L478.2,745.1L478.2,745.1z M478.2,745.1"/>
		<path class="st4" d="M572.4,783.9c0.4,6.9-1.5,18.6-21.5,18.8c-8.6,0-18.9-3.8-20-13.4l11.9-0.1c1.4,4.3,5.1,5.8,9.3,5.7
			c6.7-0.1,9.5-4.4,9-10.5l-0.3-5.5h-0.2c-2.4,4.4-7.5,6.6-12.7,6.6c-13.1,0.1-19.2-9.5-19.8-21c-0.6-10.9,5.3-20.9,17.5-20.9
			c5.7,0,10.2,1.8,13.4,6.7h0.2l-0.3-5.6l11.4,0L572.4,783.9L572.4,783.9z M559.9,765c-0.4-6.8-3.2-12.9-10.9-12.9
			c-6.8,0-9.4,5.7-9,12c0.3,6,3.1,12.6,10.4,12.6C557.2,776.7,560.3,771.1,559.9,765"/>
		<path class="st4" d="M591,768.2c0.8,7.3,4.7,10.6,11.3,10.6c4.8,0,8.5-2.9,9.1-5.5l10.5-0.1c-2.8,10-9.7,14.2-19.6,14.3
			c-13.8,0.1-22.8-9-23.6-22c-0.7-12.6,7.8-22.3,21-22.3c14.9-0.1,22.7,11.9,22.6,24.8L591,768.2L591,768.2z M610.1,760.8
			c-1.4-5.8-4.2-8.9-10-8.9c-7.6,0-9.5,5.7-9.5,9L610.1,760.8L610.1,760.8z M610.1,760.8"/>
	</g>
</g>
</svg>
