<?xml version="1.0" encoding="utf-8"?>
<!-- Generator: Adobe Illustrator 19.1.0, SVG Export Plug-In . SVG Version: 6.00 Build 0)  -->
<svg version="1.1" id="Layer_1" xmlns="http://www.w3.org/2000/svg" xmlns:xlink="http://www.w3.org/1999/xlink" x="0px" y="0px"
	 viewBox="0 0 400 400" enable-background="new 0 0 400 400" xml:space="preserve">
<g>
	<path fill-rule="evenodd" clip-rule="evenodd" d="M45.475,133.359c-1.107-5.689-2.067-11.423-3.093-17.133h4.875l-1.833-2.702
		c-0.858-1.639-1.764-3.245-2.488-4.953c-0.924-2.23-1.686-4.452-2.356-6.774c-0.507-1.808-0.865-3.652-1.261-5.491l-2.158-15.295
		h5.871l-1.211-1.521l-1.735-2.685l-1.549-2.986l-1.345-3.285l-1.148-3.642l-1.244-6.278l-0.829-11.018l104.974,0.068
		c4.759-0.228,10.12-0.497,14.054,2.664c0.771,0.647,1.414,1.292,2.019,2.101c1.215,1.676,2.014,3.574,2.49,5.585l3.652,6.975
		c4.268-0.786,8.581-2.193,12.227-4.587c1.269-0.899,2.888-2.069,3.386-3.643c0.092-0.305,0.18-0.617,0.268-0.928
		c0.479-0.807,0.962-1.6,1.509-2.367c0.088-0.88,0.041-1.78-0.031-2.663c-1.193-0.966-2.222-2.126-3.187-3.313
		c-0.775-1.014-1.441-2.087-2.532-2.784c-0.969-0.531-1.99-0.752-3.058-0.983c-0.742-0.161-1.477-0.329-2.206-0.526
		c-1.661-0.003-3.188,2.867-4.688,6.554l-3.07-3.96l-0.908-1.548c-2.103-4.444-2.622-8.372-1.748-13.278l0.847-2.618l0.61-1.257
		l1.337-2.014c0.587-0.663,1.182-1.289,1.833-1.897c0.904-0.809,1.904-1.524,2.969-2.116c0.833-0.447,1.676-0.85,2.551-1.224
		c1.37-0.563,2.812-0.966,4.253-1.325l0.164-0.564l0.785-1.38l1.002-1.107l1.102-0.837l1.126-0.62l2.242-0.826l2.79-0.521
		c4.477-0.551,8.924-0.545,13.429-0.506c2.806,0.442,5.557,0.95,8.303,1.704c1.09,0.308,2.169,0.649,3.24,1.024
		c3.47,1.265,6.883,3.044,9.766,5.371c1.188,0.348,2.599,0.289,3.83,0.239l12.44-3.059l-6.493,11.85
		c-0.506,0.708-1.027,1.442-1.637,2.059c0.629,1.671,1.267,3.342,1.925,5.001c1.564,3.915,3.464,7.718,4.532,11.808
		c0.186,0.725,0.355,1.454,0.526,2.18l0.031,3.05c0.146,1.165,0.354,2.29,0.94,3.317c0.455,0.751,0.935,1.486,1.376,2.245
		l0.513,1.473l0.111,1.783l-0.249,1.689l-0.539,1.322l0.376,0.009c1.361-0.019,2.724-0.001,4.085,0.028l3.837-7.326l0.746-2.481
		l0.823-1.724l1.506-2.129l1.976-1.755l3.047-1.531l10.053-0.655l105.556-0.058l-1.162,10.476l-1.394,7.04l-1.148,3.642
		l-1.345,3.284l-1.549,2.986l-1.736,2.687l-1.212,1.52h5.872l-2.158,15.295c-0.396,1.842-0.754,3.683-1.263,5.493
		c-0.619,2.137-1.302,4.192-2.139,6.249c-0.785,1.898-1.749,3.655-2.704,5.477l-1.833,2.701h4.875l-2.977,16.53
		c-1.136,5.858-2.722,11.571-4.918,17.126c-0.526,1.303-1.124,2.568-1.715,3.845l-2.073,3.026h3.811l-9.082,34.965l-1.299,3.868
		l-2.726,6.84l-1.504,2.922h2.05l-5.195,15.328c-2.455,6.942-4.984,13.84-7.604,20.725l-5.452,13.484l-5.803,13.176l-3.046,6.461
		l-3.148,6.369l-3.255,6.272l-3.367,6.173l-3.484,6.067l-3.606,5.957l-3.732,5.842l-3.863,5.722l-4.001,5.596l-4.141,5.466
		l-4.287,5.331l-4.438,5.192l-4.594,5.046l-4.753,4.896l-4.918,4.741l-5.087,4.581l-5.261,4.414l-5.439,4.245l-5.622,4.068
		l-5.808,3.888l-6,3.7l-6.195,3.51l-6.395,3.314l-7.95,3.75l-8.349-4.268l-6.754-3.717l-6.507-3.85l-6.267-3.983l-6.035-4.116
		l-5.808-4.247l-5.589-4.378l-5.376-4.509l-5.171-4.638l-4.973-4.766l-4.782-4.894l-4.597-5.02l-4.419-5.147l-4.25-5.27
		l-4.087-5.395l-3.931-5.516l-3.784-5.639l-3.643-5.759l-3.51-5.88l-3.385-5.998l-3.267-6.118l-3.156-6.235l-3.053-6.352
		l-2.957-6.468l-5.661-13.286l-5.371-13.744c-2.629-7.135-5.17-14.285-7.645-21.472l-3.415-10.219l2.189-0.859l-2.448-4.699
		l-2.725-6.84l-1.304-3.884L50.3,156.754h3.766l-2.073-3.027c-0.771-1.665-1.508-3.289-2.164-4.99
		C47.93,143.727,46.528,138.606,45.475,133.359L45.475,133.359z"/>
	<path fill-rule="evenodd" clip-rule="evenodd" fill="#FFF200" d="M199.097,382.767c73.577-32.297,106.259-104.278,128.89-171.671
		h-7.862c9.588-1.215,15.263-24.086,21.046-48.593h-12.457c9.012-1.017,14.863-11.429,18.731-29.083
		c0.713-3.776,1.41-7.586,2.083-11.444H331.87c9.693-1.052,18.206-8.23,21.788-25.816c0.456-3.111,0.904-6.239,1.336-9.4H332.57
		c10.529-1.142,22.388-5.947,25.713-26.525c0.191-1.7,0.384-3.394,0.569-5.107l-98.893,0.085
		c-7.704-0.346-12.477-0.671-13.957,6.806l-4.106,7.842c-0.362,1.72-1.579,2.699-3.329,3.238c-2.132-0.068-4.274-0.112-6.338-0.042
		c-4.83-1.11-6.03-2.906-7.482-6.573c3.04-0.98,3.354-2.095,3.238-2.856c-0.118-0.759-3.279-3.308-2.93-10.623
		c-1.256-5.587-2.242-5.794-6.709-17.84c-9.331,1.776-14.957-2.708-22.963-3.614c-1.605-0.179-1.104,5.079-4.318,6.823
		c-3.229-3.688-2.484-2.418-4.438-6.789c-1.179-1.366-0.105,0.144-2.685,0.047c-0.089-0.003-0.166,0.002-0.233,0.015l-0.401-0.814
		c-0.038-0.225,0.011-0.47,0.118-0.73l1.827-3.11l1.571,2.063c7.965,0.855,19.637-0.673,23.895,2.568
		c5.28,0.087,8.438-0.719,10.274-4.204c-2.735,0.892-5.736,1.192-8.207,0c-4.764-3.976-10.322-6.16-19.059-7.453
		c-20.473-0.299-17.385,2.683-16.148,5.365c4.408-0.775,3.524,3.816,5.285,5.725l0.422,0.743c0.077,0.136,0.062,0.131,0.069,0.272
		c0.074,1.316,3.974,5.211,3.837,6.36c-1.332,0.108-3.053-0.271-4.937-0.906l-5.905-12.066c-4.766,0.887-17.427,2.578-13.264,16.189
		c7.715-10.673,11.234-6.302,15.349-4.421c0.63,0.29,1.275,0.52,1.949,0.627c0.033,0.053,0.109,0.179,0.186,0.261
		c2.471,2.583,5.128,2.812,7.866,3.011c-6.349,3.801-13.053-5.513-20.612-2.905c0.352,0.526,0.604,1.267,1.122,1.353
		c10.996,1.798,8.176,5.883,14.81,9.934c1.011,8.989-0.24,8.224-1.625,10.739c-1.467,6.197-11.17,11.052-20.609,12.558
		c-0.412,0.092-1.032,0.187-1.685,0.268c-1.678-0.547-2.841-1.52-3.194-3.196l-4.108-7.842c-1.479-7.478-6.251-7.151-13.956-6.806
		l-98.763-0.085c0.077,0.974,0.078,2.122,0.099,3.222c0.063,0.878,0.124,1.762,0.188,2.639
		c3.411,20.222,14.708,24.971,25.165,26.106H42.846c0.431,3.161,0.879,6.289,1.335,9.4c3.583,17.586,12.096,24.765,21.788,25.816
		H48.313c0.673,3.858,1.37,7.668,2.083,11.444c3.868,17.654,9.718,28.066,18.73,29.083H56.669
		c5.782,24.508,11.458,47.378,21.046,48.593h-7.862c3.29,9.798,6.507,19.941,9.638,28.665
		C100.402,294.666,135.868,353.801,199.097,382.767L199.097,382.767z M175.598,27.417c0.654,0,1.192,1.474,1.192,3.279
		c0,1.807-0.539,3.28-1.192,3.28c-0.656,0-1.191-1.472-1.191-3.28C174.407,28.891,174.942,27.417,175.598,27.417L175.598,27.417z"/>
	<polygon fill-rule="evenodd" clip-rule="evenodd" fill="#ED1C24" points="213.476,148.474 199.24,137.57 184.566,147.641 
		190.401,130.923 176.164,120.019 194.095,120.342 199.93,103.624 205.149,120.639 223.005,121.174 208.331,131.246 
		213.476,148.474 	"/>
	<polygon fill-rule="evenodd" clip-rule="evenodd" fill="#2E3192" points="209.038,97.601 200.249,90.869 191.19,97.087 
		194.792,86.766 186.004,80.034 197.073,80.234 200.675,69.913 203.896,80.418 214.92,80.748 205.861,86.966 209.038,97.601 	"/>
	<polygon fill-rule="evenodd" clip-rule="evenodd" fill="#2E3192" points="119.595,139.831 113.613,130.515 102.981,133.29 
		109.872,124.804 103.89,115.489 114.234,119.434 121.125,110.948 120.591,121.923 130.848,125.975 120.216,128.749 
		119.595,139.831 	"/>
	<polygon fill-rule="evenodd" clip-rule="evenodd" fill="#2E3192" points="108.535,167.718 100.057,160.051 90.211,165.687 
		94.787,155.369 86.309,147.701 97.684,148.838 102.26,138.519 104.691,149.602 116.008,150.869 106.162,156.506 108.535,167.718 	
		"/>
	<polygon fill-rule="evenodd" clip-rule="evenodd" fill="#2E3192" points="103.955,199.207 95.166,192.476 86.108,198.694 
		89.71,188.373 80.921,181.641 91.99,181.841 95.593,171.52 98.814,182.025 109.838,182.355 100.778,188.573 103.955,199.207 	"/>
	<polygon fill-rule="evenodd" clip-rule="evenodd" fill="#2E3192" points="137.207,118.152 134.316,107.466 123.343,106.9 
		132.474,100.892 129.583,90.205 138.254,97.088 147.386,91.079 143.563,101.38 152.118,108.34 141.145,107.775 137.207,118.152 	
		"/>
	<polygon fill-rule="evenodd" clip-rule="evenodd" fill="#2E3192" points="178.841,98.731 168.631,94.453 161.449,102.769 
		162.311,91.871 152.1,87.594 162.856,84.974 163.718,74.076 169.504,83.418 180.249,80.936 173.068,89.252 178.841,98.731 	"/>
	<polygon fill-rule="evenodd" clip-rule="evenodd" fill="#2E3192" points="280.187,139.204 286.17,129.888 296.801,132.663 
		289.909,124.177 295.892,114.862 285.547,118.807 278.656,110.321 279.191,121.295 268.933,125.348 279.565,128.122 
		280.187,139.204 	"/>
	<polygon fill-rule="evenodd" clip-rule="evenodd" fill="#2E3192" points="291.246,167.091 299.724,159.423 309.571,165.059 
		304.994,154.741 313.473,147.074 302.098,148.211 297.522,137.892 295.09,148.974 283.773,150.242 293.619,155.878 
		291.246,167.091 	"/>
	<polygon fill-rule="evenodd" clip-rule="evenodd" fill="#2E3192" points="295.826,198.58 304.615,191.849 313.674,198.067 
		310.072,187.746 318.86,181.014 307.791,181.214 304.189,170.893 300.967,181.397 289.944,181.727 299.003,187.945 295.826,198.58 
			"/>
	<polygon fill-rule="evenodd" clip-rule="evenodd" fill="#2E3192" points="262.575,117.525 265.466,106.838 276.439,106.274 
		267.307,100.265 270.198,89.578 261.527,96.461 252.396,90.452 256.219,100.753 247.663,107.713 258.636,107.148 262.575,117.525 	
		"/>
	<polygon fill-rule="evenodd" clip-rule="evenodd" fill="#2E3192" points="220.94,98.103 231.151,93.826 238.332,102.141 
		237.47,91.244 247.681,86.966 236.925,84.347 236.063,73.449 230.278,82.791 219.532,80.309 226.714,88.625 220.94,98.103 	"/>
	<path fill-rule="evenodd" clip-rule="evenodd" fill="#1B449C" d="M198.479,299.596c0.126,0.017,0.253,0.032,0.386,0.05
		c0.166-2.719,0.708-4.841,1.614-6.766c0.967-2.056,1.836-4.1,3.581-6.204c1.819-2.247,4.31-3.559,6.427-4.406
		c2.126-0.852,4.265-0.893,6.326-0.138c1.223,0.447,3.271,1.506,4.492,2.953c1.129,1.336,1.463,3.037,1.811,3.981
		c0.239,0.647,0.274,1.66,0.191,2.743c0.413,2.983,2.148,4.812,3.611,5.257c0.005,0.072-0.071,0.248-0.293,0.34
		c-1.436,0.34-3.388,0.151-4.5-0.617c-1.312,2.746-5.767,6.304-9.861,1.454c2.966,1.389,4.556,1.426,5.651-0.152
		c0.442-1.175,0.936-4.632,0.536-5.698c-0.425-1.119-2.38-4.056-3.791-4.286c-2.667-0.435-5.362-0.693-9.18,3.792
		c-2.142,2.454-4.786,8.631-5.604,13.208h-1.033c-0.008-0.129-0.016-0.257-0.024-0.389
		C198.716,303.158,198.601,301.452,198.479,299.596L198.479,299.596z"/>
	<path fill-rule="evenodd" clip-rule="evenodd" fill="#1B449C" d="M199.656,299.595c-0.126,0.019-0.253,0.032-0.386,0.051
		c-0.166-2.717-0.708-4.84-1.614-6.766c-0.966-2.056-1.836-4.1-3.58-6.203c-1.819-2.247-4.311-3.562-6.427-4.407
		c-2.127-0.851-4.265-0.893-6.327-0.14c-1.222,0.45-3.269,1.508-4.491,2.954c-1.128,1.336-1.463,3.038-1.811,3.981
		c-0.24,0.647-0.274,1.66-0.192,2.743c-0.414,2.983-2.147,4.813-3.61,5.257c-0.005,0.072,0.071,0.247,0.292,0.34
		c1.436,0.34,3.388,0.151,4.5-0.617c1.312,2.745,5.767,6.304,9.862,1.454c-2.968,1.388-4.556,1.425-5.651-0.153
		c-0.442-1.176-0.936-4.632-0.536-5.697c0.424-1.119,2.38-4.057,3.79-4.286c2.667-0.435,5.362-0.693,9.18,3.792
		c2.141,2.454,4.786,8.632,5.604,13.208h1.032c0.008-0.129,0.016-0.258,0.025-0.389C199.418,303.158,199.533,301.45,199.656,299.595
		L199.656,299.595z"/>
	<path fill-rule="evenodd" clip-rule="evenodd" fill="#1B449C" d="M241.334,283.569c0.26,0.19,0.525,0.371,0.792,0.542
		c1.792,1.146,3.508,2.337,5.884,3.117c2.505,0.856,4.995,0.613,6.966,0.19c3.436-0.737,6.043-4.124,6.259-7.9
		c0.123-2.121-0.851-4.754-2.155-6.445c-1.298-2.611-1.031-4.985-0.219-6.105c-0.035-0.06-0.184-0.161-0.391-0.12
		c-1.212,0.476-2.512,1.645-2.899,2.841c-2.409-1.522-7.506-2.057-7.853,3.972c2.238-4.295,6.25-3.483,7.565,1.474
		c1.752,6.71-3.613,8.863-9.044,7.158c-0.588-0.176-1.277-0.47-2.026-0.852c-0.26-0.189-0.521-0.368-0.788-0.539
		c-1.791-1.147-3.508-2.337-5.883-3.118c-2.505-0.857-4.994-0.613-6.966-0.19c-3.436,0.737-6.043,4.124-6.26,7.901
		c-0.122,2.121,0.852,4.754,2.155,6.444c1.298,2.612,1.031,4.985,0.219,6.106c0.035,0.061,0.183,0.161,0.391,0.12
		c1.212-0.476,2.512-1.645,2.899-2.841c2.409,1.523,7.506,2.059,7.853-3.972c-2.238,4.294-6.25,3.483-7.565-1.475
		c-1.752-6.71,3.613-8.862,9.044-7.158C239.9,282.897,240.586,283.188,241.334,283.569L241.334,283.569z"/>
	<path fill-rule="evenodd" clip-rule="evenodd" fill="#1B449C" d="M275.464,260.437c0.314,0.071,0.629,0.132,0.942,0.184
		c2.1,0.344,4.146,0.759,6.637,0.536c2.64-0.204,4.83-1.412,6.473-2.58c2.865-2.036,3.919-6.178,2.626-9.732
		c-0.727-1.997-2.662-4.03-4.529-5.067c-2.224-1.886-2.917-4.172-2.615-5.521c-0.056-0.042-0.232-0.076-0.407,0.044
		c-0.925,0.917-1.657,2.505-1.539,3.756c-2.815-0.445-7.708,1.078-5.643,6.754c0.358-4.829,4.363-5.67,7.532-1.637
		c4.262,5.47,0.187,9.57-5.476,10.151c-0.609,0.07-1.359,0.073-2.198,0.019c-0.314-0.072-0.624-0.132-0.936-0.184
		c-2.099-0.345-4.146-0.759-6.637-0.537c-2.64,0.204-4.83,1.412-6.473,2.58c-2.865,2.036-3.919,6.178-2.625,9.732
		c0.727,1.998,2.662,4.03,4.528,5.067c2.224,1.885,2.917,4.171,2.615,5.521c0.056,0.042,0.232,0.076,0.406-0.044
		c0.925-0.916,1.657-2.505,1.54-3.756c2.814,0.445,7.708-1.078,5.642-6.754c-0.357,4.829-4.363,5.67-7.532,1.637
		c-4.262-5.469-0.187-9.569,5.476-10.151C273.881,260.385,274.626,260.382,275.464,260.437L275.464,260.437z"/>
	<path fill-rule="evenodd" clip-rule="evenodd" fill="#1B449C" d="M296.666,225.182c0.317-0.057,0.632-0.123,0.94-0.198
		c2.068-0.501,4.114-0.917,6.322-2.092c2.352-1.216,3.897-3.183,4.956-4.899c1.845-2.991,1.202-7.216-1.374-9.985
		c-1.448-1.556-4.022-2.674-6.145-2.902c-2.783-0.87-4.312-2.705-4.56-4.066c-0.068-0.017-0.244,0.021-0.358,0.199
		c-0.494,1.205-0.549,2.952,0.046,4.059c-2.765,0.686-6.678,3.996-2.565,8.418c-1.553-4.588,1.809-6.922,6.299-4.443
		c6.057,3.376,3.9,8.74-1.088,11.482c-0.534,0.302-1.222,0.598-2.017,0.874c-0.316,0.056-0.626,0.121-0.933,0.195
		c-2.068,0.501-4.114,0.916-6.322,2.092c-2.352,1.217-3.898,3.183-4.956,4.899c-1.845,2.991-1.202,7.217,1.375,9.986
		c1.448,1.556,4.022,2.674,6.145,2.902c2.783,0.87,4.312,2.705,4.56,4.065c0.068,0.017,0.244-0.02,0.357-0.199
		c0.495-1.205,0.55-2.952-0.045-4.059c2.765-0.687,6.678-3.997,2.565-8.419c1.553,4.587-1.809,6.923-6.299,4.444
		c-6.057-3.377-3.9-8.741,1.088-11.483C295.189,225.751,295.874,225.458,296.666,225.182L296.666,225.182z"/>
	<path fill-rule="evenodd" clip-rule="evenodd" fill="#1B449C" d="M156.923,282.975c-0.26,0.19-0.525,0.37-0.793,0.542
		c-1.792,1.147-3.508,2.337-5.883,3.117c-2.506,0.857-4.995,0.613-6.966,0.19c-3.435-0.737-6.042-4.125-6.259-7.9
		c-0.123-2.122,0.851-4.754,2.155-6.445c1.298-2.611,1.031-4.985,0.218-6.105c0.035-0.06,0.184-0.162,0.391-0.12
		c1.212,0.475,2.513,1.645,2.899,2.84c2.409-1.522,7.506-2.057,7.854,3.972c-2.239-4.295-6.25-3.483-7.566,1.475
		c-1.752,6.709,3.613,8.863,9.044,7.157c0.588-0.176,1.277-0.469,2.025-0.852c0.26-0.19,0.521-0.369,0.788-0.539
		c1.791-1.147,3.508-2.337,5.884-3.118c2.505-0.856,4.994-0.612,6.965-0.19c3.436,0.737,6.043,4.125,6.26,7.901
		c0.122,2.122-0.851,4.754-2.155,6.445c-1.297,2.612-1.031,4.985-0.219,6.105c-0.035,0.061-0.183,0.161-0.391,0.12
		c-1.212-0.476-2.512-1.645-2.899-2.841c-2.409,1.522-7.506,2.058-7.853-3.972c2.238,4.294,6.25,3.483,7.566-1.474
		c1.751-6.71-3.613-8.863-9.044-7.158C158.356,282.301,157.67,282.593,156.923,282.975L156.923,282.975z"/>
	<path fill-rule="evenodd" clip-rule="evenodd" fill="#1B449C" d="M122.793,259.842c-0.314,0.071-0.629,0.133-0.943,0.184
		c-2.099,0.345-4.146,0.759-6.637,0.536c-2.64-0.204-4.83-1.413-6.473-2.58c-2.865-2.036-3.919-6.178-2.625-9.732
		c0.727-1.997,2.662-4.03,4.528-5.067c2.224-1.886,2.918-4.171,2.615-5.521c0.056-0.042,0.232-0.076,0.406,0.044
		c0.925,0.916,1.657,2.504,1.54,3.756c2.814-0.445,7.708,1.078,5.642,6.754c-0.357-4.83-4.363-5.671-7.532-1.638
		c-4.262,5.47-0.187,9.57,5.476,10.151c0.609,0.07,1.359,0.074,2.198,0.019c0.314-0.071,0.624-0.132,0.936-0.184
		c2.1-0.344,4.146-0.758,6.637-0.536c2.64,0.204,4.83,1.412,6.473,2.58c2.865,2.036,3.919,6.178,2.626,9.732
		c-0.727,1.998-2.662,4.03-4.529,5.067c-2.224,1.885-2.917,4.171-2.615,5.521c-0.056,0.042-0.232,0.076-0.407-0.044
		c-0.925-0.916-1.657-2.504-1.539-3.755c-2.815,0.445-7.708-1.079-5.643-6.754c0.358,4.83,4.363,5.671,7.532,1.637
		c4.262-5.469,0.187-9.569-5.476-10.15C124.375,259.791,123.63,259.787,122.793,259.842L122.793,259.842z"/>
	<path fill-rule="evenodd" clip-rule="evenodd" fill="#1B449C" d="M101.59,224.587c-0.317-0.057-0.631-0.123-0.94-0.197
		c-2.068-0.501-4.114-0.917-6.322-2.092c-2.351-1.217-3.897-3.183-4.956-4.899c-1.845-2.991-1.202-7.217,1.374-9.985
		c1.448-1.556,4.022-2.675,6.145-2.902c2.783-0.87,4.313-2.704,4.56-4.066c0.068-0.016,0.244,0.021,0.358,0.199
		c0.495,1.205,0.549,2.952-0.046,4.059c2.766,0.686,6.679,3.996,2.564,8.418c1.553-4.587-1.809-6.922-6.299-4.443
		c-6.056,3.377-3.9,8.74,1.088,11.482c0.534,0.303,1.223,0.598,2.017,0.874c0.316,0.056,0.626,0.121,0.934,0.195
		c2.067,0.501,4.114,0.917,6.321,2.092c2.352,1.217,3.898,3.183,4.956,4.898c1.845,2.991,1.202,7.217-1.374,9.986
		c-1.448,1.556-4.022,2.674-6.146,2.902c-2.783,0.869-4.313,2.704-4.56,4.065c-0.068,0.016-0.243-0.02-0.357-0.199
		c-0.495-1.205-0.55-2.953,0.045-4.059c-2.765-0.687-6.678-3.996-2.564-8.418c-1.553,4.587,1.808,6.922,6.298,4.443
		c6.057-3.377,3.901-8.74-1.087-11.483C103.067,225.156,102.383,224.863,101.59,224.587L101.59,224.587z"/>
	<path fill-rule="evenodd" clip-rule="evenodd" fill="#1B449C" d="M249.31,274.101c1.442,0,2.611,1.169,2.611,2.61
		c0,1.441-1.17,2.611-2.611,2.611c-1.442,0-2.611-1.17-2.611-2.611C246.699,275.27,247.868,274.101,249.31,274.101L249.31,274.101z"
		/>
	<path fill-rule="evenodd" clip-rule="evenodd" fill="#1B449C" d="M272.486,264.423c1.442,0,2.61,1.169,2.61,2.611
		c0,1.441-1.169,2.61-2.61,2.61c-1.442,0-2.611-1.169-2.611-2.61C269.875,265.592,271.044,264.423,272.486,264.423L272.486,264.423z
		"/>
	<path fill-rule="evenodd" clip-rule="evenodd" fill="#1B449C" d="M280.635,247.869c1.441,0,2.61,1.169,2.61,2.61
		c0,1.442-1.169,2.611-2.61,2.611c-1.442,0-2.611-1.169-2.611-2.611C278.024,249.038,279.193,247.869,280.635,247.869
		L280.635,247.869z"/>
	<path fill-rule="evenodd" clip-rule="evenodd" fill="#1B449C" d="M295.915,230.297c1.442,0,2.611,1.169,2.611,2.611
		c0,1.442-1.169,2.611-2.611,2.611c-1.442,0-2.61-1.169-2.61-2.611C293.305,231.466,294.474,230.297,295.915,230.297
		L295.915,230.297z"/>
	<path fill-rule="evenodd" clip-rule="evenodd" fill="#1B449C" d="M297.189,211.451c1.442,0,2.611,1.169,2.611,2.611
		c0,1.442-1.169,2.611-2.611,2.611c-1.442,0-2.61-1.169-2.61-2.611C294.578,212.62,295.747,211.451,297.189,211.451L297.189,211.451
		z"/>
	<path fill-rule="evenodd" clip-rule="evenodd" fill="#1B449C" d="M235.812,286.07c1.441,0,2.61,1.169,2.61,2.611
		s-1.169,2.61-2.61,2.61c-1.442,0-2.611-1.169-2.611-2.61S234.37,286.07,235.812,286.07L235.812,286.07z"/>
	<path fill-rule="evenodd" clip-rule="evenodd" fill="#1B449C" d="M212.891,291.673c1.442,0,2.611,1.169,2.611,2.611
		c0,1.441-1.17,2.61-2.611,2.61c-1.442,0-2.61-1.169-2.61-2.61C210.281,292.842,211.45,291.673,212.891,291.673L212.891,291.673z"/>
	<path fill-rule="evenodd" clip-rule="evenodd" fill="#1B449C" d="M184.622,291.928c1.442,0,2.611,1.169,2.611,2.61
		c0,1.442-1.169,2.611-2.611,2.611c-1.442,0-2.61-1.169-2.61-2.611C182.012,293.097,183.181,291.928,184.622,291.928
		L184.622,291.928z"/>
	<path fill-rule="evenodd" clip-rule="evenodd" fill="#1B449C" d="M199.139,283.269c1.442,0,2.611,1.169,2.611,2.611
		c0,1.442-1.169,2.611-2.611,2.611c-1.442,0-2.611-1.169-2.611-2.611C196.528,284.438,197.698,283.269,199.139,283.269
		L199.139,283.269z"/>
	<path fill-rule="evenodd" clip-rule="evenodd" fill="#1B449C" d="M162.975,284.797c1.442,0,2.61,1.169,2.61,2.61
		c0,1.442-1.169,2.611-2.61,2.611c-1.442,0-2.611-1.169-2.611-2.611C160.364,285.966,161.533,284.797,162.975,284.797
		L162.975,284.797z"/>
	<path fill-rule="evenodd" clip-rule="evenodd" fill="#1B449C" d="M148.204,273.082c1.442,0,2.611,1.169,2.611,2.611
		c0,1.441-1.17,2.61-2.611,2.61c-1.442,0-2.611-1.169-2.611-2.61C145.593,274.251,146.762,273.082,148.204,273.082L148.204,273.082z
		"/>
	<path fill-rule="evenodd" clip-rule="evenodd" fill="#1B449C" d="M126.557,263.659c1.442,0,2.61,1.169,2.61,2.611
		c0,1.442-1.169,2.611-2.61,2.611c-1.442,0-2.611-1.169-2.611-2.611C123.946,264.828,125.115,263.659,126.557,263.659
		L126.557,263.659z"/>
	<path fill-rule="evenodd" clip-rule="evenodd" fill="#1B449C" d="M117.898,247.869c1.442,0,2.61,1.169,2.61,2.61
		c0,1.442-1.169,2.611-2.61,2.611c-1.442,0-2.611-1.169-2.611-2.611C115.287,249.038,116.456,247.869,117.898,247.869
		L117.898,247.869z"/>
	<path fill-rule="evenodd" clip-rule="evenodd" fill="#1B449C" d="M101.599,230.042c1.442,0,2.61,1.169,2.61,2.61
		c0,1.441-1.169,2.611-2.61,2.611c-1.442,0-2.611-1.17-2.611-2.611C98.988,231.211,100.157,230.042,101.599,230.042L101.599,230.042
		z"/>
	<path fill-rule="evenodd" clip-rule="evenodd" fill="#1B449C" d="M100.58,211.196c1.442,0,2.611,1.169,2.611,2.611
		c0,1.442-1.169,2.61-2.611,2.61c-1.442,0-2.611-1.169-2.611-2.61C97.969,212.365,99.139,211.196,100.58,211.196L100.58,211.196z"/>
	<path fill-rule="evenodd" clip-rule="evenodd" fill="#1B449C" d="M275.305,207.873h-14.348v-25.619l-6.535,25.619h-10.681v-64.046
		h14.347v25.619l6.536-25.619h10.681V207.873L275.305,207.873z M238.485,207.873h-11.564l-6.268-16.711l-0.122,16.711h-10.956
		v-16.711l-6.39,16.711h-11.564l9.434-21.717l-8.399-19.04h10.955l5.842,16.07l0.122-16.07h10.956v16.07l5.964-16.07h10.956
		l-8.399,19.04L238.485,207.873L238.485,207.873z M187.068,207.873h-10.955v-16.768h-2.435v16.768h-10.956v-40.757h10.956v16.186
		h2.435v-16.186h10.955V207.873L187.068,207.873z M140.346,184.084l-1.694-24.887h-0.887l-1.371,24.887H140.346L140.346,184.084z
		 M156.315,207.873h-14.518l-0.887-11.529h-5l-0.726,11.529h-14.518l7.743-64.046h22.26L156.315,207.873L156.315,207.873z"/>
	<path fill-rule="evenodd" clip-rule="evenodd" d="M180.892,321.438c-0.193,0.128-0.404,0.239-0.63,0.332
		c-0.038,0.016-0.079,0.032-0.121,0.048v-2.717c0.166-0.093,0.325-0.203,0.473-0.327c0.477-0.401,0.763-0.931,0.86-1.59h3.489
		v18.045h-4.07V321.438L180.892,321.438z M192.133,330.559v2.457c0,0.028,0.004,0.057,0.012,0.086
		c0.008,0.028,0.02,0.057,0.036,0.086c0.033,0.085,0.101,0.168,0.206,0.246c0.105,0.079,0.247,0.118,0.424,0.118
		c0.162,0,0.291-0.039,0.388-0.118c0.097-0.078,0.161-0.161,0.193-0.246c0.016-0.029,0.028-0.058,0.036-0.086
		c0.008-0.028,0.013-0.057,0.013-0.086v-4.714c-0.647,0.516-1.235,0.835-1.769,0.957c-0.533,0.121-0.953,0.183-1.26,0.183
		c-0.888,0-1.49-0.222-1.805-0.667c-0.315-0.444-0.493-0.931-0.545-1.46c-0.012-0.129-0.028-0.262-0.036-0.398
		c-0.008-0.136-0.012-0.268-0.012-0.397v-6.565c0-0.071,0-0.147,0-0.226c0-0.079,0-0.161,0-0.247c0-0.129,0.004-0.272,0.012-0.43
		c0.008-0.158,0.036-0.315,0.085-0.473c0.097-0.415,0.348-0.802,0.751-1.16c0.404-0.358,1.115-0.537,2.132-0.537h3.44
		c1.066,0,1.805,0.197,2.216,0.591c0.412,0.393,0.666,0.827,0.763,1.299c0.048,0.215,0.076,0.423,0.085,0.623
		c0.008,0.201,0.012,0.387,0.012,0.559v12.61c0,0.974-0.194,1.661-0.581,2.062c-0.388,0.401-0.808,0.659-1.26,0.774
		c-0.226,0.043-0.448,0.072-0.667,0.086c-0.218,0.015-0.416,0.022-0.593,0.022l-3.319,0.021c0-0.014-0.008-0.021-0.024-0.021
		c-0.161,0-0.343-0.004-0.545-0.011c-0.202-0.007-0.408-0.032-0.618-0.076c-0.452-0.1-0.872-0.344-1.26-0.73
		c-0.387-0.387-0.581-1.096-0.581-2.127v-2.006H192.133L192.133,330.559z M192.085,326.649c0.001,0.172,0.065,0.3,0.194,0.387
		c0.129,0.085,0.267,0.146,0.412,0.172c0.016,0.003,0.036,0,0.06,0c0.024,0,0.044,0,0.06,0c0.178,0,0.328-0.057,0.448-0.172
		c0.121-0.115,0.182-0.244,0.182-0.387v-7.252c0-0.144-0.053-0.269-0.158-0.376c-0.104-0.108-0.262-0.161-0.472-0.161
		c-0.242,0-0.428,0.054-0.557,0.161c-0.129,0.107-0.194,0.233-0.194,0.376L192.085,326.649L192.085,326.649z M205.07,330.559v2.457
		c0,0.028,0.004,0.057,0.012,0.086s0.021,0.057,0.036,0.086c0.033,0.085,0.101,0.168,0.206,0.246
		c0.105,0.079,0.247,0.118,0.424,0.118c0.161,0,0.291-0.039,0.388-0.118c0.097-0.078,0.161-0.161,0.193-0.246
		c0.016-0.029,0.028-0.058,0.036-0.086c0.008-0.028,0.013-0.057,0.013-0.086v-4.714c-0.647,0.516-1.236,0.835-1.769,0.957
		c-0.534,0.121-0.953,0.183-1.26,0.183c-0.889,0-1.49-0.222-1.805-0.667c-0.315-0.444-0.493-0.931-0.545-1.46
		c-0.013-0.129-0.028-0.262-0.036-0.398c-0.008-0.136-0.012-0.268-0.012-0.397v-6.565c0-0.071,0-0.147,0-0.226
		c0-0.079,0-0.161,0-0.247c0-0.129,0.004-0.272,0.012-0.43c0.008-0.158,0.036-0.315,0.085-0.473c0.097-0.415,0.348-0.802,0.751-1.16
		c0.404-0.358,1.114-0.537,2.132-0.537h3.44c1.066,0,1.805,0.197,2.217,0.591c0.412,0.393,0.665,0.827,0.763,1.299
		c0.048,0.215,0.077,0.423,0.085,0.623c0.009,0.201,0.012,0.387,0.012,0.559v12.61c0,0.974-0.194,1.661-0.581,2.062
		c-0.387,0.401-0.807,0.659-1.26,0.774c-0.226,0.043-0.448,0.072-0.666,0.086c-0.218,0.015-0.416,0.022-0.594,0.022l-3.319,0.021
		c0-0.014-0.008-0.021-0.024-0.021c-0.161,0-0.343-0.004-0.545-0.011c-0.202-0.007-0.407-0.032-0.618-0.076
		c-0.452-0.1-0.872-0.344-1.26-0.73c-0.387-0.387-0.581-1.096-0.581-2.127v-2.006H205.07L205.07,330.559z M205.021,326.649
		c0.001,0.172,0.065,0.3,0.194,0.387c0.129,0.085,0.266,0.146,0.412,0.172c0.016,0.003,0.036,0,0.06,0c0.024,0,0.044,0,0.06,0
		c0.178,0,0.328-0.057,0.448-0.172c0.121-0.115,0.182-0.244,0.182-0.387v-7.252c0-0.144-0.053-0.269-0.158-0.376
		c-0.104-0.108-0.262-0.161-0.472-0.161c-0.242,0-0.427,0.054-0.557,0.161c-0.128,0.107-0.194,0.233-0.193,0.376L205.021,326.649
		L205.021,326.649z M214.422,321.438c-0.194,0.128-0.404,0.239-0.63,0.332c-0.043,0.017-0.088,0.034-0.136,0.052v-2.714
		c0.172-0.094,0.334-0.206,0.487-0.335c0.477-0.401,0.763-0.931,0.861-1.59h3.489v18.045h-4.07V321.438L214.422,321.438z"/>
	<path fill-rule="evenodd" clip-rule="evenodd" fill="#39B54B" d="M276.603,215.168c-3.208,6.361-6.907,12.299-11.029,17.737
		H132.849c-4.122-5.438-7.823-11.376-11.031-17.737H276.603L276.603,215.168z"/>
	<path fill-rule="evenodd" clip-rule="evenodd" fill="#1B449C" d="M265.574,232.905c-5.229,6.899-11.139,12.988-17.593,18.097
		h-97.539c-6.454-5.109-12.364-11.197-17.593-18.097H265.574L265.574,232.905z"/>
	<path fill-rule="evenodd" clip-rule="evenodd" fill="#ED1C24" d="M247.981,251.001c-14.126,11.18-30.86,17.667-48.771,17.667
		c-17.911,0-34.642-6.487-48.768-17.667H247.981L247.981,251.001z"/>
</g>
</svg>
