<?xml version="1.0" encoding="utf-8"?>
<!-- Generator: Adobe Illustrator 19.1.0, SVG Export Plug-In . SVG Version: 6.00 Build 0)  -->
<svg version="1.1" id="Layer_1" xmlns="http://www.w3.org/2000/svg" xmlns:xlink="http://www.w3.org/1999/xlink" x="0px" y="0px"
	 viewBox="0 0 500 500" enable-background="new 0 0 500 500" xml:space="preserve">
<g>
	<g>
		<g>
			<path fill-rule="evenodd" clip-rule="evenodd" fill="#0072BC" d="M236.608,490.001c-4.296,0-8.329-2.107-10.792-5.639
				C203.924,452.965,105.58,311.938,94.43,295.955c-4.178-5.988-4.18-12.585-0.004-18.574l35.119-50.361
				c37.346-53.555,94.825-135.981,96.362-138.181c2.42-3.471,6.409-5.543,10.668-5.543c4.282,0,8.301,2.087,10.753,5.585
				c1.777,2.535,128.329,183.994,131.467,188.507c4.164,5.992,4.161,12.584-0.011,18.563l-4.975,7.132
				C282.558,433.913,254.7,473.876,247.398,484.363C244.941,487.894,240.908,490.001,236.608,490.001L236.608,490.001z"/>
			<path fill-rule="evenodd" clip-rule="evenodd" fill="#FFFFFF" d="M373.068,291.965c-2.363,3.384-113.457,162.66-131.389,188.417
				c-2.456,3.528-7.674,3.544-10.148-0.005c-17.201-24.666-119.722-171.685-131.389-188.409c-2.465-3.534-2.471-7.061-0.001-10.603
				c7.585-10.877,129.22-185.303,131.478-188.539c2.399-3.439,7.571-3.411,10.001,0.055s128.914,184.834,131.453,188.485
				C375.538,284.913,375.531,288.437,373.068,291.965z"/>
			<path fill-rule="evenodd" clip-rule="evenodd" fill="#004A93" d="M237.919,471.957c-0.723,1.037-1.905,1.037-2.628,0
				L107.377,288.532c-0.722-1.036-0.722-2.732,0-3.768L235.291,101.34c0.723-1.036,1.906-1.036,2.628,0l127.914,183.424
				c0.723,1.035,0.723,2.731,0,3.768L237.919,471.957z"/>
			<path fill-rule="evenodd" clip-rule="evenodd" fill="#0072BC" d="M237.098,466.218c-0.271,0.389-0.714,0.389-0.986,0
				L111.379,287.355c-0.272-0.389-0.272-1.025,0-1.415L236.112,107.08c0.272-0.389,0.715-0.389,0.986,0L361.83,285.941
				c0.271,0.389,0.271,1.025,0,1.415L237.098,466.218z"/>
		</g>
		<g>
			<path fill-rule="evenodd" clip-rule="evenodd" fill="#004A93" d="M326.912,280.195c-1.087-36.261-26.901-61.785-61.064-70.272
				c1.535-3.816,2.915-7.831,3.616-11.262c2.42-11.836-1.844-19.478-10.113-20.921c-12.995-2.27-29.587,9.29-36.146,30.156
				c-32.868,4.648-55.659,23.494-63.664,45.305c-7.887,21.485-0.009,39.647,13.892,45.124c14.223,5.603,27.42-2.035,31.301-11.901
				c-0.76-0.555-3.665-2.693-3.665-2.693s-1.071,1.271-2.038,0.781c-8.065-4.089-13.979-13.63-12.95-27.076
				c1.309-17.101,14.249-32.875,34.648-37.771c-0.984,7.867-1.016,15.787-0.51,23.713c-2.913,1.247-6.057,2.349-9.469,3.272
				c-0.557,3.264-3.983,8.395-3.983,8.395l3.732,2.234c3.686-0.731,7.264-1.754,10.712-3.028c2.271,19.694,6.711,39.293,7.01,58.063
				c0.184,11.551-1.773,24.61-8.304,32.525c-10.564-4.387-18.126-10.041-25.739-11.36c-10.708-1.855-19.476,5.023-18.274,15.206
				c0.879,7.451,9.386,14.216,20.521,14.931c8.773,0.562,18.241-2.322,24.687-6.029c6.566,2.581,14.898,5.211,23.114,5.692
				C295.701,366.295,328.235,324.355,326.912,280.195z M251.57,192.822c4.167,0.997,4.637,7.214,1.555,14.784
				c-1.645-0.195-3.304-0.358-4.975-0.479c-4.632-0.334-9.123-0.406-13.471-0.243C239.236,195.428,246.807,191.685,251.57,192.822z
				 M231.732,218.156c1.966-0.08,3.978-0.075,6.043,0.037c3.361,0.183,6.611,0.636,9.741,1.33
				c-3.748,6.189-8.628,12.086-15.281,17.012C231.162,230.582,230.855,224.249,231.732,218.156z M195.966,355.46
				c-4.804-0.321-9.127-2.736-9.617-6.006c-0.461-3.086,2.007-4.979,5.226-4.92c4.708,0.089,12.094,5.404,17.935,8.203
				C205.439,354.901,199.961,355.727,195.966,355.46z M280.767,332.073c-11.366,13.681-28.922,20.223-46.869,16.986
				c16.955-15.207,28.984-47.567,29.38-74.847c-1.148-1.096-3.657-2.677-3.657-2.677s-0.223,1.413-1.038,1.077
				c-6.568-2.703-14.135-7.78-19.217-16.197c-1.547-2.56-2.995-5.638-4.231-9.051c9.998-6.314,18.227-14.773,23.865-23.998
				c15.597,7.111,27.031,20.735,32.479,36.58C300.855,287.217,294.776,315.21,280.767,332.073z"/>
			<path fill-rule="evenodd" clip-rule="evenodd" fill="#FFFFFF" d="M323.262,277.517c-1.085-36.254-26.893-61.775-61.046-70.267
				c1.562-3.946,2.831-8.043,3.44-11.67c2.062-12.254-1.685-19.075-9.955-20.519c-12.994-2.269-29.587,9.29-36.146,30.157
				c-32.868,4.648-55.658,23.494-63.664,45.305c-7.888,21.484-0.01,39.647,13.893,45.124c14.221,5.602,27.419-2.036,31.3-11.903
				c-10.762-1.912-19.912-12.523-18.652-28.988c1.308-17.101,14.249-32.875,34.648-37.772c-0.975,7.788-1.013,15.629-0.524,23.474
				c-2.91,1.236-6.049,2.329-9.455,3.25c-0.938,5.498-0.25,10.889-0.25,10.889c3.685-0.731,7.263-1.754,10.713-3.028
				c2.27,19.694,6.709,39.292,7.008,58.064c0.185,11.551-1.773,24.61-8.303,32.525c-10.564-4.387-18.126-10.041-25.739-11.36
				c-10.708-1.855-19.476,5.023-18.274,15.206c0.878,7.451,9.386,14.216,20.521,14.931c8.772,0.562,18.241-2.321,24.687-6.029
				c6.566,2.581,14.898,5.21,23.116,5.692C292.05,363.617,324.587,321.677,323.262,277.517z M248.03,189.969
				c4.268,1.098,5.231,7.236,1.923,15.016c-1.801-0.223-3.619-0.405-5.453-0.537c-4.63-0.334-9.121-0.406-13.468-0.243
				C235.622,192.661,243.284,188.746,248.03,189.969z M228.082,215.478c1.967-0.08,3.979-0.076,6.043,0.037
				c3.357,0.183,6.603,0.635,9.73,1.327c-3.752,6.158-8.636,11.989-15.298,16.86C227.507,227.793,227.214,221.517,228.082,215.478z
				 M192.317,352.782c-4.805-0.321-9.127-2.736-9.617-6.007c-0.462-3.085,2.006-4.979,5.226-4.919
				c4.709,0.089,12.093,5.404,17.934,8.203C201.79,352.223,196.313,353.049,192.317,352.782z M277.117,329.394
				c-11.366,13.682-28.92,20.224-46.868,16.986c16.954-15.207,28.983-47.567,29.379-74.846c-7.315-1.97-17.556-7.272-23.912-17.797
				c-1.545-2.56-2.994-5.638-4.231-9.052c9.999-6.313,18.228-14.772,23.865-23.997c15.597,7.111,27.032,20.735,32.479,36.58
				C297.205,284.538,291.126,312.532,277.117,329.394z"/>
		</g>
		<g>
			<g>
				<path fill="#004A93" d="M220.871,405.784l-2.664-2.007l-3.4-8.636l-3.639,4.366v6.277h-3.274l-2.657-2.007l2.657-1.308v-18.273
					l0.612-2.007l2.662,2.007v9.808l9.182-11.184l0.982-0.63l2.662,2.007l-7.004,8.46l7.731,13.128H220.871z"/>
				<path fill="#004A93" d="M240.548,405.784l-2.658-2.004l2.658-13.671l-9.671,15.675h-2.972l-2.662-2.007l2.662-19.581
					l0.614-1.996l2.66,1.996v14.521l9.98-16.52l2.663,1.999v21.587H240.548z"/>
				<path fill="#004A93" d="M246.966,381.148l-2.636-2.005l2.948-3.269l2.67,2v3.274H246.966z M250.281,405.784l-2.662-1.973
					l3.261-21.614l2.675,1.999v21.587H250.281z M253.707,381.148l-2.644-2.007l2.954-3.295l2.657,2.029v3.274H253.707z"/>
				<path fill="#004A93" d="M268.352,405.784h-8.732l-2.663-2.002l2.663-19.586l10.179-0.646c0,0,1.819,1.222,2.957,2.238
					c1.136,1.016,1.782,2.47,1.782,4.23c0,2.183-1,3.759-2.911,4.699c2.123,1.002,3.245,2.547,3.245,5.003
					C274.87,403.449,272.384,405.784,268.352,405.784z M267.744,387.138h-4.85v5.567h4.85c2.184,0,2.716-0.535,2.716-2.475
					S269.928,387.138,267.744,387.138z M268.018,396.264h-5.125v6.579h5.125c2.182,0,3.547-1.273,3.547-3.304
					C271.565,397.537,270.201,396.264,268.018,396.264z"/>
			</g>
			<g>
				<path fill="#FFFFFF" d="M218.207,403.778l-6.064-10.641l-3.638,4.365v6.276h-3.274v-21.587h3.274v10.854l8.822-10.854h4.002
					l-7.004,8.46l7.731,13.128H218.207z"/>
				<path fill="#FFFFFF" d="M237.885,403.778v-15.674l-9.671,15.674h-2.972v-21.587h3.274v15.646l9.642-15.646h3.002v21.587H237.885
					z"/>
				<path fill="#FFFFFF" d="M244.328,379.144v-3.275h2.956v3.275H244.328z M247.618,403.778v-21.587h3.275v21.587H247.618z
					 M251.043,379.144v-3.275h2.959v3.275H251.043z"/>
				<path fill="#FFFFFF" d="M265.688,403.778h-8.732v-21.587h8.399c3.941,0,6.519,2.305,6.519,5.822c0,2.184-1.002,3.76-2.911,4.699
					c2.123,1.002,3.245,2.548,3.245,5.003C272.207,401.443,269.721,403.778,265.688,403.778z M265.082,385.132h-4.85v6.185h4.85
					c2.184,0,3.517-1.153,3.517-3.092C268.6,386.285,267.266,385.132,265.082,385.132z M265.355,394.258h-5.123v6.579h5.123
					c2.184,0,3.548-1.273,3.548-3.305C268.903,395.531,267.539,394.258,265.355,394.258z"/>
			</g>
		</g>
	</g>
	<g>
		<g>
			<path fill="#E8B134" d="M226.24,31.938c-0.798,0-13.566,0-24.178,0c-3.36-10.407-7.139-22.134-7.404-22.983
				c-0.483-1.548-2.427-1.571-2.915-0.003c-0.236,0.763-4.182,12.895-7.463,22.986c-10.612,0-23.38,0-24.18,0
				c-1.63,0-2.184,1.838-0.897,2.772c0.639,0.463,10.965,7.953,19.564,14.19c-3.276,10.081-7.205,22.173-7.451,22.932
				c-0.502,1.551,1.074,2.645,2.36,1.71c0.637-0.462,10.903-7.935,19.479-14.177c8.581,6.246,18.871,13.737,19.508,14.2
				c1.287,0.936,2.864-0.159,2.36-1.709c-0.246-0.759-4.181-12.865-7.456-22.951c8.599-6.236,18.932-13.73,19.569-14.194
				C228.425,33.776,227.87,31.938,226.24,31.938z"/>
			<g>
				<polygon fill="#C58C30" points="183.279,47.426 167.213,35.778 159.204,34.71 178.768,48.899 				"/>
				<polygon fill="#C58C30" points="199.265,35.777 199.265,35.777 202.061,31.938 194.658,8.955 193.191,16.936 				"/>
				<polygon fill="#C58C30" points="177.166,66.251 173.676,73.541 193.155,59.364 193.157,54.617 				"/>
				<path fill="#C58C30" d="M227.755,32.893c-0.383,0.133-6.305,2.108-8.632,2.883h0.003l-16.072,11.654l6.12,18.84
					c1.933,2.665,5.315,7.336,5.34,7.37c0.493-0.351,0.76-1.012,0.509-1.787c-0.246-0.759-4.181-12.865-7.456-22.951
					c8.599-6.236,18.932-13.73,19.569-14.194C227.811,34.221,227.98,33.485,227.755,32.893z"/>
			</g>
		</g>
		<g>
			<path fill="#E8B134" d="M313.107,31.938c-0.798,0-13.566,0-24.178,0c-3.36-10.407-7.139-22.134-7.402-22.983
				c-0.483-1.548-2.429-1.571-2.916-0.003c-0.236,0.763-4.18,12.895-7.461,22.986c-10.614,0-23.382,0-24.181,0
				c-1.63,0-2.184,1.838-0.895,2.772c0.637,0.463,10.965,7.953,19.564,14.19c-3.277,10.081-7.207,22.173-7.451,22.932
				c-0.504,1.551,1.072,2.645,2.358,1.71c0.637-0.462,10.903-7.935,19.479-14.177c8.581,6.246,18.871,13.737,19.51,14.2
				c1.286,0.936,2.862-0.159,2.358-1.709c-0.246-0.759-4.18-12.865-7.456-22.951c8.599-6.236,18.932-13.73,19.569-14.194
				C315.291,33.776,314.738,31.938,313.107,31.938z"/>
			<g>
				<polygon fill="#C58C30" points="270.146,47.426 254.081,35.778 246.073,34.71 265.637,48.899 				"/>
				<polygon fill="#C58C30" points="286.133,35.777 286.133,35.777 288.929,31.938 281.527,8.955 280.059,16.936 				"/>
				<polygon fill="#C58C30" points="264.033,66.251 260.544,73.541 280.023,59.364 280.026,54.617 				"/>
				<path fill="#C58C30" d="M314.623,32.893c-0.383,0.133-6.305,2.108-8.63,2.883h0.002l-16.07,11.654l6.12,18.84
					c1.931,2.665,5.315,7.336,5.34,7.37c0.491-0.351,0.76-1.012,0.507-1.787c-0.246-0.759-4.18-12.865-7.456-22.951
					c8.599-6.236,18.932-13.73,19.569-14.194C314.679,34.221,314.848,33.485,314.623,32.893z"/>
			</g>
		</g>
	</g>
</g>
</svg>
