<?xml version="1.0" encoding="utf-8"?>
<!-- Generator: Adobe Illustrator 19.1.0, SVG Export Plug-In . SVG Version: 6.00 Build 0)  -->
<svg version="1.1" id="Layer_1" xmlns="http://www.w3.org/2000/svg" xmlns:xlink="http://www.w3.org/1999/xlink" x="0px" y="0px"
	 viewBox="0 0 400 400" enable-background="new 0 0 400 400" xml:space="preserve">
<g>
	<path fill="#0D0B0B" d="M197.832,6.184c15.912-0.075,31.851,1.802,47.259,5.81c29.018,7.477,56.072,22.336,78.016,42.729
		c21.128,19.525,37.533,44.133,47.387,71.168c14.836,40.408,14.66,86.087-0.512,126.374c-10.667,28.578-28.698,54.348-51.835,74.223
		c-27.856,24.097-63.199,39.463-99.87,43.098c0.441-1.667,0.835-3.345,1.197-5.027l0.075-0.011
		c18.031-2.141,35.765-6.908,52.32-14.381c25.605-11.48,48.377-29.168,65.892-51.086c21.997-27.381,35.607-61.457,38.203-96.506
		c-3.534,2.577-7.059,5.162-10.619,7.706c1.381,4.823,2.815,9.632,4.252,14.437c-3.898-2.833-7.815-5.644-11.691-8.507
		c-4.214,2.694-8.24,5.67-12.428,8.406c1.475-4.587,2.969-9.162,4.473-13.738c-3.962-3.055-7.931-6.103-11.897-9.151
		c4.824-0.007,9.651-0.007,14.475,0.004c1.749-4.628,3.198-9.372,5.079-13.948c1.565,4.5,2.957,9.057,4.462,13.58
		c4.685,0.056,9.358,0.388,14.046,0.365c1.716-24.247-1.369-48.858-9.426-71.811c-8.406-24.093-22.117-46.315-39.877-64.636
		c-17.816-18.509-39.712-33.066-63.684-42.304C242.77,15.128,220.931,11.042,199.1,11.2c0.03,3.138,0.004,6.28,0.019,9.422
		c1.381,0.041,2.762,0.083,4.139,0.132c-0.06,2.769-0.207,5.539-0.23,8.312c0.516-0.007,1.035-0.015,1.554-0.023
		c0.079-2.743,0.151-5.49,0.229-8.233c4.244,0.158,8.489,0.301,12.733,0.437c-0.158,8.489-0.681,16.97-0.778,25.458
		c2.092-8.466,4.188-16.932,6.329-25.387c3.958,0.952,7.898,1.987,11.856,2.935c-0.678,2.995-1.479,5.96-2.194,8.944
		c3.713,0.99,7.608,2.563,9.742,5.96c0.952-4.075,2.021-8.12,2.991-12.195c3.981,0.85,7.913,1.912,11.864,2.897
		c-2.321,9.241-4.624,18.49-6.912,27.742c-3.928-0.967-7.853-1.949-11.773-2.942c0.267-1.257,0.553-2.51,0.843-3.759
		c-3.161,2.002-7.108,2.167-10.667,1.309c-3.985-0.918-7.913-2.069-11.917-2.905c-0.602,0.282-1.23,0.545-1.907,0.478
		c-3.721-0.079-7.439-0.301-11.16-0.395c0.097-2.909,0.173-5.814,0.23-8.722c-0.512-0.004-1.02-0.007-1.528-0.011
		c-0.064,2.886-0.203,5.776-0.271,8.662c-1.061-0.019-2.119-0.045-3.176-0.068c-0.004,0.779,0,1.558,0,2.337
		c-21.978,0.026-43.949,5.407-63.379,15.694c-25.15,13.188-45.984,34.421-58.679,59.823c-3.65,7.175-6.521,14.72-8.918,22.399
		c0.956,0.305,1.93,0.534,2.909,0.771c-1.001,4.109-1.844,8.259-2.909,12.353c-0.993-0.256-1.994-0.481-2.984-0.741
		c-3.108,15.766-3.409,32.069-0.899,47.941c4.651,30.117,19.871,58.431,42.308,79.036c17.945,16.665,40.464,28.36,64.44,33.379
		c0.715,0.027,1.242,0.519,1.351,1.223c3.394,13.771,6.739,27.554,10.046,41.348c-24.431-2.209-48.339-9.756-69.719-21.771
		c-22.418-12.579-42.044-30.095-57.08-50.947c-15.755-21.749-26.445-47.14-30.945-73.617c-4.131-24.183-3.228-49.22,2.698-73.027
		c6.178-24.958,17.955-48.493,34.135-68.47c17.639-21.85,40.536-39.433,66.228-50.782c21.285-9.429,44.46-14.576,67.736-15.013
		c0.786-0.034,1.58-0.09,2.37-0.147c-0.019-1.588-0.019-3.172,0.004-4.76L197.832,6.184L197.832,6.184z"/>
	<path fill="#ED1C24" d="M120.64,24.064c23.988-11.533,50.571-17.711,77.188-17.786c-0.023,1.588-0.023,3.172-0.004,4.76
		c-0.79,0.057-1.584,0.113-2.37,0.147c-23.276,0.437-46.451,5.584-67.736,15.013C102.026,37.546,79.13,55.129,61.49,76.979
		c-16.18,19.976-27.957,43.512-34.135,68.47c-5.926,23.807-6.83,48.844-2.698,73.027c4.5,26.478,15.19,51.869,30.945,73.617
		c15.036,20.853,34.662,38.368,57.08,50.947c21.38,12.014,45.288,19.562,69.719,21.771c0.387,1.698,0.798,3.386,1.204,5.084
		c-25.782-2.186-51.071-9.982-73.594-22.719c-24.341-13.7-45.435-33.097-61.178-56.163c-17.542-25.616-28.348-55.804-30.937-86.753
		c-1.772-20.469-0.124-41.247,4.978-61.159c7.153-28.062,21.192-54.322,40.491-75.905C79.363,49.233,98.94,34.457,120.64,24.064
		L120.64,24.064z"/>
	<path fill="#ED1C24" d="M199.1,11.2c21.831-0.158,43.67,3.928,64.034,11.777c23.972,9.238,45.867,23.795,63.684,42.304
		c17.76,18.32,31.471,40.543,39.877,64.636c8.057,22.953,11.142,47.564,9.426,71.811c-4.688,0.023-9.362-0.308-14.046-0.365
		c-1.505-4.523-2.897-9.08-4.462-13.58c-1.881,4.576-3.33,9.32-5.079,13.948c-4.824-0.011-9.651-0.011-14.475-0.004
		c3.966,3.048,7.936,6.096,11.897,9.151c-1.505,4.576-2.998,9.151-4.473,13.738c4.188-2.736,8.214-5.712,12.428-8.406
		c3.876,2.863,7.793,5.674,11.691,8.507c-1.437-4.805-2.871-9.614-4.252-14.437c3.56-2.544,7.085-5.129,10.619-7.706
		c-2.596,35.049-16.206,69.125-38.203,96.506c-17.515,21.918-40.287,39.606-65.892,51.086c-16.556,7.473-34.289,12.24-52.32,14.381
		c3.126-13.496,6.517-26.933,9.753-40.408c0.158-1.012,0.79-1.833,1.422-2.6c23.125-5.332,44.72-17.011,62.017-33.239
		c14.791-13.798,26.463-30.918,33.875-49.739c9.339-23.543,11.815-49.709,7.318-74.618c-2.807-15.589-8.376-30.67-16.364-44.347
		c-13.651-23.487-34.455-42.74-58.947-54.499c-18.471-8.948-38.997-13.538-59.511-13.512c0-0.779-0.004-1.558,0-2.337
		c1.057,0.023,2.114,0.049,3.176,0.068c0.068-2.886,0.207-5.776,0.271-8.662c0.508,0.004,1.016,0.008,1.528,0.011
		c-0.057,2.909-0.132,5.814-0.23,8.722c3.721,0.094,7.439,0.316,11.16,0.395c0.677,0.068,1.306-0.196,1.907-0.478
		c4.004,0.835,7.932,1.987,11.917,2.905c3.559,0.858,7.506,0.693,10.667-1.309c-0.29,1.249-0.576,2.502-0.843,3.759
		c3.921,0.993,7.845,1.975,11.773,2.942c2.288-9.252,4.591-18.501,6.912-27.742c-3.951-0.986-7.883-2.047-11.864-2.897
		c-0.971,4.075-2.04,8.12-2.991,12.195c-2.134-3.398-6.028-4.97-9.742-5.96c0.715-2.984,1.516-5.949,2.194-8.944
		c-3.958-0.948-7.898-1.983-11.856-2.935c-2.141,8.455-4.237,16.921-6.329,25.387c0.097-8.488,0.621-16.969,0.778-25.458
		c-4.244-0.135-8.489-0.279-12.733-0.437c-0.079,2.743-0.151,5.49-0.229,8.233c-0.519,0.007-1.038,0.015-1.554,0.023
		c0.023-2.773,0.17-5.543,0.23-8.312c-1.377-0.049-2.758-0.09-4.139-0.132C199.104,17.479,199.13,14.338,199.1,11.2L199.1,11.2z"/>
	<path fill="#FFFFFF" d="M192.353,22.292c2.98,0.041,5.953,0.252,8.936,0.301c-0.045,2.762-0.181,5.52-0.289,8.281
		c1.81,0.068,3.619,0.12,5.433,0.132c0.068-2.717,0.136-5.433,0.23-8.146c2.976-0.012,5.952,0.158,8.929,0.226
		c-0.256,8.259-0.572,16.514-0.847,24.774c-2.98-0.087-5.952-0.211-8.929-0.316c0.022-2.909,0.278-5.802,0.32-8.711
		c-1.817-0.041-3.639-0.124-5.456-0.109c-0.03,2.882-0.165,5.761-0.229,8.643c-2.976-0.094-5.953-0.245-8.929-0.323
		C191.759,38.792,192.135,30.548,192.353,22.292L192.353,22.292z"/>
	<path fill="#FFFFFF" d="M224.431,23.643c2.754,0.61,5.482,1.336,8.214,2.036c-0.7,2.987-1.508,5.949-2.193,8.944
		c3.359,0.828,7.017,1.682,9.463,4.32c1.625,1.716,1.607,4.342,0.911,6.465c-0.553,1.964-1.859,3.8-3.77,4.62
		c-2.57,1.08-5.46,0.877-8.116,0.245c-3.485-0.85-6.957-1.753-10.446-2.596C220.427,39.653,222.527,31.673,224.431,23.643
		L224.431,23.643z"/>
	<path fill="#FFFFFF" d="M161.842,26.713c2.754-0.625,5.527-1.181,8.319-1.614c0.583,2.995,1.118,6.005,1.769,8.989
		c3.439-0.643,7.134-1.452,10.505-0.049c1.957,0.843,3.029,2.894,3.368,4.907c0.286,1.904,0.282,4.018-0.869,5.655
		c-1.75,2.438-4.681,3.661-7.529,4.263c-3.597,0.711-7.194,1.422-10.795,2.1C164.961,42.893,163.497,34.784,161.842,26.713
		L161.842,26.713z"/>
	<path fill="#FFFFFF" d="M133.828,35.236c6.987-2.325,13.903-4.869,20.913-7.127c2.63,7.808,5.385,15.574,8.007,23.385
		c-2.796,0.986-5.606,1.942-8.413,2.908c-1.983-5.644-3.898-11.314-5.858-16.962c-1.43,0.433-2.834,0.933-4.237,1.437
		c1.197,3.808,2.796,7.51,3.499,11.458c0.305,2.058,0.387,4.406-0.982,6.125c-1.877,2.269-4.937,3.037-7.721,3.469
		c-0.779-2.442-1.678-4.843-2.468-7.281c0.485-0.339,1.08-0.579,1.448-1.061c0.76-1.178,0.384-2.657,0.038-3.909
		C136.692,43.517,135.164,39.409,133.828,35.236L133.828,35.236z"/>
	<path fill="#0D0B0B" d="M271.532,28.35c2.551,1.136,4.941,2.585,7.428,3.849c-0.38,0.76-0.757,1.52-1.091,2.303
		c1.042-0.052,1.242-1.208,1.723-1.919c2.484,1.212,4.888,2.589,7.352,3.846c-0.681,1.467-1.407,2.995-2.683,4.049
		c-0.85,0.73-1.937,1.065-2.976,1.426c2.213,1.114,4.383,2.306,6.574,3.462c-4.444,8.425-8.944,16.819-13.399,25.236
		c-3.789-1.927-7.518-3.97-11.269-5.964c0.726-1.434,1.517-2.837,2.22-4.282c-1.456,1.005-2.807,2.148-4.2,3.24
		c-3.559-1.904-7.142-3.763-10.678-5.708c4.493-8.395,8.948-16.808,13.414-25.218c2.119,1.084,4.211,2.22,6.31,3.338
		c-0.267-1.114-0.586-2.257-0.422-3.413C270.02,31.055,270.855,29.712,271.532,28.35L271.532,28.35z"/>
	<path fill="#FFFFFF" d="M246.909,29.234c2.716,0.658,5.437,1.298,8.131,2.036c-2.043,7.996-3.977,16.021-6.016,24.017
		c-2.679-0.662-5.35-1.355-8.037-1.987C242.815,45.245,244.964,37.264,246.909,29.234L246.909,29.234z"/>
	<path fill="#FFFFFF" d="M272.405,30.834c1.268,0.734,2.562,1.426,3.872,2.088c-0.094,0.771-0.455,1.618-0.03,2.351
		c0.643,0.828,1.731,1.407,2.803,1.204c0.553-0.327,0.959-0.832,1.452-1.238c1.363,0.595,2.653,1.351,3.944,2.092
		c-0.753,1.087-1.663,2.19-3.018,2.502c-3.853,0.779-8.154-1.46-9.531-5.181C271.396,33.373,271.837,32.008,272.405,30.834
		L272.405,30.834z"/>
	<path fill="#FFFFFF" d="M264.721,35.262c2.664,1.309,5.238,2.803,7.891,4.139c-1.952,3.909-4.09,7.721-6.103,11.596
		c3.68-2.939,7.182-6.118,10.934-8.959c2.657,1.268,5.196,2.777,7.831,4.101c-3.816,7.319-7.767,14.569-11.589,21.888
		c-2.664-1.336-5.268-2.773-7.898-4.166c1.825-3.638,3.842-7.183,5.678-10.818c-3.499,2.747-6.972,5.524-10.464,8.282
		c-2.619-1.415-5.268-2.785-7.879-4.211C256.985,49.831,260.88,42.558,264.721,35.262L264.721,35.262z"/>
	<path fill="#0D0B0B" d="M172.964,39.563c1.084-0.203,2.19-0.595,3.304-0.388c0.907,0.256,1.016,1.313,1.264,2.062
		c-0.173,0.402-0.342,0.809-0.504,1.212c-1.046,0.47-2.174,0.674-3.285,0.903C173.435,42.099,173.201,40.831,172.964,39.563
		L172.964,39.563z"/>
	<path fill="#0D0B0B" d="M229.126,39.969c1.084,0.395,2.393,0.406,3.247,1.261c0.7,1.054,0.165,2.788-1.106,3.138
		c-1.046-0.026-2.051-0.369-3.059-0.609C228.423,42.475,228.761,41.218,229.126,39.969L229.126,39.969z"/>
	<path fill="#ED1C24" d="M274.264,40.458c0.441,0.151,0.888,0.309,1.332,0.463c-0.881,0.82-1.814,1.577-2.781,2.291
		C273.289,42.291,273.779,41.377,274.264,40.458L274.264,40.458z"/>
	<path fill="#FFFFFF" d="M116.181,45.128c3.424-0.617,7.085,0.252,9.877,2.322c3.597,2.555,5.637,7.1,5.177,11.487
		c-0.466,5.847-5.211,10.972-10.994,11.92c-5.437,1.129-11.442-1.689-13.907-6.701c-1.814-3.507-1.855-7.86-0.188-11.431
		C107.956,48.74,111.884,45.839,116.181,45.128L116.181,45.128z"/>
	<path fill="#0D0B0B" d="M116.192,53.85c2.51-1.091,5.445,0.768,6.118,3.289c0.922,2.401-0.926,5.561-3.62,5.467
		c-3.006,0.169-5.561-3.089-4.764-5.968C114.153,55.404,115.048,54.343,116.192,53.85L116.192,53.85z"/>
	<path fill="#0D0B0B" d="M302.845,55.043c3.135,2.822,6.125,5.802,9.159,8.737c-1.084,1.114-2.168,2.228-3.233,3.36
		c1.663-0.527,3.326-1.054,4.971-1.644c3.514,3.402,7.145,6.694,10.531,10.223c-5.302,1.433-10.64,2.732-15.939,4.165
		c-0.681,4.5-1.599,8.962-2.242,13.467c2.337-1.618,4.64-3.292,7.01-4.865c0.459,0.689,0.926,1.373,1.396,2.058
		c1.836-0.365,3.24-1.663,4.749-2.675c3.251-2.247,6.446-4.576,9.734-6.769c4.892,7.119,9.994,14.095,14.784,21.282
		c-7.812,5.422-15.571,10.923-23.386,16.341c-2.419-3.492-4.892-6.95-7.296-10.456c4.474-3.116,8.917-6.272,13.406-9.37
		c0.553-0.368,1.009-0.858,1.418-1.388c-1.448,0.278-2.498,1.366-3.687,2.137c-2.596,1.769-5.267,3.586-8.342,4.395
		c-2.254,0.602-4.779,0.241-6.648-1.189c-2.054-1.49-3.398-3.729-4.523-5.949c-0.474-1.008-1.354-1.712-2.133-2.464
		c-2.807-2.657-5.516-5.419-8.349-8.049c0.436-1.87,0.956-3.718,1.332-5.603c-1.163,1.17-2.303,2.363-3.432,3.563
		c-3.022-2.927-6.066-5.836-9.038-8.812C289.676,68.709,296.298,61.91,302.845,55.043L302.845,55.043z"/>
	<path fill="#FFFFFF" d="M300.024,60.773c1.001-0.986,1.87-2.118,2.995-2.98c2.13,1.96,4.169,4.026,6.28,6.013
		c-2.401,2.517-4.82,5.008-7.255,7.488c3.782-1.106,7.503-2.412,11.254-3.619c2.311,2.303,4.742,4.496,7.007,6.837
		c0.004,0.068,0.008,0.2,0.008,0.263c-4.527,1.234-9.091,2.326-13.614,3.56c-0.839,4.956-1.753,9.896-2.532,14.859
		c-2.743-2.318-5.177-4.967-7.804-7.409c0.861-3.845,1.945-7.634,2.807-11.48c-2.351,2.412-4.635,4.899-7.063,7.236
		c-2.261-1.836-4.226-4.018-6.336-6.024C290.545,70.624,295.23,65.65,300.024,60.773L300.024,60.773z"/>
	<path fill="#FFFFFF" d="M78.817,74.394c3.82-3.879,7.861-7.544,11.725-11.382c1.614,1.607,3.183,3.258,4.76,4.903
		c-1.998,1.862-3.962,3.763-5.907,5.682c0.564,0.58,1.125,1.163,1.697,1.738c2.483-2.442,5.189-5.121,8.756-5.757
		c2.803-0.489,5.222,1.543,6.694,3.714c1.215,1.705,1.471,3.977,0.79,5.941c-0.851,2.592-2.69,4.715-4.651,6.551
		c-2.307,2.179-4.576,4.399-6.886,6.581c-5.061-5.347-10.235-10.581-15.311-15.909C79.943,75.775,79.002,75.279,78.817,74.394
		L78.817,74.394z"/>
	<path fill="#ED1C24" d="M206.546,76.388c11.947,3.436,23.909,6.826,35.855,10.261c-3.955,12.409-7.86,24.838-11.837,37.243
		c-6.973-7.074-16.394-11.521-26.222-12.786C205.184,99.54,205.76,87.959,206.546,76.388L206.546,76.388z"/>
	<path fill="#ED1C24" d="M153.699,86.646c11.947-3.443,23.908-6.822,35.851-10.261c0.689,11.694,1.509,23.385,2.107,35.087
		c-9.806,1.686-18.934,6.762-25.605,14.14C161.924,112.627,157.789,99.642,153.699,86.646L153.699,86.646z"/>
	<path fill="#0D0B0B" d="M94.978,79.293c0.801-0.764,1.516-1.693,2.581-2.103c1.362-0.218,2.728,1.385,2.13,2.694
		c-0.527,0.877-1.366,1.497-2.081,2.212C96.709,81.182,95.814,80.264,94.978,79.293L94.978,79.293z"/>
	<path fill="#FFFFFF" d="M74.14,79.681c2.265,1.467,4.271,3.315,6.449,4.911c-0.971,1.351-2.028,2.634-3.029,3.962
		c4.38,3.379,8.73,6.803,13.087,10.216c-1.844,2.322-3.657,4.669-5.482,7.006c-4.368-3.402-8.718-6.829-13.098-10.219
		c-1.005,1.306-2.028,2.6-3.04,3.898c-2.148-1.682-4.335-3.319-6.427-5.064C66.461,89.498,70.227,84.527,74.14,79.681L74.14,79.681z
		"/>
	<path fill="#FFFFFF" d="M319.902,89.746c2.875-1.957,5.64-4.094,8.594-5.922c4.252,5.99,8.511,11.988,12.62,18.076
		c-6.777,4.7-13.486,9.49-20.281,14.155c-1.663-2.472-3.477-4.846-5.072-7.363c4.921-3.375,9.783-6.84,14.682-10.254
		c-0.835-1.234-1.701-2.449-2.547-3.676c-3.522,2.329-6.807,5.083-10.69,6.811c-1.832,0.82-4.041,1.253-5.911,0.305
		c-2.465-1.279-3.884-3.834-5.099-6.22c2.059-1.554,4.222-2.957,6.307-4.478c0.647,0.538,1.275,1.321,2.22,1.2
		C316.741,92.267,318.291,90.8,319.902,89.746L319.902,89.746z"/>
	<path fill="#ED1C24" d="M134.186,96.967c1.719-1.419,3.292-3.01,5.11-4.308c6.295,14.547,12.699,29.048,19.032,43.576
		c0.485,0.847-0.124,1.719-0.403,2.517c-5.298,12.887-3.943,28.254,3.507,40.028c5.411,8.677,13.869,15.472,23.611,18.641
		c3.322,7.349,6.475,14.772,9.738,22.147c0.884,1.942,1.618,3.955,2.649,5.828c-0.026-0.631-0.132-1.26-0.309-1.862
		c-2.649-8.293-5.268-16.597-7.909-24.89c2.615,0.587,5.275,0.873,7.943,1.11c0.286,4.421,0.38,8.865,0.926,13.268
		c0.418-4.417,0.512-8.857,0.907-13.278c2.582,0.03,5.162-0.238,7.717-0.625c-2.544,8.101-5.129,16.187-7.702,24.28
		c-0.207,0.633-0.32,1.287-0.354,1.957c1.061-1.851,1.769-3.872,2.66-5.798c3.142-7.074,6.133-14.226,9.366-21.255
		c4.116-1.283,8.169-2.879,11.826-5.196c10.265-6.295,17.756-16.932,20.157-28.74c1.572-7.725,1.125-15.886-1.427-23.355
		c-0.707-2.224-1.78-4.305-2.698-6.438c6.013-14.024,12.221-27.968,18.298-41.966c11.002,9.448,21.858,19.07,32.864,28.518
		c-4.038,4.989-8.335,9.768-12.477,14.675c-25.941,30.252-51.881,60.504-77.824,90.756c-0.779,0.629-0.546,1.599-0.459,2.465
		c-0.305-0.29-0.606-0.58-0.903-0.869c-0.286,0.339-0.564,0.677-0.843,1.02c0.007-0.685,0.023-1.362,0.03-2.036
		c-30.335-35.253-60.527-70.626-90.862-105.882C115.576,113.09,124.925,105.079,134.186,96.967L134.186,96.967z"/>
	<path fill="#FFFFFF" d="M54.717,107.017c1.253-2.378,2.408-4.809,3.687-7.172c5.362,7.661,10.803,15.262,16.127,22.945
		c-1.595,2.976-3.033,6.036-4.658,8.997c-1.276-1.855-2.574-3.699-3.887-5.524c-0.327-0.467-0.978-0.369-1.467-0.463
		c-6.144-0.534-12.278-1.215-18.426-1.723c1.407-3.055,3.048-5.994,4.511-9.019c3.153,0.44,6.288,1.009,9.429,1.524
		c-1.964-2.611-4.207-5.019-6.111-7.676C54.051,108.225,54.413,107.627,54.717,107.017L54.717,107.017z"/>
	<path fill="#0D0B0B" d="M330.663,120.394c5.091-5.159,10.107-10.393,15.258-15.495c1.93,4.357,3.875,8.707,5.805,13.06
		c-1.437,1.339-2.953,2.589-4.387,3.928c2.043,0.038,4.086,0.023,6.13,0.019c1.998,4.399,3.943,8.82,5.904,13.237
		c-10.758-0.711-21.515-1.415-32.273-2.16c-1.93-4.41-3.924-8.79-5.851-13.2C324.387,119.991,327.525,120.171,330.663,120.394
		L330.663,120.394z"/>
	<path fill="#FFFFFF" d="M331.415,122.35c4.651-4.681,9.234-9.433,13.858-14.144c1.384,3.104,2.86,6.175,4.109,9.339
		c-2.431,2.035-4.722,4.233-7.161,6.265c3.345,0.057,6.69-0.06,10.039-0.004c1.325,3.082,2.735,6.126,4.067,9.2
		c-9.283-0.508-18.55-1.309-27.837-1.772c-1.524-3.052-2.781-6.227-4.229-9.313C326.652,121.966,329.026,122.237,331.415,122.35
		L331.415,122.35z"/>
	<path fill="#0D0B0B" d="M210.403,119.468c0.952,0.339,1.881,0.745,2.807,1.155c4.259,1.915,8.225,4.444,11.74,7.514l0.019,0.286
		l0.267-0.09c0.132,0.131,0.391,0.395,0.523,0.527l-0.015,0.117c0.124,0.132,0.376,0.387,0.5,0.519l0.297-0.038l-0.087,0.474
		l0.486-0.124l-0.132,0.516l0.365-0.196c0.068,0.162,0.207,0.478,0.274,0.64c0.572,0.576,1.076,1.215,1.615,1.829
		c0.094,0.184,0.286,0.553,0.384,0.741c-1.964,1.325-3.954,2.622-5.806,4.101c-4.587-3.356-9.196-6.682-13.772-10.05
		c-0.486-0.293-0.978-0.907-1.603-0.579c-3.131,0.873-6.197,1.964-9.335,2.803c-0.165,3.379,0.474,6.72,0.471,10.099
		c4.951,3.537,9.843,7.16,14.787,10.709c-1.961,5.907-3.842,11.841-5.799,17.752c1.972,2.34,3.943,4.681,5.897,7.04
		c0.334,0.564,1.004,0.196,1.486,0.098c2.665-0.869,5.347-1.686,8-2.589c1.738-5.268,3.496-10.532,5.268-15.792
		c0.154-0.501,0.199-1.012,0.128-1.535c2.503-0.252,5.02-0.196,7.534-0.248c-0.057,0.937-0.106,1.878-0.151,2.815
		c-0.625,3.571-1.137,7.21-2.54,10.577c-1.189,3.014-2.691,5.892-4.44,8.617l-0.305,0.304c-1.983-1.426-3.882-2.961-5.824-4.444
		c-2.916,0.971-5.855,1.87-8.779,2.807c-1.971,2.721-4.011,5.388-6.005,8.094c0.73,2.051,1.441,4.109,2.186,6.156
		c0.015,0.196,0.045,0.587,0.06,0.783c-1.114,0.305-2.257,0.5-3.383,0.723c0.395,0.128,1.193,0.387,1.592,0.516
		c-0.899-0.117-1.885-0.591-2.717-0.011c0.523,0.075,1.569,0.229,2.092,0.308c-0.952,0.061-1.888-0.09-2.784-0.384
		c-0.282,0.052-0.843,0.162-1.125,0.214c-0.023,0.075-0.068,0.233-0.091,0.309c0.741,0.094,1.483,0.207,2.22,0.339
		c-0.896-0.064-1.833,0.023-2.687-0.301c-1.524-0.44-3.164,0.233-4.741,0.011c-0.004,0.056-0.011,0.173-0.018,0.229
		c1.681,0.346,3.42,0.079,5.12,0.293c-2.347,0.252-4.692-0.211-7.036,0.008c-1.091,0.083-2.19,0.075-3.277,0
		c1.441-0.309,3.066,0.222,4.398-0.463c-1.306-0.102-2.619,0.004-3.917-0.166l-0.26,0.056c-0.647,0.132-1.302,0.222-1.956,0.282
		c0.339-0.211,1.422,0.045,1.166-0.594c-1.968-0.403-3.936-0.809-5.892-1.245c0.779-2.42,1.535-4.854,2.566-7.179
		c-1.81-2.435-3.507-4.963-5.554-7.202c-3.172-0.903-6.288-1.99-9.456-2.897c-1.821,1.535-3.755,2.927-5.554,4.492
		c-2.092-2.826-3.74-5.979-5.019-9.252c-0.23,0.286-0.456,0.576-0.677,0.869c0.034-0.15,0.106-0.448,0.143-0.594
		c-0.681-0.971-1.155-2.111-1.257-3.292c0.184,0.192,0.384,0.365,0.606,0.519c0.004-0.971-0.47-1.907-0.47-2.878
		c0.117,0.783-0.203,1.516-0.549,2.186c0.226-1.185,0.312-2.393,0.305-3.597c-0.229,0.832-0.444,1.667-0.651,2.506
		c0.196-1.453,0.245-2.92,0.102-4.38l-0.305,0.15c0.038-1.448-0.087-2.893-0.139-4.338c2.408-0.023,4.816,0.015,7.224-0.023
		c1.96,5.813,3.936,11.631,6.02,17.403c3.349,0.956,6.649,2.08,9.982,3.078c1.682-2.792,3.315-5.61,4.997-8.402
		c-1.976-5.908-3.868-11.841-5.795-17.764c5.065-3.56,10.009-7.292,15.059-10.878c0.026-3.308-0.512-6.581-0.523-9.889
		c-3.115-0.76-6.088-1.994-9.155-2.92c-4.986,3.628-10.039,7.16-15.017,10.795c-1.912-1.434-3.883-2.788-5.862-4.124
		c0.523-0.625,1.061-1.238,1.595-1.851c0.241-0.252,0.485-0.504,0.726-0.756c2.671-2.886,5.693-5.46,9.023-7.548
		c0.651-0.38,1.298-0.768,1.926-1.181c0.083-0.023,0.245-0.06,0.327-0.083c0.546-0.29,1.099-0.564,1.659-0.831l0.117-0.335
		c0.177,0.053,0.534,0.154,0.711,0.203l-0.079-0.403c0.666-0.143,1.321-0.342,1.976-0.523l-0.098-0.309
		c0.32-0.019,0.963-0.056,1.287-0.071c0.674,2.288,1.411,4.56,2.002,6.871c2.984,1.065,5.968,2.156,9.03,2.965
		c3.176-0.937,6.306-2.02,9.505-2.882C208.879,124.205,209.699,121.853,210.403,119.468L210.403,119.468z"/>
	<path fill="#0D0B0B" d="M93.989,133.258c32.578,33.924,65.215,67.789,97.811,101.691c2.318,2.412,4.602,4.861,7.006,7.187
		c34.941-36.277,69.809-72.621,104.788-108.863c0.019,31.396,0.023,62.796,0,94.192c-29.12,34.082-58.123,68.259-87.257,102.33
		c-0.071,9.297,0.091,18.607-0.079,27.9c-4.635,11.078-9.418,22.099-14.107,33.158c-0.075,0.252-0.576,1.151-0.695,0.293
		c-4.207-8.568-8.391-17.147-12.606-25.715c-1.294-2.841-2.923-5.561-3.999-8.481c-0.057-9.162,0.007-18.325-0.03-27.486
		c-19.987-22.355-39.881-44.795-59.853-67.165C114.672,250.662,104.25,239.122,94,227.45c-0.113-18.163-0.015-36.333-0.049-54.499
		C93.977,159.721,93.902,146.488,93.989,133.258L93.989,133.258z"/>
	<path fill="#FFFFFF" d="M44.392,136.283c5.524-3.424,13.482-1.802,17.327,3.405c2.288,3.063,2.991,7.153,2.148,10.856
		c1.629,0.41,3.274,0.749,4.899,1.17c-0.703,2.856-1.354,5.727-1.99,8.598c-1.636-0.365-3.27-0.749-4.906-1.106
		c-0.903,3.511-3.104,6.75-6.28,8.568c-5.735,3.285-13.873,1.37-17.437-4.229c-1.956-2.984-2.374-6.739-1.614-10.178
		c-1.271-0.263-2.54-0.553-3.793-0.892c0.681-2.89,1.355-5.783,2.006-8.681c1.271,0.301,2.544,0.602,3.823,0.865
		C39.362,141.265,41.371,138.097,44.392,136.283L44.392,136.283z"/>
	<path fill="#0D0B0B" d="M332.108,144.501c9.271-2.205,18.569-4.308,27.855-6.461c1.539,6.634,3.063,13.267,4.594,19.905
		c-3.473,0.802-6.946,1.622-10.426,2.393c-0.55,2.262-1.979,4.354-4.147,5.317c-3.025,1.415-6.859,1.742-9.756-0.147
		c-2.81-1.915-4.388-5.155-5.193-8.372C334.038,152.929,333.094,148.708,332.108,144.501L332.108,144.501z"/>
	<path fill="#FFFFFF" d="M334.418,145.882c8.041-1.825,16.071-3.702,24.108-5.558c1.272,5.385,2.468,10.788,3.755,16.165
		c-2.201,0.553-4.418,1.027-6.623,1.561c-0.669-2.641-1.151-5.332-1.9-7.947c-0.798,0.083-1.569,0.312-2.341,0.504
		c0.832,3.383,1.69,7.044,0.471,10.442c-0.84,2.28-3.262,3.398-5.513,3.74c-1.971,0.324-4.15,0.027-5.7-1.317
		c-2.205-1.896-3.334-4.715-3.958-7.488C335.957,152.617,335.129,149.261,334.418,145.882L334.418,145.882z"/>
	<path fill="#0D0B0B" d="M49.732,143.545c2.096-0.335,4.602,0.452,5.606,2.45c0.485,0.79,0.342,1.753,0.361,2.638
		c-2.98-0.674-5.953-1.4-8.94-2.047C47.098,145.111,48.2,143.82,49.732,143.545L49.732,143.545z"/>
	<path fill="#0D0B0B" d="M342.305,152.685c1.242-0.271,2.475-0.568,3.721-0.813c0.215,1.129,0.764,2.307,0.417,3.462
		c-0.515,1.035-1.919,1.189-2.889,0.809C342.583,155.285,342.598,153.851,342.305,152.685L342.305,152.685z"/>
	<path fill="#FFFFFF" d="M289.92,153.148c3.368,2.179,6.709,4.406,10.073,6.592c-0.072,4.278,0.18,8.545,0.113,12.824
		c0.053,12.789,0.128,25.575,0.222,38.365c-5.411,5.877-10.78,11.8-16.146,17.722c-0.049,3.758,0.049,7.518-0.045,11.277
		c-0.711,1.091-1.678,1.995-2.517,2.992c-3.722,4.252-7.492,8.462-11.175,12.748c-0.35-7.759-0.166-15.533-0.305-23.295
		c-0.174-18.309-0.41-36.619-0.493-54.932c-0.041-0.651-0.094-1.302-0.139-1.945C276.19,167.939,283.14,160.617,289.92,153.148
		L289.92,153.148z"/>
	<path fill="#0D0B0B" d="M44.69,155.304c3.01,0.617,6.005,1.325,8.985,2.073c-0.369,0.775-0.696,1.633-1.426,2.148
		c-1.972,1.516-4.989,0.959-6.671-0.737C44.649,157.87,44.599,156.523,44.69,155.304L44.69,155.304z"/>
	<path fill="#FFFFFF" d="M97.879,172.221c4.658-4.086,9.35-8.143,14.005-12.237c7.947,8.425,15.92,16.823,23.825,25.282
		c-0.011,26.445,0.154,52.885,0.113,79.325c-4.888-5.633-9.806-11.243-14.716-16.857c-0.312-0.41-0.775-0.806-0.662-1.381
		c-0.019-3.816-0.034-7.635-0.075-11.446c-2.118-2.224-4.301-4.38-6.423-6.6c-0.012,3.898,0.026,7.796,0.034,11.698
		c-5.373-5.919-10.757-11.823-16.153-17.719C97.797,205.6,97.891,188.912,97.879,172.221L97.879,172.221z"/>
	<path fill="#0D0B0B" d="M284.461,169.022c1.979-2.611,4.003-5.192,6.017-7.781c0.109,7.657,0.082,15.318,0.101,22.975
		c0.237,9.189,0.09,18.385,0.199,27.577c-2.111,2.303-4.165,4.662-6.299,6.942C284.453,202.164,284.483,185.594,284.461,169.022
		L284.461,169.022z"/>
	<path fill="#FFFFFF" d="M163.508,167.939c-0.075-0.331-0.154-0.971,0.293-1.061c-0.015,0.726,0.783,1.652,0.452,2.239
		C163.888,168.804,163.644,168.413,163.508,167.939L163.508,167.939z"/>
	<path fill="#A4908F" d="M235.034,167.017C235.233,167.22,235.233,167.22,235.034,167.017L235.034,167.017z"/>
	<path fill="#FFFFFF" d="M190.148,168.116c5.99,0.004,11.985-0.026,17.978,0.015c2.133,2.528,4.259,5.065,6.385,7.601
		c-2.017,2.841-4.195,5.561-6.197,8.413c-5.949-0.011-11.901,0.079-17.85-0.045c-1.58-2.607-3.537-4.986-5.444-7.356
		C186.72,173.862,188.425,170.983,190.148,168.116L190.148,168.116z"/>
	<path fill="#A4908F" d="M234.778,168.236C234.868,168.33,234.868,168.33,234.778,168.236L234.778,168.236z"/>
	<path fill="#A4908F" d="M234.01,168.537c0.128,0.079,0.384,0.237,0.512,0.312c-0.045,1.264-0.794,2.344-1.291,3.469
		c-4.749,9.625-13.76,16.985-24.119,19.773c-0.399-0.128-1.196-0.388-1.592-0.516c1.125-0.222,2.269-0.418,3.383-0.723
		c-0.015-0.196-0.045-0.587-0.06-0.783c0.113,0.226,0.339,0.674,0.451,0.896c5.084-1.836,9.866-4.609,13.757-8.387
		c1.689-1.641,3.383-3.338,4.519-5.426C231.32,174.43,232.821,171.551,234.01,168.537L234.01,168.537z"/>
	<path fill="#A4908F" d="M163.915,169.809c0.222-0.294,0.448-0.583,0.677-0.869c1.279,3.273,2.927,6.427,5.019,9.252
		c-0.034,0.057-0.109,0.166-0.143,0.219c3.454,4.436,7.905,8.101,12.947,10.596c1.659,0.828,3.364,1.61,5.192,1.972
		c1.957,0.436,3.925,0.843,5.892,1.245c0.256,0.64-0.828,0.384-1.166,0.594c-5.791-1.136-11.371-3.473-16.067-7.07
		C170.819,181.662,166.526,176.093,163.915,169.809L163.915,169.809z"/>
	<path fill="#FFFFFF" d="M214.662,175.822c2.924-0.937,5.863-1.836,8.779-2.807c1.942,1.483,3.842,3.018,5.824,4.444l0.305-0.304
		c-1.137,2.088-2.83,3.785-4.519,5.426c-3.891,3.778-8.673,6.551-13.757,8.387c-0.113-0.222-0.338-0.67-0.451-0.896
		c-0.745-2.047-1.456-4.105-2.186-6.156C210.651,181.21,212.691,178.542,214.662,175.822L214.662,175.822z"/>
	<path fill="#0D0B0B" d="M113.622,177.481c1.215-1.046,2.367-2.156,3.578-3.206c0.865,0.91,1.87,1.704,2.615,2.728
		c0.211,1.012,0.083,2.062,0.113,3.097c0.071,11.284,0.17,22.569,0.215,33.857c0.177,4.045,0.154,8.101,0.136,12.15
		c-2.183-2.096-4.312-4.267-6.352-6.495C113.698,205.574,113.671,191.527,113.622,177.481L113.622,177.481z"/>
	<path fill="#FFFFFF" d="M169.612,178.192c1.799-1.565,3.733-2.957,5.554-4.492c3.168,0.907,6.284,1.994,9.456,2.897
		c2.047,2.239,3.744,4.767,5.554,7.202c-1.031,2.325-1.787,4.76-2.566,7.179c-1.829-0.361-3.533-1.144-5.192-1.972
		c-5.042-2.495-9.493-6.16-12.947-10.596C169.503,178.358,169.578,178.249,169.612,178.192L169.612,178.192z"/>
	<path fill="#FFFFFF" d="M242.337,206.653c7.8-8.853,15.559-17.748,23.355-26.61c0.052,21.579,0.007,43.158,0.022,64.737
		c-0.037,5.502,0.072,11.01-0.049,16.507c-4.466,5.437-9.159,10.694-13.658,16.104c-0.087-3.345,0.004-6.69-0.053-10.035
		c-2.178,2.066-4.263,4.229-6.393,6.348c-0.008,4.048,0.015,8.097-0.008,12.146c0.053,0.715-0.56,1.208-0.948,1.727
		c-4.659,5.396-9.249,10.844-13.919,16.225c-0.007-7.623-0.165-15.247-0.184-22.873c-0.327-12.662-0.18-25.338-0.508-38
		c-0.012-0.91-0.041-1.836,0.27-2.701c3.274-10.122,6.555-20.24,9.81-30.369C240.411,208.542,241.517,207.669,242.337,206.653
		L242.337,206.653z"/>
	<path fill="#FFFFFF" d="M139.22,188.871c4.335,4.482,8.477,9.143,12.77,13.666c0.685,0.65,0.734,1.648,0.967,2.51
		c2.604,11.521,5.35,23.009,7.909,34.538c3.142-6.099,5.945-12.375,8.974-18.535c4.978,5.144,9.862,10.378,14.799,15.559
		c0.087,28.01,0.165,56.023,0.162,84.032c-4.56-4.892-9.219-9.689-13.817-14.539c-0.418-0.373-0.226-0.997-0.293-1.472
		c-0.196-13.09-0.143-26.181-0.361-39.271c-2.879,9.188-5.565,18.434-8.379,27.64c-2.92-15.514-5.806-31.031-8.707-46.548
		c-0.188,12.714-0.004,25.432-0.094,38.15c-4.658-5.576-9.267-11.191-13.941-16.752C139.205,241.522,139.19,215.195,139.22,188.871
		L139.22,188.871z"/>
	<path fill="#FFFFFF" d="M41.484,192.968c0.113,0.026,0.342,0.083,0.459,0.113c0.128,0.527,0.256,1.068,0.406,1.595
		c0.136,0.38,0.271,0.76,0.406,1.144c0.229,0.767,0.482,1.524,0.734,2.288c0.207,0.655,0.429,1.309,0.636,1.968
		c0.312,0.926,0.602,1.859,0.858,2.803c3.853,0.094,7.691,0.324,11.544,0.376c-2.969,2.081-5.892,4.233-8.812,6.382
		c0.169,1.328,0.707,2.57,1.061,3.857c0.35,1.264,0.734,2.525,1.11,3.785c0.339,1.174,0.745,2.337,0.914,3.556
		c-0.113-0.143-0.331-0.429-0.444-0.572c-2.803-1.998-5.573-4.045-8.364-6.058c-2.909,2.069-5.878,4.053-8.82,6.073
		c-0.124,0.139-0.376,0.418-0.504,0.554c0.354-1.983,1.2-3.834,1.712-5.776l0.124-0.222c0.436-1.554,1.05-3.055,1.4-4.632
		c-2.844-2.088-5.576-4.327-8.425-6.408c-0.049-0.127-0.146-0.388-0.192-0.515c3.526,0.015,7.051,0.011,10.577,0.004
		C39.034,199.832,40.317,196.419,41.484,192.968L41.484,192.968z"/>
	<path fill="#FFFFFF" d="M357.257,193.074c0.106-0.03,0.32-0.083,0.425-0.113c1.031,3.33,2.16,6.626,3.21,9.952
		c1.554,0.023,3.112,0.03,4.673,0.079c2.239,0.293,4.512,0.097,6.765,0.274c-2.969,2.13-5.934,4.271-8.861,6.457
		c1.11,3.608,2.201,7.228,3.187,10.874c-2.984-2.088-5.832-4.372-8.899-6.337c-3.112,2.126-6.144,4.399-9.38,6.333
		c0.35-0.847,0.65-1.712,0.918-2.585c0.832-2.593,1.697-5.17,2.51-7.762c-3.01-2.28-6.032-4.553-8.967-6.923
		c3.612-0.075,7.228-0.027,10.84-0.03c0.305-0.847,0.609-1.689,0.907-2.536C355.47,198.191,356.464,195.666,357.257,193.074
		L357.257,193.074z"/>
	<path fill="#0D0B0B" d="M246.495,209.871c1.619-1.897,3.221-3.801,4.854-5.682c0.312,17.098,0.504,34.199,0.771,51.301
		c-2.269,2.239-4.564,4.455-6.829,6.701c0.007-4.041,0.068-8.082,0.267-12.116C245.799,236.668,246.205,223.273,246.495,209.871
		L246.495,209.871z"/>
	<path fill="#FFFFFF" d="M216.468,233.011c5.163-5.591,10.295-11.213,15.457-16.808c-3.924,21.229-8.206,42.398-12.142,63.624
		c3.552,8.059,7.284,16.04,10.855,24.092c-3.939,4.451-7.661,9.109-11.687,13.478c-2.698-5.385-5.234-10.848-7.872-16.259
		c-0.169,18.121,0.042,36.254-0.105,54.379c-3.059,8.131-6.227,16.232-9.414,24.318c-3.563-7.593-7.243-15.13-10.848-22.697
		c-0.29-0.534-0.267-1.144-0.271-1.719c-0.068-18.181-0.132-36.363-0.169-54.544c-0.083-6.524,0.094-13.057-0.139-19.574
		c0.026-13.064-0.09-26.124-0.034-39.185c3.281,3.248,6.472,6.581,9.794,9.783c3.322-3.718,6.645-7.439,10.013-11.115
		c0.09,7.838-0.136,15.683,0.12,23.517c1.764-9.775,3.811-19.506,5.655-29.27C215.829,234.32,215.889,233.531,216.468,233.011
		L216.468,233.011z"/>
	<path fill="#FFFFFF" d="M40.133,258.304c7.371-3.741,14.697-7.574,22.109-11.224c3.469,6.919,7.04,13.783,10.513,20.699
		c-7.382,3.714-14.689,7.574-22.113,11.209c-1.321-2.649-2.671-5.283-4.026-7.913c5.328-2.735,10.667-5.448,16.003-8.176
		c-0.775-1.617-1.588-3.224-2.442-4.801c-5.324,2.735-10.649,5.474-15.999,8.154C42.831,263.602,41.473,260.957,40.133,258.304
		L40.133,258.304z"/>
	<path fill="#0D0B0B" d="M331.558,253.416c1.517,0.561,2.834,1.52,4.222,2.329c2.442,1.464,4.892,2.92,7.315,4.421
		c0.467-0.741,0.926-1.486,1.381-2.231c2.325,1.294,4.557,2.747,6.866,4.075c0.617,0.369,1.276,0.704,1.788,1.231
		c-0.286,0.794-0.73,1.52-1.129,2.261c1.365,0.816,2.735,1.633,4.105,2.449c-2.032,3.559-4.188,7.044-6.314,10.547
		c-1.381-0.858-2.765-1.705-4.192-2.483c-1.798,3.014-3.62,6.016-5.415,9.038c-2.047-1.147-4.019-2.416-6.051-3.582
		c-0.745-0.467-1.651-0.858-1.986-1.735c-2.145-4.775-4.267-9.557-6.423-14.325c-0.229-0.586-0.628-1.283-0.188-1.869
		C327.491,260.136,329.632,256.84,331.558,253.416L331.558,253.416z"/>
	<path fill="#FFFFFF" d="M327.25,264.106c1.791-2.709,3.349-5.565,5.083-8.308c3.534,2.141,7.07,4.278,10.623,6.393
		c1.208,0.918,1.596-1.095,2.197-1.802c1.829,1.185,3.699,2.31,5.603,3.375c-0.302,0.828-1.186,1.577-1.125,2.435
		c1.287,0.835,2.63,1.58,3.955,2.356c-1.332,2.525-2.965,4.872-4.32,7.386c-1.49-0.681-2.781-1.723-4.259-2.416
		c-1.87,2.976-3.654,6.013-5.452,9.034c-1.897-1.14-3.812-2.247-5.681-3.428c-1.046-2.438-2.175-4.842-3.237-7.273
		c-0.556-1.226-1.109-2.453-1.655-3.68C328.39,266.826,327.728,265.502,327.25,264.106L327.25,264.106z"/>
	<path fill="#0D0B0B" d="M335.077,266.789c1.317,1.185,2.668,2.356,4.165,3.319c-0.41,0.759-0.843,1.508-1.261,2.268
		c-0.406-0.76-0.786-1.535-1.147-2.314c-0.358-0.752-0.745-1.486-1.133-2.216C335.49,267.489,335.284,267.135,335.077,266.789
		L335.077,266.789z"/>
	<path fill="#FFFFFF" d="M57.043,288.432c6.411-5.208,12.846-10.381,19.242-15.604c3.496,4.308,7.025,8.594,10.456,12.951
		c-1.772,1.344-3.413,2.86-5.222,4.154c-1.806-1.84-3.277-4.007-4.956-5.971c-0.613,0.478-1.219,0.956-1.821,1.449
		c1.479,1.821,2.969,3.635,4.425,5.479c-1.622,1.358-3.273,2.679-4.925,4c-1.569-1.724-2.848-3.695-4.482-5.35
		c-0.688,0.406-1.283,0.94-1.904,1.441c1.49,2.194,3.417,4.067,4.88,6.277c-1.697,1.381-3.304,2.927-5.178,4.06
		C63.947,297.113,60.561,292.714,57.043,288.432L57.043,288.432z"/>
	<path fill="#0D0B0B" d="M309.761,286.75c2.104-4.884,7.025-8.838,12.496-8.725c4.628-0.038,8.692,3.307,10.63,7.333
		c2.039,4.531,2.314,9.569,3.145,14.404c-3.827,4.305-7.586,8.673-11.348,13.038c0-3.748-0.357-7.477-0.372-11.224
		c-4.199,2.356-9.64,0.617-12.583-2.939C309.012,295.427,308.041,290.655,309.761,286.75L309.761,286.75z"/>
	<path fill="#FFFFFF" d="M317.689,280.839c2.879-1.313,6.484-1.403,9.189,0.388c2.585,1.611,4.372,4.259,5.23,7.153
		c1.023,3.514,1.381,7.161,1.99,10.758c-2.592,2.995-5.204,5.968-7.785,8.97c-0.023-3.552-0.196-7.104-0.237-10.659
		c-1.189,1.275-2.475,2.487-4.094,3.198c-2.773,0.527-5.76-0.234-7.83-2.179c-2.634-2.247-3.883-5.952-3.247-9.343
		C311.801,285.539,314.438,282.532,317.689,280.839L317.689,280.839z"/>
	<path fill="#0D0B0B" d="M320.564,287.927c1.603-0.62,3.443,1.163,2.815,2.762c-0.403,1.814-3.368,2.017-4.041,0.312
		C318.645,289.866,319.398,288.372,320.564,287.927L320.564,287.927z"/>
	<path fill="#ED1C24" d="M321.125,289.738C322.392,289.745,320.572,290.867,321.125,289.738L321.125,289.738z"/>
	<path fill="#FFFFFF" d="M74.487,309.721c5.637-6.05,11.251-12.123,16.925-18.136c2.882,2.656,5.723,5.358,8.605,8.019
		c2.009,2.039,3.939,4.661,3.736,7.676c-0.256,2.574-1.923,4.782-3.842,6.415c-2.66,2.141-6.6,2.099-9.478,0.41
		c-1.705-0.866-2.943-2.352-4.429-3.507c-1.757,1.629-3.33,3.454-4.959,5.212C78.87,313.77,76.691,311.735,74.487,309.721
		L74.487,309.721z"/>
	<path fill="#0D0B0B" d="M298.996,297.952c3.273-1.189,7.127-0.835,10.035,1.129c2.792,1.96,4.809,4.996,5.486,8.349
		c0.933,4.504,0.549,9.118,0.504,13.678c-4.35,3.665-8.715,7.307-13.06,10.976c0.274-3.71,0.85-7.394,1.325-11.085
		c-4.647,1.738-9.874-0.949-12.172-5.103c-2.115-3.736-2.137-8.748,0.41-12.285C293.37,301.037,295.963,298.945,298.996,297.952
		L298.996,297.952z"/>
	<path fill="#FFFFFF" d="M300.779,299.28c1.403-0.189,2.829-0.169,4.24-0.015c3.673,0.933,6.374,4.09,7.51,7.604
		c1.057,4.335,0.787,8.82,0.787,13.237c-2.954,2.592-6.036,5.034-8.993,7.62c0.282-3.522,0.843-7.018,1.272-10.521
		c-1.629,1.449-3.699,2.739-5.96,2.558c-3.507-0.504-6.585-3.126-7.695-6.479c-0.35-0.963-0.414-1.998-0.636-2.983
		c0.161-1.415,0.225-2.882,0.88-4.173c1.17-2.442,3.262-4.353,5.58-5.697c0.605-0.256,1.216-0.508,1.829-0.756
		C299.986,299.547,300.38,299.415,300.779,299.28L300.779,299.28z"/>
	<path fill="#0D0B0B" d="M93.172,302.824c0.715,0.711,1.625,1.294,2.092,2.216c0.387,1.238-0.681,2.314-1.727,2.765
		c-1.358,0.068-2.141-1.264-3.07-2.039C91.374,304.789,92.277,303.81,93.172,302.824L93.172,302.824z"/>
	<path fill="#0D0B0B" d="M300.143,308.122c0.482-1.113,2.002-1.441,3.003-0.865c0.696,0.391,0.948,1.196,1.261,1.885
		c-0.343,0.956-0.88,2.205-2.096,2.16C300.614,311.659,299.214,309.556,300.143,308.122L300.143,308.122z"/>
	<path fill="#ED1C24" d="M301.796,308.83c0.602-0.181,0.797,0.037,0.591,0.662C301.78,309.669,301.585,309.447,301.796,308.83
		L301.796,308.83z"/>
	<path fill="#0D0B0B" d="M270.358,317.74c4.658-2.829,9.218-5.814,13.892-8.617c4.989,7.966,9.915,15.97,14.96,23.893
		c-2.819,1.871-5.735,3.589-8.575,5.422c-0.712,0.444-1.411,0.929-2.212,1.189c-3.116-4.651-5.946-9.505-8.982-14.216
		c-1.035,0.696-2.077,1.4-3.255,1.829C274.313,324.031,272.213,320.96,270.358,317.74L270.358,317.74z"/>
	<path fill="#FFFFFF" d="M97.522,329.969c5.324-6.438,10.69-12.842,15.999-19.292c2.705,1.446,5.309,3.074,7.996,4.549
		c-1.001,4.195-2.205,8.342-3.138,12.552c3.104-2.987,6.13-6.058,9.264-9.015c2.626,1.569,5.294,3.067,7.939,4.609
		c-2.991,7.796-6.02,15.578-8.981,23.382c-2.563-1.355-5.027-2.882-7.552-4.297c1.746-4.387,3.77-8.658,5.682-12.974
		c-3.266,3.624-6.871,6.924-10.419,10.269c-1.513-0.94-3.07-1.799-4.602-2.701c1.151-4.7,2.186-9.43,3.635-14.046
		c-2.724,3.8-5.463,7.593-8.214,11.378C102.575,332.945,100.017,331.508,97.522,329.969L97.522,329.969z"/>
	<path fill="#FFFFFF" d="M272.932,318.282c3.461-2.04,6.799-4.293,10.253-6.344c0.154-0.012,0.462-0.03,0.617-0.042
		c4.278,6.875,8.628,13.708,12.842,20.62c-2.532,1.577-5.08,3.138-7.589,4.753c-3.029-4.763-6.013-9.561-8.974-14.366
		c-1.083,0.643-2.145,1.317-3.247,1.919C275.619,322.59,274.053,320.562,272.932,318.282L272.932,318.282z"/>
	<path fill="#FFFFFF" d="M135.585,350.257c2.502-7.883,5.042-15.754,7.676-23.592c2.641,0.937,5.339,1.708,7.981,2.646
		c-0.948,2.927-1.983,5.835-2.807,8.805c3.356,1.02,6.987,2.193,9.23,5.072c1.456,1.934,1.132,4.572,0.222,6.667
		c-0.738,1.848-2.156,3.504-4.105,4.094c-2.623,0.861-5.449,0.417-8.022-0.384C142.37,352.462,138.972,351.371,135.585,350.257
		L135.585,350.257z"/>
	<path fill="#0D0B0B" d="M146.625,343.416c1.166,0.312,2.604,0.463,3.345,1.543c0.5,1.087-0.233,2.803-1.539,2.841
		c-1.031-0.045-1.979-0.493-2.938-0.813C145.873,345.795,146.26,344.609,146.625,343.416L146.625,343.416z"/>
</g>
</svg>
