<?xml version="1.0" encoding="utf-8"?>
<!-- Generator: Adobe Illustrator 19.1.0, SVG Export Plug-In . SVG Version: 6.00 Build 0)  -->
<svg version="1.1" id="Layer_1" xmlns="http://www.w3.org/2000/svg" xmlns:xlink="http://www.w3.org/1999/xlink" x="0px" y="0px"
	 viewBox="-49 53.469 300 295.531" enable-background="new -49 53.469 300 295.531" xml:space="preserve">
<g>
	<g>
		<g>
			<defs>
				<rect id="SVGID_1_" x="-46.444" y="56.983" width="292.075" height="287.724"/>
			</defs>
			<clipPath id="SVGID_2_">
				<use xlink:href="#SVGID_1_"  overflow="visible"/>
			</clipPath>
			<path clip-path="url(#SVGID_2_)" d="M198.426,238.07c1.982,0.968,4.285,2.265,5.804,3.869c7.372,7.787,5.887,20.795,1.991,29.896
				c9.217,2.205,17.693,5.989,25.028,12.077l14.381,11.938l-18.677-0.76c-3.503-0.142-6.977,0.019-10.447,0.507
				c2.753,3.438,5.011,7.275,6.428,11.456c0.603,1.788,0.974,3.619,1.148,5.498l1.042,11.28l-9.59-6.03
				c-1.049-0.657-2.087-1.328-3.148-1.968c-13.131-7.908-28.708-11.282-43.712-13.492c-0.267-0.041-0.534-0.085-0.798-0.134
				c-4.472,5.612-9.421,10.78-14.888,15.429c-15.683,13.339-34.374,21.271-53.966,26.993c-0.075,0.024-0.146,0.046-0.22,0.064
				l-0.043,0.015l-0.04-0.015c-0.075-0.019-0.149-0.043-0.224-0.064c-12.24-3.572-24.409-8.044-35.62-14.167
				c-9.458-5.166-17.995-11.413-25.541-19.118c-2.833-2.893-5.492-5.95-7.985-9.145c-0.284,0.053-0.571,0.097-0.859,0.142
				c-14.725,2.177-29.953,5.589-42.969,13.077c-1.374,0.791-2.709,1.64-4.05,2.484l-10.529,6.613l2.038-12.265
				c0.24-1.462,0.537-2.907,0.971-4.322c1.377-4.485,3.73-8.596,6.647-12.253c-4.069-0.535-8.163-0.662-12.265-0.497l-14.776,0.593
				l10.683-10.223c4.158-3.983,9.183-7.198,14.42-9.57c3.946-1.784,8.071-3.137,12.282-4.144
				c-3.894-9.101-5.382-22.111,1.992-29.896c1.603-1.691,4.089-3.056,6.191-4.055c-2.918-12.443-4.184-24.931-4.332-37.696
				c-0.139-11.851,0.666-23.649,1.391-35.469c0.081-1.328,0.162-2.655,0.239-3.982c1.027-17.718,0.424-35.726-1.603-53.355
				c-0.832-7.238-1.916-14.454-3.273-21.614l-0.025-0.137l0.134-0.032c3.841-0.917,7.31-2.374,10.861-4.068
				c1.939-0.924,3.861-1.885,5.814-2.778c19.121-8.744,38.869-15.699,59.655-19.2c10.19-1.714,20.48-2.573,30.817-2.573
				c31.459,0,62.216,8.169,90.471,21.773c1.935,0.934,3.854,1.905,5.794,2.826c3.547,1.688,7.046,3.104,10.881,4.018l0.135,0.032
				l-0.024,0.137c-1.359,7.16-2.444,14.376-3.275,21.614c-2.029,17.626-2.633,35.637-1.603,53.355
				c0.079,1.326,0.158,2.652,0.239,3.98c0.724,11.849,1.534,23.673,1.388,35.554C202.648,213.073,201.368,225.596,198.426,238.07"/>
		</g>
		<g>
			<defs>
				<rect id="SVGID_3_" x="-46.444" y="56.983" width="292.075" height="287.724"/>
			</defs>
			<clipPath id="SVGID_4_">
				<use xlink:href="#SVGID_3_"  overflow="visible"/>
			</clipPath>
			<path clip-path="url(#SVGID_4_)" fill="#FFFFFF" d="M-8.316,85.743c6.442-1.537,11.196-4.337,16.705-6.855
				c30.515-13.955,59.041-21.762,90.41-21.762c31.367,0,62.074,8.117,90.41,21.762c5.455,2.625,10.261,5.318,16.701,6.855
				c-4.708,24.835-6.262,51.192-4.88,75.005c1.44,24.783,3.866,49.338-2.773,77.402c2.52,1.224,4.573,2.526,5.866,3.889
				c7.366,7.778,5.822,20.834,1.896,29.897c9.165,2.172,17.698,5.915,25.133,12.089l14.054,11.663l-18.245-0.743
				c-3.725-0.152-7.241,0.039-10.729,0.546c2.819,3.483,5.125,7.371,6.561,11.611c0.603,1.783,0.969,3.591,1.142,5.466l1.014,10.985
				l-9.339-5.874c-1.051-0.657-2.089-1.331-3.15-1.97c-13.136-7.912-28.761-11.298-43.766-13.511
				c-0.292-0.043-0.587-0.092-0.879-0.151c-16.652,20.93-37.959,33.427-68.836,42.444c-0.072,0.02-0.143,0.043-0.22,0.065
				c-0.077-0.022-0.153-0.045-0.227-0.065c-33.343-9.735-53.738-22.711-69.125-42.448c-0.309,0.056-0.621,0.108-0.94,0.155
				c-14.725,2.178-30.005,5.607-43.021,13.097c-1.376,0.79-2.712,1.642-4.055,2.484l-10.256,6.442l1.983-11.945
				c0.24-1.463,0.534-2.888,0.97-4.308c1.393-4.545,3.793-8.703,6.78-12.402c-4.11-0.558-8.247-0.707-12.545-0.533l-14.391,0.577
				l10.404-9.955c4.14-3.965,9.167-7.183,14.38-9.543c3.998-1.809,8.165-3.168,12.424-4.177c-3.926-9.062-5.47-22.118,1.896-29.895
				c1.358-1.434,3.558-2.8,6.255-4.075c-6.585-27.987-4.166-52.492-2.728-77.218C-2.054,136.934-3.604,110.578-8.316,85.743"/>
		</g>
		<g>
			<defs>
				<rect id="SVGID_5_" x="-46.444" y="56.983" width="292.075" height="287.724"/>
			</defs>
			<clipPath id="SVGID_6_">
				<use xlink:href="#SVGID_5_"  overflow="visible"/>
			</clipPath>
			<path clip-path="url(#SVGID_6_)" fill="#1A7342" d="M86.169,335.454c4.294,1.548,8.36,2.871,12.589,3.983
				c4.405-1.31,8.271-2.735,12.258-4.151l-12.194-12.1L86.169,335.454z"/>
		</g>
		<g>
			<defs>
				<rect id="SVGID_7_" x="-46.444" y="56.983" width="292.075" height="287.724"/>
			</defs>
			<clipPath id="SVGID_8_">
				<use xlink:href="#SVGID_7_"  overflow="visible"/>
			</clipPath>
			<polygon clip-path="url(#SVGID_8_)" fill="#1A7342" points="10.867,282.867 26.881,288.309 21.438,278.98 			"/>
		</g>
		<g>
			<defs>
				<rect id="SVGID_9_" x="-46.444" y="56.983" width="292.075" height="287.724"/>
			</defs>
			<clipPath id="SVGID_10_">
				<use xlink:href="#SVGID_9_"  overflow="visible"/>
			</clipPath>
			<polygon clip-path="url(#SVGID_10_)" fill="#1A7342" points="175.031,278.668 170.056,288.309 187.001,283.489 			"/>
		</g>
		<g>
			<defs>
				<rect id="SVGID_11_" x="-46.444" y="56.983" width="292.075" height="287.724"/>
			</defs>
			<clipPath id="SVGID_12_">
				<use xlink:href="#SVGID_11_"  overflow="visible"/>
			</clipPath>
			<path clip-path="url(#SVGID_12_)" d="M199.498,89.836c-4.483-1.578-8.503-3.667-12.963-5.814c-1.635-0.786-3.275-1.552-4.926-2.3
				c-5.762,50.351,11.843,114.135-1.852,168.784c-9.301,37.101-36.791,65.881-73.434,86.436
				c36.841-12.474,58.232-31.446,75.629-68.819c8.384-18.017,13.175-36.151,14.585-55.961c1.208-17.001-0.166-33.766-1.152-50.721
				C194.012,137.811,195.436,113.252,199.498,89.836 M15.412,81.733c-1.743,0.759-3.481,1.537-5.221,2.334
				c-4.478,2.046-8.431,4.158-12.874,5.751c4.064,23.421,5.49,47.986,4.117,71.623c-0.985,16.955-2.363,33.722-1.154,50.721
				c1.409,19.811,6.205,37.944,14.588,55.961c6.725,14.447,14.719,28.353,25.939,39.808c14.467,14.765,32.563,23.493,51.858,29.745
				c-47.108-25.09-67.51-59.024-73.705-81.293C1.976,195.331,22.329,132.688,15.412,81.733"/>
		</g>
		<g>
			<defs>
				<rect id="SVGID_13_" x="-46.444" y="56.983" width="292.075" height="287.724"/>
			</defs>
			<clipPath id="SVGID_14_">
				<use xlink:href="#SVGID_13_"  overflow="visible"/>
			</clipPath>
			<polygon clip-path="url(#SVGID_14_)" fill="#1A7342" points="78.226,302.622 98.821,282.648 119.103,302.775 98.744,322.67 			
				"/>
		</g>
		<g>
			<defs>
				<rect id="SVGID_15_" x="-46.444" y="56.983" width="292.075" height="287.724"/>
			</defs>
			<clipPath id="SVGID_16_">
				<use xlink:href="#SVGID_15_"  overflow="visible"/>
			</clipPath>
			<polygon clip-path="url(#SVGID_16_)" fill="#1A7342" points="78.226,262.033 98.821,241.75 119.103,262.033 98.9,282.24 			"/>
		</g>
		<g>
			<defs>
				<rect id="SVGID_17_" x="-46.444" y="56.983" width="292.075" height="287.724"/>
			</defs>
			<clipPath id="SVGID_18_">
				<use xlink:href="#SVGID_17_"  overflow="visible"/>
			</clipPath>
			<path clip-path="url(#SVGID_18_)" fill="#1A7342" d="M153.029,295.072c-5.641,7.53-12.139,14.649-19.5,21.057l-13.501-13.435
				l20.366-20.043L153.029,295.072z"/>
		</g>
		<g>
			<defs>
				<rect id="SVGID_19_" x="-46.444" y="56.983" width="292.075" height="287.724"/>
			</defs>
			<clipPath id="SVGID_20_">
				<use xlink:href="#SVGID_19_"  overflow="visible"/>
			</clipPath>
			<polygon clip-path="url(#SVGID_20_)" fill="#1A7342" points="119.564,262.108 138.997,243.463 160.715,262.261 140.257,281.929 
							"/>
		</g>
		<g>
			<defs>
				<rect id="SVGID_21_" x="-46.444" y="56.983" width="292.075" height="287.724"/>
			</defs>
			<clipPath id="SVGID_22_">
				<use xlink:href="#SVGID_21_"  overflow="visible"/>
			</clipPath>
			<path clip-path="url(#SVGID_22_)" fill="#1A7342" d="M63.695,316.201c-7.694-6.786-14.053-14.041-19.354-21.115l12.666-12.589
				l20.523,20.045L63.695,316.201z"/>
		</g>
		<g>
			<defs>
				<rect id="SVGID_23_" x="-46.444" y="56.983" width="292.075" height="287.724"/>
			</defs>
			<clipPath id="SVGID_24_">
				<use xlink:href="#SVGID_23_"  overflow="visible"/>
			</clipPath>
			<polygon clip-path="url(#SVGID_24_)" fill="#1A7342" points="77.683,262.108 58.249,243.463 36.53,262.261 56.988,281.929 			"/>
		</g>
		<g>
			<defs>
				<rect id="SVGID_25_" x="-46.444" y="56.983" width="292.075" height="287.724"/>
			</defs>
			<clipPath id="SVGID_26_">
				<use xlink:href="#SVGID_25_"  overflow="visible"/>
			</clipPath>
			<polygon clip-path="url(#SVGID_26_)" fill="#1A7342" points="78.226,220.99 98.821,200.708 119.103,220.99 98.9,241.197 			"/>
		</g>
		<g>
			<defs>
				<rect id="SVGID_27_" x="-46.444" y="56.983" width="292.075" height="287.724"/>
			</defs>
			<clipPath id="SVGID_28_">
				<use xlink:href="#SVGID_27_"  overflow="visible"/>
			</clipPath>
			<polygon clip-path="url(#SVGID_28_)" fill="#1A7342" points="119.564,221.066 138.997,202.418 160.715,221.217 140.257,240.884 
							"/>
		</g>
		<g>
			<defs>
				<rect id="SVGID_29_" x="-46.444" y="56.983" width="292.075" height="287.724"/>
			</defs>
			<clipPath id="SVGID_30_">
				<use xlink:href="#SVGID_29_"  overflow="visible"/>
			</clipPath>
			<polygon clip-path="url(#SVGID_30_)" fill="#1A7342" points="77.683,221.066 58.249,202.418 36.53,221.217 56.988,240.884 			"/>
		</g>
		<g>
			<defs>
				<rect id="SVGID_31_" x="-46.444" y="56.983" width="292.075" height="287.724"/>
			</defs>
			<clipPath id="SVGID_32_">
				<use xlink:href="#SVGID_31_"  overflow="visible"/>
			</clipPath>
			<path clip-path="url(#SVGID_32_)" fill="#1A7342" d="M180.255,213.831c-0.259,7.829-0.951,15.598-2.273,23.273l-16.85-15.884
				l12.953-12.805L180.255,213.831z"/>
		</g>
		<g>
			<defs>
				<rect id="SVGID_33_" x="-46.444" y="56.983" width="292.075" height="287.724"/>
			</defs>
			<clipPath id="SVGID_34_">
				<use xlink:href="#SVGID_33_"  overflow="visible"/>
			</clipPath>
			<path clip-path="url(#SVGID_34_)" fill="#1A7342" d="M19.118,237.272c-1.237-7.462-1.907-15.035-2.175-22.688l6.213-6.168
				l13.188,12.805L19.118,237.272z"/>
		</g>
		<g>
			<defs>
				<rect id="SVGID_35_" x="-46.444" y="56.983" width="292.075" height="287.724"/>
			</defs>
			<clipPath id="SVGID_36_">
				<use xlink:href="#SVGID_35_"  overflow="visible"/>
			</clipPath>
			<path clip-path="url(#SVGID_36_)" fill="#1A7342" d="M176.296,79.391c-24.643-10.456-51.004-16.605-77.888-16.605
				c-27.566,0-52.645,6.325-77.592,16.65c6.298,42.148-4.564,87.345-3.991,130.228c13.612-4.396,27.807-6.832,42.168-8.151
				l0.591-0.057l0.199-0.591c0.707-2.139,1.718-3.346,3.194-4.982c0.351-0.39,0.696-0.788,0.996-1.22
				c0.6-0.859,1.171-1.737,1.73-2.623l1.176-1.875l-1.91,1.116c-0.231,0.132-0.462,0.262-0.693,0.394l-0.092,0.052l-0.065,0.081
				c-1.045,1.312-3.184,1.443-4.066-0.135c-0.428-0.767-0.585-2.158-1.11-2.8c-1.127-1.378-2.408-2.614-3.665-3.871l-0.289-0.289
				l-0.357,0.198c-3.574,1.959-7.671,2.354-11.683,2.273c2.787-1.875,5.412-3.886,7.923-6.155c0.088-0.08,0.177-0.162,0.267-0.244
				l0.294-0.277l-0.18-0.364c-0.069-0.139-0.132-0.28-0.189-0.424c-0.848-2.183-0.42-4.364,0.373-6.488
				c3.999-10.712,11.809-24.224,24.248-26.037l0.116-0.019l0.101-0.062c2.345-1.51,4.432-2.459,7.255-2.668
				c0.506-0.036,1.017-0.029,1.525,0.018c2.284,0.218,4.412,1.227,6.435,2.244c1.83,0.92,3.946,2.098,5.997,2.342
				c8.776,1.057,17.616-0.25,26.41,0.234c2.582,0.143,4.95,0.721,7.403,1.515c2.501,0.812,4.924,1.639,7.543,2.021
				c3.068,0.452,8.422-1.472,8.235-5.248c-0.251-5.127-12.118-3.653-15.376-3.164l-0.123,0.016l-0.104,0.072
				c-1.662,1.142-4.548,1.705-6.541,1.666c-4.299-0.082-7.021-2.321-7.462-6.618c-0.265-2.562,0.568-5.389,1.989-7.628
				c0.059,2.257,0.536,4.768,2.786,5.583c2.143,0.779,4.456,0.638,6.583,1.348c0.959,0.321,1.82,0.796,2.577,1.467l0.198,0.175
				l0.259-0.047c2.338-0.416,4.745-0.63,7.119-0.626c5.205,0.011,12.831,1.289,12.872,7.949c0.036,6.012-4.635,8.418-9.89,9.378
				l-0.772,0.141l0.402,0.676c0.208,0.35,0.42,0.707,0.593,1.077c0.946,2.004,1.211,4.066,1.06,6.262
				c-0.119,1.758-0.778,3.078-1.194,4.74c-0.304,1.203-0.115,2.134,0.392,3.243c0.698,1.523,1.806,3.437,3.591,3.796
				c1.255,0.253,2.587-0.265,3.691,0.466c0.671,0.444,0.962,1.156,1.046,1.934c0.384,3.627,0.987,7.012,2.436,10.384
				c0.952,2.22,2.725,5.161,2.886,7.56c0.038,0.614-0.15,1.202-0.646,1.593c-0.413,0.325-0.848,0.404-1.359,0.368l-0.595-0.045
				l0.01,0.597c0.026,1.502-0.186,2.704-0.98,3.937l0.578,0.099c9.518,1.422,18.817,3.262,27.623,5.566
				c0.24-17.804-1.574-35.876-3.185-53.828C174.77,128.97,172.218,102.373,176.296,79.391 M68.293,200.794
				c6.462-0.386,13.038-0.568,19.562-0.614c-0.949-0.437-1.885-0.972-2.867-1.563l-0.07-0.039l-0.076-0.022
				c-0.431-0.11-0.218-0.041-0.55-0.067c-0.745-0.055-1.436-0.12-2.062-0.576c-2.454-1.795-3.669-4.705-5.748-6.864
				c-0.332-0.342-0.695-0.572-1.124-0.772c-0.299-0.139-0.602-0.266-0.907-0.389L74,189.701l-0.234,0.426
				c-0.772,1.407-1.84,2.614-2.526,4.077c-0.359,0.763-0.503,1.593-0.803,2.374c-0.302,0.779-0.696,0.927-1.41,1.237l-0.35,0.156
				l0.024,0.384c0.023,0.313,0.079,0.645,0.055,0.955C68.717,199.863,68.552,200.353,68.293,200.794 M94.759,200.177
				c1.422,0.007,2.843,0.019,4.255,0.041c3.98,0.05,7.93,0.114,11.848,0.215l0.256-0.612c0.689-1.636,2.268-2.899,3.601-4.009
				l0.157-0.132l0.032-0.202c0.112-0.716,0.132-1.128,0.707-1.644c1.55-1.396,6.067-4.626,6.883-6.151l0.139-0.261l-0.141-0.258
				c-0.384-0.704-1.658-1.751-2.289-2.336c-1.529-1.419-1.312-2.497-1.476-4.316l-0.043-0.468l-0.471-0.024
				c-1.223-0.065-2.468-0.156-3.671,0.135c-1.404,0.341-2.735,0.702-4.027,1.361c-0.985,0.502-2.495,1.462-3.574,1.596
				c-0.505,0.06-1.001-0.02-1.459-0.248c-0.707-0.352-0.848-0.725-1.382-1.224l-0.17-0.16l-0.232,0.014
				c-3.486,0.193-6.946-0.056-10.426-0.188l-0.126-0.005l-0.114,0.052c-1.149,0.507-2.484,1.013-3.744,1.061
				c-1.795,0.069-4.398-0.48-6.042,0.191c-1.265,0.518-2.477,1.241-3.44,2.219l-0.321,0.328l0.265,0.369
				c0.671,0.945,1.95,2.123,2.855,2.863c1.268,1.034,2.687,1.864,4.115,2.651c0.691,0.378,0.864,1.004,0.884,1.746l0.019,0.808
				l0.743-0.323c0.052-0.021,0.101-0.047,0.15-0.076c0.649-0.359,1.353-0.572,2.068-0.265c0.697,0.301,0.946,0.872,1.359,1.462
				c1.137,1.611,1.97,3.374,2.618,5.234L94.759,200.177z M120.663,200.77c7.944,0.353,15.74,0.927,23.352,1.896
				c-0.139-1.335,0.859-2.707,1.655-3.7c0.464-0.578,1.003-1.12,1.421-1.737l0.158-0.238l-0.101-0.265
				c-0.085-0.227-0.145-0.464-0.196-0.702c-0.185-0.938,0.059-1.964-0.179-2.903c-0.595-2.351-1.93-5.832-3.395-7.755l-0.109-0.143
				l-0.173-0.049c-1.439-0.42-3.532-0.303-5.082-0.559c-1.383-0.229-2.726-0.73-3.928-1.452l-1.696-1.023l0.936,1.745
				c0.638,1.188,1.016,2.426,0.212,3.637c-0.811,1.231-4.13,3.283-5.447,4.194c-0.989,0.687-1.978,1.38-2.912,2.141
				c-0.871,0.709-1.588,2.555-2.072,3.591c-0.321,0.682-0.854,1.225-1.653,1.208c-0.036,0-0.067,0-0.103-0.002l-0.633-0.035
				l0.061,0.632C120.832,199.765,120.789,200.269,120.663,200.77 M68.911,183.379c-0.047-0.199-0.092-0.436-0.043-0.643
				c0.184-0.723,0.55-1.124,0.882-1.751c0.561-1.05,0.531-2.14,0.265-3.268l-0.101-0.436l0.402-0.186
				c0.343-0.157,0.752-0.309,1.133-0.305c0.915,0.014,1.049,0.765,1.043,1.499c-0.021,0.978-2.014,4.262-2.58,5.237l-0.683,1.177
				L68.911,183.379z"/>
		</g>
		<g>
			<defs>
				<rect id="SVGID_37_" x="-46.444" y="56.983" width="292.075" height="287.724"/>
			</defs>
			<clipPath id="SVGID_38_">
				<use xlink:href="#SVGID_37_"  overflow="visible"/>
			</clipPath>
			<path clip-path="url(#SVGID_38_)" fill="#1A7342" d="M-5.96,291.897l-0.665-0.204c-7.13-2.208-13.788-3.414-21.263-3.336
				l-1.101,0.01l0.877-0.665c8.404-6.352,18.255-9.426,28.582-10.849l0.239-0.034l0.13,0.163c1.752,2.201,3.857,4.173,6.308,5.574
				c4.519,2.584,10.062,2.531,14.887,4.42c2.13,0.833,4.308,2.17,5.911,3.814c0.796,0.814,2.167,2.512,1.707,3.725
				c-0.305,0.81-1.366,1.101-2.137,1.214c-16.079,2.38-32.619,6.227-46.675,14.691l-0.805,0.486l0.272-0.902
				c2.14-7.106,7.44-13.168,13.19-17.677L-5.96,291.897z"/>
		</g>
		<g>
			<defs>
				<rect id="SVGID_39_" x="-46.444" y="56.983" width="292.075" height="287.724"/>
			</defs>
			<clipPath id="SVGID_40_">
				<use xlink:href="#SVGID_39_"  overflow="visible"/>
			</clipPath>
			<path clip-path="url(#SVGID_40_)" fill="#1A7342" d="M203.122,291.897l0.546,0.428c5.751,4.51,11.05,10.571,13.191,17.677
				l0.272,0.902l-0.805-0.486c-14.057-8.464-30.599-12.311-46.674-14.691c-0.771-0.113-2.457-0.323-2.764-1.136
				c-0.459-1.214,1.534-2.989,2.332-3.803c1.6-1.643,3.781-2.98,5.909-3.814c4.824-1.889,10.371-1.836,14.887-4.42
				c2.451-1.4,4.555-3.372,6.308-5.574l0.128-0.163l0.243,0.034c10.327,1.422,20.177,4.496,28.581,10.849l0.88,0.665l-1.103-0.01
				c-6.825-0.07-13.018,0.925-19.56,2.825c-0.571,0.164-1.14,0.335-1.706,0.51L203.122,291.897z"/>
		</g>
		<g>
			<defs>
				<rect id="SVGID_41_" x="-46.444" y="56.983" width="292.075" height="287.724"/>
			</defs>
			<clipPath id="SVGID_42_">
				<use xlink:href="#SVGID_41_"  overflow="visible"/>
			</clipPath>
			<path clip-path="url(#SVGID_42_)" fill="#1A7342" d="M81.557,229.14c11.544-0.523,23.076-0.516,34.618,0.018
				c16.404,0.76,32.689,2.748,48.782,6.028c7.774,1.584,15.558,3.433,23.086,5.96c2.947,0.987,9.267,3.203,11.334,5.389
				c5.365,5.66,3.433,16.39,0.625,22.845c-2.128,4.893-5.642,9.849-10.346,12.545c-0.703,0.402-1.436,0.741-2.189,1.03l-0.127,0.047
				l-0.495-0.175c-11.353-4.03-23.011-7.264-34.852-9.492c-1.004-0.188-2.008-0.372-3.014-0.544
				c-5.858-1.013-11.766-1.805-17.673-2.451c-10.779-1.178-21.88-1.972-32.727-2.002c-10.831-0.033-21.972,0.794-32.731,1.986
				c-5.909,0.653-11.812,1.454-17.665,2.466c-12.881,2.229-25.554,5.665-37.867,10.038l-0.494,0.175l-0.125-0.047
				c-0.755-0.289-1.49-0.628-2.191-1.03C2.8,279.23-0.71,274.275-2.841,269.381c-2.809-6.455-4.738-17.185,0.625-22.845
				c2.071-2.186,8.388-4.402,11.337-5.389c7.528-2.526,15.312-4.376,23.086-5.96C48.471,231.87,64.978,229.892,81.557,229.14"/>
		</g>
		<g>
			<defs>
				<rect id="SVGID_43_" x="-46.444" y="56.983" width="292.075" height="287.724"/>
			</defs>
			<clipPath id="SVGID_44_">
				<use xlink:href="#SVGID_43_"  overflow="visible"/>
			</clipPath>
			<path clip-path="url(#SVGID_44_)" d="M205.799,292.414c5.18,4.342,9.818,9.911,12.006,16.374c0.475,1.409,0.751,2.78,0.886,4.261
				l0.036,0.365l-0.312-0.194c-1.077-0.679-2.148-1.367-3.238-2.025c-13.776-8.298-29.968-11.888-45.713-14.209
				c-1.278-0.189-3.74-0.718-4.234-2.021c-0.683-1.811,1.49-3.796,2.688-5.028c1.728-1.77,4.447-3.245,6.747-4.146
				c3.168-1.241,6.482-1.647,9.749-2.469c-11.541-3.982-23.308-7.04-35.34-9.125c-16.655-2.881-33.592-4.279-50.493-4.279
				c-16.898,0-33.839,1.398-50.494,4.279c-12.033,2.085-23.798,5.142-35.338,9.125c3.264,0.822,6.578,1.227,9.749,2.469
				c2.298,0.902,4.628,2.335,6.355,4.108c1.199,1.231,3.06,3.647,2.378,5.456c-0.495,1.308-2.256,1.443-3.534,1.633
				c-15.403,2.277-31.264,5.911-44.878,13.74c-1.432,0.827-2.828,1.711-4.228,2.59l-0.341,0.214l0.066-0.397
				c0.205-1.251,0.435-2.41,0.807-3.623c2.078-6.771,6.869-12.596,12.24-17.095c-7.75-2.243-15.183-2.975-23.25-2.647l-0.48,0.019
				l0.347-0.332c3.699-3.54,8.255-6.438,12.909-8.545c5.824-2.639,12.046-4.225,18.353-5.166c-1.271-1.835-2.36-3.815-3.248-5.858
				c-3.031-6.967-4.898-18.138,0.868-24.226c4.802-5.07,27.69-10.213,35.091-11.72c18.041-3.678,36.521-5.964,54.924-6.615
				c8.017-0.285,16.065-0.278,24.079,0.025c18.181,0.682,36.429,2.955,54.256,6.59c7.399,1.507,30.287,6.65,35.089,11.72
				c5.768,6.088,3.9,17.26,0.868,24.226c-0.889,2.044-1.976,4.023-3.249,5.858c10.969,1.634,21.237,5.16,29.873,12.329l2.066,1.717
				l-2.684-0.11C219.631,289.374,213.003,290.32,205.799,292.414 M9.831,282.423l0.303-0.107
				c12.343-4.384,25.046-7.829,37.957-10.064c5.868-1.013,11.781-1.815,17.696-2.471c10.78-1.196,21.944-2.021,32.796-1.989
				c10.867,0.032,21.984,0.827,32.783,2.007c5.92,0.648,11.84,1.441,17.708,2.454c1.009,0.175,2.017,0.357,3.022,0.548
				c11.871,2.232,23.555,5.473,34.935,9.516l0.303,0.107c0.707-0.274,1.396-0.595,2.052-0.972c4.599-2.632,8.037-7.502,10.121-12.29
				c2.707-6.23,4.665-16.774-0.524-22.252c-1.978-2.089-8.29-4.299-11.114-5.246c-7.505-2.52-15.269-4.364-23.021-5.944
				c-16.067-3.275-32.322-5.259-48.698-6.018c-11.525-0.534-23.043-0.54-34.568-0.018c-16.552,0.75-33.03,2.726-49.267,6.035
				c-7.752,1.58-15.513,3.424-23.021,5.944c-2.826,0.946-9.136,3.156-11.115,5.246c-5.19,5.478-3.231,16.022-0.521,22.252
				c2.082,4.787,5.519,9.657,10.119,12.29C8.435,281.828,9.125,282.149,9.831,282.423 M196.683,277.402
				c-1.78,2.223-3.918,4.209-6.396,5.624c-4.602,2.634-10.097,2.553-14.959,4.456c-1.961,0.767-4.539,2.119-6.116,3.62
				c-0.647,0.812-1.463,2.155-2.203,3.142c0.216,0.574,2.186,0.867,2.722,0.946c15.997,2.368,32.433,6.181,46.467,14.519
				c-2.193-6.8-7.328-12.612-12.864-16.956l-1.363-1.071l1.656-0.511c0.57-0.177,1.139-0.345,1.714-0.513
				c6.418-1.862,12.505-2.862,19.166-2.85C216.291,281.747,206.713,278.787,196.683,277.402 M-19.035,309.708
				c14.032-8.338,30.469-12.151,46.467-14.519c0.537-0.079,1.901-0.352,2.119-0.927c-0.479-0.652-1.735-2.531-2.218-3.316
				c-1.525-1.487-3.537-2.697-5.499-3.464c-4.862-1.903-10.357-1.823-14.958-4.456c-2.483-1.416-4.616-3.402-6.397-5.624
				c-10.03,1.385-19.608,4.345-27.823,10.406c7.313-0.014,13.872,1.197,20.88,3.363l1.657,0.511l-1.365,1.071
				C-11.707,297.096-16.843,302.908-19.035,309.708"/>
		</g>
		<g>
			<defs>
				<rect id="SVGID_45_" x="-46.444" y="56.983" width="292.075" height="287.724"/>
			</defs>
			<clipPath id="SVGID_46_">
				<use xlink:href="#SVGID_45_"  overflow="visible"/>
			</clipPath>
			<path clip-path="url(#SVGID_46_)" d="M76.267,148.433c2.267-1.494,4.194-2.479,6.985-2.685c4.801-0.35,9.174,4.054,13.706,4.599
				c8.391,1.013,18.055-0.224,26.494,0.24c5.86,0.323,8.921,2.661,14.827,3.525c3.23,0.473,9.987-1.477,9.733-6.609
				c-0.274-5.519-9.451-5.6-17.35-4.319c-2.261,1.983-14.404,4.516-12.035-7.621c0.584,1.937,1.427,2.663,2.802,3.163
				c3.523,1.279,6.851,0.284,9.349,3.182c6.545-1.339,19.352-1.828,19.397,5.866c0.032,5.087-3.843,7.698-11.367,8.436
				c0.83,2.177,3.115,3.855,2.764,9c-0.24,3.518-2.409,4.855-0.683,8.62c3.574,7.793,7.877,2.618,8.214,5.787
				c0.352,3.335,0.882,6.912,2.534,10.763c1.025,2.387,2.649,5.161,2.782,7.131c0.105,1.562-2.789-0.769-2.65,1.243
				c0.111,1.636,0.218,3.132-0.891,4.665c-1.949-0.119-3.471-0.236-5.423-0.471c-0.906-1.552,2.829-4.551,3.08-5.68
				c0.278-1.252-0.024-0.137-0.296-1.499c-0.153-0.763,0.041-2.038-0.195-2.971c-0.844-3.329-2.55-6.926-3.823-8.476
				c-0.638-0.777-3.651-0.61-5.99-0.997c-3.301-0.545-5.609-2.63-6.716-4.527c-3.742,2.274,2.421,5.76,0.936,8.006
				c-0.716,1.086-5.412,3.856-8.094,6.04c-1.133,0.922-1.944,3.005-2.432,4.05c-0.762,1.634-1.203-1.768-2.63,0.038
				c-0.746,0.942,0.639,1.767,0.054,3.693c-2.678,0.018-4.341-0.238-7.02-0.297c0.591-1.414,2.113-2.564,3.619-3.839
				c0.349-0.293,0.102-1.287,0.543-1.684c2.775-2.496,6.778-5.085,7.352-6.957c0.402-1.304-1.214-2.561-2.742-3.978
				c-1.808-1.675-0.435-3.589-1.663-5.115c-1.752,0-3.343-0.319-5.196,0.129c-1.441,0.349-2.787,0.687-4.316,1.468
				c-1.348,0.689-2.46,1.377-3.141,1.462c-1.326,0.163-1.727-1.698-2.778-1.648c-4.361,0.28-6.759-0.029-11.117-0.182
				c-1.239,0.57-2.561,1.082-3.646,1.124c-2.194,0.086-4.501-0.525-6.489,0.287c-1.83,0.75-3.41,1.83-4.534,3.258
				c-0.595,0.624,1.234,2.839,3.56,4.743c1.396,1.143,2.975,2.046,4.314,2.784c0.541,0.296-0.191,2.32,0.4,2.528
				c0.521,0.186,1.723,0.148,2.661-0.375c1.05-0.586,1.109-0.067,1.723,0.805c1.077,1.53,1.839,3.166,2.452,4.914
				c-3.327,0.108-5.719-1.382-7.716-2.585c-0.739-0.444-1.947-0.126-2.612-0.609c-2.16-1.58-3.738-4.807-5.58-6.716
				c-1.223-1.268-2.605-1.294-4.191-2.276c-0.327,1.873-2.229,3.771-3.175,5.781c-0.399,0.852-0.464,1.483-0.839,2.457
				c-0.251,0.655-1.328,0.511-1.653,1.135c-0.58,1.111,0.645,2.098-1.038,3.664c-1.649,0.072-3.732,0.302-5.502,0.373
				c1.004-3.028,2.729-3.999,4.025-5.865c0.916-1.317,1.835-2.773,2.67-4.148c1.205-1.994,1.747-4.178,2.775-6.111
				c1.294-2.432,3.302-5.336,3.311-6.862c0.009-2.117-1.202-2.786-2.336-2.802c-1.162-0.017-2.305,0.741-3.128,1.21
				c1.371,3.888-0.158,3.434-0.738,5.717c-0.325,1.276,0.76,2.814,0.76,3.836c0,0.285-0.422,0.837-0.846,0.593
				c-0.5-0.292-0.657-1.393-0.884-2.05c-0.265-0.772-0.581-1.068-0.996-0.736c-1.169,0.934,0.116,2.85,0.274,4.47
				c-0.115,0.914-1.255,1.4-2.668,2.237c-0.355,0.726-1.568,1.133-2.048,0.273c-0.395-0.707-0.582-2.183-1.241-2.991
				c-1.486-1.817-3.173-3.392-4.702-4.991c-0.191,0.125-0.387,0.25-0.586,0.382c-2.53,1.629-6.894,2.541-8.039,2.601
				c1.708-1.214,3.516-2.587,5.123-4.036c0.484-0.437,0.946-0.895,1.355-1.366c-0.34-0.456-0.645-0.929-0.822-1.386
				c-0.687-1.768-0.357-3.586,0.379-5.557C56.745,162.75,64.458,149.892,76.267,148.433 M57.7,180.776
				c-0.329,0.607-0.246,1.479,0.107,2.091c0.342,0.589,0.923,0.867,1.74,1.225c0.248-0.871,0.516-1.67-0.079-2.607
				C59.058,180.836,58.315,180.749,57.7,180.776 M63.163,169.93c1.696,0.846,2.939,1.557,3.814,2.456
				c1.022,1.054,1.261,2.699,1.246,3.861c0.366-0.382,0.77-0.484,1.138-0.668C69.443,169.307,66.302,169.153,63.163,169.93
				 M59.948,160.988c3.125-3.787,5.764-9.6,16.161-11.533c-2.073,3.004-2.488,6.457-2.432,10.276
				c-1.648-2.457-1.961-4.759-1.725-7.139C67.767,153.701,62.91,157.951,59.948,160.988 M53.671,177.147
				c0.253-0.377,0.955-0.626,1.541-0.623c0.942,0.002,1.839,0.829,1.952,1.564c0.528,3.489-3.818,5.412-7.454,6.59
				c2.562-1.889,4.492-3.626,5.166-5.294c0.226-0.566-0.039-0.752-0.561-0.516c-0.27,0.122-0.667-0.036-0.813-0.238
				C53.202,178.215,53.403,177.547,53.671,177.147"/>
		</g>
		<g>
			<defs>
				<rect id="SVGID_47_" x="-46.444" y="56.983" width="292.075" height="287.724"/>
			</defs>
			<clipPath id="SVGID_48_">
				<use xlink:href="#SVGID_47_"  overflow="visible"/>
			</clipPath>
			<path clip-path="url(#SVGID_48_)" fill="#FFFFFF" d="M146.813,110.901l2.447,9.782l-3.102-2.021
				c-5.378-3.507-11.265-6.339-17.68-7.212c-4.867-0.662-9.36-0.105-14.139,0.797c-5.213,0.982-10.144,2.118-15.496,2.171
				c-5.898,0.055-11.15-1.255-16.875-2.313c-4.644-0.862-8.984-1.31-13.691-0.556c-6.269,1.005-12.039,3.962-17.247,7.489
				l-3.112,2.11l2.522-10.401l-7.112-4.422l2.312-1.164c5.331-2.684,11.115-5.168,16.935-6.57c6.917-1.669,12.342-1.848,19.29-0.532
				c2.462,0.466,4.898,1.025,7.371,1.429c2.967,0.487,5.905,0.735,8.915,0.731c5.15-0.007,9.593-0.94,14.589-1.936
				c5.263-1.046,9.852-1.595,15.246-1.066c8.012,0.786,16.623,4.351,23.652,8.118l2.217,1.187L146.813,110.901z"/>
		</g>
		<g>
			<defs>
				
					<rect id="SVGID_49_" x="-64.608" y="-125.427" transform="matrix(0.7071 -0.7071 0.7071 0.7071 10.8155 62.9771)" width="292.072" height="287.721"/>
			</defs>
			<clipPath id="SVGID_50_">
				<use xlink:href="#SVGID_49_"  overflow="visible"/>
			</clipPath>
			
				<rect x="126.364" y="103.949" transform="matrix(0.7071 -0.7071 0.7071 0.7071 -37.29 121.7249)" clip-path="url(#SVGID_50_)" fill="#1A7342" width="3.852" height="3.853"/>
		</g>
		<g>
			<defs>
				
					<rect id="SVGID_51_" x="-55.015" y="-129.407" transform="matrix(0.707 -0.7072 0.7072 0.707 16.447 68.6056)" width="292.072" height="287.721"/>
			</defs>
			<clipPath id="SVGID_52_">
				<use xlink:href="#SVGID_51_"  overflow="visible"/>
			</clipPath>
			
				<rect x="131.989" y="103.943" transform="matrix(0.707 -0.7072 0.7072 0.707 -35.6356 125.7251)" clip-path="url(#SVGID_52_)" fill="#1A7342" width="3.852" height="3.854"/>
		</g>
		<g>
			<defs>
				
					<rect id="SVGID_53_" x="-45.377" y="-133.404" transform="matrix(0.7072 -0.707 0.707 0.7072 22.0793 74.2278)" width="292.072" height="287.721"/>
			</defs>
			<clipPath id="SVGID_54_">
				<use xlink:href="#SVGID_53_"  overflow="visible"/>
			</clipPath>
			
				<rect x="137.618" y="103.94" transform="matrix(0.7072 -0.707 0.707 0.7072 -33.991 129.656)" clip-path="url(#SVGID_54_)" fill="#1A7342" width="3.853" height="3.853"/>
		</g>
		<g>
			<defs>
				<rect id="SVGID_55_" x="-46.444" y="56.983" width="292.075" height="287.724"/>
			</defs>
			<clipPath id="SVGID_56_">
				<use xlink:href="#SVGID_55_"  overflow="visible"/>
			</clipPath>
			<path clip-path="url(#SVGID_56_)" fill="#1A7342" d="M146.887,104.862c-0.794-0.384-1.573-0.745-2.336-1.084l-2.098,2.098
				l2.723,2.723l2.726-2.723L146.887,104.862z"/>
		</g>
		<g>
			<defs>
				<rect id="SVGID_57_" x="-46.444" y="56.983" width="292.075" height="287.724"/>
			</defs>
			<clipPath id="SVGID_58_">
				<use xlink:href="#SVGID_57_"  overflow="visible"/>
			</clipPath>
			<path clip-path="url(#SVGID_58_)" fill="#1A7342" d="M149.62,107.413l1.018-0.639c-0.771-0.413-1.528-0.809-2.273-1.183
				l-0.282,0.284L149.62,107.413z"/>
		</g>
		<g>
			<defs>
				<rect id="SVGID_59_" x="-46.444" y="56.983" width="292.075" height="287.724"/>
			</defs>
			<clipPath id="SVGID_60_">
				<use xlink:href="#SVGID_59_"  overflow="visible"/>
			</clipPath>
			<path clip-path="url(#SVGID_60_)" fill="#1A7342" d="M130.057,99.291c-0.65-0.096-1.282-0.174-1.9-0.236
				c-0.437-0.043-0.87-0.078-1.294-0.107l-1.299,1.298l2.726,2.725l2.723-2.725L130.057,99.291z"/>
		</g>
		<g>
			<defs>
				<rect id="SVGID_61_" x="-46.444" y="56.983" width="292.075" height="287.724"/>
			</defs>
			<clipPath id="SVGID_62_">
				<use xlink:href="#SVGID_61_"  overflow="visible"/>
			</clipPath>
			<path clip-path="url(#SVGID_62_)" fill="#1A7342" d="M136.216,100.67c-1.537-0.452-2.996-0.803-4.375-1.073l-0.648,0.648
				l2.723,2.723L136.216,100.67z"/>
		</g>
		<g>
			<defs>
				<rect id="SVGID_63_" x="-46.444" y="56.983" width="292.075" height="287.724"/>
			</defs>
			<clipPath id="SVGID_64_">
				<use xlink:href="#SVGID_63_"  overflow="visible"/>
			</clipPath>
			<path clip-path="url(#SVGID_64_)" fill="#1A7342" d="M140.434,102.084c-0.936-0.35-1.844-0.669-2.728-0.954l1.842,1.841
				L140.434,102.084z"/>
		</g>
		<g>
			<defs>
				<rect id="SVGID_65_" x="-46.444" y="56.983" width="292.075" height="287.724"/>
			</defs>
			<clipPath id="SVGID_66_">
				<use xlink:href="#SVGID_65_"  overflow="visible"/>
			</clipPath>
			<path clip-path="url(#SVGID_66_)" fill="#1A7342" d="M127.614,109.454c0.509,0.055,1.026,0.122,1.548,0.202l-0.874-0.873
				L127.614,109.454z"/>
		</g>
		<g>
			<defs>
				<rect id="SVGID_67_" x="-46.444" y="56.983" width="292.075" height="287.724"/>
			</defs>
			<clipPath id="SVGID_68_">
				<use xlink:href="#SVGID_67_"  overflow="visible"/>
			</clipPath>
			<path clip-path="url(#SVGID_68_)" fill="#1A7342" d="M132.379,110.32c1.33,0.341,2.704,0.777,4.128,1.319l0.134-0.134
				l-2.726-2.723L132.379,110.32z"/>
		</g>
		<g>
			<defs>
				<rect id="SVGID_69_" x="-46.444" y="56.983" width="292.075" height="287.724"/>
			</defs>
			<clipPath id="SVGID_70_">
				<use xlink:href="#SVGID_69_"  overflow="visible"/>
			</clipPath>
			<path clip-path="url(#SVGID_70_)" fill="#1A7342" d="M137.248,111.932c1.027,0.415,2.087,0.891,3.17,1.427l1.854-1.854
				l-2.725-2.723l-2.725,2.723L137.248,111.932z"/>
		</g>
		<g>
			<defs>
				<rect id="SVGID_71_" x="-46.444" y="56.983" width="292.075" height="287.724"/>
			</defs>
			<clipPath id="SVGID_72_">
				<use xlink:href="#SVGID_71_"  overflow="visible"/>
			</clipPath>
			<polygon clip-path="url(#SVGID_72_)" fill="#1A7342" points="145.907,113.499 145.148,110.226 146.052,109.658 145.177,108.783 
				142.453,111.506 145.177,114.23 			"/>
		</g>
		<g>
			<defs>
				<rect id="SVGID_73_" x="-46.444" y="56.983" width="292.075" height="287.724"/>
			</defs>
			<clipPath id="SVGID_74_">
				<use xlink:href="#SVGID_73_"  overflow="visible"/>
			</clipPath>
			<path clip-path="url(#SVGID_74_)" fill="#1A7342" d="M144.186,115.402c0.827,0.489,1.67,1.01,2.53,1.57l-0.31-1.332l-1.23-1.228
				L144.186,115.402z"/>
		</g>
		<g>
			<defs>
				<rect id="SVGID_75_" x="-46.444" y="56.983" width="292.075" height="287.724"/>
			</defs>
			<clipPath id="SVGID_76_">
				<use xlink:href="#SVGID_75_"  overflow="visible"/>
			</clipPath>
			<polygon clip-path="url(#SVGID_76_)" fill="#1A7342" points="124.726,101.565 122.002,104.289 124.726,107.013 			"/>
		</g>
		<g>
			<defs>
				
					<rect id="SVGID_77_" x="-109.008" y="14.898" transform="matrix(-0.707 -0.7072 0.7072 -0.707 -49.0686 297.1877)" width="292.072" height="287.721"/>
			</defs>
			<clipPath id="SVGID_78_">
				<use xlink:href="#SVGID_77_"  overflow="visible"/>
			</clipPath>
			
				<rect x="117.173" y="102.36" transform="matrix(-0.707 -0.7072 0.7072 -0.707 129.5509 262.2451)" clip-path="url(#SVGID_78_)" fill="#1A7342" width="3.852" height="3.853"/>
		</g>
		<g>
			<defs>
				<rect id="SVGID_79_" x="-46.444" y="56.983" width="292.075" height="287.724"/>
			</defs>
			<clipPath id="SVGID_80_">
				<use xlink:href="#SVGID_79_"  overflow="visible"/>
			</clipPath>
			<polygon clip-path="url(#SVGID_80_)" fill="#1A7342" points="116.19,104.29 113.463,101.565 110.742,104.29 113.463,107.013 			
				"/>
		</g>
		<g>
			<defs>
				
					<rect id="SVGID_81_" x="-112.307" y="22.861" transform="matrix(-0.707 -0.7072 0.7072 -0.707 -60.3318 308.4473)" width="292.072" height="287.721"/>
			</defs>
			<clipPath id="SVGID_82_">
				<use xlink:href="#SVGID_81_"  overflow="visible"/>
			</clipPath>
			
				<rect x="105.914" y="102.359" transform="matrix(-0.707 -0.7072 0.7072 -0.707 110.3313 254.2823)" clip-path="url(#SVGID_82_)" fill="#1A7342" width="3.852" height="3.854"/>
		</g>
		<g>
			<defs>
				
					<rect id="SVGID_83_" x="-113.969" y="26.849" transform="matrix(-0.707 -0.7072 0.7072 -0.707 -65.9892 314.08)" width="292.072" height="287.721"/>
			</defs>
			<clipPath id="SVGID_84_">
				<use xlink:href="#SVGID_83_"  overflow="visible"/>
			</clipPath>
			
				<rect x="100.27" y="102.366" transform="matrix(-0.707 -0.7072 0.7072 -0.707 100.6934 250.3018)" clip-path="url(#SVGID_84_)" fill="#1A7342" width="3.852" height="3.853"/>
		</g>
		<g>
			<defs>
				<rect id="SVGID_85_" x="-46.444" y="56.983" width="292.075" height="287.724"/>
			</defs>
			<clipPath id="SVGID_86_">
				<use xlink:href="#SVGID_85_"  overflow="visible"/>
			</clipPath>
			<path clip-path="url(#SVGID_86_)" fill="#1A7342" d="M124.726,98.847c-0.868-0.02-1.706-0.016-2.527,0.012l2.527,2.526V98.847z"
				/>
		</g>
		<g>
			<defs>
				<rect id="SVGID_87_" x="-46.444" y="56.983" width="292.075" height="287.724"/>
			</defs>
			<clipPath id="SVGID_88_">
				<use xlink:href="#SVGID_87_"  overflow="visible"/>
			</clipPath>
			<path clip-path="url(#SVGID_88_)" fill="#1A7342" d="M121.596,98.883c-1.591,0.074-3.107,0.227-4.58,0.422l2.079,2.081
				L121.596,98.883z"/>
		</g>
		<g>
			<defs>
				<rect id="SVGID_89_" x="-46.444" y="56.983" width="292.075" height="287.724"/>
			</defs>
			<clipPath id="SVGID_90_">
				<use xlink:href="#SVGID_89_"  overflow="visible"/>
			</clipPath>
			<path clip-path="url(#SVGID_90_)" fill="#1A7342" d="M115.293,99.557c-1.05,0.165-2.086,0.346-3.125,0.53l1.298,1.298
				L115.293,99.557z"/>
		</g>
		<g>
			<defs>
				<rect id="SVGID_91_" x="-46.444" y="56.983" width="292.075" height="287.724"/>
			</defs>
			<clipPath id="SVGID_92_">
				<use xlink:href="#SVGID_91_"  overflow="visible"/>
			</clipPath>
			<path clip-path="url(#SVGID_92_)" fill="#1A7342" d="M108.489,100.729c-0.372,0.061-0.75,0.122-1.13,0.182l0.475,0.473
				L108.489,100.729z"/>
		</g>
		<g>
			<defs>
				<rect id="SVGID_93_" x="-46.444" y="56.983" width="292.075" height="287.724"/>
			</defs>
			<clipPath id="SVGID_94_">
				<use xlink:href="#SVGID_93_"  overflow="visible"/>
			</clipPath>
			<path clip-path="url(#SVGID_94_)" fill="#1A7342" d="M122.633,109.289c0.689-0.025,1.387-0.034,2.093-0.018v-2.074
				L122.633,109.289z"/>
		</g>
		<g>
			<defs>
				<rect id="SVGID_95_" x="-46.444" y="56.983" width="292.075" height="287.724"/>
			</defs>
			<clipPath id="SVGID_96_">
				<use xlink:href="#SVGID_95_"  overflow="visible"/>
			</clipPath>
			<path clip-path="url(#SVGID_96_)" fill="#1A7342" d="M116.418,109.966c1.591-0.264,3.2-0.482,4.846-0.603l-2.17-2.168
				l-2.723,2.724L116.418,109.966z"/>
		</g>
		<g>
			<defs>
				<rect id="SVGID_97_" x="-46.444" y="56.983" width="292.075" height="287.724"/>
			</defs>
			<clipPath id="SVGID_98_">
				<use xlink:href="#SVGID_97_"  overflow="visible"/>
			</clipPath>
			<path clip-path="url(#SVGID_98_)" fill="#1A7342" d="M111.686,110.864c1.464-0.297,2.929-0.588,4.4-0.839l0.105-0.102
				l-2.725-2.725l-2.724,2.725L111.686,110.864z"/>
		</g>
		<g>
			<defs>
				<rect id="SVGID_99_" x="-46.444" y="56.983" width="292.075" height="287.724"/>
			</defs>
			<clipPath id="SVGID_100_">
				<use xlink:href="#SVGID_99_"  overflow="visible"/>
			</clipPath>
			<path clip-path="url(#SVGID_100_)" fill="#1A7342" d="M106.957,111.766c0.723-0.124,1.437-0.257,2.148-0.393l1.456-1.454
				l-2.726-2.723l-2.723,2.723L106.957,111.766z"/>
		</g>
		<g>
			<defs>
				
					<rect id="SVGID_101_" x="-122.532" y="50.789" transform="matrix(-0.7072 -0.707 0.707 -0.7072 -97.4918 348.9245)" width="292.072" height="287.721"/>
			</defs>
			<clipPath id="SVGID_102_">
				<use xlink:href="#SVGID_101_"  overflow="visible"/>
			</clipPath>
			
				<rect x="67.1" y="103.946" transform="matrix(-0.7072 -0.707 0.707 -0.7072 42.9892 229.549)" clip-path="url(#SVGID_102_)" fill="#1A7342" width="3.853" height="3.853"/>
		</g>
		<g>
			<defs>
				
					<rect id="SVGID_103_" x="-124.209" y="54.759" transform="matrix(-0.707 -0.7072 0.7072 -0.707 -103.2056 354.4803)" width="292.072" height="287.721"/>
			</defs>
			<clipPath id="SVGID_104_">
				<use xlink:href="#SVGID_103_"  overflow="visible"/>
			</clipPath>
			
				<rect x="61.467" y="103.948" transform="matrix(-0.707 -0.7072 0.7072 -0.707 33.3382 225.5608)" clip-path="url(#SVGID_104_)" fill="#1A7342" width="3.852" height="3.852"/>
		</g>
		<g>
			<defs>
				
					<rect id="SVGID_105_" x="-125.829" y="58.75" transform="matrix(-0.7072 -0.707 0.707 -0.7072 -108.7485 360.1839)" width="292.072" height="287.721"/>
			</defs>
			<clipPath id="SVGID_106_">
				<use xlink:href="#SVGID_105_"  overflow="visible"/>
			</clipPath>
			
				<rect x="55.84" y="103.947" transform="matrix(-0.7072 -0.707 0.707 -0.7072 23.7657 221.589)" clip-path="url(#SVGID_106_)" fill="#1A7342" width="3.853" height="3.852"/>
		</g>
		<g>
			<defs>
				<rect id="SVGID_107_" x="-46.444" y="56.983" width="292.075" height="287.724"/>
			</defs>
			<clipPath id="SVGID_108_">
				<use xlink:href="#SVGID_107_"  overflow="visible"/>
			</clipPath>
			<path clip-path="url(#SVGID_108_)" fill="#1A7342" d="M50.42,104.862c0.794-0.384,1.572-0.745,2.336-1.084l2.1,2.098
				l-2.727,2.723l-2.721-2.723L50.42,104.862z"/>
		</g>
		<g>
			<defs>
				<rect id="SVGID_109_" x="-46.444" y="56.983" width="292.075" height="287.724"/>
			</defs>
			<clipPath id="SVGID_110_">
				<use xlink:href="#SVGID_109_"  overflow="visible"/>
			</clipPath>
			<path clip-path="url(#SVGID_110_)" fill="#1A7342" d="M47.686,107.413l-1.018-0.639c0.772-0.413,1.53-0.809,2.273-1.183
				l0.284,0.284L47.686,107.413z"/>
		</g>
		<g>
			<defs>
				<rect id="SVGID_111_" x="-46.444" y="56.983" width="292.075" height="287.724"/>
			</defs>
			<clipPath id="SVGID_112_">
				<use xlink:href="#SVGID_111_"  overflow="visible"/>
			</clipPath>
			<path clip-path="url(#SVGID_112_)" fill="#1A7342" d="M67.249,99.291c0.653-0.096,1.284-0.174,1.901-0.236
				c0.439-0.043,0.87-0.078,1.295-0.107l1.298,1.298l-2.724,2.725l-2.723-2.725L67.249,99.291z"/>
		</g>
		<g>
			<defs>
				<rect id="SVGID_113_" x="-46.444" y="56.983" width="292.075" height="287.724"/>
			</defs>
			<clipPath id="SVGID_114_">
				<use xlink:href="#SVGID_113_"  overflow="visible"/>
			</clipPath>
			<path clip-path="url(#SVGID_114_)" fill="#1A7342" d="M61.091,100.67c1.539-0.452,2.996-0.803,4.377-1.073l0.646,0.648
				l-2.723,2.723L61.091,100.67z"/>
		</g>
		<g>
			<defs>
				<rect id="SVGID_115_" x="-46.444" y="56.983" width="292.075" height="287.724"/>
			</defs>
			<clipPath id="SVGID_116_">
				<use xlink:href="#SVGID_115_"  overflow="visible"/>
			</clipPath>
			<path clip-path="url(#SVGID_116_)" fill="#1A7342" d="M56.874,102.084c0.936-0.35,1.844-0.669,2.728-0.954l-1.842,1.841
				L56.874,102.084z"/>
		</g>
		<g>
			<defs>
				<rect id="SVGID_117_" x="-46.444" y="56.983" width="292.075" height="287.724"/>
			</defs>
			<clipPath id="SVGID_118_">
				<use xlink:href="#SVGID_117_"  overflow="visible"/>
			</clipPath>
			<path clip-path="url(#SVGID_118_)" fill="#1A7342" d="M69.692,109.454c-0.509,0.055-1.025,0.122-1.546,0.202l0.875-0.873
				L69.692,109.454z"/>
		</g>
		<g>
			<defs>
				<rect id="SVGID_119_" x="-46.444" y="56.983" width="292.075" height="287.724"/>
			</defs>
			<clipPath id="SVGID_120_">
				<use xlink:href="#SVGID_119_"  overflow="visible"/>
			</clipPath>
			<path clip-path="url(#SVGID_120_)" fill="#1A7342" d="M64.927,110.32c-1.33,0.341-2.703,0.777-4.128,1.319l-0.132-0.134
				l2.725-2.723L64.927,110.32z"/>
		</g>
		<g>
			<defs>
				<rect id="SVGID_121_" x="-46.444" y="56.983" width="292.075" height="287.724"/>
			</defs>
			<clipPath id="SVGID_122_">
				<use xlink:href="#SVGID_121_"  overflow="visible"/>
			</clipPath>
			<path clip-path="url(#SVGID_122_)" fill="#1A7342" d="M60.06,111.932c-1.031,0.415-2.087,0.891-3.17,1.427l-1.854-1.854
				l2.723-2.723l2.727,2.723L60.06,111.932z"/>
		</g>
		<g>
			<defs>
				<rect id="SVGID_123_" x="-46.444" y="56.983" width="292.075" height="287.724"/>
			</defs>
			<clipPath id="SVGID_124_">
				<use xlink:href="#SVGID_123_"  overflow="visible"/>
			</clipPath>
			<polygon clip-path="url(#SVGID_124_)" fill="#1A7342" points="51.4,113.499 52.162,110.226 51.256,109.658 52.131,108.783 
				54.855,111.506 52.131,114.23 			"/>
		</g>
		<g>
			<defs>
				<rect id="SVGID_125_" x="-46.444" y="56.983" width="292.075" height="287.724"/>
			</defs>
			<clipPath id="SVGID_126_">
				<use xlink:href="#SVGID_125_"  overflow="visible"/>
			</clipPath>
			<path clip-path="url(#SVGID_126_)" fill="#1A7342" d="M53.122,115.402c-0.827,0.489-1.668,1.01-2.53,1.57l0.313-1.332
				l1.227-1.228L53.122,115.402z"/>
		</g>
		<g>
			<defs>
				<rect id="SVGID_127_" x="-46.444" y="56.983" width="292.075" height="287.724"/>
			</defs>
			<clipPath id="SVGID_128_">
				<use xlink:href="#SVGID_127_"  overflow="visible"/>
			</clipPath>
			<polygon clip-path="url(#SVGID_128_)" fill="#1A7342" points="72.583,101.565 75.307,104.289 72.583,107.013 			"/>
		</g>
		<g>
			<defs>
				
					<rect id="SVGID_129_" x="-151.224" y="-92.719" transform="matrix(0.707 -0.7072 0.7072 0.707 -37.688 11.315)" width="292.072" height="287.721"/>
			</defs>
			<clipPath id="SVGID_130_">
				<use xlink:href="#SVGID_129_"  overflow="visible"/>
			</clipPath>
			
				<rect x="76.285" y="102.36" transform="matrix(0.707 -0.7072 0.7072 0.707 -50.8364 85.8667)" clip-path="url(#SVGID_130_)" fill="#1A7342" width="3.852" height="3.852"/>
		</g>
		<g>
			<defs>
				
					<rect id="SVGID_131_" x="-141.603" y="-96.708" transform="matrix(0.7071 -0.7071 0.7071 0.7071 -32.0434 16.9454)" width="292.072" height="287.721"/>
			</defs>
			<clipPath id="SVGID_132_">
				<use xlink:href="#SVGID_131_"  overflow="visible"/>
			</clipPath>
			
				<rect x="81.918" y="102.363" transform="matrix(0.7071 -0.7071 0.7071 0.7071 -49.1864 89.8322)" clip-path="url(#SVGID_132_)" fill="#1A7342" width="3.852" height="3.853"/>
		</g>
		<g>
			<defs>
				
					<rect id="SVGID_133_" x="-132.002" y="-100.682" transform="matrix(0.707 -0.7072 0.7072 0.707 -26.4241 22.5754)" width="292.072" height="287.721"/>
			</defs>
			<clipPath id="SVGID_134_">
				<use xlink:href="#SVGID_133_"  overflow="visible"/>
			</clipPath>
			
				<rect x="87.546" y="102.358" transform="matrix(0.707 -0.7072 0.7072 0.707 -47.5368 93.8301)" clip-path="url(#SVGID_134_)" fill="#1A7342" width="3.852" height="3.854"/>
		</g>
		<g>
			<defs>
				
					<rect id="SVGID_135_" x="-122.386" y="-104.653" transform="matrix(0.707 -0.7072 0.7072 0.707 -20.7985 28.2132)" width="292.072" height="287.721"/>
			</defs>
			<clipPath id="SVGID_136_">
				<use xlink:href="#SVGID_135_"  overflow="visible"/>
			</clipPath>
			
				<rect x="93.182" y="102.37" transform="matrix(0.707 -0.7072 0.7072 0.707 -45.8933 97.8191)" clip-path="url(#SVGID_136_)" fill="#1A7342" width="3.852" height="3.853"/>
		</g>
		<g>
			<defs>
				<rect id="SVGID_137_" x="-46.444" y="56.983" width="292.075" height="287.724"/>
			</defs>
			<clipPath id="SVGID_138_">
				<use xlink:href="#SVGID_137_"  overflow="visible"/>
			</clipPath>
			<path clip-path="url(#SVGID_138_)" fill="#1A7342" d="M72.583,98.847c0.866-0.02,1.707-0.016,2.524,0.012l-2.524,2.526V98.847z"
				/>
		</g>
		<g>
			<defs>
				<rect id="SVGID_139_" x="-46.444" y="56.983" width="292.075" height="287.724"/>
			</defs>
			<clipPath id="SVGID_140_">
				<use xlink:href="#SVGID_139_"  overflow="visible"/>
			</clipPath>
			<path clip-path="url(#SVGID_140_)" fill="#1A7342" d="M75.71,98.883c1.593,0.074,3.108,0.227,4.582,0.422l-2.08,2.081
				L75.71,98.883z"/>
		</g>
		<g>
			<defs>
				<rect id="SVGID_141_" x="-46.444" y="56.983" width="292.075" height="287.724"/>
			</defs>
			<clipPath id="SVGID_142_">
				<use xlink:href="#SVGID_141_"  overflow="visible"/>
			</clipPath>
			<path clip-path="url(#SVGID_142_)" fill="#1A7342" d="M82.016,99.557c1.048,0.165,2.084,0.346,3.122,0.53l-1.296,1.298
				L82.016,99.557z"/>
		</g>
		<g>
			<defs>
				<rect id="SVGID_143_" x="-46.444" y="56.983" width="292.075" height="287.724"/>
			</defs>
			<clipPath id="SVGID_144_">
				<use xlink:href="#SVGID_143_"  overflow="visible"/>
			</clipPath>
			<path clip-path="url(#SVGID_144_)" fill="#1A7342" d="M88.816,100.729c0.375,0.061,0.752,0.122,1.13,0.182l-0.475,0.473
				L88.816,100.729z"/>
		</g>
		<g>
			<defs>
				<rect id="SVGID_145_" x="-46.444" y="56.983" width="292.075" height="287.724"/>
			</defs>
			<clipPath id="SVGID_146_">
				<use xlink:href="#SVGID_145_"  overflow="visible"/>
			</clipPath>
			<path clip-path="url(#SVGID_146_)" fill="#1A7342" d="M74.676,109.289c-0.689-0.025-1.387-0.034-2.093-0.018v-2.074
				L74.676,109.289z"/>
		</g>
		<g>
			<defs>
				<rect id="SVGID_147_" x="-46.444" y="56.983" width="292.075" height="287.724"/>
			</defs>
			<clipPath id="SVGID_148_">
				<use xlink:href="#SVGID_147_"  overflow="visible"/>
			</clipPath>
			<path clip-path="url(#SVGID_148_)" fill="#1A7342" d="M80.887,109.966c-1.591-0.264-3.197-0.482-4.844-0.603l2.169-2.168
				l2.723,2.724L80.887,109.966z"/>
		</g>
		<g>
			<defs>
				<rect id="SVGID_149_" x="-46.444" y="56.983" width="292.075" height="287.724"/>
			</defs>
			<clipPath id="SVGID_150_">
				<use xlink:href="#SVGID_149_"  overflow="visible"/>
			</clipPath>
			<path clip-path="url(#SVGID_150_)" fill="#1A7342" d="M85.623,110.864c-1.468-0.297-2.929-0.588-4.402-0.839l-0.104-0.102
				l2.724-2.725l2.723,2.725L85.623,110.864z"/>
		</g>
		<g>
			<defs>
				<rect id="SVGID_151_" x="-46.444" y="56.983" width="292.075" height="287.724"/>
			</defs>
			<clipPath id="SVGID_152_">
				<use xlink:href="#SVGID_151_"  overflow="visible"/>
			</clipPath>
			<path clip-path="url(#SVGID_152_)" fill="#1A7342" d="M90.35,111.766c-0.72-0.124-1.436-0.257-2.148-0.393l-1.454-1.454
				l2.723-2.723l2.723,2.723L90.35,111.766z"/>
		</g>
		<g>
			<defs>
				<rect id="SVGID_153_" x="-46.444" y="56.983" width="292.075" height="287.724"/>
			</defs>
			<clipPath id="SVGID_154_">
				<use xlink:href="#SVGID_153_"  overflow="visible"/>
			</clipPath>
			<path clip-path="url(#SVGID_154_)" d="M46.292,106.461l5.806,3.608l-1.882,7.767c22.011-14.909,32.253-4.714,48.612-4.873
				c15.857-0.152,26.46-9.642,48.123,4.481l-1.804-7.219l5.804-3.608c-9.396-5.039-17.335-7.39-23.107-7.953
				c-11.822-1.16-18.041,2.996-29.693,3.008c-14.712,0.02-19.104-5.557-35.235-1.668C58.399,101.092,52.912,103.127,46.292,106.461
				 M47.558,106.52l5.246,3.261l-1.617,6.672c5.115-3.306,10.707-5.974,16.762-6.946c4.952-0.794,9.51-0.341,14.398,0.564
				c5.568,1.03,10.745,2.334,16.478,2.277c5.208-0.05,10.054-1.179,15.129-2.136c5.012-0.944,9.701-1.505,14.803-0.812
				c6.21,0.846,11.937,3.408,17.219,6.693l-1.537-6.153l5.275-3.278c-6.596-3.446-14.564-6.662-21.93-7.382
				c-5.183-0.509-9.578,0.029-14.639,1.036c-5.139,1.023-9.693,1.968-14.991,1.977c-3.121,0.004-6.173-0.256-9.251-0.759
				c-2.493-0.408-4.946-0.969-7.423-1.441c-6.662-1.262-11.785-1.087-18.42,0.512C57.757,101.883,52.469,104.098,47.558,106.52"/>
		</g>
		<g>
			<defs>
				<rect id="SVGID_155_" x="-46.444" y="56.983" width="292.075" height="287.724"/>
			</defs>
			<clipPath id="SVGID_156_">
				<use xlink:href="#SVGID_155_"  overflow="visible"/>
			</clipPath>
			<path clip-path="url(#SVGID_156_)" fill="#FFFFFF" d="M99.122,79.957c9.201,0,16.665,7.463,16.665,16.664
				c0,9.201-7.463,16.665-16.665,16.665c-9.204,0-16.666-7.463-16.666-16.665C82.456,87.42,89.918,79.957,99.122,79.957"/>
		</g>
		<g>
			<defs>
				<rect id="SVGID_157_" x="-46.444" y="56.983" width="292.075" height="287.724"/>
			</defs>
			<clipPath id="SVGID_158_">
				<use xlink:href="#SVGID_157_"  overflow="visible"/>
			</clipPath>
			<path clip-path="url(#SVGID_158_)" fill="#FFFFFF" d="M99.122,81.609c8.288,0,15.01,6.723,15.01,15.012
				c0,8.29-6.723,15.012-15.01,15.012c-8.29,0-15.013-6.723-15.013-15.012C84.109,88.331,90.832,81.609,99.122,81.609"/>
		</g>
		<g>
			<defs>
				<rect id="SVGID_159_" x="-46.444" y="56.983" width="292.075" height="287.724"/>
			</defs>
			<clipPath id="SVGID_160_">
				<use xlink:href="#SVGID_159_"  overflow="visible"/>
			</clipPath>
			<path clip-path="url(#SVGID_160_)" d="M99.122,81.301c8.458,0,15.32,6.859,15.32,15.32c0,8.458-6.861,15.32-15.32,15.32
				s-15.322-6.861-15.322-15.32C83.799,88.16,90.663,81.301,99.122,81.301 M88.255,86.719l0.57,1.362l4.271,0.231l5.147-3.971
				l-0.394-2.369C94.058,82.298,90.679,84.063,88.255,86.719 M88.316,88.461l-0.511-1.223c-1.708,2.055-2.865,4.584-3.247,7.36
				l1.914-1.143L88.316,88.461z M98.578,84.861l-4.996,3.855l0.237,4.498l4.98,2.224l4.272-2.513l0.097-5.771L98.578,84.861z
				 M86.528,94.14l-2.057,1.227c-0.034,0.413-0.053,0.83-0.053,1.255c0,2.709,0.732,5.246,2.01,7.425l2.309,0.48l1.304-1.523
				l-0.918-6.17L86.528,94.14z M88.464,105.099l-1.58-0.327c0.574,0.863,1.238,1.659,1.979,2.378L88.464,105.099z M89.749,96.848
				l0.884,5.943l3.907,1.158l4.651-3.453l-0.673-4.508l-4.929-2.198L89.749,96.848z M110.74,87.613
				c-1.109-0.596-2.227-1.196-3.35-1.773l-3.606,1.363l-0.094,5.788l3.715,3.44l4.918-1.559l0.498-3.596
				C112.304,89.95,111.599,88.719,110.74,87.613 M107.645,85.277c0.648,0.332,1.293,0.672,1.936,1.014
				c-0.734-0.743-1.543-1.407-2.421-1.978L107.645,85.277z M112.43,95.484l-4.975,1.579l-2.124,4.58l1.368,4.205l4.098-0.291
				c1.709-2.23,2.796-4.963,2.995-7.936L112.43,95.484z M96.206,108.604l7.092,0.65l2.847-3.117l-1.346-4.138l-5.194-1.038
				l-4.586,3.404L96.206,108.604z M103.078,109.854l-6.989-0.64l-1.317,1.456c1.375,0.426,2.836,0.655,4.35,0.655
				c1.393,0,2.742-0.194,4.021-0.557L103.078,109.854z"/>
		</g>
		<g>
			<defs>
				<rect id="SVGID_161_" x="-46.444" y="56.983" width="292.075" height="287.724"/>
			</defs>
			<clipPath id="SVGID_162_">
				<use xlink:href="#SVGID_161_"  overflow="visible"/>
			</clipPath>
			<path clip-path="url(#SVGID_162_)" d="M130.988,82.453c0.182-0.857,0.172-1.598,0.058-2.27c-0.143-0.846-0.18-1.553,0.413-2.436
				c1.03-1.535,5.185-0.655,7.453,0.549c0.786,0.417,1.706,1.035,2.518,1.754c1.493,1.323,2.33,3.016,1.798,4.364
				c-0.292,0.743-0.869,1.078-1.439,1.235c-0.443,0.122-0.963,0.244-1.62,0.726c-2.661,1.952-7.117,8.735-13.653,19.615
				c-1.12,1.862-0.568,5.192,1.911,5.414c1.663,0.244,3.226,0.529,4.635,0.974c-2.173,1.481-4.939,1.748-6.783,0.949
				c-3.303-1.429-4.521-5.112-3.177-9.414c0.732-2.342,1.678-4.459,2.492-6.393C127.761,92.376,129.788,88.128,130.988,82.453"/>
		</g>
		<g>
			<defs>
				<rect id="SVGID_163_" x="-46.444" y="56.983" width="292.075" height="287.724"/>
			</defs>
			<clipPath id="SVGID_164_">
				<use xlink:href="#SVGID_163_"  overflow="visible"/>
			</clipPath>
			<path clip-path="url(#SVGID_164_)" fill="#FFFFFF" d="M131.796,111.971c-1.486,0.808-3.405,1.059-5.033,0.354
				c-2.946-0.762-4.051-4.999-3.031-8.271c0.682-2.179,1.551-4.198,2.432-6.296c0.774-1.835,1.541-3.603,2.265-5.372
				c0.765-1.875,4.694-10.026,4.406-11.718c-0.132-0.783-1.483-1.359-0.861-2.58c0.511-1.004,3.276-0.425,4.153-0.196
				c0.872,3.084-0.829,1.624-1.909,4.382c-2.141,5.464-6.114,13.934-8.153,19.065c-0.926,2.332-1.39,4.319-1.211,4.413
				c0.35,0.18,0.875-1.259,2.018-3.15c1.38-2.282,3.321-5.457,5.362-8.761c2.025-3.277,4.396-7.066,6.323-9.221
				c0.655-0.732,1.557-0.253,2.129-0.724c0.478-0.395,0.616-2.205-0.516-4.076c0.293,0.219,0.581,0.45,0.848,0.688
				c0.909,0.804,2.152,2.37,1.636,3.677c-0.188,0.478-0.542,0.732-1.028,0.864c-0.713,0.199-1.211,0.379-1.822,0.827
				c-1.957,1.434-4.151,4.616-5.517,6.609c-2.925,4.265-5.636,8.753-8.299,13.186c-1.345,2.237-0.568,6.062,2.396,6.324
				c0.382,0.037,1.306-0.064,1.689-0.386C130.793,111.759,131.421,111.895,131.796,111.971"/>
		</g>
		<g>
			<defs>
				<rect id="SVGID_165_" x="-46.444" y="56.983" width="292.075" height="287.724"/>
			</defs>
			<clipPath id="SVGID_166_">
				<use xlink:href="#SVGID_165_"  overflow="visible"/>
			</clipPath>
			<path clip-path="url(#SVGID_166_)" d="M132.323,96.063c1.514-0.442,4.334-0.262,6.161,3.455c-1.983-0.649-4.458-1.247-7.34-1.748
				L132.323,96.063z"/>
		</g>
		<g>
			<defs>
				<rect id="SVGID_167_" x="-46.444" y="56.983" width="292.075" height="287.724"/>
			</defs>
			<clipPath id="SVGID_168_">
				<use xlink:href="#SVGID_167_"  overflow="visible"/>
			</clipPath>
			<path clip-path="url(#SVGID_168_)" fill="#FFFFFF" d="M132.286,96.623c0.734-0.171,1.866-0.103,2.535,0.182
				c0.978,0.416,1.854,1.259,2.513,2.344c-0.792-0.177-1.512-0.435-2.162-0.548c-0.454-1.167-2.141-1.33-3.327-1.278L132.286,96.623
				z"/>
		</g>
		<g>
			<defs>
				<rect id="SVGID_169_" x="-46.444" y="56.983" width="292.075" height="287.724"/>
			</defs>
			<clipPath id="SVGID_170_">
				<use xlink:href="#SVGID_169_"  overflow="visible"/>
			</clipPath>
			<path clip-path="url(#SVGID_170_)" d="M123.337,109.52c-1.846,2.111-3.473,4.618-4.548,6.657
				c-0.489,0.928-0.552,1.869-1.021,2.441c-0.634,0.775-1.923,0.85-2.746,0.041l-2.157-2.117c-1.02-0.998-0.719-2.158-0.198-2.67
				c0.871-0.852,2.495-1.285,3.669-2.219c2.362-1.875,4.584-4.442,6.924-7.232C122.707,106.281,122.631,107.873,123.337,109.52"/>
		</g>
		<g>
			<defs>
				<rect id="SVGID_171_" x="-46.444" y="56.983" width="292.075" height="287.724"/>
			</defs>
			<clipPath id="SVGID_172_">
				<use xlink:href="#SVGID_171_"  overflow="visible"/>
			</clipPath>
			<path clip-path="url(#SVGID_172_)" fill="#FFFFFF" d="M122.664,108.294l-6.29,7.254c-0.041,0.074-0.272,0.2-0.509,0.166
				c-0.353,0.201-0.313,0.984,0.585,1.207c0.163,0.041,0.511,0.05,0.691,0.334c0.221,0.346,0.088,0.646-0.163,0.954
				c-0.461,0.564-1.03,0.493-1.524,0.011l-1.782-1.741c-0.468-0.461-0.909-1.423-0.375-1.946c0.387-0.38,0.734-0.27,1.109-0.088
				c0.551,0.27,0.564,1.023,1.039,0.607c0.18-0.176,0.193-0.877,0.61-1.306c2.279-2.344,4.558-5.124,6.558-7.556
				C122.544,107.049,122.521,107.585,122.664,108.294"/>
		</g>
		<g>
			<defs>
				<rect id="SVGID_173_" x="-46.444" y="56.983" width="292.075" height="287.724"/>
			</defs>
			<clipPath id="SVGID_174_">
				<use xlink:href="#SVGID_173_"  overflow="visible"/>
			</clipPath>
			<path clip-path="url(#SVGID_174_)" d="M66.692,82.453c-0.18-0.857-0.173-1.598-0.058-2.27c0.143-0.846,0.178-1.553-0.413-2.436
				c-1.03-1.535-5.185-0.655-7.452,0.549c-0.785,0.417-1.707,1.035-2.518,1.754c-1.494,1.323-2.33,3.016-1.799,4.364
				c0.294,0.743,0.871,1.078,1.439,1.235c0.442,0.122,0.964,0.244,1.622,0.726c2.661,1.952,7.118,8.735,13.651,19.615
				c1.12,1.862,0.569,5.192-1.908,5.414c-1.663,0.244-3.228,0.529-4.636,0.974c2.175,1.481,4.937,1.748,6.782,0.949
				c3.304-1.429,4.52-5.112,3.176-9.414c-0.73-2.342-1.676-4.459-2.49-6.393C69.92,92.376,67.891,88.128,66.692,82.453"/>
		</g>
		<g>
			<defs>
				<rect id="SVGID_175_" x="-46.444" y="56.983" width="292.075" height="287.724"/>
			</defs>
			<clipPath id="SVGID_176_">
				<use xlink:href="#SVGID_175_"  overflow="visible"/>
			</clipPath>
			<path clip-path="url(#SVGID_176_)" fill="#FFFFFF" d="M65.885,111.971c1.482,0.808,3.403,1.059,5.03,0.354
				c2.948-0.762,4.053-4.999,3.032-8.271c-0.681-2.179-1.548-4.198-2.432-6.296c-0.774-1.835-1.543-3.603-2.264-5.372
				c-0.766-1.875-4.695-10.026-4.407-11.718c0.135-0.783,1.486-1.359,0.865-2.58c-0.511-1.004-3.278-0.425-4.153-0.196
				c-0.875,3.084,0.824,1.624,1.907,4.382c2.143,5.464,6.114,13.934,8.151,19.065c0.93,2.332,1.391,4.319,1.212,4.413
				c-0.347,0.18-0.875-1.259-2.016-3.15c-1.381-2.282-3.321-5.457-5.362-8.761c-2.024-3.277-4.396-7.066-6.322-9.221
				c-0.655-0.732-1.557-0.253-2.13-0.724c-0.478-0.395-0.617-2.205,0.518-4.076c-0.296,0.219-0.583,0.45-0.85,0.688
				c-0.908,0.804-2.152,2.37-1.636,3.677c0.188,0.478,0.543,0.732,1.028,0.864c0.717,0.199,1.214,0.379,1.824,0.827
				c1.954,1.434,4.148,4.616,5.515,6.609c2.926,4.265,5.637,8.753,8.3,13.186c1.345,2.237,0.57,6.062-2.396,6.324
				c-0.38,0.037-1.306-0.064-1.69-0.386C66.888,111.759,66.26,111.895,65.885,111.971"/>
		</g>
		<g>
			<defs>
				<rect id="SVGID_177_" x="-46.444" y="56.983" width="292.075" height="287.724"/>
			</defs>
			<clipPath id="SVGID_178_">
				<use xlink:href="#SVGID_177_"  overflow="visible"/>
			</clipPath>
			<path clip-path="url(#SVGID_178_)" d="M65.358,96.063c-1.514-0.442-4.334-0.262-6.162,3.455c1.982-0.649,4.457-1.247,7.337-1.748
				L65.358,96.063z"/>
		</g>
		<g>
			<defs>
				<rect id="SVGID_179_" x="-46.444" y="56.983" width="292.075" height="287.724"/>
			</defs>
			<clipPath id="SVGID_180_">
				<use xlink:href="#SVGID_179_"  overflow="visible"/>
			</clipPath>
			<path clip-path="url(#SVGID_180_)" fill="#FFFFFF" d="M65.394,96.623c-0.731-0.171-1.866-0.103-2.535,0.182
				c-0.978,0.416-1.856,1.259-2.514,2.344c0.794-0.177,1.512-0.435,2.162-0.548c0.454-1.167,2.141-1.33,3.327-1.278L65.394,96.623z"
				/>
		</g>
		<g>
			<defs>
				<rect id="SVGID_181_" x="-46.444" y="56.983" width="292.075" height="287.724"/>
			</defs>
			<clipPath id="SVGID_182_">
				<use xlink:href="#SVGID_181_"  overflow="visible"/>
			</clipPath>
			<path clip-path="url(#SVGID_182_)" d="M74.341,109.52c1.849,2.111,3.476,4.618,4.551,6.657c0.489,0.928,0.551,1.869,1.017,2.441
				c0.635,0.775,1.926,0.85,2.748,0.041l2.156-2.117c1.019-0.998,0.719-2.158,0.195-2.67c-0.867-0.852-2.492-1.285-3.666-2.219
				c-2.363-1.875-4.584-4.442-6.924-7.232C74.971,106.281,75.05,107.873,74.341,109.52"/>
		</g>
		<g>
			<defs>
				<rect id="SVGID_183_" x="-46.444" y="56.983" width="292.075" height="287.724"/>
			</defs>
			<clipPath id="SVGID_184_">
				<use xlink:href="#SVGID_183_"  overflow="visible"/>
			</clipPath>
			<path clip-path="url(#SVGID_184_)" fill="#FFFFFF" d="M75.015,108.294l6.291,7.254c0.038,0.074,0.271,0.2,0.509,0.166
				c0.351,0.201,0.313,0.984-0.586,1.207c-0.162,0.041-0.514,0.05-0.693,0.334c-0.217,0.346-0.083,0.646,0.166,0.954
				c0.461,0.564,1.028,0.493,1.521,0.011l1.784-1.741c0.468-0.461,0.907-1.423,0.373-1.946c-0.386-0.38-0.733-0.27-1.106-0.088
				c-0.55,0.27-0.563,1.023-1.038,0.607c-0.178-0.176-0.197-0.877-0.613-1.306c-2.276-2.344-4.556-5.124-6.556-7.556
				C75.135,107.049,75.159,107.585,75.015,108.294"/>
		</g>
		<g>
			<defs>
				<rect id="SVGID_185_" x="-46.444" y="56.983" width="292.075" height="287.724"/>
			</defs>
			<clipPath id="SVGID_186_">
				<use xlink:href="#SVGID_185_"  overflow="visible"/>
			</clipPath>
			<path clip-path="url(#SVGID_186_)" d="M92.178,292.692c1.254,0,2.27,1.018,2.27,2.272c0,0.37-0.09,0.719-0.244,1.028
				l-0.448,1.173c-0.533,1.706-1.331,3.318-1.609,5.098c-0.139,0.898-0.242,2.043-0.014,2.924c0.711,2.738,3.419,3.899,6.028,4
				c2.576,0.101,5.946-0.815,6.833-3.55c0.848-2.62-0.495-6.279-1.546-8.692l-0.418-0.956l0.007-0.02
				c-0.143-0.299-0.225-0.633-0.225-0.987c0-1.251,1.016-2.27,2.271-2.27c0.987,0,1.828,0.635,2.141,1.518l0.006-0.02l0.501,1.666
				c1.246,3.483,2.535,6.591,2.173,10.399c-0.251,2.618-1.4,4.721-3.417,6.39c-2.282,1.887-5.237,2.67-8.157,2.681
				c-2.927,0.014-5.353-0.798-7.587-2.71c-1.696-1.447-2.93-3.347-3.319-5.565c-0.762-4.348,0.837-7.359,2.107-11.332l0.475-1.447
				l0.018-0.055l0.005-0.016h0.002C90.341,293.332,91.184,292.692,92.178,292.692"/>
		</g>
		<g>
			<defs>
				<rect id="SVGID_187_" x="-46.444" y="56.983" width="292.075" height="287.724"/>
			</defs>
			<clipPath id="SVGID_188_">
				<use xlink:href="#SVGID_187_"  overflow="visible"/>
			</clipPath>
			<path clip-path="url(#SVGID_188_)" fill="#FFFFFF" d="M92.178,293.31c0.912,0,1.653,0.739,1.653,1.654
				c0,0.913-0.741,1.651-1.653,1.651c-0.913,0-1.654-0.739-1.654-1.651C90.524,294.049,91.265,293.31,92.178,293.31"/>
		</g>
		<g>
			<defs>
				<rect id="SVGID_189_" x="-46.444" y="56.983" width="292.075" height="287.724"/>
			</defs>
			<clipPath id="SVGID_190_">
				<use xlink:href="#SVGID_189_"  overflow="visible"/>
			</clipPath>
			<path clip-path="url(#SVGID_190_)" fill="#FFFFFF" d="M105.083,293.329c0.912,0,1.652,0.742,1.652,1.654
				s-0.741,1.651-1.652,1.651c-0.912,0-1.653-0.739-1.653-1.651C103.43,294.071,104.171,293.329,105.083,293.329"/>
		</g>
		<g>
			<defs>
				<rect id="SVGID_191_" x="-46.444" y="56.983" width="292.075" height="287.724"/>
			</defs>
			<clipPath id="SVGID_192_">
				<use xlink:href="#SVGID_191_"  overflow="visible"/>
			</clipPath>
			<path clip-path="url(#SVGID_192_)" fill="#FFFFFF" d="M98.136,309.807c-2.88-0.115-5.815-1.442-6.601-4.464
				c-0.234-0.897-0.173-2.063,0.002-3.175c0.291-1.88,1.07-3.401,1.627-5.187c-0.368,0.262-0.291,0.254-0.987,0.254
				c-0.182,0-0.382-0.036-0.586-0.102l-0.974,2.522l-1.015-0.395l1.032-2.672c-0.216-0.188-0.397-0.413-0.513-0.66
				c-1.197,3.74-2.827,6.815-2.085,11.037c0.362,2.073,1.524,3.848,3.111,5.203c0.556,0.475,1.124,0.881,1.707,1.216
				c0.42-0.791,1.47-1.476,2.344-1.476h1.393c0.413-0.732,1.095-1.139,1.966-1.105c0.858,0.036,1.461,0.375,1.862,1.105h1.304
				c0.98,0,1.784,0.8,2.372,1.565c0.724-0.353,1.396-0.784,2-1.284c1.662-1.374,2.936-3.247,3.197-5.971
				c0.373-3.922-1.152-7.429-2.177-10.166c-0.137,0.272-0.33,0.5-0.551,0.68l0.978,2.528l-1.016,0.395l-0.95-2.46
				c-0.133,0.028-0.266,0.042-0.394,0.042c-0.693,0-0.529,0.008-1.059-0.233c1.034,2.674,2.368,6.03,1.461,8.826
				C104.613,308.811,101.074,309.92,98.136,309.807 M93.401,313.671c1.494,0.741,3.105,1.067,4.926,1.057
				c1.89-0.009,3.648-0.345,5.19-0.994c-0.466-0.587-1.105-1.209-1.794-1.209h-1.689l-0.083-0.178c-0.3-0.646-0.724-0.9-1.419-0.926
				c-0.689-0.028-1.178,0.307-1.473,0.926l-0.083,0.178h-1.777C94.555,312.526,93.709,313.087,93.401,313.671 M91.251,309.106
				c0.57,0.594,1.18,1.147,1.852,1.632l0.441,0.317l-0.638,0.884l-0.442-0.317c-0.725-0.523-1.384-1.117-2.002-1.764l-0.377-0.392
				l0.788-0.755L91.251,309.106z M106.679,309.857c-0.616,0.646-1.276,1.24-2.002,1.764l-0.442,0.317l-0.638-0.884l0.443-0.317
				c0.67-0.485,1.28-1.037,1.85-1.632l0.377-0.395l0.788,0.755L106.679,309.857z M89.943,303.707
				c-0.085,0.711-0.112,1.43-0.002,2.141l0.083,0.538l-1.077,0.165l-0.083-0.537c-0.126-0.811-0.098-1.623-0.002-2.438l0.064-0.538
				l1.081,0.13L89.943,303.707z M108.28,303.577c0.099,0.815,0.124,1.627-0.002,2.438l-0.082,0.537l-1.078-0.165l0.083-0.538
				c0.111-0.711,0.083-1.43-0.002-2.141l-0.064-0.538l1.081-0.13L108.28,303.577z"/>
		</g>
		<g>
			<defs>
				<rect id="SVGID_193_" x="-46.444" y="56.983" width="292.075" height="287.724"/>
			</defs>
			<clipPath id="SVGID_194_">
				<use xlink:href="#SVGID_193_"  overflow="visible"/>
			</clipPath>
			<path clip-path="url(#SVGID_194_)" d="M36.505,249.382c0.976,0.989,1.537,2.154,1.386,3.812c0.392-0.636,0.76-1.326,1.216-2.145
				l3.056-5.513l0.541-0.174c1.644-0.545,3.334-1.016,5.041-1.322c5.589-0.996,11.087,0.195,10.608,7.173
				c-0.007,0.101-0.018,0.205-0.033,0.313l0.457-0.313c1.914-3.559,4.598-6.981,8.304-8.758c1.824-0.874,4.355-1.398,6.384-1.35
				c0.7,0.018,1.358,0.12,2.026,0.323c0.294,0.09,0.607,0.227,0.902,0.306l8.032-0.73l-2.805,4.676
				c2.605-3.06,6.355-5.693,9.657-5.626c3.22,0.066,4.807,1.445,6.006,4.262l-4.233,4.326c-0.633-1.079-1.308-1.659-2.466-1.684
				c-1.197-0.025-2.643,1.572-3.228,2.484c-0.435,0.673-0.796,1.465-0.927,2.259c-0.088,0.525-0.13,1.4,0.597,1.381
				c1.016-0.032,2.515-0.633,3.392-1.127c2.502-1.411,5.001-3.942,6.503-6.369l3.093-5.006h9.626l-3.373,5.415h1.582l3.218-5.333
				h9.783l-5.858,9.463c0.231-0.179,0.433-0.354,0.578-0.493c3.507-4.809,8.503-10.379,15.1-8.422
				c1.941,0.574,3.615,2.306,4.389,4.139c0.477,1.124,0.643,2.263,0.571,3.382c4.696-6.471,13.554-8.289,20.95-5.156
				c0.748,0.314,1.38,0.803,2.077,1.197l1.353,0.767l-4.927,7.481c0.165-0.052,0.33-0.103,0.496-0.155
				c2.926-3.864,6.549-8.401,11.86-8.135c2.403,0.119,5.16,1.24,7.084,2.764l6.899,0.963l-5.156,7.478
				c0.516-0.479,0.957-0.95,1.154-1.235l4.24-6.151l0.893,0.131c3.243,0.479,7.698,1.138,10.471,2.961
				c4.25,2.796,5.565,7.792,2.299,11.862c-2.364,2.941-5.042,4.155-8.742,4.138c-2.103-0.012-4.093-0.675-5.618-2.017l-5.65,7.824
				l-9.67-2.73l5.196-7.03c-0.719,0.104-1.437,0.151-2.136,0.143c-1.672-0.019-3.042-0.755-3.678-2.045
				c-2.393,0.666-5.222,1.051-7.372,0.13c-0.238-0.102-0.459-0.216-0.665-0.342c1.075,1.852,2.163,3.695,3.231,5.551l1.285,2.234
				l-2.578-0.058c-4.028-0.088-9.471-0.784-13.399-2.307c-2.96,3.021-7.346,5.478-11.452,5.984
				c-3.626,0.447-8.943-0.754-10.406-4.544c-0.761-1.968-0.068-4.187,1.207-5.77c1.684-2.098,4.238-3.016,6.828-3.346
				c1.501-0.188,3.006-0.129,4.498,0.075c-0.608-0.383-1.147-0.875-1.582-1.496c-0.394-0.565-0.653-1.176-0.796-1.816l-1.384,0.442
				c-4.072,2.414-11.063,4.914-15.054,1.133c-0.589-0.559-1.041-1.206-1.371-1.914c-2.715,1.907-6.387,3.811-9.249,3.517
				c-3.423-0.35-5.241-2.813-3.332-5.913l0.43-0.702l-1.757,0.004l-4.08,6.655l-9.654-0.059l0.296-0.489
				c-0.77,0.303-1.562,0.535-2.365,0.68c-2.138,0.385-4.512,0.113-6.096-1.519c-0.452-0.462-0.788-0.987-1.028-1.553
				c-2.618,2.272-6.247,4.912-9.055,3.951c-0.709-0.24-1.28-0.662-1.744-1.191c-2.515,1.799-6.212,3.091-8.744,1.266
				c-1.049-0.754-1.562-1.833-1.743-3.002l-2.545,1.39c-3.042,2.762-8.881,5.489-13.139,4.175l-5.215,9.163l-11.563,1.285
				l5.219-7.99c-1.136,0.375-2.241,0.579-3.128,0.413c-0.889-0.167-1.694-0.566-2.28-1.272c-2.214-2.672,0.435-7.776,2-10.469
				c-0.612,0.02-1.483,0.208-2.1,0.368l-7.081,14.122l-14.113,4.604l0.877-2.712c1.381-4.267,4.975-8.887,7.647-12.486
				c0.724-0.974,1.672-2.216,2.65-3.593c-2.055,1.391-4.5,2.258-6.923,2.44c-2.43,0.183-4.7-0.545-6.201-2.54
				c-1.768-2.355-1.95-5.918-0.913-8.611c1.941-5.032,6.219-8.764,11.205-10.64c4.167-1.566,9.592-2.021,13.518,0.438
				c4.387,2.751,5.053,6.608,3.862,10.563c3.877-2.864,6.385-6.75,7.354-11.876l0.289-1.526l9.497,2.461l-0.671,1.555
				C43.953,241.726,41.066,246.302,36.505,249.382 M155.034,259.231c-0.126-0.311-0.222-0.642-0.292-0.98
				c-1.658,0.464-3.19,1.212-4.462,2.449c-0.573,0.556-1.032,1.153-1.462,1.765c1.976-0.013,3.299-0.878,5.303-2.499
				L155.034,259.231z M20.042,244.297c0.004-0.066,0.009-0.129,0.009-0.191c0.036-1.173-0.056-3.117-1.291-3.732
				c-1.624-0.807-4.7,0.442-6.201,1.162c-0.732,0.35-1.436,0.774-2.096,1.247c-1.386,0.995-5.753,4.96-3.43,6.821
				c0.143,0.113,0.32,0.232,0.51,0.227c0.925-0.013,3.541-2.798,4.299-3.459c2.156-1.883,4.551-3.132,7.476-2.284L20.042,244.297z
				 M136.687,265.052c-1.187-0.079-2.385-0.104-3.52-0.047c-1.032,0.052-2.156,0.37-3.029,0.936
				c-0.244,0.159-0.953,0.707-0.944,1.07c0.175,0.69,2.032,0.735,2.522,0.724c1.03-0.022,2.668-0.714,3.496-1.343
				C135.732,265.998,136.223,265.538,136.687,265.052 M188.252,256.31c-0.545,0.264-1.603,1.402-1.874,1.703
				c-0.441,0.487-1.555,1.97-2.044,3.004c0.776-0.322,1.724-1.12,2.078-1.496C186.892,259,188.174,257.208,188.252,256.31
				 M168.844,251.578c-0.864,0.209-2.374,1.299-2.807,1.647c-0.527,0.424-1.839,1.815-2.428,2.804
				c0.844-0.216,2.007-0.877,2.421-1.154C166.69,254.43,168.4,252.648,168.844,251.578 M148.115,248.224
				c-0.891,0.314-2.554,1.842-2.98,2.257c-0.473,0.464-1.611,1.921-2.127,2.957c1.006-0.426,2.382-1.61,2.819-2.03
				C146.326,250.917,147.796,249.198,148.115,248.224 M128.251,246.561c-0.915,0.211-2.742,2.257-3.19,2.809
				c-0.487,0.604-1.749,2.554-2.196,3.794c1.141-0.594,2.778-2.322,3.25-2.883C126.61,249.7,128.181,247.532,128.251,246.561
				 M71.852,247.195c-1.135,0.493-3.132,2.539-3.749,3.251c-0.426,0.492-1.494,1.939-2.033,3.022
				c1.197-0.713,2.817-2.246,3.339-2.798C69.915,250.134,71.506,248.241,71.852,247.195 M44.736,257.383
				c1.176-0.668,2.743-2.457,3.233-3.16c0.42-0.599,1.903-2.841,1.895-3.719c-0.959-0.012-2.924,2.642-3.382,3.323
				C46.083,254.414,45.081,256.216,44.736,257.383"/>
		</g>
		<g>
			<defs>
				<rect id="SVGID_195_" x="-46.444" y="56.983" width="292.075" height="287.724"/>
			</defs>
			<clipPath id="SVGID_196_">
				<use xlink:href="#SVGID_195_"  overflow="visible"/>
			</clipPath>
			<path clip-path="url(#SVGID_196_)" fill="#FFFFFF" d="M6.207,270.902c2.668-8.237,15.072-19.098,15.297-26.751
				c0.229-7.772-6.341-5.474-9.572-3.925c-4.776,2.291-9.201,7.797-5.804,10.514c3.67,2.935,6.728-7.012,12.787-5.256
				c-0.173,5.705-5.848,9.511-10.826,9.883c-5.954,0.447-7.032-5.59-5.65-9.179c3.702-9.597,16.397-13.376,22.596-9.49
				c4.989,3.127,4.407,7.877,1.413,12.944c6.915-3.347,10.738-8.527,12.003-15.221l6.354,1.648
				c-2.142,4.982-5.23,10.146-10.825,13.143c1.527,1.04,2.73,2.012,2.436,4.097c-0.209,1.467-1.104,2.738-1.396,3.543
				c-0.294,0.803,0.126,1.272,1.197,0.399c2.49-2.035,3.255-3.865,4.162-5.497l2.779-5.018c4.934-1.626,14.313-3.906,13.747,4.373
				c-0.076,1.097-1.068,3.107-1.822,4.415l4.812-3.321c1.99-3.798,4.564-6.883,7.814-8.44c1.463-0.703,3.774-1.255,5.722-1.207
				c1.512,0.036,2.119,0.514,2.869,0.643l5.405-0.492l-5.755,9.601c-0.942,2.616,1.884,0.994,4.238-1.647
				c1.82-4.727,7.562-9.226,11.057-9.156c1.555,0.028,3.385,0.293,4.319,2.486l-2.508,2.564c-0.382-0.398-0.976-1.021-2.442-1.053
				c-2.281-0.047-5.141,3.046-5.62,5.96c-0.234,1.402,0.236,3.122,2.076,3.066c0.973-0.028,2.627-0.505,4.06-1.312
				c2.115-1.194,5.039-3.662,7.023-6.871l2.668-4.317h6.197l-3.372,5.414h5.022l3.217-5.336h6.354l-5.102,8.239
				c-0.597,0.964-0.938,1.696-0.602,1.989c0.566,0.494,2.464-0.08,4.136-1.756c5.394-7.426,9.482-9.199,13.582-7.985
				c2.383,0.709,6.071,4.712,2.341,10.263l3.139-1.57c3.843-7.223,12.793-9.549,20.276-6.382c0.597,0.254,1.342,0.794,1.928,1.126
				l-6.357,9.649c1.779-0.523,3.087-1.047,4.864-1.569c4.58-6.053,7.283-8.117,10.917-7.939c2.181,0.106,4.83,1.21,6.547,2.696
				l4.974,0.693l-5.57,8.082c-0.389,0.566,0.004,1.396,0.78,1.306c1.29-0.15,3.693-2.236,4.516-3.431l3.727-5.407
				c4.324,0.637,7.728,1.319,9.884,2.737c4.11,2.702,4.288,6.841,1.961,9.736c-2.362,2.946-4.843,3.61-7.601,3.593
				c-2.28-0.011-4.433-0.919-5.736-2.887l-6.118,8.472l-6.671-1.883l6.671-9.022c-1.951,1.151-4.27,1.529-6.014,1.51
				c-1.744-0.02-2.671-0.985-2.617-2.451c-2.768,0.958-5.862,1.52-7.874,0.652c-1.379-0.589-2.251-1.85-2.17-4.105
				c-6.719,1.201-8.106,4.918-9.804,7.139c3.662,0.813,5.517,0.13,8.787-2.51c0.994,1.727,2.93,5.021,3.921,6.749
				c-4.529-0.101-10.335-1-13.807-2.591c-2.246,2.58-6.614,5.705-11.255,6.278c-2.864,0.349-7.667-0.505-8.87-3.625
				c-0.59-1.525,0.091-3.23,0.982-4.338c1.481-1.845,3.801-2.552,5.878-2.815c3.705-0.466,7.315,0.794,9.107,1.049
				c0.837-0.836,1.753-2.224,2.59-3.061c-4.994,1.126-8.919-0.655-8.394-4.628l-3.35,1.071c-7.451,4.494-14.319,3.816-15.01-1.891
				c-3.025,2.501-7.234,4.79-9.917,4.514c-2.888-0.293-3.325-1.947-2.241-3.706l1.805-2.929l-5.183,0.02l-4.077,6.649l-6.276-0.039
				l2.04-3.376c-6.74,5.639-13.186,4.46-12.787-0.94c-5.241,4.814-9.564,7.853-11.456,3.45c-3.792,3.715-10.514,4.554-9.333-2.038
				l-4.905,2.685c-2.879,2.689-9.231,5.675-12.905,3.513l-5.494,9.649l-7.767,0.865l6.357-9.73c-3.13,1.813-5.639,2.745-6.893,2.509
				c-3.083-0.585-2.324-4.458,0.939-9.985c0.716-1.208,0.055-2.573-4.6-1.193l-7.099,14.16L6.207,270.902z M139.578,263.869
				c-1.582-0.2-4.262-0.426-6.484-0.314c-3.025,0.154-5.753,2.069-5.308,3.811c0.264,1.049,1.421,1.88,3.962,1.824
				c1.147-0.025,3.093-0.689,4.341-1.639C137.386,266.566,138.525,265.226,139.578,263.869 M189.24,255.105
				c-1.007-0.755-2.104-0.092-3.939,1.934c-1.174,1.292-3.461,4.642-2.375,5.364c0.853,0.57,2.918-0.132,4.551-1.897
				C188.819,259.061,190.535,256.069,189.24,255.105 M170.146,250.464c-0.891-0.891-2.905-0.069-5.02,1.629
				c-1.361,1.092-4.021,4.267-3.049,5.139c0.766,0.687,2.769,0.191,4.764-1.152C168.345,255.074,171.29,251.603,170.146,250.464
				 M149.15,246.921c-1.052-0.692-2.875,0.42-5.029,2.52c-1.254,1.22-3.634,4.669-2.551,5.397c0.855,0.574,2.867-0.055,5.265-2.389
				C148.136,251.19,150.684,247.933,149.15,246.921 M129.037,245.239c-1.236-0.65-3.28,0.963-5.104,3.218
				c-1.221,1.508-3.589,5.553-2.311,6.236c1.003,0.54,3.212-0.645,5.605-3.474C128.519,249.689,130.839,246.188,129.037,245.239
				 M72.788,245.762c-1.214-0.691-3.882,1.539-5.782,3.731c-1.27,1.466-3.601,4.961-2.349,5.688
				c0.987,0.572,3.567-1.148,5.806-3.513C71.844,250.212,74.561,246.771,72.788,245.762 M50.651,249.246
				c-1.819-0.99-4.219,2.05-5.376,3.768c-1.084,1.605-2.976,5.43-1.646,6.004c1.049,0.454,3.663-1.294,5.532-3.962
				C50.285,253.451,52.372,250.18,50.651,249.246"/>
		</g>
	</g>
</g>
</svg>
