<?xml version="1.0" encoding="utf-8"?>
<!-- Generator: Adobe Illustrator 19.1.0, SVG Export Plug-In . SVG Version: 6.00 Build 0)  -->
<svg version="1.1" id="Layer_1" xmlns="http://www.w3.org/2000/svg" xmlns:xlink="http://www.w3.org/1999/xlink" x="0px" y="0px"
	 viewBox="0 0 400 400" enable-background="new 0 0 400 400" xml:space="preserve">
<g>
	<path d="M199.372,19.011c-100.153,0-181.636,81.58-181.636,181.703c0,96.603,75.876,175.84,171.183,181.273h20.907
		c95.325-5.434,171.194-84.67,171.194-181.273C381.02,100.592,299.545,19.011,199.372,19.011L199.372,19.011z"/>
	<path fill="#FFDD00" d="M199.379,96.381L199.379,96.381L199.379,96.381z"/>
	<path fill="#008D5C" d="M337.206,309.401c2.869-3.628,5.6-7.375,8.178-11.224c0.101-0.142,0.193-0.289,0.285-0.431
		c0.744-1.119,1.474-2.245,2.195-3.38c0.138-0.217,0.273-0.433,0.411-0.65c0.671-1.084,1.336-2.164,1.995-3.253
		c0.138-0.238,0.278-0.476,0.42-0.716c0.643-1.094,1.287-2.196,1.9-3.31c0.128-0.217,0.253-0.438,0.379-0.664
		c0.643-1.161,1.276-2.33,1.895-3.504c0.09-0.167,0.18-0.336,0.265-0.499c0.676-1.295,1.344-2.602,1.988-3.916
		c0.021-0.04,0.042-0.087,0.065-0.133c4.833-9.849,8.763-20.216,11.694-30.995c0.005-0.01,0.005-0.019,0.005-0.024
		c0.418-1.54,0.811-3.084,1.192-4.641c-115.092-61.501-224.787,65.806-339.829,6.002c0,0,0,0.01,0,0.013
		c0.577,2.042,1.187,4.062,1.833,6.075c0.06,0.195,0.125,0.385,0.187,0.583c1.292,3.979,2.719,7.9,4.281,11.747
		c0.077,0.193,0.157,0.383,0.237,0.576c1.577,3.85,3.285,7.629,5.122,11.336c0.085,0.172,0.17,0.343,0.255,0.513
		c1.859,3.723,3.849,7.369,5.957,10.939c0.084,0.136,0.165,0.276,0.248,0.413c2.146,3.598,4.408,7.114,6.796,10.535
		c0.062,0.09,0.125,0.183,0.19,0.273c2.428,3.472,4.981,6.861,7.649,10.143c0.024,0.035,0.053,0.067,0.08,0.104
		c6.783,8.336,14.312,16.04,22.485,23.008C159.527,358.527,257.49,282.41,337.206,309.401L337.206,309.401z"/>
	<path fill="#008D5C" d="M355.128,281.77c-0.085,0.164-0.175,0.332-0.265,0.499C354.953,282.103,355.043,281.934,355.128,281.77
		L355.128,281.77z"/>
	<path fill="#008D5C" d="M357.181,277.721c-0.022,0.046-0.044,0.093-0.065,0.133C357.136,277.814,357.158,277.767,357.181,277.721
		L357.181,277.721z"/>
	<path fill="#008D5C" d="M348.275,293.717c-0.138,0.217-0.272,0.433-0.411,0.65C348.002,294.15,348.137,293.934,348.275,293.717
		L348.275,293.717z"/>
	<path fill="#008D5C" d="M345.669,297.747c-0.093,0.142-0.184,0.289-0.285,0.431C345.484,298.035,345.576,297.889,345.669,297.747
		L345.669,297.747z"/>
	<path fill="#FFDD00" d="M191.626,332.687c-5.206,1.474-10.395,2.901-15.551,4.241c7.577,1.293,15.362,1.976,23.297,1.976
		c14.918,0,29.281-2.38,42.748-6.766c-0.756-0.718-1.465-1.514-2.085-2.447c-0.598-0.874-0.995-1.796-1.237-2.746
		c-12.455,3.9-25.701,5.999-39.426,5.999C196.768,332.944,194.19,332.845,191.626,332.687L191.626,332.687z"/>
	<path fill="#FFDD00" d="M150.351,342.717c15.369,5.316,31.864,8.214,49.02,8.214c18.18,0,35.619-3.244,51.758-9.181
		c0.038-1.548,0.421-3.146,1.165-4.793c-1.051-0.206-2.128-0.473-3.197-0.814c-15.51,5.707-32.265,8.824-49.726,8.824
		c-12.69,0-24.996-1.675-36.73-4.768C158.521,341.13,154.423,341.974,150.351,342.717L150.351,342.717z"/>
	<path fill="#FFDD00" d="M325.116,314.101c-0.85,1.31-5.253,7.92-8.334,10.21c-2.671,1.962-6.324,4.448-10.364,6.205
		c-1.506,1.247-3.054,2.461-4.603,3.657c-2.596,4.848-5.364,9.354-9.464,12.357c-5.665,4.196-14.11,9.612-22.06,8.185
		c0,0-1.727-0.31-1.75-0.317c-0.138-0.017-0.288-0.05-0.426-0.068c-21.003,9.427-44.269,14.678-68.744,14.678
		c-17.594,0-34.563-2.714-50.512-7.744c-5.216,1.92-11.78,1.168-15.534,0.743c-4.721-0.508-9.471-3.447-14.543-8.995
		c-2.108-2.332-3.369-4.548-4.055-5.999l-0.535-1.11c-5.302-0.159-10.516-0.67-15.639-1.561
		c28.555,20.092,63.322,31.939,100.819,31.939c53.298,0,101.097-23.869,133.332-61.466c-2.288-0.655-4.591-1.249-6.909-1.753
		L325.116,314.101L325.116,314.101z"/>
	<path fill="#FFDD00" d="M240.975,318.897c-8.513,2.135-17.053,4.518-25.577,6.959c8.528-1.094,16.788-3.042,24.7-5.75
		C240.367,319.691,240.67,319.292,240.975,318.897L240.975,318.897z"/>
	<path fill="#FFDD00" d="M199.372,25.023c-96.839,0-175.623,78.817-175.623,175.691c0,14.292,1.729,28.179,4.966,41.485
		c0.161-4.462,1.148-9,2.11-13.374l0.839-4.01c-4.408-5.522-5.829-13.684-6.495-19.441l-0.138-2.518
		c0-5.617,1.99-11.367,3.742-16.441l1.402-4.211l0.846-2.537c-0.525-2.237-0.825-4.692-0.825-7.395c0-2.604,0.22-5.461,0.67-8.725
		c0.831-6.184,4.443-11.607,7.93-16.861l1.869-2.849l-0.026-0.107c-0.25-1.159-0.533-2.476-0.533-4.005
		c0-5.79,2.209-11.889,3.864-15.967c2.277-5.635,6.995-9.882,11.556-13.987l3.036-2.778l2.361-2.163l0.1,0.052
		c16.938-24.398,40.144-44.122,67.278-56.816v6.712c-21.426,10.481-40.2,25.567-55.07,43.93c0.746-0.584,1.479-1.134,2.163-1.632
		c3.311-2.414,7.226-3.7,11.271-4.616c12.01-12.508,26.066-23.039,41.636-31.024v6.852c-11.234,6.057-21.597,13.517-30.891,22.124
		l2.341-0.44l1.572,2.338c0.41,0.607,0.643,1.251,0.779,1.868c7.967-7.291,16.753-13.701,26.199-19.074v7.019
		c-9.91,5.964-19.009,13.14-27.099,21.316c-0.83,3.954-2.037,8.552-3.233,12.382c8.678-10.362,18.908-19.376,30.332-26.685v7.273
		c-10.938,7.491-20.64,16.656-28.743,27.119l0.616-0.196l1.217,5.883c0,4.728-7.457,22.066-10.856,26.622l0.725,3.54
		c0,5.63-5.378,23.984-7.991,27.28l0.006,0.008l-0.405,0.431l0.145,0.596c1.203,5.002,1.331,13.091,1.331,16.335
		c0,3.824-0.12,10.563-0.954,12.751l-1.193,2.567l0.43,1.162c2.628,7.027,5.196,17.598,5.196,20.358l-0.01,0.38l-0.025,0.221
		c-0.123,1.17-0.335,2.346-0.626,3.544c1.466,1.293,2.989,4.768,4.315,17.063c36.21,1.58,72.131-9.055,107.283-19.481l0.017-0.002
		c37.755-11.194,76.384-22.628,115.52-19.252c0.328-0.988,0.657-1.939,0.998-2.831l0.434-1.162l-1.199-2.567
		c-0.833-2.188-0.959-8.926-0.959-12.751c0-3.244,0.131-11.334,1.337-16.335l0.147-0.596l-0.411-0.431l0.008-0.008
		c-2.608-3.296-7.986-21.651-7.986-27.28l0.719-3.54c-3.396-4.556-10.855-21.894-10.855-26.622l1.22-5.883l1.718,0.542
		c-8.235-10.708-18.137-20.075-29.329-27.679v-7.251c10.996,6.991,20.886,15.571,29.362,25.399c-1.146-3.85-2.252-8.236-2.988-11.92
		c-7.917-7.833-16.761-14.728-26.374-20.484v-7c9.315,5.261,17.976,11.534,25.857,18.656c0.143-0.434,0.316-0.869,0.601-1.284
		l1.58-2.338l2.764,0.517l0.603,0.109c-9.426-8.761-19.97-16.335-31.404-22.468v-6.844c15.796,8.053,30.05,18.721,42.187,31.424
		c3.668,0.902,7.184,2.161,10.205,4.366c1.399,1.023,2.986,2.242,4.581,3.619c-15.184-19.359-34.65-35.204-56.973-46.069v-6.707
		c27.859,12.967,51.579,33.347,68.675,58.573l0.548,0.501l3.034,2.778c4.562,4.105,9.281,8.352,11.557,13.987
		c1.659,4.078,3.86,10.177,3.86,15.967c0,1.159-0.155,2.196-0.352,3.137c0.352,0.961,0.711,1.92,1.055,2.888l0.608,0.936
		c3.49,5.254,7.098,10.678,7.934,16.861c0.449,3.264,0.666,6.121,0.666,8.725c0,2.703-0.296,5.158-0.821,7.395l0.846,2.537
		l1.396,4.211c1.761,5.074,3.742,10.823,3.742,16.441l-0.132,2.518c-0.665,5.757-2.087,13.919-6.5,19.441l0.843,4.01
		c0.734,3.355,1.49,6.821,1.881,10.271c0.53,0.274,1.063,0.531,1.596,0.816c2.889-12.615,4.428-25.728,4.428-39.199
		C375.005,103.841,296.216,25.023,199.372,25.023L199.372,25.023z"/>
	<path fill="#FFDD00" d="M154.736,356.706c14.188,4.065,29.156,6.247,44.635,6.247c20.858,0,40.807-3.956,59.138-11.156
		c-2.245-0.977-4.268-2.334-5.633-4.24c-16.698,6.104-34.723,9.433-53.506,9.433c-14.924,0-29.362-2.103-43.045-6.028
		c0.042,0.291,0.075,0.584,0.075,0.896c0,1.97-0.934,3.693-1.635,4.811C154.757,356.685,154.747,356.693,154.736,356.706
		L154.736,356.706z"/>
	<path d="M198.761,242.594l0.017-0.002c33.123-9.828,66.916-19.841,101.133-19.873c2.823-9.532,4.36-19.621,4.36-30.075
		c0-58.182-46.976-105.357-104.922-105.357c-57.944,0-104.919,47.175-104.919,105.357c0,26.122,9.486,50.005,25.158,68.415
		C146.271,258.145,172.729,250.316,198.761,242.594L198.761,242.594z"/>
	<path fill="none" stroke="#000000" stroke-width="0.348" stroke-miterlimit="2.6131" d="M198.761,242.594l0.017-0.002
		c33.123-9.828,66.916-19.841,101.133-19.873c2.823-9.532,4.36-19.621,4.36-30.075c0-58.182-46.976-105.357-104.922-105.357
		c-57.944,0-104.919,47.175-104.919,105.357c0,26.122,9.486,50.005,25.158,68.415C146.271,258.145,172.729,250.316,198.761,242.594
		L198.761,242.594L198.761,242.594z"/>
	<path fill="#FFFFFF" d="M289.029,138.278c-1.359,3.25-4.808,11.453-5.069,12.095c0.208,0.793,11.755,45.316,11.947,46.067
		c0.473,0.395,5.511,4.62,7.856,6.547c0.171-1.877,0.356-4.77,0.356-8.693C304.12,181.321,301.818,158.903,289.029,138.278
		L289.029,138.278z"/>
	<path fill="#FFFFFF" d="M125.185,118.329c-26.457,26.077-30.092,58.018-30.553,67.675c3.069-2.916,11.282-10.766,11.565-11.031
		c0.19-0.395,19.741-41.711,20.019-42.304C126.171,132.1,125.463,122.143,125.185,118.329L125.185,118.329z"/>
	<path fill="#FFFFFF" d="M130.842,259.554c-4.821-4.562-9.752-9.236-10.435-9.877c-0.909,0.584-2.796,1.69-6.336,3.546
		c1.973,2.67,4.094,5.256,6.326,7.751C123.884,260.58,127.363,260.109,130.842,259.554L130.842,259.554z"/>
	<path fill="#FFFFFF" d="M198.778,242.592c23.187-6.878,46.696-13.837,70.452-17.412c0-1.617,0-3.43,0-4.073
		c-1.391-0.621-31.17-13.976-32.28-14.45c-1.058,0.611-38.247,21.863-39.37,22.495c-0.045,0.693-0.515,7.768-0.928,14.07
		c0.701-0.211,1.404-0.42,2.11-0.628L198.778,242.592L198.778,242.592z"/>
	<path fill="#FFFFFF" d="M228.573,102.113c0.463-0.175,10.004-4.141,13.616-5.642c-7.785-3.552-34.31-13.672-65.596-6.533
		c4.005,2.398,15.471,9.281,15.895,9.537C193.066,99.511,227.996,102.074,228.573,102.113L228.573,102.113z"/>
	<path fill="#FFFFFF" d="M223.822,155.213l-38.86-4.089l-13.792-21.61C184.961,146.743,223.822,155.213,223.822,155.213
		L223.822,155.213L223.822,155.213z M229.436,158.793c0.772-0.886,15.894-17.94,16.941-19.119
		c-0.759-1.448-17.762-33.912-18.381-35.083c-1.314-0.109-34.45-2.518-35.456-2.594c-0.745,0.675-25.568,22.933-26.98,24.212
		c0.961,1.627,15.915,27.045,16.517,28.077C183.309,154.396,228.207,158.683,229.436,158.793L229.436,158.793z"/>
	<path fill="#FFFFFF" d="M130.437,200.615c-3.75-1.238-16.29-19.41-16.911-24.416c-0.631-5.026,10.643-25.361,10.643-25.361
		c-3.437,7.804-6.261,20.335-6.261,24.733c0,4.387,8.779,15.026,13.159,16.612c4.39,1.56,25.696,2.493,25.696,2.493
		S134.206,201.886,130.437,200.615L130.437,200.615L130.437,200.615z M163.328,127.362c-1.623,0.308-33.798,6.433-34.974,6.651
		c-0.53,1.108-19.103,40.364-19.689,41.601c0.746,1.129,19.544,29.066,20.51,30.505c1.637-0.496,31.099-9.129,32.145-9.439
		c0.455-0.992,18.085-39.985,18.592-41.133C179.297,154.503,164.161,128.771,163.328,127.362L163.328,127.362z"/>
	<polygon fill="#FFFFFF" points="161.465,123.249 133.571,124.509 128.244,118.244 128.877,130.466 161.465,123.249 	"/>
	<polygon fill="#FFFFFF" points="249.198,137.352 281.49,148.626 253.887,132.336 232.277,106.644 249.198,137.352 	"/>
	<path fill="#FFFFFF" d="M289.95,195.313c-0.951,3.443-14.75,18.487-20.077,19.096c-5.331,0.637-22.885-9.716-22.885-9.716
		s20.052,5.338,22.885,4.385c2.828-0.925,14.125-11.581,15.69-15.334c1.551-3.772-0.325-19.123-0.325-19.123
		S290.874,191.849,289.95,195.313L289.95,195.313L289.95,195.313z M248.292,141.286c-0.972,1.101-16.29,18.39-17.012,19.209
		c0.163,1.109,6.546,42.617,6.754,43.901c1.169,0.528,30.731,13.766,32.182,14.411c1.134-1.075,22.169-21.112,23.178-22.059
		c-0.348-1.35-11.449-44.162-11.791-45.474C280.319,150.883,249.731,141.716,248.292,141.286L248.292,141.286z"/>
	<path fill="#FFFFFF" d="M232.903,204.396c0,0-20.367,10.012-26.327,11.915c-5.944,1.864-10.338,1.864-14.413,0
		c-4.065-1.903-24.741-17.875-24.741-17.875l29.755,26.963L232.903,204.396L232.903,204.396z"/>
	<path fill="#FFFFFF" d="M137.625,258.397l-12.052-12.446l17.394,11.415c17.172-3.473,34.227-8.385,51.105-13.382
		c0.446-6.654,0.968-14.395,1.004-15.051c-0.861-0.773-32.17-28.913-33.17-29.8c-1.262,0.356-30.809,9.02-32.18,9.419
		c-0.283,1.404-7.556,37.824-7.816,39.098c0.507,0.492,6.5,6.165,12.021,11.392C135.16,258.833,136.391,258.62,137.625,258.397
		L137.625,258.397z"/>
	<path fill="none" stroke="#000000" stroke-width="0.072" stroke-miterlimit="2.6131" d="M137.625,258.397l-12.052-12.446
		l17.394,11.415c17.172-3.473,34.227-8.385,51.105-13.382c0.446-6.654,0.968-14.395,1.004-15.051
		c-0.861-0.773-32.17-28.913-33.17-29.8c-1.262,0.356-30.809,9.02-32.18,9.419c-0.283,1.404-7.556,37.824-7.816,39.098
		c0.507,0.492,6.5,6.165,12.021,11.392C135.16,258.833,136.391,258.62,137.625,258.397L137.625,258.397L137.625,258.397z"/>
	<polygon fill="#FFFFFF" points="125.463,214.605 116.012,245.004 111.878,249.134 111.878,249.53 117.976,247.132 125.463,214.605 
			"/>
	<path fill="#FFDD00" d="M295.049,330.702c-3.882-0.708-8.237-3.576-12.084-6.122c0,0-0.065-0.042-0.09-0.068l-1.33-0.816
		c-0.328,0-0.641,0-0.938,0c-0.386,0-0.739,0.019-1.084,0.019c-0.16,0-0.33,0-0.508,0.027c-0.185,0-0.386,0-0.564,0
		c-0.26,0-0.518,0.02-0.773,0.02c-0.053,0.025-0.101,0.025-0.15,0.025c-0.338,0-0.618,0.023-0.889,0.033
		c-0.287,0.018-0.533,0.035-0.751,0.055c-0.022,0-0.03,0-0.055,0c-0.188,0.01-0.345,0.035-0.498,0.042c-0.045,0-0.087,0-0.108,0.02
		c-0.12,0.018-0.22,0.026-0.298,0.051c-0.035,0.01-0.084,0.017-0.117,0.017c-0.096,0.023-0.184,0.033-0.217,0.046
		c-0.7,0.256-1.406,0.531-2.112,0.836c-0.2,0.071-0.39,0.182-0.578,0.27c-0.551,0.255-1.113,0.508-1.676,0.794
		c-0.148,0.065-0.288,0.157-0.449,0.217c-4.531,2.418-8.818,5.777-11.471,9.167l-0.419,0.542h-0.024
		c-1.677,2.301-2.628,4.599-2.428,6.656c0.506,5.446,8.553,6.761,13.884,7.644l1.722,0.312c6.283,1.125,13.71-3.673,18.749-7.402
		c3.869-2.832,6.48-7.562,8.958-12.294c-0.643,0.046-1.241,0.066-1.859,0.046C296.251,330.837,295.637,330.818,295.049,330.702
		L295.049,330.702z"/>
	<path fill="#FFDD00" d="M121.966,350.136c4.223,4.613,8.115,7.204,11.82,7.599c4.626,0.537,14.255,1.614,17.334-3.336
		c0.693-1.109,0.984-1.903,0.984-2.542c0-0.996-0.701-1.62-1.66-2.472c-0.433-0.381-2.461-2.703-4.943-5.828
		c-9.006,1.454-17.855,2.338-26.498,2.393C119.598,347.064,120.535,348.55,121.966,350.136L121.966,350.136z"/>
	<polygon fill="#FFDD00" points="287.706,309.911 287.698,309.911 287.706,309.911 	"/>
	<path fill="#FFDD00" d="M321.519,311.756c0.021,0.003,0.028,0.008,0.045,0.008C321.547,311.764,321.539,311.758,321.519,311.756
		L321.519,311.756z"/>
	<path fill="#FFDD00" d="M248.021,317.796c-3.041,2.761-5.198,4.939-5.198,7.184c0,0.751,0.235,1.527,0.763,2.31
		c2.963,4.428,8.779,5.549,13.176,5.964c3.006-3.672,7.454-7.041,12.16-9.469c0.042,0,0.067-0.025,0.087-0.045
		c0.689-0.331,1.365-0.666,2.048-0.963c0.142-0.076,0.297-0.144,0.43-0.188c0.756-0.331,1.522-0.639,2.273-0.909
		c0.691-0.238,2.238-0.361,3.829-0.438c-0.332-0.201-0.727-0.443-0.727-0.443l0.706-1.071l1.274-1.932
		c1.544-2.333,3.067-4.568,4.66-6.691c-11.451,1.074-23.061,3.204-34.738,5.915C248.33,317.471,248.021,317.796,248.021,317.796
		L248.021,317.796z"/>
	<path fill="#FFDD00" d="M286.946,310.813c-0.269,0.319-0.55,0.633-0.811,0.968c-0.057,0.066-0.122,0.158-0.187,0.241
		c-1.838,2.371-3.552,4.957-5.317,7.651c0,0-0.145,0.209-0.238,0.334c0.659,0.395,1.322,0.772,1.322,0.772l0.188,0.175
		c0.138,0.087,0.245,0.152,0.355,0.245h0.087l1.876,1.214c0.072,0.046,0.112,0.067,0.112,0.067c2.72,1.791,5.682,3.732,8.41,4.907
		c0.961,0.396,1.882,0.683,2.756,0.842c1.545,0.282,3.252,0.199,5.214-0.248l0.068-0.018c4.842-1.139,9.772-4.403,13.454-7.106
		c1.754-1.304,4.805-5.371,7.003-8.678C310.055,310.232,298.593,309.942,286.946,310.813L286.946,310.813z"/>
	<path fill="#008D5C" d="M32.263,254.734c-0.062-0.198-0.127-0.388-0.187-0.583C32.135,254.345,32.2,254.536,32.263,254.734
		L32.263,254.734z"/>
	<path fill="#FFDD00" d="M55.79,198.294l-0.701,0.143c0.11,0.133,0.21,0.255,0.31,0.375L55.79,198.294L55.79,198.294z"/>
	<path fill="#FFDD00" d="M59.91,162.874l-0.395-3.815l-1.042,1.151C58.994,161.136,59.479,162.041,59.91,162.874L59.91,162.874z"/>
	<path fill="#FFDD00" d="M71.965,131.164c1.446-0.821,3.384-1.9,3.384-1.9c0.18-0.112,0.378-0.168,0.555-0.267
		c2.799-1.327,5.97-1.988,9.197-2.303c2.528-1.632,4.63-3.565,6.4-5.922c1.589-2.12,6.483-19.642,6.483-24.799
		c0-0.6-0.073-1.043-0.223-1.258l-4.288,0.79c-5.602,0.993-11.401,2.013-15.551,5.042c-4.017,2.929-9.482,7.393-11.706,12.515
		c0.073,0.139,0.132,0.283,0.188,0.441C68.748,118.775,70.908,126.319,71.965,131.164L71.965,131.164z"/>
	<path fill="#FFDD00" d="M46.323,189.34c0.1,0.09,0.195,0.166,0.288,0.247c0.253,0.244,0.508,0.484,0.768,0.727
		c0.652,0.643,1.267,1.226,1.743,1.679c0.235,0.147,2.092,1.181,3.354,1.902c0.243-0.459,0.485-0.92,0.485-0.92
		c0.215-0.408,0.425-0.826,0.646-1.227c0.361-0.683,0.706-1.347,1.047-2.01c0.095-0.184,0.195-0.398,0.292-0.573
		c0.348-0.686,0.678-1.361,0.994-2.036c0.07-0.127,0.132-0.262,0.201-0.419c0.315-0.659,0.618-1.335,0.901-1.986
		c0.08-0.175,0.156-0.374,0.231-0.575c0.255-0.601,0.495-1.186,0.71-1.768c0.115-0.309,0.213-0.627,0.326-0.945
		c0.165-0.483,0.325-0.958,0.468-1.434c0.138-0.498,0.253-0.958,0.37-1.424c0.084-0.353,0.183-0.686,0.249-1.037
		c0.145-0.691,0.249-1.387,0.343-2.077c0.017-0.16,0.049-0.301,0.067-0.467c0.1-0.884,0.15-1.804,0.15-2.722
		c0-1.301-0.105-2.661-0.333-4.042l-0.363-1.004l-0.4-0.893l0.046-0.026c-0.776-1.677-2.088-4.112-3.623-6.715l-0.083-0.092
		l-0.074-0.133c-5.668-9.705-9.333-13.551-10.449-13.818l-2.278,3.47c-3.233,4.866-6.576,9.883-7.279,15.104
		c-0.325,2.361-0.631,5.234-0.631,8.15c0,3.274,0.433,6.559,1.611,9.329C38.819,182.799,42.659,185.916,46.323,189.34L46.323,189.34
		z"/>
	<path fill="#FFDD00" d="M45.046,142.989c0.461,0.091,0.977,0.395,1.533,0.793c0.143,0.113,0.285,0.201,0.43,0.308
		c0.11,0.092,0.22,0.193,0.346,0.293c3.038,2.596,6.834,8.41,9.842,13.505c0.298-0.331,0.616-0.671,0.616-0.671
		c0.441-0.501,0.88-0.966,1.307-1.461l0.385-0.433c0.521-0.558,1.012-1.127,1.517-1.69c0.215-0.256,0.43-0.496,0.646-0.738
		c0.32-0.389,0.636-0.776,0.956-1.152c0.4-0.508,0.797-0.993,1.182-1.494c0.18-0.25,0.365-0.495,0.54-0.726
		c0.473-0.634,0.919-1.272,1.356-1.936c0.106-0.175,0.211-0.332,0.326-0.482c0.453-0.736,0.869-1.488,1.271-2.239
		c0.073-0.132,0.143-0.265,0.22-0.415c0.395-0.751,0.731-1.551,1.047-2.345c0.06-0.168,0.132-0.332,0.192-0.498
		c0.288-0.787,0.531-1.627,0.741-2.456c0.043-0.208,0.103-0.375,0.15-0.558c0.229-1.044,0.404-2.117,0.501-3.229l-0.248-1.876
		l-0.035-0.161c-0.386-2.097-1.181-5.281-2.171-8.651c-1.962-6.532-4.643-13.69-6.18-14.567c-0.335,0.319-2.998,2.752-2.998,2.752
		c-4.254,3.821-8.646,7.745-10.572,12.506c-1.629,4.015-3.546,9.441-3.546,14.36c0,1.127,0.235,2.178,0.468,3.262
		C44.932,142.989,44.986,142.989,45.046,142.989L45.046,142.989z"/>
	<path fill="#FFDD00" d="M86.002,129.117l-0.015,0.014l-0.301,0.021c-1.912,0.18-3.569,0.441-5.049,0.815
		c-0.063,0-0.118,0.024-0.18,0.048c-0.629,0.152-1.22,0.351-1.785,0.544c-0.11,0.039-0.23,0.075-0.325,0.107
		c-0.501,0.183-0.963,0.409-1.411,0.628c-0.141,0.055-0.291,0.115-0.429,0.175c0,0-0.831,0.466-1.76,1.007l-2.278,1.271
		c0.145,0.852,0.208,1.502,0.177,1.858c-0.097,1.161-0.283,2.287-0.526,3.371c-0.097,0.468-0.242,0.919-0.368,1.36
		c-0.159,0.596-0.31,1.193-0.5,1.736c-0.195,0.561-0.428,1.092-0.651,1.642c-0.17,0.402-0.335,0.822-0.526,1.197
		c-0.285,0.623-0.596,1.197-0.916,1.767c-0.16,0.301-0.325,0.601-0.495,0.866c-0.373,0.641-0.776,1.278-1.191,1.898
		c-0.111,0.155-0.236,0.33-0.361,0.523c-1.607,2.285-3.423,4.464-5.364,6.633c0.06,0.451,0.133,0.959,0.133,0.959
		s0.305,3.039,0.475,4.666c0.569-0.081,1.893-0.244,2.273-0.291c0.105-0.084,0.927-0.661,0.927-0.661
		c2.959-2.012,6.573-3.143,10.242-3.879c2.206-0.451,4.439-0.767,6.554-1.071c0,0,0.566-0.091,1.271-0.201
		c0.538-0.445,3.285-2.619,3.285-2.619c1.998-1.981,10.187-20.328,10.187-24.284c0-0.246-0.035-0.421-0.094-0.553l-4.339,0.148
		C90.442,128.863,88.197,128.932,86.002,129.117L86.002,129.117z"/>
	<path fill="#FFDD00" d="M57.935,233.039c0,0,0.599,1.086,1.029,1.862c0.055-0.047,0.115-0.08,0.175-0.126
		c0.19-0.099,0.365-0.234,0.51-0.316c0.138-0.066,0.238-0.134,0.238-0.134c0.249-0.16,0.499-0.31,0.742-0.467
		c0.673-0.409,1.349-0.819,2.005-1.235c0.375-0.24,0.74-0.465,1.116-0.711c0.571-0.36,1.134-0.716,1.691-1.091
		c0.393-0.253,0.774-0.518,1.154-0.785c0.526-0.353,1.034-0.734,1.549-1.091c0.371-0.281,0.746-0.544,1.111-0.844
		c0.496-0.389,0.971-0.764,1.448-1.184c0.355-0.285,0.698-0.574,1.026-0.887c0.483-0.425,0.941-0.878,1.391-1.322
		c0.296-0.313,0.601-0.594,0.886-0.905c0.476-0.519,0.919-1.064,1.357-1.627c0.226-0.289,0.481-0.576,0.691-0.876
		c0.623-0.825,1.204-1.731,1.729-2.669l0.103-0.18c0.556-1.014,1.056-2.077,1.495-3.217c0.375-0.983,0.673-5.744,0.673-11.206
		c0-5.592-0.348-11.725-1.216-15.324c-5.447,4.913-12.075,6.849-19.079,8.615c-0.045,0.046-0.621,0.686-0.621,0.686
		s-1.54,2.067-2.193,2.938c0.016,0.025,0.066,0.115,0.066,0.115c0.483,1.091,0.866,2.193,1.183,3.312
		c0.113,0.353,0.183,0.696,0.273,1.058c0.18,0.756,0.358,1.486,0.476,2.226c0.076,0.42,0.13,0.828,0.175,1.226
		c0.09,0.683,0.15,1.404,0.185,2.1c0.025,0.398,0.05,0.793,0.059,1.182c0.009,0.21,0.026,0.411,0.026,0.61
		c0,0.328-0.045,0.659-0.06,0.992c-0.01,0.817-0.05,1.617-0.127,2.412c-0.04,0.495-0.093,0.991-0.156,1.502
		c-0.1,0.816-0.21,1.609-0.343,2.452c-0.083,0.463-0.151,0.927-0.244,1.393c-0.173,0.925-0.358,1.837-0.558,2.763
		c-0.083,0.375-0.15,0.708-0.235,1.083c-0.276,1.26-0.576,2.528-0.881,3.799l-0.343,1.461c0.078,0.109,0.759,1.293,1.459,2.499
		L57.935,233.039L57.935,233.039z"/>
	<path fill="#FFDD00" d="M84.665,158.508l-0.022,0.02l-1.958,0.275c-4.228,0.607-8.561,1.227-12.258,2.734
		c-1.234,0.485-2.393,1.081-3.448,1.812c0,0-4.02,3.028-5.081,3.82c0.107,0.267,0.175,0.501,0.2,0.643
		c0.17,1.127,0.265,2.186,0.31,3.261c0.022,0.251,0.028,0.544,0.028,0.794c0.013,0.145,0.022,0.294,0.022,0.433
		c0,0.596-0.05,1.169-0.095,1.736c-0.015,0.408-0.023,0.827-0.06,1.227c-0.111,0.983-0.26,1.918-0.461,2.869
		c-0.084,0.375-0.185,0.786-0.28,1.161c-0.165,0.659-0.346,1.316-0.535,1.96c-0.1,0.327-0.216,0.637-0.321,0.968
		c-0.26,0.776-0.543,1.527-0.845,2.278c-0.073,0.183-0.139,0.357-0.211,0.533c-0.835,2.02-1.779,3.931-2.74,5.809
		c-0.323,0.623-0.654,1.252-0.979,1.883c0.105,0.51,0.36,1.644,0.613,2.828c0.453-0.133,0.933-0.24,0.933-0.24
		c0.536-0.136,1.067-0.275,1.598-0.4c0.746-0.201,1.489-0.399,2.218-0.586c0.27-0.058,0.535-0.139,0.806-0.208
		c0.768-0.224,1.532-0.423,2.271-0.643c0.028-0.026,0.045-0.026,0.075-0.04c5.381-1.642,10.18-3.83,14.125-8.02l0.681-0.733
		c0.21-0.247,0.441-0.449,0.654-0.694c1.645-2.071,7.061-19.272,7.061-24.609c0-0.541-0.093-0.928-0.217-1.204
		C86.528,158.217,85.581,158.35,84.665,158.508L84.665,158.508z"/>
	<path fill="#FFDD00" d="M84.119,248.177l-0.185,0.181l-7.749,7.784l-3.91,3.889c4.956,0.857,9.907,1.445,14.854,1.792
		C86.257,254.173,85.061,248.574,84.119,248.177L84.119,248.177z"/>
	<path fill="#FFDD00" d="M61.242,240.248c0.673,1.187,1.239,2.387,1.717,3.605c0.145,0.35,0.24,0.738,0.373,1.101
		c0.313,0.885,0.618,1.762,0.843,2.653c0.101,0.375,0.15,0.795,0.238,1.193c0.205,0.93,0.375,1.878,0.494,2.83
		c0.044,0.4,0.069,0.82,0.114,1.242c0.09,1.036,0.151,2.09,0.16,3.138c0,0.215,0.033,0.428,0.033,0.628
		c0,0.324-0.008,0.631-0.021,0.961c-0.012,0.296-0.012,0.62-0.021,0.952c0.019,0.019,0.049,0.052,0.075,0.069
		c1.306,0.296,2.608,0.584,3.91,0.839c1.735-1.759,3.519-3.479,5.306-5.148l7.777-7.762c0.669-1.926,1.094-3.734,1.28-5.525
		c0.015-0.05,0.015-0.112,0.015-0.158c0-1.857-2.273-11.757-4.929-18.856c-4.333,6.39-10.676,10.326-17.341,14.401
		c-0.022,0.032-0.048,0.032-0.067,0.058l-2.042,1.241c0,0-0.103,0.06-0.157,0.086C60.175,238.921,60.991,239.808,61.242,240.248
		L61.242,240.248z"/>
	<path fill="#FFDD00" d="M53.707,196.855c0.271,0.29,0.498,0.555,0.741,0.84l-0.335-1.546l-0.017,0.03L53.707,196.855
		L53.707,196.855z"/>
	<path fill="#FFDD00" d="M62.68,258.038c0.128-4.905-0.432-8.985-1.819-12.684c0-0.013-0.004-0.042-0.004-0.057
		c-0.236-0.607-0.494-1.199-0.759-1.802c-0.028-0.03-0.05-0.083-0.073-0.13c-0.296-0.641-0.621-1.259-0.966-1.902l-2.393-2.466
		l-0.571-0.551l0.02-0.03c-2.568-2.323-6.365-5.353-10.022-7.982H46.07l-0.209-0.168c-7.91-5.645-9.766-5.248-9.862-5.202
		c-0.093,0.443-0.974,4.638-0.974,4.638c-1.012,4.599-2.048,9.33-2.048,13.709c0,1.292,0.12,2.544,0.328,3.77
		C43.102,252.08,52.896,255.635,62.68,258.038L62.68,258.038z"/>
	<path fill="#FFDD00" d="M54.604,232.449l-2.549-0.635c1.532,1.226,2.964,2.42,4.24,3.528L54.604,232.449L54.604,232.449z"/>
	<path fill="#FFDD00" d="M35.34,222.587c0.068-0.024,0.13-0.041,0.205-0.068c0.426-0.068,0.947,0,1.522,0.12
		c0.215,0.047,0.468,0.123,0.756,0.213c0.138,0.035,0.275,0.07,0.421,0.136c1.071,0.362,2.58,1.078,4.605,2.305
		c0.318,0.215,0.656,0.411,0.995,0.611c0.285,0.195,0.607,0.395,0.908,0.596c0.661,0.433,1.319,0.871,1.988,1.347
		c0.125,0.087,0.22,0.134,0.345,0.235c0.365,0.078,2.227,0.489,2.227,0.489s3.159,0.782,4.766,1.179l0.026-0.098
		c0.125-0.541,0.245-1.042,0.245-1.042c0.29-1.238,0.581-2.461,0.851-3.669c0.075-0.363,0.15-0.694,0.226-1.046
		c0.195-0.897,0.375-1.793,0.541-2.677c0.085-0.442,0.15-0.875,0.225-1.326c0.13-0.795,0.25-1.594,0.341-2.378
		c0.062-0.463,0.11-0.923,0.152-1.381c0.075-0.794,0.107-1.589,0.133-2.373c0.009-0.5,0.042-0.963,0.033-1.426
		c-0.008-0.356-0.033-0.709-0.048-1.044c-0.032-0.681-0.093-1.353-0.175-2.03c-0.04-0.355-0.083-0.738-0.143-1.094
		c-0.117-0.695-0.272-1.407-0.447-2.09c-0.078-0.331-0.151-0.663-0.236-0.97c-0.296-1.02-0.643-2.03-1.094-3.052l-0.292-0.49
		l-0.496-0.7c-1.192-1.587-3.531-4.113-6.235-6.788l-0.083-0.046l-0.12-0.109c-5.571-5.556-10.47-9.461-12.78-10.212l-0.451-0.143
		l-1.416,4.255c-1.737,5.016-3.51,10.197-3.51,15.039c0,0.69,0.035,1.356,0.11,2.022C30.073,210.43,31.438,218.076,35.34,222.587
		L35.34,222.587z"/>
	<path fill="#FFDD00" d="M342.127,198.294l0.706,0.143c-0.111,0.133-0.213,0.255-0.313,0.375L342.127,198.294L342.127,198.294z"/>
	<path fill="#FFDD00" d="M338.012,162.874l0.398-3.815l1.038,1.151C338.933,161.136,338.443,162.041,338.012,162.874
		L338.012,162.874z"/>
	<path fill="#FFDD00" d="M325.959,131.164c-1.451-0.821-3.389-1.9-3.389-1.9c-0.178-0.112-0.373-0.168-0.556-0.267
		c-2.796-1.327-5.968-1.988-9.194-2.303c-2.528-1.632-4.632-3.565-6.403-5.922c-1.584-2.12-6.483-19.642-6.483-24.799
		c0-0.6,0.076-1.043,0.226-1.258l4.29,0.79c5.601,0.993,11.397,2.013,15.552,5.042c4.015,2.929,9.479,7.393,11.708,12.515
		c-0.078,0.139-0.133,0.283-0.196,0.441C329.173,118.775,327.015,126.319,325.959,131.164L325.959,131.164z"/>
	<path fill="#FFDD00" d="M351.599,189.34c-0.1,0.09-0.193,0.166-0.288,0.247c-0.256,0.244-0.508,0.484-0.769,0.727
		c-0.656,0.643-1.264,1.226-1.738,1.679c-0.242,0.147-2.097,1.181-3.362,1.902c-0.239-0.459-0.48-0.92-0.48-0.92
		c-0.217-0.408-0.425-0.826-0.646-1.227c-0.362-0.683-0.703-1.347-1.046-2.01c-0.1-0.184-0.201-0.398-0.296-0.573
		c-0.348-0.686-0.678-1.361-0.999-2.036c-0.066-0.127-0.125-0.262-0.195-0.419c-0.314-0.659-0.621-1.335-0.9-1.986
		c-0.082-0.175-0.157-0.374-0.229-0.575c-0.262-0.601-0.494-1.186-0.709-1.768c-0.118-0.309-0.218-0.627-0.326-0.945
		c-0.171-0.483-0.325-0.958-0.47-1.434c-0.14-0.498-0.258-0.958-0.375-1.424c-0.084-0.353-0.183-0.686-0.248-1.037
		c-0.143-0.691-0.253-1.387-0.343-2.077c-0.018-0.16-0.051-0.301-0.066-0.467c-0.1-0.884-0.152-1.804-0.152-2.722
		c0-1.301,0.107-2.661,0.335-4.042l0.366-1.004l0.398-0.893l-0.048-0.026c0.778-1.677,2.098-4.112,3.622-6.715l0.085-0.092
		l0.076-0.133c5.664-9.705,9.329-13.551,10.448-13.818l2.276,3.47c3.236,4.866,6.578,9.883,7.281,15.104
		c0.325,2.361,0.629,5.234,0.629,8.15c0,3.274-0.428,6.559-1.61,9.329C359.108,182.799,355.261,185.916,351.599,189.34
		L351.599,189.34z"/>
	<path fill="#FFDD00" d="M352.875,142.989c-0.459,0.091-0.974,0.395-1.524,0.793c-0.153,0.113-0.296,0.201-0.436,0.308
		c-0.112,0.092-0.22,0.193-0.343,0.293c-3.044,2.596-6.844,8.41-9.847,13.505c-0.301-0.331-0.616-0.671-0.616-0.671
		c-0.444-0.501-0.887-0.966-1.307-1.461l-0.386-0.433c-0.518-0.558-1.01-1.127-1.517-1.69c-0.213-0.256-0.43-0.496-0.645-0.738
		c-0.323-0.389-0.636-0.776-0.962-1.152c-0.387-0.508-0.79-0.993-1.176-1.494c-0.181-0.25-0.366-0.495-0.54-0.726
		c-0.47-0.634-0.916-1.272-1.355-1.936c-0.105-0.175-0.213-0.332-0.326-0.482c-0.458-0.736-0.87-1.488-1.271-2.239
		c-0.075-0.132-0.145-0.265-0.224-0.415c-0.395-0.751-0.728-1.551-1.046-2.345c-0.06-0.168-0.13-0.332-0.193-0.498
		c-0.29-0.787-0.53-1.627-0.741-2.456c-0.042-0.208-0.102-0.375-0.147-0.558c-0.229-1.044-0.404-2.117-0.503-3.229l0.247-1.876
		l0.036-0.161c0.382-2.097,1.186-5.281,2.17-8.651c1.963-6.532,4.643-13.69,6.183-14.567c0.332,0.319,3.004,2.752,3.004,2.752
		c4.245,3.821,8.638,7.745,10.563,12.506c1.627,4.015,3.552,9.441,3.552,14.36c0,1.127-0.24,2.178-0.472,3.262
		C352.991,142.989,352.935,142.989,352.875,142.989L352.875,142.989z"/>
	<path fill="#FFDD00" d="M311.921,129.117l0.013,0.014l0.301,0.021c1.91,0.18,3.572,0.441,5.051,0.815
		c0.063,0,0.118,0.024,0.181,0.048c0.623,0.152,1.219,0.351,1.785,0.544c0.107,0.039,0.227,0.075,0.326,0.107
		c0.503,0.183,0.958,0.409,1.409,0.628c0.145,0.055,0.293,0.115,0.428,0.175c0,0,0.832,0.466,1.76,1.007l2.275,1.271
		c-0.137,0.852-0.205,1.502-0.172,1.858c0.095,1.161,0.278,2.287,0.525,3.371c0.092,0.468,0.244,0.919,0.369,1.36
		c0.155,0.596,0.307,1.193,0.501,1.736c0.192,0.561,0.428,1.092,0.65,1.642c0.168,0.402,0.333,0.822,0.526,1.197
		c0.28,0.623,0.591,1.197,0.916,1.767c0.161,0.301,0.326,0.601,0.494,0.866c0.373,0.641,0.774,1.278,1.191,1.898
		c0.108,0.155,0.233,0.33,0.359,0.523c1.609,2.285,3.424,4.464,5.366,6.633c-0.06,0.451-0.135,0.959-0.135,0.959
		s-0.303,3.039-0.474,4.666c-0.568-0.081-1.887-0.244-2.27-0.291c-0.109-0.084-0.931-0.661-0.931-0.661
		c-2.959-2.012-6.57-3.143-10.243-3.879c-2.203-0.451-4.438-0.767-6.551-1.071c0,0-0.565-0.091-1.271-0.201
		c-0.536-0.445-3.286-2.619-3.286-2.619c-1.995-1.981-10.18-20.328-10.18-24.284c0-0.246,0.03-0.421,0.09-0.553l4.339,0.148
		C307.479,128.863,309.722,128.932,311.921,129.117L311.921,129.117z"/>
	<path fill="#FFDD00" d="M340.262,225.372c-0.096-0.375-0.163-0.708-0.243-1.083c-0.201-0.926-0.385-1.837-0.56-2.763
		c-0.09-0.466-0.158-0.93-0.242-1.393c-0.13-0.843-0.241-1.636-0.341-2.452c-0.06-0.511-0.115-1.007-0.153-1.502
		c-0.08-0.796-0.115-1.595-0.132-2.412c-0.017-0.334-0.055-0.664-0.055-0.992c0-0.199,0.015-0.4,0.026-0.61
		c0.005-0.389,0.03-0.783,0.057-1.182c0.042-0.696,0.098-1.417,0.185-2.1c0.048-0.398,0.095-0.806,0.183-1.226
		c0.11-0.739,0.291-1.469,0.474-2.226c0.083-0.362,0.16-0.705,0.268-1.058c0.317-1.12,0.698-2.221,1.184-3.312
		c0,0,0.05-0.09,0.067-0.115c-0.654-0.871-2.195-2.938-2.195-2.938s-0.574-0.641-0.623-0.686
		c-7.002-1.767-13.624-3.702-19.074-8.615c-0.869,3.599-1.222,9.732-1.222,15.324c0,5.462,0.3,10.223,0.678,11.206
		c0.436,1.139,0.936,2.203,1.494,3.217l0.103,0.18c0.522,0.938,1.106,1.844,1.727,2.669c0.215,0.3,0.463,0.587,0.691,0.876
		c0.438,0.563,0.881,1.109,1.36,1.627c0.248,0.27,0.517,0.526,0.776,0.796c5.389,0.841,10.786,1.992,16.194,3.481
		C340.67,227.174,340.452,226.268,340.262,225.372L340.262,225.372z"/>
	<path fill="#FFDD00" d="M313.254,158.508l0.022,0.02l1.963,0.275c4.223,0.607,8.561,1.227,12.255,2.734
		c1.236,0.485,2.396,1.081,3.452,1.812c0,0,4.015,3.028,5.074,3.82c-0.104,0.267-0.163,0.501-0.196,0.643
		c-0.168,1.127-0.265,2.186-0.312,3.261c-0.021,0.251-0.025,0.544-0.025,0.794c-0.007,0.145-0.025,0.294-0.025,0.433
		c0,0.596,0.05,1.169,0.098,1.736c0.015,0.408,0.02,0.827,0.06,1.227c0.11,0.983,0.263,1.918,0.463,2.869
		c0.083,0.375,0.183,0.786,0.275,1.161c0.17,0.659,0.35,1.316,0.538,1.96c0.101,0.327,0.218,0.637,0.318,0.968
		c0.265,0.776,0.543,1.527,0.852,2.278c0.067,0.183,0.135,0.357,0.207,0.533c0.836,2.02,1.78,3.931,2.743,5.809
		c0.321,0.623,0.648,1.252,0.979,1.883c-0.107,0.51-0.355,1.644-0.618,2.828c-0.45-0.133-0.931-0.24-0.931-0.24
		c-0.534-0.136-1.069-0.275-1.595-0.4c-0.751-0.201-1.489-0.399-2.217-0.586c-0.276-0.058-0.536-0.139-0.809-0.208
		c-0.771-0.224-1.531-0.423-2.273-0.643c-0.022-0.026-0.039-0.026-0.072-0.04c-5.382-1.642-10.183-3.83-14.127-8.02l-0.673-0.733
		c-0.215-0.247-0.443-0.449-0.655-0.694c-1.65-2.071-7.064-19.272-7.064-24.609c0-0.541,0.09-0.928,0.22-1.204
		C311.395,158.217,312.346,158.35,313.254,158.508L313.254,158.508z"/>
	<path fill="#FFDD00" d="M319.318,222.011c-0.215,0.571-0.425,1.17-0.632,1.772c0.719,0.083,1.431,0.165,2.15,0.255
		C320.31,223.387,319.792,222.719,319.318,222.011L319.318,222.011z"/>
	<path fill="#FFDD00" d="M344.216,196.855c-0.274,0.29-0.503,0.555-0.745,0.84l0.343-1.546l0.013,0.03L344.216,196.855
		L344.216,196.855z"/>
	<path fill="#FFDD00" d="M362.898,229.703c0,0-0.876-4.195-0.971-4.638c-0.101-0.047-1.952-0.443-9.865,5.202l-0.211,0.168h-0.02
		c-0.35,0.251-0.698,0.504-1.05,0.763c4.513,1.603,9.028,3.457,13.541,5.595C363.942,234.436,363.415,232.056,362.898,229.703
		L362.898,229.703z"/>
	<path fill="#FFDD00" d="M348.611,228.57c0,0,1.864-0.411,2.23-0.489c0.122-0.1,0.215-0.147,0.34-0.235
		c0.67-0.476,1.328-0.914,1.987-1.347c0.305-0.201,0.626-0.4,0.912-0.596c0.337-0.2,0.675-0.395,1.001-0.611
		c2.017-1.227,3.529-1.943,4.606-2.305c0.137-0.066,0.274-0.1,0.415-0.136c0.286-0.09,0.543-0.166,0.762-0.213
		c0.573-0.12,1.089-0.188,1.514-0.12c0.078,0.028,0.138,0.044,0.202,0.068c3.903-4.511,5.272-12.158,5.91-17.707
		c0.077-0.666,0.112-1.332,0.112-2.022c0-4.842-1.775-10.023-3.512-15.039l-1.414-4.255l-0.453,0.143
		c-2.311,0.751-7.211,4.656-12.781,10.212l-0.12,0.109l-0.085,0.046c-2.703,2.675-5.039,5.202-6.233,6.788l-0.501,0.7l-0.288,0.49
		c-0.45,1.022-0.796,2.033-1.096,3.052c-0.08,0.307-0.152,0.639-0.233,0.97c-0.175,0.683-0.33,1.395-0.445,2.09
		c-0.065,0.355-0.105,0.739-0.145,1.094c-0.083,0.677-0.145,1.35-0.175,2.03c-0.008,0.335-0.042,0.688-0.045,1.044
		c-0.012,0.463,0.02,0.926,0.037,1.426c0.013,0.784,0.048,1.58,0.126,2.373c0.037,0.458,0.089,0.918,0.152,1.381
		c0.095,0.784,0.21,1.583,0.343,2.378c0.067,0.451,0.135,0.884,0.229,1.326c0.156,0.884,0.339,1.78,0.533,2.677
		c0.075,0.352,0.148,0.683,0.225,1.046c0.271,1.208,0.566,2.43,0.852,3.669c0,0,0.022,0.098,0.055,0.23
		c0.566,0.168,1.137,0.363,1.702,0.539C346.883,228.994,348.611,228.57,348.611,228.57L348.611,228.57z"/>
	<path fill="#008D5C" d="M337.206,309.401c2.869-3.628,5.6-7.375,8.178-11.224c0.101-0.142,0.193-0.289,0.285-0.431
		c0.744-1.119,1.474-2.245,2.195-3.38c0.138-0.217,0.273-0.433,0.411-0.65c0.671-1.084,1.336-2.164,1.995-3.253
		c0.138-0.238,0.278-0.476,0.42-0.716c0.643-1.094,1.287-2.196,1.9-3.31c0.128-0.217,0.253-0.438,0.379-0.664
		c0.643-1.161,1.276-2.33,1.895-3.504c0.09-0.167,0.18-0.336,0.265-0.499c0.676-1.295,1.344-2.602,1.988-3.916
		c0.021-0.04,0.042-0.087,0.065-0.133c4.833-9.849,8.763-20.216,11.694-30.995c0.005-0.01,0.005-0.019,0.005-0.024
		c0.418-1.54,0.811-3.084,1.192-4.641c-115.092-61.501-224.787,65.806-339.829,6.002c0,0,0,0.01,0,0.013
		c0.577,2.042,1.187,4.062,1.833,6.075c0.06,0.195,0.125,0.385,0.187,0.583c1.292,3.979,2.719,7.9,4.281,11.747
		c0.077,0.193,0.157,0.383,0.237,0.576c1.577,3.85,3.285,7.629,5.122,11.336c0.085,0.172,0.17,0.343,0.255,0.513
		c1.859,3.723,3.849,7.369,5.957,10.939c0.084,0.136,0.165,0.276,0.248,0.413c2.146,3.598,4.408,7.114,6.796,10.535
		c0.062,0.09,0.125,0.183,0.19,0.273c2.428,3.472,4.981,6.861,7.649,10.143c0.024,0.035,0.053,0.067,0.08,0.104
		c6.783,8.336,14.312,16.04,22.485,23.008C159.527,358.527,257.49,282.41,337.206,309.401L337.206,309.401z"/>
	<path d="M130.412,284.329c-0.968,0.051-1.938,0.068-2.909,0.119c-2.842,0.1-5.684,0.224-8.525,0.27c0,0-6.433,7.923-9.032,11.108
		c-0.22-3.612-0.688-10.863-0.688-10.863c-2.871,0.082-5.739,0.189-8.608,0.261c0.713,11.233,1.45,22.464,2.162,33.702
		c2.869-0.098,5.738-0.133,8.606-0.232c0,0-0.666-10.255-0.727-11.204c0.308-0.358,0.829-0.978,1.495-1.792
		c1.534,2.085,9.514,12.698,9.514,12.698c3.652-0.095,7.299-0.232,10.953-0.368c0,0-13.595-17.56-14.809-19.088
		C119.03,297.504,130.412,284.329,130.412,284.329L130.412,284.329z"/>
	<path d="M180.388,275.141c-2.452,0.704-4.913,1.371-7.374,2.055c0,0-4.58,9.28-6.425,13.059
		c-0.999-3.489-2.932-10.455-2.932-10.455c-2.751,0.761-5.511,1.497-8.265,2.258c3.029,10.878,6.052,21.759,9.077,32.635
		c2.754-0.795,5.524-1.519,8.284-2.305c0,0-2.79-9.94-3.036-10.856c0.218-0.435,0.593-1.163,1.094-2.082
		c1.909,1.595,11.796,10.239,11.796,10.239c3.512-0.996,7.022-2.003,10.533-2.997c0,0-16.798-13.987-18.31-15.252
		c0.646-1.195,6.844-12.692,9.329-17.373L180.388,275.141L180.388,275.141z"/>
	<path d="M183.667,276.939c4.806,4.655,9.611,9.318,14.41,13.982c0.959,0.911,1.745,1.657,2.098,2.596
		c0.423,1.084-0.503,1.67-1.127,1.932c-0.814,0.328-1.78,0.287-2.549,0.27c-0.607-0.018-1.226-0.062-1.833-0.075
		c0.182,0.601,0.378,1.209,0.565,1.814c0.886,2.254,1.783,4.499,2.664,6.754c0.403-0.014,0.808-0.025,1.209-0.039
		c1.218-0.26,2.44-0.489,3.659-0.732c5.059-2.057,6.061-6.352,6.108-13.045c0.091-8.987,0.171-17.97,0.264-26.951
		c-0.561,0.243-1.127,0.463-1.7,0.67c-2.315,0.963-4.643,1.9-6.954,2.874c0,0,0.475,11.208,0.627,15.489
		c-2.934-3.117-10.746-11.359-10.746-11.359c-2.871,1.202-5.975,2.495-8.853,3.671L183.667,276.939L183.667,276.939z"/>
	<path d="M85.656,304.573c0-2.158,0-9.988,0-12.275c3.837,0.973,4.628,4.117,4.628,6.157
		C90.285,302.602,87.999,304.262,85.656,304.573L85.656,304.573L85.656,304.573z M77.271,304.143
		c-2.308-0.652-4.59-2.621-4.605-6.804c0-2.441,0.97-5.106,4.605-5.595C77.271,293.985,77.271,301.933,77.271,304.143
		L77.271,304.143L77.271,304.143z M85.656,285.113c0-1.008,0-3.519,0-3.519c-0.402-0.035-0.811-0.042-1.211-0.074
		c-2.393-0.148-4.783-0.286-7.174-0.461c0,0,0,2.513,0,3.516c-9.492,0.214-12.99,6.482-12.99,12.233
		c0,7.264,5.221,12.904,12.99,14.323c0,1.004,0,3.625,0,3.625c2.794,0.213,5.592,0.37,8.385,0.539c0,0,0-2.623,0-3.63
		c7.782-0.445,13.014-5.275,13.014-12.539C98.67,293.373,95.189,286.542,85.656,285.113L85.656,285.113z"/>
	<path d="M232.177,283.229c0,0-3.962,1.158-5.957,1.783c-0.466-1.464-1.276-4.169-1.679-5.601c1.61-0.47,5.959-1.807,5.959-1.807
		c0.764-0.226,2.071-0.607,2.989-0.065c0.533,0.282,0.926,0.922,1.235,1.89c0.155,0.466,0.2,0.883,0.2,1.244
		C234.923,282.078,233.896,282.671,232.177,283.229L232.177,283.229L232.177,283.229z M229.424,269.872c0,0-4.826,1.465-7.089,2.166
		c-0.386-1.282-0.884-2.929-1.272-4.185c1.973-0.638,14.585-4.38,14.585-4.38c-0.743-2.553-1.519-5.102-2.258-7.663
		c-0.402,0.103-0.788,0.258-1.197,0.359c-7.191,2.195-14.4,4.373-21.601,6.553c3.224,10.805,6.438,21.616,9.662,32.418
		c5.114-1.548,10.215-3.125,15.337-4.642c3.436-1.036,5.804-2.821,7.054-5.273c1.154-2.278,1.251-5.049,0.319-8.187
		C240.975,270.511,236.057,267.89,229.424,269.872L229.424,269.872z"/>
	<path d="M322.881,274.3c-0.248,2.413-1.517,2.621-3.822,2.288c0,0-2.726-0.402-4.335-0.611c0.091-1.503,0.348-4.315,0.473-5.797
		c1.501,0.238,4.366,0.674,4.366,0.674c2.125,0.308,3.319,0.918,3.319,2.916C322.881,273.935,322.881,274.101,322.881,274.3
		L322.881,274.3L322.881,274.3z M329.449,267.732c-1.702-2.31-4.426-3.797-8.002-4.333c0,0-3.963-0.587-5.577-0.798
		c0.155-2.043,1.053-12.214,1.053-12.214c-2.866-0.409-5.726-0.819-8.592-1.21c-0.03,0.432-0.093,0.859-0.12,1.292
		c-0.934,10.713-1.84,21.436-2.766,32.154c4.72,0.656,9.441,1.307,14.167,2.025c3.571,0.526,6.44,0.008,8.52-1.644
		c1.923-1.545,3.019-3.95,3.292-7.142c0.035-0.506,0.085-0.979,0.085-1.441C331.509,271.793,330.811,269.529,329.449,267.732
		L329.449,267.732z"/>
	<path d="M255.919,271.096c0.218-1.717,0.521-4.223,0.931-7.226c1.367,2.755,2.493,4.997,3.212,6.54
		C258.667,270.642,257.35,270.822,255.919,271.096L255.919,271.096L255.919,271.096z M299.74,248.589
		c-2.463,0.033-4.929,0.06-7.389,0.087c0,0,0.408,9.8,0.501,11.839c-1.695,0.053-7.494,0.083-9.179,0.116
		c-0.09-2.049-0.539-11.839-0.539-11.839c-2.88,0.068-5.765,0.085-8.647,0.117c0.501,11.159,1.039,22.31,1.537,33.474
		c-5.654-10.485-11.269-20.981-16.914-31.464c-0.274,0.051-0.558,0.093-0.833,0.143c-2.601,0.409-5.199,0.826-7.797,1.269
		c-1.827,11.706-3.667,23.422-5.494,35.128c2.981-0.506,5.964-1.001,8.95-1.477c0,0,0.744-5.314,0.927-6.666
		c1.352-0.226,7.658-1.256,9.036-1.464c0.619,1.264,2.971,6.047,2.971,6.047c3.046-0.503,6.1-0.952,9.154-1.439
		c0,0.051,0,0.111,0,0.168c2.868-0.05,5.747-0.092,8.626-0.145c0,0-0.533-11.83-0.625-13.929c1.694-0.029,7.452-0.109,9.213-0.125
		c0.096,2.15,0.609,13.947,0.609,13.947c2.869-0.014,5.74-0.035,8.613-0.068c-0.503-11.241-1.013-22.484-1.501-33.724
		C300.549,248.583,300.143,248.589,299.74,248.589L299.74,248.589z"/>
	<path d="M225.886,49.884c0-6.346-4.198-13.282-13.516-13.791c-11.257-0.771-13.992,8.44-14.143,13.866
		c3.079-0.06,6.177,0,9.274,0.139c0-1.506,0.32-6.388,4.613-6.151c2.927,0.134,4.498,2.733,4.498,5.215
		c0,2.183-1.019,3.691-4.33,7.39c-5.187,5.729-10.28,11.684-15.389,17.72c9.527-0.143,19.063,0.382,28.568,1.626
		c0-2.736,0-5.499,0-8.234c-3.655-0.453-7.279-0.783-10.888-1.11C222.808,58.55,225.886,55.441,225.886,49.884L225.886,49.884z"/>
	<path d="M140.259,57.659c1.802-1.605,3.734-2.693,5.664-3.582c0,9.629,0,19.236,0,28.897c3.143-1.551,6.39-2.67,9.594-3.549
		c0-12.505,0-24.972,0-37.491c-5.131,1.472-10.653,2.969-15.258,7.108C140.259,51.927,140.259,54.78,140.259,57.659L140.259,57.659z
		"/>
	<path d="M180.698,55.566c-3.397,0.375-5.241-2.063-5.241-5.002c0-3.148,2.058-5.799,5.241-6.162
		c3.287-0.265,5.176,2.038,5.176,5.191C185.874,52.682,183.985,55.345,180.698,55.566L180.698,55.566L180.698,55.566z
		 M180.588,36.505c-9.551,0.926-14.433,8.288-14.433,15.546c0,7.184,4.433,11.424,11.079,10.724c1.319-0.13,2.227-0.406,3.078-0.737
		c-2.993,4.671-6.047,9.379-9.061,14.128c3.668-0.476,7.302-0.893,10.973-1.211c2.829-4.405,5.628-8.693,8.468-13.007
		c2.862-4.175,4.075-7.872,4.075-12.59C194.768,41.149,189.079,35.722,180.588,36.505L180.588,36.505z"/>
	<path d="M244.184,72.917c-2.971-0.893-4.63-3.594-4.63-6.072c0-2.886,2.142-4.2,4.63-3.49c1.698,0.436,4.646,2.623,4.646,6.252
		C248.83,72.111,247.263,73.769,244.184,72.917L244.184,72.917L244.184,72.917z M244.184,48.542
		c1.359,0.375,3.862,1.997,3.862,5.326c0,2.898-2.02,3.279-3.862,2.737c-1.652-0.509-3.817-2.046-3.817-5.045
		C240.367,48.193,242.865,48.072,244.184,48.542L244.184,48.542L244.184,48.542z M251.443,62.479c0-0.04,0-0.055,0-0.109
		c2.844,0.22,5.348-0.84,5.348-5.388c0-5.567-3.943-13.375-12.606-15.834c-8.443-2.554-12.628,1.851-12.628,7.444
		c0,4.545,2.498,7.714,5.369,9.338c0,0.043,0,0.098,0,0.123c-2.461,0.22-7.071,1.622-7.071,8.208c0,3.577,1.765,10.743,14.33,14.55
		c13.116,3.79,14.308-0.984,14.308-4.589C258.492,69.671,253.928,64.247,251.443,62.479L251.443,62.479z"/>
	<path d="M156.804,312.219l-8.48-5.862l-1.334-5.832l5.106-8.879l1.33,5.804l-3.064,5.452l5.106,3.45L156.804,312.219
		L156.804,312.219L156.804,312.219z M148.058,314.392l-8.52-5.938l-1.312-5.727l5.126-8.903l1.317,5.741l-3.036,5.47l5.063,3.405
		L148.058,314.392L148.058,314.392z"/>
	<path d="M334.901,277.555l5.099-3.454l-3.064-5.455l1.328-5.805l5.107,8.878l-1.332,5.84l-8.485,5.857L334.901,277.555
		L334.901,277.555L334.901,277.555z M343.666,279.642l5.062-3.409l-3.031-5.471l1.312-5.74l5.128,8.901l-1.309,5.734l-8.525,5.933
		L343.666,279.642L343.666,279.642z"/>
</g>
</svg>
