<?xml version="1.0" encoding="utf-8"?>
<!-- Generator: Adobe Illustrator 19.1.0, SVG Export Plug-In . SVG Version: 6.00 Build 0)  -->
<svg version="1.1" id="Layer_1" xmlns="http://www.w3.org/2000/svg" xmlns:xlink="http://www.w3.org/1999/xlink" x="0px" y="0px"
	 viewBox="0 0 400 400" enable-background="new 0 0 400 400" xml:space="preserve">
<g>
	<path fill-rule="evenodd" clip-rule="evenodd" fill="#FFFFFF" d="M199.378,8c105.749,0,192,86.25,192,192
		c0,105.749-86.251,192-192,192c-105.749,0-192-86.251-192-192C7.378,94.25,93.629,8,199.378,8L199.378,8z"/>
	<path fill-rule="evenodd" clip-rule="evenodd" fill="#FFFFFF" d="M368.832,200.056c0-93.49-75.906-169.51-169.509-169.51
		c-93.494,0-169.399,76.023-169.399,169.51c0,93.488,75.908,169.399,169.399,169.399
		C292.922,369.455,368.832,293.548,368.832,200.056L368.832,200.056z"/>
	<path fill-rule="evenodd" clip-rule="evenodd" fill="#0066B3" d="M383.192,200.056c0,101.428-82.346,183.758-183.869,183.758
		c-101.421,0-183.76-82.337-183.76-183.758c0-101.405,82.321-183.871,183.76-183.871C300.864,16.185,383.192,98.642,383.192,200.056
		L383.192,200.056z"/>
	<path fill-rule="evenodd" clip-rule="evenodd" fill="#FFFFFF" d="M17.108,200.056c0-100.554,81.631-182.327,182.215-182.327
		c100.688,0,182.326,81.765,182.326,182.327c0,100.576-81.654,182.215-182.326,182.215
		C98.755,382.271,17.108,300.626,17.108,200.056L17.108,200.056z"/>
	<path fill-rule="evenodd" clip-rule="evenodd" fill="#0066B3" d="M199.323,379.184c-98.863,0-179.127-80.265-179.127-179.127
		c0-98.852,80.25-179.238,179.127-179.238c98.98,0,179.238,80.38,179.238,179.238C378.56,298.926,298.29,379.184,199.323,379.184
		L199.323,379.184z M368.832,200.056c0-93.49-75.906-169.51-169.509-169.51c-93.494,0-169.399,76.023-169.399,169.51
		c0,93.488,75.908,169.399,169.399,169.399C292.922,369.455,368.832,293.548,368.832,200.056L368.832,200.056z"/>
	<path fill-rule="evenodd" clip-rule="evenodd" fill="#0066B3" d="M324.892,200.056c0-69.375-56.196-125.571-125.569-125.571
		c-69.265,0-125.57,56.198-125.57,125.571c0,69.262,56.307,125.569,125.57,125.569C268.695,325.625,324.892,269.318,324.892,200.056
		L324.892,200.056z M330.144,200.056c0,72.161-58.546,130.819-130.821,130.819c-72.163,0-130.821-58.658-130.821-130.819
		c0-72.276,58.66-130.821,130.821-130.821C271.597,69.236,330.144,127.782,330.144,200.056L330.144,200.056z"/>
	<path fill-rule="evenodd" clip-rule="evenodd" fill="#FFFFFF" d="M324.892,200.056c0-69.375-56.196-125.571-125.569-125.571
		c-69.265,0-125.57,56.198-125.57,125.571c0,69.262,56.307,125.569,125.57,125.569C268.695,325.625,324.892,269.318,324.892,200.056
		L324.892,200.056z"/>
	<path fill-rule="evenodd" clip-rule="evenodd" fill="#0066B3" d="M317.406,157.246H135.254V92.067
		c18.766-11.163,40.675-17.582,64.069-17.582C253.66,74.485,299.909,108.965,317.406,157.246L317.406,157.246z"/>
	<path fill-rule="evenodd" clip-rule="evenodd" fill="#FFF200" d="M317.843,241.578H135.254v-84.332h182.152
		c4.841,13.36,7.486,27.774,7.486,42.81C324.892,214.604,322.403,228.574,317.843,241.578L317.843,241.578z"/>
	<path fill-rule="evenodd" clip-rule="evenodd" fill="#ED1C24" d="M135.254,308.019v-66.441h182.589
		c-17.149,48.904-63.719,84.047-118.52,84.047C175.93,325.625,154.021,319.193,135.254,308.019L135.254,308.019z"/>
	<path fill-rule="evenodd" clip-rule="evenodd" fill="#FFFFFF" d="M195.098,56.295c0.666,0,1.223,0.111,1.89,0.111
		c3.779-0.111,6.558-1.223,6.558-4.446c-0.11-3.114-3.667-3.893-7.003-3.893c-1.557,0.112-1.667,0.224-1.557,1.335L195.098,56.295
		L195.098,56.295z"/>
	<polygon fill-rule="evenodd" clip-rule="evenodd" fill="#FFFFFF" points="311.063,112.11 315.954,119.336 319.846,111.331 
		311.063,112.11 	"/>
	<path fill-rule="evenodd" clip-rule="evenodd" fill="#0066B3" d="M81.348,302.314l-6.223,5.939l-7.116-7.809l21.222-20.252
		l8.827,9.686c2.749,3.016,4.21,5.862,4.383,8.537c0.173,2.675-1.094,5.308-3.802,7.891c-2.053,1.958-4.511,2.81-7.375,2.554
		c-2.864-0.252-5.579-1.788-8.144-4.601L81.348,302.314L81.348,302.314z M86.912,297.067l1.71,1.877
		c0.998,1.096,2.075,1.089,3.233-0.015c1.179-1.124,1.228-2.277,0.15-3.462l-1.589-1.743L86.912,297.067L86.912,297.067z"/>
	<path fill-rule="evenodd" clip-rule="evenodd" fill="#0066B3" d="M135.526,318.021c1.95,1.06,3.564,2.399,4.84,4.009
		c1.277,1.611,2.212,3.374,2.806,5.286c0.595,1.916,0.805,3.917,0.634,6.004c-0.171,2.085-0.733,4.047-1.687,5.882
		c-1.29,2.48-3.093,4.438-5.412,5.875c-2.32,1.437-4.859,2.192-7.618,2.264c-2.761,0.074-5.366-0.557-7.817-1.892
		c-2.451-1.333-4.42-3.189-5.904-5.57c-1.485-2.384-2.293-4.96-2.425-7.731c-0.133-2.771,0.446-5.396,1.735-7.876
		c0.953-1.835,2.223-3.403,3.811-4.702c1.587-1.298,3.336-2.239,5.247-2.827c1.911-0.585,3.873-0.78,5.884-0.585
		C131.633,316.354,133.601,316.975,135.526,318.021L135.526,318.021z M130.942,326.841c-1.186-0.646-2.466-0.72-3.84-0.224
		c-1.376,0.5-2.42,1.437-3.135,2.81c-0.715,1.377-0.889,2.785-0.524,4.233c0.365,1.444,1.141,2.487,2.327,3.133
		c1.186,0.646,2.463,0.728,3.831,0.242c1.367-0.483,2.415-1.426,3.144-2.828c0.728-1.405,0.906-2.82,0.535-4.25
		C132.908,328.523,132.129,327.487,130.942,326.841L130.942,326.841z"/>
	<path fill-rule="evenodd" clip-rule="evenodd" fill="#0066B3" d="M182.461,342.595c-1.597-0.227-3.004,0.077-4.22,0.922
		c-1.216,0.845-1.948,2.171-2.198,3.989c-0.208,1.511,0.044,2.919,0.753,4.225c0.71,1.306,1.967,2.086,3.771,2.345
		c2.129,0.309,4.412-0.29,6.848-1.788l-1.825,10.981c-3.022,0.489-5.361,0.617-7.017,0.379c-2.542-0.365-4.91-1.294-7.102-2.781
		c-2.192-1.487-3.856-3.485-4.988-5.993c-1.133-2.508-1.47-5.425-1.013-8.753c0.357-2.601,1.237-5.003,2.641-7.209
		c1.402-2.203,3.344-3.875,5.821-5.013c2.479-1.143,5.418-1.465,8.817-0.979c2.248,0.323,4.518,1.128,6.814,2.416l-1.501,10.935
		C186.545,344.141,184.678,342.914,182.461,342.595L182.461,342.595z"/>
	<polygon fill-rule="evenodd" clip-rule="evenodd" fill="#0066B3" points="218.063,363.197 215.35,343.456 209.587,344.287 
		208.258,334.622 230.078,331.482 231.405,341.15 225.639,341.977 228.352,361.717 218.063,363.197 	"/>
	<path fill-rule="evenodd" clip-rule="evenodd" fill="#0066B3" d="M261.647,318.933c1.985-0.993,3.991-1.543,6.014-1.654
		c2.024-0.11,3.968,0.153,5.831,0.789c1.862,0.631,3.568,1.635,5.117,3.001c1.551,1.369,2.77,2.987,3.66,4.854
		c1.203,2.525,1.692,5.172,1.465,7.936c-0.226,2.764-1.122,5.308-2.687,7.635c-1.564,2.327-3.594,4.115-6.09,5.36
		c-2.496,1.245-5.121,1.781-7.876,1.611c-2.757-0.17-5.269-1.019-7.536-2.537c-2.269-1.518-4.006-3.54-5.211-6.067
		c-0.891-1.866-1.382-3.839-1.474-5.918c-0.094-2.075,0.19-4.077,0.848-6.003c0.659-1.926,1.658-3.665,2.994-5.22
		C258.041,321.172,259.688,319.909,261.647,318.933L261.647,318.933z M265.926,327.909c-1.206,0.603-2.017,1.618-2.432,3.052
		c-0.415,1.43-0.287,2.845,0.38,4.243c0.667,1.402,1.68,2.375,3.037,2.92c1.355,0.547,2.638,0.518,3.846-0.082
		c1.208-0.603,2.021-1.613,2.443-3.03c0.421-1.415,0.291-2.838-0.39-4.267c-0.679-1.426-1.695-2.406-3.046-2.938
		C268.413,327.271,267.134,327.306,265.926,327.909L265.926,327.909z"/>
	<path fill-rule="evenodd" clip-rule="evenodd" fill="#0066B3" d="M312.667,319.838l-20.875-20.628l9.643-10.217
		c2.074-2.196,4.175-3.456,6.301-3.775c2.127-0.32,3.975,0.298,5.544,1.845c1.417,1.401,2.21,2.714,2.378,3.945
		c0.169,1.228-0.081,2.658-0.75,4.29c3.426-2.179,6.374-2.048,8.843,0.393c4.038,3.988,3.546,8.643-1.472,13.962L312.667,319.838
		L312.667,319.838z M307.958,298.11c0.912-0.965,0.865-1.948-0.147-2.945c-0.45-0.447-0.903-0.648-1.356-0.606
		c-0.454,0.039-0.876,0.266-1.272,0.685l-1.648,1.749l2.835,2.799L307.958,298.11L307.958,298.11z M316.035,305.646
		c1.1-1.164,1.101-2.288,0.005-3.37c-1.073-1.062-2.201-0.966-3.383,0.287l-1.68,1.781l3.253,3.214L316.035,305.646L316.035,305.646
		z"/>
	<path fill-rule="evenodd" clip-rule="evenodd" fill="#0066B3" d="M62.076,185.581l-3.004-0.37
		c-0.191,1.552-0.596,3.051-1.217,4.499c-0.621,1.448-1.636,2.641-3.045,3.579c-1.41,0.939-3.265,1.267-5.564,0.984
		c-2.219-0.272-3.904-1.013-5.051-2.221c-1.149-1.21-1.866-2.599-2.155-4.169c-0.288-1.57-0.333-3.164-0.135-4.778l-2.365-0.291
		l0.737-6.008l2.366,0.291c0.147-1.194,0.415-2.353,0.806-3.478c0.391-1.124,0.962-2.148,1.711-3.073
		c0.749-0.924,1.731-1.626,2.944-2.105c1.213-0.479,2.669-0.614,4.365-0.406c2.3,0.282,4.021,1.044,5.165,2.285
		c1.144,1.24,1.841,2.636,2.092,4.189c0.249,1.553,0.278,3.119,0.084,4.696l3.005,0.369L62.076,185.581L62.076,185.581z
		 M54.832,184.258l-8.583-1.054c-0.224,1.82,0.095,3.089,0.961,3.805c0.864,0.716,1.79,1.135,2.778,1.257
		c0.982,0.12,1.979-0.064,2.993-0.556C53.992,187.22,54.61,186.068,54.832,184.258L54.832,184.258z M46.881,178.056l8.583,1.054
		c0.139-1.135-0.032-2.212-0.514-3.232c-0.482-1.02-1.554-1.633-3.215-1.836c-1.667-0.205-2.857,0.129-3.572,1.003
		C47.447,175.919,47.02,176.922,46.881,178.056L46.881,178.056z"/>
	<polygon fill-rule="evenodd" clip-rule="evenodd" fill="#0066B3" points="68.075,157.074 63.474,152.278 45.986,154.553 
		48.425,147.85 58.404,146.983 51.055,140.624 53.306,134.44 70.293,150.981 68.075,157.074 	"/>
	<polygon fill-rule="evenodd" clip-rule="evenodd" fill="#0066B3" points="79.481,131.779 65.397,123.316 62.949,127.391 
		58.501,124.719 66.516,111.381 70.963,114.052 68.515,118.127 82.599,126.59 79.481,131.779 	"/>
	<path fill-rule="evenodd" clip-rule="evenodd" fill="#0066B3" d="M90.486,115.372L74.17,101.189l10.478-12.055l3.916,3.405
		l-6.506,7.484l2.446,2.128l2.088-2.402c0.726-0.835,1.571-1.634,2.537-2.396c0.966-0.763,2.163-1.231,3.589-1.405
		c1.429-0.175,2.874,0.374,4.339,1.647c2.154,1.872,2.926,3.776,2.315,5.71c-0.611,1.932-1.553,3.631-2.827,5.095L90.486,115.372
		L90.486,115.372z M91.194,107.966l1.703-1.958c0.65-0.748,1.012-1.43,1.085-2.046c0.074-0.616-0.202-1.196-0.827-1.739
		c-0.609-0.53-1.21-0.718-1.801-0.567c-0.591,0.152-1.219,0.611-1.883,1.374l-1.703,1.959L91.194,107.966L91.194,107.966z"/>
	<path fill-rule="evenodd" clip-rule="evenodd" fill="#0066B3" d="M118.099,89.549c-1.522,1.148-3.06,1.911-4.614,2.292
		c-1.554,0.381-3.04,0.432-4.459,0.154c-1.418-0.279-2.733-0.819-3.945-1.626c-1.211-0.806-2.258-1.792-3.138-2.961
		c-1.204-1.597-1.985-3.351-2.345-5.261c-0.359-1.91-0.159-3.819,0.603-5.728c0.762-1.909,2.142-3.615,4.142-5.123
		c1.521-1.146,3.061-1.914,4.618-2.303c1.556-0.389,3.04-0.445,4.45-0.167c1.408,0.279,2.719,0.823,3.932,1.629
		c1.212,0.808,2.262,1.8,3.149,2.976c0.894,1.188,1.562,2.474,2.004,3.858c0.442,1.382,0.602,2.794,0.482,4.234
		c-0.12,1.44-0.582,2.85-1.384,4.229C120.794,87.131,119.627,88.397,118.099,89.549L118.099,89.549z M114.975,85.406
		c0.77-0.582,1.341-1.307,1.71-2.176c0.37-0.871,0.467-1.828,0.294-2.873c-0.175-1.046-0.664-2.102-1.469-3.17
		c-0.801-1.063-1.678-1.824-2.632-2.279c-0.953-0.455-1.901-0.626-2.843-0.51c-0.942,0.116-1.798,0.463-2.568,1.044
		c-0.77,0.58-1.34,1.308-1.711,2.182c-0.37,0.873-0.468,1.831-0.294,2.873c0.175,1.042,0.664,2.095,1.465,3.158
		c0.805,1.068,1.685,1.83,2.643,2.286c0.956,0.455,1.905,0.626,2.842,0.51C113.351,86.334,114.205,85.987,114.975,85.406
		L114.975,85.406z"/>
	<path fill-rule="evenodd" clip-rule="evenodd" fill="#0066B3" d="M128.614,56.788l14.892-6.944l9.137,19.594l-5.486,2.559
		l-6.945-14.892l-3.918,1.828l3.6,7.723c0.449,0.961,0.791,1.859,1.029,2.694c0.236,0.835,0.299,1.73,0.19,2.685
		c-0.109,0.955-0.545,1.898-1.306,2.831c-0.761,0.932-1.948,1.773-3.561,2.526c-0.884,0.413-1.688,0.685-2.414,0.819l-2.194-4.705
		c0.569-0.104,1.001-0.225,1.297-0.363c0.775-0.362,1.284-0.791,1.529-1.293c0.244-0.498,0.289-1.077,0.136-1.734
		c-0.154-0.658-0.47-1.499-0.948-2.524L128.614,56.788L128.614,56.788z"/>
	<path fill-rule="evenodd" clip-rule="evenodd" fill="#0066B3" d="M162.867,66.177l-4.494-21.146l5.92-1.259l1.753,8.247
		l3.112-0.661c0.95-0.202,1.892-0.326,2.828-0.374c0.935-0.047,1.872,0.057,2.808,0.312c0.937,0.256,1.77,0.766,2.504,1.53
		c0.732,0.764,1.244,1.829,1.534,3.196c0.547,2.572,0.072,4.471-1.421,5.699c-1.494,1.227-3.331,2.072-5.509,2.535L162.867,66.177
		L162.867,66.177z M167.889,60.69l2.539-0.54c0.968-0.205,1.667-0.533,2.097-0.98c0.43-0.448,0.559-1.077,0.386-1.887
		c-0.169-0.791-0.534-1.303-1.098-1.537c-0.564-0.234-1.341-0.246-2.33-0.036l-2.539,0.54L167.889,60.69L167.889,60.69z"/>
	<polygon fill-rule="evenodd" clip-rule="evenodd" fill="#0066B3" points="189.739,61.16 189.361,39.544 195.414,39.438 
		195.549,47.219 202.898,47.092 202.762,39.309 208.815,39.203 209.193,60.819 203.14,60.926 202.989,52.279 195.64,52.407 
		195.791,61.053 189.739,61.16 	"/>
	<path fill-rule="evenodd" clip-rule="evenodd" fill="#0066B3" d="M219.976,61.68l5.23-20.977l5.873,1.464l-2.04,8.181l3.088,0.769
		c0.942,0.235,1.843,0.536,2.705,0.904c0.861,0.369,1.657,0.873,2.386,1.513c0.729,0.639,1.255,1.463,1.579,2.472
		c0.324,1.008,0.317,2.19-0.021,3.546c-0.637,2.551-1.895,4.051-3.776,4.499c-1.88,0.448-3.902,0.402-6.063-0.136L219.976,61.68
		L219.976,61.68z M226.895,58.948l2.518,0.627c0.963,0.24,1.734,0.253,2.316,0.038c0.584-0.214,0.974-0.722,1.174-1.526
		c0.195-0.784,0.09-1.405-0.313-1.862c-0.404-0.458-1.098-0.809-2.079-1.054l-2.517-0.628L226.895,58.948L226.895,58.948z
		 M238.436,66.282l5.23-20.978l5.874,1.465l-5.23,20.978L238.436,66.282L238.436,66.282z"/>
	<path fill-rule="evenodd" clip-rule="evenodd" fill="#0066B3" d="M264.563,52.395l5.153,2.74l-6.088,11.452l13.48-7.523
		l5.235,2.783l-10.151,19.088l-5.153-2.741l6.088-11.451l-13.48,7.52l-5.234-2.782L264.563,52.395L264.563,52.395z M270.45,50.273
		l3.718,0.509c-0.305,1.215,0.165,2.154,1.407,2.814c1.244,0.661,2.285,0.525,3.123-0.408l2.497,2.798
		c-0.688,0.546-1.435,0.897-2.238,1.055c-0.806,0.159-1.613,0.155-2.425-0.011c-0.81-0.167-1.587-0.448-2.334-0.845
		c-1.141-0.606-2.079-1.426-2.817-2.459C270.641,52.695,270.333,51.544,270.45,50.273L270.45,50.273z"/>
	<polygon fill-rule="evenodd" clip-rule="evenodd" fill="#0066B3" points="294.68,98.206 310.491,83.461 314.619,87.889 
		307.979,94.081 319.063,92.654 323.907,97.85 310.653,98.983 308.245,112.754 303.083,107.216 305.607,96.292 298.809,102.633 
		294.68,98.206 	"/>
	<path fill-rule="evenodd" clip-rule="evenodd" fill="#0066B3" d="M332.954,110.663l8.464,14.083l-18.531,11.136l-3.12-5.19
		l14.084-8.462l-2.227-3.706l-7.303,4.388c-0.91,0.547-1.767,0.982-2.572,1.304c-0.808,0.323-1.689,0.481-2.651,0.471
		c-0.962-0.009-1.946-0.343-2.952-1.002c-1.006-0.66-1.967-1.752-2.884-3.278c-0.502-0.835-0.859-1.607-1.066-2.315l4.449-2.673
		c0.163,0.553,0.328,0.97,0.497,1.25c0.44,0.734,0.922,1.195,1.444,1.387c0.522,0.191,1.104,0.175,1.74-0.046
		c0.639-0.223,1.442-0.624,2.411-1.207L332.954,110.663L332.954,110.663z"/>
	<polygon fill-rule="evenodd" clip-rule="evenodd" fill="#0066B3" points="328.201,148.808 334.781,149.753 347.159,137.195 
		349.364,143.977 342.034,150.805 351.739,151.291 353.773,157.55 330.206,154.974 328.201,148.808 	"/>
	<path fill-rule="evenodd" clip-rule="evenodd" fill="#0066B3" d="M334.937,172.642l21.458-2.634l1.946,15.852l-5.15,0.633
		l-1.208-9.844l-3.219,0.395l0.388,3.159c0.134,1.097,0.161,2.259,0.083,3.488c-0.082,1.229-0.534,2.43-1.359,3.608
		c-0.824,1.179-2.199,1.886-4.126,2.122c-2.833,0.348-4.765-0.352-5.792-2.099c-1.027-1.748-1.659-3.585-1.896-5.512
		L334.937,172.642L334.937,172.642z M339.966,178.124l0.315,2.576c0.121,0.984,0.385,1.709,0.795,2.175
		c0.408,0.466,1.024,0.65,1.847,0.55c0.801-0.1,1.342-0.419,1.627-0.96c0.282-0.542,0.362-1.315,0.237-2.319l-0.315-2.576
		L339.966,178.124L339.966,178.124z"/>
	<path fill-rule="evenodd" clip-rule="evenodd" fill="#0066B3" d="M64.945,237.603c-0.305,4.407-1.739,8.008-3.449,11.598
		c-4.233,0.725-8.145,0.827-12.204,0.434c-1.536-3.314-2.739-7.32-3.723-11.116c2.881-2.856,6.121-5.273,9.463-7.153
		C58.491,233.013,62.182,234.943,64.945,237.603L64.945,237.603z"/>
	<path fill-rule="evenodd" clip-rule="evenodd" fill="#0066B3" d="M350.945,237.603c-0.303,4.407-1.736,8.008-3.447,11.598
		c-4.233,0.725-8.144,0.827-12.204,0.434c-1.535-3.314-2.739-7.32-3.722-11.116c2.881-2.856,6.121-5.273,9.463-7.153
		C344.493,233.013,348.183,234.943,350.945,237.603L350.945,237.603z"/>
	<path fill-rule="evenodd" clip-rule="evenodd" fill="#0066B3" d="M194.879,312.76c-0.981-1.522-2.253-3.052-4.8-4.85
		c-5.214-3.686-15.653-8.434-39.393-16.228c-48.842-15.998-40.468-56.711-38.782-63.335c1.641-6.563,4.91-26.833,4.91-31.367
		c0-39.74-5.559-45.215-10.948-58.746c19.86-30.712,54.659-45.604,93.736-45.604c53.246,0,86.405,33.279,93.756,46.459
		c-6.915,16.72-11.415,14.823-11.415,57.891c0,4.53,3.271,24.817,4.911,31.381c1.553,6.567,10.189,47.68-38.798,63.324
		c-19.835,6.297-30.828,11.467-37.274,15.76c-3.21,2.139-5.279,4.048-6.748,5.765c-1.473,1.714-2.378,3.271-3.26,4.801l-1.188,2.061
		l-1.398-1.923C196.753,316.172,195.979,314.462,194.879,312.76L194.879,312.76z"/>
	<path fill-rule="evenodd" clip-rule="evenodd" fill="#FFFFFF" d="M119.666,230.306c1.698-6.787,5.154-27.82,5.154-33.325
		c0-31.186-4.121-48.315-9.158-58.086c19.445-26.035,49-37.486,83.94-37.486c35.031,0,65.025,12.425,84.448,38.5
		c-5.033,9.815-10.115,26.023-10.115,57.072c0,5.505,3.449,26.502,5.146,33.293c1.473,6.251,8.685,40.329-33.453,53.782
		c-27.37,8.689-39.364,15.622-45.727,21.866c-1.271-1.501-3.012-3.005-5.203-4.552c-6.327-4.47-17.87-9.533-41.517-17.296
		C110.971,270.248,118.159,236.231,119.666,230.306L119.666,230.306z"/>
	<path fill-rule="evenodd" clip-rule="evenodd" fill="#0066B3" d="M166.664,152.952c-34.566,39.323-34.598,93.086-13.01,131.278
		c-0.158-0.052-0.314-0.103-0.472-0.155c-42.211-13.826-35.023-47.844-33.515-53.769c1.01-4.035,2.642-13.106,3.799-20.955
		C131.987,188.627,146.043,169.125,166.664,152.952L166.664,152.952z"/>
	<path fill-rule="evenodd" clip-rule="evenodd" fill="#0066B3" d="M204.332,124.377c-25.114,28.492-20.785,69.267,0.076,92.344
		c20.907,22.692,36.321,31.849,71.812,44.018c-4.529,9.01-13.5,17.862-30.592,23.318c-3.517,1.117-6.778,2.202-9.808,3.263
		c-42.435-28.568-54.239-53.738-54.319-53.888C164.306,201.607,166.5,153.97,204.332,124.377L204.332,124.377z"/>
	<path fill-rule="evenodd" clip-rule="evenodd" fill="#FFF200" d="M186.438,136.598c-27.203,32.581-26.856,79.119-6.83,108.179
		c4.667,6.776,25.144,32.191,48.237,45.477c-15.229,5.911-23.171,10.984-27.945,15.668c-1.271-1.501-3.012-3.005-5.203-4.552
		c-4.779-3.376-12.535-7.092-26.235-12.053c-5.312-7.004-10.182-14.528-13.174-21.744
		C137.467,228.628,143.562,172.027,186.438,136.598L186.438,136.598z"/>
	<path fill-rule="evenodd" clip-rule="evenodd" fill="#0066B3" d="M197.898,159.931c-3.504-20.06,10.041-39.237,30.252-42.835
		c20.211-3.598,39.435,9.747,42.939,29.808c3.503,20.059-10.041,39.237-30.252,42.834
		C220.624,193.337,201.401,179.992,197.898,159.931L197.898,159.931z"/>
	<path fill-rule="evenodd" clip-rule="evenodd" fill="#FFFFFF" d="M229.282,121.511c17.691-3.15,34.442,8.527,37.491,25.993
		c3.052,17.479-8.754,34.259-26.455,37.411c-17.689,3.149-34.443-8.528-37.491-25.994
		C199.777,141.443,211.58,124.662,229.282,121.511L229.282,121.511z"/>
	<path fill-rule="evenodd" clip-rule="evenodd" fill="#0066B3" d="M262.034,135.813c-2.157-1.683-4.18-2.334-6.537-2.97
		c0.678,4.526-0.08,8.65-0.882,12.591c3.101,1.989,5.733,4.872,7.678,8.762c1.387-2.461,2.811-4.765,4.042-7.599
		c0.041-0.827-0.019-1.691-0.161-2.559l-0.058-0.336C265.546,140.643,263.993,137.631,262.034,135.813L262.034,135.813z
		 M210.506,147.251c-3.149,2.466-4.765,5.513-6.257,9.386c-1.836-1.584-3.041-4.395-4.124-6.661
		c0.113-4.93,1.738-9.566,4.958-13.146c1.486-1.003,3.492-1.297,5.634-1.688C209.943,139.289,209.94,143.37,210.506,147.251
		L210.506,147.251z M228.276,180.804c-2.784-2.337-5.092-6.042-7.323-9.735c-3.867,0.033-7.147,0.108-11.347-2.131
		c-0.236,2.547,0.268,5.17,1.254,7.201c3.121,3.425,6.708,5.463,10.724,6.031C223.886,182.106,226.152,181.629,228.276,180.804
		L228.276,180.804z M258.349,167.697c-3.596,1.844-7.486,3.221-11.513,3.756c-1.875,4.407-4.871,7.701-7.931,9.158
		c2.625,0.844,5.167,1.528,7.983,1.883c4.991-1.482,9.025-3.978,12.422-8.601C259.22,171.851,258.967,169.71,258.349,167.697
		L258.349,167.697z M244.567,149.221c-0.365,5.276-2.083,9.591-4.131,13.891c-5.073,0.868-9.757,0.993-14.622,0.521
		c-1.839-3.972-3.281-8.77-4.459-13.316c3.452-3.421,7.333-6.318,11.335-8.571C236.835,143.722,241.257,146.031,244.567,149.221
		L244.567,149.221z"/>
	<path fill-rule="evenodd" clip-rule="evenodd" fill="#0066B3" d="M233.059,130.586c3.712-2.339,7.299-4.062,10.756-5.168
		l-2.529-4.112c-6.972-1.083-12.505-0.277-16.7,1.02c-1.435,1.039-2.794,2.598-4.078,4.674
		C224.605,126.758,228.788,127.953,233.059,130.586L233.059,130.586z"/>
</g>
</svg>
