<?xml version="1.0" encoding="utf-8"?>
<!-- Generator: Adobe Illustrator 19.1.0, SVG Export Plug-In . SVG Version: 6.00 Build 0)  -->
<svg version="1.1" id="Layer_1" xmlns="http://www.w3.org/2000/svg" xmlns:xlink="http://www.w3.org/1999/xlink" x="0px" y="0px"
	 viewBox="0 0 400 400" enable-background="new 0 0 400 400" xml:space="preserve">
<g>
	<path fill="#F9C27A" d="M99.901,11.555c0,0,47.62,26.753,101.126,26.218c59.449-0.595,96.845-27.288,96.845-27.288l62.066,55.646
		c0,0-21.522,36.892-19.797,67.952c2.141,38.524,30.498,86.679,30.498,127.343c0,25.199-2.516,50.188-86.144,77.583
		c-62.066,20.332-85.074,53.506-85.074,53.506s-19.195-32.907-76.512-50.295c-95.241-28.893-93.635-60.462-94.705-80.794
		c-1.998-37.952,31.033-89.354,30.498-129.483c-0.422-31.638-20.333-64.207-20.333-64.207L99.901,11.555L99.901,11.555z"/>
	<path fill="#FFFFFF" d="M100.436,21.721c0,0,51.269,25.308,101.564,24.805c55.882-0.559,95.335-26.411,95.335-26.411l52.971,49.225
		c0,0-18.727,33.174-17.122,70.093c1.535,35.317,28.358,72.767,29.963,121.458c0.781,23.675-3.745,48.69-81.328,70.627
		c-61.25,17.319-82.399,49.76-82.399,49.76s-17.098-30.791-75.978-47.085c-85.074-23.542-89.752-59.085-87.748-78.118
		c5.35-50.831,29.963-80.794,29.502-124.047c-0.337-31.685-17.196-61.438-17.196-61.438L100.436,21.721L100.436,21.721z"/>
	<path fill="#6D676A" d="M100.793,27.072c0,0,52.879,24.032,101.665,23.545c54.206-0.542,94.522-24.258,94.522-24.258l47.441,44.052
		c0,0-19.529,30.265-16.587,69.557c3.423,45.692,28.438,74.995,29.963,117.712c0.82,22.962-5.351,48.155-79.723,70.093
		c-59.22,17.468-78.653,45.479-78.653,45.479s-16.05-27.793-73.164-43.598c-82.521-22.836-86.283-52.711-84.597-72.141
		c4.577-52.763,30.062-79.026,29.348-126.64c-0.461-30.732-17.122-59.391-17.122-59.391L100.793,27.072L100.793,27.072z"/>
	<path fill="#F9C27A" d="M114.347,320.817H282.89c0,0-19.337,4.126-53.238,20.867c-21.669,10.701-30.23,25.148-30.23,25.148
		s-7.669-15.873-29.963-25.95C130.584,323.311,114.347,320.817,114.347,320.817L114.347,320.817z"/>
	<path fill="#F9C27A" d="M83.314,307.976l232.748-0.267c0,0-1.595,0.803-11.425,5.083c-11.368,4.95-13.55,4.994-13.55,4.994
		l-182.444,0.357c0,0-7.529-1.605-14.968-4.815C86.236,310.116,83.314,307.976,83.314,307.976L83.314,307.976z"/>
	<path fill="#F9C27A" d="M62.625,295.314l273.235,0.356c0,0-0.735,1.536-5.308,4.995c-2.831,2.14-6.018,2.853-6.018,2.853H75.721
		c0,0-4.248-1.07-7.787-3.923C63.715,296.193,62.625,295.314,62.625,295.314L62.625,295.314z"/>
	<path fill="#F9C27A" d="M51.389,284.256l295.975,0.177c0,0-0.696,1.436-2.794,3.344c-2.794,2.542-4.39,2.943-4.39,2.943
		l-282.581-0.134c0,0-1.863-0.401-3.992-2.943C51.958,285.676,51.389,284.256,51.389,284.256L51.389,284.256z"/>
	<path fill="#F9C27A" d="M352.58,271.86c0,0,0.231,1.664-0.401,3.478c-1.07,3.077-2.408,3.611-2.408,3.611l-301.637-0.401
		c0,0-1.204-0.401-2.14-3.611c-0.707-2.423-0.134-3.165-0.134-3.165L352.58,271.86L352.58,271.86z"/>
	<path fill="#F9C27A" d="M353.918,259.42c0,0,0.525,0.67,0.669,2.541c0.134,1.739-0.401,2.408-0.401,2.408L43.987,264.77
		c0,0-0.535-1.07-0.535-2.14c0-2.282,0.129-2.162,0.267-2.614L353.918,259.42L353.918,259.42z"/>
	<path fill="#F9C27A" d="M353.16,247.782c0,0,0.446,0.714,0.715,1.962c0.359,1.678,0.178,2.051,0.178,2.051l-309.708,0.802
		c0,0,0.179-0.802,0.625-2.497c0.266-1.009,0.713-1.784,0.713-1.784L353.16,247.782L353.16,247.782z"/>
	<path fill="#F9C27A" d="M351.736,236.242c0,0,0.424,0.404,0.71,1.33c0.18,0.579,0.001,1.203,0.001,1.203L47.02,239.221
		c0,0-0.041-0.309,0.269-1.338c0.269-0.891,0.36-1.243,0.36-1.243L351.736,236.242L351.736,236.242z"/>
	<path fill="#F9C27A" d="M348.434,225.221c0,0,0.372,0.139,0.535,0.98c0.089,0.458,0,0.803,0,0.803L49.695,227.45
		c0,0,0-0.267,0.084-0.961c0.094-0.775,0.451-1.001,0.451-1.001L348.434,225.221L348.434,225.221z"/>
	<path fill="#F9C27A" d="M344.857,212.112c0,0,0.286-0.055,0.629,0.624c0.269,0.535,0.808,0.535,0.808,0.535l-292.047,0.535
		c0,0-0.629-0.356-0.539-0.624c0.206-0.614,0.629-0.803,0.629-0.803L344.857,212.112L344.857,212.112z"/>
	<path fill="#FFFFFF" d="M249.007,248.176c15.794,27.191,6.499,62.25-20.694,78.044c-27.191,15.793-62.249,6.498-78.042-20.694
		c-15.795-27.191-6.499-62.249,20.692-78.043C198.154,211.689,233.213,220.985,249.007,248.176L249.007,248.176L249.007,248.176z"/>
	<path d="M248.663,248.382l-0.001-0.002h-0.001l-0.004-0.007l-0.002-0.003c-7.841-13.495-20.463-22.551-34.499-26.273
		c-14.037-3.722-29.489-2.11-42.988,5.729l-0.003,0.001l0.001,0.001l-0.007,0.004l-0.003,0.002
		c-13.497,7.841-22.551,20.463-26.273,34.499c-3.722,14.037-2.109,29.488,5.73,42.987l0.001,0.003v-0.001l0.004,0.007l0.001,0.003
		c7.841,13.496,20.463,22.551,34.499,26.273c14.036,3.722,29.488,2.11,42.987-5.729l0.003-0.001h-0.001l0.007-0.004l0.003-0.002
		c13.497-7.842,22.553-20.464,26.274-34.5C258.115,277.333,256.502,261.881,248.663,248.382L248.663,248.382z M249.356,247.981
		c7.95,13.689,9.585,29.359,5.811,43.593c-3.774,14.233-12.958,27.034-26.643,34.986v0.001l-0.007,0.004l-0.009,0.004l0.001,0.001
		c-13.689,7.949-29.358,9.585-43.593,5.811c-14.234-3.774-27.034-12.958-34.986-26.643h-0.001l-0.004-0.007l-0.004-0.009l0,0
		c-7.95-13.689-9.586-29.358-5.812-43.593c3.774-14.234,12.957-27.033,26.643-34.987l0,0l0.007-0.004l0.009-0.004v-0.001
		c13.689-7.949,29.359-9.585,43.593-5.811c14.234,3.774,27.034,12.957,34.986,26.642l0,0l0.004,0.007L249.356,247.981
		L249.356,247.981L249.356,247.981z"/>
	<path d="M188.014,261.674l-0.004-0.003v-0.002c-1.648-1.656-3.313-3.395-4.944-5.096c-3.669-3.83-7.167-7.482-9.697-9.405
		l0.482-0.637c2.59,1.969,6.104,5.637,9.792,9.487c1.638,1.711,3.312,3.457,4.934,5.087l0.001-0.001l0.003,0.004L188.014,261.674
		L188.014,261.674z"/>
	<path d="M202.988,297.469l0.006,0.065c0.807,8.404,0.173,15.88-0.205,20.344c-0.068,0.809-0.129,1.522-0.168,2.073l-0.799-0.053
		c0.044-0.628,0.102-1.311,0.168-2.086c0.376-4.443,1.007-11.882,0.208-20.203l-0.006-0.065L202.988,297.469L202.988,297.469z"/>
	<path d="M210.412,228.753l-0.024-0.002c-0.958-0.075-2.096-0.129-3.356-0.158c-1.277-0.03-2.691-0.036-4.185-0.015
		c-7.671,0.105-17.508,0.912-22.185,2.828l-0.304-0.741c4.78-1.958,14.733-2.78,22.479-2.887c1.507-0.02,2.93-0.014,4.213,0.015
		c1.3,0.031,2.451,0.084,3.398,0.158l0.023,0.002L210.412,228.753L210.412,228.753z"/>
	<path d="M224.364,243.127l-0.004,0.004l0.001,0.001c-0.901,0.754-1.755,1.546-2.564,2.364c-0.81,0.82-1.58,1.672-2.309,2.544
		c-3.741,4.476-6.353,9.445-7.889,13.474l-0.749-0.285c1.561-4.098,4.218-9.151,8.023-13.704c0.739-0.883,1.523-1.751,2.354-2.59
		c0.831-0.841,1.705-1.651,2.62-2.417h0.002l0.006-0.005L224.364,243.127L224.364,243.127z"/>
	<polygon points="241.82,248.635 250.37,269.045 249.63,269.352 241.08,248.942 241.82,248.635 	"/>
	<polygon points="237.792,287.102 217.587,283.707 217.718,282.917 237.923,286.312 237.792,287.102 	"/>
	<path d="M241.373,304.596c-0.958,1.078-1.822,2.277-2.756,3.573c-3.21,4.457-7.244,10.056-18.506,15.836l-0.363-0.712
		c11.087-5.69,15.058-11.204,18.219-15.592c0.953-1.322,1.834-2.546,2.806-3.639L241.373,304.596L241.373,304.596z"/>
	<path d="M161.985,313.358l0.005,0.004l-0.001,0.001c0.983,0.639,1.995,1.318,3.045,2.023c6.329,4.25,14.153,9.503,23.897,11.446
		l-0.157,0.787c-9.897-1.974-17.796-7.277-24.186-11.568c-1.057-0.71-2.075-1.394-3.039-2.02l-0.005-0.002l-0.006-0.003
		L161.985,313.358L161.985,313.358z"/>
	<polygon points="183.465,283.786 161.179,293.257 160.864,292.521 183.151,283.05 183.465,283.786 	"/>
	<path d="M155.864,251.155l-0.006,0.007l-0.003,0.004c-0.518,0.733-1.072,1.662-1.637,2.742c-0.568,1.085-1.146,2.32-1.712,3.658
		c-2.907,6.882-5.47,16.498-4.579,22.714l-0.793,0.113c-0.913-6.369,1.686-16.152,4.635-23.137c0.574-1.359,1.162-2.614,1.739-3.717
		c0.579-1.107,1.151-2.065,1.691-2.83v-0.001l0.006-0.008L155.864,251.155L155.864,251.155z"/>
	<path fill="#6D676A" d="M142.873,282.825c2.215-2.115,4.22-4.146,4.492-4.679c4.754,5.464,9.561,10.251,14.423,14.364
		c-1.03,6.069-1.145,11.545,1.592,22.248l0,0l-7.052-0.705l0,0c-2.239-2.608-4.272-5.45-6.058-8.526
		C146.095,298.342,143.677,290.608,142.873,282.825L142.873,282.825L142.873,282.825z M256.703,276.572
		c0.022,8.222-1.73,16.364-5.098,23.829l0,0l-12.308,6.028l0,0c2.279-9.314,1.447-16.367-3.929-20.106
		c6.624-3.847,9.726-12.03,13.955-18.548l0,0L256.703,276.572L256.703,276.572L256.703,276.572z M216.064,331.527
		c-9.408,2.824-19.236,3.096-28.539,1.07c-1.118-1.979-2.224-3.961-3.815-6.719l0,0l18.727-7.982l0,0
		c5.646,2.077,14.264,4.944,20.631,4.602C222.464,323.072,218.967,327.525,216.064,331.527L216.064,331.527L216.064,331.527z
		 M152.283,244.995c4.637-6.927,10.862-12.935,18.513-17.413c4.399,1.206,12.285,2.791,12.984,2.383
		c-0.984,2.258-9.647,12.752-8.662,18.177c-7.361-0.283-16.539,2.941-20.862,4.853C153.528,249.4,152.917,247.081,152.283,244.995
		L152.283,244.995L152.283,244.995z M218.023,222.85c9.102,3.09,17.459,8.466,24.108,15.869c-0.999,3.504-0.874,7.926,0.536,12.883
		c-2.764-1.972-14.374-7.41-20.024-7.169c-2.295-3.949-9.562-13.534-13.574-16.08C210.981,226.48,214.657,224.554,218.023,222.85
		L218.023,222.85L218.023,222.85z M212.279,259.641l9.366,24.186l-18.838,15.183l-21.704-14.669l6.478-23.57L212.279,259.641
		L212.279,259.641L212.279,259.641z"/>
	<path fill="#FFFFFF" d="M99.407,86.519v1.739h-4.414v-1.739c-3.558-0.087-6.069-0.67-7.534-1.747
		c-1.465-1.077-2.197-2.425-2.197-4.043c0-1.706,0.765-3.073,2.296-4.104c1.531-1.03,4.009-1.589,7.435-1.677v-1.471h4.414v1.471
		c3.537,0.088,6.044,0.665,7.519,1.732c1.474,1.068,2.212,2.42,2.212,4.058c0,1.625-0.735,2.973-2.205,4.043
		C105.463,85.853,102.955,86.432,99.407,86.519L99.407,86.519z M94.993,84.011v-6.555c-1.901,0-3.274,0.278-4.118,0.836
		c-0.844,0.557-1.266,1.399-1.266,2.527C89.609,82.947,91.403,84.011,94.993,84.011L94.993,84.011z M99.407,84.011
		c1.179,0,2.194-0.131,3.043-0.391c0.849-0.26,1.452-0.61,1.807-1.051c0.356-0.44,0.534-1.084,0.534-1.931
		c0-2.121-1.795-3.183-5.384-3.183V84.011L99.407,84.011z"/>
	<path fill="#FFFFFF" d="M109.244,73.477h5.035l5.216,7.658l4.451-7.658h4.694l-7.54,11.221c-0.822,1.215-1.659,2.141-2.511,2.775
		c-0.852,0.634-1.952,0.951-3.301,0.951c-1.329,0-2.368-0.057-3.119-0.171v-2.211c0.638,0.027,1.215,0.041,1.73,0.041
		c1.042,0,1.789-0.127,2.239-0.381c0.45-0.254,0.884-0.803,1.298-1.645L109.244,73.477L109.244,73.477z"/>
	<polygon fill="#FFFFFF" points="135.943,88.258 135.943,75.985 129.322,75.985 129.322,73.477 146.979,73.477 146.979,75.985 
		140.425,75.985 140.425,88.258 135.943,88.258 	"/>
	<path fill="#FFFFFF" d="M149.954,73.477h16.62v2.508h-12.139v3.411h6.016c1.661,0,3.037,0.134,4.131,0.403
		c1.094,0.269,2.028,0.765,2.803,1.491c0.775,0.725,1.162,1.574,1.162,2.547c0,1.001-0.39,1.857-1.17,2.568
		c-0.779,0.712-1.666,1.198-2.663,1.46c-0.998,0.262-2.416,0.393-4.258,0.393h-10.503V73.477L149.954,73.477z M154.435,85.75h4.374
		c1.397,0,2.379-0.044,2.946-0.134c0.567-0.089,1.06-0.292,1.481-0.609c0.42-0.317,0.63-0.707,0.63-1.17
		c0-0.674-0.367-1.165-1.101-1.472c-0.734-0.307-1.987-0.46-3.759-0.46h-4.571V85.75L154.435,85.75z"/>
	<path fill="#FFFFFF" d="M171.298,80.959c0-1.509,0.34-2.775,1.018-3.799c0.507-0.755,1.198-1.431,2.074-2.031
		c0.876-0.599,1.836-1.044,2.879-1.334c1.388-0.39,2.987-0.585,4.801-0.585c3.281,0,5.907,0.677,7.877,2.031
		c1.97,1.354,2.955,3.236,2.955,5.647c0,2.391-0.978,4.262-2.932,5.612c-1.955,1.351-4.568,2.025-7.839,2.025
		c-3.311,0-5.945-0.672-7.9-2.015C172.275,85.167,171.298,83.316,171.298,80.959L171.298,80.959z M175.947,80.858
		c0,1.682,0.582,2.957,1.744,3.825c1.163,0.868,2.64,1.301,4.432,1.301c1.79,0,3.26-0.43,4.408-1.291
		c1.148-0.861,1.722-2.153,1.722-3.875c0-1.702-0.559-2.972-1.677-3.809c-1.118-0.838-2.603-1.257-4.454-1.257
		c-1.852,0-3.344,0.425-4.477,1.272C176.513,77.87,175.947,79.149,175.947,80.858L175.947,80.858z"/>
	<path fill="#FFFFFF" d="M197.236,73.477h15.598v14.781h-4.481V75.985h-6.722v6.312c0,1.809-0.091,3.071-0.273,3.786
		c-0.182,0.716-0.624,1.274-1.326,1.674c-0.702,0.401-1.8,0.6-3.295,0.6c-0.526,0-1.481-0.034-2.864-0.101V85.95l0.999,0.011
		c0.939,0,1.57-0.084,1.894-0.253c0.322-0.168,0.484-0.582,0.484-1.242l-0.015-2.543V73.477L197.236,73.477z"/>
	<path fill="#FFFFFF" d="M217.529,73.477h4.481v5.919h6.013c2.835,0,4.888,0.44,6.159,1.319c1.271,0.879,1.906,1.934,1.906,3.162
		c0,1.007-0.384,1.864-1.153,2.568c-0.769,0.706-1.646,1.184-2.632,1.436c-0.986,0.251-2.411,0.377-4.272,0.377h-10.502V73.477
		L217.529,73.477z M222.01,85.75h4.372c1.417,0,2.399-0.044,2.947-0.134c0.547-0.089,1.035-0.292,1.466-0.609
		c0.43-0.317,0.645-0.707,0.645-1.17c0-0.667-0.367-1.157-1.1-1.466c-0.734-0.311-1.987-0.466-3.759-0.466h-4.57V85.75L222.01,85.75
		z"/>
	<polygon fill="#FFFFFF" points="239.81,88.258 239.81,73.477 244.29,73.477 244.29,79.296 253.152,79.296 253.152,73.477 
		257.633,73.477 257.633,88.258 253.152,88.258 253.152,81.804 244.29,81.804 244.29,88.258 239.81,88.258 	"/>
	<path fill="#FFFFFF" d="M262.364,73.477h4.481v5.919h6.014c1.579,0,2.939,0.143,4.078,0.428c1.139,0.286,2.088,0.796,2.847,1.531
		c0.76,0.735,1.139,1.58,1.139,2.532c0,1-0.395,1.861-1.184,2.583c-0.789,0.722-1.667,1.2-2.633,1.436
		c-0.967,0.235-2.38,0.352-4.242,0.352h-10.502V73.477L262.364,73.477z M266.846,85.75h4.389c1.397,0,2.371-0.044,2.923-0.134
		c0.552-0.089,1.043-0.292,1.474-0.609c0.429-0.317,0.644-0.704,0.644-1.16c0-0.647-0.352-1.133-1.055-1.457
		c-0.703-0.323-1.972-0.486-3.804-0.486h-4.571V85.75L266.846,85.75z M283.532,73.477h4.481v14.781h-4.481V73.477L283.532,73.477z"
		/>
	<path fill="#FFFFFF" d="M292.737,73.477h4.214v9.874l9.029-9.874h4.481v14.781h-4.213v-9.689l-8.996,9.689h-4.515V73.477
		L292.737,73.477z M304.274,69.264h2.073c-0.121,0.896-0.604,1.6-1.449,2.11c-0.844,0.511-1.939,0.766-3.283,0.766
		c-1.346,0-2.44-0.255-3.285-0.766c-0.844-0.51-1.327-1.214-1.449-2.11h2.073c0.071,0.473,0.324,0.831,0.76,1.074
		c0.436,0.243,1.069,0.364,1.9,0.364c0.829,0,1.463-0.121,1.898-0.364C303.95,70.094,304.203,69.736,304.274,69.264L304.274,69.264z
		"/>
	<path fill="#FFFFFF" d="M159.45,92.059h4.481v6.287c1.004-0.066,1.683-0.238,2.038-0.513c0.355-0.276,0.903-1.041,1.643-2.297
		c0.933-1.599,1.872-2.593,2.815-2.982c0.934-0.39,2.439-0.585,4.52-0.585c0.101,0,0.319-0.003,0.654-0.01v2.207l-0.638-0.01
		c-0.922,0-1.596,0.075-2.021,0.227c-0.425,0.15-0.77,0.38-1.033,0.689c-0.264,0.309-0.654,0.943-1.17,1.902
		c-0.274,0.51-0.57,0.936-0.889,1.279c-0.32,0.342-0.884,0.664-1.694,0.966c1.004,0.188,1.832,0.568,2.486,1.139
		c0.654,0.572,1.372,1.378,2.152,2.42l3.041,4.062h-5.282l-2.688-3.817c-0.041-0.053-0.129-0.158-0.261-0.312
		c-0.051-0.053-0.239-0.286-0.563-0.7c-0.577-0.733-1.05-1.19-1.419-1.373c-0.369-0.183-0.933-0.278-1.691-0.285v6.487h-4.481
		V92.059L159.45,92.059z"/>
	<path fill="#FFFFFF" d="M179.951,92.059h15.599v14.781h-4.481V94.567h-6.722v6.313c0,1.809-0.091,3.07-0.272,3.786
		c-0.182,0.716-0.624,1.274-1.327,1.674c-0.702,0.4-1.8,0.6-3.295,0.6c-0.526,0-1.48-0.033-2.864-0.101v-2.307l0.999,0.011
		c0.939,0,1.571-0.084,1.893-0.252c0.323-0.168,0.485-0.582,0.485-1.242l-0.015-2.544V92.059L179.951,92.059z"/>
	<path fill="#FFFFFF" d="M197.87,92.059h5.036l5.215,7.658l4.45-7.658h4.695l-7.54,11.222c-0.821,1.215-1.658,2.14-2.51,2.775
		c-0.852,0.635-1.953,0.952-3.301,0.952c-1.329,0-2.368-0.057-3.119-0.171v-2.211c0.638,0.027,1.215,0.041,1.731,0.041
		c1.042,0,1.788-0.127,2.239-0.381c0.45-0.254,0.883-0.803,1.298-1.644L197.87,92.059L197.87,92.059z"/>
	<path fill="#FFFFFF" d="M219.586,92.059h16.62v2.508h-12.139v3.411h6.015c1.661,0,3.038,0.135,4.132,0.404
		c1.093,0.269,2.027,0.765,2.803,1.491c0.775,0.725,1.162,1.575,1.162,2.547c0,1-0.39,1.857-1.169,2.568
		c-0.778,0.711-1.667,1.198-2.664,1.46c-0.997,0.261-2.416,0.392-4.258,0.392h-10.502V92.059L219.586,92.059z M224.067,104.332
		h4.374c1.397,0,2.378-0.044,2.946-0.134c0.566-0.089,1.06-0.291,1.481-0.609c0.42-0.317,0.63-0.706,0.63-1.169
		c0-0.674-0.368-1.165-1.102-1.472c-0.733-0.307-1.987-0.461-3.757-0.461h-4.571V104.332L224.067,104.332z"/>
	<path fill="#FFFFFF" d="M136.463,184.557l-6.242,0.178c0,0-2.14,9.988-9.453,27.288c-5.464,12.927-8.62,17.204-12.662,19.084
		c-7.67,3.567-21.224,1.783-21.224,1.783l-0.178-18.013c0,0,2.318,2.853,11.414,3.032c2.681,0.052,2.282-3.091,1.248-4.816
		c-1.07-1.784-11.949-23.542-15.16-28.714h-5.35l-0.036-12.77l28.393-0.606l-0.178,13.02l-4.459,0.179
		c0,0.244,9.81,13.733,9.81,13.733l4.994-13.376l-4.816-0.001l-0.356-13.376l24.256,0.178V184.557L136.463,184.557z
		 M312.318,172.072H280.75l0.535-12.841c0,0,3.796,0.123,4.281,0v-34.244h-6.421c-1.338,6.689-1.606,29.963-1.606,29.963
		c-1.605,23.007-25.682,18.192-25.682,18.192l-0.267-18.192c0,0,6.852-0.083,10.969-2.141c2.14-1.07,0.535-21.67,1.07-28.892h-9.363
		l0.268-14.982l56.6,0.437l1.186,16.685c0,0,0,0-5.886,0l-0.535,32.638h6.688L312.318,172.072L312.318,172.072z M254.264,193.742
		l-26.841,0.089l-0.357-11.415l4.638-0.179v-4.458l-18.638,0.178l-0.089,4.103l4.459,0.356l-0.089,11.593h-23.81V182.06h4.637
		l10.612-36.741l-6.688,0.267c0,0,1.07-7.759,1.338-12.574l32.638-0.267l12.841,48.958h5.083L254.264,193.742L254.264,193.742z
		 M223.499,148.708l-2.675,0.178l-3.746,16.409h10.345L223.499,148.708L223.499,148.708z M189.433,174.747
		c0.624,11.219-4.815,14.803-11.771,18.371c-2.918,1.495-6.599,1.961-17.122,2.14v-14.626c0,0,8.204,1.428,8.204-6.421
		c0-8.49-8.382-6.421-8.382-6.421l0.357,35.136h6.064l-0.178,11.414l-30.32,0.357l0.179-11.593l5.707-0.178l-0.178-35.314h-5.886
		l0.178-11.771c0,0,30.792-1.572,40.664,1.248C181.943,158.517,188.899,165.117,189.433,174.747L189.433,174.747z"/>
	<path fill="#F9C27A" d="M312.318,173.671H280.75h-1.669l0.07-1.662l0.535-12.841l0.066-1.58l1.577,0.044
		c0.006,0,1.504,0.046,2.631,0.061v-31.1h-3.459c-1.128,7.853-1.363,28.315-1.364,28.376v0.088
		c-1.731,24.829-27.502,19.673-27.576,19.659l-1.285-0.242l-0.019-1.313l-0.267-18.192l-0.023-1.593l1.603-0.025
		c0.019,0,6.469-0.078,10.256-1.963c0.486-0.268,0.327-8.458,0.181-16.037c-0.071-3.677-0.141-7.221-0.063-9.829h-7.681h-1.628
		l0.03-1.63l0.267-14.982l0.028-1.586l1.577,0.012l56.6,0.437l1.487,0.011l0.105,1.474l1.186,16.685l0.121,1.712h-1.72h-4.313
		l-0.482,29.434h5.062h1.632l-0.033,1.637l-0.267,13.377l-0.031,1.568H312.318L312.318,173.671z M136.507,186.156l-5.012,0.143
		c-0.799,3.175-3.363,12.409-9.254,26.345c-2.773,6.562-4.976,10.95-7.015,13.961c-2.163,3.195-4.17,4.897-6.45,5.957
		c-8.084,3.759-22.062,1.919-22.102,1.914l-1.378-0.182l-0.014-1.392l-0.178-18.013l-0.044-4.41l2.859,3.357
		c0.006,0.006,1.865,2.309,10.229,2.474c0.175,0.003,0.284-0.014,0.336-0.045c0.009-0.005-0.007-0.003-0.001-0.017
		c0.045-0.1,0.067-0.238,0.07-0.396c0.012-0.635-0.229-1.382-0.561-1.937l-0.002-0.003c-0.385-0.643-1.936-3.665-3.94-7.569
		c-3.502-6.821-8.41-16.38-10.749-20.36h-4.446h-1.595l-0.004-1.605l-0.036-12.77l-0.004-1.565l1.572-0.034l28.393-0.606
		l1.653-0.035l-0.022,1.653l-0.178,13.019l-0.021,1.52l-1.515,0.061l-1.894,0.076c1.603,2.206,4.725,6.344,6.701,8.952l3.171-8.493
		h-2.512h-1.557l-0.041-1.561l-0.357-13.376l-0.044-1.648l1.65,0.012l24.256,0.179l1.599,0.012v1.587v13.199v1.555L136.507,186.156
		L136.507,186.156z M130.177,183.136l4.681-0.133v-10.057l-21.008-0.154l0.271,10.166h3.258l2.303,0.001l-0.805,2.157l-4.993,13.375
		l-1.043,2.796l-1.753-2.413c-0.029-0.04-10.117-13.882-10.117-14.673v-1.537l1.542-0.062l2.944-0.118l0.134-9.847l-25.168,0.537
		l0.026,9.6h3.756h0.889l0.471,0.759c2.113,3.404,7.537,13.969,11.33,21.356c1.962,3.821,3.481,6.779,3.84,7.38l0.002,0.003
		c0.602,1.004,1.037,2.399,1.013,3.631c-0.011,0.589-0.119,1.157-0.346,1.662c-0.266,0.59-0.682,1.089-1.279,1.447
		c-0.548,0.329-1.224,0.512-2.041,0.496c-4.725-0.092-7.817-0.925-9.755-1.764l0.136,13.708c3.549,0.334,13.133,0.914,18.968-1.799
		c1.763-0.82,3.356-2.197,5.146-4.841c1.915-2.829,4.023-7.043,6.714-13.409c7.244-17.139,9.353-26.977,9.359-27.005l0.267-1.224
		L130.177,183.136L130.177,183.136z M191.032,174.66c0.336,6.048-1,10.087-3.382,13.126c-2.345,2.992-5.609,4.883-9.261,6.755
		c-1.634,0.839-3.443,1.383-6.242,1.733c-2.337,0.293-5.455,0.455-9.892,0.551l0.046,4.497h4.481h1.624l-0.025,1.624l-0.178,11.415
		l-0.024,1.561l-1.556,0.019l-30.32,0.357l-1.643,0.019l0.025-1.637l0.179-11.593l0.023-1.532l1.532-0.048l4.144-0.129
		l-0.162-32.164h-4.295h-1.624l0.025-1.617l0.178-11.771l0.023-1.504l1.495-0.077c0.089-0.004,31.066-1.585,41.185,1.305
		l0.017,0.005c0.8,0.23,1.642,0.575,2.498,1.027c0.832,0.44,1.677,0.982,2.507,1.619
		C186.624,161.428,190.618,167.203,191.032,174.66L191.032,174.66z M185.13,185.818c1.921-2.45,2.992-5.813,2.705-10.983
		c-0.355-6.39-3.769-11.331-7.369-14.091c-0.69-0.529-1.383-0.974-2.056-1.33c-0.65-0.343-1.285-0.604-1.884-0.776l-0.017-0.005
		c-8.361-2.388-32.413-1.53-38.649-1.26l-0.131,8.642h4.263h1.59l0.008,1.593l0.179,35.313l0.007,1.556l-1.563,0.049l-4.175,0.13
		l-0.13,8.424l27.121-0.319l0.128-8.228h-4.439h-1.583l-0.016-1.593l-0.062-6.057l-0.123,0.002v-1.627v-10.484l-0.173-16.971
		l-0.013-1.268l1.242-0.299c0.03-0.007,10.358-2.557,10.358,7.975c0,7.08-5.292,8.1-8.204,8.125v3.667l0.077,7.623
		c4.249-0.093,7.254-0.251,9.536-0.537c2.402-0.301,3.894-0.738,5.176-1.394C180.239,190,183.172,188.315,185.13,185.818
		L185.13,185.818z M162.076,179.134c1.85-0.027,5.063-0.684,5.063-4.922c0-4.633-3.301-5.121-5.164-5.028L162.076,179.134
		L162.076,179.134z M254.264,195.341l-26.841,0.089l-1.55,0.005l-0.049-1.554l-0.357-11.414l-0.049-1.587l1.592-0.062l3.089-0.119
		v-1.305l-15.468,0.147l-0.023,1.04l2.953,0.237l1.485,0.119l-0.011,1.486l-0.089,11.593l-0.013,1.599h-1.586h-23.81h-1.605v-1.606
		V182.06v-1.606h1.605h3.436l9.66-33.448l-4.473,0.179l-1.905,0.076l0.255-1.889c0.003-0.022,1.061-7.69,1.325-12.449l0.083-1.499
		l1.503-0.012l32.639-0.268l1.243-0.01l0.317,1.208l12.526,47.754h3.85h1.564l0.035,1.574l0.267,12.039l0.036,1.626L254.264,195.341
		L254.264,195.341z M228.973,192.227l23.656-0.079l-0.197-8.84h-3.519h-1.233l-0.316-1.204l-12.524-47.749l-29.909,0.245
		c-0.245,3.192-0.712,7.058-1.001,9.312l4.791-0.192l2.215-0.089l-0.616,2.133l-10.612,36.741l-0.335,1.16h-1.201h-3.032v8.739
		h20.618l0.065-8.508l-2.974-0.238l-1.507-0.12l0.033-1.51l0.089-4.103l0.034-1.553l1.553-0.015l18.638-0.178l1.617-0.015v1.614
		v4.458v1.54l-1.549,0.059l-3.045,0.118L228.973,192.227L228.973,192.227z M222.251,150.397l-0.133,0.009l-3.032,13.283h6.31
		L222.251,150.397L222.251,150.397z M220.717,147.288l2.675-0.178l1.354-0.091l0.314,1.325l3.924,16.587l0.466,1.969h-2.027h-10.345
		h-2.008l0.447-1.957l3.745-16.408l0.267-1.168L220.717,147.288L220.717,147.288z M282.418,170.473h28.332l0.203-10.173h-5.056
		h-1.625l0.027-1.63l0.535-32.638l0.026-1.574h1.573h4.165l-0.959-13.499l-53.535-0.413l-0.21,11.765h7.735h1.727l-0.128,1.719
		c-0.189,2.56-0.107,6.816-0.022,11.27c0.165,8.531,0.343,17.75-1.9,18.923l-0.025,0.013l-0.007,0.003
		c-3.15,1.575-7.68,2.078-10.062,2.238l0.224,15.284c4.766,0.571,21.241,1.213,22.505-16.917h0.001
		c0.019-1.548,0.315-23.595,1.63-30.17l0.258-1.292h1.315h6.421h1.605v1.605v34.244v1.247l-1.21,0.307
		c-0.415,0.105-1.937,0.104-3.142,0.084L282.418,170.473L282.418,170.473z"/>
</g>
</svg>
