<?xml version="1.0" encoding="utf-8"?>
<!-- Generator: Adobe Illustrator 19.1.0, SVG Export Plug-In . SVG Version: 6.00 Build 0)  -->
<svg version="1.1" id="Layer_1" xmlns="http://www.w3.org/2000/svg" xmlns:xlink="http://www.w3.org/1999/xlink" x="0px" y="0px"
	 viewBox="0 0 400 400" enable-background="new 0 0 400 400" xml:space="preserve">
<g>
	<polygon fill-rule="evenodd" clip-rule="evenodd" fill="#1B58A8" points="318.097,199.925 199.377,11 80.659,199.925 
		199.378,388.85 318.097,199.925 	"/>
	<path fill-rule="evenodd" clip-rule="evenodd" fill="#FFFFFF" d="M256.895,131.552c-0.349-11.551-3.047-22.551-8.48-31.288
		c-6.987-11.235-18.499-18.732-35.363-18.861c-33.681,1.317-50.471,42.801-46.962,69.584c2.704,20.639,12.938,40.194,28.049,56.227
		c-9.248,10.232-19.615,19.542-30.281,28.086l-11.26-74.888l-12.027,3.021l-22.217,15.259l1.687,16.677l11.505-7.579l10.389,63.936
		c-3.28,2.324-6.536,4.589-9.743,6.794l7.242,24.719c12.921-7.882,27.112-17.277,41.026-28.041
		c15.496,18.292,41.113,40.924,62.358,46.484l7.702-21.677c-16.76-8.698-37.227-24.748-50.281-41.332
		c4.942-4.482,9.743-9.147,14.323-13.983c17.943,12.518,39.007,20.178,65.596,22.494l0.853-27.452
		c-19.787-3.048-34.209-7.922-48.648-16.467c11.434-15.967,19.866-33.41,23.132-52.138l-29.108-0.036
		c-3.368,12.481-8.784,23.963-15.608,34.572c-8.316-9.455-14.28-20.913-16.604-34.431c-2.1-12.221,0.896-42.444,18.736-42.638
		c12.424-0.136,16.98,12.399,16.635,22.899L256.895,131.552L256.895,131.552z"/>
</g>
</svg>
