<?xml version="1.0" encoding="utf-8"?>
<!-- Generator: Adobe Illustrator 19.1.0, SVG Export Plug-In . SVG Version: 6.00 Build 0)  -->
<svg version="1.1" id="Layer_1" xmlns="http://www.w3.org/2000/svg" xmlns:xlink="http://www.w3.org/1999/xlink" x="0px" y="0px"
	 viewBox="0 0 400 400" enable-background="new 0 0 400 400" xml:space="preserve">
<g>
	<path fill="#FFFFFF" d="M162.282,17.647c0.128,0.016,44.756,5.594,52.801,5.594c7.97,0,32.954-5.534,33.025-5.55l2.636,1.461
		l44.128,125.118c4.989-0.846,17.948-2.294,22.625,4.428v0.009l0.006,0.009c3.921,5.648,5.249,16.801,6.608,28.202
		c0.308,2.587,0.618,5.186,0.865,7.064l0.003,0.023c0.787,5.979,1.971,11.447,2.917,15.82c0.622,2.876,1.144,5.284,1.411,7.24v0.018
		c0.007,0.056,2.528,19.759,2.903,24.272l0.002,0.016v0.009c0.118,1.441-0.022,2.918-0.162,4.383
		c-0.257,2.711-0.509,5.37,1.867,6.493l-0.002,0.004l0.008,0.004h0.009c1.258,0.592,2.779,0.959,4.29,1.324
		c5.172,1.247,10.264,2.474,10.706,10.44l0.055,0.968c0.531,9.258,1.447,25.238-9.146,34.319
		c-8.744,7.494-24.418,9.932-29.829,10.571c-0.607,4.81-2.985,17.099-11.602,19.366c-6.473,1.704-12.017,2.239-14.872,2.408
		c-0.666,4.222-3.472,13.225-15.292,14.492c-5.366,0.575-8.878,0.541-11.172,0.225c-0.62,3.846-3.018,12.364-12.21,15.002
		l-0.561,0.08l-18.459,0.52c-0.749,7.184-4.506,30.374-21.821,30.374c-15.617,0-19.808-19.026-20.769-25.328
		c-5.988-0.271-23.77-1.681-28.309-8.944c-3.351-5.362-5.337-8.923-6.242-10.607c-3.84-0.472-15.299-2.484-20.191-10.044
		c-3.595-5.556-5.967-8.291-7.061-9.427c-3.754,0.408-15.698,1.056-21.233-6.324c-3.728-4.972-4.554-8.894-4.571-11.361
		c-5.182-0.672-17.549-3.11-25.568-11.525c-8.499-8.92-10.534-16.096-10.983-18.302l-9.088-11.049l-0.516-1.631
		c0.006-0.068,1.838-23.744,12.267-23.13l0.023,0.001v0.001c1.124,0.065,2.368,0.099,3.669,0.078h0.009
		c1.315-0.02,2.74-0.095,4.229-0.246c7.219-0.729,15.489-3.253,18.199-10.178l0.002-0.003l0,0c0.608-1.553,2.492-5.701,5.299-11.712
		c3.046-6.525,6.691-14.232,10.668-22.575c21.716-45.557,58.223-120.706,62.071-128.053c2.501-4.774,4.692-9.102,4.602-12.641
		c-0.081-3.204-2.249-6.108-8.308-8.758c-8.193-3.585-10.452-6.398-10.459-6.406l-0.152-2.708l8.499-12.829L162.282,17.647
		L162.282,17.647z"/>
	<path fill-rule="evenodd" clip-rule="evenodd" fill="#D71920" d="M248.599,19.909c1.731,2.31,41.821,122.609,43.552,124.149
		l-0.385,0.769c-11.545,1.347-22.803,3.368-34.636,4.233c-10.873,1.347-22.034,3.368-33.482,4.234
		c-0.578,0.577-1.636,0.192-2.309,0.577c-1.251-2.597-22.995-60.518-25.978-64.848c-2.983,2.117-64.752,125.367-68.119,133.353
		c-0.866,5.484,0.962,10.968,5.002,14.24c3.945,2.886,18.858,3.559,19.435,6.157c1.059,2.886,2.886,15.203,2.886,15.203
		l-1.154,0.769c0,0-99.133,0-101.731,0.096c-1.924-2.598,3.111-15.394,3.208-19.725c5.772-4.81,11.867-1.442,20.975-4.425
		c7.087-1.829,7.89-4.619,11.738-6.928c0.77-1.924,81.975-167.509,83.899-173.571c0.674-4.522,0.192-8.948-3.464-11.931
		c-4.329-2.789-16.068-8.371-14.818-10.006c4.138-5.292,2.951-6.222,8.788-12.348c0,0,46.504,6.415,57.407,5.453
		C230.317,24.4,248.79,18.947,248.599,19.909L248.599,19.909z"/>
	<path fill-rule="evenodd" clip-rule="evenodd" fill="#00984A" d="M314.473,148.292c0.385,0.673,1.154,1.251,1.924,1.348
		c0.288,1.539,1.925,2.501,2.502,3.848c0.482,2.791,5.484,45.895,8.274,51.187c0.866,11.353,3.945,23.283,2.309,34.252
		c0.192,3.56,3.368,4.426,4.618,7.505c2.02,4.522,4.041,9.045,6.158,13.47l-0.577,0.577l-80.243-0.192c0,0,1.154-5.677,1.925-8.275
		c0.673-8.275,1.635-18.569-1.539-26.17c-1.636-5.966-4.042-11.642-7.697-16.549c-5.389-7.504-15.587-15.779-20.784-17.512
		c-5.195-1.731-12.154-5.035-19.821-5.387c-7.663-0.354-19.241,1.731-19.241,1.731l-7.986,3.047l-6.254,3.302
		c0,0-3.272,1.925-4.618,3.657c-2.502,1.539-4.234,3.848-6.544,5.773c-1.539,2.02-4.617,6.734-4.617,6.734l-4.042,6.928
		l-5.195,13.855c0,0-1.347,2.309-1.731,3.657c-2.406-1.539-7.314-0.482-7.314-4.619c-0.672-3.945,30.116-66.1,30.404-68.697
		l2.695-2.742c10.872,0,109.779-11.738,115.937-13.47c6.061,0.673,13.566-2.549,19.146,1.396L314.473,148.292L314.473,148.292z
		 M320.678,200.632c-0.866,4.329-5.821,9.333-8.322,13.277c0.481-1.058-12.989-11.738-13.855-12.316
		c2.791-1.345,11.642,4.715,13.855,4.812c2.405-1.539,4.426-3.559,6.351-5.195L320.678,200.632L320.678,200.632z M304.562,169.29
		c4.885,0,8.845-3.198,8.845-7.143c0-3.946-3.959-7.144-8.845-7.144c-4.884,0-8.844,3.198-8.844,7.144
		C295.718,166.092,299.678,169.29,304.562,169.29L304.562,169.29z M292.054,178.023l3.848-0.963l0.481,4.329h-3.367L292.054,178.023
		L292.054,178.023z M300.233,180.909v-3.849c0,0,4.811-0.961,10.584-0.961c5.773,0,8.179,0.961,8.179,0.961l0.481,3.752
		L300.233,180.909L300.233,180.909z M276.314,170.394c-0.618,3.864-5.41,2.628-8.347,3.71c-26.741-0.773-50.855,6.337-76.669,3.401
		c9.428-1.236,80.379-10.202,84.398-10.202L276.314,170.394L276.314,170.394z M323.324,228.054c2.125,0,3.848-2.285,3.848-5.103
		c0-2.819-1.724-5.103-3.848-5.103c-2.125,0-3.849,2.284-3.849,5.103C319.476,225.769,321.199,228.054,323.324,228.054
		L323.324,228.054z M303.601,230.298c2.828,0,5.122-2.512,5.122-5.612c0-3.1-2.294-5.613-5.122-5.613
		c-2.829,0-5.124,2.513-5.124,5.613C298.477,227.786,300.771,230.298,303.601,230.298L303.601,230.298z"/>
	<path fill-rule="evenodd" clip-rule="evenodd" fill="#BCBEC0" d="M343.914,272.408c-0.673,6.831-5.388,13.951-11.738,17.126
		c-4.329,2.501-9.621,1.924-14.24,4.426c-16.934,2.885-35.311,1.636-53.109,1.924c-1.059-0.096-1.732,0.769-2.502,1.539
		c0.578,0.962,0.288,2.598,1.731,3.079c13.566,0,26.748,0,40.025,0c1.731,1.924,0.096,4.81-0.385,7.12
		c-2.502,3.368-4.715,8.466-10.006,8.274c-3.368,1.539-7.506,0.192-11.354,0.385c-1.155-1.25-2.309-0.289-3.655,0
		c-4.715-1.732-8.564,0.866-13.471,0c-2.308,0.866-5.195-1.924-7.312,0.193c-5.581,0.289-11.738-0.769-17.127,0.192
		c-0.673,0.385-0.867,0.77-1.539,1.348c0.096,1.347,0.481,3.175,2.116,3.271c11.835-0.096,23.669-0.77,35.407-0.192l1.732,1.155
		c-0.771,2.982-3.464,5.484-5.965,7.119c-2.021,0.096-3.752,1.059-5.581,1.924c-11.545,1.059-22.802-0.481-34.444,0.578
		c-1.155,0.385-1.251,1.539-1.155,2.694c0.194,0.674,0.866,1.732,1.733,1.924c6.349,0.385,12.988-0.962,19.435,0.385
		c-0.771,5.388-5.484,8.948-10.007,10.968c-4.618,1.348-8.852,0.385-13.663,1.539c-0.962-0.481-1.635-1.155-2.116-2.117
		c0.866-6.638,1.731-13.951-0.578-20.012c0.096-6.351-2.309-12.315-3.079-18.281c-1.058-3.464-3.559-6.543-3.848-10.007
		c1.828-3.657,6.735-1.443,9.236-4.233c4.425-0.385,7.312-4.425,11.546-5.195c6.638-4.137,11.642-11.738,17.126-17.511l2.886-0.385
		l56.188-0.385c5.774-0.481,13.951,0,20.398-0.385C339.2,271.543,342.374,270.099,343.914,272.408L343.914,272.408z"/>
	<path fill-rule="evenodd" clip-rule="evenodd" fill="#BCBEC0" d="M158.991,276.064c5.099,6.831,11.738,13.278,19.628,16.549
		l7.312,3.464l9.044,2.501c1.251,2.598,1.346,5.581,2.886,8.082c-0.289,4.234,2.983,7.121,2.887,11.354
		c5.292,15.491,4.138,33.29,0.961,49.646c-1.827,2.309-0.865,6.351-4.041,7.697c-3.752-1.732-5.002-6.158-7.12-9.429
		c-0.385-2.213-0.576-4.522-1.924-6.35c-1.058-7.023-1.058-13.373-0.77-20.782l0.77-10.007c-0.096-1.251-1.924-1.636-3.079-1.154
		c-1.732,0.096-1.635,2.117-1.924,3.078c-0.192,6.254-1.058,13.374-0.77,19.435c0.096,1.539-1.346,1.636-2.502,2.117
		c-6.926-2.598-15.682-0.578-21.166-6.735c-2.02-2.501-4.715-4.906-4.426-8.467c2.117-1.347,5.196,0.193,7.696-0.577l14.432-0.385
		c1.251-0.769,0.962-2.117,0.962-3.272l-1.346-1.154c-11.547-0.097-23.958,0.962-34.83-0.192
		c-4.908-2.213-9.236-6.158-11.931-10.776c-0.385-2.983,2.982-1.058,4.234-2.117c3.463,1.155,7.504-1.635,11.16,0.193
		c4.234-1.444,6.928,0.385,11.161-0.77c2.887,1.155,5.675-0.674,9.429,0c0.866-0.674,2.021-2.117,0.769-3.078
		c-1.442-2.021-4.425-1.54-6.349-1.348c-4.907-0.288-10.102-0.481-15.201,0.193c-3.176-1.347-6.158,1.155-9.429-0.193
		c-2.887,1.636-6.542-0.865-9.236,0.77c-2.309-0.096-4.907-1.251-7.121,0c-7.023,0.769-13.277-2.021-17.126-7.504
		c-1.539-1.636-2.502-4.233-1.539-6.158c4.714-1.54,8.755,0.481,13.47-0.962c2.79,0.77,5.484,0.097,8.082-0.192
		c2.886,1.155,6.254-0.673,8.852,0.577c4.714-1.154,8.948-0.288,13.855-0.191c2.213-1.925,7.312,1.635,7.889-2.311
		c0.096-1.153-0.77-2.597-1.732-2.693c-2.598-0.675-5.388,1.155-7.889-0.193c-3.367,1.635-7.023-0.963-10.392,0.771
		c-4.041-1.348-7.024,1.058-10.776-0.578c-3.464,1.347-7.023-0.385-10.391,0.769c-3.464-1.346-7.024,0.866-10.583-0.385
		c-2.021,0.385-4.331,0.964-6.158-0.384c-3.752-1.251-8.467,0.192-11.546-2.694c-5.581-1.732-10.199-6.446-14.239-10.392
		l-4.042-7.119c0.771-1.828,3.271-1.346,4.811-1.925c4.138,1.059,6.447-0.481,10.584,0.578c4.523-0.097,8.755-0.77,12.7-0.193
		c3.754-1.732,6.542,0.865,10.006-0.77c2.406-0.289,4.619,1.444,6.736,0c4.907,1.251,9.236-0.865,14.239-0.385
		c10.68,0.866,21.167-1.058,31.751,0.193C157.355,273.082,158.414,274.429,158.991,276.064L158.991,276.064z"/>
	<path fill-rule="evenodd" clip-rule="evenodd" fill="#BCBEC0" d="M214.987,302.62c5.677,9.14,5.58,20.878,7.504,31.365
		c-0.481,8.66-0.095,18.281-3.271,26.171c0.192,3.848-2.02,6.639-3.079,10.006c-1.346-0.192-1.444,1.828-1.924,2.501
		c-0.77-0.095-0.289-2.501-0.193-3.27l0.578-0.385c2.886-16.165,3.944-33.483-0.193-49.07c-1.444-6.254-2.982-12.411-5.387-18.281
		c0.481-1.058-1.059-2.309,0.576-2.694C212.678,297.905,213.544,300.888,214.987,302.62L214.987,302.62z"/>
	<path fill-rule="evenodd" clip-rule="evenodd" fill="#EF412E" d="M345.838,249.895c0.193,2.982,1.444,5.965,0.385,9.044
		c-1.924,0.289-4.041,0-5.773,0.962c-2.405-4.811-4.618-10.583-7.504-15.586C337.083,246.527,342.28,246.335,345.838,249.895
		L345.838,249.895z"/>
	<path d="M207.546,293.085h-0.001v-0.004c-14.478-0.001-27.584-5.868-37.069-15.353c-9.484-9.485-15.351-22.59-15.352-37.068h-0.004
		v-0.003v-0.001h0.004c0-14.478,5.868-27.585,15.352-37.069c9.485-9.484,22.589-15.351,37.066-15.351v-0.004h0.004h0.002v0.004
		c14.479,0,27.586,5.868,37.071,15.352c9.485,9.484,15.351,22.589,15.352,37.066h0.004v0.004v0.002h-0.004
		c-0.001,14.479-5.868,27.586-15.354,37.071c-9.485,9.485-22.59,15.351-37.068,15.352v0.004H207.546L207.546,293.085z"/>
	<path fill-rule="evenodd" clip-rule="evenodd" d="M347.763,267.405c1.636,1.444,0.192,3.945,0,5.773
		c-0.866,5.1-3.176,9.91-6.158,14.048c-2.693,2.116-5.773,5.003-9.236,6.349c-6.638,2.502-13.469,4.522-20.974,5.003
		c-3.464,1.539-2.021,5.773-3.464,8.467c-0.578,4.907-5.196,8.371-8.66,11.546c-4.617,1.155-9.428,2.02-14.625,1.924
		c-3.559,1.635-2.405,6.158-5.388,8.275c-4.715,5.773-12.891,7.215-20.589,6.928c-2.694,1.347-2.501,5.004-4.233,7.312
		c-2.309,3.271-5.965,6.831-10.199,8.082l-1.154,0.77l-16.356,1.154c-4.812,5.484-2.695,13.951-7.698,19.436
		c-2.886,5.098-8.178,8.948-14.239,9.429c-3.079-0.578-6.543-0.289-8.851-2.694c-3.753-1.637-5.1-5.772-7.698-8.852
		c-0.192-1.155-1.059-1.924-1.539-2.886c-0.192-3.56-1.732-6.639-2.694-9.814c-2.694-2.31-6.734-1.059-9.621-2.887
		c-7.12,0-13.855-2.405-19.05-7.312c-2.502-3.079-4.041-6.83-6.351-9.621c-3.271-2.406-7.986-1.539-11.161-4.426
		c-1.732,0.192-2.02-1.924-3.657-2.117c-5.58-2.887-7.408-10.102-12.122-13.47c-6.64-0.385-13.759,0.385-19.051-3.656
		c-2.693-2.597-4.617-5.772-6.542-8.852c-0.769-2.116,0.192-5.099-2.309-6.349c-11.161-1.154-21.168-6.35-28.672-15.009
		c-0.865-2.598-2.982-4.138-3.464-6.928c-1.636-1.827-1.251-4.522-2.502-6.542l1.732-0.962l66.388-0.77l29.826-0.576
		c3.367,1.058,3.175,4.714,5.579,6.735c5.485,7.311,12.99,13.566,21.745,16.164c3.849,1.924,2.887,1.122,7.506,2.693
		c8.691,1.316,15.264,2.439,25.4,0.771c5.42-1.38,5.581-0.899,10.391-3.304c6.735-2.405,6.928-3.912,10.584-5.548
		c7.408-4.908,11.866-10.167,17.125-17.896l40.025-0.385H347.763L347.763,267.405z"/>
	<path fill-rule="evenodd" clip-rule="evenodd" fill="#BCBEC0" d="M214.987,302.62c5.677,9.14,5.58,20.878,7.504,31.365
		c-0.481,8.66-0.095,18.281-3.271,26.171c0.192,3.848-2.02,6.639-3.079,10.006c-1.346-0.192-1.444,1.828-1.924,2.501
		c-0.77-0.095-0.289-2.501-0.193-3.27l0.578-0.385c2.886-16.165,3.944-33.483-0.193-49.07c-1.444-6.254-2.982-12.411-5.387-18.281
		c0.481-1.058-1.059-2.309,0.576-2.694C212.678,297.905,213.544,300.888,214.987,302.62L214.987,302.62z M158.991,276.064
		c5.099,6.831,11.738,13.278,19.628,16.549l7.312,3.464l9.044,2.501c1.251,2.598,1.346,5.581,2.886,8.082
		c-0.289,4.234,2.983,7.121,2.887,11.354c5.292,15.491,4.138,33.29,0.961,49.646c-1.827,2.309-0.865,6.351-4.041,7.697
		c-3.752-1.732-5.002-6.158-7.12-9.429c-0.385-2.213-0.576-4.522-1.924-6.35c-1.058-7.023-1.058-13.373-0.77-20.782l0.77-10.007
		c-0.096-1.251-1.924-1.636-3.079-1.154c-1.732,0.096-1.635,2.117-1.924,3.078c-0.192,6.254-1.058,13.374-0.77,19.435
		c0.096,1.539-1.346,1.636-2.502,2.117c-6.926-2.598-15.682-0.578-21.166-6.735c-2.02-2.501-4.715-4.906-4.426-8.467
		c2.117-1.347,5.196,0.193,7.696-0.577l14.432-0.385c1.251-0.769,0.962-2.117,0.962-3.272l-1.346-1.154
		c-11.547-0.097-23.958,0.962-34.83-0.192c-4.908-2.213-9.236-6.158-11.931-10.776c-0.385-2.983,2.982-1.058,4.234-2.117
		c3.463,1.155,7.504-1.635,11.16,0.193c4.234-1.444,6.928,0.385,11.161-0.77c2.887,1.155,5.675-0.674,9.429,0
		c0.866-0.674,2.021-2.117,0.769-3.078c-1.442-2.021-4.425-1.54-6.349-1.348c-4.907-0.288-10.102-0.481-15.201,0.193
		c-3.176-1.347-6.158,1.155-9.429-0.193c-2.887,1.636-6.542-0.865-9.236,0.77c-2.309-0.096-4.907-1.251-7.121,0
		c-7.023,0.769-13.277-2.021-17.126-7.504c-1.539-1.636-2.502-4.233-1.539-6.158c4.714-1.54,8.755,0.481,13.47-0.962
		c2.79,0.77,5.484,0.097,8.082-0.192c2.886,1.155,6.254-0.673,8.852,0.577c4.714-1.154,8.948-0.288,13.855-0.191
		c2.213-1.925,7.312,1.635,7.889-2.311c0.096-1.153-0.77-2.597-1.732-2.693c-2.598-0.675-5.388,1.155-7.889-0.193
		c-3.367,1.635-7.023-0.963-10.392,0.771c-4.041-1.348-7.024,1.058-10.776-0.578c-3.464,1.347-7.023-0.385-10.391,0.769
		c-3.464-1.346-7.024,0.866-10.583-0.385c-2.021,0.385-4.331,0.964-6.158-0.384c-3.752-1.251-8.467,0.192-11.546-2.694
		c-5.581-1.732-10.199-6.446-14.239-10.392l-4.042-7.119c0.771-1.828,3.271-1.346,4.811-1.925c4.138,1.059,6.447-0.481,10.584,0.578
		c4.523-0.097,8.755-0.77,12.7-0.193c3.754-1.732,6.542,0.865,10.006-0.77c2.406-0.289,4.619,1.444,6.736,0
		c4.907,1.251,9.236-0.865,14.239-0.385c10.68,0.866,21.167-1.058,31.751,0.193C157.355,273.082,158.414,274.429,158.991,276.064
		L158.991,276.064z M343.914,272.408c-0.673,6.831-5.388,13.951-11.738,17.126c-4.329,2.501-9.621,1.924-14.24,4.426
		c-16.934,2.885-35.311,1.636-53.109,1.924c-1.059-0.096-1.732,0.769-2.502,1.539c0.578,0.962,0.288,2.598,1.731,3.079
		c13.566,0,26.748,0,40.025,0c1.731,1.924,0.096,4.81-0.385,7.12c-2.502,3.368-4.715,8.466-10.006,8.274
		c-3.368,1.539-7.506,0.192-11.354,0.385c-1.155-1.25-2.309-0.289-3.655,0c-4.715-1.732-8.564,0.866-13.471,0
		c-2.308,0.866-5.195-1.924-7.312,0.193c-5.581,0.289-11.738-0.769-17.127,0.192c-0.673,0.385-0.867,0.77-1.539,1.348
		c0.096,1.347,0.481,3.175,2.116,3.271c11.835-0.096,23.669-0.77,35.407-0.192l1.732,1.155c-0.771,2.982-3.464,5.484-5.965,7.119
		c-2.021,0.096-3.752,1.059-5.581,1.924c-11.545,1.059-22.802-0.481-34.444,0.578c-1.155,0.385-1.251,1.539-1.155,2.694
		c0.194,0.674,0.866,1.732,1.733,1.924c6.349,0.385,12.988-0.962,19.435,0.385c-0.771,5.388-5.484,8.948-10.007,10.968
		c-4.618,1.348-8.852,0.385-13.663,1.539c-0.962-0.481-1.635-1.155-2.116-2.117c0.866-6.638,1.731-13.951-0.578-20.012
		c0.096-6.351-2.309-12.315-3.079-18.281c-1.058-3.464-3.559-6.543-3.848-10.007c1.828-3.657,6.735-1.443,9.236-4.233
		c4.425-0.385,7.312-4.425,11.546-5.195c6.638-4.137,11.642-11.738,17.126-17.511l2.886-0.385l56.188-0.385
		c5.774-0.481,13.951,0,20.398-0.385C339.2,271.543,342.374,270.099,343.914,272.408L343.914,272.408z"/>
	<path fill-rule="evenodd" clip-rule="evenodd" fill="#D71920" d="M345.838,249.895c0.193,2.982,1.444,5.965,0.385,9.044
		c-1.924,0.289-4.041,0-5.773,0.962c-2.405-4.811-4.618-10.583-7.504-15.586C337.083,246.527,342.28,246.335,345.838,249.895
		L345.838,249.895z"/>
	<path fill-rule="evenodd" clip-rule="evenodd" fill="#FFFFFF" d="M177.848,210.831c-2.596,4.331-6.926,8.178-11.93,9.429
		c-0.288,0.385-0.769,0.673-1.347,0.578c-0.77-0.769-0.963-2.117-0.578-3.079c4.042-5.773,7.954-11.514,15.395-15.394
		C181.216,205.154,178.234,207.945,177.848,210.831L177.848,210.831z M220.183,195.244c-2.021,5.773-7.409,9.718-13.277,11.546
		c-2.598,1.443-8.563-1.636-9.237,2.693l0.385,1.155c5.484,2.309,11.739,4.042,15.008,10.006c1.348,0.578,2.599,0.578,3.85,0
		l2.501-1.924c0.963-5.677-0.673-12.7,3.656-16.741c1.539-1.925,3.657-4.137,6.35-4.04c2.695-0.193,4.234,2.405,6.736,3.078
		c9.044,6.928,15.972,13.567,18.858,27.518c0.481,0.288,0.288,1.539,0.192,2.308c-1.347,3.272-3.078,2.983-6.928,5.004
		c-4.649,1.346-7.023-0.769-8.659,2.309c0.194,1.924-2.405,6.254,1.54,6.35c5.773,2.212,10.68,7.505,10.583,14.047
		c-0.384,8.563-7.505,13.47-13.084,19.435c-2.887,2.117-5.678,4.329-9.045,5.772c-7.601,2.213-12.7-3.849-16.741-8.851
		c-1.924,0.192-3.945,0.095-5.388,1.539c0,3.944-1.347,7.312-2.117,10.968c-3.657,2.502-8.082,1.733-13.695-0.192
		c-6.414-2.085-3.849-1.284-8.242-3.656c-5.581-3.657-11.161-7.697-14.817-13.085l1.539-4.618
		c3.945-5.484,10.392-7.119,16.549-7.312c2.117-1.443,1.635-4.522,1.924-6.927c-4.041-2.983-9.14-5.292-10.968-10.391
		c-0.962-0.481-2.405-2.405-3.271-0.578c-0.481,3.272,0.385,7.409-0.77,10.969c-1.058,1.25-0.962,2.982-1.731,4.425
		c-2.021,2.791-4.138,5.196-7.119,6.927c-4.523-1.444-3.561-4.778-5.004-9.428c-1.924-8.275-2.116-17.029,0.193-25.209
		c0.961-0.769,2.501-0.962,3.655-0.577c3.271,1.829,6.351,4.811,8.275,7.698c0.962,0.192,1.828,0.576,2.501-0.385
		c1.539-1.733,0.385-3.753,0.962-5.774c0.576-7.119,5.484-13.277,11.738-16.356c2.308-0.577,4.714-0.962,6.349-2.886
		c0.481-1.828,0-2.983-0.769-4.426c-3.079-0.77-5.87-3.175-7.891-5.965c0.289-4.618,3.046-3.048,8.275-5.388
		c5.035-1.188,5.195-1.669,9.621-2.117C209.471,191.973,216.142,190.722,220.183,195.244L220.183,195.244z M222.492,227.573
		c3.176,4.618,8.083,7.311,12.701,9.429c-0.385,1.731-0.192,3.752-1.346,5.196c-8.275-0.386-15.972,2.5-20.59,9.429
		c-2.214,2.405-2.598,5.676-3.657,8.659c-0.095,3.464,0.097,6.734,0.578,10.006c-0.962,0.865-2.405,0.577-3.655,0.961
		c-2.887-4.04-5.87-7.889-10.392-10.391c-2.019-0.289-2.886-1.444-4.041-3.079c0.866-1.828-0.096-4.426,2.116-5.388
		c8.371,0,16.357-4.234,20.205-11.931c2.31-3.848,2.021-9.044,1.732-13.662c0.288-1.154,1.539-2.405,2.886-2.694
		C221.146,224.108,221.723,226.034,222.492,227.573L222.492,227.573z"/>
</g>
</svg>
