<?xml version="1.0" encoding="utf-8"?>
<!-- Generator: Adobe Illustrator 19.1.0, SVG Export Plug-In . SVG Version: 6.00 Build 0)  -->
<svg version="1.1" id="Layer_1" xmlns="http://www.w3.org/2000/svg" xmlns:xlink="http://www.w3.org/1999/xlink" x="0px" y="0px"
	 viewBox="0 0 400 400" enable-background="new 0 0 400 400" xml:space="preserve">
<g>
	<polygon fill="#C92927" points="393.434,220.985 199.045,325.884 5.051,220.795 199.23,116.069 	"/>
	<polygon fill="#FFFFFF" points="199.231,121.741 15.546,220.806 199.053,320.217 382.935,220.988 	"/>
	<polygon fill="#C92927" points="83.454,252.291 257.466,158.445 199.233,126.965 25.218,220.818 	"/>
	<polygon fill="#C92927" points="198.42,314.498 372.428,220.652 314.194,189.178 140.184,283.024 	"/>
	<path fill="#FFFFFF" d="M234.497,174.795h-9.388v4.95l0.891,3.076l-1.014,0.403l-1.524-3.077
		c-5.079-3.349-12.956-7.358-25.643-7.358c-27.804,0.131-47.223,20.732-47.223,46.282c0,25.025,19.674,45.626,50.395,45.494
		c16.761,0,29.96-6.434,38.842-12.441l-5.711-6.696c-9.136,6.821-17.646,10.579-28.436,10.579
		c-18.405,0-36.432-10.175-36.432-37.201c0-32.642,20.059-38.126,33.256-38.262c13.722,0,22.475,9.231,22.598,19.535l9.388-0.137
		V174.795z"/>
	<path fill="#C92927" d="M233.327,175.969h-7.032v3.622l0.834,2.907l0.301,1.033l-1.004,0.392l-1.016,0.397l-1.004,0.393
		l-0.471-0.966l-1.398-2.796c-2.42-1.576-5.487-3.288-9.423-4.623c-4.071-1.379-9.085-2.356-15.296-2.356v-0.007
		c-13.368,0.068-24.741,4.972-32.839,12.902c-8.34,8.174-13.21,19.567-13.21,32.206v0.197c0.049,12.096,4.829,23.122,13.3,31.115
		c8.49,8.02,20.712,13.003,35.634,13.003v0.006h0.287v-0.006c8.233,0,15.587-1.572,21.971-3.895
		c5.883-2.131,10.948-4.885,15.117-7.614l-4.135-4.846c-4.334,3.159-8.567,5.626-12.995,7.345
		c-4.756,1.838-9.722,2.813-15.261,2.813c-10.302,0-20.504-3.121-27.695-10.456c-6.034-6.168-9.922-15.261-9.922-27.922
		c0-16.742,5.203-26.561,12.117-32.236c6.92-5.681,15.511-7.137,22.313-7.207l0.01-0.005c6.905,0,12.618,2.25,16.716,5.797
		c4.145,3.581,6.624,8.481,7.007,13.724l7.094-0.101v-22.814H233.327z M225.109,173.618h9.388h1.182v1.177v25.151v1.158l-1.16,0.015
		l-9.395,0.138l-1.17,0.015l-0.02-1.181c-0.066-5.004-2.303-9.743-6.247-13.152c-3.686-3.187-8.872-5.214-15.175-5.214v-0.004
		c-6.389,0.066-14.428,1.421-20.834,6.674c-6.416,5.266-11.245,14.508-11.245,30.418c0,11.987,3.62,20.525,9.236,26.26
		c6.703,6.846,16.297,9.751,26.019,9.751c5.251,0,9.935-0.91,14.408-2.641c4.506-1.75,8.829-4.337,13.318-7.696l0.885-0.654
		l0.719,0.836l5.712,6.688l0.848,1.006l-1.088,0.738c-4.51,3.059-10.122,6.217-16.728,8.612c-6.624,2.406-14.251,4.041-22.774,4.041
		v-0.004h-0.287v0.004c-15.556,0-28.333-5.231-37.253-13.652c-8.939-8.434-13.984-20.06-14.035-32.82v-0.006v-0.201
		c0-13.289,5.131-25.276,13.91-33.884c8.52-8.348,20.471-13.509,34.487-13.575l0.005-0.005c6.488,0,11.754,1.027,16.053,2.488
		c4.2,1.424,7.475,3.264,10.063,4.95v-4.252v-1.177h1.176V173.618z"/>
</g>
<polygon fill="#F4AE27" points="227.014,59.492 232.908,71.281 245.679,73.245 235.856,82.088 238.803,94.859 227.381,87.867 
	216.207,94.859 219.155,82.088 209.331,73.245 222.102,71.281 "/>
<polygon fill="#F4AE27" points="276.004,59.492 281.898,71.281 294.669,73.245 284.846,82.088 287.793,94.859 276.371,87.867 
	265.197,94.859 268.145,82.088 258.32,73.245 271.092,71.281 "/>
<polygon fill="#F4AE27" points="169.983,59.492 175.878,71.281 188.649,73.245 178.826,82.088 181.773,94.859 170.351,87.867 
	159.177,94.859 162.124,82.088 152.3,73.245 165.071,71.281 "/>
<polygon fill="#F4AE27" points="117.458,59.492 123.353,71.281 136.124,73.245 126.3,82.088 129.247,94.859 117.826,87.867 
	106.652,94.859 109.599,82.088 99.775,73.245 112.546,71.281 "/>
</svg>
