<?xml version="1.0" encoding="utf-8"?>
<!-- Generator: Adobe Illustrator 19.1.0, SVG Export Plug-In . SVG Version: 6.00 Build 0)  -->
<svg version="1.1" id="Layer_1" xmlns="http://www.w3.org/2000/svg" xmlns:xlink="http://www.w3.org/1999/xlink" x="0px" y="0px"
	 viewBox="0 0 400 400" enable-background="new 0 0 400 400" xml:space="preserve">
<g>
	<path fill-rule="evenodd" clip-rule="evenodd" d="M46.956,79.66c0,13.683,0.503,27.164,1.509,40.847
		c9.256-3.521,18.411-7.144,27.667-10.363c10.363-3.521,20.827-6.439,31.391-8.954c13.179-3.018,26.459-5.333,39.84-7.244
		c17.305-2.314,34.609-3.723,52.015-3.823c17.405,0.1,34.71,1.509,52.015,3.823c13.38,1.811,26.662,4.225,39.84,7.244
		c10.564,2.516,21.028,5.433,31.391,8.954c9.255,3.219,18.411,6.841,27.666,10.363c1.007-13.683,1.509-27.265,1.509-40.948
		c-4.93-1.912-9.961-3.823-14.989-5.735c-8.251-2.918-16.501-5.634-24.851-8.149c-37.527-11.167-75.053-16.802-112.481-16.802
		c-37.426,0-74.952,5.634-112.48,16.802c-8.35,2.516-16.6,5.232-24.85,8.149C57.017,75.736,51.987,77.647,46.956,79.66L46.956,79.66
		z"/>
	<path fill-rule="evenodd" clip-rule="evenodd" d="M48.766,123.626c0.906,10.865,2.213,21.831,4.125,32.999
		c9.055,53.825,24.951,97.087,55.033,143.366c24.348,37.629,56.14,65.296,91.453,91.656c35.314-26.36,67.105-54.027,91.453-91.656
		c30.083-46.279,45.98-89.542,55.033-143.366c1.912-11.167,3.219-22.134,4.125-32.999c-10.262-4.629-21.731-8.451-32.194-11.872
		c-9.759-3.22-19.618-5.936-29.68-8.149c-12.273-2.716-24.648-4.93-37.125-6.64c-17.304-2.314-34.508-3.421-51.612-3.421
		c-17.203,0-34.408,1.107-51.612,3.421c-12.476,1.711-24.85,3.924-37.124,6.64c-10.061,2.213-19.92,4.93-29.68,8.149
		C70.096,115.375,59.432,119.5,48.766,123.626L48.766,123.626z"/>
	<path fill-rule="evenodd" clip-rule="evenodd" fill="#FFFFFF" d="M51.987,125.594c1.307,13.481,3.219,27.064,5.633,40.444
		c3.119,15.695,6.842,31.189,11.57,46.482c4.829,14.788,10.564,29.075,17.204,43.16c7.747,15.897,16.5,31.289,26.259,46.079
		c7.646,11.168,15.996,21.631,25.051,31.792c12.677,13.683,26.56,26.259,40.947,38.13c6.841,5.434,13.784,10.867,20.725,16.099
		c6.941-5.333,13.883-10.665,20.725-16.099c14.386-11.871,28.271-24.447,40.947-38.13c9.055-10.161,17.305-20.624,25.053-31.792
		c9.659-14.789,18.512-30.182,26.259-46.079c6.638-14.085,12.374-28.372,17.102-43.16c4.829-15.294,8.552-30.788,11.671-46.482
		c2.415-13.38,4.326-26.962,5.635-40.444c-19.418-8.451-39.842-14.89-60.466-19.418c-28.574-6.137-57.65-9.658-86.926-9.658
		c-29.277,0-58.353,3.522-86.926,9.658C91.726,110.704,71.807,117.947,51.987,125.594L51.987,125.594z"/>
	<path fill-rule="evenodd" clip-rule="evenodd" fill="#1E439B" d="M49.974,81.672c0.1,9.558,0.403,19.216,0.905,28.774
		c0.1,1.912,0.201,3.822,0.403,5.735c8.853-3.421,17.807-6.841,26.862-9.86c23.442-7.747,47.587-12.676,72.035-15.795
		c16.6-2.012,32.899-3.018,49.197-3.018s32.597,1.006,49.198,3.018c24.448,3.119,48.594,8.048,72.035,15.795
		c9.055,3.018,18.008,6.439,26.863,9.86c0.2-1.912,0.302-3.823,0.402-5.735c0.502-9.558,0.804-19.216,0.905-28.875
		c-2.213-0.804-4.427-1.711-6.64-2.515c-11.368-4.225-22.838-8.149-34.508-11.57c-11.572-3.219-23.141-6.036-34.912-8.451
		c-15.092-2.817-30.083-4.829-45.375-6.036c-18.613-1.308-37.124-1.308-55.737,0c-15.292,1.207-30.283,3.219-45.374,6.036
		c-11.772,2.415-23.341,5.232-34.912,8.451c-11.671,3.421-23.139,7.345-34.508,11.57C54.602,79.861,52.288,80.767,49.974,81.672
		L49.974,81.672z"/>
	<path fill-rule="evenodd" clip-rule="evenodd" d="M199.478,306.934c35.314,0,64.188-28.875,64.188-64.188
		s-28.875-64.088-64.188-64.088s-64.087,28.775-64.087,64.088S164.164,306.934,199.478,306.934L199.478,306.934z"/>
	<path fill-rule="evenodd" clip-rule="evenodd" fill="#ED5128" d="M199.478,304.922c34.207,0,62.177-27.869,62.177-62.176
		c0-34.206-27.969-62.076-62.177-62.076c-34.207,0-62.175,27.87-62.175,62.076C137.302,277.053,165.271,304.922,199.478,304.922
		L199.478,304.922z"/>
	<path fill-rule="evenodd" clip-rule="evenodd" d="M199.478,285.303c23.341,0,42.457-19.116,42.457-42.557
		c0-23.443-19.116-42.356-42.457-42.356c-23.341,0-42.456,18.913-42.456,42.356C157.022,266.187,176.137,285.303,199.478,285.303
		L199.478,285.303z"/>
	<path fill-rule="evenodd" clip-rule="evenodd" fill="#FFFFFF" d="M199.478,283.291c22.235,0,40.444-18.211,40.444-40.545
		c0-22.335-18.209-40.446-40.444-40.446c-22.234,0-40.444,18.11-40.444,40.446C159.033,265.08,177.244,283.291,199.478,283.291
		L199.478,283.291z"/>
	<path fill-rule="evenodd" clip-rule="evenodd" d="M199.478,280.272c20.625,0,37.428-16.902,37.428-37.526
		s-16.803-37.427-37.428-37.427c-20.624,0-37.426,16.803-37.426,37.427S178.853,280.272,199.478,280.272L199.478,280.272z"/>
	<path fill-rule="evenodd" clip-rule="evenodd" fill="#FFFFFF" d="M199.478,278.261c19.519,0,35.414-15.998,35.414-35.515
		c0-19.519-15.895-35.515-35.414-35.515c-19.517,0-35.414,15.996-35.414,35.515C164.064,262.263,179.961,278.261,199.478,278.261
		L199.478,278.261z"/>
	<path fill-rule="evenodd" clip-rule="evenodd" d="M98.165,237.916c3.422,7.846,7.244,15.695,11.268,23.342
		c10.262-42.558,27.466-71.03,59.862-96.686v18.311c9.055-4.628,19.316-7.245,30.182-7.245c10.765,0,20.927,2.617,29.981,7.144
		v-18.211c32.397,25.555,49.6,54.128,59.864,96.686c4.024-7.647,7.847-15.495,11.267-23.342
		c8.753-20.322,15.193-40.947,20.122-62.578c3.723-17.103,6.237-34.408,8.048-51.914c-31.568-12.601-86.067-22.732-129.731-22.732
		c-43.664,0-91.525,9.083-129.033,22.732c1.811,17.506,4.326,34.811,8.048,51.914C82.974,196.969,89.413,217.594,98.165,237.916
		L98.165,237.916L98.165,237.916z M169.296,302.709v36.722c4.628,4.426,9.457,8.652,14.387,12.878
		c5.132,4.326,10.463,8.55,15.695,12.675c5.232-4.125,10.565-8.349,15.695-12.675c4.93-4.227,9.76-8.452,14.386-12.878v-36.623
		c-9.054,4.629-19.216,7.144-29.981,7.144C188.612,309.952,178.35,307.336,169.296,302.709L169.296,302.709z"/>
	<path fill-rule="evenodd" clip-rule="evenodd" fill="#3CA249" d="M172.313,158.235v19.92c8.853-3.521,17.607-5.533,27.164-5.533
		c9.457,0,18.21,2.012,26.964,5.433v-19.82c9.558,7.646,18.511,15.292,26.861,24.246c11.067,12.576,19.92,26.158,26.861,41.45
		c4.025,9.358,7.245,18.914,10.062,28.774v0.201l0.101-0.201c7.746-15.594,14.186-31.792,19.519-48.493
		c5.431-17.506,9.558-35.314,12.374-53.524c1.307-8.35,2.314-16.6,3.22-25.051c-40.126-14.465-95.832-22.151-125.713-22.151
		c-29.88,0-91.526,8.384-126.411,22.151c0.906,8.351,1.911,16.701,3.219,25.051c2.818,18.21,6.942,36.018,12.375,53.524
		c5.332,16.701,11.771,32.898,19.518,48.493l0.1,0.201v-0.201c2.817-9.86,6.037-19.416,10.062-28.774
		c6.941-15.292,15.795-28.874,26.862-41.45C153.801,173.527,162.756,165.881,172.313,158.235L172.313,158.235L172.313,158.235z
		 M189.015,352.811l0.503,0.402l0.403,0.403l0.503,0.402l0.503,0.403l0.503,0.402l0.503,0.403l0.503,0.401l0.906,0.705l0.502,0.401
		l0.503,0.403l0.503,0.404l0.503,0.401l0.503,0.404l0.503,0.401l0.503,0.402l0.503,0.403l0.403,0.402l0.502,0.302l0.503,0.402
		l0.504,0.403l0.1,0.101l0.1-0.101l0.504-0.403l0.502-0.402l0.504-0.302l0.401-0.402l0.503-0.403l0.504-0.402l0.502-0.401
		l0.504-0.404l0.503-0.401l0.502-0.404l0.503-0.403l0.502-0.401l0.906-0.705l0.504-0.401l0.502-0.403l0.504-0.402l0.503-0.403
		l0.401-0.402l0.505-0.403l0.502-0.402l0.503-0.403l1.006-0.803l0.402-0.403l0.502-0.402l0.504-0.403l0.504-0.402l0.402-0.403
		l0.502-0.402l0.402-0.403l0.504-0.402l0.403-0.401l0.503-0.303l0.905-0.804l0.403-0.402l0.502-0.404l0.906-0.805l0.403-0.401
		l0.503-0.403l0.401-0.402l0.504-0.403l0.402-0.402l0.402-0.403l0.907-0.805l0.502-0.402l0.403-0.403l0.906-0.803l0.403-0.403
		l0.502-0.402l0.906-0.805l0.402-0.403l0.302-0.301v-30.586l-0.102,0.101l-0.906,0.301l-0.904,0.403l-1.007,0.404l-0.905,0.3
		l-1.005,0.303l-0.905,0.301l-1.006,0.302l-0.905,0.303l-1.007,0.3l-1.006,0.202l-1.006,0.301l-0.905,0.201l-1.005,0.202
		l-1.008,0.202l-1.005,0.2l-1.005,0.202l-1.006,0.1l-1.006,0.202l-1.106,0.101l-1.007,0.099l-1.005,0.101l-1.008,0.101l-1.106,0.1
		h-1.005l-1.108,0.101h-1.006h-1.006h-1.006h-1.107l-1.006-0.101h-1.107l-1.006-0.1l-1.006-0.101l-1.107-0.101l-1.005-0.099
		l-1.007-0.101l-1.006-0.202l-1.107-0.1l-1.006-0.202l-1.006-0.2l-1.006-0.202l-1.006-0.202l-1.005-0.201l-0.906-0.301l-1.006-0.302
		l-1.006-0.2l-1.006-0.303l-0.905-0.302l-1.006-0.301l-0.905-0.403l-1.006-0.303l-0.906-0.401l-1.005-0.303l-0.906-0.402l-0.101-0.1
		v30.686l0.303,0.301l0.401,0.403l0.503,0.402l0.403,0.403l0.503,0.402l0.403,0.403l0.905,0.803l0.403,0.403l0.503,0.402
		l0.905,0.805l0.403,0.403l0.403,0.402l0.905,0.805l0.905,0.804l0.905,0.805l0.503,0.404l0.403,0.402l0.905,0.804l0.503,0.303
		l0.403,0.401l0.504,0.402l0.402,0.403l0.504,0.402l0.401,0.403l0.503,0.402l0.503,0.403l0.502,0.402l0.403,0.403l1.006,0.803
		L189.015,352.811L189.015,352.811z"/>
	<path fill-rule="evenodd" clip-rule="evenodd" d="M47.358,43.44c-0.302,11.168-0.502,22.134-0.502,32.899
		c1.408-0.503,2.817-1.006,4.225-1.609c24.448-9.156,49.298-16.802,74.954-22.034c13.682-2.616,27.264-4.526,41.048-5.735
		c21.631-1.709,43.161-1.709,64.791,0c13.783,1.209,27.365,3.119,41.048,5.735c25.656,5.232,50.506,12.878,74.954,22.034
		c1.309,0.502,2.615,1.006,4.025,1.609c0-10.866-0.202-21.731-0.504-32.899c-26.359-9.457-52.215-18.109-78.776-23.844v15.695
		c-8.753-1.71-17.505-2.716-26.159-3.622V14.968c-12.273-1.71-24.647-2.615-37.425-2.615c-6.438,0-12.878,0-19.317,0
		c-12.475,0-24.649,0.905-36.621,2.515v16.802c-8.652,0.906-17.405,1.912-26.158,3.622V19.395
		C100.077,25.13,74.019,33.883,47.358,43.44L47.358,43.44z"/>
	<path fill-rule="evenodd" clip-rule="evenodd" fill="#3CA249" d="M50.276,45.654c-0.201,8.753-0.302,17.506-0.302,26.36
		c3.823-1.509,7.646-2.917,11.57-4.326c8.451-2.918,17.003-5.735,25.655-8.351c12.978-3.822,26.259-7.344,39.539-9.859
		c24.045-4.427,48.392-6.64,72.739-6.64c24.348,0,48.695,2.213,72.739,6.64c13.28,2.515,26.56,6.037,39.54,9.859
		c8.652,2.616,17.203,5.433,25.655,8.351c3.823,1.409,7.646,2.817,11.369,4.225c0-8.753-0.101-17.506-0.301-26.259
		c-10.966-3.923-21.833-7.646-32.9-11.268c-13.28-4.125-26.56-7.847-39.941-10.866v15.393c-10.765-2.012-21.329-3.421-32.194-4.528
		V17.685c-2.314-0.302-4.629-0.604-6.942-0.905c-24.549-2.213-49.701-2.213-74.35,0c-2.012,0.302-4.024,0.503-6.036,0.804v16.802
		c-10.865,1.107-21.429,2.516-32.195,4.528V23.319c-13.683,3.018-27.265,6.841-40.747,11.067
		C72.209,38.008,61.242,41.73,50.276,45.654L50.276,45.654z"/>
	<path fill-rule="evenodd" clip-rule="evenodd" d="M221.309,271.52v-8.954c2.818-0.804,5.133-2.817,6.741-6.337l2.918,4.124
		C228.554,264.679,225.234,268.501,221.309,271.52L221.309,271.52L221.309,271.52z M221.309,236.911v-1.61
		c0.102,0.101,0.102,0.202,0.202,0.301C221.612,236.005,221.511,236.507,221.309,236.911L221.309,236.911L221.309,236.911z
		 M221.309,219.906c4.83,4.629,4.528,9.76,1.51,15.193c5.735,2.716,9.055,6.842,7.746,13.583l4.83-1.61
		c0.1-1.408,0.201-2.817,0.201-4.326c0-9.457-3.622-18.11-9.659-24.549l-4.629,1.408V219.906L221.309,219.906L221.309,219.906z
		 M228.855,252.304c0.403-1.208,1.309-2.112,2.013-1.811c0.803,0.201,1.005,1.408,0.602,2.716c-0.4,1.208-1.306,2.013-2.012,1.811
		C228.754,254.818,228.454,253.611,228.855,252.304L228.855,252.304z M212.153,233.388l5.333,3.925l-5.333,16.6V233.388
		L212.153,233.388L212.153,233.388z M221.309,219.605v0.301c0-0.099-0.1-0.099-0.2-0.2L221.309,219.605L221.309,219.605
		L221.309,219.605z M221.309,235.301v1.61c-0.2,0.301-0.502,0.603-0.904,0.704c-0.804,0.301-1.71-0.202-2.013-1.006
		c-0.201-0.906,0.202-1.81,1.108-2.012C220.204,234.294,221.009,234.698,221.309,235.301L221.309,235.301L221.309,235.301z
		 M221.309,262.565v8.954c-2.716,2.113-5.835,3.823-9.156,5.131v-7.949c0.906-1.709,1.51-3.721,1.712-6.035
		C216.582,263.169,219.096,263.269,221.309,262.565L221.309,262.565L221.309,262.565z M212.153,261.761v-3.119
		c0.403,0,0.906,0.203,1.208,0.603c0.603,0.706,0.402,1.71-0.302,2.213C212.758,261.761,212.457,261.761,212.153,261.761
		L212.153,261.761L212.153,261.761z M212.153,213.871v-5.03c0.807,0.3,1.61,0.704,2.516,1.105v5.031
		C213.764,214.474,212.96,214.172,212.153,213.871L212.153,213.871L212.153,213.871z M217.687,217.693
		c-1.105-0.803-1.61-1.91-1.206-2.514c0.401-0.603,1.71-0.403,2.717,0.301c1.106,0.805,1.608,1.912,1.206,2.517
		C219.901,218.599,218.694,218.5,217.687,217.693L217.687,217.693z M210.444,232.282l1.709,1.106v20.525l-1.507,4.728h-0.202
		V232.282L210.444,232.282L210.444,232.282z M212.153,208.841v5.03c-0.602-0.201-1.104-0.303-1.709-0.403v-5.131
		C211.049,208.438,211.551,208.639,212.153,208.841L212.153,208.841L212.153,208.841z M212.153,258.641v3.119
		c-0.502,0-1.005-0.202-1.306-0.604c-0.504-0.704-0.403-1.711,0.301-2.213C211.449,258.742,211.753,258.641,212.153,258.641
		L212.153,258.641L212.153,258.641z M212.153,268.701v7.949c-0.602,0.202-1.104,0.402-1.709,0.604v-6.34
		C211.148,270.313,211.651,269.508,212.153,268.701L212.153,268.701z M199.478,224.234l10.966,8.048v26.359h-21.932v-26.359
		L199.478,224.234L199.478,224.234L199.478,224.234z M210.444,208.337v5.131c-4.126-0.704-7.746,1.208-11.067,4.628
		c-3.119-3.42-6.741-5.332-10.866-4.628v-5.131c3.42-1.207,7.143-1.81,10.966-1.81C203.302,206.527,207.024,207.13,210.444,208.337
		L210.444,208.337L210.444,208.337z M210.444,270.915v6.34c-1.307,0.401-2.615,0.704-4.024,1.006l-3.018-4.126
		C206.52,273.733,208.835,272.626,210.444,270.915L210.444,270.915L210.444,270.915z M188.512,277.254v-6.34
		c1.61,1.711,3.924,2.818,7.043,3.22l-3.018,4.126C191.128,277.959,189.82,277.656,188.512,277.254L188.512,277.254L188.512,277.254
		z M199.478,219.605c0.804,0,1.51,0.704,1.51,1.61c0,0.805-0.706,1.509-1.51,1.509c-0.805,0-1.509-0.704-1.509-1.509
		C197.969,220.309,198.673,219.605,199.478,219.605L199.478,219.605L199.478,219.605z M199.478,273.733
		c1.308,0,2.314,0.604,2.314,1.308c0,0.804-1.006,1.408-2.314,1.408c-1.308,0-2.314-0.603-2.314-1.408
		C197.164,274.337,198.17,273.733,199.478,273.733L199.478,273.733z M188.512,258.641h-0.201l-1.509-4.728v-20.525l1.71-1.106
		V258.641L188.512,258.641L188.512,258.641z M188.512,208.337v5.131c-0.604,0.1-1.106,0.202-1.71,0.403v-5.03
		C187.406,208.639,187.908,208.438,188.512,208.337L188.512,208.337L188.512,208.337z M188.512,270.915v6.34
		c-0.604-0.202-1.106-0.402-1.71-0.604v-7.949C187.304,269.508,187.808,270.313,188.512,270.915L188.512,270.915L188.512,270.915z
		 M186.801,261.761v-3.119c0.403,0,0.704,0.1,1.006,0.302c0.704,0.502,0.804,1.509,0.302,2.213
		C187.808,261.559,187.304,261.761,186.801,261.761L186.801,261.761z M186.801,253.914l-5.332-16.6l5.332-3.925V253.914
		L186.801,253.914L186.801,253.914z M186.801,208.841v5.03c-0.805,0.301-1.609,0.603-2.515,1.106v-5.031
		C185.192,209.545,185.996,209.142,186.801,208.841L186.801,208.841L186.801,208.841z M186.801,258.641v3.119
		c-0.302,0-0.604,0-0.905-0.303c-0.704-0.503-0.905-1.507-0.302-2.213C185.896,258.844,186.399,258.641,186.801,258.641
		L186.801,258.641L186.801,258.641z M186.801,268.701v7.949c-3.32-1.307-6.439-3.018-9.155-5.131v-8.954
		c2.213,0.704,4.728,0.604,7.445,0.101C185.292,264.981,185.896,266.992,186.801,268.701L186.801,268.701L186.801,268.701z
		 M177.646,236.911v-1.61c0.302-0.603,1.107-1.007,1.811-0.704c0.905,0.202,1.309,1.106,1.107,2.012
		c-0.302,0.804-1.208,1.307-2.011,1.006C178.149,237.514,177.847,237.212,177.646,236.911L177.646,236.911L177.646,236.911z
		 M177.646,219.906v-0.301l0.201,0.101C177.747,219.807,177.646,219.807,177.646,219.906L177.646,219.906L177.646,219.906z
		 M181.369,217.693c-1.107,0.807-2.314,0.906-2.817,0.303c-0.403-0.604,0.1-1.712,1.206-2.517c1.007-0.704,2.314-0.904,2.716-0.301
		C182.877,215.783,182.375,216.89,181.369,217.693L181.369,217.693z M177.646,219.605v0.301c-4.829,4.629-4.528,9.76-1.509,15.193
		c-5.734,2.716-9.055,6.842-7.747,13.583l-4.829-1.61c-0.101-1.408-0.201-2.817-0.201-4.326c0-9.457,3.622-18.11,9.658-24.549
		L177.646,219.605L177.646,219.605L177.646,219.605z M177.646,235.301c-0.101,0.101-0.101,0.202-0.201,0.301
		c-0.101,0.403,0,0.905,0.201,1.309V235.301L177.646,235.301L177.646,235.301z M177.646,262.565v8.954
		c-3.924-3.018-7.243-6.841-9.659-11.168l2.917-4.124C172.515,259.749,174.83,261.761,177.646,262.565L177.646,262.565
		L177.646,262.565z M170.1,252.304c0.403,1.307,0.101,2.514-0.603,2.716c-0.704,0.202-1.61-0.603-2.013-1.811
		c-0.402-1.307-0.1-2.514,0.604-2.716C168.793,250.191,169.698,251.095,170.1,252.304L170.1,252.304z"/>
	<path fill-rule="evenodd" clip-rule="evenodd" fill="#FFFFFF" d="M222.919,202.804v-3.018l0,0c0.303-0.805,0.402-1.61,0.101-2.314
		c0-0.1-0.101-0.201-0.101-0.302v-2.917c0.402,0.1,0.805,0,1.208-0.102c0.704-0.301,1.106-0.704,1.409-1.307
		c0.3-0.604,0.3-1.308,0.099-1.912c-0.301-0.604-0.804-1.107-1.709-1.509c-0.404-0.201-0.704-0.302-1.007-0.403v-1.81
		c0.504,0.1,1.106,0.301,1.711,0.503c1.408,0.704,2.413,1.509,2.817,2.616c0.503,1.107,0.503,2.314-0.101,3.421
		c-0.302,0.704-0.704,1.206-1.307,1.509c-0.605,0.403-1.207,0.503-1.811,0.503c0.704,0.805,1.107,1.61,1.206,2.415
		c0.103,0.704-0.099,1.509-0.502,2.415C224.529,201.596,223.825,202.3,222.919,202.804L222.919,202.804z M222.919,187.21v1.81
		c-0.502-0.1-0.904,0-1.307,0.101c-0.603,0.202-1.007,0.705-1.307,1.408c-0.303,0.604-0.303,1.309-0.101,1.912
		c0.201,0.603,0.805,1.207,1.709,1.61c0.302,0.1,0.704,0.201,1.006,0.201v2.917c-0.302-0.603-0.904-1.106-1.81-1.509
		c-0.402-0.201-0.804-0.302-1.208-0.403v-7.445c0.303-0.101,0.604-0.303,0.906-0.402C221.511,187.21,222.215,187.109,222.919,187.21
		L222.919,187.21L222.919,187.21z M222.919,199.786v3.018c-0.2,0.099-0.401,0.202-0.704,0.301c-0.704,0.302-1.508,0.302-2.314,0.201
		v-1.71c0.504,0,1.007,0,1.408-0.201C222.015,201.094,222.518,200.49,222.919,199.786L222.919,199.786z M219.901,187.814v7.445
		c-0.502,0-0.904,0-1.307,0.201c-0.805,0.302-1.309,0.805-1.711,1.61c-0.3,0.804-0.401,1.609-0.1,2.313
		c0.302,0.805,0.905,1.408,1.912,1.811c0.401,0.201,0.805,0.302,1.206,0.402v1.71c-0.603-0.1-1.307-0.3-2.011-0.603
		c-1.61-0.704-2.615-1.609-3.119-2.817c-0.502-1.309-0.402-2.515,0.101-3.722c0.503-1.006,1.007-1.711,1.711-2.113
		c0.702-0.402,1.509-0.503,2.514-0.503c-1.107-1.106-1.408-2.314-0.704-3.824C218.694,188.92,219.198,188.316,219.901,187.814
		L219.901,187.814L219.901,187.814z M191.53,199.283v-1.912c0.302,0.1,0.604,0.1,1.007,0c1.206-0.101,2.011-0.805,2.514-2.012
		c0.604-1.107,0.705-2.617,0.504-4.427c-0.303,0.604-0.705,1.107-1.309,1.509c-0.604,0.503-1.308,0.804-2.314,0.905
		c-0.1,0-0.302,0.1-0.403,0.1v-1.911c0.201,0,0.302,0,0.503,0c1.006-0.101,1.71-0.604,2.213-1.208
		c0.503-0.704,0.704-1.61,0.503-2.716c-0.101-0.905-0.503-1.71-1.208-2.315c-0.503-0.502-1.208-0.804-2.013-0.804v-1.71
		c1.509-0.101,2.717,0.402,3.723,1.408c1.107,1.207,1.811,2.917,2.113,5.232c0.403,2.415,0.201,4.628-0.402,6.439
		c-0.604,1.912-2.013,3.019-4.226,3.32C192.335,199.283,191.932,199.283,191.53,199.283L191.53,199.283L191.53,199.283z
		 M204.306,182.582l8.151,1.107l-0.202,1.912l-6.843-0.906l-1.306,4.326c0.503-0.301,1.005-0.502,1.509-0.603
		c0.504-0.101,1.107-0.101,1.61,0c1.61,0.201,2.817,0.805,3.722,1.912c0.807,1.107,1.207,2.414,1.007,3.822
		c-0.2,1.409-0.805,2.717-1.81,3.723c-1.107,1.107-2.617,1.409-4.83,1.107c-1.408-0.201-2.515-0.704-3.422-1.609
		c-0.904-0.906-1.306-2.113-1.106-3.521l2.112,0.301c-0.2,0.805,0.101,1.51,0.604,2.114c0.504,0.503,1.309,0.905,2.314,1.006
		c1.007,0.201,1.913-0.101,2.617-0.704c0.704-0.603,1.107-1.408,1.206-2.415c0.202-1.106,0-2.012-0.502-2.716
		c-0.604-0.704-1.408-1.107-2.415-1.308c-1.309-0.201-2.415,0.201-3.22,1.106l-1.71-0.301L204.306,182.582L204.306,182.582z
		 M175.633,192.241l-3.42,1.509l-0.604-1.308c1.208-0.604,2.012-1.208,2.415-1.811c0.402-0.604,0.502-1.51,0.201-2.817l1.509-0.705
		l6.841,14.588l-2.012,0.907L175.633,192.241L175.633,192.241L175.633,192.241z M191.53,182.783v1.71c-0.201,0-0.302,0.1-0.503,0.1
		c-1.006,0.101-1.811,0.604-2.213,1.408c-0.503,0.705-0.704,1.611-0.503,2.516c0.1,1.107,0.503,1.912,1.207,2.415
		c0.503,0.503,1.208,0.704,2.012,0.604v1.911c-1.206,0.1-2.314-0.201-3.32-0.905c-1.107-0.704-1.71-1.911-2.012-3.622
		c-0.1-1.308,0.101-2.616,0.805-3.823c0.604-1.309,1.912-2.012,3.723-2.314C190.926,182.783,191.228,182.783,191.53,182.783
		L191.53,182.783L191.53,182.783z M191.53,197.371v1.912c-0.804-0.101-1.61-0.302-2.314-0.705c-1.006-0.704-1.509-1.609-1.71-2.917
		l1.912-0.302C189.82,196.566,190.524,197.27,191.53,197.371L191.53,197.371z"/>
	<path fill-rule="evenodd" clip-rule="evenodd" fill="#FFFFFF" d="M232.176,290.736v-5.232l2.515,4.326l-2.315,1.307
		L232.176,290.736L232.176,290.736L232.176,290.736z M232.176,279.266l7.041,6.44l1.812-1.912l-2.818-9.457l6.139,5.834l1.709-1.811
		l-9.154-8.551l-1.811,1.913l2.916,9.457l-5.833-5.333V279.266L232.176,279.266L232.176,279.266z M232.176,274.337v-1.308
		c0.2-0.101,0.401-0.202,0.502-0.403c0.502-0.704,0.704-1.608,0.704-2.817c0.101,0.202,0.302,0.303,0.502,0.402
		c0.102,0.202,0.303,0.303,0.404,0.403c0,1.207-0.101,2.113-0.704,2.817C233.283,273.834,232.78,274.135,232.176,274.337
		L232.176,274.337z M232.176,273.029v1.308c-0.303,0.1-0.706,0.201-1.209,0.302c-0.099-0.202-0.3-0.302-0.403-0.404
		c-0.2-0.201-0.4-0.3-0.502-0.401C230.869,273.633,231.672,273.431,232.176,273.029L232.176,273.029L232.176,273.029z
		 M232.176,275.845v3.42l-2.213-2.011l1.811-1.911L232.176,275.845L232.176,275.845L232.176,275.845z M232.176,285.504l-3.824-6.539
		l-1.711,1.005v1.107l5.535,9.659V285.504L232.176,285.504L232.176,285.504z M226.642,294.458v-2.617
		c0.101-0.2,0.202-0.301,0.302-0.402c0.202-0.401,0.202-0.905-0.201-1.509c0-0.1-0.101-0.201-0.101-0.201v-3.019l0,0
		c1.006,0.202,1.812,0.805,2.415,1.912c0.603,1.106,0.803,2.112,0.502,3.019c-0.301,0.904-1.005,1.709-2.213,2.314L226.642,294.458
		L226.642,294.458z M226.642,279.97v1.107l-0.502-0.805L226.642,279.97L226.642,279.97L226.642,279.97z M226.642,286.711v3.019
		c-0.402-0.503-0.704-0.705-1.105-0.705c-0.404,0-0.906,0.202-1.409,0.404l-2.012,1.206l1.71,2.917l2.012-1.206
		c0.303-0.101,0.605-0.303,0.805-0.504v2.617l-4.025,2.314l-6.136-10.564v-0.402l2.112-1.209l2.516,4.225l2.413-1.408
		C224.63,286.811,225.636,286.511,226.642,286.711L226.642,286.711L226.642,286.711z M216.481,298.785v-0.806l0.201,0.704
		L216.481,298.785L216.481,298.785z M216.481,285.807v0.402l-0.101-0.303L216.481,285.807L216.481,285.807L216.481,285.807z
		 M216.481,297.979v0.806l-2.314,0.603l-1.408-5.431l-4.73,1.105l1.308,5.434l-2.514,0.704l-3.018-12.175l2.514-0.603l1.208,4.629
		l4.729-1.208l-1.107-4.627l2.516-0.605L216.481,297.979L216.481,297.979L216.481,297.979z M183.28,298.986v-2.415
		c0.403,0,0.905-0.202,1.308-0.505c0.805-0.502,1.408-1.406,1.811-2.615c0.503-1.207,0.503-2.314,0.202-3.22
		c-0.302-1.005-1.007-1.608-2.013-1.911c-0.403-0.202-0.905-0.301-1.308-0.202v-2.413c0.604,0,1.308,0.2,2.113,0.401
		c1.71,0.604,2.918,1.711,3.522,3.22c0.603,1.509,0.603,3.218,0,5.03c-0.604,1.812-1.611,3.119-3.019,3.924
		C184.99,298.683,184.185,298.986,183.28,298.986L183.28,298.986L183.28,298.986z M196.46,293.653l0.503,0.101
		c0.502,0,0.905-0.101,1.307-0.403c0.302-0.301,0.503-0.704,0.503-1.207c0-0.603-0.1-1.006-0.503-1.307
		c-0.403-0.302-0.805-0.504-1.208-0.504c-0.603,0-1.107,0.101-1.508,0.403c-0.303,0.303-0.604,0.805-0.705,1.408l-2.313-0.101
		c0.1-1.005,0.502-1.811,1.106-2.615c0.604-0.805,1.811-1.208,3.622-1.107c1.509,0,2.415,0.403,3.017,1.107
		c0.706,0.704,1.008,1.507,0.906,2.514c0,0.502-0.1,1.006-0.402,1.408c-0.302,0.502-0.804,0.805-1.508,1.006
		c0.603,0.202,1.107,0.603,1.609,1.005c0.403,0.403,0.603,1.209,0.603,2.316c-0.101,1.106-0.502,2.012-1.307,2.817
		c-0.805,0.704-2.013,1.005-3.622,0.904c-1.107,0-2.112-0.301-3.018-1.005c-0.906-0.603-1.409-1.61-1.61-3.119l2.415,0.1
		c0.201,0.603,0.403,1.007,0.704,1.409c0.302,0.401,0.805,0.603,1.61,0.603c0.704,0,1.308-0.201,1.71-0.502
		c0.302-0.403,0.503-0.805,0.603-1.408c0-0.704-0.201-1.208-0.603-1.509c-0.403-0.202-0.906-0.403-1.408-0.403h-0.604
		L196.46,293.653L196.46,293.653z M183.28,285.706v2.413c-0.503,0-0.905,0.202-1.408,0.504c-0.805,0.503-1.409,1.408-1.811,2.615
		c-0.503,1.206-0.503,2.314-0.201,3.22c0.302,1.007,1.006,1.608,2.012,2.011c0.402,0.102,0.905,0.202,1.408,0.102v2.415
		c-0.704,0-1.408-0.201-2.213-0.403c-1.811-0.604-3.018-1.709-3.622-3.22c-0.604-1.509-0.503-3.118,0.1-4.929
		c0.604-1.911,1.61-3.218,3.018-4.024C181.369,285.906,182.274,285.706,183.28,285.706L183.28,285.706L183.28,285.706z
		 M171.71,288.823c0.503,0.201,1.006,0.201,1.61,0.201c1.005-0.201,1.911-0.804,2.514-1.709c0.805-1.007,1.107-2.013,1.006-3.018
		c-0.101-0.906-0.704-1.812-1.811-2.516l-3.32-2.516v2.717l1.61,1.206c0.502,0.301,0.805,0.704,0.905,1.108
		c0,0.502-0.1,0.904-0.503,1.408c-0.302,0.603-0.705,0.904-1.208,0.904c-0.302,0-0.503,0-0.805-0.2V288.823L171.71,288.823z
		 M165.774,273.733l2.716,3.119l-1.711,1.408l-1.006-1.208V273.733L165.774,273.733L165.774,273.733z M171.71,279.266v2.717
		l-0.403-0.303l-2.213,3.019l2.012,1.408c0.201,0.202,0.403,0.303,0.604,0.303v2.413c-0.503-0.099-1.006-0.402-1.509-0.704
		l-2.314-1.709l-2.112,2.918v-4.427l4.728-6.541L171.71,279.266L171.71,279.266z M162.555,270.111l3.22,3.622v3.319l-3.119-3.622
		l-7.847,6.841l-1.711-2.012L162.555,270.111L162.555,270.111L162.555,270.111z M165.774,284.901v4.427l-0.603,0.704l-2.114-1.509
		L165.774,284.901L165.774,284.901z"/>
	<path fill-rule="evenodd" clip-rule="evenodd" d="M197.365,73.824v-6.036h3.42c1.711,0,2.918-0.302,3.521-0.905
		c0.706-0.604,1.106-1.409,1.106-2.314c0-0.905-0.301-1.711-0.904-2.414c-0.603-0.604-1.71-0.906-3.42-0.906h-3.723v-6.036h9.257
		c3.118,0,5.531,0.804,7.141,2.314c1.611,1.61,2.415,3.824,2.415,6.741c0,3.018-0.804,5.332-2.615,7.043
		c-1.711,1.71-4.427,2.515-7.949,2.515H197.365L197.365,73.824L197.365,73.824z M243.746,56.62l32.597,6.238l-1.107,5.735
		l-22.334-4.225l-0.906,4.829l17.305,3.421l-1.208,6.338l-17.507-3.32l-1.005,5.836l21.932,3.822l-1.106,6.339l-31.994-5.533
		L243.746,56.62L243.746,56.62L243.746,56.62z M304.915,70.001l8.954,2.415l-2.817,9.759l6.238,1.61l11.368-6.74l11.37,3.119
		l-15.494,11.268l5.934,16.097l-10.563-2.917l-4.528-11.973l-7.142-1.811l-2.215,8.753l-8.549-2.315L304.915,70.001L304.915,70.001z
		 M58.727,79.861l33.906-10.965l1.911,7.042L83.376,79.66l6.238,21.429l-11.771,3.622l-6.339-21.128l-10.865,3.319L58.727,79.861
		L58.727,79.861L58.727,79.861z M197.365,55.212v6.036h-8.049v6.54h8.049v6.036h-8.049v10.966h-10.363V55.212H197.365
		L197.365,55.212L197.365,55.212z M120.099,62.757l31.489-4.829l0.805,6.238l-20.826,3.22l0.603,4.628l16.601-2.716l0.805,6.036
		l-16.601,2.716l0.805,5.735l21.731-3.622l0.905,6.64l-32.295,5.332L120.099,62.757L120.099,62.757z"/>
	<path fill-rule="evenodd" clip-rule="evenodd" fill="#FFFFFF" d="M197.365,72.013v-2.415h3.42c2.415,0,4.427-0.403,5.734-2.515
		c0.906-1.811,0.906-3.622-0.099-5.333c-1.309-1.911-3.119-2.313-5.333-2.313h-3.723v-2.415h9.154c1.812,0,3.422,0.201,5.032,1.006
		c1.709,1.208,2.514,2.817,2.716,4.93c0.2,1.912,0.1,3.924-0.906,5.634c-1.711,2.817-4.829,3.421-7.747,3.421H197.365
		L197.365,72.013L197.365,72.013z M245.154,58.733l29.077,5.533l-0.404,2.213l-22.435-4.225l-1.61,8.35l17.404,3.421l-0.603,2.817
		l-17.406-3.32l-1.709,9.457l21.932,3.823l-0.502,2.717l-28.371-4.93L245.154,58.733L245.154,58.733L245.154,58.733z
		 M306.223,72.215l5.435,1.408l-2.818,9.759l8.752,2.415l11.269-6.841l7.043,2.012l-13.481,9.86l5.13,13.985l-6.237-1.71
		l-4.629-11.972l-9.759-2.516l-2.212,8.753l-5.031-1.409L306.223,72.215L306.223,72.215z M60.941,81.068l30.383-9.86l1.006,3.622
		l-11.267,3.622l6.338,21.43l-8.351,2.515L72.812,81.37l-10.866,3.22L60.941,81.068L60.941,81.068L60.941,81.068z M197.365,57.023
		v2.415h-9.86v10.161h9.86v2.415h-9.86V82.98h-6.74V57.023H197.365L197.365,57.023L197.365,57.023z M122.111,64.267l27.969-4.326
		l0.302,2.716l-20.826,3.22l1.107,8.25l16.6-2.716l0.302,2.415l-16.6,2.716l1.308,9.358l21.631-3.623l0.403,3.018l-28.673,4.729
		L122.111,64.267L122.111,64.267z"/>
	<path fill-rule="evenodd" clip-rule="evenodd" d="M110.741,270.21c3.924,4.126,9.358,6.741,15.193,6.741
		c4.929,0,9.457-1.81,13.179-4.828c5.432,11.167,13.783,20.523,24.146,27.164c-2.918,1.408-6.137,2.112-9.457,2.112
		c-5.231,0-10.06-1.81-13.883-4.828c-3.924,3.018-8.752,4.828-13.984,4.828c-4.528,0-8.853-1.408-12.475-3.822
		c-4.025-6.037-7.848-12.275-11.37-18.613L110.741,270.21L110.741,270.21z"/>
	<path fill-rule="evenodd" clip-rule="evenodd" d="M139.918,314.781c3.923,4.025,9.255,6.438,14.99,6.438
		c4.628,0,8.954-1.507,12.476-4.225v25.957c-3.421,2.617-7.546,4.227-11.973,4.326c-8.149-7.846-15.997-16.097-23.241-24.749
		L139.918,314.781L139.918,314.781z"/>
	<path fill-rule="evenodd" clip-rule="evenodd" d="M288.013,270.21c-3.924,4.126-9.357,6.741-15.191,6.741
		c-4.93,0-9.458-1.81-13.181-4.828c-5.432,11.167-13.782,20.523-24.146,27.164c2.918,1.408,6.138,2.112,9.457,2.112
		c5.233,0,9.961-1.81,13.885-4.828c3.924,3.018,8.751,4.828,13.985,4.828c4.526,0,8.853-1.408,12.475-3.822
		c4.025-6.037,7.747-12.275,11.368-18.613L288.013,270.21L288.013,270.21z"/>
	<path fill-rule="evenodd" clip-rule="evenodd" d="M258.837,314.781c-3.924,4.025-9.257,6.438-14.991,6.438
		c-4.629,0-8.954-1.507-12.475-4.225v25.957c3.42,2.617,7.544,4.227,11.971,4.326c8.149-7.846,15.998-16.097,23.241-24.749
		L258.837,314.781L258.837,314.781z"/>
	<path fill-rule="evenodd" clip-rule="evenodd" fill="#1E439B" d="M138.409,274.839c2.213,4.326,5.03,8.25,8.048,11.972
		c3.723,4.427,8.149,8.753,12.878,12.074c-3.118,0.805-6.238,1.007-9.457,0.402c-3.923-0.904-6.841-2.615-9.96-5.031
		c-4.528,3.422-8.954,5.434-14.789,5.333c-3.723-0.202-7.243-1.307-10.363-3.321c-3.723-5.533-7.144-11.267-10.464-17.003
		l6.439-6.539c4.126,3.722,9.156,5.835,14.588,6.036C130.058,278.763,134.485,277.557,138.409,274.839L138.409,274.839z"/>
	<path fill-rule="evenodd" clip-rule="evenodd" fill="#1E439B" d="M153.801,323.031c3.924,0.201,8.25-0.705,11.772-2.716v21.73
		c-2.918,2.013-5.936,3.018-9.457,3.321l0,0c-7.546-7.243-14.688-14.789-21.53-22.737l5.434-5.333
		C143.841,320.717,148.57,322.73,153.801,323.031L153.801,323.031z"/>
	<path fill-rule="evenodd" clip-rule="evenodd" fill="#1E439B" d="M260.345,274.839c-2.212,4.326-5.029,8.25-8.047,11.972
		c-3.723,4.427-8.149,8.753-12.878,12.074c3.119,0.805,6.237,1.007,9.457,0.402c3.924-0.904,6.84-2.615,9.961-5.031
		c4.526,3.422,8.953,5.434,14.788,5.333c3.723-0.202,7.243-1.307,10.363-3.321c3.723-5.533,7.144-11.267,10.464-17.003l-6.44-6.539
		c-4.124,3.722-9.154,5.835-14.588,6.036C268.696,278.763,264.269,277.557,260.345,274.839L260.345,274.839z"/>
	<path fill-rule="evenodd" clip-rule="evenodd" fill="#1E439B" d="M244.953,323.031c-3.923,0.201-8.249-0.705-11.772-2.716v21.73
		c2.918,2.013,5.936,3.018,9.457,3.321l0,0c7.445-7.243,14.69-14.789,21.532-22.737l-5.433-5.333
		C254.913,320.717,250.186,322.73,244.953,323.031L244.953,323.031z"/>
	<path fill-rule="evenodd" clip-rule="evenodd" fill="#FFFFFF" d="M76.366,149.485c79.32-29.456,166.657-29.321,245.982,0.405
		c0.254-1.638,0.508-3.275,0.76-4.912c-79.753-29.935-167.665-29.92-247.418,0.044C75.915,146.509,76.141,147.997,76.366,149.485
		L76.366,149.485z"/>
	<path fill-rule="evenodd" clip-rule="evenodd" fill="#ED5128" d="M77.254,154.788c78.801-29.138,165.444-29.114,244.248,0.071
		c0.324-1.83,0.649-3.66,0.973-5.489c-79.36-29.584-166.746-29.546-246.109,0.115C76.662,151.252,76.958,153.02,77.254,154.788
		L77.254,154.788z"/>
	<path fill-rule="evenodd" clip-rule="evenodd" fill="#ED5128" d="M75.747,145.023c79.724-29.844,167.597-29.762,247.319,0.245
		c0.239-1.824,0.478-3.648,0.718-5.472c-80.158-30.325-168.612-30.362-248.769-0.11C75.259,141.465,75.502,143.244,75.747,145.023
		L75.747,145.023z"/>
</g>
</svg>
