<?xml version="1.0" encoding="utf-8"?>
<!-- Generator: Adobe Illustrator 19.0.0, SVG Export Plug-In . SVG Version: 6.00 Build 0)  -->
<svg version="1.1"
	 id="svg2" sodipodi:docname="Logo-CSP-1929-vect-filet-blanc2.svg" inkscape:version="0.48.2 r9819" xmlns:inkscape="http://www.inkscape.org/namespaces/inkscape" xmlns:sodipodi="http://sodipodi.sourceforge.net/DTD/sodipodi-0.dtd" xmlns:svg="http://www.w3.org/2000/svg" xmlns:rdf="http://www.w3.org/1999/02/22-rdf-syntax-ns#" xmlns:dc="http://purl.org/dc/elements/1.1/" xmlns:cc="http://creativecommons.org/ns#"
	 xmlns="http://www.w3.org/2000/svg" xmlns:xlink="http://www.w3.org/1999/xlink" x="0px" y="0px" viewBox="-117 119 604 604"
	 style="enable-background:new -117 119 604 604;" xml:space="preserve">
<style type="text/css">
	.st0{fill:#007944;}
	.st1{fill:#FFFFFF;}
</style>
<sodipodi:namedview  inkscape:guide-bbox="true" inkscape:current-layer="svg2" inkscape:window-maximized="1" inkscape:window-y="-8" inkscape:window-x="-8" inkscape:window-height="706" inkscape:pageshadow="2" inkscape:pageopacity="0" inkscape:window-width="1366" gridtolerance="10" showgrid="false" guidetolerance="10" id="namedview4" pagecolor="#ffffff" bordercolor="#666666" objecttolerance="10" borderopacity="1" inkscape:zoom="0.25" showguides="true" inkscape:cy="697.85165" inkscape:cx="1253.5349">
	</sodipodi:namedview>
<g id="g3908" transform="translate(0,-1168)">
	
		<path id="path3904" sodipodi:ry="692.96466" sodipodi:cx="661.85193" sodipodi:cy="742.45251" sodipodi:rx="692.96466" sodipodi:type="arc" class="st0" d="
		M476,1589c0,160.7-130.3,291-291,291s-291-130.3-291-291s130.3-291,291-291S476,1428.3,476,1589L476,1589z"/>
	<path id="path2987" inkscape:connector-curvature="0" sodipodi:nodetypes="ccccccccccccccccc" class="st1" d="M-25.2,1504.7
		l23.9-21.4l67.8-0.2l25.2,21.6l-0.4,33l-37.9,0v-16.5l-40.7,0.1l0,128.9l40.3-0.1l0.1-16.7l38.8,0.1l-0.4,33.6l-24.8,21.2
		l-67.8-0.1l-24.2-21.5L-25.2,1504.7z"/>
	<path id="path2989" inkscape:connector-curvature="0" sodipodi:nodetypes="ccccccccccccccccccccccc" class="st1" d="M147.5,1412.1
		l65.1,0l24.7,21.7l-0.1,33l-38.2,0.1l0.2-16.7h-38.5l0,45.5l52.2,0.1l24.4,21.4l0,78.8l-23.4,21.5l-66.4-0.1l-24.5-21.1l-0.1-33.4
		l38.5,0l-0.1,16.5l38.1,0.2l0-45.6l-51.8-0.1l-24.4-21.2l-0.1-78.7L147.5,1412.1z"/>
	<path id="path2991" inkscape:connector-curvature="0" class="st1" d="M275.8,1483.2l0,38l10.9-0.1l0.1,129.3l-11-0.1l0,38l59.5,0
		l0.1-37.9h-11l0-31.7l52.3-0.1l24.3-21.4l0.1-92.3l-24.2-21.7L275.8,1483.2L275.8,1483.2z M324.6,1520.8h38.1v59.9h-38.1V1520.8z"
		/>
	<path id="path8347" inkscape:connector-curvature="0" class="st1" d="M185.6,1650.8l12.2,37.1l38.8,0l-31.5,23l12,36.9l-31.6-22.8
		l-31.4,22.8l11.9-37.1l-31.4-22.8l39-0.1L185.6,1650.8L185.6,1650.8z"/>
	<path id="path3030" inkscape:connector-curvature="0" sodipodi:nodetypes="cccccccccccccccc" class="st1" d="M30.1,1728.5l-6.4,6.8
		l2.2,1.8l-21.8,22.6l-2.2-1.9l-6.7,7.1l18.7,17.7h8.4l26.7-28l0.1-8.3L30.1,1728.5z M32.2,1743.9l7.4,6.7L18,1773.3l-7.3-6.9
		L32.2,1743.9z"/>
	<path id="path3034" inkscape:connector-curvature="0" sodipodi:nodetypes="ccccccccccccccccccccc" class="st1" d="M58.8,1754.8
		l-5.3,8.1l2.2,1.6l-17.2,25.9l-2.1-1.4l-5.3,7.7l24.7,16.1l7.6-11.1l-8-5.5l-2.3,3.4l-6.7-4.3l5.8-8.9l10.7,6.9l5.5-7.9l-11-7.1
		l6-9l6.9,4.5l-2.3,3.2l7.9,5.3l7.3-11.4L58.8,1754.8z"/>
	<path id="path3036" inkscape:connector-curvature="0" class="st1" d="M89.8,1774.6l-3.7,8.5l2.5,1l-12.5,29l-2.5-1.1l-3.7,8.5
		l13.4,5.7l3.7-8.5l-2.5-1.1l3.1-7.1l11.8,5l7.6-2.5l9-20.7l-3.4-7.2L89.8,1774.6L89.8,1774.6z M97.2,1787.8l8.6,3.7l-5.8,13.5
		l-8.6-3.7L97.2,1787.8z"/>
	<path id="path3039" inkscape:connector-curvature="0" sodipodi:nodetypes="ccccccccccccccccccccccc" class="st1" d="M195,1797.2
		l15.9-1.2l6.4,4.9l0.6,8l-9.3,0.7l-0.2-4.1l-9.4,0.7l0.8,11.1l12.7-0.9l6.3,4.8l1.4,19.2l-5.3,5.7l-16.2,1.2l-6.4-4.7l-0.6-8.2
		l9.4-0.7l0.3,4l9.3-0.6l-0.8-11.1l-12.6,0.9l-6.3-4.7l-1.4-19.2L195,1797.2z"/>
	<path id="path3043" inkscape:connector-curvature="0" sodipodi:nodetypes="ccccccccccccccccccccccc" class="st1" d="M357.7,1379.2
		l13.9,12.6l1.1,9.4l-6.4,7l-8.2-7.4l3.3-3.5l-8.2-7.4l-8.8,9.7l11.1,10.1l1.1,9.3l-15.2,16.8l-9.2,0.1l-14.2-12.9l-1.2-9.3l6.4-7.2
		l8.2,7.5l-3.2,3.5l8.1,7.4l8.8-9.8l-11.1-10l-1.1-9.3l15.2-16.8L357.7,1379.2z"/>
	<path id="path3045" inkscape:connector-curvature="0" sodipodi:nodetypes="ccccccccccccccccccccc" class="st1" d="M295.7,1341.2
		l-5.2,10.1l2.7,1.6l-16.9,32.3l-2.6-1.3l-5.3,9.6l30.7,15.9l7.6-13.8l-10-5.4l-2.3,4.3l-8.4-4.2l5.8-11.1l13.3,6.8l5.5-9.9l-13.6-7
		l5.9-11.2l8.6,4.4l-2.3,4l9.8,5.2l7.2-14.2L295.7,1341.2z"/>
	<path id="path3054" inkscape:connector-curvature="0" sodipodi:nodetypes="ccccccccccccccccccc" class="st1" d="M124.6,1789.1
		l14.5,2.9l-2,9.3l-2.7-0.5l-6.2,30.7l9.4,2.2l7-30.7l-2.7-0.4l1.6-9.3l14.5,2.9l-1.7,9.2l-2.8-0.4l-7.4,34.9l-7.1,3.7l-16.5-3.4
		l-4.7-6.6l7.6-34.7l-2.7-0.5L124.6,1789.1z"/>
	<path id="path3067" inkscape:connector-curvature="0" sodipodi:nodetypes="ccccccccccccc" class="st1" d="M48.2,1356.2l15.3-8.7
		l5.7,9.9l-3,1.7l17.5,31.8l2.8-1.6l5.4,9.8l-15,8.5l-5.7-9.8l2.9-1.8l-17.3-31.8l-2.8,1.6L48.2,1356.2z"/>
	<path id="path3069" inkscape:connector-curvature="0" sodipodi:nodetypes="ccccccccccccc" class="st1" d="M165.8,1796.7l14.6,0.7
		l-0.3,9.7l-2.9-0.1l-1.7,30.8l2.7,0.1l-0.6,9.5l-14.4-0.7l0.3-9.7l2.9,0l1.9-30.7l-2.7-0.1L165.8,1796.7z"/>
	<path id="path3071" inkscape:connector-curvature="0" sodipodi:nodetypes="ccccccccccccccc" class="st1" d="M-1.5,1393.2l13.2-11.2
		l7.2,8.3l-2.3,2l23.3,27.9l6.3-5.1l-3.1-3.5l8.4-7.1l10.2,12.1L36.4,1438l-7.1-8.6l2.3-2l-23.8-27.9l-2,2L-1.5,1393.2z"/>
	<path id="path3073" inkscape:connector-curvature="0" sodipodi:nodetypes="cccccccccccccc" class="st1" d="M176.2,1318.7l-7,6.1
		l0,46.4l6.8,6.4l20.2-0.2l6.8-6l0.2-46.5l-6.9-6.1L176.2,1318.7z M192.2,1329.5l0,36.7l-12.1,0.2l0-36.9L192.2,1329.5z"/>
	<path id="path3078" inkscape:connector-curvature="0" sodipodi:nodetypes="ccccccccccccccccccc" class="st1" d="M241,1324.3
		l18.8,4.5l5,7.7l-1.9,9.1l-10.7-2.6l1-4.6l-11.3-2.5l-8.7,35.6l11.5,2.6l3-12.7l-7.4-1.4l2.4-10.8l17.9,4.2l-6.8,28.1l-8.6,4.4
		l-19.4-5.1l-4.5-7.5l11-44.6L241,1324.3z"/>
	<path id="path3886" inkscape:connector-curvature="0" sodipodi:nodetypes="ccccccccccccccccccccccccc" class="st1" d="M91.7,1334.7
		l13.6-3.6l14.1,16.5l3.5-21.5l13.9-3.7l2.7,10.5l-3.1,0.9l9.8,35.1l3.2-0.8l2.8,10.9l-16.5,4.7l-3-11l3-0.8l-5.6-20.8l-3.7,21.6
		l-14.3-16.7l5.4,21l3.6-0.8l2.5,10.7l-16.7,4.6l-2.8-10.8l3-0.8l-9.4-35.4l-3.2,0.8L91.7,1334.7z"/>
	<path id="path3888" inkscape:connector-curvature="0" sodipodi:nodetypes="cccccccccccccccccccccc" class="st1" d="M350.2,1789.3
		l-2.9-3.9l-4.8-6.6l-7.6,5.5l2.5,3.3l-7.7,5.5l-6.6-9.1l10.4-7.5l1.8-7.8l-11.3-15.7l-7.8-0.9l-13.3,9.6l-1.9,7.7l4.8,6.7l7.7-5.5
		l-2.4-3.3l7.6-5.5l6.6,9.1l-10.3,7.5l-1.8,7.8l14.5,19.8C333.6,1801.9,344.2,1793.6,350.2,1789.3L350.2,1789.3z"/>
	<g id="g3897" transform="matrix(0.37642824,0,0,0.37642824,-32.057402,1135.7922)">
		<path id="path3890" inkscape:connector-curvature="0" sodipodi:nodetypes="ccccccccccccccccccccc" class="st1" d="M844.9,1689.9
			l-38.2,19.1l-8.1,20.2l22.6,44.6l20.4,5.9l30.4-15.6l13.3,26.7l-22.7,11.4l-4.5-9.4l-22.2,10.8l10.5,18.6l20.7,5.4l37.8-19
			l7.1-19.8l-45.7-93.4L844.9,1689.9z M847.7,1716.8l13.2,25.6l-21.8,11.1l-13.4-26.1L847.7,1716.8z"/>
	</g>
	<path id="path3895" inkscape:connector-curvature="0" sodipodi:nodetypes="cccccccccccc" class="st1" d="M245.4,1791.2
		c1.5-1.3,3.2-2.8,4.8-4l6.2-1.7l12.4,38.6l2.6-0.9l3.1,8.9l-14,4.8l-3.1-9l2.7-0.9l-9.1-27.8l-2.7,0.9L245.4,1791.2z"/>
	<g id="g3900" transform="matrix(0.35330615,-0.12989604,0.12989604,0.35330615,-128.38811,1273.9559)">
		<path id="path3902" inkscape:connector-curvature="0" sodipodi:nodetypes="ccccccccccccccccccccc" class="st1" d="M755.1,1563.1
			l-38.2,19.1l-8.1,20.2l22.6,44.6l20.4,5.9l30.4-15.6l13.3,26.7l-22.7,11.4l-4.5-9.4L746,1677l10.5,18.6l20.7,5.4l37.8-19l7.1-19.8
			l-45.7-93.4L755.1,1563.1z M757.9,1589.9l13.2,25.6l-21.8,11.1l-13.4-26.1L757.9,1589.9z"/>
	</g>
</g>
</svg>
