<?xml version="1.0" encoding="utf-8"?>
<!-- Generator: Adobe Illustrator 19.0.0, SVG Export Plug-In . SVG Version: 6.00 Build 0)  -->
<svg version="1.1" id="Layer_1" xmlns="http://www.w3.org/2000/svg" xmlns:xlink="http://www.w3.org/1999/xlink" x="0px" y="0px"
	 viewBox="0 0 400 400" style="enable-background:new 0 0 400 400;" xml:space="preserve">
<style type="text/css">
	.st0{fill:#FFFFFF;stroke:#000000;stroke-width:14;}
	.st1{fill:none;stroke:#EA2A2D;stroke-width:5;}
	.st2{fill:#EA2A2D;}
	.st3{fill:none;stroke:#000000;stroke-width:5;stroke-linecap:square;}
	.st4{fill:none;stroke:#000000;stroke-width:5;}
</style>
<path id="XMLID_26_" class="st0" d="M197.2,390c61.9,0,113.6-85.1,113.6-190S259.1,10,197.2,10S83.6,95.1,83.6,200
	S135.3,390,197.2,390z"/>
<path id="XMLID_25_" class="st1" d="M197.2,390c61.9,0,113.6-85.1,113.6-190S259.1,10,197.2,10S83.6,95.1,83.6,200
	S135.3,390,197.2,390z"/>
<polygon id="XMLID_24_" points="178.1,305 178.1,98.4 159,98.4 159,297.7 "/>
<polygon id="XMLID_23_" class="st2" points="159,297.7 159,98.4 139.9,110.2 139.9,290.3 "/>
<polygon id="XMLID_22_" points="139.9,290.3 139.9,110.2 120.9,124.9 120.9,275.6 "/>
<polygon id="XMLID_21_" class="st2" points="120.8,275.6 120.8,124.9 101.8,154.2 101.8,246.3 "/>
<polygon id="XMLID_20_" points="101.7,249.2 101.7,149.8 93,171.9 93,231.6 "/>
<line id="XMLID_19_" class="st3" x1="233.9" y1="102.7" x2="233.9" y2="297.7"/>
<line id="XMLID_18_" class="st3" x1="260.3" y1="116.7" x2="260.3" y2="283.7"/>
<line id="XMLID_17_" class="st3" x1="200.9" y1="213.3" x2="300.5" y2="213.3"/>
<line id="XMLID_16_" class="st3" x1="200.9" y1="186.8" x2="300.5" y2="186.8"/>
<polygon id="XMLID_15_" class="st2" points="304.9,190.4 256.6,190.4 256.6,114.6 237.6,102.8 237.6,190.4 197.2,190.4 197.2,92.6 
	178.1,95.5 178.1,305 197.2,305 197.2,209.5 237.6,209.5 237.6,297.7 256.6,290.3 256.6,209.5 304.9,209.5 "/>
<line id="XMLID_14_" class="st3" x1="200.9" y1="95.4" x2="200.9" y2="305.4"/>
<circle id="XMLID_13_" class="st4" cx="197.2" cy="200" r="105.9"/>
<path id="XMLID_44_" d="M143.9,311.6l1,0.4c6.6,2.4,9.4-0.1,10.4-2.4l5.6,2l-11.3,31.4l-6.8-2.5l7.8-21.6l-8.2-3L143.9,311.6z"/>
<path id="XMLID_40_" d="M176.1,328.8c-3.1-0.5-4.3-2.8-4-4.8c0.4-2.4,2.3-3.8,5.5-3.3c2.3,0.3,4,2.2,3.6,4.7
	C180.8,327.7,178.9,329.2,176.1,328.8z M187.1,340.5c0.6-4.3-1-6.7-4.2-8.8c3.1-1,4.8-3.2,5.2-6c0.7-4.6-2.7-9.2-10.2-10.3
	c-6.3-1-11.8,1.7-12.7,7.3c-0.5,3.1,0.8,5.4,3.4,7.1c-5.9,1.5-6.5,5.9-6.8,7.5c-0.7,4.5,1.7,10.5,11.1,11.9
	C182.6,350.7,186.5,344.7,187.1,340.5z M179.7,339.6c-0.3,2.3-2.2,5-5.9,4.4c-3.3-0.5-4.9-2.9-4.5-6c0.5-3.6,3.3-4.7,5.9-4.3
	C179.2,334.3,180.1,337.3,179.7,339.6z"/>
<path id="XMLID_37_" d="M200.9,327.8c-0.4-4.8,2.9-5.9,4.7-6.1c3.7-0.3,5.7,1.9,6,5.7c0.3,3.9-2.3,5.8-4.8,6
	C204.1,333.6,201.3,332.8,200.9,327.8z M195.6,342.9c1.1,5.2,5.8,8.1,12,7.6c6.6-0.5,12.9-5.3,11.9-18.1c-0.4-4.7-1.6-17.1-14.3-16
	c-7.2,0.6-12.2,4.8-11.5,13c0.5,5.6,4.9,10.1,11.9,9.5c2.5-0.2,5.3-1,6.7-3.4l0.1,0.1c0.5,7-2.3,9.5-5.3,9.8
	c-2.2,0.2-3.9-0.7-4.5-2.9l0,0L195.6,342.9z"/>
<path id="XMLID_34_" d="M231.7,322.7c-1.5-4.5,1.4-6.4,3.1-7c3.5-1.2,6,0.4,7.2,4c1.3,3.7-0.8,6.2-3.2,7
	C236.2,327.7,233.3,327.5,231.7,322.7z M230.3,338.7c2.3,4.8,7.6,6.5,13.5,4.5c6.3-2.1,11.3-8.3,7.1-20.5
	c-1.5-4.4-5.7-16.2-17.8-12.1c-6.8,2.3-10.6,7.6-8,15.4c1.8,5.3,7.2,8.6,13.9,6.3c2.3-0.8,4.9-2.3,5.7-4.9l0.1,0.1
	c2.2,6.6,0.1,9.8-2.7,10.8c-2.1,0.7-3.9,0.3-5.1-1.7l0,0L230.3,338.7z"/>
<path id="XMLID_32_" d="M199,41c-10.2,0.2-19.2,8.2-19,17.9c0.2,9.7,9.3,17.4,19.6,17.2c5.1-0.1,9.8-1.9,13.1-5l5.1,4.7
	c-4.6,4.3-11.1,6.9-18.2,7c-14.7,0.2-26.9-10.4-27.1-23.8c-0.2-13.4,11.4-24.6,26.4-24.8c7.1-0.1,13.5,2.2,18.2,6.4l-5,4.9
	C208.7,42.6,204.1,41,199,41z"/>
<polygon id="XMLID_3_" points="229.5,42.9 217.7,83.8 223.6,85.3 231,61.8 236.8,89.7 239.6,89.7 247.1,72.1 256.1,98.7 
	264.6,104.6 251.3,59 246,55.9 240.3,71.3 235.2,45.8 "/>
<path id="XMLID_28_" d="M176.1,84l-11.4-41.1l-9.9,5.7l-28.1,57.3l11.4-7.3l7.3-14.9l20.2-7.7l2.9,9.9L176.1,84z M149.1,74.8
	l11-22.2l3.9,16.3L149.1,74.8z"/>
</svg>
