<?xml version="1.0" encoding="utf-8"?>
<!-- Generator: Adobe Illustrator 19.0.0, SVG Export Plug-In . SVG Version: 6.00 Build 0)  -->
<svg version="1.1" id="Layer_1" xmlns="http://www.w3.org/2000/svg" xmlns:xlink="http://www.w3.org/1999/xlink" x="0px" y="0px"
	 viewBox="0 0 400 400" style="enable-background:new 0 0 400 400;" xml:space="preserve">
<style type="text/css">
	.st0{fill:#181A1D;}
	.st1{fill:#F37321;}
	.st2{fill:#A41D36;}
	.st3{fill:#131210;}
	.st4{fill:none;stroke:#121210;stroke-width:0.165;stroke-miterlimit:10;}
	.st5{fill:#BCB9B8;}
	.st6{fill:none;stroke:#BCB9B8;stroke-width:0.165;stroke-miterlimit:10;}
	.st7{fill:none;stroke:#181A1D;stroke-width:0.418;stroke-linecap:round;stroke-miterlimit:10;}
</style>
<path id="path96" inkscape:connector-curvature="0" class="st0" d="M342.4,87.6l-1-5.5l-5.5-1.1c-0.4-0.1-36.6-7.7-68.8-25.6
	c-45.9-25.7-61.4-41.9-61.5-42.1l-6.1-6.7l-6.1,6.6c-0.2,0.2-15.7,16.4-61.5,42.1C99.7,73.3,63.4,80.9,63.1,81l-5.5,1.1l-1,5.5
	c-6.4,34.3-6.5,68.9-0.3,102.9l2.8,13.5l0.8,3.1c8.8,35.6,24.2,68.9,46,98.9c23.6,32.6,53.7,59.9,89.3,81.1l4.3,2.5l4.3-2.5
	c35.6-21.3,65.6-48.6,89.3-81.1c21.8-30,37.3-63.3,46-98.9l3.6-16.6C348.9,156.6,348.8,122,342.4,87.6"/>
<path id="path98" inkscape:connector-curvature="0" class="st1" d="M334.2,89.1c0,0-37.5-7.7-71.1-26.5
	c-48.4-27.1-63.6-43.7-63.6-43.7s-15.2,16.6-63.6,43.7c-33.7,18.8-71.2,26.5-71.2,26.5c-6.9,37.1-6.1,74.3,1.7,109.7h266
	C340.3,163.4,341.1,126.3,334.2,89.1"/>
<path id="path100" inkscape:connector-curvature="0" class="st2" d="M199.5,380c70.4-42.1,116.8-107.9,133-181.2h-266
	C82.7,272.2,129,338,199.5,380"/>
<path id="path102" inkscape:connector-curvature="0" class="st3" d="M168.4,314.3v-4.2c0-0.8,0-1.1-0.5-1.1c-0.6,0-3,1.2-3.7,1.5
	c-0.2,0.1-0.3,0.1-0.4,0.1c-0.1,0-0.3-0.2-0.3-0.4c0-0.2,0.2-0.3,0.3-0.4c0.1-0.1,6.2-4.1,7.3-4.9c0.3-0.2,0.6-0.4,0.8-0.4
	c0.3,0,0.4,0.4,0.4,0.7c0,0.3-0.2,3.4-0.2,8.3v5.9c0,3.1,0,5.8,0.1,7.2c0.1,1,0.3,1.5,1.3,1.7c0.5,0.1,1.8,0.2,2.1,0.2
	c0.1,0,0.3,0.1,0.3,0.3c0,0.2-0.2,0.3-0.5,0.3c-2.4,0-4.4-0.1-5.3-0.1c-0.7,0-3.4,0.1-5.4,0.1c-0.3,0-0.5-0.1-0.5-0.3
	c0-0.2,0.1-0.3,0.3-0.3c0.3,0,2-0.1,2.5-0.2c1-0.2,1.2-0.7,1.3-1.7c0.1-1.4,0.2-4.1,0.2-7.2L168.4,314.3L168.4,314.3z"/>
<g id="g104" transform="translate(51.0029,704.6475)">
	<path id="path106" inkscape:connector-curvature="0" class="st4" d="M117.4-390.4v-4.2c0-0.8,0-1.1-0.5-1.1c-0.6,0-3,1.2-3.7,1.5
		c-0.2,0.1-0.3,0.1-0.4,0.1c-0.1,0-0.3-0.2-0.3-0.4c0-0.2,0.2-0.3,0.3-0.4c0.1-0.1,6.2-4.1,7.3-4.9c0.3-0.2,0.6-0.4,0.8-0.4
		c0.3,0,0.4,0.4,0.4,0.7c0,0.3-0.2,3.4-0.2,8.3v5.9c0,3.1,0,5.8,0.1,7.2c0.1,1,0.3,1.5,1.3,1.7c0.5,0.1,1.8,0.2,2.1,0.2
		c0.1,0,0.3,0.1,0.3,0.3c0,0.2-0.2,0.3-0.5,0.3c-2.4,0-4.4-0.1-5.3-0.1c-0.7,0-3.4,0.1-5.4,0.1c-0.3,0-0.5-0.1-0.5-0.3
		c0-0.2,0.1-0.3,0.3-0.3c0.3,0,2-0.1,2.5-0.2c1-0.2,1.2-0.7,1.3-1.7c0.1-1.4,0.2-4.1,0.2-7.2L117.4-390.4z"/>
</g>
<path id="path108" inkscape:connector-curvature="0" class="st3" d="M196.7,313.2c0,8.9-7.8,14.6-11.7,16.4
	c-0.2,0.1-0.3,0.1-0.6,0.1c-0.1,0-0.3-0.2-0.3-0.3c0-0.2,0.2-0.4,0.4-0.5c3.3-2,8.2-7.3,8.2-14.8c0-5.7-2.4-8.1-4.8-8.1
	c-2.3,0-3.8,2-3.8,4.8c0,4.9,3.1,6,4.2,6c1.1,0,1.7-0.2,2.2-0.4c0.3-0.2,0.5-0.3,0.6-0.3c0.1,0,0.2,0.1,0.2,0.3
	c0,0.1-0.1,0.3-0.2,0.4c-0.9,1-2.6,1.5-4.2,1.5c-4.6,0-6.5-3.5-6.5-6.2c0-4.3,3.2-7.4,8.1-7.4C193.8,304.5,196.7,308.3,196.7,313.2"
	/>
<g id="g110" transform="translate(55.9805,704.8467)">
	<path id="path112" inkscape:connector-curvature="0" class="st4" d="M140.7-391.7c0,8.9-7.8,14.6-11.7,16.4
		c-0.2,0.1-0.3,0.1-0.6,0.1c-0.1,0-0.3-0.2-0.3-0.3c0-0.2,0.2-0.4,0.4-0.5c3.3-2,8.2-7.3,8.2-14.8c0-5.7-2.4-8.1-4.8-8.1
		c-2.3,0-3.8,2-3.8,4.8c0,4.9,3.1,6,4.2,6c1.1,0,1.7-0.2,2.2-0.4c0.3-0.2,0.5-0.3,0.6-0.3c0.1,0,0.2,0.1,0.2,0.3
		c0,0.1-0.1,0.3-0.2,0.4c-0.9,1-2.6,1.5-4.2,1.5c-4.6,0-6.5-3.5-6.5-6.2c0-4.3,3.2-7.4,8.1-7.4C137.9-400.4,140.7-396.5,140.7-391.7
		z"/>
</g>
<path id="path114" inkscape:connector-curvature="0" class="st3" d="M199.9,329c-0.2,0-0.4-0.2-0.4-0.4c0-0.3,0.3-0.5,0.6-0.8
	c4.4-3.9,10.7-8.9,10.7-15.7c0-5-2.8-6.1-4.3-6.1c-1.4,0-2.4,0.3-3.4,1.2c-0.7,0.7-1.3,2.2-1.3,3.1c0,0.3-0.1,0.6-0.4,0.6
	c-0.2,0-0.3-0.2-0.3-0.6c0-0.3-0.2-2.9-0.2-3.9c0-0.3,0-0.4,0.4-0.6c1.2-0.6,2.9-1.2,5.7-1.2c5.6,0,7.9,3.1,7.9,6.8
	c0,6.2-6.8,11.6-10.9,14.9c-0.2,0.1-0.1,0.2,0.1,0.2h2.2c0.5,0,4.3,0,5.4-0.2c2.2-0.3,3.2-1.3,3.6-2.9c0.1-0.4,0.2-0.5,0.4-0.5
	c0.2,0,0.2,0.3,0.2,0.6c0,0.5-0.6,3.5-0.9,4.6c-0.3,0.9-0.8,1-2.8,1L199.9,329L199.9,329z"/>
<g id="g116" transform="translate(56.5557,702.0596)">
	<path id="path118" inkscape:connector-curvature="0" class="st4" d="M143.4-373.1c-0.2,0-0.4-0.2-0.4-0.4c0-0.3,0.3-0.5,0.6-0.8
		c4.4-3.9,10.7-8.9,10.7-15.7c0-5-2.8-6.1-4.3-6.1c-1.4,0-2.4,0.3-3.4,1.2c-0.7,0.7-1.3,2.2-1.3,3.1c0,0.3-0.1,0.6-0.4,0.6
		c-0.2,0-0.3-0.2-0.3-0.6c0-0.3-0.2-2.9-0.2-3.9c0-0.3,0-0.4,0.4-0.6c1.2-0.6,2.9-1.2,5.7-1.2c5.6,0,7.9,3.1,7.9,6.8
		c0,6.2-6.8,11.6-10.9,14.9c-0.2,0.1-0.1,0.2,0.1,0.2h2.2c0.5,0,4.3,0,5.4-0.2c2.2-0.3,3.2-1.3,3.6-2.9c0.1-0.4,0.2-0.5,0.4-0.5
		c0.2,0,0.2,0.3,0.2,0.6c0,0.5-0.6,3.5-0.9,4.6c-0.3,0.9-0.8,1-2.8,1H143.4z"/>
</g>
<path id="path120" inkscape:connector-curvature="0" class="st3" d="M234.6,305c0.6,0,0.8,0.1,0.8,0.3c0,0.2-0.1,0.5-0.2,0.6
	c-2.6,3.8-7.6,16.5-8,20.5c-0.1,0.6,0,0.8,0,1.2c0,0.6-2.6,1.9-4,1.9c-0.4,0-0.4-0.1-0.4-0.4c0-0.3,0.1-0.8,0.2-1.3
	c0.9-3.1,4.9-12.5,9.3-19.9H224c-0.9,0-2.2,0.1-3,0.6c-0.6,0.4-1,1.4-1.1,1.9c0,0.3-0.1,0.4-0.3,0.4c-0.2,0-0.3-0.2-0.3-0.5
	c0-1.2,0.5-4.9,0.5-5.2c0-0.3,0.1-0.4,0.3-0.4s0.9,0.3,4.3,0.3H234.6z"/>
<g id="g122" transform="translate(62.6699,706.2822)">
	<path id="path124" inkscape:connector-curvature="0" class="st4" d="M172-401.3c0.6,0,0.8,0.1,0.8,0.3c0,0.2-0.1,0.5-0.2,0.6
		c-2.6,3.8-7.6,16.5-8,20.5c-0.1,0.6,0,0.8,0,1.2c0,0.6-2.6,1.9-4,1.9c-0.4,0-0.4-0.1-0.4-0.4c0-0.3,0.1-0.8,0.2-1.3
		c0.9-3.1,4.9-12.5,9.3-19.9h-8.2c-0.9,0-2.2,0.1-3,0.6c-0.6,0.4-1,1.4-1.1,1.9c0,0.3-0.1,0.4-0.3,0.4c-0.2,0-0.3-0.2-0.3-0.5
		c0-1.2,0.5-4.9,0.5-5.2c0-0.3,0.1-0.4,0.3-0.4s0.9,0.3,4.3,0.3H172z"/>
</g>
<path id="path126" inkscape:connector-curvature="0" class="st5" d="M168.4,313.1V309c0-0.8,0-1.2-0.5-1.2c-0.6,0-3,1.2-3.7,1.5
	c-0.2,0.1-0.3,0.1-0.4,0.1c-0.1,0-0.3-0.2-0.3-0.4c0-0.2,0.2-0.4,0.3-0.4c0.1-0.1,6.2-4.1,7.3-4.9c0.3-0.2,0.6-0.4,0.8-0.4
	c0.3,0,0.4,0.4,0.4,0.7c0,0.2-0.2,3.4-0.2,8.3v5.9c0,3.1,0,5.8,0.1,7.2c0.1,1,0.3,1.5,1.3,1.7c0.5,0.1,1.8,0.2,2.1,0.2
	c0.1,0,0.3,0.1,0.3,0.3c0,0.2-0.2,0.3-0.5,0.3c-2.4,0-4.4-0.1-5.3-0.1c-0.7,0-3.4,0.1-5.4,0.1c-0.4,0-0.5-0.1-0.5-0.3
	c0-0.2,0.1-0.3,0.3-0.3c0.3,0,2-0.1,2.5-0.2c1-0.2,1.2-0.7,1.3-1.7c0.1-1.4,0.2-4.1,0.2-7.2L168.4,313.1L168.4,313.1z"/>
<g id="g128" transform="translate(51.0029,704.8506)">
	<path id="path130" inkscape:connector-curvature="0" class="st6" d="M117.4-391.7v-4.2c0-0.8,0-1.2-0.5-1.2c-0.6,0-3,1.2-3.7,1.5
		c-0.2,0.1-0.3,0.1-0.4,0.1c-0.1,0-0.3-0.2-0.3-0.4c0-0.2,0.2-0.4,0.3-0.4c0.1-0.1,6.2-4.1,7.3-4.9c0.3-0.2,0.6-0.4,0.8-0.4
		c0.3,0,0.4,0.4,0.4,0.7c0,0.2-0.2,3.4-0.2,8.3v5.9c0,3.1,0,5.8,0.1,7.2c0.1,1,0.3,1.5,1.3,1.7c0.5,0.1,1.8,0.2,2.1,0.2
		c0.1,0,0.3,0.1,0.3,0.3c0,0.2-0.2,0.3-0.5,0.3c-2.4,0-4.4-0.1-5.3-0.1c-0.7,0-3.4,0.1-5.4,0.1c-0.4,0-0.5-0.1-0.5-0.3
		c0-0.2,0.1-0.3,0.3-0.3c0.3,0,2-0.1,2.5-0.2c1-0.2,1.2-0.7,1.3-1.7c0.1-1.4,0.2-4.1,0.2-7.2L117.4-391.7z"/>
</g>
<path id="path132" inkscape:connector-curvature="0" class="st5" d="M196.7,312c0,8.9-7.8,14.6-11.7,16.4c-0.2,0.1-0.3,0.1-0.6,0.1
	c-0.1,0-0.3-0.2-0.3-0.3c0-0.2,0.2-0.4,0.4-0.5c3.3-2,8.2-7.3,8.2-14.8c0-5.7-2.4-8.2-4.8-8.2c-2.3,0-3.8,2-3.8,4.8
	c0,4.9,3.1,6.1,4.2,6.1c1.1,0,1.7-0.2,2.2-0.4c0.3-0.2,0.5-0.4,0.6-0.4c0.1,0,0.2,0.1,0.2,0.3c0,0.1-0.1,0.3-0.2,0.4
	c-0.9,1-2.6,1.5-4.2,1.5c-4.6,0-6.5-3.5-6.5-6.2c0-4.3,3.2-7.4,8.1-7.4C193.8,303.3,196.7,307.2,196.7,312"/>
<g id="g134" transform="translate(55.9805,705.0479)">
	<path id="path136" inkscape:connector-curvature="0" class="st6" d="M140.7-393c0,8.9-7.8,14.6-11.7,16.4c-0.2,0.1-0.3,0.1-0.6,0.1
		c-0.1,0-0.3-0.2-0.3-0.3c0-0.2,0.2-0.4,0.4-0.5c3.3-2,8.2-7.3,8.2-14.8c0-5.7-2.4-8.2-4.8-8.2c-2.3,0-3.8,2-3.8,4.8
		c0,4.9,3.1,6.1,4.2,6.1c1.1,0,1.7-0.2,2.2-0.4c0.3-0.2,0.5-0.4,0.6-0.4c0.1,0,0.2,0.1,0.2,0.3c0,0.1-0.1,0.3-0.2,0.4
		c-0.9,1-2.6,1.5-4.2,1.5c-4.6,0-6.5-3.5-6.5-6.2c0-4.3,3.2-7.4,8.1-7.4C137.9-401.7,140.7-397.9,140.7-393z"/>
</g>
<path id="path138" inkscape:connector-curvature="0" class="st5" d="M199.9,327.8c-0.2,0-0.4-0.2-0.4-0.5c0-0.2,0.3-0.5,0.6-0.8
	c4.4-3.9,10.7-8.9,10.7-15.7c0-5-2.8-6.1-4.3-6.1c-1.4,0-2.4,0.3-3.4,1.1c-0.7,0.7-1.3,2.2-1.3,3.1c0,0.3-0.1,0.6-0.4,0.6
	c-0.2,0-0.3-0.2-0.3-0.6c0-0.3-0.2-2.9-0.2-3.9c0-0.3,0-0.4,0.4-0.6c1.2-0.6,2.9-1.2,5.7-1.2c5.6,0,7.9,3.1,7.9,6.8
	c0,6.2-6.8,11.6-10.9,14.9c-0.2,0.1-0.1,0.2,0.1,0.2h2.2c0.5,0,4.3,0,5.4-0.2c2.2-0.3,3.2-1.3,3.6-2.8c0.1-0.4,0.2-0.5,0.4-0.5
	c0.2,0,0.2,0.3,0.2,0.6c0,0.5-0.6,3.5-0.9,4.6c-0.3,0.9-0.8,1-2.8,1L199.9,327.8L199.9,327.8z"/>
<g id="g140" transform="translate(56.5557,702.2607)">
	<path id="path142" inkscape:connector-curvature="0" class="st6" d="M143.4-374.4c-0.2,0-0.4-0.2-0.4-0.5c0-0.2,0.3-0.5,0.6-0.8
		c4.4-3.9,10.7-8.9,10.7-15.7c0-5-2.8-6.1-4.3-6.1c-1.4,0-2.4,0.3-3.4,1.1c-0.7,0.7-1.3,2.2-1.3,3.1c0,0.3-0.1,0.6-0.4,0.6
		c-0.2,0-0.3-0.2-0.3-0.6c0-0.3-0.2-2.9-0.2-3.9c0-0.3,0-0.4,0.4-0.6c1.2-0.6,2.9-1.2,5.7-1.2c5.6,0,7.9,3.1,7.9,6.8
		c0,6.2-6.8,11.6-10.9,14.9c-0.2,0.1-0.1,0.2,0.1,0.2h2.2c0.5,0,4.3,0,5.4-0.2c2.2-0.3,3.2-1.3,3.6-2.8c0.1-0.4,0.2-0.5,0.4-0.5
		c0.2,0,0.2,0.3,0.2,0.6c0,0.5-0.6,3.5-0.9,4.6c-0.3,0.9-0.8,1-2.8,1H143.4z"/>
</g>
<path id="path144" inkscape:connector-curvature="0" class="st5" d="M234.6,303.9c0.6,0,0.8,0.1,0.8,0.3c0,0.2-0.1,0.5-0.2,0.6
	c-2.6,3.8-7.6,16.5-8,20.6c-0.1,0.5,0,0.8,0,1.2c0,0.6-2.6,1.9-4,1.9c-0.4,0-0.4-0.1-0.4-0.4c0-0.3,0.1-0.8,0.2-1.3
	c0.9-3.1,4.9-12.5,9.3-19.9H224c-0.9,0-2.2,0.1-3,0.6c-0.6,0.4-1,1.4-1.1,1.9c0,0.3-0.1,0.4-0.3,0.4c-0.2,0-0.3-0.2-0.3-0.5
	c0-1.2,0.5-4.9,0.5-5.2c0-0.3,0.1-0.5,0.3-0.5s0.9,0.3,4.3,0.3L234.6,303.9L234.6,303.9z"/>
<g id="g146" transform="translate(62.6699,706.4834)">
	<path id="path148" inkscape:connector-curvature="0" class="st6" d="M172-402.6c0.6,0,0.8,0.1,0.8,0.3c0,0.2-0.1,0.5-0.2,0.6
		c-2.6,3.8-7.6,16.5-8,20.6c-0.1,0.5,0,0.8,0,1.2c0,0.6-2.6,1.9-4,1.9c-0.4,0-0.4-0.1-0.4-0.4c0-0.3,0.1-0.8,0.2-1.3
		c0.9-3.1,4.9-12.5,9.3-19.9h-8.2c-0.9,0-2.2,0.1-3,0.6c-0.6,0.4-1,1.4-1.1,1.9c0,0.3-0.1,0.4-0.3,0.4c-0.2,0-0.3-0.2-0.3-0.5
		c0-1.2,0.5-4.9,0.5-5.2c0-0.3,0.1-0.5,0.3-0.5s0.9,0.3,4.3,0.3H172z"/>
</g>
<path id="path150" inkscape:connector-curvature="0" class="st3" d="M112.4,253.4c0,0.7,0.1,0.9,0.5,1.1c1.2,0.4,3,0.6,4.5,0.6
	c2.4,0,3.1-0.3,4.2-1c1.8-1.3,3.5-4,3.5-8.9c0-8.4-5.6-10.9-9.1-10.9c-1.5,0-2.5,0.1-3.1,0.2c-0.4,0.1-0.5,0.4-0.5,0.8V253.4z
	 M105.4,248.7c0-9,0-10.7-0.1-12.6c-0.1-2-0.6-3-2.6-3.4c-0.5-0.1-1.5-0.2-2.3-0.2c-0.7,0-1-0.1-1-0.5c0-0.4,0.4-0.5,1.3-0.5
	c3.1,0,6.9,0.2,8.1,0.2c2,0,6.5-0.2,8.4-0.2c3.7,0,7.7,0.4,10.9,2.6c1.7,1.1,4,4.2,4,8.1c0,4.4-1.8,8.4-7.8,13.3
	c5.3,6.7,9.4,11.9,12.9,15.6c3.3,3.5,5.8,3.9,6.7,4c0.7,0.1,1.2,0.2,1.7,0.2c0.5,0,0.7,0.2,0.7,0.5c0,0.5-0.4,0.6-1.1,0.6h-5.6
	c-3.3,0-4.8-0.3-6.4-1.1c-2.5-1.4-4.8-4.2-8.1-8.7c-2.4-3.3-5.1-7.3-5.9-8.2c-0.3-0.4-0.7-0.4-1.1-0.4l-5.2-0.1
	c-0.3,0-0.5,0.1-0.5,0.5v0.8c0,5.5,0,10.2,0.3,12.7c0.2,1.7,0.5,3,2.3,3.3c0.9,0.1,2.2,0.2,2.9,0.2c0.5,0,0.7,0.2,0.7,0.5
	c0,0.4-0.4,0.6-1.2,0.6c-3.5,0-7.9-0.2-8.7-0.2c-1.1,0-4.9,0.2-7.2,0.2c-0.8,0-1.2-0.2-1.2-0.6c0-0.3,0.2-0.5,0.9-0.5
	c0.9,0,1.6-0.1,2.1-0.2c1.2-0.2,1.5-1.5,1.7-3.3c0.3-2.5,0.3-7.2,0.3-12.6V248.7z"/>
<path id="path152" inkscape:connector-curvature="0" class="st3" d="M183.9,255.1c0-13.3-7.7-21.6-17.4-21.6
	c-6.9,0-14.6,3.8-14.6,18.6c0,12.3,6.8,22.2,18.2,22.2C174.3,274.2,183.9,272.2,183.9,255.1 M143.7,253.9c0-10.1,6.7-23.3,24.5-23.3
	c14.8,0,24,8.6,24,22.2c0,13.6-9.5,24.4-24.6,24.4C150.6,277.2,143.7,264.4,143.7,253.9"/>
<path id="path154" inkscape:connector-curvature="0" class="st3" d="M201.5,232.2c0.2-1,0.5-1.5,1-1.5c0.5,0,0.8,0.3,1.6,1.8
	l16.2,33l16.2-33.4c0.5-0.9,0.8-1.4,1.3-1.4c0.5,0,0.9,0.6,1.1,1.8l5.4,36.4c0.5,3.7,1.1,5.5,2.9,6c1.7,0.5,2.9,0.6,3.7,0.6
	c0.5,0,1,0.1,1,0.4c0,0.5-0.7,0.7-1.5,0.7c-1.5,0-9.7-0.1-12.1-0.3c-1.4-0.1-1.7-0.3-1.7-0.7c0-0.3,0.2-0.5,0.6-0.7
	c0.4-0.1,0.5-0.9,0.3-2.6l-3.6-25.8h-0.2L220.7,273c-1.4,2.8-1.7,3.3-2.2,3.3c-0.5,0-1.1-1.2-2.1-3c-1.4-2.7-6.1-11.8-6.8-13.5
	c-0.5-1.2-4.1-8.3-6.2-12.7h-0.2l-3.1,23.2c-0.1,1.1-0.2,1.9-0.2,2.8c0,1.1,0.8,1.7,1.8,1.9c1.1,0.2,1.9,0.3,2.5,0.3
	c0.5,0,0.9,0.1,0.9,0.4c0,0.5-0.5,0.7-1.4,0.7c-2.5,0-5.2-0.2-6.2-0.2c-1.1,0-4,0.2-5.9,0.2c-0.6,0-1.1-0.1-1.1-0.7
	c0-0.3,0.4-0.4,1-0.4c0.5,0,0.9,0,1.8-0.2c1.7-0.4,2.1-2.7,2.4-4.7L201.5,232.2L201.5,232.2z"/>
<path id="path156" inkscape:connector-curvature="0" class="st3" d="M278.7,258.3c0.3,0,0.4-0.2,0.3-0.4l-5.3-14.6
	c-0.1-0.2-0.1-0.5-0.3-0.5c-0.2,0-0.3,0.3-0.4,0.5l-5.5,14.6c-0.1,0.2,0,0.4,0.2,0.4H278.7L278.7,258.3z M266.6,261.2
	c-0.3,0-0.4,0.1-0.5,0.5l-3.2,8.1c-0.6,1.5-0.9,2.9-0.9,3.6c0,1.1,0.5,1.8,2.4,1.8h0.9c0.7,0,0.9,0.1,0.9,0.5c0,0.5-0.3,0.6-1,0.6
	c-1.9,0-4.5-0.2-6.3-0.2c-0.7,0-3.9,0.2-7,0.2c-0.8,0-1.1-0.1-1.1-0.6c0-0.3,0.2-0.5,0.7-0.5c0.5,0,1.4-0.1,1.8-0.1
	c2.7-0.4,3.8-2.4,5-5.3l14.9-36.8c0.7-1.7,1.1-2.4,1.7-2.4c0.5,0,0.9,0.5,1.5,1.9c1.4,3.3,10.9,27,14.7,36.1c2.3,5.3,4,6.2,5.2,6.5
	c0.9,0.2,1.8,0.2,2.5,0.2c0.5,0,0.8,0.1,0.8,0.5c0,0.5-0.5,0.6-2.7,0.6c-2.1,0-6.5,0-11.2-0.1c-1.1-0.1-1.8-0.1-1.8-0.5
	c0-0.3,0.2-0.5,0.8-0.5c0.4-0.1,0.8-0.7,0.5-1.4l-4.8-12.2c-0.1-0.3-0.3-0.4-0.6-0.4L266.6,261.2L266.6,261.2z"/>
<path id="path158" inkscape:connector-curvature="0" class="st1" d="M112.4,252.1c0,0.7,0.1,0.9,0.5,1.1c1.2,0.4,3,0.6,4.5,0.6
	c2.4,0,3.1-0.2,4.2-1c1.8-1.3,3.5-4.1,3.5-8.9c0-8.4-5.6-10.9-9.1-10.9c-1.5,0-2.5,0.1-3.1,0.2c-0.4,0.1-0.5,0.4-0.5,0.8V252.1z
	 M105.4,247.4c0-9,0-10.7-0.1-12.6c-0.1-2-0.6-3-2.6-3.4c-0.5-0.1-1.5-0.2-2.3-0.2c-0.7,0-1-0.1-1-0.5c0-0.4,0.4-0.5,1.3-0.5
	c3.1,0,6.9,0.2,8.1,0.2c2,0,6.5-0.2,8.4-0.2c3.7,0,7.7,0.4,10.9,2.5c1.7,1.1,4,4.2,4,8.1c0,4.4-1.8,8.4-7.8,13.3
	c5.3,6.7,9.4,11.9,12.9,15.6c3.3,3.4,5.8,3.9,6.7,4c0.7,0.1,1.2,0.2,1.7,0.2c0.5,0,0.7,0.2,0.7,0.5c0,0.5-0.4,0.6-1.1,0.6h-5.6
	c-3.3,0-4.8-0.3-6.4-1.1c-2.5-1.4-4.8-4.2-8.1-8.7c-2.4-3.3-5.1-7.3-5.9-8.2c-0.3-0.4-0.7-0.4-1.1-0.4l-5.2-0.1
	c-0.3,0-0.5,0.1-0.5,0.5v0.8c0,5.5,0,10.2,0.3,12.7c0.2,1.7,0.5,3,2.3,3.3c0.9,0.1,2.2,0.2,2.9,0.2c0.5,0,0.7,0.2,0.7,0.5
	c0,0.4-0.4,0.6-1.2,0.6c-3.5,0-7.9-0.2-8.7-0.2c-1.1,0-4.9,0.2-7.2,0.2c-0.8,0-1.2-0.2-1.2-0.6c0-0.3,0.2-0.5,0.9-0.5
	c0.9,0,1.6-0.1,2.1-0.2c1.2-0.2,1.5-1.5,1.7-3.3c0.3-2.5,0.3-7.2,0.3-12.7V247.4L105.4,247.4z"/>
<path id="path160" inkscape:connector-curvature="0" class="st1" d="M183.9,253.7c0-13.3-7.7-21.6-17.4-21.6
	c-6.9,0-14.6,3.8-14.6,18.6c0,12.3,6.8,22.1,18.2,22.1C174.3,272.9,183.9,270.9,183.9,253.7 M143.7,252.6c0-10.2,6.7-23.3,24.5-23.3
	c14.8,0,24,8.6,24,22.2c0,13.6-9.5,24.4-24.6,24.4C150.6,275.9,143.7,263.1,143.7,252.6"/>
<path id="path162" inkscape:connector-curvature="0" class="st1" d="M201.5,230.9c0.2-1,0.5-1.5,1-1.5c0.5,0,0.8,0.3,1.6,1.8
	l16.2,33l16.2-33.4c0.5-1,0.8-1.4,1.3-1.4c0.5,0,0.9,0.6,1.1,1.8l5.4,36.4c0.5,3.7,1.1,5.5,2.9,6c1.7,0.5,2.9,0.6,3.7,0.6
	c0.5,0,1,0.1,1,0.4c0,0.5-0.7,0.7-1.5,0.7c-1.5,0-9.7-0.1-12.1-0.3c-1.4-0.1-1.7-0.3-1.7-0.7c0-0.3,0.2-0.5,0.6-0.7
	c0.4-0.1,0.5-0.9,0.3-2.6l-3.6-25.8h-0.2l-12.9,26.5c-1.4,2.8-1.7,3.3-2.2,3.3c-0.5,0-1.1-1.2-2.1-3c-1.4-2.7-6.1-11.8-6.8-13.5
	c-0.5-1.3-4.1-8.3-6.2-12.7h-0.2l-3.1,23.2c-0.1,1.1-0.2,1.9-0.2,2.8c0,1.1,0.8,1.7,1.8,1.9c1.1,0.2,1.9,0.3,2.5,0.3
	c0.5,0,0.9,0.1,0.9,0.4c0,0.5-0.5,0.7-1.4,0.7c-2.5,0-5.2-0.2-6.2-0.2c-1.1,0-4,0.2-5.9,0.2c-0.6,0-1.1-0.1-1.1-0.7
	c0-0.3,0.4-0.4,1-0.4c0.5,0,0.9,0,1.8-0.2c1.7-0.4,2.1-2.7,2.4-4.7L201.5,230.9z"/>
<path id="path164" inkscape:connector-curvature="0" class="st1" d="M278.7,256.9c0.3,0,0.4-0.2,0.3-0.4l-5.3-14.6
	c-0.1-0.2-0.1-0.5-0.3-0.5c-0.2,0-0.3,0.3-0.4,0.5l-5.5,14.6c-0.1,0.2,0,0.4,0.2,0.4H278.7L278.7,256.9z M266.6,259.9
	c-0.3,0-0.4,0.1-0.5,0.5l-3.2,8.2c-0.6,1.5-0.9,2.9-0.9,3.6c0,1.1,0.5,1.8,2.4,1.8h0.9c0.7,0,0.9,0.1,0.9,0.5c0,0.5-0.3,0.6-1,0.6
	c-1.9,0-4.5-0.2-6.3-0.2c-0.7,0-3.9,0.2-7,0.2c-0.8,0-1.1-0.1-1.1-0.6c0-0.4,0.2-0.5,0.7-0.5c0.5,0,1.4-0.1,1.8-0.1
	c2.7-0.3,3.8-2.4,5-5.3l14.9-36.8c0.7-1.7,1.1-2.4,1.7-2.4c0.5,0,0.9,0.5,1.5,1.9c1.4,3.3,10.9,27,14.7,36.1c2.3,5.3,4,6.2,5.2,6.5
	c0.9,0.2,1.8,0.2,2.5,0.2c0.5,0,0.8,0.1,0.8,0.5c0,0.5-0.5,0.6-2.7,0.6c-2.1,0-6.5,0-11.2-0.1c-1.1-0.1-1.8-0.1-1.8-0.5
	c0-0.4,0.2-0.5,0.8-0.5c0.4-0.1,0.8-0.7,0.5-1.4l-4.8-12.2c-0.1-0.3-0.3-0.4-0.6-0.4L266.6,259.9L266.6,259.9z"/>
<g id="g166" transform="translate(32.6816,724.9834)">
	<path id="path168" inkscape:connector-curvature="0" class="st7" d="M31.7-526.2h270.2"/>
</g>
<path id="path170" inkscape:connector-curvature="0" class="st0" d="M94.7,126.6c-1.2,0.7-1.6-1.3-1.6-1.3c-0.3-0.8-0.4-1.7,0.1-2
	c0.9,0.5,1.9,0.5,2.2,1C95.8,124.9,95.3,126.2,94.7,126.6 M309.3,175.6c-0.7-0.9-1.6-1.9-2.4-3c-3.8-4.6-12.3-16-12.3-16
	c0-37.1-6.6-44-13.5-49.8c-6-5.1-15.6-7.8-25.9-9.3c-2.8-0.4-5.9-0.6-9.4-0.6c-3.4,0-6.9,0.2-10.2,0.4c-2.8,0.2-51.1,2.2-66.6-0.4
	c-6.8-1.1-16.1,0.2-21.7,0.8c-2.6,0.3-16.5,2.5-18.2-0.1c-0.3-0.5-0.3-1.6-0.2-2.8c0.2-1.9,1-4.3-0.5-6.4c-2.1-2.9-4.4-6-5.6-6
	c-0.4,0-3.8,2.8-4.7,3.7c-1.4,1.4-1.9,3.7-1.8,6.5c0,1.7-0.1,1.3-0.2,1.5c-0.2,0.2-9.1,0.2-11.4,0.4c0-0.5-0.1-2.8-1.6-5
	c-1-1.4-1.8-6.1-1.8-6.1s-3.2,5.6-4.3,7.1c-1.2,1.6-2.5,3.4-3.2,5.3c-0.3,0.7-0.3,1.7-0.4,2.5c0,0.6-0.1,2-0.4,2.2
	c-1.7,1.2-2.7,3-2.8,5.1c0,0.6,0.1,1.5,0.3,2.4c0.1,0.6,0.3,1.6,0.3,2.1c-0.2,0.1-0.3,0.2-0.5,0.3c-1.5,1-3.6,2.3-3.5,4.7
	c0.2,3.6,1,5,2.2,7c0.3,0.6,0.7,1.1,1,1.8c0.5,1,0.7,2.4,0.9,3.7c0.3,1.9-1.5,3.9-0.3,5.1c1.6,1.5,5.7,1.6,7.4,1.6
	c0.5,0,2.3-0.1,2.8-0.1c0.7,0,1.2,0,1.7,0.1c3.4,0.7,6.8,0.9,10.1,1.2c4.5,0.4,8.8,0.7,13.1,2c7.9,2.3,15.8,5.6,24,10
	c0.4,0.2,0.9,0.4,1.3,0.7c3,1.6,3.7,1.4,5.1,5.5c1.4,4.2-1.2,36.7-1.8,40.1c-0.9,5.4-2.6,8.7-5.5,9.7c-3.8,1.4-5.3,4.3-6.8,7.2
	c-0.5,0.9-0.4,2-1,3c0,0-1.2,1.4-0.8,1.7c0.4,0.4,4.2-0.6,4.2-0.6c1.3,0.1-0.1,0.8,1.2,0.8c3.2,0,7.1,0,11.1-2.3
	c1.7,0,0.6,2.1,2.1,1.8c4.7-0.9,5.2-4.5,5.8-8c1-5.9,0.8-6.9,1.5-7.4c0.7-0.5,2.8,0.3,3.3-0.3c0.4-0.5,0-4.8,0.2-8.6
	c0.3-5.5,1.9-12,3.5-17.3l0.1-0.3c0.4-1.2,0.9-2.6,1.5-4.1c1.6-4.1,3.4-9,3.2-13c1.7,0.3,2,0.4,2.9,1.7c0.1,0.2,0.4,0.6,0.7,1.1
	c1.9,3.1,2.8,3.9,4.1,3.9c0.1,0,0.3,0,0.4,0c2-0.5,3.1-2.2,4.2-4.5c1.1-2.2,2.3-4.5,4.2-4.9c0.1,0,0.2,0,0.3,0
	c1.5,0,4.2,1.4,5.8,3.8c3.4,5.3,6.3,1.6,6.6,1.2c0.4-0.6,3.1-5.1,3.8-6.2c0.8-1.3,1.3-1.4,1.5-1.4h0c1.7,0.3,8.9,8.9,11.5,8.3
	c2.5-0.3,5.3-9.8,6.8-9.8c0.1,0,0.2,0,0.2,0c0.4,0.3,1.2,1.6,1.8,2.5c1.9,2.9,2.3,4.9,3.9,4.9c0.5,0,1.3-0.4,1.8-1.7
	c0.1-0.3,0.7-1.8,0.8-1.9c0.1,0.1,1.4,4.4,4.5,0.6c0,0-0.1-0.1-0.1-0.2c0,0,0,0.1,0,0.1c0,0,0,0,0-0.1c0,0,0,0,0-0.1c0,0,0,0,0,0.1
	c0.4-1,6.2,4.7,9,7c2.5,2.3,4.6,4.3,4.8,4.5c6,5.3,13.4,11.9,14.8,19.1c0.8,4.1,0.6,8.9-0.5,13.4c-0.3,0.9-0.5,1.5-0.7,1.7
	c-0.2,0.2-0.9,0.2-1.7,0.2c-0.4,0-0.8,0-1.2,0.1c-2,0.1-3.4,2.3-4.7,4.2c-0.6,0.9-1.3,1.6-1.7,2.3c-0.4,0.7,0.2,1.7,0.6,2
	c0.4,0.2,4,1.1,5.1,1.1c0.3,0,0.6,0,0.9-0.1c0.8,0.3,1.7,0.5,2.8,0.5c3.2,0,7.2-1.3,8.3-3.6c1.9-3.8,3.2-7.9,4.5-11.9
	c0.1-0.4,0.3-0.9,0.4-1.3c0.3-0.9,0.7-1.9,1.1-2.9c1.4-3.6,3.8-7.5,2.7-11.1c-0.6-1.9-2.5-3.7-3.7-5.3c-1.1-1.4-5.1-6.7-6.4-8.6
	c3.8,3.7,14.3,9.1,17,15.5c0.9,2.2,0,11.6-0.2,14.1c-0.1,1.2-0.1,2.4-0.2,3.6c-0.1,3.8-1.2,4.5-5.1,4.9c-3.3,0.3-4.9,5.3-5.7,7.9
	c0,0.2-0.1,0.3-0.1,0.4l-0.4,1.2l1.3,0.2c0.5,0.1,1,0.2,1.6,0.3c2.4,0.4,6.5,1.9,9.3,1.9c3.4,0,5.7-0.8,7.2-2.4
	c1.9-2.1,2.7-5.9,3.3-9.2c0.2-1.2,1.6-5.7,2.1-7.3C311.5,185.3,314.6,181.4,309.3,175.6"/>
<path id="path172" inkscape:connector-curvature="0" class="st5" d="M293.6,205.1c-0.4,0.7-1.7,0.8-2.1,1c-0.9,0.4-1.8,1-1.8,1.6
	c0,0.3-0.2,3.4,0,3.6c0.2,0.4,1.5,0.8,1.7,0.4c0.2-0.3,0-2.5,0.2-4c0-0.2,0.2-1.1,0.6-1.3C292.5,206.4,294,205.7,293.6,205.1"/>
<path id="path174" inkscape:connector-curvature="0" class="st5" d="M185.5,150.9c1.1-0.1,2.7-0.4,3.3,0c0.6,0.4,1.3,1.8,1.3,2.7
	c-0.1,0.9-2.9,5.4-3.1,5.6c-0.2,0.2-0.5,0.9-1,0.2c-0.5-0.7-1.4-7.7-1.4-7.7S184.5,151,185.5,150.9"/>
<path id="path176" inkscape:connector-curvature="0" class="st5" d="M308,177.9c-1.5-2.2-5.4-6.2-7-8.1
	c-2.1-2.5-11.5-13.6-11.5-13.6s-2.7-16.8-3.9-20.6c-0.7-2.4-2.8-20.1-16.5-29.7c0.7-1.2,9.6,5.7,12.8,11.1
	c5.8,9.8,8.3,35.4,8.3,35.4s3.7-39.2-17-47.4c-14.9-6.2-22.3-5.2-22.3-5.2s-10.3,6.2-4.1,17.9c1.2,2.3,14.7,23,15.6,24.7
	c7.7,14.4,32.2,31.3,36.6,35.8c0.2,0.3,4.5,3,4.7,6.1c0.1,0.6-5.7-3.3-5.6-2.6c0.8,7.2-0.1,21.1-0.2,22.7c-0.1,1.8-0.2,2.1-1.4,2.5
	c-1.1,0.4-2.3-0.7-2.9,1.2c-0.8,2.1-0.5,3.7,1.5,3.7c1.9,0,4.9,1,6.8-6.1c1.9-7.2,6-20,7.2-24.7C309.5,179.9,308.6,178.7,308,177.9"
	/>
<path id="path178" inkscape:connector-curvature="0" class="st5" d="M101,89.4c0,0,1.6,4.8,1.6,6.1c0,1.4-0.4,1.5-0.4,1.5l-4.8,2.1
	c0,0,1.1-1.2,1.6-2.7C99.5,94.8,101,90.9,101,89.4"/>
<path id="path180" inkscape:connector-curvature="0" class="st5" d="M158.7,210c-0.1,0.1-0.2,0.1-0.3,0l-0.3-0.4
	c0-0.1,0-0.2,0.1-0.3l0.2-0.2c0.1-0.1,0.2-0.1,0.3,0l0.3,0.4c0.1,0.1,0,0.2-0.1,0.3L158.7,210z"/>
<path id="path182" inkscape:connector-curvature="0" class="st5" d="M270.2,202.3c0,0-0.6-0.2-0.9,0.2c-0.5,0.6-0.7,3-0.7,3
	s0.6,0.7,1.6,0.3c1-0.4,3.1-2,2.5-2.5C272,202.8,270.2,202.3,270.2,202.3"/>
<path id="path184" inkscape:connector-curvature="0" class="st5" d="M268.3,201.2c0,0-0.9,0-1.4,0.5c-0.5,0.5-1.3,1.9-1.2,2.5
	c0.1,0.6,0.9,1.5,1.3,0.9C267.5,204.4,269.4,201.1,268.3,201.2"/>
<path id="path186" inkscape:connector-curvature="0" class="st5" d="M91.1,114.1c-1.1,1.7,2,3.2,2.8,2.3
	C94.6,114,92.2,113.2,91.1,114.1"/>
<path id="path188" inkscape:connector-curvature="0" class="st5" d="M95.3,114.9C95.3,114.9,95.2,114.9,95.3,114.9
	C95.2,114.9,95.3,114.9,95.3,114.9"/>
<path id="path190" inkscape:connector-curvature="0" class="st5" d="M116.4,117.1c-1.6-1.9-2.7-5-1.7-5.6c1-0.6,2,0.2,2.7,0.6
	c0.9,0.5,1.4,0.2,1.4-1.1c0-1-0.2-1.9-0.3-2.8c-0.3-2.7-1.7-5.6-2.8-6.8c-1.8-2-7-4.2-10.3-2c-0.9,0.6-1.7,1.7-2.3,2.9
	c-0.2,0.4,0.4,1.1,0.2,1.6c-1.2,2.9-3,6.3-5.2,8.5c-0.1,0.1,7.2,0.7,17.6,8.3c0.9,0.7-0.8,4.4-1.4,4.2c-0.3,0,1.1-3.1,0-3.7
	c-4.7-2.7-7.6-3-11.1-4.3c-0.9-0.3-3.4,1.3-4,0.7c-0.9-1.2-3.6-2.5-3.9-2.6c0.1,0.1,0.4,0.3,0.6,1.5c0.3,2.9-5.1,0-0.5,4.7
	c1.3,1.3,2.6,2.3,3.5,1.9c1.5,0,0.8,0.2,1,0.5l0.8,1.9c0.1,0.4,0.3,0.3,0.4,0l0.4-2c0.1-0.4,0.4-0.7,0.8-0.7c0,0,7,0.2,8.4,0.3
	c1.4,0.2,1.5,0.7,1.5,0.7c0.1,0.4,0.6,1.2-0.6,2.1c-0.9,0.7-2.9-0.8-4.6,0.6c-1.7,1.3-5,1.9-5,1.9c-0.4,0.1-0.8-0.1-1-0.5l-0.8-1.9
	c-0.1-0.4-0.3-0.3-0.3,0.1l-0.2,2.5c0,0.4-0.1,0.7-0.2,0.7c-0.1,0-0.3-0.3-0.5-0.6l-0.1-0.1c-0.2-0.4-0.5-0.4-0.8-0.1l-0.4,0.5
	c-0.2,0.3-0.6,0.3-0.8-0.1l-0.2-0.3c-0.2-0.3-0.5-0.3-0.7,0l-0.3,0.4c-0.2,0.3-0.5,0.3-0.6-0.1l-0.1-0.3c-0.1-0.4-0.3-0.4-0.5,0
	c-0.1,0.3-0.3,0.3-0.4,0.2c-0.2,0.2-0.4,0.4-0.5,0.5c-0.2,0.2-0.7,0.6-0.7,1c0,0.4,0.5,0.6,2.9,1.1c2.4,0.5,13.7-4.1,17.2-3.4
	c4.1,0.9,5.7-2.5,6-6.9c0-0.1,0-0.4-0.1-0.7C118.2,119.2,117.2,118,116.4,117.1"/>
<path id="path192" inkscape:connector-curvature="0" class="st0" d="M105.3,103.9c0,0,1.4-2.5,3.1-2.9c1.3-0.4,2.6,0.4,4.6,1.7
	c2,1.3,3,3.4,5,2.9c0.7-0.2-1.5,2.3-3.4,1.6c-0.5-0.2-3.3-4.9-6.1-4.9C108.5,102.2,106.7,102.5,105.3,103.9"/>
<path id="path194" inkscape:connector-curvature="0" class="st0" d="M110.9,106.7c-0.4,0-0.8-0.4-0.8-1c0-0.5,0.3-1,0.8-1
	c0.4,0,1,0.4,1,1C111.9,106.2,111.3,106.7,110.9,106.7 M110.4,101.6c-2.3-0.7-3.7,0.9-3.7,0.9c0.6-1.6,3.4-0.6,4.6-0.1
	c0.7,0.3,1.6,1.8,2.3,3.1c-0.7-0.7-1.8-1.5-2.7-1.6c-1.8-0.2-1.9,2.2-1.9,2.2l-0.9,1.1c0,0,0.1,0.3,1.5,0.3c1.4,0,6.1-0.1,6.7-0.6
	C116.9,106.3,113,102.3,110.4,101.6"/>
<path id="path196" inkscape:connector-curvature="0" class="st5" d="M146.8,207.8c0,0-1.8,3.6-1.8,4c0,0.4,0,0.6,0.2,0.6
	s0.9,0.2,1.3-0.1c0.5-0.3,2.2-3.9,2.4-4.4C148.9,207.7,147.5,206.9,146.8,207.8"/>
<path id="path198" inkscape:connector-curvature="0" class="st5" d="M286.5,181.3c0.9-3.2-2.1-3.5-3.1,0.6
	c-0.3,1.4-4.5,16.5-4.9,20.4c0,0.2,0.1,0.4,0.3,0.2C278.8,203.8,286.1,182.7,286.5,181.3"/>
<path id="path200" inkscape:connector-curvature="0" class="st5" d="M263,130.9c0,0.1-0.2,0.1-0.4,0.1l-1.5-0.3
	c-0.2,0-0.4-0.1-0.4-0.2l0-0.2c0-0.1,0.2-0.1,0.4-0.1l1.5,0.3c0.2,0,0.4,0.1,0.4,0.2L263,130.9L263,130.9z"/>
<path id="path202" inkscape:connector-curvature="0" class="st5" d="M262.5,131.5c0,0.1-0.1,0.1-0.3,0.1l-1-0.2
	c-0.1,0-0.2-0.1-0.2-0.2l0-0.2c0-0.1,0.2-0.1,0.3-0.1l1,0.2c0.1,0,0.2,0.1,0.2,0.2L262.5,131.5z"/>
<path id="path204" inkscape:connector-curvature="0" class="st5" d="M152.6,99.5c-7.3,1.4-17.4,2-23,1.2c-4.4-0.6-4.6-3.3-3.8-5.7
	c-4.1,4-6.2,2.4-6.3,1.9c-0.2-0.6,1.5,0,2.6-1.1c1.1-1.1,1.7-4.8,0.9-6.7c-0.9-1.8,0.1-1.5,0.1-1.5s2.3,0.2,3.2,2.9
	c0.6-2.7-3.1-6.1-4.3-5.3c-1.2,0.8-3.7,2.8-3.3,5.7c0.4,3.6,0.2,5.4-1,5.4c-7.9-0.4-16.8-1.4-21.8,3.7c0,0,6-3.9,10.6-3.5
	c4.6,0.4,14,1.4,14.6,12.4c0,0-0.1,2.5,0.1,5.4c0.1,1.5-1.4,0.6-1.3,1.2c0.1,3.1,2.2,2.6,2.1,5.2c-0.8,10.9-5.8,10.6-5.8,10.6
	s6,0.8,9-9.3c0,5.8-0.6,7.3-3,9.6c4.6,0.3,8.3-4.1,8.4-4.7c0.7,1.1,2,4.7,5.5,6.1c-1.7-2.8-1.3-6.2-0.9-9.2c1,6.8,2.8,9.3,6.3,10.8
	c-1.4-1.4-4.3-4.5-3.4-10c0.7,4.7,6.2,8.9,6.2,8.9s-1.7-2.8-2.2-7.8c2.4,5.1,4.9,5.5,4.9,5.5s-3.9-4.1-4.6-9.4
	c-0.1-0.1,2.7,3.6,5,3.6c-1.8-2.1-4.6-5.1-4.9-8.9c1.8,2.3,3,3.8,5.1,4c-1.7-2-3.1-5.1-3.7-8.9c2,2.5,1.6,3.3,5.3,4.3
	c-1.4-1.4-2.4-5.2-1.7-7.1c0.6,1.3,3.1,2.6,6,3c-0.9-0.6-2.5-4.2-2.2-5.7c1.3,0.7,4.2,1.6,6.4,1.3c-1.1-0.6-1.8-3.8-1.5-4.6
	c0.6,0.4,4.9,0.3,5.8,0c-1.4-0.9-2.6-2.2-2.3-2.1c1,0.4,2.7-0.5,5-0.9c2.4-0.4,2.8-0.4,4.2-0.4C167.3,98.9,158.2,98.1,152.6,99.5"/>
<path id="path206" inkscape:connector-curvature="0" class="st5" d="M225.8,144.8c0,0-4.7-0.3-5,1.1c-0.3,1.4,2.1,9,2.5,9.9
	c0.6,1.4,2.2-1.9,2.2-1.9c0.5-0.9,2.4-5.4,2.4-6C227.8,147.3,227.9,144.8,225.8,144.8"/>
<path id="path208" inkscape:connector-curvature="0" class="st5" d="M248.2,153.9c-0.3,0.1-0.6,0.2-0.8,0.3c0.2,0.1,0.4,0.1,0.6,0.2
	C248,154.2,248.1,154.1,248.2,153.9"/>
<path id="path210" inkscape:connector-curvature="0" class="st5" d="M207.6,145.5c0,0-4.6-0.3-5,1.1c-0.4,1.4,1.6,8.1,1.9,9
	c0.5,1.4,1.5-0.7,1.5-0.7c0.5-0.9,4.2-5.6,4.2-6.2C210.2,148,209.7,145.5,207.6,145.5"/>
<path id="path212" inkscape:connector-curvature="0" class="st5" d="M240.2,99.7c-1.4,0.1-13.6,1.4-21.7,1.5
	c-6.5,0-13.3-0.3-16.9-0.2c-0.3,0-0.7,0-1.2,0.1c-5.4-0.2-22.8-0.5-22.8-0.5c-1.3-0.3-18.9,4.3-21.4,23.9
	c-1.6,12.1-0.8,15.9,1.9,21.6c1.6,3.4,4.9,9.7,4.8,14.6c0,2.1-3.7-8.6-3.6-7.4c0.5,12.4-1.6,40.3-2.9,46.2c-1.5,7.1-2.9,3.5-4.5,6.4
	c-0.3,0.5-3.9,7-3.8,7.1c0.1,0.1,1.8-0.2,3.7-0.4c2.1-0.1,3.9-5.9,5.3-5.9c0.2,0-1.6,4.7-1.3,4.6c1.5-0.4,4-1,3.8,0.2
	c0.6,0.2,1-0.1,1.3-0.5c0.4-0.5,2.4-9.6,3.7-14.2c0.3-0.8,2.3-0.3,2.8-0.1c1.1-2.2-0.7-9.6,2.5-19.8c3.1-10.1,6.4-18.8,4.9-21.4
	c-0.2-0.3-5.5,6.8-5.6,6.5c-0.3-0.8,17.4-30.6,14-46c-0.1-0.6-0.3-1.2-0.3-1.6c0-0.1,2,0.7,4.6,1.4c3.3,1,6.2,1.6,7.2,5.4
	c1.2,7.4,4.6,17.9,11.6,18.5c-3.2-2.9-7.2-17.7-6.7-23.7c2,9.9,8,24.2,13,23.6c-1-1.6-5.2-10.6-5.2-16.3c1.8,4.7,6.1,15,9.3,15.1
	c8.5,0.2,10.6-3.7,16.9-5.1c14-3.2,17.7,2.2,19.8,3.3c-1.7-1.7-7.6-11.9-11.4-19.8c-3.1-6.3,2.1-12.6,11-16.5
	C254.7,99.5,242.9,99.6,240.2,99.7"/>
<path id="path214" inkscape:connector-curvature="0" class="st0" d="M246.2,154.1c0,0-0.5-0.4-0.9-0.5c-0.1,0-0.2,0-0.3,0
	c-0.2,0-0.3,0-0.3,0l-0.2,0.1l0.1-0.2c0-0.1,0.2-0.4,0.6-0.4c0.1,0,0.3,0,0.4,0.1c0.6,0.2,0.7,0.7,0.7,0.8l0.1,0.3L246.2,154.1z"/>
<path id="path216" inkscape:connector-curvature="0" class="st0" d="M242.2,153.3c0-0.1,0.2-0.4,0.6-0.4c0.1,0,0.3,0,0.4,0.1
	c0.1,0,0.2,0.1,0.2,0.1l0.1,0.1l-0.4,0.3l0,0c0,0-0.1-0.1-0.2-0.1c-0.1,0-0.2,0-0.3,0c-0.2,0-0.3,0-0.3,0l-0.2,0.1L242.2,153.3
	L242.2,153.3z"/>
<path id="path218" inkscape:connector-curvature="0" class="st0" d="M243.1,153.1c0.1,0,0.2,0.1,0.2,0.1l-0.2,0.2
	c0,0-0.2-0.1-0.2-0.1c-0.4-0.1-0.6,0-0.6,0S242.4,152.8,243.1,153.1"/>
<path id="path220" inkscape:connector-curvature="0" class="st0" d="M250.8,207c-5,0-5.6-8.1-5.7-9.5c-1.2-0.1-2.5-0.9-3.4-1.6
	c0,0-0.1-0.1-0.2-0.1c0,0.6,0,1.2,0.1,1.8c0.1,0.9,0.2,3.3,0.3,4l0,0.1c0.1,0.9,0.4,3-1.7,4.2c-0.6,0.3-1.3,0.5-2,0.5
	c-0.6,0-1.2-0.1-1.6-0.2c-0.1,0-0.2,0-0.2,0l-0.4,0c-0.5-0.1-1.3-0.2-1.8-0.2h-0.1c-1,0-4,0.2-4.5,0.2c-0.1,0-0.2,0-0.3,0
	c-1.7,0-3-1.3-3-1.4c-0.8-0.8-0.9-2.1-0.2-3.2l0.2-0.3l0.3-0.2c0.2-0.1,0.7-0.5,1.4-0.6c0.6-0.4,1.6-1,3-1.8
	c-1.3-2.5-6.9-11.1-2-13.9c1.8-1,4.6-2,7.3-2.6c0-0.2,0.1-0.3,0.1-0.5c0.1-0.2,0.1-0.9,0-1.4c-0.8,0.4-1.5,0.6-2.2,0.6
	c-0.2,0-0.4,0-0.6-0.1c-1.7-0.4-3.8-2.8-4.1-3.2c-0.4-0.5-1.8-3.1-3.1-5.6c-3.6-0.2-3.9-0.3-4.2-0.3c-0.4-0.1-0.8-0.3-3.1-2.2
	c-0.8-0.7-1.2-1.5-1-2.4c0.1-0.7,0.6-1.4,1.2-1.7c0.1,0,0.1,0,0.2-0.1c0.3-0.4,0.8-0.8,1.6-1l0.2-0.1h0.3c0.6,0,1.1,0.2,1.5,0.5
	c0-0.3,0.1-0.6,0.2-0.8c0.4-0.8,1.3-1.4,2.4-1.4c0.6,0,1.2,0.2,1.9,0.5l0.1,0.1l0.1,0.1c0.2,0.1,0.3,0.1,0.3,0.1
	c0.4,0.1,1.5,0.4,1.8,0.5c0.6,0.3,1,0.6,2.2,2.5l1.8,1.8c0.8-1.9,1.8-2.7,2.2-3.1c0.5-0.4,1.1-0.6,1.8-0.8c0.1,0,0.3-0.1,0.4-0.1
	c0.3-0.2,0.6-0.4,0.9-0.6c0-0.1,0.1-0.2,0.1-0.3c-0.3-0.4-0.6-0.9-0.8-1.3c-0.7-1.2-0.6-2.3-0.6-3l0-0.2c0.1-1.9,2.5-3.5,2.5-3.5
	c0.3-0.2,0.6-0.3,0.8-0.4c0.5-0.6,1.3-1.5,1.9-2c0.5-0.5,1.1-0.8,1.7-1c0.5-1.1,1.6-1.6,3.2-1.6c0.5,0,2.2,0.1,2.8,0.2
	c1.2,0.2,2,1,2.5,1.9c1.1,0.4,1.7,1.3,1.9,2.6l0.4,0.4c0.3,0.3,0.9,1,1.1,2c0.6,1.2,0.5,2.7,0.5,3.4c0,2-0.6,3.2-1.1,3.9
	c-0.1,0.2-0.1,0.4-0.2,0.6c1.9,1.2,2.5,3.9,2.7,4.9c0.2,0.6,0.9,3.2,1.3,5c0.5,2.4-0.3,4.7-0.4,5l-0.1,0.3l-0.2,0.2
	c-0.2,0.2-1,1.3-1.3,1.7c-0.7,0.8-1.4,1.1-2,1.2c0.2,0.8,0.4,1.7,0.6,2.5c1.6,1.9,2.4,4.6,2.4,5.6c0,0.6-0.2,1.3-0.4,1.8h0
	c0.2,0.5,0.2,1.1,0.2,2.4c0.7,0.7,1.2,1.8,1.8,2.9c0.1,0.1,0.1,0.2,0.1,0.3c2.9,6.4-4.5,6.9-4.9,6.8
	C254.5,206.9,251.3,207,250.8,207"/>
<path id="path222" inkscape:connector-curvature="0" class="st5" d="M250.3,152.7c-0.4-0.1-2-0.2-2.5-0.2c-2.2,0-1.1,1.1-1.1,1.1
	s-1.7,0.2-2.5,0.9c-0.7,0.7-2.1,2.2-2.1,2.2s-0.6,0.2-0.9,0.4c-0.4,0.2-1.4,1-1.5,1.9c-0.1,0.6-0.2,1.3,0.3,2
	c0.4,0.8,1.2,1.8,1.2,1.8s0.2,0.4,0,0.8c-0.2,0.4-0.5,1.5-0.5,1.5s-1.1,0.5-1.4,0.9c-0.3,0.4-1.8,0.6-2.2,0.9
	c-0.4,0.3-1.3,1.2-2,3.4c-0.8,0.7-1.2,1.5-1.2,1.5l-3.9-3.9c0,0-0.5-1.6-1.2-1.9c-0.3-0.1-2-0.7-2.4-0.8c-1.5-0.5-1.7-0.1-1.4,0.3
	c0.3,0.4,1.2,0.8,1.4,0.9c0.2,0.1,0.3,1.7-3.4,1.1c-0.2,0-1.2-0.6-1.8-0.9c-1.6-0.5-1.3,1-1,1.3c0.3,0.3,1.9,1.9,2.3,2
	c0.3,0.1,4.8,0.3,4.8,0.3s3.1,5.8,3.5,6.4c0.4,0.6,2.2,2.2,2.8,2.4c0.7,0.2,2.8-0.6,3.8-2.5l0.4,7.6c0,0-7,1.6-8.3,2.6
	c-2.6,2.1,2,10.1,3.6,12.2c0.5,0.7,0.1,0.9,0.1,0.9s-4.9,2.7-5,2.9c-0.5-0.1-0.9,0.2-0.9,0.2s-0.2,0.3-0.1,0.5
	c0.2,0.2,1,0.8,1.6,0.7c0.6-0.1,4.1-0.3,4.9-0.2c0.8,0,1.8,0.2,2.4,0.2c0.5,0.1,1.6,0.5,2.5,0c0.9-0.5,0.7-1.4,0.6-2.2
	c-0.1-0.8-0.3-4.1-0.3-4.1s-0.1-3.8-0.2-4.3c1,0.1,2.5,0.5,2.8,0.3c0.5-0.3,1,0.6,1,0.6s1.6,1.3,2.3,1.1c0.7-0.1,0.9-0.2,1.2-1.3
	c0.3-0.4,0.5-0.3,0.5,0.7c0,1-0.5,10.3,3.9,10.1c2.7-0.1,4.6-1.4,4.6-1.4s0.8,1,1.8,0.7c2.8-1,1.3-3.5,1-3.9
	c-0.2-0.4-1.5-3.2-2.3-3.2c0-1.2-0.2-2.9-0.4-3.4c0.1-0.3,0.6-1.3,0.6-1.8s-0.8-3.1-2.3-4.7c-0.3-2.4-1.6-6.1-1.6-6.1
	s1.6,0.6,2.1,0.6c0.5,0.1,0.9-0.2,1.2-0.6c0.3-0.4,1.3-1.6,1.3-1.6s0.7-1.9,0.3-3.8c-0.4-1.9-1.3-5-1.3-5s-0.4-3-1.9-3.7
	c-1.5-0.7-1.8-0.6-1.8-0.6s-0.5-0.6-0.1-0.8c0.4-0.1,0.9-0.5,1.1-0.7c0.2-0.2,0.4-1.2,0.4-1.2s0.9-0.4,0.9-2.9c0,0,0.3-1.7-0.4-2.6
	c0-0.7-0.5-1.2-0.5-1.2l-1-1c0,0,0.1-1.3-0.5-1.4c-0.6-0.1-1-0.3-1-0.3S251.3,152.8,250.3,152.7"/>
<path id="path224" inkscape:connector-curvature="0" class="st0" d="M242.4,157.3c0.5,0,0.8,0.8,0.8,0.9c0,0.2-0.1,0.2-0.3,0.1
	c-0.2,0-0.4-0.5-0.9-0.5c-0.5,0-0.5,0.4-0.7,0.3C241.1,158.2,241.9,157.3,242.4,157.3"/>
<path id="path226" inkscape:connector-curvature="0" class="st0" d="M246.1,156c0.5,0.2,0.7,0.7,0.7,0.7s-0.5-0.4-0.9-0.5
	c-0.4-0.1-0.6,0-0.6,0S245.4,155.7,246.1,156"/>
<path id="path228" inkscape:connector-curvature="0" class="st0" d="M251.1,160c-0.1-0.2-0.1-0.3-0.3-0.3l-0.1,0l-0.1,0
	c-0.2,0.3-0.4,0.4-0.7,0.4c-0.3,0-0.6-0.2-0.6-0.2s-0.1,0.7,0.7,0.7c0.6,0,0.9-0.5,1-0.5L251.1,160L251.1,160L251.1,160z"/>
<path id="path230" inkscape:connector-curvature="0" class="st0" d="M247,171.3c0.2-0.2,0.8,0.3,1,0.2c0.2-0.2-1.3-1.8-0.8-2.2
	c0.5-0.4,1.2,0.9,1.5,0.7c0.3-0.2,0.2-0.4,0.1-0.6c0-0.1-0.7-1.2-0.7-1.2c0-0.1-0.7-1.1-0.3-1.3c0.5-0.2,0.9,0.6,1,0.7
	c0,0,0.9,1.6,1.2,1.4c0.3-0.2-0.6-2.5-0.6-2.5c-0.1-0.2-0.5-0.8-0.3-1c0.2-0.2,0.4-0.1,1,0.7c0.1,0.1,1.6,2.9,1.8,2.8
	c0,0,0-0.6-0.2-1c0.3,0.2,0.9,0.4,0.9,0.9c0,0.1-0.1,1.4-0.3,1.7c-0.7,0.8-3.9,1.9-4.9,1.8C247.4,172.3,246.7,171.6,247,171.3
	 M253.4,183.8l-0.5-2.1l-0.2-0.7l-3.8-7.1l-0.1-0.3c-0.1-0.1-0.2-0.3-0.5-0.6c-0.1-0.1,0-0.2,0.1-0.2c1.3,0.2,3.6-0.5,4.2-0.7
	c0.2,0.2,3.8,4.5,4.1,4.3c0.3-0.2-3.7-5.4-3.7-5.4c0,0,0.4-2.2,0.3-2.4c-0.2-0.5-1.2-1.3-1.7-1.3l-0.1,0c-0.1-0.2-0.2-0.3-0.2-0.3
	l-0.1-0.1c-0.3-0.5-0.5-0.9-0.7-1.1c0.7,0.2,1.5,0.5,1.5,0.5l0.4,0l0.4-0.6l-3.1-1c-0.3-0.1-0.6-0.7-0.6-1.2c0-0.3,2.1-2.5,1.7-2.6
	c-0.8-0.3-2.8,1.8-2.8,2.5c0,0.4,0.2,1.3,0.5,1.7c-0.1,0.2-0.2,0.4-0.2,0.6c-3.8,0.3-5.2,1.6-5.4,2.3c0,0,3.1-1.2,4.1-1.4
	c-0.7,0.7,0.4,2,0.4,2c-0.1,0-0.5-0.3-0.9,0c-0.7,0.6,0,1.7,0.2,2c-0.3,0-0.5,0.1-0.6,0.2c-0.4,0.4,0.3,1.3,0.9,1.9
	c0.2,0.3-0.9,0.2-4.1-2.2c0.1,2.3,4,3.7,5.2,3.7C248.3,174.4,253.2,183.5,253.4,183.8"/>
<path id="path232" inkscape:connector-curvature="0" class="st0" d="M238,183.5l-0.5,0.3l-0.8,0.5c0.1,0.3,3.3,8,6.5,10.5l0.1-0.3
	C239,188.6,238,183.5,238,183.5"/>
<path id="path234" inkscape:connector-curvature="0" class="st0" d="M249.9,187.4c-1.9,0.3-3.3,6.7-3.3,6.7c0.5-0.6,0.5,0.4,0.5,0.4
	s1.6-5.4,2.9-6c1.4-0.6,3.4-0.3,3.4-0.3S251.8,187.1,249.9,187.4"/>
<path id="path236" inkscape:connector-curvature="0" class="st0" d="M235,177.4c0.2-0.1-0.5-6.2-0.5-6.2l-0.3,0.3l-0.5-0.3
	C233.5,171.7,234.8,177.5,235,177.4"/>
<path id="path238" inkscape:connector-curvature="0" class="st0" d="M236.4,172.5l0.5,4.9l0.9-0.5l-0.2-3.6c0,0,0.4,0.2,0.6,0.1
	c0.1-0.1-0.7-0.9-0.7-1.8c0-0.7,0.7-1.5,0.6-1.6c-0.1-0.1-0.4,0.2-0.4,0.2c0-0.6,0.1-1.3,0.1-1.7c0.1-0.6,0.8-1.8,0.8-1.8
	c-1.8,0.6-2.1,2.6-2.1,2.6l-0.1,1.6c0,0-0.2,0.5-0.2,0.8C236.2,172.1,236.4,172.5,236.4,172.5L236.4,172.5z"/>
<path id="path240" inkscape:connector-curvature="0" class="st0" d="M256.2,196.4c0,0,0,6-1.3,7.5h0.7c0.3-0.2,0.8-2.2,0.9-2.9
	c0.2-0.8,0.2-4.1,0.2-4.1L256.2,196.4z"/>
<path id="path242" inkscape:connector-curvature="0" class="st0" d="M234.3,188.2c-0.2,1.3,5,6.1,5,6.1l1.4-0.7
	C240.7,193.6,235.8,190,234.3,188.2"/>
<path id="path244" inkscape:connector-curvature="0" class="st0" d="M248.6,154.9c0.1,0.1,0,0.5,0,0.8c0,0-0.2,0.6,0.7,1
	c0.5,0.3,0.8,0.7,1.1,1c0,0.1,0.1,0.1,0.1,0.2c0.1,0.2,0.2,0.3,0.1,0.7c0,0.2-0.1,0.3-0.2,0.4c-0.1,0.1-0.2,0.2-0.1,0.3l0,0
	c0,0.2,0.2,0.6,0.6,0.8c0.1,0.1,0.3,0.3,0.1,1l-0.1,0.2c-0.2,0.7,0,2.4,0.4,2.3c0.4-0.1,0.3-1.6,0.5-1.8c0.2-0.3,0.4-1.2,0.3-1.7
	c0-0.2-0.1-0.3-0.2-0.4c-0.4-0.2-0.5-0.4-0.5-0.5c0,0,0.1-0.1,0.1-0.2c0.1-0.1,0.2-0.2,0.2-0.4c0.1-0.3,0-0.8-0.1-1.1
	c-0.1-0.3-0.9-1.2-1.3-1.4c-0.4-0.1-0.6-0.3-0.6-0.5c0-0.1,0-0.2,0-0.4c0.1-0.3,0.1-0.6-0.1-0.8c-1.3-1.7-3.1-1.5-3.1-1.5l-0.8,0.9
	C245.6,153.9,247,153.1,248.6,154.9"/>
<path id="path246" inkscape:connector-curvature="0" class="st0" d="M238.6,166.3c0.2,0.2,1.5,0.3,3.7,1.7c0.3-0.6-2-1.9-3.1-2.2
	c-0.6,0-0.7,0.1-0.7,0.2C238.4,166.1,238.4,166.2,238.6,166.3"/>
<path id="path248" inkscape:connector-curvature="0" class="st0" d="M231.9,200.4c-1.9-2.7-6.2-2.8-7.6-1.4
	c-0.1-0.1-0.1-0.1-0.2-0.2c-0.6-0.5-2.3-1.5-3.1-2c-1.3-1.4-1.8-1.7-2.1-1.8c-1.1-0.6-3.1-1.4-4.8-1.8c-0.3-3.7-0.6-4.6-0.8-4.9
	c0-0.1,0.4-3.4,0.3-5.4c1.1,0.2,2.6,0.4,3.7,0.4c0.7,0,1.2-0.1,1.6-0.2c1.1-0.3,3-0.9,3.8-2.2l0.2-0.3l0.1-0.3
	c0.1-0.3,0.6-2.7-0.9-5c-1-1.6-3.8-4.5-5.3-5.9c0.1-0.9,0.1-1.7,0.1-1.7c0.1-0.7-0.1-1.4-0.9-2.3c-0.2-0.3-2.1-2.4-2.6-2.7
	c-0.5-0.3-1.3-0.5-2-0.5c-0.2,0-0.5,0-0.7,0.1c-1.8,0.4-1.6,3.2-1.6,3.4c-0.2-0.1-0.5-0.3-0.7-0.4c-0.6-0.7-1.5-1.1-2.4-1.3
	c-0.5-0.3-1.2-0.7-2-0.7c-0.1,0-0.1,0-0.2,0c-1.2,0.1-1.2,0.2-1.8,0.6c-0.9,0.2-1.7,0.7-2.3,1.4c-0.5,0.3-1.1,0.8-1.6,1.6
	c-0.5,0.4-1.1,1.1-1.6,2.4l-0.2,0.5c-0.4,1.1-0.9,2.3-0.5,3.6c0,0,0,0.1,0,0.1c-1,0.3-2.4,0.9-3.2,2.4c-0.3,0.7-0.7,1.6-1,2.4
	c-0.4,0-5.5,0.7-5.4,3c0,0.8,0.4,1.5,1.1,2c-0.5,0.8-0.5,1.7-0.1,2.4c0.4,0.6,0.9,1.1,1.4,1.3c0.2,0.6,0.5,1.2,0.9,1.8
	c0.5,0.6,1,1.1,1.5,1.4c-0.9,0.3-2,0.8-2.9,1.5c-1.4,1-3.5,3-1.7,6.3c0.3,0.5,1.2,1.5,5.6,5.9c-0.2,0.2-3.7,6.6,2.1,6.9
	c1.3,2.2,5.8-1,5.9-1.1c0.3,0.1,6.3,0.1,4.7-4.5c0.4-0.1,2.5-0.6,2.6-0.7c0.7,0.3,2.1,0.9,3,1c0.4,0,1,0.1,1.5,0.1
	c0.6,0,2.1,0,2.8-0.2c0.2,0,0.4-0.1,0.6-0.1c0.6,1,1.6,2.3,2.9,3c1.5,0.9,5,2.4,6.1,2.9c0.2,0.2,2.7,2.2,4.3,2.2
	c5.1,0,3.5-4.6,3.6-4.9C232.6,207.6,233.3,202.3,231.9,200.4"/>
<path id="path250" inkscape:connector-curvature="0" class="st5" d="M214.1,175.9c-0.2-0.3-2.2-0.8-3-0.9c-0.3-0.3-1.2-0.6-1.2-0.6
	s1.2-0.9,1.2-1.6c-0.9-4.4-2.4-4.7-2.4-4.7s-0.5-1-1.7-1.2c-0.2-0.9-2.1-1.1-2.1-1.1s-0.5-0.6-1.2-0.6c-0.5,0-0.7,0.3-1,0.6
	c0,0-1.1-0.2-1.8,1.1c0,0-0.9,0.2-1.4,1.5c0,0-0.6,0.2-1.2,1.7c-0.4,1-0.9,2.1-0.7,2.9c0.2,0.8,0.9,1.6,0.9,1.6s-0.6,0.5-1.3,0.7
	c-0.7,0.2-2.3,0.3-2.9,1.6c-0.7,1.3-1.5,3.8-1.5,3.8s-0.4-0.2-0.9-0.3c-0.4,0-2.4,0-2.8,0.4c-0.2,0.2-1.1,0.3-1.1,0.6
	c0.1,0.9,1.5,0.6,1.5,0.6l-0.3,2c0,0-0.6,0.6-0.5,0.9c0.2,0.3,0.5,0.4,0.7,0.3c0.3,0,0.7-0.5,0.7-0.5s0,1.9,0.9,3
	c0.9,1.1,1.9,1.5,1.9,1.5s0.7,0.3,1.2,0c0.6-0.2,1.7-1.1,1.7-1.4c0.1-0.3,0.4-1.4,0.4-1.4s0.5-1.8,0.7-1.8c0.2,0,0.4,0.2,0.4,0.2
	v3.6c0,0-1.4,2.7-1.4,3.3c-0.7,0.1-4-0.3-6.7,1.7c-2.3,1.6-1.5,3-1.1,3.7c0.4,0.7,7.3,7.4,7.5,7.7c-0.1,0.2,0.1,0.5-0.2,0.5h-0.7
	c0,0-1.1-0.4-1.2,0c-0.4,1,0.7,0.9,0.7,1.1c0,0.2-0.9-0.1-1,0.4c-0.2,0.7,0,1.3,0.5,1.8c0.3,0.4,1,0.2,1.2,0.3
	c0.2,0.1,0.3,0.4,0.8,0.5c1.2,0.5,3.9-1.7,4.3-1.7c1.3,0.7,2.8-0.5,2.9-1.3c0.1-0.7,0-1.1-0.3-1.7c-0.3-0.6-1.1-1.4-1.1-1.4
	s1-0.3,1.3-0.4c0,0,0.1-0.1,0.5,0.1c0.3,0.2,1.9,0.5,2.3,0.4c0.5,0,2.2-0.8,2.4-0.7c0.3,0.1,2,0.9,2.6,0.9c0.6,0.1,3,0.1,3.7-0.1
	c0.7-0.1,2-0.5,2-0.5s1.1,2.6,2.8,3.6c1.7,1,6.3,3,6.3,3s1.8,1.9,3.1,1.9c1.2,0,1.5-1,1.5-1.3c0-0.3,0-1.6,0.2-2.2
	c0.2-0.7,0.5-2.8,0.5-3.8c0.1-1,0.4-3.7-2.2-4.1c-0.4-0.1-1.3-0.2-1.5-0.2c-0.4,0-0.2,0.9-0.3,0.6c-0.1-0.4-0.6-0.5-0.8-0.4
	c-0.5,0.2-0.7,0.6-0.7,0.8c0,0.4,0.2,1.5,0.2,1.5s-2.1-1.7-2.7-2.2c-0.6-0.5-3.1-1.9-3.1-1.9s-1.4-1.4-1.8-1.6
	c-0.2-0.3-3.8-1.9-5.8-1.9c0-1.5-0.1-4.9-1-6.6c0-0.5,0.5-5.3,0.2-6.6c-0.1-0.6,0.7-1,1.2-1s4.6,0.9,5.7,0.5c0,0,2.2-0.6,2.7-1.4
	c0,0,0.4-1.8-0.6-3.4c-1.1-1.7-4.7-5.4-5.7-6.2c0.1-1,0.2-2.7,0.2-2.7s0-0.4-0.2-0.6c-0.3-0.3-1.9-2.2-2.2-2.4
	c-0.2-0.2-1-0.4-1.3-0.3c-0.3,0.1-0.2,0.8,0,0.9c0.2,0.2,0.7,0.6,0.7,0.6l0.3,0.7c0,0-0.3,0.2-0.4,0.3c-0.1,0.1-0.1,1,0.1,1.2
	c0.1,0.2,0.5,0.3,0.5,0.3s-0.4,0.8-0.7,0.9c-0.3-0.5-0.9-1.8-1.3-1.4c-0.2,0.2-0.3,0.6-0.2,1c0.1,0.4,0.7,2.1,1,2.4
	c0.3,0.3,0.6,0.5,0.6,0.5S214,175.3,214.1,175.9"/>
<path id="path252" inkscape:connector-curvature="0" class="st0" d="M191.9,193.4c3.3-0.3,9.4,9.9,9.6,10.1c0.2,0.2,0.6-0.3,0.6-0.3
	C201.8,202.9,196.5,191.9,191.9,193.4"/>
<path id="path254" inkscape:connector-curvature="0" class="st0" d="M191.5,182.5c0.6-0.1,1.6-1.2,1.4-1.3c-0.1-0.1-0.6,0.7-1.5,0.7
	c-0.3,0-0.6-0.1-1-0.1l-0.1,0c-0.1,0.2-0.9,0.3-0.9,0.3l0.1,0.5l0.8-0.2C190.3,182.4,190.9,182.6,191.5,182.5"/>
<path id="path256" inkscape:connector-curvature="0" class="st0" d="M196.5,176.3c-0.7,0.1,0.1,9.5,0.1,9.5l0.7-0.9
	c-0.1-0.5-0.2-3.3-0.2-3.7c0.2,0.2,3.5-0.5,4.2-1.7c0,0-2.2,0.4-2.8,0.3c-1-0.2-1.3-0.6-1.3-0.9
	C197.2,178.8,196.8,176.3,196.5,176.3"/>
<path id="path258" inkscape:connector-curvature="0" class="st0" d="M196,191.2l-0.6,0.5c4.6,2.4,7.4,11.3,7.4,11.4l0,0.1l1.5,0.5
	C204.3,203.7,200.8,193.3,196,191.2"/>
<path id="path260" inkscape:connector-curvature="0" class="st0" d="M206.9,203.2c0.2,0.3,1.2-0.2,1.2-0.2v-0.1c0,0-0.1-4.3,3.3-7.6
	C211.4,195.2,207.7,196,206.9,203.2"/>
<path id="path262" inkscape:connector-curvature="0" class="st0" d="M225.6,202.4l-0.9-0.6c0,0,0.4,1.9,0.4,2.8
	c0,0.1-0.1,0.2-0.1,0.2c0,0,0,0.1-0.1,0.1c-0.3,0.3-0.1,1.7-0.1,1.7s0.4-0.8,0.8-1.2c0,0,0.1-0.1,0.1-0.1c0.2-0.2,0.2-0.3,0.1-1.1
	C225.8,204,225.6,202.4,225.6,202.4"/>
<path id="path264" inkscape:connector-curvature="0" class="st0" d="M211.9,176.2c-0.2,0-0.5,2.3-0.5,2.6c0,0-0.1,1.5-1.7,1.3
	c-1.6-0.3-2.3-0.6-2.3-0.6c0.6,1.2,3.3,1.7,4,2.7c0.1,0.2,0.3,1.3,0.3,1.4h0.5v-1.9l0.5-0.2C212.5,177.6,212.1,176.2,211.9,176.2"/>
<path id="path266" inkscape:connector-curvature="0" class="st0" d="M200.7,174.5c-1,0-2.4,0.2-2.5,0.2l-1.7,0.4l0.5,0.4
	c0,0,2.2-0.4,3.6-0.4c0.2,0,0.4,0,0.6,0.1c1.2,0.3,2.7,0.8,2.7,0.6c0-0.2-1.8-0.9-2.6-1C201.3,174.5,201,174.5,200.7,174.5"/>
<path id="path268" inkscape:connector-curvature="0" class="st0" d="M211.5,175.1l0.1-0.1l0-0.1l0-0.1l-0.1-0.1l-0.7-0.4
	c-0.1,0-3.2,0-3.2,0c-0.8,0-3.2,1-3.1,1.2c0.2,0.2,1.9-0.6,3.2-0.7C209.1,174.7,211.3,175.1,211.5,175.1"/>
<path id="path270" inkscape:connector-curvature="0" class="st0" d="M208.9,169c0.6-0.7-0.6-1.4-0.6-1.5c0,0,0.8,1.1,0.2,0.8
	c-0.6-0.9-2.9-1.6-3-1.7c-0.1-0.1,0.3-0.5,1.6,0.4c0.1-0.2-0.7-0.9-1.8-0.8c0-0.2-0.1-0.3-0.2-0.4c0,0,0,0,0,0c0,0-0.1,0-0.1,0
	c0.1,0.1,0.3,0.4,0.1,0.4c-0.2,0-0.3-0.4-0.4-0.4c-0.1-0.2-0.6,0.1-0.3,0.3c0.1,0.1,0.2,0.1,0.4,0.2c0.2,0.1,0.1,0.1,0,0.1
	c-0.2-0.1-0.4-0.1-0.6-0.1c-0.2,0-0.5,0.1-0.7,0.1c-0.1,0-0.2,0-0.1-0.1c0.1-0.1,0.2-0.1,0.3-0.2c0.4-0.3-0.3-0.8-0.4-0.1
	c-0.1,0.1-0.2,0.2-0.2,0.3c-0.3,0,0-0.5,0-0.5c0,0,0,0-0.1,0.1c-0.1,0.1-0.2,0.2-0.3,0.3c-0.1,0-1.4,0.1-1.6,0.8
	c0.9-0.7,1.4-0.7,1.4-0.4c0,0.1-1.2,0.8-1.6,1.2c-0.4,0.3-0.9,0.9-1,0.9c-0.2,0-0.2-0.3,0-0.8c-0.6,0.6-0.5,1.1-0.3,1.3
	c-0.3,0.7-0.2,1.6,0.2,2.4c0.3,0.6,2.4,2.4,2.6,2.2c0.2-0.1-2.2-2.2-2.3-3.1c-0.4-2.1,2.5-4,3.4-4.1c0,0,0.2,0.3,0.7,0.2
	c0.6,0,0.7-0.2,0.7-0.2c0.7-0.1,4.2,1.2,3.8,3.8c-0.1,0.8-0.4,1.8-0.3,1.9c0.1,0.1,0.3-0.3,0.6-1C209.2,170.6,209.2,169.7,208.9,169
	"/>
<path id="path272" inkscape:connector-curvature="0" class="st0" d="M218,180.5c-0.4-0.5-4.1-4.9-4.2-4.9c0-0.1-0.1-0.2-0.3-0.2
	c-0.1,0-0.5,0-0.6,0.1c0.8,1.3,2.5,3.4,3.8,4.4C217.3,180.4,217.8,180.7,218,180.5"/>
<path id="path274" inkscape:connector-curvature="0" class="st0" d="M195.1,204.7c0.2,0.2,0.5,0.7,0.5,0.7s0.5-1.1,1.2-1.6
	c0.8-0.4,2.1-1,2.7-1.1C197.3,202.2,195.2,203.9,195.1,204.7"/>
<path id="path276" inkscape:connector-curvature="0" class="st0" d="M194,186.6c0.4,0,0.5-0.4,0.6-0.8l0.1-0.1c0,0,0.4-0.4,0.7-1.2
	c0.2,1.1,0.7,3.2,0.3,3.8l-0.6,0.6l0.6-0.4c0.2-0.1,0.7-0.5,0.5-1.3c-0.1-0.4-0.7-3.8-0.7-3.8l0-0.1c0-0.4-0.2-0.9-0.4-1.2
	c-0.4-0.6-1.1-0.9-1.5-0.9c0,0,1.8,1.2,1.5,2.4c-0.2,1.2-0.4,1.3-0.4,1.3l-0.2-0.3l0,0.7c0,0.3-0.2,0.5-0.4,0.5
	c-0.7,0-1.2,0.9-1.9,0.7c-0.7-0.2-1-0.8-1.5-1.1c-0.4-0.3,0.2-0.9,0.2-0.9s0-0.2-0.2-0.4c-0.2-0.1-0.5,0.6-0.5,0.6s-0.4,1,0.2,1.4
	c1,0.7,0.7,0.7,1.8,1C193.2,187.5,193.1,186.5,194,186.6"/>
<path id="path278" inkscape:connector-curvature="0" class="st0" d="M241.8,154c-0.7,0-1.7-0.5-1.9-1.8c-0.1-0.3-0.7-1.8-1.3-3.1
	c-3.2-7.5-2.9-4.7-2.6-5.9c0.5-2.1,3.5-2.4,5.6-2.4c0.5,0,0.9,0,1,0c1.1,0,2,0.4,2.7,1.1c1.2,1.2,1.5,2.9,1.5,3.7
	c0,0.1-1.6,4.9-2.4,6.4l0,0.1C243.2,153.9,242.1,154,241.8,154L241.8,154L241.8,154z"/>
<path id="path280" inkscape:connector-curvature="0" class="st5" d="M242.5,142.4c0,0-4.7-0.3-5,1.1c-0.3,1.4,3,6.9,4,8.4
	c0.7,1.1,1.5-0.7,1.5-0.7c0.5-0.9,2.2-5,2.2-5.6C245.1,144.9,244.6,142.4,242.5,142.4"/>
<path id="path282" inkscape:connector-curvature="0" class="st0" d="M110.3,96.2c0,0,13,0.8,15.3,15.5c0.7-2.7-2.2-11.6-5.9-13.7
	c-0.4-0.2-2-1-0.8-3.7C114.4,93.6,110.3,96.2,110.3,96.2"/>
<path id="path284" inkscape:connector-curvature="0" class="st0" d="M172.2,102.1c0,0,7.9-3,9.8,9.7c0.9-4.7-0.2-10.2-3.4-11.9
	C175.4,98.3,172.2,102.1,172.2,102.1"/>
<path id="path286" inkscape:connector-curvature="0" class="st0" d="M134.9,115.7c0,0,0.8,2.7,1.6,3.2c0.9,0.5,3-2.8,3-2.8
	s-1.5,4-2.9,5C135.6,120.3,135.2,119.3,134.9,115.7"/>
<path id="path288" inkscape:connector-curvature="0" class="st0" d="M138.1,118.7c0,0,1.3,2.7,2.1,3.2c0.9,0.5,2.8-2.6,2.8-2.6
	s-1.7,4.1-2.6,4.8C139.6,123.4,138,122.4,138.1,118.7"/>
<path id="path290" inkscape:connector-curvature="0" class="st0" d="M130.7,123.3c0,0,1.6,2.9,2.5,3.2c1.6,0.6,1.7-3.5,1.7-3.5
	s0.7,4.6-1.1,6.1C132.4,128.2,131.6,127.7,130.7,123.3"/>
<path id="path292" inkscape:connector-curvature="0" class="st0" d="M134.7,121.6c0,0,0.8,2.5,1.6,3.1c0.8,0.6,2.4-3.9,2.4-3.9
	s-0.5,4.4-1.8,6.7C136.2,126.5,134.8,125.1,134.7,121.6"/>
<path id="path294" inkscape:connector-curvature="0" class="st0" d="M137.9,123.6c0,0.1,1.5,2.4,2.5,2.8c1,0.4,1.6-3.4,1.6-3.4
	s0.3,4.4-0.9,5.7C140.4,128.2,138.2,127,137.9,123.6"/>
<path id="path296" inkscape:connector-curvature="0" class="st0" d="M138.8,113c0,0,1.5,3.4,2.5,3.9c1,0.5,2.5-3.1,2.5-3.1
	s-0.8,3.9-2.5,5.2C140,117.9,139.6,117.2,138.8,113"/>
<path id="path298" inkscape:connector-curvature="0" class="st0" d="M136.3,110.1c0,0,0.9,2.5,1.8,3c0.8,0.4,2.3-3,2.3-3
	s-0.9,4.3-2.2,5.7C137.2,115,136.8,113.8,136.3,110.1"/>
<path id="path300" inkscape:connector-curvature="0" class="st0" d="M141.4,109.2c0,0,0.8,2.2,1.5,2.6c0.7,0.5,1.8-1.4,1.8-1.4
	s-0.4,3-1.8,3.4C142.4,113.3,141.8,112.3,141.4,109.2"/>
<path id="path302" inkscape:connector-curvature="0" class="st0" d="M145.4,106.6c0,0,0.4,2,1.1,2.5c0.6,0.4,1.7-1.4,1.7-1.4
	s-0.1,2.3-1.7,3.3C145.7,110.3,145,109.4,145.4,106.6"/>
<path id="path304" inkscape:connector-curvature="0" class="st0" d="M149,103.6c0,0,0.4,2,1,2.5c0.6,0.4,1.7-1.4,1.7-1.4
	s-0.2,2.8-1.7,3.1C150.3,108,148.8,106.1,149,103.6"/>
<path id="path306" inkscape:connector-curvature="0" class="st0" d="M131.6,118.3c0,0,1.4,2.4,2,2.5c0.6,0.1,1.8-2.5,1.8-2.5
	s-0.6,3.4-1.8,4.1C133,121.7,131.9,120.6,131.6,118.3"/>
<path id="path308" inkscape:connector-curvature="0" class="st0" d="M139.6,106.9c0,0,0.6,2,1.2,2.4c0.6,0.4,1.6-1.5,1.6-1.5
	s-0.3,2.9-1.4,3.7C140.3,110.9,139.5,109.8,139.6,106.9"/>
<path id="path310" inkscape:connector-curvature="0" class="st5" d="M197.8,138.5c-2.2-0.8-4.9-5.3-5.7-7.3c-0.8-2-2.3-7.7-1.4-9.8
	c0.5,2.1,1.7,6.5,2.7,8.5C194.8,133,196.6,136.9,197.8,138.5"/>
<path id="path312" inkscape:connector-curvature="0" class="st0" d="M245.1,197.3c-0.4-0.8-2.5-1.7-3.4-1.8c-0.8-0.1-1-0.1-1.1,0.7
	c-0.1,0.7-0.1,1.4,0,2.2c0.2,1.3,0.3,0.9,1.5,1c0.9,0.1,1.6,0.2,2.5,0.1c0.8,0,1-0.1,1-0.8C245.6,198.1,245.8,197.4,245.1,197.3"/>
</svg>
