<?xml version="1.0" encoding="utf-8"?>
<!-- Generator: Adobe Illustrator 19.0.0, SVG Export Plug-In . SVG Version: 6.00 Build 0)  -->
<svg version="1.1" id="Layer_1" xmlns="http://www.w3.org/2000/svg" xmlns:xlink="http://www.w3.org/1999/xlink" x="0px" y="0px"
	 viewBox="0 0 400 400" style="enable-background:new 0 0 400 400;" xml:space="preserve">
<style type="text/css">
	.st0{fill:#181A1D;}
	.st1{fill:#F37321;}
	.st2{fill:#A41D36;}
	.st3{fill:#131210;}
	.st4{fill:none;stroke:#121210;stroke-width:0.165;stroke-miterlimit:10;}
	.st5{fill:#BCB9B8;}
	.st6{fill:none;stroke:#BCB9B8;stroke-width:0.165;stroke-miterlimit:10;}
	.st7{fill:none;stroke:#181A1D;stroke-width:0.418;stroke-linecap:round;stroke-miterlimit:10;}
</style>
<path id="path96" inkscape:connector-curvature="0" class="st0" d="M340.7,89.5l-1-5.4l-5.4-1.1c-0.4-0.1-36.1-7.6-67.9-25.3
	C221,32.2,205.7,16.2,205.5,16l-6.1-6.6l-6.1,6.6c-0.2,0.2-15.5,16.2-60.8,41.6c-31.8,17.7-67.6,25.3-68,25.3l-5.4,1.1l-1,5.4
	c-6.3,33.9-6.4,68.1-0.3,101.6l2.7,13.4l0.8,3.1c8.7,35.2,23.9,68.1,45.5,97.7c23.4,32.2,53,59.1,88.2,80.2l4.2,2.5l4.2-2.5
	c35.2-21,64.9-48,88.2-80.2c21.5-29.7,36.8-62.5,45.5-97.7l3.5-16.4C347.1,157.6,347,123.4,340.7,89.5"/>
<path id="path98" inkscape:connector-curvature="0" class="st1" d="M332.6,91c0,0-37-7.6-70.3-26.2c-47.8-26.8-62.8-43.2-62.8-43.2
	s-15,16.4-62.8,43.2C103.4,83.4,66.4,91,66.4,91c-6.8,36.7-6,73.4,1.7,108.4h262.8C338.6,164.4,339.4,127.7,332.6,91"/>
<path id="path100" inkscape:connector-curvature="0" class="st2" d="M199.5,378.4c69.6-41.5,115.4-106.6,131.4-179H68.1
	C84.1,271.8,129.9,336.8,199.5,378.4"/>
<path id="path102" inkscape:connector-curvature="0" class="st3" d="M168.8,313.4v-4.1c0-0.8,0-1.1-0.5-1.1c-0.6,0-2.9,1.2-3.6,1.5
	c-0.2,0.1-0.3,0.1-0.4,0.1c-0.1,0-0.3-0.2-0.3-0.4c0-0.2,0.2-0.3,0.3-0.4c0.1-0.1,6.1-4,7.2-4.9c0.3-0.2,0.6-0.4,0.8-0.4
	c0.3,0,0.4,0.4,0.4,0.7c0,0.3-0.2,3.4-0.2,8.2v5.8c0,3,0,5.7,0.1,7.1c0.1,1,0.3,1.5,1.2,1.7c0.5,0.1,1.8,0.2,2.1,0.2
	c0.1,0,0.3,0.1,0.3,0.3c0,0.2-0.2,0.3-0.5,0.3c-2.4,0-4.4-0.1-5.2-0.1c-0.7,0-3.3,0.1-5.4,0.1c-0.3,0-0.5-0.1-0.5-0.3
	c0-0.2,0.1-0.3,0.3-0.3c0.3,0,1.9-0.1,2.5-0.2c1-0.2,1.2-0.6,1.3-1.7c0.1-1.4,0.2-4.1,0.2-7.1L168.8,313.4L168.8,313.4z"/>
<g id="g104" transform="translate(51.0029,704.6475)">
	<path id="path106" inkscape:connector-curvature="0" class="st4" d="M117.8-391.2v-4.1c0-0.8,0-1.1-0.5-1.1c-0.6,0-2.9,1.2-3.6,1.5
		c-0.2,0.1-0.3,0.1-0.4,0.1c-0.1,0-0.3-0.2-0.3-0.4c0-0.2,0.2-0.3,0.3-0.4c0.1-0.1,6.1-4,7.2-4.9c0.3-0.2,0.6-0.4,0.8-0.4
		c0.3,0,0.4,0.4,0.4,0.7c0,0.3-0.2,3.4-0.2,8.2v5.8c0,3,0,5.7,0.1,7.1c0.1,1,0.3,1.5,1.2,1.7c0.5,0.1,1.8,0.2,2.1,0.2
		c0.1,0,0.3,0.1,0.3,0.3c0,0.2-0.2,0.3-0.5,0.3c-2.4,0-4.4-0.1-5.2-0.1c-0.7,0-3.3,0.1-5.4,0.1c-0.3,0-0.5-0.1-0.5-0.3
		c0-0.2,0.1-0.3,0.3-0.3c0.3,0,1.9-0.1,2.5-0.2c1-0.2,1.2-0.6,1.3-1.7c0.1-1.4,0.2-4.1,0.2-7.1L117.8-391.2z"/>
</g>
<path id="path108" inkscape:connector-curvature="0" class="st3" d="M196.7,312.3c0,8.8-7.7,14.4-11.5,16.2
	c-0.2,0.1-0.3,0.1-0.6,0.1c-0.1,0-0.3-0.2-0.3-0.3c0-0.2,0.2-0.4,0.4-0.5c3.2-2,8.1-7.2,8.1-14.6c0-5.6-2.3-8-4.8-8
	c-2.2,0-3.7,2-3.7,4.7c0,4.8,3.1,6,4.2,6c1.1,0,1.7-0.2,2.1-0.4c0.3-0.2,0.5-0.3,0.6-0.3c0.1,0,0.2,0.1,0.2,0.3
	c0,0.1-0.1,0.3-0.2,0.3c-0.9,1-2.5,1.4-4.1,1.4c-4.5,0-6.4-3.4-6.4-6.1c0-4.3,3.2-7.4,8-7.4C193.9,303.7,196.7,307.5,196.7,312.3"/>
<g id="g110" transform="translate(55.9805,704.8467)">
	<path id="path112" inkscape:connector-curvature="0" class="st4" d="M140.7-392.5c0,8.8-7.7,14.4-11.5,16.2
		c-0.2,0.1-0.3,0.1-0.6,0.1c-0.1,0-0.3-0.2-0.3-0.3c0-0.2,0.2-0.4,0.4-0.5c3.2-2,8.1-7.2,8.1-14.6c0-5.6-2.3-8-4.8-8
		c-2.2,0-3.7,2-3.7,4.7c0,4.8,3.1,6,4.2,6c1.1,0,1.7-0.2,2.1-0.4c0.3-0.2,0.5-0.3,0.6-0.3c0.1,0,0.2,0.1,0.2,0.3
		c0,0.1-0.1,0.3-0.2,0.3c-0.9,1-2.5,1.4-4.1,1.4c-4.5,0-6.4-3.4-6.4-6.1c0-4.3,3.2-7.4,8-7.4C137.9-401.1,140.7-397.3,140.7-392.5z"
		/>
</g>
<path id="path114" inkscape:connector-curvature="0" class="st3" d="M199.9,327.9c-0.2,0-0.4-0.2-0.4-0.4c0-0.3,0.3-0.5,0.6-0.8
	c4.4-3.9,10.6-8.8,10.6-15.5c0-5-2.7-6-4.3-6c-1.3,0-2.4,0.3-3.3,1.1c-0.7,0.7-1.3,2.2-1.3,3c0,0.3-0.1,0.6-0.4,0.6
	c-0.2,0-0.3-0.2-0.3-0.6c0-0.3-0.2-2.9-0.2-3.8c0-0.3,0-0.4,0.4-0.6c1.2-0.6,2.9-1.2,5.7-1.2c5.5,0,7.8,3,7.8,6.7
	c0,6.1-6.7,11.5-10.8,14.7c-0.2,0.1-0.1,0.2,0.1,0.2h2.1c0.5,0,4.2,0,5.4-0.2c2.2-0.3,3.2-1.3,3.6-2.8c0.1-0.4,0.2-0.5,0.4-0.5
	c0.2,0,0.2,0.3,0.2,0.6c0,0.5-0.6,3.4-0.9,4.5c-0.3,0.9-0.8,1-2.7,1L199.9,327.9L199.9,327.9z"/>
<g id="g116" transform="translate(56.5557,702.0596)">
	<path id="path118" inkscape:connector-curvature="0" class="st4" d="M143.4-374.1c-0.2,0-0.4-0.2-0.4-0.4c0-0.3,0.3-0.5,0.6-0.8
		c4.4-3.9,10.6-8.8,10.6-15.5c0-5-2.7-6-4.3-6c-1.3,0-2.4,0.3-3.3,1.1c-0.7,0.7-1.3,2.2-1.3,3c0,0.3-0.1,0.6-0.4,0.6
		c-0.2,0-0.3-0.2-0.3-0.6c0-0.3-0.2-2.9-0.2-3.8c0-0.3,0-0.4,0.4-0.6c1.2-0.6,2.9-1.2,5.7-1.2c5.5,0,7.8,3,7.8,6.7
		c0,6.1-6.7,11.5-10.8,14.7c-0.2,0.1-0.1,0.2,0.1,0.2h2.1c0.5,0,4.2,0,5.4-0.2c2.2-0.3,3.2-1.3,3.6-2.8c0.1-0.4,0.2-0.5,0.4-0.5
		c0.2,0,0.2,0.3,0.2,0.6c0,0.5-0.6,3.4-0.9,4.5c-0.3,0.9-0.8,1-2.7,1H143.4z"/>
</g>
<path id="path120" inkscape:connector-curvature="0" class="st3" d="M234.2,304.3c0.6,0,0.7,0.1,0.7,0.3c0,0.2-0.1,0.4-0.2,0.6
	c-2.6,3.7-7.5,16.3-7.9,20.3c-0.1,0.5,0,0.8,0,1.2c0,0.6-2.5,1.9-3.9,1.9c-0.4,0-0.4-0.1-0.4-0.4c0-0.3,0.1-0.8,0.2-1.3
	c0.9-3,4.9-12.3,9.2-19.6h-8.1c-0.9,0-2.2,0.1-2.9,0.6c-0.6,0.4-1,1.4-1,1.9c0,0.3-0.1,0.4-0.3,0.4c-0.2,0-0.3-0.2-0.3-0.5
	c0-1.2,0.5-4.9,0.5-5.2c0-0.3,0.1-0.4,0.3-0.4s0.9,0.3,4.2,0.3H234.2z"/>
<g id="g122" transform="translate(62.6699,706.2822)">
	<path id="path124" inkscape:connector-curvature="0" class="st4" d="M171.5-402c0.6,0,0.7,0.1,0.7,0.3c0,0.2-0.1,0.4-0.2,0.6
		c-2.6,3.7-7.5,16.3-7.9,20.3c-0.1,0.5,0,0.8,0,1.2c0,0.6-2.5,1.9-3.9,1.9c-0.4,0-0.4-0.1-0.4-0.4c0-0.3,0.1-0.8,0.2-1.3
		c0.9-3,4.9-12.3,9.2-19.6h-8.1c-0.9,0-2.2,0.1-2.9,0.6c-0.6,0.4-1,1.4-1,1.9c0,0.3-0.1,0.4-0.3,0.4c-0.2,0-0.3-0.2-0.3-0.5
		c0-1.1,0.5-4.9,0.5-5.2c0-0.3,0.1-0.4,0.3-0.4s0.9,0.3,4.2,0.3H171.5z"/>
</g>
<path id="path126" inkscape:connector-curvature="0" class="st5" d="M168.8,312.3v-4.1c0-0.8,0-1.1-0.5-1.1c-0.6,0-2.9,1.2-3.6,1.5
	c-0.2,0.1-0.3,0.1-0.4,0.1c-0.1,0-0.3-0.2-0.3-0.4c0-0.2,0.2-0.3,0.3-0.4c0.1-0.1,6.1-4,7.2-4.9c0.3-0.2,0.6-0.4,0.8-0.4
	c0.3,0,0.4,0.4,0.4,0.7c0,0.2-0.2,3.4-0.2,8.2v5.8c0,3,0,5.7,0.1,7.1c0.1,1,0.3,1.5,1.2,1.7c0.5,0.1,1.8,0.2,2.1,0.2
	c0.1,0,0.3,0.1,0.3,0.3c0,0.2-0.2,0.3-0.5,0.3c-2.4,0-4.4-0.1-5.2-0.1c-0.7,0-3.3,0.1-5.3,0.1c-0.3,0-0.5-0.1-0.5-0.3
	c0-0.2,0.1-0.3,0.3-0.3c0.3,0,1.9-0.1,2.5-0.2c1-0.2,1.2-0.7,1.3-1.7c0.1-1.4,0.2-4.1,0.2-7.1L168.8,312.3L168.8,312.3z"/>
<g id="g128" transform="translate(51.0029,704.8506)">
	<path id="path130" inkscape:connector-curvature="0" class="st6" d="M117.8-392.6v-4.1c0-0.8,0-1.1-0.5-1.1c-0.6,0-2.9,1.2-3.6,1.5
		c-0.2,0.1-0.3,0.1-0.4,0.1c-0.1,0-0.3-0.2-0.3-0.4c0-0.2,0.2-0.3,0.3-0.4c0.1-0.1,6.1-4,7.2-4.9c0.3-0.2,0.6-0.4,0.8-0.4
		c0.3,0,0.4,0.4,0.4,0.7c0,0.2-0.2,3.4-0.2,8.2v5.8c0,3,0,5.7,0.1,7.1c0.1,1,0.3,1.5,1.2,1.7c0.5,0.1,1.8,0.2,2.1,0.2
		c0.1,0,0.3,0.1,0.3,0.3c0,0.2-0.2,0.3-0.5,0.3c-2.4,0-4.4-0.1-5.2-0.1c-0.7,0-3.3,0.1-5.3,0.1c-0.3,0-0.5-0.1-0.5-0.3
		c0-0.2,0.1-0.3,0.3-0.3c0.3,0,1.9-0.1,2.5-0.2c1-0.2,1.2-0.7,1.3-1.7c0.1-1.4,0.2-4.1,0.2-7.1L117.8-392.6z"/>
</g>
<path id="path132" inkscape:connector-curvature="0" class="st5" d="M196.7,311.2c0,8.8-7.7,14.4-11.5,16.2
	c-0.2,0.1-0.3,0.1-0.6,0.1c-0.1,0-0.3-0.2-0.3-0.3c0-0.2,0.2-0.4,0.4-0.5c3.2-2,8.1-7.2,8.1-14.6c0-5.6-2.3-8.1-4.7-8.1
	c-2.3,0-3.8,2-3.8,4.7c0,4.8,3.1,6,4.2,6c1.1,0,1.7-0.2,2.1-0.4c0.3-0.2,0.5-0.4,0.6-0.4c0.1,0,0.2,0.1,0.2,0.3
	c0,0.1-0.1,0.3-0.2,0.3c-0.9,1-2.5,1.4-4.1,1.4c-4.5,0-6.4-3.4-6.4-6.1c0-4.3,3.2-7.4,8-7.4C193.9,302.6,196.7,306.4,196.7,311.2"/>
<g id="g134" transform="translate(55.9805,705.0479)">
	<path id="path136" inkscape:connector-curvature="0" class="st6" d="M140.7-393.9c0,8.8-7.7,14.4-11.5,16.2
		c-0.2,0.1-0.3,0.1-0.6,0.1c-0.1,0-0.3-0.2-0.3-0.3c0-0.2,0.2-0.4,0.4-0.5c3.2-2,8.1-7.2,8.1-14.6c0-5.6-2.3-8.1-4.7-8.1
		c-2.3,0-3.8,2-3.8,4.7c0,4.8,3.1,6,4.2,6c1.1,0,1.7-0.2,2.1-0.4c0.3-0.2,0.5-0.4,0.6-0.4c0.1,0,0.2,0.1,0.2,0.3
		c0,0.1-0.1,0.3-0.2,0.3c-0.9,1-2.5,1.4-4.1,1.4c-4.5,0-6.4-3.4-6.4-6.1c0-4.3,3.2-7.4,8-7.4C137.9-402.5,140.7-398.7,140.7-393.9z"
		/>
</g>
<path id="path138" inkscape:connector-curvature="0" class="st5" d="M199.9,326.8c-0.2,0-0.4-0.2-0.4-0.4c0-0.2,0.3-0.5,0.6-0.8
	c4.4-3.9,10.6-8.8,10.6-15.5c0-5-2.7-6-4.3-6c-1.3,0-2.4,0.3-3.3,1.1c-0.7,0.7-1.3,2.2-1.3,3c0,0.3-0.1,0.6-0.4,0.6
	c-0.2,0-0.3-0.2-0.3-0.6c0-0.3-0.2-2.9-0.2-3.8c0-0.3,0-0.4,0.4-0.6c1.2-0.6,2.9-1.2,5.7-1.2c5.5,0,7.8,3,7.8,6.7
	c0,6.1-6.7,11.4-10.8,14.7c-0.2,0.1-0.1,0.2,0.1,0.2h2.1c0.5,0,4.2,0,5.4-0.2c2.2-0.3,3.2-1.3,3.6-2.8c0.1-0.4,0.2-0.5,0.4-0.5
	c0.2,0,0.2,0.3,0.2,0.6c0,0.5-0.6,3.5-0.9,4.5c-0.3,0.9-0.8,1-2.7,1L199.9,326.8L199.9,326.8z"/>
<g id="g140" transform="translate(56.5557,702.2607)">
	<path id="path142" inkscape:connector-curvature="0" class="st6" d="M143.4-375.4c-0.2,0-0.4-0.2-0.4-0.4c0-0.2,0.3-0.5,0.6-0.8
		c4.4-3.9,10.6-8.8,10.6-15.5c0-5-2.7-6-4.3-6c-1.3,0-2.4,0.3-3.3,1.1c-0.7,0.7-1.3,2.2-1.3,3c0,0.3-0.1,0.6-0.4,0.6
		c-0.2,0-0.3-0.2-0.3-0.6c0-0.3-0.2-2.9-0.2-3.8c0-0.3,0-0.4,0.4-0.6c1.2-0.6,2.9-1.2,5.7-1.2c5.5,0,7.8,3,7.8,6.7
		c0,6.1-6.7,11.4-10.8,14.7c-0.2,0.1-0.1,0.2,0.1,0.2h2.1c0.5,0,4.2,0,5.4-0.2c2.2-0.3,3.2-1.3,3.6-2.8c0.1-0.4,0.2-0.5,0.4-0.5
		c0.2,0,0.2,0.3,0.2,0.6c0,0.5-0.6,3.5-0.9,4.5c-0.3,0.9-0.8,1-2.7,1H143.4z"/>
</g>
<path id="path144" inkscape:connector-curvature="0" class="st5" d="M234.2,303.1c0.6,0,0.7,0.1,0.7,0.3c0,0.2-0.1,0.4-0.2,0.6
	c-2.6,3.7-7.5,16.3-7.9,20.3c-0.1,0.5,0,0.8,0,1.2c0,0.6-2.5,1.9-3.9,1.9c-0.4,0-0.4-0.1-0.4-0.4c0-0.3,0.1-0.8,0.2-1.3
	c0.9-3,4.9-12.4,9.2-19.6h-8.1c-0.9,0-2.2,0.1-2.9,0.6c-0.6,0.4-1,1.4-1,1.9c0,0.3-0.1,0.4-0.3,0.4c-0.2,0-0.3-0.2-0.3-0.5
	c0-1.2,0.5-4.9,0.5-5.2c0-0.3,0.1-0.4,0.3-0.4s0.9,0.3,4.2,0.3L234.2,303.1L234.2,303.1z"/>
<g id="g146" transform="translate(62.6699,706.4834)">
	<path id="path148" inkscape:connector-curvature="0" class="st6" d="M171.5-403.4c0.6,0,0.7,0.1,0.7,0.3c0,0.2-0.1,0.4-0.2,0.6
		c-2.6,3.7-7.5,16.3-7.9,20.3c-0.1,0.5,0,0.8,0,1.2c0,0.6-2.5,1.9-3.9,1.9c-0.4,0-0.4-0.1-0.4-0.4c0-0.3,0.1-0.8,0.2-1.3
		c0.9-3,4.9-12.4,9.2-19.6h-8.1c-0.9,0-2.2,0.1-2.9,0.6c-0.6,0.4-1,1.4-1,1.9c0,0.3-0.1,0.4-0.3,0.4c-0.2,0-0.3-0.2-0.3-0.5
		c0-1.2,0.5-4.9,0.5-5.2c0-0.3,0.1-0.4,0.3-0.4s0.9,0.3,4.2,0.3H171.5z"/>
</g>
<path id="path150" inkscape:connector-curvature="0" class="st3" d="M113.4,253.3c0,0.6,0.1,0.9,0.5,1c1.2,0.4,3,0.6,4.5,0.6
	c2.3,0,3.1-0.3,4.2-1c1.8-1.3,3.5-4,3.5-8.8c0-8.3-5.5-10.7-9-10.7c-1.5,0-2.5,0.1-3.1,0.2c-0.4,0.1-0.5,0.3-0.5,0.8V253.3z
	 M106.5,248.6c0-8.9,0-10.6-0.1-12.4c-0.1-2-0.6-2.9-2.5-3.4c-0.5-0.1-1.5-0.2-2.3-0.2c-0.6,0-1-0.1-1-0.5c0-0.4,0.4-0.5,1.3-0.5
	c3.1,0,6.8,0.2,8,0.2c2,0,6.5-0.2,8.3-0.2c3.7,0,7.6,0.4,10.8,2.5c1.6,1.1,4,4.1,4,8c0,4.3-1.8,8.3-7.7,13.1
	c5.2,6.6,9.3,11.8,12.7,15.4c3.3,3.4,5.7,3.8,6.6,4c0.6,0.1,1.2,0.2,1.6,0.2c0.5,0,0.7,0.2,0.7,0.5c0,0.5-0.4,0.6-1.1,0.6h-5.6
	c-3.3,0-4.8-0.3-6.3-1.1c-2.5-1.4-4.7-4.1-8-8.6c-2.4-3.2-5.1-7.2-5.8-8.1c-0.3-0.4-0.7-0.4-1.1-0.4l-5.1-0.1
	c-0.3,0-0.5,0.1-0.5,0.5v0.8c0,5.5,0,10.1,0.3,12.6c0.2,1.7,0.5,3,2.3,3.2c0.9,0.1,2.2,0.2,2.9,0.2c0.5,0,0.7,0.2,0.7,0.5
	c0,0.4-0.4,0.6-1.2,0.6c-3.4,0-7.8-0.2-8.6-0.2c-1.1,0-4.8,0.2-7.2,0.2c-0.8,0-1.2-0.2-1.2-0.6c0-0.3,0.2-0.5,0.9-0.5
	c0.9,0,1.6-0.1,2.1-0.2c1.2-0.2,1.5-1.5,1.7-3.2c0.3-2.5,0.3-7.1,0.3-12.5V248.6z"/>
<path id="path152" inkscape:connector-curvature="0" class="st3" d="M184.1,254.9c0-13.2-7.6-21.3-17.2-21.3
	c-6.8,0-14.5,3.7-14.5,18.4c0,12.2,6.7,21.9,18,21.9C174.6,273.9,184.1,271.9,184.1,254.9 M144.4,253.8c0-10,6.6-23,24.2-23
	c14.6,0,23.7,8.5,23.7,21.9c0,13.4-9.4,24.1-24.3,24.1C151.2,276.8,144.4,264.2,144.4,253.8"/>
<path id="path154" inkscape:connector-curvature="0" class="st3" d="M201.5,232.3c0.2-1,0.5-1.5,1-1.5c0.5,0,0.8,0.3,1.6,1.8
	l16,32.6l16-33c0.5-0.9,0.8-1.4,1.3-1.4c0.5,0,0.9,0.6,1,1.8l5.3,35.9c0.5,3.7,1.1,5.4,2.9,5.9c1.7,0.5,2.9,0.6,3.6,0.6
	c0.5,0,0.9,0.1,0.9,0.4c0,0.5-0.7,0.7-1.5,0.7c-1.5,0-9.6-0.1-11.9-0.3c-1.3-0.1-1.7-0.3-1.7-0.6c0-0.3,0.2-0.5,0.6-0.6
	c0.4-0.1,0.5-0.9,0.3-2.5l-3.5-25.5h-0.2l-12.8,26.2c-1.3,2.7-1.6,3.3-2.2,3.3c-0.5,0-1.1-1.2-2.1-2.9c-1.4-2.7-6-11.7-6.8-13.3
	c-0.5-1.2-4.1-8.2-6.1-12.6h-0.2l-3.1,22.9c-0.1,1.1-0.2,1.8-0.2,2.8c0,1.1,0.8,1.6,1.8,1.9c1.1,0.2,1.9,0.3,2.5,0.3
	c0.5,0,0.9,0.1,0.9,0.4c0,0.5-0.5,0.6-1.4,0.6c-2.5,0-5.1-0.2-6.2-0.2c-1.1,0-3.9,0.2-5.8,0.2c-0.6,0-1.1-0.1-1.1-0.6
	c0-0.3,0.3-0.4,0.9-0.4c0.5,0,0.9,0,1.8-0.2c1.6-0.4,2.1-2.6,2.4-4.6L201.5,232.3L201.5,232.3z"/>
<path id="path156" inkscape:connector-curvature="0" class="st3" d="M277.8,258.1c0.3,0,0.3-0.2,0.3-0.3l-5.3-14.4
	c-0.1-0.2-0.1-0.5-0.3-0.5c-0.2,0-0.3,0.3-0.3,0.5l-5.4,14.4c-0.1,0.2,0,0.4,0.2,0.4H277.8L277.8,258.1z M265.8,261
	c-0.3,0-0.4,0.1-0.5,0.5l-3.2,8c-0.6,1.5-0.9,2.9-0.9,3.6c0,1,0.5,1.8,2.3,1.8h0.9c0.7,0,0.9,0.1,0.9,0.5c0,0.5-0.3,0.6-1,0.6
	c-1.9,0-4.4-0.2-6.2-0.2c-0.6,0-3.9,0.2-6.9,0.2c-0.8,0-1.1-0.1-1.1-0.6c0-0.3,0.2-0.5,0.7-0.5c0.5,0,1.4-0.1,1.8-0.1
	c2.7-0.3,3.8-2.4,5-5.3l14.7-36.4c0.7-1.7,1.1-2.3,1.6-2.3c0.5,0,0.9,0.5,1.5,1.9c1.4,3.2,10.8,26.7,14.6,35.6
	c2.2,5.3,3.9,6.1,5.2,6.4c0.9,0.2,1.8,0.2,2.5,0.2c0.5,0,0.8,0.1,0.8,0.5c0,0.5-0.5,0.6-2.7,0.6c-2.1,0-6.4,0-11.1-0.1
	c-1.1-0.1-1.8-0.1-1.8-0.5c0-0.3,0.2-0.5,0.8-0.5c0.4-0.1,0.8-0.6,0.5-1.3l-4.7-12.1c-0.1-0.3-0.3-0.4-0.6-0.4L265.8,261L265.8,261z
	"/>
<path id="path158" inkscape:connector-curvature="0" class="st1" d="M113.4,252c0,0.7,0.1,0.9,0.5,1.1c1.2,0.4,3,0.6,4.5,0.6
	c2.3,0,3.1-0.2,4.2-1c1.8-1.3,3.5-4,3.5-8.8c0-8.3-5.5-10.7-9-10.7c-1.5,0-2.5,0.1-3.1,0.2c-0.4,0.1-0.5,0.4-0.5,0.8V252z
	 M106.5,247.3c0-8.9,0-10.6-0.1-12.4c-0.1-2-0.6-2.9-2.5-3.4c-0.5-0.1-1.5-0.2-2.3-0.2c-0.6,0-1-0.1-1-0.5c0-0.4,0.4-0.5,1.3-0.5
	c3.1,0,6.8,0.2,8,0.2c2,0,6.5-0.2,8.3-0.2c3.7,0,7.6,0.4,10.8,2.5c1.6,1.1,4,4.1,4,8c0,4.3-1.8,8.3-7.7,13.1
	c5.2,6.6,9.3,11.8,12.7,15.4c3.3,3.4,5.7,3.8,6.6,4c0.6,0.1,1.2,0.2,1.6,0.2c0.5,0,0.7,0.2,0.7,0.5c0,0.5-0.4,0.6-1.1,0.6h-5.6
	c-3.3,0-4.8-0.3-6.3-1.1c-2.5-1.4-4.7-4.1-8-8.6c-2.4-3.2-5.1-7.2-5.8-8.1c-0.3-0.4-0.7-0.4-1.1-0.4l-5.1-0.1
	c-0.3,0-0.5,0.1-0.5,0.5v0.8c0,5.5,0,10.1,0.3,12.6c0.2,1.7,0.5,3,2.3,3.2c0.9,0.1,2.2,0.2,2.9,0.2c0.5,0,0.7,0.2,0.7,0.5
	c0,0.4-0.4,0.6-1.2,0.6c-3.4,0-7.8-0.2-8.6-0.2c-1.1,0-4.8,0.2-7.2,0.2c-0.8,0-1.2-0.2-1.2-0.6c0-0.3,0.2-0.5,0.9-0.5
	c0.9,0,1.6-0.1,2.1-0.2c1.2-0.2,1.5-1.5,1.7-3.2c0.3-2.5,0.3-7.1,0.3-12.5V247.3L106.5,247.3z"/>
<path id="path160" inkscape:connector-curvature="0" class="st1" d="M184.1,253.6c0-13.1-7.6-21.3-17.2-21.3
	c-6.8,0-14.5,3.8-14.5,18.4c0,12.2,6.7,21.9,18,21.9C174.6,272.6,184.1,270.6,184.1,253.6 M144.4,252.5c0-10,6.6-23,24.2-23
	c14.6,0,23.7,8.5,23.7,21.9c0,13.4-9.4,24.1-24.3,24.1C151.2,275.5,144.4,262.9,144.4,252.5"/>
<path id="path162" inkscape:connector-curvature="0" class="st1" d="M201.5,231c0.2-1,0.5-1.5,1-1.5c0.5,0,0.8,0.3,1.6,1.8l16,32.6
	l16-33c0.5-0.9,0.8-1.4,1.3-1.4c0.5,0,0.9,0.6,1,1.8l5.4,35.9c0.5,3.7,1.1,5.4,2.9,5.9c1.7,0.5,2.9,0.6,3.6,0.6
	c0.5,0,0.9,0.1,0.9,0.4c0,0.5-0.7,0.7-1.5,0.7c-1.5,0-9.6-0.1-11.9-0.3c-1.3-0.1-1.7-0.3-1.7-0.6c0-0.3,0.2-0.5,0.6-0.7
	c0.4-0.1,0.5-0.9,0.3-2.5l-3.5-25.5h-0.2l-12.8,26.2c-1.3,2.8-1.6,3.3-2.2,3.3c-0.5,0-1.1-1.2-2.1-2.9c-1.4-2.7-6-11.7-6.8-13.3
	c-0.5-1.2-4.1-8.2-6.1-12.6h-0.2l-3.1,22.9c-0.1,1.1-0.2,1.8-0.2,2.8c0,1.1,0.8,1.6,1.8,1.9c1.1,0.2,1.9,0.3,2.5,0.3
	c0.5,0,0.9,0.1,0.9,0.4c0,0.5-0.5,0.6-1.4,0.6c-2.5,0-5.1-0.2-6.2-0.2c-1.1,0-3.9,0.2-5.8,0.2c-0.6,0-1.1-0.1-1.1-0.6
	c0-0.3,0.3-0.4,0.9-0.4c0.5,0,0.9,0,1.8-0.2c1.6-0.4,2.1-2.6,2.4-4.6L201.5,231z"/>
<path id="path164" inkscape:connector-curvature="0" class="st1" d="M277.8,256.8c0.3,0,0.3-0.2,0.3-0.3l-5.3-14.4
	c-0.1-0.2-0.1-0.5-0.3-0.5c-0.2,0-0.3,0.3-0.3,0.5l-5.4,14.4c-0.1,0.2,0,0.4,0.2,0.4H277.8L277.8,256.8z M265.8,259.7
	c-0.3,0-0.4,0.1-0.5,0.5l-3.2,8.1c-0.6,1.5-0.9,2.9-0.9,3.6c0,1,0.5,1.8,2.3,1.8h0.9c0.7,0,0.9,0.1,0.9,0.5c0,0.5-0.3,0.6-1,0.6
	c-1.9,0-4.4-0.2-6.2-0.2c-0.6,0-3.9,0.2-6.9,0.2c-0.8,0-1.1-0.1-1.1-0.6c0-0.4,0.2-0.5,0.7-0.5c0.5,0,1.4-0.1,1.8-0.1
	c2.7-0.3,3.8-2.3,5-5.3l14.7-36.4c0.7-1.7,1.1-2.3,1.6-2.3c0.5,0,0.9,0.5,1.5,1.9c1.4,3.2,10.8,26.7,14.6,35.6
	c2.2,5.3,3.9,6.1,5.2,6.4c0.9,0.2,1.8,0.2,2.5,0.2c0.5,0,0.8,0.1,0.8,0.5c0,0.5-0.5,0.6-2.7,0.6c-2.1,0-6.4,0-11.1-0.1
	c-1.1-0.1-1.8-0.1-1.8-0.5c0-0.4,0.2-0.5,0.8-0.5c0.4-0.1,0.8-0.6,0.5-1.4l-4.7-12.1c-0.1-0.3-0.3-0.4-0.6-0.4L265.8,259.7
	L265.8,259.7z"/>
<g id="g166" transform="translate(32.6816,724.9834)">
	<path id="path168" inkscape:connector-curvature="0" class="st7" d="M33.3-525.6h267"/>
</g>
<path id="path170" inkscape:connector-curvature="0" class="st0" d="M96,128c-1.1,0.7-1.6-1.3-1.6-1.3c-0.3-0.8-0.3-1.6,0.1-2
	c0.9,0.5,1.9,0.5,2.2,1C97,126.4,96.6,127.6,96,128 M307.9,176.4c-0.7-0.9-1.5-1.9-2.4-2.9c-3.8-4.6-12.2-15.9-12.2-15.9
	c0-36.6-6.6-43.5-13.3-49.2c-6-5.1-15.4-7.7-25.6-9.2c-2.8-0.4-5.8-0.6-9.3-0.6c-3.4,0-6.8,0.2-10.1,0.4c-2.7,0.2-50.5,2.2-65.8-0.4
	c-6.7-1.1-15.9,0.2-21.5,0.8c-2.5,0.3-16.3,2.5-17.9-0.1c-0.3-0.5-0.3-1.6-0.2-2.8c0.2-1.9,1-4.3-0.5-6.3c-2.1-2.9-4.3-6-5.6-6
	c-0.4,0-3.8,2.8-4.6,3.6c-1.4,1.4-1.8,3.7-1.8,6.4c0,1.6-0.1,1.3-0.2,1.4c-0.2,0.2-9,0.2-11.2,0.4c0-0.4-0.1-2.7-1.6-4.9
	c-1-1.4-1.8-6-1.8-6s-3.2,5.5-4.3,7c-1.2,1.6-2.4,3.3-3.2,5.3c-0.3,0.7-0.3,1.6-0.4,2.5c0,0.6-0.1,1.9-0.4,2.1
	c-1.7,1.2-2.6,2.9-2.8,5c0,0.6,0.1,1.4,0.3,2.4c0.1,0.6,0.3,1.6,0.3,2c-0.2,0.1-0.3,0.2-0.5,0.3c-1.5,1-3.6,2.3-3.4,4.7
	c0.2,3.6,1,5,2.2,6.9c0.3,0.5,0.6,1.1,1,1.8c0.5,1,0.7,2.3,0.9,3.7c0.3,1.9-1.4,3.9-0.3,5.1c1.6,1.5,5.6,1.6,7.3,1.6
	c0.5,0,2.3-0.1,2.7-0.1c0.7,0,1.2,0,1.7,0.1c3.4,0.7,6.7,0.9,10,1.2c4.5,0.3,8.7,0.7,13,1.9c7.9,2.3,15.6,5.5,23.7,9.8
	c0.4,0.2,0.9,0.4,1.2,0.7c3,1.5,3.6,1.3,5,5.4c1.4,4.1-1.2,36.3-1.8,39.6c-0.9,5.4-2.6,8.6-5.4,9.6c-3.7,1.3-5.3,4.3-6.7,7.1
	c-0.5,0.9-0.4,2-1,2.9c0,0-1.2,1.3-0.8,1.7c0.4,0.3,4.2-0.6,4.2-0.6c1.3,0.1-0.1,0.8,1.2,0.8c3.2,0,7,0,11-2.3
	c1.6,0,0.5,2.1,2.1,1.8c4.7-0.9,5.1-4.5,5.7-7.9c1-5.8,0.8-6.8,1.5-7.3c0.6-0.5,2.7,0.3,3.3-0.3c0.4-0.5,0-4.7,0.2-8.5
	c0.3-5.4,1.8-11.8,3.5-17.1l0.1-0.3c0.4-1.2,0.9-2.6,1.5-4.1c1.5-4,3.4-8.9,3.2-12.8c1.7,0.3,1.9,0.4,2.9,1.7
	c0.1,0.2,0.4,0.6,0.7,1.1c1.8,3,2.8,3.9,4,3.9c0.1,0,0.3,0,0.4,0c2-0.5,3.1-2.2,4.2-4.4c1.1-2.2,2.3-4.4,4.1-4.8c0.1,0,0.2,0,0.3,0
	c1.5,0,4.2,1.4,5.7,3.7c3.4,5.2,6.2,1.6,6.5,1.1c0.4-0.6,3.1-5,3.7-6.1c0.8-1.2,1.3-1.4,1.5-1.4h0c1.6,0.3,8.8,8.8,11.3,8.2
	c2.5-0.3,5.2-9.7,6.7-9.7c0.1,0,0.2,0,0.2,0c0.4,0.3,1.2,1.6,1.8,2.4c1.9,2.9,2.3,4.8,3.8,4.8c0.5,0,1.3-0.4,1.8-1.7
	c0.1-0.3,0.7-1.8,0.8-1.9c0.1,0.1,1.4,4.4,4.4,0.6c0,0-0.1-0.1-0.1-0.2c0,0,0,0.1,0,0.1c0,0,0,0,0-0.1c0,0,0,0,0-0.1c0,0,0,0,0,0.1
	c0.4-1,6.1,4.7,8.9,6.9c2.5,2.3,4.6,4.3,4.7,4.4c5.9,5.2,13.2,11.8,14.6,18.8c0.8,4.1,0.6,8.8-0.5,13.3c-0.3,0.9-0.5,1.5-0.7,1.6
	c-0.2,0.2-0.9,0.2-1.7,0.2c-0.4,0-0.8,0-1.2,0.1c-2,0.1-3.4,2.3-4.6,4.2c-0.5,0.9-1.3,1.6-1.6,2.2c-0.4,0.6,0.2,1.7,0.6,1.9
	c0.4,0.2,4,1.1,5.1,1.1c0.3,0,0.6,0,0.9-0.1c0.8,0.3,1.7,0.4,2.8,0.4c3.2,0,7.1-1.3,8.2-3.5c1.9-3.7,3.2-7.8,4.5-11.7
	c0.1-0.4,0.3-0.9,0.4-1.3c0.3-0.9,0.7-1.8,1-2.8c1.4-3.6,3.7-7.4,2.7-11c-0.5-1.9-2.4-3.7-3.6-5.3c-1.1-1.4-5.1-6.7-6.3-8.5
	c3.7,3.6,14.1,9,16.8,15.3c0.9,2.2,0,11.4-0.2,13.9c-0.1,1.2-0.1,2.4-0.2,3.6c-0.1,3.8-1.2,4.5-5,4.8c-3.3,0.3-4.8,5.2-5.6,7.8
	c0,0.2-0.1,0.3-0.1,0.4l-0.4,1.2l1.3,0.2c0.5,0.1,1,0.2,1.6,0.3c2.4,0.4,6.4,1.9,9.2,1.9c3.3,0,5.7-0.8,7.1-2.4
	c1.9-2.1,2.6-5.8,3.3-9.1c0.2-1.2,1.6-5.6,2.1-7.2C310.1,186,313.2,182.2,307.9,176.4"/>
<path id="path172" inkscape:connector-curvature="0" class="st5" d="M292.5,205.5c-0.4,0.7-1.6,0.8-2.1,1c-0.9,0.4-1.8,1-1.8,1.6
	c0,0.3-0.2,3.3,0,3.6c0.2,0.3,1.4,0.8,1.7,0.4c0.2-0.3,0-2.4,0.2-3.9c0-0.2,0.2-1.1,0.6-1.3C291.3,206.8,292.8,206.1,292.5,205.5"/>
<path id="path174" inkscape:connector-curvature="0" class="st5" d="M185.7,152c1.1-0.1,2.7-0.4,3.3,0c0.5,0.4,1.3,1.8,1.3,2.7
	c-0.1,0.9-2.8,5.4-3,5.6c-0.2,0.2-0.5,0.9-1,0.2c-0.5-0.7-1.4-7.6-1.4-7.6S184.7,152.1,185.7,152"/>
<path id="path176" inkscape:connector-curvature="0" class="st5" d="M306.7,178.7c-1.5-2.2-5.4-6.1-6.9-8
	c-2-2.5-11.4-13.5-11.4-13.5s-2.7-16.6-3.8-20.3c-0.7-2.4-2.8-19.9-16.3-29.3c0.7-1.2,9.5,5.6,12.6,11c5.7,9.7,8.2,35,8.2,35
	s3.6-38.7-16.8-46.9c-14.7-6.1-22-5.1-22-5.1s-10.2,6.1-4,17.7c1.2,2.3,14.6,22.8,15.4,24.4c7.6,14.3,31.8,30.9,36.2,35.4
	c0.2,0.3,4.4,3,4.7,6c0.1,0.6-5.7-3.3-5.6-2.6c0.8,7.2-0.1,20.9-0.2,22.4c-0.1,1.8-0.2,2.1-1.3,2.5c-1.1,0.4-2.2-0.7-2.9,1.2
	c-0.8,2.1-0.5,3.6,1.4,3.6s4.8,1,6.7-6c1.9-7.1,5.9-19.8,7.1-24.4C308.1,180.7,307.3,179.5,306.7,178.7"/>
<path id="path178" inkscape:connector-curvature="0" class="st5" d="M102.2,91.3c0,0,1.6,4.7,1.6,6.1c0,1.3-0.4,1.4-0.4,1.4
	l-4.8,2.1c0,0,1-1.2,1.6-2.7C100.7,96.6,102.2,92.7,102.2,91.3"/>
<path id="path180" inkscape:connector-curvature="0" class="st5" d="M159.1,210.4c-0.1,0.1-0.2,0.1-0.3,0l-0.3-0.4
	c0-0.1,0-0.2,0.1-0.3l0.2-0.2c0.1-0.1,0.2-0.1,0.3,0l0.3,0.4c0.1,0.1,0,0.2-0.1,0.3L159.1,210.4z"/>
<path id="path182" inkscape:connector-curvature="0" class="st5" d="M269.3,202.8c0,0-0.6-0.2-0.9,0.2c-0.4,0.6-0.7,2.9-0.7,2.9
	s0.6,0.7,1.6,0.3c1-0.4,3.1-1.9,2.4-2.4C271.1,203.3,269.3,202.8,269.3,202.8"/>
<path id="path184" inkscape:connector-curvature="0" class="st5" d="M267.5,201.7c0,0-0.9,0-1.3,0.4c-0.4,0.5-1.3,1.9-1.2,2.4
	c0.1,0.5,0.9,1.5,1.3,0.9C266.6,204.9,268.5,201.6,267.5,201.7"/>
<path id="path186" inkscape:connector-curvature="0" class="st5" d="M92.4,115.6c-1.1,1.7,2,3.2,2.8,2.3
	C95.8,115.6,93.5,114.7,92.4,115.6"/>
<path id="path188" inkscape:connector-curvature="0" class="st5" d="M96.5,116.5C96.5,116.5,96.5,116.4,96.5,116.5
	C96.5,116.4,96.5,116.5,96.5,116.5"/>
<path id="path190" inkscape:connector-curvature="0" class="st5" d="M117.4,118.6c-1.6-1.9-2.7-4.9-1.7-5.5c1-0.6,2,0.2,2.6,0.6
	c0.9,0.5,1.4,0.2,1.3-1.1c0-1-0.2-1.9-0.3-2.7c-0.3-2.6-1.7-5.5-2.8-6.7c-1.8-1.9-7-4.2-10.2-2c-0.9,0.6-1.6,1.7-2.2,2.9
	c-0.2,0.4,0.4,1.1,0.2,1.6c-1.2,2.9-3,6.2-5.1,8.4c-0.1,0.1,7.2,0.7,17.4,8.2c0.9,0.6-0.8,4.3-1.4,4.1c-0.3,0,1-3.1,0-3.6
	c-4.7-2.6-7.5-3-11-4.2c-0.8-0.3-3.3,1.3-3.9,0.7c-0.9-1.2-3.6-2.5-3.8-2.6c0.1,0.1,0.4,0.3,0.6,1.4c0.3,2.9-5.1,0-0.5,4.6
	c1.3,1.3,2.5,2.3,3.5,1.9c1.5,0,0.8,0.2,1,0.5l0.8,1.9c0.1,0.3,0.3,0.3,0.4,0l0.4-2c0.1-0.4,0.4-0.7,0.8-0.7c0,0,6.9,0.2,8.3,0.3
	c1.4,0.2,1.5,0.7,1.5,0.7c0.1,0.4,0.6,1.2-0.6,2.1c-0.9,0.7-2.9-0.7-4.5,0.6c-1.6,1.3-4.9,1.9-4.9,1.9c-0.4,0.1-0.8-0.1-1-0.5
	l-0.8-1.9c-0.1-0.4-0.3-0.3-0.3,0.1l-0.2,2.4c0,0.4-0.1,0.7-0.2,0.7c-0.1,0-0.3-0.3-0.5-0.6l-0.1-0.1c-0.2-0.4-0.5-0.4-0.7-0.1
	l-0.4,0.5c-0.2,0.3-0.6,0.3-0.8-0.1l-0.2-0.3c-0.2-0.3-0.5-0.3-0.7,0l-0.3,0.4c-0.2,0.3-0.5,0.3-0.6-0.1l-0.1-0.3
	c-0.1-0.4-0.3-0.4-0.5,0c-0.1,0.3-0.3,0.3-0.4,0.2c-0.2,0.2-0.4,0.4-0.5,0.5c-0.2,0.2-0.7,0.6-0.7,1c0,0.4,0.5,0.6,2.9,1.1
	c2.4,0.5,13.5-4.1,17-3.3c4.1,0.8,5.6-2.5,5.9-6.8c0-0.1,0-0.3-0.1-0.7C119.2,120.7,118.2,119.5,117.4,118.6"/>
<path id="path192" inkscape:connector-curvature="0" class="st0" d="M106.4,105.6c0,0,1.4-2.4,3.1-2.9c1.3-0.4,2.6,0.4,4.5,1.7
	c2,1.3,3,3.4,4.9,2.8c0.7-0.2-1.5,2.2-3.4,1.5c-0.5-0.2-3.3-4.9-6-4.8C109.6,103.9,107.8,104.2,106.4,105.6"/>
<path id="path194" inkscape:connector-curvature="0" class="st0" d="M112,108.3c-0.4,0-0.8-0.4-0.8-1c0-0.5,0.3-0.9,0.8-0.9
	c0.4,0,1,0.4,1,1C112.9,107.9,112.4,108.3,112,108.3 M111.5,103.3c-2.3-0.7-3.6,0.9-3.6,0.9c0.6-1.5,3.3-0.6,4.5-0.1
	c0.7,0.3,1.6,1.8,2.2,3c-0.7-0.7-1.8-1.5-2.6-1.6c-1.7-0.2-1.9,2.2-1.9,2.2l-0.9,1.1c0,0,0.1,0.3,1.5,0.3c1.3,0,6-0.1,6.6-0.6
	C117.9,107.9,114,104,111.5,103.3"/>
<path id="path196" inkscape:connector-curvature="0" class="st5" d="M147.4,208.2c0,0-1.8,3.6-1.8,3.9c0,0.4,0,0.6,0.2,0.6
	s0.8,0.2,1.3-0.1c0.4-0.3,2.1-3.9,2.4-4.3C149.5,208.2,148.2,207.4,147.4,208.2"/>
<path id="path198" inkscape:connector-curvature="0" class="st5" d="M285.5,182c0.9-3.2-2.1-3.5-3.1,0.6c-0.3,1.4-4.4,16.3-4.9,20.2
	c0,0.2,0.1,0.4,0.3,0.2C277.9,204.3,285.1,183.4,285.5,182"/>
<path id="path200" inkscape:connector-curvature="0" class="st5" d="M262.3,132.2c0,0.1-0.2,0.1-0.4,0.1l-1.5-0.3
	c-0.2,0-0.4-0.1-0.4-0.2l0-0.2c0-0.1,0.2-0.1,0.4-0.1l1.5,0.3c0.2,0,0.4,0.1,0.3,0.2L262.3,132.2L262.3,132.2z"/>
<path id="path202" inkscape:connector-curvature="0" class="st5" d="M261.7,132.8c0,0.1-0.1,0.1-0.3,0.1l-1-0.2
	c-0.1,0-0.2-0.1-0.2-0.2l0-0.2c0-0.1,0.2-0.1,0.3-0.1l1,0.2c0.1,0,0.2,0.1,0.2,0.2L261.7,132.8z"/>
<path id="path204" inkscape:connector-curvature="0" class="st5" d="M153.1,101.2c-7.2,1.4-17.2,2-22.7,1.2
	c-4.3-0.6-4.5-3.3-3.7-5.6c-4,4-6.1,2.4-6.2,1.9c-0.2-0.6,1.5,0,2.5-1.1c1.1-1,1.7-4.8,0.9-6.6c-0.8-1.8,0.1-1.5,0.1-1.5
	s2.2,0.2,3.2,2.9c0.6-2.7-3.1-6-4.3-5.2c-1.2,0.8-3.6,2.7-3.3,5.6c0.4,3.6,0.2,5.4-1,5.3c-7.8-0.4-16.6-1.4-21.5,3.7
	c0,0,5.9-3.9,10.5-3.5c4.5,0.4,13.8,1.3,14.4,12.2c0,0-0.1,2.5,0.1,5.3c0.1,1.5-1.3,0.5-1.3,1.2c0.1,3,2.2,2.6,2,5.2
	c-0.7,10.7-5.7,10.5-5.7,10.5s6,0.8,8.9-9.2c0,5.7-0.6,7.2-2.9,9.4c4.6,0.3,8.2-4,8.3-4.7c0.7,1.1,2,4.6,5.4,6.1
	c-1.7-2.8-1.3-6.2-0.9-9.1c1,6.7,2.7,9.2,6.2,10.7c-1.4-1.4-4.2-4.4-3.4-9.9c0.7,4.6,6.1,8.8,6.1,8.8s-1.7-2.8-2.2-7.7
	c2.3,5,4.8,5.4,4.8,5.4s-3.9-4.1-4.5-9.3c-0.1-0.1,2.7,3.6,5,3.6c-1.7-2.1-4.5-5.1-4.8-8.8c1.7,2.2,3,3.7,5,3.9
	c-1.7-2-3.1-5.1-3.6-8.8c1.9,2.4,1.6,3.2,5.2,4.2c-1.4-1.4-2.4-5.2-1.7-7c0.6,1.3,3,2.6,5.9,3c-0.9-0.6-2.4-4.2-2.2-5.6
	c1.3,0.6,4.1,1.6,6.4,1.3c-1.1-0.6-1.8-3.8-1.5-4.5c0.6,0.4,4.9,0.3,5.8,0c-1.4-0.9-2.6-2.1-2.3-2c1,0.4,2.7-0.5,4.9-0.9
	c2.3-0.4,2.7-0.4,4.2-0.4C167.7,100.6,158.7,99.8,153.1,101.2"/>
<path id="path206" inkscape:connector-curvature="0" class="st5" d="M225.5,146c0,0-4.6-0.3-5,1.1c-0.3,1.4,2.1,8.9,2.5,9.8
	c0.6,1.4,2.1-1.9,2.1-1.9c0.5-0.9,2.4-5.3,2.4-5.9C227.5,148.4,227.5,146,225.5,146"/>
<path id="path208" inkscape:connector-curvature="0" class="st5" d="M247.6,155c-0.3,0.1-0.6,0.2-0.8,0.3c0.2,0.1,0.4,0.1,0.6,0.2
	C247.4,155.3,247.5,155.1,247.6,155"/>
<path id="path210" inkscape:connector-curvature="0" class="st5" d="M207.5,146.7c0,0-4.6-0.3-4.9,1.1c-0.4,1.4,1.6,8,1.9,8.9
	c0.5,1.4,1.4-0.7,1.4-0.7c0.5-0.9,4.2-5.5,4.2-6.1C210.1,149.1,209.6,146.7,207.5,146.7"/>
<path id="path212" inkscape:connector-curvature="0" class="st5" d="M239.7,101.4c-1.4,0.1-13.4,1.4-21.4,1.4
	c-6.4,0-13.1-0.3-16.7-0.2c-0.3,0-0.7,0-1.1,0.1c-5.4-0.2-22.5-0.5-22.5-0.5c-1.3-0.3-18.7,4.2-21.2,23.6
	c-1.6,11.9-0.8,15.7,1.9,21.4c1.6,3.4,4.8,9.6,4.7,14.4c0,2-3.7-8.5-3.6-7.3c0.5,12.2-1.6,39.8-2.8,45.6c-1.5,7-2.9,3.4-4.5,6.4
	c-0.3,0.5-3.8,6.9-3.7,7c0.1,0.1,1.8-0.2,3.6-0.4c2.1-0.1,3.8-5.8,5.3-5.8c0.2,0-1.6,4.6-1.3,4.5c1.5-0.4,3.9-1,3.8,0.2
	c0.5,0.2,1-0.1,1.3-0.5c0.4-0.5,2.4-9.4,3.6-14.1c0.3-0.8,2.3-0.3,2.8-0.1c1.1-2.2-0.6-9.5,2.5-19.6c3.1-9.9,6.3-18.6,4.9-21.1
	c-0.2-0.3-5.4,6.7-5.6,6.4c-0.3-0.8,17.2-30.2,13.8-45.4c-0.1-0.5-0.3-1.2-0.3-1.6c0-0.1,2,0.7,4.6,1.4c3.3,1,6.2,1.5,7.2,5.3
	c1.2,7.3,4.6,17.7,11.5,18.3c-3.1-2.9-7.1-17.5-6.6-23.5c1.9,9.8,7.9,24,12.8,23.3c-1-1.6-5.1-10.5-5.1-16.1
	c1.8,4.7,6,14.9,9.2,14.9c8.4,0.2,10.5-3.6,16.7-5c13.8-3.1,17.5,2.2,19.6,3.3c-1.7-1.6-7.5-11.7-11.3-19.6
	c-3.1-6.2,2.1-12.4,10.9-16.3C254,101.2,242.4,101.3,239.7,101.4"/>
<path id="path214" inkscape:connector-curvature="0" class="st0" d="M245.6,155.1c0,0-0.5-0.4-0.8-0.5c-0.1,0-0.2,0-0.3,0
	c-0.2,0-0.3,0-0.3,0l-0.2,0.1l0.1-0.2c0-0.1,0.2-0.4,0.5-0.4c0.1,0,0.3,0,0.4,0.1c0.5,0.2,0.7,0.7,0.7,0.8l0.1,0.3L245.6,155.1z"/>
<path id="path216" inkscape:connector-curvature="0" class="st0" d="M241.7,154.4c0-0.1,0.2-0.4,0.6-0.4c0.1,0,0.3,0,0.4,0.1
	c0.1,0,0.2,0.1,0.2,0.1l0.1,0.1l-0.4,0.3l0,0c0,0-0.1-0.1-0.2-0.1c-0.1,0-0.2,0-0.3,0c-0.2,0-0.3,0-0.3,0l-0.2,0.1L241.7,154.4
	L241.7,154.4z"/>
<path id="path218" inkscape:connector-curvature="0" class="st0" d="M242.6,154.2c0.1,0,0.2,0.1,0.2,0.1l-0.2,0.2
	c0,0-0.2-0.1-0.2-0.1c-0.4-0.1-0.6,0-0.6,0S241.9,153.9,242.6,154.2"/>
<path id="path220" inkscape:connector-curvature="0" class="st0" d="M250.2,207.4c-4.9,0-5.5-8-5.6-9.4c-1.2-0.1-2.5-0.9-3.3-1.6
	c0,0-0.1-0.1-0.2-0.1c0,0.6,0,1.2,0.1,1.8c0.1,0.9,0.2,3.3,0.3,3.9l0,0.1c0.1,0.9,0.4,3-1.7,4.2c-0.6,0.3-1.3,0.5-2,0.5
	c-0.6,0-1.2-0.1-1.6-0.2c-0.1,0-0.2,0-0.2,0l-0.4,0c-0.5-0.1-1.3-0.2-1.8-0.2h-0.1c-1,0-3.9,0.2-4.4,0.2c-0.1,0-0.2,0-0.3,0
	c-1.6,0-3-1.3-3-1.3c-0.8-0.8-0.9-2.1-0.2-3.1l0.2-0.3l0.3-0.2c0.2-0.1,0.7-0.5,1.4-0.6c0.6-0.4,1.6-0.9,3-1.7
	c-1.3-2.5-6.8-11-2-13.7c1.8-1,4.6-2,7.2-2.6c0-0.2,0.1-0.3,0.1-0.5c0.1-0.2,0.1-0.9,0-1.4c-0.8,0.4-1.5,0.6-2.2,0.6
	c-0.2,0-0.4,0-0.6-0.1c-1.7-0.3-3.8-2.8-4-3.1c-0.4-0.5-1.8-3.1-3.1-5.5c-3.5-0.2-3.9-0.3-4.1-0.3c-0.4-0.1-0.8-0.3-3.1-2.2
	c-0.8-0.7-1.1-1.5-1-2.4c0.1-0.7,0.5-1.3,1.2-1.7c0.1,0,0.1,0,0.2-0.1c0.3-0.4,0.8-0.8,1.6-1l0.2-0.1h0.3c0.6,0,1,0.2,1.4,0.4
	c0-0.3,0.1-0.5,0.2-0.8c0.4-0.8,1.3-1.3,2.3-1.3c0.6,0,1.2,0.2,1.9,0.5l0.1,0.1l0.1,0.1c0.2,0.1,0.3,0.1,0.3,0.1
	c0.4,0.1,1.5,0.4,1.8,0.5c0.6,0.3,1,0.6,2.1,2.5l1.8,1.8c0.8-1.9,1.8-2.7,2.1-3c0.5-0.4,1.1-0.6,1.8-0.8c0.1,0,0.3-0.1,0.4-0.1
	c0.3-0.2,0.6-0.4,0.9-0.6c0-0.1,0.1-0.2,0.1-0.3c-0.3-0.4-0.6-0.9-0.8-1.3c-0.7-1.2-0.6-2.3-0.6-3l0-0.2c0.1-1.9,2.4-3.4,2.5-3.5
	c0.3-0.2,0.6-0.3,0.8-0.4c0.5-0.5,1.3-1.5,1.9-2c0.5-0.4,1.1-0.8,1.7-1c0.5-1,1.6-1.5,3.2-1.5c0.5,0,2.2,0.1,2.8,0.2
	c1.2,0.2,2,1,2.4,1.9c1,0.4,1.7,1.3,1.8,2.6l0.4,0.4c0.3,0.3,0.8,1,1,2c0.6,1.2,0.5,2.7,0.5,3.4c0,2-0.5,3.2-1.1,3.8
	c-0.1,0.2-0.1,0.4-0.2,0.6c1.9,1.2,2.5,3.8,2.7,4.9c0.2,0.6,0.9,3.2,1.3,4.9c0.5,2.4-0.3,4.7-0.4,4.9l-0.1,0.3l-0.2,0.2
	c-0.2,0.2-1,1.3-1.3,1.7c-0.6,0.8-1.3,1.1-1.9,1.2c0.2,0.8,0.4,1.7,0.6,2.5c1.5,1.9,2.4,4.6,2.4,5.5c0,0.6-0.2,1.3-0.4,1.8h0
	c0.2,0.5,0.2,1.1,0.2,2.3c0.7,0.7,1.2,1.7,1.8,2.9c0.1,0.1,0.1,0.2,0.1,0.3c2.9,6.3-4.4,6.8-4.8,6.7
	C253.8,207.3,250.7,207.4,250.2,207.4"/>
<path id="path222" inkscape:connector-curvature="0" class="st5" d="M249.7,153.8c-0.4-0.1-2-0.2-2.5-0.2c-2.2,0-1,1.1-1,1.1
	s-1.7,0.2-2.4,0.9c-0.7,0.7-2,2.2-2,2.2s-0.6,0.2-0.9,0.4c-0.4,0.2-1.4,1-1.5,1.8c-0.1,0.6-0.2,1.3,0.3,2c0.4,0.7,1.2,1.7,1.2,1.7
	s0.2,0.4,0,0.8c-0.2,0.4-0.5,1.5-0.5,1.5s-1,0.5-1.4,0.9c-0.3,0.4-1.8,0.6-2.1,0.9c-0.4,0.3-1.3,1.1-1.9,3.4
	c-0.8,0.7-1.1,1.5-1.1,1.5l-3.9-3.9c0,0-0.5-1.6-1.2-1.8c-0.3-0.1-2-0.7-2.4-0.8c-1.4-0.5-1.7-0.1-1.4,0.3c0.3,0.4,1.2,0.8,1.4,0.9
	c0.2,0.1,0.3,1.7-3.3,1.1c-0.2,0-1.1-0.6-1.8-0.9c-1.6-0.5-1.3,1-1,1.3c0.3,0.3,1.9,1.9,2.3,2c0.3,0.1,4.8,0.3,4.8,0.3
	s3,5.7,3.5,6.3c0.4,0.6,2.1,2.2,2.8,2.3c0.7,0.2,2.7-0.6,3.7-2.4l0.4,7.5c0,0-6.9,1.6-8.2,2.6c-2.6,2.1,2,10,3.6,12
	c0.5,0.7,0.1,0.8,0.1,0.8s-4.9,2.7-4.9,2.9c-0.5-0.1-0.8,0.2-0.8,0.2s-0.2,0.3-0.1,0.5c0.2,0.2,1,0.8,1.6,0.7c0.6-0.1,4-0.3,4.9-0.2
	c0.8,0,1.8,0.2,2.3,0.2c0.5,0.1,1.6,0.5,2.5,0c0.9-0.5,0.7-1.3,0.6-2.2c-0.1-0.8-0.3-4.1-0.3-4.1s-0.1-3.8-0.2-4.2
	c0.9,0.1,2.5,0.5,2.8,0.3c0.5-0.3,1,0.6,1,0.6s1.6,1.3,2.3,1.1c0.7-0.1,0.8-0.2,1.2-1.3c0.3-0.4,0.5-0.3,0.5,0.7
	c0,1-0.5,10.1,3.8,10c2.7-0.1,4.6-1.4,4.6-1.4s0.8,1,1.8,0.7c2.7-1,1.2-3.5,1-3.9c-0.2-0.4-1.5-3.1-2.3-3.2c0-1.2-0.2-2.9-0.4-3.4
	c0.1-0.3,0.6-1.3,0.6-1.8c0-0.5-0.8-3.1-2.2-4.6c-0.3-2.4-1.5-6-1.5-6s1.6,0.6,2.1,0.6c0.5,0.1,0.9-0.2,1.2-0.5
	c0.3-0.4,1.2-1.6,1.2-1.6s0.7-1.9,0.3-3.7c-0.4-1.9-1.3-4.9-1.3-4.9s-0.4-3-1.9-3.7c-1.5-0.7-1.8-0.6-1.8-0.6s-0.5-0.6-0.1-0.8
	c0.4-0.1,0.9-0.5,1.1-0.7c0.2-0.2,0.4-1.2,0.4-1.2s0.9-0.4,0.9-2.9c0,0,0.3-1.7-0.4-2.5c0-0.7-0.5-1.2-0.5-1.2l-0.9-1
	c0,0,0.1-1.3-0.4-1.4c-0.6-0.1-1-0.3-1-0.3S250.7,153.9,249.7,153.8"/>
<path id="path224" inkscape:connector-curvature="0" class="st0" d="M241.9,158.3c0.5,0,0.8,0.8,0.8,0.9c0,0.2-0.1,0.2-0.3,0.1
	c-0.2,0-0.4-0.5-0.9-0.5c-0.5,0-0.5,0.4-0.7,0.3C240.6,159.2,241.4,158.3,241.9,158.3"/>
<path id="path226" inkscape:connector-curvature="0" class="st0" d="M245.5,157.1c0.5,0.2,0.7,0.7,0.7,0.7s-0.5-0.4-0.9-0.5
	c-0.4-0.1-0.6,0-0.6,0S244.8,156.8,245.5,157.1"/>
<path id="path228" inkscape:connector-curvature="0" class="st0" d="M250.5,161c-0.1-0.2-0.1-0.3-0.3-0.3l-0.1,0l-0.1,0
	c-0.2,0.3-0.4,0.4-0.7,0.4c-0.3,0-0.6-0.2-0.6-0.2s-0.1,0.7,0.7,0.7c0.6,0,0.9-0.5,0.9-0.5L250.5,161L250.5,161L250.5,161z"/>
<path id="path230" inkscape:connector-curvature="0" class="st0" d="M246.4,172.2c0.2-0.2,0.8,0.3,1,0.2c0.2-0.2-1.3-1.8-0.8-2.1
	c0.5-0.4,1.2,0.9,1.4,0.7c0.3-0.2,0.2-0.4,0.1-0.6c0-0.1-0.7-1.2-0.7-1.2c0-0.1-0.7-1.1-0.3-1.3c0.4-0.2,0.9,0.6,1,0.7
	c0,0,0.9,1.5,1.2,1.4c0.3-0.2-0.6-2.5-0.6-2.5c-0.1-0.2-0.5-0.8-0.3-1s0.4-0.1,1,0.7c0.1,0.1,1.6,2.9,1.8,2.8c0,0,0-0.6-0.2-1
	c0.3,0.2,0.9,0.4,0.9,0.8c0,0.1-0.1,1.4-0.3,1.7c-0.7,0.8-3.9,1.9-4.9,1.7C246.8,173.1,246.1,172.5,246.4,172.2 M252.8,184.5l-0.5-2
	l-0.2-0.7l-3.7-7l-0.1-0.3c-0.1-0.1-0.2-0.3-0.5-0.5c-0.1-0.1,0-0.2,0.1-0.2c1.3,0.2,3.6-0.5,4.1-0.7c0.2,0.2,3.8,4.4,4,4.3
	c0.3-0.2-3.6-5.4-3.7-5.4c0,0,0.4-2.1,0.3-2.4c-0.2-0.5-1.2-1.3-1.7-1.3l-0.1,0c-0.1-0.2-0.2-0.3-0.2-0.3l-0.1-0.1
	c-0.3-0.5-0.5-0.8-0.7-1.1c0.7,0.2,1.4,0.5,1.5,0.5l0.4,0l0.4-0.6l-3-1c-0.3-0.1-0.6-0.7-0.6-1.2c0-0.3,2.1-2.4,1.7-2.6
	c-0.8-0.3-2.8,1.8-2.8,2.4c0,0.4,0.2,1.3,0.5,1.7c-0.1,0.2-0.2,0.4-0.2,0.6c-3.8,0.3-5.1,1.6-5.3,2.3c0,0,3-1.2,4.1-1.4
	c-0.7,0.7,0.4,1.9,0.4,1.9c-0.1,0-0.5-0.3-0.9,0c-0.7,0.6,0,1.7,0.2,2c-0.3,0-0.5,0.1-0.6,0.2c-0.4,0.4,0.3,1.3,0.8,1.9
	c0.2,0.3-0.9,0.2-4-2.2c0.1,2.3,3.9,3.7,5.1,3.7C247.7,175.2,252.6,184.2,252.8,184.5"/>
<path id="path232" inkscape:connector-curvature="0" class="st0" d="M237.5,184.2l-0.5,0.3l-0.8,0.5c0.1,0.3,3.3,7.9,6.5,10.3
	l0.1-0.3C238.5,189.3,237.5,184.2,237.5,184.2"/>
<path id="path234" inkscape:connector-curvature="0" class="st0" d="M249.3,188.1c-1.9,0.3-3.3,6.6-3.3,6.6c0.5-0.6,0.5,0.4,0.5,0.4
	s1.5-5.4,2.9-5.9c1.4-0.6,3.4-0.3,3.4-0.3S251.2,187.8,249.3,188.1"/>
<path id="path236" inkscape:connector-curvature="0" class="st0" d="M234.6,178.1c0.2-0.1-0.5-6.1-0.5-6.1l-0.3,0.3l-0.5-0.3
	C233,172.5,234.3,178.3,234.6,178.1"/>
<path id="path238" inkscape:connector-curvature="0" class="st0" d="M236,173.3l0.5,4.9l0.8-0.5l-0.2-3.6c0,0,0.4,0.2,0.6,0.1
	c0.1-0.1-0.7-0.9-0.7-1.8c0-0.7,0.7-1.5,0.6-1.6c-0.1-0.1-0.4,0.2-0.4,0.2c0-0.6,0.1-1.3,0.1-1.7c0.1-0.6,0.8-1.8,0.8-1.8
	c-1.7,0.6-2.1,2.6-2.1,2.6l-0.1,1.5c0,0-0.2,0.5-0.2,0.8C235.7,172.9,236,173.3,236,173.3L236,173.3z"/>
<path id="path240" inkscape:connector-curvature="0" class="st0" d="M255.5,197c0,0,0,5.9-1.3,7.4h0.7c0.3-0.2,0.8-2.1,0.9-2.9
	c0.2-0.8,0.2-4.1,0.2-4.1L255.5,197z"/>
<path id="path242" inkscape:connector-curvature="0" class="st0" d="M233.9,188.8c-0.2,1.3,4.9,6,4.9,6l1.4-0.7
	C240.2,194.2,235.3,190.6,233.9,188.8"/>
<path id="path244" inkscape:connector-curvature="0" class="st0" d="M248,155.9c0.1,0.1,0,0.5,0,0.8c0,0-0.2,0.6,0.7,1
	c0.5,0.3,0.8,0.7,1,1c0,0.1,0.1,0.1,0.1,0.2c0.1,0.2,0.2,0.3,0.1,0.7c0,0.2-0.1,0.3-0.2,0.4c-0.1,0.1-0.2,0.2-0.1,0.3l0,0
	c0,0.2,0.2,0.6,0.6,0.8c0.1,0.1,0.3,0.3,0.1,1l-0.1,0.2c-0.2,0.7,0,2.4,0.4,2.3c0.4-0.1,0.3-1.6,0.4-1.7c0.2-0.3,0.4-1.2,0.3-1.7
	c0-0.2-0.1-0.3-0.2-0.4c-0.4-0.2-0.5-0.4-0.5-0.5c0,0,0.1-0.1,0.1-0.2c0.1-0.1,0.2-0.2,0.2-0.4c0.1-0.3,0-0.8-0.1-1.1
	c-0.1-0.3-0.9-1.2-1.3-1.3c-0.4-0.1-0.6-0.3-0.6-0.5c0-0.1,0-0.2,0-0.4c0.1-0.3,0.1-0.6-0.1-0.8c-1.2-1.7-3.1-1.5-3.1-1.5l-0.8,0.9
	C245,154.9,246.4,154.2,248,155.9"/>
<path id="path246" inkscape:connector-curvature="0" class="st0" d="M238.1,167.2c0.2,0.2,1.4,0.3,3.6,1.7c0.3-0.5-2-1.8-3-2.2
	c-0.6,0-0.7,0.1-0.7,0.2C238,167,238,167.1,238.1,167.2"/>
<path id="path248" inkscape:connector-curvature="0" class="st0" d="M231.5,200.9c-1.9-2.6-6.1-2.7-7.5-1.4
	c-0.1-0.1-0.1-0.1-0.2-0.2c-0.6-0.5-2.3-1.5-3.1-1.9c-1.3-1.3-1.8-1.7-2.1-1.8c-1-0.6-3.1-1.3-4.8-1.8c-0.3-3.6-0.6-4.5-0.8-4.9
	c0-0.1,0.4-3.3,0.3-5.4c1.1,0.2,2.5,0.4,3.7,0.4c0.7,0,1.2-0.1,1.6-0.2c1.1-0.3,3-0.9,3.7-2.2l0.2-0.3l0.1-0.3
	c0.1-0.3,0.6-2.7-0.9-4.9c-1-1.5-3.7-4.4-5.2-5.9c0.1-0.8,0.1-1.7,0.1-1.7c0.1-0.7-0.1-1.4-0.9-2.2c-0.2-0.3-2.1-2.3-2.6-2.7
	c-0.5-0.3-1.3-0.5-2-0.5c-0.2,0-0.5,0-0.7,0.1c-1.8,0.4-1.6,3.1-1.5,3.4c-0.2-0.1-0.5-0.3-0.7-0.4c-0.6-0.7-1.5-1.1-2.4-1.3
	c-0.5-0.3-1.1-0.7-2-0.7c-0.1,0-0.1,0-0.2,0c-1.2,0.1-1.2,0.2-1.7,0.6c-0.9,0.2-1.6,0.7-2.2,1.4c-0.5,0.3-1.1,0.8-1.6,1.6
	c-0.5,0.4-1.1,1.1-1.6,2.4l-0.2,0.4c-0.4,1.1-0.9,2.3-0.5,3.5c0,0,0,0.1,0,0.1c-1,0.3-2.4,0.9-3.2,2.4c-0.3,0.7-0.7,1.6-1,2.4
	c-0.4,0-5.5,0.6-5.3,3c0,0.7,0.4,1.5,1.1,2c-0.5,0.8-0.5,1.6-0.1,2.4c0.4,0.6,0.9,1.1,1.4,1.3c0.2,0.6,0.5,1.2,0.9,1.8
	c0.5,0.6,1,1.1,1.5,1.4c-0.9,0.3-1.9,0.8-2.9,1.4c-1.4,0.9-3.5,3-1.7,6.2c0.3,0.5,1.2,1.5,5.6,5.8c-0.2,0.2-3.6,6.6,2,6.8
	c1.3,2.2,5.7-1,5.9-1c0.3,0.1,6.3,0.1,4.7-4.5c0.4-0.1,2.5-0.6,2.6-0.6c0.7,0.3,2.1,0.9,3,1c0.4,0,1,0.1,1.5,0.1
	c0.6,0,2.1,0,2.8-0.2c0.2,0,0.4-0.1,0.6-0.1c0.6,1,1.6,2.2,2.8,2.9c1.5,0.9,4.9,2.4,6,2.9c0.2,0.2,2.6,2.2,4.2,2.2
	c5,0,3.5-4.6,3.6-4.8C232.2,208,232.9,202.8,231.5,200.9"/>
<path id="path250" inkscape:connector-curvature="0" class="st5" d="M213.9,176.7c-0.2-0.3-2.2-0.8-3-0.8c-0.3-0.3-1.2-0.5-1.2-0.5
	s1.2-0.9,1.2-1.6c-0.9-4.4-2.3-4.7-2.3-4.7s-0.5-1-1.7-1.1c-0.2-0.9-2-1.1-2-1.1s-0.5-0.6-1.2-0.6c-0.5,0-0.7,0.3-1,0.6
	c0,0-1.1-0.2-1.8,1.1c0,0-0.9,0.2-1.4,1.4c0,0-0.6,0.2-1.2,1.7c-0.4,1-0.9,2-0.7,2.8c0.2,0.8,0.8,1.6,0.8,1.6s-0.6,0.5-1.2,0.7
	c-0.7,0.2-2.2,0.3-2.9,1.6c-0.7,1.3-1.5,3.8-1.5,3.8s-0.4-0.2-0.9-0.3c-0.4,0-2.3,0-2.8,0.3c-0.2,0.2-1.1,0.3-1,0.6
	c0.1,0.9,1.5,0.6,1.5,0.6l-0.3,2c0,0-0.6,0.6-0.5,0.9c0.2,0.3,0.5,0.4,0.7,0.3c0.3,0,0.7-0.5,0.7-0.5s0,1.9,0.9,3
	c0.9,1.1,1.8,1.5,1.8,1.5s0.6,0.3,1.2,0c0.6-0.2,1.6-1.1,1.7-1.4c0.1-0.3,0.4-1.4,0.4-1.4s0.5-1.7,0.7-1.8c0.2,0,0.4,0.2,0.4,0.2
	v3.5c0,0-1.4,2.6-1.4,3.3c-0.7,0.1-3.9-0.3-6.6,1.7c-2.2,1.5-1.5,2.9-1.1,3.7c0.4,0.7,7.3,7.3,7.5,7.6c-0.1,0.2,0.1,0.5-0.2,0.5
	h-0.7c0,0-1-0.4-1.2,0c-0.4,1,0.7,0.9,0.7,1.1c0,0.2-0.9-0.1-1,0.4c-0.2,0.6,0,1.3,0.5,1.8c0.3,0.4,1,0.2,1.2,0.3
	c0.2,0.1,0.3,0.4,0.8,0.5c1.2,0.5,3.9-1.7,4.2-1.6c1.3,0.6,2.8-0.5,2.9-1.3c0.1-0.7,0-1.1-0.3-1.7c-0.3-0.5-1.1-1.4-1.1-1.4
	s1-0.3,1.2-0.4c0,0,0.1-0.1,0.5,0.1c0.3,0.2,1.9,0.4,2.3,0.4c0.5,0,2.1-0.8,2.4-0.7c0.3,0.1,1.9,0.8,2.6,0.9c0.6,0.1,3,0.1,3.7-0.1
	c0.7-0.1,2-0.5,2-0.5s1.1,2.6,2.8,3.6c1.7,1,6.2,2.9,6.2,2.9s1.8,1.9,3,1.9c1.2,0,1.5-1,1.5-1.3c0-0.3,0-1.6,0.2-2.2
	c0.2-0.7,0.5-2.8,0.5-3.7c0.1-1,0.4-3.7-2.2-4c-0.4-0.1-1.3-0.2-1.5-0.2c-0.4,0-0.2,0.9-0.3,0.6c-0.1-0.4-0.6-0.5-0.8-0.4
	c-0.5,0.2-0.7,0.6-0.7,0.8c0,0.4,0.2,1.5,0.2,1.5s-2.1-1.7-2.7-2.1s-3.1-1.9-3.1-1.9s-1.4-1.4-1.8-1.6c-0.2-0.3-3.8-1.9-5.7-1.9
	c0-1.5-0.1-4.9-0.9-6.5c0-0.5,0.5-5.2,0.2-6.5c-0.1-0.5,0.7-1,1.1-1s4.5,0.9,5.6,0.5c0,0,2.2-0.5,2.7-1.3c0,0,0.4-1.8-0.6-3.4
	c-1-1.6-4.7-5.4-5.6-6.1c0.1-0.9,0.2-2.6,0.2-2.6s0-0.4-0.2-0.6c-0.3-0.3-1.9-2.2-2.1-2.4c-0.2-0.2-0.9-0.4-1.3-0.3
	c-0.3,0.1-0.2,0.8,0,0.9c0.2,0.2,0.7,0.6,0.7,0.6l0.3,0.7c0,0-0.3,0.2-0.4,0.3c-0.1,0.1-0.1,1,0.1,1.2c0.1,0.2,0.5,0.3,0.5,0.3
	s-0.4,0.8-0.7,0.8c-0.3-0.4-0.8-1.8-1.3-1.4c-0.2,0.2-0.3,0.6-0.2,1c0.1,0.4,0.7,2.1,1,2.4c0.3,0.3,0.5,0.5,0.5,0.5
	S213.8,176.1,213.9,176.7"/>
<path id="path252" inkscape:connector-curvature="0" class="st0" d="M192,194c3.3-0.3,9.3,9.8,9.5,10c0.2,0.2,0.6-0.3,0.6-0.3
	C201.8,203.3,196.6,192.6,192,194"/>
<path id="path254" inkscape:connector-curvature="0" class="st0" d="M191.6,183.3c0.6-0.1,1.5-1.2,1.4-1.3c-0.1-0.1-0.6,0.7-1.5,0.7
	c-0.3,0-0.6-0.1-1-0.1l-0.1,0c-0.1,0.2-0.9,0.3-0.9,0.3l0.1,0.5l0.8-0.2C190.4,183.2,191,183.3,191.6,183.3"/>
<path id="path256" inkscape:connector-curvature="0" class="st0" d="M196.5,177.1c-0.7,0.1,0.1,9.4,0.1,9.4l0.7-0.9
	c-0.1-0.5-0.2-3.3-0.2-3.6c0.2,0.2,3.4-0.5,4.1-1.7c0,0-2.2,0.4-2.8,0.3c-1-0.2-1.3-0.6-1.3-0.9
	C197.2,179.5,196.8,177.1,196.5,177.1"/>
<path id="path258" inkscape:connector-curvature="0" class="st0" d="M196.1,191.8l-0.6,0.4c4.5,2.4,7.3,11.2,7.3,11.3l0,0.1l1.5,0.5
	C204.2,204.2,200.8,193.9,196.1,191.8"/>
<path id="path260" inkscape:connector-curvature="0" class="st0" d="M206.8,203.7c0.2,0.3,1.2-0.2,1.2-0.2v-0.1c0,0-0.1-4.3,3.3-7.5
	C211.3,195.8,207.6,196.5,206.8,203.7"/>
<path id="path262" inkscape:connector-curvature="0" class="st0" d="M225.2,202.9l-0.9-0.6c0,0,0.4,1.9,0.4,2.7
	c0,0.1-0.1,0.2-0.1,0.2c0,0,0,0.1-0.1,0.1c-0.3,0.3-0.1,1.7-0.1,1.7s0.4-0.8,0.8-1.2c0,0,0.1-0.1,0.1-0.1c0.2-0.2,0.2-0.3,0.1-1.1
	C225.5,204.4,225.2,202.9,225.2,202.9"/>
<path id="path264" inkscape:connector-curvature="0" class="st0" d="M211.8,177c-0.2,0-0.5,2.3-0.5,2.6c0,0-0.1,1.5-1.7,1.3
	c-1.6-0.3-2.3-0.6-2.3-0.6c0.6,1.2,3.3,1.7,4,2.7c0.1,0.2,0.3,1.2,0.3,1.4h0.5v-1.9l0.5-0.2C212.3,178.4,211.9,177,211.8,177"/>
<path id="path266" inkscape:connector-curvature="0" class="st0" d="M200.7,175.3c-1,0-2.4,0.2-2.5,0.2l-1.6,0.4l0.5,0.4
	c0,0,2.2-0.4,3.6-0.4c0.2,0,0.4,0,0.6,0.1c1.2,0.3,2.7,0.8,2.7,0.6c0-0.2-1.7-0.9-2.6-1C201.2,175.4,201,175.3,200.7,175.3"/>
<path id="path268" inkscape:connector-curvature="0" class="st0" d="M211.3,175.9l0.1-0.1l0-0.1l0-0.1l-0.1-0.1l-0.7-0.4
	c-0.1,0-3.2,0-3.2,0c-0.8,0-3.2,1-3,1.2c0.2,0.2,1.9-0.6,3.1-0.7C209,175.5,211.2,175.9,211.3,175.9"/>
<path id="path270" inkscape:connector-curvature="0" class="st0" d="M208.8,169.9c0.6-0.7-0.6-1.4-0.6-1.5c0,0,0.8,1.1,0.2,0.8
	c-0.6-0.9-2.9-1.6-2.9-1.7c-0.1-0.1,0.3-0.5,1.5,0.4c0.1-0.2-0.7-0.9-1.8-0.8c0-0.2-0.1-0.3-0.2-0.4c0,0,0,0,0,0c0,0-0.1,0-0.1,0
	c0.1,0.1,0.3,0.4,0.1,0.4c-0.2,0-0.3-0.4-0.4-0.4c-0.1-0.2-0.6,0.1-0.3,0.3c0.1,0.1,0.2,0.1,0.3,0.2c0.2,0.1,0.1,0.1,0,0.1
	c-0.2-0.1-0.4-0.1-0.6-0.1c-0.2,0-0.5,0.1-0.7,0.1c-0.1,0-0.2,0-0.1-0.1c0.1-0.1,0.2-0.1,0.3-0.2c0.4-0.3-0.3-0.8-0.4-0.1
	c-0.1,0.1-0.2,0.2-0.2,0.3c-0.3,0,0-0.5,0-0.5c0,0,0,0-0.1,0.1c-0.1,0.1-0.2,0.2-0.3,0.3c-0.1,0-1.4,0.1-1.5,0.8
	c0.9-0.7,1.4-0.6,1.4-0.4c0,0.1-1.1,0.8-1.6,1.2c-0.4,0.3-0.9,0.9-1,0.9c-0.2,0-0.2-0.3,0-0.8c-0.6,0.6-0.5,1-0.3,1.3
	c-0.3,0.7-0.2,1.6,0.2,2.3c0.3,0.6,2.4,2.3,2.6,2.2c0.2-0.1-2.1-2.1-2.3-3c-0.4-2.1,2.4-3.9,3.3-4c0,0,0.2,0.3,0.7,0.2
	c0.6,0,0.7-0.2,0.7-0.2c0.7-0.1,4.1,1.2,3.8,3.7c-0.1,0.8-0.4,1.8-0.3,1.9c0.1,0.1,0.3-0.3,0.6-1
	C209.1,171.5,209.1,170.6,208.8,169.9"/>
<path id="path272" inkscape:connector-curvature="0" class="st0" d="M217.7,181.3c-0.4-0.5-4.1-4.9-4.1-4.9c0-0.1-0.1-0.2-0.3-0.2
	c-0.1,0-0.5,0-0.5,0.1c0.8,1.3,2.5,3.3,3.7,4.3C217.1,181.1,217.6,181.4,217.7,181.3"/>
<path id="path274" inkscape:connector-curvature="0" class="st0" d="M195.2,205.1c0.2,0.2,0.5,0.7,0.5,0.7s0.4-1.1,1.2-1.5
	c0.8-0.4,2.1-1,2.7-1.1C197.4,202.7,195.2,204.3,195.2,205.1"/>
<path id="path276" inkscape:connector-curvature="0" class="st0" d="M194.1,187.2c0.4,0,0.5-0.4,0.5-0.8l0.1-0.1
	c0,0,0.4-0.4,0.7-1.2c0.2,1.1,0.7,3.2,0.3,3.7l-0.6,0.6l0.6-0.4c0.2-0.1,0.6-0.5,0.5-1.3c-0.1-0.4-0.7-3.8-0.7-3.8l0-0.1
	c0-0.4-0.2-0.9-0.4-1.2c-0.4-0.6-1.1-0.9-1.5-0.9c0,0,1.7,1.2,1.5,2.4c-0.2,1.2-0.4,1.3-0.4,1.3l-0.2-0.3l0,0.7
	c0,0.3-0.2,0.5-0.4,0.5c-0.7,0-1.2,0.9-1.9,0.7c-0.7-0.2-1-0.8-1.4-1.1c-0.4-0.3,0.2-0.9,0.2-0.9s0-0.2-0.2-0.4
	c-0.2-0.1-0.5,0.6-0.5,0.6s-0.4,1,0.2,1.4c1,0.7,0.7,0.6,1.8,1C193.2,188.2,193.2,187.2,194.1,187.2"/>
<path id="path278" inkscape:connector-curvature="0" class="st0" d="M241.3,155c-0.7,0-1.7-0.5-1.9-1.8c-0.1-0.3-0.7-1.8-1.3-3.1
	c-3.2-7.4-2.9-4.7-2.6-5.9c0.5-2.1,3.4-2.4,5.6-2.4c0.5,0,0.9,0,1,0c1,0,1.9,0.4,2.7,1.1c1.2,1.2,1.5,2.9,1.5,3.7
	c0,0.1-1.6,4.9-2.4,6.3l0,0.1C242.6,155,241.6,155,241.3,155L241.3,155L241.3,155z"/>
<path id="path280" inkscape:connector-curvature="0" class="st5" d="M242,143.6c0,0-4.6-0.3-5,1.1c-0.3,1.4,2.9,6.8,3.9,8.3
	c0.7,1.1,1.4-0.7,1.4-0.7c0.5-0.9,2.2-4.9,2.2-5.5C244.6,146,244.1,143.6,242,143.6"/>
<path id="path282" inkscape:connector-curvature="0" class="st0" d="M111.4,98c0,0,12.8,0.8,15.1,15.3c0.7-2.7-2.2-11.4-5.9-13.6
	c-0.4-0.2-2-1-0.8-3.6C115.5,95.4,111.4,98,111.4,98"/>
<path id="path284" inkscape:connector-curvature="0" class="st0" d="M172.6,103.8c0,0,7.8-3,9.7,9.6c0.8-4.6-0.2-10.1-3.4-11.7
	C175.7,100.1,172.6,103.8,172.6,103.8"/>
<path id="path286" inkscape:connector-curvature="0" class="st0" d="M135.7,117.3c0,0,0.8,2.6,1.6,3.2c0.8,0.5,3-2.7,3-2.7
	s-1.5,3.9-2.9,4.9C136.4,121.8,136,120.8,135.7,117.3"/>
<path id="path288" inkscape:connector-curvature="0" class="st0" d="M138.9,120.2c0,0,1.3,2.6,2.1,3.1c0.8,0.5,2.8-2.6,2.8-2.6
	s-1.7,4-2.6,4.8C140.3,124.8,138.7,123.9,138.9,120.2"/>
<path id="path290" inkscape:connector-curvature="0" class="st0" d="M131.6,124.7c0,0,1.5,2.8,2.5,3.2c1.6,0.6,1.7-3.5,1.7-3.5
	s0.7,4.6-1.1,6.1C133.2,129.6,132.4,129.1,131.6,124.7"/>
<path id="path292" inkscape:connector-curvature="0" class="st0" d="M135.5,123c0,0,0.8,2.5,1.6,3.1c0.8,0.6,2.4-3.8,2.4-3.8
	s-0.5,4.4-1.8,6.6C136.9,127.9,135.6,126.5,135.5,123"/>
<path id="path294" inkscape:connector-curvature="0" class="st0" d="M138.6,125c0,0.1,1.5,2.3,2.4,2.8c0.9,0.4,1.5-3.4,1.5-3.4
	s0.3,4.3-0.9,5.6C141.1,129.5,139,128.4,138.6,125"/>
<path id="path296" inkscape:connector-curvature="0" class="st0" d="M139.5,114.5c0,0,1.5,3.3,2.4,3.8c1,0.5,2.4-3.1,2.4-3.1
	s-0.7,3.9-2.5,5.1C140.7,119.4,140.3,118.7,139.5,114.5"/>
<path id="path298" inkscape:connector-curvature="0" class="st0" d="M137,111.7c0,0,0.9,2.5,1.8,2.9c0.8,0.4,2.3-2.9,2.3-2.9
	s-0.9,4.3-2.2,5.6C138,116.5,137.6,115.4,137,111.7"/>
<path id="path300" inkscape:connector-curvature="0" class="st0" d="M142.1,110.8c0,0,0.8,2.1,1.5,2.6c0.7,0.5,1.8-1.4,1.8-1.4
	s-0.4,3-1.8,3.4C143.1,114.9,142.5,113.9,142.1,110.8"/>
<path id="path302" inkscape:connector-curvature="0" class="st0" d="M146,108.3c0,0,0.4,2,1,2.5c0.6,0.4,1.7-1.4,1.7-1.4
	s-0.1,2.3-1.7,3.3C146.4,111.8,145.7,111,146,108.3"/>
<path id="path304" inkscape:connector-curvature="0" class="st0" d="M149.7,105.3c0,0,0.4,2,1,2.4c0.6,0.4,1.7-1.4,1.7-1.4
	s-0.2,2.7-1.7,3.1C150.9,109.7,149.4,107.8,149.7,105.3"/>
<path id="path306" inkscape:connector-curvature="0" class="st0" d="M132.4,119.8c0,0,1.3,2.4,2,2.4c0.6,0.1,1.8-2.4,1.8-2.4
	s-0.6,3.4-1.8,4C133.8,123.2,132.7,122.1,132.4,119.8"/>
<path id="path308" inkscape:connector-curvature="0" class="st0" d="M140.3,108.6c0,0,0.6,2,1.2,2.4c0.6,0.4,1.6-1.5,1.6-1.5
	s-0.3,2.8-1.4,3.7C141,112.4,140.2,111.4,140.3,108.6"/>
<path id="path310" inkscape:connector-curvature="0" class="st5" d="M197.8,139.8c-2.2-0.7-4.8-5.3-5.6-7.2
	c-0.8-1.9-2.3-7.6-1.4-9.7c0.5,2.1,1.7,6.5,2.7,8.4C194.9,134.3,196.6,138.2,197.8,139.8"/>
<path id="path312" inkscape:connector-curvature="0" class="st0" d="M244.6,197.8c-0.4-0.8-2.5-1.6-3.4-1.8c-0.8-0.1-1-0.1-1.1,0.7
	c-0.1,0.7-0.1,1.4,0,2.1c0.2,1.3,0.3,0.9,1.5,1c0.9,0.1,1.6,0.2,2.5,0.1c0.8,0,1-0.1,1-0.8C245,198.6,245.2,198,244.6,197.8"/>
</svg>
