<?xml version="1.0" encoding="utf-8"?>
<!-- Generator: Adobe Illustrator 19.0.0, SVG Export Plug-In . SVG Version: 6.00 Build 0)  -->
<svg version="1.1" id="Layer_1" xmlns="http://www.w3.org/2000/svg" xmlns:xlink="http://www.w3.org/1999/xlink" x="0px" y="0px"
	 viewBox="0 0 400 400" style="enable-background:new 0 0 400 400;" xml:space="preserve">
<style type="text/css">
	.st0{fill-rule:evenodd;clip-rule:evenodd;fill:#FFFFFF;}
	.st1{fill-rule:evenodd;clip-rule:evenodd;}
	.st2{fill-rule:evenodd;clip-rule:evenodd;fill:#0072BC;}
	.st3{fill:none;stroke:#000000;stroke-width:0.216;stroke-miterlimit:2.6131;}
</style>
<g id="XMLID_34_">
	<polygon id="XMLID_32_" class="st0" points="7,7.2 391.8,7.2 391.8,392 7,392 7,7.2 	"/>
	<path id="XMLID_31_" class="st0" d="M109.5,313.4c20.8,44.3,53.4,72.9,89.9,72.9c62.5,0,113.5-83.9,113.5-186.8
		c0-40.5-7.9-78.1-21.3-108.7l-2.1-4.7c-20.8-44.5-53.4-73.3-90-73.3c-62.5,0-113.5,83.9-113.5,186.8c0,40.7,8,78.4,21.5,109.1
		L109.5,313.4L109.5,313.4z"/>
	<path id="XMLID_70_" class="st1" d="M291.6,90.8c13.4,30.7,21.3,68.2,21.3,108.7c0,102.9-51,186.8-113.5,186.8
		c-36.5,0-69.1-28.6-89.9-72.9l23.8-29.1c18.4,14.1,41.4,22.5,66.2,22.5c60.3,0,109.5-49.3,109.5-109.7c0-32.7-14.4-62.1-37.1-82.2
		L291.6,90.8L291.6,90.8z M140.1,276l125.1-152.9c20.4,18.2,33.2,44.6,33.2,73.9c0,54.5-44.4,99-98.8,99
		C177.2,296.1,156.6,288.6,140.1,276L140.1,276z"/>
	<path id="XMLID_67_" class="st2" d="M199.4,12.8c36.6,0,69.3,28.8,90,73.3l-21,25.7c-18.8-15.3-42.8-24.5-68.8-24.5
		C139.2,87.3,90,136.6,90,197.1c0,33.9,15.4,64.2,39.6,84.4l-22.3,27.3C93.9,278,85.9,240.3,85.9,199.6
		C85.9,96.7,136.9,12.8,199.4,12.8L199.4,12.8z M261.6,120.1l-125.2,153c-21.8-18.2-35.7-45.6-35.7-76.1c0-54.5,44.4-99,98.8-99
		C223,98,244.6,106.3,261.6,120.1L261.6,120.1z"/>
	<path id="XMLID_26_" class="st0" d="M197.4,293.2c-2.3-3.4-4.7-7-7.3-10.7c-8.6-12.2-16.8-22.8-22.3-28.9v-0.1h-0.1
		c-1.1-1.6-3.5-3.3-6.6-4.6c-1.6-0.6-3.1-1.1-4.4-1.3c-19.1-2-33.2-7.6-33-13.6c0.1-1.4,0.9-2.7,2.4-3.9l0,0
		c-0.2,0.2-0.4,0.3-0.6,0.5l0,0c0.9-0.7,1.5-4.6,1.5-9.4c0-0.7,0-1.4,0-2.1c-0.3-0.5-0.5-1.2-0.5-2c0-0.6,0.1-1.1,0.3-1.5
		c-0.1-0.3-0.1-0.7-0.1-1.1c0,0,0-0.1,0-0.1c0,0,0-0.1,0-0.1c0-0.9,0.3-1.8,0.7-2.2c0.2,0,0.4-0.1,0.6-0.3c0,0,0.1,0,0.1,0
		c0,0,0,0,0,0c0-0.1,0.1-0.2,0.1-0.2c0.3-0.5,0.5-1.2,0.5-2c0-0.1,0-0.1,0-0.2c0.1-0.5,0.1-1,0.1-1.5c0.1-1.7-0.1-3.3-0.5-4.3h0
		c-0.1-0.2-0.1-0.3-0.2-0.4l0,0l-0.2-0.2c0,0-0.1-0.1-0.1-0.1l-0.2-0.2l-3.7-3.6c-0.9-0.7-1.5-1.8-1.5-3c0-1.5,0.9-2.8,2.3-3.5
		l15.9-17.4c1.1-0.9,2.4-4,3-7.8c0.1-0.7,0.2-1.3,0.2-1.9c0.5-1.9,3.7-6.8,8-12.2c2.6-3.2,5.1-5.9,7-7.8h0c0,0,0.1-0.1,0.1-0.1
		c0,0,0,0,0,0h0c0.5-0.5,0.9-1.8,1.1-3.6c0.3-6.2,4.5-11.6,10.7-14.8c0,0,0.1,0,0.1-0.1c0,0,0,0,0.1,0c2.4-1.2,5.4-2,8.5-2
		c1.3,0,2.5,0.1,3.7,0.4c3.8,0.5,7.7,1,11.7,1.8c12.5,2.3,23.6,5.4,31.2,8.6c4,1.9,8.4,3.6,13.1,4.9c16.7,4.7,32.5,3.5,39.6-2.3
		c0.1,0.1,0.2,0.3,0.3,0.4c1.7-1.5,4.9,0.9,6.9,0.9c0,0.3,1.1,1.1,1.1,1.3c2.9,1.3,4.3,7.5,5.1,10.2l4.3,10.8
		c3.7,8.6,2.7,19.9,4.8,28.8c1.6,7,0.3,16.9,0,24.2c0,1.6-0.8,3.8-1.1,5.4l-4,15.6c-0.3,1.6-1.9,4.3-1.9,6.2
		c-0.5,0.5-1.1,1.9-1.6,2.4v0.3v0.3c-0.3,0-1.1,0.5-1.1,1.1c-0.3,0-0.8,0.3-1.1,0.3l-0.8,0.8l-4.8,0.3c0,0.1-0.2,0.2-0.4,0.2
		c0,0.1-0.1,0.2-0.1,0.3l-3.6,0c-16.9,27.3-47.1,45.5-81.3,45.5C198.7,293.2,198,293.2,197.4,293.2L197.4,293.2z"/>
	<path id="XMLID_63_" class="st0" d="M123.4,93.3l-2.5-11l0.1,0l8.8,6.9L123.4,93.3L123.4,93.3z M132.2,91l5.8,4.6l3-1.9l-20.4-15.4
		l-3.1,2l5.5,25.1l2.8-1.8l-1.7-7.2L132.2,91L132.2,91z"/>
	<polygon id="XMLID_23_" class="st0" points="127.9,72.5 145.6,64.3 146.9,66.9 139.5,70.3 148.4,89.6 145.4,90.9 136.5,71.7 
		129.1,75.1 127.9,72.5 	"/>
	<path id="XMLID_59_" class="st0" d="M158.4,74.9l0.8-11.2l0.1,0l6.3,9.2L158.4,74.9L158.4,74.9z M167.5,75.4l4.2,6.1l3.4-1
		l-14.9-20.8l-3.6,1l-2.2,25.6l3.2-0.9l0.5-7.4L167.5,75.4L167.5,75.4z"/>
	<polygon id="XMLID_20_" class="st0" points="181.3,76.1 193.4,74.6 193.7,77.5 178.4,79.3 175.4,55.4 178.7,55 181.3,76.1 	"/>
	<path id="XMLID_55_" class="st0" d="M204.2,68l4.8-10.2l0.1,0l2.6,10.9L204.2,68L204.2,68z M212.6,71.7l1.7,7.2l3.5,0.3l-6.5-24.8
		l-3.7-0.3l-11.2,23.2l3.3,0.3l3.1-6.7L212.6,71.7L212.6,71.7z"/>
	<polygon id="XMLID_17_" class="st0" points="243.3,60.7 246.3,61.6 239.4,84.7 235.9,83.6 229.8,61.5 229.7,61.5 224.2,80.1 
		221.1,79.2 228,56.1 231.7,57.2 237.7,79.3 237.7,79.3 243.3,60.7 	"/>
	<polygon id="XMLID_16_" class="st0" points="250.4,62.9 268.1,71.1 266.9,73.7 259.5,70.3 250.6,89.5 247.6,88.1 256.6,68.9 
		249.2,65.5 250.4,62.9 	"/>
	<path id="XMLID_50_" class="st0" d="M265.7,86.7l9.1-6.6l0.1,0l-3,10.8L265.7,86.7L265.7,86.7z M271.3,93.9l-1.9,7.1l3,2l6.2-24.8
		l-3.1-2.1l-20.9,14.9l2.8,1.9l6-4.4L271.3,93.9L271.3,93.9z"/>
	<path id="XMLID_13_" class="st0" d="M154.9,338l-3.8-1.2l6.3-19.9l-6.6-2.1l0.9-2.8c4.7,1.1,6.7,1.3,9.3-2.9l2.8,0.9L154.9,338
		L154.9,338z"/>
	<path id="XMLID_46_" class="st0" d="M179.7,330.9c-2.5-0.3-5.9-1.4-5.2-7.1c0.5-3.9,3-6.3,6.5-5.9c4.2,0.5,5.6,3.6,5.1,7
		C185.4,330.7,181.6,331.2,179.7,330.9L179.7,330.9z M178.7,334.2c2.7,0.3,5.8-0.6,7.1-2.7l0.1,0.1c-1.8,7.5-4.4,10.6-8.4,10.1
		c-3-0.4-4.5-2.4-4.4-5.4l-3.7-0.4c-0.3,2.8,0.9,8,7.7,8.9c10.1,1.2,12.2-12.1,12.6-15.2c0.6-4.7,0.7-13.7-8.6-14.8
		c-6.2-0.8-10,3.6-10.6,8.9C170,329.4,173.3,333.5,178.7,334.2L178.7,334.2z"/>
	<path id="XMLID_43_" class="st0" d="M215.8,330.4c0.5,7.4-1.2,11.9-5.4,12.2c-4.2,0.3-6.4-4.1-6.9-11.4c-0.5-7.4,1.2-11.9,5.4-12.2
		C213.1,318.7,215.3,323,215.8,330.4L215.8,330.4z M219.7,330.2c-0.4-6.1-2.6-15-11-14.5c-8.5,0.5-9.5,9.6-9.1,15.7
		c0.4,6.1,2.6,15,11,14.5C219,345.4,220.1,336.3,219.7,330.2L219.7,330.2z"/>
	<path id="XMLID_8_" class="st0" d="M224.5,313.8l19.6-5.6l0.9,3.1c-2,3.7-6.2,14.7-4.6,28l-3.9,1.1c-1.3-8.1,1-19.7,4.6-27.6
		l-15.6,4.5L224.5,313.8L224.5,313.8z"/>
	<path id="XMLID_7_" class="st1" d="M204.9,146.1c-4.2-1.4-9.4-2.2-14.9-2.2c-8,0-15.2,1.7-20.1,4.4c0.1-0.4,0.3-0.7,0.4-1
		c4.4-5.7,16.9-9.3,31.3-8.4c3.7,0.2,7.3,0.7,10.6,1.5c9.2,2.4,17.3,5.3,23.2,8c3.9,2.1,8.2,3.9,12.9,5.4c12.5,4.1,24.6,4.7,33,2.4
		c0,0,0,0.1,0,0.1c-3.7,9.8-23.3,11.5-43.8,3.9c-4.6-1.7-8.8-3.8-12.6-6C219.8,151.5,212.9,148.6,204.9,146.1L204.9,146.1
		L204.9,146.1z"/>
	<path id="XMLID_6_" class="st1" d="M254.2,172.5c4.5,1.1,9.7,1.7,15.3,1.4c8.1-0.4,15.1-2.4,19.5-5.3c-0.1,0.4-0.1,0.7-0.2,1.1
		c-3.5,5.8-15.6,10-30.2,9.9c-3.8,0-7.5-0.3-10.9-0.9c-9.6-1.9-18.1-4.3-24.5-6.8c-4.2-1.9-8.8-3.5-13.7-4.7
		c-13.2-3.4-25.4-3.4-33.4-0.7c0,0,0-0.1,0-0.1c2.2-9.9,21.7-12.6,43.3-6.1c4.9,1.5,9.4,3.3,13.6,5.3
		C238.5,167.9,245.8,170.3,254.2,172.5L254.2,172.5L254.2,172.5z"/>
	<path id="XMLID_5_" class="st1" d="M292.4,233.1c-8.4,9.7-20.5,16-34,16.4c-15.9,0.5-30.2-7.2-39.2-19.3c9.1,4.8,19.9,8.1,31.7,9.3
		C266.4,240.9,280.9,238.4,292.4,233.1L292.4,233.1z"/>
	<path id="XMLID_4_" class="st1" d="M295.7,212.9c-6,10.2-22.2,17.7-41.3,18c-12.9,0.2-24.5-2.8-32.7-7.9h-0.1
		c-5-2.9-11.8-5.1-19.4-6c-0.8-0.1-1.6-0.2-2.3-0.2c3.3-1.1,7.6-1.7,12.3-1.7c6.3,0,11.9,1.1,15.2,2.9c5.7,4,16.4,6.7,28.6,6.7
		c10.6,0,20-2,26-5.1c2.3-0.9,4.8-2,7.3-3.2C291.6,215.2,293.7,214,295.7,212.9L295.7,212.9z"/>
	<path id="XMLID_3_" class="st1" d="M294.7,192.3c0.1,0.6,0.2,1.2,0.3,1.9c0.5,11.3-17.3,21-39.6,21.7c-16.4,0.5-30.8-4-37.5-10.9
		c-3.5-2.6-8.9-4.8-14.9-5.7c-3.4-0.5-6.7-0.6-9.7-0.3c3.2-2.2,8.1-3.6,13.7-3.6c5.6,0,10.6,1.4,13.7,3.6c5.6,5,19.1,8.7,34.9,8.8
		c20.7,0.1,37.6-5.9,37.6-13.4c0,0,0,0,0,0C293.9,193.7,294.7,192.8,294.7,192.3C294.7,192.3,294.7,192.3,294.7,192.3L294.7,192.3z"
		/>
	<path id="XMLID_2_" class="st1" d="M293.9,175c0,0.3,0,0.7,0,1c0,12.7-18.6,23.1-41.4,23.1c-14.9,0-28.1-4.4-35.3-11.1
		c-5.5-4.2-17.2-7.1-30.6-7.1c-2.6,0-5.2,0.1-7.6,0.3c2.4-5.3,16.3-7,32-3.7c9.1,1.9,17,5.1,22,8.6c6.4,2.7,15.2,4.3,24.8,4.3
		c10,0,19-1.8,25.5-4.6h0v0c6.3-2.8,10.2-6.6,10.2-10.8v0H293.9L293.9,175z"/>
	<path id="XMLID_1_" class="st3" d="M126.7,215.5c0.7,0.2,1.4,0.4,2.1,0.4C128.1,215.9,127.4,215.7,126.7,215.5"/>
</g>
</svg>
