<?xml version="1.0" encoding="utf-8"?>
<!-- Generator: Adobe Illustrator 19.0.0, SVG Export Plug-In . SVG Version: 6.00 Build 0)  -->
<svg version="1.1" id="Layer_1" xmlns="http://www.w3.org/2000/svg" xmlns:xlink="http://www.w3.org/1999/xlink" x="0px" y="0px"
	 viewBox="0 0 400 400" style="enable-background:new 0 0 400 400;" xml:space="preserve">
<style type="text/css">
	.st0{fill-rule:evenodd;clip-rule:evenodd;fill:#FFFFFF;}
	.st1{fill-rule:evenodd;clip-rule:evenodd;fill:#FFD400;}
	.st2{fill-rule:evenodd;clip-rule:evenodd;fill:#EE3124;}
	.st3{fill-rule:evenodd;clip-rule:evenodd;fill:#2E3192;}
</style>
<g>
	<polygon class="st0" points="4.9,5 393.9,5 393.9,394 4.9,394 4.9,5 	"/>
	<path class="st1" d="M199.4,10.7c72.1,0,130.9,84.8,130.9,188.8c0,104-58.8,188.8-130.9,188.8c-72.1,0-130.9-84.8-130.9-188.8
		C68.5,95.5,127.3,10.7,199.4,10.7L199.4,10.7z"/>
	<path class="st2" d="M194.9,379c-65-3.5-117.3-82.8-117.3-179.6c0-38.2,8.1-73.6,22-102.8c23.1,28.8,57.1,47.5,95.3,48.9V379
		L194.9,379z"/>
	<path class="st3" d="M199.4,19.8c38.6,0,73.1,26.7,95.4,68.3c-22.3,29.5-56.8,48.5-95.4,48.5c-38.6,0-73.1-19-95.4-48.6
		C126.3,46.5,160.8,19.8,199.4,19.8L199.4,19.8z"/>
	<path class="st1" d="M139.7,56.7c3.5-5.6,9.2-11.7,15.7-16c12-8,26.2-5.7,25.9,9.1c-0.1,4.7-1.6,8.9-6.5,11.3
		c8.8,2,14.3,9.1,14.3,16.5c-0.1,14.6-17.6,18.9-30.7,18.9c-6.5,0-13.4-0.2-18.2-1.3c3-2.1,4.1-4.9,4.1-7l0-27.3
		C144.3,59.8,143.9,57.2,139.7,56.7L139.7,56.7z"/>
	<path class="st1" d="M190.9,95.7c2.9-12.7,1.8-51.3,0.7-65.9c2.4-1,5.3-1.2,8.2-1.2c8.5,0,16.1,1,23.5,4.4c3.7,2,4.3,12,0.4,13.6
		c-2.6-5.9-13.9-7.3-19.2-7.3l0,19.1l12.3,0l0,10.5c-1.3-1.2-3-1.3-4.8-1.3l-7.5,0c0,5.1-0.4,18.4,1.4,28.2L190.9,95.7L190.9,95.7z"
		/>
	<path class="st1" d="M257.2,91.8c-5,3.7-9.7,4.4-14.4,4.4c-7.4-0.1-13.6-3.7-17.4-9c-3.5-4.8-5-11-5-16.6c0-7.7,3.1-15.4,9.8-20.3
		c3.8-2.8,8.9-3.9,13.4-4c5.9-0.1,15.9,4,15.7,10c-0.1,2.9-1.8,5.8-5.5,5.7c-6.5-0.2-3.2-4.5-11.1-5.1c-3.5-0.2-6.4,1.7-8.3,4.1
		c-2.1,2.8-2.7,6.1-2.6,9.6c0.1,7.3,3,12.3,7.6,14.4c4.9,2.2,11.2,1.3,17.8-2.2L257.2,91.8L257.2,91.8z"/>
	<polygon class="st1" points="167.3,126.4 167.3,109.4 163.8,109.5 163.8,106.1 168.9,102.3 172.6,102.3 172.6,126.4 167.3,126.4 	
		"/>
	<path class="st1" d="M188.4,116.6c-0.6,0.4-1.2,0.7-1.8,0.9c-0.6,0.2-1.2,0.3-1.8,0.3c-1.8,0-3.1-0.6-4.2-1.9c-1-1.3-1.5-3-1.5-5.3
		c0-1.4,0.2-2.7,0.5-3.7c0.3-1.1,0.8-2,1.5-2.7c1.3-1.5,3.3-2.2,5.8-2.2c2.4,0,4.2,0.7,5.6,2.2c1.3,1.5,2,3.6,2,6.2
		c0,2.7-1.2,6.1-3.5,10.4l-0.3,0.5l-2.7,5.1h-5.5l4.4-7.5l0.1-0.1C187.4,118,187.9,117.3,188.4,116.6L188.4,116.6z"/>
	<path class="st1" d="M214.3,114.2c0,4-0.7,7.1-2,9.2c-1.3,2.1-3.2,3.2-5.7,3.2c-2.5,0-4.4-1.1-5.7-3.2c-1.3-2.1-2-5.2-2-9.2
		c0-4,0.7-7.1,2-9.2c1.3-2.1,3.2-3.2,5.7-3.2c2.5,0,4.4,1.1,5.7,3.2C213.7,107.1,214.3,110.1,214.3,114.2L214.3,114.2z"/>
	<path class="st1" d="M228.2,116.4c-0.6,0.4-1.2,0.7-1.8,0.9c-0.6,0.2-1.2,0.3-1.8,0.3c-1.8,0-3.1-0.6-4.2-1.9c-1-1.3-1.5-3-1.5-5.3
		c0-1.4,0.2-2.7,0.5-3.7c0.3-1.1,0.8-2,1.5-2.7c1.3-1.5,3.3-2.2,5.8-2.2c2.4,0,4.2,0.7,5.6,2.2c1.3,1.5,2,3.6,2,6.2
		c0,2.7-1.1,6.1-3.5,10.4l-0.3,0.5l-2.7,5.1h-5.5l4.4-7.5l0.1-0.1C227.3,117.8,227.7,117.1,228.2,116.4L228.2,116.4z"/>
	<path class="st3" d="M155.8,64.3l0-11.7c5.1-5.8,14.2-7.2,14.2-1C170,58.5,161,62.4,155.8,64.3L155.8,64.3z"/>
	<path class="st0" d="M299.2,96.8c13.8,29.1,22,64.6,22,102.7c0,2.7,0,5.3-0.1,7.9h-35.4v-96C290.5,106.8,295,102,299.2,96.8
		L299.2,96.8z M315.6,252.9c-5.9,27.9-16.3,52.9-30,73.2v-73.2H315.6L315.6,252.9z M240.1,368.8c-11.4,6-23.5,9.5-36.1,10.2V252.9
		h36.1V368.8L240.1,368.8z M203.9,207.4v-61.8c12.6-0.5,24.7-2.8,36.1-6.8v68.5H203.9L203.9,207.4z"/>
	<path class="st0" d="M249.1,135.3v81.1h-45.2h45.2V135.3L249.1,135.3z M203.9,243.9h45.2v119.5V243.9H203.9L203.9,243.9z
		 M276.6,338.3v-94.4h40.8h-40.8V338.3L276.6,338.3z M320.6,216.4h-44V119v97.4H320.6L320.6,216.4z"/>
	<path class="st2" d="M249.1,135.3v81.1h-45.2v27.4h45.2v119.5c9.9-6.6,19.1-15.1,27.4-25.2v-94.4h40.8c1.5-8.9,2.6-18.1,3.2-27.4
		h-44V119C268.1,125.5,258.9,131,249.1,135.3L249.1,135.3z"/>
	<path class="st3" d="M194.9,379c-3-0.2-6.1-0.5-9-1c0,0,0,0,0,0c-1-0.2-2-0.3-3-0.5c0,0,0,0,0,0c-1-0.2-1.9-0.4-2.9-0.6
		c0,0-0.1,0-0.1,0c-1-0.2-1.9-0.5-2.8-0.7c0,0-0.1,0-0.1,0c-1-0.3-1.9-0.5-2.8-0.8c0,0,0,0,0,0c-1.9-0.6-3.8-1.3-5.7-2
		c0,0-0.1,0-0.1,0c-0.9-0.4-1.8-0.7-2.7-1.1c0,0,0,0,0,0V141c3.3,0.9,6.6,1.7,10,2.4c0,0,0,0,0,0c0.6,0.1,1.1,0.2,1.7,0.3
		c0,0,0,0,0,0c4.6,0.8,9.2,1.4,13.9,1.7c0,0,0,0,0.1,0c0.6,0,1.1,0.1,1.7,0.1c0,0,0,0,0.1,0c0.6,0,1.2,0.1,1.8,0.1V379L194.9,379z
		 M136.2,353c-11-9.9-20.9-22.4-29.3-36.8V105.1c8.7,9.1,18.5,17,29.3,23.3V353L136.2,353z"/>
	<path class="st3" d="M155.8,76c5.7-5.2,19.1-7.7,20,1.7c0.8,8.4-14.2,9.7-20,9.3L155.8,76L155.8,76z"/>
	<path class="st3" d="M186.7,106.2c-0.7,0-1.2,0.3-1.6,0.9c-0.4,0.6-0.5,1.6-0.5,2.8c0,1.3,0.2,2.2,0.5,2.9c0.3,0.6,0.9,0.9,1.6,0.9
		c0.7,0,1.2-0.3,1.6-0.9c0.4-0.6,0.5-1.6,0.5-2.9c0-1.3-0.2-2.2-0.5-2.8C187.9,106.5,187.4,106.2,186.7,106.2L186.7,106.2z"/>
	<path class="st3" d="M204.3,114.2c0,3,0.2,5.1,0.5,6.3c0.3,1.1,1,1.7,1.8,1.7c0.8,0,1.4-0.5,1.8-1.6c0.4-1.1,0.5-3.2,0.5-6.3
		c0-3.1-0.2-5.2-0.5-6.4c-0.3-1.1-0.9-1.7-1.8-1.7c-0.8,0-1.5,0.6-1.8,1.7C204.5,109,204.3,111.1,204.3,114.2L204.3,114.2z"/>
	<path class="st3" d="M226.5,106.1c-0.7,0-1.2,0.3-1.6,0.9c-0.3,0.6-0.5,1.6-0.5,2.8c0,1.3,0.2,2.2,0.5,2.9c0.3,0.6,0.9,0.9,1.6,0.9
		c0.7,0,1.2-0.3,1.6-0.9c0.4-0.6,0.5-1.6,0.5-2.9c0-1.3-0.2-2.2-0.5-2.8C227.7,106.4,227.2,106.1,226.5,106.1L226.5,106.1z"/>
</g>
</svg>
