<?xml version="1.0" encoding="utf-8"?>
<!-- Generator: Adobe Illustrator 19.0.0, SVG Export Plug-In . SVG Version: 6.00 Build 0)  -->
<svg version="1.1" id="Layer_1" xmlns="http://www.w3.org/2000/svg" xmlns:xlink="http://www.w3.org/1999/xlink" x="0px" y="0px"
	 viewBox="0 0 400 400" style="enable-background:new 0 0 400 400;" xml:space="preserve">
<style type="text/css">
	.st0{fill:#010101;}
	.st1{fill:#D91F26;}
	.st2{fill:#FFFFFF;}
	.st3{fill:#560F11;}
	.st4{fill:#297E3E;}
	.st5{fill:#F3F3F3;}
</style>
<g>
	<path id="XMLID_233_" class="st0" d="M332.1,8.3L374,52.4c0,0-24.1,40.9-24.1,91.4c0,52.6,17.4,92.8,17.4,119.5
		c0,25.8-15.5,47.8-32.2,61.2c-24.4,19.5-58.7,27.8-90,41.7c-16.5,7.3-40.3,20.1-45.1,29.2c-4.8-9-28.6-21.8-45.1-29.2
		c-31.3-13.9-65.6-22.2-90-41.7c-16.7-13.3-32.2-35.4-32.2-61.2c0-26.7,17.4-66.8,17.4-119.5C50.1,93.2,26,52.4,26,52.4L67.9,8.3
		H332.1"/>
	<path id="XMLID_232_" class="st1" d="M331.3,10.2H68.7L28.3,52.7c1.8,3.2,6.6,12.4,11.5,25.8C45.4,93.7,52,117.4,52,143.8
		c0,30.9-6.1,58-10.9,79.7c-3.5,15.5-6.5,28.9-6.5,39.8c0,11.7,3.2,23.2,9.6,34.3c5.5,9.5,13,18.3,21.9,25.4
		c16.6,13.3,37.6,21.2,59.8,29.6c9.8,3.7,20,7.5,29.8,11.9c3.8,1.7,34.9,15.8,44.3,27.5c9.4-11.8,40.6-25.9,44.3-27.5
		c9.8-4.3,19.9-8.2,29.8-11.9c22.2-8.4,43.2-16.3,59.8-29.6c8.9-7.1,16.5-15.9,21.9-25.4c6.4-11.1,9.6-22.7,9.6-34.3
		c0-10.9-3-24.3-6.5-39.8c-4.9-21.7-10.9-48.7-10.9-79.7c0-26.4,6.6-50,12.2-65.3c4.9-13.4,9.7-22.6,11.5-25.8L331.3,10.2
		L331.3,10.2z"/>
	<path id="XMLID_231_" class="st0" d="M324.4,19.8l37.4,39.4c0,0-20.6,40.6-20.6,88.1c0,49.6,16.4,87.4,16.4,112.5
		c0,24.3-14.6,45-30.3,57.6c-23,18.4-55.3,26.2-84.8,39.3c-15.5,6.9-37.9,19-42.4,27.5c-4.5-8.5-26.9-20.6-42.4-27.5
		c-29.5-13.1-61.7-20.9-84.8-39.3c-15.7-12.6-30.3-33.3-30.3-57.6c0-25.1,16.4-62.9,16.4-112.5c0-47.6-20.6-88.1-20.6-88.1
		l37.4-39.4H324.4"/>
	<path id="XMLID_230_" class="st1" d="M323.6,21.6H76.4L40.5,59.5c1.5,3.1,5.7,12.2,9.8,25.3c4.7,14.8,10.4,37.7,10.4,62.5
		c0,29.2-5.7,54.6-10.3,75.1c-3.3,14.6-6.1,27.2-6.1,37.4c0,11,3,21.8,9,32.3c5.1,8.9,12.3,17.2,20.6,23.9
		c15.6,12.5,35.4,19.9,56.3,27.8c9.3,3.5,18.8,7.1,28,11.2c3.5,1.6,32.7,14.8,41.7,25.8c9-11.1,38.2-24.3,41.7-25.8
		c9.2-4.1,18.8-7.7,28-11.2c20.9-7.9,40.7-15.4,56.3-27.8c8.4-6.7,15.5-14.9,20.6-23.9c6-10.4,9-21.3,9-32.3
		c0-10.2-2.8-22.8-6.1-37.4c-4.6-20.4-10.3-45.9-10.3-75.1c0-24.8,5.7-47.7,10.4-62.5c4.2-13.1,8.3-22.2,9.8-25.3L323.6,21.6
		L323.6,21.6z"/>
	<path id="XMLID_229_" class="st2" d="M207.1,347.6C121,340.7,100,274.7,50.2,223.2c-3.2,14.2-5.9,26.5-5.9,36.5
		c0,4.2,0.4,8.3,1.3,12.4c38.1,31.3,73.8,79.6,133.6,79.6C194.6,351.9,207.1,347.6,207.1,347.6z"/>
	<path id="XMLID_228_" class="st2" d="M227.7,331.2c20.8,0,37.7-11.5,37.7-11.5C154,324.5,131.8,187.1,58.2,117.4
		c1.5,9.3,2.5,19.4,2.5,29.9c0,11.3-0.9,22.1-2.2,32.2C102,228.5,147.3,331.2,227.7,331.2z"/>
	<path id="XMLID_227_" class="st2" d="M312.2,89.5c-27.3-4.5-66.1-9-112.2-9c-56.7,0-102.3,6.8-129,12
		c40,34.2,115,219.4,206.7,219.4c31.3,0,70.2-37.1,69-102.4c-3.8-17.9-7.5-38.9-7.5-62.2c0-19.1,3.4-37,7.1-51.1
		c-0.8-0.2-1.6-0.4-2.5-0.6C336.6,94,325.8,91.7,312.2,89.5z"/>
	<path id="XMLID_226_" class="st2" d="M348.4,89c0.4-1.5,0.9-2.9,1.3-4.2c4.2-13.1,8.3-22.2,9.8-25.3l-35.9-37.9H76.4L40.5,59.5
		c1.5,3.1,5.7,12.2,9.8,25.3c0.4,1.3,0.9,2.8,1.3,4.2C72.1,84.2,127,73,200,73C273,73,327.9,84.2,348.4,89z"/>
	<path class="st0" d="M77,53.9c-0.7-4-1.6-5.1-3.2-4.8c-2.5,0.5-2.3,3.1-0.6,12.6c1.8,9.5,2.5,12,5,11.6c2-0.4,2.1-2.4,0.9-9.1
		l8-1.5l0.5,2.6c1.8,9.9-2.9,13.2-8.2,14.2c-9.3,1.7-12.3-3.1-14.7-16.2c-2.5-13.5-0.6-18.8,7.9-20.4c7.5-1.4,11.1,2.4,12.3,9.2
		l0.4,2.2l-8,1.5L77,53.9z"/>
	<path class="st0" d="M92.2,40.3l10.5-1.5l12.9,34.3l-8.8,1.3l-1.7-6.1l-6.6,1l0,6.3l-8.8,1.3L92.2,40.3z M98.5,46.8L98.5,46.8
		l-0.2,15.4l4.6-0.7L98.5,46.8z"/>
	<path class="st0" d="M112.4,37.5l13.1-1.4c6.4-0.7,9.2,3.1,9.8,8.5c0.5,4.7-0.8,8-4.6,9.1l0,0.1c4.1,0,5.6,2.7,6.1,7.4l0.3,3
		c0.2,1.8,0.4,4.2,0.9,4.9c0.3,0.4,0.5,0.8,1.1,1l0.1,0.5l-8.9,0.9c-1-1.8-1.4-5.2-1.5-6.7l-0.3-2.4c-0.4-4-1.3-5-3.3-4.8l-2.2,0.2
		l1.5,14.3l-8.3,0.9L112.4,37.5z M122.4,51.6l1.7-0.2c2.4-0.3,3.3-2.1,3.1-4.6c-0.3-2.9-1.5-4-4-3.8l-1.6,0.2L122.4,51.6z"/>
	<path class="st0" d="M138.5,34.8l12.6-0.9c6.4-0.4,9.6,4.1,10,10.4c0.5,7.3-3,11.4-9.8,11.8l-2.9,0.2l0.9,13.6l-8.4,0.6L138.5,34.8
		z M148,49.6l1.6-0.1c2.1-0.1,3.1-1.6,2.9-4.6c-0.2-3-1.4-4.3-3.5-4.1l-1.6,0.1L148,49.6z"/>
	<path class="st0" d="M163.1,33.2l8.4-0.4l1.6,35.8l-8.4,0.4L163.1,33.2z"/>
	<path class="st0" d="M187.6,32.3l19.1-0.1l0,7.6l-10.7,0.1l0,6.1l10,0l0,7.3l-10,0l0.1,14.7l-8.4,0L187.6,32.3z"/>
	<path class="st0" d="M222.5,43.5c0.1-4.1-0.5-5.3-2.2-5.3c-2.6-0.1-2.9,2.5-3.2,12.2c-0.3,9.7-0.1,12.3,2.5,12.4
		c2.1,0.1,2.6-1.9,2.8-8.7l8.1,0.2l-0.1,2.7c-0.3,10-5.6,12.3-11,12.1c-9.4-0.3-11.4-5.6-11-18.9c0.4-13.7,3.3-18.5,12-18.3
		c7.6,0.2,10.3,4.7,10.1,11.6l-0.1,2.3l-8.1-0.2L222.5,43.5z"/>
	<path class="st0" d="M250.2,69.9l1.9-24.1l-6-0.5l0.4-5.8c5.1,0.3,7.4-0.6,8.8-4.9l6,0.5l-2.7,35.4L250.2,69.9z"/>
	<path class="st0" d="M275,63.7c-0.1,1.2,0,2.1,0.3,2.7c0.3,0.5,0.8,0.8,1.6,0.9c1.2,0.1,2.4-0.8,2.7-3l0.6-5.6l-0.1,0
		c-0.9,1.6-3.2,2.4-5.6,2.1c-4.5-0.5-7.3-3.3-6.4-11.6c1.1-9.6,5.3-12.9,12.1-12.1c7.3,0.8,10.6,4.8,9.3,16.3l-0.4,3.9
		C287.9,68,285.7,74,276.2,73c-8.2-0.9-9.5-5.5-9-10.2L275,63.7z M278.3,54.3c1.6,0.2,2.5-1,3-5.5c0.5-4.5,0.1-5.8-1.7-6
		c-1.6-0.2-2.5,1-3,5.5C276.1,52.8,276.6,54.1,278.3,54.3z"/>
	<path class="st0" d="M304.3,40.1c7.4,1.1,10.2,5.3,8.1,19.5c-2.1,14.2-6,17.4-13.4,16.3c-7.4-1.1-10.2-5.3-8.1-19.5
		C293,42.2,296.8,39,304.3,40.1z M298.3,63.4c-0.7,5-0.2,6.5,1.5,6.7c1.7,0.3,2.7-1,3.4-6l1.7-11.6c0.7-5,0.2-6.5-1.5-6.7
		c-1.7-0.3-2.7,1-3.4,6L298.3,63.4z"/>
	<path class="st0" d="M320.8,70.2c-0.2,1.2-0.2,2.1,0.1,2.7c0.3,0.6,0.8,0.9,1.5,1c1.2,0.2,2.5-0.7,2.9-2.8l1-5.6l-0.1,0
		c-1,1.5-3.4,2.2-5.8,1.7c-4.5-0.8-7-3.8-5.5-12c1.8-9.5,6.2-12.5,13-11.2c7.2,1.3,10.2,5.5,8.1,16.9l-0.7,3.8
		c-2,10.7-4.6,16.6-14,14.8c-8.1-1.5-9.1-6.2-8.3-10.8L320.8,70.2z M324.7,61.2c1.6,0.3,2.5-0.8,3.4-5.3c0.8-4.5,0.5-5.8-1.2-6.1
		c-1.6-0.3-2.5,0.8-3.4,5.3C322.7,59.5,323,60.8,324.7,61.2z"/>
	<path id="XMLID_208_" class="st0" d="M230.9,175.4c0-0.5,0-0.9,0-1.4c0.5-0.8,1.7-0.2,2.6-0.2c-0.8-1.1,0-1.8,0.4-2.8
		c-1.5-0.4-1.3,2.2-3.4,1.8c0,0.8-0.6,1-1,1.4C229.5,175.1,230.2,175.3,230.9,175.4z"/>
	<path id="XMLID_207_" class="st0" d="M241.7,166c0.8-0.1,0.7-1.8,0.4-2.4c-0.7,0.1-0.9,0.7-1.4,1
		C241.1,165.1,241.2,165.7,241.7,166z"/>
	<g>
		<path id="XMLID_206_" class="st0" d="M266.3,114.4c0.4,0,0.8,0.1,1.4-0.3c0.4-0.2,0.2-0.6-0.1-1c-0.3-0.5-0.8-0.9-1.2-0.9
			c-0.8,0-1.4,0.8-1.4,1.3C265.1,114.1,265.7,114.4,266.3,114.4z"/>
		<path id="XMLID_205_" class="st0" d="M265.9,132.2c-0.7,0.3-1.3,1.7-1.3,2.7c0,0.6,0,1.1,0.1,1.5c0.2,0.9,0.7,1.2,0.7,0
			c0-0.4,0-0.8,0-1c-0.2-1.2,0.3-1.9,0.7-2.4C266.7,131.9,266.3,132.1,265.9,132.2z"/>
		<path id="XMLID_204_" class="st0" d="M264.7,126.4c0.9,0,1.2,0.1,1.8,0.5c0.4,0.3,0.3-0.3,0.1-0.4c-0.4-0.2-0.6-1.4-0.6-1.6
			c-0.1-0.8-0.8-1.2-0.8-0.9c0,0.5,0,1.1,0,1.6c0,0.3-0.1,0.5-0.3,0.5c-0.5,0-1.1-1.3-1.1-0.3c0,0.5,0.1,1.5,0.1,1.9
			c0,1.2-0.2,1.1-0.5,1.8c-0.1,0.3,0,0.6,0.2,0.5c0.2-0.1,0.6-0.2,0.6-1c0-0.4,0.4-0.4,0.4-1.4C264.7,127.4,264.5,126.4,264.7,126.4
			z"/>
		<path id="XMLID_203_" class="st0" d="M264.2,139.6c-0.4-0.2,0.1-1.5-0.1-1.4c-0.3,0.2-0.5,1.1-0.7,1.4c-0.2,0.3-0.5,0.8-0.6,1.1
			c-0.2,0.7-0.2,1,0.6,1.2c0.5,0.1,0.4-1.1,0.4-1.2c0.1-0.2,0.2-0.5,0.3-0.6C264.1,139.9,264.8,139.9,264.2,139.6z"/>
		<path id="XMLID_202_" class="st0" d="M263.2,121.4c0.2-0.1,0-0.9,0.6-0.9c0.3,0,0.6-0.5,0.7-0.6c0.5-0.4,1.7-0.5,1.6,0.2
			c-0.1,0.7-0.3,1.9,0.8,0.9c0.4-0.3-0.3-0.9,0-1.3c0.5-0.6-0.5-0.3-0.6-0.8c-0.1-0.8,0-1.4-0.1-2c-0.1-0.2-0.3,0.4-0.7,0.9
			c-0.6,0.8-1.4,1.9-2.1,2.1c-0.6,0.1-0.9-0.8-1.1-0.7c-0.2,0.2-0.1,1.5,0,1.9C262.6,121.4,263,121.4,263.2,121.4z"/>
		<path id="XMLID_201_" class="st0" d="M261.8,128.1c0.1-0.3,0.1-0.8,0.1-1.2c0-0.3,0-0.4,0.2-0.6c0.3-0.2-0.2-0.2-0.2-0.7
			c0-0.1,0.2-0.3,0.2-0.5c0-0.2-0.1-0.4-0.5-0.1c-0.6,0.5-0.1,0.7-0.1,1.1c0,0.3,0,0.5,0,0.9c0,0.8-0.2,0.4-0.3,0.7
			C260.8,128.6,261.6,128.6,261.8,128.1z"/>
		<path id="XMLID_200_" class="st0" d="M261.2,137.1c0.1-0.3,0-0.8,0-1.2c0-0.6,0-0.9,0.3-1.3c0.1-0.2,0.3-0.3,0.4-0.6
			c0-0.2-0.3-0.4-0.5-0.4c-0.3,0-0.7,0.9-0.7,1.1c0,0.5,0,0.9,0,1.4c0,0.3-0.1,0.7-0.1,1C260.6,137.7,261.1,137.6,261.2,137.1z"/>
		<path id="XMLID_199_" class="st0" d="M261.8,124c0.1,0,0.2,0,0.2,0c0,0,0,0,0,0c0-0.1-0.2-0.1-0.2-0.1c-0.1,0-0.1,0-0.1,0v0
			C261.7,124,261.7,124,261.8,124z"/>
		<path id="XMLID_198_" class="st0" d="M266.7,139.1c0.4,0.3,0.8-0.6,0.9-0.7c0.1-0.2,0.5-0.6,0.6-0.8c0.6-1.1,0-1.2-0.2-0.8
			c-0.2,0.4-0.7,0.9-0.8,1.2C266.8,138.3,266.3,138.8,266.7,139.1z"/>
		<path class="st0" d="M316.9,169.6c-1.7-0.2-2.4-1.6-1.8-3.6c-0.1-1.6-0.6-2.9-1.8-3.4c-1.6,0.6-3-0.2-3.6-1.2
			c-0.7,0-1.6,0.2-1.8-0.4c-0.7-0.1-0.9-0.9-0.8-1.8c-0.5-0.4-0.5-1.2-1-1.6c-0.9,0-1.4-0.3-2.4-0.2c-1.7,0.1-3.5,0.1-3.4-1.6
			c-0.2-0.7-0.5-1.3-0.4-2.4c-1.4-0.2-2.8,0.6-3.6-0.2c-0.2,0-0.4,0-0.6,0c-1.4-0.2-3,0.8-3.6-0.4c-1.2-0.1-1.9-0.3-3,0
			c-0.5,0.4-1.3-0.6-1.8-0.8c-3.4-0.3-6.2-1.1-9.6-1.4c-1-0.1-2.4,0.3-2.8-0.4c-0.2,0-0.3,0-0.5,0c0.1-0.7,0.1-1.7,0.1-2.8
			c0-1.8-1.6-2.7-1.7-4.9c0-0.8,0.4-0.9,0.5-1.9c0.1-0.9,1.5-0.9,2.4-0.4c1.1,0.6,2.3,1.3,3.3,0.7c1.5-1,0.6-1.8,2.5-1.8
			c1.2,0,2.3-0.2,3.4-0.6c-0.1-1-0.8-1.5-0.9-1.7c-0.5-0.3-0.8-0.4-0.8-1c0-0.6,0.3-0.8,1.1-0.8c1.6,0,3.4,0.3,4.3-0.2
			c0.1-0.8-0.3-1.1-0.4-1.8c-0.1-1-0.1-1.2,0.9-1.2c1,0,2.2,0,3.1,0.1c0-1.6-1.5-2.5,0.7-2.9c0.9-0.2,2.3-0.6,2.7-1.4
			c-1.7-0.8-2.2-1.8-2.2-2.6c0-0.5,0.5-0.7,0.8-0.7c0.8-0.2,2.9,0.1,3.5-0.5c-0.3-0.7-0.6-1-0.6-1.8c0-0.5,0.3-0.8,1.1-0.8
			c1.1-0.1,2.2-0.2,2.7-0.8c-0.9-0.7-1.6-1.1-1.8-1.5c-0.5-0.8,0.3-1.1,0.9-1.1c0.8,0,1.8-0.2,2.6-0.4c0.1-0.4,0-1-0.4-1.3
			c-0.3-0.3-0.6-0.1-0.6-1c0-1.1,0.8-0.8,1.7-1.3c1.2-0.6,1.8-1.3,1.9-1.8c-0.3,0-0.4-0.2-0.4-0.8c0-0.3,0.3-0.5,0.8-0.6
			c1,0,1.4-0.8,1.7-1.1c2.1-1.9,2.8-3.4,4-5.3c-1,0-4.4,1.6-5.5,1.7c-3.7,0.2-6.3-0.8-9.7-0.8c-4.7,0-7.4,1.9-10.5,4.9
			c-2.1,2-3.9,5.4-5.9,7c-2.4,1.9-4.3,4.8-9.1,3.9c-0.2-0.7-1.8-4-0.5-4c1.3,0,2.9,1.6,3.1,2.4c0.9-1.6,1.5-2.9,0.6-5.3
			c-0.8-2.3-3.5-6.1-6.1-6.4c-1.8-0.2-2,0.2-2.9,1.1c-1,1.1-2.7,3.1-3.6,4.2c-1.7,2.4-3.8,5.6-4.7,7.7c-2.7,0-5.3-2.2-6.4-4
			c-1.2-2-3.6-4.7-6.8-6.5c-2.8-1.6-6.3-2.6-8.4-2.6c-4.6,0-4.2,0.6-7.9,0.6c-2.3,0.1-6.6-0.4-9.4-0.9c0,0.1,1.3,1.9,1.5,2.1
			c0.7,0.5,1.3,1,1.9,1.4c0.3,0.2,0.9,0.6,1.1,1c0.2,0.6-0.3,0.8-0.9,1c0.2,0.2,1.1,1.2,1.4,1.5c0.7,0.7,1.5,1.2,2.2,1.6
			c1.4,0.8,0.5,1.2,1.2,1.9c2,2.1,4.5,1.9,2.2,3.3c2.1,2.1,4.1,1.1,4.4,2.4c0.2,0.9-0.5,0.9-1.9,1.7c1.3,0.9,3.8,0.6,3.9,1.8
			c0.2,2.7-1.2,1.3-2.1,2.3c2.2,0.8,5.9,1.1,6,1.7c0.2,1.4-0.9,1.2-1.2,2.6c1,0.4,4.7-0.2,3.9,1.5c-0.3,0.6-0.6,1.1-0.7,2
			c1.7,0.5,2.4,0,3.9,0.3c2.8,1.1,9.4,3.9,11.4,4.6c1.5,0.5,1.5,1.3,1.5,6.9c0,1.9,0,3.8,0,5.1l0.9,1.6c-2.2,0.4-3.7,0-6.3,0.4
			c-0.3-0.7-0.7-1.2-0.6-2.2c-0.4,0-0.8,0-1.2,0c0,0.1,0,0.1,0,0.2c-1.2,0.1-1.9,1.6-3.2,1.2c-0.5-0.2-0.1-0.9-1-0.8
			c-2.6,0.1-3,2.3-4,4c-1,1.2-2.4-0.3-3.6-0.2c-0.1,0.2-0.2,0.4-0.4,0.4c-1.5,0.6-2.4,3.8-4.2,2.8c-0.3-0.5-0.4-1.3-0.2-1.8
			c-0.5,0-0.9,0-1.4,0c-0.1,0-0.1,0-0.2,0c-0.3,0.6-0.7,1.2-1.2,1.6c-0.3,1.5-1.3,2.3-1.8,3.6c-0.2,0.9-0.7,1.5-1,2.2
			c-0.3,0-0.6,0-0.6-0.2c-1,0.5-1-1.1-2-1.2c-2.3,1-4.4,2.2-6,3.8c-0.5,1.1-1.4,1.8-2.4,2.4c-0.7,0.5-0.9,1.5-0.8,2.8
			c-0.1,0.7,0.3,1.9-0.2,2.2c-0.1,2.9-0.6,5.3,1.6,6.2c0.9,0.4,1.3,1.3,2,2c0.8,0.8,2.5,0.4,3-0.4c0.5,0.2,1.1,0.3,1.4,0.8
			c0.1,0,0.1,0,0.2,0c0,1.1,1.5,0.7,2.6,0.8c0.2,0,0.4,0,0.6,0c0.2-0.2,0.2-0.7,0.2-1.2c0.3-0.9,1.6,0,2.2,0.2
			c1.6-0.5,1.8-2.9,4-2.2c0.7,0.5,0.7,1.8,1.4,2.4c3.4,0,5.9,0.4,8.8,0.4c0.8,0.1,2.2-0.2,2.4,0c2.5-0.1,3.6,1.2,4.2,3
			c2.2,1.4,2.6,4.6,5.6,5.2c0.2,0.7,0.9,0.9,1.6,1.2c0.2,0.7,0.5,1.4,0.6,2.2c0.8,0.3,1.1,1.1,1.6,1.8c0.4,0.1,0.8,1.1,1.2,0.4
			c-0.7,0.2-0.3-0.8-0.4-1.2c-0.6,0-0.6-0.7-0.8-1.2c-0.8,0-0.8-0.8-1-1.4c0-0.4,0.8-0.1,1.2-0.2c0.2,0,0.2,0.1,0.2,0.2
			c0.7,0.2,0.7,1.2,1.2,1.6c0.4-0.1,1.2,0.2,1.2-0.2c-1.1-0.4,0.4-1.2,0.2-2c-0.2-0.4-0.7-0.7-1-0.4c0-0.4,0.2-0.5,0.6-0.4
			c-0.9-0.8-0.1-0.8,0.2-1.8c0.3-0.8-0.2-2.4,1-1.8c-0.1,1.3,0.4,2,0.6,3c-0.1-0.5,0-0.8,0.2-1c0.4,0,0.4,0.2,0.8,0.2
			c0.2,0.8-0.4,0.8-0.4,1.4c-0.6,0.1-0.6-0.4-1,0c0.5,1.7-1.5,3,0.4,4c-0.1-0.9,0.6-0.4,0.2-1.2c1.3,0.1,1,1.8,2,2.2
			c0.3-0.2,0.5-0.7,0.2-1c0-0.4,0-0.8,0-1.2c-0.1,0-0.1,0-0.2,0c-0.3-0.4-0.3-1.4,0.2-1.6c0-0.1,0-0.1,0-0.2c-0.7,0.2-0.3-0.6-0.4-1
			c0-0.2,0-0.4,0-0.6c-0.2-0.8-0.5-1.5-0.6-2.4c0-0.3,0-0.7,0-1c0.1-1.2,0-1.3,0.6-2c0.3-1.4,0.2-3.2,0.8-4.4
			c2.6-3.9,2.3,5.1,1.8,7.2c0,0.1,0,0.1,0,0.2c-0.3,1-0.2,2.8-0.4,3.4c0.4,1.6-0.7,2-0.4,4c0.8,0.9,0.8,2.8-0.2,3.6
			c0.3,0.6,0,1.9,1,1.8c0.4-0.1,0-1.1,0.4-1.2c0.3,0.6,0.7-0.4,1.2-0.4c0.1,0.3,0.3,0.5,0.6,0.6c-1.1,2.1,0.5,3.8-0.2,6.4
			c-0.1,0.3-0.9,0-1,0.4c-0.2,1,0.4,2.7-0.4,3c-0.5-0.6-0.5-1.7-1.6-1.6c0.2-0.7-0.3-0.8-0.2-1.4c1.4-0.5,0.5-2.3,0.4-3.6
			c-0.4-0.2-0.8-0.4-1.4-0.4c-0.6-1.2-0.4-3.5,0-4.8c0.4,0,0.4,0.2,0.8,0.2c-0.4-0.4-0.4-1.3-1.4-1.2c-0.4,0-0.1,0.7-0.4,0.8
			c-0.6,0-0.8-0.4-1.2-0.6c0.1,0.7-0.6,0.6-0.8,1c0-0.7-0.2-1.3-1-1.2c0,0.3,0,0.7,0,1c-0.3,0.1-1-0.2-1,0.2c0.4,1,1.3,1.7,1,3.4
			c0.9,2.7,2.4,6,1.8,8.6c-1.1,0.3-0.3-1.4-0.8-1.6c-0.1,2.6,0.3,3.4,0.2,5.8c0.5,4,1.2,8.7,1.2,12.6c0.5,0.6,0.1,2.1,0.2,3
			c0,2.1,0,4.3,0,6.4c-0.1,1.1,0.3,2.8-0.2,3.6c0,2.6-0.2,6.6-0.6,9.4c0.1,0.6,0.9,0.5,1.2,0.8c-0.1,1.4-0.1,3,0.4,4.2
			c-0.1,0-0.3,0-0.4,0c-0.2,0-0.2,0.2-0.4,0.2c-0.2-0.4,0.6-0.7,0-0.8c-0.3,0-0.6,0-0.8-0.2c-0.5,1.3-0.7,4.5,0,5.8
			c-1.7,2.4-0.2,5-1,7.4c0.4-0.5,0.9,0.3,1-0.4c-0.1-1.1,0-1.7-0.2-2.4c0.6-0.2,1-0.6,1.8-0.6c0.2,0.7,0.2,1.5,0.8,1.8
			c0.2-0.5,0.2-1.8,0.2-3c-0.6,0.1-0.7-0.2-1.2-0.2c0.2-0.7,0.5-1.3,1.2-1.4c-0.6,0.4,1,1,0.8,0.6c1.1,1.8,1.1,5.7-1.4,4.6
			c0.3,0.3,0.2,1,0.2,1.6c-0.6-0.2-0.4,0.4-0.4,0.8c-0.5,0.2-0.6-0.1-0.8,0.6c0.6,2.8-0.9,3.7-1.8,5c1,0.3,0.6-0.7,1.4-0.6
			c0,2.4,0.8,4.5,0.4,7c0.7-0.2,0.8,0.3,1.4,0.2c0-0.3-0.3-0.3-0.2-0.6c0.5-0.1,0.4,0.4,0.8,0.4c0.1-1.1,0.9-1.4,0.8-2.2
			c0.9,0,1.2-0.3,1.8,0.2c-3.4,2.7-6.2,6.5-7.4,10.8c-1,0-1.5-0.4-1.6-1.2c1.6-0.9,0.5-4,1.6-5c1.8,0.4,1.9-1.3,1.6-2.4
			c-0.9,0.1-1.4-0.2-1.6-0.8c-0.2,0.6-0.5,1.2-1.4,1.6c-0.7-0.1-0.9-0.7-1.4-1c0.6-0.6,1.2-1.3,2-0.6c-0.5-0.9,0.5-0.2,0.6-0.4
			c0-0.6-0.9-0.3-0.8-1c0.3-0.1,1,0.2,1-0.2c-2-0.9-0.7-4.8-0.6-6.4c-0.2-0.3-0.6-0.4-1-0.6c-0.2,0.3-0.1,1-0.4,1.2
			c0.1,0.5,0,0.8-0.2,1c0.1,0.6,0,0.7-0.4,0.4c0.1,0.5-0.3,0.7-0.8,0.6c-0.5,0.1-0.6,0.6-1.2,0.6c0.7,0.4,0.5,0.9,0.4,1.8
			c0.5-0.1,0.8,0,1,0.2c-0.8,1.6-2.4-0.7-2.4-1.2c-0.4,0-0.3,0.5-0.8,0.4c0,0.4,0.2,0.4,0.4,0.2c-0.2,0.7,0.5,0.6,0.4,1.2
			c-0.6,0.6-1.1,1.3-2.2,1.4c0-0.3-0.1-0.7,0.2-0.8c0.1,0.5,0.4-0.4,0.6-0.4c-0.3-0.5,0.4-1,0-1c-0.8,0.1,0.1,0.6-0.4,0.8
			c0-0.9-0.7,0-1,0c-1.3,0.7-3.2,0.4-4.8,0.4c-0.3,0.5-1.8-0.1-2.2,0.4c0,0.3,0,0.5,0,0.8c0.1,0,0.1,0,0.2,0
			c0.4,0.5,0.3,1.5,0.4,1.8c0.4,0.1,0.4-0.3,0.6-0.4c-0.1,1-0.4,1.7-1,2.2c0.5-0.1,0.4,0.4,1,0.2c0.2-1,0.7-1.7,1.6-2
			c0.2,1-0.4,2.2-1.8,2.6c0.6,0.4,0.3,1.7,1,2c1.1-0.2,1.9-1.4,2.8-1.2c0.1-0.2,0.2-0.3,0.2-0.6c0.5,0,1.2-0.1,1.2,0.4
			c-0.5-0.1-0.4,0.4-0.8,0.4c-0.1,1-0.5,1.7-0.8,2.4c0.3,0.6,1.4,0.4,2.2,0.4c0-0.6,0.4-0.8,0.4-1.4c0.6-0.2,0.5,0.3,1,0.2
			c0.6-0.1,0.5,0.6,1.2,0.4c-0.3,0.5,0.4,1,0,1c0,0.2,0,0.4,0,0.6c0.6,0.2,0.4-0.4,0.4-0.8c0.3,0,0.6,0,0.8-0.2
			c0.1,0.4,0.5,0.6,0.4,1.2c0.7,0.5,1.3,1.1,2.2,1.4c0.6,0.2,1.1,0.3,1.4,0.8c2.4,1,4,0.4,7,0.4c0.1-0.3,0.4-0.4,0.8-0.4
			c0.2,0.5,1.4,1.3,1.8,0.4c-1.9,0.1-0.8-1.7-3.2-1.2c0.1-0.5-0.4-0.4-0.2-1c0-0.6-0.6-0.6-0.4-1.4c0.2-0.3,0.6-0.4,1.2-0.4
			c0-0.4-0.2-1,0.4-0.8c0-0.2-0.4-0.2-0.6-0.2c0.7-0.5,1.9-1,3.8-0.8c1.6,0-0.3,1.8-0.4,2.8c-0.1,0-0.1,0-0.2,0
			c0.4,1.1,0.9,2.9,2,2.6c0-0.1,0-0.1,0-0.2c0.1-0.6,0.8-0.7,1-1.2c0-0.4,0.2-0.4,0.2-0.8c2.2-0.4,3,0.6,4.2,1.2c0-0.4,0-0.8,0-1.2
			c0.4-1.2,2.7-0.4,4-0.6c-0.6-0.6-0.3-1.6,0.6-1.8c0.4,0.2,0.3,0.9,0.8,1c0.1-0.3-0.2-0.3-0.2-0.6c0-0.2-0.2-0.2-0.2-0.4
			c-0.1-0.3,0.2-0.4,0.4-0.4c0-0.6,0.1-1,0.4-1.2c0.3,0.1,0,1,0.6,0.8c0.3-0.2,0.7-0.2,0.8-0.6c0.3-0.3,0.8-0.5,0.8-1.2
			c-2.5-0.6,0.7-6-4.2-5c0.2-1.2-1.5-1-2.2-1.8c-2.1-0.9-5.3-0.7-5.6-3.4c-1.1-0.4-1-1.9-1-3.4c-1.2-4.5-1.1-10.1-1-15.4
			c-0.1-1.6-0.7-3-0.2-4.2c-0.6-0.6-1.5-0.9-2.4-1.2c-0.5,2.8,1.2,6.3-0.4,8.8c0.7-0.1,0.3,0.9,0.8,1c0-0.3,0.6-1,0.8-0.4
			c-1.2,0.7-2.3,0.6-2.6,2.4c-0.3-0.4-0.5-0.9-1.4-0.8c0.2-0.7,0-0.8,0.4-1.4c0.9-0.2,0.7,0.7,1.4,0.6c-0.4-0.8,0.4-2.1,0.6-3
			c-0.3-0.1-0.3-0.4-0.6-0.4c-0.4,0.4-0.8,0.5-1.4,0.2c-0.1,1.1-0.4,2-1,2.6c-1.4-2.1-0.4-6.1-1-9.2c-0.6,0.2-0.5-0.3-1-0.2
			c-0.2-1.6,0.4-2.3,1.6-2.4c0.5,1,0.3,1.9,0.6,2.8c0.2,0,0.4,0,0.6,0c0-1.2-0.2-1.5,0-2.6c0.8,0.1,1.1-0.2,1.8-0.2
			c0.5,0.1,0.2,1.1,1,1c0.1-1.4,0.8-2.7,0.6-3.6c-1.2,0.5-3.1-1.4-5.2-1.2c0.1-1.5,2.3-0.9,2.8-2c0.3,0.1,0.3,0.6,0.6,0.8
			c0.1-1.3,0.7-2.3,1-3.4c-0.4-0.5-0.7,0.2-1.4,0c-0.5-1.4-1.7-1.1-3-1.4c0.2-1-0.2-3.2-0.2-4.6c1.2-1.1,1.7-2.8,2.2-4.6
			c-0.3-0.3-0.8-0.5-1.6-0.4c0-0.3,0-0.7,0-1c1-0.2,2.2-0.2,2.6-1c3.1,2.1,1.1,8.6,2.2,13.2c-0.8,0.6-0.6,1.8,0,2.4
			c0.5-0.6,0.7-0.1,1.4,0c0.3,1.5-0.7,3.2,0.4,3.8c0.3-1.2,0.3-2.7,0.6-4c0-1.9,0-3.9,0-5.8c-0.1,0-0.1,0-0.2,0
			c0-2.2-0.3-4.1-0.2-6.4c0.1-2.6-0.3-4.6-0.2-7.2c-0.5-0.3-0.1-1.5-0.2-2.2c0-1,0-2,0-3c-0.3-2.4-0.3-6.2,0-8.6
			c-0.1-3.3,0.4-5.8,0.8-8.6c-0.1-1.1,0.2-1.7,0.6-2.2c0-0.1,0-0.1,0-0.2c0-0.7-0.1-1.4,0.4-1.6c0-0.6,0-1.1,0.6-1
			c-0.3-0.5,0.6-1.2,1-1.6c0.1-0.4,0.4-0.6,0.6-1c1.4-1.6,3-2.9,5.2-3.6c0.2,0,0.2-0.1,0.2-0.2c1.6-1.5,3.3-2.9,5.8-3.6
			c1.1-2,2.6-3.7,5-4.4c0.4,0,0.8,0,1.2,0c0.4,0.1,0.1,1,0.2,1.4c0.7,0.4,1,0,1.8,0c0.4-0.7,0.9-1.2,1.8-1.4c0.6,0,1.2,0,1.8,0
			c0,0.3,0,0.7,0,1c-0.4,1,0.6,0.6,0.8,1c0.5,0.1,0.4-0.4,1-0.2c0.5-0.6,1.4-0.8,2.2-1c0.1,0.5,0.7,0.4,0.6,1c0.5,0,0.9,0,1.4,0
			c0-0.1,0-0.1,0-0.2c0.9-0.3,1.7-1,3.4-0.6c0,0.4,0.2,0.4,0.2,0.8c2.3,0,3,0.3,5.2,0c0-0.1,0-0.1,0-0.2c0.2-0.2,0.5-0.3,1-0.2
			c0-0.3,0-0.7,0-1c0-0.3,0-0.5,0-0.8c0-0.1,0-0.1,0-0.2c0.9-0.3,1.7-0.5,2.4,0.2c0.3,0,0.7,0,1,0
			C320.1,178.9,320.2,171.1,316.9,169.6z M227.8,114.5c-1.1,0.2-1.2,0.1-1.9-0.2c0.5-0.6,0.7-0.7,1.2-0.8c1-0.2,1.2-0.1,1.3,0.3
			C228.5,114.3,228.4,114.4,227.8,114.5z M225.2,110c3.3,0.4,5.7-1,8.7-0.9c1.7,0,3.6,0.6,5.4,1.2c7.1,2.4,9.4,8.1,14.2,11.9
			c0.7,0.5,1.1,0.9,1.8,1.4c0.8,0.6,0.2,1.7-1.7,0.5c-1.9-1.1-3.8-2.7-5.4-4.5c-0.8-0.9-2.5-2.9-5-4.9c-2.9-2.3-6.7-4.5-9-4.4
			c-1.8,0-2.9,0.8-4.7,0.8C227.9,111.1,225.9,110.8,225.2,110z M253.2,128.5c-1.3,1.2-1.5,1.1-2.7,1.3c0.2-1.2,0.5-1.5,1-1.9
			c1.2-1,1.6-1.1,2-0.6C254,127.7,253.9,127.8,253.2,128.5z M239.9,117c1.2-1,1.6-1.1,2-0.6c0.5,0.6,0.4,0.7-0.3,1.3
			c-1.3,1.2-1.5,1.1-2.7,1.3C239.1,117.7,239.3,117.4,239.9,117z M236.6,116.3c0.3-1,0.5-1.2,1.1-1.5c1.1-0.7,1.4-0.8,1.7-0.3
			c0.4,0.5,0.3,0.6-0.4,1.1C237.8,116.4,237.6,116.3,236.6,116.3z M241.9,118.8c1.2-1,1.6-1.1,2-0.6c0.5,0.6,0.4,0.7-0.3,1.3
			c-1.3,1.2-1.5,1.1-2.7,1.3C241,119.5,241.3,119.2,241.9,118.8z M243.8,121c1.2-1,1.6-1.1,2-0.6c0.5,0.6,0.4,0.7-0.3,1.3
			c-1.3,1.2-1.5,1.1-2.7,1.3C243,121.7,243.2,121.4,243.8,121z M246,123.5c1.2-1,1.6-1.1,2-0.6c0.5,0.6,0.4,0.7-0.3,1.3
			c-1.3,1.2-1.5,1.1-2.7,1.3C245.2,124.2,245.5,123.9,246,123.5z M235.2,114.8c-1.4,0.1-1.5-0.1-2.3-0.6c0.7-0.7,1-0.7,1.6-0.7
			c1.2,0,1.5,0.1,1.6,0.6C236.1,114.7,236,114.8,235.2,114.8z M232.1,118.4c-1.8,0.3-1.9,0.1-3-0.5c0.8-0.9,1.2-1,1.9-1
			c1.5-0.1,1.9-0.1,2,0.6C233.2,118.2,233.1,118.3,232.1,118.4z M233.8,121c0.5-1.1,0.9-1.3,1.6-1.5c1.5-0.5,1.8-0.6,2.1,0
			c0.3,0.7,0.2,0.8-0.7,1.2C235.2,121.3,235,121.2,233.8,121z M236.1,124.5c0.5-1.1,0.9-1.3,1.6-1.5c1.5-0.5,1.8-0.6,2.1,0
			c0.3,0.7,0.2,0.8-0.7,1.2C237.4,124.9,237.3,124.7,236.1,124.5z M241.2,127.5c-1.6,0.7-1.8,0.6-3,0.3c0.5-1.1,0.9-1.3,1.6-1.5
			c1.5-0.5,1.8-0.6,2.1,0C242.2,127,242.1,127.1,241.2,127.5z M245.4,130.1c-1.5,1-1.7,0.8-2.9,0.8c0.4-1.2,0.7-1.4,1.3-1.8
			c1.3-0.8,1.7-0.9,2.1-0.3C246.3,129.4,246.3,129.5,245.4,130.1z M248.7,125.5c1.2-1,1.6-1.1,2-0.6c0.5,0.6,0.4,0.7-0.3,1.3
			c-1.3,1.2-1.5,1.1-2.7,1.3C247.8,126.3,248.1,126,248.7,125.5z M250.9,134.2c-0.9,0.7-1.1,0.6-1.8,0.6c0.2-0.8,0.4-0.9,0.8-1.2
			c0.8-0.5,1.1-0.6,1.3-0.3C251.5,133.7,251.4,133.8,250.9,134.2z M255.8,130.8c-1.3,1.2-1.5,1.1-2.7,1.3c0.2-1.2,0.5-1.5,1-1.9
			c1.2-1,1.6-1.1,2-0.6C256.6,130,256.5,130.2,255.8,130.8z M260.7,277.5c0-0.5-0.4-0.6,0.2-0.8c0,0.5,0,0.9,0,1.4
			c-0.2,0-0.4,0-0.6,0C260.2,277.7,260.6,277.7,260.7,277.5z M255.3,286.9c0-1.2,0.9-1.6,2-1.8C257.1,286.2,256,286.3,255.3,286.9z
			 M258.1,289.9c0-0.1,0-0.3,0-0.4c-0.8,0.2-1-0.3-1-1c0.5-0.4,1.1,0,1.6,0.2C258.5,289.1,258.3,289.5,258.1,289.9z M259.3,283.7
			c-0.3,0.4-1,0.5-1.8,0.4c0.1-1.3-0.3-1.7,0-2.4c0.7,0.1,1.2,0.5,1.8,0.2C259.3,282.9,259.1,282.9,259.3,283.7z M266.1,291.1
			c0.2,0,0.5,0.3,0.2,0.4c-0.1-0.3-0.3-0.4-0.6-0.4c0.1-0.4-0.2-1.2,0.2-1.2C266.5,290.8,267.2,290.4,266.1,291.1z M284.3,283.5
			c-1,0.2-0.1,0.7,0,1.4c-0.3,0-0.3,0.3-0.6,0.2c-0.4-0.9,0-1-0.8-0.4C282.6,283.7,283.6,282.9,284.3,283.5z M282.9,282.5
			c-0.3,0.3-1,0.3-1-0.2C282.4,282.3,282.8,281.9,282.9,282.5z M280.5,284.5c0.4,0.1,1.2-0.3,1,0.4c0.6-0.2,0.2,0.6,0.8,0.4
			c0,0.2,0,0.4,0,0.6c0.7,0.3,1.4,1.5,1,2.2c-0.2,0-0.6,0-0.6-0.2c-0.6-0.1-1-0.3-1.4-0.6c0.3-1-0.5-0.8-0.4-1.6c0-0.1,0-0.3,0-0.4
			C280.3,285.5,280.5,284.9,280.5,284.5z M279.5,279.5c0,1,1.4,2.1,0.2,2.6C278.8,281.7,278.3,280,279.5,279.5z M277.9,282.3
			c0,0.5,0,1.1,0,1.6c-1-0.2-2-1.7-1.4-2.2C276.8,282.1,277.7,281.9,277.9,282.3z M277.3,279.5c-0.2,0.8,0.3,1,0.2,1.8
			c-1-0.1-1.3-0.8-1.8-1.4C276.1,279.5,276.6,279.2,277.3,279.5z M278.1,290.1c-0.3,0-0.5,0-0.8,0c-0.3-0.9-1.2-1.2-1.6-2.2
			c-0.4-0.8,0-2-0.8-2.6C276.7,286,278.5,287.8,278.1,290.1z M266.5,280.3c0-0.3,0-0.7,0-1c0.5,0,0.8,0.3,0.8,0.8
			C267,280.2,266.9,280.4,266.5,280.3z M268.9,278.3c0.4-0.5-0.6-0.7-1.2-0.4c0-0.3,0-0.7,0-1c0.7,0.1,1-0.4,1.6-0.8
			c0.7-0.1,0.3,0.7,0.8,0.8c0.7-0.3-0.3-1.8,0.8-2c0.3,0.8,0.8,1.2,1.3,1c-0.1,0.1,0.1,0.3,0.1,0.6c-0.2,0-0.6,0-0.6,0.2
			c0.6,0,0.2,0.6,0.4,1.4c-0.4,0.2-0.5,0.8-1,1C270.4,278.7,269.6,278.2,268.9,278.3z M270.5,282.3c-0.1,0.5-0.4,0.9-1.2,0.8
			C269.4,282.6,269.7,282.2,270.5,282.3z M267.5,288.5c-0.3-1,1-1.6,1.6-1C268.6,287.9,268.3,288.5,267.5,288.5z M269.3,287.3
			c0.5,0,1,0,1.2-0.2c-0.2,0.6,0.3,0.5,0.4,0.8C270.2,287.9,269.6,287.7,269.3,287.3z M269.7,285.5c0.2,0,0.5-0.1,0.4-0.4
			c0.3,0,0.7-0.1,0.8,0.2C270.6,285.4,269.8,286.5,269.7,285.5z M269.7,284.7c0.2,0,0.2-0.3,0.2-0.6c0.9,0.3,2.1-0.5,2.2,0.2
			C271.4,284.4,270,284.9,269.7,284.7z M272.1,281.7c-0.4-0.7-1.4-1-0.6-1.8c0.7,0.1,1,0.7,1.2,1.4
			C272.4,281.4,272.4,281.7,272.1,281.7z M269.1,269.9c0.7-1.2-0.9-3.7-0.2-5.6c0.8,0.1,1.1-0.2,1.8-0.2c0.4,0.3,0.3,1.1,1,1.2
			c0.3-1-0.2-2.5,0.8-3.2c0.2,1.3,0.9,3.7,0,4.8c0-0.9-1.2-0.6-1.4,0c0.5,1.7-0.4,2.6,0.8,3.6c-0.7,1.1-0.1,3.4-1,4.2
			c0.3-1.3-0.5-2.5-1-4c-0.3,0.1-0.2,0.4-0.4,0.6c1.6,1.9-0.9,5.6-2.4,3.2c1-2-0.7-4.7,1.4-5.4C268.9,269.2,268.5,270,269.1,269.9z
			 M275.5,158.4c-0.2,0.9-0.1,1.2,0,2.2c-0.8-0.1-1.5,0-1.4,0.8c-0.5,0.1-0.8,0-1-0.2c0.2-1.1,1.3-2.2,1-3.2
			C274.8,157.9,275.2,158.2,275.5,158.4z M273.1,166.6c-0.5,3.8-4.2-0.6-0.4-0.6C272.7,166.4,272.8,166.5,273.1,166.6z M259.7,157.4
			c-1.2,0.3-1.1-0.9-0.9-1.7l0.5,0C259.3,156.4,259.8,156.6,259.7,157.4z M267.4,153.3c-0.1,0.3-0.4,0.2-0.4,0c0-0.2,0-0.2-0.2-0.2
			c-0.3,0-0.3-0.3-0.1-0.3C267.2,152.7,267.5,152.6,267.4,153.3z M266.5,149.4c0,0.1-0.1,0.5-0.4,0.3c-0.1,0-0.2-0.4-0.1-0.6
			C266.1,148.8,266.7,149,266.5,149.4z M265.4,152c-0.2,0.1-1.6-0.2-1.2-0.6c0.2-0.2,0.5-0.4,0.8-0.5c0.2-0.1,0.5-0.3,0.8-0.3
			C266.4,150.6,266.4,151.7,265.4,152z M259.9,154.5c-0.1,0.1-0.3,0-0.3,0.2c0,0.2-0.3,0.7-0.6,0.6c-0.3-0.2-0.1-0.3-0.1-0.5
			c0-0.1-0.1-0.2-0.1-0.3c0-0.4,0.2-0.7,0.6-0.6C259.7,153.8,260.4,154.2,259.9,154.5z M272.9,146.8c0.6,0.5,0.2,1-0.2,1
			c-1.2,0-1.3-1.5-2.1-1.5c-0.1,0-0.6,0-0.6,0.3c0,0.3,0.1,1.7-0.4,1.7c-0.8,0.1-0.4-0.6-0.5-1.1c-0.5-2-2.3,0.4-2.2-2.5
			c0-0.5,0.4-1.7,1-2.6c0.3-0.5,0.7-1.1,1.1-0.8c0.5,0.5-0.4,1.5-0.6,1.9c-0.5,0.9,0.2,2,0.8,1.5c0.4-0.3,0.5-1.9,1.8-1
			c0.2,0.1,0.3,0.7,0.3,0.9C271.4,145.3,271.5,145.7,272.9,146.8z M274.1,131.8c-0.6-0.5-0.7-0.7-0.8-1.2c-0.1-1-0.1-1.2,0.3-1.3
			c0.5-0.1,0.5,0,0.6,0.6C274.6,131,274.4,131.1,274.1,131.8z M276.2,138.2c-0.6-0.4-0.7-0.6-0.8-1c-0.2-0.9-0.3-1.1,0.1-1.3
			c0.4-0.1,0.5-0.1,0.7,0.5C276.5,137.4,276.4,137.5,276.2,138.2z M277.3,131.1c-0.9-0.6-1-0.9-1.2-1.5c-0.3-1.3-0.3-1.7,0.2-1.8
			c0.6-0.2,0.7-0.1,1,0.7C277.8,130,277.6,130.1,277.3,131.1z M281,136.1c-1-0.4-1.2-0.7-1.4-1.3c-0.5-1.3-0.6-1.6-0.1-1.9
			c0.6-0.3,0.7-0.2,1.1,0.6C281.3,134.9,281.1,135.1,281,136.1z M281.2,127.8c-1-0.5-1.1-0.8-1.3-1.4c-0.5-1.3-0.5-1.6,0-1.9
			c0.6-0.3,0.7-0.2,1,0.6C281.6,126.7,281.4,126.8,281.2,127.8z M282.3,122.6c0.4-0.6,0.6-0.6,1.4,0c1.5,1,1.4,1.2,1.8,2.4
			c-1.2,0.1-1.6-0.1-2.1-0.6C282.1,123.5,281.9,123.2,282.3,122.6z M291.8,115.5c-0.9,0.7-1.2,0.7-1.8,0.6c-1.4-0.1-1.7-0.2-1.7-0.8
			c0-0.7,0.1-0.7,1-0.7C290.9,114.7,291,114.9,291.8,115.5z M291.9,111.9c1.1-0.2,1.2-0.1,1.9,0.3c-0.5,0.6-0.8,0.7-1.2,0.7
			c-1,0.1-1.2,0.1-1.3-0.4C291.2,112.1,291.3,112,291.9,111.9z M289.7,118.5c-1,0.6-1.4,0.6-2.2,0.4c-1.5-0.3-1.9-0.5-1.8-1.1
			c0.1-0.7,0.3-0.8,1.2-0.6C288.8,117.4,288.8,117.6,289.7,118.5z M287.4,122.1c-1.2,0.3-1.6,0.1-2.2-0.3c-1.3-0.8-1.6-1.1-1.3-1.7
			c0.3-0.7,0.5-0.6,1.4-0.2C286.9,120.8,286.8,121,287.4,122.1z M283.9,132.4c-1-1.2-1.1-1.6-0.6-2c0.6-0.5,0.7-0.4,1.3,0.3
			c1.2,1.3,1.1,1.5,1.2,2.7C284.7,133.2,284.4,133,283.9,132.4z M287.6,129.2c-1.3-0.8-1.6-1.1-1.3-1.7c0.4-0.6,0.5-0.6,1.4-0.2
			c1.6,0.9,1.5,1.1,2.1,2.2C288.5,129.8,288.2,129.6,287.6,129.2z M289.9,125.9c-1.3-0.8-1.6-1.1-1.3-1.7c0.4-0.6,0.5-0.6,1.4-0.2
			c1.6,0.9,1.5,1.1,2.1,2.2C290.9,126.5,290.5,126.3,289.9,125.9z M292.5,122.1c-1.2-0.6-1.5-0.8-1.3-1.4c0.3-0.6,0.4-0.6,1.2-0.3
			c1.5,0.6,1.4,0.8,2,1.7C293.4,122.5,293.1,122.4,292.5,122.1z M294.8,118.7c-1.2-0.6-1.5-0.8-1.3-1.4c0.3-0.6,0.4-0.6,1.2-0.3
			c1.5,0.6,1.4,0.8,2,1.7C295.7,119.1,295.3,119,294.8,118.7z M296.9,115.8c-1.3-0.4-1.6-0.5-1.5-1.1c0.1-0.6,0.3-0.7,1.1-0.5
			c1.5,0.3,1.6,0.5,2.3,1.3C297.9,116,297.6,116,296.9,115.8z M300,112.9c-1-0.3-1.2-0.4-1.1-0.8c0.1-0.5,0.2-0.5,0.8-0.4
			c1.1,0.2,1.2,0.4,1.7,1C300.7,113,300.4,113,300,112.9z M273.2,123.1c1.7-0.4,7.2-4.6,8.7-6.1c3.4-3.3,1.8-5.4,7.1-8.3
			c2.1-1.2,4.6-2.7,7.6-2.5c3.3,0.2,6.6,1.2,10.4,0.3c-1,1.3-4.7,1.6-7.4,1.6c-1.7,0-2.3-0.3-4.1-0.3c-2.4,0-3.9,1.3-6.3,2.7
			c-2.8,1.6-3.6,5-6.2,7.9c-1.9,2.1-5,5.7-9,5.8C273,124.1,271.2,123.6,273.2,123.1z M271.1,113.6c0.8,0.2,1.7,1.2,1.5,2.8
			c-0.7-0.5-1.8-1.4-2.7-1.8C270.3,114.3,270.8,113.8,271.1,113.6z M258.6,146.9c0-2.3,0.2-3.5,0.8-4c1.7-1.4,1.9-1.8,0.8-2.4
			c-1.2-0.6-0.7-1.4-0.8-1.7c-0.2-0.5-0.8-0.6-1.4-0.6c-0.9,0-0.8-0.7-0.4-2c0.6-1.7,1.6-3.9,1.7-4c0.9-1.2,0.2-1.4-0.3-1.8
			c-1-1-2.9-2.4-1.4-2.6c1.9-0.3,2.3-1.7,2.7-2.9c0.3-0.9-0.4-1.2-1.4,0.3c-0.6,0.9-1.4,0.1-0.8-0.6c0.5-0.6,0.6-1,0.5-1.5
			c-0.1-1.7,0.3-2,0.9-1.6c0.7,0.5,1.1,0.1,1.2-0.7c0.2-1.7-1.3-1.3-1.1-2.7c0.2-1.3,1.1-1.1,1.5-1.7c0.4-0.6-0.2-1.5,0.6-1.6
			c3.2-0.5,1-2.1,2-3.4c1-1.3,1.9-2.2,3.4-2.2c1,0,2,0.5,2.9,1.9c0.5,0.8-0.5,1.2-0.5,2.2c0,1,0,1.6-1,2.2c-1.5,0.9,0.1,3.4,0.1,4.5
			c0,2-0.7,1.3-0.3,2.2c0.3,0.6,1,1.4,1.5,2c1.2,1.4,0.1,1.6,0.2,2.8c0,0.9,0.5,1.6,0.3,1.8c-1.1,1.2-2.2-0.7-2.9,0.6
			c-0.5,1,0.3,2,0.3,3c0,2.9,0.6,3.2,1.1,2.3c0.2-0.4-0.4-1.7,0.4-1.6c0.6,0.1,0.9,0.7,1.6,0.8c0.4,0,0.7,0,1,0.4
			c0.3,0.4,0.7,2.2-0.1,2.1c-0.5-0.1-1.1-1.3-1.8,0.5c-0.9,2.4-2.1,2.4-3,3.6c-1.5,2-2.1,0.6-2.6,1.3c-1.3,2,0.4,1.7-0.3,3.7
			c-0.9,2.7-1.8-1.9-2.4,2.8c-0.4,2.9-1.5,2.8-1.8,2.8C255.8,151.7,258.7,150.2,258.6,146.9z M224.1,179.4c0.7-0.3,1.9-0.2,2.2,0.4
			C225.6,180.2,224.1,180.9,224.1,179.4z M244.9,181.8c0,0.1,0,0.1,0,0.2c-0.3,0.7-2.6,0.6-2.6-0.2c0.2-0.5,0.9-0.6,1.2-1
			c0.1,0,0.3,0,0.4,0c0.5,0,1.1-0.1,1.4,0.2C245.4,181.5,245.3,181.8,244.9,181.8z M247.9,172.8c0.8,0,1.2,0.4,1.6,0.8
			C249.2,175.1,247.1,174,247.9,172.8z M253.1,185.8c-1.3,0.2-1.7-0.6-2-1.4c0-0.1,0-0.3,0-0.4c-0.6-0.9-1.2-1.9-1.4-3.2
			c0.1-0.2,1.4-0.9,1.4,0c0.2,0,0.4,0,0.6,0c0.1,0.7,0.7,1.1,0.8,1.8C253.3,183,253.1,184.6,253.1,185.8z M252.7,172.2
			c0.4-0.9,1.3-0.6,0.8-2c0.2,0,0.4,0,0.4-0.2c0.6-0.2,0.2,0.6,0.8,0.4C254.5,171.5,254.1,172.3,252.7,172.2z M257.5,193.6
			c-0.7,0.1-0.8-0.4-1.2-0.6c-0.4-0.5-1.3-0.5-1.6-1.2c-0.6,0-1-0.4-1-1c1.1-0.5,1.8,0,2.8-0.6c0.1,0.4,0.5,0.4,0.6,0.8
			c0.1,0.3,0.6,0.2,0.4,0.8C258,192.4,257.8,193,257.5,193.6z M257.3,180.6c0.3,0.6,0.5,1.3-0.2,1.6c-0.2-0.6-1.2-0.5-1-1.6
			C256.5,180.2,256.6,180.8,257.3,180.6z M257.1,168.2c0.5,0,1.1,0,1.6,0c0.2,0.6,0.4,1.9,0,2.4C256.8,171.7,256,169.2,257.1,168.2z
			 M260.9,193c-0.8,0.4-1.2-0.6-1.6-1.2c-0.3-0.6-1-0.8-1-1.6c0.2-0.9-0.7-0.8-0.4-1.8c-1-0.8-1.4-3.8-0.8-5c0.6,0,1.1,0,1,0.6
			c0.1,0,0.2,0,0.2,0.2c0.1,0,0.1,0,0.2,0c0.1,1,0,0.9,0,2c0.6,0.7,1,1.7,1.2,2.8c0.2,0.7,0.5,1.3,0.6,2.2
			C260.6,191.7,261,192.1,260.9,193z M263.5,185.8c-0.8,0.2-1.2,0.2-1.2-0.8c0.2-0.2,0.5-0.3,1-0.2
			C263.1,185.4,263.6,185.3,263.5,185.8z M267.7,170c-1.9,0.6-2.5-1.2-1.6-2.2c1.1-0.2,1.4,0.3,2.2,0.4
			C268.5,169.2,267.7,169.2,267.7,170z M267.5,162.6c0.3,0.3,0.6,0.6,0.8,1c-1.3,0.4-1.6,0.8-3.2,0.4c-0.3-0.9,0.2-2.3,0.4-3.4
			c-0.4,0-0.4-0.2-0.8-0.2c-1.2,2.1-3.8,2.7-4.8,5c-1,0.2-1.4-0.2-2-0.4c-0.5,0.3-0.6,1-1.2,1.2c-0.4-0.4-1.6,0-2-0.4
			c0.2-0.8-0.3-0.9-0.6-1.2c-1.4,0.9-2.7,0-4.4,0c-0.8,1-0.9,2.8-1.2,4.4c-0.7,0.3-1.2,0.8-2.4,0.6c-0.9-1.9,0.6-5.4-2.6-3.6
			c-0.4,1.4,1,0.9,1,1.8c-1.2,0.2-1.6,1.1-3.2,0.8c-0.4,0.9-1.5,2.3-0.6,3.4c-1,1.4-2.3,1.2-4.8,1.2c-2.4,1.8-3.5,4.9-6.4,6.2
			c-1.7-0.6-3.2-1.3-3.8-3c1.8-0.4,1.5,1.3,3,1.2c-0.3-1.2-0.1-1.9-0.6-2.6c-0.9,0.6-1.3,1-2.6,0.4c-0.8,0.5-1.4,1.3-1.8,2.2
			c-2.1-0.2-3.3,0.4-5,0.6c0-0.6,0.5-0.8,0.8-1.2c-0.1-0.6-1-1.1-0.6-1.6c1.4,0.3,1.9-1,3.4-1.2c0.1-0.8-0.3-0.8,0-1.4
			c2.1-0.1,6.8,1.6,6.2-2.4c0.5,0.1,0.7-0.3,0.6-0.8c3.1,0.5,0.5-4.9,4.2-3.4c-0.1,1-1.1,1-1.2,2c0.1,1.2,2.2,1.5,2.8,0.6
			c-0.9-0.1-1.2-1-0.8-1.8c0.7-0.1,1.9,0.3,2.2-0.2c0.5-0.8-0.2-0.8-0.4-1.4c-0.1-0.6,0.5-0.4,0.4-1c0.8,0,1.3,0.3,2.2,0.2
			c0.1-0.7-0.2-1.8,0.2-2.2c1.3,0.1,3.4-0.3,4.8,0c-0.1,0.7,0.2,1,0.8,1c0.4-1.4,0.4-2.6,0.6-4.2c0.6-0.1,0.5,0.6,1.2,0.4
			c0.1,1.6,0.4,1.4,0,2.8c0.9,0.2,1.2-0.2,1.4-0.8c-0.9-0.6-0.1-2.3,0.8-2.4c0.6,1,1.4,1.8,2.2,2.6c1.4,0.1,1.8-0.8,3.2-0.8
			c0.8,0.7,1.8,1.2,3.2,1.4c1.3-1.5,3.6-1.9,5.6-2.6c0-0.5,0-0.9,0-1.4c0.7-0.3,1.4-0.1,2,0.2c0.7-1.2,2.4-0.7,3.6-1.2
			c0.6-0.2,0.7-0.9,1.4-1c1.1-0.1,1.9,0.6,3.2,0.6c0.5,0.9-0.1,1.7-0.8,2c-0.2-0.5-1.3-0.1-1.8-0.2
			C269.5,160.3,267.9,160.9,267.5,162.6z M266.1,208c0,0.5,0,1-0.4,1c-0.1-0.4-0.4-0.5-0.4-1C265.6,208,265.8,208,266.1,208z
			 M263.9,207c-0.2-0.9-0.2-3.2,0.8-3.6c0.1,0.7,0.2,1.5,0.4,2.2C264.3,205.7,264.5,206.7,263.9,207z M265.7,233.8
			c-0.1-0.4-0.5-1.1,0.2-1.2C266.2,232.8,266.2,233.8,265.7,233.8z M265.1,220.6c0-0.5,0-1,0.4-1c0,0.2,0.3,0.2,0.6,0.2
			C266.2,220.5,265.8,220.7,265.1,220.6z M269.7,221.8c-0.1,1.2,0.2,2.5-0.4,2.8c-0.4-1.2-0.9-1.3-2-1.6c0.5-1.9,1.4-2.7,0.6-5
			c-2.5,0.3-2.2-4.6-1-5.6c1.4,0.8,0.2,3.1,1.8,3.6c0.1-0.9-0.4-2.5,0.6-2.6c0.7,1.8,1.3,4.5,1.8,7
			C270.8,221,270.1,221.2,269.7,221.8z M272.3,198.4c-0.3,0.4-0.7,0.7-0.8,1.4c-0.5,0-0.9,0-1.4,0c-0.8-0.6-0.9-2.7-0.4-3.4
			c1.2-0.3,1.7,0.2,3.2-0.2c0,0.1,0,0.3,0,0.4C273,197.5,272.7,198,272.3,198.4z M274.7,189.4c-1.4,0.3-1,2.9-2.8,2.2
			c-0.3-1.4,0.4-1.9,0.4-3c-0.7-1.2-0.4-3.3,0-4.6c-0.2-0.8,0.3-0.9,0.4-1.4c1.5,0.4,3.2,1.5,3.4,2.8
			C276.3,186.8,274.8,187.9,274.7,189.4z M286.3,156.4c0.6-0.3,0.6-1.1,1.8-0.8c-0.1,1.6-3.1,3.1-4.4,1.6
			C283.5,156.4,285.1,156.1,286.3,156.4z M287.1,158.6c-0.1,0.5,0.9-0.1,0.8,0.4c-0.3,0.2-0.7,0.2-1,0.4
			C286.9,159.1,286.8,158.7,287.1,158.6z M288.1,167c0,0.3,0,0.5,0,0.8c-0.8,0.4-1.2-0.1-1.4-0.8C287,166.7,287.8,166.7,288.1,167z
			 M284.1,167.8c-0.4,0-0.8,0-1.2,0c0-0.5,0-0.9,0-1.4C284,166.2,284.2,166.8,284.1,167.8z M283.1,157.8c0.1,0.6-0.2,0.9-0.8,0.8
			C282.2,157.9,282.6,157.9,283.1,157.8z M280.5,154.2c0.2,0.6,0.2,1.2,0,1.8c-1.6-0.2-2.2,0.6-3.6,0.6
			C277.4,155.1,278.4,154.1,280.5,154.2z M280.5,164.8c-0.3,0.3-0.9,0.2-1.4,0.2c0.9-0.9-0.5-1-1.2-1.4c0-0.4,0-0.8,0-1.2
			c1.1,0,1.7-0.4,2.6-0.6C280.8,162.4,280.3,163.7,280.5,164.8z M277.5,169c0.4,0,1.2,0.4,2,0.6c0,0.3,0,0.5,0,0.8
			c-1.1,0.1-1.5,0.9-2.2,1.4c0.3-0.5-0.1-2-0.6-1C276.8,170,277.1,169.5,277.5,169z M278.3,184.8c-0.2,0.2-0.4,0.4-0.6,0.6
			c-0.3,0-0.5,0-0.8,0c0-0.1,0-0.1,0-0.2c-0.1,0-0.1,0-0.2,0c0-0.3-0.3-0.3-0.4-0.6c0.6-0.2,0.8-0.6,1.6-0.6
			C277.9,184.4,278.4,184.3,278.3,184.8z M278.7,191.6c-0.7-0.7,0.5-1.5,1-1C279.8,191.3,279.2,191.4,278.7,191.6z M285.5,184.6
			c-1.2,1.7-3.3,2.6-5.4,3.4c-0.2,0.8-2.1,0.2-1.4-0.4c0-0.3,0-0.7,0-1c0.2,0,0.4,0,0.6,0c0.1-1.1,0.8-3.3,2-4
			c0.3,0,0.2,0.5,0.6,0.4c1.1,0.3,1.2,1.4,2.6,1.4c-0.2-0.7,0.6-0.3,1-0.4C285.5,184.2,285.5,184.4,285.5,184.6z M287.7,185.4
			c-0.2,0.6-0.6,0.8-1.2,0.6c-0.5-0.6-0.1-1.6,0.6-1.6c0-0.9,1-0.9,1.6-0.6C288.6,184.6,288.5,185.4,287.7,185.4z M290.5,175
			c0-0.3-0.6-0.1-0.6-0.4c0.3,0,0.2-0.4,0.4-0.4C290.5,174.5,291.3,174.8,290.5,175z M289.5,164.4c-0.3-1.1,0.4-1.2,0.4-2
			c0.3,0,0.7,0,1,0C290.8,163.5,290.5,164.3,289.5,164.4z M291.7,166.8c1.1,0.1,2.8-0.4,2.8,0.8C294,169.1,291.7,168.5,291.7,166.8z
			 M292.1,157c0.8-0.9,3.4-0.7,4.2,0c0.1,0.8-0.1,1.3-0.4,1.6C294.1,158.6,293,158.3,292.1,157z M297.3,171.8c-0.3,0-0.5,0-0.8,0
			c-0.3-0.5-0.3-1.2-0.6-1.6c0.4-0.2,0.5-0.9,1.4-0.6C297.3,170.5,296.9,171.1,297.3,171.8z M298.3,167.8c-0.4,0-0.8,0-1.2,0
			c0.1-1.4-1.5-1.2-1.4-2.6c0.9-0.2,2.1,0.9,3.2,1.2C298.8,167,298.5,167.3,298.3,167.8z M299.9,164.6c0-0.3,0-0.7,0-1
			C300.5,163.3,300.5,164.9,299.9,164.6z M301.3,161.8c-2.5-0.9-4.1-0.5-6.4-0.8c-0.1-1.3,1.4-1,2.6-1c0.6-0.4,0.8-0.8,1.4-0.8
			c0.2,1.4,2.5,0.7,2.6,2.2C301.3,161.5,301.3,161.6,301.3,161.8z M301.7,165.4c1.1-0.8-0.5-3.4,1.4-3.6
			C304,163.2,303.4,165.5,301.7,165.4z M303.7,160c-0.3,0-0.7,0-1,0C302.4,159,303.8,159.4,303.7,160z M303.9,169c0-0.3,0-0.5,0-0.8
			c0.2,0,0.4,0,0.6,0C304.5,168.7,304.4,169.1,303.9,169z M307.3,167.2c-0.5-0.6,0-1.5,0.6-1.6c0.4,0,0.6,0.2,0.6,0.6
			C308.1,166.6,307.9,167.1,307.3,167.2z M308.7,175.4c0.1-0.5,0.3-0.8,0.2-1.4c1-0.4,2.3,0,2.8,0.8
			C311.1,175.5,309.9,175.5,308.7,175.4z M312.1,180c-0.4,0-0.8,0-1.2,0c-0.1,0-0.1,0-0.2,0c-0.4-0.3-0.4-0.9-1-1
			c0.1-0.6,0.6-0.9,0.6-1.6c0.7,0,1.6-0.1,1.8,0.4C312.1,178.5,312.1,179.3,312.1,180z M311.3,170.6c0.5-0.1,0.9-0.3,1.6-0.2
			C313.3,172.2,311.1,172.1,311.3,170.6z"/>
		<path id="XMLID_84_" class="st0" d="M238.1,171.8c-0.5-1.9,0.2-2.8,1.2-3.6C237.6,166.1,234.5,171.9,238.1,171.8z"/>
	</g>
	<path id="XMLID_83_" class="st3" d="M277.3,290.1c0.3,0,0.5,0,0.8,0c0.4-2.3-1.3-4.1-3.2-4.8c0.8,0.6,0.4,1.8,0.8,2.6
		C276.1,288.9,277,289.2,277.3,290.1z"/>
	<path id="XMLID_82_" class="st3" d="M258.1,289.9c0.2-0.4,0.4-0.8,0.6-1.2c-0.5-0.2-1.1-0.6-1.6-0.2c0,0.7,0.2,1.2,1,1
		C258.1,289.7,258.1,289.8,258.1,289.9z"/>
	<path id="XMLID_81_" class="st3" d="M284.5,288.5c0.4-0.1,0.8-0.1,1-0.4c-0.6,0.2-0.3-0.7-0.6-0.8
		C284.5,287.5,284.4,287.9,284.5,288.5z"/>
	<path id="XMLID_80_" class="st3" d="M270.9,287.9c-0.1-0.3-0.6-0.2-0.4-0.8c-0.2,0.2-0.7,0.2-1.2,0.2
		C269.6,287.7,270.2,287.9,270.9,287.9z"/>
	<path id="XMLID_79_" class="st3" d="M252.5,287.5c0.4,0,0.3-0.5,0.8-0.4c0-0.5-0.7-0.4-1.2-0.4c0,0.3-0.1,0.4-0.2,0.6
		C252.2,287.3,252.5,287.3,252.5,287.5z"/>
	<path id="XMLID_78_" class="st3" d="M255.3,286.9c0.7-0.6,1.8-0.7,2-1.8C256.2,285.3,255.3,285.7,255.3,286.9z"/>
	<path id="XMLID_77_" class="st3" d="M280.9,285.3c0-0.2,0-0.4,0-0.6c0.3,0,0.4,0.1,0.6,0.2c0.2-0.7-0.6-0.3-1-0.4
		C280.5,284.9,280.3,285.5,280.9,285.3z"/>
	<path id="XMLID_76_" class="st3" d="M283.7,285.1c0.3,0.1,0.3-0.2,0.6-0.2c-0.1-0.7-1-1.2,0-1.4c-0.7-0.6-1.6,0.2-1.4,1.2
		C283.7,284.1,283.3,284.2,283.7,285.1z"/>
	<path id="XMLID_75_" class="st3" d="M269.7,284.7c0.4,0.2,1.7-0.3,2.4-0.4c-0.1-0.7-1.3,0.1-2.2-0.2
		C269.9,284.4,269.9,284.7,269.7,284.7z"/>
	<path id="XMLID_74_" class="st3" d="M257.5,284.1c0.8,0.1,1.5,0,1.8-0.4c-0.2-0.8,0-0.8,0-1.8c-0.6,0.3-1.1-0.1-1.8-0.2
		C257.2,282.4,257.6,282.8,257.5,284.1z"/>
	<path id="XMLID_73_" class="st3" d="M277.9,283.9c0-0.5,0-1.1,0-1.6c-0.2-0.5-1.1-0.2-1.4-0.6C275.9,282.3,276.9,283.8,277.9,283.9
		z"/>
	<path id="XMLID_72_" class="st3" d="M282.9,282.5c-0.1-0.6-0.5-0.3-1-0.2C281.9,282.8,282.6,282.8,282.9,282.5z"/>
	<path id="XMLID_71_" class="st3" d="M272.1,281.7c0.3-0.1,0.3-0.4,0.6-0.4c-0.2-0.7-0.5-1.3-1.2-1.4
		C270.7,280.8,271.7,281,272.1,281.7z"/>
	<path id="XMLID_70_" class="st3" d="M277.5,281.3c0.1-0.8-0.4-1-0.2-1.8c-0.6-0.3-1.2,0-1.6,0.4
		C276.1,280.5,276.5,281.2,277.5,281.3z"/>
	<path id="XMLID_69_" class="st3" d="M257.9,277.9c-0.4,0.1-0.6,0.4-1,0.6c0,0.1,0,0.1,0,0.2c0,0.5,1.6,2.8,2.4,1.2
		c-0.2-0.2-0.5-0.3-1-0.2C258.4,278.8,258.6,278.4,257.9,277.9z"/>
	<path id="XMLID_68_" class="st3" d="M266.5,280.3c0.4,0.1,0.5-0.1,0.8-0.2c0-0.5-0.3-0.8-0.8-0.8
		C266.5,279.7,266.5,280,266.5,280.3z"/>
	<path id="XMLID_67_" class="st3" d="M260.3,278.1c0.2,0,0.4,0,0.6,0c0-0.5,0-0.9,0-1.4c-0.6,0.2-0.2,0.3-0.2,0.8
		C260.6,277.7,260.2,277.7,260.3,278.1z"/>
	<path id="XMLID_66_" class="st3" d="M269.5,271.3c0.2-0.2,0.1-0.5,0.4-0.6c0.5,1.5,1.3,2.7,1,4c0.9-0.8,0.3-3.1,1-4.2
		c-1.2-1-0.3-1.9-0.8-3.6c0.2-0.6,1.4-0.9,1.4,0c0.9-1.1,0.2-3.5,0-4.8c-1,0.7-0.5,2.2-0.8,3.2c-0.7-0.1-0.6-0.9-1-1.2
		c-0.7,0-1,0.3-1.8,0.2c-0.7,1.9,0.9,4.4,0.2,5.6c-0.6,0.1-0.2-0.7-0.6-0.8c-2.1,0.7-0.4,3.4-1.4,5.4
		C268.6,276.9,271.1,273.2,269.5,271.3z"/>
	<path id="XMLID_65_" class="st3" d="M273.1,257.3c0.4-4.7,0.4-8.6,0.6-13.6c-0.3,1.3-0.3,2.8-0.6,4c-1.1-0.5-0.1-2.3-0.4-3.8
		c-0.7-0.1-0.9-0.6-1.4,0c-0.6-0.6-0.8-1.8,0-2.4c-1.1-4.6,0.9-11.1-2.2-13.2c-0.4,0.8-1.6,0.8-2.6,1c0,0.3,0,0.7,0,1
		c0.8-0.1,1.3,0.1,1.6,0.4c-0.5,1.8-1,3.5-2.2,4.6c0,1.4,0.4,3.6,0.2,4.6c1.3,0.3,2.5,0,3,1.4c0.7,0.2,1-0.5,1.4,0
		c-0.3,1.1-0.9,2.1-1,3.4c-0.3-0.2-0.3-0.7-0.6-0.8c-0.5,1.1-2.7,0.5-2.8,2c2.1-0.2,4,1.7,5.2,1.2c0.2,0.9-0.5,2.2-0.6,3.6
		c-0.8,0.1-0.5-0.9-1-1c-0.7,0-1,0.3-1.8,0.2c-0.2,1.1,0,1.4,0,2.6c-0.2,0-0.4,0-0.6,0c-0.3-0.9-0.1-1.8-0.6-2.8
		c-1.2,0.1-1.8,0.8-1.6,2.4c0.5-0.1,0.4,0.4,1,0.2c0.6,3.1-0.4,7.1,1,9.2c0.6-0.6,0.9-1.5,1-2.6c0.6,0.3,1,0.2,1.4-0.2
		c0.3,0,0.3,0.3,0.6,0.4c-0.2,0.9-1,2.2-0.6,3c-0.7,0.1-0.5-0.8-1.4-0.6c-0.4,0.6-0.2,0.7-0.4,1.4c0.9-0.1,1.1,0.4,1.4,0.8
		c0.3-1.8,1.4-1.7,2.6-2.4c-0.2-0.6-0.8,0.1-0.8,0.4c-0.5-0.1-0.1-1.1-0.8-1c1.6-2.5-0.1-6,0.4-8.8c0.9,0.3,1.8,0.6,2.4,1.2
		C272.4,254.3,273,255.7,273.1,257.3z"/>
	<path id="XMLID_64_" class="st3" d="M265.7,233.8c0.5,0,0.5-0.9,0.2-1.2C265.2,232.7,265.6,233.3,265.7,233.8z"/>
	<path id="XMLID_63_" class="st3" d="M269.3,224.6c0.6-0.3,0.3-1.6,0.4-2.8c0.4-0.5,1.1-0.8,1.4-1.4c-0.5-2.5-1.1-5.2-1.8-7
		c-1,0.1-0.5,1.7-0.6,2.6c-1.6-0.5-0.4-2.8-1.8-3.6c-1.2,1-1.5,5.9,1,5.6c0.8,2.3-0.1,3.1-0.6,5
		C268.4,223.3,268.9,223.4,269.3,224.6z"/>
	<path id="XMLID_62_" class="st3" d="M265.1,220.6c0.7,0.1,1.1-0.1,1-0.8c-0.3,0-0.6,0-0.6-0.2C265.1,219.6,265.1,220.1,265.1,220.6
		z"/>
	<path id="XMLID_61_" class="st3" d="M265.7,209c0.4,0,0.4-0.5,0.4-1c-0.3,0-0.5,0-0.8,0C265.3,208.5,265.6,208.6,265.7,209z"/>
	<path id="XMLID_60_" class="st3" d="M263.9,207c0.6-0.3,0.4-1.3,1.2-1.4c-0.2-0.7-0.3-1.5-0.4-2.2C263.7,203.8,263.7,206,263.9,207
		z"/>
	<path id="XMLID_59_" class="st4" d="M226.3,179.8c-0.3-0.6-1.5-0.7-2.2-0.4C224.1,180.9,225.6,180.2,226.3,179.8z"/>
	<path class="st4" d="M240.7,172c-0.9-1.1,0.2-2.5,0.6-3.4c1.6,0.3,2-0.6,3.2-0.8c0-0.9-1.4-0.4-1-1.8c3.2-1.8,1.7,1.7,2.6,3.6
		c1.2,0.2,1.7-0.3,2.4-0.6c0.3-1.6,0.4-3.4,1.2-4.4c1.7,0,3,0.9,4.4,0c0.3,0.3,0.8,0.4,0.6,1.2c0.4,0.4,1.6,0,2,0.4
		c0.6-0.2,0.7-0.9,1.2-1.2c0.6,0.2,1,0.6,2,0.4c1-2.3,3.6-2.9,4.8-5c0.4,0,0.4,0.2,0.8,0.2c-0.2,1.1-0.7,2.5-0.4,3.4
		c1.6,0.4,1.9,0,3.2-0.4c-0.2-0.4-0.5-0.7-0.8-1c0.4-1.7,2-2.3,2.6-3.8c0.5,0.1,1.6-0.3,1.8,0.2c0.7-0.3,1.3-1.1,0.8-2
		c-1.3,0-2.1-0.7-3.2-0.6c-0.7,0.1-0.8,0.8-1.4,1c-1.2,0.5-2.9,0-3.6,1.2c-0.6-0.3-1.3-0.5-2-0.2c0,0.5,0,0.9,0,1.4
		c-2,0.7-4.3,1.1-5.6,2.6c-1.4-0.2-2.4-0.7-3.2-1.4c-1.4,0-1.8,0.9-3.2,0.8c-0.8-0.8-1.6-1.6-2.2-2.6c-0.9,0.1-1.7,1.8-0.8,2.4
		c-0.2,0.6-0.5,1-1.4,0.8c0.4-1.4,0.1-1.2,0-2.8c-0.7,0.2-0.6-0.5-1.2-0.4c-0.2,1.6-0.2,2.8-0.6,4.2c-0.6,0-0.9-0.3-0.8-1
		c-1.4-0.3-3.5,0.1-4.8,0c-0.4,0.4-0.1,1.5-0.2,2.2c-0.9,0.1-1.4-0.2-2.2-0.2c0.2,0.6-0.5,0.4-0.4,1c0.2,0.6,0.9,0.6,0.4,1.4
		c-0.3,0.5-1.5,0.1-2.2,0.2c-0.4,0.8-0.1,1.7,0.8,1.8c-0.6,0.9-2.7,0.6-2.8-0.6c0.1-1,1.1-1,1.2-2c-3.7-1.5-1.1,3.9-4.2,3.4
		c0.1,0.5-0.1,0.9-0.6,0.8c0.6,4-4.1,2.3-6.2,2.4c-0.3,0.6,0.1,0.6,0,1.4c-1.5,0.2-2,1.5-3.4,1.2c-0.4,0.5,0.5,1,0.6,1.6
		c-0.3,0.4-0.8,0.6-0.8,1.2c1.6-0.2,2.9-0.8,5-0.6c0.4-0.9,1-1.7,1.8-2.2c1.3,0.6,1.7,0.2,2.6-0.4c0.5,0.7,0.3,1.4,0.6,2.6
		c-1.5,0.1-1.2-1.6-3-1.2c0.6,1.7,2.1,2.4,3.8,3c2.9-1.3,4-4.4,6.4-6.2C238.4,173.2,239.7,173.4,240.7,172z M229.5,174.2
		c0.4-0.4,1-0.6,1-1.4c2.1,0.4,1.9-2.2,3.4-1.8c-0.4,1-1.2,1.7-0.4,2.8c-0.9,0-2.1-0.6-2.6,0.2c0,0.5,0,0.9,0,1.4
		C230.2,175.3,229.5,175.1,229.5,174.2z M239.3,168.2c-1,0.8-1.7,1.7-1.2,3.6C234.5,171.9,237.6,166.1,239.3,168.2z M240.7,164.6
		c0.5-0.3,0.7-0.9,1.4-1c0.3,0.6,0.4,2.3-0.4,2.4C241.2,165.7,241.1,165.1,240.7,164.6z"/>
	<path id="XMLID_54_" class="st4" d="M308.7,175.4c1.3,0.1,2.5,0.1,3-0.6c-0.5-0.8-1.8-1.2-2.8-0.8
		C309,174.7,308.7,174.9,308.7,175.4z"/>
	<path id="XMLID_53_" class="st4" d="M290.5,175c0.8-0.2,0.1-0.5-0.2-0.8c-0.2,0-0.1,0.4-0.4,0.4C289.9,174.9,290.5,174.7,290.5,175
		z"/>
	<path id="XMLID_52_" class="st4" d="M249.5,173.6c-0.4-0.4-0.8-0.8-1.6-0.8C247.1,174,249.2,175.1,249.5,173.6z"/>
	<path id="XMLID_51_" class="st4" d="M252.7,172.2c1.4,0.1,1.8-0.7,2-1.8c-0.6,0.2-0.2-0.6-0.8-0.4c0,0.2-0.2,0.2-0.4,0.2
		C254,171.6,253.1,171.3,252.7,172.2z"/>
	<path id="XMLID_50_" class="st4" d="M296.5,171.8c0.3,0,0.5,0,0.8,0c-0.4-0.7,0-1.3,0-2.2c-0.9-0.3-1,0.4-1.4,0.6
		C296.2,170.6,296.2,171.3,296.5,171.8z"/>
	<path id="XMLID_49_" class="st4" d="M312.9,170.4c-0.7-0.1-1.1,0.1-1.6,0.2C311.1,172.1,313.3,172.2,312.9,170.4z"/>
	<path id="XMLID_48_" class="st4" d="M258.7,170.6c0.4-0.5,0.2-1.8,0-2.4c-0.5,0-1.1,0-1.6,0C256,169.2,256.8,171.7,258.7,170.6z"/>
	<path id="XMLID_47_" class="st4" d="M267.7,170c0-0.8,0.8-0.8,0.6-1.8c-0.8-0.1-1.1-0.6-2.2-0.4C265.2,168.8,265.8,170.6,267.7,170
		z"/>
	<path id="XMLID_46_" class="st4" d="M303.9,169c0.5,0.1,0.7-0.3,0.6-0.8c-0.2,0-0.4,0-0.6,0C303.9,168.5,303.9,168.7,303.9,169z"/>
	<path id="XMLID_45_" class="st4" d="M294.5,167.6c0-1.2-1.7-0.7-2.8-0.8C291.7,168.5,294,169.1,294.5,167.6z"/>
	<path id="XMLID_44_" class="st4" d="M273.1,166.6c-0.2-0.1-0.4-0.3-0.4-0.6C268.9,166.1,272.6,170.4,273.1,166.6z"/>
	<path id="XMLID_43_" class="st4" d="M288.1,167.8c0-0.3,0-0.5,0-0.8c-0.3-0.3-1.1-0.3-1.4,0C286.8,167.7,287.3,168.2,288.1,167.8z"
		/>
	<path id="XMLID_42_" class="st4" d="M282.9,167.8c0.4,0,0.8,0,1.2,0c0.1-1-0.1-1.6-1.2-1.4C282.9,166.9,282.9,167.3,282.9,167.8z"
		/>
	<path id="XMLID_41_" class="st4" d="M297.1,167.8c0.4,0,0.8,0,1.2,0c0.2-0.5,0.5-0.8,0.6-1.4c-1.1-0.3-2.3-1.4-3.2-1.2
		C295.6,166.6,297.2,166.4,297.1,167.8z"/>
	<path id="XMLID_40_" class="st4" d="M307.3,167.2c0.6-0.1,0.8-0.7,1.2-1c0-0.4-0.2-0.6-0.6-0.6
		C307.2,165.7,306.8,166.7,307.3,167.2z"/>
	<path id="XMLID_39_" class="st4" d="M301.7,165.4c1.7,0.1,2.4-2.3,1.4-3.6C301.2,162,302.8,164.6,301.7,165.4z"/>
	<path id="XMLID_38_" class="st4" d="M279.1,165c0.5,0,1.1,0.1,1.4-0.2c-0.2-1.1,0.3-2.4,0-3c-0.9,0.2-1.5,0.6-2.6,0.6
		c0,0.4,0,0.8,0,1.2C278.6,164,280,164.1,279.1,165z"/>
	<path id="XMLID_37_" class="st4" d="M299.9,164.6c0.6,0.3,0.6-1.3,0-1C299.9,163.9,299.9,164.3,299.9,164.6z"/>
	<path id="XMLID_36_" class="st4" d="M289.5,164.4c1-0.1,1.3-1,1.4-2c-0.3,0-0.7,0-1,0C289.9,163.2,289.2,163.4,289.5,164.4z"/>
	<path id="XMLID_35_" class="st4" d="M301.3,161.8c0-0.2,0-0.4,0.2-0.4c-0.1-1.5-2.4-0.8-2.6-2.2c-0.6,0-0.8,0.4-1.4,0.8
		c-1.2,0-2.7-0.3-2.6,1C297.2,161.4,298.8,160.9,301.3,161.8z"/>
	<path id="XMLID_34_" class="st4" d="M274.1,161.4c-0.1-0.8,0.6-0.9,1.4-0.8c-0.1-1-0.2-1.3,0-2.2c-0.3-0.3-0.7-0.5-1.4-0.4
		c0.3,1-0.8,2.1-1,3.2C273.3,161.4,273.6,161.5,274.1,161.4z"/>
	<path id="XMLID_33_" class="st4" d="M302.7,160c0.3,0,0.7,0,1,0C303.8,159.4,302.4,159,302.7,160z"/>
	<path id="XMLID_32_" class="st4" d="M286.9,159.4c0.3-0.2,0.7-0.2,1-0.4c0.1-0.5-0.9,0.1-0.8-0.4
		C286.8,158.7,286.9,159.1,286.9,159.4z"/>
	<path id="XMLID_31_" class="st4" d="M282.3,158.6c0.6,0.1,0.9-0.2,0.8-0.8C282.6,157.9,282.2,157.9,282.3,158.6z"/>
	<path id="XMLID_30_" class="st4" d="M295.9,158.6c0.3-0.3,0.5-0.8,0.4-1.6c-0.8-0.7-3.4-0.9-4.2,0
		C293,158.3,294.1,158.6,295.9,158.6z"/>
	<path id="XMLID_29_" class="st4" d="M288.1,155.6c-1.2-0.3-1.2,0.5-1.8,0.8c-1.2-0.4-2.8,0-2.6,0.8
		C285,158.7,288,157.2,288.1,155.6z"/>
	<path id="XMLID_28_" class="st4" d="M276.9,156.6c1.4,0,2-0.8,3.6-0.6c0.2-0.6,0.2-1.2,0-1.8C278.4,154.1,277.4,155.1,276.9,156.6z
		"/>
	<path id="XMLID_27_" class="st3" d="M261.7,293.5c-0.3-0.5-0.8-0.6-1.4-0.8C260.6,293.1,261,293.4,261.7,293.5z"/>
	<path id="XMLID_26_" class="st3" d="M258.1,291.3c0.1-0.6-0.3-0.8-0.4-1.2c-0.2,0.2-0.5,0.2-0.8,0.2c0,0.4,0.2,1-0.4,0.8
		c0.2,0.6,0.9,0,0.6-0.6C257.8,290.4,257.8,291,258.1,291.3z"/>
	<path id="XMLID_25_" class="st3" d="M255.3,289.1c0.5,0.4,1,0.7,1.2,1.4c0.4,0-0.3-0.5,0-1C255.8,289.7,255.9,289,255.3,289.1z"/>
	<path id="XMLID_24_" class="st3" d="M249.1,288.5c-0.7-0.3-0.4-1.6-1-2c1.4-0.3,2-1.6,1.8-2.6c-0.9,0.3-1.4,1-1.6,2
		c-0.6,0.2-0.5-0.3-1-0.2c0.6-0.5,0.9-1.2,1-2.2c-0.2,0.1-0.2,0.5-0.6,0.4c-0.1-0.3,0-1.3-0.4-1.8c-0.1,0-0.1,0-0.2,0
		c-0.1,0.5,1.1,1.4,0,1.6c0,0.4,0.7,0.1,0.6,0.6c0.2,0.8-0.9,0.3-0.6,1.2C248.2,286,248.1,288.7,249.1,288.5z"/>
	<path id="XMLID_23_" class="st3" d="M254.1,280.5c0.3,0,1-0.9,1,0c0.5-0.2-0.4-0.7,0.4-0.8c0.4,0-0.3,0.5,0,1
		c-0.2,0-0.5,0.9-0.6,0.4c-0.3,0.1-0.2,0.5-0.2,0.8c1.1-0.1,1.6-0.8,2.2-1.4c0.1-0.6-0.6-0.5-0.4-1.2c-0.2,0.2-0.4,0.2-0.4-0.2
		C255.5,279.6,254.6,279.8,254.1,280.5z"/>
	<path id="XMLID_22_" class="st3" d="M259.1,277.3c0.5,0.1,0.9-0.1,0.8-0.6c0.4,0.3,0.5,0.2,0.4-0.4
		C259.9,276.7,259.4,276.9,259.1,277.3z"/>
	<path id="XMLID_21_" class="st3" d="M260.5,275.3c0.3-0.2,0.2-0.8,0.4-1.2c0.4,0.2,0.8,0.3,1,0.6c-0.1,1.6-1.4,5.5,0.6,6.4
		c0,0.4-0.7,0.1-1,0.2c-0.1,0.7,0.8,0.4,0.8,1c-0.1,0.2-1.1-0.5-0.6,0.4c-0.8-0.7-1.4,0-2,0.6c0.5,0.3,0.7,0.9,1.4,1
		c0.9-0.3,1.2-1,1.4-1.6c0.2,0.6,0.7,0.9,1.6,0.8c0.3,1.1,0.2,2.8-1.6,2.4c-1.1,1,0,4.1-1.6,5c0.1,0.8,0.6,1.2,1.6,1.2
		c1.2-4.3,4-8.1,7.4-10.8c-0.6-0.5-0.9-0.2-1.8-0.2c0.1,0.8-0.7,1.1-0.8,2.2c-0.4,0-0.3-0.5-0.8-0.4c-0.1,0.3,0.2,0.3,0.2,0.6
		c-0.6,0.1-0.7-0.4-1.4-0.2c0.4-2.5-0.4-4.6-0.4-7c-0.8-0.1-0.4,0.9-1.4,0.6c0.9-1.3,2.4-2.2,1.8-5c0.2-0.7,0.3-0.4,0.8-0.6
		c0-0.4-0.2-1,0.4-0.8c0-0.6,0.1-1.3-0.2-1.6c2.5,1.1,2.5-2.8,1.4-4.6c0.2,0.4-1.4-0.2-0.8-0.6c-0.7,0.1-1,0.7-1.2,1.4
		c0.5,0,0.6,0.3,1.2,0.2c0,1.2,0,2.5-0.2,3c-0.6-0.3-0.6-1.1-0.8-1.8c-0.8,0-1.2,0.4-1.8,0.6c0.2,0.7,0.1,1.3,0.2,2.4
		c-0.1,0.7-0.6-0.1-1,0.4c0.8-2.4-0.7-5,1-7.4c-0.7-1.3-0.5-4.5,0-5.8c0.2,0.2,0.5,0.2,0.8,0.2c0.6,0.1-0.2,0.4,0,0.8
		c0.2,0,0.2-0.2,0.4-0.2c0.1,0,0.3,0,0.4,0c-0.5-1.2-0.5-2.8-0.4-4.2c-0.3-0.3-1.1-0.2-1.2-0.8C263.6,260.7,263.1,269,260.5,275.3z"
		/>
	<path id="XMLID_20_" class="st3" d="M263.7,217.6c0.1-2.4-0.3-3.2-0.2-5.8c0.5,0.2-0.3,1.9,0.8,1.6c0.6-2.5-0.9-5.9-1.8-8.6
		C263.9,208.8,262.7,213.8,263.7,217.6z"/>
	<path class="st3" d="M267.9,198.8c0,0.5,0,1-0.2,1.2c-0.2-0.1-0.3-0.2-0.6-0.2c-0.6,0,0.3-1.6-0.6-1.4c0.3,0.3,0.1,0.8-0.2,1
		c-1-0.4-0.7-2.1-2-2.2c0.4,0.8-0.3,0.3-0.2,1.2c-1.9-1,0.1-2.3-0.4-4c0.4-0.4,0.4,0.1,1,0c0-0.6,0.6-0.6,0.4-1.4
		c-0.4,0-0.4-0.2-0.8-0.2c-0.2,0.2-0.3,0.5-0.2,1c-0.2-1-0.7-1.7-0.6-3c-1.2-0.6-0.7,1-1,1.8c-0.3,1-1.1,1-0.2,1.8
		c-0.4-0.1-0.6,0-0.6,0.4c0.3-0.3,0.8,0,1,0.4c0.2,0.8-1.3,1.6-0.2,2c0,0.4-0.8,0.1-1.2,0.2c0.1,0.5,1.1,0.1,1.6,0.2
		c0.2,1.7-0.5,2.6-1.2,3.4c-0.6-0.7-0.7-1.8-1.2-2.6c0.1,0.4-0.3,1.4,0.4,1.2c-0.4,0.7-0.8-0.3-1.2-0.4c0.6,0.7,1.2,1.5,1.8,2.2
		c0-0.4,0.7-0.1,1-0.2c0-0.3,0-0.7,0-1c0.8-0.1,1,0.5,1,1.2c0.2-0.4,0.9-0.3,0.8-1c0.4,0.2,0.6,0.6,1.2,0.6c0.3-0.1,0-0.8,0.4-0.8
		c1-0.1,1,0.8,1.4,1.2c-0.4,0-0.4-0.2-0.8-0.2c-0.4,1.3-0.6,3.5,0,4.8c0.6,0,1,0.2,1.4,0.4c0.1,1.3,1,3.1-0.4,3.6
		c-0.1,0.6,0.4,0.7,0.2,1.4c1.1-0.1,1.1,1,1.6,1.6c0.8-0.3,0.2-2,0.4-3c0-0.4,0.9-0.1,1-0.4c0.7-2.6-0.9-4.3,0.2-6.4
		c-0.3-0.1-0.5-0.3-0.6-0.6c-0.5,0-0.9,1-1.2,0.4c-0.4,0.1,0,1.1-0.4,1.2c-1,0.1-0.7-1.2-1-1.8C268.7,201.6,268.7,199.7,267.9,198.8
		z M263.3,191.2c-0.1,1.1,0.1,1.9,0.4,2.6c-0.5,0-0.6,0.3-1.2,0.2C262.7,193,262.5,191.6,263.3,191.2z"/>
	<path id="XMLID_17_" class="st3" d="M275.1,276.1c-0.8-0.6-0.6-2.4-1-3.4C274.1,274.2,274,275.8,275.1,276.1z"/>
	<path id="XMLID_16_" class="st3" d="M280.7,279.5c0.7,0.8,2.4,0.6,2.2,1.8c4.9-1,1.7,4.4,4.2,5c0,0.7-0.5,0.9-0.8,1.2
		c0.7,0.1,0.5-0.8,1.4-0.6c-0.3-1.2-0.8-2.3-1.4-3.2C286.9,280.5,282.6,280.9,280.7,279.5z"/>
	<path id="XMLID_15_" class="st3" d="M273.7,293.3c0.2-0.2,0.5-0.2,0.8-0.2c-0.2-0.6,0.3-0.5,0.2-1
		C274.5,292.6,273.8,292.7,273.7,293.3z"/>
	<path id="XMLID_14_" class="st3" d="M273.7,293.5c-1.1,0.3-1.6-1.5-2-2.6c-0.9,1.3,1.5,1.9,0.6,3.2c-0.5-0.2-0.5-1-0.8-1.4
		c-0.9,0.5-2.5-0.5-3.6-1c-0.2,0.6,0.3,0.5,0.2,1c2.4-0.5,1.3,1.3,3.2,1.2c-0.4,0.9-1.6,0.1-1.8-0.4c-0.4,0-0.7,0.1-0.8,0.4
		c0.6,0,1.1,0,1,0.6c2.4-0.6,2.6,2,4.6,1.2C274.4,294.6,273.3,294.8,273.7,293.5z"/>
	<path id="XMLID_13_" class="st3" d="M271.9,290.9c0.1-1,2-2.8,0.4-2.8c0.1,0.3,0.6,0.2,0.4,0.8c-0.3,0.2-0.3,0.6-0.8,0.6
		C271.9,290,271.9,290.5,271.9,290.9z"/>
	<path class="st3" d="M279.5,279.5c-1.2,0.4-0.7,2.1,0.2,2.6C280.9,281.6,279.5,280.5,279.5,279.5z M279.7,281.7
		c-0.4-0.3-1.1-1.5-0.2-1.8C279.1,280.9,280.4,281.1,279.7,281.7z"/>
	<path id="XMLID_10_" class="st3" d="M266.3,291.5c0.3-0.1,0-0.4-0.2-0.4c1.1-0.7,0.4-0.3-0.2-1.2c-0.4,0-0.1,0.8-0.2,1.2
		C266,291.1,266.2,291.3,266.3,291.5z"/>
	<path id="XMLID_9_" class="st3" d="M270.9,274.9c-1.1,0.2-0.1,1.7-0.8,2c-0.5-0.1-0.1-0.9-0.8-0.8c-0.6,0.4-0.9,0.9-1.6,0.8
		c0,0.3,0,0.7,0,1c0.6-0.3,1.6-0.1,1.2,0.4c0.7-0.1,1.5,0.3,2.2,0.8c0.5-0.2,0.6-0.8,1-1c-0.2-0.8,0.2-1.4-0.4-1.4
		c0-0.2,0.4-0.2,0.6-0.2c0-0.3-0.3-0.5,0-0.6C271.8,276.2,271.2,275.8,270.9,274.9z"/>
	<path id="XMLID_8_" class="st4" d="M312.1,177.8c-0.2-0.5-1.1-0.4-1.8-0.4c0,0.7-0.5,1-0.6,1.6c0.6,0.1,0.6,0.7,1,1
		c0.1,0,0.1,0,0.2,0c-0.2-0.7-1.1-0.9-0.6-1.8C310.8,177.9,311.4,177.4,312.1,177.8z"/>
	<path id="XMLID_7_" class="st4" d="M277.3,171.8c0.7-0.5,1.1-1.3,2.2-1.4c0-0.3,0-0.5,0-0.8c-0.8-0.2-1.6-0.6-2-0.6
		c-0.4,0.5-0.7,1-0.8,1.8C277.2,169.8,277.6,171.3,277.3,171.8z"/>
	<path id="XMLID_6_" class="st5" d="M247.4,285.7C247.3,285.7,247.3,285.7,247.4,285.7C247.3,285.7,247.3,285.7,247.4,285.7
		c-0.1-0.1-0.2-0.2-0.3-0.2c-0.3-0.9,0.8-0.4,0.6-1.2c0.1-0.5-0.6-0.2-0.6-0.6c1.1-0.2-0.1-1.1,0-1.6c0-0.3,0-0.5,0-0.8
		c-3.9,0-5.7,4.3-8.5,6.7c-3,2.6-7.3,4.8-13.6,6.5l-0.5,2c8.6-3.6,13.1-5.5,17.8-5.5c0,0-2.5,3.5-5.9,7.9c3.1-1.7,8-7.1,12.7-10.4
		C248.2,288.7,248.2,286.5,247.4,285.7z"/>
	<path id="XMLID_5_" class="st5" d="M251.7,289.9c0,0-3.9,7.1-7.7,8.8c3.8,1.9,9.1-3.6,9.9-8.4C253.1,290.3,252,290.5,251.7,289.9z"
		/>
	<path id="XMLID_4_" class="st5" d="M261.7,293.5c-0.7-0.1-1.1-0.4-1.4-0.8c-0.9-0.3-1.5-0.9-2.2-1.4c-0.3-0.3-0.3-0.9-1-0.8
		c0.2,0.5-0.2,1-0.5,0.8c0.4,2.5,1.7,4.5,0.2,6c-1.8,1.8-4.3,2.8-6.2,4.4c-0.3,0.2-0.7,0.5-0.8,0.9c1.1,0.4,2.5-0.3,3.5-0.6
		c1.2-0.4,2.3-0.9,3.4-1.6c0.9-0.5,2-1.3,3-1.4c1.1-0.2,2.4-0.1,3.5-0.1c1,0.1,1,0.7,1.1,1.6c0,0.9,0.1,1.8-0.1,2.6
		c-0.2,0.7-0.5,1.4-0.8,2c-0.4,0.7-1.1,1.1-1.5,1.8c0.9-0.6,2.1-0.8,3.1-1.5c0.4-0.2,0.7-0.5,1-0.9c0.3-0.4,0.3-0.9,0.5-1.4
		c1.1-1.9,1.8-3.7,2.2-5.9c0.1-0.8,0-1.4,0.1-2.2c0-0.4,0-0.9-0.1-1.3C265.6,293.9,264.1,294.5,261.7,293.5z"/>
	<path id="XMLID_3_" class="st5" d="M272.2,295.3L272.2,295.3c0.9,1,2,3.3,2.7,4.4c0.7,1.1,1.5,2.1,2.4,2.9c0.8,0.8,1.4,1.7,2.3,2.3
		c0.8,0.6,1.6,0.9,2.5,1.2c-0.6-2-1.6-3.3-3-4.7c-0.7-0.7-1.5-1.4-2.3-2c-0.8-0.6-1.9-1-2.3-2c-0.2-0.5-0.3-1.2-0.3-1.8
		C273.3,296.1,272.8,295.7,272.2,295.3z"/>
	<path id="XMLID_2_" class="st5" d="M284.3,289.3c0,0.3,0.3,0.3,0.2,0.6c-0.5-0.1-0.4-0.8-0.8-1c-0.9,0.2-1.2,1.2-0.6,1.8
		c-1.3,0.2-3.6-0.6-4,0.6c0,0.4,0,0.8,0,1.2c-0.4-0.2-0.7-0.4-1-0.6c1.1,1.2,2.8,2.7,3.5,3.5c0.3,0.4,0.4,1.1,0.8,1.4
		c0.4,0.3,1.5,0,2.1,0c1.6,0,3.1-0.2,4.7-0.1c1.4,0.1,2.6,0.6,3.9,0.7c3.8,0.2,7.5,1.8,11.4,1.2c-0.5-0.2-0.9-0.7-1.4-1
		c-0.5-0.2-1-0.5-1.5-0.6c-1-0.4-2.2-0.6-3.3-0.7c-0.8-0.1-1.5,0-2.2-0.2c-0.5-0.2-1-0.3-1.5-0.4c-1.4-0.3-2.6-0.5-3.9-1
		c-1.5-0.6-2.5-1.5-3.8-2.6c-1.1-1-1.8-2.2-2.8-3.2c0,0,0,0.1,0,0.1C284.1,289.1,284.2,289.2,284.3,289.3z"/>
	<path id="XMLID_1_" class="st5" d="M286.3,283.7c0.6,0.8,1,1.8,1.3,2.9c0.7,0.6,1.5,1.1,2.3,1.7c1.4,1.1,2.5,1.5,4.2,1.6
		c1.5,0.1,2.9,0.5,4.3,0.8c1.4,0.4,2.9,0.3,4.4,0.3c2,0.1,4,0.2,6,0.3c1.7,0.1,3.5,0.2,5.1,0c-0.5-0.1-1-0.6-1.4-0.8
		c-0.6-0.3-1.3-0.6-2-0.9c-1.1-0.5-2.4-0.8-3.6-1.1c-1.2-0.3-2.4-0.5-3.7-0.7c-1.1-0.2-2.4-0.1-3.5-0.2c-2.3-0.2-5.5,0-6.9-2.2
		c-0.5-0.8-0.3-2.2-1.2-2.6c-0.9-0.4-2.4-0.1-3.5-0.1c-0.6,0-1.3-0.1-1.9-0.3C286.4,282.8,286.4,283.2,286.3,283.7z"/>
</g>
</svg>
