<?xml version="1.0" encoding="utf-8"?>
<!-- Generator: Adobe Illustrator 19.0.0, SVG Export Plug-In . SVG Version: 6.00 Build 0)  -->
<svg version="1.1" id="Layer_1" xmlns="http://www.w3.org/2000/svg" xmlns:xlink="http://www.w3.org/1999/xlink" x="0px" y="0px"
	 viewBox="0 0 500 500" style="enable-background:new 0 0 500 500;" xml:space="preserve">
<style type="text/css">
	.st0{fill-rule:evenodd;clip-rule:evenodd;fill:#00579C;}
	.st1{fill:#054077;}
	.st2{fill-rule:evenodd;clip-rule:evenodd;fill:#054077;}
	.st3{fill-rule:evenodd;clip-rule:evenodd;fill:#FFFFFF;}
</style>
<g>
	<path class="st0" d="M55.7,122.2c62-30.4,126.7-47.4,194.9-47.7c67.9-0.3,133.2,13.6,194.8,48.9c3.2-21.5,5.5-41.3,7.8-64
		c-74.5-39.8-139.9-47.2-202.6-47.2S122.5,19.6,48,59.4C50.3,81.6,52.6,101.2,55.7,122.2 M444.7,127.9c-61.6-35.3-126.1-49-194-48.7
		c-68.3,0.3-132.4,16.9-194.4,47.3c22.2,151.8,68.8,272.1,194.3,363.5C375.8,398.9,422.4,279,444.7,127.9z"/>
	<path class="st1" d="M150.9,87.4c-32.4,8.1-64.1,19.9-95,35.1l-0.4,0.2l-0.1-0.5c-1.5-10.5-2.9-20.7-4.1-31
		C50,81,48.9,70.6,47.7,59.4l0-0.2l0.2-0.1c37.3-19.9,72.3-31.7,105.8-38.6c33.5-6.8,65.6-8.7,96.9-8.7c31.3,0,63.4,1.9,96.9,8.7
		c33.5,6.8,68.5,18.7,105.8,38.6l0.2,0.1l0,0.2c-1.2,11.4-2.3,22-3.6,32.4c-1.3,10.5-2.6,20.8-4.2,31.6l-0.1,0.5l-0.4-0.2
		c-30.8-17.6-62.5-29.9-94.9-37.8c-32.5-7.8-65.7-11.2-99.7-11.1C216.5,75,183.3,79.3,150.9,87.4 M56,121.7
		c30.9-15.1,62.4-26.9,94.8-35c32.5-8.1,65.7-12.4,99.9-12.6c34-0.2,67.3,3.2,99.8,11.1c32.4,7.8,64,20.1,94.7,37.6
		c1.6-10.6,2.9-20.8,4.2-31.1c1.3-10.4,2.4-21,3.6-32.2c-37.1-19.8-72-31.6-105.4-38.4c-33.5-6.8-65.5-8.7-96.8-8.7
		c-31.3,0-63.3,1.9-96.8,8.7C120.4,28,85.5,39.8,48.4,59.6c1.1,11,2.3,21.4,3.5,31.6C53.1,101.4,54.5,111.4,56,121.7z M350.2,89.8
		c32.4,7.8,63.9,20.1,94.7,37.7l0.2,0.1l0,0.2c-11.1,75.6-28.4,143.4-58.5,203.7c-30.1,60.3-73.1,113.1-135.7,158.7l-0.2,0.1
		l-0.2-0.1c-62.8-45.8-105.9-98.7-136-159.3C84.3,270.5,67.1,202.5,56,126.6l0-0.2l0.2-0.1c31-15.2,62.6-27,94.9-35
		c32.3-8,65.4-12.2,99.6-12.4C284.7,78.7,317.8,82,350.2,89.8z M444.4,128c-30.7-17.6-62.1-29.8-94.4-37.6
		c-32.3-7.8-65.4-11.1-99.3-11c-34.1,0.2-67.2,4.4-99.5,12.4c-32.2,8-63.6,19.7-94.5,34.8c11.1,75.8,28.3,143.7,58.3,204
		c30.1,60.4,73,113.2,135.6,158.9c62.4-45.5,105.3-98.2,135.3-158.4C416,271.1,433.2,203.5,444.4,128z"/>
	<path class="st2" d="M81.5,71.5c0.3,0.1,1,0,1.3-0.1l20.4-7.1c0.3-0.1,0.5-0.2,0.8-0.3c1-0.3,2.4-0.5,2.8,0.9l1.2,5.1
		c0.4,1.6-0.5,2.3-1.9,2.8l-21.3,7.7c-0.5,0.2-0.5,0.4-0.4,0.8l1.8,6.8c0.3,0,0.9-0.2,1-0.3l27.3-10.1c1.5-0.6,4.1-0.8,4.3,1.4
		l0.5,4.7c0.2,1.7-1,2.9-2.5,3.4l-26.5,9.5C86,98.3,80.1,99,78.5,93.5l-7.1-25.7l0-0.1c-0.8-5,0.7-10.8,6-12.7l30.7-10.9
		c1.8-0.6,3.4,0,3.8,2l0.8,3.9c0.4,1.9-0.5,3-2.3,3.6l-29.9,10c-0.4,0.1-0.6,0.9-0.5,1.3L81.5,71.5z"/>
	<path class="st3" d="M108.5,45.2c1.3-0.5,2.2-0.1,2.4,1.2l0.8,3.9c0.3,1.4-0.3,2-1.6,2.5l-29.9,10c-0.9,0.3-1.4,1.6-1.2,2.5
		l1.6,6.5c0.2,0.8,1.5,0.9,2.6,0.5l20.4-7.1c0.7-0.3,2.1-0.9,2.3-0.1l1.2,5.1c0.2,1-0.3,1.2-1.3,1.6l-21.3,7.7
		c-0.8,0.3-1.3,1-1.1,2.1l1.9,7c0.2,0.8,1,0.7,2.3,0.2l27.3-10.1c1.8-0.7,2.5-0.2,2.7,0.7l0.8,4.6c0.2,1.2-0.9,2-1.9,2.4l-26.5,9.5
		c-4.9,1.8-9.2,1.5-10.3-2.6l-7.1-25.6c-0.7-4.2,0.3-9.8,5.3-11.5L108.5,45.2z"/>
	<path class="st2" d="M143.3,66.5l7.2-29.1c1-4.1,4-6.3,8.2-5.9c4.6,0.5,5.7,3.9,6.2,8l4.2,32.1c0.2,1.3-0.9,2.3-2.1,2.5l-3.8,0.5
		c-1.2,0.1-2.4-0.8-2.6-2l-3.4-25.1l-7.5,27.3c-0.7,2.7-2.4,4.5-5.2,4.8c-2.9,0.3-4.8-1.9-6.3-4l-14-19.8l4.7,24.7
		c0.3,1.4-0.7,3.2-2.2,3.6l-3.2,0.9c-1.7,0.5-3.1-1.4-3.4-2.9l-6-30.3c-1-5.3,0.4-9.3,5.6-11.2c3-1.1,5.2,0.1,7,2.7L143.3,66.5z"/>
	<path class="st3" d="M115.2,51.6c-1.1-5.3,0.6-8.5,5-10.1c2.1-0.8,4-0.4,5.9,2.3l17.7,25l7.7-31.2c1-4.1,3.8-5.4,7.1-5.1
		c3.5,0.4,4.7,2.6,5.3,7.1l4.2,32.1c0.1,0.7-0.5,1.2-1.2,1.3l-3.8,0.5c-0.7,0.1-1.4-0.5-1.5-1.1l-4-30l-8.8,32.1
		c-0.8,2.8-2.5,3.9-4.4,4.1c-2.2,0.3-3.8-1.3-5.3-3.5l-16.6-23.6l5.5,29.3c0.2,0.9-0.5,2.2-1.4,2.4l-3.2,0.9c-1,0.3-1.9-1.1-2.1-2.1
		L115.2,51.6z"/>
	<path class="st2" d="M175.5,37.2c-0.2,0-0.5,0.4-0.5,0.6l1,10.9c0.1,0.3,0.8,0.5,1,0.4l23.1-3.3c0.4-0.1,1.3-0.8,1.2-1.2l-0.8-10.6
		c-0.2-0.2-0.9-0.3-1.1-0.2L175.5,37.2z M165.9,32.6c-0.1-1.2,0.5-2.9,1.9-3.1l31.7-4.5c5.2-0.7,9,3.4,9.4,8.4l0.8,11.2
		c0.3,4.1-3.8,8.5-7.7,9.1l-24.6,3.4c-0.2,0.1-0.3,0.6-0.3,0.8l1.1,12.3c0.1,1.2-0.8,2.6-2.1,2.7l-3.3,0.3c-1.5,0.1-2.7-1.4-2.9-2.8
		L165.9,32.6z"/>
	<path class="st3" d="M166.9,32.5c-0.1-0.7,0.3-1.9,1-2l31.7-4.5c4.8-0.7,8,3.3,8.2,7.5l0.8,11.2c0.2,3.5-3.4,7.5-6.9,8l-24.6,3.4
		c-0.7,0.1-1.2,1.2-1.1,1.9l1.1,12.3c0.1,0.7-0.4,1.5-1.2,1.6l-3.3,0.3c-0.9,0.1-1.7-1-1.8-1.9L166.9,32.5z M175.4,36.2l24-3.5
		c0.9-0.1,2.2,0.2,2.3,1.1l0.8,10.7c0.1,1-1.2,2.1-2.1,2.2l-23.1,3.3c-0.8,0.1-2.1-0.5-2.2-1.3l-1-10.9
		C173.9,37.1,174.6,36.3,175.4,36.2z"/>
	<path class="st2" d="M221.4,32.2c-0.9,0-1.9,1.4-1.9,2.3l1,21.6c0,1,1.3,2.4,2.3,2.4l20.4-0.7c0.6,0,1.4-1.6,1.4-2.2L244,33.1
		c0-0.7-1.3-1.4-2-1.3L221.4,32.2z M219.8,23.2l23.2-0.6c4.4-0.1,9.3,3.1,9.4,7.8l0.4,25.4c0.1,4.3-4.2,9.7-8.7,9.8l-22.8,0.5
		c-4.8,0.1-9.8-5.1-10-9.8l-1-23C210.1,28.5,214.8,23.4,219.8,23.2z"/>
	<path class="st3" d="M221.3,31.1l20.6-0.4c1.3,0,3,1.1,3,2.3l0.6,22.5c0,1.2-1.1,3.2-2.3,3.2l-20.4,0.7c-1.6,0.1-3.3-1.8-3.3-3.3
		l-1-21.6C218.4,33,219.9,31.2,221.3,31.1 M219.8,24.2l23.2-0.6c4-0.1,8.3,2.8,8.4,6.9l0.4,25.4c0.1,3.8-3.8,8.7-7.7,8.8l-22.8,0.5
		c-4.2,0.1-8.8-4.6-9-8.9l-1-23C211.2,29,215.4,24.4,219.8,24.2z"/>
	<path class="st2" d="M256.7,21.9h3.9c1.5,0,2.9,1.4,2.9,2.9L263,55.3c0,0.3,0.6,1.2,0.9,1.2l28.4,1.4c1.6,0.1,2.9,1.8,2.8,3.4
		l-0.1,3.7c-0.1,1.9-2.5,2.6-4,2.5l-29.4-1.2c-4.6-0.2-7.9-6-7.8-10.2l0.2-31.1C254,23.4,255,21.9,256.7,21.9"/>
	<path class="st3" d="M256.7,22.9h3.9c0.9,0,1.9,1,1.9,1.9L262,55.3c0,0.9,1,2.2,1.9,2.2l28.4,1.4c1,0,1.9,1.3,1.9,2.3l-0.1,3.7
		c0,1.1-1.9,1.6-3,1.6l-29.4-1.2c-3.8-0.2-6.9-5.3-6.9-9.2l0.2-31.1C255,23.9,255.7,22.9,256.7,22.9"/>
	<path class="st2" d="M299,27c0.1-1.2,1.3-2.4,2.5-2.3l3.5,0.1c1.6,0.1,2.8,2,2.6,3.5l-3,38.3c-0.1,1.1-0.9,2.2-2.1,2.1l-4.1-0.3
		c-1.3-0.1-2.3-1.2-2.2-2.6L299,27z"/>
	<path class="st3" d="M300,27c0-0.7,0.8-1.4,1.5-1.4l3.5,0.1c1,0,1.7,1.4,1.7,2.4l-3,38.3c0,0.6-0.4,1.2-1,1.2l-4.1-0.3
		c-0.8-0.1-1.3-0.7-1.3-1.5L300,27z"/>
	<path class="st2" d="M332.2,28.4l33,7.3c1.7,0.4,1.8,1.8,1.3,3.2l-1.4,4.5c-0.4,1.2-1.6,2-2.8,1.7l-30.2-6.9
		c-0.2,0-0.9-0.1-0.9,0.2l-0.8,7.1c0,0.3,0.1,0.5,0.4,0.5l22.5,4.5c1.4,0.3,2,1.2,1.7,2.7l-1,5c-0.3,1.6-1.6,1.8-3,1.5l-20.9-4.4
		c-0.2,0-0.8,0.4-0.8,0.7L328,70.3c-0.1,1.3-1,2-2.3,1.8l-4.1-0.6c-1.3-0.2-2.1-0.8-1.9-2.2l2.9-33.6
		C322.8,31.7,328.1,27.5,332.2,28.4"/>
	<path class="st3" d="M332,29.4l33,7.3c1,0.2,0.9,1,0.6,1.9l-1.4,4.5c-0.2,0.8-0.9,1.2-1.7,1l-30.2-6.9c-1-0.2-2,0.1-2.1,1.1
		l-0.8,7.1c-0.1,0.8,0.4,1.5,1.2,1.6l22.5,4.5c0.9,0.2,1.1,0.6,0.9,1.5l-1,5c-0.2,1-0.8,0.9-1.8,0.7l-20.9-4.4
		c-0.8-0.2-1.9,0.7-2,1.6L327,70.2c-0.1,0.8-0.4,1-1.2,0.9l-4.1-0.6c-0.8-0.1-1.2-0.3-1.1-1.1l2.9-33.6
		C323.8,32.3,328.5,28.6,332,29.4"/>
	<path class="st2" d="M387.6,41.5l31.1,10.5c1.5,0.5,1.8,1.5,1.3,2.9l-1.6,4.9c-0.5,1.4-2.2,1.7-3.4,1.3l-28.8-9.7
		c-0.4-0.1-0.9,0.1-1,0.5l-4.3,22.5c-0.1,0.4,0.2,1.1,0.7,1.3l28.9,9.9c1.4,0.5,2,1.7,1.6,3.1l-1.2,4.7c-0.4,1.7-2,1.6-3.4,1.2
		l-29.1-10c-3.9-1.3-7.4-6.3-6.7-10.4l4.4-25.5C376.9,44.1,383.2,40,387.6,41.5"/>
	<path class="st3" d="M387.2,42.5L418.4,53c1.1,0.4,0.9,0.9,0.7,1.7l-1.6,4.9c-0.3,0.8-1.4,0.9-2.2,0.7l-28.8-9.7
		c-1-0.3-2.1,0.3-2.3,1.3l-4.3,22.5c-0.2,0.9,0.4,2.1,1.3,2.4l28.9,9.9c0.9,0.3,1.2,1,1,1.9l-1.2,4.7c-0.2,0.9-1.2,0.8-2.1,0.5
		l-29.1-10c-3.5-1.2-6.6-5.7-6-9.3l4.4-25.5C377.8,44.9,383.5,41.2,387.2,42.5"/>
	<path class="st2" d="M413.3,88.7c0.3-1.1,1.8-1.9,2.9-1.5l4.1,1.5c1.1,0.4,1.4,1.9,1.1,3l-1.4,4.7c-0.3,1-1.4,1.8-2.4,1.5l-4.4-1.3
		c-1.1-0.3-1.8-1.8-1.5-2.9L413.3,88.7z"/>
	<path class="st3" d="M414.3,89c0.2-0.6,1.1-1.1,1.6-0.9l4.1,1.5c0.6,0.2,0.7,1.1,0.5,1.7l-1.4,4.7c-0.1,0.4-0.7,0.9-1.2,0.8
		l-4.4-1.3c-0.6-0.2-1-1-0.8-1.6L414.3,89z"/>
	<path class="st2" d="M361.8,72.8c0-1.3,1.4-2.4,2.7-2l4.3,1.2c1,0.3,1.4,1,1.4,2l-0.1,5.6c0,1.2-1.5,1.9-2.5,1.7l-4.3-1
		c-1.1-0.3-1.6-1.2-1.6-2.3L361.8,72.8z"/>
	<path class="st3" d="M362.8,72.8c0-0.6,0.8-1.2,1.4-1.1l4.3,1.2c0.6,0.2,0.7,0.4,0.7,1l-0.1,5.6c0,0.5-0.8,0.8-1.3,0.7l-4.3-1
		c-0.6-0.1-0.8-0.7-0.8-1.3L362.8,72.8z"/>
	<path class="st2" d="M161.3,180.8l0,6.5c18.8-5.6,40-4.4,59-0.1v-6.5L161.3,180.8z M161.3,206.8l0,99c18,9.6,39,10.4,59,9.1
		l0-109.5C201.4,200.8,179.5,198.5,161.3,206.8z M144.9,219.3c-8.7,9.7-10.9,25.2-11.2,37.6c-0.4,13.5,2.2,26.4,11,36.7L144.9,219.3
		z M161.3,324.8l0,21.8l59,0l0-14.2C200.7,333.8,179.6,332.4,161.3,324.8z M236.5,120.7l0,40.8l120.5,0l0,19.3l-120.4-0.1l0,9.7
		c30.2,7.8,59.4,18.5,87.5,32l0.8,0.4l-6.2,16.1l-1-0.5c-26.2-12.1-53.4-22.2-81.2-29.7l0,54.6l58.5,0l0,18.4l-58.5,0l0,31
		c30-5.1,59-14.1,86.6-26.8l1-0.4l7.2,17.7l-0.9,0.4c-30.2,12.4-61.6,22.5-93.9,27.7l0,15.3l115.6,0l0,18.9l-115.6,0l0,82.2l-16.2,0
		l0-82.2l-75.2,0l0-47.6c-20.7-14.4-29.2-35.7-28.9-60.6c0.3-25,8.6-47.1,28.8-62.5l0-14.4l-9,0l0-18.7l84.2,0v-40.8l-21.9,0l0-18.9
		l144.5,0l0,19L236.5,120.7z"/>
	<path class="st3" d="M160.3,179.7l61,0v8.7c-19.7-4.7-41.7-5.9-61,0.2L160.3,179.7z M160.3,206.2c17.1-8,38.2-7.2,61-1.6l0,111.3
		c-22.6,1.5-43.3,0.2-61-9.5L160.3,206.2z M341.9,102.8l0,16.9l-106.5,0l0,42.9l120.5,0l0,17.3l-120.4-0.1l0,11.5
		c30.5,7.8,59.8,18.5,88.1,32.1l-5.5,14.3c-26.5-12.2-54.3-22.6-82.6-30.1l0,56.9l58.5,0l0,16.4l-58.5,0l0,33.2
		c30.4-5.1,59.8-14,88.1-27.1l6.4,15.7c-31.2,12.8-62.7,22.7-94.5,27.8l0,17.1l115.6,0l0,16.8l-115.6,0l0,82.2l-14.2,0l0-82.2
		l-75.2,0l0-47.2c-19.1-13.1-29.2-33-28.9-60.1c0.3-25.2,8.8-46.9,28.8-62.1l0-15.9l-9,0l0-16.7l84.2,0v-42.9l-21.9,0l0-16.9
		L341.9,102.8z M160.3,323.3c17.2,7.5,38.2,9.7,61,8l0,16.3l-61,0L160.3,323.3z M145.9,216.8l-0.2,79.3c-9.3-9.6-13.5-22.3-13-39.3
		C133.1,240.2,136.8,225.5,145.9,216.8z"/>
	<path class="st2" d="M267.1,443.1l0,7.4c0,1.2-0.9,1.9-2,1.8l-2.2-0.1c-1,0-1.8-0.9-1.8-1.9l0-8.4c0-1,0.1-2,0.8-2.7l2.9-3.1
		c0.9-1,2.6-0.8,3.6,0l13.2,11.8c0.8,0.7,0.8,2.2,0.1,2.9l-1.5,1.6c-0.7,0.7-2,0.6-2.8-0.1L267.1,443.1z"/>
	<path class="st3" d="M262,450.4c0,0.5,0.4,0.9,0.8,0.9l2.2,0.1c0.6,0,1-0.2,1-0.8l0-7.9c0-1.1,0.7-1.2,1.4-0.5l10.4,9.6
		c0.3,0.3,1,0.4,1.3,0.1l1.5-1.6c0.3-0.4,0.3-1.1-0.1-1.5L267.5,437c-0.5-0.5-1.7-0.6-2.1-0.1l-2.9,3.1c-0.5,0.5-0.5,1.3-0.5,2
		L262,450.4z"/>
	<path class="st2" d="M277.4,430.8l2.1,1.8c0.2,0,0.4-0.2,0.5-0.3l8.2-8.8l-2.1-1.9c-0.1-0.1-0.2-0.1-0.3-0.1l-8.2,8.9
		C277.5,430.5,277.4,430.6,277.4,430.8 M295.5,429.7l-2.3-2.1c0,0-0.1,0-0.1,0l-9.9,10c-1.6,1.6-4.8,2-6.5,0.5l-5.1-4.6
		c-1.7-1.6-0.8-4.8,0.6-6.3l10.1-11.2c1.5-1.7,4.7-1.4,6.4,0l12.9,10.8c1.8,1.5,1.6,4.7-0.1,6.3L291,443.2c-1.6,1.6-5.1,1.8-7,0.6
		l-1.8-1.1c-1.2-0.8-1.2-2.9-0.2-3.9l1.5-1.5c0.6-0.6,1.8-0.5,2.4,0l1,0.9c0,0,0.1,0,0.1-0.1L295.5,429.7z"/>
	<path class="st3" d="M273,427.8c-1.1,1.2-1.9,3.8-0.7,4.9l5.1,4.6c1.3,1.2,3.9,0.8,5.1-0.4l10-10.1c0.3-0.3,1-0.3,1.4,0l2.3,2.2
		c0.3,0.3,0.6,0.8,0.3,1.1l-8.7,8.8c-0.4,0.4-1,0.5-1.5,0.1l-1-0.9c-0.2-0.2-0.8-0.3-1.1,0l-1.5,1.5c-0.6,0.5-0.6,1.9,0,2.3l1.8,1.1
		c1.5,1,4.5,0.8,5.8-0.4l10.5-10.2c1.3-1.2,1.5-3.6,0.1-4.8L288,416.7c-1.3-1.1-3.9-1.3-5-0.1L273,427.8z M276.8,429.7
		c-0.4,0.4-0.6,1.3-0.2,1.7l2.3,2c0.5,0.4,1.4,0,1.8-0.4l8.3-8.9c0.3-0.3,0.2-1-0.1-1.3l-2.2-2c-0.4-0.4-1.3-0.6-1.7-0.1
		L276.8,429.7z"/>
	<path class="st2" d="M303.7,420.8l9.7-12.6c0.7-0.9,2-1.1,2.9-0.3l1.3,1.1c1,0.9,1.2,2.7,0.4,3.8l-11.5,15.2
		c-0.9,1.1-2.6,1-3.6,0.1l-4.3-3.9c-1.8-1.6-2.1-4.7-1.2-6.9l4.5-11.3c0.1-0.4,0.6-1.6,0.5-1.9l-0.6-0.6c-0.1,0-0.2,0-0.3,0l-8.1,9
		c0,0.1,0,0.2-0.1,0.2l0.9,0.9c0.7,0.7,0.8,1.9,0.1,2.6l-1,1.1c-0.8,0.8-2.2,0.8-3,0.1l-1.6-1.6c-1.5-1.4-2.1-4.5-0.6-6.1l10.2-11.2
		c1.4-1.5,4.2-1.6,5.8-0.3l2.9,2.5c2,1.7,1.7,4.9,0.9,7.1l-3.8,10.2c-0.1,0.3-1,2.1-0.8,2.3L303.7,420.8z"/>
	<path class="st3" d="M288.6,410.1l10.2-11.2c1-1.1,3.2-1.2,4.4-0.2l2.9,2.5c1.5,1.3,1.3,4.1,0.6,6l-3.8,10.2
		c-0.4,1.1-1.4,2.5-0.5,3.3l0.8,0.8c0.3,0.3,1,0.2,1.3-0.1l9.8-12.8c0.4-0.5,1-0.6,1.4-0.2l1.3,1.1c0.6,0.5,0.7,1.7,0.2,2.4
		l-11.5,15.2c-0.5,0.6-1.5,0.5-2.1,0l-4.3-3.9c-1.4-1.3-1.7-4-1-5.8l4.5-11.3c0.3-0.9,0.9-2.5,0.2-3.1l-0.7-0.6
		c-0.4-0.3-1.3-0.3-1.6,0.1l-8.2,9.2c-0.3,0.3-0.3,1.2,0,1.5l0.9,0.9c0.3,0.3,0.4,0.9,0.1,1.2l-1,1.1c-0.4,0.4-1.2,0.4-1.6,0
		l-1.6-1.6C288,413.7,287.6,411.3,288.6,410.1"/>
	<path class="st2" d="M317,386.1l-7.8,7.8c-0.1,0.2,0.1,0.9,0.3,1l8.2,6.7c0.1,0,0.4-0.1,0.5-0.2l6.5-8.5c0.2-0.2,0.1-0.9-0.1-1.1
		l-6.7-6C317.8,385.8,317.2,385.9,317,386.1 M304.5,390.1l8.3-8.6c2.1-2.1,6.5-2.5,8.8-0.5l7,6.2c2.2,2,2.8,6.3,1,8.7l-7.2,10.1
		c-1.3,1.8-4.5,3.1-6.4,1.6l-11.2-9.1C302.5,396.7,302.4,392.2,304.5,390.1z"/>
	<path class="st3" d="M305.2,390.8l8.3-8.6c1.7-1.8,5.5-2.1,7.4-0.4l7,6.2c1.9,1.6,2.3,5.4,0.9,7.4l-7.2,10.1c-1,1.4-3.6,2.5-5,1.4
		l-11.2-9.1C303.6,396.4,303.5,392.5,305.2,390.8 M316.3,385.4c0.5-0.5,1.7-0.7,2.3-0.2l6.7,6c0.6,0.5,0.7,1.8,0.2,2.4l-6.5,8.5
		c-0.4,0.5-1.3,0.8-1.8,0.4l-8.3-6.8c-0.7-0.5-1-1.9-0.4-2.5L316.3,385.4z"/>
</g>
</svg>
