<?xml version="1.0" encoding="utf-8"?>
<!-- Generator: Adobe Illustrator 19.0.0, SVG Export Plug-In . SVG Version: 6.00 Build 0)  -->
<svg version="1.1" id="Layer_1" xmlns="http://www.w3.org/2000/svg" xmlns:xlink="http://www.w3.org/1999/xlink" x="0px" y="0px"
	 viewBox="0 0 400 400" style="enable-background:new 0 0 400 400;" xml:space="preserve">
<style type="text/css">
	.st0{fill-rule:evenodd;clip-rule:evenodd;fill:#FFFFFF;}
	.st1{fill-rule:evenodd;clip-rule:evenodd;fill:#7F327C;stroke:#F8CE83;stroke-width:2.6968;stroke-miterlimit:2.6131;}
	.st2{fill-rule:evenodd;clip-rule:evenodd;fill:#FFFFFF;stroke:#F8CE83;stroke-width:2.6968;stroke-miterlimit:2.6131;}
	.st3{fill-rule:evenodd;clip-rule:evenodd;fill:#ED1C24;}
	.st4{fill:none;stroke:#F8CE83;stroke-width:2.6968;stroke-miterlimit:2.6131;}
</style>
<g>
	<polygon id="XMLID_14_" class="st0" points="0,0.4 400,0.4 400,400.4 0,400.4 0,0.4 	"/>
	<polygon id="XMLID_13_" class="st1" points="305.4,154.6 323.3,148.9 200,380.9 76.8,149 98.3,154.6 305.4,154.6 	"/>
	<polygon id="XMLID_12_" class="st2" points="200,268.7 75,144.3 200,19.9 325,144.3 200,268.7 	"/>
	<path class="st0" d="M185.3,294l3.2-11.5l3.2,11.5H185.3L185.3,294z M195,306.2h9.4l-10.9-32.1h-9.8l-10.8,32.1h9.2l1.5-5.3h10.1
		L195,306.2L195,306.2z"/>
	<path id="XMLID_9_" class="st0" d="M223.6,293.1l7.8,2.6c-0.5,2.4-1.4,4.5-2.5,6.1c-1.1,1.6-2.5,2.9-4.2,3.7
		c-1.7,0.8-3.8,1.2-6.4,1.2c-3.2,0-5.7-0.5-7.7-1.5c-2-1-3.7-2.8-5.1-5.3c-1.4-2.5-2.2-5.8-2.2-9.8c0-5.3,1.3-9.4,3.8-12.2
		c2.5-2.8,6.1-4.3,10.8-4.3c3.6,0,6.5,0.8,8.6,2.5c2.1,1.6,3.6,4.1,4.7,7.5l-7.9,1.9c-0.3-1-0.6-1.7-0.9-2.1
		c-0.5-0.7-1.1-1.3-1.8-1.7c-0.7-0.4-1.5-0.6-2.4-0.6c-2,0-3.6,0.9-4.7,2.7c-0.8,1.3-1.2,3.4-1.2,6.3c0,3.5,0.5,6,1.5,7.3
		c1,1.3,2.3,2,4.1,2c1.7,0,3-0.5,3.9-1.6C222.6,296.6,223.2,295.1,223.6,293.1L223.6,293.1z"/>
	<polygon id="XMLID_8_" class="st3" points="192.3,311.5 214.4,311.5 214.4,318.4 201.3,318.4 201.3,324 212.5,324 212.5,330.5 
		201.3,330.5 201.3,343.5 192.3,343.5 192.3,311.5 	"/>
	<path id="XMLID_7_" class="st3" d="M162.7,129.3c3.1,0,5.6-2.5,5.6-5.5c0-3.1-2.5-5.5-5.6-5.5c-3.1,0-5.5,2.5-5.5,5.5
		C157.1,126.9,159.6,129.3,162.7,129.3L162.7,129.3z"/>
	<path class="st4" d="M158.8,127.9l7.2-8.6 M163.1,124l-4.5-4.4"/>
	<path id="XMLID_4_" class="st3" d="M200.1,63.2c0,0,37.3,23.2,11.1,92.2c0,0,15.8-26.7,20.9-31.3l3.6,5.1c0,0-20.5,16.2-22.3,29.7
		c0,0,17.2-18.5,33.7-18.5c16.6,0,26.1,6.5,26.1,21.3c0,0,1.1,18-22.3,18c0,0-13-0.3-16.9,3.6c0,0-0.9-10.1,1.7-13.1
		c2.7-3,1.2-5.4-1.9-5.4c0,0-22.6,4.8-22.5,33.4c0,0,1.9,3.9,7.5,3.9c0,0-2.7,3.7-9.4,3.7c0,0,0.8,10.6,5.6,12.8
		c0,0-3.9-0.6-5.5-1.9c0,0-0.9,15.1-9.5,15.1H200c-8.6,0-9.5-15.1-9.5-15.1c-1.6,1.2-5.5,1.9-5.5,1.9c4.8-2.2,5.6-12.8,5.6-12.8
		c-6.7,0-9.4-3.7-9.4-3.7c5.6,0,7.5-3.9,7.5-3.9c0.2-28.6-22.5-33.4-22.5-33.4c-3.1,0-4.5,2.5-1.9,5.4c2.7,3,1.7,13.1,1.7,13.1
		c-3.9-3.9-16.9-3.6-16.9-3.6c-23.4,0-22.3-18-22.3-18c0-14.8,9.5-21.3,26.1-21.3c16.6,0,33.7,18.5,33.7,18.5
		c-1.9-13.5-22.3-29.7-22.3-29.7l3.6-5.1c5.2,4.5,20.9,31.3,20.9,31.3C162.7,86.3,200,63.2,200.1,63.2L200.1,63.2L200.1,63.2z"/>
	<path id="XMLID_3_" class="st3" d="M237.4,129.3c-3.1,0-5.5-2.5-5.5-5.5c0-3.1,2.5-5.5,5.5-5.5c3.1,0,5.5,2.5,5.5,5.5
		C243,126.9,240.5,129.3,237.4,129.3L237.4,129.3z"/>
	<path class="st4" d="M241.3,127.9l-7.2-8.6 M236.9,124l4.5-4.4"/>
</g>
</svg>
