<?xml version="1.0" encoding="utf-8"?>
<!-- Generator: Adobe Illustrator 19.0.0, SVG Export Plug-In . SVG Version: 6.00 Build 0)  -->
<svg version="1.1" id="Layer_1" xmlns="http://www.w3.org/2000/svg" xmlns:xlink="http://www.w3.org/1999/xlink" x="0px" y="0px"
	 viewBox="0 0 400 400" style="enable-background:new 0 0 400 400;" xml:space="preserve">
<style type="text/css">
	.st0{fill:#F5E202;}
	.st1{fill:#255CA6;}
	.st2{fill:#35529F;}
	.st3{fill:#848484;}
	.st4{fill:#C2C1C1;}
</style>
<g>
	<path class="st0" d="M199.6,396.3c9,0,170.3-86.7,170.3-327V3.6H29.3v65.7C29.3,309.6,190.6,396.3,199.6,396.3z"/>
	<path class="st1" d="M37.8,55.8c0,7.8,0,13.5,0,13.5c0,52.8,8,102.1,23.8,146.6c12.8,36.1,30.7,69.1,53.2,98
		c37.9,48.7,76.5,70.1,84.8,73.5c8.3-3.4,46.9-24.9,84.8-73.5c22.5-28.9,40.4-61.9,53.2-98c15.8-44.5,23.8-93.8,23.8-146.6
		c0,0,0-5.7,0-13.5H37.8z"/>
	<g>
		<path class="st0" d="M102.3,296.4l14.5-14.5c29.6-29.6,120.5-96.1,214.8-115.6v-20.9c-102.3,19.7-199,91.6-229.3,122V296.4z"/>
		<path class="st2" d="M331.6,124.6l-3.9,0.7c-98.2,18.9-186.5,81-225.5,114.4v27.7c30.4-30.4,127-102.3,229.3-122V124.6z"/>
	</g>
	<g>
		<path class="st3" d="M257.1,130.4c-3.6-1.7-8.9-0.9-8.9-12c5.7,0,7.7-1.2,7.7-4.6c-3.3-1.2-7.3-3.6-7.3-10.6
			c0-5-4.2-8.6-10.3-10.3c-1,0-1.3-1.9-1.3-3.2c0-2.2,1.3-4.5,1.3-6.5c-2.9,0-7.3,4-7.3,4v-5.8c-1.9,0-2.8,1.6-2.8,1.6h-7l-4.4,4.2
			h-18c-5.3,0-6.5,5.5-6.5,5.5c-13.2,0-17.5,5.7-17.5,9.8c0,0-2,4.8-2,9c0,2.9,6.3,3.2,12,3.2c4.5,0,6.6-2.6,9.7-4.1l0.5,0.3
			c1.5,0.8,2.3,2.4,2.6,4.6c-1.4-0.4-3-0.7-4.8-0.7c-7.5,0-13.6,4.2-20.8,4.2c-6.1,0-6-4.8-10.6-4.8c-1.8,0-4.2,1.4-4.2,5.5
			c0,5.5,5.6,9.4,12.2,9.4c11.4,0,9.4-7.5,23.8-7.5c1.4,0,2.8,0.1,4,0.3c-0.2,1.2-0.5,2.2-0.8,3.1c-1.3-0.7-2.9-1.2-4.8-1.2
			c-5.2,0-9,4.6-9,7.8c0,1.8,1.2,3.5,1.2,3.5h7.8c-1.9,1.9-3,4.2-3,4.2c-1.9,0-3.7,0.6-5.3,1.6c-3.3-1.9-7.7-3.6-12-3.6
			c-6.8,0-12.9-4-17.9-8.9c-1.9-1.8-2.8-4-4.2-5.6c-1.5-1.7-3.7-3-6.2-4.9c-1.7-1.1-3.5-2.9-5.3-2.9c-1.2,0-2.5,1.2-2.5,1.2
			s-2.2-3.1-6.6-3.1c-5.5,0-10.2,4.1-10.2,8.8c0,6.2,3.6,8,3.6,8s-1.4,2.8-1.4,5.4c0,8.5,5.4,11.4,11.4,11.4c5.9,0,4.8-1.6,7.8-1.6
			c7,0,15.1,14.6,31.9,14.6c0.6,0,1.2,0,1.8-0.1c-0.1,1.1-0.2,2.3-0.2,3.4c-9.8,0-11.1,6.2-17.8,6.2c-12.3,0-11-6.2-19.8-6.2
			c-5.1,0-9,2.3-9,5.8c-3.4,0-5.8,4.8-5.8,8.5c0,5.6,6,7.8,6,7.8s-1.1,2.2-1.1,4c0,4.7,3.7,5.5,6.2,5.5c7.5,0,3.2-4.4,13.3-4.4
			c14.7,0,12.8-4.6,17.5-4.6c6.8,0,8.6,0.2,15.1,0.2c23-13.8,49-27.4,77-38.7c0.1-1.2,0.1-2.5,0.1-3.7c0-6.3-2-8.3-2-8.3
			S257.1,135.4,257.1,130.4z"/>
		<g>
			<path class="st4" d="M198.2,115.7c2.4,0.7,4.5,1.6,7,1.6c0.5,0,1,0,1.5,0c-0.4-4.7-3-7.6-8.2-7.6c-1.2,0-2.3,0.2-3.2,0.6
				C196.5,110.9,197.8,112.5,198.2,115.7z"/>
			<path class="st4" d="M197.7,122.1c-0.3,1.2-0.6,2.4-0.9,3.4c2.1,1.3,3.5,2.9,4.5,2.9c1.8,0,3-1.3,3.9-3.1
				C203.6,124.1,201.1,122.8,197.7,122.1z"/>
		</g>
		<path class="st4" d="M157.7,119.7c0,4.9,5.1,8.7,11.5,8.7c5.1,0,7.3-1.5,9.9-3.3c2.8-2,6-4.2,13.9-4.2c5.8,0,9.9,1.9,12.5,3.7
			c0.7-1.7,1.1-3.9,1.1-6.2c0,0,0-0.2,0-0.5c-0.7,0-1.5,0.1-1.5,0.1c-2.1,0-3.9-0.6-5.9-1.2c-2-0.6-4.1-1.3-6.6-1.3
			c-3.7,0-7.1,1.1-10.4,2.1c-3.3,1-6.7,2.1-10.3,2.1c-3.6,0-5.2-1.5-6.6-2.8c-1.2-1.1-2.1-1.9-4-1.9
			C159.9,114.9,157.7,115.9,157.7,119.7z"/>
		<path class="st4" d="M232.6,124.2c0.2-0.1,0.4,0,0.5,0.1c4.1,7.3,11.5,8.6,18.1,10.1l1.7,0c0,0,1.4,0,2.4-0.9
			c0.6-0.6,0.9-1.6,1-2.7c-0.6-0.2-1.5-0.6-1.5-0.6c-3.3-1-7.3-2.3-7.3-11.9V118c0,0,0,0,0,0c-0.3,0-6.8-0.4-11-6.1
			c-0.1-0.2-0.1-0.4,0.1-0.5c0.2-0.1,0.4-0.1,0.5,0.1c4,5.5,10.4,6.1,10.5,6.1c0.1,0,0.2,0,0.2,0h0.4c5.5,0,6.8-1.2,6.9-3.4
			c-4.9-1.9-7.3-5.5-7.3-11c0-3.8-2.6-6.9-7.2-8.8c-0.4,3.1-2.4,6.8-2.4,6.8s0.3-2.3,0.3-4.2c0-0.9-0.2-2.2-0.5-3.5c0,0,0,0-0.1,0
			l0.1,0c0,0,0,0,0,0c-1.4-0.1-1.9-2.1-1.9-3.9c0-1.3,0.4-2.5,0.7-3.6c0.2-0.7,0.4-1.4,0.5-2c-2.1,0.5-5,2.8-6,3.7l-1.2,1.1
			c0,0,0-5.3,0-6.5c-1,0.3-1.5,1.1-1.5,1.1l-0.2,0.3l-0.4,0c0,0-6.2,0-6.7,0c-0.4,0.4-4.4,4.2-4.4,4.2h-18.3c-4.7,0-5.8,4.7-5.8,4.9
			l-0.1,0.6c4.8,0,9.9,1.5,9.9,1.5h8.8c0,0-7.3,5.4-8.4,7c-4.9-4.9-10.3-8.5-10.3-8.5l-0.6,0c-11.6,0-15.8,4.4-16.6,7.7
			c0,0-0.6,4.3,5,4.3c0,0-0.5,2-0.5,3c0,4.9,4.6,5.5,4.6,5.5c2.9,0,4.7-1.2,6.6-2.4c2-1.3,4-2.6,7.1-2.6c5.8,0,9,3.4,9,9.5
			c0,5.2-1.9,10.7-6,10.7c-0.9,0-1.7-0.6-2.8-1.5c-1.6-1.3-3.9-3-7.2-3c-4.8,0-8.3,4.2-8.3,7c0,1.2,0.6,2.3,0.9,2.8
			c0.7,0,9.1,0,9.1,0l-1.2,1.2c-1.8,1.8-2.8,4-2.9,4.1l-0.2,0.4h-0.4c-7.6,0-14.8,11.2-14.8,23v0.7h-0.7c-5.1,0-7.8,1.8-10.3,3.5
			c-2.2,1.4-4.2,2.8-7.4,2.8c-6.9,0-9.7-1.9-12.2-3.7c-2-1.4-3.8-2.6-7.5-2.6c-4.8,0-8.3,2.1-8.3,5v0.4c3.2,0,6.8,1.6,8.3,3.1
			c0.1,0.1,0.1,0.4,0,0.5c-0.1,0.1-0.4,0.1-0.5,0c-1.4-1.4-4.9-2.9-7.8-2.9c-0.2,0-0.4-0.2-0.4-0.4h-0.4c-1.8,0-3,1.6-3.6,2.5
			c-0.9,1.5-1.5,3.5-1.5,5.3c0,5,5.3,7,5.5,7.1l0.7,0.3l-0.4,0.7c0,0-1,2-1,3.7c0,4,3,4.8,5.5,4.8c3.2,0,3.9-0.8,4.9-1.7
			c1.2-1.2,2.7-2.7,8.4-2.7c9.2,0,11.7-1.8,13.5-3.1c1.1-0.8,2.1-1.5,4-1.5l15.8,0.2c0.1,0,0.3,0,0.6,0
			c11.2-6.7,23.2-13.4,35.7-19.7c-0.9-0.5-1.5-1-1.5-1l-0.5-0.4l0.5-0.2c0,0,4.4-2,4.4-5c0-0.8-0.6-1.4-1.3-2.1
			c-0.9-0.9-1.9-1.9-1.9-3.7c0-0.6,0.1-1.3,0.3-1.8c-1.8,1.1-3.8,1.8-6.3,1.8c-4.9,0-6.7-2.3-6.8-2.4l-0.2-0.3l0.4-0.2
			c0.1,0,6.3-3.7,6.3-8.2c0-0.3-0.1-0.5-0.3-0.8c-0.4-0.5-0.8-1.3-0.8-3.4c0-3.7,1.2-7,3.6-10.1c0.1-0.2,0.3-0.2,0.5-0.1
			c0.1,0.1,0.1,0.2,0.1,0.3c0,0.1,0,0.2-0.1,0.2c-2.3,3-3.4,6.1-3.4,9.7c0,1.9,0.4,2.5,0.7,3c0.2,0.3,0.4,0.6,0.4,1.1
			c0,4.3-4.9,7.7-6.3,8.6c0.6,0.6,2.4,1.8,5.9,1.8c9.3,0,13.3-11.3,13.3-11.4c0.1-0.2,0.3-0.3,0.4-0.2c0.2,0.1,0.3,0.3,0.2,0.5
			c0,0.1-2.1,6-6.8,9.4c-0.1,0.3-0.5,1.5-0.5,2.4c0,1.5,0.9,2.4,1.7,3.2c0.7,0.7,1.5,1.5,1.5,2.6c0,2.8-3,4.7-4.3,5.4
			c0.3,0.2,0.8,0.5,1.4,0.9c6.2-3.1,12.5-6.2,19-9.1c1.6-4.3,3.4-9.6,3.4-12.6c0-2.7-1-5.3-1-5.3c-0.1-0.2,0-0.4,0.2-0.5
			c0.2-0.1,0.4,0,0.5,0.2c0,0.1,1,2.7,1,5.5c0,2.9-1.6,7.9-3.2,12.1c6.1-2.8,12.4-5.5,18.7-8c0.1-1.3,0.1-2.6,0.1-4
			c0-5.8-1.8-7.8-1.8-7.8l-1-1.1c-6-0.7-14.6-2.3-18.9-9.9C232.4,124.5,232.5,124.3,232.6,124.2z"/>
		<path class="st4" d="M171,138.1c-6.1,0-12.1-3-18.4-9.1c-1.1-1.1-1.9-2.3-2.6-3.4c-0.5-0.8-1-1.6-1.6-2.3
			c-1.1-1.2-2.5-2.2-4.2-3.4l-1.9-1.4c0,0-1.4-1-1.4-1c-1.1-0.8-2.3-1.7-3.4-1.7c-0.6,0-1.2,0.4-1.6,0.7l0,0
			c0.6,1.9,3.3,7.7,3.3,7.7s-3.5-3.1-4.2-6.8l-0.5-0.7c-0.1-0.1-2.1-2.8-6.1-2.8c-5.1,0-9.5,3.8-9.5,8c0,5.7,3.1,7.3,3.2,7.4
			l0.6,0.3l-0.3,0.6c0,0-1.3,2.6-1.3,5.1c0,9.3,6.7,10.7,10.7,10.7c3.3,0,4.2-0.5,5-0.9c0.6-0.3,1.3-0.7,2.7-0.7
			c3,0,5.9,2.3,9.7,5.1c5.5,4.2,12.3,9.5,22.2,9.5c0.6,0,1.3,0,1.9-0.1c1-7.4,4.5-14.2,9.2-17.5C179.2,139.7,175.1,138.1,171,138.1z
			 M143.6,139.5c-4.8,0-11.5-4.9-11.5-6.8c2.2-1.2,4.6-3.8,5.4-5.4c1.5,1.5,4.2,4.3,5.2,5.4c0,0.6-0.9,0.5-0.9,2.4
			c0,1.4,5.2,3.3,5.2,3.8S145,139.5,143.6,139.5z"/>
		<path class="st3" d="M283.5,136.8c0.7-16,5.2-18,6.8-18c0.9,0,0.9,2.8,6,2.8c18.6,0,22.2-14.1,22.2-24.5c-3.8,0-11,4.9-14.6,4.9
			c-5.8,0-3.9-2.5-11.2-2.5c-7,0-10.8,3.2-10.8,13.2c0,0.5-9.9,4.9-9.9,26c0,0.7,0,1.4,0.1,2C275.8,139.3,279.7,138,283.5,136.8z"/>
		<path class="st4" d="M282.8,137c0.7-17.5,5.8-19,7.5-19c0.6,0,1,0.4,1.3,0.8c0.6,0.8,1.5,1.9,4.7,1.9c18.2,0,21.4-14,21.5-23
			c-1.7,0.2-4.1,1.3-6.4,2.3c-2.8,1.3-5.5,2.5-7.5,2.5c-2.9,0-4-0.6-5.1-1.2c-1.2-0.6-2.4-1.3-6.1-1.3c-7.1,0-10,3.6-10,12.5
			c0,0.4-0.3,0.6-0.8,1c-6.1,4.7-9.1,13.1-9.1,25c0,0.6,0,1.2,0,1.8C276.1,139.2,279.4,138.1,282.8,137z"/>
		<path class="st3" d="M277.4,182.4c-0.5,14.3-3.6,30.1-22.1,30.1c0-7.5-4.4-13.3-8.5-17c-28.6,13.4-54.9,29-76.7,44
			c2.8,3.1,5.6,6.3,5.6,8.5c0,2.9-1,3.9-1,3.9s-3,0-4.4,0c-4.3,0-7.3-2.8-9.6-5.9c-8.1,5.8-15.5,11.4-22,16.6
			c1.6,1.6,3.5,2.2,4.6,2.2c16.8,0,18.4,4.8,36,4.8c16,0,21-4.1,21-9c0-7.3-4.4-7.6-4.4-11.4c0-2.8,3.2-5.4,5.4-5.4
			c0.3,0,0.6,0,0.9,0c2,15.1,22.1,15.5,22.1,24.7c0,6.6-7.1,14.5-13.2,14.5c-7.4,0-5-2.5-14.1-2.5c-6.6,0-10,2.8-10,6.6
			c0,3.1,2.2,3.9,2.2,3.9s-2.5,1.6-2.5,5.4c0,5.1,7.6,4.8,7.6,4.8s-1.2,1.2-1.2,2.8c0,3.5,4.5,4.5,10.8,4.5c9.6,0,12.4-3,16-3
			s2.8,0.4,6.6,0.4c6,0,8.8-12.2,15.7-20.4c5.6-6.7,14.7-3.3,14.7-13.4c0-9.2-7.9-7.9-7.9-18.1c0-14.4,11.1-8.9,11.1-27.6
			c22.9-4.4,27.1-15.1,27.1-39.6c0-2.5-0.1-5.2-0.3-7.5C283.7,180.1,280.5,181.2,277.4,182.4z"/>
		<path class="st4" d="M278.1,182.1c-0.4,13.8-3.3,31-22.9,31h-0.7v-0.7c0-7.4-4.5-13.1-8.5-16.7c-13.4,6.3-26.3,13.1-38.4,20.1
			c1.7,3,3,5.6,3.2,5.8l0.2,0.4l-0.3,0.4c-0.1,0.1-8,9.3-8,18.8c0,9.7,7,13.8,13.2,17.4c4.6,2.7,9,5.3,9,9.8c0,7.1-7.4,15.2-14,15.2
			c-3.6,0-5.1-0.6-6.5-1.2c-1.5-0.6-3-1.3-7.7-1.3c-5.8,0-9.3,2.2-9.3,5.9c0,2.5,1.7,3.2,1.8,3.2l1.3,0.5l-1.2,0.8
			c-0.1,0.1-2.2,1.5-2.2,4.8c0,1,0.3,1.8,1,2.4c1.9,1.8,5.9,1.6,5.9,1.6l1.8-0.1l-1.3,1.3c0,0-1,1.1-1,2.2c0,2.6,3.2,3.8,10,3.8
			c5.8,0,9-1.1,11.6-2c1.6-0.5,2.9-1,4.4-1c1.8,0,2.6,0.1,3.3,0.2c0.7,0.1,1.4,0.2,3.4,0.2c3.3,0,5.7-4.5,8.5-9.6
			c1.9-3.4,4-7.3,6.7-10.6c2.4-2.9,5.3-4,8-5c3.8-1.4,6.6-2.5,6.6-8c0-4.2-1.7-6.1-3.6-8c-2-2.1-4.3-4.5-4.3-10.1
			c0-7,2.7-9.6,5.2-12.1c2.9-2.8,5.9-5.8,5.9-15.5v-0.6l0.6-0.1c22.9-4.4,26.5-15.1,26.5-38.9c0-2.4-0.1-5-0.3-7.3
			C283.5,180.2,280.8,181.1,278.1,182.1z"/>
		<path class="st4" d="M210.1,222c0,0-1.4-2.7-3.1-5.8c-13.1,7.5-25.3,15.3-36.4,22.8c2.9,3.2,5.7,6.4,5.7,8.9
			c0,3.1-1.1,4.3-1.2,4.4l0,0c1.2,0.1,2.9,0.2,5.2,0.1c0.2,0,0.3,0,0.4-0.1c0.1-0.1,0.1-0.4,0.1-0.4l1-0.1c0,0.1,0,0.7-0.4,1.1
			c-0.2,0.2-0.5,0.5-1.1,0.5c-4.1,0.2-6.9-0.1-8.4-0.9h-1.7c-4.6,0-7.8-3-10.2-6.2c-4.2,3-8.3,6-12.1,9c0.3,0.2,0.6,0.3,0.6,0.3
			s-0.3,0-0.9-0.1c-2.9,2.2-5.7,4.4-8.4,6.6c1.4,1.4,3.1,2,4,2c8.4,0,13.1,1.2,17.7,2.4c4.7,1.2,9.5,2.4,18.3,2.4
			c13.3,0,20.3-2.9,20.3-8.3c0-4-1.4-5.7-2.6-7.2c-0.9-1.2-1.8-2.3-1.8-4.2c0-3.2,3.5-6.1,6.1-6.1c0.3,0,0.6,0,0.8,0
			c-0.1-0.6-0.1-1.2-0.1-1.8C202,231.4,210.1,222,210.1,222z"/>
	</g>
	<g>
		<path class="st1" d="M43.9,19.1v26h5.2c0,0,0-10.2,0-11c0.8,0,7.3,0,7.3,0v-4.8c0,0-6.6,0-7.3,0c0-0.7,0-4.6,0-5.3
			c0.8,0,7.7,0,7.7,0v-4.8H43.9z"/>
		<path class="st1" d="M44.3,44.6V19.5h12v4h-7.7v6.2H56v4h-7.3v11H44.3z"/>
		<path class="st1" d="M60.9,19.1v26h5.2c0,0,0-9.7,0-10.4c0.4,0,1,0,1,0c0.8,0,1.3,0.2,1.7,0.5c0.2,0.2,0.6,0.7,0.9,1.8l2.7,8.1
			h5.7l-3.7-10.4c-0.4-1.2-1-2-1.6-2.5c1-0.4,1.9-0.9,2.5-1.8c0.8-1.1,1.3-2.5,1.3-4.1c0-3.3-1.2-5.4-3.6-6.4
			c-1.3-0.6-3.6-0.8-7-0.8H60.9z M67.1,23.9c1.3,0,2.3,0.2,2.9,0.4c0.8,0.4,1.2,1.2,1.2,2.4c0,1.3-0.4,3.1-4.2,3.1c0,0-0.6,0-1,0
			c0-0.7,0-5.2,0-5.9C66.5,23.9,67.1,23.9,67.1,23.9z"/>
		<path class="st1" d="M61.3,44.6V19.5H66c3.3,0,5.6,0.3,6.8,0.8c2.2,0.9,3.3,2.9,3.3,6c0,1.5-0.4,2.8-1.2,3.8
			c-0.8,1.1-1.9,1.8-3.3,2v0.1c1,0.1,1.7,1,2.3,2.6l3.5,9.8h-4.8l-2.6-7.8c-0.3-1-0.7-1.7-1.1-2c-0.4-0.4-1.1-0.6-2-0.6h-1.4v10.4
			H61.3z M65.7,23.5v6.8h1.4c3.1,0,4.6-1.2,4.6-3.5c0-1.3-0.5-2.3-1.5-2.8c-0.7-0.3-1.7-0.5-3.1-0.5H65.7z"/>
		<path class="st1" d="M83.8,22.3C82,24.7,81,27.9,81,32c0,4,0.9,7.3,2.8,9.7c2,2.5,4.7,3.8,8.3,3.8c3.5,0,6.2-1.3,8.2-3.9
			c1.9-2.4,2.8-5.7,2.8-9.6c0-4-1-7.2-2.8-9.6c-2-2.5-4.7-3.8-8.2-3.8C88.6,18.6,85.8,19.9,83.8,22.3z M87.7,38L87.7,38
			c-0.9-1.6-1.3-3.6-1.3-6c0-2.4,0.5-4.4,1.4-5.9c1-1.8,2.4-2.6,4.3-2.6c1.9,0,3.3,0.9,4.3,2.6c0.9,1.6,1.4,3.5,1.4,5.9
			c0,2.5-0.4,4.5-1.3,6c-1,1.8-2.4,2.6-4.3,2.6C90.1,40.6,88.7,39.8,87.7,38z"/>
		<path class="st1" d="M81.5,32c0-3.9,0.9-7.1,2.7-9.4c1.9-2.4,4.5-3.6,7.9-3.6c3.3,0,5.9,1.2,7.8,3.6c1.8,2.3,2.8,5.4,2.8,9.3
			c0,3.9-0.9,7-2.7,9.4C98,43.8,95.4,45,92.1,45c-3.4,0-6-1.2-7.9-3.7C82.4,39.1,81.5,35.9,81.5,32z M86,32c0,2.5,0.5,4.6,1.4,6.3
			c1.1,1.9,2.6,2.8,4.7,2.8c2.1,0,3.6-0.9,4.7-2.8c0.9-1.6,1.4-3.7,1.4-6.3c0-2.5-0.5-4.5-1.4-6.1C95.6,24,94.1,23,92.1,23
			c-2,0-3.6,0.9-4.7,2.8C86.5,27.5,86,29.5,86,32z"/>
		<path class="st1" d="M109.9,20.4L109.9,20.4c-1.7,1.4-2.5,3.5-2.5,6.3c0,2.5,0.9,4.5,2.6,5.9c0.2,0.1,0.9,0.5,4.6,2.5
			c1.5,0.8,2.2,1.7,2.2,2.8c0,0.9-0.4,1.6-1.1,2.1c-0.7,0.5-1.4,0.7-2.3,0.7c-1.5,0-3.1-0.5-4.7-1.5l-0.6-0.4l-0.5,5.6l0.3,0.1
			c2.3,0.7,4.2,1,5.7,1c2.5,0,4.5-0.6,6-1.8c1.7-1.4,2.6-3.5,2.6-6.2c0-2.5-0.9-4.5-2.6-5.9c-0.3-0.2-1.1-0.7-4.7-2.5
			c-1.5-0.7-2.2-1.6-2.2-2.5c0-1.1,0.3-1.9,1-2.4c0.5-0.4,1.2-0.6,2-0.6c1.4,0,2.8,0.4,4.2,1l0.6,0.3l0.5-5.1l-0.3-0.1
			c-1.6-0.6-3.4-0.9-5.3-0.9C113.1,18.6,111.3,19.2,109.9,20.4z"/>
		<path class="st1" d="M120.5,19.9l-0.4,4.2c-1.4-0.7-2.9-1.1-4.4-1.1c-0.9,0-1.7,0.2-2.3,0.7c-0.8,0.6-1.2,1.5-1.2,2.8
			c0,1.1,0.8,2.1,2.5,2.9c2.6,1.3,4.2,2.1,4.6,2.4c1.6,1.3,2.5,3.2,2.5,5.6c0,2.6-0.8,4.6-2.4,5.9c-1.4,1.2-3.3,1.7-5.7,1.7
			c-1.4,0-3.3-0.3-5.6-1l0.4-4.5c1.6,1,3.3,1.5,4.9,1.5c0.9,0,1.8-0.3,2.5-0.8c0.9-0.6,1.3-1.4,1.3-2.5c0-1.3-0.8-2.3-2.5-3.2
			c-2.8-1.5-4.3-2.3-4.6-2.4c-1.6-1.3-2.5-3.1-2.5-5.5c0-2.6,0.8-4.6,2.3-5.9c1.3-1.1,3.1-1.7,5.2-1.7C117.3,19,119,19.3,120.5,19.9
			z"/>
		<rect x="126.8" y="19.1" class="st1" width="5.2" height="26"/>
		<path class="st1" d="M127.2,44.6V19.5h4.3v25.1H127.2z"/>
		<path class="st1" d="M151.1,19.1c0,0,0,14.3,0,17.3c-1.2-2.9-7.6-17.3-7.6-17.3h-6v26h5c0,0,0-14.3,0-17.3
			c1.2,2.8,7.6,17.3,7.6,17.3h6v-26H151.1z"/>
		<path class="st1" d="M137.9,44.6V19.5h5.3l8.2,18.8h0.1V19.5h4.2v25.1h-5.3l-8.2-18.8h-0.1v18.8H137.9z"/>
		<path class="st1" d="M163.7,22.3c-1.9,2.4-2.8,5.6-2.8,9.6c0,4,0.9,7.3,2.8,9.7c2,2.5,4.7,3.8,8.3,3.8c3.5,0,6.2-1.3,8.2-3.9
			c1.9-2.4,2.8-5.7,2.8-9.6c0-4-1-7.2-2.8-9.6c-2-2.5-4.7-3.8-8.2-3.8C168.4,18.6,165.6,19.9,163.7,22.3z M167.5,38L167.5,38
			c-0.9-1.6-1.3-3.6-1.3-6c0-2.4,0.5-4.4,1.4-5.9c1-1.8,2.4-2.6,4.3-2.6c1.9,0,3.3,0.9,4.3,2.6c0.9,1.6,1.4,3.5,1.4,5.9
			c0,2.5-0.4,4.5-1.3,6c-1,1.8-2.4,2.6-4.3,2.6C170,40.6,168.5,39.8,167.5,38z"/>
		<path class="st1" d="M161.3,32c0-3.9,0.9-7.1,2.7-9.4c1.9-2.4,4.5-3.6,7.9-3.6c3.3,0,5.9,1.2,7.8,3.6c1.8,2.3,2.8,5.4,2.8,9.3
			c0,3.9-0.9,7-2.7,9.4c-1.9,2.5-4.5,3.7-7.9,3.7c-3.4,0-6-1.2-7.9-3.7C162.2,39.1,161.3,35.9,161.3,32z M165.8,32
			c0,2.5,0.5,4.6,1.4,6.3c1.1,1.9,2.6,2.8,4.7,2.8c2.1,0,3.6-0.9,4.7-2.8c0.9-1.6,1.4-3.7,1.4-6.3c0-2.5-0.5-4.5-1.4-6.1
			c-1.1-1.9-2.6-2.8-4.6-2.8c-2,0-3.6,0.9-4.7,2.8C166.3,27.5,165.8,29.5,165.8,32z"/>
		<path class="st1" d="M201.3,19.1c0,0,0,14.3,0,17.3c-1.2-2.9-7.6-17.3-7.6-17.3h-6v26h5c0,0,0-14.3,0-17.3
			c1.2,2.8,7.6,17.3,7.6,17.3h6v-26H201.3z"/>
		<path class="st1" d="M188.1,44.6V19.5h5.3l8.2,18.8h0.1V19.5h4.2v25.1h-5.3l-8.2-18.8h-0.1v18.8H188.1z"/>
		<path class="st1" d="M212.1,19.1v26h13.7v-4.8c0,0-7.7,0-8.5,0c0-0.7,0-5.5,0-6.2c0.8,0,7.7,0,7.7,0v-4.8c0,0-6.9,0-7.7,0
			c0-0.7,0-4.6,0-5.3c0.8,0,8.4,0,8.4,0v-4.8H212.1z"/>
		<path class="st1" d="M212.5,44.6V19.5h12.8v4h-8.4v6.2h7.7v4h-7.7v7.1h8.5v4H212.5z"/>
		<path class="st1" d="M243.9,22.2L243.9,22.2c-2.2,2.4-3.3,5.9-3.3,10.2c0,4.2,1.2,7.5,3.4,9.8c2.1,2.1,5.1,3.2,8.9,3.2
			c1.4,0,3.1-0.3,5-0.8l0.3-0.1l-0.2-5.3l-0.6,0.4c-1.1,0.6-2.6,1-4.5,1c-2.1,0-3.8-0.8-5.1-2.4c-1.2-1.6-1.9-3.6-1.9-6.1
			c0-2.5,0.6-4.6,1.9-6.2c1.3-1.6,2.9-2.5,4.9-2.5c1.7,0,3.2,0.4,4.4,1.3l0.6,0.4l0.4-5.3l-0.3-0.1c-1.6-0.7-3.3-1.1-5.1-1.1
			C249.1,18.6,246.1,19.8,243.9,22.2z"/>
		<path class="st1" d="M257.7,40l0.2,4.2c-1.9,0.5-3.6,0.8-4.9,0.8c-3.6,0-6.5-1-8.6-3.1c-2.2-2.2-3.3-5.3-3.3-9.5
			c0-4.3,1.1-7.6,3.2-10c2.1-2.3,5-3.5,8.7-3.5c1.7,0,3.4,0.3,4.9,1l-0.3,4.3c-1.3-0.9-2.9-1.3-4.7-1.3c-2.2,0-3.9,0.9-5.3,2.6
			c-1.3,1.7-1.9,3.9-1.9,6.5s0.6,4.8,1.9,6.4c1.3,1.7,3.1,2.6,5.4,2.6C254.9,41.1,256.5,40.7,257.7,40z"/>
		<path class="st1" d="M268.8,19.1l-8.7,26h5.4c0,0,1.7-5.2,1.9-5.8c0.6,0,7.6,0,8.1,0c0.2,0.5,1.9,5.8,1.9,5.8h5.7l-8.7-26H268.8z
			 M271.5,25.9c0.5,1.8,2.3,7.7,2.6,8.6c-0.9,0-4.3,0-5.2,0C269.2,33.6,271,27.7,271.5,25.9z"/>
		<path class="st1" d="M260.7,44.6l8.4-25.1h4.9l8.5,25.1h-4.8l-1.9-5.8h-8.8l-1.9,5.8H260.7z M274.7,34.9l-3.1-10.4h-0.1l-3.1,10.4
			H274.7z"/>
		<path class="st1" d="M286.8,19.1v26h13.6v-4.8c0,0-7.6,0-8.4,0c0-0.8,0-21.2,0-21.2H286.8z"/>
		<path class="st1" d="M287.2,44.6V19.5h4.3v21.2h8.4v4H287.2z"/>
		<path class="st1" d="M306.4,22.2L306.4,22.2c-2.2,2.4-3.3,5.9-3.3,10.2c0,4.2,1.2,7.5,3.4,9.8c2.1,2.1,5.1,3.2,8.9,3.2
			c1.4,0,3.1-0.3,5-0.8l0.3-0.1l-0.2-5.3l-0.6,0.4c-1.1,0.6-2.6,1-4.5,1c-2.1,0-3.8-0.8-5.1-2.4c-1.2-1.6-1.9-3.6-1.9-6.1
			c0-2.5,0.6-4.6,1.9-6.2c1.3-1.6,2.9-2.5,4.9-2.5c1.7,0,3.2,0.4,4.4,1.3l0.6,0.4l0.4-5.3l-0.3-0.1c-1.6-0.7-3.3-1.1-5.1-1.1
			C311.5,18.6,308.5,19.8,306.4,22.2z"/>
		<path class="st1" d="M320.1,40l0.2,4.2c-1.9,0.5-3.6,0.8-4.9,0.8c-3.6,0-6.5-1-8.6-3.1c-2.2-2.2-3.3-5.3-3.3-9.5
			c0-4.3,1.1-7.6,3.2-10c2.1-2.3,5-3.5,8.7-3.5c1.7,0,3.4,0.3,4.9,1l-0.3,4.3c-1.3-0.9-2.9-1.3-4.7-1.3c-2.2,0-3.9,0.9-5.3,2.6
			c-1.3,1.7-1.9,3.9-1.9,6.5s0.6,4.8,1.9,6.4c1.3,1.7,3.1,2.6,5.4,2.6C317.4,41.1,318.9,40.7,320.1,40z"/>
		<rect x="324.6" y="19.1" class="st1" width="5.2" height="26"/>
		<path class="st1" d="M325,44.6V19.5h4.3v25.1H325z"/>
		<path class="st1" d="M337.2,22.3c-1.9,2.4-2.8,5.6-2.8,9.6c0,4,0.9,7.3,2.8,9.7c2,2.5,4.7,3.8,8.3,3.8c3.5,0,6.2-1.3,8.2-3.9
			c1.9-2.4,2.8-5.7,2.8-9.6c0-4-1-7.2-2.8-9.6c-2-2.5-4.7-3.8-8.2-3.8C341.9,18.6,339.1,19.9,337.2,22.3z M339.7,32
			c0-2.4,0.5-4.4,1.4-5.9c1-1.8,2.4-2.6,4.3-2.6c1.9,0,3.3,0.9,4.3,2.6c0.9,1.6,1.4,3.5,1.4,5.9c0,2.5-0.4,4.5-1.3,6
			c-1,1.8-2.4,2.6-4.3,2.6c-1.9,0-3.3-0.9-4.3-2.6C340.2,36.5,339.7,34.4,339.7,32z"/>
		<path class="st1" d="M334.8,32c0-3.9,0.9-7.1,2.7-9.4c1.9-2.4,4.5-3.6,7.9-3.6c3.3,0,5.9,1.2,7.8,3.6c1.8,2.3,2.8,5.4,2.8,9.3
			c0,3.9-0.9,7-2.7,9.4c-1.9,2.5-4.5,3.7-7.9,3.7c-3.4,0-6-1.2-7.9-3.7C335.7,39.1,334.8,35.9,334.8,32z M339.3,32
			c0,2.5,0.5,4.6,1.4,6.3c1.1,1.9,2.6,2.8,4.7,2.8c2.1,0,3.6-0.9,4.7-2.8c0.9-1.6,1.4-3.7,1.4-6.3c0-2.5-0.5-4.5-1.4-6.1
			c-1.1-1.9-2.6-2.8-4.6-2.8c-2,0-3.6,0.9-4.7,2.8C339.8,27.5,339.3,29.5,339.3,32z"/>
	</g>
</g>
</svg>
