<?xml version="1.0" encoding="utf-8"?>
<!-- Generator: Adobe Illustrator 19.0.0, SVG Export Plug-In . SVG Version: 6.00 Build 0)  -->
<svg version="1.1" id="Layer_1" xmlns="http://www.w3.org/2000/svg" xmlns:xlink="http://www.w3.org/1999/xlink" x="0px" y="0px"
	 viewBox="0 0 400 400" style="enable-background:new 0 0 400 400;" xml:space="preserve">
<style type="text/css">
	.st0{fill-rule:evenodd;clip-rule:evenodd;fill:#ED1C24;}
	.st1{fill-rule:evenodd;clip-rule:evenodd;fill:#034694;}
	.st2{fill-rule:evenodd;clip-rule:evenodd;fill:#FFFFFF;}
	
		.st3{fill-rule:evenodd;clip-rule:evenodd;fill:#FFE600;stroke:#000000;stroke-width:0.5381;stroke-linejoin:round;stroke-miterlimit:2.6131;}
	.st4{fill:none;stroke:#000000;stroke-width:0.5381;stroke-linejoin:round;stroke-miterlimit:2.6131;}
	.st5{fill-rule:evenodd;clip-rule:evenodd;stroke:#000000;stroke-width:0.5381;stroke-linejoin:round;stroke-miterlimit:2.6131;}
	.st6{fill:#ED1C24;}
	.st7{fill:none;stroke:#000000;stroke-width:0.4484;stroke-linecap:round;stroke-linejoin:round;stroke-miterlimit:2.6131;}
</style>
<g>
	<path id="XMLID_36_" class="st0" d="M68.2,17.3h262.3v278.8c0,0,0,65.5-65.6,65.5c-65.2,0-65.6,21.8-65.6,21.8s-0.2-21.8-65.6-21.8
		c-65.7,0-65.6-65.5-65.6-65.5V17.3L68.2,17.3z"/>
	<path id="XMLID_35_" class="st1" d="M199.3,17.3h131.2v278.8c0,0,0,65.5-65.6,65.5c-65.2,0-65.6,21.8-65.6,21.8L199.3,17.3
		L199.3,17.3z"/>
	<polygon id="XMLID_34_" class="st2" points="68.2,17.6 330.5,17.3 330.5,99.5 68.2,99.5 68.2,17.6 	"/>
	<path id="XMLID_33_" class="st3" d="M157.6,305.4c0.6,2,1.2,4,1.7,6.1c-2.6,0.8-5-0.4-7.1-1.9C153.4,307.5,155.3,305.8,157.6,305.4
		L157.6,305.4z"/>
	<path id="XMLID_32_" class="st3" d="M161.6,320.4c-1.8,1.8-5.3,2.7-7.6,2.2c0.2-2.2,1.9-5.1,3.7-6.7L161.6,320.4L161.6,320.4z"/>
	<path id="XMLID_31_" class="st3" d="M210.6,321.8l-2.1,6.5c-2.3-0.8-3.7-3.6-4.6-5.5C205.6,321.6,208.4,321,210.6,321.8
		L210.6,321.8z"/>
	<path id="XMLID_30_" class="st3" d="M171.5,325.8c-1.5,2-4.3,3.3-6.7,3.6c-0.2-0.4-0.3-1.1-0.3-1.6c0-1.8,0.7-3.5,1.8-4.9
		L171.5,325.8L171.5,325.8z"/>
	<path id="XMLID_29_" class="st3" d="M197.6,320.6c0.4,3,0.2,5.9-1.5,8.2c-1.3-1.9-3.8-3.1-4.4-5.3l5.5-2.9L197.6,320.6L197.6,320.6
		z"/>
	<path id="XMLID_28_" class="st3" d="M210.9,344.3c-1.4,2.3-3.8,3.5-6.2,3.9c-0.7-2.1-0.9-5.1,0.1-7L210.9,344.3L210.9,344.3z"/>
	<path id="XMLID_27_" class="st3" d="M251,347.9c-2.1-1.3-6.2-1.3-7.7-3.6l1.2-1l4.2-3.8C250,341.7,251.5,345.1,251,347.9L251,347.9
		z"/>
	<path id="XMLID_26_" class="st3" d="M225.3,350.4c-1.3,2.2-4.5,3.5-6.7,4.1c-0.8-1.8-1.2-5.3-0.5-7.1L225.3,350.4L225.3,350.4z"/>
	<path id="XMLID_25_" class="st3" d="M143.8,219.3c-1.5,1.4-4.9,3-6.5,4.4c-1.8-1.7-2.2-6.7-1.8-9
		C137.8,214.9,142.3,217.4,143.8,219.3L143.8,219.3z"/>
	<path id="XMLID_24_" class="st3" d="M134.3,229.9c-0.1,2.1,0,5-0.1,7.2c-2.5-0.1-6.3-2.3-7.6-4.3
		C128.3,231.2,131.8,229.5,134.3,229.9L134.3,229.9z"/>
	<path id="XMLID_23_" class="st3" d="M141.4,249.7c-2.2,1.4-6.9,2.5-9.1,1.6c0.5-2.1,3.2-5.7,5.3-6.6
		C138.7,246.5,140.3,247.9,141.4,249.7L141.4,249.7z"/>
	<path id="XMLID_22_" class="st3" d="M168.4,262.5l-0.6,1c-1.3-1.9-6.6-3.6-7.1-6l7.6-4.7C168.3,252.7,169.4,260.3,168.4,262.5
		L168.4,262.5z"/>
	<path id="XMLID_21_" class="st3" d="M142.4,156.8l-4.9,4.8c-1.9-1.5-2.7-4.5-2.8-6.9C137,154.6,140.8,155.3,142.4,156.8
		L142.4,156.8z"/>
	<path id="XMLID_20_" class="st3" d="M133.5,169.1l-1.5,7c-2.5-0.2-6.5-3.4-7.6-5.5C126.3,169.4,131.2,168.5,133.5,169.1
		L133.5,169.1z"/>
	<path id="XMLID_19_" class="st3" d="M140.6,196.6c-1.5,1.1-5,2.2-6.7,1.9c0.1-1.8,1.5-6.3,2.9-7.7L140.6,196.6L140.6,196.6z"/>
	<path id="XMLID_18_" class="st3" d="M272.4,215.3c1.1,2,2.1,4.1,2.7,6.3c2.3,1,4.9,1.6,6.7,3.8c1.2,1.3,2.1,2.8,2.9,4.4
		c0,0.3,0.2,0.3,0.2,0.6l0.1,0.2c0.8,5.8,0.2,11.3-0.4,16.6l-8.7-5.3c-5.1-3.3-8.7-8.2-7.8-14.4c0.1-1.1,0.4-2.2,0.8-3.2
		c0.3-2-0.1-4.3-0.8-6.1c-1.6-2.8-4-6.3-7.5-7c-1.8-0.1-3,1.5-3.7,2.9c-1.6,4.1-0.5,9.4,0.6,13.6c1.1,4,2.5,7.8,4,11.6l4.7,11.1
		c2.5,5.9,5.1,11.7,6.6,18.1c1.3,5.3-0.3,10.5-4.6,13.8c-5.6,3.4-12.5,1.2-17.9-0.8c-2.5-1-5-2.1-7.4-3.3c-0.3,3.4-1.1,6.6-3.6,9.3
		c-1.1,1.4-2.4,2.6-3.7,3.6c-4.5,3-10,4.6-13.3,9.8c0.7,0.2,1.6,0.2,2.4,0.2c4.6-0.1,8.8-1.6,13.5-1.7c3.5,0,7.3,2.5,8.5,5.8
		c0.6,1.3,0.8,3,0.6,4.4l0.1,0c-0.2,1.4-0.8,2.6-1,4c-0.7,2-1.2,4-2.3,5.9c-0.2,0.2-0.3,0.5-0.4,0.7l0.1,0c-0.9,1.2-1.3,2.6-2.2,3.8
		c-1.8,2.7-4.8,5.1-5.2,8.2c0,0.7,0.1,1.5,0.5,2.1c3.5,3.2,8.7,1.2,12.4,3.6c0.5,0.4,0.9,0.8,1.2,1.3l-6.8,6.1c-0.7,0-1.3,0-1.8-0.3
		c-2-3.7-6.1-3.7-9-6.4c-5.4,1.7-4.4,7.9-6.7,11.8c-0.2,0.2-0.4,0.5-0.6,0.7l-8.3-3.2c-0.9-0.9,0-1.9,0.3-2.8
		c1.7-3.1,4.6-5.3,6.8-8.2c-2.6-1.4-4.4,1.3-6.5,2.1c-1.7,2.3-3.2,5.8-6.4,6.1l-0.3-0.1l-7.5-3.9c-0.2-1.7,0.2-3.5,1.7-4.6
		c2-1.7,4.9-2.1,6.6-4.2c-1.7-0.8-3.5-2.1-4.4-3.8l2.8-7.4c2.2,0.6,4.2,2,6,3.8c3.7,1.7,8.6,3.1,12.5,0.6c1.4-1,2-2.6,2.9-4
		c1.5-2.8,3-5.6,2.9-8.9c-0.1-1.3-0.6-2.4-1.5-3.3c-1-0.5-2.2-0.9-3.4-0.6l-5.6,1.8c-1,0.5-2.2,0.9-3.3,1.2l-7.7,1.9
		c-3.3,0.4-3.5,0.4-6.7-0.7c-4.4-1.4-6.4-2.5-8-5.4c-2.7-4.9-4.5-10.5-4.4-16.7c0.2-6.4,0.3-13.3,6.2-17.4c3.4-2.6,7.9-3.4,11.5-5.7
		c2.6-1.9,3.8-4.9,3.3-8l-0.1,0.4c0.2,2-0.7,5.2-2.2,6.5c-2.5,1.7-5.5,3-8.1,4.4c-3.7,1.7-7.1,3-8.7,7c-1.8,4.3-2,7.9-2.1,12.8
		c0.1,5.1,1.1,9.9,3.1,14.1c-2.3,1.3-7,3.7-8.4,6.2c2.1,4.2,7.9,2.5,9.4,7.2l0.4,1.3l-6.9,3.7c-0.4-0.1-1.1,0-1.1-0.6
		c-0.7-1.6-2.3-3.3-4.1-3.6c-3.7-0.6-7,1.2-10.2,2.2c-1.2,1.8-2.1,3.7-3.7,5.3l-0.6,0.3c-2.3-1.8-4.4-2.4-6.6-4.4
		c1-1.4,2.6-2.7,3-4.5c-2.7-0.4-3.9,3.1-6.6,2.5c-0.7-0.3-1.1-1-1.6-1.6c-0.8-1.1-1.9-2.5-3.2-2.9l-0.4-0.4l1.4-1.1
		c1.7-0.5,3.7-0.6,5.1-1.6l0.5-0.5c-1.2-1.4-3.2-0.1-4.6-0.7c-0.5-1.1-0.3-2.4-0.7-3.6c-0.3-1.1-0.8-2.1-1.2-3.2
		c0.5-0.5,1.5-1.4,3.1-1.5c12.8,0.4,15.5,4.8,24.7-3.3c-2.4-6.4-11.7-7.7-12.6-16.6c-0.1-7.2,3.2-13.9,9-18.7
		c4.1-2.7,8.3-5.4,13.4-6.3c1.1-1.8,0.5-4.5-0.1-6.4c-1.1-3.2-11.8-13.9-14.4-16.2l11.8-0.7c2.2,1.1,4.3,2.4,6.8,2.4
		c2.5-0.3,3.9-2.9,5.3-4.8c1.5-2.1,2.9-4.6,5-6.2c2-1.6,3.9-3.3,6.2-4.3l3.2,5.6c1.9,9.9,6.4,18.8,15.6,24.4
		c4.9,2.3,6.4,7.4,8.3,11.8c0.6,2.6,1.5,5.2,1.4,8c5.2,2.7,10.5,5.2,16.2,6.1c2.1,0.3,4.9,0.3,6.5-1.3c2.5-2.4,2.4-6,1.4-9.2
		c-1.2-4.4-3.1-8.5-4.7-12.7l-6-14c-2.8-7.2-5.7-14.6-5.9-23c0-4.4,1.5-8.9,5.5-11.4c3.1-1.9,7.2-1,10,1.1
		C269.1,210.2,271,212.8,272.4,215.3L272.4,215.3z"/>
	<path id="XMLID_17_" class="st3" d="M144.8,157.5c2.5,3.2,2.7,8.6,7.6,9.6c2.4,3.9-0.7,8.2,1.3,12.2c0.8,1.2,2.1,1.9,3.3,2.8
		c1.7,1.1,7.1,4.3,8.9,5.1c-3.2,4.4-2.8,6.9-2,12.5c-2.9-3.6-11-6.9-15.4-8.7c-2.3,2.1-3.8,5.6-6.7,6.6c-0.5,0.1-1,0.1-1.5-0.1
		l-5.2-6.3c-0.2-1.2,0.6-2.2,1.5-2.9l6.8-5.2c-1.9-1.7-2.4-4.8-5.2-5.4c-1.9-0.2-3.9-0.1-5.9-0.2c-0.5-0.1-1-0.4-1.3-0.9l1.3-7.7
		l0.6-0.6c3.1-0.2,5.8,1.1,8.7,1.7c0.3,0,0.7,0.1,0.9-0.2c0.2-0.3,0-0.6-0.2-0.9c-1.5-2-3.8-3.5-5.1-5.6c0-1.2,0.6-2.3,1.2-3.3
		c1.5-1.3,2.6-3.5,4.8-3.1C143.9,157,144.3,157.2,144.8,157.5L144.8,157.5z"/>
	<path id="XMLID_16_" class="st3" d="M172.6,223.3l-1.2-3.2c-4.9-6.7-8.2-14.2-9.4-22.8c-0.5-4.7,0.6-11.2,4.5-14.3l2-1.4
		c-1.2-2.6,0.2-4.9,1.9-7c2.6-3.3,6.6-6.3,6.8-10.5c-1.6-4.1-2.9-8.4-5.6-11.9c-2.2-2.9-4-4.6-8.4-7c-1.7-1.1-2-1.4-2.9-1.8
		c6.6-0.8,7.9-1,11.6,0.5c3.2,1.3,9.7,5.9,9.7,5.9c-4.7-5-10.5-8.3-17-8.4c-3.4,0.2-6.9,0.5-10,1.3c0.6-5.1,2.4-11.6,8.1-13.4
		c2.9-1.1,5.9-0.4,8.3,1.3c1.5-2.5,3.8-4.4,6.8-4.2c5.9,0.6,10.7,4.9,17.1,4.2c0.5,1,1.4,2,2.5,2.3c2.3,0.3,4.1-1.2,5.8-2.4
		c3.7-3.2,5.2-7.9,3.4-12.5c-0.3-0.8-0.7-1.5-1.2-2.2c3.5-0.5,7,1.7,8.6,4.7c1.2,2.5,0.8,5.6,0.3,8.1l-0.9,4c0,0.1,0,0.4,0.2,0.4
		c1.3-0.9,2.3-2.3,3.4-3.5c1.5,0.9,1.2,3,1,4.4c-0.9,3.9-2.6,7.6-5.1,11.1c2.7,3.7,4.9,7.7,6.3,12.1l0.1,0.1l0.9,2.3l18.9-18.9
		c1.9,0.1,5.4,2,6.2,3.7c1,1.8,0.8,4.3-0.4,5.9c0,0-19.8,16.6-19.4,17.2l31.7-26.4c2.8,0.1,7.5,3.8,8.6,6.4c1.5,3.2,0.8,6.8-1.7,9.3
		l-0.6,0.6l0.1,0l-33.4,23.5l0.3-0.1l36.2-25.1c2.5,0.8,5.7,4.9,6.1,7.4c0.4,2.7-0.8,5.4-3.1,6.9l-5.6,3.1l0.3,0.1l-33.6,19.4
		l36.7-20.6c2.3,1.5,4,6.1,3.7,8.9c-0.2,1.9-1.2,3.8-2.9,5l-36.8,17L258,191c2,1.7,2,6.6,1.2,9.1c-0.5,2-2.4,3.9-4.3,4.6l-24.1,10.6
		c-1,0.1-0.9,1.3-1.4,1.9c-2.8,4.6-8.4,4.3-11.6,8.2c-3.6,1.3-6.5,3.9-9.4,6.5c-2.6,2.7-4.1,6.1-6.8,8.7c-1,0.7-2.1,0-3.1-0.3
		c-1.4-0.6-2.8-1.3-4.1-2.2l-5.3,2.8c-4.5,1.2-9.6,1.5-14.5,1.8l-10.8,0.6l-2.2,0.2c1.1,2.9,4.5,4.2,6.9,6.1c1,0.8,1.6,1.9,1.4,3.3
		l-0.1,0.5c-1.9,1-3.6,2.3-5.6,3c-0.5,0.3-1,0.7-1.4,1.2l-2.5,1.4c-2.1-0.3-2.5-2.6-3.2-4.2c-0.7-2.5-1.6-5-2.5-7.4
		c-0.4-0.9-1.1-1.7-2-2.2c-3,3.3-6.8,5.1-11.1,6c-0.5,0.1-0.8-0.4-1.1-0.7l-3.4-5c-0.1-0.7-0.4-1.6,0.1-2.1c1.5-2,4.8-0.8,5.9-3.3
		c-0.7-0.6-1.7-0.7-2.6-0.8c-2.2-0.3-4.6-0.2-6.6-1c-0.3-0.1-0.7-0.4-0.9-0.7l0.9-7.9c1.7-1.2,4.1-0.6,5.8,0l4.2,1.7
		c0.3,0,0.7,0,0.8-0.4c-0.3-1.9-2.5-2.8-4-3.4c-1.5-0.7-3.4-1-4.4-2.5c-0.2-0.5-0.2-1-0.1-1.5l7.9-6.4c2,0.2,2.7,2.4,3.8,3.7
		c0.8,1.2,1.5,2.5,1.8,4c2.7,2.6,5,8.6,9.9,6.7l13.5-5.9L172.6,223.3L172.6,223.3z"/>
	<path class="st4" d="M216.9,169.5l0.4-0.7l-15.8,11.3 M201.6,180.1c-9.3-0.4-14.4,2.8-18.8,10.6c-3.4,5.5-1.8,10.7-2.2,17.2
		c-0.2,4.5,0.5,10,2.1,14"/>
	<path id="XMLID_13_" class="st5" d="M188.3,137.4c-0.8-1.5-2.5-2-4.1-1.8c-0.7,0.2-1.6,0.6-1.8,1.4c-0.1,0.5,0.1,1.1,0.3,1.5
		c0.8,1.1,2,1.6,3.3,1.6c1,0,1.9-0.3,2.4-1.2C188.6,138.4,188.5,137.9,188.3,137.4L188.3,137.4z"/>
	<path class="st4" d="M191.8,198.9l16.1-16 M207.9,182.9c1.5-0.1,4.3,1.7,5,3.1c1,1.7,0.8,3.7-0.5,5.2 M212.5,191.2l-0.3,0.3l0.1,0
		L195,206l0.2-0.1l18.6-15.5 M213.8,190.4c1.4,0.3,3.4,2.4,3.7,3.8c0.3,1.5-0.2,3-1.4,3.9 M216.1,198.1l-2.9,2l0.1,0l-17.5,12.2
		l19.1-13 M215,199.3c1.4,0.7,2.5,3.2,2.5,4.7c0,1.1-0.5,2.2-1.4,2.9 M216.1,206.9L196.7,218l13.9-7.8 M210.6,210.2
		c1.2,0.9,1.4,3.5,1.1,4.9c-0.2,1.1-1.1,2.2-2.2,2.7 M209.6,217.9l-12.7,7 M182.7,221.4l-10.2,4.2"/>
	<polygon id="XMLID_2_" class="st6" points="207.1,17.3 207.1,50.7 330.5,50.7 330.5,66.1 207.1,66.1 207.1,99.5 191.7,99.5 
		191.7,66.1 68.2,66.1 68.2,50.7 191.7,50.7 191.7,17.3 207.1,17.3 	"/>
	<path id="XMLID_1_" class="st7" d="M330.5,296.1V17.3H68.2v278.8c0,0-0.2,65.5,65.6,65.5c65.4,0,65.6,21.8,65.6,21.8
		s0.4-21.8,65.6-21.8C330.5,361.6,330.5,296.1,330.5,296.1L330.5,296.1z"/>
</g>
</svg>
