<?xml version="1.0" encoding="utf-8"?>
<!-- Generator: Adobe Illustrator 19.0.0, SVG Export Plug-In . SVG Version: 6.00 Build 0)  -->
<svg version="1.1" id="Layer_1" xmlns="http://www.w3.org/2000/svg" xmlns:xlink="http://www.w3.org/1999/xlink" x="0px" y="0px"
	 viewBox="0 0 400 400" style="enable-background:new 0 0 400 400;" xml:space="preserve">
<style type="text/css">
	.st0{clip-path:url(#XMLID_17_);}
	.st1{fill:#86754D;}
	.st2{fill:#005DA3;}
	.st3{fill:#030303;}
	.st4{fill:#FFFFFF;}
</style>
<g id="XMLID_16_">
	<defs>
		<rect id="XMLID_1_" x="-12.4" y="-10.5" width="419.6" height="419.6"/>
	</defs>
	<clipPath id="XMLID_17_">
		<use xlink:href="#XMLID_1_"  style="overflow:visible;"/>
	</clipPath>
	<g id="XMLID_18_" class="st0">
		<g id="XMLID_29_">
			<path id="XMLID_14_" class="st1" d="M9,199.3C9,95.2,93.3,10.9,197.3,10.9c104,0,188.4,84.3,188.4,188.4
				c0,104-84.4,188.4-188.4,188.4C93.3,387.6,9,303.3,9,199.3L9,199.3L9,199.3z"/>
			<g id="XMLID_33_">
				<path id="XMLID_34_" class="st2" d="M197.3,374.6C100.7,374.6,22,295.9,22,199.3c0-96.7,78.7-175.3,175.3-175.3
					c96.7,0,175.3,78.7,175.3,175.3C372.7,295.9,294,374.6,197.3,374.6z M197.3,42.3c-86.5,0-156.9,70.4-156.9,156.9
					c0,86.5,70.4,156.9,156.9,156.9c86.5,0,156.9-70.4,156.9-156.9C354.3,112.7,283.9,42.3,197.3,42.3z"/>
			</g>
			<path id="XMLID_30_" class="st3" d="M197.3,357c-87,0-157.7-70.7-157.7-157.7c0-87,70.7-157.7,157.7-157.7
				c87,0,157.7,70.7,157.7,157.7C355.1,286.2,284.3,357,197.3,357z M197.3,59.6c-77,0-139.7,62.6-139.7,139.6
				c0,77,62.7,139.6,139.7,139.6c77,0,139.6-62.6,139.6-139.6C337,122.3,274.3,59.6,197.3,59.6z"/>
		</g>
		<g id="XMLID_19_">
			<path id="XMLID_9_" class="st4" d="M291.2,251.5c-18.3,32.7-53.3,54.8-93.5,54.8c-59.1,0-107.1-48-107.1-107.1
				c0-59.2,48-107.1,107.1-107.1c39.5,0,74,21.4,92.6,53.3l12.3-15.1c-22.4-34.1-61-56.6-104.9-56.6c-69.3,0-125.5,56.2-125.5,125.5
				c0,69.3,56.2,125.5,125.5,125.5c45,0,84.4-23.7,106.6-59.2L291.2,251.5z"/>
			<g id="XMLID_20_">
				<path id="XMLID_8_" class="st4" d="M275.6,134.8L212.4,205v30.6l43.1-47.3v93.8c0,0,14.7-9.3,21.1-19.5v-97.8l10.7-12.1
					C287.3,152.7,279.4,137.8,275.6,134.8z"/>
				<path id="XMLID_7_" class="st4" d="M186.9,299.8c7,2.4,21.1,0.2,21.1,0.2V164.6h-21.1V299.8z"/>
				<path id="XMLID_6_" class="st4" d="M152.5,290.3c5.6,3.8,20.9,7.4,20.9,7.4v-64.8l-20.5-22.7L152.5,290.3z"/>
				<path id="XMLID_5_" class="st4" d="M107.2,152.5l10.7,12.1v97.8c6.4,10.1,21.1,19.5,21.1,19.5v-93.9l43.1,47.3v-30.6l-63.2-70.2
					C115.1,137.6,107.2,152.5,107.2,152.5z"/>
				<path id="XMLID_4_" class="st4" d="M207.9,98.4c-7.6-1.9-21,0-21,0l-0.1,37.8h21.1V98.4z"/>
				<path id="XMLID_3_" class="st4" d="M253.3,114.8C232.8,100.8,212.6,99,212.6,99l-0.2,0v18.8c13.3,1.6,28.3,11,28.3,11
					L253.3,114.8z"/>
				<path id="XMLID_2_" class="st4" d="M152.6,165.1l21,23.1v-28.2h38.9l17.4-19.3h-56.4V120c0.9-0.4,8.9-2.3,8.9-2.3V99.2
					c-21.7,1.5-41.8,16-41.8,16l12,13.7V165.1z"/>
			</g>
		</g>
	</g>
</g>
</svg>
