<?xml version="1.0" encoding="utf-8"?>
<!-- Generator: Adobe Illustrator 19.1.0, SVG Export Plug-In . SVG Version: 6.00 Build 0)  -->
<svg version="1.1" id="Layer_1" xmlns="http://www.w3.org/2000/svg" xmlns:xlink="http://www.w3.org/1999/xlink" x="0px" y="0px"
	 viewBox="0 0 160 160" style="enable-background:new 0 0 160 160;" xml:space="preserve">
<style type="text/css">
	.st0{fill-rule:evenodd;clip-rule:evenodd;fill:#FFCB05;}
	.st1{fill-rule:evenodd;clip-rule:evenodd;}
	.st2{fill-rule:evenodd;clip-rule:evenodd;fill:#005D98;}
	.st3{fill-rule:evenodd;clip-rule:evenodd;fill:#FFFFFF;}
</style>
<g>
	<path class="st0" d="M79.3,13.4c37.2,0,67.5,30.4,67.5,67.6c0,37.1-30.3,67.5-67.5,67.5s-67.5-30.4-67.5-67.5
		C11.7,43.7,42.1,13.4,79.3,13.4L79.3,13.4z"/>
	<path class="st1" d="M79.3,15.2c36.2,0,65.7,29.5,65.7,65.7c0,36.2-29.6,65.7-65.7,65.7c-36.2,0-65.7-29.5-65.7-65.7
		C13.5,44.7,43,15.2,79.3,15.2L79.3,15.2z"/>
	<path class="st2" d="M79.3,22.8c32,0,58.1,26.1,58.1,58.1c0,32-26.1,58.1-58.1,58.1s-58.1-26.1-58.1-58.1
		C21.1,48.9,47.3,22.8,79.3,22.8L79.3,22.8z"/>
	<path class="st1" d="M79.3,37.4c24,0,43.5,19.6,43.5,43.6c0,24-19.6,43.5-43.5,43.5c-24,0-43.6-19.6-43.6-43.5
		C35.7,56.9,55.3,37.4,79.3,37.4L79.3,37.4z"/>
	<path class="st2" d="M79.3,42.9c20.9,0,38.1,17.1,38.1,38.1c0,20.9-17.1,38-38.1,38c-21,0-38.1-17.1-38.1-38
		C41.2,59.9,58.3,42.9,79.3,42.9L79.3,42.9z"/>
	<path class="st1" d="M79.3,46.1c19.1,0,34.8,15.6,34.8,34.8c0,19.1-15.7,34.8-34.8,34.8c-19.2,0-34.8-15.7-34.8-34.8
		C44.4,61.7,60.1,46.1,79.3,46.1L79.3,46.1z"/>
	<path class="st0" d="M106.5,77.1h5.8l-4.7,3.6l1.9,5.6l-4.7-3.5l-4.7,3.5l1.9-5.6l-4.7-3.6h5.8l1.7-5.4L106.5,77.1L106.5,77.1z
		 M81.9,111.1c-0.9,0.1-1.7,0.1-2.6,0.1s-1.7-0.1-2.6-0.1V76.2h5.2V111.1L81.9,111.1z M83.1,61.5h8l1.6,6.6L92,68.7
		c-0.9-0.9-2-2-3.5-2h-5.4V61.5L83.1,61.5z M96,97.3c-2,2.1-4.5,3.8-7.2,5v-0.7c0.7-0.5,1-1.3,1-2.1V85.7l-6.8,6.8v-7.4l7.9-8h5.1
		v0.8c-0.7,0.3-1,0.7-1,1.1v16.3c0,0.6,0.4,0.9,0.9,1.2V97.3L96,97.3z M75.2,104c-2.8-0.5-5.4-1.4-7.8-2.8v-0.8
		c0.6,0.1,1.2-0.3,1.2-1v-9.2l5.2,5.2v5.6c0,1.2,0.7,1.8,1.4,2.3V104L75.2,104z M66.4,100.5c-2.8-1.9-5.3-4.3-7.1-7.2
		c0.5-0.2,0.8-0.6,0.8-1.2V78.9c0-0.5-0.3-0.9-1-1.1v-0.7h5.5L75.4,88v7.4L65.4,85.3v12.3c0,0.9,0.3,1.6,1,2.1V100.5L66.4,100.5z
		 M75.4,61.5v5.2h-1.6v3.1h9.7c0.5,0,0.8-1,0.8-1.9h0.5l3.9,8.7L88,77c-0.6-1-1.3-1.9-2.2-1.9h-12v9.7l-5.2-5.3V63.2
		c0-0.4-0.5-0.8-1.2-1v-0.8H75.4L75.4,61.5z M79.3,57.5c1.3,0,2.5,0.1,3.7,0.3v0.7c-0.8,0.1-1.1,0.3-1.1,0.9v9.3h-5.2v-9.4
		c0-0.5-0.6-0.8-1.1-0.7v-0.8C76.8,57.5,78,57.5,79.3,57.5L79.3,57.5z M79.3,50.6c10.2,0,19.3,5.1,24.8,13c0.5,0.6,1.4,1.3,2,0.9
		l0.4,0.8l-6.4,4.1l-0.4-0.8c0.5-0.4,0.4-1.5,0.1-2.1c-4.5-6.4-12-10.7-20.5-10.7c-13.8,0-25,11.2-25,25.1
		c0,12.4,9.2,22.9,21.2,24.7v5.3C60.6,109.1,49,96.3,49,80.9C49,64.2,62.6,50.6,79.3,50.6L79.3,50.6z M83.1,111
		c8.6-1.1,16.2-5.9,21-12.7c0.5-0.7,1.4-1.3,2-1l0.4-0.8l-6.4-4.1l-0.4,0.8c0.5,0.4,0.4,1.5,0.1,2.1c-3.8,5.4-9.8,9.3-16.7,10.4V111
		L83.1,111z"/>
	<path class="st3" d="M58.5,40.4l-4.6-9.5l2.6-1.3l4.7,9.5L58.5,40.4L58.5,40.4z M62.8,38.1l-2.8-10.2l4-1l5.2,6.4l-2-7.2l2.4-0.7
		l2.7,10.2l-3.9,1L63.3,30l2,7.5L62.8,38.1L62.8,38.1z M76.9,35.4v-8.5h-3.2v-2.1h9.4v2.1h-3.2v8.5H76.9L76.9,35.4z M84.3,35.6
		l1.9-10.5l7.7,1.4l-0.3,2l-4.9-0.9l-0.3,2.1l4.6,0.8l-0.3,2l-4.6-0.8L87.5,34l5,0.9l-0.4,2.1L84.3,35.6L84.3,35.6z M98.6,33.2
		l1,0.5c0.6,0.2,1.1,0.3,1.4,0.2c0.3-0.1,0.5-0.3,0.8-0.8c0.1-0.4,0.1-0.8-0.1-1c-0.2-0.2-0.5-0.5-1.1-0.8l-1.2-0.5L98.6,33.2
		L98.6,33.2z M93.7,37.7l4-9.8l4.4,1.8c1.2,0.5,2.1,1.1,2.5,1.8c0.5,0.6,0.5,1.4,0.2,2.3c-0.3,0.7-0.7,1.2-1.3,1.4
		c-0.6,0.2-1.2,0.3-2,0.1v0.1c0.5,0.2,0.9,0.5,1.2,0.9c0.2,0.3,0.3,0.8,0.2,1.4c-0.1,0.2-0.2,0.6-0.3,1.4c-0.2,0.8-0.3,1.6-0.4,2.2
		l-3-1.2c0.1-0.5,0.3-1,0.5-1.7c0.2-0.6,0.3-1,0.3-1.2c0.1-0.4,0.1-0.8-0.1-1c-0.2-0.2-0.5-0.4-0.9-0.6l-1-0.4l-1.5,3.8L93.7,37.7
		L93.7,37.7z"/>
	<path class="st3" d="M63.9,134.8l1.9-6.6c-0.3,0.1-0.6,0.2-1,0.3c-0.4,0.1-0.9,0.1-1.4,0.2l0.6-2c0.5,0,0.9-0.1,1.4-0.2
		c0.5-0.1,1-0.2,1.5-0.5l2,0.6l-2.5,8.9L63.9,134.8L63.9,134.8z M73,134.2c0,0.3,0.1,0.5,0.3,0.6c0.2,0.2,0.5,0.3,0.8,0.3
		c0.6,0,1-0.1,1.3-0.5c0.3-0.3,0.5-1,0.6-1.8c0-0.1,0-0.1,0-0.2c0-0.1,0-0.2,0-0.2c-0.3,0.3-0.7,0.5-1.1,0.6
		c-0.4,0.2-0.8,0.2-1.3,0.2c-0.9-0.1-1.5-0.4-2-1c-0.5-0.6-0.8-1.3-0.6-2.1c0.1-1,0.5-1.7,1.2-2.3c0.7-0.5,1.6-0.8,2.8-0.6
		c1.3,0.1,2.3,0.6,3,1.5c0.6,0.9,0.8,2.1,0.7,3.6c-0.2,1.6-0.6,2.7-1.4,3.5c-0.8,0.8-1.9,1-3.2,0.9c-1.1-0.1-1.9-0.4-2.5-0.9
		c-0.5-0.5-0.8-1.1-0.8-1.9L73,134.2L73,134.2z M73.1,130.2c-0.1,0.4,0.1,0.8,0.3,1c0.3,0.3,0.6,0.4,1,0.5c0.5,0.1,0.8-0.1,1.1-0.3
		c0.2-0.2,0.4-0.6,0.5-1c0-0.4-0.1-0.8-0.3-1c-0.2-0.2-0.6-0.4-1-0.5c-0.5,0-0.8,0.1-1.1,0.3C73.2,129.5,73.1,129.8,73.1,130.2
		L73.1,130.2z M82.4,132.2c0.1,1.1,0.2,1.9,0.5,2.3c0.2,0.4,0.6,0.6,1.1,0.6c0.5-0.1,0.9-0.3,1-0.8c0.2-0.5,0.2-1.2,0.1-2.3
		c-0.1-1.1-0.3-1.9-0.5-2.3c-0.3-0.5-0.6-0.6-1.2-0.6c-0.5,0.1-0.8,0.3-1,0.8C82.4,130.4,82.3,131.1,82.4,132.2L82.4,132.2z
		 M79.9,132.4c-0.2-1.5,0.1-2.7,0.7-3.6c0.6-0.9,1.6-1.4,2.8-1.5c1.3-0.1,2.3,0.2,3.1,1c0.8,0.8,1.2,1.9,1.3,3.5
		c0.1,1.5-0.1,2.7-0.8,3.6c-0.6,0.9-1.5,1.4-2.8,1.5c-1.3,0.1-2.3-0.2-3-1C80.5,135.2,80,134,79.9,132.4L79.9,132.4z M91.2,130.7
		c-0.7,0.1-1.2-0.1-1.6-0.3c-0.4-0.3-0.7-0.6-0.9-1.2c-0.2-0.7-0.1-1.4,0.4-2c0.5-0.5,1.3-1,2.4-1.3c1.1-0.3,2-0.3,2.7-0.1
		c0.8,0.2,1.2,0.8,1.4,1.4c0.2,0.6,0.1,1-0.1,1.5c-0.2,0.4-0.6,0.8-1.2,1.1v0.1c0.7-0.1,1.3-0.1,1.9,0.2c0.5,0.3,0.8,0.8,1,1.4
		c0.2,0.8,0.1,1.5-0.5,2.1c-0.5,0.6-1.4,1.1-2.5,1.4c-1.2,0.3-2.1,0.4-3,0.1c-0.8-0.2-1.3-0.8-1.5-1.6c-0.2-0.6-0.2-1.2,0.1-1.7
		C90.1,131.5,90.5,131,91.2,130.7L91.2,130.7L91.2,130.7z M91.9,132.7c0.1,0.3,0.3,0.6,0.6,0.8c0.3,0.2,0.7,0.2,1.2,0.1
		c0.5-0.1,0.8-0.3,1-0.6c0.2-0.3,0.2-0.6,0.1-1c-0.1-0.3-0.3-0.6-0.6-0.8c-0.3-0.2-0.7-0.2-1.2-0.1c-0.5,0.1-0.8,0.3-1,0.6
		C91.8,132,91.8,132.3,91.9,132.7L91.9,132.7z M91.9,127.4c-0.3,0.1-0.6,0.3-0.8,0.5c-0.2,0.3-0.2,0.6-0.1,0.9
		c0.1,0.3,0.2,0.5,0.5,0.6c0.2,0.1,0.6,0.1,0.9,0.1c0.4-0.1,0.7-0.3,0.8-0.6c0.2-0.2,0.2-0.5,0.1-0.9c-0.1-0.3-0.3-0.5-0.5-0.7
		C92.6,127.3,92.3,127.3,91.9,127.4L91.9,127.4z"/>
</g>
</svg>
