<?xml version="1.0" encoding="utf-8"?>
<!-- Generator: Adobe Illustrator 19.1.0, SVG Export Plug-In . SVG Version: 6.00 Build 0)  -->
<svg version="1.1" id="Layer_1" xmlns="http://www.w3.org/2000/svg" xmlns:xlink="http://www.w3.org/1999/xlink" x="0px" y="0px"
	 viewBox="0 0 160 160" style="enable-background:new 0 0 160 160;" xml:space="preserve">
<style type="text/css">
	.st0{fill:#1F1A17;}
	.st1{fill:#FFFFFF;}
	.st2{fill:#F3B41B;}
</style>
<g id="Ebene_x0020_1">
	<path class="st0" d="M78.5,9.2c23.6,0,42.8,31.3,42.8,69.9c0,38.6-19.2,69.9-42.8,69.9c-23.6,0-42.8-31.3-42.8-69.9
		C35.7,40.5,54.9,9.2,78.5,9.2z"/>
	<path class="st1" d="M78.5,14.6c22.2,0,40.2,28.5,40.2,63.7c0,35.2-18,63.7-40.2,63.7c-22.2,0-40.2-28.5-40.2-63.7
		C38.3,43.1,56.3,14.6,78.5,14.6L78.5,14.6z"/>
	<path class="st0" d="M78.5,16.6c2.5,0,4.9,0.4,7.3,1.1v22.4c-2.5-0.2-5-0.3-7.6-0.3c-2.4,0-4.7,0.1-6.9,0.2V17.7
		C73.6,17,76,16.6,78.5,16.6L78.5,16.6z M96.4,23.8c6,5.1,11,12.6,14.5,21.8v0c-4.3-1.7-9-3-14-4c-0.2-2.7-0.4-5.4-0.6-8L96.4,23.8
		L96.4,23.8z M46.1,45.3c3.4-8.7,8.2-16,13.8-21v9.3c-0.2,2.6-0.4,5.3-0.6,8C54.6,42.5,50.1,43.8,46.1,45.3L46.1,45.3z"/>
	<path class="st0" d="M58.6,69.3c-4.6,2.2-9,5.3-13,8.9v27c3.5,9.2,8.5,16.8,14.5,21.9v-11.9c-1-12.6-1.6-26.5-1.6-41.1
		C58.6,72.5,58.6,70.9,58.6,69.3L58.6,69.3z M86.1,65.3c-2.5-0.4-5-0.7-7.6-0.7c-2.4,0-4.7,0.2-6.9,0.6v25.7
		c2.2-1.1,4.5-1.7,6.9-1.7c2.6,0,5.2,0.7,7.6,2V65.3L86.1,65.3z M111.3,78.2c-4-3.7-8.3-6.7-13-8.9c0,1.6,0,3.2,0,4.8
		c0,14.6-0.6,28.5-1.6,41.1v12.4c6-4.9,11-12.1,14.5-20.8L111.3,78.2L111.3,78.2z"/>
	<path class="st2" d="M78,60.6c14,0,27.5,3.2,38.4,8.6c0.2,2.1,0.2,4.3,0.2,6.5c0,0.8,0,1.6,0,2.4c-11-9.4-24.5-14.9-38.6-14.9
		c-14.1,0-26.8,5.2-37.5,14c0-0.5,0-1,0-1.6c0-2.4,0.1-4.7,0.3-7C51.4,63.6,64,60.6,78,60.6L78,60.6z"/>
	<path class="st0" d="M86.5,106.8h-8h-8c-1.9,0-3.4,1.4-3.4,3.1v5.3c0,7.7,2.7,12,11.4,19.3c8.7-7.2,11.4-11.6,11.4-19.3v-5.3
		C89.9,108.2,88.3,106.8,86.5,106.8L86.5,106.8z"/>
	<path class="st1" d="M73.2,108.7c0,0,0.6,0.9,0.4,1.1c-0.2,0.2-1-0.3-1-0.3s0.5,1.1,0.8,1.6c0.1,0.2,0.4,0.3,0.5,0.5
		c0.3,0.9-0.7,2.3,0.3,2.9c0.3,0.2,0.8,0.1,1.1-0.1c0,0,0.1-0.1,0.2,0c0.2,0.1,0,0.6-0.1,0.6c-0.4,1-0.8,0.5-1.3,0.1
		c-0.9-0.8-1,0.3-1.3,0.5c-1.1,0.4-1-0.1-1.3,0.1c-0.2,0.1-0.3,0.5-0.3,0.8c-0.1,0.4-0.4,1.6,0.5,1.2c0.6-0.2,0.7-1.6,1.3-0.9
		c0.7,0.9-0.2,1.8,0.7,2.8c0.2,0.3,0.5,0.4,0.8,0.1c0.1-0.1,0.2-0.3,0.3-0.4c0-0.2,0.1-0.4,0-0.7c-0.2-0.5-0.6-0.6-0.5-1.3
		c0.2,0,0.2-0.1,0.4,0.1c0.3,0.2,0.9,0.3,1.1,0.6c0.5,0.4,0.8,0.9,1.4,1.3c0.2,0.4-0.2,0.8-0.4,1c-0.2,0.4-0.5,0.8-0.6,1.3
		c-0.2,0.8,0.6,1.7-0.3,2c-1,0.3-2.8,0.1-2.9,1.2c0,0.2-0.1,0.6,0.1,0.8c0.1,0.2,0.5,0.3,0.7,0.3c0.9,0,0.1-1,0.8-1.2
		c0.3-0.1,0.7,0.1,1,0.1c0.3,0,0.7,0,1,0c1.1,0,1.2-0.5,1.7-0.8c0.7-0.4,1.3,0.7,1.5,1.2c0.2,0.4,0.7,0.5,0.8,0.9
		c0.2,0.4,0.2,1.1,0.1,1.5c0,0.3-0.4,0.3-0.5,0.5c-0.2,0.4-0.3,2,0.4,2.2c0.5,0.2,1.4-0.4,1.2-0.9c-0.1-0.1-0.3-0.3-0.3-0.4
		c-0.2-1.1,1.7-2,1.7-2.3c0.1-0.4-0.6-0.4-0.5-1.2c0.1-0.6,0.8-1.1,1.1-1.6c0.2-0.3,0.1-0.8,0.3-1.1c0.2-0.2,0.5-0.3,0.6-0.5
		c0.7-1.3-0.1-3.3-0.6-4.8c-0.1-0.4-1-2.1-0.4-2.3c0.1-0.1,0.2,0,0.3,0c0.3,0.3,0.1,0.8,0.3,1.2c0.2,0.5,0.8,0.7,1.3,0.9
		c0,0,0.1,0,0.1,0c-0.1-0.3-0.2-0.5-0.2-0.8c0-0.9-0.1-1.7-0.7-2.1c-0.3-0.2-0.8-0.4-1.2-0.1c-1.8,0.9,0,3.8,0.4,5.3
		c0.2,0.7-0.3,1.1-0.8,0.8c-0.5-0.2-0.7-1.3-0.8-1.8c-0.6-2.1-1.3-5.8-2.3-6.9c-0.9-1-3.2-1.5-4.8-1.8c-0.3,0-0.7-0.1-0.9-0.2
		C74.2,109.3,73.2,108.7,73.2,108.7L73.2,108.7z"/>
	<path class="st0" d="M108.8,60.2L108.8,60.2L108.8,60.2L108.8,60.2z M108.8,52.2l2.8,0.9v-0.2c0-0.6,0-1.1-0.1-1.5
		c0-0.4-0.1-0.7-0.2-1c-0.1-0.3-0.2-0.5-0.4-0.8c-0.2-0.3-0.5-0.5-0.8-0.8l0,0c-0.4-0.4-0.9-0.7-1.5-0.9c-0.1-0.1-0.2-0.1-0.3-0.1
		c-0.1,0-0.2-0.1-0.4-0.1l0,0l0,0c-0.6-0.2-1.1-0.3-1.5-0.3c-0.1,0-0.2,0-0.3,0c-0.1,0-0.2,0-0.2,0l0,0v0c-0.3,0-0.5,0.1-0.7,0.2
		c-0.2,0.1-0.3,0.3-0.4,0.4v0c-0.1,0.2-0.2,0.5-0.3,0.8c-0.1,0.4-0.1,0.8-0.1,1.4c0,0.4,0,0.7,0.1,1v0c0,0.3,0.1,0.6,0.2,0.9v0
		c0.1,0.4,0.3,0.7,0.5,1c0,0.1,0.1,0.1,0.1,0.2v0c0,0,0.1,0.1,0.1,0.2l-0.2,0.1l0.2-0.1l0,0l0,0c0.1,0.2,0.3,0.4,0.6,0.8
		c0.3,0.3,0.6,0.7,1.1,1.2l0,0c0.4,0.5,0.8,0.8,1.1,1.2l0,0c0.3,0.3,0.5,0.6,0.6,0.7l0,0c0.1,0.2,0.2,0.4,0.2,0.6c0,0,0,0.1,0,0.2h0
		c0.1,0.3,0.1,0.7,0.1,1.1h0v0c0,0.3,0,0.6-0.1,0.7c0,0,0,0.1,0,0.1h0c0,0,0,0.1-0.1,0.1l0,0l0,0l-0.2-0.1l0.2,0.1
		c-0.1,0.1-0.2,0.2-0.4,0.2c-0.1,0-0.3,0-0.4,0h0c-0.2-0.1-0.4-0.2-0.5-0.3v0c0,0,0-0.1-0.1-0.1c0,0,0-0.1-0.1-0.1l0,0l0,0
		c-0.1-0.2-0.2-0.6-0.2-1.2v-1.6l-2.8-0.9v0.6c0,0.5,0,1,0.1,1.4c0,0.4,0.1,0.8,0.2,1.1l0,0c0.1,0.3,0.2,0.6,0.4,0.9
		c0.2,0.3,0.5,0.6,0.8,0.9h0c0.5,0.4,1,0.8,1.6,1c0.1,0.1,0.2,0.1,0.4,0.2c0.1,0,0.2,0.1,0.4,0.1v0l0,0l0,0c0.4,0.1,0.8,0.2,1.1,0.3
		c0.3,0,0.7,0,1,0c0.4-0.1,0.7-0.2,0.9-0.4l0,0c0,0,0.1-0.1,0.1-0.1v0c0,0,0.1-0.1,0.1-0.1l0,0l0,0l0,0c0.1-0.1,0.1-0.3,0.2-0.5
		c0-0.1,0-0.2,0.1-0.3c0.1-0.3,0.1-0.8,0.1-1.3h0v0c0-0.7,0-1.3-0.1-1.9c-0.1-0.5-0.2-1-0.4-1.3c-0.2-0.4-0.5-0.8-1-1.4
		c-0.5-0.6-1.1-1.2-1.9-2c-0.3-0.3-0.5-0.5-0.7-0.7c-0.2-0.2-0.3-0.4-0.4-0.6c-0.1-0.1-0.1-0.3-0.1-0.5v0l0-0.1l0,0
		c0-0.2,0-0.4,0-0.7v0c0-0.3,0-0.5,0.1-0.7l0,0c0,0,0-0.1,0-0.1c0,0,0-0.1,0.1-0.1l0,0l0,0h0h0l0,0l0,0c0.1-0.1,0.2-0.2,0.3-0.2
		c0.1,0,0.3,0,0.4,0c0.1,0,0.2,0.1,0.3,0.2c0.1,0.1,0.2,0.2,0.2,0.3l0,0c0,0.1,0.1,0.2,0.1,0.4l0,0l0,0.1v0c0,0.2,0,0.4,0,0.6h0v0
		L108.8,52.2L108.8,52.2z M102.9,55.9v-9.5l-3.1-0.8V56c0,0.4,0,0.7,0,0.9c0,0.2,0,0.4-0.1,0.5l0,0c-0.1,0.2-0.2,0.3-0.5,0.4h0
		c0,0-0.1,0-0.1,0c0,0-0.1,0-0.1,0l0,0l0,0c-0.1,0-0.3-0.1-0.3-0.2h0c-0.1-0.1-0.2-0.2-0.2-0.3h0c0-0.1-0.1-0.3-0.1-0.5
		c0-0.2,0-0.5,0-0.8V45.2l-3.1-0.8v8.3h0c0,0.8,0,1.5,0,2c0,0.5,0,0.9,0.1,1.2v0c0,0.2,0.1,0.5,0.2,0.7c0.1,0.3,0.2,0.5,0.3,0.8l0,0
		c0.1,0.3,0.3,0.5,0.6,0.7c0.2,0.2,0.5,0.5,0.8,0.7v0c0.4,0.3,0.9,0.6,1.4,0.8c0.1,0,0.2,0.1,0.3,0.1c0.1,0,0.2,0.1,0.3,0.1l0,0
		c0.5,0.1,1,0.2,1.4,0.2c0.1,0,0.2,0,0.2,0c0.1,0,0.1,0,0.2,0v0l0,0c0.2,0,0.5-0.1,0.7-0.2c0.2-0.1,0.4-0.2,0.5-0.4l0,0
		c0.2-0.2,0.3-0.4,0.4-0.5c0.1-0.2,0.1-0.4,0.2-0.6c0-0.2,0-0.4,0.1-0.7l0-0.2C102.9,56.9,102.9,56.5,102.9,55.9L102.9,55.9
		L102.9,55.9L102.9,55.9z M93.9,46.8v-2.4l-7.5-1.1v2.4l1.9,0.3l0.2,0v0.2v11.4l3.2,0.5V46.8v-0.3l0.3,0L93.9,46.8L93.9,46.8z
		 M85.1,57.4V43.4l-2.6-0.1v6.3l-0.5,0.1l-2-6.5l-2.7-0.1v14.1l2.6,0.1v-6.4l0.5-0.1l1.9,6.5L85.1,57.4L85.1,57.4z M75.6,43.1
		L70,43.6v14.1l5.9-0.4v-2.4l-2.4,0.2l-0.3,0v-0.3v-3.2v-0.2l0.2,0l2.1-0.1v-2.3l-2,0.1l-0.3,0v-0.3V46v-0.2l0.2,0l2.2-0.2
		L75.6,43.1L75.6,43.1z M67.1,57.8l1.8-14.4l-3.3,0.6l-0.2,2.6v0c-0.1,1.6-0.3,3.3-0.4,5.2L64.8,53l-0.1,1.2l0,0l-0.5,0
		c-0.1-2-0.3-4.2-0.6-6.8c0-0.5-0.1-1-0.2-1.5c0-0.4-0.1-0.9-0.2-1.4L60,45.1l2,13.7L67.1,57.8L67.1,57.8z M56.9,59.7L56.9,59.7
		L56.9,59.7L56.9,59.7L56.9,59.7z M58.8,54.6v-9.4l-3.1,0.9v10.5c0,0.4,0,0.7,0,0.9c0,0.3,0,0.4-0.1,0.6l0,0
		c-0.1,0.2-0.2,0.4-0.4,0.5l0,0c0,0-0.1,0-0.1,0.1c0,0-0.1,0-0.1,0l0,0l0,0c-0.1,0-0.3,0-0.4,0c-0.1-0.1-0.2-0.1-0.3-0.3l0,0
		c0-0.1-0.1-0.3-0.1-0.5c0-0.2,0-0.5,0-0.8V46.5l-3.1,0.9v8.4h0c0,0.8,0,1.5,0,2c0,0.5,0,0.9,0.1,1.2v0c0,0.2,0.1,0.4,0.2,0.6
		c0.1,0.2,0.2,0.4,0.3,0.5h0c0.1,0.2,0.3,0.3,0.5,0.4c0.2,0.1,0.5,0.2,0.7,0.2c0.4,0.1,0.9,0.1,1.4,0c0.1,0,0.2,0,0.3-0.1
		c0.1,0,0.2-0.1,0.3-0.1h0l0,0v0c0.5-0.1,1-0.3,1.4-0.6h0c0.1,0,0.2-0.1,0.2-0.1c0.1-0.1,0.1-0.1,0.2-0.2l0,0l0,0l0.1,0.2l-0.1-0.2
		c0.3-0.2,0.5-0.4,0.7-0.6c0.2-0.2,0.4-0.5,0.5-0.8c0.2-0.3,0.3-0.5,0.4-0.8c0.1-0.2,0.2-0.5,0.2-0.7h0c0-0.2,0-0.4,0.1-0.7l0-0.2
		C58.8,55.6,58.8,55.2,58.8,54.6L58.8,54.6L58.8,54.6L58.8,54.6z M49.4,57.3V48l-3,1.1v10.1h0c0,0.3,0,0.5,0,0.7c0,0.2,0,0.4,0,0.5
		c0,0.1,0,0.2-0.1,0.4c0,0.1-0.1,0.2-0.2,0.3v0c-0.1,0.1-0.2,0.2-0.3,0.3c-0.1,0.1-0.2,0.2-0.4,0.2c-0.1,0-0.2,0.1-0.3,0.1v2
		l1.4-0.5c0.5-0.2,1-0.4,1.3-0.6l0,0c0.1,0,0.1-0.1,0.2-0.1c0.1,0,0.1-0.1,0.2-0.1l0,0l0,0l0,0c0.2-0.2,0.5-0.4,0.6-0.6h0
		c0,0,0.1-0.1,0.1-0.1v0c0-0.1,0.1-0.1,0.1-0.2l0,0c0.1-0.3,0.2-0.5,0.3-0.8l0,0c0-0.1,0-0.1,0-0.2c0-0.1,0-0.1,0-0.2v0h0l0,0v0
		c0-0.2,0-0.6,0-1C49.4,58.7,49.4,58.1,49.4,57.3L49.4,57.3z"/>
	<path class="st0" d="M85.6,102.8c0-0.1,0.5-0.8,1-1.7c1.3-2.2,3.1-5.6-0.1-3.3c-0.8,0.6-1.4,1.5-2.3,1.2l0,0
		c-1-0.3-1.6-1.4-1.2-2.3c0.9-2.6-2.1-2.2-2.2-0.2c-0.1,2.5-4.3,2.5-4.4,0c0-2-3-2.3-2.2,0.2c0.3,1-0.2,2-1.2,2.3l0,0
		c-1,0.3-1.5-0.6-2.3-1.2c-4.4-3.2,0.7,4.6,0.8,5C75.2,101.7,79.7,101.3,85.6,102.8L85.6,102.8z"/>
</g>
</svg>
