<?xml version="1.0" encoding="utf-8"?>
<!-- Generator: Adobe Illustrator 19.0.0, SVG Export Plug-In . SVG Version: 6.00 Build 0)  -->
<svg version="1.1" id="Layer_1" xmlns="http://www.w3.org/2000/svg" xmlns:xlink="http://www.w3.org/1999/xlink" x="0px" y="0px"
	 viewBox="0 0 400 400" style="enable-background:new 0 0 400 400;" xml:space="preserve">
<style type="text/css">
	.st0{fill:#265D98;}
	.st1{fill:#00AEEF;}
	.st2{fill:#FFFFFF;}
	.st3{fill:#D2AD14;}
</style>
<path id="XMLID_73_" class="st0" d="M127,156.8v80.9c0,83.4,70.9,94.5,71.6,94.6l0.2,0l0.2,0c0.7-0.1,71.6-11.2,71.6-94.6v-80.9H127
	z"/>
<path id="XMLID_72_" class="st1" d="M198.8,330.7c0,0-70.2-10-70.2-93v-79.3h140.4v79.3C269.1,320.7,198.8,330.7,198.8,330.7z"/>
<path id="XMLID_71_" class="st0" d="M133.4,163.2v74.5c0,74,58.5,86.8,65.1,88l0.3,0.1l0.3-0.1c6.7-1.2,65.1-14,65.1-88v-74.5H133.4
	z"/>
<path id="XMLID_70_" class="st2" d="M262.6,164.8c0,10.8,0,72.9,0,72.9c0,72.2-55.7,85-63.8,86.5c-8.1-1.5-63.8-14.3-63.8-86.5
	c0,0,0-62.1,0-72.9C146.2,164.8,251.5,164.8,262.6,164.8z"/>
<path id="XMLID_69_" class="st0" d="M147.9,205.7v28.9c0,56.6,38.7,70.4,50.6,73.3l0.4,0.1l0.4-0.1c11.9-2.9,50.6-16.6,50.6-73.3
	v-28.9H147.9z"/>
<path id="XMLID_68_" class="st1" d="M216.3,207.3v91.7c0.1,0,0.1-0.1,0.2-0.1v-91.6C216.5,207.3,216.4,207.3,216.3,207.3z"/>
<path id="XMLID_67_" class="st1" d="M182.2,207.3v92.3c0.1,0,0.1,0.1,0.2,0.1v-92.4C182.3,207.3,182.3,207.3,182.2,207.3z"/>
<path id="XMLID_66_" class="st1" d="M149.5,207.3c0,13,0,27.2,0,27.2c0,38.2,17.8,56.4,32.7,65v-92.3
	C169.7,207.3,158.2,207.3,149.5,207.3z"/>
<path id="XMLID_65_" class="st2" d="M182.4,207.3v92.4c6.7,3.8,12.8,5.7,16.5,6.6c3.9-0.9,10.4-3,17.5-7.2v-91.7
	C205.3,207.3,193.5,207.3,182.4,207.3z"/>
<path id="XMLID_64_" class="st1" d="M248.2,234.6c0,0,0-14.2,0-27.2c-8.4,0-19.6,0-31.7,0V299C231.3,290.1,248.2,271.8,248.2,234.6z
	"/>
<path class="st0" d="M159.9,180.6l-1.3,5.4h-0.4c-0.1-0.8-0.2-1.5-0.4-2c-0.3-0.7-0.7-1.3-1.3-1.7c-0.5-0.4-1.1-0.6-1.7-0.6
	c-0.6,0-1.1,0.2-1.5,0.7c-0.4,0.5-0.7,1-0.7,1.6c0,0.6,0.2,1.1,0.5,1.7c0.3,0.6,1,1.4,2.2,2.5c0.9,0.9,1.5,1.7,1.8,2.3
	c0.3,0.6,0.5,1.3,0.5,2.1c0,0.9-0.2,1.6-0.7,2.4c-0.4,0.7-1.1,1.3-1.9,1.7c-0.8,0.4-1.8,0.6-2.8,0.6c-0.7,0-1.5-0.1-2.4-0.3
	c-1-0.2-1.6-0.3-2-0.3c-0.3,0-0.5,0-0.7,0.1c-0.2,0.1-0.5,0.2-0.7,0.5h-0.5l1.3-6.1h0.4c0.1,1.1,0.3,2,0.6,2.7
	c0.3,0.8,0.8,1.3,1.4,1.8c0.6,0.4,1.3,0.6,2,0.6c0.7,0,1.4-0.3,1.9-0.8c0.5-0.5,0.8-1.1,0.8-1.8c0-0.6-0.1-1.2-0.4-1.7
	c-0.3-0.5-0.9-1.3-1.9-2.4c-1-1-1.7-2-2.1-2.8c-0.3-0.6-0.4-1.2-0.4-1.9c0-1.2,0.4-2.2,1.3-3.1c0.9-0.9,2.1-1.3,3.5-1.3
	c0.6,0,1.5,0.2,2.6,0.4c0.6,0.2,1.1,0.3,1.3,0.3c0.2,0,0.4,0,0.6-0.1c0.2-0.1,0.4-0.3,0.6-0.6H159.9z"/>
<path class="st0" d="M160.9,193.4c0.5,0,1,0.2,1.3,0.6c0.4,0.4,0.5,0.8,0.5,1.4c0,0.5-0.2,1-0.6,1.4c-0.4,0.4-0.8,0.6-1.3,0.6
	c-0.5,0-0.9-0.2-1.3-0.6c-0.4-0.4-0.5-0.8-0.5-1.4c0-0.5,0.2-1,0.5-1.4C159.9,193.6,160.3,193.4,160.9,193.4z"/>
<path class="st0" d="M178.5,180.6l-1.3,5.4h-0.4c-0.1-0.8-0.2-1.5-0.4-2c-0.3-0.7-0.7-1.3-1.3-1.7c-0.5-0.4-1.1-0.6-1.7-0.6
	c-0.6,0-1.1,0.2-1.5,0.7c-0.4,0.5-0.7,1-0.7,1.6c0,0.6,0.2,1.1,0.5,1.7c0.3,0.6,1,1.4,2.2,2.5c0.9,0.9,1.5,1.7,1.8,2.3
	c0.3,0.6,0.5,1.3,0.5,2.1c0,0.9-0.2,1.6-0.7,2.4c-0.4,0.7-1.1,1.3-1.9,1.7c-0.8,0.4-1.8,0.6-2.8,0.6c-0.7,0-1.5-0.1-2.4-0.3
	c-1-0.2-1.6-0.3-2-0.3c-0.3,0-0.5,0-0.7,0.1c-0.2,0.1-0.4,0.2-0.7,0.5h-0.5l1.3-6.1h0.4c0.1,1.1,0.3,2,0.6,2.7
	c0.3,0.8,0.8,1.3,1.4,1.8c0.6,0.4,1.3,0.6,2,0.6c0.7,0,1.4-0.3,1.9-0.8c0.5-0.5,0.8-1.1,0.8-1.8c0-0.6-0.1-1.2-0.4-1.7
	c-0.3-0.5-0.9-1.3-1.9-2.4c-1-1-1.7-2-2.1-2.8c-0.3-0.6-0.4-1.2-0.4-1.9c0-1.2,0.4-2.2,1.3-3.1c0.9-0.9,2.1-1.3,3.5-1.3
	c0.6,0,1.5,0.2,2.6,0.4c0.6,0.2,1.1,0.3,1.3,0.3c0.2,0,0.4,0,0.6-0.1c0.2-0.1,0.4-0.3,0.6-0.6H178.5z"/>
<path class="st0" d="M179.5,193.4c0.5,0,1,0.2,1.3,0.6c0.4,0.4,0.5,0.8,0.5,1.4c0,0.5-0.2,1-0.6,1.4c-0.4,0.4-0.8,0.6-1.3,0.6
	c-0.5,0-0.9-0.2-1.3-0.6c-0.4-0.4-0.5-0.8-0.5-1.4c0-0.5,0.2-1,0.5-1.4C178.5,193.6,179,193.4,179.5,193.4z"/>
<path class="st0" d="M195.1,196.9h-12.2l0.1-0.4c0.7,0,1.2-0.1,1.6-0.4c0.3-0.3,0.6-1,0.9-2l2.8-10.3c0.2-0.6,0.2-1,0.2-1.3
	c0-0.3-0.1-0.6-0.3-0.8c-0.2-0.2-0.7-0.3-1.3-0.3l0.1-0.4h7.3l-0.1,0.4c-0.7,0-1.2,0.2-1.6,0.5c-0.3,0.3-0.7,1-0.9,1.9l-2.6,9.4
	c-0.3,1.2-0.5,1.9-0.5,2.2c0,0.2,0.1,0.3,0.3,0.4c0.2,0.1,0.4,0.2,0.8,0.2c1.3,0,2.5-0.3,3.6-0.9c1.2-0.6,2.1-1.5,2.9-2.7h0.5
	L195.1,196.9z"/>
<path class="st0" d="M203.3,190.8l4.2-5.2l-0.3,5.2H203.3z M207,193.8c0,0.9-0.1,1.5-0.3,1.8c-0.2,0.4-0.4,0.6-0.6,0.7
	c-0.1,0.1-0.5,0.1-1.1,0.2l-0.1,0.4h6.6l0.1-0.4c-0.5,0-0.8-0.2-1-0.4c-0.2-0.2-0.3-0.6-0.3-1.2c0-0.1,0-0.6,0-1.2l0.5-13h-0.5
	l-10.8,13.5c-0.8,1-1.4,1.6-1.8,1.9c-0.3,0.2-0.7,0.4-1.1,0.4l-0.1,0.4h4.5v-0.4c-0.4,0-0.8-0.1-1-0.3c-0.2-0.2-0.3-0.3-0.3-0.5
	c0-0.2,0-0.4,0.1-0.5c0.1-0.2,0.2-0.5,0.5-0.8l1.1-1.3l1-1.2h4.7L207,193.8z"/>
<path class="st0" d="M228.8,181.4L217.1,196h0.9c1.8,0,3.3-0.3,4.4-0.9c1.1-0.6,2.1-1.5,3.1-2.8h0.5l-1.6,4.6h-11.9v-0.5l11.7-14.5
	h-1.4c-1.8,0-3.2,0.2-4.1,0.7c-0.9,0.5-1.6,1.3-2.3,2.4h-0.4l1.3-4.1h11.6V181.4z"/>
<path class="st0" d="M230.4,181.4l0.1-0.4h7.5l-0.1,0.4c-0.7,0-1.2,0.2-1.6,0.5c-0.4,0.3-0.7,1-0.9,2l-2.8,10.2
	c-0.2,0.7-0.3,1.2-0.3,1.5c0,0.3,0.1,0.5,0.3,0.7c0.3,0.2,0.8,0.3,1.5,0.3l-0.1,0.4h-7.6l0.1-0.4c0.8,0,1.3-0.2,1.7-0.5
	c0.4-0.3,0.7-1,1-2l2.8-10.2c0.2-0.6,0.3-1.1,0.3-1.4c0-0.3-0.1-0.5-0.3-0.7C231.7,181.6,231.2,181.4,230.4,181.4z"/>
<path class="st0" d="M248.6,182.3c0.4,0.5,0.6,1.3,0.6,2.3c0,1.7-0.4,3.7-1.1,5.8c-0.7,2.2-1.7,3.8-2.8,5c-0.6,0.6-1.3,0.9-2.1,0.9
	c-0.6,0-1.1-0.2-1.5-0.7c-0.4-0.5-0.6-1.2-0.6-2.2c0-1.1,0.2-2.5,0.6-4.2c0.4-1.7,0.8-3,1.3-4c0.5-1,0.9-1.7,1.4-2.2
	c0.4-0.5,0.9-0.9,1.3-1.1c0.4-0.2,0.9-0.3,1.5-0.3C247.7,181.6,248.2,181.8,248.6,182.3z M246.9,196.2c1.5-0.9,2.9-2.3,4.1-4.3
	c1.2-2,1.8-4,1.8-5.9c0-0.9-0.2-1.8-0.7-2.6c-0.5-0.9-1.1-1.5-1.9-2c-0.8-0.5-1.7-0.7-2.6-0.7c-1.6,0-3.2,0.5-4.8,1.6
	c-1.6,1.1-2.9,2.5-3.9,4.2c-1,1.8-1.4,3.5-1.4,5.2c0,0.9,0.2,1.7,0.6,2.6c0.4,0.9,0.9,1.6,1.7,2.1c0.8,0.5,1.8,0.8,3,0.8
	C244.4,197.2,245.8,196.9,246.9,196.2z"/>
<path id="XMLID_52_" class="st3" d="M3.2,69c0,0,11.1,17,30.1,17c0,0,4.7,10.8,21.8,10.8c0,0,2.7,9.6,16.7,9.6c0,0,2.4,7.2,15.6,7.2
	c0,0,1.2,4.8,12,4.8c0,0,6.3,7.2,17,7.2c0,0,2.4,4.8,10.8,4.8c0,0,3.9,4.8,9.5,4.8c0,0,3.4,4.8,8.4,4.8c0,0,4.1,7.4,20.6,7.4
	c0,0-3.8,4.5-10.5,4.5c0,0,0.5,2.7,3.2,3.5c0,0-2.1,2.7-6,2.7c0,0,2.6,6,9.8,6c7.2,0,5.4-2.1,10.8,0c0,0,3.6,3-1.1,5.9
	c0,0,3.5,1,7.2-4.7c0,0,2,2.3-0.3,4.7c0,0,4.2,0.6,7.2-5.9c0,0,4.8,2.3,0,5.9c0,0,5.2,0.6,7.4-5.9c0,0,4.2-1.7,7.2,0
	c2.7,1.5-2.6,5.7-2.6,5.7s5.7,2,7.4-5.7c0,0,5.6-0.2,2.3,5.9c0,0,5,0.2,5-5.9c0,0,7.8-0.2,3.3,5.4c0,0,6.6,0.2,6.2-9.6
	c0,0-0.6-3.8-4.7-3.8c0,0,7.7-1.7,10.8-8.9c0,0,5.7,2.9,11.9,0c0,0,7.5,0.8,11-6c0,0,6.2,0.8,9.6-6c0,0,6.9,0.6,12-6
	c0,0,6.4,0.5,10-4.8c0,0,11.6,0.8,15.2-6c0,0,10.5,1.5,14.6-6c0,0,9.8,1.2,14.4-7.2c0,0,11.3,1.1,17.9-8.4c0,0,13.7,1.4,20.4-9.6
	c0,0,19.7,2.1,30.2-18.2H258.1c0,0-16.2-0.6-27.7,10.8c0,0-17.7,20.4-31.7,20.4c0,0-7.1,2-23.4-14.4c0,0-14.7-16.8-34.7-16.8H3.2z"
	/>
<path id="XMLID_51_" class="st2" d="M171.8,160.4c0,0,3.1,1,3.1,3.3c0,0,1.8-2.6-0.9-4.4L171.8,160.4z"/>
<path id="XMLID_50_" class="st2" d="M178.7,160.3c0,0,4.1,1.4,4.1,3.7c0,0,0.8-3-1.9-4.8L178.7,160.3z"/>
<path id="XMLID_49_" class="st2" d="M200.6,160.4c0,0,2.7,0.8,2.7,3.1c0,0,2.2-2.4-0.5-4.2L200.6,160.4z"/>
<path id="XMLID_48_" class="st2" d="M186.1,160.5c0,0,4.5,1.6,2.8,3.4c0,0,4.9-2.5-0.5-4.7L186.1,160.5z"/>
<path id="XMLID_47_" class="st2" d="M207.7,160.4c0,0,2.6,0.9,2.6,3.1c0,0,2.6-2.5-0.2-5.4C210.2,158.1,207.6,159,207.7,160.4z"/>
<path id="XMLID_46_" class="st2" d="M213.8,160.4c0,0,3.7,0.9,3.4,2.1c0,0,2.1-1.8,0.1-4.4C217.3,158.1,214.5,157.7,213.8,160.4z"/>
<path id="XMLID_45_" class="st2" d="M189.7,158l3.6-3.5c0,0,1.7,1.2,8.3,1.2C201.6,155.7,202.1,158,189.7,158z"/>
<path id="XMLID_44_" class="st2" d="M159.7,158l3.1-2.8c0,0-0.5,0.6,8.8,0.6C171.6,155.8,170.9,158,159.7,158z"/>
<path id="XMLID_43_" class="st2" d="M164.5,153.1l9.6-5.8c0,0,8.7-4.8,13.2-4.8c0,0,6.6-0.2,6.6,4.8c0,0-0.2,5.9-14.3,5.9
	C179.6,153.2,164.9,153.9,164.5,153.1z"/>
<path id="XMLID_42_" class="st2" d="M197.2,153.1l16.8-11.9c0,0,2-1.3,5.5-1.3c0,0,3.5,0,3.5,2.5c0,0,1,9.7-17.5,11.4
	C205.5,153.8,200.5,154.3,197.2,153.1z"/>
<path id="XMLID_41_" class="st2" d="M199.3,141.4c0,0,8.2,0.5,9.6-4.9c0,0-0.5,1.5-6.5,1.6L199.3,141.4z"/>
<path id="XMLID_40_" class="st2" d="M186.1,139.9l1.3-2.2c0,0,5,0.4,5.9-2.4l4.7,2.4C198,137.7,198,143.9,186.1,139.9z"/>
<path id="XMLID_39_" class="st2" d="M171.7,140l2.4-3.5h4.7c0,0,0.4,1.1,3.6,1.1C182.4,137.6,182.6,141.2,171.7,140z"/>
<path id="XMLID_38_" class="st2" d="M212.5,137.6c0,0,3.6-2.3,3.6-7.1c0,0,0,0-3.5,1.2C212.6,131.7,210.1,137.2,212.5,137.6z"/>
<path id="XMLID_37_" class="st2" d="M198,132.9c0,0,0.8,5.4,10.7,1.1l-1-2.3L198,132.9z"/>
<path id="XMLID_36_" class="st2" d="M179.9,128.1c0,0,0.2,1.1,2.4,1.2c0,0-0.8,3.9-6.9,3.5C175.4,132.8,175.9,129.7,179.9,128.1z"/>
<path id="XMLID_35_" class="st2" d="M181.3,134.1c0,0,2.7,2.7,10.7-0.1l-2.4-3.4C189.6,130.6,183,131,181.3,134.1z"/>
<path id="XMLID_34_" class="st2" d="M188.7,124.7c0,0,1.4,1.1,4.3,1.1c0,0-5.4,5.8-9.3,1.1L188.7,124.7z"/>
<path id="XMLID_33_" class="st2" d="M194.5,130.4c0,0,8.1,1,10.7-3.5l-3.6-2.4C201.6,124.5,194.5,127.2,194.5,130.4z"/>
<path id="XMLID_32_" class="st2" d="M216.2,137.6c0,0,5,0.2,9.5-4.8c0,0-0.1-1.8-2.3-2.3c0,0-1.9-0.1-3.5,1.2
	C219.9,131.7,216.5,136.3,216.2,137.6z"/>
<path id="XMLID_31_" class="st2" d="M217.4,123.4c0,0,1.2,1.2,1.2,5.8h4.7c0,0-3.2-2.1-3.6-5.9L217.4,123.4z"/>
<path id="XMLID_30_" class="st2" d="M214.9,123.3c0,0,0.1,2.6,1.2,3.5c0,0-1.7,3.2-8.2,2.4l2.3-3.5L214.9,123.3z"/>
<path id="XMLID_29_" class="st2" d="M206.6,123.2l2.3-3.5c0,0,3.4,0.6,7.1-1.2C216.1,118.5,215.4,123.2,206.6,123.2z"/>
<path id="XMLID_28_" class="st2" d="M207.8,114.9l2.3-2.4c0,0,0.5,1.2,5.9,1.2C216.1,113.7,210.6,120.8,207.8,114.9z"/>
<path id="XMLID_27_" class="st2" d="M202.9,117.3l2.3,2.3c0,0-1.2,3.6-11.9,3.6l1.2-3.5C194.5,119.7,201.8,120.5,202.9,117.3z"/>
<path id="XMLID_26_" class="st2" d="M150,112.4c0,0,0.7,2.7,3.5,3.5h37.3c0,0,3.5,2.9,12,0c0,0,2.4-0.5,3.6-4.7c0,0-1.4,0.4-2.4-2.5
	c0,0-5.3-0.1-9.6,3.7H150z"/>
<path id="XMLID_25_" class="st2" d="M143.9,112.4c1.7,2.7,3.7,3.5,3.7,3.5h-47c0,0-4-0.1-7.1-3.5H143.9z"/>
<path id="XMLID_24_" class="st2" d="M153.5,118.5c0.5,2.8,2.4,3.5,2.4,3.5h-43.2c0,0-2.7,0.2-4.8-3.5H153.5z"/>
<path id="XMLID_23_" class="st2" d="M159.8,118.5c0,0,0.7,2.7,3.4,3.5h19.4l-1.3,2.4c0,0,7.6,0.8,9.5-5.9H159.8z"/>
<path id="XMLID_22_" class="st2" d="M122.4,124.5c0,0,2.4,2.9,4.8,3.5h38.4c0,0-2.2-0.6-3.4-3.5H122.4z"/>
<path id="XMLID_21_" class="st2" d="M167,124.5c0,0,0.3,2.1,3.4,3.5h4.8c2.5-0.9,2.4-3.5,2.4-3.5H167z"/>
<path id="XMLID_20_" class="st2" d="M133.2,130.5c0,0,0.5,1.3,2.3,2.3h37.3c0,0,1.2-0.6,1.2-2.3H133.2z"/>
<path id="XMLID_19_" class="st2" d="M141.5,135.4c0,0-0.2,1,1.3,2.2h26.3c1.4,0,1.3-2.3,1.3-2.3L141.5,135.4z"/>
<path id="XMLID_18_" class="st2" d="M150.1,140.1c0,0,1.1,2,3.6,2.3h10.6c1.5-0.7,1.2-2.3,1.2-2.3H150.1z"/>
<path id="XMLID_17_" class="st2" d="M211.4,101.5h60c0,0,4.2-1.1,6.1-4.7h-51.7l6.2-6.1h56.3c0,0,4.6-0.6,7.1-4.7h-56.5
	c0,0,6.1-6.1,10.3-6.1l61.8,0c0,0,4.7-0.6,7.2-6h-64.9c0,0-11.4,0.8-22.7,12C230.6,86,220.8,97.4,211.4,101.5z"/>
<path id="XMLID_16_" class="st2" d="M324.3,74c0,0-0.7,3.7-5.9,6l56.4,0c0,0,6.3-1.5,8.4-6H324.3z"/>
<path id="XMLID_15_" class="st2" d="M301.5,86c0,0,0.1,2.3-4.8,4.7h54c0,0,5.4-0.6,7.2-4.7H301.5z"/>
<path id="XMLID_14_" class="st2" d="M283.5,96.8c0,0,0.2,2.5-4.7,4.7H328c0,0,5.4,0.6,9.5-4.7H283.5z"/>
<path id="XMLID_13_" class="st2" d="M260.6,104c0,0,1.2,1.9,1.2,4.8h48c0,0,7,0.8,10.9-4.8H260.6z"/>
<path id="XMLID_12_" class="st2" d="M79.1,105.2c0,0,0.7,2.8,4.8,3.5H132c0,0-2-0.7-3.7-3.5H79.1z"/>
<path id="XMLID_11_" class="st2" d="M62.3,96.9c0,0,2.1,4.6,7.2,4.6h50.4c0,0-3.6-1.8-4.7-4.7L62.3,96.9z"/>
<path id="XMLID_10_" class="st2" d="M40.6,85.9c0,0,2.8,4.8,7.2,4.8h54c0,0-3.4-1.2-4.8-4.7L40.6,85.9z"/>
<path id="XMLID_9_" class="st2" d="M16.6,74c0,0,2.7,5.9,8.4,5.9h55.2c0,0-4.1-2.3-4.8-5.9H16.6z"/>
<path id="XMLID_8_" class="st2" d="M202.8,104v3.5c0,0-7.1-0.1-8.3,2.4H193c0,0-1.8,0.4-2.2-1.2h-50.4c0,0-3.5-0.1-4.8-3.5h48.1
	l-3.7-3.7h-51.5c0,0-4.6-0.7-6.1-4.7h51.8l-6.2-6.1h-56.4c0,0-4.6-0.4-6.1-4.7h55.4c0,0-5.4-6.1-10.5-6.1H88.7c0,0-6-0.4-7.2-5.9
	h63.7c0,0,11.6-0.2,26.3,14.4c0,0,14.7,15.6,23,15.6H202.8z"/>
<path id="XMLID_7_" class="st2" d="M277.6,112.5c0,0,1.1,0.7,1.1,3.4h21.5c0,0,3.1-0.1,4.8-3.5L277.6,112.5z"/>
<path id="XMLID_6_" class="st2" d="M277.5,122c0,0,2.2-1.1,2.5-3.5h11.8c0,0,0.1,2.8-3.6,3.5H277.5z"/>
<path id="XMLID_5_" class="st2" d="M235.4,128c0,0,2.8-0.7,4.8-3.5h36.1c0,0-1.9,3.5-6.2,3.5H235.4z"/>
<path id="XMLID_4_" class="st2" d="M229.5,132.8c0,0,1.6-0.3,2.3-2.3h33.7c0,0-0.6,2.3-2.4,2.3H229.5z"/>
<path id="XMLID_3_" class="st2" d="M224.6,137.6c0,0,1.4-0.1,2.4-2.3h30c0,0-0.6,2.2-2.4,2.3H224.6z"/>
<path id="XMLID_2_" class="st2" d="M231.8,140.1c0,0,1,0.7,1.2,2.4h13.1c0,0,0.2-1.3,1.2-2.4H231.8z"/>
<path id="XMLID_1_" class="st2" d="M258.1,111.1c0,0,0.8-7.1-7-7.1h-44.5c0,0,0.7,7.1,9.7,7.1h8.2c0,0-4.9,1.7-5.9,4.8h2.4
	c0,0-2.4,1.9-2.4,4.8h4.7c0,0-2.6,2.6,0,4.8c0,0,3.8,4.3,13.2-2.5c0,0,4-2.6,6.1-2.3c0,0,1.8-0.2,2.4,1.2h28.7c0,0-1.7-3.5-6.9-4.4
	h-18.3v-1.9l21.7,0c0,0,3.9,0.2,4.8,2.7c0,0-0.6-7.1-6.5-7.1h-10.4c0,0-3.6,3.6-7.2,3.6c0,0-3.7,0.1-3.7-2.5h-9.5
	c0,0,0.5-1.2,2.7-1.2H258.1z"/>
</svg>
