<?xml version="1.0" encoding="utf-8"?>
<!-- Generator: Adobe Illustrator 19.0.0, SVG Export Plug-In . SVG Version: 6.00 Build 0)  -->
<svg version="1.1" id="Layer_1" xmlns="http://www.w3.org/2000/svg" xmlns:xlink="http://www.w3.org/1999/xlink" x="0px" y="0px"
	 viewBox="0 0 400 400" style="enable-background:new 0 0 400 400;" xml:space="preserve">
<style type="text/css">
	.st0{fill:#010101;}
	.st1{fill:#C5962C;}
	.st2{fill:#FFFFFF;}
	.st3{fill:#F491A4;}
	.st4{fill:#F491A3;}
	.st5{fill:#F48CA0;}
	.st6{fill:#F7FAEB;}
	.st7{fill:#F9C3CD;}
	.st8{fill:#F6A2B3;}
</style>
<g>
	<g>
		<path class="st0" d="M62.5,9.4c1.5-0.1,3-0.2,4.5-0.2c90.5,0.1,181-0.2,271.6,0.2c-0.1,84.3,0,168.6,0,252.9c0,7.1-1.8,14-4,20.7
			c-6.6,19.2-18.9,36-33.2,50.3c-27.4,27.2-61.8,46.1-97.1,61c-1.8,0.6-3.8,2.2-5.6,0.8c-40.2-16.9-79.8-38.8-108.6-72.3
			c-15.7-18.7-28.9-42-27.5-67.2C62.6,173.6,62.7,91.5,62.5,9.4z M168,16.4c0.9,1.1,2.3,2.9,4,2.5C173.5,16.2,168.7,12.2,168,16.4z
			 M71.3,21c-1.2,8.1-0.2,16.6-0.5,24.9c0.3,3.5-0.9,7.7,1.6,10.5c3.5,4,11.6,1.8,11.6-3.9c0.2-10.5,0.1-20.9,0-31.4
			c-0.9,0-2.7-0.1-3.5-0.1c-0.7,10.9,0.1,21.8-0.4,32.7c-1.6,0.9-3.4,1-5.1,0.3c-0.7-10.9-0.1-21.9-0.3-32.9
			C73.8,21.1,72.1,21,71.3,21z M93.7,32.8c0.3,6.1,7.1,9.7,6.8,15.9c-0.3,3.4-3.7,4.7-6.3,6.1c0.2,0.9,0.7,2.6,0.9,3.5
			c4.9-1.3,9.9-5.5,9.1-11.1c0-6.9-9.1-11.2-6.2-18.3c1.1-3.7,8.2-4,4.7-8.6C97.5,22,92.9,27,93.7,32.8z M118.3,22.8
			c-3.9,4.5-4.3,10.8-4.5,16.5c0.1,5.7,0.5,12,4.3,16.6c2.1,2.6,5.8,2.8,8.8,1.8c-0.5-1.1-1.1-2.3-1.6-3.4c-2.7,0.9-5.1-0.9-5.9-3.4
			c-2.3-6.4-2.2-13.6-0.9-20.2c0.7-2.7,2.1-6.7,5.7-6.2c1.9,0.2,3.1-0.7,3.6-2.7C124.8,20.1,120.6,20.1,118.3,22.8z M137.6,21
			c-0.1,0.9-0.4,2.8-0.5,3.7c0.9,0,2.6,0.1,3.5,0.1c0,10.9,0.1,21.9-0.1,32.8c1,0.1,2.9,0.2,3.9,0.2c0-10.9,0.1-21.9-0.1-32.8
			c0.8-0.2,2.5-0.5,3.4-0.7c-0.1-0.8-0.2-2.5-0.2-3.4C144.2,20.9,140.9,20.9,137.6,21z M151.5,21.1c-0.1,0.8-0.4,2.6-0.6,3.4
			c0.9,0.1,2.7,0.3,3.7,0.4c-0.1,11-0.1,21.9,0,32.9c1,0,2.9-0.1,3.8-0.1c0-11,0-21.9,0-32.9c0.8-0.1,2.4-0.1,3.2-0.2
			c0-0.9-0.1-2.8-0.2-3.7C158.1,20.9,154.8,20.9,151.5,21.1z M188.9,21.8c0,12,0,23.9,0,35.9c3.7,0,8.2,0.5,10.8-2.7
			c3.1-4.1,2.9-9.6,3.2-14.5c-0.1-4.9,0.2-10-1.6-14.6C199.5,21.2,192.8,20.1,188.9,21.8z M206.6,21c-0.4,12.3-0.1,24.5-0.1,36.8
			c1,0,2.9,0,3.8-0.1c0-12.2,0.1-24.4-0.1-36.7C209.3,21.1,207.5,21,206.6,21z M218.1,21.5c0.2,12.1,0,24.2,0.1,36.2
			c0.9,0,2.8-0.1,3.8-0.2c-0.1-5,0-9.9-0.1-14.9c1.7-0.5,3.4-1,5-1.7c6.5-3.6,6.9-14.7,0.2-18.4C224.3,21.4,221,20.5,218.1,21.5z
			 M250.2,21c-0.8,12.2-0.1,24.5-0.3,36.7c3,0,6,0,8.9,0c0-0.9-0.1-2.8-0.1-3.8c-1.3,0-3.8,0-5,0c-0.1-11,0-21.9,0-32.9
			C252.8,21.1,251.1,21,250.2,21z M262.8,21.3c0.1,5.6,0.2,11.2,0,16.8l-1.4,0.9l-0.3,1.7c3.7,4.6,0.8,11.5,1.9,17.1
			c2.9,0,5.9,0,8.8,0c0-0.9,0-2.7-0.1-3.7c-1.7,0.1-3.4-0.1-5.1-0.4c0.1-3.7,0.1-7.5,0.1-11.2c1.9,0,3.7,0,5.6,0c0-1,0-2.9,0-3.8
			c-1.9,0-3.7,0-5.6,0c0-4.6,0-9.1,0-13.6c1.7,0,3.4-0.1,5.1-0.1c-0.3-0.9-0.8-2.7-1-3.6C268.1,21.1,265.4,21,262.8,21.3z M275.6,21
			c-0.5,12.3-0.1,24.5-0.2,36.8c1,0,2.9,0,3.8,0c0-10.9,0-21.8,0-32.7c8.3,0.9,7.3,13.8,1.2,17.3c1.8,5.4,4,10.6,5.9,15.9
			c0.9-0.3,2.6-0.8,3.5-1c-1.3-4.6-3.4-9-4.9-13.6c4-4.8,5.2-12.1,2.2-17.8C285,21.8,279.9,20.9,275.6,21z M321,21.1
			c-4.5,2.5-5.2,8.2-5.7,12.8c-0.4,6.7-0.6,13.9,2.3,20.2c1.4,3.4,5.8,5.4,9,3c4-3.4,4.4-9.2,4.9-14.1c0.2-6.3,0.3-12.9-2.5-18.6
			C327.6,21.6,324.1,19.7,321,21.1z M129.6,21.1c0.1,12.2,0,24.4,0.1,36.6c0.9,0,2.8,0,3.7,0c0.1-12.2-0.1-24.4,0.1-36.6
			C132.4,21.2,130.5,21.1,129.6,21.1z M164.6,49.4c-3.6,2-0.9,5.4-1.7,8.4c1,0,3-0.1,4-0.1c-0.2-4.5,4.4-3.3,7.4-3.4
			c0.2,0.8,0.6,2.5,0.8,3.3c1.1,0.1,3.2,0.2,4.2,0.3c-2.4-12.2-5.6-24.3-8-36.5C168.3,30.4,167,40.1,164.6,49.4z M237.6,21.9
			c-1.9,9.3-4.1,18.6-6.2,27.9c-3.6,1.6-1,5.2-1.5,8c1-0.1,3-0.2,4-0.2c0.2-0.8,0.6-2.5,0.8-3.3c2.2,0,4.4,0.1,6.7,0.2
			c0.2,0.8,0.5,2.4,0.7,3.2c1,0,3.1,0,4.2,0.1c-2.2-10.4-4.7-20.8-7-31.2C238.8,25,238.9,23,237.6,21.9z M296,27.2
			c-1.3,10.3-2.9,20.5-4,30.8c1-0.1,3.1-0.3,4.2-0.4c0.7-5.7,1.1-11.6,2.7-17.1c1.1,5,2.6,9.9,3.9,14.9c2.8-4.4,2.3-10.1,5-14.6
			c0.7,5.7,1.5,11.4,2.3,17c1,0,3.1,0,4.1,0c-1.5-12-3.3-23.9-4.8-35.9c-3.2,5.9-3.8,12.9-6.5,19.1c-1.9-6.3-3.9-12.7-5.7-19.1
			C296.2,23.4,296.2,25.3,296,27.2z M107,53.7c0,1,0,3.1,0,4.1c1,0,3.1,0,4.1,0C112.2,54.4,110,52.6,107,53.7z M86.3,57.5
			c1.4,0.3,2.9,0.3,4.3,0.1c0-0.9-0.1-2.8-0.1-3.7C87.5,52.4,85.6,54.5,86.3,57.5z M145.4,68.7c-26,0.2-51.9,0-77.9,0.1
			c0,64.5,0,129,0,193.5c-0.1,5.7,1.3,11.3,2.9,16.7c6.6,20.7,19.9,38.6,35.4,53.5c26.9,25.8,60.3,43.5,94.4,58.1
			c17.6-7,34.6-15.5,51-25.1c22.7-13.6,44.2-30.2,60.5-51.2c12.7-16.7,23.2-37,21.9-58.6c0-62.3,0-124.6,0-186.9
			c-61.3-0.1-122.6,0.1-184-0.1c-0.4-0.6-1.2-1.9-1.6-2.5C147.4,66.8,146.1,68.1,145.4,68.7z"/>
	</g>
	<path id="XMLID_70_" class="st0" d="M193.2,24.8c2.3,0.3,4.6,1.3,5,3.9c1.3,7,1.3,14.3-0.1,21.2c-0.4,2.7-2.7,4.3-5.4,4.2
		C193,44.3,192,34.3,193.2,24.8z"/>
	<path id="XMLID_69_" class="st0" d="M321.5,25.5c1-1.9,3.7-1.1,4.2,0.8c2.5,5.7,2.2,12.1,1.9,18.2c-0.5,3.6-0.7,8.2-4.2,10.3
		c-3.6-2-3.8-6.6-4.2-10.3C318.9,38.2,318.2,31.2,321.5,25.5z"/>
	<path id="XMLID_68_" class="st0" d="M221.9,25.2c8.4-0.7,8.2,13.8,0,13.4C221.9,34.1,221.9,29.6,221.9,25.2z"/>
	<path id="XMLID_67_" class="st0" d="M170.9,40.5c2,2.8,1.5,6.8,2.7,10c-1.2,0-3.7,0-5,0C169.3,47.2,170,43.9,170.9,40.5z"/>
	<path id="XMLID_66_" class="st0" d="M237.7,40c1.5,3.3,1.9,7,2.8,10.5c-1.6,0.1-3.1,0.1-4.7,0.2C235.9,47.1,237.1,43.6,237.7,40z"
		/>
	<path id="XMLID_65_" class="st0" d="M323,79.1l0.8,0.3c-0.1,61,0,121.9,0,182.9c0,6.5-2.3,12.6-4,18.8c-2.2-0.8-4.5,0.1-6.8,0.4
		c1.4-2.4,3.6-4.1,6.1-5.3c1.2-2.4-2-3.1-3.7-2.6c-5.8,1.8-10.2,6.1-14.6,10c-10.9-5.7-21.9-10.9-32.6-16.8
		c12.9-12.7,25.6-25.5,38.6-38.1c3.8-3.9,10.2-6.7,15-2.7c-1-6.2-4.1-14.5-12-13c-2.4-4.8-7.9-6.9-13.1-6.5
		c-8.7,0.5-17.2,3.6-26,2.6c0.1,0.7,0.4,2.1,0.5,2.8c-4.5-0.3-9.1-0.4-13.6-0.5c0.9,1.6,1.8,3.1,2.6,4.7c-6.6,0.8-14.3-0.6-18.3-6.5
		c-7.6-11.4-15-22.8-22.5-34.2C254.1,143.2,288.6,111.3,323,79.1z"/>
	<path id="XMLID_64_" class="st0" d="M137.2,251.8c9.9,6.6,20.1,12.7,29.8,19.6c-23.8,6.5-47.6,12.9-71.4,19.1
		C109.4,277.6,123.3,264.7,137.2,251.8z"/>
	<path id="XMLID_63_" class="st0" d="M308.4,293.9c2.4-2.9,5.3-5.4,8.6-7c-2.9,6.3-6.7,12.2-10.5,18
		C306.4,301.2,307,297.3,308.4,293.9z"/>
	<path id="XMLID_62_" class="st0" d="M237.8,298.9c5.2-2.2,10.9-2.7,16.3-4.6c-0.5,0.7-1.3,2.2-1.8,3c5.6-0.5,11.3-1,16.9-1.6
		c-0.9,1.1-2.6,3.2-3.5,4.3c7.7-2.9,15.4,1.6,23.2,0c3.4-1.7,6.3-4.9,10.4-4.5c-0.2,5,1.6,9.6,3.6,14.1
		c-26.4,32.6-63.9,53.8-101.9,70.1c-10.8-3.5-20.8-9.4-31.2-14c3.3-1,6.6-2.3,9-4.9C198.5,340.1,218,319.4,237.8,298.9z"/>
	<path id="XMLID_61_" class="st0" d="M97.6,308.7c3.4,1.6,7.1,2.5,10.8,3.3c-2.2,0.5-4.3,1.1-6.5,1.5
		C100.4,311.9,99,310.3,97.6,308.7z"/>
	<path id="XMLID_60_" class="st0" d="M114.5,327.2c2.4,0.1,4.9,0,7.3,0c-1.7,1.3-3.5,2.5-5.3,3.7c0.1-0.6,0.3-1.7,0.4-2.3
		L114.5,327.2z"/>
	<path id="XMLID_59_" class="st0" d="M129,339.1c3.6,0.2,7.2,0.1,10.8,0.2c-1.9,1.2-3.9,2.3-5.9,3.6
		C132.2,341.7,130.6,340.4,129,339.1z"/>
	<path id="XMLID_58_" class="st0" d="M150.7,354.5c3.5-0.2,7-0.8,10.4-1.7c-2,1.3-3.9,2.7-5.8,4.1
		C153.8,356.1,152.2,355.3,150.7,354.5z"/>
</g>
<g>
	<path id="XMLID_57_" class="st1" d="M168,16.4c0.7-4.1,5.5-0.2,4,2.5C170.3,19.3,169,17.5,168,16.4z"/>
	<path id="XMLID_56_" class="st1" d="M71.3,21c0.8,0,2.5,0.1,3.3,0.2c0.2,11-0.4,22,0.3,32.9c1.8,0.7,3.5,0.6,5.1-0.3
		c0.5-10.9-0.3-21.8,0.4-32.7c0.9,0,2.7,0.1,3.5,0.1c0.1,10.5,0.1,20.9,0,31.4c0,5.6-8.1,7.9-11.6,3.9c-2.5-2.9-1.4-7.1-1.6-10.5
		C71.1,37.6,70.2,29.1,71.3,21z"/>
	<path id="XMLID_55_" class="st1" d="M93.7,32.8c-0.8-5.8,3.9-10.8,9-12.6c3.5,4.5-3.6,4.9-4.7,8.6c-2.9,7.2,6.2,11.5,6.2,18.3
		c0.8,5.6-4.2,9.8-9.1,11.1c-0.2-0.9-0.7-2.6-0.9-3.5c2.5-1.4,5.9-2.7,6.3-6.1C100.7,42.4,94,38.9,93.7,32.8z"/>
	<path id="XMLID_54_" class="st1" d="M118.3,22.8c2.4-2.8,6.5-2.7,9.5-1.1c-0.5,2-1.7,2.9-3.6,2.7c-3.6-0.5-5,3.5-5.7,6.2
		c-1.3,6.6-1.5,13.8,0.9,20.2c0.8,2.5,3.3,4.3,5.9,3.4c0.5,1.1,1.1,2.3,1.6,3.4c-3,1-6.7,0.8-8.8-1.8c-3.8-4.6-4.2-10.9-4.3-16.6
		C114,33.6,114.4,27.3,118.3,22.8z"/>
	<path id="XMLID_53_" class="st1" d="M137.6,21c3.3-0.1,6.6-0.1,9.9,0c0.1,0.8,0.2,2.5,0.2,3.4c-0.8,0.2-2.5,0.5-3.4,0.7
		c0.2,10.9,0.1,21.9,0.1,32.8c-1-0.1-2.9-0.2-3.9-0.2c0.1-10.9,0.1-21.9,0.1-32.8c-0.9,0-2.6-0.1-3.5-0.1
		C137.2,23.8,137.5,21.9,137.6,21z"/>
	<path id="XMLID_52_" class="st1" d="M151.5,21.1c3.3-0.2,6.6-0.2,9.9-0.1c0,0.9,0.1,2.8,0.2,3.7c-0.8,0-2.4,0.1-3.2,0.2
		c0,11,0,21.9,0,32.9c-1,0-2.9,0.1-3.8,0.1c-0.1-11-0.1-21.9,0-32.9c-0.9-0.1-2.7-0.3-3.7-0.4C151.1,23.6,151.4,21.9,151.5,21.1z"/>
	<g>
		<path class="st1" d="M188.9,21.8c3.9-1.6,10.6-0.5,12.3,4.2c1.8,4.6,1.6,9.7,1.6,14.6c-0.2,4.9-0.1,10.4-3.2,14.5
			c-2.6,3.2-7.1,2.7-10.8,2.7C188.9,45.7,188.9,33.7,188.9,21.8z M193.2,24.8c-1.2,9.5-0.2,19.6-0.5,29.3c2.6,0.1,5-1.5,5.4-4.2
			c1.4-7,1.4-14.3,0.1-21.2C197.9,26.1,195.5,25.1,193.2,24.8z"/>
	</g>
	<path id="XMLID_49_" class="st1" d="M206.6,21c0.9,0,2.7,0.1,3.6,0.1c0.2,12.2,0,24.4,0.1,36.7c-0.9,0-2.8,0-3.8,0.1
		C206.5,45.5,206.2,33.2,206.6,21z"/>
	<g>
		<path class="st1" d="M218.1,21.5c2.9-1,6.2-0.1,8.9,1.1c6.7,3.6,6.4,14.8-0.2,18.4c-1.6,0.8-3.3,1.2-5,1.7c0.1,5,0,9.9,0.1,14.9
			c-1,0-2.8,0.1-3.8,0.2C218.1,45.7,218.3,33.6,218.1,21.5z M221.9,25.2c0.1,4.5,0.1,8.9,0,13.4C230,39,230.3,24.5,221.9,25.2z"/>
	</g>
	<path id="XMLID_46_" class="st1" d="M250.2,21c0.9,0,2.6,0.1,3.5,0.1c0,11,0,21.9,0,32.9c1.3,0,3.8,0,5,0c0,0.9,0.1,2.8,0.1,3.8
		c-3,0-6,0-8.9,0C250.1,45.5,249.4,33.2,250.2,21z"/>
	<path id="XMLID_45_" class="st1" d="M262.8,21.3c2.6-0.4,5.3-0.3,7.9-0.1c0.3,0.9,0.8,2.7,1,3.6c-1.7,0-3.4,0.1-5.1,0.1
		c0.1,4.6,0,9.1,0,13.6c1.9,0,3.7,0,5.6,0c0,1,0,2.9,0,3.8c-1.9,0-3.7,0-5.6,0c0,3.7,0,7.5-0.1,11.2c1.7,0.3,3.4,0.5,5.1,0.4
		c0,0.9,0,2.7,0.1,3.7c-2.9,0-5.9,0-8.8,0c-1-5.6,1.8-12.5-1.9-17.1l0.3-1.7l1.4-0.9C263.1,32.6,262.9,26.9,262.8,21.3z"/>
	<path id="XMLID_44_" class="st1" d="M275.6,21c4.3-0.1,9.4,0.8,11.7,5c2.9,5.6,1.8,12.9-2.2,17.8c1.5,4.6,3.6,8.9,4.9,13.6
		c-0.9,0.3-2.6,0.8-3.5,1c-1.9-5.4-4.1-10.6-5.9-15.9c6-3.5,7-16.3-1.2-17.3c0,10.9,0,21.8,0,32.7c-1,0-2.9,0-3.8,0
		C275.5,45.5,275.2,33.2,275.6,21z"/>
	<g>
		<path class="st1" d="M321,21.1c3.1-1.4,6.6,0.4,7.9,3.3c2.8,5.7,2.7,12.4,2.5,18.6c-0.4,4.9-0.8,10.7-4.9,14.1
			c-3.2,2.3-7.6,0.4-9-3c-2.9-6.3-2.7-13.4-2.3-20.2C315.9,29.4,316.5,23.6,321,21.1z M321.5,25.5c-3.2,5.7-2.6,12.7-2.4,19
			c0.4,3.7,0.6,8.3,4.2,10.3c3.5-2.1,3.7-6.7,4.2-10.3c0.3-6.1,0.6-12.5-1.9-18.2C325.1,24.5,322.4,23.6,321.5,25.5z"/>
	</g>
	<path id="XMLID_41_" class="st1" d="M129.6,21.1c1,0,2.9,0,3.9,0c-0.1,12.2,0,24.4-0.1,36.6c-0.9,0-2.8,0-3.7,0
		C129.6,45.5,129.7,33.3,129.6,21.1z"/>
	<g>
		<path class="st1" d="M164.6,49.4c2.4-9.3,3.7-19,6.8-28.1c2.3,12.2,5.5,24.3,8,36.5c-1-0.1-3.2-0.2-4.2-0.3
			c-0.2-0.8-0.6-2.5-0.8-3.3c-3,0.1-7.6-1.1-7.4,3.4c-1,0-3,0.1-4,0.1C163.7,54.8,161,51.4,164.6,49.4z M170.9,40.5
			c-0.8,3.3-1.5,6.7-2.3,10.1c1.2,0,3.7,0,5,0C172.4,47.3,172.8,43.3,170.9,40.5z"/>
	</g>
	<g>
		<path class="st1" d="M237.6,21.9c1.3,1.1,1.2,3.1,1.7,4.6c2.3,10.4,4.7,20.8,7,31.2c-1,0-3.1,0-4.2-0.1c-0.2-0.8-0.5-2.4-0.7-3.2
			c-2.2-0.1-4.4-0.2-6.7-0.2c-0.2,0.8-0.6,2.5-0.8,3.3c-1,0.1-3,0.2-4,0.2c0.5-2.8-2.1-6.4,1.5-8C233.4,40.5,235.7,31.3,237.6,21.9z
			 M237.7,40c-0.6,3.5-1.8,7-1.9,10.6c1.5-0.1,3.1-0.1,4.7-0.2C239.6,47,239.2,43.3,237.7,40z"/>
	</g>
	<path id="XMLID_36_" class="st1" d="M296,27.2c0.3-1.8,0.2-3.8,1.3-5.3c1.8,6.4,3.7,12.7,5.7,19.1c2.6-6.2,3.3-13.2,6.5-19.1
		c1.5,12,3.2,23.9,4.8,35.9c-1,0-3.1,0-4.1,0c-0.8-5.7-1.7-11.4-2.3-17c-2.7,4.4-2.3,10.2-5,14.6c-1.3-5-2.7-9.9-3.9-14.9
		c-1.6,5.6-1.9,11.4-2.7,17.1c-1,0.1-3.1,0.3-4.2,0.4C293.1,47.6,294.7,37.4,296,27.2z"/>
	<path id="XMLID_35_" class="st1" d="M107,53.7c3.1-1.1,5.2,0.8,4.1,4.1c-1,0-3.1,0-4.1,0C107,56.7,107,54.7,107,53.7z"/>
	<path id="XMLID_34_" class="st1" d="M86.3,57.5c-0.7-2.9,1.3-5.1,4.2-3.6c0,0.9,0.1,2.8,0.1,3.7C89.2,57.8,87.7,57.8,86.3,57.5z"/>
	<g>
		<path class="st1" d="M145.4,68.7c0.7-0.6,1.9-1.9,2.6-2.5c0.4,0.6,1.2,1.9,1.6,2.5c1.1,1.7,2.2,3.4,3.3,5.1c0.7,1,1.3,2.1,2,3.1
			c0.4,0.5,1,1.5,1.4,2c21,32.2,42.1,64.3,63.2,96.5c7.5,11.4,14.9,22.8,22.5,34.2c4,5.8,11.7,7.2,18.3,6.5
			c-0.9-1.6-1.8-3.1-2.6-4.7c4.5,0.1,9.1,0.1,13.6,0.5c-0.1-0.7-0.4-2.1-0.5-2.8c8.8,1.1,17.3-2,26-2.6c5.2-0.4,10.7,1.7,13.1,6.5
			c7.8-1.6,11,6.8,12,13c-4.8-3.9-11.2-1.2-15,2.7c-13,12.6-25.7,25.5-38.6,38.1c10.7,5.9,21.8,11.2,32.6,16.8
			c4.4-3.9,8.9-8.2,14.6-10c1.7-0.5,4.9,0.2,3.7,2.6c-2.5,1.2-4.7,2.9-6.1,5.3c2.2-0.2,4.5-1.2,6.8-0.4c1.3,1,2.6,2,3.8,3.1
			c-0.2,0.5-0.6,1.4-0.8,1.8c-0.7-0.1-2.1-0.3-2.8-0.4c-0.7,0.3-2.2,0.9-3,1.2c-3.3,1.7-6.2,4.2-8.6,7c-1.5,3.4-2,7.2-1.9,11
			c0.5,0.4,1.5,1.2,2,1.6c-0.1,0.5-0.2,1.3-0.3,1.8c-0.5,0.2-1.5,0.7-2.1,1c-0.8,0.1-2.5,0.2-3.3,0.3c-2-4.5-3.8-9.1-3.6-14.1
			c-4.1-0.4-7,2.8-10.4,4.5c-7.8,1.6-15.5-2.9-23.2,0c0.9-1.1,2.6-3.2,3.5-4.3c-5.6,0.6-11.3,1.1-16.9,1.6c0.4-0.7,1.3-2.2,1.8-3
			c-5.3,1.9-11.1,2.4-16.3,4.6c-19.8,20.5-39.3,41.2-59,61.8c-2.3,2.6-5.7,3.8-9,4.9c-0.9,0-2.8,0.1-3.7,0.1
			c-1.9-0.1-3.8-0.3-5.7-0.4c-3.2-1.6-6.3-3.3-9.5-4.9c1.5-1.1,2.9-2.3,4.4-3.4c1.9-1.4,3.9-2.8,5.8-4.1c-3.4,0.9-6.9,1.5-10.4,1.7
			c-3.4-0.5-6.7-1-10.1-1.5c-3.7-2.1-7-4.9-10.7-7.1c1-0.8,3-2.3,4-3.1c2-1.2,3.9-2.3,5.9-3.6c-3.6-0.1-7.2-0.1-10.8-0.2
			c-3.1-0.5-6.2-0.9-9.3-1.2c-2.5-1.4-5.1-2.6-7.1-4.6c1.3-0.8,2.6-1.6,4-2.4c1.8-1.1,3.6-2.4,5.3-3.7c-2.4,0-4.9,0.1-7.3,0
			c-2.6-0.5-5.2-0.8-7.8-1.2c-4.5-3.1-9.3-5.9-12.4-10.6c2.1-0.8,4.3-1.3,6.5-1.7l1-0.2c2.2-0.5,4.4-1,6.5-1.5
			c-3.7-0.8-7.4-1.7-10.8-3.3c-1.6-1-3.2-2-5-2.7c-1-0.3-2-0.6-2.9-0.9c-2.5-3.3-5.1-6.6-7.3-10.2c0.6-0.3,1.7-1,2.3-1.4
			c0.6-0.1,1.9-0.4,2.5-0.6c2.8-0.7,5.6-1.5,8.4-2.3c23.9-6.2,47.7-12.6,71.4-19.1c-9.6-7-19.9-13-29.8-19.6
			c-9.7-7-21.6-11.7-28.4-22c-6.9-9.8-9.1-22.4-7.2-34.1c4.7,2.4,9,5.3,13.8,7.5c-8.4-12.9-11-28.6-9.6-43.8c3.9,1.3,7.5,3.5,11.3,5
			c-7.8-12.6-8.3-29.1-1-42.1c3.5,2.4,6.8,5.2,10.4,7.5c-6.7-14.2-5.3-31.4,3.3-44.4c3.1,2.8,6,5.7,9.1,8.5
			c-0.4-5.1-0.5-10.2,0.8-15.2c0.2-0.6,0.7-1.8,0.9-2.3c0.3-0.7,0.9-2,1.2-2.6C142.8,72,144.1,70.3,145.4,68.7z M142.3,126
			c26.2,28.2,52.3,56.5,78.4,84.8c1.9,2.3,5.2,0.5,7.7,0.8c-29.6-38.3-59.6-76.2-89-114.6C134.9,105.8,134.5,118.6,142.3,126z
			 M124.5,132c-1.4,7.9-2.9,18,3.6,24.1c25.6,21,51.4,41.9,77.1,62.9c1.8-1.1,3.5-2.2,5.3-3.3c-27.1-26.9-54.6-53.3-81.9-80.1
			C127.4,134.3,126,133.1,124.5,132z M118.7,171.7c0.5,8.4,0.9,18.5,7.8,24.4c21.7,13,43.3,26.1,65.1,38.8c1.2-1.9,2.4-3.8,3.6-5.7
			C169.7,210.1,144.3,190.7,118.7,171.7z M111.9,205.7c1.2,8.7,5.3,18.1,13.8,21.7c19,8.2,38.2,16.1,57.2,24.3
			c2.2-0.1,1.7-3.3,2.9-4.6c-22.7-13.4-45.9-26-68.8-39C115.4,207.3,113.8,206.1,111.9,205.7z M296.8,213.3c1.4,1.5,2.8,3,4.2,4.5
			c1.6-1,2.3-2.7,3.2-4.3C301.8,213,299.3,213,296.8,213.3z M103.6,298.3c8.7,11.1,24.9,9,36.3,3.7c15.6-5.9,31-12,46.6-17.7
			c-1.3-3.4-6.5-3.5-9.3-5.7C152.7,285.1,128.2,291.7,103.6,298.3z M121.6,314.6c0,2.6,3.1,3,4.9,3.9c7.9,2.4,16.1-0.7,23.1-4.1
			c16.8-8.4,33.7-16.6,50.3-25.2c-2.7-1-5.2-2.8-8.1-3.1C168.5,295.6,145.2,305.4,121.6,314.6z M205.8,291.9
			c-21.4,11.9-42.9,23.6-64.3,35.6c4.2,3.8,10.4,4.2,15.8,3.2c7.1-1.4,13.7-4.8,19.4-9.1c12.2-8.9,24.3-17.8,36.5-26.7
			C212.2,292.2,208.2,292.4,205.8,291.9z M162.6,340.7c10.6,6,23.2,0.2,31.3-7.4c12.4-12.1,25.4-23.7,37.4-36.2
			c-3.4-0.2-6.7-0.7-10-1.2C201.8,311,182.1,325.7,162.6,340.7z"/>
	</g>
</g>
<g>
	<path id="XMLID_23_" class="st2" d="M67.5,68.8c26-0.1,51.9,0.1,77.9-0.1c-1.3,1.6-2.6,3.3-3.7,5.1c-23.1,0-46.2,0-69.3,0
		c-0.1,62.4,0,124.7,0,187.1c-0.1,12,4.8,23.4,10,34c2.2,3.6,4.8,6.9,7.3,10.2c1,0.3,2,0.6,2.9,0.9c-2.3,6.3,6.2,3.8,8.2,7.7
		c-2.2,0.4-4.4,1-6.5,1.7c3,4.7,7.9,7.5,12.4,10.6c1.9,2.5,3.8,4.9,5.8,7.2c2.1,2,4.6,3.3,7.1,4.6c3,3.1,6.4,6,10.2,8.1
		c3.7,2.2,7,4.9,10.7,7.1c2.5,3.5,6.5,5.4,10.3,7.3c3.2,1.6,6.3,3.4,9.5,4.9c11.9,7.9,25.2,13.2,38.2,19.1c2.3,1.5,4.6-0.5,6.7-1.2
		c36.5-16,72.4-36.5,98.6-67.2c7.7-9.1,14.2-19.1,18.9-30.1c0.2-0.5,0.6-1.4,0.8-1.8c2.9-7.4,5.3-15.2,5.1-23.2
		c-0.1-62.4,0-124.8-0.1-187.2c-58.6,0-117.1,0-175.7,0c-1.1-1.7-2.2-3.4-3.3-5.1c61.3,0.2,122.6,0,184,0.1c0,62.3,0,124.6,0,186.9
		c1.3,21.6-9.2,41.8-21.9,58.6c-16.3,21.1-37.8,37.6-60.5,51.2c-16.3,9.6-33.3,18.1-51,25.1c-34-14.6-67.4-32.3-94.4-58.1
		C90.4,317.5,77,299.7,70.4,279c-1.6-5.4-3-11-2.9-16.7C67.5,197.8,67.5,133.3,67.5,68.8z"/>
	<path id="XMLID_22_" class="st2" d="M75.1,76.4c21.8,0,43.6-0.1,65.4,0c-0.2,0.6-0.7,1.8-0.9,2.3c-20.7-0.2-41.4-0.1-62.2-0.1
		c-0.2,60.3,0,120.6-0.1,180.9c-0.3,11.8,4.4,23,9.7,33.3c-0.6,0.1-1.8,0.4-2.5,0.6c-4.8-10.2-9.6-21-9.6-32.5
		C75.1,199.5,75,137.9,75.1,76.4z"/>
	<path id="XMLID_21_" class="st2" d="M154.9,76.9c3.4-0.6,6.9-0.5,10.3-0.5c53.6,0.1,107.1-0.1,160.7,0.1c0.1,61.5,0,123,0.1,184.5
		c0.1,6.8-1.4,13.7-4.2,19.9l-2,0.2c1.7-6.2,4-12.3,4-18.8c0-61-0.1-121.9,0-182.9l-0.8-0.3c-2.5-0.5-5.1-0.5-7.6-0.5
		c-53,0.2-106-0.2-159,0.2C156,78.3,155.3,77.3,154.9,76.9z"/>
	<path id="XMLID_20_" class="st2" d="M296.8,213.3c2.5-0.3,5-0.3,7.4,0.2c-0.9,1.5-1.6,3.3-3.2,4.3
		C299.6,216.3,298.2,214.8,296.8,213.3z"/>
	<path id="XMLID_19_" class="st2" d="M317.1,286.9c0.7-0.3,2.2-0.9,3-1.2c-2.9,7.5-7.7,13.9-11.5,20.9c-0.5-0.4-1.5-1.2-2-1.6
		C310.4,299.1,314.1,293.2,317.1,286.9z"/>
	<path id="XMLID_18_" class="st2" d="M302.9,309.5c0.8-0.1,2.5-0.2,3.3-0.3c-25.9,32.5-62.6,54.2-100.1,70.7c-2.4,0.8-4.9,3-7.4,1.6
		c-11-4.9-22.2-9.7-32.6-15.9c0.9,0,2.8-0.1,3.7-0.1c10.4,4.6,20.4,10.6,31.2,14C239,363.4,276.5,342.1,302.9,309.5z"/>
</g>
<g>
	<path id="XMLID_17_" class="st3" d="M72.4,73.8c23.1,0,46.2,0,69.3,0c-0.3,0.7-0.9,2-1.2,2.6c-21.8-0.1-43.6-0.1-65.4,0
		C75,137.9,75.1,199.5,75,261c0,11.5,4.8,22.3,9.6,32.5c-0.6,0.3-1.7,1-2.3,1.4c-5.2-10.6-10.1-21.9-10-34
		C72.4,198.5,72.4,136.2,72.4,73.8z"/>
</g>
<g>
	<path id="XMLID_16_" class="st4" d="M153,73.8c58.6,0,117.1,0,175.7,0c0.1,62.4,0,124.8,0.1,187.2c0.2,8-2.2,15.8-5.1,23.2
		c-1.3-1.1-2.5-2.1-3.8-3.1l2-0.2c2.8-6.2,4.3-13.1,4.2-19.9c-0.1-61.5,0.1-123-0.1-184.5c-53.6-0.1-107.1,0-160.7-0.1
		c-3.4-0.1-6.9-0.1-10.3,0.5C154.3,75.8,153.6,74.8,153,73.8z"/>
</g>
<g>
	<path id="XMLID_15_" class="st5" d="M77.4,78.7c20.7-0.1,41.4-0.2,62.2,0.1c-1.3,5-1.2,10.1-0.8,15.2c-3.1-2.8-6-5.7-9.1-8.5
		c-8.6,13-10,30.3-3.3,44.4c-3.6-2.4-6.9-5.1-10.4-7.5c-7.3,13-6.8,29.5,1,42.1c-3.9-1.5-7.4-3.7-11.3-5
		c-1.4,15.1,1.1,30.9,9.6,43.8c-4.8-2.2-9.1-5.1-13.8-7.5c-2,11.7,0.2,24.3,7.2,34.1c6.9,10.2,18.8,14.9,28.4,22
		c-13.9,12.9-27.8,25.8-41.7,38.7c-2.8,0.8-5.6,1.7-8.4,2.3c-5.4-10.3-10.1-21.5-9.7-33.3C77.5,199.3,77.3,139,77.4,78.7z"/>
	<path id="XMLID_14_" class="st5" d="M156.4,78.8c53-0.4,106,0,159-0.2c2.5,0,5.1,0,7.6,0.5c-34.4,32.2-68.9,64.1-103.4,96.1
		C198.5,143.1,177.3,111,156.4,78.8z"/>
	<path id="XMLID_13_" class="st5" d="M320,285.6c0.7,0.1,2.1,0.3,2.8,0.4c-4.7,10.9-11.3,21-18.9,30.1
		c-26.2,30.7-62.1,51.2-98.6,67.2c-2.1,0.7-4.5,2.6-6.7,1.2c-12.9-5.9-26.3-11.2-38.2-19.1c1.9,0.1,3.8,0.3,5.7,0.4
		c10.4,6.2,21.5,11,32.6,15.9c2.5,1.5,5.1-0.8,7.4-1.6c37.5-16.5,74.3-38.2,100.1-70.7c0.5-0.2,1.5-0.7,2.1-1
		c0.1-0.5,0.2-1.3,0.3-1.8C312.4,299.6,317.2,293.1,320,285.6z"/>
	<path id="XMLID_12_" class="st5" d="M92.6,306c1.8,0.7,3.4,1.7,5,2.7c1.4,1.6,2.8,3.2,4.3,4.8l-1,0.2
		C98.8,309.8,90.3,312.3,92.6,306z"/>
</g>
<g>
	<path id="XMLID_11_" class="st6" d="M142.3,126c-7.8-7.4-7.4-20.2-2.9-29.1c29.4,38.4,59.5,76.3,89,114.6c-2.5-0.3-5.9,1.5-7.7-0.8
		C194.6,182.5,168.5,154.2,142.3,126z"/>
	<path id="XMLID_10_" class="st6" d="M124.5,132c1.4,1.1,2.8,2.3,4.1,3.6c27.2,26.8,54.8,53.2,81.9,80.1c-1.8,1.1-3.5,2.2-5.3,3.3
		c-25.7-20.9-51.4-41.9-77.1-62.9C121.6,150,123.2,139.9,124.5,132z"/>
	<path id="XMLID_9_" class="st6" d="M118.7,171.7c25.6,19,51,38.4,76.5,57.6c-1.2,1.9-2.4,3.8-3.6,5.7
		c-21.8-12.8-43.4-25.8-65.1-38.8C119.6,190.2,119.2,180.1,118.7,171.7z"/>
	<path id="XMLID_8_" class="st6" d="M111.9,205.7c1.9,0.3,3.4,1.6,5.1,2.5c22.9,13.1,46.1,25.6,68.8,39c-1.2,1.2-0.7,4.4-2.9,4.6
		c-19-8.2-38.2-16.2-57.2-24.3C117.2,223.8,113.2,214.4,111.9,205.7z"/>
	<path id="XMLID_7_" class="st6" d="M103.6,298.3c24.5-6.6,49.1-13.2,73.7-19.7c2.8,2.2,8,2.2,9.3,5.7
		c-15.6,5.7-31.1,11.8-46.6,17.7C128.5,307.3,112.3,309.4,103.6,298.3z"/>
	<path id="XMLID_6_" class="st6" d="M121.6,314.6c23.6-9.2,46.8-19.1,70.3-28.4c2.9,0.3,5.4,2.1,8.1,3.1
		c-16.6,8.6-33.6,16.7-50.3,25.2c-7,3.4-15.3,6.5-23.1,4.1C124.8,317.6,121.6,317.2,121.6,314.6z"/>
	<path id="XMLID_5_" class="st6" d="M205.8,291.9c2.4,0.5,6.5,0.3,7.4,3c-12.2,8.8-24.3,17.8-36.5,26.7c-5.8,4.3-12.4,7.7-19.4,9.1
		c-5.4,1-11.6,0.5-15.8-3.2C162.8,315.6,184.3,303.8,205.8,291.9z"/>
	<path id="XMLID_4_" class="st6" d="M162.6,340.7c19.5-15,39.2-29.7,58.7-44.7c3.3,0.5,6.7,0.9,10,1.2c-11.9,12.5-25,24.1-37.4,36.2
		C185.9,340.9,173.2,346.7,162.6,340.7z"/>
</g>
<g>
	<path id="XMLID_3_" class="st7" d="M106.7,326.1c2.6,0.4,5.2,0.7,7.8,1.2l2.4,1.4c-0.1,0.6-0.3,1.7-0.4,2.3c-1.3,0.8-2.6,1.6-4,2.4
		C110.5,331,108.6,328.5,106.7,326.1z"/>
	<path id="XMLID_2_" class="st7" d="M140.6,353.1c3.4,0.5,6.7,0.9,10.1,1.5c1.5,0.8,3.1,1.6,4.6,2.4c-1.5,1.1-2.9,2.3-4.4,3.4
		C147.1,358.5,143.1,356.6,140.6,353.1z"/>
</g>
<g>
	<path id="XMLID_1_" class="st8" d="M119.7,337.9c3.1,0.3,6.2,0.7,9.3,1.2c1.6,1.3,3.3,2.5,4.9,3.8c-1,0.8-3,2.3-4,3.1
		C126,343.9,122.7,341.1,119.7,337.9z"/>
</g>
</svg>
