<?xml version="1.0" encoding="utf-8"?>
<!-- Generator: Adobe Illustrator 19.0.0, SVG Export Plug-In . SVG Version: 6.00 Build 0)  -->
<svg version="1.1" id="Layer_1" xmlns="http://www.w3.org/2000/svg" xmlns:xlink="http://www.w3.org/1999/xlink" x="0px" y="0px"
	 viewBox="0 0 400 400" style="enable-background:new 0 0 400 400;" xml:space="preserve">
<style type="text/css">
	.st0{fill:#FFFFFF;}
	.st1{fill:#155C9D;}
	.st2{fill:#C42127;}
</style>
<path d="M200.3,7H50.4v187.6c0,39.7,6,62.4,18.1,89.8c21.1,48.8,80.6,98.9,131.8,108.6c51.2-9.6,110.7-59.7,131.8-108.6
	c12.1-27.4,18.1-50.1,18.1-89.8V7H200.3z"/>
<path class="st0" d="M342.9,194.6c0,19.5-1.5,34.5-4.3,48c-2.9,13.5-7.2,25.4-13.1,38.9l0,0.1c-9.9,23-29.4,47.1-52.6,66.3
	c-22.7,18.9-49,33-72.5,37.8c-23.5-4.7-49.8-18.9-72.5-37.8c-23.2-19.2-42.7-43.3-52.6-66.3l0,0l0,0c-5.9-13.4-10.2-25.4-13.1-38.9
	c-2.9-13.5-4.3-28.5-4.3-48V14.3h142.6h142.6V194.6z"/>
<path class="st1" d="M148.2,344.8l-3.4,1.9l-0.6-1.2l0,0c-0.2,1.3-0.8,2.3-2.2,3.1c-1.7,0.9-3.7,0.7-4.9-1.4l-3.5-6.3l3.5-1.9
	l2.7,4.9c0.6,1.1,1.1,1.7,2.2,1.2c0.6-0.3,1.2-1.1,0.4-2.6l-2.7-4.9l3.5-1.9"/>
<polyline class="st1" points="148.4,340.2 152.1,338.1 154,341.7 150.3,343.7 "/>
<polyline class="st1" points="165.2,330.9 168.9,328.9 170.9,332.4 167.2,334.4 "/>
<path class="st1" d="M158.9,331.5c-0.2-0.4-0.5-0.6-0.9-0.7c-0.3-0.1-0.7,0-1.1,0.2c-1.4,0.8-0.9,2-0.3,3.2c0.6,1.1,1.4,2.2,2.8,1.4
	c0.8-0.4,1-1.3,0.6-2.1l3.4-1.8c1,2.7-0.2,5.2-2.7,6.6c-2.8,1.5-6.1,0.8-7.7-2.1c-1.6-2.9-0.4-6.1,2.3-7.6c2.4-1.3,5.2-1.3,6.8,1.2"
	/>
<path class="st1" d="M180.7,318.5c-0.2-0.3-0.5-0.4-0.8-0.5c-0.3-0.1-0.7,0-0.9,0.2c-0.5,0.3-1,0.7-0.7,1.3c0.1,0.3,0.4,0.3,0.7,0.3
	c0.7-0.1,2.1-0.7,3.5-1c1.4-0.3,2.8-0.1,3.6,1.4c1.4,2.6-0.7,4.6-2.9,5.8c-2.2,1.2-5.1,1.6-6.4-0.7l3.4-1.9c0.2,0.3,0.5,0.5,0.9,0.6
	c0.3,0.1,0.7,0,1.1-0.3c0.5-0.3,1.1-0.8,0.8-1.4c-0.3-0.5-0.7-0.5-2.5,0.1c-2.9,1-4.5,0.7-5.4-0.8c-1.3-2.3,0.9-4.3,2.8-5.3
	c2-1.1,4.7-1.9,6.1,0.5"/>
<path class="st1" d="M192.5,315.1c-0.3,0.5-0.7,0.9-1.1,1.2c-0.7,0.6-1,1-0.6,1.6c0.2,0.4,0.9,0.6,1.6,0.3c0.8-0.4,1.2-1.3,0.7-2.3
	L192.5,315.1 M197.1,315.4c0.4,0.7,0.9,1.5,1.6,1.8l-3.6,2c-0.2-0.2-0.5-0.5-0.6-0.8l0,0c-0.3,1.3-1.2,2.1-2.4,2.7
	c-1.8,1-3.7,0.9-4.8-1c-1.6-2.9,1.9-4.7,3.5-6c0.4-0.3,0.8-0.8,0.5-1.4c-0.3-0.6-1.1-0.5-1.6-0.2c-1.1,0.6-1,1.3-0.8,1.7l-3.3,1.8
	c-1.3-2.7,0.9-4.4,3.1-5.6c4.4-2.4,5.4-0.6,6.4,1.2L197.1,315.4z"/>
<path class="st1" d="M195,307.2l3.4-1.9l0.7,1.2l0,0c0.1-1.5,0.9-2.4,2.2-3.1c1-0.5,2.4-0.6,3.3,0.1c0.1-0.2,0.1-1.9,2.4-3.2
	c2.4-1.3,4.1-0.1,4.9,1.4l3.5,6.3l-3.5,1.9l-2.7-5c-0.5-0.9-1-1.6-2.1-1c-0.9,0.5-0.8,1.4-0.3,2.3l2.8,5l-3.5,1.9l-2.7-5
	c-0.5-0.9-1-1.6-2.1-1c-0.9,0.5-0.8,1.4-0.3,2.3l2.8,5l-3.5,1.9"/>
<path class="st1" d="M220.9,301.9c1.3-0.7,0.9-2.1,0.3-3.1c-0.6-1.1-1.5-2.1-2.8-1.5c-1.3,0.7-0.9,2-0.3,3.2
	C218.7,301.6,219.7,302.6,220.9,301.9 M212.2,297.7l3.4-1.9l0.5,1l0,0c0.1-0.8,0.3-1.8,2-2.7c2.6-1.4,5.3,0.5,6.6,2.8
	c1.2,2.2,1.8,5.3-1.3,7c-1.1,0.6-2.3,0.6-3.2,0.1l0,0l2.2,4l-3.5,1.9L212.2,297.7z"/>
<path class="st1" d="M229.7,291.2c-1.3,0.7-0.9,2.1-0.3,3.1c0.6,1.1,1.5,2.2,2.8,1.4c1.3-0.7,0.9-2,0.3-3.1
	C231.9,291.5,231,290.5,229.7,291.2 M238.4,295.4l-3.4,1.9l-0.6-1l0,0c-0.1,0.8-0.3,1.8-2,2.7c-2.6,1.4-5.3-0.5-6.6-2.8
	c-1.2-2.2-1.8-5.3,1.3-7c1.1-0.6,2.3-0.6,3.2-0.2l0,0l-2.5-4.5l3.5-1.9L238.4,295.4z"/>
<path class="st1" d="M241.2,284.9c-1.3,0.7-0.8,2.1-0.3,3.1c0.5,1,1.4,2.2,2.8,1.5c1.3-0.7,0.8-2.2,0.3-3.1
	C243.5,285.3,242.6,284.1,241.2,284.9 M245.2,292c-3.5,1.9-6.3,0.5-7.7-2.1c-1.4-2.6-1.1-5.7,2.4-7.6c3.5-1.9,6.3-0.5,7.7,2.1
	C248.9,286.9,248.6,290.1,245.2,292z"/>
<path class="st1" d="M246.5,278.9l3.4-1.9l0.8,1.5l0,0c0-1.4,0.4-2.4,1.7-3.1c0.4-0.2,0.7-0.3,1.1-0.4l1.7,3.1
	c-0.4,0.1-0.8,0.1-1.5,0.5c-1.4,0.8-1.7,2-0.6,4l2,3.7l-3.5,1.9"/>
<path class="st1" d="M254.5,274.5l3.5-1.9l5.1,9.3l-3.5,1.9L254.5,274.5 M257.5,271.6l-3.5,1.9l-1.4-2.5l3.5-1.9L257.5,271.6z"/>
<path class="st1" d="M268.5,273.5c-0.3,0.5-0.7,0.8-1.1,1.2c-0.7,0.6-1,1-0.7,1.7c0.2,0.4,0.9,0.6,1.6,0.3c0.8-0.4,1.2-1.3,0.7-2.3
	L268.5,273.5 M273,273.7c0.4,0.7,0.9,1.5,1.6,1.8l-3.6,2c-0.2-0.2-0.5-0.5-0.6-0.8l0,0c-0.3,1.3-1.2,2.1-2.4,2.7
	c-1.8,1-3.7,0.9-4.8-1c-1.6-2.9,1.9-4.7,3.5-6c0.4-0.3,0.8-0.8,0.5-1.3c-0.3-0.6-1.1-0.5-1.6-0.2c-1.1,0.6-1,1.3-0.8,1.7l-3.3,1.8
	c-1.3-2.7,0.9-4.4,3.1-5.6c4.4-2.4,5.4-0.6,6.4,1.2L273,273.7z"/>
<path class="st1" d="M280.1,269.6c0.1,0.2,0.2,0.3,0.3,0.4c0.4,0.3,0.9,0.2,1.2,0c0.3-0.2,0.8-0.6,0.5-1.1c-0.2-0.3-0.5-0.3-1.8,0
	c-1.2,0.3-2.6,0.6-3.3-0.7c-0.8-1.5,0.1-2.9,1.5-3.6c1.4-0.8,3-0.9,3.9,0.6l-1.9,1c-0.1-0.3-0.3-0.4-0.5-0.4c-0.2,0-0.5,0-0.7,0.2
	c-0.3,0.1-0.7,0.5-0.5,0.8c0.3,0.4,1.3,0,2.4-0.2c1.1-0.3,2.2-0.3,2.9,0.9c0.9,1.7-0.3,3.1-1.8,3.9c-0.8,0.4-3,1.3-4.2-0.8"/>
<polyline class="st1" points="284.9,267.5 286.9,266.5 287.9,268.3 285.9,269.3 "/>
<path class="st1" d="M290.9,265.1c0.7-0.4,0.5-1.1,0.2-1.6c-0.3-0.6-0.8-1.1-1.5-0.8c-0.7,0.4-0.5,1.1-0.1,1.6
	C289.7,264.9,290.2,265.4,290.9,265.1 M286.3,262.9l1.8-1l0.3,0.5l0,0c0.1-0.4,0.2-0.9,1.1-1.4c1.4-0.7,2.7,0.2,3.4,1.4
	c0.6,1.1,0.9,2.7-0.7,3.6c-0.5,0.3-1.2,0.3-1.7,0.1l0,0l1.1,2.1l-1.8,1L286.3,262.9z"/>
<polyline class="st1" points="294,262.5 295.9,261.5 296.9,263.3 295,264.4 "/>
<path class="st1" d="M300.2,258.5l-1.7-1.7l0,0l0.5,2.4L300.2,258.5 M296.2,255.1l2-1.1l6,5.3l-2.1,1.2l-0.8-0.8l-2.1,1.2l0.2,1.1
	l-2,1.1L296.2,255.1z"/>
<polyline class="st1" points="304.8,259 306.7,258 305.7,256.1 303.8,257.2 "/>
<path class="st1" d="M342.9,14.3h-85.2L57.7,125v52.3l33.6-18.5c-1.9-0.9-3.4-2.6-3.9-4.6c-0.6-2.5,0.1-5.1,2-6.9
	c2-1.9,4-3.1,5.8-4.1c1.8-1,3.3-1.8,4.4-2.6l0.1-0.1c12.6-8,23.4-21.4,35.6-33.4c1-0.9,2.1-1.6,3.4-1.8c2.8-0.6,5.4-0.9,8-1.2
	c0.4-0.9,1-1.7,1.7-2.4c1.4-1.2,3-3.8,5-7.1c1.5-2.4,3-5.1,5.5-7.6c0-0.5,0.1-0.9,0.2-1.4c0.8-3.3,2.4-5.3,4-7.1
	c1.5-1.7,3.2-3.1,4.7-4.3c8.7-7.5,18.9-11.2,28.8-13.4c0.5-0.1,1-0.2,1.5-0.2c0.7,0,1.7,0,2.7,0c1.4,0,3,0,4.9,0.5
	c1.7,0.4,3.7,1.3,5.4,2.8c1.1,0.8,2.2,2,2.8,3.4c0.1,0.2,0.2,0.5,0.3,0.7c0.2,0,0.4,0,0.5,0c3.9,0,7.9,0.9,11.5,3.4
	c0.3,0.2,0.8,0.6,1,0.9c1,1,2.3,2.3,3.7,4.2c0.8,1.1,1.6,2.5,2.1,4.1l109.8-60.5V14.3z"/>
<path class="st2" d="M105.8,221.2c-1.4,0.3-2.8,0.4-4.3,0.5c-2.1,0-4.2-1-5.5-2.7c-1.3-1.7-1.8-3.9-1.3-6c0.3-1.3,0.7-2.4,1.1-3.4
	c-0.9,0.1-1.7,0-2.6-0.3l-33.6,18.3c0.7,5.3,1.5,10.2,2.5,15c0.4,1.7,0.7,3.3,1.1,4.9l40.8-22.2
	C104.6,223.9,105.2,222.5,105.8,221.2z"/>
<path class="st2" d="M278.6,111c-4,3-8,5.4-11.6,7.8c-1.5,1-3,2.1-4.4,3.1c0.3,0.3,0.5,0.5,0.8,0.8c0.4-0.1,0.7-0.2,1.1-0.4
	c1.8-0.5,4-1.1,6.7-1.1c1.6,0,3.4,0.2,5.2,0.7c2.8,0.4,5.9,0.6,8.8,0.6c3.4,0,6.7-0.3,9.6-1l48.1-26.2V73.5L290,102.3
	c-3.9,3.2-7.9,5.9-11.3,8.6L278.6,111z"/>
<path d="M299.4,119.9c1-0.5,2.1-0.8,3.2-0.8h2c2.9,0,5.5,1.8,6.6,4.5c1,2.7,0.3,5.8-1.9,7.7c-1.8,1.6-3.6,3.1-5.4,4.5l38.9-21.6
	V95.4l-48.1,26.2C296.5,121.1,298.1,120.6,299.4,119.9z"/>
<path d="M105.6,240.8c0.8-0.7,1.6-1.5,2.5-2.3c-1-0.3-2-0.8-2.8-1.5c-1.5-1.3-2.3-3.2-2.3-5.2v-2.5c0-0.9,0.2-1.7,0.5-2.5
	c0.2-0.5,0.4-1,0.6-1.4l-40.8,22.2c0,0.1,0,0.2,0.1,0.2c1.6,6.3,3.5,12.4,5.7,18.5l34.3-19C102.9,244.9,103.7,242.5,105.6,240.8z"/>
<path class="st1" d="M308.5,181.6c-0.5,2-1.9,3.7-3.8,4.6c-1.4,0.7-2.9,1-4.2,1c-2.4-0.1-4-0.7-5.2-1.3c-3.8,11-5.5,23-5.5,36
	c0,2.5-1.3,4.8-3.5,6.1c-2.1,1.3-4.8,1.3-7,0.1c-3.2-1.8-5.4-4.2-7.2-6.4c-1.7-2.1-3-4-4.1-5.6c-2.5-2.6-3.6-5.3-4.4-7.1
	c-0.6-1.6-1.2-2.6-1.5-3l-0.6-0.1c-0.7-0.1-1.5-0.2-2.2-0.2l-14,7.8c-0.1,0.4-0.1,0.8-0.1,1.2c0,1.2,0.3,1.8,0.6,2.1l0.5,0.7
	c1.7,2.4,3.7,4.2,6.3,5.7c2.6,1.6,5.7,2.9,9.1,4.2c2,0.8,3.5,2.5,4.1,4.6c0.6,2.1,0.2,4.3-1.1,6.1c-1,1.3-2.2,2.3-3.3,2.8
	c-1.1,0.5-2,0.8-2.8,0.9c-1.4,0.3-2.3,0.3-2.7,0.4c-0.4,0.2-0.8,0.4-1.3,0.5c-8.4,2.4-16.3,5.3-23.2,9.5l-0.1,0.1
	c-15.6,9-31.8,21.2-42.6,36.2c-0.3,0.4-0.7,0.9-1.1,1.2c-0.3,0.3-0.8,1-2,1.7c-1,0.7-2.6,1.3-4.2,1.3c0,0-0.1,0-0.1,0
	c-0.9,0-1.6-0.1-2.2-0.3c-3.7-1-5.9-4.8-4.9-8.5c1.6-6.2,2.6-13.3,2.6-20.2c0-4-0.3-7.9-1.1-11.6l-3,1.7c-0.1,0.7-0.2,1.4-0.2,2.1
	c-0.3,3-2.4,5.5-5.3,6.2c-1.3,0.3-2.5,0.4-3.6,0.4c-2.1,0-3.8-0.4-5.2-0.8l-72.2,40.1c8.2,12.6,18.7,25,30.6,36.3l225.6-123.7
	c0.4-6.1,0.6-12.6,0.6-19.7v-35.5l-34.4,19.1C308.7,179.3,308.7,180.5,308.5,181.6z"/>
<path d="M280.2,144.6c8.3-5.8,16.9-11.8,24.5-18.5h-2c-7.9,4.1-18.8,3.9-27.7,2.8c-5.2-1.6-8.3,0.4-13.3,1.8c-3.4-2.9-6.4-6-9-9
	c6.1-6.7,14.4-10.8,21.7-16.2c6.8-5.4,14.9-10.5,20.3-17.5c0.9-1.3-0.9-2.3-2.2-2.5c-7.9,1.2-15.5,3.3-23,5.2
	c-17.8,5.4-30.2-0.9-48.7-1.3c-3.6-0.9-6.7,1.7-9.8,0.3c0.7-3.1,4.1-4.4,6.7-5.3c3.1-1,6.3,0.1,8.7,1.7c1.2-3.6-1.7-6.4-4.2-9
	c-3.5-2.5-9-2.8-13-1c-3.8-1,0.4-5-2.5-6.7c-2.2-2.2-5.5-1.7-8.7-1.7c-9.3,2-18.2,5.4-25.8,12c-2.6,2.1-5.7,5-6.3,7.6
	c2.9-0.4,6.7-2,9.3,0c0,0.4,0.1,0.9-0.3,1.2c-12.7-2.3-14.6,12-21.7,18.5c6.1-1.9,11.1-6.4,18.2-5.7c0.6,0.7,2.5,0.6,1.7,2.2
	c-8.7,8.6-21.3,6.3-33,8.7c-11.8,11.5-22.7,25.4-36.7,34.3c-3.1,2-6.7,3.5-9.3,6c10.8,2.8,24.2,3.5,36.3,2l1.5,1
	c-1.3,3.5-0.1,8.3-2.5,10.9c-6.3-0.9-13.4-1.2-18.5,3.5c-1.3,2.5,2,4.1,2.8,6.3c-2.3,3-3.6,7.8-5.2,11.2c-2.8,0.1-5.8,0.3-8.8,0.6
	c-4,0.3-7.9,0.8-11.7,2.2c-0.1,0-0.2,0.1-0.3,0.1c-3.5-1.9-0.2-6.4-1.2-10.2c-1.5-1.3-3.4-1.6-5-2.3c-1.5-0.3-3-0.4-4.6-0.4
	c-3.3,0.1-6.6,1-9,3.2c0.9,7.1,2.3,14,2.8,21.3c3.5,2.1,8.9,1.8,13,0.7c0.7-0.2,1.1-0.6,1.5-1c1.5-1.8,0.4-5,0.9-6.9
	c1.9-2.3,4.6-2.8,7.2-3.9c3.5-0.4,9.6-2.3,12.7-0.5c-2.3,4.5-10.1,8.2-10.7,12.5c3.4-2.9,7.3-4.7,11.8-4.8c3.2,1.5-0.3,4.2-0.6,6.3
	c-1,3.8-4.1,6.7-5,10.5c3.8,0,7.2-1.6,10.2-3.5c1.9-0.3,4.1-2.3,5.8-1c-1.5,6.9-5.1,12.8-7.6,19.2v2.5c6.4-0.7,11.8-4.1,18.1-5.2
	l1.2,1c-6.1,6-12.7,13-19,18.5c14.4,2.5,28.9,5,43.4,7.3c4.1,0.1,7.7,2.8,11.8,1.8c0.6-6.9,2.8-13.1,6.3-18.8
	c1.2-1.2,1.8-3.2,3.5-3.5c10.4,14.1,10.1,36,5.7,52.8c1,0.3,1.3-0.9,2-1.3c11.7-16.2,28.6-28.9,44.8-38.2
	c7.7-4.7,16.2-7.7,24.9-10.2c1.9-1.2,5.1-0.4,6.3-2c-6.9-2.8-13.9-5.7-18.5-12.5c-3.4-3.8-2.6-9.6-0.7-13.7
	c5.4-7.6,13.8-10.1,22.7-8.7c7.1,0.3,6.6,8.7,10.8,12.5c2.8,3.6,5.5,8.3,9.5,10.5c0-14.7,2.2-28.6,7-41.3c2-8.3,8,1.2,12-0.7
	c-5.7-7.7-9.3-16.3-10.2-26.2C288.5,149.6,280.1,150.7,280.2,144.6z"/>
</svg>
