<?xml version="1.0" encoding="utf-8"?>
<!-- Generator: Adobe Illustrator 19.0.0, SVG Export Plug-In . SVG Version: 6.00 Build 0)  -->
<svg version="1.1"
	 id="Layer_1" sodipodi:docname="u.svg" inkscape:version="0.48.1 " xmlns:dc="http://purl.org/dc/elements/1.1/" xmlns:cc="http://creativecommons.org/ns#" xmlns:rdf="http://www.w3.org/1999/02/22-rdf-syntax-ns#" xmlns:svg="http://www.w3.org/2000/svg" xmlns:inkscape="http://www.inkscape.org/namespaces/inkscape" xmlns:sodipodi="http://sodipodi.sourceforge.net/DTD/sodipodi-0.dtd"
	 xmlns="http://www.w3.org/2000/svg" xmlns:xlink="http://www.w3.org/1999/xlink" x="0px" y="0px" viewBox="-108 101 181.6 200"
	 style="enable-background:new -108 101 181.6 200;" xml:space="preserve">
<style type="text/css">
	.st0{fill:#BDBCBC;}
	.st1{fill:#231F20;}
	.st2{fill:#00A650;}
	.st3{fill:#FFFFFF;}
</style>
<sodipodi:namedview  id="namedview33" inkscape:current-layer="Layer_1" inkscape:window-maximized="1" inkscape:window-y="-8" inkscape:window-x="-8" fit-margin-bottom="0" fit-margin-right="0" inkscape:pageopacity="0" inkscape:window-height="706" inkscape:window-width="1366" inkscape:pageshadow="2" fit-margin-top="0" showgrid="false" guidetolerance="10" gridtolerance="10" inkscape:zoom="2.585" fit-margin-left="0" inkscape:cy="100" inkscape:cx="90.777557" pagecolor="#ffffff" borderopacity="1" bordercolor="#666666" objecttolerance="10">
	</sodipodi:namedview>
<g id="g3" transform="matrix(1.2499921,0,0,1.2499921,-281.24947,-427.3573)">
	<path id="path5" inkscape:connector-curvature="0" class="st0" d="M234.3,429.1l1.2-1.4c2,2.9,4.4,7.7,7.5,9.5
		c2.8,1.6,8.3,3.3,19.9,3.3l1.8,0l7.2,9.6c-4.4,7.6-8.5,17.5-8.5,26.5c0,2.4,0.4,5.7,1.6,9.8l7.5,2.1l-1.7,3.4l5.5,2.5l-2.8,3.8
		l5.2,4l-5.3,4c2,5.3,4.6,13.7,4.6,20.5c0,23.9-19.3,32.4-56,38.7l2.6,9.1l-9.8-4.2l-6.8,7.5l-3-7.7l-11.6,3.5l3.1-8.6
		c-35-6.2-53.4-14.9-53.4-38.2c0-6.8,2.6-15.2,4.6-20.5l-5.3-4l5.2-4l-2.8-3.8l5.5-2.5l-1.7-3.4l7.5-2.1c1.2-4.2,1.6-7.4,1.6-9.8
		c0-9-4.1-18.9-8.5-26.5l7.2-9.6l1.8,0c6.3,0,18.5-0.2,22.7-5.8c1.7-2.3,3.1-4.7,4.7-7.1c7,8.2,12.8,13.7,24.3,13.8l1,0
		C221.5,441.3,227.7,436.8,234.3,429.1"/>
	<path id="path7" inkscape:connector-curvature="0" class="st1" d="M211.3,445.5c9.8-0.1,17.8-4.3,24-11.5
		c2.7,3.9,3.9,10.5,27.7,10.5l4.7,6.2c0,0-7.8,13.5-7.8,26.3c0,3.2,0.6,7.5,2.4,12.8l5.2,1.4l-1.4,2.9l4.8,2.2l-2.2,3l4.3,3.3
		l-3.7,2.8c2,4.8,5.4,14.4,5.4,21.7c0,21.3-16.9,29.3-57,35.7l1.6,5.6l-5.1-2.2l-4.6,5.1l-2.1-5.3l-7.9,2.4l2.1-5.9
		c-38.4-6.4-54.6-14.5-54.6-35.4c0-7.3,3.3-16.9,5.4-21.7l-3.7-2.8l4.3-3.3l-2.2-3l4.8-2.2l-1.4-2.9l5.2-1.4
		c1.8-5.3,2.4-9.6,2.4-12.8c0-12.8-7.8-26.3-7.8-26.3l4.7-6.2c23.8-0.1,25.1-6.6,27.7-10.5c6.2,7.2,14.1,11.4,24,11.5
		C210.2,445.5,211.3,445.5,211.3,445.5"/>
	<polyline id="polyline9" class="st2" points="164.4,491 258,491 264.5,506.4 158,506.4 	"/>
	<polyline id="polyline11" class="st2" points="234.1,510.8 234.1,555.1 219.2,558.7 217.3,552.3 202.3,551.4 200.7,558.2 
		186.4,554.5 186.4,510.8 	"/>
	<path id="path13" inkscape:connector-curvature="0" class="st2" d="M267,510.8c0,0,3.5,12,3.5,16.3c0,17.6-18,22.5-18,22.5v-38.8"
		/>
	<path id="path15" inkscape:connector-curvature="0" class="st2" d="M155.2,510.8c0,0-3.5,12-3.5,16.3c0,17.6,16.4,21.7,16.4,21.7
		v-38"/>
	<polyline id="polyline17" class="st2" points="215.6,450.7 222.8,449.5 222.8,486.7 215.6,486.7 	"/>
	<polyline id="polyline19" class="st2" points="231.9,445.1 235.4,442.7 239.1,445.7 239.1,486.6 231.9,486.6 	"/>
	<path id="path21" inkscape:connector-curvature="0" class="st2" d="M248.4,448.9c3.7,1,7.9,0.9,13.1,1.5
		c-9.6,24.3-4.4,36.3-4.4,36.3h-8.7"/>
	<path id="path23" inkscape:connector-curvature="0" class="st3" d="M160.4,450c15.8,0,27.1-7.6,27.1-7.6s9.3,8.1,19.3,8.1v35.9h-41
		C170.1,474.4,160.4,450,160.4,450"/>
	<path id="path25" inkscape:connector-curvature="0" class="st1" d="M174.9,481h7.7c-0.1-2.7-0.7-9.1-4-9.1
		C175.4,472,174.9,477.5,174.9,481 M184,481h7.7c0-0.7,0.1-1.4,0.2-2.2c-0.2-3.6-1-11.9-4.1-11.9c-3.1,0-3.9,5.8-4,8.3l-0.1,1.9
		C183.9,478.5,184,479.9,184,481 M193.1,481h8.2c-0.1-3.4-0.5-8.7-3.6-8.7C194.1,472.3,193.2,478.2,193.1,481 M201.3,481.7h-8.2
		l-0.1,5.6h-1.5l0.1-5.6H184v5.7h-1.5v-5.7h-7.7c0,0.5,0,1,0,1.3c0,3.2,0.2,4.1,0.2,4.1l-1.4,0.4c0,0-0.3-1-0.3-4.5
		c0-3.7-0.2-12.6,5.2-12.6c0.2,0,0.4,0,0.6,0l-0.4-0.9L175,469l0.1-1.4l3.5-0.3l-0.3-1.3c-0.4,0.3-0.9,0.4-1.4,0.4
		c-1.1,0-2-0.7-2.4-1.7c-0.4,0.2-0.8,0.3-1.3,0.3c-1.4,0-2.5-1.1-2.5-2.5c0-1.1,0.7-2,1.7-2.4c-0.6-0.5-1.1-1.2-1.1-2
		c0-1.4,1.1-2.5,2.5-2.5c0.4,0,0.7,0.1,1,0.2c0.1-1.3,1.2-2.2,2.5-2.2c1.2,0,2.2,0.8,2.4,1.9c1.3,0.1,2.4,1.2,2.4,2.5
		c0,0.6-0.2,1.1-0.5,1.5c0.5,0.5,0.9,1.1,0.9,1.9c0,1.2-0.8,2.2-1.9,2.4l1.7,2.1l1-2.5l1.3,0.2l-0.4,3.8c0.8-1.1,1.8-2.4,3.4-2.4
		c1.5,0,2.5,1.4,3.3,2.9l-0.4-3.7l1.3-0.2l1,2.5l1.7-2.1c-1.1-0.3-1.9-1.3-1.9-2.4c0-0.8,0.3-1.5,0.9-1.9c-0.3-0.4-0.5-1-0.5-1.5
		c0-1.3,1-2.4,2.4-2.5c0.3-1.1,1.2-1.9,2.4-1.9c1.3,0,2.4,1,2.5,2.2c0.3-0.1,0.7-0.2,1-0.2c1.4,0,2.5,1.1,2.5,2.5
		c0,0.8-0.4,1.6-1.1,2c1,0.3,1.7,1.3,1.7,2.4c0,1.4-1.1,2.5-2.5,2.5c-0.5,0-0.9-0.1-1.3-0.3c-0.3,1-1.3,1.7-2.4,1.7
		c-0.5,0-1-0.2-1.4-0.4l-0.3,1.3l3.5,0.3l0.1,1.4l-3.7,0.6l-0.4,0.9c0.4-0.2,0.9-0.2,1.5-0.2c5.2,0,5,8.7,5,12.2l0,5.1l-1.5-0.7
		l0-4.4C201.3,482.8,201.3,482.3,201.3,481.7 M199,459.2c-0.3,0.1-0.6,0.2-0.9,0.2c-0.1,0.5-0.4,1-0.8,1.3c0.3,0.4,0.5,0.9,0.5,1.5
		c0.2-0.1,0.4-0.1,0.7-0.1c0.5,0,0.9,0.1,1.2,0.3c0.2-0.5,0.5-0.9,0.9-1.2C199.7,461,199.1,460.2,199,459.2 M199.2,456.9
		c0-0.7-0.5-1.2-1.2-1.2c-0.6,0-1,0.4-1.2,0.9c0.6,0.3,1.1,0.9,1.3,1.5C198.7,458.1,199.2,457.6,199.2,456.9 M194.4,458.8
		c0,0.4,0.2,0.8,0.5,1c0.1,0,0.2,0,0.4,0c0.3,0,0.6,0.1,0.9,0.2c0.4-0.2,0.7-0.6,0.7-1.1c0-0.7-0.5-1.2-1.2-1.2
		C195,457.6,194.4,458.2,194.4,458.8 M177.3,458.8c-0.3,0-0.6-0.1-0.9-0.2c-0.1,1-0.8,1.8-1.7,2.1c0.4,0.3,0.7,0.7,0.9,1.2
		c0.4-0.2,0.8-0.3,1.3-0.3c0.2,0,0.5,0,0.7,0.1c0-0.6,0.2-1.1,0.5-1.5C177.7,459.8,177.4,459.3,177.3,458.8 M178.6,456
		c-0.1-0.5-0.6-0.9-1.2-0.9c-0.7,0-1.2,0.5-1.2,1.2c0,0.6,0.5,1.2,1.1,1.2C177.5,456.8,178,456.3,178.6,456 M172.1,462.7
		c0,0.7,0.5,1.2,1.2,1.2c0.7,0,1.2-0.5,1.2-1.2c0-0.7-0.5-1.2-1.2-1.2C172.6,461.5,172.1,462,172.1,462.7 M172.7,458.3
		c0,0.7,0.5,1.2,1.2,1.2c0.7,0,1.2-0.5,1.2-1.2c0-0.7-0.5-1.2-1.2-1.2C173.2,457.1,172.7,457.6,172.7,458.3 M178.5,458.2
		c0,0.7,0.5,1.2,1.2,1.2c0.7,0,1.2-0.5,1.2-1.2c0-0.7-0.5-1.2-1.2-1.2C179,457,178.5,457.5,178.5,458.2 M178.8,461.7
		c0,0.7,0.5,1.2,1.2,1.2s1.2-0.5,1.2-1.2c0-0.7-0.5-1.2-1.2-1.2S178.8,461,178.8,461.7 M175.7,464c0,0.7,0.5,1.2,1.2,1.2
		s1.2-0.5,1.2-1.2s-0.5-1.2-1.2-1.2S175.7,463.4,175.7,464 M200.9,463.4c0,0.7,0.5,1.2,1.2,1.2c0.7,0,1.2-0.5,1.2-1.2
		s-0.5-1.2-1.2-1.2C201.4,462.1,200.9,462.7,200.9,463.4 M200.2,458.9c0,0.7,0.5,1.2,1.2,1.2c0.7,0,1.2-0.5,1.2-1.2
		c0-0.7-0.5-1.2-1.2-1.2C200.8,457.7,200.2,458.3,200.2,458.9 M194.1,462.3c0,0.7,0.5,1.2,1.2,1.2s1.2-0.5,1.2-1.2
		c0-0.7-0.5-1.2-1.2-1.2S194.1,461.6,194.1,462.3 M197.2,464.7c0,0.7,0.5,1.2,1.2,1.2c0.7,0,1.2-0.5,1.2-1.2c0-0.7-0.5-1.2-1.2-1.2
		C197.8,463.4,197.2,464,197.2,464.7"/>
	<path id="path27" inkscape:connector-curvature="0" class="st3" d="M231.4,533.3c0-11.5-9.3-20.8-20.8-20.8
		c-11.5,0-20.8,9.3-20.8,20.8c0,11.5,9.3,20.8,20.8,20.8C222.1,554.1,231.4,544.8,231.4,533.3"/>
	<path id="path29" inkscape:connector-curvature="0" class="st1" d="M210.6,513.2c-0.5,0-1.1,0-1.6,0.1l-1.3,4.2l7.4,4.1h5.1
		l0.9-5.3C218.1,514.3,214.5,513.2,210.6,513.2 M195.2,520.5c-2.9,3.5-4.6,8-4.6,12.8c0,0.4,0,0.8,0,1.3l4.7,0.6l1.9-2.2l0.4-11.2
		L195.2,520.5L195.2,520.5z M191,537.6c0.9,4.3,3.2,8,6.3,10.8l1.2-4.5l-3.8-5.9L191,537.6L191,537.6L191,537.6z M199.9,550.3
		c3.1,2,6.8,3.1,10.8,3.1c1,0,2-0.1,2.9-0.2l0.2-3.5l-9.4-5.7l-3,0.6L199.9,550.3L199.9,550.3L199.9,550.3z M225.7,546.6
		c3.1-3.5,5-8.2,5-13.3c0-0.7,0-1.5-0.1-2.2l-4.3-0.5l-4,3.1l0.1,11.4L225.7,546.6L225.7,546.6L225.7,546.6z M230,528.1
		c-1-3.9-3.3-7.4-6.2-10l-0.8,4.6l3.3,5L230,528.1L230,528.1L230,528.1z M210.6,511.8c11.9,0,21.5,9.6,21.5,21.5
		c0,11.9-9.6,21.5-21.5,21.5s-21.5-9.6-21.5-21.5C189.1,521.4,198.8,511.8,210.6,511.8 M219.5,545.1l-0.1-11.2l-4.2-2.4l-9.5,5.9
		l0.3,4.1l9.1,5.6L219.5,545.1L219.5,545.1L219.5,545.1z M212.9,523.7l-7.6-4.2l-4.9,1.9l-0.3,10.8l3.9,2.8l9.2-5.8"/>
	<path id="path31" inkscape:connector-curvature="0" class="st3" d="M246.8,500.6c-0.9,0-1.6-1.9-1.6-3.4c0-1.2,0.5-1.5,1.6-1.5
		s1.6,0.4,1.6,1.5C248.3,498.7,247.6,500.6,246.8,500.6 M246.8,502.7c2.7,0,3.9-3.3,3.9-5.6c0-1.9-0.9-3.4-3.9-3.4s-3.9,1.6-3.9,3.4
		C242.8,499.4,244.1,502.7,246.8,502.7 M239.8,493.8h-2.3v8.6h4.7l0.5-1.9h-3L239.8,493.8L239.8,493.8L239.8,493.8z M232.6,500.6
		c-0.9,0-1.6-1.9-1.6-3.4c0-1.2,0.5-1.5,1.6-1.5c1.1,0,1.6,0.4,1.6,1.5C234.2,498.7,233.4,500.6,232.6,500.6 M232.6,502.7
		c2.7,0,3.9-3.3,3.9-5.6c0-1.9-0.9-3.4-3.9-3.4c-3,0-3.9,1.6-3.9,3.4C228.7,499.4,229.9,502.7,232.6,502.7 M227.7,493.8h-2.3v6.7
		h-0.8c-0.4,0-1.7,0-1.7-1.6c0-1.8,1.1-3.9,1.6-5.1h-2.4c-0.8,1.6-1.5,3.3-1.5,5.1c0,2,0.9,3.6,3.4,3.6h3.7V493.8L227.7,493.8
		L227.7,493.8z M219.4,493.8H217c-1.9,0-2.3,1.2-2.3,2c0,0.9,0.5,1.5,1.1,2.1l1.5,1.7c0.2,0.2,0.4,0.4,0.4,0.6
		c0,0.3-0.6,0.3-0.8,0.3h-2l0.5,1.9h2.6c1.9,0,2.3-1.2,2.3-2c0-0.9-0.5-1.5-1.1-2.1l-1.6-1.7c-0.2-0.2-0.4-0.4-0.4-0.6
		c0-0.3,0.6-0.3,0.8-0.3h1.9L219.4,493.8L219.4,493.8z M213.5,493.8h-2.4c-1.9,0-2.3,1.2-2.3,2c0,0.9,0.5,1.5,1.1,2.1l1.5,1.7
		c0.2,0.2,0.4,0.4,0.4,0.6c0,0.3-0.6,0.3-0.8,0.3h-2.1l0.5,1.9h2.6c1.9,0,2.3-1.2,2.3-2c0-0.9-0.5-1.5-1.1-2.1l-1.6-1.7
		c-0.2-0.2-0.4-0.4-0.4-0.6c0-0.3,0.6-0.3,0.8-0.3h1.9L213.5,493.8L213.5,493.8L213.5,493.8z M207.8,496h-2.3v1.7h-2.3
		c0.3-0.7,0.7-2,3.1-2h1.8l-0.5-2h-1.1c-1.6,0-3,0.2-4.2,1.4c-1.1,1.1-1.6,2.6-1.6,4.1c0,1.5,0.5,3,1.3,4.3l1.8-1.2
		c-0.5-0.8-0.9-1.8-0.9-2.7h2.5v2.7h2.3V496L207.8,496z M199.6,493.8h-2.4c-1.9,0-2.3,1.2-2.3,2c0,0.9,0.5,1.5,1.1,2.1l1.5,1.7
		c0.2,0.2,0.4,0.4,0.4,0.6c0,0.3-0.6,0.3-0.8,0.3h-2.1l0.5,1.9h2.6c1.9,0,2.3-1.2,2.3-2c0-0.9-0.5-1.5-1.1-2.1l-1.6-1.7
		c-0.2-0.2-0.4-0.4-0.4-0.6c0-0.3,0.6-0.3,0.8-0.3h1.9L199.6,493.8L199.6,493.8L199.6,493.8z M188.3,500.5h1.9v1.9h-1.9V500.5
		L188.3,500.5z M186.8,493.8h-2.4c-1.9,0-2.3,1.2-2.3,2c0,0.9,0.5,1.5,1.1,2.1l1.5,1.7c0.2,0.2,0.4,0.4,0.4,0.6
		c0,0.3-0.6,0.3-0.8,0.3h-2l0.5,1.9h2.6c1.9,0,2.3-1.2,2.3-2c0-0.9-0.5-1.5-1.1-2.1l-1.6-1.7c-0.2-0.2-0.4-0.4-0.4-0.6
		c0-0.3,0.6-0.3,0.8-0.3h1.9L186.8,493.8L186.8,493.8L186.8,493.8z M179.2,500.5h1.9v1.9h-1.9V500.5L179.2,500.5z M177.9,493.8h-2.3
		v6.7h-0.8c-0.4,0-1.7,0-1.7-1.6c0-1.8,1.1-3.9,1.6-5.1h-2.4c-0.8,1.6-1.5,3.3-1.5,5.1c0,2,0.9,3.6,3.4,3.6h3.7"/>
</g>
</svg>
