<?xml version="1.0" encoding="utf-8"?>
<!-- Generator: Adobe Illustrator 19.1.0, SVG Export Plug-In . SVG Version: 6.00 Build 0)  -->
<svg version="1.1" id="Layer_1" xmlns="http://www.w3.org/2000/svg" xmlns:xlink="http://www.w3.org/1999/xlink" x="0px" y="0px"
	 viewBox="0 0 100 100" style="enable-background:new 0 0 100 100;" xml:space="preserve">
<style type="text/css">
	.st0{fill:#03A550;}
	.st1{fill:#EB2227;}
	.st2{fill-rule:evenodd;clip-rule:evenodd;fill:#C3B588;}
	.st3{fill-rule:evenodd;clip-rule:evenodd;fill:#0A67B2;}
	.st4{fill:#C3B588;}
</style>
<path class="st0" d="M68.9,36.1c9.5-19.9-50.1-24.2-54.5,2.6c-1,8.2,7.6,14.1,25,17.9C-2.3,41.4,48.4,19.4,68.9,36.1L68.9,36.1z"/>
<path class="st1" d="M30.5,41.2c-8.4,20.3,51.3,21.6,54.3-5.4c0.6-8.2-8.3-13.7-25.9-16.5C101.3,32.2,51.9,56.8,30.5,41.2L30.5,41.2
	z"/>
<path class="st2" d="M52.1,36.8c0.4,0.2,0.6,0.5,0.6,0.8c0,0.8-1.8,1.5-4,1.5c-0.4,0-0.8,0-1.2-0.1L52.1,36.8L52.1,36.8z M44.9,38.1
	c-0.2-0.1-0.2-0.3-0.2-0.5c0-0.8,1.8-1.5,4-1.5c0.3,0,0.6,0,0.9,0L44.9,38.1L44.9,38.1z M43.6,38.6l-8.2,3.3c-2.5-1.1-4-2.5-4-4
	c0-3.5,7.7-6.3,17.2-6.3c3.5,0,6.7,0.4,9.4,1l-7.2,3c-0.6-0.1-1.4-0.2-2.1-0.2c-2.9,0-5.3,1.1-5.3,2.5
	C43.4,38.2,43.5,38.4,43.6,38.6L43.6,38.6z M45.6,39.9L39,43.1c2.8,0.7,6.1,1.1,9.7,1.1c9.5,0,17.2-2.8,17.2-6.3
	c0-1.9-2.4-3.6-6.1-4.8l-6.8,3.3c0.7,0.4,1.1,1,1.1,1.5c0,1.4-2.4,2.5-5.3,2.5C47.6,40.4,46.5,40.2,45.6,39.9L45.6,39.9z"/>
<path class="st3" d="M43,69.5v-4h1.2c1.8,0,2.5,0.9,2.5,2c0,1-0.8,2-2.5,2H43L43,69.5z M50.2,76.6l-3.8-6.1c1-0.3,2.4-1.5,2.4-3.2
	c0-1.5-1.2-3.2-4.5-3.2h-3.5v12.5H43v-5.7h1.3l3.6,5.8L50.2,76.6L50.2,76.6z M53.8,76.6V64h-2.1v12.5H53.8L53.8,76.6z M63.1,75h-5.4
	v-4.1h3.8v-1.6h-3.8v-3.7h5.2V64h-7.3v12.5h7.6V75L63.1,75z M39.3,75h-5.4v-4.1h3.8v-1.6h-3.8v-3.7h5.2V64h-7.3v12.5h7.6V75L39.3,75
	z M69.5,73.1h5.1l1.3,3.5h2.5l-5.2-14.2h-1.4L66,76.6h2.2L69.5,73.1L69.5,73.1z M74.1,71.4h-4l2.1-5.6L74.1,71.4L74.1,71.4z
	 M21,74.3l-0.7,1.7c0.6,0.3,1.9,1,4.3,1c2.6,0,5-1.6,5-4.1c0-2.2-2.2-3.4-3.6-4.3c-1.6-1-2.9-1.6-2.9-2.9c0-0.9,0.8-1.5,2.2-1.5
	c1.3,0,2.3,0.4,2.8,0.7l0.7-1.7c-0.7-0.3-1.8-0.8-3.9-0.8c-2.4,0-4.3,1.6-4.3,3.7c0,2.4,1.9,3.4,3.4,4.3c1.5,0.9,3,1.6,3,3
	c0,1.1-1.1,1.9-2.4,1.9C22.6,75.1,21.5,74.5,21,74.3L21,74.3z"/>
<path class="st4" d="M10.2,88.9l-1.2,0.3V26.4c0-11.5,24.4-14.3,40.9-14.3c16.5,0,40.9,2.8,40.9,14.3v62.8
	c-14.3-4-26.2-5.2-40.9-5.1C36.7,84.1,24,85.1,10.2,88.9L10.2,88.9z M10.9,86.8C24.5,83.2,37,82.2,50,82.3c13,0,25.5,0.9,39.1,4.5
	V26.4C89,17.2,67.7,14,50,14c-17.8,0-39.1,3.2-39.1,12.4V86.8L10.9,86.8z"/>
</svg>
