<?xml version="1.0" encoding="utf-8"?>
<!-- Generator: Adobe Illustrator 19.0.0, SVG Export Plug-In . SVG Version: 6.00 Build 0)  -->
<svg version="1.1" id="Layer_1" xmlns="http://www.w3.org/2000/svg" xmlns:xlink="http://www.w3.org/1999/xlink" x="0px" y="0px"
	 viewBox="0 0 400 400" style="enable-background:new 0 0 400 400;" xml:space="preserve">
<style type="text/css">
	.st0{fill:#861B2B;stroke:#E5B139;stroke-width:10;}
	.st1{fill:#FFFFFF;}
	.st2{fill:#861B2B;}
	.st3{fill:#861B2B;stroke:#E5B139;stroke-width:4;}
	.st4{clip-path:url(#XMLID_49_);fill:#8796C8;stroke:#8796C8;stroke-width:8;}
</style>
<g id="XMLID_48_">
	<path id="XMLID_46_" class="st0" d="M47.7,12.3c0,0,40,13.9,105.5,4.4c0,0,40-6.7,80.9,0.8c0,0,57.9,10.7,103.1-4.8
		c0,0,63,261.3-146.3,376.7C190.8,389.4-8.6,290.6,47.7,12.3z"/>
	<path id="XMLID_45_" class="st1" d="M60.4,33.7c0,0,50.8,9.1,89.2,0.8s80.5-0.4,80.5-0.4s57.9,9.9,94.4-1.2c0,0,9.1,53.9,6.3,82.5
		H54C54,115.4,50.5,85.2,60.4,33.7z"/>
	<path id="XMLID_44_" class="st1" d="M161.2,123.5c0,0-0.3,15.9,11.2,16.7c11.4,0.7,44.5,1.3,47.3,28.3s4.6,42.7,4.6,42.7
		s1.9,23.9,20.8,32c18.9,8-5.4-26.6-7.6-29.7c0,0,47.9,47.7,10.6,48.6c0,0,1.8,11.4-5.8,18.9c-7.6,7.4-14.1,9.5-4.6,16.2
		c0,0,2.7,0.9,2.5,4.8s-0.3,3.9-2.2,4.9c-1.9,1-10.1,8.2-10.7,15.9c-0.6,7.7-4.5,3.9-5.5,6.4c-1,2.5-0.6,7-0.6,7s-5.1,8-17,6.4
		c0,0-6.5-1-3.1-6.1l12.2-16.1l8.5-12.8c0,0,2.1-3.3-4-10.7c-6.1-7.4-13.7-19.2-13.7-19.2s-11.6-17.5,6.5-32.3
		c0,0-18.7,8.9-9.8,30.8c0,0-12,3.4-11.3-10.7l-0.9,9.2c0,0,1.6,3.3-6.5,3.3c-8.2,0-24.2,0.4-24.2,0.4s-3.7,1.2-3.1,5.9
		c0,0-9.4-1.2-9.4,4.6s-10.4,7.7-14.6,6.4c-4.2-1.3-4.3-1.9-2.8-4.9s19.3-21,19.3-21s0.6-2.5,5.1-2.2c4.5,0.3,18.3-0.7,18.3-0.7
		l0.1-22.6c0,0-1.3-6.1,5.7-5.2c7,0.9,13.4,2.4,8.5-3.6c-4.9-5.9-10.7-13.4-10.7-13.4s-2.5-3-1.5-7.4c0,0,22,8.2,29.1-3.6
		c0,0-9.8,7.6-29.3,0.1c-19.5-7.4-32.1-12.5-32.1-12.5s-3.3-1.8-5.8,1.2c-2.5,3-3.9,1.5-4.5,1.5s-0.6,6.7-0.6,6.7s-2.2,7-11.7,7.3
		s-5.7-4.3-5.7-4.3s8.6-12.8,10.3-15.9s1.5-5.2,12.2-5.2c10.7,0,12.8,0,12.8,0s19.8,5.7,21,6.7s-7.4-4.8-16.8-7.3
		c0,0,12-0.4,20.7,2.2c0,0-3.4-5.7,0.6-9.4s8-3,6.8-11c0,0,0.1,7.7-9.5,9.5c0,0-1.2,0.4-2.8,0.3c-1.6-0.1-5,0.4-5.2,1.4
		c0,0,1.1,5.4-3.8,4.6c-4.9-0.8-5.6-2.1-5.6-2.1s-4.6,1.9-4.4-2.7c0.2-4.6,0.2-23.4,3.2-23.5c0,0-4.8,0.2,1-13.7
		c0,0-9.1-10-1.7-22.4c0,0-0.8,12.1,7.6,13.8C158.4,136,156.3,126.7,161.2,123.5z"/>
	<path id="XMLID_43_" class="st2" d="M153,139.9c0,0,2.9,4.8,14,4.6l0.2,2.9C167.1,147.4,155.3,148.2,153,139.9z"/>
	<path id="XMLID_42_" class="st2" d="M182.7,145.3c0,0-1,4.1-4.4,4.3c-3.5,0.2-7.5,1.3-9.7,3.5c0,0,5.1-1.7,9.4-1.6
		C182.2,151.7,182.7,145.3,182.7,145.3z"/>
	<path id="XMLID_41_" class="st2" d="M219.5,195.5c0,0-2.5,36.2,19.5,50.1C239.1,245.6,214.3,238.4,219.5,195.5z"/>
	<path id="XMLID_40_" class="st2" d="M245.1,261l-3.5,2.7c0,0,2.2,15.7-8.7,21.3C232.9,285,245.4,279.6,245.1,261z"/>
	<path id="XMLID_39_" class="st2" d="M229.7,288l-3.5,1.9c0,0,1.6,6.4,9.2,9.4C235.4,299.3,227.2,293.7,229.7,288z"/>
	<path id="XMLID_38_" class="st2" d="M160.7,154.5"/>
	<path id="XMLID_37_" class="st2" d="M160.5,154c0,0-0.4,3.6-3.2,4.6c-2.8,1-3.7,2.9-3.7,2.9S163.2,162.3,160.5,154z"/>
	<path id="XMLID_36_" class="st2" d="M152.3,186.1c0,0-1.4-7.1,0.4-7.8c1.8-0.7,3.1-0.8,3.7,0c0.6,0.8,0.6,2.6-2.9,3.8
		c0,0-1.2,1.4,0.1,3.4"/>
	<g id="XMLID_101_">
		<g id="XMLID_107_">
			<path id="XMLID_110_" class="st3" d="M233.9,176v-46.3h32v7.8h-22.6v10.9h19.5v7.8h-19.5V176H233.9z"/>
			<path id="XMLID_108_" class="st3" d="M303.4,158.9l9.1,2.9c-1.4,5-3.7,8.8-7,11.2c-3.3,2.5-7.4,3.7-12.4,3.7
				c-6.2,0-11.3-2.1-15.3-6.3c-4-4.2-6-9.9-6-17.2c0-7.7,2-13.7,6-17.9c4-4.3,9.3-6.4,15.8-6.4c5.7,0,10.3,1.7,13.9,5
				c2.1,2,3.7,4.8,4.8,8.5l-9.3,2.2c-0.6-2.4-1.7-4.3-3.4-5.7c-1.7-1.4-3.9-2.1-6.4-2.1c-3.5,0-6.3,1.2-8.4,3.7
				c-2.2,2.5-3.2,6.4-3.2,12c0,5.9,1.1,10,3.2,12.5c2.1,2.5,4.9,3.7,8.3,3.7c2.5,0,4.6-0.8,6.5-2.4
				C301.3,164.8,302.6,162.3,303.4,158.9z"/>
		</g>
		<g id="XMLID_102_">
			<path id="XMLID_105_" class="st1" d="M233.9,176v-46.3h32v7.8h-22.6v10.9h19.5v7.8h-19.5V176H233.9z"/>
			<path id="XMLID_103_" class="st1" d="M303.4,158.9l9.1,2.9c-1.4,5-3.7,8.8-7,11.2c-3.3,2.5-7.4,3.7-12.4,3.7
				c-6.2,0-11.3-2.1-15.3-6.3c-4-4.2-6-9.9-6-17.2c0-7.7,2-13.7,6-17.9c4-4.3,9.3-6.4,15.8-6.4c5.7,0,10.3,1.7,13.9,5
				c2.1,2,3.7,4.8,4.8,8.5l-9.3,2.2c-0.6-2.4-1.7-4.3-3.4-5.7c-1.7-1.4-3.9-2.1-6.4-2.1c-3.5,0-6.3,1.2-8.4,3.7
				c-2.2,2.5-3.2,6.4-3.2,12c0,5.9,1.1,10,3.2,12.5c2.1,2.5,4.9,3.7,8.3,3.7c2.5,0,4.6-0.8,6.5-2.4
				C301.3,164.8,302.6,162.3,303.4,158.9z"/>
		</g>
	</g>
	<g id="XMLID_68_">
		<g id="XMLID_85_">
			<path id="XMLID_99_" class="st3" d="M85.6,98.6V58.5H72.1v-8.2h36v8.2H94.7v40.1H85.6z"/>
			<path id="XMLID_96_" class="st3" d="M111,74.8c0-4.9,0.7-9,2.1-12.4c1-2.5,2.4-4.7,4.2-6.6c1.8-2,3.7-3.4,5.9-4.3
				c2.8-1.3,6.1-1.9,9.8-1.9c6.7,0,12,2.2,16,6.6c4,4.4,6,10.5,6,18.4c0,7.8-2,13.9-6,18.3c-4,4.4-9.3,6.6-16,6.6
				c-6.7,0-12.1-2.2-16.1-6.6C113,88.5,111,82.5,111,74.8z M120.5,74.4c0,5.5,1.2,9.6,3.6,12.4c2.4,2.8,5.4,4.2,9,4.2
				c3.7,0,6.6-1.4,9-4.2c2.3-2.8,3.5-7,3.5-12.6c0-5.5-1.1-9.7-3.4-12.4c-2.3-2.7-5.3-4.1-9.1-4.1c-3.8,0-6.8,1.4-9.1,4.1
				C121.6,64.7,120.5,68.9,120.5,74.4z"/>
			<path id="XMLID_93_" class="st3" d="M162.2,98.6V50.3h19.3c4.8,0,8.4,0.4,10.6,1.3c2.2,0.9,4,2.4,5.3,4.6c1.3,2.2,2,4.8,2,7.6
				c0,3.6-1,6.6-3,9c-2,2.4-5,3.9-9,4.5c2,1.2,3.6,2.6,4.9,4c1.3,1.5,3,4.1,5.2,7.8l5.5,9.4h-11l-6.6-10.5c-2.4-3.7-4-6.1-4.8-7.1
				c-0.9-1-1.8-1.6-2.8-2c-1-0.4-2.5-0.5-4.6-0.5h-1.9v20.1H162.2z M171.3,70.8h6.8c4.4,0,7.1-0.2,8.2-0.6c1.1-0.4,2-1.1,2.6-2
				c0.6-1,0.9-2.2,0.9-3.6c0-1.6-0.4-2.9-1.2-3.9c-0.8-1-2-1.6-3.5-1.9c-0.7-0.1-3-0.2-6.7-0.2h-7.2V70.8z"/>
			<path id="XMLID_91_" class="st3" d="M207.6,98.6V50.3h9.1v48.3H207.6z"/>
			<path id="XMLID_89_" class="st3" d="M225.6,98.6V50.3h8.9l18.7,32.4V50.3h8.5v48.3h-9.2L234,67v31.7H225.6z"/>
			<path id="XMLID_86_" class="st3" d="M269.4,74.8c0-4.9,0.7-9,2.1-12.4c1-2.5,2.4-4.7,4.2-6.6c1.8-2,3.7-3.4,5.9-4.3
				c2.8-1.3,6.1-1.9,9.8-1.9c6.7,0,12,2.2,16,6.6c4,4.4,6,10.5,6,18.4c0,7.8-2,13.9-6,18.3c-4,4.4-9.3,6.6-16,6.6
				c-6.7,0-12.1-2.2-16.1-6.6C271.4,88.5,269.4,82.5,269.4,74.8z M278.8,74.4c0,5.5,1.2,9.6,3.6,12.4c2.4,2.8,5.4,4.2,9,4.2
				c3.7,0,6.6-1.4,9-4.2c2.3-2.8,3.5-7,3.5-12.6c0-5.5-1.1-9.7-3.4-12.4c-2.3-2.7-5.3-4.1-9.1-4.1c-3.8,0-6.8,1.4-9.1,4.1
				S278.8,68.9,278.8,74.4z"/>
		</g>
		<g id="XMLID_69_">
			<path id="XMLID_83_" class="st2" d="M85.6,98.9V58.8H72.1v-8.2h36v8.2H94.7v40.1H85.6z"/>
			<path id="XMLID_80_" class="st2" d="M111,75.1c0-4.9,0.7-9,2.1-12.4c1-2.5,2.4-4.7,4.2-6.6c1.8-2,3.7-3.4,5.9-4.3
				c2.8-1.3,6.1-1.9,9.8-1.9c6.7,0,12,2.2,16,6.6c4,4.4,6,10.5,6,18.4c0,7.8-2,13.9-6,18.3c-4,4.4-9.3,6.6-16,6.6
				c-6.7,0-12.1-2.2-16.1-6.6C113,88.8,111,82.7,111,75.1z M120.5,74.7c0,5.5,1.2,9.6,3.6,12.4c2.4,2.8,5.4,4.2,9,4.2
				c3.7,0,6.6-1.4,9-4.2c2.3-2.8,3.5-7,3.5-12.6c0-5.5-1.1-9.7-3.4-12.4c-2.3-2.7-5.3-4.1-9.1-4.1c-3.8,0-6.8,1.4-9.1,4.1
				C121.6,65,120.5,69.2,120.5,74.7z"/>
			<path id="XMLID_77_" class="st2" d="M162.2,98.9V50.6h19.3c4.8,0,8.4,0.4,10.6,1.3c2.2,0.9,4,2.4,5.3,4.6c1.3,2.2,2,4.8,2,7.6
				c0,3.6-1,6.6-3,9c-2,2.4-5,3.9-9,4.5c2,1.2,3.6,2.6,4.9,4c1.3,1.5,3,4.1,5.2,7.8l5.5,9.4h-11l-6.6-10.5c-2.4-3.7-4-6.1-4.8-7.1
				c-0.9-1-1.8-1.6-2.8-2c-1-0.4-2.5-0.5-4.6-0.5h-1.9v20.1H162.2z M171.3,71.1h6.8c4.4,0,7.1-0.2,8.2-0.6c1.1-0.4,2-1.1,2.6-2
				c0.6-1,0.9-2.2,0.9-3.6c0-1.6-0.4-2.9-1.2-3.9c-0.8-1-2-1.6-3.5-1.9c-0.7-0.1-3-0.2-6.7-0.2h-7.2V71.1z"/>
			<path id="XMLID_75_" class="st2" d="M207.6,98.9V50.6h9.1v48.3H207.6z"/>
			<path id="XMLID_73_" class="st2" d="M225.6,98.9V50.6h8.9L253.1,83V50.6h8.5v48.3h-9.2L234,67.3v31.7H225.6z"/>
			<path id="XMLID_70_" class="st2" d="M269.4,75.1c0-4.9,0.7-9,2.1-12.4c1-2.5,2.4-4.7,4.2-6.6c1.8-2,3.7-3.4,5.9-4.3
				c2.8-1.3,6.1-1.9,9.8-1.9c6.7,0,12,2.2,16,6.6c4,4.4,6,10.5,6,18.4c0,7.8-2,13.9-6,18.3c-4,4.4-9.3,6.6-16,6.6
				c-6.7,0-12.1-2.2-16.1-6.6C271.4,88.8,269.4,82.7,269.4,75.1z M278.8,74.7c0,5.5,1.2,9.6,3.6,12.4c2.4,2.8,5.4,4.2,9,4.2
				c3.7,0,6.6-1.4,9-4.2c2.3-2.8,3.5-7,3.5-12.6c0-5.5-1.1-9.7-3.4-12.4c-2.3-2.7-5.3-4.1-9.1-4.1c-3.8,0-6.8,1.4-9.1,4.1
				S278.8,69.2,278.8,74.7z"/>
		</g>
	</g>
	<g id="XMLID_65_">
		<defs>
			<path id="XMLID_12_" d="M60.7,34.3c0,0,50.8,9.1,89.2,0.8c38.5-8.3,80.5-0.4,80.5-0.4s57.9,9.9,94.4-1.2c0,0,9.1,53.9,6.3,82.5
				H54.3C54.3,115.9,50.8,85.8,60.7,34.3z"/>
		</defs>
		<clipPath id="XMLID_49_">
			<use xlink:href="#XMLID_12_"  style="overflow:visible;"/>
		</clipPath>
		<line id="XMLID_13_" class="st4" x1="48.7" y1="115.2" x2="333.6" y2="115.2"/>
	</g>
	<g id="XMLID_53_">
		<path id="XMLID_63_" class="st1" d="M71.1,151v-20.2h3.2V151H71.1z"/>
		<path id="XMLID_60_" class="st1" d="M92.2,141.8c-0.7,0.3-1.4,0.6-2,0.7c-0.6,0.2-1.2,0.2-1.7,0.2c-1.9,0-3.4-0.6-4.6-1.7
			c-1.2-1.1-1.8-2.6-1.8-4.3c0-1.8,0.7-3.3,2-4.4c1.3-1.2,3-1.8,5.1-1.8c2.1,0,3.8,0.7,5.1,2c1.3,1.3,1.9,3,1.9,5.2
			c0,2.7-0.8,5.2-2.3,7.5c-1.6,2.3-3.9,4.4-6.9,6.2l-1.8-2c1.9-1.2,3.4-2.4,4.6-3.6C91,144.5,91.8,143.1,92.2,141.8z M92.8,138.7
			l0-0.1c0.1-0.5,0.2-0.9,0.2-1.1c0-1.3-0.4-2.3-1.1-3.1c-0.7-0.8-1.7-1.2-2.9-1.2c-1.1,0-2,0.3-2.6,0.9c-0.7,0.6-1,1.4-1,2.4
			c0,1,0.3,1.8,1,2.5c0.7,0.6,1.5,1,2.6,1c0.7,0,1.4-0.1,2-0.3C91.7,139.4,92.2,139.1,92.8,138.7z"/>
		<path id="XMLID_57_" class="st1" d="M98.5,141c0-3.2,0.7-5.7,2-7.6c1.3-1.9,3.1-2.8,5.4-2.8s4,0.9,5.4,2.8c1.3,1.9,2,4.4,2,7.6
			c0,3.2-0.7,5.7-2,7.6c-1.3,1.9-3.1,2.8-5.4,2.8s-4-0.9-5.4-2.8C99.1,146.7,98.5,144.2,98.5,141z M101.7,141c0,2.5,0.4,4.4,1.1,5.7
			c0.7,1.3,1.7,2,3.1,2s2.4-0.7,3.1-2c0.7-1.3,1.1-3.2,1.1-5.7c0-2.5-0.4-4.4-1.1-5.7c-0.7-1.3-1.7-2-3.1-2c-1.3,0-2.3,0.7-3.1,2
			C102.1,136.6,101.7,138.5,101.7,141z"/>
		<path id="XMLID_54_" class="st1" d="M119.4,140.1c0.7-0.3,1.4-0.5,2-0.7c0.6-0.2,1.2-0.2,1.7-0.2c1.8,0,3.4,0.6,4.6,1.7
			c1.2,1.1,1.8,2.6,1.8,4.3c0,1.8-0.7,3.3-2,4.4c-1.3,1.2-3,1.7-5.1,1.7c-2.1,0-3.8-0.7-5.1-2c-1.3-1.3-1.9-3-1.9-5.2
			c0-2.7,0.8-5.2,2.3-7.5c1.6-2.3,3.8-4.4,6.9-6.2l1.8,2c-1.9,1.2-3.5,2.4-4.6,3.6C120.7,137.4,119.9,138.7,119.4,140.1z
			 M118.9,143.2c-0.1,0.2-0.1,0.5-0.1,0.7c0,0.2,0,0.4,0,0.6c0,1.3,0.4,2.3,1.1,3c0.7,0.8,1.7,1.2,2.9,1.2c1.1,0,2-0.3,2.6-0.9
			c0.7-0.6,1-1.4,1-2.4c0-1-0.3-1.8-1-2.5c-0.7-0.6-1.6-1-2.6-1c-0.7,0-1.4,0.1-2,0.3C120,142.5,119.4,142.8,118.9,143.2z"/>
	</g>
	<path id="XMLID_4_" class="st1" d="M63.7,163.8"/>
	<path id="XMLID_3_" class="st1" d="M150.1,203l-8.6-2.5l-4.3,7c0,0-2.1,2.5,0.4,9.4c2.5,6.8,4.6,12.2,4.6,14s3.6,3.7,5.5,0.4
		c1.9-3.3,5.1-8.9,5.1-8.9s2.1-3.7-1.6-6.2c-3.7-2.5-6.4-4.2-4-4.9C149.5,210.5,150.1,203,150.1,203z"/>
	<path id="XMLID_2_" class="st1" d="M232.3,197.4c0,0,6.2-6.5,14.4-0.7c8.2,5.8,5.9,9.8,4.6,10.4s-7.7,5.5-2.4,10.6
		c5.4,5.1,9.7,9.7,10,11.9s-1.8-8.5,4.5-18.7c0,0,6.5-9.8-7.4-17.1C242,186.4,232.3,197.4,232.3,197.4z"/>
	<path id="XMLID_1_" class="st2" d="M250,195.2c0,0,8.3,3.4,7.4,9.8c-0.9,6.4-4.6,12-0.7,15.6c0,0-1.5-4.9,2.5-8.6
		C263.3,208.2,263,198.7,250,195.2z"/>
</g>
</svg>
