<?xml version="1.0" encoding="utf-8"?>
<!-- Generator: Adobe Illustrator 19.1.0, SVG Export Plug-In . SVG Version: 6.00 Build 0)  -->
<svg version="1.1" id="Layer_1" xmlns="http://www.w3.org/2000/svg" xmlns:xlink="http://www.w3.org/1999/xlink" x="0px" y="0px"
	 viewBox="0 0 400 400" enable-background="new 0 0 400 400" xml:space="preserve">
<path d="M382.893,155.649c-2.535-4.262-4.954-8.296-5.99-12.099c-1.615-5.761-1.615-12.098-1.038-17.977
	c1.613,0,3.342-0.114,4.839-0.691c4.495-1.613,5.877-5.415,7.376-9.564c0.692-1.96,1.383-4.034,2.419-5.417
	c1.152-1.382,2.765-2.074,4.38-2.535c-4.841-3.571-10.141-6.222-16.478-6.338c-4.148,0-8.412,1.268-11.985,4.725
	c-2.189,2.19-3.802,5.186-3.917,8.527c0,3.112,1.382,5.877,3.685,7.951c-0.459,4.956-0.575,9.22-0.344,13.023
	c0.114,3.917,0.691,7.374,1.382,10.37c1.383,5.416,4.38,10.601,7.26,15.787c4.263,7.489,8.527,14.865,7.491,22.125
	c-0.578,4.378-2.65,8.298-5.878,11.177c-2.996,2.766-6.913,4.611-11.524,4.841c-0.116,0-0.345,0-0.575,0
	c1.038-4.148,0.691-8.642-1.728-13.482c-1.613-3.457-3.918-6.108-6.338-8.873c-4.725-5.302-10.14-11.408-12.677-26.504
	c0.808-0.116,1.729-0.23,2.537-0.575c2.19-0.692,4.378-2.305,6.568-4.725l1.615-1.844l-2.422-0.461
	c-1.383-0.23-2.419-0.691-3.226-1.152c-0.808-0.461-1.383-0.922-1.844-1.268c-0.691-1.268-1.152-2.651-1.383-4.148
	c-0.116-1.267-0.229-2.651-0.229-3.918c1.152,0.461,2.42,0.922,3.457,1.152c2.074,0.345,3.918,0.231,5.07-0.345
	c0.921-0.577,1.959-1.844,2.765-3.457c0.346-0.691,0.577-1.497,0.806-2.304c0.347-1.267,0.347-2.651,0.347-3.803
	c-2.305,0.23-4.495,0.46-6.683-0.115c-1.269-0.346-2.535-0.807-3.689-1.613c0.346-1.038,0.691-2.19,0.922-3.341
	c0.116-0.577,0.345-1.154,0.461-1.729c0.577,0.114,1.152,0.345,1.727,0.461c2.421,0.806,4.956,1.613,7.261,0l0.23-0.116
	c0.692-0.806,1.268-2.651,1.499-4.609c0.344-2.535,0.114-4.84-0.463-7.26c-1.958,0.691-3.801,1.152-5.877,1.152
	c-1.266,0.116-2.419-0.116-3.571-0.345c0-0.115,0-0.231,0-0.345c0-1.844,0-3.689-0.116-5.302c0.577,0,1.152,0,1.728,0
	c2.996,0.116,6.106,0.231,7.491-1.497l0.23-0.231c0.461-1.036,0.69-2.535,0.577-4.148c-0.116-1.613-0.463-3.226-1.038-4.839
	l-0.462-1.268l-1.268,0.46c-1.497,0.461-3.11,0.692-4.609,0.692c-1.268,0.116-2.535,0-3.802-0.345
	c-0.347-1.499-0.577-2.996-0.807-4.495c-0.116-0.691-0.232-1.383-0.347-2.189c1.385-0.691,2.535-1.268,3.342-1.843
	c1.269-0.692,1.96-1.383,2.421-2.305c0.461-1.152,0.461-2.88,0-4.725c-0.345-1.729-1.152-3.687-2.074-5.416l-0.69-1.152
	l-1.154,0.575c-2.188,1.038-4.263,2.19-6.337,2.882c-0.461-0.347-0.806-0.806-1.268-1.268c-0.345-0.461-0.69-0.806-1.038-1.153
	c0.577-0.807,0.922-1.613,1.269-2.42c0.575-1.497,0.807-2.88,0.807-3.918c0-1.382-0.577-2.42-2.076-3.456
	c-1.036-0.808-2.765-1.614-5.07-2.305l-1.037-0.345l-0.577,0.922c0,0.114-0.922,1.497-1.842,3.11
	c-0.462,0.692-0.922,1.383-1.383,2.306c-0.691-0.116-1.383-0.346-2.074-0.577c-0.806-0.23-1.614-0.461-2.421-0.691
	c-0.114-0.345-0.114-0.692-0.114-1.038c-0.23-1.613-0.346-3.226-1.152-4.378l-0.807-0.692c-1.153-0.345-2.421-0.575-3.804-0.691
	c-1.381-0.116-2.765,0-4.263,0.461l-0.691,0.23l-0.231,0.577c-0.46,1.152-0.575,2.189-0.807,3.112
	c-0.114,0.691-0.229,1.268-0.344,1.843c-1.959,0.461-2.998,1.267-3.573,2.305c-0.116,0-0.231,0-0.346,0
	c-1.498,0.346-3.111,0.691-4.608,1.152c-1.613,0.346-3.228,0.691-4.84,1.038c-0.807,0.806-1.499,1.843-2.074,2.765
	c-0.346,0.577-0.577,1.038-0.69,1.613c-0.692,0.115-1.383,0.345-1.96,0.461c-4.032,0.691-5.877,1.152-7.489,1.268
	c-1.498,0.231-2.882,0.345-5.417,0.461c0,0,0,0-0.114,0c-0.345-0.806-0.692-1.613-1.152-2.419c-0.463-0.807-1.038-1.613-1.613-2.421
	c-0.463-0.691-1.038-1.267-1.615-1.843c-0.577-0.577-1.268-1.152-1.958-1.613c-0.577-0.347-1.154-0.577-1.728-0.922
	c-0.575-0.231-1.268-0.346-1.844-0.461c-0.691-0.116-1.268-0.231-1.959-0.116c-0.577,0.116-1.152,0.231-1.729,0.461l-0.116,0.116
	c-0.114,0-0.229,0.115-0.345,0.23c-0.575-0.461-1.268-0.807-1.96-1.037c-0.807-0.345-1.727-0.461-2.649-0.461
	c-0.922-0.116-1.843,0.116-2.765,0.461c-0.692,0.23-1.269,0.575-1.959,1.037c-0.346-0.114-0.691-0.23-1.038-0.23
	c-0.575-0.116-1.036-0.231-1.613-0.231c-0.807,0-1.613,0.116-2.42,0.347c-0.691,0.23-1.381,0.691-1.96,1.152h-0.114
	c-0.577,0.575-0.807,1.152-0.922,1.843c0,0.119,0.025,0.251,0.036,0.378c-6.327-2.465-13.058-4.478-19.971-6.024
	c-9.909-2.074-20.165-3.227-30.421-3.227c-9.795,0-19.82,1.038-29.614,3.227c-7.021,1.504-13.978,3.562-20.79,6.158
	c0.018-0.173,0.048-0.351,0.048-0.512c-0.116-0.691-0.461-1.268-1.037-1.843c-0.577-0.461-1.267-0.922-2.075-1.152
	c-0.691-0.231-1.497-0.347-2.305-0.347c-0.576,0-1.037,0.116-1.613,0.231c-0.346,0-0.692,0.115-1.037,0.23
	c-0.692-0.461-1.268-0.807-2.074-1.037c-0.807-0.345-1.729-0.577-2.651-0.461c-0.922,0-1.844,0.116-2.65,0.461
	c-0.692,0.23-1.383,0.575-1.959,1.037c-0.116-0.114-0.231-0.23-0.345-0.23l-0.116-0.116c-0.576-0.23-1.152-0.345-1.729-0.461
	c-0.691-0.115-1.268,0-1.959,0.116c-0.576,0.116-1.268,0.23-1.844,0.461c-0.576,0.345-1.268,0.575-1.729,0.922
	c-0.691,0.461-1.382,1.036-1.958,1.613c-0.577,0.575-1.153,1.152-1.614,1.843c-0.576,0.808-1.152,1.614-1.613,2.421
	c-0.461,0.806-0.806,1.613-1.267,2.419c-2.651-0.116-3.918-0.23-5.416-0.461c-1.613-0.116-3.456-0.577-7.489-1.268
	c-0.577-0.116-1.268-0.345-1.959-0.461c-0.115-0.575-0.346-1.037-0.692-1.613c-0.576-0.922-1.267-1.958-2.074-2.765
	c-1.613-0.347-3.227-0.692-4.839-1.038c-1.498-0.461-3.111-0.806-4.609-1.152c-0.116,0-0.231,0-0.346,0
	c-0.576-1.038-1.613-1.844-3.572-2.305c-0.115-0.575-0.231-1.152-0.346-1.843c-0.23-0.922-0.346-1.96-0.806-3.112l-0.23-0.577
	l-0.692-0.23c-1.498-0.461-2.996-0.577-4.264-0.461c-1.382,0.116-2.65,0.346-3.803,0.691l-0.806,0.692
	c-0.806,1.152-0.922,2.765-1.153,4.378c0,0.345,0,0.692-0.115,1.038c-0.806,0.23-1.614,0.461-2.42,0.691
	c-0.692,0.231-1.382,0.461-2.074,0.577c-0.576-0.922-0.922-1.613-1.382-2.306c-0.922-1.613-1.844-2.996-1.844-3.11l-0.576-0.922
	l-1.037,0.345c-2.305,0.691-4.033,1.497-5.07,2.305c-1.498,1.036-2.19,2.074-2.074,3.456c0,1.038,0.23,2.421,0.806,3.918
	c0.345,0.806,0.692,1.613,1.268,2.42c-0.346,0.347-0.692,0.692-1.037,1.153c-0.461,0.461-0.922,0.921-1.268,1.268
	c-2.075-0.692-4.149-1.844-6.338-2.882l-1.153-0.575l-0.692,1.152c-0.921,1.729-1.729,3.687-2.074,5.416
	c-0.461,1.844-0.461,3.573,0,4.725c0.461,0.922,1.153,1.613,2.42,2.305c0.807,0.575,1.958,1.152,3.342,1.843
	c-0.116,0.806-0.23,1.499-0.346,2.189c-0.23,1.499-0.576,2.996-0.806,4.495c-1.268,0.345-2.535,0.461-3.803,0.345
	c-1.498,0-3.111-0.231-4.609-0.692l-1.267-0.46l-0.461,1.268c-0.576,1.613-0.922,3.226-1.037,4.839
	c-0.115,1.613,0.115,3.112,0.576,4.148l0.23,0.231c1.383,1.729,4.494,1.613,7.49,1.497c0.576,0,1.152,0,1.729,0
	c-0.116,1.613-0.116,3.457-0.116,5.302c0,0.114,0,0.23,0,0.345c-1.152,0.23-2.305,0.461-3.572,0.345
	c-2.189,0-3.917-0.461-5.992-1.152c-0.46,2.42-0.691,4.725-0.345,7.26c0.23,1.958,0.691,3.803,1.498,4.609l0.23,0.116
	c2.305,1.613,4.839,0.806,7.26,0c0.576-0.116,1.152-0.347,1.728-0.461c0.116,0.575,0.23,1.152,0.461,1.729
	c0.23,1.152,0.577,2.303,0.922,3.341c-1.153,0.806-2.42,1.268-3.688,1.613c-2.189,0.575-4.379,0.345-6.683,0.115
	c0,1.152,0,2.535,0.345,3.803c0.23,0.807,0.461,1.613,0.807,2.304c0.691,1.613,1.728,2.88,2.765,3.457
	c1.153,0.577,2.996,0.691,4.956,0.345c1.153-0.23,2.42-0.691,3.572-1.152c0,1.268-0.115,2.651-0.231,3.918
	c-0.345,1.497-0.691,2.88-1.382,4.148c-0.461,0.346-1.037,0.806-1.844,1.268c-0.806,0.461-1.843,0.922-3.226,1.152l-2.42,0.461
	l1.614,1.844c2.189,2.42,4.379,4.032,6.568,4.725c0.806,0.346,1.728,0.46,2.535,0.575c-2.535,15.096-7.951,21.203-12.676,26.504
	c-2.42,2.765-4.724,5.415-6.338,8.873c-2.42,4.84-2.766,9.334-1.844,13.482c-0.115,0-0.345,0-0.461,0
	c-4.609-0.23-8.642-2.074-11.522-4.841c-3.227-2.879-5.301-6.799-5.878-11.177c-1.037-7.26,3.227-14.635,7.376-22.125
	c2.995-5.186,5.991-10.372,7.375-15.787c0.691-2.996,1.267-6.453,1.382-10.37c0.23-3.803,0.115-8.066-0.345-13.023
	c2.305-2.074,3.687-4.839,3.572-7.951c0-3.341-1.613-6.338-3.918-8.527c-3.456-3.457-7.72-4.725-11.869-4.725
	c-6.338,0.116-11.638,2.766-16.478,6.338c1.614,0.461,3.227,1.153,4.379,2.535c1.037,1.383,1.728,3.457,2.42,5.417
	c1.383,4.148,2.881,7.951,7.375,9.564c1.498,0.577,3.112,0.691,4.725,0.691c0.692,5.878,0.692,12.216-0.922,17.977
	c-1.037,3.803-3.456,7.837-5.991,12.099c-2.651,4.264-5.416,8.874-7.26,14.058c-2.996,8.182-3.341,17.171,1.037,24.892
	c5.531,9.795,17.515,15.787,30.998,15.901c1.843,2.305,3.917,4.379,6.222,6.453c-0.46,2.996-1.382,5.531-2.65,7.721
	c-1.613,2.88-3.918,5.416-6.568,7.605c-1.498,1.268-2.535,2.535-2.766,4.032c-0.346,1.499,0.115,3.112,1.728,4.61v0.114
	c2.42,2.189,4.955,4.493,7.606,7.029c2.65,2.535,5.301,5.07,7.836,7.605c4.609,4.726,7.72,8.99,10.255,12.561
	c1.119,1.599,2.072,3.016,3.05,4.243c-0.632,0.084-1.267,0.155-1.897,0.25c-5.185,0.807-9.91,2.076-14.404,4.495l15.326,50.126
	c8.066-0.807,16.363-1.385,24.544-1.269c6.799,0,12.561,0.577,17.86,1.613c7.606,1.499,14.404,3.92,21.549,6.34
	c16.133,5.529,34.223,11.869,69.946,11.638c35.837,0.231,53.812-6.108,70.061-11.638c7.144-2.42,13.828-4.84,21.549-6.34
	c5.186-1.151,11.062-1.613,17.861-1.613c8.067-0.116,16.133,0.462,24.313,1.153c3.804-6.569,6.34-14.289,8.643-21.664
	c2.882-9.564,5.531-19.474,7.031-29.385c-5.51-1.391-10.992-2.585-16.525-3.418c1.058-1.288,2.068-2.813,3.273-4.533
	c2.535-3.571,5.531-7.835,10.254-12.561c2.422-2.535,5.186-5.07,7.837-7.605c2.535-2.535,5.186-4.839,7.605-7.029v-0.114
	c1.498-1.498,2.074-3.111,1.729-4.61c-0.346-1.497-1.268-2.765-2.881-4.032c-2.535-2.189-4.84-4.725-6.453-7.605
	c-1.381-2.19-2.304-4.725-2.65-7.721c2.305-2.074,4.379-4.148,6.223-6.453c13.483-0.114,25.467-6.106,30.997-15.901
	c4.379-7.721,4.034-16.709,1.038-24.892C388.309,164.523,385.544,159.912,382.893,155.649z M262.362,91.004
	c1.152,0.116,2.304,0.231,3.457,0.231c1.036,0,2.072,0,3.226-0.116c0.231,0.23,0.346,0.461,0.575,0.691
	c0.231,0.346,0.463,0.922,0.577,1.383c0.116,0.461,0.23,0.806,0.346,1.152c0,0.461,0.115,0.806,0.231,1.268
	c0.116,0.806,0.346,1.729,0.575,2.651c0,0.116,0.116,0.23,0.116,0.345c-2.304-1.497-5.877-2.996-9.334-3.918
	c-3.26-0.905-6.51-1.371-9.043-1.03l1.436-5.317c0.231,0.12,0.464,0.242,0.692,0.356c1.383,0.575,2.651,1.037,3.804,1.382
	C260.517,90.659,261.784,90.888,262.362,91.004z M129.383,98.264c0.23-0.922,0.346-1.844,0.576-2.651
	c0.115-0.461,0.23-0.807,0.23-1.268c0.116-0.345,0.23-0.691,0.346-1.152c0.115-0.461,0.346-1.038,0.576-1.383
	c0.115-0.229,0.345-0.461,0.576-0.691c1.153,0.116,2.189,0.116,3.227,0.116c1.153,0,2.305-0.116,3.457-0.231
	c0.576-0.116,1.844-0.345,3.342-0.922c1.152-0.345,2.42-0.806,3.688-1.382c0.294-0.137,0.585-0.283,0.877-0.427l1.486,5.408
	c-2.577-0.375-5.936,0.089-9.162,1.01c-3.573,0.922-7.03,2.421-9.334,3.918C129.268,98.494,129.268,98.379,129.383,98.264z
	 M87.543,271.64c0.131-0.205,0.255-0.416,0.356-0.644c0.305,0.219,0.638,0.46,0.97,0.697
	C88.427,271.671,87.984,271.659,87.543,271.64z M118.551,275.607c-7.371-1.282-13.745-2.263-19.595-3.045
	c0.77-0.422,1.433-1.046,1.85-1.796c0.461-0.807,0.692-2.074,0.576-2.996c0.461,0,1.037,0,1.498-0.116l0.692-0.116l0.23-0.575
	c0.692-1.497,0.922-2.996,0.807-4.495c-0.115-2.65-1.498-5.414-3.457-7.72c-1.958-2.189-4.493-4.149-7.375-5.416
	c-2.765-1.269-5.646-2.076-8.412-1.96L71.882,235.16c0.115-0.114,0.115-0.114,0.229-0.114c3.573-1.729,7.836-4.263,11.524-6.569
	c3.688-2.421,6.799-4.609,8.066-6.107c3.111-3.226,4.494-6.798,4.609-10.255c0.115-3.804-1.383-7.491-3.918-10.371
	c-2.42-2.42-5.762-4.38-9.795-5.531c-1.498-0.461-2.996-0.692-4.609-1.036c0.806-0.463,1.498-1.038,2.074-1.844
	c1.728-2.535,3.227-5.301,4.725-8.182c1.613-2.88,3.226-5.992,5.301-8.873c1.382-1.844,3.917-3.918,6.338-5.877
	c2.305-1.729,4.379-3.457,5.646-5.07l0.116-0.116c3.917-3.687,8.181-9.218,12.445-15.787c5.301-8.182,10.601-17.975,15.441-27.886
	c0.576-0.116,0.922-0.23,1.268-0.23c3.687-0.461,4.84-0.692,9.91-2.766c0.115,0.116,0.231,0.231,0.345,0.231
	c0.751,0.75,1.706,1.585,2.762,2.071c-24.568,17.56-40.674,46.308-40.674,78.707c0,37.265,21.392,69.741,52.492,85.826
	c-2.297-0.677-4.582-1.365-6.86-2.05C139.293,280.33,129.383,277.336,118.551,275.607z M281.952,275.607
	c-10.833,1.729-20.744,4.723-30.653,7.721c-2.258,0.675-4.519,1.351-6.786,2.017c31.112-16.093,52.418-48.552,52.418-85.792
	c0-32.4-16.064-61.148-40.652-78.708c1.149-0.486,2.106-1.32,2.857-2.069c0.114,0,0.23-0.116,0.344-0.231
	c5.071,2.074,6.224,2.305,9.911,2.766c0.345,0,0.692,0.114,1.267,0.23c4.839,9.911,10.141,19.704,15.442,27.886
	c4.264,6.569,8.528,12.1,12.444,15.787l0.116,0.116c1.268,1.613,3.341,3.341,5.531,5.07c2.535,1.958,5.07,4.032,6.453,5.877
	c1.958,2.88,3.687,5.992,5.186,8.873c1.613,2.881,3.111,5.647,4.839,8.182c0.575,0.806,1.268,1.382,2.074,1.844
	c-1.613,0.344-3.226,0.575-4.609,1.036c-4.032,1.152-7.374,3.112-9.795,5.531c-2.535,2.88-4.034,6.567-3.919,10.371
	c0.116,3.457,1.499,7.029,4.495,10.255c1.381,1.498,4.493,3.687,8.18,6.107c3.689,2.306,7.952,4.84,11.523,6.569
	c0,0,0.116,0,0.116,0.114l-13.367,12.214c-2.765-0.116-5.762,0.691-8.412,1.96c-2.88,1.266-5.416,3.226-7.374,5.416
	c-1.96,2.305-3.342,5.07-3.458,7.72c-0.116,1.498,0.116,2.997,0.807,4.495l0.231,0.575l0.69,0.116
	c0.462,0.116,0.922,0.116,1.498,0.116c-0.116,0.922,0.116,2.189,0.577,2.996c0.431,0.775,1.121,1.422,1.924,1.844
	C295.896,273.335,289.482,274.374,281.952,275.607z M313.194,271.651c-0.448,0.019-0.897,0.029-1.347,0.055
	c0.338-0.244,0.676-0.487,0.985-0.71C312.935,271.228,313.06,271.443,313.194,271.651z"/>
<path fill="#FFFFFF" d="M200.251,107.713c50.587,0,91.955,41.252,91.955,91.84c0,50.472-41.368,91.724-91.955,91.724
	c-50.472,0-91.725-41.252-91.725-91.724C108.526,148.965,149.779,107.713,200.251,107.713z"/>
<polygon points="249.686,190.219 228.136,190.219 228.136,196.325 249.686,196.325 249.686,202.549 228.136,202.549 
	228.136,208.887 249.686,208.887 249.686,215.34 221.453,215.34 221.453,183.766 249.686,183.766 "/>
<polygon points="196.218,215.34 196.218,201.974 182.044,183.766 191.608,183.766 200.135,195.059 208.777,183.766 218.458,183.766 
	204.284,201.974 204.284,215.34 "/>
<polygon points="213.964,225.942 191.723,225.942 191.723,232.048 213.964,232.048 213.964,238.387 191.723,238.387 
	191.723,244.724 213.964,244.724 213.964,251.177 185.04,251.177 185.04,219.488 213.964,219.488 "/>
<path d="M261.208,203.24v12.1h-7.489v-31.575h16.249h2.074h1.959c1.613,0.116,2.996,0.347,4.032,0.691
	c0.462,0.116,0.922,0.231,1.269,0.347c0.46,0.231,0.807,0.345,1.152,0.575c1.613,0.807,2.305,1.96,3.228,3.342
	c0.92,1.385,1.381,2.882,1.381,4.495c0,0.922-0.231,1.844-0.575,2.651c-0.231,0.807-0.692,1.958-1.385,2.765
	c-1.266,1.498-2.879,2.88-4.954,3.457l7.03,13.252h-8.989l-6.222-12.1H261.208z M273.883,189.964l-1.613-0.116h-4.955
	c0,0-5.212,0-5.786,0c0,0.563,0,6.63,0,7.194c0.575,0,10.712,0.002,10.712,0.002c1.163-0.106,2.104-0.212,2.732-0.523
	c0.594-0.395,1.152-0.917,1.639-1.524c0.361-0.541,0.522-1.127,0.522-1.897C277.136,191.27,275.349,190.263,273.883,189.964z"/>
<path d="M173.286,183.766l13.598,31.575h-7.721l-2.996-6.568H160.15l-2.881,6.568h-7.72l13.482-31.575H173.286z M163.174,202.69
	c0.852,0,9.232,0,10.084,0c-0.344-0.787-4.536-10.394-5.042-11.555C167.71,192.296,163.518,201.902,163.174,202.69z"/>
<path d="M192.53,274.453v12.1h-7.49v-31.69h16.133h2.074h1.959c1.614,0.116,2.995,0.347,4.032,0.692
	c0.462,0.114,0.922,0.23,1.268,0.346c0.462,0.231,0.807,0.345,1.154,0.575c1.613,0.808,2.304,1.96,3.226,3.343
	c0.922,1.383,1.381,2.88,1.381,4.494c0,1.038-0.229,1.844-0.575,2.65c-0.231,0.807-0.807,2.074-1.383,2.767
	c-1.268,1.497-2.88,2.994-5.071,3.571l7.144,13.252h-8.989l-6.222-12.1H192.53z M205.012,261.051l-1.651-0.104h-4.724
	c0,0-5.213,0-5.787,0c0,0.564,0,6.745,0,7.31c0.577,0,9.014,0,9.014,0l0.821,0.017c0,0,0.792-0.131,0.763-0.131
	c1.164-0.106,2.107-0.213,2.733-0.522c0.672-0.45,1.21-0.881,1.619-1.491c0.344-0.688,0.541-1.205,0.541-1.816
	C208.342,262.399,206.557,261.363,205.012,261.051z"/>
<path d="M205.322,148.62l13.481,31.689h-7.721l-2.88-6.568h-15.901l-2.996,6.568h-7.72l13.597-31.689H205.322z M200.138,156.111
	c-0.502,1.175-4.599,10.764-4.934,11.547c0.845,0,9.122,0,9.974,0C204.834,166.872,200.65,157.282,200.138,156.111z"/>
<path d="M212.81,129.146c2.305,1.499,4.149,3.918,4.149,6.799c0,3.573-1.729,5.992-5.07,7.721c-0.808,0.461-1.729,0.691-2.766,0.922
	c-1.152,0.23-2.304,0.345-3.572,0.345h-11.869h-8.643c0-10.486,0-21.087,0-31.575h8.643h11.869c1.268,0,2.42,0.116,3.572,0.345
	c1.038,0.231,1.958,0.461,2.766,0.922c3.341,1.729,5.07,4.15,5.07,7.721C216.959,125.227,215.115,127.648,212.81,129.146z
	 M206.738,119.868l-0.456-0.092l-1.422-0.105h-5.07c0,0-7.042,0-7.631,0c0,0.55,0,5.378,0,5.928c0.593,0,8.33,0,8.33,0l4.833,0.114
	c0.882,0,1.963-0.333,2.809-0.861c0.571-0.406,1.249-1.113,1.249-2.16c0-1.185-0.531-1.911-1.932-2.613L206.738,119.868z
	 M208.124,133.436c-0.8-0.602-1.874-0.974-2.796-0.974l-4.847,0.116c0,0-7.729,0-8.322,0c0,0.55,0,5.491,0,6.042
	c0.589,0,12.701,0,12.701,0s1.422-0.104,1.447-0.112c0,0,1.16-0.316,1.177-0.316c1.312-0.655,1.896-1.491,1.896-2.708
	C209.379,134.48,208.598,133.772,208.124,133.436z"/>
<path d="M144.709,199.553c2.419,1.383,4.148,3.803,4.148,6.684c0,3.571-1.613,5.991-4.955,7.72
	c-0.807,0.461-1.729,0.692-2.881,0.922c-1.037,0.23-2.305,0.346-3.572,0.346h-11.984h-8.527c0-10.486,0-20.972,0-31.459h8.527
	h11.984c1.268,0,2.535,0.116,3.572,0.347c1.153,0.23,2.074,0.46,2.881,0.922c3.341,1.729,4.955,4.148,4.955,7.72
	C148.857,195.635,147.128,198.054,144.709,199.553z M139.422,190.524c0,0-1.244-0.341-1.245-0.341l-1.42-0.105h-5.07
	c0,0-7.156,0-7.746,0c0,0.552,0,5.492,0,6.044c0.594,0,13.277,0,13.277,0c0.934,0,1.911-0.303,2.81-0.863
	c0.57-0.406,1.248-1.111,1.248-2.16C141.277,191.977,140.674,191.152,139.422,190.524z M140.023,203.727
	c-0.849-0.637-1.819-0.972-2.796-0.974l-4.848,0.116c0,0-7.843,0-8.437,0c0,0.552,0,5.491,0,6.042c0.59,0,12.816,0,12.816,0
	l1.421-0.104l0.455-0.091c0,0,0.713-0.211,0.747-0.231c1.312-0.656,1.897-1.491,1.897-2.711
	C141.277,204.773,140.495,204.065,140.023,203.727z"/>
<path fill="#FDDD26" d="M244.039,111.055c0.229-1.154,0.922-2.421,1.613-3.457c0.376-0.528,0.753-1,1.13-1.461l0.431-1.593
	c-0.376-2.36-0.262-4.421,0.283-6.164c0.492-1.477,1.29-2.645,2.324-3.454l2.177-8.034c-0.466-0.31-0.907-0.625-1.276-0.958
	c-1.268-1.037-1.958-2.305-1.613-3.573c0.229-1.727,1.499-2.535,2.996-3.455c1.136-0.796,2.377-1.598,2.854-2.945l0.039-0.147
	c0.092-0.411,0.094-0.746-0.013-1.172c-0.114-0.461-0.229-0.922-0.461-1.383c-0.231-0.461-0.462-0.922-0.691-1.383
	c-0.347-0.575-0.691-1.036-1.038-1.497c-0.353-0.533-0.502-0.789-0.552-0.933c-6.939-2.935-14.311-5.262-22.033-6.903
	c-9.681-2.074-19.706-3.226-29.846-3.226c-9.679,0-19.474,1.036-29.039,3.112c-7.825,1.663-15.483,4.079-22.906,7.096
	c-0.104,0.155-0.298,0.4-0.601,0.855c-0.23,0.461-0.576,0.922-0.922,1.497c-0.23,0.461-0.576,0.922-0.691,1.383
	c-0.231,0.461-0.346,0.922-0.461,1.383c-0.098,0.392-0.095,0.711-0.026,1.08l0.08,0.294c0.492,1.311,1.707,2.105,2.826,2.89
	c1.383,0.921,2.651,1.729,2.996,3.455c0.23,1.268-0.461,2.535-1.613,3.573c-0.359,0.324-0.786,0.632-1.239,0.932l2.229,8.14
	c0.989,0.806,1.759,1.941,2.237,3.375c0.511,1.633,0.628,3.554,0.255,5.731l0.61,2.224c0.309,0.398,0.606,0.811,0.864,1.263
	c0.806,1.036,1.498,2.304,1.729,3.457c0.201,0.736,0.266,1.51,0.188,2.277c10.748-5.428,22.579-8.987,35.189-10.114
	c0.23,0,0.576,0,0.922,0c0,0,0,0,0.115,0c4.955-0.461,9.681-0.461,14.635,0c0.23,0,0.46,0,0.575,0c0.231,0,0.347,0,0.461,0
	c12.563,1.122,24.351,4.661,35.066,10.054C243.777,112.524,243.844,111.771,244.039,111.055z"/>
<path fill="#FDDD26" d="M322.397,274.8c-0.231,0.114-0.461,0.114-0.691,0.114c-1.26,0.156-3-0.069-4.601-0.591
	c-0.656,0.003-1.313-0.001-1.968,0.014c-9.795,0.231-19.588,1.844-32.842,3.92c-10.6,1.727-20.395,4.723-30.306,7.72
	c-15.901,4.84-32.034,9.679-51.854,9.679c-19.705,0-35.837-4.838-51.74-9.679c-9.91-2.996-19.705-5.992-30.306-7.72
	c-7.951-1.269-14.749-2.421-20.972-3.113c-4.556-0.515-8.92-0.838-13.331-0.872c-1.646,0.559-3.459,0.805-4.761,0.642
	c-0.23,0-0.461,0-0.691-0.114c-0.227-0.183-0.433-0.302-0.632-0.397c-3.617,0.153-7.812,0.483-12.044,1.088
	c-4.148,0.69-8.297,1.613-11.408,3.11l13.943,45.747c8.527-0.691,15.902-1.152,22.585-1.036c6.915,0,13.022,0.577,18.437,1.613
	c7.836,1.614,14.634,4.034,21.894,6.453c15.902,5.531,33.763,11.753,69.024,11.522c35.376,0.231,53.238-5.99,69.14-11.522
	c7.143-2.42,13.941-4.839,21.894-6.453c5.416-1.036,11.522-1.613,18.436-1.613c6.683-0.116,14.173,0.345,22.816,1.036
	c2.42-4.378,5.07-11.753,7.489-19.589c2.882-9.563,5.417-19.819,6.569-26.503c-9.059-2.266-16.522-3.421-23.561-3.8
	C322.753,274.547,322.583,274.65,322.397,274.8z"/>
<path fill="#EE3124" d="M86.862,63.234c-0.231-0.116-0.346-0.116-0.576-0.116l-0.807-0.116l-0.345-0.806
	c-0.461-1.152-0.576-2.074-0.807-3.112c-0.115-0.575-0.23-1.268-0.346-1.843c-0.921-0.231-1.843-0.345-2.765-0.231
	c-0.922,0.116-1.728,0.231-2.65,0.461c-0.23,0.692-0.346,1.729-0.461,2.88l0,0c-0.115,0.692-0.115,1.383-0.23,2.19l-0.23,0.922
	c-1.382,0.231-2.65,0.461-4.033,0.922c-1.382,0.461-2.765,0.691-4.263,0.922l-0.461-0.807c-0.231-0.347-1.153-1.729-1.959-3.112
	v0.115c-0.23-0.577-0.692-1.267-1.267-2.189c-1.498,0.461-2.535,1.036-3.342,1.497c-0.577,0.461-0.806,0.807-0.806,1.154
	c0,0.806,0.115,1.958,0.576,2.996c0.345,0.92,0.806,1.843,1.498,2.649l0.921,0.922c-1.728,1.844-3.456,3.687-5.185,5.531
	c-2.42-0.807-4.84-1.844-7.144-2.996c-0.577,1.152-1.038,2.419-1.267,3.457c-0.346,1.383-0.346,2.42-0.116,2.996
	c0.116,0.345,0.576,0.691,1.383,1.152c1.497,1.038,3.226,1.844,4.955,2.651c-0.576,3.457-1.267,7.029-1.843,10.486
	c-2.074,0.577-4.149,0.922-6.223,0.807c-1.383,0-2.766-0.23-4.148-0.461c-0.345,1.499-0.806,3.918-0.23,5.417
	c0.691,0.575,2.996,0.46,5.185,0.345c1.614,0,3.227,0,4.84,0.114c-0.346,3.457-0.346,6.914-0.346,10.372
	c-2.189,0.691-4.148,1.152-6.338,1.038c-1.268,0-2.535-0.116-3.687-0.347c-0.116,1.038-0.116,2.305,0.115,3.341
	c0.116,1.383,0.345,2.421,0.692,2.882c1.152,0.691,2.996,0.114,4.724-0.461c1.498-0.461,2.765-0.922,4.379-0.922
	c0.461,1.383,0.921,2.765,1.268,4.264c0.461,1.613,0.921,3.226,1.613,4.839l-0.806,0.693c-1.844,1.383-3.572,2.189-5.531,2.651
	c-1.382,0.345-2.88,0.575-4.379,0.46c0.115,0.692,0.345,1.383,0.692,1.96c0.46,1.152,1.037,1.958,1.497,2.19
	c0.577,0.346,1.729,0.346,3.227,0c1.498-0.345,3.112-0.922,4.609-1.844l1.959-1.152c0.346,2.996,0.461,5.877-0.115,8.873
	c-0.231,1.958-0.922,3.803-1.729,5.3c-1.153,1.383-2.881,2.421-4.494,2.996c1.267,1.153,2.535,1.96,3.803,2.421
	c1.614,0.575,3.112,0.46,4.379-0.231c0.806-0.461,1.844-1.844,2.88-3.571c1.268-2.076,2.42-4.725,2.996-6.685
	c0.806-1.268,1.958-1.728,3.342-1.497c1.728,0.23,3.111,1.843,3.457,3.571c0.115,2.305,0,4.379-0.116,6.223
	c-0.115,2.996-0.23,5.184,0.692,6.683c0.461,0.691,1.153,1.152,2.19,1.383c0.806,0.23,1.843,0.346,3.111,0.23
	c-0.461-2.535-0.23-5.647,0-8.873c0.115-2.19,0.23-4.494,0.23-6.799c1.498-0.461,3.342-0.577,5.185,0.231
	c1.267,0.459,2.189,1.497,2.535,2.649c0.692,2.766,0.807,5.301,0.807,7.491c0.115,2.304,0.115,4.148,0.807,5.184
	c0.23,0.347,0.576,0.577,1.037,0.806l0,0c0.922,0.461,1.959,0.577,3.111,0.461c1.037-0.114,2.074-0.345,2.881-0.921
	c0.115-0.115,0.23-0.231,0.345-0.231c-2.766-3.457-2.88-9.909-2.88-14.404c0-1.152-0.116-2.304-0.116-3.457
	c0.691-0.114,1.498-0.23,2.189-0.345c2.074-0.116,3.572,0.461,4.84,1.499c1.152,1.036,1.844,2.304,2.074,3.803l0,0
	c0.116,0.23,0.116,0.46,0.116,0.691c0.23,3.457,1.037,5.416,2.305,5.992c1.152,0.461,2.88,0,5.185-1.038
	c-0.576-0.691-0.922-1.381-1.268-2.074c-0.461-0.691-0.806-1.383-1.267-1.958c0.691-2.421,1.037-4.84,1.037-7.375
	c0.116-3.457-0.346-6.914-1.382-9.795c2.88,1.038,7.72,3.112,10.371,1.268c1.268-0.922,2.074-2.765,2.65-5.761
	c-2.189,0-4.379-0.231-6.222-0.807c-2.42-0.806-4.494-2.305-5.877-4.955l-4.379-10.833c-1.729,0-3.572-0.116-5.301-0.116l0,0
	c-2.766,0-5.416,0-8.066,0h-0.576l-0.461-0.461c-1.843-1.958-5.185-3.917-8.297-5.761c-2.88-1.613-5.415-3.112-6.568-4.609v-0.116
	c-1.958-2.996-1.729-7.26-1.613-11.638c0-1.96,0.115-3.918,0-5.647c-0.922-1.958-1.153-3.687-1.037-5.186
	c0.23-2.189,1.498-3.918,3.457-4.839c1.268-0.577,2.88-0.806,4.609-0.692c1.958-0.691,3.803-1.152,5.762-1.613
	C85.595,63.348,86.286,63.348,86.862,63.234z"/>
<path fill="#EE3124" d="M95.85,264.083c-1.498-1.268-3.111-2.535-4.493-4.034l1.613-2.074c0.922,0.462,2.304,1.615,3.572,2.88
	c1.383,1.154,3.227,3.804,5.07,4.148c0.23-0.806,0.346-1.613,0.23-2.42c-0.115-2.074-1.152-4.147-2.766-5.992
	c-1.728-1.959-4.033-3.687-6.453-4.839c-2.535-1.153-5.186-1.729-7.721-1.613h-0.576l-0.461-0.347l-14.059-12.905
	c-1.498-1.036-1.382-2.074-0.691-2.996c0.46-0.575,1.152-1.037,1.728-1.381c3.457-1.615,7.721-4.034,11.293-6.455
	c3.572-2.188,6.453-4.264,7.605-5.529c2.535-2.651,3.688-5.647,3.803-8.528c0.116-3.111-1.152-6.108-3.226-8.412
	c-2.075-2.189-4.955-3.689-8.527-4.726c-3.803-1.151-8.182-1.497-13.022-1.382l-0.345-2.651c1.152-0.346,2.305-0.575,3.342-0.691
	c2.535-0.347,4.839-0.691,5.992-2.419l0,0c1.729-2.42,3.111-5.07,4.609-7.837c1.613-2.996,3.341-6.222,5.416-9.104
	c1.613-2.304,4.379-4.493,7.029-6.567c1.613-1.268,3.342-2.651,4.379-3.803c-0.922-0.922-2.996-2.651-5.186-4.495
	c-0.922-0.807-1.843-1.497-2.765-2.304c-1.037,0-2.074-0.346-2.996-0.692l0,0c-0.922-0.46-1.613-1.036-2.074-1.727
	c-1.268-1.729-1.268-4.034-1.382-6.685c0-2.074-0.116-4.493-0.692-6.913c-0.116-0.347-0.461-0.577-1.037-0.806
	c-0.346-0.231-0.807-0.347-1.268-0.347c0,1.614-0.116,3.112-0.23,4.611c-0.346,3.687-0.576,7.144,0.345,9.448l0.807,1.728
	l-1.959,0.116c-2.305,0.23-4.264,0.23-5.762-0.231c-1.844-0.461-2.996-1.267-3.803-2.535c-1.498-2.304-1.268-4.839-1.153-8.296
	c0.115-1.729,0.23-3.687,0.115-5.761c-0.115-0.461-0.346-0.692-0.577-0.922c-0.115-0.231-0.345-0.231-0.46-0.345
	c-0.23,0-0.346,0-0.461,0.114c-0.691,2.074-1.844,4.725-3.227,6.914c-1.153,2.074-2.535,3.803-3.803,4.494
	c-0.461,0.231-0.922,0.461-1.382,0.577c-2.536,16.478-8.297,23.047-13.367,28.693c-2.305,2.651-4.494,5.072-5.992,8.182
	c-3.227,6.683-2.189,12.446,1.037,17.63c2.996,4.956,7.836,9.449,12.906,13.829c0.806,0.691,1.613,1.381,2.42,2.074
	c0,0.346,0.115,1.036,0,1.613c0,2.305-0.692,4.493-1.614,6.453c-1.498,2.65-3.572,5.07-5.646,6.798
	c-0.576,0.461-1.037,1.038-1.268,1.613c-0.116,0.231-0.116,0.577,0,1.038c2.305,2.074,5.762,5.186,9.449,8.757
	c3.688,3.687,7.375,7.721,10.025,11.292l0,0c2.42,3.804,4.725,7.259,6.914,9.91c1.844,2.42,3.342,3.918,4.149,4.034
	c1.382,0.114,3.572-0.346,4.955-1.269c0.461-0.229,1.037-0.691,1.153-1.266c0-0.577-0.461-1.154-0.806-1.499l-5.07-6.799
	l1.958-1.958c0.807,0.575,1.844,1.958,2.996,3.457c1.614,2.304,3.918,5.414,7.49,7.49c1.267,0.691,3.803,0.46,5.185,0
	c1.498-0.577,1.959-2.075,1.267-3.457C97.809,265.811,96.542,264.774,95.85,264.083z"/>
<path fill="#EE3124" d="M32.357,107.713c-2.996-2.882-6.453-3.918-10.025-3.918c-3.917,0.116-7.836,1.497-10.947,3.342
	c1.959,1.729,2.996,4.493,3.918,7.26c0.691,2.074,1.382,4.032,2.42,5.531c0.922,1.152,1.959,1.959,3.227,2.304
	c2.074,0.806,4.148,0.577,6.337,0.347c0.461,4.032,0.807,8.18,0.576,12.328c-0.115,3.228-0.576,6.454-1.382,9.334
	c-1.153,4.263-3.572,8.413-6.337,12.791c-4.033,6.683-8.412,13.943-8.989,22.816c-0.115,0.806-0.115,1.383-0.115,2.074
	c0.115,14.635,12.906,24.546,28.808,25.698c0.115,0,0.345,0.116,0.692,0.116c-0.346-0.462-0.692-0.922-0.922-1.383c0,0,0,0,0-0.114
	c-0.806-1.269-1.498-2.651-2.074-4.034c-0.807,0-1.729,0-2.535-0.116c-4.839-0.461-8.988-2.305-12.33-5.3
	c-3.572-3.341-5.992-7.952-6.684-12.907c-1.152-8.182,3.342-16.017,7.836-23.854c2.766-4.955,5.647-10.024,6.915-14.979
	c0.806-2.996,1.268-6.108,1.382-9.911c0.23-4.725,0-9.334-0.461-14.059c2.189-1.729,3.803-3.803,3.688-6.799
	C35.353,111.746,34.086,109.442,32.357,107.713z"/>
<path fill="#EE3124" d="M111.061,149.772c0.345-0.575,0.806-1.152,1.152-1.729c-0.461,0.231-0.806,0.461-1.152,0.577V149.772
	L111.061,149.772z M111.061,143.895v-14.404c3.226,0.806,5.646,0.577,7.375-0.691c2.305-1.613,3.456-4.609,4.148-9.334l0.23-1.613
	l-1.729,0.114c-2.535,0.115-4.84,0-6.799-0.691c-1.037-0.23-1.844-0.691-2.65-1.383c6.107-5.3,12.56-10.715,17.631-13.712
	l0.23-0.231c1.728-1.613,5.646-3.457,9.794-4.609c3.572-1.036,7.145-1.383,9.219-0.577c0.922,0.347,1.729,1.154,2.074,2.421
	c0.345,0.922,0.461,1.958,0.345,3.11c-0.921-0.575-1.958-1.268-4.033-1.843l-0.921,2.651c1.037,0.345,4.609,2.995,6.799,5.991
	c0.576,0.922,1.037,1.729,1.268,2.651c0.23,0.806,0.23,1.499-0.116,2.19c-0.23,0.461-0.576,0.922-1.037,1.383
	c-0.346-0.345-0.922-1.038-1.844-1.844c-1.843-1.729-4.149-3.803-6.107-4.84l-1.614,2.19c0.461,0.345,0.922,0.692,1.614,1.154
	c0.806,0.691,1.958,1.613,2.88,2.419c1.383,1.383,2.305,2.996,1.037,4.264c0,0.116-0.461,0.116-1.037,0.116
	c-0.576,0-1.382-0.116-2.19-0.461c-0.806-0.231-1.613-1.038-2.305-1.614c-0.345-0.345-0.806-0.691-1.152-0.92l-0.577-0.347
	l-0.691,0.231c-5.301,2.304-6.338,2.419-9.91,2.88c-0.691,0.116-1.383,0.231-2.075,0.345l-0.691,0.115l-0.346,0.577
	c-4.494,9.448-9.564,18.782-14.519,26.734l-0.806-0.577C111.868,145.163,111.407,144.472,111.061,143.895z M101.036,162.447
	c3.227-3.11,6.568-7.489,10.025-12.675v-1.152c-3.227,1.729-5.878,2.19-7.836,1.383c-2.42-1.038-3.688-3.687-4.033-8.298
	c0-0.23,0-0.345,0-0.461h-0.116c-0.115-0.806-0.461-1.613-1.152-2.188c-0.577-0.461-1.383-0.806-2.305-0.806
	c0,0.345,0,0.691,0,1.036c0,4.379,0.116,10.947,2.765,13.252l0.807,0.691l-0.461,0.922c-0.347,0.807-1.037,1.497-1.729,1.958
	c-0.576,0.461-1.267,0.807-2.074,1.038c0.345,0.23,0.576,0.461,0.807,0.691C97.809,159.567,99.883,161.18,101.036,162.447
	L101.036,162.447z M111.061,129.491v14.404c-0.116-0.346-0.346-0.575-0.461-0.922c-0.23-0.345-0.461-0.691-0.691-1.036
	c0.576-2.19,0.806-4.495,0.806-6.915c0.116-1.958-0.115-3.918-0.345-5.645C110.6,129.377,110.831,129.491,111.061,129.491z"/>
<path fill="#EE3124" d="M51.255,219.143c-0.576,2.649-1.498,4.84-2.651,6.913c-1.844,3.228-4.379,5.877-7.144,8.298v0.114
	c-1.037,0.808-1.728,1.614-1.959,2.305c-0.115,0.692,0.23,1.383,1.038,2.19c2.305,2.189,4.839,4.609,7.605,7.144
	c2.65,2.422,5.301,5.071,7.836,7.605c4.84,4.84,7.951,9.334,10.486,12.907c1.498,2.189,2.881,4.032,4.149,5.531
	c1.268-0.231,2.535-0.231,3.803-0.346c-0.461-0.575-1.037-1.152-1.498-1.843c-2.075-2.651-4.494-6.222-7.029-10.14
	c-2.42-3.343-6.107-7.259-9.679-10.833c-3.457-3.457-7.145-6.683-9.45-8.757l-0.23-0.345c-0.806-1.383-0.806-2.651-0.345-3.803
	c0.345-0.922,1.152-1.844,2.074-2.535c1.844-1.615,3.688-3.687,4.84-5.992c0.922-1.729,1.383-3.572,1.383-5.531
	C53.445,221.101,52.293,220.179,51.255,219.143z"/>
<path fill="#EE3124" d="M313.869,63.234c0.116-0.116,0.346-0.116,0.575-0.116l0.808-0.116l0.345-0.806
	c0.462-1.152,0.575-2.074,0.807-3.112c0.116-0.575,0.231-1.268,0.347-1.843c0.92-0.231,1.842-0.345,2.765-0.231
	c0.921,0.116,1.727,0.231,2.535,0.461c0.346,0.692,0.462,1.729,0.577,2.88l0,0c0.114,0.692,0.114,1.383,0.23,2.19l0.23,0.922
	c1.383,0.231,2.65,0.461,4.034,0.922c1.383,0.461,2.765,0.691,4.264,0.922l0.461-0.807c0.229-0.347,1.036-1.729,1.844-3.112v0.115
	c0.344-0.577,0.807-1.267,1.381-2.189c1.498,0.461,2.535,1.036,3.226,1.497c0.692,0.461,0.922,0.807,0.922,1.154
	c0,0.806-0.229,1.958-0.575,2.996c-0.347,0.92-0.922,1.843-1.613,2.649l-0.806,0.922c1.727,1.844,3.455,3.687,5.184,5.531
	c2.421-0.807,4.84-1.844,7.144-2.996c0.577,1.152,1.038,2.419,1.268,3.457c0.346,1.383,0.346,2.42,0.116,2.996
	c-0.116,0.345-0.577,0.691-1.383,1.152c-1.497,1.038-3.341,1.844-4.954,2.651c0.575,3.457,1.268,7.029,1.844,10.486
	c2.072,0.577,4.032,0.922,6.222,0.807c1.383,0,2.765-0.23,4.148-0.461c0.346,1.499,0.807,3.918,0.23,5.417
	c-0.691,0.575-2.995,0.46-5.184,0.345c-1.615,0-3.228,0-4.84,0.114c0.346,3.457,0.346,6.914,0.346,10.372
	c2.073,0.691,4.148,1.152,6.336,1.038c1.27,0,2.42-0.116,3.689-0.347c0.116,1.038,0,2.305-0.116,3.341
	c-0.115,1.383-0.345,2.421-0.69,2.882c-1.154,0.691-2.998,0.114-4.725-0.461c-1.499-0.461-2.765-0.922-4.38-0.922
	c-0.461,1.383-0.92,2.765-1.268,4.264c-0.461,1.613-0.922,3.226-1.613,4.839l0.807,0.693c1.729,1.383,3.573,2.189,5.531,2.651
	c1.383,0.345,2.88,0.575,4.378,0.46c-0.114,0.692-0.344,1.383-0.691,1.96c-0.46,1.152-1.038,1.958-1.497,2.19
	c-0.577,0.346-1.844,0.346-3.226,0c-1.499-0.345-3.112-0.922-4.61-1.844l-1.959-1.152c-0.345,2.996-0.461,5.877,0.114,8.873
	c0.231,1.958,0.806,3.803,1.729,5.3c1.038,1.383,2.882,2.421,4.495,2.996c-1.268,1.153-2.535,1.96-3.802,2.421
	c-1.615,0.575-3.112,0.46-4.38-0.231c-0.807-0.461-1.843-1.844-2.88-3.571c-1.268-2.076-2.42-4.725-3.11-6.685
	c-0.693-1.268-1.96-1.728-3.228-1.497c-1.843,0.23-3.112,1.843-3.457,3.571c-0.114,2.305,0,4.379,0.115,6.223
	c0.114,2.996,0.23,5.184-0.692,6.683c-0.459,0.691-1.152,1.152-2.188,1.383c-0.806,0.23-1.959,0.346-3.226,0.23
	c0.575-2.535,0.344-5.647,0.114-8.873c-0.114-2.19-0.23-4.494-0.23-6.799c-1.613-0.461-3.341-0.577-5.186,0.231
	c-1.268,0.459-2.305,1.497-2.535,2.649c-0.691,2.766-0.806,5.301-0.806,7.491c-0.116,2.304-0.116,4.148-0.807,5.184
	c-0.231,0.347-0.692,0.577-1.038,0.806l0,0c-0.922,0.461-1.96,0.577-3.111,0.461c-1.038-0.114-2.076-0.345-2.882-0.921
	c-0.116-0.115-0.23-0.231-0.346-0.231c2.765-3.457,2.765-9.909,2.88-14.404c0-1.152,0.116-2.304,0.116-3.457
	c-0.69-0.114-1.497-0.23-2.189-0.345c-2.074-0.116-3.687,0.461-4.841,1.499c-1.152,1.036-1.843,2.304-2.072,3.803l0,0
	c-0.116,0.23-0.116,0.46-0.116,0.691c-0.231,3.457-1.038,5.416-2.305,5.992c-1.152,0.461-2.88,0-5.184-1.038
	c0.575-0.691,0.92-1.381,1.266-2.074c0.347-0.691,0.807-1.383,1.269-1.958c-0.806-2.421-1.038-4.84-1.153-7.375
	c0-3.457,0.461-6.914,1.497-9.795c-2.878,1.038-7.719,3.112-10.37,1.268c-1.268-0.922-2.074-2.765-2.649-5.761
	c2.188,0,4.262-0.231,6.22-0.807c2.421-0.806,4.495-2.305,5.878-4.955l4.378-10.833c1.729,0,3.573-0.116,5.301-0.116l0,0
	c2.65,0,5.416,0,8.066,0h0.577l0.46-0.461c1.844-1.958,5.186-3.917,8.182-5.761c2.996-1.613,5.531-3.112,6.685-4.609v-0.116
	c1.957-2.996,1.727-7.26,1.613-11.638c0-1.96-0.116-3.918,0-5.647c0.922-1.958,1.152-3.687,1.036-5.186
	c-0.23-2.189-1.499-3.918-3.458-4.839c-1.383-0.577-2.88-0.806-4.609-0.692c-1.958-0.691-3.802-1.152-5.761-1.613
	C315.137,63.348,314.445,63.348,313.869,63.234z"/>
<path fill="#EE3124" d="M304.883,264.083c1.381-1.268,3.11-2.535,4.492-4.034l-1.613-2.074c-0.922,0.462-2.303,1.615-3.571,2.88
	c-1.383,1.154-3.228,3.804-5.071,4.148c-0.229-0.806-0.345-1.613-0.229-2.42c0.114-2.074,1.15-4.147,2.765-5.992
	c1.729-1.959,3.918-3.687,6.453-4.839c2.535-1.153,5.186-1.729,7.721-1.613h0.575l0.461-0.347l14.058-12.905
	c1.382-1.036,1.382-2.074,0.691-2.996c-0.46-0.575-1.152-1.037-1.729-1.381c-3.573-1.615-7.721-4.034-11.292-6.455
	c-3.571-2.188-6.453-4.264-7.605-5.529c-2.535-2.651-3.687-5.647-3.802-8.528c-0.116-3.111,1.152-6.108,3.226-8.412
	c2.076-2.189,4.955-3.689,8.528-4.726c3.689-1.151,8.182-1.497,13.022-1.382l0.344-2.651c-1.151-0.346-2.304-0.575-3.341-0.691
	c-2.535-0.347-4.839-0.691-5.992-2.419l0,0c-1.729-2.42-3.111-5.07-4.608-7.837c-1.729-2.996-3.341-6.222-5.417-9.104
	c-1.613-2.304-4.38-4.493-7.029-6.567c-1.615-1.268-3.342-2.651-4.38-3.803c0.922-0.922,2.996-2.651,5.186-4.495
	c0.922-0.807,1.843-1.497,2.765-2.304c1.038,0,2.075-0.346,2.998-0.692l0,0c0.806-0.46,1.613-1.036,2.072-1.727
	c1.269-1.729,1.269-4.034,1.383-6.685c0-2.074,0.116-4.493,0.692-6.913c0.116-0.347,0.46-0.577,1.036-0.806
	c0.345-0.231,0.806-0.347,1.268-0.347c0,1.614,0.116,3.112,0.231,4.611c0.23,3.687,0.575,7.144-0.347,9.448l-0.807,1.728
	l1.844,0.116c2.42,0.23,4.38,0.23,5.877-0.231c1.729-0.461,2.996-1.267,3.803-2.535c1.498-2.304,1.268-4.839,1.152-8.296
	c-0.116-1.729-0.23-3.687-0.116-5.761c0.116-0.461,0.346-0.692,0.578-0.922c0.114-0.231,0.344-0.231,0.46-0.345
	c0.231,0,0.347,0,0.461,0.114c0.692,2.074,1.844,4.725,3.112,6.914c1.268,2.074,2.651,3.803,3.917,4.494
	c0.463,0.231,0.922,0.461,1.27,0.577c2.649,16.478,8.411,23.047,13.482,28.693c2.304,2.651,4.493,5.072,5.992,8.182
	c3.226,6.683,2.188,12.446-1.038,17.63c-2.996,4.956-7.837,9.449-12.907,13.829c-0.807,0.691-1.613,1.381-2.42,2.074
	c-0.116,0.346-0.116,1.036-0.116,1.613c0.116,2.305,0.807,4.493,1.728,6.453c1.383,2.65,3.457,5.07,5.647,6.798
	c0.577,0.461,1.036,1.038,1.268,1.613c0.116,0.231,0.116,0.577-0.116,1.038c-2.188,2.074-5.761,5.186-9.334,8.757
	c-3.687,3.687-7.49,7.721-10.025,11.292l0,0c-2.42,3.804-4.839,7.259-6.915,9.91c-1.844,2.42-3.341,3.918-4.264,4.034
	c-1.266,0.114-3.457-0.346-4.838-1.269c-0.461-0.229-1.153-0.691-1.153-1.266c-0.114-0.577,0.462-1.154,0.806-1.499l4.956-6.799
	l-1.843-1.958c-0.922,0.575-1.96,1.958-2.998,3.457c-1.613,2.304-3.917,5.414-7.489,7.49c-1.268,0.691-3.803,0.46-5.186,0
	c-1.498-0.577-1.959-2.075-1.266-3.457C302.923,265.811,304.19,264.774,304.883,264.083z"/>
<path fill="#EE3124" d="M368.375,107.713c2.995-2.882,6.452-3.918,10.025-3.918c3.917,0.116,7.835,1.497,10.947,3.342
	c-2.074,1.729-2.996,4.493-3.918,7.26c-0.691,2.074-1.383,4.032-2.42,5.531c-0.922,1.152-1.958,1.959-3.228,2.304
	c-2.072,0.806-4.147,0.577-6.336,0.347c-0.463,4.032-0.807,8.18-0.577,12.328c0.114,3.228,0.577,6.454,1.383,9.334
	c1.152,4.263,3.572,8.413,6.336,12.791c3.92,6.683,8.413,13.943,8.99,22.816c0.114,0.806,0.114,1.383,0.114,2.074
	c-0.114,14.635-12.905,24.546-28.808,25.698c-0.114,0-0.346,0.116-0.691,0.116c0.345-0.462,0.691-0.922,0.921-1.383c0,0,0,0,0-0.114
	c0.807-1.269,1.499-2.651,2.076-4.034c0.806,0,1.728,0,2.42-0.116c4.954-0.461,9.102-2.305,12.33-5.3
	c3.687-3.341,6.106-7.952,6.798-12.907c1.036-8.182-3.343-16.017-7.835-23.854c-2.767-4.955-5.648-10.024-6.915-14.979
	c-0.806-2.996-1.269-6.108-1.383-9.911c-0.23-4.725,0-9.334,0.461-14.059c-2.19-1.729-3.803-3.803-3.689-6.799
	C365.378,111.746,366.647,109.442,368.375,107.713z"/>
<path fill="#EE3124" d="M299.697,162.447c-3.227-3.11-6.569-7.489-10.026-12.675v-1.152c3.228,1.729,5.879,2.19,7.835,1.383
	c2.421-1.038,3.689-3.687,4.034-8.298c0-0.23,0-0.345,0-0.461l0,0c0.23-0.806,0.577-1.613,1.268-2.188
	c0.577-0.461,1.268-0.806,2.305-0.806c0,0.345,0,0.691,0,1.036c-0.116,4.379-0.116,10.947-2.765,13.252l-0.808,0.691l0.461,0.922
	c0.347,0.807,1.038,1.497,1.729,1.958c0.575,0.461,1.268,0.807,1.96,1.038c-0.231,0.23-0.462,0.461-0.692,0.691
	C302.923,159.567,300.848,161.18,299.697,162.447L299.697,162.447z M289.67,143.895c0.116-0.346,0.346-0.575,0.461-0.922
	c0.231-0.345,0.462-0.691,0.691-1.036c-0.575-2.19-0.806-4.495-0.922-6.915c0-1.958,0.231-3.918,0.462-5.645
	c-0.231,0-0.462,0.114-0.692,0.114V143.895z M289.67,149.772c-0.345-0.575-0.806-1.152-1.152-1.729
	c0.346,0.231,0.807,0.461,1.152,0.577V149.772L289.67,149.772z M289.67,129.491v14.404c-0.345,0.577-0.806,1.268-1.613,1.844
	l-0.692,0.577c-4.955-7.952-10.025-17.286-14.518-26.734l-0.346-0.577l-0.69-0.115c-0.692-0.114-1.385-0.23-2.076-0.345
	c-3.573-0.461-4.609-0.577-9.909-2.88l-0.691-0.231l-0.578,0.347c-0.344,0.23-0.807,0.575-1.151,0.92
	c-0.692,0.577-1.614,1.383-2.305,1.614c-0.808,0.345-1.615,0.461-2.189,0.461c-0.575,0-1.038,0-1.038-0.116
	c-1.266-1.268-0.345-2.88,1.038-4.264c0.922-0.806,2.074-1.729,2.88-2.419c0.692-0.461,1.152-0.808,1.614-1.154l-1.614-2.19
	c-1.959,1.038-4.264,3.112-6.107,4.84c-0.922,0.806-1.499,1.499-1.844,1.844c-0.461-0.461-0.806-0.922-1.037-1.383
	c-0.346-0.691-0.346-1.383-0.116-2.19c0.231-0.922,0.692-1.729,1.269-2.651c2.074-2.996,5.645-5.645,6.799-5.991l-0.922-2.651
	c-2.076,0.575-3.112,1.268-4.032,1.843c-0.116-1.152,0-2.188,0.344-3.11c0.347-1.268,1.153-2.074,2.076-2.421
	c1.958-0.806,5.529-0.459,9.218,0.577c4.032,1.152,8.066,2.996,9.793,4.609l0.231,0.231c5.07,2.996,11.524,8.412,17.516,13.712
	c-0.692,0.692-1.614,1.153-2.535,1.383c-1.959,0.691-4.264,0.806-6.799,0.691l-1.729-0.114l0.23,1.613
	c0.692,4.725,1.844,7.721,4.148,9.334C284.024,130.068,286.445,130.298,289.67,129.491z"/>
<path fill="#EE3124" d="M349.476,219.143c0.575,2.649,1.497,4.84,2.651,6.913c1.844,3.228,4.379,5.877,7.144,8.298v0.114
	c1.036,0.808,1.729,1.614,1.959,2.305c0.116,0.692-0.23,1.383-1.036,2.19c-2.305,2.189-4.84,4.609-7.607,7.144
	c-2.649,2.422-5.299,5.071-7.835,7.605c-4.84,4.84-7.951,9.334-10.601,12.907c-1.497,2.189-2.765,4.032-4.032,5.531
	c-1.269-0.231-2.535-0.231-3.804-0.346c0.463-0.575,1.038-1.152,1.499-1.843c2.074-2.651,4.493-6.222,7.029-10.14
	c2.421-3.343,5.992-7.259,9.68-10.833c3.458-3.457,7.144-6.683,9.45-8.757l0.229-0.345c0.807-1.383,0.807-2.651,0.345-3.803
	c-0.461-0.922-1.152-1.844-2.074-2.535c-1.843-1.615-3.687-3.687-4.84-5.992c-0.922-1.729-1.497-3.572-1.381-5.531
	C347.287,221.101,348.439,220.179,349.476,219.143z"/>
<path fill="#EE3124" d="M100.46,69.11c0.345,0.575,0.576,1.036,0.576,1.613l0.115,0.922l1.038,0.23
	c1.037,0.231,1.958,0.461,2.765,0.577c4.149,0.806,5.992,1.152,7.721,1.383c1.613,0.23,2.996,0.345,5.646,0.461
	c0.807,0,1.729,0,2.881,0.114l0,0c0,1.613,0.115,3.342-0.346,4.956c-0.23,0.345-0.46,0.575-0.691,0.806
	c-0.23,0.114-0.461,0.346-0.807,0.461l-0.691,0.345l-0.116,0.807c-0.115,1.036-0.345,2.535-0.461,4.032
	c-0.115,1.037-0.23,1.96-0.345,2.996c-0.806,0-1.844,0-2.766,0.115c-4.033,0-9.103,0.116-14.058,1.383l-1.037,0.345v1.036
	c0,0.692,0.116,1.499,0.116,2.189c0,0.807,0,1.613,0.115,2.19v1.268h1.267c1.729,0.116,3.457,0.231,5.07,0.345
	c2.996,0.231,5.878,0.461,9.334,0.346c-0.345,1.499-0.921,3.112-1.844,3.112l0,0c-5.416,0.345-10.716,0.231-16.133,0.116l0,0l0,0
	l0,0c-2.535,0-4.955,0-7.49,0c-2.19-2.074-5.531-4.034-8.527-5.763c-2.535-1.613-4.84-2.88-5.647-3.917
	c-1.382-2.305-1.268-6.108-1.152-10.026c0-2.188,0.115-4.264,0-6.222l-0.116-0.461c-0.806-1.613-1.037-2.88-0.921-3.918
	c0.115-0.691,0.231-1.152,0.576-1.613c0.345-0.461,0.807-0.807,1.268-1.037c0.922-0.461,2.074-0.577,3.457-0.461h0.576
	c1.959-0.806,3.803-1.268,5.646-1.613c1.844-0.347,3.688-0.577,5.647-0.693c1.498,0.345,2.88,0.693,4.264,1.038
	c1.268,0.23,2.535,0.575,3.917,0.922C99.768,68.073,100.229,68.533,100.46,69.11z M99.423,75.793
	c-1.959-1.152-4.379-3.573-7.951-2.535c-2.88,0.807-4.609,4.84,1.613,4.84C94.352,77.638,97.118,77.061,99.423,75.793z"/>
<path fill="#EE3124" d="M301.31,67.497c1.497-0.347,2.765-0.692,4.032-0.922c1.383-0.345,2.766-0.692,4.263-1.038
	c1.96,0.116,3.803,0.345,5.647,0.693c1.843,0.345,3.687,0.806,5.531,1.613h0.69c1.268-0.116,2.535,0,3.458,0.461
	c0.461,0.23,0.922,0.575,1.267,1.037c0.346,0.461,0.462,0.922,0.577,1.613c0.115,1.038-0.116,2.305-0.922,3.918l-0.116,0.461
	c-0.116,1.958-0.116,4.034,0,6.222c0.116,3.918,0.231,7.721-1.152,10.026c-0.808,1.036-3.112,2.303-5.762,3.917
	c-2.995,1.729-6.222,3.689-8.412,5.763c-2.535,0-5.07,0-7.489,0l0,0l0,0l0,0c-5.417,0.115-10.717,0.23-16.133-0.116l0,0
	c-0.922,0-1.497-1.613-1.844-3.112c3.457,0.116,6.34-0.114,9.218-0.346c1.729-0.114,3.458-0.229,5.186-0.345h1.269v-1.268
	c0.114-0.577,0.114-1.383,0.114-2.19c0-0.691,0-1.497,0.116-2.189v-1.036l-1.038-0.345c-4.955-1.268-10.14-1.383-14.058-1.383
	c-1.036-0.115-1.959-0.115-2.765-0.115c-0.116-1.037-0.23-1.959-0.346-2.996c-0.116-1.497-0.347-2.996-0.461-4.032l-0.116-0.807
	l-0.691-0.345c-0.345-0.116-0.577-0.347-0.808-0.461c-0.229-0.231-0.459-0.461-0.69-0.806c-0.46-1.614-0.346-3.343-0.346-4.956l0,0
	c1.152-0.114,2.074-0.114,2.88-0.114c2.651-0.116,4.034-0.231,5.533-0.461c1.843-0.231,3.686-0.577,7.72-1.383
	c0.922-0.116,1.843-0.345,2.88-0.577l1.038-0.23l0.115-0.922c0-0.577,0.23-1.038,0.575-1.613
	C300.503,68.533,300.963,68.073,301.31,67.497z M307.648,78.099c6.222,0,4.493-4.034,1.497-4.84
	c-3.456-1.037-5.99,1.383-7.835,2.535C303.614,77.061,306.264,77.638,307.648,78.099z"/>
<path fill="#EE3124" d="M130.535,70.723l-2.766-0.231c0.115-1.613,0.576-3.11,1.498-4.493c0.346-0.577,0.691-1.036,0.921-1.497
	c-1.268-0.231-2.766,0.461-3.803,1.152c-1.844,1.152-3.227,2.996-4.264,4.839c-0.23,0.461-0.46,0.808-0.576,1.154
	c0.692,0,1.498,0,2.305,0.116c0,0.806,0.116,1.613,0.116,2.535c0.115,1.958,0.115,4.032-0.461,6.106
	c-0.576,0.922-1.383,1.844-2.305,2.306c-0.346,2.88-0.691,5.877-1.037,8.757c-1.729,0.116-3.457,0.116-5.186,0.23
	c-3.572,0-7.951,0.115-12.214,1.038c0,0.691,0,1.268,0,1.959c1.382,0.115,2.65,0.115,3.917,0.231
	c3.342,0.23,6.684,0.461,10.832,0.23h1.959c-0.23,0.922-0.576,1.844-0.806,2.766c-0.577,2.42-1.498,5.992-4.725,5.992h0.115
	c-2.65,0.114-5.301,0.23-7.951,0.23l3.803,9.564v0.116c5.301-4.609,10.716-9.218,15.326-12.444c0.23-0.347,0.46-0.806,0.576-1.153
	l0,0c0.345-0.922,0.691-1.843,0.922-2.649c0.23-0.922,0.345-1.729,0.46-2.535c0.346-1.614,0.692-3.228,1.614-4.725
	c0.576-0.922,1.267-1.613,2.074-2.074c0.922,0.114,1.959,0.23,2.88,0.23c1.498,0,2.881-0.116,4.264-0.23
	c1.959-0.231,4.494-1.268,6.338-2.074c0.577-0.231,4.725-2.421,4.61-3.343c-0.115-0.461-0.922-1.036-1.844-1.729
	c-1.498-0.921-3.226-2.074-4.033-4.378l-0.115-0.231c-0.116-0.806-0.116-1.497,0-2.304c0.115-0.692,0.345-1.383,0.691-2.074
	c0.231-0.577,0.576-1.154,0.921-1.729c0.23-0.461,0.692-1.037,1.037-1.499l0,0c0.807-1.268,0.807-1.268,0.577-0.922
	c0.345-0.575,0.691-1.152,0.921-1.727c0-0.116,0.231-0.461,0.116-0.577c-1.037-0.806-2.42-0.922-3.688-0.691
	c-1.729,0.345-3.111,1.613-4.033,2.88c-0.806,1.152-1.498,2.535-1.959,3.803l-2.65-0.692c0-0.114,0.115-0.114,0.115-0.114l0,0l0,0
	c0.461-1.614,1.153-3.112,2.075-4.495c0.576-0.807,1.267-1.497,1.958-2.19c-0.576-0.345-1.152-0.345-1.844-0.345
	c-1.268,0-2.42,0.461-3.457,1.268C131.918,66.459,130.881,68.533,130.535,70.723z"/>
<path fill="#EE3124" d="M270.196,70.723l2.765-0.231c-0.114-1.613-0.69-3.11-1.497-4.493c-0.345-0.577-0.691-1.036-0.922-1.497
	c1.269-0.231,2.766,0.461,3.804,1.152c1.843,1.152,3.226,2.996,4.264,4.839c0.23,0.461,0.46,0.808,0.575,1.154
	c-0.807,0-1.497,0-2.304,0.116c0,0.806-0.116,1.613-0.116,2.535c-0.116,1.958-0.116,4.032,0.46,6.106
	c0.577,0.922,1.385,1.844,2.305,2.306c0.346,2.88,0.577,5.877,1.036,8.757c1.729,0.116,3.458,0.116,5.186,0.23
	c3.457,0,7.952,0.115,12.215,1.038c0,0.691,0,1.268,0,1.959c-1.383,0.115-2.65,0.115-3.918,0.231
	c-3.341,0.23-6.685,0.461-10.948,0.23h-1.957c0.344,0.922,0.691,1.844,0.92,2.766c0.577,2.42,1.499,5.992,4.725,5.992h-0.116
	c2.651,0.114,5.301,0.23,7.952,0.23l-3.804,9.564v0.116c-5.3-4.609-10.715-9.218-15.44-12.444c-0.115-0.347-0.345-0.806-0.461-1.153
	l0,0c-0.345-0.922-0.69-1.843-0.922-2.649c-0.23-0.922-0.346-1.729-0.575-2.535c-0.347-1.614-0.577-3.228-1.499-4.725
	c-0.577-0.922-1.268-1.613-2.074-2.074c-1.038,0.114-1.96,0.23-2.996,0.23c-1.383,0-2.765-0.116-4.148-0.23
	c-2.074-0.231-4.493-1.268-6.338-2.074c-0.577-0.231-4.725-2.421-4.611-3.343c0.116-0.461,0.922-1.036,1.844-1.729
	c1.499-0.921,3.226-2.074,4.034-4.378l0.114-0.231c0.116-0.806,0.116-1.497,0-2.304c-0.114-0.692-0.344-1.383-0.691-2.074
	c-0.231-0.577-0.575-1.154-0.922-1.729c-0.345-0.461-0.691-1.037-1.036-1.499l0,0c-0.808-1.268-0.808-1.268-0.577-0.922
	c-0.346-0.575-0.691-1.152-0.922-1.727c0-0.116-0.229-0.461-0.116-0.577c1.038-0.806,2.421-0.922,3.689-0.691
	c1.614,0.345,2.996,1.613,4.032,2.88c0.807,1.152,1.499,2.535,1.844,3.803l2.651-0.692c0-0.114,0-0.114,0-0.114l0,0l0,0
	c-0.461-1.614-1.153-3.112-2.076-4.495c-0.575-0.807-1.266-1.497-2.072-2.19c0.691-0.345,1.266-0.345,1.959-0.345
	c1.267,0,2.419,0.461,3.457,1.268C268.813,66.459,269.851,68.533,270.196,70.723z"/>
<path d="M175.13,97.803l-5.185,1.383l-5.186-19.129c-1.382,2.19-2.535,2.996-4.955,4.494l-1.268-4.725
	c1.268-0.806,1.728-1.268,2.88-2.88c1.268-1.729,2.074-3.457,2.19-5.3l4.263-1.154L175.13,97.803z"/>
<path d="M230.212,99.531L231.594,94l-11.063-2.996l1.154-4.493l16.478-14.175l4.378,1.268l-4.608,17.17l3.341,0.921l-1.269,4.611
	l-3.341-0.922l-1.497,5.415L230.212,99.531z M232.863,89.391l2.535-9.218l-8.758,7.605L232.863,89.391z"/>
<path d="M211.428,67.266c2.65,0.231,4.725,1.383,6.108,3.457c1.729,2.42,2.304,6.222,1.958,11.524
	c-0.345,5.416-1.614,9.103-3.571,11.292c-1.614,1.844-3.804,2.651-6.569,2.419c-2.766-0.114-4.84-1.382-6.337-3.571
	c-1.498-2.19-2.075-5.992-1.729-11.408c0.345-5.301,1.499-8.988,3.571-11.294C206.472,67.957,208.664,67.15,211.428,67.266z
	 M211.081,71.761c-0.691,0-1.268,0.114-1.843,0.46c-0.461,0.461-0.922,1.153-1.267,2.189c-0.462,1.383-0.807,3.689-1.036,7.03
	c-0.231,3.226-0.231,5.531,0,6.799c0.229,1.268,0.575,2.074,1.036,2.535c0.461,0.461,1.036,0.691,1.729,0.691
	c0.69,0.116,1.268-0.116,1.728-0.461c0.575-0.345,1.038-1.036,1.381-2.189c0.463-1.268,0.807-3.571,1.038-6.913
	c0.231-3.343,0.231-5.531,0-6.799c-0.231-1.267-0.575-2.074-1.038-2.535C212.234,72.107,211.774,71.875,211.081,71.761z"/>
<path d="M179.048,89.275l5.07-0.922c0.231,1.038,0.691,1.844,1.268,2.305c0.461,0.461,1.268,0.691,2.074,0.577
	c1.153,0,2.074-0.577,2.766-1.729c0.691-1.038,1.037-3.228,1.037-6.454c-1.268,1.729-2.88,2.651-4.84,2.765
	c-2.304,0.115-4.263-0.575-5.992-2.19c-1.729-1.613-2.65-3.687-2.766-6.452c-0.23-2.88,0.461-5.186,1.959-7.03
	c1.613-1.958,3.687-2.996,6.338-3.11c2.88-0.231,5.301,0.691,7.26,2.765c1.959,2.074,3.111,5.647,3.456,10.717
	c0.347,5.186-0.345,8.873-2.074,11.292c-1.729,2.42-4.148,3.687-7.144,3.918c-2.19,0.23-4.033-0.231-5.531-1.383
	C180.546,93.309,179.509,91.581,179.048,89.275z M190.34,76.716c-0.115-1.729-0.576-3.112-1.498-3.918
	c-0.806-0.922-1.728-1.383-2.88-1.268c-0.922,0-1.729,0.461-2.305,1.268c-0.692,0.922-0.922,2.19-0.806,4.034
	c0.23,1.727,0.576,3.11,1.382,3.917c0.806,0.806,1.729,1.153,2.765,1.038c1.037-0.116,1.844-0.577,2.535-1.383
	C190.226,79.48,190.456,78.328,190.34,76.716z"/>
<path d="M324.241,314.208l-5.992-0.116l0.345-11.753c0.114-2.535,0-4.148-0.229-4.839c-0.231-0.806-0.577-1.383-1.153-1.729
	c-0.575-0.461-1.268-0.69-2.074-0.69c-1.152-0.116-2.074,0.229-2.88,0.69c-0.922,0.575-1.497,1.382-1.844,2.304
	c-0.345,0.922-0.575,2.651-0.691,5.301l-0.346,10.372l-6.107-0.231l0.807-22.931l5.762,0.116l-0.231,3.457
	c2.19-2.535,4.725-3.802,7.721-3.689c1.382,0,2.651,0.347,3.687,0.807c1.152,0.577,1.959,1.269,2.421,1.96
	c0.575,0.806,0.922,1.613,1.152,2.65c0.23,0.922,0.23,2.304,0.23,4.032L324.241,314.208z"/>
<path d="M249.802,321.47l5.529-2.882c0.577,1.038,1.383,1.729,2.306,2.074c1.036,0.345,2.189,0.23,3.455-0.229
	c1.499-0.577,2.535-1.154,3.114-1.96c0.344-0.575,0.46-1.152,0.229-1.843c-0.116-0.461-0.345-0.692-0.808-0.922
	c-0.344-0.23-1.036-0.23-2.188-0.116c-4.954,0.577-8.182,0.692-9.795,0.229c-2.074-0.575-3.458-1.843-4.264-4.032
	c-0.577-1.844-0.461-3.687,0.577-5.416c1.152-1.842,3.226-3.341,6.336-4.378c2.997-1.038,5.301-1.269,7.146-0.808
	c1.728,0.461,3.226,1.499,4.493,3.228l-5.184,2.88c-0.462-0.692-1.153-1.268-1.959-1.499c-0.807-0.229-1.844-0.116-2.996,0.347
	c-1.499,0.46-2.535,1.036-2.996,1.729c-0.346,0.46-0.46,0.92-0.346,1.381c0.23,0.462,0.462,0.691,1.036,0.807
	c0.577,0.231,2.535,0.231,5.879-0.229c3.341-0.346,5.761-0.23,7.259,0.345c1.614,0.691,2.651,1.844,3.342,3.687
	c0.69,1.958,0.46,4.034-0.691,5.992c-1.269,2.074-3.457,3.571-6.685,4.725c-2.996,1.038-5.531,1.267-7.72,0.575
	C252.796,324.58,251.068,323.313,249.802,321.47z"/>
<path d="M240.352,330.226l-0.577-3.456c-0.692,1.383-1.613,2.535-2.765,3.456c-1.27,0.922-2.651,1.498-4.148,1.844
	c-1.499,0.231-2.882,0.116-4.264-0.346c-1.269-0.461-2.305-1.267-3.113-2.305c-0.691-1.152-1.266-2.765-1.613-4.838l-2.535-14.404
	l5.992-1.038l1.844,10.371c0.461,3.226,0.922,5.186,1.268,5.877c0.345,0.575,0.922,1.153,1.498,1.497
	c0.691,0.231,1.498,0.347,2.42,0.231c1.038-0.231,1.844-0.69,2.535-1.383c0.69-0.69,1.152-1.497,1.381-2.419
	c0.116-0.807-0.114-2.88-0.691-6.107l-1.729-9.565l5.992-1.038l4.032,22.586L240.352,330.226z"/>
<polygon points="198.176,333.568 197.139,301.764 203.131,301.533 203.708,318.472 210.506,310.06 217.996,309.831 210.39,318.472 
	219.379,332.76 212.81,332.992 206.704,322.851 203.937,325.962 204.168,333.339 "/>
<path d="M182.39,332.76l-6.799-1.497l2.304-21.894l5.646,0.462l-0.23,3.226c1.153-1.499,2.075-2.42,2.881-2.88
	c0.806-0.461,1.613-0.575,2.65-0.575c1.383,0.114,2.651,0.575,3.918,1.497l-2.305,5.071c-0.922-0.691-1.844-1.038-2.766-1.153
	c-0.806,0-1.614,0.115-2.19,0.577c-0.576,0.461-1.152,1.268-1.613,2.421c-0.346,1.152-0.692,3.801-1.037,7.605L182.39,332.76z"/>
<path d="M129.959,320.777l-1.268-24.774l5.992,2.072l0.23,12.561v4.148c0.576-0.922,1.037-1.499,1.153-1.729
	c0.46-0.577,0.806-1.036,1.268-1.613l7.951-9.68l5.992,2.074l-16.133,18.782L129.959,320.777z"/>
<polygon points="77.99,314.208 76.952,282.75 83.405,282.52 84.212,308.563 97.578,308.216 97.694,313.517 "/>
<path d="M288.979,308.102l6.107-0.461c-0.23,2.304-1.036,4.264-2.304,5.761c-1.383,1.499-3.341,2.651-5.761,3.228
	c-3.804,1.036-7.03,0.461-9.565-1.614c-1.96-1.729-3.341-4.032-4.148-7.143c-0.922-3.689-0.577-6.914,0.807-9.449
	c1.381-2.535,3.573-4.264,6.567-4.955c3.228-0.806,6.224-0.346,8.643,1.266c2.42,1.728,4.264,4.954,5.301,9.449l-14.867,3.689
	c0.462,1.729,1.385,2.995,2.535,3.685c1.153,0.808,2.305,1.038,3.689,0.692c0.922-0.229,1.613-0.692,2.189-1.383
	C288.634,310.176,288.979,309.254,288.979,308.102z M287.828,301.996c-0.463-1.615-1.27-2.882-2.306-3.573
	c-1.036-0.691-2.189-0.807-3.341-0.577c-1.383,0.345-2.305,1.152-2.88,2.189c-0.577,1.152-0.691,2.535-0.347,4.148L287.828,301.996z
	"/>
<path d="M164.759,323.197l5.762,2.074c-1.153,1.96-2.651,3.457-4.494,4.264c-1.843,0.922-4.033,1.153-6.453,0.691
	c-4.033-0.691-6.684-2.535-8.066-5.414c-1.153-2.305-1.498-5.07-0.922-8.182c0.692-3.802,2.189-6.569,4.494-8.298
	c2.305-1.844,5.07-2.42,8.066-1.844c3.342,0.578,5.761,2.076,7.375,4.726c1.498,2.535,1.844,6.107,0.922,10.716l-14.981-2.651
	c-0.23,1.729,0,3.228,0.692,4.38c0.806,1.153,1.843,1.844,3.227,2.074c0.921,0.23,1.729,0.116,2.535-0.345
	C163.607,325.041,164.298,324.235,164.759,323.197z M166.142,317.206c0.346-1.729,0.115-3.113-0.577-4.264
	c-0.691-1.038-1.729-1.614-2.88-1.844c-1.383-0.231-2.535,0-3.572,0.807c-0.922,0.807-1.614,2.074-1.844,3.687L166.142,317.206z"/>
<path d="M115.44,308.908l5.646,2.42c-1.268,1.958-2.88,3.343-4.84,4.034c-1.844,0.691-4.033,0.807-6.568,0.23
	c-3.803-1.036-6.453-2.996-7.605-5.991c-1.037-2.421-1.037-5.186-0.346-8.298c0.922-3.687,2.65-6.338,5.07-7.95
	c2.535-1.613,5.185-2.076,8.181-1.27c3.342,0.808,5.646,2.535,7.03,5.186c1.382,2.766,1.498,6.339,0.23,10.832l-14.75-3.687
	c-0.461,1.729-0.345,3.226,0.346,4.378c0.691,1.268,1.729,1.959,3.111,2.305c0.922,0.23,1.729,0.23,2.42-0.115
	C114.172,310.637,114.864,309.945,115.44,308.908z M117.283,303.032c0.346-1.729,0.23-3.112-0.345-4.264
	c-0.692-1.152-1.498-1.844-2.766-2.074c-1.268-0.347-2.42-0.116-3.572,0.575c-1.037,0.692-1.728,1.96-2.189,3.573L117.283,303.032z"
	/>
</svg>
