<?xml version="1.0" encoding="utf-8"?>
<!-- Generator: Adobe Illustrator 19.1.0, SVG Export Plug-In . SVG Version: 6.00 Build 0)  -->
<svg version="1.1" id="Layer_1" xmlns="http://www.w3.org/2000/svg" xmlns:xlink="http://www.w3.org/1999/xlink" x="0px" y="0px"
	 viewBox="0 0 100 100" style="enable-background:new 0 0 100 100;" xml:space="preserve">
<style type="text/css">
	.st0{fill:#D71F27;}
	.st1{fill:#898888;}
	.st2{fill:#010101;}
</style>
<path class="st0" d="M83.6,30.6c-3.5,0-6.3,2.8-6.3,6.3c0,3.5,2.8,6.3,6.3,6.3c0.1,0,0.3,0,0.4,0l0,0.4v11.2v9.9
	c0,2.5-2,4.4-4.4,4.4H17.4c-2.5,0-4.4-2-4.4-4.4v-40c0-2.5,2-4.4,4.4-4.4h62.2c2.5,0,4.4,2,4.4,4.4v5.5v0.3L83.6,30.6z M30.6,54.8
	c0.2,0.7,0.5,1.5,0.9,2.5c-1.5-0.8-6.3,1.4-8,2c0,0-0.9-0.9-1.5-1.1c-0.3-0.1-1,0-1.4,0.3c-0.1-0.1-0.2-0.2-0.4,0.1
	c-0.1,0.2-0.1,0.3,0.1,0.4c-0.1,0.1-0.2,0.3-0.2,0.4c-0.1,0-0.2-0.2-0.4,0.2c-0.2,0.4,0,0.4,0.2,0.4c-0.5,1-1.3,1.6-1.8,2.6
	c-0.2-0.1-0.3-0.1-0.4,0.3c-0.1,0.3,0,0.3,0.2,0.4c-0.1,0.3-0.1,0.6-0.2,0.8c0,0-0.3-0.1-0.3,0.2c-0.1,0.4,0,0.5,0.2,0.5
	c0,0.2,0,0.4,0,0.6c0.1,0.6,0.7,0.7,1,0.5c1.6-1.3,2.9-2.1,3.8-2.7c2.4-0.2,9.1-0.7,11.1-0.9c1,0.1,3.9-2.4,3.9-3.3
	c0.1-1.6,0-2.7-0.1-4c-0.1-1-0.2-2.2-0.3-3.9l0.5-0.1l0-3.5l0.9,0c0,0,0,0,0.1-0.4c2.4,0.3,6.8,1,9.8,0.8c0.6,0,1.1,0.2,1.4,0.6
	c0.8,0.6,6.3,1.2,10.9,1.3c0.6,1.6,1.8,1.8,1.8,1.8c0.1,0.1,0.2,0,0.4-0.1c0.1,0.2,0.2,0.2,0.5,0.1c0.2-0.1,0.2-0.2,0.1-0.4l0.2-0.1
	c0.1,0.1,0.3,0.2,0.5,0.1c0.2-0.1,0.2-0.2,0.1-0.4c0.5-0.3,3.2-2.3,3.2-2.3c0.1,0.1,0.2,0.2,0.2,0.1c0.1,0,0.3-0.2,0.4-0.3
	c0-0.1,0-0.2-0.1-0.3l0.5-0.4c0.1,0.1,0.1,0.2,0.2,0.1c0.1,0,0.2-0.1,0.3-0.3c0-0.1-0.1-0.2-0.1-0.3l0.3-0.4
	c-0.1-0.5-0.7-0.5-1.1-0.4c-1.2,0.1-4.5,0.6-5.8,0.5c-2.4-0.8-11.4-4.2-11.9-4.4c-0.6-0.2-1.1-0.3-1.7-0.3c-2.4-1.3-7-2.3-7.5-2.4
	c-0.1,0-0.1-0.2-0.1-0.4c0,0-2-0.4-3.6-0.4c0.3-1.2,0.7-4.7,0.7-5.8c0.3,0.2,0.4,0.2,0.7,0.3c0.6,0.1,1.2-0.4,1.9-0.6
	c0.4-0.2,0.4,0.1,0.6-0.1c0.5-0.3,0.7-1.2,1.4-1.7c0.5-0.4,0.9-0.2,1.1-0.7c0.3-0.7,0.2-1.2,0-1.9c-0.2-1.1-0.4-1.9-1.3-2.6
	c-0.7-0.6-1.3-0.8-2.2-0.8c-1,0-2.8,0.5-3.8,2.9c-1.1-0.6-1.5-0.9-2.6-1.3c-2.1-0.7-8.6,0.7-9.4,1c0.1,0.3,0.1,0.6,0.1,0.6
	s-0.8,0-1.1,0.5c-1.5,2.2-3.3,5.4-3.3,5.4c-0.6,0.1-1.1,0.6-1.4,1.2c-0.3,0.7-0.6,0.7-1.3,1.2c-0.5,0.2-0.3,0.7,0,0.6
	c0.5,0,0.9-0.3,1.4-0.7c-0.3,0.8-1.2,1.4-1.2,1.7c0.1,0.4,1.1,1,2.4,0c0.4-0.3,0.9-0.6,1.2-1c0.2-0.2,0.3-1.1,0.4-1.7
	c0.3-0.1,2.5-2.2,4.1-3.8c0,0,3.3-0.7,4.8-0.9c0,0-1.2,0.6-2.4,1c-2,7.5-1.9,10.8-0.8,11.1c-0.8,1.5,1.1,7.6,2.1,10.1l0.5,0.1
	C30,53.2,30.2,53.8,30.6,54.8"/>
<ellipse class="st1" cx="84" cy="37" rx="3.9" ry="4"/>
<path class="st2" d="M13.4,74.5h3.9c0.6,0,1.2,0.2,1.6,0.6c0.4,0.4,0.6,0.9,0.6,1.5c0,0.5-0.2,0.9-0.5,1.3c-0.2,0.2-0.4,0.3-0.7,0.4
	c0.4,0.1,0.7,0.3,0.9,0.5c0.4,0.4,0.6,0.9,0.6,1.4c0,0.7-0.2,1.3-0.7,1.8c-0.4,0.4-1,0.6-1.7,0.6h-3.8V74.5z M14.5,75.4V78h2.6
	c0.3,0,0.6-0.1,0.8-0.3c0.3-0.3,0.4-0.6,0.4-1c0-0.4-0.1-0.7-0.4-0.9c-0.2-0.2-0.4-0.3-0.7-0.3H14.5z M14.5,78.9v2.9h2.5
	c0.5,0,0.9-0.1,1.1-0.4c0.3-0.3,0.4-0.6,0.4-1.1c0-0.4-0.1-0.8-0.4-1.1c-0.3-0.3-0.7-0.4-1.2-0.4H14.5z"/>
<path class="st2" d="M21.3,74.5h1.1v5.8c0,0.5,0.1,0.8,0.4,1.1c0.4,0.4,0.9,0.5,1.5,0.5s1.2-0.2,1.5-0.5c0.3-0.3,0.4-0.7,0.4-1.1
	v-5.8h1.1v5.8c0,0.7-0.2,1.3-0.7,1.7c-0.5,0.5-1.3,0.8-2.4,0.8c-1.1,0-1.9-0.3-2.4-0.8c-0.5-0.4-0.7-1-0.7-1.7V74.5z"/>
<path class="st2" d="M29.2,74.5h1.2l3.9,6.5v-6.5h1.1v8.2h-1.2l-3.9-6.5v6.5h-1.1V74.5z"/>
<path class="st2" d="M37.1,74.5h2.9c1,0,1.8,0.3,2.5,1c0.7,0.7,1.1,1.8,1.1,3.2c0,1.4-0.4,2.4-1.1,3.1c-0.6,0.6-1.4,0.9-2.4,0.9
	h-2.9V74.5z M38.2,75.4v6.4h1.7c0.6,0,1.1-0.2,1.5-0.6c0.6-0.6,0.9-1.5,0.9-2.6c0-1.2-0.3-2-0.9-2.6c-0.5-0.4-1-0.7-1.5-0.7H38.2z"
	/>
<path class="st2" d="M45.1,74.5h5.3v0.9h-4.2V78h3.9v0.9h-3.9v2.9h4.4v0.9h-5.5V74.5z"/>
<path class="st2" d="M52.8,75.1c0.5-0.4,1.1-0.7,2.1-0.7c1,0,1.8,0.3,2.3,0.8c0.5,0.5,0.7,1,0.7,1.6h-1.1c0-0.4-0.1-0.7-0.4-1
	c-0.3-0.3-0.7-0.4-1.4-0.4c-0.7,0-1.1,0.1-1.4,0.4c-0.2,0.2-0.3,0.5-0.3,0.8c0,0.3,0.1,0.5,0.2,0.6c0.2,0.2,0.5,0.3,0.9,0.5
	c0.7,0.3,1.6,0.7,2.5,1.1c0.3,0.1,0.5,0.3,0.7,0.5c0.4,0.4,0.5,0.8,0.5,1.3c0,0.6-0.2,1.2-0.7,1.6c-0.5,0.5-1.3,0.7-2.4,0.7
	c-1.1,0-1.9-0.3-2.5-0.9c-0.4-0.4-0.6-1-0.6-1.8h1.1c0,0.6,0.1,1,0.4,1.3c0.4,0.4,0.9,0.5,1.6,0.5c0.7,0,1.2-0.2,1.5-0.5
	c0.3-0.3,0.4-0.5,0.4-0.8c0-0.3-0.1-0.5-0.3-0.7c-0.2-0.2-0.4-0.3-0.8-0.5c-0.3-0.2-0.7-0.4-1.3-0.6c-0.6-0.3-1-0.5-1.4-0.6
	c-0.3-0.1-0.5-0.2-0.7-0.4c-0.3-0.3-0.4-0.7-0.4-1.2C52.1,76.1,52.4,75.5,52.8,75.1z"/>
<path class="st2" d="M64.6,82.9h-5.1v-8.6h1.8v7.2h3.3V82.9z"/>
<path class="st2" d="M66.2,74.3H68v8.6h-1.8V74.3z"/>
<path class="st2" d="M76.8,82.6c-0.5,0.2-1.6,0.4-2.6,0.4c-1.4,0-2.5-0.3-3.2-1c-0.8-0.7-1.2-1.9-1.2-3.3c0-2.9,2.1-4.5,4.7-4.5
	c0.9,0,1.7,0.2,2.2,0.4l-0.4,1.4c-0.4-0.2-0.9-0.3-1.8-0.3c-1.6,0-2.9,0.9-2.9,3c0,2,1.1,3,2.7,3c0.4,0,0.8-0.1,0.9-0.1v-2.1h-1.3
	v-1.3h3V82.6z"/>
<path class="st2" d="M85.5,82.9h-1.9L83,80.6h-2.5l-0.6,2.3h-1.8l2.6-8.6H83L85.5,82.9z M82.8,79.4l-0.6-2c-0.1-0.5-0.3-1.2-0.4-1.8
	h0c-0.1,0.5-0.3,1.2-0.4,1.7l-0.6,2H82.8z"/>
</svg>
