<?xml version="1.0" encoding="utf-8"?>
<!-- Generator: Adobe Illustrator 19.1.0, SVG Export Plug-In . SVG Version: 6.00 Build 0)  -->
<svg version="1.1" id="Layer_1" xmlns="http://www.w3.org/2000/svg" xmlns:xlink="http://www.w3.org/1999/xlink" x="0px" y="0px"
	 viewBox="0 0 600 600" enable-background="new 0 0 600 600" xml:space="preserve">
<path fill="#30318C" d="M587.884,300.031c0,158.525-128.508,287.032-287.035,287.032c-158.525,0-287.032-128.507-287.032-287.032
	C13.816,141.507,142.323,13,300.848,13C459.376,13,587.884,141.507,587.884,300.031z"/>
<path fill="none" stroke="#FFFFFF" stroke-width="42.297" d="M537.14,300.031c0,130.501-105.787,236.288-236.291,236.288
	c-130.501,0-236.289-105.786-236.289-236.288c0-130.5,105.788-236.288,236.289-236.288
	C431.353,63.744,537.14,169.531,537.14,300.031z"/>
<path fill="#30318C" d="M109.886,180.051c2.409,1.601,7.747,3.565,13.18-4.208c2.944-4.207,5.205-9.592,0.699-12.749
	c-3.321-2.316-6.446,0.26-10.66,4.02l-4.262,3.821c-6.407,5.755-12.592,11.32-21.958,4.773c-4.749-3.32-11.328-11.712-1.664-25.529
	c9.113-13.047,20.095-10.573,25.356-6.986l-5.966,8.541c-2.066-1.092-7.065-3.525-12.5,4.24c-2.361,3.383-3.932,8.282-0.076,10.973
	c3.32,2.325,5.933,0.095,7.597-1.397l9.797-8.596c5.488-4.811,11.587-8.495,19.241-3.139c12.805,8.948,4.813,22.78,2.198,26.516
	c-10.855,15.537-21.674,11.94-26.948,8.259L109.886,180.051z"/>
<path fill="#30318C" d="M131.803,133.798l-10.526-11.053l6.232-5.934c4.874-4.639,8.369-5.072,11.854-1.398
	c1.6,1.672,5.589,5.864-0.275,11.453L131.803,133.798z M137.989,140.297l9.012-8.581c10.111-9.632,3.815-20.017,0.573-23.424
	c-7.034-7.387-15.873-7.858-23.158-0.927l-17.184,16.368l35.827,37.618l7.859-7.49L137.989,140.297z"/>
<path fill="#30318C" d="M167.341,105.837c-7.513-12.45-2.324-19.807,2.692-22.836c5.017-3.03,13.95-4.2,21.462,8.25
	c7.521,12.448,2.323,19.806-2.693,22.835C183.787,117.117,174.861,118.278,167.341,105.837z M158.054,111.441
	c12.599,20.873,29.618,14.059,35.498,10.51c5.887-3.555,19.837-15.44,7.238-36.314c-12.608-20.865-29.618-14.06-35.506-10.503
	C159.403,78.682,145.455,90.576,158.054,111.441z"/>
<path fill="#30318C" d="M217.441,76.5l-4.31-13.204l12.865-4.2c6.054-1.971,8.479,1.5,9.327,4.114
	c1.593,4.883-0.417,7.59-5.778,9.342L217.441,76.5z M216.342,107.444l10.11-3.296l-6.303-19.327l10.661-3.478
	c7.638-2.488,8.902-0.008,11.1,6.735c1.656,5.086,2.904,7.498,4.348,9.617l11.422-3.729l-0.423-1.302
	c-2.474-0.111-3.055-1.9-5.409-9.122c-3.007-9.216-5.7-10.01-10.339-10.472c4.341-3.242,5.566-8.823,3.798-14.256
	c-1.389-4.263-6.963-13.172-20.095-8.895l-24.971,8.141L216.342,107.444z"/>
<path fill="#30318C" d="M280.862,91.651l-10.779,1.311l-5.134-42.453l-15.59,1.891l-1.1-9.122l41.944-5.078l1.099,9.121
	l-15.583,1.884L280.862,91.651z"/>
<path fill="#30318C" d="M331.55,40.382l11.252,0.824l-21.388,50.516L311.1,90.968l-13.676-53.084l11.618,0.849l8.242,40.067
	l0.141,0.008L331.55,40.382z"/>
<path fill="#30318C" d="M388.035,62.724l-26.534-7.468l-2.951,10.52l24.366,6.853l-2.481,8.848l-24.381-6.863l-3.643,12.961
	l27.711,7.794l-2.481,8.841l-37.947-10.676l14.053-49.997l36.771,10.338L388.035,62.724z"/>
<path fill="#30318C" d="M402.997,84.428l6.485-12.293l11.963,6.312c5.637,2.968,4.837,7.128,3.548,9.554
	c-2.385,4.547-5.729,4.993-10.723,2.363L402.997,84.428z M380.027,105.192l9.422,4.962l9.466-17.985l9.922,5.229
	c7.113,3.742,6.218,6.382,2.904,12.654c-2.495,4.733-3.36,7.299-3.86,9.819l10.612,5.598l0.643-1.216
	c-1.632-1.845-0.769-3.509,2.778-10.229c4.523-8.582,3.22-11.068,0.316-14.72c5.353,0.857,10.205-2.142,12.873-7.199
	c2.089-3.973,4.6-14.177-7.614-20.621l-23.237-12.239L380.027,105.192z"/>
<path fill="#30318C" d="M477.008,118.78l-21.18-17.631l-6.986,8.399l19.452,16.195l-5.871,7.065l-19.469-16.202l-8.604,10.346
	l22.137,18.418l-5.872,7.065L420.3,127.212l33.236-39.925l29.359,24.429L477.008,118.78z"/>
<path fill="#30318C" d="M459.032,162.952l-7.316-8.006l38.339-35.036l7.316,8.008L459.032,162.952z"/>
<path fill="#30318C" d="M523.622,163.181l5.667,8.399L486.24,200.65l-6.061-8.996l18.825-38.293l-0.078-0.126l-30.693,20.732
	l-5.668-8.392l43.05-29.068l6.389,9.468l-18.432,37.334l0.08,0.118L523.622,163.181z"/>
<path fill="#30318C" d="M82.056,297.503l0.346,10.41c0.157,4.633-0.832,11.972-16.155,12.489
	c-8.532,0.285-17.529-2.385-17.821-11.201l-0.352-10.559L82.056,297.503z M38.748,288.311l0.754,22.483
	c0.572,17.137,16.776,21.015,27.907,20.646c9.835-0.329,24.61-4.443,24.021-21.942l-0.762-22.921L38.748,288.311z"/>
<path fill="#30318C" d="M86.147,354.079l0.039,0.14l-18.36,11.25l-3.228-12.841L86.147,354.079z M55.194,352.008l4.672,18.596
	l-9.57,5.833l2.865,11.437l45.923-30.402l-3.046-12.137l-54.889-5.314l2.781,11.084L55.194,352.008z"/>
<path fill="#30318C" d="M89.222,396.925l12.366-6.334l6.163,12.042c2.905,5.667-0.141,8.611-2.591,9.859
	c-4.569,2.341-7.559,0.786-10.135-4.238L89.222,396.925z M58.49,400.71l4.845,9.466l18.094-9.263l5.111,9.978
	c3.667,7.152,1.413,8.792-4.897,12.019c-4.767,2.441-6.947,4.051-8.808,5.808l5.471,10.694l1.224-0.629
	c-0.282-2.457,1.389-3.312,8.157-6.776c8.627-4.418,8.989-7.197,8.713-11.86c3.894,3.784,9.585,4.121,14.672,1.514
	c3.996-2.049,11.924-8.948,5.621-21.249l-11.964-23.378L58.49,400.71z"/>
<path fill="#30318C" d="M119.974,490.64l-6.65-7.638l32.751-28.488l-0.093-0.111l-39.118,21.172l-6.978-8.022l26.533-35.639
	l-0.093-0.111l-32.751,28.488l-6.649-7.637l39.196-34.094l10.393,11.956l-24.72,33.967l0.095,0.11l36.974-19.885l10.299,11.838
	L119.974,490.64z"/>
<path fill="#30318C" d="M149.01,493.356c-1.625,2.387-3.657,7.702,4.044,13.227c4.177,2.991,9.538,5.323,12.74,0.855
	c2.363-3.289-0.18-6.444-3.885-10.714l-3.768-4.302c-5.684-6.477-11.172-12.732-4.505-22.02c3.375-4.703,11.852-11.178,25.544-1.35
	c12.935,9.278,10.329,20.23,6.671,25.449l-8.462-6.075c1.114-2.05,3.618-7.026-4.082-12.553c-3.351-2.403-8.235-4.035-10.975-0.212
	c-2.362,3.288-0.165,5.935,1.303,7.615l8.472,9.907c4.748,5.543,8.351,11.69,2.913,19.272c-9.107,12.701-22.846,4.537-26.543,1.876
	c-15.401-11.045-11.681-21.823-7.928-27.053L149.01,493.356z"/>
<path fill="#30318C" d="M198.568,540.905l-9.891-4.459l17.553-38.985l-14.319-6.444l3.776-8.384l38.52,17.349l-3.768,8.375
	l-14.319-6.444L198.568,540.905z"/>
<path fill="#30318C" d="M246.942,514.762l0.141,0.04l1.271,21.493l-12.841-3.211L246.942,514.762z M230.526,541.093l18.604,4.64
	l0.636,11.195l11.438,2.856l-5.174-54.824l-12.143-3.038l-30.554,45.915l11.092,2.762L230.526,541.093z"/>
<path fill="#30318C" d="M286.474,518.383l10.417,0.202c4.631,0.095,11.909,1.463,11.61,16.8c-0.171,8.535-3.312,17.372-12.137,17.2
	l-10.557-0.211L286.474,518.383z M274.997,561.136l22.499,0.446c17.137,0.337,21.872-15.638,22.081-26.776
	c0.198-9.837-3.123-24.807-20.629-25.152l-22.93-0.448L274.997,561.136z"/>
<path fill="#30318C" d="M354.97,556.048l-10.676,2.01l-7.918-42.014l-15.424,2.911l-1.704-9.034l41.516-7.826l1.71,9.027
	l-15.432,2.913L354.97,556.048z"/>
<path fill="#30318C" d="M382.289,504.064l1.303-0.628c8.792-4.247,8.934-9.938,7.456-13.487l7.506-3.619l22.31,46.269l-9.122,4.396
	l-15.369-31.863l-11.006,5.313L382.289,504.064z"/>
<path fill="#30318C" d="M434.884,488.222c-3.532,2.521-7.301,1.117-9.06-1.358c-2.182-3.061-1.758-6.57,1.963-9.216
	c2.654-1.892,6.248-1.444,8.525,1.744C438.449,482.39,438.119,485.914,434.884,488.222z M458.184,490.366
	c-3.879-5.425-8.008-6.477-13.439-5.621c2.103-4.161,1.397-8.274-1.179-11.87c-4.112-5.769-12.357-7.621-21.023-1.445
	c-7.299,5.206-9.938,13.581-4.867,20.71c2.78,3.885,6.438,5.275,10.912,4.577c-4.27,7.48-0.313,13.014,1.193,15.135
	c4.081,5.714,12.797,10.079,23.566,2.395C464.416,506.349,461.951,495.665,458.184,490.366z M449.941,496.763
	c2.072,2.891,3.062,7.771-1.24,10.84c-3.769,2.686-7.959,1.673-10.819-2.331c-3.234-4.536-1.726-8.532,1.273-10.675
	C443.755,491.314,447.852,493.82,449.941,496.763z"/>
<path fill="#30318C" d="M456.487,465.717c-5.228-5.198-2.841-9.452-1.005-11.298c3.675-3.697,8.024-2.942,12.183,1.186
	c4.302,4.288,3.344,8.839,0.849,11.359C465.813,469.68,461.982,471.18,456.487,465.717z M466.033,488.041
	c6.406,5.15,14.43,4.256,20.601-1.955c6.53-6.569,8.587-17.78-5.512-31.8c-5.135-5.104-18.935-18.409-31.478-5.785
	c-7.096,7.135-8.196,16.548,0.738,25.425c6.107,6.069,15.417,7.261,22.356,0.283c2.45-2.466,4.633-5.895,3.801-9.985h0.203
	c7.6,7.646,7.16,13.126,4.208,16.102c-2.198,2.205-4.851,2.722-7.787,0.634l-0.047-0.047L466.033,488.041z"/>
<path fill="#30318C" d="M489.976,432.745c-2.496,3.557-6.516,3.471-8.996,1.72c-3.077-2.159-3.831-5.614-1.208-9.341
	c1.869-2.662,5.415-3.432,8.618-1.185C491.405,426.058,492.253,429.496,489.976,432.745z M512.648,427.039
	c-5.432-3.832-9.686-3.455-14.523-0.848c0.598-4.624-1.444-8.266-5.04-10.811c-5.809-4.074-14.194-3.085-20.317,5.614
	c-5.164,7.341-4.882,16.116,2.276,21.155c3.894,2.748,7.821,2.842,11.808,0.699c-1.539,8.47,4.018,12.38,6.154,13.88
	c5.73,4.043,15.402,5.267,23.016-5.559C523.842,440.046,517.985,430.783,512.648,427.039z M507.011,435.806
	c2.905,2.042,5.463,6.319,2.419,10.638c-2.655,3.79-6.94,4.223-10.976,1.389c-4.551-3.203-4.458-7.472-2.339-10.496
	C499.365,432.721,504.061,433.727,507.011,435.806z"/>
<path fill="#30318C" d="M521.346,391.424c-4.538-2.324-6.501-5.762-4.821-10.229c1.146-3.045,4.317-6.108,10.346-4.467
	L521.346,391.424z M537.752,381.288c2.292,1.712,2.622,4.93,1.633,7.567c-2.874,7.654-9.17,5.902-11.979,5.157l9.295-24.72
	l-1.696-0.635c-16.455-6.186-23.535,2.363-26.204,9.476c-5.935,15.778,7.395,22.481,11.728,24.114
	c14.822,5.574,22.625-0.384,26.439-10.543c2.324-6.163,2.183-14.404-5.558-20.174L537.752,381.288z"/>
<path fill="#30318C" d="M557,353.507l-2.433,10.582l-10.298-2.364l2.432-10.581L557,353.507z"/>
<path fill="#30318C" d="M510.7,305.887l0.911-11.249l50.352,21.8l-0.848,10.315l-53.193,13.235l0.942-11.603l40.131-7.921
	l0.015-0.141L510.7,305.887z"/>
<path fill="#30318C" d="M562.228,288.813l0.236,10.85l-10.567,0.228l-0.235-10.848L562.228,288.813z"/>
<path fill="#30318C" d="M85.786,234.451c0,6.626-5.369,11.996-11.995,11.996c-6.625,0-12.002-5.369-12.002-11.996
	c0-6.625,5.377-12.001,12.002-12.001C80.417,222.45,85.786,227.827,85.786,234.451z"/>
<path fill="#30318C" d="M539.902,234.459c0,6.626-5.369,11.995-11.994,11.995c-6.626,0-11.995-5.369-11.995-11.995
	c0-6.625,5.369-12.001,11.995-12.001C534.533,222.458,539.902,227.834,539.902,234.459z"/>
<path fill="#FFFFFF" d="M300.848,477.719c23.448-18.925,23.613-33.66,23.613-33.66c0-7.536-3.016-18.088-5.528-23.111
	c-2.512-5.023-2.512-15.574-2.512-15.574v-24.619h11.555c-0.502,48.231,44.217,48.231,44.217,48.231
	c16.077,0,16.077-10.551,16.077-10.551s1.004-10.048-16.077-13.564c-24.039-4.946-24.618-24.116-24.618-24.116
	c9.043,0,9.795-11.305,9.795-11.305c0-11.805-8.79-12.81-8.79-12.81c0-55.266,45.216-55.768,45.216-55.768
	c15.072,0,25.12,8.541,25.12,8.541c10.551,8.54,8.306,24.162,4.522,28.638c-5.528,6.53-3.517,20.096-3.517,20.096
	s0-6.029,20.6-14.068c28.323-11.061,28.638-37.679,28.638-37.679s0-46.223-52.251-46.223c-83.906,0-88.931,96.463-88.931,96.463
	h-11.555c0,0-0.503-55.768,23.115-88.425c15.433-21.344,17.082-55.766,17.082-55.766s-3.517-38.183-27.637-58.28
	c-24.114-20.097-28.133-34.163-28.133-34.163s-4.019,14.067-28.135,34.163c-24.116,20.098-27.632,58.28-27.632,58.28
	s1.648,34.422,17.082,55.766c23.613,32.657,23.109,88.425,23.109,88.425h-11.555c0,0-5.023-96.463-88.926-96.463
	c-52.25,0-52.25,46.223-52.25,46.223s0.306,26.618,28.637,37.679c20.599,8.038,20.599,14.068,20.599,14.068
	s2.01-13.565-3.516-20.096c-3.785-4.476-6.029-20.098,4.521-28.638c0,0,10.049-8.541,25.122-8.541c0,0,45.215,0.502,45.215,55.768
	c0,0-8.791,1.004-8.791,12.81c0,0,0.754,11.305,9.797,11.305c0,0-0.589,19.17-24.618,24.116
	c-17.083,3.516-16.077,13.564-16.077,13.564s0,10.551,16.077,10.551c0,0,44.715,0,44.211-48.231h11.555v24.619
	c0,0,0,10.551-2.512,15.574c-2.512,5.024-5.526,15.576-5.526,23.111C277.235,444.058,277.399,458.794,300.848,477.719z"/>
</svg>
