<?xml version="1.0" encoding="utf-8"?>
<!-- Generator: Adobe Illustrator 19.1.0, SVG Export Plug-In . SVG Version: 6.00 Build 0)  -->
<svg version="1.1" id="Layer_1" xmlns="http://www.w3.org/2000/svg" xmlns:xlink="http://www.w3.org/1999/xlink" x="0px" y="0px"
	 viewBox="0 0 400 400" enable-background="new 0 0 400 400" xml:space="preserve">
<path fill="#FBE915" d="M199.516,9.273C94.13,9.273,8.702,94.701,8.702,200.09c0,105.381,85.428,190.807,190.814,190.807
	c105.381,0,190.812-85.426,190.812-190.807C390.328,94.701,304.897,9.273,199.516,9.273z"/>
<g>
	<path fill="#010101" d="M17.557,200.088C17.563,99.59,99.019,18.134,199.516,18.134l0,0c100.492,0,181.949,81.455,181.949,181.954
		l0,0c0,100.485-81.457,181.946-181.949,181.952l0,0C99.019,382.034,17.563,300.574,17.557,200.088L17.557,200.088z M77.336,77.907
		c-31.273,31.285-50.604,74.452-50.61,122.181l0,0c0.006,47.728,19.337,90.889,50.61,122.174l0,0
		c31.285,31.273,74.452,50.606,122.18,50.606l0,0c47.729,0,90.89-19.333,122.175-50.606l0,0
		c31.273-31.285,50.597-74.446,50.604-122.174l0,0c-0.007-47.729-19.33-90.896-50.604-122.181l0,0
		c-31.285-31.273-74.446-50.604-122.175-50.604l0,0C151.788,27.303,108.621,46.634,77.336,77.907L77.336,77.907z"/>
</g>
<g>
	<path fill="#010101" d="M173.306,273.965h-4.9c-10.256,0-18.57,6.856-18.57,15.324v41.198c0,8.462,8.314,15.318,18.57,15.318h4.9
		c10.251,0,18.567-6.856,18.567-15.318v-41.198C191.873,280.822,183.558,273.965,173.306,273.965z M177.603,326.813
		c0,3.316-3.132,5.997-7.002,5.997c-3.872,0-7.008-2.681-7.008-5.997v-32.825c0-3.325,3.136-6.013,7.008-6.013
		c3.87,0,7.002,2.688,7.002,6.013V326.813z"/>
</g>
<g>
	<path fill="none" d="M233.593,293.918c0-3.487-3.039-6.323-6.787-6.323s-6.785,2.836-6.785,6.323v4.743
		c0,3.491,3.037,6.322,6.785,6.322s6.787-2.831,6.787-6.322V293.918z"/>
	<path fill="#010101" d="M246.963,293.901v-1.235c0-11.353-9.276-20.551-20.725-20.551h-0.588c-11.442,0-20.718,9.198-20.718,20.551
		v5.34c0,11.341,9.276,20.538,20.718,20.538h0.588c2.516,0,4.915-0.46,7.145-1.275l-0.023,0.035c0,5.823,2.332,15.38-7.034,15.38
		c-9.361,0-7.64-10.502-7.64-10.502h-13.565c0,0-3.058,24.454,21.205,24.454C250.596,346.635,246.963,326.387,246.963,293.901z
		 M226.806,304.982c-3.747,0-6.785-2.831-6.785-6.322v-4.743c0-3.487,3.037-6.323,6.785-6.323s6.787,2.836,6.787,6.323v4.743
		C233.593,302.152,230.554,304.982,226.806,304.982z"/>
</g>
<polygon fill="#010101" points="141.686,54.363 170.215,54.363 198.753,150.663 226.518,54.363 254.798,54.363 208.944,199.831 
	188.56,199.831 "/>
<g>
	<path fill="#010101" d="M329.188,198.301c0,0,11.97-7.384,11.97-31.08c0-34.646-35.917-40.759-35.917-40.759h-49.934v143.174
		h48.658c0,0,37.449-4.589,37.449-41.778C341.414,227.857,341.924,205.439,329.188,198.301z M304.816,244.415h-23.269V211.04
		l23.269,0.271c0,0,11.634,2.399,11.634,16.553C316.45,242.016,304.816,244.415,304.816,244.415z M304.734,184.797h-23.441v-31.839
		l23.441,0.253c0,0,11.716,2.294,11.716,15.8C316.45,182.508,304.734,184.797,304.734,184.797z"/>
</g>
<g>
	<path fill="#010101" d="M142.701,198.301c0,0,11.975-7.384,11.975-31.08c0-34.646-35.92-40.759-35.92-40.759H68.823v143.174h48.659
		c0,0,37.449-4.589,37.449-41.778C154.931,227.857,155.441,205.439,142.701,198.301z M118.333,244.415H95.063V211.04l23.269,0.271
		c0,0,11.633,2.399,11.633,16.553C129.966,242.016,118.333,244.415,118.333,244.415z M118.247,184.797H94.81v-31.839l23.437,0.253
		c0,0,11.719,2.294,11.719,15.8C129.966,182.508,118.247,184.797,118.247,184.797z"/>
</g>
</svg>
