<?xml version="1.0" encoding="utf-8"?>
<!-- Generator: Adobe Illustrator 19.1.0, SVG Export Plug-In . SVG Version: 6.00 Build 0)  -->
<svg version="1.1" id="Layer_1" xmlns="http://www.w3.org/2000/svg" xmlns:xlink="http://www.w3.org/1999/xlink" x="0px" y="0px"
	 viewBox="0 0 160 160" style="enable-background:new 0 0 160 160;" xml:space="preserve">
<style type="text/css">
	.st0{fill:#F9DC01;}
	.st1{fill:#B52728;}
	.st2{fill:#FFFFFF;}
	.st3{fill:#406741;}
	.st4{fill:#010101;}
</style>
<g>
	<path class="st0" d="M29,11.7v84.4c0,28.8,23.3,52.1,52.1,52.1c28.8,0,52.1-23.3,52.1-52.1V11.7H29z"/>
	<path class="st1" d="M132.2,12.9c0,2.2,0,83.2,0,83.2c0,28.1-22.9,51-51,51c-28.1,0-51-22.9-51-51c0,0,0-81,0-83.2
		C32.4,12.9,129.9,12.9,132.2,12.9z"/>
	<path class="st0" d="M31.7,96.1c0,27.2,22.2,49.4,49.4,49.4c27.2,0,49.4-22.2,49.4-49.4c0,0,0-22.5,0-43.9c-27,0-61.6,0-98.8,0
		C31.7,73.6,31.7,96.1,31.7,96.1z"/>
	<path class="st0" d="M130.6,14.5c-5,0-93.8,0-98.8,0c0,2.3,0,18.7,0,36.2c37.3,0,71.8,0,98.8,0C130.6,33.1,130.6,16.8,130.6,14.5z"
		/>
	<path class="st2" d="M129.4,15.6c-2.2,0-94.3,0-96.5,0c0,1,0,16.6,0,33.9h96.5C129.4,32.3,129.4,16.6,129.4,15.6z"/>
	<path class="st2" d="M81.2,53.4v91c26.6,0,48.3-21.6,48.3-48.3c0,0,0-21.8,0-42.7C115.1,53.4,98.8,53.4,81.2,53.4z"/>
	<path class="st1" d="M43.2,21.4h20.3v4.5H49v3.6h13.7v4.4H49v6.6h-5.8V21.4z"/>
	<path class="st1" d="M83.1,33.2H89c0,0.9,0.1,1.5,0.1,1.8c0,1.5-0.2,2.6-0.7,3.5c-0.5,0.9-1.4,1.6-2.9,1.9
		c-1.4,0.3-3.9,0.5-7.3,0.5c-3.7,0-6.3-0.1-7.8-0.2c-1.6-0.1-2.7-0.4-3.5-0.8c-0.7-0.4-1.2-0.9-1.6-1.5c-0.3-0.6-0.6-1.5-0.7-2.5
		c-0.1-0.9-0.1-2.4-0.1-4.7c0-2.2,0-3.8,0.1-4.8c0.1-1,0.2-1.7,0.5-2.3c0.5-1.2,1.6-2,3.2-2.4c1.6-0.4,4.9-0.5,9.9-0.5
		c2.5,0,4.3,0.1,5.4,0.2c1.1,0.1,2,0.3,2.7,0.6c0.9,0.4,1.5,1,1.8,1.8c0.4,0.8,0.5,2,0.5,3.6c0,0.1,0,0.4,0,1h-5.8
		c0-0.6-0.1-1.1-0.1-1.3c-0.1-0.2-0.2-0.4-0.3-0.5c-0.2-0.2-0.8-0.3-1.7-0.4c-0.9-0.1-2.3-0.1-4.1-0.1c-1.8,0-3.1,0-3.8,0.1
		c-0.7,0.1-1.2,0.2-1.5,0.5c-0.3,0.3-0.6,0.8-0.7,1.4c-0.1,0.7-0.2,1.7-0.2,3.2c0,1.5,0.1,2.5,0.2,3.1c0.1,0.6,0.4,1,0.7,1.3
		c0.3,0.3,0.8,0.4,1.6,0.5c0.7,0.1,2,0.1,3.8,0.1c2.2,0,3.7,0,4.5-0.1c0.7-0.1,1.2-0.2,1.5-0.5C82.9,35.1,83.1,34.4,83.1,33.2z"/>
	<path class="st1" d="M32.9,53.4c0,20.9,0,42.7,0,42.7c0,26.6,21.6,48.3,48.3,48.3v-91C65.9,53.4,49.7,53.4,32.9,53.4z"/>
	<path class="st1" d="M108.2,21.4h-9.5L88.1,42.1H73v4.5h19.8l4.5-9.2h12l4.5,9.2h7.7L108.2,21.4z M99.4,33.1l3.5-7.3h0.8l3.5,7.3
		H99.4z"/>
	<rect x="58.1" y="42.1" class="st3" width="14.9" height="4.5"/>
	<rect x="43.2" y="42.1" class="st1" width="14.9" height="4.5"/>
	<path class="st2" d="M73.5,42.5c0,0.7,0,2.9,0,3.5c0.6,0,8.3,0,14.1,0v-3.5C83.1,42.5,74.2,42.5,73.5,42.5z"/>
	<path class="st2" d="M75.9,128.6c-1.7,0-3.1,1.3-3.1,3.3c0,1.9,1.1,3.2,2.9,3.2c0.5,0,0.9-0.1,1.3-0.3c-0.7,1.5-2.1,2.5-3.5,3
		l0.4,0.9c1.3-0.4,2.4-1,3.4-2c0.9-0.9,1.8-2.5,1.8-4.3C79.1,129.9,77.5,128.6,75.9,128.6z M75.9,134c-0.9,0-1.6-0.6-1.6-2.3
		c0-1.3,0.5-2.1,1.4-2.1c1.3,0,1.8,1.5,1.8,2.6c0,0.5-0.1,1-0.2,1.4C77,133.9,76.4,134,75.9,134z"/>
	<polygon class="st2" points="69.3,129.8 70.5,129.5 70.5,128.8 66.6,128.8 66.6,129.5 67.8,129.8 67.8,134.3 66.6,134.7 
		66.6,135.3 70.5,135.3 70.5,134.7 69.3,134.3 	"/>
	<path class="st1" d="M86.8,128.6c-2,0-3.6,1.5-3.6,3.5c0,2,1.6,3.5,3.6,3.5c2,0,3.6-1.5,3.6-3.5C90.4,130.1,88.8,128.6,86.8,128.6z
		 M86.8,134.4c-1,0-2.1-0.8-2.1-2.3c0-1.6,1.1-2.3,2.1-2.3c1,0,2.1,0.8,2.1,2.3C89,133.6,87.8,134.4,86.8,134.4z"/>
	<path class="st1" d="M91.1,128.8v1.3h4.2c-1,1.5-2.8,5.2-3.4,8.2h1.3c0.5-2.5,2.4-6.2,3.8-8.4v-1H91.1z"/>
	<path class="st4" d="M99.7,103.8l-5.7-5.2c-2.6,0.5-5.3,0.8-8,1l-0.1-4.1c4.8-0.5,7.1-1.7,9.2-3.7c2.5-2.4,3.7-5.5,3.7-10
		c0-7.6-4.4-14.7-8.3-18.5c-3.6-3.6-7.3-4.7-9.3-5l-0.1,0l-0.1,0c-1.9,0.3-5.7,1.5-9.3,5c-3.8,3.8-8.3,10.9-8.3,18.5
		c0,4.4,1.2,7.6,3.7,10c2.1,2,4.4,3.2,9.2,3.7l-0.1,4.1c-2.7-0.2-5.4-0.5-8-1l-5.7,5.2l2.3,2.5c-0.2,0.5-0.3,1.1-0.3,1.8
		c0,1.8,1.5,3.2,3.2,3.2c0.5,0,1.5-0.1,2.2-0.9c0.2-0.2,0.3-0.5,0.4-0.8c1.5,3.1,2.4,8,2.8,15.2l0,0.5h15.8l0-0.5
		c0.4-7.2,1.3-12.1,2.8-15.2c0.1,0.3,0.2,0.6,0.4,0.8c0.6,0.8,1.6,0.9,2.2,0.9c1.8,0,3.2-1.4,3.2-3.2c0-0.7-0.1-1.2-0.3-1.8
		L99.7,103.8z"/>
	<path class="st3" d="M82.1,94.6l3.5-2.1l-4.4-2.6l-4.4,2.6l3.5,2.1c0.3,0,0.6,0,0.9,0C81.5,94.6,81.8,94.6,82.1,94.6z"/>
	<path class="st3" d="M87.6,66.9l4.4,2.6l1.3-0.7c-0.9-1.3-1.8-2.5-2.7-3.6L87.6,66.9z"/>
	<path class="st3" d="M70.3,89.9l-2.1,1.3c1.2,1.1,2.5,2,4.5,2.5l2-1.2L70.3,89.9z"/>
	<path class="st3" d="M74.2,94c1.1,0.2,2.4,0.4,3.9,0.5l-2.3-1.4L74.2,94z"/>
	<path class="st3" d="M84.2,94.5c1.5-0.1,2.8-0.2,3.9-0.5l-1.6-0.9L84.2,94.5z"/>
	<path class="st3" d="M94.8,90.4c0.9-1,1.6-2.1,2-3.4L93,89.3L94.8,90.4z"/>
	<path class="st3" d="M97.3,79.1c-0.2-1.5-0.6-3-1.2-4.5L93,76.5L97.3,79.1z"/>
	<path class="st3" d="M97.4,80.3L97.4,80.3L93,82.9l4.3,2.5c0.2-1.1,0.3-2.2,0.3-3.5C97.6,81.4,97.5,80.8,97.4,80.3L97.4,80.3
		L97.4,80.3z"/>
	<path class="st3" d="M87.6,92.5l2,1.2c2-0.6,3.3-1.4,4.5-2.5L92,89.9L87.6,92.5z"/>
	<path class="st3" d="M65.5,87c0.4,1.3,1.1,2.4,2,3.4l1.9-1.1L65.5,87z"/>
	<path class="st3" d="M84.9,60.9c-1.5-0.7-2.8-1.1-3.8-1.3c-0.9,0.2-2.2,0.5-3.8,1.3l3.8,2.2L84.9,60.9z"/>
	<path class="st3" d="M80.2,63.7l-3.8-2.3c-1.2,0.7-2.5,1.6-3.7,2.9c0,0-0.1,0.1-0.1,0.1l3.2,1.9L80.2,63.7z"/>
	<path class="st3" d="M86.6,66.3l3.2-1.9c0,0-0.1-0.1-0.1-0.1c-1.2-1.2-2.5-2.2-3.7-2.9l-3.8,2.3L86.6,66.3z"/>
	<path class="st3" d="M74.7,66.9l-2.9-1.7c-0.9,1-1.9,2.3-2.7,3.6l1.3,0.7L74.7,66.9z"/>
	<path class="st3" d="M64.9,80.3L64.9,80.3L64.9,80.3l-0.1-0.1c-0.1,0.6-0.1,1.1-0.1,1.7c0,1.3,0.1,2.5,0.3,3.5l4.3-2.5L64.9,80.3z"
		/>
	<path class="st3" d="M66.1,74.6c-0.5,1.5-0.9,3-1.2,4.5l4.4-2.6L66.1,74.6z"/>
	<path class="st3" d="M68.5,69.6c-0.3,0.5-0.5,0.9-0.8,1.4l1.6-0.9L68.5,69.6z"/>
	<path class="st3" d="M70.3,75.9l4.4-2.6l-4.4-2.6l-3.4,2c-0.1,0.3-0.3,0.6-0.4,0.9L70.3,75.9z"/>
	<polygon class="st3" points="76.8,79.7 81.2,82.3 85.6,79.7 81.2,77.1 	"/>
	<polygon class="st3" points="70.3,83.5 65.9,86.1 70.3,88.7 74.7,86.1 	"/>
	<polygon class="st3" points="71.4,89.3 75.8,91.9 80.2,89.3 75.8,86.7 	"/>
	<polygon class="st3" points="74.7,79.7 70.3,77.1 65.9,79.7 70.3,82.3 	"/>
	<polygon class="st3" points="80.2,70.1 75.8,67.5 71.3,70.1 75.8,72.7 	"/>
	<polygon class="st3" points="80.2,76.5 75.8,73.9 71.4,76.5 75.8,79.1 	"/>
	<polygon class="st3" points="81.2,83.5 76.8,86.1 81.2,88.7 85.6,86.1 	"/>
	<polygon class="st3" points="82.2,89.3 86.6,91.9 91,89.3 86.6,86.7 	"/>
	<polygon class="st3" points="82.2,76.5 86.6,79.1 91,76.5 86.6,73.9 	"/>
	<polygon class="st3" points="92,82.3 96.4,79.7 92,77.1 87.6,79.7 	"/>
	<polygon class="st3" points="87.6,86.1 92,88.7 96.4,86.1 92,83.5 	"/>
	<polygon class="st3" points="82.2,70.1 86.6,72.7 91,70.1 86.6,67.5 	"/>
	<polygon class="st3" points="85.6,66.9 81.2,64.3 76.8,66.9 81.2,69.5 	"/>
	<path class="st3" d="M94.6,71c-0.3-0.5-0.5-1-0.8-1.4L93,70.1L94.6,71z"/>
	<path class="st3" d="M92,70.7l-4.4,2.6l4.4,2.6l3.8-2.3c-0.1-0.3-0.3-0.6-0.4-0.9L92,70.7z"/>
	<polygon class="st3" points="71.4,82.9 75.8,85.5 80.2,82.9 75.8,80.3 	"/>
	<polygon class="st3" points="81.2,70.7 76.8,73.3 81.2,75.9 85.6,73.3 	"/>
	<polygon class="st3" points="91,82.9 86.6,80.3 82.2,82.9 86.6,85.5 	"/>
	<path class="st0" d="M71.3,103.3l5,0l0-2.7c-2.6-0.2-5.1-0.5-7.6-0.9c-1.9,1.7-3.5,3.2-4.6,4.2l1.4,1.5
		C66.6,104.1,68.6,103.3,71.3,103.3z"/>
	<path class="st0" d="M93.6,99.7c-2.5,0.4-5.1,0.8-7.6,0.9l0,2.7l0.1,0l4.9,0c2.7,0,4.7,0.8,5.8,2.1l1.4-1.5
		C97.1,102.9,95.5,101.4,93.6,99.7z"/>
	<path class="st0" d="M81.2,103.4l-3.8,0l0.1-7.7c1.1,0.1,2.3,0.1,3.7,0.1c1.4,0,2.6,0,3.7-0.1l0.1,7.7L81.2,103.4z"/>
	<path class="st0" d="M70.1,104.4c-2.8,0.3-4.4,1.6-4.4,3.8c0,1.2,1,2.2,2.2,2.2c0.4,0,1-0.1,1.4-0.5c0.3-0.4,0.4-1.1,0.2-2l0.9-0.4
		c1.9,2.6,3,7,3.6,13.8l3-7.3C74.9,109.3,72.6,105.5,70.1,104.4z"/>
	<path class="st0" d="M77.6,112.6l3.4-8.2l-9-0.1C73.8,105.8,75.6,108.5,77.6,112.6z"/>
	<path class="st0" d="M90.4,104.3l-4.2,0l-4.8,0l3.4,8.2C86.7,108.5,88.5,105.8,90.4,104.3z"/>
	<path class="st0" d="M78.1,113.9c1,2.2,2,4.7,3,7.6c1.1-2.9,2.1-5.5,3-7.6c-1.4-3.5-2.7-6.6-3-7.3
		C80.8,107.4,79.6,110.4,78.1,113.9z"/>
	<path class="st0" d="M77.6,115.2c-1.3,3.1-2.6,6.3-3.4,8.3c0,0.2,0,0.5,0,0.7c0.4,0,3.6,0,6.8,0l-0.4-1
		C79.7,120.6,78.7,117.8,77.6,115.2z"/>
	<path class="st0" d="M92.3,104.4c-2.5,1.1-4.9,4.9-7,9.5l3,7.3c0.6-6.8,1.7-11.2,3.6-13.8l0.9,0.4c-0.2,0.9-0.1,1.6,0.2,2
		c0.4,0.5,1,0.5,1.4,0.5c1.2,0,2.2-1,2.2-2.2C96.7,106,95.1,104.7,92.3,104.4z"/>
	<path class="st0" d="M81.6,123.2l-0.4,1c3.2,0,6.4,0,6.8,0c0-0.3,0-0.5,0-0.7c-0.8-2-2.2-5.2-3.4-8.3
		C83.6,117.8,82.6,120.6,81.6,123.2z"/>
</g>
</svg>
