<?xml version="1.0" encoding="utf-8"?>
<!-- Generator: Adobe Illustrator 19.1.0, SVG Export Plug-In . SVG Version: 6.00 Build 0)  -->
<svg version="1.1" id="Layer_1" xmlns="http://www.w3.org/2000/svg" xmlns:xlink="http://www.w3.org/1999/xlink" x="0px" y="0px"
	 viewBox="0 0 160 160" style="enable-background:new 0 0 160 160;" xml:space="preserve">
<style type="text/css">
	.st0{fill:#366BB4;stroke:#366BB4;stroke-width:0.617;}
	.st1{fill:#FFFFFF;stroke:#FFFFFF;stroke-width:0.6175;}
	.st2{fill:#EC184A;}
	.st3{fill:#366BB4;}
</style>
<g id="layer5" transform="translate(1.2816317,1.2816317)">
	<path id="path4822" class="st0" d="M12,77.6c0-36.7,29.8-66.5,66.5-66.5c36.7,0,66.5,29.8,66.5,66.5c0,36.7-29.8,66.5-66.5,66.5
		C41.8,144,12,114.3,12,77.6z"/>
	<path id="path4867" class="st1" d="M14.9,77.5c0-35.1,28.5-63.5,63.5-63.5c35.1,0,63.5,28.5,63.5,63.5c0,35.1-28.4,63.5-63.5,63.5
		C43.4,141,14.9,112.6,14.9,77.5z"/>
	<path id="path3794" class="st2" d="M78.4,16.5c-33.7,0-60.9,27.3-60.9,61c0,33.7,27.2,60.9,60.9,60.9c33.7,0,61-27.2,61-60.9
		C139.4,43.8,112.1,16.5,78.4,16.5z M82.6,20.5l4.7,0.7l1.4,4.2c0.2,0.7,0.4,1.5,0.5,2.2l0.1,0.1c0.3-0.6,1-1.7,1.3-2.1l2.5-3.4
		l4.5,0.7l-6.9,8.5l-0.8,5.5l-4.1-0.7l0.9-5.5L82.6,20.5z M74.6,20.8l7,14.3l-4.4,0.5l-1.2-3l-5.6,0.7l-0.7,3.1l-4.1,0.5l3.7-15.5
		L74.6,20.8z M72.2,24.1C72.2,25,72,26,71.8,26.6l-0.7,3.6l3.6-0.4l-1.6-3.4c-0.4-0.9-0.7-1.7-0.8-2.3H72.2z M101.1,24.4l9.3,4.8
		l-1.5,2.7l-5.7-3l-1.3,2.5l5.3,2.8l-1.5,2.7l-5.3-2.8l-1.4,2.6l5.9,3.1l-1.4,2.7l-9.4-5L101.1,24.4z M55.6,25.4
		c1.2-0.2,2.6,0.2,3.5,1.8c1.4,2.4-0.2,3.8-0.7,4.4l0.1,0.1c1.2-0.5,3.2-0.8,4.5,1.6c2,3.5-1.8,5.7-3.1,6.4l-5.4,3l-7.3-13.1
		l5.5-3.1C53.2,26.2,54.3,25.6,55.6,25.4z M55,28.9c-0.1,0-0.3,0-0.4,0.1c-0.2,0.1-0.4,0.2-0.7,0.3l-1.9,1.1l1.5,2.5l1.9-1.1
		c0.9-0.5,1.2-1.2,0.7-2.1C55.7,29.1,55.4,28.9,55,28.9z M116.8,33.9l4.7,5.1c0.8,0.8,3.4,3.7,0.3,6.5c-1.4,1.3-3,1.8-4.7,1l-2.6,7
		l-3.1-3.4l2.5-5.7l-1.1-1.1l-4.2,3.9l-2.8-3L116.8,33.9z M58.2,33.9c-0.4-0.1-0.9,0.1-1.4,0.4l-1.9,1.1l1.6,2.8l2.1-1.1
		c0.9-0.5,1.2-1.4,0.7-2.3C58.9,34.2,58.6,34,58.2,33.9z M117.4,38.8l-2.4,2.2l1.5,1.6c0.4,0.4,1.2,1.3,2.5,0.2
		c0.6-0.6,0.9-1.4-0.1-2.4L117.4,38.8z M78.4,39.3c21.1,0,38.2,17.1,38.2,38.2c0,21.1-17.1,38.1-38.2,38.1
		c-21.1,0-38.1-17.1-38.1-38.1C40.3,56.4,57.4,39.3,78.4,39.3z M36.3,40.5c0.9-0.1,1.8,0.1,2.5,0.4l-1.4,3.6
		c-0.7-0.3-2.2-0.8-3.1,0.8c-0.6,0.9-0.9,2.9,2.4,5c2.1,1.3,4.4,2.2,5.7,0.2c0.9-1.4-0.1-2.7-0.7-3.4l2.7-2.7
		c2.2,2.3,2.5,4.8,0.7,7.6c-2,3.2-5.7,5.2-10.6,2.1c-4.9-3.1-4.6-7.5-2.7-10.5C33.2,41.4,34.8,40.6,36.3,40.5z M129.7,50.9l1.6,4.9
		l-5.8,5.7c-0.7,0.7-1.7,1.5-2.7,2.2l0.1,0.2c0.6-0.3,1.6-0.7,3-1.1l7-2.3l1.2,3.7l-14.3,4.6l-1.6-4.9l6.1-6.1
		c0.9-0.9,1.9-1.7,2.4-1.9l-0.1-0.1c-0.7,0.3-1.3,0.6-2.2,0.8l-7.8,2.5l-1.1-3.6L129.7,50.9z M26.4,54.3l2.9,1.1l-2.1,5.9l3,1.1
		l2.1-5.8l2.9,1l-2.1,5.8l5.3,1.9L37,69.2l-14.1-5.1L26.4,54.3z M37.5,89.5l2.9,5.5l-5.7,5.5c-0.3,0.3-1.2,1-1.9,1.5l0.1,0.1
		c0.7-0.2,2-0.6,2.6-0.7l7.6-1.3l2.8,5.4l-13.3,6.9l-1.8-3.5l7.6-4c1-0.5,2.5-1.2,3.1-1.4l-0.1-0.2c-0.6,0.2-2.4,0.6-3.5,0.8
		l-8.8,1.6l-1.4-2.7l7-6.9c0.7-0.7,1.6-1.4,2.1-1.8l-0.1-0.2c-0.5,0.3-2.2,1.3-3.3,1.9L26,99.9l-1.8-3.4L37.5,89.5z M120.1,89.7
		l13.2,7.2l-2.5,4.5l-8.5-0.2c-1.3,0-2.6-0.2-3.1-0.4l-0.1,0.1c0.7,0.3,1.3,0.5,2.1,1l7.2,3.9l-1.8,3.4l-13.2-7.1l2.5-4.5l8.2,0.2
		c1,0,2.2,0.1,3.4,0.4l0.1-0.2c-0.7-0.2-1.6-0.7-2.8-1.3l-6.5-3.5L120.1,89.7z M111.7,104.4l2.1,2.2l-4.7,4.4l1.9,2l4.4-4.1l2.1,2.2
		l-4.4,4.1l2,2.2l4.8-4.5l2.1,2.2l-7.8,7.3l-10.2-11L111.7,104.4z M47.6,107.3l3.3,2.5l-5.8,7.5c-1,1.2-1.2,2.6,0.1,3.6
		c1.5,1.1,2.7,0.5,3.6-0.7l5.8-7.4l3.1,2.4l-5.8,7.4c-2.3,3-5.4,3.2-8.7,0.7c-2.7-2.1-4.2-5.1-1.5-8.6L47.6,107.3z M51.8,110.5
		l2.1,1.6l-3.7,2.5L51.8,110.5z M101.4,112.8l7.1,13.2l-3.6,2l-3-5.6l-4.4,2.3l3,5.6l-3.6,1.9l-7.1-13.2l3.6-1.9L96,122l4.4-2.3
		l-2.6-5L101.4,112.8z M60.7,116.5l4.9,1.5l1.3,8.1c0.2,1,0.3,2.2,0.3,3.4l0.2,0.1c0.1-0.7,0.4-1.8,0.8-3.1l2.2-7l3.6,1.1l-4.5,14.3
		l-4.9-1.5l-1.5-8.5c-0.2-1.2-0.2-2.6-0.1-3.1l-0.2-0.1c-0.2,0.8-0.3,1.5-0.5,2.3l-2.5,7.8l-3.6-1.1L60.7,116.5z M83,119.5
		c2.9-0.2,4.7,1.6,5.4,3.3l-3.5,1.6c-0.3-0.7-1-2.1-2.8-1.6c-1.1,0.3-2.6,1.4-1.7,5.2c0.6,2.4,1.6,4.7,3.9,4.1
		c1.6-0.4,1.8-1.9,1.9-3h3.9c-0.1,3.2-1.5,5.2-4.8,5.9c-3.7,0.9-7.7-0.3-9.1-5.9c-1.3-5.6,2-8.6,5.4-9.4
		C82.2,119.6,82.6,119.5,83,119.5z"/>
	<path id="path5000" class="st3" d="M78.4,42.3c-13.8,0-25.7,7.9-31.5,19.4l5.3,9l1.4-16.4l7.8,13.4l1.3-16.3l7.9,13.4L72,48.4
		l7.8,13.4l1.4-16.4L89,58.8l1.2-14.5C86.5,43,82.5,42.3,78.4,42.3z M89,58.8l-1.4,16.4l7.8,13.3l1.3-16.3L89,58.8z M87.6,75.2
		l-7.8-13.4l-1.4,16.3l-7.8-13.4l-1.4,16.3l-7.8-13.3L60,84.2l7.8,13.4l1.3-16.4L77,94.6l1.4-16.3l7.8,13.3L87.6,75.2z M77,94.6
		L75.6,111l-7.8-13.4l-1.1,13c3.7,1.3,7.6,2,11.7,2c13.5,0,25.1-7.5,31-18.6l-4.8-8.4l-1.4,16.4l-7.8-13.4L94,105l-7.8-13.4
		L84.8,108L77,94.6z M104.6,85.6l1.3-16.4l-7.7-13.3l-1.4,16.3L104.6,85.6z M60,84.2l-7.8-13.4l-1.3,16.4l7.7,13.3L60,84.2z
		 M91.8,45l6.4,10.8l0.5-7C96.6,47.3,94.3,46,91.8,45z M107,57l-1,12.2l7.3,12.5c0.2-1.4,0.2-2.8,0.2-4.3
		C113.5,69.8,111.1,62.8,107,57z M43.3,74.4c-0.1,1-0.1,2.1-0.1,3.1c0,7.7,2.5,14.8,6.7,20.6l0.9-10.9L43.3,74.4z M58.6,100.6
		l-0.5,5.6c1.8,1.2,3.6,2.3,5.6,3.2L58.6,100.6z"/>
</g>
</svg>
