<?xml version="1.0" encoding="utf-8"?>
<!-- Generator: Adobe Illustrator 19.1.0, SVG Export Plug-In . SVG Version: 6.00 Build 0)  -->
<svg version="1.1" id="Layer_1" xmlns="http://www.w3.org/2000/svg" xmlns:xlink="http://www.w3.org/1999/xlink" x="0px" y="0px"
	 viewBox="0 0 400 400" enable-background="new 0 0 400 400" xml:space="preserve">
<path fill="#E04145" d="M9.636,199.5c0,104.713,85.186,189.899,189.899,189.899c104.706,0,189.899-85.186,189.899-189.899
	S304.241,9.601,199.535,9.601C94.822,9.601,9.636,94.787,9.636,199.5"/>
<path fill="#FFFFFF" d="M15.898,199.5c0-101.26,82.378-183.639,183.638-183.639c101.262,0,183.638,82.379,183.638,183.639
	c0,101.253-82.377,183.638-183.638,183.638C98.275,383.138,15.898,300.753,15.898,199.5"/>
<path fill="#E04145" d="M24.232,199.5c0,96.66,78.636,175.303,175.303,175.303c96.66,0,175.303-78.644,175.303-175.303
	c0-96.661-78.644-175.303-175.303-175.303C102.868,24.197,24.232,102.839,24.232,199.5"/>
<path fill="#FFFFFF" d="M53.754,199.5c0-80.381,65.401-145.781,145.781-145.781c80.388,0,145.781,65.4,145.781,145.781
	s-65.393,145.779-145.781,145.779C119.155,345.279,53.754,279.881,53.754,199.5"/>
<path fill="#E04145" d="M271.785,207.285c6.158,2.352,21.368,9.587,46.596,10.468c17.02,0.597,23.743-10.004,18.136-11.821
	c-2.234-0.731-50.796-14.461-50.796-14.461s-6.01-2.352-1.509-2.832c4.507-0.471,24.701-0.283,33.297-3.807
	c10.514-4.308,12.37-13.799,9.908-13.668c-21.131,1.085-40.957,0.709-42.214,0.567c-0.12-0.015-0.237-0.032-0.361-0.045
	c0,0-2.339-0.788-0.245-2.636c2.306-2.03,17.537-14.729,20.746-17.97c8.381-8.431,2.682-20.753,1.279-19.424
	c-13.987,13.337-32.069,23.648-33.145,23.859c-1.07,0.206-0.778-2.319,0.077-4.136c0.843-1.807,5.639-7.312,7.188-13.087
	c4.082-15.303,3.038-24.944-5.598-28.617c-1.557-0.661-2.14,0.211-4.169,4.953c-2.026,4.744-2.816,13.047-10.538,16.271
	c-3.948,1.637-11.262,8.384-11.364,11.09c-0.119,2.688,1.502,6.914-0.582,8.337c-1.652,1.148-4.458-0.859-6.92,1.18
	c-2.454,2.036-9.587,9.248-12.08,11.104c-2.485,1.855-7.43,4.86-10.522,3.146c-6.802-6.701-3.498-26.393-3.498-26.393
	s2.318,0.496,4.829,0.125c6.879-1.006,7.322-9.161,6.36-10.239c-0.731,0.881-2.153,2.21-5.725,2.548
	c-2.777,0.26-3.499-0.881-4.105-3.342c-0.582-2.304-0.984-3.784,0.197-7.903c1.188-4.122,5.364-6.137,7.748-8.053
	c2.375-1.911,1.139-9.108,1.139-9.108s-0.936,2.116-2.608,3.696c-2.291,2.14-5.412,1.533-12.075,1.117
	c-6.652-0.424-9.429-2.942-10.466-4.222c-1.047-1.284-9.784-0.339-12.293-0.228c-2.516,0.119-13.203,2.147-17.191,3.649
	c-3.986,1.51-9.501,3.807-10.971,5.018c-1.463,1.218-0.96,2.312-0.96,2.312l1.336,3.626c0,0,4.939-3.461,9.815-4.765
	c4.876-1.309,5.451,0.918,6.079,3.017c0.693,2.344,0.859,2.951,1.126,4.604c-1.825,0.777-9.036,1.384-15.54,1.035
	c-7.557-0.408-7.99-3.728-7.879-5.678c0.039-0.706-2.203,0.039-3.067,1.95c-1.51,3.366-1.958,9.061,13.55,8.85
	c6.164-0.088,11.905-2.369,13.706-3.037c1.228,4.082-0.163,4.743-1.903,5.048c-7.471,1.289-11.31-0.661-11.31-0.661
	s-1.053,3.359-0.281,3.94c4.475,3.39,13.572,3.406,15.176,3.273c1.621-0.141,2.91-1.18,3.791-0.449
	c0.874,0.748,2.031,4.568,2.172,5.828c0.149,1.259-0.236,2.146-4.004,2.044c-3.757-0.093-5.188,0.048-5.032,0.772
	c0.166,0.723,4.199,3.869,4.899,4.607c0.701,0.74,4.57-3.311,4.57-3.311s-0.191,0.557,0.126,2.178
	c0.313,1.62,1.398,14.447-6.576,18.152c-3.092,1.715-8.038-1.29-10.531-3.146c-2.492-1.855-9.625-9.068-12.078-11.104
	c-2.463-2.038-5.26-0.032-6.921-1.18c-2.085-1.423-0.464-5.648-0.574-8.337c-0.109-2.706-7.417-9.453-11.364-11.09
	c-7.714-3.225-8.516-11.527-10.545-16.271c-2.023-4.742-2.612-5.614-4.169-4.953c-8.635,3.673-9.673,13.313-5.592,28.617
	c1.54,5.775,6.339,11.28,7.179,13.087c0.859,1.817,1.15,4.342,0.079,4.136c-1.069-0.21-19.15-10.522-33.148-23.859
	c-1.399-1.329-7.093,10.993,1.282,19.424c3.216,3.241,18.444,15.941,20.756,17.97c2.091,1.848-0.253,2.636-0.253,2.636
	c-0.118,0.014-0.243,0.03-0.354,0.045c-1.265,0.143-21.084,0.519-42.215-0.567c-2.461-0.131-0.614,9.36,9.91,13.668
	c8.594,3.523,28.791,3.336,33.297,3.807c4.498,0.48-1.519,2.832-1.519,2.832s-48.562,13.729-50.787,14.461
	c-5.615,1.817,1.109,12.418,18.128,11.821c25.228-0.881,40.428-8.115,46.596-10.468c6.157-2.351,2.493,1.982,1.179,2.902
	c-9.14,6.419-36.01,24.694-48.72,32.859c-1.817,1.171-2.084,2.467-0.025,4.653c9.964,10.595,28.799-1.533,36.255-5.677
	c8.698-4.842,29.397-20.463,31.001-18.765c0.629,0.663-0.557,6.504-13.321,20.173c1.817,1.824,4.27,3.64,4.27,3.64
	s-6.11,7.392-10.286,11.968c-1.69,1.858-5.623,5.757-6.692,5.553c-1.071-0.206-6.574-6.151-8.446-6.252
	c-1.18-0.06-3.713,1.753-5.606,0.685c-1.134-0.646-4.656-0.299-7.56,1.053c-2.901,1.369-2.366,8.196-1.571,5.167
	c0.792-3.027,6.59-2.933,9.491,0.426c0.921,1.051,3.711,3.137,5.498,3.544c1.785,0.419,2.656,0.977,1.934,1.496
	c-0.67,0.472-5.514,1.628-9.484,4.483c-0.849,1.439-0.387,1.966-0.716,2.672c-4.427,1.575-5.473,2.933-4.099,7.363
	c0.127,0.424,0.065,0.529,1.431,3.286c0.654-1.209,0.324-5.112,4.493-6.024c0.44-0.093,1.171,0.527,1.948,0.527
	c1.73,0,7.992-3.632,9.099-5.033c1.11-1.408,0.859,0.802,0.134,2.146c-3.499,6.465-2.201,10.421-1.894,10.54
	c0.802,0.299,1.235-0.299,1.769,0.944c2.163,6.305,8.525,10.114,7.471,9.003c-1.047-1.101-2.58-9.468-1.927-9.793
	c0.653-0.321,1.171,0.144,1.959-0.321c0.779-0.457,1.737-4.088,1.69-5.213c-0.118-2.691-1.581-3.523-1.54-5.136
	c0.039-1.612,1.163-3.381,1.163-3.381s1.864,3.625,3.452,5.292c3.233,3.419,2.649,4.202,6.039,2.832
	c0.677-0.268,5.198,7.14,5.198,7.14s1.637-3.948,0.899-6.779c-0.331-1.274-1.567-1.837-2.431-2.933
	c-0.872-1.109,1.542-2.507,0.371-4.255c-6.545-6.259-7.158-4.111-8.841-8.194c-1.123-2.752,1.087-4.619,3.366-7.377
	c5.734-6.898,5.924-6.834,9.312-10.869c1.409,0.938,2.219,1.827,4.167,3.257c6.379-9.376,11.844-17.822,17.823-20.034
	c5.977-2.208,8.673,1.293,8.508,4.918c-0.292,6.393-13.102,20.149-13.102,20.149c-5.812,6.498-10.059,9.942-12.48,14.163h0.007
	h-0.007c-1.008,1.753-1.701,3.627-2.07,5.914c-0.385,2.368,0.04,5.773,0.55,8.541v0.01c0.496,2.672,1.062,4.763,1.062,4.763
	s1.927-6.865,2.36-7.693c1.211-2.342,1.47,0,3.295,4.595c1.823,4.607,5.67,10.413,5.67,10.413l-0.063-11.766
	c0.197-3.051,0.401-7.157,1.769-4.107c1.368,3.046,5.811,9.612,5.811,9.612s0.063-2.39,0.237-5.292h-0.032l0.032-0.01
	c0.165-2.656,2.24-12.401,3.341-14.405h-0.061l0.061-0.019c0.938-1.727,5.089-8.979,10.139-9.743
	c5.041-0.761,5.473,8.22,5.119,10.153c-0.668,3.687-2.02,7.976-2.768,9.484c-0.471,0.962-4.443,8.433-4.946,9.848
	c-5.38,15.021,5.852,24.127,5.866,23.42c0.016-0.723,1.338-11.089,3.043-13.579c1.015-1.489,2.431-2.449,3.468-0.994
	c1.456,2.069,4.649,9.068,9.187,13.883v0.014c0-0.014,0-0.014,0.007-0.014v0.014v-0.014c4.545-4.815,7.73-11.814,9.187-13.883
	c1.044-1.454,2.461-0.495,3.465,0.994c1.709,2.49,3.029,12.856,3.045,13.579c0.026,0.707,11.247-8.398,5.867-23.42
	c-0.501-1.415-4.465-8.886-4.938-9.848c-0.749-1.508-2.115-5.797-2.777-9.484c-0.354-1.933,0.094-10.914,5.136-10.153
	c5.035,0.764,9.193,8.016,10.131,9.743l0.053,0.019h-0.053c1.092,2.004,3.166,11.749,3.333,14.405l0.04,0.01h-0.04
	c0.173,2.902,0.244,5.292,0.244,5.292s4.435-6.566,5.805-9.612c1.367-3.049,1.587,1.056,1.769,4.107l-0.055,11.766
	c0,0,3.836-5.806,5.661-10.413c1.824-4.595,2.083-6.937,3.302-4.595c0.426,0.828,2.352,7.693,2.352,7.693s0.565-2.091,1.061-4.763
	h-0.007l0.007-0.01c0.512-2.768,0.944-6.173,0.553-8.541c-0.373-2.287-1.063-4.161-2.062-5.914h-0.015h0.015
	c-2.431-4.221-6.669-7.665-12.488-14.163c0,0-12.812-13.756-13.095-20.149c-0.165-3.625,2.531-7.126,8.501-4.918
	c5.977,2.212,11.451,10.658,17.829,20.034c1.942-1.43,2.752-2.32,4.161-3.257c3.391,4.035,3.585,3.972,9.319,10.869
	c2.274,2.758,4.482,4.624,3.357,7.377c-1.683,4.083-2.287,1.935-8.838,8.194c-1.164,1.748,1.243,3.146,0.378,4.255
	c-0.865,1.095-2.109,1.659-2.438,2.933c-0.732,2.832,0.896,6.779,0.896,6.779s4.523-7.408,5.206-7.14
	c3.381,1.37,2.801,0.587,6.039-2.832c1.582-1.667,3.453-5.292,3.453-5.292s1.116,1.769,1.162,3.381
	c0.04,1.612-1.43,2.445-1.54,5.136c-0.048,1.125,0.913,4.756,1.7,5.213c0.778,0.465,1.296,0,1.942,0.321
	c0.653,0.324-0.881,8.692-1.921,9.793c-1.044,1.111,5.309-2.698,7.473-9.003c0.536-1.243,0.968-0.646,1.762-0.944
	c0.307-0.118,1.611-4.075-1.88-10.54c-0.738-1.344-0.991-3.554,0.118-2.146c1.109,1.401,7.377,5.033,9.099,5.033
	c0.778,0,1.516-0.62,1.956-0.527c4.162,0.912,3.839,4.815,4.494,6.024c1.365-2.758,1.303-2.862,1.43-3.286
	c1.368-4.43,0.33-5.788-4.104-7.363c-0.323-0.706,0.132-1.233-0.711-2.672c-3.977-2.855-8.822-4.011-9.49-4.483
	c-0.723-0.519,0.16-1.077,1.942-1.496c1.777-0.407,4.578-2.493,5.488-3.544c2.904-3.359,8.702-3.453,9.494-0.426
	c0.802,3.029,1.338-3.798-1.564-5.167c-2.91-1.351-6.417-1.698-7.559-1.053c-1.887,1.068-4.435-0.745-5.6-0.685
	c-1.88,0.101-7.375,6.046-8.453,6.252c-1.078,0.204-5.011-3.695-6.7-5.553c-4.176-4.576-10.285-11.968-10.285-11.968
	s2.452-1.817,4.269-3.64c-12.763-13.668-13.95-19.51-13.315-20.173c1.597-1.698,22.304,13.922,30.994,18.765
	c7.456,4.143,26.299,16.271,36.262,5.677c2.054-2.186,1.801-3.482-0.031-4.653c-12.71-8.165-39.581-26.44-48.713-32.859
	C269.3,209.267,265.627,204.935,271.785,207.285"/>
<path fill="#E04145" d="M223.104,75.881c-0.172,0-13.857,5.85-15.09,6.78c-2.377-2.044-9.296-8.203-10.092-8.904v-0.061
	c0,0-0.007,0.007-0.032,0.031c-0.023-0.024-0.038-0.031-0.038-0.031v0.061c-0.779,0.701-7.706,6.86-10.082,8.904
	c-1.235-0.93-14.917-6.78-15.099-6.78c0,0,3.845,5.741,6.236,9.689c2.437,4.042,1.894,9.556,1.894,9.556h34.17
	c0,0-0.532-5.514,1.902-9.556C219.268,81.622,223.104,75.881,223.104,75.881"/>
<path fill="#FFFFFF" d="M186.702,112.403c0.054,1.339,1.635,6.134,1.635,6.134l8.816-7.125
	C197.153,111.411,192.293,109.745,186.702,112.403"/>
<path fill="#FFFFFF" d="M256.945,168.31c9.861-8.666,6.614-15.926,6.614-15.926h-0.024c0,0-7.66,2.094-8.086,15.204
	c-7.739-6.144-13.275-4.683-13.275-4.683l-0.007,0.018c0,0,1.714,5.134,11.92,7.061c-10.747,18.853-20.94,21.344-28.758,22.728
	c-0.038,0.7,0.261,1.401,0,4.168c6.189,0,18.929-4.624,30.664-25.984c7.871,6.559,13.014,4.72,13.014,4.72l0.015-0.017
	C269.023,175.599,266.626,170.377,256.945,168.31"/>
<path fill="#FFFFFF" d="M182.084,179.564c0.292,8.745,1.195,16.333,2.438,22.884c2.768,14.472,7.236,23.828,10.632,29.28
	c2.352,3.766,3.986,5.654,4.342,6.039v0.079c0,0,0.015-0.015,0.039-0.04c0.015,0.024,0.032,0.04,0.032,0.04s0-0.033,0.007-0.088
	c0.371-0.41,2-2.287,4.333-6.031c3.398-5.452,7.873-14.808,10.634-29.28c1.25-6.551,2.146-14.139,2.437-22.884
	C216.868,179.689,182.195,179.689,182.084,179.564"/>
<path fill="#FFFFFF" d="M173.734,192.713c-7.818-1.384-17.995-3.876-28.752-22.728c10.198-1.927,11.914-7.061,11.914-7.061
	l-0.009-0.018c0,0-5.535-1.461-13.276,4.683c-0.423-13.11-8.082-15.204-8.082-15.204h-0.025c0,0-3.24,7.26,6.622,15.926
	c-9.689,2.067-12.08,7.289-12.08,7.289v0.017c0,0,5.152,1.839,13.024-4.72c11.733,21.36,24.474,25.984,30.663,25.984
	C173.473,194.114,173.781,193.413,173.734,192.713"/>
<polygon fill="#E04145" points="197.907,212.39 197.907,203.707 207.942,203.707 207.942,199.131 197.907,199.131 197.907,191.8 
	207.863,191.8 207.863,187.239 191.145,187.239 191.145,216.96 209.155,216.96 209.155,212.39 "/>
</svg>
