<?xml version="1.0" encoding="utf-8"?>
<!-- Generator: Adobe Illustrator 19.1.0, SVG Export Plug-In . SVG Version: 6.00 Build 0)  -->
<svg version="1.1" id="Layer_1" xmlns="http://www.w3.org/2000/svg" xmlns:xlink="http://www.w3.org/1999/xlink" x="0px" y="0px"
	 viewBox="0 0 400 400" enable-background="new 0 0 400 400" xml:space="preserve">
<g>
	<path fill="#FFFFFF" d="M199.251,394.566c-41.346,0-80.747-12.76-114.092-36.927H6.373l29.701-51.541
		C15.441,274.476,4.556,237.836,4.556,199.867c0-52.004,20.252-100.896,57.026-137.669c36.773-36.774,85.666-57.026,137.67-57.026
		c40.6,0,79.424,12.347,112.419,35.732h81.368l-30.489,52.913c20.557,31.58,31.4,68.157,31.4,106.051
		c0,52.006-20.253,100.898-57.026,137.673C300.148,374.312,251.257,394.566,199.251,394.566z"/>
	<path d="M354.94,94.062l26.904-46.688h-72.252c-31.005-22.473-69.121-35.732-110.341-35.732
		c-103.952,0-188.225,84.273-188.225,188.225c0,39.307,12.055,75.794,32.66,105.981L17.568,351.17h69.707
		c31.294,23.198,70.03,36.927,111.976,36.927c103.954,0,188.23-84.276,188.23-188.23C387.48,160.637,375.471,124.214,354.94,94.062z
		"/>
	<path fill="#FFFFFC" d="M199.251,373.009c95.622,0,173.142-77.52,173.142-173.142c0-95.621-77.52-173.139-173.142-173.139
		c-95.62,0-173.139,77.518-173.139,173.139C26.112,295.489,103.631,373.009,199.251,373.009z"/>
	<path fill="#129C49" d="M199.251,360.836c88.899,0,160.969-72.07,160.969-160.969c0-88.897-72.07-160.966-160.969-160.966
		c-88.897,0-160.966,72.069-160.966,160.966C38.285,288.766,110.353,360.836,199.251,360.836z"/>
	<path fill="#FFFFFF" d="M303.332,162.02c9.389-16.293,59.852-103.863,59.852-103.863h-84.21l-61.491,102.994
		c0.152-1.942,0.235-3.941,0.235-6.016c0-48.555-39.502-88.057-88.057-88.057s-88.058,39.502-88.058,88.057
		c0,19.995,6.889,39.572,19.399,55.124c9.316,11.583,21.468,20.626,35.08,26.265L36.228,340.387h84.216l61.47-102.962
		c-0.142,1.943-0.216,3.935-0.216,5.984c0,48.554,39.502,88.056,88.057,88.056c48.554,0,88.057-39.502,88.057-88.056
		c0-19.995-6.89-39.572-19.398-55.124C329.098,176.701,316.944,167.658,303.332,162.02z M129.66,173.33
		c-10.033,0-18.194-8.163-18.194-18.196c0-10.033,8.161-18.195,18.194-18.195s18.194,8.162,18.194,18.195
		C147.855,165.167,139.693,173.33,129.66,173.33z M269.754,261.603c-10.034,0-18.196-8.162-18.196-18.195
		c0-10.032,8.162-18.194,18.196-18.194c10.034,0,18.197,8.162,18.197,18.194C287.952,253.441,279.788,261.603,269.754,261.603z"/>
	<path d="M206.935,155.134c0-42.677-34.599-77.274-77.275-77.274c-42.678,0-77.275,34.597-77.275,77.274
		c0,36.623,25.486,67.274,59.684,75.241c-8.098,14.05-24.389,42.325-57.183,99.228h59.435l74.478-124.753
		C199.48,185.717,206.935,174.074,206.935,155.134z M100.682,155.134c0-16.003,12.974-28.978,28.978-28.978
		c16.003,0,28.978,12.975,28.978,28.978s-12.975,28.979-28.978,28.979C113.656,184.113,100.682,171.138,100.682,155.134z"/>
	<path d="M192.48,243.409c0,42.675,34.599,77.273,77.275,77.273c42.677,0,77.275-34.598,77.275-77.273
		c0-36.623-25.487-67.274-59.683-75.239c8.097-14.053,24.389-42.325,57.18-99.229h-59.432l-74.48,124.753
		C199.707,211.051,192.48,224.471,192.48,243.409z M298.735,243.409c0,16.002-12.975,28.978-28.98,28.978
		c-16.003,0-28.979-12.976-28.979-28.978s12.975-28.977,28.979-28.977C285.759,214.431,298.735,227.407,298.735,243.409z"/>
</g>
</svg>
