<?xml version="1.0" encoding="utf-8"?>
<!-- Generator: Adobe Illustrator 19.1.0, SVG Export Plug-In . SVG Version: 6.00 Build 0)  -->
<svg version="1.1" id="Layer_1" xmlns="http://www.w3.org/2000/svg" xmlns:xlink="http://www.w3.org/1999/xlink" x="0px" y="0px"
	 viewBox="0 0 400 400" enable-background="new 0 0 400 400" xml:space="preserve">
<path fill="#25408F" d="M8.769,200.166c0,104.903,85.362,190.253,190.271,190.253c104.907,0,190.266-85.35,190.266-190.253
	c0-104.915-85.359-190.271-190.266-190.271C94.131,9.895,8.769,95.251,8.769,200.166z"/>
<path fill="#FFFFFF" d="M58.859,105.384l-8.255-5.218l2.629-4.16l21.342,13.49l-2.629,4.16l-9.471-5.987l-5.704,9.023l9.471,5.987
	l-2.629,4.159l-21.342-13.49l2.629-4.16l8.255,5.218L58.859,105.384z"/>
<path fill="#FFFFFF" d="M75.951,76.316l3.915,4.008l6.228-6.084l2.989,3.06l-6.228,6.083l4.761,4.875l6.472-6.321l2.989,3.06
	l-9.992,9.76L69.443,76.694l9.992-9.759l2.989,3.06L75.951,76.316z"/>
<path fill="#FFFFFF" d="M108.656,59.372l-4.019-6.505l1.289-0.796c2.608-1.611,4.701-1.391,5.995,0.702
	c1.332,2.158,0.632,4.193-2.041,5.844L108.656,59.372z M114.961,58.991c1.161-1.073,1.683-1.885,2.09-3.026
	c0.62-1.807,0.258-4.12-0.956-6.084c-1.174-1.9-3.113-3.238-5.11-3.517c-1.808-0.262-4.026,0.396-6.41,1.868l-6.215,3.839
	l13.27,21.481l4.187-2.587l-5.332-8.63l0.547-0.338l11.128,5.049l5.153-3.183L114.961,58.991z"/>
<path fill="#FFFFFF" d="M145.763,55.996l-6.951-19.785l-5.321,1.87l-1.418-4.035l15.321-5.383l1.418,4.036l-5.357,1.881
	l6.951,19.785L145.763,55.996z"/>
<path fill="#FFFFFF" d="M186.001,31.458l-1.05-9.709l4.893-0.529l2.714,25.102l-4.893,0.529l-1.204-11.139l-10.613,1.147
	l1.204,11.139l-4.893,0.53l-2.713-25.103l4.893-0.529l1.049,9.71L186.001,31.458z"/>
<path fill="#FFFFFF" d="M226.402,39.464l-7.117-1.041l4.949-8.458L226.402,39.464z M227.362,43.621l1.365,5.593l5.205,0.761
	l-6.757-27.04l-3.67-0.537L208.95,46.323l5.169,0.756l3.018-4.952L227.362,43.621z"/>
<path fill="#FFFFFF" d="M283.384,54.394l3.381-5.607l1.266,0.763c2.106,1.271,2.622,2.909,1.525,4.724
	c-1.135,1.88-2.803,2.155-4.975,0.845L283.384,54.394z M271.562,64.46l7.293,4.4c2.398,1.447,4.427,1.965,6.376,1.593
	c1.898-0.359,3.557-1.569,4.612-3.319c0.938-1.555,1.275-3.431,0.888-4.99c-0.25-1.124-0.733-1.858-1.996-3.063
	c1.156-0.01,1.686-0.087,2.336-0.357c0.956-0.485,1.966-1.423,2.669-2.59c1.075-1.782,1.347-3.918,0.715-5.581
	c-0.575-1.54-2.005-2.979-4.502-4.485l-5.345-3.226L271.562,64.46z M277.83,63.599l3.617-5.996l1.588,0.959
	c1.749,1.056,2.354,1.596,2.803,2.532c0.53,1.027,0.444,2.123-0.22,3.226c-0.587,0.972-1.674,1.599-2.672,1.571
	c-0.936,0.01-1.94-0.375-3.301-1.196L277.83,63.599z"/>
<path fill="#FFFFFF" d="M322.883,79.067c0.068-1.929-0.381-3.205-1.445-4.23c-1.528-1.47-3.486-1.675-4.588-0.53
	c-0.944,0.981-0.816,2.103,0.548,4.942c1.308,2.68,1.731,3.823,1.865,5.319c0.197,1.924-0.518,3.758-2.094,5.393
	c-3.387,3.517-8.342,3.475-12.021-0.07c-2.699-2.6-3.638-5.554-2.961-9.528l4.415-0.002c-0.703,2.369-0.155,4.527,1.534,6.155
	c1.582,1.523,3.804,1.563,5.223,0.09c0.736-0.763,1.01-1.759,0.748-2.906c-0.143-0.559-0.536-1.569-1.454-3.399
	c-2.172-4.403-2.082-6.788,0.334-9.295c2.863-2.972,7.469-2.844,10.687,0.256c1.99,1.917,3.161,4.358,3.399,7.164L322.883,79.067z"
	/>
<path fill="#FFFFFF" d="M348.719,114.6c0.569-2.807,0.298-4.753-0.983-6.72c-2.517-3.872-7.704-4.834-11.765-2.192
	c-4.284,2.786-5.38,7.698-2.675,11.855c1.216,1.872,2.833,2.899,5.556,3.475l-4.856,3.158c-2.106-1.295-3.444-2.59-4.6-4.368
	c-4.088-6.283-2.443-14.307,3.778-18.352c6.155-4.003,14.336-2.188,18.4,4.063c1.156,1.777,1.746,3.516,2.002,5.924L348.719,114.6z"
	/>
<path fill="#FFFFFF" d="M112.964,340.405l3.331-5.638l1.271,0.751c2.118,1.251,2.649,2.884,1.571,4.709
	c-1.117,1.89-2.783,2.181-4.967,0.891L112.964,340.405z M101.238,350.581l7.333,4.332c2.412,1.424,4.447,1.923,6.392,1.533
	c1.893-0.375,3.54-1.601,4.58-3.361c0.924-1.566,1.242-3.444,0.842-4.999c-0.261-1.12-0.753-1.852-2.027-3.043
	c1.156-0.021,1.688-0.103,2.335-0.38c0.95-0.493,1.951-1.442,2.643-2.614c1.059-1.792,1.311-3.93,0.663-5.588
	c-0.588-1.534-2.033-2.96-4.542-4.442l-5.378-3.176L101.238,350.581z M107.496,349.661l3.562-6.03l1.597,0.943
	c1.76,1.04,2.368,1.575,2.828,2.507c0.54,1.022,0.463,2.12-0.191,3.227c-0.578,0.979-1.658,1.616-2.658,1.597
	c-0.935,0.019-1.944-0.357-3.312-1.166L107.496,349.661z"/>
<path fill="#FFFFFF" d="M148.929,350.332l-1.721,5.333l8.285,2.674l-1.313,4.07l-8.286-2.674l-2.092,6.484l8.61,2.778l-1.314,4.071
	l-13.293-4.29l7.754-24.028l13.293,4.29l-1.313,4.071L148.929,350.332z"/>
<path fill="#FFFFFF" d="M180.886,364.805l0.689-7.615l1.508,0.136c3.054,0.277,4.597,1.709,4.375,4.159
	c-0.228,2.525-2.01,3.733-5.138,3.45L180.886,364.805z M186.158,368.285c1.573-0.162,2.477-0.499,3.488-1.168
	c1.58-1.073,2.679-3.14,2.887-5.44c0.201-2.224-0.547-4.458-1.977-5.88c-1.289-1.294-3.459-2.099-6.249-2.351l-7.276-0.658
	l-2.273,25.145l4.901,0.444l0.913-10.104l0.641,0.058l5.872,10.718l6.032,0.545L186.158,368.285z"/>
<path fill="#FFFFFF" d="M219.973,373.871l7.704-0.928l0.512,4.247l-12.59,1.516l-3.018-25.068l4.886-0.588L219.973,373.871z"/>
<path fill="#FFFFFF" d="M254.384,370.699l-4.701,1.452l-7.451-24.125l4.701-1.451L254.384,370.699z"/>
<path fill="#FFFFFF" d="M265.088,339.18l2.955-1.697l22.073,7.573l-8.467-14.737l4.269-2.452l12.823,22.319l-2.955,1.697
	l-22.073-7.573l8.503,14.802l-4.266,2.452L265.088,339.18z"/>
<path fill="#FFFFFF" d="M59.026,200.166c0,77.19,62.812,139.993,140.014,139.993c77.202,0,140.014-62.803,140.014-139.993
	c0-77.208-62.812-140.014-140.014-140.014C121.838,60.152,59.026,122.958,59.026,200.166z"/>
<path d="M68.471,200.166c0,71.994,58.575,130.563,130.569,130.563c71.986,0,130.561-58.569,130.561-130.563
	c0-72-58.575-130.569-130.561-130.569C127.046,69.597,68.471,128.166,68.471,200.166z M74.775,200.166
	c0-68.532,55.739-124.271,124.265-124.271c68.521,0,124.266,55.739,124.266,124.271c0,68.511-55.745,124.262-124.266,124.262
	C130.514,324.429,74.775,268.677,74.775,200.166z"/>
<path fill="#25408F" d="M161.465,193.755l3.685-0.271l2.979,40.372l-3.691,0.271l-1.43-19.398l-5.535,0.408l1.43,19.401
	l-3.694,0.268l-2.973-40.366l3.694-0.274l1.317,17.84l5.532-0.414L161.465,193.755z"/>
<path fill="#25408F" d="M180.312,217.64l-4.588,0.334l-0.545-7.436c-0.164-2.234,0.67-3.149,2.065-3.241
	c1.4-0.101,2.357,0.673,2.52,2.908L180.312,217.64z M181.194,229.601c0.164,2.231-0.67,3.14-2.071,3.247
	c-1.388,0.095-2.348-0.676-2.508-2.911l-0.658-8.834l8.053-0.593l-0.778-10.567c-0.343-4.642-3.227-5.667-6.197-5.449
	c-2.958,0.226-5.667,1.659-5.324,6.301l1.436,19.401c0.337,4.636,3.227,5.667,6.194,5.449c2.958-0.221,5.667-1.656,5.324-6.298
	l-0.322-4.311l-3.471,0.259L181.194,229.601z"/>
<path fill="#25408F" d="M187.412,206.348l3.241-0.241l0.152,2.127l0.116-0.012c0.935-1.692,2.276-2.64,4.457-2.798l0.253,3.465
	c-3.352,0.247-4.43,1.615-4.198,4.806l1.686,22.866l-3.471,0.259L187.412,206.348z"/>
<path fill="#25408F" d="M210.21,203.846l3.465-0.259l0.888,11.974l0.104-0.012c0.581-1.335,1.945-2.562,3.739-2.693
	c2.747-0.206,4.183,1.826,4.374,4.287l1.922,26.221l-3.462,0.259l-1.829-24.88c-0.125-1.621-0.834-2.756-2.398-2.64
	c-1.615,0.122-2.279,1.743-2.196,2.979l1.826,24.877l-3.462,0.253L210.21,203.846z"/>
<path fill="#25408F" d="M237.122,234.97c0.149,2.014-0.652,3.197-2.163,3.307c-1.85,0.137-2.273-1.013-2.44-3.194l-0.509-6.93
	c-0.179-2.577,2.556-3.501,4.344-3.644L237.122,234.97z M236.15,221.721c-5.482,0.402-7.901,2.661-7.624,6.465l0.611,8.267
	c0.232,3.087,1.829,4.928,4.511,4.734c2.071-0.155,3.021-1.016,3.888-2.255l0.104-0.006l0.128,1.621l3.241-0.238l-1.88-25.494
	c-0.286-3.924-2.407-5.166-5.768-4.919c-3.179,0.238-5.67,2.324-5.437,5.455l0.262,3.581l3.465-0.253l-0.211-2.851
	c-0.125-1.796,0.063-2.985,2.029-3.125c1.382-0.107,2.059,0.569,2.196,2.422L236.15,221.721z"/>
<path fill="#25408F" d="M249.933,217.941l-1.087-14.709l2.071-0.152c1.901-0.137,3.158,0.164,3.337,2.515l0.655,9.057
	c0.179,2.401-0.781,2.976-2.523,3.104L249.933,217.941z M247.907,240.744l6.876-0.507c3.685-0.271,5.818-1.043,5.524-5.071
	l-0.93-12.638c-0.212-2.792-1.892-3.51-4.469-3.438l-0.009-0.116c2.839-0.316,3.939-1.519,3.694-4.657l-0.748-10.225
	c-0.298-4.028-2.526-4.484-6.042-4.225l-6.876,0.507L247.907,240.744z M251.36,237.342l-1.195-16.27l2.452-0.179
	c1.731-0.134,2.947,0.289,3.095,2.243l0.813,11.068c0.167,2.357-1.025,2.836-2.926,2.973L251.36,237.342z"/>
<path fill="#25408F" d="M271.059,206.804c-0.116-1.564-0.602-2.711-2.324-2.577c-1.743,0.125-2.05,1.329-1.925,2.887l0.307,4.251
	c0.095,1.293,0.414,2.568,1.111,3.581l6.599,9.626c0.95,1.338,1.573,3.042,1.722,4.823l0.465,6.373
	c0.274,3.801-1.805,6.096-5.491,6.364c-4.079,0.301-6.179-1.4-6.477-5.482l-0.411-5.535l3.685-0.268l0.402,5.306
	c0.128,1.898,0.95,2.964,2.568,2.848c1.51-0.116,2.154-1.284,2.017-3.185l-0.423-5.652c-0.095-1.388-0.465-2.434-1.353-3.769
	l-6.114-9.063c-1.132-1.654-1.788-2.952-1.945-5.026l-0.358-4.859c-0.286-3.971,1.636-6.078,5.387-6.352
	c4.129-0.307,5.956,1.531,6.23,5.217l0.381,5.142l-3.697,0.271L271.059,206.804z"/>
<path fill="#25408F" d="M287.871,211.571c-0.125-1.722-0.801-2.518-2.258-2.413c-1.46,0.107-2.008,0.992-1.88,2.726l2.187,29.635
	c0.125,1.734,0.801,2.526,2.258,2.413c1.448-0.104,2.008-0.992,1.88-2.717l-0.423-5.652l3.697-0.274l0.423,5.762
	c0.241,3.411-1.49,5.729-5.345,6.018c-3.864,0.28-5.926-1.758-6.179-5.163l-2.196-29.858c-0.253-3.417,1.49-5.735,5.345-6.027
	c3.864-0.28,5.926,1.761,6.167,5.175l0.39,5.309l-3.685,0.268L287.871,211.571z"/>
<path fill="#25408F" d="M203.205,205.109l-3.459,0.259l0.739,10.138l-1.731,0.125l0.206,2.795l1.731-0.122l1.77,23.929
	c0.17,2.348,1.618,3.647,4.523,3.426l1.686-0.122l-0.212-2.792l-0.733,0.051c-1.001,0.075-1.753-0.211-1.857-1.609l-1.707-23.143
	l2.456-0.185l-0.206-2.798l-2.456,0.191L203.205,205.109z"/>
<path fill="#25408F" d="M124.171,127.037l-0.104,0.021l0.054,0.104c4.341,7.773,15.004,28.944,20.283,57.509l0.015,0.083
	l0.086-0.021c4.922-1.204,22.547-4.731,43.044,0.45c10.624,2.687,16.27,4.383,20.01,5.512c5.083,1.543,6.298,1.907,11.777,2.22
	c0.012,0,0.667-0.021,0.667-0.021c13.159-0.503,44.072-1.647,47.01-1.647c3.581,0,11.449,0.512,23.921,3.998l0.095,0.024
	l0.012-0.098c0.2-3.247,0.316-6.444,0.316-9.507c0-22.86-5.619-35.724-7.35-39.115c-9.349-3.766-17.479-4.484-22.327-4.91
	c-1.987-0.176-3.411-0.301-4.448-0.566c-2.249-0.477-21.924-0.033-39.3,0.629c-1.934,0.363-12.868,1.636-39.747-9.954
	C156.856,122.535,133.308,125.39,124.171,127.037z"/>
<path fill="#25408F" d="M124.162,126.957l-0.232,0.036l0.11,0.206c4.347,7.779,15.01,28.941,20.28,57.485l0.03,0.179l0.182-0.042
	c4.904-1.207,22.52-4.737,42.997,0.444c10.624,2.681,16.27,4.385,20.004,5.518c5.098,1.54,6.313,1.907,11.804,2.217
	c0.012,0,0.667-0.03,0.667-0.03c13.159-0.492,44.072-1.648,47.01-1.648c3.581,0,11.437,0.527,23.891,4.013l0.211,0.051l0.009-0.209
	c0.211-3.253,0.307-6.45,0.307-9.513c0-22.881-5.628-35.751-7.35-39.151l-0.033-0.06l-0.063-0.021
	c-9.316-3.733-17.438-4.445-22.297-4.88c-1.996-0.179-3.399-0.295-4.436-0.554c-2.249-0.48-21.936-0.042-39.32,0.614
	c-1.943,0.378-12.862,1.636-39.711-9.945C156.865,122.458,133.296,125.303,124.162,126.957z"/>
<path fill="#25408F" d="M124.162,126.957l-0.232,0.036l0.11,0.206c4.347,7.779,15.01,28.941,20.28,57.485l0.03,0.179l0.182-0.042
	c4.904-1.207,22.52-4.737,42.997,0.444c10.624,2.681,16.27,4.385,20.004,5.518c5.098,1.54,6.313,1.907,11.804,2.217
	c0.012,0,0.667-0.03,0.667-0.03c13.159-0.492,44.072-1.648,47.01-1.648c3.581,0,11.437,0.527,23.891,4.013l0.211,0.051l0.009-0.209
	c0.211-3.253,0.307-6.45,0.307-9.513c0-22.881-5.628-35.751-7.35-39.151l-0.033-0.06l-0.063-0.021
	c-9.316-3.733-17.438-4.445-22.297-4.88c-1.996-0.179-3.399-0.295-4.436-0.554c-2.249-0.48-21.936-0.042-39.32,0.614
	c-1.943,0.378-12.862,1.636-39.711-9.945C156.865,122.458,133.296,125.303,124.162,126.957z"/>
<path fill="#25408F" d="M178.152,131.819c-21.206-9.149-44.489-6.408-53.963-4.698c3.992,7.144,14.965,28.649,20.298,57.536
	c5.467-1.344,22.768-4.689,43.083,0.444c10.615,2.675,16.27,4.388,20.009,5.518c5.062,1.531,6.298,1.901,11.768,2.208
	c2.872-0.107,44.254-1.668,47.665-1.668c3.739,0,11.595,0.56,23.932,4.013c0.232-3.334,0.328-6.513,0.328-9.507
	c0-23.059-5.789-36.013-7.341-39.073c-9.221-3.697-17.354-4.436-22.252-4.868c-1.987-0.176-3.423-0.301-4.469-0.56
	c-2.24-0.48-21.862-0.042-39.279,0.614C215.829,142.181,204.921,143.363,178.152,131.819z"/>
<path d="M135.59,248.865c-0.971,0.915-1.919,1.674-2.663,2.05c-3.605,1.799-6.453,6.843-6.453,13.052
	c0,2.029,0.307,4.183,0.995,6.391c2.196,7.094,9.566,9.811,13.392,10.764l4.651,28.506l4.96-0.813l-4.29-26.256
	c3.504,1.233,9.03,3.563,12.632,7.013c1.898,1.799,2.473,4.335,2.473,6.754c0,3.691-1.347,7.109-1.388,7.198h-0.012
	c-0.682,1.719-0.191,3.548,1.087,4.07c1.278,0.512,2.884-0.453,3.566-2.163c0.215-0.509,5.026-12.534-2.267-19.499
	c-5.407-5.175-13.952-8.047-17.003-8.944l-4.314-26.399c1.135-1.215,2.074-2.345,2.64-3.036c10.398-1.442,33.538-3.313,42.157,1.901
	c0.76,0.438,18.12,10.335,36.53,2.967c13.15-5.261,40.548-1.278,40.822-1.242c0.149,0.021,13.457,2.044,30.335,11.953l2.809,1.642
	l1.308-2.756c4.955-10.812,6.685-21.04,6.685-30.04c0-17.926-6.831-30.961-8.649-34.107c0.349-4.365,0.518-8.488,0.518-12.328
	c0-27.803-8.059-41.534-8.452-42.183l-0.432-0.7l-0.751-0.322c-10.275-4.278-19.21-5.065-24.555-5.542
	c-1.627-0.137-3.021-0.268-3.697-0.432c-3.432-0.855-32.149,0.152-40.873,0.492h-0.223l-0.253,0.057
	c-0.092,0.021-10.052,1.969-36.92-9.626c-22.449-9.674-46.36-6.966-56.57-5.101c-0.009-0.203-0.015-0.393-0.051-0.587l0,0
	c-0.456-2.187-2.598-3.59-4.785-3.143l-4.463,0.924c-2.187,0.45-3.59,2.595-3.143,4.782c0.459,2.184,2.598,3.59,4.785,3.14
	L135.59,248.865z M132.263,268.862c-2.148-6.918,0.706-12.355,2.911-13.454c0.438-0.226,0.891-0.501,1.35-0.822l3.438,21.022
	C137.056,274.573,133.413,272.571,132.263,268.862z M139.857,243.836L121.892,133.91
	C130.15,150.028,148.902,193.755,139.857,243.836z M123.998,127.198c9.468-1.716,32.757-4.451,53.963,4.695
	c26.766,11.551,37.68,10.377,39.78,9.966c17.417-0.655,37.041-1.099,39.279-0.623c1.046,0.265,2.482,0.384,4.469,0.566
	c4.91,0.432,13.031,1.177,22.243,4.862c1.561,3.063,7.35,16.017,7.35,39.073c0,3.006-0.104,6.173-0.316,9.501
	c-12.346-3.444-20.205-4.01-23.944-4.01c-3.411,0-44.793,1.564-47.665,1.674c-5.47-0.301-6.706-0.679-11.762-2.211
	c-3.746-1.126-9.397-2.83-20.009-5.521c-20.328-5.133-37.622-1.785-43.086-0.438C138.963,155.847,127.984,134.339,123.998,127.198z
	 M293.954,257.651c-16.803-9.429-29.572-11.363-30.132-11.443c-1.162-0.173-28.991-4.213-43.408,1.549
	c-16.089,6.441-31.947-2.535-32.111-2.625c-10.061-6.09-33.386-4.034-43.08-2.857c3.084-18.811,2.413-36.687-0.074-52.572
	c4.478-1.108,21.445-4.603,41.001,0.34c10.502,2.655,16.091,4.341,19.791,5.464c5.286,1.597,6.871,2.083,13.047,2.413l0.107,0.012
	l0.125-0.012c0.435-0.009,44.233-1.662,47.603-1.662c3.664,0,11.649,0.587,24.555,4.383c1.743,3.173,7.731,15.272,7.731,31.559
	C299.108,239.913,297.735,248.564,293.954,257.651z"/>
</svg>
