<?xml version="1.0" encoding="utf-8"?>
<!-- Generator: Adobe Illustrator 19.1.0, SVG Export Plug-In . SVG Version: 6.00 Build 0)  -->
<svg version="1.1" id="Layer_1" xmlns="http://www.w3.org/2000/svg" xmlns:xlink="http://www.w3.org/1999/xlink" x="0px" y="0px"
	 viewBox="0 0 400 400" enable-background="new 0 0 400 400" xml:space="preserve">
<path fill="#0260AA" d="M200.941,391.293c-7.001-9.293-19.202-14.996-34.452-19.836l0,0c-15.222-4.854-33.332-8.87-51.798-15.316
	l0,0c-36.917-12.825-75.435-35.833-94.559-94.711l0,0l-0.46-1.409l1.091-1.003c0,0,0.185-0.17,0.564-0.533l0,0
	c0.379-0.362,0.938-0.907,1.653-1.623l0,0c1.432-1.434,3.486-3.556,5.953-6.294l0,0c4.934-5.478,11.525-13.416,18.107-23.216l0,0
	c13.176-19.606,26.25-46.628,26.237-76.224l0,0c0.06-43.559-28.84-79.912-32.38-84.116l0,0c-0.234-0.281-0.344-0.408-0.344-0.41l0,0
	l-1.042-1.204l21.828-40.301l2.028,1.102c0.002,0,0.338,0.184,1.042,0.535l0,0c0.704,0.353,1.752,0.86,3.107,1.469l0,0
	c2.711,1.222,6.651,2.857,11.523,4.493l0,0c9.746,3.275,23.218,6.541,38.022,6.538l0,0c51.496,0.008,80.511-26.588,83.765-29.732
	l0,0c0.216-0.208,0.301-0.296,0.301-0.296l0,0l1.651-1.696l1.653,1.696c0,0,0.085,0.088,0.299,0.296l0,0
	c0.216,0.208,0.546,0.522,0.991,0.925l0,0c0.887,0.806,2.231,1.97,4.024,3.374l0,0c3.582,2.808,8.951,6.573,16.041,10.34l0,0
	c14.187,7.537,35.229,15.092,62.71,15.094l0,0c25.909,0.016,47.729-10.03,52.653-12.5l0,0c0.704-0.351,1.04-0.535,1.04-0.535l0,0
	l2.028-1.102l21.83,40.301l-1.042,1.204c-0.002,0.003-0.481,0.556-1.37,1.672l0,0c-0.889,1.118-2.166,2.777-3.702,4.919l0,0
	c-3.073,4.284-7.18,10.498-11.283,18.172l0,0c-8.213,15.352-16.378,36.53-16.371,59.762l0,0
	c-0.11,55.495,46.216,101.946,51.951,107.357l0,0c0.378,0.362,0.563,0.533,0.563,0.533l0,0l1.089,1.003l-0.458,1.409
	c-14.351,44.121-39.588,68.187-66.902,82.775l0,0c-27.301,14.604-56.617,19.96-79.457,27.252l0,0
	c-15.249,4.84-27.45,10.542-34.45,19.836l0,0l-1.838,2.424L200.941,391.293L200.941,391.293z"/>
<path fill="#FFFFFF" d="M354.692,229.921c-13.454-20.045-27.008-47.816-27.022-78.793c0.065-43.654,27.184-79.302,32.827-86.295
	l-8.834-16.309L96.212,343.667c24.51,11.618,50.438,16.647,71.677,23.397c14.366,4.592,26.727,9.978,34.889,19.208
	c8.161-9.23,20.522-14.616,34.89-19.208c15.518-4.939,33.532-8.935,51.676-15.276c36.003-12.648,72.34-34.079,91.243-90.414
	C377.127,258.014,365.922,246.641,354.692,229.921z"/>
<path fill="#FFFFFF" d="M134.491,281.008l-21.071-18.237l-6.513,7.525l-4.29-3.713l17.443-20.154l4.29,3.713l-6.498,7.508
	l21.071,18.237L134.491,281.008z"/>
<path fill="#FFFFFF" d="M138.915,259.22l3.828-5.401c1.932,1.148,3.687,1.602,5.264,1.364c1.578-0.238,3.04-1.136,4.388-2.692
	c1.428-1.65,2.154-3.193,2.18-4.634c0.026-1.44-0.428-2.564-1.362-3.373c-0.599-0.519-1.262-0.785-1.987-0.797
	c-0.725-0.012-1.623,0.285-2.693,0.892c-0.727,0.42-2.279,1.467-4.656,3.142c-3.056,2.156-5.559,3.358-7.509,3.607
	c-2.743,0.35-5.118-0.344-7.125-2.082c-1.291-1.118-2.183-2.529-2.673-4.235c-0.491-1.705-0.434-3.502,0.171-5.389
	c0.604-1.887,1.75-3.805,3.437-5.754c2.755-3.184,5.527-4.976,8.314-5.376c2.788-0.401,5.382,0.366,7.781,2.301l-4.207,5.316
	c-1.493-0.908-2.837-1.25-4.032-1.023c-1.195,0.227-2.416,1.061-3.664,2.502c-1.288,1.488-1.99,2.917-2.108,4.288
	c-0.077,0.882,0.213,1.607,0.871,2.176c0.6,0.519,1.333,0.71,2.199,0.571c1.101-0.176,3.024-1.256,5.768-3.238
	c2.744-1.983,4.947-3.298,6.609-3.948c1.662-0.65,3.329-0.84,5.003-0.572c1.674,0.269,3.313,1.097,4.916,2.484
	c1.453,1.258,2.465,2.839,3.034,4.745c0.57,1.905,0.525,3.863-0.136,5.874c-0.661,2.01-1.944,4.117-3.851,6.319
	c-2.775,3.206-5.647,5.027-8.616,5.463C145.09,262.185,142.042,261.342,138.915,259.22z"/>
<path fill="#FFFFFF" d="M169.625,221.572l-4.273-3.698l9.553-11.037l10.103,8.744c0.11,1.971-0.321,4.317-1.293,7.036
	c-0.972,2.719-2.361,5.123-4.168,7.21c-2.296,2.652-4.853,4.484-7.674,5.492c-2.82,1.009-5.694,1.113-8.623,0.313
	c-2.929-0.799-5.609-2.253-8.043-4.359c-2.641-2.286-4.509-4.871-5.604-7.754c-1.094-2.884-1.266-5.867-0.515-8.949
	c0.566-2.355,1.896-4.743,3.993-7.165c2.725-3.149,5.514-5.036,8.367-5.664c2.853-0.627,5.664-0.186,8.433,1.323l-3.451,5.909
	c-1.555-0.72-3.119-0.899-4.694-0.537c-1.574,0.363-3,1.282-4.278,2.757c-1.936,2.238-2.767,4.631-2.491,7.179
	c0.276,2.548,1.809,5.03,4.6,7.446c3.01,2.605,5.847,3.89,8.51,3.855c2.663-0.035,4.933-1.136,6.809-3.305
	c0.928-1.073,1.649-2.33,2.161-3.772c0.512-1.443,0.803-2.81,0.872-4.102l-3.218-2.785L169.625,221.572z"/>
<path fill="#FFFFFF" d="M210.947,192.672l-4.208,4.861l-18.32-15.856c0.123,3.214-0.46,6.37-1.75,9.469l-4.412-3.818
	c0.683-1.628,1.088-3.688,1.217-6.178c0.129-2.491-0.34-4.682-1.406-6.573l3.414-3.944L210.947,192.672z"/>
<path fill="#FFFFFF" d="M207.158,169.395c-1.618,0.799-3.139,1.081-4.562,0.848c-1.422-0.233-2.687-0.828-3.794-1.786
	c-1.891-1.637-2.883-3.649-2.974-6.038c-0.091-2.388,0.916-4.8,3.023-7.233c2.086-2.41,4.323-3.747,6.71-4.011
	c2.387-0.264,4.526,0.422,6.418,2.06c1.176,1.018,1.958,2.23,2.346,3.634c0.388,1.405,0.345,2.87-0.129,4.397
	c1.783-0.918,3.534-1.274,5.251-1.068c1.718,0.206,3.286,0.923,4.705,2.151c2.341,2.027,3.598,4.421,3.769,7.181
	c0.172,2.761-0.815,5.382-2.961,7.861c-1.997,2.307-4.264,3.703-6.802,4.189c-2.998,0.573-5.742-0.219-8.233-2.375
	c-1.372-1.188-2.338-2.618-2.897-4.292C206.47,173.238,206.513,171.399,207.158,169.395z M203.131,164.155
	c0.969,0.838,1.961,1.219,2.977,1.14c1.016-0.078,1.919-0.573,2.707-1.485c0.798-0.922,1.163-1.897,1.095-2.926
	c-0.069-1.027-0.587-1.961-1.556-2.799c-0.911-0.788-1.878-1.146-2.9-1.072c-1.022,0.074-1.922,0.56-2.701,1.46
	c-0.809,0.934-1.175,1.918-1.101,2.95C201.727,162.455,202.22,163.366,203.131,164.155z M213.606,174.007
	c1.338,1.158,2.679,1.718,4.022,1.681c1.344-0.037,2.46-0.569,3.348-1.596c0.869-1.003,1.227-2.146,1.075-3.427
	c-0.151-1.281-0.908-2.511-2.269-3.689c-1.187-1.028-2.432-1.519-3.732-1.474c-1.3,0.045-2.394,0.581-3.282,1.607
	c-1.028,1.188-1.385,2.427-1.07,3.718C212.013,172.119,212.648,173.179,213.606,174.007z"/>
<path fill="#FFFFFF" d="M228.512,160.526l3.554-5.155c1.057,0.714,2.026,1.027,2.906,0.942c0.881-0.085,1.665-0.525,2.354-1.321
	c0.869-1.003,1.146-2.256,0.832-3.758c-0.314-1.502-1.839-3.609-4.575-6.32c0.36,2.45-0.253,4.592-1.84,6.426
	c-1.727,1.995-3.987,3.05-6.779,3.165c-2.792,0.115-5.423-0.896-7.891-3.032c-2.571-2.226-3.984-4.784-4.235-7.675
	c-0.252-2.891,0.646-5.518,2.692-7.882c2.226-2.572,5.047-3.821,8.464-3.749c3.417,0.073,7.403,2.081,11.959,6.023
	c4.637,4.013,7.237,7.767,7.803,11.262c0.566,3.495-0.344,6.621-2.73,9.377c-1.716,1.984-3.632,3.13-5.745,3.439
	C233.167,162.577,230.911,161.996,228.512,160.526z M227.413,140.33c-1.569-1.357-3.097-2.05-4.586-2.078
	c-1.489-0.028-2.643,0.431-3.462,1.377c-0.778,0.9-1.07,1.953-0.875,3.161c0.195,1.208,1.1,2.511,2.715,3.908
	c1.638,1.417,3.12,2.135,4.445,2.153c1.326,0.018,2.409-0.457,3.247-1.426c0.809-0.934,1.121-2.041,0.937-3.32
	C229.651,142.826,228.844,141.568,227.413,140.33z"/>
<path fill="#FFFFFF" d="M245.569,140.819l3.554-5.155c1.057,0.714,2.026,1.027,2.906,0.942c0.881-0.085,1.665-0.525,2.354-1.321
	c0.869-1.003,1.146-2.256,0.832-3.758c-0.314-1.502-1.839-3.608-4.575-6.32c0.36,2.45-0.253,4.592-1.84,6.426
	c-1.727,1.995-3.987,3.05-6.779,3.165c-2.792,0.115-5.423-0.896-7.891-3.032c-2.571-2.226-3.983-4.784-4.235-7.675
	c-0.251-2.891,0.646-5.518,2.692-7.882c2.226-2.571,5.047-3.821,8.464-3.749c3.417,0.073,7.404,2.081,11.959,6.024
	c4.637,4.012,7.237,7.767,7.803,11.262c0.566,3.495-0.344,6.621-2.73,9.377c-1.716,1.984-3.632,3.13-5.745,3.439
	C250.223,142.87,247.968,142.289,245.569,140.819z M244.47,120.623c-1.568-1.357-3.097-2.05-4.586-2.078
	c-1.489-0.028-2.643,0.431-3.461,1.377c-0.779,0.9-1.07,1.953-0.875,3.161c0.195,1.208,1.1,2.511,2.715,3.908
	c1.638,1.417,3.12,2.135,4.445,2.153c1.326,0.018,2.409-0.458,3.247-1.426c0.809-0.934,1.121-2.041,0.937-3.32
	C246.708,123.119,245.9,121.861,244.47,120.623z"/>
<path fill="#0260AA" d="M171.286,322.526l-25.361-21.95l3.679-4.25l9.982,8.64l7.208-8.328l-9.982-8.639l3.679-4.25l25.361,21.949
	l-3.679,4.25l-11.089-9.597l-7.208,8.328l11.089,9.597L171.286,322.526z"/>
<path fill="#0260AA" d="M179.379,294.086c-1.615-1.398-2.891-3.08-3.831-5.048c-0.939-1.968-1.283-3.902-1.03-5.802
	c0.252-1.899,1.025-3.596,2.317-5.09c1.996-2.306,4.536-3.416,7.616-3.328c3.081,0.089,6,1.325,8.756,3.71
	c2.78,2.406,4.439,5.144,4.979,8.214c0.54,3.071-0.168,5.736-2.124,7.995c-1.21,1.398-2.744,2.402-4.602,3.011
	c-1.859,0.609-3.81,0.608-5.852-0.005C183.566,297.132,181.49,295.912,179.379,294.086z M183.218,290.175
	c1.822,1.578,3.528,2.426,5.118,2.547c1.59,0.12,2.841-0.347,3.752-1.4c0.911-1.052,1.191-2.354,0.84-3.907
	c-0.352-1.551-1.45-3.125-3.295-4.723c-1.799-1.557-3.492-2.397-5.078-2.523c-1.586-0.126-2.835,0.339-3.746,1.391
	c-0.912,1.053-1.193,2.358-0.846,3.914C180.311,287.032,181.396,288.599,183.218,290.175z"/>
<path fill="#0260AA" d="M185.271,269.24l1.939-2.24l-1.384-1.199c-1.545-1.337-2.58-2.471-3.106-3.403s-0.71-1.971-0.555-3.118
	c0.156-1.146,0.718-2.28,1.687-3.4c0.994-1.149,2.175-2.094,3.543-2.835l2.918,3.481c-0.74,0.482-1.366,1.019-1.88,1.613
	c-0.505,0.584-0.704,1.145-0.594,1.682c0.109,0.539,0.631,1.212,1.565,2.021l1.298,1.122l2.61-3.014l3.823,3.308l-2.61,3.016
	l14.549,12.592l-3.492,4.036l-14.549-12.593l-1.939,2.24L185.271,269.24z"/>
<path fill="#0260AA" d="M193.745,259.448l1.939-2.24l-1.384-1.197c-1.545-1.338-2.58-2.472-3.106-3.404
	c-0.525-0.932-0.71-1.971-0.555-3.118c0.155-1.146,0.717-2.279,1.687-3.4c0.994-1.149,2.175-2.094,3.543-2.836l2.918,3.481
	c-0.74,0.482-1.366,1.02-1.88,1.613c-0.506,0.584-0.704,1.145-0.594,1.683c0.109,0.539,0.631,1.211,1.565,2.019l1.298,1.124
	l2.61-3.016l3.823,3.31l-2.61,3.014l14.548,12.593l-3.492,4.034l-14.549-12.592l-1.939,2.24L193.745,259.448z"/>
<path fill="#0260AA" d="M223.919,249.898l4.292-3.317c1.329,2.054,1.974,4.04,1.938,5.959c-0.037,1.919-0.78,3.716-2.23,5.39
	c-2.295,2.652-5.037,3.712-8.227,3.178c-2.542-0.443-5.087-1.766-7.636-3.973c-3.045-2.634-4.857-5.359-5.438-8.172
	c-0.581-2.815,0.003-5.23,1.751-7.25c1.964-2.269,4.415-3.277,7.355-3.027c2.94,0.251,6.247,2.016,9.923,5.298l-8.749,10.108
	c1.467,1.22,2.869,1.865,4.21,1.937c1.34,0.071,2.412-0.357,3.216-1.286c0.546-0.632,0.798-1.343,0.756-2.133
	C225.038,251.821,224.651,250.916,223.919,249.898z M219.205,245.415c-1.432-1.188-2.762-1.813-3.992-1.872
	c-1.229-0.06-2.201,0.323-2.913,1.146c-0.763,0.881-1.006,1.942-0.73,3.186c0.276,1.242,1.081,2.433,2.415,3.572L219.205,245.415z"
	/>
<path fill="#0260AA" d="M248.287,233.561l-3.493,4.034l-9.377-8.115c-1.983-1.717-3.341-2.741-4.072-3.073
	c-0.732-0.332-1.427-0.443-2.085-0.335c-0.659,0.108-1.224,0.435-1.696,0.981c-0.605,0.698-0.917,1.525-0.936,2.479
	c-0.019,0.955,0.263,1.864,0.845,2.728c0.584,0.866,1.902,2.186,3.955,3.962l8.321,7.203l-3.493,4.034l-18.372-15.901l3.244-3.748
	l2.699,2.336c-0.925-3.127-0.512-5.701,1.235-7.72c0.77-0.89,1.668-1.536,2.692-1.94c1.024-0.402,2-0.533,2.927-0.392
	c0.926,0.141,1.836,0.467,2.725,0.977c0.889,0.51,2.043,1.38,3.462,2.608L248.287,233.561z"/>
<path fill="#0260AA" d="M229.944,203.501l9.324,8.07c-0.707-2.889-0.278-5.238,1.289-7.047c0.803-0.928,1.736-1.587,2.798-1.974
	c1.061-0.387,2.078-0.49,3.052-0.31c0.973,0.181,1.911,0.542,2.816,1.081c0.905,0.54,2.181,1.524,3.83,2.951l10.777,9.329
	l-3.492,4.034l-9.705-8.4c-1.926-1.667-3.214-2.648-3.866-2.944c-0.651-0.296-1.298-0.382-1.938-0.259
	c-0.641,0.123-1.215,0.477-1.72,1.061c-0.58,0.67-0.902,1.438-0.965,2.303c-0.063,0.866,0.194,1.763,0.773,2.691
	c0.579,0.927,1.641,2.06,3.187,3.398l9.203,7.965l-3.491,4.035l-25.361-21.95L229.944,203.501z"/>
<path fill="#0260AA" d="M269.165,197.621l4.293-3.317c1.328,2.054,1.974,4.041,1.938,5.959c-0.037,1.919-0.78,3.716-2.23,5.391
	c-2.295,2.652-5.037,3.711-8.226,3.177c-2.542-0.442-5.087-1.766-7.636-3.972c-3.046-2.635-4.858-5.359-5.438-8.173
	c-0.581-2.813,0.003-5.23,1.751-7.249c1.964-2.269,4.415-3.277,7.355-3.027c2.94,0.251,6.248,2.017,9.924,5.298l-8.75,10.108
	c1.467,1.219,2.87,1.865,4.21,1.936c1.34,0.072,2.412-0.357,3.216-1.285c0.547-0.632,0.799-1.343,0.757-2.133
	C270.284,199.544,269.897,198.64,269.165,197.621z M264.451,193.139c-1.432-1.189-2.763-1.814-3.992-1.873
	c-1.229-0.059-2.2,0.323-2.913,1.146c-0.762,0.881-1.005,1.942-0.73,3.185c0.275,1.243,1.081,2.434,2.415,3.572L264.451,193.139z"/>
<path fill="#0260AA" d="M260.66,177.101l-4.498-3.893l3.492-4.035l4.498,3.893L260.66,177.101z M281.523,195.158l-18.372-15.901
	l3.492-4.035l18.372,15.901L281.523,195.158z"/>
<path fill="#0260AA" d="M269.963,171.389l3.219-3.719l2.508,2.171c-0.797-3.017-0.401-5.445,1.19-7.283
	c0.845-0.976,1.821-1.614,2.926-1.912c1.106-0.299,2.348-0.254,3.725,0.135c-0.4-1.518-0.507-2.875-0.32-4.07
	c0.187-1.195,0.661-2.232,1.424-3.113c0.969-1.12,2.064-1.83,3.282-2.132c1.219-0.301,2.525-0.184,3.917,0.351
	c1.025,0.401,2.413,1.36,4.166,2.878l11.746,10.167l-3.492,4.035l-10.501-9.089c-1.822-1.577-3.118-2.456-3.889-2.638
	c-1.015-0.225-1.858,0.049-2.529,0.825c-0.488,0.565-0.741,1.276-0.756,2.133c-0.016,0.857,0.282,1.743,0.893,2.656
	c0.611,0.914,1.782,2.12,3.511,3.617l8.823,7.636l-3.493,4.035l-10.068-8.714c-1.788-1.547-3.003-2.474-3.646-2.779
	c-0.644-0.306-1.223-0.417-1.737-0.336c-0.515,0.082-0.995,0.381-1.443,0.898c-0.539,0.622-0.821,1.357-0.848,2.204
	c-0.027,0.848,0.247,1.708,0.821,2.582c0.575,0.874,1.745,2.075,3.509,3.602l8.927,7.726l-3.493,4.035L269.963,171.389z"/>
</svg>
