<?xml version="1.0" encoding="utf-8"?>
<!-- Generator: Adobe Illustrator 19.1.0, SVG Export Plug-In . SVG Version: 6.00 Build 0)  -->
<svg version="1.1" id="Layer_1" xmlns="http://www.w3.org/2000/svg" xmlns:xlink="http://www.w3.org/1999/xlink" x="0px" y="0px"
	 viewBox="0 0 400 400" enable-background="new 0 0 400 400" xml:space="preserve">
<path fill="#FFFFFF" d="M377.48,32.962l-0.003-0.392l-0.356-0.162C317.551,5.273,247.25,0.569,198.04,0
	C148.819,0.569,78.196,5.273,18.625,32.409L18.27,32.57l-0.003,0.392c-0.03,3.861-0.045,7.647-0.045,11.367
	c-0.004,69.233,5.493,115.73,32.429,196.923c26.577,80.107,86.812,140.846,147.209,158.747l0.174,0.052l0.174-0.052
	c60.399-17.901,120.31-78.642,146.889-158.747c26.941-81.202,32.431-127.701,32.427-196.947
	C377.524,40.594,377.508,36.814,377.48,32.962z"/>
<path d="M197.85,394.109C139.099,376.702,80.51,317.617,54.659,239.703l0,0C28.46,160.736,23.112,115.508,23.116,48.175l0,0
	c0-3.619,0.016-7.301,0.045-11.055l0,0l0.003-0.404l0.367-0.168C81.475,10.152,150.164,5.583,198.038,5.027l0,0
	c47.86,0.555,116.236,5.126,174.177,31.521l0,0l0.368,0.168l0.002,0.404c0.028,3.766,0.044,7.457,0.044,11.086l0,0
	c0.004,67.317-5.347,112.542-31.54,191.497l0,0c-25.852,77.912-84.124,136.999-142.879,154.406l0,0l-0.18,0.054L197.85,394.109
	L197.85,394.109z"/>
<path fill="#FFFFFF" d="M24.383,48.175c0.004,67.272,5.314,112.237,31.477,191.129l0,0
	c25.688,77.481,83.993,136.241,142.169,153.538l0,0c58.177-17.296,116.166-76.055,141.857-153.538l0,0
	c26.159-78.88,31.471-123.844,31.475-191.098l0,0c0-3.494-0.014-7.049-0.04-10.672l0,0c-57.569-26.123-125.61-30.693-173.284-31.24
	l0,0C150.351,6.841,81.997,11.411,24.424,37.534l0,0C24.397,41.145,24.383,44.69,24.383,48.175L24.383,48.175z"/>
<path d="M197.872,17.868c-111.513,0-161.545,27.311-161.545,27.311c-3.094,174.663,59.35,297.512,161.545,330.406
	c102.195-32.894,164.639-155.743,161.545-330.406C359.418,45.179,309.386,17.868,197.872,17.868z"/>
<path fill="#D61F26" d="M92.205,280.681c26.15,44.026,61.237,74.564,103.341,89.206l0-141.839L92.205,280.681z"/>
<path fill="#D61F26" d="M307.993,96.4c-25.532-5.625-61.168-10.58-107.795-10.741l0,65.642L307.993,96.4z"/>
<path fill="#FFFFFF" d="M348.706,144.821L89.863,276.653c-2.089-3.658-4.126-7.395-6.094-11.23
	c-6.486-12.645-12.29-26.254-17.386-40.748L354.554,77.906C353.831,101.328,351.858,123.671,348.706,144.821z"/>
<path d="M106.997,230.784c-4.645,2.274-9.289,4.645-13.844,7.014c-0.183-0.096-0.366-0.096-0.545-0.096
	c-1.638-3.094-3.279-6.195-4.827-9.289c3.19-1.729,6.371-3.462,9.558-5.098c1.097,1.091,2.19,3.46,2.832,4.827
	c2.82-1.459,5.64-2.915,8.554-4.283c-1.366-2.82-2.731-5.645-4.1-8.377c-2.365-0.733-4.73-1.457-7.099-2.095
	c-6.193,3.094-12.297,6.191-18.396,9.381c-0.642,1.821-1.276,3.645-1.914,5.557c0.549,1.546,0.549,1.546,8.83,17.754
	c1.914,0.642,3.832,1.278,5.835,2.007c4.279-1.55,11.196-6.835,14.84-6.835c1.642,3.373,3.283,6.739,5.01,10.205
	c-3.279,1.636-6.554,3.273-9.748,4.915c-0.817-1.729-1.634-3.458-2.455-5.1c-0.455,0-0.455,0-8.651,4.1
	c1.365,2.733,2.731,5.466,4.096,8.198c2.28,0.815,4.555,1.635,6.924,2.456c6.006-3.094,12.113-6.193,18.213-9.289
	c0.642-2.186,1.366-4.281,2.093-6.378c-3.003-5.919-6.01-11.837-9.013-17.665C111.093,232.054,109,231.42,106.997,230.784z"/>
<path d="M138.323,228.235c0.459,1.544,0.459,1.544,3.462,7.652c-0.545,1.091-8.375,4.915-9.838,4.915
	c-4.641-9.013-9.196-18.032-13.751-26.96c-0.09-0.362-0.09-0.723-0.09-0.999c3.19-1.636,6.376-3.277,9.655-4.919
	c0.272,1.004,1.548,3.462,2.186,4.283c2.731-1.459,5.551-2.916,8.375-4.283c-1.451-2.82-2.914-5.553-4.279-8.285
	c-1.914-0.545-3.824-1.187-5.644-1.733c-6.469,3.1-12.934,6.29-19.396,9.472c-0.642,1.821-1.28,3.732-1.824,5.646
	c6.099,11.929,12.203,23.863,18.302,35.794c1.918,0.638,3.828,1.274,5.827,2.003c1.459-0.459,1.459-0.459,18.944-9.472
	c0.548-1.004,0.548-1.004,2.097-6.012c-1.914-3.824-3.824-7.556-5.648-11.293C143.878,225.41,141.058,226.776,138.323,228.235z"/>
<path d="M182.128,215.121c-4.734-9.385-9.379-18.583-14.023-27.868c0.821-0.459,1.727-0.916,2.637-1.366
	c-0.451-2.554-2.548-5.466-3.641-7.745c-4.917,2.371-9.834,4.827-14.755,7.286c1.187,2.553,2.462,5.098,3.735,7.647
	c0.548,0.274,2.824-1.091,3.462-1.365c1.179,2.369,4.555,7.469,4.555,9.838c-2.556,1.185-5.01,2.458-7.469,3.732
	c-1.642-3.277-3.28-6.465-4.921-9.651c0.459-0.27,2.917-1.367,2.917-1.912c-1.276-2.458-2.458-4.915-3.645-7.286
	c-4.917,2.371-9.838,4.732-14.665,7.194c1.19,2.55,2.373,5.189,3.555,7.739c1.089-0.457,2.186-0.908,3.373-1.365
	c4.641,9.381,9.379,18.761,14.113,28.142c-1.004,0.545-1.91,1.091-2.82,1.636c1.182,2.462,2.361,5.012,3.641,7.562
	c4.917-2.55,9.834-5.1,14.755-7.65c-1.276-2.552-2.552-5.01-3.828-7.473c-1,0.459-2.093,1.28-3.186,1.28
	c-1.638-3.28-4.007-6.74-4.827-10.289c2.369-1.28,4.734-2.554,7.193-3.736c0.183,0.27,0.459,0.545,0.727,0.821
	c1.552,3.186,3.194,6.376,4.827,9.56c-1.004,0.453-2.003,0.912-3.003,1.365c0.638,2.733,2.369,5.283,3.641,7.745
	c0.455,0,0.455,0,13.934-6.833c0.179-0.27,0.362-0.544,0.638-0.727c-1.182-2.458-2.369-4.921-3.462-7.286
	C184.318,214.118,183.498,215.121,182.128,215.121z"/>
<path d="M213.371,199.093c-6.831-7.833-13.664-15.575-20.312-23.319c-0.183-0.364-0.365-0.634-0.455-0.908
	c0.366-0.364,0.732-0.638,1.093-0.908c-1.28-2.554-2.548-5.013-3.735-7.469c-4.279,2.095-8.558,4.189-12.841,6.378
	c0.638,2.635,2.373,5.185,3.555,7.648c0.545,0.087,0.545,0.087,2.093-0.551c2.552,10.476,5.189,20.858,7.83,31.33
	c-0.91,0.453-0.91,0.453-1.272,1.274c1.179,2.371,2.365,4.736,3.548,7.194c3.641-1.912,7.196-3.824,10.927-5.736
	c0-1.912-2.727-5.829-3.641-7.56c-0.545,0.274-1.093,0.549-1.548,0.819c-0.451-1.091-0.451-1.091-0.548-2.824
	c1.824-1,3.738-1.999,5.648-2.912c0.546,0.546,1.093,1.091,1.64,1.641c-0.272,0.908-1.367,0.908-1.367,1.817
	c1.095,2.369,2.279,4.736,3.462,7.107c3.824-2.005,7.743-3.917,11.658-5.833c-1.278-2.456-2.46-4.915-3.645-7.28
	C214.462,199.093,214.366,199.367,213.371,199.093z M196.245,198.18c-0.362-1.824-1.638-5.374-1.276-7.103
	c1.463,1.729,2.828,3.462,4.283,5.191C198.066,197.268,198.066,197.268,196.245,198.18z"/>
<path d="M246.058,182.696c-4.828-9.381-9.651-18.758-14.387-28.051c1-0.634,2.004-1.27,3.007-1.816
	c-1.366-2.46-2.459-4.919-3.645-7.381c-13.205,6.739-13.205,6.739-15.025,7.381c1.183,2.458,2.367,4.915,3.641,7.373
	c0.453,0.091,0.453,0.091,3.371-1.091c1.64,3.277,3.277,6.648,4.919,10.018c-0.189,0-0.276,0-0.364,0
	c-4.923-4.736-9.747-9.474-14.574-14.21c-1.188-0.545-11.018,5.283-12.567,6.012c-0.455,0.912,3.003,6.469,3.548,7.469
	c0.366,0.091,0.366,0.091,3.28-1.367c4.74,9.293,9.472,18.578,14.208,27.959c-0.634,0.638-0.634,0.638-2.733,1.642
	c0.549,2.732,2.277,5.374,3.554,7.918c4.736-2.457,9.38-4.824,14.208-7.101c-0.183-1-0.183-1-3.736-7.83c-1,0.453-1.821,1-2.912,1
	c-0.368-1.093-6.469-12.931-6.469-13.477c5.831,5.827,11.658,11.66,17.579,17.579c1.182,0.362,11.837-5.561,11.837-6.104
	c-1.274-2.46-2.457-4.827-3.645-7.196C248.608,181.422,248.608,181.422,246.058,182.696z"/>
<path d="M267.008,164.213c2.915,5.645,2.915,5.645,3.19,6.644c-2.007,0.913-3.919,1.821-5.831,2.824
	c-0.183,0.093-0.183-33.878-0.183-35.335c-1.367-2.641-2.732-5.279-4.1-7.924c-8.377,4.283-16.758,8.651-25.135,13.026
	c2.188,4.37,4.374,8.739,6.56,13.205c2.638-1.278,5.279-2.554,8.011-3.824c-2.367-4.74-2.367-4.74-2.546-5.648
	c6.827-3.55,6.827-3.55,7.103-3.462c-0.276,9.289-0.821,34.246-0.733,35.975c0.457,1.004,3.099,7.198,4.007,7.198
	c8.29-4.283,16.671-8.566,25.048-12.755c-2.367-4.736-4.736-9.377-7.01-14.022C274.383,160.385,274.383,160.385,267.008,164.213z"/>
<path d="M299.427,148.451c0.912,1.912,1.821,3.921,2.733,5.924c-2.824,1.366-5.557,2.82-8.286,4.277
	c-1.824-3.46-3.554-6.827-5.285-10.201c0.64-1.362,4.827-2.915,6.284-3.639c-1.274-2.55-2.548-5.012-3.732-7.469
	c-2.277,1.004-4.557,2.095-6.739,3.19c-0.821-1.642-5.287-8.84-4.553-10.293c7.648-4.007,7.648-4.007,8.195-4.007
	c0.453,1.091,1.274,3.915,2.367,4.46c2.552-1.365,5.189-2.636,7.834-3.915c0.453-1.453-5.006-10.563-5.827-12.384
	c-0.276,0-0.546,0-0.729,0c-9.381,4.736-18.67,9.468-27.963,14.208c0.278,1.912,2.828,7.012,4.102,7.648
	c0.908-0.545,1.816-1.004,2.82-1.457c0.459,0.453,11.205,21.582,14.389,28.321c-0.908,0.367-1.816,0.821-2.729,1.274
	c0.365,1.28,0.365,1.28,3.733,7.837c9.38-4.828,18.761-9.655,28.229-14.485c-1.27-3.094-1.27-3.094-6.557-13.113
	C306.713,144.174,300.522,147.906,299.427,148.451z"/>
<path d="M342.054,134.159c-0.916,0.455-0.916,0.455-1.912,0.455c-10.297-6.833-10.297-6.833-10.567-7.286
	c0.815-0.547,1.64-1,2.548-1.459c0.638-2.003,2.1-4.732,2.1-6.918c-2.739-5.374-5.469-10.66-8.202-15.937
	c-2.091-0.912-4.188-1.824-6.195-2.645c-1.179,0.366-1.179,0.366-24.04,11.935c0.364,1.274,3.009,7.83,4.191,7.83
	c0.817-0.544,1.729-1.004,2.641-1.457c4.732,9.381,9.56,18.762,14.387,28.142c-1.004,0.453-2.003,0.908-3.003,1.457
	c1.274,2.546,2.544,5.187,3.824,7.832c4.827-2.55,9.651-5.012,14.478-7.473c-0.453-2.459-2.277-5.187-3.368-7.465
	c-1.183,0.091-2.095,0.821-3.192,0.821c-1.27-2.554-4.553-7.377-4.553-10.018c3.374,2.369,6.741,4.736,10.201,7.101
	c0,0.088,0,0.276,0,0.459c-0.362,0.179-0.727,0.362-1.091,0.546c-0.362,1.27,2.915,7.284,3.921,7.739
	c9.743-5.008,9.743-5.008,11.655-6.286C342.962,135.435,342.962,135.435,342.054,134.159z M316.64,123.862
	c-1.642-3.094-3.28-6.195-4.829-9.286c0.821-1.733,5.012-2.915,6.833-3.736c1.544,3.003,3.094,6.012,4.645,9.015
	C323.288,121.221,317.914,123.224,316.64,123.862z"/>
<path fill="#FFFFFF" d="M288.955,264.933c-3.462-4.37-8.924-5.919-9.107-11.927c2.367-4.827,4.553-3.369,9.198-2.824
	c3.732-2.278,0.638-3.915-2.365-4.466c-1.912,0.276-3.736,0.642-5.648,0.642c0.545-0.457,0.545-0.457,8.926-3.828
	c0-1.091-0.096-1.912-0.545-2.912c-4.009-0.366-6.557,0.453-10.114,2.55c-0.725,0.729-1.455,1.548-2.184,2.369
	c-2.46,3.641-2.912,7.099-1.544,11.293c0,0.364,0,0.817,0,1.272c-3.375,2.095-6.56,4.098-9.293,6.834
	c-0.451,2.274-0.364,4.186,2.277,4.186c2.188-2.819,4.374-6.01,8.381-6.01c-0.095,0.091-0.183,0.274-0.183,0.455
	c-2.641,1.274-4.195,3.369-5.74,5.831c-0.27,1.999-0.091,3.637,2.462,3.456c0.727-1,1.453-2.003,2.183-2.912
	c2.548-2.732,3.368-2.643,6.739-2.643c3.736,2.186,4.007,5.285,2.55,9.196c-1.912,2.462-4.188,3.736-7.465,3.736
	c-1.095-0.908-8.198-6.28-8.198-7.377c-4.007-3.732-7.922-7.468-11.839-11.108c-0.096-0.185-0.096-0.368-0.096-0.547
	c1.916-1.912,4.013,0.547,6.107,1c1.912-1.912-0.546-4.003,0.449-6.01c0.459,0,0.916,0,1.371,0c1.182,0.64,4.007,2.552,4.919,0.64
	c-0.37-1.824-1.642-3.645-2.186-5.557c0.091-0.183,0.274-0.362,0.453-0.549c2.367-0.088,5.1,1.278,5.1-1.729
	c-1.55-1.361-2.641-1.729-2.641-3.828c1.82-1.363,5.098-0.546,5.098-3.279c-1.544-0.996-3.641-0.362-5.277-1.453
	c-0.185-1.367-0.185-1.367,0.087-2.095c1.457-0.364,3.098-0.821,4.098-1.821c0-0.551,0-1.097,0-1.546
	c-2.095-1.55-4.827-0.37-7.103-1.463c0-0.636,0-1.182,0.093-1.727c2.095-1.185,4.639-1.093,4.639-3.826
	c-3.911-1.912-9.013,0.364-12.925,1.185c-3.279-0.729-6.103-1.28-9.472-1.28c-3.554,1.004-7.107,2.009-10.66,3.013
	c-1.27-0.185-2.546-0.276-3.641-0.367c-0.817,0.27-1.548,0.546-2.182,0.912c-0.183,0.821-0.274,1.638-0.274,2.55
	c3.916,0.453,7.739-1.004,11.655-0.092c0.274,0.362,0.274,0.362,0.274,1.821c-1.003,2.095-3.919,2.186-6.01,2.278
	c-1,0-2.003,0-2.912,0c-0.642,0-1.187,0-1.733,0.091c0.546,1.729,2.277,3.732,4.098,4.279c1.185,0,2.367,0,3.641,0
	c0.729-0.091,20.946-5.827,16.029,1.55c-5.648,3.46-12.837,5.189-18.028,9.377c-5.102-1.816-11.479-3.367-16.12-6.1
	c0-0.642,0-1.274,0-1.82c0.729-2.645,3.641-6.922-0.733-8.019c-0.449,0.276-0.817,0.642-1.179,1.006
	c0,1.457,0.545,2.278-0.183,3.643c-2.28,0-3.096-2.277-4.013-3.915c-0.723-0.091-1.365-0.091-1.999-0.091
	c0,1.637,1.185,3.094,1.999,4.462c-0.179,0.366-0.27,0.817-0.362,1.274c-1.55,0.908-3.462,0.276-5.191,0.091
	c-2.278,0.729-2.915,0.367-2.915,2.729c2.007,0.095,2.828-0.271,3.736-0.179c2.55,2.095,4.462,3.736,4.917,7.015
	c-0.908,1.27-3.092,1.091-3.092,3.186c1.091,0.821,2.184,1.091,3.549,1c1.55-1.546,1.824-2.274,4.098-2.003
	c5.191,2.003,10.565,3.736,15.301,6.648c-0.092,0.091-0.092,0.27-0.092,0.455c-3.828,2.916-7.56,5.831-11.296,8.743
	c-2.363,0.544-3.913-3.367-4.732-4.824c-1.729-1.459-5.191-2.188-5.191,1c2.091,1.365,3.736,1.365,2.915,3.824
	c-1.461,0-5.01-0.271-6.014,0.729c0,0.636,0.095,1.274,0.544,1.733c1.368,0.091,2.733,0.179,4.192,0.274
	c3.094,3.094-5.1,5.823-1.546,9.377c0.271,0,0.547,0,0.817,0c0.638-1.004,1.278-2.82,1.912-3.641
	c2.645-1.091,5.374-1.004,8.015-0.183c0.549,1.091,0.183,2.369,0.183,3.462c0.365,0.274,0.729,0.545,1.095,0.819
	c3.186,0,2.55-3.007,2.003-5.01c3.732-3.828,8.377-6.195,13.205-8.469c3.094,0.729,8.653,5.01,8.653,8.29
	c-4.645,2.729-13.572,0.908-13.572,8.647c0.908,3.732,4.003,7.469,4.003,11.113c-0.45,0.726-0.908,1.453-1.366,2.274
	c-0.175,0-0.272,0-0.364,0c-1.365,1.821-3.186,3.549-4.915,5.012c-0.729-0.096-1.366-0.183-2.186-0.276
	c-2.459-3.274-3.732-7.739-8.016-4.277c0,0.27,0,0.545,0,0.817c1.004,0.636,2.095,1.365,3.192,2.098
	c0.544,2.459-3.466,1.455-4.828,1.455c-1.459,0.727-1.367,0.362-1.28,2.365c2.186,1.095,5.74-0.729,5.469,2.733
	c-1.916,1.459-5.919,6.1-1.645,7.103c0.367-1.003,0.733-1.999,1.099-3.005c1.729-1.365,7.465-2.186,9.102-0.544
	c0,1.999-0.817,2.733,0.916,4.462c0.996,0,2.638-1.729,2.908-2.641c-0.179-1-0.632-1.912-0.632-3.003
	c4.094-4.465,10.199-7.745,13.205-13.025c-0.096-0.638-0.185-1.276-0.185-1.912c-2.457-3.28-3.824-4.462-0.362-7.286
	c3.367-1.729,6.739-3.462,10.197-5.1c-0.546,2.367-1.091,4.736-1.091,7.194c2.365,3.645,5.281,6.736,8.286,9.836
	c-0.455,2.548-2.367,6.01-4.641,7.375c-3.375,0.459-4.1-2.278-5.74-4.915c-1.821-1.091-2.918-0.545-4.641,0.27
	c-0.372,2.276,0.908,2.367,2.908,3.279c0.731,3.007-4.641,1-6.099,2.458c0,0.457,0,0.912,0,1.457
	c1.729,1.733,5.374-1.365,5.374,2.459c-0.642,1.004-6.377,7.286-1.367,7.286c0.367-0.908,0.725-1.816,1.185-2.637
	c1.548-1.189,8.564-3.283,9.013-0.095c-0.179,0-0.362,0.095-0.45,0.187c0,0.729,0,1.453,0.088,2.27
	c1.824,1.824,3.462,0.642,4.186-1.54c-0.179-1.004-0.632-1.916-0.632-2.828c6.465-5.553,14.479-15.937,9.651-24.861
	c-1.459,0-2.003,0.817-3.186,1.55c-0.276-0.091-0.547-0.185-0.821-0.185c-0.364-1.182-0.729-2.369-1.091-3.551
	c0.183-2.188,0.457-4.37,0.727-6.557c5.738,0.457,11.018-1.733,13.934-6.741c0.455-1.636,0.908-3.277,1.367-4.827
	c-0.091-1.091-0.187-2.095-0.187-3.094C289.863,267.303,289.414,266.119,288.955,264.933z M250.156,231.691
	c0.459-2.457,3.371-3.365,5.191-1.548C253.619,230.6,251.886,231.146,250.156,231.691z"/>
<path fill="#FFFFFF" d="M210.543,233.97c3.182,2.365,6.918,2.732,10.656,2.003c1.727-0.091,3.548-0.091,5.372-0.091
	c0.817,0.091,1.638,0.274,2.546,0.453c6.652-0.362,6.652-0.362,7.107-0.636c-0.187-0.046-0.35-0.074-0.524-0.11
	c0.175,0.036,0.34,0.064,0.528,0.11c0.453-0.179,1-0.27,1.636-0.364c-1.453-0.545-3.094-1.091-4.551-1.636
	c-2.188-1.091-4.645-2.097-6.286-4.104c-1.363-4.277-1.999-4.55-6.557-5.553c1.274,2.188,2.915,4.645,3.464,7.103
	c-0.001,0-0.002,0-0.004,0c-0.636-0.638-1.183-1.274-1.727-1.912c-0.551-3.188-2.918-3.919-6.016-3.919
	c1.187,1.643,2.182,2.552,2.182,4.557c-0.179,0.091-0.362,0.183-0.449,0.27c-0.366-0.451-0.642-0.817-0.912-1.179
	c-1.182-3.1-2.462-3.279-5.827-3.553c1.636,2.186,1.636,2.186,2.186,3.462c-0.092,0.362-0.183,0.819-0.183,1.27
	C211.542,231.603,210.817,231.875,210.543,233.97z M222.835,233.42c2.276,0.459,4.462,0.916,6.74,0.916
	c-1.549-0.731-4.645-1.733-5.372-3.19c0-0.087,0.091-0.183,0.183-0.27c0.545,0.362,1.186,0.817,1.821,1.274
	c1.862,0.83,3.441,1.44,4.699,1.897c0.032,0.012,0.068,0.025,0.1,0.036c0.018,0.006,0.033,0.012,0.051,0.018
	c2.033,0.731,3.176,1.043,3.243,1.215c0.002,0.005,0.011,0.011,0.012,0.017c0,0-0.001,0-0.001,0
	c-3.184-0.179-8.65,0.459-11.474-1.453C222.835,233.696,222.835,233.515,222.835,233.42z"/>
<path fill="#FFFFFF" d="M354.704,72.61l-40.243,20.496C287.888,86.813,249.404,81,197.872,81
	C110.275,80.997,60.339,97.802,42.63,105.185c-1.161-15.38-1.763-31.276-1.762-47.669c0-3.123,0.022-6.264,0.065-9.422
	c11.043-5.154,60.8-25.569,156.939-25.575c55.376,0,95.362,6.779,121.427,13.507c13.032,3.365,22.584,6.716,28.837,9.206
	c2.953,1.176,5.171,2.159,6.674,2.86c0.043,3.159,0.064,6.3,0.064,9.425C354.876,62.596,354.817,67.626,354.704,72.61z"/>
<path fill="#D61F26" d="M55.178,58.567c0.727-0.179,1.455-0.362,2.276-0.545c0,1.365,0,2.824,0,4.281c0,5.283,0,10.565,0,15.937
	c-0.821,0.088-1.548,0.272-2.276,0.455c0,1.82,0,3.645,0,5.465c3.641-0.821,7.286-1.55,11.02-2.279c0-1.821,0-3.641,0-5.466
	c-0.821,0.097-1.544,0.185-2.279,0.368c0-2.55,0-5.013,0-7.469c1.642-0.364,3.279-0.729,4.921-1.004c0-1.821,0-3.641,0-5.462
	c-1.642,0.27-3.279,0.545-4.827,0.908c-0.093-2.367-0.093-4.732-0.093-7.103c2.097-0.457,4.283-0.908,6.469-1.274
	c0,1.091,0.089,2.186,0.179,3.371c2.003-0.459,4.007-0.908,6.103-1.276c0-3.007,0-6.01,0-9.013c-7.103,1-14.389,3.003-21.492,4.369
	C55.178,54.743,55.178,56.655,55.178,58.567z"/>
<path fill="#D61F26" d="M328.477,56.834c0,1.276,0.096,2.554,0.183,3.83c1.729,0.362,3.462,0.723,5.191,1.091
	c0-3.097,0-6.191,0-9.198c-7.103-1.459-14.113-2.915-21.129-4.279c0,1.999,0,8.103,0,9.198c1.733,0.364,3.462,0.726,5.191,1.091
	c0-1.274,0.095-2.552,0.183-3.824c0.638,0.088,1.28,0.179,1.912,0.364c0,6.739,0,13.479,0,20.218
	c-0.632-0.095-1.179-0.183-1.729-0.274c-0.092,1.824-0.183,3.641-0.183,5.465c3.554,0.636,7.103,1.366,10.657,2.095
	c0-1.824,0.091-3.645,0.183-5.466c-0.821-0.183-1.55-0.27-2.276-0.366c0-6.829,0.087-13.568,0.181-20.308
	C327.386,56.559,327.933,56.655,328.477,56.834z"/>
<path fill="#D61F26" d="M81.222,47.544c-1.003,0.733-1.548,1.642-2.913,3.1c0,4.919,0,22.311,0,26.047
	c0.91,0.727,1.824,1.453,2.824,2.183c4.648-0.729,9.289-1.455,14.023-2.183c1.093-1.185,2.182-2.371,3.279-3.462
	c0-2.733,0-5.466,0-8.107c-2.186,0.276-4.279,0.642-6.372,1.004c-0.093,1.82-0.093,3.641-0.093,5.461
	c-2.462,0.364-4.917,0.729-7.375,1.188c0-0.912,0-1.733,0-2.553c0-5.921,0.09-11.744,0.183-17.575
	c2.369-0.362,4.73-0.729,7.192-1.095c0.093,1.004,0.272,2.003,0.455,3.007c2.007-0.362,4.007-0.638,6.01-0.912
	c0-2.095,0-4.189,0-6.191c-1.276-1.004-2.186-2.095-3.914-2.095C90.056,46.091,85.598,46.821,81.222,47.544z"/>
<path fill="#D61F26" d="M288.868,44.088c0,1.912,0,3.824,0,5.736c0.729,0.091,1.453,0.187,2.274,0.366c0,4.553,0,18.034,0,20.216
	c-0.821-0.088-1.544-0.179-2.274-0.27c0,0.912,0,4.553,0,5.372c5.736,0.908,11.563,1.825,17.39,2.82
	c1.638-0.362,3.005-1.27,4.466-2.274c0-8.469,0-16.941,0-25.409c-1.366-1.183-2.641-2.367-3.919-3.549
	C300.794,46.091,294.786,45.091,288.868,44.088z M303.622,72.409c-2.007-0.366-3.919-0.729-5.833-1.004c0-6.739,0-13.479,0-20.22
	c1.914,0.276,3.826,0.642,5.833,1.004C303.622,55.285,303.622,68.764,303.622,72.409z"/>
<path fill="#D61F26" d="M280.121,48.824c0.274-0.091,0.64-0.179,1.004-0.179c0-1.824,0-3.645,0-5.469
	c-3.279-0.455-6.556-0.908-9.748-1.27c0,0.906,0,4.643,0,5.644c0.368,0,0.733,0,1.095,0.091c-1.548,6.557-3.099,13.113-4.645,19.674
	c-0.457,0-0.819,0-1.187,0c0,1.729,0,3.548,0,5.368c2.828,0.276,5.648,0.638,8.564,1c0-1.819,0-3.639,0-5.459
	c-0.457-0.092-0.912-0.092-1.365-0.092c0.183-0.638,0.362-1.188,0.634-1.733c1.366,0.183,2.828,0.365,4.281,0.544
	c0.183,0.551,0.367,1.188,0.546,1.824c-0.546-0.091-1-0.183-1.455-0.183c0,1.821,0,3.645,0,5.557
	c2.915,0.362,5.827,0.729,8.739,1.091c0-1.821,0-3.645,0-5.374c-0.453-0.183-0.815-0.362-1.179-0.453
	C283.581,62.488,281.852,55.655,280.121,48.824z M276.754,62.482c-0.55-0.091-1.004-0.183-1.459-0.183
	c0.546-2.548,0.546-2.548,1.276-4.189c0.365,1.365,0.729,2.733,1.091,4.189C277.301,62.299,277.024,62.391,276.754,62.482z"/>
<path fill="#D61F26" d="M113.734,46.821c0,0.362,0,0.821,0,1.278c0.727-0.096,1.548-0.187,2.369-0.187c0,6.739,0,13.479,0,20.22
	c-0.821,0.092-1.548,0.179-2.276,0.274c0,1.821,0,3.641,0,5.466c3.641-0.459,7.286-0.821,11.017-1.185c0-1.912,0-3.828,0-5.648
	c-0.727,0.093-1.459,0.181-2.093,0.276c0-6.739,0-13.481,0-20.133c0.634-0.088,1.366-0.179,2.093-0.271c0-1.912,0-3.824,0-5.648
	c-3.73,0.457-7.375,0.912-11.017,1.369C113.734,44,113.734,45.366,113.734,46.821z"/>
<path fill="#D61F26" d="M139.233,45.271c0.459-0.092,1.004-0.183,1.548-0.183C140.964,45,141.24,45,141.517,45
	c-0.187,7.648-0.373,7.282-0.373,7.282c-1.451-4.005-2.906-8.016-4.369-12.022c-1.816-0.088-1.816-0.088-9.468,0.727
	c-0.093,1.821-0.183,3.645-0.183,5.557c0.821-0.091,1.642-0.179,2.458-0.179c0,4.732,0,9.56,0,14.389
	c-0.093,1.912-0.179,3.824-0.179,5.736c-0.821,0-1.552,0.088-2.279,0.183c0,1.912,0,3.824,0,5.736
	c3.552-0.362,7.193-0.729,10.838-1.091c0-1.912,0-3.736,0-5.557c-0.642,0-1.187,0-1.731,0c-0.093-3.279-0.179-6.469-0.179-9.651
	c1.727,4.824,3.458,9.742,5.279,14.661c0.732,0.181,0.732,0.181,9.107-0.457c0-1.912,0-3.824,0-5.648c-0.817,0-1.548,0-2.276,0.095
	c0-6.739,0-13.391,0-20.035c0.727-0.093,1.459-0.185,2.276-0.185c0-1.912,0-3.736,0-5.557c-3.735,0.272-7.469,0.547-11.203,0.821
	C139.233,41.626,139.233,43.45,139.233,45.271z"/>
<path fill="#D61F26" d="M243.143,39.169c0,3.094,0,6.193,0,9.287c1.733,0.093,3.462,0.185,5.287,0.367
	c0-1.28,0.091-2.462,0.183-3.645c0.545,0,1.091,0,1.729,0.088c0,6.74,0,13.479,0,20.312c-0.638-0.091-1.276-0.179-1.912-0.179
	c0,1.82,0,3.641,0,5.459c3.552,0.364,7.193,0.729,10.838,1.093c0-1.912,0-3.824,0-5.644c-0.733-0.093-1.457-0.185-2.099-0.185
	c0-6.736,0-13.475,0-20.127c0.642,0,1.278,0,1.912,0.091c0,1.274,0.096,2.554,0.187,3.828c1.729,0.092,3.462,0.274,5.282,0.455
	c-0.091-3.097-0.183-6.195-0.274-9.289C257.168,40.443,250.156,39.805,243.143,39.169z"/>
<path fill="#D61F26" d="M223.747,38.261c-0.908,0.724-1.82,1.544-2.729,2.361c0,4.195,0,8.472,0,12.755
	c0.908,0.908,1.912,1.821,2.915,2.82c3.549,0.183,7.103,0.362,10.561,0.636c0.187,2.458,0.274,5.012,0.274,7.562
	c-2.458-0.181-4.827-0.276-7.286-0.364c-0.091-1.278-0.183-2.55-0.183-3.828c-2.091-0.183-4.185-0.27-6.282-0.366
	c0,2.007,0,4.011,0,6.105c1,1,2.001,2.095,3.096,3.188c4.824,0.274,9.651,0.545,14.391,0.819c0.908-0.819,1.817-1.64,2.729-2.457
	c0-4.374,0-8.651,0-12.934c-0.912-1.004-1.821-1.912-2.729-2.824c-3.645-0.638-7.286-0.821-11.022-0.912c0-2.367,0-4.645,0-6.918
	c2.459,0.091,4.828,0.179,7.286,0.362c0,1.183,0,2.371,0,3.641c2.186,0.095,4.37,0.187,6.644,0.37c0-2.007,0-4.011,0-6.014
	c-1.091-1.095-2.182-2.188-3.274-3.279C236.411,38.71,236.411,38.71,223.747,38.261z"/>
<path fill="#D61F26" d="M154.533,38.714c-0.91,0.821-1.727,1.729-2.548,2.645c0,8.651,0,17.303,0,26.043
	c0.906,0.821,1.91,1.641,2.913,2.456c5.1-0.27,10.289-0.544,15.482-0.727c0.91-1,1.824-1.912,2.82-2.82c0-3.645,0-7.199,0-10.748
	c-1.093-0.999-2.186-2.003-3.186-2.915c-2.913,0.091-5.737,0.274-8.558,0.459c0,1.819,0,3.73,0,5.644
	c1.727-0.09,3.462-0.185,5.283-0.185c0,1.733,0,3.462,0,5.286c-2.824,0.088-5.559,0.183-8.29,0.362c0-6.74,0-13.479,0-20.127
	c2.731-0.183,5.466-0.27,8.29-0.367c0,1.097,0,2.192,0,3.283c2.089-0.183,4.275-0.365,6.461-0.455c0-2.003,0-4.007,0-6.01
	c-0.91-0.821-1.817-1.642-2.731-2.459C165.553,37.44,159.543,38.444,154.533,38.714z"/>
<path fill="#D61F26" d="M212.633,63.394c-1.999-0.096-4.007-0.096-6.006-0.096c0-6.736,0-13.475,0-20.21
	c0.634,0,1.362,0,2.095,0.088c0-1.912,0-3.824,0-5.648c-0.821-0.088-5.012-0.179-6.105-0.179c-1.638,0-3.275,0-4.824,0
	c0,1.821,0,3.732,0,5.644c0.727,0,1.365,0,2.182,0c0,6.739,0,13.479,0,20.218c-0.817,0-1.455,0-2.182,0c0,1.821,0,3.645,0,5.557
	c0.545,0,1,0,1.638,0c1.548-0.095,6.738,0,7.741,0.091c3.917,0.088,7.833,0.185,11.748,0.272c0-3.279,0-6.465,0-9.657
	c-2.003-0.088-4.007-0.179-6.01-0.179C212.816,60.663,212.729,62.029,212.633,63.394z"/>
<path fill="#D61F26" d="M188.593,37.349c-1.187,0-2.365,0-3.458,0.091c-0.093,0-0.186,0-0.186,0c-0.817,0-1.634,0-2.455,0
	c-1.276,0-2.552,0.088-3.824,0.183c-1.008,1-2.011,2.004-3.007,3.003c-0.093,8.651-0.093,17.305-0.093,26.047
	c0.727,0.638,1.463,1.366,2.28,2.095c2.003,0,4.096,0,6.193,0.091c0.999-0.091,6.282-0.187,7.924-0.091
	c1.182-0.365,2.548-2.007,3.462-2.915c0-8.56,0-17.12,0-25.592c-1.093-1-2.19-1.999-3.194-2.912
	C190.962,37.349,189.776,37.349,188.593,37.349z M188.955,63.299c-0.269,0-0.545,0-0.724,0c-1.089,0-2.186,0-3.283,0
	c-0.996,0-1.91,0.096-2.82,0.189c0-6.833,0-13.573,0-20.312c0.366,0,0.731,0,1.093,0c0.91-0.088,1.824-0.088,2.731-0.088
	c1.003,0,2.007,0,3.003,0C188.955,49.824,188.955,56.559,188.955,63.299z"/>
<path fill="#FFFFFF" d="M146.336,264.933l-2.918,3.094l0,26.598l2.467,2.55h13.658l2.82-2.824v-26.503l-2.82-2.915H146.336z
	 M156.357,291.525c-2.28,0-4.466,0-6.648,0c0-6.922,0-13.841,0-20.67c2.182,0,4.368,0,6.648,0
	C156.357,277.684,156.357,284.602,156.357,291.525z"/>
<path fill="#FFFFFF" d="M180.946,291.525v-4.281l1.914,0v-5.283h-2.097v-16.85l-6.1,0l-10.744,16.576l2.093,5.557l8.107,0v4.374
	h-2.373v5.644h11.133v-5.761L180.946,291.525z M174.667,281.813h-4.762l4.762-6.644V281.813z"/>
<path fill="#FFFFFF" d="M82.857,197.539c-0.18,4.513-0.356,9.114-0.54,13.801l23.315-11.874c0.317-1.767,0.338-2.274,0.772-12.658
	C98.556,190.385,90.705,193.963,82.857,197.539z"/>
<path fill="#FFFFFF" d="M82.678,169.011c-7.847,3.576-15.609,7.155-23.367,10.73c-0.263,1.525-0.27,1.571-0.953,19.19
	c0.718,2.612,1.454,5.204,2.215,7.766c7.004-3.292,14.005-6.588,21.01-9.794C81.945,187.544,82.316,178.278,82.678,169.011z"/>
<path fill="#FFFFFF" d="M132.235,174.329c-0.181,3.897-0.274,7.787-0.362,11.772l23.455-11.946c0.089-3.552,0.182-7.099,0.271-10.65
	C147.75,167.085,139.989,170.661,132.235,174.329z"/>
<path fill="#FFFFFF" d="M107.593,184.698c7.757-3.668,15.516-7.344,23.273-10.92c0.456-9.359,0.913-18.717,1.372-28.075
	c-7.855,3.579-15.613,7.155-23.367,10.828C108.598,157.451,108.598,157.451,107.593,184.698z"/>
<path fill="#FFFFFF" d="M59.042,151.209c-3.44,1.471-6.871,3.02-10.239,4.576c1.487,8.651,3.172,17.095,5.058,25.318
	c1.358-0.611,2.76-1.173,4.175-1.726C58.309,169.926,58.672,160.568,59.042,151.209z"/>
<path fill="#FFFFFF" d="M108.228,127.905c-7.754,3.58-15.515,7.252-23.18,10.92c-0.363,9.354-0.733,18.716-1.099,28.075
	c7.761-3.668,15.519-7.345,23.273-10.921c0.277-0.548,0.277-0.548,1.185-22.846C108.321,131.393,108.228,129.648,108.228,127.905z"
	/>
<path fill="#FFFFFF" d="M157.06,161.211c7.847-3.669,15.695-7.341,23.542-10.921c0.277-9.266,0.554-18.532,0.917-27.797
	c-7.758,3.578-15.516,7.155-23.278,10.827C157.329,142.493,157.244,152.032,157.06,161.211z"/>
<path fill="#FFFFFF" d="M181.522,160.814l7.666-3.904c2.115-1.096,4.237-2.181,6.359-3.251v-8.843
	c-4.607,2.102-9.135,4.201-13.665,6.302C181.701,154.291,181.607,157.549,181.522,160.814z"/>
<path fill="#FFFFFF" d="M61.318,121.024c-0.366,9.358-0.729,18.721-1.006,28.075c7.665-3.668,15.426-7.248,23.188-10.828
	c0.086-0.549,0.179-1.099,0.362-1.557c0.269-8.898,0.546-17.801,0.908-26.699C76.924,113.683,69.077,117.355,61.318,121.024z"/>
<path fill="#FFFFFF" d="M157.878,104.603c-7.757,3.578-15.516,7.246-23.273,10.919c-1.189,9.082-1.006,18.989-1.006,28.167
	c7.761-3.672,15.516-7.344,23.278-11.012C158.058,104.968,158.058,104.968,157.878,104.603z"/>
<path fill="#FFFFFF" d="M60.852,103.534c-8.05,2.554-13.969,4.876-17.839,6.541c0.498,5.934,1.092,11.778,1.761,17.55
	c5.059-2.414,10.124-4.827,15.271-7.241C60.309,114.766,60.582,109.148,60.852,103.534z"/>
<path fill="#FFFFFF" d="M109.874,125.795c7.758-3.668,15.511-7.34,23.274-10.918c0.354-8.714,0.715-17.333,1.158-25.956
	c-2.096,0.227-4.157,0.463-6.182,0.708c-5.715,2.667-11.438,5.334-17.155,7.998C110.606,106.986,110.236,116.344,109.874,125.795z"
	/>
<path fill="#FFFFFF" d="M182.887,120.473c4.165-2.005,8.409-3.927,12.66-5.846V87.1c-3.881,1.738-7.765,3.474-11.564,5.3
	C183.62,101.758,183.25,111.116,182.887,120.473z"/>
<path fill="#FFFFFF" d="M109.507,97.17c0.264-0.614,0.276-0.652,0.355-4.971c-8.55,1.382-16.302,2.899-23.286,4.461
	c-0.175,3.776-0.348,7.558-0.525,11.337C93.812,104.329,101.659,100.745,109.507,97.17z"/>
<path fill="#FFFFFF" d="M182.521,91.664c0.092-2.002,0.174-3.921,0.263-5.836c-7.985,0.183-15.62,0.507-22.911,0.949
	c-0.177,5.239-0.352,10.479-0.443,15.806C181.246,92.492,181.246,92.492,182.521,91.664z"/>
</svg>
