<?xml version="1.0" encoding="utf-8"?>
<!-- Generator: Adobe Illustrator 19.1.0, SVG Export Plug-In . SVG Version: 6.00 Build 0)  -->
<svg version="1.1" id="Layer_1" xmlns="http://www.w3.org/2000/svg" xmlns:xlink="http://www.w3.org/1999/xlink" x="0px" y="0px"
	 viewBox="0 0 400 400" enable-background="new 0 0 400 400" xml:space="preserve">
<g>
	<path d="M143.675,157.417c4.581-4.304,9.516-6.693,12.548-5.647c3.033,1.046,0.837-2.405-1.673-6.274
		c-2.51-3.869-5.751-7.947-8.052-11.607c-1.15-1.83-2.222-3.372-3.006-4.457c-0.785-1.085-1.753-1.219-2.249-0.553
		c-0.574,0.77-1.18,1.771-1.124,2.5c0.105,1.36,0.209,3.869-1.465,6.483c-1.673,2.614-0.418,3.974-1.464,5.751
		c-1.046,1.777-0.523,3.66-1.464,5.542c-0.941,1.882-0.209,3.66-1.464,5.437c-1.255,1.778-1.882,3.973-3.032,4.183
		c-1.15,0.209-2.196-2.509-2.301-7.215c-0.105-4.706-1.359-0.941-2.092,0.105c-0.732,1.046-0.941,4.392-1.778,6.065
		c-0.837,1.673-1.359,3.66-2.509,3.451c-1.15-0.209-2.928-4.287-3.764-10.98c-0.837-6.693-3.033-8.784-6.065-8.679
		c-3.032,0.105-5.438-0.627-6.378-3.869c-0.941-3.241-3.242-3.764-3.66-7.006c-0.418-3.241,1.464-7.006,1.987-11.502
		c0.523-4.497,1.255-9.307,3.137-17.149c1.883-7.843-0.313-10.457-1.882-13.49c-1.028-1.989-0.978-3.887-0.821-4.959
		c0.082-0.563-0.186-1.049-0.77-1.363c-1.356-0.731-3.818-2.34-5.206-4.971c-1.987-3.765-2.719-11.921-2.823-16.836
		c-0.076-3.579-0.627-5.752,2.196-6.065c2.823-0.314,5.542,0.209,8.156,1.882c1.783,1.141,3.956,3.304,5.157,4.564
		c0.56,0.587,1.032,0.069,1.106-0.384c2.416-14.924,12.772-28.225,23.225-38.375c10.771-10.457,13.281-12.025,15.895-10.98
		c2.614,1.046,1.987,3.974-1.673,9.829c-2.745,4.392-5.96,11.667-7.396,15.029c-0.479,1.121-0.151,0.971,0.172,0.545
		c6.589-8.669,18.228-19.165,29.392-24.149c7.13-3.183,14.744-5.437,18.3-3.242c3.555,2.196-1.255,6.588-9.202,14.744
		c-7.947,8.156-14.744,17.254-20.077,25.306c-4.013,6.059-5.598,12.71-6.138,15.632c-0.177,0.96,0.076,1.239,0.656,0.801
		c1.331-1.007,4.045-2.855,7.469-4.093c4.915-1.778,6.797-2.928,8.261,2.301c1.1,3.929,0.842,7.326,0.646,8.772
		c-0.065,0.479,0.478,0.934,0.76,1.041c3.96,1.507,5.704,4.61,8.632,7.441c3.137,3.032,4.288,5.019,6.17,9.515
		c1.882,4.497,5.333,11.294,10.352,15.999c5.019,4.706,25.41,12.862,33.985,16.626c8.574,3.764,12.966,15.895,15.79,21.228
		c2.823,5.333,14.43,12.862,22.378,19.659c7.947,6.797,32.939,31.056,38.167,37.645c3.523,4.439,6.523,8.498,8.106,10.673
		c0.766,1.054,2.279,1.946,2.777,2.058c6.473,1.457,8.574-0.131,12.749-2.17c4.496-2.196,6.379-6.693,6.483-8.366
		c0.079-1.255-0.666-2.569-1.044-3.147c-0.126-0.193,0.17-0.635,0.355-0.756c1.305-0.849,2.405-0.246,2.979,0.233
		c0.275,0.229,0.728-0.038,0.814-0.278c0.693-1.918-1.117-3.975-0.28-4.626c0.683-0.532,2.525,0.757,3.482,1.502
		c0.361,0.281,0.587-0.159,0.603-0.457c0.264-4.796,4.065-5.475,5.64-4.391c1.673,1.15,2.196,3.66,0,4.391
		c-1.098,0.367-1.647,1.621-1.922,2.784c-0.274,1.164-0.04,1.086,0.158,0.628c0.813-1.868,2.429-2.491,3.436-2.576
		c1.255-0.105,0.21,3.242,0.21,3.242s-0.627,0.941,0.209,0c0.557-0.627,1.813,0.047,2.588,0.566c0.387,0.259,0.262,0.73,0.077,0.873
		c-3.892,3.009-4.708,11.195-5.906,15.187c-0.852,2.838-3.436,4.617-5.01,5.468c-0.745,0.403-1.515,1.877-1.732,2.499
		c-1.756,5.036-7.31,9.148-11.871,8.869c-3.62-0.222-7.449-2.688-9.384-4.116c-0.804-0.593-1.13-0.555-0.893,0.566
		c0.418,1.972,1.103,6.008,1.702,13.274c0.941,11.398-0.418,31.684-1.15,42.56c-0.732,10.875,1.045,10.979,4.287,14.639
		c3.242,3.66,7.006,7.111,9.202,11.607c2.196,4.497-0.523,7.842-0.94,14.012c-0.419,6.17,2.091,14.744,4.391,20.809
		c2.301,6.065,0.627,9.62-0.941,10.771c-1.569,1.15-3.974,3.974-2.928,7.634c1.045,3.66,0.105,5.542-3.032,8.156
		c-3.137,2.614-7.634,4.496-10.561,4.496c-2.928,0-4.601-2.091-5.124-6.17c-0.523-4.078,2.091-7.215,4.705-11.502
		c2.615-4.288,3.869-6.902,3.451-12.757c-0.418-5.856-1.673-12.234-6.797-23.632c-3.594-7.995-7.137-12.182-8.932-13.97
		c-0.764-0.762-1.342-0.053-1.392,0.461c-1.308,13.288,3.725,25.219,6.141,33.272c2.509,8.366-0.419,10.875-2.928,12.339
		c-2.509,1.464-4.078,3.765-3.346,6.693c0.732,2.928,0.104,5.856-2.196,8.052c-2.3,2.196-5.762,2.768-8.47,3.033
		c-4.287,0.418-5.542-0.627-6.588-4.079c-1.046-3.451-0.314-7.006,1.673-10.457c1.987-3.451,4.078-4.496,5.02-7.843
		c0.941-3.346,3.032-7.11,2.719-10.98c-0.314-3.869-2.719-9.201-5.333-18.299c-1.409-4.904-2.515-7.925-3.234-9.667
		c-0.615-1.49-1.762-2.822-3.412-4.595c-1.124-1.209-2.635-2.88-4.543-5.084c-3.197-3.694-6.057-8.644-7.561-11.437
		c-0.709-1.318-1.833-2.766-2.918-3.715c-2.155-1.884-5.769-5.104-8.134-7.539c-3.555-3.66-6.483-9.411-7.843-14.012
		c-1.019-3.451-0.558-7.255-0.265-8.941c0.099-0.562-0.296-1.09-1.167-1.468c-2.615-1.135-8.807-3.864-16.519-7.524
		c-10.283-4.88-19.756-12.027-19.756-12.027c11.756,16.484,18.678,36.641,18.678,58.385c0,55.571-45.209,100.78-100.78,100.78
		c-55.57,0-100.779-45.21-100.779-100.78c0-35.795,18.758-67.291,46.961-85.175c0,0-1.105-6.2-0.374-9.964
		c0.732-3.765,5.438-9.725,8.679-11.712c3.242-1.987,8.47-2.509,10.771-3.764c2.3-1.255,6.064-3.451,10.038-7.006
		c3.973-3.556,7.738-5.333,15.477-7.634C133.724,167.625,136.774,163.901,143.675,157.417z M194.496,210.12
		c-2.091-3.555-2.509-3.66-4.915-3.66c-2.405,0-4.031,0.332-4.031,0.332c4.107,2.298,8.036,4.876,11.764,7.706
		C197.314,214.498,196.188,212.995,194.496,210.12z M102.74,199.833c1.762-0.628,3.546-1.208,5.352-1.739
		c0,0-1.299-0.413-3.277-1.24c-0.247-0.103-0.816-0.008-0.968,0.512c-0.078,0.266-0.183,0.584-0.325,0.937
		C103.103,199.35,102.74,199.833,102.74,199.833z M173.059,197.885c-4.288-3.347-6.065-4.705-9.098-4.601
		c-3.033,0.105-6.587-0.732-11.293-2.51c-4.706-1.777-9.83-3.241-13.698-3.764c-2.516-0.34-4.678-0.238-5.883-0.125
		c-0.648,0.061-1.122,0.537-1.618,1.398c-0.21,0.365-0.491,0.812-0.865,1.34c-1.255,1.778-1.898,4.696-1.898,4.696
		c2.568-0.197,5.162-0.298,7.78-0.298c14.656,0,28.591,3.144,41.167,8.795C177.653,202.817,177.347,201.232,173.059,197.885z"/>
	<path fill="#FFFFFF" d="M138.447,50.966c-0.968-1.549-0.418-4.81,1.673-6.692c2.091-1.882,4.183-4.183,5.751-2.614
		c1.569,1.568,0.942-0.314,0.732-1.987c-0.209-1.673,1.255-4.706,3.032-5.856c1.778-1.151,2.719-2.614,2.823-0.837
		c0.105,1.777,1.046-0.105,1.046-2.301c0-2.196,1.778-3.66,3.555-4.706c1.778-1.046,2.406-0.105,2.928,0.836
		c0.523,0.941,0.732-1.777,1.359-2.928c0.627-1.15,2.405-2.823,4.078-3.974c1.673-1.15,1.673,0.314,2.406,0.627
		c0.732,0.314,0.627-1.673,1.882-3.032c1.255-1.359,3.032-2.928,4.601-3.66c1.568-0.732,1.673-0.314,0.941,0.732
		c-0.732,1.046,0.418,1.673,1.882,0.105c1.464-1.569,2.928-2.928,5.02-3.241c2.091-0.314,4.287,0.313,2.928,2.3
		c-1.359,1.987-3.659,1.882-4.496,2.196c-0.837,0.314-1.255,1.36-2.091,3.555c-0.836,2.196-1.15,2.614-3.032,2.51
		c-1.882-0.104-3.032,2.614-4.496,2.823c-1.464,0.209-2.405,1.255-2.614,2.51c-0.209,1.255-1.046,1.882-2.405,3.451
		c-1.36,1.569-2.091,1.777-3.242,0.836c-1.15-0.941-0.732,1.15-0.941,2.405c-0.209,1.255-1.569,2.301-2.509,2.301
		c-0.942,0-1.255,0.523-1.464,2.196c-0.209,1.673,0,3.66-0.105,5.019c-0.105,1.359-0.732,0.627-1.777,0.104
		c-1.046-0.523-2.51,0.523-2.928,1.778c-0.418,1.255-2.091,2.091-1.359,2.823c0.732,0.732,1.15,1.255-0.105,1.778
		c-1.255,0.523-2.3,1.673-1.464,2.614c0.836,0.941,1.882,1.778,1.255,2.51c-0.627,0.732-0.627,2.928-1.569,3.869
		c-0.941,0.941-3.346,3.033-3.555,4.079c-0.209,1.045,0.209,1.882,1.464,1.777c1.255-0.104,1.359,1.464,0.314,2.823
		c-1.045,1.359-0.418,2.614,0.523,2.405c0.942-0.209,1.359,1.987-0.628,2.3c-1.987,0.314-3.66,1.674-4.81,2.614
		c-1.15,0.941-2.614,1.569-3.869,2.197c-1.255,0.627-1.987,1.463,1.15,0.418c3.137-1.045,6.169-1.673,7.529-1.673
		c1.36,0,2.824,0.627,2.824,1.568c0,0.942,1.464,1.882,1.777-1.045c0.314-2.928,1.987-6.378,5.124-8.784
		c3.137-2.405,7.738-4.392,9.307-3.765c1.569,0.627,3.137,3.346,2.197,8.889c-0.942,5.542-3.137,11.921-4.811,14.639
		c-1.673,2.719-3.555,3.451-6.274,5.124c-2.719,1.673-1.359,3.974-0.942,5.228c0.418,1.255,1.15,5.02,2.719,2.091
		c1.568-2.928,2.614-6.797,3.555-6.274c0.941,0.522,2.823,1.777,3.555-2.092c0.732-3.869,1.987-3.764,3.347-3.974
		c1.359-0.209,1.255,1.883-0.523,5.333c-1.778,3.451-3.764,7.424-3.869,8.784c-0.105,1.359,0.732,2.405,2.3,2.405
		c1.569,0,2.092,0.523,1.778,2.405c-0.314,1.882,1.673,4.392,2.196,3.032c0.523-1.359,0.732-4.182,0.627-8.052
		c-0.105-3.869,0.418-7.842,1.464-11.816c1.046-3.973,0.523-7.32,1.465-6.169c0.941,1.15,1.359,2.614,0.941,5.96
		c-0.418,3.346,0.105,5.752,0.837,5.542c0.732-0.209,1.255-3.347,1.568-5.124c0.314-1.778,1.464-4.706,1.778-0.209
		c0.313,4.496,0.94,5.751,1.882,4.914c0.941-0.837,0.941,1.046,1.778,1.778c0.837,0.732,1.36,1.673,1.255,3.241
		c-0.105,1.569-0.105,5.752-0.105,7.425c0,1.673,0.105,2.091-1.046,1.987c-1.151-0.105-1.882,1.359-1.359,3.033
		c0.523,1.673,0.209,3.555,1.464,3.346c1.255-0.21,2.092,0.732,3.032,0.209c0.942-0.523,1.359-1.778,1.15-4.078
		c-0.209-2.3-0.941-6.483-0.941-7.424c0-0.941,0.627-1.987,1.255-0.732c0.627,1.255,1.045,3.764,2.405,3.764
		c1.36,0,1.882,1.464,2.092,2.197c0.209,0.731,1.568,1.045,2.091,0.627c0.523-0.418,2.823,1.882,3.241,4.496
		c0.418,2.614,0.628,3.869,1.569,2.823c0.94-1.046,3.241-1.359,4.914,2.196c1.673,3.555,2.823,6.17,3.869,5.229
		c1.046-0.941,2.092-0.105,3.451,1.15c1.36,1.255,2.614,1.151,2.405-0.314c-0.209-1.464,1.255-2.301,2.196,0.314
		c0.941,2.614,1.36,8.052,0.837,9.725c-0.523,1.673-0.732,0.627-1.046-1.359c-0.314-1.987-1.882-2.719-2.196-1.987
		c-0.314,0.733-0.418,3.556-0.523,5.124c-0.104,1.568-0.732,1.778-2.195,2.092c-1.465,0.313-2.301,2.196-1.987,4.078
		c0.313,1.882,0.313,4.601,1.359,5.542c1.046,0.941,0.941,2.614,1.883,1.777c0.94-0.836,2.195-0.941,2.718,3.555
		c0.523,4.497,1.778,6.274,1.778,7.843c0,1.568-1.568,1.359-2.091,2.614c-0.523,1.254-1.36,3.764-1.674,4.287
		c-0.313,0.523-0.209,3.346,0.941,5.542c1.15,2.196,2.301,4.496,2.823,3.555c0.523-0.941-1.464-4.601-1.464-6.483
		c0-1.882,1.046-2.614,2.091-2.614c1.046,0,1.255,1.986,1.255,3.66c0,1.673,1.046,3.974,2.51,2.301
		c1.464-1.673,0.837-5.229,1.15-6.692c0.314-1.464,2.406-2.301,2.406-2.928c0-0.627,1.882,0,2.719,0.523
		c0.836,0.523,1.987,0.523,1.778-2.51c-0.209-3.032-1.255-4.915-1.673-4.915c-0.418,0-2.51,3.032-2.719,1.15
		c-0.209-1.882-1.255-4.601-2.615-6.797c-1.359-2.196-1.464-5.332-1.464-7.11c0-1.778,0.209-1.464,1.778,1.255
		c1.568,2.719,1.15,0.941,0.627-2.719c-0.523-3.66-1.15-7.529-0.418-8.157c0.731-0.627,1.568,2.196,2.51,5.752
		c0.941,3.555,2.091,8.157,2.928,8.052c0.837-0.105,1.673-1.568,2.719,0.209c1.046,1.778,1.359,0,2.301-2.928
		c0.94-2.928,1.463-1.15,2.823,4.078c1.36,5.229,1.987,7.215,2.614,5.856c0.628-1.36,2.196-0.523,3.765,2.614
		c1.568,3.138,2.928,4.079,3.869,4.079c0.941,0,1.882,1.255,1.987,2.823c0.104,1.568,1.777,1.464,3.346,1.464
		c1.568,0,3.032-0.418,2.718,1.046c-0.313,1.464-1.045,3.242,0.419,3.66c1.464,0.418,0.732-1.464,0.836-2.928
		c0.105-1.463,2.091-2.091,2.823,0.209c0.732,2.3,0.837,4.915,1.673,5.856c0.836,0.941,1.046,3.033,1.255,4.705
		c0.209,1.673,0.418,3.556,1.15,2.614c0.732-0.941,1.673,0.209,1.673,1.778c0,1.568,0.941,3.764,1.569,3.242
		c0.627-0.523,1.882-0.732,1.777,0.313c-0.105,1.046,0.105,1.569,1.359-0.104c1.255-1.673,3.033-0.21,3.346,1.15
		c0.314,1.36,1.882,3.137,2.824,0.628c0.94-2.51,0.523-5.124-0.837-7.529c-1.359-2.405-1.882-0.627-3.032-1.255
		c-1.151-0.627-4.183-0.208-4.601-1.882c-0.419-1.673-1.36-3.032-2.614-3.555c-1.255-0.523-2.197-2.405-0.314-3.764
		c1.882-1.359,3.66-1.046,5.124,1.15c1.464,2.196,3.137,2.928,4.915,2.928c1.778,0,2.51,0.627,3.974,2.823
		c1.464,2.196,4.183,3.346,5.019,5.437c0.837,2.092,3.869,3.451,3.869,4.811c0,1.359,0.627,3.973,1.987,5.646
		c1.359,1.674,1.359,4.079,0.314,4.811c-1.046,0.732-2.928,0.314-3.764,1.777c-0.836,1.464-0.418,3.033-0.105,3.974
		c0.314,0.941,1.778,4.392,2.091,2.824c0.314-1.569,1.36-4.183,1.882-2.615c0.523,1.568,1.36,3.137,2.196,1.778
		c0.837-1.36,1.046-1.882,1.673-1.882c1.076,0,0.837,2.719,2.091,2.719c1.255,0,3.451,0.941,4.496,0.313
		c1.046-0.627,2.301-1.463,2.614,0.314c0.314,1.778,0.418,3.974,1.987,3.974c1.569,0,2.719,0.209,2.614,1.778
		c-0.105,1.568,0.837,2.405,1.883,3.032c1.046,0.627,1.986,0.941,0.731,1.046c-1.255,0.105-1.882,1.987-1.046,2.614
		c0.837,0.627,2.405,2.405,0.732,2.928c-1.673,0.522-0.627,1.464,0.627,2.51c1.255,1.046-0.209,1.673-0.942,1.673
		c-0.732,0-2.195-1.778-2.928-0.418c-0.732,1.359-1.15,2.823-1.673,1.046c-0.523-1.778-2.196-1.255-2.196,0.837
		s-0.941,4.914-0.523,5.855c0.418,0.941,1.986,1.569,2.719,0.628c0.732-0.941,0.837,0.941,0.941,1.882
		c0.105,0.941,1.568,2.719,2.51,3.137c0.942,0.418,2.824,0,0.837,1.987c-1.987,1.987-2.405,4.496-3.765,6.693
		c-1.359,2.196-1.882,4.182-1.778,5.228c0.105,1.046,1.359,1.778,2.614,1.882c1.255,0.104,0.837,1.882,1.883,2.614
		c1.046,0.732,0.731,2.405,1.463,3.869c0.732,1.463-0.418,2.51,0,3.765c0.419,1.255-0.104,2.614,1.778,3.241
		c1.882,0.627,1.15,0.837,1.15,1.882c0,1.046,0.732,3.241,1.255,3.556c0.523,0.314-1.15,1.568-0.837,3.137
		c0.313,1.569,1.778,2.51,1.359,3.765c-0.418,1.255-1.359,0.418-2.301-0.418c-0.941-0.837-2.091,0.418-3.869-1.15
		c-1.778-1.569-2.824-1.464-3.242,0c-0.418,1.464,0.209,3.032,1.673,3.032c1.464,0,3.242,0.523,4.078,1.15
		c0.836,0.627,1.882,3.032,0.314,2.719c-1.568-0.314-2.405,1.045-1.777,1.777c0.627,0.733,2.719,1.359,2.614,2.405
		c-0.105,1.046,1.255,2.092,1.987,3.137c0.732,1.045,1.255,1.883,1.15,3.869c-0.104,1.987,0.941,1.778,1.987,1.987
		c1.046,0.209,1.359,1.046,1.359,2.405c0,1.359,0.732,1.882,2.196,1.882c1.464,0,1.987,1.255,2.091,2.509
		c0.105,1.255,1.673,1.568,2.092,3.137c0.418,1.569,2.719,3.869,2.823,6.17c0.105,2.3,0.732,3.869,0.941,5.124
		c0.209,1.255-0.314,2.615-0.314,3.765c0,1.15-0.732,2.196,0,3.242c0.732,1.045,1.569,1.359,1.464,3.555
		c-0.105,2.196,0.732,4.601,1.777,4.706c1.045,0.105-0.209,1.255-0.418,2.196c-0.209,0.941,0.314,2.3,0.732,3.346
		c0.419,1.046,1.151,2.405,1.151,4.706c0,2.3-0.419,4.392,0.418,5.96c0.837,1.569,1.255,2.301,0.418,3.346
		c-0.836,1.046-2.091,0.732-2.823,2.301c-0.732,1.568,0.208,2.928-0.523,4.078c-0.732,1.15-2.091,0.313-3.033,1.046
		c-0.941,0.732,0.105,1.986-0.418,3.451c-0.523,1.464-1.778,3.137-3.66,3.556c-1.882,0.418-3.45,0-3.555-1.778
		c-0.105-1.778-0.105-3.869,1.673-6.379c1.778-2.51,2.405-5.856,3.869-7.529c1.464-1.673,2.823-3.451,2.301-9.202
		c-0.523-5.751-2.3-14.745-4.183-19.764c-1.882-5.019-7.738-15.476-11.189-19.868c-3.451-4.392-10.247-8.47-12.548-10.666
		c-2.3-2.195-1.359-4.182-3.241-4.705c-1.883-0.524-3.138-0.941-3.033-2.615c0.104-1.673-0.941-3.242-2.3-3.242
		c-1.359,0-3.451-3.556-6.17-6.484c-2.719-2.928-6.274-5.646-6.797-7.424c-0.523-1.778,0.419-3.974-1.568-3.974
		c-1.987,0-2.823-1.674-4.078-2.719c-1.255-1.046-0.523-2.301-1.255-2.615c-0.732-0.314-1.36-1.359-1.15-2.614
		c0.209-1.255-1.778-2.091-0.627-4.287c1.15-2.196,0.209-2.405-0.419-3.137c-0.627-0.732-0.314-2.823-0.104-5.542
		c0.209-2.719-0.627-5.438-0.314-8.366c0.314-2.928,0.523-3.764-1.15-6.901c-1.674-3.137-2.51-4.497-3.765-6.065
		c-1.255-1.568-2.928-3.66-3.241-1.882c-0.314,1.777-0.209,3.765,0.836,6.064c1.046,2.301,0.627,4.183-0.523,2.301
		c-1.15-1.882-2.823-3.346-4.287-1.15c-1.464,2.196-2.824,3.869-3.66,2.405c-0.836-1.464-0.836-3.241-2.3-3.137
		c-1.464,0.105-2.301,0.941-2.51,1.987c-0.209,1.046,0.423,3.157-0.523,3.346c-0.523,0.104-2.3-1.569-3.032-1.359
		c-0.732,0.208-1.882-0.837-2.405-2.719c-0.523-1.882-0.419-4.392-1.36-4.287c-0.941,0.105-0.627,1.777-0.627,4.078
		c0,2.3-0.627,1.673-1.255-0.523c-0.627-2.196-1.151-4.182-1.883-4.601c-0.732-0.419-1.254,0.941-1.359,2.51
		c-0.104,1.568-1.046-1.15-1.151-4.288c-0.105-3.137-1.15-5.961-2.195-6.797c-1.046-0.837-2.51-0.523-2.614-2.301
		c-0.105-1.777-2.196-2.718-2.824-3.555c-0.627-0.837,0-3.869-1.255-4.81c-1.255-0.941-2.405-1.987-2.301,0.732
		c0.105,2.719,0.419,5.96,1.255,10.143c0.837,4.183-0.104,3.973-0.941,0.627c-0.837-3.346-2.823-9.516-3.032-12.025
		c-0.209-2.51-1.673-3.764-2.719-3.869c-1.046-0.105-2.614,0.627-2.301,2.824c0.314,2.196,1.673,6.588,2.51,9.829
		c0.836,3.242,0.836,5.856-0.209,5.437c-1.046-0.418-1.568-3.659-2.091-5.228c-0.523-1.568-2.092-3.346-2.092-6.692
		c0-3.346-1.882-4.078-1.255-6.065s0-4.915-0.209-7.529c-0.209-2.614-2.091-4.705-2.718-3.346c-0.628,1.359-0.942,4.183-0.732,8.157
		c0.209,3.974,1.15,9.098,1.045,10.666c-0.105,1.569-0.836,1.045-2.091-2.928c-1.255-3.974-1.359-5.96-1.359-8.993
		c0-3.033,1.568-4.288,1.255-6.693c-0.314-2.405-1.255-3.555-2.614-4.392c-1.359-0.836-1.987-0.418-2.405,1.046
		c-0.418,1.464-0.94,0.418-0.94-2.824c0-3.242-0.628-5.96-0.837-9.097c-0.21-3.137-0.314-3.555-1.569-4.497
		c-1.255-0.941-1.778-0.313-1.778,2.196c0,2.51,0.418,6.065-0.209,10.352c-0.627,4.287-0.836,6.901-1.464,10.248
		c-0.627,3.346-0.837,4.601-2.3,3.66c-1.464-0.941-2.091,0.314-3.346-1.046c-1.255-1.36-1.673-0.628-1.882,0.941
		c-0.209,1.568-1.464,2.091-2.614,1.673c-1.151-0.418-2.196-1.464-1.255-2.51c0.941-1.046,0.209-1.255-2.719-1.987
		c-2.928-0.732-5.019-0.209-5.228-2.614c-0.209-2.405,0.209-3.66-1.777-3.451c-1.987,0.209-1.359-1.255-2.928-2.823
		c-1.568-1.569-0.732-2.928-1.777-3.556c-1.045-0.627-0.732-1.359,0-2.196c0.732-0.837,0-2.615-1.464-2.719
		c-1.464-0.105-2.3-1.255-2.51-2.614c-0.209-1.359-0.523-2.614-3.032-2.51c-2.51,0.104-3.451-1.882-5.02-2.614
		c-1.568-0.732-1.778,0-3.764-1.882c-1.987-1.882-3.137-1.778-3.869-0.418c-0.732,1.359-2.719,0.941-4.601,1.046
		c-1.882,0.105-3.346,0.313-4.182,2.091c-0.837,1.777-1.464,2.614-2.823,3.241c-1.359,0.627-2.405,1.464-3.032,2.51
		c-0.627,1.046-2.301,1.359-2.196,2.823c0.105,1.464-0.627,3.242-2.3,4.288c-1.673,1.045-4.915,0.314-6.797,0.523
		c-1.882,0.209-4.078,0.104-5.438,1.987c-1.36,1.882-2.091,2.196-2.928,2.196c-0.837,0-1.987,1.568-1.987,3.032
		c0,1.464-1.569,1.987-2.614,1.778c-1.046-0.209-2.405-1.673,0.105-4.706c2.51-3.032,6.902-6.378,10.561-9.934
		c3.66-3.555,4.601-3.451,6.379-5.02c1.778-1.568,4.497-1.987,6.588-3.869c2.091-1.882,4.601-5.123,6.588-6.065
		c1.987-0.941,4.915-0.836,5.437-3.346c0.523-2.51,0.837-3.87,2.614-4.811c1.777-0.941,4.183-1.778,5.542-2.196
		c1.359-0.418,3.869,1.255,6.692,4.183c2.823,2.928,4.705,5.856,6.065,7.633c1.36,1.778,3.033,3.973,4.601,3.346
		c1.568-0.627,4.182-0.627,4.915,0c0.732,0.627,2.614,2.719,4.078,3.87c1.465,1.15,2.197-0.314,3.033-0.105
		c0.837,0.209,1.987,0.105,1.255-1.882c-0.732-1.986,0.523-3.137,1.255-1.568c0.732,1.568,2.405,0,0.941-1.569
		c-1.464-1.568-0.314-4.601,1.046-3.136c1.359,1.464,2.719,0.836,1.464-1.046c-1.255-1.882-2.823-3.764-3.241-5.123
		c-0.419-1.36,1.463-3.242,3.137,0.418c1.673,3.66,3.242,5.333,2.928,2.614c-0.313-2.719,1.465-2.928,1.255-4.183
		c-0.209-1.255-1.568-2.613-2.195-4.287c-0.627-1.673-1.883-0.941-3.033-1.569c-1.15-0.627-0.836-2.614-1.778-2.719
		c-0.941-0.105-1.464,1.569-0.837,3.242c0.628,1.673-0.104,2.195-1.568,2.928c-1.464,0.732-2.928,1.882-3.033,3.137
		c-0.104,1.255-1.568,1.777-1.045,4.915c0.523,3.137,0.209,4.287-1.046,2.928c-1.255-1.359-0.524-4.81-2.196-6.169
		c-1.673-1.359-1.359-3.66-1.568-5.124c-0.209-1.464-2.405-1.569-2.196-2.824c0.209-1.255-0.418-2.196-1.255-2.51
		c-0.837-0.314-1.15-1.15-0.941-3.346c0.209-2.196-0.209-3.869-2.196-5.542c-1.987-1.673-2.51-1.987-3.555-0.209
		c-1.046,1.777-0.209-0.628-0.314-3.451c-0.104-2.824-1.255-4.706-2.509-5.02c-1.255-0.314-1.673-1.882-2.614-2.3
		c-0.941-0.419-2.823,2.405-3.032,0.523c-0.209-1.882-1.255-2.509-2.405-1.568c-1.15,0.941-2.3,0.104-0.732-4.288
		c1.568-4.392,4.182-7.842,4.392-9.097c0.209-1.255-0.105-2.614-1.673-3.973c-1.568-1.36-1.255-2.614-1.673-3.66
		c-0.418-1.046-1.568-2.823-2.405-1.673c-0.837,1.15,0.209,2.091,0.418,3.346c0.21,1.255-1.045,1.463-1.15,3.555
		c-0.105,2.091-1.046,2.405-2.719,0.523c-1.673-1.882-1.882-3.241-1.882-4.915c0-1.673,0-4.183,1.255-4.287
		c1.255-0.105,2.405,0.314,2.405-0.941c0-1.255,0.209-2.301,1.36-2.301c1.15,0,2.196-1.15,1.464-3.241
		c-0.732-2.091-1.673-3.556-2.928-2.824c-1.255,0.732-1.359,2.509-2.3,3.764c-0.942,1.255-2.509,1.359-3.764,2.091
		c-1.255,0.732-2.719,2.928-2.092,3.974c0.627,1.046,0.314,3.555-0.418,2.823c-0.732-0.732-1.882,0.105-1.882,3.033
		c0,2.927-1.464,3.137-1.987,4.81c-0.523,1.673-4.915,2.51-5.228,4.705c-0.314,2.197-0.105,4.079-1.36,5.333
		c-1.255,1.255-1.464,3.138-3.974,3.138c-2.51,0-2.928,1.777-3.451,3.346c-0.523,1.569-2.719,2.51-4.497,3.765
		c-1.777,1.255-3.346,1.778-5.438,1.568c-2.092-0.208-5.333,0.314-6.378-2.719c-1.046-3.032-3.137-3.451-3.241-5.124
		c-0.105-1.673,0.105-2.301,1.673-3.555c1.569-1.255,0.837-4.183,0.627-6.274c-0.209-2.091-0.732-4.496,0.837-6.378
		c1.569-1.882,1.15-3.346,2.614-5.542c1.464-2.196,0.523-6.065,0.837-8.575c0.313-2.51-0.733-4.601-0.733-7.11
		c0-2.51-0.732-5.647-1.046-7.111c-0.314-1.464,0.105-2.719,1.673-4.183c1.568-1.463,1.359-2.405,1.255-3.346
		c-0.105-0.942,2.405,0.941,4.288,0.941c1.882,0,3.032,0,4.496-1.255c1.463-1.255,1.045-2.405-0.837-2.405
		c-1.882,0-5.124-0.941-6.17-2.092c-1.046-1.15-0.836-1.987,0.419-1.987c1.254,0,1.254-2.091,0.104-3.242
		c-1.15-1.15-2.614-3.555-2.091-4.496c0.523-0.941,2.196-1.464,2.928-2.719c0.732-1.255-0.104-3.973,0.837-5.437
		c0.941-1.464,1.51-0.267,3.242,1.15c1.15,0.941,1.15-2.614,0.314-3.66c-0.837-1.046-0.418-3.033,0.209-5.647
		c0.627-2.614,1.882-0.209,3.556,0.523c1.673,0.732,0.208-4.183,0.627-6.274c0.418-2.091,1.987-3.555,2.614-2.928
		c0.627,0.627,2.196,0.418,2.196-2.196c0-2.614,1.046-5.228,2.092-3.974c1.045,1.255,1.673,1.046,1.673-0.628
		c0-1.673,0.627-3.033,1.673-3.137c1.046-0.105,2.824,0.209,3.033-0.627c0.209-0.837,0.941-4.078,1.882-4.601
		c0.941-0.523,2.823-1.15,4.078-4.078c1.255-2.928,2.614-3.869,3.556-3.869c0.941,0,1.673,0.105,0.627,1.673
		c-1.046,1.568-2.509,3.451-3.032,5.542c-0.524,2.091-2.301,3.451-3.765,5.019c-1.464,1.569-2.3,3.033-4.392,4.81
		c-2.092,1.778-3.242,4.392-3.242,6.274c0,1.882-1.046,3.346-1.778,4.287c-0.732,0.941-2.823,1.987-2.823,4.078
		c0,2.091-0.941,3.137-1.568,3.66c-0.627,0.523-1.255,1.673-1.987,4.183c-0.731,2.51-0.627,2.405-1.673,1.15
		c-1.045-1.255-2.092,2.509-2.3,4.915c-0.128,1.473,1.882,2.091,1.463,4.078c-0.418,1.986-0.418,3.346-1.359,4.81
		c-0.941,1.464-0.836,3.033,0.837,2.719c1.673-0.314,2.405-0.941,2.405,1.569c0,2.51,1.046,2.091,2.51,3.451
		c1.464,1.359,2.405,3.032,3.137,1.359c0.732-1.673,0.418-2.3-0.836-3.765c-1.255-1.464-1.778-3.869-2.092-5.333
		c-0.313-1.464,1.883-2.196,1.987-3.974c0.105-1.778,0.627-3.764,1.046-3.555c0.418,0.209,2.823,1.568,3.66,1.777
		c0.837,0.209,2.824-1.15,0.732-2.091c-2.092-0.941-2.824-3.451-2.614-5.228c0.209-1.777,1.777-5.228,3.346-4.915
		c0.523,0.104,2.928,1.046,3.973,2.405c1.046,1.359,2.823,3.033,2.823,2.301c0-0.732-1.046-2.509-2.405-3.555
		C139.388,51.803,138.97,51.803,138.447,50.966z"/>
	<path fill="#E92A25" d="M87.601,355.164c-17.572-14.259-28.822-36.022-28.822-60.362c0-34.928,23.163-64.547,54.935-74.304
		l0.029-0.001c-1.787,7.835-3.468,15.206-3.814,16.725c-1.752-1.884-5.625-6.048-5.625-6.048c-0.278-0.298-0.702-0.408-1.09-0.282
		c-0.387,0.126-0.666,0.465-0.714,0.869l-6.146,51.009l-0.011,0.036l-32.422,12.498c-0.41,0.158-0.681,0.592-0.672,1.033
		c0.36,17.481,6.982,34.283,18.648,47.311c0.29,0.324,0.777,0.462,1.182,0.305l6.189-2.386l-0.003,0.039l-1.635,13.577
		L87.601,355.164z"/>
	<path fill="#E92A25" d="M185.344,355.193l-5.829-48.379l-0.003-0.032l29.557-11.394c0.405-0.157,0.672-0.571,0.669-1.006
		c-0.098-17.5-6.468-34.406-17.937-47.605c-0.289-0.332-0.775-0.469-1.186-0.311l-17.561,6.77l0.003-0.024l-2.585-21.452
		c-0.048-0.404-0.327-0.743-0.714-0.869c-0.387-0.126-0.811-0.016-1.089,0.282c0,0-3.873,4.164-5.625,6.048
		c-0.347-1.519-2.027-8.889-3.814-16.724l0.037,0.003c31.768,9.759,54.928,39.376,54.928,74.301
		c0,24.339-11.248,46.101-28.819,60.36L185.344,355.193z"/>
	<path fill="#E92A25" d="M148.32,217.988c-1.915,8.759-3.92,17.926-4.558,20.846c-0.974-2.819-2.096-6.068-2.096-6.068
		c-0.141-0.407-0.517-0.687-0.947-0.703c-0.43-0.017-0.827,0.231-1,0.626c0,0-2.093,4.787-3.233,7.394
		c-1.14-2.608-3.233-7.394-3.233-7.394c-0.173-0.394-0.57-0.643-1-0.626c-0.43,0.017-0.806,0.296-0.946,0.703
		c0,0-1.123,3.249-2.096,6.068c-0.639-2.92-2.643-12.088-4.558-20.847l0.025,0.004c3.852-0.59,7.795-0.895,11.809-0.895
		c4.009,0,7.947,0.305,11.794,0.893L148.32,217.988z"/>
	<path fill="#FFFFFF" d="M190.67,248.688c10.703,12.566,16.704,28.495,16.958,45.015c-1.356,0.523-123.262,47.516-124.614,48.036
		c-10.899-12.409-17.143-28.245-17.644-44.75C66.739,296.461,189.297,249.217,190.67,248.688z"/>
	<path fill="#E92A25" d="M104.903,337.924c-0.12,0.046-0.218,0.138-0.27,0.256l-9.316,20.918c-0.109,0.245,0.001,0.533,0.246,0.642
		l2.826,1.258c0.118,0.052,0.252,0.056,0.372,0.01c0.121-0.046,0.218-0.138,0.27-0.257c0,0,3.026-6.791,3.186-7.152
		c0.317-0.113,3.164-1.133,3.964-1.419c0.197,1.026,2.535,13.188,2.535,13.188c0.03,0.156,0.134,0.288,0.279,0.352l3.671,1.635
		c0.166,0.074,0.36,0.049,0.503-0.065c0.116-0.094,0.181-0.233,0.181-0.379c0-0.032-0.004-0.065-0.01-0.098
		c0,0-3.145-15.262-3.306-16.042c0.738-0.271,12.081-4.425,12.081-4.425c0.186-0.068,0.312-0.242,0.319-0.44
		c0-0.006,0-0.011,0-0.016c0-0.192-0.112-0.366-0.288-0.445l-3.904-1.738c-0.118-0.052-0.252-0.056-0.372-0.01
		c0,0-11.683,4.483-13.559,5.203c0.763-1.715,4.038-9.068,4.038-9.068c0.029-0.064,0.043-0.131,0.043-0.197
		c0-0.186-0.108-0.364-0.289-0.445l-2.826-1.258C105.157,337.882,105.024,337.878,104.903,337.924z"/>
	<path fill="#E92A25" d="M116.993,356.923L116.993,356.923c-0.57,4.623,0.9,12.748,10.026,13.873
		c3.296,0.407,6.117-0.284,8.383-2.053c2.5-1.95,4.261-5.303,4.713-8.968c0.57-4.624-0.9-12.748-10.026-13.874
		C120.964,344.776,117.563,352.3,116.993,356.923z M127.474,367.109L127.474,367.109c-1.988-0.245-3.634-1.137-4.76-2.581
		c-1.373-1.759-1.937-4.279-1.59-7.096c0.656-5.322,3.998-8.401,8.511-7.844c1.988,0.245,3.635,1.138,4.761,2.581
		c1.373,1.759,1.937,4.279,1.59,7.096c-0.348,2.817-1.508,5.124-3.266,6.497C131.276,366.889,129.462,367.354,127.474,367.109z"/>
	<path fill="#E92A25" d="M143.96,346.478l-3.028,0.634c-0.263,0.055-0.431,0.313-0.376,0.576l4.692,22.413
		c0.055,0.263,0.313,0.431,0.575,0.376l14.391-3.012c0.126-0.027,0.236-0.102,0.308-0.21c0.07-0.107,0.095-0.239,0.069-0.365
		l-0.562-2.685c-0.055-0.263-0.313-0.431-0.575-0.376c0,0-10.014,2.096-10.887,2.279c-0.19-0.906-4.031-19.253-4.031-19.253
		c-0.026-0.126-0.102-0.237-0.21-0.307C144.217,346.476,144.085,346.452,143.96,346.478z"/>
	<path fill="#E92A25" d="M169.607,336.609l-2.698,1.306c-0.116,0.056-0.205,0.157-0.248,0.278c-0.018,0.052-0.027,0.106-0.027,0.159
		c0,0.073,0.016,0.145,0.049,0.212c0,0,6.192,12.792,7.36,15.204c-2.304-1.463-17.025-10.809-17.025-10.809
		c-0.142-0.09-0.321-0.101-0.473-0.027l-3.301,1.598c-0.241,0.117-0.342,0.408-0.225,0.649l9.977,20.611
		c0.117,0.242,0.408,0.343,0.65,0.226l2.699-1.306c0.116-0.056,0.205-0.157,0.247-0.278c0.018-0.052,0.027-0.106,0.027-0.16
		c0-0.072-0.016-0.145-0.049-0.212c0,0-6.216-12.84-7.37-15.224c2.289,1.429,17.211,10.748,17.211,10.748
		c0.142,0.088,0.319,0.098,0.469,0.025l3.13-1.515c0.241-0.117,0.342-0.408,0.225-0.65l-9.978-20.611
		C170.14,336.594,169.848,336.493,169.607,336.609z"/>
	<path fill="#E92A25" d="M37.798,294.802c0-54.417,44.271-98.688,98.688-98.688c54.417,0,98.688,44.272,98.688,98.688
		c0,54.418-44.271,98.69-98.688,98.69C82.07,393.491,37.798,349.22,37.798,294.802z M156.456,208.341
		c-1.177-5.163-2.036-8.928-2.036-8.928c-0.109-0.478-0.535-0.816-1.024-0.813c-0.49,0.002-0.912,0.344-1.017,0.822
		c0,0-0.698,3.194-1.702,7.783l-0.033-0.007c-4.612-0.742-9.34-1.129-14.158-1.129c-4.819,0-9.548,0.387-14.16,1.129l-0.031,0.004
		c-1.003-4.589-1.701-7.78-1.701-7.78c-0.105-0.479-0.527-0.82-1.017-0.822c-0.49-0.002-0.915,0.336-1.024,0.813
		c0,0-0.859,3.764-2.036,8.927l-0.038,0.004c-39.324,9.097-68.724,44.408-68.724,86.457c0,48.927,39.805,88.733,88.732,88.733
		c48.927,0,88.732-39.805,88.732-88.733c0-42.054-29.407-77.369-68.739-86.46L156.456,208.341z"/>
	<path fill="#FFFFFF" d="M157.019,210.619c37.896,9.243,66.107,43.481,66.107,84.183c0,47.774-38.867,86.641-86.64,86.641
		c-47.774,0-86.64-38.868-86.64-86.641c0-40.708,28.22-74.949,66.125-84.186l0.028-0.005c-0.543,2.379-1.13,4.956-1.72,7.54
		l-0.016,0.002c-33.222,9.647-57.575,40.358-57.575,76.65c0,44.001,35.797,79.799,79.798,79.799
		c44.001,0,79.799-35.798,79.799-79.799c0-36.287-24.347-66.995-57.563-76.646l-0.029-0.01c-0.589-2.583-1.177-5.158-1.718-7.536
		L157.019,210.619z"/>
	<path fill="#FFFFFF" d="M150.229,209.254c-0.453,2.074-0.95,4.349-1.463,6.691l-0.02-0.001c-3.998-0.619-8.092-0.94-12.26-0.94
		c-4.164,0-8.255,0.32-12.249,0.938l-0.029,0.009c-0.512-2.344-1.009-4.619-1.464-6.695l0.028-0.011
		c4.467-0.714,9.048-1.084,13.714-1.084c4.665,0,9.246,0.371,13.714,1.084L150.229,209.254z"/>
	<circle fill="#E92A25" cx="109.275" cy="324.331" r="3.601"/>
	<path d="M107.604,319.995c-2.391,0.921-3.586,3.616-2.665,6.007c0.447,1.158,1.317,2.074,2.452,2.577
		c1.134,0.504,2.397,0.535,3.555,0.089c1.843-0.711,2.976-2.476,2.976-4.342c0-0.555-0.101-1.119-0.312-1.666
		c-0.446-1.158-1.316-2.073-2.451-2.576C110.025,319.58,108.762,319.548,107.604,319.995z M108.238,326.667
		c-0.623-0.277-1.102-0.781-1.348-1.417c-0.507-1.315,0.151-2.797,1.465-3.303c0.638-0.246,1.332-0.229,1.956,0.048
		c0.624,0.277,1.102,0.78,1.348,1.417c0,0,0,0.001,0,0.001c0.507,1.314-0.15,2.795-1.466,3.303
		C109.557,326.961,108.863,326.944,108.238,326.667z M113.61,322.66L113.61,322.66C113.61,322.66,113.61,322.66,113.61,322.66
		L113.61,322.66z"/>
	<path fill="#E92A25" d="M188.396,298.958c-0.139,0.058-0.278,0.116-0.418,0.171c-11.605,4.662-23.487,2.182-28.578-11.023
		c-4.379-11.361,1.021-25.609,12.718-30.119c4.917-1.895,11.501-2.932,17.356-0.804l-0.261,10.324
		c-4.644-2.386-9.755-2.566-13.71-0.739c-6.314,2.918-9.935,11.042-7.322,17.953c3.637,9.617,15.689,5.625,16.195,5.429
		c1.443-0.555,2.92-1.11,4.289-1.781L188.396,298.958z"/>
	<path d="M171.742,257.011c-11.803,4.55-18.026,19.256-13.318,31.471c2.264,5.873,6.049,10.104,10.947,12.236
		c5.403,2.351,12.149,2.131,18.995-0.619l0.434-0.177c0.385-0.157,0.63-0.522,0.64-0.938c0,0,0.27-10.607,0.27-10.616
		c0-0.356-0.181-0.687-0.481-0.88c-0.308-0.197-0.696-0.219-1.024-0.059c-1.218,0.597-2.56,1.113-3.858,1.611L184,289.174
		c-0.057,0.022-5.907,2.064-10.48,0.001c-2.029-0.915-3.496-2.538-4.361-4.824c-2.356-6.229,0.751-13.846,6.782-16.634
		c3.756-1.736,8.539-1.466,12.794,0.72c0.32,0.164,0.702,0.153,1.011-0.03c0.31-0.184,0.503-0.514,0.512-0.874l0.261-10.324
		c0.012-0.449-0.265-0.856-0.688-1.009C182.405,253.501,174.708,255.868,171.742,257.011z M170.207,298.8
		c-4.436-1.93-7.743-5.655-9.831-11.07c-4.308-11.175,1.355-24.617,12.119-28.767c2.649-1.021,9.369-3.081,15.913-1.015
		c-0.028,1.129-0.149,5.925-0.201,7.972c-4.437-1.829-9.245-1.902-13.142-0.101c-6.99,3.231-10.59,12.057-7.861,19.273
		c1.073,2.836,2.92,4.857,5.492,6.007c5.384,2.405,11.993,0.053,12.058,0.028l0.344-0.133c0.821-0.316,1.654-0.648,2.48-0.998
		c-0.055,2.172-0.183,7.228-0.21,8.24C181.118,300.693,175.034,300.9,170.207,298.8z M188.367,300.099L188.367,300.099
		L188.367,300.099z"/>
	<path fill="#E92A25" d="M119.804,324.334l1.171-45.559c0,0,21.599-8.326,27.488-10.596l-0.259,10.186l-17.983,6.932l-0.28,11.081
		l14.239-5.489l-0.259,10.186l-14.247,5.491l-0.359,14.101L119.804,324.334z"/>
	<path d="M148.087,267.204L120.598,277.8c-0.395,0.152-0.658,0.527-0.669,0.949l-1.172,45.559c-0.009,0.349,0.157,0.68,0.443,0.881
		c0.285,0.202,0.652,0.247,0.978,0.121l9.511-3.666c0.394-0.152,0.659-0.526,0.669-0.949c0,0,0.309-12.141,0.341-13.402
		c1.186-0.457,13.596-5.241,13.596-5.241c0.394-0.152,0.658-0.527,0.669-0.949c0,0,0.259-10.204,0.259-10.212
		c0-0.34-0.165-0.658-0.443-0.854c-0.286-0.201-0.653-0.247-0.979-0.121c0,0-10.424,4.018-12.778,4.926
		c0.054-2.14,0.197-7.777,0.223-8.818c1.21-0.467,17.331-6.681,17.331-6.681c0.394-0.152,0.658-0.527,0.669-0.95
		c0,0,0.26-10.204,0.26-10.212c0-0.34-0.165-0.658-0.443-0.854C148.78,267.123,148.413,267.078,148.087,267.204z M147.378,269.719
		c-0.052,2.061-0.176,6.911-0.202,7.923c-1.21,0.466-17.33,6.681-17.33,6.681c-0.395,0.152-0.659,0.526-0.67,0.949
		c0,0-0.281,11.099-0.281,11.108c0,0.339,0.165,0.658,0.443,0.855c0.286,0.201,0.653,0.246,0.979,0.121
		c0,0,10.425-4.019,12.778-4.925c-0.053,2.061-0.175,6.911-0.201,7.922c-1.186,0.457-13.596,5.241-13.596,5.241
		c-0.394,0.152-0.658,0.527-0.669,0.95c0,0-0.309,12.141-0.341,13.402c-0.944,0.364-5.473,2.11-7.398,2.852
		c0.074-2.875,1.079-41.99,1.112-43.296C123.176,279.048,144.823,270.703,147.378,269.719z"/>
	<path fill="#E92A25" d="M91.358,303.353l-0.001-0.063c-2.39,2.065-6.373,5.328-10.818,8.237l-0.017,0.013l0.253-9.851
		c0,0,3.106-2.169,6.74-5.461c3.634-3.292,5.576-6.703,5.576-6.703c2.36-0.91,8.118-3.129,8.118-3.129l-1.174,45.56
		c-3.406,1.312-6.592,2.54-9.505,3.664L91.358,303.353z"/>
	<path d="M100.833,285.419l-8.118,3.129c-0.225,0.087-0.413,0.248-0.533,0.458c-0.018,0.032-1.915,3.316-5.37,6.446
		c-3.537,3.204-6.607,5.358-6.637,5.379c-0.272,0.19-0.438,0.498-0.446,0.83l-0.253,9.851c-0.01,0.388,0.205,0.745,0.545,0.935
		c0.339,0.189,0.765,0.169,1.091-0.045c3.499-2.29,6.695-4.78,9.144-6.812c-0.101,3.916-0.771,30.02-0.771,30.028
		c0,0.339,0.165,0.659,0.443,0.855c0.286,0.201,0.653,0.247,0.979,0.121l9.505-3.665c0.394-0.152,0.658-0.526,0.669-0.948
		l1.174-45.56c0.009-0.35-0.158-0.68-0.443-0.882C101.526,285.339,101.159,285.294,100.833,285.419z M100.123,287.934
		c-0.074,2.874-1.082,41.99-1.116,43.296c-0.855,0.33-5.706,2.199-7.392,2.849c0.073-2.835,0.788-30.735,0.788-30.739l-0.001-0.063
		c-0.005-0.407-0.245-0.774-0.616-0.941c-0.371-0.167-0.805-0.104-1.113,0.162c-2.173,1.878-5.4,4.52-9.055,7.042
		c0.062-2.387,0.169-6.576,0.188-7.305c0.964-0.7,3.49-2.588,6.41-5.233c3.126-2.832,5.01-5.699,5.584-6.631
		C94.298,290.179,98.256,288.654,100.123,287.934z"/>
	<circle fill="#E92A25" cx="126.631" cy="341.336" r="2.091"/>
	<circle fill="#E92A25" cx="136.26" cy="342.555" r="2.091"/>
	<path fill="#FFFFFF" d="M328.657,217.753c1.71-0.428,6.71,0.31,9.746-4.032c0.212-0.304,0.805-0.432,1.149,0.152
		c0.447,0.757,1.14,1.561,1.967,1.266c0.958-0.342,2.901-2.341,4.129-3.681c0.649-0.708,1.051-0.512,0.898,0.514
		c-0.167,1.116-0.459,2.593-0.949,3.9c-0.941,2.51-3.137,3.451-4.601,4.601c-1.464,1.15-2.614,4.287-4.183,3.869
		c-1.568-0.418,0-3.242-3.346-2.405c-3.347,0.837-4.914,1.987-6.169,0.837C326.043,221.622,321.546,219.531,328.657,217.753z"/>
	<path d="M300.633,225.073c-1.367,0.152-1.882,0.941-2.405,1.882c-0.523,0.941-1.255,2.196-0.627,3.66
		c0.627,1.464,1.464,1.674,2.509,0.628c1.046-1.046,0.523-2.824,1.359-4.288C302.306,225.491,301.574,224.969,300.633,225.073z"/>
	<path d="M288.503,213.78c-1.256,0.083-1.673,1.464-1.15,2.614c0.523,1.15-0.314,3.764,0.523,4.601
		c0.837,0.837,1.777,2.928,3.137,1.569c1.36-1.359,0.941-2.719,0.628-4.602C291.327,216.08,290.071,213.675,288.503,213.78z"/>
	<path d="M289.34,234.798c-0.94,0.118-1.15,1.987-1.255,2.928c-0.104,0.941-1.255,1.777-2.091,2.091
		c-0.837,0.314-1.673,1.987-1.046,3.555c0.627,1.569,1.463,1.987,2.823,1.987c1.359,0,2.719-1.464,2.509-3.347
		c-0.209-1.882,0.21-4.182,0.419-5.542C290.908,235.112,290.176,234.694,289.34,234.798z"/>
	<path d="M293.313,234.275c-0.937-0.094-1.464,1.987-1.569,3.451c-0.105,1.464,0.314,1.987,1.569,3.032
		c1.255,1.046,2.091-0.105,2.091-2.091C295.404,236.68,294.359,234.38,293.313,234.275z"/>
	<path d="M290.908,242.118c-0.431,1.724-0.523,3.451,0.628,3.765c1.15,0.313,3.241,2.3,3.033,0.418
		c-0.209-1.882-0.105-3.66-1.359-4.496C291.954,240.967,291.117,241.282,290.908,242.118z"/>
	<path d="M262.256,220.681c-1.106-0.316-1.15,1.778,0.941,3.66c2.091,1.882,3.869,3.45,3.973,2.3
		c0.104-1.15-0.523-3.451-1.987-4.392C263.72,221.309,262.988,220.891,262.256,220.681z"/>
	<path d="M266.752,215.662c-0.729,0.061-1.359,3.451,0,4.706c1.359,1.255,0.732,3.66,2.301,3.66c1.568,0,1.673-2.719,0.941-3.974
		C269.262,218.799,268.007,215.557,266.752,215.662z"/>
	<path d="M296.45,259.267c-0.731,0.365-1.359,1.359-1.568,2.929c-0.209,1.568-0.314,2.196,0.523,2.614
		c0.836,0.418,1.778,0.209,2.615-1.464c0.836-1.673,0.522-3.555-0.209-4.078C297.078,258.744,297.078,258.953,296.45,259.267z"/>
	<path d="M299.064,265.123c-0.888,0.532-2.091,2.3-2.3,3.451c-0.209,1.15,0.104,3.241,0.732,2.928
		c0.627-0.314,1.255-1.046,2.824-3.242c1.568-2.196,0.941-2.928,0.314-3.66C300.005,263.868,299.587,264.809,299.064,265.123z"/>
	<path d="M300.842,269.723c-1.109,1.386-2.196,3.242-2.196,4.706c0,1.464,1.987,1.777,2.614,0.418c0.627-1.359,2.3-3.137,2.3-5.019
		S302.097,268.155,300.842,269.723z"/>
	<path d="M305.234,272.442c-0.644-0.468-1.464,0.418-2.614,2.301c-1.15,1.882-1.778,3.87-0.94,4.497
		c0.836,0.627,2.405,0.105,3.555-1.882C306.384,275.37,306.384,273.279,305.234,272.442z"/>
	<path fill="#FFFFFF" d="M295.718,368.228c-1.258,0.029-3.66-2.405-2.51-5.124c1.15-2.719,4.914-5.02,6.379-9.202
		c1.464-4.182,3.346-8.47,2.719-13.803c-0.627-5.333-3.451-13.28-5.02-18.927c-1.568-5.647-3.346-10.561-4.287-12.13
		c-0.941-1.568,2.196-2.51,3.137-1.15c0.941,1.359,1.778,3.764,3.241,3.764c1.464,0,3.451-0.314,2.301,2.51
		c-1.151,2.824-0.942,4.287,0.104,4.706c1.046,0.418,1.15,1.359,0.627,2.614c-0.523,1.255,0.209,2.196,0.105,3.556
		c-0.105,1.359,1.568,1.777,1.464,3.765c-0.104,1.986,0.732,2.927,0.627,4.391c-0.105,1.464,0.627,1.569,1.046,2.196
		c0.418,0.627,0,2.405,0.732,3.241c0.732,0.837,1.045,1.255,0.418,2.301c-0.628,1.046-1.36,2.405-0.314,3.555
		c1.046,1.15,0.209,2.091,0.209,3.451c0,1.359,0.942,2.405,0.837,3.241c-0.105,0.837-0.523,3.66-1.673,5.02
		c-1.15,1.359-2.928,2.405-3.87,3.66c-0.941,1.255-1.778,3.242-1.882,4.601C300.005,365.822,300.214,368.123,295.718,368.228z"/>
	<path d="M281.602,207.192c-0.131-2.098-1.883-2.405-2.615-1.569c-0.731,0.837,0.836,1.674,0.836,3.451
		c0,1.777-0.523,4.496,0.942,5.437c1.464,0.941,1.568,0.627,2.405-0.837c0.837-1.464,2.301-1.151,2.301-2.614
		c0-1.465-0.837-2.301-1.883-2.301C282.543,208.76,281.706,208.865,281.602,207.192z"/>
	<path d="M211.227,174.357c-0.884,1.436-1.778,2.51-2.51,3.451c-0.732,0.941-1.464,3.242,0,5.646
		c1.464,2.405,0.627,4.079,1.15,5.647c0.524,1.569,1.569,1.987,1.569-0.209c0-2.196-1.046-6.797-0.314-8.052
		c0.732-1.255,0.942,0.732,1.987,1.883c1.046,1.15,1.882,2.3,2.405,0.522c0.523-1.777,0.731-4.182-0.732-6.378
		C213.318,174.671,212.063,172.998,211.227,174.357z"/>
	<path d="M205.058,131.484c-1.004-1.205-2.196-2.091-3.451-3.346c-1.255-1.255-2.3-1.465-2.405-0.209
		c-0.105,1.255,1.045,1.778,1.255,3.242c0.208,1.464-0.105,1.569-2.406-0.732c-2.3-2.3-3.137-3.764-3.137-2.614
		c0,1.15,0.941,3.241,2.405,5.124c1.464,1.882,2.091,3.764,2.091,5.437c0,1.673-1.359,1.255-3.764-1.359
		c-2.405-2.614-3.764-3.033-3.346-1.883c0.418,1.15,2.823,3.66,3.346,4.601c0.523,0.942,1.046,4.601-0.732,2.614
		c-1.778-1.987-2.196-2.823-3.032-3.555c-0.837-0.732,0.209,1.882,1.778,4.183c1.568,2.3,1.568,5.019,1.777,7.529
		c0.209,2.51,1.464,4.183,2.196,2.405c0.732-1.777,1.255-1.778,2.614-3.242c1.359-1.464,1.359-2.405,1.359-3.66
		c0-1.255,1.045,0,1.465,1.778c0.418,1.778,0.94,3.869,2.195,2.405c1.255-1.464,0.837-2.51-0.208-4.705
		c-1.046-2.196-2.301-5.228-1.569-7.738c0.732-2.509,0.941-0.731,2.3,0c1.359,0.732,2.196,0.314,2.091-1.359
		C207.776,134.726,206.626,133.367,205.058,131.484z"/>
	<path d="M188.431,141.418c-1.596,0,0,3.242,0.21,5.124c0.209,1.883,1.673,4.078,2.509,3.242c0.837-0.837,0.523-2.928-0.314-4.287
		C190,144.137,189.163,141.418,188.431,141.418z"/>
	<path d="M183.621,140.268c-0.859-0.245,0.523,1.359,0.523,2.823c0,1.464,0.627,2.091,1.255,0.314
		C186.026,141.627,184.353,140.477,183.621,140.268z"/>
	<path d="M166.994,121.968c-1.11-0.317-0.732,2.3-1.987,3.242c-1.255,0.941-1.255,3.555-0.732,4.81
		c0.523,1.255,1.882,1.464,2.719,0.627c0.837-0.837,1.15-3.033,1.045-4.496C167.935,124.687,167.727,122.178,166.994,121.968z"/>
	<path d="M180.17,105.447c-0.627,0,0.105,1.673-1.569,4.705c-1.673,3.033-2.928,4.601-2.3,4.81c0.627,0.209,1.15,1.151,1.046,2.406
		c-0.105,1.255,1.255,1.359,1.778,0.627c0.523-0.732,1.778,0,1.464-1.987c-0.313-1.987-1.882-1.464-0.627-5.124
		C181.216,107.224,180.588,105.447,180.17,105.447z"/>
	<path d="M174.209,118.623c-0.976,0.177-1.986,2.405-3.032,2.614c-1.046,0.209-1.151,2.614,0.104,3.974
		c1.255,1.36,2.824,2.301,3.451,2.091c0.627-0.209,1.151,1.359,2.509-0.209c1.36-1.569,1.255-2.092,0.732-4.601
		c-0.522-2.509-1.568-3.555-1.987-1.673c-0.418,1.882-1.359,2.3-1.045,0.105C175.255,118.727,175.36,118.413,174.209,118.623z"/>
	<path d="M182.784,146.124c-0.756-0.252-1.987,1.673-0.627,2.719c1.359,1.046,2.3,1.255,1.987,0.314
		C183.83,148.215,183.411,146.333,182.784,146.124z"/>
	<path fill="#FFFFFF" d="M217.71,141.209c-1.194,0.398-1.36,2.928-1.046,4.601c0.314,1.673,1.673,5.96,2.719,10.352
		c1.045,4.392,2.405,8.575,2.405,6.588s0.209-6.588-1.359-10.875c-1.568-4.287-1.777-7.32-1.568-8.784
		C219.069,141.627,218.337,141,217.71,141.209z"/>
	<path d="M245.003,226.746c-0.964,0-0.627,2.195-0.627,3.555s1.046,3.451,1.778,0.942
		C246.885,228.733,245.944,226.746,245.003,226.746z"/>
	<path d="M259.328,175.298c-0.533,0-0.523,2.092-1.464,3.033c-0.942,0.941-2.092,3.032-0.315,4.392
		c1.778,1.359,3.87,2.196,3.87,0.731c0-1.464,0-4.287-0.732-5.124C259.956,177.495,259.956,175.298,259.328,175.298z"/>
	<path fill="#FFFFFF" d="M154.865,183.874c-1.151,0-1.778,1.568-1.046,2.509c0.732,0.941,1.569,3.137,2.719,2.091
		c1.15-1.046,1.464-1.987,0.314-2.51C155.701,185.442,155.805,183.874,154.865,183.874z"/>
	<path fill="#FFFFFF" d="M102.999,59.227c-1.903-0.992-2.405,0-2.092,2.405c0.314,2.405-0.314,4.915-0.105,7.006
		c0.209,2.091,1.151,5.228,2.824,7.738c1.673,2.51,2.719,1.882,4.81-0.732c2.091-2.614,3.869-4.705,1.673-9.097
		C107.913,62.155,105.403,60.482,102.999,59.227z"/>
	<path fill="#FFFFFF" d="M94.005,189.729c-2.372,1.618-5.019,4.81-6.692,7.111c-1.673,2.3-2.614,4.601-1.046,4.496
		c1.568-0.104,4.705-0.627,4.915-1.986c0.209-1.36,0.732-1.569,2.719-1.883c1.987-0.314,4.182-2.301,5.542-3.137
		c0.68-0.418,1.83-0.654,2.81-0.784c0.98-0.13,1.974-0.353,2.32-0.727c1.04-1.123,3.549-3.848,7-7.691
		c4.601-5.124,7.947-8.679,8.888-9.725c0.941-1.045-1.359-0.941-4.078,1.464c-2.719,2.405-5.647,5.542-8.47,7.215
		c-2.823,1.674-6.379,3.347-8.156,3.556C97.979,187.846,96.306,188.161,94.005,189.729z"/>
	<path d="M120.043,131.38c-1.464,0.836-3.033,2.614-2.405,3.032c0.627,0.418,1.777,0.732,3.241-0.418
		c1.463-1.15,1.463-2.301,1.463-3.242C122.343,129.811,120.775,130.961,120.043,131.38z"/>
	<path d="M125.062,122.073c-1.227,0.954-1.15,2.928-0.418,3.241c0.732,0.314,1.359-0.314,1.987-0.732
		c0.627-0.418,1.046-1.36,1.046-2.405C127.677,121.132,126.004,121.341,125.062,122.073z"/>
	<path d="M163.962,72.926c-1.204,1.203-1.778,5.542-2.614,3.555c-0.837-1.987-2.615-1.569-3.242,0.732
		c-0.627,2.3-1.987,3.346-1.987,5.123c0,1.777-0.314,2.405-1.673,1.987c-1.359-0.418-2.509,0.522-2.823,1.777
		c-0.314,1.255,1.046,1.569,2.196,0.837c1.15-0.732,1.987,0.314,2.614,0.941c0.627,0.627,2.197,1.255,4.392-1.255
		c2.196-2.51,2.719-4.6,3.66-8.783C165.426,73.658,164.798,72.089,163.962,72.926z"/>
	<path d="M145.035,84.114c-1.528,0.45-2.719,1.987-3.032,3.242c-0.314,1.255,0.732,1.777,2.196,0.837
		c1.464-0.941,3.032-0.628,3.555-1.778C148.276,85.265,146.813,83.592,145.035,84.114z"/>
	<path d="M146.813,89.657c-0.947,0-1.569,0.627-1.569,2.091s-0.732,3.869,0.419,3.451c1.15-0.418,1.987-0.523,1.987-2.197
		C147.649,91.33,147.963,89.657,146.813,89.657z"/>
	<path d="M129.663,85.265c-1.051,0-2.823,1.15-3.66,2.091c-0.837,0.941-0.627,2.719-0.419,3.66c0.209,0.941,0,3.973,0,5.856
		c0,1.882,0.105,5.543-1.046,7.215c-1.15,1.673-2.197,2.614-1.673,4.078c0.523,1.464,0.836,1.882,1.986,0.314
		c1.151-1.568,2.614-2.091,3.137-3.241c0.523-1.15,0-3.346,0-6.483c0-3.137-0.313-6.692,0.837-8.993
		C129.977,87.461,130.395,85.265,129.663,85.265z"/>
	<path d="M128.513,108.166c-1.194,0.995-1.987,2.614-1.046,4.183c0.942,1.568,1.883,2.614,1.883,3.973s1.359,2.405,1.777,0.523
		c0.418-1.882,0.732-3.346,1.778-4.601c1.046-1.255,0.105-2.091-0.837-2.614C131.127,109.107,129.768,107.12,128.513,108.166z"/>
	<path d="M116.279,122.073c-1.489,1.117-2.719,3.451-3.765,3.869c-1.046,0.418-2.195,1.569,0,2.091c2.197,0.523,3.451,0,5.228-1.777
		c1.778-1.778,2.406-3.346,1.465-4.079C118.265,121.446,117.533,121.132,116.279,122.073z"/>
	<path d="M136.669,89.866c-1.489-0.851-1.36,1.568-1.36,2.823c0,1.255-1.045,4.183-0.522,5.124c0.522,0.941,1.777,0.523,2.51,0
		c0.732-0.523,2.405,0.209,3.451-0.941c1.046-1.15,1.882-2.091,1.359-3.869c-0.523-1.777-0.836-2.51-2.51-2.196
		C137.924,91.121,137.401,90.284,136.669,89.866z"/>
	<path d="M133.218,88.82c-0.534,0.178-1.881,1.255-1.986,3.765c-0.105,2.509,0.418,3.66,1.15,2.3
		c0.733-1.359,0.941-3.346,1.465-4.183C134.369,89.866,134.159,88.506,133.218,88.82z"/>
	<path d="M118.997,108.688c-1.199,0.4-0.836,3.241,0.21,2.823c1.046-0.418,2.719-1.15,1.882-2.195
		C120.252,108.27,119.311,108.584,118.997,108.688z"/>
</g>
</svg>
