<?xml version="1.0" encoding="utf-8"?>
<!-- Generator: Adobe Illustrator 19.1.0, SVG Export Plug-In . SVG Version: 6.00 Build 0)  -->
<svg version="1.1" id="Layer_1" xmlns="http://www.w3.org/2000/svg" xmlns:xlink="http://www.w3.org/1999/xlink" x="0px" y="0px"
	 viewBox="0 0 400 400" enable-background="new 0 0 400 400" xml:space="preserve">
<g>
	<polygon fill="#ED1C24" points="27.772,274.639 30.781,277.942 16.115,290.858 22.65,299.053 44.274,279.999 34.577,268.623 	"/>
	<path fill="#ED1C24" d="M32.263,304.187c-2.087,2.191-1.258,5.563,0.661,7.586c1.943,2.026,5.139,2.894,7.227,0.703
		c2.133-2.234,1.364-5.643-0.579-7.671C37.64,302.774,34.399,301.963,32.263,304.187z"/>
	<polygon fill="#ED1C24" points="83.609,330.758 77.298,326.457 78.891,323.89 86.078,328.779 90.466,321.665 74.63,310.855 
		59.265,335.699 67.911,341.611 73.309,332.927 79.62,337.217 	"/>
	<path fill="#ED1C24" d="M102.093,337.063c1.968,1.093,3.277,2.931,4.268,4.904l5.832-5.326c-1.651-2.919-3.897-5.107-6.732-6.699
		c-5.427-3.034-12.568-2.546-15.706,3.653c-2.075,4.091-0.213,7.95,2.995,10.56l1.634,1.365c0.741,0.639,1.878,1.404,1.288,2.583
		c-0.6,1.18-2.213,0.761-3.111,0.269c-2.072-1.159-3.484-3.324-4.437-5.539l-0.272-0.648l-6.515,5.853
		c2.061,3.056,5.226,5.988,8.375,7.738c5.386,2.997,12.362,2.947,15.534-3.303c2.244-4.453,0.554-8.135-2.825-11.179l-1.793-1.635
		c-0.621-0.551-1.67-1.325-1.181-2.291C99.991,336.289,101.317,336.624,102.093,337.063z"/>
	<path fill="#ED1C24" d="M184.366,365.367c-0.397,1.238-0.656,2.603-0.909,3.889l-0.249-0.014l-3.125-15.751l-10.526-0.585
		l-6.033,29.346l9.901,0.536l1.828-12.571c0.177-1.169,0.303-2.371,0.434-3.542l0.335-0.004c0.011,1.263,0.221,2.461,0.447,3.735
		l3.042,12.724l5.992,0.327l4.719-13.04c0.351-0.927,0.595-1.942,0.826-2.91l0.19,0.004l0.566,16.296l9.91,0.534l-3.152-29.842
		l-10.433-0.569L184.366,365.367z"/>
	<path fill="#ED1C24" d="M127.428,354.889c-0.834,1.242-1.575,2.496-2.035,3.916l-0.205-0.069c0.46-1.419,0.624-2.91,0.673-4.42
		l0.646-14.023l-10.125-3.648l1.162,31.744l8.212,2.97l19.507-24.27l-10.117-3.66L127.428,354.889z"/>
	<path fill="#ED1C24" d="M215.77,353.977l-7.808,30.268l10.817-0.788l0.583-3.74l7.728-0.57l1.17,3.603l10.841-0.781l-12.019-28.821
		L215.77,353.977z M220.719,372.565l1.263-9.17l0.379-0.015c0.274,1.241,0.546,2.516,0.933,3.755l1.538,5.128L220.719,372.565z"/>
	<polygon fill="#ED1C24" points="241.08,350.992 247.429,379.853 257.416,377.426 251.067,348.566 	"/>
	<path fill="#ED1C24" d="M274.827,341.711l2.745,8.386c0.774,2.376,1.993,4.637,3.16,6.853l-0.286,0.082l-13.808-12.382
		l-9.306,3.367l9.195,28.021l9.261-3.357l-2.976-9.098c-0.619-1.862-1.499-3.578-2.443-5.393l0.278-0.105l13.346,11.63l9.274-3.361
		l-9.192-28.01L274.827,341.711z"/>
	<path fill="#ED1C24" d="M313.693,346.134c-0.692,0.384-1.39,0.833-2.069,1.279l-0.164-0.088l2.088-24.093l-23.404,12.522
		l3.868,7.98l6.84-3.649c0.764-0.408,1.393-0.924,2.016-1.469l0.174,0.03c-0.291,1.472-0.578,2.865-0.682,4.377l-1.574,20.299
		l24.468-13.107l-3.963-8.161L313.693,346.134z"/>
	<path fill="#ED1C24" d="M340.934,300.993c-6.24,6.097-5.569,14.465-0.103,20.626c5.771,6.5,13.586,7.972,19.952,1.726
		c6.388-6.241,5.51-14.53-0.251-21.031C355.082,296.172,347.169,294.876,340.934,300.993z M355.097,316.94
		c-2.113,2.073-5.441-0.467-6.917-2.147c-1.588-1.778-3.516-4.896-1.271-7.085c2.233-2.188,5.05,0.057,6.626,1.827
		C355.031,311.209,357.197,314.869,355.097,316.94z"/>
	<path fill="#ED1C24" d="M373.33,280.041c-0.896,1.156-2.268,3.282-1.919,4.877l-0.159,0.202c-0.472-1.065-1.215-2.027-1.927-2.905
		l7.772-9.737l-6.051-5.342l-12.335,15.455l11.194,13.253c0.878-2.45,2.225-4.807,3.863-6.845c1.034-1.296,4.046-4.199,5.786-2.642
		c1.681,1.478,0.06,4.488-1.043,5.887c-1.497,1.864-5.019,4.304-7.202,5.205l5.127,6.055c2.713-1.25,7.093-5.138,8.996-7.513
		c3.845-4.825,6.178-13.072,0.875-17.743C382.187,274.609,376.662,275.909,373.33,280.041z"/>
	<path fill="#ED1C24" d="M254.661,220.799c-6.074,4.45-7.818,5.47-12.445,7.662l7.672,22.232c0.906-0.473,1.664-0.969,2.371-1.489
		c0.581-0.426,1.115-0.865,1.663-1.34c0.746-0.65,1.573-1.398,2.49-2.197c1.075-0.945,2.291-1.965,3.977-3.197
		c33.495-24.478,50.789-60.627,45.885-86.862c-0.104-0.538-0.304-0.949-0.425-1.466c-0.878-3.659-2.195-6.794-3.952-9.321
		c-6.855-9.858-19.838-10.619-34.084-0.206c-1.366,1.002-2.429,1.799-3.368,2.542c-1.786,1.399-3.062,2.498-4.41,3.748l-0.001-0.005
		l0,0l-0.254-18.78l28.041-22.164l0.344-19.557l0,0l0.142-8.754l-52.933,45.379l-0.168,63.772c1.601-1.74,3.085-3.287,4.556-4.798
		c1.46-1.509,2.899-2.9,4.344-4.266c3.663-3.466,7.436-6.631,12.312-10.187c8.498-6.213,14.464-3.019,17.67,2.637
		c1.131,2.004,1.929,4.276,2.363,6.581C278.895,193.79,270.407,209.277,254.661,220.799z"/>
	<path fill="#ED1C24" d="M134.347,243.134c20.876-3.878,34.85-34.9,32.22-71.863c-0.078-0.997-0.107-1.982-0.199-2.992
		c-2.121-22.298-9.842-41.757-20.238-54.21c0.001,0.005,0.002,0.01,0.013,0.008c-0.011-0.003-0.013-0.008-0.014-0.013
		c-8.126-9.727-17.888-15.193-27.895-14.387c-22.808,1.848-38.239,35.547-34.471,75.281c2.415,25.419,12.118,47.095,24.766,58.974
		c5.845,5.476,12.316,8.735,19,9.419c1.453,0.139,2.903,0.324,4.366,0.203C132.732,243.488,133.528,243.286,134.347,243.134z
		 M118.418,200.237c-1.853-1.5-3.564-3.493-5.159-5.779c-2.706-3.881-4.957-8.777-6.474-14.384
		c-0.055-0.207-0.148-0.377-0.202-0.584c-0.004-0.016-0.007-0.032-0.009-0.042c-0.794-3.051-1.372-6.293-1.7-9.678
		c-0.953-10.065,0.541-19.313,3.675-26.11c1.924-4.171,4.498-7.283,7.498-9.186c1.687-1.069,3.465-1.868,5.413-2.03
		c5.208-0.419,10.249,2.854,14.351,8.404c0,0-0.001-0.005-0.012-0.003c0.012,0.003,0.012,0.003,0.013,0.009
		c4.588,6.202,7.996,15.281,8.99,25.69c1.886,19.721-5.547,36.423-16.578,37.313c-3.412,0.277-6.739-1.149-9.807-3.626l-0.001-0.005
		C118.416,200.225,118.417,200.23,118.418,200.237z"/>
	<path fill="#ED1C24" d="M233.397,8.617c-0.73-0.119-1.438-0.186-2.211-0.185c-6.507,0.001-11.78,4.582-11.776,10.236
		c-0.008,3.602,2.216,6.684,5.456,8.492c0.624,0.36,1.221,0.742,1.911,0.983c6.219,1.23,12.244,2.923,18.106,4.901
		c7.54,2.54,14.81,5.607,21.667,9.255l-0.011,0.009c0.012-0.003,0.012,0.003,0.012,0.003l-1.281,1.084l-0.646,0.546l0,0
		l-66.367,56.348l0.013,1.375l-62.5-54.803l-1.983-1.74l-3.167-2.781c12.209-6.515,25.577-11.362,39.811-14.198
		c4.315-1.511,7.362-5.187,7.359-9.476c0.003-1.35-0.315-2.637-0.87-3.823c0.001,0.006,0.013,0.008,0.013,0.008l-0.001-0.005
		c-1.75-3.754-5.975-6.4-10.904-6.41c-0.782,0.009-1.473,0.078-2.209,0.195C84.834,23.957,25.471,88.602,25.464,166.09
		c0.016,41.941,17.454,80.09,45.916,108.728c11.982,12.065,25.905,22.464,41.333,30.717c5.143,2.757,10.456,5.256,15.92,7.521
		l7.275-20.448l7.287-20.452l0.83-2.359c-17.333-7.054-32.742-17.383-45.468-30.05c-0.057-0.055-0.118-0.131-0.175-0.187
		c0.057,0.056,0.107,0.134,0.163,0.188c-16.892-16.831-28.929-37.894-34.095-61.245c-0.09-0.373-0.212-0.733-0.292-1.108
		c-1.676-7.936-2.555-16.13-2.559-24.516c0.004-16.781,3.66-32.714,10.015-47.379c8.162-18.861,20.877-35.578,37.15-48.73
		l2.507,2.205l2.504,2.194l68.387,60.164l0.023,124.55c0,0-3.599,37.896-25.895,76.386c2.061,0.48,4.231,0.891,6.413,1.3l0,0
		c0.912,0.186,1.75,0.389,2.669,0.552c10.64,1.959,22.086,3.232,32.912,3.281l-0.006,0.024c0.113-0.001,0.234-0.004,0.346-0.007
		c0.07,0.008,0.124,0.007,0.191,0.004c0.059,0.009,0.115,0.009,0.159,0.012l0.006-0.025l0.011-0.002l0,0
		c11.644-0.057,23.975-1.57,35.284-3.783c2.259-0.437,4.552-0.868,6.709-1.361c-9.798-16.907-15.989-33.697-19.848-47.209
		c-4.934-17.259-6.068-29.178-6.068-29.178l-0.002-124.555l36.695-32.28l36.695-32.28c5.449,4.401,10.511,9.198,15.152,14.331
		c20.002,22.134,32.008,50.643,32.01,81.771c0.007,52.173-33.845,97.139-82.411,116.926l15.402,43.264
		c0.832-0.356,1.63-0.761,2.437-1.124c39.543-17.04,70.955-47.413,87.615-84.816c8.379-18.836,13.096-39.412,13.099-61.046
		c-0.005-4.814-0.235-9.58-0.686-14.282c-0.439-4.704-1.113-9.348-1.987-13.932c-4.408-22.891-14.061-44.113-27.771-62.568
		c-2.733-3.691-5.643-7.265-8.696-10.726C307.874,36.536,273.121,16.328,233.397,8.617z"/>
</g>
</svg>
