<?xml version="1.0" encoding="utf-8"?>
<!-- Generator: Adobe Illustrator 19.1.0, SVG Export Plug-In . SVG Version: 6.00 Build 0)  -->
<svg version="1.1" id="Layer_1" xmlns="http://www.w3.org/2000/svg" xmlns:xlink="http://www.w3.org/1999/xlink" x="0px" y="0px"
	 viewBox="0 0 400 400" enable-background="new 0 0 400 400" xml:space="preserve">
<polygon points="199,7.095 79.449,199.499 199,391.906 318.551,199.499 "/>
<polygon fill="#FFFFFF" points="199,39.38 99.61,199.499 199,359.618 298.389,199.499 "/>
<polygon points="199,56.359 287.952,199.499 199,342.643 110.05,199.499 "/>
<path fill="#FFFFFF" d="M157.024,263.61h53.828c17.993,0,37.332-15.362,37.445-38.235v-0.203c0-3.902-0.397-7.359-1.065-10.413
	h27.269c5.472-8.81,9.057-14.572,9.482-15.26c-0.424-0.684-4.01-6.451-9.482-15.261H244.96c1.004-3.133,1.651-6.74,1.651-10.874
	v-0.064c-0.028-11.25-3.42-20.314-10.087-26.946c-10.926-10.881-26.627-10.966-27.295-10.966h-52.205v48.85h-33.525
	c-5.472,8.81-9.057,14.578-9.482,15.261c0.424,0.687,4.01,6.449,9.482,15.26h33.525V263.61 M157.364,269.253
	c5.621,9.047,11.224,18.066,16.421,26.431h50.432c5.195-8.365,10.799-17.384,16.42-26.431H157.364 M224.217,103.318h-50.432
	c-5.197,8.358-10.8,17.38-16.421,26.426h83.273C235.016,120.698,229.412,111.676,224.217,103.318"/>
<path d="M161.131,139.494v120.008h49.721c15.166,0,33.233-12.857,33.339-34.143c0.08-22.173-13.746-28.108-13.746-28.108
	s12.085-6.992,12.051-23.946c-0.08-33.893-33.256-33.811-33.256-33.811H161.131"/>
<path fill="#FFFFFF" d="M208.677,209.222h-24.351v27.141h23.384c0,0,13.179,0.16,13.179-13.245
	C220.889,209.374,208.677,209.222,208.677,209.222"/>
<path d="M208.608,213.33c0.106,0.005,2.293,0.111,4.341,1.369c2.58,1.592,3.833,4.344,3.833,8.419c0,3.892-1.305,6.39-4.111,7.869
	c-2.364,1.247-4.913,1.268-4.943,1.268h-19.295V213.33H208.608"/>
<path fill="#FFFFFF" d="M206.579,161.495h-22.253v25.636c0,0,17.131,0.08,22.253,0c5.153-0.092,12.46-3.22,12.46-12.939
	C219.039,161.495,206.579,161.495,206.579,161.495"/>
<path d="M206.551,165.603c0.045,0,2.404,0.054,4.586,1.24c2.585,1.404,3.796,3.737,3.796,7.349c0,8.05-6.451,8.795-8.424,8.831
	c-3.476,0.054-12.684,0.033-18.077,0.016v-17.436H206.551"/>
</svg>
