<?xml version="1.0" encoding="utf-8"?>
<!-- Generator: Adobe Illustrator 19.1.0, SVG Export Plug-In . SVG Version: 6.00 Build 0)  -->
<svg version="1.1" id="Layer_1" xmlns="http://www.w3.org/2000/svg" xmlns:xlink="http://www.w3.org/1999/xlink" x="0px" y="0px"
	 viewBox="0 0 160 160" style="enable-background:new 0 0 160 160;" xml:space="preserve">
<style type="text/css">
	.st0{fill:#07569D;}
	.st1{fill:#FFFFFF;}
</style>
<g>
	<circle class="st0" cx="79.2" cy="79.2" r="70.5"/>
	<polygon class="st1" points="92.9,131.6 92.9,121.9 96.4,121.9 96.4,116.1 92.9,116.1 92.9,109.9 87.5,109.9 87.5,116.1 
		83.9,116.1 89.6,92.5 83.5,92.5 76.4,121.9 87.5,121.9 87.5,131.6 	"/>
	<path class="st1" d="M99.9,79.2v23.2h7v15.9c-0.2,3.6-1,7-3.2,9.8c-6.1,7.8-15.7,8.7-25,8.8c-10.1-0.3-19.4-2-27-7.9V29.3
		c5.3-3.5,12.2-5.9,18.5-7.1c10.2-1.5,19.7-0.8,28.6,3c5.9,2.6,7.7,7.4,8.1,12.9c0,0.1,0,12.1,0,19.6h30.8
		c-8.8-23.8-31.6-40.8-58.5-40.8c-34.4,0-62.3,27.9-62.3,62.3c0,34.4,27.9,62.3,62.3,62.3c34.4,0,62.3-27.9,62.3-62.3H99.9z"/>
	<path class="st1" d="M58.4,100v24.1c0,4.5,3.6,8.1,8.1,8.1c4.5,0,8.1-3.6,8.1-8.1V100c0-4.5-3.6-8.1-8.1-8.1
		C62,91.9,58.4,95.5,58.4,100z M69.2,100v24.1c0,1.5-1.2,2.7-2.7,2.7c-1.5,0-2.7-1.2-2.7-2.7V100c0-1.5,1.2-2.7,2.7-2.7
		C68,97.3,69.2,98.5,69.2,100z"/>
	<path class="st1" d="M96.1,72.8c0-2.6-0.5-5-1.3-6.2L78,42c-0.6-0.9-0.7-2.1-0.7-3.1c0-3,2.5-5.1,5.8-5.1c4.5,0,7.5,2.5,8.2,10.8
		h4.5V25.7h-2.8l-1.7,2.6c-2.8-1.7-6.9-3.5-11.8-3.5c-11.7,0-19.8,8.4-19.8,17.8c0,2.2,0.5,4.8,1.6,6.4l16,23.3
		c0.8,1.1,1.1,2.1,1.1,3.1c0,3.2-2.7,5.7-6.4,5.7c-6.4,0-7-5.7-7.5-11.9l-6,0v20h4.2l1.7-2.6c4.8,2.4,7.6,3.2,12.3,3.2
		C87.9,89.8,96.1,82.6,96.1,72.8z"/>
</g>
</svg>
