<?xml version="1.0" encoding="utf-8"?>
<!-- Generator: Adobe Illustrator 19.1.0, SVG Export Plug-In . SVG Version: 6.00 Build 0)  -->
<svg version="1.1" id="Layer_1" xmlns="http://www.w3.org/2000/svg" xmlns:xlink="http://www.w3.org/1999/xlink" x="0px" y="0px"
	 viewBox="0 0 400 400" enable-background="new 0 0 400 400" xml:space="preserve">
<path d="M378.852,6.879H21.273v0.982c0,1.055,0.387,104.636,33.469,192.422c21.751,57.738,60.076,106.672,88.405,137.587
	c30.67,33.467,56.554,53.57,56.811,53.758l0.608,0.491l0.62-0.491c0.258-0.188,26.143-20.291,56.811-53.758
	c28.317-30.916,66.642-79.849,88.406-137.587c33.068-87.787,33.455-191.368,33.455-192.422V6.879H378.852"/>
<path fill="#FFFFFF" d="M377.845,8.868c-0.115,10.555-2.048,107.726-33.312,190.714c-21.65,57.432-59.797,106.156-87.985,136.908
	c-27.979,30.543-51.931,49.897-55.983,53.079c-4.037-3.182-27.99-22.536-55.979-53.079c-28.192-30.752-66.339-79.477-87.975-136.908
	C25.334,116.595,23.405,19.423,23.286,8.868H377.845"/>
<path d="M284.339,218.586H115.66l0.164,1.122c0.045,0.329,4.515,30.308,29.24,66.957c26.962,39.95,54.614,63.002,54.882,63.212
	l0.645,0.562l0.63-0.562c0.282-0.211,27.897-23.263,54.882-63.212c24.715-36.649,29.184-66.628,29.229-66.957l0.164-1.122H284.339"
	/>
<path fill="#F7D72A" d="M283.155,220.597c-1.062,5.711-6.949,32.694-28.714,64.968c-24.562,36.367-49.627,58.602-53.851,62.253
	c-4.236-3.651-29.313-25.886-53.875-62.253c-21.765-32.274-27.662-59.257-28.716-64.968H283.155"/>
<path d="M244.154,250.647c5.371-0.327,12.157-0.327,12.687-1.498c0.596-1.31-2.811-2.106-6.249-2.644
	c-3.313-0.538-8.486-1.076-8.486-1.076s0.53-3.348,6.298-7.935c2.759-2.2,4.539-3.673,4.539-3.673s-5.03-1.967-12.673,3.137
	c-2.644,1.754-8.67,6.669-10.684,7.933c-2.013,1.31-6.319,3.088-8.998,1.778c-2.54-1.24-0.749-4.447,1.134-6.436
	c3.534-3.792,4.166-6.343,4.166-6.343s-3.3-0.444-8.191,2.621c-3.71,2.341-7.793,6.787-11.071,9.621
	c-3.274,2.83-6.786,2.501-7.383,0.723c-0.62-1.825,6.261-12.871,6.425-13.41c0.174-0.516,0.08-1.592,0.08-1.592
	s-7.476,2.482-12.941,9.104c-2.163,2.621-5.183,6.834-6.215,7.467c-1.486,0.913-7.418,2.667-6.869-0.632
	c1.066-6.249,5.138-11.234,5.654-12.077c0.878-1.38,0.233-2.247,0.233-2.247s-7.277,1.897-12.39,8.075
	c-2.4,2.879-5.22,7.42-6.427,8.777c-1.204,1.381-5.112,2.294-7.207,2.738c-2.094,0.444-5.441,1.054-7.441,2.27
	c-1.839,1.217-2.588,2.903-2.762,4.237c-0.176,1.355,1.404,3.158,2.832,3.252c1.451,0.071,16.405-4.774,40.85-7.839
	C209.577,252.894,238.782,250.975,244.154,250.647"/>
<path d="M242.715,272.95c-1.31-0.164-5.465-0.444-6.166-1.848c-0.704-1.404,3.452-5.803,3.72-6.249
	c0.258-0.421,0.526-1.24,0.526-1.24s-2.362-0.186-4.072,0.469c-1.379,0.514-3.604,2.083-7.663,5.897
	c-4.062,3.814-5.197,2.902-6.74,2.036c-1.522-0.913,0.105-4.097,1.007-5.5c0.935-1.404,2.726-3.276,3.076-3.626
	c0.352-0.352,0.422-1.475,0.422-1.475s-2.691-0.281-6.681,2.013c-1.756,1.005-5.302,4.492-7.207,6.364
	c-1.944,1.897-3.194,2.904-4.95,2.573c-1.136-0.254-1.171-2.153-0.655-3.555c0.526-1.451,3.379-5.382,3.79-6.178
	c0.446-0.796,0.63-2.108,0.63-2.108s-5.124-0.07-9.148,4.588c-1.827,2.153-4.33,4.354-6.298,5.944
	c-1.965,1.545-4.107,1.966-5.99,1.639c-1.719-0.331,0.082-3.067,0.97-4.588c0.867-1.522,2.752-4.26,3.266-5.03
	c0.528-0.773,0.528-2.083,0.528-2.083s-4.508-0.47-10.485,5.521c-2.073,2.059-6.706,7.113-8.238,8.05
	c-1.522,0.937-9.9,2.856-11.095,3.231c-3.988,1.24-2.982,5.218-2.282,5.828c0.704,0.583,2.107,1.707,4.588,1.287
	c2.505-0.446,16.407-3.558,29.839-5.032c11.187-1.264,23.451-2.341,29.174-2.762c5.72-0.444,22.42-0.96,23.391-1.146
	c0.972-0.186,0.864-1.639,0.442-2.247C249.971,273.185,244.025,273.138,242.715,272.95"/>
<path d="M225.514,296.004c-1.651-0.516-2.539-1.592-2.75-3.464c-0.092-0.796,4.938-6.693,4.938-6.693s-4.375-0.679-7.479,3.065
	c-0.946,1.148-3.264,3.395-4.584,4.962c-1.312,1.568-3.358,4.048-5.302,1.428c-1.101-1.498,2.411-6.202,3.37-7.583
	c0.96-1.428,2.118-2.996,2.118-2.996s-1.58-0.186-2.89,0.258c-1.944,0.655-2.936,1.662-4.072,2.55
	c-1.136,0.867-4.156,4.915-4.95,5.711c-0.784,0.796-2.48,3.908-5.197,3.37c-3.041-0.561-2.245-2.388-1.871-3.37
	c0.352-0.935,3.09-4.915,3.71-5.803c0.608-0.89,1.392-2.2,1.392-2.2s-1.942-0.094-3.231,0.279c-0.958,0.259-2.654,1.195-3.895,2.271
	c-1.23,1.054-3.184,3.278-4.6,4.845c-1.392,1.59-4.67,5.101-5.29,5.452c-0.606,0.376-2.525,0.82-3.71,1.054
	c-1.181,0.28-4.036,1.101-6.528,2.06c-2.48,0.982-0.773,4.516,0.888,4.96c1.651,0.422,7.43-1.334,10.753-1.989
	s11.938-1.825,17.752-2.433c5.817-0.61,18.232-1.662,20.831-1.85c2.56-0.164,8.75-0.561,9.524-0.749
	c0.794-0.139,0.268-1.474-0.62-1.729C232.956,297.15,227.176,296.518,225.514,296.004"/>
<path fill="#BB313F" d="M308.326,142.572c-0.724,0.655-1.557,1.24-2.456,1.823c-3.184,1.827-7.479,2.809-12.757,1.874
	c-2.832-0.516-5.486-1.148-7.956-1.874c-16.686-4.819-25.102-13.199-25.102-13.199l9.294-2.644
	c4.832-1.381,11.349-3.301,15.069-7.465c3.72-4.144,5.525-10.227,5.664-14.394c0.139-4.141-0.139-8.169-0.139-8.169
	s2.083-2.807,7.862-2.62c4.459,0.187,9.548,2.62,13.972,16.312C316.213,125.931,311.203,140.045,308.326,142.572 M269.897,65.528
	c0,0,6.155-6.134,16.055-6.834c4.647-0.28,10.544,3.228,14.408,9.922c5.591,9.784,5.72,18.816-3.898,22.094
	c-4.434,1.498-7.852,1.45-7.852,1.45s-4.211-7.466-9.726-13.808c-4.692-5.383-8.914-10.391-8.914-10.391s-0.62-0.515-0.62-1.123
	C269.35,66.183,269.897,65.528,269.897,65.528 M337.768,94.361c-6.552-5.102-19.204-5.759-19.204-5.759s1.978-1.029,4.811-2.386
	c6.695-3.23,16.745-11.211,6.389-32.786c-11.666-24.365-30.048-13.926-41.878-7.327c-11.833,6.506-21.768,17.225-21.768,17.225
	s-14.543-12.122-10.555-22.374c2.926-7.489,11.997-10.531,11.997-10.531l-0.47-1.589c0,0-31.816-3.887-36.144,31.147
	c-3.069,25.019,11.502,35.995,14.721,39.013c3.194,3.044,18.863,14.254,16.943,23.685c-1.919,9.456-19.427,5.944-28.787,10.72
	c-4.961,2.48-7.688,6.949-9.196,10.997c-1.731,4.682-1.839,8.824-1.839,8.824l1.44,0.632c0,0,3.229-7.3,13.761-4.494
	c11.349,3.09,15.658,13.153,30.236,19.847c10.182,4.727,24.611,4.33,24.611,4.33s0-10.719,9.757-18.887
	c5.253-4.4,19.988-6.788,28.188-10.252c0.738-0.279,1.418-0.608,2.038-0.935c7.514-3.978,13.432-12.309,14.066-23.357
	C347.539,109.08,344.331,99.485,337.768,94.361 M172.822,70.535c2.27-8.472,13.587-13.829,13.587-13.829l-0.237-2.786
	c0,0-8.061,0.934-15.996-2.997c-6.962-3.417-11.081-10.131-14.791-13.572c-4.469-4.12-6.471-3.886-6.471-3.886
	s-3.757,0.469-10.403,5.804c-5.535,4.494-8.623,7.139-12.297,10.064c-3.687,2.995-8.649,6.835-8.649,6.835s0.972,0.935,1.452,1.007
	c0.467,0.118,2.703-0.867,5.194-0.236c2.47,0.657,5.513,2.178,7.514,3.441c2,1.265,9.618,6.881,14.23,9.782
	c7.594,4.705,15.27,4.636,15.27,4.636s-10.79,9.898-12.873,13.174c-2.083,3.279-3.557,8.005-2.724,12.474
	c1.613,8.567,6.483,14.791,8.879,20.174c2.4,5.337,1.932,11.749-0.714,14.933c-5.441,6.458-11.771,8.19-22.315,7.441
	c-17.832-1.285-27.265-9.36-27.265-9.36s2.236-1.125,4.156-1.756c1.919-0.655,11.596-4.166,15.599-8.8
	c4.001-4.656,8.951-13.457,6.716-23.988c-2.236-10.577-6.472-15.915-16.313-25.112C101.887,62.298,93.38,60.472,91.659,51.346
	c-2.4-12.687,9.36-20.129,9.36-20.129l-0.526-1.544c0,0-13.69-0.912-23.461,9.759c-9.781,10.696-11.023,23.778-8.635,34.24
	c2.398,10.436,10.496,20.499,17.435,27.429c6.915,6.927,20.058,14.09,18.511,22.513c-1.811,9.945-14.427,8.028-18.429,7.909
	c-12.918-0.303-18.662,6.601-21.226,12.871c-2.108,5.173-2.048,9.947-2.048,9.947l1.275-0.023c0,0,3.055-5.243,10.767-5.055
	c10.495,0.28,18.008,5.734,27.779,11.795c10.94,6.786,14.299,9.08,24.058,10.555c4.797,0.725,8.402-0.352,8.402-0.352
	s0.644-8.144,6.869-15.726c3.076-3.745,8.319-7.63,13.481-11.142c5.323-3.649,10.555-6.855,13.14-8.986
	c8.402-6.974,10.565-10.577,12.812-19.775c2.155-8.871-2.247-16.453-6.166-24.386C173.126,87.34,170.34,79.825,172.822,70.535"/>
<path fill="#BB313F" d="M226.308,102.692c3.675-0.562,9.351-1.686,9.351-1.686s0-0.982-0.082-1.591
	c-0.07-0.654-0.305-1.544-0.305-1.544s-11.046,0.468-18.079-1.663c-5.488-1.683-14.768-6.014-17.109-16.545
	c-0.606-2.692,1.031-9.619,6.472-8.238c6.646,1.685,12.568,11.843,12.568,11.843s1.905-8.238,3.1-11.422
	c1.195-3.229,4.154-9.548,4.154-9.548s-2.388-3.323-9.337-6.88c-7.735-3.886-16.324-5.5-16.324-5.5s-0.223,6.95-4.797,13.692
	c-4.553,6.693-12.311,10.765-12.311,10.765s3.135,5.804,4.563,10.086c2.397,7.184,2.56,14.136,2.56,14.136s-1.766,0.257-3.123,0.257
	s-3.837-0.421-3.837-0.421s0.07,1.545,0.233,3.066c0.164,1.499,0.479,3.51,0.479,3.51s2.329,0.072,3.36,0.072
	c1.042,0,3.685,0.092,3.685,0.092s0.153,14.465,0.233,23.028c0.035,2.552,0.082,8.754,0.139,16.195
	c0.143,17.367,0.341,41.425,0.341,41.425l2,0.186c0,0,1.475-5.218,7.361-11.771c6.378-7.092,11.199-6.624,13.679-13.504
	c1.766-4.915,2.376-13.201,2.458-15.986c0-0.092,0.012-0.211,0.012-0.352c0.057-4.891-0.422-40.346-0.422-40.346L226.308,102.692"/>
<path d="M113.166,202.064l-1.285-0.587c-1.324-0.585-3.055-1.381-3.055-3.043c0-1.801,1.498-3.018,3.219-3.018
	c1.672,0,2.597,0.796,3.369,2.13l1.745-1.148c-1.042-1.895-2.881-2.994-5.056-2.994c-2.879,0-5.453,1.918-5.453,4.961
	c0,2.808,1.966,3.933,4.248,5.009l1.183,0.467c1.813,0.843,3.591,1.641,3.591,3.886c0,2.2-1.907,3.814-4.013,3.814
	c-2.073,0-3.605-1.615-3.886-3.628l-2.13,0.61c0.632,3.018,2.95,5.032,6.075,5.032c3.393,0,6.131-2.621,6.131-6.016
	C117.848,204.45,115.695,203.185,113.166,202.064 M126.471,195.743h4.704v17.459h2.165v-17.459h4.75v-2.012h-11.619V195.743
	 M159.165,205.338c0,1.545,0.07,3.231-0.958,4.471c-0.902,1.076-2.435,1.731-3.828,1.731c-1.414,0-3.076-0.679-3.919-1.848
	c-0.913-1.264-0.854-2.903-0.854-4.354v-11.607h-2.177v12.192c0,2.224,0.211,4.002,1.919,5.64c1.31,1.311,3.205,1.991,5.03,1.991
	c1.979,0,3.908-0.773,5.243-2.224c1.557-1.592,1.71-3.276,1.71-5.406v-12.192h-2.167V205.338 M170.632,195.743h4.706v17.459h2.163
	v-17.459h4.762v-2.012h-11.631V195.743 M189.941,195.743h4.703v17.459h2.177v-17.459h4.741v-2.012h-11.621V195.743 M220.939,205.457
	h5.816c0,3.626-3.581,6.084-6.963,6.084c-2.047,0-4.107-1.054-5.533-2.458c-1.451-1.498-2.283-3.463-2.283-5.523
	c0-4.4,3.524-8.144,7.96-8.144c2.867,0,5.065,1.357,6.704,3.677l1.568-1.477c-2.071-2.691-4.844-4.212-8.251-4.212
	c-5.605,0-10.156,4.539-10.156,10.109c0,5.523,4.551,10.041,10.041,10.041c2.714,0,5.417-1.195,7.207-3.254
	c1.79-2.061,2.059-4.236,2.013-6.857h-8.122V205.457 M243.102,205.666l3.334-7.77l3.254,7.77H243.102z M237.497,213.202h2.376
	l2.341-5.476h8.318l2.317,5.476h2.386l-8.75-20.408L237.497,213.202 M266.692,202.764v-7.021h0.644c2.609,0,4.971,0.327,4.971,3.511
	c0,3.043-2.491,3.51-4.936,3.51H266.692z M274.45,199.113c0-4.4-3.428-5.382-7.113-5.382h-2.808v19.471h2.163v-8.519h0.526
	l5.897,8.519h2.682l-6.214-8.705C272.579,204.215,274.45,202.132,274.45,199.113 M283.472,193.731v2.012h4.692v17.459h2.177v-17.459
	h4.738v-2.012H283.472"/>
</svg>
