<?xml version="1.0" encoding="utf-8"?>
<!-- Generator: Adobe Illustrator 19.1.0, SVG Export Plug-In . SVG Version: 6.00 Build 0)  -->
<svg version="1.1" id="Layer_1" xmlns="http://www.w3.org/2000/svg" xmlns:xlink="http://www.w3.org/1999/xlink" x="0px" y="0px"
	 viewBox="0 0 400 400" enable-background="new 0 0 400 400" xml:space="preserve">
<polyline fill="#00AD94" points="200.502,5.152 72.854,200.101 200.502,395.051 328.146,200.101 200.491,5.152 "/>
<polyline fill="none" stroke="#FFFFFF" stroke-width="1.02" points="200.502,5.152 72.854,200.101 200.502,395.051 328.146,200.101 
	200.491,5.152 "/>
<polyline fill="#FFFFFF" points="200.502,18.099 81.369,200.101 200.502,382.103 319.632,200.101 200.491,18.099 "/>
<polygon fill="#00AD94" points="200.502,26.735 87.09,200.101 200.502,373.467 313.914,200.101 "/>
<path fill="#FFFFFF" d="M252.819,121.619c-6.736-12.186-19.771-28.952-34.961-33.726c-9.431-2.976-24.102-3.483-32.351,1.854
	c-8.766,5.678-14.548,15.335-14.425,23.999c0.145,10.413,6.967,18.394,18.114,19.19c9.117,0.653,15.107-5.264,15.107-5.264
	c5.534-0.393,17.471,4.614,26.734,19.015c6.505,10.058,14.259,29.074,14.259,57.282c0,28.619-13.369,61.921-13.369,61.921
	l-31.645-74.852l-33.22,74.665c-13.908-29.957-14.072-68.058-14.072-76.544c0-9.542,2.26-27.853,2.26-27.853
	c18.278,0,22.361-12.516,22.319-19.355c-0.104-14.672-13.119-17.739-17.408-17.966c-11.793-0.622-19.378,7.43-23.397,15.5
	c-5.907,11.857-7.025,24.526-7.025,33.999c0,9.013,3.688,38.794,10.57,64.202c6.901,25.387,32.867,80.928,32.867,80.928
	l27.106-55.986l27.357,55.922c0,0,6.61-11.594,17.823-39.966c11.481-29.014,20.496-67.158,20.453-92.219
	C265.834,156.219,259.181,133.132,252.819,121.619"/>
</svg>
