<?xml version="1.0" encoding="utf-8"?>
<!-- Generator: Adobe Illustrator 19.1.0, SVG Export Plug-In . SVG Version: 6.00 Build 0)  -->
<svg version="1.1" id="Layer_1" xmlns="http://www.w3.org/2000/svg" xmlns:xlink="http://www.w3.org/1999/xlink" x="0px" y="0px"
	 viewBox="0 0 400 400" enable-background="new 0 0 400 400" xml:space="preserve">
<g>
	<defs>
		<path id="SVGID_1_" d="M390.125,199.504c0,104.791-84.952,189.746-189.747,189.746c-104.793,0-189.744-84.954-189.744-189.746
			c0-104.797,84.951-189.753,189.744-189.753C305.173,9.751,390.125,94.707,390.125,199.504"/>
	</defs>
	<clipPath id="SVGID_2_">
		<use xlink:href="#SVGID_1_"  overflow="visible"/>
	</clipPath>
	<path clip-path="url(#SVGID_2_)" fill="#FFFFFF" d="M80.223,65.016C54.029,92.87,37.751,133.071,37.751,181.955
		c0,97.891,79.801,171.596,171.981,171.596c98.527,0,171.978-80.053,171.978-171.596c0-38.708-13.862-73.71-36.036-102.815
		c-33.601-40.523-83.831-66.759-140.227-68.242C158.684,12.801,110.627,32.682,80.223,65.016"/>
	<path clip-path="url(#SVGID_2_)" fill="#37A24F" d="M320.191,76.252c-38.471,0-54.468,11.43-54.468,29.902v126.459
		c0,5.816-6.586,10.524-14.711,10.524c-8.125,0-14.711-4.708-14.711-10.524V108.631c-38.471,0-54.472,11.424-54.472,29.897v94.084
		c0,5.816-6.586,10.524-14.711,10.524c-8.125,0-14.713-4.708-14.713-10.524V76.252c-38.471,0-54.468,11.43-54.468,29.902v130.649
		c0,33.665,27.286,60.948,60.944,60.948c20.821,0,39.191-10.445,50.183-26.378c10.999,15.933,29.369,26.378,50.186,26.378
		c33.658,0,60.942-27.29,60.942-60.948V76.252"/>
	<path clip-path="url(#SVGID_2_)" fill="#37A24F" d="M345.674,79.14c22.174,29.104,36.036,64.107,36.036,102.815
		c0,91.544-73.451,171.596-171.978,171.596c-92.181,0-171.981-73.705-171.981-171.596c0-48.884,16.279-89.084,42.472-116.939
		c30.405-32.334,78.462-52.214,125.224-54.117c-1.678-0.043-3.36-0.066-5.048-0.066c-104.182,0-188.639,84.457-188.639,188.643
		c0,104.184,84.457,188.641,188.639,188.641s188.645-84.457,188.645-188.641C389.043,153.737,372.761,111.796,345.674,79.14"/>
</g>
<g>
	<defs>
		<path id="SVGID_3_" d="M391.247,199.504c0,105.416-85.451,190.868-190.869,190.868c-105.411,0-190.866-85.451-190.866-190.868
			C9.512,94.086,94.967,8.629,200.378,8.629C305.796,8.629,391.247,94.086,391.247,199.504"/>
	</defs>
	<clipPath id="SVGID_4_">
		<use xlink:href="#SVGID_3_"  overflow="visible"/>
	</clipPath>
	<path clip-path="url(#SVGID_4_)" fill="none" stroke="#FFFFFF" stroke-width="2.54" stroke-miterlimit="10" d="M391.247,199.504
		c0,105.416-85.451,190.868-190.869,190.868c-105.411,0-190.866-85.451-190.866-190.868C9.512,94.086,94.967,8.629,200.378,8.629
		C305.796,8.629,391.247,94.086,391.247,199.504z"/>
</g>
</svg>
