<?xml version="1.0" encoding="utf-8"?>
<!-- Generator: Adobe Illustrator 19.1.0, SVG Export Plug-In . SVG Version: 6.00 Build 0)  -->
<svg version="1.1" id="Layer_1" xmlns="http://www.w3.org/2000/svg" xmlns:xlink="http://www.w3.org/1999/xlink" x="0px" y="0px"
	 viewBox="0 0 150 150" enable-background="new 0 0 150 150" xml:space="preserve">
<g>
	<g>
		<g>
			<path fill-rule="evenodd" clip-rule="evenodd" fill="#FFFFFF" d="M75.144,29.423c41.29,0.124,74.938,20.897,74.856,46.239
				c-0.081,25.331-33.835,45.895-75.147,45.766C33.542,121.302-0.078,100.524,0,75.188C0.079,49.855,33.832,29.293,75.144,29.423"/>
			<path fill-rule="evenodd" clip-rule="evenodd" fill="#EB0029" d="M119.362,56.914l0.187,0.232
				c2.423,2.736,4.312,5.716,5.591,8.865c1.226,3.048,1.887,6.263,1.881,9.578c-0.008,1.063-0.081,2.122-0.228,3.164
				c-0.143,1.075-0.356,2.117-0.621,3.148l-0.071,0.279l-0.285-0.006l-9.295-0.014l-0.336,0.01l-0.041-0.336l-2.403-21.435
				l-0.031-0.241l0.218-0.118l5.172-2.97L119.362,56.914z M113.656,98.478c0.407,0.071,0.483,0.285,0.208,0.662
				c-4.87,3.757-10.893,6.79-17.669,8.867c-6.515,1.985-13.723,3.091-21.306,3.064c-8.144-0.026-15.868-1.344-22.743-3.671
				c-7.149-2.423-13.372-5.929-18.223-10.205l-0.188-0.173l0.092-0.238l1.855-4.622l0.092-0.23l12.739,0.035l0.056,0.297l1.12,5.817
				l30.382,0.092l0.285-13.367l0.006-0.366h0.366l11.962,0.071l-0.383-14.189l-0.014-0.374l0.377-0.003l3.838,0.006l0.346-0.008
				l0.014,0.348l2.016,27.892L113.656,98.478z M75.108,39.777c0.346,0.002,0.702,0,1.049,0.01c0.346,0.004,0.692,0.017,1.018,0.027
				l0.377,0.013l-0.035,8.767l4.386,0.015l0.033-8.506l0.407,0.046c0.782,0.078,1.588,0.166,2.37,0.268
				c0.786,0.102,1.568,0.224,2.327,0.346l0.305,0.051l-0.01,4.87l4.428,0.018l0.014-3.993l0.448,0.112
				c4.602,1.114,8.894,2.671,12.807,4.573c3.956,1.932,7.499,4.235,10.543,6.829c0.33,0.394,0.261,0.613-0.248,0.649L63.11,53.71
				l-0.616,22.931c-0.151,0.489-0.402,0.519-0.718,0.092l-6.821-23.048l-20.162-0.063c-0.419-0.108-0.58-0.305-0.234-0.647
				c3.08-2.606,6.69-4.909,10.72-6.828c3.965-1.901,8.343-3.431,13.002-4.51l0.454-0.102l-0.01,3.988l4.212,0.013l0.015-4.5
				l0.005-0.313l0.311-0.049c0.738-0.117,1.481-0.226,2.245-0.316c0.743-0.097,1.486-0.178,2.25-0.249l0.397-0.041l-0.01,8.493
				l4.388,0.014l0.036-8.765l0.346-0.012c0.367-0.005,0.723-0.018,1.089-0.022C74.375,39.77,74.741,39.77,75.108,39.777z
				 M23.909,78.84c-0.278,0.193-0.507,0.153-0.695-0.132c-0.074-0.58-0.137-1.15-0.178-1.706c-0.036-0.57-0.046-1.148-0.049-1.743
				c0.008-3.258,0.665-6.416,1.881-9.419c1.244-3.097,3.097-6.017,5.448-8.714l0.193-0.232l0.271,0.161l3.743,2.197l0.316,0.187
				l-0.183,0.322"/>
			<path fill-rule="evenodd" clip-rule="evenodd" fill="#002F87" d="M75.128,33.635c37.922,0.115,68.792,18.991,68.723,42.003
				c-0.073,23.024-31.062,41.694-68.993,41.572C36.942,117.098,6.081,98.223,6.145,75.211C6.226,52.19,37.207,33.518,75.128,33.635z
				 M74.981,40.357c0.683,0.002,1.375,0.01,2.068,0.033l-0.026,8.784l5.121,0.017l0.031-8.467c1.588,0.157,3.146,0.356,4.677,0.618
				l-0.02,4.927l5.172,0.017l0.016-3.899c9.183,2.236,17.205,6.21,23.187,11.331L62.627,53.55l-0.623,23.284L55.106,53.53
				L34.67,53.466c6.082-5.138,14.229-9.091,23.571-11.254l-0.007,3.894l4.948,0.017l0.015-4.876
				c1.466-0.234,2.952-0.419,4.469-0.564l-0.031,8.462l5.141,0.012l0.025-8.786C73.525,40.359,74.248,40.354,74.981,40.357z
				 M119.154,57.594c4.687,5.329,7.379,11.563,7.354,18.202c-0.004,2.118-0.289,4.198-0.825,6.22l-9.295-0.01l-2.403-21.442
				L119.154,57.594z M113.518,99.058c-9.504,7.309-23.364,11.911-38.756,11.85c-16.535-0.041-31.279-5.446-40.711-13.784
				l1.841-4.612l12.193,0.037l1.174,6.122l31.031,0.092l0.31-13.743l12.338,0.077l-0.387-14.576h3.828L98.4,98.747L113.518,99.058z
				 M23.455,78.871c-0.147-1.12-0.228-2.25-0.231-3.398c0.02-6.536,2.662-12.651,7.238-17.894l3.753,2.204L23.455,78.871z
				 M61.502,44.151l0.005,0.013l-1.593-0.003l-0.003-0.013l-0.024,0.006l0.012-4.151c-0.54,0.107-1.074,0.226-1.609,0.351
				l-0.039,0.005c-20.948,4.878-36.144,18.767-36.203,35.117c-0.005,1.705,0.161,3.391,0.478,5.044l-2.657,4.713
				c-1.196-3.135-1.824-6.414-1.812-9.795c0.066-21.351,25.703-38.691,57.055-38.593c31.364,0.102,56.882,17.594,56.821,38.944
				c-0.014,2.126-0.271,4.207-0.763,6.228h-4.255c0.493-2.022,0.77-4.103,0.763-6.212c0.061-16.734-15.769-30.989-37.457-35.678
				v4.119h-1.67l0.004-4.455c-2.602-0.496-5.29-0.862-8.022-1.069l-0.037,8.588h-1.669l0.026-8.702
				c-1.283-0.066-2.565-0.107-3.869-0.112c-1.303-0.002-2.606,0.033-3.889,0.097l-0.036,8.694l-1.67-0.005l0.025-8.6
				c-2.693,0.197-5.329,0.529-7.882,0.996h-0.02L61.502,44.151z M33.469,98.58c9.658,8.588,24.579,14.134,41.288,14.191
				c16.532,0.051,31.35-5.294,41.062-13.662l4.414,0.092c-10.451,9.27-26.902,15.25-45.349,15.189
				c-18.671-0.061-35.264-6.281-45.633-15.81l4.201,0.031"/>
			<path fill-rule="evenodd" clip-rule="evenodd" fill="#FFFFFF" d="M40.843,60.956l-8.574-4.527l20.854,0.056L63.67,90.812
				l0.275-0.01l0.881-34.397l30.561,0.09l0.393,9.213L77.321,65.72l-0.02,6.002l12.473,0.17l0.085,8.638l-12.705-0.02l-0.106,13.916
				l-25.889-0.077L49.944,88.4l-15.789-0.051l-2.786,5.915l-13.916-0.045l19.261-33.275L40.843,60.956z M48.539,81.599l-3.17-15.401
				l-0.762-0.017l-7.25,15.388"/>
			<polyline fill="#FFFFFF" stroke="#000000" stroke-width="1.25" stroke-miterlimit="5" points="98.105,56.564 117.051,56.627 
				107.821,61.04 111.437,61.106 114.227,84.975 130.393,85.071 132.417,94.552 100.532,94.497 			"/>
		</g>
	</g>
</g>
</svg>
