<?xml version="1.0" encoding="utf-8"?>
<!-- Generator: Adobe Illustrator 19.1.0, SVG Export Plug-In . SVG Version: 6.00 Build 0)  -->
<svg version="1.1" id="Layer_1" xmlns="http://www.w3.org/2000/svg" xmlns:xlink="http://www.w3.org/1999/xlink" x="0px" y="0px"
	 viewBox="0 0 400 400" enable-background="new 0 0 400 400" xml:space="preserve">
<g>
	<path fill="#A41D4A" d="M38.391,117.103v-54.61c0-6.096,0-10.447-4.854-14.802h33.339c-4.729,4.355-4.853,8.705-4.853,14.802
		v55.225c4.604,1.496,8.955,2.24,13.559,2.24c6.22,0,11.448-1.862,17.041-5.719l-4.475,17.786H33.537
		C38.267,127.549,38.391,123.07,38.391,117.103"/>
	<path fill="#A41D4A" d="M126.063,132.025H92.732c4.725-4.476,4.85-8.955,4.85-14.922V62.496c0-6.1,0-10.451-4.85-14.806h33.331
		c-4.721,4.355-4.845,8.705-4.845,14.806v54.606C121.218,123.07,121.342,127.549,126.063,132.025"/>
	<path fill="#A41D4A" d="M126.924,89.731c0-11.564,5.344-23.379,15.051-32.089c8.709-7.712,20.145-11.946,32.587-11.946
		c28.235,0,47.762,18.292,47.762,44.163c0,11.565-5.349,23.633-15.05,32.213c-8.706,7.837-20.146,11.943-32.712,11.943
		C146.575,134.016,126.924,115.482,126.924,89.731 M175.31,121.703c13.06,0,21.89-9.953,21.89-27.991
		c0-21.392-9.699-34.573-23.382-34.573c-12.811,0-21.77,9.952-21.77,27.858C152.047,108.513,161.746,121.703,175.31,121.703"/>
	<path fill="#A41D4A" d="M227.873,110.878V65.596c0-5.963-0.12-10.816-6.719-17.901h25.993l38.313,51.618V69.834v-3.856
		c0-5.726-0.492-11.199-5.968-18.284h24.131c-4.597,7.587-4.978,13.176-4.978,18.657v3.482v64.31
		c-18.283-2.119-24.376-10.824-32.093-20.901l-25.497-33.215v30.85v4.978c0,6.466,0.503,11.194,5.602,16.169h-24.633
		C227.873,125.68,227.873,119.716,227.873,110.878"/>
	<path fill="#A41D4A" d="M329.869,120.336c7.957,0,12.806-4.105,12.81-9.333c0-7.957-8.705-10.198-20.523-16.293
		c-11.694-5.972-17.785-14.556-17.785-24.505c0-14.303,11.568-24.508,30.971-24.508c7.213,0,13.932,1.371,21.148,3.985v14.178
		c-7.089-3.607-12.812-5.723-17.545-5.723c-6.719,0-11.065,3.736-11.065,8.215c0,6.961,8.955,9.45,23.512,17.412
		c9.701,5.352,14.178,12.687,14.178,22.888c0,15.799-13.065,26.74-33.211,26.74c-8.335,0-16.418-1.616-25.008-4.475l-4.351-17.914
		C312.823,116.974,321.159,120.336,329.869,120.336"/>
	<path fill="#0F57A3" d="M94.803,32.53V14.247c0-2.043-0.044-3.494-1.62-4.954h10.491c7.077,0,10.66,2.497,10.66,6.664
		c0,2.457-1.451,4.415-4.246,5.621c3.792,1.122,5.79,3.623,5.79,7.371c0,2.208-0.792,4.25-2.248,5.831
		c-2.171,2.292-4.664,2.75-8.291,2.75H93.183C94.759,36.029,94.803,34.53,94.803,32.53 M103.923,20.078
		c1.793,0,2.911-1.247,2.911-3.374c0-1.789-1.117-3.165-2.826-3.165c-0.21,0-0.628,0.041-1.207,0.129v6.329
		C103.3,20.078,103.674,20.078,103.923,20.078 M104.465,33.448c2.497,0,4.207-1.959,4.207-4.624c0-2.996-1.709-4.869-4.25-4.869
		c-0.374,0-0.917,0.08-1.621,0.164v9.164C103.593,33.408,104.132,33.448,104.465,33.448"/>
	<path fill="#0F57A3" d="M121.716,37.529c1.584-1.5,1.628-2.999,1.628-4.998V14.247c0-2.043,0-3.494-1.628-4.954h10.993
		c7.291,0,10.958,2.453,10.958,7.54c0,3.04-1.664,5.203-5.167,6.868l5.123,8.745c0.792,1.336,2.002,2.915,3.748,4.705l-4.705,0.463
		c-0.374,0.041-0.748,0.041-1.122,0.041c-3.125,0-4.79-1.545-6.627-5.083l-3.663-7.161v7.121c0,1.999,0.04,3.498,1.624,4.998
		H121.716z M135.879,17.745c0-2.582-1.5-4.206-3.997-4.206c-0.21,0-0.419,0-0.627,0.041v9.623
		C134.298,22.414,135.879,20.492,135.879,17.745"/>
	<path fill="#0F57A3" d="M161.698,37.529h-11.162c1.589-1.5,1.628-2.999,1.628-4.998V14.247c0-2.043,0-3.498-1.628-4.958h11.162
		c-1.584,1.46-1.624,2.915-1.624,4.958V32.53C160.074,34.53,160.114,36.029,161.698,37.529"/>
	<path fill="#0F57A3" d="M176.359,33.613c2.666,0,4.29-1.375,4.29-3.12c0-2.67-2.916-3.418-6.872-5.457
		c-3.912-1.999-5.955-4.874-5.955-8.207c0-4.786,3.872-8.199,10.371-8.199c2.413,0,4.66,0.455,7.077,1.327v4.749
		c-2.373-1.207-4.286-1.915-5.867-1.915c-2.252,0-3.711,1.247-3.711,2.746c0,2.337,3.003,3.165,7.873,5.831
		c3.245,1.793,4.749,4.25,4.749,7.664c0,5.288-4.375,8.955-11.119,8.955c-2.79,0-5.501-0.543-8.372-1.5l-1.46-5.995
		C170.653,32.491,173.444,33.613,176.359,33.613"/>
	<path fill="#0F57A3" d="M194.989,32.53V14.247c0-2.043-0.044-3.494-1.625-4.954h10.495c7.081,0,10.659,2.497,10.659,6.664
		c0,2.457-1.451,4.415-4.25,5.621c3.793,1.122,5.791,3.623,5.791,7.371c0,2.208-0.793,4.25-2.244,5.831
		c-2.172,2.292-4.664,2.75-8.287,2.75h-12.164C194.944,36.029,194.989,34.53,194.989,32.53 M204.108,20.078
		c1.79,0,2.916-1.247,2.916-3.374c0-1.789-1.126-3.165-2.832-3.165c-0.204,0-0.627,0.041-1.206,0.129v6.329
		C203.486,20.078,203.859,20.078,204.108,20.078 M204.652,33.448c2.496,0,4.205-1.959,4.205-4.624c0-2.996-1.709-4.869-4.25-4.869
		c-0.373,0-0.912,0.08-1.62,0.164v9.164C203.775,33.408,204.318,33.448,204.652,33.448"/>
	<path fill="#0F57A3" d="M221.069,33.319l6.623-18.948c0.254-0.748,0.627-1.46,0.627-2.372c0-0.957-0.503-1.709-1.375-2.711h9.997
		l7.993,23.157c0.708,2.003,1.789,3.789,3.122,5.083h-12.241c0.957-1.081,1.5-1.789,1.5-2.916c0-0.583-0.085-1.081-0.209-1.415
		l-1.415-4.041h-8.497l-1.336,3.876c-0.209,0.667-0.373,1.206-0.373,1.705c0,1.001,0.461,1.918,1.335,2.79h-8.288
		C219.654,36.194,220.527,34.863,221.069,33.319 M234.354,25.2l-2.874-8.705l-2.912,8.705H234.354z"/>
	<path fill="#0F57A3" d="M252.306,30.448V15.284c0-1.99-0.041-3.619-2.252-5.996h8.709l12.823,17.287v-9.868v-1.295
		c0-1.914-0.161-3.748-1.999-6.124h8.079c-1.536,2.541-1.665,4.419-1.665,6.249v1.17v21.529c-6.119-0.708-8.158-3.623-10.739-6.997
		l-8.541-11.118v10.326v1.669c0,2.164,0.169,3.744,1.874,5.412h-8.243C252.306,35.406,252.306,33.408,252.306,30.448"/>
	<path fill="#0F57A3" d="M285.25,32.53V14.247c0-2.043,0-3.494-1.624-4.954h16.531v5.871c-1.411-1.331-2.453-1.624-4.038-1.624
		h-2.871v7.041h5.408v5.413c-0.664-0.917-1.705-1.415-3.04-1.415h-2.368v8.497c1.041,0.209,2.079,0.374,3.121,0.374
		c2.831,0,4.998-0.503,7.081-2.083l-1.5,6.164h-18.324C285.21,36.029,285.25,34.53,285.25,32.53"/>
	<path fill="#FEC059" d="M192.122,106.487c0,0-22.096-2.835-44.876,6.305c0,0,3.032,3.362,2.646,5.606
		c0,0-31.561,6.956-43.026,26.611c0,0,4.536,0.378,5.674,3.366c0,0-24.199,15.694-24.959,31.766c0,0,9.076,2.614,4.158,6.727
		c-4.91,4.114-20.793,10.845-21.545,20.187c0,0,9.783-0.58,7.182,8.597c-0.897,3.169-2.827,11.139-2.827,22.039
		c0,91.146,125.301,154.56,125.301,154.56s125.434-63.414,125.434-154.56c-0.027-2.196-0.606-21.637-6.683-32.132
		c0,0,2.027-1.379,4.158-1.122c0,0-0.888-9.57-11.633-21.404c-4.81-5.3-6.285-14.561,0.289-15.224c0,0-0.748-5.714-13.486-7.793
		c-3.077-0.503-3.45-0.374-5.268-3.37c-1.653-2.73-2.839-9.031-0.744-13.024c0,0-4.934-2.023-8.598,0.056
		c0,0-10.471-22.964-23.326-26.326c0,0-0.188,2.18-2.175,3.434c0,0-16.257-18.517-32.108-19.096c0,0,0.148,2.907-1.331,4.974
		c0,0-17.499-5.304-32.623-4.745C191.756,101.919,193.139,104.597,192.122,106.487"/>
	<path fill="#A41D4A" d="M110.678,188.284c0,0-5.151,2.578-13.185,3.125c0,0,5.09,3.989,14.226,3.863
		C111.72,195.272,110.92,191.718,110.678,188.284"/>
	<path fill="#A41D4A" d="M321.075,243.398c-4.388-39.846-23.665-56.171-23.665-56.171c8.488-0.663,15.123,6.221,15.123,6.221
		c-13.655-26.516-27.762-32.27-33.805-33.5c8.665,5.388,14.689,19.137,6.868,44.04c-8.062-13.905-16.103-17.621-16.103-17.621
		c4.359-2.465,11.182,1.323,11.182,1.323c-5.303-12.88-18.384-12.502-18.384-12.502c5.496-4.93,14.589-1.516,14.589-1.516
		c-10.709-10.447-27.657-6.048-27.657-6.048s8.589-11.038,21.062-10.358c1.882,0.1,3.796,0.514,5.654,1.266
		c2.046-7.261,9.285-9.401,9.285-9.401c-12.14-3.599-26.435,5.686-26.435,5.686c5.774-13.269,4.262-26.149,4.262-26.149
		c-9.465,25.269-22.143,36.371-22.143,36.371c11.568-22.695-1.982-51.764-1.982-51.764c4.656,30.36-10.367,46.613-10.367,46.613
		c2.638-36.552-13.31-47.903-13.31-47.903c12.023,18.521,2.024,45.145,2.024,45.145c-7.11-36.986-37.719-44.285-37.719-44.285
		c30.053,18.336,25.575,55.012,25.575,55.012c-5.642-29.925-29.375-42.073-29.375-42.073c14.351,13.616,16.494,36.676,16.494,36.676
		c-21.894-44.22-60.779-33.118-60.779-33.118c36.982,3.37,45.575,33.424,45.575,33.424c-22.759-29.868-53.915-20.725-53.915-20.725
		c23.612,1.467,32.691,19.257,32.691,19.257c-30.238-23.186-56.979,6.498-56.979,6.498c8.557-2.835,11.838,1.901,11.838,1.901
		c-9.261,4.295-13.185,11.469-13.185,11.469c8.584-2.574,13-0.856,13-0.856c0.064-2.272,1.472-18.405,14.717-22.265
		c14.617-4.262,25.148,9.631,25.148,9.631c-19.011-4.053-27.476,6.008-27.476,6.008c10.182-3.374,14.412,1.596,14.412,1.596
		c-14.536,0.555-18.32,12.409-18.32,12.409c7.784-3.864,11.207-1.25,11.207-1.25c-20.15,20.242-44.2,13.286-44.2,13.286
		c18.409,12.02,41.092,5.549,41.092,5.549c-19.188,14.138-43.838,9.702-43.838,9.702c24.682,14.122,38.606,8.288,38.606,8.288
		c-9.936,14.266-40.239,13.406-40.239,13.406c18.771,12.146,40.239,5.4,40.239,5.4c-5.674,8.617-17.665,9.815-17.665,9.815
		c12.329,5.609,20.609,2.944,20.609,2.944c-9.695,9.538-31.132,5.435-31.132,5.435c16.595,13.511,38.49,8.546,38.49,8.546
		c-22.232,15.547-45.88,1.492-45.88,1.492c16.808,17.95,47.376,16.296,47.376,16.296c-11.709,8.091-26.057,4.926-26.057,4.926
		c11.895,9.884,21.292,9.421,21.292,9.421c-13.249,5.727-29.535-1.177-29.535-1.177c13.881,17.06,39.507,16.196,39.507,16.196
		c-8.295,5.534-23.306,2.561-23.306,2.561c21.416,14.405,40.074,11.087,40.074,11.087c-16.881,6.695-29.845,2.557-29.845,2.557
		c21.673,11.621,34.77,10.515,34.77,10.515c-7.576,5.67-14.689,3.676-14.689,3.676s15.119,12.18,25.566,19.936
		c18.196,12.417,28.433,17.733,28.433,17.733c57.244-32.382,53.155-49.881,53.155-49.881c4.255,3.759,5.424,9.103,5.424,9.103
		c19.929-16.543,22.141-39.238,22.141-39.238c4.78,9.015-0.407,22.401-0.407,22.401c23.033-25.161,14.906-50.103,14.906-50.103
		c6.869,2.456,7.857,18.606,7.857,18.606c23.676-40.911,1.5-72.87,1.5-72.87C312.397,224.526,321.075,243.398,321.075,243.398"/>
	<path fill="#7D1542" d="M321.075,243.398c-4.388-39.846-23.665-56.171-23.665-56.171c8.488-0.663,15.123,6.221,15.123,6.221
		c-13.655-26.516-27.762-32.27-33.805-33.5c8.665,5.388,14.689,19.137,6.868,44.04c-8.062-13.905-16.103-17.621-16.103-17.621
		c4.359-2.465,11.182,1.323,11.182,1.323c-5.303-12.88-18.384-12.502-18.384-12.502c5.496-4.93,14.589-1.516,14.589-1.516
		c-10.709-10.447-27.657-6.048-27.657-6.048c-2.703,0.495-3.599,0.724-3.599,0.724s-13.619-1.898-27.356,2.763
		c-16.217,5.501-17.431,23.367-18.433,23.367c-0.997,0-2.272-17.866-18.485-23.367c-13.739-4.66-27.359-2.763-27.359-2.763
		s8.368,1.862,8.215,4.693c-0.1,1.789-2.992,2.3-6.128,2.975c-1.576,0.342-7.913,1.902-11.078,5.191c0,0,7.205-1.13,8.15,0.901
		c1.154,2.477-7.186,6.808-17.077,10.406c0,0,4.419-0.266,5.516,2.212c1.44,3.249-2.05,7.458-3.449,9.441
		c-14.991,21.22-9.43,38.719-2.385,50.996c4.773,8.308,19.341,31.587,19.341,31.587s-2.802,5.565-2.179,13.14
		c0.817,9.972,0.817,14.633,5.356,19.948c1.597,1.878,5.517,7.115,5.026,12.264c-0.639,6.76,1.472,13.375,8.71,18.405
		c0,0,0.981-2.456,2.822-2.943c0,0,1.986,3.272,9.446,7.233c9.373,4.983,14.826,10.046,15.425,29.157
		c0.096,0.049,0.148,0.077,0.148,0.077c57.244-32.382,53.155-49.881,53.155-49.881c4.255,3.759,5.424,9.103,5.424,9.103
		c19.929-16.543,22.141-39.238,22.141-39.238c4.78,9.015-0.407,22.401-0.407,22.401c23.033-25.161,14.906-50.103,14.906-50.103
		c6.869,2.456,7.857,18.606,7.857,18.606c23.676-40.911,1.5-72.87,1.5-72.87C312.397,224.526,321.075,243.398,321.075,243.398"/>
	<path fill="#FEC059" d="M270.251,238.334c1.73-9.349,0.378-22.635-8.68-34.167c-0.962-1.218-6.857-8.375-10.765-13.028
		c-2.244-2.675-5.842-6.068-5.147-8.075c1.153-3.349,8.955-1.858,8.955-1.858c-2.815-3.229-8.558-4.452-11.078-5.187
		c-2.711-0.8-6.028-1.19-6.129-2.98c-0.149-2.831,8.215-4.689,8.215-4.689s-13.615-1.902-27.356,2.759
		c-16.217,5.501-17.431,23.367-18.433,23.367c-1.001,0-2.272-17.866-18.489-23.367c-13.74-4.66-27.351-2.759-27.351-2.759
		s8.364,1.858,8.211,4.689c-0.096,1.789-2.996,2.304-6.128,2.98c-1.572,0.337-7.909,1.898-11.082,5.187c0,0,7.205-1.13,8.154,0.901
		c1.158,2.473-7.186,6.808-17.081,10.406c0,0,4.423-0.262,5.52,2.212c1.44,3.249-2.05,7.458-3.449,9.441
		c-14.991,21.22-9.43,38.719-2.385,50.996c4.769,8.308,19.337,31.59,19.337,31.59c3.133-6.442,8.77-7.701,8.77-7.701
		c-3.76,2.284-5.774,5.935-6.824,9.591c2.199-0.22,4.427-0.346,6.687-0.346c6.213,0,12.224,0.877,17.914,2.506
		c0.57,0.166,1.471,0.922,1.105,2.115c-0.374,1.211-1.597,1.223-2.103,1.057c-6.298-2.063-13.028-3.18-20.013-3.18
		c-9.446,0-18.417,2.034-26.495,5.698l0.201,0.587c6.788-2.939,14.195-4.705,21.971-5.05c-0.213,1.451-0.309,2.831-0.341,4.049
		c2.541-0.346,5.127-0.527,7.761-0.527c5.308,0,10.45,0.72,15.332,2.07c0.579,0.161,1.464,0.901,1.162,2.043
		c-0.313,1.186-1.576,1.343-2.054,1.186c-5.529-1.789-11.424-2.762-17.536-2.762c-8.609,0-16.773,1.917-24.099,5.353l0.197,0.571
		c5.959-2.659,12.469-4.284,19.309-4.665c0.057,0.836,0.318,2.955,0.483,3.981c-0.009,0-0.017,0.004-0.025,0.004
		c2.356-0.341,4.773-0.522,7.23-0.522c4.395,0,8.658,0.567,12.727,1.628c0.599,0.157,1.516,0.844,1.214,1.99
		c-0.349,1.335-1.6,1.364-2.099,1.206c-4.729-1.476-9.751-2.271-14.951-2.256c-7.772,0.024-15.127,1.834-21.674,5.043l0.194,0.558
		c5.501-2.55,11.565-4.081,17.95-4.363c0.289,1.569,0.554,2.973,0.687,3.764c1.234,7.29,8.613,9.719,13.696,7.31
		c0.366-0.172,18.429-8.786,19.024-9.05c5.006-2.286,8.641-7.046,9.357-12.719c0.72,5.673,4.355,10.434,9.361,12.719
		c0.592,0.264,18.659,8.879,19.024,9.05c5.078,2.409,12.457-0.02,13.692-7.31c0.168-0.981,0.418-2.308,0.676-3.764
		c6.389,0.278,12.457,1.813,17.962,4.363l0.193-0.558c-6.546-3.209-13.901-5.019-21.665-5.043
		c-5.225-0.016-10.258,0.783-14.991,2.268c-0.486,0.153-1.653,0.08-2.043-1.097c-0.374-1.118,0.547-1.943,1.126-2.096
		c4.086-1.073,8.376-1.644,12.796-1.644c2.432,0,4.829,0.181,7.174,0.514c0.036-0.241,0.394-2.435,0.53-3.976
		c6.833,0.381,13.333,2.011,19.285,4.665l0.198-0.571c-7.319-3.435-15.486-5.353-24.092-5.353c-6.115,0-12.006,0.968-17.527,2.762
		c-0.482,0.153-1.7,0.032-2.039-1.118c-0.345-1.178,0.535-1.945,1.11-2.107c4.894-1.347,10.04-2.075,15.361-2.075
		c2.65,0,5.263,0.185,7.816,0.535c-0.016-1.246-0.112-2.614-0.341-4.053c7.761,0.349,15.147,2.115,21.911,5.046l0.201-0.587
		c-8.079-3.664-17.046-5.698-26.492-5.698c-7.008,0-13.747,1.122-20.06,3.197c-0.494,0.159-1.77,0.04-2.083-1.147
		c-0.29-1.101,0.523-1.865,1.073-2.026c5.707-1.64,11.734-2.522,17.975-2.522c2.276,0,4.524,0.126,6.739,0.354
		c0,0-0.012-0.004-0.016-0.004c-0.193-0.644-0.406-1.287-0.66-1.947c-3.016-7.869-10.676-9.617-10.676-9.617
		s3.909-4.628,0.853-12.085l-4.073-9.663c0,0,6.872,5.461,16.523,5.658C261.285,261.327,268.591,247.297,270.251,238.334"/>
	<path fill="#FEC059" d="M194.438,339.963c0,0-2.851,1.485-4.186,4.967c0,0-3.687-2.429-4.078-6.619c0,0-3.841,1.471-5.344,5.095
		c0,0-4.022-1.609-4.001-6.309c0,0-2.675,1.573-4.034,4.789c-0.004,0.004-4.62-5.675-4.11-11.316
		c0.671-7.448,6.567-9.872,7.423-10.302c0.853-0.431,14.464-6.929,15.139-7.214c2.497-1.054,5.384-1.802,8.52-1.802
		c3.14,0,6.028,0.748,8.524,1.802c0.677,0.285,14.28,6.783,15.14,7.214c0.86,0.43,6.78,2.851,7.422,10.302
		c0.474,5.52-3.739,10.861-4.109,11.316c0,0-1.069-2.86-4.034-4.789c0,0-0.482,4.39-3.997,6.309c0,0-1.169-3.309-5.348-5.095
		c0,0-0.077,3.679-4.073,6.619c0,0-0.985-3.149-4.887-4.967c0,0-0.301,4.654-5.415,7.66
		C198.994,347.623,197.731,341.432,194.438,339.963"/>
	<path fill="#FFE19A" d="M256.287,218.571c-0.129-0.338-0.378-0.527-0.713-0.574l-0.293-0.78h-0.011
		c0.204-0.149,0.619-0.559,0.531-1.391c-0.126-1.11-0.982-1.516-1.702-1.662c-4.721-0.945-7.229-2.782-8.777-3.884
		c-1.545-1.099-2.638-1.637-4.56-1.637c-5.926,0-17.09,8.69-20.463,8.69c-1.134,0-1.722-0.825-1.858-1.049
		c-0.008-0.021-0.019-0.045-0.027-0.065c-4.01,5.619-1.634,11.09-0.004,15.076c0.374,0.915,6.888,16.824,7.174,17.519l0.012,0.045
		c0,0,1.608-0.986,1.697-3.19c0.1-2.598,2.738-8.493,9.3-8.485c7.081,0.008,12.88-2.778,14.971-10.672
		c0.317-1.189,1.29-4.845,4.263-6.715C256.198,219.556,256.499,219.122,256.287,218.571"/>
	<path fill="#FFE19A" d="M136.599,225.572c1.725-8.207,7.197-7.531,7.531-7.575l0.289-0.784h0.009
		c-0.206-0.144-0.615-0.555-0.527-1.391c0.124-1.106,0.977-1.512,1.697-1.657c4.725-0.941,7.235-2.786,8.778-3.884
		c1.548-1.099,2.642-1.633,4.564-1.633c5.931,0,17.09,8.686,20.463,8.686c1.134,0,1.717-0.825,1.858-1.049
		c0.008-0.021,0.02-0.041,0.028-0.065c4.013,5.613,1.637,11.086,0.004,15.08c-0.374,0.912-6.888,16.821-7.169,17.516l-0.016,0.045
		l-6.634,16.14c-3.029,7.005,0.856,12.079,0.856,12.079c-7.085,0.008-15.036-6.582-25.932-24.388
		C135.863,242.013,135.416,231.194,136.599,225.572"/>
	<path fill="#7D1442" d="M218.412,216.215c1.209,3.386,4.282,3.429,6.16,2.876c1.689-0.5,8.741-2.775,12.442-4.238
		c3.708-1.464,4.676-0.793,6.582,0.059c5.611,2.49,11.686,2.305,11.686,2.305l0.293,0.783c-4.671,1.95-6.067,3.973-8.412,7.781
		c-2.228,3.627-6.664,6.555-11.968,6.555c-4.101,0-5.493-1.713-7.523-1.014c-1.129,0.382-2.305,1.363-2.702,3.711
		c-0.933,5.465,3.093,11.577,0.627,13.813c0,0-6.807-16.61-7.19-17.551C216.774,227.304,214.398,221.831,218.412,216.215"/>
	<path fill="#7D1442" d="M217.081,280.556c-0.878-1.004-2.163-1.644-3.604-1.644c-2.642,0-4.784,2.144-4.784,4.782
		c0,0.675,0.144,1.317,0.394,1.901l-9.237,5.826l-9.257-5.834c0.25-0.579,0.39-1.221,0.39-1.893c0-2.638-2.147-4.782-4.785-4.782
		c-1.435,0-2.722,0.635-3.598,1.636l-4.162-2.63c0,0-5.497-3.591-5.75-6.952c-0.097-1.34,0.812-2.465,2.408-0.234
		c0.667,0.933,1.439,2.103,3.579,2.103c1.476,0,3.896-2.268,8.697-2.268c7.097,0,7.741,3.204,12.461,3.204
		c4.725,0,5.372-3.204,12.469-3.204c4.797,0,7.221,2.268,8.697,2.268c2.14,0,2.912-1.17,3.579-2.103
		c1.596-2.231,2.505-1.106,2.408,0.234c-0.256,3.36-5.749,6.952-5.749,6.952L217.081,280.556z"/>
	<path fill="#7D1442" d="M181.289,216.215c-1.21,3.386-4.283,3.429-6.16,2.876c-1.689-0.5-8.738-2.775-12.442-4.238
		c-3.707-1.464-4.677-0.793-6.582,0.059c-5.609,2.49-11.682,2.305-11.682,2.305L144.126,218c4.673,1.95,6.068,3.973,8.408,7.781
		c2.228,3.627,6.667,6.555,11.971,6.555c4.106,0,5.493-1.713,7.524-1.014c1.13,0.382,2.3,1.363,2.702,3.711
		c0.933,5.465-5.859,16.681-2.947,19.491c0,0,9.128-22.289,9.51-23.23C182.922,227.304,185.298,221.831,181.289,216.215"/>
	<path fill="#FFFFFF" d="M235.734,219.754c0,0.663-0.535,1.201-1.203,1.201c-0.663,0-1.201-0.537-1.201-1.201
		c0-0.663,0.537-1.206,1.201-1.206C235.199,218.548,235.734,219.091,235.734,219.754"/>
	<path fill="#FFFFFF" d="M235.232,228.467c5.416,0,9.856-4.187,10.279-9.494c-0.761-0.248-1.522-0.535-2.278-0.868
		c-1.362-0.607-3.075-0.861-4.692-0.663c0.451,0.684,0.708,1.5,0.708,2.376c0,2.405-1.942,4.354-4.351,4.354
		c-2.323,0-4.213-1.821-4.343-4.112c-1.99,0.775-3.233,1.196-4.998,1.648C227.009,225.648,230.785,228.467,235.232,228.467"/>
	<path fill="#FFFFFF" d="M163.966,219.754c0,0.663,0.535,1.201,1.203,1.201c0.667,0,1.202-0.537,1.202-1.201
		c0-0.663-0.535-1.206-1.202-1.206C164.501,218.548,163.966,219.091,163.966,219.754"/>
	<path fill="#FFFFFF" d="M164.473,228.467c-5.425,0-9.86-4.187-10.278-9.494c0.756-0.248,1.516-0.535,2.268-0.868
		c1.367-0.607,3.08-0.861,4.697-0.663c-0.446,0.684-0.712,1.5-0.712,2.376c0,2.405,1.95,4.351,4.355,4.351
		c2.32,0,4.214-1.818,4.339-4.108c1.998,0.775,3.242,1.196,5.002,1.648C172.696,225.648,168.92,228.467,164.473,228.467"/>
</g>
</svg>
