<?xml version="1.0" encoding="utf-8"?>
<!-- Generator: Adobe Illustrator 19.1.0, SVG Export Plug-In . SVG Version: 6.00 Build 0)  -->
<svg version="1.1" id="Layer_1" xmlns="http://www.w3.org/2000/svg" xmlns:xlink="http://www.w3.org/1999/xlink" x="0px" y="0px"
	 viewBox="0 0 100 100" enable-background="new 0 0 100 100" xml:space="preserve">
<g>
	<g>
		<defs>
			<polyline id="SVGID_1_" points="5.44,1.74 93.031,1.74 93.031,98.895 5.44,98.895 5.44,1.74 			"/>
		</defs>
		<clipPath id="SVGID_2_">
			<use xlink:href="#SVGID_1_"  overflow="visible"/>
		</clipPath>
		<path clip-path="url(#SVGID_2_)" fill="#0D364E" d="M61.017,94.343c0.358,0.363,0.537,0.799,0.537,1.304
			c0,0.518-0.18,0.952-0.537,1.315c-0.359,0.362-0.793,0.541-1.304,0.541s-0.947-0.18-1.305-0.541
			c-0.358-0.364-0.536-0.798-0.536-1.315c0-0.505,0.179-0.941,0.536-1.304c0.364-0.359,0.798-0.543,1.305-0.543
			C60.224,93.801,60.658,93.985,61.017,94.343z M61.23,94.139c-0.418-0.42-0.925-0.624-1.518-0.624c-0.589,0-1.095,0.205-1.51,0.624
			c-0.42,0.42-0.629,0.921-0.629,1.509c0,0.598,0.21,1.105,0.625,1.524c0.413,0.42,0.921,0.63,1.514,0.63
			c0.593,0,1.1-0.211,1.518-0.63c0.42-0.424,0.624-0.931,0.624-1.524C61.855,95.059,61.65,94.553,61.23,94.139z M60.029,95.551
			c-0.087,0.035-0.22,0.051-0.394,0.051h-0.373v-0.849h0.352c0.23,0,0.399,0.026,0.501,0.087c0.102,0.057,0.158,0.174,0.158,0.343
			C60.274,95.361,60.192,95.483,60.029,95.551z M58.848,96.819h0.414v-0.927h0.328c0.219,0,0.373,0.027,0.46,0.078
			c0.149,0.087,0.224,0.266,0.224,0.536v0.19l0.006,0.072c0.005,0.01,0.005,0.02,0.005,0.03c0.005,0.005,0.005,0.015,0.009,0.021
			h0.384l-0.01-0.031c-0.01-0.015-0.021-0.057-0.021-0.118c-0.005-0.066-0.01-0.123-0.01-0.179v-0.169
			c0-0.122-0.04-0.24-0.127-0.368c-0.082-0.123-0.22-0.198-0.405-0.229c0.149-0.021,0.261-0.062,0.344-0.114
			c0.152-0.097,0.229-0.255,0.229-0.465c0-0.298-0.123-0.492-0.369-0.593c-0.132-0.056-0.347-0.087-0.639-0.087h-0.824V96.819z"/>
		<path clip-path="url(#SVGID_2_)" fill="#071C2C" d="M10.464,35.724c-0.282-1.913,0.199-2.844,0.5-4.179
			c0.574-0.956-0.056-2.394,0.794-3.207c0.291-0.088,0.548,0.123,0.659,0.358c0.466,0.89,1.167,1.678,1.489,2.634
			c0.082,0.061,0.236,0.19,0.307,0.026l0.215-0.313c0.619-0.956,0.777-2.363,0.149-3.37c-0.655-3.325,2.429-5.438,2.73-8.497
			c0.134-0.24,0.216-0.594,0.585-0.552c0.966,0.895,0.505,2.358,0.956,3.525c0.087,0.092,0.219,0.071,0.342,0.066
			c0.563-0.455,0.926-1.053,1.151-1.667c-0.598-2.864,1.16-4.941,2.859-6.987c0.175-0.404,0.506-0.747,0.756-1.125l0.917-1.999
			c0.168-0.184,0.42-0.307,0.671-0.21c0.512,0.501,0.352,1.376,0.526,2.061c-0.067,0.588-0.44,1.243-0.051,1.821
			c0.541-0.184,0.848-0.886,1.36-1.146c0.527-0.589,1.228-0.951,1.688-1.535c-0.271-2.936,2.766-4.47,4.751-5.842
			c0.568-0.552,1.412-1.09,1.602-1.872c0.108-0.159,0.321-0.205,0.486-0.133c0.756,0.818-0.041,1.856,0.097,2.834
			c0.015,0.097,0.057,0.209,0.163,0.225c0.721-0.143,1.156-0.916,1.852-1.125c1.351-1.166,2.613-2.522,4.487-2.543
			c0.664-0.307,1.406-0.113,2.025-0.522c0.404-0.194,0.895-0.905,1.314-0.352c-0.01,0.618-0.332,1.12-0.471,1.682
			c-0.383,0.364-0.695,0.752-0.675,1.274c0.414,0.22,0.905-0.006,1.361-0.01c2.49-0.409,4.992-0.082,7.452-0.036
			c0.225-0.102,0.046-0.301-0.015-0.414c-0.481-0.579-1.013-1.187-0.936-1.975c0.17-0.343,0.543-0.47,0.895-0.368
			c1.361,0.516,2.743,1.002,4.133,1.442c1.284,0.394,2.46,1.581,2.936,2.813c0.328,0.43,0.849,0.358,1.304,0.445
			c0.267-0.266-0.045-0.557-0.066-0.829c-0.163-0.649-0.654-1.642,0.078-2.159l0.377,0.021c1.059,1.08,2.222,1.837,3.556,2.184
			c1.428,0.767,2.599,2.04,3.376,3.401c0.399,0.839,0.246,1.933,0.701,2.741c0.859,0.563,1.652,1.33,2.594,1.683l0.071-0.077
			c-0.47-1.023-0.787-2.214-0.649-3.422c0.035-0.159,0.199-0.297,0.327-0.389c0.628,0.056,0.608,0.802,1.135,1.095
			c1.406,1.166,2.864,2.322,4.103,3.718c0.904,1.161,1.365,2.997,0.684,4.405c-0.014,0.71,0.537,1.238,1.002,1.667
			c0.067,0.025,0.102-0.041,0.149-0.082c-0.194-1.325,0.128-2.547,0.553-3.689c0.153-0.189,0.342-0.542,0.628-0.403
			c0.343,0.266,0.303,0.69,0.527,1.002c0.466,1.064,1.33,1.954,1.735,3.043c0.885,1.463,2.05,3.136,1.344,4.987
			c-0.307,0.833-0.736,1.631-0.894,2.527c0.152,0.506,0.321,1.069,0.843,1.335c0.343,0.092,0.726,0.435,1.063,0.154
			c0.256-0.297,0.221-0.69,0.419-1.003c0.334-0.512,0.482-1.13,0.813-1.616c0.072-0.066,0.199-0.035,0.302-0.045
			c0.379-0.01,0.317,1.273,0.558,1.872c1.038,2.327,1.918,5.396,0.921,7.99c-0.21,0.675-0.957,1.1-1.187,1.744l0.537,3.422
			c0.092,0.179,0.22,0.342,0.43,0.363c0.518-0.025,0.747-0.686,1.177-0.91c0.235-0.102,0.45-0.358,0.746-0.215l0.158,0.184
			c-0.102,1.837,0.241,3.566,0.528,5.279c0.086,0.916,0.94,1.479,1.252,2.302c0.681,0.788,0.988,1.79,1.08,2.798
			c-0.118,1.786-0.471,3.53-0.189,5.417c0.286,0.553,0.102,1.197-0.169,1.674c-0.382,0.521-1.405,1.149-2.174,1.589
			c-0.439,0.272-1.294,0.308-1.1,1.06c0.818,0.951,1.463,2.261,1.397,3.85c-0.175,2.025-1.391,4.231-2.435,5.971
			c-0.988,1.447-1.97,3.13-4.348,5.565c-2.031,2.148-4.175,4.23-7.939,7.141c-4.526,3.12-8.552,5.13-13.314,6.628
			c-2.528,0.752-5.187,1.233-7.81,1.786c-0.38,0.271-0.185,0.916-0.102,1.294c0.184,0.513,0.152,1.126,0.393,1.611
			c-0.163,1.187-1.381,1.572-2.082,2.077l-0.705,0.404c0,0-1.233,0.624-1.832,0.583c-0.602-0.04-0.623-0.496-0.623-0.496
			c-0.026-1.033-0.379-1.908-0.405-2.936c-0.071-0.087-0.092-0.189-0.199-0.26c-0.189-0.01-0.275,0.199-0.291,0.352
			c-0.225,0.931-0.343,1.903-0.506,2.854c0,0-0.137,0.435-0.547,0.384c-0.727-0.093-1.039-0.328-1.039-0.328
			c-1.028-0.712-2.148-1.146-3.136-1.975c-0.66-1.075,0.287-2.051,0.083-3.14c-0.584-0.66-1.361-0.47-2.333-0.716
			c-1.698-0.221-2.624-0.476-4.004-0.88c-3.147-0.879-5.714-1.928-8.44-3.263c-3.008-1.626-6-3.319-8.711-5.75
			c-2.502-2.306-5.304-4.772-7.043-7.621c-2.552-3.581-4.926-7.345-4.972-8.931c-0.152-1.748,0.466-2.312,1.366-3.355
			c0.164-0.527-0.466-0.695-0.752-0.921c-1.268-0.675-2.976-1.626-3.212-3.218l-0.108-0.94c0.624-3.249,1.555-6.409,3.693-9.059
			c0.839-1.735-0.102-3.801,0.102-5.678c-0.046-0.481-0.649-1.018-0.123-1.438c0.9-0.199,1.401,0.855,2.015,1.371
			c0.221,0.169,0.287,0.691,0.66,0.507l0.175-0.384c0.163-0.757-0.144-1.682,0.219-2.353c0.184-0.782-0.706-1.084-0.89-1.713
			C10.96,38.231,10.684,37.484,10.464,35.724z"/>
		<path clip-path="url(#SVGID_2_)" fill="#FFFFFF" d="M44.904,3.156c-0.352,0.824-1.913,1.954-2.66,2.056
			c-1.401,0.251-3.33,2.721-3.678,1.908c-0.496-1.381,1.243-1.98,2.02-2.87c0.733-0.649,1.878-0.404,2.732-0.778
			C43.63,3.474,44.751,2.839,44.904,3.156z"/>
		<path clip-path="url(#SVGID_2_)" fill="#FFFFFF" d="M56.801,4.052c0.567,0.281,1.462,0.567,1.831,0.931
			c0.512,0.701,1.294,1.58,1.101,2.552c-0.062,0.041-0.287-0.046-0.384-0.082c-0.062-0.383-0.025-0.993-0.532-1.151
			c-0.553,0.021-1.529-0.895-2.097-1.074c-1.1-0.425-1.868-0.389-2.645-1.412c-0.275-0.133-0.398-0.742-0.398-0.742
			C54.607,3.238,55.846,3.949,56.801,4.052z"/>
		<path clip-path="url(#SVGID_2_)" fill="#FFFFFF" d="M35.093,6.333c-0.338,1.084-1.52,1.682-2.42,2.204
			c-0.532,0.767-1.277,1.53-1.426,2.471c-0.317,0.322-0.518,0.936-0.952,0.982c-0.624-0.906-0.286-2.056,0.163-2.921
			c0.86-0.956,1.928-1.759,3.024-2.337l1.795-1.463C35.569,5.192,35.139,6.174,35.093,6.333z"/>
		<path clip-path="url(#SVGID_2_)" fill="#FFFFFF" d="M64.612,6.512c0.962,0.261,1.75,1.013,2.594,1.617
			c0.721,0.91,1.54,1.162,1.576,3.11c-0.2,0.225-0.896-0.092-1.136-0.123c-0.543-0.624-1.458-0.751-2.056-1.355
			C64.828,9.085,65,8.097,64.161,7.627c-0.741-0.451-2.321-1.545-1.877-2.726C62.811,5.228,63.911,6.241,64.612,6.512z"/>
		<path clip-path="url(#SVGID_2_)" fill="#FFFFFF" d="M42.183,7.745c0.671,0.051,3.028-0.036,3.043,0.445
			c-0.016,0.333-2.507,0.327-2.921,0.409c-0.925,0.118-1.493,0.783-2.516,0.68c-0.562,0-0.813-0.568-0.782-0.88
			c0.009-0.747,0.807-1.09,1.38-1.289C41.077,6.988,41.793,7.719,42.183,7.745z"/>
		<path clip-path="url(#SVGID_2_)" fill="#FFFFFF" d="M57.211,7.34c0.583,0.016,2.199-0.076,2.476,0.527
			c-1.136,1.703-1.909,0.082-4.44,0.312c-0.675,0.092-1.979,0.419-2.056,0.174c0.972-0.894,2.042-0.854,2.721-0.972L57.211,7.34z"/>
		<path clip-path="url(#SVGID_2_)" fill="#FFFFFF" d="M66.101,9.33c0.45,0.363,0.752,0.972,0.665,1.038
			c-0.158,0.409-0.782-0.266-1.176-0.608c-0.706-0.307-1.519-0.634-1.136-0.896C64.729,8.727,65.64,8.855,66.101,9.33z"/>
		<path clip-path="url(#SVGID_2_)" fill="#FFFFFF" d="M37.057,11.602c-0.471,0.547-1.248,0.757-1.893,1.013
			c-1.048,0.368-2.076,0.731-3.155,0.675c-0.278,0.01-0.875-0.43-0.998-0.778c-0.118-0.409,0.358-0.89,0.624-1.125
			c0.225-0.077,0.977-0.067,1.32,0c0.562,0.061,0.961,0.358,1.852,0.312c0.644-0.137,0.844-0.567,1.693-0.44
			C36.744,11.259,37.062,11.289,37.057,11.602z"/>
		<path clip-path="url(#SVGID_2_)" fill="#FFFFFF" d="M25.201,12.24c0.097,0.727-0.373,1.223-0.39,1.909
			c-0.506,1.187-1.677,2.148-1.656,3.54c-0.189,0.475-0.18,1.033-0.364,1.524c-0.357,0.542-0.521,1.217-0.962,1.662
			c-0.516-0.107-0.644-0.649-0.756-1.074c-0.066-1.934,0.756-3.534,1.984-4.987c0.757-0.829,1.444-1.745,1.909-2.717
			C25.088,12.067,25.175,12.128,25.201,12.24z"/>
		<path clip-path="url(#SVGID_2_)" fill="#FFFFFF" d="M65.006,12.333c1.871,0.149,2.803-1.785,3.574-0.445
			c-0.608,2.031-3.524,1.217-4.486,0.941c-0.976-0.072-2.471-0.603-3.396-0.818c0.082-0.368,0.629-0.538,1.018-0.487
			C63.063,11.392,63.788,12.124,65.006,12.333z"/>
		<path clip-path="url(#SVGID_2_)" fill="#FFFFFF" d="M73.711,12.363c0.829,0.767,1.934,1.391,2.533,2.184
			c0.818,1.14,2.081,2.624,1.053,4.086c-0.102,0.078-0.163,0.231-0.296,0.236c-0.175-0.645-1.151-0.808-0.667-1.985
			c-0.618-1.212-2.414-2.552-3.16-3.632c-0.21-0.363-0.665-1.437-0.45-1.852C73.005,11.448,73.477,12.165,73.711,12.363z"/>
		<path clip-path="url(#SVGID_2_)" fill="#FFFFFF" d="M75.037,15.704c0.409,0.286,0.772,1.14,0.424,1.57
			c-0.276,0.057-0.869-0.491-1.278-1.002c-0.364-0.42-2.025-1.621-1.217-1.417C73.266,14.824,74.874,15.551,75.037,15.704z"/>
		<path clip-path="url(#SVGID_2_)" fill="#FFFFFF" d="M27.364,17.939l-0.036,0.153c-1.775,1.105-3.114,3.156-5.207,3.55
			c-0.175-0.363,0.24-0.69,0.337-1.033c0.549-0.854,0.665-0.782,1.212-1.631c0.967,0.154,2.251-1.32,3.233-1.136
			C27.052,17.76,27.251,17.791,27.364,17.939z"/>
		<path clip-path="url(#SVGID_2_)" fill="#FFFFFF" d="M71.87,17.576c1.259,0.567,1.805,1.156,2.906,1.447
			c0.414-0.015,1.32-0.757,2.01,0.01c-0.051,0.276-0.935,0.772-1.529,0.732c-2.086,0.245-3.002-0.62-4.404-1.463
			c-0.818-0.323-2.296-0.747-2.92-1.095c-0.082-0.194,0.931-0.415,1.054-0.445C69.89,16.87,70.934,17.044,71.87,17.576z"/>
		<path clip-path="url(#SVGID_2_)" fill="#FFFFFF" d="M80.48,18.103c1.002,1.345,2.163,3.791,3.048,5.197
			c0.383,1.029,0.091,2.199-0.548,3.12c-0.322,0.031-0.364-0.337-0.548-0.512c-0.062-0.706,0.236-1.105-0.164-1.754
			c-0.382-1.371-2.209-2.164-2.317-3.658C79.948,20.072,79.855,18.143,80.48,18.103z"/>
		<path clip-path="url(#SVGID_2_)" fill="#FFFFFF" d="M17.794,21.243c0.041,1.172-0.106,2.369-0.716,3.351
			c-0.685,1.171,0.271,2.537-0.364,3.724c-0.004,0.322,0.041,0.624,0.149,0.9c-0.537,0.041-0.941-0.353-1.166-0.787
			c-0.404-0.839-0.604-1.862-0.287-2.793c0.26-0.982,0.681-1.913,1.382-2.737C16.96,22.292,17.211,21.566,17.794,21.243z"/>
		<path clip-path="url(#SVGID_2_)" fill="#FFFFFF" d="M38.045,21.479c0.219,1.893-0.835,3.407-2.063,4.804
			c-1.222,1.094-2.833,1.744-4.531,1.371c-0.471-0.072-0.997-0.108-1.198-0.681c-0.045-0.424,0.026-0.935,0.373-1.222
			c0.384-0.251,1.132-0.133,1.412,0.404c0.241,0.364,0.303,0.937,0.835,1.033c1.197,0,0.89-1.35,1.518-1.948
			c0.384-0.466,1.234-0.752,1.735-1.268c0.276-0.435-0.359-1.391-0.676-2.021c-0.009-0.322,0.093-0.609,0.312-0.844
			c0.261-0.313,0.619-0.389,1.002-0.491C37.313,20.615,37.937,20.88,38.045,21.479z"/>
		<path clip-path="url(#SVGID_2_)" fill="#FFFFFF" d="M62.505,20.854c0.69,1.023-0.855,1.837-0.164,2.956
			c0.298,0.573,0.962,0.665,1.438,1.008c0.562,0.956,1.601,1.478,2.66,1.345c0.435-0.005,1.172-0.194,1.376,0.481
			c0.112,0.184,0.25,0.466,0.096,0.68c-0.476,0.594-1.309,0.639-2.02,0.522c-1.888-0.558-3.637-2.256-4.716-3.918
			c-0.553-0.824-0.558-2.138-0.144-3.024C61.23,20.512,62.095,20.527,62.505,20.854z"/>
		<path clip-path="url(#SVGID_2_)" fill="#FFFFFF" d="M82.105,24.721c-1.949-0.363-2.275-0.567-1.585,1.013
			c-0.256-0.072-1.908-1.621-1.519-2.66c0.005-0.189-0.052-0.43,0.174-0.496C79.87,22.123,82.428,24.277,82.105,24.721z"/>
		<path clip-path="url(#SVGID_2_)" fill="#FFFFFF" d="M22.524,24.594c0,0.25-0.413,0.782-0.792,1.013
			c-0.849,1.202-1.586,2.639-2.911,3.468c-0.383,0.082-0.752,0.404-1.167,0.194c0.272-0.987,0.532-2.404,1.765-2.598
			c0.374-0.767,1.371-0.614,1.688-1.499C21.501,24.809,22.352,24.533,22.524,24.594z"/>
		<path clip-path="url(#SVGID_2_)" fill="#FFFFFF" d="M77.742,23.878c1.125,0.716,2.169,2.588,3.837,2.266
			c0.394,0.251,0.373,0.951,0.363,1.463c-0.046,0.548-1.555-0.113-2.072-0.245c-1.575-0.721-3.13-2.578-3.938-4.062
			c0.056-0.301,0.624,0.082,0.848,0.118C77.098,23.571,77.374,23.842,77.742,23.878z"/>
		<path clip-path="url(#SVGID_2_)" fill="#FFFFFF" d="M86.729,29.771c0.961,2.102,1.596,5.023,0.517,7.243
			c-0.21,0.235-0.44,0.68-0.812,0.522c-0.216-0.409-0.579-0.757-0.462-1.31c0.22-0.149,0.487-0.327,0.584-0.583
			c-0.031-1.489-0.982-2.993-1.325-4.384c0.245-0.849,0.475-1.494,1.259-1.785L86.729,29.771z"/>
		<path clip-path="url(#SVGID_2_)" fill="#FFFFFF" d="M30.715,32.543c0.541,1.146,0.859,2.757,0.439,3.959
			c-0.756,1.57-1.795,3.779-3.795,4.031c-0.645-0.006-1.628,0.158-2.061-0.532c-0.128-0.471,0.112-0.87,0.496-1.08
			c1.171-0.782,1.734,0.568,2.486-0.199c0.665-0.732,0.327-1.847,0.47-2.778c0.144-0.665,1.222-1.064,1.033-1.928
			c-0.133-0.583-1.1-0.834-0.885-1.525C29.39,31.949,30.392,32.026,30.715,32.543z"/>
		<path clip-path="url(#SVGID_2_)" fill="#FFFFFF" d="M69.415,31.244c0.768,0.966-0.91,1.243-0.904,2.302
			c-0.062,1.252,1.4,1.371,1.482,2.409c0.053,0.65-0.106,1.565,0.671,1.867c0.803,0.532,2.24-0.655,2.451,0.747
			c0.066,0.409-0.114,0.854-0.568,1.043c-1.494,0.588-2.624-0.507-3.489-1.243c-1.581-1.259-2.154-3.131-2-5.187
			c0.137-0.772,0.451-1.504,1.105-2.046C68.478,30.824,69.133,30.839,69.415,31.244z"/>
		<path clip-path="url(#SVGID_2_)" fill="#FFFFFF" d="M84.74,32.374c0.102,0.241,1.994,4.087,1.509,4.736
			c-0.189-0.005-1.677-4.076-1.861-3.969c-0.497,0.389,1.37,4.414,0.479,4.619c-0.578-0.22-2.154-4.589-1.146-6.373
			C84.253,31.463,84.397,32.046,84.74,32.374z"/>
		<path clip-path="url(#SVGID_2_)" fill="#FFFFFF" d="M82.592,33.131c0.352,1.412,0.066,3.1,1.478,3.959
			c0.302,0.235,0.818-0.23,0.921,0.271c0.082,0.194,0.052,0.45-0.091,0.608c-1.019,0.129-2.037-0.25-2.614-1.16
			c-0.86-1.295-0.835-2.997-1.33-4.456c0.004-0.358,0.373-0.127,0.527-0.092C81.819,32.466,82.361,32.798,82.592,33.131z"/>
		<path clip-path="url(#SVGID_2_)" fill="#FFFFFF" d="M16.668,42.655c-0.036,1.949-0.106,3.959-0.572,5.775
			c-0.312,0.843-0.348,2.255-1.586,2.286c-0.614,0.052-0.108-0.598-0.333-0.894c-0.21-0.743,0.732-1.152,0.691-1.878
			c0.148-1.181,0.297-2.358,0.445-3.534c0.439-0.603,0.526-1.458,1.146-1.857L16.668,42.655z"/>
		<path clip-path="url(#SVGID_2_)" fill="#FFFFFF" d="M11.18,44.251c0.987,1.468,0.123,3.939,1.632,5.171l0.107,1.228
			c-0.138,0.348-1.268-0.589-1.847-0.87c-0.931-1.115-1.079-2.67-0.941-4.169c0.021-0.767-0.123-2.292,0.102-2.425
			C10.499,43.111,11.026,43.821,11.18,44.251z"/>
		<path clip-path="url(#SVGID_2_)" fill="#FFFFFF" d="M72.735,45.126c2.261,3.243,3.022,7.539,2.261,11.652
			c-0.598,2.726-2.062,4.916-3.647,7.166c-1.628,2.148-3.693,4.17-5.898,5.581c-0.997,0.685-2.006,1.344-3.033,1.958
			c-2.778,1.504-5.683,2.731-8.685,3.744c-0.66,0.338-1.499,0.932-1.643,1.725c0.006,0.369,0.307,0.64,0.599,0.849
			c0.567,0.065,0.787-0.46,1.479-0.665c0.649-0.215,1.667-0.211,2.327,0.229c0.184,0.108,0.245,0.312,0.17,0.486
			c-0.221,0.194-0.804,0.031-1.014-0.056c-1.462-0.246-2.301,0.936-3.038,1.222c-0.368,0.133-0.711,0.03-0.947-0.088
			c-0.368-0.327-0.742-0.655-0.757-1.145c-0.066-0.86,0.129-1.474,0.538-2.133c0.659-1.002,2.061-1.566,2.92-1.848
			c1.703-0.777,3.631-1.57,5.529-2.312c1.974-0.987,3.493-1.948,5.519-3.421c1.278-1.019,2.174-2.056,3.279-3.202
			c1.641-1.76,2.613-3.841,3.432-5.836c0.947-2.337,1.151-5.186,0.787-7.78c-0.188-1.043-0.629-1.97-0.936-2.956
			c-0.189-0.251-0.383-0.394-0.664-0.507c-0.732,0.149-1.694,0.302-2.148-0.03c-0.456-0.266-0.736-0.833-0.813-1.345
			c-0.031-0.706,0.413-1.611,1.1-1.949C70.515,43.944,71.901,44.052,72.735,45.126z"/>
		<path clip-path="url(#SVGID_2_)" fill="#FFFFFF" d="M29.231,47.049c0.338,0.547,0.119,1.252-0.168,1.75
			c-0.215,0.26-0.506,0.501-0.813,0.444c-0.501,0.102-0.885-0.348-1.366-0.066c-0.725,0.629-0.844,1.549-1.207,2.347
			c-0.987,2.865-0.378,6.231,0.619,8.947c0.988,1.846,1.892,3.785,3.473,5.33c1.361,1.76,3.06,2.977,5.064,4.394
			c1.887,1.259,3.657,2.282,5.662,3.11c1.146,0.439,2.481,1.058,3.856,1.519c1.142,0.368,2.144,0.87,2.241,1.821
			c0.082,0.512-0.056,1.191-0.43,1.616c-0.444,0.333-0.747,0.628-1.458,0.471c-0.353-0.083-0.799-0.333-0.696-0.681
			c0.185-0.342,0.702,0.036,0.973-0.266c0.316-0.154,0.512-0.43,0.47-0.905c0.041-0.665-1.018-0.982-1.489-1.207
			c-2.246-1.075-3.979-1.704-6.102-2.513c-2.185-0.767-4.051-1.784-6.055-3.16c-2.359-1.693-4.677-4.338-6.211-6.742
			c-1.012-1.765-1.457-3.054-1.87-4.89l0,0c-0.911-4.072-0.353-7.166,0.675-9.863c0.418-0.935,1.058-1.672,2.01-2.04
			C27.364,46.133,28.596,46.21,29.231,47.049z"/>
		<path clip-path="url(#SVGID_2_)" fill="#FFFFFF" d="M88.971,43.688c-0.246,1.744,1.084,4.317,0.424,6.005
			c-0.26,0.445-0.567,0.937-1.017,1.244c-0.339-0.119-0.298-0.614-0.523-0.891c-0.337-0.716,0.347-1.146,0.353-1.79
			c0.215-1.172,0.015-2.486,0.286-3.642C88.525,44.113,89.047,43.269,88.971,43.688z"/>
		<path clip-path="url(#SVGID_2_)" fill="#FFFFFF" d="M84.351,46.159c0.466,1.232,0.205,2.859,1.566,3.616
			c0.506,0.256,0.527,0.803,0.574,1.305c-0.22,0.205-0.456-0.031-0.686-0.052c-1.182-0.374-1.652-1.616-2.24-2.532
			c-0.347-0.952-0.593-2.097-0.378-3.166c0.139-0.184,0.153-0.45,0.358-0.578C84.253,44.819,84.081,45.688,84.351,46.159z"/>
		<path clip-path="url(#SVGID_2_)" fill="#FFFFFF" d="M20.152,48.629c0.107,0.906,0.199,1.949-0.634,2.482
			c-1.105,0.352-1.985-0.507-2.993-0.159c-0.557,0.947,0.175,2.123-0.118,3.14c-0.684,0.149-1.396-0.127-2.055-0.307
			c-1.596-0.481-3.688-0.587-4.435-2.378c-0.077-0.338-0.225-0.747-0.077-1.095c0.544-0.471,0.953,0.414,1.387,0.67
			c0.875,0.644,1.903,0.834,3.054,0.725c0.548-0.101,0.988-0.44,1.535-0.547c0.563-0.68,0.798-1.473,1.055-2.266
			c0.091-0.543,0.106-1.217,0.741-1.463c0.896-0.174,1.841,0.18,2.419,0.937L20.152,48.629z"/>
		<path clip-path="url(#SVGID_2_)" fill="#FFFFFF" d="M86.872,46.149c0.221,0.092,0.86,2.261,0.855,2.603
			c-0.092,0.077-0.69,0.527-0.895-0.731c-0.03-0.18-0.267-0.583-0.286,0.322c-0.026,1.243-0.824,0.629-0.848,0.245
			c0.363-0.976,0.254-2.455,0.649-2.926C86.648,45.663,86.75,45.939,86.872,46.149z"/>
		<path clip-path="url(#SVGID_2_)" fill="#FFFFFF" d="M82.556,48.947c0.42,1.253,1.33,2.348,2.455,3.208
			c0.122,0.147,0.082,0.382-0.132,0.419c-0.502,0.086-0.967,0.552-1.51,0.24c-0.348-0.619-0.153-1.498-0.562-2.098
			c-0.538-1.269-2.282,0.006-2.809-1.375c-0.22-0.517,0.143-0.998,0.517-1.381c0.338-0.384,0.886-0.389,1.351-0.389
			C81.865,47.571,82.264,48.512,82.556,48.947z"/>
		<path clip-path="url(#SVGID_2_)" fill="#FFFFFF" d="M9.62,52.706c1.566,1.426,3.733,1.422,5.601,2.112
			c2.507,0.307,4.844,1.673,6.415,3.863c0.144,0.26,0.398,0.516,0.255,0.86c-0.047,0.198-0.26,0.341-0.439,0.393
			c-2.067,0.057-3.438-2.869-5.612-1.432c-1.626,0.998-3.176,2.185-4.89,3.013l-0.526,0.014c-1.116-0.526-2.39-0.925-3.178-2.081
			c-0.128-0.159,0.035-0.399,0.215-0.389c0.378,0.004,0.824,0.297,1.054-0.149c-0.158-0.686-1.382-0.9-1.177-1.242
			c0.215-0.287,0.768,0.311,1.217,0.296c0.185,0.041,0.313-0.108,0.374-0.24c-0.118-0.829-1.657-1.079-1.417-1.505
			c0.286-0.419,1.294,0.553,1.815-0.061c-0.229-0.91-1.809-1.094-1.61-1.611c0.224-0.251,1.417,0.767,2.26,0.793
			c0.175,0.005,0.353,0,0.45-0.168l-0.045-0.261c-0.794-0.737-2.067-1.098-2.389-2.225c0.338-0.322,0.302-1.089,0.875-1.013
			L9.62,52.706z"/>
		<path clip-path="url(#SVGID_2_)" fill="#FFFFFF" d="M18.801,53.331c0.036,0.236-0.015,0.434-0.21,0.572
			c-0.383,0.103-0.69-0.077-0.916-0.306c-0.066-0.215,0.061-0.409,0.245-0.461C18.199,52.88,18.622,53.054,18.801,53.331z"/>
		<path clip-path="url(#SVGID_2_)" fill="#FFFFFF" d="M81.901,51.687c0.282,0.477,0.506,1.224,0.163,1.751
			c-0.301,0.255-0.889,0.347-1.298,0.527c-0.507-0.676-1.002-2.589-0.855-3.453c0,0,0.773,0.568,1.626,0.322L81.901,51.687z"/>
		<path clip-path="url(#SVGID_2_)" fill="#FFFFFF" d="M89.394,54.082c0.22,0.4-0.297,0.702-0.378,1.074
			c0.051,0.185,0.194,0.39,0.394,0.44c0.666,0.062,1.628-0.839,1.836-0.481c0.102,0.194-0.42,0.43-0.659,0.589
			c-0.451,0.348-1.418,0.399-1.284,1.181c0.261,0.435,0.691,0.205,1.11,0.302V57.3c-0.246,0.481-1.105,0.855-0.93,1.468
			c0.173,0.295,0.5,0.275,0.762,0.205c0.189-0.077,0.475-0.404,0.562-0.21c0.205,0.276-0.266,0.512-0.465,0.695
			c-0.322,0.267-0.788,0.225-1.12,0.455c-0.598,0.231-1.167,0.742-1.878,0.522c-1.913-0.67-3.432-2.388-5.498-2.644
			c-1.467-0.236-2.599,0.465-3.627,1.3c-0.144,0.01-0.271,0.148-0.414,0.051c-0.297-0.359,0.098-0.742,0.267-1.07
			c0.388-0.659,0.808-1.344,1.571-1.79c0.68-0.317,1.309-0.763,1.939-1.048c2.102-0.948,3.078-0.856,5.19-1.48
			c0.564-0.147,1.116-0.347,1.648-0.583C89.094,53.079,88.628,54.143,89.394,54.082z"/>
		<path clip-path="url(#SVGID_2_)" fill="#FFFFFF" d="M17.799,59.382c0.967,0.465,1.77,1.356,2.818,1.606
			c0.215,0.112,0.2,0.435,0.098,0.599c-0.379,0.761-1.064,1.436-1.628,2.102c-0.394,0.097-0.439-0.353-0.623-0.548
			c-0.502-1.089-1.151-2.098-1.444-3.28C16.873,59.387,17.483,59.202,17.799,59.382z"/>
		<path clip-path="url(#SVGID_2_)" fill="#FFFFFF" d="M16.013,60.287c1.044,2.261,1.96,4.696,3.54,6.808
			c2.128,3.187,4.071,5.217,6.383,7.157c2.277,1.943,3.954,3.181,6.982,4.977c2.297,1.258,5.008,2.178,7.406,2.955
			c3.213,0.952,9.514,1.06,12.548,0.696c3.35-0.451,5.396-0.885,7.524-1.555c1.735-0.629,4.91-2.102,6.936-3.227
			c3.914-2.313,6.866-5.212,10.216-9.166c3.059-3.821,3.243-4.799,4.087-6.451c0.42-1.002,0.732-1.656,1.089-2.434
			c0.164-0.25,0.445-0.338,0.711-0.25c1.167,0.501,2.078,1.013,3.116,1.514c1.453,0.634,3.034,1.984,3.043,3.718
			c0.327,2.486-1.585,4.144-2.471,6.179c-0.189,0.43-0.547,0.804-0.824,1.203c-1.616,2.286-3.355,4.495-5.411,6.541
			c-1.862,1.949-3.658,3.422-5.954,5.013c-5.12,3.223-8.661,5.08-13.059,6.323c-4.409,1.13-8.578,2.01-13.023,2.046
			c-1.36-0.01-2.864-0.047-4.168-0.195c-9.135-1.528-16.378-3.447-25.38-11.713c-3.58-3.386-6.538-7.324-9.602-12.758
			c-0.272-0.89-0.763-1.932-0.368-2.864c0.301-0.982,1.406-2.081,2.449-2.777c1.218-0.869,3.008-1.888,3.863-1.871L16.013,60.287z"
			/>
		<path clip-path="url(#SVGID_2_)" fill="#FFFFFF" d="M81.748,59.382c-0.163,1.038-0.711,1.932-1.11,2.875
			c-0.23,0.209-0.26,0.732-0.695,0.628l-1.576-1.647c-0.041-0.189-0.163-0.429-0.021-0.603c0.757-0.859,1.77-1.161,2.748-1.533
			C81.333,59.132,81.661,59.121,81.748,59.382z"/>
		<path clip-path="url(#SVGID_2_)" fill="#FFFFFF" d="M45.814,93.325c0.327,0.455,0.082,1.058,0.128,1.585
			c-0.113,0.43-0.118,0.971-0.522,1.228c-0.302-0.014-0.603-0.148-0.772-0.424c-0.313-0.804-0.056-1.684,0.255-2.394
			C45.129,93.007,45.569,93.116,45.814,93.325z"/>
		<path clip-path="url(#SVGID_2_)" fill="#FFFFFF" d="M53.533,93.397c0.271,0.644,0.541,1.422,0.302,2.148
			c-0.225,0.246-0.456,0.726-0.849,0.558c-0.42-0.353-0.328-0.941-0.578-1.381c0.066-0.599-0.425-1.29,0.168-1.668
			C52.919,93.105,53.39,92.987,53.533,93.397z"/>
		<path clip-path="url(#SVGID_2_)" fill="#FFFFFF" d="M47.881,93.427c0.44,0.783-0.113,1.633-0.102,2.465
			c-0.205,0.482,0.046,1.151-0.44,1.49c-0.409,0.051-0.634-0.298-0.855-0.574c0.057-1.033,0.348-2.025,0.348-3.039
			c0.184-0.122,0.216-0.378,0.4-0.429C47.451,93.36,47.723,93.238,47.881,93.427z"/>
		<path clip-path="url(#SVGID_2_)" fill="#FFFFFF" d="M51.716,95.468c0.093,0.573,0.522,1.228,0.175,1.77
			c-0.322,0.24-0.629,0.639-1.079,0.491c-0.507-0.358-0.343-1.095-0.512-1.647c0.004-0.825-0.159-1.8,0.021-2.608
			c0.075-0.211,0.389-0.263,0.561-0.133C51.508,93.856,51.471,94.747,51.716,95.468z"/>
		<path clip-path="url(#SVGID_2_)" fill="#FFFFFF" d="M45.947,67.704c0-1.019,0-7.305,0-7.305s1.779,0.848,3.846,1.202
			c0.057,0.01-0.148,5.032-0.148,6.103c0,1.063,2.26,1.289,2.26,2.69c0,1.402-1.155,1.402-2.26,1.402c-1.1,0-2.737,0-3.698,0
			c-0.957,0-2.302,0.03-2.302-1.5C43.645,68.768,45.947,68.717,45.947,67.704z"/>
		<path clip-path="url(#SVGID_2_)" fill="#FFFFFF" d="M46.095,52.809V37.985c0,0,0.634-0.947,3.56-1.161
			c0.041-0.005,0.139,7.709,0.139,8.9c0,1.197,2.261,1.11,2.261-0.097c0-1.591,1.816-1.868,2.204-0.573
			c0.389,1.289,1.919,6.009,2.308,7.299c0.389,1.295-0.957,2.639-1.919,1.295c-0.056-0.082-1.805-2.7-1.83-2.737
			c-0.763-1.013-3.024-1.535-3.024,0.138c0,1.678,0.271,5.028,0.148,4.972C47.088,54.808,46.095,52.809,46.095,52.809z"/>
		<path clip-path="url(#SVGID_2_)" fill="#FFFFFF" d="M44.392,46.594c0.031-0.031,0-3.943,0-4.962c0-1.924-1.044-1.924-2.398,0.071
			c-0.768,1.136-1.642,3.284-1.995,4.568c-0.358,1.289-0.839,1.416-0.839,1.416c-0.189,0.327-0.455,0.466-0.164,0.798
			c0.292,0.327,0.43,0.855,0.783,2.005c0.348,1.145,3.289,9.125,11.432,9.704c4.513,0.321,7.934-2.134,9.131-3.802
			c0.87-1.211-0.272-2.71-1.631-1.637c-1.894,1.5-3.859,2.635-7.705,2.564c-4.066-0.071-7.064-4.777-7.278-6.921
			C43.558,48.691,43.85,47.131,44.392,46.594z"/>
		<path clip-path="url(#SVGID_2_)" fill="#FFFFFF" d="M51.906,37.54c0.886,0.03,2.385,0.368,3.264,0.783
			c0.885,0.42,1.682,0.645,2.19,0.445c0.716-0.287,1.59,0.057,2.02,1.125c0.409,1.013,0.956,2.451,1.479,3.795
			c0.71,1.857-0.369,3.191-1.643,1.36c-1.376-1.985-4.434-4.342-6.568-4.424c-1.852-0.071-1.57-0.644-1.642-1.642
			C50.964,38.415,51.159,37.515,51.906,37.54z"/>
		<path clip-path="url(#SVGID_2_)" fill="#FFFFFF" d="M30.954,46.118c0.404-0.2,1.857-1.714,2.446-3.724
			c0.394-1.33,4.762-10.624,16.245-10.921c5.856-0.153,8.398,1.913,9.161,2.425c0.768,0.517,1.304,0.773,1.999,0.501
			c0.691-0.271,1.837-0.342,2.118,0.798c0.343,1.36,1.529,5.483,1.857,6.711c0.501,1.852-0.711,2.711-1.622,1.269
			c-1.212-1.928-3.544-8.077-12.133-7.78c-8.582,0.301-13.534,6.48-13.488,12.921c0.052,6.435,2.337,8.859,5.549,11.074
			c1.366,0.94,1.326,1.513,1.326,3.069c0,1.427,0.143,2.399-1.591,1.697c-1.734-0.7-4.905-2.439-7.35-5.923
			c-2.45-3.482-2.71-6.704-2.946-7.907c-0.236-1.202-0.747-2.24-1.407-2.726C30.454,47.115,30.545,46.317,30.954,46.118z"/>
		<path clip-path="url(#SVGID_2_)" fill="#FFFFFF" d="M50.862,63.673c0-1.146,0.159-1.657,1.044-1.657
			c5.668,0.015,8.88-2.266,11.019-6.195c0.895-1.631,2.798-0.562,2.358,0.716c-1.642,4.783-7.56,8.629-11.489,8.849
			C51.221,65.53,50.862,65.458,50.862,63.673z"/>
		<path clip-path="url(#SVGID_2_)" fill="#FFFFFF" d="M45.947,30.701c2.133-0.429,3.698-0.282,3.698-0.429
			c0-0.624,1.335-0.624,2.26-0.624c4.067,0,5.597,0.839,7.095,2.337c1.075,1.074,2.752,0.732,1.928-0.71
			c-0.93-1.626-2.041-3.566-2.644-4.89c-0.597-1.32-2.132-1.31-2.639-0.681c-0.286,0.358-0.536,0.722-1.641,0.712
			c-2.099-0.031-8.441-0.057-9.592-0.031c-2.246,0.051-2.184,2.108-0.543,2.46c0.547,0.122,2,0.803,2,0.803
			S45.876,30.716,45.947,30.701z"/>
		<path clip-path="url(#SVGID_2_)" fill="#071C2C" d="M13.497,66.307l1.478-1.662c0.17-0.185,0.313-0.303,0.195-0.497l-0.476-0.793
			c-0.061-0.102-0.143-0.225-0.312-0.128c-0.123,0.077-0.097,0.17-0.082,0.26c0.021,0.124-0.021,0.205-0.097,0.271
			c-0.031,0.041-0.076,0.068-0.096,0.079l-2.436,1.467c-0.066,0.03-0.133,0.061-0.184,0.076c-0.107,0.025-0.163-0.026-0.236-0.071
			c-0.077-0.047-0.132-0.057-0.23,0c-0.168,0.102-0.045,0.276,0.01,0.369l0.215,0.358c0.052,0.092,0.148,0.281,0.322,0.178
			c0.097-0.056,0.112-0.112,0.107-0.198c-0.01-0.087-0.025-0.159,0.046-0.241c0.041-0.04,0.097-0.087,0.154-0.127l2.158-1.295
			l-1.662,1.97c-0.153,0.194-0.139,0.255-0.031,0.435c0.123,0.205,0.241,0.158,0.501,0.101l2.436-0.566l-2.205,1.324
			c-0.107,0.067-0.214,0.149-0.322,0.098l-0.056-0.031c-0.076-0.027-0.133-0.052-0.224,0c-0.134,0.082-0.102,0.215-0.053,0.306
			l0.466,0.768c0.052,0.092,0.154,0.179,0.291,0.097c0.093-0.056,0.093-0.117,0.102-0.195l0.005-0.06
			c0-0.124,0.128-0.18,0.236-0.241l2.45-1.479c0.132-0.077,0.214-0.113,0.322-0.031c0.077,0.062,0.153,0.123,0.281,0.048
			c0.118-0.072,0.149-0.17,0.102-0.246l-0.456-0.757c-0.112-0.184-0.174-0.163-0.425-0.108L13.497,66.307z"/>
		<path clip-path="url(#SVGID_2_)" fill="#071C2C" d="M15.891,69.437l0.42,0.584c0.189,0.26,0,0.347,0.092,0.479
			c0.113,0.154,0.373-0.065,0.501-0.157c0.123-0.088,0.333-0.242,0.234-0.374c-0.097-0.133-0.241,0.041-0.439-0.229l-0.42-0.583
			l0.89-0.645c0.062-0.048,0.144-0.048,0.215-0.01c0.082,0.045,0.21,0.209,0.265,0.291c0.087,0.112,0.201,0.291,0.242,0.409
			c0.045,0.132,0.029,0.235-0.021,0.383c-0.041,0.106-0.077,0.199-0.017,0.281c0.072,0.102,0.195,0.071,0.307-0.01
			c0.102-0.071,0.369-0.29,0.409-0.394c0.031-0.097-0.051-0.194-0.097-0.255l-1.298-1.791c-0.062-0.082-0.17-0.163-0.303-0.071
			c-0.087,0.066-0.082,0.127-0.087,0.205l0.005,0.066c0.004,0.123-0.113,0.184-0.215,0.261l-2.292,1.662
			c-0.102,0.072-0.198,0.17-0.312,0.123l-0.061-0.021c-0.076-0.025-0.132-0.045-0.22,0.016c-0.128,0.097-0.087,0.225-0.026,0.308
			l1.362,1.877c0.127,0.174,0.167,0.189,0.403,0.091c0.149-0.051,0.369-0.136,0.497-0.229c0.091-0.066,0.112-0.184,0.061-0.255
			c-0.072-0.098-0.282-0.082-0.414-0.082c-0.342,0-0.465-0.139-0.634-0.368c-0.374-0.528-0.374-0.599,0.123-0.958L15.891,69.437z"/>
		<path clip-path="url(#SVGID_2_)" fill="#071C2C" d="M18.792,74.01l0.465-1.197c0.184-0.465,0.45-1.12,0.562-1.58
			c0.052-0.189,0.026-0.21-0.082-0.348l-0.409-0.5c-0.078-0.098-0.174-0.205-0.328-0.083c-0.113,0.087-0.077,0.174-0.051,0.267
			c0.076,0.235-0.113,0.347-0.307,0.51l-2.041,1.652c-0.061,0.04-0.123,0.078-0.169,0.102c-0.108,0.041-0.168,0-0.245-0.035
			c-0.082-0.041-0.137-0.041-0.225,0.031c-0.158,0.122-0.01,0.28,0.061,0.362l0.256,0.322c0.071,0.083,0.189,0.26,0.347,0.134
			c0.087-0.072,0.098-0.124,0.078-0.215c-0.021-0.083-0.047-0.149,0.015-0.246c0.03-0.041,0.082-0.092,0.132-0.143l1.933-1.561
			l-1.053,2.758c-0.062,0.147-0.23,0.521-0.261,0.654c-0.03,0.117,0.015,0.168,0.077,0.251c0.185,0.224,0.267,0.174,0.522-0.031
			l2.497-2.025c0.061-0.041,0.123-0.076,0.174-0.097c0.102-0.041,0.164,0,0.241,0.035c0.083,0.036,0.139,0.036,0.225-0.031
			c0.158-0.127,0.009-0.281-0.061-0.368l-0.257-0.322c-0.07-0.081-0.188-0.26-0.347-0.132c-0.087,0.071-0.097,0.127-0.077,0.215
			c0.021,0.082,0.047,0.153-0.014,0.246c-0.032,0.045-0.083,0.096-0.134,0.143L18.792,74.01z"/>
		<path clip-path="url(#SVGID_2_)" fill="#071C2C" d="M21.691,75.402c-0.123-0.251-0.266-0.567,0.041-0.865
			c0.276-0.265,0.634-0.168,0.824,0.026c0.541,0.563-0.093,1.121,0.087,1.305c0.082,0.082,0.194,0.056,0.297-0.048
			c0.107-0.101,0.281-0.27,0.358-0.393c0.045-0.072,0.045-0.143,0.036-0.211c-0.072-0.368-0.261-0.715-0.506-0.965
			c-0.229-0.242-0.532-0.436-0.9-0.457c-0.369-0.021-0.782,0.124-1.085,0.415c-0.281,0.271-0.413,0.624-0.393,0.961
			c0.014,0.267,0.163,0.574,0.295,0.783c0.087,0.149,0.23,0.409,0.266,0.583c0.041,0.17-0.021,0.347-0.168,0.491
			c-0.343,0.333-0.773,0.189-1.002-0.046c-0.144-0.154-0.246-0.358-0.266-0.584c-0.017-0.205,0.045-0.358,0.113-0.558
			c0.04-0.136,0.061-0.25-0.027-0.341c-0.096-0.103-0.275-0.058-0.398,0.056c-0.256,0.245-0.256,0.705-0.195,0.976
			c0.082,0.311,0.251,0.584,0.466,0.803c0.266,0.276,0.604,0.461,1.023,0.481c0.394,0.026,0.814-0.137,1.141-0.45
			c0.246-0.24,0.389-0.553,0.394-0.86c0.005-0.26-0.113-0.541-0.22-0.751L21.691,75.402z"/>
		<path clip-path="url(#SVGID_2_)" fill="#071C2C" d="M26.085,79.357c-0.158-0.232-0.343-0.527-0.083-0.86
			c0.237-0.307,0.61-0.256,0.818-0.092c0.614,0.481,0.067,1.119,0.267,1.278c0.097,0.072,0.199,0.025,0.291-0.087
			c0.088-0.113,0.241-0.307,0.302-0.44c0.036-0.076,0.021-0.143,0.005-0.215c-0.122-0.347-0.363-0.67-0.64-0.885
			c-0.26-0.205-0.588-0.353-0.951-0.327c-0.368,0.03-0.763,0.235-1.018,0.566c-0.246,0.308-0.322,0.672-0.256,1.002
			c0.052,0.262,0.241,0.544,0.399,0.733c0.108,0.137,0.287,0.379,0.348,0.543c0.061,0.163,0.031,0.347-0.097,0.51
			c-0.291,0.374-0.742,0.291-0.997,0.093c-0.17-0.128-0.297-0.322-0.348-0.543c-0.047-0.199-0.005-0.353,0.031-0.568
			c0.025-0.137,0.031-0.255-0.071-0.332c-0.109-0.087-0.281-0.021-0.383,0.113c-0.221,0.28-0.159,0.731-0.062,0.992
			c0.123,0.296,0.333,0.542,0.578,0.731c0.303,0.242,0.659,0.374,1.08,0.333c0.394-0.03,0.787-0.25,1.064-0.603
			c0.209-0.271,0.307-0.603,0.271-0.905c-0.031-0.26-0.185-0.522-0.323-0.716L26.085,79.357z"/>
		<path clip-path="url(#SVGID_2_)" fill="#071C2C" d="M26.637,83.248c0.098,0.062,0.292,0.221,0.409,0.036
			c0.118-0.184-0.123-0.266,0.021-0.487c0.102-0.157,0.43-0.419,0.584-0.566l1.114,0.72l-0.029,0.092
			c-0.046,0.128-0.237,0.706-0.287,0.794c-0.076,0.112-0.236-0.021-0.338,0.143c-0.102,0.159,0.046,0.256,0.138,0.312l0.675,0.44
			c0.092,0.061,0.215,0.107,0.312-0.041c0.046-0.072,0.04-0.128,0.015-0.188c-0.036-0.098-0.045-0.124-0.015-0.242l0.199-0.603
			l0.733-2.916c0.075-0.296,0.065-0.389-0.159-0.531c-0.144-0.097-0.225-0.133-0.399-0.014c-0.277,0.178-0.538,0.368-0.783,0.556
			c-0.578,0.446-1.141,0.866-1.678,1.356l-0.505,0.465c-0.083,0.072-0.123,0.072-0.22,0.083c-0.072,0.01-0.139,0.026-0.18,0.092
			c-0.127,0.194,0.066,0.286,0.175,0.359L26.637,83.248z"/>
		<polygon clip-path="url(#SVGID_2_)" fill="#FFFFFF" points="28.105,81.944 29.411,80.911 29.026,82.43 28.996,82.522 		"/>
		<path clip-path="url(#SVGID_2_)" fill="#071C2C" d="M34.146,87.336c0.114,0.04,0.333,0.153,0.409-0.052
			c0.072-0.211-0.179-0.236-0.091-0.481c0.065-0.18,0.327-0.507,0.444-0.685l1.242,0.455l-0.009,0.097
			c-0.011,0.133-0.067,0.737-0.097,0.833c-0.052,0.128-0.23,0.037-0.296,0.215c-0.067,0.174,0.102,0.236,0.205,0.277l0.756,0.271
			c0.102,0.041,0.236,0.056,0.292-0.108c0.03-0.082-0.098-0.296-0.093-0.419l-0.107-1.207l0.221-2.429
			c0.004-0.307-0.021-0.394-0.272-0.487c-0.164-0.056-0.251-0.076-0.399,0.077c-0.225,0.241-0.435,0.481-0.634,0.72
			c-0.461,0.563-0.917,1.102-1.33,1.699l-0.384,0.562c-0.066,0.093-0.106,0.103-0.198,0.134c-0.067,0.025-0.129,0.056-0.154,0.132
			c-0.082,0.215,0.133,0.261,0.25,0.307L34.146,87.336z"/>
		<path clip-path="url(#SVGID_2_)" fill="#071C2C" d="M33.012,85.023l-0.088-1.289c-0.031-0.497-0.067-1.203-0.153-1.663
			c-0.041-0.199-0.066-0.205-0.225-0.281l-0.583-0.287c-0.113-0.051-0.246-0.112-0.334,0.066c-0.061,0.128,0.006,0.194,0.073,0.262
			c0.163,0.184,0.04,0.362-0.067,0.593l-1.151,2.362c-0.036,0.062-0.076,0.118-0.112,0.159c-0.078,0.081-0.149,0.071-0.237,0.071
			c-0.087,0.005-0.144,0.026-0.189,0.123c-0.092,0.184,0.108,0.26,0.21,0.306l0.368,0.185c0.098,0.047,0.282,0.154,0.374-0.026
			c0.046-0.101,0.031-0.153-0.026-0.229c-0.051-0.062-0.102-0.118-0.087-0.225c0.01-0.056,0.031-0.124,0.061-0.189l1.085-2.231
			l0.215,2.947c0.005,0.158,0.01,0.572,0.04,0.706c0.027,0.113,0.083,0.144,0.179,0.189c0.257,0.128,0.313,0.046,0.456-0.246
			l1.412-2.889c0.036-0.062,0.072-0.123,0.109-0.163c0.076-0.083,0.152-0.072,0.234-0.072c0.093,0,0.143-0.021,0.195-0.123
			c0.086-0.179-0.114-0.261-0.211-0.307l-0.368-0.18c-0.102-0.051-0.286-0.157-0.374,0.021c-0.046,0.103-0.03,0.159,0.021,0.232
			c0.052,0.066,0.108,0.117,0.093,0.229c-0.011,0.052-0.036,0.118-0.062,0.184L33.012,85.023z"/>
		<polygon clip-path="url(#SVGID_2_)" fill="#FFFFFF" points="35.318,85.606 36.356,84.307 36.326,85.873 36.315,85.97 		"/>
		<path clip-path="url(#SVGID_2_)" fill="#071C2C" d="M40.387,88.481c-0.026,0.123-0.03,0.26-0.148,0.308l-0.057,0.025
			c-0.066,0.031-0.128,0.056-0.148,0.163c-0.031,0.153,0.086,0.221,0.188,0.241l0.886,0.175c0.102,0.014,0.236,0,0.267-0.154
			c0.02-0.109-0.021-0.154-0.076-0.21l-0.041-0.046c-0.093-0.083-0.046-0.215-0.021-0.338l0.537-2.779
			c0.025-0.122,0.03-0.26,0.148-0.301l0.057-0.026c0.071-0.035,0.127-0.062,0.148-0.163c0.031-0.159-0.087-0.225-0.189-0.246
			l-0.884-0.168c-0.102-0.021-0.236-0.005-0.266,0.154c-0.021,0.101,0.025,0.147,0.076,0.205l0.04,0.046
			c0.092,0.087,0.047,0.215,0.026,0.337L40.387,88.481z"/>
		<path clip-path="url(#SVGID_2_)" fill="#071C2C" d="M55.042,89.607c1.018-0.164,1.739-1.228,1.529-2.543
			c-0.21-1.325-1.191-2.082-2.225-1.918c-1.018,0.158-1.699,1.207-1.494,2.506c0.102,0.624,0.363,1.156,0.788,1.529
			C54.045,89.529,54.572,89.678,55.042,89.607z"/>
		<path clip-path="url(#SVGID_2_)" fill="#071C2C" d="M58.28,87.064l0.434-0.205c0.241,0.205,0.824,0.906,0.9,1.197
			c0.041,0.159-0.163,0.194-0.123,0.364c0.052,0.194,0.215,0.148,0.328,0.123l0.9-0.225c0.087-0.021,0.236-0.072,0.195-0.225
			c-0.027-0.102-0.083-0.112-0.149-0.149c-0.158-0.056-0.21-0.137-0.312-0.291c-0.282-0.47-0.589-0.916-0.987-1.243
			c0.312-0.307,0.557-0.751,0.418-1.289c-0.087-0.363-0.337-0.645-0.639-0.742c-0.261-0.087-0.553-0.025-0.798,0.035l-1.637,0.415
			c-0.102,0.025-0.215,0.097-0.18,0.25c0.026,0.102,0.088,0.128,0.159,0.159l0.057,0.021c0.117,0.035,0.132,0.174,0.163,0.297
			l0.685,2.741c0.031,0.118,0.082,0.246-0.005,0.338L57.65,88.68c-0.051,0.061-0.092,0.108-0.065,0.21
			c0.04,0.159,0.173,0.164,0.275,0.139l0.875-0.215c0.102-0.025,0.22-0.097,0.18-0.256c-0.027-0.102-0.088-0.122-0.159-0.153
			l-0.057-0.021c-0.118-0.041-0.132-0.179-0.164-0.296L58.28,87.064z"/>
		<path clip-path="url(#SVGID_2_)" fill="#071C2C" d="M62.279,86.123c0.4-0.163,0.818-0.368,1.105-0.721
			c0.282-0.337,0.456-0.829,0.272-1.366c-0.144-0.413-0.435-0.67-0.783-0.756c-0.321-0.076-0.634,0-0.921,0.097l-1.381,0.475
			c-0.102,0.037-0.21,0.118-0.159,0.267c0.037,0.101,0.098,0.118,0.175,0.143l0.056,0.021c0.123,0.026,0.149,0.159,0.189,0.277
			l0.921,2.679c0.041,0.119,0.102,0.241,0.027,0.334l-0.037,0.051c-0.046,0.065-0.082,0.117-0.046,0.219
			c0.051,0.149,0.185,0.149,0.287,0.113l0.833-0.286c0.102-0.036,0.312-0.092,0.246-0.281c-0.036-0.109-0.088-0.133-0.175-0.144
			c-0.082-0.01-0.159-0.01-0.225-0.101c-0.03-0.048-0.061-0.108-0.092-0.175L62.279,86.123z"/>
		<path clip-path="url(#SVGID_2_)" fill="#071C2C" d="M67.195,85.908c0.931-0.451,1.304-1.682,0.722-2.875
			c-0.589-1.207-1.751-1.641-2.687-1.186c-0.931,0.456-1.274,1.652-0.696,2.84c0.276,0.562,0.681,0.996,1.197,1.228
			C66.224,86.129,66.771,86.119,67.195,85.908z"/>
		<path clip-path="url(#SVGID_2_)" fill="#071C2C" d="M69.829,82.333l0.348-0.327c0.298,0.122,1.069,0.603,1.228,0.86
			c0.087,0.143-0.092,0.235,0,0.382c0.108,0.174,0.251,0.078,0.343,0.017l0.787-0.492c0.076-0.046,0.205-0.139,0.123-0.276
			c-0.062-0.092-0.118-0.082-0.194-0.092c-0.164-0.006-0.236-0.067-0.384-0.184c-0.414-0.359-0.843-0.691-1.325-0.876
			c0.205-0.389,0.296-0.884,0-1.36c-0.194-0.312-0.522-0.501-0.833-0.501c-0.277-0.005-0.532,0.144-0.752,0.282l-1.428,0.895
			c-0.086,0.056-0.173,0.159-0.091,0.296c0.056,0.093,0.123,0.093,0.199,0.098l0.061,0.005c0.123,0,0.179,0.128,0.246,0.229
			l1.499,2.399c0.065,0.102,0.152,0.21,0.096,0.322l-0.021,0.056c-0.03,0.072-0.056,0.128,0,0.221
			c0.088,0.136,0.215,0.101,0.307,0.046l0.768-0.475c0.087-0.058,0.174-0.159,0.087-0.298c-0.056-0.087-0.118-0.091-0.194-0.097
			l-0.061-0.004c-0.123,0-0.18-0.124-0.246-0.231L69.829,82.333z"/>
		<path clip-path="url(#SVGID_2_)" fill="#071C2C" d="M45.252,88.38l-0.475-1.198c-0.184-0.466-0.435-1.131-0.667-1.541
			c-0.096-0.174-0.127-0.167-0.296-0.194l-0.645-0.091c-0.123-0.015-0.271-0.031-0.296,0.163c-0.02,0.139,0.066,0.184,0.148,0.23
			c0.215,0.117,0.154,0.332,0.123,0.584l-0.368,2.598c-0.016,0.072-0.031,0.143-0.057,0.188c-0.045,0.103-0.117,0.119-0.199,0.145
			c-0.087,0.025-0.128,0.066-0.143,0.174c-0.031,0.199,0.184,0.215,0.291,0.23l0.409,0.056c0.107,0.016,0.316,0.061,0.343-0.137
			c0.014-0.114-0.015-0.159-0.088-0.211c-0.07-0.045-0.137-0.076-0.158-0.188c-0.005-0.058-0.005-0.128,0-0.201l0.348-2.455
			l1.11,2.732c0.056,0.153,0.189,0.541,0.26,0.659c0.056,0.103,0.123,0.113,0.225,0.128c0.286,0.04,0.312-0.052,0.358-0.374
			l0.446-3.187c0.014-0.066,0.035-0.137,0.056-0.188c0.051-0.103,0.122-0.113,0.205-0.138c0.082-0.031,0.128-0.066,0.143-0.179
			c0.026-0.199-0.184-0.21-0.291-0.225l-0.409-0.057c-0.107-0.014-0.316-0.066-0.348,0.133c-0.014,0.113,0.016,0.158,0.093,0.214
			c0.07,0.041,0.137,0.079,0.153,0.19c0.01,0.052,0.005,0.123,0.005,0.194L45.252,88.38z"/>
		<path clip-path="url(#SVGID_2_)" fill="#071C2C" d="M51.712,86.64c0.051,0.118,0.117,0.298,0.246,0.298
			c0.117-0.006,0.193-0.098,0.188-0.242c-0.004-0.127-0.03-0.536-0.066-0.649c-0.026-0.087-0.093-0.143-0.163-0.19
			c-0.318-0.25-0.742-0.368-1.111-0.351c-1.028,0.035-1.923,1.074-1.877,2.397c0.046,1.315,0.941,2.149,1.944,2.118
			c0.328-0.014,0.67-0.128,0.941-0.343c0.168-0.139,0.475-0.45,0.47-0.736c-0.005-0.113-0.087-0.205-0.175-0.201
			c-0.117,0.006-0.209,0.164-0.281,0.263c-0.21,0.29-0.505,0.474-0.803,0.49c-0.358,0.01-0.69-0.163-0.89-0.548
			c-0.168-0.327-0.271-0.808-0.286-1.19c-0.015-0.436,0.041-0.86,0.229-1.228c0.18-0.359,0.461-0.584,0.799-0.593
			c0.174-0.006,0.368,0.065,0.522,0.209C51.563,86.282,51.624,86.43,51.712,86.64z"/>
		<path clip-path="url(#SVGID_2_)" fill="#071C2C" d="M81.17,74.89c0.075-0.087,0.26-0.256,0.096-0.399
			c-0.168-0.144-0.281,0.082-0.48-0.087c-0.144-0.128-0.353-0.486-0.481-0.66l0.87-0.997l0.087,0.041
			c0.122,0.061,0.664,0.326,0.741,0.393c0.102,0.093-0.045,0.232,0.097,0.353c0.144,0.124,0.261-0.01,0.333-0.091l0.523-0.61
			c0.075-0.083,0.137-0.198,0.009-0.312c-0.066-0.061-0.123-0.061-0.189-0.046c-0.098,0.02-0.127,0.03-0.236-0.015l-0.579-0.282
			l-2.782-1.129c-0.281-0.119-0.373-0.119-0.548,0.082c-0.117,0.132-0.163,0.205-0.071,0.393c0.144,0.303,0.291,0.584,0.445,0.856
			c0.358,0.634,0.695,1.248,1.11,1.846l0.389,0.568c0.057,0.093,0.052,0.133,0.052,0.229c0,0.072,0.005,0.138,0.066,0.19
			c0.174,0.153,0.291-0.026,0.373-0.122L81.17,74.89z"/>
		<path clip-path="url(#SVGID_2_)" fill="#FFFFFF" d="M54.986,89.157c-0.732,0.117-1.105-0.936-1.223-1.664
			c-0.061-0.389-0.077-0.767,0.01-1.135c0.092-0.399,0.302-0.717,0.655-0.773c0.742-0.118,1.115,0.905,1.233,1.647
			C55.784,87.99,55.737,89.039,54.986,89.157z"/>
		<path clip-path="url(#SVGID_2_)" fill="#071C2C" d="M86.908,66.573c0.44-0.935-0.046-2.128-1.247-2.69
			c-1.217-0.568-2.394-0.175-2.834,0.773c-0.439,0.934,0.052,2.081,1.243,2.639c0.568,0.266,1.161,0.347,1.704,0.205
			C86.29,67.356,86.709,67.003,86.908,66.573z"/>
		<path clip-path="url(#SVGID_2_)" fill="#FFFFFF" d="M57.892,85.515c-0.032-0.124-0.073-0.298-0.027-0.399
			c0.047-0.108,0.215-0.175,0.313-0.2c0.363-0.093,0.716,0.041,0.843,0.541c0.163,0.672-0.425,1.044-0.855,1.162L57.892,85.515z"/>
		<path clip-path="url(#SVGID_2_)" fill="#FFFFFF" d="M61.686,84.384c-0.041-0.117-0.092-0.245-0.051-0.352
			c0.041-0.108,0.163-0.163,0.25-0.194c0.373-0.128,0.741,0.056,0.905,0.536c0.23,0.66-0.25,1.094-0.659,1.315L61.686,84.384z"/>
		<path clip-path="url(#SVGID_2_)" fill="#FFFFFF" d="M67.016,85.499c-0.671,0.327-1.335-0.578-1.657-1.238
			c-0.176-0.347-0.303-0.711-0.327-1.084c-0.026-0.409,0.082-0.772,0.403-0.931c0.676-0.328,1.33,0.537,1.664,1.213
			C67.431,84.149,67.696,85.167,67.016,85.499z"/>
		<path clip-path="url(#SVGID_2_)" fill="#FFFFFF" d="M68.981,80.977c-0.067-0.101-0.159-0.255-0.149-0.368
			c0.01-0.118,0.154-0.236,0.236-0.287c0.317-0.198,0.696-0.184,0.971,0.256c0.363,0.589-0.082,1.125-0.456,1.371L68.981,80.977z"/>
		<path clip-path="url(#SVGID_2_)" fill="#071C2C" d="M73.108,79.776l0.574-0.43c0.255-0.194,0.353-0.006,0.481-0.103
			c0.154-0.118-0.071-0.373-0.168-0.5c-0.087-0.118-0.245-0.322-0.379-0.225c-0.127,0.097,0.047,0.24-0.219,0.444l-0.574,0.43
			l-0.664-0.88c-0.046-0.061-0.046-0.143-0.01-0.215c0.04-0.081,0.205-0.215,0.286-0.271c0.113-0.087,0.286-0.205,0.404-0.25
			c0.133-0.045,0.236-0.035,0.383,0.016c0.108,0.04,0.201,0.071,0.282,0.01c0.102-0.071,0.066-0.199-0.015-0.307
			c-0.077-0.097-0.297-0.364-0.405-0.399c-0.091-0.031-0.189,0.051-0.25,0.097l-1.764,1.335c-0.088,0.061-0.164,0.174-0.067,0.302
			c0.067,0.081,0.128,0.081,0.205,0.081l0.061-0.004c0.123-0.01,0.19,0.113,0.267,0.209l1.704,2.261
			c0.075,0.103,0.173,0.2,0.127,0.313l-0.021,0.061c-0.021,0.072-0.041,0.133,0.025,0.219c0.098,0.129,0.225,0.083,0.307,0.021
			l1.853-1.395c0.168-0.128,0.184-0.17,0.082-0.405c-0.052-0.143-0.143-0.368-0.241-0.496c-0.066-0.087-0.184-0.101-0.25-0.051
			c-0.102,0.071-0.082,0.28-0.078,0.414c0.005,0.343-0.132,0.469-0.357,0.639c-0.522,0.384-0.588,0.384-0.956-0.101L73.108,79.776z"
			/>
		<path clip-path="url(#SVGID_2_)" fill="#071C2C" d="M77.411,75.029c-0.251,0.132-0.568,0.281-0.865-0.021
			c-0.277-0.271-0.179-0.634,0.01-0.825c0.548-0.552,1.115,0.072,1.299-0.112c0.082-0.083,0.051-0.194-0.052-0.291
			c-0.102-0.107-0.276-0.276-0.399-0.358c-0.071-0.041-0.143-0.041-0.21-0.031c-0.363,0.082-0.711,0.276-0.962,0.527
			c-0.229,0.229-0.424,0.537-0.434,0.905c-0.016,0.368,0.138,0.782,0.434,1.079c0.278,0.276,0.63,0.405,0.967,0.378
			c0.267-0.025,0.567-0.178,0.778-0.312c0.149-0.091,0.403-0.235,0.579-0.275c0.167-0.048,0.347,0.01,0.495,0.157
			c0.333,0.338,0.2,0.773-0.03,1.002c-0.149,0.149-0.359,0.256-0.584,0.277c-0.199,0.021-0.352-0.035-0.557-0.102
			c-0.133-0.04-0.251-0.056-0.343,0.036c-0.097,0.097-0.051,0.277,0.066,0.393c0.251,0.252,0.711,0.246,0.978,0.18
			c0.311-0.087,0.583-0.266,0.798-0.481c0.271-0.272,0.45-0.609,0.466-1.033c0.014-0.394-0.154-0.808-0.476-1.13
			c-0.24-0.241-0.558-0.379-0.865-0.383c-0.26,0.004-0.541,0.123-0.746,0.24L77.411,75.029z"/>
		<polygon clip-path="url(#SVGID_2_)" fill="#FFFFFF" points="80.024,73.325 79.185,71.893 80.638,72.482 80.719,72.527 		"/>
		<path clip-path="url(#SVGID_2_)" fill="#071C2C" d="M83.783,68.87L82.5,68.794c-0.502-0.026-1.208-0.083-1.673-0.046
			c-0.199,0.014-0.21,0.04-0.307,0.188l-0.353,0.541c-0.066,0.103-0.143,0.232,0.021,0.339c0.123,0.076,0.194,0.014,0.272-0.041
			c0.199-0.139,0.368,0.005,0.582,0.143l2.201,1.428c0.056,0.045,0.112,0.092,0.148,0.132c0.071,0.083,0.051,0.159,0.04,0.241
			c-0.009,0.092,0.005,0.144,0.102,0.205c0.168,0.113,0.267-0.076,0.328-0.168l0.225-0.347c0.061-0.093,0.189-0.263,0.021-0.369
			c-0.092-0.061-0.148-0.051-0.225-0.01c-0.071,0.045-0.133,0.092-0.241,0.061c-0.051-0.016-0.117-0.046-0.179-0.082l-2.081-1.351
			l2.951,0.149c0.159,0.01,0.568,0.056,0.706,0.04c0.117-0.005,0.153-0.061,0.21-0.148c0.158-0.246,0.087-0.307-0.189-0.486
			l-2.696-1.75c-0.057-0.045-0.113-0.091-0.149-0.132c-0.071-0.083-0.056-0.159-0.04-0.24c0.005-0.088-0.006-0.144-0.102-0.205
			c-0.169-0.114-0.272,0.077-0.327,0.167l-0.225,0.348c-0.061,0.092-0.189,0.261-0.021,0.369c0.092,0.061,0.149,0.051,0.225,0.01
			c0.071-0.046,0.133-0.093,0.24-0.062c0.053,0.016,0.119,0.047,0.18,0.082L83.783,68.87z"/>
		<path clip-path="url(#SVGID_2_)" fill="#FFFFFF" d="M86.509,66.368c-0.312,0.671-1.396,0.39-2.066,0.082
			c-0.353-0.167-0.681-0.362-0.936-0.645c-0.277-0.301-0.421-0.649-0.272-0.971c0.317-0.68,1.376-0.42,2.056-0.102
			C85.983,65.055,86.832,65.679,86.509,66.368z"/>
		<path clip-path="url(#SVGID_2_)" fill="#FFFFFF" d="M12.944,48.686c-0.036-0.287-0.025-3.29-0.061-3.417
			c-0.036-0.133-0.184-0.502-0.373-0.251c-0.195,0.245-0.261,2.532-0.163,2.941C12.449,48.384,12.985,48.972,12.944,48.686z"/>
		<path clip-path="url(#SVGID_2_)" fill="#FFFFFF" d="M13.763,48.563c0.026-0.445-0.153-3.289-0.061-3.484
			c0.087-0.194,0.225-0.214,0.44,0.031c0.21,0.245,0.537,2.86,0.312,3.233C14.229,48.711,13.738,49.003,13.763,48.563z"/>
		<path clip-path="url(#SVGID_2_)" fill="#FFFFFF" d="M11.031,35.627c0.092,0.348,0.317,1.637,0.486,1.954
			c0.318,0.951,1.177,2.056,2.266,2.154c0.435-0.102,1.054,0.01,1.428-0.317c1.539-1.131,1.478-3.079,2.214-4.548
			c0.016-0.537,1.739-2.398,0.777-2.22l-0.869,0.722c-0.732,0.915-1.099,1.989-1.852,2.859c-0.246,0.384-0.875,0.476-0.875,1.013
			c-0.21,0.578,0.241,1.488-0.506,1.759c-0.219-0.02-0.491,0.102-0.645-0.092c-0.425-0.455-0.071-1.16-0.102-1.733
			c-1.141-1.591,0.195-3.351-0.22-5.217c-0.152-0.63-0.179-1.346-0.812-1.714c-0.338,0.092-0.334,0.507-0.465,0.778
			C11.231,32.425,10.908,33.985,11.031,35.627C11.021,35.647,11.047,35.612,11.031,35.627z"/>
		<path clip-path="url(#SVGID_2_)" fill="#FFFFFF" d="M13.794,36.67c-0.005-0.409-0.026-2.128,0.22-2.537
			c0.245-0.414,0.522-0.757,0.936-1.293c0.282-0.368,0.404-0.532,0.552-0.671c0.344-0.317,0-0.424-0.46-0.24
			c-1.1,0.451-1.493,1.611-1.657,1.985c-0.158,0.368-0.215,1.948-0.061,2.353C13.476,36.666,13.8,37.085,13.794,36.67z"/>
		<path clip-path="url(#SVGID_2_)" fill="#FFFFFF" d="M14.107,36.23c0.025,0.282,0.352,0.446,0.438,0.476
			c0.093,0.025,0.195-0.03,0.409-0.256c0.216-0.221,0.384-0.588,0.38-1.033c-0.006-0.445,0.214-1.443,0.086-1.826
			c-0.132-0.379-0.057-0.465-0.127-0.593c-0.067-0.133-0.088,0.036-0.343,0.282c-0.256,0.245-0.246,1.258-0.378,1.76
			C14.442,35.535,14.08,35.954,14.107,36.23z"/>
		<path clip-path="url(#SVGID_2_)" fill="#FFFFFF" d="M19.283,24.502c-0.036-0.195-1.253,1.283-1.448,1.596
			c-0.194,0.307-0.303,0.793-0.369,0.88c-0.071,0.092-0.215,0.225-0.255-0.153c-0.035-0.384-0.179-1.125,0.096-1.821
			c0.278-0.696,0.507-1.279,0.941-1.504c0.435-0.225,0.871-0.512,1.253-0.629c0.436-0.128,0.722-0.158,0.906-0.164
			c0,0,0.009,0.261,0.004,0.512c-0.004,0.245,0.133,1.131-0.03,1.596c-0.164,0.465-0.768,1.55-1.07,1.663
			c-0.725,0.281-1.028,0.005-1.094-0.03c-0.072-0.037-0.435,0.102,0.03-0.221c0.466-0.317,0.818-0.905,0.941-1.033
			C19.307,25.059,19.318,24.696,19.283,24.502z"/>
		<path clip-path="url(#SVGID_2_)" fill="#FFFFFF" d="M23.64,18.318c0.026-0.287,0.066-1.095,0.343-1.601
			c0.276-0.507,0.444-1.187,1.16-1.381c0.716-0.194,0.886-0.399,0.911-0.313c0.025,0.087,0.193,0.128-0.221,0.44
			c-0.413,0.307-0.997,0.947-1.161,1.412c-0.163,0.466-0.465,1.54-0.628,1.663C23.886,18.655,23.615,18.604,23.64,18.318z"/>
		<path clip-path="url(#SVGID_2_)" fill="#FFFFFF" d="M24.735,17.908c0.281-0.036,0.199-0.021,0.634-0.465
			c0.435-0.446,0.598-1.376,0.69-1.535c0.087-0.164,0.475-0.716,0.532-0.19c0.057,0.527,0.066,1.167-0.092,1.473
			c-0.163,0.307-0.849,0.972-1.263,0.967C24.828,18.154,24.459,17.945,24.735,17.908z"/>
		<path clip-path="url(#SVGID_2_)" fill="#FFFFFF" d="M41.43,6.466c0.056-0.286,0.567-0.405,1.191-0.44
			c0.624-0.036,1.099,0.035,1.192,0.25c0.087,0.215,0.409,0.317-0.159,0.599c-0.568,0.276-1.278,0.348-1.755,0.185
			C41.425,6.901,41.368,6.753,41.43,6.466z"/>
		<path clip-path="url(#SVGID_2_)" fill="#FFFFFF" d="M32.208,10.543c0.088-0.287,0.225-0.905,0.66-1.314
			c0.434-0.415,0.409-0.844,1.222-0.978c0.808-0.127,1.007-0.025,1.125,0.098c0.123,0.117,0.194,0.287-0.374,0.502
			c-0.567,0.214-1.437,0.567-1.662,1.099c-0.225,0.528-0.624,0.88-0.782,0.972C32.234,11.008,32.116,10.829,32.208,10.543z"/>
		<path clip-path="url(#SVGID_2_)" fill="#FFFFFF" d="M33.287,10.614C33.385,10.338,33.164,10.246,33.287,10.614
			c0.118,0.368-0.066,0.409,0.435,0.528c0.497,0.122,0.886,0.358,1.228,0.102c0.338-0.261,0.788-0.686,0.845-0.88
			c0.061-0.194,0.352-0.374,0.505-0.563c0.149-0.194,0.348-0.405,0.031-0.348c-0.322,0.056-1.284,0.133-1.478,0.409
			C34.663,10.139,33.287,10.614,33.287,10.614z"/>
		<path clip-path="url(#SVGID_2_)" fill="#FFFFFF" d="M75.022,18.159c-0.148,0.389-0.905,0.174-1.785-0.491
			c-0.88-0.665-1.423-1.867-1.244-2.287c0.175-0.424,0.593,0.824,1.34,1.34C74.08,17.233,75.169,17.765,75.022,18.159z"/>
		<path clip-path="url(#SVGID_2_)" fill="#FFFFFF" d="M66.51,11.074c0.255,0.594-0.138,0.706-0.814,0.691
			c-0.675-0.016-1.171,0.025-1.785-0.405c-0.69-0.491-1.141-0.977-1.34-1.463c-0.153-0.363-0.096-0.88,0-1.058
			c0.092-0.174,0.445-0.282,0.461-0.051c0.016,0.225,0.025,0.864,0.527,1.136c0.5,0.266,0.86,0.368,1.216,0.444
			C65.548,10.532,66.248,10.481,66.51,11.074z"/>
		<path clip-path="url(#SVGID_2_)" fill="#FFFFFF" d="M54.516,5.648c0.418-0.098,0.874-0.149,1.298,0
			c0.421,0.148,0.794,0.383,0.851,0.486c0.056,0.108,0.106,0.466-0.078,0.368c-0.189-0.097-0.507-0.353-0.773-0.368
			c-0.271-0.015-0.547-0.061-1.14,0C54.08,6.2,54.09,5.744,54.516,5.648z"/>
		<path clip-path="url(#SVGID_2_)" fill="#FFFFFF" d="M55.323,6.502c0.057-0.302,0.476,0.256,0.609,0.163
			c0.138-0.097,0.475-0.025,0.491,0.118c0.017,0.148-0.056,0.383-0.286,0.368C55.911,7.136,55.267,6.798,55.323,6.502z"/>
		<path clip-path="url(#SVGID_2_)" fill="#FFFFFF" d="M49.634,12.216c1.919,0,4.098-0.763,4.91-0.998
			c0.655,0.21,1.468,0.732,1.99,1.203c1.156,0.864,1.995,2.122,1.643,3.652c-0.389,0.788-0.983,1.525-1.69,2.077
			c-1.912,1.412-4.255,1.944-6.015,1.995c-2.286,0.082-3.621-0.051-5.222-0.405c-1.34-0.332-2.665-0.71-3.735-1.764
			c-0.865-0.859-1.467-2.164-1.058-3.294c0.557-1.909,2.599-2.772,4.189-3.515C45.486,11.479,47.793,12.216,49.634,12.216z"/>
		<path clip-path="url(#SVGID_2_)" fill="#0D364E" d="M57.067,14.747c0.109,0.098,0.297,0.082,0.353,0.251
			c0.045,0.266-0.18,0.394-0.364,0.506l-4.763,0.128l-10.766-0.061c-0.163,0-0.455,0-0.43-0.364c0-0.368,0.236-0.368,0.43-0.368
			l12.333,0.056L57.067,14.747z"/>
		<path clip-path="url(#SVGID_2_)" fill="#FFFFFF" d="M49.503,11.739c0,0-0.466,0.057-0.409,0c0.056-0.056,0.122-0.69,0.122-0.69
			l0.287-0.041V11.739z"/>
		<path clip-path="url(#SVGID_2_)" fill="#FFFFFF" d="M48.812,11.008l-0.123,0.69c0,0-0.343-0.061-0.286-0.076
			c0.057-0.016,0.066-0.716,0.082-0.691C48.5,10.957,48.812,11.008,48.812,11.008z"/>
		<polygon clip-path="url(#SVGID_2_)" fill="#FFFFFF" points="47.875,10.89 47.753,11.581 47.43,11.459 47.594,10.767 		"/>
		<path clip-path="url(#SVGID_2_)" fill="#FFFFFF" d="M50.029,11.008v0.69c0,0,0.512,0.016,0.486-0.035
			c-0.026-0.057-0.205-0.691-0.205-0.691L50.029,11.008z"/>
		<path clip-path="url(#SVGID_2_)" fill="#FFFFFF" d="M50.76,10.89c0,0-0.014,0.665,0.041,0.65c0.057-0.016,0.348,0.056,0.322-0.082
			c-0.025-0.139-0.163-0.691-0.163-0.691L50.76,10.89z"/>
		<path clip-path="url(#SVGID_2_)" fill="#FFFFFF" d="M51.409,10.645l0.242,0.732c0,0,0.311-0.026,0.326-0.082
			c0.016-0.057-0.364-0.773-0.364-0.773L51.409,10.645z"/>
		<path clip-path="url(#SVGID_2_)" fill="#FFFFFF" d="M47.062,10.767c0,0-0.133,0.419-0.163,0.364c-0.021-0.057-0.609-0.2-0.609-0.2
			L47.062,10.767z"/>
		<path clip-path="url(#SVGID_2_)" fill="#FFFFFF" d="M52.224,10.522l0.199,0.486c0,0,0.716-0.184,0.649-0.2
			C53.006,10.794,52.224,10.522,52.224,10.522z"/>
	</g>
</g>
</svg>
