<?xml version="1.0" encoding="utf-8"?>
<!-- Generator: Adobe Illustrator 19.1.0, SVG Export Plug-In . SVG Version: 6.00 Build 0)  -->
<svg version="1.1" id="Layer_1" xmlns="http://www.w3.org/2000/svg" xmlns:xlink="http://www.w3.org/1999/xlink" x="0px" y="0px"
	 viewBox="0 0 150 150" enable-background="new 0 0 150 150" xml:space="preserve">
<g>
	<path d="M77.382,141.568c0.521,0.52,0.776,1.141,0.776,1.87c0,0.737-0.255,1.365-0.776,1.886c-0.509,0.52-1.13,0.774-1.868,0.774
		c-0.729,0-1.359-0.254-1.87-0.774c-0.513-0.52-0.762-1.149-0.762-1.886c0-0.729,0.257-1.35,0.77-1.87
		c0.513-0.52,1.141-0.776,1.862-0.776C76.251,140.792,76.872,141.048,77.382,141.568z M77.692,141.274
		c-0.596-0.599-1.326-0.9-2.179-0.9c-0.845,0-1.56,0.301-2.166,0.9c-0.596,0.597-0.89,1.32-0.89,2.165
		c0,0.854,0.295,1.582,0.884,2.18c0.597,0.605,1.328,0.908,2.173,0.908c0.853,0,1.583-0.303,2.179-0.908
		c0.599-0.605,0.901-1.326,0.901-2.18C78.593,142.593,78.291,141.871,77.692,141.274z M75.971,143.299
		c-0.124,0.047-0.31,0.078-0.566,0.078h-0.536v-1.227h0.513c0.325,0,0.566,0.039,0.715,0.124c0.146,0.086,0.224,0.249,0.224,0.497
		C76.321,143.026,76.203,143.205,75.971,143.299z M74.278,145.114h0.591v-1.326h0.473c0.31,0,0.536,0.038,0.66,0.108
		c0.208,0.124,0.318,0.381,0.318,0.776v0.263l0.006,0.11c0.009,0.016,0.009,0.031,0.017,0.038c0,0.016,0,0.023,0.006,0.031h0.552
		l-0.016-0.038c-0.014-0.031-0.023-0.086-0.031-0.179c-0.008-0.086-0.008-0.172-0.008-0.249v-0.249c0-0.169-0.061-0.34-0.187-0.519
		c-0.124-0.179-0.317-0.287-0.582-0.334c0.21-0.031,0.372-0.085,0.489-0.163c0.224-0.139,0.334-0.364,0.334-0.668
		c0-0.419-0.179-0.705-0.527-0.853c-0.194-0.078-0.497-0.116-0.917-0.116h-1.18V145.114"/>
	<path fill="#FFFFFF" d="M30.131,62.657c0,0,2.086-16.581,2.699-17.606c0.613-1.032,3.701-12.531,4.315-13.354
		c0.611-0.823,4.514-8.008,4.514-8.217c0-0.202,4.524-6.363,4.726-6.573c0.201-0.209,5.75-5.749,5.75-5.749l5.748-3.903l4.315-2.467
		l5.137-1.637l5.546-1.032c0,0,7.187,0.209,7.388,0.209c0.21,0,6.579,1.645,6.579,1.847c-0.006,0.201,5.294,2.669,5.294,2.669
		s4.771,3.29,4.974,3.29c0.201-0.008,4.927,4.516,4.927,4.516l4.112,4.515c0,0,3.903,5.548,3.903,5.75
		c-0.006,0.21,3.284,7.395,3.284,7.395l2.668,6.983l2.467,9.862l1.024,9.451l0.412,9.241l-0.412,12.524l-4.253,19.265
		c0,0,3.649,11.415,3.237,11.415c-0.412,0-43.188,10.405-43.778,9.225c-0.597-1.18-20.726-10.118-20.726-10.118L42.273,90.032
		c0,0-2.87,9.606-3.08,9.606c-0.202,0-4.927-4.477-4.927-4.477L30.131,62.657"/>
	<path fill="#86754D" d="M113.3,95.153c0.892-2.328,1.149-4.911,2.764-6.93c0.061-1.862,0.039-3.862,0.395-5.664
		c0.318-1.241,0.296-2.646,0.986-3.739c0.295-0.288,0.527,0.27,0.737,0.387l-0.047-1.033c0.303-2.56,0.527-5.144,1.133-7.58
		c0.271-1.319-0.745-5.68,0.683-8.178c0.116,0.179,0.287,0.396,0.497,0.45c0.279-0.303-0.11-0.567-0.049-0.892
		c-0.224-2.437-0.224-5.005,0-7.387c0.365-0.031,0.715,0.271,1.033,0.496c0-2.165-0.078-4.485,0.444-6.502
		c0.379-0.086,0.379,0.443,0.635,0.644c2.289,2.002,3.685,4.469,3.648,7.48l0.1,0.1c0.542-0.543,0.831-1.21,1.328-1.769
		c0.23-0.062,0.285,0.201,0.342,0.342c0.509,2.786,1.906,5.431,1.086,8.519c0.27-0.016,0.27-0.287,0.487-0.349
		c0.288,0.288,0.332,0.877,0.45,1.335c0.149,2.204,0.218,4.741-0.45,6.79c0.202,0.225,0.542-0.202,0.745,0.147
		c0.116,2.576-0.124,5.238-0.837,7.589c-0.351,1.201-1.064,2.265-1.481,3.445c0.348,0.458,0.177,1.085,0.155,1.674
		c-0.522,3.166-1.043,6.323-3.547,8.668c-1.419,1.365-2.98,2.505-4.384,3.786c1.365-0.381,2.514-1.597,3.742-2.46l3.296-2.901
		c0.263,0.092,0.139,0.487,0.1,0.682c-1.218,3.771-2.18,7.712-5.563,10.491c0.652-0.218,1.373-0.754,1.825-1.428h0.193v0.489
		c-1.102,2.467-2.304,4.897-3.607,7.278C119.709,107.481,115.309,98.001,113.3,95.153"/>
	<g>
		<path fill="none" stroke="#86754D" stroke-width="0.3123" stroke-miterlimit="3.864" d="M113.3,95.153
			c0.892-2.328,1.149-4.911,2.764-6.93c0.061-1.862,0.039-3.862,0.395-5.664c0.318-1.241,0.296-2.646,0.986-3.739
			c0.295-0.288,0.527,0.27,0.737,0.387l-0.047-1.033c0.303-2.56,0.527-5.144,1.133-7.58c0.271-1.319-0.745-5.68,0.683-8.178
			c0.116,0.179,0.287,0.396,0.497,0.45c0.279-0.303-0.11-0.567-0.049-0.892c-0.224-2.437-0.224-5.005,0-7.387
			c0.365-0.031,0.715,0.271,1.033,0.496c0-2.165-0.078-4.485,0.444-6.502c0.379-0.086,0.379,0.443,0.635,0.644
			c2.289,2.002,3.685,4.469,3.648,7.48l0.1,0.1c0.542-0.543,0.831-1.21,1.328-1.769c0.23-0.062,0.285,0.201,0.342,0.342
			c0.509,2.786,1.906,5.431,1.086,8.519c0.27-0.016,0.27-0.287,0.487-0.349c0.288,0.288,0.332,0.877,0.45,1.335
			c0.149,2.204,0.218,4.741-0.45,6.79c0.202,0.225,0.542-0.202,0.745,0.147c0.116,2.576-0.124,5.238-0.837,7.589
			c-0.351,1.201-1.064,2.265-1.481,3.445c0.348,0.458,0.177,1.085,0.155,1.674c-0.522,3.166-1.043,6.323-3.547,8.668
			c-1.419,1.365-2.98,2.505-4.384,3.786c1.365-0.381,2.514-1.597,3.742-2.46l3.296-2.901c0.263,0.092,0.139,0.487,0.1,0.682
			c-1.218,3.771-2.18,7.712-5.563,10.491c0.652-0.218,1.373-0.754,1.825-1.428h0.193v0.489c-1.102,2.467-2.304,4.897-3.607,7.278
			C119.709,107.481,115.309,98.001,113.3,95.153z"/>
	</g>
	<path fill="#FFFFFF" d="M118.158,104.79c-0.224-0.365-0.513-0.876-0.589-1.296c2.894-1.784,5.121-3.833,7.411-6.657
		C124.054,100.236,121.41,103.293,118.158,104.79"/>
	<path fill="#FFFFFF" d="M121.33,104.277c-0.737,0.994-1.489,1.646-2.459,2.398c-0.13,0.14,0,0-0.193-0.389l-0.132-0.387
		C119.578,105.247,120.275,104.892,121.33,104.277"/>
	<path fill="#FFFFFF" d="M120.043,108.499c-0.381-0.589-0.381-0.977-0.713-1.303c0.674-0.784,1.224-0.901,2.049-1.546
		C120.988,106.738,120.727,107.536,120.043,108.499"/>
	<path fill="#FFFFFF" d="M116.559,100.531c2.948-2.608,6.558-3.881,9.258-6.891c-0.124,1.621-1.544,2.815-2.662,4.082
		c-1.825,2.234-4.035,4.112-6.449,5.222h-0.147l-2.864-6.844c0.56-1.738,1.025-3.507,1.879-5.121
		C115.83,94.19,115.116,97.753,116.559,100.531"/>
	<path d="M81.534,109.724c0,0,1.412-0.814,2.414-0.488c1,0.325,3.242,2.148,4.259,3.917c1.017,1.77,2.397,5.152,2.831,7.627
		c0.443,2.467,3.353,11.523,7.148,16.721c3.205,4.4,9.364,9.273,15.192,9.273l16.899-31.984c0,0,0.187-0.575-0.381-0.715
		c-0.558-0.139-7.121-1.404-9.256-4.887c-2.126-3.492-3.049-6.186-3.42-7.209c-0.381-1.017-2.5-7.17-5.72-11.554
		c-2.141-2.909-5.999-5.85-8.628-7.618c-0.218-0.147-0.676-0.11-0.886-0.226c-0.263-0.163-1.527-1.289-1.8-1.397L81.534,109.724"/>
	<g>
		<path fill="none" stroke="#000000" stroke-width="0.3123" stroke-miterlimit="3.864" d="M81.534,109.724
			c0,0,1.412-0.814,2.414-0.488c1,0.325,3.242,2.148,4.259,3.917c1.017,1.77,2.397,5.152,2.831,7.627
			c0.443,2.467,3.353,11.523,7.148,16.721c3.205,4.4,9.364,9.273,15.192,9.273l16.899-31.984c0,0,0.187-0.575-0.381-0.715
			c-0.558-0.139-7.121-1.404-9.256-4.887c-2.126-3.492-3.049-6.186-3.42-7.209c-0.381-1.017-2.5-7.17-5.72-11.554
			c-2.141-2.909-5.999-5.85-8.628-7.618c-0.218-0.147-0.676-0.11-0.886-0.226c-0.263-0.163-1.527-1.289-1.8-1.397L81.534,109.724z"
			/>
	</g>
	<path fill="#FFFFFF" d="M92.466,92.01l-3.391,6.471c0,0,4.75,3.113,6.099,5.596c5.206,7.891,7.007,17.202,12.509,24.967
		c2.553,3.027,5.648,5.339,9.109,6.496c0.396,0.124,0.823,0.169,1.279,0.147c2.328-3.546,4.115-7.488,6.231-11.126
		c0.047-0.381-0.379-0.412-0.589-0.589c-4.32-1.685-8.178-4.223-11.303-8.179c-1.911-2.856-2.594-6.223-3.991-9.303
		c-2.668-5.347-5.29-11.228-10.832-14.866C96.074,90.894,93.707,90.574,92.466,92.01"/>
	<path d="M68.793,107.18h0.194c2.094-2.22,2.732-5.036,4.135-7.535c0.668-1.21,0.776-2.483,0.69-3.988
		c-0.006-1.196,0.878-2.328,0.204-3.5c-1.862-2.568-3.33-5.4-5.573-7.728c-3.391-0.737-6.455-2.351-9.054-4.919
		c-4.3-5.16-6.961-11.049-10.437-16.496l-0.729-1.645L51.25,49.63c1.661-4.182,2.854-8.186,6.464-11.585
		c0.931-1.032,0.89-3.438,2.854-4.477c3.082-1.575,7.325-1.187,10.537-0.202c2.375-0.295,4.765-0.295,7.138,0
		c1.257,0.147,2.452,0.357,3.453,1.086c0.071,0.132,0.234,0.28,0,0.396c-3.096,0.784-5.812,2.445-8.425,4.377l-1.77,2.219
		c-1.886,1.319-2.53,3.453-3.151,5.369c-1.086,3.406,2.017,5.525,4.182,7.682c1.365,0.744,2.615,1.792,3.842,2.855
		c3.591,3.577,6.873,7.659,10.932,10.436c4.989,4.174,7.518,9.884,12.802,13.687l1.041,1.056c1.986,1.674,3.32,3.801,4.786,5.881
		c0.483,0.713,1.235,1.705,1.118,2.521c-0.155,0.381-0.635,0.451-0.876,0.381c-0.69-0.171-0.992-0.544-1.682-0.923
		c-2.384-1.265-4.331-2.32-6.659-3.283c-0.752-0.342-1.715-0.923-2.497-0.923c0.409,0.691,0.975,1.629,1.372,2.336
		c0.505,1.086,1.466,2.452,2.391,2.964c0.503,1.024,1.599,1.615,1.699,2.793c1.404,1.404,2.817,2.762,4.035,4.282l0.884,1.677
		c1.234,0.48,1.886,1.9,2.569,2.862c0.45,0.984,0.961,2.188,1.124,3.345l-2.452-0.56c-3.143-0.342-6.035,0.356-8.954-0.071
		c-0.544-0.085-0.451-1.094-3.461-0.652c-0.884,0.07-1.97-0.069-2.701-0.813c-0.403-1.334-1.256-3.049-1.978-4.275
		c-1.281-1.43-1.955-3.151-3.049-4.61c-0.147,1.039-0.077,2.188-0.45,3.149c-1.426,3.16-3.555,6.03-5.066,9.157l-0.116,0.271
		c0.635,0.071,0.116-0.271,1.583,0.249c1.458,0.519,4.646,2.815,5.701,4.467c1.057,1.654,2.375,4.345,2.817,7.164
		c0.442,2.815,1.699,6.486,1.955,7.587c0.241,1.009,1.467,4.361,1.467,4.361s-5.789,1.157-7.247,1.266
		c-1.459,0.1-4.997,0.332-5.935,0.868c-0.94,0.542-4.129,1.815-5.152,1.66c-1.025-0.155-4.3-1.412-4.891-1.746
		c-0.58-0.334-8.751-0.713-9.861-1.312c-1.108-0.589-3.864-1.674-4.275-1.395l-2.11-1.785l4.762-19.235L68.793,107.18"/>
	<path fill="none" stroke="#000000" stroke-width="0.3123" stroke-miterlimit="3.864" d="M68.793,107.18h0.194
		c2.094-2.22,2.732-5.036,4.135-7.535c0.668-1.21,0.776-2.483,0.69-3.988c-0.006-1.196,0.878-2.328,0.204-3.5
		c-1.862-2.568-3.33-5.4-5.573-7.728c-3.391-0.737-6.455-2.351-9.054-4.919c-4.3-5.16-6.961-11.049-10.437-16.496l-0.729-1.645
		L51.25,49.63c1.661-4.182,2.854-8.186,6.464-11.585c0.931-1.032,0.89-3.438,2.854-4.477c3.082-1.575,7.325-1.187,10.537-0.202
		c2.375-0.295,4.765-0.295,7.138,0c1.257,0.147,2.452,0.357,3.453,1.086c0.071,0.132,0.234,0.28,0,0.396
		c-3.096,0.784-5.812,2.445-8.425,4.377l-1.77,2.219c-1.886,1.319-2.53,3.453-3.151,5.369c-1.086,3.406,2.017,5.525,4.182,7.682
		c1.365,0.744,2.615,1.792,3.842,2.855c3.591,3.577,6.873,7.659,10.932,10.436c4.989,4.174,7.518,9.884,12.802,13.687l1.041,1.056
		c1.986,1.674,3.32,3.801,4.786,5.881c0.483,0.713,1.235,1.705,1.118,2.521c-0.155,0.381-0.635,0.451-0.876,0.381
		c-0.69-0.171-0.992-0.544-1.682-0.923c-2.384-1.265-4.331-2.32-6.659-3.283c-0.752-0.342-1.715-0.923-2.497-0.923
		c0.409,0.691,0.975,1.629,1.372,2.336c0.505,1.086,1.466,2.452,2.391,2.964c0.503,1.024,1.599,1.615,1.699,2.793
		c1.404,1.404,2.817,2.762,4.035,4.282l0.884,1.677c1.234,0.48,1.886,1.9,2.569,2.862c0.45,0.984,0.961,2.188,1.124,3.345
		l-2.452-0.56c-3.143-0.342-6.035,0.356-8.954-0.071c-0.544-0.085-0.451-1.094-3.461-0.652c-0.884,0.07-1.97-0.069-2.701-0.813
		c-0.403-1.334-1.256-3.049-1.978-4.275c-1.281-1.43-1.955-3.151-3.049-4.61c-0.147,1.039-0.077,2.188-0.45,3.149
		c-1.426,3.16-3.555,6.03-5.066,9.157l-0.116,0.271c0.635,0.071,0.116-0.271,1.583,0.249c1.458,0.519,4.646,2.815,5.701,4.467
		c1.057,1.654,2.375,4.345,2.817,7.164c0.442,2.815,1.699,6.486,1.955,7.587c0.241,1.009,1.467,4.361,1.467,4.361
		s-5.789,1.157-7.247,1.266c-1.459,0.1-4.997,0.332-5.935,0.868c-0.94,0.542-4.129,1.815-5.152,1.66
		c-1.025-0.155-4.3-1.412-4.891-1.746c-0.58-0.334-8.751-0.713-9.861-1.312c-1.108-0.589-3.864-1.674-4.275-1.395l-2.11-1.785
		l4.762-19.235L68.793,107.18z"/>
	<path fill="#86754D" d="M37.462,95.037c-2.002,2.141-4.29,12.507-6.417,14.09c-0.201,0.147-0.169,0.124-0.169,0.124
		c-0.528-1.055-1.141-1.807-1.669-2.864c-0.792-1.597-1.552-3.21-2.072-4.919c0.055-0.085,0.165-0.038,0.249-0.053
		c0.442,0.605,1.055,1.232,1.723,1.528c-3.337-3.166-4.866-7.038-5.665-11.228c0.017-0.169,0.248-0.185,0.349-0.092
		c2.08,2.08,4.229,4.011,6.642,5.315c-3.088-2.492-6.781-5.502-7.284-9.505c-0.304-1.428-0.607-2.919-0.691-4.384
		c0.085-0.045,0.187-0.045,0.248-0.147c-1.768-3.298-2.522-7.093-2.359-11.127c0.031-0.194,0.295-0.248,0.443-0.147
		c0.063,0.047,0.107,0.147,0.193,0.147l0.1-0.1c-0.69-2.468-0.798-5.548-0.248-8.124c0.279-0.194,0.483,0.125,0.691,0.248
		c-0.085-1.11-0.31-2.336-0.147-3.546c0.293-1.847,0.962-3.546,1.326-5.362l0.147-0.155c0.527,0.597,0.886,1.343,1.428,1.971
		c0.234-0.528,0.163-1.18,0.248-1.77c0.248-2.553,1.972-4.492,3.887-6.355c0.063-0.093,0.078-0.217,0.202-0.295
		c0.256,0,0.234,0.295,0.342,0.442c0.256,1.847,0.357,4.066,0.1,6.006c0.342,0.334,0.575-0.489,1.033-0.342l0.146,0.194
		c0.179,1.172,0.187,2.467,0.249,3.655c0.071,0.792,0.566,2.84,0.544,3.437c0.045,2.367,0.317,4.703,0.147,7.092
		c-0.56,1.327,0.574,2.204,0.536,3.445c0.248,2.381,0.713,4.756,0.79,7.091l0.395-0.544c0.132-0.154,0.234,0.078,0.342,0.147
		c1.031,2.85,1.257,6.022,1.328,9.258c0.629,0.978,1.039,2.057,1.481,3.104C36.524,92.515,36.835,93.85,37.462,95.037"/>
	<g>
		<path fill="none" stroke="#86754D" stroke-width="0.3123" stroke-miterlimit="3.864" d="M37.462,95.037
			c-2.002,2.141-4.29,12.507-6.417,14.09c-0.201,0.147-0.169,0.124-0.169,0.124c-0.528-1.055-1.141-1.807-1.669-2.864
			c-0.792-1.597-1.552-3.21-2.072-4.919c0.055-0.085,0.165-0.038,0.249-0.053c0.442,0.605,1.055,1.232,1.723,1.528
			c-3.337-3.166-4.866-7.038-5.665-11.228c0.017-0.169,0.248-0.185,0.349-0.092c2.08,2.08,4.229,4.011,6.642,5.315
			c-3.088-2.492-6.781-5.502-7.284-9.505c-0.304-1.428-0.607-2.919-0.691-4.384c0.085-0.045,0.187-0.045,0.248-0.147
			c-1.768-3.298-2.522-7.093-2.359-11.127c0.031-0.194,0.295-0.248,0.443-0.147c0.063,0.047,0.107,0.147,0.193,0.147l0.1-0.1
			c-0.69-2.468-0.798-5.548-0.248-8.124c0.279-0.194,0.483,0.125,0.691,0.248c-0.085-1.11-0.31-2.336-0.147-3.546
			c0.293-1.847,0.962-3.546,1.326-5.362l0.147-0.155c0.527,0.597,0.886,1.343,1.428,1.971c0.234-0.528,0.163-1.18,0.248-1.77
			c0.248-2.553,1.972-4.492,3.887-6.355c0.063-0.093,0.078-0.217,0.202-0.295c0.256,0,0.234,0.295,0.342,0.442
			c0.256,1.847,0.357,4.066,0.1,6.006c0.342,0.334,0.575-0.489,1.033-0.342l0.146,0.194c0.179,1.172,0.187,2.467,0.249,3.655
			c0.071,0.792,0.566,2.84,0.544,3.437c0.045,2.367,0.317,4.703,0.147,7.092c-0.56,1.327,0.574,2.204,0.536,3.445
			c0.248,2.381,0.713,4.756,0.79,7.091l0.395-0.544c0.132-0.154,0.234,0.078,0.342,0.147c1.031,2.85,1.257,6.022,1.328,9.258
			c0.629,0.978,1.039,2.057,1.481,3.104C36.524,92.515,36.835,93.85,37.462,95.037z"/>
	</g>
	<path d="M91.59,123.326l-0.527,0.031c-1.094,0.752-1.988,0.884-3.143,1.505c-1.234,1.467-2.53,3.113-3.966,4.276
		c-1.986,1.676-4.275,2.475-6.602,3.351c-0.271,0.132-0.705,0.839-0.729,1.373h0.542c3.95-0.621,5.369-2.847,7.845-4.834
		C86.477,127.773,91.59,123.326,91.59,123.326"/>
	<path d="M61.182,123.73l-0.759,0.582c0.776,2.32,3.507,2.911,5.267,3.989c3.477,1.613,6.03,5.414,10.096,5.616
		c-0.111-0.503-0.212-1.155-0.638-1.381c-3.538-1.884-7.301-3.406-10.15-6.743c-1.279-0.643-2.644-1.063-3.84-1.923L61.182,123.73"
		/>
	<path d="M93.46,128.215l-0.542-1.343c-2.227,1.817-4.353,3.119-6.743,4.137c0.016,0.086-0.039,0.202,0.053,0.249
		c2.129,0.752,3.982,0.201,6.154-1.43C92.98,129.379,93.848,128.983,93.46,128.215"/>
	<path d="M62.346,129.488l-2.514-1.629c-0.318-0.273-0.713-0.094-0.791,0.295c-0.194,0.395-0.281,0.922,0.055,1.279
		c1.497,1.886,3.74,2.724,6.152,2.32c0.234-0.155,0.676-0.078,0.691-0.45C64.768,130.621,63.541,130.1,62.346,129.488"/>
	<path d="M48.442,83.809c-1.577-5.828-2.445-12.26-2.445-19.026c0-26.195,13.082-47.431,29.229-47.431
		c16.147,0,29.228,21.237,29.228,47.431c0,6.332-0.76,12.368-2.149,17.894c0,0,3.492,2.605,6.478,5.345
		c1.707,1.575,3.98,4.082,4.035,3.925c2.879-8.16,4.508-17.387,4.508-27.149c0-33.31-18.884-60.305-42.179-60.305
		c-23.301,0-42.179,26.995-42.179,60.305c0,10.343,1.817,20.081,5.027,28.584C39.666,90.909,43.793,85.857,48.442,83.809"/>
	<path fill="#FFFFFF" d="M75.048,34.305c0,1.048-1.77,1.404-1.575,2.119c0.256,0.481,0.745,0.264,1.133,0.093
		c0.963-0.412,1.745-1.249,2.754-1.575c0.209-0.046,0.332,0.062,0.349,0.248v0.147c-2.724,1.42-5.238,3.375-7.783,5.222
		c-0.465,0.271-0.925,0.551-1.483,0.396c-0.403-0.248-0.053-0.753-0.092-1.133c1.063-2.328,1.271-1.955,2.854-1.777
		c0.691-0.101,1.096-0.543,1.477-1.032l-0.094-0.147c-0.9,0.21-1.785,0.901-2.762,0.489c-0.381-0.279-0.465-0.744-0.342-1.179
		c0.839-1.009,2.746-0.124,3.756-0.915c0.324-0.404-0.505-0.559-0.707-0.706c-0.179-0.101-0.535,0.024-0.535-0.295
		c0.364-0.287,0.931-0.139,1.365-0.179C74.07,34.072,75.024,33.716,75.048,34.305"/>
	<path fill="#FFFFFF" d="M66.723,35.089c0.092,0.31-0.149,0.419-0.444,0.497c-0.395,0.038-1.241-0.605-1.574,0.1
		c-0.149,0.404,0.147,1.126-0.444,1.226c-0.34,0.039-0.821,0.015-0.837-0.342c-0.085-0.481-0.11-1.024,0.201-1.428
		c0.304-0.651,1.157-1.101,2.096-0.938C66.124,34.289,66.528,34.569,66.723,35.089"/>
	<path fill="#FFFFFF" d="M69.778,34.6c-0.199,0.256-0.643,0.606-1.086,0.396c-0.069-0.085-0.193-0.163-0.146-0.295
		c0.318-0.334,0.829-0.388,1.232-0.349V34.6"/>
	<path fill="#FFFFFF" d="M58.357,40.559c-0.031,0.713-1.038,0.543-1.132,1.179c0.279,0.226,0.629,0,0.931,0
		c0.48,0.714-1.662,1.071-0.194,1.382c0.271,1.109-1.715,1.412-2.461,2.211c0.025,0.139-0.038,0.364,0.241,0.295
		c0.69-0.062,1.707-1.226,1.87-0.636c0.155,0.799-0.776,0.884-1.224,1.179c-0.567,0.272-1.241,0.59-1.53,1.234
		c-0.108,0.31,0.381,0.21,0.542,0.148c0.591-0.171,1.397-1.164,1.622-0.839c0.1,0.31-0.132,0.606-0.342,0.839
		c-0.815,0.613-2.133,0.488-2.514,1.622c-0.038,0.287,0.483,0.442,0.793,0.295c0.511-0.233,1.193-1.303,1.472-0.885
		c0.125,0.372-0.169,0.737-0.487,0.939c-1.404,1.257-2.886,2.328-4.585,2.855c-0.21-0.295-0.031-0.69,0.053-0.985
		c1.242-3.709,2.878-7.255,5.019-10.584C56.891,40.272,57.877,39.907,58.357,40.559"/>
	<path fill="#FFFFFF" d="M125.272,56.558c-1.025-1.978-1.535-4.159-2.413-6.2C124.558,51.973,125.714,54.099,125.272,56.558"/>
	<path fill="#FFFFFF" d="M27.53,50.7c-0.813,1.87-1.444,3.833-2.22,5.71c-0.574-2.42,0.807-4.268,2.173-6.005h0.047V50.7"/>
	<path fill="#FFFFFF" d="M28.174,55.084c-0.691,0.994-1.187,2.243-2.367,2.856c0.465-2.6,1.412-4.997,2.514-7.341
		C28.64,51.958,28.593,53.68,28.174,55.084"/>
	<path fill="#FFFFFF" d="M124.775,57.986c-0.318,0.101-0.604-0.194-0.839-0.442c-1.729-1.614-2.086-3.841-1.868-6.2l0.1-0.691
		C123.488,52.865,123.992,55.511,124.775,57.986"/>
	<path fill="#FFFFFF" d="M23.147,56.07c1.868,2.483,1.969,5.881,1.627,9.109l-0.053,0.047c-0.357-1.723-0.846-3.484-1.281-5.214
		c-0.279-1.257-0.48-2.6-0.387-3.942H23.147"/>
	<path fill="#FFFFFF" d="M127.484,56.954c0.139,3.112-1.343,5.556-1.574,8.52c-0.483-0.753-0.304-1.778-0.342-2.709
		c0.208-2.312,0.403-4.64,1.721-6.502C127.421,56.427,127.421,56.721,127.484,56.954"/>
	<path fill="#FFFFFF" d="M124.434,61.734c0.071,0.745,0.273,1.451,0.194,2.266c-1.218-2.468-2.126-5.121-3.196-7.682
		C122.758,57.94,123.852,59.747,124.434,61.734"/>
	<path fill="#FFFFFF" d="M25.955,63.751c-0.373-1.808,0.737-3.336,1.428-4.873c0.458-0.869,0.908-1.73,1.528-2.514
		C28.206,58.949,27.027,61.323,25.955,63.751"/>
	<path fill="#FFFFFF" d="M76.81,59.747c1.295,1.172,2.762,3.081,2.754,3.306c-0.234,0.186-1.22-0.9-2.017-0.893
		c-0.505,0.125,0.146,0.838-0.249,0.986c-0.527,0.194-3.088-0.994-4.035-2.313c0.133-0.062,0.426-0.054,0.395-0.248
		c0.126-0.21-0.992-0.59-0.837-0.986c0,0,0.257,0.225,0.442,0.147c0.466-0.442-0.846-0.915-0.1-1.28
		c0.039-0.442-0.465-0.768-0.635-1.071c0.107-0.07,0.279-0.093,0.395-0.21l-0.147-0.535C74.225,57.427,75.606,58.491,76.81,59.747"
		/>
	<path fill="#FFFFFF" d="M124.434,65.326v0.59c-1.108-0.256-1.931-1.474-2.707-2.367c-1.296-1.815-0.823-4.493-0.792-6.743
		C122.186,59.577,123.41,62.417,124.434,65.326"/>
	<path fill="#FFFFFF" d="M29.602,56.854c0.085,2.77,0.822,6.168-1.972,7.929c-0.442,0.419-0.914,0.761-1.428,0.986
		c0.304-2.902,2.003-5.354,2.903-8.077C29.214,57.397,29.461,57.101,29.602,56.854"/>
	<path fill="#FFFFFF" d="M24.03,66.506l-0.293-0.1c-1.575-2.204-2.414-5.439-1.179-8.07C22.828,61.152,24.209,63.565,24.03,66.506"
		/>
	<path fill="#FFFFFF" d="M128.376,60.306c0.342,2.32-0.201,4.578-1.629,6.254H126.6c-0.132-2.98,1.195-5.362,1.328-8.225
		C128.252,58.879,128.337,59.6,128.376,60.306"/>
	<path fill="#FFFFFF" d="M25.56,61.136c-0.171-0.566-0.271-1.156-0.295-1.769c0.379-0.404,0.906-0.691,1.381-0.985
		C26.646,59.344,25.931,60.228,25.56,61.136"/>
	<path fill="#FFFFFF" d="M125.272,59.414c-0.085,0.605-0.014,1.28-0.249,1.823c-0.566-0.861-0.861-1.908-1.326-2.855
		C124.241,58.677,124.793,58.971,125.272,59.414"/>
	<path fill="#FFFFFF" d="M30.131,62.657l-0.279-0.241l0.279-0.372C30.215,62.06,30.113,62.572,30.131,62.657"/>
	<path fill="#FFFFFF" d="M82.139,66.7c2.654,1.435,5.019,3.81,6.743,6.355c0.023,0.124,0.063,0.248,0.053,0.396
		c-0.163,0.256-0.542,0.016-0.89-0.248c-0.428-0.295-0.807-0.69-1.282-0.885l-0.146,0.147c1,1.304,3.126,2.127,3.11,3.974
		l-0.302,0.038c-0.884-0.582-1.738-1.379-2.662-1.699c-0.232,0.116,0,0.295,0.102,0.397c0.914,0.65,1.876,1.303,2.754,2.064
		c0.202,0.27,0.248,0.658,0.147,0.984h-0.295c-0.737-0.527-1.351-0.994-2.314-1.373c-0.193,0.389,0.249,0.582,0.691,0.884
		c0.683,0.381,2.22,0.831,1.575,1.622c-1.21,0.955-2.226-0.489-3.057-1.133c-0.505-0.411-0.955-0.969-1.575-1.126
		c-0.263,0.024-0.224,0.226-0.224,0.334c0.31,0.444,1.466,0.613,1.118,1.141c-0.807,0.487-1.506-0.419-2.221-0.738
		c-2.204-1.699-4.322-3.693-6.4-5.562c-0.535-0.512-0.947-1.203-0.784-1.335c0.116-0.163,0.931,0.342,1.212,0.473
		c0.27,0.14,0.262-0.179,0.262-0.179c-1.845-2.017-5.369-3.429-5.167-6.595c0.045-0.256,0.256-0.504,0.489-0.636
		C73.798,63.449,79.68,65.256,82.139,66.7"/>
	<path fill="#FFFFFF" d="M29.106,65.869c-0.651,1.878-0.886,3.935-1.676,5.757c-0.132,1.211-0.279,2.429-0.638,3.547h-0.1
		c-0.216-2.856-0.589-6.068,0.886-8.473c0.705-0.831,1.232-1.792,2.119-2.507C29.696,64.768,29.253,65.288,29.106,65.869"/>
	<path fill="#FFFFFF" d="M124.086,70.246c0.21,1.676-0.155,3.221-0.241,4.826c-0.652-2.289-0.839-4.772-1.776-6.936
		c-0.279-1.311-0.784-2.529-1.18-3.794C122.603,65.916,124.117,67.825,124.086,70.246"/>
	<path fill="#FFFFFF" d="M28.119,74.924c-0.232,0.147-0.418,0.397-0.69,0.442c0.232-3.181,1.615-5.904,2.173-8.961l0.784-1.917
		C30.889,68.182,30.642,72.185,28.119,74.924"/>
	<path fill="#FFFFFF" d="M123.155,75.366c-1.071-0.411-1.715-1.605-2.118-2.606c-0.986-2.437-1.359-5.439-0.886-8.171
		C121.44,68.058,122.603,71.588,123.155,75.366"/>
	<path fill="#FFFFFF" d="M21.276,64.931c1.42,3.08,2.662,6.238,4.237,9.256c0.063,0.605,0.589,1.071,0.397,1.723
		c-0.179,0.295-0.497,0.077-0.691,0c-1.591-1.552-2.933-3.383-3.693-5.362c-0.481-1.73-0.528-3.748-0.35-5.617H21.276"/>
	<path fill="#FFFFFF" d="M129.409,64.977c0.34,3.957-0.357,7.713-3.353,10.389c-0.318,0.397-0.745,0.683-1.226,0.793
		c-0.472-0.752,0.108-1.552,0.342-2.267C126.74,70.99,127.816,67.832,129.409,64.977"/>
	<path fill="#FFFFFF" d="M26.988,66.11c-0.147,1.133-0.931,2.118-0.986,3.352l-0.092,0.636h-0.102c-0.76-0.97-1.467-1.963-1.97-3.05
		c0.627,0.125,0.776-0.605,1.279-0.791c0.086,0.179,0.21,0.357,0.397,0.443C26.041,66.607,26.506,66.335,26.988,66.11"/>
	<path fill="#FFFFFF" d="M125.172,66.754l0.295-0.442c0.271,0.38,0.652,0.947,1.234,0.784v0.295
		c-0.621,0.915-1.218,1.823-1.87,2.708c-0.161-0.217-0.161-0.589-0.248-0.885c-0.21-1.071-0.73-2.002-1.086-3.003
		C124.054,66.397,124.558,66.863,125.172,66.754"/>
	<path fill="#FFFFFF" d="M127.244,67.887c-0.793,1.637-1.63,3.259-2.367,4.92c-0.016-1.956,1.318-3.554,2.367-5.167V67.887"/>
	<path fill="#FFFFFF" d="M25.76,72.659c-0.923-1.598-1.737-3.243-2.365-4.974C24.403,69.253,25.636,70.789,25.76,72.659"/>
	<path fill="#FFFFFF" d="M123.551,81.868c-0.328,1.025-0.9,1.933-1.577,2.809c0.273-3.359-0.558-6.602-1.527-9.606
		c-0.08-0.611-0.257-1.194-0.204-1.869C121.556,76.012,125.489,78.338,123.551,81.868"/>
	<path fill="#FFFFFF" d="M28.709,82.514v2.21c-1.078-1.574-2.017-3.212-2.165-5.167c0.187-2.492,2.624-4.044,3.693-6.154
		C30.192,76.562,28.648,79.238,28.709,82.514"/>
	<path fill="#FFFFFF" d="M120.789,78.47c0.114,2.019,0.604,4.013,0.348,6.06c-0.287-2.381-2.383-4.01-2.267-6.549
		c0-1.552,0.335-2.978,0.591-4.43C119.538,75.344,120.423,76.796,120.789,78.47"/>
	<path fill="#FFFFFF" d="M30.634,81.573c-0.481,0.878-0.644,1.872-1.086,2.756c-0.218-3.159,0.224-6.512,1.334-9.35l0.241-1.281
		C31.628,76.118,32.419,79.432,30.634,81.573"/>
	<path fill="#FFFFFF" d="M25.909,78.821c-0.149,1.853,0.721,3.296,1.373,4.817c-2.988-2.701-4.198-6.247-5.416-9.745
		C23.564,75.297,24.823,77.065,25.909,78.821"/>
	<path fill="#FFFFFF" d="M127.981,76.352c-1.086,2.575-2.406,5.099-4.532,7.193c0.528-1.53,1.326-2.956,1.281-4.725
		c1.069-1.74,2.359-3.329,3.887-4.781C128.655,74.816,128.252,75.607,127.981,76.352"/>
	<path fill="#FFFFFF" d="M24.279,81.178c1.444,1.8,3.065,3.569,4.632,5.268c-3.485-0.171-6.013-3.988-6.991-6.936
		c-0.356-1.607-0.923-3.166-0.839-4.881C22.248,76.77,22.788,79.177,24.279,81.178"/>
	<path fill="#FFFFFF" d="M128.376,80.442c-0.962,2.646-3.414,5.85-6.5,5.913c2.745-3.041,5.795-6.022,6.742-9.855
		c0.396-0.487,0.411-1.133,0.791-1.622C129.555,76.872,128.802,78.617,128.376,80.442"/>
	<path fill="#FFFFFF" d="M26.988,76.554c0.014,0.481-0.426,0.892-0.691,1.326c-0.404-0.063-0.676-0.652-0.784-1.085
		c0.574,0.209,0.799-0.599,1.381-0.241H26.988"/>
	<path fill="#FFFFFF" d="M125.172,76.849c-0.187,0.404-0.379,0.807-0.784,1.132c-0.371-0.379-0.668-0.884-0.892-1.379
		c0.356,0.194,0.814-0.42,1.086,0.147L125.172,76.849"/>
	<path fill="#FFFFFF" d="M30.237,85.266c-0.132,0.025-0.132-0.193-0.193-0.295c0.069-1.357,0.721-2.474,1.474-3.546
		C31.813,82.878,30.928,84.097,30.237,85.266"/>
	<path fill="#FFFFFF" d="M120.54,85.461h-0.092c-0.676-1.163-1.273-2.373-1.577-3.693l0.1-0.342
		C120.013,82.514,120.609,83.94,120.54,85.461"/>
	<path fill="#FFFFFF" d="M119.313,91.668c0.124,1.22,0.039,2.336-0.146,3.5l-0.196,0.295c-0.541-1.047-0.665-2.351-1.086-3.5
		c-1.086-2.662-1.061-5.966-0.589-8.914l0.194-0.986C117.344,85.586,119.237,88.248,119.313,91.668"/>
	<path fill="#FFFFFF" d="M33.59,88.914c-0.582,2.165-1.212,4.306-1.721,6.494c-0.249-0.092-0.328-0.448-0.451-0.69
		c-1.163-4.618,1.839-7.985,1.723-12.407C33.513,84.414,33.886,86.712,33.59,88.914"/>
	<path fill="#FFFFFF" d="M30.681,93.834c-2.017-2.585-0.465-6.217,0.542-8.816c0.676-0.737,0.614-1.784,1.086-2.607
		C32.357,86.401,30.044,89.535,30.681,93.834"/>
	<path fill="#FFFFFF" d="M120.988,91.273c0.031,1.031-0.354,1.886-0.937,2.662c0.248-3.204-0.69-6.036-1.475-8.861
		c-0.061-0.744-0.287-1.42-0.201-2.218C119.623,85.461,120.998,88.1,120.988,91.273"/>
	<path fill="#FFFFFF" d="M92.917,85.074c2.428,3.002,4.439,6.176,6.797,9.203c0.014,0.287,0.411,0.627,0.045,0.837
		c-0.868-0.194-1.434-1.116-2.163-1.676c-0.381-0.442-0.676-0.923-1.033-1.373c-0.201-0.102-0.334,0-0.342,0.24
		c-0.373,1.265,2.066,3.539,2.949,5.37c0.179,0.48,0.497,1.024,0.296,1.528c-0.473,0.279-1.941-0.055-2.314-0.194
		c-0.861-0.513-1.348-2.66-2.459-4.043c-0.224-0.108-0.21-0.442-0.497-0.395c-0.348,0.326,0.039,0.69,0.056,1.039
		c0.31,0.776,0.992,1.45,0.931,2.312l-0.444-0.053c-0.931-1.281-1.746-2.655-2.801-3.84c-0.45,0.332,0,0.79,0,1.185
		c0.381,0.988,1.094,1.825,1.227,2.903c0,0.348-0.451,0.171-0.638,0.147c-1.776-1.646-2.32-3.988-3.793-5.859
		c-0.218-0.006-0.295,0.204-0.397,0.342c0.296,1.669,1.444,2.988,1.281,4.828c-0.085,0.053-0.124,0.201-0.24,0.147
		c-1.11-1.607-2.848-3.408-1.724-5.51c0.56-1.801-0.914-3.485-0.053-5.221c0.55-0.583,1.365-0.489,2.119-0.397
		c0.379-0.513,0.187-1.303,0.937-1.622C91.295,84.539,92.297,84.724,92.917,85.074"/>
	<path fill="#FFFFFF" d="M23.495,85.608c2.017,2.825,4.555,5.433,6.052,8.474c0.481,0.729,1.11,1.381,1.428,2.165
		c-1.017-0.209-1.701-1.257-2.506-1.97c-2.723-2.019-4.445-4.703-4.927-7.775l-0.147-0.894H23.495"/>
	<path fill="#FFFFFF" d="M124.628,92.065c-1.644,1.35-2.948,3.196-4.77,4.137c2.173-3.593,4.624-7.085,7.231-10.491
		C126.832,87.953,126.258,90.279,124.628,92.065"/>
	<path fill="#FFFFFF" d="M29.106,89.301c0.014,0.693-0.21,1.282-0.194,1.972c-1.303-1.768-2.956-3.375-4.088-5.268
		C26.297,87.006,27.817,87.89,29.106,89.301"/>
	<path fill="#FFFFFF" d="M121.827,91.373c0-0.774-0.448-1.599,0-2.31c1.204-1.11,2.506-2.182,3.887-2.956
		C124.799,87.912,122.905,89.527,121.827,91.373"/>
	<path fill="#FFFFFF" d="M29.355,87.285c0.107,0.248,0.006,0.52-0.102,0.737c-0.629-0.295-1.195-0.76-1.77-1.179
		C28.135,86.92,28.765,87.06,29.355,87.285"/>
	<path fill="#FFFFFF" d="M123.006,86.944c-0.519,0.426-1.031,0.862-1.627,1.132c-0.172-0.116-0.149-0.411-0.149-0.643
		c0.566-0.257,1.111-0.589,1.776-0.589V86.944"/>
	<path fill="#FFFFFF" d="M81.79,88.859c0.754,0.768,0.9,1.778,1.575,2.561c0.473,1.715-0.024,3.818,1.187,5.223
		c0.452,1.318-0.324,2.483-0.69,3.638c-1.621,3.143-2.445,4.538-4.928,8.325c-0.527,0.97-2.024-1.148-4.522,0.357
		c-0.257,0.094-1.024,0.303-1.234,0.085c0.094-0.55,0.698-0.519,1.078-0.69c0.481-0.155,1.862-0.216,1.66-0.458
		c-0.884-0.481-2.055-1.009-3.135-0.868c-0.564,0.295-1.241,0.884-1.868,0.442c1.218-2.98,2.815-5.812,4.328-8.668
		c0.334-1.426,2.08-2.141,2.469-3.546c0.063-1.404,0.209-2.778,0.635-4.035c0.226-0.147,0.505-0.287,0.644-0.542
		c0.171-0.737-0.621-1.707,0.296-2.119C80.09,88.293,81.1,88.395,81.79,88.859"/>
	<path fill="#FFFFFF" d="M36.934,95.952c-0.279,1.063-0.923,1.955-1.234,3.002c-0.487,1.343-0.868,2.732-1.474,4.044h-0.248
		c-3.066-1.567-5.773-4.314-8.069-7.093c-0.452-0.691-0.948-1.365-1.041-2.218c2.709,2.963,6.254,4.112,9.062,6.944
		c0.444-0.257,0.546-0.839,0.738-1.281c0.668-2.723-0.047-5.541,0.295-8.372C35.904,92.483,36.173,94.339,36.934,95.952"/>
	<path fill="#FFFFFF" d="M34.032,91.715c-0.022,2.43-0.962,4.486-1.039,6.897c-0.365-0.122-0.738-0.324-0.986-0.643
		c0.9-1.025,0.31-2.654,0.691-3.887l1.132-2.956C34.042,91.173,34.042,91.499,34.032,91.715"/>
	<path fill="#FFFFFF" d="M118.375,97.722l0.201,0.248c-0.226,0.357-0.58,0.566-0.939,0.69c-0.193-0.48-0.022-1.11-0.147-1.621
		c-0.381-1.723-0.846-3.422-0.931-5.268l0.24-0.444C117.778,93.229,118.258,95.424,118.375,97.722"/>
	<path fill="#FFFFFF" d="M34.126,96.643c0.061,0.9-0.085,1.699-0.24,2.513c-0.335-0.387-0.212-1.149-0.102-1.629l0.248-0.986
		L34.126,96.643"/>
	<path fill="#FFFFFF" d="M33.784,103.735c0.039,0.48-0.171,0.969-0.444,1.373c-3.188-1.489-6.229-4.687-7.635-7.875l-0.044-0.544
		C28.019,99.351,30.789,102.058,33.784,103.735"/>
	<path fill="#FFFFFF" d="M116.754,99.009c-0.196-0.721-0.249-1.544-0.149-2.32C116.754,97.418,117.171,98.288,116.754,99.009"/>
	<path fill="#FFFFFF" d="M32.8,106.24c-0.048,0.226-0.149,0.42-0.296,0.599c-1.118-0.644-2.143-1.636-3.104-2.561
		C30.571,104.835,31.682,105.558,32.8,106.24"/>
	<path fill="#FFFFFF" d="M32.062,107.522c-0.078,0.558-0.373,1.094-0.884,1.379c-0.817-1.024-1.406-2.141-1.778-3.343
		C30.339,106.108,31.178,106.87,32.062,107.522"/>
	<path fill="#FFFFFF" d="M83.373,110.716c0.202,4.284,0.086,7.722,0.031,12.104c0.03,1.017-0.031,2.112-0.884,2.499
		c-1.768,0.799-5.852,1.872-6.331,3.213c-0.713-1.404-3.88-2.049-5.883-2.801c-1.094-0.497-1.155-1.475-1.179-2.854
		c-0.014-4.191-0.046-7.885,0-12.012C73.628,110.616,78.368,110.579,83.373,110.716"/>
	<path fill="none" stroke="#000000" stroke-width="0.0641" stroke-miterlimit="3.864" d="M83.373,110.716
		c0.202,4.284,0.086,7.722,0.031,12.104c0.03,1.017-0.031,2.112-0.884,2.499c-1.768,0.799-5.852,1.872-6.331,3.213
		c-0.713-1.404-3.88-2.049-5.883-2.801c-1.094-0.497-1.155-1.475-1.179-2.854c-0.014-4.191-0.046-7.885,0-12.012
		C73.628,110.616,78.368,110.579,83.373,110.716z"/>
	<path d="M81.155,112.152c0.279,0.381,0.417,1.094,0.147,1.577c-0.528,0.022-0.705-1.298-1.335-0.544l0.202,4.135
		c0.132,0.318,0.782,0.35,0.589,0.791c-0.713,0.334-1.575-0.016-2.312,0.094c-0.357-0.528,0.55-0.652,0.487-1.18l-0.193-3.84
		c-0.108-0.218-0.397-0.21-0.589-0.102c-0.418,0.265-0.118,1.273-0.884,0.941c-0.102,0.122-0.21,0.185-0.351,0.193
		c-0.456-0.45-0.541-1.428-1.379-1.373c-0.234,0.194-0.303,0.513-0.194,0.784c0.737,0.939,2.461,1.404,2.065,2.956
		c-0.295,0.644-0.304,1.66-1.226,1.77c-0.676,0.185-1.22-0.265-1.723-0.636c-0.683,1.241-2.328,0.279-3.398,0.636
		c-0.357-0.257,0.039-0.567,0.1-0.831l-0.147-4.485c-0.21-0.187-0.45-0.428-0.348-0.691c0.969-0.185,2.071-0.063,3.104-0.092
		c0.248,0.365,0.564,0.923,0.293,1.428c-0.085,0.108-0.201,0.169-0.342,0.147c-0.177-0.326-0.24-0.815-0.69-0.894
		c-0.348-0.061-0.707,0.055-0.792,0.397c0.171,0.418-0.171,1.031,0.295,1.328c0.558,0.069,0.558-0.723,1.031-0.738
		c0.373,0.668,0.155,1.575,0,2.265c-0.426-0.069-0.465-1.016-1.078-0.69c-0.349,0.419-0.171,1.11-0.146,1.63
		c0.061,0.147,0.13,0.395,0.342,0.395c0.332,0.053,0.58-0.085,0.837-0.202c0.434-0.426,0.666-0.823,1.031-1.281
		c0.473,0.063,0.473,0.778,0.792,1.133c0.248,0.194,0.466,0.629,0.839,0.397c0.279-0.249,0.425-0.615,0.295-0.986
		c-0.42-0.986-1.77-0.886-2.072-1.97c-0.116-0.878-0.094-1.856,0.744-2.359c0.597-0.249,1.242,0.024,1.817,0.147l0.248,0.387
		c-0.039-0.713,0.737-0.627,1.234-0.682L81.155,112.152"/>
	<path d="M81.697,119.393c1.179,1.521-0.729,2.746-0.939,4.182c0.187,0.163,0.52,0.108,0.738,0.055
		c0.248-0.188,0.411-0.575,0.737-0.544c0.27,0.513-0.047,1.139-0.296,1.622c-0.713,0.379-1.636,0.108-2.412,0.047
		c-0.045-1.367,1.296-2.29,1.426-3.64c0.041-0.411-0.03-0.768-0.293-1.031c-0.527-0.141-0.784,0.713-1.281,0.387
		c0.039-0.544,0.434-1.055,0.939-1.281C80.711,118.959,81.387,118.959,81.697,119.393"/>
	<path d="M75.241,119.485c0.349,0.326,0.359,0.768,0.444,1.188l-0.389,0.931c0.379,0.729,0.807,1.568,0.491,2.467
		c-0.249,0.55-0.825,0.908-1.382,1.031c-0.574,0.047-1.016-0.232-1.428-0.589c-0.404-0.42-0.448-1.063-0.342-1.63l0.397-0.784
		c-0.373-0.729-0.357-1.847,0.147-2.514c0.271-0.27,0.591-0.417,0.931-0.489C74.527,119.128,74.947,119.168,75.241,119.485"/>
	<path d="M78.493,119.393c0.947,0.839,0.876,2.296,0.644,3.444c-0.452,1.009-1.32,2.229-2.561,2.267
		c-0.287-0.116-0.077-0.357,0-0.497c0.589-0.255,1.157-0.861,1.179-1.52c-0.674,0.086-1.273-0.265-1.574-0.839
		c-0.351-0.815-0.249-1.923,0.295-2.615C76.933,119.035,77.941,118.888,78.493,119.393"/>
	<path d="M72.044,119.835c-0.023,1.412,0.024,2.917,0.147,4.33c0.187,0.224,0.566,0.434,0.397,0.738
		c-0.567,0.348-1.249-0.047-1.879,0.147c-0.44-0.326,0.187-0.591,0.249-0.886c0.017-1.202,0.017-2.422-0.194-3.546
		c-0.147-0.171-0.465-0.171-0.348-0.442c0.31-0.459,0.884-0.481,1.234-0.931C72.005,119.168,71.982,119.611,72.044,119.835"/>
	<path fill="#FFFFFF" d="M74.706,120.277c0.069,0.281,0.086,0.652-0.1,0.886c-0.202,0.147-0.434-0.086-0.644-0.147
		c-0.273-0.249-0.279-0.652-0.193-0.987C74.023,119.633,74.606,119.88,74.706,120.277"/>
	<path fill="#FFFFFF" d="M77.949,120.277c0.116,0.481,0.208,1.024,0.102,1.528c-0.102,0.218-0.359,0.389-0.589,0.241
		c-0.381-0.567-0.528-1.398-0.249-2.064C77.468,119.601,77.857,120.021,77.949,120.277"/>
	<path fill="#FFFFFF" d="M74.899,123.428c0.102,0.295,0.048,0.65-0.146,0.884c-0.226,0.295-0.589,0.077-0.839,0
		c-0.542-0.419-0.194-1.017-0.295-1.622C74.132,122.434,74.69,122.962,74.899,123.428"/>
	
		<line fill="none" stroke="#000000" stroke-width="0.0641" stroke-miterlimit="3.864" x1="48.201" y1="61.253" x2="48.224" y2="61.369"/>
	<path d="M49.574,60.702c0.271-0.388,1.116-6.362,1.234-7.682c0.117-1.311,0.442-3.391,0.442-3.391
		c-0.79,1.745-2.025,4.632-3.428,6.385c-0.738,1.746,0.604,5.587,0.604,5.587S49.303,61.09,49.574,60.702"/>
	<path d="M30.347,60.221C32.024,27.5,51.452,1.686,75.179,1.686c24.549,0,44.506,27.645,44.964,61.98l-0.8,1.187v-0.14
		c0-34.373-19.771-62.237-44.165-62.237c-24.395,0-44.166,27.863-44.166,62.268L30.347,60.221"/>
	<g>
		<path fill="none" stroke="#000000" stroke-width="0.0641" stroke-miterlimit="3.864" d="M30.347,60.221
			C32.024,27.5,51.452,1.686,75.179,1.686c24.549,0,44.506,27.645,44.964,61.98l-0.8,1.187v-0.14
			c0-34.373-19.771-62.237-44.165-62.237c-24.395,0-44.166,27.863-44.166,62.268L30.347,60.221z"/>
	</g>
	<path d="M51.515,83.84c-1.63-5.773-2.538-12.229-2.538-19.041c0-24.488,11.731-44.336,26.203-44.336
		c14.471,0,26.203,19.848,26.203,44.336c0,5.789-0.66,11.329-1.853,16.395l0.509,1.141c1.353-5.392,2.104-11.329,2.104-17.552
		c0-24.914-12.079-45.104-26.977-45.104c-14.907,0-26.98,20.19-26.98,45.104c0,6.945,0.939,13.524,2.616,19.405L51.515,83.84"/>
	<path fill="none" stroke="#000000" stroke-width="0.0641" stroke-miterlimit="3.864" d="M51.515,83.84
		c-1.63-5.773-2.538-12.229-2.538-19.041c0-24.488,11.731-44.336,26.203-44.336c14.471,0,26.203,19.848,26.203,44.336
		c0,5.789-0.66,11.329-1.853,16.395l0.509,1.141c1.353-5.392,2.104-11.329,2.104-17.552c0-24.914-12.079-45.104-26.977-45.104
		c-14.907,0-26.98,20.19-26.98,45.104c0,6.945,0.939,13.524,2.616,19.405L51.515,83.84z"/>
	<path fill="#FFFFFF" d="M41.752,78.438c0.349,0,1.135-0.122,1.654,0.909c0.108,0.201,0.177,0.426,0.209,0.636
		c0.049,0.216,0.049,0.426,0,0.636c-0.107,0.426-0.373,0.831-0.883,1.195c-0.436,0.295-1.011,0.458-1.561,0.542
		c-0.558,0.078-1.077,0.07-1.373,0.016c-0.705-0.124-1.326-0.574-1.522-1.273c-0.417-1.505,0.599-2.063,1.025-2.188l-0.293-1.489
		c-0.39,0.085-1.367,0.326-1.903,1.568c-0.387,0.839-0.301,1.615-0.194,2.157c0.381,1.972,1.693,2.662,3.205,2.809
		c0.458,0.047,0.994,0,1.505-0.1c0.513-0.1,0.978-0.257,1.32-0.411c1.542-0.715,2.405-2.104,2.025-3.787
		c-0.216-0.931-0.744-1.715-1.188-2.094c-0.566-0.489-1.536-0.754-2.318-0.614L41.752,78.438"/>
	<path fill="#FFFFFF" d="M39.473,68.919c-1.18,0.125-2.306,0.668-2.989,1.466c-0.605,0.714-0.798,1.684-0.697,2.669
		c0.108,0.977,0.503,1.885,1.241,2.459c0.837,0.646,2.055,0.947,3.228,0.825c1.172-0.126,2.304-0.668,2.98-1.467
		c0.605-0.715,0.807-1.684,0.698-2.67c-0.1-0.978-0.495-1.886-1.242-2.459C41.862,69.097,40.644,68.795,39.473,68.919"/>
	<path d="M42.536,72.349c0.055,0.504-0.039,1.032-0.372,1.475c-0.412,0.55-1.226,0.89-2.071,0.992
		c-0.847,0.077-1.717-0.092-2.235-0.55c-0.42-0.357-0.621-0.854-0.676-1.358c-0.055-0.505,0.047-1.032,0.371-1.474
		c0.42-0.551,1.235-0.893,2.074-0.993c0.845-0.078,1.713,0.093,2.242,0.55C42.28,71.348,42.483,71.844,42.536,72.349"/>
	<polyline fill="#FFFFFF" points="35.615,67.739 43.437,67.6 43.343,62.3 42,62.323 42.062,66.032 35.593,66.141 35.615,67.739 	"/>
	<polyline fill="#FFFFFF" points="35.623,60.718 43.414,61.392 43.879,56.108 42.545,55.992 42.218,59.685 35.763,59.127 
		35.623,60.718 	"/>
	<polyline fill="#FFFFFF" points="36.468,52.664 36.22,54.238 43.942,55.449 44.19,53.874 36.468,52.664 	"/>
	<polyline fill="#FFFFFF" points="36.531,51.182 44.172,52.795 44.508,51.236 39.177,50.111 45.166,48.171 45.5,46.634 
		37.851,45.02 37.517,46.58 42.77,47.69 36.857,49.646 36.531,51.182 	"/>
	<path fill="#FFFFFF" d="M44.027,41.28l0.487-1.699c0.204,0.07,0.56,0.171,0.925,0.714c0.426,0.597,0.403,1.389,0.201,1.894
		c-0.34,0.83-1.139,1.202-1.846,1.319c-0.977,0.17-2.88-0.427-3.398-1.591c-0.163-0.512-0.194-0.915-0.047-1.427
		c0.234-0.8,0.791-1.459,1.763-1.467l0.409-1.397c-0.179-0.023-0.837-0.24-1.939,0.365c-0.97,0.543-1.326,1.497-1.53,2.203
		c-0.185,0.644-0.185,1.156-0.146,1.498c0.381,2.817,4.159,4.144,6.363,2.902c0.426-0.256,1.118-0.567,1.583-1.894
		c0.505-1.451-0.085-2.289-0.436-2.778l0.994,0.086l0.263-0.923l-4.058-1.156l-0.868,2.987L44.027,41.28"/>
	<path fill="#FFFFFF" d="M53.99,20.929c-0.923-0.737-2.111-1.141-3.159-1.056c-0.939,0.085-1.768,0.629-2.398,1.397
		c-0.629,0.768-0.992,1.691-0.884,2.615c0.132,1.031,0.784,2.102,1.701,2.84c0.914,0.73,2.102,1.14,3.148,1.047
		c0.94-0.078,1.778-0.628,2.408-1.397c0.621-0.768,0.992-1.691,0.876-2.615C55.549,22.728,54.905,21.657,53.99,20.929"/>
	<path fill="#FFFFFF" d="M60.608,14.992c-0.762-0.892-1.848-1.513-2.894-1.629c-0.94-0.093-1.862,0.287-2.624,0.923
		c-0.768,0.629-1.303,1.466-1.371,2.397c-0.071,1.04,0.364,2.212,1.124,3.104c0.752,0.893,1.839,1.521,2.894,1.629
		c0.931,0.101,1.854-0.279,2.624-0.915c0.759-0.636,1.295-1.474,1.365-2.397C61.794,17.057,61.368,15.893,60.608,14.992"/>
	<path fill="#FFFFFF" d="M64.324,17.266l3.312-1.203c0.77-0.271,1.414-1.071,1.632-2.032c0.146-0.636,0.155-1.661-0.31-2.926
		c-0.281-0.752-0.661-1.257-0.917-1.505c-1.141-1.102-2.218-1.118-2.98-0.846l-3.414,1.234L64.324,17.266"/>
	<polyline fill="#FFFFFF" points="40.758,35.361 48.79,36.532 49.38,35.22 44.453,31.651 50.428,32.878 51.018,31.567 
		44.763,26.438 44.072,27.982 49,31.458 43.103,30.131 42.412,31.667 47.301,35.089 41.45,33.817 40.758,35.361 	"/>
	<path fill="#FFFFFF" d="M88.005,14.209c0.458-1.078,0.528-2.32,0.147-3.289c-0.332-0.877-1.094-1.513-2.01-1.901
		c-0.922-0.388-1.915-0.481-2.784-0.116c-0.97,0.411-1.825,1.319-2.282,2.39c-0.465,1.078-0.528,2.32-0.155,3.297
		c0.334,0.869,1.094,1.513,2.017,1.901c0.917,0.38,1.909,0.481,2.779,0.116C86.686,16.195,87.539,15.287,88.005,14.209"/>
	<path fill="#FFFFFF" d="M95.228,19.85c0.776-0.885,1.227-2.041,1.18-3.089c-0.053-0.931-0.574-1.777-1.336-2.42
		c-0.751-0.652-1.666-1.048-2.607-0.962c-1.047,0.093-2.141,0.698-2.917,1.575c-0.776,0.884-1.224,2.048-1.171,3.088
		c0.047,0.931,0.574,1.777,1.326,2.421c0.754,0.651,1.669,1.047,2.607,0.97C93.359,21.331,94.461,20.734,95.228,19.85"/>
	<path d="M53.709,25.499c-0.326,0.396-0.766,0.698-1.312,0.784c-0.69,0.1-1.511-0.233-2.179-0.753
		c-0.652-0.535-1.149-1.256-1.187-1.948c-0.039-0.55,0.169-1.039,0.497-1.435c0.317-0.396,0.759-0.698,1.31-0.776
		c0.69-0.109,1.514,0.225,2.173,0.745c0.652,0.535,1.148,1.265,1.195,1.956C54.237,24.614,54.035,25.103,53.709,25.499"/>
	<path fill="#FFFFFF" d="M97.255,28.68l1.66,3.08c0.224,0.434,0.707,1.156,1.365,1.412c0.854,0.334,1.475,0.132,1.839-0.054
		c0.824-0.435,1.21-1.164,1.304-1.738c0.682,0.279,1.351,0.124,1.768-0.101c0.279-0.147,1.738-1.078,0.483-3.414l-1.514-2.824
		L97.255,28.68"/>
	<polyline fill="#FFFFFF" points="109.475,36.493 108.878,34.755 100.598,34.724 101.125,36.26 102.788,36.268 103.733,38.984 
		102.421,39.993 102.957,41.529 109.475,36.493 	"/>
	<path d="M103.733,27.073l0.892,1.669c0.265,0.489,0.279,0.969-0.317,1.288c-0.552,0.288-0.97,0.063-1.29-0.535l-0.861-1.598
		L103.733,27.073"/>
	<path d="M59.451,19.431c-0.395,0.334-0.884,0.543-1.436,0.52c-0.696-0.031-1.442-0.512-1.994-1.148
		c-0.535-0.644-0.884-1.451-0.79-2.141c0.071-0.543,0.364-0.986,0.76-1.311c0.396-0.326,0.884-0.543,1.442-0.521
		c0.691,0.031,1.437,0.513,1.988,1.148c0.542,0.652,0.884,1.459,0.798,2.142C60.142,18.663,59.846,19.105,59.451,19.431"/>
	<path d="M63.619,10.687l1.365-0.489c0.542-0.194,0.977-0.225,1.56,0.194c0.403,0.272,0.737,0.846,0.961,1.452
		c0.226,0.597,0.35,1.234,0.304,1.645c-0.071,0.838-0.528,1.296-1.227,1.544l-1.202,0.434L63.619,10.687"/>
	<polyline fill="#FFFFFF" points="74.24,6.931 73.961,14.666 75.574,14.729 75.692,11.4 79.106,11.524 79.151,10.197 75.737,10.074 
		75.8,8.312 79.68,8.444 79.727,7.125 74.24,6.931 	"/>
	<path d="M83.489,15.209c-0.472-0.201-0.892-0.535-1.116-1.039c-0.295-0.629-0.202-1.498,0.124-2.274
		c0.342-0.776,0.908-1.443,1.567-1.676c0.519-0.187,1.047-0.125,1.528,0.078c0.473,0.201,0.884,0.535,1.118,1.031
		c0.287,0.636,0.193,1.505-0.124,2.281c-0.342,0.768-0.917,1.443-1.575,1.668C84.49,15.466,83.962,15.404,83.489,15.209"/>
	<path fill="#FFFFFF" d="M105.936,78.075l-0.727,3.414c-0.102,0.481-0.21,1.336,0.132,1.956c0.44,0.799,1.047,1.039,1.442,1.124
		c0.916,0.194,1.685-0.124,2.127-0.497c0.34,0.652,0.955,0.956,1.42,1.047c0.31,0.07,2.031,0.281,2.583-2.311l0.676-3.129
		L105.936,78.075"/>
	<path d="M111.944,80.968l-0.397,1.847c-0.117,0.544-0.42,0.925-1.08,0.784c-0.611-0.132-0.79-0.566-0.643-1.232l0.371-1.77
		L111.944,80.968"/>
	<path d="M90.621,19.415c-0.381-0.334-0.676-0.784-0.738-1.327c-0.077-0.691,0.287-1.49,0.831-2.126
		c0.566-0.629,1.318-1.094,2.017-1.118c0.55-0.016,1.039,0.209,1.428,0.543c0.387,0.334,0.674,0.784,0.737,1.327
		c0.077,0.691-0.279,1.49-0.829,2.133c-0.567,0.621-1.312,1.086-2.011,1.11C91.497,19.974,91.016,19.749,90.621,19.415"/>
	<polyline fill="#FFFFFF" points="99.288,18.36 98.217,19.159 99.644,21.029 94.469,24.894 95.438,26.166 100.615,22.302 
		101.987,24.11 103.058,23.31 99.288,18.36 	"/>
	<path d="M100.979,28.525l1.024,1.908c0.139,0.264,0.389,0.815-0.387,1.226c-0.947,0.497-1.304-0.124-1.536-0.551l-0.886-1.652
		L100.979,28.525"/>
	<polyline points="107.403,36.237 104.874,38.185 104.222,36.307 107.403,36.237 	"/>
	<polyline fill="#FFFFFF" points="110.716,40.016 103.197,42.15 104.672,47.247 105.961,46.875 104.929,43.313 111.158,41.545 
		110.716,40.016 	"/>
	<polyline fill="#FFFFFF" points="112.671,47.263 104.951,48.474 105.79,53.711 107.108,53.502 106.527,49.839 112.928,48.838 
		112.671,47.263 	"/>
	<path fill="#FFFFFF" d="M109.343,61.424c-0.348-0.024-1.141,0.023-1.56-1.04c-0.092-0.217-0.147-0.45-0.163-0.659
		c-0.022-0.218,0-0.427,0.063-0.636c0.139-0.412,0.442-0.792,0.984-1.102c0.458-0.264,1.047-0.38,1.607-0.419
		c0.558-0.023,1.078,0.031,1.365,0.109c0.69,0.179,1.273,0.691,1.404,1.397c0.279,1.536-0.784,2.01-1.212,2.095l0.155,1.513
		c0.397-0.055,1.39-0.21,2.035-1.397c0.465-0.807,0.442-1.591,0.387-2.134c-0.208-2.002-1.45-2.801-2.948-3.08
		c-0.448-0.085-0.994-0.078-1.513-0.023c-0.513,0.054-0.994,0.163-1.35,0.287c-1.599,0.582-2.577,1.894-2.343,3.6
		c0.132,0.947,0.589,1.777,0.992,2.188c0.528,0.535,1.467,0.884,2.257,0.814L109.343,61.424"/>
	<polyline fill="#FFFFFF" points="114.551,64.341 106.736,64.209 106.642,69.509 107.984,69.532 108.047,65.823 114.526,65.94 
		114.551,64.341 	"/>
	<path fill="#FFFFFF" d="M114.131,75.36l-5.408-0.381c-0.489-0.031-1.235-0.303-1.141-1.568c0.086-1.296,0.854-1.389,1.351-1.373
		l5.4,0.372l0.116-1.59l-5.384-0.373c-0.77-0.054-1.707,0.202-2.514,1.436c-0.193,0.411-0.326,0.931-0.365,1.474
		c-0.039,0.543,0.031,1.109,0.21,1.598c0.542,1.326,1.552,1.568,2.242,1.615l5.378,0.379L114.131,75.36"/>
	<path d="M108.884,80.326l-0.448,2.118c-0.061,0.287-0.234,0.876-1.094,0.691c-1.047-0.218-0.915-0.931-0.815-1.398l0.389-1.831
		L108.884,80.326"/>
	<path fill="#FFFFFF" d="M76.22,131.737c0.48-0.923,1.303-2.056,2.257-2.499c1.263-0.55,6.704-1.644,6.704-5.229
		c0-4.072-0.009-7.914,0.1-11.902c0.024-0.481,0.986-0.962,1.522-1.024c0,0-0.917-0.87-1.414-1.196
		c-0.293,0.147-0.845,0.466-0.861,0.854c-0.047,8.146,0.039,8.651,0,12.957c-0.102,3.112-3.623,3.935-6.084,4.858
		c-1.746,0.744-2.235,1.923-2.235,1.923s-0.519-1.318-2.234-1.923c-2.461-0.923-5.982-1.746-6.083-4.858
		c-0.039-4.306,0.047-4.811,0-12.957c-0.016-0.389-0.558-0.707-0.854-0.854c-0.503,0.326-1.42,1.196-1.42,1.196
		c0.546,0.061,1.499,0.542,1.521,1.024c0.111,3.988,0.102,7.83,0.102,11.902c0,3.585,5.441,4.679,6.704,5.229
		c0.953,0.442,1.778,1.575,2.257,2.499"/>
	<path fill="none" stroke="#000000" stroke-width="0.0945" stroke-miterlimit="3.864" d="M76.22,131.737
		c0.48-0.923,1.303-2.056,2.257-2.499c1.263-0.55,6.704-1.644,6.704-5.229c0-4.072-0.009-7.914,0.1-11.902
		c0.024-0.481,0.986-0.962,1.522-1.024c0,0-0.917-0.87-1.414-1.196c-0.293,0.147-0.845,0.466-0.861,0.854
		c-0.047,8.146,0.039,8.651,0,12.957c-0.102,3.112-3.623,3.935-6.084,4.858c-1.746,0.744-2.235,1.923-2.235,1.923
		s-0.519-1.318-2.234-1.923c-2.461-0.923-5.982-1.746-6.083-4.858c-0.039-4.306,0.047-4.811,0-12.957
		c-0.016-0.389-0.558-0.707-0.854-0.854c-0.503,0.326-1.42,1.196-1.42,1.196c0.546,0.061,1.499,0.542,1.521,1.024
		c0.111,3.988,0.102,7.83,0.102,11.902c0,3.585,5.441,4.679,6.704,5.229c0.953,0.442,1.778,1.575,2.257,2.499"/>
	<path fill="none" stroke="#FFFFFF" stroke-width="0.225" stroke-linejoin="round" d="M88.4,98.916c0,0,0.621,0.937,1.08,1.342
		c0,0,1.691,3.01,1.923,4.182c0,0,0.357,1.025,2.367,1.179c0,0,0.544,0.094,0.986-0.016c0.434-0.107,1.613-0.216,2.204,0.063
		c0.596,0.279,0.613,0.528,1.241,0.644c0.627,0.108,2.613,0.155,3.935,0.016c1.31-0.147,1.923-0.055,2.218-0.071
		c0.302-0.016,1.52-0.045,2.072,0c0.542,0.055,0.697,0.102,1.031,0.163c0.326,0.063,1.892,0.389,2.383,0.483
		c0,0-0.459-4.276-3.198-6.62c0,0-0.285-0.24-0.596-0.365c0,0-0.567-1.31-0.878-1.644c-0.31-0.326-3.569-3.848-4.027-4.198
		c0,0-0.017-0.691-0.527-1.265c-0.522-0.582-1.149-1.226-1.149-1.615c0,0-0.925-0.256-2.359-2.793
		c-0.978-1.721-1.21-1.878-1.21-1.878s3.011,1.445,3.552,1.74c0.552,0.301,3.826,2.01,4.308,2.242
		c0.489,0.232,1.147,0.582,1.365,0.8c0.218,0.216,1.124,0.566,1.381,0.48c0.249-0.077,1.002-0.216,0.97-0.984
		c-0.03-0.768-0.185-1.249-0.676-1.878c-0.489-0.629-1.248-1.955-1.784-2.615c0,0-0.381-0.511-0.815-1.094
		c-0.256-0.342-0.511-0.745-0.768-0.984c-0.705-0.661-0.939-1.491-1.644-1.994c-0.705-0.499-1.785-1.436-2.274-1.832"/>
	<path fill="#001689" d="M49.449,83.188c-10.349,3.05-15.464,19.048-15.493,19.205c-0.132,0.627-1.412,6.245-5.532,9.458
		c-4.842,3.762-7.303,3.235-7.325,3.226l-0.614-0.016l0.256,0.428l17.964,30.292l0.21-0.063c11.236-3.173,13.47-5.198,17.443-11.786
		c2.365-3.927,3.886-9.382,5.027-15.238l0.085-0.451c1.847-6.665,4.634-8.496,5.82-9.272c1.218-0.799,2.544-0.56,2.544-0.56
		l-12.244-22.71l0.009,0.016C56.263,82.667,50.957,82.746,49.449,83.188"/>
	<path fill="#76BA6A" d="M42.715,106.784l-2.894-4.895c0,0,0,0-0.008,0.006l2.894,4.897L42.715,106.784"/>
	<path fill="#76BA6A" d="M56.053,100.647c0.031-0.039,0.047-0.063,0.047-0.063l-0.102-0.163L56.053,100.647"/>
	<path fill="#FFFFFF" d="M45.003,110.679c-1.458,0.815-3.057,1.56-4.803,2.157c2.017-3.514,2.5-5.997,2.506-6.044l-2.894-4.897
		c-0.762,2.391-1.652,4.486-2.615,6.333c0.643-5.339,0.473-8.598,0.146-10.521l-0.829-1.404c-0.861,1.699-1.505,3.22-1.933,4.314
		c0.149,3.422-0.124,6.983-0.621,10.411l-2.017-3.414c-0.652,1.157-1.489,2.345-2.558,3.384l2,3.383
		c-1.916,0.031-3.942-0.116-6.066-0.481c-2.811,1.397-4.199,1.188-4.221,1.179l-0.614-0.016l0.256,0.428l0.887,1.491
		c1.379,0.356,4.035,0.915,7.689,1.047c-2.964,2.32-5.276,3.017-5.276,3.017l1.45,2.444l1.489,2.522
		c1.654-1.024,3.121-2.071,4.447-3.133c-0.9,3.204-1.754,5.679-2.195,6.921l0.69,1.171c0.201-0.132,1.31-0.876,2.879-2.157
		c0.851-3.057,1.566-5.842,2.155-8.38l2.438,4.129c0.9-0.947,1.823-1.988,2.715-3.119l0,0l-2.514-4.26
		c2.158-0.521,4.438-1.32,6.804-2.475c0.466-0.947,0.886-1.923,1.241-2.941L45.003,110.679"/>
	<path fill="#FF4338" d="M36.399,116.833l0.365-0.458c3.615-4.539,4.864-8.319,5.129-9.358c0,0,0.147-0.544,0.271-1.149l-1.817-3.08
		c-0.169,0.605-0.34,1.094-0.34,1.094c-1.212,3.32-2.739,6.323-4.594,8.922l-0.76,1.063c0,0-1.768-2.988-3.205-5.424
		c-0.417,0.652-0.9,1.296-1.45,1.917c1.412,2.391,3.127,5.292,3.127,5.292l-0.442,0.466c-2.707,2.831-5.618,4.616-7.388,5.345
		c0,0-0.356,0.179-0.799,0.32l0.994,1.705l1.024,1.73c0.265-0.139,0.552-0.303,0.723-0.419c2.514-1.629,4.833-3.438,6.844-5.439
		l0.776-0.776c0,0,2.32,3.925,2.98,5.044l0.161,0.279c0.52-0.558,1.033-1.141,1.546-1.762l-0.365-0.613
		C38.835,120.952,36.399,116.833,36.399,116.833"/>
	<path fill="#FF4338" d="M29.958,117.507c0,0,0.473-0.342,1.141-1.118c0,0-3.243,0.102-9.466-1.318
		c-0.379,0.022-0.528,0.016-0.535,0.006l-0.614-0.016l0.256,0.428l0.483,0.813C25.024,117.204,29.958,117.507,29.958,117.507"/>
	<path fill="#FF4338" d="M35.731,110.64c0,0,1.11-6.323,0.194-13.136c-0.31,0.666-0.582,1.271-0.823,1.839
		c0.241,2.63,0.335,7.549-0.535,13.261C34.568,112.604,35.327,111.648,35.731,110.64"/>
	<path fill="#FF4338" d="M38.556,115.055c0,0,4.021-1.172,6.906-2.817c0.063-0.163,0.124-0.318,0.177-0.474l-0.332-0.566
		c-1.188,0.652-3.803,2.016-5.679,2.452C39.628,113.651,39.301,114.356,38.556,115.055"/>
	<path fill="#FF4338" d="M34.211,120.603c-0.365,0.513-1.342,1.218-1.342,1.218c-0.552,2.53-2.259,7.279-2.974,9.11l0.025,0.038
		c0.155-0.1,0.821-0.55,1.807-1.31C33.093,126.221,34.211,120.603,34.211,120.603"/>
	<polyline fill="#FFFFFF" points="49.201,129.588 46.905,131.389 48.945,133.475 46.105,132.8 45.756,135.703 44.508,133.057 
		42.025,134.593 43.312,131.97 40.566,130.977 43.414,130.356 42.475,127.594 44.74,129.425 46.315,126.973 46.292,129.89 
		49.201,129.588 	"/>
	<polyline fill="#FFFFFF" points="59.296,95.239 58.288,95.316 58.086,96.302 57.404,95.565 56.502,96.023 56.65,95.021 
		55.726,94.603 56.604,94.098 56.357,93.12 57.294,93.485 57.909,92.678 58.209,93.646 59.219,93.624 58.653,94.461 59.296,95.239 	
		"/>
	<polyline fill="#FFFFFF" points="48.753,92.251 47.742,92.328 47.543,93.314 46.851,92.577 45.95,93.035 46.097,92.033 
		45.184,91.615 46.052,91.11 45.81,90.132 46.749,90.497 47.362,89.698 47.657,90.66 48.666,90.637 48.101,91.474 48.753,92.251 	
		"/>
	<polyline fill="#FFFFFF" points="48.673,104.409 47.666,104.487 47.463,105.481 46.773,104.735 45.873,105.202 46.021,104.199 
		45.104,103.782 45.981,103.277 45.734,102.291 46.673,102.663 47.285,101.857 47.586,102.826 48.597,102.804 48.03,103.641 
		48.673,104.409 	"/>
	<polyline fill="#FFFFFF" points="62.144,111.058 61.142,111.137 60.942,112.13 60.25,111.384 59.351,111.842 59.498,110.85 
		58.583,110.431 59.451,109.926 59.211,108.948 60.15,109.314 60.763,108.506 61.058,109.475 62.073,109.453 61.5,110.284 
		62.144,111.058 	"/>
	<polyline fill="#FFFFFF" points="58.985,100.18 58.38,100.778 58.753,101.539 58.001,101.152 57.388,101.732 57.528,100.902 
		56.783,100.499 57.62,100.374 57.775,99.537 58.148,100.297 58.985,100.18 	"/>
	<path fill="none" stroke="#FFFFFF" stroke-width="0.225" stroke-miterlimit="3.864" d="M113.074,91.941
		c0,0-4.212-5.866-10.877-9.885"/>
	<path fill="none" stroke="#FFFFFF" stroke-width="0.225" d="M82.304,107.622c0,0,0.519,0.224,1.303,0.558
		c1.738,0.76,4.905,2.328,6.789,7.472c2.74,7.488,3.125,14.837,5.533,19.251"/>
	<path fill="none" stroke="#FFFFFF" stroke-width="0.225" stroke-miterlimit="3.864" d="M56.783,133.917
		c0,0,3.351-8.604,4.143-12.786s3.035-12.959,9.07-12.772l-1.202-2.32"/>
	<path fill="#FFFFFF" d="M92.621,123.675c0.235,0.839,0.257,1.218,0.459,2.072c-2.011,2.055-4.936,3.811-7.341,4.919
		c-0.318,0.194-0.613,0.566-0.487,0.931c0.293,0.86,3.265,0.931,4.575,0.497c1.6-0.597,2.662-1.521,3.693-2.561
		c0.404,0.498,0.552,1.133,0.776,1.491c0.187,0.76,0.102,1.118,0.102,1.118c-3.671,2.793-6.836,1.365-10.303,2.179
		c-1.242,0.21-2.507,0.799-3.144,1.312c-0.13,0.108-0.124-0.163,0,0c2.771,0.745,5.184,0.535,7.892,1.436
		c-0.108,0.503-1.14,1.544-1.84,2.243c-1.356-0.063-2.226-0.589-3.521-0.8c-5.883-1.265-9.498-1.683-14.487-0.094
		c-1.241,0.426-3.6,0.962-4.889,1.257c0.041-0.737-1.271-1.793-1.194-2.296c2.607-0.892,4.4-0.955,7.123-1.591
		c0.257-0.022,0.705-0.053,0.342-0.201c-2.717-1.699-5.71-0.87-8.712-1.18c-1.748-0.209-3.09-0.737-4.431-1.901
		c0.263-0.962,0.458-1.893,0.837-2.483h0.149c1.729,2.049,4.096,2.848,6.695,2.514c0.489-0.171,1.078-0.201,1.381-0.737
		c0.055-0.683-0.807-0.878-1.234-1.234c-2.094-0.908-4.129-1.995-5.911-3.648c0.085-0.566,0.161-1.218,0.643-1.521
		c1.499,2.383,4.113,2.925,6.301,4.082c3.351,2.428,5.742,5.75,10.885,5.268c4.532-0.713,6.891-4.066,7.953-4.789
		c1.467-1.194,6.416-3.499,7.496-6.284H92.621"/>
	<path fill="none" stroke="#86754D" stroke-width="0.6248" stroke-miterlimit="3.864" d="M92.621,123.675
		c0.235,0.839,0.257,1.218,0.459,2.072c-2.011,2.055-4.936,3.811-7.341,4.919c-0.318,0.194-0.613,0.566-0.487,0.931
		c0.293,0.86,3.265,0.931,4.575,0.497c1.6-0.597,2.662-1.521,3.693-2.561c0.404,0.498,0.552,1.133,0.776,1.491
		c0.187,0.76,0.102,1.118,0.102,1.118c-3.671,2.793-6.836,1.365-10.303,2.179c-1.242,0.21-2.507,0.799-3.144,1.312
		c-0.13,0.108-0.124-0.163,0,0c2.771,0.745,5.184,0.535,7.892,1.436c-0.108,0.503-1.14,1.544-1.84,2.243
		c-1.356-0.063-2.226-0.589-3.521-0.8c-5.883-1.265-9.498-1.683-14.487-0.094c-1.241,0.426-3.6,0.962-4.889,1.257
		c0.041-0.737-1.271-1.793-1.194-2.296c2.607-0.892,4.4-0.955,7.123-1.591c0.257-0.022,0.705-0.053,0.342-0.201
		c-2.717-1.699-5.71-0.87-8.712-1.18c-1.748-0.209-3.09-0.737-4.431-1.901c0.263-0.962,0.458-1.893,0.837-2.483h0.149
		c1.729,2.049,4.096,2.848,6.695,2.514c0.489-0.171,1.078-0.201,1.381-0.737c0.055-0.683-0.807-0.878-1.234-1.234
		c-2.094-0.908-4.129-1.995-5.911-3.648c0.085-0.566,0.161-1.218,0.643-1.521c1.499,2.383,4.113,2.925,6.301,4.082
		c3.351,2.428,5.742,5.75,10.885,5.268c4.532-0.713,6.891-4.066,7.953-4.789c1.467-1.194,6.416-3.499,7.496-6.284H92.621z"/>
	<path fill="none" stroke="#FFFFFF" stroke-width="0.225" stroke-miterlimit="3.864" d="M37.717,93.662
		c0,0,5.595-10.629,14.122-10.869"/>
</g>
</svg>
