<?xml version="1.0" encoding="utf-8"?>
<!-- Generator: Adobe Illustrator 19.1.0, SVG Export Plug-In . SVG Version: 6.00 Build 0)  -->
<svg version="1.1" id="Layer_1" xmlns="http://www.w3.org/2000/svg" xmlns:xlink="http://www.w3.org/1999/xlink" x="0px" y="0px"
	 viewBox="0 0 150 150" enable-background="new 0 0 150 150" xml:space="preserve">
<g>
	<g>
		<path d="M86.021,131.673c0.438,0.44,0.656,0.975,0.656,1.598c0,0.631-0.219,1.172-0.656,1.617
			c-0.44,0.439-0.975,0.665-1.601,0.665c-0.632,0-1.166-0.226-1.604-0.665c-0.436-0.446-0.656-0.986-0.656-1.617
			c0-0.623,0.22-1.158,0.659-1.598c0.442-0.444,0.978-0.67,1.601-0.67C85.043,131.003,85.577,131.229,86.021,131.673z
			 M86.281,131.413c-0.515-0.507-1.136-0.76-1.861-0.76c-0.727,0-1.343,0.253-1.856,0.76c-0.512,0.515-0.77,1.138-0.77,1.859
			c0,0.734,0.258,1.357,0.764,1.872c0.51,0.512,1.13,0.774,1.861,0.774c0.726,0,1.346-0.262,1.861-0.774
			c0.512-0.522,0.77-1.138,0.77-1.872C87.051,132.546,86.793,131.928,86.281,131.413z M84.81,133.148
			c-0.111,0.048-0.271,0.068-0.487,0.068h-0.456v-1.048h0.432c0.281,0,0.486,0.042,0.613,0.109c0.13,0.069,0.191,0.213,0.191,0.425
			C85.104,132.922,85.004,133.072,84.81,133.148z M83.356,134.712h0.511v-1.138h0.402c0.267,0,0.458,0.028,0.565,0.089
			c0.182,0.111,0.27,0.33,0.27,0.665v0.227l0.014,0.096c0,0.014,0.004,0.021,0.008,0.035c0,0.006,0.003,0.019,0.006,0.028h0.476
			l-0.017-0.035c-0.014-0.028-0.019-0.076-0.028-0.151c-0.003-0.075-0.006-0.151-0.006-0.219v-0.206
			c0-0.151-0.053-0.302-0.158-0.453c-0.108-0.15-0.271-0.246-0.499-0.28c0.179-0.028,0.32-0.076,0.418-0.144
			c0.19-0.116,0.285-0.31,0.285-0.571c0-0.363-0.151-0.602-0.449-0.726c-0.169-0.069-0.429-0.102-0.789-0.102h-1.011V134.712z"/>
		<polygon points="2.249,15.1 2.249,56.291 72.334,131.626 74.648,134.115 76.93,131.598 147.33,55.345 147.33,15.1 		"/>
		<polygon fill="none" stroke="#000000" stroke-width="1.5943" points="2.249,15.1 2.249,56.291 72.334,131.626 74.648,134.115 
			76.93,131.598 147.33,55.345 147.33,15.1 		"/>
		<polygon fill="#E2231A" points="144.441,54.632 74.62,129.502 5.239,54.899 35.9,49.854 65.188,49.854 74.531,43.006 
			84.176,49.854 113.329,49.854 		"/>
		<path fill="#7D868C" d="M144.441,54.632l-69.821,74.87L5.239,54.899L35.9,49.854h29.288l9.343-6.848l9.645,6.848h29.153
			L144.441,54.632z M113.066,52.974H81.65l-7.119-4.991l-7.118,4.991H36.205l-24.448,4.325l62.832,67.589l63.236-68.199
			L113.066,52.974z"/>
		<path d="M74.572,120.988c0,0,4.99-7.905,8.526-14.56c3.534-6.656,6.032-11.646,6.032-11.646l4.786-1.872l4.991,1.454l2.912-2.7
			l-0.832-3.537l3.328,0.623l27.564-29.929l-13.117-2.166L90.588,71.07l-2.498-1.872l-4.78,2.077l-2.08-3.949l25.376-11.023H79.354
			l-4.782-3.955h-0.042l-4.785,3.955H42.498l25.376,11.023l-2.08,3.949l-4.785-2.077l-2.496,1.872l-29.24-14.375l-12.273,2.269
			l27.783,29.785l3.328-0.623l-0.829,3.537l2.91,2.7l4.993-1.454l4.782,1.872c0,0,2.498,4.991,6.032,11.646
			c3.538,6.656,8.531,14.56,8.531,14.56H74.572z"/>
		<path fill="#C3C6C8" d="M74.572,118.706c0,0,4.954-7.884,7.485-14.978c3.123-8.741,3.537-14.56,3.537-14.56l2.081,2.7l6.446-1.659
			l3.329,0.83l1.665-1.453c0,0-1.457-4.998-4.575-9.364c-3.121-4.366-6.656-8.109-6.656-8.109l-6.032,3.119
			c0,0-1.248-2.707-2.498-4.99c-1.248-2.29-2.288-4.374-2.288-4.374l19.346-7.39H79.98l-1.25,1.981l-4.157-3.983h-0.042
			l-4.161,3.983l-1.248-1.981H52.688l19.345,7.39c0,0-1.039,2.084-2.286,4.374c-1.248,2.282-2.496,4.99-2.496,4.99l-6.032-3.119
			c0,0-3.537,3.743-6.655,8.109c-3.122,4.366-4.576,9.364-4.576,9.364l1.662,1.453l3.328-0.83l6.446,1.659l2.081-2.7
			c0,0,0.418,5.819,3.537,14.56c2.533,7.094,7.488,14.978,7.488,14.978H74.572z"/>
		<path d="M73.92,94.72c-2.364-0.269-3.9-2.016-4.657-3.155l-0.494,2.133c0.322,0.837,1.995,4.743,5.151,5.196V94.72z"/>
		<path d="M80.019,92.019c-1.05,1.097-2.746,2.461-4.85,2.693v4.175c2.559-0.378,4.515-2.914,5.435-4.352L80.019,92.019z"/>
		<path fill="#7D868C" d="M78.897,74.607l2.365,3.544l8.188-4.305c-0.946-1.076-1.566-1.734-1.566-1.734l-6.032,3.119
			c0,0-1.248-2.707-2.498-4.99c-1.248-2.29-2.288-4.374-2.288-4.374l1.663-5.415l-4.157-3.976h-0.042v24.205L78.897,74.607z"/>
		<path fill="#7D868C" d="M98.204,87.049l-1.624,1.496l-3.123-1.043l-5.822,1.461l-3.538-4.581l-0.414,5.204l-2.705-1.041
			l1.248,5.614c0,0-1.248,2.494-2.914,4.365c-1.136,1.282-3.437,2.174-4.782,2.606v17.576h0.042c0,0,4.954-7.884,7.485-14.978
			c3.123-8.741,3.537-14.56,3.537-14.56l2.081,2.7l6.446-1.659l3.329,0.83l1.665-1.453C99.115,89.586,98.818,88.563,98.204,87.049z"
			/>
		<path d="M74.531,117.245c0,0,1.403-2.131,1.766-2.804c0.366-0.679,0.626-1.199,0.626-1.199s-0.3-0.253-1.195-0.465
			c-0.885-0.206-1.251-0.158-1.251-0.158L74.531,117.245z"/>
		<path d="M78.925,113.399c0,0-1.274-1.548-4.394-1.548c-3.122,0-3.952,1.446-3.952,1.446l-0.833-1.666c0,0,1.872-1.666,4.785-1.666
			c3.12,0,4.782,2.084,4.782,2.084L78.925,113.399z"/>
		<path fill="#C3C6C8" d="M49.233,84.8l-2.784,0.625L21.488,60.047l7.904-1.343l28.075,14.018c-1.316,1.502-3.215,3.777-4.984,6.252
			C51.056,80.969,49.983,83.087,49.233,84.8z"/>
		<path fill="#C3C6C8" d="M99.87,84.8l2.782,0.625l24.963-25.377l-8.247-1.296l-27.731,13.97c1.316,1.502,3.216,3.777,4.983,6.252
			C98.046,80.969,99.12,83.087,99.87,84.8z"/>
		<path fill="#7D868C" d="M24.885,59.458l28.139,18.769c1.608-2.18,3.259-4.154,4.442-5.505L29.391,58.704L24.885,59.458z"/>
		<path d="M53.023,78.227c0.552-0.748,1.107-1.474,1.652-2.152L28.068,61.59L53.023,78.227z"/>
		<path d="M96.076,78.227c-0.553-0.748-1.107-1.474-1.649-2.152l26.605-14.485L96.076,78.227z"/>
		<path fill="#7D868C" d="M96.076,78.227c0.184,0.246,0.367,0.493,0.544,0.746c0.292,0.404,0.562,0.816,0.827,1.234l23.585-18.618
			L96.076,78.227z"/>
		<polygon fill="#C3C6C8" points="74.531,47.983 74.531,43.006 65.194,49.84 67.47,52.802 		"/>
		<polygon fill="#C3C6C8" points="113.066,52.974 113.122,52.987 113.122,49.854 83.871,49.854 83.823,49.731 81.516,52.61 
			81.65,52.974 		"/>
		<polygon fill="#C3C6C8" points="74.531,124.827 11.757,57.298 35.9,53.042 35.9,49.854 5.239,54.899 74.531,129.405 		"/>
		<polygon fill="#E2231A" points="5.739,18.733 5.739,50.197 17.998,48.1 17.998,43.753 10.245,44.734 10.245,34.143 17.224,34.143 
			17.224,29.379 10.245,29.379 10.245,23.498 18.156,23.498 18.156,18.733 		"/>
		<polygon fill="#E2231A" points="23.043,18.733 23.043,29.804 31.89,37.501 31.89,41.368 27.078,42.492 27.078,39.188 
			22.89,35.685 22.89,47.256 36.082,45.152 36.082,34.986 27.078,27.562 27.078,23.498 31.89,23.498 31.89,26.582 35.924,29.941 
			35.924,18.733 		"/>
		<polygon fill="#E2231A" points="41.048,18.733 41.048,29.941 48.962,36.802 48.962,41.718 44.771,41.676 44.771,38.907 
			41.048,35.541 41.048,45.358 52.842,45.358 52.842,34.28 44.928,27.418 44.928,23.498 48.962,23.498 48.962,25.876 52.997,29.242 
			52.997,18.733 		"/>
		<polygon fill="#E2231A" points="62.624,34.005 69.911,34.005 69.911,29.242 62.624,29.242 62.624,23.36 70.377,23.36 
			70.377,18.733 58.131,18.733 58.131,45.289 64.513,45.289 70.812,40.586 62.624,40.593 		"/>
		<polygon fill="#E2231A" points="75.042,38.976 75.042,18.596 78.922,18.596 84.94,33.3 84.94,18.733 88.978,18.733 88.978,45.351 
			83.699,45.351 78.764,30.359 78.764,41.47 		"/>
		<polygon fill="#E2231A" points="130.116,47.75 130.116,18.596 134.302,18.596 139.893,35.802 139.893,18.733 143.926,18.733 
			143.926,49.875 138.96,49.114 134.149,30.359 134.149,48.305 		"/>
		<path fill="#E2231A" d="M93.775,45.207V18.733h14.433c0,0,0.158,5.744-1.241,12.887c-1.559,7.986-4.341,13.586-4.341,13.586
			H93.775z M98.273,23.498v16.945h1.713c0,0,2.173-6.3,2.793-10.638c0.62-4.346,0.465-6.306,0.465-6.306H98.273z"/>
		<path fill="#E2231A" d="M113.608,45.302c0,0-2.575-5.977-2.575-13.401c0-7.424,2.64-13.168,2.64-13.168h10.083
			c0,0,2.639,6.581,2.639,14.005c0,7.423-3.098,14.1-3.098,14.1L113.608,45.302z M120.143,41.347c0,0,1.591-4.394,1.591-9.144
			c0-4.751-1.689-8.706-1.689-8.706h-2.66c0,0-1.69,3.681-1.69,8.432c0,4.75,1.59,9.021,1.59,9.021L120.143,41.347z"/>
	</g>
</g>
</svg>
