<?xml version="1.0" encoding="utf-8"?>
<!-- Generator: Adobe Illustrator 19.1.0, SVG Export Plug-In . SVG Version: 6.00 Build 0)  -->
<svg version="1.1" id="Layer_1" xmlns="http://www.w3.org/2000/svg" xmlns:xlink="http://www.w3.org/1999/xlink" x="0px" y="0px"
	 viewBox="0 0 150 150" enable-background="new 0 0 150 150" xml:space="preserve">
<g>
	<g>
		<defs>
			<polyline id="SVGID_1_" points="1.563,7.943 148.245,7.943 148.245,143.61 1.563,143.61 1.563,7.943 			"/>
		</defs>
		<clipPath id="SVGID_2_">
			<use xlink:href="#SVGID_1_"  overflow="visible"/>
		</clipPath>
		<path clip-path="url(#SVGID_2_)" fill="#E2231A" d="M74.332,19.236c7.283-0.05,34.584,0.029,36.16,0.029
			c0,12.367,0.029,41.785,0.029,41.785c-0.071,4.25-0.902,8.428-2.345,12.23c-0.198,0.505-0.394,1.031-0.609,1.523
			c-0.216,0.455-0.414,0.946-0.653,1.414c-0.079,0.13-0.093,0.289-0.213,0.413c-0.192,0.426-0.433,0.866-0.656,1.291
			c-1.735,3.151-3.937,6.047-6.516,8.557c-0.396,0.448-0.92,0.816-1.372,1.277c-0.057-0.02-0.098,0.058-0.108,0.079
			c-0.372,0.356-0.838,0.65-1.235,0.975c-2.831,2.243-6.032,4.178-9.484,5.513c-0.122,0.028-0.198,0.079-0.321,0.108
			c-3.93,1.407-8.256,2.331-12.761,2.316c-1.144,0-2.534-0.087-3.713-0.173c-4.917-0.526-9.492-1.94-13.63-4.185h-0.075
			c-3.799-2.064-7.504-4.942-10.246-8.189c-0.646-0.679-1.082-1.335-1.679-2.057c-1.501-2.057-2.828-4.185-3.882-6.457
			c-0.173-0.521-0.443-0.981-0.639-1.509c-1.213-3.03-2.125-6.313-2.435-9.697c-0.31-2.576-0.181-5.484-0.169-8.103
			c0,0-0.008-32.239,0.017-37.218c0,0,34.285,0.007,36.533,0.007"/>
		<path clip-path="url(#SVGID_2_)" fill="#00833E" d="M74.332,19.163c-2.248,0-36.533-0.007-36.533-0.007
			c-0.026,4.979-0.017,37.218-0.017,37.218c-0.012,2.619-0.141,5.528,0.169,8.103c0.31,3.384,1.222,6.667,2.435,9.697
			c0.195,0.528,0.466,0.988,0.639,1.509c1.054,2.272,2.381,4.401,3.882,6.457c0.596,0.722,1.032,1.378,1.679,2.057
			c2.742,3.248,6.447,6.125,10.246,8.189h0.075c4.138,2.245,8.713,3.659,13.63,4.185c1.179,0.086,2.569,0.173,3.713,0.173
			L74.332,19.163z"/>
		<path clip-path="url(#SVGID_2_)" fill="#FFFFFF" d="M81.057,32.086h8.965c0.076-0.043,0.146,0.022,0.23-0.014
			c1.465,0.036,3.047-0.072,4.539,0.029c1.44,0.202,2.77,0.765,3.82,1.71c0.714,0.563,1.372,1.205,1.827,1.977
			c-0.015,0.137,0.14,0.173,0.137,0.289c0.067,0.093,0.108,0.245,0.184,0.317c0.65,1.595,0.531,3.485,0.519,5.26
			c0.12,1.732,0.802,3.226,1.14,4.871c0.452,2.215,1.014,4.596,0.714,6.912c-0.49,3.11-0.985,6.285-0.927,9.517
			c-0.083,0.534-0.465,0.902-0.732,1.321c-0.784,1.025-1.815,1.717-2.908,2.316c-0.22,0.144-0.413,0.281-0.653,0.383
			c-0.213,0.187-0.484,0.238-0.719,0.382c-0.191,0.137,0.036,0.296,0.061,0.44c0.383,0.996,0.741,2.064,1.13,3.045
			c-0.01,0.224-0.274,0.289-0.367,0.483c-0.293,0.253-0.64,0.664-0.929,0.96c-0.154,2.056-0.697,4.091-1.767,5.788
			c-0.618,1.096-1.455,2.041-2.36,2.877c0.019,0.051-0.025,0.066-0.061,0.066c-1.054,0.988-2.219,1.66-3.517,2.238
			c-2.694,1.189-5.506,2.041-8.268,3.029c-0.095-0.029-1.765,0.7-2.526,1.047c-1.577,0.808-3.031,1.783-4.052,3.262
			c-0.072,0.122-0.155,0.318-0.21,0.404c-0.404-0.8-1.06-1.487-1.771-2.007c-0.177-0.194-0.494-0.353-0.729-0.51
			c-2.854-1.863-6.321-2.743-9.503-4.006c-1.208-0.433-2.424-0.91-3.56-1.45c-1.415-0.628-2.609-1.48-3.702-2.59
			c-1.23-1.284-2.211-2.893-2.817-4.625c-0.069-0.331-0.228-0.649-0.275-1.003c-0.209-0.736-0.274-1.544-0.378-2.302
			c-0.556-0.534-1.111-0.888-1.616-1.45c0.053-0.13,0.053-0.318,0.155-0.455c0.368-1.061,0.79-2.071,1.111-3.138
			c-1.13-0.116-2.208-0.433-3.214-0.895c-0.029-0.093-0.149-0.108-0.214-0.18c-0.606-0.455-1.05-1.133-1.551-1.711
			c-0.152-1.81-0.372-3.608-0.931-5.238c-0.415-1.854-0.854-3.737-0.974-5.678c-0.022-1.552,0.343-2.973,0.685-4.401
			c0.455-1.393,0.445-3.103,0.166-4.582c-0.154-1.566-0.35-3.175,0.184-4.625c0.195-0.671,0.617-1.24,0.975-1.847
			c1.251-1.768,2.626-3.218,4.231-4.748c1.126-0.953,2.667-1.429,4.251-1.4l0.076-0.036l10.964-0.015
			c0.353-1.905,0.642-3.846,0.927-5.787c-0.653-1.01-0.851-2.374-0.592-3.68c0.05-0.462,0.144-0.88,0.151-1.371
			c-0.209-0.094-0.505-0.209-0.563-0.44c-0.112-0.094-0.159-0.259-0.198-0.396c-0.115-0.96-0.184-1.955,0-2.908
			c0.159-0.383,0.433-0.679,0.823-0.837c0.346-1.487,0.415-3.089,1.173-4.388c0.869-1.378,2.194-2.482,3.853-2.698
			c2.186-0.072,4.185-0.058,6.424-0.015c1.618,0.166,3.118,0.931,3.944,2.302c0.834,1.234,0.844,2.995,0.883,4.51
			c0.784,0.454,0.367,1.536,0.502,2.294c0.032,0.635-0.162,1.262-0.656,1.602c-0.115,1.01,0.035,1.941-0.014,2.937
			c-0.195,0.981-0.574,1.891-0.822,2.836c-0.271,1.031-0.271,2.193-0.885,3.074c-0.24,1.205-0.076,2.829-1.399,3.334"/>
		<path clip-path="url(#SVGID_2_)" fill="none" stroke="#FFFFFF" stroke-width="1.0395" stroke-miterlimit="3.8636" d="
			M81.057,32.086h8.965c0.076-0.043,0.146,0.022,0.23-0.014c1.465,0.036,3.047-0.072,4.539,0.029c1.44,0.202,2.77,0.765,3.82,1.71
			c0.714,0.563,1.372,1.205,1.827,1.977c-0.015,0.137,0.14,0.173,0.137,0.289c0.067,0.093,0.108,0.245,0.184,0.317
			c0.65,1.595,0.531,3.485,0.519,5.26c0.12,1.732,0.802,3.226,1.14,4.871c0.452,2.215,1.014,4.596,0.714,6.912
			c-0.49,3.11-0.985,6.285-0.927,9.517c-0.083,0.534-0.465,0.902-0.732,1.321c-0.784,1.025-1.815,1.717-2.908,2.316
			c-0.22,0.144-0.413,0.281-0.653,0.383c-0.213,0.187-0.484,0.238-0.719,0.382c-0.191,0.137,0.036,0.296,0.061,0.44
			c0.383,0.996,0.741,2.064,1.13,3.045c-0.01,0.224-0.274,0.289-0.367,0.483c-0.293,0.253-0.64,0.664-0.929,0.96
			c-0.154,2.056-0.697,4.091-1.767,5.788c-0.618,1.096-1.455,2.041-2.36,2.877c0.019,0.051-0.025,0.066-0.061,0.066
			c-1.054,0.988-2.219,1.66-3.517,2.238c-2.694,1.189-5.506,2.041-8.268,3.029c-0.095-0.029-1.765,0.7-2.526,1.047
			c-1.577,0.808-3.031,1.783-4.052,3.262c-0.072,0.122-0.155,0.318-0.21,0.404c-0.404-0.8-1.06-1.487-1.771-2.007
			c-0.177-0.194-0.494-0.353-0.729-0.51c-2.854-1.863-6.321-2.743-9.503-4.006c-1.208-0.433-2.424-0.91-3.56-1.45
			c-1.415-0.628-2.609-1.48-3.702-2.59c-1.23-1.284-2.211-2.893-2.817-4.625c-0.069-0.331-0.228-0.649-0.275-1.003
			c-0.209-0.736-0.274-1.544-0.378-2.302c-0.556-0.534-1.111-0.888-1.616-1.45c0.053-0.13,0.053-0.318,0.155-0.455
			c0.368-1.061,0.79-2.071,1.111-3.138c-1.13-0.116-2.208-0.433-3.214-0.895c-0.029-0.093-0.149-0.108-0.214-0.18
			c-0.606-0.455-1.05-1.133-1.551-1.711c-0.152-1.81-0.372-3.608-0.931-5.238c-0.415-1.854-0.854-3.737-0.974-5.678
			c-0.022-1.552,0.343-2.973,0.685-4.401c0.455-1.393,0.445-3.103,0.166-4.582c-0.154-1.566-0.35-3.175,0.184-4.625
			c0.195-0.671,0.617-1.24,0.975-1.847c1.251-1.768,2.626-3.218,4.231-4.748c1.126-0.953,2.667-1.429,4.251-1.4l0.076-0.036
			l10.964-0.015c0.353-1.905,0.642-3.846,0.927-5.787c-0.653-1.01-0.851-2.374-0.592-3.68c0.05-0.462,0.144-0.88,0.151-1.371
			c-0.209-0.094-0.505-0.209-0.563-0.44c-0.112-0.094-0.159-0.259-0.198-0.396c-0.115-0.96-0.184-1.955,0-2.908
			c0.159-0.383,0.433-0.679,0.823-0.837c0.346-1.487,0.415-3.089,1.173-4.388c0.869-1.378,2.194-2.482,3.853-2.698
			c2.186-0.072,4.185-0.058,6.424-0.015c1.618,0.166,3.118,0.931,3.944,2.302c0.834,1.234,0.844,2.995,0.883,4.51
			c0.784,0.454,0.367,1.536,0.502,2.294c0.032,0.635-0.162,1.262-0.656,1.602c-0.115,1.01,0.035,1.941-0.014,2.937
			c-0.195,0.981-0.574,1.891-0.822,2.836c-0.271,1.031-0.271,2.193-0.885,3.074c-0.24,1.205-0.076,2.829-1.399,3.334"/>
		<polygon clip-path="url(#SVGID_2_)" fill="#532D6D" points="1.747,108.089 17.549,105.656 17.549,112.071 7.631,113.637 
			7.631,120.599 14.168,120.599 14.168,126.66 7.631,126.66 7.631,143.292 1.747,143.292 		"/>
		<path clip-path="url(#SVGID_2_)" fill="#532D6D" d="M24.324,109.494l2.627-0.194c1.407,0,1.981,1.226,1.981,2.678
			c0,1.485-0.945,2.3-2.251,2.3h-2.356V109.494z M19.731,131.619h4.593v-12.968h2.064l2.251,12.968h5.109l-3.005-14.122
			c1.789-1.003,3.048-2.915,3.048-5.765c0-2.966-1.046-7.035-6.393-7.035l-7.667,0.692V131.619z"/>
		<polygon clip-path="url(#SVGID_2_)" fill="#532D6D" points="36.136,103.701 48.269,102.885 48.269,107.619 40.729,108.434 
			40.729,115.427 45.531,115.427 45.531,120.159 40.729,120.159 40.729,126.703 48.464,126.703 48.464,131.619 36.136,131.619 		"/>
		<polygon clip-path="url(#SVGID_2_)" fill="#532D6D" points="50.554,102.821 57.12,102.496 59.771,113.796 59.81,113.796 
			62.383,102.337 68.797,102.222 68.815,131.77 64.223,131.77 64.223,109.547 64.179,109.547 60.597,131.77 57.862,131.77 
			54.129,109.547 54.085,109.547 54.085,131.77 50.554,131.77 		"/>
		<path clip-path="url(#SVGID_2_)" fill="#532D6D" d="M78.081,109.141h0.044l1.259,7.526H76.67L78.081,109.141z M70.619,131.596
			h3.636l1.746-10.195l4.121-0.073l1.612,10.268h4.784l-5.513-29.352l-4.777-0.044L70.619,131.596z"/>
		<polygon clip-path="url(#SVGID_2_)" fill="#532D6D" points="88.325,102.547 92.593,102.547 98.302,120.838 98.341,120.838 
			98.345,102.806 101.873,102.95 101.873,131.619 98.427,131.619 91.92,114.077 91.876,118.616 91.876,131.619 88.344,131.619 		"/>
		<polygon clip-path="url(#SVGID_2_)" fill="#532D6D" points="108.161,107.886 103.742,107.669 103.742,103.117 117.167,104.171 
			117.167,108.723 112.747,108.325 112.747,131.619 108.154,131.619 		"/>
		<polygon clip-path="url(#SVGID_2_)" fill="#532D6D" points="118.816,104.328 123.409,104.805 123.409,126.703 130.126,126.703 
			130.126,131.619 118.816,131.619 		"/>
		<polygon clip-path="url(#SVGID_2_)" fill="#532D6D" points="132.172,105.829 147.675,108.217 147.675,114.632 138.056,113.456 
			138.056,122.771 144.214,122.771 144.214,128.826 138.056,128.826 138.056,136.619 147.974,136.619 147.974,143.292 
			132.172,143.292 		"/>
		<path clip-path="url(#SVGID_2_)" fill="#E2231A" d="M129.556,133.904c0,9.128,0.004,0.354,0.004,9.482
			c-56.441,0-118.498,0.022-118.498,0.022c0-9.15,0-0.303,0-9.504H129.556z"/>
		<path clip-path="url(#SVGID_2_)" fill="none" stroke="#EA2D30" stroke-width="0" stroke-miterlimit="3.8636" d="M129.556,133.904
			c0,9.128,0.004,0.354,0.004,9.482c-56.441,0-118.498,0.022-118.498,0.022c0-9.15,0-0.303,0-9.504H129.556z"/>
		<path clip-path="url(#SVGID_2_)" fill="#532D6D" d="M77.888,9.581c1.618,0.166,3.118,0.931,3.944,2.302
			c0.834,1.234,0.844,2.995,0.883,4.51c0.784,0.454,0.367,1.536,0.502,2.294c0.032,0.635-0.162,1.262-0.656,1.602
			c-0.115,1.01,0.035,1.941-0.014,2.937c-0.195,0.981-0.574,1.891-0.822,2.836c-0.271,1.031-0.271,2.193-0.885,3.074
			c-0.24,1.205-0.076,2.829-1.399,3.334c-0.931,0.289-1.92,0.159-2.908,0.165c-0.488-0.05-0.941-0.245-1.324-0.469
			c-0.959-0.476-1.858-1.061-2.846-1.493c-0.96,0.382-1.821,0.88-2.727,1.327c-0.57,0.274-1.108,0.599-1.66,0.838
			c-0.025-0.512,0.18-0.96,0.198-1.465c0.267-1.797,0.624-3.572,0.869-5.361l0.043-0.028c0.148,0.122,0.018,0.389,0.17,0.533
			c0.231,1.047,1.161,1.898,2.128,2.266c1.538,0.743,2.941,1.609,4.434,2.453c0.588,0.108,1.248,0.238,1.857,0.123
			c0.412-0.426,0.487-1.018,0.762-1.537c0.051-0.295-0.124-0.534-0.321-0.7c-0.191-0.187-0.459-0.187-0.657-0.353
			c0.812-0.346,1.761-0.18,2.638-0.058c0.19-0.087,0.251-0.267,0.392-0.411c0.034-0.138,0.015-0.303-0.029-0.412
			c-0.086-0.144-0.232-0.209-0.382-0.245c-0.563,0.332-1.259-0.079-1.826,0.079c-0.424-0.007-0.799,0.202-1.233,0.086l-0.047,0.029
			c-0.207-0.109-0.555,0-0.639-0.274c-0.035-0.116,0.14-0.094,0.213-0.072c0.653,0.101,1.294-0.087,1.872-0.289
			c0.249-0.051,0.415-0.202,0.671-0.231c0.044-0.246,0.038-0.52,0.124-0.743l-0.076-0.079c-0.303,0.051-0.66-0.043-0.931,0.079
			c-0.198-0.007-0.36-0.159-0.472-0.324c-0.076-0.144,0.098-0.224,0.123-0.346c0.303-0.303,0.391,0.166,0.656,0.209
			c0.445-0.037,1.009-0.144,1.416,0.093c0.198-0.252,0.701-0.31,0.686-0.714c-0.109-0.346-0.203-0.714-0.337-1.039
			c-0.249-0.902-0.375-1.862-0.577-2.786c-0.147-0.13-0.293-0.245-0.533-0.194c-0.761,0.39-0.267,1.508-0.366,2.194
			c-0.074,0.209-0.382,0.216-0.548,0.332c-0.746,0.455-1.42,1.017-1.918,1.66c-0.31,0.346-0.541,0.772-0.837,1.14
			c0.055-1.321-0.01-2.641-0.227-3.911c-0.091-0.606-0.538-1.082-1.069-1.291c-0.361-0.036-0.725-0.036-1.035,0.152v-0.065
			c0.367-0.339,0.696-0.642,1.111-0.895l0.245-0.043c0.852,0.029,1.594-0.072,2.42,0.029l0.09-0.029
			c0.338-0.368,0.743-0.7,1.068-1.068c-2.313-0.044-4.275-0.116-6.624-0.065c-0.614,0.541-1.004,1.147-1.343,1.847
			c-0.033,1.681-0.141,3.507,0.444,4.993l-0.047,0.058c-0.422-0.577-0.696-1.262-1.035-1.919c-0.408-0.815-0.4-1.826-0.534-2.735
			c-0.115-0.26-0.451-0.26-0.714-0.296c-0.267,0.021-0.581-0.072-0.747,0.202c-0.217,0.642-0.252,1.378-0.379,2.071
			c-0.144,0.729,0.119,1.407,0.455,1.977l0.062,0.05c0.173-0.036,0.289-0.202,0.472-0.202c-0.437,2.555-0.833,5.166-1.248,7.75
			c-0.017,0.151-0.007,0.317-0.108,0.426c-0.516,0.058-1.021,0.072-1.566,0.108c-0.141,0.065,0.012,0.152-0.017,0.246
			c0.454,1.963,0.909,3.932,1.446,5.845l0.061,0.05c1.379-0.022,2.612-0.022,3.962-0.065c-0.484-1.097-0.49-2.699,0.119-3.73
			c0.794-1.552,2.508-2.555,4.355-2.316c1.613,0.202,3.034,1.32,3.536,2.792c0.392,1.018,0.252,2.294-0.139,3.254
			c0.809,0.05,1.52,0.036,2.376,0.015c0.172-0.498,0.277-0.982,0.382-1.508c0.147-0.577,0.252-1.176,0.379-1.761
			c0.076-0.087,0.071-0.238,0.09-0.339c0.165-0.714,0.289-1.393,0.429-2.114c-0.192-0.527-0.548-1.018-0.883-1.493
			c-0.058-0.144-0.217-0.224-0.227-0.383h8.965c0.076-0.043,0.146,0.022,0.23-0.014c1.465,0.036,3.047-0.072,4.539,0.029
			c1.44,0.202,2.77,0.765,3.82,1.71c0.714,0.563,1.372,1.205,1.827,1.977c-0.015,0.137,0.14,0.173,0.137,0.289
			c0.067,0.093,0.108,0.245,0.184,0.317c0.65,1.595,0.531,3.485,0.519,5.26c0.12,1.732,0.802,3.226,1.14,4.871
			c0.452,2.215,1.014,4.596,0.714,6.912c-0.49,3.11-0.985,6.285-0.927,9.517c-0.083,0.534-0.465,0.902-0.732,1.321
			c-0.784,1.025-1.815,1.717-2.908,2.316c-0.22,0.144-0.413,0.281-0.653,0.383c-0.213,0.187-0.484,0.238-0.719,0.382
			c-0.191,0.137,0.036,0.296,0.061,0.44c0.383,0.996,0.741,2.064,1.13,3.045c-0.01,0.224-0.274,0.289-0.367,0.483
			c-0.293,0.253-0.64,0.664-0.929,0.96c-0.154,2.056-0.697,4.091-1.767,5.788c-0.618,1.096-1.455,2.041-2.36,2.877
			c0.019,0.051-0.025,0.066-0.061,0.066c-1.054,0.988-2.219,1.66-3.517,2.238c-2.694,1.189-5.506,2.041-8.268,3.029
			c-0.095-0.029-1.765,0.7-2.526,1.047c-1.577,0.808-3.031,1.783-4.052,3.262c-0.072,0.122-0.155,0.318-0.21,0.404
			c-0.404-0.8-1.06-1.487-1.771-2.007c-0.177-0.194-0.494-0.353-0.729-0.51c-2.854-1.863-6.321-2.743-9.503-4.006
			c-1.208-0.433-2.424-0.91-3.56-1.45c-1.415-0.628-2.609-1.48-3.702-2.59c-1.23-1.284-2.211-2.893-2.817-4.625
			c-0.069-0.331-0.228-0.649-0.275-1.003c-0.209-0.736-0.274-1.544-0.378-2.302c-0.556-0.534-1.111-0.888-1.616-1.45
			c0.053-0.13,0.053-0.318,0.155-0.455c0.368-1.061,0.79-2.071,1.111-3.138c-1.13-0.116-2.208-0.433-3.214-0.895
			c-0.029-0.093-0.149-0.108-0.214-0.18c-0.606-0.455-1.05-1.133-1.551-1.711c-0.152-1.81-0.372-3.608-0.931-5.238
			c-0.415-1.854-0.854-3.737-0.974-5.678c-0.022-1.552,0.343-2.973,0.685-4.401c0.455-1.393,0.445-3.103,0.166-4.582
			c-0.154-1.566-0.35-3.175,0.184-4.625c0.195-0.671,0.617-1.24,0.975-1.847c1.251-1.768,2.626-3.218,4.231-4.748
			c1.126-0.953,2.667-1.429,4.251-1.4l0.076-0.036l10.964-0.015c0.353-1.905,0.642-3.846,0.927-5.787
			c-0.653-1.01-0.851-2.374-0.592-3.68c0.05-0.462,0.144-0.88,0.151-1.371c-0.209-0.094-0.505-0.209-0.563-0.44
			c-0.112-0.094-0.159-0.259-0.198-0.396c-0.115-0.96-0.184-1.955,0-2.908c0.159-0.383,0.433-0.679,0.823-0.837
			c0.346-1.487,0.415-3.089,1.173-4.388c0.869-1.378,2.194-2.482,3.853-2.698C73.65,9.524,75.649,9.538,77.888,9.581z"/>
		<path clip-path="url(#SVGID_2_)" fill="none" d="M77.888,9.581c1.618,0.166,3.118,0.931,3.944,2.302
			c0.834,1.234,0.844,2.995,0.883,4.51c0.784,0.454,0.367,1.536,0.502,2.294c0.032,0.635-0.162,1.262-0.656,1.602
			c-0.115,1.01,0.035,1.941-0.014,2.937c-0.195,0.981-0.574,1.891-0.822,2.836c-0.271,1.031-0.271,2.193-0.885,3.074
			c-0.24,1.205-0.076,2.829-1.399,3.334c-0.931,0.289-1.92,0.159-2.908,0.165c-0.488-0.05-0.941-0.245-1.324-0.469
			c-0.959-0.476-1.858-1.061-2.846-1.493c-0.96,0.382-1.821,0.88-2.727,1.327c-0.57,0.274-1.108,0.599-1.66,0.838
			c-0.025-0.512,0.18-0.96,0.198-1.465c0.267-1.797,0.624-3.572,0.869-5.361l0.043-0.028c0.148,0.122,0.018,0.389,0.17,0.533
			c0.231,1.047,1.161,1.898,2.128,2.266c1.538,0.743,2.941,1.609,4.434,2.453c0.588,0.108,1.248,0.238,1.857,0.123
			c0.412-0.426,0.487-1.018,0.762-1.537c0.051-0.295-0.124-0.534-0.321-0.7c-0.191-0.187-0.459-0.187-0.657-0.353
			c0.812-0.346,1.761-0.18,2.638-0.058c0.19-0.087,0.251-0.267,0.392-0.411c0.034-0.138,0.015-0.303-0.029-0.412
			c-0.086-0.144-0.232-0.209-0.382-0.245c-0.563,0.332-1.259-0.079-1.826,0.079c-0.424-0.007-0.799,0.202-1.233,0.086l-0.047,0.029
			c-0.207-0.109-0.555,0-0.639-0.274c-0.035-0.116,0.14-0.094,0.213-0.072c0.653,0.101,1.294-0.087,1.872-0.289
			c0.249-0.051,0.415-0.202,0.671-0.231c0.044-0.246,0.038-0.52,0.124-0.743l-0.076-0.079c-0.303,0.051-0.66-0.043-0.931,0.079
			c-0.198-0.007-0.36-0.159-0.472-0.324c-0.076-0.144,0.098-0.224,0.123-0.346c0.303-0.303,0.391,0.166,0.656,0.209
			c0.445-0.037,1.009-0.144,1.416,0.093c0.198-0.252,0.701-0.31,0.686-0.714c-0.109-0.346-0.203-0.714-0.337-1.039
			c-0.249-0.902-0.375-1.862-0.577-2.786c-0.147-0.13-0.293-0.245-0.533-0.194c-0.761,0.39-0.267,1.508-0.366,2.194
			c-0.074,0.209-0.382,0.216-0.548,0.332c-0.746,0.455-1.42,1.017-1.918,1.66c-0.31,0.346-0.541,0.772-0.837,1.14
			c0.055-1.321-0.01-2.641-0.227-3.911c-0.091-0.606-0.538-1.082-1.069-1.291c-0.361-0.036-0.725-0.036-1.035,0.152v-0.065
			c0.367-0.339,0.696-0.642,1.111-0.895l0.245-0.043c0.852,0.029,1.594-0.072,2.42,0.029l0.09-0.029
			c0.338-0.368,0.743-0.7,1.068-1.068c-2.313-0.044-4.275-0.116-6.624-0.065c-0.614,0.541-1.004,1.147-1.343,1.847
			c-0.033,1.681-0.141,3.507,0.444,4.993l-0.047,0.058c-0.422-0.577-0.696-1.262-1.035-1.919c-0.408-0.815-0.4-1.826-0.534-2.735
			c-0.115-0.26-0.451-0.26-0.714-0.296c-0.267,0.021-0.581-0.072-0.747,0.202c-0.217,0.642-0.252,1.378-0.379,2.071
			c-0.144,0.729,0.119,1.407,0.455,1.977l0.062,0.05c0.173-0.036,0.289-0.202,0.472-0.202c-0.437,2.555-0.833,5.166-1.248,7.75
			c-0.017,0.151-0.007,0.317-0.108,0.426c-0.516,0.058-1.021,0.072-1.566,0.108c-0.141,0.065,0.012,0.152-0.017,0.246
			c0.454,1.963,0.909,3.932,1.446,5.845l0.061,0.05c1.379-0.022,2.612-0.022,3.962-0.065c-0.484-1.097-0.49-2.699,0.119-3.73
			c0.794-1.552,2.508-2.555,4.355-2.316c1.613,0.202,3.034,1.32,3.536,2.792c0.392,1.018,0.252,2.294-0.139,3.254
			c0.809,0.05,1.52,0.036,2.376,0.015c0.172-0.498,0.277-0.982,0.382-1.508c0.147-0.577,0.252-1.176,0.379-1.761
			c0.076-0.087,0.071-0.238,0.09-0.339c0.165-0.714,0.289-1.393,0.429-2.114c-0.192-0.527-0.548-1.018-0.883-1.493
			c-0.058-0.144-0.217-0.224-0.227-0.383h8.965c0.076-0.043,0.146,0.022,0.23-0.014c1.465,0.036,3.047-0.072,4.539,0.029
			c1.44,0.202,2.77,0.765,3.82,1.71c0.714,0.563,1.372,1.205,1.827,1.977c-0.015,0.137,0.14,0.173,0.137,0.289
			c0.067,0.093,0.108,0.245,0.184,0.317c0.65,1.595,0.531,3.485,0.519,5.26c0.12,1.732,0.802,3.226,1.14,4.871
			c0.452,2.215,1.014,4.596,0.714,6.912c-0.49,3.11-0.985,6.285-0.927,9.517c-0.083,0.534-0.465,0.902-0.732,1.321
			c-0.784,1.025-1.815,1.717-2.908,2.316c-0.22,0.144-0.413,0.281-0.653,0.383c-0.213,0.187-0.484,0.238-0.719,0.382
			c-0.191,0.137,0.036,0.296,0.061,0.44c0.383,0.996,0.741,2.064,1.13,3.045c-0.01,0.224-0.274,0.289-0.367,0.483
			c-0.293,0.253-0.64,0.664-0.929,0.96c-0.154,2.056-0.697,4.091-1.767,5.788c-0.618,1.096-1.455,2.041-2.36,2.877
			c0.019,0.051-0.025,0.066-0.061,0.066c-1.054,0.988-2.219,1.66-3.517,2.238c-2.694,1.189-5.506,2.041-8.268,3.029
			c-0.095-0.029-1.765,0.7-2.526,1.047c-1.577,0.808-3.031,1.783-4.052,3.262c-0.072,0.122-0.155,0.318-0.21,0.404
			c-0.404-0.8-1.06-1.487-1.771-2.007c-0.177-0.194-0.494-0.353-0.729-0.51c-2.854-1.863-6.321-2.743-9.503-4.006
			c-1.208-0.433-2.424-0.91-3.56-1.45c-1.415-0.628-2.609-1.48-3.702-2.59c-1.23-1.284-2.211-2.893-2.817-4.625
			c-0.069-0.331-0.228-0.649-0.275-1.003c-0.209-0.736-0.274-1.544-0.378-2.302c-0.556-0.534-1.111-0.888-1.616-1.45
			c0.053-0.13,0.053-0.318,0.155-0.455c0.368-1.061,0.79-2.071,1.111-3.138c-1.13-0.116-2.208-0.433-3.214-0.895
			c-0.029-0.093-0.149-0.108-0.214-0.18c-0.606-0.455-1.05-1.133-1.551-1.711c-0.152-1.81-0.372-3.608-0.931-5.238
			c-0.415-1.854-0.854-3.737-0.974-5.678c-0.022-1.552,0.343-2.973,0.685-4.401c0.455-1.393,0.445-3.103,0.166-4.582
			c-0.154-1.566-0.35-3.175,0.184-4.625c0.195-0.671,0.617-1.24,0.975-1.847c1.251-1.768,2.626-3.218,4.231-4.748
			c1.126-0.953,2.667-1.429,4.251-1.4l0.076-0.036l10.964-0.015c0.353-1.905,0.642-3.846,0.927-5.787
			c-0.653-1.01-0.851-2.374-0.592-3.68c0.05-0.462,0.144-0.88,0.151-1.371c-0.209-0.094-0.505-0.209-0.563-0.44
			c-0.112-0.094-0.159-0.259-0.198-0.396c-0.115-0.96-0.184-1.955,0-2.908c0.159-0.383,0.433-0.679,0.823-0.837
			c0.346-1.487,0.415-3.089,1.173-4.388c0.869-1.378,2.194-2.482,3.853-2.698C73.65,9.524,75.649,9.538,77.888,9.581z"/>
		<path clip-path="url(#SVGID_2_)" fill="#FFFFFF" d="M96.692,34.129c1.242,0.815,2.119,1.963,2.423,3.442
			c0.316,1.724,0.131,3.586-0.276,5.238c-0.066,0.08-0.057,0.217-0.124,0.318c-0.262,0.765-0.674,1.508-1.14,2.15
			c0.445-0.101,0.892-0.332,1.278-0.577c0.156-0.028,0.136,0.209,0.217,0.289c0.988,1.941,1.665,4.098,2.283,6.242
			c0.216,1.429,0.21,3.045-0.169,4.402c-0.42,2.337-0.79,4.675-0.912,7.158c0.003,0.072-0.029,0.086-0.076,0.151
			c-0.586,1.422-2.035,2.136-3.443,2.605c-0.122-0.021-0.198,0.101-0.321,0.044c-0.172-0.397-0.3-0.801-0.455-1.263
			c0.239-0.021,0.443-0.05,0.653-0.108c0.888-0.166,1.732-0.49,2.331-1.191c-0.004-0.13-0.173-0.058-0.246-0.123
			c-1.265-0.122-2.434-0.49-3.606-0.851c-0.491-1.291-0.949-2.569-1.446-3.853h-0.029c-0.329,0.953-0.679,1.905-1.068,2.821
			l-0.152-0.015c-2.284-1.031-4.398-2.439-6.379-3.839c-1.786-1.284-3.637-2.77-5.313-4.156c-0.166-0.094-0.373-0.202-0.582-0.166
			c-1.137,1.003-2.876,1.104-4.431,0.974c-1.872-0.188-3.925-0.303-5.815-0.49c-0.249-0.044-0.458-0.246-0.563-0.469
			c-0.104-0.231-0.022-0.541,0.104-0.75c0.495-0.549,1.379-0.26,2.057-0.426c1.054-0.043,1.926-0.1,2.94-0.137
			c0.033-0.043,0.065-0.1,0.029-0.152c-1.703-0.086-3.532-0.072-5.3-0.18c-0.321-0.123-0.502-0.332-0.609-0.657
			c-0.012-0.246-0.072-0.592,0.137-0.794c0.386-0.455,0.999-0.426,1.602-0.455c1.428-0.108,2.824-0.202,4.232-0.332
			c0.026-0.094-0.076-0.057-0.109-0.109c-1.807-0.043-3.521-0.086-5.282-0.202c-0.396-0.13-0.649-0.476-0.684-0.894
			c-0.037-0.361,0.165-0.686,0.44-0.823c1.245-0.216,2.511-0.202,3.763-0.303c0.635-0.007,1.216-0.108,1.826-0.093l0.047-0.044
			c-0.23-0.13-0.556-0.072-0.808-0.108c-1.383-0.065-2.847-0.109-4.204-0.203c-0.241-0.093-0.573-0.259-0.653-0.563
			c-0.079-0.245-0.119-0.57,0.029-0.801c0.148-0.237,0.386-0.361,0.643-0.433h8.572c0.8,0.123,1.068,0.895,1.583,1.385
			c0.423,0.448,0.733,1.126,1.173,1.559c1.735,0.671,3.459,1.371,5.191,2.056c1.392,0.57,2.71,1.06,4.095,1.624
			c0.108-0.036,0.112,0.072,0.198,0.079c1.022,0.368,2.035,0.773,3.017,1.191c0.367,0.137,0.749,0.259,1.111,0.426
			c1.407,0.599,2.178,1.926,2.708,3.225l0.015,0.014c0.108-0.461,0.166-0.966,0.198-1.443c-0.111-0.159-0.147-0.353-0.198-0.533
			c-0.176-0.354-0.271-0.743-0.331-1.141c-0.134-0.289-0.112-0.642-0.2-0.945c-0.118-1.061,0.044-2.186,0.12-3.196
			c-0.404,0.483-0.714,1.003-0.974,1.551l-0.061,0.044c-0.117,0.31-0.257,0.613-0.394,0.916c-1.786-0.563-3.546-1.219-5.239-1.963
			c-0.201-1.436-0.105-3.03,0.152-4.452c0.127-0.173,0.058-0.433,0.184-0.606c0.469-1.667,1.357-3.153,2.635-4.344
			c-0.229-0.021-0.432,0.116-0.624,0.216c-0.851,0.375-1.638,0.888-2.332,1.443l-0.029-0.072v-7.353
			c0.44-0.065,0.956,0.015,1.428-0.036c1.639-0.022,3.257-0.007,4.997-0.015L96.692,34.129z"/>
		<path clip-path="url(#SVGID_2_)" fill="none" stroke="#362B61" stroke-width="0" stroke-miterlimit="3.8636" d="M96.692,34.129
			c1.242,0.815,2.119,1.963,2.423,3.442c0.316,1.724,0.131,3.586-0.276,5.238c-0.066,0.08-0.057,0.217-0.124,0.318
			c-0.262,0.765-0.674,1.508-1.14,2.15c0.445-0.101,0.892-0.332,1.278-0.577c0.156-0.028,0.136,0.209,0.217,0.289
			c0.988,1.941,1.665,4.098,2.283,6.242c0.216,1.429,0.21,3.045-0.169,4.402c-0.42,2.337-0.79,4.675-0.912,7.158
			c0.003,0.072-0.029,0.086-0.076,0.151c-0.586,1.422-2.035,2.136-3.443,2.605c-0.122-0.021-0.198,0.101-0.321,0.044
			c-0.172-0.397-0.3-0.801-0.455-1.263c0.239-0.021,0.443-0.05,0.653-0.108c0.888-0.166,1.732-0.49,2.331-1.191
			c-0.004-0.13-0.173-0.058-0.246-0.123c-1.265-0.122-2.434-0.49-3.606-0.851c-0.491-1.291-0.949-2.569-1.446-3.853h-0.029
			c-0.329,0.953-0.679,1.905-1.068,2.821l-0.152-0.015c-2.284-1.031-4.398-2.439-6.379-3.839c-1.786-1.284-3.637-2.77-5.313-4.156
			c-0.166-0.094-0.373-0.202-0.582-0.166c-1.137,1.003-2.876,1.104-4.431,0.974c-1.872-0.188-3.925-0.303-5.815-0.49
			c-0.249-0.044-0.458-0.246-0.563-0.469c-0.104-0.231-0.022-0.541,0.104-0.75c0.495-0.549,1.379-0.26,2.057-0.426
			c1.054-0.043,1.926-0.1,2.94-0.137c0.033-0.043,0.065-0.1,0.029-0.152c-1.703-0.086-3.532-0.072-5.3-0.18
			c-0.321-0.123-0.502-0.332-0.609-0.657c-0.012-0.246-0.072-0.592,0.137-0.794c0.386-0.455,0.999-0.426,1.602-0.455
			c1.428-0.108,2.824-0.202,4.232-0.332c0.026-0.094-0.076-0.057-0.109-0.109c-1.807-0.043-3.521-0.086-5.282-0.202
			c-0.396-0.13-0.649-0.476-0.684-0.894c-0.037-0.361,0.165-0.686,0.44-0.823c1.245-0.216,2.511-0.202,3.763-0.303
			c0.635-0.007,1.216-0.108,1.826-0.093l0.047-0.044c-0.23-0.13-0.556-0.072-0.808-0.108c-1.383-0.065-2.847-0.109-4.204-0.203
			c-0.241-0.093-0.573-0.259-0.653-0.563c-0.079-0.245-0.119-0.57,0.029-0.801c0.148-0.237,0.386-0.361,0.643-0.433h8.572
			c0.8,0.123,1.068,0.895,1.583,1.385c0.423,0.448,0.733,1.126,1.173,1.559c1.735,0.671,3.459,1.371,5.191,2.056
			c1.392,0.57,2.71,1.06,4.095,1.624c0.108-0.036,0.112,0.072,0.198,0.079c1.022,0.368,2.035,0.773,3.017,1.191
			c0.367,0.137,0.749,0.259,1.111,0.426c1.407,0.599,2.178,1.926,2.708,3.225l0.015,0.014c0.108-0.461,0.166-0.966,0.198-1.443
			c-0.111-0.159-0.147-0.353-0.198-0.533c-0.176-0.354-0.271-0.743-0.331-1.141c-0.134-0.289-0.112-0.642-0.2-0.945
			c-0.118-1.061,0.044-2.186,0.12-3.196c-0.404,0.483-0.714,1.003-0.974,1.551l-0.061,0.044c-0.117,0.31-0.257,0.613-0.394,0.916
			c-1.786-0.563-3.546-1.219-5.239-1.963c-0.201-1.436-0.105-3.03,0.152-4.452c0.127-0.173,0.058-0.433,0.184-0.606
			c0.469-1.667,1.357-3.153,2.635-4.344c-0.229-0.021-0.432,0.116-0.624,0.216c-0.851,0.375-1.638,0.888-2.332,1.443l-0.029-0.072
			v-7.353c0.44-0.065,0.956,0.015,1.428-0.036c1.639-0.022,3.257-0.007,4.997-0.015L96.692,34.129z"/>
		<path clip-path="url(#SVGID_2_)" fill="#FFFFFF" d="M57.148,34.114c0.076,3.117-0.008,5.823-0.043,8.803
			c-0.202-0.109-0.39-0.216-0.567-0.325c-0.841-0.346-1.782-0.692-2.785-0.498c0.371,0.325,0.822,0.599,1.158,1.032
			c0.144,0.087,0.267,0.246,0.364,0.368c0.436,0.555,0.829,1.14,1.05,1.826c0.194,0.245,0.179,0.628,0.306,0.931
			c0.184,1.378,0.094,2.835,0.075,4.228c-0.353,2.662-1.896,4.647-3.7,6.538c0.072,0.072,0.209-0.066,0.289-0.109
			c1.727-0.851,3.575-1.667,5.711-1.385c3.193,0.087,6.245,0.34,9.38,0.606c0.899-0.49,1.707-1.241,2.804-1.415l6.561-0.014
			c0.557-0.007,1.058,0.173,1.324,0.657c0.063,0.187,0.214,0.461,0.048,0.671c-0.147,0.209-0.328,0.39-0.396,0.649
			c-0.086,0.188-0.147,0.412-0.124,0.657c0.023,0.375,0.303,0.555,0.501,0.808c0.254,0.692-0.638,0.981-0.424,1.674
			c0.083,0.483,0.666,0.794,0.274,1.313c-0.17,0.389-0.567,0.722-0.303,1.183c0.044,0.224,0.115,0.455-0.019,0.657
			c-0.181,0.231-0.345,0.476-0.638,0.563l-6.273,0.015c-1.251,0.015-1.764-1.205-2.832-1.565c-0.703-0.405-1.36,0.216-2.024,0.382
			c-3.048,1.256-6.205,2.418-9.258,3.695c-0.108-0.231-0.299-0.765-0.501-1.299c1.934-0.692,3.911-1.458,5.815-2.186
			c1.684-0.664,3.373-1.35,5.068-1.948c0.621-0.007,1.144,0.411,1.617,0.757c0.797,0.729,1.801,1.313,2.937,1.147
			c0.621,0.014,1.35-0.08,1.948-0.152l-0.014-0.036c-1.512,0.259-2.544-0.982-3.579-1.746c-0.534-0.383-1.093-0.765-1.688-1.039
			c-1.808,0.383-3.597,0.816-5.39,1.234c-2.543,0.556-5.054,1.241-7.612,1.724c-0.509-1.32-1.035-2.583-1.508-3.918l-0.076-0.087
			c-0.105,0.13-0.112,0.281-0.17,0.44c-0.411,1.017-0.762,2.093-1.172,3.088c-0.098,0.455-0.343,0.858-0.488,1.299
			c-1.339,0.274-2.756,0.52-4.142,0.757c-0.519-0.31-0.877-0.866-1.248-1.305c-0.216-0.368-0.53-0.722-0.379-1.234
			c0.242-1.761,0.542-3.485,1.004-5.152c-0.214-1.544-0.838-2.929-1.05-4.459c-0.209-1.696,0.234-3.356,0.671-4.885
			c0.296-0.895,0.606-1.797,1.003-2.634c0.133-1.032-0.23-1.963-0.213-3.001c-0.01-1.198-0.072-2.338,0.167-3.442
			c0.035-0.115,0.115-0.238,0.154-0.368c0.134-0.324,0.303-0.598,0.472-0.894c0.571-0.902,1.353-1.674,2.313-2.208
			c0.423-0.209,0.924-0.346,1.433-0.411L57.148,34.114z"/>
		<path clip-path="url(#SVGID_2_)" fill="#FFFFFF" d="M77.492,36.597c0.469,1.161,0.21,2.662-0.714,3.47
			c-0.262,0.26-0.536,0.44-0.854,0.643l0.075,0.043l1.356-0.029l6.898-0.014c0.257-0.101,0.391-0.282,0.601-0.419l0.035-0.057
			c0,1.097,0.003,2.281,0.003,3.413c-0.079-0.05-0.201-0.144-0.303-0.216c-0.143-0.094-0.318-0.116-0.472-0.181L73.35,43.278
			c-2.764-0.015-5.628,0.036-8.316,0.015c-0.303,0.028-0.501,0.237-0.743,0.382c0-1.147-0.015-2.135-0.015-3.275
			c0.098,0.036,0.195,0.137,0.303,0.187c0.324,0.188,0.761,0.144,1.14,0.152l6.884-0.014c0.159-0.007,0.41,0.087,0.502-0.08
			c-1.093-0.598-1.765-1.767-1.674-3.073c0.137-1.386,1.14-2.424,2.435-2.757C75.421,34.468,76.912,35.269,77.492,36.597z"/>
		<path clip-path="url(#SVGID_2_)" fill="#362B61" d="M75.194,36.077c0.639,0.159,1.144,0.7,1.248,1.371
			c0.14,0.736-0.169,1.458-0.671,1.891c-0.606,0.404-1.468,0.555-2.16,0.151c-0.484-0.31-0.852-0.779-0.945-1.385
			c-0.072-0.736,0.219-1.45,0.808-1.797C73.917,35.954,74.656,35.846,75.194,36.077z"/>
		<path clip-path="url(#SVGID_2_)" fill="none" stroke="#362B61" stroke-width="0" stroke-miterlimit="3.8636" d="M75.194,36.077
			c0.639,0.159,1.144,0.7,1.248,1.371c0.14,0.736-0.169,1.458-0.671,1.891c-0.606,0.404-1.468,0.555-2.16,0.151
			c-0.484-0.31-0.852-0.779-0.945-1.385c-0.072-0.736,0.219-1.45,0.808-1.797C73.917,35.954,74.656,35.846,75.194,36.077z"/>
		<path clip-path="url(#SVGID_2_)" fill="#362B61" d="M80.25,53.986c2.64,2.093,5.154,4.402,7.764,6.472
			c1.14,0.902,2.294,1.724,3.577,2.388c0.02,0.093,0.156,0.057,0.184,0.165c-0.103,0.39-0.289,0.765-0.41,1.162h-0.153
			c-2.816-1.378-4.912-3.78-7.186-6.017c-1.353-1.422-2.777-2.692-4.112-4.142c0.028-0.065-0.007-0.173,0.076-0.195
			C80.118,53.813,80.165,53.928,80.25,53.986z"/>
		<path clip-path="url(#SVGID_2_)" fill="none" stroke="#362B61" stroke-width="0" stroke-miterlimit="3.8636" d="M80.25,53.986
			c2.64,2.093,5.154,4.402,7.764,6.472c1.14,0.902,2.294,1.724,3.577,2.388c0.02,0.093,0.156,0.057,0.184,0.165
			c-0.103,0.39-0.289,0.765-0.41,1.162h-0.153c-2.816-1.378-4.912-3.78-7.186-6.017c-1.353-1.422-2.777-2.692-4.112-4.142
			c0.028-0.065-0.007-0.173,0.076-0.195C80.118,53.813,80.165,53.928,80.25,53.986z"/>
		<path clip-path="url(#SVGID_2_)" fill="#FFFFFF" d="M96.602,70.798c-0.388,0.317-0.641,0.707-1.006,1.061
			c0.003,0.512-0.127,0.909-0.122,1.421c-0.469,2.98-2.032,5.578-4.461,7.324c-2.554,1.803-5.724,2.568-8.679,3.637
			c-1.105,0.36-2.216,0.8-3.259,1.306c-0.563,0.23-1.111,0.519-1.673,0.808c-1.082,0.548-2.052,1.242-3.001,1.947
			c-0.684-0.483-1.27-1.009-1.995-1.399c-0.165-0.115-0.372-0.157-0.516-0.303c-0.093,0-0.151-0.071-0.231-0.108
			c-1.991-1.061-4.192-1.819-6.378-2.525c-3.532-1.364-7.635-2.36-9.972-5.586c-1.317-1.767-2.085-3.962-2.165-6.306
			c-0.497-0.448-0.956-0.931-1.415-1.343c0.704-2.128,2.938-8.132,2.938-8.132c0.205,0.505,3.034,8.276,3.016,8.392
			c-0.423,0.346-1.05,0.96-1.05,0.96c0.058,0.894,0.209,1.767,0.516,2.539c0.84,2.201,2.748,3.926,5.04,4.525
			c2.042,0.513,4.297,0.157,5.952-0.93h0.062c1.23-0.794,2.283-1.985,2.878-3.284c0.152-0.477,0.372-0.923,0.458-1.421
			c0.13-0.368,0.119-0.801,0.181-1.198v-7.511c0.227,0,0.498,0.029,0.732,0l-0.015,8.133c-0.079,0.426-0.158,0.887-0.321,1.299
			c-0.166,0.736-0.541,1.421-0.913,2.035c-0.765,1.277-1.902,2.229-3.139,2.943c0.029,0.051,0.127,0.029,0.17,0
			c1.277-0.274,2.605-0.822,3.533-1.644c0.966-0.86,1.804-1.934,2.222-3.197c0.335-0.859,0.418-1.826,0.458-2.807v-6.775
			c0.913,0,1.829,0.007,2.741,0.007l-0.003,7.482c0.086,1.313,0.466,2.511,1.143,3.536c0.087,0.267,0.3,0.455,0.458,0.714
			c0.682,0.837,1.513,1.48,2.423,1.998c0.303,0.073,0.551,0.289,0.866,0.332c2.831,1.162,6.265,0.122,8.084-1.962
			c1.079-1.271,1.851-2.815,1.966-4.619c-0.469-0.555-0.908-0.88-1.447-1.371c0.264-0.888,2.233-6.372,2.924-8.327
			C94.103,63.734,96.014,69.016,96.602,70.798z"/>
		<path clip-path="url(#SVGID_2_)" fill="none" stroke="#FFFFFF" stroke-width="0" stroke-miterlimit="3.8636" d="M96.602,70.798
			c-0.388,0.317-0.641,0.707-1.006,1.061c0.003,0.512-0.127,0.909-0.122,1.421c-0.469,2.98-2.032,5.578-4.461,7.324
			c-2.554,1.803-5.724,2.568-8.679,3.637c-1.105,0.36-2.216,0.8-3.259,1.306c-0.563,0.23-1.111,0.519-1.673,0.808
			c-1.082,0.548-2.052,1.242-3.001,1.947c-0.684-0.483-1.27-1.009-1.995-1.399c-0.165-0.115-0.372-0.157-0.516-0.303
			c-0.093,0-0.151-0.071-0.231-0.108c-1.991-1.061-4.192-1.819-6.378-2.525c-3.532-1.364-7.635-2.36-9.972-5.586
			c-1.317-1.767-2.085-3.962-2.165-6.306c-0.497-0.448-0.956-0.931-1.415-1.343c0.704-2.128,2.938-8.132,2.938-8.132
			c0.205,0.505,3.034,8.276,3.016,8.392c-0.423,0.346-1.05,0.96-1.05,0.96c0.058,0.894,0.209,1.767,0.516,2.539
			c0.84,2.201,2.748,3.926,5.04,4.525c2.042,0.513,4.297,0.157,5.952-0.93h0.062c1.23-0.794,2.283-1.985,2.878-3.284
			c0.152-0.477,0.372-0.923,0.458-1.421c0.13-0.368,0.119-0.801,0.181-1.198v-7.511c0.227,0,0.498,0.029,0.732,0l-0.015,8.133
			c-0.079,0.426-0.158,0.887-0.321,1.299c-0.166,0.736-0.541,1.421-0.913,2.035c-0.765,1.277-1.902,2.229-3.139,2.943
			c0.029,0.051,0.127,0.029,0.17,0c1.277-0.274,2.605-0.822,3.533-1.644c0.966-0.86,1.804-1.934,2.222-3.197
			c0.335-0.859,0.418-1.826,0.458-2.807v-6.775c0.913,0,1.829,0.007,2.741,0.007l-0.003,7.482c0.086,1.313,0.466,2.511,1.143,3.536
			c0.087,0.267,0.3,0.455,0.458,0.714c0.682,0.837,1.513,1.48,2.423,1.998c0.303,0.073,0.551,0.289,0.866,0.332
			c2.831,1.162,6.265,0.122,8.084-1.962c1.079-1.271,1.851-2.815,1.966-4.619c-0.469-0.555-0.908-0.88-1.447-1.371
			c0.264-0.888,2.233-6.372,2.924-8.327C94.103,63.734,96.014,69.016,96.602,70.798z"/>
		<polygon clip-path="url(#SVGID_2_)" fill="#FFFFFF" points="17.026,135.724 20.803,135.724 20.803,136.993 18.433,136.993 
			18.433,138.155 19.995,138.155 19.995,139.425 18.433,139.425 18.433,141.872 17.026,141.872 		"/>
		<path clip-path="url(#SVGID_2_)" fill="#FFFFFF" d="M27.626,136.827c0.545,0,0.862,0.404,0.862,1.969
			c0,1.653-0.389,1.971-0.862,1.971c-0.48,0-0.863-0.318-0.863-1.971C26.763,137.311,27.059,136.827,27.626,136.827z M29.97,138.796
			c0-1.962-0.884-3.181-2.345-3.181c-1.461,0-2.345,1.219-2.345,3.181c0,1.963,0.885,3.184,2.345,3.184
			C29.086,141.98,29.97,140.76,29.97,138.796z"/>
		<path clip-path="url(#SVGID_2_)" fill="#FFFFFF" d="M36.792,136.827c0.545,0,0.863,0.404,0.863,1.969
			c0,1.653-0.39,1.971-0.863,1.971c-0.48,0-0.861-0.318-0.861-1.971C35.931,137.311,36.23,136.827,36.792,136.827z M39.138,138.796
			c0-1.962-0.884-3.181-2.346-3.181c-1.461,0-2.344,1.219-2.344,3.181c0,1.963,0.883,3.184,2.344,3.184
			C38.254,141.98,39.138,140.76,39.138,138.796z"/>
		<polygon clip-path="url(#SVGID_2_)" fill="#FFFFFF" points="44.899,136.936 43.546,136.936 43.546,135.724 47.659,135.724 
			47.659,136.936 46.303,136.936 46.303,141.872 44.899,141.872 		"/>
		<path clip-path="url(#SVGID_2_)" fill="#FFFFFF" d="M53.702,139.374H54.5c0.397,0,0.686,0.131,0.686,0.687
			c0,0.491-0.34,0.685-0.686,0.685h-0.797V139.374z M52.299,141.872h2.579c1.433,0,1.789-0.866,1.789-1.66
			c0-0.838-0.486-1.35-1.104-1.514v-0.015c0.512-0.189,0.981-0.621,0.981-1.35c0-1.025-0.729-1.609-1.844-1.609h-2.402V141.872z
			 M53.702,136.849h0.719c0.343,0,0.722,0.152,0.722,0.656c0,0.513-0.361,0.65-0.719,0.65h-0.722V136.849z"/>
		<path clip-path="url(#SVGID_2_)" fill="#FFFFFF" d="M63.418,137.426h0.015l0.495,1.999h-1.047L63.418,137.426z M61.134,141.872
			h1.112l0.321-1.178h1.682l0.292,1.178h1.465l-1.689-6.148h-1.515L61.134,141.872z"/>
		<polygon clip-path="url(#SVGID_2_)" fill="#FFFFFF" points="70.59,135.724 71.998,135.724 71.998,140.557 74.054,140.557 
			74.054,141.872 70.59,141.872 		"/>
		<polygon clip-path="url(#SVGID_2_)" fill="#FFFFFF" points="78.68,135.724 80.083,135.724 80.083,140.557 82.143,140.557 
			82.143,141.872 78.68,141.872 		"/>
		<path clip-path="url(#SVGID_2_)" fill="#FFFFFF" d="M96.071,137.896c-0.047-0.557-0.28-1.068-0.749-1.068
			c-0.545,0-0.819,0.577-0.819,1.905c0,1.37,0.245,2.035,0.949,2.035c0.509,0,0.829-0.57,0.927-1.147l1.054,0.281
			c-0.332,1.458-1.054,2.079-2.252,2.079c-0.952,0-2.16-0.924-2.16-3.133c0-2.265,1.168-3.232,2.363-3.232
			c1.23,0,1.904,1.032,2.003,2.157L96.071,137.896z"/>
		<polygon clip-path="url(#SVGID_2_)" fill="#FFFFFF" points="102.022,135.724 103.43,135.724 103.43,140.557 105.485,140.557 
			105.485,141.872 102.022,141.872 		"/>
		<path clip-path="url(#SVGID_2_)" fill="#FFFFFF" d="M114.313,139.662c0,1.112-0.443,2.318-2.099,2.318
			c-1.624,0-2.015-1.242-2.015-2.23v-4.026h1.405v3.867c0,0.844,0.443,1.074,0.778,1.074c0.548,0,0.848-0.316,0.848-1.262v-3.679
			h1.082V139.662z"/>
		<path clip-path="url(#SVGID_2_)" fill="#FFFFFF" d="M120.728,139.374h0.797c0.397,0,0.685,0.131,0.685,0.687
			c0,0.491-0.338,0.685-0.685,0.685h-0.797V139.374z M119.324,141.872h2.58c1.429,0,1.786-0.866,1.786-1.66
			c0-0.838-0.488-1.35-1.105-1.514v-0.015c0.518-0.189,0.985-0.621,0.985-1.35c0-1.025-0.729-1.609-1.844-1.609h-2.402V141.872z
			 M120.728,136.849h0.717c0.34,0,0.719,0.152,0.719,0.656c0,0.513-0.359,0.65-0.719,0.65h-0.717V136.849z"/>
		<path clip-path="url(#SVGID_2_)" fill="#FFFFFF" d="M75.407,37.339c0.162,0.332,0.1,0.83-0.123,1.068
			c-0.18,0.282-0.466,0.325-0.761,0.383c-0.278-0.022-0.523-0.18-0.715-0.339c-0.227-0.246-0.289-0.736-0.122-1.06
			c0.159-0.289,0.436-0.512,0.775-0.52C74.862,36.82,75.212,37.022,75.407,37.339z"/>
		<path clip-path="url(#SVGID_2_)" fill="none" stroke="#362B61" stroke-width="0" stroke-miterlimit="3.8636" d="M75.407,37.339
			c0.162,0.332,0.1,0.83-0.123,1.068c-0.18,0.282-0.466,0.325-0.761,0.383c-0.278-0.022-0.523-0.18-0.715-0.339
			c-0.227-0.246-0.289-0.736-0.122-1.06c0.159-0.289,0.436-0.512,0.775-0.52C74.862,36.82,75.212,37.022,75.407,37.339z"/>
		<path clip-path="url(#SVGID_2_)" d="M101.726,92.229c0.472,0.468,0.707,1.045,0.707,1.717c0,0.671-0.235,1.248-0.707,1.723
			c-0.469,0.477-1.042,0.714-1.717,0.714c-0.672,0-1.245-0.237-1.714-0.714c-0.468-0.475-0.704-1.052-0.704-1.723
			c0-0.672,0.236-1.249,0.708-1.717c0.472-0.478,1.042-0.716,1.71-0.716C100.679,91.513,101.252,91.751,101.726,92.229z
			 M102.007,91.954c-0.551-0.548-1.216-0.822-1.999-0.822c-0.777,0-1.436,0.274-1.984,0.822c-0.55,0.549-0.826,1.213-0.826,1.993
			c0,0.778,0.274,1.449,0.819,1.997c0.548,0.557,1.211,0.831,1.991,0.831c0.783,0,1.447-0.274,1.999-0.831
			c0.548-0.554,0.826-1.219,0.826-1.997C102.834,93.167,102.555,92.503,102.007,91.954z M100.427,93.815
			c-0.115,0.044-0.286,0.066-0.516,0.066h-0.49v-1.118h0.461c0.303,0,0.523,0.035,0.662,0.115c0.136,0.071,0.204,0.223,0.204,0.453
			C100.748,93.57,100.64,93.729,100.427,93.815z M98.872,95.483h0.549v-1.22h0.429c0.289,0,0.491,0.036,0.606,0.101
			c0.194,0.117,0.292,0.354,0.292,0.708v0.245l0.012,0.101c0.003,0.014,0.003,0.022,0.006,0.036
			c0.004,0.007,0.009,0.022,0.009,0.029h0.512l-0.019-0.036c-0.015-0.029-0.025-0.08-0.028-0.166
			c-0.004-0.08-0.007-0.159-0.007-0.223v-0.23c0-0.152-0.058-0.318-0.169-0.478c-0.112-0.166-0.289-0.265-0.534-0.303
			c0.19-0.035,0.341-0.084,0.449-0.152c0.203-0.128,0.303-0.331,0.303-0.612c0-0.391-0.16-0.65-0.478-0.778
			c-0.181-0.08-0.462-0.117-0.845-0.117h-1.086V95.483z"/>
	</g>
</g>
</svg>
