<?xml version="1.0" encoding="utf-8"?>
<!-- Generator: Adobe Illustrator 19.1.0, SVG Export Plug-In . SVG Version: 6.00 Build 0)  -->
<svg version="1.1" id="Layer_1" xmlns="http://www.w3.org/2000/svg" xmlns:xlink="http://www.w3.org/1999/xlink" x="0px" y="0px"
	 viewBox="0 0 187.999 217" enable-background="new 0 0 187.999 217" xml:space="preserve">
<rect x="3.899" y="5.5" fill="#001C54" width="180.202" height="208"/>
<path fill="#FFFFFF" d="M140.693,121.739l-45.554,29.594c-0.319,0.237-0.711,0.383-1.139,0.383s-0.82-0.145-1.139-0.383
	l-45.555-29.594c-3.747-2.435-3.454-7.669-3.454-7.669V97.465h9.14v14.09c0,2.872,2.528,4.621,2.536,4.626l33.586,21.824v-16.626
	h9.141v17.035l34.215-22.232c0,0,2.537-1.75,2.537-4.627v-14.09h9.141v16.604C144.148,114.07,144.441,119.304,140.693,121.739z
	 M100.708,63.246v9.141h4.115l8.027,7.109v22.896l-8.027,7.109H82.186V72.386h4.619v-9.141H65.558v9.141h7.488V109.5h-7.488v9.141
	h43.211l13.223-11.237v-32.92l-13.223-11.237H100.708z M130.542,47.175v9.141H98.255v50.127h-9.141V56.316H56.827v-9.141h32.288
	v-3.403c-5.737-1.914-9.878-7.318-9.878-13.699c0-7.979,6.469-14.449,14.449-14.449c7.98,0,14.449,6.469,14.449,14.449
	c0,6.381-4.141,11.786-9.879,13.699v3.403H130.542z M98.699,30.073c0-2.769-2.244-5.013-5.014-5.013
	c-2.769,0-5.013,2.245-5.013,5.013c0,2.768,2.245,5.013,5.013,5.013C96.455,35.087,98.699,32.842,98.699,30.073z"/>
<path fill="#A7A9AC" d="M43.987,173.748v-8.631h6.527v2.174h-3.756v1.336h2.988v2.086h-2.988v3.035H43.987z M66.295,173.748v-8.631
	h6.897v2.068h-4.126v1.148h3.487v1.98h-3.487v1.336h4.295v2.098H66.295z M79.948,173.748H77.44v-8.631h3.375l1.195,4.307
	c0.016,0.059,0.047,0.192,0.094,0.401c0.047,0.209,0.113,0.497,0.199,0.864c0.055-0.289,0.105-0.542,0.152-0.759
	c0.047-0.217,0.088-0.38,0.123-0.489l1.225-4.324h3.369v8.631h-2.508l0.023-4.248c0-0.258,0.001-0.509,0.003-0.753
	c0.002-0.244,0.005-0.497,0.009-0.759c-0.094,0.445-0.207,0.932-0.34,1.459l-0.017,0.076l-1.066,4.225h-1.934l-1.078-4.131
	c-0.051-0.188-0.102-0.402-0.152-0.645c-0.051-0.242-0.117-0.57-0.199-0.984c0.012,0.371,0.021,0.689,0.026,0.955
	c0.006,0.266,0.009,0.479,0.009,0.639V173.748z M90.736,173.748l3.035-8.631h2.808l3.035,8.631h-2.748l-0.324-1.143h-2.748
	l-0.334,1.143H90.736z M94.299,170.794h1.74l-0.861-2.988L94.299,170.794z M103.189,173.748v-8.631h2.631l2.42,4.014
	c0.074,0.113,0.152,0.273,0.236,0.48c0.084,0.207,0.174,0.457,0.268,0.75c-0.023-0.152-0.041-0.32-0.053-0.504
	c-0.012-0.184-0.018-0.406-0.018-0.668v-4.072h2.643v8.631h-2.643l-2.42-3.984c-0.074-0.117-0.156-0.283-0.244-0.498
	c-0.088-0.215-0.176-0.461-0.266-0.738c0.027,0.152,0.047,0.311,0.059,0.477c0.012,0.166,0.018,0.399,0.018,0.7v4.043H103.189z
	 M117.556,173.748v-6.357h-2.484v-2.273h7.74v2.273h-2.484v6.357H117.556z M126.494,173.748v-8.631h2.771v6.34h3.768v2.291H126.494z
	 M136.947,173.748v-8.631h6.896v2.068h-4.125v1.148h3.488v1.98h-3.488v1.336h4.295v2.098H136.947z M60.617,169.771h-0.002
	c0.051-0.025,0.104-0.05,0.152-0.075c0.138-0.063,0.255-0.139,0.37-0.215c0.086-0.056,0.164-0.111,0.233-0.166
	c0.143-0.123,0.273-0.252,0.371-0.401c0.227-0.348,0.34-0.785,0.34-1.312c0-0.883-0.276-1.518-0.829-1.904
	c-0.553-0.387-1.476-0.58-2.769-0.58h-4.131v8.631h2.736v-2.977h0.979l1.771,2.977h3.181L60.617,169.771z M57.09,168.826v-1.617
	h1.189c0.488,0,0.816,0.06,0.984,0.179c0.168,0.119,0.252,0.331,0.252,0.636c0,0.297-0.084,0.505-0.252,0.624
	c-0.168,0.119-0.473,0.179-0.914,0.179H57.09z"/>
<g>
	<path fill="#FFFFFF" d="M10.947,182.34v3.992h3.07v13.051h-3.07v3.992h16.735l4.299-3.992v-13.051l-4.299-3.992H10.947z
		 M28.143,187.873v9.895l-1.74,1.615h-8.547v-13.051h8.629L28.143,187.873z"/>
	<path fill="#FFFFFF" d="M47.958,182.34h-2.844h-3.808l-4.299,3.992v13.051l4.299,3.992h3.808h2.844h3.808l4.299-3.992v-13.051
		l-4.299-3.992H47.958z M52.226,187.873v9.895l-1.74,1.615h-2.529h-2.844h-2.529l-1.74-1.615v-9.895l1.658-1.54h2.61h2.844h2.61
		L52.226,187.873z"/>
	<polygon fill="#FFFFFF" points="80.12,190.636 80.12,186.337 80.126,186.333 75.826,182.34 75.821,182.347 75.821,182.34 
		72.018,182.34 69.169,182.34 65.366,182.34 61.067,186.333 61.067,199.383 65.366,203.376 69.169,203.376 72.018,203.376 
		75.821,203.376 75.821,203.369 75.826,203.376 80.126,199.383 80.12,199.378 80.12,195.08 76.281,195.08 76.281,197.773 
		74.547,199.383 72.018,199.383 69.169,199.383 66.646,199.383 64.906,197.768 64.906,187.873 66.564,186.333 69.169,186.333 
		72.018,186.333 74.628,186.333 76.281,187.868 76.281,190.636 	"/>
	<polygon fill="#FFFFFF" points="110.484,182.34 110.484,186.333 113.296,186.333 113.296,199.383 110.484,199.383 110.484,203.376 
		125.113,203.376 128.951,203.376 128.951,199.383 128.951,197.146 125.113,197.146 125.113,199.383 117.134,199.383 
		117.134,194.455 124.162,194.455 124.162,190.462 117.134,190.462 117.134,186.333 125.113,186.333 125.113,188.57 128.951,188.57 
		128.951,186.333 128.951,182.34 125.113,182.34 	"/>
	<polygon fill="#FFFFFF" points="91.44,191.038 91.44,186.333 91.44,182.34 84.789,182.34 84.789,186.333 87.602,186.333 
		87.602,199.383 84.789,199.383 84.789,203.376 91.44,203.376 91.44,199.383 91.44,197.367 94.348,194.538 101.634,203.376 
		106.076,203.376 106.076,199.383 104.222,199.383 97.611,191.364 102.781,186.333 106.076,186.333 106.076,182.34 100.378,182.34 	
		"/>
	<path fill="#FFFFFF" d="M150.8,196.318l3.264-3.859v-5.856l-3.604-4.262h-4.504h-2.844h-2.502h-1.305h-5.348v3.992h2.814v13.051
		h-2.814v3.992h6.652v-3.992v-3.087h4.322l5.764,7.079h4.441v-3.992h-1.842L150.8,196.318z M140.611,186.333h2.502h2.844h3.385
		l0.885,1.016v3.84l-0.955,1.116h-8.66V186.333z"/>
	<polygon fill="#FFFFFF" points="177.052,189.143 177.052,185.044 173.888,182.34 162.138,182.34 159.13,185.456 159.13,191.462 
		162.138,194.3 172.333,194.3 173.214,195.241 173.214,198.443 172.333,199.383 163.927,199.383 162.968,198.361 162.968,196.296 
		159.13,196.296 159.13,200.396 162.138,203.376 173.888,203.376 177.052,200.396 177.052,193.546 173.888,190.308 163.925,190.308 
		162.968,189.287 162.968,187.355 163.927,186.333 172.333,186.333 173.214,187.273 173.214,189.143 	"/>
</g>
</svg>
