<?xml version="1.0" encoding="utf-8"?>
<!-- Generator: Adobe Illustrator 19.1.0, SVG Export Plug-In . SVG Version: 6.00 Build 0)  -->
<svg version="1.1" id="Layer_1" xmlns="http://www.w3.org/2000/svg" xmlns:xlink="http://www.w3.org/1999/xlink" x="0px" y="0px"
	 viewBox="0 0 150 150" enable-background="new 0 0 150 150" xml:space="preserve">
<g>
	<g>
		<path fill="#0D2240" d="M9.06,82.821c0,0,5.342,33.387,66.846,65.056c0,0,64.059-36.192,65.618-65.056V3.401H9.06V82.821z"/>
		<path fill="#FFFFFF" d="M22.864,108.067h104.37c0,0,12.672-13.351,12.924-25.314h-24.61V56.756l24.913-0.092l-0.086-25.48H10.449
			l-0.201,25.354l24.309,0.059v26.156H9.721C9.721,82.753,14.101,100.762,22.864,108.067z"/>
		<path fill="#0D2240" d="M63.168,35.221v5.135c0,0,4.504-0.126,4.504,5.134v49.954c0,0-0.492,3.509-4.504,4.254v5.136h16.625
			v-5.261c0,0-4.563-0.728-4.623-4.697l0.017-54.143h8.643c0,0,6.499,0.528,6.985,10.311c0,0,0.67-0.863,2.447-1.474l0.083-14.348
			H63.168z"/>
		<path fill="#0D2240" d="M75.187,66.522h4.506c0,0,3.007-0.125,2.882-4.506l0.125-6.634l3.526-0.008l0.025,26.92h-3.804
			l-0.125-6.256c0,0-0.125-3.007-2.756-4.004l-4.379-0.251V66.522z"/>
		<path fill="#FFFFFF" d="M52.428,133.689c0,0,19.215,12.32,23.721,13.452c0,0,14.239-6.944,22.255-13.452H52.428z"/>
		<path fill="#FFFFFF" d="M14.051,27.9v-0.226c0.477-0.05,0.772-0.134,0.887-0.26c0.118-0.125,0.176-0.452,0.176-1.449v-5.251
			c0,0.051-0.066-0.234-0.191-0.368c-0.134-0.126-0.42-0.21-0.872-0.244v-0.226h6.457l0.042,1.742h-0.343
			c-0.076-0.561-0.235-0.913-0.46-1.055c-0.234-0.151-0.689-0.226-1.359-0.226h-1.657c-0.159,0-0.267,0.033-0.31,0.084
			c-0.051,0.058-0.068,0.168-0.068,0.327v3.25h1.751c0.518,0,0.844-0.075,0.986-0.226c0.144-0.159,0.261-0.47,0.345-0.938h0.284
			v2.805h-0.284c-0.091-0.469-0.211-0.778-0.352-0.93c-0.142-0.151-0.47-0.226-0.98-0.226h-1.751v2.102
			c0,0.444,0.068,0.728,0.202,0.855c0.134,0.125,0.435,0.2,0.887,0.234V27.9H14.051z"/>
		<path fill="none" stroke="#FFFFFF" stroke-width="0.2478" d="M14.051,27.9v-0.226c0.477-0.05,0.772-0.134,0.887-0.26
			c0.118-0.125,0.176-0.452,0.176-1.449v-5.251c0,0.051-0.066-0.234-0.191-0.368c-0.134-0.126-0.42-0.21-0.872-0.244v-0.226h6.457
			l0.042,1.742h-0.343c-0.076-0.561-0.235-0.913-0.46-1.055c-0.234-0.151-0.689-0.226-1.359-0.226h-1.657
			c-0.159,0-0.267,0.033-0.31,0.084c-0.051,0.058-0.068,0.168-0.068,0.327v3.25h1.751c0.518,0,0.844-0.075,0.986-0.226
			c0.144-0.159,0.261-0.47,0.345-0.938h0.284v2.805h-0.284c-0.091-0.469-0.211-0.778-0.352-0.93c-0.142-0.151-0.47-0.226-0.98-0.226
			h-1.751v2.102c0,0.444,0.068,0.728,0.202,0.855c0.134,0.125,0.435,0.2,0.887,0.234V27.9H14.051z"/>
		<path fill="#FFFFFF" d="M25.065,21.184c0.502-0.612,1.115-0.921,1.843-0.921c0.704,0,1.306,0.301,1.819,0.887
			c0.518,0.586,0.77,1.541,0.77,2.865c0,1.306-0.252,2.253-0.763,2.848c-0.503,0.595-1.113,0.887-1.826,0.887
			c-0.728,0-1.349-0.301-1.851-0.913c-0.502-0.612-0.746-1.549-0.746-2.822C24.311,22.733,24.563,21.786,25.065,21.184z
			 M24.077,27.038c0.753,0.77,1.692,1.156,2.831,1.156c1.056,0,1.959-0.352,2.714-1.047c0.838-0.778,1.256-1.817,1.256-3.132
			c0-1.299-0.401-2.328-1.213-3.107c-0.746-0.721-1.668-1.081-2.756-1.081c-1.09,0-2.01,0.36-2.757,1.072
			c-0.812,0.779-1.213,1.817-1.213,3.116C22.938,25.246,23.314,26.251,24.077,27.038z"/>
		<path fill="none" stroke="#FFFFFF" stroke-width="0.2478" d="M25.065,21.184c0.502-0.612,1.115-0.921,1.843-0.921
			c0.704,0,1.306,0.301,1.819,0.887c0.518,0.586,0.77,1.541,0.77,2.865c0,1.306-0.252,2.253-0.763,2.848
			c-0.503,0.595-1.113,0.887-1.826,0.887c-0.728,0-1.349-0.301-1.851-0.913c-0.502-0.612-0.746-1.549-0.746-2.822
			C24.311,22.733,24.563,21.786,25.065,21.184z M24.077,27.038c0.753,0.77,1.692,1.156,2.831,1.156c1.056,0,1.959-0.352,2.714-1.047
			c0.838-0.778,1.256-1.817,1.256-3.132c0-1.299-0.401-2.328-1.213-3.107c-0.746-0.721-1.668-1.081-2.756-1.081
			c-1.09,0-2.01,0.36-2.757,1.072c-0.812,0.779-1.213,1.817-1.213,3.116C22.938,25.246,23.314,26.251,24.077,27.038z"/>
		<path fill="#FFFFFF" d="M35.787,21.058c0.502-0.612,1.115-0.913,1.843-0.913c0.704,0,1.306,0.293,1.826,0.879
			c0.511,0.586,0.77,1.542,0.77,2.865c0,1.307-0.259,2.261-0.761,2.848c-0.511,0.595-1.122,0.897-1.834,0.897
			c-0.728,0-1.349-0.31-1.843-0.914c-0.503-0.611-0.755-1.558-0.755-2.831C35.032,22.615,35.284,21.669,35.787,21.058z
			 M34.798,26.912c0.753,0.771,1.692,1.156,2.831,1.156c1.062,0,1.968-0.344,2.714-1.038c0.838-0.779,1.256-1.826,1.256-3.141
			c0-1.289-0.401-2.328-1.213-3.108c-0.746-0.711-1.668-1.072-2.756-1.072c-1.09,0-2.01,0.352-2.757,1.072
			c-0.812,0.779-1.213,1.818-1.213,3.108C33.659,25.12,34.035,26.133,34.798,26.912z"/>
		<path fill="none" stroke="#FFFFFF" stroke-width="0.2478" d="M35.787,21.058c0.502-0.612,1.115-0.913,1.843-0.913
			c0.704,0,1.306,0.293,1.826,0.879c0.511,0.586,0.77,1.542,0.77,2.865c0,1.307-0.259,2.261-0.761,2.848
			c-0.511,0.595-1.122,0.897-1.834,0.897c-0.728,0-1.349-0.31-1.843-0.914c-0.503-0.611-0.755-1.558-0.755-2.831
			C35.032,22.615,35.284,21.669,35.787,21.058z M34.798,26.912c0.753,0.771,1.692,1.156,2.831,1.156
			c1.062,0,1.968-0.344,2.714-1.038c0.838-0.779,1.256-1.826,1.256-3.141c0-1.289-0.401-2.328-1.213-3.108
			c-0.746-0.711-1.668-1.072-2.756-1.072c-1.09,0-2.01,0.352-2.757,1.072c-0.812,0.779-1.213,1.818-1.213,3.108
			C33.659,25.12,34.035,26.133,34.798,26.912z"/>
		<path fill="#FFFFFF" d="M43.668,21.937l0.068-2.061h6.85l0.068,2.061h-0.293c-0.144-0.646-0.318-1.064-0.545-1.265
			c-0.217-0.193-0.679-0.294-1.383-0.294h-0.67v6.207c0,0.469,0.068,0.762,0.218,0.871c0.144,0.108,0.469,0.184,0.954,0.217V27.9
			h-3.525v-0.226c0.509-0.034,0.829-0.118,0.953-0.251c0.127-0.125,0.195-0.46,0.195-0.98v-6.064H45.88
			c-0.67,0-1.132,0.101-1.366,0.294c-0.242,0.192-0.428,0.611-0.553,1.265H43.668z"/>
		<path fill="none" stroke="#FFFFFF" stroke-width="0.2478" d="M43.668,21.937l0.068-2.061h6.85l0.068,2.061h-0.293
			c-0.144-0.646-0.318-1.064-0.545-1.265c-0.217-0.193-0.679-0.294-1.383-0.294h-0.67v6.207c0,0.469,0.068,0.762,0.218,0.871
			c0.144,0.108,0.469,0.184,0.954,0.217V27.9h-3.525v-0.226c0.509-0.034,0.829-0.118,0.953-0.251c0.127-0.125,0.195-0.46,0.195-0.98
			v-6.064H45.88c-0.67,0-1.132,0.101-1.366,0.294c-0.242,0.192-0.428,0.611-0.553,1.265H43.668z"/>
		<path fill="#FFFFFF" d="M56.124,27.365c-0.119-0.059-0.178-0.193-0.178-0.402v-3.015c0.11,0,0.186,0,0.227,0
			c0.051,0,0.168,0,0.352,0c0.762,0,1.383,0.125,1.877,0.377c0.486,0.251,0.728,0.712,0.728,1.39c0,0.679-0.208,1.14-0.628,1.382
			c-0.411,0.243-0.929,0.36-1.55,0.36C56.517,27.457,56.247,27.432,56.124,27.365z M57.506,27.9c0.677,0,1.247-0.092,1.709-0.284
			c0.87-0.352,1.313-1.005,1.313-1.952c0-0.561-0.201-1.005-0.596-1.315c-0.392-0.31-0.87-0.536-1.431-0.67
			c0.453-0.109,0.788-0.251,1.015-0.419c0.401-0.302,0.602-0.729,0.602-1.307c0-0.762-0.286-1.298-0.856-1.608
			c-0.569-0.311-1.34-0.47-2.311-0.47h-3.399v0.226c0.494,0.025,0.806,0.101,0.946,0.227c0.151,0.134,0.218,0.419,0.218,0.862v5.394
			c0,0.453-0.068,0.737-0.218,0.863c-0.14,0.125-0.452,0.201-0.946,0.226V27.9H57.506z M55.946,23.486v-2.739
			c0-0.193,0.034-0.311,0.093-0.352c0.059-0.042,0.218-0.067,0.469-0.067c0.663,0,1.166,0.067,1.491,0.209
			c0.587,0.251,0.888,0.737,0.888,1.458c0,0.612-0.261,1.038-0.77,1.273c-0.269,0.125-0.604,0.184-1.014,0.192L55.946,23.486z"/>
		<path fill="none" stroke="#FFFFFF" stroke-width="0.2478" d="M56.124,27.365c-0.119-0.059-0.178-0.193-0.178-0.402v-3.015
			c0.11,0,0.186,0,0.227,0c0.051,0,0.168,0,0.352,0c0.762,0,1.383,0.125,1.877,0.377c0.486,0.251,0.728,0.712,0.728,1.39
			c0,0.679-0.208,1.14-0.628,1.382c-0.411,0.243-0.929,0.36-1.55,0.36C56.517,27.457,56.247,27.432,56.124,27.365z M57.506,27.9
			c0.677,0,1.247-0.092,1.709-0.284c0.87-0.352,1.313-1.005,1.313-1.952c0-0.561-0.201-1.005-0.596-1.315
			c-0.392-0.31-0.87-0.536-1.431-0.67c0.453-0.109,0.788-0.251,1.015-0.419c0.401-0.302,0.602-0.729,0.602-1.307
			c0-0.762-0.286-1.298-0.856-1.608c-0.569-0.311-1.34-0.47-2.311-0.47h-3.399v0.226c0.494,0.025,0.806,0.101,0.946,0.227
			c0.151,0.134,0.218,0.419,0.218,0.862v5.394c0,0.453-0.068,0.737-0.218,0.863c-0.14,0.125-0.452,0.201-0.946,0.226V27.9H57.506z
			 M55.946,23.486v-2.739c0-0.193,0.034-0.311,0.093-0.352c0.059-0.042,0.218-0.067,0.469-0.067c0.663,0,1.166,0.067,1.491,0.209
			c0.587,0.251,0.888,0.737,0.888,1.458c0,0.612-0.261,1.038-0.77,1.273c-0.269,0.125-0.604,0.184-1.014,0.192L55.946,23.486z"/>
		<path fill="#FFFFFF" d="M66.894,21.442l1.399,3.343h-2.788L66.894,21.442z M65.461,27.674c-0.283-0.017-0.475-0.058-0.577-0.101
			c-0.168-0.084-0.251-0.226-0.251-0.427c0-0.1,0.034-0.243,0.091-0.419c0.066-0.176,0.252-0.662,0.568-1.448h3.176l0.502,1.164
			c0.066,0.167,0.127,0.318,0.159,0.469c0.042,0.151,0.059,0.26,0.059,0.318c0,0.176-0.051,0.285-0.152,0.335
			c-0.1,0.042-0.335,0.084-0.685,0.109V27.9h3.081v-0.226c-0.284-0.034-0.486-0.109-0.602-0.217
			c-0.125-0.109-0.286-0.394-0.486-0.846l-3.015-6.877h-0.235l-2.53,5.947c-0.377,0.896-0.645,1.441-0.804,1.641
			c-0.151,0.201-0.386,0.318-0.704,0.352V27.9h2.403V27.674z"/>
		<path fill="none" stroke="#FFFFFF" stroke-width="0.2478" d="M66.894,21.442l1.399,3.343h-2.788L66.894,21.442z M65.461,27.674
			c-0.283-0.017-0.475-0.058-0.577-0.101c-0.168-0.084-0.251-0.226-0.251-0.427c0-0.1,0.034-0.243,0.091-0.419
			c0.066-0.176,0.252-0.662,0.568-1.448h3.176l0.502,1.164c0.066,0.167,0.127,0.318,0.159,0.469c0.042,0.151,0.059,0.26,0.059,0.318
			c0,0.176-0.051,0.285-0.152,0.335c-0.1,0.042-0.335,0.084-0.685,0.109V27.9h3.081v-0.226c-0.284-0.034-0.486-0.109-0.602-0.217
			c-0.125-0.109-0.286-0.394-0.486-0.846l-3.015-6.877h-0.235l-2.53,5.947c-0.377,0.896-0.645,1.441-0.804,1.641
			c-0.151,0.201-0.386,0.318-0.704,0.352V27.9h2.403V27.674z"/>
		<path fill="#FFFFFF" d="M74.216,27.9v-0.226c0.443-0.041,0.728-0.125,0.861-0.234c0.134-0.118,0.201-0.402,0.201-0.855v-5.394
			c0-0.426-0.068-0.711-0.201-0.845c-0.125-0.126-0.418-0.21-0.861-0.244v-0.226h3.426v0.226c-0.455,0.025-0.746,0.101-0.898,0.218
			c-0.159,0.125-0.234,0.385-0.234,0.787v5.822c0,0.134,0.025,0.243,0.066,0.318c0.051,0.075,0.152,0.126,0.303,0.151
			c0.093,0.008,0.185,0.017,0.284,0.017c0.1,0.009,0.293,0.009,0.57,0.009c1.071,0,1.799-0.092,2.186-0.268
			c0.376-0.176,0.745-0.628,1.096-1.357h0.311L80.732,27.9H74.216z"/>
		<path fill="none" stroke="#FFFFFF" stroke-width="0.2478" d="M74.216,27.9v-0.226c0.443-0.041,0.728-0.125,0.861-0.234
			c0.134-0.118,0.201-0.402,0.201-0.855v-5.394c0-0.426-0.068-0.711-0.201-0.845c-0.125-0.126-0.418-0.21-0.861-0.244v-0.226h3.426
			v0.226c-0.455,0.025-0.746,0.101-0.898,0.218c-0.159,0.125-0.234,0.385-0.234,0.787v5.822c0,0.134,0.025,0.243,0.066,0.318
			c0.051,0.075,0.152,0.126,0.303,0.151c0.093,0.008,0.185,0.017,0.284,0.017c0.1,0.009,0.293,0.009,0.57,0.009
			c1.071,0,1.799-0.092,2.186-0.268c0.376-0.176,0.745-0.628,1.096-1.357h0.311L80.732,27.9H74.216z"/>
		<path fill="#FFFFFF" d="M84.055,27.9v-0.226c0.445-0.041,0.729-0.125,0.865-0.234c0.134-0.118,0.2-0.402,0.2-0.855v-5.394
			c0-0.426-0.066-0.711-0.193-0.845c-0.134-0.126-0.416-0.21-0.871-0.244v-0.226h3.426v0.226c-0.443,0.025-0.746,0.101-0.895,0.218
			c-0.152,0.125-0.227,0.385-0.227,0.787v5.822c0,0.134,0.017,0.243,0.068,0.318c0.041,0.075,0.14,0.126,0.301,0.151
			c0.083,0.008,0.184,0.017,0.284,0.017c0.102,0.009,0.284,0.009,0.56,0.009c1.081,0,1.811-0.092,2.188-0.268
			c0.377-0.176,0.746-0.628,1.096-1.357h0.31L90.573,27.9H84.055z"/>
		<path fill="none" stroke="#FFFFFF" stroke-width="0.2478" d="M84.055,27.9v-0.226c0.445-0.041,0.729-0.125,0.865-0.234
			c0.134-0.118,0.2-0.402,0.2-0.855v-5.394c0-0.426-0.066-0.711-0.193-0.845c-0.134-0.126-0.416-0.21-0.871-0.244v-0.226h3.426
			v0.226c-0.443,0.025-0.746,0.101-0.895,0.218c-0.152,0.125-0.227,0.385-0.227,0.787v5.822c0,0.134,0.017,0.243,0.068,0.318
			c0.041,0.075,0.14,0.126,0.301,0.151c0.083,0.008,0.184,0.017,0.284,0.017c0.102,0.009,0.284,0.009,0.56,0.009
			c1.081,0,1.811-0.092,2.188-0.268c0.377-0.176,0.746-0.628,1.096-1.357h0.31L90.573,27.9H84.055z"/>
		<path fill="#FFFFFF" d="M99.668,20.999c-0.745,0.795-1.12,1.792-1.12,2.964c0,1.157,0.359,2.119,1.062,2.89
			c0.762,0.829,1.8,1.248,3.098,1.248c0.797,0,1.535-0.217,2.212-0.653c0.394-0.26,0.729-0.553,0.998-0.897l-0.227-0.226
			c-0.362,0.343-0.697,0.603-0.998,0.771c-0.526,0.301-1.105,0.453-1.733,0.453c-0.871,0-1.592-0.327-2.154-0.972
			c-0.568-0.645-0.844-1.508-0.844-2.588c0-1.173,0.267-2.094,0.804-2.764c0.536-0.67,1.232-1.013,2.078-1.013
			c0.844,0,1.508,0.318,2.01,0.938c0.261,0.335,0.469,0.771,0.628,1.306h0.284l-0.117-2.722h-0.252
			c-0.041,0.134-0.108,0.234-0.217,0.301c-0.1,0.059-0.21,0.092-0.32,0.092c-0.058,0-0.316-0.067-0.778-0.193
			c-0.46-0.134-0.912-0.2-1.347-0.2C101.477,19.734,100.457,20.153,99.668,20.999z"/>
		<path fill="none" stroke="#FFFFFF" stroke-width="0.2478" d="M99.668,20.999c-0.745,0.795-1.12,1.792-1.12,2.964
			c0,1.157,0.359,2.119,1.062,2.89c0.762,0.829,1.8,1.248,3.098,1.248c0.797,0,1.535-0.217,2.212-0.653
			c0.394-0.26,0.729-0.553,0.998-0.897l-0.227-0.226c-0.362,0.343-0.697,0.603-0.998,0.771c-0.526,0.301-1.105,0.453-1.733,0.453
			c-0.871,0-1.592-0.327-2.154-0.972c-0.568-0.645-0.844-1.508-0.844-2.588c0-1.173,0.267-2.094,0.804-2.764
			c0.536-0.67,1.232-1.013,2.078-1.013c0.844,0,1.508,0.318,2.01,0.938c0.261,0.335,0.469,0.771,0.628,1.306h0.284l-0.117-2.722
			h-0.252c-0.041,0.134-0.108,0.234-0.217,0.301c-0.1,0.059-0.21,0.092-0.32,0.092c-0.058,0-0.316-0.067-0.778-0.193
			c-0.46-0.134-0.912-0.2-1.347-0.2C101.477,19.734,100.457,20.153,99.668,20.999z"/>
		<path fill="#FFFFFF" d="M108.907,27.9v-0.226c0.443-0.041,0.738-0.125,0.871-0.234c0.127-0.118,0.195-0.402,0.195-0.855v-5.394
			c0-0.426-0.061-0.711-0.195-0.845c-0.134-0.126-0.418-0.21-0.871-0.244v-0.226h3.426v0.226c-0.443,0.025-0.746,0.101-0.897,0.218
			c-0.151,0.125-0.225,0.385-0.225,0.787v5.822c0,0.134,0.025,0.243,0.068,0.318c0.041,0.075,0.141,0.126,0.301,0.151
			c0.091,0.008,0.183,0.017,0.282,0.017c0.102,0.009,0.295,0.009,0.562,0.009c1.081,0,1.811-0.092,2.186-0.268
			c0.377-0.176,0.746-0.628,1.105-1.357h0.303l-0.585,2.102H108.907z"/>
		<path fill="none" stroke="#FFFFFF" stroke-width="0.2478" d="M108.907,27.9v-0.226c0.443-0.041,0.738-0.125,0.871-0.234
			c0.127-0.118,0.195-0.402,0.195-0.855v-5.394c0-0.426-0.061-0.711-0.195-0.845c-0.134-0.126-0.418-0.21-0.871-0.244v-0.226h3.426
			v0.226c-0.443,0.025-0.746,0.101-0.897,0.218c-0.151,0.125-0.225,0.385-0.225,0.787v5.822c0,0.134,0.025,0.243,0.068,0.318
			c0.041,0.075,0.141,0.126,0.301,0.151c0.091,0.008,0.183,0.017,0.282,0.017c0.102,0.009,0.295,0.009,0.562,0.009
			c1.081,0,1.811-0.092,2.186-0.268c0.377-0.176,0.746-0.628,1.105-1.357h0.303l-0.585,2.102H108.907z"/>
		<path fill="#FFFFFF" d="M117.794,20.102c0.462,0.034,0.755,0.118,0.897,0.244c0.134,0.125,0.201,0.402,0.201,0.845v3.786
			c0,0.754,0.127,1.357,0.386,1.81c0.469,0.854,1.364,1.281,2.67,1.281c1.333,0,2.23-0.427,2.699-1.298
			c0.259-0.47,0.384-1.123,0.384-1.96v-3.149c0-0.637,0.076-1.039,0.218-1.215c0.142-0.176,0.452-0.293,0.921-0.343v-0.226h-2.806
			v0.226c0.445,0.042,0.746,0.151,0.895,0.319c0.161,0.168,0.244,0.578,0.244,1.239v3.149c0,0.779-0.1,1.349-0.284,1.717
			c-0.342,0.67-1.005,0.997-1.993,0.997c-0.905,0-1.516-0.327-1.843-0.972c-0.176-0.351-0.259-0.845-0.259-1.482v-3.878
			c0-0.443,0.068-0.728,0.208-0.854c0.134-0.126,0.437-0.201,0.905-0.235v-0.226h-3.443V20.102z"/>
		<path fill="none" stroke="#FFFFFF" stroke-width="0.2478" d="M117.794,20.102c0.462,0.034,0.755,0.118,0.897,0.244
			c0.134,0.125,0.201,0.402,0.201,0.845v3.786c0,0.754,0.127,1.357,0.386,1.81c0.469,0.854,1.364,1.281,2.67,1.281
			c1.333,0,2.23-0.427,2.699-1.298c0.259-0.47,0.384-1.123,0.384-1.96v-3.149c0-0.637,0.076-1.039,0.218-1.215
			c0.142-0.176,0.452-0.293,0.921-0.343v-0.226h-2.806v0.226c0.445,0.042,0.746,0.151,0.895,0.319
			c0.161,0.168,0.244,0.578,0.244,1.239v3.149c0,0.779-0.1,1.349-0.284,1.717c-0.342,0.67-1.005,0.997-1.993,0.997
			c-0.905,0-1.516-0.327-1.843-0.972c-0.176-0.351-0.259-0.845-0.259-1.482v-3.878c0-0.443,0.068-0.728,0.208-0.854
			c0.134-0.126,0.437-0.201,0.905-0.235v-0.226h-3.443V20.102z"/>
		<path fill="#FFFFFF" d="M131.607,27.365c-0.125-0.059-0.185-0.193-0.185-0.402v-3.015c0.108,0,0.185,0,0.235,0
			c0.041,0,0.159,0,0.352,0c0.753,0,1.372,0.125,1.866,0.377c0.487,0.251,0.729,0.712,0.729,1.39c0,0.679-0.201,1.14-0.619,1.382
			c-0.42,0.243-0.939,0.36-1.558,0.36C131.992,27.457,131.724,27.432,131.607,27.365z M132.981,27.9
			c0.679,0,1.239-0.092,1.709-0.284c0.87-0.352,1.306-1.005,1.306-1.952c0-0.561-0.193-1.005-0.587-1.315
			c-0.394-0.31-0.871-0.536-1.423-0.67c0.445-0.109,0.787-0.251,1.005-0.419c0.401-0.302,0.602-0.729,0.602-1.307
			c0-0.762-0.284-1.298-0.855-1.608c-0.569-0.311-1.34-0.47-2.311-0.47h-3.401v0.226c0.494,0.025,0.806,0.101,0.956,0.227
			c0.14,0.134,0.208,0.419,0.208,0.862v5.394c0,0.453-0.068,0.737-0.208,0.863c-0.151,0.125-0.462,0.201-0.956,0.226V27.9H132.981z
			 M131.422,23.486v-2.739c0-0.193,0.034-0.311,0.093-0.352c0.058-0.042,0.217-0.067,0.469-0.067c0.662,0,1.164,0.067,1.489,0.209
			c0.589,0.251,0.89,0.737,0.89,1.458c0,0.612-0.261,1.038-0.77,1.273c-0.269,0.125-0.604,0.184-1.015,0.192L131.422,23.486z"/>
		<path fill="none" stroke="#FFFFFF" stroke-width="0.2478" d="M131.607,27.365c-0.125-0.059-0.185-0.193-0.185-0.402v-3.015
			c0.108,0,0.185,0,0.235,0c0.041,0,0.159,0,0.352,0c0.753,0,1.372,0.125,1.866,0.377c0.487,0.251,0.729,0.712,0.729,1.39
			c0,0.679-0.201,1.14-0.619,1.382c-0.42,0.243-0.939,0.36-1.558,0.36C131.992,27.457,131.724,27.432,131.607,27.365z M132.981,27.9
			c0.679,0,1.239-0.092,1.709-0.284c0.87-0.352,1.306-1.005,1.306-1.952c0-0.561-0.193-1.005-0.587-1.315
			c-0.394-0.31-0.871-0.536-1.423-0.67c0.445-0.109,0.787-0.251,1.005-0.419c0.401-0.302,0.602-0.729,0.602-1.307
			c0-0.762-0.284-1.298-0.855-1.608c-0.569-0.311-1.34-0.47-2.311-0.47h-3.401v0.226c0.494,0.025,0.806,0.101,0.956,0.227
			c0.14,0.134,0.208,0.419,0.208,0.862v5.394c0,0.453-0.068,0.737-0.208,0.863c-0.151,0.125-0.462,0.201-0.956,0.226V27.9H132.981z
			 M131.422,23.486v-2.739c0-0.193,0.034-0.311,0.093-0.352c0.058-0.042,0.217-0.067,0.469-0.067c0.662,0,1.164,0.067,1.489,0.209
			c0.589,0.251,0.89,0.737,0.89,1.458c0,0.612-0.261,1.038-0.77,1.273c-0.269,0.125-0.604,0.184-1.015,0.192L131.422,23.486z"/>
		<path fill="#0D2240" d="M56.669,91.633l4.68,0.041c0,0-0.117-15.94,0-17.89c0.125-1.96,3.259-2.228,3.259-2.228v-2.663H52.186
			v2.689c3.056,0.117,3.176,2.203,3.176,2.203l0.058,10.445c0,0-1.291,3.719-5.193,3.978c-3.668,0.242-4.122-2.144-4.892-3.785
			c-0.854-1.834-1.223-16.635-1.223-16.635c0-3.911-0.234-20.873,6.608-20.663c7.699,0.251,7.405,14.591,7.405,14.591h3.117V44.527
			h-2.237c-0.157,1.064-1.196,2.596-2.053,1.868c-0.853-0.738-4.396-2.689-6.112-2.932c-0.613-0.092-13.21-3.426-12.96,23.101
			c0.244,26.049,6.601,26.166,11.62,26.166c0,0,4.169-0.369,5.208-1.993C56.181,88.449,56.425,91.063,56.669,91.633z"/>
		<path fill="#FFFFFF" d="M89.518,67.544c-0.384-26.526,12.053-23.804,12.64-23.721c1.624,0.251,4.992,2.203,5.812,2.94
			c0.812,0.728,1.792-0.804,1.943-1.868h2.129v17.187h-2.958c0,0,0.278-14.347-7.044-14.591c-6.499-0.217-6.273,16.752-6.273,20.664
			c0,0,0.242,14.18,1.047,16.016c0.855,1.959,1.834,5.092,5.988,4.773c3.175-0.252,4.523-3.552,4.523-3.552
			c0.853-1.222,1.096-11.584,1.096-11.584l3.308-0.025c0,0-0.157,9.28-0.369,10.269c-0.367,1.709-1.958,8.318-9.538,8.56
			C90.213,92.973,89.677,78.8,89.518,67.544z"/>
		<path fill="none" stroke="#FFFFFF" stroke-width="2.9484" d="M89.518,67.544c-0.384-26.526,12.053-23.804,12.64-23.721
			c1.624,0.251,4.992,2.203,5.812,2.94c0.812,0.728,1.792-0.804,1.943-1.868h2.129v17.187h-2.958c0,0,0.278-14.347-7.044-14.591
			c-6.499-0.217-6.273,16.752-6.273,20.664c0,0,0.242,14.18,1.047,16.016c0.855,1.959,1.834,5.092,5.988,4.773
			c3.175-0.252,4.523-3.552,4.523-3.552c0.853-1.222,1.096-11.584,1.096-11.584l3.308-0.025c0,0-0.157,9.28-0.369,10.269
			c-0.367,1.709-1.958,8.318-9.538,8.56C90.213,92.973,89.677,78.8,89.518,67.544z"/>
		<path fill="#0D2240" d="M89.518,67.544c-0.384-26.526,12.053-23.804,12.64-23.721c1.624,0.251,4.992,2.203,5.812,2.94
			c0.812,0.728,1.792-0.804,1.943-1.868h2.129v17.187h-2.958c0,0,0.278-14.347-7.044-14.591c-6.499-0.217-6.273,16.752-6.273,20.664
			c0,0,0.242,14.18,1.047,16.016c0.855,1.959,1.834,5.092,5.988,4.773c3.175-0.252,4.523-3.552,4.523-3.552
			c0.853-1.222,1.096-11.584,1.096-11.584l3.308-0.025c0,0-0.157,9.28-0.369,10.269c-0.367,1.709-1.958,8.318-9.538,8.56
			C90.213,92.973,89.677,78.8,89.518,67.544z"/>
		<path fill="#FFFFFF" d="M15.173,7.061c-1.014,1.064-1.523,2.354-1.523,3.853c0,1.7,0.636,3.058,1.909,4.071
			c1.154,0.913,2.57,1.373,4.245,1.373c0.914,0,1.868-0.159,2.858-0.469c0.986-0.318,1.481-0.569,1.481-0.754v-3.174
			c0-0.519,0.118-0.863,0.352-1.039c0.144-0.101,0.42-0.167,0.848-0.193v-0.301H20.96v0.301c0.629,0.034,1.039,0.135,1.234,0.285
			c0.183,0.151,0.274,0.536,0.274,1.156v2.571c0,0.176-0.049,0.31-0.151,0.403c-0.1,0.092-0.352,0.2-0.762,0.326
			c-0.252,0.075-0.519,0.134-0.795,0.176c-0.286,0.033-0.53,0.05-0.738,0.05c-1.223,0-2.252-0.419-3.09-1.248
			c-0.831-0.838-1.249-1.993-1.249-3.476c0-1.792,0.418-3.091,1.256-3.869c0.838-0.788,1.811-1.173,2.909-1.173
			c1.086,0,1.966,0.335,2.647,1.005c0.376,0.377,0.745,0.963,1.096,1.742h0.393L23.85,5.294h-0.377
			c-0.074,0.168-0.167,0.294-0.267,0.386c-0.1,0.084-0.276,0.134-0.528,0.134c-0.091,0-0.46-0.092-1.107-0.26
			c-0.643-0.176-1.296-0.26-1.966-0.26C17.762,5.294,16.287,5.88,15.173,7.061z"/>
		<path fill="none" stroke="#FFFFFF" stroke-width="0.2627" d="M15.173,7.061c-1.014,1.064-1.523,2.354-1.523,3.853
			c0,1.7,0.636,3.058,1.909,4.071c1.154,0.913,2.57,1.373,4.245,1.373c0.914,0,1.868-0.159,2.858-0.469
			c0.986-0.318,1.481-0.569,1.481-0.754v-3.174c0-0.519,0.118-0.863,0.352-1.039c0.144-0.101,0.42-0.167,0.848-0.193v-0.301H20.96
			v0.301c0.629,0.034,1.039,0.135,1.234,0.285c0.183,0.151,0.274,0.536,0.274,1.156v2.571c0,0.176-0.049,0.31-0.151,0.403
			c-0.1,0.092-0.352,0.2-0.762,0.326c-0.252,0.075-0.519,0.134-0.795,0.176c-0.286,0.033-0.53,0.05-0.738,0.05
			c-1.223,0-2.252-0.419-3.09-1.248c-0.831-0.838-1.249-1.993-1.249-3.476c0-1.792,0.418-3.091,1.256-3.869
			c0.838-0.788,1.811-1.173,2.909-1.173c1.086,0,1.966,0.335,2.647,1.005c0.376,0.377,0.745,0.963,1.096,1.742h0.393L23.85,5.294
			h-0.377c-0.074,0.168-0.167,0.294-0.267,0.386c-0.1,0.084-0.276,0.134-0.528,0.134c-0.091,0-0.46-0.092-1.107-0.26
			c-0.643-0.176-1.296-0.26-1.966-0.26C17.762,5.294,16.287,5.88,15.173,7.061z"/>
		<path fill="#FFFFFF" d="M60.202,16.133l0.789-2.723h-0.479c-0.443,0.921-0.946,1.499-1.497,1.734
			c-0.555,0.234-1.416,0.36-2.581,0.36c-1.071,0-1.717-0.033-1.936-0.092c-0.217-0.058-0.327-0.243-0.327-0.561v-3.986h2.647
			c0.729,0,1.198,0.101,1.399,0.301c0.201,0.201,0.36,0.369,0.496,0.997h0.401v-3.3h-0.401c-0.127,0.619-0.288,0.854-0.487,1.055
			c-0.201,0.21-0.67,0.31-1.408,0.31h-2.647V6.634c0-0.209,0.034-0.352,0.093-0.427c0.059-0.075,0.208-0.117,0.46-0.117h2.337
			c1.014,0,1.658,0.108,1.953,0.318c0.293,0.209,0.509,0.67,0.651,1.381H60.1l-0.058-2.311h-9.137V5.78
			c0.636,0.042,1.046,0.151,1.23,0.327c0.193,0.175,0.286,0.544,0.286,1.113v7.162c0,0.611-0.102,0.988-0.286,1.139
			c-0.184,0.151-0.594,0.251-1.23,0.318v0.294H60.202z"/>
		<path fill="none" stroke="#FFFFFF" stroke-width="0.2627" d="M60.202,16.133l0.789-2.723h-0.479
			c-0.443,0.921-0.946,1.499-1.497,1.734c-0.555,0.234-1.416,0.36-2.581,0.36c-1.071,0-1.717-0.033-1.936-0.092
			c-0.217-0.058-0.327-0.243-0.327-0.561v-3.986h2.647c0.729,0,1.198,0.101,1.399,0.301c0.201,0.201,0.36,0.369,0.496,0.997h0.401
			v-3.3h-0.401c-0.127,0.619-0.288,0.854-0.487,1.055c-0.201,0.21-0.67,0.31-1.408,0.31h-2.647V6.634
			c0-0.209,0.034-0.352,0.093-0.427c0.059-0.075,0.208-0.117,0.46-0.117h2.337c1.014,0,1.658,0.108,1.953,0.318
			c0.293,0.209,0.509,0.67,0.651,1.381H60.1l-0.058-2.311h-9.137V5.78c0.636,0.042,1.046,0.151,1.23,0.327
			c0.193,0.175,0.286,0.544,0.286,1.113v7.162c0,0.611-0.102,0.988-0.286,1.139c-0.184,0.151-0.594,0.251-1.23,0.318v0.294H60.202z"
			/>
		<path fill="#FFFFFF" d="M69.81,16.133v-0.294c0.629-0.067,1.039-0.168,1.232-0.318c0.183-0.151,0.276-0.528,0.276-1.139V7.22
			c0-0.569-0.093-0.938-0.276-1.113c-0.186-0.176-0.596-0.285-1.232-0.327V5.478h4.858V5.78c-0.629,0.034-1.056,0.126-1.274,0.285
			c-0.208,0.168-0.318,0.511-0.318,1.047v7.739c0,0.176,0.034,0.318,0.091,0.419c0.068,0.101,0.212,0.168,0.428,0.193
			c0.127,0.017,0.269,0.025,0.409,0.033c0.144,0,0.411,0.008,0.797,0.008c1.533,0,2.564-0.117,3.108-0.36
			c0.536-0.235,1.054-0.838,1.557-1.801h0.435l-0.837,2.789H69.81z"/>
		<path fill="none" stroke="#FFFFFF" stroke-width="0.2627" d="M69.81,16.133v-0.294c0.629-0.067,1.039-0.168,1.232-0.318
			c0.183-0.151,0.276-0.528,0.276-1.139V7.22c0-0.569-0.093-0.938-0.276-1.113c-0.186-0.176-0.596-0.285-1.232-0.327V5.478h4.858
			V5.78c-0.629,0.034-1.056,0.126-1.274,0.285c-0.208,0.168-0.318,0.511-0.318,1.047v7.739c0,0.176,0.034,0.318,0.091,0.419
			c0.068,0.101,0.212,0.168,0.428,0.193c0.127,0.017,0.269,0.025,0.409,0.033c0.144,0,0.411,0.008,0.797,0.008
			c1.533,0,2.564-0.117,3.108-0.36c0.536-0.235,1.054-0.838,1.557-1.801h0.435l-0.837,2.789H69.81z"/>
		<path fill="#FFFFFF" d="M89.81,7.044c0.712-0.804,1.584-1.214,2.614-1.214c0.997,0,1.86,0.393,2.587,1.173
			c0.729,0.779,1.09,2.052,1.09,3.802c0,1.734-0.36,2.999-1.081,3.786c-0.719,0.788-1.584,1.181-2.596,1.181
			c-1.039,0-1.91-0.402-2.621-1.214c-0.712-0.805-1.064-2.061-1.064-3.753C88.739,9.114,89.091,7.857,89.81,7.044z M88.411,14.826
			c1.064,1.022,2.398,1.533,4.014,1.533c1.508,0,2.789-0.46,3.853-1.382c1.19-1.03,1.783-2.421,1.783-4.172
			c0-1.717-0.577-3.091-1.724-4.12c-1.058-0.955-2.364-1.432-3.912-1.432c-1.548,0-2.848,0.477-3.904,1.424
			c-1.156,1.038-1.733,2.412-1.733,4.129C86.788,12.447,87.331,13.779,88.411,14.826z"/>
		<path fill="none" stroke="#FFFFFF" stroke-width="0.2627" d="M89.81,7.044c0.712-0.804,1.584-1.214,2.614-1.214
			c0.997,0,1.86,0.393,2.587,1.173c0.729,0.779,1.09,2.052,1.09,3.802c0,1.734-0.36,2.999-1.081,3.786
			c-0.719,0.788-1.584,1.181-2.596,1.181c-1.039,0-1.91-0.402-2.621-1.214c-0.712-0.805-1.064-2.061-1.064-3.753
			C88.739,9.114,89.091,7.857,89.81,7.044z M88.411,14.826c1.064,1.022,2.398,1.533,4.014,1.533c1.508,0,2.789-0.46,3.853-1.382
			c1.19-1.03,1.783-2.421,1.783-4.172c0-1.717-0.577-3.091-1.724-4.12c-1.058-0.955-2.364-1.432-3.912-1.432
			c-1.548,0-2.848,0.477-3.904,1.424c-1.156,1.038-1.733,2.412-1.733,4.129C86.788,12.447,87.331,13.779,88.411,14.826z"/>
		<path fill="#FFFFFF" d="M110.198,16.133v-0.294c-0.621-0.067-1.022-0.184-1.198-0.351c-0.276-0.268-0.411-0.846-0.411-1.726V7.489
			l7.606,8.829h0.301V7.849c0-0.846,0.11-1.391,0.326-1.625c0.218-0.234,0.655-0.385,1.306-0.444V5.478h-4.036V5.78
			c0.628,0.051,1.039,0.16,1.222,0.335c0.286,0.268,0.42,0.846,0.42,1.734v5.377l-6.626-7.748h-2.948V5.78
			c0.352,0.008,0.619,0.051,0.797,0.109c0.174,0.067,0.382,0.243,0.636,0.519l0.242,0.26v7.094c0,0.855-0.102,1.391-0.31,1.625
			c-0.201,0.234-0.655,0.385-1.366,0.452v0.294H110.198z"/>
		<path fill="none" stroke="#FFFFFF" stroke-width="0.2627" d="M110.198,16.133v-0.294c-0.621-0.067-1.022-0.184-1.198-0.351
			c-0.276-0.268-0.411-0.846-0.411-1.726V7.489l7.606,8.829h0.301V7.849c0-0.846,0.11-1.391,0.326-1.625
			c0.218-0.234,0.655-0.385,1.306-0.444V5.478h-4.036V5.78c0.628,0.051,1.039,0.16,1.222,0.335c0.286,0.268,0.42,0.846,0.42,1.734
			v5.377l-6.626-7.748h-2.948V5.78c0.352,0.008,0.619,0.051,0.797,0.109c0.174,0.067,0.382,0.243,0.636,0.519l0.242,0.26v7.094
			c0,0.855-0.102,1.391-0.31,1.625c-0.201,0.234-0.655,0.385-1.366,0.452v0.294H110.198z"/>
		<path fill="#FFFFFF" d="M125.994,6.928c-1.012,1.072-1.514,2.354-1.514,3.853c0,1.7,0.636,3.057,1.91,4.07
			c1.146,0.913,2.57,1.374,4.245,1.374c0.914,0,1.866-0.159,2.856-0.47c0.986-0.318,1.482-0.569,1.482-0.754v-3.166
			c0-0.528,0.117-0.871,0.352-1.038c0.134-0.109,0.418-0.176,0.846-0.201v-0.294h-4.381v0.294c0.63,0.041,1.039,0.134,1.223,0.285
			c0.191,0.151,0.284,0.536,0.284,1.156v2.571c0,0.176-0.051,0.31-0.151,0.402c-0.102,0.092-0.352,0.201-0.761,0.327
			c-0.254,0.075-0.521,0.134-0.804,0.176c-0.278,0.034-0.521,0.051-0.731,0.051c-1.222,0-2.252-0.41-3.09-1.248
			c-0.829-0.83-1.249-1.994-1.249-3.476c0-1.793,0.42-3.082,1.257-3.87c0.838-0.778,1.802-1.173,2.907-1.173
			c1.088,0,1.968,0.335,2.647,1.005c0.376,0.386,0.738,0.964,1.096,1.742h0.393L134.68,5.16h-0.384
			c-0.066,0.167-0.159,0.293-0.261,0.385c-0.1,0.084-0.274,0.135-0.528,0.135c-0.091,0-0.46-0.092-1.105-0.26
			c-0.645-0.176-1.298-0.26-1.968-0.26C128.591,5.16,127.118,5.746,125.994,6.928z"/>
		<path fill="none" stroke="#FFFFFF" stroke-width="0.2627" d="M125.994,6.928c-1.012,1.072-1.514,2.354-1.514,3.853
			c0,1.7,0.636,3.057,1.91,4.07c1.146,0.913,2.57,1.374,4.245,1.374c0.914,0,1.866-0.159,2.856-0.47
			c0.986-0.318,1.482-0.569,1.482-0.754v-3.166c0-0.528,0.117-0.871,0.352-1.038c0.134-0.109,0.418-0.176,0.846-0.201v-0.294h-4.381
			v0.294c0.63,0.041,1.039,0.134,1.223,0.285c0.191,0.151,0.284,0.536,0.284,1.156v2.571c0,0.176-0.051,0.31-0.151,0.402
			c-0.102,0.092-0.352,0.201-0.761,0.327c-0.254,0.075-0.521,0.134-0.804,0.176c-0.278,0.034-0.521,0.051-0.731,0.051
			c-1.222,0-2.252-0.41-3.09-1.248c-0.829-0.83-1.249-1.994-1.249-3.476c0-1.793,0.42-3.082,1.257-3.87
			c0.838-0.778,1.802-1.173,2.907-1.173c1.088,0,1.968,0.335,2.647,1.005c0.376,0.386,0.738,0.964,1.096,1.742h0.393L134.68,5.16
			h-0.384c-0.066,0.167-0.159,0.293-0.261,0.385c-0.1,0.084-0.274,0.135-0.528,0.135c-0.091,0-0.46-0.092-1.105-0.26
			c-0.645-0.176-1.298-0.26-1.968-0.26C128.591,5.16,127.118,5.746,125.994,6.928z"/>
		<path fill="#FFFFFF" d="M42.42,16.133l0.789-2.723h-0.477c-0.445,0.921-0.948,1.499-1.501,1.734
			c-0.552,0.234-1.415,0.36-2.579,0.36c-1.073,0-1.716-0.033-1.936-0.092c-0.217-0.058-0.327-0.243-0.327-0.561v-3.986h2.648
			c0.728,0,1.196,0.101,1.398,0.301c0.201,0.201,0.369,0.369,0.494,0.997h0.403v-3.3h-0.403c-0.125,0.619-0.284,0.854-0.486,1.055
			c-0.201,0.21-0.67,0.31-1.406,0.31h-2.648V6.634c0-0.209,0.034-0.352,0.091-0.427c0.059-0.075,0.211-0.117,0.462-0.117h2.338
			c1.012,0,1.656,0.108,1.949,0.318c0.294,0.209,0.511,0.67,0.655,1.381h0.435l-0.058-2.311h-9.139V5.78
			c0.636,0.042,1.056,0.151,1.239,0.327c0.185,0.175,0.276,0.544,0.276,1.113v7.162c0,0.611-0.091,0.988-0.283,1.139
			c-0.186,0.151-0.596,0.251-1.232,0.318v0.294H42.42z"/>
		<path fill="none" stroke="#FFFFFF" stroke-width="0.2627" d="M42.42,16.133l0.789-2.723h-0.477
			c-0.445,0.921-0.948,1.499-1.501,1.734c-0.552,0.234-1.415,0.36-2.579,0.36c-1.073,0-1.716-0.033-1.936-0.092
			c-0.217-0.058-0.327-0.243-0.327-0.561v-3.986h2.648c0.728,0,1.196,0.101,1.398,0.301c0.201,0.201,0.369,0.369,0.494,0.997h0.403
			v-3.3h-0.403c-0.125,0.619-0.284,0.854-0.486,1.055c-0.201,0.21-0.67,0.31-1.406,0.31h-2.648V6.634
			c0-0.209,0.034-0.352,0.091-0.427c0.059-0.075,0.211-0.117,0.462-0.117h2.338c1.012,0,1.656,0.108,1.949,0.318
			c0.294,0.209,0.511,0.67,0.655,1.381h0.435l-0.058-2.311h-9.139V5.78c0.636,0.042,1.056,0.151,1.239,0.327
			c0.185,0.175,0.276,0.544,0.276,1.113v7.162c0,0.611-0.091,0.988-0.283,1.139c-0.186,0.151-0.596,0.251-1.232,0.318v0.294H42.42z"
			/>
		<path fill="#193E5F" d="M123.683,121.81c0.511,0.511,0.763,1.132,0.763,1.851c0,0.738-0.252,1.357-0.763,1.868
			c-0.509,0.521-1.13,0.772-1.849,0.772c-0.729,0-1.35-0.25-1.861-0.772c-0.502-0.511-0.753-1.13-0.753-1.868
			c0-0.719,0.25-1.34,0.761-1.851c0.513-0.511,1.123-0.77,1.853-0.77C122.552,121.04,123.173,121.299,123.683,121.81z
			 M123.984,121.519c-0.594-0.596-1.313-0.89-2.151-0.89c-0.838,0-1.56,0.294-2.144,0.89c-0.596,0.594-0.898,1.306-0.898,2.142
			c0,0.846,0.294,1.567,0.888,2.162c0.587,0.602,1.306,0.897,2.154,0.897c0.838,0,1.557-0.294,2.151-0.897
			c0.596-0.596,0.888-1.316,0.888-2.162C124.872,122.825,124.579,122.113,123.984,121.519z M122.276,123.529
			c-0.119,0.049-0.31,0.075-0.553,0.075h-0.536v-1.215h0.502c0.327,0,0.56,0.042,0.712,0.125c0.151,0.085,0.227,0.244,0.227,0.487
			C122.628,123.26,122.51,123.436,122.276,123.529z M120.601,125.33h0.585v-1.317h0.469c0.311,0,0.528,0.034,0.653,0.102
			c0.21,0.125,0.32,0.386,0.32,0.77v0.269l0.008,0.108c0,0.008,0.007,0.025,0.007,0.034c0,0.007,0.009,0.024,0.009,0.034h0.555
			l-0.027-0.042c-0.007-0.025-0.017-0.083-0.025-0.176c-0.008-0.083-0.008-0.168-0.008-0.242v-0.252
			c0-0.167-0.059-0.335-0.183-0.519c-0.119-0.176-0.311-0.284-0.579-0.326c0.21-0.034,0.367-0.083,0.487-0.159
			c0.215-0.144,0.325-0.36,0.325-0.662c0-0.42-0.168-0.704-0.511-0.846c-0.201-0.075-0.502-0.119-0.912-0.119h-1.173V125.33z"/>
		<path fill="none" stroke="#193E5F" stroke-width="1.4742" d="M9.395,2.865l131.551,0.042V84.78
			c-8.802,35.213-65.775,62.603-65.775,62.603l0,0c0,0-56.973-27.39-65.775-62.603V2.907l131.551-0.042"/>
	</g>
</g>
</svg>
