<?xml version="1.0" encoding="utf-8"?>
<!-- Generator: Adobe Illustrator 19.1.0, SVG Export Plug-In . SVG Version: 6.00 Build 0)  -->
<svg version="1.1" id="Layer_1" xmlns="http://www.w3.org/2000/svg" xmlns:xlink="http://www.w3.org/1999/xlink" x="0px" y="0px"
	 viewBox="0 0 510.236 510.236" enable-background="new 0 0 510.236 510.236" xml:space="preserve">
<g>
	<g>
		<path fill="#4E2614" d="M176.127,30.179h-40.589l-24.521,82.225V30.179H73.015v41.319H58.335V30.179H20.331v106.872h38.005V94.953
			h14.679v42.099h63.978l3.265-13.145h27.291l1.758,8.127c11.863-1.909,23.812-3.421,35.837-4.537L176.127,30.179 M144.945,104.362
			l7.304-29.033c1.742-6.771,2.218-13.109,2.218-13.109h0.32c0,0,0.487,6.5,1.92,13.265l6.418,28.877H144.945z"/>
		<path fill="#4E2614" d="M466.254,70.101c-8.964-4.354-11.906-6.99-11.906-11.499c0-4.036,3.099-5.901,8.642-5.901
			c6.202,0,11.914,2.177,15.822,4.351l7.673-21.904c-6.038-3.416-15.658-6.525-29.525-6.525c-24.302,0-39.64,16.159-39.64,35.883
			c0,10.405,4.569,22.524,20.884,30.449c8.803,4.189,11.575,6.99,11.575,11.026c0,3.418-3.096,5.753-8.803,5.753
			c-6.524,0-13.536-2.958-16.47-5.13l-3.966,12.067l-18.874-39.875l25.117-48.621h-38.327L368.23,77.091h-0.331V30.176H298.54
			l-9.415,49.031c-1.135,6.076-1.449,11.923-1.449,11.923h-0.325c0,0-0.167-5.847-1.31-11.923l-9.869-49.031h-30.482l-10.334,49.031
			c-1.151,6.076-1.498,11.923-1.498,11.923h-0.326c0,0-0.304-5.847-1.422-11.923l-8.956-49.031h-38.588l27.376,96.741
			c13.67-1.088,27.425-1.665,41.256-1.709l5.866-23.481c1.271-5.136,1.594-10.329,1.594-10.329h0.32c0,0,0.476,5.343,1.753,10.329
			l6.221,23.651c13.583,0.339,27.092,1.192,40.51,2.54l20.441-72.608v75.056c12.696,1.777,25.309,4.006,37.797,6.683h0.199V86.41
			h0.331l18.924,50.639h42.076l-0.101-0.208c5.45,1.16,11.975,1.764,19.67,1.764c24.63,0,41.437-15.535,41.437-35.418
			C490.236,90.755,487.302,80.197,466.254,70.101"/>
		<path fill="#FFC726" d="M80.595,163.033c2.939,132.903,66.562,214.882,174.553,301.183
			c108.004-86.301,171.597-168.28,174.536-301.183c-55.741-19.692-114.466-29.67-174.559-29.67
			C195.061,133.363,136.336,143.341,80.595,163.033"/>
		<path fill="#4E2614" d="M445.449,214.968c3.31-19.35,3.159-30.909,3.159-30.909c-208.851-81.361-260.312,11.688-260.312,11.688
			c-46.774,10.009-84.033,38.911-69.877,84.107c4.28,13.659,14.108,26.309,27.258,35.971c-3.142-5.338-4.2-11.195-2.724-17.592
			c3.585-15.423,24.267-25.699,55.32-24.338c48.378,2.123,62.636,10.849,62.636,10.849s-80.87-17.89-103.203,0.615
			c5.56-1.354,11.267-2.073,17.143-2.073c48.454,0,87.763,32.684,87.763,109.079c0,27.772-5.215,49.736-14.135,66.494
			C148.218,377.475,87.836,298.9,81.137,176.621c-6.2,2.223-12.353,4.548-18.431,7.017
			c3.136,170.336,192.396,295.304,192.396,295.304s15.073-9.907,24.384-16.75c16.41-50.007,11.841-105.647-14.252-152.818
			c31.133,42.003,39.927,95.026,27.05,143.207c12.137-9.385,23.326-18.924,33.66-28.538c2.347-44.915-11.103-89.954-38.694-126.403
			c31.653,31.257,48.673,73.602,48.843,116.668c9.62-9.508,18.406-19.024,26.465-28.538c-7.364-40.223-27.206-77.655-57.073-106.342
			c32.886,23.695,55.613,58.361,64.933,96.76c8.08-10.109,15.294-20.167,21.791-30.047c-16.26-35.377-41.686-65.597-74.123-87.911
			c34.265,17.223,62.116,44.3,80.301,78.206c6.099-9.935,11.464-19.691,16.178-29.134c-23.84-32.118-54.798-57.248-90.35-73.752
			c37.056,11.784,69.824,33.876,94.925,64.266c5.092-10.971,9.292-21.494,12.771-31.401
			c-31.626-28.738-69.305-49.072-110.267-59.523c41.902,5.311,81.015,22.41,113.654,49.386c3.629-11.359,6.249-21.786,8.177-30.93
			c-38.716-24.978-82.921-39.73-129.241-43.018C360.705,180.725,405.842,192.06,445.449,214.968"/>
		<polygon fill="#FFC726" points="392.295,343.147 392.295,343.147 392.289,343.153 		"/>
		<path fill="#FFC726" d="M153.009,229.718c-0.963,6.946,0.347,18.111,17.446,28.188c13.563,7.984,34.713,9.268,48.818,11.195
			c17.223,2.271,35.834,6.743,41.634,15.642c-5.8-15.689-37.601-17.272-57.864-23.399c-22.232-6.719-21.248-28.415-17.567-39.925
			c2.079-6.451,6.126-13.738,2.325-17.865c-3.093-3.361-9.243-1.165-9.243-1.165c-11.34,3.265-21.441,7.662-29.943,12.948
			C152.886,217.464,153.879,223.461,153.009,229.718"/>
		<path fill="#4E2614" d="M178.906,227.383c-0.353-2.196-2.746-3.697-5.322-3.232c-6.727,1.203-11.868,6.435-11.868,6.435
			c-0.839,0.779-1.129,1.87-0.631,2.601c0.53,0.771,1.774,0.85,2.86,0.221l0.014,0.014c0,0,1.774-1.031,3.684-1.542
			c2.48-0.659,5.125,0.164,5.125,0.164v-0.017c0.656,0.15,1.362,0.194,2.083,0.077C177.442,231.695,179.253,229.579,178.906,227.383
			"/>
		<path fill="#4E2614" d="M245.102,208.558c1.684-0.432,3.275-0.902,4.738-1.4c0.039-0.011,0.077-0.022,0.123-0.038
			c0.094-0.033,0.195-0.068,0.291-0.102c0.133-0.043,0.262-0.09,0.398-0.139l0.172-0.063c0.176-0.06,0.342-0.123,0.515-0.183
			c0.041-0.022,0.085-0.041,0.132-0.058c0.183-0.06,0.363-0.14,0.547-0.205C250.018,207.158,247.66,207.91,245.102,208.558
			 M244.588,208.687c0.021-0.006,0.037-0.006,0.06-0.011C244.625,208.681,244.609,208.681,244.588,208.687 M266.045,222.083
			c-6.719,0-12.18-5.461-12.18-12.207c0-1.641,0.32-3.216,0.908-4.643c4.014-1.742,7.712-3.703,11.004-5.781
			c0,0,0.006-0.005,0.011-0.016c0.118-0.061,0.802-0.487,1.939-1.138c-0.022,0.246-0.047,0.492-0.047,0.735
			c0,2.918,2.349,5.264,5.262,5.264c1.235,0,2.373-0.427,3.271-1.143c1.268,1.931,2.015,4.239,2.015,6.722
			C278.227,216.622,272.789,222.083,266.045,222.083 M266.045,237.451c-15.636,0-28.51-11.879-30.066-27.1
			c0.566-0.079,1.129-0.169,1.69-0.26c1.698-0.268,3.366-0.593,4.979-0.946c0.968,12.076,11.072,21.584,23.396,21.584
			c12.974,0,23.501-10.5,23.501-23.493c0-6.199-2.42-11.862-6.374-16.062c2.308-0.801,4.695-1.512,7.091-2.026
			c3.779,5.045,6.005,11.296,6.005,18.089C296.268,223.937,282.754,237.451,266.045,237.451"/>
		<path fill="#010101" d="M245.102,208.558c1.684-0.432,3.275-0.902,4.738-1.4c0.039-0.011,0.077-0.022,0.123-0.038
			c0.094-0.033,0.195-0.068,0.291-0.102c0.133-0.043,0.262-0.09,0.398-0.139l0.172-0.063c0.176-0.06,0.342-0.123,0.515-0.183
			c0.041-0.022,0.085-0.041,0.132-0.058c0.183-0.06,0.363-0.14,0.547-0.205C250.018,207.158,247.66,207.91,245.102,208.558
			 M244.588,208.687c0.021-0.006,0.037-0.006,0.06-0.011C244.625,208.681,244.609,208.681,244.588,208.687 M266.045,222.083
			c-6.719,0-12.18-5.461-12.18-12.207c0-1.641,0.32-3.216,0.908-4.643c4.014-1.742,7.712-3.703,11.004-5.781
			c0,0,0.006-0.005,0.011-0.016c0.118-0.061,0.802-0.487,1.939-1.138c-0.022,0.246-0.047,0.492-0.047,0.735
			c0,2.918,2.349,5.264,5.262,5.264c1.235,0,2.373-0.427,3.271-1.143c1.268,1.931,2.015,4.239,2.015,6.722
			C278.227,216.622,272.789,222.083,266.045,222.083 M266.045,237.451c-15.636,0-28.51-11.879-30.066-27.1
			c0.566-0.079,1.129-0.169,1.69-0.26c1.698-0.268,3.366-0.593,4.979-0.946c0.968,12.076,11.072,21.584,23.396,21.584
			c12.974,0,23.501-10.5,23.501-23.493c0-6.199-2.42-11.862-6.374-16.062c2.308-0.801,4.695-1.512,7.091-2.026
			c3.779,5.045,6.005,11.296,6.005,18.089C296.268,223.937,282.754,237.451,266.045,237.451"/>
		<path fill="#FFC726" d="M283.172,191.174c-6.178,2.152-11.691,5.018-14.774,6.743c5.605,1.091,9.833,6.033,9.833,11.958
			c0,6.746-5.437,12.207-12.186,12.207c-6.721,0-12.182-5.461-12.182-12.207c0-1.654,0.325-3.232,0.918-4.665
			c-0.889,0.396-1.829,0.787-2.764,1.159c-2.623,1.039-5.861,1.999-9.366,2.77c0.96,12.081,11.066,21.589,23.393,21.589
			c12.971,0,23.499-10.5,23.499-23.493C289.544,201.032,287.126,195.374,283.172,191.174"/>
		<path fill="#FFFFFF" d="M267.681,199.031c0,2.92,2.349,5.267,5.262,5.267c2.917,0,5.264-2.346,5.264-5.267
			c0-2.026-1.138-3.801-2.847-4.671c-3.26,1.512-5.923,2.97-7.632,3.927C267.705,198.538,267.681,198.785,267.681,199.031"/>
		<path fill="#4E2614" d="M226.749,211.019c-5.707,0-10.793-0.914-13.823-3.213c29.353-14.63,61.522-23.23,95.029-25.18
			c-1.261,1.485-5.018,4.274-15.816,6.15c-8.68,1.482-17.636,5.825-22.552,8.488c-0.706,0.383-1.326,0.73-1.859,1.025v0.005
			c-1.138,0.651-1.821,1.075-1.939,1.143c-0.005,0.011-0.017,0.011-0.017,0.011c-3.286,2.083-6.984,4.044-10.998,5.781
			c0-0.005,0.006-0.014,0.006-0.025c-0.892,0.399-1.827,0.791-2.768,1.16c-0.178,0.074-0.358,0.148-0.541,0.213
			c-0.047,0.016-0.091,0.033-0.129,0.052c-0.176,0.06-0.342,0.128-0.518,0.183l-0.178,0.068c-0.128,0.049-0.26,0.096-0.393,0.14
			c-0.094,0.033-0.189,0.06-0.291,0.096c-0.046,0.017-0.084,0.033-0.123,0.044c-1.993,0.672-4.24,1.304-6.62,1.848
			c-0.191,0.044-0.38,0.085-0.571,0.129c-1.613,0.358-3.287,0.684-4.979,0.952C234.023,210.672,230.271,211.019,226.749,211.019"/>
		<path fill="#010101" d="M226.749,211.019c-5.707,0-10.793-0.914-13.823-3.213c29.353-14.63,61.522-23.23,95.029-25.18
			c-1.261,1.485-5.018,4.274-15.816,6.15c-8.68,1.482-17.636,5.825-22.552,8.488c-0.706,0.383-1.326,0.73-1.859,1.025v0.005
			c-1.138,0.651-1.821,1.075-1.939,1.143c-0.005,0.011-0.017,0.011-0.017,0.011c-3.286,2.083-6.984,4.044-10.998,5.781
			c0-0.005,0.006-0.014,0.006-0.025c-0.892,0.399-1.827,0.791-2.768,1.16c-0.178,0.074-0.358,0.148-0.541,0.213
			c-0.047,0.016-0.091,0.033-0.129,0.052c-0.176,0.06-0.342,0.128-0.518,0.183l-0.178,0.068c-0.128,0.049-0.26,0.096-0.393,0.14
			c-0.094,0.033-0.189,0.06-0.291,0.096c-0.046,0.017-0.084,0.033-0.123,0.044c-1.993,0.672-4.24,1.304-6.62,1.848
			c-0.191,0.044-0.38,0.085-0.571,0.129c-1.613,0.358-3.287,0.684-4.979,0.952C234.023,210.672,230.271,211.019,226.749,211.019"/>
		<path fill="#4E2614" d="M254.773,205.232L254.773,205.232c4.014-1.742,7.712-3.703,11.004-5.781c0,0,0.006-0.005,0.011-0.016
			c-0.005,0.011-0.011,0.016-0.011,0.016C262.485,201.53,258.787,203.491,254.773,205.232 M251.339,206.633
			c0.041-0.017,0.085-0.041,0.132-0.052C251.424,206.592,251.38,206.616,251.339,206.633 M250.652,206.879l0.172-0.063
			L250.652,206.879 M249.963,207.12c0.1-0.033,0.195-0.063,0.291-0.096C250.158,207.057,250.057,207.086,249.963,207.12
			 M243.22,209.012c2.38-0.55,4.624-1.181,6.62-1.849c-1.463,0.492-3.055,0.963-4.738,1.395c-0.15,0.039-0.304,0.08-0.454,0.118
			c-0.022,0.005-0.038,0.005-0.06,0.011C244.139,208.798,243.68,208.905,243.22,209.012 M237.669,210.092
			c1.692-0.268,3.366-0.593,4.979-0.952v0.005C241.035,209.499,239.367,209.824,237.669,210.092"/>
		<path fill="#010101" d="M254.773,205.232L254.773,205.232c4.014-1.742,7.712-3.703,11.004-5.781c0,0,0.006-0.005,0.011-0.016
			c-0.005,0.011-0.011,0.016-0.011,0.016C262.485,201.53,258.787,203.491,254.773,205.232 M251.339,206.633
			c0.041-0.017,0.085-0.041,0.132-0.052C251.424,206.592,251.38,206.616,251.339,206.633 M250.652,206.879l0.172-0.063
			L250.652,206.879 M249.963,207.12c0.1-0.033,0.195-0.063,0.291-0.096C250.158,207.057,250.057,207.086,249.963,207.12
			 M243.22,209.012c2.38-0.55,4.624-1.181,6.62-1.849c-1.463,0.492-3.055,0.963-4.738,1.395c-0.15,0.039-0.304,0.08-0.454,0.118
			c-0.022,0.005-0.038,0.005-0.06,0.011C244.139,208.798,243.68,208.905,243.22,209.012 M237.669,210.092
			c1.692-0.268,3.366-0.593,4.979-0.952v0.005C241.035,209.499,239.367,209.824,237.669,210.092"/>
		<path fill="#FFC726" d="M252.014,206.367L252.014,206.367c0.936-0.372,1.877-0.763,2.768-1.159c0,0.011-0.005,0.017-0.011,0.022
			C253.868,205.621,252.949,206.004,252.014,206.367 M244.644,208.673c0.15-0.039,0.307-0.077,0.459-0.118
			C244.951,208.596,244.795,208.634,244.644,208.673 M242.651,209.143v-0.005c0.188-0.044,0.38-0.082,0.565-0.129
			c0.465-0.101,0.916-0.213,1.371-0.325C243.955,208.848,243.305,208.998,242.651,209.143"/>
		<path fill="#010101" d="M252.014,206.367L252.014,206.367c0.936-0.372,1.877-0.763,2.768-1.159c0,0.011-0.005,0.017-0.011,0.022
			C253.868,205.621,252.949,206.004,252.014,206.367 M244.644,208.673c0.15-0.039,0.307-0.077,0.459-0.118
			C244.951,208.596,244.795,208.634,244.644,208.673 M242.651,209.143v-0.005c0.188-0.044,0.38-0.082,0.565-0.129
			c0.465-0.101,0.916-0.213,1.371-0.325C243.955,208.848,243.305,208.998,242.651,209.143"/>
		<path fill="#010101" d="M267.727,198.295v-0.005c0.533-0.298,1.153-0.646,1.859-1.025
			C268.876,197.649,268.255,197.997,267.727,198.295"/>
		<path fill="#FFC726" d="M119.032,242.083c3.558-8.772,9.555-16.454,17.329-22.989c0,0,0.161-0.134,0.454-0.369
			C128.827,225.348,122.664,233.145,119.032,242.083 M118.726,242.86c0.06-0.156,0.123-0.312,0.183-0.465
			C118.849,242.548,118.786,242.704,118.726,242.86 M118.412,243.691c0.052-0.131,0.096-0.254,0.139-0.383
			C118.507,243.438,118.463,243.561,118.412,243.691 M118.11,244.553c0.033-0.107,0.071-0.213,0.104-0.314
			C118.182,244.34,118.144,244.446,118.11,244.553 M117.812,245.436c0.022-0.076,0.049-0.15,0.079-0.224
			C117.862,245.286,117.834,245.36,117.812,245.436 M117.528,246.339c0.016-0.033,0.027-0.071,0.033-0.107
			C117.55,246.268,117.544,246.3,117.528,246.339 M116.524,250.213L116.524,250.213 M116.593,272.773L116.593,272.773
			 M116.866,274.057c-0.016-0.063-0.027-0.123-0.038-0.186C116.839,273.934,116.85,273.993,116.866,274.057 M117.14,275.243
			c-0.016-0.085-0.038-0.175-0.06-0.252C117.102,275.068,117.123,275.158,117.14,275.243 M117.433,276.408
			c-0.022-0.102-0.052-0.208-0.08-0.309C117.38,276.2,117.411,276.307,117.433,276.408 M117.744,277.562
			c-0.027-0.108-0.055-0.214-0.087-0.32C117.689,277.349,117.717,277.455,117.744,277.562 M118.075,278.711
			c-0.033-0.102-0.061-0.203-0.09-0.305C118.015,278.508,118.042,278.609,118.075,278.711 M143.777,295.533
			c4.928-13.022,22.814-21.759,49.075-21.759c1.769,0,3.579,0.041,5.422,0.123c-1.815-0.082-3.602-0.117-5.343-0.117
			C166.624,273.78,148.705,282.5,143.777,295.533 M143.646,295.887c0.041-0.112,0.079-0.219,0.118-0.32
			C143.725,295.668,143.687,295.774,143.646,295.887 M142.298,304.074c-0.022-1.893,0.197-3.843,0.654-5.842
			c0.057-0.229,0.112-0.453,0.175-0.678c-0.063,0.225-0.118,0.448-0.175,0.678C142.495,300.231,142.276,302.182,142.298,304.074"/>
		<path fill="#010101" d="M119.032,242.083c3.558-8.772,9.555-16.454,17.329-22.989c0,0,0.161-0.134,0.454-0.369
			C128.827,225.348,122.664,233.145,119.032,242.083 M118.726,242.86c0.06-0.156,0.123-0.312,0.183-0.465
			C118.849,242.548,118.786,242.704,118.726,242.86 M118.412,243.691c0.052-0.131,0.096-0.254,0.139-0.383
			C118.507,243.438,118.463,243.561,118.412,243.691 M118.11,244.553c0.033-0.107,0.071-0.213,0.104-0.314
			C118.182,244.34,118.144,244.446,118.11,244.553 M117.812,245.436c0.022-0.076,0.049-0.15,0.079-0.224
			C117.862,245.286,117.834,245.36,117.812,245.436 M117.528,246.339c0.016-0.033,0.027-0.071,0.033-0.107
			C117.55,246.268,117.544,246.3,117.528,246.339 M116.524,250.213L116.524,250.213 M116.593,272.773L116.593,272.773
			 M116.866,274.057c-0.016-0.063-0.027-0.123-0.038-0.186C116.839,273.934,116.85,273.993,116.866,274.057 M117.14,275.243
			c-0.016-0.085-0.038-0.175-0.06-0.252C117.102,275.068,117.123,275.158,117.14,275.243 M117.433,276.408
			c-0.022-0.102-0.052-0.208-0.08-0.309C117.38,276.2,117.411,276.307,117.433,276.408 M117.744,277.562
			c-0.027-0.108-0.055-0.214-0.087-0.32C117.689,277.349,117.717,277.455,117.744,277.562 M118.075,278.711
			c-0.033-0.102-0.061-0.203-0.09-0.305C118.015,278.508,118.042,278.609,118.075,278.711 M143.777,295.533
			c4.928-13.022,22.814-21.759,49.075-21.759c1.769,0,3.579,0.041,5.422,0.123c-1.815-0.082-3.602-0.117-5.343-0.117
			C166.624,273.78,148.705,282.5,143.777,295.533 M143.646,295.887c0.041-0.112,0.079-0.219,0.118-0.32
			C143.725,295.668,143.687,295.774,143.646,295.887 M142.298,304.074c-0.022-1.893,0.197-3.843,0.654-5.842
			c0.057-0.229,0.112-0.453,0.175-0.678c-0.063,0.225-0.118,0.448-0.175,0.678C142.495,300.231,142.276,302.182,142.298,304.074"/>
		<path fill="#4E2614" d="M145.675,315.824c-13.151-9.656-22.979-22.314-27.258-35.971c-0.118-0.383-0.23-0.763-0.342-1.143
			c-0.033-0.102-0.055-0.203-0.09-0.305c-0.082-0.283-0.162-0.565-0.241-0.844c-0.027-0.108-0.055-0.214-0.087-0.32
			c-0.074-0.279-0.148-0.555-0.219-0.834c-0.027-0.102-0.058-0.208-0.085-0.309c-0.074-0.285-0.139-0.572-0.213-0.856
			c-0.016-0.085-0.038-0.175-0.06-0.252c-0.074-0.319-0.139-0.629-0.213-0.935c-0.016-0.063-0.027-0.123-0.038-0.186
			c-0.085-0.363-0.164-0.728-0.235-1.097c-1.635-8.094-1.569-15.619-0.068-22.56l0,0c0.285-1.315,0.615-2.603,1.004-3.874
			c0.016-0.039,0.021-0.071,0.033-0.112c0.084-0.263,0.166-0.525,0.251-0.79c0.022-0.076,0.049-0.15,0.079-0.221
			c0.066-0.225,0.14-0.443,0.219-0.662c0.033-0.107,0.071-0.213,0.104-0.314c0.068-0.183,0.137-0.369,0.197-0.547
			c0.052-0.131,0.096-0.254,0.139-0.383c0.063-0.145,0.118-0.295,0.175-0.448c0.06-0.156,0.123-0.312,0.183-0.465
			c0.041-0.104,0.085-0.205,0.123-0.312c3.631-8.939,9.795-16.735,17.783-23.358c1.343-1.056,5.461-4.012,9.15-4.012
			c0.695,0,1.384,0.106,2.029,0.353c0.219,0.085,0.424,0.175,0.621,0.268v0.005c4.274,2.125,5.264,8.127,4.397,14.378
			c-0.134,0.974-0.224,2.038-0.229,3.164c-0.052,6.899,2.978,16.364,17.673,25.021c13.563,7.987,34.713,9.271,48.82,11.195
			c17.22,2.274,35.831,6.749,41.631,15.642c0,0,0,0-0.011-0.006c-0.44-0.268-15.002-8.791-62.622-10.837
			c-1.843-0.082-3.653-0.123-5.422-0.123c-26.26,0-44.147,8.737-49.075,21.759c-0.008,0.017-0.008,0.022-0.014,0.033
			c-0.039,0.102-0.077,0.208-0.118,0.32c-0.194,0.549-0.369,1.102-0.52,1.662c-0.063,0.23-0.118,0.454-0.175,0.684
			c-0.457,1.999-0.676,3.949-0.654,5.842C142.342,308.241,143.512,312.154,145.675,315.824"/>
		<path fill="#010101" d="M145.675,315.824c-13.151-9.656-22.979-22.314-27.258-35.971c-0.118-0.383-0.23-0.763-0.342-1.143
			c-0.033-0.102-0.055-0.203-0.09-0.305c-0.082-0.283-0.162-0.565-0.241-0.844c-0.027-0.108-0.055-0.214-0.087-0.32
			c-0.074-0.279-0.148-0.555-0.219-0.834c-0.027-0.102-0.058-0.208-0.085-0.309c-0.074-0.285-0.139-0.572-0.213-0.856
			c-0.016-0.085-0.038-0.175-0.06-0.252c-0.074-0.319-0.139-0.629-0.213-0.935c-0.016-0.063-0.027-0.123-0.038-0.186
			c-0.085-0.363-0.164-0.728-0.235-1.097c-1.635-8.094-1.569-15.619-0.068-22.56l0,0c0.285-1.315,0.615-2.603,1.004-3.874
			c0.016-0.039,0.021-0.071,0.033-0.112c0.084-0.263,0.166-0.525,0.251-0.79c0.022-0.076,0.049-0.15,0.079-0.221
			c0.066-0.225,0.14-0.443,0.219-0.662c0.033-0.107,0.071-0.213,0.104-0.314c0.068-0.183,0.137-0.369,0.197-0.547
			c0.052-0.131,0.096-0.254,0.139-0.383c0.063-0.145,0.118-0.295,0.175-0.448c0.06-0.156,0.123-0.312,0.183-0.465
			c0.041-0.104,0.085-0.205,0.123-0.312c3.631-8.939,9.795-16.735,17.783-23.358c1.343-1.056,5.461-4.012,9.15-4.012
			c0.695,0,1.384,0.106,2.029,0.353c0.219,0.085,0.424,0.175,0.621,0.268v0.005c4.274,2.125,5.264,8.127,4.397,14.378
			c-0.134,0.974-0.224,2.038-0.229,3.164c-0.052,6.899,2.978,16.364,17.673,25.021c13.563,7.987,34.713,9.271,48.82,11.195
			c17.22,2.274,35.831,6.749,41.631,15.642c0,0,0,0-0.011-0.006c-0.44-0.268-15.002-8.791-62.622-10.837
			c-1.843-0.082-3.653-0.123-5.422-0.123c-26.26,0-44.147,8.737-49.075,21.759c-0.008,0.017-0.008,0.022-0.014,0.033
			c-0.039,0.102-0.077,0.208-0.118,0.32c-0.194,0.549-0.369,1.102-0.52,1.662c-0.063,0.23-0.118,0.454-0.175,0.684
			c-0.457,1.999-0.676,3.949-0.654,5.842C142.342,308.241,143.512,312.154,145.675,315.824"/>
		<path fill="#FFC726" d="M152.779,232.882c0.006-1.132,0.093-2.19,0.23-3.164c0.867-6.251-0.118-12.253-4.397-14.376l0.006-0.005
			c4.29,2.122,5.264,8.124,4.392,14.381C152.873,230.691,152.785,231.749,152.779,232.882"/>
		<path fill="#010101" d="M152.779,232.882c0.006-1.132,0.093-2.19,0.23-3.164c0.867-6.251-0.118-12.253-4.397-14.376l0.006-0.005
			c4.29,2.122,5.264,8.124,4.392,14.381C152.873,230.691,152.785,231.749,152.779,232.882"/>
		<path fill="#4E2614" d="M260.91,284.74"/>
		<path fill="#010101" d="M260.91,284.74"/>
		<path fill="#FFFFFF" d="M163.745,211.21c-16.583,7.159-30.611,22.609-29.676,23.73c0.687,0.823,7.687-9.486,31.776-18.879
			c1.354-0.531,1.955-2.133,1.373-3.473C166.641,211.251,165.082,210.636,163.745,211.21"/>
	</g>
</g>
</svg>
