<?xml version="1.0" encoding="utf-8"?>
<!-- Generator: Adobe Illustrator 19.1.0, SVG Export Plug-In . SVG Version: 6.00 Build 0)  -->
<svg version="1.1" id="Layer_1" xmlns="http://www.w3.org/2000/svg" xmlns:xlink="http://www.w3.org/1999/xlink" x="0px" y="0px"
	 viewBox="0 0 150 150" enable-background="new 0 0 150 150" xml:space="preserve">
<g>
	<polygon fill="#FFFFFF" points="145.17,49.734 145.17,50.074 144.212,50.074 144.212,52.586 143.82,52.586 143.82,50.074 
		142.855,50.074 142.855,49.734 	"/>
	<path fill="#FFFFFF" d="M145.514,49.734h0.553l0.818,2.408l0.813-2.408h0.546v2.852h-0.369v-1.685c0-0.057,0.004-0.155,0.004-0.292
		c0.005-0.13,0.005-0.276,0.005-0.432l-0.813,2.408h-0.38l-0.823-2.408v0.088c0,0.067,0.004,0.177,0.004,0.318
		c0.006,0.146,0.006,0.251,0.006,0.317v1.685h-0.365V49.734z"/>
	<rect x="1.334" y="50.392" fill="#FFFFFF" width="138.644" height="50.004"/>
	<rect x="1.334" y="50.392" fill="none" stroke="#FFFFFF" stroke-width="0.3042" width="138.644" height="50.004"/>
	<path fill="#001689" d="M13.902,50.767H1.652v33.396c2.695-0.302,7.115-0.917,12.25-2.111V50.767z"/>
	<path fill="#001689" d="M31.885,75.803V50.767H19.046v29.94c3.018-0.881,6.151-1.965,9.232-3.289
		C29.498,76.893,30.697,76.35,31.885,75.803z"/>
	<path fill="#001689" d="M49.957,50.767H37.118v22.565c4.379-2.096,8.617-4.124,12.839-5.656V50.767z"/>
	<path fill="#001689" d="M67.998,65.356V50.767H54.831v15.382C59.152,65.038,63.494,64.616,67.998,65.356z"/>
	<path fill="#001689" d="M85.981,72.102V50.767H72.814V67.51c1.324,0.693,2.611,1.474,3.408,2.236
		C76.223,69.745,79.028,74.203,85.981,72.102z"/>
	<path fill="#001689" d="M104.084,61.368V50.767H90.917v19.041c0.537-0.33,1.09-0.678,1.664-1.08
		C92.581,68.728,98.638,64.283,104.084,61.368z"/>
	<path fill="#001689" d="M111.424,58.94c0,0,4.066-0.187,7.761,2.216c0,0,0.897,0.516,2.852,0.979V50.767h-13.167v8.48
		C109.897,58.929,110.783,58.799,111.424,58.94z"/>
	<path fill="#001689" d="M133.041,64.784c0,0,2.027,2.366,6.443,1.735V50.767h-12.839v12.018c0.162,0.012,0.318,0.027,0.484,0.033
		C127.129,62.819,129.532,62.286,133.041,64.784z"/>
	<path fill="#001689" d="M137.748,68.786c0,0-3.561-0.094-4.875-1.783c0,0-2.147-2.09-5.833-2.001c0,0-1.642-0.178-2.308-0.265
		c0,0-1.158-0.179-0.579,0.667c0,0,1.068,1.772,1.11,1.996c0,0,0.265,0.667-0.442,0.089c0,0-6.527-6.037-13.542-6.125
		c0,0-3.374-0.579-10.213,4.394c-6.563,4.769-12.432,8.657-17.05,9.141c0,0-4.885,0.491-7.412-1.996c0,0-2.664-2.221-3.154-2.309
		c0,0-0.891-0.484-0.354,0.36c0,0,3.508,5.771,10.343,6.259c0,0,6.614-0.313,8.302-0.843c0,0,1.554-0.137,4.755-1.199
		c0,0,2.752-1.288,3.951-0.537c0,0,1.82,1.559,3.686,1.559c0,0,0.13,2.439-2.752,4.707c0,0-1.737,0.928-1.689,1.819
		c0,0-0.225,0.934,0.667,1.596c0,0,0.974,1.11,1.288,1.735c0,0,1.11,2.527,2.038,3.373c0,0,1.423,2.308,4.133,5.551
		c0,0,1.773,2.262,2.529,1.288c0,0,0.577-1.069-1.778-3.999c0,0-3.952-5.947-3.284-7.814c0,0,0.177-1.997,1.825-2.398
		c0,0,5.545-2.22,9.454-5.729c0,0,0.84-0.307,0.933-0.131c0,0,0.444,1.288-0.755,2.309c0,0-1.157,1.199-1.956,1.152
		c0,0-1.511-0.578-1.688,0.178c0,0-0.443,0.801,1.465,1.151c0,0,3.909,0.845,9.284-4.17c0,0,6.881-6.13,7.234-6.13
		c0,0,5.328-0.089,5.906-0.177c0,0,1.731-0.443,1.601-1.016C138.586,69.491,138.712,69.041,137.748,68.786z"/>
	<polygon fill="#001689" points="5.04,96.465 8.11,100.162 5.937,100.162 3.184,96.897 3.184,100.162 1.449,100.162 1.449,93.202 
		3.184,93.202 3.184,96.355 3.205,96.355 5.4,93.202 7.307,93.202 	"/>
	<path fill="#001689" d="M20.381,94.866l-1.021,2.704h2.142L20.381,94.866z M24.452,100.162h-1.866l-0.573-1.376H18.9l-0.521,1.376
		h-1.84l2.809-6.96h2.012L24.452,100.162z"/>
	<polygon fill="#001689" points="40.804,100.162 39.344,100.162 35.492,95.7 35.492,100.162 33.762,100.162 33.762,93.202 
		35.351,93.202 39.068,97.455 39.068,93.202 40.804,93.202 	"/>
	<path fill="#001689" d="M57.578,95.199c-0.886-0.428-1.747-0.641-2.601-0.641c-1.887,0-2.554,1.163-2.554,2.195
		c0,1.235,0.975,2.054,2.413,2.054c0.428,0,0.641-0.042,1.152-0.245v-0.818h-1.011v-1.277h2.747v2.851
		c-0.521,0.537-1.809,0.938-2.93,0.938c-2.429,0-4.154-1.481-4.154-3.566c0-2.121,1.715-3.58,4.196-3.58
		c1.038,0,2.049,0.235,2.742,0.574V95.199z"/>
	<path fill="#001689" d="M70.818,94.866l-1.022,2.704h2.142L70.818,94.866z M74.889,100.162h-1.866l-0.573-1.376h-3.112
		l-0.521,1.376h-1.835l2.805-6.96h2.012L74.889,100.162z"/>
	<path fill="#001689" d="M86.022,96.059h0.918c0.479,0,0.948-0.204,0.948-0.797c0-0.521-0.333-0.788-0.99-0.788h-0.876V96.059z
		 M87.4,93.202c1.432,0,2.277,0.959,2.277,1.997c0,0.767-0.396,1.339-1.193,1.71c0.714,0.355,0.928,1.214,1.907,3.253h-1.907
		c-0.746-1.492-1.021-2.826-1.96-2.826h-0.501v2.826h-1.735v-6.96H87.4z"/>
	<path fill="#001689" d="M103.386,94.557c-1.329,0-2.205,0.85-2.205,2.122c0,1.277,0.876,2.127,2.205,2.127
		c1.313,0,2.189-0.85,2.189-2.127C105.575,95.407,104.699,94.557,103.386,94.557z M103.386,100.254
		c-2.554,0-3.992-1.798-3.992-3.575c0-1.684,1.365-3.571,3.992-3.571c2.622,0,3.977,1.898,3.977,3.571
		C107.363,98.467,105.883,100.254,103.386,100.254z"/>
	<path fill="#001689" d="M120.786,94.557c-1.329,0-2.205,0.85-2.205,2.122c0,1.277,0.876,2.127,2.205,2.127
		c1.314,0,2.194-0.85,2.194-2.127C122.98,95.407,122.1,94.557,120.786,94.557z M120.786,100.254c-2.555,0-3.993-1.798-3.993-3.575
		c0-1.684,1.371-3.571,3.993-3.571c2.622,0,3.977,1.898,3.977,3.571C124.763,98.467,123.288,100.254,120.786,100.254z"/>
	<path fill="#001689" d="M139.165,95.006c-1.011-0.449-1.611-0.62-2.205-0.62c-0.62,0-1.021,0.224-1.021,0.573
		c0,1.048,3.545,0.751,3.545,3.18c0,1.339-1.127,2.116-2.675,2.116c-1.214,0-1.819-0.317-2.512-0.677v-1.496
		c1.001,0.662,1.611,0.897,2.378,0.897c0.661,0,1.021-0.235,1.021-0.642c0-1.147-3.539-0.73-3.539-3.225
		c0-1.204,1.037-2.002,2.653-2.002c0.777,0,1.481,0.166,2.357,0.542V95.006z"/>
</g>
</svg>
