<?xml version="1.0" encoding="utf-8"?>
<!-- Generator: Adobe Illustrator 19.1.0, SVG Export Plug-In . SVG Version: 6.00 Build 0)  -->
<svg version="1.1" id="Layer_1" xmlns="http://www.w3.org/2000/svg" xmlns:xlink="http://www.w3.org/1999/xlink" x="0px" y="0px"
	 viewBox="0 0 150 150" enable-background="new 0 0 150 150" xml:space="preserve">
<g>
	<g>
		<defs>
			<polyline id="SVGID_1_" points="14.922,3.094 136.268,3.094 136.268,148.632 14.922,148.632 14.922,3.094 			"/>
		</defs>
		<clipPath id="SVGID_2_">
			<use xlink:href="#SVGID_1_"  overflow="visible"/>
		</clipPath>
		<path clip-path="url(#SVGID_2_)" fill="#193E5F" d="M134.863,143.872c0.489,0.483,0.725,1.069,0.725,1.759
			c0,0.694-0.236,1.282-0.725,1.771c-0.481,0.489-1.069,0.733-1.757,0.733c-0.694,0-1.274-0.244-1.763-0.733
			c-0.481-0.489-0.717-1.077-0.717-1.771c0-0.69,0.244-1.276,0.725-1.759c0.489-0.487,1.069-0.733,1.756-0.733
			C133.794,143.14,134.382,143.385,134.863,143.872z M135.153,143.592c-0.565-0.557-1.245-0.841-2.047-0.841
			c-0.793,0-1.473,0.284-2.038,0.841c-0.566,0.565-0.847,1.245-0.847,2.039c0,0.801,0.281,1.489,0.839,2.053
			c0.565,0.565,1.243,0.848,2.046,0.848c0.802,0,1.482-0.284,2.047-0.848c0.566-0.565,0.847-1.253,0.847-2.053
			C136,144.837,135.719,144.156,135.153,143.592z M133.535,145.5c-0.114,0.046-0.299,0.069-0.535,0.069h-0.505v-1.154h0.481
			c0.306,0,0.535,0.046,0.673,0.123c0.145,0.076,0.213,0.236,0.213,0.464C133.862,145.247,133.755,145.409,133.535,145.5z
			 M131.938,147.211h0.557v-1.253h0.444c0.296,0,0.503,0.039,0.626,0.1c0.197,0.122,0.296,0.367,0.296,0.733v0.251l0.009,0.099
			c0.006,0.017,0.006,0.031,0.006,0.039c0.009,0.009,0.009,0.023,0.009,0.031h0.526l-0.023-0.039
			c-0.008-0.031-0.015-0.083-0.023-0.167c-0.008-0.085-0.008-0.162-0.008-0.238v-0.23c0-0.16-0.062-0.327-0.176-0.497
			c-0.114-0.167-0.296-0.267-0.542-0.306c0.19-0.031,0.344-0.083,0.458-0.153c0.207-0.136,0.313-0.342,0.313-0.625
			c0-0.406-0.168-0.671-0.497-0.81c-0.184-0.076-0.474-0.114-0.862-0.114h-1.115V147.211z"/>
		<rect x="15.403" y="3.499" clip-path="url(#SVGID_2_)" fill="#0D2240" width="120.216" height="136.32"/>
		
			<rect x="15.403" y="3.499" clip-path="url(#SVGID_2_)" fill="none" stroke="#193E5F" stroke-width="0.3105" stroke-miterlimit="3.8636" width="120.216" height="136.32"/>
		<path clip-path="url(#SVGID_2_)" fill="#FFFFFF" d="M83.287,100.485c0.597,0.572,1.459,0.595,2.132-0.091
			c0.916-0.947,0.497-1.978,0.062-2.407c-0.703-0.671-1.543-0.586-2.184,0.077C82.516,98.867,82.686,99.905,83.287,100.485z"/>
		<path clip-path="url(#SVGID_2_)" fill="#FFFFFF" d="M82.456,103.401c0.862-0.899,0.955-1.709,0.603-2.053
			c-0.29-0.275-0.694-0.153-0.938,0.025l-0.015-0.009c0.16-0.474,0.022-0.725-0.093-0.839c-0.168-0.16-0.503-0.321-1.175,0.251
			c-0.23,0.182-0.42,0.366-0.75,0.71c0.077,0.046,0.611,0.558,0.703,0.651l0.344,0.327c0.06,0.052,0.986,0.947,1.137,1.131
			L82.456,103.401z"/>
		<path clip-path="url(#SVGID_2_)" fill="#CF0A2C" d="M50.27,85.503l21.473,22.131l20.93-22.131h-7.247
			c3.85-3.405,5.368-10.735,5.368-10.735c-4.023,2.863-9.376,2.854-9.376,2.771c0.717-11.454-3.956-15.983-3.956-15.983
			s0.275,4.446-1.161,6.767c-0.046,0.076-3.895-1.452-7.606,0.091c-0.03,0.014-1.336-2.687-1.344-6.766
			c0-0.037-4.024,4.704-4.467,13.204c0,0-4.025-4.023-3.941-9.179c0-0.031-6.979,8.193-0.985,19.831H50.27z"/>
		<path clip-path="url(#SVGID_2_)" fill="none" stroke="#E03D40" stroke-width="0.0298" stroke-miterlimit="3.8636" d="
			M50.27,85.503l21.473,22.131l20.93-22.131h-7.247c3.85-3.405,5.368-10.735,5.368-10.735c-4.023,2.863-9.376,2.854-9.376,2.771
			c0.717-11.454-3.956-15.983-3.956-15.983s0.275,4.446-1.161,6.767c-0.046,0.076-3.895-1.452-7.606,0.091
			c-0.03,0.014-1.336-2.687-1.344-6.766c0-0.037-4.024,4.704-4.467,13.204c0,0-4.025-4.023-3.941-9.179
			c0-0.031-6.979,8.193-0.985,19.831H50.27z"/>
		<path clip-path="url(#SVGID_2_)" fill="#CF0A2C" d="M56.348,84.739c-22.137-16.601-9.721-48.427,29.833-51.758
			c0.009,0-0.022,0-0.022,0c-18.938,9.996-12.035,20.045,1.206,10.286c13.838-10.194,24.092-9.378,35.012-4.964
			c0.046,0.015-0.031,0.031-0.031,0.031c-23.581,0.352-33.576,26.597-19.411,19.22c5.995-3.122,15.348,0.261,16.044,5.1v-0.021
			c-7.431-5.796-16.388-1.009-26.779,7.352c-5.513,4.438-11.15,1.337-8.247-6.268c2.809-7.362,5.643-11.882,10.2-15.883
			c0.009-0.008,0.015-0.031,0-0.031c-7.14,2.406-16.189,11.369-17.784,14.135c-2.673,4.634-6.682,6.65-6.292,0.105
			c0.215-3.687,1.085-8.361,2.711-11.18c0.023-0.043,0.267-0.153,0.191-0.128C61.503,53.905,47.46,64.451,56.348,84.739z"/>
		<path clip-path="url(#SVGID_2_)" fill="#FFFFFF" d="M72.231,75.744c0,0,1.901-4.33,4.849-5.78c0,0,1.216,1.97,1.796,3.818
			c0.472,1.527,0.373,2.863,0.373,2.863s-1.359,2.451-6.559,3.551c-0.023,0,0.29,7.047,0.29,7.047l-2.596,0.054l0.634,1.62
			c0,0,1.948,0.037,1.962,0.06c1.726,2.774,1.421,3.886,1.421,3.886c-0.565-1.137-2.52-2.962-2.574-2.902
			c-2.222,2.178-2.589,3.369-2.589,3.369c0.589-0.497,2.543-1.61,2.528-1.634c0,0,2.444,1.404,2.543,1.381l-0.695,1.1l-1.787-0.87
			l-0.083,4.321c0,0,2.764-2.229,4.36-4.375c0,0-1.786,3.903-4.39,5.316c0,0-3.841-2.444-6.849-9.921
			c-3.322-8.284-1.879-12.728-1.413-14.003c1.046-2.842,2.535-4.912,2.535-4.912C68.994,71.01,72.231,75.744,72.231,75.744z"/>
		<path clip-path="url(#SVGID_2_)" fill="#CF0A2C" d="M65.565,76.951c0,0,3.948,2.894,5.338,3.132c0,0-1.78,2.396-1.848,2.366
			C66.565,81.409,65.565,76.951,65.565,76.951z"/>
		<path clip-path="url(#SVGID_2_)" fill="#FFFFFF" d="M73.613,81.349c0,0,1,6.706,1.024,6.697
			c5.506-2.076,4.673-10.751,4.666-10.729c-1.429,2.552-4.475,5.537-4.475,5.537L73.613,81.349z"/>
		<path clip-path="url(#SVGID_2_)" fill="none" stroke="#FFFFFF" stroke-width="0.0298" stroke-miterlimit="3.8636" d="
			M73.613,81.349c0,0,1,6.706,1.024,6.697c5.506-2.076,4.673-10.751,4.666-10.729c-1.429,2.552-4.475,5.537-4.475,5.537
			L73.613,81.349z"/>
		<path clip-path="url(#SVGID_2_)" fill="#FFFFFF" d="M75.225,111.031c-0.084-0.176-0.787-1.473-0.885-1.665l0.007-0.009
			c0.184,0.062,1.138,0.322,1.695,0.437l0.015-0.015c-0.092-0.451-0.397-1.618-0.427-1.779c0.114,0.039,1.45,0.634,1.786,0.764
			l0.253-0.671c-0.336-0.123-2.337-0.916-2.872-1.109l-0.023,0.023c0.076,0.306,0.458,1.672,0.527,1.962
			c-0.245-0.06-1.642-0.427-2.039-0.534l-0.023,0.023c0.153,0.358,1.298,2.695,1.367,2.871L75.225,111.031z"/>
		<path clip-path="url(#SVGID_2_)" fill="#FFFFFF" d="M79.196,105.968c-0.17,0.199-0.596,0.626-0.673,0.702l-0.518-0.503
			c0.06-0.06,0.487-0.481,0.555-0.559l-0.389-0.366c-0.13,0.153-0.458,0.534-0.518,0.588l-0.558-0.535
			c0.054-0.052,0.528-0.572,0.626-0.679l-0.404-0.367c-0.092,0.108-0.955,1.094-1.084,1.222c0.084,0.077,0.825,0.779,0.878,0.832
			l0.413,0.398c0.068,0.06,0.725,0.696,0.876,0.864c0.116-0.114,1.146-1.123,1.222-1.206L79.196,105.968z"/>
		<path clip-path="url(#SVGID_2_)" fill="#FFFFFF" d="M81.159,103.876c-0.238,0.275-0.589,0.642-0.657,0.717l-0.688-0.665
			c-0.389-0.375-1-0.986-1.061-1.06l-0.534,0.549c0.062,0.052,0.824,0.778,0.878,0.825l0.406,0.396
			c0.076,0.068,0.731,0.703,0.876,0.878c0.176-0.184,1.169-1.152,1.231-1.214L81.159,103.876z"/>
		<path clip-path="url(#SVGID_2_)" fill="#193E5F" d="M80.869,101.257c0.151-0.168,0.457-0.396,0.687-0.184
			c0.214,0.207,0.16,0.58-0.045,0.801L80.869,101.257z"/>
		<path clip-path="url(#SVGID_2_)" fill="#193E5F" d="M81.76,102.119c0.261-0.298,0.605-0.412,0.802-0.215
			c0.214,0.207,0.093,0.62-0.122,0.872L81.76,102.119z"/>
		<path clip-path="url(#SVGID_2_)" fill="#193E5F" d="M83.809,99.882c-0.475-0.458-0.506-1.038-0.154-1.398
			c0.313-0.319,0.817-0.36,1.283,0.099c0.534,0.52,0.42,1.084,0.137,1.374C84.747,100.303,84.244,100.303,83.809,99.882z"/>
		<path clip-path="url(#SVGID_2_)" fill="#FFFFFF" d="M87.519,94.788c-0.245-0.236-0.466-0.441-0.535-0.511l-0.518,0.542
			c0.114,0.108,0.327,0.291,0.534,0.487l0.114,0.116c0.582,0.557,0.811,0.787,0.872,1.054c0.045,0.205,0,0.406-0.16,0.572
			c-0.137,0.147-0.313,0.222-0.542,0.184c-0.275-0.037-0.527-0.228-0.993-0.679l-0.207-0.207c-0.275-0.267-0.435-0.429-0.503-0.52
			l-0.528,0.543c0.068,0.068,0.313,0.306,0.451,0.443l0.168,0.16c0.748,0.717,1.032,0.893,1.398,0.961
			c0.557,0.1,0.939-0.221,1.146-0.433c0.327-0.336,0.472-0.71,0.426-1.115c-0.052-0.505-0.389-0.895-0.976-1.458L87.519,94.788z"/>
		<path clip-path="url(#SVGID_2_)" fill="#FFFFFF" d="M90.513,95.026c-0.056-0.039-0.841-0.779-0.956-0.893l-0.886-0.855
			c0.42-0.437,0.68-0.375,0.825-0.238c0.236,0.228,0.176,0.656,0.116,0.878c0.213,0.039,1.701,0.259,1.846,0.29l0.085-0.756
			c-0.17-0.008-1.216-0.046-1.398-0.062c0.062-0.404,0.031-0.754-0.228-1c-0.276-0.267-0.682-0.199-1.162,0.191
			c-0.282,0.228-0.634,0.58-0.932,0.892c0.07,0.048,0.725,0.673,0.816,0.757l0.253,0.244c0.068,0.062,1.046,0.993,1.108,1.077
			L90.513,95.026z"/>
		<path clip-path="url(#SVGID_2_)" fill="#FFFFFF" d="M92.796,92.704c-0.108-0.091-1.222-1.199-1.33-1.299l0.008-0.008
			c0.091,0.017,2.49-0.174,2.902-0.251l0.008-0.031c-0.267-0.275-0.711-0.739-1.131-1.191c-0.42-0.45-0.808-0.879-0.976-1.061
			l-0.481,0.474c0.114,0.114,1.177,1.162,1.307,1.283c-0.191,0.008-2.391,0.184-2.903,0.251l-0.006,0.031
			c0.167,0.19,0.648,0.702,1.106,1.191c0.458,0.489,0.893,0.963,1.001,1.075L92.796,92.704z"/>
		<path clip-path="url(#SVGID_2_)" fill="#FFFFFF" d="M96.056,88.504c-0.168,0.199-0.596,0.634-0.665,0.711l-0.526-0.512
			c0.06-0.06,0.489-0.481,0.565-0.557l-0.396-0.366c-0.123,0.153-0.458,0.532-0.512,0.586l-0.565-0.534
			c0.052-0.052,0.527-0.572,0.626-0.68l-0.404-0.367c-0.093,0.108-0.956,1.094-1.086,1.231c0.085,0.07,0.833,0.771,0.879,0.824
			l0.412,0.398c0.069,0.069,0.726,0.702,0.878,0.862c0.114-0.114,1.146-1.123,1.229-1.208L96.056,88.504z"/>
	</g>
</g>
</svg>
