<?xml version="1.0" encoding="utf-8"?>
<!-- Generator: Adobe Illustrator 19.1.0, SVG Export Plug-In . SVG Version: 6.00 Build 0)  -->
<svg version="1.1" id="Layer_1" xmlns="http://www.w3.org/2000/svg" xmlns:xlink="http://www.w3.org/1999/xlink" x="0px" y="0px"
	 viewBox="0 0 150 150" enable-background="new 0 0 150 150" xml:space="preserve">
<g>
	<g>
		<path fill="#FFFFFF" d="M124.701,131.731c0.411,0.418,0.616,0.916,0.616,1.502c0,0.59-0.205,1.096-0.616,1.512
			c-0.411,0.418-0.912,0.623-1.501,0.623c-0.588,0-1.089-0.205-1.501-0.623c-0.41-0.416-0.616-0.922-0.616-1.512
			c0-0.586,0.209-1.084,0.62-1.502c0.414-0.416,0.912-0.623,1.497-0.623C123.786,131.109,124.287,131.315,124.701,131.731z
			 M124.947,131.496c-0.483-0.481-1.066-0.722-1.747-0.722c-0.678,0-1.257,0.242-1.737,0.722c-0.479,0.479-0.722,1.058-0.722,1.737
			c0,0.684,0.24,1.269,0.716,1.75c0.479,0.484,1.062,0.722,1.744,0.722c0.682,0,1.264-0.238,1.747-0.722
			c0.479-0.487,0.718-1.066,0.718-1.75C125.665,132.554,125.426,131.975,124.947,131.496z M123.565,133.122
			c-0.101,0.036-0.252,0.055-0.452,0.055h-0.43v-0.978h0.406c0.264,0,0.457,0.03,0.575,0.099c0.122,0.069,0.181,0.2,0.181,0.399
			C123.845,132.903,123.752,133.046,123.565,133.122z M122.207,134.578h0.475v-1.064h0.377c0.253,0,0.429,0.03,0.528,0.086
			c0.172,0.099,0.257,0.306,0.257,0.623v0.213l0.009,0.087c0.004,0.014,0.006,0.025,0.006,0.031
			c0.002,0.006,0.006,0.018,0.006,0.025h0.448l-0.019-0.032c-0.009-0.025-0.018-0.068-0.02-0.143
			c-0.005-0.068-0.007-0.137-0.007-0.199v-0.2c0-0.136-0.049-0.273-0.148-0.416c-0.098-0.143-0.253-0.238-0.464-0.268
			c0.165-0.025,0.296-0.069,0.391-0.131c0.175-0.113,0.266-0.293,0.266-0.536c0-0.336-0.141-0.566-0.42-0.684
			c-0.156-0.063-0.403-0.093-0.737-0.093h-0.947V134.578z"/>
		<polygon points="40.993,15.038 124.439,15.051 124.439,44.064 148.016,37.289 142.06,61.98 124.439,63.978 124.439,64.365 
			132.173,73.164 124.439,74.041 124.439,128.102 107.346,128.102 68.58,128.102 40.993,128.094 40.993,89.835 1.792,94.019 
			38.624,81.285 34.413,76.54 40.993,74.615 		"/>
		<polygon points="40.993,15.038 124.439,15.051 124.439,44.064 148.016,37.289 142.06,61.98 124.439,63.978 124.439,64.365 
			132.173,73.164 124.439,74.041 124.439,128.102 107.346,128.102 68.58,128.102 40.993,128.094 40.993,89.835 1.792,94.019 
			38.624,81.285 34.413,76.54 40.993,74.615 		"/>
		<polygon fill="#0099A8" points="46.074,73.134 46.08,45.067 119.374,45.067 119.374,45.52 97.537,51.793 102.145,56.893 
			96.506,58.505 94.707,56.574 87.708,53.748 84.339,56.071 80.206,54.681 75.303,58.687 71.403,58.299 67.701,62.08 64.274,61.376 
			59.068,67.011 59.447,69.229 		"/>
		<path fill="#FFFFFF" d="M51.097,39.188v-5.767h4.321l2.615-2.417v-7.746l-2.508-2.36H46.08v18.29H51.097z M51.097,29.354v-4.396
			h1.868v4.396H51.097z"/>
		<path fill="#FFFFFF" d="M62.959,39.188h6.832l2.506-2.387V23.308l-2.506-2.41h-6.832l-2.506,2.41v13.493L62.959,39.188z
			 M65.441,35.122V24.933h1.843v10.189H65.441z"/>
		<polygon fill="#FFFFFF" points="76.566,39.188 82.205,39.188 83.414,29.474 84.625,39.188 90.264,39.188 92.666,20.898 
			88.093,20.898 87.14,30.246 86.019,20.898 80.889,20.898 79.633,29.866 78.711,20.898 74.138,20.898 		"/>
		<polygon fill="#FFFFFF" points="104.966,39.188 104.966,34.616 99.658,34.616 99.658,32.076 104.567,32.076 104.567,27.68 
			99.658,27.68 99.658,25.295 105.022,25.295 105.022,20.898 94.642,20.898 94.642,39.188 		"/>
		<path fill="#FFFFFF" d="M112.461,39.188V31.82h1.975v7.368h4.991v-7.443l-2.027-1.905l2.052-2.012v-4.521l-2.535-2.41h-9.472
			v18.29H112.461z M112.461,27.91v-3.176h1.975v3.176H112.461z"/>
		<polygon fill="#FFFFFF" points="51.15,88.751 51.15,123.033 46.08,123.033 46.065,89.292 		"/>
		<polygon fill="#FFFFFF" points="60.895,87.711 60.895,123.033 55.826,123.033 55.826,88.247 		"/>
		<polygon fill="#FFFFFF" points="68.852,123.033 65.572,123.033 65.57,114.265 		"/>
		<polygon fill="#FFFFFF" points="65.566,109.177 65.557,92.712 65.553,81.235 69.081,91.897 71.811,92.674 		"/>
		<polygon fill="#FFFFFF" points="99.878,87.866 99.878,109.004 95.591,103.932 93.872,93.062 		"/>
		<polygon fill="#FFFFFF" points="109.624,75.729 109.624,123.033 105.24,123.033 104.558,119.8 104.558,76.308 		"/>
		<polygon fill="#FFFFFF" points="119.374,74.621 119.374,123.033 114.304,123.033 114.304,75.201 		"/>
		<polygon fill="#FFFFFF" points="143.096,42.083 138.989,59.177 117.188,61.594 125.181,70.748 104.558,73.015 103.575,71.583 
			94.826,67.067 94.813,62.303 108.248,58.28 103.806,53.399 		"/>
		<polygon fill="#B2B8BF" points="91.833,72.311 94.246,70.724 101.044,74.23 98.245,82.805 91.381,75.282 		"/>
		<polygon fill="#B2B8BF" points="94.813,86.147 88.573,89.381 80.972,86.939 73.073,88.384 69.345,80.443 78.012,78.931 
			74.177,81.659 75.318,83.695 80.075,80.955 88.915,77.549 		"/>
		<polygon fill="#B2B8BF" points="80.387,75.755 77.223,72.379 78.618,60.505 80.926,58.622 83.019,59.327 81.088,71.159 
			79.173,71.64 82.084,75.543 		"/>
		<polygon fill="#B2B8BF" points="74.094,76.458 70.147,73.781 70.698,64.042 72.733,61.955 74.907,62.174 74.233,72.846 
			72.541,73.233 75.941,76.223 		"/>
		<polygon fill="#B2B8BF" points="66.254,77.343 64.055,75.917 62.817,68.127 65.507,65.212 67.319,65.586 67.584,74.435 
			65.809,74.858 68.222,77.12 		"/>
		<polygon fill="#B2B8BF" points="87.486,58.163 88.143,57.708 91.21,58.947 89.89,68.955 86.988,69.758 87.604,74.921 
			86.203,75.094 84.286,70.792 		"/>
		<polygon fill="#FFFFFF" points="59.959,72.348 40.475,77.984 44.773,82.655 26.807,88.11 58.446,84.069 53.584,78.794 
			60.962,77.91 		"/>
		<polygon fill="#B2B8BF" points="97.931,123.033 97.151,114.85 89.536,105.053 88.963,94.624 81.216,91.099 75.539,92.693 
			71.052,112.297 76.938,123.033 		"/>
	</g>
</g>
</svg>
