<?xml version="1.0" encoding="utf-8"?>
<!-- Generator: Adobe Illustrator 19.1.0, SVG Export Plug-In . SVG Version: 6.00 Build 0)  -->
<svg version="1.1" id="Layer_1" xmlns="http://www.w3.org/2000/svg" xmlns:xlink="http://www.w3.org/1999/xlink" x="0px" y="0px"
	 viewBox="0 0 150 150" enable-background="new 0 0 150 150" xml:space="preserve">
<g>
	<path d="M130.9,118.901c0.497,0.505,0.746,1.107,0.746,1.811c0,0.712-0.249,1.314-0.746,1.819
		c-0.497,0.495-1.097,0.744-1.801,0.744c-0.713,0-1.314-0.249-1.812-0.744c-0.487-0.505-0.735-1.107-0.735-1.819
		c0-0.704,0.248-1.306,0.744-1.811c0.495-0.495,1.097-0.744,1.803-0.744C129.803,118.157,130.403,118.406,130.9,118.901z
		 M131.196,118.623c-0.576-0.578-1.282-0.866-2.097-0.866c-0.819,0-1.514,0.288-2.091,0.866c-0.578,0.576-0.866,1.272-0.866,2.089
		c0,0.825,0.28,1.523,0.856,2.107c0.578,0.578,1.275,0.866,2.1,0.866c0.816,0,1.521-0.288,2.097-0.866
		c0.576-0.584,0.866-1.29,0.866-2.107C132.062,119.895,131.772,119.191,131.196,118.623z M129.539,120.576
		c-0.129,0.047-0.304,0.073-0.545,0.073h-0.519v-1.186h0.489c0.32,0,0.544,0.049,0.688,0.128c0.144,0.081,0.215,0.241,0.215,0.474
		C129.866,120.312,129.763,120.488,129.539,120.576z M127.897,122.33h0.578v-1.282h0.447c0.304,0,0.521,0.032,0.641,0.105
		c0.209,0.12,0.304,0.367,0.304,0.744v0.256l0.016,0.104c0,0.018,0.01,0.032,0.01,0.04c0,0.01,0.006,0.024,0.006,0.032h0.537
		l-0.016-0.04c-0.016-0.024-0.023-0.079-0.032-0.168c-0.006-0.089-0.006-0.167-0.006-0.24v-0.241c0-0.167-0.057-0.337-0.178-0.505
		c-0.12-0.175-0.304-0.28-0.56-0.32c0.201-0.032,0.361-0.087,0.473-0.16c0.209-0.136,0.32-0.353,0.32-0.641
		c0-0.408-0.168-0.68-0.505-0.824c-0.191-0.081-0.489-0.113-0.888-0.113h-1.146V122.33z"/>
	<path d="M135.193,84.444l-1.168-18.055c0,0-8.075,28.099-29.669,49.308c-0.024,0,7.882,12.858,7.905,12.832
		c1.05-1.008,22.612-17.07,35.781-54.85C148.098,73.51,135.193,84.444,135.193,84.444z"/>
	<path fill="none" stroke="#000000" stroke-width="0.2016" stroke-miterlimit="5" d="M135.193,84.444l-1.168-18.055
		c0,0-8.075,28.099-29.669,49.308c-0.024,0,7.882,12.858,7.905,12.832c1.05-1.008,22.612-17.07,35.781-54.85
		C148.098,73.51,135.193,84.444,135.193,84.444z"/>
	<polygon fill="#FFFFFF" points="118.494,115.794 124.364,126.607 112.325,127.953 104.723,115.89 	"/>
	<polygon fill="none" stroke="#000000" stroke-width="0.1576" stroke-miterlimit="3.8636" points="118.494,115.794 124.364,126.607 
		112.325,127.953 104.723,115.89 	"/>
	<path fill="#EB0029" d="M16.665,84.444l1.177-18.055c0,0,8.426,28.131,30.021,49.34c-0.056-0.008-8.907,10.628-8.907,12.088
		c0,1.456-21.963-16.358-35.131-54.138C3.769,73.51,16.665,84.444,16.665,84.444z"/>
	<path fill="none" stroke="#000000" stroke-width="0.2016" stroke-miterlimit="5" d="M16.665,84.444l1.177-18.055
		c0,0,8.426,28.131,30.021,49.34c-0.056-0.008-8.907,10.628-8.907,12.088c0,1.456-21.963-16.358-35.131-54.138
		C3.769,73.51,16.665,84.444,16.665,84.444z"/>
	<line fill="none" stroke="#000000" stroke-width="0.2016" stroke-miterlimit="5" x1="47.79" y1="115.77" x2="33.437" y2="115.77"/>
	<polygon fill="#FFFFFF" points="33.909,115.899 27.39,126.607 38.331,127.024 47.43,115.938 	"/>
	<path fill="#FFFFFF" d="M75.945,130.068c0-0.154-20.505,1.801-42.42-14.162l-8.129,11.335c0,0,17.197,17.764,50.549,17.764
		c33.361,0,50.549-17.764,50.549-17.764l-8.12-11.335C96.458,131.869,75.945,129.914,75.945,130.068z"/>
	<path fill="none" stroke="#000000" stroke-width="0.2016" stroke-miterlimit="3.8636" d="M75.945,130.068
		c0-0.154-20.505,1.801-42.42-14.162l-8.129,11.335c0,0,17.197,17.764,50.549,17.764c33.361,0,50.549-17.764,50.549-17.764
		l-8.12-11.335C96.458,131.869,75.945,129.914,75.945,130.068z"/>
	<path d="M96.908,138.238c1.913-0.584,1.697-2.492,1.223-4.236c-0.473-1.756-1.32-3.453-3.524-2.78l-1.937,0.592l2.154,7.065
		L96.908,138.238z"/>
	<path d="M79.124,136.963c0.097,2.05,0.417,4.015,2.573,3.942c2.162-0.071,2.353-2.058,2.29-4.108
		c-0.047-1.691-0.383-3.668-2.539-3.595C79.254,133.278,79.069,135.274,79.124,136.963z"/>
	<path d="M71.66,139.84c0.528-0.634,0.657-2.435,0.68-2.948c0.057-1.691-0.136-3.684-2.33-3.764
		c-2.163-0.073-2.483,1.906-2.548,3.597c-0.048,2.05,0.137,4.036,2.291,4.108c0.544,0.024,1.169-0.176,1.498-0.481l0.801,0.72
		l0.433-0.497L71.66,139.84z"/>
	<path fill="#FFFFFF" d="M23.393,4.89c0,0-17.309,60.826,52.552,114.668C145.815,65.716,128.505,4.89,128.505,4.89H23.393z"/>
	<path fill="none" stroke="#000000" stroke-width="0.2016" stroke-miterlimit="3.8636" d="M23.393,4.89
		c0,0-17.309,60.826,52.552,114.668C145.815,65.716,128.505,4.89,128.505,4.89H23.393z"/>
	<path fill="none" stroke="#000000" stroke-width="0.2016" stroke-miterlimit="3.8636" d="M21.631,27.589
		c1.209,22.597,11.045,58.617,54.314,91.969c43.277-33.352,53.106-69.372,54.363-91.969"/>
	<polygon points="66.782,27.589 85.163,27.589 85.163,112.005 75.945,119.558 66.782,112.029 	"/>
	<polygon fill="none" stroke="#000000" stroke-width="0.0259" stroke-miterlimit="3.8636" points="66.782,27.589 85.163,27.589 
		85.163,112.005 75.945,119.558 66.782,112.029 	"/>
	<path fill="#EB0029" d="M130.267,27.589c0.744-13.889-1.762-22.699-1.762-22.699H23.393c0,0-2.515,8.811-1.762,22.699H130.267z"/>
	<path fill="none" stroke="#000000" stroke-width="0.2016" stroke-miterlimit="3.8636" d="M130.267,27.589
		c0.744-13.889-1.762-22.699-1.762-22.699H23.393c0,0-2.515,8.811-1.762,22.699H130.267z"/>
	<path d="M37.706,126.88c-0.914,1.835-1.578,3.707,0.345,4.686c1.914,0.984,3.051-0.659,3.989-2.485
		c0.785-1.505,1.45-3.395-0.473-4.371C39.604,123.707,38.475,125.366,37.706,126.88z"/>
	<path fill="#FFFFFF" d="M95.921,11.722V9.166h-8.722v15.05h3.427v-6.623h4.968v-2.555h-4.968v-3.317H95.921z M118.758,9.663
		c-1.097-0.544-2.348-0.858-3.62-0.858c-4.757,0-8.01,3.67-8.01,7.827c0,4.037,3.379,7.584,7.945,7.584
		c1.314,0,2.498-0.367,3.684-0.872v-3.397c-0.882,0.913-2.243,1.553-3.597,1.553c-2.947,0-4.757-2.466-4.757-4.934
		c0-2.523,1.746-5.045,4.783-5.045c1.353,0,2.689,0.584,3.571,1.553V9.663z M123.411,19.731c-1.241,0-2.251,0.985-2.251,2.22
		c0,1.233,1.01,2.265,2.251,2.265c1.233,0,2.243-1.032,2.243-2.265C125.654,20.717,124.644,19.731,123.411,19.731z M97.612,19.731
		c-1.241,0-2.251,0.985-2.251,2.22c0,1.233,1.01,2.265,2.251,2.265c1.235,0,2.243-1.032,2.243-2.265
		C99.854,20.717,98.846,19.731,97.612,19.731z M46.324,19.731c-1.233,0-2.243,0.985-2.243,2.22c0,1.233,1.01,2.265,2.243,2.265
		c1.242,0,2.251-1.032,2.251-2.265C48.575,20.717,47.566,19.731,46.324,19.731z M64.971,15.574l-0.048-6.303h-3.372v14.945h3.372
		v-6.72l5.583,6.72h4.341l-6.936-8.049l6.568-6.897h-4.157L64.971,15.574z M41.134,9.927c-1.097-1.032-3.308-1.697-4.902-1.697
		c-3.019,0-5.23,2.036-5.23,4.558c0,2.354,1.689,3.34,3.997,4.141c1.401,0.464,3.116,0.905,3.116,2.482
		c0,1.162-0.881,2.196-2.307,2.196c-1.498,0-2.764-1.05-3.236-2.218l-2.259,1.874c1.234,1.746,3.044,2.955,5.519,2.955
		c3.661,0,5.896-2.154,5.896-5.191c0-5.094-7.113-4.028-7.113-6.583c0-0.986,1.074-1.715,2.187-1.715
		c1.17,0,2.027,0.481,2.692,1.249L41.134,9.927z M78.556,19.731c-1.234,0-2.243,0.985-2.243,2.22c0,1.233,1.009,2.265,2.243,2.265
		c1.241,0,2.251-1.032,2.251-2.265C80.807,20.717,79.797,19.731,78.556,19.731z M47.934,11.987h2.027V9.136h-7.225v2.851h1.938
		v6.007h3.26V11.987z"/>
	<polygon points="33.157,128.425 35.055,125.501 37.121,126.838 37.522,126.223 35.455,124.877 36.777,122.851 38.996,124.293 
		39.396,123.667 36.489,121.785 32.467,127.977 	"/>
	<path fill="#FFFFFF" d="M41.278,128.715c-0.977,1.905-1.682,2.811-2.9,2.193c-1.209-0.617-0.888-1.722,0.073-3.628
		c0.736-1.474,1.617-2.507,2.739-1.929C42.352,125.935,42.031,127.256,41.278,128.715z"/>
	<path d="M43.425,130.581l1.322,0.537c0.897,0.359,0.937,1.049,0.657,1.736c-0.185,0.456-0.457,1.338-0.464,1.843l0.881,0.353
		l0.064-0.152c-0.184-0.073-0.113-0.401-0.088-0.537c0.128-0.545,0.288-1.065,0.464-1.586c0.264-0.953,0.16-1.33-0.697-1.772
		l0.008-0.015c0.841,0.217,1.562-0.16,1.914-0.953c0.688-1.563-0.072-2.308-1.506-2.883l-1.762-0.712l-2.772,6.848l0.761,0.304
		L43.425,130.581z"/>
	<path fill="#FFFFFF" d="M44.699,127.424l1.065,0.434c0.513,0.207,1.426,0.608,0.969,1.793c-0.464,1.202-1.473,0.858-1.834,0.73
		l-1.201-0.489L44.699,127.424z"/>
	<polygon points="48.664,129.026 50.434,129.747 47.943,135.906 48.704,136.212 51.194,130.052 52.965,130.765 53.237,130.084 
		48.944,128.345 	"/>
	<polygon points="52.3,137.429 54.583,130.404 53.806,130.147 51.523,137.173 	"/>
	<path d="M54.311,136.267c-0.281,1.29,0.448,2.099,1.754,2.38c1.313,0.278,2.307-0.17,2.578-1.46l1.162-5.479l-0.801-0.167
		l-1.097,5.189c-0.113,0.57-0.409,1.466-1.682,1.193c-1.282-0.27-1.186-1.209-1.057-1.777l1.105-5.189l-0.801-0.17L54.311,136.267z"
		/>
	<path d="M64.779,134.752c0.368-1.346-0.296-2.193-1.618-2.474c-1.169-0.256-2.179,0.353-2.427,1.545
		c-0.152,0.714-0.104,1.322,0.505,1.819c0.345,0.282,0.937,0.617,1.298,0.858c0.672,0.43,1.113,0.536,0.881,1.641
		c-0.185,0.841-0.842,1.138-1.643,0.961c-1.209-0.249-1.265-0.968-1.001-2.026l-0.801-0.176c-0.072,0.393-0.2,0.969-0.129,1.354
		c0.217,1.034,1.018,1.418,1.739,1.57c1.385,0.288,2.411-0.33,2.699-1.689c0.208-0.955,0.056-1.492-1.201-2.293
		c-0.353-0.223-0.697-0.455-1.057-0.68c-0.424-0.272-0.577-0.625-0.473-1.13c0.12-0.553,0.4-1.257,1.562-1.01
		c0.801,0.168,1.089,0.819,0.865,1.563L64.779,134.752z"/>
	<path fill="#FFFFFF" d="M70.658,139.846c-0.304,0.21-0.568,0.249-0.896,0.249c-1.258-0.006-1.53-1.377-1.458-3.02
		c0.08-2.131,0.337-3.26,1.698-3.212c1.354,0.049,1.53,1.186,1.481,3.324c-0.024,0.793-0.232,1.825-0.408,2.107l-0.672-0.576
		l-0.457,0.527L70.658,139.846z"/>
	<path d="M73.574,139.055c-0.048,1.322,0.809,1.985,2.146,2.034c1.338,0.049,2.235-0.561,2.284-1.883l0.191-5.597l-0.809-0.024
		l-0.192,5.301c-0.008,0.578-0.136,1.515-1.45,1.468c-1.306-0.049-1.37-0.987-1.345-1.563l0.192-5.311l-0.816-0.023L73.574,139.055z
		"/>
	<path fill="#FFFFFF" d="M83.147,136.843c0.063,2.139-0.113,3.277-1.476,3.324c-1.353,0.05-1.608-1.081-1.697-3.21
		c-0.063-1.642,0.201-2.973,1.466-3.02C82.738,133.896,83.098,135.201,83.147,136.843z"/>
	<polygon points="88.594,139.952 88.168,136.492 90.61,136.194 90.523,135.458 88.079,135.764 87.785,133.361 90.419,133.031 
		90.322,132.303 86.886,132.726 87.785,140.057 	"/>
	<polygon points="93.086,139.096 91.557,131.869 90.756,132.047 92.285,139.262 	"/>
	<path fill="#FFFFFF" d="M93.662,132.278l1.259-0.385c1.257-0.383,1.809,0.625,2.362,2.212c0.722,2.089,0.513,3.091-0.641,3.443
		l-1.249,0.385L93.662,132.278z"/>
	<polygon points="104.02,136.107 103.804,135.393 101.04,136.244 100.238,133.639 102.817,132.848 102.602,132.142 100.023,132.926 
		99.309,130.595 102.057,129.754 101.84,129.05 98.309,130.124 100.471,137.188 	"/>
	<polygon points="108.73,134.144 108.448,133.456 105.654,134.586 103.17,128.425 102.409,128.73 105.173,135.578 	"/>
	<polygon points="110.571,133.319 107.223,126.743 106.494,127.113 109.843,133.696 	"/>
	<path d="M111.316,130.964c0.602,1.178,1.675,1.346,2.861,0.744c1.193-0.608,1.689-1.578,1.089-2.756l-2.549-4.989l-0.728,0.369
		l2.411,4.725c0.272,0.513,0.608,1.393-0.553,1.987c-1.168,0.599-1.681-0.193-1.938-0.714l-2.409-4.733l-0.73,0.375L111.316,130.964
		z"/>
	<path d="M117.853,123.019c-0.665-1.218-1.738-1.379-2.883-0.657c-1.018,0.631-1.322,1.762-0.681,2.796
		c0.393,0.623,0.856,1.024,1.633,0.961c0.442-0.032,1.107-0.21,1.531-0.288c0.785-0.154,1.178-0.385,1.77,0.568
		c0.456,0.736,0.193,1.4-0.511,1.841c-1.042,0.649-1.579,0.176-2.133-0.769l-0.688,0.432c0.215,0.33,0.519,0.833,0.85,1.058
		c0.864,0.592,1.714,0.311,2.33-0.073c1.201-0.752,1.514-1.914,0.769-3.1c-0.513-0.824-0.992-1.105-2.451-0.809
		c-0.416,0.081-0.816,0.16-1.233,0.249c-0.495,0.096-0.848-0.049-1.121-0.481c-0.304-0.489-0.592-1.193,0.416-1.819
		c0.699-0.44,1.354-0.16,1.707,0.521L117.853,123.019z"/>
	<path fill="none" stroke="#000000" stroke-width="0.18" stroke-miterlimit="3.8636" d="M36.913,120.225l-2.243,0.744
		 M114.921,120.225l2.243,0.744"/>
	<g>
		<defs>
			<path id="SVGID_1_" d="M21.631,27.589c1.209,22.597,11.045,58.617,54.314,91.969c43.277-33.352,53.106-69.372,54.363-91.969"/>
		</defs>
		<clipPath id="SVGID_2_">
			<use xlink:href="#SVGID_1_"  overflow="visible"/>
		</clipPath>
		<polygon clip-path="url(#SVGID_2_)" points="130.156,48.415 124.525,66.141 26.869,66.141 20.517,48.415 		"/>
		<polygon clip-path="url(#SVGID_2_)" fill="none" stroke="#000000" stroke-width="0.0259" stroke-miterlimit="3.8636" points="
			130.156,48.415 124.525,66.141 26.869,66.141 20.517,48.415 		"/>
	</g>
</g>
</svg>
