<?xml version="1.0" encoding="utf-8"?>
<!-- Generator: Adobe Illustrator 19.1.0, SVG Export Plug-In . SVG Version: 6.00 Build 0)  -->
<svg version="1.1" id="Layer_1" xmlns="http://www.w3.org/2000/svg" xmlns:xlink="http://www.w3.org/1999/xlink" x="0px" y="0px"
	 viewBox="0 0 600 600" enable-background="new 0 0 600 600" xml:space="preserve">
<polygon fill="#E77A43" points="240.169,159.011 244.454,156.253 249.277,154.408 254.379,153.95 410.006,153.95 500.257,28.064 
	267.061,28.064 251.327,28.772 235.834,30.822 221.154,34.35 206.963,39.408 193.247,45.463 180.311,52.808 168.186,61.158 
	157.028,70.519 146.618,80.859 136.964,92.264 128.635,104.366 121.263,117.017 115.208,130.654 110.365,144.836 106.789,159.758 
	104.523,174.928 103.755,190.555 104.523,206.276 106.789,221.434 110.365,236.052 115.208,250.468 121.263,263.871 
	128.635,276.825 136.964,288.931 146.618,300.271 157.028,310.695 168.186,320.028 180.311,328.383 193.247,335.664 
	206.963,341.787 221.154,346.544 235.834,350.142 251.327,352.379 267.061,353.133 383.401,190.87 293.644,190.87 286.346,200.979 
	282.759,204.735 278.418,207.804 273.662,209.564 268.298,210.334 202.614,210.334 236.602,162.747 "/>
<g>
	<rect x="123.262" y="430.172" fill="#E77A43" width="28.936" height="132.588"/>
	<polygon fill="#E77A43" points="60.628,515.688 79.447,515.688 79.447,534.378 79.447,535.469 78.896,535.906 78.407,536.446 
		77.658,536.446 47.961,536.446 47.197,536.446 46.434,535.906 46.247,535.469 45.957,534.378 45.957,458.465 46.247,457.688 
		46.434,457.014 47.197,456.71 47.961,456.473 77.369,456.473 78.128,456.71 78.676,457.014 79.166,457.688 79.447,458.465 
		79.447,471.878 107.544,471.878 107.544,452.167 107.056,447.117 105.545,442.574 102.737,438.223 99.42,434.995 95.35,432.466 
		90.801,430.621 85.78,430.172 39.066,430.172 34.04,430.621 29.497,432.466 25.151,434.995 21.833,438.223 19.29,442.574 
		17.563,447.117 17.021,452.167 17.021,540.979 17.563,546.039 19.29,550.643 21.833,554.619 25.151,557.925 29.497,560.443 
		34.04,562.214 39.066,562.76 85.988,562.76 91.85,561.973 96.944,559.679 101.498,556.39 104.804,551.863 107.056,546.798 
		107.831,540.979 107.831,490.591 60.628,490.591 	"/>
	<polygon fill="#E77A43" points="586.73,505.314 585.471,501.245 583.683,497.719 580.95,494.964 577.633,492.67 573.843,490.899 
		569.222,489.364 559.854,486.823 552.011,484.541 545.383,482.774 540.086,481.246 536.017,480.009 532.699,479.243 
		530.719,478.491 529.477,478.249 528.701,477.945 528.173,477.495 527.683,476.95 527.391,476.478 527.144,475.724 
		527.144,458.465 527.391,457.688 527.954,457.014 528.442,456.71 529.19,456.473 556.077,456.473 556.825,456.71 557.312,457.014 
		557.854,457.688 558.067,458.465 558.067,469.663 586.252,469.663 586.252,452.167 585.763,447.117 584.173,442.574 
		581.41,438.223 578.123,434.995 574.063,432.466 569.509,430.621 564.409,430.172 520.577,430.172 515.488,430.621 
		510.665,432.466 506.599,434.995 503.371,438.223 500.809,442.574 499.015,447.117 498.524,452.167 498.524,481.785 
		499.015,486.62 500.043,490.591 502.051,493.896 504.868,496.741 508.111,498.945 512.446,501.02 517,502.543 525.619,504.781 
		532.985,507.086 539.333,508.841 544.427,510.146 548.498,511.371 551.73,512.383 554.065,512.89 555.79,513.372 556.537,513.688 
		557.312,514.137 557.854,514.682 558.348,515.217 558.348,515.907 558.348,534.378 558.348,535.469 557.854,535.906 
		557.101,536.446 556.335,536.446 528.442,536.446 527.683,536.446 526.919,535.906 526.649,535.469 526.362,534.378 
		526.362,523.273 497.997,523.273 497.997,540.979 498.745,546.039 500.257,550.643 502.81,554.619 506.396,557.925 
		510.463,560.443 514.999,562.214 520.043,562.76 565.156,562.76 570.256,562.214 574.805,560.443 578.87,557.925 582.188,554.619 
		585.01,550.643 586.521,546.039 587,540.979 587,510.146 	"/>
	<polygon fill="#E77A43" points="355.227,507.852 310.871,430.172 283.034,430.172 283.034,562.76 310.871,562.76 310.871,485.53 
		355.227,562.76 383.131,562.76 383.131,430.172 355.227,430.172 	"/>
	<path fill="#E77A43" d="M202.91,430.172L159.493,562.76h29.425l8.13-26.314h40.841l8.332,26.314h29.711l-43.886-132.588H202.91z
		 M205.656,511.157l11.922-44.328l11.936,44.328H205.656z"/>
	<polygon fill="#E77A43" points="393.273,456.473 427.784,456.473 427.784,562.76 456.65,562.76 456.65,456.473 490.89,456.473 
		490.89,430.172 393.273,430.172 	"/>
</g>
<g>
	<path fill="#44606A" stroke="#44606A" stroke-width="0.8636" stroke-miterlimit="10" d="M32.842,384.754h-9.487
		c-1.515,0-2.758,0.551-3.73,1.642c-0.973,1.097-1.461,2.508-1.461,4.239v23.513c0,0.844,0.132,1.631,0.401,2.361
		c0.265,0.72,0.627,1.339,1.083,1.855c0.461,0.506,1,0.911,1.627,1.215c0.63,0.298,1.319,0.449,2.081,0.449h9.487
		c1.516,0,2.764-0.562,3.754-1.675c0.989-1.113,1.487-2.524,1.487-4.223v-11.633h-9.871v3.441h6.564v7.579
		c0,0.944-0.242,1.697-0.731,2.248c-0.49,0.552-1.158,0.821-2.01,0.821h-7.835c-0.846,0-1.521-0.27-2.01-0.821
		c-0.483-0.551-0.73-1.304-0.73-2.248v-22.243c0-0.967,0.242-1.709,0.73-2.26c0.49-0.546,1.158-0.815,2.01-0.815h7.835
		c0.846,0,1.521,0.27,2.01,0.815c0.483,0.551,0.731,1.293,0.731,2.26v3.654l3.307-0.584v-3.711c0-1.731-0.498-3.143-1.487-4.239
		C35.605,385.305,34.35,384.754,32.842,384.754z"/>
	<path fill="#44606A" stroke="#44606A" stroke-width="0.8636" stroke-miterlimit="10" d="M65.568,403.185
		c0.787-1.023,1.18-2.328,1.18-3.926v-8.624c0-1.731-0.491-3.143-1.464-4.239c-0.973-1.091-2.215-1.642-3.725-1.642H46.965v35.274
		h3.303v-14.888h8.549l6.466,14.888h3.543L62.36,405.09C63.707,404.843,64.778,404.207,65.568,403.185z M50.269,401.705v-13.511
		h10.433c0.882,0,1.56,0.275,2.032,0.815c0.473,0.557,0.709,1.299,0.709,2.255v7.377c0,0.955-0.236,1.697-0.709,2.248
		c-0.473,0.546-1.15,0.821-2.032,0.821H50.269V401.705z"/>
	<polygon fill="#44606A" stroke="#44606A" stroke-width="0.8636" stroke-miterlimit="10" points="78.884,403.498 92.196,403.498 
		92.196,400.059 78.884,400.059 78.884,388.2 93.52,388.2 93.52,384.754 75.573,384.754 75.573,420.028 93.612,420.028 
		93.612,416.582 78.884,416.582 	"/>
	<path fill="#44606A" stroke="#44606A" stroke-width="0.8636" stroke-miterlimit="10" d="M110.98,384.754l-10.857,35.274h3.352
		l2.741-9.108h12.555l2.834,9.108h3.351l-10.859-35.274H110.98z M107.249,407.474l5.286-18.166l5.24,18.166H107.249z"/>
	<polygon fill="#44606A" stroke="#44606A" stroke-width="0.8636" stroke-miterlimit="10" points="125.68,388.2 135.069,388.2 
		135.069,420.028 138.375,420.028 138.375,388.2 147.726,388.2 147.726,384.754 125.68,384.754 	"/>
	<polygon fill="#44606A" stroke="#44606A" stroke-width="0.8636" stroke-miterlimit="10" points="157.433,403.498 170.749,403.498 
		170.749,400.059 157.433,400.059 157.433,388.2 172.067,388.2 172.067,384.754 154.126,384.754 154.126,420.028 172.163,420.028 
		172.163,416.582 157.433,416.582 	"/>
	<path fill="#44606A" stroke="#44606A" stroke-width="0.8636" stroke-miterlimit="10" d="M198.212,403.185
		c0.787-1.023,1.178-2.328,1.178-3.926v-8.624c0-1.731-0.49-3.143-1.462-4.239c-0.973-1.091-2.215-1.642-3.725-1.642H179.61v35.274
		h3.303v-14.888h8.543l6.466,14.888h3.542l-6.472-14.939C196.351,404.843,197.422,404.207,198.212,403.185z M182.913,401.705
		v-13.511h10.433c0.88,0,1.56,0.275,2.032,0.815c0.472,0.557,0.708,1.299,0.708,2.255v7.377c0,0.955-0.237,1.697-0.708,2.248
		c-0.473,0.546-1.152,0.821-2.032,0.821h-10.433V401.705z"/>
	<polygon fill="#44606A" stroke="#44606A" stroke-width="0.8636" stroke-miterlimit="10" points="241.822,413.99 234.932,384.754 
		231.961,384.754 225.017,413.99 219.731,384.754 216.518,384.754 223.221,420.028 226.577,420.028 233.423,390.579 
		240.315,420.028 243.619,420.028 250.321,384.754 247.113,384.754 	"/>
	<polygon fill="#44606A" stroke="#44606A" stroke-width="0.8636" stroke-miterlimit="10" points="261.461,403.498 274.765,403.498 
		274.765,400.059 261.461,400.059 261.461,388.2 276.097,388.2 276.097,384.754 258.149,384.754 258.149,420.028 276.181,420.028 
		276.181,416.582 261.461,416.582 	"/>
	<path fill="#44606A" stroke="#44606A" stroke-width="0.8636" stroke-miterlimit="10" d="M300.593,403.903
		c-0.439-0.461-0.961-0.843-1.563-1.158c-0.596-0.325-1.248-0.59-1.934-0.804c-0.945-0.32-1.732-0.579-2.362-0.765
		c-0.629-0.191-1.236-0.388-1.816-0.591c-0.579-0.19-1.197-0.376-1.838-0.578c-0.641-0.197-1.451-0.451-2.429-0.765
		c-0.793-0.253-1.428-0.602-1.912-1.064c-0.495-0.461-0.731-1.146-0.731-2.058v-4.812c0-0.956,0.226-1.709,0.681-2.272
		c0.455-0.573,1.141-0.844,2.052-0.844h7.079c0.911,0,1.596,0.275,2.052,0.844c0.45,0.562,0.686,1.315,0.686,2.272v3.823
		l3.294-0.642v-3.812c0-1.731-0.483-3.154-1.461-4.262c-0.972-1.113-2.221-1.664-3.722-1.664h-8.737
		c-1.513,0-2.761,0.551-3.755,1.642c-0.99,1.091-1.485,2.508-1.485,4.233v6.135c0,1.63,0.473,2.878,1.417,3.738
		c0.944,0.86,2.12,1.523,3.537,1.984c0.883,0.281,1.641,0.518,2.289,0.72c0.641,0.186,1.27,0.383,1.867,0.574
		c0.596,0.202,1.225,0.404,1.889,0.618c0.652,0.208,1.44,0.461,2.355,0.73c0.911,0.281,1.581,0.658,2.008,1.119
		c0.427,0.456,0.635,1.119,0.635,2.008v5.251c0,0.944-0.23,1.698-0.681,2.249c-0.46,0.551-1.147,0.82-2.058,0.82h-7.36
		c-0.905,0-1.591-0.27-2.052-0.82c-0.461-0.551-0.686-1.305-0.686-2.249v-3.874l-3.301,0.636v3.867c0,1.699,0.495,3.099,1.491,4.218
		c0.989,1.102,2.249,1.664,3.744,1.664h9.018c1.518,0,2.761-0.562,3.728-1.664c0.979-1.113,1.468-2.519,1.468-4.206v-6.448
		c0-0.85-0.123-1.581-0.382-2.198C301.381,404.893,301.031,404.358,300.593,403.903z"/>
	<polygon fill="#44606A" stroke="#44606A" stroke-width="0.8636" stroke-miterlimit="10" points="308.128,388.2 317.518,388.2 
		317.518,420.028 320.834,420.028 320.834,388.2 330.179,388.2 330.179,384.754 308.128,384.754 	"/>
	<polygon fill="#44606A" stroke="#44606A" stroke-width="0.8636" stroke-miterlimit="10" points="339.647,403.498 352.95,403.498 
		352.95,400.059 339.647,400.059 339.647,388.2 354.276,388.2 354.276,384.754 336.341,384.754 336.341,420.028 354.367,420.028 
		354.367,416.582 339.647,416.582 	"/>
	<path fill="#44606A" stroke="#44606A" stroke-width="0.8636" stroke-miterlimit="10" d="M380.309,403.185
		c0.786-1.023,1.18-2.328,1.18-3.926v-8.624c0-1.731-0.5-3.143-1.467-4.239c-0.978-1.091-2.227-1.642-3.728-1.642h-14.585v35.274
		h3.306v-14.888h8.529l6.478,14.888h3.531l-6.466-14.939C378.441,404.843,379.516,404.207,380.309,403.185z M365.004,401.705
		v-13.511h10.43c0.889,0,1.558,0.275,2.041,0.815c0.473,0.557,0.708,1.299,0.708,2.255v7.377c0,0.955-0.235,1.697-0.708,2.248
		c-0.472,0.546-1.146,0.821-2.041,0.821h-10.43V401.705z"/>
	<polygon fill="#44606A" stroke="#44606A" stroke-width="0.8636" stroke-miterlimit="10" points="408.966,413.35 394.241,384.754 
		391.03,384.754 391.03,420.028 394.241,420.028 394.241,391.478 408.966,420.028 412.171,420.028 412.171,384.754 408.966,384.754 
			"/>
	<path fill="#44606A" stroke="#44606A" stroke-width="0.8636" stroke-miterlimit="10" d="M447.171,403.903
		c-0.45-0.461-0.968-0.843-1.564-1.158c-0.597-0.325-1.249-0.59-1.935-0.804c-0.944-0.32-1.732-0.579-2.361-0.765
		c-0.624-0.191-1.237-0.388-1.815-0.591c-0.58-0.19-1.193-0.376-1.828-0.578c-0.652-0.197-1.462-0.451-2.441-0.765
		c-0.792-0.253-1.416-0.602-1.911-1.064c-0.483-0.461-0.73-1.146-0.73-2.058v-4.812c0-0.956,0.235-1.709,0.68-2.272
		c0.461-0.573,1.147-0.844,2.053-0.844h7.084c0.911,0,1.597,0.275,2.047,0.844c0.46,0.562,0.686,1.315,0.686,2.272v3.823
		l3.306-0.642v-3.812c0-1.731-0.483-3.154-1.462-4.262c-0.983-1.113-2.231-1.664-3.732-1.664h-8.737
		c-1.513,0-2.761,0.551-3.745,1.642c-0.989,1.091-1.495,2.508-1.495,4.233v6.135c0,1.63,0.472,2.878,1.417,3.738
		c0.944,0.86,2.119,1.523,3.536,1.984c0.889,0.281,1.642,0.518,2.288,0.72c0.641,0.186,1.276,0.383,1.867,0.574
		c0.601,0.202,1.225,0.404,1.89,0.618c0.651,0.208,1.438,0.461,2.36,0.73c0.911,0.281,1.574,0.658,2.002,1.119
		c0.428,0.456,0.641,1.119,0.641,2.008v5.251c0,0.944-0.236,1.698-0.685,2.249c-0.461,0.551-1.147,0.82-2.052,0.82h-7.366
		c-0.904,0-1.591-0.27-2.041-0.82c-0.461-0.551-0.686-1.305-0.686-2.249v-3.874l-3.307,0.636v3.867c0,1.699,0.496,3.099,1.485,4.218
		c0.989,1.102,2.248,1.664,3.756,1.664h9.019c1.507,0,2.754-0.562,3.716-1.664c0.977-1.113,1.474-2.519,1.474-4.206v-6.448
		c0-0.85-0.13-1.581-0.377-2.198C447.957,404.882,447.608,404.358,447.171,403.903z"/>
	<polygon fill="#44606A" stroke="#44606A" stroke-width="0.8636" stroke-miterlimit="10" points="464.004,402.498 455.997,384.754 
		452.5,384.754 462.373,406.58 462.373,420.028 465.679,420.028 465.679,406.58 475.541,384.754 472.044,384.754 	"/>
	<path fill="#44606A" stroke="#44606A" stroke-width="0.8636" stroke-miterlimit="10" d="M495.32,384.754h-14.157v35.274h14.157
		c1.507,0,2.767-0.557,3.756-1.664c0.989-1.113,1.484-2.518,1.484-4.211V390.64c0-1.736-0.495-3.142-1.484-4.233
		C498.087,385.305,496.827,384.754,495.32,384.754z M497.255,413.518c0,0.944-0.237,1.697-0.732,2.248
		c-0.483,0.552-1.157,0.821-2.002,0.821H484.47v-28.382h10.052c0.838,0,1.519,0.27,2.002,0.815c0.494,0.556,0.732,1.299,0.732,2.254
		V413.518z"/>
	<polygon fill="#44606A" stroke="#44606A" stroke-width="0.8636" stroke-miterlimit="10" points="527.144,413.35 512.413,384.754 
		509.197,384.754 509.197,420.028 512.413,420.028 512.413,391.478 527.144,420.028 530.349,420.028 530.349,384.754 
		527.144,384.754 	"/>
	<polygon fill="#44606A" stroke="#44606A" stroke-width="0.8636" stroke-miterlimit="10" points="542.538,403.498 555.841,403.498 
		555.841,400.059 542.538,400.059 542.538,388.2 557.168,388.2 557.168,384.754 539.232,384.754 539.232,420.028 557.258,420.028 
		557.258,416.582 542.538,416.582 	"/>
	<polygon fill="#44606A" stroke="#44606A" stroke-width="0.8636" stroke-miterlimit="10" points="581.434,384.754 573.383,402.498 
		565.375,384.754 561.891,384.754 571.752,406.58 571.752,420.028 575.058,420.028 575.058,406.58 584.93,384.754 	"/>
</g>
</svg>
