<?xml version="1.0" encoding="utf-8"?>
<!-- Generator: Adobe Illustrator 19.1.0, SVG Export Plug-In . SVG Version: 6.00 Build 0)  -->
<svg version="1.1" id="Layer_1" xmlns="http://www.w3.org/2000/svg" xmlns:xlink="http://www.w3.org/1999/xlink" x="0px" y="0px"
	 viewBox="0 0 100 100" enable-background="new 0 0 100 100" xml:space="preserve">
<g>
	<polygon fill="#FFFFFF" points="10.261,15.316 39.734,15.316 49.597,34.558 59.298,15.346 88.911,15.346 49.48,97.875 	"/>
	<path d="M57.397,94.678c0.361,0.368,0.543,0.808,0.543,1.321c0,0.525-0.182,0.97-0.543,1.334c-0.362,0.369-0.804,0.548-1.323,0.548
		c-0.519,0-0.958-0.18-1.323-0.548c-0.361-0.364-0.541-0.808-0.541-1.334c0-0.513,0.183-0.953,0.543-1.321
		c0.365-0.365,0.806-0.549,1.321-0.549C56.59,94.128,57.032,94.313,57.397,94.678z M57.614,94.467
		c-0.424-0.419-0.939-0.633-1.539-0.633c-0.597,0-1.108,0.214-1.53,0.633c-0.423,0.424-0.635,0.939-0.635,1.531
		c0,0.605,0.21,1.118,0.631,1.542c0.421,0.43,0.932,0.639,1.534,0.639c0.601,0,1.115-0.209,1.539-0.639
		c0.421-0.424,0.634-0.938,0.634-1.542C58.248,95.4,58.035,94.892,57.614,94.467z M56.397,95.899
		c-0.089,0.036-0.223,0.056-0.399,0.056h-0.38v-0.864h0.36c0.232,0,0.401,0.029,0.506,0.09c0.107,0.055,0.159,0.175,0.159,0.35
		C56.643,95.71,56.56,95.835,56.397,95.899z M55.199,97.187h0.418v-0.938h0.332c0.225,0,0.379,0.025,0.47,0.075
		c0.149,0.091,0.224,0.27,0.224,0.549v0.188l0.008,0.075c0.002,0.011,0.004,0.02,0.007,0.025c0,0.011,0.002,0.02,0.005,0.025h0.394
		l-0.015-0.03c-0.01-0.02-0.017-0.06-0.022-0.124c-0.002-0.059-0.005-0.119-0.005-0.175v-0.174c0-0.12-0.042-0.245-0.13-0.368
		c-0.087-0.131-0.225-0.206-0.411-0.236c0.147-0.024,0.264-0.063,0.347-0.115c0.155-0.1,0.234-0.259,0.234-0.474
		c0-0.299-0.125-0.499-0.371-0.604c-0.137-0.055-0.355-0.086-0.651-0.086h-0.833V97.187z"/>
	<path fill="#CF0A2C" d="M39.734,15.346l9.863,19.212l9.701-19.212h29.613L66.271,62.631c-1.629-8.449,2.092-13.003,2.092-13.003
		s-5.184-0.758-9.577,3.388c-0.796-1.428-3.929-9.202-16.307-10.579c2.677,3.134,3.216,7.16,3.012,9.949
		c-2.238-2.015-5.521-3.596-8.324-3.675c1.422,1.965,1.465,7.189,1.422,7.149c-3.094-2.93-7.191-3.683-7.191-3.683
		c0.437,2.675,1.205,5.715,0.459,8.489c-2.43-4.91-21.597-45.35-21.597-45.35L39.734,15.346z"/>
	<path fill="#CF0A2C" d="M49.607,73.939c-4.097,4.58-5.943,7.898-3.426,8.651c4.058,1.213,4.607-14.999,20.09-19.999L49.48,97.875
		l-6.704-14.261c0.352-3.113,3.296-6.672,6.352-9.994c5.182-5.634,4.526-11.742,0.771-14.941C46.486,55.776,39.055,56.822,37.501,61
		c0.346,0.579,0.848-0.739,1.34-0.479c0.911,0.479-1.402,1.944,0,2.674c0.567,0.274,0.616,0.494,1.07,0.594
		c2.036,0.424,1.946-2.111,4.419-2.182c1.33-0.04,3.044,0.769,3.545,3.099c0.467,2.182-0.387,4.686-3.623,7.226
		c-0.84,0.664-2.946,1.711-4.77,4.925l-0.267-0.693c1.919-4.192,9.142-5.675,8.044-11.377c-0.416-2.165-2.443-3.014-3.81-2.445
		c-1.554,0.639-1.288,2.196-3.538,1.871c-1.542,1.443-3.153,3.239-4.928,4.451c-0.284,0.034-0.067-0.909-0.054-1.128
		c0.529-1.697,1.058-3.094,1.661-4.765c0.449,0.59,0.267,1.552,0.19,2.575c0.462-0.385,1.24-1.785,1.15-2.041
		c-0.911-0.802-1.534-0.948-1.287-1.765c1.876-6.219,10.923-6.019,13.697-3.245C55.462,63.415,53.711,69.358,49.607,73.939z"/>
	<polygon points="41.548,1.907 41.548,3.624 39.792,3.624 39.792,5.425 41.277,5.425 41.277,7.053 39.749,7.053 39.749,8.979 
		41.506,8.979 41.506,10.65 37.933,10.65 37.933,1.907 	"/>
	<polygon fill="none" stroke="#000000" stroke-width="0" stroke-miterlimit="3.8636" points="41.548,1.907 41.548,3.624 
		39.792,3.624 39.792,5.425 41.277,5.425 41.277,7.053 39.749,7.053 39.749,8.979 41.506,8.979 41.506,10.65 37.933,10.65 
		37.933,1.907 	"/>
	<path d="M23.1,1.938l-0.13-0.031l-0.023,8.743c1.998,0.019,5.119,0.59,5.165-4.291C28.153,2.097,25.43,1.787,23.1,1.938z
		 M24.732,9.104V3.615c0.896-0.025,1.622,1.052,1.622,2.789C26.353,8.65,25.256,9.172,24.732,9.104z"/>
	<path fill="none" stroke="#000000" stroke-width="0" stroke-miterlimit="3.8636" d="M23.1,1.938l-0.13-0.031l-0.023,8.743
		c1.998,0.019,5.119,0.59,5.165-4.291C28.153,2.097,25.43,1.787,23.1,1.938z M24.732,9.104V3.615
		c0.896-0.025,1.622,1.052,1.622,2.789C26.353,8.65,25.256,9.172,24.732,9.104z"/>
	<polygon points="18.372,4.727 19.407,1.907 21.291,1.907 19.28,6.398 19.238,10.65 17.524,10.65 17.524,6.398 15.452,1.907 
		17.354,1.907 	"/>
	<polygon fill="none" stroke="#000000" stroke-width="0" stroke-miterlimit="3.8636" points="18.372,4.727 19.407,1.907 
		21.291,1.907 19.28,6.398 19.238,10.65 17.524,10.65 17.524,6.398 15.452,1.907 17.354,1.907 	"/>
	<polygon points="33.878,6.638 33.878,2.004 35.695,2.004 35.695,10.71 34.048,10.71 32.027,5.876 32.027,10.71 30.278,10.71 
		30.278,2.004 31.959,2.004 	"/>
	<polygon fill="none" stroke="#000000" stroke-width="0" stroke-miterlimit="3.8636" points="33.878,6.638 33.878,2.004 
		35.695,2.004 35.695,10.71 34.048,10.71 32.027,5.876 32.027,10.71 30.278,10.71 30.278,2.004 31.959,2.004 	"/>
	<path d="M13.714,2.232c-0.474-0.279-0.968-0.427-1.522-0.427c-1.474,0-2.316,1.177-2.316,2.549c0,1.266,0.656,1.921,1.647,2.589
		c0.484,0.345,0.995,0.669,0.995,1.338c0,0.574-0.449,0.804-1.002,0.804c-0.507,0-0.866-0.114-1.27-0.39v1.633
		c0.392,0.288,0.991,0.439,1.474,0.439c1.612,0,2.501-1.163,2.501-2.706c0-2.35-2.615-2.429-2.615-3.858
		c0-0.533,0.299-0.787,0.829-0.787c0.471,0,0.932,0.186,1.279,0.485V2.232z"/>
	<path fill="none" stroke="#000000" stroke-width="0" stroke-miterlimit="3.8636" d="M13.714,2.232
		c-0.474-0.279-0.968-0.427-1.522-0.427c-1.474,0-2.316,1.177-2.316,2.549c0,1.266,0.656,1.921,1.647,2.589
		c0.484,0.345,0.995,0.669,0.995,1.338c0,0.574-0.449,0.804-1.002,0.804c-0.507,0-0.866-0.114-1.27-0.39v1.633
		c0.392,0.288,0.991,0.439,1.474,0.439c1.612,0,2.501-1.163,2.501-2.706c0-2.35-2.615-2.429-2.615-3.858
		c0-0.533,0.299-0.787,0.829-0.787c0.471,0,0.932,0.186,1.279,0.485V2.232z"/>
	<path d="M88.773,2.232c-0.471-0.279-0.968-0.427-1.519-0.427c-1.475,0-2.315,1.177-2.315,2.549c0,1.266,0.655,1.921,1.646,2.589
		c0.483,0.345,0.995,0.669,0.995,1.338c0,0.574-0.452,0.804-1.003,0.804c-0.507,0-0.868-0.114-1.269-0.39v1.633
		c0.391,0.288,0.99,0.439,1.472,0.439c1.614,0,2.5-1.163,2.5-2.706c0-2.35-2.615-2.429-2.615-3.858c0-0.533,0.299-0.787,0.829-0.787
		c0.474,0,0.935,0.186,1.279,0.485V2.232z"/>
	<path fill="none" stroke="#000000" stroke-width="0" stroke-miterlimit="3.8636" d="M88.773,2.232
		c-0.471-0.279-0.968-0.427-1.519-0.427c-1.475,0-2.315,1.177-2.315,2.549c0,1.266,0.655,1.921,1.646,2.589
		c0.483,0.345,0.995,0.669,0.995,1.338c0,0.574-0.452,0.804-1.003,0.804c-0.507,0-0.868-0.114-1.269-0.39v1.633
		c0.391,0.288,0.99,0.439,1.472,0.439c1.614,0,2.5-1.163,2.5-2.706c0-2.35-2.615-2.429-2.615-3.858c0-0.533,0.299-0.787,0.829-0.787
		c0.474,0,0.935,0.186,1.279,0.485V2.232z"/>
	<path d="M58.074,2.232c-0.471-0.279-0.968-0.427-1.521-0.427c-1.475,0-2.316,1.177-2.316,2.549c0,1.266,0.659,1.921,1.649,2.589
		c0.484,0.345,0.993,0.669,0.993,1.338c0,0.574-0.449,0.804-1.003,0.804c-0.506,0-0.865-0.114-1.27-0.39v1.633
		c0.393,0.288,0.992,0.439,1.475,0.439c1.612,0,2.501-1.163,2.501-2.706c0-2.35-2.615-2.429-2.615-3.858
		c0-0.533,0.298-0.787,0.829-0.787c0.471,0,0.932,0.186,1.278,0.485V2.232z"/>
	<path fill="none" stroke="#000000" stroke-width="0" stroke-miterlimit="3.8636" d="M58.074,2.232
		c-0.471-0.279-0.968-0.427-1.521-0.427c-1.475,0-2.316,1.177-2.316,2.549c0,1.266,0.659,1.921,1.649,2.589
		c0.484,0.345,0.993,0.669,0.993,1.338c0,0.574-0.449,0.804-1.003,0.804c-0.506,0-0.865-0.114-1.27-0.39v1.633
		c0.393,0.288,0.992,0.439,1.475,0.439c1.612,0,2.501-1.163,2.501-2.706c0-2.35-2.615-2.429-2.615-3.858
		c0-0.533,0.298-0.787,0.829-0.787c0.471,0,0.932,0.186,1.278,0.485V2.232z"/>
	<path d="M73.681,2.004h-1.884l-2.021,8.706h1.817l0.343-1.477h1.577l0.373,1.477h1.867L73.681,2.004z M72.207,7.792l0.457-3.191
		l0.509,3.191H72.207z"/>
	<path fill="none" stroke="#000000" stroke-width="0" stroke-miterlimit="3.8636" d="M73.681,2.004h-1.884l-2.021,8.706h1.817
		l0.343-1.477h1.577l0.373,1.477h1.867L73.681,2.004z M72.207,7.792l0.457-3.191l0.509,3.191H72.207z"/>
	<polygon points="81.131,6.638 81.131,2.004 82.948,2.004 82.948,10.71 81.303,10.71 79.282,5.876 79.282,10.71 77.534,10.71 
		77.534,2.004 79.215,2.004 	"/>
	<polygon fill="none" stroke="#000000" stroke-width="0" stroke-miterlimit="3.8636" points="81.131,6.638 81.131,2.004 
		82.948,2.004 82.948,10.71 81.303,10.71 79.282,5.876 79.282,10.71 77.534,10.71 77.534,2.004 79.215,2.004 	"/>
	<polygon points="61.919,2.004 62.85,7.556 63.784,2.004 65.312,2.004 66.381,7.556 67.129,2.004 69.028,2.004 67.212,10.71 
		65.667,10.71 64.6,4.921 63.395,10.71 61.817,10.71 60.102,2.004 	"/>
	<polygon fill="none" stroke="#000000" stroke-width="0" stroke-miterlimit="3.8636" points="61.919,2.004 62.85,7.556 
		63.784,2.004 65.312,2.004 66.381,7.556 67.129,2.004 69.028,2.004 67.212,10.71 65.667,10.71 64.6,4.921 63.395,10.71 
		61.817,10.71 60.102,2.004 	"/>
	<polygon points="45.909,4.727 46.945,1.907 48.831,1.907 46.817,6.398 46.775,10.65 45.061,10.65 45.061,6.398 42.99,1.907 
		44.892,1.907 	"/>
	<polygon fill="none" stroke="#000000" stroke-width="0" stroke-miterlimit="3.8636" points="45.909,4.727 46.945,1.907 
		48.831,1.907 46.817,6.398 46.775,10.65 45.061,10.65 45.061,6.398 42.99,1.907 44.892,1.907 	"/>
</g>
</svg>
