<?xml version="1.0" encoding="utf-8"?>
<!-- Generator: Adobe Illustrator 19.1.0, SVG Export Plug-In . SVG Version: 6.00 Build 0)  -->
<svg version="1.1" id="Layer_1" xmlns="http://www.w3.org/2000/svg" xmlns:xlink="http://www.w3.org/1999/xlink" x="0px" y="0px"
	 viewBox="0 0 100 100" enable-background="new 0 0 100 100" xml:space="preserve">
<g>
	<path fill="#FFFFFF" d="M91.2,52.742c1.895,0.496,3.859,1.01,5.933,1.607l0.245,0.54l-0.096,0.565H74.86v-0.002
		c-7.326,0-13.966-0.586-19.882-1.577c-1.13-0.189-2.255-0.398-3.373-0.624c-1.137-0.23-2.206-0.466-3.211-0.705
		c0,0,0-0.001,0-0.001c0,0,0,0,0,0c-0.564-0.13-0.816-0.214-0.843-0.465c-0.026-0.251,0.217-0.377,0.75-0.602
		c0.53-0.224,1.38-0.416,2.451-0.584c-6.136-0.138-9.806-0.641-14.815-2.864c-0.643-0.286-0.922-0.368-0.952-0.647
		c-0.03-0.279,0.422-0.355,1.122-0.427l1.049-0.109c1.505-0.156,3.594-0.372,6.084-0.617c-9.097-0.107-14.599-0.727-17.85-3.031
		c-0.422-0.299-0.68-0.473-0.678-0.726c0.002-0.253,0.445-0.253,0.96-0.295c2.02-0.162,4.864-0.366,8.828-0.641
		c-7.083-0.121-13.895-0.72-17.895-2.996c-0.006-0.004-0.012-0.007-0.018-0.01c-0.494-0.282-0.608-0.366-0.625-0.67
		c-0.017-0.305,0.273-0.312,0.837-0.38c3.131-0.378,8.627-0.608,14.938-0.868c-5.512-0.129-11.109-0.303-14.883-0.571l-0.041-0.003
		C9.303,35.5,4.818,33.509,2.789,32.609c-0.158-0.07-0.295-0.131-0.571-0.247C1.357,32,1.191,31.91,1.186,31.618
		c-0.005-0.292,0.317-0.34,1.25-0.34h53.017c1.307,0,2.466,0.149,3.509,0.42c0.062-0.192,0.263-0.421,0.606-0.42h20.522
		c4.584,0,7.629,1.029,9.768,2.459c0.242-0.015,0.481-0.022,0.715-0.02c0.879,0.007,1.696,0.138,2.425,0.417l0-0.001l0.002,0.001
		l0.009,0.002l0.073,0.029l0.004,0.002c1.453,0.587,2.234,1.67,2.516,2.957c0.268,1.221,0.068,2.622-0.437,3.936l-0.059,0.153
		c-0.618,1.529-1.767,2.905-2.749,3.815c-0.191,0.177-0.378,0.339-0.554,0.481c-0.182,0.147-0.35,0.271-0.496,0.37
		c-0.001,0.001-0.002,0.001-0.002,0.002c0,0-0.001,0-0.001,0.001c-0.288,0.192-0.436,0.271-0.63,0.159
		c-0.194-0.112-0.241-0.278-0.245-0.625c-0.016-1.467-0.109-2.408-0.542-3.032c-0.426-0.614-1.252-1.009-2.753-1.411
		c-0.259-0.069-0.527-0.125-0.804-0.168c-1.391,0.434-2.571,0.985-3.583,1.617c-2.46,1.536-3.936,3.571-5.03,5.6l-0.08,0.148
		C81.549,50.216,86.125,51.414,91.2,52.742L91.2,52.742z"/>
	<path fill-rule="evenodd" clip-rule="evenodd" fill="#224E83" d="M96.979,54.889c-10.013-2.884-18.53-4.081-24.642-9.719
		c-6.112-5.639-7.742-13.328-16.884-13.328c-9.922,0-34.82,0-53.017,0c1.631,0.686,6.173,3.044,14.415,3.633
		c8.242,0.59,25.167,0.725,30.927,0.922c-11.934,0.761-25.262,0.961-30.914,1.643c7.114,4.065,23.683,2.668,34.195,2.931
		c-13.582,0.925-21.16,1.432-25.343,1.768c4.438,3.147,13.448,3.045,30.662,2.881c-9.006,0.713-16.968,1.562-20.213,1.896
		c7.428,3.297,11.911,2.746,26.307,2.92c-5.687,0.376-12.071,0.765-13.952,1.561c7.399,1.767,16.215,2.894,26.341,2.894
		C82.609,54.889,87.318,54.889,96.979,54.889L96.979,54.889z M59.567,31.842c0,0,4.679,0.651,9.064,7.87
		c2.049,3.374,5.639,6.065,8.587,8.043c1.611-2.989,4.031-5.992,9.07-7.526c0.341,0.049,0.672,0.114,0.99,0.199
		c3.276,0.876,3.677,1.825,3.712,4.984c0.99-0.667,2.784-2.408,3.593-4.408c1.008-2.492,0.852-5.332-1.78-6.343
		c-0.894-0.344-1.949-0.441-3.101-0.35c-2.062-1.429-5.04-2.469-9.613-2.469C72.02,31.842,59.567,31.842,59.567,31.842
		L59.567,31.842z"/>
	<path fill-rule="evenodd" clip-rule="evenodd" fill="#E5862F" d="M66.233,53.854c7.853,0.098,16.172,0.127,24.025,0.225
		c-7.158-2.121-13.515-3.96-18.315-8.107c-4.8-4.147-7.503-11.348-12.536-12.668c4.303,1.957,7.958,9.761,11.714,13.372
		c3.756,3.611,11.288,5.854,9.571,6.424C78.974,53.671,70.989,53.261,66.233,53.854L66.233,53.854z"/>
	<path fill-rule="evenodd" clip-rule="evenodd" fill="#E5862F" d="M41.129,47.932c3.203,0.041,12.761-0.595,15.964-0.578
		c2.245,0.012,5.252-1.878,6.312-3.522c-7.486,0.271-20.382,0.486-28.129,0.787c2.963,0.4,14.868,0.251,20.283,0.166
		c3.028-0.048,5.072-0.113,4.834,0.202c-0.37,0.488-1.288,1.132-2.813,1.4c-1.432,0.251-3.271,0.173-5.17,0.361
		C48.245,47.159,43.262,47.553,41.129,47.932L41.129,47.932z"/>
	<path fill-rule="evenodd" clip-rule="evenodd" fill="#E5862F" d="M22.071,38.376c6.916,0.368,24.061-0.35,27.264-0.333
		c2.245,0.012,5.252-1.878,6.312-3.522c-6.066,0.219-24.357-0.029-35.2,0.029c-2.538,0.013-4.669-0.063-6.139-0.006
		c0.722,0.098,2.782,0.269,5.551,0.329c2.857,0.062,6.472,0.119,10.154,0.203c7.387,0.169,15.054,0.403,17.786,0.398
		c3.028-0.007,5.072-0.113,4.834,0.202c-0.37,0.488-1.288,1.132-2.813,1.4c-1.432,0.251-3.271,0.173-5.17,0.361
		C40.486,37.848,24.693,38.079,22.071,38.376L22.071,38.376z"/>
	<path fill-rule="evenodd" clip-rule="evenodd" fill="#E5862F" d="M31.211,43.238c3.203,0.041,19.328-0.595,22.53-0.578
		c2.245,0.012,5.252-1.878,6.312-3.522c-7.486,0.271-24.084,0.442-31.831,0.743c2.963,0.4,18.57,0.295,23.985,0.21
		c3.028-0.048,5.072-0.113,4.834,0.202c-0.37,0.488-1.288,1.132-2.813,1.4c-1.432,0.251-3.271,0.173-5.17,0.361
		C44.893,42.465,33.344,42.859,31.211,43.238L31.211,43.238z"/>
	<path fill-rule="evenodd" clip-rule="evenodd" fill="#E5862F" d="M54.556,52.012c3.203,0.041,5.516,0.105,8.719,0.123
		c2.245,0.012,5.252-1.878,6.312-3.522c-7.486,0.271-16.089,0.258-23.76,0.407c2.317,0.628,10.499,0.632,15.914,0.546
		c3.028-0.048,5.224-0.075,4.986,0.24C65.248,51.759,58.698,51.277,54.556,52.012L54.556,52.012z"/>
	<path fill-rule="evenodd" clip-rule="evenodd" fill="#FFFFFF" d="M80.08,34.539c2.886,0.007,5.576-0.213,7.208,0.187
		c-1.252,0.314-2.246,0.748-3.291,1.097C83.048,35.245,81.603,34.925,80.08,34.539L80.08,34.539z"/>
	<path fill-rule="evenodd" clip-rule="evenodd" fill="#E5862F" d="M83.62,40.142c-3.37,1.519-4.892,3.342-6.192,5.477
		c-0.014-1.595,1.399-2.969,1.161-3.581c-0.204-0.525-1.702-0.693-3.153-0.827C78.453,40.8,81.222,40.262,83.62,40.142L83.62,40.142
		z M74.945,40.87c1.619-1.965,4.634-4.23,3.971-4.572c-5.912-3.048-10.381-2.353-15.571-3.53c8.422-0.184,19.205-0.323,22.483,0.66
		c0.339,0.102,0.993,0.331,1.16,0.457c-0.29-0.005-0.872-0.109-1.287-0.128c-3.786-0.174-8.627,0.04-11.802,0.198
		c2.455,0.516,6.118,0.69,9.111,2.285l0,0.001C80.016,37.562,77.08,39.336,74.945,40.87L74.945,40.87z"/>
	<path fill-rule="evenodd" clip-rule="evenodd" fill="#F5BC27" d="M91.86,43.393c2.391-1.8,3.748-6.717,0.391-7.887
		c-3.892-1.356-11.306,1.934-15.416,4.958c3.446-0.686,9.939-2.156,13.033-0.07C90.815,41.034,91.685,41.864,91.86,43.393
		L91.86,43.393z"/>
	<path fill-rule="evenodd" clip-rule="evenodd" fill="#F5BC27" d="M81.609,69.959c-0.026-0.024-0.053-0.049-0.078-0.048
		c-0.178,0.006-0.512-0.059-0.643-0.18c-0.026,0.001-0.051,0.002-0.051,0.002c-0.081-0.123-0.136-0.247-0.191-0.371
		c-0.001-0.025,0.024-0.051,0.049-0.052c0.204-0.007,0.408-0.013,0.611-0.02c0.005,0.151,0.49,0.16,0.592,0.157
		c-0.001-0.025,0.024-0.051,0.048-0.077c-0.006-0.176-0.543-0.234-0.671-0.23c-0.13-0.071-0.259-0.117-0.362-0.164
		c-0.081-0.123-0.161-0.247-0.241-0.345c-0.003-0.101-0.007-0.201-0.009-0.277c0.098-0.129,0.196-0.233,0.32-0.338
		c0.075-0.053,0.176-0.081,0.277-0.11c0.281,0.016,0.562,0.032,0.868,0.047c0.131,0.096,0.388,0.164,0.445,0.338
		c0.003,0.076,0.005,0.151,0.008,0.226c-0.051,0.002-0.076,0.028-0.1,0.054c-0.205-0.019-0.408-0.012-0.587-0.006
		c-0.003-0.101-0.445-0.338-0.435-0.036c0.105,0.097,0.283,0.066,0.436,0.086c0.001,0.025,0.027,0.049,0.053,0.074
		c0.204-0.007,0.464,0.161,0.645,0.231c0.002,0.05,0.029,0.1,0.057,0.174c0.004,0.126,0.008,0.252,0.039,0.402
		c-0.049,0.052-0.098,0.104-0.121,0.18c-0.05,0.027-0.074,0.078-0.098,0.129C82.166,69.839,81.888,69.899,81.609,69.959
		L81.609,69.959z"/>
	<path fill-rule="evenodd" clip-rule="evenodd" fill="#F5BC27" d="M73.677,69.892c-0.001-0.025-0.001-0.025-0.001-0.025
		c-0.077-0.023-0.155-0.045-0.206-0.044c-0.127,0.004-0.716-0.052-0.79,0.026c-0.054-0.074-0.16-0.221-0.087-0.299
		c-0.004-0.126-0.094-0.526,0.004-0.63c-0.029-0.1-0.058-0.2-0.061-0.3c-0.008-0.226,0.011-0.429,0.03-0.631
		c-0.026-0.024-0.026-0.024-0.026-0.024c0.025-0.026,0.049-0.052,0.074-0.078c0.204-0.007,0.406-0.064,0.587,0.006
		c0.356-0.012,0.714,0.002,1.097,0.014c0.026,0.024,0.053,0.074,0.106,0.123c-0.023,0.076-0.02,0.177-0.016,0.278
		c-0.026,0.001-0.05,0.027-0.049,0.052c-0.229,0.008-0.458,0.015-0.662,0.022c-0.105-0.097-0.384-0.038-0.379,0.113
		c0.053,0.049,0.208,0.119,0.257,0.067c0.153-0.005,0.306-0.01,0.459,0.01c0.051-0.002,0.102-0.003,0.154,0.02
		c0.029,0.1,0.058,0.2,0.087,0.325c-0.048,0.077-0.071,0.153-0.094,0.23c-0.207-0.094-0.694-0.153-0.841,0.002
		c0.002,0.05,0.03,0.125,0.058,0.2c0.205,0.018,0.409,0.037,0.639,0.055c-0.001-0.025,0.024-0.051,0.049-0.052
		c0.128,0.021,0.256,0.042,0.385,0.063c-0.021,0.127-0.042,0.278-0.062,0.43c-0.076,0.003-0.127,0.004-0.177,0.031
		c-0.052-0.023-0.078-0.048-0.104-0.047c-0.102,0.003-0.205-0.018-0.278,0.06C73.779,69.889,73.728,69.89,73.677,69.892
		L73.677,69.892z"/>
	<path fill-rule="evenodd" clip-rule="evenodd" fill="#F5BC27" d="M65.948,69.793c-0.004-0.126-0.459-0.01-0.51-0.008
		c-0.026-0.024-0.053-0.049-0.078-0.048c-0.153,0.005-0.306,0.01-0.432,0.039c-0.052-0.023-0.104-0.047-0.155-0.045
		c-0.053-0.049-0.08-0.098-0.106-0.122c-0.019-0.579-0.039-1.157-0.033-1.737c0.05-0.027,0.1-0.054,0.15-0.08
		c0.153-0.005,0.332,0.014,0.511,0.034c0.001,0.025,0.027,0.05,0.054,0.074c0.008,0.226,0.015,0.453,0.049,0.704
		c-0.021,0.127-0.007,0.554,0.098,0.652c0.077,0.023,0.155,0.045,0.257,0.067c0.05-0.027,0.126-0.055,0.202-0.057
		c0.079,0.073,0.359,0.064,0.462,0.085c-0.022,0.102-0.018,0.227-0.014,0.353C66.252,69.733,66.1,69.763,65.948,69.793
		L65.948,69.793z"/>
	<path fill-rule="evenodd" clip-rule="evenodd" fill="#F5BC27" d="M57.303,69.75c-0.001-0.025-0.001-0.025-0.001-0.025
		c-0.282-0.041-0.537-0.058-0.773-0.227c-0.08-0.098-0.159-0.171-0.238-0.244c-0.027-0.049-0.054-0.099-0.056-0.149
		c-0.031-0.175-0.062-0.325-0.067-0.476c-0.014-0.428,0.333-0.716,0.659-0.878c0.152-0.03,0.304-0.06,0.482-0.066
		c0.179,0.019,0.561,0.007,0.67,0.205c0.207,0.094,0.288,0.217,0.371,0.416c-0.018,0.227-0.096,0.179-0.251,0.109
		c-0.127,0.004-0.255,0.008-0.357,0.012c-0.052-0.023-0.078-0.048-0.104-0.072c-0.055-0.124-0.26-0.143-0.387-0.138
		c-0.331,0.011-0.319,0.363-0.311,0.615c0.028,0.075,0.056,0.149,0.084,0.224c0.053,0.049,0.105,0.097,0.158,0.146
		c0.076-0.003,0.179,0.019,0.282,0.041c0.049-0.052,0.126-0.055,0.123-0.13c-0.181-0.07-0.162-0.272-0.167-0.423
		c-0.005-0.151,0.889-0.105,0.914-0.106c0.001,0.025,0.027,0.049,0.053,0.074c0.006,0.176,0.106,0.878,0.008,0.982
		c-0.051,0.002-0.483,0.041-0.486-0.06C57.707,69.636,57.505,69.693,57.303,69.75L57.303,69.75z"/>
	<path fill-rule="evenodd" clip-rule="evenodd" fill="#F5BC27" d="M41.538,69.538c-0.001-0.025-0.001-0.025-0.001-0.025
		c-0.408-0.012-0.817-0.023-1.225-0.035c-0.081-0.148-0.017-0.503-0.022-0.654c-0.011-0.327-0.08-0.854,0.011-1.184
		c0.076-0.028,0.151-0.055,0.252-0.084c0.485,0.009,0.995,0.018,1.506,0.051c-0.021,0.127-0.017,0.252-0.013,0.378
		c-0.276,0.135-0.713,0.023-0.989,0.158c0.001,0.025,0.002,0.05,0.003,0.101c0.184,0.17,0.537,0.033,0.767,0.076
		c0.079,0.073,0.084,0.224,0.088,0.35c-0.05,0.027-0.075,0.053-0.098,0.104c-0.23-0.018-0.563-0.057-0.763,0.05
		c0.002,0.05,0.004,0.126,0.007,0.201c0.051-0.002,0.103,0.022,0.18,0.044c0.127-0.004,0.764-0.025,0.843,0.048
		c0.003,0.101,0.008,0.226,0.012,0.352C41.893,69.476,41.715,69.507,41.538,69.538L41.538,69.538z"/>
	<path fill-rule="evenodd" clip-rule="evenodd" fill="#F5BC27" d="M50.031,69.612c-0.154-0.02-0.282-0.041-0.409-0.037
		c-0.052-0.023-0.078-0.048-0.104-0.072c-0.027-0.05-0.029-0.1-0.03-0.125c-0.23-0.018-0.434-0.011-0.638-0.004
		c-0.075,0.053-0.149,0.106-0.223,0.184c-0.205-0.018-0.408-0.012-0.587-0.006c-0.007-0.201,0.09-0.356,0.187-0.51
		c0.093-0.28,0.186-0.535,0.279-0.79c0.042-0.253,0.114-0.407,0.286-0.589c0.153-0.005,0.584-0.07,0.716,0.052
		c0.11,0.223,0.146,0.549,0.356,0.744c0.003,0.075,0.005,0.151,0.033,0.225c0.184,0.17,0.17,0.498,0.354,0.668
		c0.002,0.05,0.004,0.126,0.007,0.201c-0.051,0.002-0.076,0.028-0.1,0.054C50.108,69.609,50.057,69.611,50.031,69.612L50.031,69.612
		z M49.116,68.937c-0.052-0.023-0.104-0.047-0.13-0.071c-0.002-0.05-0.003-0.101-0.005-0.151c0.023-0.076,0.072-0.128,0.121-0.18
		c0.153-0.005,0.081,0.123,0.16,0.196c-0.024,0.051-0.022,0.101-0.02,0.152C49.191,68.884,49.141,68.91,49.116,68.937L49.116,68.937
		z"/>
	<path fill-rule="evenodd" clip-rule="evenodd" fill="#224E83" d="M35.017,69.728c-0.358-0.039-0.717-0.077-1.074-0.091
		c-0.027-0.049-0.054-0.099-0.055-0.124c-0.014-0.402-0.307-0.795-0.321-1.198c-0.054-0.099-0.083-0.199-0.111-0.274
		c-0.004-0.126-0.092-0.45-0.171-0.523c-0.056-0.15-0.086-0.299-0.117-0.45c-0.057-0.174-0.088-0.35-0.119-0.5
		c-0.026-0.025-0.053-0.049-0.054-0.074c-0.028-0.075-0.03-0.15-0.033-0.225c-0.221-0.497-0.344-1.147-0.489-1.672
		c-0.163-0.297-0.228-0.698-0.29-1.023c-0.026-0.024-0.052-0.024-0.077-0.023c-0.025,0.026-0.049,0.052-0.047,0.102
		c-0.042,0.253-0.085,0.507-0.127,0.76c-0.041,0.278-0.083,0.556-0.125,0.835c-0.048,0.102-0.07,0.204-0.092,0.305
		c-0.022,0.102-0.019,0.202-0.014,0.328c-0.152,0.786-0.378,1.65-0.427,2.457c-0.025,0.026-0.048,0.077-0.047,0.127
		c-0.065,0.33-0.131,0.659-0.17,1.013c0.012,0.352-1.473,0.174-1.524,0.176c-0.153-0.02-0.307-0.04-0.434-0.036
		c-0.026-0.025-0.053-0.049-0.054-0.074c-0.059-0.225-0.116-0.424-0.149-0.625c-0.258-0.848-0.49-1.671-0.721-2.495
		c-0.057-0.174-0.088-0.325-0.118-0.475c-0.009-0.277-0.204-0.749-0.289-0.998c-0.015-0.453-0.311-0.897-0.326-1.349
		c-0.143-0.474-0.287-0.948-0.429-1.396c-0.002-0.076-0.005-0.151-0.007-0.201c-0.055-0.124-0.109-0.223-0.14-0.323
		c-0.058-0.25-0.117-0.475-0.15-0.7c-0.054-0.099-0.109-0.198-0.137-0.298c-0.004-0.1-0.006-0.176-0.009-0.251
		c-0.054-0.099-0.108-0.173-0.136-0.247c-0.009-0.277-0.205-0.799-0.416-0.994c-0.007-0.201-0.528-0.536-0.331-0.745
		c0.51-0.017,1.169-0.114,1.657-0.029c0.382-0.012,0.764-0.025,1.124,0.064c0.079,0.073,0.083,0.199,0.086,0.299
		c0.03,0.125,0.085,0.249,0.141,0.398c0.032,0.2,0.091,0.425,0.149,0.65c0.03,0.125,0.06,0.25,0.115,0.399
		c0.072,0.627,0.322,1.224,0.47,1.823c0.091,0.425,0.182,0.85,0.273,1.276c0.028,0.075,0.056,0.15,0.109,0.223
		c0.031,0.151,0.061,0.301,0.117,0.45c0.008,0.252,0.119,0.5,0.179,0.725c0.008,0.277,0.119,0.55,0.179,0.8
		c0.025-0.026,0.05-0.052,0.1-0.054c0.126-0.81,0.253-1.595,0.379-2.38c0.021-0.152,0.041-0.304,0.062-0.43
		c-0.002-0.05,0.023-0.076,0.047-0.103c0.079-0.682,0.185-1.34,0.29-1.999c-0.034-0.251-0.042-0.502-0.05-0.729
		c-0.054-0.099-0.108-0.173-0.136-0.248c-0.008-0.226-0.171-0.523-0.278-0.696c-0.054-0.074-0.107-0.148-0.135-0.222
		c-0.002-0.05-0.003-0.101-0.005-0.151c0.024-0.051,0.049-0.077,0.073-0.103c0.892-0.004,1.785-0.008,2.703,0.012
		c0,0,0.026-0.001,0.052,0.023c0.009,0.251,0.043,0.528,0.078,0.803c0.06,0.275,0.07,0.577,0.206,0.824
		c0.088,0.325,0.176,0.674,0.289,1.023c0.213,1.025,0.582,2.122,0.871,3.145c0.012,0.352,0.23,0.773,0.293,1.124
		c0.029,0.075,0.056,0.149,0.109,0.223c-0.002-0.05,0.022-0.101,0.046-0.152c0.022-0.101,0.044-0.203,0.092-0.305
		c0.032-0.58,0.339-1.296,0.32-1.849c0.067-0.279,0.134-0.559,0.201-0.838c0.019-0.202,0.064-0.38,0.109-0.558
		c0.108-0.583,0.216-1.166,0.35-1.724c0.02-0.152,0.042-0.304,0.087-0.456c0.042-0.278,0.083-0.557,0.126-0.81
		c0.046-0.153,0.092-0.305,0.164-0.434c0.05-0.027,0.1-0.053,0.177-0.056c0.382-0.013,0.765,0,1.173,0.012
		c0.001,0.025,0.028,0.075,0.055,0.124c-0.019,0.177-0.039,0.354-0.032,0.555c-0.092,0.305-0.207,0.662-0.221,0.989
		c-0.048,0.102-0.094,0.23-0.116,0.357c-0.046,0.152-0.065,0.329-0.085,0.506c-0.046,0.153-0.092,0.305-0.111,0.482
		c-0.133,0.584-0.241,1.167-0.349,1.749c-0.046,0.153-0.091,0.305-0.111,0.482c-0.109,0.558-0.217,1.115-0.326,1.673
		c0.001,0.025,0.002,0.075,0.004,0.126c-0.068,0.254-0.135,0.533-0.202,0.812c0.014,0.403-0.252,0.839-0.238,1.267
		c-0.067,0.254-0.136,0.508-0.204,0.762c-0.043,0.253-0.085,0.507-0.127,0.785c-0.049,0.077-0.071,0.153-0.093,0.255
		c-0.023,0.076-0.02,0.152-0.018,0.227c-0.075,0.028-0.125,0.079-0.174,0.132C35.475,69.712,35.246,69.72,35.017,69.728
		L35.017,69.728z M42.935,66.344c-0.001-0.025-0.001-0.025-0.001-0.025c-1.173-0.012-2.347-0.023-3.519-0.01
		c-0.076,0.002-0.106-0.122-0.133-0.172c-0.046-0.603-0.092-1.206-0.111-1.785c-0.065-1.937-0.13-3.849-0.194-5.761
		c-0.009-0.251,0.76-0.151,0.912-0.156c0.228-0.058,0.661-0.072,0.868,0.022c0.382-0.013,0.789-0.026,1.198-0.014
		c0.05-0.027,0.101-0.028,0.152-0.03c0.076-0.003,0.153,0.02,0.256,0.042c0.102-0.003,0.204-0.006,0.305-0.01
		c0.103,0.022,0.206,0.044,0.334,0.064c0.018,0.528,0.037,1.082,0.055,1.635c-0.051,0.002-0.101,0.029-0.151,0.055
		c-0.131-0.096-0.236-0.194-0.341-0.291c-0.129-0.046-0.258-0.092-0.361-0.114c-0.356,0.012-0.793-0.075-1.146,0.038
		c0.018,0.528,0.036,1.057,0.054,1.61c0,0,0,0,0.026,0.024c0.357-0.012,0.739,0.001,1.122,0.014
		c0.052,0.024,0.129,0.046,0.206,0.069c0.014,0.428,0.03,0.88,0.071,1.333c0.005,0.151-0.016,0.303-0.194,0.309
		c-0.053-0.074-0.287-0.192-0.29-0.293c-0.259-0.117-0.563-0.057-0.843-0.048c-0.025,0.026-0.049,0.052-0.047,0.102
		c0.02,0.604,0.041,1.208,0.061,1.812c0.009,0.277,1.41,0.205,1.46,0.204c0.101-0.029,0.227-0.058,0.354-0.087
		c0.05-0.027,0.126-0.054,0.201-0.082c0.099-0.104,0.317-0.439,0.524-0.345c-0.042,0.278-0.083,0.582-0.098,0.885
		c-0.025,0.026-0.049,0.052-0.048,0.077c-0.068,0.254-0.11,0.507-0.153,0.761c-0.025,0.026-0.049,0.052-0.048,0.102
		C43.239,66.284,43.086,66.314,42.935,66.344L42.935,66.344z M46.764,66.495c-0.001-0.025-0.001-0.025-0.001-0.025
		c-0.408,0.013-0.894-0.046-1.281-0.184c-0.154-0.045-0.284-0.091-0.412-0.138c-0.104-0.047-0.182-0.095-0.26-0.143
		c-0.059-0.225-0.116-0.424-0.149-0.625c-0.088-0.349-0.176-0.674-0.238-1c0.024-0.051,0.049-0.077,0.098-0.104
		c0.153-0.005,0.309,0.091,0.364,0.215c0.284,0.117,0.705,0.481,1.036,0.47c0.103,0.022,0.206,0.069,0.31,0.116
		c0.178-0.006,0.382-0.013,0.587,0.006c0.151-0.055,0.328-0.086,0.506-0.118c-0.001-0.025-0.002-0.05-0.002-0.05
		c0.073-0.103,0.146-0.206,0.244-0.31c-0.004-0.126-0.007-0.227-0.011-0.327c-0.008-0.227-0.272-0.495-0.404-0.641
		c-0.13-0.071-0.234-0.143-0.339-0.216c-0.127,0.004-0.753-0.403-0.858-0.475c-0.052-0.024-0.077-0.023-0.103-0.022
		c-0.183-0.12-0.365-0.24-0.521-0.335c-0.078-0.048-0.156-0.096-0.209-0.144c-0.106-0.123-0.212-0.245-0.318-0.368
		c-0.109-0.198-0.191-0.372-0.273-0.545c-0.057-0.174-0.113-0.324-0.144-0.474c-0.009-0.277-0.11-1.004,0.087-1.212
		c0.021-0.126,0.068-0.254,0.115-0.381c0.146-0.206,0.292-0.412,0.438-0.619c0.153-0.005,0.347-0.289,0.551-0.295
		c0.049-0.052,0.098-0.104,0.174-0.132c0.202-0.057,0.405-0.089,0.633-0.122c0.228-0.033,0.458-0.04,0.712-0.049
		c0.127-0.004,0.256,0.017,0.384,0.038c0.361,0.114,0.846,0.148,1.16,0.39c0.015,0.453,0.031,0.905,0.047,1.384
		c-0.176,0.082-0.411-0.087-0.541-0.159c-0.311-0.141-0.673-0.28-1.054-0.267c-0.152,0.03-0.303,0.086-0.454,0.141
		c-0.05,0.027-0.099,0.079-0.123,0.13c-0.048,0.078-0.071,0.154-0.093,0.255c0.007,0.201,0.098,0.626,0.378,0.617
		c0.005,0.151,0.262,0.218,0.366,0.265c0.132,0.121,1.191,0.54,1.196,0.691c0.181,0.07,0.314,0.242,0.446,0.363
		c0.155,0.045,0.186,0.221,0.266,0.344c0.127-0.004,0.435,0.791,0.489,0.89c0.008,0.251,0.043,0.527,0.078,0.803
		c-0.021,0.126-0.042,0.278-0.062,0.43c-0.097,0.154-0.091,0.331-0.136,0.508c-0.024,0.051-0.047,0.102-0.071,0.153
		c-0.098,0.129-0.194,0.284-0.291,0.438c-0.199,0.132-0.373,0.289-0.546,0.446C48.088,66.427,47.299,66.478,46.764,66.495
		L46.764,66.495z M53.263,66.383c-0.001-0.025-0.001-0.025-0.001-0.025c-0.714-0.001-1.428-0.003-2.142-0.005
		c-0.028-0.074-0.056-0.149-0.058-0.2c0.024-0.051,0.073-0.103,0.123-0.13c-0.004-0.126,0.07-0.179,0.119-0.256
		c0.121-0.961,0.008-2.04,0-3.022c-0.035-0.301-0.071-0.602-0.08-0.879c-0.022-0.654-0.043-1.283-0.039-1.913
		c-0.077-0.023-0.154-0.045-0.206-0.044c-0.356,0.012-0.79,0.001-1.036,0.261c-0.1,0.053-0.2,0.107-0.275,0.16
		c-0.051,0.001-0.102,0.003-0.126,0.029c-0.027-0.049-0.054-0.074-0.08-0.098c-0.02-0.579-0.039-1.157-0.058-1.71
		c0.025-0.026,0.075-0.053,0.126-0.055c1.351-0.019,2.701-0.039,4.053-0.033c0.252-0.084,0.892-0.004,1.149,0.038
		c0.002,0.05,0.029,0.1,0.056,0.149c0.014,0.428,0.029,0.855,0.069,1.282c-0.022,0.102-0.044,0.203-0.04,0.329
		c-0.204,0.007-0.26-0.143-0.416-0.238c-0.129-0.046-0.258-0.092-0.386-0.113c-0.255,0.008-0.509,0.017-0.739,0.024
		c-0.023,0.076-0.046,0.153-0.069,0.229c0.041,1.208,0.108,2.439,0.174,3.671c0.016,0.478,0.032,0.956,0.075,1.459
		c0.058,0.199,0.093,0.5,0.251,0.646c0.029,0.1,0.189,0.296,0.09,0.4C53.618,66.345,53.44,66.351,53.263,66.383L53.263,66.383z
		 M60.612,66.569c-0.001-0.025-0.001-0.025-0.001-0.025c-0.436-0.061-0.845-0.098-1.254-0.135c-0.311-0.141-0.876-0.273-1.039-0.57
		c-0.153,0.005-0.576-0.434-0.655-0.532c-0.004-0.101-0.161-0.222-0.212-0.245c-0.055-0.099-0.319-0.392-0.324-0.543
		c-0.054-0.074-0.106-0.123-0.133-0.172c-0.17-0.498-0.365-0.996-0.433-1.497c-0.01-0.302-0.02-0.604-0.03-0.88
		c0.042-0.279,0.083-0.557,0.125-0.835c0.133-0.584,0.446-1.123,0.712-1.56c0.122-0.155,0.271-0.286,0.419-0.416
		c0.2-0.107,0.369-0.39,0.624-0.398c0.1-0.054,0.2-0.107,0.301-0.136c0.075-0.053,0.15-0.105,0.225-0.133
		c0.177-0.056,0.354-0.087,0.531-0.118c0.255-0.008,0.81-0.178,1.069-0.06c0.307,0.015,0.614,0.055,0.947,0.095
		c0.127-0.004,0.255-0.008,0.408,0.012c0.053,0.048,0.105,0.097,0.183,0.145c0.006,0.176,0.038,0.377,0.07,0.577
		c0.012,0.352,0.024,0.705,0.037,1.082c-0.051,0.002-0.102,0.003-0.127,0.004c-0.182-0.12-0.364-0.215-0.52-0.31
		c-0.155-0.071-0.31-0.116-0.464-0.161c-0.154-0.02-0.307-0.04-0.461-0.061c-0.229,0.007-0.458,0.015-0.688,0.023
		c-0.378,0.138-0.648,0.424-0.867,0.734c-0.072,0.128-0.118,0.281-0.164,0.433c-0.046,0.153-0.066,0.305-0.086,0.456
		c-0.021,0.152-0.04,0.329-0.034,0.505c0.022,0.654,0.044,1.308,0.32,1.929c0.005,0.151,0.058,0.225,0.164,0.322
		c0.005,0.151,0.456,0.665,0.609,0.66c0.184,0.17,0.494,0.286,0.726,0.354c0.204-0.007,0.537,0.058,0.688-0.023
		c0.127-0.004,0.28-0.009,0.433-0.014c0.201-0.082,0.402-0.165,0.629-0.247c0.025-0.026,0.076-0.028,0.127-0.029
		c0.075-0.053,0.149-0.106,0.25-0.134c0.024-0.051,0.073-0.103,0.123-0.13c0.101-0.029,0.228-0.058,0.354-0.087
		c0.001,0.025,0.028,0.075,0.055,0.124c0.015,0.453-0.375,0.994-0.358,1.472c-0.048,0.077-0.097,0.155-0.145,0.231
		c-0.302,0.111-0.708,0.174-1.039,0.185c-0.076,0.003-0.126,0.029-0.176,0.056C61.223,66.524,60.917,66.534,60.612,66.569
		L60.612,66.569z M67.243,66.603c-0.004-0.101-0.436-0.086-0.487-0.085c-0.284-0.091-0.566-0.158-0.824-0.225
		c-0.002-0.076-0.416-0.238-0.493-0.261c-0.105-0.072-0.209-0.144-0.288-0.217c-0.053-0.049-0.104-0.072-0.131-0.096
		c-0.026-0.025-0.053-0.049-0.079-0.073c-0.053-0.048-0.08-0.098-0.106-0.122c-0.102,0.003-0.188-0.296-0.29-0.293
		c-0.053-0.049-0.08-0.098-0.106-0.122c-0.005-0.151-0.239-0.294-0.244-0.445c-0.026-0.024-0.053-0.049-0.079-0.073
		c-0.108-0.198-0.192-0.396-0.275-0.595c-0.088-0.35-0.15-0.675-0.212-1c-0.005-0.151-0.098-0.626-0.024-0.705
		c-0.008-0.226-0.057-0.93,0.116-1.112c-0.006-0.176,0.014-0.353,0.137-0.483c-0.008-0.251,0.187-0.485,0.308-0.69
		c0.097-0.154,0.194-0.309,0.317-0.439c0.125-0.08,0.39-0.517,0.543-0.522c0.148-0.156,0.522-0.395,0.751-0.403
		c0.075-0.053,0.223-0.184,0.351-0.188c-0.001-0.025-0.001-0.025,0.025-0.026c0.026-0.001,0.051-0.002,0.103,0.022
		c0.099-0.104,0.508-0.067,0.557-0.119c0.306-0.01,1.245-0.142,1.455,0.053c0.255,0.017,0.537,0.058,0.695,0.204
		c0.077,0.022,0.18,0.044,0.284,0.091c0.001,0.025,0.754,0.428,0.862,0.626c0.08,0.098,0.16,0.196,0.265,0.294
		c0.181,0.07,0.322,0.468,0.48,0.613c0.029,0.1,0.084,0.224,0.139,0.348c0.056,0.149,0.113,0.324,0.195,0.497
		c0.033,0.226,0.092,0.451,0.15,0.675c0.007,0.202,0.127,1.482,0.004,1.612c-0.046,0.152-0.091,0.33-0.11,0.507
		c-0.047,0.127-0.093,0.255-0.114,0.407c-0.097,0.154-0.167,0.333-0.238,0.511c-0.122,0.155-0.245,0.31-0.34,0.49
		c-0.075,0.053-0.125,0.08-0.121,0.18c-0.099,0.078-0.199,0.158-0.298,0.237c-0.076,0.028-0.125,0.079-0.174,0.131
		c-0.05,0.027-0.075,0.053-0.098,0.104c-0.151,0.08-0.3,0.161-0.45,0.267c-0.127,0.004-0.201,0.082-0.301,0.161
		c-0.203,0.032-0.405,0.089-0.582,0.145c-0.102,0.003-0.177,0.031-0.252,0.058c-0.23,0.008-0.459,0.015-0.663,0.022
		C67.52,66.493,67.318,66.575,67.243,66.603L67.243,66.603z M78.076,66.498c-0.001-0.025-0.001-0.025-0.001-0.025
		c-0.281-0.016-0.537-0.033-0.791-0.024c-0.51-0.008-0.994,0.007-1.478,0.023c-0.103-0.022-0.18-0.045-0.257-0.042
		c-0.006-0.176,0.069-0.229,0.167-0.333c0.048-0.102,0.095-0.205,0.143-0.307c-0.004-0.126-0.008-0.252-0.013-0.377
		c-0.085-0.249-0.169-0.498-0.255-0.747c-0.055-0.124-0.11-0.248-0.139-0.348c-0.028-0.075-0.056-0.149-0.083-0.199
		c-0.613-0.03-1.225-0.035-1.812-0.041c-0.05,0.027-0.099,0.079-0.123,0.13c-0.045,0.178-0.09,0.356-0.134,0.559
		c-0.048,0.102-0.094,0.23-0.116,0.356c-0.024,0.051-0.022,0.102-0.019,0.177c-0.094,0.229-0.213,0.485-0.205,0.737
		c-0.072,0.128-0.119,0.256-0.165,0.408c-0.383-0.012-0.74-0.001-1.096,0.011c-0.407,0.013,0.044-0.959,0.066-1.06
		c-0.011-0.327,0.205-0.737,0.244-1.066c0.023-0.076,0.046-0.153,0.094-0.23c0.112-0.457,0.225-0.889,0.363-1.322
		c0.017-0.252,0.081-0.607,0.227-0.838c0.019-0.202,0.063-0.405,0.108-0.583c0.021-0.152,0.066-0.304,0.113-0.432
		c0.022-0.102,0.071-0.179,0.119-0.256c0.02-0.152,0.067-0.279,0.114-0.407c0.014-0.353,0.18-0.711,0.168-1.063
		c-0.082-0.148-0.162-0.272-0.218-0.396c-0.103-0.047-0.184-0.17-0.085-0.273c0.815-0.028,1.63-0.055,2.471-0.057
		c0.178-0.006,0.268,0.395,0.273,0.545c0.299,0.544,0.422,1.17,0.696,1.74c0.014,0.403,0.362,0.895,0.426,1.296
		c0.084,0.224,0.168,0.448,0.279,0.696c0.084,0.224,0.169,0.473,0.254,0.722c0.028,0.075,0.056,0.149,0.084,0.224
		c0.088,0.325,0.177,0.7,0.364,0.97c0.091,0.425,0.283,0.822,0.549,1.166c0.003,0.076,0.03,0.125,0.106,0.123
		c0.082,0.148,0.238,0.244,0.244,0.42c-0.025,0.026-0.049,0.052-0.074,0.078C78.483,66.46,78.279,66.466,78.076,66.498
		L78.076,66.498z M81.269,66.67c-0.001-0.025-0.001-0.025-0.001-0.025c-0.282-0.041-0.538-0.083-0.794-0.1
		c-0.336-0.14-0.846-0.148-1.136-0.416c-0.087-0.324-0.536-1.519-0.314-1.752c0.255-0.008,0.446,0.363,0.624,0.357
		c0.316,0.292,1.449,0.632,1.825,0.444c0.102-0.004,0.204-0.007,0.306-0.01c0.15-0.106,0.347-0.289,0.418-0.442
		c-0.031-0.175-0.037-0.351-0.043-0.527c-0.054-0.099-0.108-0.173-0.136-0.247c-0.105-0.097-0.21-0.195-0.315-0.267
		c-0.156-0.096-0.286-0.167-0.416-0.238c-0.207-0.094-0.414-0.188-0.622-0.282c-0.209-0.144-0.418-0.288-0.6-0.409
		c-0.078-0.048-0.13-0.071-0.182-0.095c-0.132-0.122-0.263-0.243-0.394-0.34c-0.106-0.122-0.187-0.246-0.267-0.369
		c-0.082-0.149-0.137-0.273-0.192-0.396c-0.058-0.2-0.09-0.4-0.122-0.575c-0.007-0.202-0.014-0.403-0.019-0.579
		c0.016-0.277,0.16-0.559,0.202-0.812c0.094-0.23,0.315-0.489,0.486-0.696c0.075-0.053,0.15-0.081,0.226-0.108
		c0.099-0.079,0.199-0.158,0.298-0.237c0.151-0.055,0.302-0.111,0.48-0.142c0.025-0.001,0.076-0.002,0.127-0.004
		c0.278-0.085,1.216-0.241,1.4-0.071c0.333,0.039,1.025,0.142,1.262,0.361c0.013,0.378,0.026,0.78,0.065,1.181
		c-0.023,0.077-0.046,0.153-0.042,0.254c-0.051,0.002-0.075,0.028-0.1,0.054c-0.262-0.193-0.571-0.284-0.855-0.4
		c-0.21-0.195-0.793-0.075-1.046-0.016c-0.075,0.053-0.149,0.106-0.224,0.158c-0.047,0.102-0.094,0.23-0.141,0.357
		c0.014,0.428,0.456,0.69,0.793,0.855c0.311,0.141,0.622,0.307,0.959,0.472c0.102-0.003,0.207,0.069,0.21,0.17
		c0.155,0.07,0.311,0.141,0.418,0.288c0.153-0.005,0.719,0.908,0.745,0.932c0.062,0.326,0.125,0.676,0.188,1.026
		c-0.017,0.253-0.033,0.53-0.049,0.808c-0.071,0.153-0.117,0.306-0.163,0.459c-0.098,0.129-0.195,0.258-0.267,0.412
		c-0.099,0.079-0.173,0.157-0.246,0.26c-0.251,0.134-0.476,0.267-0.7,0.426c-0.101,0.028-0.202,0.057-0.277,0.11
		c-0.228,0.033-0.457,0.065-0.659,0.123C81.727,66.63,81.497,66.638,81.269,66.67L81.269,66.67z M87.965,70.045
		c-0.001-0.025-0.001-0.025-0.001-0.025c-0.564-0.082-1.272,0.092-1.786-0.042c-0.002-0.075-0.004-0.126-0.006-0.176
		c-0.001-0.025,0.024-0.051,0.048-0.077c0.048-0.102,0.121-0.205,0.194-0.283c0.021-0.127,0.043-0.228,0.091-0.33
		c-0.014-0.403-0.002-0.806,0.011-1.184c-0.159-2.603,0.02-5.339-0.068-7.974c-0.128-0.021-0.256-0.042-0.358-0.039
		c-0.229,0.008-0.433,0.014-0.636,0.046c-0.076,0.002-0.152,0.03-0.228,0.058c-0.15,0.081-0.3,0.161-0.424,0.266
		c-0.076,0.028-0.151,0.055-0.2,0.107c-0.052-0.024-0.103-0.022-0.154-0.02c-0.118-0.475-0.09-1.156-0.081-1.634
		c-0.003-0.076,0.02-0.152,0.044-0.203c0.942-0.031,1.885-0.062,2.853-0.069c0.05-0.027,0.101-0.029,0.177-0.031
		c0.076-0.003,0.179,0.019,0.282,0.041c0.153-0.005,0.329-0.061,0.485,0.009c0.178-0.006,0.357-0.012,0.536,0.007
		c0.076-0.028,0.177-0.056,0.279-0.06c0.051-0.002,0.103,0.022,0.154,0.045c0.331-0.011,0.915-0.08,1.2,0.036
		c0.026,0.024,0.054,0.074,0.081,0.123c0.017,0.503,0.035,1.031,0.053,1.56c-0.076,0.028-0.126,0.055-0.175,0.106
		c-0.026-0.024-0.027-0.049-0.027-0.049c-0.053-0.049-0.105-0.097-0.158-0.146c-0.155-0.071-0.284-0.117-0.414-0.163
		c-0.357-0.013-0.715-0.027-1.071-0.015c-0.025,0.026-0.049,0.052-0.073,0.103c0.099,2.949-0.066,5.917,0.073,8.856
		c0.003,0.101,0.032,0.2,0.062,0.325c0.054,0.099,0.109,0.198,0.164,0.322c0.08,0.098,0.238,0.244,0.242,0.37
		c-0.05,0.027-0.075,0.053-0.099,0.079C88.677,69.996,88.32,70.008,87.965,70.045L87.965,70.045z M74.077,62.827
		c-0.001-0.025-0.001-0.025-0.001-0.025c-0.103-0.022-0.18-0.044-0.257-0.042c-0.014-0.402,0.202-0.838,0.317-1.194
		c0.02-0.177,0.039-0.354,0.085-0.507c0.024-0.026,0.049-0.052,0.1-0.053c0.031,0.15,0.065,0.401,0.17,0.498
		c0.086,0.299,0.203,0.724,0.366,1.021c0.003,0.076,0.005,0.151,0.009,0.252C74.585,62.785,74.33,62.793,74.077,62.827
		L74.077,62.827z M67.58,65.257c-0.001-0.025-0.001-0.025-0.001-0.025c-0.128-0.021-0.488-0.11-0.593-0.207
		c-0.104-0.072-0.209-0.144-0.288-0.217c-0.106-0.122-0.212-0.245-0.292-0.343c-0.054-0.099-0.109-0.198-0.138-0.298
		c-0.102,0.003-0.222-0.522-0.223-0.572c-0.083-0.173-0.14-0.348-0.195-0.497c-0.005-0.151-0.213-1.026-0.115-1.13
		c-0.005-0.151-0.011-0.302-0.015-0.453c0.098-0.104,0.038-0.379,0.161-0.509c-0.008-0.251,0.187-0.51,0.281-0.739
		c0.025-0.026,0.049-0.052,0.099-0.079c0.047-0.127,0.197-0.208,0.246-0.26c0.125-0.08,0.274-0.185,0.427-0.19
		c0.025-0.026,0.049-0.052,0.074-0.053c0.102-0.003,0.634-0.096,0.639,0.029c0.025-0.001,0.051-0.002,0.102-0.003
		c0.052,0.023,0.13,0.071,0.208,0.119c0.234,0.143,0.737,0.681,0.747,0.983c0.102-0.003,0.247,0.521,0.3,0.595
		c0.032,0.175,0.064,0.376,0.121,0.576c0.047,0.628,0.173,1.354-0.01,1.964c-0.123,0.13-0.139,0.408-0.287,0.564
		c0,0,0.001,0.025,0.002,0.05c-0.099,0.079-0.198,0.183-0.271,0.286c-0.125,0.08-0.25,0.159-0.374,0.264
		c-0.076,0.003-0.127,0.005-0.177,0.031c-0.051,0.002-0.076,0.028-0.1,0.054C67.782,65.2,67.681,65.228,67.58,65.257L67.58,65.257z"
		/>
</g>
</svg>
