<?xml version="1.0" encoding="utf-8"?>
<!-- Generator: Adobe Illustrator 19.1.0, SVG Export Plug-In . SVG Version: 6.00 Build 0)  -->
<svg version="1.1" id="Layer_1" xmlns="http://www.w3.org/2000/svg" xmlns:xlink="http://www.w3.org/1999/xlink" x="0px" y="0px"
	 viewBox="0 0 100 100" enable-background="new 0 0 100 100" xml:space="preserve">
<g>
	<path fill="#FFFFFF" d="M1.817,31.887c0-16.695,21.602-30.226,48.242-30.226c26.645,0,48.246,13.531,48.246,30.226
		c0,16.69-21.601,30.225-48.246,30.225C23.418,62.113,1.817,48.578,1.817,31.887"/>
	<path fill="none" stroke="#000000" stroke-width="0.2201" d="M1.817,31.887c0-16.695,21.602-30.226,48.242-30.226
		c26.645,0,48.246,13.531,48.246,30.226c0,16.69-21.601,30.225-48.246,30.225C23.418,62.113,1.817,48.578,1.817,31.887"/>
	<path fill="#0063A6" d="M90.596,54.108c0.35,0.348,0.522,0.772,0.522,1.268c0,0.5-0.172,0.924-0.522,1.278
		c-0.348,0.348-0.772,0.525-1.268,0.525c-0.5,0-0.919-0.177-1.268-0.525c-0.346-0.354-0.522-0.778-0.522-1.278
		c0-0.496,0.177-0.92,0.526-1.268c0.35-0.354,0.77-0.53,1.264-0.53C89.823,53.578,90.247,53.754,90.596,54.108z M90.804,53.903
		c-0.406-0.402-0.901-0.605-1.476-0.605c-0.574,0-1.061,0.204-1.467,0.605c-0.407,0.406-0.61,0.897-0.61,1.473
		c0,0.579,0.203,1.07,0.605,1.476c0.403,0.411,0.894,0.615,1.473,0.615c0.575,0,1.07-0.204,1.476-0.615
		c0.407-0.406,0.611-0.902,0.611-1.476C91.414,54.801,91.211,54.31,90.804,53.903z M89.637,55.279
		c-0.085,0.036-0.213,0.049-0.385,0.049h-0.362v-0.827h0.344c0.221,0,0.385,0.026,0.487,0.084c0.102,0.057,0.15,0.167,0.15,0.336
		C89.871,55.097,89.792,55.217,89.637,55.279z M88.488,56.512h0.403v-0.901h0.318c0.213,0,0.362,0.025,0.446,0.074
		c0.146,0.085,0.217,0.262,0.217,0.521v0.186l0.009,0.071c0.004,0.008,0.004,0.017,0.004,0.026c0.004,0.009,0.004,0.018,0.009,0.022
		h0.376l-0.013-0.027c-0.009-0.018-0.018-0.057-0.022-0.119c-0.004-0.063-0.004-0.12-0.004-0.172v-0.169
		c0-0.114-0.04-0.229-0.124-0.354c-0.083-0.119-0.217-0.195-0.397-0.225c0.146-0.022,0.256-0.058,0.336-0.111
		c0.15-0.093,0.221-0.243,0.221-0.45c0-0.287-0.115-0.478-0.354-0.579c-0.133-0.053-0.341-0.08-0.624-0.08h-0.799V56.512z"/>
	<path fill="#CF0A2C" d="M94.875,21.158C87.919,10.051,70.546,2.183,50.223,2.183c-20.337,0-37.713,7.876-44.666,18.989v0.009
		h14.312c0,0,8.102-6.807,24.307-8.045l2.674-3.16c0,0,5.565,0.278,11.948,2.405c0,0-1.305,3.571-5.353,5.011
		c0,0-3.642-3.09-5.565-3.845c0,0-1.37,0.411-1.44,3.297l1.923-1.374c0,0,3.5,2.198,4.875,4.739c0,0,5.769-2.679,6.936-6.317
		c0,0,12.562,2.608,20.664,7.276l14.03-0.022L94.875,21.158z"/>
	<path fill="#0033A0" d="M2.316,31.961c0,16.443,21.452,29.774,47.907,29.774c26.454,0,47.902-13.331,47.902-29.774
		c0-2.435-0.473-4.774-1.357-7.037h-9.796L74.29,38.654c0,0-4.208-7.965-11.669-12.311c-7.54-4.398-15.245-4.853-19.453-4.902
		c-4.213-0.043-6.777,0.23-6.777,0.23c1.052-0.915,3.249-2.059,3.249-2.059h-6.267c3.155-3.019,7.094-3.567,7.094-3.567
		c-7.417-1.56-15.471,6.037-15.471,6.037l2.241,2.109c0,0,5.582-0.827,10.206-0.827c10.255,0,15.7,1.238,21.513,4.946
		c5.817,3.709,6.869,8.376,7.143,11.533c0.273,3.16-4.212,10.347-8.469,10.347s-6.821-5.308-8.196-7.231
		c-1.37-1.923-4.208-5.724-7.324-7.784c-3.112-2.059-6.086-2.426-6.086-2.426c2.47,1.468,3.478,2.974,3.478,2.974
		c-1.512-0.226-8.01-0.729-8.01-0.729c-0.871,0.685-0.914,2.652-0.914,2.652l-2.564-1.189L27.1,38.199
		c-1.326-0.092-2.607-0.871-2.607-0.871c-0.323,1.145-0.416,2.197-0.416,2.197c-2.608-0.367-5.078-4.212-5.078-4.212
		c2.471-3.934,0.821-5.994,0.821-5.994c-0.318,2.745-2.197,3.797-2.197,3.797l-1.874-4.898l6.269-3.293H3.673
		C2.789,27.188,2.316,29.526,2.316,31.961"/>
	<path fill="#FFFFFF" d="M42.111,51.552c-8.649-1.856-12.461-7.757-12.461-7.757l4.221,0.204l0.828-2.608
		c0,0,2.232,1.649,3.089,2.024h7.038c0,0,1.511,4.774,5.94,8.138C50.766,51.552,47.424,52.688,42.111,51.552z"/>
	<polygon fill="#CF0A2C" points="8.023,73.405 11.492,73.405 13.071,78.432 13.101,78.432 14.445,73.405 16.827,73.405 
		18.119,78.396 18.15,78.396 19.731,73.405 22.924,73.405 19.365,83.33 16.845,83.33 15.576,78.409 15.546,78.409 14.136,83.33 
		11.678,83.33 	"/>
	<polygon fill="#CF0A2C" points="25.119,73.405 32.28,73.405 32.28,75.502 28.554,75.502 28.554,77.273 32.224,77.273 
		32.224,79.342 28.554,79.342 28.554,81.19 32.617,81.19 32.617,83.33 25.119,83.33 	"/>
	<path fill="#CF0A2C" d="M35.318,80.084c0.945,0.641,1.873,0.99,2.677,0.99c0.624,0,1.004-0.247,1.004-0.686
		c0-0.336-0.19-0.521-1.064-0.976c-0.96-0.478-1.278-0.68-1.69-1.061c-0.622-0.583-0.927-1.264-0.927-2.095
		c0-1.777,1.439-2.971,3.549-2.971c1.137,0,2.113,0.323,3.085,1.048v2.621c-0.946-0.858-1.747-1.282-2.457-1.282
		c-0.628,0-1.004,0.265-1.004,0.698c0,0.38,0.261,0.597,1.481,1.224c0.99,0.509,1.27,0.699,1.618,1.061
		c0.508,0.527,0.755,1.137,0.755,1.879c0,0.858-0.362,1.618-1.033,2.152c-0.699,0.571-1.424,0.774-2.706,0.774
		c-1.181,0-2.316-0.234-3.288-0.686V80.084z"/>
	<polygon fill="#CF0A2C" points="47.725,75.895 44.64,75.895 44.64,73.405 54.32,73.405 54.32,75.895 51.203,75.895 51.203,83.33 
		47.725,83.33 	"/>
	<polygon fill="#CF0A2C" points="57.051,73.405 64.297,73.405 64.297,75.502 60.486,75.502 60.486,77.273 64.155,77.273 
		64.155,79.342 60.486,79.342 60.486,81.19 64.548,81.19 64.548,83.33 57.051,83.33 	"/>
	<path fill="#CF0A2C" d="M67.487,73.405h4.107c0.914,0,1.644,0.028,2.165,0.071c0.481,0.057,0.947,0.204,1.371,0.424
		c0.871,0.464,1.409,1.353,1.409,2.325c0,1.079-0.538,1.852-1.586,2.316c0.482,0.247,0.716,0.464,1.021,0.99
		c0.159,0.261,0.406,0.768,0.596,1.18l1.176,2.617h-3.417l-0.613-1.468c-0.305-0.716-0.655-1.397-0.99-1.909
		c-0.129-0.217-0.292-0.394-0.451-0.508c-0.23-0.19-0.495-0.261-1.004-0.261h-0.349v4.146h-3.434V73.405z M71.284,77.654
		c1.34,0,1.954-0.42,1.954-1.366c0-0.889-0.583-1.281-1.923-1.281h-0.394v2.648H71.284z"/>
	<polygon fill="#CF0A2C" points="79.891,73.405 83.17,73.405 87.498,78.511 87.501,73.405 90.932,73.405 90.932,83.33 88.011,83.33 
		83.241,78.237 83.307,83.33 79.891,83.33 	"/>
	<path fill="#CF0A2C" d="M3.889,87.992H8.73c1.176,0,1.498,0.018,2.02,0.146c0.38,0.088,0.73,0.247,1.047,0.469
		c0.614,0.438,0.946,1.047,0.946,1.747c0,0.972-0.57,1.74-1.617,2.179c1.467,0.522,2.201,1.281,2.201,2.549
		c0,1.106-0.463,1.897-1.423,2.348c-0.451,0.216-1.564,0.491-2.334,0.491h-5.68V87.992z M8.009,96.125
		c0.672,0,0.959-0.043,1.295-0.163c0.526-0.186,0.632-0.641,0.632-1.146c0-0.499-0.384-1.139-1.87-1.139H7.284v2.448H8.009z
		 M8.142,91.935c1.206,0,1.564-0.411,1.564-1.097c0-0.689-0.428-1.144-1.71-1.144H7.284v2.24H8.142z"/>
	<path fill="#CF0A2C" d="M26.835,93.116c0,1.865-0.539,3.147-1.675,3.96c-0.959,0.686-2.024,0.977-3.638,0.977
		c-2.374,0-4.061-0.8-4.849-2.272c-0.349-0.641-0.478-1.282-0.478-2.285v-5.504h3.479v4.819c0,1.033,0.115,1.542,0.406,1.935
		c0.305,0.381,0.813,0.615,1.353,0.615c1.353,0,1.923-0.761,1.923-2.532v-4.837h3.479V93.116z"/>
	<polygon fill="#CF0A2C" points="30.283,87.992 33.762,87.992 33.762,95.432 37.665,95.432 37.665,97.921 30.283,97.921 	"/>
	<polygon fill="#CF0A2C" points="40.413,87.992 43.893,87.992 43.893,95.432 47.796,95.432 47.796,97.921 40.413,97.921 	"/>
	<path fill="#CF0A2C" d="M50.563,87.992h4.818c1.79,0,3.337,0.482,4.354,1.517c0.92,0.933,1.468,2.196,1.468,3.58
		c0,1.879-1.508,3.55-2.975,4.309c-0.698,0.363-1.777,0.522-2.838,0.522h-4.826V87.992z M54.956,95.321
		c1.689,0,2.679-0.791,2.679-2.538c0-1.746-1.061-2.43-2.78-2.43h-0.814v4.968H54.956z"/>
	<path fill="#CF0A2C" d="M74.653,92.957c0,3.085-2.14,5.096-5.402,5.096c-3.257,0-5.396-2.011-5.396-5.096
		c0-3.068,2.14-5.078,5.396-5.078C72.513,87.878,74.653,89.888,74.653,92.957z M67.333,92.957c0,1.37,0.725,2.183,1.918,2.183
		c1.194,0,1.91-0.813,1.91-2.183c0-1.34-0.73-2.184-1.91-2.184C68.058,90.772,67.333,91.604,67.333,92.957z"/>
	<path fill="#CF0A2C" d="M86.711,97.292c-0.698,0.319-2.484,0.761-3.576,0.761c-1.892,0-3.142-0.38-4.221-1.269
		c-1.091-0.901-1.715-2.21-1.715-3.607c0-3.174,2.4-5.299,5.981-5.299c1.206,0,2.417,0.22,3.492,0.654v2.489
		c-1.061-0.579-2.023-0.844-3.054-0.844c-1.72,0-2.94,1.18-2.94,2.824c0,1.587,1.074,2.59,2.763,2.59c0.177,0,0.363,0,0.583-0.013
		l0.172-0.013v-1.167h-1.233v-2.108h3.749V97.292z"/>
	<path fill="#CF0A2C" d="M89.84,94.676c0.947,0.641,1.88,0.99,2.679,0.99c0.628,0,1.004-0.248,1.004-0.685
		c0-0.336-0.19-0.526-1.061-0.978c-0.959-0.477-1.282-0.679-1.689-1.061c-0.627-0.583-0.932-1.268-0.932-2.094
		c0-1.778,1.441-2.97,3.554-2.97c1.131,0,2.109,0.322,3.085,1.047v2.621c-0.946-0.856-1.75-1.28-2.461-1.28
		c-0.624,0-1.005,0.26-1.005,0.697c0,0.38,0.262,0.597,1.486,1.224c0.989,0.508,1.264,0.699,1.613,1.061
		c0.509,0.526,0.756,1.137,0.756,1.88c0,0.856-0.363,1.613-1.03,2.152c-0.699,0.571-1.428,0.773-2.71,0.773
		c-1.176,0-2.311-0.234-3.289-0.685V94.676z"/>
</g>
</svg>
