<?xml version="1.0" encoding="utf-8"?>
<!-- Generator: Adobe Illustrator 19.1.0, SVG Export Plug-In . SVG Version: 6.00 Build 0)  -->
<svg version="1.1" id="Layer_1" xmlns="http://www.w3.org/2000/svg" xmlns:xlink="http://www.w3.org/1999/xlink" x="0px" y="0px"
	 viewBox="0 0 20 20" style="enable-background:new 0 0 20 20;" xml:space="preserve">
<style type="text/css">
	.st0{fill:#F9D529;}
	.st1{fill:#3B59A1;}
	.st2{fill:#E25645;}
	.st3{fill:#FFFFFF;}
	.st4{fill:#343536;}
	.st5{fill:#794F3E;}
	.st6{fill:#297E66;}
</style>
<g>
	<path class="st0" d="M3.5,12.1c0,0.7,0.3,1.4,0.9,1.8l5.5,4.1l5.5-4.1c0.6-0.4,0.9-1.1,0.9-1.8V1.8H3.5V12.1z"/>
	<path class="st1" d="M3.9,12.1c0,0.6,0.3,1.2,0.8,1.5l5.2,4l5.2-4c0.5-0.4,0.8-0.9,0.8-1.5v-10h-12V12.1z"/>
	<path class="st2" d="M9.9,17.6l5.2-4c0.5-0.4,0.8-0.9,0.8-1.5v-10L4.6,13.7L9.9,17.6z"/>
	<g>
		<polygon class="st3" points="14.7,3.4 13.1,5 13.1,15.2 14.7,14 		"/>
		<polygon class="st3" points="11.9,6.2 10.3,7.8 10.3,17.3 11.9,16.1 		"/>
		<polygon class="st3" points="9.1,9.1 7.5,10.7 7.5,15.9 9.1,17.1 		"/>
		<polygon class="st3" points="6.3,11.9 4.6,13.7 6.3,15 		"/>
	</g>
	<g>
		<polygon class="st3" points="4.7,7 4.5,7.5 4.1,7.5 4.4,7.8 4.3,8.2 4.7,8 5.1,8.2 5,7.8 5.3,7.5 4.9,7.5 		"/>
		<g>
			<polygon class="st3" points="10.8,5.5 10.6,5.9 10.2,5.9 10.5,6.2 10.4,6.7 10.8,6.4 11.2,6.7 11.1,6.2 11.4,5.9 11,5.9 			"/>
			<polygon class="st3" points="13.9,2.3 13.7,2.8 13.2,2.8 13.6,3.1 13.5,3.5 13.9,3.3 14.2,3.5 14.1,3.1 14.5,2.8 14,2.8 			"/>
			<polygon class="st3" points="4.7,2.3 4.5,2.8 4.1,2.8 4.4,3.1 4.3,3.5 4.7,3.3 5.1,3.5 5,3.1 5.3,2.8 4.9,2.8 			"/>
			<polygon class="st3" points="9.3,2.3 9.1,2.8 8.6,2.8 9,3.1 8.9,3.5 9.3,3.3 9.7,3.5 9.5,3.1 9.9,2.8 9.4,2.8 			"/>
			<polygon class="st3" points="4.7,11.7 4.5,12.2 4.1,12.2 4.4,12.5 4.3,12.9 4.7,12.6 5.1,12.9 5,12.5 5.3,12.2 4.9,12.2 			"/>
			<polygon class="st3" points="7.8,8.6 7.6,9 7.1,9 7.5,9.3 7.4,9.8 7.8,9.5 8.1,9.8 8,9.3 8.4,9 7.9,9 			"/>
		</g>
	</g>
	<polygon class="st3" points="5.5,10.3 5.5,3.9 11.8,3.9 	"/>
	<path class="st4" d="M7.2,5.9c0,0.1-0.1,0.3-0.1,0.4c0,0-0.1,0-0.1,0c0,0-0.1-0.2-0.2-0.4v0.9C6.8,6.8,6.9,6.8,7,6.8
		C7,6.9,7.1,7.1,7.2,7.2c0,0.2,0,0.3,0.1,0.4c0.1,0.1,0,0.2,0,0.2C7,7.9,7.8,8,7.8,8c0,0,0-0.1,0-0.1c-0.1-0.2-0.1-0.3,0-0.5
		C8,7.4,8,7.3,7.9,7.1C7.9,7,8,7,7.8,6.8C7.7,6.6,7.6,6.2,7.7,6c0.1-0.2,0.2-0.3-0.1-0.2c-0.1,0-0.1-0.1-0.2-0.1c-0.1,0-0.1,0-0.2,0
		c-0.1,0-0.2-0.2-0.2,0C7,5.7,7.2,5.8,7.2,5.9z"/>
	<path class="st5" d="M6.8,5.9l0,0.8l0,1c0,0.1,0.1,0.2,0.2,0.2l0.7,0c0.1,0,0.3,0.1,0,0.1L5.9,8C5.8,8,5.9,7.9,6,7.9l0.4,0
		c0.1,0,0.1-0.1,0.1-0.2v-2c0,0,0-0.1,0-0.1c0,0,0.1,0,0.1,0c0.1,0,0.1,0,0.2,0c0,0,0,0.1,0,0.1V5.9z"/>
	<path class="st6" d="M7.2,5.5L7.2,5.5L7.1,5.6l0,0c-0.1,0-0.3,0.1-0.4,0.1c-0.6,0-1.1-0.3-1.1-0.8c0-0.4,0.5-0.8,1.1-0.8
		s1.1,0.3,1.1,0.8C7.7,5.1,7.5,5.4,7.2,5.5z"/>
	<circle class="st2" cx="6.5" cy="4.4" r="0.1"/>
	<circle class="st2" cx="6" cy="4.6" r="0.1"/>
	<circle class="st2" cx="6.4" cy="5.1" r="0.1"/>
	<circle class="st2" cx="7.1" cy="5.1" r="0.1"/>
	<circle class="st2" cx="6.8" cy="4.8" r="0.1"/>
	<circle class="st2" cx="7.3" cy="4.6" r="0.1"/>
</g>
</svg>
