<?xml version="1.0" encoding="utf-8"?>
<!-- Generator: Adobe Illustrator 19.1.0, SVG Export Plug-In . SVG Version: 6.00 Build 0)  -->
<svg version="1.1" id="Layer_1" xmlns="http://www.w3.org/2000/svg" xmlns:xlink="http://www.w3.org/1999/xlink" x="0px" y="0px"
	 viewBox="0 0 20 20" style="enable-background:new 0 0 20 20;" xml:space="preserve">
<style type="text/css">
	.st0{fill:#333435;}
	.st1{fill:#E4BA41;}
	.st2{fill:none;stroke:#333435;stroke-width:0;stroke-miterlimit:3.864;}
	.st3{clip-path:url(#SVGID_2_);fill:#0076B6;}
	.st4{clip-path:url(#SVGID_2_);fill:#A93B63;}
	.st5{fill:#FFFFFF;}
	.st6{clip-path:url(#SVGID_4_);fill:#D84257;}
	.st7{clip-path:url(#SVGID_4_);fill:#F8D426;}
	.st8{fill-rule:evenodd;clip-rule:evenodd;fill:#333435;}
</style>
<g>
	<g>
		<path class="st0" d="M7.2,2C6.3,2.5,5.7,2.6,4.6,2.6c-0.4,0-0.7-0.1-1.1-0.2L3.2,2.3L3,2.6L2.8,2.8C2.8,2.9,2.7,3,2.6,3.1L2.4,3.4
			l0.2,0.2c0.6,0.8,0.9,1.7,0.9,2.5C3.5,7.7,2.7,9,2,9.7L1.7,10L2,10.3c0.1,0.1,0.4,0.4,0.5,0.5c0,0,0,0.1,0,0.1l0,0
			c0,0.2,0,0.3,0,0.5c0,1.6,0.5,2.9,1.4,4c1.1,1.2,2.8,1.9,4.7,2c0.5,0.4,1,0.8,1,0.8l0.3,0.2l0.3-0.2c0,0,0.5-0.4,1-0.8
			c2-0.1,3.7-0.8,4.7-2c0.9-1,1.4-2.4,1.4-4c0-0.1,0-0.3,0-0.5l0,0l0,0c0,0,0,0,0-0.1c0.2-0.2,0.8-0.9,0.8-0.9l-0.3-0.3
			c-0.7-0.7-1.5-2-1.5-3.5c0-0.8,0.2-1.7,0.9-2.5l0.2-0.2l-0.2-0.3C17.2,3,17.1,2.9,17,2.8l-0.4-0.5l-0.3,0.1
			c-0.4,0.1-0.7,0.2-1.1,0.2c-1.1,0-1.7-0.1-2.5-0.7l-0.3-0.2L12.2,2c-0.7,0.5-1.4,0.7-2.2,0.7C9.1,2.7,8.4,2.5,7.7,2L7.4,1.8L7.2,2
			z M12.4,2.9c0.9,0.5,1.7,0.6,2.8,0.6c0.3,0,0.7-0.1,1.1-0.1c0,0,0,0,0,0c-0.6,0.9-0.9,1.9-0.9,2.8c0,1.6,0.8,3,1.5,3.9
			c-0.2,0.2-0.5,0.5-0.5,0.5l0,0.2l0,0.1l0,0.1l0,0c0,0.1,0,0.3,0,0.4c0,1.4-0.4,2.5-1.2,3.4c-0.9,1-2.5,1.6-4.3,1.7l-0.2,0
			l-0.1,0.1c-0.3,0.3-0.6,0.5-0.8,0.6c-0.2-0.2-0.5-0.4-0.8-0.6L9,16.5l-0.2,0c-1.8-0.1-3.3-0.7-4.3-1.7c-0.8-0.9-1.2-2-1.2-3.4
			c0-0.1,0-0.3,0-0.4l0,0l0-0.1l0-0.3l-0.1-0.2c-0.1-0.1-0.2-0.3-0.4-0.4c0.7-0.9,1.5-2.3,1.5-3.9c0-0.9-0.2-1.8-0.9-2.8
			c0,0,0,0,0,0c0.4,0.1,0.7,0.1,1.1,0.1c1.1,0,1.9-0.1,2.8-0.6C8.2,3.4,9,3.6,9.9,3.6C10.8,3.6,11.6,3.4,12.4,2.9z"/>
	</g>
	<path class="st1" d="M9.9,17.8c0,0-0.6-0.4-1.1-0.9c-3.3-0.1-6.1-2-5.9-6c0-0.1,0-0.1,0-0.3c-0.2-0.2-0.5-0.5-0.7-0.7
		C3.5,8.8,4.9,6,3,3.4c0.1-0.2,0.2-0.3,0.4-0.5C3.8,3,4.2,3.1,4.6,3.1c1.1,0,1.9-0.1,2.8-0.7C8.2,2.8,9,3.2,9.9,3.2
		c1,0,1.8-0.3,2.5-0.8c0.9,0.6,1.7,0.7,2.8,0.7c0.4,0,0.9-0.1,1.2-0.2c0.2,0.3,0.3,0.3,0.4,0.5C14.9,6,16.3,8.8,17.5,10
		c-0.2,0.2-0.5,0.5-0.7,0.7c0,0.2,0,0.2,0,0.3c0.2,4-2.5,5.8-5.9,6C10.5,17.4,9.9,17.8,9.9,17.8"/>
	<path class="st2" d="M9.9,17.8c0,0-0.6-0.4-1.1-0.9c-3.3-0.1-6.1-2-5.9-6c0-0.1,0-0.1,0-0.3c-0.2-0.2-0.5-0.5-0.7-0.7
		C3.5,8.8,4.9,6,3,3.4c0.1-0.2,0.2-0.3,0.4-0.5C3.8,3,4.2,3.1,4.6,3.1c1.1,0,1.9-0.1,2.8-0.7C8.2,2.8,9,3.2,9.9,3.2
		c1,0,1.8-0.3,2.5-0.8c0.9,0.6,1.7,0.7,2.8,0.7c0.4,0,0.9-0.1,1.2-0.2c0.2,0.3,0.3,0.3,0.4,0.5C14.9,6,16.3,8.8,17.5,10
		c-0.2,0.2-0.5,0.5-0.7,0.7c0,0.2,0,0.2,0,0.3c0.2,4-2.5,5.8-5.9,6C10.5,17.4,9.9,17.8,9.9,17.8z"/>
	<g>
		<defs>
			<path id="SVGID_1_" d="M3.6,10.8h12.6c0,0.1,0,0.1,0,0.2c0.2,3.6-2.3,5.2-5.5,5.3c-0.5,0-1,0-1.6,0c-3.2-0.1-5.7-1.7-5.5-5.3
				C3.6,10.9,3.6,10.9,3.6,10.8"/>
		</defs>
		<clipPath id="SVGID_2_">
			<use xlink:href="#SVGID_1_"  style="overflow:visible;"/>
		</clipPath>
		<rect x="3.5" y="10.8" class="st3" width="1.8" height="5.6"/>
		<rect x="5.4" y="10.8" class="st4" width="1.8" height="5.6"/>
		<rect x="7.2" y="10.8" class="st3" width="1.8" height="5.6"/>
		<rect x="9" y="10.8" class="st4" width="1.8" height="5.6"/>
		<rect x="10.9" y="10.8" class="st3" width="1.8" height="5.6"/>
		<rect x="12.7" y="10.8" class="st4" width="1.8" height="5.6"/>
		<rect x="14.5" y="10.8" class="st3" width="1.8" height="5.6"/>
	</g>
	<g>
		<path class="st0" d="M3.6,10.7L3.6,10.7l-0.1,0.2l0,0.1c-0.1,1.5,0.3,2.8,1.1,3.7c1,1,2.5,1.6,4.4,1.7c0.7,0,1.2,0,1.6,0
			c2-0.1,3.5-0.7,4.4-1.7c0.8-0.9,1.2-2.1,1.1-3.7c0,0,0-0.1,0-0.1l0-0.2l-0.1,0H3.6z M16.2,10.9C16.2,10.9,16.2,11,16.2,10.9l0,0.2
			c0,0.1,0,0.2,0,0.4c0,1.3-0.4,2.4-1.1,3.2c-0.9,1-2.4,1.6-4.4,1.7c-0.5,0-1,0-1.6,0c-1.9-0.1-3.4-0.7-4.4-1.7
			c-0.7-0.8-1.1-1.9-1.1-3.2c0-0.1,0-0.2,0-0.4c0,0,0-0.1,0-0.1s0,0,0-0.1C3.8,10.9,16.1,10.9,16.2,10.9z"/>
	</g>
	<path class="st1" d="M8.2,13.5c0-1,0.8-1.8,1.8-1.8c1,0,1.8,0.8,1.8,1.8c0,1-0.8,1.8-1.8,1.8C9,15.3,8.2,14.5,8.2,13.5"/>
	<g>
		<path class="st0" d="M8.2,13.5c0,1,0.8,1.8,1.8,1.8c1,0,1.8-0.8,1.8-1.8c0-1-0.8-1.8-1.8-1.8C8.9,11.7,8.2,12.5,8.2,13.5z
			 M8.2,13.5c0-1,0.8-1.8,1.8-1.8c1,0,1.8,0.8,1.8,1.8c0,1-0.8,1.8-1.8,1.8C9,15.3,8.2,14.5,8.2,13.5z"/>
	</g>
	<path class="st0" d="M9.9,11.7c1,0,1.8,0.8,1.8,1.8c0,1-0.8,1.8-1.8,1.8c-1,0-1.8-0.8-1.8-1.8C8.2,12.5,8.9,11.7,9.9,11.7 M9,13.8
		c-0.3-0.3-0.3-0.9-0.2-1.3c0-0.1,0.1-0.2,0.1-0.3c-0.4,0.3-0.6,0.8-0.6,1.3c0,0.2,0,0.4,0.1,0.6l0.1,0C8.7,14.1,8.9,14,9,13.8z
		 M10.7,14c-0.1,0.3-0.4,0.5-0.6,0.7c-0.3,0.2-0.8,0.3-1.1,0.3c0.3,0.2,0.6,0.3,0.9,0.3c0.6,0,1.2-0.3,1.5-0.9
		C11.3,13.9,10.9,13.9,10.7,14z M8.9,14.8c0.3,0,0.9-0.1,1.2-0.3c0.4-0.2,0.7-0.5,0.6-0.8c-0.1-0.2-0.3-0.4-0.6-0.2
		c0,0.3-0.3,0.5-0.6,0.5c-0.1,0-0.2-0.1-0.3-0.1c-0.1,0.2-0.4,0.3-0.6,0.3l0,0C8.5,14.5,8.7,14.6,8.9,14.8z M9.9,12.5
		c0.3-0.1,0.7,0,0.9,0.2c0.3,0.2,0.6,0.4,0.7,0.7c-0.1-0.9-0.8-1.6-1.6-1.6C9.7,12,9.7,12.3,9.9,12.5z M9.9,13.5
		c-0.3-0.2-0.3-0.6-0.2-0.9c0-0.1,0.1-0.1,0.1-0.1c-0.2-0.2-0.2-0.5,0-0.7c-0.3,0-0.6,0.1-0.8,0.3c-0.1,0.3-0.2,0.6-0.2,0.9
		c0,0.4,0.2,0.8,0.6,0.8C9.6,13.9,9.8,13.7,9.9,13.5z M11.6,13.7c-0.1-0.3-0.4-0.7-0.8-0.9c-0.4-0.2-0.8-0.3-1,0
		c-0.1,0.2-0.1,0.5,0.1,0.7c0.4-0.3,0.7,0,0.8,0.2c0,0.1,0,0.1,0,0.2c0.2-0.1,0.6,0,0.7,0.3C11.5,14,11.6,13.8,11.6,13.7z"/>
	<path class="st5" d="M4,8.5c0.6-1.4,0.8-3.2-0.2-4.9c0.3,0,0.5,0.1,0.8,0.1c1,0,1.9-0.1,2.8-0.6C8.2,3.5,9,3.8,9.9,3.8
		c1,0,1.8-0.3,2.5-0.7c0.9,0.5,1.7,0.6,2.8,0.6c0.3,0,0.5,0,0.8-0.1c-1,1.7-0.8,3.5-0.2,4.9H4"/>
	<g>
		<defs>
			<path id="SVGID_3_" d="M4,8.5c0.6-1.4,0.8-3.2-0.2-4.9c0.3,0,0.5,0.1,0.8,0.1c1,0,1.9-0.1,2.8-0.6C8.2,3.5,9,3.8,9.9,3.8
				c1,0,1.8-0.3,2.5-0.7c0.9,0.5,1.7,0.6,2.8,0.6c0.3,0,0.5,0,0.8-0.1c-1,1.7-0.8,3.5-0.2,4.9H4"/>
		</defs>
		<clipPath id="SVGID_4_">
			<use xlink:href="#SVGID_3_"  style="overflow:visible;"/>
		</clipPath>
		<rect x="6.3" y="3.1" class="st6" width="1.8" height="5.5"/>
		<rect x="4" y="5.2" class="st6" width="5.9" height="1.8"/>
		<rect x="14.9" y="3.1" class="st7" width="1" height="5.5"/>
		<rect x="9.9" y="3.1" class="st7" width="0.6" height="5.5"/>
		<rect x="10.5" y="3.1" class="st6" width="0.6" height="5.5"/>
		<rect x="11.1" y="3.1" class="st7" width="0.6" height="5.5"/>
		<rect x="11.7" y="3.1" class="st6" width="0.6" height="5.5"/>
		<rect x="12.4" y="3.1" class="st7" width="0.6" height="5.5"/>
		<rect x="13" y="3.1" class="st6" width="0.6" height="5.5"/>
		<rect x="13.6" y="3.1" class="st7" width="0.6" height="5.5"/>
		<rect x="14.3" y="3.1" class="st6" width="0.6" height="5.5"/>
	</g>
	<g>
		<path class="st0" d="M12.4,3c-0.8,0.5-1.6,0.7-2.5,0.7C9.1,3.7,8.2,3.5,7.5,3l0,0l0,0C6.5,3.5,5.7,3.6,4.6,3.6
			c-0.2,0-0.5,0-0.8-0.1l-0.1,0l0.1,0.1C4.9,5.5,4.5,7.3,4,8.5l0,0.1h12l0-0.1c-0.5-1.2-0.9-3,0.2-4.9l0.1-0.1l-0.1,0
			c-0.3,0.1-0.5,0.1-0.8,0.1C14.1,3.6,13.4,3.5,12.4,3L12.4,3L12.4,3z M4.6,3.7c1.1,0,1.9-0.1,2.8-0.6C8.2,3.6,9,3.8,9.9,3.8
			c0.9,0,1.7-0.2,2.5-0.7c0.9,0.5,1.7,0.6,2.8,0.6c0.2,0,0.4,0,0.7-0.1c-0.5,0.9-0.7,1.7-0.7,2.5c0,0.9,0.2,1.7,0.5,2.3
			c-0.2,0-11.4,0-11.6,0C4.4,7.8,4.6,7,4.6,6.2c0-0.8-0.2-1.6-0.7-2.5C4.2,3.7,4.4,3.7,4.6,3.7L4.6,3.7z"/>
		<path class="st0" d="M10,8.5V3.8V8.5z M9.8,8.5V3.8V8.5z"/>
	</g>
	<polyline class="st0" points="8.4,9.2 8.4,8.9 7.3,8.9 7.3,10.5 7.6,10.5 7.6,9.8 8.1,9.8 8.1,9.5 7.6,9.5 7.6,9.2 8.4,9.2 	"/>
	<g>
		<path class="st0" d="M8.4,8.8H7.2v1.7h0.4c0,0,0-0.6,0-0.7c0,0,0.5,0,0.5,0V9.5c0,0-0.4,0-0.5,0c0,0,0-0.2,0-0.3c0,0,0.8,0,0.8,0
			L8.4,8.8L8.4,8.8z M8.4,8.9c0,0,0,0.2,0,0.3c0,0-0.8,0-0.8,0v0.4c0,0,0.4,0,0.5,0c0,0,0,0.2,0,0.3c0,0-0.5,0-0.5,0s0,0.6,0,0.7
			c0,0-0.2,0-0.3,0c0,0,0-1.5,0-1.6C7.3,8.9,8.3,8.9,8.4,8.9z"/>
	</g>
	<path class="st0" d="M10.4,9.2C10.3,9,10.1,8.8,9.8,8.8c-0.4,0-0.7,0.3-0.7,0.8c0,0.5,0.3,0.8,0.7,0.8c0.3,0,0.5-0.1,0.6-0.4
		L10.1,10c-0.1,0.1-0.2,0.2-0.3,0.2c-0.2,0-0.4-0.2-0.4-0.5c0-0.3,0.1-0.5,0.4-0.5c0.1,0,0.2,0.1,0.3,0.2L10.4,9.2"/>
	<g>
		<path class="st0" d="M9.1,9.7c0,0.5,0.3,0.9,0.7,0.9c0.3,0,0.5-0.1,0.6-0.4l0,0l-0.3-0.2l0,0c-0.1,0.1-0.2,0.2-0.3,0.2
			c-0.2,0-0.4-0.2-0.4-0.5c0-0.3,0.1-0.5,0.4-0.5c0.1,0,0.2,0.1,0.3,0.2l0,0l0.3-0.2l0,0c-0.1-0.2-0.3-0.4-0.6-0.4
			C9.4,8.8,9.1,9.2,9.1,9.7z M9.1,9.7c0-0.5,0.3-0.8,0.7-0.8c0.3,0,0.4,0.1,0.6,0.3c0,0-0.2,0.1-0.3,0.1C10,9.2,9.9,9.1,9.8,9.1
			c-0.2,0-0.4,0.2-0.4,0.5c0,0.3,0.2,0.5,0.4,0.5c0.1,0,0.2-0.1,0.3-0.2c0,0,0.2,0.1,0.2,0.1c-0.1,0.2-0.3,0.3-0.6,0.3
			C9.4,10.5,9.1,10.2,9.1,9.7z"/>
	</g>
	<path class="st8" d="M12.6,10c0-0.2-0.1-0.3-0.2-0.4c0.1-0.1,0.2-0.2,0.2-0.3c0-0.3-0.2-0.4-0.5-0.4h-0.7v1.6H12
		C12.4,10.5,12.6,10.3,12.6,10 M12.2,9.3c0,0.1,0,0.2-0.2,0.2h-0.4V9.2H12C12.1,9.2,12.2,9.2,12.2,9.3z M12.3,10
		c0,0.1-0.1,0.2-0.2,0.2h-0.4V9.8H12C12.2,9.8,12.3,9.8,12.3,10z"/>
	<g>
		<path class="st0" d="M11.3,8.8L11.3,8.8l0,1.7H12c0.4,0,0.6-0.2,0.6-0.5c0-0.2-0.1-0.3-0.2-0.4c0.1-0.1,0.2-0.2,0.2-0.3
			c0-0.3-0.2-0.4-0.5-0.4H11.3z M12,8.9c0.3,0,0.5,0.1,0.5,0.4c0,0.1-0.1,0.2-0.2,0.3l0,0l0,0c0.1,0.1,0.2,0.2,0.2,0.3
			c0,0.3-0.2,0.5-0.5,0.5c0,0-0.7,0-0.7,0c0,0,0-1.5,0-1.6C11.4,8.9,12,8.9,12,8.9z"/>
		<path class="st0" d="M11.6,9.1L11.6,9.1l0,0.4H12c0.2,0,0.2-0.1,0.2-0.2c0-0.1-0.1-0.2-0.2-0.2H11.6z M12,9.2
			c0.2,0,0.2,0.1,0.2,0.1c0,0.1,0,0.1-0.2,0.1c0,0-0.4,0-0.4,0c0,0,0-0.2,0-0.3C11.7,9.2,12,9.2,12,9.2z"/>
		<path class="st0" d="M11.6,9.7L11.6,9.7l0,0.5H12c0.2,0,0.3-0.1,0.3-0.2c0-0.2-0.1-0.2-0.3-0.2H11.6z M12,9.8
			c0.1,0,0.2,0.1,0.2,0.2c0,0.1-0.1,0.2-0.2,0.2c0,0-0.4,0-0.4,0c0,0,0-0.3,0-0.4C11.7,9.8,12,9.8,12,9.8z"/>
	</g>
</g>
</svg>
