<?xml version="1.0" encoding="utf-8"?>
<!-- Generator: Adobe Illustrator 19.1.0, SVG Export Plug-In . SVG Version: 6.00 Build 0)  -->
<svg version="1.1" id="Layer_1" xmlns="http://www.w3.org/2000/svg" xmlns:xlink="http://www.w3.org/1999/xlink" x="0px" y="0px"
	 viewBox="0 0 20 20" style="enable-background:new 0 0 20 20;" xml:space="preserve">
<style type="text/css">
	.st0{fill:#343536;}
	.st1{fill:#9AAE5F;}
	.st2{fill:#F9D529;}
	.st3{fill:#FBC926;}
	.st4{fill:#E25645;}
	.st5{fill:#FFFFFF;}
</style>
<g>
	<path class="st0" d="M12.1,4.7L12.1,4.7L12.1,4.7C12,4.6,12,4.5,11.9,4.5c0,0,0,0,0,0c0,0,0,0,0-0.1c0,0,0,0-0.1,0l0,0l-0.1,0
		c0,0,0,0,0,0c0,0,0-0.1,0-0.1c0,0,0,0-0.1,0c0,0-0.1,0-0.1,0l0,0l0,0l0,0c0,0,0-0.1,0-0.1c0,0,0,0-0.1,0c0,0-0.1,0-0.1,0
		c0,0,0,0,0,0.1l-0.1,0c0,0,0,0,0,0c0,0,0-0.1,0-0.1c0,0,0,0-0.1,0c0,0-0.1,0-0.1,0c0,0,0,0,0,0.1l0,0c0,0,0-0.1,0-0.1
		c0,0,0,0-0.1,0c0,0-0.1,0-0.1,0c0,0,0,0,0,0.1c0,0,0,0,0,0l0,0c0,0,0,0,0-0.1c0,0,0,0-0.1,0c0,0-0.1,0-0.1,0c0,0,0,0,0,0.1l0,0l0,0
		l0,0c0,0,0,0-0.1,0c0,0,0,0,0,0c0-0.1-0.1-0.2-0.2-0.2c0,0,0.1-0.1,0.1-0.2c0-0.1,0-0.1-0.1-0.2c0,0-0.1-0.1-0.1-0.1V3.4h0.1
		c0,0,0,0,0,0c0,0,0,0,0,0V3.3c0,0,0,0,0,0c0,0,0,0,0,0H9.9V3.2c0,0,0,0,0,0c0,0,0,0,0,0H9.8c0,0,0,0,0,0c0,0,0,0,0,0v0.1H9.7
		c0,0,0,0,0,0c0,0,0,0,0,0v0.1c0,0,0,0,0,0c0,0,0,0,0,0h0.1v0.1c0,0-0.1,0-0.1,0.1c0,0.1-0.1,0.1-0.1,0.2c0,0.1,0,0.1,0.1,0.2
		c0,0,0,0-0.1,0c0,0-0.1,0.1-0.1,0.2c0,0,0,0,0,0c0,0-0.1,0-0.1,0c0,0,0,0,0,0l0,0c0,0,0,0,0,0c0,0,0-0.1,0-0.1c0,0,0,0-0.1,0
		c0,0-0.1,0-0.1,0c0,0,0,0,0,0.1l0,0l0,0c0,0,0-0.1,0-0.1c0,0,0,0-0.1,0c0,0-0.1,0-0.1,0c0,0,0,0,0,0.1l0,0c0,0,0-0.1,0-0.1
		c0,0,0,0-0.1,0c0,0-0.1,0-0.1,0c0,0,0,0,0,0.1v0l-0.1,0c0,0,0,0,0-0.1c0,0,0,0-0.1,0c0,0-0.1,0-0.1,0c0,0,0,0,0,0.1c0,0,0,0,0,0
		l0,0c0,0,0,0,0,0c0,0-0.1,0-0.1,0c0,0-0.1,0-0.1,0c0,0,0,0,0,0.1c0,0,0,0,0,0L8,4.4l0,0c0,0-0.1,0-0.1,0c0,0,0,0,0,0.1l0,0h0
		C7.8,4.5,7.7,4.6,7.7,4.7l0,0l0,0c0,0,0,0-0.1,0c0,0-0.1,0-0.1,0c0,0,0,0,0,0.1l-0.1,0c0,0,0,0-0.1,0c0,0-0.1,0-0.1,0
		c0,0,0,0.1,0,0.1v0L7,4.9c0,0,0,0,0,0c0,0-0.1,0-0.1,0c0,0,0,0,0,0.1c0,0,0,0,0,0L6.8,5.1l0,0c0,0-0.1,0-0.1,0c0,0,0,0,0,0.1
		c0,0,0,0,0,0.1l0,0.1h0c0,0-0.1,0-0.1,0c0,0,0,0.1,0,0.1c0,0,0,0.1,0,0.1l0,0l0,0.1c0,0,0,0-0.1,0c0,0,0,0.1,0,0.1c0,0,0,0.1,0,0.1
		c0,0,0,0,0.1,0l0,0.1c0,0,0,0,0,0c0,0,0,0.1,0,0.1c0,0,0,0.1,0,0.1c0,0,0.1,0,0.1,0h0l0,0l0,0c0,0,0,0,0,0.1c0,0,0,0.1,0,0.1
		c0,0,0,0,0.1,0l0,0l0,0c0,0,0,0,0,0.1c0,0,0,0.1,0,0.1c0,0,0,0,0.1,0l0,0c0,0,0,0,0,0c0,0,0,0,0,0.1c0,0,0,0,0,0.1c0,0,0,0,0.1,0
		l0,0l0,0c0,0,0,0,0,0c0,0,0,0,0,0c0,0,0,0,0,0l0,0l0,0c0,0,0,0,0,0c0,0,0,0,0,0c0,0,0,0,0,0c0,0.1,0,0.1,0,0.2v0c0,0,0.1,0,0.1,0h0
		c0,0,0,0,0-0.1c0,0,0,0.1,0,0.1v0l0,0h0c0,0,0,0,0,0v0l0,0.1c0,0.1,0,0.1,0,0.1c0,0,0.1,0.1,0.1,0l0,0c0.2,0.1,0.3,0.2,0.4,0.1
		l0,0.1c0,0,0,0,0,0c0,0,0.1,0.1,0.1,0.1l0,0.1c0,0,0,0.1,0,0.1c0,0,0,0.1,0,0.1c0,0,0,0,0.1,0l0.1,0.3c0,0.1,0,0.1,0.1,0.1
		c0,0,0,0,0,0l0,0c0.3-0.3,0.9-0.5,1.6-0.5h0c0.7,0,1.2,0.2,1.6,0.5c0,0,0,0,0,0c0,0,0,0,0,0c0.1,0,0.1-0.1,0.1-0.1L11.6,8
		c0,0,0.1,0,0.1,0c0,0,0-0.1,0-0.1c0,0,0-0.1,0-0.1l0-0.1c0.1,0,0.1-0.1,0.1-0.1v0l0-0.1c0.1,0,0.2,0,0.4-0.1v0c0.1,0,0.1,0,0.1,0
		c0,0,0-0.1,0-0.1l0-0.1c0,0,0,0,0,0l0,0v0c0,0,0-0.1,0-0.1c0,0,0,0,0.1,0.1c0,0,0.1,0,0.1,0c0,0,0,0,0,0c0-0.1,0-0.1,0-0.2
		c0,0,0,0,0,0v0c0,0,0,0,0,0l0,0l0,0c0,0,0,0,0,0c0,0,0,0,0,0l0,0l0,0l0,0c0,0,0,0,0.1,0c0,0,0,0,0-0.1c0,0,0,0,0-0.1c0,0,0,0,0,0
		l0,0c0,0,0.1,0,0.1,0c0,0,0,0,0-0.1c0,0,0-0.1,0-0.1c0,0,0,0,0,0l0,0c0,0,0,0,0,0c0,0,0.1,0,0.1,0c0,0,0-0.1,0-0.1c0,0,0-0.1,0-0.1
		l0,0l0,0h0c0,0,0.1,0,0.1,0c0,0,0-0.1,0-0.1c0,0,0-0.1,0-0.1c0,0,0,0,0,0l0-0.1c0,0,0.1,0,0.1,0c0,0,0-0.1,0-0.1c0,0,0-0.1,0-0.1
		c0,0,0,0-0.1,0l0-0.1l0,0c0,0,0-0.1,0-0.1c0,0,0-0.1,0-0.1c0,0-0.1,0-0.1,0h0c0,0,0,0,0-0.1c0,0,0,0,0-0.1c0,0,0-0.1,0-0.1
		c0,0,0,0-0.1,0l0,0L12.9,5v0c0,0,0-0.1,0-0.1c0,0,0,0-0.1,0c0,0,0,0,0,0l-0.1-0.1v0c0,0,0-0.1,0-0.1h0c0,0-0.1,0-0.1,0
		c0,0-0.1,0-0.1,0l-0.1,0c0,0,0-0.1,0-0.1C12.3,4.6,12.3,4.6,12.1,4.7C12.2,4.6,12.2,4.6,12.1,4.7z M12.2,4.7
		C12.2,4.7,12.2,4.7,12.2,4.7c0.1,0,0.1,0,0.1,0c0,0,0,0,0,0.1v0c0,0,0,0,0,0.1c0,0,0,0-0.1,0c0,0,0,0-0.1,0
		C12.2,4.8,12.1,4.8,12.2,4.7C12.1,4.7,12.2,4.7,12.2,4.7L12.2,4.7z M11.9,4.5L11.9,4.5C11.9,4.5,11.8,4.5,11.9,4.5
		C11.8,4.6,11.8,4.6,11.9,4.5c-0.1,0.1-0.1,0.1-0.1,0.1c0,0,0,0,0-0.1c0,0,0,0,0-0.1l0,0L11.9,4.5C11.8,4.4,11.8,4.4,11.9,4.5
		C11.8,4.4,11.9,4.5,11.9,4.5z M11.7,4.7L11.7,4.7L11.7,4.7C11.7,4.7,11.7,4.7,11.7,4.7c0,0.1-0.1,0.1-0.1,0.1c0,0,0,0-0.1,0
		c0,0,0,0,0,0v0c0,0,0,0,0-0.1C11.6,4.6,11.6,4.6,11.7,4.7C11.6,4.6,11.7,4.6,11.7,4.7C11.7,4.6,11.7,4.7,11.7,4.7L11.7,4.7z
		 M11.9,4.6C11.9,4.6,11.9,4.5,11.9,4.6c0.1,0,0.1,0,0.2,0.1l0,0c0,0,0,0.1,0.1,0.2l0,0c0,0,0,0.1,0,0.1c0,0.1-0.1,0.3-0.2,0.5l0,0
		c-0.1,0.2-0.2,0.4-0.4,0.6c0,0,0,0,0,0c0,0,0-0.1,0-0.1c0,0,0,0-0.1,0c0,0,0,0-0.1,0c0,0,0,0,0,0.1v0l0,0c0.1-0.1,0.1-0.2,0.2-0.3
		l0.1-0.2l0.1-0.2l0.1-0.2c0-0.1,0-0.1,0-0.2c0-0.1,0-0.2,0-0.2l0,0c0,0,0-0.1,0-0.1l0,0c0-0.1-0.1-0.1-0.1-0.1
		c-0.3-0.3-0.7-0.3-1.1-0.2h0c-0.1,0-0.2,0.1-0.2,0.1v0h0c0,0,0,0,0.1,0c0,0,0,0,0-0.1v0l0,0c0,0,0,0,0,0c0,0,0,0,0.1,0
		c0,0,0.1,0,0.1,0c0,0,0,0,0-0.1l0.1,0l0,0c0,0,0,0,0.1,0c0,0,0.1,0,0.1,0c0,0,0,0,0-0.1l0,0c0,0,0,0,0,0.1c0,0,0,0,0.1,0
		c0,0,0.1,0,0.1,0c0,0,0,0,0,0l0.1,0c0,0,0,0,0,0.1c0,0,0.1,0,0.1,0c0,0,0.1,0,0.1,0c0,0,0,0,0,0l0,0l0,0c0,0,0,0.1,0,0.1
		c0,0,0.1,0,0.1,0c0,0,0.1,0,0.1,0l0,0l0,0c0,0,0,0,0,0c0,0,0,0,0,0.1c0,0,0,0.1,0,0.1C11.7,4.6,11.7,4.6,11.9,4.6
		C11.8,4.6,11.8,4.6,11.9,4.6z M11.7,4.7L11.7,4.7L11.7,4.7C11.7,4.8,11.7,4.8,11.7,4.7C11.7,4.8,11.7,4.8,11.7,4.7z M11.8,4.8
		c0,0.1,0,0.1,0,0.2c0,0.1,0,0.1,0,0.2l-0.1,0.2C11.5,5.2,11,5,10.2,4.8h0l0-0.1c0.3,0.1,0.6,0.2,1.1,0.1
		C11.5,4.9,11.6,4.9,11.8,4.8z M12.2,4.9L12.2,4.9C12.2,4.9,12.2,4.9,12.2,4.9c0.1,0,0.1,0,0.1,0c0,0,0,0,0-0.1l0,0c0,0,0,0,0,0.1
		c0,0,0,0.1,0,0.1c0,0,0.1,0,0.1,0c0,0,0.1,0,0.1,0c0,0,0,0,0,0l0.1,0c0,0,0,0,0,0c0,0,0,0,0,0.1c0,0,0,0.1,0,0.1c0,0,0,0,0.1,0
		c0,0,0.1,0,0.1,0l0,0l0,0l0,0c0,0,0,0,0,0.1c0,0,0,0.1,0,0.1c0,0,0.1,0,0.1,0c0,0,0.1,0,0.1,0l0,0.1c0,0,0,0,0,0c0,0,0,0,0,0.1
		C12.9,5.2,12.6,5,12.2,4.9z M12.1,4.7C12.1,4.7,12.1,4.7,12.1,4.7L12.1,4.7C12.1,4.7,12.1,4.7,12.1,4.7z M12.2,5.1
		c0-0.1,0-0.1,0-0.1C12.7,5.1,13,5.3,13,5.6l0,0.1c0,0.3-0.1,0.6-0.4,1c0,0,0,0,0,0c0.1-0.6-0.1-1-0.6-1.1
		C12.1,5.4,12.2,5.2,12.2,5.1z M12.4,4.8C12.4,4.8,12.4,4.8,12.4,4.8C12.5,4.8,12.5,4.8,12.4,4.8c0.1,0,0.1,0,0.1,0c0,0,0,0,0,0.1v0
		c0,0,0,0,0,0c0,0,0,0-0.1,0c0,0,0,0-0.1,0v0C12.4,4.9,12.4,4.9,12.4,4.8C12.4,4.8,12.4,4.8,12.4,4.8z M12.7,5C12.7,5,12.7,5,12.7,5
		L12.7,5C12.7,4.9,12.8,4.9,12.7,5C12.8,4.9,12.8,5,12.8,5c0,0,0,0,0,0.1v0c0,0,0,0,0,0C12.8,5.1,12.8,5.1,12.7,5
		C12.8,5.1,12.7,5.1,12.7,5C12.7,5.1,12.7,5,12.7,5z M6.9,5C6.9,5,6.9,5,6.9,5C6.9,5,6.9,5,6.9,5C7,5,7,4.9,6.9,5C7,4.9,7,4.9,7,5
		c0,0,0,0,0,0l0,0l0,0c0,0,0,0,0,0.1C7,5.1,7,5.1,6.9,5C7,5.1,7,5.1,6.9,5C6.9,5.1,6.9,5.1,6.9,5L6.9,5z M8.1,4.3
		C8.1,4.3,8.1,4.3,8.1,4.3C8.1,4.2,8.2,4.2,8.1,4.3c0.1-0.1,0.1-0.1,0.1-0.1l0,0c0,0,0,0,0,0c0,0,0,0,0,0.1C8.2,4.4,8.2,4.4,8.1,4.3
		C8.2,4.4,8.1,4.4,8.1,4.3L8.1,4.3L8.1,4.3C8.1,4.3,8.1,4.3,8.1,4.3z M7.5,4.7C7.5,4.7,7.5,4.7,7.5,4.7c0.1,0,0.1,0,0.1,0l0,0
		c0,0,0,0,0,0c0,0,0,0,0,0.1c0,0,0,0-0.1,0c0,0,0,0-0.1,0C7.5,4.8,7.5,4.8,7.5,4.7L7.5,4.7C7.5,4.7,7.5,4.7,7.5,4.7z M7.2,4.8
		C7.2,4.8,7.2,4.8,7.2,4.8c0.1,0,0.1,0,0.1,0h0l0,0c0,0,0,0,0,0.1c0,0,0,0,0,0.1l0,0c0,0,0,0-0.1,0c0,0,0,0-0.1,0
		C7.2,4.9,7.2,4.9,7.2,4.8L7.2,4.8C7.2,4.8,7.2,4.8,7.2,4.8z M7.1,4.9C7.1,4.9,7.1,4.9,7.1,4.9L7.1,4.9C7.2,4.9,7.2,4.9,7.1,4.9
		c0.1,0,0.2,0,0.2,0c0,0,0.1,0,0.1,0c0,0,0-0.1,0-0.1c0,0,0,0,0-0.1l0,0c0,0,0,0,0,0.1c0,0,0.1,0,0.1,0c0,0,0.1,0,0.1,0l0,0
		C7.2,5,6.9,5.2,6.8,5.5c0,0,0-0.1,0-0.1c0,0,0,0,0,0l0-0.1c0,0,0,0,0.1,0c0,0,0.1,0,0.1,0c0,0,0-0.1,0-0.1c0,0,0-0.1,0-0.1l0,0l0,0
		l0,0c0,0,0,0,0.1,0c0,0,0.1,0,0.1,0C7.1,5.1,7.1,5.1,7.1,4.9L7.1,4.9C7.1,5,7.1,5,7.1,4.9L7.1,4.9L7.1,4.9C7.1,4.9,7.1,4.9,7.1,4.9
		z M8.1,4.4C8.1,4.4,8.1,4.4,8.1,4.4C8.1,4.4,8.2,4.4,8.1,4.4c0.1,0,0.1,0,0.2,0h0c0,0,0-0.1,0-0.1l0,0l0,0c0,0,0,0,0,0h0
		c0,0,0,0,0.1,0c0,0,0.1,0,0.1,0c0,0,0,0,0-0.1l0.1,0c0,0,0,0,0,0c0,0,0.1,0,0.1,0c0,0,0.1,0,0.1,0c0,0,0,0,0-0.1l0.1,0
		c0,0,0,0,0,0.1c0,0,0.1,0,0.1,0c0,0,0.1,0,0.1,0l0,0l0.1,0c0,0,0,0,0,0.1c0,0,0,0,0.1,0c0,0,0.1,0,0.1,0l0,0l0,0v0c0,0,0,0.1,0,0.1
		h0c0,0,0,0,0.1,0h0v0L9.3,4.3C8.8,4.2,8.4,4.2,8.2,4.5c0,0-0.1,0.1-0.1,0.1l0,0l0,0.1l0,0C8,4.9,8,5,8,5.1c0,0,0,0.1,0,0.2
		c0,0.1,0,0.1,0.1,0.2l0,0l0,0.1h0l0,0l0.1,0.2c0,0.1,0.1,0.2,0.2,0.3l0,0v0c0,0,0-0.1,0-0.1c0,0,0,0-0.1,0c0,0,0,0-0.1,0
		c0,0,0,0,0,0.1c0,0,0,0,0,0C8,5.9,7.9,5.7,7.8,5.6l0,0C7.7,5.4,7.6,5.2,7.6,5c0,0,0-0.1,0-0.1l0,0c0-0.1,0-0.1,0.1-0.2l0,0
		c0-0.1,0.1-0.1,0.2-0.2c0,0,0,0,0,0.1c0,0,0.1,0,0.1,0c0,0,0.1,0,0.1,0c0,0,0-0.1,0-0.1C8.1,4.5,8.1,4.4,8.1,4.4
		C8.1,4.4,8.1,4.4,8.1,4.4L8.1,4.4z M8.1,4.4C8.1,4.5,8.1,4.5,8.1,4.4c0,0.1,0,0.1,0,0.1c0,0,0,0-0.1,0c0,0,0,0-0.1,0h0
		c0,0,0,0,0-0.1v0c0,0,0,0,0,0C8,4.4,8,4.4,8.1,4.4L8.1,4.4L8.1,4.4z M8.2,4.6L8.2,4.6L8.2,4.6c0.3-0.3,0.7-0.4,1.1-0.2
		c0.1,0,0.2,0.1,0.2,0.1l0,0c0,0,0,0,0,0c0,0-0.1,0-0.1,0c0,0,0,0,0,0.1l0,0l0,0c0,0,0,0,0,0c0,0,0,0-0.1,0c0,0-0.1,0-0.1,0
		c0,0,0,0,0,0.1l0,0c0,0,0,0,0,0c0,0,0,0-0.1,0c0,0-0.1,0-0.1,0c0,0,0,0,0,0.1l0,0c0,0,0,0,0-0.1c0,0,0,0-0.1,0c0,0-0.1,0-0.1,0v0
		c0,0,0,0,0,0.1h0v0c0,0,0-0.1,0-0.1c0,0,0,0-0.1,0c0,0-0.1,0-0.1,0c0,0,0,0,0,0.1l-0.1,0C8.3,4.7,8.3,4.6,8.2,4.6
		C8.2,4.6,8.2,4.6,8.2,4.6z M8.1,4.7L8.1,4.7L8.1,4.7C8.1,4.6,8.1,4.6,8.1,4.7C8.1,4.6,8.1,4.6,8.1,4.7c0.1-0.1,0.1-0.1,0.1,0
		c0,0,0,0,0,0.1l0,0v0c0,0,0,0,0,0C8.2,4.8,8.2,4.8,8.1,4.7C8.1,4.8,8.1,4.8,8.1,4.7C8.1,4.7,8.1,4.7,8.1,4.7L8.1,4.7z M7.6,4.7
		L7.6,4.7C7.7,4.7,7.7,4.7,7.6,4.7C7.7,4.7,7.7,4.7,7.6,4.7z M7.6,4.9c0,0,0,0.1,0,0.1c0,0.1,0.1,0.3,0.2,0.5C7.2,5.7,7,6.1,7.1,6.7
		l0,0v0C6.8,6.3,6.7,6,6.7,5.7l0-0.1C6.8,5.3,7.1,5.1,7.6,4.9z M8,4.7C8,4.8,8.1,4.8,8,4.7C8.1,4.8,8.1,4.8,8,4.7L8,4.7L8,4.7z M8,5
		C8,5,8,4.9,8,4.8c0.2,0,0.3,0,0.4,0c0.5,0,0.9,0,1.1-0.1l0,0.1h0C8.7,5,8.3,5.2,8.1,5.4l0,0c0-0.1-0.1-0.1-0.1-0.2C8,5.2,8,5.1,8,5
		z M8.9,4.1L8.9,4.1C8.9,4.1,8.9,4.1,8.9,4.1C9,4.1,9,4.1,8.9,4.1C9,4.1,9.1,4.1,9.1,4.1c0,0,0,0,0,0.1c0,0,0,0,0,0l0,0
		C9.1,4.2,9,4.2,8.9,4.1C9,4.2,9,4.2,8.9,4.1L8.9,4.1C8.9,4.2,8.9,4.2,8.9,4.1z M8.8,4.1L8.8,4.1C8.8,4.2,8.8,4.2,8.8,4.1
		C8.8,4.2,8.8,4.2,8.8,4.1C8.7,4.2,8.7,4.2,8.7,4.2c0,0,0,0,0,0v0c0,0,0,0,0-0.1C8.7,4.1,8.7,4,8.8,4.1C8.8,4,8.8,4.1,8.8,4.1
		C8.8,4.1,8.8,4.1,8.8,4.1z M9.3,4.1C9.3,4.1,9.3,4.1,9.3,4.1C9.3,4.2,9.3,4.2,9.3,4.1c0.1,0.1,0.1,0.1,0.1,0.1c0,0,0,0,0,0
		c0,0,0,0-0.1,0c0,0,0,0,0,0C9.2,4.2,9.2,4.2,9.3,4.1L9.3,4.1C9.2,4.2,9.2,4.2,9.3,4.1C9.2,4.1,9.3,4.1,9.3,4.1z M8.4,4.1
		C8.4,4.1,8.4,4.1,8.4,4.1c0.1,0,0.1,0,0.1,0c0,0,0,0,0,0.1v0c0,0,0,0,0,0.1c0,0,0,0-0.1,0c0,0,0,0-0.1,0C8.4,4.2,8.4,4.2,8.4,4.1
		L8.4,4.1C8.4,4.2,8.4,4.2,8.4,4.1C8.4,4.2,8.4,4.1,8.4,4.1z M8.5,4.6C8.5,4.6,8.5,4.6,8.5,4.6C8.5,4.7,8.6,4.7,8.5,4.6l0.1,0.1
		c0,0,0,0,0,0c0,0,0,0-0.1,0c0,0,0,0-0.1,0C8.4,4.8,8.4,4.7,8.5,4.6C8.4,4.7,8.4,4.7,8.5,4.6C8.4,4.7,8.4,4.7,8.5,4.6
		C8.4,4.6,8.4,4.6,8.5,4.6z M8.7,4.7C8.7,4.7,8.7,4.7,8.7,4.7c0.1,0,0.1,0,0.1,0c0,0,0,0,0,0.1v0c0,0,0,0,0,0.1c0,0,0,0-0.1,0
		c0,0,0,0-0.1,0C8.7,4.8,8.7,4.8,8.7,4.7C8.7,4.7,8.7,4.7,8.7,4.7z M8.4,4.7C8.4,4.8,8.4,4.8,8.4,4.7c0.1,0.1,0.1,0.1,0.1,0.1
		c0,0,0.1,0,0.1,0c0,0,0,0,0,0h0c0,0,0,0,0,0.1c0,0,0,0,0.1,0C8.6,4.8,8.5,4.8,8.4,4.7L8.2,4.8c0,0,0,0,0.1,0
		C8.3,4.8,8.3,4.7,8.4,4.7L8.4,4.7z M9.2,4.6C9.2,4.6,9.2,4.6,9.2,4.6C9.3,4.6,9.3,4.6,9.2,4.6l0.1,0c0,0,0,0,0,0
		C9.3,4.7,9.3,4.7,9.2,4.6c0.1,0.1,0.1,0.1,0,0.1C9.2,4.8,9.2,4.8,9.2,4.6C9.2,4.7,9.2,4.7,9.2,4.6C9.2,4.7,9.2,4.7,9.2,4.6z M9,4.6
		C9,4.6,9,4.6,9,4.6C9.1,4.7,9.1,4.7,9,4.6C9.1,4.7,9.1,4.7,9,4.6C9.1,4.7,9.1,4.8,9,4.8l0,0c0,0,0,0-0.1,0c0,0,0,0-0.1,0
		C8.9,4.8,8.9,4.7,9,4.6L9,4.6C8.9,4.7,8.9,4.7,9,4.6C9,4.6,9,4.6,9,4.6z M8.9,4.8C8.9,4.8,8.9,4.8,8.9,4.8l-0.2,0
		C8.8,4.8,8.8,4.8,8.9,4.8L8.9,4.8C8.8,4.8,8.8,4.8,8.9,4.8L8.9,4.8C8.9,4.8,8.9,4.8,8.9,4.8z M9.3,4.8L9.3,4.8
		C9.3,4.7,9.4,4.7,9.3,4.8L9.3,4.8l0.1-0.1L9.3,4.8c0.1-0.1,0.1-0.1,0.2-0.1l0,0C9.5,4.7,9.4,4.7,9.3,4.8z M9.1,4.7
		C9.2,4.7,9.2,4.7,9.1,4.7C9.2,4.8,9.2,4.8,9.1,4.7c0,0.1,0,0.1-0.1,0.1L9.1,4.7C9.1,4.8,9.1,4.7,9.1,4.7L9.1,4.7z M9.9,3.2L9.9,3.2
		l0.1,0.1c0,0,0,0,0,0c0,0,0,0,0,0H10v0.1H9.9c0,0,0,0,0,0c0,0,0,0,0,0l0,0.2l0,0l0,0V3.4c0,0,0,0,0,0c0,0,0,0,0,0H9.7V3.3h0.1l0,0
		c0,0,0,0,0,0V3.2z M9.9,3.6L9.9,3.6c0,0,0.1,0,0.1,0.1c0,0,0.1,0.1,0.1,0.2c0,0.1,0,0.1-0.1,0.2l-0.1,0c0,0,0,0,0,0c0,0,0,0-0.1,0
		c0,0-0.1,0-0.1,0c0,0,0,0,0,0l-0.1,0c0,0-0.1-0.1-0.1-0.2c0-0.1,0-0.1,0.1-0.2C9.8,3.6,9.8,3.6,9.9,3.6L9.9,3.6L9.9,3.6z M10,3.9
		L10,3.9L10,3.9C10,4,9.9,4,10,3.9C9.9,4,9.9,4,10,3.9C9.9,4,9.9,4,10,3.9C9.9,4,9.9,4,9.8,4l0,0l0,0v0l0,0l0,0c0,0,0,0,0,0h0
		C9.8,3.9,9.9,3.9,10,3.9C9.9,3.9,9.9,3.9,10,3.9C9.9,3.9,10,3.9,10,3.9z M10,4L10,4L10,4c0.1,0.1,0.2,0.1,0.2,0.2l0,0l0,0.1l0,0.3
		v0c0,0,0,0,0,0l0,0.2c0,0.2-0.1,0.5-0.2,0.8H9.8C9.8,5.5,9.7,5.3,9.7,5.1c0-0.1,0-0.2-0.1-0.3l0-0.2v0c0,0,0-0.1,0-0.1l0-0.2l0-0.1
		l0,0c0-0.1,0-0.1,0.1-0.2c0,0,0,0,0.1,0l0,0c0,0,0,0,0,0v0l0,0l0,0C9.7,4.1,9.6,4.2,9.6,4.3c0,0.1,0,0.1,0,0.2l0,0.1
		c0,0.1,0,0.2,0,0.3l0,0c0,0.1,0.1,0.3,0.1,0.4l0,0l0,0.1c0,0,0,0,0,0.1c0,0,0,0,0,0.1c0,0,0,0,0,0h0c0,0,0,0,0,0c0,0,0,0,0-0.1
		c0,0,0,0,0-0.1C10,5.3,10,5.1,10.1,4.9l0,0c0-0.1,0-0.2,0-0.3l0-0.2C10.1,4.2,10.1,4.1,10,4L10,4C10,4,10,4,10,4L10,4z M10,4
		C10,4,10,4,10,4L10,4c0.1,0,0.1,0.1,0.1,0.3l0,0l0,0.2l0,0c0,0.1,0,0.2,0,0.3L10,5.2l0,0c0,0,0,0-0.1,0c0,0-0.1,0-0.1,0
		c0,0,0,0,0,0c0-0.2-0.1-0.3-0.1-0.4l0,0c0-0.1,0-0.2,0-0.3l0,0c0,0,0,0,0,0v0c0-0.1,0-0.1,0-0.1v0c0-0.1,0-0.2,0.1-0.3l0,0l0,0
		C9.8,4.1,9.9,4.1,10,4C9.9,4.1,9.9,4.1,10,4L10,4z M10.4,4.2C10.5,4.1,10.5,4.1,10.4,4.2c0.1,0,0.1,0,0.1,0c0,0,0,0,0,0v0
		c0,0,0,0,0,0c0,0,0,0-0.1,0c0,0,0,0,0,0C10.4,4.3,10.4,4.2,10.4,4.2C10.4,4.2,10.4,4.2,10.4,4.2C10.4,4.2,10.4,4.2,10.4,4.2z
		 M10.3,4.2L10.3,4.2C10.3,4.2,10.3,4.2,10.3,4.2C10.3,4.3,10.3,4.3,10.3,4.2L10.3,4.2C10.3,4.3,10.3,4.3,10.3,4.2
		c0.1,0.1,0.1,0.1,0.1,0.1c0,0,0,0-0.1,0h0L10.3,4.2z M9.4,4.3C9.4,4.3,9.4,4.3,9.4,4.3C9.4,4.3,9.4,4.3,9.4,4.3
		C9.4,4.2,9.4,4.2,9.4,4.3C9.5,4.2,9.5,4.2,9.4,4.3L9.4,4.3L9.4,4.3L9.4,4.3C9.5,4.4,9.5,4.4,9.4,4.3C9.4,4.3,9.4,4.3,9.4,4.3
		L9.4,4.3C9.4,4.3,9.4,4.3,9.4,4.3z M9.4,4.6C9.4,4.5,9.5,4.5,9.4,4.6C9.5,4.5,9.5,4.5,9.4,4.6L9.4,4.6C9.5,4.7,9.5,4.7,9.4,4.6
		c0.1,0.1,0.1,0.1,0,0.1C9.5,4.7,9.4,4.7,9.4,4.6L9.4,4.6L9.4,4.6L9.4,4.6C9.4,4.6,9.4,4.6,9.4,4.6z M9.6,4.9L9.6,4.9
		c0,0.1,0,0.2,0.1,0.3c0,0.2,0.1,0.3,0.2,0.6H9.7c0,0,0,0,0,0c0,0,0,0,0,0c0,0,0,0,0,0.1c0,0,0,0,0,0v0c0,0,0,0.1,0.1,0.1
		c0,0,0,0,0,0c0,0,0,0,0,0c0,0,0,0,0,0c0,0,0,0,0,0l-0.1,0c-0.1,0-0.1,0-0.1,0v0.4c0,0.1,0,0.1,0.1,0c0.1,0,0.1,0,0.1,0c0,0,0,0,0,0
		c0,0.2-0.1,0.3-0.2,0.3c-0.1,0-0.2-0.1-0.3-0.2l0,0c0.1,0,0.1-0.1,0.1-0.1c0,0,0-0.1-0.1-0.1l0,0c0,0,0,0,0,0c0,0-0.1,0-0.1,0
		c0,0-0.1,0-0.1,0.1c0,0,0,0,0,0.1c0,0,0,0,0,0h0c0,0,0,0.1,0,0.1h0c0,0,0,0,0.1,0c0,0,0.1,0,0.1,0h0l0,0c0,0.1,0,0.2-0.1,0.2
		c0,0-0.1,0.1-0.1,0.1c-0.1,0-0.1,0-0.2-0.1l0,0c0,0,0,0,0,0c0,0,0,0,0,0c0,0,0,0,0.1,0c0,0,0.1,0,0.1,0c0,0,0,0,0-0.1L8.7,6.2
		c0,0,0,0-0.1,0c0,0,0,0-0.1,0L8.6,6.3h0c0,0,0,0,0,0c0-0.1,0-0.1,0-0.1c0,0,0-0.1,0-0.1c0,0,0,0-0.1,0l0,0C8.4,5.9,8.3,5.8,8.3,5.8
		L8.2,5.6c0,0,0,0,0,0L8.1,5.5h0l0,0C8.3,5.2,8.8,5,9.6,4.9z M10.3,4.5L10.3,4.5c0.1-0.1,0.1-0.1,0.2-0.1c0.5-0.2,0.8-0.1,1.1,0.2
		l0,0l0,0c0,0-0.1,0-0.1,0c0,0,0,0,0,0.1l-0.1,0c0,0,0-0.1,0-0.1c0,0,0,0-0.1,0c0,0-0.1,0-0.1,0c0,0,0,0,0,0.1v0h0c0,0,0,0,0-0.1v0
		c0,0,0,0-0.1,0c0,0-0.1,0-0.1,0c0,0,0,0,0,0.1l0,0c0,0,0,0,0-0.1c0,0,0,0-0.1,0c0,0-0.1,0-0.1,0c0,0,0,0,0,0l-0.1,0c0,0,0,0,0-0.1
		h0c0,0,0,0-0.1,0c0,0-0.1,0-0.1,0c0,0,0,0,0,0l0,0v0c0,0,0-0.1,0-0.1C10.4,4.5,10.3,4.5,10.3,4.5C10.3,4.5,10.3,4.5,10.3,4.5z
		 M10.3,4.6C10.4,4.6,10.4,4.6,10.3,4.6L10.3,4.6L10.3,4.6C10.4,4.6,10.4,4.6,10.3,4.6c0,0.1,0,0.1,0,0.1
		C10.3,4.7,10.3,4.7,10.3,4.6L10.3,4.6C10.3,4.5,10.3,4.5,10.3,4.6C10.3,4.5,10.3,4.5,10.3,4.6z M10.4,4.7L10.4,4.7L10.4,4.7
		c0,0.1,0,0.1,0.1,0.1v0c-0.1,0-0.1,0-0.2-0.1L10.4,4.7C10.3,4.7,10.4,4.7,10.4,4.7L10.4,4.7z M10.5,4.7L10.5,4.7
		C10.5,4.6,10.5,4.6,10.5,4.7c0.1,0,0.1,0,0.1,0c0,0,0,0,0,0c0,0,0,0,0,0C10.6,4.8,10.5,4.8,10.5,4.7C10.5,4.8,10.5,4.8,10.5,4.7
		L10.5,4.7C10.5,4.7,10.5,4.7,10.5,4.7L10.5,4.7z M10.2,4.9L10.2,4.9C11,5,11.5,5.2,11.6,5.4l0,0h0l0,0.1h0l0,0.1l-0.1,0.1
		c0,0.1-0.1,0.2-0.2,0.3l0,0c0,0,0,0-0.1,0c0,0,0,0,0,0.1c0,0,0,0.1,0,0.1c0,0,0,0,0,0c0,0,0,0,0,0h0h0c0,0,0,0-0.1-0.1
		c0,0,0,0-0.1,0c0,0,0,0-0.1,0l-0.1,0.3h0c0,0,0,0,0,0.1c0,0,0,0,0.1,0c0.1,0,0.1,0,0.1,0v0c0,0,0,0,0,0l0,0
		c-0.1,0.1-0.2,0.1-0.2,0.1c-0.1,0-0.1,0-0.1-0.1c0,0,0-0.1-0.1-0.2l0,0h0c0,0,0.1,0,0.1,0c0,0,0,0,0.1,0c0,0,0-0.1,0-0.1
		c0,0,0,0,0,0c0,0,0,0,0-0.1c0,0,0-0.1-0.1-0.1c0,0-0.1,0-0.1,0h0c0,0,0,0,0,0c0,0,0,0,0,0c0,0-0.1,0-0.1,0.1c0,0.1,0,0.1,0.1,0.1
		l0,0c-0.1,0.1-0.2,0.2-0.3,0.2c-0.1,0-0.1-0.1-0.2-0.3c0,0,0,0,0,0c0,0,0.1,0,0.1,0h0c0.1,0,0.1,0,0.1,0V6c0-0.1,0-0.1-0.1,0h0
		L10,6l0,0c0,0,0,0,0,0c0,0,0,0,0,0c0,0,0,0,0,0l0,0l0,0c0,0,0.1-0.1,0.1-0.1v0c0,0,0,0,0,0c0,0,0-0.1,0-0.1c0,0,0,0,0,0H10
		C10.1,5.4,10.2,5.1,10.2,4.9z M11.3,4.1C11.4,4.1,11.4,4.1,11.3,4.1C11.4,4.1,11.4,4.2,11.3,4.1c0.1,0.1,0.1,0.1,0.1,0.1v0l0,0
		c0,0,0,0-0.1,0c0,0,0,0-0.1,0C11.3,4.2,11.2,4.2,11.3,4.1L11.3,4.1C11.2,4.2,11.3,4.1,11.3,4.1C11.3,4.1,11.3,4.1,11.3,4.1z
		 M11.1,4.1L11.1,4.1C11.1,4.2,11.1,4.2,11.1,4.1C11.1,4.2,11,4.2,11.1,4.1C11,4.2,11,4.2,11,4.2c0,0,0,0,0,0c0,0,0,0,0,0
		c0,0,0,0,0-0.1C11,4.1,11,4,11.1,4.1C11,4,11.1,4.1,11.1,4.1C11.1,4.1,11.1,4.1,11.1,4.1C11.1,4.1,11.1,4.1,11.1,4.1z M11.5,4.3
		C11.5,4.3,11.5,4.3,11.5,4.3L11.5,4.3C11.5,4.2,11.6,4.2,11.5,4.3c0.1-0.1,0.1-0.1,0.1-0.1c0,0,0,0,0,0.1c0,0,0,0,0,0l0,0
		C11.6,4.4,11.6,4.4,11.5,4.3C11.6,4.4,11.5,4.4,11.5,4.3C11.5,4.3,11.5,4.3,11.5,4.3z M10.7,4.1C10.7,4.1,10.7,4.1,10.7,4.1
		C10.7,4.1,10.7,4.1,10.7,4.1c0.1-0.1,0.1-0.1,0.1-0.1c0,0,0,0,0,0.1v0c0,0,0,0,0,0v0C10.8,4.2,10.8,4.2,10.7,4.1
		C10.7,4.2,10.7,4.2,10.7,4.1L10.7,4.1C10.7,4.2,10.7,4.2,10.7,4.1z M11.1,4.7L11.1,4.7C11.1,4.7,11.1,4.7,11.1,4.7
		c0,0.1,0,0.1,0,0.1c0,0,0,0-0.1,0c0,0,0,0-0.1,0c0,0,0,0,0-0.1v0c0,0,0,0,0-0.1C11,4.7,11,4.7,11.1,4.7C11.1,4.7,11.1,4.7,11.1,4.7
		z M10.7,4.7C10.7,4.6,10.8,4.6,10.7,4.7c0.1,0,0.1,0,0.1,0c0,0,0,0,0,0.1v0c0,0,0,0,0,0c0,0,0,0-0.1,0c0,0,0,0-0.1,0v0
		C10.7,4.8,10.7,4.7,10.7,4.7L10.7,4.7C10.7,4.7,10.7,4.7,10.7,4.7z M10.7,4.8C10.7,4.8,10.7,4.8,10.7,4.8l-0.2,0c0,0,0,0,0,0
		C10.6,4.8,10.6,4.7,10.7,4.8L10.7,4.8C10.7,4.7,10.7,4.8,10.7,4.8z M11,4.8C11,4.8,11,4.8,11,4.8l-0.2,0C10.8,4.8,10.8,4.8,11,4.8
		C10.9,4.8,10.9,4.8,11,4.8L11,4.8C10.9,4.8,10.9,4.8,11,4.8z M11.3,4.6C11.3,4.6,11.3,4.6,11.3,4.6C11.4,4.7,11.4,4.7,11.3,4.6
		L11.3,4.6c0.1,0.1,0.1,0.1,0.1,0.1c0,0,0,0-0.1,0c0,0,0,0-0.1,0c0,0,0,0,0,0v0C11.2,4.7,11.2,4.7,11.3,4.6
		C11.2,4.7,11.2,4.7,11.3,4.6C11.3,4.6,11.3,4.6,11.3,4.6z M11.3,4.8C11.3,4.8,11.4,4.8,11.3,4.8c0.1-0.1,0.1-0.1,0.1-0.1l0.1,0
		c0,0,0,0,0,0.1c0,0,0,0,0.1,0L11.3,4.8c-0.1,0-0.2,0-0.3,0c0,0,0,0,0.1,0c0,0,0,0,0-0.1h0C11.2,4.8,11.2,4.8,11.3,4.8
		C11.2,4.8,11.3,4.8,11.3,4.8z M10.6,6.3C10.6,6.3,10.6,6.3,10.6,6.3C10.5,6.2,10.5,6.2,10.6,6.3c0-0.1,0-0.1,0.1-0.1c0,0,0,0,0,0.1
		C10.7,6.3,10.7,6.3,10.6,6.3C10.6,6.3,10.6,6.3,10.6,6.3L10.6,6.3C10.6,6.3,10.6,6.3,10.6,6.3C10.6,6.3,10.6,6.3,10.6,6.3
		c0.1,0,0.1,0,0.1,0.1c0,0,0,0,0,0.1h0c0,0,0,0,0,0v0c0,0,0,0-0.1,0c0,0,0,0,0,0c0,0,0,0,0,0c0,0,0,0,0,0c0,0,0,0,0,0c0,0,0,0,0,0
		c0,0.1,0,0.2,0.1,0.3c0,0.1,0.1,0.1,0.2,0.1c0.1,0,0.1,0,0.2-0.1l0.1,0h0c0,0,0,0,0,0c0,0,0,0,0,0h0c0,0,0,0-0.1,0l0,0c0,0,0,0,0,0
		l0.1-0.3c0,0,0.1,0.1,0.1,0.1c0,0,0,0,0,0c0,0,0,0,0-0.1l0-0.1l0.3,0.1l-0.1,0c0,0,0,0-0.1,0l0,0c0,0,0,0,0,0v0c0,0,0,0,0.1,0
		l-0.1,0.3l0,0c0,0,0,0,0,0h0c0,0,0,0,0,0c0,0,0,0,0,0l0,0.1v0c0,0.1,0.1,0.2,0.2,0.3c0.1,0,0.2,0,0.3,0h0l0.1,0l0,0v0c0,0,0,0,0,0
		c0,0,0,0,0,0c0,0,0,0,0,0c0,0,0,0,0,0c0,0,0,0,0-0.1c0,0,0,0,0.1,0c0,0,0,0,0,0.1c0,0,0,0,0,0c0,0,0,0,0,0l0,0c0,0,0,0,0,0
		c0,0,0-0.1,0-0.1c0,0,0,0,0.1,0c0,0,0,0,0,0.1c0,0,0,0-0.1,0c0,0,0,0,0,0c0,0,0,0,0,0l0,0c0,0,0,0,0,0c0,0,0,0,0.1,0c0,0,0,0,0,0.1
		c0,0,0,0,0,0h0c0,0,0,0-0.1,0c0,0,0,0,0,0l0,0c0,0,0,0,0,0c0,0,0,0,0,0c0,0,0,0,0,0c0,0,0,0,0,0c0,0.2,0,0.3,0,0.4
		c0.1,0.1,0.2,0.1,0.3,0l0,0l0,0c0,0,0,0,0-0.1c0,0,0,0,0,0l0,0c0,0,0,0,0,0c0.1-0.1,0.1-0.2,0.2-0.3c0,0,0,0.1,0,0.1c0,0,0,0,0,0
		c0,0,0,0,0,0h0c0,0,0,0,0,0c0,0,0,0,0,0l0,0l0-0.1c0,0,0-0.1,0-0.1l0,0c0,0,0,0,0,0l0,0l0,0h0l0,0c0,0,0.1,0,0.1,0l0,0v0l0,0
		c0,0,0,0.1,0,0.1c0,0-0.1,0-0.1,0c0,0,0,0,0-0.1v0l0,0c0,0,0,0,0,0c0,0,0,0,0,0c0,0,0,0,0,0l0,0c0,0,0,0.1-0.1,0.1l0,0c0,0,0,0,0,0
		l0,0.1c0,0,0,0-0.1,0c0,0,0,0-0.1,0l0,0c0,0,0,0,0,0c0,0,0,0,0,0c0,0,0,0,0,0c0,0,0,0,0,0c0,0,0,0,0,0c0,0,0,0,0,0l0,0v0
		c0,0,0,0,0,0l0,0c0,0,0,0,0,0c-0.1,0.1-0.3,0.1-0.3,0.1c0,0,0,0-0.1,0c0,0,0,0,0,0l-0.1-0.1c0-0.1,0-0.1-0.1-0.2c0,0,0,0,0,0
		c0,0,0,0,0,0c0,0,0,0,0,0c-0.1,0-0.1,0-0.2,0c-0.1,0-0.2-0.1-0.3-0.1c0,0,0-0.1-0.1-0.1l0-0.1c0,0,0,0,0,0c0,0,0,0,0,0c0,0,0,0,0,0
		c-0.1,0.1-0.2,0.1-0.2,0.1l-0.2,0l0,0c0,0-0.1-0.1-0.1-0.1c0,0,0,0,0,0c0,0,0,0,0,0l0,0c-0.1,0.1-0.3,0.1-0.4,0.1
		c-0.1,0-0.2-0.1-0.2-0.2c0,0,0,0,0,0c0,0,0,0,0,0c0,0,0,0,0,0c0,0.1-0.1,0.2-0.2,0.2c-0.1,0-0.2,0-0.4-0.1c0,0,0,0,0,0c0,0,0,0,0,0
		c0,0,0,0,0,0c0,0.1-0.1,0.1-0.1,0.1l0,0l-0.2,0c-0.1,0-0.1-0.1-0.2-0.1c0,0,0,0,0,0c0,0,0,0,0,0c0,0,0,0,0,0c0,0,0,0.1,0,0.1
		c0,0,0,0.1-0.1,0.1C8.5,7,8.4,7.1,8.3,7.1c-0.1,0-0.1,0-0.2,0c0,0,0,0,0,0c0,0,0,0,0,0c0,0,0,0,0,0c0,0.1,0,0.2-0.1,0.2
		C8,7.4,8,7.4,8,7.4c0,0,0,0,0,0c0,0,0,0-0.1,0c-0.1,0-0.2,0-0.3-0.1l0,0l0,0v0c0,0,0,0,0,0v0c0,0,0,0,0,0c0,0,0,0,0,0c0,0,0,0,0,0
		v0c0,0,0,0,0,0c0,0,0,0,0,0c0,0,0,0,0,0c0,0,0,0-0.1,0c0,0,0,0-0.1,0l0-0.1v0l0,0c0,0,0-0.1-0.1-0.1l0,0c0,0,0,0,0,0c0,0,0,0,0,0
		c0,0,0,0,0,0c0,0,0,0,0,0l0,0c0,0,0,0,0,0c0,0,0,0,0,0c0,0,0,0.1,0,0.1h0c0,0-0.1,0-0.1,0c0,0,0,0,0,0c0,0,0-0.1,0-0.1c0,0,0,0,0,0
		l0,0v0l0,0h0c0,0,0,0,0.1,0l0,0h0l0,0c0,0,0,0,0,0c0,0,0,0,0,0h0l0,0c0,0,0,0,0,0.1l0,0.1l0,0c0,0,0,0,0,0c0,0,0,0,0,0c0,0,0,0,0,0
		l0,0c0,0,0,0,0,0c0-0.1,0-0.1,0-0.1c0,0.1,0.1,0.2,0.1,0.2l0,0l0,0c0,0,0,0,0,0c0,0,0,0,0,0c0,0,0,0,0,0c0,0,0,0,0,0.1l0,0
		c0.2,0.1,0.3,0.1,0.3,0C8,7.3,8,7.1,8,6.9c0,0,0,0,0,0c0,0,0,0,0,0l0,0c0,0,0,0,0,0l0,0c0,0,0,0,0,0c0,0,0,0,0,0c0,0,0,0,0,0
		c0,0,0,0,0-0.1c0,0,0,0,0.1,0c0,0,0,0,0,0c0,0,0,0,0,0c0,0,0,0,0,0c0,0,0,0,0,0c0,0,0,0-0.1,0c0,0,0,0,0-0.1c0,0,0,0,0.1,0
		c0,0,0,0,0,0.1c0,0,0,0,0,0c0,0,0,0,0,0l0,0c0,0,0,0,0,0c0,0,0,0,0.1-0.1c0,0,0,0,0.1,0c0,0,0,0.1,0,0.1c0,0,0,0-0.1,0c0,0,0,0,0,0
		c0,0,0,0,0,0c0,0,0,0,0,0c0,0,0,0,0,0c0,0,0,0,0,0l0.1,0h0c0.1,0,0.2,0,0.3,0c0.1,0,0.1-0.1,0.2-0.3l0-0.1c0,0,0,0,0,0c0,0,0,0,0,0
		c0,0,0,0,0,0l0,0L8.3,6.4c0.1,0,0.1,0,0.1,0h0c0,0,0,0,0,0c0,0,0,0-0.1,0l-0.1,0l0.3-0.1c0,0,0,0,0,0.1h0c0,0,0,0.1,0,0.1
		c0,0,0,0,0,0c0,0,0,0,0.1-0.1l0.1,0.3c-0.1,0-0.1,0-0.1,0c0,0,0,0,0,0c0,0,0,0,0,0l0.1,0C8.8,6.7,8.9,6.8,9,6.8
		c0.1,0,0.1,0,0.2-0.1c0-0.1,0.1-0.1,0.1-0.3c0,0,0,0,0,0c0,0,0,0,0,0h0l0,0c0,0,0,0,0,0c0,0,0,0-0.1,0v0c0,0,0,0,0,0c0,0,0,0,0-0.1
		c0,0,0,0,0.1,0c0,0,0,0,0,0c0,0,0,0,0,0c0,0,0,0,0,0c0,0,0,0,0,0c0,0,0,0,0-0.1c0,0,0,0,0-0.1c0,0,0.1,0,0.1,0c0,0,0,0,0,0.1
		c0,0,0,0,0,0c0,0,0,0,0,0h0c0,0,0,0,0,0c0,0,0,0,0.1,0c0,0,0,0,0.1,0c0,0,0,0.1,0,0.1l-0.1,0c0,0,0,0,0,0c0,0,0,0,0,0c0,0,0,0,0,0
		c0,0,0,0,0,0c0,0,0,0,0,0c0.2,0.2,0.3,0.3,0.4,0.3c0.1,0,0.2-0.1,0.2-0.3v0c0,0,0,0,0,0c0,0-0.1,0-0.1,0V6l0,0h0c0,0,0.1,0,0.1,0
		c0,0,0,0,0,0c0,0,0,0,0,0c0,0,0,0,0-0.1c0,0-0.1-0.1-0.1-0.1h0.3c0,0,0,0-0.1,0.1c0,0,0,0,0,0.1c0,0,0,0,0,0c0,0,0,0,0,0
		c0,0,0,0,0.1,0l0,0v0.3c-0.1,0-0.1,0-0.1,0c0,0,0,0,0,0c0,0,0,0,0,0c0,0.2,0.1,0.3,0.2,0.3c0.1,0,0.2-0.1,0.4-0.3c0,0,0,0,0,0
		C10.5,6.4,10.5,6.4,10.6,6.3C10.5,6.4,10.5,6.4,10.6,6.3C10.5,6.4,10.5,6.4,10.6,6.3C10.5,6.4,10.5,6.4,10.6,6.3l-0.1,0.1
		c0,0-0.1,0,0-0.1C10.4,6.3,10.4,6.3,10.6,6.3C10.5,6.3,10.5,6.3,10.6,6.3C10.5,6.3,10.5,6.3,10.6,6.3L10.6,6.3L10.6,6.3z M11.1,6.2
		C11.1,6.2,11.1,6.2,11.1,6.2L11.1,6.2L11,6.5c0,0,0,0,0,0c0,0,0,0,0,0v0L11.1,6.2L11.1,6.2z M11.5,6C11.5,6,11.5,6,11.5,6
		C11.5,6,11.5,6.1,11.5,6c0.1,0.1,0.1,0.1,0,0.1c0,0,0,0,0,0L11.5,6C11.4,6.1,11.4,6.1,11.5,6C11.4,6.1,11.4,6,11.5,6
		C11.4,6,11.5,6,11.5,6z M11.2,6.1C11.2,6.1,11.2,6,11.2,6.1C11.2,6,11.2,6,11.2,6.1l0.3,0.1c0,0,0,0,0,0v0c0,0,0,0,0,0L11.2,6.1z
		 M11.4,6.3L11.4,6.3C11.4,6.3,11.4,6.3,11.4,6.3c0.1,0,0.1-0.1,0.1-0.1c0,0,0,0,0,0c0,0,0,0,0,0C11.8,6,11.9,5.8,12,5.6
		c0.5,0.1,0.7,0.5,0.6,1.1c0,0,0,0,0,0l0,0.1l-0.1,0.1l0,0h0c0,0,0,0,0,0c0,0,0,0-0.1,0c0,0,0,0,0,0c0,0,0,0.1-0.1,0.1
		c0,0,0-0.1,0-0.1l0,0c0,0,0,0-0.1,0L12,7.2c0,0,0,0,0,0.1c0,0,0,0,0,0c0,0,0,0,0,0l0,0c0,0,0,0,0,0l0,0c-0.1,0.1-0.2,0-0.3,0
		c0-0.1-0.1-0.2,0-0.3l0,0h0c0,0,0,0,0.1,0c0,0,0,0,0.1,0c0,0,0-0.1,0-0.1c0,0,0,0,0,0c0,0,0,0,0,0v0c0,0,0-0.1,0-0.1
		c0,0-0.1,0-0.1,0c0,0,0,0,0,0c0,0,0,0,0,0c0,0-0.1,0-0.1,0c0,0.1,0,0.1,0,0.1l0,0l-0.1,0c-0.1,0-0.2,0-0.3,0
		c-0.1,0-0.1-0.1-0.2-0.2l0-0.1c0,0,0,0,0,0c0,0,0,0,0,0c0,0,0,0,0,0c0,0,0,0,0,0l0.1,0.1c0,0,0,0,0.1,0.1c0,0,0,0,0.1,0l0.1-0.3
		l0,0c0,0,0,0,0-0.1c0,0,0,0-0.1,0L11.4,6.3L11.4,6.3C11.4,6.3,11.4,6.3,11.4,6.3z M11.5,6.4C11.5,6.4,11.5,6.4,11.5,6.4l-0.1,0.3
		c0,0,0,0,0,0c0,0,0,0,0,0L11.5,6.4C11.5,6.4,11.5,6.4,11.5,6.4z M9.9,5.3L9.9,5.3C9.9,5.3,9.9,5.3,9.9,5.3C9.9,5.3,9.9,5.3,9.9,5.3
		c-0.1,0.1-0.1,0.1-0.1,0l0,0l0,0v0c0,0,0,0,0,0C9.9,5.2,9.9,5.2,9.9,5.3C9.9,5.2,9.9,5.2,9.9,5.3C9.9,5.3,9.9,5.3,9.9,5.3z
		 M10.1,5.7C10.1,5.7,10.1,5.7,10.1,5.7C10.1,5.8,10.1,5.8,10.1,5.7l-0.4,0c0,0,0,0,0,0c0,0,0,0,0,0H10.1z M9.8,5.4
		C9.9,5.4,9.9,5.4,9.8,5.4C9.9,5.4,9.9,5.4,9.8,5.4L9.8,5.4C9.9,5.4,9.9,5.4,9.8,5.4C9.9,5.4,9.9,5.4,9.8,5.4L9.8,5.4z M9.9,5.5
		L9.9,5.5C9.9,5.5,9.9,5.5,9.9,5.5C9.9,5.5,9.9,5.5,9.9,5.5C9.9,5.5,9.9,5.6,9.9,5.5L9.9,5.5C9.9,5.6,9.9,5.5,9.9,5.5
		C9.8,5.5,9.8,5.5,9.9,5.5C9.8,5.5,9.8,5.5,9.9,5.5L9.9,5.5L9.9,5.5C9.9,5.5,9.9,5.5,9.9,5.5C9.9,5.5,9.9,5.5,9.9,5.5L9.9,5.5z
		 M9.6,6v0.4c0,0-0.1,0-0.1,0L9.6,6C9.6,6,9.6,6,9.6,6z M10.1,6C10.2,6,10.2,6,10.1,6l0.1,0.4c0,0,0,0-0.1,0V6z M10.3,6.8
		c0.1,0,0.1,0,0.2-0.1c0,0,0.1,0.1,0.1,0.1L10.3,6.8z M9.9,6.7L9.9,6.7l-0.1,0c0,0,0.1-0.1,0.1-0.1c0,0.1,0.1,0.1,0.1,0.1L9.9,6.7z
		 M9.9,6.9C9.9,6.9,9.9,6.9,9.9,6.9c-0.2,0-0.4,0-0.5,0.1C9.1,7,8.8,7.1,8.6,7.2C8.5,7.2,8.3,7.3,8.2,7.5l0,0h0
		C8.1,7.6,8.1,7.6,8,7.7C8,7.7,7.9,7.6,7.9,7.6L8,7.5c0,0,0-0.1,0.1-0.1c0.1-0.1,0.2-0.2,0.3-0.2l0.1-0.1c0,0,0.1,0,0.1-0.1l0.1,0
		l0.3-0.1c0.1,0,0.2,0,0.2-0.1l0.1,0c0.2,0,0.4-0.1,0.6-0.1c0.2,0,0.4,0,0.6,0.1l0.4,0.1C10.9,6.9,11,6.9,11,7L11.2,7
		c0,0,0.1,0,0.1,0.1l0.1,0.1c0.1,0.1,0.2,0.1,0.3,0.2l0.1,0.1l0,0.1c0,0,0,0.1-0.1,0.1c0-0.1-0.1-0.1-0.1-0.2h0l0,0
		c-0.1-0.1-0.3-0.2-0.4-0.3c-0.2-0.1-0.5-0.2-0.7-0.2C10.2,6.9,10.1,6.9,9.9,6.9z M9.4,7c0.2,0,0.3,0,0.5-0.1c0.2,0,0.3,0,0.5,0.1
		c0.3,0,0.5,0.1,0.7,0.2c0.2,0.1,0.3,0.2,0.4,0.3l0,0c0.1,0.1,0.1,0.1,0.1,0.2l0,0c0,0-0.1,0-0.1,0c0,0-0.1,0-0.1,0c0,0,0,0.1,0,0.1
		c0,0,0,0.1,0,0.1c0,0,0.1,0,0.1,0c0,0,0,0,0,0l-0.1,0.2c-0.2-0.3-0.8-0.5-1.5-0.6l-0.1,0c0,0,0,0,0,0l-0.1,0C9,7.7,8.5,7.9,8.2,8.2
		L8.2,8c0,0,0,0,0,0c0,0,0.1,0,0.1,0c0,0,0-0.1,0-0.1c0,0,0-0.1,0-0.1c0,0-0.1,0-0.1,0c0,0-0.1,0-0.1,0l0,0c0-0.1,0.1-0.1,0.1-0.2
		l0,0c0.1-0.1,0.2-0.2,0.4-0.3C8.9,7.1,9.1,7,9.4,7z M9.9,7.9L9.9,7.9c-0.7,0-1.3,0.2-1.6,0.5c0,0-0.1-0.1-0.1-0.1
		C8.5,8,9,7.8,9.8,7.7H10c0.8,0,1.3,0.2,1.5,0.6c0,0,0,0.1-0.1,0.1C11.1,8.1,10.6,7.9,9.9,7.9z M11.5,7.2c0,0,0.1,0,0.1,0
		c0,0.1,0,0.1,0,0.1C11.6,7.2,11.6,7.2,11.5,7.2z M11.1,6.9c-0.1,0-0.1,0-0.2-0.1c0,0,0.1,0,0.2-0.1L11.1,6.9L11.1,6.9L11.1,6.9z
		 M11.5,7.9C11.5,7.8,11.5,7.8,11.5,7.9c0.1-0.1,0.1-0.1,0.1-0.1c0,0,0.1,0,0.1,0l0,0c0,0,0,0,0,0.1c0,0,0,0.1,0,0.1c0,0,0,0-0.1,0
		l0,0C11.6,8,11.5,8,11.5,7.9C11.5,7.9,11.5,7.9,11.5,7.9z M8.5,6C8.5,6.1,8.5,6.1,8.5,6L8.3,6.2l0,0v0c0,0,0,0,0,0L8.5,6
		C8.5,6,8.5,6,8.5,6z M8.2,6L8.2,6C8.3,6,8.3,6,8.2,6C8.3,6,8.3,6,8.2,6c0.1,0,0.1,0,0.1,0l0,0l-0.1,0C8.3,6.1,8.3,6.1,8.2,6
		C8.2,6.1,8.2,6.1,8.2,6C8.2,6.1,8.2,6,8.2,6z M8.2,6.2C8.2,6.2,8.2,6.2,8.2,6.2C8.2,6.2,8.2,6.2,8.2,6.2c0,0.1,0.1,0.1,0.1,0.1l0,0
		c0,0,0,0,0,0c0,0,0,0,0,0c0,0,0,0,0,0v0l-0.1,0c0,0-0.1,0-0.1,0c0,0,0,0,0,0.1v0l0.1,0.3h0c0,0,0,0,0.1,0c0,0,0,0,0.1-0.1l0.1-0.1
		c0,0,0,0,0,0c0,0,0,0,0,0l0,0l0,0.1c0,0.1-0.1,0.2-0.2,0.2C8.3,7,8.3,7,8.1,7l-0.1,0l0,0c0.1,0,0.1-0.1,0-0.1c0,0-0.1-0.1-0.1,0
		c0,0,0,0,0,0c0,0,0,0,0,0c0,0-0.1,0-0.1,0c0,0-0.1,0.1,0,0.1v0c0,0,0,0,0,0c0,0,0,0,0,0c0,0,0,0.1,0,0.1c0,0,0,0,0.1,0
		c0,0,0.1,0,0.1,0l0,0c0,0.1,0,0.2,0,0.3c0,0.1-0.1,0.1-0.3,0c0,0,0,0,0,0c0,0,0,0,0,0l0,0c0,0,0,0,0,0c0,0,0,0,0,0c0,0,0,0,0-0.1
		L7.6,6.9c0,0,0,0-0.1,0l0,0c0,0,0,0,0,0.1c0,0,0-0.1-0.1-0.1c0,0,0,0,0,0c0,0,0,0-0.1,0c0,0,0,0,0,0h0c0,0,0,0,0,0L7.2,6.7l0-0.1
		c0,0,0,0,0,0C7.1,6.1,7.3,5.7,7.8,5.6C7.9,5.7,8,5.9,8.2,6.2z M8.2,6.4C8.2,6.4,8.3,6.4,8.2,6.4l0.2,0.3c0,0,0,0,0,0c0,0,0,0,0,0
		L8.2,6.4C8.2,6.4,8.2,6.4,8.2,6.4z M8.7,6.2C8.7,6.2,8.7,6.2,8.7,6.2L8.7,6.2l0.2,0.3v0c0,0,0,0,0,0c0,0,0,0,0,0L8.7,6.2L8.7,6.2z
		 M7.7,7.2C7.7,7.2,7.7,7.2,7.7,7.2L7.7,7.2c-0.1,0-0.1-0.1-0.2-0.2l0,0c0,0,0,0,0,0L7.7,7.2z M7,6.7C7,6.7,7,6.7,7,6.7
		C7,6.8,7,6.8,7,6.7C7,6.8,6.9,6.7,7,6.7C6.9,6.7,6.9,6.7,7,6.7C6.9,6.7,6.9,6.7,7,6.7C6.9,6.7,6.9,6.7,7,6.7C6.9,6.6,7,6.6,7,6.7
		C7,6.6,7,6.6,7,6.7C7,6.7,7,6.7,7,6.7C7,6.7,7,6.7,7,6.7z M7.1,6.8C7.1,6.8,7.1,6.8,7.1,6.8C7.1,6.8,7.1,6.8,7.1,6.8
		C7.1,6.8,7.1,6.8,7.1,6.8C7.1,6.8,7.1,6.8,7.1,6.8C7.1,6.8,7.1,6.9,7.1,6.8C7.1,6.9,7.1,6.9,7.1,6.8C7.1,6.9,7.1,6.9,7.1,6.8
		C7.1,6.9,7.1,6.9,7.1,6.8C7.1,6.9,7.1,6.8,7.1,6.8L7.1,6.8z M7,6.8C7.1,6.7,7.1,6.7,7,6.8c0-0.1,0-0.1,0-0.1c0,0,0,0-0.1,0
		c0,0,0,0,0,0l0,0l0,0c0,0,0,0,0-0.1c0,0,0-0.1,0-0.1c0,0,0,0-0.1,0c0,0,0,0,0,0l0,0c0,0,0,0,0,0c0,0,0-0.1,0-0.1l0,0
		C6.9,6.4,7,6.6,7.2,6.8l0.1,0.1c0,0,0,0,0,0c0,0-0.1,0-0.1,0l0,0c0,0,0,0,0,0C7.1,6.8,7.1,6.8,7,6.8C7.1,6.8,7.1,6.8,7,6.8L7,6.8z
		 M7.5,7.3L7.5,7.3C7.5,7.3,7.5,7.3,7.5,7.3C7.5,7.3,7.5,7.3,7.5,7.3C7.5,7.3,7.5,7.3,7.5,7.3L7.5,7.3C7.5,7.4,7.4,7.4,7.5,7.3
		L7.5,7.3C7.4,7.3,7.4,7.3,7.5,7.3C7.4,7.3,7.5,7.3,7.5,7.3z M8,7.9C8,7.8,8.1,7.8,8,7.9C8.1,7.8,8.1,7.8,8,7.9
		c0.1-0.1,0.1-0.1,0.1-0.1c0,0,0.1,0,0.1,0c0,0,0,0,0,0.1c0,0,0,0.1,0,0.1c0,0,0,0-0.1,0l0,0h0C8.1,8,8.1,8,8,7.9
		C8.1,7.9,8,7.9,8,7.9z M8.1,7.3c0-0.1,0-0.1,0-0.1c0.1,0,0.1,0,0.1,0C8.2,7.2,8.2,7.2,8.1,7.3z M9.2,6.8c0,0,0.1-0.1,0.1-0.1
		c0.1,0,0.1,0.1,0.2,0.1L9.2,6.8z M8.7,7L8.7,7c0-0.1,0.1-0.1,0.1-0.2c0.1,0,0.1,0.1,0.2,0.1L8.7,7z M6.9,5.1
		C6.9,5.2,6.9,5.2,6.9,5.1c0,0.1,0,0.1,0,0.1c0,0,0,0-0.1,0c0,0,0,0-0.1,0l0,0c0,0,0,0,0,0c0,0,0,0,0-0.1C6.8,5.1,6.8,5.1,6.9,5.1
		L6.9,5.1L6.9,5.1z M6.6,5.4L6.6,5.4C6.7,5.4,6.7,5.4,6.6,5.4C6.7,5.4,6.7,5.5,6.6,5.4c0.1,0.1,0.1,0.1,0.1,0.1v0c0,0,0,0-0.1,0
		c0,0,0,0,0,0l0,0C6.6,5.5,6.6,5.5,6.6,5.4C6.6,5.5,6.6,5.4,6.6,5.4C6.6,5.4,6.6,5.4,6.6,5.4z M6.6,5.6L6.6,5.6c0.1,0,0.1,0,0.1,0
		L6.6,5.6l0.1,0.1C6.7,5.7,6.7,5.7,6.6,5.6C6.7,5.7,6.6,5.7,6.6,5.6L6.6,5.6L6.6,5.6z M6.5,5.8C6.5,5.7,6.5,5.7,6.5,5.8
		C6.5,5.7,6.6,5.7,6.5,5.8L6.5,5.8c0.1-0.1,0.1-0.1,0.1-0.1c0,0,0,0,0,0.1c0,0,0,0,0,0.1C6.6,5.8,6.6,5.9,6.5,5.8L6.5,5.8
		C6.6,5.9,6.5,5.9,6.5,5.8C6.5,5.8,6.5,5.8,6.5,5.8z M6.7,5.8c0,0.1,0,0.1,0,0.2c0,0,0,0,0,0c0,0-0.1,0-0.1,0c0,0,0,0,0,0L6.7,5.8
		C6.6,5.9,6.6,5.9,6.7,5.8C6.7,5.8,6.7,5.8,6.7,5.8z M6.6,6L6.6,6C6.6,6,6.6,6,6.6,6L6.6,6c0.1,0,0.1,0,0.1,0c0,0,0,0,0,0.1
		c0,0,0,0,0,0.1c0,0,0,0,0,0h0l0,0c0,0,0,0-0.1,0C6.5,6.1,6.5,6.1,6.6,6C6.5,6,6.5,6,6.6,6z M6.7,6.2L6.7,6.2
		C6.7,6.2,6.7,6.2,6.7,6.2L6.7,6.2c0-0.1,0.1-0.1,0.1-0.1c0,0.1,0,0.1,0.1,0.2l0,0C6.8,6.2,6.8,6.2,6.7,6.2L6.7,6.2z M6.7,6.2
		L6.7,6.2L6.7,6.2C6.7,6.2,6.8,6.2,6.7,6.2c0.1,0,0.1,0.1,0.1,0.1c0,0,0,0,0,0.1l0,0c0,0,0,0,0,0c0,0,0,0-0.1,0
		C6.6,6.4,6.6,6.3,6.7,6.2C6.6,6.3,6.6,6.3,6.7,6.2C6.7,6.3,6.7,6.2,6.7,6.2z M6.8,6.5C6.8,6.5,6.8,6.5,6.8,6.5
		C6.8,6.5,6.8,6.5,6.8,6.5C6.9,6.5,6.9,6.5,6.8,6.5c0.1,0,0.1,0,0.1,0C6.9,6.6,6.9,6.6,6.8,6.5c0.1,0.1,0.1,0.1,0.1,0.1v0
		c0,0,0,0,0,0C6.8,6.6,6.8,6.6,6.8,6.5C6.8,6.6,6.8,6.6,6.8,6.5C6.8,6.5,6.8,6.5,6.8,6.5z M13,5.1C13.1,5.2,13.1,5.2,13,5.1
		c0,0.1,0,0.1,0,0.1l0,0c0,0,0,0-0.1,0c0,0,0,0-0.1,0c0,0,0,0,0-0.1c0,0,0,0,0-0.1H13L13,5.1L13,5.1C13,5.1,13,5.1,13,5.1z
		 M13.1,5.4L13.1,5.4C13.2,5.4,13.2,5.4,13.1,5.4C13.2,5.4,13.2,5.5,13.1,5.4c0.1,0.1,0.1,0.1,0.1,0.1l0,0c0,0,0,0,0,0
		c0,0,0,0-0.1,0l0,0C13.1,5.5,13,5.5,13.1,5.4C13,5.5,13.1,5.4,13.1,5.4C13.1,5.4,13.1,5.4,13.1,5.4z M13.1,5.6L13.1,5.6L13.1,5.6
		C13.1,5.7,13.1,5.7,13.1,5.6c0,0.1,0,0.1-0.1,0.1v0L13.1,5.6C13.1,5.6,13.1,5.6,13.1,5.6C13.1,5.6,13.1,5.6,13.1,5.6z M13.1,5.8
		C13.1,5.7,13.1,5.7,13.1,5.8C13.1,5.7,13.2,5.7,13.1,5.8L13.1,5.8c0.1-0.1,0.1-0.1,0.1-0.1c0,0,0,0,0,0.1c0,0,0,0,0,0.1
		C13.2,5.9,13.2,5.9,13.1,5.8L13.1,5.8C13.2,5.9,13.1,5.8,13.1,5.8C13.1,5.8,13.1,5.8,13.1,5.8z M13.2,6.1
		C13.2,6.1,13.2,6.1,13.2,6.1C13.2,6.1,13.2,6.1,13.2,6.1l-0.1,0.1c0,0,0,0,0,0c0,0,0,0,0-0.1c0,0,0,0,0-0.1C13.1,6,13.1,6,13.2,6.1
		L13.2,6.1C13.2,6,13.2,6,13.2,6.1L13.2,6.1C13.2,6,13.2,6,13.2,6.1z M13.1,5.9C13.1,5.9,13.1,5.9,13.1,5.9L13.1,5.9
		C13.2,5.9,13.2,5.9,13.1,5.9c0,0.1,0,0.1,0,0.1c0,0,0,0,0,0C13.1,5.9,13.1,5.9,13.1,5.9C13.1,5.8,13.1,5.8,13.1,5.9z M13.1,6.2
		L13.1,6.2c-0.1,0-0.1,0-0.1,0c0,0,0,0,0,0L13,6.1C13,6.1,13,6.1,13.1,6.2C13.1,6.2,13.1,6.2,13.1,6.2L13.1,6.2z M13.1,6.2L13.1,6.2
		L13.1,6.2L13.1,6.2C13.1,6.3,13.1,6.3,13.1,6.2c0.1,0.1,0.1,0.1,0.1,0.1c0,0,0,0-0.1,0c0,0,0,0,0,0l0,0C13,6.4,13,6.3,13.1,6.2
		C13,6.3,13,6.3,13.1,6.2C13,6.2,13,6.2,13.1,6.2z M12.9,6.3L12.9,6.3c0,0.1,0,0.1,0,0.1c0,0,0,0,0,0l0,0c0,0,0,0,0,0c0,0,0,0-0.1,0
		c0,0,0,0,0,0.1c0,0,0,0.1,0,0.1c0,0,0,0,0,0c0,0,0,0,0,0c0,0,0,0,0,0c0,0,0,0-0.1,0c0,0,0,0,0,0.1c0,0,0,0,0,0.1l0,0c0,0,0,0,0,0
		c0,0,0,0,0,0c0,0,0,0,0,0c0,0,0,0,0,0c0,0,0,0-0.1,0c0,0,0,0,0,0l0.1-0.1C12.8,6.6,12.9,6.4,12.9,6.3z M13,6.5
		C13,6.5,13,6.5,13,6.5C13,6.5,13,6.5,13,6.5C13,6.6,13,6.6,13,6.5c0,0.1,0,0.1,0,0.1c0,0,0,0,0,0v0C12.9,6.6,12.9,6.6,13,6.5
		c-0.1,0.1-0.1,0.1-0.1,0.1C12.8,6.5,12.9,6.5,13,6.5C12.9,6.5,12.9,6.5,13,6.5C12.9,6.5,12.9,6.5,13,6.5z M12.8,6.7
		C12.8,6.6,12.8,6.6,12.8,6.7C12.8,6.6,12.8,6.6,12.8,6.7L12.8,6.7C12.8,6.7,12.8,6.7,12.8,6.7C12.8,6.7,12.8,6.7,12.8,6.7
		C12.8,6.7,12.8,6.8,12.8,6.7C12.8,6.8,12.8,6.8,12.8,6.7C12.8,6.7,12.8,6.7,12.8,6.7C12.7,6.7,12.7,6.7,12.8,6.7
		C12.7,6.7,12.7,6.7,12.8,6.7z M12.6,6.8L12.6,6.8C12.6,6.8,12.6,6.8,12.6,6.8C12.7,6.8,12.7,6.8,12.6,6.8
		C12.7,6.8,12.7,6.8,12.6,6.8L12.6,6.8C12.7,6.8,12.7,6.8,12.6,6.8C12.7,6.8,12.7,6.9,12.6,6.8C12.7,6.9,12.7,6.9,12.6,6.8L12.6,6.8
		C12.7,6.9,12.7,6.9,12.6,6.8L12.6,6.8C12.7,6.9,12.7,6.9,12.6,6.8C12.7,6.9,12.7,6.9,12.6,6.8C12.6,6.8,12.6,6.8,12.6,6.8z
		 M12.2,6.9C12.2,6.9,12.2,6.9,12.2,6.9C12.3,6.9,12.3,6.9,12.2,6.9c0,0.1-0.1,0.2-0.2,0.3c0,0,0,0,0,0c0,0,0,0,0,0L12.2,6.9
		L12.2,6.9z M12.3,7.3C12.3,7.3,12.3,7.3,12.3,7.3L12.3,7.3C12.3,7.3,12.3,7.3,12.3,7.3C12.4,7.3,12.4,7.3,12.3,7.3L12.3,7.3
		C12.3,7.4,12.3,7.4,12.3,7.3L12.3,7.3C12.3,7.3,12.3,7.3,12.3,7.3L12.3,7.3L12.3,7.3z"/>
	<path class="st1" d="M12.2,4.7C12.2,4.7,12.2,4.7,12.2,4.7L12.2,4.7C12.2,4.7,12.1,4.7,12.2,4.7c-0.1,0.1-0.1,0.1-0.1,0.1
		c0,0,0,0,0.1,0c0,0,0,0,0.1,0C12.3,4.8,12.3,4.8,12.2,4.7L12.2,4.7C12.3,4.7,12.3,4.7,12.2,4.7C12.3,4.7,12.3,4.7,12.2,4.7z"/>
	<path class="st1" d="M11.9,4.5L11.9,4.5C11.9,4.5,11.8,4.4,11.9,4.5C11.8,4.4,11.8,4.4,11.9,4.5l-0.1-0.1l0,0c0,0,0,0,0,0.1
		c0,0,0,0,0,0.1C11.7,4.6,11.8,4.6,11.9,4.5C11.8,4.6,11.8,4.6,11.9,4.5C11.8,4.5,11.9,4.5,11.9,4.5z"/>
	<path class="st1" d="M11.7,4.7L11.7,4.7L11.7,4.7C11.7,4.7,11.7,4.6,11.7,4.7C11.7,4.6,11.6,4.6,11.7,4.7c-0.1-0.1-0.1-0.1-0.1,0
		c0,0,0,0,0,0.1v0c0,0,0,0,0,0C11.6,4.8,11.6,4.8,11.7,4.7C11.6,4.8,11.7,4.8,11.7,4.7C11.7,4.7,11.7,4.7,11.7,4.7L11.7,4.7z"/>
	<path class="st2" d="M11.9,4.5C11.9,4.5,11.9,4.6,11.9,4.5c-0.1,0.1-0.1,0.1-0.1,0.1c0,0-0.1,0-0.1,0c0,0,0-0.1,0-0.1
		c0,0,0-0.1,0-0.1c0,0,0,0,0,0l0,0l0,0c0,0,0,0-0.1,0c0,0-0.1,0-0.1,0c0,0,0-0.1,0-0.1l0,0l0,0c0,0,0,0,0,0c0,0-0.1,0-0.1,0
		c0,0-0.1,0-0.1,0c0,0,0-0.1,0-0.1l-0.1,0c0,0,0,0,0,0c0,0,0,0-0.1,0c0,0-0.1,0-0.1,0c0,0,0,0,0-0.1l0,0c0,0,0,0,0,0.1
		c0,0,0,0-0.1,0c0,0-0.1,0-0.1,0l0,0l-0.1,0c0,0,0,0,0,0.1c0,0,0,0-0.1,0c0,0-0.1,0-0.1,0c0,0,0,0,0,0l0,0v0c0,0,0,0.1,0,0.1
		c0,0,0,0-0.1,0h0v0c0.1,0,0.1-0.1,0.2-0.1h0c0.5-0.2,0.9-0.1,1.1,0.2c0,0,0.1,0.1,0.1,0.1l0,0c0,0,0,0.1,0,0.1l0,0
		c0,0.1,0,0.1,0,0.2c0,0.1,0,0.1,0,0.2l-0.1,0.2l-0.1,0.2l-0.1,0.2c0,0.1-0.1,0.2-0.2,0.3l0,0v0c0,0,0-0.1,0-0.1c0,0,0,0,0.1,0
		c0,0,0,0,0.1,0c0,0,0,0,0,0.1c0,0,0,0,0,0c0.2-0.2,0.3-0.4,0.4-0.6l0,0c0.1-0.2,0.1-0.3,0.2-0.5c0,0,0-0.1,0-0.1l0,0
		c0-0.1,0-0.1-0.1-0.2l0,0C12,4.6,12,4.6,11.9,4.5z M12,4.7L12,4.7C12,4.7,12,4.7,12,4.7c0.1,0.1,0.1,0.1,0.1,0.1c0,0,0,0.1,0,0.1
		l0,0l0,0c0,0,0,0-0.1,0c0,0-0.1,0-0.1,0l0,0c0,0,0,0,0,0l0,0c0,0,0,0,0-0.1l0,0C11.9,4.6,11.9,4.6,12,4.7L12,4.7
		C12,4.6,12,4.6,12,4.7z M11.8,5C11.8,5,11.9,5,11.8,5L11.8,5c0.1-0.1,0.1-0.1,0.1-0.1c0,0,0.1,0,0.1,0c0,0,0,0,0,0.1v0
		c0,0,0,0,0,0.1c0,0,0,0-0.1,0C11.9,5.2,11.9,5.1,11.8,5C11.9,5.1,11.8,5.1,11.8,5C11.8,5,11.8,5,11.8,5z M11.7,5.5L11.7,5.5
		C11.7,5.5,11.7,5.5,11.7,5.5L11.7,5.5C11.7,5.5,11.7,5.5,11.7,5.5L11.7,5.5C11.8,5.5,11.8,5.5,11.7,5.5c0.1,0,0.1,0,0.2,0l0,0
		c0,0,0,0,0,0.1v0l0,0c0,0,0,0,0,0l0,0l0,0c0,0,0,0-0.1,0h0c0,0,0,0-0.1,0l0,0L11.7,5.5L11.7,5.5C11.7,5.6,11.7,5.6,11.7,5.5
		C11.7,5.6,11.7,5.6,11.7,5.5z M11.5,5.9C11.5,5.9,11.5,5.9,11.5,5.9c0-0.1,0-0.1,0-0.1c0,0,0,0,0.1,0c0,0,0,0,0.1,0c0,0,0,0,0,0.1
		v0c0,0,0,0,0,0.1C11.7,6,11.6,6,11.5,5.9C11.6,6,11.6,6,11.5,5.9z M12,5.2C12,5.3,12,5.3,12,5.2c0,0.1,0,0.1,0,0.2l0,0
		c0,0,0,0-0.1,0h0c0,0-0.1,0-0.1,0c0,0,0-0.1,0-0.1c0,0,0-0.1,0-0.1h0c0,0,0,0,0,0C11.9,5.2,11.9,5.2,12,5.2C11.9,5.2,12,5.2,12,5.2
		z"/>
	<path class="st0" d="M12,4.7L12,4.7C12,4.6,12,4.6,12,4.7L12,4.7c-0.1,0-0.1,0-0.2,0l0,0c0,0,0,0,0,0.1l0,0c0,0,0,0,0,0l0,0
		c0,0,0.1,0,0.1,0c0,0,0,0,0.1,0l0,0l0,0C12,4.8,12.1,4.8,12,4.7C12.1,4.7,12.1,4.7,12,4.7C12,4.7,12,4.7,12,4.7z M11.9,4.7
		C11.9,4.7,11.9,4.7,11.9,4.7c0.1,0,0.1,0,0.1,0c0,0,0,0,0,0c0,0,0,0,0,0.1c0,0,0,0,0,0.1l0,0c0,0,0,0-0.1,0c0,0,0,0-0.1,0L11.9,4.7
		C11.9,4.8,11.9,4.8,11.9,4.7C11.9,4.7,11.9,4.7,11.9,4.7C11.9,4.7,11.9,4.7,11.9,4.7z"/>
	<path class="st1" d="M11.9,4.7C11.9,4.7,11.9,4.7,11.9,4.7C11.9,4.7,11.9,4.7,11.9,4.7C11.9,4.7,11.9,4.7,11.9,4.7
		c-0.1,0.1-0.1,0.1-0.1,0.1l0,0c0,0,0,0,0.1,0c0,0,0,0,0.1,0l0,0C12,4.8,12,4.8,11.9,4.7C12,4.7,12,4.7,11.9,4.7
		C12,4.7,12,4.7,11.9,4.7C12,4.7,12,4.7,11.9,4.7z"/>
	<path class="st0" d="M11.9,5C11.9,5,11.8,5,11.9,5C11.8,5,11.8,5,11.9,5c0,0.1,0,0.1,0,0.2c0,0,0.1,0,0.1,0c0,0,0.1,0,0.1,0
		c0,0,0,0,0-0.1v0c0,0,0-0.1,0-0.1C12,4.9,12,4.9,11.9,5C11.9,4.9,11.9,4.9,11.9,5L11.9,5z M11.9,5L11.9,5C11.9,5,11.9,5,11.9,5
		C11.9,5,11.9,5,11.9,5C12,5,12,5,12,5c0,0,0,0,0,0.1c0,0,0,0,0,0c0,0,0,0,0,0C12,5.1,12,5.1,11.9,5C11.9,5.1,11.9,5.1,11.9,5
		C11.9,5.1,11.9,5.1,11.9,5z"/>
	<path class="st1" d="M11.9,5L11.9,5C11.9,5.1,11.9,5.1,11.9,5C11.9,5.1,11.9,5.1,11.9,5C12,5.1,12,5.1,12,5.1c0,0,0,0,0,0
		c0,0,0,0,0,0c0,0,0,0,0-0.1C12,5,12,5,11.9,5C11.9,5,11.9,5,11.9,5C11.9,5,11.9,5,11.9,5z"/>
	<path class="st0" d="M11.7,5.5L11.7,5.5C11.7,5.6,11.7,5.6,11.7,5.5C11.7,5.6,11.7,5.6,11.7,5.5L11.7,5.5l0,0.1l0,0c0,0,0,0,0.1,0
		h0c0,0,0,0,0.1,0l0,0l0,0c0,0,0,0,0,0l0,0v0c0,0,0-0.1,0-0.1l0,0C11.8,5.5,11.8,5.5,11.7,5.5C11.8,5.5,11.8,5.5,11.7,5.5L11.7,5.5
		C11.7,5.5,11.7,5.5,11.7,5.5L11.7,5.5C11.7,5.5,11.7,5.5,11.7,5.5z M11.7,5.6C11.7,5.6,11.7,5.6,11.7,5.6
		C11.7,5.6,11.7,5.6,11.7,5.6L11.7,5.6L11.7,5.6C11.7,5.5,11.7,5.5,11.7,5.6L11.7,5.6L11.7,5.6C11.7,5.5,11.8,5.5,11.7,5.6L11.7,5.6
		c0.1-0.1,0.1-0.1,0.1-0.1c0,0,0,0,0,0.1v0l0,0c0,0,0,0,0,0l0,0v0l0,0C11.8,5.7,11.8,5.7,11.7,5.6L11.7,5.6
		C11.8,5.7,11.8,5.7,11.7,5.6C11.7,5.7,11.7,5.7,11.7,5.6L11.7,5.6C11.7,5.6,11.7,5.6,11.7,5.6z"/>
	<path class="st1" d="M11.7,5.6C11.7,5.6,11.7,5.6,11.7,5.6C11.7,5.6,11.7,5.6,11.7,5.6L11.7,5.6C11.7,5.7,11.7,5.7,11.7,5.6
		C11.8,5.7,11.8,5.7,11.7,5.6L11.7,5.6c0.1,0.1,0.1,0.1,0.1,0.1l0,0v0l0,0c0,0,0,0,0,0l0,0v0c0,0,0,0,0-0.1
		C11.8,5.5,11.8,5.5,11.7,5.6L11.7,5.6C11.8,5.5,11.7,5.5,11.7,5.6L11.7,5.6L11.7,5.6C11.7,5.5,11.7,5.5,11.7,5.6L11.7,5.6L11.7,5.6
		C11.7,5.6,11.7,5.6,11.7,5.6z"/>
	<path class="st0" d="M11.5,5.9C11.5,5.9,11.5,5.9,11.5,5.9C11.6,6,11.6,6,11.5,5.9C11.6,6,11.7,6,11.7,5.9c0,0,0,0,0-0.1v0
		c0,0,0-0.1,0-0.1C11.7,5.8,11.6,5.8,11.5,5.9C11.6,5.8,11.6,5.8,11.5,5.9C11.5,5.8,11.5,5.8,11.5,5.9z M11.7,5.8L11.7,5.8
		C11.7,5.8,11.7,5.9,11.7,5.8L11.7,5.8C11.7,5.9,11.7,5.9,11.7,5.8c0,0.1,0,0.1,0,0.1C11.6,5.9,11.6,5.9,11.7,5.8
		c-0.1,0.1-0.1,0.1-0.1,0C11.5,5.9,11.5,5.8,11.7,5.8L11.7,5.8C11.6,5.8,11.6,5.8,11.7,5.8C11.6,5.8,11.6,5.8,11.7,5.8z"/>
	<path class="st1" d="M11.7,5.8L11.7,5.8C11.6,5.8,11.6,5.8,11.7,5.8C11.6,5.8,11.6,5.8,11.7,5.8L11.7,5.8c-0.1,0-0.1,0-0.1,0
		C11.5,5.9,11.5,5.9,11.7,5.8c-0.1,0.1-0.1,0.1,0,0.1C11.6,5.9,11.6,5.9,11.7,5.8C11.7,5.9,11.7,5.9,11.7,5.8L11.7,5.8
		C11.7,5.9,11.7,5.8,11.7,5.8z"/>
	<path class="st0" d="M12,5.3C12,5.3,12,5.3,12,5.3c-0.1-0.1-0.1-0.1-0.1-0.1c0,0-0.1,0-0.1,0c0,0,0,0,0,0h0c0,0,0,0,0,0.1
		c0,0,0,0.1,0,0.1c0,0,0.1,0,0.1,0h0C11.9,5.5,12,5.4,12,5.3L12,5.3C12,5.4,12,5.4,12,5.3z M12,5.4C12,5.4,12,5.4,12,5.4
		C12,5.4,11.9,5.4,12,5.4L12,5.4c-0.1,0-0.1,0-0.1,0c0,0,0,0,0-0.1c0,0,0,0,0-0.1c0,0,0,0,0,0c0,0,0,0,0.1,0h0c0,0,0,0,0.1,0
		C12,5.3,12,5.3,12,5.4C12,5.4,12,5.4,12,5.4z"/>
	<path class="st1" d="M12,5.4C12,5.4,12,5.4,12,5.4C12,5.4,12,5.4,12,5.4c0-0.1,0-0.1,0-0.1c0,0,0,0-0.1,0h0c0,0,0,0-0.1,0
		c0,0,0,0,0,0c0,0,0,0,0,0.1c0,0,0,0,0,0.1C11.9,5.4,11.9,5.4,12,5.4L12,5.4C11.9,5.4,12,5.4,12,5.4z"/>
	<path class="st2" d="M11.7,4.8L11.7,4.8C11.7,4.8,11.7,4.8,11.7,4.8C11.7,4.8,11.7,4.8,11.7,4.8L11.7,4.8z"/>
	<path class="st2" d="M12.2,4.9L12.2,4.9C12.6,5,12.9,5.2,13,5.5c0,0,0-0.1,0-0.1c0,0,0,0,0,0l0-0.1c0,0,0,0-0.1,0c0,0-0.1,0-0.1,0
		c0,0,0-0.1,0-0.1c0,0,0-0.1,0-0.1l0,0l0,0l0,0c0,0,0,0-0.1,0c0,0-0.1,0-0.1,0c0,0,0-0.1,0-0.1c0,0,0-0.1,0-0.1c0,0,0,0,0,0l-0.1,0
		c0,0,0,0,0,0c0,0-0.1,0-0.1,0c0,0-0.1,0-0.1,0c0,0,0-0.1,0-0.1c0,0,0,0,0-0.1l0,0c0,0,0,0,0,0.1C12.3,4.9,12.3,4.9,12.2,4.9
		C12.2,4.9,12.2,4.9,12.2,4.9z"/>
	<path class="st3" d="M12.1,4.7C12.1,4.7,12.1,4.7,12.1,4.7C12.1,4.7,12.1,4.7,12.1,4.7L12.1,4.7z"/>
	<path class="st1" d="M12.4,4.8C12.4,4.8,12.4,4.8,12.4,4.8C12.4,4.8,12.4,4.8,12.4,4.8c0,0.1,0,0.1,0,0.1v0c0,0,0,0,0.1,0
		c0,0,0,0,0.1,0c0,0,0,0,0,0v0c0,0,0,0,0-0.1C12.5,4.8,12.5,4.8,12.4,4.8C12.5,4.8,12.5,4.8,12.4,4.8z"/>
	<path class="st1" d="M12.7,5C12.7,5,12.7,5,12.7,5c0,0.1,0,0.1,0,0.1c0,0,0,0,0.1,0c0,0,0,0,0.1,0c0,0,0,0,0,0v0c0,0,0,0,0-0.1
		C12.8,5,12.8,4.9,12.7,5C12.8,4.9,12.7,4.9,12.7,5L12.7,5z"/>
	<path class="st1" d="M6.9,5C6.9,5,6.9,5,6.9,5L6.9,5C6.9,5.1,6.9,5.1,6.9,5C7,5.1,7,5.1,6.9,5C7,5.1,7,5.1,7.1,5.1c0,0,0,0,0-0.1
		l0,0l0,0c0,0,0,0,0,0C7,4.9,7,4.9,6.9,5C7,4.9,7,5,6.9,5C6.9,5,6.9,5,6.9,5z"/>
	<path class="st1" d="M8.1,4.2C8.1,4.3,8.1,4.3,8.1,4.2c0,0.1,0,0.1,0,0.1l0,0h0c0,0,0,0,0.1,0c0,0,0,0,0.1,0c0,0,0,0,0-0.1
		c0,0,0,0,0,0l0,0C8.2,4.2,8.2,4.2,8.1,4.2C8.2,4.2,8.1,4.2,8.1,4.2z"/>
	<path class="st1" d="M7.5,4.7C7.5,4.7,7.5,4.7,7.5,4.7C7.5,4.7,7.5,4.7,7.5,4.7L7.5,4.7C7.5,4.8,7.5,4.8,7.5,4.8c0,0,0,0,0.1,0
		c0,0,0,0,0.1,0C7.6,4.8,7.6,4.8,7.5,4.7C7.6,4.7,7.6,4.7,7.5,4.7L7.5,4.7C7.6,4.7,7.6,4.7,7.5,4.7z"/>
	<path class="st1" d="M7.3,4.8C7.2,4.8,7.2,4.8,7.3,4.8C7.2,4.8,7.2,4.8,7.3,4.8L7.2,4.9c0,0,0,0,0,0c0,0,0,0,0.1,0c0,0,0,0,0.1,0
		l0,0C7.3,4.9,7.4,4.9,7.3,4.8C7.4,4.8,7.3,4.8,7.3,4.8L7.3,4.8L7.3,4.8C7.3,4.8,7.3,4.8,7.3,4.8z"/>
	<path class="st2" d="M7.1,4.9L7.1,4.9L7.1,4.9C7.1,5,7.1,5,7.1,4.9L7.1,4.9c0,0.1,0,0.1,0,0.2c0,0,0,0-0.1,0c0,0-0.1,0-0.1,0l0,0
		l0,0l0,0c0,0,0,0,0,0.1c0,0,0,0.1,0,0.1c0,0,0,0-0.1,0c0,0-0.1,0-0.1,0l0,0.1c0,0,0,0,0,0c0,0,0,0,0,0.1C6.9,5.2,7.2,5,7.6,4.9l0,0
		c0,0,0,0-0.1,0c0,0-0.1,0-0.1,0c0,0,0,0,0-0.1l0,0c0,0,0,0,0,0.1c0,0,0,0.1,0,0.1c0,0-0.1,0-0.1,0C7.2,5,7.2,5,7.1,4.9
		C7.2,4.9,7.2,4.9,7.1,4.9L7.1,4.9L7.1,4.9z"/>
	<path class="st2" d="M8.1,4.4C8.1,4.4,8.1,4.4,8.1,4.4L8.1,4.4C8.1,4.4,8.1,4.4,8.1,4.4c0,0,0,0.1,0,0.1c0,0,0,0.1,0,0.1
		c0,0,0,0-0.1,0c0,0-0.1,0-0.1,0c0,0,0,0,0-0.1c-0.1,0-0.1,0.1-0.2,0.2l0,0c0,0,0,0.1-0.1,0.2l0,0c0,0,0,0.1,0,0.1
		c0,0.1,0.1,0.3,0.2,0.5l0,0C7.9,5.7,8,5.9,8.2,6.1c0,0,0,0,0,0c0,0,0-0.1,0-0.1c0,0,0,0,0.1,0c0,0,0,0,0.1,0c0,0,0,0,0,0.1v0l0,0
		C8.4,6,8.3,5.9,8.3,5.8L8.2,5.6l0,0h0l0-0.1l0,0c0-0.1,0-0.1-0.1-0.2c0-0.1,0-0.2,0-0.2C8,5,8,4.9,8,4.8l0,0l0-0.1l0,0
		c0-0.1,0.1-0.1,0.1-0.1c0.3-0.3,0.7-0.3,1.1-0.2l0.2,0.1v0h0c0,0-0.1,0-0.1,0h0c0,0,0,0,0-0.1v0l0,0l0,0c0,0,0,0-0.1,0
		c0,0,0,0-0.1,0c0,0,0,0,0-0.1l-0.1,0l0,0c0,0,0,0-0.1,0c0,0-0.1,0-0.1,0c0,0,0,0,0-0.1l-0.1,0c0,0,0,0,0,0.1c0,0,0,0-0.1,0
		c0,0-0.1,0-0.1,0c0,0,0,0,0,0l-0.1,0c0,0,0,0.1,0,0.1c0,0,0,0-0.1,0c0,0-0.1,0-0.1,0h0c0,0,0,0,0,0l0,0l0,0c0,0,0,0.1,0,0.1h0
		C8.3,4.4,8.2,4.4,8.1,4.4C8.2,4.4,8.1,4.4,8.1,4.4z M7.9,4.7L7.9,4.7L7.9,4.7C7.9,4.7,8,4.7,7.9,4.7l0,0.1l0,0l0,0c0,0,0,0-0.1,0
		c0,0,0,0-0.1,0c0,0,0,0,0,0c0,0,0,0,0,0c0,0,0,0,0-0.1c0,0,0,0,0,0c0,0,0,0,0,0v0C7.8,4.6,7.8,4.6,7.9,4.7C7.9,4.6,7.9,4.6,7.9,4.7
		z M7.7,5.1C7.7,5,7.7,5,7.7,5.1C7.7,5,7.7,5,7.7,5.1c0.1-0.1,0.1-0.1,0.1-0.1c0,0,0.1,0,0.1,0v0c0,0,0,0,0,0.1v0c0,0,0,0,0,0.1
		c0,0,0,0-0.1,0C7.8,5.2,7.7,5.1,7.7,5.1C7.7,5.1,7.7,5.1,7.7,5.1z M8.2,5.8C8.3,5.8,8.3,5.8,8.2,5.8c0,0.1,0,0.1,0,0.1
		c0,0,0,0-0.1,0c0,0,0,0-0.1,0c0,0,0,0,0-0.1v0c0,0,0,0,0-0.1C8.1,5.8,8.1,5.8,8.2,5.8C8.2,5.8,8.2,5.8,8.2,5.8z M7.9,5.2L7.9,5.2
		C8,5.3,8,5.3,7.9,5.2c0,0.1,0,0.1,0,0.2c0,0,0,0-0.1,0c0,0-0.1,0-0.1,0c0,0,0,0,0,0c0,0,0,0,0-0.1c0,0,0-0.1,0-0.1
		C7.8,5.2,7.8,5.2,7.9,5.2C7.9,5.2,7.9,5.2,7.9,5.2L7.9,5.2z M8,5.5C8,5.5,8,5.5,8,5.5C8.1,5.5,8.1,5.5,8,5.5L8,5.5
		C8.1,5.5,8.1,5.5,8,5.5L8,5.5l0.1,0.1c0,0,0,0,0,0c0,0,0,0,0,0l0,0c0,0,0,0-0.1,0h0c0,0,0,0-0.1,0c0,0,0,0,0,0c0,0,0,0,0,0
		c0,0,0,0,0,0l0,0v0c0,0,0-0.1,0-0.1c0,0,0,0,0,0C7.9,5.5,8,5.5,8,5.5C8,5.5,8,5.5,8,5.5C8,5.5,8,5.5,8,5.5z"/>
	<path class="st0" d="M7.9,4.7L7.9,4.7C7.9,4.6,7.9,4.6,7.9,4.7c-0.1,0-0.1,0-0.2,0v0c0,0,0,0,0,0c0,0,0,0,0,0c0,0,0,0.1,0,0.1
		c0,0,0,0,0,0c0,0,0,0,0,0c0,0,0,0,0.1,0c0,0,0.1,0,0.1,0l0,0l0,0L7.9,4.7C8,4.7,7.9,4.7,7.9,4.7L7.9,4.7z M7.9,4.7
		C7.9,4.7,7.9,4.7,7.9,4.7C7.9,4.7,7.9,4.7,7.9,4.7L7.9,4.7l0,0.1c0,0,0,0-0.1,0c0,0,0,0,0,0l0,0c0,0,0,0,0-0.1c0,0,0,0,0-0.1l0,0
		C7.8,4.7,7.8,4.7,7.9,4.7C7.9,4.7,7.9,4.7,7.9,4.7z"/>
	<path class="st1" d="M7.9,4.7C7.9,4.7,7.9,4.7,7.9,4.7C7.9,4.7,7.9,4.7,7.9,4.7c-0.1,0-0.1,0-0.1,0l0,0c0,0,0,0,0,0.1
		c0,0,0,0,0,0.1l0,0c0,0,0,0,0,0c0,0,0,0,0.1,0V4.7L7.9,4.7C7.9,4.7,7.9,4.7,7.9,4.7z"/>
	<path class="st0" d="M7.7,5C7.7,5,7.7,5,7.7,5C7.7,5.1,7.7,5.1,7.7,5c0.1,0.1,0.1,0.1,0.1,0.1c0,0,0.1,0,0.1,0c0,0,0,0,0-0.1v0
		c0,0,0-0.1,0-0.1v0c0,0,0,0-0.1,0C7.8,4.9,7.7,4.9,7.7,5C7.7,5,7.7,5,7.7,5z M7.7,5C7.7,5,7.7,5,7.7,5C7.8,5,7.8,5,7.7,5
		C7.8,5,7.8,5,7.9,5c0,0,0,0,0,0.1c0,0,0,0,0,0c0,0,0,0,0,0C7.9,5.1,7.8,5.1,7.7,5C7.8,5.1,7.8,5.1,7.7,5C7.7,5.1,7.7,5.1,7.7,5
		L7.7,5z"/>
	<path class="st1" d="M7.8,5C7.7,5,7.7,5,7.8,5L7.8,5c0,0.1,0,0.1,0,0.1c0,0,0,0,0.1,0c0,0,0,0,0.1,0c0,0,0,0,0,0c0,0,0,0,0,0
		c0,0,0,0,0-0.1C7.8,5,7.8,5,7.8,5C7.8,5,7.8,5,7.8,5z"/>
	<path class="st0" d="M8.3,5.9C8.3,5.8,8.3,5.8,8.3,5.9C8.2,5.8,8.2,5.8,8.3,5.9C8.1,5.8,8.1,5.8,8.1,5.8c0,0,0,0,0,0.1v0
		c0,0,0,0,0,0.1C8.1,6,8.1,6,8.3,5.9C8.2,6,8.2,6,8.3,5.9C8.3,5.9,8.3,5.9,8.3,5.9z M8.2,5.9C8.2,5.9,8.2,5.9,8.2,5.9
		C8.2,5.9,8.2,5.9,8.2,5.9c-0.1,0.1-0.1,0.1-0.1,0c0,0,0,0,0,0v0c0,0,0,0,0,0v0C8.1,5.8,8.1,5.8,8.2,5.9C8.2,5.8,8.2,5.8,8.2,5.9
		L8.2,5.9C8.2,5.8,8.2,5.9,8.2,5.9z"/>
	<path class="st1" d="M8.2,5.9C8.2,5.9,8.2,5.9,8.2,5.9C8.2,5.9,8.2,5.8,8.2,5.9L8.2,5.9c0-0.1,0-0.1,0-0.1C8.1,5.8,8.1,5.8,8.2,5.9
		L8.2,5.9c-0.1-0.1-0.1-0.1-0.1,0v0C8.1,5.9,8.1,5.9,8.2,5.9C8.1,5.9,8.1,5.9,8.2,5.9C8.2,5.9,8.2,5.9,8.2,5.9z"/>
	<path class="st0" d="M7.9,5.2L7.9,5.2L7.9,5.2C7.9,5.2,7.9,5.2,7.9,5.2c-0.1,0-0.1,0-0.2,0c0,0,0,0,0,0.1c0,0,0,0,0,0.1
		c0,0,0,0,0,0c0,0,0.1,0,0.1,0c0,0,0.1,0,0.1,0C8,5.4,8,5.4,7.9,5.2C8,5.3,8,5.3,7.9,5.2z M7.9,5.3L7.9,5.3C7.9,5.3,7.9,5.3,7.9,5.3
		c0,0.1,0,0.1,0,0.1c0,0,0,0-0.1,0s0,0-0.1,0h0c0,0,0,0,0,0c0,0,0,0,0,0c0,0,0,0,0-0.1C7.8,5.3,7.8,5.2,7.9,5.3
		C7.9,5.2,7.9,5.3,7.9,5.3z"/>
	<path class="st1" d="M7.9,5.3L7.9,5.3C7.9,5.3,7.9,5.2,7.9,5.3c-0.1,0-0.1,0-0.1,0c0,0,0,0,0,0.1c0,0,0,0,0,0c0,0,0,0,0,0h0
		c0,0,0,0,0.1,0s0,0,0.1,0C7.9,5.4,7.9,5.4,7.9,5.3C7.9,5.3,7.9,5.3,7.9,5.3L7.9,5.3z"/>
	<path class="st0" d="M8,5.5C8,5.5,8,5.5,8,5.5C8,5.5,8,5.5,8,5.5C8,5.5,8,5.5,8,5.5c-0.1,0-0.1,0-0.1,0c0,0,0,0,0,0c0,0,0,0,0,0.1
		v0l0,0c0,0,0,0,0,0c0,0,0,0,0,0c0,0,0,0,0,0c0,0,0,0,0.1,0h0c0,0,0,0,0.1,0l0,0c0,0,0,0,0,0c0,0,0,0,0,0L8,5.5L8,5.5
		C8.1,5.5,8.1,5.5,8,5.5L8,5.5C8.1,5.5,8.1,5.5,8,5.5z M8.1,5.5C8.1,5.5,8.1,5.5,8.1,5.5L8.1,5.5L8.1,5.5L8.1,5.5L8.1,5.5l0,0.1l0,0
		c0,0,0,0,0,0l0,0c0,0,0,0,0,0c0,0,0,0,0,0l0,0v0c0,0,0,0,0,0c0,0,0,0,0,0c0,0,0,0,0,0v0c0,0,0,0,0-0.1C8,5.5,8,5.5,8.1,5.5L8.1,5.5
		L8.1,5.5C8,5.5,8,5.5,8.1,5.5L8.1,5.5z"/>
	<path class="st1" d="M8.1,5.6C8.1,5.5,8.1,5.5,8.1,5.6L8.1,5.6C8,5.5,8,5.5,8.1,5.6L8.1,5.6L8.1,5.6c-0.1,0-0.1,0-0.1,0
		c0,0,0,0,0,0.1v0c0,0,0,0,0,0c0,0,0,0,0,0c0,0,0,0,0,0v0l0,0c0,0,0,0,0,0c0,0,0,0,0,0l0,0c0,0,0,0,0,0V5.6L8.1,5.6L8.1,5.6L8.1,5.6
		L8.1,5.6L8.1,5.6z"/>
	<path class="st1" d="M8.1,4.5C8.1,4.5,8.1,4.5,8.1,4.5L8.1,4.5L8.1,4.5C8,4.4,8,4.4,7.9,4.4c0,0,0,0,0,0v0c0,0,0,0,0,0.1h0
		C8,4.6,8,4.6,8.1,4.5C8,4.6,8,4.6,8.1,4.5C8.1,4.5,8.1,4.5,8.1,4.5z"/>
	<path class="st1" d="M8.1,4.7L8.1,4.7L8.1,4.7C8.1,4.7,8.1,4.7,8.1,4.7c0,0.1,0.1,0.1,0.1,0.1c0,0,0,0,0.1,0c0,0,0,0,0,0v0l0,0
		c0,0,0,0,0-0.1C8.2,4.6,8.2,4.6,8.1,4.7C8.1,4.6,8.1,4.6,8.1,4.7C8.1,4.6,8.1,4.6,8.1,4.7L8.1,4.7z"/>
	<path class="st3" d="M7.7,4.7L7.7,4.7C7.7,4.7,7.7,4.7,7.7,4.7C7.7,4.7,7.7,4.7,7.7,4.7z"/>
	<path class="st2" d="M8.1,4.8C8.1,4.8,8,4.8,8.1,4.8L8.1,4.8L8.1,4.8C8.1,4.8,8.1,4.8,8.1,4.8z"/>
	<path class="st1" d="M8.9,4.1L8.9,4.1C8.9,4.2,8.9,4.2,8.9,4.1L8.9,4.1C9,4.2,9,4.2,8.9,4.1C9,4.2,9.1,4.2,9.1,4.2l0,0c0,0,0,0,0,0
		c0,0,0,0,0-0.1C9.1,4.1,9,4.1,8.9,4.1C9,4.1,9,4.1,8.9,4.1C8.9,4.1,8.9,4.1,8.9,4.1z"/>
	<path class="st1" d="M8.8,4.1L8.8,4.1C8.8,4.1,8.8,4.1,8.8,4.1C8.8,4.1,8.8,4,8.8,4.1C8.7,4,8.7,4.1,8.7,4.1c0,0,0,0,0,0.1v0
		c0,0,0,0,0,0C8.7,4.2,8.7,4.2,8.8,4.1C8.8,4.2,8.8,4.2,8.8,4.1C8.8,4.2,8.8,4.2,8.8,4.1z"/>
	<path class="st1" d="M9.3,4.2C9.3,4.1,9.3,4.1,9.3,4.2c-0.1,0-0.1,0-0.1,0c0,0,0,0,0,0v0c0,0,0,0,0,0c0,0,0,0,0,0c0,0,0,0,0.1,0
		C9.3,4.3,9.3,4.2,9.3,4.2C9.3,4.2,9.3,4.2,9.3,4.2C9.3,4.2,9.3,4.2,9.3,4.2z"/>
	<path class="st1" d="M8.4,4.1C8.4,4.1,8.4,4.1,8.4,4.1C8.4,4.1,8.4,4.2,8.4,4.1C8.4,4.2,8.4,4.2,8.4,4.2v0c0,0,0,0,0,0
		c0,0,0,0,0.1,0c0,0,0,0,0.1,0C8.5,4.2,8.5,4.2,8.4,4.1L8.4,4.1C8.5,4.2,8.5,4.1,8.4,4.1C8.5,4.1,8.5,4.1,8.4,4.1z"/>
	<path class="st1" d="M8.5,4.7C8.5,4.6,8.5,4.6,8.5,4.7c-0.1,0-0.1,0-0.1,0c0,0,0,0,0,0.1c0,0,0,0,0,0c0,0,0,0,0,0.1c0,0,0,0,0.1,0
		c0,0,0,0,0.1,0C8.5,4.8,8.6,4.7,8.5,4.7L8.5,4.7C8.6,4.7,8.5,4.7,8.5,4.7z"/>
	<path class="st1" d="M8.7,4.7C8.7,4.7,8.7,4.7,8.7,4.7C8.7,4.7,8.7,4.7,8.7,4.7C8.7,4.8,8.7,4.8,8.7,4.8c0,0,0,0,0.1,0
		c0,0,0,0,0.1,0C8.8,4.8,8.8,4.8,8.7,4.7L8.7,4.7C8.8,4.7,8.8,4.7,8.7,4.7C8.8,4.7,8.8,4.7,8.7,4.7z"/>
	<path class="st2" d="M8.4,4.8C8.4,4.8,8.4,4.8,8.4,4.8L8.3,4.7c0,0,0,0,0,0.1c0,0,0,0-0.1,0L8.4,4.8c0.1,0,0.2,0,0.3,0
		c0,0,0,0-0.1,0c0,0,0,0,0-0.1h0c0,0,0,0,0,0C8.5,4.8,8.5,4.8,8.4,4.8C8.4,4.8,8.4,4.8,8.4,4.8z"/>
	<path class="st1" d="M9.2,4.6C9.2,4.6,9.2,4.6,9.2,4.6C9.2,4.7,9.2,4.7,9.2,4.6c-0.1,0.1-0.1,0.1,0,0.1c0,0,0,0,0,0c0,0,0,0,0,0
		C9.3,4.7,9.3,4.7,9.2,4.6C9.3,4.7,9.3,4.7,9.2,4.6L9.2,4.6C9.3,4.6,9.3,4.6,9.2,4.6z"/>
	<path class="st1" d="M9,4.7C9,4.6,9,4.6,9,4.7c-0.1,0-0.1,0-0.1,0c0,0,0,0,0,0.1v0c0,0,0,0,0,0c0,0,0,0,0.1,0c0,0,0,0,0.1,0l0,0
		C9.1,4.8,9.1,4.7,9,4.7C9.1,4.7,9.1,4.7,9,4.7C9.1,4.7,9.1,4.7,9,4.7z"/>
	<path class="st2" d="M9,4.8C8.9,4.8,8.9,4.8,9,4.8C8.9,4.8,8.9,4.8,9,4.8L8.8,4.7c0,0,0,0,0,0.1h0c0,0,0,0-0.1,0L9,4.8z"/>
	<path class="st2" d="M9.3,4.8L9.3,4.8c0.1,0,0.1,0,0.2-0.1l0,0C9.4,4.7,9.4,4.7,9.3,4.8l0.1-0.1L9.3,4.8L9.3,4.8
		C9.4,4.7,9.3,4.7,9.3,4.8z"/>
	<path class="st2" d="M9.2,4.8C9.2,4.7,9.2,4.7,9.2,4.8L9.2,4.8c-0.1,0-0.1,0-0.1,0l0,0C9.1,4.8,9.2,4.8,9.2,4.8
		C9.2,4.8,9.2,4.8,9.2,4.8z"/>
	<path class="st2" d="M9.9,3.2L9.9,3.2L9.9,3.3c0,0,0,0,0,0l0,0H9.7v0.1h0.1c0,0,0,0,0,0c0,0,0,0,0,0v0.2l0,0l0,0l0-0.2c0,0,0,0,0,0
		c0,0,0,0,0,0H10V3.3H9.9c0,0,0,0,0,0c0,0,0,0,0,0V3.2z"/>
	<path class="st2" d="M9.9,3.6L9.9,3.6L9.9,3.6L9.9,3.6c-0.1,0-0.2,0-0.2,0.1c0,0-0.1,0.1-0.1,0.2c0,0.1,0,0.1,0.1,0.2l0.1,0
		c0,0,0,0,0,0c0,0,0,0,0.1,0c0,0,0.1,0,0.1,0c0,0,0,0,0,0l0.1,0c0,0,0.1-0.1,0.1-0.2c0-0.1,0-0.1-0.1-0.2C10,3.6,10,3.6,9.9,3.6z"/>
	<path class="st1" d="M10,4L10,4C10,3.9,9.9,3.9,10,4C9.9,3.9,9.9,3.9,10,4C9.9,3.9,9.8,3.9,9.8,3.9h0c0,0,0,0,0,0l0,0l0,0
		c0,0,0,0,0,0l0,0C9.9,4,9.9,4,10,4C9.9,4,9.9,4,10,4C9.9,4,9.9,4,10,4C9.9,4,10,4,10,4L10,4z"/>
	<path class="st2" d="M10,4L10,4L10,4C10,4,10,4,10,4L10,4c0.1,0.1,0.1,0.2,0.1,0.4l0,0.2c0,0.1,0,0.2,0,0.3l0,0
		c0,0.2-0.1,0.4-0.1,0.6c0,0,0,0,0,0.1c0,0,0,0,0,0.1c0,0,0,0,0,0h0c0,0,0,0,0,0c0,0,0,0,0-0.1c0,0,0,0,0-0.1l0-0.1l0,0
		c0-0.1-0.1-0.3-0.1-0.4l0,0c0-0.1,0-0.2,0-0.3l0-0.1c0,0,0-0.1,0-0.2c0-0.2,0-0.3,0.1-0.3l0,0l0,0v0c0,0,0,0,0,0l0,0c0,0,0,0-0.1,0
		c0,0-0.1,0.1-0.1,0.2l0,0l0,0.1l0,0.2c0,0.1,0,0.1,0,0.1v0l0,0.2c0,0.1,0,0.2,0.1,0.3c0,0.2,0.1,0.4,0.2,0.6h0.1
		c0.1-0.3,0.2-0.6,0.2-0.8l0-0.2c0,0,0,0,0,0v0l0-0.3l0-0.1l0,0C10.2,4.1,10.1,4,10,4L10,4z"/>
	<path class="st2" d="M10,4C10,4,10,4,10,4L10,4C9.9,4.1,9.9,4.1,10,4c-0.1,0.1-0.1,0-0.2,0l0,0l0,0c-0.1,0-0.1,0.1-0.1,0.3v0
		c0,0,0,0.1,0,0.1v0c0,0,0,0,0,0l0,0c0,0.1,0,0.2,0,0.3l0,0c0,0,0,0.2,0.1,0.4c0,0,0,0,0,0c0,0,0,0,0.1,0c0,0,0.1,0,0.1,0l0,0
		l0.1-0.4c0-0.1,0-0.2,0-0.3l0,0l0-0.2l0,0C10.1,4.2,10.1,4.1,10,4L10,4z M10,4.2C10,4.2,10,4.3,10,4.2c0,0.1-0.1,0.1-0.1,0.1
		c0,0-0.1,0-0.1,0c0,0,0,0,0-0.1c0,0,0-0.1,0-0.1c0,0,0,0,0.1,0C9.9,4.1,9.9,4.1,10,4.2C10,4.2,10,4.2,10,4.2L10,4.2z M9.8,4.4
		C9.8,4.4,9.8,4.4,9.8,4.4C9.8,4.4,9.8,4.4,9.8,4.4C9.8,4.4,9.8,4.4,9.8,4.4C9.8,4.3,9.9,4.3,9.8,4.4c0.1-0.1,0.2-0.1,0.2,0
		c0,0,0,0,0,0c0,0,0,0,0,0.1v0l0,0c0,0,0,0,0,0c0,0,0,0-0.1,0c0,0-0.1,0-0.1,0C9.8,4.5,9.8,4.5,9.8,4.4L9.8,4.4L9.8,4.4
		C9.8,4.4,9.8,4.4,9.8,4.4z M9.8,4.6C9.8,4.6,9.9,4.6,9.8,4.6c0.1,0,0.1,0,0.2,0c0,0,0,0,0,0.1c0,0,0,0.1,0,0.1c0,0,0,0-0.1,0
		c0,0-0.1,0-0.1,0C9.8,4.7,9.8,4.7,9.8,4.6C9.8,4.6,9.8,4.6,9.8,4.6z M9.8,4.8L9.8,4.8C9.8,4.8,9.9,4.8,9.8,4.8c0.1,0,0.1,0,0.2,0v0
		c0,0,0,0,0,0c0,0,0,0,0,0l0,0c0,0,0,0.1,0,0.1c0,0,0,0-0.1,0c0,0,0,0,0.1,0c0,0,0,0,0,0.1c0,0,0,0.1,0,0.1c0,0,0,0-0.1,0
		c0,0-0.1,0-0.1,0c0,0,0,0,0-0.1c0,0,0,0,0-0.1c0,0,0,0,0.1,0c0,0,0,0-0.1,0C9.8,4.9,9.8,4.9,9.8,4.8L9.8,4.8
		C9.8,4.9,9.8,4.9,9.8,4.8z"/>
	<path class="st0" d="M10,4.3C10,4.3,10,4.2,10,4.3L10,4.3c0-0.1,0-0.1,0-0.2c0,0,0,0-0.1,0c0,0-0.1,0-0.1,0c0,0,0,0,0,0.1
		c0,0,0,0.1,0,0.1C9.8,4.3,9.9,4.3,10,4.3C9.9,4.3,9.9,4.3,10,4.3z M10,4.2L10,4.2C10,4.2,9.9,4.2,10,4.2C9.9,4.3,9.9,4.3,10,4.2
		C9.9,4.3,9.8,4.3,9.8,4.3c0,0,0,0,0-0.1c0,0,0,0,0,0C9.8,4.1,9.9,4.1,10,4.2C9.9,4.1,9.9,4.1,10,4.2C9.9,4.2,10,4.2,10,4.2z"/>
	<path class="st1" d="M10,4.2L10,4.2C10,4.2,9.9,4.2,10,4.2C9.9,4.1,9.9,4.1,10,4.2C9.9,4.1,9.8,4.1,9.8,4.2c0,0,0,0,0,0
		c0,0,0,0,0,0.1C9.8,4.3,9.9,4.3,10,4.2C9.9,4.3,9.9,4.3,10,4.2C9.9,4.2,10,4.2,10,4.2z"/>
	<path class="st0" d="M9.8,4.4C9.8,4.4,9.8,4.4,9.8,4.4C9.8,4.4,9.8,4.4,9.8,4.4L9.8,4.4l0,0.1c0,0,0,0,0,0c0,0,0,0,0.1,0
		c0,0,0.1,0,0.1,0c0,0,0,0,0,0l0,0v0c0,0,0,0,0-0.1c0,0,0,0,0,0C9.9,4.3,9.9,4.3,9.8,4.4C9.9,4.3,9.8,4.3,9.8,4.4
		C9.8,4.4,9.8,4.4,9.8,4.4C9.8,4.4,9.8,4.4,9.8,4.4z M9.8,4.4L9.8,4.4C9.8,4.4,9.8,4.4,9.8,4.4C9.9,4.4,9.9,4.4,9.8,4.4
		c0.1,0,0.1,0,0.1,0c0,0,0,0,0,0c0,0,0,0,0,0v0c0,0,0,0,0,0.1c0,0,0,0,0,0C9.9,4.5,9.8,4.5,9.8,4.4C9.8,4.5,9.8,4.5,9.8,4.4L9.8,4.4
		C9.8,4.4,9.8,4.4,9.8,4.4z"/>
	<path class="st1" d="M9.8,4.4L9.8,4.4C9.8,4.4,9.8,4.4,9.8,4.4L9.8,4.4c0,0.1,0,0.1,0,0.1c0,0,0,0,0.1,0c0,0,0,0,0,0c0,0,0,0,0-0.1
		v0c0,0,0,0,0,0c0,0,0,0,0,0C9.9,4.4,9.9,4.4,9.8,4.4C9.9,4.4,9.9,4.4,9.8,4.4C9.8,4.4,9.8,4.4,9.8,4.4z"/>
	<path class="st0" d="M9.9,4.6C9.9,4.6,9.8,4.6,9.9,4.6C9.8,4.6,9.8,4.6,9.8,4.7c0,0,0,0.1,0,0.1c0,0,0,0,0.1,0c0,0,0.1,0,0.1,0
		c0,0,0,0,0-0.1C10,4.6,10,4.6,9.9,4.6C9.9,4.6,9.9,4.6,9.9,4.6z M9.8,4.7C9.8,4.7,9.8,4.6,9.8,4.7C9.8,4.6,9.9,4.6,9.8,4.7
		c0.1-0.1,0.1-0.1,0.1-0.1c0,0,0,0,0,0.1c0,0,0,0,0,0.1C9.9,4.7,9.9,4.7,9.8,4.7C9.9,4.7,9.8,4.7,9.8,4.7C9.8,4.7,9.8,4.7,9.8,4.7z"
		/>
	<path class="st1" d="M9.8,4.6C9.8,4.6,9.8,4.7,9.8,4.6c0,0.1,0,0.1,0,0.1c0,0,0,0,0.1,0c0,0,0,0,0,0c0,0,0,0,0-0.1c0,0,0,0,0-0.1
		C9.9,4.6,9.9,4.6,9.8,4.6C9.9,4.6,9.8,4.6,9.8,4.6z"/>
	<path class="st0" d="M9.8,4.8L9.8,4.8C9.8,4.9,9.8,4.9,9.8,4.8L9.8,4.8c0,0.1,0,0.1,0,0.1c0,0,0,0,0.1,0c0,0,0,0-0.1,0
		c0,0,0,0,0,0.1c0,0,0,0,0,0.1c0,0,0,0,0.1,0c0,0,0.1,0,0.1,0c0,0,0,0,0-0.1c0,0,0,0,0-0.1c0,0,0,0-0.1,0c0,0,0,0,0.1,0
		c0,0,0,0,0-0.1l0,0c0,0,0,0,0,0c0,0,0,0,0,0v0C9.9,4.8,9.9,4.8,9.8,4.8C9.9,4.8,9.8,4.8,9.8,4.8z M9.8,4.8L9.8,4.8
		C9.9,4.8,9.9,4.8,9.8,4.8C9.9,4.8,9.9,4.8,9.8,4.8C9.9,4.8,9.9,4.8,9.8,4.8c0.1,0,0.1,0,0.1,0l0,0C9.9,4.9,9.9,4.9,9.8,4.8
		C9.9,4.9,9.9,5,9.9,5C9.9,5,9.9,4.9,9.8,4.8C9.8,4.9,9.8,4.9,9.8,4.8L9.8,4.8C9.8,4.9,9.8,4.9,9.8,4.8z M9.8,5C9.9,5,9.9,5,9.8,5
		C9.9,5,9.9,5,9.8,5c0.1,0,0.1,0,0.1,0C9.9,5.1,9.9,5.1,9.8,5c0.1,0.1,0.1,0.1,0,0.1C9.9,5.2,9.9,5.1,9.8,5C9.8,5.1,9.8,5.1,9.8,5
		C9.8,5.1,9.8,5.1,9.8,5z"/>
	<path class="st1" d="M9.8,4.8L9.8,4.8C9.8,4.9,9.8,4.9,9.8,4.8L9.8,4.8C9.8,4.9,9.8,4.9,9.8,4.8c0,0.1,0,0.1,0,0.1
		C9.9,5,9.9,4.9,9.8,4.8c0.1,0.1,0.1,0.1,0.1,0.1L9.8,4.8C9.9,4.9,9.9,4.9,9.8,4.8C9.9,4.8,9.9,4.8,9.8,4.8C9.9,4.8,9.9,4.8,9.8,4.8
		C9.9,4.8,9.9,4.8,9.8,4.8z"/>
	<path class="st1" d="M9.9,5C9.9,5,9.9,5,9.9,5C9.8,5.1,9.8,5.1,9.9,5c-0.1,0.1-0.1,0.1,0,0.1c0,0,0,0,0,0c0,0,0,0,0,0
		C9.9,5.1,9.9,5.1,9.9,5C9.9,5.1,9.9,5.1,9.9,5C9.9,5,9.9,5,9.9,5z"/>
	<path class="st1" d="M10.5,4.1C10.5,4.1,10.5,4.1,10.5,4.1C10.4,4.2,10.4,4.2,10.5,4.1c-0.1,0.1-0.1,0.1-0.1,0.1c0,0,0,0,0,0
		c0,0,0,0,0,0c0,0,0,0,0.1,0C10.6,4.2,10.6,4.2,10.5,4.1L10.5,4.1C10.6,4.2,10.6,4.2,10.5,4.1C10.5,4.1,10.5,4.1,10.5,4.1z"/>
	<path class="st1" d="M10.3,4.2L10.3,4.2l0,0.1h0c0,0,0,0,0.1,0C10.3,4.3,10.3,4.3,10.3,4.2C10.3,4.3,10.3,4.3,10.3,4.2L10.3,4.2
		C10.3,4.3,10.3,4.3,10.3,4.2C10.3,4.2,10.3,4.2,10.3,4.2z"/>
	<path class="st1" d="M9.4,4.3C9.4,4.3,9.4,4.3,9.4,4.3C9.4,4.3,9.4,4.3,9.4,4.3L9.4,4.3C9.4,4.3,9.4,4.3,9.4,4.3
		C9.5,4.4,9.5,4.4,9.4,4.3L9.4,4.3L9.4,4.3L9.4,4.3C9.5,4.2,9.5,4.2,9.4,4.3C9.4,4.2,9.4,4.2,9.4,4.3C9.4,4.3,9.4,4.3,9.4,4.3z"/>
	<path class="st1" d="M9.5,4.5C9.5,4.5,9.4,4.5,9.5,4.5C9.4,4.6,9.4,4.6,9.5,4.5L9.5,4.5L9.5,4.5l0,0.1c0,0,0,0,0,0c0,0,0,0,0,0
		c0,0,0,0,0,0L9.5,4.5C9.5,4.5,9.5,4.5,9.5,4.5z"/>
	<path class="st4" d="M9.6,4.9L9.6,4.9C8.8,5,8.3,5.2,8.2,5.4l0,0h0l0.1,0.1c0,0,0,0,0,0l0.1,0.1c0,0.1,0.1,0.2,0.2,0.3l0,0
		c0,0,0,0,0.1,0c0,0,0,0,0,0.1c0,0,0,0.1,0,0.1c0,0,0,0,0,0h0l0.1-0.1c0,0,0,0,0.1,0c0,0,0,0,0.1,0l0.1,0.3c0,0,0,0,0,0.1
		c0,0,0,0-0.1,0c-0.1,0-0.1,0-0.1,0c0,0,0,0,0,0c0,0,0,0,0,0l0,0C8.8,6.7,8.9,6.7,9,6.7c0.1,0,0.1,0,0.1-0.1c0,0,0-0.1,0.1-0.2l0,0
		h0c0,0-0.1,0-0.1,0c0,0,0,0-0.1,0h0c0,0,0-0.1,0-0.1h0c0,0,0,0,0,0c0,0,0,0,0-0.1c0,0,0-0.1,0.1-0.1c0,0,0.1,0,0.1,0c0,0,0,0,0,0
		l0,0c0,0,0.1,0,0.1,0.1c0,0.1,0,0.1-0.1,0.1l0,0c0.1,0.1,0.2,0.2,0.3,0.2c0.1,0,0.1-0.1,0.2-0.3c0,0,0,0,0,0c0,0-0.1,0-0.1,0
		c-0.1,0-0.1,0-0.1,0V6c0-0.1,0-0.1,0.1,0l0.1,0c0,0,0,0,0,0c0,0,0,0,0,0c0,0,0,0,0,0c0,0,0,0,0,0c0-0.1-0.1-0.1-0.1-0.1v0
		c0,0,0,0,0,0c0,0,0-0.1,0-0.1c0,0,0,0,0,0c0,0,0,0,0,0h0.1C9.7,5.5,9.7,5.3,9.6,5.1C9.6,5.1,9.6,5,9.6,4.9z"/>
	<path class="st1" d="M10.4,4.6C10.4,4.6,10.4,4.6,10.4,4.6C10.3,4.5,10.3,4.5,10.4,4.6c-0.1-0.1-0.1-0.1-0.1-0.1l0,0.1
		C10.3,4.7,10.3,4.7,10.4,4.6C10.3,4.7,10.3,4.7,10.4,4.6C10.4,4.6,10.4,4.6,10.4,4.6L10.4,4.6L10.4,4.6z"/>
	<path class="st2" d="M10.4,4.7L10.4,4.7L10.4,4.7c-0.1,0-0.1,0-0.1,0l0,0C10.3,4.7,10.4,4.7,10.4,4.7L10.4,4.7
		C10.4,4.7,10.4,4.7,10.4,4.7L10.4,4.7z"/>
	<path class="st1" d="M10.5,4.6L10.5,4.6L10.5,4.6C10.5,4.7,10.5,4.7,10.5,4.6L10.5,4.6c0,0.1,0,0.1,0,0.1
		C10.5,4.8,10.6,4.8,10.5,4.6c0.1,0.1,0.1,0.1,0.1,0C10.6,4.7,10.6,4.7,10.5,4.6C10.6,4.6,10.5,4.6,10.5,4.6
		C10.5,4.6,10.5,4.6,10.5,4.6z"/>
	<path class="st4" d="M10.2,4.9L10.2,4.9c-0.1,0.2-0.1,0.5-0.3,0.8h0.1c0,0,0,0,0,0c0,0,0,0,0,0.1c0,0,0,0,0,0v0c0,0,0,0.1-0.1,0.1
		l0,0l0,0c0,0,0,0,0,0c0,0,0,0,0,0l0,0l0.1,0h0c0.1,0,0.1,0,0.1,0v0.4c0,0.1,0,0.1-0.1,0h0c-0.1,0-0.1,0-0.1,0c0,0,0,0,0,0
		c0,0.2,0.1,0.3,0.2,0.3c0.1,0,0.2-0.1,0.3-0.2l0,0c-0.1,0-0.1-0.1-0.1-0.1c0,0,0-0.1,0.1-0.1c0,0,0,0,0,0c0,0,0,0,0,0h0
		c0,0,0.1,0,0.1,0c0,0,0.1,0,0.1,0.1c0,0,0,0,0,0.1c0,0,0,0,0,0c0,0,0,0.1,0,0.1c0,0,0,0-0.1,0c0,0-0.1,0-0.1,0h0l0,0
		c0,0.1,0,0.2,0.1,0.2c0,0,0.1,0.1,0.1,0.1c0.1,0,0.1,0,0.2-0.1l0,0c0,0,0,0,0,0v0c0,0,0,0-0.1,0c0,0-0.1,0-0.1,0c0,0,0,0,0-0.1h0
		L11,6.2c0,0,0,0,0.1,0c0,0,0,0,0.1,0c0,0,0.1,0.1,0.1,0.1h0c0,0,0,0,0,0c0,0,0,0,0,0c0-0.1,0-0.1,0-0.1c0,0,0-0.1,0-0.1
		c0,0,0,0,0.1,0l0,0c0.1-0.1,0.1-0.2,0.2-0.3l0.1-0.1l0-0.1h0l0-0.1h0l0,0C11.5,5.2,11,5,10.2,4.9z"/>
	<path class="st1" d="M11.4,4.1C11.4,4.1,11.4,4.1,11.4,4.1c-0.1,0-0.1,0-0.1,0c0,0,0,0,0,0.1v0c0,0,0,0,0,0.1c0,0,0,0,0.1,0
		c0,0,0,0,0.1,0V4.1L11.4,4.1C11.4,4.2,11.4,4.2,11.4,4.1C11.4,4.2,11.4,4.1,11.4,4.1z"/>
	<path class="st1" d="M11.1,4.1L11.1,4.1C11.1,4.1,11.1,4.1,11.1,4.1C11.1,4.1,11.1,4.1,11.1,4.1C11.1,4.1,11,4,11,4c0,0,0,0-0.1,0
		c0,0,0,0,0,0.1c0,0,0,0,0,0c0,0,0,0,0,0C11,4.2,11,4.2,11.1,4.1C11,4.2,11.1,4.2,11.1,4.1C11.1,4.2,11.1,4.2,11.1,4.1z"/>
	<path class="st1" d="M11.5,4.3C11.5,4.3,11.5,4.3,11.5,4.3C11.5,4.3,11.5,4.3,11.5,4.3c0,0.1,0.1,0.1,0.1,0.1c0,0,0,0,0.1,0l0,0
		c0,0,0,0,0,0c0,0,0,0,0-0.1C11.6,4.2,11.6,4.2,11.5,4.3C11.6,4.2,11.5,4.2,11.5,4.3L11.5,4.3z"/>
	<path class="st1" d="M10.7,4.1C10.7,4.1,10.7,4.1,10.7,4.1c0,0.1,0,0.1,0,0.1l0,0c0,0,0,0,0.1,0c0,0,0,0,0.1,0v0c0,0,0,0,0,0v0
		c0,0,0,0,0-0.1C10.8,4.1,10.8,4.1,10.7,4.1C10.7,4.1,10.7,4.1,10.7,4.1z"/>
	<path class="st1" d="M11.1,4.7L11.1,4.7C11.1,4.7,11.1,4.7,11.1,4.7c-0.1,0-0.1,0-0.1,0c0,0,0,0,0,0.1v0c0,0,0,0,0,0.1
		c0,0,0,0,0.1,0c0,0,0,0,0.1,0C11.1,4.8,11.1,4.8,11.1,4.7C11.1,4.7,11.1,4.7,11.1,4.7z"/>
	<path class="st1" d="M10.8,4.6C10.8,4.6,10.7,4.6,10.8,4.6C10.7,4.7,10.7,4.7,10.8,4.6L10.8,4.6c-0.1,0.1-0.1,0.1-0.1,0.1v0
		c0,0,0,0,0.1,0c0,0,0,0,0.1,0C10.9,4.8,10.9,4.7,10.8,4.6L10.8,4.6C10.9,4.7,10.9,4.7,10.8,4.6C10.8,4.6,10.8,4.6,10.8,4.6z"/>
	<path class="st2" d="M10.7,4.8C10.7,4.8,10.7,4.8,10.7,4.8c-0.1,0-0.1-0.1-0.1-0.1l0,0c0,0,0,0,0,0.1c0,0,0,0,0,0L10.7,4.8z"/>
	<path class="st2" d="M11,4.8C11,4.8,11,4.8,11,4.8C10.9,4.8,10.9,4.8,11,4.8l-0.1-0.1c0,0,0,0,0,0.1c0,0,0,0-0.1,0L11,4.8z"/>
	<path class="st1" d="M11.4,4.7C11.3,4.6,11.3,4.6,11.4,4.7c-0.1,0-0.1,0-0.1,0c0,0,0,0,0,0.1c0,0,0,0,0,0v0c0,0,0,0,0,0
		c0,0,0,0,0.1,0c0,0,0,0,0.1,0C11.4,4.8,11.4,4.7,11.4,4.7L11.4,4.7C11.4,4.7,11.4,4.7,11.4,4.7z"/>
	<path class="st2" d="M11.4,4.8C11.4,4.8,11.3,4.8,11.4,4.8c-0.1,0-0.1,0-0.2,0c0,0,0,0,0,0h0c0,0,0,0,0,0.1c0,0,0,0-0.1,0
		C11.1,4.8,11.2,4.8,11.4,4.8l0.2,0c0,0,0,0-0.1,0c0,0,0,0,0-0.1L11.4,4.8C11.4,4.8,11.4,4.8,11.4,4.8z"/>
	<path class="st2" d="M10.6,6.3C10.6,6.3,10.6,6.3,10.6,6.3L10.6,6.3L10.6,6.3C10.5,6.3,10.5,6.3,10.6,6.3
		C10.5,6.3,10.5,6.3,10.6,6.3c-0.1,0-0.1,0-0.1,0c0,0,0,0.1,0,0.1L10.6,6.3C10.5,6.4,10.5,6.4,10.6,6.3C10.5,6.4,10.5,6.4,10.6,6.3
		c0,0.1,0,0.1,0,0.1c0,0,0,0,0,0c0,0,0,0,0,0c-0.2,0.2-0.3,0.3-0.4,0.3C10,6.6,10,6.5,9.9,6.3c0,0,0,0,0,0c0,0,0,0,0,0
		c0,0,0.1,0,0.1,0V6l0,0C10,6,10,6,10,6c0,0,0,0,0,0c0,0,0,0,0,0c0,0,0,0,0-0.1c0,0,0.1-0.1,0.1-0.1H9.7c0,0,0,0.1,0.1,0.1
		c0,0,0,0,0,0.1c0,0,0,0,0,0c0,0,0,0,0,0c0,0,0,0-0.1,0h0l0,0v0.3c0.1,0,0.1,0,0.1,0c0,0,0,0,0,0v0c0,0.2-0.1,0.3-0.2,0.3
		c-0.1,0-0.2-0.1-0.4-0.3c0,0,0,0,0,0c0,0,0,0,0,0c0,0,0,0,0,0c0,0,0,0,0,0c0,0,0,0,0,0l0.1,0c0,0,0.1,0,0-0.1c0,0,0,0-0.1,0
		c0,0,0,0-0.1,0c0,0,0,0,0,0h0c0,0,0,0,0,0c0,0,0,0,0,0c0,0,0,0,0-0.1c0,0,0,0-0.1,0c0,0,0,0,0,0.1c0,0,0,0,0,0.1c0,0,0,0,0,0
		c0,0,0,0,0,0c0,0,0,0,0,0c0,0,0,0,0,0c0,0,0,0-0.1,0c0,0,0,0,0,0.1c0,0,0,0,0,0v0c0,0,0,0,0.1,0c0,0,0,0,0,0l0,0h0c0,0,0,0,0,0
		c0,0,0,0,0,0c0,0.1,0,0.2-0.1,0.3c0,0.1-0.1,0.1-0.2,0.1c-0.1,0-0.1,0-0.2-0.1l-0.1,0c0,0,0,0,0,0c0,0,0,0,0,0c0,0,0,0,0.1,0
		L8.6,6.2c0,0-0.1,0.1-0.1,0.1c0,0,0,0,0,0c0,0,0,0,0-0.1h0c0,0,0-0.1,0-0.1L8.3,6.3l0.1,0c0,0,0,0,0.1,0c0,0,0,0,0,0h0
		c0,0,0,0-0.1,0l0.1,0.3l0,0c0,0,0,0,0,0c0,0,0,0,0,0c0,0,0,0,0,0l0,0.1C8.6,6.9,8.5,7,8.4,7C8.4,7,8.2,7,8.1,7h0L8,7c0,0,0,0,0,0
		c0,0,0,0,0,0c0,0,0,0,0,0c0,0,0,0,0,0c0,0,0,0,0,0c0,0,0,0,0.1,0c0,0,0,0,0-0.1c0,0,0,0-0.1,0c0,0,0,0-0.1,0.1c0,0,0,0,0,0l0,0
		c0,0,0,0,0,0c0,0,0,0,0,0c0,0,0-0.1,0-0.1c0,0,0,0-0.1,0c0,0,0,0,0,0.1c0,0,0,0,0.1,0c0,0,0,0,0,0c0,0,0,0,0,0c0,0,0,0,0,0
		c0,0,0,0,0,0c0,0,0,0-0.1,0c0,0,0,0,0,0.1c0,0,0,0,0,0c0,0,0,0,0,0c0,0,0,0,0,0l0,0c0,0,0,0,0,0l0,0c0,0,0,0,0,0c0,0,0,0,0,0
		c0,0.2,0,0.3,0,0.4c-0.1,0.1-0.2,0.1-0.3,0l0,0c0,0,0,0,0-0.1c0,0,0,0,0,0c0,0,0,0,0,0c0,0,0,0,0,0l0,0l0,0C7.6,7.1,7.5,7,7.5,7
		c0,0,0,0.1,0,0.1c0,0,0,0,0,0l0,0c0,0,0,0,0,0c0,0,0,0,0,0c0,0,0,0,0,0l0,0l0-0.1c0,0,0-0.1,0-0.1l0,0h0c0,0,0,0,0,0c0,0,0,0,0,0
		l0,0h0l0,0c0,0-0.1,0-0.1,0h0l0,0v0l0,0c0,0,0,0,0,0c0,0,0,0,0,0.1l0,0c0,0,0,0,0,0c0,0,0.1,0,0.1,0h0c0,0,0,0,0-0.1c0,0,0,0,0,0
		c0,0,0,0,0,0l0,0c0,0,0,0,0,0c0,0,0,0,0,0c0,0,0,0,0,0c0,0,0,0,0,0l0,0c0,0,0,0.1,0.1,0.1l0,0v0l0,0.1c0,0,0,0,0.1,0c0,0,0,0,0.1,0
		c0,0,0,0,0,0c0,0,0,0,0,0c0,0,0,0,0,0c0,0,0,0,0,0v0c0,0,0,0,0,0c0,0,0,0,0,0c0,0,0,0,0,0v0c0,0,0,0,0,0v0l0,0l0,0
		c0.1,0.1,0.3,0.1,0.3,0.1c0,0,0,0,0.1,0c0,0,0,0,0,0c0,0,0-0.1,0.1-0.1c0-0.1,0-0.1,0.1-0.2c0,0,0,0,0,0c0,0,0,0,0,0c0,0,0,0,0,0
		c0.1,0,0.1,0,0.2,0C8.4,7.1,8.5,7,8.6,7c0,0,0-0.1,0.1-0.1c0,0,0-0.1,0-0.1c0,0,0,0,0,0c0,0,0,0,0,0c0,0,0,0,0,0
		c0.1,0.1,0.2,0.1,0.2,0.1l0.2,0l0,0c0,0,0.1-0.1,0.1-0.1c0,0,0,0,0,0c0,0,0,0,0,0c0,0,0,0,0,0c0.1,0.1,0.3,0.1,0.4,0.1
		c0.1,0,0.2-0.1,0.2-0.2c0,0,0,0,0,0c0,0,0,0,0,0c0,0,0,0,0,0c0,0.1,0.1,0.2,0.2,0.2c0.1,0,0.2,0,0.4-0.1l0,0c0,0,0,0,0,0
		c0,0,0,0,0,0c0,0.1,0.1,0.1,0.1,0.1l0,0l0.2,0c0.1,0,0.1-0.1,0.2-0.1c0,0,0,0,0,0c0,0,0,0,0,0c0,0,0,0,0,0l0,0.1c0,0,0,0.1,0.1,0.1
		c0.1,0,0.2,0.1,0.3,0.1c0.1,0,0.1,0,0.2,0c0,0,0,0,0,0c0,0,0,0,0,0c0,0,0,0,0,0c0,0.1,0,0.2,0.1,0.2l0.1,0.1c0,0,0,0,0,0
		c0,0,0,0,0.1,0c0.1,0,0.2,0,0.3-0.1c0,0,0,0,0,0l0,0c0,0,0,0,0,0v0l0,0c0,0,0,0,0,0c0,0,0,0,0,0c0,0,0,0,0,0c0,0,0,0,0,0
		c0,0,0,0,0,0c0,0,0,0,0,0l0,0c0,0,0,0,0.1,0c0,0,0,0,0.1,0l0-0.1c0,0,0,0,0,0l0,0c0,0,0-0.1,0.1-0.1l0,0c0,0,0,0,0,0c0,0,0,0,0,0
		c0,0,0,0,0,0l0,0v0c0,0,0,0.1,0,0.1c0,0,0.1,0,0.1,0c0,0,0-0.1,0-0.1l0,0v0l0,0c0,0-0.1,0-0.1,0l0,0h0l0,0h0l0,0c0,0,0,0,0,0l0,0
		c0,0,0,0,0,0.1l0,0.1l0,0c0,0,0,0,0,0c0,0,0,0,0,0h0c0,0,0,0,0,0c0,0,0,0,0,0c0-0.1,0-0.1,0-0.1c-0.1,0.1-0.1,0.2-0.2,0.3h0l0,0
		l0,0c0,0,0,0,0,0c0,0,0,0,0,0.1l0,0l0,0c-0.2,0.1-0.3,0.1-0.3,0c-0.1-0.1-0.1-0.2,0-0.4c0,0,0,0,0,0c0,0,0,0,0,0c0,0,0,0,0,0
		c0,0,0,0,0,0l0,0c0,0,0,0,0,0c0,0,0,0,0.1,0h0c0,0,0,0,0,0c0,0,0,0,0-0.1c0,0,0,0-0.1,0c0,0,0,0,0,0l0,0c0,0,0,0,0,0c0,0,0,0,0,0
		c0,0,0,0,0.1,0c0,0,0,0,0-0.1c0,0,0,0-0.1,0c0,0,0,0,0,0.1c0,0,0,0,0,0l0,0c0,0,0,0,0,0c0,0,0,0,0,0c0,0,0,0,0-0.1c0,0,0,0-0.1,0
		c0,0,0,0.1,0,0.1c0,0,0,0,0,0c0,0,0,0,0,0c0,0,0,0,0,0c0,0,0,0,0,0v0l0,0l-0.1,0h0c-0.1,0-0.2,0-0.3,0c-0.1,0-0.1-0.1-0.2-0.3v0
		l0-0.1c0,0,0,0,0,0c0,0,0,0,0,0h0c0,0,0,0,0,0l0,0l0.1-0.3c-0.1,0-0.1,0-0.1,0v0l0,0c0,0,0,0,0,0l0,0c0,0,0,0,0.1,0l0.1,0l-0.3-0.1
		l0,0.1c0,0,0,0,0,0.1c0,0,0,0,0,0c0,0,0,0-0.1-0.1L11,6.5c0,0,0,0,0,0l0,0c0,0,0.1,0,0.1,0h0c0,0,0,0,0,0c0,0,0,0,0,0h0l-0.1,0
		c-0.1,0.1-0.2,0.1-0.2,0.1c-0.1,0-0.1,0-0.2-0.1c0-0.1-0.1-0.1-0.1-0.3c0,0,0,0,0,0c0,0,0,0,0,0c0,0,0,0,0,0c0,0,0,0,0,0
		c0,0,0,0,0,0c0,0,0,0,0.1,0v0c0,0,0,0,0,0h0c0,0,0,0,0-0.1C10.7,6.3,10.7,6.3,10.6,6.3C10.6,6.3,10.6,6.3,10.6,6.3
		C10.6,6.3,10.6,6.3,10.6,6.3L10.6,6.3C10.6,6.3,10.6,6.3,10.6,6.3c0.1,0,0.1,0,0.1,0C10.7,6.2,10.7,6.2,10.6,6.3
		C10.6,6.2,10.6,6.2,10.6,6.3C10.5,6.2,10.5,6.2,10.6,6.3z M11.3,6.3C11.3,6.3,11.3,6.3,11.3,6.3c0,0,0,0.1,0,0.1c0,0,0,0,0,0.1
		c0,0,0,0,0,0v0c0,0,0,0,0,0c0,0,0,0,0,0c0,0-0.1,0-0.1,0c0,0,0,0-0.1,0.1c0,0,0,0,0,0h0c0,0,0,0,0,0c0,0,0,0,0,0c0,0,0-0.1,0-0.1
		l0-0.1c0,0,0,0,0,0v0c0,0,0,0,0,0c0,0,0,0,0,0C11.2,6.4,11.2,6.4,11.3,6.3C11.3,6.3,11.3,6.3,11.3,6.3L11.3,6.3
		C11.3,6.3,11.3,6.3,11.3,6.3L11.3,6.3z M9.7,6.1C9.7,6.1,9.8,6.1,9.7,6.1C9.8,6.1,9.8,6.1,9.7,6.1C9.8,6.1,9.8,6.1,9.7,6.1
		C9.9,6,9.9,6,9.9,6c0,0,0,0,0,0c0,0,0,0,0,0c0,0,0,0,0,0l0,0c0,0,0,0.1,0,0.1c0,0,0,0,0.1,0c0,0,0,0,0,0c0,0,0,0,0,0v0l0,0
		c0,0,0,0,0,0c0,0-0.1,0-0.1,0c0,0,0,0,0,0.1l0,0c0,0,0,0,0,0c0,0,0,0,0,0c0,0,0,0,0,0C9.9,6.2,9.9,6.2,9.7,6.1
		C9.8,6.2,9.8,6.2,9.7,6.1L9.7,6.1L9.7,6.1C9.8,6.1,9.8,6.1,9.7,6.1C9.8,6.1,9.7,6.1,9.7,6.1z M8.5,6.3C8.5,6.3,8.5,6.3,8.5,6.3
		C8.5,6.3,8.5,6.3,8.5,6.3C8.5,6.3,8.5,6.3,8.5,6.3C8.5,6.3,8.5,6.3,8.5,6.3C8.5,6.3,8.5,6.3,8.5,6.3c0.1,0.1,0.1,0.1,0.2,0.1
		c0,0,0,0,0,0c0,0,0,0,0,0c0,0,0,0,0,0c0,0,0,0,0,0c0,0,0,0.1,0,0.1c0,0,0,0.1,0,0.1c0,0,0,0,0,0c0,0,0,0,0,0c0,0,0,0,0,0
		c0,0,0,0,0,0c0,0,0,0-0.1-0.1c0,0,0,0-0.1,0c0,0,0,0,0,0c0,0,0,0,0,0c0,0,0,0,0,0c0,0,0,0,0,0C8.5,6.4,8.5,6.4,8.5,6.3
		C8.5,6.4,8.5,6.3,8.5,6.3z"/>
	<path class="st0" d="M11.3,6.3C11.3,6.3,11.3,6.3,11.3,6.3L11.3,6.3C11.3,6.3,11.3,6.3,11.3,6.3L11.3,6.3
		C11.3,6.3,11.3,6.3,11.3,6.3c-0.1,0.1-0.1,0.1-0.2,0.1c0,0,0,0,0,0c0,0,0,0,0,0v0c0,0,0,0,0,0l0,0.1c0,0,0,0,0,0.1c0,0,0,0,0,0
		c0,0,0,0,0,0h0c0,0,0,0,0,0c0,0,0,0,0.1-0.1c0,0,0,0,0.1,0c0,0,0,0,0,0c0,0,0,0,0,0v0c0,0,0,0,0,0C11.3,6.4,11.3,6.4,11.3,6.3
		C11.3,6.3,11.3,6.3,11.3,6.3z M11.2,6.4L11.2,6.4C11.2,6.4,11.2,6.4,11.2,6.4C11.2,6.4,11.2,6.4,11.2,6.4
		C11.2,6.4,11.3,6.4,11.2,6.4L11.2,6.4C11.3,6.4,11.3,6.4,11.2,6.4C11.3,6.4,11.3,6.4,11.2,6.4C11.2,6.4,11.2,6.4,11.2,6.4L11.2,6.4
		L11.2,6.4C11.2,6.4,11.2,6.4,11.2,6.4z"/>
	<path class="st4" d="M11.2,6.4L11.2,6.4C11.3,6.4,11.3,6.4,11.2,6.4C11.3,6.4,11.3,6.4,11.2,6.4L11.2,6.4
		C11.3,6.4,11.2,6.4,11.2,6.4C11.2,6.4,11.2,6.4,11.2,6.4C11.2,6.4,11.2,6.4,11.2,6.4L11.2,6.4C11.2,6.4,11.2,6.4,11.2,6.4L11.2,6.4
		C11.2,6.4,11.2,6.4,11.2,6.4z"/>
	<path class="st0" d="M9.8,6.1C9.8,6.1,9.7,6.1,9.8,6.1C9.7,6.1,9.8,6.1,9.8,6.1C9.8,6.1,9.8,6.1,9.8,6.1L9.8,6.1
		C9.8,6.2,9.8,6.2,9.8,6.1c0.1,0.1,0.1,0.1,0.1,0.1c0,0,0,0,0,0c0,0,0,0,0,0c0,0,0,0,0,0l0,0c0,0,0-0.1,0-0.1c0,0,0,0,0.1,0
		c0,0,0,0,0,0l0,0v0c0,0,0,0,0,0c0,0,0,0,0,0c0,0,0,0-0.1,0c0,0,0-0.1,0-0.1l0,0c0,0,0,0,0,0c0,0,0,0,0,0c0,0,0,0,0,0
		C9.9,6,9.9,6,9.8,6.1C9.8,6.1,9.8,6.1,9.8,6.1C9.8,6.1,9.8,6.1,9.8,6.1z M9.9,6.1C9.9,6.1,9.9,6.1,9.9,6.1C9.9,6.1,9.9,6.1,9.9,6.1
		c0.1,0,0.1,0,0.1,0L9.9,6.1C9.9,6.2,9.9,6.2,9.9,6.1c0,0.1,0,0.1,0,0.1C9.9,6.2,9.9,6.2,9.9,6.1L9.9,6.1L9.9,6.1
		C9.8,6.1,9.8,6.1,9.9,6.1z"/>
	<path class="st4" d="M9.9,6.1C9.9,6.1,9.9,6.1,9.9,6.1C9.8,6.1,9.8,6.1,9.9,6.1l0,0.1v0c0,0,0,0,0,0c0,0,0,0,0,0c0,0,0,0,0,0
		L9.9,6.1C9.9,6.1,9.9,6.1,9.9,6.1C9.9,6.1,9.9,6.1,9.9,6.1z"/>
	<path class="st0" d="M8.5,6.3C8.5,6.3,8.5,6.3,8.5,6.3c0,0,0,0.1,0,0.1c0,0,0,0,0,0.1c0,0,0,0,0,0c0,0,0,0,0,0c0,0,0,0,0,0
		c0,0,0,0,0,0c0,0,0.1,0,0.1,0c0,0,0,0,0.1,0.1c0,0,0,0,0,0c0,0,0,0,0,0c0,0,0,0,0,0c0,0,0,0,0,0c0,0,0-0.1,0-0.1c0,0,0,0,0-0.1
		c0,0,0,0,0,0c0,0,0,0,0,0c0,0,0,0,0,0c0,0,0,0,0,0C8.6,6.4,8.6,6.4,8.5,6.3C8.5,6.3,8.5,6.3,8.5,6.3C8.5,6.3,8.5,6.3,8.5,6.3
		C8.5,6.3,8.5,6.3,8.5,6.3C8.5,6.3,8.5,6.3,8.5,6.3z M8.5,6.4C8.5,6.4,8.6,6.4,8.5,6.4L8.5,6.4L8.5,6.4C8.6,6.4,8.6,6.4,8.5,6.4
		L8.5,6.4C8.5,6.4,8.5,6.4,8.5,6.4C8.5,6.4,8.5,6.4,8.5,6.4L8.5,6.4L8.5,6.4C8.5,6.4,8.5,6.4,8.5,6.4z"/>
	<path class="st4" d="M8.6,6.4C8.6,6.4,8.5,6.4,8.6,6.4C8.5,6.4,8.5,6.4,8.6,6.4L8.6,6.4L8.6,6.4c-0.1,0-0.1,0-0.1,0.1
		C8.5,6.4,8.5,6.4,8.6,6.4L8.6,6.4C8.6,6.4,8.6,6.4,8.6,6.4L8.6,6.4L8.6,6.4z"/>
	<path class="st2" d="M11.1,6.2C11.1,6.2,11.1,6.2,11.1,6.2L11.1,6.2l-0.2,0.3v0c0,0,0,0,0,0c0,0,0,0,0,0L11.1,6.2L11.1,6.2z"/>
	<path class="st1" d="M11.5,6C11.5,6,11.5,6,11.5,6C11.5,6,11.4,6,11.5,6c-0.1,0-0.1,0-0.1,0c0,0,0,0,0,0l0.1,0
		C11.5,6.1,11.5,6.1,11.5,6C11.5,6.1,11.5,6.1,11.5,6C11.5,6.1,11.5,6,11.5,6z"/>
	<path class="st2" d="M11.2,6C11.2,6,11.2,6.1,11.2,6l0.3,0.2c0,0,0,0,0,0v0c0,0,0,0,0,0L11.2,6C11.2,6,11.2,6,11.2,6z"/>
	<path class="st4" d="M11.4,6.3C11.4,6.3,11.4,6.3,11.4,6.3L11.4,6.3l0.1,0c0,0,0.1,0,0.1,0c0,0,0,0,0,0.1l0,0l-0.1,0.3
		c0,0,0,0-0.1,0c0,0,0,0-0.1-0.1l-0.1-0.1c0,0,0,0,0,0c0,0,0,0,0,0c0,0,0,0,0,0c0,0,0,0,0,0l0,0.1c0,0.1,0.1,0.2,0.2,0.2
		c0.1,0,0.2,0,0.3,0l0.1,0l0,0c-0.1,0-0.1-0.1,0-0.1c0,0,0.1-0.1,0.1,0c0,0,0,0,0,0c0,0,0,0,0,0c0,0,0.1,0,0.1,0c0,0,0.1,0.1,0,0.1
		v0c0,0,0,0,0,0c0,0,0,0,0,0C12,7,12,7,12,7c0,0,0,0-0.1,0c0,0-0.1,0-0.1,0h0l0,0c0,0.1,0,0.2,0,0.3c0.1,0.1,0.2,0.1,0.3,0l0,0
		c0,0,0,0,0,0l0,0c0,0,0,0,0,0c0,0,0,0,0,0c0,0,0,0,0-0.1l0.2-0.3c0,0,0,0,0.1,0l0,0c0,0,0,0,0,0.1c0,0,0-0.1,0.1-0.1c0,0,0,0,0,0
		c0,0,0,0,0.1,0c0,0,0,0,0,0h0l0,0l0.1-0.1l0-0.1c0,0,0,0,0,0c0.1-0.6-0.1-0.9-0.6-1.1c-0.1,0.2-0.3,0.4-0.4,0.6c0,0,0,0,0,0
		c0,0,0,0,0,0C11.5,6.3,11.5,6.3,11.4,6.3C11.4,6.3,11.4,6.3,11.4,6.3z"/>
	<path class="st2" d="M11.5,6.4C11.5,6.4,11.5,6.4,11.5,6.4C11.5,6.4,11.5,6.4,11.5,6.4l-0.2,0.3c0,0,0,0,0,0c0,0,0,0,0,0L11.5,6.4z
		"/>
	<path class="st1" d="M9.9,5.3L9.9,5.3C9.9,5.3,9.9,5.3,9.9,5.3C9.9,5.2,9.9,5.2,9.9,5.3c-0.1-0.1-0.1-0.1-0.1,0c0,0,0,0,0,0v0l0,0
		l0,0C9.9,5.3,9.9,5.3,9.9,5.3C9.9,5.3,9.9,5.3,9.9,5.3C9.9,5.3,9.9,5.3,9.9,5.3z"/>
	<path class="st2" d="M10.1,5.8C10.1,5.7,10.1,5.7,10.1,5.8l-0.4,0c0,0,0,0,0,0c0,0,0,0,0,0L10.1,5.8C10.1,5.8,10.1,5.8,10.1,5.8z"
		/>
	<path class="st2" d="M9.9,5.4C9.9,5.4,9.9,5.4,9.9,5.4L9.9,5.4C9.9,5.4,9.9,5.4,9.9,5.4C9.9,5.4,9.9,5.4,9.9,5.4L9.9,5.4
		C9.9,5.4,9.9,5.4,9.9,5.4z"/>
	<path class="st1" d="M9.9,5.5L9.9,5.5L9.9,5.5C9.9,5.5,9.9,5.5,9.9,5.5C9.9,5.5,9.9,5.5,9.9,5.5L9.9,5.5L9.9,5.5
		C9.8,5.5,9.8,5.5,9.9,5.5C9.8,5.5,9.8,5.5,9.9,5.5C9.9,5.5,9.9,5.6,9.9,5.5L9.9,5.5C9.9,5.6,9.9,5.5,9.9,5.5
		C9.9,5.5,9.9,5.5,9.9,5.5C9.9,5.5,9.9,5.5,9.9,5.5z"/>
	<path class="st2" d="M9.6,6.3V6c0,0-0.1,0-0.1,0L9.6,6.3C9.6,6.4,9.6,6.4,9.6,6.3z"/>
	<path class="st2" d="M10.2,6C10.2,6,10.2,6,10.2,6l-0.1,0.4c0,0,0.1,0,0.1,0V6z"/>
	<path class="st4" d="M10.5,6.7c-0.1,0-0.1,0.1-0.2,0.1l0.3,0C10.5,6.8,10.5,6.7,10.5,6.7z"/>
	<path class="st4" d="M9.9,6.7L9.9,6.7l0.1,0c0,0-0.1-0.1-0.1-0.1c0,0.1-0.1,0.1-0.1,0.1L9.9,6.7z"/>
	<path class="st2" d="M9.9,6.9C9.9,6.9,9.9,6.9,9.9,6.9c0.2,0,0.4,0,0.5,0.1c0.3,0,0.5,0.1,0.7,0.2c0.2,0.1,0.3,0.2,0.4,0.3l0,0h0
		c0.1,0.1,0.1,0.1,0.1,0.2c0.1,0,0.1-0.1,0.1-0.1l0-0.1l-0.1-0.1c-0.1-0.1-0.2-0.2-0.3-0.2l-0.1-0.1c0,0-0.1,0-0.1-0.1L11,7
		c-0.1,0-0.1,0-0.2-0.1l-0.4-0.1c-0.2,0-0.4-0.1-0.6-0.1c-0.2,0-0.4,0-0.6,0.1l-0.1,0c0,0-0.1,0-0.2,0.1L8.6,7L8.5,7
		c0,0-0.1,0-0.1,0.1L8.3,7.1C8.2,7.2,8.1,7.3,8.1,7.4C8,7.4,8,7.4,8,7.5L7.9,7.6c0,0,0,0.1,0.1,0.1c0-0.1,0.1-0.1,0.1-0.2h0l0,0
		c0.1-0.1,0.3-0.2,0.4-0.3C8.8,7.1,9.1,7,9.4,6.9C9.5,6.9,9.7,6.9,9.9,6.9z"/>
	<path class="st2" d="M9.9,6.9C9.7,6.9,9.5,7,9.4,7C9.1,7,8.9,7.1,8.6,7.2C8.5,7.3,8.3,7.4,8.2,7.5l0,0C8.1,7.6,8.1,7.6,8.1,7.7l0,0
		c0,0,0.1,0,0.1,0c0,0,0.1,0,0.1,0c0,0,0,0.1,0,0.1c0,0,0,0.1,0,0.1c0,0-0.1,0-0.1,0c0,0,0,0,0,0l0.1,0.2C8.5,7.9,9,7.7,9.8,7.7
		l0.1,0c0,0,0,0,0,0l0.1,0c0.8,0,1.3,0.2,1.5,0.6L11.6,8c0,0,0,0,0,0c0,0-0.1,0-0.1,0c0,0,0-0.1,0-0.1c0,0,0-0.1,0-0.1
		c0,0,0.1,0,0.1,0c0,0,0.1,0,0.1,0l0,0c0-0.1-0.1-0.1-0.1-0.2l0,0c-0.1-0.1-0.2-0.2-0.4-0.3C10.9,7.1,10.7,7,10.4,7
		C10.2,7,10.1,6.9,9.9,6.9z M10,7.1c0,0,0.1,0,0.1,0v0c0,0,0,0.1,0,0.1v0.1c0,0,0,0.1,0,0.1c0,0-0.1,0-0.1,0H9.8c0,0-0.1,0-0.1,0
		c0,0,0-0.1,0-0.1V7.3c0,0,0-0.1,0-0.1v0c0,0,0.1,0,0.1,0H10z M10.8,7.3C10.8,7.3,10.8,7.3,10.8,7.3L11,7.5c0,0,0,0,0,0c0,0,0,0,0,0
		c0,0,0,0,0,0l-0.2,0.1c0,0,0,0,0,0c0,0,0,0,0,0l-0.2-0.2c0,0,0,0,0,0c0,0,0,0,0,0l0,0L10.8,7.3C10.8,7.3,10.8,7.3,10.8,7.3z
		 M9.2,7.4C9.2,7.4,9.2,7.4,9.2,7.4C9.2,7.4,9.2,7.4,9.2,7.4C9.2,7.4,9.2,7.4,9.2,7.4L9,7.6c0,0,0,0,0,0c0,0,0,0,0,0L8.8,7.5
		c0,0,0,0,0,0c0,0,0,0,0,0c0,0,0,0,0,0l0.1-0.2c0,0,0,0,0,0c0,0,0,0,0,0L9.2,7.4z"/>
	<path class="st0" d="M10.1,7.2c0,0-0.1,0-0.1,0H9.8c0,0-0.1,0-0.1,0v0c0,0,0,0.1,0,0.1v0.1c0,0,0,0.1,0,0.1c0,0,0.1,0,0.1,0H10
		c0,0,0.1,0,0.1,0c0,0,0-0.1,0-0.1V7.3C10.1,7.3,10.1,7.2,10.1,7.2L10.1,7.2z M10,7.2C10,7.2,10,7.2,10,7.2L10,7.2
		c0.1,0.1,0.1,0.1,0.1,0.1v0.1c0,0,0,0.1,0,0.1c0,0-0.1,0-0.1,0H9.8c0,0-0.1,0-0.1,0c0,0,0-0.1,0-0.1V7.3c0,0,0-0.1,0-0.1
		c0,0,0.1,0,0.1,0H10z"/>
	<path class="st4" d="M10.1,7.2C10,7.2,10,7.2,10.1,7.2l-0.3,0c0,0-0.1,0-0.1,0c0,0,0,0.1,0,0.1v0.1c0,0,0,0.1,0,0.1
		c0,0,0.1,0,0.1,0H10c0,0,0.1,0,0.1,0c0,0,0-0.1,0-0.1L10.1,7.2C10.1,7.3,10.1,7.2,10.1,7.2L10.1,7.2z"/>
	<path class="st0" d="M10.8,7.3C10.8,7.3,10.8,7.3,10.8,7.3C10.8,7.3,10.8,7.3,10.8,7.3l-0.3,0.1l0,0c0,0,0,0,0,0c0,0,0,0,0,0
		l0.2,0.2c0,0,0,0,0,0c0,0,0,0,0,0L11,7.5c0,0,0,0,0,0c0,0,0,0,0,0c0,0,0,0,0,0L10.8,7.3z M10.8,7.3l0.1,0.2l-0.2,0.1l-0.1-0.2
		L10.8,7.3z"/>
	<path class="st1" d="M10.9,7.5l-0.1-0.2l-0.2,0.1l0.1,0.2L10.9,7.5z"/>
	<path class="st0" d="M9.2,7.4C9.2,7.4,9.2,7.4,9.2,7.4L8.9,7.3c0,0,0,0,0,0c0,0,0,0,0,0L8.8,7.5c0,0,0,0,0,0c0,0,0,0,0,0
		c0,0,0,0,0,0L9,7.6c0,0,0,0,0,0c0,0,0,0,0,0L9.2,7.4C9.2,7.4,9.2,7.4,9.2,7.4C9.2,7.4,9.2,7.4,9.2,7.4z M9,7.6L8.8,7.5l0.1-0.2
		l0.2,0.1L9,7.6z"/>
	<path class="st1" d="M8.8,7.5L9,7.6l0.1-0.2L8.9,7.3L8.8,7.5z"/>
	<path class="st2" d="M9.9,7.9L9.9,7.9c0.7,0,1.3,0.2,1.6,0.5c0,0,0.1-0.1,0.1-0.1C11.3,8,10.8,7.8,10,7.7H9.8C9,7.8,8.5,8,8.2,8.3
		c0,0,0,0.1,0.1,0.1C8.6,8.1,9.2,7.9,9.9,7.9z"/>
	<path class="st4" d="M11.6,7.1c-0.1,0-0.1,0-0.1,0c0.1,0,0.1,0.1,0.2,0.1C11.7,7.3,11.6,7.2,11.6,7.1z"/>
	<path class="st4" d="M10.9,6.9c0,0,0.1,0,0.2,0.1l0,0l0-0.1l0-0.1C11,6.8,10.9,6.9,10.9,6.9z"/>
	<path class="st4" d="M11.5,7.8C11.5,7.8,11.5,7.8,11.5,7.8c0,0.1,0,0.1,0,0.2c0,0,0.1,0,0.1,0l0,0c0,0,0,0,0.1,0c0,0,0,0,0-0.1
		c0,0,0-0.1,0-0.1l0,0C11.7,7.8,11.6,7.8,11.5,7.8C11.6,7.8,11.5,7.8,11.5,7.8z"/>
	<path class="st2" d="M8.5,6.1C8.5,6.1,8.5,6.1,8.5,6.1C8.5,6,8.5,6,8.5,6.1L8.2,6.2c0,0,0,0,0,0v0l0,0L8.5,6.1z"/>
	<path class="st1" d="M8.2,6L8.2,6C8.2,6,8.2,6.1,8.2,6C8.2,6.1,8.2,6.1,8.2,6c0,0.1,0,0.1,0,0.1l0.1,0l0,0C8.4,6.1,8.3,6,8.2,6
		C8.3,6,8.3,6,8.2,6C8.3,6,8.3,6,8.2,6z"/>
	<path class="st4" d="M8.2,6.2C8.2,6.2,8.2,6.2,8.2,6.2C8,5.9,7.9,5.7,7.8,5.6C7.3,5.7,7.1,6.1,7.2,6.7c0,0,0,0,0,0l0,0.1l0.1,0.1
		c0,0,0,0,0,0h0c0,0,0,0,0,0c0,0,0,0,0.1,0c0,0,0,0,0,0c0,0,0,0.1,0.1,0.1c0,0,0-0.1,0-0.1l0,0c0,0,0,0,0.1,0l0.2,0.3c0,0,0,0,0,0.1
		c0,0,0,0,0,0c0,0,0,0,0,0l0,0c0,0,0,0,0,0c0,0,0,0,0,0c0.1,0.1,0.2,0,0.3,0C8,7.3,8,7.2,8,7l0,0c0,0,0,0-0.1,0c0,0,0,0-0.1,0
		c0,0,0-0.1,0-0.1c0,0,0,0,0,0c0,0,0,0,0,0v0c0,0,0-0.1,0-0.1c0,0,0.1,0,0.1,0c0,0,0,0,0,0c0,0,0,0,0,0c0,0,0.1,0,0.1,0
		c0,0.1,0,0.1,0,0.1l0,0l0.1,0c0.1,0,0.2,0,0.3,0c0.1,0,0.1-0.1,0.2-0.2l0-0.1l0,0c0,0,0,0,0,0c0,0,0,0,0,0L8.5,6.7c0,0,0,0-0.1,0.1
		c0,0,0,0-0.1,0h0L8.2,6.4v0c0,0,0,0,0-0.1c0,0,0,0,0.1,0l0.1,0c0,0,0,0,0,0c0,0,0,0,0,0c0,0,0,0,0,0l0,0C8.3,6.3,8.3,6.3,8.2,6.2
		C8.2,6.2,8.2,6.2,8.2,6.2z"/>
	<path class="st2" d="M8.3,6.4C8.3,6.4,8.2,6.4,8.3,6.4C8.2,6.4,8.2,6.4,8.3,6.4l0.1,0.3c0,0,0,0,0,0c0,0,0,0,0,0L8.3,6.4z"/>
	<path class="st2" d="M8.7,6.2C8.7,6.2,8.7,6.2,8.7,6.2L8.7,6.2l0.1,0.3c0,0,0,0,0,0c0,0,0,0,0,0v0L8.7,6.2L8.7,6.2z"/>
	<path class="st2" d="M7.7,7.2C7.7,7.2,7.7,7.2,7.7,7.2L7.5,6.9c0,0,0,0,0,0l0,0C7.6,7.1,7.6,7.1,7.7,7.2L7.7,7.2z"/>
	<path class="st1" d="M7,6.7C7,6.7,7,6.7,7,6.7C7,6.7,7,6.7,7,6.7C7,6.7,7,6.7,7,6.7C7,6.6,7,6.6,7,6.7C7,6.6,6.9,6.6,7,6.7
		C6.9,6.7,6.9,6.7,7,6.7C6.9,6.7,6.9,6.7,7,6.7C6.9,6.7,6.9,6.7,7,6.7C6.9,6.7,7,6.8,7,6.7C7,6.8,7,6.8,7,6.7z"/>
	<path class="st1" d="M7.1,6.8C7.1,6.8,7.1,6.8,7.1,6.8L7.1,6.8C7.1,6.8,7.1,6.9,7.1,6.8C7.1,6.9,7.1,6.9,7.1,6.8
		C7.1,6.9,7.1,6.9,7.1,6.8C7.1,6.9,7.1,6.9,7.1,6.8C7.1,6.9,7.1,6.8,7.1,6.8C7.1,6.8,7.1,6.8,7.1,6.8C7.1,6.8,7.1,6.8,7.1,6.8
		C7.1,6.8,7.1,6.8,7.1,6.8z"/>
	<path class="st2" d="M7.1,6.7C7.1,6.7,7.1,6.7,7.1,6.7L7.1,6.7C7.1,6.8,7.1,6.8,7.1,6.7C7.1,6.8,7.1,6.8,7.1,6.7
		c0.1,0.1,0.1,0.1,0.1,0.1l0,0c0,0,0,0,0.1,0c0,0,0,0,0,0L7.1,6.7c0-0.1-0.2-0.3-0.2-0.4l0,0c0,0,0,0.1,0,0.1c0,0,0,0,0,0l0,0
		c0,0,0,0,0,0c0,0,0.1,0,0.1,0c0,0,0,0,0,0.1c0,0,0,0.1,0,0.1l0,0l0,0C6.9,6.6,7,6.6,7.1,6.7C7,6.6,7,6.6,7.1,6.7
		C7.1,6.7,7.1,6.7,7.1,6.7z"/>
	<path class="st4" d="M7.5,7.3L7.5,7.3C7.5,7.3,7.4,7.3,7.5,7.3C7.4,7.3,7.4,7.3,7.5,7.3L7.5,7.3C7.4,7.4,7.5,7.4,7.5,7.3L7.5,7.3
		C7.5,7.3,7.5,7.3,7.5,7.3C7.5,7.3,7.5,7.3,7.5,7.3C7.5,7.3,7.5,7.3,7.5,7.3z"/>
	<path class="st4" d="M8.1,7.8C8.1,7.8,8,7.8,8.1,7.8c0,0.1,0,0.1,0,0.2c0,0,0,0,0.1,0h0l0,0c0,0,0.1,0,0.1,0c0,0,0,0,0-0.1
		c0,0,0-0.1,0-0.1C8.2,7.8,8.2,7.8,8.1,7.8C8.1,7.8,8.1,7.8,8.1,7.8C8.1,7.8,8.1,7.8,8.1,7.8z"/>
	<path class="st4" d="M8.1,7.1c0,0,0,0.1,0,0.1c0.1-0.1,0.1-0.1,0.2-0.1C8.3,7.2,8.2,7.1,8.1,7.1z"/>
	<path class="st4" d="M9.3,6.7c0,0.1-0.1,0.1-0.1,0.1l0.3,0C9.4,6.7,9.4,6.7,9.3,6.7z"/>
	<path class="st4" d="M8.7,6.9L8.7,6.9l0.2,0C8.8,6.9,8.8,6.8,8.7,6.9C8.7,6.8,8.7,6.8,8.7,6.9z"/>
	<path class="st1" d="M6.9,5.2C6.9,5.2,6.9,5.2,6.9,5.2L6.9,5.2L6.9,5.2C6.8,5.1,6.8,5.1,6.7,5.1c0,0,0,0,0,0.1c0,0,0,0,0,0l0,0
		C6.8,5.3,6.8,5.3,6.9,5.2C6.8,5.3,6.8,5.3,6.9,5.2C6.9,5.2,6.9,5.2,6.9,5.2z"/>
	<path class="st1" d="M6.7,5.4L6.7,5.4C6.6,5.4,6.6,5.4,6.7,5.4C6.6,5.4,6.6,5.5,6.7,5.4C6.6,5.5,6.6,5.5,6.6,5.5l0,0c0,0,0,0,0,0
		c0,0,0,0,0.1,0v0C6.7,5.5,6.7,5.5,6.7,5.4C6.7,5.5,6.7,5.4,6.7,5.4C6.7,5.4,6.7,5.4,6.7,5.4z"/>
	<path class="st2" d="M6.6,5.6L6.6,5.6L6.6,5.6L6.6,5.6C6.6,5.7,6.7,5.7,6.6,5.6c0,0.1,0,0.1,0.1,0.1L6.6,5.6L6.6,5.6
		C6.7,5.6,6.7,5.6,6.6,5.6z"/>
	<path class="st1" d="M6.5,5.7C6.5,5.7,6.5,5.7,6.5,5.7c0,0.1,0,0.1,0,0.1c0,0,0,0,0.1,0h0c0,0,0,0,0.1,0c0,0,0,0,0-0.1
		c0,0,0,0,0-0.1C6.6,5.7,6.6,5.7,6.5,5.7L6.5,5.7C6.6,5.7,6.5,5.7,6.5,5.7z"/>
	<path class="st2" d="M6.7,6c0,0,0-0.1,0-0.2c0,0,0,0,0,0c0,0,0,0-0.1,0l0,0C6.6,5.9,6.6,5.9,6.7,6C6.7,5.9,6.7,5.9,6.7,6
		C6.7,6,6.7,6,6.7,6z"/>
	<path class="st1" d="M6.6,6L6.6,6C6.5,6,6.5,6,6.6,6c0,0.1,0,0.1,0,0.1c0,0,0,0,0.1,0l0,0h0c0,0,0,0,0,0c0,0,0,0,0-0.1
		c0,0,0,0,0-0.1C6.7,6,6.6,6,6.6,6L6.6,6C6.6,6,6.6,6,6.6,6z"/>
	<path class="st2" d="M6.7,6.2L6.7,6.2L6.7,6.2c0.1,0,0.1,0,0.1,0.1l0,0C6.8,6.2,6.8,6.1,6.7,6.2C6.7,6.1,6.7,6.1,6.7,6.2L6.7,6.2
		C6.7,6.2,6.7,6.2,6.7,6.2z"/>
	<path class="st1" d="M6.7,6.2L6.7,6.2C6.7,6.2,6.7,6.3,6.7,6.2C6.6,6.3,6.6,6.3,6.7,6.2c-0.1,0.1,0,0.1,0,0.1c0,0,0,0,0.1,0
		c0,0,0,0,0,0l0,0c0,0,0,0,0-0.1C6.8,6.3,6.8,6.3,6.7,6.2C6.8,6.2,6.7,6.2,6.7,6.2L6.7,6.2z"/>
	<path class="st1" d="M6.8,6.5C6.8,6.5,6.8,6.5,6.8,6.5C6.8,6.5,6.8,6.5,6.8,6.5C6.8,6.6,6.8,6.6,6.8,6.5c0,0.1,0,0.1,0,0.1
		c0,0,0,0,0,0v0C6.9,6.6,6.9,6.6,6.8,6.5c0.1,0.1,0.1,0.1,0.1,0.1C6.9,6.5,6.9,6.5,6.8,6.5C6.9,6.5,6.9,6.5,6.8,6.5
		C6.8,6.5,6.8,6.5,6.8,6.5z"/>
	<path class="st1" d="M13.1,5.2C13.1,5.2,13.1,5.2,13.1,5.2C13,5.1,13,5.1,13.1,5.2l-0.1-0.1h0l0,0c0,0,0,0,0,0.1c0,0,0,0,0,0.1
		C12.9,5.3,13,5.3,13.1,5.2C13,5.3,13,5.3,13.1,5.2L13.1,5.2C13.1,5.2,13.1,5.2,13.1,5.2z"/>
	<path class="st1" d="M13.1,5.4L13.1,5.4C13.1,5.4,13.1,5.4,13.1,5.4C13.1,5.4,13,5.5,13.1,5.4c-0.1,0.1-0.1,0.1-0.1,0.1l0,0
		c0,0,0,0,0.1,0c0,0,0,0,0,0l0,0C13.2,5.5,13.2,5.5,13.1,5.4C13.2,5.5,13.2,5.4,13.1,5.4C13.2,5.4,13.2,5.4,13.1,5.4z"/>
	<path class="st2" d="M13.2,5.6L13.2,5.6c-0.1,0-0.1,0-0.1,0C13.1,5.6,13.1,5.6,13.2,5.6l-0.1,0.1v0C13.1,5.7,13.1,5.7,13.2,5.6
		C13.1,5.7,13.1,5.7,13.2,5.6L13.2,5.6z"/>
	<path class="st1" d="M13.1,5.7C13.1,5.7,13.1,5.7,13.1,5.7c0,0.1,0,0.1,0,0.1c0,0,0,0,0.1,0h0c0,0,0,0,0.1,0c0,0,0,0,0-0.1
		c0,0,0,0,0-0.1C13.2,5.7,13.2,5.7,13.1,5.7L13.1,5.7C13.2,5.7,13.1,5.7,13.1,5.7z"/>
	<path class="st1" d="M13.2,6.1C13.2,6.1,13.2,6.1,13.2,6.1c0-0.1,0-0.1,0-0.1l0,0c0,0,0,0,0,0l0,0c0,0,0,0-0.1,0c0,0,0,0,0,0.1
		c0,0,0,0,0,0.1C13.1,6.1,13.1,6.1,13.2,6.1L13.2,6.1C13.2,6.1,13.2,6.1,13.2,6.1z"/>
	<path class="st2" d="M13.2,5.9C13.1,5.9,13.1,5.9,13.2,5.9C13.1,5.8,13.1,5.8,13.2,5.9c-0.1,0-0.1,0-0.1,0.1c0,0,0,0,0,0
		C13.1,5.9,13.1,5.9,13.2,5.9C13.2,5.9,13.2,5.9,13.2,5.9L13.2,5.9z"/>
	<path class="st2" d="M13.1,6.2L13.1,6.2L13.1,6.2C13.1,6.2,13.1,6.2,13.1,6.2c0-0.1,0-0.1,0-0.1L13.1,6.2C13,6.2,13,6.2,13.1,6.2
		C13,6.2,13,6.2,13.1,6.2z"/>
	<path class="st1" d="M13.1,6.2L13.1,6.2C13,6.2,13,6.2,13.1,6.2C13,6.3,13,6.3,13,6.3c0,0,0,0,0,0.1l0,0c0,0,0,0,0,0c0,0,0,0,0.1,0
		C13.1,6.4,13.1,6.3,13.1,6.2C13.1,6.3,13.1,6.3,13.1,6.2L13.1,6.2L13.1,6.2z"/>
	<path class="st2" d="M12.9,6.3L12.9,6.3c-0.1,0.1-0.2,0.3-0.3,0.4l-0.1,0.1c0,0,0,0,0,0c0,0,0,0,0.1,0c0,0,0,0,0,0c0,0,0,0,0,0
		c0,0,0,0,0,0c0,0,0,0,0,0l0,0c0,0,0,0,0-0.1c0,0,0,0,0-0.1c0,0,0,0,0.1,0c0,0,0,0,0,0c0,0,0,0,0,0c0,0,0,0,0,0c0,0,0,0,0-0.1
		c0,0,0-0.1,0-0.1c0,0,0,0,0.1,0c0,0,0,0,0,0L12.9,6.3C13,6.4,13,6.4,12.9,6.3C12.9,6.4,12.9,6.3,12.9,6.3z"/>
	<path class="st1" d="M13,6.5C13,6.5,13,6.5,13,6.5C12.9,6.5,12.9,6.5,13,6.5C12.9,6.5,12.9,6.5,13,6.5c-0.1,0-0.1,0-0.1,0
		C12.8,6.6,12.9,6.6,13,6.5c-0.1,0.1-0.1,0.1-0.1,0.1v0c0,0,0,0,0,0C12.9,6.6,13,6.6,13,6.5C13,6.6,13,6.6,13,6.5
		C13,6.5,13,6.5,13,6.5z"/>
	<path class="st1" d="M12.8,6.6C12.8,6.6,12.8,6.6,12.8,6.6C12.7,6.7,12.7,6.7,12.8,6.6C12.7,6.7,12.7,6.7,12.8,6.6
		C12.8,6.7,12.8,6.7,12.8,6.6c0,0.1,0,0.1,0,0.1C12.8,6.8,12.8,6.7,12.8,6.6C12.8,6.7,12.8,6.7,12.8,6.6C12.8,6.7,12.8,6.7,12.8,6.6
		L12.8,6.6C12.8,6.6,12.8,6.6,12.8,6.6z"/>
	<path class="st1" d="M12.6,6.8L12.6,6.8C12.6,6.8,12.6,6.8,12.6,6.8C12.7,6.9,12.7,6.9,12.6,6.8L12.6,6.8
		C12.7,6.9,12.7,6.9,12.6,6.8L12.6,6.8C12.7,6.9,12.7,6.9,12.6,6.8C12.7,6.9,12.7,6.8,12.6,6.8C12.7,6.8,12.7,6.8,12.6,6.8L12.6,6.8
		C12.7,6.8,12.7,6.8,12.6,6.8C12.7,6.8,12.7,6.8,12.6,6.8C12.6,6.8,12.6,6.8,12.6,6.8z"/>
	<path class="st2" d="M12.2,6.9C12.2,6.9,12.2,6.9,12.2,6.9L12.2,6.9l-0.2,0.2c0,0,0,0,0,0c0,0,0,0,0,0C12.1,7.1,12.2,7,12.2,6.9
		C12.3,6.9,12.3,6.9,12.2,6.9z"/>
	<path class="st4" d="M12.3,7.3C12.3,7.3,12.3,7.3,12.3,7.3L12.3,7.3L12.3,7.3C12.3,7.3,12.3,7.3,12.3,7.3L12.3,7.3
		C12.3,7.4,12.3,7.4,12.3,7.3L12.3,7.3C12.4,7.3,12.4,7.3,12.3,7.3C12.3,7.3,12.3,7.3,12.3,7.3L12.3,7.3z"/>
	<path class="st0" d="M12.2,9c-0.1-0.1-0.2-0.2-0.3-0.3c-0.6-0.6-1.3-0.9-2.1-0.9S8.4,8.1,7.8,8.7C7.7,8.8,7.6,8.9,7.6,9H2.3
		l7.6,7.6L17.5,9H12.2z"/>
	<path class="st2" d="M7.9,8.7L7.9,8.7c0.6-0.5,1.2-0.8,2-0.8c0.8,0,1.4,0.3,2,0.8c0.5,0.5,0.8,1.2,0.8,2c0,0.8-0.3,1.4-0.8,2h0
		c-0.6,0.6-1.2,0.8-2,0.8c-0.8,0-1.4-0.3-2-0.8c-0.5-0.5-0.8-1.2-0.8-2C7.1,9.9,7.3,9.3,7.9,8.7z"/>
	<path class="st2" d="M12.3,9.1c0,0.1,0.1,0.2,0.1,0.2h4.4l-6.9,7l-7-7h4.4c0,0,0.1-0.1,0.1-0.2H2.5l7.3,7.3l7.3-7.3H12.3z"/>
	<polygon class="st5" points="3.2,9.3 4.2,10.4 4.2,9.3 	"/>
	<polygon class="st5" points="5.2,9.3 5.2,11.4 6.3,12.4 6.3,9.3 	"/>
	<polygon class="st5" points="16.6,9.3 15.5,9.3 15.5,10.4 	"/>
	<polygon class="st5" points="13.5,12.4 14.5,11.4 14.5,9.3 13.5,9.3 	"/>
	<path class="st5" d="M7.8,12.8c-0.2-0.2-0.4-0.4-0.5-0.7v1.3l1,1v-1.3C8.2,13.1,8,12.9,7.8,12.8z"/>
	<path class="st5" d="M9.9,13.6c-0.2,0-0.3,0-0.5,0v1.9L9.9,16l0.5-0.5v-1.9C10.2,13.6,10.1,13.6,9.9,13.6z"/>
	<path class="st5" d="M11.9,12.8c-0.2,0.2-0.3,0.3-0.5,0.4v1.3l1-1v-1.4C12.3,12.3,12.2,12.6,11.9,12.8z"/>
	<polygon class="st1" points="4.2,9.3 4.2,10.4 5.2,11.4 5.2,9.3 	"/>
	<polygon class="st1" points="15.5,10.4 15.5,9.3 14.5,9.3 14.5,11.4 	"/>
	<path class="st1" d="M10.4,13.6v1.9l1-1v-1.3C11.1,13.4,10.8,13.5,10.4,13.6z"/>
	<path class="st1" d="M8.3,13.2v1.3l1,1v-1.9C9,13.5,8.7,13.4,8.3,13.2z"/>
	<path class="st1" d="M7,10.7c0-0.5,0.1-1,0.3-1.4v0h-1v3.1l1,1v-1.3C7.1,11.7,7,11.2,7,10.7z"/>
	<path class="st1" d="M12.5,9.3L12.5,9.3c0.2,0.4,0.3,0.9,0.3,1.4c0,0.5-0.1,1-0.3,1.4v1.4l1-1V9.3H12.5z"/>
	<path class="st0" d="M8,8.8C8,8.8,8,8.9,8,8.8C7.5,9.4,7.2,10,7.2,10.7c0,0.7,0.3,1.4,0.8,1.9c0.5,0.5,1.1,0.8,1.9,0.8
		s1.4-0.3,1.9-0.8l0,0c0.5-0.5,0.8-1.1,0.8-1.9c0-0.7-0.3-1.4-0.8-1.9c-0.5-0.5-1.1-0.8-1.9-0.8C9.1,8.1,8.5,8.3,8,8.8z"/>
	<path class="st5" d="M8.1,8.9L8.1,8.9L8.1,8.9c0.5-0.5,1.1-0.8,1.8-0.8c0.7,0,1.3,0.3,1.8,0.8c0.5,0.5,0.8,1.1,0.8,1.8
		c0,0.7-0.2,1.3-0.7,1.8l0,0h0c-0.5,0.5-1.1,0.8-1.8,0.8c-0.7,0-1.3-0.3-1.8-0.8c-0.5-0.5-0.7-1.1-0.7-1.8C7.3,10,7.6,9.4,8.1,8.9z"
		/>
	<path class="st1" d="M11.8,10H12V9.9h-0.2c0-0.2-0.1-0.4-0.3-0.5c-0.1-0.1-0.3-0.2-0.5-0.2c0,0-0.1,0-0.1,0h-0.3l0-0.1
		c0-0.1-0.1-0.1-0.1-0.1c-0.1-0.1-0.2-0.3-0.3-0.3C10.1,8.5,10,8.4,9.9,8.5c-0.1,0-0.2,0.1-0.3,0.2c-0.1,0.1-0.1,0.2,0,0.3
		C9.6,9,9.7,9,9.8,9c0.1,0,0.1-0.1,0.1-0.1c-0.1,0-0.1,0-0.1,0c0,0-0.1-0.1-0.1-0.1c0-0.1,0-0.1,0.1-0.2c0.1,0,0.2,0,0.3,0
		c0.1,0,0.2,0.1,0.3,0.3l0,0c0,0,0.1,0.1,0.1,0.1l0,0.1H9.4V8.8c0-0.1,0-0.2-0.1-0.3c-0.1,0-0.1,0-0.2,0C9,8.5,8.9,8.6,8.9,8.6
		c0,0.1,0,0.2,0,0.2c0,0.1,0.1,0.1,0.2,0.1C9,8.9,9,8.8,9,8.8c0-0.1,0-0.1,0.1-0.1c0.1,0,0.1,0,0.1,0c0.1,0,0.1,0.1,0.1,0.2v0.3h-1
		v0.1h0.2v0.6H8.3V10h0.2v0.6H8.3v0.1h0.2v0.6H8.3v0.2h0.2v0.6H8.3v0.1h1v0.3c0,0.1,0,0.2-0.1,0.2c0,0-0.1,0-0.1,0
		c0,0-0.1-0.1-0.1-0.1c0-0.1,0.1-0.1,0.1-0.2c-0.1,0-0.2,0-0.2,0.1c0,0.1,0,0.1,0,0.2C8.9,12.9,9,13,9.1,13c0.1,0,0.1,0,0.2,0
		c0.1-0.1,0.1-0.2,0.1-0.3v-0.3h1.1c0,0.1-0.1,0.2-0.1,0.2c-0.1,0.1-0.2,0.2-0.3,0.3c-0.1,0-0.2,0-0.3,0c-0.1,0-0.1-0.1-0.1-0.2
		c0-0.1,0-0.1,0.1-0.1c0,0,0.1,0,0.1,0c0-0.1,0-0.1-0.1-0.1c-0.1,0-0.2,0-0.2,0.1c-0.1,0.1-0.1,0.2,0,0.3C9.6,12.9,9.7,13,9.9,13
		c0.1,0,0.3,0,0.4-0.1c0.2-0.1,0.3-0.3,0.4-0.6h0.3c0.2,0,0.4-0.1,0.6-0.2c0.1-0.1,0.2-0.3,0.3-0.5H12v-0.2h-0.2
		c0-0.2-0.1-0.4-0.3-0.5c-0.1-0.1-0.2-0.1-0.3-0.2c0.1,0,0.2-0.1,0.3-0.2C11.7,10.4,11.8,10.2,11.8,10z M8.7,10H9V9.9H8.7V9.2h0.6
		v1.4l-0.6,0V10z M8.7,12.2v-0.6H9v-0.2H8.7v-0.6h0.6v1.4H8.7z M11.4,11c0.1,0.1,0.2,0.3,0.2,0.4h-0.3v0.2h0.3
		c0,0.2-0.1,0.3-0.2,0.4v0c-0.1,0.1-0.3,0.2-0.5,0.2h-0.2c0,0,0-0.1,0-0.1l0-0.2l0-0.2c0-0.4-0.2-0.7-0.4-0.8
		c-0.1-0.1-0.2-0.1-0.4-0.1c-0.1,0-0.2,0.1-0.3,0.2c-0.1,0.1-0.1,0.2,0,0.3c0.1,0.1,0.1,0.1,0.2,0.1c0.1,0,0.1-0.1,0.1-0.1
		c0,0-0.1,0-0.1,0c0,0-0.1-0.1-0.1-0.1c0-0.1,0-0.1,0.1-0.2c0.1,0,0.2,0,0.3,0c0.1,0,0.2,0.1,0.3,0.3c0.1,0.1,0.2,0.3,0.2,0.4l0,0.3
		l0,0.2c0,0,0,0,0,0.1H9.4v-1.4H11C11.2,10.8,11.3,10.9,11.4,11z M11,10.7l-1.5,0V9.2h1.1l0,0v0l0,0.2l0,0.2c0,0.1-0.1,0.3-0.2,0.4
		c-0.1,0.1-0.2,0.2-0.3,0.3c-0.1,0-0.2,0-0.3,0c-0.1,0-0.1-0.1-0.1-0.2c0-0.1,0-0.1,0.1-0.1c0,0,0.1,0,0.1,0c0-0.1,0-0.1-0.1-0.1
		c-0.1,0-0.2,0-0.2,0.1c-0.1,0.1-0.1,0.2,0,0.3c0.1,0.1,0.2,0.1,0.3,0.2c0.1,0,0.3,0,0.4-0.1c0.3-0.2,0.4-0.4,0.4-0.8l0-0.2l0-0.3
		h0.2c0,0,0.1,0,0.1,0c0.1,0,0.3,0.1,0.4,0.2c0.1,0.1,0.2,0.3,0.2,0.4h-0.3V10h0.3c0,0.2-0.1,0.3-0.2,0.4
		C11.3,10.6,11.2,10.6,11,10.7z"/>
</g>
</svg>
