<?xml version="1.0" encoding="utf-8"?>
<!-- Generator: Adobe Illustrator 19.1.0, SVG Export Plug-In . SVG Version: 6.00 Build 0)  -->
<svg version="1.1" id="Layer_1" xmlns="http://www.w3.org/2000/svg" xmlns:xlink="http://www.w3.org/1999/xlink" x="0px" y="0px"
	 viewBox="0 0 20 20" style="enable-background:new 0 0 20 20;" xml:space="preserve">
<style type="text/css">
	.st0{fill:#FFFFFF;}
	.st1{fill:#A95A4A;}
	.st2{fill:#A95A4A;enable-background:new    ;}
	.st3{fill:#8A7D43;}
	.st4{fill:#009BDA;enable-background:new    ;}
	.st5{fill:#8A7D43;enable-background:new    ;}
	.st6{fill:#3C5B9D;enable-background:new    ;}
	.st7{fill:#FFFFFF;enable-background:new    ;}
</style>
<g>
	<path class="st0" d="M11.2,4.6C11.2,4.6,11.2,4.6,11.2,4.6c0,0.1,0.1,0.2,0.1,0.2c0,0,0,0,0,0.1c-0.1,0.5-0.3,0.9-0.6,1.1l0,0l0,0
		l0,0c0,0,0.1-0.1,0.1-0.1c0-0.2-0.4-0.3-0.8-0.3c-0.4,0-0.8,0.1-0.8,0.3c0,0,0,0.1,0.1,0.1l0,0l0,0l0,0C8.9,5.9,8.6,5.5,8.5,5l0,0
		h0l0,0c0,0,0,0,0,0c0,0,0,0,0,0c0,0,0,0,0-0.1c0-0.1,0-0.2,0-0.2c0,0,0,0,0-0.1l0,0h0l0,0c0,0,0,0,0,0c0.3-0.2,0.8-0.3,1.3-0.3
		C10.4,4.4,10.8,4.5,11.2,4.6C11.2,4.6,11.2,4.6,11.2,4.6L11.2,4.6L11.2,4.6L11.2,4.6z"/>
	<path class="st1" d="M10.4,3.9L10.4,3.9L10.4,3.9c0.3,0.2,0.6,0.4,0.8,0.7c-0.3-0.2-0.8-0.3-1.3-0.3c-0.5,0-1,0.1-1.3,0.3
		C8.7,4.3,9,4.1,9.3,3.9l0,0v0l0,0c0.1-0.1,0.3-0.1,0.5-0.1C10.1,3.8,10.3,3.8,10.4,3.9L10.4,3.9z"/>
	<path class="st1" d="M9.3,3.6c0,0,0-0.1-0.1-0.1C9.1,3.4,8.9,3.2,8.9,3c0-0.2,0.1-0.4,0.2-0.5c0.3-0.2,0.5-0.4,0.7-0.6
		c0.2,0.2,0.4,0.4,0.7,0.6c0.1,0.1,0.2,0.3,0.2,0.5c0,0.2-0.1,0.4-0.3,0.5c0,0-0.1,0.1-0.1,0.1c0-0.2-0.3-0.3-0.5-0.3
		C9.6,3.3,9.4,3.4,9.3,3.6L9.3,3.6z"/>
	<g>
		<path class="st2" d="M13,5.7c0.5,0,0.9,0.4,0.9,0.9c0,0.2,0,0.3-0.1,0.4c0,0,0,0,0,0c0.1,0,0.1,0,0.2,0c0,0,0,0,0,0
			C14.2,7,14.4,6.9,14.6,7c0.2,0,0.4,0.1,0.6,0.2c0.1,0.1,0.2,0.1,0.2,0.2c-0.1,0.1-0.1,0.2-0.2,0.2c-0.2,0.1-0.4,0.2-0.6,0.2
			c-0.2,0-0.5,0-0.6-0.1c0,0,0,0,0,0c-0.1,0-0.1,0-0.2,0c0,0,0,0,0,0c0.1,0.1,0.1,0.3,0.1,0.4c0,0.5-0.4,0.9-0.9,0.9
			c-0.3,0-0.6-0.2-0.7-0.5c0.1,0.1,0.2,0.1,0.3,0.1c0.3,0,0.6-0.2,0.6-0.5c0-0.3-0.2-0.5-0.5-0.5l0,0H7.1l0,0
			c-0.3,0-0.5,0.3-0.5,0.5c0,0.3,0.3,0.5,0.6,0.5c0.1,0,0.2,0,0.3-0.1C7.3,8.9,7,9.1,6.7,9.1c-0.5,0-0.9-0.4-0.9-0.9
			c0-0.2,0-0.3,0.1-0.4c0,0,0,0,0,0c-0.1,0-0.1,0-0.2,0c0,0,0,0,0,0C5.6,7.9,5.3,7.9,5.1,7.9c-0.2,0-0.4-0.1-0.6-0.2
			C4.4,7.6,4.3,7.5,4.3,7.4c0.1-0.1,0.1-0.2,0.2-0.2C4.7,7.1,4.9,7,5.1,7c0.2,0,0.5,0,0.6,0.1c0,0,0,0,0,0c0.1,0,0.1,0,0.2,0
			c0,0,0,0,0,0C5.9,7,5.9,6.8,5.9,6.7c0-0.5,0.4-0.9,0.9-0.9c0.3,0,0.6,0.2,0.7,0.5C7.4,6.1,7.3,6.1,7.1,6.1c-0.3,0-0.6,0.2-0.6,0.5
			c0,0.3,0.2,0.5,0.5,0.5l0,0h5.6l0,0c0.3,0,0.5-0.3,0.5-0.5c0-0.3-0.3-0.5-0.6-0.5c-0.1,0-0.2,0-0.3,0.1C12.4,5.9,12.7,5.7,13,5.7
			L13,5.7z"/>
		<path class="st3" d="M12.2,6.2l-0.1,0.2L12.2,6.2c0.2,0,0.3,0,0.4,0c0.3,0,0.5,0.2,0.5,0.5c0,0.2-0.2,0.5-0.5,0.5l-5.6,0
			c-0.3,0-0.5-0.2-0.5-0.5c0-0.3,0.2-0.5,0.5-0.5c0.1,0,0.2,0,0.3,0.1l0.2,0.1L7.5,6.2C7.4,5.9,7.1,5.7,6.7,5.7
			c-0.5,0-0.9,0.4-0.9,1c0,0.1,0,0.3,0.1,0.4c0,0-0.1,0-0.1,0C5.6,6.9,5.3,6.9,5.1,6.9C4.9,7,4.6,7,4.5,7.2C4.4,7.2,4.3,7.3,4.2,7.4
			l0,0l0,0c0.1,0.1,0.1,0.2,0.2,0.2c0.2,0.1,0.4,0.2,0.6,0.2c0.2,0,0.5,0,0.7-0.1l0,0c0,0,0.1,0,0.1,0c0,0.1-0.1,0.3-0.1,0.4l0,0
			c0,0.5,0.4,1,0.9,1c0.3,0,0.6-0.2,0.8-0.5l0.1-0.2L7.4,8.6C7.4,8.7,7.2,8.7,7.1,8.7c-0.3,0-0.5-0.2-0.5-0.5c0-0.2,0.2-0.5,0.5-0.5
			l5.6,0c0.3,0,0.5,0.2,0.5,0.5c0,0.3-0.2,0.5-0.5,0.5c-0.1,0-0.2,0-0.3-0.1l-0.2-0.1l0.1,0.2C12.4,9,12.7,9.2,13,9.2
			c0.5,0,0.9-0.4,0.9-1c0-0.1,0-0.3-0.1-0.4c0,0,0.1,0,0.1,0c0.2,0.1,0.4,0.1,0.7,0.1c0.2,0,0.5-0.1,0.6-0.2
			c0.1-0.1,0.2-0.2,0.2-0.2l0,0l0,0c-0.1-0.1-0.1-0.2-0.2-0.2C15.1,7,14.9,7,14.6,6.9c-0.2,0-0.5,0-0.7,0.1l0,0c0,0-0.1,0-0.1,0
			c0-0.1,0.1-0.3,0.1-0.4c0-0.5-0.4-1-0.9-1C12.7,5.7,12.4,5.9,12.2,6.2z M13,5.8c0.4,0,0.8,0.4,0.8,0.9c0,0.1,0,0.3-0.1,0.4l0,0.1
			l0.1,0c0.1,0,0.1,0,0.2,0c0,0,0,0,0,0C14.2,7,14.4,7,14.6,7c0.2,0,0.4,0.1,0.6,0.2c0.1,0.1,0.1,0.1,0.2,0.2c0,0.1-0.1,0.1-0.2,0.2
			c-0.2,0.1-0.4,0.2-0.6,0.2c-0.2,0-0.5,0-0.6-0.1c0,0,0,0,0,0c-0.1,0-0.1,0-0.2,0l-0.1,0l0,0.1c0.1,0.1,0.1,0.3,0.1,0.4
			c0,0.5-0.4,0.9-0.8,0.9c-0.2,0-0.4-0.1-0.6-0.3c0.1,0,0.1,0,0.2,0c0.3,0,0.6-0.3,0.6-0.6c0-0.3-0.2-0.5-0.6-0.6l-5.6,0
			c-0.3,0-0.6,0.3-0.6,0.6c0,0.3,0.3,0.6,0.6,0.6c0.1,0,0.1,0,0.2,0C7.2,9,7,9.1,6.7,9.1c-0.4,0-0.8-0.4-0.8-0.9C5.9,8,6,7.9,6,7.8
			l0-0.1L6,7.7c-0.1,0-0.1,0-0.2,0c0,0,0,0,0,0C5.6,7.8,5.3,7.9,5.1,7.8c-0.2,0-0.4-0.1-0.6-0.2C4.4,7.6,4.4,7.5,4.3,7.4
			c0-0.1,0.1-0.1,0.2-0.2C4.7,7.1,4.9,7,5.1,7c0.2,0,0.5,0,0.6,0.1c0,0,0,0,0,0c0.1,0,0.1,0,0.2,0l0.1,0l0-0.1C6,7,5.9,6.8,5.9,6.7
			c0-0.5,0.4-0.9,0.8-0.9c0.2,0,0.4,0.1,0.6,0.3c-0.1,0-0.1,0-0.2,0c-0.3,0-0.6,0.3-0.6,0.6c0,0.3,0.2,0.5,0.6,0.6l5.6,0
			c0.3,0,0.6-0.3,0.6-0.6c0-0.3-0.3-0.6-0.6-0.6c-0.1,0-0.1,0-0.2,0C12.6,5.9,12.8,5.8,13,5.8z M14,7L14,7L14,7z"/>
	</g>
	<g>
		<path class="st4" d="M9.9,10.7C8.6,9.8,7.8,8.3,7.7,6.5l0,0h2.2H12l0,0C12,8.3,11.1,9.8,9.9,10.7L9.9,10.7z"/>
		<path class="st3" d="M12,6.4H7.6l0,0.1c0.1,1.7,0.9,3.3,2.2,4.2l0.1,0l0.1,0C11.2,9.8,12,8.2,12,6.4L12,6.4L12,6.4z M9.9,6.6
			c0,0,1.9,0,2.1,0c-0.1,1.6-0.9,3.1-2.1,4c-1.2-0.9-2-2.4-2.1-4C8,6.6,9.9,6.6,9.9,6.6z"/>
	</g>
	<path class="st0" d="M9.9,10.2C8.9,9.5,8.3,8.4,8.3,7l0,0h1.6h1.6l0,0c0,0.1,0,0.3,0,0.4c-0.2,0-0.4,0-0.6,0c-0.2,0-0.5,0-0.7,0
		c-0.2,0-0.5,0-0.7,0c-0.2,0-0.5,0-0.7,0c0,0.5,0.2,1,0.5,1.4c0.2,0.4,0.5,0.7,0.9,1C10.1,10,10,10.1,9.9,10.2L9.9,10.2z"/>
	<path class="st0" d="M11.4,7.8c0,0.1-0.1,0.2-0.1,0.3c-0.2,0-0.4,0-0.5,0c-0.2,0-0.5,0-0.7,0c0.1,0.4,0.4,0.7,0.7,1
		c-0.1,0.1-0.2,0.2-0.3,0.3c-0.1-0.1-0.2-0.2-0.4-0.4C9.8,8.8,9.6,8.3,9.4,7.8c0.2,0,0.5,0,0.7,0c0.2,0,0.5,0,0.7,0
		C11,7.8,11.2,7.8,11.4,7.8L11.4,7.8z"/>
	<g>
		<path class="st2" d="M10.1,10.5v0.5l1,0.7l-1.3,6.5l-1.3-6.5l1-0.7v-0.5l0,0c0.1,0.1,0.1,0.1,0.2,0.2C10,10.6,10,10.6,10.1,10.5
			L10.1,10.5z"/>
		<path class="st3" d="M10.1,10.5c0,0-0.2,0.1-0.2,0.2c0,0-0.3-0.2-0.3-0.2l0,0.1c0,0,0,0.4,0,0.5c0,0-1,0.7-1,0.7l1.3,6.5h0.1
			l1.3-6.5c0,0-1-0.7-1-0.7C10.2,11,10.2,10.4,10.1,10.5L10.1,10.5z M9.9,10.7c0,0,0.1-0.1,0.2-0.1c0,0.1,0,0.5,0,0.5s1,0.7,1,0.7
			c0,0.1-1.1,5.7-1.2,6.2c-0.1-0.5-1.2-6.1-1.2-6.2c0.1,0,1-0.7,1-0.7s0-0.3,0-0.4C9.8,10.7,9.9,10.8,9.9,10.7L9.9,10.7z"/>
	</g>
	<g>
		<path class="st5" d="M9.7,6.1h0.4v0.4H9.9H9.7V6.1L9.7,6.1z"/>
		<path class="st3" d="M10.1,6.1H9.6v0.4h0.5L10.1,6.1L10.1,6.1z M10.1,6.1c0,0,0,0.3,0,0.4c0,0-0.4,0-0.4,0c0,0,0-0.3,0-0.4
			C9.7,6.1,10.1,6.1,10.1,6.1z"/>
	</g>
	<g>
		<path class="st6" d="M9.9,5.6c0.4,0,0.8,0.1,0.8,0.3c0,0.2-0.4,0.3-0.8,0.3c-0.4,0-0.8-0.1-0.8-0.3C9.1,5.8,9.4,5.6,9.9,5.6
			L9.9,5.6z"/>
		<path class="st3" d="M9,5.9c0,0.2,0.5,0.4,0.9,0.4c0.4,0,0.9-0.1,0.9-0.4c0-0.2-0.5-0.4-0.9-0.4C9.4,5.5,9,5.7,9,5.9z M9.2,5.9
			c0-0.1,0.3-0.2,0.7-0.2c0.5,0,0.7,0.1,0.7,0.2c0,0.1-0.3,0.2-0.7,0.2C9.4,6.1,9.2,6,9.2,5.9z"/>
	</g>
	<g>
		<path class="st3" d="M9.8,1.9C9.6,2.1,9.4,2.3,9.1,2.4C8.9,2.6,8.8,2.8,8.8,3c0,0.2,0.1,0.5,0.4,0.6c0,0,0,0,0,0.1l0,0
			c0,0,0,0.2,0,0.2C8.9,4,8.6,4.3,8.5,4.6c0,0.1,0,0.1,0,0.2c0,0,0,0,0,0l0,0.1c0,0,0,0,0,0c0.1,0.5,0.3,0.9,0.6,1.1L9.2,6
			c0,0,0,0,0,0c0-0.1,0.3-0.2,0.7-0.2c0.5,0,0.7,0.1,0.7,0.2c0,0,0,0,0,0l0.1,0.1c0.3-0.2,0.5-0.6,0.6-1.2c0,0,0-0.1,0-0.1
			c0,0,0,0,0,0c0-0.1,0-0.1,0-0.2c-0.2-0.3-0.4-0.6-0.8-0.8c0,0,0-0.2,0-0.2c0,0,0,0,0,0c0.2-0.1,0.4-0.3,0.4-0.6
			c0-0.2-0.1-0.4-0.3-0.5c-0.3-0.2-0.5-0.4-0.7-0.6H9.8L9.8,1.9z M8.6,4.9C8.6,4.9,8.6,4.8,8.6,4.9C8.6,4.8,8.6,4.8,8.6,4.9
			c0-0.2,0-0.2,0-0.2C8.8,4.4,9,4.1,9.4,4l0,0V3.6c0-0.1-0.1-0.2-0.1-0.2C9.1,3.3,9,3.2,9,3c0-0.2,0.1-0.3,0.2-0.4
			C9.5,2.4,9.7,2.2,9.9,2c0.2,0.2,0.4,0.4,0.7,0.5c0.1,0.1,0.2,0.2,0.2,0.4c0,0.2-0.1,0.4-0.3,0.4c-0.1,0.1-0.1,0.1-0.1,0.2l0,0v0.3
			l0,0c0.3,0.2,0.6,0.4,0.8,0.7c0,0,0,0.1,0,0.1c0,0,0,0,0,0c0,0,0,0.1,0,0.1c-0.1,0.4-0.2,0.7-0.4,0.9c-0.1-0.2-0.5-0.3-0.9-0.3
			C9.5,5.5,9.1,5.6,9,5.8C8.8,5.6,8.7,5.3,8.6,4.9L8.6,4.9L8.6,4.9L8.6,4.9z"/>
	</g>
	<g>
		<path class="st7" d="M10.4,3.6L10.4,3.6L10.4,3.6v0.2v0l0,0c-0.1-0.1-0.3-0.1-0.5-0.1c-0.2,0-0.4,0-0.5,0.1l0,0v0V3.7v0v0v0l0,0
			c0,0,0,0,0,0c0-0.2,0.3-0.3,0.5-0.3C10.2,3.3,10.4,3.4,10.4,3.6C10.4,3.6,10.4,3.6,10.4,3.6L10.4,3.6L10.4,3.6L10.4,3.6z"/>
		<path class="st3" d="M9.2,3.6L9.2,3.6L9.2,3.6L9.2,3.6l0,0.4L9.4,4c0.1-0.1,0.3-0.1,0.5-0.1s0.4,0,0.5,0.1L10.5,4V3.6l0,0v0
			c0-0.2-0.3-0.4-0.6-0.4C9.5,3.2,9.3,3.4,9.2,3.6z M9.9,3.4c0.2,0,0.4,0.1,0.4,0.2c0,0,0,0,0,0l0,0c0,0,0,0.1,0,0.1
			c-0.1,0-0.3-0.1-0.4-0.1c-0.2,0-0.3,0-0.4,0.1c0-0.1,0-0.2,0-0.2c0,0,0,0,0,0C9.4,3.5,9.6,3.4,9.9,3.4z"/>
	</g>
	<g>
		<rect x="9.8" y="3.3" class="st3" width="0.2" height="0.5"/>
	</g>
	<path class="st3" d="M10.3,5.7c-0.1,0-0.1,0-0.2,0c0.2-0.1,0.3-0.2,0.5-0.3c0.1-0.2,0.2-0.4,0.2-0.6c0-0.3-0.1-0.5-0.2-0.7
		c-0.1-0.2-0.3-0.3-0.6-0.3c-0.2,0-0.4,0.1-0.6,0.3C9.2,4.2,9.1,4.5,9,4.7c0,0.2,0,0.4,0.2,0.6c0.1,0.2,0.3,0.3,0.4,0.4
		c-0.1,0-0.1,0-0.2,0C9.2,5.6,9.1,5.5,9,5.3C8.9,5.2,8.8,5,8.9,4.8c0-0.3,0.1-0.5,0.3-0.7c0.2-0.2,0.4-0.3,0.7-0.3
		c0.3,0,0.5,0.1,0.7,0.3c0.2,0.2,0.3,0.4,0.3,0.7c0,0.2-0.1,0.4-0.2,0.6C10.6,5.5,10.5,5.7,10.3,5.7L10.3,5.7z"/>
	<g>
		<rect x="9.7" y="3.8" class="st3" width="0.3" height="1.8"/>
	</g>
</g>
</svg>
