<?xml version="1.0" encoding="utf-8"?>
<!-- Generator: Adobe Illustrator 19.1.0, SVG Export Plug-In . SVG Version: 6.00 Build 0)  -->
<svg version="1.1" id="Layer_1" xmlns="http://www.w3.org/2000/svg" xmlns:xlink="http://www.w3.org/1999/xlink" x="0px" y="0px"
	 viewBox="0 0 20 20" style="enable-background:new 0 0 20 20;" xml:space="preserve">
<style type="text/css">
	.st0{fill-rule:evenodd;clip-rule:evenodd;fill:#A89066;}
	.st1{fill-rule:evenodd;clip-rule:evenodd;fill:#FFFFFF;}
	.st2{fill-rule:evenodd;clip-rule:evenodd;fill:#8E4F90;}
	.st3{fill-rule:evenodd;clip-rule:evenodd;fill:#6C9DBE;}
	.st4{fill-rule:evenodd;clip-rule:evenodd;fill:#E56372;}
</style>
<g>
	<path class="st0" d="M15.6,11.2C15.5,9.8,15,8.6,14,7.6c-0.5-0.5-1.1-0.9-1.7-1.2l0.2,0l-0.1-0.2l0,0l0,0c0.2-0.1,0.2-0.2,0.2-0.3
		c0.2,0,0.2-0.1,0.2-0.2c0.1,0,0.2,0,0.2-0.1c0,0,0.1,0,0.1,0c0.1,0,0.1-0.1,0.1-0.1c0,0,0-0.1,0-0.1c0,0-0.1-0.1-0.1-0.1l0,0l0-0.1
		l0.1,0c0,0,0-0.1,0-0.1c0,0,0-0.1,0-0.1l0,0c0,0,0-0.1,0.1-0.1c0-0.1,0-0.1-0.1-0.1l0,0c0,0,0-0.1,0.1-0.1c0-0.1,0-0.1-0.1-0.1
		c0,0,0,0-0.1,0c0,0,0-0.1,0-0.1c0,0,0-0.1,0-0.1c0,0-0.1,0-0.1,0l0,0c0-0.1,0-0.1-0.1-0.1c0,0-0.1,0-0.1,0l0,0v0
		c0-0.1,0-0.1-0.1-0.1c0,0-0.1-0.1-0.1-0.1c0,0-0.1,0-0.1,0c0,0,0-0.1,0-0.1c0,0-0.1-0.1-0.1-0.1c0,0-0.1,0-0.1,0.1c0,0,0-0.1,0-0.1
		c0,0-0.1-0.1-0.1-0.1c0,0-0.1,0-0.1,0.1c0,0,0,0,0-0.1c0,0-0.1-0.1-0.1-0.1c0,0-0.1,0-0.1,0.1c0,0,0,0,0,0l0,0c0,0-0.1-0.1-0.1-0.1
		c0,0-0.1,0-0.1,0.1l0,0c0,0,0,0-0.1,0h0c0,0,0-0.1,0-0.1c0,0,0,0-0.1,0h0c0,0,0,0-0.1,0l0-0.1l0,0c0,0-0.1,0-0.1,0h0c0,0,0,0,0,0
		c0,0,0,0,0,0c0,0,0,0,0,0c0,0-0.1,0-0.1,0l-0.1,0c0,0,0,0,0,0c0,0-0.1,0-0.1,0c0,0-0.1,0-0.1,0l0,0c0,0-0.1,0-0.1,0
		c0,0-0.1,0-0.1,0c0,0,0,0,0,0l-0.1,0l0-0.1c0-0.1,0-0.1-0.1-0.2c0,0-0.1,0-0.1,0c0,0,0,0,0,0h0V2.6h0.1V2.4H10V2.2H9.8l0,0.2H9.7
		v0.2h0.1v0.1l0,0h0l-0.1,0c-0.1,0-0.1,0.1-0.1,0.2l0,0.1L9.5,3l0,0c0,0-0.1,0-0.1,0c0,0-0.1,0-0.1,0l0,0c0,0-0.1,0-0.1,0
		c0,0-0.1,0-0.1,0c0,0,0,0,0,0L9,3c0,0-0.1,0-0.1,0c0,0,0,0,0,0c0,0,0,0,0,0c0,0,0,0,0,0h0c0,0-0.1,0-0.1,0l0,0l0,0.1c0,0,0,0-0.1,0
		h0c0,0-0.1,0-0.1,0c0,0,0,0.1,0,0.1h0c0,0,0,0-0.1,0l0,0c0,0-0.1-0.1-0.1-0.1c0,0-0.1,0-0.1,0.1c0,0,0,0,0,0c0,0,0,0,0,0
		C8,3.3,8,3.3,8,3.3c0,0-0.1,0-0.1,0.1c0,0,0,0,0,0.1h0c0,0-0.1-0.1-0.1-0.1c0,0-0.1,0-0.1,0.1c0,0,0,0.1,0,0.1c0,0-0.1-0.1-0.1-0.1
		c0,0-0.1,0-0.1,0.1c0,0,0,0.1-0.1,0.1c0,0-0.1,0-0.1,0c0,0-0.1,0-0.1,0.1c0,0,0,0.1,0,0.1v0l0,0c0,0-0.1,0-0.1,0c0,0,0,0.1,0,0.1
		l0,0c0,0-0.1,0-0.1,0c0,0-0.1,0.1-0.1,0.1c0,0,0,0.1,0,0.1c0,0,0,0-0.1,0c0,0,0,0.1,0,0.1c0,0,0,0.1,0,0.1l0,0c0,0,0,0.1,0,0.1
		c0,0,0,0.1,0,0.1l0,0c0,0,0,0.1,0,0.1c0,0,0,0.1,0.1,0.1l0.1,0l0,0.1l0,0c0,0-0.1,0-0.1,0.1c0,0,0,0.1,0,0.1c0,0.1,0,0.1,0.1,0.1
		c0.1,0,0.1,0,0.1,0c0.1,0,0.1,0.1,0.2,0.1c0,0.1,0.1,0.2,0.2,0.2c0,0.2,0,0.3,0.2,0.3l0,0v0L7.3,6.4l0.2,0.1
		C7.1,6.6,6.6,6.9,6.2,7.3L4.7,6.7v0c0,0,0-0.1,0-0.1c0,0,0,0-0.1,0H4c0,0,0,0-0.1,0c0,0,0,0.1,0,0.1v0.1c0,0,0,0.1,0,0.1
		c0,0,0,0,0.1,0h0V18l0.5-0.2v-1.5L6,15.8l0,0c1.1,1,2.4,1.5,3.9,1.5h0.2c1.5,0,2.8-0.6,3.9-1.7c1-1,1.5-2.1,1.7-3.5l1.2-0.5
		L15.6,11.2L15.6,11.2z M9.9,8.4l0.2,0c0.8,0,1.5,0.3,2.1,0.9c0.2,0.2,0.3,0.4,0.5,0.6L9.2,8.5C9.4,8.5,9.6,8.4,9.9,8.4L9.9,8.4z
		 M12.2,13.9c-0.6,0.6-1.3,0.9-2.1,0.9l-0.2,0c-0.4,0-0.7-0.1-1-0.2l3.9-1.4C12.6,13.5,12.4,13.7,12.2,13.9L12.2,13.9z"/>
	<path class="st1" d="M8.5,5.9l0.2-0.3l0.4,0.2L8.9,6C9.2,6,9.5,6,9.9,6l0.2,0c0.3,0,0.6,0,0.9,0.1l-0.2-0.2l0.4-0.2l0.2,0.3L11,6.1
		c0.3,0.1,0.6,0.1,0.9,0.2l-0.1-0.2l0.3,0c-0.3-0.2-0.7-0.3-1.1-0.4c-0.3-0.1-0.7-0.1-1.1-0.1H9.8c-0.4,0-0.7,0-1.1,0.1
		C8.3,5.8,7.9,5.9,7.6,6.1l0.3,0L7.8,6.3c0.3-0.1,0.6-0.2,0.9-0.3L8.5,5.9L8.5,5.9z"/>
	<path class="st1" d="M9.9,2.7c0.1,0,0.1,0,0.1,0c0,0,0.1,0.1,0.1,0.1c0,0,0,0.1-0.1,0.1l0,0c0,0,0,0,0-0.1c0,0-0.1,0-0.1,0
		c0,0-0.1,0-0.1,0c0,0,0,0,0,0.1l0,0c0,0-0.1-0.1-0.1-0.1c0,0,0-0.1,0.1-0.1C9.8,2.8,9.8,2.7,9.9,2.7L9.9,2.7z"/>
	<path class="st1" d="M9.9,2.3L9.9,2.3L10,2.4h0.1v0.1H10v0.2h0c0,0,0,0,0,0l0,0V2.5H9.8V2.4h0.1V2.3L9.9,2.3z"/>
	<path class="st1" d="M7.1,10c-0.1,0.2-0.3,0.5-0.3,0.8h1.1L7.1,10L7.1,10z"/>
	<path class="st1" d="M4.6,7.5v2C4.7,9,5,8.6,5.3,8.2L4.6,7.5L4.6,7.5z"/>
	<path class="st1" d="M8.9,12.6H6.8c0,0.1,0.1,0.2,0.1,0.3c0.1,0.3,0.3,0.6,0.5,0.8L7.7,14c0.3,0.3,0.6,0.5,1,0.6l0.3-0.1V12.6
		L8.9,12.6z"/>
	<path class="st1" d="M4.6,13.8v2.4l1.3-0.5l-0.2-0.2C5.2,14.9,4.8,14.4,4.6,13.8L4.6,13.8z"/>
	<path class="st1" d="M6.1,7.4L4.7,6.8c0,0,0,0,0,0.1l1,1c0.1-0.1,0.1-0.1,0.2-0.2C5.9,7.5,6,7.5,6.1,7.4L6.1,7.4z"/>
	<path class="st1" d="M8.9,10.7V8.6C8.4,8.7,8,9,7.6,9.4C7.5,9.4,7.5,9.5,7.4,9.6l1.2,1.2H8.9L8.9,10.7z"/>
	<polygon class="st1" points="10.8,9.4 10.8,10.7 14.1,10.7 10.8,9.4 	"/>
	<polygon class="st1" points="10.8,12.6 10.8,13.8 14,12.6 10.8,12.6 	"/>
	<path class="st1" d="M4.2,12.9L4.2,12.9l0,4.9l0.2-0.1v-4.6C4.3,13.1,4.3,13,4.2,12.9C4.3,12.9,4.2,12.9,4.2,12.9L4.2,12.9z"/>
	<path class="st1" d="M4.3,6.8H4.2V11c0-0.3,0.1-0.6,0.2-0.9V6.8L4.3,6.8z"/>
	<path class="st2" d="M14.5,10.9h-3.8V9.3L9.1,8.6v2.2H6.7c-0.1,0.2-0.1,0.5-0.1,0.8c0,0,0,0,0,0.1v0.2c0,0.2,0,0.4,0.1,0.6h2.3v2
		l1.6-0.6v-1.4h3.7l2.1-0.8L14.5,10.9L14.5,10.9z"/>
	<path class="st0" d="M9.8,10.9L9.8,10.9L9.8,10.9L9.8,10.9C9.8,10.9,9.8,11,9.8,11v0l0,0c0,0,0,0,0,0c0,0,0,0,0,0c0,0,0,0,0,0
		c0,0,0,0,0,0l0,0c0,0,0,0,0,0c0,0,0,0,0,0l0,0c0,0,0,0,0,0c0,0,0,0,0,0h0c0,0,0,0,0,0l0,0c0,0,0,0,0,0h0c0,0,0,0,0,0c0,0,0,0,0,0h0
		l0,0c0,0,0,0,0,0c0,0,0,0,0,0c0,0,0,0,0,0l0,0c0,0,0,0,0,0c0,0,0,0,0,0c0,0,0,0,0,0l0,0c0,0,0,0,0,0c0,0,0,0,0,0l0,0c0,0,0,0,0,0
		c0,0,0,0,0,0c0,0,0,0,0,0c0,0,0,0,0,0c0,0,0,0,0,0c0,0,0,0,0,0v0c0,0,0,0,0,0c0,0,0,0,0,0c0,0,0,0,0,0v0l0,0c0,0,0,0,0,0l0,0
		c0,0,0,0,0,0c0,0,0,0,0,0c0,0,0,0,0,0c0,0,0,0,0,0c0,0,0,0,0,0c0,0,0,0,0,0c0,0,0,0,0,0c0,0,0,0,0,0c0,0,0,0,0,0l0,0c0,0,0,0,0,0v0
		c0,0,0,0,0,0c0,0,0,0,0,0.1c0,0,0,0,0,0c0,0,0,0,0.1,0c0,0,0,0,0.1,0c0,0,0,0.1,0.1,0.1c0,0.1,0,0.1,0.1,0.1l0,0l0,0.1l0.1,0l0,0.1
		c0.2-0.1,0.5-0.2,0.7-0.2h0.1c0.3,0,0.5,0.1,0.7,0.2l0-0.1l0.1,0l0-0.1v0c0.1,0,0.1-0.1,0.1-0.1c0.1,0,0.1,0,0.1-0.1
		c0,0,0.1,0,0.1,0c0,0,0,0,0.1,0c0,0,0,0,0,0l0-0.1l0,0v0c0,0,0,0,0,0c0,0,0,0,0,0c0,0,0,0,0,0c0,0,0,0,0,0c0,0,0,0,0,0c0,0,0,0,0,0
		c0,0,0,0,0,0c0,0,0,0,0,0c0,0,0,0,0,0c0,0,0,0,0,0l0,0c0,0,0,0,0,0l0,0v0c0,0,0,0,0,0c0,0,0,0,0,0c0,0,0,0,0,0v0c0,0,0,0,0,0
		c0,0,0,0,0,0c0,0,0,0,0,0l0,0c0,0,0,0,0,0c0,0,0,0,0,0l0,0c0,0,0,0,0,0c0,0,0,0,0,0l0,0c0,0,0,0,0,0c0,0,0,0,0,0l0,0c0,0,0,0,0,0
		c0,0,0,0,0,0c0,0,0,0,0,0c0,0,0,0,0,0c0,0,0,0,0,0h0c0,0,0,0,0,0l0,0h0c0,0,0,0,0,0l0,0c0,0,0,0,0,0l0,0h0l0,0c0,0,0,0,0,0
		c0,0,0,0,0,0c0,0,0,0,0,0c0,0,0,0,0,0c0,0,0,0,0,0c0,0,0,0,0,0c0,0,0,0,0,0c0,0,0,0,0,0c0,0,0,0,0,0c0,0,0,0,0,0l0,0l0,0
		c0,0,0,0,0-0.1C10,10.9,9.9,10.9,9.8,10.9L9.8,10.9H10v-0.1L9.8,10.9l0.1-0.1H9.8L9.8,10.9L9.8,10.9L9.8,10.9L9.8,10.9L9.8,10.9z
		 M9.6,11C9.6,11,9.6,11,9.6,11C9.6,11,9.6,11,9.6,11C9.6,11,9.6,11.1,9.6,11C9.6,11.1,9.6,11.1,9.6,11C9.6,11.1,9.6,11.1,9.6,11
		C9.6,11.1,9.6,11.1,9.6,11C9.6,11.1,9.6,11.1,9.6,11C9.6,11,9.6,11,9.6,11L9.6,11z M9.6,11.1C9.6,11.1,9.6,11.1,9.6,11.1
		C9.6,11.1,9.6,11.1,9.6,11.1C9.6,11.1,9.6,11.1,9.6,11.1L9.6,11.1L9.6,11.1C9.5,11.1,9.5,11.1,9.6,11.1L9.6,11.1
		C9.5,11.1,9.5,11.1,9.6,11.1C9.5,11.1,9.6,11.1,9.6,11.1C9.6,11.1,9.6,11.1,9.6,11.1L9.6,11.1z M9.7,11.1
		C9.7,11.1,9.8,11.1,9.7,11.1C9.8,11.1,9.8,11.1,9.7,11.1C9.8,11.1,9.8,11.1,9.7,11.1c0,0.1,0,0.2,0,0.4c0,0,0,0,0,0l0,0
		C9.7,11.4,9.7,11.3,9.7,11.1C9.7,11.1,9.7,11.1,9.7,11.1L9.7,11.1z M9.7,11.1L9.7,11.1c-0.2,0.1-0.3,0.1-0.3,0.2
		c0,0.1,0,0.1,0.1,0.2c0,0,0,0,0,0c0,0-0.1-0.1-0.1-0.1c0,0,0-0.1,0-0.1C9.5,11.2,9.6,11.1,9.7,11.1C9.7,11.1,9.7,11.1,9.7,11.1
		L9.7,11.1z M9.9,10.9C9.9,10.9,9.9,10.9,9.9,10.9C9.9,11,10,11,9.9,10.9C10,11,9.9,11,9.9,10.9C9.9,11,9.9,11,9.9,10.9
		C9.9,11,9.9,11,9.9,10.9L9.9,10.9L9.9,10.9C9.8,11,9.8,11,9.9,10.9C9.8,11,9.8,11,9.9,10.9C9.8,11,9.8,11,9.9,10.9
		C9.8,11,9.8,11,9.9,10.9C9.8,10.9,9.9,10.9,9.9,10.9L9.9,10.9z M9.9,11.2C9.9,11.2,9.9,11.2,9.9,11.2C9.9,11.2,9.9,11.2,9.9,11.2
		C9.9,11.2,9.9,11.2,9.9,11.2C9.9,11.2,9.9,11.2,9.9,11.2C9.9,11.2,9.9,11.2,9.9,11.2C9.9,11.2,9.9,11.2,9.9,11.2
		C9.9,11.2,9.9,11.2,9.9,11.2C9.9,11.2,9.9,11.2,9.9,11.2L9.9,11.2z M9.9,11.1C9.9,11.1,9.9,11.1,9.9,11.1
		C9.9,11.1,9.9,11.1,9.9,11.1C9.9,11.1,9.9,11.1,9.9,11.1C9.9,11.1,9.9,11.1,9.9,11.1C9.9,11.2,9.9,11.2,9.9,11.1
		C9.9,11.2,9.9,11.2,9.9,11.1C9.9,11.2,9.9,11.2,9.9,11.1C9.9,11.2,9.9,11.1,9.9,11.1L9.9,11.1z M9.9,11.1
		C9.9,11.1,9.9,11.1,9.9,11.1C9.9,11.1,9.9,11.1,9.9,11.1C9.9,11.1,9.9,11.1,9.9,11.1L9.9,11.1C9.9,11.1,9.9,11.1,9.9,11.1
		C9.9,11.1,9.9,11.1,9.9,11.1C9.9,11.1,9.9,11.1,9.9,11.1C9.9,11.1,9.9,11.1,9.9,11.1L9.9,11.1z M10.1,11C10.1,11,10.1,11.1,10.1,11
		C10.1,11.1,10.1,11.1,10.1,11C10.1,11.1,10.1,11.1,10.1,11C10.1,11.1,10.1,11.1,10.1,11C10.1,11.1,10.1,11.1,10.1,11
		C10.1,11,10.1,11,10.1,11C10.1,11,10.1,11,10.1,11C10.1,11,10.1,11,10.1,11L10.1,11z M10,11.1C10,11.1,10,11.1,10,11.1
		c0.1,0,0.2,0.1,0.3,0.2c0,0.1,0,0.1,0,0.1c0,0,0,0.1-0.1,0.1c0,0,0,0,0,0c0.1,0,0.1-0.1,0.1-0.2C10.3,11.3,10.2,11.2,10,11.1
		C10,11.1,10,11.1,10,11.1L10,11.1z M10.2,11.1L10.2,11.1L10.2,11.1C10.2,11.1,10.2,11.1,10.2,11.1L10.2,11.1L10.2,11.1
		C10.2,11.1,10.2,11.1,10.2,11.1C10.2,11.1,10.2,11.1,10.2,11.1C10.2,11.1,10.2,11.1,10.2,11.1C10.2,11.1,10.2,11.1,10.2,11.1
		C10.2,11.1,10.2,11.1,10.2,11.1L10.2,11.1z M10.3,11.1C10.3,11.1,10.3,11.1,10.3,11.1C10.3,11.1,10.3,11.1,10.3,11.1
		C10.3,11.1,10.3,11.1,10.3,11.1C10.3,11.1,10.3,11.1,10.3,11.1C10.3,11.1,10.3,11.1,10.3,11.1C10.3,11.2,10.3,11.2,10.3,11.1
		C10.3,11.2,10.3,11.2,10.3,11.1C10.3,11.1,10.3,11.1,10.3,11.1L10.3,11.1L10.3,11.1z M10.2,11.1C10.2,11.1,10.2,11.1,10.2,11.1
		L10.2,11.1C10.3,11.1,10.3,11.1,10.2,11.1C10.3,11.1,10.3,11.1,10.2,11.1C10.3,11.1,10.3,11.1,10.2,11.1
		C10.3,11.1,10.3,11.1,10.2,11.1C10.3,11.1,10.2,11.1,10.2,11.1L10.2,11.1L10.2,11.1C10.2,11.1,10.2,11.1,10.2,11.1L10.2,11.1z
		 M10.4,11.2C10.4,11.2,10.4,11.2,10.4,11.2C10.4,11.2,10.4,11.2,10.4,11.2L10.4,11.2L10.4,11.2C10.5,11.2,10.5,11.2,10.4,11.2
		C10.5,11.2,10.5,11.2,10.4,11.2L10.4,11.2L10.4,11.2C10.5,11.2,10.5,11.2,10.4,11.2C10.5,11.2,10.5,11.2,10.4,11.2L10.4,11.2z
		 M10.5,11.2C10.5,11.2,10.5,11.2,10.5,11.2C10.5,11.2,10.5,11.2,10.5,11.2C10.5,11.2,10.6,11.2,10.5,11.2
		C10.6,11.2,10.6,11.2,10.5,11.2C10.6,11.2,10.6,11.2,10.5,11.2C10.6,11.2,10.6,11.2,10.5,11.2C10.6,11.2,10.6,11.2,10.5,11.2
		C10.6,11.2,10.5,11.2,10.5,11.2L10.5,11.2z M10.7,11.2C10.7,11.2,10.7,11.2,10.7,11.2L10.7,11.2C10.7,11.2,10.7,11.2,10.7,11.2
		C10.7,11.2,10.7,11.2,10.7,11.2C10.6,11.2,10.6,11.2,10.7,11.2C10.6,11.2,10.6,11.2,10.7,11.2C10.6,11.2,10.6,11.2,10.7,11.2
		C10.6,11.2,10.6,11.2,10.7,11.2L10.7,11.2z M9.1,11.2C9.1,11.2,9.1,11.2,9.1,11.2C9.1,11.2,9.1,11.2,9.1,11.2
		C9.1,11.2,9.1,11.2,9.1,11.2C9.1,11.2,9.1,11.2,9.1,11.2C9.1,11.2,9.1,11.2,9.1,11.2C9.1,11.2,9.1,11.2,9.1,11.2
		C9.1,11.2,9.1,11.2,9.1,11.2C9.1,11.2,9.1,11.2,9.1,11.2L9.1,11.2z M9.2,11.2C9.2,11.2,9.2,11.2,9.2,11.2
		C9.2,11.2,9.2,11.2,9.2,11.2C9.2,11.2,9.2,11.2,9.2,11.2C9.2,11.2,9.2,11.2,9.2,11.2C9.2,11.2,9.2,11.2,9.2,11.2
		C9.2,11.2,9.2,11.2,9.2,11.2C9.2,11.2,9.2,11.2,9.2,11.2C9.2,11.2,9.2,11.2,9.2,11.2L9.2,11.2z M9.3,11.2
		C9.3,11.2,9.3,11.2,9.3,11.2L9.3,11.2L9.3,11.2C9.3,11.2,9.3,11.2,9.3,11.2C9.3,11.2,9.3,11.2,9.3,11.2C9.3,11.2,9.3,11.2,9.3,11.2
		C9.3,11.2,9.3,11.2,9.3,11.2L9.3,11.2C9.3,11.2,9.3,11.2,9.3,11.2C9.3,11.2,9.3,11.2,9.3,11.2L9.3,11.2z M9.5,11.1L9.5,11.1
		C9.5,11.1,9.5,11.1,9.5,11.1L9.5,11.1L9.5,11.1C9.5,11.1,9.5,11.1,9.5,11.1C9.5,11.1,9.5,11.1,9.5,11.1C9.5,11.1,9.5,11.1,9.5,11.1
		C9.5,11.1,9.5,11.1,9.5,11.1C9.5,11.1,9.5,11.1,9.5,11.1L9.5,11.1L9.5,11.1z M9.4,11.1C9.4,11.1,9.4,11.1,9.4,11.1
		C9.4,11.1,9.4,11.1,9.4,11.1L9.4,11.1C9.5,11.1,9.5,11.1,9.4,11.1C9.5,11.1,9.5,11.1,9.4,11.1C9.4,11.2,9.4,11.2,9.4,11.1
		C9.4,11.2,9.4,11.2,9.4,11.1C9.4,11.1,9.4,11.1,9.4,11.1C9.4,11.1,9.4,11.1,9.4,11.1L9.4,11.1z M9.4,11.2L9.4,11.2
		C9.4,11.3,9.4,11.3,9.4,11.2C9.3,11.3,9.3,11.3,9.4,11.2C9.3,11.3,9.3,11.3,9.4,11.2C9.3,11.3,9.3,11.3,9.4,11.2
		C9.3,11.2,9.3,11.2,9.4,11.2C9.3,11.2,9.3,11.2,9.4,11.2C9.3,11.2,9.3,11.2,9.4,11.2L9.4,11.2z M9.3,11.3
		C9.3,11.3,9.3,11.3,9.3,11.3C9.3,11.3,9.3,11.3,9.3,11.3C9.3,11.4,9.3,11.4,9.3,11.3C9.3,11.4,9.3,11.4,9.3,11.3
		C9.3,11.3,9.3,11.3,9.3,11.3C9.3,11.3,9.3,11.3,9.3,11.3C9.3,11.3,9.3,11.3,9.3,11.3C9.3,11.3,9.3,11.3,9.3,11.3L9.3,11.3z
		 M9.3,11.5C9.3,11.5,9.3,11.5,9.3,11.5C9.3,11.5,9.3,11.5,9.3,11.5C9.3,11.4,9.3,11.4,9.3,11.5L9.3,11.5
		C9.3,11.4,9.3,11.4,9.3,11.5C9.3,11.4,9.3,11.4,9.3,11.5L9.3,11.5C9.3,11.4,9.3,11.4,9.3,11.5L9.3,11.5z M9.1,11.3
		C9.1,11.3,9.1,11.3,9.1,11.3c0,0.1,0,0.2,0,0.2c0,0.1-0.1,0.1-0.1,0l0,0.1c-0.1-0.1-0.1-0.1-0.1-0.2C9,11.3,9.1,11.3,9.1,11.3
		L9.1,11.3z M9.2,11.6C9.2,11.6,9.2,11.6,9.2,11.6c-0.1-0.2-0.1-0.3,0-0.4C9.2,11.3,9.2,11.4,9.2,11.6L9.2,11.6z M9.2,11.8
		C9.3,11.7,9.3,11.7,9.2,11.8C9.3,11.7,9.3,11.7,9.2,11.8c0.1-0.1,0.1,0,0.1,0C9.3,11.8,9.3,11.8,9.2,11.8
		C9.3,11.8,9.3,11.8,9.2,11.8L9.2,11.8z M9.1,11.8C9.1,11.8,9.2,11.8,9.1,11.8C9.2,11.8,9.2,11.8,9.1,11.8L9.1,11.8L9.1,11.8
		C9.2,11.8,9.2,11.8,9.1,11.8L9.1,11.8C9.1,11.8,9.1,11.8,9.1,11.8L9.1,11.8L9.1,11.8z M9.1,11.6C9.1,11.6,9.1,11.6,9.1,11.6
		c0.1,0,0.1,0,0.1,0c0,0,0,0.1,0,0.1c-0.1,0-0.1,0-0.1,0C9.1,11.7,9.1,11.7,9.1,11.6C9.1,11.7,9.1,11.7,9.1,11.6L9.1,11.6z
		 M9.5,11.6C9.4,11.6,9.4,11.6,9.5,11.6c-0.1,0.1-0.1,0.1-0.1,0.1c0,0,0,0-0.1,0c0,0,0.1-0.1,0.1-0.1C9.4,11.6,9.4,11.6,9.5,11.6
		L9.5,11.6z M9.4,11.7C9.4,11.7,9.4,11.7,9.4,11.7C9.4,11.7,9.4,11.7,9.4,11.7C9.4,11.7,9.4,11.7,9.4,11.7
		C9.4,11.7,9.4,11.7,9.4,11.7C9.4,11.7,9.4,11.7,9.4,11.7C9.4,11.7,9.4,11.7,9.4,11.7C9.4,11.7,9.4,11.7,9.4,11.7
		C9.4,11.7,9.4,11.7,9.4,11.7L9.4,11.7z M9.5,11.8C9.5,11.7,9.5,11.7,9.5,11.8c0-0.1,0-0.1,0-0.1c0,0,0,0,0-0.1c0,0,0.1,0.1,0.1,0.1
		C9.5,11.7,9.5,11.7,9.5,11.8L9.5,11.8z M9,11.2C9,11.2,9,11.2,9,11.2C9,11.2,9,11.2,9,11.2C9,11.2,9,11.2,9,11.2
		C9,11.2,9,11.2,9,11.2L9,11.2C9,11.3,9,11.3,9,11.2C9,11.3,9,11.3,9,11.2C9,11.2,9,11.2,9,11.2L9,11.2z M8.9,11.3
		C8.9,11.3,8.9,11.3,8.9,11.3C8.9,11.3,8.9,11.3,8.9,11.3C8.9,11.3,8.9,11.3,8.9,11.3C8.9,11.3,8.9,11.3,8.9,11.3
		C8.9,11.3,8.9,11.3,8.9,11.3C8.9,11.3,8.9,11.3,8.9,11.3C8.9,11.3,8.9,11.3,8.9,11.3C8.9,11.3,8.9,11.3,8.9,11.3L8.9,11.3z
		 M8.8,11.3C8.8,11.3,8.8,11.3,8.8,11.3L8.8,11.3L8.8,11.3L8.8,11.3L8.8,11.3L8.8,11.3C8.8,11.4,8.8,11.4,8.8,11.3
		C8.8,11.4,8.8,11.4,8.8,11.3C8.8,11.3,8.8,11.3,8.8,11.3L8.8,11.3z M8.8,11.4C8.8,11.4,8.8,11.4,8.8,11.4
		C8.8,11.4,8.8,11.4,8.8,11.4C8.8,11.4,8.8,11.4,8.8,11.4C8.8,11.4,8.8,11.4,8.8,11.4L8.8,11.4L8.8,11.4C8.8,11.5,8.8,11.4,8.8,11.4
		C8.8,11.4,8.8,11.4,8.8,11.4C8.8,11.4,8.8,11.4,8.8,11.4C8.8,11.4,8.8,11.4,8.8,11.4L8.8,11.4z M8.8,11.5
		C8.8,11.5,8.8,11.5,8.8,11.5C8.8,11.5,8.8,11.5,8.8,11.5C8.8,11.5,8.8,11.5,8.8,11.5C8.8,11.5,8.8,11.5,8.8,11.5
		C8.8,11.5,8.8,11.5,8.8,11.5L8.8,11.5C8.8,11.5,8.7,11.5,8.8,11.5C8.7,11.5,8.8,11.5,8.8,11.5C8.8,11.5,8.8,11.5,8.8,11.5
		C8.8,11.5,8.8,11.5,8.8,11.5L8.8,11.5z M8.8,11.6C8.8,11.6,8.8,11.6,8.8,11.6C8.8,11.6,8.8,11.6,8.8,11.6
		C8.8,11.6,8.8,11.6,8.8,11.6C8.8,11.6,8.8,11.6,8.8,11.6C8.8,11.6,8.8,11.6,8.8,11.6C8.8,11.6,8.8,11.6,8.8,11.6
		C8.8,11.6,8.8,11.6,8.8,11.6C8.8,11.6,8.8,11.6,8.8,11.6L8.8,11.6z M8.8,11.7L8.8,11.7C8.8,11.6,8.8,11.6,8.8,11.7
		C8.8,11.6,8.8,11.6,8.8,11.7C8.8,11.7,8.8,11.7,8.8,11.7C8.8,11.7,8.8,11.7,8.8,11.7L8.8,11.7C8.8,11.7,8.8,11.7,8.8,11.7
		C8.8,11.7,8.8,11.7,8.8,11.7C8.8,11.7,8.8,11.7,8.8,11.7C8.8,11.7,8.8,11.7,8.8,11.7L8.8,11.7z M8.8,11.7
		C8.8,11.7,8.8,11.7,8.8,11.7C8.8,11.7,8.8,11.7,8.8,11.7L8.8,11.7C8.9,11.7,8.9,11.7,8.8,11.7C8.9,11.8,8.9,11.8,8.8,11.7L8.8,11.7
		C8.8,11.8,8.8,11.8,8.8,11.7C8.8,11.8,8.8,11.8,8.8,11.7L8.8,11.7L8.8,11.7z M9,11.7L9,11.7C9,11.7,9,11.7,9,11.7
		c-0.1,0-0.2-0.1-0.2-0.2v0c0-0.1,0.1-0.2,0.3-0.2c-0.1,0.1-0.2,0.2-0.2,0.2C8.9,11.6,8.9,11.6,9,11.7L9,11.7z M9,11.9
		C9,11.9,9,11.8,9,11.9c0-0.1,0-0.1,0-0.1C9,11.8,9.1,11.8,9,11.9C9.1,11.8,9.1,11.9,9,11.9C9.1,11.9,9.1,11.9,9,11.9L9,11.9z
		 M8.9,11.9C8.9,11.9,8.8,11.9,8.9,11.9C8.8,11.9,8.8,11.8,8.9,11.9c0-0.1,0-0.1,0.1-0.1C8.9,11.8,8.9,11.8,8.9,11.9
		C8.9,11.9,8.8,11.9,8.9,11.9L8.9,11.9z M8.9,12C8.9,12,8.9,11.9,8.9,12C8.9,11.9,9,11.9,8.9,12C9,11.9,9,11.9,8.9,12
		C9,11.9,9,12,8.9,12C9,12,9,12,8.9,12C9,12,9,12,8.9,12C9,12,8.9,12,8.9,12C8.9,12,8.9,12,8.9,12L8.9,12z M9,12C9,12,9,12,9,12
		c0.1-0.1,0.2-0.1,0.2-0.2c0.1,0,0.2,0,0.2-0.1c0.1,0.1,0.1,0.1,0.2,0c0.1,0.1,0.2,0.1,0.2,0c0.1,0.1,0.2,0.1,0.2,0
		c0.1,0.1,0.2,0.1,0.2,0c0,0.1,0.1,0.1,0.2,0.1c0,0.1,0.1,0.1,0.2,0.1c0,0,0,0,0,0c-0.1,0-0.2,0-0.2-0.1c-0.1,0-0.1,0-0.2-0.1
		c-0.1,0-0.1,0-0.2,0c-0.1,0-0.1,0-0.2,0c-0.1,0.1-0.2,0.1-0.2,0c-0.1,0.1-0.1,0.1-0.2,0c-0.1,0.1-0.1,0.1-0.2,0.1
		C9.2,12,9.1,12,9,12L9,12z M9.4,12L9.4,12l0.1,0L9.4,12L9.4,12L9.4,12z M9.1,12.1L9.1,12.1l-0.1,0L9.1,12.1L9.1,12.1L9.1,12.1
		L9.1,12.1z M10.9,11.4C10.9,11.4,10.9,11.4,10.9,11.4C11,11.4,11,11.4,10.9,11.4C11,11.4,11,11.4,10.9,11.4
		C11,11.4,11,11.4,10.9,11.4L10.9,11.4C11,11.5,11,11.5,10.9,11.4C10.9,11.5,10.9,11.4,10.9,11.4C10.9,11.4,10.9,11.4,10.9,11.4
		C10.9,11.4,10.9,11.4,10.9,11.4L10.9,11.4z M11,11.5C11,11.5,11,11.5,11,11.5C11,11.5,11,11.5,11,11.5C11,11.5,11,11.5,11,11.5
		C11,11.5,11,11.5,11,11.5C11,11.5,11,11.5,11,11.5C11,11.5,11,11.5,11,11.5L11,11.5C10.9,11.5,10.9,11.5,11,11.5
		C11,11.5,11,11.5,11,11.5C11,11.5,11,11.5,11,11.5L11,11.5z M10.9,11.6C10.9,11.6,10.9,11.6,10.9,11.6C10.9,11.6,11,11.6,10.9,11.6
		C11,11.6,11,11.6,10.9,11.6C11,11.6,11,11.6,10.9,11.6C11,11.6,11,11.6,10.9,11.6C11,11.6,11,11.6,10.9,11.6
		C11,11.6,10.9,11.6,10.9,11.6C10.9,11.6,10.9,11.6,10.9,11.6L10.9,11.6z M10.9,11.7C10.9,11.7,10.9,11.7,10.9,11.7
		C10.9,11.7,10.9,11.7,10.9,11.7C10.9,11.7,10.9,11.7,10.9,11.7C10.9,11.7,10.9,11.7,10.9,11.7C10.9,11.6,10.9,11.6,10.9,11.7
		C11,11.6,11,11.6,10.9,11.7L10.9,11.7C11,11.7,11,11.7,10.9,11.7C11,11.7,11,11.7,10.9,11.7C11,11.7,11,11.7,10.9,11.7L10.9,11.7z
		 M10.9,11.8C10.9,11.8,10.9,11.8,10.9,11.8L10.9,11.8C10.9,11.8,10.9,11.8,10.9,11.8C10.9,11.8,10.9,11.8,10.9,11.8
		C10.9,11.7,10.9,11.7,10.9,11.8C10.9,11.7,10.9,11.7,10.9,11.8L10.9,11.8C10.9,11.7,10.9,11.7,10.9,11.8
		C10.9,11.7,10.9,11.7,10.9,11.8L10.9,11.8z M10.8,11.3C10.8,11.3,10.8,11.3,10.8,11.3C10.9,11.3,10.9,11.3,10.8,11.3
		C10.9,11.3,10.9,11.3,10.8,11.3C10.9,11.3,10.9,11.3,10.8,11.3C10.9,11.3,10.9,11.3,10.8,11.3C10.8,11.3,10.8,11.3,10.8,11.3
		C10.8,11.3,10.8,11.3,10.8,11.3C10.8,11.3,10.8,11.3,10.8,11.3L10.8,11.3z M10.9,11.3C10.9,11.3,10.9,11.3,10.9,11.3
		C10.9,11.3,10.9,11.3,10.9,11.3C10.9,11.3,10.9,11.3,10.9,11.3C10.9,11.4,10.9,11.4,10.9,11.3C10.9,11.4,10.9,11.4,10.9,11.3
		L10.9,11.3C10.9,11.4,10.9,11.4,10.9,11.3C10.9,11.4,10.9,11.4,10.9,11.3C10.9,11.3,10.9,11.3,10.9,11.3L10.9,11.3z M10.7,11.2
		C10.7,11.2,10.7,11.2,10.7,11.2C10.7,11.2,10.8,11.2,10.7,11.2C10.8,11.2,10.8,11.2,10.7,11.2C10.8,11.2,10.8,11.2,10.7,11.2
		C10.8,11.2,10.8,11.2,10.7,11.2C10.8,11.3,10.8,11.3,10.7,11.2C10.8,11.3,10.7,11.3,10.7,11.2C10.7,11.2,10.7,11.2,10.7,11.2
		L10.7,11.2z M10.6,11.3C10.6,11.3,10.6,11.3,10.6,11.3c0.1,0,0.1,0,0.2,0.1c0,0.1,0,0.1-0.1,0.2l0-0.1c0,0-0.1,0-0.1,0
		C10.6,11.5,10.6,11.4,10.6,11.3L10.6,11.3z M10.5,11.3C10.5,11.3,10.5,11.3,10.5,11.3L10.5,11.3L10.5,11.3
		C10.4,11.4,10.4,11.4,10.5,11.3C10.4,11.3,10.4,11.3,10.5,11.3C10.4,11.3,10.4,11.3,10.5,11.3C10.4,11.3,10.4,11.3,10.5,11.3
		L10.5,11.3L10.5,11.3z M10.5,11.4L10.5,11.4C10.5,11.4,10.5,11.4,10.5,11.4C10.5,11.5,10.5,11.5,10.5,11.4
		C10.4,11.5,10.4,11.5,10.5,11.4C10.4,11.4,10.4,11.4,10.5,11.4L10.5,11.4C10.4,11.4,10.5,11.4,10.5,11.4
		C10.5,11.4,10.5,11.4,10.5,11.4L10.5,11.4z M10.5,11.7C10.5,11.7,10.5,11.7,10.5,11.7c0,0.1,0,0.1-0.1,0.1c0,0,0,0,0-0.1
		C10.4,11.7,10.4,11.7,10.5,11.7C10.5,11.7,10.5,11.7,10.5,11.7L10.5,11.7z M10.6,11.8C10.6,11.8,10.6,11.8,10.6,11.8
		C10.6,11.8,10.6,11.8,10.6,11.8L10.6,11.8C10.6,11.8,10.6,11.8,10.6,11.8C10.6,11.8,10.6,11.8,10.6,11.8
		C10.6,11.8,10.6,11.8,10.6,11.8C10.6,11.8,10.6,11.8,10.6,11.8C10.6,11.8,10.6,11.8,10.6,11.8L10.6,11.8z M10.6,11.6
		C10.6,11.6,10.5,11.6,10.6,11.6c0-0.2,0-0.3-0.1-0.4C10.6,11.2,10.6,11.4,10.6,11.6L10.6,11.6z M10.6,11.6
		C10.6,11.6,10.6,11.7,10.6,11.6c0.1,0.1,0.1,0.1,0.1,0.1c0,0,0,0.1-0.1,0.1c0,0,0,0-0.1,0C10.5,11.7,10.5,11.7,10.6,11.6
		C10.6,11.6,10.6,11.6,10.6,11.6L10.6,11.6z M10.8,11.7C10.8,11.7,10.7,11.7,10.8,11.7c0.1-0.1,0.1-0.1,0.1-0.2
		c0-0.1-0.1-0.2-0.2-0.2c0.2,0,0.2,0.1,0.3,0.2l0,0C10.9,11.6,10.9,11.7,10.8,11.7L10.8,11.7z M10.9,11.9
		C10.9,11.9,10.9,11.9,10.9,11.9c-0.1-0.1,0-0.1-0.1-0.1C10.9,11.8,10.9,11.8,10.9,11.9C10.9,11.8,10.9,11.9,10.9,11.9
		C10.9,11.9,10.9,11.9,10.9,11.9L10.9,11.9z M10.8,11.8C10.7,11.8,10.7,11.9,10.8,11.8c-0.1,0-0.1,0-0.1,0.1c0,0,0-0.1,0-0.1
		C10.7,11.8,10.7,11.8,10.8,11.8C10.7,11.8,10.7,11.8,10.8,11.8L10.8,11.8z M10.8,12C10.8,12,10.8,11.9,10.8,12
		C10.8,11.9,10.8,11.9,10.8,12C10.8,11.9,10.8,11.9,10.8,12C10.8,11.9,10.8,12,10.8,12C10.8,12,10.8,12,10.8,12
		C10.8,12,10.8,12,10.8,12C10.8,12,10.8,12,10.8,12C10.8,12,10.8,12,10.8,12L10.8,12z M10.6,12.1L10.6,12.1l0.1,0L10.6,12.1
		L10.6,12.1L10.6,12.1z M10.4,11.2C10.4,11.2,10.4,11.2,10.4,11.2C10.4,11.2,10.4,11.2,10.4,11.2C10.4,11.3,10.4,11.3,10.4,11.2
		C10.4,11.3,10.4,11.3,10.4,11.2C10.4,11.3,10.4,11.3,10.4,11.2C10.4,11.3,10.4,11.3,10.4,11.2C10.4,11.2,10.4,11.2,10.4,11.2
		C10.4,11.2,10.4,11.2,10.4,11.2L10.4,11.2z M10.2,11.4c-0.1,0-0.1,0-0.1,0c0-0.1,0-0.2,0-0.2C10.2,11.2,10.2,11.3,10.2,11.4
		C10.3,11.4,10.3,11.4,10.2,11.4C10.2,11.5,10.2,11.5,10.2,11.4L10.2,11.4z M10.2,11.6C10.2,11.6,10.2,11.6,10.2,11.6
		c-0.1,0.1-0.1,0.1-0.2,0.1c0,0,0-0.1,0-0.1c0,0,0,0,0-0.1C10.1,11.5,10.1,11.5,10.2,11.6C10.2,11.5,10.2,11.6,10.2,11.6L10.2,11.6z
		 M10.1,11.7C10.1,11.7,10.1,11.7,10.1,11.7C10.1,11.7,10.1,11.7,10.1,11.7C10.1,11.7,10.1,11.7,10.1,11.7L10.1,11.7L10.1,11.7
		L10.1,11.7C10.1,11.7,10.1,11.7,10.1,11.7C10.1,11.7,10.1,11.7,10.1,11.7L10.1,11.7z M10.3,11.6C10.3,11.6,10.3,11.6,10.3,11.6
		C10.3,11.6,10.4,11.6,10.3,11.6c0.1-0.1,0.1,0,0.1,0C10.4,11.6,10.4,11.6,10.3,11.6C10.4,11.6,10.4,11.6,10.3,11.6L10.3,11.6z
		 M10.3,11.6C10.3,11.7,10.3,11.7,10.3,11.6c0,0.1,0,0.1,0,0.1c0,0,0-0.1-0.1-0.1C10.2,11.7,10.3,11.6,10.3,11.6
		C10.3,11.6,10.3,11.6,10.3,11.6L10.3,11.6z M10.4,11.7C10.4,11.7,10.4,11.7,10.4,11.7C10.4,11.7,10.4,11.7,10.4,11.7
		C10.4,11.7,10.4,11.7,10.4,11.7C10.3,11.7,10.3,11.7,10.4,11.7C10.3,11.7,10.3,11.7,10.4,11.7C10.4,11.7,10.4,11.7,10.4,11.7
		C10.4,11.7,10.4,11.7,10.4,11.7C10.4,11.7,10.4,11.7,10.4,11.7L10.4,11.7z M9.9,11.3L9.9,11.3C9.9,11.3,9.9,11.4,9.9,11.3L9.9,11.3
		C9.9,11.4,9.9,11.4,9.9,11.3C9.9,11.4,9.8,11.3,9.9,11.3L9.9,11.3C9.9,11.3,9.9,11.3,9.9,11.3L9.9,11.3L9.9,11.3z M9.9,11.2
		L9.9,11.2L9.9,11.2C9.9,11.3,9.9,11.3,9.9,11.2L9.9,11.2C9.9,11.3,9.9,11.3,9.9,11.2C9.9,11.3,9.8,11.3,9.9,11.2L9.9,11.2
		C9.9,11.2,9.9,11.2,9.9,11.2L9.9,11.2z M9.8,11.4L9.8,11.4L9.8,11.4L9.8,11.4L9.8,11.4L9.8,11.4C9.9,11.4,9.9,11.4,9.8,11.4
		C9.9,11.4,9.9,11.4,9.8,11.4C9.8,11.4,9.8,11.4,9.8,11.4L9.8,11.4z M9.6,11.4C9.6,11.5,9.6,11.5,9.6,11.4
		C9.5,11.4,9.5,11.4,9.6,11.4c0-0.2,0-0.2,0.1-0.3c0,0.1,0,0.2,0,0.2C9.7,11.5,9.6,11.5,9.6,11.4L9.6,11.4z M9.7,11.5
		C9.7,11.6,9.7,11.6,9.7,11.5c-0.1,0.1-0.1,0.1-0.1,0.1c0,0,0,0,0-0.1c0,0,0,0,0-0.1C9.6,11.5,9.7,11.5,9.7,11.5
		C9.7,11.5,9.7,11.5,9.7,11.5L9.7,11.5z M9.6,11.7C9.6,11.7,9.6,11.7,9.6,11.7C9.6,11.7,9.6,11.7,9.6,11.7L9.6,11.7L9.6,11.7
		L9.6,11.7C9.6,11.7,9.6,11.7,9.6,11.7L9.6,11.7L9.6,11.7L9.6,11.7z M9.9,11.6C9.9,11.6,9.9,11.6,9.9,11.6L9.9,11.6
		C9.9,11.6,9.8,11.6,9.9,11.6C9.8,11.6,9.8,11.6,9.9,11.6C9.8,11.6,9.8,11.6,9.9,11.6c-0.1-0.1,0-0.1,0-0.1
		C9.9,11.5,9.9,11.5,9.9,11.6C9.9,11.6,9.9,11.6,9.9,11.6C9.9,11.6,9.9,11.6,9.9,11.6L9.9,11.6L9.9,11.6z M9.9,11.6
		C10,11.6,10,11.6,9.9,11.6c0.1,0,0.1,0,0.1,0c0,0-0.1,0.1-0.1,0.1C10,11.7,10,11.7,9.9,11.6C10,11.7,10,11.6,9.9,11.6L9.9,11.6z
		 M9.9,11.6L9.9,11.6L9.9,11.6L9.9,11.6L9.9,11.6L9.9,11.6L9.9,11.6C9.8,11.6,9.9,11.6,9.9,11.6C9.9,11.6,9.9,11.6,9.9,11.6
		L9.9,11.6z M9.8,11.6C9.8,11.6,9.8,11.6,9.8,11.6c0,0,0,0.1,0.1,0.1c0,0,0,0-0.1,0.1C9.8,11.7,9.7,11.7,9.8,11.6
		C9.7,11.6,9.8,11.6,9.8,11.6L9.8,11.6z M10.3,12L10.3,12L10.3,12L10.3,12L10.3,12L10.3,12z M9.8,11.2c0,0.1,0,0.2,0,0.2
		C9.8,11.4,9.8,11.3,9.8,11.2L9.8,11.2z M9.9,11.5c0-0.1,0-0.2,0-0.2C10,11.3,10,11.4,9.9,11.5L9.9,11.5z M9.8,10.8L9.8,10.8
		L9.8,10.8L9.8,10.8L9.8,10.8h0.1v0L9.8,10.8L9.8,10.8C9.9,10.9,9.9,10.9,9.8,10.8L9.8,10.8L9.8,10.8L9.8,10.8L9.8,10.8L9.8,10.8z
		 M9.7,11.1C9.7,11,9.7,11,9.7,11.1C9.7,11,9.7,11,9.7,11.1C9.7,11,9.7,11,9.7,11.1C9.7,11,9.7,11,9.7,11.1C9.7,11,9.7,11,9.7,11.1
		C9.7,11,9.7,11,9.7,11.1L9.7,11.1L9.7,11.1z M9.9,11.1C9.9,11.1,9.9,11.1,9.9,11.1C9.9,11.1,9.9,11.1,9.9,11.1L9.9,11.1
		C9.9,11,9.9,11,9.9,11.1C9.9,11,9.9,11,9.9,11.1C9.9,11,9.9,11,9.9,11.1C9.9,11,9.9,11,9.9,11.1L9.9,11.1z M9.9,11.1
		C10,11.1,10,11.1,9.9,11.1L9.9,11.1C10,11.1,10,11.1,9.9,11.1C10,11.1,10,11.1,9.9,11.1c0.1,0.2,0.1,0.3,0.1,0.4l0,0c0,0,0,0,0,0
		C10,11.3,10,11.2,9.9,11.1L9.9,11.1z M10,11C10,11,10,11,10,11C10,11,10.1,11,10,11C10.1,11,10.1,11,10,11C10.1,11,10.1,11,10,11
		C10.1,11,10.1,11,10,11L10,11L10,11L10,11z M10.4,11.2L10.4,11.2L10.4,11.2C10.4,11.2,10.4,11.2,10.4,11.2L10.4,11.2
		C10.4,11.2,10.4,11.2,10.4,11.2C10.4,11.2,10.4,11.2,10.4,11.2C10.4,11.2,10.4,11.2,10.4,11.2C10.4,11.2,10.4,11.2,10.4,11.2
		C10.4,11.2,10.4,11.2,10.4,11.2C10.4,11.2,10.4,11.2,10.4,11.2L10.4,11.2L10.4,11.2z M9.3,11.2L9.3,11.2
		C9.3,11.2,9.3,11.2,9.3,11.2L9.3,11.2C9.4,11.2,9.4,11.2,9.3,11.2L9.3,11.2L9.3,11.2C9.4,11.2,9.4,11.2,9.3,11.2
		C9.4,11.2,9.4,11.2,9.3,11.2C9.4,11.2,9.4,11.2,9.3,11.2C9.4,11.2,9.4,11.2,9.3,11.2L9.3,11.2L9.3,11.2z M9,12.1
		C9,12.1,9,12.1,9,12.1C9,12.1,9,12.1,9,12.1c0.2-0.2,0.5-0.2,0.8-0.2h0c0.3,0,0.6,0.1,0.8,0.2c0,0,0,0,0,0c0,0,0,0,0,0
		c-0.2-0.1-0.5-0.2-0.8-0.2H9.8C9.5,11.9,9.3,12,9,12.1L9,12.1z M9.5,12L9.5,12l0,0.1c-0.1,0-0.2,0.1-0.3,0.1l0-0.1l-0.1,0
		C9.2,12,9.3,12,9.5,12c0.1,0,0.2,0,0.4,0h0.1c0.1,0,0.3,0,0.4,0c0.1,0,0.3,0.1,0.4,0.1l-0.1,0l0,0.1c-0.1,0-0.2-0.1-0.3-0.1l0.1,0
		L10.3,12L10.2,12l0.1,0.1c-0.1,0-0.2,0-0.3,0c0,0,0,0,0,0H9.8c0,0,0,0,0,0c-0.1,0-0.2,0-0.3,0L9.6,12L9.5,12L9.5,12z"/>
	<path class="st1" d="M9.9,8.1c-1,0-1.8,0.4-2.5,1c-0.6,0.6-1,1.4-1,2.3c0,0,0.1,0,0.1,0c0.1,0,0.1,0,0.2,0c0,0,0,0,0,0
		c0-0.8,0.4-1.6,1-2.2c0.6-0.6,1.4-1,2.3-1l0.2,0c0.8,0,1.6,0.4,2.2,1c0.2,0.2,0.4,0.4,0.5,0.7c0,0,0.3,0.1,0.4,0.2
		c-0.2-0.4-0.4-0.7-0.7-1l0,0c-0.7-0.7-1.4-1-2.3-1L9.9,8.1L9.9,8.1z"/>
	<path class="st1" d="M9.9,15.2l0.2,0c0.9,0,1.7-0.4,2.3-1c0.3-0.3,0.6-0.7,0.8-1.1c0,0-0.3,0.1-0.4,0.1c-0.1,0.3-0.3,0.5-0.6,0.8
		l0,0c-0.6,0.6-1.3,0.9-2.2,1l-0.2,0c-0.8,0-1.5-0.2-2.1-0.7c0.1,0.1,0.1,0.3,0.1,0.4C8.5,15,9.2,15.2,9.9,15.2L9.9,15.2z"/>
	<path class="st1" d="M9.9,16.9h0.2c1.4,0,2.5-0.6,3.5-1.5c0.8-0.8,1.3-1.8,1.5-3c0,0-1.8,0.7-1.8,0.7c-0.2,0.4-0.4,0.8-0.8,1.2l0,0
		c-0.7,0.7-1.5,1-2.4,1.1l-0.2,0c-0.7,0-1.4-0.2-2-0.6c0,0.3-0.1,0.6-0.4,0.9c-0.2,0.2-0.4,0.3-0.6,0.3C7.8,16.6,8.8,16.9,9.9,16.9
		L9.9,16.9z"/>
	<path class="st1" d="M7.4,14.4C7.4,14.4,7.4,14.4,7.4,14.4l-0.3-0.3c-0.2-0.2-0.3-0.4-0.4-0.6c-0.1-0.2-0.2-0.4-0.3-0.6
		c0,0-0.1,0-0.1,0s-1,0-1,0c0,0,0,0-0.1,0c0,0,0,0-0.1,0c0,0-0.5,0-0.5,0c0.1,0.6,0.4,1.1,0.7,1.6C5.6,14.7,5.8,15,6,15.2l0.3,0.3
		c0.1,0.1,0.3,0.1,0.4,0.1c0.2,0,0.4-0.1,0.6-0.2c0.2-0.2,0.2-0.3,0.2-0.6C7.5,14.6,7.5,14.5,7.4,14.4L7.4,14.4z"/>
	<path class="st1" d="M10.1,6.4l-0.2,0c-1.4,0-2.7,0.5-3.7,1.5c-1,1-1.5,2.1-1.5,3.5c0,0,1.6,0,1.6,0c0.1-0.9,0.4-1.7,1.1-2.3
		C8,8.4,8.9,8,9.9,8l0.2,0c0.9,0,1.7,0.4,2.4,1.1c0.3,0.3,0.6,0.7,0.8,1.1c0,0,1.8,0.7,1.8,0.8c-0.1-1.1-0.6-2.2-1.5-3
		C12.6,7,11.4,6.5,10.1,6.4L10.1,6.4z"/>
	<path class="st1" d="M4.5,11.4c0-1.4,0.6-2.6,1.6-3.5c1-1,2.3-1.6,3.8-1.6l0.2,0c1.4,0,2.6,0.6,3.6,1.6c0.9,0.9,1.4,1.9,1.5,3.1
		c0,0,0.3,0.1,0.4,0.1c-0.1-1.3-0.7-2.5-1.6-3.5c-1.1-1-2.4-1.6-3.8-1.6L9.9,6C8.3,6,7,6.6,5.9,7.7c-1.1,1-1.6,2.3-1.7,3.8
		c0,0,0.1,0,0.1,0C4.4,11.4,4.5,11.4,4.5,11.4L4.5,11.4z"/>
	<path class="st1" d="M10.1,17H9.9c-1.2,0-2.2-0.3-3.1-1c0,0-0.1,0-0.1,0c-0.1,0-0.3,0-0.4-0.1c1,0.9,2.2,1.3,3.6,1.3h0.2
		c1.5,0,2.8-0.6,3.8-1.6c1-0.9,1.5-2.1,1.6-3.4c0,0-0.3,0.1-0.4,0.1c-0.1,1.2-0.7,2.2-1.5,3.1C12.7,16.4,11.4,16.9,10.1,17L10.1,17z
		"/>
	<path class="st1" d="M4.3,12.9L4.3,12.9c0,0,0.8,0,0.9,0c0,0,0,0,0,0s0-0.1,0-0.1c0,0-0.6,0-0.6,0c-0.1,0-0.1,0-0.2-0.1
		c-0.1-0.1-0.1-0.1-0.1-0.2v-0.6c0-0.1,0-0.1,0.1-0.2l0,0h0c0.1-0.1,0.1-0.1,0.2-0.1h1.6c0,0,0.1,0,0.1,0c0,0,0.1,0,0.1,0.1
		c0.1,0.1,0.1,0.1,0.1,0.2v0.6c0,0.1,0,0.1,0,0.1c0,0,0,0,0,0.1c-0.1,0.1-0.1,0.1-0.2,0.1c0,0-0.6,0-0.7,0c0,0,0,0.1,0,0.1s0,0,0,0
		c0,0,0.9,0,0.9,0c0,0,0,0,0.1,0c0,0,0.1,0,0.1,0s0,0,0,0c0,0,0-0.1,0-0.1l0-1.1c0,0,0,0,0-0.1c0,0-0.1-0.1-0.1-0.1h-2
		c0,0-0.1,0-0.1,0.1l0,0c0,0,0,0.1,0,0.1v1c0,0.1,0,0.1,0.1,0.1C4.3,12.9,4.3,12.9,4.3,12.9L4.3,12.9L4.3,12.9z"/>
	<path class="st1" d="M6.2,12.7c0.1,0,0.1,0,0.1-0.1l0,0l0,0c0,0,0,0,0,0c0,0,0-0.1,0-0.1v-0.6c0-0.1,0-0.1-0.1-0.1c0,0,0,0-0.1,0
		c0,0,0,0-0.1,0H4.5c0,0-0.1,0-0.1,0.1c0,0-0.1,0.1-0.1,0.1v0.6c0,0,0,0.1,0.1,0.1c0,0,0.1,0.1,0.1,0.1c0,0,0.6,0,0.6,0
		c0,0,0-0.1,0-0.2c0,0-0.1,0-0.1,0C5,12.4,5,12.4,5,12.3c0,0,0,0,0,0c0,0,0,0,0,0c0-0.1,0-0.1,0.1-0.2c0.1,0,0.2-0.1,0.3-0.1
		c0.1,0,0.2,0,0.3,0.1c0.1,0,0.1,0.1,0.1,0.2c0,0.1,0,0.1-0.1,0.2c0,0-0.1,0-0.1,0c0,0,0,0.1,0,0.1s0,0.1,0,0.1
		C5.6,12.7,6.2,12.7,6.2,12.7L6.2,12.7z"/>
	<path class="st1" d="M5.3,12.8C5.3,12.9,5.3,12.9,5.3,12.8C5.3,12.9,5.4,12.9,5.3,12.8C5.4,12.9,5.4,12.9,5.3,12.8
		c0.1,0.1,0.1,0,0.1,0l0,0c0,0,0-0.1,0-0.1c0,0,0,0,0,0c0-0.1,0-0.1,0-0.1l0-0.1c0,0,0-0.1,0-0.1c0-0.1,0-0.1-0.1-0.1
		c0,0,0,0-0.1,0.1c0,0,0,0.1,0,0.1c0,0,0,0.1,0,0.1L5.3,12.8L5.3,12.8L5.3,12.8z"/>
	<path class="st1" d="M7.5,15.6c0.2-0.2,0.3-0.5,0.3-0.8l0-0.1c0-0.2-0.1-0.4-0.2-0.6l-0.2-0.2c-0.2-0.3-0.4-0.6-0.6-0.9
		c-0.1-0.1-0.1-0.3-0.1-0.4c0,0.1,0,0.2,0,0.2c0,0.1,0,0.1-0.1,0.2l0,0l0,0c0,0,0,0,0,0c0.1,0.2,0.2,0.4,0.3,0.6
		c0.1,0.2,0.3,0.4,0.4,0.5l0.2,0.2l0,0l0,0c0.1,0.1,0.1,0.3,0.1,0.5c0,0.2-0.1,0.5-0.3,0.6c-0.2,0.2-0.4,0.3-0.6,0.3
		c-0.2,0-0.3,0-0.5-0.1c0,0,0,0,0,0h0L6,15.3c-0.2-0.2-0.4-0.4-0.6-0.7c-0.3-0.5-0.6-1.1-0.7-1.6c0,0-0.3,0-0.3,0
		c0.2,0.9,0.7,1.7,1.3,2.4l0.1,0.1c0,0,0.1,0.1,0.1,0.1c0,0,0.1,0.1,0.1,0.1c0.2,0.1,0.4,0.2,0.6,0.2l0.1,0
		C7,15.9,7.3,15.8,7.5,15.6L7.5,15.6z"/>
	<path class="st1" d="M5.5,12.3c0,0,0,0.1,0,0.1C5.6,12.4,5.6,12.4,5.5,12.3c0.1,0.1,0.2,0,0.2,0C5.7,12.3,5.6,12.3,5.5,12.3
		c0-0.1,0-0.1-0.1-0.1c-0.1,0-0.2,0-0.2,0c-0.1,0-0.1,0-0.1,0.1c0,0,0,0.1,0.1,0.1c0,0,0,0,0,0c0,0,0-0.1,0-0.1
		c0-0.1,0.1-0.1,0.1-0.1C5.4,12.2,5.5,12.2,5.5,12.3L5.5,12.3z"/>
	<path class="st0" d="M10.5,5.7C10.5,5.7,10.4,5.7,10.5,5.7c-0.1,0.1-0.1,0.1-0.1,0.1c0,0,0,0.1,0,0.1c0,0,0.1,0,0.1,0
		c0,0,0.1,0,0.1,0c0,0,0-0.1,0-0.1C10.6,5.8,10.6,5.7,10.5,5.7C10.6,5.7,10.6,5.7,10.5,5.7L10.5,5.7z"/>
	<path class="st0" d="M11.7,6C11.7,5.9,11.7,5.9,11.7,6c-0.1,0-0.1,0-0.2,0c0,0,0,0,0,0.1c0,0,0,0.1,0,0.1c0,0,0.1,0,0.1,0
		c0,0,0.1,0,0.1,0C11.7,6.1,11.8,6.1,11.7,6C11.8,6,11.7,6,11.7,6L11.7,6z"/>
	<path class="st0" d="M9.3,5.7C9.3,5.7,9.2,5.7,9.3,5.7C9.2,5.7,9.2,5.8,9.2,5.8c0,0,0,0.1,0,0.1c0,0,0.1,0,0.1,0c0,0,0.1,0,0.1,0
		c0,0,0-0.1,0-0.1C9.4,5.8,9.4,5.7,9.3,5.7C9.4,5.7,9.3,5.7,9.3,5.7L9.3,5.7z"/>
	<path class="st0" d="M8.2,5.9C8.2,5.9,8.2,5.9,8.2,5.9C8.1,6,8.1,6,8.1,6c0,0,0,0.1,0,0.1c0,0,0.1,0,0.1,0c0,0,0.1,0,0.1,0
		c0,0,0,0,0-0.1C8.3,6,8.3,6,8.2,5.9C8.3,5.9,8.3,5.9,8.2,5.9L8.2,5.9z"/>
	<path class="st0" d="M10.1,5.6c0,0-0.1,0-0.1,0H9.8c0,0-0.1,0-0.1,0c0,0,0,0.1,0,0.1v0c0,0,0,0.1,0,0.1c0,0,0.1,0,0.1,0H10
		c0,0,0.1,0,0.1,0c0,0,0-0.1,0-0.1v0C10.2,5.7,10.2,5.7,10.1,5.6L10.1,5.6z"/>
	<path class="st3" d="M12.1,3.5C12.1,3.5,12.1,3.5,12.1,3.5C12.1,3.5,12.2,3.5,12.1,3.5c0.1,0,0.1,0,0.1,0.1
		C12.2,3.5,12.2,3.6,12.1,3.5c0.1,0.1,0.1,0.1,0,0.1C12.1,3.6,12.1,3.6,12.1,3.5C12.1,3.6,12.1,3.5,12.1,3.5
		C12.1,3.5,12.1,3.5,12.1,3.5L12.1,3.5z"/>
	<path class="st3" d="M12.4,3.6C12.4,3.6,12.4,3.6,12.4,3.6c0.1,0,0.1,0,0.1,0c0,0,0,0,0,0.1c0,0,0,0,0,0.1c0,0,0,0-0.1,0
		c0,0,0,0-0.1,0C12.3,3.7,12.3,3.6,12.4,3.6C12.3,3.6,12.3,3.6,12.4,3.6L12.4,3.6z"/>
	<path class="st3" d="M11.9,3.4C11.9,3.4,11.9,3.4,11.9,3.4C11.9,3.5,11.9,3.5,11.9,3.4c0,0.1,0,0.1-0.1,0.1
		C11.8,3.5,11.8,3.5,11.9,3.4c-0.1,0.1-0.1,0.1-0.1,0C11.8,3.4,11.8,3.4,11.9,3.4C11.8,3.4,11.8,3.4,11.9,3.4
		C11.9,3.4,11.9,3.4,11.9,3.4L11.9,3.4z"/>
	<path class="st3" d="M11.5,3.5C11.5,3.5,11.5,3.4,11.5,3.5C11.5,3.4,11.5,3.4,11.5,3.5C11.5,3.4,11.5,3.4,11.5,3.5l0-0.1
		C11.6,3.4,11.6,3.4,11.5,3.5c0.1-0.1,0.1-0.1,0.1,0L11.5,3.5C11.6,3.5,11.6,3.5,11.5,3.5C11.6,3.5,11.6,3.5,11.5,3.5
		C11.6,3.5,11.5,3.5,11.5,3.5L11.5,3.5z"/>
	<path class="st3" d="M11.5,3.7C11.5,3.7,11.5,3.7,11.5,3.7C11.5,3.7,11.5,3.7,11.5,3.7c-0.1,0.1-0.1,0.1-0.1,0.1c0,0,0,0,0-0.1
		c0,0,0,0,0-0.1v0C11.4,3.6,11.4,3.6,11.5,3.7C11.4,3.6,11.4,3.6,11.5,3.7C11.5,3.6,11.5,3.6,11.5,3.7C11.5,3.6,11.5,3.6,11.5,3.7
		L11.5,3.7z"/>
	<path class="st3" d="M11.5,3.8C11.6,3.8,11.6,3.8,11.5,3.8C11.6,3.8,11.6,3.9,11.5,3.8c0.1,0.1,0.1,0.1,0.1,0.1c0,0,0,0-0.1,0
		c0,0,0,0-0.1,0C11.5,3.9,11.5,3.9,11.5,3.8C11.5,3.9,11.5,3.8,11.5,3.8C11.5,3.8,11.5,3.8,11.5,3.8L11.5,3.8z"/>
	<path class="st3" d="M11.6,4.3C11.5,4.3,11.5,4.3,11.6,4.3C11.5,4.2,11.5,4.2,11.6,4.3c-0.1-0.1-0.1-0.1-0.1-0.1c0,0,0,0,0.1,0
		c0,0,0,0,0.1,0C11.6,4.1,11.6,4.2,11.6,4.3C11.6,4.2,11.6,4.2,11.6,4.3C11.6,4.3,11.6,4.3,11.6,4.3L11.6,4.3z"/>
	<path class="st3" d="M12.6,3.7C12.6,3.7,12.6,3.7,12.6,3.7c0.1,0,0.1,0,0.1,0c0,0,0,0,0,0.1c0,0,0,0,0,0.1c0,0,0,0-0.1,0
		c0,0,0,0-0.1,0C12.6,3.8,12.6,3.8,12.6,3.7C12.6,3.7,12.6,3.7,12.6,3.7L12.6,3.7z"/>
	<path class="st3" d="M12.8,4C12.8,4,12.8,3.9,12.8,4c0-0.1,0-0.1,0-0.1c0,0,0,0,0.1,0c0,0,0,0,0.1,0c0,0,0,0,0,0.1c0,0,0,0,0,0.1
		C12.9,4,12.9,4,12.8,4L12.8,4C12.8,4,12.8,4,12.8,4L12.8,4z"/>
	<path class="st3" d="M13,4.1C13.1,4.1,13.1,4.1,13,4.1L13,4.1v0.1c0,0,0,0-0.1,0h0c0,0,0,0,0,0c0,0,0,0,0-0.1c0,0,0,0,0-0.1
		C12.9,4.1,13,4.1,13,4.1C13,4.1,13,4.1,13,4.1L13,4.1z"/>
	<path class="st3" d="M13,4.3C13.1,4.3,13.1,4.3,13,4.3C13.1,4.4,13.1,4.4,13,4.3c0.1,0.1,0.1,0.1,0.1,0.1c0,0,0,0,0,0l0,0l0,0
		c0,0,0,0,0,0C13,4.4,13,4.4,13,4.3C13,4.4,13,4.4,13,4.3C13,4.3,13,4.3,13,4.3L13,4.3z"/>
	<path class="st3" d="M12.9,4.6C12.9,4.6,13,4.6,12.9,4.6C13,4.6,13,4.5,12.9,4.6c0.1-0.1,0.1-0.1,0.1-0.1c0,0,0,0,0,0.1
		c0,0,0,0,0,0.1C13.1,4.7,13,4.7,12.9,4.6C13,4.7,13,4.7,12.9,4.6C13,4.7,12.9,4.7,12.9,4.6L12.9,4.6z"/>
	<path class="st3" d="M12.9,4.8C12.9,4.8,12.9,4.8,12.9,4.8L12.9,4.8c0.1,0,0.1,0,0.1,0l0,0c0,0,0,0,0,0.1c0,0,0,0,0,0.1
		c0,0,0,0-0.1,0h0c0,0,0,0,0,0c0,0,0,0,0,0C12.9,4.9,12.9,4.9,12.9,4.8C12.9,4.8,12.9,4.8,12.9,4.8L12.9,4.8z"/>
	<path class="st3" d="M12.8,5C12.8,5,12.8,5,12.8,5L12.8,5h0.1c0,0,0,0,0,0l0,0c0,0,0,0,0,0.1c0,0,0,0-0.1,0c0,0,0,0-0.1,0
		C12.8,5.1,12.8,5.1,12.8,5C12.8,5.1,12.8,5,12.8,5L12.8,5z"/>
	<path class="st3" d="M11.9,5.1C11.9,5.1,11.9,5.1,11.9,5.1c0.1,0,0.1,0,0.1,0c0,0,0,0,0,0.1c0,0,0,0,0,0.1c0,0,0,0-0.1,0
		c0,0,0,0-0.1,0C11.9,5.2,11.9,5.2,11.9,5.1C11.9,5.2,11.9,5.1,11.9,5.1L11.9,5.1z"/>
	<path class="st3" d="M12.5,5.8C12.4,5.7,12.4,5.7,12.5,5.8c0-0.1,0-0.1,0-0.1c0,0,0,0,0.1,0c0,0,0,0,0.1,0c0,0,0,0,0,0.1
		c0,0,0,0,0,0.1C12.6,5.8,12.5,5.8,12.5,5.8C12.5,5.8,12.5,5.8,12.5,5.8L12.5,5.8z"/>
	<path class="st3" d="M8.8,3.2C8.8,3.2,8.8,3.2,8.8,3.2C8.8,3.2,8.8,3.2,8.8,3.2C8.8,3.2,8.8,3.2,8.8,3.2c0.1,0,0.1,0,0.1,0v0
		L8.8,3.2C8.8,3.3,8.8,3.3,8.8,3.2C8.8,3.3,8.8,3.3,8.8,3.2C8.7,3.3,8.7,3.2,8.8,3.2C8.7,3.2,8.7,3.2,8.8,3.2L8.8,3.2z"/>
	<path class="st3" d="M8.9,3.2C8.9,3.2,8.9,3.2,8.9,3.2C8.9,3.1,8.9,3.1,8.9,3.2C8.9,3.1,8.9,3.1,8.9,3.2C9,3.1,9,3.1,8.9,3.2
		c0.1,0,0.1,0,0.1,0C9,3.2,9,3.2,8.9,3.2C9,3.2,9,3.2,8.9,3.2C9,3.2,8.9,3.2,8.9,3.2C8.9,3.2,8.9,3.2,8.9,3.2
		C8.9,3.2,8.9,3.2,8.9,3.2L8.9,3.2z"/>
	<path class="st3" d="M9.1,3.1C9.1,3.1,9.1,3.1,9.1,3.1C9.1,3,9.2,3,9.1,3.1C9.2,3,9.2,3,9.1,3.1c0.1,0,0.1,0,0.1,0
		C9.2,3.1,9.2,3.1,9.1,3.1C9.2,3.1,9.2,3.1,9.1,3.1C9.2,3.1,9.1,3.1,9.1,3.1C9.1,3.1,9.1,3.1,9.1,3.1L9.1,3.1z"/>
	<path class="st3" d="M9.3,3C9.3,3,9.3,3,9.3,3C9.3,3,9.3,3,9.3,3C9.4,3,9.4,3,9.3,3c0.1,0,0.1,0,0.1,0C9.4,3.1,9.4,3.1,9.3,3
		C9.4,3.1,9.4,3.1,9.3,3C9.3,3.1,9.3,3.1,9.3,3C9.3,3.1,9.3,3.1,9.3,3L9.3,3z"/>
	<path class="st3" d="M8.6,3.3L8.6,3.3C8.7,3.3,8.7,3.3,8.6,3.3L8.6,3.3c0,0.1,0,0.1,0,0.1c0,0,0,0,0,0c0,0,0,0-0.1,0c0,0,0,0,0,0
		C8.5,3.3,8.6,3.3,8.6,3.3C8.6,3.3,8.6,3.3,8.6,3.3L8.6,3.3L8.6,3.3z"/>
	<path class="st3" d="M8.3,3.4C8.3,3.4,8.3,3.5,8.3,3.4C8.2,3.5,8.2,3.5,8.3,3.4c-0.1,0.1-0.1,0.1-0.1,0c0,0,0,0,0,0l0,0
		c0,0,0,0,0,0C8.2,3.4,8.2,3.4,8.3,3.4L8.3,3.4C8.2,3.4,8.2,3.4,8.3,3.4C8.3,3.4,8.3,3.4,8.3,3.4L8.3,3.4z"/>
	<path class="st3" d="M8.3,3.6C8.4,3.6,8.4,3.6,8.3,3.6C8.4,3.6,8.4,3.6,8.3,3.6C8.4,3.6,8.4,3.7,8.3,3.6c0.1,0.1,0.1,0.1,0,0.1
		c0,0,0,0-0.1,0c0,0,0,0-0.1,0C8.3,3.7,8.2,3.7,8.3,3.6C8.2,3.6,8.3,3.6,8.3,3.6C8.3,3.6,8.3,3.6,8.3,3.6C8.3,3.6,8.3,3.6,8.3,3.6
		L8.3,3.6z"/>
	<path class="st3" d="M8,3.4C8,3.4,8,3.4,8,3.4C8,3.5,8,3.5,8,3.4c0,0.1,0,0.1,0,0.1C7.9,3.5,7.9,3.5,8,3.4c-0.1,0.1-0.1,0.1-0.1,0
		C7.9,3.4,7.9,3.4,8,3.4C7.9,3.4,7.9,3.4,8,3.4C8,3.4,8,3.4,8,3.4L8,3.4z"/>
	<path class="st3" d="M8.1,4.1C8.2,4.1,8.2,4.1,8.1,4.1c0.1,0,0.1,0,0.1,0c0,0,0,0,0,0.1c0,0,0,0,0,0.1c0,0,0,0-0.1,0c0,0,0,0-0.1,0
		C8.1,4.2,8.1,4.2,8.1,4.1C8.1,4.2,8.1,4.1,8.1,4.1L8.1,4.1z"/>
	<path class="st3" d="M8.1,3.9C8.1,3.9,8.2,3.8,8.1,3.9C8.2,3.8,8.2,3.8,8.1,3.9c0.1-0.1,0.1-0.1,0.1-0.1c0,0,0,0,0,0.1
		c0,0,0,0,0,0.1C8.3,4,8.2,4,8.1,3.9C8.2,4,8.2,4,8.1,3.9C8.2,3.9,8.1,3.9,8.1,3.9L8.1,3.9z"/>
	<path class="st3" d="M10.6,3C10.6,3,10.6,3,10.6,3C10.7,3.1,10.7,3.1,10.6,3C10.7,3.1,10.7,3.1,10.6,3c0,0.1,0,0.1,0,0.1
		C10.6,3.1,10.6,3.1,10.6,3C10.6,3.1,10.6,3.1,10.6,3C10.6,3.1,10.6,3.1,10.6,3C10.6,3,10.6,3,10.6,3L10.6,3z"/>
	<path class="st3" d="M10.8,3.2C10.8,3.2,10.8,3.1,10.8,3.2C10.8,3.1,10.8,3.1,10.8,3.2C10.8,3.1,10.8,3.1,10.8,3.2l0.1,0
		c0,0,0,0,0,0C10.9,3.2,10.9,3.2,10.8,3.2C10.8,3.2,10.8,3.2,10.8,3.2C10.8,3.2,10.8,3.2,10.8,3.2C10.8,3.2,10.8,3.2,10.8,3.2
		C10.8,3.2,10.8,3.2,10.8,3.2L10.8,3.2z"/>
	<path class="st3" d="M10.9,3.2C10.9,3.2,10.9,3.2,10.9,3.2C11,3.2,11,3.2,10.9,3.2C11,3.2,11,3.2,10.9,3.2C11,3.2,11,3.2,10.9,3.2
		C11,3.2,11,3.3,10.9,3.2C11,3.3,11,3.3,10.9,3.2C11,3.3,10.9,3.3,10.9,3.2C10.9,3.3,10.9,3.2,10.9,3.2C10.9,3.2,10.9,3.2,10.9,3.2
		C10.9,3.2,10.9,3.2,10.9,3.2L10.9,3.2z"/>
	<path class="st3" d="M9.8,3.2C9.8,3.2,9.8,3.1,9.8,3.2C9.9,3.1,9.9,3.1,9.8,3.2C9.9,3.1,9.9,3.1,9.8,3.2c0.1,0,0.1,0,0.1,0
		C9.9,3.2,9.9,3.2,9.8,3.2C9.9,3.2,9.9,3.2,9.8,3.2C9.9,3.2,9.9,3.2,9.8,3.2C9.8,3.2,9.8,3.2,9.8,3.2L9.8,3.2z"/>
	<path class="st3" d="M9.9,3C9.9,3,9.9,3,9.9,3C9.9,3,9.9,3,9.9,3C9.9,3,9.9,3,9.9,3C9.9,3.1,9.9,3.1,9.9,3C9.9,3.1,9.9,3.1,9.9,3
		C9.9,3.1,9.9,3.1,9.9,3C9.8,3.1,9.8,3.1,9.9,3C9.8,3,9.8,3,9.9,3L9.9,3z"/>
	<path class="st3" d="M10.4,3C10.5,3,10.5,3,10.4,3C10.5,3.1,10.5,3.1,10.4,3C10.4,3.1,10.4,3.1,10.4,3C10.4,3.1,10.4,3.1,10.4,3
		C10.4,3.1,10.4,3.1,10.4,3C10.4,3,10.4,3,10.4,3C10.4,3,10.4,3,10.4,3C10.4,3,10.4,3,10.4,3L10.4,3z"/>
	<path class="st3" d="M9.9,3.4C9.9,3.4,9.9,3.4,9.9,3.4C9.9,3.5,10,3.5,9.9,3.4c0.1,0.1,0.1,0.1,0,0.1c0,0,0,0,0,0c0,0,0,0,0,0
		C9.8,3.5,9.8,3.5,9.9,3.4C9.8,3.5,9.8,3.5,9.9,3.4C9.8,3.4,9.9,3.4,9.9,3.4L9.9,3.4z"/>
	<path class="st3" d="M9.9,3.3C9.9,3.4,9.9,3.4,9.9,3.3C9.9,3.4,9.9,3.4,9.9,3.3C9.9,3.4,9.9,3.4,9.9,3.3c-0.1,0-0.1,0-0.1,0
		C9.8,3.3,9.8,3.3,9.9,3.3C9.9,3.3,9.9,3.3,9.9,3.3C9.9,3.3,9.9,3.3,9.9,3.3C9.9,3.3,9.9,3.3,9.9,3.3L9.9,3.3z"/>
	<path class="st3" d="M9.8,3.7C9.8,3.7,9.8,3.7,9.8,3.7C9.8,3.6,9.9,3.6,9.8,3.7c0.1-0.1,0.1-0.1,0.1-0.1c0,0,0,0,0,0.1
		c0,0,0,0,0,0.1C9.9,3.8,9.9,3.8,9.8,3.7C9.9,3.8,9.9,3.8,9.8,3.7C9.8,3.7,9.8,3.7,9.8,3.7L9.8,3.7z"/>
	<path class="st3" d="M9.9,4C9.9,4,9.9,4,9.9,4C10,4.1,10,4.1,9.9,4C10,4.1,10,4.2,9.9,4.2c0,0,0,0-0.1,0c0,0,0,0-0.1,0
		C9.8,4.2,9.8,4.1,9.9,4C9.8,4.1,9.8,4.1,9.9,4C9.8,4,9.9,4,9.9,4L9.9,4z"/>
	<path class="st3" d="M9.9,3.8C9.9,3.8,9.9,3.8,9.9,3.8C10,3.9,10,3.9,9.9,3.8C10,3.9,10,4,9.9,4c0,0,0,0-0.1,0c0,0,0,0-0.1,0
		C9.8,4,9.8,3.9,9.9,3.8C9.8,3.9,9.8,3.9,9.9,3.8C9.8,3.8,9.9,3.8,9.9,3.8L9.9,3.8z"/>
	<path class="st3" d="M11.3,3.4L11.3,3.4C11.4,3.4,11.4,3.4,11.3,3.4L11.3,3.4c0.1,0,0.1,0,0.1,0.1l0,0c0,0,0,0,0,0c0,0,0,0-0.1,0
		c0,0,0,0-0.1,0C11.3,3.5,11.3,3.5,11.3,3.4C11.3,3.5,11.3,3.5,11.3,3.4C11.3,3.4,11.3,3.4,11.3,3.4L11.3,3.4L11.3,3.4z"/>
	<path class="st3" d="M11.2,3.3C11.2,3.3,11.2,3.3,11.2,3.3C11.2,3.3,11.2,3.3,11.2,3.3c0.1,0.1,0.1,0.1,0.1,0.1c0,0,0,0-0.1,0
		c0,0,0,0,0,0C11.1,3.4,11.1,3.4,11.2,3.3L11.2,3.3C11.1,3.3,11.1,3.3,11.2,3.3C11.1,3.3,11.1,3.3,11.2,3.3L11.2,3.3L11.2,3.3z"/>
	<path class="st3" d="M6.7,4.2C6.7,4.2,6.7,4.2,6.7,4.2C6.7,4.1,6.7,4.1,6.7,4.2c0-0.1,0.1-0.1,0.1-0.1c0,0,0,0,0.1,0c0,0,0,0,0,0.1
		c0,0,0,0,0,0.1C6.8,4.2,6.8,4.2,6.7,4.2L6.7,4.2C6.8,4.2,6.8,4.2,6.7,4.2C6.7,4.2,6.7,4.2,6.7,4.2L6.7,4.2z"/>
	<path class="st3" d="M6.7,4.3C6.7,4.3,6.8,4.3,6.7,4.3C6.8,4.4,6.8,4.4,6.7,4.3c0.1,0.1,0.1,0.1,0.1,0.1c0,0,0,0,0,0l0,0l0,0
		c0,0,0,0,0,0C6.7,4.4,6.6,4.4,6.7,4.3C6.6,4.4,6.7,4.4,6.7,4.3C6.7,4.3,6.7,4.3,6.7,4.3L6.7,4.3z"/>
	<path class="st3" d="M7.6,3.5C7.7,3.5,7.7,3.5,7.6,3.5C7.7,3.5,7.7,3.5,7.6,3.5c0.1,0.1,0.1,0.1,0,0.1c0,0,0,0,0,0c0,0,0,0,0,0
		C7.6,3.6,7.6,3.5,7.6,3.5C7.6,3.5,7.6,3.5,7.6,3.5C7.6,3.5,7.6,3.5,7.6,3.5L7.6,3.5z"/>
	<path class="st3" d="M7.4,3.6C7.4,3.6,7.4,3.6,7.4,3.6C7.4,3.6,7.4,3.6,7.4,3.6c0.1,0.1,0.1,0.1,0.1,0.1c0,0,0,0-0.1,0
		c0,0,0,0-0.1,0C7.3,3.7,7.3,3.6,7.4,3.6C7.3,3.6,7.3,3.6,7.4,3.6C7.3,3.6,7.3,3.6,7.4,3.6L7.4,3.6z"/>
	<path class="st3" d="M7.2,3.7C7.2,3.7,7.2,3.7,7.2,3.7c0,0.1,0,0.1,0,0.1c0,0,0,0-0.1,0c0,0,0,0-0.1,0c0,0,0,0,0-0.1c0,0,0,0,0-0.1
		C7.1,3.7,7.1,3.7,7.2,3.7C7.1,3.7,7.1,3.7,7.2,3.7L7.2,3.7z"/>
	<path class="st3" d="M7,3.9C7,3.9,7,3.9,7,3.9C7,3.9,7,4,7,4c0,0,0,0-0.1,0l0,0c0,0,0,0,0,0c0,0,0,0,0-0.1c0,0,0,0,0-0.1
		C6.9,3.8,6.9,3.8,7,3.9C6.9,3.8,7,3.8,7,3.9L7,3.9z"/>
	<path class="st3" d="M6.9,4.9C6.9,4.9,6.9,4.9,6.9,4.9C6.9,4.9,6.9,4.9,6.9,4.9L6.9,4.9L6.9,4.9C6.8,4.9,6.8,4.9,6.8,4.9
		c0,0,0,0,0-0.1c0,0,0,0,0-0.1l0,0C6.8,4.8,6.8,4.8,6.9,4.9L6.9,4.9C6.8,4.8,6.9,4.8,6.9,4.9C6.9,4.8,6.9,4.8,6.9,4.9L6.9,4.9z"/>
	<path class="st3" d="M6.9,5L6.9,5C6.9,5,6.9,5,6.9,5C7,5,7,5.1,6.9,5C7,5.1,7,5.1,7,5.1c0,0,0,0-0.1,0c0,0,0,0-0.1,0
		C6.8,5.1,6.8,5.1,6.9,5L6.9,5L6.9,5L6.9,5L6.9,5z"/>
	<path class="st3" d="M6.8,4.5C6.8,4.5,6.8,4.6,6.8,4.5C6.8,4.6,6.8,4.6,6.8,4.5c0.1,0.1,0.1,0.1,0.1,0.1c0,0,0,0-0.1,0
		c0,0,0,0-0.1,0C6.7,4.7,6.7,4.6,6.8,4.5C6.7,4.6,6.7,4.6,6.8,4.5C6.7,4.6,6.7,4.5,6.8,4.5L6.8,4.5z"/>
	<path class="st3" d="M7.3,5.7C7.3,5.7,7.3,5.7,7.3,5.7C7.3,5.8,7.3,5.8,7.3,5.7C7.2,5.8,7.2,5.8,7.2,5.8c0,0,0,0,0-0.1
		c0,0,0,0,0-0.1C7.2,5.6,7.2,5.6,7.3,5.7C7.3,5.6,7.3,5.6,7.3,5.7C7.3,5.6,7.3,5.7,7.3,5.7L7.3,5.7z"/>
	<path class="st3" d="M11.3,4.8C11.3,4.8,11.3,4.8,11.3,4.8C11.4,4.9,11.4,4.9,11.3,4.8C11.4,4.9,11.4,5,11.3,5c0,0,0,0-0.1,0
		c0,0,0,0-0.1,0C11.2,5,11.2,4.9,11.3,4.8C11.2,4.9,11.2,4.9,11.3,4.8C11.3,4.8,11.3,4.8,11.3,4.8L11.3,4.8z"/>
	<path class="st3" d="M10.6,4.8C10.6,4.8,10.6,4.8,10.6,4.8C10.7,4.8,10.7,4.8,10.6,4.8c0.1,0.1,0.1,0.1,0.1,0.1c0,0,0,0-0.1,0
		c0,0,0,0-0.1,0C10.5,4.9,10.5,4.9,10.6,4.8C10.5,4.9,10.5,4.8,10.6,4.8C10.6,4.8,10.6,4.8,10.6,4.8L10.6,4.8z"/>
	<path class="st3" d="M9.8,4.8C9.8,4.8,9.8,4.7,9.8,4.8C9.8,4.7,9.9,4.7,9.8,4.8c0.1-0.1,0.1-0.1,0.1-0.1c0,0,0,0,0,0.1
		c0,0,0,0,0,0.1C9.9,4.9,9.9,4.9,9.8,4.8C9.9,4.9,9.8,4.9,9.8,4.8C9.8,4.8,9.8,4.8,9.8,4.8L9.8,4.8z"/>
	<path class="st3" d="M9.2,4.8C9.2,4.8,9.2,4.8,9.2,4.8C9.3,4.8,9.3,4.9,9.2,4.8c0.1,0.1,0.1,0.1,0.1,0.1c0,0,0,0-0.1,0
		c0,0,0,0-0.1,0C9.1,4.9,9.1,4.9,9.2,4.8C9.1,4.8,9.1,4.8,9.2,4.8C9.1,4.8,9.2,4.8,9.2,4.8L9.2,4.8z"/>
	<path class="st3" d="M8.5,4.8C8.5,4.8,8.5,4.8,8.5,4.8C8.6,4.9,8.6,4.9,8.5,4.8C8.6,4.9,8.6,5,8.5,5c0,0,0,0-0.1,0c0,0,0,0-0.1,0
		C8.4,5,8.4,4.9,8.5,4.8C8.4,4.9,8.4,4.9,8.5,4.8C8.4,4.8,8.5,4.8,8.5,4.8L8.5,4.8z"/>
	<path class="st3" d="M7.8,5.1C7.8,5.1,7.8,5.1,7.8,5.1c0.1,0,0.1,0,0.1,0c0,0,0,0,0,0.1c0,0,0,0,0,0.1c0,0,0,0-0.1,0c0,0,0,0-0.1,0
		C7.8,5.2,7.7,5.2,7.8,5.1C7.7,5.1,7.8,5.1,7.8,5.1L7.8,5.1z"/>
	<path class="st3" d="M8.5,3.4L8.5,3.4L8.5,3.4c0,0.1,0,0.1,0,0.1c0,0,0,0-0.1,0c0,0,0,0-0.1,0c0,0,0,0,0,0l0,0
		C8.4,3.5,8.4,3.4,8.5,3.4L8.5,3.4C8.4,3.4,8.4,3.4,8.5,3.4L8.5,3.4L8.5,3.4z"/>
	<path class="st3" d="M11.7,6C11.7,6,11.7,6,11.7,6C11.7,6,11.7,6.1,11.7,6C11.7,6.1,11.7,6.1,11.7,6C11.6,6.1,11.6,6.1,11.7,6
		C11.6,6.1,11.6,6,11.7,6C11.6,6,11.6,6,11.7,6C11.6,6,11.6,6,11.7,6C11.7,6,11.7,6,11.7,6L11.7,6z"/>
	<path class="st3" d="M9.3,5.7C9.3,5.7,9.3,5.7,9.3,5.7C9.3,5.8,9.4,5.8,9.3,5.7c0.1,0.1,0.1,0.1,0,0.1c0,0,0,0,0,0c0,0,0,0,0,0
		C9.2,5.8,9.2,5.8,9.3,5.7C9.2,5.8,9.2,5.8,9.3,5.7C9.3,5.7,9.3,5.7,9.3,5.7L9.3,5.7z"/>
	<path class="st3" d="M8.2,6C8.3,6,8.3,6,8.2,6C8.3,6,8.3,6.1,8.2,6C8.2,6.1,8.2,6.1,8.2,6C8.2,6.1,8.2,6.1,8.2,6
		C8.2,6.1,8.2,6,8.2,6C8.2,6,8.2,6,8.2,6C8.2,6,8.2,6,8.2,6C8.2,6,8.2,6,8.2,6L8.2,6z"/>
	<path class="st3" d="M4.6,7v0.3l0.8,0.8C5.4,8,5.5,8,5.5,7.9L4.6,7L4.6,7z"/>
	<path class="st3" d="M8.4,10.7L7.3,9.7c0,0.1-0.1,0.1-0.1,0.2l0.9,0.9H8.4L8.4,10.7z"/>
	<path class="st4" d="M12,3.8L12,3.8c0.2,0,0.4,0.1,0.5,0.3c0.1,0.2,0.1,0.4-0.2,0.6l0-0.2c-0.1,0.1-0.2,0.1-0.3-0.1
		C12.1,4.3,12.1,4.1,12,3.8L12,3.8z"/>
	<path class="st4" d="M12.9,4.3L12.9,4.3c0,0.3-0.1,0.5-0.4,0.7c0,0-0.1,0-0.1-0.1c0.2-0.1,0.3-0.3,0.4-0.6c0-0.2-0.2-0.5-0.6-0.7
		C12.5,3.7,12.8,4,12.9,4.3L12.9,4.3z"/>
	<path class="st4" d="M12.6,5.3c0.1,0,0.1-0.1,0.1-0.2c0.1,0.1,0.2,0.2,0.3,0.1c0,0.1,0,0.2,0,0.2c0,0-0.1,0-0.1,0
		C12.8,5.4,12.8,5.4,12.6,5.3L12.6,5.3z"/>
	<path class="st4" d="M12.2,4.7c0,0.1,0,0.2,0,0.2c0,0.1-0.1,0.2-0.1,0.2C12,5,12,5,11.8,5c0-0.1,0-0.1,0-0.2c0.1,0,0.1-0.1,0.1-0.2
		C12,4.8,12.1,4.8,12.2,4.7L12.2,4.7z"/>
	<path class="st4" d="M11.9,4.6c-0.1,0.1-0.1,0.1-0.2,0c0.2-0.5,0.2-0.8-0.1-1.1C12,3.6,12.1,4,11.9,4.6L11.9,4.6z"/>
	<path class="st4" d="M11.5,4.9c0.1,0,0.1,0,0.2,0c0,0.1,0,0.2,0.1,0.3c-0.1,0-0.2,0-0.2,0.1c0-0.1,0-0.1-0.1-0.2
		C11.5,5,11.5,5,11.5,4.9L11.5,4.9z"/>
	<path class="st4" d="M12.1,5.3c0.1,0,0.1,0,0.2-0.1c0,0.1,0,0.2,0.1,0.2c-0.1,0-0.2,0.1-0.2,0.2c-0.1-0.1-0.1-0.1-0.2,0
		C12.2,5.4,12.2,5.3,12.1,5.3L12.1,5.3z"/>
	<polygon class="st4" points="12,6.2 12.2,6.2 12.2,6.2 12.3,6.3 12.1,6.4 12,6.2 	"/>
	<path class="st4" d="M12.4,5.8c-0.3,0-0.5-0.1-0.7-0.3c-0.2,0.1-0.4,0-0.6-0.2c-0.2,0.1-0.4,0.1-0.6-0.1c-0.2,0.1-0.4,0.1-0.6-0.1
		C9.7,5.3,9.4,5.3,9.2,5.2C9,5.4,8.8,5.4,8.6,5.3C8.4,5.5,8.2,5.6,8,5.5C7.8,5.7,7.6,5.8,7.3,5.8c0,0,0.1-0.1,0.1-0.1
		c0.2,0,0.4-0.1,0.5-0.4c0.4,0.1,0.6,0,0.6-0.2C8.7,5.3,8.9,5.2,9.2,5c0.2,0.2,0.5,0.2,0.7,0c0.2,0.2,0.5,0.3,0.7,0
		c0.3,0.2,0.5,0.3,0.7,0.1c0,0.2,0.2,0.3,0.6,0.2c0.1,0.2,0.3,0.3,0.5,0.4C12.4,5.7,12.4,5.8,12.4,5.8L12.4,5.8z"/>
	<path class="st4" d="M7.8,3.8L7.8,3.8c-0.1,0.3-0.1,0.5,0,0.7C7.7,4.7,7.6,4.7,7.5,4.6l0,0.2C7.2,4.6,7.1,4.4,7.3,4.2
		C7.4,3.9,7.6,3.8,7.8,3.8L7.8,3.8z"/>
	<path class="st4" d="M9.4,3.4c0-0.1,0-0.1,0.1-0.2l0,0c0,0,0-0.1,0.1-0.1c0,0,0,0,0.1,0.1C9.5,3.5,9.4,3.9,9.6,4.3c0,0-0.1,0-0.1,0
		l0-0.1C9.4,3.9,9.4,3.7,9.4,3.4L9.4,3.4z"/>
	<path class="st4" d="M8.9,4.3C8.8,4.2,8.7,4.1,8.8,3.9c0.1-0.2,0.3-0.4,0.6-0.5c-0.1,0.2-0.1,0.4,0,0.7C9.3,4.3,9.1,4.3,9,4.2
		C9,4.2,8.9,4.3,8.9,4.3L8.9,4.3z"/>
	<path class="st4" d="M10.1,3.2C10.1,3.1,10.2,3.1,10.1,3.2l0.2,0l0,0c0,0.1,0.1,0.1,0.1,0.2c0.1,0.2,0.1,0.5,0,0.8l0,0.1
		c0,0-0.1,0-0.1,0C10.4,3.9,10.3,3.5,10.1,3.2L10.1,3.2z"/>
	<path class="st4" d="M9.7,3.5c0,0.2,0,0.5,0,0.7C9.6,4,9.6,3.7,9.7,3.5L9.7,3.5z"/>
	<path class="st4" d="M10.1,3.5c0.1,0.2,0.1,0.5,0,0.7C10.1,4,10.1,3.7,10.1,3.5L10.1,3.5z"/>
	<path class="st4" d="M10.4,4.2c0.1-0.3,0.1-0.5,0-0.7c0.3,0.1,0.5,0.2,0.6,0.5c0.1,0.1,0,0.3-0.1,0.4c0,0,0-0.1-0.1-0.1
		C10.6,4.3,10.5,4.3,10.4,4.2L10.4,4.2z"/>
	<path class="st4" d="M6.9,4.3L6.9,4.3C7,4,7.2,3.7,7.7,3.7C7.3,3.9,7.1,4.1,7.1,4.4c0,0.2,0.1,0.4,0.4,0.6c0,0,0,0,0,0
		c0,0,0,0.1-0.1,0.1C7,4.9,6.9,4.7,6.9,4.3L6.9,4.3z"/>
	<path class="st4" d="M7.5,4.9c0.1,0,0.1-0.1,0-0.2c0.1,0.1,0.2,0,0.3-0.1c0,0.1,0.1,0.1,0.1,0.2C8,4.9,8,4.9,8,5
		C7.8,5,7.7,5,7.7,5.1C7.6,5.1,7.5,5,7.5,4.9L7.5,4.9z"/>
	<path class="st4" d="M6.9,5.5c0-0.1,0-0.1,0-0.2c0.1,0,0.2,0,0.3-0.1c0,0.1,0,0.2,0.1,0.2C7,5.4,6.9,5.4,6.9,5.5
		C6.9,5.5,6.9,5.5,6.9,5.5L6.9,5.5z"/>
	<path class="st4" d="M7.4,5.1c0,0.1,0.1,0.1,0.2,0.1c0,0.1,0,0.2,0,0.2c-0.1-0.1-0.1-0.1-0.2,0c0-0.1-0.1-0.1-0.2-0.2
		C7.4,5.3,7.5,5.2,7.4,5.1L7.4,5.1z"/>
	<polygon class="st4" points="7.6,6.2 7.6,6.2 7.8,6.2 7.7,6.4 7.5,6.3 7.6,6.2 	"/>
	<path class="st4" d="M11.1,4.5c0.1,0,0.2,0,0.3,0c0,0.1,0.1,0.2,0.2,0.2c-0.1,0-0.1,0-0.2,0.1c-0.1-0.1-0.1-0.1-0.2-0.1
		C11.2,4.7,11.2,4.6,11.1,4.5L11.1,4.5z"/>
	<path class="st4" d="M11,4.6c0,0.1,0,0.1,0.1,0.1c0,0,0,0.1,0,0.2C11,5,11,5,11,5.1c0-0.1-0.1-0.2-0.2-0.3C10.9,4.8,11,4.7,11,4.6
		L11,4.6z"/>
	<path class="st4" d="M10.9,4.5c0,0.1,0,0.2-0.1,0.2c-0.1-0.1-0.2-0.1-0.3,0c-0.1-0.1-0.1-0.1-0.1-0.3c0.1,0,0.1-0.1,0.1-0.2
		c0.1,0.2,0.2,0.2,0.3,0.1C10.8,4.4,10.8,4.5,10.9,4.5L10.9,4.5z"/>
	<path class="st4" d="M10.2,4.6c0,0.1,0.1,0.1,0.2,0.2c-0.1,0.1-0.2,0.2-0.2,0.3c0-0.1-0.1-0.1-0.1-0.1c0.1-0.1,0.1-0.2,0-0.3
		C10.1,4.7,10.2,4.7,10.2,4.6L10.2,4.6z"/>
	<path class="st4" d="M9.7,4.7c-0.1,0.1-0.1,0.2,0,0.3c-0.1,0-0.1,0-0.1,0.1c0-0.1-0.1-0.2-0.2-0.3c0.1,0,0.1-0.1,0.2-0.2
		C9.6,4.7,9.6,4.7,9.7,4.7L9.7,4.7z"/>
	<polygon class="st4" points="11.2,5.9 11,6 10.8,5.9 11,5.8 11.2,5.9 	"/>
	<path class="st4" d="M9.5,4.5c0,0.1,0,0.2-0.1,0.3c-0.1,0-0.2,0-0.3,0C9,4.7,8.9,4.6,8.9,4.5C9,4.5,9,4.4,9,4.3
		c0.1,0.1,0.2,0.1,0.3-0.1C9.3,4.4,9.4,4.4,9.5,4.5L9.5,4.5z"/>
	<path class="st4" d="M8.7,4.6C8.8,4.7,8.9,4.8,9,4.8C8.9,4.9,8.8,5,8.8,5.1C8.8,5,8.7,5,8.7,5c0-0.1,0-0.1,0-0.2
		C8.7,4.8,8.8,4.7,8.7,4.6L8.7,4.6z"/>
	<path class="st4" d="M8.6,4.7c-0.1,0-0.2,0-0.2,0.1c0-0.1-0.1-0.1-0.2-0.1c0.1-0.1,0.2-0.1,0.2-0.2c0.1,0.1,0.2,0.1,0.3,0
		C8.6,4.6,8.5,4.7,8.6,4.7L8.6,4.7z"/>
	<path class="st4" d="M8.1,4.6C8,4.7,7.9,4.7,7.9,4.6C7.7,4,7.8,3.6,8.1,3.5C7.9,3.7,7.9,4.1,8.1,4.6L8.1,4.6z"/>
	<path class="st4" d="M8.4,5.1c-0.1,0-0.1,0.1-0.1,0.2C8.2,5.1,8.1,5.1,8.1,5.1C8.1,5,8.1,5,8.1,4.8c0.1,0.1,0.1,0.1,0.2,0
		C8.3,5,8.3,5,8.4,5.1L8.4,5.1z"/>
	<polygon class="st4" points="9,5.9 8.8,6 8.6,5.9 8.7,5.8 9,5.9 	"/>
	<path class="st4" d="M12.3,6C12.3,6,12.3,6,12.3,6C12.3,6,12.3,6,12.3,6c-0.7-0.3-1.4-0.5-2.3-0.5H9.7c-0.9,0-1.6,0.2-2.2,0.6
		c0,0,0,0-0.1,0c0,0,0,0,0-0.1C8.1,5.6,9,5.4,9.9,5.4h0.1C10.8,5.4,11.6,5.6,12.3,6L12.3,6z"/>
	<path class="st4" d="M8.6,4.2c0-0.1-0.1-0.2,0-0.4C8.7,3.5,9,3.3,9.5,3.2l0,0.1C8.9,3.5,8.7,3.7,8.7,4c0,0.2,0.1,0.4,0.2,0.5
		c0,0,0,0.1-0.1,0.1C8.7,4.4,8.6,4.3,8.6,4.2L8.6,4.2z"/>
	<path class="st4" d="M10.4,3.3L10.4,3.3c0.4,0,0.7,0.2,0.8,0.5c0,0.2,0,0.3,0,0.4c0,0.1-0.1,0.2-0.2,0.3c-0.1,0-0.1-0.1-0.1-0.1
		c0.2-0.1,0.3-0.3,0.2-0.5C11.1,3.7,10.8,3.5,10.4,3.3L10.4,3.3z"/>
	<path class="st4" d="M9.8,4.6C9.8,4.6,9.8,4.6,9.8,4.6c0-0.1-0.1-0.1-0.1-0.1c0.1,0,0.1-0.1,0.2-0.2C10,4.4,10,4.5,10.1,4.5
		c0,0-0.1,0.1-0.1,0.1c0,0,0,0,0,0l-0.1,0L9.8,4.6L9.8,4.6z"/>
	<path class="st4" d="M10,5.7C10,5.7,10.1,5.7,10,5.7C10.1,5.7,10.1,5.7,10,5.7c0.1,0.1,0.1,0.1,0.1,0.2c0,0,0,0-0.1,0H9.8
		c0,0,0,0-0.1,0c0,0,0,0,0-0.1c0,0,0,0,0-0.1c0,0,0,0,0.1,0H10L10,5.7z"/>
	<path class="st3" d="M10.6,5.8C10.6,5.8,10.6,5.8,10.6,5.8C10.6,5.7,10.5,5.7,10.6,5.8c-0.1-0.1-0.1-0.1-0.1,0c0,0,0,0,0,0
		c0,0,0,0,0,0C10.5,5.9,10.5,5.9,10.6,5.8C10.5,5.9,10.6,5.9,10.6,5.8C10.6,5.8,10.6,5.8,10.6,5.8L10.6,5.8z"/>
	<path class="st0" d="M5.8,10.7c-0.1,0-0.1,0-0.2,0c0,0-0.1,0-0.1,0c0-0.1-0.1-0.1-0.2-0.2c-0.1,0-0.1,0-0.2,0
		c-0.1,0-0.1,0.1-0.1,0.2l0,0.3l0.9,0.2l0-0.2c0,0-0.3-0.1-0.4-0.1c0,0,0,0,0,0c0,0,0.1,0,0.2,0l0.2,0l0-0.2l0,0
		C5.9,10.7,5.9,10.7,5.8,10.7L5.8,10.7z M5.3,10.8C5.4,10.8,5.4,10.8,5.3,10.8C5.4,10.8,5.4,10.8,5.3,10.8
		C5.4,10.9,5.4,10.9,5.3,10.8c0.1,0.1,0.1,0.1,0.1,0.1c0,0-0.2,0-0.2,0C5.2,10.9,5.2,10.9,5.3,10.8C5.2,10.8,5.2,10.8,5.3,10.8
		C5.3,10.8,5.3,10.8,5.3,10.8L5.3,10.8z"/>
	<path class="st0" d="M5.9,10.4c0,0-0.2-0.1-0.2-0.1c0,0,0.1-0.2,0.1-0.2L5.6,10c0,0-0.1,0.2-0.1,0.2c0,0-0.1,0-0.2-0.1
		c0,0,0.1-0.3,0.1-0.3L5.3,9.9l0,0l-0.1,0.4L6,10.6l0.2-0.5L6,10.1C6,10.1,5.9,10.3,5.9,10.4L5.9,10.4z"/>
	<path class="st0" d="M5.6,9.4L5.5,9.5l0.7,0.6l0.1-0.2c0,0-0.1-0.1-0.1-0.1c0,0,0.1-0.1,0.1-0.1c0,0,0.2,0,0.2,0l0.1-0.2L5.6,9.4
		L5.6,9.4L5.6,9.4z M6,9.6C6,9.7,6,9.7,6,9.6C6,9.7,5.9,9.6,5.8,9.6C5.9,9.6,6,9.6,6,9.6L6,9.6z"/>
	<path class="st0" d="M6.5,9.3c0,0-0.6-0.4-0.6-0.4l0,0L5.8,9l0.7,0.5l0.3-0.4L6.6,9C6.6,9,6.5,9.2,6.5,9.3L6.5,9.3z"/>
	<path class="st0" d="M7.3,8.3c0,0.1,0,0.1-0.1,0.1c0,0-0.1,0-0.1,0C7,8.5,7,8.4,6.9,8.3C6.9,8.3,6.8,8.2,6.8,8.2c0-0.1,0-0.1,0-0.1
		c0,0,0.1,0,0.1,0l0,0L6.9,7.8l0,0c-0.1,0-0.1,0-0.2,0.1C6.6,8,6.6,8.1,6.6,8.2c0,0.1,0.1,0.2,0.2,0.3C6.9,8.6,7,8.6,7,8.7
		c0.1,0,0.2,0,0.3-0.1c0.1,0,0.1-0.1,0.1-0.2l0,0L7.3,8.3L7.3,8.3L7.3,8.3z"/>
	<path class="st0" d="M7.8,8c0,0-0.2,0.1-0.2,0.2c0,0-0.4-0.6-0.4-0.6l0,0L7.1,7.7l0.5,0.7l0.4-0.3L7.8,8L7.8,8z"/>
	<path class="st0" d="M8.2,7.1L8.2,7.1L8,7.2l0.2,0.5c0,0.1,0,0.1,0,0.1c0,0,0,0-0.1,0c0,0,0,0-0.1-0.1L7.8,7.2L7.6,7.3l0.2,0.5
		C7.9,7.9,8,8,8,8c0.1,0,0.1,0,0.2,0c0.1,0,0.1-0.1,0.2-0.2c0-0.1,0-0.2,0-0.2L8.2,7.1L8.2,7.1z"/>
	<path class="st0" d="M8.9,7.8C9,7.8,9,7.7,9.1,7.7c0,0,0-0.1,0-0.1c0,0,0,0,0-0.1c0-0.1-0.1-0.2-0.2-0.2c0,0,0.1-0.1,0.1-0.1
		c0,0,0,0,0-0.1C8.9,7,8.9,7,8.9,7c-0.1,0-0.1,0-0.2,0L8.4,7l0.2,0.9L8.9,7.8L8.9,7.8z M8.7,7.3C8.7,7.3,8.7,7.3,8.7,7.3
		c0,0-0.1-0.1-0.1-0.2c0,0,0,0,0,0c0,0,0.1,0,0.1,0c0,0,0,0,0,0.1C8.8,7.2,8.8,7.2,8.7,7.3C8.8,7.2,8.8,7.3,8.7,7.3L8.7,7.3z
		 M8.8,7.7c0,0,0-0.2-0.1-0.2c0,0,0.1,0,0.1,0c0,0,0,0,0.1,0c0,0,0,0,0,0.1c0,0,0,0,0,0C8.9,7.6,8.9,7.6,8.8,7.7
		C8.8,7.6,8.8,7.6,8.8,7.7L8.8,7.7z"/>
	<path class="st0" d="M10.1,7.5c0.1-0.1,0.1-0.2,0.1-0.3c0-0.1,0-0.2-0.1-0.3C10.1,6.8,10,6.8,9.9,6.8l-0.2,0l0,0l0,0.9l0.3,0
		C10,7.7,10.1,7.6,10.1,7.5L10.1,7.5z M10,7.2c0,0.1,0,0.2,0,0.2c0,0-0.1,0.1-0.1,0.1c0,0,0,0,0,0c0,0,0-0.5,0-0.5c0,0,0,0,0,0
		c0,0,0.1,0,0.1,0C10,7,10,7.1,10,7.2C10,7.2,10,7.2,10,7.2L10,7.2z"/>
	<path class="st0" d="M10.8,7.6c0,0-0.3,0-0.3,0c0,0,0-0.2,0-0.2c0,0,0.3,0,0.3,0l0-0.2c0,0-0.2,0-0.3,0c0,0,0-0.2,0-0.2
		c0,0,0.3,0,0.3,0l0-0.2l-0.5-0.1l0,0l-0.1,0.9l0.5,0.1L10.8,7.6L10.8,7.6z"/>
	<path class="st0" d="M11.1,7.9c0,0,0.1-0.3,0.1-0.3c0,0,0.1,0,0.1,0c0.1,0,0.2,0,0.2,0c0.1,0,0.1-0.1,0.1-0.2c0-0.1,0-0.1,0-0.2
		c0-0.1-0.1-0.1-0.2-0.1L11.2,7l0,0l-0.3,0.8L11.1,7.9L11.1,7.9z M11.3,7.2C11.3,7.2,11.3,7.2,11.3,7.2C11.4,7.2,11.4,7.2,11.3,7.2
		c0.1,0.1,0.1,0.1,0.1,0.1c0,0,0,0.1,0,0.1c0,0,0,0-0.1,0c0,0,0,0,0,0C11.3,7.3,11.3,7.2,11.3,7.2L11.3,7.2z"/>
	<path class="st0" d="M11.6,7.9c0,0.1,0.1,0.2,0.1,0.2c0.1,0,0.2,0,0.3,0l0,0c0.1,0,0.2-0.1,0.2-0.3c0.1-0.1,0.1-0.2,0.1-0.3
		c0-0.1-0.1-0.2-0.1-0.2c-0.1,0-0.2,0-0.3,0c-0.1,0-0.2,0.1-0.2,0.2C11.6,7.7,11.6,7.8,11.6,7.9L11.6,7.9z M12,7.5c0,0,0.1,0,0.1,0
		c0,0,0,0,0,0.1c0,0,0,0,0,0c0,0,0,0.1-0.1,0.2c0,0.1-0.1,0.1-0.1,0.2c0,0-0.1,0-0.1,0c0,0,0,0,0-0.1c0,0,0-0.1,0.1-0.2
		C11.9,7.6,11.9,7.6,12,7.5L12,7.5z"/>
	<path class="st0" d="M12.2,8.5c0,0,0.2-0.3,0.2-0.3c0,0,0,0,0,0c0,0,0,0,0,0c0,0,0,0.1-0.1,0.2l-0.1,0.2l0.2,0.1l0,0
		c0,0,0-0.1,0.1-0.2c0-0.1,0-0.1,0.1-0.2c0,0,0,0,0-0.1c0,0,0,0,0,0c0.1,0,0.2,0,0.2-0.1c0-0.1,0.1-0.1,0.1-0.2c0-0.1,0-0.1-0.1-0.2
		l-0.2-0.2l0,0l-0.5,0.7L12.2,8.5L12.2,8.5z M12.7,7.9C12.7,7.9,12.7,8,12.7,7.9C12.7,8,12.7,8,12.7,7.9c0,0.1,0,0.1,0,0.1
		c0,0-0.1,0.1-0.1,0c0,0,0,0,0,0C12.6,8,12.7,7.9,12.7,7.9C12.7,7.9,12.7,7.9,12.7,7.9L12.7,7.9z"/>
	<path class="st0" d="M12.6,8.8l0.1,0.1c0,0,0.5-0.5,0.5-0.5c0,0,0.1,0.1,0.1,0.1l0.1-0.1l-0.4-0.4l0,0L13,8.2c0,0,0.1,0.1,0.1,0.1
		C13.1,8.3,12.6,8.8,12.6,8.8L12.6,8.8z"/>
	<polygon class="st0" points="13.1,9.3 13.8,8.8 13.7,8.6 13.6,8.6 13,9.1 13.1,9.3 	"/>
	<path class="st0" d="M13.3,9.7l0.9-0.2l-0.1-0.2c0,0-0.3,0.1-0.4,0.1C13.7,9.3,14,9.1,14,9.1l-0.1-0.2l0,0L13.3,9.7L13.3,9.7
		L13.3,9.7z"/>
	<path class="st0" d="M14.4,9.8c0-0.1-0.1-0.1-0.2-0.2c-0.1,0-0.2,0-0.3,0c-0.1,0.1-0.2,0.1-0.3,0.2c-0.1,0.1-0.1,0.2,0,0.3
		c0,0.1,0.1,0.1,0.2,0.2c0.1,0,0.2,0,0.3,0c0.1-0.1,0.2-0.1,0.3-0.2C14.4,10,14.4,9.9,14.4,9.8L14.4,9.8z M14.2,9.9
		C14.2,10,14.2,10,14.2,9.9c-0.1,0.1-0.1,0.1-0.2,0.2c-0.1,0-0.2,0.1-0.2,0.1c0,0-0.1,0-0.1-0.1c0,0,0-0.1,0-0.1
		c0,0,0.1-0.1,0.2-0.1C14,9.9,14.1,9.8,14.2,9.9C14.2,9.9,14.2,9.9,14.2,9.9C14.2,9.9,14.2,9.9,14.2,9.9L14.2,9.9z"/>
	<path class="st0" d="M8.4,15.5l-0.2-0.1l0,0l-0.3,0.8l0.5,0.2l0.1-0.2c0,0-0.2-0.1-0.3-0.1C8.1,16.1,8.4,15.5,8.4,15.5L8.4,15.5z"
		/>
	<path class="st0" d="M8.9,15.6L8.9,15.6l-0.4,0.8l0.2,0c0,0,0.1-0.1,0.1-0.2c0,0,0.1,0,0.1,0c0,0,0,0.2,0,0.2l0.2,0l0-0.9L8.9,15.6
		L8.9,15.6z M9,16c0,0.1,0,0.2,0,0.2c0,0-0.1,0-0.1,0C8.9,16.2,8.9,16,9,16L9,16z"/>
	<path class="st0" d="M10.5,16.4c0,0-0.1,0.1-0.1,0.1c0,0-0.1,0-0.1-0.1c0,0-0.1-0.1-0.1-0.2c0-0.1,0-0.2,0-0.2c0,0,0.1-0.1,0.1-0.1
		c0,0,0.1,0,0.1,0l0,0l0-0.2l0,0c-0.1,0-0.1,0-0.2,0c-0.1,0-0.2,0.1-0.2,0.1C10,16,10,16.1,10,16.2c0,0.1,0.1,0.2,0.1,0.3
		c0.1,0.1,0.2,0.1,0.2,0.1c0.1,0,0.1,0,0.2-0.1l0,0L10.5,16.4L10.5,16.4L10.5,16.4z"/>
	<path class="st0" d="M11.2,15.7c-0.1-0.1-0.2-0.1-0.3-0.1c-0.1,0-0.1,0.1-0.2,0.2c0,0.1,0,0.2,0,0.3c0,0.1,0.1,0.2,0.2,0.3
		c0.1,0.1,0.2,0.1,0.3,0.1c0.1,0,0.1-0.1,0.2-0.2c0-0.1,0-0.2,0-0.3C11.3,15.8,11.3,15.7,11.2,15.7L11.2,15.7z M11.2,16.2
		C11.2,16.2,11.2,16.2,11.2,16.2c0,0.1,0,0.1-0.1,0.1c0,0-0.1,0-0.1,0c0,0-0.1-0.1-0.1-0.2c0-0.1,0-0.2,0-0.2c0,0,0-0.1,0.1-0.1
		c0,0,0.1,0,0.1,0c0,0,0.1,0.1,0.1,0.2C11.2,16.1,11.2,16.1,11.2,16.2L11.2,16.2z"/>
	<path class="st0" d="M12.2,15.9c-0.1-0.1-0.1-0.1-0.1-0.1c0,0,0,0-0.1,0c0,0,0-0.1,0-0.1c0,0,0-0.1,0-0.1c0-0.1-0.1-0.1-0.1-0.1
		c-0.1,0-0.1,0-0.2,0l-0.2,0.1l0.4,0.8l0.2-0.1c0,0-0.1-0.3-0.2-0.3c0,0,0,0,0.1,0c0,0,0,0,0.1,0.1l0.1,0.1l0.2-0.1l0,0
		C12.3,16,12.2,15.9,12.2,15.9L12.2,15.9z M11.8,15.5C11.8,15.6,11.8,15.6,11.8,15.5c0,0.1,0,0.1,0,0.1c0,0,0,0,0,0
		c0,0-0.1-0.1-0.1-0.2c0,0,0,0,0,0C11.8,15.5,11.8,15.5,11.8,15.5L11.8,15.5z"/>
	<path class="st0" d="M12.5,14.8L12.5,14.8l-0.2,0.1l0.4,0.5c0.1,0.1,0,0.1,0,0.1c0,0,0,0-0.1,0c0,0,0,0-0.1,0L12.2,15l-0.2,0.1
		l0.3,0.5c0.1,0.1,0.1,0.1,0.2,0.1c0.1,0,0.1,0,0.2-0.1c0.1-0.1,0.1-0.1,0.1-0.2c0-0.1,0-0.2-0.1-0.2L12.5,14.8L12.5,14.8z"/>
	<path class="st0" d="M13.1,14.2l-0.1,0.1c0,0,0.3,0.2,0.3,0.3c-0.1,0-0.5-0.2-0.5-0.2l-0.1,0.1l0.7,0.6l0.1-0.1
		c0,0-0.3-0.3-0.3-0.3c0.1,0,0.5,0.2,0.5,0.2l0.1-0.1L13.1,14.2L13.1,14.2L13.1,14.2z"/>
	<path class="st0" d="M12.8,14.4C12.8,14.4,12.9,14.4,12.8,14.4c0.1-0.1,0.1-0.1,0.1-0.1c0,0,0-0.1-0.1-0.1l0,0l0,0l-0.1,0.1l0,0
		c0,0,0,0,0,0c0,0,0,0-0.1,0c0,0-0.1,0-0.1,0c0,0,0,0.1,0,0.1c0,0,0,0.1,0.1,0.1l0,0L12.8,14.4L12.8,14.4
		C12.7,14.4,12.7,14.4,12.8,14.4C12.7,14.4,12.8,14.4,12.8,14.4L12.8,14.4z"/>
	<path class="st0" d="M13.4,13.8l-0.1,0.2l0.6,0.7l0.1-0.2c0,0-0.1-0.1-0.1-0.1c0,0,0.1-0.1,0.1-0.1c0,0,0.2,0.1,0.2,0.1l0.1-0.2
		L13.4,13.8L13.4,13.8L13.4,13.8z M13.8,14.1C13.8,14.1,13.8,14.2,13.8,14.1c-0.1,0.1-0.2,0-0.2-0.1C13.7,14,13.8,14.1,13.8,14.1
		L13.8,14.1z"/>
	<path class="st0" d="M6.1,13.9c0,0-0.1,0-0.1,0.1C6,14,6,14.1,6,14.1c0,0,0,0.1,0.1,0.1c0,0,0.1,0.1,0.1,0.1c0.1,0,0.1,0,0.1-0.1
		c0,0,0.1-0.1,0.1-0.1c0,0,0-0.1-0.1-0.1C6.2,14,6.2,13.9,6.1,13.9L6.1,13.9z"/>
	<path class="st0" d="M5.6,13.2L5.6,13.2c0,0-0.1,0.1-0.1,0.1c0,0,0,0.1,0.1,0.1c0,0,0.1,0.1,0.1,0.1c0.1,0,0.1,0,0.1-0.1
		c0,0,0.1-0.1,0.1-0.1c0-0.1,0-0.1-0.1-0.1c0,0-0.1-0.1-0.1-0.1C5.7,13.2,5.6,13.2,5.6,13.2L5.6,13.2z"/>
	<path class="st1" d="M6.2,14C6.2,14,6.2,14,6.2,14c-0.1,0-0.1,0-0.1,0c0,0,0,0,0,0.1c0,0,0,0,0,0.1l0,0l0,0c0,0,0,0,0.1,0
		c0,0,0,0,0.1,0C6.2,14.2,6.2,14.1,6.2,14C6.2,14.1,6.2,14.1,6.2,14L6.2,14z"/>
	<rect x="6.2" y="14" class="st1" width="0" height="0"/>
	<path class="st1" d="M5.7,13.3C5.7,13.3,5.7,13.3,5.7,13.3C5.6,13.3,5.6,13.3,5.7,13.3c-0.1,0.1-0.1,0.2-0.1,0.2c0,0,0,0,0.1,0
		c0,0,0.1,0,0.1,0C5.8,13.4,5.8,13.4,5.7,13.3C5.8,13.3,5.8,13.3,5.7,13.3C5.8,13.3,5.7,13.3,5.7,13.3L5.7,13.3z"/>
	<rect x="5.8" y="13.3" class="st1" width="0" height="0"/>
</g>
</svg>
