<?xml version="1.0" encoding="utf-8"?>
<!-- Generator: Adobe Illustrator 19.1.0, SVG Export Plug-In . SVG Version: 6.00 Build 0)  -->
<svg version="1.1" id="Layer_1" xmlns="http://www.w3.org/2000/svg" xmlns:xlink="http://www.w3.org/1999/xlink" x="0px" y="0px"
	 viewBox="0 0 20 20" style="enable-background:new 0 0 20 20;" xml:space="preserve">
<style type="text/css">
	.st0{fill:#E25645;}
	.st1{fill:#FFE52B;}
	.st2{fill:#FFFFFF;}
	.st3{fill:#0093D1;}
</style>
<g>
	<path class="st0" d="M15.4,12.2c0-3.1-2.5-5.6-5.6-5.6c-3.1,0-5.6,2.5-5.6,5.6c0,3.1,2.5,5.6,5.6,5.6
		C12.8,17.9,15.4,15.3,15.4,12.2z"/>
	<path class="st0" d="M11.4,4.3c-0.5-0.5-1-0.6-1.7-0.2C9.1,3.7,8.6,3.8,8.1,4.3C7.5,4,7,4.1,6.7,4.6l0.6,1.6l0.8,0
		C8.7,6,9.2,5.9,9.7,6c0.6,0,1.1,0,1.6,0.2l0.8,0l0.6-1.6C12.5,4.1,12,4,11.4,4.3z"/>
	<path class="st1" d="M13.2,4.4c0-0.8-0.6-1.4-1.6-1.1c-0.3-0.4-0.6-0.5-1-0.5c-0.1,0-0.2,0-0.3,0.1c0-0.4-0.1-0.6-0.4-0.6V2.1H10
		V1.9H9.8V1.7H9.7v0.2H9.5v0.2h0.2v0.3c-0.3,0-0.4,0.2-0.4,0.6C9.1,2.9,9,2.9,8.9,2.9c-0.4,0-0.7,0.1-1,0.5c-0.1,0-0.2-0.1-0.3-0.1
		C6.8,3.2,6.3,3.7,6.3,4.4v0.2c0,0.5,0.3,1.1,0.7,1.5c0,0,0,0,0,0c0,0.1,0,0.1,0,0.2c0,0.1,0,0.1,0,0.2c0,0.1,0.1,0.1,0.1,0.2
		c0.1,0,0.1,0.1,0.2,0.1c0.1,0,0.1,0,0.2,0c0,0,0.1,0,0.1,0c0,0,0.1,0,0.1,0c0.1,0,0.1-0.1,0.2-0.1C8,6.6,8,6.5,8.1,6.5
		c0-0.1,0-0.1,0-0.2c0,0,0-0.1,0-0.1c0,0,0,0,0,0c0,0.1,0.1,0.1,0.1,0.2c0.1,0,0.1,0.1,0.2,0.1c0.1,0,0.2,0,0.2,0c0.1,0,0.2,0,0.2,0
		c0,0,0.1,0,0.1,0c0,0,0.1,0,0.1-0.1c0.1,0,0.1-0.1,0.1-0.1c0-0.1,0-0.1,0-0.2c0,0,0,0,0,0c0,0,0,0.1,0,0.1c0,0.1,0.1,0.1,0.1,0.2
		c0.1,0,0.1,0.1,0.2,0.1c0.1,0,0.1,0,0.2,0c0.1,0,0.2,0,0.2,0c0.1,0,0.1-0.1,0.2-0.1c0.1,0,0.1-0.1,0.1-0.2c0,0,0-0.1,0-0.1
		c0,0,0,0,0,0c0,0.1,0,0.1,0,0.2c0,0.1,0.1,0.1,0.1,0.2c0,0,0.1,0,0.1,0.1c0,0,0.1,0,0.1,0c0.1,0,0.1,0,0.2,0c0.1,0,0.2,0,0.2,0
		c0.1,0,0.1-0.1,0.2-0.1c0.1,0,0.1-0.1,0.1-0.1c0,0,0,0,0,0c0,0,0,0.1,0,0.1c0,0.1,0,0.1,0,0.2c0,0.1,0.1,0.1,0.1,0.2
		c0.1,0,0.1,0.1,0.2,0.1c0.1,0,0.1,0,0.2,0c0.1,0,0.2,0,0.2,0c0.1,0,0.1-0.1,0.2-0.1c0.1,0,0.1-0.1,0.1-0.2c0-0.1,0-0.1,0-0.2
		c0-0.1,0-0.1,0-0.2c0,0,0,0,0,0c0.5-0.4,0.7-1,0.7-1.5V4.4z M8.1,5.9C8,5.9,8,6,8,6c0,0,0,0.1,0,0.1c0,0,0,0,0,0C8,6.1,8,6,7.9,6
		C7.9,6,7.8,5.9,7.7,5.9c0,0-0.1,0-0.1,0c0,0-0.1,0-0.1,0c0,0,0,0,0,0l0-0.2C7.1,5.3,6.6,3.9,7.6,4c0,0,0.1,0,0.1,0
		C7.6,4.6,7.9,5.2,8.2,5.7C8.1,5.8,8.1,5.8,8.1,5.9z M9.3,5.6c-0.1,0-0.1,0.1-0.1,0.2c0,0.1,0,0.1,0,0.2c0,0,0,0,0,0
		c0,0,0-0.1,0-0.1c0-0.1-0.1-0.1-0.1-0.2c0,0-0.1,0-0.1-0.1c0,0-0.1,0-0.1,0c0,0,0,0,0,0l0-0.1C8.5,5.1,8.1,3.6,8.9,3.6
		c0.1,0,0.3,0,0.5,0.1v1.8L9.3,5.6C9.4,5.6,9.4,5.6,9.3,5.6z M10.7,5.5l0,0.1c0,0,0,0,0,0c0,0-0.1,0-0.1,0c0,0-0.1,0-0.1,0.1
		c-0.1,0-0.1,0.1-0.1,0.2c0,0,0,0.1,0,0.1c0,0,0,0,0,0c0-0.1,0-0.1,0-0.2c0-0.1-0.1-0.1-0.1-0.2c0,0-0.1,0-0.1-0.1l0-0.1V3.6
		c0.2-0.1,0.3-0.1,0.5-0.1C11.4,3.6,11,5.1,10.7,5.5z M12,5.7l0,0.2c0,0,0,0,0,0c-0.1,0-0.2,0-0.2,0c-0.1,0-0.1,0.1-0.2,0.1
		c-0.1,0-0.1,0.1-0.1,0.2c0,0,0,0,0,0c0,0,0-0.1,0-0.1c0-0.1,0-0.1,0-0.2c0-0.1-0.1-0.1-0.1-0.1c0.3-0.5,0.6-1.1,0.5-1.8
		C12.9,3.8,12.4,5.2,12,5.7z"/>
	<g>
		<circle class="st1" cx="14.6" cy="12.2" r="0.2"/>
		<path class="st1" d="M5.2,13.8c0,0,0.1,0,0.2,0c0.1,0,0.2-0.1,0.2-0.1c0.1-0.1,0.1-0.1,0.1-0.2c0-0.1,0-0.1,0-0.2
			c0-0.1,0-0.2-0.1-0.4l-0.1-0.2l-0.4,0.1l-0.6,0.2l0.1,0.2l0,0c0,0.1,0.1,0.2,0.1,0.3c0,0.1,0.1,0.1,0.1,0.2
			c0.1,0.1,0.1,0.1,0.2,0.1C5.1,13.8,5.1,13.8,5.2,13.8z M4.9,13.2L4.9,13.2l0.3-0.1L5.4,13l0,0c0,0.1,0,0.2,0,0.3
			c0,0.1-0.1,0.1-0.2,0.1c0,0-0.1,0-0.1,0c-0.1,0-0.1,0-0.2,0C4.9,13.4,4.9,13.3,4.9,13.2z"/>
		<polygon class="st1" points="5.8,14.1 6,14.4 6.2,14.3 5.9,13.7 4.9,14.2 5.3,14.8 5.5,14.7 5.3,14.4 5.4,14.3 5.6,14.6 5.8,14.5 
			5.6,14.2 		"/>
		<path class="st1" d="M6.7,16c0.1-0.1,0.1-0.1,0.1-0.2c0-0.1,0-0.1-0.1-0.2c0.1,0,0.1,0.1,0.2,0c0,0,0.1,0,0.1-0.1
			c0,0,0.1-0.1,0.1-0.1c0,0,0-0.1,0-0.1c0,0,0-0.1-0.1-0.1c0,0-0.1-0.1-0.2-0.2l-0.2-0.2l0,0L6.5,15l-0.7,0.7L6,15.8
			C6.1,15.9,6.2,16,6.2,16c0,0,0.1,0.1,0.1,0.1c0,0,0.1,0,0.1,0c0,0,0,0,0,0C6.6,16.1,6.6,16.1,6.7,16C6.6,16,6.6,16,6.7,16z
			 M6.5,15.8C6.5,15.8,6.5,15.8,6.5,15.8c-0.1,0.1-0.1,0.1-0.1,0.1c0,0-0.1,0-0.1-0.1l-0.1-0.1l0.2-0.2l0.1,0.1
			C6.5,15.6,6.5,15.6,6.5,15.8C6.5,15.7,6.5,15.7,6.5,15.8C6.5,15.7,6.5,15.7,6.5,15.8z M6.5,15.4L6.5,15.4L6.5,15.4L6.5,15.4
			l0.1-0.2l0,0l0,0c0.1,0.1,0.1,0.1,0.1,0.1c0,0,0,0.1,0,0.1c0,0-0.1,0-0.1,0c0,0,0,0,0,0C6.6,15.5,6.6,15.4,6.5,15.4z"/>
		<path class="st1" d="M7.4,15.8l-0.8,0.7l0.3,0.1L7,16.4l0.4,0.2l0,0l0,0.1l0,0.1l0,0L7.6,17l0.2-1.1l-0.3-0.2L7.4,15.8z M7.6,15.9
			C7.6,15.9,7.6,16,7.6,15.9c0,0.1,0,0.1,0,0.1l-0.1,0.4l-0.1,0l-0.2-0.1l0.2-0.2L7.5,16C7.5,16,7.5,16,7.6,15.9
			C7.5,15.9,7.6,15.9,7.6,15.9z"/>
		<path class="st1" d="M9,16.3c0,0-0.1-0.1-0.1-0.1c0,0-0.1-0.1-0.2-0.1l0,0l-0.3-0.1L8,17.1l0.3,0.1l0.1-0.4l0.1,0.5l0,0l0.3,0.1
			l-0.2-0.5c0.1,0,0.1,0,0.2-0.1C9,16.7,9,16.7,9,16.6c0-0.1,0-0.1,0-0.2C9,16.4,9,16.4,9,16.3z M8.7,16.6
			C8.7,16.6,8.7,16.6,8.7,16.6c-0.1,0.1-0.1,0.1-0.1,0.1c0,0-0.1,0-0.1,0l-0.1,0l0.1-0.3l0.1,0c0,0,0,0,0,0c0.1,0,0.1,0,0.1,0.1
			C8.7,16.5,8.7,16.5,8.7,16.6z"/>
		<path class="st1" d="M9.9,16.3c-0.1,0-0.2,0-0.2,0c-0.1,0-0.1,0.1-0.2,0.1c-0.1,0.1-0.1,0.1-0.1,0.2c0,0.1,0,0.1,0,0.2
			c0,0.1,0,0.2,0.1,0.3c0,0.1,0.1,0.2,0.2,0.2c0,0,0.1,0.1,0.1,0.1c0,0,0.1,0,0.2,0c0,0,0.1,0,0.1,0c0,0,0.1,0,0.1,0l0-0.3
			c0,0-0.1,0.1-0.1,0.1c0,0-0.1,0-0.1,0c-0.1,0-0.1,0-0.2-0.1C9.6,17,9.6,17,9.6,16.9c0-0.1,0-0.2,0.1-0.2c0.1-0.1,0.1-0.1,0.2-0.1
			c0,0,0.1,0,0.1,0c0,0,0.1,0.1,0.1,0.1l0-0.3c0,0-0.1,0-0.1-0.1C10,16.3,9.9,16.3,9.9,16.3z"/>
		<polygon class="st1" points="10.9,17 10.8,16.8 11.2,16.8 11.1,16.5 10.8,16.6 10.7,16.4 11.1,16.3 11.1,16.1 10.4,16.3 
			10.7,17.3 11.3,17.2 11.2,16.9 		"/>
		<polygon class="st1" points="12,16.6 11.6,15.9 11.3,16 11.8,17 12.4,16.7 12.3,16.5 		"/>
		<path class="st1" d="M13.3,15.3L13.3,15.3c-0.1-0.1-0.1-0.1-0.2-0.1c-0.1,0-0.1-0.1-0.2-0.1c0,0,0,0-0.1,0c-0.1,0-0.1,0-0.2,0
			c-0.1,0-0.1,0.1-0.2,0.1c-0.1,0-0.1,0.1-0.1,0.2c0,0.1-0.1,0.1-0.1,0.2c0,0.1,0,0.2,0,0.2c0,0.1,0.1,0.1,0.1,0.2
			c0,0.1,0.1,0.1,0.2,0.1c0.1,0,0.1,0.1,0.2,0.1c0,0,0,0,0.1,0c0.1,0,0.1,0,0.2,0c0.1,0,0.1-0.1,0.2-0.1c0.1,0,0.1-0.1,0.1-0.2
			c0-0.1,0.1-0.1,0.1-0.2c0-0.1,0-0.1,0-0.2C13.4,15.4,13.4,15.3,13.3,15.3z M13.1,15.9C13,16,13,16,12.9,16c0,0,0,0,0,0
			c-0.1,0-0.1-0.1-0.2-0.1c-0.1-0.1-0.1-0.1-0.1-0.2c0-0.1,0-0.1,0.1-0.2c0.1-0.1,0.1-0.1,0.2-0.1c0,0,0,0,0,0
			c0.1,0,0.2,0.1,0.2,0.1c0.1,0.1,0.1,0.1,0.1,0.2C13.2,15.8,13.1,15.9,13.1,15.9z"/>
		<path class="st1" d="M13.5,14l0.5,0.3c0,0,0.1,0,0.1,0c0,0,0.1,0,0.1,0.1c-0.1,0-0.1,0-0.1,0c0,0-0.1,0-0.1,0l-0.7,0.1l-0.1,0.2
			l0.9,0.6l0.1-0.2l-0.5-0.3c0,0-0.1,0-0.1,0c0,0-0.1,0-0.1-0.1c0.1,0,0.1,0,0.1,0c0,0,0.1,0,0.1,0l0.7-0.1l0.1-0.2l-0.9-0.6
			L13.5,14z"/>
		<path class="st1" d="M14.9,13.1l0.1-0.3l-0.8,0.1l-0.4,0l-0.1,0.4l0.5,0.3l0.5,0.3l0.1-0.3l-0.2-0.1l0.1-0.4L14.9,13.1z
			 M14.4,13.4l-0.2-0.1l-0.1-0.1c0,0,0,0-0.1,0c0,0,0,0-0.1,0c0,0,0.1,0,0.1,0c0,0,0,0,0.1,0l0.1,0l0.3,0L14.4,13.4z"/>
		<circle class="st1" cx="4.9" cy="12.2" r="0.2"/>
		<path class="st1" d="M5.7,11.5l0.1-0.3l-0.4-0.1L5.8,11l0.1-0.3l-0.5,0.2c0-0.1,0-0.1-0.1-0.2c0-0.1-0.1-0.1-0.2-0.1
			c0,0-0.1,0-0.1,0c0,0,0,0-0.1,0c0,0-0.1,0-0.1,0.1c0,0-0.1,0.1-0.1,0.1c0,0-0.1,0.1-0.1,0.2l-0.1,0.3l0.5,0.1L5.7,11.5z M4.9,11
			L4.9,11C5,10.9,5,10.8,5,10.8c0,0,0,0,0.1,0c0,0,0,0,0.1,0c0,0,0.1,0,0.1,0.1c0,0,0,0.1,0,0.1l0,0.1l-0.1,0L4.9,11z"/>
		<path class="st1" d="M5.3,10.2c0,0.1,0.1,0.1,0.2,0.1c0.1,0.1,0.2,0.1,0.3,0.1c0.1,0,0.2,0,0.3-0.1c0,0,0.1-0.1,0.1-0.1
			c0,0,0.1-0.1,0.1-0.1c0,0,0-0.1,0.1-0.1c0,0,0-0.1,0-0.1L6.1,9.7c0,0.1,0,0.1,0,0.2c0,0,0,0.1,0,0.1C6,10,6,10.1,5.9,10.1
			c-0.1,0-0.2,0-0.2,0C5.6,10,5.5,10,5.5,9.9c0-0.1,0-0.1,0-0.2c0,0,0.1-0.1,0.1-0.1c0,0,0.1,0,0.1-0.1L5.5,9.4c0,0-0.1,0.1-0.1,0.1
			c0,0-0.1,0.1-0.1,0.1c0,0.1-0.1,0.1-0.1,0.2c0,0.1,0,0.1,0,0.2C5.2,10.1,5.3,10.1,5.3,10.2z"/>
		<polygon class="st1" points="5.5,9.4 5.5,9.4 5.5,9.4 		"/>
		<path class="st1" d="M6.5,9.7l0.2-0.2l0,0c0.1-0.1,0.2-0.2,0.2-0.2c0-0.1,0.1-0.1,0.1-0.2c0-0.1,0-0.2,0-0.2
			c0-0.1-0.1-0.1-0.2-0.2C6.7,8.6,6.6,8.5,6.5,8.5c-0.1,0-0.1,0-0.2,0c0,0,0,0-0.1,0c-0.1,0-0.1,0-0.2,0.1C6,8.6,6,8.7,5.8,8.8
			L5.7,9l0.7,0.6L6.5,9.7z M6.1,8.9L6.1,8.9c0.1-0.1,0.2-0.2,0.3-0.2c0,0,0,0,0,0c0.1,0,0.1,0,0.2,0.1C6.6,8.9,6.7,9,6.7,9.1
			c0,0.1,0,0.2-0.1,0.2l0,0L6.4,9.2L6.1,8.9z"/>
		<polygon class="st1" points="8.3,8.4 8.2,8.2 7.9,8.3 7.8,8.1 8.1,8 8,7.8 7.7,7.9 7.6,7.8 8,7.6 7.9,7.4 7.3,7.7 7.7,8.7 		"/>
		<path class="st1" d="M9.1,7.7C9.1,7.7,9,7.6,9.1,7.7C9,7.6,8.9,7.6,8.8,7.6c0,0,0,0,0,0c-0.1,0-0.1,0-0.1,0c0,0,0,0,0-0.1
			c0,0,0-0.1,0-0.1c0,0,0,0,0.1,0c0,0,0.1,0,0.1,0c0,0,0.1,0,0.1,0l0-0.2c-0.1,0-0.1,0-0.2,0c-0.1,0-0.1,0-0.2,0
			c-0.1,0-0.2,0.1-0.2,0.2c-0.1,0.1-0.1,0.2,0,0.3c0,0.1,0.1,0.1,0.1,0.2c0.1,0,0.1,0.1,0.2,0.1c0.1,0,0.1,0,0.2,0c0,0,0,0,0.1,0.1
			c0,0,0,0.1,0,0.1c0,0,0,0-0.1,0.1c0,0-0.1,0-0.1,0c0,0-0.1,0-0.2-0.1L8.4,8.2c0.1,0,0.1,0.1,0.2,0.1c0.1,0,0.1,0,0.2,0
			c0.1,0,0.2-0.1,0.3-0.2c0.1-0.1,0.1-0.2,0-0.3C9.1,7.8,9.1,7.7,9.1,7.7z"/>
		<path class="st1" d="M9.7,8.1l0-0.4l0.1,0l0,0c0,0,0,0,0,0c0.1,0,0.2,0,0.2,0c0,0,0.1,0,0.1-0.1c0,0,0.1-0.1,0.1-0.1
			c0,0,0-0.1,0-0.2c0-0.1,0-0.1,0-0.2c0,0-0.1-0.1-0.1-0.1c0,0-0.1,0-0.1-0.1c0,0-0.1,0-0.2,0c0,0-0.1,0-0.1,0l-0.3,0l0,1.1L9.7,8.1
			z M9.7,7.3C9.7,7.3,9.7,7.3,9.7,7.3c0.1,0,0.1,0,0.1,0c0,0,0,0.1,0,0.1c0,0,0,0.1,0,0.1c0,0,0,0-0.1,0c0,0,0,0-0.1,0l-0.1,0
			L9.7,7.3L9.7,7.3z"/>
		<path class="st1" d="M10.4,8.2L10.5,8l0.3,0.1l0.2,0l0,0.2l0.3,0.1l-0.1-1.1l-0.3-0.1l0,0l-0.6,1L10.4,8.2z M10.8,7.6L10.8,7.6
			c0.1-0.1,0.1-0.1,0.1-0.1c0,0,0,0,0-0.1c0,0,0,0.1,0,0.1c0,0,0,0,0,0.1l0,0.4l-0.1,0l-0.1,0L10.8,7.6z"/>
		<path class="st1" d="M11.9,8.1C11.9,8.1,11.9,8.1,11.9,8.1C11.9,8,11.9,8,12,7.9C12,8,12,8,11.9,8.1C11.9,8.1,11.9,8.1,11.9,8.1
			L12,8.8L12.3,9L12.8,8l-0.2-0.1l-0.3,0.5c0,0,0,0.1,0,0.1c0,0,0,0.1,0,0.1c0-0.1,0-0.1,0-0.1c0,0,0-0.1,0-0.1l-0.1-0.7l-0.2-0.1
			l-0.5,0.9l0.2,0.1L11.9,8.1z"/>
		<path class="st1" d="M12.8,9.5l0.4-0.3L13.8,9l-0.2-0.2l-0.3,0.1c0,0,0,0,0,0c0,0-0.1,0-0.1,0c0,0,0,0,0-0.1c0,0,0,0,0,0l0.1-0.3
			l-0.2-0.2l-0.2,0.7l-0.4,0.3L12.8,9.5z"/>
		<path class="st1" d="M13.7,9.4c-0.1,0-0.1,0-0.2,0.1c-0.1,0-0.1,0.1-0.2,0.1c0,0.1-0.1,0.1-0.1,0.2c0,0.1,0,0.1,0,0.2
			c0,0.1,0,0.1,0.1,0.2c0,0.1,0.1,0.1,0.1,0.2c0.1,0,0.1,0.1,0.2,0.1c0.1,0,0.1,0,0.2,0c0,0,0,0,0.1,0c0.1,0,0.1,0,0.2-0.1
			c0.1,0,0.1-0.1,0.2-0.1c0-0.1,0.1-0.1,0.1-0.2c0-0.1,0-0.2,0-0.2c0-0.1,0-0.1-0.1-0.2c0-0.1-0.1-0.1-0.1-0.2
			c-0.1,0-0.1-0.1-0.2-0.1C13.9,9.4,13.8,9.4,13.7,9.4C13.8,9.4,13.7,9.4,13.7,9.4z M13.9,9.7c0.1,0,0.1,0.1,0.2,0.1
			c0,0.1,0,0.1,0,0.2c0,0.1-0.1,0.1-0.2,0.2c0,0-0.1,0-0.1,0c0,0-0.1,0-0.1,0c-0.1,0-0.1-0.1-0.2-0.1c0-0.1,0-0.1,0-0.2
			c0-0.1,0.1-0.1,0.2-0.2c0,0,0.1,0,0.1,0C13.8,9.7,13.9,9.7,13.9,9.7z"/>
		<polygon class="st1" points="13.8,11.6 14,11.5 14,11.2 14.8,11 14.7,10.7 13.7,10.9 		"/>
	</g>
	<path class="st2" d="M13.5,12.2c0-2-1.7-3.7-3.7-3.7c-2,0-3.7,1.7-3.7,3.7c0,2,1.7,3.7,3.7,3.7C11.8,15.9,13.5,14.3,13.5,12.2z"/>
	<path class="st3" d="M11.1,8.8c-0.4-0.2-0.9-0.3-1.4-0.3c-0.2,0-0.3,0-0.5,0l-3.2,3.2c0,0.2,0,0.3,0,0.5c0,0.5,0.1,0.9,0.3,1.4
		L11.1,8.8z"/>
	<path class="st3" d="M12.9,10.3c-0.3-0.5-0.7-0.9-1.2-1.2l-5.1,5.1c0.3,0.5,0.7,0.9,1.2,1.2L12.9,10.3z"/>
	<path class="st3" d="M13.4,12.7c0-0.2,0-0.3,0-0.5c0-0.5-0.1-0.9-0.3-1.4l-4.8,4.8c0.4,0.2,0.9,0.3,1.4,0.3c0.2,0,0.3,0,0.5,0
		L13.4,12.7z"/>
</g>
</svg>
