<?xml version="1.0" encoding="utf-8"?>
<!-- Generator: Adobe Illustrator 19.1.0, SVG Export Plug-In . SVG Version: 6.00 Build 0)  -->
<svg version="1.1" id="Layer_1" xmlns="http://www.w3.org/2000/svg" xmlns:xlink="http://www.w3.org/1999/xlink" x="0px" y="0px"
	 viewBox="0 0 20 20" style="enable-background:new 0 0 20 20;" xml:space="preserve">
<style type="text/css">
	.st0{fill:#343536;}
	.st1{fill:#85BFE5;}
	.st2{fill:#FFFFFF;}
	.st3{fill:#F2D765;}
	.st4{fill:#D88375;}
	.st5{fill:#6FB876;}
</style>
<g>
	<path class="st0" d="M11.9,3.1c-0.3-0.7-1-1.3-1.9-1.3c-0.8,0-1.6,0.5-1.9,1.3C5,3.9,2.7,6.8,2.7,10.2c0,4,3.3,7.3,7.3,7.3
		c4,0,7.3-3.3,7.3-7.3C17.3,6.8,15,3.9,11.9,3.1"/>
	<path class="st1" d="M11.9,3.2C12,3.4,12,3.6,12,3.8c0,0.4-0.1,0.8-0.3,1.1c2.2,0.7,3.8,2.8,3.8,5.2c0,3-2.5,5.5-5.5,5.5
		c-3,0-5.5-2.5-5.5-5.5c0-2.4,1.6-4.5,3.8-5.2C8.1,4.6,8,4.2,8,3.8c0-0.2,0-0.4,0.1-0.6C5,4.1,2.8,6.8,2.8,10.2c0,4,3.2,7.2,7.2,7.2
		c4,0,7.2-3.2,7.2-7.2C17.2,6.8,15,4.1,11.9,3.2"/>
	<path class="st2" d="M10,5.8C9.3,5.8,8.8,5.5,8.4,5c-2.2,0.7-3.8,2.7-3.8,5.1c0,3,2.4,5.4,5.4,5.4c3,0,5.4-2.4,5.4-5.4
		c0-2.4-1.6-4.5-3.8-5.1C11.2,5.5,10.7,5.8,10,5.8"/>
	<path class="st0" d="M13.7,6.3H6.3v5.4c0,2.1,1.7,3.7,3.7,3.7c2.1,0,3.7-1.7,3.7-3.7L13.7,6.3L13.7,6.3"/>
	<path class="st3" d="M7.5,8.9C7.5,8.9,7.5,8.9,7.5,8.9c-0.2,0-0.8,0-1.1,0c0,0.3,0,0.7,0,1c0.3,0,0.8,0,1.1,0
		C7.2,9.5,7.4,9.1,7.5,8.9"/>
	<path class="st3" d="M7.6,7.8C7.7,7.8,7.7,7.8,7.6,7.8C7.7,7.9,7.8,8,7.9,8.1c0,0,0,0,0,0c0-0.3,0-0.5,0-0.5c0,0,0,0,0,0
		c0,0,0,0,0,0c0,0,0,0,0.1,0c0,0,0.2,0.2,0.2,0.5c0-0.1,0.1-0.2,0.1-0.3c0,0,0,0,0-0.1c0,0,0,0,0.1,0c0,0,0.1,0.2,0.1,0.4
		c0,0,0-0.1,0.1-0.1c0-0.5,0-1.2,0-1.6c-0.4,0-0.7,0-1,0C7.6,6.8,7.6,7.3,7.6,7.8C7.6,7.8,7.6,7.8,7.6,7.8"/>
	<path class="st3" d="M7.6,8c0,0,0,0.1,0,0.1c0,0,0,0,0,0C7.6,8.1,7.6,8.1,7.6,8"/>
	<path class="st3" d="M8.3,10.6C8.2,10.6,8.2,10.6,8.3,10.6c-0.1,0-0.3-0.1-0.6-0.5c0,0.7,0,2.9,0,4.3c0.3,0.3,0.6,0.5,1,0.6
		c0-1.2,0-3.7,0-4.7C8.4,10.5,8.3,10.6,8.3,10.6"/>
	<path class="st3" d="M8.9,9.9c0.4,0,1,0,1.1,0c0-0.1,0-0.9,0-1c-0.1,0-0.8,0-1.2,0C8.9,9.1,9.1,9.5,8.9,9.9"/>
	<path class="st4" d="M10,6.4c0,0-0.6,0-1.3,0c0,0.5,0,1.1,0,1.6c0,0,0,0,0,0c0,0,0.1,0.3,0,0.4c0,0,0,0,0,0.1c0,0.1,0,0.1,0,0.2
		c0,0,0,0,0,0.1c0.2,0,0.9,0,1.3,0V6.4"/>
	<path class="st4" d="M7.4,8.1C7.4,8.1,7.4,8.1,7.4,8.1C7.4,8,7.4,8,7.4,8.1c0.1,0,0.1,0,0.1,0c0-0.5,0-1.2,0-1.7
		c-0.6,0-1.1,0-1.1,0c0,0,0,1.2,0,2.4c0.4,0,1.1,0,1.1,0c0,0,0-0.1,0-0.2c0,0,0,0,0,0C7.4,8.4,7.4,8.1,7.4,8.1"/>
	<path class="st4" d="M8.7,15.1c0.4,0.2,0.9,0.2,1.3,0.2V10c-0.3,0-0.9,0-1.1,0c-0.1,0.1-0.1,0.2-0.2,0.2C8.7,11,8.7,13.7,8.7,15.1"
		/>
	<path class="st4" d="M6.4,10c0,1,0,1.7,0,1.7c0,1,0.4,2,1.1,2.6c0-1.6,0-4.1,0-4.4c0,0,0,0,0,0C7.4,10,6.7,10,6.4,10"/>
	<path class="st2" d="M12.7,8.4L12.7,8.4V8.1c0,0,0-0.1-0.1-0.1c-0.1,0-0.4-0.1-0.4-0.1c0,0,0.2-0.1,0.4-0.1h0l0.1-0.2
		c0-0.1,0.1-0.1,0.1-0.1c0,0,0.1,0.1,0.1,0.1l0.1,0.2h0c0.2,0,0.4,0,0.4,0.1c0,0-0.3,0.1-0.4,0.1c-0.1,0-0.1,0.1-0.1,0.1l0,0.3
		c0,0,0,0,0,0c0,0,0,0.2,0,0.2c0,0-0.2,0-0.3,0C12.7,8.5,12.7,8.4,12.7,8.4C12.7,8.4,12.7,8.4,12.7,8.4"/>
	<path class="st2" d="M10.8,8.4L10.8,8.4V8.1c0,0,0-0.1-0.1-0.1c-0.1,0-0.4-0.1-0.4-0.1c0,0,0.2-0.1,0.4-0.1h0l0.1-0.2
		c0-0.1,0.1-0.1,0.1-0.1c0,0,0.1,0.1,0.1,0.1L11,7.8h0c0.2,0,0.4,0,0.4,0.1c0,0-0.3,0.1-0.4,0.1c-0.1,0-0.1,0.1-0.1,0.1l0,0.3
		c0,0,0,0,0,0c0,0,0,0.2,0,0.2c-0.1,0-0.2,0-0.3,0C10.7,8.5,10.8,8.4,10.8,8.4C10.8,8.4,10.8,8.4,10.8,8.4"/>
	<path class="st2" d="M12.7,10.9L12.7,10.9v-0.3c0,0,0-0.1-0.1-0.1c-0.1,0-0.4-0.1-0.4-0.1c0,0,0.2-0.1,0.4-0.1h0l0.1-0.2
		c0-0.1,0.1-0.1,0.1-0.1c0,0,0.1,0.1,0.1,0.1l0.1,0.2h0c0.2,0,0.4,0,0.4,0.1c0,0-0.3,0.1-0.4,0.1c-0.1,0-0.1,0.1-0.1,0.1l0,0.3
		c0,0,0,0,0,0c0,0,0,0.2,0,0.2c0,0-0.2,0-0.3,0C12.7,11,12.7,10.9,12.7,10.9C12.7,10.9,12.7,10.9,12.7,10.9"/>
	<path class="st2" d="M10.8,10.9L10.8,10.9v-0.3c0,0,0-0.1-0.1-0.1c-0.1,0-0.4-0.1-0.4-0.1c0,0,0.2-0.1,0.4-0.1h0l0.1-0.2
		c0-0.1,0.1-0.1,0.1-0.1c0,0,0.1,0.1,0.1,0.1l0.1,0.2h0c0.2,0,0.4,0,0.4,0.1c0,0-0.3,0.1-0.4,0.1c-0.1,0-0.1,0.1-0.1,0.1l0,0.3
		c0,0,0,0,0,0c0,0,0,0.2,0,0.2c-0.1,0-0.2,0-0.3,0C10.7,11,10.8,10.9,10.8,10.9C10.8,10.9,10.8,10.9,10.8,10.9"/>
	<path class="st2" d="M12.7,13.4L12.7,13.4v-0.3c0,0,0-0.1-0.1-0.1c-0.1,0-0.4-0.1-0.4-0.1c0,0,0.2-0.1,0.4-0.1h0l0.1-0.2
		c0-0.1,0.1-0.1,0.1-0.1c0,0,0.1,0.1,0.1,0.1l0.1,0.2h0c0.2,0,0.4,0,0.4,0.1c0,0-0.3,0.1-0.4,0.1c-0.1,0-0.1,0.1-0.1,0.1l0,0.3
		c0,0,0,0,0,0c0,0,0,0.2,0,0.2c0,0-0.2,0-0.3,0C12.7,13.5,12.7,13.4,12.7,13.4C12.7,13.4,12.7,13.4,12.7,13.4"/>
	<path class="st2" d="M10.8,13.4L10.8,13.4v-0.3c0,0,0-0.1-0.1-0.1c-0.1,0-0.4-0.1-0.4-0.1c0,0,0.2-0.1,0.4-0.1h0l0.1-0.2
		c0-0.1,0.1-0.1,0.1-0.1c0,0,0.1,0.1,0.1,0.1l0.1,0.2h0c0.2,0,0.4,0,0.4,0.1c0,0-0.3,0.1-0.4,0.1c-0.1,0-0.1,0.1-0.1,0.1l0,0.3
		c0,0,0,0,0,0c0,0,0,0.2,0,0.2c-0.1,0-0.2,0-0.3,0C10.7,13.5,10.8,13.4,10.8,13.4C10.8,13.4,10.8,13.4,10.8,13.4"/>
	<path class="st2" d="M11.7,9.5L11.7,9.5V9.3c0,0,0-0.1-0.1-0.1c-0.1,0-0.4-0.1-0.4-0.1c0,0,0.2-0.1,0.4-0.1h0l0.1-0.2
		c0-0.1,0.1-0.1,0.1-0.1c0,0,0.1,0.1,0.1,0.1L12,8.9h0c0.2,0,0.4,0,0.4,0.1c0,0-0.3,0.1-0.4,0.1c-0.1,0-0.1,0.1-0.1,0.1l0,0.3
		c0,0,0,0,0,0c0,0,0,0.2,0,0.2c0,0-0.2,0-0.3,0C11.7,9.7,11.7,9.6,11.7,9.5C11.7,9.5,11.7,9.5,11.7,9.5"/>
	<path class="st2" d="M11.7,12.1L11.7,12.1v-0.3c0,0,0-0.1-0.1-0.1c-0.1,0-0.4-0.1-0.4-0.1c0,0,0.2-0.1,0.4-0.1h0l0.1-0.2
		c0-0.1,0.1-0.1,0.1-0.1c0,0,0.1,0.1,0.1,0.1l0.1,0.2h0c0.2,0,0.4,0,0.4,0.1c0,0-0.3,0.1-0.4,0.1c-0.1,0-0.1,0.1-0.1,0.1l0,0.3
		c0,0,0,0,0,0c0,0,0,0.2,0,0.2c0,0-0.2,0-0.3,0C11.7,12.3,11.7,12.2,11.7,12.1C11.7,12.1,11.7,12.1,11.7,12.1"/>
	<path class="st4" d="M7.5,9.6C7.5,9.6,7.5,9.7,7.5,9.6l1.4,0c0-0.1,0-0.1,0-0.2c0,0,0,0,0,0c-0.2,0-0.5,0-0.6,0
		C8.2,9.5,7.9,9.6,7.5,9.6"/>
	<path class="st4" d="M8.7,8.9C8.6,8.8,8.6,8.7,8.6,8.6c0-0.1,0-0.1,0-0.2c0,0,0-0.1,0-0.1c0,0,0-0.1,0-0.1C8.5,8.3,8.5,8.4,8.5,8.4
		c0,0,0,0-0.1,0c0,0,0,0,0,0c0,0,0,0,0,0c0-0.1,0-0.1,0-0.2c0-0.1,0-0.1,0-0.2c0,0.1-0.1,0.3-0.1,0.3c0,0,0,0-0.1,0c0,0,0,0,0,0
		C8.1,8.1,8.1,8,8,7.9C8,7.9,8,8,8,8.1c0,0,0,0.1,0,0.1c0,0,0,0,0,0c0,0,0,0-0.1,0c0,0-0.1-0.1-0.2-0.3c0,0.1,0,0.2,0.1,0.4
		c0,0,0,0,0,0c0,0,0,0,0,0c0,0-0.1,0-0.1,0c0,0-0.1-0.2-0.2-0.2c0,0.1,0,0.2,0.1,0.3c0,0.1,0.1,0.2,0.1,0.2c0,0.1,0,0.2-0.1,0.2
		c0,0,0,0,0,0L8.7,8.9C8.7,9,8.7,8.9,8.7,8.9"/>
	<path class="st4" d="M7.6,10c0.3,0.4,0.5,0.5,0.6,0.5c0,0,0.3-0.2,0.5-0.6c0,0,0-0.1,0.1-0.1H7.5C7.5,9.8,7.6,9.9,7.6,10"/>
	<path class="st4" d="M7.4,9.4C7.4,9.4,7.4,9.4,7.4,9.4c0,0.1,0,0.1,0,0.1c0.4,0,0.7-0.1,0.8-0.1c0.1,0,0.5,0,0.7,0c0,0,0-0.1,0-0.1
		c-0.2,0-0.5,0-0.6,0C8.2,9.3,7.9,9.4,7.4,9.4"/>
	<path class="st4" d="M7.5,9.1c0,0.1,0,0.1-0.1,0.2c0.4,0,0.7-0.1,0.8-0.1c0.1,0,0.4,0,0.6,0c0,0,0,0,0,0H7.5"/>
	<path class="st0" d="M5,13.1c-0.1-0.2-0.4-0.3-0.7-0.2c-0.3,0.1-0.3,0.4-0.2,0.6c0,0,0.1,0.1,0.1,0.1c0.1,0.1,0.1,0.1,0.2,0.1
		l-0.1,0.1L4.3,14l0.5-0.3l-0.2-0.3l-0.2,0.1l0.1,0.1c-0.1,0-0.1,0-0.2-0.1c-0.1-0.1,0-0.2,0.1-0.3c0.1-0.1,0.3-0.1,0.3,0
		c0,0.1,0,0.1,0,0.2l0.1,0.2C5,13.5,5.1,13.3,5,13.1"/>
	<polyline class="st0" points="5.6,14.5 5.8,14.3 5.3,13.7 4.6,14.3 5.1,14.9 5.3,14.8 5,14.4 5.1,14.3 5.3,14.6 5.5,14.5 5.2,14.1 
		5.3,14.1 5.6,14.5 	"/>
	<polyline class="st0" points="5.9,14.4 5.8,14.6 6,14.7 5.5,15.3 5.7,15.5 6.2,14.9 6.4,15.1 6.5,14.9 5.9,14.4 	"/>
	<path class="st0" d="M6.6,15.7l-0.2-0.1l0.2-0.2L6.6,15.7 M6.8,15.1L6,15.7l0.2,0.2l0.1-0.1l0.3,0.2l0,0.1l0.2,0.2l0.2-1L6.8,15.1z
		"/>
	<polyline class="st0" points="8.1,16 8.2,15.7 7.4,15.5 7.1,16.3 7.4,16.4 7.5,16.1 7.8,16.3 7.9,16.1 7.6,15.9 7.6,15.8 8.1,16 	
		"/>
	<polyline class="st0" points="9,16.2 9.1,16 8.3,15.8 8.1,16.7 8.9,16.9 8.9,16.7 8.4,16.5 8.5,16.4 8.9,16.5 8.9,16.3 8.5,16.2 
		8.5,16.1 9,16.2 	"/>
	<path class="st0" d="M10.6,16.6l-0.3,0c0,0.1-0.1,0.2-0.1,0.2c-0.1,0-0.2-0.1-0.2-0.2c0-0.2,0.1-0.3,0.2-0.3c0.1,0,0.2,0,0.2,0.1
		l0.3,0c0-0.2-0.2-0.4-0.5-0.4c-0.3,0-0.5,0.2-0.4,0.5c0,0.3,0.2,0.5,0.5,0.5C10.4,17,10.6,16.8,10.6,16.6"/>
	<polyline class="st0" points="11.1,16.6 10.8,16.7 10.8,16.9 11.1,16.9 11.1,16.6 	"/>
	<polyline class="st0" points="12,16.3 11.9,16.1 11.5,16.2 11.5,16.1 12,16 11.9,15.7 11.2,15.9 11.4,16.8 11.7,16.8 11.6,16.4 
		12,16.3 	"/>
	<polyline class="st0" points="12.4,16.2 12.2,16.3 12.3,16.6 12.5,16.5 12.4,16.2 	"/>
	<path class="st0" d="M13.3,15.8c-0.1-0.1-0.2-0.2-0.4-0.1l-0.1,0c-0.1,0-0.2,0-0.2,0c0,0,0-0.1,0.1-0.1c0.1,0,0.1,0,0.1,0l0.3-0.1
		c-0.1-0.2-0.3-0.2-0.5-0.1c-0.2,0.1-0.3,0.3-0.2,0.4c0,0.1,0.1,0.1,0.1,0.1c0.1,0,0.1,0,0.3,0l0.1,0c0.1,0,0.1,0,0.1,0
		c0,0,0,0.1-0.1,0.1c-0.1,0-0.1,0-0.2,0l-0.3,0.1l0,0c0.1,0.2,0.3,0.2,0.5,0.1C13.3,16.1,13.4,15.9,13.3,15.8"/>
	<polyline class="st0" points="13.8,15.5 13.6,15.7 13.7,15.9 13.9,15.7 13.8,15.5 	"/>
	<path class="st0" d="M14.2,15.1l-0.1-0.3l0.3,0.2L14.2,15.1 M14,14.5l-0.2,0.2l0.4,0.9l0.2-0.2l-0.1-0.1l0.2-0.2l0.1,0.1l0.2-0.2
		L14,14.5z"/>
	<polyline class="st0" points="15,14.4 14.8,14.6 15,14.8 15.2,14.6 15,14.4 	"/>
	<path class="st0" d="M15.4,14L15.4,14l-0.4-0.2l0.1-0.1c0.1-0.1,0.2-0.1,0.3,0C15.4,13.7,15.5,13.9,15.4,14 M15.5,13.4
		c-0.2-0.2-0.5-0.2-0.7,0.1l-0.3,0.4l0.8,0.6l0.3-0.4C15.8,13.8,15.7,13.6,15.5,13.4z"/>
	<polyline class="st0" points="15.9,13 15.8,13.3 16,13.4 16.1,13.1 15.9,13 	"/>
	<path class="st2" d="M10.2,2L10.2,2c0-0.1-0.1-0.1-0.2-0.1C9.7,1.9,9.4,2,9.1,2.1l0.1,0.1L10.2,2"/>
	<polyline class="st2" points="10.5,2.6 10.3,3.3 10.6,3.8 11.2,4 11.7,3.6 11.1,2.6 10.5,2.6 	"/>
	<path class="st2" d="M8.4,3L8.4,2.9c-0.2,0.3-0.3,0.6-0.3,1c0,0.2,0,0.3,0.1,0.5l0.1-0.1L8.4,3"/>
	<path class="st2" d="M11.8,3.5l0.1,0.1c-0.1-0.5-0.3-0.9-0.7-1.2l0,0.1L11.8,3.5"/>
	<polyline class="st2" points="9.5,4.1 9.5,3.5 9.1,3 8.5,3 8.4,4.2 8.9,4.4 9.5,4.1 	"/>
	<path class="st2" d="M10.9,5.5L10.9,5.5c0.4-0.1,0.7-0.5,0.9-0.8l-0.1,0L10.9,5.5"/>
	<polyline class="st2" points="9.6,3.4 10.2,3.2 10.5,2.6 10.2,2.1 9.3,2.3 9.2,2.9 9.6,3.4 	"/>
	<polyline class="st2" points="9.5,4.2 9,4.5 8.9,5.1 9.8,5.5 10.2,5.1 10.1,4.4 9.5,4.2 	"/>
	<polyline class="st2" points="10.6,3.9 10.2,4.4 10.3,5.1 10.8,5.3 11.5,4.6 11.2,4.1 10.6,3.9 	"/>
	<path class="st2" d="M8.8,5.2L8.8,5.2c0.2,0.3,0.6,0.5,1,0.5l0-0.1L8.8,5.2"/>
	<path class="st5" d="M13.4,10.4c0,0.1-0.4,0.2-0.5,0.2c0,0,0,0,0,0c0,0,0,0.2,0,0.2c0,0,0,0,0,0l0.1,0.3h-0.4l0.1-0.3c0,0,0,0,0,0
		c0,0,0-0.2,0-0.2c0,0,0-0.1,0-0.1c-0.1,0-0.5-0.1-0.5-0.2c0-0.1,0.3-0.1,0.5-0.1c0,0,0.1-0.1,0.1-0.1c0,0,0.1-0.2,0.1-0.2
		c0.1,0,0.1,0.1,0.1,0.2c0,0,0,0.1,0.1,0.1C13.1,10.2,13.4,10.2,13.4,10.4 M13,12.7c0.1,0,0.5,0,0.5,0.1c0,0.1-0.4,0.2-0.5,0.2
		c0,0,0,0,0,0c0,0,0,0.2,0,0.2c0,0,0,0,0,0l0.1,0.3h-0.4l0.1-0.3c0,0,0,0,0,0c0,0,0-0.2,0-0.2c0,0,0-0.1,0-0.1
		c-0.1,0-0.5-0.1-0.5-0.2c0-0.1,0.3-0.1,0.5-0.1c0,0,0.1-0.1,0.1-0.1c0,0,0.1-0.2,0.1-0.2c0.1,0,0.1,0.1,0.1,0.2
		C12.9,12.6,13,12.7,13,12.7z M11.6,12.4l0.1-0.3c0,0,0,0,0,0c0,0,0-0.2,0-0.2c0,0,0-0.1,0-0.1c-0.1,0-0.5-0.1-0.5-0.2
		c0-0.1,0.3-0.1,0.5-0.1c0,0,0.1-0.1,0.1-0.1c0,0,0.1-0.2,0.1-0.2c0.1,0,0.1,0.1,0.1,0.2c0,0,0,0.1,0.1,0.1c0.1,0,0.5,0,0.5,0.1
		c0,0.1-0.4,0.2-0.5,0.2c0,0,0,0,0,0c0,0,0,0.2,0,0.2c0,0,0,0,0,0l0.1,0.3H11.6z M11,13.1C11,13.1,11,13.1,11,13.1
		c0,0-0.1,0.2-0.1,0.3c0,0,0,0,0,0l0.1,0.3h-0.4l0.1-0.3c0,0,0,0,0,0c0,0,0-0.2,0-0.2c0,0,0-0.1,0-0.1c-0.1,0-0.5-0.1-0.5-0.2
		c0-0.1,0.3-0.1,0.5-0.1c0,0,0.1-0.1,0.1-0.1c0,0,0.1-0.2,0.1-0.2c0.1,0,0.1,0.1,0.1,0.2c0,0,0,0.1,0.1,0.1c0.1,0,0.5,0,0.5,0.1
		C11.5,13,11.1,13.1,11,13.1z M10.7,11.1l0.1-0.3c0,0,0,0,0,0c0,0,0-0.2,0-0.2c0,0,0-0.1,0-0.1c-0.1,0-0.5-0.1-0.5-0.2
		c0-0.1,0.3-0.1,0.5-0.1c0,0,0.1-0.1,0.1-0.1c0,0,0.1-0.2,0.1-0.2c0.1,0,0.1,0.1,0.1,0.2c0,0,0,0.1,0.1,0.1c0.1,0,0.5,0,0.5,0.1
		c0,0.1-0.4,0.2-0.5,0.2c0,0,0,0,0,0c0,0,0,0.2,0,0.2c0,0,0,0,0,0l0.1,0.3H10.7z M10.7,8.7l0.1-0.3c0,0,0,0,0,0c0,0,0-0.2,0-0.2
		c0,0,0-0.1,0-0.1c-0.1,0-0.5-0.1-0.5-0.2c0-0.1,0.3-0.1,0.5-0.1c0,0,0.1-0.1,0.1-0.1c0,0,0.1-0.2,0.1-0.2c0.1,0,0.1,0.1,0.1,0.2
		c0,0,0,0.1,0.1,0.1c0.1,0,0.5,0,0.5,0.1c0,0.1-0.4,0.2-0.5,0.2c0,0,0,0,0,0c0,0,0,0.2,0,0.2c0,0,0,0,0,0l0.1,0.3H10.7z M11.6,8.9
		c0,0,0.1-0.1,0.1-0.1c0,0,0.1-0.2,0.1-0.2c0.1,0,0.1,0.1,0.1,0.2c0,0,0,0.1,0.1,0.1c0.1,0,0.5,0,0.5,0.1c0,0.1-0.4,0.2-0.5,0.2
		c0,0,0,0,0,0c0,0,0,0.2,0,0.2c0,0,0,0,0,0L12,9.8h-0.4l0.1-0.3c0,0,0,0,0,0c0,0,0-0.2,0-0.2c0,0,0-0.1,0-0.1
		c-0.1,0-0.5-0.1-0.5-0.2C11.2,8.9,11.5,8.9,11.6,8.9z M12.6,7.7c0,0,0.1-0.1,0.1-0.1c0,0,0.1-0.2,0.1-0.2c0.1,0,0.1,0.1,0.1,0.2
		c0,0,0,0.1,0.1,0.1c0.1,0,0.5,0,0.5,0.1C13.4,8,13,8.1,13,8.1c0,0,0,0,0,0c0,0,0,0.2,0,0.2c0,0,0,0,0,0L13,8.7h-0.4l0.1-0.3
		c0,0,0,0,0,0c0,0,0-0.2,0-0.2c0,0,0-0.1,0-0.1c-0.1,0-0.5-0.1-0.5-0.2C12.1,7.8,12.5,7.7,12.6,7.7z M13.4,9.5
		C13.4,9.5,13.5,9.5,13.4,9.5c0,0,0-0.2,0-0.2c0,0,0-0.1,0-0.1C13.4,9.2,13,9.1,13,9c0-0.1,0.3-0.1,0.5-0.1c0,0,0.1-0.1,0.1-0.1
		c0,0,0.1-0.2,0.1-0.2c0,0,0,0,0,0c0-0.5,0-1,0-1.4h-0.3l0.1-0.3c0,0,0,0,0,0c0,0,0-0.2,0-0.2c0,0,0-0.1,0-0.1
		c-0.1,0-0.5-0.1-0.5-0.2c0,0,0,0,0,0c-0.1,0-0.3,0-0.5,0c0,0,0,0,0,0c0,0.1-0.4,0.2-0.5,0.2c0,0,0,0,0,0c0,0,0,0.2,0,0.2
		c0,0,0,0,0,0L12,7.2h-0.4l0.1-0.3c0,0,0,0,0,0c0,0,0-0.2,0-0.2c0,0,0-0.1,0-0.1c-0.1,0-0.5-0.1-0.5-0.2c0,0,0,0,0,0
		c-0.2,0-0.3,0-0.5,0c0,0,0,0,0,0c0,0.1-0.4,0.2-0.5,0.2c0,0,0,0,0,0c0,0,0,0.2,0,0.2c0,0,0,0,0,0l0.1,0.3H10v1.4c0,0,0,0,0,0
		c0.1,0,0.1,0.1,0.1,0.2c0,0,0,0.1,0.1,0.1c0.1,0,0.5,0,0.5,0.1c0,0.1-0.4,0.2-0.5,0.2c0,0,0,0,0,0c0,0,0,0.2,0,0.2c0,0,0,0,0,0
		l0.1,0.3H10v1.4c0,0,0,0,0,0c0.1,0,0.1,0.1,0.1,0.2c0,0,0,0.1,0.1,0.1c0.1,0,0.5,0,0.5,0.1c0,0.1-0.4,0.2-0.5,0.2c0,0,0,0,0,0
		c0,0,0,0.2,0,0.2c0,0,0,0,0,0l0.1,0.3H10v1.4c0,0,0,0,0,0c0.1,0,0.1,0.1,0.1,0.2c0,0,0,0.1,0.1,0.1c0.1,0,0.5,0,0.5,0.1
		c0,0.1-0.4,0.2-0.5,0.2c0,0,0,0,0,0c0,0,0,0.2,0,0.2c0,0,0,0,0,0l0.1,0.3H10v0.3c0.6,0,1.1-0.1,1.6-0.4l0-0.2c0,0,0,0,0,0
		c0,0,0-0.2,0-0.2c0,0,0-0.1,0-0.1c-0.1,0-0.5-0.1-0.5-0.2c0-0.1,0.3-0.1,0.5-0.1c0,0,0.1-0.1,0.1-0.1c0,0,0.1-0.2,0.1-0.2
		c0.1,0,0.1,0.1,0.1,0.2c0,0,0,0.1,0.1,0.1c0.1,0,0.5,0,0.5,0.1c0,0.1-0.4,0.2-0.5,0.2c0,0,0,0,0,0c0,0,0,0.2,0,0.2c0,0,0,0,0,0l0,0
		c0.8-0.5,1.4-1.4,1.6-2.3h-0.2l0.1-0.3c0,0,0,0,0,0c0,0,0-0.2,0-0.2c0,0,0-0.1,0-0.1c-0.1,0-0.5-0.1-0.5-0.2c0-0.1,0.3-0.1,0.5-0.1
		c0,0,0.1-0.1,0.1-0.1c0,0,0.1-0.2,0.1-0.2c0,0,0,0,0,0c0-0.4,0-0.9,0-1.4h-0.3L13.4,9.5z"/>
	<path class="st2" d="M11.7,6.6l0,0.3l0,0c0,0,0,0,0,0c0,0,0,0.2,0,0.2c0,0,0.2,0,0.3,0c0,0,0-0.2,0-0.2c0,0,0,0,0,0l0-0.3
		c0,0,0-0.1,0.1-0.1c0.1,0,0.4-0.1,0.4-0.1c0,0,0,0,0,0c-0.4,0-0.8,0-1.2,0C11.3,6.5,11.6,6.5,11.7,6.6C11.7,6.5,11.7,6.6,11.7,6.6"
		/>
	<path class="st2" d="M10.1,6.9C10.1,6.9,10.1,6.9,10.1,6.9l0-0.3c0,0,0-0.1,0.1-0.1c0.1,0,0.4-0.1,0.4-0.1c0,0,0,0,0,0
		c-0.4,0-0.6,0-0.6,0v0.7c0.1,0,0.2,0,0.2,0C10.2,7.1,10.1,6.9,10.1,6.9"/>
	<path class="st2" d="M10.1,9.5C10.1,9.5,10.1,9.5,10.1,9.5l0-0.3c0,0,0-0.1,0.1-0.1c0.1,0,0.4-0.1,0.4-0.1c0,0-0.2-0.1-0.4-0.1h0
		l-0.1-0.2c0-0.1,0-0.1-0.1-0.1c0,0,0,0,0,0v1.1c0.1,0,0.2,0,0.2,0C10.2,9.7,10.1,9.6,10.1,9.5"/>
	<path class="st2" d="M10.1,12.1C10.1,12.1,10.1,12.1,10.1,12.1l0-0.3c0,0,0-0.1,0.1-0.1c0.1,0,0.4-0.1,0.4-0.1c0,0-0.2-0.1-0.4-0.1
		h0l-0.1-0.2c0-0.1,0-0.1-0.1-0.1c0,0,0,0,0,0v1c0.1,0,0.2,0,0.2,0C10.2,12.3,10.1,12.2,10.1,12.1"/>
	<path class="st2" d="M11.9,14.7l0-0.3c0,0,0-0.1,0.1-0.1c0.1,0,0.4-0.1,0.4-0.1c0,0-0.2-0.1-0.4-0.1h0L11.9,14c0-0.1,0-0.1-0.1-0.1
		c0,0-0.1,0.1-0.1,0.1l-0.1,0.2h0c-0.2,0-0.4,0-0.4,0.1c0,0,0.3,0.1,0.4,0.1c0.1,0,0.1,0.1,0.1,0.1l0,0.3l0,0c0,0,0,0,0,0
		c0,0,0,0.1,0,0.2C11.8,14.9,11.8,14.8,11.9,14.7C11.9,14.8,11.9,14.8,11.9,14.7C11.9,14.8,11.9,14.7,11.9,14.7"/>
	<path class="st2" d="M10.1,14.8C10.1,14.8,10.1,14.7,10.1,14.8l0-0.3c0,0,0-0.1,0.1-0.1c0.1,0,0.4-0.1,0.4-0.1c0,0-0.2-0.1-0.4-0.1
		h0L10.1,14c0-0.1,0-0.1-0.1-0.1c0,0,0,0,0,0v1c0.1,0,0.2,0,0.2,0C10.2,14.9,10.1,14.8,10.1,14.8"/>
	<path class="st2" d="M13.5,6.6l0,0.3l0,0c0,0,0,0,0,0c0,0,0,0.2,0,0.2c0,0,0.1,0,0.2,0c0-0.4,0-0.7,0-0.7c0,0-0.3,0-0.6,0
		c0,0,0.3,0.1,0.4,0.1C13.5,6.5,13.5,6.6,13.5,6.6"/>
	<path class="st2" d="M13.6,8.6c0,0-0.1,0.1-0.1,0.1l-0.1,0.2h0C13.2,8.9,13,9,13,9c0,0,0.3,0.1,0.4,0.1c0.1,0,0.1,0.1,0.1,0.1
		l0,0.3l0,0c0,0,0,0,0,0c0,0,0,0.2,0,0.2c0,0,0.1,0,0.2,0C13.6,9.4,13.6,9,13.6,8.6C13.6,8.7,13.6,8.6,13.6,8.6"/>
	<path class="st2" d="M13.6,11.3c0,0-0.1,0.1-0.1,0.1l-0.1,0.2h0c-0.2,0-0.4,0-0.4,0.1c0,0,0.3,0.1,0.4,0.1c0.1,0,0.1,0.1,0.1,0.1
		l0,0.3l0,0c0,0,0,0,0,0c0,0,0,0.2,0,0.2c0,0,0.1,0,0.1,0c0-0.2,0.1-0.4,0.1-0.6C13.6,11.7,13.6,11.6,13.6,11.3
		C13.6,11.3,13.6,11.3,13.6,11.3"/>
</g>
</svg>
