<?xml version="1.0" encoding="utf-8"?>
<!-- Generator: Adobe Illustrator 19.1.0, SVG Export Plug-In . SVG Version: 6.00 Build 0)  -->
<svg version="1.1" id="Layer_1" xmlns="http://www.w3.org/2000/svg" xmlns:xlink="http://www.w3.org/1999/xlink" x="0px" y="0px"
	 viewBox="0 0 400 400" enable-background="new 0 0 400 400" xml:space="preserve">
<g>
	<path d="M199.772,29.744c-100.144,0-181.324,81.19-181.324,181.343c0,100.154,81.18,181.344,181.324,181.344
		c100.139,0,181.32-81.19,181.32-181.344C381.092,110.934,299.911,29.744,199.772,29.744z M199.772,328.742
		c-64.645,0-117.236-52.78-117.236-117.655c0-31.503,12.247-61.101,34.481-83.338c22.128-22.13,51.514-34.318,82.755-34.318
		c31.236,0,60.622,12.188,82.751,34.318c22.236,22.237,34.478,51.835,34.478,83.338
		C317.001,275.962,264.412,328.742,199.772,328.742z"/>
	<path fill="#243F88" d="M326.174,84.644c-33.763-33.769-78.658-52.367-126.402-52.367c-98.578,0-178.775,80.215-178.775,178.81
		c0,98.597,80.197,178.809,178.775,178.809c98.573,0,178.771-80.212,178.771-178.809
		C378.543,163.323,359.947,118.417,326.174,84.644z M199.772,331.277c-66.05,0-119.785-53.917-119.785-120.19
		c0-32.178,12.508-62.409,35.222-85.126c22.608-22.611,52.638-35.064,84.562-35.064c31.918,0,61.949,12.453,84.56,35.064
		c22.713,22.717,35.222,52.948,35.222,85.126C319.555,277.36,265.817,331.277,199.772,331.277z"/>
	<g>
		<path fill="#FFFFFF" d="M67.875,218.303c0.118,4.196-0.509,8.142-1.885,11.843l-8.437,0.235c0.875-1.522,1.535-3.173,1.981-4.959
			c0.443-1.782,0.642-3.563,0.592-5.335c-0.055-1.895-0.507-3.593-1.357-5.091c-0.853-1.502-2.018-2.665-3.498-3.493
			c-1.479-0.825-3.153-1.214-5.019-1.162c-2.928,0.08-5.1,1.035-6.518,2.867c-1.417,1.828-2.087,4.157-2.007,6.984
			c0.029,1.013,0.086,1.766,0.172,2.259l3.946-0.109l-0.117-4.172l7.166-0.198l0.369,13.116l-18.037,0.5
			c-0.124-0.428-0.318-1.212-0.58-2.352c-0.261-1.14-0.531-2.627-0.807-4.46c-0.278-1.832-0.444-3.749-0.501-5.754
			c-0.053-1.932,0.016-3.665,0.211-5.194c0.195-1.528,0.557-2.994,1.089-4.396c0.532-1.402,1.257-2.777,2.177-4.121
			c0.757-1.117,1.746-2.17,2.966-3.16c1.218-0.99,2.653-1.812,4.3-2.464c1.647-0.652,3.411-1.006,5.294-1.059
			c2.806-0.079,5.348,0.375,7.629,1.359c2.281,0.984,4.215,2.387,5.805,4.212c1.586,1.823,2.809,3.942,3.666,6.362
			C67.331,212.983,67.796,215.562,67.875,218.303z"/>
		<path fill="#FFFFFF" d="M68.671,233.576l6.454,24.29l-6.877,1.806L64.77,246.58l-5.815,1.526l3.176,11.957l-6.781,1.778
			l-3.176-11.959l-6.081,1.597l3.515,13.232l-7.022,1.842l-6.489-24.431L68.671,233.576z"/>
		<path fill="#FFFFFF" d="M74.813,258.041l15.15,28.953l-7.503,3.88l-4.879-9.326L55.19,293.121l-5.446-10.406l22.393-11.57
			l-4.828-9.229L74.813,258.041z"/>
		<path fill="#FFFFFF" d="M94.972,292.421l7.985,9.362L87.32,335.224l-7.572-8.879l2.739-5.197l-9.935-11.65l-5.609,1.835
			l-7.479-8.769L94.972,292.421z M92.233,302.712l-13.551,4.638l6.839,8.02L92.233,302.712z"/>
		<path fill="#FFFFFF" d="M113.876,312.663l19.984,14.287l-4.149,5.733l-10.524-7.523l-3.595,4.962l9.879,7.063l-4.149,5.731
			l-9.876-7.063l-7.796,10.765l-9.459-6.763L113.876,312.663z"/>
		<path fill="#FFFFFF" d="M135.298,327.672l23.13,10.255l-2.908,6.474l-12.465-5.526l-2.443,5.444l11.384,5.046l-2.866,6.38
			l-11.382-5.049l-2.552,5.683l12.596,5.585l-2.961,6.594l-23.262-10.314L135.298,327.672z"/>
		<path fill="#FFFFFF" d="M192.837,343.308c2.493,0.184,4.591,0.509,6.296,0.972c1.703,0.464,3.508,1.167,5.414,2.108l-0.735,9.736
			c-1.65-1.149-3.177-2.036-4.591-2.662c-1.414-0.625-3.041-1.007-4.888-1.145c-1.845-0.135-3.515,0.049-5.01,0.561
			c-1.495,0.51-2.703,1.343-3.626,2.5c-0.922,1.154-1.449,2.594-1.578,4.317c-0.136,1.812,0.161,3.377,0.892,4.697
			c0.732,1.319,1.815,2.346,3.247,3.088c1.433,0.74,3.111,1.184,5.038,1.327c3.306,0.246,6.648-0.471,10.024-2.151l-0.669,8.89
			c-1.406,0.567-2.784,1.014-4.131,1.342c-1.349,0.329-2.747,0.539-4.198,0.635c-1.452,0.095-3.035,0.079-4.753-0.049
			c-2.791-0.208-5.304-0.814-7.539-1.818c-2.236-1.002-4.106-2.326-5.612-3.968c-1.505-1.645-2.611-3.527-3.32-5.656
			c-0.705-2.127-0.968-4.384-0.788-6.776c0.27-3.578,1.342-6.619,3.216-9.124c1.876-2.505,4.323-4.335,7.342-5.493
			C185.888,343.48,189.21,343.036,192.837,343.308z"/>
		<path fill="#FFFFFF" d="M216.616,364.815c1.055-0.115,2.086,0.033,3.086,0.445c0.999,0.413,1.833,1.045,2.494,1.898
			c0.664,0.853,1.057,1.833,1.179,2.945c0.119,1.067-0.036,2.086-0.456,3.063c-0.423,0.973-1.066,1.788-1.928,2.441
			c-0.863,0.654-1.863,1.042-3,1.169c-1.089,0.118-2.116-0.044-3.084-0.484c-0.969-0.44-1.776-1.092-2.422-1.953
			c-0.645-0.862-1.027-1.817-1.145-2.866c-0.181-1.652,0.244-3.13,1.277-4.435C213.648,365.736,214.984,364.994,216.616,364.815z"/>
		<path fill="#FFFFFF" d="M223.958,342.117l23.718-6.548l1.905,6.809l-12.473,3.445l1.64,5.875l11.709-3.231l1.902,6.809
			l-11.707,3.23l3.572,12.782l-11.244,3.104L223.958,342.117z"/>
		<path fill="#FFFFFF" d="M263.755,351.842c0.964-0.441,1.985-0.624,3.069-0.546c1.081,0.075,2.071,0.415,2.973,1.014
			c0.899,0.602,1.584,1.409,2.055,2.426c0.451,0.972,0.634,1.988,0.544,3.046c-0.093,1.058-0.443,2.035-1.05,2.925
			c-0.613,0.889-1.438,1.573-2.476,2.051c-0.994,0.455-2.021,0.625-3.078,0.511c-1.063-0.111-2.033-0.475-2.923-1.091
			c-0.887-0.615-1.554-1.402-2.001-2.359c-0.699-1.512-0.764-3.048-0.201-4.608C261.233,353.65,262.26,352.527,263.755,351.842z"/>
		<path fill="#FFFFFF" d="M284.173,312.793c1.607-1.337,3.265-2.315,4.97-2.938c1.71-0.624,3.509-0.954,5.415-0.994l5.684,6.761
			c-1.955-0.066-3.705,0.03-5.256,0.286c-1.551,0.259-2.877,0.847-3.984,1.765c-0.655,0.544-1.132,1.184-1.438,1.917
			c-0.306,0.738-0.194,1.418,0.336,2.047c0.313,0.373,0.77,0.604,1.372,0.695c0.604,0.089,1.197,0.069,1.783-0.066l6.152-1.269
			c4.111-0.888,7.393,0.12,9.837,3.021c1.95,2.321,2.607,4.969,1.973,7.944c-0.315,1.501-0.914,2.851-1.795,4.053
			c-0.887,1.203-2.066,2.416-3.533,3.639c-1.652,1.371-3.224,2.442-4.712,3.216c-1.493,0.775-3.285,1.507-5.381,2.201l-5.878-6.984
			c0.701-0.126,1.426-0.253,2.157-0.384c0.735-0.134,1.482-0.303,2.247-0.514c0.762-0.211,1.555-0.511,2.375-0.898
			c0.825-0.389,1.572-0.863,2.247-1.423c1.801-1.493,2.212-2.815,1.25-3.963c-0.586-0.694-1.462-0.925-2.631-0.693l-6.604,1.276
			c-1.667,0.333-3.369,0.19-5.116-0.426c-1.745-0.618-3.159-1.573-4.244-2.862c-1.367-1.626-2.126-3.358-2.284-5.201
			c-0.155-1.843,0.22-3.649,1.128-5.419C281.151,315.81,282.458,314.216,284.173,312.793z"/>
		<path fill="#FFFFFF" d="M315.204,313.732c0.702-0.793,1.562-1.369,2.584-1.732c1.021-0.364,2.062-0.451,3.13-0.263
			c1.065,0.189,2.021,0.654,2.866,1.396c0.81,0.708,1.391,1.564,1.742,2.569c0.345,1.005,0.425,2.035,0.231,3.094
			c-0.194,1.06-0.669,2.017-1.426,2.867c-0.723,0.814-1.589,1.382-2.604,1.703c-1.015,0.321-2.055,0.378-3.116,0.169
			c-1.057-0.204-1.988-0.657-2.786-1.353c-1.253-1.103-1.943-2.48-2.066-4.136C313.639,316.391,314.12,314.952,315.204,313.732z"/>
		<path fill="#FFFFFF" d="M311.549,282.469l6.11-10.666l36.993,3.129l-5.795,10.118l-5.851-0.773l-7.601,13.273l3.654,4.606
			l-5.726,9.992L311.549,282.469z M322.234,281.505l9.03,11.055l5.232-9.138L322.234,281.505z"/>
		<path fill="#FFFFFF" d="M346.724,258.786c0.328-1.007,0.884-1.88,1.676-2.619c0.789-0.739,1.708-1.237,2.761-1.486
			c1.054-0.254,2.113-0.208,3.191,0.135c1.027,0.33,1.898,0.884,2.622,1.665c0.72,0.783,1.206,1.699,1.454,2.751
			c0.248,1.05,0.194,2.116-0.154,3.196c-0.34,1.035-0.905,1.905-1.708,2.602c-0.798,0.698-1.727,1.164-2.786,1.396
			c-1.054,0.235-2.09,0.191-3.099-0.134c-1.592-0.509-2.776-1.498-3.55-2.97S346.221,260.339,346.724,258.786z"/>
		<path fill="#FFFFFF" d="M329.323,243.45l1.98-16.825c0.291-2.477,0.964-4.761,2.015-6.857c1.052-2.095,2.42-3.868,4.102-5.319
			c1.678-1.449,3.643-2.509,5.888-3.178c2.244-0.668,4.67-0.852,7.273-0.549c3.138,0.367,5.873,1.361,8.195,2.981
			c2.321,1.622,4.032,3.722,5.131,6.305c1.098,2.582,1.464,5.415,1.101,8.506l-2.217,18.824L329.323,243.45z M338.658,232.721
			l17.492,2.032l0.265-2.239c0.2-2.055,0.149-3.762-0.16-5.121c-0.31-1.361-1.048-2.479-2.215-3.35
			c-1.167-0.872-2.905-1.442-5.221-1.711c-3.229-0.378-5.601,0.149-7.109,1.569c-1.509,1.423-2.435,3.582-2.778,6.472
			L338.658,232.721z"/>
		<path fill="#FFFFFF" d="M353.772,199.254c-0.081-1.05,0.106-2.065,0.557-3.045c0.453-0.979,1.115-1.783,1.997-2.41
			c0.88-0.627,1.883-0.981,3.006-1.065c1.077-0.08,2.097,0.106,3.063,0.558c0.969,0.453,1.765,1.119,2.392,1.997
			c0.628,0.879,0.983,1.885,1.069,3.016c0.083,1.083-0.116,2.098-0.593,3.043c-0.477,0.945-1.16,1.726-2.051,2.336
			c-0.891,0.612-1.866,0.957-2.925,1.035c-1.671,0.124-3.14-0.349-4.421-1.419C354.596,202.229,353.893,200.881,353.772,199.254z"/>
	</g>
	<g>
		<path d="M254.772,77.098c-6.518,30.185-36.43,49.403-66.804,42.925c-30.376-6.478-49.718-36.2-43.2-66.383
			c6.517-30.184,36.428-49.403,66.806-42.925C241.95,17.193,261.29,46.914,254.772,77.098z"/>
		<g>
			<path fill="#FFFFFF" d="M215.499,16.799l2.116-1.312c-2.151-0.757-4.355-1.436-6.652-1.927
				c-8.759-1.868-17.474-1.446-25.55,0.813l2.723,2.28L215.499,16.799z"/>
			<polygon fill="#FFFFFF" points="221.848,36.48 212.117,52.426 217.052,69.638 233.098,76.822 246.983,68.227 238.173,37.64 			
				"/>
			<path fill="#FFFFFF" d="M161.626,33.943l-1.086-4.369c-6.237,6.729-10.844,15.103-12.911,24.675
				c-0.964,4.462-1.264,8.905-1.084,13.267l3.817-2.357L161.626,33.943z"/>
			<path fill="#FFFFFF" d="M250.016,68.246l2.801,2.349c1.374-13.721-2.745-26.995-10.757-37.408l-1.255,3.076L250.016,68.246z"/>
			<polygon fill="#FFFFFF" points="183.189,68.855 189.205,52.527 179.862,36.191 164.309,35.083 153.405,65.296 165.879,75.738 			
				"/>
			<path fill="#FFFFFF" d="M213.737,115.284l-0.535,1.304c11.455-2.986,21.641-9.7,28.867-19.051l-3.684-0.263L213.737,115.284z"/>
			<polygon fill="#FFFFFF" points="191.262,50.271 209.626,50.939 219.654,34.499 215.963,19.693 188.816,19.544 182.511,34.974 
				191.258,50.271 			"/>
			<polygon fill="#FFFFFF" points="184.071,71.617 166.803,78.48 160.569,93.733 183.452,109.938 197.457,101.275 198.232,82.656 
							"/>
			<polygon fill="#FFFFFF" points="216.461,72.542 201.142,82.773 200.38,101.087 213.37,111.961 236.027,95.403 232.078,79.533 			
				"/>
			<path fill="#FFFFFF" d="M157.914,95.401l-2.088-0.148c6.507,9.451,16.041,16.861,27.614,20.554l-0.704-2.829L157.914,95.401z"/>
		</g>
	</g>
	<g>
		<path d="M290.406,115.461H107.862v131.816c0,50.367,41.229,91.34,91.911,91.34c50.675,0,91.91-40.974,91.91-91.34V115.461H290.406
			z"/>
		<path fill="#ECE94F" d="M138.436,179.326c0.172-0.228,0.248-0.475,0.391-0.708c-5.633,0-20.793,0-28.414,0
			c0,7.971,0,16.01,0,23.656c6.784,0,19.523,0,26.219,0C132.144,193.059,135.625,183.051,138.436,179.326z"/>
		<path fill="#ECE94F" d="M141.934,150.844c0.649-0.024,1.212,0.443,1.301,1.086c0.36,2.533,3.442,6.109,5.828,8.482
			c0-0.067,0.001-0.138,0.001-0.211c0-7.1-0.86-12.496-0.873-12.557c-0.009-0.067-0.013-0.133-0.013-0.2
			c0-0.5,0.301-0.967,0.782-1.161c0.539-0.224,1.167-0.049,1.509,0.422c0.181,0.252,3.83,5.592,5.856,12.724
			c1.117-2.384,2.462-5.704,2.462-8.251c0-0.592,0.411-1.1,0.99-1.229c0.577-0.129,1.171,0.163,1.423,0.697
			c0.1,0.208,1.903,4.127,1.932,9.647c0.501-0.705,1.108-1.409,1.693-2.119c0-12.738,0-28.792,0-40.177c-8.586,0-16.642,0-23.81,0
			c0,9.429,0,22.076,0,33.387C141.233,151.083,141.536,150.859,141.934,150.844z"/>
		<path fill="#F4DE45" d="M141.014,157.631c0,1.109,0,2.22,0,3.275c0.214,0.212,0.433,0.421,0.641,0.64
			C141.354,160.121,141.16,158.826,141.014,157.631z"/>
		<path fill="#ECE94F" d="M156.832,219.694c-0.297,0.135-0.641,0.154-0.954,0.05c-0.286-0.098-6.722-2.452-14.864-11.368
			c0,17.806,0,70.787,0,105.637c7.062,6.155,15.054,11.274,23.81,14.984c0-29.877,0-90.648,0-115.62
			C160.429,217.897,157.038,219.591,156.832,219.694z"/>
		<path fill="#ECE94F" d="M173.008,202.273c9.816,0,25.168,0,26.764,0c0-2.162,0-21.49,0-23.656c-1.755,0-20.174,0-29.535,0
			C173.684,183.131,177.548,192.779,173.008,202.273z"/>
		<path fill="#C02026" d="M199.772,117.996c-1.012,0-15.437,0-32.417,0c0,11.576,0,26.967,0,39.025
			c0.238,0.185,0.431,0.419,0.486,0.723c0.054,0.276,1.276,6.826-0.06,10.534c-0.21,0.581-0.299,1.091-0.426,1.623
			c0,1.876,0,3.377,0,4.445c0.194,0.623,0.474,1.209,0.855,1.757c4.348,0,22.698,0,31.563,0V117.996z"/>
		<path fill="#C02026" d="M135.482,159.406c-0.068-0.453,0.116-0.906,0.476-1.186c0.362-0.276,0.848-0.343,1.269-0.162
			c0.415,0.172,0.834,0.419,1.257,0.705c0-12.281,0-28.639,0-40.767c-15.029,0-27.147,0-28.072,0c0,1.146,0,28.72,0,58.107
			c9.705,0,26.411,0,28.072,0c0-0.376,0-2.472,0-5.638c-0.025-0.048-0.034-0.09-0.057-0.139
			C136.645,166.944,135.529,159.711,135.482,159.406z"/>
		<path fill="#C02026" d="M167.355,329.945c10.066,3.908,20.973,6.137,32.417,6.137V204.79c-7.323,0-21.122,0-28.164,0
			c-1.442,2.24-2.867,4.099-4.253,5.764C167.355,230.468,167.355,297.044,167.355,329.945z"/>
		<path fill="#C02026" d="M110.413,204.79c0,23.451,0,42.487,0,42.487c0,25.385,10.828,48.252,28.072,64.453
			c0-40.27,0-99.845,0-106.35c-0.141-0.198-0.292-0.388-0.426-0.59C134.995,204.79,119.586,204.79,110.413,204.79z"/>
		<path fill="#FFFFFF" d="M266.463,166.14l0.5-0.176l-0.494-6.4c-0.218-0.586-1.081-2.381-2.454-2.381
			c-1.961,0-9.535-2.367-10.176-3.366c0.032-0.935,4.977-1.895,10.608-1.9h0.482l1.652-4.463c0.429-1.39,1.277-2.9,1.812-2.9
			c0.528,0,1.354,1.504,1.751,2.851l1.669,4.511h0.479c5.635,0.005,10.566,0.965,10.566,2.051
			c-0.602,0.849-8.176,3.215-10.143,3.215c-1.369,0-2.232,1.795-2.39,2.157l-0.559,6.619c0,0,0.845,0.31,1.152,0.424
			c0.106,0.577,0.71,3.777,0.925,4.915c-1.221,0-5.783,0-7.003,0c0.216-1.134,0.812-4.32,0.923-4.91
			C266.079,166.279,266.463,166.14,266.463,166.14z"/>
		<path fill="#FFFFFF" d="M219.025,166.145l0.504-0.181l-0.513-6.4c-0.211-0.586-1.072-2.381-2.444-2.381
			c-1.961,0-9.533-2.367-10.17-3.366c0.033-0.935,4.97-1.895,10.596-1.9h0.485l1.648-4.463c0.429-1.386,1.292-2.9,1.818-2.9
			c0.527,0,1.358,1.504,1.751,2.851l1.666,4.511h0.485c5.631,0.005,10.566,0.965,10.566,2.051c-0.6,0.849-8.181,3.215-10.143,3.215
			c-1.372,0-2.235,1.795-2.392,2.157l-0.554,6.619c0,0,0.843,0.31,1.149,0.424c0.104,0.577,0.703,3.777,0.919,4.915
			c-1.221,0-5.774,0-6.997,0c0.214-1.134,0.813-4.32,0.919-4.905C218.642,166.279,219.025,166.145,219.025,166.145z"/>
		<path fill="#FFFFFF" d="M266.47,226.925l0.494-0.18l-0.494-6.397c-0.218-0.587-1.081-2.38-2.454-2.38
			c-1.967,0-9.548-2.367-10.176-3.363c0.032-0.938,4.977-1.896,10.608-1.896h0.482l1.652-4.463c0.429-1.388,1.277-2.899,1.812-2.899
			c0.528,0,1.354,1.504,1.751,2.853l1.669,4.51h0.479c5.635,0,10.566,0.958,10.566,2.043c-0.595,0.848-8.17,3.215-10.143,3.215
			c-1.369,0-2.232,1.793-2.39,2.157l-0.559,6.614c0,0,0.845,0.319,1.145,0.432c0.113,0.571,0.717,3.773,0.925,4.911
			c-1.214,0-5.776,0-6.997,0c0.216-1.135,0.818-4.319,0.923-4.9C266.086,227.065,266.47,226.925,266.47,226.925z"/>
		<path fill="#FFFFFF" d="M219.032,226.925l0.498-0.176l-0.513-6.4c-0.211-0.587-1.072-2.38-2.444-2.38
			c-1.967,0-9.536-2.367-10.17-3.363c0.033-0.938,4.97-1.896,10.596-1.896h0.485l1.648-4.463c0.429-1.386,1.292-2.899,1.818-2.899
			c0.527,0,1.358,1.504,1.751,2.853l1.666,4.51h0.485c5.631,0,10.566,0.958,10.566,2.043c-0.598,0.848-8.181,3.215-10.143,3.215
			c-1.372,0-2.235,1.793-2.392,2.157l-0.554,6.614c0,0,0.843,0.319,1.143,0.432c0.11,0.575,0.709,3.773,0.925,4.911
			c-1.221,0-5.774,0-6.997,0c0.214-1.135,0.813-4.319,0.919-4.9C218.642,227.069,219.032,226.925,219.032,226.925z"/>
		<path fill="#FFFFFF" d="M266.463,287.719l0.5-0.178l-0.494-6.39c-0.215-0.583-1.081-2.391-2.454-2.391
			c-1.967,0-9.548-2.366-10.176-3.36c0.032-0.939,4.977-1.895,10.608-1.895h0.482l1.652-4.473c0.423-1.383,1.277-2.89,1.812-2.89
			c0.528,0,1.354,1.501,1.751,2.839l1.669,4.525h0.479c5.635,0,10.566,0.955,10.566,2.042c-0.595,0.847-8.17,3.213-10.143,3.213
			c-1.369,0-2.232,1.808-2.39,2.17l-0.559,6.609c0,0,0.845,0.308,1.152,0.423c0.106,0.577,0.71,3.777,0.925,4.915
			c-1.221,0-5.783,0-7.003,0c0.216-1.132,0.812-4.322,0.923-4.91C266.079,287.855,266.463,287.719,266.463,287.719z"/>
		<path fill="#FFFFFF" d="M219.025,287.724l0.504-0.183l-0.513-6.39c-0.211-0.583-1.072-2.391-2.444-2.391
			c-1.967,0-9.536-2.366-10.17-3.36c0.033-0.939,4.97-1.895,10.596-1.895h0.485l1.648-4.473c0.429-1.379,1.292-2.89,1.818-2.89
			c0.527,0,1.358,1.501,1.751,2.839l1.666,4.525h0.485c5.631,0,10.566,0.955,10.566,2.042c-0.598,0.847-8.181,3.213-10.143,3.213
			c-1.372,0-2.235,1.808-2.392,2.17l-0.554,6.609c0,0,0.843,0.308,1.149,0.423c0.104,0.577,0.703,3.777,0.919,4.915
			c-1.221,0-5.774,0-6.997,0c0.214-1.132,0.813-4.322,0.919-4.903C218.642,287.855,219.025,287.724,219.025,287.724z"/>
		<path fill="#FFFFFF" d="M242.545,193.965l0.506-0.176l-0.506-6.405c-0.211-0.586-1.072-2.39-2.444-2.39
			c-1.967,0-9.546-2.367-10.176-3.362c0.033-0.915,5.069-1.89,10.596-1.895h0.485l1.655-4.463c0.425-1.389,1.288-2.9,1.818-2.9
			c0.526,0,1.354,1.506,1.741,2.853l1.667,4.511h0.485c5.536,0.004,10.579,0.98,10.579,2.042c-0.602,0.847-8.185,3.215-10.156,3.215
			c-1.372,0-2.235,1.805-2.39,2.167l-0.548,6.614c0,0,0.839,0.315,1.14,0.429c0.106,0.576,0.708,3.768,0.919,4.906
			c-1.217,0-5.778,0-6.995,0c0.214-1.132,0.809-4.311,0.917-4.897C242.164,194.098,242.545,193.965,242.545,193.965z"/>
		<path fill="#FFFFFF" d="M242.545,257.713l0.506-0.176l-0.506-6.405c-0.211-0.585-1.072-2.382-2.444-2.382
			c-1.961,0-9.542-2.366-10.176-3.367c0.033-0.934,4.971-1.891,10.596-1.891h0.485l1.655-4.462c0.425-1.394,1.288-2.908,1.818-2.908
			c0.526,0,1.354,1.508,1.741,2.86l1.667,4.51h0.485c5.638,0,10.579,0.957,10.579,2.046c-0.604,0.845-8.191,3.211-10.156,3.211
			c-1.372,0-2.235,1.797-2.39,2.158l-0.548,6.616c0,0,0.839,0.315,1.14,0.428c0.106,0.578,0.708,3.776,0.925,4.917
			c-1.223,0-5.784,0-7.001,0c0.214-1.136,0.809-4.322,0.917-4.909C242.164,257.846,242.545,257.713,242.545,257.713z"/>
		<path fill="#ECE94F" d="M137.312,196.389c0.073,0.372,0.186,0.747,0.28,1.124h34.439c0.363-1.491,0.558-2.963,0.558-4.366
			c0-0.339-0.049-0.657-0.064-0.987c-4.972,0.057-13.294,0.305-15.678,1.028C154.362,193.955,147.291,196.104,137.312,196.389z"/>
		<path fill="#C02026" d="M167.237,178.984c-1.873-1.867-2.804-4.052-2.804-6.619c0-1.511,0.321-3.153,0.964-4.934
			c0.353-0.976,0.476-2.309,0.476-3.677c0-0.932-0.077-1.846-0.156-2.714c-1.983,2.642-3.287,5.19-3.305,5.219
			c-0.279,0.577-0.957,0.844-1.56,0.63c-0.511-0.182-0.839-0.662-0.839-1.187c0-0.089,0.009-0.186,0.032-0.28
			c0.401-1.743,0.557-3.415,0.557-4.953c0-1.514-0.165-2.837-0.377-4.043c-1.217,3.625-3.028,6.944-3.146,7.15
			c-0.264,0.455-0.79,0.704-1.314,0.613c-0.525-0.091-0.937-0.494-1.032-1.019c-0.687-3.843-2.097-7.268-3.407-9.92
			c0.146,1.995,0.273,4.248,0.273,6.896c0,1.024-0.018,2.087-0.055,3.171c-0.018,0.486-0.313,0.919-0.762,1.11
			c-0.444,0.195-0.963,0.113-1.329-0.201c-0.521-0.442-3.514-3.19-5.88-6.352c0.317,2.457,0.915,5.433,2.111,8.553
			c0.054,0.147,0.079,0.3,0.079,0.447c0,0.453-0.246,0.886-0.67,1.11c-0.56,0.3-1.262,0.133-1.625-0.381
			c-0.844-1.187-2.921-3.8-4.924-5.596c0.472,2.324,1.194,5.381,2.124,7.147c1.15,2.164,1.725,4.206,1.725,6.11
			c0,2.015-0.645,3.883-1.932,5.579c-0.061,0.079-0.144,0.213-0.212,0.317h28.654C168.252,180.16,167.652,179.393,167.237,178.984z"
			/>
		<path fill="#C02026" d="M141.595,205.286c7.447,8.643,13.39,11.358,14.617,11.858c1.188-0.638,7.138-4.153,13.319-13.794
			c0.715-1.109,1.236-2.218,1.683-3.324h-32.793C139.148,201.799,140.125,203.577,141.595,205.286z"/>
		<path fill="#ECE94F" d="M137.059,190.88c-0.061,0.643-0.1,1.299-0.1,1.97c0,0.333,0.064,0.687,0.079,1.024
			c9.738-0.253,16.646-2.344,19.063-3.091c2.826-0.861,11.666-1.08,16.141-1.138c-0.192-1.042-0.437-2.037-0.745-2.976
			c-5.022,0.077-12.423,0.338-14.651,1.016C154.344,188.455,147.166,190.627,137.059,190.88z"/>
		<path fill="#ECE94F" d="M138.913,183.675c-0.555,1.281-1.098,2.881-1.473,4.685c9.533-0.295,16.277-2.342,18.662-3.081
			c2.504-0.762,9.714-1.019,14.442-1.109c-0.08-0.172-0.156-0.329-0.239-0.495H138.913z"/>
		<path fill="#3B975C" d="M284.285,193.179c0,0,0.662-0.238,0.947-0.337c-0.06-0.867-0.358-5.135-0.358-5.135
			c-0.268-0.614-0.815-1.333-1.118-1.333c-1.277,0-11.532-2.34-11.532-4.596c0-3.039,8.308-3.381,11.465-3.41
			c0.259-0.691,1.313-3.533,1.313-3.533c0.199-0.644,1.271-3.844,3.134-3.844c0.371,0,0.69,0.149,0.994,0.348
			c0-12.868,0-25.087,0-34.596h-6.218l1.372-7.32c0,0,0.662-0.239,0.947-0.338c-0.06-0.867-0.358-5.129-0.358-5.129
			c-0.268-0.613-0.815-1.329-1.118-1.329c-1.277,0-11.532-2.337-11.532-4.595c0-0.014,0.015-0.023,0.015-0.037
			c-3.639,0-7.648,0-11.917,0c0,0.014,0.017,0.023,0.017,0.037c0,2.258-10.262,4.595-11.545,4.595c-0.298,0-0.842,0.715-1.063,1.105
			c0,0-0.345,4.505-0.408,5.362c0.263,0.1,0.89,0.334,0.89,0.334l1.378,7.315h-10.34l1.372-7.325c0,0,0.67-0.234,0.962-0.338
			c-0.06-0.868-0.369-5.125-0.369-5.125c-0.271-0.613-0.819-1.329-1.117-1.329c-1.277,0-11.533-2.337-11.533-4.595
			c0-0.014,0.011-0.023,0.011-0.037c-4.264,0-8.283,0-11.923,0c0,0.014,0.018,0.023,0.018,0.037c0,2.258-10.251,4.595-11.53,4.595
			c-0.304,0-0.848,0.715-1.072,1.105c0,0-0.341,4.505-0.41,5.362c0.268,0.1,0.893,0.334,0.893,0.334l1.366,7.315h-6.148v34.634
			c0.32-0.224,0.664-0.386,1.054-0.386c1.871,0,2.881,3.21,3.047,3.805c0,0,1.074,2.881,1.333,3.572
			c3.158,0.029,11.468,0.371,11.468,3.41c0,2.256-10.251,4.596-11.53,4.596c-0.298,0-0.848,0.719-1.072,1.114
			c0,0-0.341,4.504-0.41,5.362c0.268,0.101,0.893,0.333,0.893,0.333l1.366,7.308h-6.148v34.633c0.32-0.224,0.664-0.385,1.054-0.385
			c1.871,0,2.881,3.219,3.047,3.815c0,0,1.074,2.881,1.333,3.57c3.158,0.025,11.468,0.361,11.468,3.412
			c0,2.19-10.265,4.594-11.53,4.594c-0.304,0-0.848,0.713-1.072,1.103c0,0-0.341,4.506-0.41,5.366
			c0.268,0.098,0.893,0.331,0.893,0.331l1.366,7.313h-6.148v34.635c0.32-0.221,0.664-0.388,1.054-0.388
			c1.871,0,2.881,3.211,3.047,3.808c0,0,1.074,2.88,1.333,3.572c3.158,0.024,11.468,0.36,11.468,3.41
			c0,2.256-10.251,4.593-11.53,4.593c-0.304,0-0.848,0.718-1.072,1.106c0,0-0.341,4.506-0.41,5.364
			c0.268,0.099,0.893,0.333,0.893,0.333l1.366,7.312h-6.148v8.092c14.275,0,27.742-3.418,39.722-9.371l1.131-6.044
			c0,0,0.67-0.233,0.962-0.338c-0.06-0.87-0.369-5.122-0.369-5.122c-0.271-0.614-0.819-1.332-1.117-1.332
			c-1.277,0-11.533-2.337-11.533-4.593c0-3.05,8.31-3.387,11.464-3.41c0.259-0.692,1.311-3.535,1.311-3.535
			c0.199-0.641,1.271-3.844,3.136-3.844c1.881,0,2.893,3.211,3.06,3.808c0,0,1.062,2.874,1.324,3.572
			c3.155,0.024,11.476,0.36,11.476,3.41c0,2.256-10.262,4.593-11.545,4.593c-0.298,0-0.842,0.718-1.063,1.106
			c0,0-0.345,4.506-0.408,5.364c0.263,0.099,0.89,0.333,0.89,0.333l0.166,0.895c19.888-12.897,34.258-33.369,38.955-57.327h-4.423
			l1.372-7.32c0,0,0.662-0.236,0.947-0.336c-0.06-0.869-0.358-5.131-0.358-5.131c-0.268-0.614-0.815-1.327-1.118-1.327
			c-1.263,0-11.532-2.405-11.532-4.594c0-3.05,8.308-3.387,11.465-3.412c0.259-0.689,1.313-3.534,1.313-3.534
			c0.199-0.644,1.271-3.852,3.134-3.852c0.371,0,0.69,0.146,0.994,0.348c0-8.624,0-21,0-34.595h-6.218L284.285,193.179z
			 M263.953,150.549c0.26-0.692,1.313-3.534,1.313-3.534c0.194-0.643,1.259-3.843,3.128-3.843c1.876,0,2.894,3.21,3.069,3.806
			c0,0,1.065,2.876,1.322,3.572c3.155,0.029,11.465,0.37,11.465,3.418c0,2.191-10.268,4.597-11.534,4.597
			c-0.298,0-0.845,0.713-1.062,1.105c0,0-0.351,4.499-0.418,5.358c0.269,0.1,0.902,0.338,0.902,0.338l1.373,7.313h-10.335
			l1.372-7.32c0,0,0.664-0.237,0.95-0.342c-0.06-0.862-0.358-5.119-0.358-5.119c-0.276-0.62-0.824-1.334-1.126-1.334
			c-1.267,0-11.53-2.406-11.53-4.597C252.486,150.919,260.799,150.578,263.953,150.549z M240.033,178.369
			c0.254-0.691,1.311-3.533,1.311-3.533c0.199-0.644,1.271-3.844,3.136-3.844c1.881,0,2.893,3.21,3.06,3.805
			c0,0,1.062,2.876,1.324,3.572c3.155,0.029,11.476,0.371,11.476,3.41c0,2.256-10.262,4.596-11.545,4.596
			c-0.298,0-0.842,0.719-1.063,1.114c0,0-0.345,4.504-0.408,5.362c0.263,0.101,0.89,0.333,0.89,0.333l1.381,7.308h-10.342
			l1.372-7.318c0,0,0.67-0.233,0.962-0.337c-0.06-0.867-0.369-5.125-0.369-5.125c-0.271-0.619-0.819-1.338-1.117-1.338
			c-1.277,0-11.533-2.34-11.533-4.596C228.569,178.74,236.879,178.398,240.033,178.369z M215.734,172.678l1.369-7.323
			c0,0,0.673-0.233,0.958-0.338c-0.062-0.867-0.369-5.125-0.369-5.125c-0.276-0.615-0.822-1.328-1.119-1.328
			c-1.268,0-11.524-2.406-11.524-4.597c0-3.048,8.304-3.389,11.461-3.418c0.254-0.692,1.301-3.534,1.301-3.534
			c0.206-0.643,1.286-3.843,3.14-3.843c1.876,0,2.894,3.21,3.066,3.806c0,0,1.07,2.876,1.324,3.572
			c3.158,0.029,11.468,0.37,11.468,3.418c0,2.191-10.268,4.597-11.534,4.597c-0.298,0-0.848,0.713-1.065,1.105
			c0,0-0.352,4.499-0.416,5.358c0.271,0.1,0.899,0.338,0.899,0.338l1.372,7.313H215.734z M215.734,233.463l1.369-7.311
			c0,0,0.673-0.244,0.964-0.347c-0.069-0.862-0.375-5.13-0.375-5.13c-0.276-0.611-0.822-1.327-1.119-1.327
			c-1.283,0-11.524-2.339-11.524-4.596c0-3.048,8.304-3.388,11.461-3.409c0.254-0.697,1.301-3.535,1.301-3.535
			c0.206-0.641,1.286-3.84,3.14-3.84c1.876,0,2.894,3.209,3.066,3.804c0,0,1.065,2.875,1.324,3.572
			c3.158,0.021,11.468,0.361,11.468,3.409c0,2.257-10.253,4.596-11.534,4.596c-0.298,0-0.848,0.715-1.065,1.104
			c0,0-0.352,4.508-0.416,5.362c0.271,0.105,0.902,0.349,0.902,0.349l1.369,7.298H215.734z M225.276,280.141
			c-0.298,0-0.848,0.718-1.065,1.116c0,0-0.352,4.49-0.416,5.346c0.271,0.101,0.899,0.338,0.899,0.338l1.372,7.315h-10.331
			l1.369-7.323c0,0,0.673-0.234,0.958-0.338c-0.062-0.865-0.369-5.115-0.369-5.115c-0.276-0.62-0.822-1.338-1.119-1.338
			c-1.283,0-11.524-2.339-11.524-4.595c0-3.05,8.304-3.384,11.461-3.409c0.254-0.695,1.307-3.549,1.307-3.549
			c0.2-0.639,1.279-3.827,3.134-3.827c1.876,0,2.894,3.196,3.066,3.794c0,0,1.07,2.886,1.324,3.582
			c3.158,0.025,11.468,0.359,11.468,3.409C236.81,277.803,226.556,280.141,225.276,280.141z M239.253,264.245l1.372-7.323
			c0,0,0.67-0.233,0.962-0.336c-0.06-0.869-0.369-5.127-0.369-5.127c-0.271-0.614-0.819-1.327-1.117-1.327
			c-1.262,0-11.533-2.405-11.533-4.594c0-3.05,8.31-3.387,11.464-3.412c0.259-0.689,1.311-3.534,1.311-3.534
			c0.199-0.644,1.271-3.852,3.136-3.852c1.881,0,2.893,3.219,3.06,3.815c0,0,1.062,2.875,1.324,3.57
			c3.155,0.025,11.476,0.361,11.476,3.412c0,2.19-10.28,4.594-11.545,4.594c-0.298,0-0.842,0.713-1.063,1.103
			c0,0-0.345,4.506-0.408,5.366c0.263,0.098,0.89,0.331,0.89,0.331l1.378,7.313H239.253z M272.785,272.138
			c3.155,0.025,11.465,0.359,11.465,3.409c0,2.256-10.253,4.595-11.534,4.595c-0.298,0-0.845,0.718-1.062,1.116
			c0,0-0.351,4.49-0.418,5.346c0.269,0.101,0.902,0.338,0.902,0.338l1.373,7.315h-10.335l1.372-7.317c0,0,0.664-0.24,0.95-0.344
			c-0.06-0.86-0.358-5.115-0.358-5.115c-0.276-0.62-0.824-1.338-1.126-1.338c-1.279,0-11.53-2.339-11.53-4.595
			c0-3.05,8.314-3.384,11.468-3.409c0.26-0.695,1.313-3.543,1.313-3.543c0.194-0.64,1.259-3.833,3.128-3.833
			c1.876,0,2.894,3.196,3.069,3.794C271.463,268.556,272.529,271.442,272.785,272.138z M284.25,214.753
			c0,2.257-10.253,4.596-11.534,4.596c-0.298,0-0.845,0.715-1.062,1.104c0,0-0.351,4.508-0.418,5.362
			c0.269,0.105,0.905,0.349,0.905,0.349l1.374,7.298h-10.34l1.372-7.311c0,0,0.664-0.238,0.95-0.347
			c-0.06-0.859-0.358-5.123-0.358-5.123c-0.276-0.618-0.824-1.333-1.126-1.333c-1.279,0-11.53-2.339-11.53-4.596
			c0-3.048,8.314-3.388,11.468-3.409c0.263-0.692,1.313-3.535,1.313-3.535c0.194-0.641,1.259-3.84,3.128-3.84
			c1.876,0,2.894,3.209,3.069,3.804c0,0,1.063,2.875,1.322,3.572C275.94,211.365,284.25,211.705,284.25,214.753z"/>
		<path fill="#FFFFFF" d="M242.545,123.628l0.506,6.406l-0.506,0.176c0,0-0.381,0.134-0.705,0.247
			c-0.108,0.587-0.703,3.772-0.917,4.907c1.217,0,5.778,0,7.001,0c-0.218-1.139-0.819-4.339-0.925-4.915
			c-0.301-0.113-1.14-0.428-1.14-0.428l0.548-6.615c0.155-0.361,1.018-2.157,2.39-2.157c1.971,0,9.554-2.367,10.156-3.215
			c0-0.014-0.019-0.023-0.019-0.037c-9.315,0-19.551,0-28.871,0c1.028,1.042,8.132,3.252,10.04,3.252
			C241.473,121.248,242.334,123.043,242.545,123.628z"/>
		<path fill="#FFFFFF" d="M203.332,130.448c-0.298-0.113-1.134-0.428-1.134-0.428l0.55-6.615c0.158-0.361,1.021-2.157,2.396-2.157
			c1.965,0,9.542-2.367,10.137-3.215c0-0.014-0.018-0.023-0.018-0.037c-8.729,0-14.845,0-15.491,0v17.367c1.721,0,3.735,0,4.485,0
			C204.042,134.224,203.445,131.024,203.332,130.448z"/>
		<path fill="#FFFFFF" d="M203.335,194.203c-0.3-0.115-1.137-0.429-1.137-0.429l0.55-6.614c0.158-0.362,1.021-2.167,2.396-2.167
			c1.965,0,9.542-2.367,10.137-3.215c0-1.062-5.032-2.038-10.562-2.042h-0.485l-1.679-4.511c-0.386-1.347-1.207-2.853-1.728-2.853
			c-0.292,0-0.687,0.477-1.054,1.125v25.611c1.721,0,3.735,0,4.485,0C204.042,197.971,203.445,194.779,203.335,194.203z"/>
		<path fill="#FFFFFF" d="M203.332,257.95c-0.298-0.113-1.134-0.428-1.134-0.428l0.55-6.616c0.158-0.361,1.021-2.158,2.396-2.158
			c1.958,0,9.537-2.366,10.137-3.211c0-1.089-4.935-2.046-10.562-2.046h-0.485l-1.679-4.51c-0.386-1.352-1.207-2.86-1.728-2.86
			c-0.292,0-0.687,0.479-1.054,1.127v25.619c1.721,0,3.735,0,4.485,0C204.042,261.726,203.445,258.528,203.332,257.95z"/>
		<path fill="#FFFFFF" d="M245.858,321.268l0.548-6.616c0.155-0.36,1.018-2.156,2.39-2.156c1.971,0,9.554-2.366,10.156-3.214
			c0-1.086-4.941-2.045-10.579-2.045h-0.485l-1.667-4.508c-0.386-1.349-1.214-2.854-1.741-2.854c-0.53,0-1.393,1.511-1.818,2.901
			l-1.655,4.461h-0.485c-5.625,0-10.564,0.959-10.596,1.897c0.63,0.996,8.209,3.362,10.176,3.362c1.372,0,2.232,1.796,2.444,2.381
			l0.506,6.405l-0.506,0.176c0,0-0.381,0.136-0.705,0.246c-0.093,0.508-0.533,2.874-0.798,4.256c2.09-1.084,4.104-2.271,6.095-3.517
			c-0.063-0.329-0.115-0.619-0.139-0.748C246.697,321.582,245.858,321.268,245.858,321.268z"/>
		<path fill="#FFFFFF" d="M203.332,321.697c-0.298-0.115-1.134-0.429-1.134-0.429l0.55-6.616c0.158-0.36,1.021-2.156,2.396-2.156
			c1.965,0,9.542-2.366,10.137-3.214c0-1.086-4.935-2.045-10.562-2.045h-0.485l-1.679-4.508c-0.386-1.349-1.207-2.854-1.728-2.854
			c-0.292,0-0.687,0.475-1.054,1.123v25.614c1.721,0,3.735,0,4.485,0C204.042,325.472,203.445,322.276,203.332,321.697z"/>
		<path fill="#FFFFFF" d="M286.202,123.628l0.491,6.402l-0.498,0.175c0,0-0.378,0.139-0.693,0.248
			c-0.11,0.586-0.705,3.775-0.92,4.91c0.759,0,2.81,0,4.548,0c0-10.092,0-16.815,0-17.367c-0.643,0-6.724,0-15.412,0
			c1.024,1.042,8.131,3.252,10.037,3.252C285.143,121.248,285.994,123.047,286.202,123.628z"/>
		<path fill="#FFFFFF" d="M288.137,172.374c-0.527,0-1.387,1.511-1.812,2.9l-1.658,4.463h-0.488c-5.53,0.004-10.566,0.98-10.6,1.895
			c0.632,0.995,8.209,3.362,10.177,3.362c1.387,0,2.237,1.808,2.446,2.39l0.491,6.4l-0.498,0.176c0,0-0.378,0.138-0.693,0.248
			c-0.11,0.585-0.705,3.769-0.92,4.901c0.759,0,2.81,0,4.548,0c0-8.374,0-17.122,0-25.674
			C288.792,172.821,288.42,172.374,288.137,172.374z"/>
		<path fill="#FFFFFF" d="M288.137,236.121c-0.527,0-1.387,1.513-1.812,2.908l-1.658,4.462h-0.488c-5.631,0-10.566,0.957-10.6,1.891
			c0.638,1,8.215,3.367,10.177,3.367c1.387,0,2.237,1.802,2.446,2.382l0.491,6.399l-0.498,0.179c0,0-0.378,0.138-0.693,0.244
			c-0.11,0.59-0.705,3.779-0.92,4.915c0.552,0,1.783,0,3.081,0c0.91-5.075,1.467-10.266,1.467-15.591c0,0,0-3.832,0-10.09
			C288.792,236.574,288.42,236.121,288.137,236.121z"/>
	</g>
</g>
</svg>
