<?xml version="1.0" encoding="utf-8"?>
<!-- Generator: Adobe Illustrator 19.1.0, SVG Export Plug-In . SVG Version: 6.00 Build 0)  -->
<svg version="1.1" id="Layer_1" xmlns="http://www.w3.org/2000/svg" xmlns:xlink="http://www.w3.org/1999/xlink" x="0px" y="0px"
	 viewBox="0 0 400 400" enable-background="new 0 0 400 400" xml:space="preserve">
<path fill="#ED1C24" d="M284.993,43.258H241.91c-0.326-7.588-2.611-14.442-6.854-20.399c-1.305-1.877-2.856-3.509-4.488-5.222
	c-7.507-7.67-16.727-11.505-27.416-11.505c-10.771,0-19.909,3.835-27.579,11.505c-1.713,1.713-3.264,3.59-4.488,5.467
	c-4.161,5.875-6.446,12.566-6.772,19.91h-44.225l0.898,263.229h0.081c9.057,43.246,36.147,72.131,81.514,86.655l0.245,0.082
	l0.326-0.082c44.552-12.484,71.804-41.206,81.678-86.247c0-0.245,0-0.408,0.082-0.49l0.082-0.163V43.258L284.993,43.258z
	 M239.952,44.318L239.952,44.318v1.061l43.001-0.081v260.454c-0.081,0.163-0.163,0.326-0.163,0.49
	c-9.628,44.062-36.31,72.294-79.882,84.615c-44.307-14.279-70.907-42.593-79.882-84.86l-0.898-260.944h44.143v-0.979
	c0.245-7.344,2.366-13.953,6.446-19.746v-0.082c1.224-1.795,2.693-3.508,4.325-5.222c7.262-7.18,15.911-10.852,26.111-10.852
	c10.118,0,18.767,3.672,25.947,10.852h0.082c1.55,1.632,2.937,3.264,4.161,5.059C237.586,29.958,239.789,36.73,239.952,44.318z"/>
<path fill="#FFFFFF" d="M239.952,45.379v-1.061c-0.163-7.588-2.366-14.361-6.609-20.236c-1.224-1.795-2.611-3.427-4.161-5.059H229.1
	c-7.18-7.18-15.83-10.852-25.947-10.852c-10.199,0-18.849,3.672-26.111,10.852c-1.632,1.714-3.101,3.427-4.325,5.222v0.082
	c-4.08,5.793-6.201,12.403-6.446,19.746v0.979h-44.143l0.898,260.944c8.976,42.267,35.576,70.58,79.882,84.86
	c43.572-12.321,70.254-40.553,79.882-84.615c0-0.163,0.082-0.326,0.163-0.49V45.298L239.952,45.379L239.952,45.379z M231.058,24.98
	L231.058,24.98v0.082c4.161,5.712,6.201,12.321,6.201,19.828c0,0.082,0,0.163,0,0.163v0.082c0,0.816-0.082,1.632-0.163,2.529h44.062
	l-0.816,258.986c-8.241,40.635-33.862,67.725-76.782,81.351l-0.245,0.082l-0.326-0.082c-40.961-11.668-66.909-38.84-78.005-81.514
	v-0.081V47.582h43.246c0-0.816,0-1.632,0-2.448v-0.082c0,0,0-0.081,0-0.163c0-7.344,1.958-13.871,5.957-19.665
	c0-0.081,0.082-0.081,0.163-0.163c1.061-1.632,2.448-3.264,3.917-4.733c6.772-6.854,14.932-10.2,24.479-10.2
	c9.547,0,17.625,3.345,24.397,10.2C228.529,21.798,229.916,23.348,231.058,24.98z"/>
<path fill="#ED1C24" d="M231.058,25.062V24.98c-1.142-1.632-2.529-3.182-3.917-4.651c-6.773-6.854-14.851-10.2-24.397-10.2
	c-9.547,0-17.706,3.345-24.479,10.2c-1.469,1.469-2.856,3.101-3.917,4.733c-0.081,0.082-0.163,0.082-0.163,0.163
	c-3.998,5.794-5.957,12.321-5.957,19.665c0,0.082,0,0.163,0,0.163v0.082c0,0.816,0,1.632,0,2.448h-43.246v258.823v0.081
	c11.097,42.675,37.045,69.846,78.005,81.514l0.326,0.082l0.245-0.082c42.92-13.627,68.541-40.716,76.782-81.351l0.816-258.986
	h-44.062c0.082-0.897,0.163-1.713,0.163-2.529v-0.082c0,0,0-0.081,0-0.163C237.26,37.383,235.22,30.774,231.058,25.062
	L231.058,25.062z M225.673,21.798L225.673,21.798c0.979,0.897,1.876,1.958,2.774,3.101c-1.713,0.245-3.345,0.49-4.977,0.653h-0.082
	c-6.528,0.979-13.056,1.387-19.665,1.55v-7.507v-7.344C212.291,12.414,219.635,15.597,225.673,21.798L225.673,21.798z
	 M224.775,27.51L224.775,27.51c1.632-0.326,3.264-0.571,4.977-0.816c3.509,5.141,5.304,10.852,5.467,17.38h-10.363
	C226.326,38.77,226.326,33.222,224.775,27.51L224.775,27.51z M176.797,25.062L176.797,25.062c0.897-1.142,1.877-2.203,2.937-3.264
	c6.201-6.283,13.626-9.547,22.439-9.628v14.932c-6.283,0-12.484-0.408-18.767-1.142C181.203,25.715,179,25.47,176.797,25.062
	L176.797,25.062z M175.573,26.939L175.573,26.939c2.04,0.326,4.243,0.653,6.365,0.979c-1.714,5.304-1.714,10.689,0,16.156h-11.668
	C170.351,37.709,172.146,31.998,175.573,26.939L175.573,26.939z M202.663,29.142L202.663,29.142h0.082
	c6.691,0,13.382-0.571,19.991-1.387c1.55,5.712,1.55,11.097,0,16.319h-38.758c-1.713-5.304-1.713-10.607,0-15.911
	C190.26,28.815,196.38,29.142,202.663,29.142L202.663,29.142z M181.856,62.025L181.856,62.025c-2.203,0.163-4.243,0.408-6.446,0.653
	c-2.856-4.243-4.488-8.975-4.977-14.116V48.48c-0.082-0.734-0.163-1.55-0.163-2.366h11.587
	C179.979,51.417,180.061,56.721,181.856,62.025L181.856,62.025z M176.797,64.636L176.797,64.636
	c2.203-0.326,4.325-0.571,6.528-0.816h0.082c6.038-0.571,12.158-0.816,18.277-0.816v14.524c-8.568-0.245-15.911-3.427-21.949-9.547
	C178.674,66.921,177.613,65.86,176.797,64.636L176.797,64.636z M202.745,60.964L202.745,60.964c-6.283,0-12.484,0.245-18.767,0.816
	c-2.04-5.304-2.04-10.526,0-15.667h38.839c1.958,5.467,1.958,10.852,0.082,16.075C216.126,61.372,209.435,60.964,202.745,60.964
	L202.745,60.964z M235.22,46.114L235.22,46.114c-0.082,0.816-0.163,1.632-0.245,2.448c-0.489,5.304-2.203,10.199-5.222,14.442
	c-1.632-0.163-3.264-0.408-4.814-0.571c1.876-5.304,1.876-10.771,0.081-16.319H235.22L235.22,46.114z M225.673,67.981
	L225.673,67.981v0.082c-6.038,6.038-13.382,9.22-21.95,9.465V63.004c6.609,0.082,13.137,0.49,19.665,1.224h0.082
	c1.632,0.245,3.264,0.408,4.977,0.653c-0.898,1.061-1.795,2.122-2.856,3.101H225.673L225.673,67.981z M232.853,90.583
	L232.853,90.583v6.12h-85.268v112.194l55.159-78.332h-28.396v-6.283h40.471l-73.6,105.503V90.583H232.853L232.853,90.583z
	 M126.942,306.16L126.942,306.16v-34.842l152.177-219.33l-0.816,254.335c-8.16,39.737-33.128,66.256-74.987,79.638
	C163.252,374.374,137.876,347.774,126.942,306.16z"/>
<path fill="#FFFFFF" d="M228.447,24.899c-0.898-1.142-1.795-2.203-2.774-3.101c-6.038-6.201-13.382-9.384-21.95-9.547v7.344v7.507
	c6.609-0.163,13.137-0.571,19.665-1.55h0.082C225.102,25.388,226.734,25.144,228.447,24.899z"/>
<path fill="#FFFFFF" d="M229.753,26.694c-1.713,0.245-3.345,0.49-4.977,0.816c1.55,5.712,1.55,11.26,0.082,16.564h10.363
	C235.056,37.546,233.261,31.834,229.753,26.694z"/>
<path fill="#FFFFFF" d="M179.735,21.798c-1.061,1.061-2.04,2.121-2.937,3.264c2.203,0.408,4.406,0.653,6.609,0.897
	c6.283,0.734,12.484,1.142,18.767,1.142V12.17C193.361,12.251,185.936,15.515,179.735,21.798z"/>
<path fill="#FFFFFF" d="M181.938,27.918c-2.122-0.326-4.325-0.653-6.365-0.979c-3.427,5.059-5.222,10.771-5.304,17.135h11.668
	C180.224,38.607,180.224,33.222,181.938,27.918z"/>
<path fill="#FFFFFF" d="M202.745,29.142h-0.082c-6.283,0-12.403-0.326-18.685-0.979c-1.713,5.304-1.713,10.607,0,15.911h38.758
	c1.55-5.222,1.55-10.607,0-16.319C216.126,28.57,209.435,29.142,202.745,29.142z"/>
<path fill="#FFFFFF" d="M175.41,62.678c2.203-0.245,4.243-0.489,6.446-0.653c-1.795-5.304-1.877-10.607,0-15.911h-11.587
	c0,0.816,0.082,1.632,0.163,2.366v0.082C170.922,53.702,172.554,58.435,175.41,62.678z"/>
<path fill="#FFFFFF" d="M183.325,63.82c-2.203,0.245-4.325,0.49-6.528,0.816c0.816,1.224,1.877,2.285,2.937,3.346
	c6.038,6.12,13.382,9.302,21.949,9.547V63.004c-6.12,0-12.239,0.245-18.277,0.816H183.325z"/>
<path fill="#FFFFFF" d="M202.745,60.964c6.691,0,13.382,0.408,20.154,1.224c1.877-5.222,1.877-10.607-0.082-16.075h-38.839
	c-2.04,5.141-2.04,10.363,0,15.667C190.26,61.209,196.462,60.964,202.745,60.964z"/>
<path fill="#FFFFFF" d="M234.975,48.562c0.082-0.816,0.163-1.632,0.245-2.448h-10.2c1.795,5.549,1.795,11.015-0.081,16.319
	c1.55,0.163,3.182,0.408,4.814,0.571C232.772,58.761,234.485,53.865,234.975,48.562z"/>
<path fill="#FFFFFF" d="M225.673,68.063l-0.082-0.082c1.061-0.979,1.958-2.04,2.856-3.101c-1.713-0.245-3.345-0.408-4.977-0.653
	h-0.082c-6.528-0.734-13.056-1.142-19.665-1.224v14.524C212.291,77.284,219.635,74.101,225.673,68.063z"/>
<polygon fill="#FFFFFF" points="232.853,96.703 232.853,90.583 141.221,90.583 141.221,229.786 214.821,124.283 174.349,124.283 
	174.349,130.566 202.745,130.566 147.586,208.898 147.586,96.703 "/>
<path fill="#FFFFFF" d="M126.942,271.319v34.842c10.934,41.614,36.31,68.214,76.374,79.801c41.859-13.382,66.827-39.9,74.987-79.638
	l0.816-254.335L126.942,271.319L126.942,271.319z M181.448,224.809L181.448,224.809l-7.833-5.467l91.061-129.085v72.539h-9.383
	v-43.164l-48.55,69.112v28.395c1.877-0.245,3.753-0.326,5.63-0.326c8.649,0,16.156,2.285,22.847,7.017l-5.467,7.915
	c-4.896-3.345-10.526-4.978-16.89-4.978c-2.121,0-4.161,0.245-6.12,0.571v20.97h42.43v9.955h-42.43v26.356
	c1.958,0.408,3.998,0.571,6.12,0.571c5.957,0,11.26-1.387,15.993-4.325l6.365,7.425c-6.609,4.733-14.198,7.099-22.847,7.099
	c-1.877,0-3.754-0.082-5.63-0.327v8.486h-9.139v-10.771c-4.896-1.958-9.302-4.896-13.3-8.894
	c-7.752-7.752-11.586-16.972-11.586-27.824c0-10.852,3.835-20.073,11.586-27.743c3.998-3.998,8.404-6.936,13.3-8.812v-17.706
	L181.448,224.809L181.448,224.809z M193.035,315.217L193.035,315.217c3.101,1.877,6.12,1.877,9.22,0l0.49-0.408l0.653,0.408
	c2.774,2.04,5.875,2.04,9.139,0l2.529-1.55l0.163,0.163l-3.917,8.16c2.203,0.979,4.161,2.203,5.956,3.917
	c3.998,3.754,6.038,8.323,6.038,13.627c0,5.304-2.04,9.792-6.038,13.545v-0.081c-3.753,3.59-8.241,5.467-13.545,5.712v6.691
	c6.528-4.488,12.566-4.08,18.196,1.305l0.979,0.898l-1.061,0.653c-6.038,4.406-12.076,4.814-18.114,1.142v7.425h-2.04v-7.997
	c-2.285,1.877-4.651,2.856-7.181,2.856c-3.101,0-6.283-1.469-9.71-4.488l-0.898-0.816l1.061-0.734
	c5.549-4.243,11.179-4.569,16.727-1.142v-5.793c-5.141-0.326-9.547-2.203-13.219-5.712v0.081c-3.998-3.753-5.957-8.241-5.957-13.545
	c0-5.304,1.958-9.873,5.957-13.627c2.04-1.876,4.406-3.345,6.936-4.325l-5.549-7.262l0.653-0.653L193.035,315.217z"/>
<path fill="#ED1C24" d="M173.615,219.342l7.833,5.467l16.156-23.01v17.706c-4.896,1.877-9.302,4.814-13.3,8.812
	c-7.752,7.67-11.586,16.89-11.586,27.743c0,10.852,3.835,20.073,11.586,27.824c3.998,3.998,8.404,6.936,13.3,8.894v10.771h9.139
	v-8.486c1.877,0.245,3.753,0.327,5.63,0.327c8.649,0,16.238-2.366,22.847-7.099l-6.365-7.425
	c-4.733,2.937-10.036,4.325-15.993,4.325c-2.121,0-4.161-0.163-6.12-0.571v-26.356h42.43v-9.955h-42.43v-20.97
	c1.958-0.326,3.998-0.571,6.12-0.571c6.365,0,11.995,1.632,16.89,4.978l5.467-7.915c-6.691-4.732-14.198-7.017-22.847-7.017
	c-1.877,0-3.754,0.081-5.63,0.326v-28.395l48.55-69.112v43.164h9.383V90.257L173.615,219.342L173.615,219.342z M191.321,235.335
	L191.321,235.335c1.958-1.877,4.08-3.427,6.283-4.651v50.671c-2.203-1.224-4.325-2.856-6.283-4.733
	c-5.957-5.712-8.894-12.566-8.894-20.562C182.427,247.901,185.365,241.047,191.321,235.335z"/>
<path fill="#FFFFFF" d="M197.604,230.684c-2.203,1.224-4.325,2.774-6.283,4.651c-5.957,5.712-8.894,12.566-8.894,20.725
	c0,7.996,2.937,14.85,8.894,20.562c1.958,1.877,4.08,3.509,6.283,4.733V230.684z"/>
<path fill="#ED1C24" d="M202.255,315.217c-3.1,1.877-6.12,1.877-9.22,0l-2.529-1.55l-0.653,0.653l5.549,7.262
	c-2.529,0.979-4.896,2.448-6.936,4.325c-3.998,3.754-5.957,8.323-5.957,13.627c0,5.304,1.958,9.792,5.957,13.545v-0.081
	c3.672,3.509,8.078,5.385,13.219,5.712v5.793c-5.549-3.427-11.179-3.101-16.727,1.142l-1.061,0.734l0.898,0.816
	c3.427,3.019,6.609,4.488,9.71,4.488c2.529,0,4.896-0.979,7.181-2.856v7.997h2.04v-7.425c6.038,3.672,12.076,3.264,18.114-1.142
	l1.061-0.653l-0.979-0.898c-5.63-5.385-11.668-5.793-18.196-1.305v-6.691c5.304-0.245,9.792-2.121,13.545-5.712v0.081
	c3.998-3.753,6.038-8.241,6.038-13.545c0-5.304-2.04-9.873-6.038-13.627c-1.795-1.713-3.753-2.937-5.956-3.917l3.917-8.16
	l-0.163-0.163l-2.529,1.55c-3.264,2.04-6.364,2.04-9.139,0l-0.653-0.408L202.255,315.217L202.255,315.217z M195.564,318.481
	L195.564,318.481c2.448,0.489,4.733,0.081,7.181-1.224c2.611,1.632,5.304,2.04,8.159,0.979l-2.285,4.814l1.061,0.408
	c2.285,0.898,4.325,2.203,6.201,3.998v-0.082c3.59,3.346,5.385,7.425,5.385,12.158c0,4.651-1.795,8.649-5.385,11.995
	c-3.59,3.427-7.915,5.141-12.974,5.141c-0.081,0-0.163,0-0.163,0c-5.059-0.082-9.384-1.714-12.892-5.141
	c-3.509-3.345-5.304-7.344-5.304-11.995c0-4.733,1.795-8.812,5.304-12.158c2.203-2.121,4.651-3.508,7.507-4.243l1.387-0.408
	L195.564,318.481L195.564,318.481z M201.113,366.541L201.113,366.541c-2.121,2.04-4.325,3.101-6.609,3.101
	c-2.366,0-4.814-1.061-7.262-3.182C191.811,363.522,196.462,363.522,201.113,366.541L201.113,366.541z M219.635,367.357
	L219.635,367.357c-5.059,3.264-10.118,3.264-15.177,0C209.843,363.522,214.902,363.522,219.635,367.357z"/>
<path fill="#FFFFFF" d="M202.745,317.257c-2.448,1.305-4.733,1.713-7.181,1.224l3.182,4.243l-1.387,0.408
	c-2.856,0.734-5.304,2.121-7.507,4.243c-3.509,3.346-5.304,7.425-5.304,12.158c0,4.651,1.795,8.649,5.304,11.995
	c3.509,3.427,7.833,5.059,12.892,5.141c0,0,0.082,0,0.163,0c5.059,0,9.383-1.714,12.974-5.141c3.59-3.345,5.385-7.344,5.385-11.995
	c0-4.733-1.795-8.812-5.385-12.158v0.082c-1.877-1.795-3.917-3.101-6.201-3.998l-1.061-0.408l2.285-4.814
	C208.048,319.297,205.356,318.889,202.745,317.257L202.745,317.257z M199.725,338.717L199.725,338.717
	c-1.877-2.937-1.061-6.936,2.529-12.076c0.408,2.448,1.713,6.038,3.998,10.852c2.203,4.896,1.387,9.383-2.774,13.627
	C202.908,345.816,201.684,341.655,199.725,338.717z"/>
<path fill="#ED1C24" d="M202.255,326.641c-3.59,5.141-4.406,9.139-2.529,12.076c1.958,2.937,3.182,7.099,3.753,12.403
	c4.161-4.243,4.977-8.731,2.774-13.627C203.968,332.679,202.663,329.089,202.255,326.641z"/>
<path fill="#FFFFFF" d="M194.503,369.642c2.285,0,4.488-1.061,6.609-3.101c-4.651-3.019-9.302-3.019-13.871-0.082
	C189.689,368.581,192.137,369.642,194.503,369.642z"/>
<path fill="#FFFFFF" d="M204.458,367.357c5.059,3.264,10.118,3.264,15.177,0C214.902,363.522,209.843,363.522,204.458,367.357z"/>
</svg>
