<?xml version="1.0" encoding="utf-8"?>
<!-- Generator: Adobe Illustrator 19.1.0, SVG Export Plug-In . SVG Version: 6.00 Build 0)  -->
<svg version="1.1" id="Layer_1" xmlns="http://www.w3.org/2000/svg" xmlns:xlink="http://www.w3.org/1999/xlink" x="0px" y="0px"
	 viewBox="0 0 20 20" style="enable-background:new 0 0 20 20;" xml:space="preserve">
<style type="text/css">
	.st0{fill:#FFFFFF;}
	.st1{fill:#343536;enable-background:new    ;}
	.st2{fill:#343536;}
	.st3{fill:#84463F;enable-background:new    ;}
	.st4{fill:#0092CC;enable-background:new    ;}
	.st5{fill:#FFFFFF;enable-background:new    ;}
	.st6{fill:#BEA481;enable-background:new    ;}
</style>
<g>
	<path class="st0" d="M8,5.1H6.1v1.7H8V5.1L8,5.1z"/>
	<path class="st0" d="M12.3,5.3h1.8v1.3h-1.8V5.3L12.3,5.3z"/>
	<path class="st0" d="M8.9,5.2h2.5v0.7H8.9V5.2L8.9,5.2z"/>
	<g>
		<path class="st1" d="M12.4,2.3c2.2,0.3,4.1,2.6,4.1,5.4c0,1.4-0.3,2.6-1,3.6c0,0,0,0.1,0,0.1c0,0.1,0,0.1,0.1,0.1
			c0.1,0.1,0.3,0.2,0.4,0.3l0,0v0l0,0c0.1,0,0.1,0.2,0.1,0.3c0,0.1,0,0.1,0,0.2l0,0h0l0,0c0,0,0,0,0,0c-0.1,0.2-0.2,0.3-0.3,0.4l0,0
			h0l0,0c0,0,0,0,0,0c0,0,0,0,0,0c0,0-0.1,0-0.2,0c0,0-0.1,0-0.1,0c0,0-0.1,0-0.2,0c-0.1,0-0.1-0.1-0.2-0.1c0,0,0,0,0,0c0,0,0,0,0,0
			c0,0,0,0,0,0c-0.1-0.1-0.3-0.2-0.4-0.3l0,0v-0.2l0,0c0.1-0.3,0.2-0.6,0.3-1l0,0h0l0,0c0.2-0.5,0.3-1.2,0.3-1.9
			c0.1-1.7-0.5-3.2-1.1-3.2c-0.1,0-0.2,0-0.2,0.1c-0.1-0.1-0.3-0.2-0.4-0.3c-0.5-0.4-1-0.5-1.1-0.4c0,0,0,0,0,0
			c-0.1,0.1-0.1,0.1-0.2,0.3c-0.3-0.1-0.6-0.1-0.9-0.1c-0.1,0-0.1,0-0.2,0c0,0,0,0,0,0.1c0-0.2-0.1-0.3-0.3-0.3c0,0,0,0,0,0l0,0
			h-0.8H9.2l0,0c0,0,0,0,0,0C9.1,5.3,9,5.4,9,5.6c0,0,0,0,0-0.1c0,0-0.1,0-0.2,0c-0.3,0-0.6,0.1-0.9,0.1c0-0.1-0.1-0.2-0.2-0.3
			c0,0,0,0,0,0C7.6,5.3,7.2,5.5,6.7,5.8C6.5,5.9,6.4,6,6.3,6.1C6.2,6.1,6.1,6.1,6,6.1c-0.7,0-1.2,1.4-1.1,3.2c0,0.7,0.1,1.4,0.3,1.9
			l0,0h0l0,0c0.1,0.3,0.2,0.6,0.3,1l0,0v0.2l0,0c-0.2,0.1-0.3,0.2-0.5,0.3c0,0,0,0,0,0c0,0,0,0,0,0c0,0,0,0,0,0c0,0-0.1,0.1-0.2,0.1
			c-0.1,0-0.1,0-0.2,0c0,0-0.1,0-0.1,0c-0.1,0-0.2,0-0.2,0c0,0,0,0,0,0c0,0,0,0,0,0l0,0h0l0,0c-0.1-0.1-0.2-0.2-0.3-0.4c0,0,0,0,0,0
			l0,0h0l0,0c0-0.1,0-0.1,0-0.2c0-0.1,0-0.3,0.1-0.3l0,0v0l0,0c0.1-0.1,0.3-0.2,0.4-0.3c0.1,0,0.1-0.1,0.1-0.1c0,0,0-0.1,0-0.1
			c-0.7-0.9-1-2.2-1-3.6c0.1-2.8,1.9-5.1,4.1-5.4c0,0.1,0,0.1,0,0.2c0,0.5,0.4,1,0.9,1.1c0,0,0.1,0,0.1,0c0.2,0,0.3,0,0.4,0
			c0.1,0,0.1-0.2,0.1-0.4c0-0.2-0.1-0.4-0.2-0.4c0,0,0,0,0,0C9,2.7,8.9,2.6,8.9,2.5C8.9,2.2,9.1,2,9.4,2c0.1,0,0.2,0.1,0.3,0.2
			c0.1,0.1,0.2,0.2,0.4,0.2c0.2,0,0.3-0.1,0.4-0.2C10.6,2.1,10.7,2,10.8,2c0.2,0,0.4,0.2,0.4,0.5c0,0.1,0,0.2-0.1,0.3c0,0,0,0,0,0
			C11,2.8,11,3,11,3.2c0,0.2,0,0.4,0.1,0.4c0.1,0,0.2,0.1,0.4,0c0,0,0.1,0,0.1,0c0.5-0.1,0.9-0.5,0.9-1.1
			C12.4,2.5,12.4,2.4,12.4,2.3L12.4,2.3z"/>
		<path class="st2" d="M10.5,2.2c-0.1,0.1-0.2,0.2-0.4,0.2c-0.2,0-0.3-0.1-0.4-0.2C9.6,2.1,9.5,2,9.4,2C9.1,2,8.9,2.2,8.9,2.5
			c0,0.1,0,0.2,0.1,0.3c0,0,0,0,0,0c0.1,0,0.2,0.2,0.2,0.4c0,0.2-0.1,0.4-0.1,0.4c-0.1,0-0.2,0.1-0.4,0l-0.1,0
			c-0.5-0.1-0.9-0.5-0.9-1c0-0.1,0-0.1,0-0.2l0,0C6.7,2.5,5.6,3.1,4.9,4.1c-0.8,1-1.2,2.3-1.3,3.6c0,1.3,0.3,2.6,1,3.6
			c0,0,0,0.1,0,0.1c0,0.1,0,0.1-0.1,0.1c-0.1,0.1-0.3,0.2-0.4,0.3c-0.1,0.1-0.1,0.2-0.1,0.3c0,0.1,0,0.1,0,0.2c0,0,0,0,0,0
			c0.1,0.2,0.2,0.3,0.3,0.4c0,0,0,0,0,0c0,0,0.1,0,0.2,0l0.1,0c0,0,0.1,0,0.2,0c0.1,0,0.1-0.1,0.2-0.1c0,0,0,0,0,0
			c0.1-0.1,0.3-0.2,0.4-0.3l0,0v-0.2c-0.1-0.3-0.2-0.6-0.3-1l0,0c0,0,0,0,0,0C5,10.6,4.9,9.9,4.9,9.3c0-0.1,0-0.2,0-0.2
			c0-1.2,0.3-2.3,0.7-2.7C5.7,6.2,5.9,6.1,6,6.1c0.1,0,0.2,0,0.2,0.1l0,0l0,0C6.4,6,6.5,5.9,6.7,5.8c0.5-0.4,1-0.5,1-0.4l0,0
			c0.1,0,0.1,0.1,0.1,0.3l0,0l0,0c0.3-0.1,0.6-0.1,0.9-0.1c0,0,0.1,0,0.1,0c0,0,0,0,0,0l0,0c0-0.2,0.1-0.3,0.2-0.3l0,0l1.7,0
			c0,0,0,0,0,0c0.1,0,0.2,0.1,0.2,0.3l0,0c0,0,0,0,0,0c0,0,0.1,0,0.1,0c0.3,0,0.6,0.1,0.9,0.1l0,0l0,0c0-0.1,0.1-0.2,0.1-0.3l0,0
			l0,0c0.1-0.1,0.5,0.1,1,0.4c0.1,0.1,0.3,0.2,0.4,0.3l0,0l0,0c0.1,0,0.2-0.1,0.2-0.1c0.1,0,0.3,0.1,0.4,0.2C15,6.7,15.3,7.8,15.3,9
			c0,0.1,0,0.2,0,0.2c0,0.7-0.1,1.3-0.3,1.9c0,0,0,0,0,0l0,0c-0.1,0.3-0.2,0.6-0.3,1l0,0.2l0,0c0.2,0.1,0.3,0.2,0.4,0.3c0,0,0,0,0,0
			c0,0,0.1,0.1,0.2,0.1c0.1,0,0.1,0,0.2,0l0.1,0c0.1,0,0.2,0,0.2,0c0,0,0,0,0,0c0.1-0.1,0.2-0.3,0.3-0.4l0,0c0-0.1,0-0.1,0-0.2
			c0-0.1,0-0.3-0.1-0.3c-0.1-0.1-0.3-0.2-0.4-0.3c-0.1,0-0.1-0.1-0.1-0.1c0,0,0-0.1,0-0.1c0.7-1,1-2.3,1-3.6c0-1.3-0.5-2.6-1.3-3.6
			c-0.8-1-1.8-1.6-2.9-1.7l0,0c0,0.1,0,0.1,0,0.2c0,0.5-0.4,1-0.9,1c0,0-0.1,0-0.1,0c-0.2,0-0.3,0-0.4,0C11,3.5,11,3.4,11,3.2
			c0-0.2,0.1-0.4,0.2-0.4c0,0,0,0,0,0c0.1-0.1,0.1-0.2,0.1-0.3c0-0.3-0.2-0.5-0.4-0.5C10.7,2,10.6,2.1,10.5,2.2z M10.5,2.2
			C10.6,2.1,10.7,2,10.8,2c0.2,0,0.4,0.2,0.4,0.4c0,0.1,0,0.2-0.1,0.3c0,0,0,0,0,0c-0.1,0-0.2,0.2-0.2,0.4c0,0,0,0,0,0
			c0,0.2,0.1,0.3,0.1,0.4c0.1,0,0.2,0.1,0.4,0c0,0,0.1,0,0.1,0c0.5-0.1,0.9-0.5,0.9-1.1c0-0.1,0-0.1,0-0.2c1.1,0.1,2.1,0.7,2.9,1.7
			c0.8,1,1.2,2.3,1.3,3.6c0,0.1,0,0.1,0,0.2c0,1.2-0.4,2.4-1,3.4c0,0,0,0.1,0,0.1c0,0.1,0,0.1,0.1,0.2c0.1,0.1,0.3,0.2,0.4,0.3
			c0.1,0,0.1,0.2,0.1,0.3c0,0.1,0,0.1,0,0.2c0,0,0,0,0,0c-0.1,0.2-0.1,0.3-0.3,0.4c0,0,0,0,0,0c0,0-0.1,0-0.2,0l-0.1,0
			c0,0-0.1,0-0.2,0c-0.1,0-0.1-0.1-0.2-0.1c0,0,0,0,0,0c-0.1-0.1-0.3-0.2-0.4-0.3c0,0,0-0.2,0-0.2c0.1-0.3,0.2-0.6,0.3-0.9
			c0,0,0,0,0,0l0,0c0.2-0.6,0.3-1.2,0.3-1.9c0-0.1,0-0.2,0-0.2c0-1.2-0.3-2.3-0.7-2.7c-0.1-0.1-0.3-0.2-0.5-0.2
			c-0.1,0-0.2,0-0.2,0.1c-0.1-0.1-0.3-0.2-0.4-0.3c-0.4-0.3-1-0.6-1.1-0.4c-0.1,0.1-0.1,0.1-0.2,0.3c-0.3-0.1-0.6-0.1-0.9-0.1
			l-0.2,0c0,0,0,0,0,0c0-0.1-0.1-0.2-0.3-0.2l0,0l-1.7,0c0,0,0,0,0,0C9.1,5.3,9,5.4,9,5.5c0,0,0,0,0,0l0,0l-0.2,0
			c-0.3,0-0.6,0.1-0.9,0.1c0-0.1-0.1-0.2-0.2-0.3C7.6,5.2,7.1,5.5,6.7,5.8C6.5,5.9,6.4,6,6.3,6.1C6.2,6.1,6.1,6.1,6,6.1
			c-0.2,0-0.3,0.1-0.5,0.2C5.1,6.8,4.8,8,4.9,9.3c0,0.7,0.1,1.4,0.3,1.9l0,0c0,0,0,0,0,0c0.1,0.3,0.2,0.6,0.3,0.9c0,0,0,0.2,0,0.2
			c-0.2,0.1-0.3,0.2-0.4,0.3c0,0,0,0,0,0c0,0-0.1,0.1-0.2,0.1c-0.1,0-0.1,0-0.2,0c0,0-0.1,0-0.1,0c-0.1,0-0.2,0-0.2,0l0,0
			c0,0,0,0,0,0c-0.1-0.1-0.2-0.2-0.3-0.4l0,0c0-0.1,0-0.1,0-0.2c0-0.1,0-0.2,0.1-0.3c0.1-0.1,0.3-0.2,0.4-0.3c0.1,0,0.1-0.1,0.1-0.2
			c0,0,0-0.1,0-0.1c-0.6-0.9-1-2.1-1-3.4c0-0.1,0-0.1,0-0.2c0-1.3,0.5-2.6,1.3-3.6c0.8-1,1.8-1.6,2.9-1.7c0,0.1,0,0.1,0,0.2l0,0
			c0,0.5,0.4,1,0.9,1.1l0.1,0c0.2,0,0.3,0,0.4,0c0.1,0,0.1-0.2,0.1-0.4c0-0.2-0.1-0.4-0.2-0.4c0,0,0,0,0,0C9,2.7,9,2.6,9,2.5
			C9,2.2,9.1,2,9.4,2c0.1,0,0.2,0.1,0.3,0.1c0.1,0.1,0.2,0.2,0.4,0.2C10.3,2.4,10.4,2.3,10.5,2.2z"/>
	</g>
	<g>
		<path class="st3" d="M11.2,5.7c0,0,0-0.1,0-0.2c0,0,0.1,0,0.2,0c0.9,0,1.6,0.3,2,0.8l0,0v0l0,0c0,0,0,0,0,0l0,0V14l0,0
			c-0.6,1.1-1.4,2-2.2,2.8l0,0V5.7L11.2,5.7z"/>
		<path class="st2" d="M11.2,5.5L11.2,5.5L11.2,5.5c-0.1,0.1-0.1,0.2-0.1,0.2l0,0v11.2l0.1,0c0.8-0.8,1.6-1.7,2.2-2.8l0,0V6.3l0,0
			c-0.4-0.5-1.2-0.8-2-0.8L11.2,5.5z M11.4,5.6c0.8,0,1.5,0.3,1.9,0.7c0,0,0,0,0,0c0,0,0,7.7,0,7.7c-0.6,1-1.3,1.9-2.1,2.7
			c0-0.3,0-11,0-11C11.3,5.7,11.3,5.6,11.4,5.6C11.3,5.6,11.4,5.6,11.4,5.6z"/>
	</g>
	<path class="st0" d="M14.4,3.8c0.8,0.9,1.3,2,1.4,3.3c-0.2-0.2-0.5-0.3-0.7-0.4c-0.1-1-0.4-1.9-0.9-2.7c-0.1-0.1-0.1-0.2,0-0.2
		C14.3,3.7,14.3,3.7,14.4,3.8L14.4,3.8z"/>
	<path class="st0" d="M13.5,3.5c0.4,0.3,0.8,1,0.9,1.8c0,0.3,0,0.5,0,0.7c-0.2-0.1-0.3-0.2-0.5-0.2c0-0.2,0-0.4,0-0.6
		c-0.1-0.6-0.3-1.1-0.5-1.5c0,0,0,0,0-0.1C13.3,3.5,13.4,3.5,13.5,3.5C13.5,3.5,13.5,3.5,13.5,3.5L13.5,3.5z"/>
	<path class="st0" d="M13,3.7c0.2,0,0.4,0.5,0.4,1.1c0,0.1,0,0.2,0,0.3c-0.1,0.1-0.2,0.2-0.4,0.2c-0.1,0-0.2,0-0.3-0.1
		c0,0,0-0.1,0-0.1c0.1-0.1,0.2-0.4,0.2-0.7c0-0.1,0-0.3,0-0.4C12.8,3.8,12.9,3.7,13,3.7L13,3.7z"/>
	<path class="st0" d="M10.6,3.9c0.3,0,0.5,0.3,0.5,0.6c0,0.3-0.2,0.6-0.5,0.6c0,0,0,0,0,0l0,0L10.6,3.9L10.6,3.9
		C10.6,3.9,10.6,3.9,10.6,3.9L10.6,3.9z"/>
	<path class="st0" d="M5.8,3.8c-0.8,0.9-1.3,2-1.4,3.3c0.2-0.2,0.5-0.3,0.7-0.4c0.1-1,0.4-1.9,0.9-2.7C6,3.8,6,3.7,6,3.7
		C5.9,3.7,5.9,3.7,5.8,3.8L5.8,3.8z"/>
	<path class="st0" d="M6.7,3.5c-0.4,0.3-0.8,1-0.9,1.8c0,0.3,0,0.5,0,0.7C6,5.9,6.1,5.8,6.3,5.8c0-0.2,0-0.4,0-0.6
		C6.4,4.5,6.6,4,6.9,3.7c0,0,0,0,0-0.1C6.9,3.5,6.8,3.5,6.7,3.5C6.7,3.5,6.7,3.5,6.7,3.5L6.7,3.5z"/>
	<path class="st0" d="M7.2,3.7C7,3.7,6.9,4.2,6.9,4.8c0,0.1,0,0.2,0,0.3C7,5.2,7.1,5.3,7.2,5.3c0.1,0,0.2,0,0.3-0.1c0,0,0-0.1,0-0.1
		C7.5,4.9,7.4,4.6,7.4,4.3c0-0.1,0-0.3,0-0.4C7.3,3.8,7.3,3.7,7.2,3.7L7.2,3.7z"/>
	<path class="st0" d="M9.6,3.9c-0.3,0-0.5,0.3-0.5,0.6c0,0.3,0.2,0.6,0.5,0.6c0,0,0,0,0,0l0,0L9.6,3.9L9.6,3.9
		C9.6,3.9,9.6,3.9,9.6,3.9L9.6,3.9z"/>
	<g>
		<path class="st4" d="M9,16.8V5.7l0,0c0,0,0.1,0.1,0.1,0.1c0.1,0,0.1-0.1,0.1-0.2c0,0,0,0,0,0l0,0h0.8h0h0.8l0,0c0,0,0,0,0,0
			c0,0.1,0.1,0.2,0.1,0.2c0,0,0.1,0,0.1-0.1l0,0v11.2l0,0c-0.4,0.3-0.7,0.6-1.1,0.9C9.7,17.5,9.4,17.2,9,16.8L9,16.8z"/>
		<path class="st2" d="M10.1,5.4H9.3L9.2,5.5l0,0c0,0.1,0,0.2-0.1,0.2c0,0,0,0,0,0L9,5.7v11.2l0,0c0.4,0.3,0.7,0.6,1.1,0.9l0,0l0,0
			c0.4-0.3,0.7-0.6,1.1-0.9l0,0V5.7l-0.1,0c0,0,0,0,0,0c0,0-0.1-0.1-0.1-0.2V5.5l-0.1,0H10.1z M10.1,5.6c0,0,0.7,0,0.8,0
			c0,0.1,0.1,0.2,0.2,0.2c0,0,0,0,0,0c0,0.2,0,11,0,11c-0.3,0.3-0.7,0.6-1,0.9c-0.4-0.3-0.7-0.5-1-0.9c0-0.1,0-10.8,0-11
			c0,0,0,0,0,0c0.1,0,0.2-0.1,0.2-0.2C9.4,5.6,10.1,5.6,10.1,5.6z"/>
	</g>
	<g>
		<path class="st4" d="M13.4,6.3c0.1,0.1,0.1,0.1,0.2,0.2c0,0.1-0.1,0.2-0.1,0.3c0,0.1,0,0.2,0,0.2c0,0.1,0,0.1,0.1,0.2v0
			c0,0,0,0,0,0c0,0,0,0,0,0c0.1,0.1,0.2,0.1,0.3,0.1c0.2,0,0.3-0.1,0.3-0.3c0-0.1-0.1-0.2-0.2-0.2l0,0v0l0,0c0,0-0.1-0.1-0.1-0.1
			c0-0.1,0-0.1,0.1-0.1l0,0v0l0,0c0,0,0.1,0,0.1,0c0.5,0,0.8,1.2,0.8,2.8c0,0.9-0.2,1.7-0.4,2.2c-0.3,0.9-0.7,1.8-1.2,2.5l0,0V6.3
			L13.4,6.3z"/>
		<path class="st2" d="M13.3,6.3V14l0.1,0c0.5-0.8,0.9-1.6,1.2-2.5C14.8,11,15,10.2,15,9.3C15,8,14.8,7,14.4,6.6
			c-0.1-0.1-0.2-0.1-0.3-0.1c-0.1,0-0.1,0-0.2,0c-0.1,0-0.1,0.1-0.1,0.2c0,0.1,0,0.2,0.1,0.2c0.1,0,0.2,0.1,0.2,0.2
			c0,0.1-0.1,0.2-0.3,0.2c-0.1,0-0.2,0-0.2-0.1l0,0c0,0-0.1-0.1-0.1-0.1l0,0l0,0c0-0.1,0-0.1,0-0.2c0-0.1,0-0.2,0.1-0.3l0,0l0,0
			c-0.1-0.1-0.1-0.2-0.2-0.2L13.3,6.3z M13.4,6.5C13.4,6.5,13.4,6.5,13.4,6.5c0,0.1,0,0.2,0,0.2C13.4,6.7,13.4,6.5,13.4,6.5z
			 M14.2,7.1c0-0.1-0.1-0.2-0.2-0.3c0,0,0,0,0-0.1c0,0,0-0.1,0-0.1c0,0,0.1,0,0.1,0c0.1,0,0.1,0,0.2,0.1C14.7,7,14.9,8,14.9,9
			c0,0.1,0,0.2,0,0.2c0,0.9-0.2,1.7-0.4,2.2c-0.3,0.8-0.6,1.6-1.1,2.3c0-0.4,0-5.6,0-6.8c0,0,0,0.1,0,0.1l0,0c0,0.1,0,0.1,0.1,0.2
			c0,0,0,0,0,0c0.1,0.1,0.2,0.1,0.3,0.1C14.1,7.4,14.2,7.3,14.2,7.1z"/>
	</g>
	<g>
		<path class="st4" d="M6.7,6.5c0-0.1,0.1-0.2,0.2-0.2l0,0V14l0,0c-0.4-0.8-0.8-1.6-1.2-2.5C5.4,11,5.3,10.2,5.3,9.3
			c0-1.5,0.3-2.8,0.8-2.8c0,0,0.1,0,0.1,0l0,0v0l0,0c0,0,0.1,0.1,0.1,0.1c0,0.1,0,0.1-0.1,0.1l0,0v0l0,0C6.1,6.9,6,7,6,7.1
			c0,0.2,0.2,0.3,0.3,0.3c0.1,0,0.2,0,0.3-0.1c0,0,0,0,0,0c0,0,0,0,0,0v0c0,0,0.1-0.1,0.1-0.2c0-0.1,0-0.1,0-0.2
			C6.7,6.7,6.7,6.6,6.7,6.5L6.7,6.5z"/>
		<path class="st2" d="M6.6,6.5L6.6,6.5L6.6,6.5c0,0.1,0.1,0.2,0.1,0.4c0,0.1,0,0.1,0,0.2l0,0l0,0c0,0,0,0.1-0.1,0.1l0,0
			C6.5,7.3,6.4,7.3,6.4,7.3c-0.2,0-0.3-0.1-0.3-0.2c0-0.1,0.1-0.2,0.1-0.2c0.1,0,0.1-0.1,0.1-0.2c0-0.1,0-0.2-0.1-0.2
			c-0.1,0-0.1,0-0.2,0c-0.1,0-0.2,0-0.3,0.1C5.4,7,5.2,8,5.2,9.3c0,0.9,0.2,1.7,0.4,2.2c0.3,0.9,0.7,1.7,1.2,2.5l0.1,0V6.3l-0.1,0
			C6.7,6.3,6.7,6.4,6.6,6.5z M5.7,11.5C5.5,11,5.3,10.1,5.3,9.3c0-0.1,0-0.2,0-0.2c0-1.1,0.2-2,0.5-2.4C5.9,6.6,6,6.6,6,6.6
			c0,0,0.1,0,0.1,0c0,0,0,0,0,0.1c0,0,0,0.1,0,0.1C6,6.8,6,7,6,7.1c0,0.2,0.2,0.3,0.4,0.3c0.1,0,0.2,0,0.3-0.1c0,0,0,0,0,0
			c0.1-0.1,0.1-0.1,0.1-0.2l0,0c0,0,0-0.1,0-0.1c0,1.1,0,6.4,0,6.8C6.4,13.1,6,12.3,5.7,11.5z M6.8,6.5c0,0,0,0.2,0,0.2
			C6.8,6.6,6.8,6.6,6.8,6.5C6.7,6.5,6.8,6.5,6.8,6.5z"/>
	</g>
	<g>
		<path class="st3" d="M6.8,14V6.3l0,0c0,0,0,0,0,0l0,0v0l0,0c0.4-0.4,1.1-0.7,2-0.8c0.1,0,0.1,0,0.2,0c0,0.1,0,0.1,0,0.2l0,0v11.2
			l0,0C8.2,16.1,7.5,15.1,6.8,14L6.8,14z"/>
		<path class="st2" d="M6.8,6.2C6.8,6.2,6.8,6.3,6.8,6.2L6.8,6.2L6.8,6.2l0,7.8l0,0c0.6,1.1,1.4,2,2.2,2.8l0.1,0V5.7l0,0
			c0,0,0-0.1,0-0.1l0-0.1l-0.2,0C8,5.5,7.2,5.8,6.8,6.2z M6.9,6.3C7.3,5.9,8,5.6,8.8,5.6c0,0,0.1,0,0.1,0c0,0,0,0.1,0,0.1
			c0,0,0,10.7,0,11C8.2,15.9,7.5,15,6.9,14C6.9,14,6.9,6.4,6.9,6.3L6.9,6.3z"/>
	</g>
	<g>
		<path class="st5" d="M5.3,10.2l9.4-2.8l0,0c0.1,0.5,0.2,1.1,0.2,1.8l0,0l-9.1,2.7l0,0c-0.1-0.1-0.1-0.3-0.2-0.4
			C5.5,11.2,5.4,10.7,5.3,10.2L5.3,10.2z"/>
		<path class="st2" d="M5.3,10.2L5.3,10.2L5.3,10.2c0,0.6,0.1,1,0.3,1.4c0,0,0.2,0.4,0.2,0.4l0,0.1l0.1,0L15,9.3l0,0
			c0-0.7,0-1.3-0.2-1.8l-0.1,0L5.3,10.2z M14.7,7.5c0.1,0.4,0.2,1,0.2,1.5c0,0.1,0,0.1,0,0.2c-0.1,0-8.9,2.6-9,2.7
			c0-0.1-0.1-0.4-0.1-0.4c-0.1-0.3-0.2-0.7-0.3-1.2C5.5,10.2,14.6,7.5,14.7,7.5z"/>
	</g>
	<g>
		<path class="st6" d="M10.7,13.7c0.6,0.4,0.8,1.1,0.5,1.7c-0.4,0.6-1.1,0.8-1.7,0.5c-0.6-0.4-0.8-1.1-0.5-1.7
			C9.3,13.6,10.1,13.4,10.7,13.7L10.7,13.7z"/>
		<path class="st2" d="M9.8,13.6c-0.3,0.1-0.6,0.3-0.8,0.6c-0.2,0.3-0.2,0.7-0.1,1c0.1,0.3,0.3,0.6,0.6,0.8c0.3,0.2,0.7,0.2,1,0.1
			c0.3-0.1,0.6-0.3,0.8-0.6c0.4-0.6,0.1-1.4-0.5-1.8l0,0C10.4,13.5,10.1,13.5,9.8,13.6z M9.5,15.9c-0.3-0.2-0.5-0.4-0.6-0.8
			c-0.1-0.3,0-0.7,0.1-0.9c0.2-0.3,0.4-0.5,0.7-0.6c0.3-0.1,0.7,0,0.9,0.1l0,0c0.6,0.3,0.8,1.1,0.5,1.7c-0.2,0.3-0.4,0.5-0.8,0.6
			C10.1,16.1,9.8,16.1,9.5,15.9z"/>
	</g>
	<g>
		<path class="st2" d="M10.7,15L10.7,15C10.7,15,10.7,15.1,10.7,15C10.7,15.1,10.7,15.1,10.7,15C10.7,15.1,10.7,15.1,10.7,15l0,0.2
			c0,0,0,0,0,0c0,0,0,0,0,0c-0.1,0.3-0.5,0.6-1,0.5c-0.1,0-0.3,0-0.4-0.1l0,0.1c0.1,0.1,0.2,0.1,0.3,0.2c0.6,0.4,1.4,0.1,1.8-0.5
			c0,0,0,0,0,0s0,0,0,0l0,0l0.1-0.2l0,0c0-0.1-0.1-0.2-0.2-0.2C11,15,10.8,15,10.7,15z M11.1,15.1c0.1,0,0.1,0.1,0.2,0.2
			c0,0-0.1,0.1-0.1,0.1s0.1,0,0.1,0c0,0-0.1,0-0.1,0l0,0c-0.3,0.6-1.1,0.8-1.7,0.4c0,0-0.1-0.1-0.1-0.1c0.1,0,0.2,0,0.3,0
			c0.5,0,1-0.2,1.1-0.6c0,0,0,0,0,0c0,0,0,0,0,0c0,0,0-0.1,0-0.1c0,0,0,0,0,0C10.8,15,10.9,15,11.1,15.1z"/>
	</g>
	<g>
		<path class="st2" d="M10,14.2c-0.1,0-0.1,0.1-0.1,0.1c0,0.1,0,0.1,0,0.2c0,0.1,0.1,0.2,0.2,0.3c0.1,0,0.2,0.1,0.2,0.1l0,0
			c0,0,0,0,0,0c0,0,0,0,0.1,0c0,0,0.1,0,0.1,0c0.1,0.1,0.2,0.2,0.2,0.2l0.1,0c0.1,0,0.2,0,0.3,0c0.1,0,0.2,0.1,0.2,0.2l0.1,0
			c0-0.1,0.1-0.2,0.1-0.2l0,0v0c0-0.3-0.2-0.5-0.5-0.7C10.6,14.1,10.2,14,10,14.2z M10.1,14.7c-0.1-0.1-0.2-0.2-0.2-0.3
			c0,0,0,0,0-0.1c0,0,0-0.1,0-0.1c0,0,0.1-0.1,0.1-0.1c0.2-0.1,0.6-0.1,0.9,0.2c0.3,0.2,0.4,0.4,0.4,0.7c0,0.1,0,0.1,0,0.1
			c0-0.1-0.1-0.1-0.2-0.1C11,15,10.8,15,10.7,15c0-0.1-0.1-0.2-0.2-0.2c0,0-0.1,0-0.1,0c-0.1,0-0.1,0-0.2,0c0,0,0,0,0,0
			C10.2,14.8,10.2,14.8,10.1,14.7z"/>
	</g>
	<g>
		<path class="st2" d="M9.5,13.7L9.5,13.7L9.5,13.7c-0.2,0.2-0.2,0.5-0.2,0.8c0,0.4,0.2,0.7,0.4,0.7l0,0l0,0l0,0c0,0,0,0,0,0l0,0
			c0.1,0,0.1,0,0.2-0.1c0,0,0,0,0,0l0,0l0.1-0.1c0.1-0.1,0.1-0.1,0.1-0.2c0,0,0,0,0,0s0,0,0,0c0,0,0,0,0,0l-0.1-0.1c0,0,0,0,0,0
			c-0.1,0-0.1,0-0.2-0.1c-0.1-0.1-0.2-0.2-0.2-0.3c0,0,0,0,0-0.1c0,0,0-0.1,0-0.1c0,0,0,0,0.1-0.1l0-0.1l0,0c0,0,0-0.1-0.1-0.1
			c0,0,0-0.1,0-0.1c0,0,0,0,0,0c0,0,0-0.1,0-0.1c0,0,0,0,0,0c0,0,0,0,0,0c0,0,0-0.1,0-0.1c0,0,0,0,0,0c0,0,0,0,0,0
			c0,0,0.1-0.1,0.1-0.1l0-0.1C9.8,13.5,9.7,13.6,9.5,13.7z M9.9,13.6C9.9,13.6,9.9,13.7,9.9,13.6L9.9,13.6l-0.1,0.1c0,0,0,0.1,0,0.1
			l0,0l0,0c0,0,0,0,0,0c0,0,0,0,0,0c0,0,0,0.1,0,0.1c0,0,0,0,0,0c0,0,0,0.1,0,0.1c0,0.1,0,0.1,0.1,0.1c0,0,0,0,0,0c0,0,0,0,0,0.1
			c0,0,0,0.1,0,0.1c0,0,0,0.1,0,0.1c0,0.1,0.1,0.2,0.2,0.3c0.1,0,0.1,0.1,0.2,0.1c0,0-0.1,0.1-0.1,0.1L10,15.1c0,0,0,0,0,0
			c-0.1,0-0.1,0.1-0.2,0.1c0,0,0,0,0,0l0,0c-0.2-0.1-0.3-0.3-0.4-0.7c0-0.1,0-0.1,0-0.2c0-0.2,0-0.4,0.1-0.5c0,0,0,0,0-0.1
			C9.7,13.7,9.8,13.6,9.9,13.6z"/>
	</g>
	<g>
		<path class="st2" d="M9,14.2c-0.1,0.2-0.2,0.4-0.2,0.7l0,0c0,0.2,0.1,0.3,0.1,0.4l0,0.1c0,0,0.1,0.1,0.1,0.1
			c0.2,0.1,0.5,0,0.7-0.2l0,0l0,0c-0.2-0.1-0.3-0.4-0.3-0.6c0-0.3,0-0.6,0.1-0.7l0-0.1l0-0.1C9.3,13.8,9.1,13.9,9,14.2z M8.9,14.8
			c0-0.2,0.1-0.4,0.2-0.6c0.1-0.2,0.2-0.3,0.4-0.4c-0.1,0.1-0.1,0.3-0.1,0.5c0,0.1,0,0.1,0,0.2c0,0.3,0.2,0.5,0.3,0.7
			c-0.1,0.2-0.4,0.3-0.6,0.2L9,15.3c0,0,0,0,0,0C8.9,15.1,8.9,15,8.9,14.8C8.9,14.9,8.9,14.8,8.9,14.8z"/>
	</g>
	<g>
		<path class="st5" d="M10.1,18.3L10.1,18.3L10.1,18.3c-2.1-1.4-3.9-3.9-4.9-7.1l0,0h0l0,0C5,10.6,4.9,10,4.9,9.3
			C4.8,7.5,5.3,6.1,6,6.1c0.2,0,0.4,0.2,0.6,0.4l0,0v0l0,0c0.1,0.1,0.1,0.2,0.1,0.4c0,0.1,0,0.2,0,0.2c0,0.1,0,0.1-0.1,0.2v0
			c0,0,0,0,0,0c0,0,0,0,0,0C6.6,7.3,6.5,7.4,6.4,7.4C6.2,7.4,6,7.2,6,7.1C6,7,6.1,6.9,6.2,6.8l0,0v0l0,0c0,0,0.1-0.1,0.1-0.1
			c0-0.1,0-0.1-0.1-0.1l0,0v0l0,0c0,0-0.1,0-0.1,0c-0.5,0-0.8,1.2-0.8,2.8c0,0.9,0.2,1.7,0.4,2.2c1,2.7,2.6,4.9,4.4,6.3
			c1.8-1.3,3.5-3.5,4.4-6.3c0.2-0.5,0.4-1.3,0.4-2.2c0-1.5-0.3-2.8-0.8-2.8c0,0-0.1,0-0.1,0l0,0v0l0,0c0,0-0.1,0.1-0.1,0.1
			c0,0.1,0,0.1,0.1,0.1l0,0v0l0,0c0.1,0,0.2,0.1,0.2,0.2c0,0.2-0.2,0.3-0.3,0.3c-0.1,0-0.2,0-0.3-0.1c0,0,0,0,0,0c0,0,0,0,0,0v0
			c0,0-0.1-0.1-0.1-0.2c0-0.1,0-0.1,0-0.2c0-0.2,0-0.3,0.1-0.4l0,0v0l0,0c0.2-0.3,0.4-0.4,0.6-0.4c0.7,0,1.2,1.4,1.1,3.2
			c0,0.7-0.1,1.4-0.3,1.9l0,0h0l0,0C14,14.3,12.2,16.9,10.1,18.3L10.1,18.3L10.1,18.3L10.1,18.3C10.1,18.3,10.1,18.3,10.1,18.3
			C10.1,18.3,10.1,18.3,10.1,18.3L10.1,18.3z"/>
		<path class="st2" d="M13.5,6.5c-0.1,0.1-0.1,0.2-0.1,0.4c0,0.1,0,0.2,0,0.2l0,0c0,0.1,0,0.1,0.1,0.2c0,0,0,0,0,0
			c0.1,0.1,0.2,0.1,0.3,0.1c0.2,0,0.4-0.2,0.4-0.3c0-0.1-0.1-0.2-0.2-0.3c0,0,0,0,0-0.1c0,0,0-0.1,0-0.1c0,0,0.1,0,0.1,0
			c0.1,0,0.1,0,0.2,0.1C14.7,7,14.9,8,14.9,9c0,0.1,0,0.2,0,0.2c0,0.9-0.2,1.7-0.4,2.2c-0.9,2.6-2.5,4.8-4.4,6.2
			c-1.9-1.4-3.4-3.6-4.4-6.2C5.5,11,5.3,10.1,5.3,9.3c0-0.1,0-0.2,0-0.2c0-1.1,0.2-2,0.5-2.4C5.9,6.6,6,6.6,6,6.6c0,0,0.1,0,0.1,0
			c0,0,0,0,0,0.1c0,0,0,0.1,0,0.1C6,6.8,6,7,6,7.1c0,0.2,0.2,0.3,0.4,0.3c0.1,0,0.2,0,0.3-0.1c0,0,0,0,0,0c0.1-0.1,0.1-0.1,0.1-0.2
			l0,0c0-0.1,0-0.2,0-0.2c0-0.2,0-0.3-0.1-0.4C6.5,6.2,6.3,6,6,6C5.9,6,5.7,6.1,5.5,6.3c-0.5,0.5-0.8,1.7-0.7,3
			c0,0.7,0.1,1.4,0.3,1.9l0,0c0,0,0,0,0,0c1,3.1,2.8,5.6,4.9,7.1l0,0l0,0c2.1-1.4,3.9-4,4.9-7.1c0,0,0,0,0,0l0,0
			c0.2-0.6,0.3-1.2,0.3-1.9c0-0.1,0-0.2,0-0.2c0-1.2-0.3-2.3-0.7-2.8C14.5,6.1,14.3,6,14.2,6C13.9,6,13.7,6.2,13.5,6.5z M13.6,7.2
			L13.6,7.2c0,0-0.1-0.1-0.1-0.1l0,0l0,0c0-0.1,0-0.1,0-0.2c0-0.1,0-0.3,0.1-0.3c0.2-0.3,0.4-0.4,0.6-0.4c0.1,0,0.3,0.1,0.4,0.2
			C15,6.8,15.3,7.8,15.3,9c0,0.1,0,0.2,0,0.2c0,0.7-0.1,1.3-0.3,1.8c0,0,0,0,0,0l0,0c-1,3-2.7,5.6-4.9,7c-2.1-1.4-3.9-4-4.9-7l0,0
			c0,0,0,0,0,0C5.1,10.6,5,9.9,4.9,9.3c0-0.1,0-0.2,0-0.2c0-1.2,0.3-2.3,0.7-2.7C5.7,6.2,5.9,6.1,6,6.1c0.2,0,0.4,0.1,0.6,0.4
			c0.1,0.1,0.1,0.2,0.1,0.3c0,0.1,0,0.1,0,0.2l0,0l0,0c0,0,0,0.1-0.1,0.1l0,0C6.5,7.3,6.4,7.3,6.4,7.3c-0.2,0-0.3-0.1-0.3-0.2
			c0-0.1,0.1-0.2,0.1-0.2c0.1,0,0.1-0.1,0.1-0.2c0-0.1,0-0.2-0.1-0.2c-0.1,0-0.1,0-0.2,0c-0.1,0-0.2,0-0.3,0.1C5.4,7,5.2,8,5.2,9.3
			c0,0.9,0.2,1.7,0.4,2.2c1,2.7,2.5,4.9,4.4,6.3l0,0l0,0c1.9-1.4,3.5-3.6,4.4-6.3C14.8,11,15,10.2,15,9.3C15,8,14.8,7,14.4,6.6
			c-0.1-0.1-0.2-0.1-0.3-0.1c-0.1,0-0.1,0-0.2,0c-0.1,0-0.1,0.1-0.1,0.2c0,0.1,0,0.2,0.1,0.2c0.1,0,0.2,0.1,0.2,0.2
			c0,0.1-0.1,0.2-0.3,0.2C13.7,7.3,13.7,7.3,13.6,7.2z"/>
	</g>
	<path class="st2" d="M6.5,11.4l-0.6,0.2l-0.4-1.2l0.3-0.1L6,11.2l0.4-0.1L6.5,11.4L6.5,11.4z M7.3,11.2l-0.7,0.2l-0.4-1.2L7,10
		L7,10.3l-0.4,0.1l0,0.2L7,10.5l0.1,0.3l-0.3,0.1L6.8,11l0.4-0.1L7.3,11.2L7.3,11.2z M7.7,11.1L7.1,10l0.3-0.1l0.4,0.8L7.6,9.8
		l0.3-0.1L8,11L7.7,11.1L7.7,11.1z M8.6,10.8l-0.3,0.1L8.3,9.6l0.3-0.1l0.6,1.1l-0.3,0.1l-0.1-0.2l-0.3,0.1L8.6,10.8L8.6,10.8z
		 M8.7,10.4L8.5,9.9l0,0.5L8.7,10.4L8.7,10.4z M9.6,10.5l-0.3,0.1L8.9,9.4l0.3-0.1l0.5,0.6L9.5,9.3l0.3-0.1l0.4,1.2l-0.3,0.1
		L9.4,9.9L9.6,10.5L9.6,10.5z M10,9.5L9.9,9.2l0.8-0.2l0.1,0.3l-0.2,0.1l0.3,0.9l-0.3,0.1l-0.3-0.9L10,9.5L10,9.5z M11.8,9.9
		l-0.7,0.2l-0.4-1.2l0.7-0.2L11.5,9l-0.4,0.1l0,0.2l0.3-0.1l0.1,0.3l-0.3,0.1l0.1,0.2l0.4-0.1L11.8,9.9L11.8,9.9z M12.2,9.2L12,8.5
		l0.3-0.1l0.2,0.7l0,0c0,0.1,0.1,0.1,0.1,0.2c0,0,0.1,0,0.1,0c0.1,0,0.1-0.1,0.1-0.2l0,0l-0.2-0.7l0.3-0.1L13,9l0,0
		c0,0.1,0,0.2,0,0.2c0,0.1,0,0.2-0.1,0.3c0,0.1-0.1,0.1-0.2,0.2c-0.1,0-0.2,0-0.3,0c-0.1,0-0.1-0.1-0.2-0.2
		C12.2,9.4,12.2,9.3,12.2,9.2L12.2,9.2z M13.3,9.5l-0.1-0.3L13.4,9l0.1,0.3L13.3,9.5L13.3,9.5z M14.1,9.2l-0.4,0.1l-0.4-1.2L13.7,8
		l0,0C13.9,8,14,8,14.2,8.2c0.1,0.1,0.1,0.2,0.2,0.3c0.1,0.2,0.1,0.3,0,0.4c0,0.1-0.1,0.2-0.1,0.2C14.2,9.2,14.1,9.2,14.1,9.2
		L14.1,9.2z M13.7,8.4L13.9,9l0.1,0l0,0c0.1,0,0.1-0.1,0.1-0.2c0-0.1,0-0.1,0-0.2c0-0.1-0.1-0.2-0.1-0.2c0,0,0,0-0.1,0
		C13.8,8.3,13.8,8.3,13.7,8.4L13.7,8.4L13.7,8.4L13.7,8.4z M14.6,9.1l-0.1-0.3l0.2-0.1L14.8,9L14.6,9.1L14.6,9.1z"/>
</g>
</svg>
