<?xml version="1.0" encoding="utf-8"?>
<!-- Generator: Adobe Illustrator 19.1.0, SVG Export Plug-In . SVG Version: 6.00 Build 0)  -->
<svg version="1.1" id="Layer_1" xmlns="http://www.w3.org/2000/svg" xmlns:xlink="http://www.w3.org/1999/xlink" x="0px" y="0px"
	 viewBox="0 0 400 400" enable-background="new 0 0 400 400" xml:space="preserve">
<g>
	<path d="M301.438,199.464v-5.132l5.133-1.021v5.132L301.438,199.464z M105.908,238.357v-31.4l5.393-1.073v26.704l8.48-1.687v4.697
		L105.908,238.357z M123.086,234.94v-31.4l14.439-2.873v4.697l-9.047,1.799v8.089l6.959-1.384v4.697l-6.959,1.384v9.22l9.655-1.92
		v4.696L123.086,234.94z M153.399,197.511l5.306-1.056l-6.567,32.706l-5.393,1.073l-6.567-30.094l5.306-1.056l3.914,21.01
		L153.399,197.511z M166.576,214.634l4.349-0.865l-2.131-13.058L166.576,214.634z M164.836,226.636l-5.219,1.038l5.784-32.551
		l6.698-1.332l5.784,30.249l-5.219,1.038l-0.957-6.767l-5.915,1.176L164.836,226.636z M181.015,223.417v-31.4l5.001-0.995
		l6.567,16.655l0.087-17.979l4.871-0.969v31.4l-4.697,0.935l-6.871-18.247l-0.087,19.631L181.015,223.417z M205.891,191.766
		l-5.218,1.038v-4.697l15.83-3.149v4.697l-5.219,1.038v26.703l-5.393,1.073V191.766z M219.678,215.727v-31.4l14.439-2.872v4.696
		l-9.047,1.799v8.09l6.959-1.384v4.697l-6.959,1.384v9.22l9.655-1.92v4.696L219.678,215.727z M248.641,178.566l5.393-1.073v23.703
		c0,2.29,0.957,3.245,2.871,2.865s2.87-1.716,2.87-4.007v-23.702l5.393-1.073v23.485c0,2.725-0.74,4.945-2.218,6.66
		c-1.45,1.709-3.465,2.82-6.045,3.333c-2.58,0.513-4.61,0.207-6.089-0.919c-1.449-1.132-2.174-3.062-2.174-5.787V178.566z
		 M270.039,205.709v-5.131l5.132-1.021v5.132L270.039,205.709z M285.434,198.212l1.87-0.372c1.45-0.288,2.45-0.806,3.001-1.554
		c0.58-0.753,0.87-1.956,0.87-3.609v-13.743c0-1.653-0.29-2.74-0.87-3.263c-0.551-0.528-1.551-0.648-3.001-0.36l-1.87,0.372V198.212
		z M280.041,172.32l8.002-1.592c2.813-0.559,4.93-0.212,6.35,1.042c1.45,1.249,2.174,3.496,2.174,6.743v12.439
		c0,3.247-0.724,5.783-2.174,7.608c-1.421,1.819-3.538,3.008-6.35,3.567l-8.002,1.592V172.32z"/>
	<path d="M165.844,25.906c0-17.359,0.033-17.365,17.365-17.365c6.471,0,12.115,3.539,15.102,8.788h4.682
		c2.988-5.249,8.632-8.788,15.103-8.788c17.333,0,17.365,0.006,17.365,17.365c0,9.111-7.017,16.583-15.941,17.308
		c-1.003,2.77-1.55,5.758-1.55,8.875c0,14.385,11.66,26.046,26.046,26.046c14.385,0,26.046-11.661,26.046-26.046
		c0-9.809-5.423-18.352-13.434-22.794l6.083-12.364c90.457,25.16,127.546,120.816,63.221,237.382
		c3.31,4.368,5.275,9.813,5.275,15.716c0,14.385-11.661,26.046-26.046,26.046c-1.94,0-3.829-0.212-5.647-0.614
		c-18.865,25.769-42.603,52.228-71.68,78.897c-25.347,23.249-29.081,23.195-54.31,0.061c-29.105-26.688-52.864-53.167-71.743-78.953
		c-1.81,0.398-3.692,0.608-5.622,0.608c-14.385,0-26.046-11.661-26.046-26.046c0-5.893,1.957-11.328,5.256-15.693
		C11.025,137.758,48.114,42.092,138.577,16.93l6.082,12.362c-8.012,4.442-13.435,12.985-13.435,22.795
		c0,14.385,11.661,26.046,26.046,26.046c14.385,0,26.046-11.661,26.046-26.046c0-3.117-0.548-6.106-1.552-8.877
		C172.85,42.477,165.844,35.01,165.844,25.906z M209.867,318.943c4.078-1.283,7.585-3.15,10.184-4.985
		C217.008,316.169,213.572,317.872,209.867,318.943z M220.051,313.958c0.954-0.693,1.87-1.437,2.744-2.226
		C222.054,312.439,221.13,313.196,220.051,313.958z"/>
	<path fill="#FFFFFF" d="M301.438,199.464l5.133-1.021v-5.132l-5.133,1.021V199.464z M105.908,238.357l13.873-2.759v-4.697
		l-8.48,1.687v-26.704l-5.393,1.073V238.357z M123.086,234.94l15.048-2.993v-4.696l-9.655,1.92v-9.22l6.959-1.384v-4.697
		l-6.959,1.384v-8.089l9.047-1.799v-4.697l-14.439,2.873V234.94z M153.399,197.511l-4.001,22.584l-3.914-21.01l-5.306,1.056
		l6.567,30.094l5.393-1.073l6.567-32.706L153.399,197.511z M164.836,226.636l0.957-7.149l5.915-1.176l0.957,6.767l5.219-1.038
		l-5.784-30.249l-6.698,1.332l-5.784,32.551L164.836,226.636z M181.015,223.417l4.871-0.969l0.087-19.631l6.871,18.247l4.697-0.935
		v-31.4l-4.871,0.969l-0.087,17.979l-6.567-16.655l-5.001,0.995V223.417z M205.891,191.766v26.703l5.393-1.073v-26.703l5.219-1.038
		v-4.697l-15.83,3.149v4.697L205.891,191.766z M219.678,215.727l15.047-2.993v-4.696l-9.655,1.92v-9.22l6.959-1.384v-4.697
		l-6.959,1.384v-8.09l9.047-1.799v-4.696l-14.439,2.872V215.727z M248.641,178.566v23.485c0,2.726,0.725,4.655,2.174,5.787
		c1.48,1.126,3.509,1.432,6.089,0.919c2.58-0.513,4.595-1.624,6.045-3.333c1.478-1.715,2.218-3.935,2.218-6.66v-23.485l-5.393,1.073
		v23.702c0,2.29-0.957,3.626-2.87,4.007s-2.871-0.574-2.871-2.865v-23.703L248.641,178.566z M270.039,205.709l5.132-1.021v-5.132
		l-5.132,1.021V205.709z M280.041,172.32v31.4l8.002-1.592c2.813-0.559,4.93-1.748,6.35-3.567c1.45-1.825,2.174-4.361,2.174-7.608
		v-12.439c0-3.247-0.724-5.494-2.174-6.743c-1.421-1.254-3.538-1.601-6.35-1.042L280.041,172.32z M323.259,159.37
		c1.129,12.697,0.273,26.49-2.839,41.165L96.406,245.094c-6.232-13.093-10.814-25.744-13.892-37.837L323.259,159.37z
		 M166.576,214.634l2.218-13.923l2.131,13.058L166.576,214.634z M285.434,198.212v-22.529l1.87-0.372
		c1.45-0.288,2.45-0.168,3.001,0.36c0.58,0.522,0.87,1.61,0.87,3.263v13.743c0,1.652-0.29,2.856-0.87,3.609
		c-0.551,0.747-1.551,1.265-3.001,1.554L285.434,198.212z"/>
	<path fill="#B50443" d="M277.138,291.251c-13.064,17.939-29.124,36.398-48.483,55.135v-35.311c5.461-6.409,8.757-14.719,8.757-23.8
		c0-9.081-3.297-17.391-8.757-23.8v-40.86l48.483-9.644V291.251z M228.655,130.02c2.15,0.737,4.454,1.136,6.855,1.136
		c2.3,0,4.477-0.466,6.666-1.012c2.693,6.269,8.307,10.992,15.114,12.467l19.848,3.947v18.157l-48.483,9.644V130.02z
		 M172.658,346.335c-19.366-18.749-35.428-37.218-48.492-55.167V243.4l48.492-9.646v29.82c-5.411,6.396-8.674,14.667-8.674,23.701
		c0,9.033,3.262,17.305,8.674,23.701V346.335z M124.167,146.692c11.466-2.289,19.909-4.081,19.909-4.081
		c6.81-1.476,12.426-6.203,15.118-12.476c2.196,0.551,4.38,1.02,6.688,1.02c2.369,0,4.651-0.391,6.777-1.109v55.452l-48.492,9.646
		V146.692z"/>
	<path fill-rule="evenodd" clip-rule="evenodd" fill="#D89D44" d="M230.147,302.094c-0.315-5.836-6.16-9.526-13.659-7.44
		c-0.067-6.74-7.678-10.244-15.382-8.698c-6.71-7.519-4.44-16.741,8.093-14.786c7.278,1.135,18.261,6.676,24.405,17.997
		C233.343,293.796,232.126,298.169,230.147,302.094z M173.231,305.498c5.168,2.503,11.174-0.708,13.11-8.142
		c5.878,3.352,12.74-1.489,15.26-8.949c9.87-2.055,16.725,4.523,8.764,14.4c-4.597,5.703-14.799,12.402-27.576,12.142
		C178.993,312.487,175.735,309.265,173.231,305.498z M181.539,260.453c-4.923,10.643-4.074,21.774-1.495,28.445
		c1.167,3.02,2.575,5.236,4.111,6.768c-1.883,9.993-11.564,11.738-15.33,0.03c-0.708-2.688-1.085-5.511-1.085-8.421
		C167.739,276.217,173.184,266.432,181.539,260.453z M198.786,254.371c-4.952,3.167-5.258,10.095,0.298,15.566
		c-5.81,3.425-5.044,11.77,0.146,17.672c-3.156,9.573-12.279,12.219-16.852,0.387c-2.653-6.863-3.347-19.126,3.361-30.098
		C189.694,255.881,194.109,254.638,198.786,254.371z M233.524,284.29c-6.755-9.635-16.853-14.488-23.939-15.593
		c-3.216-0.502-5.851-0.386-7.952,0.187c-7.911-6.797-4.205-16.36,8.582-13.069c3.892,1.002,10.268,4.298,15.474,9.969
		C230.046,270.847,232.892,277.249,233.524,284.29z M220.051,313.958c1.079-0.762,2.002-1.519,2.744-2.226
		C221.922,312.521,221.005,313.264,220.051,313.958z M209.867,318.943c-2.911,0.841-5.987,1.292-9.169,1.292
		c-4.862,0-9.477-1.052-13.631-2.942c11.614-1.094,20.775-7.368,25.246-12.915c2.045-2.538,3.263-4.88,3.817-6.988
		c9.859-3.478,16.31,4.518,7.056,13.955l-0.392,0.387c-0.742,0.707-1.665,1.464-2.744,2.226
		C217.008,316.169,213.572,317.872,209.867,318.943z M209.867,318.943c3.705-1.071,7.14-2.774,10.184-4.985
		C217.452,315.793,213.946,317.659,209.867,318.943z"/>
	<path fill="#0063AC" d="M176.413,259.741v-26.733l48.487-9.645v36.303c-6.462-5.669-14.93-9.106-24.201-9.106
		C191.387,250.561,182.885,254.027,176.413,259.741z M120.412,285.907c-8.915-12.748-16.314-25.218-22.311-37.321l22.311-4.438
		V285.907z M224.9,349.985c-2.198,2.086-4.436,4.173-6.717,6.265c-1.808,1.659-14.237,14.328-17.211,14.408
		c-3.193,0.086-15.961-12.73-17.791-14.408c-2.298-2.108-4.555-4.214-6.769-6.316V314.81c6.472,5.713,14.974,9.179,24.286,9.179
		c9.271,0,17.739-3.436,24.201-9.105V349.985z M319.519,204.542c-5.945,25.036-18.387,52.529-38.626,81.451v-73.768L319.519,204.542
		z M81.627,203.605c-4.656-20.106-5.113-38.609-2.049-54.977c2.896-15.474,10.881-23.062,16.615-23.062
		c2.741,0,4.963,2.222,4.963,4.963c0,2.701-2.182,4.962-5.106,4.961l-3.799-0.001l0.186,16.251
		c-0.024,0.073,5.483-0.017,11.333-1.105c5.71-1.062,11.409-2.164,16.642-3.198v48.453L81.627,203.605z M280.893,147.305
		l16.703,3.322c4.219,0.832,7.997,1.203,11.333,1.114l0.186-16.251l-3.799,0.001c-2.924,0.001-5.105-2.261-5.105-4.961
		c0-2.741,2.222-4.963,4.963-4.963c5.734,0,13.719,7.588,16.615,23.062c0.429,2.289,0.788,4.621,1.077,6.992l-41.972,8.349V147.305z
		 M176.413,128.351c1.942-1.117,3.685-2.53,5.174-4.181c5.167,4.304,11.825,6.9,19.106,6.913c7.268,0,13.936-2.599,19.111-6.912
		c1.468,1.626,3.189,3.026,5.096,4.135v46.801l-48.487,9.645V128.351z"/>
	<path fill="#A7A9AC" d="M272.988,30.945c48.695,18.85,78.212,62.479,74.855,121.212c-0.745-40.874-19.559-73.04-50.585-91.93
		l-2.176-1.264c-4.054,20.017-20.503,35.558-41.74,35.558c-12.586,0-23.55-5.218-31.019-13.45
		c5.995,4.445,13.418,7.075,21.455,7.075c19.914,0,36.058-16.143,36.058-36.058C279.836,44.186,277.292,36.881,272.988,30.945z
		 M128.06,30.945c-4.304,5.936-6.848,13.241-6.848,21.143c0,19.914,16.143,36.058,36.058,36.058c8.037,0,15.46-2.63,21.455-7.075
		c-7.469,8.231-18.432,13.45-31.018,13.45c-21.239,0-37.686-15.541-41.741-35.558l-2.176,1.264
		c-31.027,18.89-49.841,51.056-50.585,91.93C49.848,93.423,79.365,49.794,128.06,30.945z"/>
	<path fill="#F8C114" d="M200.697,127.328c-7.839-0.014-14.835-3.443-19.61-8.869c-2.971,5.334-8.667,8.942-15.206,8.942
		c-1.486,0-2.928-0.186-4.304-0.537c0.382-1.643,0.584-3.355,0.584-5.114c0-1.392-0.126-2.754-0.367-4.077
		c1.229,0.665,2.636,1.042,4.131,1.042c4.801,0,8.694-3.892,8.694-8.694l-0.019-5.876h8.965c1.392,8.205,8.533,14.452,17.133,14.452
		c8.601,0,15.743-6.247,17.134-14.452h8.964l-0.022,5.876c0,4.801,3.892,8.694,8.694,8.694c1.484,0,2.88-0.372,4.102-1.027
		c-0.239,1.318-0.364,2.675-0.364,4.062c0,1.761,0.203,3.475,0.586,5.12c-1.37,0.346-2.803,0.53-4.281,0.53
		c-6.539,0-12.234-3.608-15.206-8.942C215.519,123.897,208.509,127.328,200.697,127.328z M104.91,130.529
		c0-4.815-3.903-8.717-8.717-8.717c-8.712,0-17.354,10.356-20.305,26.126c-10.246,54.747,17.691,131.211,104.756,211.079
		c22.897,21.004,18.224,20.048,40.078,0c87.065-79.868,115.003-156.333,104.756-211.079c-2.952-15.77-11.594-26.126-20.305-26.126
		c-4.815,0-8.717,3.903-8.717,8.717c0,4.814,3.903,8.717,8.861,8.716l-0.1,8.741c-9.633,0-17.442-7.809-17.442-17.442
		c0-9.633,7.809-17.442,17.504-17.441c17.345,0.078,24.871,17.552,27.904,34.823c10.209,58.136-20.37,136.802-107.385,216.624
		c-26.856,24.637-23.376,24.634-50.23,0C88.553,284.728,57.974,206.062,68.183,147.926c3.032-17.271,10.559-34.745,27.904-34.823
		c9.695,0,17.504,7.808,17.504,17.441c0,9.633-7.809,17.442-17.442,17.442l-0.1-8.741
		C101.008,139.246,104.91,135.344,104.91,130.529z M137.757,104.351c0.547-0.124,1.156-0.186,1.812-0.186
		c9.712,0,17.586,7.873,17.586,17.586c0,8.427-5.929,15.468-13.843,17.184l-0.599,0.119l-29.287,5.824
		c3.23-3.888,5.172-8.884,5.172-14.334c0-8.694-4.942-16.233-12.17-19.962L137.757,104.351z M263.609,104.351l31.33,6.232
		c-7.227,3.729-12.17,11.268-12.17,19.962c0,5.45,1.942,10.446,5.172,14.334l-29.288-5.824l-0.598-0.119
		c-7.914-1.716-13.844-8.757-13.844-17.184c0-9.713,7.874-17.586,17.586-17.586C262.453,104.165,263.062,104.227,263.609,104.351z"
		/>
</g>
</svg>
