<?xml version="1.0" encoding="utf-8"?>
<!-- Generator: Adobe Illustrator 19.1.0, SVG Export Plug-In . SVG Version: 6.00 Build 0)  -->
<svg version="1.1" id="Layer_1" xmlns="http://www.w3.org/2000/svg" xmlns:xlink="http://www.w3.org/1999/xlink" x="0px" y="0px"
	 viewBox="0 0 400 400" enable-background="new 0 0 400 400" xml:space="preserve">
<g>
	<path fill-rule="evenodd" clip-rule="evenodd" fill="#2F2F7A" d="M275.695,215.262H249.99v-60.969h26.44
		c12.485,0,16.893,10.28,10.283,19.83l-2.938,4.41C305.076,188.816,297.728,215.262,275.695,215.262L275.695,215.262z
		 M272.758,181.469l5.143-8.077c0.735-1.47,1.467-2.938,1.467-4.408c0-3.672-3.672-6.61-7.347-6.61h-7.343v44.798h3.675
		c7.343,0,13.217-3.665,13.217-13.22C281.57,186.609,277.9,182.204,272.758,181.469L272.758,181.469z"/>
	<path fill-rule="evenodd" clip-rule="evenodd" fill="#2F2F7A" d="M224.285,215.262h-25.71v-60.969h26.44
		c12.488,0,16.895,10.28,10.286,19.83l-2.94,4.41C253.66,188.816,246.315,215.262,224.285,215.262L224.285,215.262z
		 M221.345,181.469l5.14-8.077c0.735-1.47,1.47-2.938,1.47-4.408c0-3.672-3.67-6.61-7.345-6.61h-7.342v44.798h3.667
		c7.35,0,13.222-3.665,13.222-13.22C230.157,186.609,226.485,182.204,221.345,181.469L221.345,181.469z"/>
	<path fill-rule="evenodd" clip-rule="evenodd" fill="#2F2F7A" d="M335.921,154.294h9.55l-18.366,60.969H312.42l-19.835-60.969
		h11.02c3.672,0,5.14,0.735,7.345,8.08l11.015,38.188L335.921,154.294L335.921,154.294z"/>
	<path fill-rule="evenodd" clip-rule="evenodd" fill="#2F2F7A" d="M376.316,160.169c-2.199-4.405-2.938-5.875-7.342-5.875h-11.753
		l-19.095,60.969h9.55l4.405-13.223h22.036l3.669,13.223h16.89L376.316,160.169z M354.283,193.218l8.812-27.907l8.081,27.907
		H354.283z"/>
</g>
<path fill-rule="evenodd" clip-rule="evenodd" fill="#2F2F7A" d="M183.944,170.729v44.782H171.57v-9.428h-13.552l-5.745,9.428
	h-13.847l23.717-39.184c0,0,2.504-5.303,10.164-5.598H183.944z M172.012,181.188l-9.575,16.646h9.575V181.188z"/>
<path fill-rule="evenodd" clip-rule="evenodd" fill="#2F2F7A" d="M148.242,170.26h-26.194c0,0-9.173-0.204-14.575,11.313
	c0,0-5.881,14.365-6.207,23.949c-0.005,0.138-0.008,0.275-0.01,0.411c-0.166,9.579,11.008,11.007,19.977,10.702
	c0,0,11.721-0.106,15.39-1.123l6.727-20.484h-13.657l-3.058,10.498c0,0-11.517,1.325-10.804-3.771c0,0,2.446-19.875,10.294-20.792
	h18.957L148.242,170.26z"/>
<polygon fill-rule="evenodd" clip-rule="evenodd" fill="#2F2F7A" points="94.225,170.729 107.333,170.729 93.696,215.512 
	80.588,215.512 "/>
<path fill-rule="evenodd" clip-rule="evenodd" fill="#2F2F7A" d="M75.888,215.027c0,0-13.744,3.004-27.033,0
	c0,0-8.556-3.187-5.552-13.836l9.102-30.462h13.289l-8.01,26.002c0,0-3.732,8.556,5.461,8.465c0,0,6.007,0.546,16.02-1.001
	L75.888,215.027z"/>
<path fill-rule="evenodd" clip-rule="evenodd" fill="#2F2F7A" d="M130.145,148.501c0,0,0.392,5.381-5.397,5.381
	c0,0-3.594,0.354-5.789-3.044c0,0-13.884-23.771-44.533-26.836c0,0-32.011-3.576-51.592,16.857c0,0,14.984-25.541,54.657-25.37
	C77.492,115.488,114.918,117.018,130.145,148.501z"/>
<path fill-rule="evenodd" clip-rule="evenodd" fill="#2F2F7A" d="M44.543,136.243c0,0-37.531,11.109-40.098,60.194
	c0,0,1.025,30.408,21.377,45.971c0,0-23.943-23.226-8.38-63.93c0,0,7.157-21.396,29.437-31.05c3.712-1.609,3.045-5.789,3.045-5.789
	S50.549,135.236,44.543,136.243z"/>
<path fill-rule="evenodd" clip-rule="evenodd" fill="#2F2F7A" d="M33.071,216.725c0,0-2.458-4.348-8.003-2.773
	c0,0-3.718,1.386-2.899,5.671c0,0,4.288,27.227,38.744,40.508c0,0,36.244,14.303,65.105-11.493c0,0-33.969,22.731-70.747-2.554
	c0,0-17.501-12.561-21.747-28.296L33.071,216.725z"/>
<g>
	<path fill="#2F2F7A" d="M154.635,254.126v-8.776h3.31c0.583,0,1.028,0.028,1.335,0.084c0.431,0.072,0.792,0.209,1.083,0.41
		c0.291,0.202,0.526,0.484,0.703,0.847c0.178,0.363,0.266,0.762,0.266,1.197c0,0.746-0.237,1.378-0.712,1.895
		c-0.475,0.517-1.333,0.775-2.574,0.775h-2.251v3.568H154.635z M155.796,249.523h2.269c0.75,0,1.283-0.14,1.598-0.419
		c0.315-0.279,0.473-0.672,0.473-1.179c0-0.367-0.093-0.681-0.278-0.943c-0.186-0.261-0.43-0.434-0.733-0.518
		c-0.196-0.052-0.557-0.078-1.083-0.078h-2.245V249.523z"/>
	<path fill="#2F2F7A" d="M166.054,254.126v-8.776h3.891c0.782,0,1.377,0.079,1.784,0.236c0.407,0.158,0.732,0.436,0.976,0.835
		c0.243,0.399,0.365,0.84,0.365,1.323c0,0.623-0.202,1.147-0.605,1.574c-0.403,0.427-1.026,0.698-1.868,0.814
		c0.307,0.148,0.541,0.293,0.7,0.437c0.339,0.311,0.66,0.7,0.964,1.167l1.526,2.388h-1.461l-1.161-1.826
		c-0.339-0.527-0.619-0.93-0.838-1.209s-0.416-0.475-0.59-0.587c-0.174-0.112-0.35-0.19-0.53-0.233
		c-0.132-0.028-0.347-0.042-0.647-0.042h-1.347v3.897H166.054z M167.215,249.223h2.496c0.531,0,0.946-0.055,1.245-0.165
		c0.299-0.11,0.527-0.285,0.682-0.527c0.156-0.241,0.233-0.504,0.233-0.787c0-0.415-0.151-0.756-0.452-1.024
		c-0.301-0.267-0.777-0.401-1.428-0.401h-2.778V249.223z"/>
	<path fill="#2F2F7A" d="M178.311,254.126v-8.776h1.161v8.776H178.311z"/>
	<path fill="#2F2F7A" d="M184.708,254.126v-8.776h1.748l2.077,6.214c0.192,0.579,0.331,1.012,0.419,1.299
		c0.1-0.319,0.255-0.788,0.467-1.407l2.101-6.106h1.562v8.776h-1.119v-7.345l-2.55,7.345h-1.048l-2.538-7.471v7.471H184.708z"/>
	<path fill="#2F2F7A" d="M198.204,254.126v-8.776h6.345v1.036h-5.184v2.688h4.855v1.03h-4.855v2.987h5.388v1.036H198.204z"/>
	<path fill="#2F2F7A" d="M209.599,254.126v-8.776h3.891c0.782,0,1.377,0.079,1.784,0.236c0.407,0.158,0.732,0.436,0.976,0.835
		c0.243,0.399,0.365,0.84,0.365,1.323c0,0.623-0.202,1.147-0.605,1.574c-0.403,0.427-1.026,0.698-1.868,0.814
		c0.307,0.148,0.541,0.293,0.7,0.437c0.339,0.311,0.66,0.7,0.964,1.167l1.526,2.388h-1.461l-1.161-1.826
		c-0.339-0.527-0.619-0.93-0.838-1.209s-0.416-0.475-0.59-0.587c-0.174-0.112-0.35-0.19-0.53-0.233
		c-0.132-0.028-0.347-0.042-0.646-0.042h-1.347v3.897H209.599z M210.76,249.223h2.496c0.531,0,0.946-0.055,1.245-0.165
		c0.299-0.11,0.527-0.285,0.682-0.527c0.156-0.241,0.233-0.504,0.233-0.787c0-0.415-0.151-0.756-0.452-1.024
		c-0.301-0.267-0.777-0.401-1.428-0.401h-2.778V249.223z"/>
	<path fill="#2F2F7A" d="M220.695,254.126l3.37-8.776h1.251l3.592,8.776h-1.323l-1.024-2.658h-3.669l-0.964,2.658H220.695z
		 M223.227,250.522h2.975l-0.916-2.43c-0.279-0.738-0.487-1.345-0.623-1.82c-0.112,0.563-0.269,1.121-0.473,1.676L223.227,250.522z"
		/>
	<path fill="#2F2F7A" d="M239.014,254.126v-8.776h3.023c0.682,0,1.203,0.042,1.562,0.126c0.503,0.116,0.932,0.325,1.287,0.629
		c0.463,0.391,0.809,0.891,1.039,1.499s0.344,1.304,0.344,2.086c0,0.666-0.078,1.257-0.233,1.772
		c-0.156,0.515-0.355,0.941-0.599,1.278s-0.51,0.603-0.799,0.796c-0.289,0.194-0.639,0.34-1.048,0.44s-0.879,0.15-1.41,0.15H239.014
		z M240.176,253.09h1.874c0.579,0,1.033-0.054,1.362-0.162c0.329-0.108,0.592-0.259,0.787-0.455c0.275-0.275,0.49-0.646,0.644-1.11
		c0.154-0.465,0.23-1.029,0.23-1.691c0-0.918-0.151-1.623-0.452-2.116c-0.301-0.493-0.667-0.823-1.098-0.991
		c-0.311-0.12-0.812-0.18-1.503-0.18h-1.844V253.09z"/>
	<path fill="#2F2F7A" d="M251.289,254.126v-8.776h1.161v8.776H251.289z"/>
	<path fill="#2F2F7A" d="M260.23,254.126l-3.4-8.776h1.257l2.281,6.375c0.184,0.511,0.337,0.99,0.461,1.437
		c0.136-0.479,0.293-0.958,0.473-1.437l2.371-6.375h1.185l-3.436,8.776H260.23z"/>
	<path fill="#2F2F7A" d="M269.321,254.126v-8.776h1.161v8.776H269.321z"/>
	<path fill="#2F2F7A" d="M275.359,251.307l1.095-0.096c0.052,0.439,0.173,0.799,0.362,1.08c0.19,0.281,0.484,0.509,0.883,0.682
		c0.399,0.174,0.848,0.26,1.347,0.26c0.443,0,0.834-0.066,1.173-0.198c0.339-0.132,0.592-0.312,0.757-0.542
		c0.166-0.229,0.248-0.48,0.248-0.751c0-0.275-0.08-0.516-0.239-0.721c-0.16-0.206-0.423-0.378-0.79-0.518
		c-0.235-0.092-0.756-0.234-1.562-0.428c-0.806-0.194-1.371-0.376-1.694-0.548c-0.419-0.219-0.731-0.492-0.937-0.817
		c-0.206-0.325-0.308-0.689-0.308-1.092c0-0.443,0.126-0.857,0.377-1.242c0.251-0.385,0.619-0.677,1.101-0.877
		c0.483-0.2,1.02-0.299,1.61-0.299c0.65,0,1.224,0.105,1.721,0.314c0.497,0.209,0.879,0.518,1.146,0.925
		c0.267,0.407,0.411,0.868,0.431,1.383l-1.113,0.084c-0.06-0.555-0.262-0.974-0.608-1.257c-0.345-0.283-0.855-0.425-1.529-0.425
		c-0.702,0-1.214,0.129-1.535,0.386c-0.321,0.257-0.482,0.568-0.482,0.931c0,0.315,0.114,0.575,0.341,0.778
		c0.223,0.204,0.807,0.412,1.751,0.626c0.944,0.214,1.591,0.4,1.943,0.56c0.511,0.235,0.888,0.534,1.131,0.895
		c0.243,0.361,0.365,0.777,0.365,1.248c0,0.467-0.134,0.907-0.401,1.32s-0.651,0.734-1.152,0.964
		c-0.501,0.229-1.064,0.344-1.691,0.344c-0.794,0-1.46-0.116-1.996-0.347c-0.537-0.232-0.958-0.58-1.263-1.045
		C275.535,252.419,275.375,251.893,275.359,251.307z"/>
	<path fill="#2F2F7A" d="M287.352,254.126v-8.776h1.161v8.776H287.352z"/>
	<path fill="#2F2F7A" d="M293.432,249.852c0-1.457,0.391-2.597,1.173-3.421c0.782-0.824,1.792-1.236,3.029-1.236
		c0.81,0,1.54,0.194,2.191,0.581c0.65,0.387,1.146,0.927,1.488,1.619c0.341,0.692,0.512,1.478,0.512,2.355
		c0,0.89-0.18,1.686-0.539,2.388c-0.359,0.702-0.868,1.234-1.526,1.595c-0.659,0.361-1.369,0.542-2.131,0.542
		c-0.826,0-1.564-0.2-2.215-0.599c-0.65-0.399-1.143-0.944-1.479-1.634C293.599,251.353,293.432,250.622,293.432,249.852z
		 M294.629,249.87c0,1.058,0.284,1.891,0.853,2.499c0.569,0.609,1.282,0.913,2.14,0.913c0.874,0,1.593-0.307,2.158-0.922
		c0.565-0.615,0.847-1.487,0.847-2.616c0-0.714-0.121-1.338-0.362-1.871c-0.241-0.533-0.595-0.946-1.06-1.239
		c-0.465-0.293-0.987-0.44-1.565-0.44c-0.822,0-1.529,0.282-2.122,0.847C294.925,247.606,294.629,248.549,294.629,249.87z
		 M296.892,244.812l0.796-1.676h1.413l-1.317,1.676H296.892z"/>
	<path fill="#2F2F7A" d="M306.533,254.126v-8.776h1.191l4.609,6.89v-6.89h1.113v8.776h-1.191l-4.609-6.896v6.896H306.533z"/>
</g>
<g>
	<polygon points="364.523,238.435 364.523,254.55 372.585,254.55 372.585,252.247 367.52,252.247 367.52,238.435 	"/>
	<polygon points="374.193,238.435 374.193,254.55 377.189,254.55 377.189,247.644 382.254,247.644 382.254,245.341 377.189,245.341 
		377.189,240.737 382.254,240.737 382.254,238.435 	"/>
	<path d="M393.998,243.039c0,2.543-2.062,4.605-4.604,4.605h-2.536v6.906h-2.989v-16.115h5.525
		C391.936,238.435,393.998,240.497,393.998,243.039z M386.858,240.737v4.604h1.842c1.275,0,2.302-1.034,2.302-2.302
		c0-1.274-1.028-2.302-2.302-2.302H386.858z"/>
</g>
<circle cx="341.321" cy="246.757" r="5.777"/>
<path fill="#FFFFFF" d="M339.468,245.998l1.711-1.242v-1.941l-1.611-1.238c-1.021,0.34-1.97,1.029-2.626,1.903l0.68,1.918
	L339.468,245.998z"/>
<path fill="#FFFFFF" d="M345.01,245.397l0.68-1.918c-0.657-0.877-1.604-1.565-2.617-1.903l-1.615,1.239v1.941l1.707,1.242
	L345.01,245.397z"/>
<path fill="#FFFFFF" d="M340.258,248.437l-1.141,1.569l0.58,1.953c0.494,0.156,1.081,0.245,1.625,0.245
	c0.536,0,1.118-0.089,1.612-0.245l0.58-1.953l-1.141-1.569H340.258z"/>
<path fill="#FFFFFF" d="M339.383,246.263l-1.846-0.601l-1.676,1.155c0.015,1.094,0.367,2.181,0.997,3.078l2.034-0.052l1.141-1.569
	L339.383,246.263z"/>
<path fill="#FFFFFF" d="M343.25,246.263l-0.651,2.01l1.141,1.569l2.035,0.052c0.63-0.897,0.982-1.984,0.997-3.077l-1.676-1.156
	L343.25,246.263z"/>
<g>
	<path fill="#DD3848" d="M354.187,234.605c-2.544-2.03-5.709-3.142-8.972-3.142c-1.075,0-2.146,0.121-3.188,0.357l1.585,7.021
		c2.141-0.486,4.379,0.028,6.089,1.39L354.187,234.605z"/>
	<path fill="#F5DE4C" d="M355.707,250.745h-7.197c0,2.187-0.997,4.254-2.706,5.621l4.486,5.63
		C353.714,259.258,355.707,255.119,355.707,250.745z"/>
	<path fill="#EBA666" d="M358.835,249.239h-7.197c0-2.192-0.996-4.259-2.707-5.626l4.482-5.626
		C356.842,240.721,358.835,244.859,358.835,249.239z"/>
	<path fill="#6BAB4A" d="M334.988,263.266c1.062,0.241,2.132,0.361,3.203,0.361c3.262,0,6.427-1.107,8.981-3.142l-4.496-5.621
		c-1.705,1.362-3.943,1.877-6.08,1.39L334.988,263.266z"/>
	<path fill="#76A2C6" d="M335.818,252.872c-2.128-0.482-3.925-1.914-4.88-3.883l-6.487,3.109c1.918,3.962,5.51,6.822,9.778,7.79
		L335.818,252.872z"/>
	<path fill="#2F65A1" d="M326.614,249.387l6.483-3.123c-0.95-1.965-0.95-4.274,0.005-6.252l-6.488-3.114
		c-0.936,1.932-1.423,4.077-1.423,6.246s0.487,4.31,1.432,6.261L326.614,249.387z"/>
	<path fill="#A9408B" d="M341.448,236.128l-1.598-7.015c-4.254,0.963-7.85,3.827-9.755,7.766l6.474,3.142
		c0.955-1.979,2.752-3.411,4.889-3.897L341.448,236.128z"/>
</g>
</svg>
