<?xml version="1.0" encoding="utf-8"?>
<!-- Generator: Adobe Illustrator 19.1.0, SVG Export Plug-In . SVG Version: 6.00 Build 0)  -->
<svg version="1.1" id="Layer_1" xmlns="http://www.w3.org/2000/svg" xmlns:xlink="http://www.w3.org/1999/xlink" x="0px" y="0px"
	 viewBox="0 0 400 400" enable-background="new 0 0 400 400" xml:space="preserve">
<g>
	<path fill-rule="evenodd" clip-rule="evenodd" d="M354.386,11.56l-0.881-2.846l-2.539,1.554
		c-51.506,31.516-102.396,31.414-151.252-0.3l-1.31-0.849l-1.232,0.887l-0.846,0.594l0.374-0.303
		c-48.692,31.488-99.469,31.479-150.922-0.03l-2.539-1.554l-0.878,2.844c-8.267,26.712-12.385,54.231-12.385,82.007
		c0,37.633,7.561,75.729,22.609,112.901c26.263,64.498,74.673,126.549,143.886,184.435l0.326,0.271l1.657,1.277l1.481-1.214
		C280.588,323.945,407.898,185.141,354.386,11.56L354.386,11.56z"/>
	<path fill-rule="evenodd" clip-rule="evenodd" fill="#23C1E0" d="M68.921,89.814h-5.829v-9.087h7.089c0,0,0,1.884,0,2.498
		c0.716,0,4.187,0,4.903,0c0-0.614,0-2.498,0-2.498h1.333v-6.309c-2.421-0.899-4.164-3.262-4.164-6.051
		c0-3.411,2.881-6.293,6.292-6.293c3.561,0,6.459,2.824,6.459,6.293c0,2.81-1.817,5.184-4.33,6.069v6.291h1.165c0,0,0,1.884,0,2.498
		c0.722,0,4.347,0,5.069,0c0-0.614,0-2.498,0-2.498H92.7h0.463v9.087h-6.328v3.07h27.052v-3.07h-5.828v-9.087h7.088
		c0,0,0,1.884,0,2.498c0.722,0,4.349,0,5.07,0c0-0.614,0-2.498,0-2.498h1.331v-6.255c-2.505-0.852-4.33-3.253-4.33-6.106
		c0-3.411,2.881-6.293,6.292-6.293c3.561,0,6.46,2.824,6.46,6.293c0,2.749-1.737,5.087-4.165,6.017v6.343h1c0,0,0,1.884,0,2.498
		c0.722,0,4.347,0,5.069,0c0-0.614,0-2.498,0-2.498h5.793h0.463v9.087h-6.328v3.07h10.361h0.463v5.164h64.901l60.877-45.338
		c-24.816-1.331-48.132-8.494-69.949-21.317c-0.166,0.167-0.332,0.167-0.499,0.334c-45.465,26.478-95.595,27.644-142.727,5.328
		c-3.97,19.067-5.936,37.586-6.018,55.828h19.712V89.814L68.921,89.814z"/>
	<path fill-rule="evenodd" clip-rule="evenodd" fill="#F1A92A" d="M352.172,12.24c-50.626,30.978-102.921,32.643-153.718-0.332
		c-0.166,0.167-0.332,0.167-0.499,0.332c-49.963,32.31-102.257,31.31-153.386,0c-17.987,58.125-17.82,124.242,10.159,193.358
		c24.482,60.12,69.949,122.241,143.226,183.527c0.168,0,0.334,0.167,0.499,0.335C309.037,297.195,398.637,162.961,352.172,12.24
		L352.172,12.24L352.172,12.24z M199.121,369.974c-0.166,0.167-0.667,0.167-1.166,0.167c0-0.167-0.166-0.167-0.333-0.167
		c-36.806-31.643-67.782-66.117-95.096-105.754c-0.333-0.499-0.333-1.333,0.167-1.664l90.085-67.076
		c-4.5-0.465-8.789-1.568-12.773-3.239l-82.808,61.654c-0.499,0.5-1.331,0.332-1.665-0.334L84.04,233.908l-10.16-20.316
		c-0.166-0.502,0-1.165,0.501-1.5l76.771-57.198c-0.29-2.106-0.495-4.238-0.495-6.422c0.017-1.843,0.181-3.646,0.409-5.43
		l-80.183,59.723c-0.499,0.334-1.498,0.167-1.832-0.499C46.901,146.641,40.905,93.846,53.23,35.057c0.166-0.667,1-1.166,1.665-0.831
		c47.132,22.981,97.262,21.983,142.894-5.164c0.166,0,0.166,0,0.166,0c0.334-0.168,0.832-0.168,1,0
		c22.649,13.322,46.964,20.65,72.946,21.484c0.998,0,1.333,1.333,0.664,1.999l-66.945,49.864c2.177,0.364,4.316,0.811,6.326,1.43
		c1.744,0.56,3.416,1.254,5.055,1.997l75.55-56.29c0.168,0,0.501-0.167,0.501-0.167c0.999-0.167,1.664-0.167,1.664-0.334
		c0.334,0,0.831,0,1.499-0.165c15.822-2.833,31.145-7.495,45.634-14.656c0.665-0.335,1.496,0.165,1.662,0.831
		c0.998,5.164,2.002,10.16,2.833,15.155c0.831,5.163,1.667,10.16,2.331,15.321v0.167v0.335c0,0.332-0.334,0.831-0.497,0.998
		l-103.665,77.18c0.153,1.513,0.26,3.038,0.239,4.592c0,2.945-0.314,5.816-0.853,8.611l103.945-77.391
		c0.663-0.499,1.83,0,1.83,0.831l0.334,5.83C350.839,201.934,284.057,297.362,199.121,369.974L199.121,369.974z"/>
	<path fill-rule="evenodd" clip-rule="evenodd" fill="#FFFFFF" d="M230.929,115.331c7.03,7.027,11.805,16.16,13.287,26.289
		l102.129-76.086c-0.665-4.994-1.5-9.991-2.332-14.821c-0.668-4.664-1.499-9.16-2.498-13.657
		c-14.321,6.662-30.811,12.325-46.632,14.324c-0.502,0.165-0.999,0.165-1.165,0.165l-74.367,55.392
		c1.893,0.974,3.712,2.044,5.419,3.233C226.935,111.667,228.932,113.499,230.929,115.331L230.929,115.331z"/>
	<path fill-rule="evenodd" clip-rule="evenodd" fill="#FFFFFF" d="M164.313,181.782c-6.486-6.488-11.006-14.92-12.792-24.326
		l-75.143,55.968l9.66,19.484l10.824,18.487l80.811-60.204c-0.289-0.142-0.585-0.271-0.871-0.418
		C172.14,188.444,167.977,185.446,164.313,181.782L164.313,181.782z"/>
	<path fill-rule="evenodd" clip-rule="evenodd" fill="#167FB6" d="M347.509,83.189l-104.398,77.726
		c-1.93,7.226-5.524,13.765-10.339,19.173c-0.607,0.682-1.197,1.383-1.844,2.026c-1.996,1.831-3.993,3.496-6.16,5.164
		c-2.106,1.464-4.373,2.758-6.752,3.894c-1.952,0.93-3.971,1.757-6.072,2.433c-2.657,0.788-5.437,1.368-8.291,1.739
		c-1.979,0.255-3.987,0.426-6.033,0.426c-0.167,0-0.167,0-0.167,0c-0.376,0-0.744-0.024-1.117-0.033l-91.314,67.983
		c26.647,38.804,57.124,72.612,92.93,103.423c0.168,0.168,0.334,0.168,0.499,0.332c1.898-1.628,3.774-3.284,5.652-4.935
		c4.678-4.116,9.292-8.304,13.841-12.56c4.999-4.676,9.911-9.435,14.735-14.278c4.967-4.99,9.834-10.07,14.588-15.236
		c5.449-5.921,10.757-11.947,15.89-18.098c4.915-5.894,9.676-11.893,14.267-17.994c5.552-7.38,10.852-14.916,15.875-22.598
		c5.187-7.934,10.061-16.032,14.62-24.285c6.09-11.021,11.578-22.331,16.417-33.92c5.567-13.337,10.233-27.053,13.92-41.132
		c6.32-24.124,9.741-49.32,9.587-75.587L347.509,83.189L347.509,83.189z"/>
	<path fill-rule="evenodd" clip-rule="evenodd" fill="#FFFFFF" d="M293.4,123.474l-0.1,138.303
		c5.187-7.934,10.061-16.032,14.62-24.285l0.036-124.855L293.4,123.474L293.4,123.474z"/>
	<path fill-rule="evenodd" clip-rule="evenodd" fill="#FFFFFF" d="M263.253,145.918l-0.094,156.451
		c4.915-5.894,9.676-11.893,14.267-17.994l0.054-149.046L263.253,145.918L263.253,145.918z"/>
	<path fill-rule="evenodd" clip-rule="evenodd" fill="#FFFFFF" d="M323.886,100.776l0.451,102.795
		c5.567-13.337,10.233-27.053,13.92-41.132l0.013-72.37L323.886,100.776L323.886,100.776z"/>
	<path fill-rule="evenodd" clip-rule="evenodd" fill="#FFFFFF" d="M243.111,160.915c-1.93,7.226-5.524,13.765-10.339,19.173
		l-0.09,155.614c4.967-4.99,9.834-10.07,14.588-15.236l0.063-162.696L243.111,160.915L243.111,160.915z"/>
	<path fill-rule="evenodd" clip-rule="evenodd" fill="#FFFFFF" d="M203.654,195.345l0.452,167.196
		c4.678-4.116,9.292-8.304,13.841-12.56l0.07-158.808c-1.952,0.93-3.971,1.757-6.072,2.433
		C209.288,194.393,206.509,194.974,203.654,195.345L203.654,195.345z"/>
	<path fill-rule="evenodd" clip-rule="evenodd" fill="#FED75D" d="M197.455,104.172c-7.494,0-14.489,1.999-20.651,5.331
		c-0.833,0.499-1.665,0.831-2.499,1.331c0.834,0.501,1.666,1.001,2.499,1.667c1.832,1.165,3.664,2.498,5.33,4.163
		c2.664,2.164,4.829,4.829,6.829,7.828c3.164-2.831,5.996-6.163,8.493-9.994c1.999-2.997,3.831-6.327,5.497-9.991
		c-1.666-0.167-3.331-0.334-4.997-0.334C197.789,104.172,197.622,104.172,197.455,104.172L197.455,104.172z"/>
	<path fill-rule="evenodd" clip-rule="evenodd" fill="#FED75D" d="M224.769,171.123c-1.832-2.164-4.163-4.163-6.996-5.995
		c-1.664,0.998-3.162,1.999-4.662,3.165c-0.334,0.332-0.834,0.667-1.165,0.998c-5.829,4.829-10.659,10.825-14.49,17.988
		c-0.999,1.832-1.998,3.829-2.831,5.828c1,0,1.832,0.167,2.831,0.167c0,0,0,0,0.167,0c4.997,0,9.826-0.834,14.324-2.331
		c4.662-1.667,8.993-3.998,12.824-6.828c1.498-1.166,2.997-2.499,4.33-3.831c0-0.167,0.168-0.167,0.168-0.332
		c-0.668-2.833-1.835-5.331-3.665-7.829C225.268,171.789,225.101,171.455,224.769,171.123L224.769,171.123z"/>
	<path fill-rule="evenodd" clip-rule="evenodd" fill="#FED75D" d="M185.465,130.82c-2.665,1.999-5.663,3.664-8.661,5.162
		c-1.499,0.666-2.832,1.333-4.331,1.998c0.167,7.828,1.499,14.324,4.331,19.819c0.832,1.833,1.999,3.497,3.165,5.162
		c3.997,5.331,9.826,9.16,17.486,11.658c1.5,0.5,2.997,0.834,4.496,1.165c2.832-3.496,5.997-6.661,9.66-9.492
		c0,0,0.167-0.167,0.334-0.334c3.831-2.83,8.159-5.328,12.824-7.327c2-0.832,3.996-1.665,6.16-2.331
		c3.5-1.166,7.163-1.999,10.995-2.663c0.164-1.5,0.332-3.165,0.332-4.831c0-11.324-4.327-21.816-11.326-29.811
		c-1.83-1.999-3.993-3.996-6.16-5.663c-3.83-2.83-8.162-5.161-12.824-6.826c-2-0.667-4.165-1.168-6.33-1.667
		c-2.331,5.164-4.997,9.827-8.161,13.99C193.958,123.492,189.961,127.488,185.465,130.82L185.465,130.82z"/>
	<path fill-rule="evenodd" clip-rule="evenodd" fill="#FED75D" d="M176.804,133.151c2.498-1.333,4.831-2.83,7.162-4.497
		c1-0.667,2.166-1.498,3.165-2.331c-1.999-2.997-4.165-5.495-6.663-7.827c-1.166-0.998-2.331-1.999-3.664-2.997
		c-1.499-1.001-3.164-1.999-4.83-2.997c-9.16,6.494-15.821,16.321-17.987,27.811C162.481,138.979,170.142,136.648,176.804,133.151
		L176.804,133.151z"/>
	<path fill-rule="evenodd" clip-rule="evenodd" fill="#FED75D" d="M231.263,177.784c5.332-5.995,8.994-13.322,10.327-21.484
		c-3.831,0.667-7.327,1.5-10.662,2.666c-2.164,0.667-4.16,1.498-6.16,2.331c-1.664,0.834-3.165,1.5-4.664,2.331
		c1.833,1.165,3.331,2.498,4.664,3.831c0.998,0.998,2,1.999,2.83,3.165c1.5,1.832,2.498,3.831,3.329,5.828
		C231.096,176.95,231.263,177.452,231.263,177.784L231.263,177.784z"/>
	<path fill-rule="evenodd" clip-rule="evenodd" fill="#FED75D" d="M176.804,187.944c4.663,2.496,9.66,4.164,15.156,4.83
		c1.665-3.663,3.497-7.327,5.495-10.492c0.833-1.5,1.833-2.833,2.832-4.164c-1-0.334-1.833-0.666-2.832-0.833
		c-8.493-2.666-14.988-6.996-19.486-12.824c-0.499-0.5-0.833-1.001-1.165-1.666c-4.331-6.329-6.496-14.156-6.827-23.817
		c-4.997,1.833-10.493,3.165-16.322,3.998c-0.334,1.833-0.334,3.664-0.5,5.496c0,12.324,4.997,23.483,12.991,31.477
		C169.31,183.113,172.807,185.779,176.804,187.944L176.804,187.944z"/>
	<path fill-rule="evenodd" clip-rule="evenodd" fill="#378CBF" d="M278.395,94.513c0.834,1.832,1.167,3.497,0.834,4.997
		c-0.334,1.333-0.999,2.499-2.331,3.496c-1.499,1.166-3.332,1.5-5.331,1.166c-1.83-0.5-3.831-2.164-5.995-4.997
		c-1.832-2.663-2.665-4.994-2.665-6.993c0.166-1.999,1.165-3.497,2.665-4.83c1.166-0.833,2.498-1.333,3.831-1.165
		c1.333,0,2.499,0.499,3.665,1.498l3.664-4.495c-1.832-1.333-3.664-2.166-5.331-2.333c-2.996-0.332-5.829,0.501-8.327,2.498
		c-2.33,1.832-3.998,3.831-4.829,6.33c-0.167,0.834-0.334,1.664-0.499,2.498c-0.167,1.665,0,3.33,0.499,5.162
		c0.667,1.831,1.667,3.664,3.165,5.662c2.499,3.499,5.497,5.663,8.825,6.163c3.5,0.667,6.664-0.168,9.66-2.331
		c2.334-1.832,3.998-3.998,4.664-6.329c0.667-2.331,0.333-4.996-0.666-7.994L278.395,94.513L278.395,94.513z"/>
	<polygon fill-rule="evenodd" clip-rule="evenodd" fill="#378CBF" points="173.307,179.95 159.484,161.464 154.987,164.793 
		171.641,187.111 187.296,175.286 184.632,171.455 173.307,179.95 	"/>
	<polygon fill-rule="evenodd" clip-rule="evenodd" fill="#378CBF" points="126.841,185.446 120.18,190.608 127.507,208.927 
		112.019,196.603 105.19,201.6 122.012,224.082 126.176,220.919 113.019,203.264 130.672,217.588 135.002,214.423 126.176,193.44 
		139.498,211.093 143.663,207.929 126.841,185.446 	"/>
	<polygon fill-rule="evenodd" clip-rule="evenodd" fill="#378CBF" points="293.717,89.184 289.885,92.014 293.215,96.345 
		293.717,95.846 297.381,93.18 294.219,88.85 293.717,89.184 	"/>
	<polygon fill-rule="evenodd" clip-rule="evenodd" fill="#378CBF" points="319.364,70.031 315.036,73.363 318.198,77.693 
		322.526,74.361 319.364,70.031 	"/>
	<path fill-rule="evenodd" clip-rule="evenodd" fill="#378CBF" d="M142.996,173.454l-4.831,3.663l7.994,28.979l4.831-3.663
		l-1.999-6.497h0.167l8.827-6.661l5.829,3.664l4.83-3.664L142.996,173.454L142.996,173.454L142.996,173.454z M147.659,191.107
		l-3.164-10.493l9.326,5.997L147.659,191.107L147.659,191.107z"/>
	<path fill-rule="evenodd" clip-rule="evenodd" fill="#378CBF" d="M233.096,106.171l-4.663,3.664l7.994,28.979l4.829-3.664
		l-1.998-6.329v-0.167l8.992-6.661l5.663,3.664l4.997-3.664L233.096,106.171L233.096,106.171L233.096,106.171z M237.76,123.824
		l-3.167-10.493l9.329,5.997L237.76,123.824L237.76,123.824z"/>
	<polygon fill-rule="evenodd" clip-rule="evenodd" fill="#378CBF" points="306.208,65.868 296.879,72.862 292.885,67.533 
		303.709,59.372 300.878,55.543 285.557,67.033 302.21,89.516 306.706,86.187 299.711,76.525 309.037,69.699 306.208,65.868 	"/>
	<path fill-rule="evenodd" clip-rule="evenodd" fill="#378CBF" d="M185.465,141.811l-4.829,3.497l7.994,28.979l4.83-3.497
		l-1.832-6.329l-0.167-0.168h0.167l8.826-6.661l5.83,3.663v-0.167l4.829-3.496L185.465,141.811L185.465,141.811L185.465,141.811z
		 M190.128,159.464l-3.165-10.659l9.327,6.162L190.128,159.464L190.128,159.464z"/>
	<path fill-rule="evenodd" clip-rule="evenodd" fill="#378CBF" d="M225.101,128.489l-9.659,7.16l2.833,3.831l5.161-3.831l2.166,2.83
		c-0.334,1.001-0.833,1.999-1.499,3.165c-0.667,0.998-1.5,1.999-2.499,2.666c-1.832,1.498-3.998,1.999-6.162,1.498
		c-2.164-0.499-4.164-1.997-6.161-4.663c-1.833-2.498-2.664-4.829-2.499-6.996c0.334-1.997,1.333-3.829,3.33-5.328
		c1.333-0.998,2.666-1.498,3.998-1.498c1.333,0,2.666,0.5,3.831,1.331l3.832-4.163c-2-1.832-4.166-2.666-6.663-2.666
		c-2.499,0-4.997,1-7.827,3.165c-0.332,0.167-0.665,0.501-0.998,0.667c-1.667,1.5-2.832,2.833-3.499,4.497
		c-1.165,2.332-1.665,4.829-1.165,7.328c0.333,2.498,1.333,4.997,3.165,7.328c0.5,0.666,1,1.333,1.499,1.831
		c1.333,1.333,2.664,2.331,4.162,3.165c2.331,1.165,4.663,1.664,7.16,1.333c2.499-0.334,4.829-1.333,7.163-3.165
		c1.832-1.333,3.496-3.164,4.829-5.163c0.165-0.332,0.333-0.667,0.499-0.999c0.998-1.665,1.5-3.165,1.667-4.497l-1.667-2.331
		L225.101,128.489L225.101,128.489z"/>
	<polygon fill-rule="evenodd" clip-rule="evenodd" points="191.627,46.049 194.291,46.049 194.291,53.044 195.957,53.044 
		195.957,46.049 198.454,46.049 198.454,44.551 191.627,44.551 191.627,46.049 	"/>
	<polygon fill-rule="evenodd" clip-rule="evenodd" points="205.117,44.551 203.617,50.379 202.119,44.551 199.454,44.551 
		199.454,53.044 201.119,53.044 201.119,46.383 202.784,53.044 204.451,53.044 206.116,46.383 206.116,53.044 207.615,53.044 
		207.615,44.551 205.117,44.551 	"/>
	<path fill-rule="evenodd" clip-rule="evenodd" fill="#3E9692" d="M70.717,199.935l65.57-48.833l-80.789,0.007
		C59.077,167.314,64.152,183.526,70.717,199.935L70.717,199.935z"/>
	<path fill-rule="evenodd" clip-rule="evenodd" fill="#E67F29" d="M88.796,98.798c0.168,0.538,1.99,6.381,2.083,6.679
		c0.331,0,18.475,0,18.803,0c0.095-0.293,2.006-6.178,2.182-6.72C111.252,98.757,89.4,98.796,88.796,98.798L88.796,98.798z"/>
	<path fill-rule="evenodd" clip-rule="evenodd" fill="#E67F29" d="M141.468,105.477c0-0.42,0-6.352,0-6.772
		c-0.42,0.002-7.165,0.013-7.729,0.013c0.167,0.538,2.013,6.46,2.106,6.759C136.154,105.477,141.053,105.477,141.468,105.477
		L141.468,105.477z"/>
	<path fill-rule="evenodd" clip-rule="evenodd" fill="#E67F29" d="M87.315,94.043c0.151,0.485,0.964,3.092,1.05,3.368
		c0.333-0.002,23.621-0.043,23.949-0.043c0.087-0.269,0.922-2.837,1.08-3.325C112.782,94.043,87.921,94.043,87.315,94.043
		L87.315,94.043z"/>
	<path fill-rule="evenodd" clip-rule="evenodd" fill="#E67F29" d="M133.307,97.332c0.318,0,7.733-0.014,8.161-0.014
		c0-0.381,0-2.895,0-3.275c-0.426,0-8.612,0-9.187,0C132.432,94.527,133.221,97.059,133.307,97.332L133.307,97.332z"/>
	<path fill-rule="evenodd" clip-rule="evenodd" fill="#E67F29" d="M88.065,84.382h-7.384l-0.008-2.499c0,0-4.014,0-4.432,0
		c0,0.382,0,2.499,0,2.499h-7.219c0,0,0-2.117,0-2.499c-0.403,0-4.37,0-4.773,0c0,0.42,0,6.355,0,6.772c0.451,0,27.305,0,27.756,0
		c0-0.418,0-6.352,0-6.772c-0.392,0-3.548,0-3.941,0C88.065,82.265,88.065,84.382,88.065,84.382L88.065,84.382z"/>
	<path fill-rule="evenodd" clip-rule="evenodd" fill="#E67F29" d="M89.426,105.477c-0.176-0.562-3.468-11.127-3.564-11.434
		c-0.33,0-15.647,0-15.972,0c-0.099,0.303-3.529,10.867-3.713,11.434C66.787,105.477,88.822,105.477,89.426,105.477L89.426,105.477z
		"/>
	<path fill-rule="evenodd" clip-rule="evenodd" fill="#E67F29" d="M70.079,92.654c0.443,0,15.156,0,15.599,0
		c0-0.363,0-2.246,0-2.609c-0.443,0-15.156,0-15.599,0C70.079,90.408,70.079,92.29,70.079,92.654L70.079,92.654z"/>
	<path fill-rule="evenodd" clip-rule="evenodd" fill="#E67F29" d="M133.031,84.382h-7.384c0,0,0-2.117,0-2.499
		c-0.279,0-3.87,0-4.273,0c0,0.382,0,2.499,0,2.499h-7.385c0,0,0-2.117,0-2.499c-0.404,0-4.37,0-4.773,0c0,0.42,0,6.355,0,6.772
		c0.451,0,27.305,0,27.756,0c0-0.418,0-6.352,0-6.772c-0.392,0-3.548,0-3.941,0C133.031,82.265,133.031,84.382,133.031,84.382
		L133.031,84.382z"/>
	<path fill-rule="evenodd" clip-rule="evenodd" fill="#E67F29" d="M134.392,105.477c-0.176-0.562-3.468-11.127-3.564-11.434
		c-0.331,0-15.648,0-15.973,0c-0.098,0.303-3.528,10.867-3.712,11.434C111.753,105.477,133.788,105.477,134.392,105.477
		L134.392,105.477z"/>
	<path fill-rule="evenodd" clip-rule="evenodd" fill="#E67F29" d="M115.045,92.654c0.443,0,15.156,0,15.599,0
		c0-0.363,0-2.246,0-2.609c-0.442,0-15.156,0-15.599,0C115.045,90.408,115.045,92.29,115.045,92.654L115.045,92.654z"/>
	<path fill-rule="evenodd" clip-rule="evenodd" fill="#E67F29" d="M132.699,123.697c0,0.651,0,1.787,0,2.096
		c0.309,0,1.456,0,2.116,0C134.314,125.299,133.195,124.188,132.699,123.697L132.699,123.697z"/>
	<path fill-rule="evenodd" clip-rule="evenodd" fill="#E67F29" d="M115.827,106.867c0,0-4.95,0-5.785,0
		c0.723,0.716,10.894,10.804,11.609,11.513c0-0.725,0-2.577,0-2.577s2.314,0,3.095,0
		C124.021,115.077,115.827,106.867,115.827,106.867L115.827,106.867z"/>
	<path fill-rule="evenodd" clip-rule="evenodd" fill="#E67F29" d="M67.58,115.636v0.23l-0.067,2.774l2.562,2.659c0,0,5.026,0,5.96,0
		c-1.953-1.954-14.338-14.347-14.338-14.432c-0.002,0-5.035,0-5.963,0c0.715,0.722,8.677,8.769,8.677,8.769H67.58L67.58,115.636z"/>
	<path fill-rule="evenodd" clip-rule="evenodd" fill="#E67F29" d="M93.239,123.013c0,0-1.458-1.457-2.009-2.01
		c0,0.264,0,1.453,0,1.453s0,2.934,0,3.339c0.339,0,1.615,0,1.947,0C93.186,125.4,93.239,123.013,93.239,123.013L93.239,123.013z"/>
	<path fill-rule="evenodd" clip-rule="evenodd" fill="#E67F29" d="M92.201,119.188c0,0-0.353,0.147-0.581,0.242
		c0.289,0.289,1.09,1.091,1.551,1.552c0-0.396,0-0.823,0-0.823C93.171,119.562,92.667,119.188,92.201,119.188L92.201,119.188z"/>
	<path fill-rule="evenodd" clip-rule="evenodd" fill="#E67F29" d="M98.724,120.671c0,0.3,0,0.456,0,0.628c0.17,0,0.327,0,0.627,0
		C99.1,121.046,98.976,120.924,98.724,120.671L98.724,120.671z"/>
	<path fill-rule="evenodd" clip-rule="evenodd" fill="#E67F29" d="M93.189,115.136c-1.673-1.674-8.179-8.188-8.179-8.269
		c-0.004,0-5.024,0-5.958,0c0.377,0.375,0.881,0.878,0.881,0.878s7.298,7.298,7.298,7.391
		C87.236,115.136,92.256,115.136,93.189,115.136L93.189,115.136z"/>
	<path fill-rule="evenodd" clip-rule="evenodd" fill="#E67F29" d="M98.724,115.136v0.23l-0.068,3.273l1.877,1.877
		c0,0,0.706,0.707,0.706,0.779c0,0.002-0.001,0-0.002,0.002c0.033,0,4.85,0,5.776,0c-1.953-1.954-14.339-14.347-14.339-14.432
		c-0.002,0-4.864,0-5.793,0c0.377,0.375,0.881,0.878,0.881,0.878s7.298,7.298,7.298,7.391
		C95.063,115.136,98.724,115.136,98.724,115.136L98.724,115.136z"/>
	<path fill-rule="evenodd" clip-rule="evenodd" fill="#E67F29" d="M114.841,121.299c-0.746-0.746-14.306-14.303-14.434-14.432
		c-0.17,0-4.946,0-5.866,0c1.954,1.951,14.339,14.344,14.339,14.432C108.883,121.299,113.906,121.299,114.841,121.299
		L114.841,121.299z"/>
	<path fill-rule="evenodd" clip-rule="evenodd" fill="#E67F29" d="M108.156,106.867c0,0,0,0,0.001,0c-0.014,0-4.86,0-5.788,0
		c1.954,1.951,14.339,14.344,14.339,14.432c0.002,0,4.557,0,4.956,0c0.017-0.292,0.054-0.897,0.054-0.897l-11.453-11.358
		C110.266,109.044,108.156,106.952,108.156,106.867L108.156,106.867z"/>
	<path fill-rule="evenodd" clip-rule="evenodd" fill="#E67F29" d="M132.507,115.803c-4.542-4.554-8.857-8.891-8.857-8.936
		c-0.001,0-5.011,0-5.949,0c0.422,0.418,1.064,1.052,1.064,1.052s7.854,7.791,7.854,7.884
		C126.623,115.803,132.496,115.803,132.507,115.803L132.507,115.803z"/>
	<path fill-rule="evenodd" clip-rule="evenodd" fill="#E67F29" d="M132.699,115.995c0,0.011-0.069,5.679-0.069,5.679
		s4.066,4.032,4.066,4.12c0.015,0,4.863,0,5.791,0C141.232,124.54,136.913,120.219,132.699,115.995L132.699,115.995z"/>
	<path fill-rule="evenodd" clip-rule="evenodd" fill="#E67F29" d="M150.471,125.794c-2.65-2.627-18.992-18.841-18.992-18.927
		c-0.001,0-4.864,0-5.794,0c0.73,0.73,9.748,9.747,9.748,9.747s9.089,9.088,9.089,9.18
		C144.524,125.794,149.533,125.794,150.471,125.794L150.471,125.794z"/>
	<path fill-rule="evenodd" clip-rule="evenodd" fill="#E67F29" d="M84.678,127.183c-0.126,0-16.649,0-17.098,0
		c0,0.431,0,9.338,0,9.77c0.444,0,16.653,0,17.098,0C84.678,136.521,84.678,127.614,84.678,127.183L84.678,127.183z"/>
	<path fill-rule="evenodd" clip-rule="evenodd" fill="#E67F29" d="M86.067,136.953c0.437,0,11.83,0,12.267,0c0-0.431,0-9.338,0-9.77
		c-0.437,0-11.83,0-12.267,0C86.067,127.614,86.067,136.521,86.067,136.953L86.067,136.953z"/>
	<path fill-rule="evenodd" clip-rule="evenodd" fill="#E67F29" d="M94.56,125.794c0.451,0,26.639,0,27.09,0c0-0.374,0-2.731,0-3.106
		c-0.451,0-26.639,0-27.09,0C94.56,123.063,94.56,125.419,94.56,125.794L94.56,125.794z"/>
	<path fill-rule="evenodd" clip-rule="evenodd" fill="#E67F29" d="M74.577,125.794c0.008,0,5.179,0,5.604,0c0-0.374,0-2.731,0-3.106
		c-0.413,0-7.662,0-8.622,0c0.837,0.84,3.019,3.034,3.019,3.106H74.577L74.577,125.794z"/>
	<path fill-rule="evenodd" clip-rule="evenodd" fill="#E67F29" d="M85.835,125.794c0,0,3.709,0,4.005,0c0-0.374,0-2.731,0-3.106
		c-0.392,0-3.56,0-3.945,0C85.887,123.088,85.835,125.794,85.835,125.794L85.835,125.794z"/>
	<path fill-rule="evenodd" clip-rule="evenodd" fill="#E67F29" d="M123.039,136.953c0.426,0,7.846,0,8.271,0
		c0-0.445,0-19.316,0-19.761c-0.425,0-7.845,0-8.271,0C123.039,117.637,123.039,136.508,123.039,136.953L123.039,136.953z"/>
	<path fill-rule="evenodd" clip-rule="evenodd" fill="#E67F29" d="M81.571,125.794c0.373,0,2.567,0,2.939,0c0-0.415,0-6.02,0-6.438
		c-0.373,0-2.567,0-2.939,0C81.571,119.774,81.571,125.378,81.571,125.794L81.571,125.794z"/>
	<path fill-rule="evenodd" clip-rule="evenodd" fill="#E67F29" d="M94.56,120.16c0,0,0,0.818,0,1.139c0.368,0,2.407,0,2.775,0
		c0-0.405,0-4.371,0-4.773c-0.436,0-11,0-11.435,0c0,0.357,0,4.373,0,4.773c0.389,0,3.453,0,3.878,0
		c-0.031-0.337-0.102-1.121-0.103-1.139c0-1.344,1.086-2.361,2.526-2.361C93.336,117.799,94.56,118.703,94.56,120.16L94.56,120.16z"
		/>
	<path fill-rule="evenodd" clip-rule="evenodd" fill="#E67F29" d="M88.557,149.943c0,0,16.655,0,17.104,0c0-0.436,0-11.165,0-11.602
		c-0.446,0-27.832,0-28.91,0C77.506,139.085,88.557,149.943,88.557,149.943L88.557,149.943z"/>
	<path fill-rule="evenodd" clip-rule="evenodd" fill="#E67F29" d="M68.913,138.342c0,0.436,0,11.166,0,11.602
		c0.426,0,10.935,0,11.94,0c-0.745-0.741-11.658-11.602-11.658-11.602S69.052,138.342,68.913,138.342L68.913,138.342z"/>
	<path fill-rule="evenodd" clip-rule="evenodd" fill="#E67F29" d="M74.856,138.342c-0.003,0-2.929,0-3.782,0
		c0.712,0.703,6.489,6.408,6.489,6.408s5.17,5.103,5.17,5.193c0.004,0,3.063,0,3.931,0c-0.678-0.66-4.21-4.104-4.21-4.104
		S74.856,138.432,74.856,138.342L74.856,138.342z"/>
	<path fill-rule="evenodd" clip-rule="evenodd" fill="#E67F29" d="M107.051,138.342c0,0.436,0,11.166,0,11.602
		c0.426,0,11.43,0,12.439,0c-0.744-0.741-11.658-11.602-11.658-11.602S107.326,138.342,107.051,138.342L107.051,138.342z"/>
	<path fill-rule="evenodd" clip-rule="evenodd" fill="#E67F29" d="M113.493,138.342c-0.003,0-2.927,0-3.78,0
		c0.712,0.703,6.489,6.408,6.489,6.408s5.17,5.103,5.17,5.193c0.004,0,3.063,0,3.93,0c-0.665-0.649-3.801-3.707-3.801-3.707
		S113.493,138.432,113.493,138.342L113.493,138.342z"/>
	<path fill-rule="evenodd" clip-rule="evenodd" fill="#E67F29" d="M67.58,120.668c0,0.876,0,4.742,0,5.125c0.385,0,4.248,0,5.124,0
		C72.644,125.733,68.258,121.348,67.58,120.668L67.58,120.668z"/>
	<path fill-rule="evenodd" clip-rule="evenodd" fill="#E67F29" d="M80.181,121.299c0-0.4,0-3.332,0-3.332s0.27,0,0.277,0
		c-1.875-1.859-11.099-11.016-11.099-11.1c-0.002,0-4.864,0-5.794,0c0.745,0.743,14.303,14.301,14.434,14.432
		C78.16,121.299,79.817,121.299,80.181,121.299L80.181,121.299z"/>
	<path fill-rule="evenodd" clip-rule="evenodd" fill="#E67F29" d="M77.184,106.867c-0.004,0-5.01,0-5.948,0
		c1.875,1.859,11.1,11.016,11.1,11.1c0.01,0,1.799,0,2.174,0c0-0.388,0-2.83,0-2.83s0.542,0,0.852,0
		C83.69,113.463,77.184,106.948,77.184,106.867L77.184,106.867z"/>
	<path fill-rule="evenodd" clip-rule="evenodd" fill="#E67F29" d="M150.465,115.328c-1.746-0.68-3.098-2.997-4.956-8.461
		c-0.29,0-11.394,0-12.153,0c0.763,0.759,18.991,18.927,18.991,18.927s3.109,0,4.332,0c4.446-7.922,11.125-14.414,19.243-18.647
		c-9.601,1.123-15.468,4.312-19.011,6.282C154.103,114.99,152.249,116.022,150.465,115.328L150.465,115.328z"/>
	<path fill-rule="evenodd" clip-rule="evenodd" fill="#E67F29" d="M49.694,110.305c0.112,1.779,0.272,3.555,0.42,5.331
		c1.752,0,4.235,0,4.831,0C54.498,115.181,51.677,112.317,49.694,110.305L49.694,110.305z"/>
	<path fill-rule="evenodd" clip-rule="evenodd" fill="#E67F29" d="M132.699,127.183c0,0.431,0,9.338,0,9.77
		c0.413,0,16.679,0,19.501,0c0.889-3.424,2.143-6.696,3.735-9.77C155.36,127.183,133.108,127.183,132.699,127.183L132.699,127.183z"
		/>
	<path fill-rule="evenodd" clip-rule="evenodd" fill="#E67F29" d="M115.388,138.342c0.754,0.743,11.807,11.602,11.807,11.602
		s8.335,0,10.645,0l13.73-10.226c0.09-0.459,0.163-0.922,0.267-1.376C147.042,138.342,116.345,138.342,115.388,138.342
		L115.388,138.342z"/>
	<path fill-rule="evenodd" clip-rule="evenodd" fill="#E67F29" d="M68.429,94.043c-0.553,0-16.007,0-19.208,0
		c0,1.145-0.013,2.293,0.001,3.436c2.916-0.007,17.803-0.032,18.101-0.032C67.41,97.178,68.269,94.533,68.429,94.043L68.429,94.043z
		"/>
	<path fill-rule="evenodd" clip-rule="evenodd" fill="#E67F29" d="M66.872,98.836c-0.557,0-14.88,0.027-17.649,0.03
		c0.041,2.209,0.148,4.409,0.245,6.611c2.73,0,14.98,0,15.248,0C64.811,105.184,66.696,99.378,66.872,98.836L66.872,98.836z"/>
	<path fill-rule="evenodd" clip-rule="evenodd" fill="#E67F29" d="M66.191,117.025c-0.401,0-13.186,0-15.967,0
		c0.592,6.659,1.442,13.298,2.546,19.928c2.622,0,13.029,0,13.421,0C66.191,136.512,66.191,117.443,66.191,117.025L66.191,117.025z"
		/>
	<path fill-rule="evenodd" clip-rule="evenodd" fill="#E67F29" d="M67.524,138.342c-0.086,0-11.918,0-14.536,0
		c0.665,3.87,1.402,7.735,2.239,11.602c2.143,0,11.9,0,12.297,0C67.524,149.508,67.524,138.778,67.524,138.342L67.524,138.342z"/>
	<path fill-rule="evenodd" clip-rule="evenodd" fill="#E67F29" d="M62.545,115.636c-1.743-1.744-8.677-8.688-8.677-8.769
		c-0.002,0-3.049,0-4.344,0c0.025,0.504,0.032,1.007,0.058,1.511l7.17,7.258C56.753,115.636,61.615,115.636,62.545,115.636
		L62.545,115.636z"/>
	<path fill-rule="evenodd" clip-rule="evenodd" fill="#E67F29" d="M121.65,127.183c-0.449,0-21.479,0-21.927,0
		c0,0.431,0,9.338,0,9.77c0.1,0,1.266,0,2.969,0v-6.967h3.831v6.967c1.899,0,3.985,0,5.996,0v-6.967h3.997v6.967
		c2.872,0,4.995,0,5.135,0C121.65,136.521,121.65,127.614,121.65,127.183L121.65,127.183z"/>
	<path fill-rule="evenodd" clip-rule="evenodd" d="M71.882,129.32c1.333,0,2.332,1.001,2.332,2.331c0,1.333-0.999,2.333-2.332,2.333
		c-1.332,0-2.331-1.001-2.331-2.333C69.551,130.32,70.55,129.32,71.882,129.32L71.882,129.32z"/>
	<path fill-rule="evenodd" clip-rule="evenodd" d="M77.877,129.819c0.834,0,1.5,0.667,1.5,1.5c0,0.834-0.666,1.5-1.5,1.5
		c-0.832,0-1.498-0.667-1.498-1.5C76.379,130.486,77.045,129.819,77.877,129.819L77.877,129.819z"/>
	<path fill-rule="evenodd" clip-rule="evenodd" d="M125.176,132.152h4.163v-6.496l0,0c0-0.998-0.998-1.997-2.165-1.997
		c-0.998,0-1.998,0.999-1.998,1.997c0,0.167,0,0.334,0,0.334V132.152L125.176,132.152z"/>
	<polygon fill-rule="evenodd" clip-rule="evenodd" points="59.225,120.494 63.389,120.494 63.389,130.82 59.225,130.82 
		59.225,120.494 	"/>
	<polygon fill-rule="evenodd" clip-rule="evenodd" points="53.896,120.494 57.893,120.494 57.893,130.82 53.896,130.82 
		53.896,120.494 	"/>
	<path fill-rule="evenodd" clip-rule="evenodd" d="M76.546,103.341h3.83v-5.663l0,0l0,0c0-1.165-0.832-1.999-1.999-1.999
		c-1,0-1.831,0.834-1.831,1.999l0,0l0,0V103.341L76.546,103.341z"/>
	<path fill-rule="evenodd" clip-rule="evenodd" d="M121.678,103.341h3.831v-5.663l0,0l0,0c0-1.165-0.832-1.999-1.832-1.999
		c-1.165,0-1.999,0.834-1.999,1.999l0,0l0,0V103.341L121.678,103.341z"/>
	<path fill-rule="evenodd" clip-rule="evenodd" fill="#3E9692" d="M146.652,105.951c1.742,5.228,2.992,7.568,4.316,8.083
		l0.729,0.104c1.11-0.036,2.589-0.872,4.461-1.931c4.125-2.334,10.358-5.862,21.022-6.666c6.588-3.026,13.465-4.56,20.454-4.56
		c0,0,5.876,0.316,5.877,0.368c0.005-0.005,2.427-1.767,2.946-2.144c-1.036,0-63.145,0-63.6,0c0,0.416,0,5.858,0,6.273
		c0.407,0,3.636,0,3.636,0L146.652,105.951L146.652,105.951z"/>
	<path fill-rule="evenodd" clip-rule="evenodd" d="M115.229,161.057c-1.135,1.147-2.116,2.142-4.16,2.142
		c-1.987,0-2.943-0.992-4.05-2.137c-1.126-1.168-2.404-2.489-4.883-2.489c-2.619,0-3.975,1.315-5.172,2.476
		c-1.188,1.154-2.216,2.15-4.365,2.15c-1.988,0-2.944-0.992-4.05-2.137c-1.126-1.168-2.403-2.489-4.881-2.489
		c-2.518,0-3.816,1.319-4.962,2.484c-1.129,1.15-2.105,2.142-4.137,2.142c-2.085,0-3.083-0.994-4.24-2.146
		c-1.169-1.164-2.494-2.48-5.057-2.48c-2.492,0-3.775,1.321-4.909,2.487c-0.015,0.016-0.03,0.03-0.046,0.045
		c0.113,0.431,0.223,0.861,0.338,1.292c0.181-0.178,0.367-0.354,0.538-0.53c1.115-1.147,2.077-2.137,4.079-2.137
		c2.086,0,3.085,0.995,4.241,2.144c1.169,1.163,2.493,2.482,5.055,2.482c2.518,0,3.816-1.321,4.962-2.487
		c1.13-1.147,2.105-2.14,4.137-2.14c1.988,0,2.943,0.99,4.05,2.137c1.126,1.165,2.403,2.489,4.881,2.489
		c2.619,0,3.974-1.317,5.172-2.478c1.188-1.152,2.216-2.148,4.365-2.148c1.987,0,2.944,0.99,4.051,2.137
		c1.126,1.165,2.403,2.489,4.881,2.489c2.527,0,3.831-1.321,4.982-2.485c1.135-1.149,2.115-2.141,4.16-2.141
		c0.197,0,0.345,0.05,0.523,0.07c0.416-0.309,0.834-0.621,1.252-0.933c-0.519-0.174-1.093-0.293-1.775-0.293
		C117.685,158.572,116.38,159.891,115.229,161.057L115.229,161.057z"/>
	<path fill-rule="evenodd" clip-rule="evenodd" d="M99.278,170.301c-1.188,1.154-2.216,2.15-4.365,2.15
		c-1.988,0-2.943-0.992-4.05-2.137c-1.126-1.168-2.404-2.489-4.881-2.489c-2.518,0-3.817,1.319-4.962,2.485
		c-1.13,1.149-2.106,2.141-4.138,2.141c-2.085,0-3.083-0.994-4.24-2.146c-1.169-1.163-2.494-2.48-5.057-2.48
		c-2.384,0-3.656,1.211-4.754,2.335c0.123,0.416,0.256,0.832,0.381,1.247c0.095-0.097,0.201-0.192,0.293-0.289
		c1.115-1.148,2.077-2.137,4.079-2.137c2.086,0,3.085,0.994,4.241,2.144c1.169,1.164,2.492,2.483,5.055,2.483
		c2.518,0,3.817-1.321,4.962-2.487c1.13-1.148,2.106-2.14,4.137-2.14c1.987,0,2.943,0.99,4.05,2.137
		c1.126,1.165,2.403,2.489,4.881,2.489c2.619,0,3.975-1.317,5.172-2.478c1.188-1.152,2.216-2.148,4.365-2.148
		c1.201,0,2.01,0.382,2.719,0.92c0.318-0.235,0.637-0.472,0.958-0.712c-0.901-0.749-2.006-1.364-3.676-1.364
		C101.83,167.825,100.475,169.14,99.278,170.301L99.278,170.301z"/>
	<path fill-rule="evenodd" clip-rule="evenodd" d="M88.294,177.077c-2.517,0-3.816,1.319-4.961,2.485
		c-1.13,1.149-2.105,2.141-4.137,2.141c-2.085,0-3.083-0.994-4.24-2.146c-1.169-1.164-2.494-2.48-5.056-2.48
		c-2.068,0-3.291,0.912-4.3,1.888c0.134,0.407,0.271,0.813,0.407,1.222c1.039-1.064,2.003-1.954,3.894-1.954
		c2.086,0,3.084,0.995,4.241,2.144c1.169,1.164,2.492,2.482,5.055,2.482c2.518,0,3.816-1.321,4.961-2.487
		c1.13-1.147,2.106-2.14,4.137-2.14c1.988,0,2.944,0.99,4.051,2.137c0.104,0.108,0.222,0.217,0.33,0.326
		c0.311-0.23,0.62-0.461,0.936-0.696c-0.144-0.145-0.288-0.283-0.435-0.434C92.049,178.399,90.772,177.077,88.294,177.077
		L88.294,177.077z"/>
	<path fill-rule="evenodd" clip-rule="evenodd" d="M73.368,186.33c-2.21,0-3.457,1.042-4.504,2.089
		c0.145,0.402,0.28,0.8,0.428,1.201c1.113-1.147,2.077-2.135,4.076-2.135c2.086,0,3.085,0.994,4.241,2.144
		c0.424,0.423,0.894,0.845,1.409,1.238c0.313-0.233,0.631-0.47,0.961-0.716c-0.555-0.375-1.045-0.834-1.554-1.342
		C77.256,187.647,75.931,186.33,73.368,186.33L73.368,186.33z"/>
	<path fill-rule="evenodd" clip-rule="evenodd" fill="#E67F29" d="M83.85,68.366c0,2.929-2.375,5.306-5.306,5.306
		c-2.931,0-5.306-2.377-5.306-5.306c0-2.932,2.375-5.306,5.306-5.306C81.474,63.06,83.85,65.435,83.85,68.366L83.85,68.366z"/>
	<path fill-rule="evenodd" clip-rule="evenodd" fill="#E67F29" d="M128.812,68.366c0,2.929-2.376,5.306-5.306,5.306
		c-2.931,0-5.306-2.377-5.306-5.306c0-2.932,2.375-5.306,5.306-5.306C126.436,63.06,128.812,65.435,128.812,68.366L128.812,68.366z"
		/>
</g>
</svg>
