<?xml version="1.0" encoding="utf-8"?>
<!-- Generator: Adobe Illustrator 19.1.0, SVG Export Plug-In . SVG Version: 6.00 Build 0)  -->
<svg version="1.1" id="Layer_1" xmlns="http://www.w3.org/2000/svg" xmlns:xlink="http://www.w3.org/1999/xlink" x="0px" y="0px"
	 viewBox="0 0 400 400" enable-background="new 0 0 400 400" xml:space="preserve">
<g>
	<path fill="#D0AD3F" d="M216.082,350.908c8.939-9.386,14.525-15.866,28.157-20.783c13.632-4.916,34.638-14.078,59.666-30.614
		c25.029-16.536,78.255-58.544,86.259-131.847c8.492-77.767-44.135-131.735-44.135-131.735
		c-15.755,11.062-39.889,22.291-82.293,20.112c-42.403-2.179-64.191-22.626-64.191-22.626s-21.788,20.447-64.191,22.626
		c-42.403,2.179-66.538-9.051-82.293-20.112c0,0-52.627,53.968-44.135,131.735c8.004,73.303,61.23,115.31,86.259,131.847
		c25.029,16.536,46.035,25.698,59.666,30.614c13.631,4.916,19.218,11.397,28.157,20.783c8.939,9.386,16.537,21.677,16.537,21.677
		S207.144,360.293,216.082,350.908z"/>
	<path fill="#FFFFFF" d="M136.456,77.466c29.193-1.5,50.258-10.41,63.09-17.901c11.879,6.935,30.813,15.085,56.718,17.449
		c2.079,0.189,4.203,0.341,6.372,0.453c6.204,0.319,12.22,0.383,18.054,0.192c22.63-0.743,42.535-5.338,60.156-13.881
		c3.696,5.265,7.958,11.996,12.045,20c11.144,21.826,16.757,44.211,16.757,66.735c0,4.936-0.27,9.878-0.809,14.823
		c-3.023,27.682-13.84,53.29-32.152,76.115c-12.111,15.096-27.119,28.608-44.606,40.162c-23.291,15.388-42.829,23.902-55.118,28.333
		c-17.614,6.353-26.008,15.201-34.895,24.57l-1.519,1.598c-0.338,0.356-0.668,0.719-1.002,1.079
		c-0.334-0.36-0.664-0.723-1.002-1.079l-1.519-1.598c-8.888-9.369-17.282-18.217-34.895-24.57
		c-12.289-4.432-31.827-12.945-55.118-28.333c-17.487-11.554-32.495-25.066-44.606-40.162
		c-18.312-22.825-29.129-48.433-32.152-76.115c-0.54-4.945-0.81-9.887-0.81-14.823c0-22.524,5.613-44.909,16.757-66.735
		c4.087-8.004,8.349-14.734,12.045-20C80.409,74.522,106.186,79.021,136.456,77.466z"/>
	<path fill="#199642" d="M114.524,220.933c1.676,0,3.064,0.141,7.021,3.939c2.781,2.669,5.14,6.778,6.48,8.641
		c1.341,1.863,3.724,1.564,4.991,1.043c1.266-0.521,2.16-1.788,2.235-4.246c0.074-2.459-2.533-4.618-5.587-7.002
		c-3.054-2.384-4.991-3.749-4.991-3.749c21.352,0.154,26.878-2.185,34.433-6.81c5.037-3.084,9.381-7.492,11.987-12.412
		c0.534-1.295,1.626-2.132,3.041-2.579c1.415-0.447,5.14-1.788,9.014-4.32c3.873-2.533,5.065-6.034,5.065-9.535
		c0-2.626-1.173-3.827-1.76-4.263c-0.195-0.145-0.41,0.097-0.457,0.244c-1.319,4.161-4.949,6.166-7.467,7.893
		c-2.607,1.788-4.847,3.278-4.847,3.278c0.004-0.143,0.006-0.286,0.006-0.428v-4.264c0.074-3.65,4.469-6.108,10.279-10.279
		c3.996-2.869,4.991-5.363,4.767-8.343c-0.193-2.57-1.321-4.665-1.833-5.498c-0.154-0.251-0.37-0.249-0.581,0.083
		c-0.37,0.583-1.025,1.764-1.831,3.85c-1.266,3.277-2.607,4.768-6.108,7.3c-3.501,2.533-4.693,3.576-4.693,3.576v-3.65
		c0-1.192,6.481-7.747,9.46-10.652c2.979-2.905,2.756-6.853,2.011-10.056c-0.56-2.411-2.091-3.851-2.815-4.415
		c-0.237-0.186-0.431-0.153-0.503,0.08c-0.195,0.631-0.601,2.059-0.928,3.963c-0.447,2.607-1.192,3.799-3.128,6.257
		c-1.937,2.458-4.097,4.097-4.097,4.097v-9.013c0-0.67,4.991-4.544,8.939-8.715c3.948-4.171,4.171-9.014,3.128-11.025
		c-0.741-1.43-2.085-2.332-2.8-2.735c-0.29-0.164-0.504,0.06-0.523,0.215c-0.359,2.916-2.067,6.592-3.976,8.926
		c-2.011,2.458-4.767,3.725-4.767,3.725v-4.469c0.074-0.894,3.054-5.214,8.417-10.503c3.458-3.41,3.65-6.555,3.128-10.354
		c-0.409-2.978-3.06-4.72-4.187-5.334c-0.311-0.169-0.514-0.008-0.531,0.418c-0.033,0.863-0.099,2.475-0.199,4.32
		c-0.149,2.756-0.968,4.32-2.831,6.48c-1.862,2.16-3.799,3.799-3.799,3.799v-2.161c0-1.862,0.261-2.197,0.67-3.798
		c0.625-2.442,0.559-4.73-0.224-8.194c-0.609-2.696-1.788-4.469-1.788-8.268c0-3.324,1.112-8.958,1.39-10.315
		c0.04-0.194-0.266-0.289-0.426-0.278c-7.758,0.533-9.898,9.421-9.679,14.019c0.223,4.693,3.184,10.708,4.469,13.501
		c1.285,2.793,2.235,4.134,2.235,5.866v1.043c0,0-3.65-1.564-6.406-4.99c-2.647-3.292-3.027-5.346-3.911-9.928
		c-0.036-0.187-0.422-0.561-0.882-0.333c-0.621,0.308-1.513,1.006-2.283,2.589c-1.095,2.252-1.117,8.194,3.352,13.185
		c4.006,4.474,10.131,9.908,10.131,10.95v4.99c0,0-3.426-0.745-6.63-4.32c-2.998-3.347-4.234-8.325-5.602-10.659
		c-0.094-0.16-0.47-0.381-0.74-0.145c-0.473,0.414-1.202,1.37-1.629,3.504c-0.67,3.352-0.15,7.077,4.469,11.397
		c4.619,4.32,10.131,9.831,10.131,10.8v6.481c0,0-2.458-1.043-4.991-4.32c-2.443-3.161-3.291-5.56-4.418-9.602
		c-0.042-0.149-0.327-0.421-0.637-0.278c-0.613,0.283-1.652,0.996-2.394,2.728c-1.117,2.607-1.341,6.778,2.086,10.875
		c3.427,4.097,10.354,10.578,10.354,11.397v3.352c0,0-3.426-2.83-6.704-5.437c-3.215-2.556-5.426-4.899-7.618-10.047
		c-0.043-0.101-0.218-0.214-0.357-0.027c-0.414,0.562-1.27,1.972-1.486,4.263c-0.372,3.948,1.266,8.119,5.065,10.503
		c3.799,2.384,11.099,6.034,11.099,12.067v2.174c0,1.485-0.255,3.019-0.737,4.557c0,0-0.678-1.516-1.87-3.08
		c-1.192-1.565-3.948-4.618-7.375-8.045c-3.229-3.229-4.937-5.863-5.684-7.964c-0.046-0.129-0.215-0.295-0.355-0.129
		c-0.419,0.499-1.299,1.742-1.634,3.698c-0.447,2.607-0.447,7.822,4.171,11.174c4.317,3.133,7.756,4.807,8.939,6.108
		c1.49,1.639,1.641,2.855,0.411,4.78c-2.219,3.029-5.228,5.817-8.77,7.983c-7.404,4.528-12.5,6.861-38.961,6.196
		c-1.472-0.027-2.215-0.057-3.947-0.057l0,0c-1.732,0-2.475,0.03-3.947,0.057c-26.46,0.665-31.557-1.667-38.961-6.196
		c-3.543-2.167-6.551-4.954-8.77-7.983c-1.23-1.924-1.079-3.141,0.411-4.78c1.183-1.301,4.622-2.975,8.939-6.108
		c4.618-3.352,4.618-8.567,4.171-11.174c-0.335-1.956-1.215-3.199-1.634-3.698c-0.14-0.166-0.309,0.001-0.355,0.129
		c-0.747,2.101-2.454,4.734-5.683,7.964c-3.427,3.427-6.183,6.48-7.375,8.045c-1.192,1.564-1.87,3.08-1.87,3.08
		c-0.482-1.538-0.737-3.072-0.737-4.557v-2.174c0-6.034,7.3-9.684,11.099-12.067c3.799-2.384,5.437-6.555,5.065-10.503
		c-0.216-2.291-1.072-3.701-1.486-4.263c-0.138-0.187-0.314-0.075-0.357,0.027c-2.192,5.148-4.403,7.491-7.618,10.047
		c-3.278,2.607-6.704,5.437-6.704,5.437v-3.352c0-0.819,6.927-7.3,10.354-11.397c3.426-4.097,3.203-8.268,2.086-10.875
		c-0.742-1.733-1.781-2.445-2.394-2.728c-0.31-0.143-0.595,0.129-0.637,0.278c-1.126,4.042-1.975,6.44-4.418,9.602
		c-2.533,3.278-4.991,4.32-4.991,4.32v-6.481c0-0.969,5.512-6.48,10.131-10.8c4.618-4.32,5.14-8.045,4.469-11.397
		c-0.427-2.134-1.156-3.091-1.629-3.504c-0.27-0.236-0.646-0.014-0.74,0.145c-1.368,2.334-2.604,7.312-5.602,10.659
		c-3.203,3.575-6.63,4.32-6.63,4.32v-4.99c0-1.043,6.124-6.477,10.131-10.95c4.469-4.991,4.447-10.933,3.352-13.185
		c-0.77-1.583-1.663-2.281-2.283-2.589c-0.46-0.228-0.846,0.146-0.882,0.333c-0.885,4.582-1.264,6.636-3.911,9.928
		c-2.756,3.426-6.406,4.99-6.406,4.99v-1.043c0-1.732,0.95-3.073,2.235-5.866c1.285-2.793,4.246-8.808,4.469-13.501
		c0.219-4.598-1.921-13.486-9.679-14.019c-0.161-0.011-0.466,0.084-0.426,0.278c0.278,1.356,1.39,6.99,1.39,10.315
		c0,3.799-1.179,5.572-1.788,8.268c-0.782,3.464-0.848,5.752-0.223,8.194c0.409,1.601,0.67,1.937,0.67,3.798v2.161
		c0,0-1.936-1.639-3.799-3.799c-1.862-2.16-2.681-3.724-2.83-6.48c-0.1-1.846-0.166-3.457-0.199-4.32
		c-0.016-0.426-0.219-0.587-0.531-0.418c-1.127,0.614-3.778,2.356-4.187,5.334c-0.522,3.799-0.329,6.945,3.128,10.354
		c5.363,5.289,8.343,9.609,8.417,10.503v4.469c0,0-2.756-1.266-4.768-3.725c-1.909-2.334-3.617-6.01-3.976-8.926
		c-0.019-0.155-0.233-0.379-0.523-0.215c-0.715,0.402-2.059,1.305-2.8,2.735c-1.043,2.011-0.819,6.854,3.129,11.025
		c3.948,4.171,8.939,8.045,8.939,8.715v9.013c0,0-2.16-1.639-4.097-4.097c-1.937-2.458-2.682-3.649-3.128-6.257
		c-0.326-1.905-0.732-3.332-0.928-3.963c-0.072-0.233-0.266-0.266-0.503-0.08c-0.724,0.565-2.255,2.005-2.815,4.415
		c-0.745,3.203-0.968,7.151,2.011,10.056c2.979,2.905,9.46,9.46,9.46,10.652v3.65c0,0-1.192-1.043-4.693-3.576
		c-3.501-2.533-4.842-4.023-6.108-7.3c-0.806-2.087-1.462-3.268-1.831-3.85c-0.211-0.333-0.427-0.334-0.581-0.083
		c-0.512,0.833-1.641,2.928-1.833,5.498c-0.224,2.979,0.772,5.474,4.767,8.343c5.811,4.171,10.205,6.63,10.28,10.279v4.264
		c0,0.143,0.002,0.286,0.005,0.428c0,0-2.239-1.49-4.847-3.278c-2.519-1.726-6.148-3.731-7.467-7.893
		c-0.047-0.147-0.262-0.39-0.457-0.244c-0.586,0.437-1.76,1.638-1.76,4.263c0,3.501,1.192,7.002,5.065,9.535
		c3.874,2.533,7.599,3.873,9.013,4.32c1.415,0.447,2.507,1.284,3.042,2.579c2.606,4.92,6.949,9.328,11.987,12.412
		c7.555,4.625,13.081,6.965,34.433,6.81c0,0-1.937,1.365-4.991,3.749c-3.054,2.384-5.661,4.544-5.587,7.002
		c0.074,2.458,0.968,3.725,2.235,4.246c1.267,0.521,3.65,0.82,4.991-1.043c1.341-1.862,3.7-5.971,6.48-8.641
		C111.461,221.074,112.848,220.933,114.524,220.933L114.524,220.933z"/>
	<path fill="#D0AD3F" d="M114.524,213.587c0,0-1.899-2.067-3.966-3.631c-2.067-1.564-5.475-2.625-11.174-1.899
		c-5.699,0.726-12.89,1.704-16.313,0.055c-4.525-2.178-5.419-5.195-5.419-10.279v-81.349l-0.045-0.106l-8.726-17.988
		c0.95-0.447,1.788,0.279,2.459,0.559c0.67,0.279,2.402,0.279,4.525,0c2.123-0.279,2.626,1.509,2.626,2.905
		c0,1.397-1.061,1.788-1.061,1.788c-0.447-1.117-2.123-1.173-2.905-0.168c-0.782,1.006,0,2.011,1.452,3.631
		c1.453,1.62,3.576,2.235,4.972,1.844s1.327-1.788,0.894-2.402c-0.67-0.95-1.117-1.676-0.838-3.185
		c0.28-1.508,1.788-2.626,3.631-1.9c1.843,0.726,1.9,2.57,1.843,4.078c-0.045,1.219,2.626-0.056,3.687-1.173
		c1.061-1.117,1.341-2.57,1.117-4.19c-0.223-1.62-1.732-2.123-2.626-1.788c-0.894,0.335-1.731,1.9-1.731,1.9
		c-2.458-0.95-2.235-3.073-1.732-4.246c0.503-1.173,2.011-2.067,2.905-2.626c0.894-0.559,1.173-1.285,1.508-2.011
		c0.335-0.726,1.061-1.285,1.061-1.285c0.726,0,1.676,0.391,2.291,1.061c0.615,0.671,1.676,0.838,3.911,1.006
		c2.235,0.167,2.793,1.341,2.849,2.626c0.055,1.285-1.006,2.011-1.006,2.011c-0.615-1.229-2.905-0.615-3.799,0.503
		c-0.894,1.117-0.224,3.24,1.229,4.916c1.453,1.676,4.357,1.341,4.972,0.894c0.615-0.447-0.335-1.955-0.335-3.073
		c0-1.118,0.726-2.626,2.067-3.073c1.341-0.447,2.514,0.055,3.184,1.005c0.671,0.95,0.726,2.291,0.335,3.967
		c-0.391,1.676,1.899,1.508,3.073,0.726c1.293-0.862,2.514-2.849,3.017-6.257c0.312-2.112-0.635-2.629-1.62-2.458
		c-1.285,0.224-1.509,2.067-1.509,2.067s-2.941-0.495-2.681-3.519c0.167-1.955,1.732-2.793,2.961-3.017
		c1.229-0.223,2.701-0.718,3.352-1.564c0.559-0.726,1.564-1.117,1.564-1.117l0,0c0,0,1.006,0.391,1.564,1.117
		c0.651,0.846,2.123,1.341,3.352,1.564c1.229,0.224,2.793,1.062,2.961,3.017c0.259,3.024-2.681,3.519-2.681,3.519
		s-0.224-1.843-1.509-2.067c-0.984-0.171-1.932,0.347-1.62,2.458c0.503,3.408,1.724,5.395,3.017,6.257
		c1.173,0.782,3.463,0.95,3.073-0.726c-0.391-1.676-0.335-3.017,0.335-3.967c0.671-0.95,1.844-1.452,3.185-1.005
		c1.341,0.447,2.067,1.955,2.067,3.073c0,1.117-0.95,2.626-0.335,3.073c0.615,0.447,3.519,0.782,4.972-0.894
		c1.453-1.676,2.123-3.799,1.229-4.916c-0.894-1.118-3.184-1.732-3.799-0.503c0,0-1.061-0.726-1.005-2.011
		c0.056-1.285,0.615-2.459,2.849-2.626c2.235-0.168,3.296-0.335,3.911-1.006c0.615-0.67,1.565-1.061,2.291-1.061
		c0,0,0.726,0.558,1.061,1.285c0.335,0.726,0.614,1.452,1.508,2.011c0.894,0.559,2.402,1.452,2.905,2.626
		c0.503,1.173,0.726,3.297-1.732,4.246c0,0-0.838-1.565-1.732-1.9c-0.894-0.335-2.403,0.168-2.626,1.788
		c-0.223,1.62,0.056,3.073,1.117,4.19c1.061,1.117,3.732,2.392,3.687,1.173c-0.056-1.508,0-3.352,1.843-4.078s3.352,0.391,3.631,1.9
		c0.28,1.509-0.167,2.235-0.838,3.185c-0.433,0.614-0.502,2.011,0.894,2.402s3.519-0.224,4.972-1.844
		c1.453-1.62,2.235-2.625,1.453-3.631c-0.782-1.005-2.458-0.95-2.905,0.168c0,0-1.062-0.391-1.062-1.788
		c0-1.397,0.503-3.185,2.626-2.905c2.123,0.279,3.855,0.279,4.525,0c0.671-0.279,1.509-1.006,2.459-0.559l-8.726,17.988
		l-0.046,0.106v81.349c0,5.084-0.894,8.101-5.419,10.279c-3.423,1.648-10.615,0.671-16.313-0.055
		c-5.699-0.726-9.106,0.335-11.174,1.899C116.424,211.519,114.524,213.587,114.524,213.587z"/>
	<path d="M114.524,109.183c-2.828,0-5.55,0.119-8.099,0.338c-2.08,0.18-4.727,0.514-6.538,0.823
		c-7.542,1.285-10.503,2.29-13.743,4.301c-2.101,1.304-2.73,2.603-2.902,3.093l-0.007,0.036h62.579l-0.007-0.036
		c-0.172-0.49-0.8-1.789-2.902-3.093c-3.24-2.011-6.201-3.017-13.743-4.301c-1.812-0.309-4.458-0.644-6.538-0.823
		C120.075,109.302,117.352,109.183,114.524,109.183L114.524,109.183z"/>
	<path fill="#EF3E30" d="M147.877,121.292v76.54c0,4.706-0.814,5.851-3.426,7.108c-2.39,1.15-9.574,0.233-13.866-0.315l-0.475-0.061
		c-5.865-0.747-10.491,0.121-13.742,2.584c-0.649,0.491-1.272,1.018-1.843,1.529c-0.571-0.511-1.194-1.038-1.843-1.529
		c-3.254-2.462-7.877-3.331-13.742-2.584l-0.475,0.061c-4.292,0.548-11.477,1.465-13.866,0.315
		c-2.613-1.258-3.426-2.402-3.426-7.108v-76.54L147.877,121.292z"/>
	<path d="M114.495,167.185L91.28,200.341c-0.12,0.172-0.358,0.214-0.529,0.094l-2.179-1.525c-0.171-0.12-0.213-0.358-0.093-0.53
		l23.884-34.11l0.023-0.042l-14.118-19.229c0,0-1.105,0.759-4.347,3.14c-1.291,0.948-2.841,1.964-3.938,2.424
		c-1.153,0.483-3.019,0.433-3.943-0.484c-1.534-1.524-4.129-5.59-2.102-9.784c0,0,1.674,0.847,2.897,1.664
		c1.03,0.687,1.478-0.254,1.296-2.2c-0.181-1.946-0.168-2.656-0.168-2.656s0.98,0.292,2.498,0.945
		c1.51,0.649,2.913,1.439,2.589,0.127c-0.684-2.773-0.893-4.386-0.893-4.386l0,0c0,0,1.477,0.683,3.918,2.166
		c1.155,0.702,0.821-0.873,0.654-2.508c-0.168-1.644-0.153-2.666-0.153-2.666s0.681,0.2,2.484,0.955
		c1.802,0.756,2.834,0.61,2.486-0.578c-0.413-1.412-0.72-3.262-0.72-3.262c4.609-0.678,7.711,3.015,8.706,4.936
		c0.599,1.156,0.088,2.951-0.718,3.906c-0.767,0.909-2.2,2.084-3.492,3.032c-3.242,2.381-4.297,3.208-4.297,3.208l13.435,18.298
		l0.027-0.037l10.625-15.174c0,0-1.304-2.073-1.637-6.467c-0.309-4.067,1.195-6.869,4.148-9.235
		c2.952-2.366,4.984-2.443,4.984-2.443c-1.643,2.737-2.637,5.519-2.797,7.112c-0.054,0.534-0.211,1.569,0.421,1.932
		c0.535,0.307,1.153-0.284,1.946-1.025c1.12-1.048,6.417-6.146,6.417-6.146l0.001,0c0,0-2.978,6.722-3.581,8.132
		c-0.426,0.998-0.769,1.78-0.298,2.178c0.557,0.47,1.475-0.032,1.959-0.265c1.442-0.695,3.717-2.58,5.726-5.061
		c0,0,0.622,1.936-0.591,5.519c-1.213,3.583-3.333,5.955-7.26,7.056c-4.243,1.189-6.637,0.673-6.637,0.673l-11.277,16.104
		l-0.038,0.057l25.07,34.143c0.124,0.169,0.087,0.408-0.082,0.531l-2.144,1.574c-0.169,0.124-0.407,0.087-0.531-0.082
		l-24.383-33.208L114.495,167.185z"/>
	<path fill="#EF3E30" d="M284.101,166.886c10.471,0.294,14.078,2.179,14.833,3.771c0.788,1.663-0.335,2.263-2.849,4.19
		c-2.514,1.928-2.765,4.023-1.322,6.86l6.677,13.844c1.835,3.608,3.025,4.939,4.953,4.856c1.928-0.084,3.352-1.927,4.612-4.312
		l7.73-14.783c1.615-3.759,0.471-6.455-1.531-7.303c-2.179-0.922-3.436-2.095-2.514-3.855c0.881-1.683,5.028-2.933,9.888-3.268
		c4.861-0.335,14.079-0.251,17.012,0.67c2.933,0.922,3.938,2.263,3.938,3.855c0,1.592-3.268,2.262-6.034,2.849
		c-2.766,0.586-4.525,1.844-6.135,5.088l-26.08,49.876c-2.227,3.948-4.575,6.018-8.261,5.96c-5.279-0.084-6.285-1.089-10.445-8.843
		l-20.953-43.442c-2.206-4.699-3.798-6.123-7.066-6.878c-3.268-0.754-4.777-2.849-2.011-5.196
		C261.027,168.716,266.168,166.383,284.101,166.886z"/>
	<path fill="#EF3E30" d="M280.651,77.719l-32.374,55.857l0.316-0.09l29.295-8.399l0.128-0.04L197.364,264.2l-0.02-0.057
		l-7.368-29.979l-0.095,0.164l-25.922,44.725l-0.111,0.19l8.806,5.104l-32.037,13.589l-4.135-34.554l8.805,5.103l0.148-0.254
		l50.73-87.528l0.081,0.345l7.288,29.644l0.015,0.053l31.154-53.752l-27.022,7.748l-2.716,0.78l51.24-88.408l0.059-0.101
		c2.079,0.189,4.203,0.341,6.372,0.453c6.204,0.319,12.22,0.383,18.054,0.192L280.651,77.719z"/>
	<path d="M279.707,214.233c-2.266,2.172-7.668,14.056-10.689,20.76c-3.022,6.704-4.06,9.065-5.854,9.065
		c-1.794,0-4.212-5.327-7.743-13.786c-4.532-10.859-5.78-15.375-10.103-16.43c-3.872-0.944-8.309-0.377-12.37,0.944
		c-4.06,1.322-5.099,3.399-5.099,6.42c0,3.021,1.133,4.155,3.116,5.193c1.983,1.039,2.833,1.699,2.883,6.326v32.482
		c-0.051,3.021-1.467,3.682-3.261,4.91c-1.794,1.228-3.305,2.927-3.116,5.382c0.188,2.455,2.36,5.193,6.232,5.382
		c3.871,0.189,8.215,0.661,11.992-0.756c2.299-0.862,3.777-2.455,3.682-5.288c-0.072-2.173-1.039-3.399-2.738-4.438
		c-1.7-1.039-2.361-1.794-2.4-3.872v-14.163c-0.039-5.854,2.84-4.332,4.666,0.661c2.832,7.743,6.987,18.129,8.592,21.34
		c1.605,3.211,2.927,1.416,4.816-3.305c1.888-4.721,5.476-15.486,8.876-21.246c2.544-4.31,3.777-3.588,3.854,1.039v13.031
		c-0.077,3.777-0.549,5.948-2.438,8.12c-1.478,1.699-2.863,2.983-1.228,4.532c1.794,1.7,4.249,2.077,9.254,1.983
		c5.004-0.094,8.593-0.094,10.953-0.661c2.36-0.566,4.349-1.727,4.627-3.116c0.283-1.416-0.229-2.077-1.983-3.304
		c-1.889-1.322-3.109-2.172-3.396-12.464v-24.055l-0.018-0.025c-1.493-1.601-2.816-3.951-4.606-7.288l-0.027-0.051l-6.444-13.36
		L279.707,214.233z"/>
	<path d="M312.258,128.421c-3.268,0-4.274-1.508-4.274-3.771v-13.073c0.084-3.52,0.167-5.783,1.424-7.542
		c1.257-1.76,2.095-1.76,4.19-1.76c2.095,0,4.274,0.754,5.782,3.939c1.509,3.185,1.592,4.609,1.592,8.548
		c0,3.939-0.153,8.795-2.43,10.978C316.532,127.668,315.526,128.421,312.258,128.421z M339.583,176.99
		c1.247,0.093,2.505,0.122,3.746,0.122c6.988,0,11.237-1.794,14.069-5.193c2.454-2.946,1.803-7.014-1.417-8.121
		c-3.022-1.039-4.06-2.077-4.91-5.099c-0.85-3.022,0-8.026-2.927-14.919c-2.927-6.893-8.876-8.781-10.859-10.009
		c-1.983-1.227-0.378-3.022,2.171-4.91c2.17-1.607,7.703-6.233,7.46-16.996c-0.284-12.558-9.065-17.846-14.966-19.812
		c-5.834-1.944-12.235-1.676-19.945-1.006c-7.71,0.671-12.486,0.587-17.766,0.168c-5.853-0.465-9.805-0.754-13.324,1.173
		c-3.52,1.928-4.022,3.855-3.855,5.866c0.181,2.172,1.173,3.017,4.022,4.777c2.196,1.357,3.771,3.436,3.827,6.788v41.621
		c-0.03,4.899-0.691,8.11-3.524,10.376c-1.231,0.985-2.16,1.667-2.823,2.325l0.053-0.002c1.712-0.01,3.561,0.011,5.558,0.067l0,0
		c10.004,0.281,15.624,2.015,17.181,5.303c1.024,2.161,0.422,3.723-0.672,4.968l-0.038,0.048c2.947-0.095,5.448-0.322,7.179-0.623
		c1.745-0.304,3.104-0.675,4.156-1.094l-0.021-0.049c-0.143-0.399-0.261-0.907-0.261-1.499c0-0.684,0.157-1.48,0.613-2.35
		c0.457-0.872,1.207-1.586,2.135-2.17l0.039-0.022c-0.782-0.86-2.002-1.64-3.356-2.825c-1.92-1.68-2.549-4.91-2.549-6.232
		c0-1.322,0-8.026,0-13.03c0-5.005,0.755-6.421,4.343-6.232c3.588,0.189,5.288,2.455,6.799,6.137
		c1.335,3.255,2.965,11.305,5.217,19.651l0.049-0.013c4.562-0.263,13.87-0.285,17.402,0.825c4.807,1.511,5.816,4.321,5.816,6.413
		c0,3.743-4.46,4.688-8.044,5.448l-0.115,0.024c-0.121,0.026-0.238,0.052-0.352,0.08L339.583,176.99z"/>
</g>
</svg>
