<?xml version="1.0" encoding="utf-8"?>
<!-- Generator: Adobe Illustrator 19.1.0, SVG Export Plug-In . SVG Version: 6.00 Build 0)  -->
<svg version="1.1" id="Layer_1" xmlns="http://www.w3.org/2000/svg" xmlns:xlink="http://www.w3.org/1999/xlink" x="0px" y="0px"
	 viewBox="0 0 20 20" style="enable-background:new 0 0 20 20;" xml:space="preserve">
<style type="text/css">
	.st0{fill:#E25645;enable-background:new    ;}
	.st1{fill:#343536;}
	.st2{fill:#A69346;}
	.st3{fill:#E25645;}
	.st4{fill:#5A965C;}
	.st5{fill:#A69346;enable-background:new    ;}
	.st6{fill:#5A965C;enable-background:new    ;}
	.st7{fill:#FFFFFF;enable-background:new    ;}
	.st8{fill:#FFFFFF;}
	.st9{fill:#343536;enable-background:new    ;}
	.st10{fill:#9B633C;enable-background:new    ;}
	.st11{fill:#DE9159;enable-background:new    ;}
</style>
<g>
	<g>
		<path class="st0" d="M7.4,6.1l-0.6-1c0.6-1,1.6-0.9,1.6-0.9c0.1-0.3,0.8-0.3,0.8-0.3c0.6,0,0.7,0.2,0.7,0.2s0.2-0.2,0.7-0.2
			c0,0,0.7,0,0.8,0.3c0,0,1-0.1,1.6,0.9l-0.6,1H7.4z"/>
		<path class="st1" d="M10,4C9.9,4,9.7,3.8,9.2,3.8c0,0-0.7,0-0.8,0.3c-0.1,0-1-0.1-1.6,0.9l0,0l0.6,1.1h5.2l0.6-1.1l0,0
			c-0.6-1-1.5-0.9-1.6-0.9c-0.1-0.3-0.8-0.3-0.8-0.3C10.2,3.8,10,4,10,4z M10,4.1c0,0,0.2-0.2,0.7-0.2c0,0,0.7,0,0.8,0.3l0,0l0,0
			c0,0,0.9-0.1,1.6,0.9c0,0-0.6,1-0.6,1c0,0-5.1,0-5.1,0c0,0-0.6-1-0.6-1c0.6-1,1.6-0.9,1.6-0.9l0,0l0,0c0.1-0.3,0.8-0.3,0.8-0.3
			C9.8,3.9,9.9,4.1,10,4.1L10,4.1L10,4.1z"/>
	</g>
	<path class="st1" d="M10,5.7c-0.1,0-1.2,0-2.4,0.5c-0.1,0-0.1,0.2-0.1,0.3c0,0.1,0.2,0.1,0.3,0.1C8.8,6,9.9,6.1,9.9,6.1l0,0l0,0
		c0,0,1.1-0.1,2.2,0.5c0.1,0,0.2,0,0.3-0.1c0-0.1,0-0.2-0.1-0.3C11.2,5.6,10.1,5.7,10,5.7z"/>
	<path class="st2" d="M10,5.7c-0.1,0-1.2,0-2.4,0.5c-0.1,0-0.1,0.1-0.1,0.2c0,0.1,0.1,0.1,0.2,0.1C8.8,5.9,9.9,6,9.9,6l0,0l0,0
		c0,0,1.1-0.1,2.3,0.5c0.1,0,0.2,0,0.2-0.1c0-0.1,0-0.2-0.1-0.2C11.2,5.7,10.1,5.7,10,5.7z"/>
	<path class="st1" d="M7.3,6.1c-0.1,0-0.1,0.1,0,0.2c0,0.1,0.1,0.1,0.2,0c1-0.6,2.5-0.6,2.5-0.6c0,0,1.5,0,2.5,0.6
		c0.1,0,0.1,0,0.2,0c0-0.1,0-0.1,0-0.2c-1-0.6-2.6-0.6-2.7-0.6C9.9,5.5,8.3,5.5,7.3,6.1z"/>
	<path class="st2" d="M7.3,6.1C7.3,6.1,7.3,6.2,7.3,6.1c0,0.1,0,0.1,0.1,0.1c1-0.6,2.5-0.6,2.6-0.6c0,0,1.6,0,2.6,0.6
		c0,0,0.1,0,0.1,0c0,0,0-0.1,0-0.1c-1-0.6-2.6-0.6-2.6-0.6C9.9,5.5,8.4,5.5,7.3,6.1z"/>
	<path class="st1" d="M10,6C9.9,6,8.6,6,7.5,6.6c-0.1,0-0.1,0.1-0.1,0.2c0,0.1,0.1,0.1,0.2,0.1c1.1-0.6,2.3-0.5,2.4-0.5l0,0l0,0
		c0,0,1.3,0,2.4,0.5c0.1,0,0.1,0,0.2-0.1c0-0.1,0-0.1-0.1-0.2C11.3,6,10,6,10,6z"/>
	<path class="st2" d="M9.9,6.1c0,0-1.3-0.1-2.5,0.5c0,0,0,0.1,0,0.1c0,0,0.1,0,0.1,0c1.1-0.6,2.4-0.5,2.4-0.5c0,0,1.3,0,2.4,0.5
		c0,0,0.1,0,0.1,0c0,0,0-0.1,0-0.1C11.3,6,10,6.1,9.9,6.1z"/>
	<path class="st1" d="M9.7,5.7c-0.1,0-0.1,0.1-0.1,0.1C9.6,5.9,9.7,6,9.7,6h0.5c0.1,0,0.1-0.1,0.1-0.1c0-0.1-0.1-0.1-0.1-0.1H9.7z"
		/>
	<path class="st3" d="M9.7,5.8C9.7,5.8,9.7,5.8,9.7,5.8c-0.1,0.1,0,0.1,0,0.1h0.5c0,0,0.1,0,0.1-0.1c0,0,0-0.1-0.1-0.1H9.7z"/>
	<path class="st1" d="M12.1,6.1c-0.1,0-0.1,0-0.2,0.1c0,0.1,0,0.1,0.1,0.2l0.4,0.2c0.1,0,0.1,0,0.2-0.1c0-0.1,0-0.1-0.1-0.2
		L12.1,6.1z"/>
	<path class="st3" d="M12.1,6.2C12.1,6.2,12,6.2,12.1,6.2c-0.1,0.1-0.1,0.1,0,0.1l0.4,0.2c0,0,0.1,0,0.1,0c0,0,0-0.1,0-0.1L12.1,6.2
		z"/>
	<path class="st1" d="M11,5.8c-0.1,0-0.1,0-0.1,0.1c0,0.1,0,0.1,0.1,0.1l0.5,0.1c0.1,0,0.1,0,0.1-0.1c0-0.1,0-0.1-0.1-0.1L11,5.8z"
		/>
	<path class="st4" d="M11,5.9C11,5.9,11,5.9,11,5.9C10.9,6,11,6,11,6l0.5,0.1c0,0,0.1,0,0.1,0c0,0,0-0.1,0-0.1L11,5.9z"/>
	<path class="st1" d="M7.8,6.1c0.1,0,0.1,0,0.2,0.1c0,0.1,0,0.1-0.1,0.2L7.4,6.5c-0.1,0-0.1,0-0.2-0.1c0-0.1,0-0.1,0.1-0.2L7.8,6.1z
		"/>
	<path class="st3" d="M7.8,6.2C7.8,6.2,7.9,6.2,7.8,6.2c0.1,0.1,0.1,0.1,0,0.1L7.4,6.5c0,0-0.1,0-0.1,0c0,0,0-0.1,0-0.1L7.8,6.2z"/>
	<path class="st1" d="M8.9,5.8c0.1,0,0.1,0,0.1,0.1C9,6,9,6.1,8.9,6.1L8.5,6.2c-0.1,0-0.1,0-0.1-0.1c0-0.1,0-0.1,0.1-0.1L8.9,5.8z"
		/>
	<path class="st4" d="M8.9,5.9C8.9,5.9,8.9,5.9,8.9,5.9C9,6,8.9,6,8.9,6L8.5,6.1c0,0-0.1,0-0.1,0c0,0,0-0.1,0-0.1L8.9,5.9z"/>
	<g>
		<path class="st5" d="M10,5.4c0,0,0,0.1-0.4,0.1c0,0-0.3,0-0.3-0.1c0,0,0,0.1-0.3,0.2c0,0-0.2,0-0.4-0.1c0,0-0.1,0.2-0.3,0.2
			c0,0-0.2,0.1-0.3,0c0,0,0,0.1-0.2,0.2c0,0-0.4,0.1-0.5,0.1c0,0-0.1,0-0.3-0.4c0,0-0.1-0.2-0.2-0.2C6.7,5.4,6.6,5.4,6.6,5.4
			c-0.1,0-0.1,0.1-0.1,0.1C6.4,5.2,6.6,5,6.6,5c0-0.6,0.5-1.1,0.5-1.1c0.5-0.5,1-0.5,1-0.5c0.5,0,0.6,0.2,0.6,0.2
			c0.5-0.4,0.9-0.4,0.9-0.4V2.7c0,0,0-0.1,0.1-0.1V2.3H9.6V2h0.2V1.9H10h0.1V2h0.2v0.2h-0.2v0.3c0.1,0,0.1,0.1,0.1,0.1v0.5
			c0,0,0.4,0,0.9,0.4c0,0,0.2-0.2,0.6-0.2c0,0,0.5,0,1,0.5c0,0,0.5,0.5,0.5,1.1c0,0,0.2,0.1,0.2,0.4c0,0,0-0.1-0.1-0.1
			c0,0-0.1,0-0.1,0.1C13.1,5.5,13,5.7,13,5.7c-0.2,0.3-0.3,0.4-0.3,0.4c-0.1,0-0.5-0.1-0.5-0.1C12,5.9,12,5.7,12,5.7
			c-0.2,0.1-0.3,0-0.3,0c-0.2-0.1-0.3-0.2-0.3-0.2C11.2,5.6,11,5.6,11,5.6c-0.3,0-0.3-0.2-0.3-0.2c0,0.1-0.3,0.1-0.3,0.1
			C10,5.5,10,5.4,10,5.4z M10,4.2c0,0,0.2,0.1,0.2,0.3c0,0,0,0.2-0.1,0.3c0,0,0.2-0.1,0.4,0.1c0,0-0.1,0.2-0.4,0.1
			c0,0,0,0.3,0.3,0.3c0,0,0.2,0,0.3-0.1c0,0,0.1,0.2,0.3,0.2c0,0,0.2,0,0.3-0.3c0,0-0.3,0-0.4-0.2c0,0,0.3-0.1,0.5,0
			c0,0,0.4-1.2-1.2-1.6v0.4C10.2,3.9,10.2,4.1,10,4.2L10,4.2z M11.6,5.1C11.9,5,12,5.3,12,5.3s-0.2,0.2-0.5,0c0,0,0,0.3,0.2,0.4
			c0,0,0.2,0.1,0.3,0c0,0,0.1,0.2,0.2,0.3c0,0,0.3,0.1,0.4-0.2c0,0-0.3,0-0.4-0.3c0,0,0.2-0.1,0.5,0.1c0,0,0.2-0.3,0.2-0.6
			c0,0,0-0.5-0.4-0.8c0,0-0.4-0.3-0.8-0.3c0,0-0.3,0-0.4,0.1C11.3,3.8,11.8,4.3,11.6,5.1z M10,4.1c-0.3,0-0.3-0.3-0.3-0.3V3.5
			C8.2,3.8,8.5,5,8.5,5C8.7,4.9,9,5,9,5C8.9,5.2,8.6,5.2,8.6,5.2c0.1,0.3,0.3,0.3,0.3,0.3c0.2,0,0.3-0.2,0.3-0.2
			c0.1,0.1,0.3,0.1,0.3,0.1c0.3,0,0.3-0.3,0.3-0.3C9.6,5.2,9.5,5,9.5,5c0.2-0.2,0.4-0.1,0.4-0.1C9.8,4.7,9.8,4.5,9.8,4.5
			C9.8,4.3,10,4.2,10,4.1L10,4.1z M8.6,3.8C8.5,3.7,8.2,3.7,8.2,3.7C7.8,3.7,7.4,4,7.4,4C7,4.4,7,4.8,7,4.8c0,0.3,0.2,0.6,0.2,0.6
			c0.3-0.2,0.5-0.1,0.5-0.1C7.5,5.7,7.2,5.7,7.2,5.7C7.4,6,7.6,5.8,7.6,5.8c0.2-0.1,0.2-0.3,0.2-0.3c0.1,0.1,0.3,0,0.3,0
			c0.3-0.1,0.2-0.4,0.2-0.4c-0.2,0.2-0.5,0-0.5,0S8,5,8.3,5.1C8.1,4.3,8.6,3.8,8.6,3.8z"/>
		<path class="st1" d="M10.1,1.8H9.8c0,0,0,0.1,0,0.2c0,0-0.2,0-0.2,0v0.3c0,0,0.1,0,0.2,0c0,0,0,0.2,0,0.3c0,0-0.1,0-0.1,0
			c0,0,0,0.1,0,0.1c0,0,0,0,0,0c0,0,0,0.4,0,0.4c-0.1,0-0.5,0.1-0.9,0.4c-0.1,0-0.2-0.2-0.6-0.2c0,0-0.5,0-1,0.5
			c0,0-0.5,0.5-0.5,1.1c0,0-0.2,0.1-0.2,0.3c0,0,0,0.1,0,0.1l0,0.1l0-0.1c0,0,0-0.1,0.1-0.1c0,0,0,0,0.1,0.1
			c0.1,0.1,0.2,0.2,0.2,0.2C7.1,6,7.2,6.1,7.2,6.1C7.3,6.1,7.6,6,7.7,6c0.2-0.1,0.2-0.2,0.2-0.2c0.2,0.1,0.3,0,0.3,0
			c0.2-0.1,0.3-0.2,0.3-0.2c0.2,0.1,0.4,0.1,0.4,0.1c0.2,0,0.3-0.1,0.3-0.1c0.1,0.1,0.3,0.1,0.3,0.1c0.2,0,0.3-0.1,0.4-0.1
			c0,0,0.1,0.1,0.4,0.1c0,0,0.2,0,0.3-0.1c0,0,0.1,0.1,0.3,0.1c0,0,0.2,0,0.4-0.1c0,0.1,0.1,0.2,0.3,0.2c0,0,0.2,0,0.3,0
			c0,0,0.1,0.1,0.2,0.2c0,0,0.4,0.2,0.5,0.1c0,0,0.1-0.1,0.3-0.4c0,0,0.1-0.2,0.2-0.2c0.1,0,0.1-0.1,0.1-0.1c0.1,0,0.1,0.1,0.1,0.1
			l0,0.1l0-0.1c0,0,0-0.1,0-0.1c0-0.2-0.1-0.3-0.2-0.3c0-0.6-0.5-1.1-0.5-1.1c-0.5-0.5-1-0.5-1-0.5l0,0c-0.4,0-0.6,0.1-0.6,0.2
			c-0.4-0.3-0.8-0.4-0.9-0.4c0,0,0-0.4,0-0.4s0,0,0,0c0,0,0-0.1,0-0.1c0,0-0.1,0-0.1,0c0,0,0-0.2,0-0.3c0,0,0.2,0,0.2,0V2
			c0,0-0.1,0-0.2,0C10.1,2,10.1,1.8,10.1,1.8L10.1,1.8z M10,1.9c0,0,0.1,0,0.1,0c0,0,0,0.2,0,0.2s0.1,0,0.2,0c0,0,0,0.1,0,0.2
			c0,0-0.2,0-0.2,0v0.4h0c0,0,0.1,0,0.1,0c0,0,0,0.1,0,0.1l0,0.5l0,0c0,0,0.4,0,0.9,0.4l0,0l0,0c0,0,0.2-0.2,0.6-0.2
			c0,0,0.5,0,1,0.5c0,0,0.5,0.5,0.5,1.1v0l0,0c0,0,0.2,0.1,0.2,0.3c0,0,0,0,0,0c0,0-0.1,0-0.1,0c0,0-0.1,0-0.1,0.1
			c-0.1,0.1-0.2,0.2-0.2,0.3c-0.2,0.3-0.3,0.4-0.3,0.4c-0.1,0-0.3-0.1-0.4-0.1C12.1,5.9,12,5.7,12,5.7l0,0l0,0c-0.1,0.1-0.3,0-0.3,0
			c-0.2-0.1-0.3-0.2-0.3-0.2l0,0l0,0C11.2,5.6,11,5.6,11,5.6c-0.3,0-0.3-0.2-0.3-0.2l-0.1,0c0,0.1-0.2,0.1-0.3,0.1
			C10,5.5,10,5.4,10,5.4H9.9c0,0,0,0.1-0.4,0.1c-0.1,0-0.3,0-0.3-0.1l-0.1,0c0,0,0,0.1-0.3,0.2c0,0-0.2,0-0.4-0.1l0,0l0,0
			c0,0-0.1,0.2-0.3,0.2c0,0-0.2,0.1-0.3,0l0,0l0,0c0,0,0,0.1-0.2,0.2C7.5,6,7.3,6.1,7.2,6C7.2,6,7.1,6,7,5.7c0,0-0.1-0.2-0.2-0.3
			C6.7,5.4,6.6,5.4,6.6,5.4h0c-0.1,0-0.1,0-0.1,0c0,0,0,0,0-0.1c0-0.2,0.1-0.3,0.2-0.3l0,0l0,0c0-0.6,0.5-1.1,0.5-1.1
			c0.5-0.5,1-0.5,1-0.5h0c0.5,0,0.6,0.2,0.6,0.2l0,0l0,0c0.5-0.4,0.9-0.4,0.9-0.4l0,0V2.7c0,0,0,0,0-0.1c0,0,0,0,0.1,0h0V2.2
			c0,0-0.1,0-0.2,0c0,0,0-0.1,0-0.2c0,0,0.2,0,0.2,0s0-0.1,0-0.2C9.9,1.9,10,1.9,10,1.9z"/>
		<path class="st1" d="M10.2,3.5v0.4c0,0,0,0.1-0.1,0.2c0,0-0.1,0.1-0.2,0.1h0v0.1l0,0c0,0,0.2,0.1,0.2,0.3c0,0,0,0.2-0.1,0.3l0,0
			c0,0,0.2-0.1,0.4,0.1c0,0-0.1,0.2-0.4,0.1l0,0l0,0c0,0,0,0.4,0.4,0.4c0,0,0.2,0,0.3-0.1c0,0.1,0.1,0.2,0.3,0.2c0,0,0.3,0,0.4-0.3
			l0,0l0,0c0,0-0.3,0-0.4-0.2c0.1,0,0.3-0.1,0.4,0l0,0l0,0c0,0,0.1-0.5-0.1-0.9C11.1,3.8,10.7,3.5,10.2,3.5L10.2,3.5L10.2,3.5z
			 M10.2,4.1c0.1-0.1,0.1-0.2,0.1-0.2c0,0,0,0,0,0c0,0,0-0.3,0-0.4c0.5,0.1,0.8,0.3,1,0.6c0.1,0.2,0.2,0.4,0.2,0.6
			c0,0.1,0,0.2,0,0.3c-0.2-0.1-0.4,0-0.5,0l0,0l0,0c0.1,0.2,0.3,0.3,0.4,0.3C11.2,5.5,11,5.5,11,5.5c-0.2,0-0.3-0.2-0.3-0.2l0-0.1
			l0,0c-0.1,0.1-0.3,0.1-0.3,0.1c-0.2,0-0.3-0.2-0.3-0.3C10.4,5.2,10.5,5,10.5,5l0,0l0,0c-0.1-0.2-0.3-0.2-0.4-0.1
			c0.1-0.1,0.1-0.2,0.1-0.3c0,0,0,0,0,0c0-0.2-0.1-0.3-0.2-0.3c0,0,0,0,0,0C10.1,4.2,10.1,4.1,10.2,4.1z"/>
		<path class="st1" d="M11.3,3.8L11.3,3.8L11.3,3.8c0,0,0.5,0.5,0.3,1.3l0,0l0,0c0.3,0,0.4,0.1,0.4,0.2c-0.1,0-0.2,0.1-0.4,0l0,0
			l0,0c0,0,0,0.3,0.2,0.4c0,0,0.2,0.1,0.3,0c0,0.1,0.1,0.2,0.2,0.2c0,0,0.1,0.1,0.3,0c0.1,0,0.2-0.1,0.2-0.2l0,0l0,0
			c0,0-0.3,0-0.4-0.2c0.1,0,0.2-0.1,0.4,0.1l0,0l0,0c0,0,0.2-0.3,0.2-0.6c0,0,0-0.5-0.4-0.8c0,0-0.4-0.4-0.8-0.4
			C11.7,3.6,11.4,3.7,11.3,3.8z M11.7,3.7c0.4,0,0.8,0.3,0.8,0.3c0.4,0.3,0.4,0.8,0.4,0.8c0,0.2-0.1,0.5-0.2,0.6
			c-0.3-0.2-0.5,0-0.5,0l0,0l0,0c0.1,0.2,0.3,0.3,0.4,0.3c0,0.1-0.1,0.1-0.1,0.1c-0.1,0-0.2,0-0.2,0c-0.1-0.1-0.2-0.2-0.2-0.2l0,0
			l0,0c-0.1,0.1-0.3,0-0.3,0c-0.2-0.1-0.2-0.2-0.2-0.3c0,0,0,0,0,0c0.2,0.1,0.5,0,0.5,0l0,0l0,0c0,0-0.1-0.2-0.4-0.2
			c0-0.1,0.1-0.3,0.1-0.4c0-0.5-0.2-0.8-0.3-0.9C11.5,3.7,11.7,3.7,11.7,3.7z"/>
		<path class="st1" d="M9.7,3.4C9.2,3.5,8.8,3.8,8.6,4.1C8.4,4.5,8.5,5,8.5,5l0,0l0,0C8.7,4.9,8.9,5,9,5C8.9,5.2,8.6,5.2,8.6,5.2
			l0,0l0,0c0.1,0.3,0.4,0.3,0.4,0.3c0.2,0,0.3-0.1,0.3-0.2c0.1,0.1,0.3,0.1,0.3,0.1c0.3,0,0.4-0.3,0.4-0.4l0,0l0,0
			C9.6,5.1,9.5,5,9.5,5c0.1-0.2,0.3-0.1,0.4-0.1l0,0C9.8,4.7,9.8,4.5,9.8,4.5c0-0.2,0.2-0.3,0.2-0.3l0,0l0-0.1h0
			c-0.1,0-0.1,0-0.2-0.1C9.7,4,9.7,3.9,9.7,3.9L9.7,3.4L9.7,3.4z M8.5,4.7c0-0.2,0-0.4,0.2-0.6c0.2-0.3,0.5-0.5,1-0.6
			c0,0.1,0,0.4,0,0.4c0,0,0,0,0,0c0,0,0,0.1,0.1,0.2c0,0,0.1,0.1,0.2,0.1c0,0,0,0,0,0c0,0-0.2,0.1-0.2,0.3c0,0,0,0,0,0
			c0,0,0,0.2,0.1,0.3c-0.1,0-0.2,0-0.4,0.1l0,0l0,0c0,0,0.1,0.2,0.4,0.1c0,0.1-0.1,0.3-0.3,0.3c0,0-0.2,0-0.3-0.1l0,0l0,0.1
			c0,0-0.1,0.2-0.3,0.2c0,0-0.2,0-0.3-0.2c0.1,0,0.3,0,0.4-0.3l0,0l0,0c0,0-0.2-0.1-0.5,0C8.5,4.9,8.5,4.8,8.5,4.7z"/>
		<path class="st1" d="M7.3,4C6.9,4.3,6.9,4.8,6.9,4.8c0,0.3,0.2,0.6,0.2,0.6l0,0l0,0c0.2-0.1,0.4-0.1,0.4-0.1
			C7.5,5.6,7.2,5.6,7.2,5.6l0,0l0,0c0,0.1,0.1,0.2,0.2,0.2c0.1,0,0.2,0,0.3,0c0.1-0.1,0.2-0.2,0.2-0.2c0.1,0.1,0.3,0,0.3,0
			c0.3-0.1,0.2-0.4,0.2-0.4l0,0l0,0C8.2,5.4,8,5.3,7.9,5.3c0-0.1,0.2-0.2,0.4-0.2l0,0l0,0C8.1,4.3,8.6,3.8,8.6,3.8l0,0l0,0
			C8.5,3.7,8.2,3.6,8.2,3.6C7.7,3.6,7.4,4,7.3,4z M7,4.8c0,0,0-0.4,0.4-0.8c0,0,0.4-0.3,0.8-0.3c0,0,0.3,0,0.4,0.1
			C8.5,3.9,8.2,4.2,8.2,4.7c0,0.1,0,0.2,0.1,0.4C8,5,7.9,5.3,7.9,5.3l0,0l0,0c0,0,0.2,0.1,0.5,0c0,0,0,0,0,0c0,0.1,0,0.2-0.2,0.3
			c0,0-0.2,0.1-0.3,0l0,0l0,0c0,0-0.1,0.2-0.2,0.2c0,0-0.1,0-0.2,0c-0.1,0-0.1-0.1-0.1-0.1c0.1,0,0.3,0,0.4-0.3l0,0l0,0
			c0,0-0.2-0.1-0.5,0C7.1,5.3,7,5,7,4.8z"/>
	</g>
	<g>
		<rect x="11.1" y="3.7" transform="matrix(-0.7305 -0.683 0.683 -0.7305 16.8697 14.0805)" class="st1" width="0.3" height="0.1"/>
	</g>
	<g>
		<rect x="8.7" y="3.6" transform="matrix(-0.7066 -0.7077 0.7077 -0.7066 12.2058 12.484)" class="st1" width="0.1" height="0.3"/>
	</g>
	<g>
		<circle class="st0" cx="12.8" cy="5.6" r="0.2"/>
		<path class="st1" d="M12.7,5.6c0,0.1,0.1,0.2,0.2,0.2S13,5.7,13,5.6c0-0.1-0.1-0.2-0.2-0.2S12.7,5.5,12.7,5.6z M12.7,5.6
			c0-0.1,0.1-0.1,0.1-0.1S13,5.5,13,5.6c0,0.1-0.1,0.1-0.1,0.1S12.7,5.7,12.7,5.6z"/>
	</g>
	<g>
		<circle class="st0" cx="10" cy="5" r="0.2"/>
		<path class="st1" d="M9.8,5c0,0.1,0.1,0.2,0.2,0.2c0.1,0,0.2-0.1,0.2-0.2c0-0.1-0.1-0.2-0.2-0.2C9.9,4.8,9.8,4.9,9.8,5z M9.8,5
			c0-0.1,0.1-0.1,0.1-0.1c0.1,0,0.1,0.1,0.1,0.1C10.1,5,10,5.1,10,5.1C9.9,5.1,9.8,5,9.8,5z"/>
	</g>
	<g>
		<circle class="st6" cx="11.4" cy="5.1" r="0.2"/>
		<path class="st1" d="M11.3,5.1c0,0.1,0.1,0.2,0.2,0.2c0.1,0,0.2-0.1,0.2-0.2C11.6,5,11.5,5,11.4,5C11.3,5,11.3,5,11.3,5.1z
			 M11.3,5.1c0-0.1,0.1-0.1,0.1-0.1c0.1,0,0.1,0.1,0.1,0.1c0,0.1-0.1,0.1-0.1,0.1C11.4,5.3,11.3,5.2,11.3,5.1z"/>
	</g>
	<g>
		<circle class="st0" cx="7.1" cy="5.6" r="0.2"/>
		<path class="st1" d="M6.9,5.6c0,0.1,0.1,0.2,0.2,0.2c0.1,0,0.2-0.1,0.2-0.2c0-0.1-0.1-0.2-0.2-0.2C7,5.4,6.9,5.5,6.9,5.6z
			 M6.9,5.6c0-0.1,0.1-0.1,0.1-0.1c0.1,0,0.1,0.1,0.1,0.1c0,0.1-0.1,0.1-0.1,0.1C7,5.7,6.9,5.7,6.9,5.6z"/>
	</g>
	<g>
		<circle class="st6" cx="8.5" cy="5.1" r="0.2"/>
		<path class="st1" d="M8.3,5.1c0,0.1,0.1,0.2,0.2,0.2c0,0,0.1,0,0.1-0.1c0,0,0.1-0.1,0.1-0.1C8.6,5,8.6,5,8.5,5
			C8.4,5,8.3,5,8.3,5.1z M8.3,5.1C8.3,5.1,8.4,5,8.5,5c0.1,0,0.1,0.1,0.1,0.1c0,0,0,0.1,0,0.1c0,0-0.1,0-0.1,0
			C8.4,5.3,8.3,5.2,8.3,5.1z"/>
	</g>
	<g>
		<g>
			<circle class="st7" cx="11.8" cy="3.3" r="0.1"/>
			<path class="st1" d="M11.7,3.3c0,0.1,0.1,0.2,0.2,0.2c0.1,0,0.2-0.1,0.2-0.2c0-0.1-0.1-0.2-0.2-0.2C11.7,3.1,11.7,3.2,11.7,3.3z
				 M11.7,3.3c0-0.1,0.1-0.1,0.1-0.1c0.1,0,0.1,0.1,0.1,0.1c0,0.1-0.1,0.1-0.1,0.1C11.8,3.4,11.7,3.4,11.7,3.3z"/>
		</g>
		<g>
			<circle class="st7" cx="10" cy="3.8" r="0.2"/>
			<path class="st1" d="M9.8,3.8C9.8,3.9,9.9,4,10,4c0.1,0,0.2-0.1,0.2-0.2c0-0.1-0.1-0.2-0.2-0.2C9.9,3.7,9.8,3.7,9.8,3.8z
				 M9.8,3.8c0-0.1,0.1-0.1,0.1-0.1c0.1,0,0.1,0.1,0.1,0.1C10.1,3.9,10,4,10,4C9.9,4,9.8,3.9,9.8,3.8z"/>
		</g>
		<g>
			<circle class="st7" cx="10" cy="3.4" r="0.2"/>
			<path class="st1" d="M9.8,3.4c0,0.1,0.1,0.2,0.2,0.2c0.1,0,0.2-0.1,0.2-0.2c0-0.1-0.1-0.2-0.2-0.2C9.9,3.2,9.8,3.3,9.8,3.4z
				 M9.8,3.4c0-0.1,0.1-0.1,0.1-0.1c0.1,0,0.1,0.1,0.1,0.1c0,0.1-0.1,0.1-0.1,0.1C9.9,3.6,9.8,3.5,9.8,3.4z"/>
		</g>
		<g>
			<circle class="st7" cx="10" cy="3" r="0.2"/>
			<path class="st1" d="M9.8,3c0,0.1,0.1,0.2,0.2,0.2c0.1,0,0.2-0.1,0.2-0.2c0-0.1-0.1-0.2-0.2-0.2C9.9,2.8,9.8,2.9,9.8,3z M9.8,3
				c0-0.1,0.1-0.1,0.1-0.1c0.1,0,0.1,0.1,0.1,0.1c0,0.1-0.1,0.1-0.1,0.1C9.9,3.1,9.8,3.1,9.8,3z"/>
		</g>
		<g>
			<circle class="st7" cx="13.4" cy="4.9" r="0.1"/>
			<path class="st1" d="M13.3,4.9C13.3,5,13.3,5,13.4,5c0.1,0,0.2-0.1,0.2-0.2c0-0.1-0.1-0.2-0.2-0.2C13.3,4.7,13.3,4.8,13.3,4.9z
				 M13.3,4.9c0-0.1,0.1-0.1,0.1-0.1c0.1,0,0.1,0.1,0.1,0.1c0,0.1-0.1,0.1-0.1,0.1C13.4,5,13.3,4.9,13.3,4.9z"/>
		</g>
		<g>
			<circle class="st7" cx="13.3" cy="4.5" r="0.1"/>
			<path class="st1" d="M13.2,4.5c0,0.1,0.1,0.2,0.2,0.2c0.1,0,0.2-0.1,0.2-0.2s-0.1-0.2-0.2-0.2C13.2,4.3,13.2,4.4,13.2,4.5z
				 M13.2,4.5c0-0.1,0.1-0.1,0.1-0.1c0.1,0,0.1,0.1,0.1,0.1c0,0.1-0.1,0.1-0.1,0.1C13.3,4.6,13.2,4.5,13.2,4.5z"/>
		</g>
		<g>
			<circle class="st7" cx="13.1" cy="4.1" r="0.1"/>
			<path class="st1" d="M13,4.1c0,0.1,0.1,0.2,0.2,0.2c0.1,0,0.2-0.1,0.2-0.2c0-0.1-0.1-0.2-0.2-0.2C13,3.9,13,4,13,4.1z M13,4.1
				C13,4,13.1,4,13.1,4s0.1,0.1,0.1,0.1c0,0.1-0.1,0.1-0.1,0.1S13,4.2,13,4.1z"/>
		</g>
		<g>
			<circle class="st7" cx="12.9" cy="3.8" r="0.1"/>
			<path class="st1" d="M12.7,3.8c0,0.1,0.1,0.2,0.2,0.2C13,4,13,3.9,13,3.8c0-0.1-0.1-0.2-0.2-0.2C12.8,3.6,12.7,3.7,12.7,3.8z
				 M12.8,3.8c0-0.1,0.1-0.1,0.1-0.1c0.1,0,0.1,0.1,0.1,0.1c0,0.1-0.1,0.1-0.1,0.1C12.8,3.9,12.8,3.9,12.8,3.8z"/>
		</g>
		<g>
			<circle class="st7" cx="12.6" cy="3.6" r="0.1"/>
			<path class="st1" d="M12.4,3.6c0,0.1,0.1,0.2,0.2,0.2c0.1,0,0.2-0.1,0.2-0.2c0-0.1-0.1-0.2-0.2-0.2C12.5,3.4,12.4,3.5,12.4,3.6z
				 M12.5,3.6c0-0.1,0.1-0.1,0.1-0.1c0.1,0,0.1,0.1,0.1,0.1c0,0.1-0.1,0.1-0.1,0.1C12.5,3.7,12.5,3.6,12.5,3.6z"/>
		</g>
		<g>
			<circle class="st7" cx="12.2" cy="3.4" r="0.1"/>
			<path class="st1" d="M12,3.4c0,0.1,0.1,0.2,0.2,0.2c0.1,0,0.2-0.1,0.2-0.2c0-0.1-0.1-0.2-0.2-0.2C12.1,3.2,12,3.3,12,3.4z
				 M12.1,3.4c0-0.1,0.1-0.1,0.1-0.1c0.1,0,0.1,0.1,0.1,0.1c0,0.1-0.1,0.1-0.1,0.1C12.2,3.5,12.1,3.5,12.1,3.4z"/>
		</g>
		<g>
			<circle class="st7" cx="11.5" cy="3.3" r="0.1"/>
			<path class="st1" d="M11.3,3.3c0,0.1,0.1,0.2,0.2,0.2s0.2-0.1,0.2-0.2c0-0.1-0.1-0.2-0.2-0.2S11.3,3.2,11.3,3.3z M11.3,3.3
				c0-0.1,0.1-0.1,0.1-0.1c0.1,0,0.1,0.1,0.1,0.1c0,0.1-0.1,0.1-0.1,0.1C11.4,3.4,11.3,3.4,11.3,3.3z"/>
		</g>
		<g>
			<circle class="st7" cx="11.7" cy="4.3" r="0.1"/>
			<path class="st1" d="M11.6,4.3c0,0.1,0.1,0.2,0.2,0.2c0.1,0,0.2-0.1,0.2-0.2s-0.1-0.2-0.2-0.2C11.6,4.1,11.6,4.2,11.6,4.3z
				 M11.6,4.3c0-0.1,0.1-0.1,0.1-0.1c0.1,0,0.1,0.1,0.1,0.1c0,0.1-0.1,0.1-0.1,0.1C11.7,4.4,11.6,4.3,11.6,4.3z"/>
		</g>
		<g>
			<circle class="st7" cx="11.6" cy="3.9" r="0.1"/>
			<path class="st1" d="M11.4,3.9c0,0.1,0.1,0.2,0.2,0.2c0.1,0,0.2-0.1,0.2-0.2c0-0.1-0.1-0.2-0.2-0.2C11.5,3.7,11.4,3.8,11.4,3.9z
				 M11.5,3.9c0-0.1,0.1-0.1,0.1-0.1c0.1,0,0.1,0.1,0.1,0.1C11.7,4,11.6,4,11.6,4C11.5,4,11.5,4,11.5,3.9z"/>
		</g>
		<g>
			<circle class="st7" cx="11.3" cy="3.6" r="0.1"/>
			<path class="st1" d="M11.2,3.6c0,0.1,0.1,0.2,0.2,0.2c0.1,0,0.2-0.1,0.2-0.2c0-0.1-0.1-0.2-0.2-0.2C11.3,3.4,11.2,3.5,11.2,3.6z
				 M11.2,3.6c0-0.1,0.1-0.1,0.1-0.1c0.1,0,0.1,0.1,0.1,0.1c0,0.1-0.1,0.1-0.1,0.1C11.3,3.7,11.2,3.7,11.2,3.6z"/>
		</g>
		<g>
			<circle class="st7" cx="11.1" cy="3.4" r="0.1"/>
			<path class="st1" d="M10.9,3.4c0,0.1,0.1,0.2,0.2,0.2c0.1,0,0.2-0.1,0.2-0.2c0-0.1-0.1-0.2-0.2-0.2C11,3.2,10.9,3.3,10.9,3.4z
				 M10.9,3.4c0-0.1,0.1-0.1,0.1-0.1c0.1,0,0.1,0.1,0.1,0.1c0,0.1-0.1,0.1-0.1,0.1C11,3.5,10.9,3.4,10.9,3.4z"/>
		</g>
		<g>
			<circle class="st7" cx="10.7" cy="3.2" r="0.1"/>
			<path class="st1" d="M10.6,3.2c0,0.1,0.1,0.2,0.2,0.2c0.1,0,0.2-0.1,0.2-0.2c0-0.1-0.1-0.2-0.2-0.2C10.6,3,10.6,3.1,10.6,3.2z
				 M10.6,3.2c0-0.1,0.1-0.1,0.1-0.1c0.1,0,0.1,0.1,0.1,0.1c0,0.1-0.1,0.1-0.1,0.1C10.7,3.3,10.6,3.2,10.6,3.2z"/>
		</g>
		<g>
			<circle class="st7" cx="10.4" cy="3.1" r="0.1"/>
			<path class="st1" d="M10.2,3.1c0,0.1,0.1,0.2,0.2,0.2c0.1,0,0.2-0.1,0.2-0.2c0-0.1-0.1-0.2-0.2-0.2C10.3,2.9,10.2,3,10.2,3.1z
				 M10.3,3.1c0-0.1,0.1-0.1,0.1-0.1c0.1,0,0.1,0.1,0.1,0.1c0,0.1-0.1,0.1-0.1,0.1C10.3,3.2,10.3,3.1,10.3,3.1z"/>
		</g>
		<g>
			<circle class="st7" cx="6.5" cy="4.9" r="0.1"/>
			<path class="st1" d="M6.3,4.9C6.3,5,6.4,5,6.5,5S6.7,5,6.7,4.9c0-0.1-0.1-0.2-0.2-0.2S6.3,4.8,6.3,4.9z M6.4,4.9
				c0-0.1,0.1-0.1,0.1-0.1c0.1,0,0.1,0.1,0.1,0.1C6.6,4.9,6.5,5,6.5,5C6.4,5,6.4,4.9,6.4,4.9z"/>
		</g>
		<g>
			<circle class="st7" cx="6.6" cy="4.5" r="0.1"/>
			<path class="st1" d="M6.4,4.5c0,0.1,0.1,0.2,0.2,0.2s0.2-0.1,0.2-0.2S6.7,4.3,6.6,4.3S6.4,4.4,6.4,4.5z M6.5,4.5
				c0-0.1,0.1-0.1,0.1-0.1c0.1,0,0.1,0.1,0.1,0.1c0,0.1-0.1,0.1-0.1,0.1C6.5,4.6,6.5,4.5,6.5,4.5z"/>
		</g>
		<g>
			<circle class="st7" cx="6.8" cy="4.1" r="0.1"/>
			<path class="st1" d="M6.6,4.1c0,0.1,0.1,0.2,0.2,0.2S7,4.2,7,4.1C7,4,6.9,3.9,6.8,3.9S6.6,4,6.6,4.1z M6.7,4.1C6.7,4,6.7,4,6.8,4
				C6.8,4,6.9,4,6.9,4.1c0,0.1-0.1,0.1-0.1,0.1C6.7,4.2,6.7,4.2,6.7,4.1z"/>
		</g>
		<g>
			<circle class="st7" cx="7" cy="3.8" r="0.1"/>
			<path class="st1" d="M6.9,3.8C6.9,3.9,6.9,4,7,4c0.1,0,0.2-0.1,0.2-0.2c0-0.1-0.1-0.2-0.2-0.2C6.9,3.6,6.9,3.7,6.9,3.8z M6.9,3.8
				C6.9,3.7,7,3.7,7,3.7c0.1,0,0.1,0.1,0.1,0.1c0,0.1-0.1,0.1-0.1,0.1C7,3.9,6.9,3.9,6.9,3.8z"/>
		</g>
		<g>
			<circle class="st7" cx="7.3" cy="3.6" r="0.1"/>
			<path class="st1" d="M7.2,3.6c0,0.1,0.1,0.2,0.2,0.2c0.1,0,0.2-0.1,0.2-0.2c0-0.1-0.1-0.2-0.2-0.2C7.2,3.4,7.2,3.5,7.2,3.6z
				 M7.2,3.6c0-0.1,0.1-0.1,0.1-0.1c0.1,0,0.1,0.1,0.1,0.1c0,0.1-0.1,0.1-0.1,0.1C7.3,3.7,7.2,3.6,7.2,3.6z"/>
		</g>
		<g>
			<circle class="st7" cx="7.7" cy="3.4" r="0.1"/>
			<path class="st1" d="M7.5,3.4c0,0.1,0.1,0.2,0.2,0.2s0.2-0.1,0.2-0.2c0-0.1-0.1-0.2-0.2-0.2S7.5,3.3,7.5,3.4z M7.6,3.4
				c0-0.1,0.1-0.1,0.1-0.1c0.1,0,0.1,0.1,0.1,0.1c0,0.1-0.1,0.1-0.1,0.1C7.6,3.5,7.6,3.5,7.6,3.4z"/>
		</g>
		<g>
			<circle class="st7" cx="8.1" cy="3.3" r="0.1"/>
			<path class="st1" d="M7.9,3.3c0,0.1,0.1,0.2,0.2,0.2c0.1,0,0.2-0.1,0.2-0.2c0-0.1-0.1-0.2-0.2-0.2C8,3.1,7.9,3.2,7.9,3.3z M8,3.3
				C8,3.2,8,3.2,8.1,3.2c0.1,0,0.1,0.1,0.1,0.1c0,0.1-0.1,0.1-0.1,0.1C8,3.4,8,3.4,8,3.3z"/>
		</g>
		<g>
			<circle class="st7" cx="8.5" cy="3.3" r="0.1"/>
			<path class="st1" d="M8.3,3.3c0,0.1,0.1,0.2,0.2,0.2c0.1,0,0.2-0.1,0.2-0.2c0-0.1-0.1-0.2-0.2-0.2C8.4,3.1,8.3,3.2,8.3,3.3z
				 M8.3,3.3c0-0.1,0.1-0.1,0.1-0.1c0.1,0,0.1,0.1,0.1,0.1c0,0.1-0.1,0.1-0.1,0.1C8.4,3.4,8.3,3.4,8.3,3.3z"/>
		</g>
		<g>
			<circle class="st7" cx="8.2" cy="4.3" r="0.1"/>
			<path class="st1" d="M8,4.3c0,0.1,0.1,0.2,0.2,0.2c0.1,0,0.2-0.1,0.2-0.2S8.3,4.1,8.2,4.1C8.1,4.1,8,4.2,8,4.3z M8.1,4.3
				c0-0.1,0.1-0.1,0.1-0.1c0.1,0,0.1,0.1,0.1,0.1c0,0.1-0.1,0.1-0.1,0.1C8.1,4.4,8.1,4.3,8.1,4.3z"/>
		</g>
		<g>
			<circle class="st7" cx="8.3" cy="3.9" r="0.1"/>
			<path class="st1" d="M8.2,3.9c0,0.1,0.1,0.2,0.2,0.2c0.1,0,0.2-0.1,0.2-0.2c0-0.1-0.1-0.2-0.2-0.2C8.2,3.7,8.2,3.8,8.2,3.9z
				 M8.2,3.9c0-0.1,0.1-0.1,0.1-0.1c0.1,0,0.1,0.1,0.1,0.1C8.4,4,8.4,4,8.3,4C8.3,4,8.2,4,8.2,3.9z"/>
		</g>
		<g>
			<circle class="st7" cx="8.6" cy="3.6" r="0.1"/>
			<path class="st1" d="M8.4,3.6c0,0.1,0.1,0.2,0.2,0.2c0.1,0,0.2-0.1,0.2-0.2c0-0.1-0.1-0.2-0.2-0.2C8.5,3.4,8.4,3.5,8.4,3.6z
				 M8.4,3.6c0-0.1,0.1-0.1,0.1-0.1c0.1,0,0.1,0.1,0.1,0.1c0,0.1-0.1,0.1-0.1,0.1C8.5,3.7,8.4,3.7,8.4,3.6z"/>
		</g>
		<g>
			<circle class="st7" cx="8.9" cy="3.4" r="0.1"/>
			<path class="st1" d="M8.7,3.4c0,0.1,0.1,0.2,0.2,0.2C8.9,3.6,9,3.5,9,3.4c0-0.1-0.1-0.2-0.2-0.2C8.8,3.2,8.7,3.3,8.7,3.4z
				 M8.7,3.4c0-0.1,0.1-0.1,0.1-0.1C8.9,3.3,9,3.3,9,3.4c0,0.1-0.1,0.1-0.1,0.1C8.8,3.5,8.7,3.4,8.7,3.4z"/>
		</g>
		<g>
			<circle class="st7" cx="9.2" cy="3.2" r="0.1"/>
			<path class="st1" d="M9,3.2c0,0.1,0.1,0.2,0.2,0.2c0.1,0,0.2-0.1,0.2-0.2C9.3,3.1,9.3,3,9.2,3C9.1,3,9,3.1,9,3.2z M9.1,3.2
				c0-0.1,0.1-0.1,0.1-0.1c0.1,0,0.1,0.1,0.1,0.1c0,0.1-0.1,0.1-0.1,0.1C9.1,3.3,9.1,3.2,9.1,3.2z"/>
		</g>
		<g>
			<circle class="st7" cx="9.5" cy="3.1" r="0.1"/>
			<path class="st1" d="M9.3,3.1c0,0.1,0.1,0.2,0.2,0.2c0.1,0,0.2-0.1,0.2-0.2c0-0.1-0.1-0.2-0.2-0.2C9.4,2.9,9.3,3,9.3,3.1z
				 M9.4,3.1c0-0.1,0.1-0.1,0.1-0.1c0.1,0,0.1,0.1,0.1,0.1c0,0.1-0.1,0.1-0.1,0.1C9.4,3.2,9.4,3.1,9.4,3.1z"/>
		</g>
	</g>
	<circle class="st1" cx="10" cy="11.8" r="5.6"/>
	<path class="st2" d="M4.4,11.8c0,3.1,2.5,5.6,5.6,5.6s5.6-2.5,5.6-5.6c0-3.1-2.5-5.6-5.6-5.6S4.4,8.7,4.4,11.8z M4.7,11.8
		C4.7,8.9,7,6.5,10,6.5c2.9,0,5.3,2.4,5.3,5.3c0,2.9-2.4,5.3-5.3,5.3C7,17.1,4.7,14.7,4.7,11.8z"/>
	<path class="st2" d="M6,11.8c0,2.2,1.8,4,4,4c2.2,0,4-1.8,4-4c0-2.2-1.8-4-4-4C7.8,7.8,6,9.6,6,11.8z M6.3,11.8
		c0-2,1.7-3.7,3.7-3.7c2,0,3.7,1.7,3.7,3.7c0,2-1.7,3.7-3.7,3.7C7.9,15.5,6.3,13.9,6.3,11.8z"/>
	<path class="st8" d="M4.7,11.8c0,2.9,2.3,5.2,5.2,5.2s5.2-2.3,5.2-5.2c0-2.9-2.3-5.2-5.2-5.2S4.7,8.9,4.7,11.8z M5.9,11.8
		c0-2.2,1.8-4,4-4c2.2,0,4,1.8,4,4c0,2.2-1.8,4-4,4C7.7,15.9,5.9,14.1,5.9,11.8z"/>
	<g>
		<path class="st9" d="M5,12l0-0.3c0-0.1,0-0.2,0.2-0.2c0.1,0,0.2,0.1,0.2,0.2l0,0.3L5,12z M5.4,12l0-0.3c0-0.1,0.1-0.2,0.2-0.2
			c0,0,0.2,0,0.2,0l0-0.1h0c0,0,0,0-0.1,0l-0.2,0c-0.1,0-0.1,0.1-0.2,0.1c0-0.1-0.1-0.1-0.2-0.1c-0.2,0-0.2,0.1-0.2,0.3l0,0.4l0.9,0
			l0-0.1L5.4,12z"/>
		<path class="st1" d="M5,11.7l0,0.3l0.3,0l0-0.3c0,0,0-0.2-0.2-0.2C5,11.6,5,11.6,5,11.7z M5,11.7c0-0.1,0-0.1,0.1-0.1c0,0,0,0,0,0
			c0.1,0,0.1,0.1,0.1,0.2c0,0,0,0.2,0,0.3c0,0-0.3,0-0.3,0C5,12,5,11.7,5,11.7z"/>
		<path class="st1" d="M5.8,11.4C5.7,11.4,5.7,11.4,5.8,11.4l-0.2,0c-0.1,0-0.1,0-0.2,0.1c0-0.1-0.1-0.1-0.2-0.1
			c-0.2,0-0.3,0.1-0.3,0.3l0,0.4l0.9,0l0-0.1c0,0-0.4,0-0.4,0c0,0,0-0.3,0-0.3c0-0.1,0-0.1,0-0.1c0,0,0.1,0,0.1,0c0,0,0,0,0,0
			c0,0,0.2,0,0.2,0l0,0L5.8,11.4L5.8,11.4L5.8,11.4z M5.4,11.6c0,0,0-0.1,0.2-0.1l0.2,0c0,0,0.1,0,0.1,0c0,0,0,0,0,0
			c0,0,0,0.1,0,0.1c-0.1,0-0.2,0-0.2,0c0,0,0,0,0,0C5.5,11.6,5.5,11.6,5.4,11.6c0,0.1,0,0.1,0,0.2l0,0.3c0,0,0.4,0,0.4,0
			c0,0,0,0.1,0,0.1c0,0-0.8,0-0.9,0c0,0,0-0.4,0-0.4c0-0.1,0-0.3,0.2-0.3c0,0,0,0,0,0C5.2,11.5,5.3,11.5,5.4,11.6L5.4,11.6L5.4,11.6
			z"/>
	</g>
	<g>
		<path class="st9" d="M6,10.6l-0.1,0.6L4.9,11l0.1-0.6l0.1,0l-0.1,0.5L5.3,11l0.1-0.5l0.1,0L5.4,11l0.3,0.1l0.1-0.5L6,10.6z"/>
		<path class="st1" d="M5.1,10.4L4.9,11l0.9,0.2L6,10.6l-0.1,0c0,0-0.1,0.5-0.1,0.5c0,0-0.2-0.1-0.3-0.1c0,0,0.1-0.5,0.1-0.5l-0.1,0
			c0,0-0.1,0.5-0.1,0.5c0,0-0.2,0-0.2-0.1c0,0,0.1-0.5,0.1-0.5L5.1,10.4L5.1,10.4z M5.1,10.4C5.1,10.4,5.1,10.4,5.1,10.4
			c0.1,0,0,0.5,0,0.5L5.3,11c0,0,0.1-0.5,0.1-0.5c0,0,0.1,0,0.1,0c0,0-0.1,0.5-0.1,0.5l0.3,0.1c0,0,0.1-0.5,0.1-0.5c0,0,0.1,0,0.1,0
			c0,0-0.1,0.6-0.1,0.6C5.8,11.2,5,11,5,11C5,11,5.1,10.4,5.1,10.4z"/>
	</g>
	<g>
		<path class="st9" d="M5.8,10.1L5.5,9.8l0,0l0.4,0L5.8,10.1z M6,9.8l0.3,0l0.1-0.1l-1-0.1L5.3,9.8L6,10.5L6,10.3l-0.2-0.2L6,9.8z"
			/>
		<path class="st1" d="M5.4,9.8l0.3,0.3l0.1-0.3L5.4,9.8L5.4,9.8z M5.5,9.8c0.1,0,0.3,0,0.4,0c0,0-0.1,0.2-0.1,0.2
			C5.7,10,5.5,9.8,5.5,9.8z"/>
		<path class="st1" d="M5.4,9.6L5.3,9.8L6,10.5l0.1-0.1c0,0-0.2-0.2-0.2-0.2c0,0,0.1-0.3,0.1-0.3c0,0,0.3,0,0.3,0l0.1-0.1L5.4,9.6
			L5.4,9.6z M5.4,9.7c0,0,0.9,0.1,0.9,0.1c0,0,0,0.1,0,0.1c0,0-0.3,0-0.3,0l-0.2,0.3c0,0,0.2,0.2,0.2,0.2c0,0,0,0.1,0,0.1
			c0,0-0.6-0.6-0.7-0.7C5.3,9.8,5.4,9.7,5.4,9.7z"/>
	</g>
	<g>
		<path class="st9" d="M6.4,9.4l0.3-0.4l0.1,0.1L6.4,9.6L5.7,9.1L5.8,9L6.4,9.4z"/>
		<path class="st1" d="M5.7,9L5.7,9.1l0.8,0.5l0.4-0.5L6.7,9.1c0,0-0.2,0.3-0.3,0.4C6.4,9.4,5.7,9,5.7,9L5.7,9z M5.8,9
			c0,0,0.6,0.5,0.6,0.5s0.2-0.3,0.3-0.4c0,0,0,0,0.1,0c0,0-0.3,0.4-0.3,0.4C6.4,9.6,5.7,9.1,5.8,9C5.7,9.1,5.7,9,5.8,9z"/>
	</g>
	<g>
		<path class="st9" d="M7.4,7.6l0.3-0.1c0.1,0,0.1-0.1,0.2,0.1c0.1,0.1,0,0.2-0.1,0.2L7.5,7.8L7.4,7.6z M7.6,7.9l0.3-0.1
			C7.9,7.7,8,7.8,8,7.9c0,0,0.1,0.1,0.1,0.2L8.3,8l0,0c0,0-0.1,0-0.1-0.1L8.1,7.8C8.1,7.7,8,7.7,7.9,7.7c0-0.1,0.1-0.1,0-0.2
			C7.9,7.2,7.7,7.3,7.6,7.3L7.2,7.5l0.4,0.8l0.1-0.1L7.6,7.9z"/>
		<path class="st1" d="M7.6,7.4L7.3,7.6l0.2,0.3l0.3-0.1c0.1,0,0.1-0.1,0.1-0.1c0,0,0-0.1,0-0.1C7.8,7.4,7.7,7.4,7.6,7.4z M7.6,7.4
			c0.1,0,0.1-0.1,0.2,0c0,0,0,0.1,0,0.1c0,0,0,0,0,0c0,0,0,0.1-0.1,0.1c0,0-0.2,0.1-0.2,0.1c0,0-0.1-0.2-0.1-0.2
			C7.4,7.6,7.6,7.4,7.6,7.4z"/>
		<path class="st1" d="M7.6,7.3L7.2,7.5l0.4,0.8l0.1-0.1c0,0-0.2-0.3-0.2-0.3c0,0,0.2-0.1,0.2-0.1C7.9,7.7,8,7.8,8,7.9
			c0,0,0.1,0.1,0.1,0.2l0,0L8.3,8l0,0h0c0,0,0,0-0.1-0.1L8.1,7.8C8.1,7.7,8,7.6,8,7.6c0,0,0-0.1,0-0.1c0,0,0-0.1,0-0.1
			C7.9,7.3,7.7,7.2,7.6,7.3z M7.6,7.4c0.1-0.1,0.3-0.1,0.4,0.1c0.1,0.1,0,0.2,0,0.2l0,0l0,0c0.1,0,0.1,0,0.2,0.1l0.1,0.1
			c0,0,0,0.1,0.1,0.1c0,0,0,0,0,0C8.3,8,8.2,8,8.2,8c0,0-0.1-0.1-0.1-0.2c0-0.1-0.1-0.1-0.2-0.1L7.5,7.9c0,0,0.2,0.3,0.2,0.3
			c0,0-0.1,0-0.1,0c0,0-0.4-0.7-0.4-0.8C7.3,7.5,7.6,7.4,7.6,7.4z"/>
	</g>
	<g>
		<path class="st9" d="M8.5,7.5l0-0.4l0,0l0.2,0.3L8.5,7.5z M8.9,7.5L9,7.7l0.1,0L8.6,6.9L8.5,7l-0.1,1l0.1,0l0-0.3L8.9,7.5z"/>
		<path class="st1" d="M8.5,7.1l0,0.4l0.3-0.1L8.5,7.1L8.5,7.1z M8.6,7.1c0,0,0.2,0.3,0.2,0.3c0,0-0.2,0.1-0.2,0.1
			C8.5,7.5,8.6,7.2,8.6,7.1z"/>
		<path class="st1" d="M8.6,6.9L8.4,7L8.4,8l0.1,0c0,0,0-0.3,0-0.3c0,0,0.3-0.1,0.3-0.1c0,0,0.2,0.2,0.2,0.2l0.2,0L8.6,6.9L8.6,6.9z
			 M8.6,7c0,0,0.5,0.7,0.5,0.7c0,0-0.1,0-0.1,0c0,0-0.2-0.2-0.2-0.2L8.5,7.6c0,0,0,0.3,0,0.3c0,0-0.1,0-0.1,0c0,0,0.1-0.9,0.1-0.9
			C8.5,7,8.6,7,8.6,7z"/>
	</g>
	<g>
		<path class="st9" d="M9.9,7c0-0.2-0.2-0.2-0.3-0.2C9.4,6.9,9.3,7,9.3,7.2c0,0.2,0.1,0.4,0.3,0.4c0.1,0,0.2-0.1,0.2-0.3l0.1,0
			c0,0.3-0.3,0.4-0.4,0.4c-0.2,0-0.4-0.1-0.4-0.4c0-0.3,0.1-0.5,0.4-0.5C9.8,6.7,9.9,6.9,10,7L9.9,7z"/>
		<path class="st1" d="M9.6,6.7c-0.1,0-0.2,0.1-0.3,0.1C9.2,7,9.2,7.1,9.2,7.2c0,0.2,0.1,0.3,0.2,0.4c0.1,0.1,0.2,0.1,0.3,0.1
			c0.1,0,0.4-0.1,0.4-0.4l0,0l-0.1,0l0,0c0,0.2-0.2,0.2-0.2,0.3c-0.1,0-0.1,0-0.2-0.1C9.4,7.5,9.3,7.4,9.3,7.2c0-0.1,0-0.2,0.1-0.3
			c0-0.1,0.1-0.1,0.2-0.1c0.1,0,0.2,0,0.3,0.2l0,0L10,7l0,0C10,6.9,9.8,6.7,9.6,6.7z M9.4,7.6C9.3,7.5,9.2,7.4,9.2,7.2
			c0-0.1,0-0.3,0.1-0.4c0.1-0.1,0.2-0.1,0.3-0.1C9.8,6.7,9.9,6.9,10,7c0,0-0.1,0-0.1,0C9.8,6.8,9.7,6.8,9.6,6.8
			c-0.1,0-0.2,0-0.2,0.1C9.3,7,9.3,7.1,9.3,7.2C9.3,7.4,9.4,7.5,9.4,7.6c0.1,0,0.2,0,0.3,0c0.1,0,0.2,0,0.2-0.3c0,0,0.1,0,0.1,0
			c0,0.3-0.3,0.3-0.3,0.4C9.5,7.7,9.4,7.7,9.4,7.6z"/>
	</g>
	<g>
		<path class="st9" d="M10.4,7.7l-0.1,0l0.1-0.9l0.1,0L10.4,7.7z"/>
		<path class="st1" d="M10.3,6.8l-0.1,0.9l0.1,0l0.1-0.9L10.3,6.8L10.3,6.8z M10.3,6.8C10.3,6.8,10.4,6.8,10.3,6.8
			c0.1,0,0,0.8,0,0.9c0,0-0.1,0-0.1,0C10.3,7.6,10.3,6.8,10.3,6.8z"/>
	</g>
	<g>
		<path class="st9" d="M11.4,7l0.1,0l-0.2,0.9l-0.1,0L10.9,7l0,0l-0.2,0.7l-0.1,0l0.2-0.9l0.1,0l0.3,0.8l0,0L11.4,7z"/>
		<path class="st1" d="M10.8,6.8l-0.2,0.9l0.1,0c0,0,0.1-0.6,0.2-0.7c0,0.1,0.3,0.8,0.3,0.8l0.2,0L11.6,7l-0.1,0
			c0,0-0.1,0.6-0.2,0.7c0-0.1-0.2-0.8-0.2-0.8L10.8,6.8L10.8,6.8z M10.9,6.8c0,0,0.1,0,0.1,0c0,0,0.3,0.9,0.3,0.9l0,0
			c0,0,0.2-0.7,0.2-0.7c0,0,0.1,0,0.1,0c0,0-0.2,0.8-0.2,0.8c0,0-0.1,0-0.1,0c0,0-0.3-0.9-0.3-0.9l0,0c0,0-0.2,0.7-0.2,0.7
			c0,0-0.1,0-0.1,0C10.6,7.7,10.8,6.9,10.9,6.8z"/>
	</g>
	<g>
		<path class="st9" d="M12.1,7.7l0.3,0.2l-0.2,0.4l-0.1,0l0-0.1c-0.1,0-0.2,0-0.3,0c-0.1-0.1-0.2-0.2-0.2-0.2c-0.1-0.2,0-0.3,0-0.4
			c0.1-0.2,0.3-0.4,0.6-0.2c0.1,0.1,0.3,0.2,0.2,0.4l-0.1-0.1c0-0.2-0.1-0.2-0.2-0.3c-0.1-0.1-0.3,0-0.4,0.2
			c-0.1,0.2-0.1,0.4,0.1,0.5c0,0,0.1,0.1,0.2,0c0.1,0,0.2-0.1,0.2-0.2L12.1,7.7L12.1,7.7z"/>
		<path class="st1" d="M12,7.3c-0.1,0-0.2,0.1-0.3,0.3c0,0.1-0.1,0.2-0.1,0.4c0,0.1,0.1,0.2,0.2,0.2c0.1,0.1,0.2,0.1,0.3,0
			c0,0,0,0.1,0,0.1l0.1,0l0.2-0.5l-0.4-0.2L12,7.8c0,0,0.2,0.1,0.2,0.1c0,0.1-0.1,0.1-0.2,0.1c-0.1,0-0.1,0-0.2,0
			c-0.1,0-0.1-0.1-0.1-0.2c0-0.1,0-0.2,0.1-0.3c0.1-0.2,0.3-0.3,0.4-0.2c0.1,0,0.2,0.1,0.1,0.3l0,0l0.1,0.1l0,0
			c0.1-0.2-0.1-0.4-0.2-0.5C12.2,7.2,12.1,7.2,12,7.3z M11.9,8.1c-0.1-0.1-0.2-0.1-0.2-0.2c-0.1-0.2,0-0.3,0-0.4
			c0.1-0.1,0.2-0.2,0.3-0.2c0.1,0,0.2,0,0.3,0c0.1,0.1,0.2,0.2,0.2,0.3c0,0,0,0.1,0,0.1c0,0-0.1,0-0.1,0c0,0,0,0,0-0.1
			c0-0.1-0.1-0.2-0.2-0.2c-0.1-0.1-0.3,0-0.4,0.2c-0.1,0.1-0.1,0.2-0.1,0.3C11.8,8,11.8,8,11.9,8.1c0.1,0,0.2,0,0.2,0
			c0.1,0,0.2-0.1,0.2-0.2l0,0c0,0-0.2-0.1-0.2-0.1c0,0,0-0.1,0-0.1c0,0,0.3,0.2,0.3,0.2c0,0-0.2,0.4-0.2,0.4c0,0,0,0,0,0
			c0,0,0-0.1,0-0.1l0,0C12.1,8.2,12,8.2,11.9,8.1z"/>
	</g>
	<g>
		<path class="st9" d="M14,9.3C14.1,9.2,14.1,9,14,9c-0.1-0.1-0.3-0.2-0.5,0c-0.2,0.1-0.3,0.3-0.1,0.5c0,0.1,0.2,0.2,0.3,0.1
			l0.1,0.1c-0.3,0.2-0.5-0.1-0.5-0.1c-0.1-0.2-0.1-0.4,0.2-0.6c0.2-0.2,0.5-0.1,0.6,0.1C14.3,9.1,14.2,9.3,14,9.3L14,9.3z"/>
		<path class="st1" d="M13.5,8.8c-0.1,0.1-0.2,0.2-0.2,0.3c0,0.1,0,0.2,0.1,0.3c0,0.1,0.2,0.3,0.5,0.1l0,0l-0.1-0.1l0,0
			c-0.2,0.1-0.3,0-0.3-0.1c-0.1-0.2-0.1-0.3,0.1-0.4c0.1-0.1,0.2-0.1,0.3-0.1c0.1,0,0.1,0,0.2,0.1c0,0.1,0.1,0.2,0,0.3l0,0l0.1,0.1
			l0,0c0.1-0.1,0.2-0.3,0-0.5c-0.1-0.1-0.2-0.2-0.3-0.2C13.8,8.7,13.6,8.7,13.5,8.8z M13.4,9.4c-0.1-0.1-0.1-0.2-0.1-0.3
			c0-0.1,0.1-0.2,0.2-0.3c0.1-0.1,0.2-0.1,0.4-0.1c0.1,0,0.2,0.1,0.2,0.2c0.1,0.1,0.1,0.2,0.1,0.2c0,0.1,0,0.2-0.1,0.2
			c0,0,0-0.1-0.1-0.1c0-0.1,0.1-0.1,0.1-0.2c0-0.1,0-0.1-0.1-0.2c0-0.1-0.1-0.1-0.2-0.1c-0.1,0-0.2,0-0.3,0.1
			C13.4,9.1,13.3,9.2,13.4,9.4c0.1,0,0.2,0.1,0.4,0c0,0,0,0.1,0.1,0.1C13.6,9.7,13.4,9.5,13.4,9.4z"/>
	</g>
	<g>
		<path class="st9" d="M13.8,10l0.2,0.4l-0.1,0l-0.2-0.5l0.8-0.4l0,0.1L13.8,10z"/>
		<path class="st1" d="M14.5,9.5l-0.8,0.4l0.2,0.6l0.1-0.1c0,0-0.2-0.4-0.2-0.4c0,0,0.7-0.3,0.7-0.3L14.5,9.5L14.5,9.5z M14.5,9.6
			C14.5,9.6,14.5,9.6,14.5,9.6c0,0.1-0.7,0.4-0.7,0.4s0.2,0.4,0.2,0.4c0,0-0.1,0-0.1,0c0,0-0.2-0.5-0.2-0.5
			C13.7,9.9,14.5,9.6,14.5,9.6z"/>
	</g>
	<g>
		<path class="st9" d="M15,11.1l-0.6,0.1c-0.2,0-0.4,0-0.4-0.3c-0.1-0.2,0.1-0.4,0.2-0.4l0.6-0.1l0,0.1l-0.6,0.1
			c-0.2,0-0.2,0.2-0.2,0.3c0,0.1,0.1,0.2,0.3,0.2L15,11L15,11.1z"/>
		<path class="st1" d="M14.8,10.4l-0.6,0.1c-0.2,0-0.3,0.2-0.3,0.4c0,0.1,0.1,0.2,0.2,0.3c0.1,0,0.2,0.1,0.3,0l0.6-0.1l0-0.1
			l-0.6,0.1c-0.2,0-0.3-0.1-0.3-0.2c0,0,0-0.1,0-0.2c0,0,0.1-0.1,0.2-0.1l0.6-0.1L14.8,10.4L14.8,10.4z M14.2,11.2
			c-0.1,0-0.1-0.1-0.1-0.2c0,0,0-0.1,0-0.1c0-0.2,0.1-0.3,0.2-0.3c0,0,0.5-0.1,0.6-0.1c0,0,0,0.1,0,0.1c0,0-0.5,0.1-0.5,0.1
			c-0.1,0-0.1,0.1-0.2,0.1c0,0,0,0.1,0,0.1c0,0,0,0,0,0.1c0,0.1,0.1,0.2,0.3,0.2c0,0,0.5-0.1,0.5-0.1c0,0,0,0.1,0,0.1
			c0,0-0.6,0.1-0.6,0.1C14.3,11.2,14.2,11.2,14.2,11.2z"/>
	</g>
	<g>
		<path class="st9" d="M14.9,11.6l0,0.2c0,0.1,0,0.2-0.1,0.2c-0.1,0-0.1-0.1-0.1-0.2l0-0.2L14.9,11.6z M14.1,11.5l0,0.4
			c0,0.2,0.1,0.3,0.3,0.3c0.2,0,0.2-0.1,0.2-0.2c0,0.1,0.1,0.1,0.2,0.1c0.1,0,0.2-0.1,0.2-0.3l0-0.4L14.1,11.5z M14.5,11.6l0,0.2
			c0,0.1,0,0.2-0.2,0.2c-0.1,0-0.2-0.1-0.2-0.2l0-0.3L14.5,11.6z"/>
		<path class="st1" d="M14.6,11.6l0,0.2c0,0.1,0,0.1,0,0.2c0,0,0.1,0,0.1,0c0.1,0,0.1-0.1,0.1-0.2l0-0.2L14.6,11.6L14.6,11.6z
			 M14.8,12C14.7,12,14.7,12,14.8,12c-0.1-0.1-0.1-0.1-0.1-0.2c0,0,0-0.2,0-0.2c0,0,0.2,0,0.2,0c0,0,0,0.2,0,0.2
			C14.9,12,14.8,12,14.8,12z"/>
		<path class="st1" d="M14.1,11.5l0,0.4c0,0.1,0,0.2,0.1,0.2c0,0,0.1,0.1,0.2,0.1c0.1,0,0.2-0.1,0.2-0.1c0.1,0.1,0.1,0.1,0.2,0.1
			c0.1,0,0.2-0.1,0.2-0.3l0-0.4L14.1,11.5L14.1,11.5z M14.4,12.2c-0.1,0-0.1,0-0.2-0.1c-0.1-0.1-0.1-0.1-0.1-0.2c0,0,0-0.3,0-0.4
			c0,0,0.8,0,0.9,0c0,0,0,0.4,0,0.4c0,0.1-0.1,0.2-0.2,0.2c-0.1,0-0.1,0-0.2-0.1l0,0l0,0C14.6,12.1,14.5,12.2,14.4,12.2z"/>
		<path class="st1" d="M14.2,11.6l0,0.3c0,0.1,0.1,0.2,0.2,0.2c0,0,0.1,0,0.1,0c0,0,0.1-0.1,0.1-0.2l0-0.3L14.2,11.6L14.2,11.6z
			 M14.4,12.1c-0.1,0-0.1-0.1-0.1-0.2c0,0,0-0.2,0-0.2c0,0,0.3,0,0.3,0c0,0,0,0.2,0,0.2C14.5,12,14.5,12,14.4,12.1
			C14.5,12.1,14.4,12.1,14.4,12.1z"/>
	</g>
	<g>
		<path class="st9" d="M6.8,15c0.1-0.1,0.1-0.2,0-0.3c-0.1-0.1-0.2-0.1-0.3,0c-0.1,0.1,0,0.1,0,0.2L6.7,15c0.1,0.1,0.1,0.2,0,0.3
			c-0.2,0.1-0.3,0-0.4-0.1c-0.1-0.1-0.1-0.2-0.1-0.3c0-0.1,0-0.2,0.1-0.2l0.1,0.1c-0.1,0.1-0.1,0.2,0,0.3c0.1,0.1,0.2,0.2,0.3,0.1
			c0.1-0.1,0.1-0.1,0-0.2l-0.1-0.2c0-0.1-0.1-0.2,0-0.3c0.1-0.1,0.3-0.1,0.4,0C7.1,14.9,7,15,6.8,15L6.8,15z"/>
		<path class="st1" d="M6.4,14.6c-0.1,0.1-0.1,0.2,0,0.3L6.5,15c0.1,0.1,0.1,0.2,0,0.2c0,0-0.1,0-0.1,0c-0.1,0-0.1-0.1-0.2-0.1
			c0,0-0.1-0.1-0.1-0.2c0,0,0-0.1,0.1-0.1l0,0l-0.1-0.1l0,0c-0.1,0.1-0.1,0.1-0.1,0.2c0,0,0,0.1,0.1,0.3c0.1,0.1,0.3,0.2,0.5,0.1
			c0.1-0.1,0.1-0.2,0-0.3l-0.1-0.2c0-0.1,0-0.1,0-0.1c0,0,0.1,0,0.1,0c0.1,0,0.1,0.1,0.1,0.1c0,0,0.1,0.2,0,0.3l0,0l0.1,0.1l0,0
			c0.1-0.1,0.1-0.3,0-0.5C6.7,14.4,6.5,14.5,6.4,14.6z M6.5,15.3c0.1-0.1,0.1-0.1,0-0.3l-0.1-0.2c-0.1-0.1-0.1-0.2,0-0.3
			c0.1-0.1,0.2-0.1,0.4,0C7,14.7,7,14.8,7,14.9c0,0.1,0,0.1-0.1,0.2c0,0,0-0.1-0.1-0.1c0,0,0.1-0.1,0.1-0.1c0-0.1,0-0.1-0.1-0.2
			c0,0-0.1-0.1-0.2-0.1c0,0-0.1,0-0.1,0c-0.1,0.1,0,0.1,0,0.2l0.1,0.2C6.7,15.2,6.7,15.3,6.5,15.3c-0.1,0.2-0.3,0-0.3,0
			c-0.1-0.1-0.1-0.2-0.1-0.2c0,0,0,0,0,0c0-0.1,0-0.1,0.1-0.2c0,0,0,0.1,0.1,0.1c0,0-0.1,0.1-0.1,0.1c0,0,0,0,0,0
			c0,0.1,0.1,0.2,0.1,0.2c0,0,0.1,0.1,0.2,0.1C6.5,15.3,6.5,15.3,6.5,15.3z"/>
	</g>
	<g>
		<path class="st9" d="M7.1,15.6l0.3-0.2l0,0l-0.1,0.4L7.1,15.6z M7.3,15.9l-0.1,0.3l0.1,0.1l0.3-0.9l-0.1-0.1l-0.8,0.5l0.1,0.1
			L7,15.6L7.3,15.9z"/>
		<path class="st1" d="M7.4,15.3l-0.4,0.2l0.3,0.2L7.4,15.3L7.4,15.3z M7.4,15.4c0,0.1-0.1,0.3-0.1,0.3c0,0-0.2-0.1-0.2-0.1
			C7.1,15.6,7.4,15.4,7.4,15.4z"/>
		<path class="st1" d="M7.5,15.2l-0.8,0.5l0.1,0.1c0,0,0.2-0.1,0.2-0.2c0,0,0.3,0.2,0.3,0.2c0,0-0.1,0.3-0.1,0.3l0.1,0.1l0.3-0.9
			L7.5,15.2L7.5,15.2z M7.5,15.2C7.5,15.2,7.5,15.3,7.5,15.2c0.1,0.1-0.1,0.9-0.2,1c0,0-0.1-0.1-0.1-0.1c0,0,0.1-0.3,0.1-0.3L7,15.6
			c0,0-0.2,0.1-0.2,0.2c0,0-0.1,0-0.1-0.1C6.7,15.7,7.4,15.2,7.5,15.2z"/>
	</g>
	<g>
		<path class="st9" d="M8.5,15.8l0.1,0l-0.4,0.8l-0.1-0.1L8,15.7l0,0l-0.3,0.7l-0.1,0L8,15.5l0.1,0.1l0.1,0.8l0,0L8.5,15.8z"/>
		<path class="st1" d="M7.9,15.5l-0.4,0.8l0.1,0.1c0,0,0.2-0.6,0.3-0.6c0,0.1,0.1,0.8,0.1,0.8l0.1,0.1l0.4-0.9l-0.1-0.1
			c0,0-0.2,0.6-0.3,0.6c0-0.1-0.1-0.8-0.1-0.8L7.9,15.5L7.9,15.5z M8,15.5c0,0,0.1,0,0.1,0c0,0,0.1,0.9,0.1,0.9l0,0
			c0,0,0.3-0.6,0.3-0.7c0,0,0.1,0,0.1,0c0,0-0.3,0.8-0.3,0.8c0,0-0.1,0-0.1,0c0,0-0.1-0.9-0.1-0.9l0,0c0,0-0.3,0.6-0.3,0.7
			c0,0-0.1,0-0.1,0C7.6,16.3,8,15.6,8,15.5z"/>
	</g>
	<g>
		<path class="st9" d="M8.7,15.9L9.5,16l0,0.1L9.1,16L9,16.8l-0.1,0L9,16L8.7,16L8.7,15.9z"/>
		<path class="st1" d="M8.7,15.9l0,0.1C8.7,16,9,16,9,16c0,0-0.2,0.8-0.2,0.8l0.1,0c0,0,0.2-0.7,0.2-0.8c0,0,0.3,0.1,0.3,0.1l0-0.1
			L8.7,15.9L8.7,15.9z M8.8,15.9c0,0,0.7,0.1,0.7,0.1c0,0,0,0.1,0,0.1c0,0-0.3-0.1-0.3-0.1S9,16.8,9,16.8c0,0-0.1,0-0.1,0
			C8.9,16.8,9,16,9,16S8.8,16,8.8,15.9C8.7,15.9,8.8,15.9,8.8,15.9z"/>
	</g>
	<g>
		<path class="st9" d="M9.6,16.5l0.2-0.4h0l0.1,0.4L9.6,16.5z M9.9,16.7l0.1,0.3l0.1,0L9.9,16l-0.1,0l-0.4,0.9l0.1,0l0.1-0.3
			L9.9,16.7z"/>
		<path class="st1" d="M9.8,16.1l-0.2,0.4l0.3,0L9.8,16.1L9.8,16.1z M9.8,16.2c0,0.1,0.1,0.3,0.1,0.3c0,0-0.2,0-0.2,0
			C9.7,16.5,9.8,16.2,9.8,16.2z"/>
		<path class="st1" d="M9.7,16l-0.4,0.9l0.2,0c0,0,0.1-0.2,0.1-0.3c0,0,0.3,0,0.3,0c0,0,0.1,0.3,0.1,0.3l0.2,0L9.9,16L9.7,16L9.7,16
			z M9.7,16c0,0,0.1,0,0.1,0c0,0,0.3,0.8,0.3,0.9c0,0-0.1,0-0.1,0c0,0-0.1-0.3-0.1-0.3l-0.4,0c0,0-0.1,0.2-0.1,0.3c0,0-0.1,0-0.1,0
			C9.4,16.8,9.7,16,9.7,16z"/>
	</g>
	<g>
		<path class="st9" d="M10.9,15.9l0.1,0l0.2,0.9l-0.1,0l-0.6-0.6l0,0l0.1,0.7l-0.1,0L10.3,16l0.1,0l0.6,0.6l0,0L10.9,15.9z"/>
		<path class="st1" d="M11,15.9l-0.1,0c0,0,0.1,0.6,0.1,0.7C11,16.5,10.5,16,10.5,16l-0.2,0l0.2,0.9l0.1,0c0,0-0.1-0.6-0.1-0.7
			c0.1,0.1,0.6,0.6,0.6,0.6l0.2,0L11,15.9L11,15.9z M11,15.9c0,0,0.1,0.8,0.1,0.9c0,0-0.1,0-0.1,0c0,0-0.6-0.7-0.6-0.7l0,0
			c0,0,0.1,0.7,0.1,0.7c0,0-0.1,0-0.1,0c0,0-0.1-0.8-0.1-0.9c0,0,0.1,0,0.1,0c0,0,0.6,0.7,0.6,0.7l0,0C11.1,16.6,10.9,16,11,15.9
			C10.9,15.9,11,15.9,11,15.9z"/>
	</g>
	<g>
		<path class="st9" d="M11.4,15.9l0.2-0.1c0.2-0.1,0.3,0,0.4,0.2c0.1,0.2,0,0.4-0.1,0.4l-0.2,0.1L11.4,15.9z M11.6,16.7l0.3-0.1
			c0.3-0.1,0.3-0.4,0.2-0.6c-0.1-0.2-0.3-0.3-0.5-0.3l-0.3,0.1L11.6,16.7z"/>
		<path class="st1" d="M11.6,15.8l-0.2,0.1l0.3,0.7l0.2-0.1c0.2-0.1,0.2-0.2,0.1-0.4C11.9,15.8,11.8,15.7,11.6,15.8z M11.6,15.8
			c0.2-0.1,0.3,0,0.4,0.2c0,0.1,0,0.1,0,0.2c0,0.1,0,0.2-0.1,0.2c0,0-0.2,0.1-0.2,0.1c0,0-0.2-0.6-0.3-0.6
			C11.4,15.9,11.6,15.8,11.6,15.8z"/>
		<path class="st1" d="M11.6,15.7l-0.3,0.1l0.4,0.9l0.3-0.1c0.1,0,0.2-0.1,0.2-0.2c0.1-0.2,0-0.3,0-0.4c-0.1-0.1-0.1-0.2-0.2-0.3
			C11.8,15.6,11.7,15.6,11.6,15.7z M11.6,15.7c0.1,0,0.2,0,0.3,0c0.1,0,0.2,0.1,0.2,0.3c0,0,0,0.1,0,0.2c0,0,0,0.1,0,0.1
			c0,0.1-0.1,0.1-0.2,0.2c0,0-0.3,0.1-0.3,0.1c0,0-0.3-0.8-0.3-0.8C11.3,15.8,11.6,15.7,11.6,15.7z"/>
	</g>
	<g>
		<path class="st9" d="M13.1,15.8l-0.5,0.4l-0.5-0.7l0.5-0.4l0.1,0.1l-0.4,0.3l0.2,0.2l0.4-0.3l0.1,0.1l-0.4,0.3l0.2,0.2L13.1,15.8
			L13.1,15.8z"/>
		<path class="st1" d="M12.6,15.1l-0.5,0.4l0.5,0.8l0.6-0.4l-0.1-0.1c0,0-0.4,0.3-0.4,0.3c0,0-0.1-0.2-0.2-0.2c0,0,0.4-0.3,0.4-0.3
			l-0.1-0.1c0,0-0.4,0.3-0.4,0.3c0,0-0.1-0.2-0.1-0.2c0,0,0.4-0.3,0.4-0.3L12.6,15.1L12.6,15.1z M12.6,15.1
			C12.6,15.1,12.7,15.1,12.6,15.1c0,0.1-0.4,0.4-0.4,0.4l0.2,0.2c0,0,0.4-0.3,0.4-0.3c0,0,0,0.1,0,0.1c0,0-0.4,0.3-0.4,0.3l0.2,0.3
			c0,0,0.4-0.3,0.4-0.3c0,0,0,0.1,0,0.1c0,0-0.5,0.3-0.5,0.4c0,0-0.5-0.7-0.5-0.7C12.1,15.4,12.6,15.1,12.6,15.1z"/>
	</g>
	<g>
		<path class="st9" d="M12.9,14.9l0.2-0.2c0,0,0.1-0.1,0.2,0c0.1,0.1,0,0.2,0,0.2l-0.2,0.2L12.9,14.9z M13.2,15.2l0.2-0.2
			c0.1-0.1,0.2-0.1,0.2,0c0,0,0.1,0.1,0.2,0.1L14,15l0,0c0,0-0.1,0-0.1,0l-0.1-0.1c-0.1-0.1-0.1-0.1-0.2,0c0-0.1,0-0.1-0.1-0.2
			c-0.1-0.1-0.3-0.1-0.4,0.1l-0.3,0.3l0.7,0.6l0.1-0.1L13.2,15.2z"/>
		<path class="st1" d="M13.1,14.7l-0.2,0.2l0.2,0.2l0.2-0.2c0,0,0.1-0.1,0-0.3C13.3,14.6,13.2,14.6,13.1,14.7z M13.2,14.7
			c0-0.1,0.1-0.1,0.2,0c0,0,0.1,0.1,0.1,0.1c0,0,0,0.1-0.1,0.1c0,0-0.2,0.2-0.2,0.2c0,0-0.2-0.2-0.2-0.2
			C13,14.9,13.2,14.7,13.2,14.7z"/>
		<path class="st1" d="M13.3,14.5c-0.1,0-0.2,0-0.2,0.1l-0.3,0.3l0.7,0.6l0.1-0.1c0,0-0.3-0.2-0.3-0.3c0,0,0.2-0.2,0.2-0.2
			c0,0,0.1-0.1,0.1-0.1c0,0,0.1,0,0.1,0.1c0,0,0.1,0.1,0.2,0.1l0,0L14,15l0,0l0,0c0,0,0,0-0.1,0l-0.1-0.1c-0.1-0.1-0.1-0.1-0.2,0
			c0,0,0,0,0,0c0-0.1,0-0.1-0.1-0.2C13.4,14.5,13.3,14.5,13.3,14.5z M13.1,14.6c0-0.1,0.1-0.1,0.2-0.1c0.1,0,0.1,0,0.2,0.1
			c0.1,0.1,0.1,0.2,0.1,0.2l0,0l0,0c0,0,0.1,0,0.2,0l0.1,0.1c0,0,0.1,0,0.1,0c0,0-0.1,0.1-0.1,0.1c-0.1,0-0.1-0.1-0.2-0.1
			c0,0-0.1-0.1-0.1-0.1c0,0-0.1,0-0.1,0.1l-0.2,0.2c0,0,0.3,0.2,0.3,0.3c0,0-0.1,0.1-0.1,0.1c0,0-0.6-0.6-0.6-0.6
			C12.8,14.9,13.1,14.6,13.1,14.6z"/>
	</g>
	<g>
		<polygon class="st6" points="11.2,8.1 11.7,9.4 11.7,9.7 10.3,9.7 10.3,8.1 		"/>
		<path class="st1" d="M11.2,8.1h-0.9v1.6h1.4V9.4L11.2,8.1L11.2,8.1z M11.2,8.2c0,0,0.4,1.2,0.4,1.2c0,0,0,0.2,0,0.3
			c-0.1,0-1.2,0-1.3,0c0-0.1,0-1.4,0-1.5C10.4,8.2,11.1,8.2,11.2,8.2z"/>
	</g>
	<g>
		<path class="st6" d="M12.6,8.6c0,0-0.7,0.9-1.6,0.9c0,0-0.5,0-0.5-0.4c0,0,0-0.3,0.4-0.5c0,0,0.4-0.2,0.4-0.4c0,0,0-0.3-0.6-0.3
			c0,0-1,0-2,0.7c0,0-0.1,0.1-0.3,0.2c0,0.4,0.1,1,0.5,1.4c0,0-0.7,0.6-1.4,0.6c0.3,0.7,0.4,1.7,0.3,2.8c0,0,0.7,0.1,1.8-0.8
			c0,0,1-0.8,2-0.6c0,0,0,0.4,0.6,0.4c0,0,0.4,0,0.8-0.4c0,0,0.6-0.6,0.8-0.6C13.7,11.7,12.3,10.3,12.6,8.6z"/>
		<path class="st1" d="M10.7,7.9c0,0-1,0-2,0.7c0,0-0.1,0.1-0.3,0.2l0,0l0,0c0,0.4,0.1,1,0.5,1.4c-0.1,0.1-0.7,0.6-1.4,0.6l0,0l0,0
			c0.2,0.6,0.3,1.3,0.3,1.9c0,0.3,0,0.6-0.1,0.9l0,0l0,0c0,0,0.7,0,1.8-0.8c0,0,1-0.8,2-0.6c0,0.1,0.1,0.4,0.6,0.4
			c0,0,0.5,0,0.8-0.4c0.2-0.2,0.6-0.6,0.7-0.6h0.1l0,0c0,0-1.3-1.4-1.1-3.1l0-0.1l-0.1,0.1c0,0-0.7,0.9-1.6,0.9c0,0-0.2,0-0.4-0.1
			c-0.1-0.1-0.1-0.1-0.1-0.3c0,0,0-0.3,0.4-0.5c0,0,0.4-0.2,0.4-0.4c0,0,0-0.1-0.1-0.2C11.1,8,10.9,7.9,10.7,7.9L10.7,7.9z M8.7,8.7
			c1-0.7,1.9-0.7,2-0.7h0C11,8,11.1,8,11.1,8.1c0.1,0.1,0.1,0.1,0.1,0.1c0,0.2-0.3,0.4-0.3,0.4c-0.4,0.3-0.4,0.6-0.4,0.6
			c0,0.1,0,0.2,0.1,0.3c0.2,0.1,0.4,0.1,0.4,0.1c0,0,0,0,0,0c0.7,0,1.4-0.7,1.6-0.9c0,0.1,0,0.2,0,0.3c0,1.4,0.9,2.5,1.1,2.7
			c-0.2,0.1-0.7,0.5-0.7,0.6c-0.4,0.4-0.8,0.4-0.8,0.4c-0.5,0-0.5-0.4-0.5-0.4l0,0l0,0c-1-0.2-2.1,0.6-2.1,0.6
			c-0.9,0.7-1.6,0.8-1.7,0.8c0-0.3,0.1-0.6,0.1-0.9c0-0.6-0.1-1.2-0.3-1.9c0.7,0,1.4-0.6,1.4-0.6l0,0l0,0C8.5,9.9,8.4,9.3,8.4,8.9
			C8.6,8.8,8.7,8.7,8.7,8.7z"/>
	</g>
	<g>
		<path class="st7" d="M8.4,8.9C8,9.1,7.3,9.5,6.6,9.4c0,0,0.5,0.6,0.8,1.5c0.7,0,1.4-0.6,1.4-0.6C8.5,9.9,8.4,9.3,8.4,8.9z"/>
		<path class="st1" d="M8.4,8.9C8,9.1,7.3,9.4,6.6,9.3l-0.1,0l0,0.1c0,0,0.5,0.6,0.8,1.5l0,0l0,0c0.7,0,1.4-0.6,1.4-0.6l0,0l0,0
			C8.5,9.9,8.4,9.3,8.4,8.9L8.4,8.9L8.4,8.9z M8.3,8.9c0,0.4,0.1,1,0.5,1.3c-0.1,0.1-0.7,0.5-1.3,0.6c-0.3-0.8-0.7-1.3-0.8-1.5
			C7.3,9.5,8,9.2,8.3,8.9z"/>
	</g>
	<g>
		<path class="st1" d="M10.5,9.4c1.1,1.8,1,2.9,1,2.9l0.1,0C11.6,12.3,11.6,11.1,10.5,9.4L10.5,9.4z"/>
	</g>
	<g>
		<rect x="7.5" y="9.5" class="st1" width="0.1" height="0.8"/>
		<path class="st1" d="M7.4,9.6h0.4c0,0,0.2,0,0.2,0.2c0,0,0,0.1-0.2,0.1H7.5V10h0.3C8,10,8.1,9.8,8.1,9.8c0-0.1,0-0.1-0.1-0.2
			C7.9,9.5,7.8,9.5,7.8,9.5L7.4,9.6L7.4,9.6z"/>
		
			<rect x="7.7" y="10.1" transform="matrix(-0.4985 -0.8669 0.8669 -0.4985 3.0988 22.0844)" class="st1" width="0.4" height="0.1"/>
		<path class="st1" d="M7.7,9.5C7.7,9.5,7.7,9.5,7.7,9.5c0,0,0,0.1,0.3,0.4C8,10,8.2,10.2,8.2,10.3c0,0,0,0.2-0.2,0.2
			c0,0-0.1,0-0.2-0.1l-0.1,0C7.9,10.6,8,10.6,8,10.6c0.2,0,0.3-0.2,0.3-0.3C8.3,10.1,8,9.9,8,9.9C7.8,9.6,7.8,9.5,7.7,9.5
			C7.8,9.3,7.9,9.3,8,9.3c0.1,0,0.1,0.1,0.2,0.1l0.1,0c0,0-0.1-0.1-0.2-0.1C7.9,9.2,7.7,9.3,7.7,9.5z"/>
	</g>
	<g>
		<g>
			<path class="st10" d="M6.6,9.1L6.3,9.2l1.3,5.4c0.1,0.1,0.3,0.2,0.4,0.3L6.6,9.1z"/>
			<path class="st1" d="M6.6,9.1L6.2,9.2l1.4,5.4l0,0C7.7,14.8,7.9,14.9,8,15l0.1,0L6.6,9.1L6.6,9.1z M6.6,9.2
				c0,0.1,1.4,5.5,1.4,5.7c-0.1-0.1-0.2-0.2-0.3-0.2c0,0-1.3-5.3-1.3-5.4C6.3,9.2,6.5,9.2,6.6,9.2z"/>
		</g>
		<g>
			<ellipse transform="matrix(0.9702 -0.2421 0.2421 0.9702 -2.0114 1.8212)" class="st10" cx="6.4" cy="9.1" rx="0.3" ry="0.2"/>
			<path class="st1" d="M6.4,8.9C6.3,8.9,6.2,9,6.2,9.1c0,0,0,0.1,0,0.1c0,0.1,0.2,0.1,0.3,0.1c0.2,0,0.3-0.1,0.2-0.2l0,0
				c0,0,0-0.1-0.1-0.1C6.5,8.9,6.5,8.9,6.4,8.9z M6.2,9.1C6.2,9.1,6.2,9.1,6.2,9.1C6.2,9,6.3,9,6.4,9c0.1,0,0.2,0,0.2,0
				c0,0,0,0,0,0.1c0,0,0,0,0,0c0,0.1-0.1,0.1-0.2,0.2C6.3,9.2,6.2,9.2,6.2,9.1z"/>
		</g>
	</g>
	<g>
		<circle class="st11" cx="10" cy="14.4" r="1.2"/>
		<path class="st1" d="M9.1,13.5c-0.2,0.2-0.4,0.6-0.4,0.9c0,0.7,0.6,1.3,1.3,1.3c0.7,0,1.3-0.6,1.3-1.3c0-0.3-0.1-0.7-0.4-0.9
			c-0.2-0.2-0.6-0.4-0.9-0.4C9.6,13.2,9.3,13.3,9.1,13.5z M8.8,14.4c0-0.3,0.1-0.6,0.4-0.8c0.2-0.2,0.5-0.4,0.8-0.4
			c0.3,0,0.6,0.1,0.8,0.4c0.2,0.2,0.4,0.5,0.4,0.8c0,0.7-0.5,1.2-1.2,1.2C9.3,15.6,8.8,15.1,8.8,14.4z"/>
	</g>
	<g>
		<g>
			<path class="st1" d="M9.7,13.2c0,0,0.2,0.2,0.2,0.4c0,0.2-0.2,0.4-0.2,0.4l0,0c0,0,0.2-0.2,0.2-0.4C9.9,13.4,9.7,13.2,9.7,13.2
				L9.7,13.2z"/>
		</g>
		<g>
			<path class="st1" d="M8.7,14.1L8.7,14.1c0,0,0.3-0.2,0.7-0.2c0,0,0.4,0,0.4,0.4c0,0-0.1,0.3-0.3,0.4l0,0.1
				c0.2-0.1,0.3-0.4,0.3-0.4c0-0.4-0.4-0.4-0.4-0.4C9.1,13.9,8.8,14.1,8.7,14.1z"/>
		</g>
		<g>
			<path class="st1" d="M10.3,13.3c0.3,0.3,0.3,1,0.3,1C10.6,15,10,15,10,15c-0.2,0-0.3-0.2-0.3-0.2c-0.1-0.2-0.3-0.2-0.3-0.2
				c-0.2,0-0.5,0.2-0.5,0.3l0,0c0,0,0.3-0.2,0.5-0.2c0,0,0.2,0,0.3,0.2c0,0,0.1,0.3,0.4,0.3c0,0,0.7,0,0.7-0.8
				C10.6,14.2,10.7,13.6,10.3,13.3L10.3,13.3z"/>
		</g>
		<g>
			<path class="st1" d="M10.1,15c0,0,0,0.2,0.2,0.3c0.1,0.1,0.3,0.1,0.5,0.1l0-0.1c-0.2,0-0.3,0-0.4,0C10.2,15.1,10.2,15,10.1,15
				L10.1,15z"/>
		</g>
	</g>
</g>
</svg>
