<?xml version="1.0" encoding="utf-8"?>
<!-- Generator: Adobe Illustrator 19.1.0, SVG Export Plug-In . SVG Version: 6.00 Build 0)  -->
<svg version="1.1" id="Layer_1" xmlns="http://www.w3.org/2000/svg" xmlns:xlink="http://www.w3.org/1999/xlink" x="0px" y="0px"
	 viewBox="0 0 20 20" style="enable-background:new 0 0 20 20;" xml:space="preserve">
<style type="text/css">
	.st0{fill:#FFFFFF;enable-background:new    ;}
	.st1{fill:#343536;}
	.st2{fill:#E9CA67;enable-background:new    ;}
	.st3{fill:#E25645;enable-background:new    ;}
	.st4{fill:#DDA054;}
	.st5{fill:#007CB8;enable-background:new    ;}
	.st6{fill:#3B61A9;}
	.st7{fill:#FFFFFF;}
	.st8{fill:#007CB8;}
	.st9{fill:#00A685;}
	.st10{fill:#343536;enable-background:new    ;}
</style>
<g>
	<g>
		<path class="st0" d="M10.2,3.1c-0.1,0-0.1,0-0.2,0c-0.1,0-0.1,0-0.2,0c0,0,0,0,0,0c0,0,0,0,0,0c0.1,0,0.1,0,0.2,0
			C10.1,3.1,10.2,3.1,10.2,3.1C10.2,3.1,10.2,3.1,10.2,3.1C10.2,3.1,10.2,3.1,10.2,3.1L10.2,3.1z"/>
		<path class="st1" d="M9.8,3.1L9.8,3.1c0.1,0,0.3,0.1,0.3,0.1c0,0,0.2,0,0.2,0l0-0.1L9.8,3.1L9.8,3.1z M9.9,3.1
			C9.9,3.1,9.9,3.1,9.9,3.1c0,0,0.3,0,0.3,0c0,0,0,0,0,0C10.2,3.1,9.9,3.1,9.9,3.1L9.9,3.1z"/>
	</g>
	<g>
		<path class="st0" d="M9.3,3.1c0.1,0,0.1,0,0.2,0c0.1,0,0.1,0,0.2,0c0,0,0,0,0,0c0,0,0,0,0,0c-0.1,0-0.1,0-0.2,0
			C9.4,3.1,9.3,3.1,9.3,3.1C9.2,3.1,9.3,3.1,9.3,3.1C9.3,3.1,9.3,3.1,9.3,3.1L9.3,3.1z"/>
		<path class="st1" d="M9.4,3.1l-0.2,0l0,0.1l0,0l0.3,0c0,0,0,0,0,0l0.1,0l0,0L9.4,3.1z M9.4,3.1c0,0,0.2,0,0.3,0c0,0,0,0,0,0
			c0,0-0.1,0-0.1,0S9.3,3.1,9.4,3.1C9.3,3.1,9.3,3.1,9.4,3.1C9.3,3.1,9.4,3.1,9.4,3.1z"/>
	</g>
	<g>
		<path class="st2" d="M9.7,5.7c0.6,0,1.2,0.1,1.8,0.4c0,0,0,0.1,0,0.2c0,0.1-0.1,0.2-0.1,0.2c-0.5-0.2-1.1-0.3-1.6-0.3
			c-0.6,0-1.1,0.1-1.6,0.3C8,6.5,8,6.4,8,6.3c0-0.1,0-0.2,0-0.2C8.5,5.9,9.1,5.7,9.7,5.7L9.7,5.7z"/>
		<path class="st1" d="M7.9,6.1L7.9,6.1L7.9,6.1c-0.1,0.1,0,0.2,0,0.2C8,6.4,8,6.5,8.1,6.5l0,0l0,0c0.5-0.2,1.1-0.3,1.6-0.3
			c0.6,0,1.1,0.1,1.6,0.3l0,0l0,0c0.1,0,0.1-0.1,0.2-0.2c0-0.1,0-0.2,0-0.2l0,0l0,0C11,5.8,10.3,5.7,9.7,5.7
			C9.1,5.7,8.5,5.8,7.9,6.1z M9.7,5.8c0.6,0,1.2,0.1,1.8,0.4c0,0,0,0,0,0c0,0,0,0.1,0,0.1c0,0.1-0.1,0.1-0.1,0.1
			c-0.5-0.2-1.1-0.3-1.6-0.3c-0.6,0-1.1,0.1-1.6,0.3c0,0-0.1,0-0.1-0.1c0-0.1,0-0.1,0-0.1c0,0,0,0,0,0C8.5,5.9,9.1,5.8,9.7,5.8z"/>
	</g>
	<g>
		<path class="st3" d="M8.1,4C8.2,4,8.3,4,8.5,4c0,0.1-0.1,0.2-0.1,0.3c0,0.1,0,0.2,0,0.3l0,0l0.2,0.9l0,0C8.4,5.7,8.1,5.8,7.9,5.9
			C7.6,5.7,7.4,5.4,7.4,5.1C7.3,4.5,7.6,4,8.1,4L8.1,4z"/>
		<path class="st1" d="M8.1,4L8.1,4C7.6,4,7.3,4.5,7.4,5.1c0,0.3,0.2,0.6,0.5,0.8l0,0l0,0c0.3-0.1,0.5-0.2,0.8-0.3l0,0L8.5,4.7
			c0-0.1,0-0.2,0-0.3c0-0.1,0-0.2,0.1-0.3l0,0l0,0C8.3,4,8.2,3.9,8.1,4z M8.5,4c0,0.1,0,0.2,0,0.3c0,0.1,0,0.2,0,0.3
			c0,0,0.2,0.9,0.2,0.9C8.4,5.7,8.1,5.8,7.9,5.9C7.6,5.7,7.4,5.4,7.4,5.1c0-0.1,0-0.1,0-0.2C7.4,4.5,7.7,4,8.1,4C8.2,4,8.3,4,8.5,4z
			"/>
	</g>
	<g>
		<path class="st3" d="M9.7,3.1c0.7,0,1.3,0.6,1.3,1.3c0,0.1,0,0.2,0,0.3l0,0l-0.2,0.9l0,0c-0.4-0.1-0.7-0.1-1.1-0.1
			c-0.4,0-0.7,0-1.1,0.1l0,0L8.5,4.7l0,0c0-0.1,0-0.2,0-0.3C8.4,3.7,9,3.1,9.7,3.1L9.7,3.1z"/>
		<path class="st1" d="M8.4,4.4c0,0.1,0,0.2,0,0.3l0.2,0.9l0,0C9,5.5,9.4,5.5,9.7,5.5c0.4,0,0.7,0,1.1,0.1l0,0L11,4.7
			c0-0.1,0-0.2,0-0.3c0-0.7-0.6-1.3-1.3-1.3C9,3.1,8.4,3.7,8.4,4.4z M8.5,4.7c0-0.1,0-0.2,0-0.3c0-0.7,0.6-1.2,1.3-1.2
			c0.7,0,1.3,0.6,1.3,1.2c0,0.1,0,0.2,0,0.3c0,0-0.2,0.9-0.2,0.9c-0.4-0.1-0.7-0.1-1.1-0.1c-0.4,0-0.7,0-1.1,0.1
			C8.6,5.6,8.5,4.7,8.5,4.7z"/>
	</g>
	<g>
		<path class="st3" d="M11.4,4C11.2,4,11.1,4,11,4C11,4.1,11,4.3,11,4.4c0,0.1,0,0.2,0,0.3l0,0l-0.2,0.9l0,0
			c0.3,0.1,0.5,0.1,0.8,0.3c0.2-0.2,0.4-0.4,0.5-0.8C12.1,4.5,11.8,4,11.4,4L11.4,4z"/>
		<path class="st1" d="M11,4L11,4L11,4c0,0.1,0,0.2,0,0.4c0,0.1,0,0.2,0,0.3l-0.2,0.9l0,0c0.3,0.1,0.5,0.1,0.8,0.3l0,0l0,0
			c0.3-0.2,0.4-0.5,0.5-0.8C12.2,4.5,11.8,4,11.4,4l0,0C11.3,3.9,11.1,4,11,4z M11.4,4c0.4,0.1,0.7,0.5,0.7,0.9c0,0.1,0,0.1,0,0.2
			c0,0.3-0.2,0.6-0.5,0.8c-0.2-0.1-0.5-0.2-0.8-0.3c0,0,0.2-0.9,0.2-0.9c0-0.1,0-0.2,0-0.3c0-0.1,0-0.2,0-0.3C11.1,4,11.3,4,11.4,4z
			"/>
	</g>
	<g>
		<path class="st2" d="M8,5.8L8,5.8L8,5.8c0.1,0,0.2-0.1,0.3-0.2c0.1-0.1,0.2-0.2,0.3-0.4c0,0,0,0,0,0c0,0,0,0.1,0.1,0.1
			c0.1,0.1,0.2,0.1,0.3,0.2c0.1,0,0.3,0,0.5-0.1c0.1-0.1,0.2-0.2,0.3-0.3c0,0,0,0,0.1,0c0,0,0,0,0.1,0c0.1,0.1,0.1,0.2,0.3,0.3
			c0.2,0.1,0.3,0.1,0.5,0.1c0.1,0,0.2-0.1,0.3-0.2c0,0,0.1-0.1,0.1-0.1c0,0,0,0,0,0c0,0,0,0,0,0c0.1,0.2,0.1,0.3,0.3,0.4
			c0.1,0.1,0.2,0.1,0.3,0.2l0,0v0l0,0c-0.5-0.2-1.1-0.3-1.7-0.3C9.1,5.5,8.5,5.6,8,5.8L8,5.8z"/>
		<path class="st1" d="M9.4,5.4C9.2,5.5,9,5.5,8.9,5.5c-0.1,0-0.2-0.1-0.3-0.2L8.6,5.2c0,0,0,0,0,0C8.5,5.4,8.4,5.5,8.3,5.6
			C8.2,5.7,8.1,5.8,8,5.8l0,0v0l0,0c0.6-0.2,1.1-0.3,1.7-0.3c0.6,0,1.2,0.1,1.7,0.3l0,0v0c-0.1,0-0.2-0.1-0.3-0.2
			c-0.1-0.1-0.2-0.2-0.2-0.4c0,0,0,0,0,0l0,0l0,0l0,0l0,0c0,0-0.1,0.1-0.1,0.1c-0.1,0.1-0.2,0.1-0.3,0.2c-0.1,0-0.3,0-0.5-0.1
			C9.9,5.3,9.8,5.2,9.8,5.1c0,0-0.1,0-0.1,0l-0.1,0C9.6,5.2,9.5,5.3,9.4,5.4z M9.4,5.4c0.1-0.1,0.2-0.2,0.3-0.3c0,0,0.1,0,0.1,0
			l0.1,0c0,0.1,0.1,0.2,0.3,0.3c0.2,0.1,0.4,0.1,0.5,0.1c0.1,0,0.2-0.1,0.3-0.2c0,0,0.1-0.1,0.1-0.1c0,0,0,0,0,0c0,0,0,0,0,0
			c0,0.1,0.1,0.3,0.3,0.4c0.1,0.1,0.2,0.1,0.3,0.2c0,0,0,0,0,0c-0.6-0.2-1.1-0.3-1.7-0.3C9.1,5.5,8.5,5.6,8,5.8c0,0,0,0,0,0
			c0.1,0,0.2-0.1,0.3-0.2c0.1-0.1,0.2-0.2,0.3-0.4c0,0,0,0,0,0c0,0,0,0,0,0c0,0,0.1,0.1,0.1,0.1c0.1,0.1,0.2,0.1,0.3,0.2
			C9,5.5,9.2,5.5,9.4,5.4z"/>
	</g>
	<g>
		<path class="st2" d="M10.1,5.2C10.1,5.1,10,5.1,10.1,5.2C10,5.1,9.9,5,9.9,5c0,0,0,0,0-0.1c0-0.1,0-0.1,0-0.1c0,0,0.1,0,0.1,0
			c0.1,0,0.1-0.1,0.1-0.1c0.1,0.1,0.1,0.2,0.1,0.4C10.2,5.1,10.1,5.1,10.1,5.2L10.1,5.2z"/>
		<path class="st1" d="M10.1,4.6C10,4.7,10,4.7,10,4.8l-0.1,0l0,0c0,0,0,0.1,0,0.1l0,0.1l0,0c0,0,0.1,0,0.1,0.1c0,0,0.1,0,0.1,0.1
			l0,0l0,0c0,0,0-0.1,0.1-0.1C10.2,4.9,10.2,4.7,10.1,4.6L10.1,4.6L10.1,4.6z M10,4.8c0,0,0.1-0.1,0.1-0.1c0,0.1,0.1,0.1,0.1,0.2
			c0,0,0,0.1,0,0.1c0,0,0,0.1,0,0.1c0,0-0.1-0.1-0.1-0.1c0,0-0.1,0-0.1,0c0,0,0,0,0,0c0,0,0,0,0-0.1C9.9,4.9,9.9,4.9,10,4.8
			C9.9,4.8,10,4.8,10,4.8z"/>
	</g>
	<g>
		<path class="st2" d="M9.3,4.7c0,0,0.1,0.1,0.1,0.1c0,0,0.1,0,0.1,0.1c0,0,0,0,0,0.1c0,0,0,0.1,0,0.1c0,0-0.1,0-0.1,0
			c-0.1,0-0.1,0.1-0.1,0.1C9.3,5.1,9.2,4.9,9.3,4.8C9.3,4.7,9.3,4.7,9.3,4.7L9.3,4.7z"/>
		<path class="st1" d="M9.3,4.7c0,0,0,0.1-0.1,0.1c0,0.1,0,0.3,0.1,0.4l0,0l0,0c0-0.1,0.1-0.1,0.1-0.1l0.1,0l0,0c0,0,0-0.1,0-0.1
			c0,0,0-0.1,0-0.1l0,0c0,0-0.1,0-0.1-0.1C9.4,4.7,9.4,4.7,9.3,4.7L9.3,4.7L9.3,4.7z M9.3,4.9c0,0,0-0.1,0-0.1c0,0,0-0.1,0-0.1
			c0,0,0.1,0.1,0.1,0.1c0,0,0.1,0,0.1,0c0,0,0,0.1,0,0.1c0,0,0,0,0,0.1c0,0,0,0.1,0,0.1c0,0-0.1,0-0.1,0c0,0-0.1,0.1-0.1,0.1
			C9.3,5.1,9.3,5,9.3,4.9z"/>
	</g>
	<g>
		<path class="st0" d="M9.7,4.7c0.1,0,0.2,0.1,0.2,0.2c0,0.1-0.1,0.2-0.2,0.2C9.6,5.1,9.5,5,9.5,4.9C9.5,4.8,9.6,4.7,9.7,4.7
			L9.7,4.7z"/>
		<path class="st1" d="M9.6,4.8c0,0-0.1,0.1-0.1,0.2c0,0.1,0.1,0.2,0.2,0.2c0.1,0,0.2-0.1,0.2-0.2c0-0.1-0.1-0.2-0.2-0.2
			C9.7,4.7,9.6,4.7,9.6,4.8z M9.6,4.9c0,0,0-0.1,0-0.1c0,0,0.1,0,0.1,0c0.1,0,0.2,0.1,0.2,0.2c0,0.1-0.1,0.2-0.2,0.2
			C9.6,5.1,9.6,5,9.6,4.9z"/>
	</g>
	<g>
		<path class="st2" d="M14.6,17L5.2,4.3l0,0c0,0.1-0.1,0.2-0.2,0.2C5,4.6,4.9,4.6,4.9,4.7l0,0l9.3,12.6l0,0c0,0,0.1,0.1,0.2,0.1
			C14.5,17.4,14.6,17.3,14.6,17C14.6,17.1,14.6,17.1,14.6,17L14.6,17z"/>
		<path class="st1" d="M5.2,4.3c0,0.1-0.1,0.1-0.2,0.2C5,4.5,4.9,4.6,4.8,4.6l-0.1,0l9.4,12.7l0,0c0.1,0.1,0.1,0.1,0.2,0.1
			c0.2,0,0.3-0.1,0.3-0.3c0,0,0-0.1,0-0.1l0,0L5.2,4.3L5.2,4.3z M5.1,4.6c0.1,0,0.1-0.1,0.1-0.2c0.1,0.1,9.3,12.6,9.3,12.6
			c0,0,0,0,0,0.1c0,0.1-0.1,0.2-0.2,0.2c-0.1,0-0.1,0-0.1-0.1c0,0-9.2-12.5-9.3-12.6C5,4.7,5.1,4.6,5.1,4.6z"/>
	</g>
	<path class="st1" d="M9.7,6.4c2.2,0,3.9,1.8,3.9,3.9c0,0.6-0.1,1.1-0.3,1.6c-0.5-0.5-0.8-1.1-0.9-1.6c-0.1,0-0.3,0-0.4,0
		c-1,0.1-1.8,0.4-2.5,0.8l0,0v0l0,0c-0.2,0.1-0.4,0.3-0.6,0.4l0,0v0l0,0C8.4,11.8,8,12,7.6,12.2l0,0v0l0,0c-0.2,0.1-0.4,0.1-0.6,0.1
		c-0.3,0-0.5,0-0.7-0.1C6,11.7,5.8,11,5.8,10.3C5.8,8.1,7.6,6.4,9.7,6.4L9.7,6.4z"/>
	<path class="st4" d="M8.9,8.3c0,0.1,0,0.3,0.1,0.4c0.1,0.7,0.4,1.4,0.8,1.8c0,0,0,0.1,0.1,0.1c0,0.1,0,0.2,0,0.2
		c-0.1,0.1-0.2,0.1-0.3,0.2l0,0v0l0,0c-0.2,0.1-0.4,0.3-0.6,0.4l0,0v0l0,0c-0.2,0.1-0.3,0.2-0.5,0.3c0,0-0.1,0-0.1,0
		c-0.1,0-0.1,0-0.2-0.1c0,0,0,0,0-0.1C7.4,11.2,7.1,10.4,7,9.5C7,9.3,7,9.2,7,9c0.3-0.5,0.8-1,1.4-1.2c0.2-0.1,0.4,0.1,0.5,0.4
		C8.9,8.2,8.9,8.3,8.9,8.3L8.9,8.3z M8.1,12C8.1,12,8.1,12,8.1,12C8.1,12,8.1,12,8.1,12L8.1,12L8.1,12L8.1,12z"/>
	<path class="st4" d="M13.2,11.8C13.2,11.8,13.2,11.8,13.2,11.8C13.2,11.7,13.2,11.7,13.2,11.8C13.2,11.7,13.2,11.7,13.2,11.8
		C13.2,11.7,13.2,11.7,13.2,11.8C13.2,11.7,13.2,11.7,13.2,11.8C13.2,11.7,13.2,11.7,13.2,11.8C13.1,11.7,13.1,11.7,13.2,11.8
		C13.1,11.7,13.1,11.7,13.2,11.8C13.1,11.7,13.1,11.7,13.2,11.8c-0.1-0.1-0.1-0.1-0.1-0.1l0,0l0,0l0,0c-0.3-0.3-0.4-0.6-0.6-1
		c0.5-0.4,0.9-0.9,0.9-1.4l0,0l0,0l0,0.2l0,0.2l0,0.2l0,0.2l0,0c0,0.1,0,0.2,0,0.3c0,0.1,0,0.2,0,0.4c0,0.1,0,0.3-0.1,0.4
		c0,0,0,0.1,0,0.1C13.4,11.5,13.3,11.6,13.2,11.8L13.2,11.8L13.2,11.8L13.2,11.8L13.2,11.8C13.3,11.7,13.3,11.7,13.2,11.8L13.2,11.8
		L13.2,11.8L13.2,11.8L13.2,11.8C13.2,11.8,13.2,11.8,13.2,11.8L13.2,11.8L13.2,11.8L13.2,11.8z"/>
	<path class="st4" d="M7.7,12.2C7.6,12.2,7.6,12.2,7.7,12.2L7.7,12.2L7.7,12.2L7.7,12.2c-0.2,0.1-0.4,0.2-0.6,0.2
		c-0.1,0-0.1,0-0.2,0c0,0-0.1,0-0.1,0c-0.2,0-0.4-0.1-0.4-0.2l0,0h0l0,0c-0.1-0.2-0.2-0.4-0.3-0.6c0-0.1-0.1-0.2-0.1-0.3
		C6,11.1,6,11,5.9,10.8c0-0.1,0-0.2,0-0.4l0,0l0-0.3l0-0.1l0,0c0.1-0.5,0.5-0.9,0.9-1c0.1,0,0.1,0.2,0.2,0.4c0,0,0,0,0,0
		c0,0.9,0.3,1.6,0.8,2.2c0,0.1,0,0.1,0,0.2C7.8,12,7.7,12.1,7.7,12.2L7.7,12.2z"/>
	<g>
		<path class="st5" d="M15.3,14.4c-0.1,0-0.3,0-0.4,0c-1.1,0-2,0.3-2.5,0.7l0,0h0l0,0c0,0,0,0,0,0c0,0,0,0-0.1,0.1
			c-0.7,0.6-1.8,1.1-3.1,1.3c-0.1,0-0.1,0-0.2,0c-0.6,0-1.1-0.2-1.6-0.6c-0.2-0.2-0.4-0.4-0.5-0.7l0,0h0l-2.1-3.8l0,0
			c-0.1-0.1-0.1-0.2-0.2-0.3c0-0.1-0.1-0.2-0.1-0.3c-0.1-0.3-0.2-0.8-0.2-1.4c0-0.4,0-0.8,0.1-1.1c0.1-0.5,0.2-1,0.2-1.6
			c0-0.3,0-0.6-0.1-0.9c0-0.1,0-0.2,0-0.3c0-0.4,0.1-0.8,0.2-1c0,0,0,0,0.1,0c0.1,0,0.1,0,0.2-0.1C5,4.8,5,4.9,5,5.1
			c0,0,0,0.1,0,0.1c0,0.5,0.3,1.2,0.7,2c0.2,0.4,0.4,0.8,0.6,1C6,8.9,5.8,9.6,5.8,10.3c0,0.7,0.2,1.4,0.5,1.9
			c0.2,0.1,0.4,0.1,0.7,0.1c0.2,0,0.4-0.1,0.6-0.1l0,0v0l0,0C8,12,8.4,11.8,8.8,11.5l0,0v0l0,0c0.2-0.2,0.4-0.3,0.6-0.4l0,0v0l0,0
			c0.7-0.4,1.5-0.7,2.5-0.8c0.1,0,0.3,0,0.4,0c0.1,0.6,0.5,1.2,1,1.7c0.6,0.7,1.2,1.4,1.8,2.3C15.2,14.3,15.2,14.4,15.3,14.4
			L15.3,14.4z"/>
		<path class="st6" d="M4.9,4.6c-0.1,0-0.1,0-0.2,0.1l-0.1,0l0,0c-0.1,0.2-0.2,0.6-0.2,1l0,0.3c0,0.3,0.1,0.6,0.1,0.9
			c0,0.6-0.1,1.1-0.2,1.6C4.3,8.8,4.3,9.1,4.3,9.5c0,0.5,0.1,1,0.2,1.4c0,0,0.1,0.3,0.1,0.3l0.2,0.3l2.1,3.8C7,15.6,7.1,15.8,7.4,16
			c0.4,0.4,1,0.6,1.6,0.6l0.2,0c1.3-0.2,2.4-0.7,3.1-1.3c0,0,0.1-0.1,0.1-0.1l0,0c0.5-0.4,1.5-0.7,2.5-0.7c0.1,0,0.3,0,0.4,0l0,0
			l-0.1-0.2c-0.5-0.8-1.1-1.6-1.8-2.3c-0.5-0.5-0.9-1.1-1-1.7l0,0h0c-0.1,0-0.3,0-0.4,0c-0.9,0.1-1.8,0.3-2.5,0.8
			c-0.2,0.1-0.4,0.3-0.6,0.4C8.4,11.7,8,12,7.6,12.2c-0.2,0.1-0.4,0.1-0.6,0.1c-0.3,0-0.5,0-0.7-0.1C6,11.6,5.8,11,5.8,10.3
			c0-0.7,0.2-1.4,0.6-2l0,0l0,0C6.2,7.9,6,7.6,5.8,7.2c-0.4-0.8-0.7-1.5-0.7-2c0,0,0-0.1,0-0.1C5,4.9,5,4.8,4.9,4.6L4.9,4.6L4.9,4.6
			z M4.8,4.7c0,0,0.1,0,0.1-0.1C5,4.8,5,5,5,5.1l0,0.1c0,0.5,0.3,1.2,0.7,2c0.2,0.4,0.4,0.7,0.6,1C6,8.9,5.8,9.6,5.8,10.3
			c0,0.7,0.2,1.3,0.5,1.9l0,0l0,0c0.2,0.1,0.5,0.1,0.7,0.1c0.2,0,0.4-0.1,0.6-0.1C8,12,8.4,11.8,8.8,11.5c0.2-0.2,0.4-0.3,0.6-0.4
			c0.7-0.4,1.6-0.7,2.5-0.8c0.1,0,0.3,0,0.4,0c0.1,0.6,0.5,1.2,1,1.7c0.7,0.7,1.2,1.4,1.8,2.3c0,0,0.1,0.1,0.1,0.2
			c-0.1,0-0.3,0-0.4,0c-1,0-2,0.3-2.6,0.7c0,0,0,0,0,0l-0.1,0.1c-0.7,0.6-1.8,1.1-3.1,1.3l-0.2,0c-0.6,0-1.1-0.2-1.6-0.6
			c-0.2-0.2-0.4-0.4-0.5-0.7l-2.1-3.8l-0.2-0.3c0,0-0.1-0.3-0.1-0.3c-0.1-0.3-0.2-0.8-0.2-1.4c0-0.4,0-0.8,0.1-1.1
			c0.1-0.5,0.2-1,0.2-1.6c0-0.3,0-0.6-0.1-0.9l0-0.3C4.5,5.3,4.6,4.9,4.8,4.7C4.7,4.7,4.8,4.7,4.8,4.7z"/>
	</g>
	<path class="st7" d="M6.1,12.5c0.3-0.1,0.8,0.1,1.3,0.7c0.4,0.4,0.8,1,1,1.5c0.2,0.4,0.3,0.8,0.3,1c0,0.2-0.1,0.3-0.2,0.4
		c-0.1,0-0.3,0-0.6-0.2c-0.2-0.2-0.5-0.4-0.8-0.8c-0.4-0.4-0.7-1-0.9-1.4C5.9,13.1,5.8,12.6,6.1,12.5L6.1,12.5z"/>
	<path class="st8" d="M7.3,15.5c-0.1-0.1-0.1-0.2-0.2-0.3C7.1,15.1,7,15,6.9,14.8c0,0,0,0,0,0c0.1,0.2,0.3,0.4,0.4,0.4
		c0.1,0.1,0.2,0.1,0.2,0.2c0.1,0,0.1-0.1,0-0.3c0-0.1-0.1-0.2-0.2-0.2c0,0-0.1-0.1-0.2-0.2c0,0-0.1-0.1-0.1-0.1
		c-0.1-0.1-0.1-0.1-0.2-0.1c-0.1,0-0.1-0.1-0.2-0.1c-0.1-0.1-0.2-0.2-0.3-0.4c-0.1-0.2-0.2-0.4-0.3-0.6c-0.1-0.2-0.1-0.3,0-0.4
		c0,0,0.1,0,0.2,0c0.1,0,0.1,0,0.1,0c0,0,0-0.1-0.1-0.2c0,0,0,0,0,0c0.1,0.2,0.2,0.4,0.3,0.6c0.1,0.2,0.2,0.3,0.3,0.5c0,0,0,0,0,0
		c-0.1-0.2-0.3-0.4-0.4-0.5c-0.1-0.1-0.2-0.2-0.3-0.2c-0.1,0,0,0.3,0.1,0.5c0.1,0.1,0.1,0.2,0.2,0.3c0.1,0.1,0.2,0.1,0.3,0.2
		c0.1,0,0.1,0.1,0.2,0.1c0.1,0,0.2,0.1,0.2,0.2c0.1,0.1,0.2,0.3,0.3,0.5c0.1,0.2,0.1,0.3,0.1,0.4c0,0.1,0,0.2-0.2,0.1
		C7.5,15.5,7.5,15.5,7.3,15.5C7.4,15.4,7.4,15.4,7.3,15.5C7.4,15.4,7.3,15.4,7.3,15.5C7.3,15.4,7.3,15.4,7.3,15.5
		C7.3,15.5,7.3,15.5,7.3,15.5L7.3,15.5z"/>
	<path class="st8" d="M7.1,13C7.1,13,7.1,13,7.1,13c0.1,0.1,0.1,0.2,0.2,0.3c0.1,0.1,0.1,0.2,0.2,0.3c0,0,0,0,0,0
		c-0.1-0.2-0.2-0.3-0.3-0.4C7.1,13.2,7,13.2,7,13.2c-0.1,0,0,0.2,0,0.3c0,0,0.1,0.1,0.1,0.1c0,0,0.1,0.1,0.1,0.1
		c0,0,0.1,0.1,0.2,0.1c0.1,0,0.1,0.1,0.2,0.1c0.1,0,0.1,0.1,0.2,0.1c0.1,0.1,0.2,0.2,0.3,0.4c0.1,0.2,0.2,0.4,0.3,0.6
		c0.1,0.2,0.1,0.4,0,0.4c0,0.1-0.1,0.1-0.2,0c0,0-0.1,0-0.1,0c0,0,0,0.1,0,0.2c0,0,0,0,0,0c-0.1-0.2-0.2-0.4-0.3-0.6
		c-0.1-0.2-0.2-0.3-0.3-0.5c0,0,0,0,0,0c0.2,0.3,0.3,0.5,0.5,0.6c0.1,0.1,0.2,0.1,0.3,0.1c0.1-0.1,0-0.3-0.1-0.5
		c-0.1-0.1-0.2-0.2-0.2-0.3c-0.1,0-0.1-0.1-0.2-0.1c-0.1-0.1-0.2-0.1-0.3-0.2c-0.1-0.1-0.1-0.1-0.2-0.2C7.2,14.1,7.1,14,7,13.9
		c-0.1-0.2-0.2-0.4-0.2-0.5c0-0.1,0-0.2,0.1-0.3c0,0,0.1,0,0.1,0c0.1,0,0.2,0.1,0.2,0.1C7.2,13.1,7.2,13.1,7.1,13L7.1,13z"/>
	<g>
		<path class="st2" d="M5.2,4c0,0.1,0,0.2,0,0.3c0,0.1-0.1,0.2-0.2,0.3C5,4.6,4.9,4.7,4.8,4.7c-0.1,0-0.2,0-0.2-0.1
			c0-0.1-0.1-0.1,0-0.2c0-0.1,0.1-0.2,0.2-0.3C4.8,4,4.9,4,5,3.9C5.1,3.9,5.2,3.9,5.2,4L5.2,4z"/>
		<path class="st1" d="M5,3.9C4.9,3.9,4.8,4,4.7,4.1C4.6,4.2,4.5,4.3,4.5,4.4c0,0.1,0,0.2,0.1,0.3c0.1,0.1,0.2,0.1,0.3,0.1
			c0.1,0,0.2-0.1,0.3-0.1c0.1-0.1,0.2-0.2,0.2-0.3c0-0.1,0-0.2,0-0.3l0,0C5.2,3.9,5.1,3.8,5,3.9z M4.6,4.6c0,0,0-0.1,0-0.2
			c0-0.1,0.1-0.2,0.2-0.3C4.8,4.1,4.9,4,5,4c0.1,0,0.1,0,0.2,0c0,0,0,0.1,0,0.1c0,0,0,0.1,0,0.1c0,0.1-0.1,0.2-0.2,0.2
			C4.9,4.6,4.9,4.6,4.8,4.6C4.7,4.6,4.6,4.6,4.6,4.6z"/>
	</g>
	<path class="st7" d="M12.7,11.1c0.1,0.1,0.2,0.3,0.3,0.4c-0.1,0-0.2,0-0.3,0c-0.5,0-0.9,0.1-1.3,0.2c-0.4,0.1-0.8,0.3-1.1,0.4
		c0,0,0,0,0,0c-0.2,0.1-0.4,0.3-0.6,0.4c0,0,0,0,0,0c-0.4,0.2-0.8,0.5-1.3,0.7c0,0,0,0,0,0c-0.1,0.1-0.3,0.1-0.4,0.1
		c-0.1-0.2-0.3-0.3-0.5-0.4c0,0,0,0,0,0c0.2,0,0.4,0,0.6-0.1c0,0,0,0,0,0c0.5-0.2,0.9-0.4,1.3-0.7c0,0,0,0,0,0
		c0.2-0.1,0.4-0.3,0.6-0.4c0,0,0,0,0,0c0.3-0.2,0.7-0.3,1.1-0.4c0.4-0.1,0.8-0.2,1.3-0.2C12.5,11.1,12.6,11.1,12.7,11.1L12.7,11.1z"
		/>
	<path class="st7" d="M13.5,12.1c0.1,0.1,0.2,0.3,0.4,0.4c-0.1,0-0.3,0-0.4,0c-0.5,0-0.9,0-1.3,0.1c-0.4,0.1-0.8,0.3-1.1,0.4
		c0,0,0,0,0,0c-0.2,0.1-0.4,0.3-0.6,0.4c0,0,0,0,0,0C10,13.8,9.6,14,9.2,14.2c0,0,0,0,0,0c0,0,0,0-0.1,0l0,0l-0.5,0.2l0-0.1l0,0l0,0
		c0-0.1-0.1-0.2-0.1-0.3l0,0l0.4-0.1l0,0c0,0,0.1,0,0.1,0c0,0,0,0,0,0c0.4-0.2,0.8-0.4,1.2-0.7c0,0,0,0,0,0c0.2-0.1,0.4-0.3,0.7-0.4
		c0,0,0,0,0,0c0.3-0.2,0.7-0.4,1.2-0.5c0.4-0.1,0.9-0.2,1.4-0.2C13.4,12.1,13.5,12.1,13.5,12.1L13.5,12.1z M13.9,12.6
		C13.9,12.6,13.9,12.6,13.9,12.6L13.9,12.6L13.9,12.6L13.9,12.6C13.9,12.6,13.9,12.6,13.9,12.6L13.9,12.6z"/>
	<path class="st7" d="M14.5,13.3c0.1,0.1,0.2,0.2,0.2,0.3c-0.1,0-0.3,0-0.4,0c-0.6,0-1.1,0.1-1.5,0.2c-0.4,0.1-0.8,0.3-1.1,0.5
		c0,0,0,0,0,0c0,0,0,0,0,0c0,0,0,0-0.1,0.1c-0.4,0.3-0.8,0.6-1.3,0.8c-0.5,0.2-1,0.3-1.5,0.4c0,0,0,0,0,0c0-0.2,0-0.3,0-0.5
		c0.3-0.1,0.6-0.2,0.8-0.3c0.5-0.2,1-0.4,1.4-0.8c0,0,0.1,0,0.1-0.1c0,0,0,0,0,0c0,0,0,0,0,0c0.3-0.2,0.7-0.4,1.2-0.5
		c0.5-0.1,1.1-0.2,1.7-0.2C14.2,13.3,14.4,13.3,14.5,13.3L14.5,13.3z"/>
	<path class="st7" d="M5.5,9.3c-0.1,0.3-0.2,0.7-0.2,1c0,0.8,0.3,1.4,0.6,1.7l0,0v0.1l0,0C5.4,11.9,4.9,11,4.9,9.9
		c0-0.1,0-0.2,0-0.3c0,0,0,0,0,0c0-0.1,0-0.1,0-0.2C5.2,8.9,5.3,8,5.3,7.1c0-0.2,0-0.3,0-0.5C5.5,7,5.6,7.5,5.7,8.1
		C5.7,8.5,5.6,9,5.5,9.3L5.5,9.3z"/>
	<path class="st4" d="M6,9.6L6,9.6L6,9.4l0.1-0.2L6.1,9l0.1-0.2l0.1-0.2l0.1-0.2l0.1-0.2l0.1-0.2L6.7,8l0.1-0.1l0.1-0.1L7,7.6
		l0.1-0.1l0.1-0.1l0.1-0.1l0.1-0.1L7.7,7l0.2-0.1l0.2-0.1l0.2-0.1l0.2-0.1l0.2-0.1l0.2-0.1l0.2,0l0.2,0l0.2,0l0.2,0l0.2,0l0.2,0
		l0.2,0l0.2,0l0.2,0l0,0c-0.1,0-0.1,0-0.2,0c-0.1,0-0.1,0.1-0.2,0.1c-0.1,0-0.1,0.1-0.2,0.1c-0.1,0-0.1,0.1-0.2,0.1
		C9.7,6.9,9.6,7,9.6,7c-0.1,0-0.1,0.1-0.2,0.1c0,0.1-0.1,0.1-0.1,0.2c0,0.1-0.1,0.1-0.1,0.2l0,0L9,7.7l0,0C9,7.7,9,7.8,8.9,7.9
		c0,0,0,0.1,0,0.1c0,0,0,0,0,0c0,0,0-0.1,0-0.1l0,0l0,0l0,0C8.8,7.8,8.7,7.8,8.6,7.7l0,0l0,0l0,0c-0.1,0-0.1,0-0.2,0l0,0l-0.1,0l0,0
		c-0.1,0-0.1,0.1-0.2,0.1C8.1,7.8,8,7.9,7.9,7.9C7.8,8,7.7,8.1,7.6,8.1C7.6,8.2,7.5,8.3,7.5,8.3C7.4,8.4,7.3,8.5,7.3,8.5
		C7.2,8.6,7.1,8.7,7,8.8C7,8.9,7,8.9,7,8.9l0,0h0l0,0c0,0-0.1,0-0.1,0c0,0,0,0,0,0l0,0v0l0,0l0,0C6.7,9,6.7,9,6.6,9
		c-0.1,0-0.1,0-0.2,0.1c-0.1,0-0.1,0.1-0.1,0.1c-0.1,0-0.1,0.1-0.2,0.2c0,0-0.1,0.1-0.1,0.1C6,9.5,6,9.6,6,9.6C6,9.6,6,9.6,6,9.6
		L6,9.6z"/>
	<path class="st4" d="M12.5,10.6c0-0.1-0.1-0.2-0.1-0.3c-0.1,0-0.3,0-0.4,0c-0.6,0-1.1,0.2-1.6,0.3c0,0-0.1,0-0.2,0
		c-0.2,0-0.3-0.1-0.4-0.2l0,0l0,0l0,0c-0.1-0.1-0.1-0.1-0.1-0.2C9.6,10.1,9.5,10,9.5,9.9C9.4,9.8,9.3,9.6,9.3,9.5
		c0-0.1-0.1-0.2-0.1-0.4C9.1,8.9,9.1,8.6,9,8.4c0,0,0-0.1,0-0.2C9,8.1,9,8,9,7.9c0.3-0.7,0.9-1.2,1.7-1.3l0,0l0.1,0L11,6.7l0.2,0.1
		l0.2,0.1l0.2,0.1L11.7,7l0.2,0.1L12,7.2l0.1,0.1l0.1,0.1l0.1,0.1l0.1,0.1l0.1,0.1L12.8,8l0.1,0.1L13,8.3l0.1,0.2l0.1,0.2l0.1,0.2
		l0,0l0,0c0,0.1,0,0.2,0,0.3C13.3,9.7,13,10.2,12.5,10.6L12.5,10.6z"/>
	<path class="st1" d="M10.5,8.9c0.1,0,0.1-0.1,0.2-0.1c-0.1-0.1-0.1-0.2-0.2-0.2c0,0,0-0.1,0-0.1c0,0,0-0.1,0-0.1
		c0.2-0.5,0.7-0.9,1.4-1.2l0,0l0,0L12,7.2l0,0c-0.6,0.2-1.1,0.6-1.4,1c0,0,0,0,0,0.1c0,0,0,0.1,0,0.1c0.1,0.1,0.1,0.1,0.2,0.2
		c0.1-0.1,0.2-0.1,0.3-0.2C11,8.3,11,8.2,10.9,8.2c0,0,0,0,0,0c0,0,0,0,0,0c0,0,0,0,0.1,0c0,0,0,0,0,0c0.1,0.1,0.1,0.1,0.2,0.2
		c0.1-0.1,0.2-0.1,0.3-0.2c-0.1-0.1-0.2-0.2-0.2-0.2c0,0,0,0,0,0c0,0,0,0,0,0c0,0,0,0,0.1,0c0,0,0,0,0,0C11.4,8,11.5,8,11.5,8.1
		C11.6,8,11.7,8,11.8,7.9c-0.1-0.1-0.2-0.2-0.3-0.3c0,0,0,0,0,0c0,0,0,0,0,0c0,0,0,0,0.1,0c0,0,0,0,0,0c0.1,0.1,0.1,0.1,0.2,0.2
		c0.1,0,0.2-0.1,0.3-0.1c-0.1-0.1-0.2-0.2-0.3-0.3c0,0,0,0,0,0c0,0,0,0,0,0c0,0,0,0,0.1,0c0,0,0,0,0,0c0.1,0.1,0.1,0.1,0.2,0.2
		c0.1,0,0.1-0.1,0.2-0.1l0,0l0.1,0.1l0.1,0.1l0,0c-0.1,0-0.1,0.1-0.2,0.1c0.1,0.1,0.2,0.2,0.3,0.3c0,0,0,0,0,0c0,0,0,0.1,0,0.1
		c0,0,0,0,0,0.1c0,0,0,0,0,0c0,0,0,0,0,0c-0.1-0.2-0.2-0.3-0.3-0.5c-0.1,0-0.2,0.1-0.3,0.1c0.1,0.1,0.2,0.2,0.2,0.3c0,0,0,0,0,0
		c0,0,0,0.1,0,0.1c0,0,0,0,0,0.1c0,0,0,0,0,0c0,0,0,0,0,0c-0.1-0.1-0.2-0.3-0.3-0.4c-0.1,0.1-0.2,0.1-0.3,0.2
		c0.1,0.1,0.2,0.2,0.2,0.3c0,0,0,0,0,0c0,0,0,0,0,0.1c0,0,0,0,0,0c0,0,0,0,0,0c0,0,0,0,0,0c-0.1-0.1-0.2-0.3-0.3-0.4
		c-0.1,0.1-0.2,0.1-0.3,0.2c0.1,0.1,0.2,0.2,0.2,0.3c0,0,0,0,0,0c0,0,0,0,0,0.1c0,0,0,0,0,0c0,0,0,0,0,0c0,0,0,0,0,0
		c-0.1-0.1-0.2-0.3-0.3-0.4c-0.1,0.1-0.2,0.1-0.3,0.2c0,0,0.1,0.1,0.1,0.1c0,0,0,0.1,0,0.1c0,0.1,0,0.1,0,0.2c0,0,0,0.1-0.1,0.1
		c0,0,0,0,0,0C11,9.1,10.9,9,10.8,8.9c-0.1,0-0.1,0.1-0.2,0.1c0,0,0,0-0.1,0C10.5,9.1,10.5,9,10.5,8.9C10.5,8.9,10.5,8.9,10.5,8.9
		L10.5,8.9z"/>
	<g>
		<path class="st0" d="M7.6,3.5c0.1,0,0.2,0.1,0.2,0.2c0,0.1-0.1,0.2-0.2,0.2c-0.1,0-0.2-0.1-0.2-0.2C7.4,3.6,7.5,3.5,7.6,3.5
			L7.6,3.5z"/>
		<path class="st1" d="M7.4,3.7c0,0.1,0.1,0.2,0.2,0.2c0.1,0,0.2-0.1,0.2-0.2c0-0.1-0.1-0.2-0.2-0.2C7.5,3.5,7.4,3.6,7.4,3.7z
			 M7.4,3.7c0-0.1,0.1-0.1,0.1-0.1c0.1,0,0.1,0.1,0.1,0.1c0,0.1-0.1,0.1-0.1,0.1C7.5,3.9,7.4,3.8,7.4,3.7z"/>
	</g>
	<g>
		<path class="st0" d="M11.9,3.9c-0.1,0-0.2-0.1-0.2-0.2c0-0.1,0.1-0.2,0.2-0.2c0.1,0,0.2,0.1,0.2,0.2C12.1,3.8,12,3.9,11.9,3.9
			L11.9,3.9z"/>
		<path class="st1" d="M11.7,3.7c0,0.1,0.1,0.2,0.2,0.2c0.1,0,0.2-0.1,0.2-0.2c0-0.1-0.1-0.2-0.2-0.2C11.8,3.5,11.7,3.6,11.7,3.7z
			 M11.7,3.7c0-0.1,0.1-0.1,0.1-0.1C12,3.6,12,3.6,12,3.7c0,0.1-0.1,0.1-0.1,0.1C11.8,3.9,11.7,3.8,11.7,3.7z"/>
	</g>
	<g>
		<path class="st0" d="M8.3,4c0.1,0,0.2,0.1,0.2,0.2c0,0.1-0.1,0.2-0.2,0.2c-0.1,0-0.2-0.1-0.2-0.2C8.1,4.1,8.2,4,8.3,4L8.3,4z"/>
		<path class="st1" d="M8.1,4.1c0,0.1,0.1,0.2,0.2,0.2c0.1,0,0.2-0.1,0.2-0.2c0-0.1-0.1-0.2-0.2-0.2C8.2,3.9,8.1,4,8.1,4.1z
			 M8.2,4.1C8.2,4.1,8.2,4,8.3,4c0.1,0,0.1,0.1,0.1,0.1c0,0.1-0.1,0.1-0.1,0.1C8.2,4.3,8.2,4.2,8.2,4.1z"/>
	</g>
	<g>
		<path class="st0" d="M11.1,4.3C11,4.3,11,4.2,11,4.1C11,4.1,11,4,11.1,4c0.1,0,0.2,0.1,0.2,0.2C11.3,4.2,11.2,4.3,11.1,4.3
			L11.1,4.3z"/>
		<path class="st1" d="M10.9,4.1c0,0.1,0.1,0.2,0.2,0.2c0.1,0,0.2-0.1,0.2-0.2c0-0.1-0.1-0.2-0.2-0.2C11,3.9,10.9,4,10.9,4.1z
			 M11,4.1C11,4.1,11,4,11.1,4c0.1,0,0.1,0.1,0.1,0.1c0,0.1-0.1,0.1-0.1,0.1C11,4.3,11,4.2,11,4.1z"/>
	</g>
	<g>
		<path class="st0" d="M8.4,4.3c0.1,0,0.1,0.1,0.1,0.1c0,0.1-0.1,0.1-0.1,0.1c-0.1,0-0.1-0.1-0.1-0.1C8.2,4.4,8.3,4.3,8.4,4.3
			L8.4,4.3z"/>
		<path class="st1" d="M8.2,4.5c0,0.1,0.1,0.2,0.2,0.2c0.1,0,0.2-0.1,0.2-0.2c0-0.1-0.1-0.2-0.2-0.2C8.3,4.3,8.2,4.4,8.2,4.5z
			 M8.2,4.5c0-0.1,0.1-0.1,0.1-0.1c0.1,0,0.1,0.1,0.1,0.1c0,0.1-0.1,0.1-0.1,0.1C8.3,4.6,8.2,4.5,8.2,4.5z"/>
	</g>
	<g>
		<path class="st0" d="M11.1,4.6C11,4.6,11,4.5,11,4.5c0-0.1,0.1-0.1,0.1-0.1c0.1,0,0.1,0.1,0.1,0.1C11.2,4.5,11.2,4.6,11.1,4.6
			L11.1,4.6z"/>
		<path class="st1" d="M10.9,4.5c0,0.1,0.1,0.2,0.2,0.2c0.1,0,0.2-0.1,0.2-0.2c0-0.1-0.1-0.2-0.2-0.2C11,4.3,10.9,4.4,10.9,4.5z
			 M11,4.5c0-0.1,0.1-0.1,0.1-0.1c0.1,0,0.1,0.1,0.1,0.1c0,0.1-0.1,0.1-0.1,0.1C11,4.6,11,4.5,11,4.5z"/>
	</g>
	<g>
		<path class="st0" d="M8,3.4c0.1,0,0.2,0.1,0.2,0.2c0,0.1-0.1,0.2-0.2,0.2c-0.1,0-0.2-0.1-0.2-0.2C7.7,3.5,7.8,3.4,8,3.4L8,3.4z"/>
		<path class="st1" d="M7.7,3.6c0,0.1,0.1,0.2,0.2,0.2c0.1,0,0.2-0.1,0.2-0.2c0-0.1-0.1-0.2-0.2-0.2C7.8,3.4,7.7,3.5,7.7,3.6z
			 M7.8,3.6c0-0.1,0.1-0.2,0.2-0.2c0.1,0,0.2,0.1,0.2,0.2c0,0.1-0.1,0.2-0.2,0.2C7.9,3.8,7.8,3.7,7.8,3.6z"/>
	</g>
	<g>
		<path class="st0" d="M11.5,3.8c-0.1,0-0.2-0.1-0.2-0.2c0-0.1,0.1-0.2,0.2-0.2c0.1,0,0.2,0.1,0.2,0.2C11.7,3.7,11.6,3.8,11.5,3.8
			L11.5,3.8z"/>
		<path class="st1" d="M11.3,3.6c0,0.1,0.1,0.2,0.2,0.2c0.1,0,0.2-0.1,0.2-0.2c0-0.1-0.1-0.2-0.2-0.2C11.4,3.4,11.3,3.5,11.3,3.6z
			 M11.3,3.6c0-0.1,0.1-0.2,0.2-0.2c0.1,0,0.2,0.1,0.2,0.2c0,0.1-0.1,0.2-0.2,0.2C11.4,3.8,11.3,3.7,11.3,3.6z"/>
	</g>
	<g>
		<path class="st0" d="M8.4,3.4c0.1,0,0.2,0.1,0.2,0.2c0,0.1-0.1,0.2-0.2,0.2c-0.1,0-0.2-0.1-0.2-0.2C8.2,3.5,8.3,3.4,8.4,3.4
			L8.4,3.4z"/>
		<path class="st1" d="M8.1,3.6c0,0.1,0.1,0.2,0.2,0.2c0.1,0,0.2-0.1,0.2-0.2c0-0.1-0.1-0.2-0.2-0.2C8.2,3.3,8.1,3.4,8.1,3.6z
			 M8.2,3.6c0-0.1,0.1-0.2,0.2-0.2c0.1,0,0.2,0.1,0.2,0.2c0,0.1-0.1,0.2-0.2,0.2C8.3,3.8,8.2,3.7,8.2,3.6z"/>
	</g>
	<g>
		<path class="st0" d="M8.4,3.6c0.1,0,0.2,0.1,0.2,0.2S8.5,4,8.4,4C8.3,4,8.2,3.9,8.2,3.8S8.3,3.6,8.4,3.6L8.4,3.6z"/>
		<path class="st1" d="M8.2,3.8C8.2,3.9,8.3,4,8.4,4c0.1,0,0.2-0.1,0.2-0.2c0-0.1-0.1-0.2-0.2-0.2C8.3,3.6,8.2,3.7,8.2,3.8z
			 M8.2,3.8c0-0.1,0.1-0.1,0.1-0.1c0.1,0,0.1,0.1,0.1,0.1C8.5,3.9,8.5,4,8.4,4C8.3,4,8.2,3.9,8.2,3.8z"/>
	</g>
	<g>
		<path class="st0" d="M11.1,3.8c-0.1,0-0.2-0.1-0.2-0.2c0-0.1,0.1-0.2,0.2-0.2c0.1,0,0.2,0.1,0.2,0.2C11.3,3.7,11.2,3.8,11.1,3.8
			L11.1,3.8z"/>
		<path class="st1" d="M10.8,3.6c0,0.1,0.1,0.2,0.2,0.2c0.1,0,0.2-0.1,0.2-0.2c0-0.1-0.1-0.2-0.2-0.2C11,3.3,10.8,3.4,10.8,3.6z
			 M10.9,3.6c0-0.1,0.1-0.2,0.2-0.2c0.1,0,0.2,0.1,0.2,0.2c0,0.1-0.1,0.2-0.2,0.2C11,3.8,10.9,3.7,10.9,3.6z"/>
	</g>
	<g>
		<path class="st0" d="M11.1,4c-0.1,0-0.2-0.1-0.2-0.2s0.1-0.2,0.2-0.2c0.1,0,0.2,0.1,0.2,0.2S11.2,4,11.1,4L11.1,4z"/>
		<path class="st1" d="M10.9,3.8C10.9,3.9,11,4,11.1,4c0.1,0,0.2-0.1,0.2-0.2c0-0.1-0.1-0.2-0.2-0.2C11,3.6,10.9,3.7,10.9,3.8z
			 M10.9,3.8c0-0.1,0.1-0.1,0.1-0.1c0.1,0,0.1,0.1,0.1,0.1c0,0.1-0.1,0.1-0.1,0.1C11,4,10.9,3.9,10.9,3.8z"/>
	</g>
	<g>
		<path class="st0" d="M8.7,3.1c0.1,0,0.2,0.1,0.2,0.2c0,0.1-0.1,0.2-0.2,0.2c-0.1,0-0.2-0.1-0.2-0.2C8.5,3.2,8.6,3.1,8.7,3.1
			L8.7,3.1z"/>
		<path class="st1" d="M8.4,3.3c0,0.1,0.1,0.2,0.2,0.2c0.1,0,0.2-0.1,0.2-0.2C8.9,3.2,8.8,3,8.7,3C8.5,3,8.4,3.2,8.4,3.3z M8.5,3.3
			c0-0.1,0.1-0.2,0.2-0.2c0.1,0,0.2,0.1,0.2,0.2c0,0.1-0.1,0.2-0.2,0.2C8.6,3.5,8.5,3.4,8.5,3.3z"/>
	</g>
	<g>
		<path class="st0" d="M10.8,3.5c-0.1,0-0.2-0.1-0.2-0.2c0-0.1,0.1-0.2,0.2-0.2c0.1,0,0.2,0.1,0.2,0.2C11,3.4,10.9,3.5,10.8,3.5
			L10.8,3.5z"/>
		<path class="st1" d="M10.5,3.3c0,0.1,0.1,0.2,0.2,0.2c0.1,0,0.2-0.1,0.2-0.2C11,3.2,10.9,3,10.8,3C10.6,3,10.5,3.2,10.5,3.3z
			 M10.6,3.3c0-0.1,0.1-0.2,0.2-0.2c0.1,0,0.2,0.1,0.2,0.2c0,0.1-0.1,0.2-0.2,0.2C10.7,3.5,10.6,3.4,10.6,3.3z"/>
	</g>
	<g>
		<path class="st0" d="M9,2.8c0.1,0,0.2,0.1,0.2,0.2c0,0.1-0.1,0.2-0.2,0.2c-0.1,0-0.2-0.1-0.2-0.2C8.8,2.9,8.9,2.8,9,2.8L9,2.8z"/>
		<path class="st1" d="M8.8,3.1c0,0.1,0.1,0.2,0.2,0.2c0.1,0,0.2-0.1,0.2-0.2c0-0.1-0.1-0.2-0.2-0.2C8.9,2.8,8.8,2.9,8.8,3.1z
			 M8.9,3.1C8.9,3,8.9,2.9,9,2.9c0.1,0,0.2,0.1,0.2,0.2c0,0.1-0.1,0.2-0.2,0.2C8.9,3.2,8.9,3.2,8.9,3.1z"/>
	</g>
	<g>
		<path class="st0" d="M10.4,3.3c-0.1,0-0.2-0.1-0.2-0.2c0-0.1,0.1-0.2,0.2-0.2c0.1,0,0.2,0.1,0.2,0.2C10.6,3.2,10.5,3.3,10.4,3.3
			L10.4,3.3z"/>
		<path class="st1" d="M10.2,3.1c0,0.1,0.1,0.2,0.2,0.2c0.1,0,0.2-0.1,0.2-0.2c0-0.1-0.1-0.2-0.2-0.2C10.3,2.8,10.2,2.9,10.2,3.1z
			 M10.2,3.1c0-0.1,0.1-0.2,0.2-0.2c0.1,0,0.2,0.1,0.2,0.2c0,0.1-0.1,0.2-0.2,0.2C10.3,3.2,10.2,3.2,10.2,3.1z"/>
	</g>
	<g>
		<path class="st0" d="M7.3,3.8c0.1,0,0.2,0.1,0.2,0.2c0,0.1-0.1,0.2-0.2,0.2C7.2,4.2,7.1,4.1,7.1,4C7.1,3.9,7.2,3.8,7.3,3.8
			L7.3,3.8z"/>
		<path class="st1" d="M7.1,4c0,0.1,0.1,0.2,0.2,0.2c0.1,0,0.2-0.1,0.2-0.2c0-0.1-0.1-0.2-0.2-0.2C7.2,3.8,7.1,3.9,7.1,4z M7.2,4
			c0-0.1,0.1-0.1,0.1-0.1c0.1,0,0.1,0.1,0.1,0.1c0,0.1-0.1,0.1-0.1,0.1C7.2,4.1,7.2,4.1,7.2,4z"/>
	</g>
	<g>
		<path class="st0" d="M12.1,4.2C12,4.2,12,4.1,12,4c0-0.1,0.1-0.2,0.2-0.2c0.1,0,0.2,0.1,0.2,0.2C12.3,4.1,12.2,4.2,12.1,4.2
			L12.1,4.2z"/>
		<path class="st1" d="M11.9,4c0,0.1,0.1,0.2,0.2,0.2c0.1,0,0.2-0.1,0.2-0.2c0-0.1-0.1-0.2-0.2-0.2C12,3.8,11.9,3.9,11.9,4z M12,4
			c0-0.1,0.1-0.1,0.1-0.1c0.1,0,0.1,0.1,0.1,0.1c0,0.1-0.1,0.1-0.1,0.1C12.1,4.1,12,4.1,12,4z"/>
	</g>
	<g>
		<path class="st0" d="M7.2,4.2c0.1,0,0.2,0.1,0.2,0.2c0,0.1-0.1,0.2-0.2,0.2C7.1,4.5,7,4.4,7,4.3C7,4.2,7.1,4.2,7.2,4.2L7.2,4.2z"
			/>
		<path class="st1" d="M7,4.3C7,4.4,7,4.5,7.2,4.5c0.1,0,0.2-0.1,0.2-0.2c0-0.1-0.1-0.2-0.2-0.2C7,4.1,7,4.2,7,4.3z M7,4.3
			c0-0.1,0.1-0.1,0.1-0.1c0.1,0,0.1,0.1,0.1,0.1c0,0.1-0.1,0.1-0.1,0.1C7.1,4.5,7,4.4,7,4.3z"/>
	</g>
	<g>
		<path class="st0" d="M12.3,4.5c-0.1,0-0.2-0.1-0.2-0.2c0-0.1,0.1-0.2,0.2-0.2c0.1,0,0.2,0.1,0.2,0.2C12.5,4.4,12.4,4.5,12.3,4.5
			L12.3,4.5z"/>
		<path class="st1" d="M12.1,4.3c0,0.1,0.1,0.2,0.2,0.2c0.1,0,0.2-0.1,0.2-0.2c0-0.1-0.1-0.2-0.2-0.2C12.2,4.1,12.1,4.2,12.1,4.3z
			 M12.1,4.3c0-0.1,0.1-0.1,0.1-0.1c0.1,0,0.1,0.1,0.1,0.1c0,0.1-0.1,0.1-0.1,0.1C12.2,4.5,12.1,4.4,12.1,4.3z"/>
	</g>
	<g>
		<path class="st0" d="M7,4.5c0.1,0,0.2,0.1,0.2,0.2c0,0.1-0.1,0.2-0.2,0.2c-0.1,0-0.2-0.1-0.2-0.2C6.8,4.6,6.9,4.5,7,4.5L7,4.5z"/>
		<path class="st1" d="M6.8,4.7C6.8,4.9,6.9,5,7,5c0.1,0,0.2-0.1,0.2-0.2c0-0.1-0.1-0.2-0.2-0.2C6.9,4.5,6.8,4.6,6.8,4.7z M6.9,4.7
			c0-0.1,0.1-0.2,0.2-0.2c0.1,0,0.2,0.1,0.2,0.2c0,0.1-0.1,0.2-0.2,0.2C6.9,4.9,6.9,4.8,6.9,4.7z"/>
	</g>
	<g>
		<path class="st0" d="M12.4,4.9c-0.1,0-0.2-0.1-0.2-0.2c0-0.1,0.1-0.2,0.2-0.2c0.1,0,0.2,0.1,0.2,0.2C12.6,4.8,12.5,4.9,12.4,4.9
			L12.4,4.9z"/>
		<path class="st1" d="M12.2,4.7c0,0.1,0.1,0.2,0.2,0.2c0.1,0,0.2-0.1,0.2-0.2c0-0.1-0.1-0.2-0.2-0.2C12.3,4.5,12.2,4.6,12.2,4.7z
			 M12.2,4.7c0-0.1,0.1-0.2,0.2-0.2c0.1,0,0.2,0.1,0.2,0.2c0,0.1-0.1,0.2-0.2,0.2C12.3,4.9,12.2,4.8,12.2,4.7z"/>
	</g>
	<g>
		<path class="st0" d="M8.5,4.9c0.1,0,0.2,0.1,0.2,0.2c0,0.1-0.1,0.2-0.2,0.2c-0.1,0-0.2-0.1-0.2-0.2C8.3,5,8.4,4.9,8.5,4.9L8.5,4.9
			z"/>
		<path class="st1" d="M8.2,5.1c0,0.1,0.1,0.2,0.2,0.2c0.1,0,0.2-0.1,0.2-0.2c0-0.1-0.1-0.2-0.2-0.2C8.3,4.8,8.2,4.9,8.2,5.1z
			 M8.3,5.1c0-0.1,0.1-0.2,0.2-0.2c0.1,0,0.2,0.1,0.2,0.2c0,0.1-0.1,0.2-0.2,0.2C8.4,5.2,8.3,5.1,8.3,5.1z"/>
	</g>
	<g>
		<path class="st0" d="M11,5.2c-0.1,0-0.2-0.1-0.2-0.2c0-0.1,0.1-0.2,0.2-0.2c0.1,0,0.2,0.1,0.2,0.2C11.2,5.2,11.1,5.2,11,5.2
			L11,5.2z"/>
		<path class="st1" d="M10.8,5.1c0,0.1,0.1,0.2,0.2,0.2c0.1,0,0.1,0,0.2-0.1c0,0,0.1-0.1,0.1-0.2c0-0.1-0.1-0.2-0.2-0.2
			C10.9,4.8,10.8,4.9,10.8,5.1z M10.8,5.1c0-0.1,0.1-0.2,0.2-0.2c0.1,0,0.2,0.1,0.2,0.2c0,0,0,0.1,0,0.1c0,0-0.1,0-0.1,0
			C10.9,5.2,10.8,5.1,10.8,5.1z"/>
	</g>
	<g>
		<path class="st0" d="M7.3,5.2c0.1,0,0.2,0.1,0.2,0.2c0,0.1-0.1,0.2-0.2,0.2c-0.1,0-0.2-0.1-0.2-0.2C7.1,5.3,7.2,5.2,7.3,5.2
			L7.3,5.2z"/>
		<path class="st1" d="M7.1,5.4c0,0.1,0.1,0.2,0.2,0.2c0.1,0,0.2-0.1,0.2-0.2c0-0.1-0.1-0.2-0.2-0.2C7.2,5.1,7.1,5.2,7.1,5.4z
			 M7.2,5.4c0-0.1,0.1-0.2,0.2-0.2c0.1,0,0.2,0.1,0.2,0.2c0,0.1-0.1,0.2-0.2,0.2C7.2,5.5,7.2,5.4,7.2,5.4z"/>
	</g>
	<g>
		<path class="st0" d="M12.1,5.5c-0.1,0-0.2-0.1-0.2-0.2c0-0.1,0.1-0.2,0.2-0.2c0.1,0,0.2,0.1,0.2,0.2C12.3,5.5,12.2,5.5,12.1,5.5
			L12.1,5.5z"/>
		<path class="st1" d="M11.9,5.4c0,0.1,0.1,0.2,0.2,0.2c0.1,0,0.2-0.1,0.2-0.2c0-0.1-0.1-0.2-0.2-0.2C12,5.1,11.9,5.2,11.9,5.4z
			 M12,5.4c0-0.1,0.1-0.2,0.2-0.2c0.1,0,0.2,0.1,0.2,0.2c0,0.1-0.1,0.2-0.2,0.2C12,5.5,12,5.4,12,5.4z"/>
	</g>
	<g>
		<path class="st2" d="M11.4,6.5c0.1,0.1,0.1,0.1,0,0.2c0,0-0.1,0.1-0.1,0.1c-0.5-0.2-1-0.3-1.6-0.3c-0.6,0-1.1,0.1-1.6,0.3
			c0,0-0.1,0-0.1-0.1c0-0.1,0-0.1,0-0.2c0.5-0.2,1.1-0.3,1.7-0.3C10.3,6.1,10.9,6.2,11.4,6.5L11.4,6.5z"/>
		<path class="st1" d="M8.1,6.4L8.1,6.4L8.1,6.4C8,6.5,8,6.6,8,6.7c0,0,0.1,0.1,0.1,0.1l0,0l0,0c0.5-0.2,1-0.3,1.6-0.3
			c0.6,0,1.1,0.1,1.6,0.3l0,0l0,0c0.1,0,0.1-0.1,0.1-0.1c0-0.1,0-0.2-0.1-0.2l0,0l0,0c-0.5-0.2-1.1-0.3-1.7-0.3
			C9.1,6.1,8.6,6.2,8.1,6.4z M9.7,6.1c0.6,0,1.1,0.1,1.6,0.3c0,0,0,0.1,0,0.1c0,0,0,0,0,0c0,0,0,0.1-0.1,0.1c-0.5-0.2-1-0.3-1.6-0.3
			c-0.6,0-1.1,0.1-1.6,0.3c0,0-0.1,0-0.1-0.1c0,0,0,0,0,0c0,0,0-0.1,0-0.1C8.6,6.3,9.2,6.1,9.7,6.1z"/>
	</g>
	<g>
		<path class="st2" d="M9.7,5.5c0.7,0,1.3,0.1,1.9,0.4c0,0,0.1,0.1,0.1,0.1c0,0.1,0,0.1-0.1,0.1c0,0,0,0,0,0l0,0v0l0,0
			C11,5.9,10.4,5.7,9.7,5.7c-0.6,0-1.2,0.1-1.8,0.4l0,0v0l0,0c0,0,0,0,0,0C7.8,6.1,7.8,6.1,7.8,6c0,0,0-0.1,0.1-0.1
			C8.4,5.6,9.1,5.5,9.7,5.5L9.7,5.5z"/>
		<path class="st1" d="M7.8,5.9c0,0-0.1,0.1-0.1,0.1c0,0.1,0.1,0.1,0.1,0.1l0.1,0c0.6-0.2,1.2-0.4,1.8-0.4c0.6,0,1.2,0.1,1.8,0.4
			c0,0,0.1,0,0.1,0c0.1,0,0.1-0.1,0.1-0.1c0-0.1,0-0.1-0.1-0.1C11,5.6,10.4,5.5,9.7,5.5C9.1,5.5,8.4,5.6,7.8,5.9z M7.8,6
			C7.8,6,7.8,5.9,7.8,6c0.6-0.3,1.3-0.5,1.9-0.5c0.7,0,1.3,0.1,1.9,0.4c0,0,0,0,0,0.1c0,0,0,0.1-0.1,0.1l0,0
			C11,5.8,10.4,5.7,9.7,5.7c-0.6,0-1.2,0.1-1.8,0.4L7.8,6C7.8,6.1,7.8,6,7.8,6z"/>
	</g>
	<g>
		<path class="st2" d="M7.3,5.2C7.3,5.2,7.3,5.2,7.3,5.2C7.3,5.2,7.3,5.2,7.3,5.2c-0.1,0-0.1,0-0.2,0.1C7.1,5.1,7,5,6.8,5
			c0,0,0.1,0,0.2,0c0,0,0.1,0,0.1,0C7.2,5,7.3,5.1,7.3,5.2L7.3,5.2z"/>
		<path class="st1" d="M6.8,5L6.8,5L6.8,5C7,5.1,7.1,5.2,7.2,5.3l0,0l0,0c0,0,0.1-0.1,0.1-0.1l0.1,0l0-0.1C7.3,5.1,7.2,5,7.1,4.9
			c0,0-0.1,0-0.1,0C6.9,4.9,6.8,4.9,6.8,5z M7,5c0,0,0.1,0,0.1,0c0.1,0,0.1,0.1,0.2,0.2c0,0-0.1,0-0.1,0C7.1,5.1,7,5,7,5
			C6.9,5,6.9,5,7,5z"/>
	</g>
	<g>
		<path class="st2" d="M12.1,5.2C12.1,5.2,12.1,5.2,12.1,5.2C12.1,5.2,12.1,5.2,12.1,5.2c0.1,0,0.1,0,0.2,0.1
			C12.3,5.1,12.5,5,12.6,5c0,0-0.1,0-0.2,0c0,0-0.1,0-0.1,0C12.3,5,12.2,5.1,12.1,5.2L12.1,5.2z"/>
		<path class="st1" d="M12.3,4.9c-0.1,0-0.2,0.1-0.2,0.2l0,0l0.1,0l0,0c0,0,0.1,0,0.1,0.1l0,0l0,0c0.1-0.1,0.2-0.2,0.3-0.2l0,0l0,0
			c0,0-0.1-0.1-0.2-0.1C12.4,4.9,12.4,4.9,12.3,4.9z M12.4,5c0,0,0.1,0,0.1,0c0,0,0.1,0,0.1,0c-0.1,0-0.2,0.1-0.3,0.2
			c0,0-0.1,0-0.1,0C12.2,5.1,12.3,5,12.4,5z"/>
	</g>
	<g>
		<path class="st2" d="M9.7,5.1C9.6,5.2,9.5,5.3,9.4,5.4C9.2,5.5,9.1,5.5,8.9,5.5c-0.1,0-0.2-0.1-0.3-0.2c0,0-0.1-0.1-0.1-0.1
			c0,0,0.1-0.1,0.1-0.1c0,0,0,0,0,0c0.1,0.1,0.2,0.1,0.3,0.1c0.1,0,0.3,0,0.4-0.1C9.4,5.2,9.5,5.1,9.6,5C9.6,5,9.6,5.1,9.7,5.1
			L9.7,5.1z"/>
		<path class="st1" d="M9.5,5c0,0.1-0.1,0.2-0.2,0.2C9.2,5.3,9,5.3,8.9,5.2c-0.1,0-0.2-0.1-0.2-0.1L8.6,5.1l0,0c0,0,0,0.1-0.1,0.1
			l0,0l0,0l0.1,0.1c0.1,0.1,0.2,0.1,0.3,0.2c0.1,0,0.3,0,0.5-0.1c0.1-0.1,0.2-0.2,0.3-0.3l0,0l0,0C9.6,5.1,9.6,5,9.5,5L9.5,5L9.5,5z
			 M9.3,5.3c0.1,0,0.2-0.1,0.2-0.2c0,0,0,0,0.1,0.1C9.6,5.2,9.5,5.3,9.4,5.4C9.2,5.5,9,5.5,8.9,5.4c-0.1,0-0.2-0.1-0.3-0.1
			c0,0,0,0-0.1-0.1c0,0,0,0,0.1-0.1c0,0,0,0,0,0c0.1,0.1,0.2,0.1,0.3,0.1C9,5.3,9.2,5.3,9.3,5.3z"/>
	</g>
	<g>
		<path class="st2" d="M9.8,5.1c0.1,0.1,0.1,0.2,0.3,0.3c0.2,0.1,0.3,0.1,0.5,0.1c0.1,0,0.2-0.1,0.3-0.2c0,0,0.1-0.1,0.1-0.1
			c0,0-0.1-0.1-0.1-0.1c0,0,0,0,0,0c-0.1,0.1-0.2,0.1-0.3,0.1c-0.1,0-0.3,0-0.4-0.1C10,5.2,9.9,5.1,9.9,5C9.9,5,9.8,5.1,9.8,5.1
			L9.8,5.1z"/>
		<path class="st1" d="M9.9,5C9.8,5,9.8,5.1,9.9,5L9.7,5.1l0,0C9.8,5.2,9.9,5.4,10,5.4c0.2,0.1,0.4,0.1,0.5,0.1
			c0.1,0,0.2-0.1,0.3-0.2L11,5.2l0,0c0,0-0.1-0.1-0.1-0.1l0,0l-0.1,0.1c-0.1,0.1-0.1,0.1-0.2,0.1c-0.1,0-0.2,0-0.4,0
			C10,5.2,10,5.1,9.9,5L9.9,5L9.9,5z M9.9,5c0,0.1,0.1,0.2,0.2,0.2c0.2,0.1,0.3,0.1,0.4,0.1c0.1,0,0.2-0.1,0.3-0.1c0,0,0,0,0,0
			c0,0,0,0,0.1,0.1c0,0-0.1,0.1-0.1,0.1c-0.1,0.1-0.2,0.1-0.3,0.1c-0.1,0-0.3,0-0.4-0.1C10,5.3,9.9,5.2,9.9,5C9.9,5.1,9.9,5.1,9.9,5
			z"/>
	</g>
	<g>
		<path class="st2" d="M8.5,5.2C8.5,5.4,8.4,5.5,8.3,5.6C8.2,5.7,8.1,5.8,8,5.8c-0.1,0-0.2,0-0.3,0c-0.1,0-0.2-0.1-0.2-0.2
			c0,0,0-0.1-0.1-0.1c0,0,0.1-0.1,0.1-0.1c0,0,0,0.1,0,0.1c0,0.1,0.1,0.1,0.2,0.1c0.1,0,0.1,0,0.2,0c0.1,0,0.2-0.1,0.2-0.1
			c0.1-0.1,0.2-0.2,0.2-0.3c0,0,0,0,0,0C8.4,5.2,8.4,5.2,8.5,5.2C8.5,5.2,8.5,5.2,8.5,5.2L8.5,5.2z"/>
		<path class="st1" d="M8.3,5.2L8.3,5.2c0,0.1-0.1,0.2-0.2,0.3C8.1,5.5,8,5.6,7.9,5.6c-0.1,0-0.1,0-0.2,0c-0.1,0-0.1-0.1-0.2-0.1
			L7.5,5.4l0,0.1c0,0,0,0.1-0.1,0.1l0,0l0,0c0,0,0,0.1,0.1,0.1c0.1,0.1,0.2,0.2,0.3,0.2c0.1,0,0.2,0,0.3,0c0.1,0,0.2-0.1,0.3-0.2
			c0.1-0.1,0.2-0.3,0.3-0.4l0-0.1l-0.1,0c0,0,0,0-0.1,0C8.4,5.2,8.4,5.2,8.3,5.2L8.3,5.2L8.3,5.2z M7.9,5.6c0.1,0,0.2-0.1,0.2-0.1
			c0.1-0.1,0.2-0.2,0.2-0.3c0,0,0.1,0,0.1,0c0,0,0,0,0,0c0,0.1-0.1,0.2-0.2,0.3C8.2,5.7,8.1,5.8,8,5.8c-0.1,0-0.2,0-0.3,0
			c-0.1,0-0.2-0.1-0.2-0.2c0,0,0-0.1,0-0.1c0,0,0,0,0.1-0.1c0,0,0,0,0,0c0,0.1,0.1,0.1,0.2,0.1C7.8,5.7,7.8,5.7,7.9,5.6z"/>
	</g>
	<g>
		<path class="st2" d="M10.9,5.2c0.1,0.2,0.1,0.3,0.3,0.4c0.1,0.1,0.2,0.2,0.3,0.2c0.1,0,0.2,0,0.3,0c0.1,0,0.2-0.1,0.2-0.2
			c0,0,0-0.1,0.1-0.1c0,0-0.1-0.1-0.1-0.1c0,0,0,0.1,0,0.1c0,0.1-0.1,0.1-0.2,0.1c-0.1,0-0.1,0-0.2,0c-0.1,0-0.2-0.1-0.2-0.1
			c-0.1-0.1-0.2-0.2-0.2-0.3c0,0,0,0,0,0C11.1,5.2,11,5.2,10.9,5.2C11,5.2,10.9,5.2,10.9,5.2L10.9,5.2z"/>
		<path class="st1" d="M11.1,5.2C11.1,5.2,11,5.2,11.1,5.2c-0.1,0-0.1,0-0.2,0l-0.1,0l0,0.1c0,0.1,0.1,0.3,0.3,0.4
			c0.1,0.1,0.2,0.2,0.3,0.2c0.1,0,0.2,0,0.3,0c0.1,0,0.2-0.1,0.3-0.2c0,0,0-0.1,0.1-0.1l0,0l0,0c0,0-0.1,0-0.1-0.1l0-0.1l0,0.1
			l0,0.1c0,0.1-0.1,0.1-0.2,0.1c-0.1,0-0.1,0-0.2,0c-0.1,0-0.1-0.1-0.2-0.1C11.2,5.4,11.2,5.3,11.1,5.2C11.1,5.2,11.1,5.2,11.1,5.2
			L11.1,5.2L11.1,5.2z M11.1,5.3c0,0.1,0.1,0.2,0.2,0.3c0.1,0.1,0.2,0.1,0.2,0.1c0.1,0,0.2,0,0.2,0c0.1,0,0.1-0.1,0.2-0.1
			c0,0,0,0,0,0c0,0,0,0,0.1,0.1c0,0,0,0.1,0,0.1c-0.1,0.1-0.1,0.1-0.2,0.2c-0.1,0-0.2,0-0.3,0c-0.1,0-0.2-0.1-0.3-0.2
			C11.1,5.5,11,5.4,11,5.3C11,5.3,11,5.3,11.1,5.3C11,5.3,11.1,5.3,11.1,5.3z"/>
	</g>
	<g>
		<path class="st2" d="M9.3,3.5c-0.2,0-0.4,0.2-0.5,0.3C8.6,3.9,8.5,4,8.5,4.1c0.1-0.5,0.5-0.9,1-0.9C9.4,3.3,9.3,3.4,9.3,3.5
			L9.3,3.5z"/>
		<path class="st1" d="M9.4,3.1c-0.5,0-0.9,0.4-1,1l0.1,0C8.6,4,8.7,3.9,8.7,3.8c0.2-0.2,0.3-0.3,0.5-0.3l0,0l0,0
			C9.3,3.4,9.4,3.3,9.4,3.1L9.4,3.1L9.4,3.1z M9.4,3.2C9.3,3.3,9.3,3.4,9.2,3.5C9,3.5,8.9,3.6,8.7,3.8C8.6,3.8,8.6,3.9,8.6,3.9
			C8.7,3.5,9,3.3,9.4,3.2z"/>
	</g>
	<g>
		<path class="st2" d="M10.2,3.5c0.2,0,0.4,0.2,0.5,0.3C10.8,3.9,10.9,4,11,4.1c-0.1-0.5-0.5-0.9-1-0.9C10.1,3.3,10.1,3.4,10.2,3.5
			L10.2,3.5z"/>
		<path class="st1" d="M10,3.2c0.1,0.1,0.1,0.2,0.2,0.3l0,0l0,0c0.2,0,0.4,0.1,0.5,0.3c0.1,0.1,0.2,0.2,0.2,0.3l0.1,0
			C10.9,3.6,10.5,3.2,10,3.2L10,3.2L10,3.2z M10.1,3.2c0.4,0,0.7,0.3,0.8,0.7c0-0.1-0.1-0.1-0.1-0.2c-0.2-0.2-0.3-0.3-0.5-0.3
			C10.2,3.4,10.1,3.3,10.1,3.2z"/>
	</g>
	<g>
		<path class="st2" d="M8.6,4.6c0,0,0,0.1-0.1,0.1c0,0,0,0.1,0,0.1c0,0,0,0-0.1,0c-0.1,0-0.1,0-0.1,0.1c0,0,0,0-0.1-0.1
			c0,0-0.1-0.1-0.2-0.1c0.1-0.1,0.2-0.2,0.4-0.2C8.5,4.6,8.6,4.6,8.6,4.6L8.6,4.6z"/>
		<path class="st1" d="M8.1,4.8L8.1,4.8L8.1,4.8c0.1,0,0.1,0.1,0.2,0.1L8.3,5l0,0c0,0,0.1-0.1,0.1-0.1l0.1,0l0,0c0,0,0-0.1,0-0.1
			c0,0,0-0.1,0.1-0.1l0,0l0,0c0,0-0.1,0-0.2,0C8.3,4.6,8.2,4.7,8.1,4.8z M8.5,4.6c0,0,0.1,0,0.1,0c0,0,0,0.1,0,0.1c0,0,0,0.1,0,0.1
			c0,0,0,0,0,0c0,0-0.1,0-0.1,0c0,0-0.1,0-0.1,0c0,0,0-0.1,0-0.1c0,0-0.1-0.1-0.2-0.1C8.2,4.7,8.3,4.6,8.5,4.6z"/>
	</g>
	<g>
		<path class="st2" d="M8.9,5.2c0,0-0.1,0-0.1-0.1c0,0-0.1,0-0.1,0c0,0,0,0,0-0.1c0-0.1,0-0.1-0.1-0.1c0,0,0,0,0.1-0.1
			c0,0,0.1-0.1,0.1-0.2c0.1,0.1,0.2,0.2,0.2,0.4C8.9,5.1,8.9,5.2,8.9,5.2L8.9,5.2z"/>
		<path class="st1" d="M8.7,4.7c0,0.1,0,0.1-0.1,0.2L8.6,4.9l0,0c0,0,0.1,0.1,0.1,0.1l0,0.1l0,0c0,0,0.1,0,0.1,0c0,0,0.1,0,0.1,0.1
			l0,0l0,0c0,0,0-0.1,0-0.2C8.9,4.9,8.9,4.8,8.7,4.7L8.7,4.7L8.7,4.7z M8.7,4.9c0,0,0.1-0.1,0.1-0.2c0.1,0.1,0.1,0.2,0.1,0.3
			c0,0,0,0.1,0,0.1c0,0-0.1,0-0.1,0c0,0-0.1,0-0.1,0c0,0,0-0.1,0-0.1C8.7,5,8.6,5,8.7,4.9C8.6,4.9,8.7,4.9,8.7,4.9z"/>
	</g>
	<g>
		<path class="st2" d="M7.7,5.4c0,0-0.1,0-0.1,0c0,0-0.1,0-0.1,0c0-0.1,0-0.1-0.1-0.1c0,0,0,0,0,0c0,0,0,0,0,0c0,0,0-0.1,0-0.1
			c0.1,0,0.2,0.1,0.2,0.3C7.7,5.3,7.7,5.3,7.7,5.4L7.7,5.4z"/>
		<path class="st1" d="M7.5,5c0,0.1,0,0.1,0,0.1L7.4,5.2l0,0c0,0,0.1,0.1,0.1,0.1l0,0h0h0.1c0,0,0.1,0,0.1,0l0,0l0,0
			c0,0,0-0.1,0-0.1C7.7,5.1,7.6,5,7.5,5L7.5,5L7.5,5z M7.5,5.2c0,0,0-0.1,0-0.1c0.1,0,0.1,0.1,0.2,0.2c0,0,0,0,0,0.1c0,0,0,0,0,0
			c0,0-0.1,0-0.1,0c0,0-0.1,0-0.1,0C7.5,5.3,7.5,5.2,7.5,5.2C7.5,5.2,7.5,5.2,7.5,5.2z"/>
	</g>
	<g>
		<path class="st2" d="M11.8,5.4c0,0,0.1,0,0.1,0c0,0,0.1,0,0.1,0c0-0.1,0-0.1,0.1-0.1c0,0,0,0,0,0c0,0,0,0,0,0c0,0,0-0.1,0-0.1
			c-0.1,0-0.2,0.1-0.2,0.3C11.7,5.3,11.7,5.3,11.8,5.4L11.8,5.4z"/>
		<path class="st1" d="M11.9,5c-0.1,0-0.2,0.2-0.2,0.3c0,0,0,0.1,0,0.1l0,0l0,0c0,0,0.1,0,0.1,0h0.1l0,0l0,0c0-0.1,0-0.1,0.1-0.1
			l0,0l0,0l0,0C12,5.1,12,5.1,11.9,5L11.9,5L11.9,5z M11.8,5.3C11.8,5.3,11.8,5.3,11.8,5.3c0-0.2,0.1-0.2,0.2-0.3c0,0,0,0.1,0,0.1
			c0,0,0,0,0,0c0,0-0.1,0.1-0.1,0.1C11.9,5.3,11.9,5.3,11.8,5.3C11.8,5.3,11.8,5.3,11.8,5.3C11.8,5.3,11.8,5.3,11.8,5.3z"/>
	</g>
	<g>
		<path class="st2" d="M8,4.9c0,0,0.1,0,0.1,0.1c0,0,0.1,0,0.1,0c0,0,0,0,0,0.1c0,0.1,0,0.1,0.1,0.1c0,0,0,0-0.1,0.1
			c0,0-0.1,0.1-0.1,0.2C8.1,5.3,8,5.2,8,5.1C8,5,8,5,8,4.9L8,4.9z"/>
		<path class="st1" d="M8,4.9C8,5,8,5,8,5.1c0,0.2,0.1,0.3,0.2,0.4l0,0l0,0c0-0.1,0-0.1,0.1-0.2l0.1-0.1l0,0c0,0-0.1-0.1-0.1-0.1
			l0-0.1l0,0c0,0-0.1,0-0.1,0C8.1,4.9,8.1,4.9,8,4.9L8,4.9L8,4.9z M8,5.1C8,5,8,5,8,4.9c0,0,0.1,0,0.1,0c0,0,0.1,0,0.1,0
			c0,0,0,0.1,0,0.1c0,0,0,0.1,0,0.1c0,0-0.1,0-0.1,0c0,0-0.1,0.1-0.1,0.2C8.1,5.3,8,5.2,8,5.1z"/>
	</g>
	<g>
		<path class="st2" d="M10.8,4.6c0,0,0,0.1,0.1,0.1c0,0,0,0.1,0,0.1c0,0,0,0,0.1,0c0.1,0,0.1,0,0.1,0.1c0,0,0,0,0.1-0.1
			c0,0,0.1-0.1,0.2-0.1c-0.1-0.1-0.2-0.2-0.4-0.2C10.9,4.6,10.9,4.6,10.8,4.6L10.8,4.6z"/>
		<path class="st1" d="M10.8,4.6L10.8,4.6L10.8,4.6c0,0.1,0,0.1,0,0.1c0,0,0,0.1,0,0.1l0,0l0,0l0.1,0c0,0,0.1,0,0.1,0.1l0,0l0,0
			l0-0.1c0,0,0.1-0.1,0.2-0.1l0,0l0,0c-0.1-0.1-0.2-0.2-0.4-0.2C10.9,4.6,10.9,4.6,10.8,4.6z M11,4.6c0.1,0,0.3,0.1,0.3,0.1
			c-0.1,0-0.1,0-0.2,0.1c0,0,0,0,0,0.1c0,0-0.1,0-0.1,0c0,0,0,0-0.1,0c0,0,0,0,0,0c0,0,0-0.1,0-0.1c0,0,0-0.1,0-0.1
			C10.9,4.6,11,4.6,11,4.6z"/>
	</g>
	<g>
		<path class="st2" d="M11.4,4.9c0,0-0.1,0-0.1,0.1c0,0-0.1,0-0.1,0c0,0,0,0,0,0.1c0,0.1,0,0.1-0.1,0.1c0,0,0,0,0.1,0.1
			c0,0,0.1,0.1,0.1,0.2c0.1-0.1,0.2-0.2,0.2-0.4C11.5,5,11.4,5,11.4,4.9L11.4,4.9z"/>
		<path class="st1" d="M11.4,4.9c0,0-0.1,0-0.1,0.1c0,0-0.1,0-0.1,0l0,0l0,0l0,0.1c0,0,0,0.1-0.1,0.1l0,0l0,0l0.1,0
			c0,0,0.1,0.1,0.1,0.2l0,0l0,0c0.1-0.1,0.2-0.2,0.2-0.4C11.5,5,11.5,5,11.4,4.9L11.4,4.9L11.4,4.9z M11.3,5C11.4,5,11.4,5,11.3,5
			c0.1,0,0.1,0,0.1,0.1c0,0.1-0.1,0.3-0.1,0.3c0-0.1,0-0.1-0.1-0.2c0,0,0,0-0.1,0c0,0,0-0.1,0-0.1c0,0,0,0,0-0.1
			C11.2,5,11.3,5,11.3,5z"/>
	</g>
	<g>
		<path class="st2" d="M10.6,5.2c0,0,0.1,0,0.1-0.1c0,0,0.1,0,0.1,0c0,0,0,0,0-0.1c0-0.1,0-0.1,0.1-0.1c0,0,0,0-0.1-0.1
			c0,0-0.1-0.1-0.1-0.2c-0.1,0.1-0.2,0.2-0.2,0.4C10.5,5.1,10.5,5.2,10.6,5.2L10.6,5.2z"/>
		<path class="st1" d="M10.7,4.7c-0.1,0.1-0.2,0.2-0.2,0.4c0,0.1,0,0.1,0,0.2l0,0l0,0c0,0,0.1,0,0.1-0.1c0,0,0.1,0,0.1,0l0,0l0,0
			l0-0.1c0,0,0-0.1,0.1-0.1l0,0l-0.1-0.1C10.8,4.8,10.7,4.8,10.7,4.7L10.7,4.7L10.7,4.7z M10.5,5.1L10.5,5.1c0-0.1,0.1-0.3,0.1-0.3
			c0,0.1,0,0.1,0.1,0.2c0,0,0,0,0.1,0c0,0,0,0.1,0,0.1c0,0,0,0,0,0.1c0,0-0.1,0-0.1,0c0,0-0.1,0-0.1,0C10.6,5.1,10.5,5.1,10.5,5.1z"
			/>
	</g>
	<path class="st9" d="M9.7,5.7c0.1,0,0.2,0,0.4,0l0,0l0,0.2l0,0c0,0-0.1,0-0.1,0c-0.1,0-0.2,0-0.3,0c-0.1,0-0.1,0-0.2,0l0,0l0-0.2
		l0,0C9.5,5.7,9.6,5.7,9.7,5.7L9.7,5.7z"/>
	<path class="st9" d="M8.1,6C8.3,6,8.5,5.9,8.7,5.8l0,0l0,0.2l0,0C8.7,6,8.6,6,8.6,6.1l0,0l-0.1,0l0,0c-0.1,0-0.2,0.1-0.3,0.1l0,0
		L8.1,6L8.1,6z"/>
	<path class="st9" d="M11.4,6C11.2,6,11,5.9,10.7,5.8l0,0l0,0.2l0,0c0.1,0,0.1,0,0.2,0.1l0,0l0.1,0l0,0c0.1,0,0.2,0.1,0.3,0.1l0,0
		L11.4,6L11.4,6z"/>
	<g>
		<path class="st1" d="M7.9,6.1L7.9,6.1L7.9,6.1c-0.1,0.1,0,0.2,0,0.2C8,6.4,8,6.5,8.1,6.5l0,0l0,0c0.5-0.2,1.1-0.3,1.6-0.3
			c0.6,0,1.1,0.1,1.6,0.3l0,0l0,0c0.1,0,0.1-0.1,0.2-0.2c0-0.1,0-0.2,0-0.2l0,0l0,0C11,5.8,10.3,5.7,9.7,5.7
			C9.1,5.7,8.5,5.8,7.9,6.1z M9.7,5.8c0.6,0,1.2,0.1,1.8,0.4c0,0,0,0,0,0c0,0,0,0.1,0,0.1c0,0.1-0.1,0.1-0.1,0.1
			c-0.5-0.2-1.1-0.3-1.6-0.3c-0.6,0-1.1,0.1-1.6,0.3c0,0-0.1,0-0.1-0.1c0-0.1,0-0.1,0-0.1c0,0,0,0,0,0C8.5,5.9,9.1,5.8,9.7,5.8z"/>
	</g>
	<g>
		<path class="st2" d="M10,2.8H9.4l0,0c0-0.1,0.1-0.2,0.3-0.2C9.9,2.6,10,2.7,10,2.8L10,2.8z"/>
		<path class="st1" d="M9.4,2.8l0.6,0l0,0c0-0.1-0.1-0.2-0.3-0.2C9.6,2.6,9.4,2.7,9.4,2.8z M9.7,2.6c0.1,0,0.3,0.1,0.3,0.2
			c0,0-0.6,0-0.6,0C9.4,2.7,9.6,2.6,9.7,2.6z"/>
	</g>
	<g>
		<path class="st10" d="M9.6,2.8h0.2v0.2H9.6V2.8L9.6,2.8z"/>
		<path class="st1" d="M9.6,2.8v0.3l0.2,0l0-0.3L9.6,2.8L9.6,2.8z M9.8,2.8l0,0.2l-0.2,0c0,0,0-0.2,0-0.2C9.6,2.8,9.8,2.8,9.8,2.8z"
			/>
	</g>
	<g>
		<path class="st10" d="M9.7,4.5c0.1-0.1,0.1-0.2,0.2-0.3C10,4.1,10,4,10,3.8c0-0.1,0-0.2-0.1-0.3c0-0.1-0.1-0.2-0.2-0.3
			C9.6,3.3,9.6,3.4,9.5,3.5c0,0.1-0.1,0.2-0.1,0.3c0,0.1,0,0.2,0.1,0.4C9.6,4.3,9.6,4.4,9.7,4.5L9.7,4.5z"/>
		<path class="st1" d="M9.7,3.2C9.6,3.3,9.6,3.4,9.5,3.5c0,0.1-0.1,0.2-0.1,0.3c0,0.1,0,0.2,0.1,0.4c0,0.1,0.1,0.2,0.2,0.3l0,0l0,0
			c0.1-0.1,0.2-0.2,0.2-0.3C10,4.1,10,4,10,3.8c0-0.1,0-0.2-0.1-0.3C9.9,3.4,9.8,3.3,9.7,3.2L9.7,3.2L9.7,3.2z M9.6,4.2
			c0-0.1-0.1-0.2-0.1-0.3c0,0,0,0,0,0c0-0.1,0-0.2,0.1-0.3c0-0.1,0.1-0.2,0.2-0.2c0.1,0.1,0.1,0.1,0.2,0.2c0,0.1,0.1,0.2,0.1,0.3
			c0,0,0,0,0,0c0,0.1,0,0.2-0.1,0.3c0,0.1-0.1,0.2-0.2,0.3C9.7,4.4,9.6,4.3,9.6,4.2z"/>
	</g>
	<g>
		<path class="st0" d="M9.7,3.7c0.1,0,0.2,0.1,0.2,0.2c0,0.1-0.1,0.2-0.2,0.2C9.6,4.1,9.5,4,9.5,3.9C9.5,3.8,9.6,3.7,9.7,3.7
			L9.7,3.7z M9.7,3.3c0.1,0,0.2,0.1,0.2,0.2c0,0.1-0.1,0.2-0.2,0.2c-0.1,0-0.2-0.1-0.2-0.2C9.6,3.4,9.6,3.3,9.7,3.3L9.7,3.3z
			 M9.7,4.1c0.1,0,0.2,0.1,0.2,0.2c0,0.1-0.1,0.2-0.2,0.2c-0.1,0-0.2-0.1-0.2-0.2C9.6,4.2,9.6,4.1,9.7,4.1L9.7,4.1z"/>
		<path class="st1" d="M9.5,3.9c0,0.1,0.1,0.2,0.2,0.2C9.9,4.1,10,4,10,3.9c0-0.1-0.1-0.2-0.2-0.2C9.6,3.6,9.5,3.8,9.5,3.9z
			 M9.5,3.9c0-0.1,0.1-0.2,0.2-0.2c0.1,0,0.2,0.1,0.2,0.2c0,0.1-0.1,0.2-0.2,0.2C9.6,4.1,9.5,4,9.5,3.9z"/>
		<path class="st1" d="M9.6,3.3c0,0-0.1,0.1-0.1,0.1c0,0.1,0,0.1,0.1,0.1c0,0,0.1,0.1,0.1,0.1c0.1,0,0.1,0,0.1-0.1
			c0,0,0.1-0.1,0.1-0.1c0-0.1-0.1-0.2-0.2-0.2C9.7,3.3,9.6,3.3,9.6,3.3z M9.6,3.6C9.6,3.5,9.6,3.5,9.6,3.6c0-0.1,0-0.2,0-0.2
			c0,0,0.1,0,0.1,0c0.1,0,0.1,0.1,0.1,0.1c0,0,0,0.1,0,0.1C9.8,3.6,9.8,3.6,9.6,3.6C9.7,3.6,9.7,3.6,9.6,3.6z"/>
		<path class="st1" d="M9.6,4.1c0,0-0.1,0.1-0.1,0.1c0,0.1,0.1,0.2,0.2,0.2c0.1,0,0.2-0.1,0.2-0.2c0-0.1-0.1-0.2-0.2-0.2
			C9.7,4.1,9.6,4.1,9.6,4.1z M9.6,4.3C9.6,4.2,9.6,4.2,9.6,4.3c0.1-0.1,0.1-0.1,0.1-0.1c0.1,0,0.1,0.1,0.1,0.1
			c0,0.1-0.1,0.1-0.1,0.1C9.7,4.4,9.6,4.4,9.6,4.3z"/>
	</g>
	<g>
		<path class="st0" d="M9.7,4.5c0.1-0.1,0.1-0.2,0.2-0.3C10,4.1,10,4,10,3.8c0-0.1,0-0.2-0.1-0.3c0-0.1-0.1-0.2-0.2-0.3
			C9.6,3.3,9.6,3.4,9.5,3.5c0,0.1-0.1,0.2-0.1,0.3c0,0.1,0,0.2,0.1,0.4C9.6,4.3,9.6,4.4,9.7,4.5L9.7,4.5z M9.7,3.1
			C9.8,3.2,9.9,3.3,10,3.4c0.1,0.1,0.1,0.3,0.1,0.4c0,0.2,0,0.3-0.1,0.5C10,4.5,9.9,4.6,9.7,4.7C9.6,4.6,9.5,4.5,9.4,4.3
			C9.4,4.2,9.3,4,9.3,3.8c0-0.2,0-0.3,0.1-0.4C9.5,3.3,9.6,3.2,9.7,3.1L9.7,3.1z"/>
		<path class="st1" d="M9.7,3.2C9.6,3.3,9.6,3.4,9.5,3.5c0,0.1-0.1,0.2-0.1,0.3c0,0.1,0,0.2,0.1,0.4c0,0.1,0.1,0.2,0.2,0.3l0,0l0,0
			c0.1-0.1,0.2-0.2,0.2-0.3C10,4.1,10,4,10,3.8c0-0.1,0-0.2-0.1-0.3C9.9,3.4,9.8,3.3,9.7,3.2L9.7,3.2L9.7,3.2z M9.6,4.2
			c0-0.1-0.1-0.2-0.1-0.3c0,0,0,0,0,0c0-0.1,0-0.2,0.1-0.3c0-0.1,0.1-0.2,0.2-0.2c0.1,0.1,0.1,0.1,0.2,0.2c0,0.1,0.1,0.2,0.1,0.3
			c0,0,0,0,0,0c0,0.1,0,0.2-0.1,0.3c0,0.1-0.1,0.2-0.2,0.3C9.7,4.4,9.6,4.3,9.6,4.2z"/>
		<path class="st1" d="M9.7,3.1C9.6,3.1,9.5,3.3,9.4,3.4C9.4,3.5,9.3,3.7,9.3,3.8c0,0.2,0,0.3,0.1,0.5c0.1,0.2,0.2,0.3,0.3,0.4l0,0
			l0,0C9.9,4.6,10,4.5,10,4.3c0.1-0.2,0.1-0.3,0.1-0.5c0-0.2,0-0.3-0.1-0.5C9.9,3.3,9.9,3.1,9.7,3.1L9.7,3.1L9.7,3.1z M9.4,4.3
			C9.4,4.2,9.4,4,9.4,3.9c0,0,0,0,0,0c0-0.2,0-0.3,0.1-0.4c0.1-0.1,0.2-0.2,0.3-0.3C9.8,3.2,9.9,3.3,10,3.4c0.1,0.1,0.1,0.3,0.1,0.4
			c0,0,0,0,0,0c0,0.2,0,0.3-0.1,0.4C9.9,4.5,9.8,4.6,9.7,4.7C9.6,4.6,9.5,4.5,9.4,4.3z"/>
	</g>
	<g>
		<path class="st2" d="M10,4.5C9.9,4.6,9.9,4.6,10,4.5C9.9,4.7,9.8,4.7,9.8,4.8c0,0,0,0-0.1,0c-0.1,0-0.1,0-0.1,0c0,0,0-0.1,0-0.1
			c0-0.1-0.1-0.1-0.1-0.1c0.1-0.1,0.2-0.1,0.4-0.1C9.9,4.5,9.9,4.5,10,4.5L10,4.5z"/>
		<path class="st1" d="M9.4,4.5L9.4,4.5L9.4,4.5c0.1,0.1,0.1,0.1,0.1,0.2l0,0.1l0,0c0,0,0.1,0,0.1,0l0.1,0l0,0c0,0,0-0.1,0.1-0.1
			c0,0,0-0.1,0.1-0.1l0,0l0,0c0,0-0.1,0-0.1-0.1C9.7,4.4,9.5,4.4,9.4,4.5z M9.8,4.5c0,0,0.1,0,0.1,0c0,0-0.1,0.1-0.1,0.1
			c0,0,0,0.1,0,0.1c0,0,0,0,0,0c0,0-0.1,0-0.1,0c0,0,0-0.1,0-0.1c0,0-0.1-0.1-0.1-0.1C9.6,4.5,9.7,4.5,9.8,4.5z"/>
	</g>
	<g>
		<path class="st10" d="M9.7,3C9.9,3,10,3.1,10,3.2c-0.1,0-0.2,0-0.3,0c-0.1,0-0.2,0-0.3,0C9.5,3.1,9.6,3,9.7,3L9.7,3z"/>
		<path class="st1" d="M9.4,3.2L9.4,3.2L9.4,3.2c0.1,0,0.2,0,0.3,0c0.1,0,0.2,0,0.3,0l0,0l0,0C10,3.1,9.9,3,9.7,3
			C9.6,3,9.5,3.1,9.4,3.2z M9.7,3c0.1,0,0.2,0,0.3,0.1C9.9,3.1,9.8,3.1,9.7,3C9.6,3.1,9.5,3.1,9.5,3.2C9.5,3.1,9.6,3,9.7,3z"/>
	</g>
</g>
</svg>
