<?xml version="1.0" encoding="utf-8"?>
<!-- Generator: Adobe Illustrator 19.1.0, SVG Export Plug-In . SVG Version: 6.00 Build 0)  -->
<svg version="1.1" id="Layer_1" xmlns="http://www.w3.org/2000/svg" xmlns:xlink="http://www.w3.org/1999/xlink" x="0px" y="0px"
	 viewBox="0 0 20 20" style="enable-background:new 0 0 20 20;" xml:space="preserve">
<style type="text/css">
	.st0{fill:#D4BF85;enable-background:new    ;}
	.st1{fill:#343536;}
	.st2{fill:#323131;enable-background:new    ;}
	.st3{fill:#E25645;enable-background:new    ;}
	.st4{fill:#343536;enable-background:new    ;}
	.st5{fill:#FFFFFF;enable-background:new    ;}
	.st6{fill:#AB77A2;enable-background:new    ;}
	.st7{fill:#D4BF85;}
	.st8{fill:#C24B3E;enable-background:new    ;}
	.st9{fill:#DF4145;enable-background:new    ;}
	.st10{fill:#7C86BC;enable-background:new    ;}
</style>
<g>
	<g>
		<path class="st0" d="M6.8,5.7L10,4l3.3,1.7l0,0c0.1-0.3,0.3-0.4,0.5-0.4c0.4-1.1-1.1-1.9-1.8-1.9c-0.3-0.3-1.4-0.7-1.9-0.5
			C9.6,2.7,8.4,3.1,8.1,3.4C7.3,3.4,5.9,4.2,6.3,5.3C6.5,5.4,6.6,5.4,6.8,5.7L6.8,5.7z"/>
		<path class="st1" d="M8.1,3.4c-0.5,0-1.2,0.3-1.7,0.8C6.2,4.6,6.1,4.9,6.3,5.3l0,0l0,0c0.2,0.1,0.3,0.1,0.5,0.4l0.1,0
			C6.8,5.8,10,4,10,4c0,0,3.2,1.7,3.2,1.7l0.1,0c0.1-0.3,0.3-0.4,0.5-0.4l0,0l0,0c0.1-0.4,0.1-0.8-0.2-1.1c-0.4-0.5-1.2-0.8-1.7-0.8
			c-0.3-0.3-1.5-0.7-1.9-0.5C9.6,2.7,8.4,3.1,8.1,3.4z M8.2,3.5C8.4,3.2,9.6,2.8,10,3l0,0l0,0c0.4-0.2,1.6,0.2,1.9,0.5l0,0l0,0
			c0.5,0,1.2,0.3,1.6,0.8c0.1,0.2,0.3,0.4,0.3,0.7c0,0.1,0,0.2-0.1,0.3c-0.2,0.1-0.3,0.1-0.5,0.4c-0.1,0-3.2-1.7-3.2-1.7
			S6.9,5.6,6.8,5.7C6.7,5.4,6.5,5.3,6.3,5.3c0-0.1-0.1-0.2-0.1-0.3c0-0.3,0.1-0.5,0.3-0.7C6.9,3.7,7.7,3.4,8.2,3.5L8.2,3.5L8.2,3.5z
			"/>
	</g>
	<g>
		<path class="st2" d="M10,6.9c3.1,0,5.6,2.5,5.6,5.6c0,3.1-2.5,5.6-5.6,5.6c-3.1,0-5.6-2.5-5.6-5.6C4.4,9.4,6.9,6.9,10,6.9L10,6.9z
			"/>
		<path class="st1" d="M4.4,12.5c0,3.1,2.5,5.7,5.7,5.7c3.1,0,5.7-2.5,5.7-5.7S13.2,6.8,10,6.8C6.9,6.8,4.4,9.4,4.4,12.5z M4.4,12.5
			c0-3.1,2.5-5.6,5.6-5.6c3.1,0,5.6,2.5,5.6,5.6c0,3.1-2.5,5.6-5.6,5.6C6.9,18.1,4.4,15.6,4.4,12.5z"/>
	</g>
	<g>
		<path class="st2" d="M10,7.2c2.9,0,5.2,2.4,5.2,5.2c0,0.8-0.2,1.5-0.5,2.2l0,0L7.7,7.8l0,0C8.4,7.4,9.2,7.2,10,7.2L10,7.2z
			 M12.6,17.1c-0.8,0.4-1.6,0.7-2.5,0.7c-2.9,0-5.2-2.4-5.2-5.2c0-0.9,0.2-1.7,0.6-2.4l0,0L12.6,17.1L12.6,17.1z"/>
		<path class="st1" d="M7.7,7.8L7.7,7.8l7.1,6.9l0.1,0c0.3-0.7,0.5-1.4,0.5-2.2c0-2.9-2.4-5.3-5.3-5.3C9.2,7.2,8.4,7.4,7.7,7.8z
			 M10,7.3c2.9,0,5.2,2.3,5.2,5.2c0,0.7-0.2,1.4-0.4,2.1c-0.1-0.1-6.9-6.7-7-6.8C8.5,7.5,9.2,7.3,10,7.3z"/>
		<path class="st1" d="M5.3,10.1c-0.4,0.7-0.6,1.6-0.6,2.4c0,2.9,2.4,5.3,5.3,5.3c0.9,0,1.8-0.2,2.6-0.7l0-0.1L5.3,10.1L5.3,10.1z
			 M4.8,12.5c0-0.8,0.2-1.6,0.6-2.3c0.1,0.1,7,6.8,7.1,6.9c-0.8,0.4-1.6,0.6-2.5,0.6C7.2,17.7,4.8,15.4,4.8,12.5z"/>
	</g>
	<g>
		<path class="st2" d="M14.7,14.9c-0.4,0.8-1.1,1.5-1.9,2l0,0L5.5,9.8l0,0C6,9,6.6,8.4,7.5,7.9l0,0L14.7,14.9L14.7,14.9z"/>
		<path class="st1" d="M7.4,7.9C6.6,8.3,5.9,9,5.5,9.8l0,0l7.4,7.1l0,0c0.8-0.5,1.4-1.2,1.9-2l0,0L7.4,7.9L7.4,7.9z M7.4,8
			c0,0,7.1,6.9,7.2,6.9c-0.4,0.8-1,1.5-1.8,2c0,0-7.2-7-7.3-7C6,9.1,6.7,8.4,7.4,8z"/>
	</g>
	<g>
		<path class="st3" d="M10,3.7c1,0,1.4,0.2,1.8,0.6l0,0l0,0.4l0.3,0l0.1-0.5l0,0c0.5,0,1.1,0.3,1.3,0.9l0,0l-0.2,0.5l0,0
			c0,0.1,0.1,0.3,0,0.3c0,0.1-0.1,0.1-0.3,0l0,0l-0.5,0.3L10,5.9L7.5,6.3L7,6l0,0C6.8,6.1,6.7,6.1,6.7,6c0-0.1,0-0.2,0-0.3l0,0
			L6.5,5.1l0,0c0.2-0.6,0.8-0.9,1.3-0.9l0,0l0.1,0.5l0.3,0l0-0.4l0,0C8.6,3.9,9,3.7,10,3.7L10,3.7z"/>
		<path class="st1" d="M10,3.7c-1,0-1.5,0.2-1.9,0.6l0,0c0,0,0,0.4,0,0.4c0,0-0.2,0-0.2,0c0-0.1-0.1-0.5-0.1-0.5l0,0
			c-0.5,0-1.1,0.3-1.3,0.9l0,0c0,0,0.2,0.5,0.2,0.5c0,0.1-0.1,0.2-0.1,0.3c0,0,0,0.1,0,0.1c0,0,0,0.1,0.1,0.1c0.1,0,0.2,0,0.3-0.1
			c0,0,0.5,0.3,0.5,0.3S10,5.9,10,5.9c0,0,2.6,0.4,2.6,0.4S13,6.1,13.1,6c0.1,0.1,0.2,0.1,0.3,0.1c0,0,0.1,0,0.1-0.1
			c0,0,0-0.1,0-0.1c0-0.1,0-0.2-0.1-0.3c0,0,0.2-0.5,0.2-0.5l0,0c-0.2-0.6-0.8-0.9-1.3-0.9l0,0c0,0,0,0.4-0.1,0.5c0,0-0.2,0-0.2,0
			c0-0.1,0-0.4,0-0.4l0,0C11.5,3.9,11.1,3.7,10,3.7L10,3.7L10,3.7z M10,3.7c1,0,1.4,0.2,1.8,0.6c0,0,0,0.5,0,0.5l0.3,0
			c0,0,0-0.4,0.1-0.5c0.5,0,1,0.3,1.2,0.8c0,0-0.2,0.5-0.2,0.5l0,0c0,0.1,0.1,0.2,0.1,0.2c0,0,0,0,0,0.1c0,0,0,0,0,0
			c0,0-0.1,0-0.2-0.1l0,0c0,0-0.5,0.3-0.5,0.3c0,0-2.6-0.4-2.6-0.4S7.5,6.2,7.5,6.2c0,0-0.5-0.3-0.5-0.3l0,0C6.8,6,6.8,6,6.7,6
			c0,0,0,0,0,0c0,0,0,0,0-0.1c0-0.1,0-0.2,0.1-0.3l0,0c0,0-0.2-0.5-0.2-0.5c0.2-0.5,0.7-0.8,1.2-0.8c0,0.1,0.1,0.5,0.1,0.5l0.3,0
			c0,0,0-0.4,0-0.5C8.6,4,9,3.8,10,3.7z"/>
	</g>
	<g>
		<path class="st2" d="M11,14.1h-1v2.4H9.2v-4.4h0.2l0,0h1.9v0.8H10v0.5h1V14.1L11,14.1z"/>
		<path class="st1" d="M11.3,12.1H9.2v4.5H10c0,0,0-2.4,0-2.4c0.1,0,1,0,1,0v-0.8c0,0-1,0-1,0c0-0.1,0-0.4,0-0.4c0.1,0,1.3,0,1.3,0
			L11.3,12.1L11.3,12.1z M9.4,12.1c0,0,1.8,0,1.9,0c0,0.1,0,0.6,0,0.7c-0.1,0-1.3,0-1.3,0v0.5c0,0,1,0,1,0c0,0.1,0,0.6,0,0.7
			c-0.1,0-1,0-1,0s0,2.4,0,2.4c-0.1,0-0.7,0-0.7,0c0-0.1,0-4.3,0-4.4C9.3,12.1,9.4,12.1,9.4,12.1z"/>
	</g>
	<g>
		<path class="st2" d="M10,9.7c0.8,0,1.5,0.4,2.1,0.9l0,0l-0.6,0.6l0,0c-0.4-0.4-0.9-0.6-1.4-0.6c-1.1,0-1.9,0.9-1.9,1.9
			c0,1.1,0.9,1.9,1.9,1.9c0.6,0,1.1-0.2,1.4-0.6l0,0l0.6,0.6l0,0c-0.5,0.6-1.2,0.9-2.1,0.9c-1.5,0-2.8-1.2-2.8-2.8
			C7.3,11,8.5,9.7,10,9.7L10,9.7z"/>
		<path class="st1" d="M7.2,12.5c0,1.6,1.3,2.8,2.8,2.8c0.8,0,1.5-0.3,2.1-0.9l0-0.1l-0.6-0.6l0,0c-0.4,0.4-0.9,0.6-1.4,0.6
			c-1,0-1.9-0.9-1.9-1.9c0-1,0.9-1.9,1.9-1.9c0.5,0,1,0.2,1.4,0.6l0,0l0.6-0.6l0-0.1C11.6,10,10.8,9.7,10,9.7
			C8.5,9.7,7.2,10.9,7.2,12.5z M7.3,12.5c0-1.5,1.2-2.7,2.7-2.7c0.8,0,1.5,0.3,2,0.9c-0.1,0-0.5,0.5-0.6,0.5
			c-0.4-0.4-0.9-0.6-1.4-0.6c-1.1,0-2,0.9-2,2c0,1.1,0.9,2,2,2c0.5,0,1.1-0.2,1.4-0.6c0,0,0.5,0.5,0.6,0.5c-0.5,0.6-1.2,0.9-2,0.9
			C8.5,15.2,7.3,14,7.3,12.5z"/>
	</g>
	<g>
		<path class="st1" d="M8.1,3.4c-0.5,0-1.2,0.3-1.7,0.8C6.2,4.6,6.1,4.9,6.3,5.3l0,0l0,0c0.2,0.1,0.3,0.1,0.5,0.4l0.1,0
			C6.7,5.4,6.5,5.3,6.3,5.3c0-0.1-0.1-0.2-0.1-0.3c0-0.3,0.1-0.5,0.3-0.7C6.9,3.7,7.7,3.4,8.1,3.4L8.1,3.4L8.1,3.4
			C8.4,3.2,9.6,2.8,10,3l0-0.1C9.6,2.7,8.4,3.1,8.1,3.4z"/>
	</g>
	<g>
		<path class="st2" d="M12.2,8.8c1.3,0.7,2.1,2.1,2.1,3.7c0,1.6-0.9,2.9-2.1,3.7l0,0v-1l0,0c0.8-0.6,1.3-1.6,1.3-2.6
			c0-1-0.5-2-1.2-2.6l0,0l-0.5,0.4l0,0c-0.2-0.2-0.5-0.3-0.8-0.5l0,0L12.2,8.8L12.2,8.8z M11.2,10.9L10,12.1v0L7.8,9.9l0,0
			c-0.7,0.6-1.2,1.6-1.2,2.6c0,1.1,0.5,2,1.3,2.6l0,0v1l0,0c-1.3-0.7-2.1-2.1-2.1-3.7c0-1.6,0.9-3,2.1-3.7l0,0l2.2,2.1v0l0.3-0.3
			l0,0C10.6,10.6,10.9,10.7,11.2,10.9L11.2,10.9z"/>
		<path class="st1" d="M12.2,8.8L11,9.9l0,0.1c0.3,0.1,0.5,0.3,0.8,0.5l0,0c0,0,0.4-0.4,0.5-0.4c0.7,0.6,1.1,1.6,1.1,2.5
			c0,1-0.5,2-1.2,2.6l0,0v1.1l0.1,0c1.3-0.8,2.1-2.2,2.1-3.7C14.3,11,13.5,9.5,12.2,8.8L12.2,8.8L12.2,8.8z M12.2,8.8
			c1.3,0.8,2.1,2.2,2.1,3.6c0,1.5-0.8,2.9-2,3.6c0-0.1,0-0.9,0-1c0.8-0.7,1.3-1.6,1.3-2.7c0-1-0.4-1.9-1.2-2.6l0,0
			c0,0-0.4,0.4-0.5,0.4c-0.2-0.2-0.5-0.3-0.7-0.4C11.2,9.8,12.1,8.9,12.2,8.8z"/>
		<path class="st1" d="M7.9,8.8C6.5,9.5,5.7,11,5.7,12.5c0,1.5,0.8,2.9,2.1,3.7l0.1,0v-1.1l0,0c-0.8-0.6-1.2-1.6-1.2-2.6l0,0
			c0-1,0.4-1.9,1.1-2.5C7.8,10,10,12.1,10,12.1l0,0l1.2-1.1l0-0.1c-0.3-0.2-0.6-0.3-0.9-0.4l0,0c0,0-0.2,0.2-0.3,0.3
			C10,10.7,7.9,8.7,7.9,8.8L7.9,8.8z M5.8,12.5c0-1.5,0.8-2.9,2.1-3.6c0,0,2.2,2.1,2.2,2.1l0,0c0,0,0.3-0.2,0.3-0.3
			c0.3,0,0.6,0.2,0.8,0.3C11.1,11,10.1,12,10,12C10,12,7.8,9.9,7.8,9.9l0,0c-0.8,0.7-1.2,1.6-1.2,2.6c0,1,0.5,2,1.3,2.7
			c0,0,0,0.8,0,1C6.6,15.3,5.8,14,5.8,12.5z"/>
	</g>
	<g>
		<path class="st1" d="M8.2,4.3L8.2,4.3C8.6,4,9,3.8,10,3.7l0-0.1C9,3.7,8.6,3.9,8.2,4.3z"/>
	</g>
	<g>
		<path class="st1" d="M7.8,4.3l0.1,0.5l0.3,0l0-0.5l-0.1,0c0,0,0,0.3,0,0.4c0,0-0.2,0-0.2,0C7.9,4.7,7.9,4.3,7.8,4.3L7.8,4.3z"/>
	</g>
	<g>
		<path class="st1" d="M6.5,5.1L6.5,5.1c0.3-0.5,0.9-0.8,1.3-0.8l0-0.1C7.3,4.2,6.7,4.5,6.5,5.1z"/>
	</g>
	<g>
		<rect x="6.4" y="5.4" transform="matrix(-0.3443 -0.9389 0.9389 -0.3443 3.8425 13.4974)" class="st1" width="0.6" height="0.1"/>
	</g>
	<g>
		<path class="st1" d="M6.6,6C6.7,6.1,6.7,6.1,6.6,6C6.8,6.1,6.9,6.1,7,6L7,6C6.8,6,6.8,6,6.6,6C6.7,6,6.7,6,6.6,6
			c0-0.1,0.1-0.3,0.1-0.3l-0.1,0C6.6,5.8,6.6,5.9,6.6,6z"/>
	</g>
	<g>
		<path class="st1" d="M7.5,6.2C7.5,6.2,7,6,7,6L7,6L7.5,6.2L10,5.9l0-0.1C10,5.8,7.5,6.2,7.5,6.2z"/>
	</g>
	<g>
		<path class="st4" d="M6.7,4.9c0-0.6,0.6-1,1.3-1.2c-0.1,0,0,0-0.1,0C7.3,3.7,6.3,4.3,6.5,5.3C6.5,5.2,6.6,4.9,6.7,4.9L6.7,4.9z"/>
		<path class="st1" d="M7.9,3.7C7.5,3.7,7,3.9,6.7,4.4C6.5,4.6,6.4,4.9,6.5,5.3c0-0.1,0.1-0.3,0.2-0.4l0,0v0
			C6.7,4.3,7.3,3.9,7.9,3.7C7.9,3.7,7.9,3.7,7.9,3.7C7.9,3.7,7.9,3.7,7.9,3.7C8,3.7,8,3.7,7.9,3.7C8,3.7,7.9,3.6,7.9,3.7z M6.7,4.4
			C7,4,7.6,3.7,7.9,3.7c0,0,0,0,0,0c0,0,0,0,0,0c0,0,0,0,0,0c0,0,0,0,0,0C7.3,3.8,6.7,4.3,6.7,4.9c0,0.1-0.2,0.3-0.2,0.4
			C6.4,4.9,6.5,4.7,6.7,4.4z"/>
	</g>
	<g>
		<path class="st4" d="M8.2,4.6c-0.1-1,1.1-1.6,1.8-1.5l0,0V3l0,0C9.2,3,7.9,3.5,8.2,4.6C8.2,4.6,8.2,4.7,8.2,4.6L8.2,4.6z"/>
		<path class="st1" d="M8.4,3.6C8.1,3.9,8.1,4.3,8.1,4.7c0,0,0,0,0,0l0,0l0,0c0-0.4,0.1-0.7,0.4-1C9,3.3,9.6,3.1,10,3.1L10,3
			C9.5,3,8.8,3.2,8.4,3.6z M8.4,3.6C8.8,3.2,9.5,3,10,3.1l0,0c-0.4,0-1,0.2-1.4,0.6C8.3,3.9,8.2,4.2,8.2,4.6c0,0,0,0,0,0.1
			c0,0,0,0,0,0c0,0,0,0,0,0C8.1,4.3,8.1,3.9,8.4,3.6z"/>
	</g>
	<g>
		<path class="st5" d="M6.2,4.9C6.3,4.9,6.4,5,6.4,5c0,0.1-0.1,0.1-0.1,0.1C6.1,5.2,6.1,5.1,6.1,5C6.1,5,6.1,4.9,6.2,4.9L6.2,4.9z"
			/>
		<path class="st1" d="M6,5c0,0.1,0.1,0.2,0.2,0.2c0.1,0,0.2-0.1,0.2-0.2c0-0.1-0.1-0.2-0.2-0.2C6.1,4.9,6,4.9,6,5z M6.1,5
			c0-0.1,0-0.1,0.1-0.1c0.1,0,0.1,0,0.1,0.1c0,0.1,0,0.1-0.1,0.1C6.2,5.2,6.1,5.1,6.1,5z"/>
	</g>
	<g>
		<path class="st5" d="M6.2,4.6c0.1,0,0.1,0.1,0.1,0.1c0,0.1-0.1,0.1-0.1,0.1c-0.1,0-0.1-0.1-0.1-0.1C6.1,4.6,6.1,4.6,6.2,4.6
			L6.2,4.6z"/>
		<path class="st1" d="M6,4.7c0,0.1,0.1,0.2,0.2,0.2c0.1,0,0.2-0.1,0.2-0.2c0-0.1-0.1-0.2-0.2-0.2C6.1,4.5,6,4.6,6,4.7z M6.1,4.7
			c0-0.1,0-0.1,0.1-0.1c0.1,0,0.1,0,0.1,0.1c0,0.1,0,0.1-0.1,0.1C6.2,4.8,6.1,4.8,6.1,4.7z"/>
	</g>
	<g>
		<path class="st5" d="M6.3,4.2c0.1,0,0.1,0.1,0.1,0.1c0,0.1-0.1,0.1-0.1,0.1c-0.1,0-0.1-0.1-0.1-0.1C6.2,4.3,6.2,4.2,6.3,4.2
			L6.3,4.2z"/>
		<path class="st1" d="M6.1,4.4c0,0.1,0.1,0.2,0.2,0.2c0.1,0,0.2-0.1,0.2-0.2c0-0.1-0.1-0.2-0.2-0.2C6.2,4.2,6.1,4.3,6.1,4.4z
			 M6.2,4.4c0-0.1,0-0.1,0.1-0.1c0.1,0,0.1,0,0.1,0.1c0,0.1,0,0.1-0.1,0.1C6.3,4.5,6.2,4.4,6.2,4.4z"/>
	</g>
	<g>
		<path class="st5" d="M6.5,4C6.6,4,6.6,4,6.6,4.1c0,0.1-0.1,0.1-0.1,0.1c-0.1,0-0.1-0.1-0.1-0.1C6.4,4,6.4,4,6.5,4L6.5,4z"/>
		<path class="st1" d="M6.3,4.1c0,0.1,0.1,0.2,0.2,0.2c0.1,0,0.2-0.1,0.2-0.2c0-0.1-0.1-0.2-0.2-0.2C6.4,3.9,6.3,4,6.3,4.1z
			 M6.4,4.1c0-0.1,0-0.1,0.1-0.1c0.1,0,0.1,0,0.1,0.1c0,0.1,0,0.1-0.1,0.1C6.4,4.2,6.4,4.2,6.4,4.1z"/>
	</g>
	<g>
		<path class="st5" d="M6.7,3.7c0.1,0,0.1,0.1,0.1,0.1C6.9,4,6.8,4,6.7,4C6.6,4,6.6,4,6.6,3.9C6.6,3.8,6.6,3.7,6.7,3.7L6.7,3.7z"/>
		<path class="st1" d="M6.5,3.9c0,0.1,0.1,0.2,0.2,0.2c0.1,0,0.2-0.1,0.2-0.2c0,0,0-0.1-0.1-0.1c0,0-0.1-0.1-0.1-0.1
			C6.6,3.7,6.5,3.8,6.5,3.9z M6.6,3.9C6.6,3.8,6.7,3.8,6.6,3.9c0.1-0.1,0.1-0.1,0.2-0.1c0,0,0,0,0,0.1C6.8,3.9,6.8,4,6.6,3.9
			C6.7,4,6.6,3.9,6.6,3.9z"/>
	</g>
	<g>
		<path class="st5" d="M7,3.6c0.1,0,0.1,0.1,0.1,0.1c0,0.1-0.1,0.1-0.1,0.1c-0.1,0-0.1-0.1-0.1-0.1C6.9,3.7,6.9,3.6,7,3.6L7,3.6z"/>
		<path class="st1" d="M6.8,3.7c0,0.1,0.1,0.2,0.2,0.2c0.1,0,0.2-0.1,0.2-0.2c0-0.1-0.1-0.2-0.2-0.2C6.9,3.6,6.8,3.6,6.8,3.7z
			 M6.9,3.7C6.9,3.7,6.9,3.6,6.9,3.7c0.1-0.1,0.2-0.1,0.2,0C7.1,3.8,7,3.8,6.9,3.7C6.9,3.8,6.9,3.8,6.9,3.7z"/>
	</g>
	<g>
		<path class="st5" d="M7.3,3.5c0.1,0,0.1,0.1,0.1,0.1c0,0.1-0.1,0.1-0.1,0.1c-0.1,0-0.1-0.1-0.1-0.1C7.1,3.5,7.2,3.5,7.3,3.5
			L7.3,3.5z"/>
		<path class="st1" d="M7.1,3.6c0,0.1,0.1,0.2,0.2,0.2c0.1,0,0.2-0.1,0.2-0.2c0-0.1-0.1-0.2-0.2-0.2C7.2,3.4,7.1,3.5,7.1,3.6z
			 M7.2,3.6C7.2,3.5,7.2,3.5,7.2,3.6c0.1-0.1,0.2,0,0.2,0C7.4,3.6,7.3,3.7,7.2,3.6C7.2,3.7,7.2,3.6,7.2,3.6z"/>
	</g>
	<g>
		<path class="st5" d="M7.5,3.4c0.1,0,0.1,0.1,0.1,0.1c0,0.1-0.1,0.1-0.1,0.1c-0.1,0-0.1-0.1-0.1-0.1C7.4,3.4,7.5,3.4,7.5,3.4
			L7.5,3.4z"/>
		<path class="st1" d="M7.4,3.5c0,0.1,0.1,0.2,0.2,0.2c0.1,0,0.2-0.1,0.2-0.2c0-0.1-0.1-0.2-0.2-0.2C7.4,3.3,7.4,3.4,7.4,3.5z
			 M7.4,3.5C7.4,3.4,7.5,3.4,7.4,3.5c0.1-0.1,0.2,0,0.2,0C7.6,3.5,7.6,3.6,7.4,3.5C7.5,3.6,7.4,3.5,7.4,3.5z"/>
	</g>
	<g>
		<path class="st5" d="M7.8,3.3c0.1,0,0.1,0.1,0.1,0.1c0,0.1-0.1,0.1-0.1,0.1c-0.1,0-0.1-0.1-0.1-0.1C7.7,3.4,7.7,3.3,7.8,3.3
			L7.8,3.3z"/>
		<path class="st1" d="M7.6,3.4c0,0.1,0.1,0.2,0.2,0.2C7.9,3.6,8,3.5,8,3.4c0-0.1-0.1-0.2-0.2-0.2C7.7,3.3,7.6,3.3,7.6,3.4z
			 M7.7,3.4C7.7,3.4,7.8,3.3,7.7,3.4c0.1-0.1,0.2,0,0.2,0C7.9,3.5,7.9,3.5,7.7,3.4C7.8,3.5,7.7,3.5,7.7,3.4z"/>
	</g>
	<g>
		<path class="st5" d="M7.8,4.3C7.9,4.3,8,4.4,8,4.4c0,0.1-0.1,0.2-0.2,0.2c-0.1,0-0.2-0.1-0.2-0.2C7.6,4.4,7.7,4.3,7.8,4.3L7.8,4.3
			z"/>
		<path class="st1" d="M7.6,4.4c0,0.1,0.1,0.2,0.2,0.2C7.9,4.7,8,4.6,8,4.4c0-0.1-0.1-0.2-0.2-0.2C7.7,4.2,7.6,4.3,7.6,4.4z
			 M7.7,4.4c0-0.1,0.1-0.1,0.1-0.1c0.1,0,0.1,0.1,0.1,0.1c0,0.1-0.1,0.1-0.1,0.1C7.7,4.6,7.7,4.5,7.7,4.4z"/>
	</g>
	<g>
		<path class="st5" d="M7.9,3.9C7.9,3.9,8,4,8,4.1c0,0.1-0.1,0.2-0.2,0.2c-0.1,0-0.2-0.1-0.2-0.2C7.7,4,7.8,3.9,7.9,3.9L7.9,3.9z"/>
		<path class="st1" d="M7.6,4.1c0,0.1,0.1,0.2,0.2,0.2c0.1,0,0.2-0.1,0.2-0.2C8.1,4,8,3.9,7.9,3.9C7.7,3.9,7.6,4,7.6,4.1z M7.7,4.1
			C7.7,4,7.8,4,7.9,4C7.9,4,8,4,8,4.1c0,0.1-0.1,0.1-0.1,0.1C7.8,4.2,7.7,4.2,7.7,4.1z"/>
	</g>
	<g>
		<path class="st5" d="M8,3.6c0.1,0,0.2,0.1,0.2,0.2c0,0.1-0.1,0.2-0.2,0.2c-0.1,0-0.2-0.1-0.2-0.2C7.8,3.7,7.9,3.6,8,3.6L8,3.6z"/>
		<path class="st1" d="M7.8,3.8C7.8,3.9,7.9,4,8,4c0.1,0,0.2-0.1,0.2-0.2c0-0.1-0.1-0.2-0.2-0.2C7.9,3.6,7.8,3.7,7.8,3.8z M7.9,3.8
			c0-0.1,0.1-0.1,0.1-0.1c0.1,0,0.1,0.1,0.1,0.1C8.1,3.8,8,3.9,8,3.9C7.9,3.9,7.9,3.8,7.9,3.8z"/>
	</g>
	<g>
		<path class="st5" d="M8.1,3.3c0.1,0,0.1,0.1,0.1,0.1c0,0.1-0.1,0.1-0.1,0.1C8.1,3.6,8,3.6,8,3.5C8,3.4,8.1,3.3,8.1,3.3L8.1,3.3z"
			/>
		<path class="st1" d="M8,3.5C8,3.6,8,3.7,8.1,3.7s0.2-0.1,0.2-0.2c0-0.1-0.1-0.2-0.2-0.2S8,3.4,8,3.5z M8,3.5c0-0.1,0-0.1,0.1-0.1
			c0.1,0,0.1,0,0.1,0.1c0,0.1,0,0.1-0.1,0.1C8.1,3.6,8,3.6,8,3.5z"/>
	</g>
	<g>
		<path class="st5" d="M8.4,3.1c0.1,0,0.1,0.1,0.1,0.1c0,0.1-0.1,0.1-0.1,0.1c-0.1,0-0.1-0.1-0.1-0.1C8.2,3.2,8.3,3.1,8.4,3.1
			L8.4,3.1z"/>
		<path class="st1" d="M8.3,3.2c0,0-0.1,0.1-0.1,0.1c0,0.1,0.1,0.2,0.2,0.2c0.1,0,0.2-0.1,0.2-0.2c0-0.1-0.1-0.2-0.2-0.2
			C8.3,3.1,8.3,3.1,8.3,3.2z M8.3,3.3C8.3,3.3,8.3,3.2,8.3,3.3c0.1-0.1,0.1-0.1,0.1-0.1c0.1,0,0.1,0,0.1,0.1c0,0.1,0,0.1-0.1,0.1
			C8.3,3.4,8.3,3.3,8.3,3.3z"/>
	</g>
	<g>
		<path class="st5" d="M8.7,3C8.8,3,8.8,3,8.8,3.1c0,0.1-0.1,0.1-0.1,0.1c-0.1,0-0.1-0.1-0.1-0.1C8.5,3,8.6,3,8.7,3L8.7,3z"/>
		<path class="st1" d="M8.5,3.1c0,0.1,0.1,0.2,0.2,0.2c0.1,0,0.2-0.1,0.2-0.2c0-0.1-0.1-0.2-0.2-0.2C8.6,2.9,8.5,3,8.5,3.1z
			 M8.6,3.1c0-0.1,0-0.1,0.1-0.1c0.1,0,0.1,0,0.1,0.1c0,0.1,0,0.1-0.1,0.1C8.6,3.2,8.6,3.2,8.6,3.1z"/>
	</g>
	<g>
		<path class="st5" d="M9,2.9c0.1,0,0.1,0.1,0.1,0.1c0,0.1-0.1,0.1-0.1,0.1C8.9,3.2,8.9,3.1,8.9,3C8.9,2.9,8.9,2.9,9,2.9L9,2.9z"/>
		<path class="st1" d="M8.8,3c0,0.1,0.1,0.2,0.2,0.2c0.1,0,0.2-0.1,0.2-0.2c0-0.1-0.1-0.2-0.2-0.2C8.9,2.8,8.8,2.9,8.8,3z M8.9,3
			c0-0.1,0-0.1,0.1-0.1c0.1,0,0.1,0,0.1,0.1c0,0.1,0,0.1-0.1,0.1C8.9,3.1,8.9,3.1,8.9,3z"/>
	</g>
	<g>
		<path class="st5" d="M9.3,2.8c0.1,0,0.1,0.1,0.1,0.1c0,0.1-0.1,0.1-0.1,0.1C9.2,3.1,9.2,3,9.2,2.9C9.2,2.8,9.2,2.8,9.3,2.8
			L9.3,2.8z"/>
		<path class="st1" d="M9.1,2.9c0,0.1,0.1,0.2,0.2,0.2c0.1,0,0.2-0.1,0.2-0.2c0-0.1-0.1-0.2-0.2-0.2C9.2,2.7,9.1,2.8,9.1,2.9z
			 M9.2,2.9c0-0.1,0-0.1,0.1-0.1s0.1,0,0.1,0.1C9.4,3,9.4,3,9.3,3S9.2,3,9.2,2.9z"/>
	</g>
	<g>
		<path class="st2" d="M10,2.8c0.5,0.7,0.4,1.5,0,1.7C9.7,4.4,9.6,3.5,10,2.8L10,2.8z"/>
		<path class="st1" d="M9.7,4.3C9.8,4.4,9.9,4.5,10,4.6l0,0l0,0c0.1-0.1,0.2-0.2,0.3-0.4c0.1-0.4,0-0.9-0.3-1.4H10
			C9.7,3.3,9.6,3.9,9.7,4.3z M9.8,4.2c0-0.1-0.1-0.2-0.1-0.4c0-0.3,0.1-0.6,0.3-1c0.2,0.3,0.3,0.6,0.3,0.9c0,0.1,0,0.2,0,0.3
			c0,0.2-0.1,0.3-0.2,0.3C9.9,4.4,9.9,4.4,9.8,4.2z"/>
	</g>
	<g>
		<path class="st5" d="M9.6,2.7c0.1,0,0.1,0.1,0.1,0.1C9.8,2.9,9.7,3,9.6,3C9.5,3,9.5,2.9,9.5,2.8C9.5,2.8,9.5,2.7,9.6,2.7L9.6,2.7z
			"/>
		<path class="st1" d="M9.4,2.8C9.4,2.9,9.5,3,9.6,3c0.1,0,0.2-0.1,0.2-0.2c0-0.1-0.1-0.2-0.2-0.2C9.5,2.7,9.4,2.7,9.4,2.8z
			 M9.5,2.8c0-0.1,0-0.1,0.1-0.1c0.1,0,0.1,0,0.1,0.1c0,0.1,0,0.1-0.1,0.1C9.6,2.9,9.5,2.9,9.5,2.8z"/>
	</g>
	<g>
		<path class="st5" d="M10,3.9c0.1,0,0.2,0.1,0.2,0.2c0,0.1-0.1,0.2-0.2,0.2c-0.1,0-0.2-0.1-0.2-0.2C9.9,4,9.9,3.9,10,3.9L10,3.9z"
			/>
		<path class="st1" d="M9.9,3.9c0,0-0.1,0.1-0.1,0.1c0,0.1,0.1,0.2,0.2,0.2c0.1,0,0.2-0.1,0.2-0.2c0-0.1,0-0.1-0.1-0.1
			c0,0-0.1-0.1-0.1-0.1S9.9,3.9,9.9,3.9z M9.9,4.1C9.9,4,9.9,4,9.9,4.1C10,4,10,4,10,4c0,0,0.1,0,0.1,0c0,0,0,0,0,0.1
			c0,0.1-0.1,0.1-0.1,0.1C10,4.2,9.9,4.1,9.9,4.1z"/>
	</g>
	<g>
		<path class="st5" d="M10,3.6c0.1,0,0.1,0.1,0.1,0.1c0,0.1-0.1,0.1-0.1,0.1c-0.1,0-0.1-0.1-0.1-0.1C9.9,3.7,9.9,3.6,10,3.6L10,3.6z
			"/>
		<path class="st1" d="M9.9,3.6c0,0-0.1,0.1-0.1,0.1c0,0.1,0.1,0.2,0.2,0.2c0.1,0,0.2-0.1,0.2-0.2c0,0,0-0.1-0.1-0.1
			c0,0-0.1-0.1-0.1-0.1C10,3.6,9.9,3.6,9.9,3.6z M9.9,3.8C9.9,3.7,9.9,3.7,9.9,3.8C10,3.7,10,3.7,10,3.7c0,0,0.1,0,0.1,0
			c0,0,0,0,0,0.1c0,0.1,0,0.1-0.1,0.1C10,3.9,9.9,3.8,9.9,3.8z"/>
	</g>
	<g>
		<path class="st5" d="M10,3.3c0.1,0,0.1,0.1,0.1,0.1c0,0.1-0.1,0.1-0.1,0.1c-0.1,0-0.1-0.1-0.1-0.1C9.9,3.4,10,3.3,10,3.3L10,3.3z"
			/>
		<path class="st1" d="M9.9,3.5c0,0.1,0.1,0.2,0.2,0.2c0.1,0,0.2-0.1,0.2-0.2c0-0.1-0.1-0.2-0.2-0.2C9.9,3.3,9.9,3.4,9.9,3.5z
			 M9.9,3.5C9.9,3.4,10,3.4,9.9,3.5c0.1-0.1,0.2,0,0.2,0C10.1,3.5,10.1,3.6,9.9,3.5C10,3.6,9.9,3.5,9.9,3.5z"/>
	</g>
	<g>
		<path class="st5" d="M10,3.1c0.1,0,0.1,0,0.1,0.1c0,0.1,0,0.1-0.1,0.1c-0.1,0-0.1,0-0.1-0.1C9.9,3.1,10,3.1,10,3.1L10,3.1z"/>
		<path class="st1" d="M9.9,3.2c0,0.1,0.1,0.1,0.1,0.1c0.1,0,0.1-0.1,0.1-0.1c0-0.1-0.1-0.1-0.1-0.1C10,3.1,9.9,3.1,9.9,3.2z
			 M10,3.2C10,3.2,10,3.1,10,3.2c0.1-0.1,0.1,0,0.1,0C10.1,3.2,10.1,3.3,10,3.2C10,3.3,10,3.2,10,3.2z"/>
	</g>
	<g>
		<path class="st2" d="M12.3,7.3c0-0.1,0-0.2,0-0.3c-0.7-0.3-1.5-0.5-2.3-0.5c0.8,0,1.6,0.2,2.3,0.5c0-0.3,0.1-0.4,0.3-0.5
			c0,0,0,0,0,0C11.8,6.2,10.9,6,10,6c0.9,0,1.8,0.2,2.6,0.5c0.1,0,0.1-0.1,0.1-0.2C11.9,6,11,5.8,10,5.8c-1,0-1.9,0.2-2.7,0.6
			c0,0.1,0.1,0.2,0.1,0.2C8.3,6.2,9.1,6,10,6C9.1,6,8.3,6.2,7.5,6.5c0,0,0,0,0,0c0.1,0.1,0.2,0.3,0.3,0.5C8.4,6.8,9.2,6.6,10,6.6
			c-0.8,0-1.6,0.2-2.3,0.5c0,0.1,0,0.2,0,0.3C8.4,7,9.2,6.9,10,6.9C10.8,6.9,11.6,7,12.3,7.3L12.3,7.3z"/>
		<path class="st1" d="M7.3,6.3L7.3,6.3L7.3,6.3C7.3,6.3,7.3,6.3,7.3,6.3c0,0.1,0,0.2,0,0.2c0,0,0.1,0,0.1,0
			c0.1,0.1,0.2,0.2,0.2,0.5v0c0,0,0,0,0,0.1c0,0.1,0,0.1,0,0.2l0.1,0C8.5,7.1,9.2,6.9,10,6.9c0.8,0,1.6,0.2,2.3,0.5l0.1,0
			c0-0.1,0-0.2,0-0.2c0,0,0,0,0-0.1c0-0.3,0.1-0.4,0.2-0.5c0,0,0.1,0,0.1-0.1c0,0,0.1-0.1,0.1-0.2c0,0,0,0,0,0l0,0l0,0
			C11.9,5.9,11,5.7,10,5.7C9.1,5.7,8.2,5.9,7.3,6.3z M10,5.8c0.9,0,1.8,0.2,2.6,0.5c0,0,0,0.1,0,0.1c0,0,0,0,0,0
			C11.8,6.1,10.9,6,10,6C9.1,6,8.3,6.1,7.5,6.5c0,0,0,0,0,0c0,0,0-0.1,0-0.1C8.2,6,9.1,5.8,10,5.8z M10,6c0.9,0,1.7,0.2,2.5,0.5
			c-0.1,0.1-0.2,0.2-0.2,0.5c-0.7-0.3-1.5-0.4-2.3-0.4v0.1c0.8,0,1.5,0.2,2.2,0.5c0,0,0,0,0,0c0,0.1,0,0.1,0,0.2
			C11.6,7,10.8,6.8,10,6.8C9.2,6.8,8.5,7,7.8,7.3c0-0.1,0-0.1,0-0.2c0,0,0,0,0,0C8.5,6.8,9.3,6.6,10,6.6V6.6C9.2,6.6,8.5,6.7,7.8,7
			c0-0.2-0.1-0.4-0.2-0.5C8.3,6.2,9.2,6,10,6z"/>
	</g>
	<g>
		<path class="st2" d="M10,5.1c0-0.1,0.1-0.2,0.2-0.2c-0.1,0-0.2-0.1-0.2-0.2c0,0.1-0.1,0.2-0.2,0.2C9.9,4.9,10,4.9,10,5.1L10,5.1z
			 M10.3,4.4H9.8l0,0c0,0,0.1,0.1,0.1,0.1c0.1,0.1,0.1,0.1,0,0.1c0,0-0.1,0-0.2-0.1l0,0v0.5l0,0c0.1,0,0.1-0.1,0.2-0.1
			c0,0,0,0,0,0.1C9.9,5.4,9.7,5.5,9.6,5.5c-0.2,0-0.3-0.1-0.4-0.3l0,0l-0.1,0l0,0.1l0,0c0,0.2-0.2,0.3-0.3,0.3
			c-0.1,0-0.2-0.1-0.3-0.2c0-0.1,0-0.1,0-0.1c0,0,0.1,0,0.2,0l0,0L8.4,4.8l0,0c0,0-0.1,0.1-0.1,0.1c0,0,0,0,0-0.1
			c0-0.1,0-0.1,0.1-0.2l0,0L7.8,4.8l0,0c0,0,0.1,0.1,0.1,0.1C8.1,4.9,8.1,5,8.1,5c0,0-0.1,0-0.2,0l0,0l0.2,0.5l0,0
			c0,0,0.1-0.1,0.2-0.1c0,0,0,0,0.1,0.1c0,0.2-0.1,0.3-0.3,0.4c-0.1,0-0.3,0-0.4-0.1l0,0l-0.1,0l0,0.1l0,0c0.1,0.2-0.1,0.4-0.2,0.4
			C7.2,6.1,7.1,6,7.1,5.9c0-0.1,0-0.1,0.1-0.1C7.1,5.7,6.9,5.4,6.8,5.3c0,0-0.1,0.2-0.1,0.2c0-0.2-0.2-0.3-0.3-0.4
			c-0.2,0-0.3,0.2-0.2,0.4c0.1,0.1,0.3,0,0.3-0.1c0.1,0.2,0.1,0.3,0.2,0.4c0,0,0.1,0,0.2,0c-0.1,0-0.1,0-0.1,0.1
			c0,0.2,0.2,0.4,0.4,0.4c0.2,0,0.3-0.1,0.4-0.3C8,6.1,8.3,6,8.4,5.7C8.8,6,9.1,5.8,9.2,5.6C9.6,5.9,9.9,5.7,10,5.5L10.3,4.4z
			 M10.3,4.4c0-0.1,0-0.1,0-0.1l0,0H9.8l0,0c-0.1,0,0,0.1,0,0.1l0,0H10.3L10.3,4.4z M9.7,4.6c-0.1,0-0.1,0-0.1,0l0,0v0.5l0,0
			c0,0.1,0.1,0.1,0.1,0l0,0V4.6L9.7,4.6z M8.3,5.3c-0.1-0.1,0-0.2,0.1-0.3c-0.1,0-0.2,0-0.2-0.2c0,0.1,0,0.2-0.1,0.3
			C8.2,5.2,8.3,5.2,8.3,5.3L8.3,5.3z M8.4,4.8c0.1-0.1,0.1-0.1,0.1,0l0,0l0.2,0.5l0,0c0,0.1,0,0.1-0.1,0.1l0,0L8.4,4.8L8.4,4.8z
			 M8.3,4.6c0-0.1,0-0.1-0.1-0.1l0,0L7.8,4.7l0,0c-0.1,0,0,0.1,0,0.1l0,0L8.3,4.6L8.3,4.6z M7.9,5C7.8,5,7.7,5,7.8,5.1l0,0l0.2,0.5
			l0,0c0,0.1,0.1,0,0.1,0l0,0L7.9,5L7.9,5z M6.8,5.3C6.8,5.3,6.9,5.3,6.8,5.3L6.8,5.3l0.4,0.4l0,0c0.1,0.1,0,0.1,0,0.1
			c0,0-0.1-0.1-0.1-0.1C7,5.6,6.9,5.5,6.8,5.3L6.8,5.3z"/>
		<path class="st1" d="M10,4.6L10,4.6c0,0.1-0.1,0.2-0.1,0.2l0,0.1l0,0C9.9,4.9,10,5,10,5.1c0,0,0,0,0,0h0.1c0,0,0,0,0,0
			c0-0.1,0.1-0.1,0.1-0.2l0,0l0-0.1C10.1,4.8,10.1,4.7,10,4.6C10.1,4.6,10.1,4.6,10,4.6L10,4.6C10,4.6,10,4.6,10,4.6z M10,4.8
			C10,4.8,10.1,4.8,10,4.8c0,0.1,0,0.1,0,0.2C10,4.9,10,4.9,10,4.8C10,4.8,10,4.8,10,4.8z"/>
		<path class="st1" d="M9.8,4.4L9.8,4.4c0,0.1,0,0.1,0.1,0.2c0,0,0,0,0,0c0,0-0.1,0-0.1,0l0,0l-0.1,0v0.5l0.1,0l0,0
			c0,0,0.1-0.1,0.2,0c0,0,0,0,0,0c0,0,0,0,0,0.1c0,0.2-0.2,0.2-0.3,0.2c-0.1,0-0.3-0.1-0.3-0.2l0,0L9.1,5.1L9.1,5.2l0,0
			c0,0.1,0,0.1,0,0.2C9,5.5,8.9,5.5,8.8,5.6c-0.1,0-0.2-0.1-0.3-0.2c0,0,0,0,0,0c0,0,0.1,0,0.2,0l0,0l0-0.1L8.5,4.8l-0.1,0l0,0
			c0,0,0,0-0.1,0.1c0,0,0,0,0,0c0-0.1,0.1-0.1,0.1-0.2l-0.1,0L7.8,4.8l0,0.1c0,0,0.1,0.1,0.2,0.1c0,0,0,0,0,0C8,5,8,5,7.9,5L7.9,5
			l0,0.1L8,5.5l0.1,0c0,0,0.1-0.1,0.1-0.1c0,0,0,0,0,0c0,0,0,0,0,0c0,0,0,0,0,0c0,0,0,0,0,0c0,0.2-0.1,0.3-0.2,0.3
			c-0.1,0-0.3,0-0.3-0.1l0,0l-0.1,0l0,0.1l0,0c0,0.1,0,0.1,0,0.2C7.5,6,7.4,6,7.3,6C7.2,6,7.2,6,7.1,6c0,0,0,0,0,0c0,0,0,0,0,0
			c0,0,0,0,0,0c0,0,0,0,0,0l0,0l0-0.1C7.1,5.7,6.9,5.4,6.9,5.3l-0.1,0c0,0,0,0.1,0,0.1C6.7,5.3,6.6,5.2,6.4,5.2
			c-0.1,0-0.2,0-0.2,0.1c0,0.1,0,0.2,0,0.3c0.1,0.1,0.2,0.1,0.2,0c0,0,0.1,0,0.1-0.1c0,0.1,0.1,0.1,0.1,0.2c0,0,0,0.1,0.1,0.1
			c0,0,0.1,0,0.1,0c0,0,0,0,0,0c0,0,0,0,0,0c0,0.1,0,0.1,0.1,0.2C7,6.2,7.1,6.3,7.3,6.3c0.2,0,0.4-0.1,0.4-0.3C8,6.2,8.3,6,8.5,5.8
			c0.2,0.1,0.3,0.1,0.4,0.1c0.1,0,0.2-0.1,0.3-0.2c0.2,0.1,0.3,0.2,0.5,0.1c0.2,0,0.3-0.2,0.4-0.3l0,0l0.3-1l0,0H9.8z M10.3,4.5
			c0,0.1-0.3,1-0.3,1c0,0.1-0.1,0.2-0.3,0.2c-0.1,0-0.3,0-0.4-0.1l-0.1,0C9.1,5.7,9,5.8,8.9,5.8c-0.1,0-0.3,0-0.4-0.1l-0.1,0
			C8.3,6,8,6.1,7.7,6L7.7,6C7.6,6.1,7.4,6.2,7.3,6.2C7.2,6.2,7,6.2,6.9,6.1C6.9,6,6.9,6,6.9,5.9c0,0,0,0,0,0c0,0,0,0,0.1-0.1l0,0
			c0,0,0,0,0,0l0-0.1c0,0,0,0,0,0l0,0c-0.1,0.1-0.1,0.1-0.2,0c0,0,0,0,0-0.1c0-0.1,0-0.2-0.1-0.3l-0.1,0c0,0,0,0.1,0,0.1
			c0,0-0.1,0-0.1,0c0-0.1-0.1-0.1,0-0.2c0-0.1,0.1-0.1,0.2-0.1c0.1,0,0.3,0.2,0.3,0.3l0.1,0l0,0c0-0.1,0-0.1,0-0.1
			C6.9,5.5,7,5.7,7.1,5.8c0,0-0.1,0-0.1,0.1c0,0,0,0,0,0c0,0,0,0.1,0,0.1c0,0.1,0.1,0.1,0.2,0.1c0.1,0,0.2-0.1,0.3-0.2
			c0,0,0-0.1,0-0.1c0,0,0-0.1,0-0.1c0,0,0,0,0,0c0,0,0,0,0,0C7.7,5.8,7.9,5.9,8,5.9c0.1,0,0.3-0.2,0.3-0.4c0-0.1,0-0.1,0-0.1l-0.1,0
			c0,0-0.1,0-0.1,0.1C8,5.3,8,5.1,7.9,5C8,5,8,5.1,8.1,5c0,0,0,0,0-0.1c0,0,0,0,0,0c0,0,0-0.1-0.1-0.1c0,0-0.1,0-0.1,0
			c0.1,0,0.3-0.1,0.4-0.1c0,0,0,0.1,0,0.1c0,0,0,0.1,0,0.1c0,0,0,0,0,0c0,0,0,0,0.1,0c0,0,0.1,0,0.1-0.1c0,0.1,0.1,0.3,0.1,0.4
			c-0.1,0-0.1,0-0.2,0c0,0,0,0.1,0,0.1c0,0,0,0.1,0,0.1c0.1,0.1,0.2,0.2,0.4,0.2c0.1,0,0.2-0.1,0.3-0.2c0-0.1,0.1-0.1,0.1-0.2
			c0,0,0,0,0,0c0,0,0,0,0,0c0,0,0,0,0,0c0,0.1,0.2,0.3,0.4,0.3c0.2,0,0.3-0.1,0.4-0.3c0-0.1,0-0.1,0-0.1l-0.1,0c0,0-0.1,0-0.2,0
			c0-0.1,0-0.3,0-0.4c0.1,0,0.1,0,0.1,0c0,0,0,0,0,0c0,0,0,0,0,0c0,0,0-0.1-0.1-0.1c0,0,0-0.1-0.1-0.1C9.9,4.5,10.2,4.5,10.3,4.5z"
			/>
		<path class="st1" d="M9.7,4.3c0,0,0,0.1,0,0.1l0,0h0.6l0,0c0-0.1,0-0.1,0-0.1c0,0,0,0-0.1,0L9.7,4.3C9.7,4.3,9.7,4.3,9.7,4.3z
			 M9.8,4.3l0.5,0l0,0l0,0v0c0,0,0,0,0,0C10.2,4.4,9.8,4.4,9.8,4.3C9.8,4.4,9.8,4.4,9.8,4.3C9.8,4.3,9.8,4.3,9.8,4.3
			C9.8,4.3,9.8,4.3,9.8,4.3z"/>
		<path class="st1" d="M9.6,4.6C9.6,4.6,9.5,4.6,9.6,4.6l0,0.6c0,0,0,0.1,0,0.1c0,0,0.1,0,0.2,0l0,0V4.6l0,0
			C9.7,4.6,9.6,4.5,9.6,4.6z M9.6,4.6C9.6,4.6,9.6,4.6,9.6,4.6c0.1,0.1,0.1,0.5,0.1,0.5c0,0-0.1,0-0.1,0c0,0,0,0,0,0c0,0,0,0,0,0
			L9.6,4.6C9.6,4.6,9.6,4.6,9.6,4.6z"/>
		<path class="st1" d="M8.1,4.9C8.1,4.9,8.1,4.9,8.1,4.9L8.1,4.9C8.1,4.9,8.1,5,8.1,4.9c0,0.1,0,0.2-0.1,0.2l0,0.1l0,0
			c0.1,0,0.1,0,0.2,0.1l0,0c0,0,0,0,0,0l0.1,0c0,0,0,0,0,0l0,0c0,0,0-0.1,0-0.1c0-0.1,0-0.1,0.1-0.1l0,0l0-0.1C8.3,5,8.2,5,8.1,4.9
			L8.1,4.9C8.2,4.9,8.2,4.9,8.1,4.9L8.1,4.9z M8.2,5c0,0,0.1,0,0.1,0.1c0,0,0,0.1,0,0.1c0,0-0.1,0-0.1,0C8.2,5.1,8.2,5.1,8.2,5z"/>
		<path class="st1" d="M8.4,4.8L8.4,4.8l0.2,0.6l0,0c0.1,0,0.1,0,0.2,0c0,0,0,0,0-0.1L8.6,4.8c0,0,0-0.1-0.1-0.1
			C8.5,4.7,8.5,4.7,8.4,4.8z M8.5,4.8C8.5,4.8,8.5,4.8,8.5,4.8C8.5,4.8,8.5,4.8,8.5,4.8l0.2,0.5l0,0c0,0,0,0-0.1,0
			C8.6,5.2,8.5,4.8,8.5,4.8C8.5,4.8,8.5,4.8,8.5,4.8z"/>
		<path class="st1" d="M8.3,4.5L7.8,4.7c0,0,0,0-0.1,0.1c0,0,0,0.1,0.1,0.1l0,0l0.5-0.2l0,0C8.4,4.6,8.4,4.5,8.3,4.5
			C8.3,4.5,8.3,4.5,8.3,4.5z M8.3,4.6C8.3,4.6,8.3,4.6,8.3,4.6C8.3,4.6,8.3,4.6,8.3,4.6c0,0.1-0.4,0.2-0.4,0.2c0,0,0,0,0,0
			c0,0,0,0,0,0L8.3,4.6C8.3,4.6,8.3,4.6,8.3,4.6z"/>
		<path class="st1" d="M7.7,5C7.7,5,7.7,5,7.7,5l0.2,0.5c0,0,0,0.1,0.1,0.1c0,0,0.1,0,0.1-0.1l0,0L7.9,5l0,0C7.8,5,7.8,5,7.7,5z
			 M7.8,5.1L7.8,5.1C7.8,5,7.8,5,7.8,5.1C7.9,5.1,8,5.4,8,5.5c0,0,0,0,0,0c0,0,0,0,0,0L7.8,5.1L7.8,5.1z"/>
		<path class="st1" d="M6.8,5.3L6.8,5.3L6.8,5.3L7,5.7l0.1,0.2l0,0l0,0c0,0,0.1,0,0.1-0.1c0,0,0-0.1,0-0.1L6.9,5.3
			C6.9,5.3,6.9,5.3,6.8,5.3C6.9,5.3,6.8,5.3,6.8,5.3z M6.9,5.3c0,0,0.3,0.4,0.3,0.4c0,0,0,0,0,0c0,0,0,0,0,0c0,0,0,0,0,0
			c0,0-0.1-0.1-0.1-0.1S6.9,5.4,6.9,5.3C6.9,5.3,6.9,5.3,6.9,5.3z"/>
	</g>
	<g>
		<path class="st1" d="M10,4.6L10,4.6c0,0.1-0.1,0.2-0.1,0.2l0,0.1l0,0C9.9,4.9,10,5,10,5.1c0,0,0,0,0,0c0,0,0,0,0,0c0,0,0,0,0,0
			c0,0,0,0,0,0c0-0.1,0.1-0.1,0.1-0.2l0,0l0-0.1C10.1,4.8,10.1,4.7,10,4.6C10.1,4.6,10.1,4.6,10,4.6L10,4.6C10,4.6,10,4.6,10,4.6z
			 M10,4.8C10,4.8,10.1,4.8,10,4.8c0,0.1,0,0.1,0,0.2C10,4.9,10,4.9,10,4.8C10,4.8,10,4.8,10,4.8z"/>
	</g>
	<g>
		<rect x="9.8" y="4.4" class="st1" width="0.6" height="0.1"/>
	</g>
	<g>
		<path class="st1" d="M9.7,4.4c0,0,0.1,0.1,0.1,0.2c0,0,0,0,0,0c0,0-0.1,0-0.1,0l0,0l0,0.1l0,0c0.1,0,0.1,0.1,0.2,0c0,0,0,0,0,0
			c0,0,0-0.1-0.1-0.1C9.9,4.5,9.8,4.4,9.7,4.4L9.7,4.4z"/>
	</g>
	<g>
		<rect x="9.7" y="4.6" class="st1" width="0.1" height="0.5"/>
	</g>
	<g>
		<path class="st1" d="M9.7,5.1L9.7,5.1L9.7,5.1L9.7,5.1c0.1,0,0.2,0,0.2,0c0,0,0,0,0,0c0,0,0,0,0,0.1c0,0.2-0.2,0.2-0.3,0.2
			c-0.1,0-0.3-0.1-0.3-0.2l-0.1,0c0,0.2,0.2,0.3,0.4,0.3c0.2,0,0.3-0.1,0.4-0.3c0-0.1,0-0.1,0-0.1l-0.1,0C9.9,5.1,9.8,5.1,9.7,5.1z"
			/>
	</g>
	<g>
		<path class="st1" d="M9.1,5.2L9.1,5.2l0,0.1C9.1,5.3,9.1,5.3,9.1,5.2c0.1,0.1,0.1,0.1,0.1,0.1l0-0.1L9.1,5.2L9.1,5.2z"/>
	</g>
	<g>
		<path class="st1" d="M9.1,5.2c0,0.1,0,0.1,0,0.2C9,5.5,8.9,5.5,8.8,5.6c-0.1,0-0.2-0.1-0.3-0.2c0,0,0,0,0,0c0,0,0.1,0,0.2,0l0,0
			l0-0.1l0,0c-0.1,0-0.2,0-0.2,0c0,0,0,0.1,0,0.1c0,0,0,0.1,0,0.1c0.1,0.1,0.2,0.2,0.4,0.2c0.1,0,0.2-0.1,0.3-0.2
			C9.1,5.4,9.2,5.3,9.1,5.2L9.1,5.2z"/>
	</g>
	<g>
		<rect x="8.3" y="5" transform="matrix(-0.3423 -0.9396 0.9396 -0.3423 6.7233 14.7805)" class="st1" width="0.5" height="0.1"/>
	</g>
	<g>
		<path class="st1" d="M8.3,4.8c0,0.1,0,0.1,0,0.1c0,0,0,0,0.1,0c0,0,0.1,0,0.1-0.1l0,0L8.4,4.8l0,0C8.4,4.8,8.3,4.8,8.3,4.8
			C8.3,4.8,8.3,4.8,8.3,4.8c0.1-0.1,0.1-0.1,0.1-0.1l-0.1,0C8.3,4.7,8.3,4.7,8.3,4.8z"/>
	</g>
	<g>
		<rect x="8.1" y="4.5" transform="matrix(-0.3452 -0.9385 0.9385 -0.3452 6.4644 13.9485)" class="st1" width="0.1" height="0.5"/>
	</g>
	<g>
		<path class="st1" d="M7.8,4.8c0,0,0.1,0.1,0.2,0.1c0,0,0,0,0,0C8,5,8,5,7.9,5L7.9,5l0,0.1l0,0C8,5,8,5.1,8.1,5c0,0,0,0,0-0.1
			c0,0,0-0.1-0.1-0.1C7.9,4.8,7.9,4.8,7.8,4.8L7.8,4.8z"/>
	</g>
	<g>
		<rect x="7.7" y="5.2" transform="matrix(-0.3421 -0.9397 0.9397 -0.3421 5.7672 14.5239)" class="st1" width="0.5" height="0.1"/>
	</g>
	<g>
		<path class="st1" d="M8,5.5L8,5.5c0.1,0,0.1,0,0.2,0c0,0,0,0,0,0c0,0,0,0,0,0c0,0,0,0,0,0c0,0,0,0,0,0c0,0.2-0.1,0.3-0.2,0.3
			c-0.1,0-0.3,0-0.3-0.1l-0.1,0C7.7,5.8,7.9,5.9,8,5.9c0.1,0,0.3-0.2,0.3-0.4c0-0.1,0-0.1,0-0.1l-0.1,0C8.1,5.3,8.1,5.4,8,5.5z"/>
	</g>
	<g>
		<path class="st1" d="M7.5,5.6L7.5,5.6L7.5,5.6C7.6,5.7,7.6,5.7,7.5,5.6C7.6,5.7,7.6,5.7,7.5,5.6l0.1,0L7.5,5.6L7.5,5.6z"/>
	</g>
	<g>
		<path class="st1" d="M6.2,5.3c0,0.1,0,0.2,0,0.3c0.1,0.1,0.2,0.1,0.2,0c0,0,0.1,0,0.1-0.1c0,0.1,0.1,0.1,0.1,0.2
			c0,0,0,0.1,0.1,0.1c0,0,0.1,0,0.1,0c0,0,0,0,0,0c0,0,0,0,0,0c0,0.1,0,0.1,0.1,0.2C7,6.2,7.1,6.3,7.3,6.3c0.2,0,0.4-0.1,0.4-0.3
			C8,6.2,8.3,6,8.5,5.8c0.2,0.1,0.3,0.1,0.4,0.1c0.1,0,0.2-0.1,0.3-0.2c0.2,0.1,0.3,0.2,0.5,0.1c0.2,0,0.3-0.2,0.4-0.3l-0.1,0
			c0,0.1-0.1,0.2-0.3,0.2c-0.1,0-0.3,0-0.4-0.1l-0.1,0C9.1,5.7,9,5.8,8.9,5.8c-0.1,0-0.3,0-0.4-0.1l-0.1,0C8.3,6,8,6.1,7.7,6L7.7,6
			C7.6,6.1,7.4,6.2,7.3,6.2C7.2,6.2,7,6.2,6.9,6.1C6.9,6,6.9,6,6.9,5.9c0,0,0,0,0,0c0,0,0,0,0.1-0.1l0,0c0,0,0,0,0,0l0-0.1
			c0,0,0,0,0,0l0,0c-0.1,0.1-0.1,0.1-0.2,0c0,0,0,0,0-0.1c0-0.1,0-0.2-0.1-0.3l-0.1,0c0,0,0,0.1,0,0.1c0,0-0.1,0-0.1,0
			C6.3,5.5,6.2,5.4,6.2,5.3c0.1,0,0.2-0.1,0.2-0.1c0.1,0,0.3,0.2,0.3,0.3l0.1,0l0,0c0-0.1,0-0.1,0-0.1C6.9,5.5,7,5.7,7.1,5.8
			c0,0-0.1,0-0.1,0.1c0,0,0,0,0,0c0,0,0,0.1,0,0.1c0,0.1,0.1,0.1,0.2,0.1c0.1,0,0.2-0.1,0.3-0.2c0-0.1,0.1-0.2,0-0.3l-0.1,0
			c0,0.1,0,0.1,0,0.2C7.5,6,7.4,6,7.3,6C7.2,6,7.2,6,7.1,6c0,0,0,0,0,0c0,0,0,0,0,0c0,0,0,0,0,0c0,0,0,0,0,0l0,0l0-0.1
			C7.1,5.7,6.9,5.4,6.9,5.3l-0.1,0c0,0,0,0.1,0,0.1C6.7,5.3,6.6,5.2,6.4,5.2C6.3,5.2,6.3,5.2,6.2,5.3z"/>
	</g>
	<g>
		<path class="st1" d="M10.3,4.3L10.3,4.3C10.3,4.3,10.3,4.4,10.3,4.3l0.1,0.1C10.4,4.4,10.4,4.3,10.3,4.3
			C10.3,4.3,10.3,4.3,10.3,4.3L10.3,4.3z"/>
	</g>
	<g>
		<rect x="9.8" y="4.3" class="st1" width="0.5" height="0.1"/>
	</g>
	<g>
		<path class="st1" d="M9.7,4.3c0,0,0,0.1,0,0.1l0.1,0C9.8,4.4,9.8,4.4,9.7,4.3C9.8,4.3,9.8,4.3,9.7,4.3C9.8,4.3,9.8,4.3,9.7,4.3
			L9.7,4.3C9.7,4.3,9.7,4.3,9.7,4.3z"/>
	</g>
	<g>
		<rect x="9.8" y="4.4" class="st1" width="0.5" height="0.1"/>
	</g>
	<g>
		<path class="st1" d="M9.6,4.6C9.6,4.6,9.5,4.6,9.6,4.6L9.6,4.6L9.6,4.6c0,0.1,0.1,0.1,0.1,0.1l0-0.1C9.7,4.6,9.6,4.5,9.6,4.6z"/>
	</g>
	<g>
		<rect x="9.5" y="4.6" class="st1" width="0.1" height="0.5"/>
	</g>
	<g>
		<path class="st1" d="M9.6,5.2C9.6,5.2,9.6,5.2,9.6,5.2C9.6,5.2,9.6,5.2,9.6,5.2L9.6,5.2C9.5,5.2,9.6,5.2,9.6,5.2
			c0,0.1,0.1,0.1,0.1,0L9.6,5.2C9.7,5.2,9.6,5.2,9.6,5.2z"/>
	</g>
	<g>
		<rect x="9.7" y="4.6" class="st1" width="0.1" height="0.5"/>
	</g>
	<g>
		<path class="st1" d="M8.1,4.9C8.1,4.9,8.1,4.9,8.1,4.9L8.1,4.9C8.1,4.9,8.1,5,8.1,4.9c0,0.1,0,0.2-0.1,0.2l0,0.1l0,0
			c0.1,0,0.1,0,0.2,0.1l0,0c0,0,0,0,0,0c0,0,0,0,0,0c0,0,0,0,0,0c0,0,0,0,0,0l0,0c0,0,0-0.1,0-0.1c0-0.1,0-0.1,0.1-0.1l0,0l0-0.1
			C8.3,5,8.2,5,8.1,4.9L8.1,4.9C8.2,4.9,8.2,4.9,8.1,4.9L8.1,4.9z M8.2,5c0,0,0.1,0,0.1,0.1c0,0,0,0.1,0,0.1c0,0-0.1,0-0.1,0
			C8.2,5.1,8.2,5.1,8.2,5z"/>
	</g>
	<g>
		<path class="st1" d="M8.4,4.8L8.4,4.8c0.1,0,0.1,0,0.1,0c0,0,0,0,0,0c0,0,0,0,0,0l0.1,0c0,0,0-0.1-0.1-0.1
			C8.5,4.7,8.5,4.7,8.4,4.8z"/>
	</g>
	<g>
		<rect x="8.4" y="5" transform="matrix(-0.3419 -0.9397 0.9397 -0.3419 6.9313 14.8462)" class="st1" width="0.5" height="0.1"/>
	</g>
	<g>
		<path class="st1" d="M8.7,5.2L8.7,5.2C8.7,5.3,8.7,5.3,8.7,5.2L8.7,5.2C8.7,5.3,8.7,5.3,8.7,5.2C8.8,5.3,8.8,5.3,8.7,5.2L8.7,5.2z
			"/>
	</g>
	<g>
		<rect x="8.3" y="5" transform="matrix(-0.3423 -0.9396 0.9396 -0.3423 6.7235 14.7803)" class="st1" width="0.5" height="0.1"/>
	</g>
	<g>
		<path class="st1" d="M8.3,4.5L8.3,4.5L8.3,4.5c0,0.1,0,0.1,0,0.1l0.1,0C8.4,4.6,8.4,4.5,8.3,4.5C8.3,4.5,8.3,4.5,8.3,4.5z"/>
	</g>
	<g>
		<rect x="8" y="4.4" transform="matrix(-0.3446 -0.9387 0.9387 -0.3446 6.5048 13.7517)" class="st1" width="0.1" height="0.5"/>
	</g>
	<g>
		<path class="st1" d="M7.8,4.7c0,0,0,0.1,0.1,0.1l0.1-0.1C7.9,4.8,7.8,4.7,7.8,4.7C7.8,4.7,7.8,4.7,7.8,4.7L7.8,4.7
			C7.8,4.7,7.8,4.7,7.8,4.7z"/>
	</g>
	<g>
		<rect x="8.1" y="4.5" transform="matrix(-0.3396 -0.9406 0.9406 -0.3396 6.4105 13.9388)" class="st1" width="0.1" height="0.5"/>
	</g>
	<g>
		<path class="st1" d="M7.7,5C7.7,5,7.7,5,7.7,5L7.7,5L7.7,5c0.1,0,0.1,0,0.1,0l0-0.1C7.8,5,7.8,5,7.7,5z"/>
	</g>
	<g>
		<rect x="7.6" y="5.3" transform="matrix(-0.3425 -0.9395 0.9395 -0.3425 5.553 14.4768)" class="st1" width="0.5" height="0.1"/>
	</g>
	<g>
		<path class="st1" d="M8,5.5C8,5.5,8,5.5,8,5.5L8,5.5C7.9,5.6,7.9,5.6,8,5.5c0,0.1,0.1,0,0.1,0L8,5.5C8,5.5,8,5.5,8,5.5z"/>
	</g>
	<g>
		<rect x="7.7" y="5.2" transform="matrix(-0.3421 -0.9397 0.9397 -0.3421 5.7672 14.5239)" class="st1" width="0.5" height="0.1"/>
	</g>
	<g>
		<path class="st1" d="M6.8,5.3L6.8,5.3C6.9,5.3,6.9,5.3,6.8,5.3C6.9,5.3,6.9,5.3,6.8,5.3l0.1,0C6.9,5.3,6.9,5.3,6.8,5.3
			C6.9,5.3,6.8,5.3,6.8,5.3z"/>
	</g>
	<g>
		<rect x="6.8" y="5.5" transform="matrix(-0.5677 -0.8232 0.8232 -0.5677 6.5208 14.4512)" class="st1" width="0.5" height="0.1"/>
	</g>
	<g>
		<path class="st1" d="M6.8,5.4L7,5.7l0.1,0.2l0,0l0,0c0,0,0.1,0,0.1-0.1c0,0,0-0.1,0-0.1l-0.1,0c0,0,0,0,0,0c0,0,0,0,0,0
			c0,0,0,0,0,0c0,0-0.1-0.1-0.1-0.1L6.8,5.4L6.8,5.4z"/>
	</g>
	<g>
		<path class="st2" d="M9.1,5.1C9,5,8.8,5.1,8.8,5.2c0,0.1,0.1,0.1,0.2,0.1c0.1,0,0.1,0,0.1-0.1c0.1,0.1,0.3,0.1,0.3-0.1
			C9.4,5,9.3,5,9.2,5.1c0.1-0.1,0-0.2-0.1-0.2C9,4.8,9,5,9.1,5.1L9.1,5.1z"/>
		<path class="st1" d="M9.1,4.8C9,4.8,9,4.8,9,4.9c0,0,0,0,0,0.1C9,5,9,5,9,5c0,0-0.1,0-0.1,0c0,0-0.1,0.1-0.1,0.1c0,0,0,0,0,0
			c0,0,0,0.1,0.1,0.1c0,0,0.1,0,0.1,0c0.1,0,0.1,0,0.1-0.1c0.1,0,0.2,0.1,0.2,0c0,0,0.1-0.1,0.1-0.1c0-0.1,0-0.1-0.1-0.1
			c0,0-0.1,0-0.1,0c0,0,0,0,0,0c0,0,0-0.1,0-0.1C9.2,4.8,9.2,4.8,9.1,4.8z M9.1,5.1C9,5,9,5,9,4.9c0,0,0,0,0.1,0c0,0,0.1,0,0.1,0.1
			C9.2,5,9.2,5,9.1,5.1l0.2,0c0,0,0.1,0,0.1,0c0,0,0,0,0,0.1c0,0.1,0,0.1,0,0.1c-0.1,0-0.2,0-0.2,0l-0.1,0C9.1,5.3,9,5.3,9,5.3
			c0,0-0.1,0-0.1,0c0,0,0,0,0-0.1c0,0,0-0.1,0-0.1C8.9,5.1,9,5.1,9.1,5.1L9.1,5.1z"/>
	</g>
	<g>
		<path class="st2" d="M7.4,5.6c-0.1,0-0.2,0.1-0.2,0.2c0,0.1,0.1,0.1,0.2,0c0,0,0.1-0.1,0.1-0.1c0.1,0,0.3,0,0.2-0.2
			c0-0.1-0.2-0.1-0.2,0c0-0.1-0.1-0.2-0.2-0.2C7.3,5.4,7.3,5.6,7.4,5.6L7.4,5.6z"/>
		<path class="st1" d="M7.4,5.3c-0.1,0-0.1,0.1-0.1,0.1c0,0,0,0,0,0c0,0,0,0.1,0,0.1c0,0-0.1,0-0.1,0.1c0,0,0,0.1,0,0.1
			c0,0,0,0,0,0.1c0,0,0.1,0.1,0.1,0.1c0,0,0.1,0,0.1,0c0.1,0,0.1-0.1,0.1-0.1c0.1,0,0.2,0,0.2-0.1c0,0,0.1-0.1,0-0.2
			c0-0.1-0.1-0.1-0.1-0.1c0,0-0.1,0-0.1,0c0,0,0-0.1,0-0.1C7.5,5.3,7.5,5.3,7.4,5.3z M7.5,5.6c0,0-0.1-0.1-0.1-0.1c0,0,0-0.1,0-0.1
			c0,0,0.1,0,0.1,0C7.5,5.4,7.6,5.5,7.5,5.6l0.2,0c0,0,0.1-0.1,0.1-0.1c0,0,0,0,0.1,0c0,0,0,0.1,0,0.1c0,0-0.1,0-0.2,0l-0.1,0
			c0,0.1-0.1,0.1-0.1,0.1c0,0-0.1,0-0.1,0c0,0,0,0-0.1,0c0,0,0,0,0-0.1C7.3,5.7,7.4,5.6,7.5,5.6L7.5,5.6z"/>
	</g>
	<g>
		<path class="st2" d="M10,2.6c0.1,0,0.3,0.1,0.3,0.3c0,0.1-0.1,0.3-0.3,0.3C9.9,3.1,9.8,3,9.8,2.8C9.8,2.7,9.9,2.6,10,2.6L10,2.6z"
			/>
		<path class="st1" d="M9.7,2.8C9.7,3,9.9,3.1,10,3.1c0.2,0,0.3-0.1,0.3-0.3c0-0.2-0.1-0.3-0.3-0.3C9.9,2.5,9.7,2.7,9.7,2.8z
			 M9.8,2.8c0-0.1,0.1-0.2,0.2-0.2c0.1,0,0.2,0.1,0.2,0.2c0,0.1-0.1,0.2-0.2,0.2C9.9,3.1,9.8,3,9.8,2.8z"/>
	</g>
	<g>
		<path class="st2" d="M10.1,2.7C10.2,2.7,10.2,2.7,10.1,2.7c0.1,0.2,0,0.2-0.1,0.2c-0.1,0-0.2-0.1-0.2-0.1c0,0,0-0.1,0.1-0.1l0,0
			V2.4H9.8V2.3h0.2V2.2H10h0.1v0.1h0.2v0.1h-0.2V2.7L10.1,2.7z"/>
		<path class="st1" d="M10.1,2.1H9.9c0,0,0,0.1,0,0.1c0,0-0.2,0-0.2,0v0.2c0,0,0.1,0,0.2,0c0,0.1,0,0.2,0,0.2c0,0-0.1,0.1-0.1,0.1
			c0,0.1,0.1,0.2,0.2,0.2c0.1,0,0.2-0.1,0.2-0.2c0,0,0-0.1-0.1-0.1c0,0,0-0.2,0-0.2c0,0,0.2,0,0.2,0V2.2c0,0-0.1,0-0.2,0
			C10.2,2.2,10.2,2.1,10.1,2.1L10.1,2.1z M10,2.2C10,2.2,10.1,2.2,10,2.2c0.1,0,0.1,0.1,0.1,0.1s0.1,0,0.2,0c0,0,0,0,0,0
			c0,0-0.2,0-0.2,0v0.3l0,0c0,0,0,0,0,0.1c0,0-0.1,0.1-0.1,0.1c-0.1,0-0.1,0-0.1-0.1c0,0,0,0,0-0.1l0,0V2.4c0,0-0.1,0-0.2,0
			c0,0,0,0,0,0c0,0,0.2,0,0.2,0S10,2.2,10,2.2C10,2.2,10,2.2,10,2.2z"/>
	</g>
	<g>
		<path class="st0" d="M10,6.9c3.1,0,5.6,2.5,5.6,5.6c0,3.1-2.5,5.6-5.6,5.6c-3.1,0-5.6-2.5-5.6-5.6C4.4,9.4,6.9,6.9,10,6.9L10,6.9z
			"/>
		<path class="st1" d="M4.4,12.5c0,3.1,2.5,5.7,5.7,5.7c3.1,0,5.7-2.5,5.7-5.7S13.2,6.8,10,6.8C6.9,6.8,4.4,9.4,4.4,12.5z M4.4,12.5
			c0-3.1,2.5-5.6,5.6-5.6c3.1,0,5.6,2.5,5.6,5.6c0,3.1-2.5,5.6-5.6,5.6C6.9,18.1,4.4,15.6,4.4,12.5z"/>
	</g>
	<g>
		<path class="st5" d="M10,7.2c2.9,0,5.2,2.4,5.2,5.2c0,0.8-0.2,1.5-0.5,2.2l0,0L7.7,7.8l0,0C8.4,7.4,9.2,7.2,10,7.2L10,7.2z
			 M12.6,17.1c-0.8,0.4-1.6,0.7-2.5,0.7c-2.9,0-5.2-2.4-5.2-5.2c0-0.9,0.2-1.7,0.6-2.4l0,0L12.6,17.1L12.6,17.1z"/>
		<path class="st1" d="M7.7,7.8L7.7,7.8l7.1,6.9l0.1,0c0.3-0.7,0.5-1.4,0.5-2.2c0-2.9-2.4-5.3-5.3-5.3C9.2,7.2,8.4,7.4,7.7,7.8z
			 M10,7.3c2.9,0,5.2,2.3,5.2,5.2c0,0.7-0.2,1.4-0.4,2.1c-0.1-0.1-6.9-6.7-7-6.8C8.5,7.5,9.2,7.3,10,7.3z"/>
		<path class="st1" d="M5.3,10.1c-0.4,0.7-0.6,1.6-0.6,2.4c0,2.9,2.4,5.3,5.3,5.3c0.9,0,1.8-0.2,2.6-0.7l0-0.1L5.3,10.1L5.3,10.1z
			 M4.8,12.5c0-0.8,0.2-1.6,0.6-2.3c0.1,0.1,7,6.8,7.1,6.9c-0.8,0.4-1.6,0.6-2.5,0.6C7.2,17.7,4.8,15.4,4.8,12.5z"/>
	</g>
	<g>
		<path class="st6" d="M14.7,14.9c-0.4,0.8-1.1,1.5-1.9,2l0,0L5.5,9.8l0,0C6,9,6.6,8.4,7.5,7.9l0,0L14.7,14.9L14.7,14.9z"/>
		<path class="st1" d="M7.4,7.9C6.6,8.3,5.9,9,5.5,9.8l0,0l7.4,7.1l0,0c0.8-0.5,1.4-1.2,1.9-2l0,0L7.4,7.9L7.4,7.9z M7.4,8
			c0,0,7.1,6.9,7.2,6.9c-0.4,0.8-1,1.5-1.8,2c0,0-7.2-7-7.3-7C6,9.1,6.7,8.4,7.4,8z"/>
	</g>
	<g>
		<path class="st0" d="M11,14.1h-1v2.4H9.2v-4.4h0.2l0,0h1.9v0.8H10v0.5h1V14.1L11,14.1z"/>
		<path class="st1" d="M11.3,12.1H9.2v4.5H10c0,0,0-2.4,0-2.4c0.1,0,1,0,1,0v-0.8c0,0-1,0-1,0c0-0.1,0-0.4,0-0.4c0.1,0,1.3,0,1.3,0
			L11.3,12.1L11.3,12.1z M9.4,12.1c0,0,1.8,0,1.9,0c0,0.1,0,0.6,0,0.7c-0.1,0-1.3,0-1.3,0v0.5c0,0,1,0,1,0c0,0.1,0,0.6,0,0.7
			c-0.1,0-1,0-1,0s0,2.4,0,2.4c-0.1,0-0.7,0-0.7,0c0-0.1,0-4.3,0-4.4C9.3,12.1,9.4,12.1,9.4,12.1z"/>
	</g>
	<g>
		<path class="st0" d="M10,9.7c0.8,0,1.5,0.4,2.1,0.9l0,0l-0.6,0.6l0,0c-0.4-0.4-0.9-0.6-1.4-0.6c-1.1,0-1.9,0.9-1.9,1.9
			c0,1.1,0.9,1.9,1.9,1.9c0.6,0,1.1-0.2,1.4-0.6l0,0l0.6,0.6l0,0c-0.5,0.6-1.2,0.9-2.1,0.9c-1.5,0-2.8-1.2-2.8-2.8
			C7.3,11,8.5,9.7,10,9.7L10,9.7z"/>
		<path class="st1" d="M7.2,12.5c0,1.6,1.3,2.8,2.8,2.8c0.8,0,1.5-0.3,2.1-0.9l0-0.1l-0.6-0.6l0,0c-0.4,0.4-0.9,0.6-1.4,0.6
			c-1,0-1.9-0.9-1.9-1.9c0-1,0.9-1.9,1.9-1.9c0.5,0,1,0.2,1.4,0.6l0,0l0.6-0.6l0-0.1C11.6,10,10.8,9.7,10,9.7
			C8.5,9.7,7.2,10.9,7.2,12.5z M7.3,12.5c0-1.5,1.2-2.7,2.7-2.7c0.8,0,1.5,0.3,2,0.9c-0.1,0-0.5,0.5-0.6,0.5
			c-0.4-0.4-0.9-0.6-1.4-0.6c-1.1,0-2,0.9-2,2c0,1.1,0.9,2,2,2c0.5,0,1.1-0.2,1.4-0.6c0,0,0.5,0.5,0.6,0.5c-0.5,0.6-1.2,0.9-2,0.9
			C8.5,15.2,7.3,14,7.3,12.5z"/>
	</g>
	<g>
		<path class="st0" d="M12.2,8.8c1.3,0.7,2.1,2.1,2.1,3.7c0,1.6-0.9,2.9-2.1,3.7l0,0v-1l0,0c0.8-0.6,1.3-1.6,1.3-2.6
			c0-1-0.5-2-1.2-2.6l0,0l-0.5,0.4l0,0c-0.2-0.2-0.5-0.3-0.8-0.5l0,0L12.2,8.8L12.2,8.8z M11.2,10.9L10,12.1v0L7.8,9.9l0,0
			c-0.7,0.6-1.2,1.6-1.2,2.6c0,1.1,0.5,2,1.3,2.6l0,0v1l0,0c-1.3-0.7-2.1-2.1-2.1-3.7c0-1.6,0.9-3,2.1-3.7l0,0l2.2,2.1v0l0.3-0.3
			l0,0C10.6,10.6,10.9,10.7,11.2,10.9L11.2,10.9z"/>
		<path class="st1" d="M12.2,8.8L11,9.9l0,0.1c0.3,0.1,0.5,0.3,0.8,0.5l0,0c0,0,0.4-0.4,0.5-0.4c0.7,0.6,1.1,1.6,1.1,2.5
			c0,1-0.5,2-1.2,2.6l0,0v1.1l0.1,0c1.3-0.8,2.1-2.2,2.1-3.7C14.3,11,13.5,9.5,12.2,8.8L12.2,8.8L12.2,8.8z M12.2,8.8
			c1.3,0.8,2.1,2.2,2.1,3.6c0,1.5-0.8,2.9-2,3.6c0-0.1,0-0.9,0-1c0.8-0.7,1.3-1.6,1.3-2.7c0-1-0.4-1.9-1.2-2.6l0,0
			c0,0-0.4,0.4-0.5,0.4c-0.2-0.2-0.5-0.3-0.7-0.4C11.2,9.8,12.1,8.9,12.2,8.8z"/>
		<path class="st1" d="M7.9,8.8C6.5,9.5,5.7,11,5.7,12.5c0,1.5,0.8,2.9,2.1,3.7l0.1,0v-1.1l0,0c-0.8-0.6-1.2-1.6-1.2-2.6l0,0
			c0-1,0.4-1.9,1.1-2.5C7.8,10,10,12.1,10,12.1l0,0l1.2-1.1l0-0.1c-0.3-0.2-0.6-0.3-0.9-0.4l0,0c0,0-0.2,0.2-0.3,0.3
			C10,10.7,7.9,8.7,7.9,8.8L7.9,8.8z M5.8,12.5c0-1.5,0.8-2.9,2.1-3.6c0,0,2.2,2.1,2.2,2.1l0,0c0,0,0.3-0.2,0.3-0.3
			c0.3,0,0.6,0.2,0.8,0.3C11.1,11,10.1,12,10,12C10,12,7.8,9.9,7.8,9.9l0,0c-0.8,0.7-1.2,1.6-1.2,2.6c0,1,0.5,2,1.3,2.7
			c0,0,0,0.8,0,1C6.6,15.3,5.8,14,5.8,12.5z"/>
	</g>
	<g>
		<path class="st4" d="M6.7,4.9c0-0.6,0.6-1,1.3-1.2c-0.1,0,0,0-0.1,0C7.3,3.7,6.3,4.3,6.5,5.3C6.5,5.2,6.6,4.9,6.7,4.9L6.7,4.9z"/>
		<path class="st1" d="M7.9,3.7C7.5,3.7,7,3.9,6.7,4.4C6.5,4.6,6.4,4.9,6.5,5.3c0-0.1,0.1-0.3,0.2-0.4l0,0v0
			C6.7,4.3,7.3,3.9,7.9,3.7C7.9,3.7,7.9,3.7,7.9,3.7C7.9,3.7,7.9,3.7,7.9,3.7C8,3.7,8,3.7,7.9,3.7C8,3.7,7.9,3.6,7.9,3.7z M6.7,4.4
			C7,4,7.6,3.7,7.9,3.7c0,0,0,0,0,0c0,0,0,0,0,0c0,0,0,0,0,0c0,0,0,0,0,0C7.3,3.8,6.7,4.3,6.7,4.9c0,0.1-0.2,0.3-0.2,0.4
			C6.4,4.9,6.5,4.7,6.7,4.4z"/>
	</g>
	<g>
		<path class="st4" d="M8.2,4.6c-0.1-1,1.1-1.6,1.8-1.5l0,0V3l0,0C9.2,3,7.9,3.5,8.2,4.6C8.2,4.6,8.2,4.7,8.2,4.6L8.2,4.6z"/>
		<path class="st1" d="M8.4,3.6C8.1,3.9,8.1,4.3,8.1,4.7c0,0,0,0,0,0l0,0l0,0c0-0.4,0.1-0.7,0.4-1C9,3.3,9.6,3.1,10,3.1L10,3
			C9.5,3,8.8,3.2,8.4,3.6z M8.4,3.6C8.8,3.2,9.5,3,10,3.1l0,0c-0.4,0-1,0.2-1.4,0.6C8.3,3.9,8.2,4.2,8.2,4.6c0,0,0,0,0,0.1
			c0,0,0,0,0,0c0,0,0,0,0,0C8.1,4.3,8.1,3.9,8.4,3.6z"/>
	</g>
	<g>
		<path class="st5" d="M10,3.9c0.1,0,0.2,0.1,0.2,0.2c0,0.1-0.1,0.2-0.2,0.2c-0.1,0-0.2-0.1-0.2-0.2C9.9,4,9.9,3.9,10,3.9L10,3.9z"
			/>
		<path class="st1" d="M9.9,3.9c0,0-0.1,0.1-0.1,0.1c0,0.1,0.1,0.2,0.2,0.2c0.1,0,0.2-0.1,0.2-0.2c0-0.1,0-0.1-0.1-0.1
			c0,0-0.1-0.1-0.1-0.1S9.9,3.9,9.9,3.9z M9.9,4.1C9.9,4,9.9,4,9.9,4.1C10,4,10,4,10,4c0,0,0.1,0,0.1,0c0,0,0,0,0,0.1
			c0,0.1-0.1,0.1-0.1,0.1C10,4.2,9.9,4.1,9.9,4.1z"/>
	</g>
	<g>
		<path class="st5" d="M10,3.6c0.1,0,0.1,0.1,0.1,0.1c0,0.1-0.1,0.1-0.1,0.1c-0.1,0-0.1-0.1-0.1-0.1C9.9,3.7,9.9,3.6,10,3.6L10,3.6z
			"/>
		<path class="st1" d="M9.9,3.6c0,0-0.1,0.1-0.1,0.1c0,0.1,0.1,0.2,0.2,0.2c0.1,0,0.2-0.1,0.2-0.2c0,0,0-0.1-0.1-0.1
			c0,0-0.1-0.1-0.1-0.1C10,3.6,9.9,3.6,9.9,3.6z M9.9,3.8C9.9,3.7,9.9,3.7,9.9,3.8C10,3.7,10,3.7,10,3.7c0,0,0.1,0,0.1,0
			c0,0,0,0,0,0.1c0,0.1,0,0.1-0.1,0.1C10,3.9,9.9,3.8,9.9,3.8z"/>
	</g>
	<g>
		<path class="st5" d="M10,3.3c0.1,0,0.1,0.1,0.1,0.1c0,0.1-0.1,0.1-0.1,0.1c-0.1,0-0.1-0.1-0.1-0.1C9.9,3.4,10,3.3,10,3.3L10,3.3z"
			/>
		<path class="st1" d="M9.9,3.5c0,0.1,0.1,0.2,0.2,0.2c0.1,0,0.2-0.1,0.2-0.2c0-0.1-0.1-0.2-0.2-0.2C9.9,3.3,9.9,3.4,9.9,3.5z
			 M9.9,3.5C9.9,3.4,10,3.4,9.9,3.5c0.1-0.1,0.2,0,0.2,0C10.1,3.5,10.1,3.6,9.9,3.5C10,3.6,9.9,3.5,9.9,3.5z"/>
	</g>
	<g>
		<path class="st5" d="M10,3.1c0.1,0,0.1,0,0.1,0.1c0,0.1,0,0.1-0.1,0.1c-0.1,0-0.1,0-0.1-0.1C9.9,3.1,10,3.1,10,3.1L10,3.1z"/>
		<path class="st1" d="M9.9,3.2c0,0.1,0.1,0.1,0.1,0.1c0.1,0,0.1-0.1,0.1-0.1c0-0.1-0.1-0.1-0.1-0.1C10,3.1,9.9,3.1,9.9,3.2z
			 M10,3.2C10,3.2,10,3.1,10,3.2c0.1-0.1,0.1,0,0.1,0C10.1,3.2,10.1,3.3,10,3.2C10,3.3,10,3.2,10,3.2z"/>
	</g>
	<g>
		<path class="st2" d="M10,2.6c0.1,0,0.3,0.1,0.3,0.3c0,0.1-0.1,0.3-0.3,0.3C9.9,3.1,9.8,3,9.8,2.8C9.8,2.7,9.9,2.6,10,2.6L10,2.6z"
			/>
		<path class="st1" d="M9.7,2.8C9.7,3,9.9,3.1,10,3.1c0.2,0,0.3-0.1,0.3-0.3c0-0.2-0.1-0.3-0.3-0.3C9.9,2.5,9.7,2.7,9.7,2.8z
			 M9.8,2.8c0-0.1,0.1-0.2,0.2-0.2c0.1,0,0.2,0.1,0.2,0.2c0,0.1-0.1,0.2-0.2,0.2C9.9,3.1,9.8,3,9.8,2.8z"/>
	</g>
	<g>
		<path class="st2" d="M10.1,2.7C10.2,2.7,10.2,2.7,10.1,2.7c0.1,0.2,0,0.2-0.1,0.2c-0.1,0-0.2-0.1-0.2-0.1c0,0,0-0.1,0.1-0.1l0,0
			V2.4H9.8V2.3h0.2V2.2H10h0.1v0.1h0.2v0.1h-0.2V2.7L10.1,2.7z"/>
		<path class="st1" d="M10.1,2.1H9.9c0,0,0,0.1,0,0.1c0,0-0.2,0-0.2,0v0.2c0,0,0.1,0,0.2,0c0,0.1,0,0.2,0,0.2c0,0-0.1,0.1-0.1,0.1
			c0,0.1,0.1,0.2,0.2,0.2c0.1,0,0.2-0.1,0.2-0.2c0,0,0-0.1-0.1-0.1c0,0,0-0.2,0-0.2c0,0,0.2,0,0.2,0V2.2c0,0-0.1,0-0.2,0
			C10.2,2.2,10.2,2.1,10.1,2.1L10.1,2.1z M10,2.2C10,2.2,10.1,2.2,10,2.2c0.1,0,0.1,0.1,0.1,0.1s0.1,0,0.2,0c0,0,0,0,0,0
			c0,0-0.2,0-0.2,0v0.3l0,0c0,0,0,0,0,0.1c0,0-0.1,0.1-0.1,0.1c-0.1,0-0.1,0-0.1-0.1c0,0,0,0,0-0.1l0,0V2.4c0,0-0.1,0-0.2,0
			c0,0,0,0,0,0c0,0,0.2,0,0.2,0S10,2.2,10,2.2C10,2.2,10,2.2,10,2.2z"/>
	</g>
	<g>
		<path class="st4" d="M13.4,4.9c0-0.6-0.6-1-1.3-1.2c0.1,0,0,0,0.1,0c0.6,0.1,1.6,0.7,1.4,1.6C13.5,5.2,13.4,4.9,13.4,4.9L13.4,4.9
			z"/>
		<path class="st1" d="M12.1,3.7C12.1,3.7,12.1,3.7,12.1,3.7C12.1,3.7,12.1,3.7,12.1,3.7C12.1,3.7,12.1,3.7,12.1,3.7
			c0.6,0.2,1.3,0.6,1.3,1.2v0l0,0c0,0.1,0.2,0.3,0.2,0.4c0.1-0.3,0-0.6-0.2-0.9C13,3.9,12.5,3.7,12.1,3.7
			C12.1,3.6,12.1,3.7,12.1,3.7z M12.1,3.7C12.1,3.7,12.1,3.7,12.1,3.7C12.1,3.7,12.1,3.7,12.1,3.7C12.1,3.7,12.1,3.7,12.1,3.7
			c0.4,0,0.9,0.3,1.2,0.7c0.2,0.3,0.3,0.6,0.2,0.9c0-0.1-0.1-0.3-0.2-0.4C13.4,4.3,12.7,3.8,12.1,3.7C12.1,3.7,12.1,3.7,12.1,3.7z"
			/>
	</g>
	<g>
		<path class="st4" d="M11.9,4.6c0.1-1-1.1-1.6-1.8-1.5l0,0V3l0,0C10.9,3,12.2,3.5,11.9,4.6C11.9,4.6,11.9,4.7,11.9,4.6L11.9,4.6z"
			/>
		<path class="st1" d="M10,3L10,3c0.4,0,1,0.2,1.4,0.6c0.3,0.3,0.4,0.6,0.4,1v0l0,0c0,0,0,0,0,0c0.1-0.4,0-0.8-0.3-1.1
			C11.2,3.2,10.5,3,10,3z M10,3c0.5,0,1.2,0.1,1.6,0.6c0.3,0.3,0.4,0.7,0.3,1.1c0,0,0,0,0,0c0,0,0,0,0,0c0,0,0,0,0-0.1
			c0-0.3-0.1-0.6-0.4-0.9C11.1,3.3,10.4,3.1,10,3L10,3z"/>
	</g>
	<g>
		<path class="st0" d="M10,2.8c0.5,0.7,0.4,1.5,0,1.7C9.7,4.4,9.6,3.5,10,2.8L10,2.8z"/>
		<path class="st1" d="M9.7,4.3C9.8,4.4,9.9,4.5,10,4.6l0,0l0,0c0.1-0.1,0.2-0.2,0.3-0.4c0.1-0.4,0-0.9-0.3-1.4H10
			C9.7,3.3,9.6,3.9,9.7,4.3z M9.8,4.2c0-0.1-0.1-0.2-0.1-0.4c0-0.3,0.1-0.6,0.3-1c0.2,0.3,0.3,0.6,0.3,0.9c0,0.1,0,0.2,0,0.3
			c0,0.2-0.1,0.3-0.2,0.3C9.9,4.4,9.9,4.4,9.8,4.2z"/>
	</g>
	<g>
		<path class="st0" d="M12.3,7.3c0-0.1,0-0.2,0-0.3c-0.7-0.3-1.5-0.5-2.3-0.5c0.8,0,1.6,0.2,2.3,0.5c0-0.3,0.1-0.4,0.3-0.5
			c0,0,0,0,0,0C11.8,6.2,10.9,6,10,6c0.9,0,1.8,0.2,2.6,0.5c0.1,0,0.1-0.1,0.1-0.2C11.9,6,11,5.8,10,5.8c-1,0-1.9,0.2-2.7,0.6
			c0,0.1,0.1,0.2,0.1,0.2C8.3,6.2,9.1,6,10,6C9.1,6,8.3,6.2,7.5,6.5c0,0,0,0,0,0c0.1,0.1,0.2,0.3,0.3,0.5C8.4,6.8,9.2,6.6,10,6.6
			c-0.8,0-1.6,0.2-2.3,0.5c0,0.1,0,0.2,0,0.3C8.4,7,9.2,6.9,10,6.9C10.8,6.9,11.6,7,12.3,7.3L12.3,7.3z"/>
		<path class="st1" d="M7.3,6.3L7.3,6.3L7.3,6.3C7.3,6.3,7.3,6.3,7.3,6.3c0,0.1,0,0.2,0,0.2c0,0,0.1,0,0.1,0
			c0.1,0.1,0.2,0.2,0.2,0.5v0c0,0,0,0,0,0.1c0,0.1,0,0.1,0,0.2l0.1,0C8.5,7.1,9.2,6.9,10,6.9c0.8,0,1.6,0.2,2.3,0.5l0.1,0
			c0-0.1,0-0.2,0-0.2c0,0,0,0,0-0.1c0-0.3,0.1-0.4,0.2-0.5c0,0,0.1,0,0.1-0.1c0,0,0.1-0.1,0.1-0.2c0,0,0,0,0,0l0,0l0,0
			C11.9,5.9,11,5.7,10,5.7C9.1,5.7,8.2,5.9,7.3,6.3z M10,5.8c0.9,0,1.8,0.2,2.6,0.5c0,0,0,0.1,0,0.1c0,0,0,0,0,0
			C11.8,6.1,10.9,6,10,6C9.1,6,8.3,6.1,7.5,6.5c0,0,0,0,0,0c0,0,0-0.1,0-0.1C8.2,6,9.1,5.8,10,5.8z M10,6c0.9,0,1.7,0.2,2.5,0.5
			c-0.1,0.1-0.2,0.2-0.2,0.5c-0.7-0.3-1.5-0.4-2.3-0.4v0.1c0.8,0,1.5,0.2,2.2,0.5c0,0,0,0,0,0c0,0.1,0,0.1,0,0.2
			C11.6,7,10.8,6.8,10,6.8C9.2,6.8,8.5,7,7.8,7.3c0-0.1,0-0.1,0-0.2c0,0,0,0,0,0C8.5,6.8,9.3,6.6,10,6.6V6.6C9.2,6.6,8.5,6.7,7.8,7
			c0-0.2-0.1-0.4-0.2-0.5C8.3,6.2,9.2,6,10,6z"/>
	</g>
	<path class="st7" d="M10.3,4.4c0,0-0.1,0.1-0.1,0.1c-0.1,0.1-0.1,0.1,0,0.1c0,0,0.1,0,0.2-0.1l0,0v0.5l0,0c-0.1,0-0.1-0.1-0.2-0.1
		c0,0,0,0,0,0.1c0.1,0.2,0.2,0.3,0.3,0.3c0.2,0,0.3-0.1,0.4-0.3l0,0l0.1,0l0,0.1l0,0c0,0.2,0.2,0.3,0.3,0.3c0.1,0,0.2-0.1,0.3-0.2
		c0-0.1,0-0.1,0-0.1c0,0-0.1,0-0.2,0l0,0l0.2-0.5l0,0c0,0,0.1,0.1,0.1,0.1c0,0,0,0,0-0.1c0-0.1,0-0.1-0.1-0.2l0,0l0.5,0.2l0,0
		c0,0-0.1,0.1-0.1,0.1C12,4.9,12,5,12,5c0,0,0.1,0,0.2,0l0,0L12,5.5l0,0c0,0-0.1-0.1-0.2-0.1c0,0,0,0-0.1,0.1c0,0.2,0.1,0.3,0.3,0.4
		c0.1,0,0.3,0,0.4-0.1l0,0l0.1,0l0,0.1l0,0c-0.1,0.2,0.1,0.4,0.2,0.4C12.9,6.1,13,6,13,5.9c0-0.1,0-0.1-0.1-0.1
		c0.1-0.1,0.3-0.4,0.3-0.5c0,0,0.1,0.2,0.1,0.2c0-0.2,0.2-0.3,0.3-0.4c0.2,0,0.3,0.2,0.2,0.4c-0.1,0.1-0.3,0-0.3-0.1
		c-0.1,0.2-0.1,0.3-0.2,0.4c0,0-0.1,0-0.2,0c0.1,0,0.1,0,0.1,0.1c0,0.2-0.2,0.4-0.4,0.4c-0.2,0-0.3-0.1-0.4-0.3
		c-0.3,0.1-0.6,0-0.7-0.3C11.2,6,11,5.8,10.8,5.6c-0.4,0.3-0.7,0.1-0.8-0.1L10.3,4.4z"/>
	<path class="st7" d="M10.3,4.4H9.8l0,0c0,0,0.1,0.1,0.1,0.1c0.1,0.1,0.1,0.1,0,0.1c0,0-0.1,0-0.2-0.1l0,0v0.5l0,0
		c0.1,0,0.1-0.1,0.2-0.1c0,0,0,0,0,0.1C9.9,5.4,9.7,5.5,9.6,5.5c-0.2,0-0.3-0.1-0.4-0.3l0,0l-0.1,0l0,0.1l0,0c0,0.2-0.2,0.3-0.3,0.3
		c-0.1,0-0.2-0.1-0.3-0.2c0-0.1,0-0.1,0-0.1c0,0,0.1,0,0.2,0l0,0L8.4,4.8l0,0c0,0-0.1,0.1-0.1,0.1c0,0,0,0,0-0.1
		c0-0.1,0-0.1,0.1-0.2l0,0L7.8,4.8l0,0c0,0,0.1,0.1,0.1,0.1C8.1,4.9,8.1,5,8.1,5c0,0-0.1,0-0.2,0l0,0l0.2,0.5l0,0
		c0,0,0.1-0.1,0.2-0.1c0,0,0,0,0.1,0.1c0,0.2-0.1,0.3-0.3,0.4c-0.1,0-0.3,0-0.4-0.1l0,0l-0.1,0l0,0.1l0,0c0.1,0.2-0.1,0.4-0.2,0.4
		C7.2,6.1,7.1,6,7.1,5.9c0-0.1,0-0.1,0.1-0.1C7.1,5.7,6.9,5.4,6.8,5.3c0,0-0.1,0.2-0.1,0.2c0-0.2-0.2-0.3-0.3-0.4
		c-0.2,0-0.3,0.2-0.2,0.4c0.1,0.1,0.3,0,0.3-0.1c0.1,0.2,0.1,0.3,0.2,0.4c0,0,0.1,0,0.2,0c-0.1,0-0.1,0-0.1,0.1
		c0,0.2,0.2,0.4,0.4,0.4c0.2,0,0.3-0.1,0.4-0.3C8,6.1,8.3,6,8.4,5.7C8.8,6,9.1,5.8,9.2,5.6C9.6,5.9,9.9,5.7,10,5.5L10.3,4.4z"/>
	<path class="st7" d="M10.3,4.6c0.1,0,0.1,0,0.1,0l0,0v0.5l0,0c0,0.1-0.1,0.1-0.1,0l0,0V4.6L10.3,4.6z"/>
	<path class="st7" d="M11.7,5.3c0.1-0.1,0-0.2-0.1-0.3c0.1,0,0.2,0,0.2-0.2c0,0.1,0,0.2,0.1,0.3C11.9,5.2,11.8,5.2,11.7,5.3
		L11.7,5.3z"/>
	<path class="st7" d="M11.6,4.8c-0.1-0.1-0.1-0.1-0.1,0l0,0l-0.2,0.5l0,0c0,0.1,0,0.1,0.1,0.1l0,0L11.6,4.8L11.6,4.8z"/>
	<path class="st7" d="M11.7,4.6c0-0.1,0-0.1,0.1-0.1l0,0l0.5,0.2l0,0c0.1,0,0,0.1,0,0.1l0,0L11.7,4.6L11.7,4.6z"/>
	<path class="st7" d="M12.2,5c0.1,0,0.1,0,0.1,0.1l0,0l-0.2,0.5l0,0c0,0.1-0.1,0-0.1,0l0,0L12.2,5L12.2,5z"/>
	<path class="st7" d="M13.2,5.3C13.2,5.3,13.2,5.3,13.2,5.3L13.2,5.3l-0.4,0.4l0,0c-0.1,0.1,0,0.1,0,0.1c0,0,0.1-0.1,0.1-0.1
		C13.1,5.6,13.2,5.5,13.2,5.3L13.2,5.3z"/>
	<path class="st7" d="M10,5.1c0-0.1,0.1-0.2,0.2-0.2c-0.1,0-0.2-0.1-0.2-0.2c0,0.1-0.1,0.2-0.2,0.2C9.9,4.9,10,4.9,10,5.1L10,5.1z"
		/>
	<path class="st7" d="M10.3,4.4c0-0.1,0-0.1,0-0.1l0,0H9.8l0,0c-0.1,0,0,0.1,0,0.1l0,0H10.3L10.3,4.4z"/>
	<path class="st7" d="M9.7,4.6c-0.1,0-0.1,0-0.1,0l0,0v0.5l0,0c0,0.1,0.1,0.1,0.1,0l0,0V4.6L9.7,4.6z"/>
	<path class="st7" d="M8.3,5.3c-0.1-0.1,0-0.2,0.1-0.3c-0.1,0-0.2,0-0.2-0.2c0,0.1,0,0.2-0.1,0.3C8.2,5.2,8.3,5.2,8.3,5.3L8.3,5.3z"
		/>
	<path class="st7" d="M8.4,4.8c0.1-0.1,0.1-0.1,0.1,0l0,0l0.2,0.5l0,0c0,0.1,0,0.1-0.1,0.1l0,0L8.4,4.8L8.4,4.8z"/>
	<path class="st7" d="M8.3,4.6c0-0.1,0-0.1-0.1-0.1l0,0L7.8,4.7l0,0c-0.1,0,0,0.1,0,0.1l0,0L8.3,4.6L8.3,4.6z"/>
	<path class="st7" d="M7.9,5C7.8,5,7.7,5,7.8,5.1l0,0l0.2,0.5l0,0c0,0.1,0.1,0,0.1,0l0,0L7.9,5L7.9,5z"/>
	<path class="st7" d="M6.8,5.3C6.8,5.3,6.9,5.3,6.8,5.3L6.8,5.3l0.4,0.4l0,0c0.1,0.1,0,0.1,0,0.1c0,0-0.1-0.1-0.1-0.1
		C7,5.6,6.9,5.5,6.8,5.3L6.8,5.3z"/>
	<g>
		<path class="st1" d="M10.2,4.5c-0.1,0.1-0.1,0.1-0.1,0.1c0,0,0,0,0,0c0,0,0.1,0,0.2,0l0,0l0-0.1l0,0C10.2,4.6,10.2,4.6,10.2,4.5
			C10.2,4.6,10.2,4.6,10.2,4.5c0.1,0,0.2-0.1,0.2-0.1l-0.1,0C10.3,4.4,10.2,4.5,10.2,4.5z"/>
	</g>
	<g>
		<rect x="10.3" y="4.6" class="st1" width="0.1" height="0.5"/>
	</g>
	<g>
		<path class="st1" d="M10.1,5.1L10.1,5.1c-0.1,0.1-0.1,0.1-0.1,0.2c0.1,0.2,0.2,0.3,0.4,0.3c0.2,0,0.4-0.1,0.4-0.3l-0.1,0
			c0,0.1-0.2,0.2-0.3,0.2c-0.1,0-0.3-0.1-0.3-0.2C10.2,5.2,10.2,5.2,10.1,5.1c0,0.1,0.1,0.1,0.2,0.1l0,0l0-0.1l0,0
			C10.3,5.1,10.2,5.1,10.1,5.1z"/>
	</g>
	<g>
		<path class="st1" d="M10.9,5.2L10.9,5.2l0,0.1C10.9,5.3,10.9,5.3,10.9,5.2c0,0.1,0,0.1,0,0.1L10.9,5.2L10.9,5.2L10.9,5.2z"/>
	</g>
	<g>
		<path class="st1" d="M11,5.5c0.1,0.1,0.2,0.1,0.3,0.2c0.1,0,0.3-0.1,0.4-0.2c0,0,0-0.1,0-0.1l0-0.1c0,0-0.1,0-0.2,0l0,0l0,0.1l0,0
			c0.1,0,0.1,0,0.2,0l0,0c0,0,0,0,0,0c0,0,0,0,0,0c-0.1,0.1-0.2,0.2-0.3,0.2C11.2,5.5,11.1,5.5,11,5.5c0-0.1,0-0.1,0-0.2l-0.1,0
			C10.9,5.3,10.9,5.4,11,5.5z"/>
	</g>
	<g>
		
			<rect x="11.5" y="4.8" transform="matrix(-0.9404 -0.3401 0.3401 -0.9404 20.6434 13.6921)" class="st1" width="0.1" height="0.5"/>
	</g>
	<g>
		<path class="st1" d="M11.7,4.6c0,0,0,0.1,0.1,0.2c0,0,0,0,0,0c0,0,0,0-0.1-0.1l0,0l-0.1,0.1l0,0c0,0,0.1,0.1,0.1,0.1
			c0,0,0.1,0,0.1,0c0,0,0-0.1,0-0.1C11.8,4.7,11.8,4.7,11.7,4.6L11.7,4.6z"/>
	</g>
	<g>
		
			<rect x="11.7" y="4.7" transform="matrix(-0.9397 -0.3419 0.3419 -0.9397 21.5813 13.2427)" class="st1" width="0.5" height="0.1"/>
	</g>
	<g>
		<path class="st1" d="M12,4.9c-0.1,0-0.1,0.1-0.1,0.1c0,0,0,0,0,0.1c0,0,0.1,0,0.2,0l0,0l0-0.1L12,4.9C12.1,5,12.1,5,12,4.9
			C12,5,12.1,4.9,12,4.9c0.1,0,0.2,0,0.2,0l-0.1-0.1C12.2,4.8,12.1,4.8,12,4.9z"/>
	</g>
	<g>
		<rect x="12" y="5" transform="matrix(-0.9381 -0.3464 0.3464 -0.9381 21.611 14.3489)" class="st1" width="0.1" height="0.5"/>
	</g>
	<g>
		<path class="st1" d="M11.8,5.4c0,0,0,0.1,0,0.1c0,0.2,0.1,0.3,0.3,0.4c0.1,0.1,0.3,0,0.4-0.2l-0.1,0c-0.1,0.1-0.2,0.2-0.3,0.1
			c-0.1,0-0.2-0.1-0.2-0.3C11.8,5.4,11.8,5.4,11.8,5.4c0.1,0.1,0.1,0.1,0.2,0.2l0,0L12,5.5l0,0C12,5.4,11.9,5.3,11.8,5.4
			C11.9,5.3,11.8,5.4,11.8,5.4z"/>
	</g>
	<g>
		<path class="st1" d="M12.5,5.6L12.5,5.6L12.5,5.6C12.4,5.7,12.4,5.7,12.5,5.6c0,0.1,0,0.1,0,0.1V5.6L12.5,5.6L12.5,5.6z"/>
	</g>
	<g>
		<path class="st1" d="M13.6,5.2c-0.1,0-0.2,0.1-0.3,0.2c0,0,0-0.1,0-0.1l-0.1,0c0,0.1-0.2,0.4-0.3,0.5l0,0.1l0,0c0,0,0,0,0,0
			c0,0,0,0,0,0c0,0,0,0,0,0c0,0,0,0,0,0c0,0-0.1,0.1-0.2,0.1c-0.1,0-0.2,0-0.2-0.1c0,0,0-0.1,0-0.2l-0.1,0c0,0.1,0,0.2,0,0.3
			c0.1,0.1,0.2,0.2,0.3,0.2c0.1,0,0.2,0,0.2-0.1c0,0,0-0.1,0-0.1c0,0,0,0,0,0c0-0.1,0-0.1-0.1-0.1c0.1-0.1,0.2-0.3,0.3-0.4
			c0,0,0,0.1,0,0.1l0,0l0.1,0C13.4,5.4,13.5,5.3,13.6,5.2c0.1,0.1,0.1,0.1,0.2,0.2c0,0.1,0,0.1,0,0.2c-0.1,0-0.1,0-0.1,0
			c0,0-0.1-0.1,0-0.1l-0.1,0c-0.1,0.1-0.1,0.2-0.1,0.3c0,0,0,0.1,0,0.1c0,0-0.1,0-0.2,0l0,0l0,0l0,0.1l0,0c0.1,0,0.1,0,0.1,0.1
			c0,0,0,0,0,0c0,0.1,0,0.1-0.1,0.2c-0.1,0.1-0.2,0.2-0.3,0.2c-0.2,0-0.3-0.1-0.4-0.2l-0.1,0c-0.2,0.1-0.6,0-0.7-0.3l-0.1,0
			c-0.2,0.1-0.3,0.1-0.4,0.1c-0.1,0-0.2-0.1-0.3-0.2l-0.1,0c-0.2,0.1-0.3,0.2-0.5,0.1c-0.2,0-0.3-0.2-0.3-0.2l-0.1,0
			c0,0.1,0.2,0.2,0.4,0.3c0.1,0,0.3,0,0.5-0.1c0.1,0.1,0.2,0.2,0.3,0.2c0.1,0,0.3,0,0.4-0.1c0.2,0.3,0.5,0.4,0.7,0.3
			c0.1,0.2,0.3,0.3,0.4,0.3c0.1,0,0.3-0.1,0.4-0.2c0.1-0.1,0.1-0.1,0.1-0.2c0,0,0,0,0,0c0,0,0,0,0,0c0.1,0,0.1,0,0.1,0
			c0,0,0-0.1,0.1-0.1c0-0.1,0-0.1,0.1-0.2c0,0,0,0.1,0.1,0.1c0.1,0,0.2,0.1,0.2,0c0.1-0.1,0.1-0.2,0-0.3C13.8,5.2,13.7,5.2,13.6,5.2
			z"/>
	</g>
	<g>
		<rect x="9.8" y="4.4" class="st1" width="0.5" height="0.1"/>
	</g>
	<g>
		<path class="st1" d="M9.7,4.4c0,0,0.1,0.1,0.1,0.2c0,0,0,0,0,0c0,0-0.1,0-0.1,0l0,0l0,0.1l0,0c0.1,0,0.1,0.1,0.2,0c0,0,0,0,0,0
			c0,0,0-0.1-0.1-0.1C9.9,4.5,9.8,4.4,9.7,4.4L9.7,4.4z"/>
	</g>
	<g>
		<rect x="9.7" y="4.6" class="st1" width="0.1" height="0.5"/>
	</g>
	<g>
		<path class="st1" d="M9.7,5.1L9.7,5.1L9.7,5.1L9.7,5.1c0.1,0,0.2,0,0.2,0c0,0,0,0,0,0c0,0,0,0,0,0.1c0,0.2-0.2,0.2-0.3,0.2
			c-0.1,0-0.3-0.1-0.3-0.2l-0.1,0c0,0.2,0.2,0.3,0.4,0.3c0.2,0,0.3-0.1,0.4-0.3c0-0.1,0-0.1,0-0.1l-0.1,0C9.9,5.1,9.8,5.1,9.7,5.1z"
			/>
	</g>
	<g>
		<path class="st1" d="M9.1,5.2L9.1,5.2l0,0.1C9.1,5.3,9.1,5.3,9.1,5.2c0.1,0.1,0.1,0.1,0.1,0.1l0-0.1L9.1,5.2L9.1,5.2z"/>
	</g>
	<g>
		<path class="st1" d="M9.1,5.2c0,0.1,0,0.1,0,0.2C9,5.5,8.9,5.5,8.8,5.6c-0.1,0-0.2-0.1-0.3-0.2c0,0,0,0,0,0c0,0,0.1,0,0.2,0l0,0
			l0-0.1l0,0c-0.1,0-0.2,0-0.2,0c0,0,0,0.1,0,0.1c0,0,0,0.1,0,0.1c0.1,0.1,0.2,0.2,0.4,0.2c0.1,0,0.2-0.1,0.3-0.2
			C9.1,5.4,9.2,5.3,9.1,5.2L9.1,5.2z"/>
	</g>
	<g>
		<rect x="8.3" y="5" transform="matrix(-0.3423 -0.9396 0.9396 -0.3423 6.7233 14.7805)" class="st1" width="0.5" height="0.1"/>
	</g>
	<g>
		<path class="st1" d="M8.3,4.8c0,0.1,0,0.1,0,0.1c0,0,0,0,0.1,0c0,0,0.1,0,0.1-0.1l0,0L8.4,4.8l0,0C8.4,4.8,8.3,4.8,8.3,4.8
			C8.3,4.8,8.3,4.8,8.3,4.8c0.1-0.1,0.1-0.1,0.1-0.1l-0.1,0C8.3,4.7,8.3,4.7,8.3,4.8z"/>
	</g>
	<g>
		<rect x="8.1" y="4.5" transform="matrix(-0.3452 -0.9385 0.9385 -0.3452 6.4644 13.9485)" class="st1" width="0.1" height="0.5"/>
	</g>
	<g>
		<path class="st1" d="M7.8,4.8c0,0,0.1,0.1,0.2,0.1c0,0,0,0,0,0C8,5,8,5,7.9,5L7.9,5l0,0.1l0,0C8,5,8,5.1,8.1,5c0,0,0,0,0-0.1
			c0,0,0-0.1-0.1-0.1C7.9,4.8,7.9,4.8,7.8,4.8L7.8,4.8z"/>
	</g>
	<g>
		<rect x="7.7" y="5.2" transform="matrix(-0.3421 -0.9397 0.9397 -0.3421 5.7672 14.5239)" class="st1" width="0.5" height="0.1"/>
	</g>
	<g>
		<path class="st1" d="M8,5.5L8,5.5c0.1,0,0.1,0,0.2,0c0,0,0,0,0,0c0,0,0,0,0,0c0,0,0,0,0,0c0,0,0,0,0,0c0,0.2-0.1,0.3-0.2,0.3
			c-0.1,0-0.3,0-0.3-0.1l-0.1,0C7.7,5.8,7.9,5.9,8,5.9c0.1,0,0.3-0.2,0.3-0.4c0-0.1,0-0.1,0-0.1l-0.1,0C8.1,5.3,8.1,5.4,8,5.5z"/>
	</g>
	<g>
		<path class="st1" d="M7.5,5.6L7.5,5.6L7.5,5.6C7.6,5.7,7.6,5.7,7.5,5.6C7.6,5.7,7.6,5.7,7.5,5.6l0.1,0L7.5,5.6L7.5,5.6z"/>
	</g>
	<g>
		<path class="st1" d="M6.2,5.3c0,0.1,0,0.2,0,0.3c0.1,0.1,0.2,0.1,0.2,0c0,0,0.1,0,0.1-0.1c0,0.1,0.1,0.1,0.1,0.2
			c0,0,0,0.1,0.1,0.1c0,0,0.1,0,0.1,0c0,0,0,0,0,0c0,0,0,0,0,0c0,0.1,0,0.1,0.1,0.2C7,6.2,7.1,6.3,7.3,6.3c0.2,0,0.4-0.1,0.4-0.3
			C8,6.2,8.3,6,8.5,5.8c0.2,0.1,0.3,0.1,0.4,0.1c0.1,0,0.2-0.1,0.3-0.2c0.2,0.1,0.3,0.2,0.5,0.1c0.2,0,0.3-0.2,0.4-0.3l-0.1,0
			c0,0.1-0.1,0.2-0.3,0.2c-0.1,0-0.3,0-0.4-0.1l-0.1,0C9.1,5.7,9,5.8,8.9,5.8c-0.1,0-0.3,0-0.4-0.1l-0.1,0C8.3,6,8,6.1,7.7,6L7.7,6
			C7.6,6.1,7.4,6.2,7.3,6.2C7.2,6.2,7,6.2,6.9,6.1C6.9,6,6.9,6,6.9,5.9c0,0,0,0,0,0c0,0,0,0,0.1-0.1l0,0c0,0,0,0,0,0l0-0.1
			c0,0,0,0,0,0l0,0c-0.1,0.1-0.1,0.1-0.2,0c0,0,0,0,0-0.1c0-0.1,0-0.2-0.1-0.3l-0.1,0c0,0,0,0.1,0,0.1c0,0-0.1,0-0.1,0
			C6.3,5.5,6.2,5.4,6.2,5.3c0.1,0,0.2-0.1,0.2-0.1c0.1,0,0.3,0.2,0.3,0.3l0.1,0l0,0c0-0.1,0-0.1,0-0.1C6.9,5.5,7,5.7,7.1,5.8
			c0,0-0.1,0-0.1,0.1c0,0,0,0,0,0c0,0,0,0.1,0,0.1c0,0.1,0.1,0.1,0.2,0.1c0.1,0,0.2-0.1,0.3-0.2c0-0.1,0.1-0.2,0-0.3l-0.1,0
			c0,0.1,0,0.1,0,0.2C7.5,6,7.4,6,7.3,6C7.2,6,7.2,6,7.1,6c0,0,0,0,0,0c0,0,0,0,0,0c0,0,0,0,0,0c0,0,0,0,0,0l0,0l0-0.1
			C7.1,5.7,6.9,5.4,6.9,5.3l-0.1,0c0,0,0,0.1,0,0.1C6.7,5.3,6.6,5.2,6.4,5.2C6.3,5.2,6.3,5.2,6.2,5.3z"/>
	</g>
	<g>
		<path class="st1" d="M10.3,4.6L10.3,4.6c0.1,0,0.1,0,0.1,0c0,0,0,0,0,0c0,0,0,0,0,0l0.1,0c0,0,0-0.1,0-0.1
			C10.4,4.5,10.4,4.6,10.3,4.6z"/>
	</g>
	<g>
		<rect x="10.4" y="4.6" class="st1" width="0.1" height="0.5"/>
	</g>
	<g>
		<path class="st1" d="M10.3,5.2c0.1,0,0.1,0.1,0.2,0c0,0,0,0,0-0.1h-0.1l0,0C10.4,5.2,10.4,5.2,10.3,5.2L10.3,5.2z"/>
	</g>
	<g>
		<rect x="10.3" y="4.6" class="st1" width="0.1" height="0.5"/>
	</g>
	<g>
		<path class="st8" d="M11.7,5.3c0.1-0.1,0-0.2-0.1-0.3c0.1,0,0.2,0,0.2-0.2c0,0.1,0,0.2,0.1,0.3C11.9,5.2,11.8,5.2,11.7,5.3"/>
		<path class="st1" d="M11.9,4.9L11.9,4.9C11.8,5,11.7,5,11.7,5l0,0.1l0,0c0,0,0.1,0.1,0.1,0.1c0,0,0,0,0,0.1v0c0,0,0,0,0,0
			c0,0,0,0,0,0c0,0,0,0,0,0c0,0,0,0,0,0h0c0-0.1,0.1-0.1,0.2-0.1l0,0l0-0.1c0,0-0.1-0.1-0.1-0.1C11.9,5,11.9,4.9,11.9,4.9L11.9,4.9
			C11.9,4.9,11.9,4.9,11.9,4.9L11.9,4.9C11.9,4.9,11.9,4.9,11.9,4.9z M11.8,5c0,0,0,0.1,0,0.1c0,0-0.1,0-0.1,0c0,0,0-0.1,0-0.1
			C11.8,5.1,11.8,5.1,11.8,5z"/>
	</g>
	<g>
		<path class="st1" d="M11.5,4.7C11.5,4.7,11.5,4.7,11.5,4.7L11.5,4.7L11.5,4.7c0,0.1,0,0.1,0.1,0.1l0.1-0.1
			C11.6,4.7,11.5,4.7,11.5,4.7z"/>
	</g>
	<g>
		
			<rect x="11.4" y="4.8" transform="matrix(-0.9396 -0.3422 0.3422 -0.9396 20.3855 13.5889)" class="st1" width="0.1" height="0.5"/>
	</g>
	<g>
		<path class="st1" d="M11.3,5.3c0,0,0.1,0,0.2,0l0-0.1C11.4,5.3,11.4,5.3,11.3,5.3C11.3,5.2,11.3,5.2,11.3,5.3L11.3,5.3
			C11.3,5.3,11.3,5.3,11.3,5.3z"/>
	</g>
	<g>
		
			<rect x="11.5" y="4.8" transform="matrix(-0.9392 -0.3433 0.3433 -0.9392 20.6132 13.7236)" class="st1" width="0.1" height="0.5"/>
	</g>
	<g>
		<path class="st1" d="M11.7,4.5c0,0,0,0.1,0,0.1l0.1,0c0,0,0,0,0,0C11.7,4.6,11.7,4.6,11.7,4.5C11.8,4.6,11.8,4.6,11.7,4.5
			L11.7,4.5C11.8,4.5,11.7,4.5,11.7,4.5z"/>
	</g>
	<g>
		
			<rect x="11.8" y="4.6" transform="matrix(-0.9396 -0.3422 0.3422 -0.9396 21.7057 13.0402)" class="st1" width="0.5" height="0.1"/>
	</g>
	<g>
		<path class="st1" d="M12.2,4.7L12.2,4.7C12.2,4.7,12.2,4.8,12.2,4.7l0,0.1C12.3,4.8,12.3,4.8,12.2,4.7C12.3,4.7,12.3,4.7,12.2,4.7
			L12.2,4.7z"/>
	</g>
	<g>
		
			<rect x="11.7" y="4.7" transform="matrix(-0.9398 -0.3418 0.3418 -0.9398 21.5816 13.2407)" class="st1" width="0.5" height="0.1"/>
	</g>
	<g>
		<path class="st1" d="M12.2,5L12.2,5C12.2,5,12.3,5,12.2,5C12.3,5,12.3,5.1,12.2,5l0.2,0.1c0,0,0-0.1,0-0.1C12.3,5,12.2,5,12.2,5z"
			/>
	</g>
	<g>
		
			<rect x="12.2" y="5.1" transform="matrix(-0.9398 -0.3418 0.3418 -0.9398 21.8822 14.446)" class="st1" width="0.1" height="0.5"/>
	</g>
	<g>
		<path class="st1" d="M12,5.5c0,0,0.1,0.1,0.1,0.1c0,0,0,0,0.1-0.1l-0.1,0l0,0C12.1,5.5,12.1,5.5,12,5.5L12,5.5z"/>
	</g>
	<g>
		<rect x="12" y="5" transform="matrix(-0.9381 -0.3464 0.3464 -0.9381 21.611 14.3489)" class="st1" width="0.1" height="0.5"/>
	</g>
	<g>
		<path class="st1" d="M13.2,5.3C13.1,5.3,13.1,5.3,13.2,5.3L13.2,5.3C13.2,5.3,13.2,5.3,13.2,5.3c0,0.1,0,0.1,0,0.1L13.2,5.3
			C13.2,5.3,13.2,5.3,13.2,5.3z"/>
	</g>
	<g>
		<rect x="13" y="5.3" transform="matrix(-0.8216 -0.57 0.57 -0.8216 20.5419 17.4551)" class="st1" width="0.1" height="0.5"/>
	</g>
	<g>
		<path class="st1" d="M13,5.7C13,5.7,12.9,5.7,13,5.7C12.9,5.8,12.9,5.8,13,5.7C12.9,5.8,12.9,5.8,13,5.7C12.9,5.8,12.9,5.7,13,5.7
			l-0.1,0c0,0,0,0.1,0,0.1c0,0,0,0.1,0.1,0.1l0,0l0,0L13,5.7l0.3-0.3l-0.1,0L13,5.7z"/>
	</g>
	<g>
		<path class="st8" d="M10,5.1c0-0.1,0.1-0.2,0.2-0.2c-0.1,0-0.2-0.1-0.2-0.2c0,0.1-0.1,0.2-0.2,0.2C9.9,4.9,10,4.9,10,5.1"/>
		<path class="st1" d="M10,4.6L10,4.6c0,0.1-0.1,0.2-0.1,0.2l0,0.1l0,0C9.9,4.9,10,5,10,5.1c0,0,0,0,0,0c0,0,0,0,0,0c0,0,0,0,0,0
			c0,0,0,0,0,0c0-0.1,0.1-0.1,0.1-0.2l0,0l0-0.1C10.1,4.8,10.1,4.7,10,4.6C10.1,4.6,10.1,4.6,10,4.6L10,4.6C10,4.6,10,4.6,10,4.6z
			 M10,4.8C10,4.8,10.1,4.8,10,4.8c0,0.1,0,0.1,0,0.2C10,4.9,10,4.9,10,4.8C10,4.8,10,4.8,10,4.8z"/>
	</g>
	<g>
		<path class="st1" d="M10.3,4.3L10.3,4.3C10.3,4.3,10.3,4.4,10.3,4.3l0.1,0.1C10.4,4.4,10.4,4.3,10.3,4.3
			C10.3,4.3,10.3,4.3,10.3,4.3L10.3,4.3z"/>
	</g>
	<g>
		<rect x="9.8" y="4.3" class="st1" width="0.5" height="0.1"/>
	</g>
	<g>
		<path class="st1" d="M9.7,4.3c0,0,0,0.1,0,0.1l0.1,0C9.8,4.4,9.8,4.4,9.7,4.3C9.8,4.3,9.8,4.3,9.7,4.3C9.8,4.3,9.8,4.3,9.7,4.3
			L9.7,4.3C9.7,4.3,9.7,4.3,9.7,4.3z"/>
	</g>
	<g>
		<rect x="9.8" y="4.4" class="st1" width="0.5" height="0.1"/>
	</g>
	<g>
		<path class="st1" d="M9.6,4.6C9.6,4.6,9.5,4.6,9.6,4.6L9.6,4.6L9.6,4.6c0,0.1,0.1,0.1,0.1,0.1l0-0.1C9.7,4.6,9.6,4.5,9.6,4.6z"/>
	</g>
	<g>
		<rect x="9.5" y="4.6" class="st1" width="0.1" height="0.5"/>
	</g>
	<g>
		<path class="st1" d="M9.6,5.2C9.6,5.2,9.6,5.2,9.6,5.2C9.6,5.2,9.6,5.2,9.6,5.2L9.6,5.2C9.5,5.2,9.6,5.2,9.6,5.2
			c0,0.1,0.1,0.1,0.1,0L9.6,5.2C9.7,5.2,9.6,5.2,9.6,5.2z"/>
	</g>
	<g>
		<rect x="9.7" y="4.6" class="st1" width="0.1" height="0.5"/>
	</g>
	<g>
		<path class="st8" d="M8.3,5.3c-0.1-0.1,0-0.2,0.1-0.3c-0.1,0-0.2,0-0.2-0.2c0,0.1,0,0.2-0.1,0.3C8.2,5.2,8.3,5.2,8.3,5.3"/>
		<path class="st1" d="M8.1,4.9C8.1,4.9,8.1,4.9,8.1,4.9L8.1,4.9C8.1,4.9,8.1,5,8.1,4.9c0,0.1,0,0.2-0.1,0.2l0,0.1l0,0
			c0.1,0,0.1,0,0.2,0.1l0,0c0,0,0,0,0,0c0,0,0,0,0,0c0,0,0,0,0,0c0,0,0,0,0,0l0,0c0,0,0-0.1,0-0.1c0-0.1,0-0.1,0.1-0.1l0,0l0-0.1
			C8.3,5,8.2,5,8.1,4.9L8.1,4.9C8.2,4.9,8.2,4.9,8.1,4.9L8.1,4.9z M8.2,5c0,0,0.1,0,0.1,0.1c0,0,0,0.1,0,0.1c0,0-0.1,0-0.1,0
			C8.2,5.1,8.2,5.1,8.2,5z"/>
	</g>
	<g>
		<path class="st1" d="M8.4,4.8L8.4,4.8c0.1,0,0.1,0,0.1,0c0,0,0,0,0,0c0,0,0,0,0,0l0.1,0c0,0,0-0.1-0.1-0.1
			C8.5,4.7,8.5,4.7,8.4,4.8z"/>
	</g>
	<g>
		<rect x="8.4" y="5" transform="matrix(-0.3419 -0.9397 0.9397 -0.3419 6.9313 14.8462)" class="st1" width="0.5" height="0.1"/>
	</g>
	<g>
		<path class="st1" d="M8.7,5.2L8.7,5.2C8.7,5.3,8.7,5.3,8.7,5.2L8.7,5.2C8.7,5.3,8.7,5.3,8.7,5.2C8.8,5.3,8.8,5.3,8.7,5.2L8.7,5.2z
			"/>
	</g>
	<g>
		<rect x="8.3" y="5" transform="matrix(-0.3423 -0.9396 0.9396 -0.3423 6.7235 14.7803)" class="st1" width="0.5" height="0.1"/>
	</g>
	<g>
		<path class="st1" d="M8.3,4.5L8.3,4.5L8.3,4.5c0,0.1,0,0.1,0,0.1l0.1,0C8.4,4.6,8.4,4.5,8.3,4.5C8.3,4.5,8.3,4.5,8.3,4.5z"/>
	</g>
	<g>
		<rect x="8" y="4.4" transform="matrix(-0.3446 -0.9387 0.9387 -0.3446 6.5048 13.7517)" class="st1" width="0.1" height="0.5"/>
	</g>
	<g>
		<path class="st1" d="M7.8,4.7c0,0,0,0.1,0.1,0.1l0.1-0.1C7.9,4.8,7.8,4.7,7.8,4.7C7.8,4.7,7.8,4.7,7.8,4.7L7.8,4.7
			C7.8,4.7,7.8,4.7,7.8,4.7z"/>
	</g>
	<g>
		<rect x="8.1" y="4.5" transform="matrix(-0.3396 -0.9406 0.9406 -0.3396 6.4105 13.9388)" class="st1" width="0.1" height="0.5"/>
	</g>
	<g>
		<path class="st1" d="M7.7,5C7.7,5,7.7,5,7.7,5L7.7,5L7.7,5c0.1,0,0.1,0,0.1,0l0-0.1C7.8,5,7.8,5,7.7,5z"/>
	</g>
	<g>
		<rect x="7.6" y="5.3" transform="matrix(-0.3425 -0.9395 0.9395 -0.3425 5.553 14.4768)" class="st1" width="0.5" height="0.1"/>
	</g>
	<g>
		<path class="st1" d="M8,5.5C8,5.5,8,5.5,8,5.5L8,5.5C7.9,5.6,7.9,5.6,8,5.5c0,0.1,0.1,0,0.1,0L8,5.5C8,5.5,8,5.5,8,5.5z"/>
	</g>
	<g>
		<rect x="7.7" y="5.2" transform="matrix(-0.3421 -0.9397 0.9397 -0.3421 5.7672 14.5239)" class="st1" width="0.5" height="0.1"/>
	</g>
	<g>
		<path class="st1" d="M6.8,5.3L6.8,5.3C6.9,5.3,6.9,5.3,6.8,5.3C6.9,5.3,6.9,5.3,6.8,5.3l0.1,0C6.9,5.3,6.9,5.3,6.8,5.3
			C6.9,5.3,6.8,5.3,6.8,5.3z"/>
	</g>
	<g>
		<rect x="6.8" y="5.5" transform="matrix(-0.5677 -0.8232 0.8232 -0.5677 6.5208 14.4512)" class="st1" width="0.5" height="0.1"/>
	</g>
	<g>
		<path class="st1" d="M6.8,5.4L7,5.7l0.1,0.2l0,0l0,0c0,0,0.1,0,0.1-0.1c0,0,0-0.1,0-0.1l-0.1,0c0,0,0,0,0,0c0,0,0,0,0,0
			c0,0,0,0,0,0c0,0-0.1-0.1-0.1-0.1L6.8,5.4L6.8,5.4z"/>
	</g>
	<g>
		<path class="st0" d="M11,5.1c0.1,0,0.2,0,0.2,0.1c0,0.1-0.1,0.1-0.2,0.1c-0.1,0-0.1,0-0.1-0.1c-0.1,0.1-0.3,0.1-0.3-0.1
			c0-0.1,0.2-0.1,0.2-0.1c-0.1-0.1,0-0.2,0.1-0.2C11.1,4.8,11.1,5,11,5.1L11,5.1z"/>
		<path class="st1" d="M10.8,4.9C10.8,4.9,10.8,4.9,10.8,4.9C10.8,5,10.8,5,10.8,4.9C10.7,5,10.7,5,10.7,5c-0.1,0-0.1,0.1-0.1,0.1
			c0,0.1,0,0.1,0.1,0.1c0.1,0,0.2,0,0.2,0c0,0,0.1,0.1,0.1,0.1c0,0,0.1,0,0.1,0c0,0,0.1-0.1,0.1-0.1c0,0,0,0,0,0c0,0,0-0.1-0.1-0.1
			c0,0-0.1,0-0.1,0c0,0,0,0,0-0.1c0,0,0,0,0-0.1c0-0.1-0.1-0.1-0.1-0.1C10.9,4.8,10.8,4.8,10.8,4.9z M10.9,5c0,0,0-0.1,0-0.1
			c0,0,0-0.1,0.1-0.1c0,0,0.1,0,0.1,0C11,5,11,5,10.9,5L11,5.1c0,0,0.1,0,0.1,0c0,0,0,0,0,0.1c0,0,0,0,0,0.1c0,0,0,0-0.1,0
			c0,0-0.1,0-0.1-0.1l-0.1,0c0,0-0.1,0.1-0.2,0c0,0,0,0,0-0.1c0,0,0-0.1,0-0.1C10.7,5.1,10.8,5.1,10.9,5L10.9,5z"/>
	</g>
	<g>
		<path class="st0" d="M12.6,5.6c0.1,0,0.2,0.1,0.2,0.2c0,0.1-0.1,0.1-0.2,0c0,0-0.1-0.1-0.1-0.1c-0.1,0-0.3,0-0.2-0.2
			c0-0.1,0.2-0.1,0.2,0c0-0.1,0.1-0.2,0.2-0.2C12.8,5.4,12.7,5.6,12.6,5.6L12.6,5.6z"/>
		<path class="st1" d="M12.5,5.4C12.5,5.4,12.4,5.4,12.5,5.4c-0.1,0.1-0.1,0.1-0.1,0.1c-0.1,0-0.1,0-0.1,0.1c0,0.1,0,0.1,0,0.2
			c0.1,0.1,0.2,0.1,0.2,0.1c0,0.1,0,0.1,0.1,0.1c0,0,0.1,0,0.1,0c0,0,0.1,0,0.1-0.1c0,0,0,0,0-0.1c0,0,0-0.1,0-0.1
			c0,0-0.1-0.1-0.1-0.1c0,0,0-0.1,0-0.1c0,0,0,0,0,0c0-0.1,0-0.1-0.1-0.1C12.6,5.3,12.5,5.3,12.5,5.4z M12.5,5.5c0,0,0-0.1,0-0.1
			c0,0,0.1,0,0.1,0c0,0,0,0,0,0.1C12.7,5.5,12.6,5.5,12.5,5.5l0.1,0.1c0,0,0.1,0,0.1,0.1c0,0,0,0,0,0.1c0,0,0,0-0.1,0c0,0,0,0-0.1,0
			c0,0-0.1,0-0.1-0.1l-0.1,0c0,0-0.1,0-0.2,0c0,0,0,0,0-0.1c0,0,0,0,0.1,0C12.4,5.5,12.4,5.5,12.5,5.5L12.5,5.5z"/>
	</g>
	<g>
		<path class="st0" d="M10,2.6c-0.1,0-0.3,0.1-0.3,0.3C9.8,3,9.9,3.1,10,3.1c0.1,0,0.3-0.1,0.3-0.3C10.3,2.7,10.2,2.6,10,2.6L10,2.6
			z"/>
		<path class="st1" d="M9.7,2.8C9.7,3,9.9,3.1,10,3.1c0.2,0,0.3-0.1,0.3-0.3c0-0.2-0.1-0.3-0.3-0.3C9.9,2.5,9.7,2.7,9.7,2.8z
			 M9.8,2.8c0-0.1,0.1-0.2,0.2-0.2c0.1,0,0.2,0.1,0.2,0.2c0,0.1-0.1,0.2-0.2,0.2C9.9,3.1,9.8,3,9.8,2.8z"/>
	</g>
	<g>
		<path class="st0" d="M9.9,2.7C9.9,2.7,9.9,2.7,9.9,2.7c-0.1,0.2,0,0.2,0.1,0.2c0.1,0,0.2-0.1,0.2-0.1c0,0,0-0.1-0.1-0.1l0,0V2.4
			h0.2V2.3h-0.2V2.2H10H9.9v0.1H9.8v0.1h0.2V2.7L9.9,2.7z"/>
		<path class="st1" d="M10.1,2.1H9.9c0,0,0,0.1,0,0.1c0,0-0.2,0-0.2,0v0.2c0,0,0.1,0,0.2,0c0,0.1,0,0.2,0,0.2c0,0-0.1,0.1-0.1,0.1
			c0,0.1,0.1,0.2,0.2,0.2c0.1,0,0.2-0.1,0.2-0.2c0,0,0-0.1-0.1-0.1c0,0,0-0.2,0-0.2c0,0,0.2,0,0.2,0V2.2c0,0-0.1,0-0.2,0
			C10.2,2.2,10.2,2.1,10.1,2.1L10.1,2.1z M10,2.2C10,2.2,10.1,2.2,10,2.2c0.1,0,0.1,0.1,0.1,0.1s0.1,0,0.2,0c0,0,0,0,0,0
			c0,0-0.2,0-0.2,0v0.3l0,0c0,0,0,0,0,0.1c0,0-0.1,0.1-0.1,0.1c-0.1,0-0.1,0-0.1-0.1c0,0,0,0,0-0.1l0,0V2.4c0,0-0.1,0-0.2,0
			c0,0,0,0,0,0c0,0,0.2,0,0.2,0S10,2.2,10,2.2C10,2.2,10,2.2,10,2.2z"/>
	</g>
	<g>
		<path class="st5" d="M11.9,6.4c-0.1,0-0.2,0.1-0.2,0.2c0,0.1,0.1,0.2,0.2,0.2c0.1,0,0.2-0.1,0.2-0.2C12,6.5,11.9,6.4,11.9,6.4
			L11.9,6.4z"/>
		<path class="st1" d="M11.7,6.6c0,0.1,0.1,0.2,0.2,0.2c0.1,0,0.2-0.1,0.2-0.2c0-0.1-0.1-0.2-0.2-0.2C11.8,6.4,11.7,6.5,11.7,6.6z
			 M11.7,6.6c0-0.1,0.1-0.1,0.1-0.1c0.1,0,0.1,0.1,0.1,0.1c0,0.1-0.1,0.1-0.1,0.1C11.8,6.7,11.7,6.6,11.7,6.6z"/>
	</g>
	<g>
		<path class="st9" d="M12.5,6.6l0.1,0.2l-0.3,0.1l-0.2-0.3L12.5,6.6L12.5,6.6z"/>
		<path class="st1" d="M12.5,6.6l-0.3,0l0,0.1L12.3,7l0.3-0.1l0-0.1L12.5,6.6L12.5,6.6z M12.5,6.7c0,0,0.1,0.1,0.1,0.2
			c-0.1,0-0.2,0-0.2,0c0,0-0.1-0.1-0.1-0.2C12.3,6.7,12.4,6.7,12.5,6.7z"/>
	</g>
	<g>
		<path class="st5" d="M11.9,6.4c-0.1,0-0.2,0.1-0.2,0.2c0,0.1,0.1,0.2,0.2,0.2c0.1,0,0.2-0.1,0.2-0.2C12,6.5,11.9,6.4,11.9,6.4
			L11.9,6.4z"/>
		<path class="st1" d="M11.7,6.6c0,0.1,0.1,0.2,0.2,0.2c0.1,0,0.2-0.1,0.2-0.2c0-0.1-0.1-0.2-0.2-0.2C11.8,6.4,11.7,6.5,11.7,6.6z
			 M11.7,6.6c0-0.1,0.1-0.1,0.1-0.1c0.1,0,0.1,0.1,0.1,0.1c0,0.1-0.1,0.1-0.1,0.1C11.8,6.7,11.7,6.6,11.7,6.6z"/>
	</g>
	<g>
		<path class="st3" d="M12.5,6.6l0.1,0.2l-0.3,0.1l-0.2-0.3L12.5,6.6L12.5,6.6z"/>
		<path class="st1" d="M12.5,6.6l-0.3,0l0,0.1L12.3,7l0.3-0.1l0-0.1L12.5,6.6L12.5,6.6z M12.5,6.7c0,0,0.1,0.1,0.1,0.2
			c-0.1,0-0.2,0-0.2,0c0,0-0.1-0.1-0.1-0.2C12.3,6.7,12.4,6.7,12.5,6.7z"/>
	</g>
	<g>
		<path class="st5" d="M9.4,6.2c0.1,0,0.2,0.1,0.2,0.2c0,0.1-0.1,0.2-0.2,0.2c-0.1,0-0.2-0.1-0.2-0.2C9.3,6.2,9.4,6.2,9.4,6.2
			L9.4,6.2z"/>
		<path class="st1" d="M9.2,6.3c0,0.1,0.1,0.2,0.2,0.2c0.1,0,0.2-0.1,0.2-0.2c0-0.1-0.1-0.2-0.2-0.2C9.3,6.1,9.2,6.2,9.2,6.3z
			 M9.3,6.3c0-0.1,0.1-0.1,0.1-0.1c0.1,0,0.1,0.1,0.1,0.1c0,0.1-0.1,0.1-0.1,0.1C9.4,6.4,9.3,6.4,9.3,6.3z"/>
	</g>
	<g>
		<path class="st10" d="M8.9,6.2L8.6,6.3l0,0c-0.1,0-0.2,0.1-0.1,0.2l0,0l0,0c0,0.1,0.1,0.2,0.2,0.1l0,0L9,6.6l0,0
			c0.1,0,0.2-0.1,0.1-0.2l0,0l0,0C9.1,6.3,9,6.2,8.9,6.2L8.9,6.2z"/>
		<path class="st1" d="M8.9,6.2L8.6,6.2c-0.1,0-0.1,0-0.1,0.1c0,0,0,0.1,0,0.2c0,0.1,0.1,0.2,0.3,0.2L9,6.6c0.1,0,0.1,0,0.1-0.1
			c0,0,0-0.1,0-0.2C9.2,6.2,9,6.2,8.9,6.2z M9.1,6.4C9.1,6.4,9.1,6.4,9.1,6.4C9.1,6.5,9,6.5,9,6.5L8.7,6.6c-0.1,0-0.2,0-0.2-0.1
			c0,0,0,0,0,0c0,0,0,0,0-0.1c0,0,0.1-0.1,0.1-0.1l0.3-0.1C9,6.2,9.1,6.3,9.1,6.4z"/>
	</g>
	<g>
		<path class="st5" d="M10.6,6.2c-0.1,0-0.2,0.1-0.2,0.2c0,0.1,0.1,0.2,0.2,0.2c0.1,0,0.2-0.1,0.2-0.2C10.8,6.2,10.7,6.2,10.6,6.2
			L10.6,6.2z"/>
		<path class="st1" d="M10.4,6.3c0,0.1,0.1,0.2,0.2,0.2s0.2-0.1,0.2-0.2c0-0.1-0.1-0.2-0.2-0.2S10.4,6.2,10.4,6.3z M10.5,6.3
			c0-0.1,0.1-0.1,0.1-0.1c0.1,0,0.1,0.1,0.1,0.1c0,0.1-0.1,0.1-0.1,0.1C10.6,6.4,10.5,6.4,10.5,6.3z"/>
	</g>
	<g>
		<path class="st10" d="M11.1,6.2l0.3,0.1l0,0c0.1,0,0.2,0.1,0.1,0.2l0,0l0,0c0,0.1-0.1,0.2-0.2,0.1l0,0L11,6.5l0,0
			c-0.1,0-0.2-0.1-0.1-0.2l0,0l0,0C10.9,6.3,11,6.2,11.1,6.2L11.1,6.2z"/>
		<path class="st1" d="M10.9,6.3c0,0.1,0,0.1,0,0.2c0,0,0.1,0.1,0.1,0.1l0.3,0.1c0.1,0,0.2,0,0.3-0.2c0,0,0,0,0,0c0,0,0-0.1,0-0.1
			c0,0-0.1-0.1-0.1-0.1l-0.3-0.1C11,6.2,10.9,6.2,10.9,6.3z M11.4,6.6l-0.3-0.1c0,0-0.1,0-0.1-0.1c0,0,0-0.1,0-0.1
			c0-0.1,0.1-0.1,0.2-0.1l0.3,0.1c0,0,0.1,0,0.1,0.1c0,0,0,0.1,0,0.1C11.5,6.5,11.4,6.6,11.4,6.6z M11.1,6.2L11.1,6.2L11.1,6.2
			L11.1,6.2z"/>
	</g>
	<g>
		<path class="st9" d="M10.3,6.3L10,6.5L9.7,6.3L10,6.1L10.3,6.3L10.3,6.3z"/>
		<path class="st1" d="M10,6.1L9.7,6.3l0,0.1L10,6.5l0.3-0.2l0-0.1L10,6.1L10,6.1z M10,6.2c0,0,0.2,0.1,0.2,0.1
			c-0.1,0-0.2,0.1-0.2,0.1c0,0-0.2-0.1-0.2-0.1C9.9,6.3,10,6.2,10,6.2z"/>
	</g>
	<g>
		<path class="st5" d="M9.4,6.2c0.1,0,0.2,0.1,0.2,0.2c0,0.1-0.1,0.2-0.2,0.2c-0.1,0-0.2-0.1-0.2-0.2C9.3,6.2,9.4,6.2,9.4,6.2
			L9.4,6.2z"/>
		<path class="st1" d="M9.2,6.3c0,0.1,0.1,0.2,0.2,0.2c0.1,0,0.2-0.1,0.2-0.2c0-0.1-0.1-0.2-0.2-0.2C9.3,6.1,9.2,6.2,9.2,6.3z
			 M9.3,6.3c0-0.1,0.1-0.1,0.1-0.1c0.1,0,0.1,0.1,0.1,0.1c0,0.1-0.1,0.1-0.1,0.1C9.4,6.4,9.3,6.4,9.3,6.3z"/>
	</g>
	<g>
		<path class="st10" d="M8.9,6.2L8.6,6.3l0,0c-0.1,0-0.2,0.1-0.1,0.2l0,0l0,0c0,0.1,0.1,0.2,0.2,0.1l0,0L9,6.6l0,0
			c0.1,0,0.2-0.1,0.1-0.2l0,0l0,0C9.1,6.3,9,6.2,8.9,6.2L8.9,6.2z"/>
		<path class="st1" d="M8.9,6.2L8.6,6.2c-0.1,0-0.1,0-0.1,0.1c0,0,0,0.1,0,0.2c0,0.1,0.1,0.2,0.3,0.2L9,6.6c0.1,0,0.1,0,0.1-0.1
			c0,0,0-0.1,0-0.2C9.2,6.2,9,6.2,8.9,6.2z M9.1,6.4C9.1,6.4,9.1,6.4,9.1,6.4C9.1,6.5,9,6.5,9,6.5L8.7,6.6c-0.1,0-0.2,0-0.2-0.1
			c0,0,0,0,0,0c0,0,0,0,0-0.1c0,0,0.1-0.1,0.1-0.1l0.3-0.1C9,6.2,9.1,6.3,9.1,6.4z"/>
	</g>
	<g>
		<path class="st5" d="M10.6,6.2c-0.1,0-0.2,0.1-0.2,0.2c0,0.1,0.1,0.2,0.2,0.2c0.1,0,0.2-0.1,0.2-0.2C10.8,6.2,10.7,6.2,10.6,6.2
			L10.6,6.2z"/>
		<path class="st1" d="M10.4,6.3c0,0.1,0.1,0.2,0.2,0.2s0.2-0.1,0.2-0.2c0-0.1-0.1-0.2-0.2-0.2S10.4,6.2,10.4,6.3z M10.5,6.3
			c0-0.1,0.1-0.1,0.1-0.1c0.1,0,0.1,0.1,0.1,0.1c0,0.1-0.1,0.1-0.1,0.1C10.6,6.4,10.5,6.4,10.5,6.3z"/>
	</g>
	<g>
		<path class="st10" d="M11.1,6.2l0.3,0.1l0,0c0.1,0,0.2,0.1,0.1,0.2l0,0l0,0c0,0.1-0.1,0.2-0.2,0.1l0,0L11,6.5l0,0
			c-0.1,0-0.2-0.1-0.1-0.2l0,0l0,0C10.9,6.3,11,6.2,11.1,6.2L11.1,6.2z"/>
		<path class="st1" d="M10.9,6.3c0,0.1,0,0.1,0,0.2c0,0,0.1,0.1,0.1,0.1l0.3,0.1c0.1,0,0.2,0,0.3-0.2c0,0,0,0,0,0c0,0,0-0.1,0-0.1
			c0,0-0.1-0.1-0.1-0.1l-0.3-0.1C11,6.2,10.9,6.2,10.9,6.3z M11.4,6.6l-0.3-0.1c0,0-0.1,0-0.1-0.1c0,0,0-0.1,0-0.1
			c0-0.1,0.1-0.1,0.2-0.1l0.3,0.1c0,0,0.1,0,0.1,0.1c0,0,0,0.1,0,0.1C11.5,6.5,11.4,6.6,11.4,6.6z M11.1,6.2L11.1,6.2L11.1,6.2
			L11.1,6.2z"/>
	</g>
	<g>
		<path class="st3" d="M10.3,6.3L10,6.5L9.7,6.3L10,6.1L10.3,6.3L10.3,6.3z"/>
		<path class="st1" d="M10,6.1L9.7,6.3l0,0.1L10,6.5l0.3-0.2l0-0.1L10,6.1L10,6.1z M10,6.2c0,0,0.2,0.1,0.2,0.1
			c-0.1,0-0.2,0.1-0.2,0.1c0,0-0.2-0.1-0.2-0.1C9.9,6.3,10,6.2,10,6.2z"/>
	</g>
	<g>
		<path class="st5" d="M8.2,6.4c0.1,0,0.2,0.1,0.2,0.2c0,0.1-0.1,0.2-0.2,0.2C8.1,6.7,8,6.7,8,6.6C8,6.5,8.1,6.4,8.2,6.4L8.2,6.4z"
			/>
		<path class="st1" d="M8,6.6c0,0.1,0.1,0.2,0.2,0.2c0.1,0,0.2-0.1,0.2-0.2c0-0.1-0.1-0.2-0.2-0.2C8.1,6.4,8,6.5,8,6.6z M8.1,6.6
			c0-0.1,0.1-0.1,0.1-0.1c0.1,0,0.1,0.1,0.1,0.1c0,0.1-0.1,0.1-0.1,0.1C8.1,6.7,8.1,6.6,8.1,6.6z"/>
	</g>
	<g>
		<path class="st9" d="M7.6,6.6L7.5,6.9l0.3,0.1l0.2-0.3L7.6,6.6L7.6,6.6z"/>
		<path class="st1" d="M7.5,6.6L7.4,6.9l0,0.1L7.7,7l0.2-0.3l0-0.1L7.5,6.6L7.5,6.6z M7.6,6.7c0,0,0.2,0,0.2,0
			c0,0.1-0.1,0.2-0.1,0.2c0,0-0.1,0-0.2,0C7.5,6.8,7.6,6.7,7.6,6.7z"/>
	</g>
	<g>
		<path class="st5" d="M8.2,6.4c0.1,0,0.2,0.1,0.2,0.2c0,0.1-0.1,0.2-0.2,0.2C8.1,6.7,8,6.7,8,6.6C8,6.5,8.1,6.4,8.2,6.4L8.2,6.4z"
			/>
		<path class="st1" d="M8,6.6c0,0.1,0.1,0.2,0.2,0.2c0.1,0,0.2-0.1,0.2-0.2c0-0.1-0.1-0.2-0.2-0.2C8.1,6.4,8,6.5,8,6.6z M8.1,6.6
			c0-0.1,0.1-0.1,0.1-0.1c0.1,0,0.1,0.1,0.1,0.1c0,0.1-0.1,0.1-0.1,0.1C8.1,6.7,8.1,6.6,8.1,6.6z"/>
	</g>
	<g>
		<path class="st3" d="M7.6,6.6L7.5,6.9l0.3,0.1l0.2-0.3L7.6,6.6L7.6,6.6z"/>
		<path class="st1" d="M7.5,6.6L7.4,6.9l0,0.1L7.7,7l0.2-0.3l0-0.1L7.5,6.6L7.5,6.6z M7.6,6.7c0,0,0.2,0,0.2,0
			c0,0.1-0.1,0.2-0.1,0.2c0,0-0.1,0-0.2,0C7.5,6.8,7.6,6.7,7.6,6.7z"/>
	</g>
	<g>
		<path class="st5" d="M6.2,4.9C6.3,4.9,6.4,5,6.4,5c0,0.1-0.1,0.1-0.1,0.1C6.1,5.2,6.1,5.1,6.1,5C6.1,5,6.1,4.9,6.2,4.9L6.2,4.9z
			 M6.2,4.6c0.1,0,0.1,0.1,0.1,0.1c0,0.1-0.1,0.1-0.1,0.1c-0.1,0-0.1-0.1-0.1-0.1C6.1,4.6,6.1,4.6,6.2,4.6L6.2,4.6z M6.3,4.2
			c0.1,0,0.1,0.1,0.1,0.1c0,0.1-0.1,0.1-0.1,0.1c-0.1,0-0.1-0.1-0.1-0.1C6.2,4.3,6.2,4.2,6.3,4.2L6.3,4.2z M6.5,4
			C6.6,4,6.6,4,6.6,4.1c0,0.1-0.1,0.1-0.1,0.1c-0.1,0-0.1-0.1-0.1-0.1C6.4,4,6.4,4,6.5,4L6.5,4z M6.7,3.7c0.1,0,0.1,0.1,0.1,0.1
			C6.9,4,6.8,4,6.7,4C6.6,4,6.6,4,6.6,3.9C6.6,3.8,6.6,3.7,6.7,3.7L6.7,3.7z M7.5,3.4c0.1,0,0.1,0.1,0.1,0.1c0,0.1-0.1,0.1-0.1,0.1
			c-0.1,0-0.1-0.1-0.1-0.1C7.4,3.4,7.5,3.4,7.5,3.4L7.5,3.4z M7,3.6c0.1,0,0.1,0.1,0.1,0.1c0,0.1-0.1,0.1-0.1,0.1
			c-0.1,0-0.1-0.1-0.1-0.1C6.9,3.7,6.9,3.6,7,3.6L7,3.6z M7.3,3.5c0.1,0,0.1,0.1,0.1,0.1c0,0.1-0.1,0.1-0.1,0.1
			c-0.1,0-0.1-0.1-0.1-0.1C7.1,3.5,7.2,3.5,7.3,3.5L7.3,3.5z M7.8,3.3c0.1,0,0.1,0.1,0.1,0.1c0,0.1-0.1,0.1-0.1,0.1
			c-0.1,0-0.1-0.1-0.1-0.1C7.7,3.4,7.7,3.3,7.8,3.3L7.8,3.3z M9.6,2.7c0.1,0,0.1,0.1,0.1,0.1C9.7,2.9,9.7,3,9.6,3
			C9.5,3,9.5,2.9,9.5,2.8C9.5,2.8,9.5,2.7,9.6,2.7L9.6,2.7z M9.3,2.8c0.1,0,0.1,0.1,0.1,0.1c0,0.1-0.1,0.1-0.1,0.1
			C9.2,3.1,9.2,3,9.2,2.9C9.2,2.8,9.2,2.8,9.3,2.8L9.3,2.8z M9,2.9c0.1,0,0.1,0.1,0.1,0.1c0,0.1-0.1,0.1-0.1,0.1
			C8.9,3.2,8.9,3.1,8.9,3C8.9,2.9,8.9,2.9,9,2.9L9,2.9z M8.7,3C8.8,3,8.8,3,8.8,3.1c0,0.1-0.1,0.1-0.1,0.1c-0.1,0-0.1-0.1-0.1-0.1
			C8.5,3,8.6,3,8.7,3L8.7,3z M8.4,3.1c0.1,0,0.1,0.1,0.1,0.1c0,0.1-0.1,0.1-0.1,0.1c-0.1,0-0.1-0.1-0.1-0.1C8.2,3.2,8.3,3.1,8.4,3.1
			L8.4,3.1z M8.1,3.3c0.1,0,0.1,0.1,0.1,0.1c0,0.1-0.1,0.1-0.1,0.1C8.1,3.6,8,3.6,8,3.5C8,3.4,8.1,3.3,8.1,3.3L8.1,3.3z M8,3.6
			c0.1,0,0.2,0.1,0.2,0.2c0,0.1-0.1,0.2-0.2,0.2c-0.1,0-0.2-0.1-0.2-0.2C7.8,3.7,7.9,3.6,8,3.6L8,3.6z M7.9,3.9C7.9,3.9,8,4,8,4.1
			c0,0.1-0.1,0.2-0.2,0.2c-0.1,0-0.2-0.1-0.2-0.2C7.7,4,7.8,3.9,7.9,3.9L7.9,3.9z M10,3.9C9.9,3.9,9.9,4,9.9,4.1
			c0,0.1,0.1,0.2,0.2,0.2c0.1,0,0.2-0.1,0.2-0.2C10.2,4,10.1,3.9,10,3.9L10,3.9z M10,3.6c-0.1,0-0.1,0.1-0.1,0.1
			c0,0.1,0.1,0.1,0.1,0.1c0.1,0,0.1-0.1,0.1-0.1C10.2,3.7,10.1,3.6,10,3.6L10,3.6z M10,3.3c-0.1,0-0.1,0.1-0.1,0.1
			c0,0.1,0.1,0.1,0.1,0.1c0.1,0,0.1-0.1,0.1-0.1C10.2,3.4,10.1,3.3,10,3.3L10,3.3z M10,3.1c-0.1,0-0.1,0-0.1,0.1
			c0,0.1,0,0.1,0.1,0.1c0.1,0,0.1,0,0.1-0.1C10.1,3.1,10.1,3.1,10,3.1L10,3.1z M10.4,2.7c-0.1,0-0.1,0.1-0.1,0.1
			c0,0.1,0.1,0.1,0.1,0.1c0.1,0,0.1-0.1,0.1-0.1C10.6,2.8,10.5,2.7,10.4,2.7L10.4,2.7z M10.7,2.8c-0.1,0-0.1,0.1-0.1,0.1
			c0,0.1,0.1,0.1,0.1,0.1c0.1,0,0.1-0.1,0.1-0.1C10.9,2.8,10.8,2.8,10.7,2.8L10.7,2.8z M11,2.9c-0.1,0-0.1,0.1-0.1,0.1
			c0,0.1,0.1,0.1,0.1,0.1c0.1,0,0.1-0.1,0.1-0.1C11.2,2.9,11.1,2.9,11,2.9L11,2.9z M11.4,3c-0.1,0-0.1,0.1-0.1,0.1
			c0,0.1,0.1,0.1,0.1,0.1c0.1,0,0.1-0.1,0.1-0.1C11.5,3,11.4,3,11.4,3L11.4,3z M11.7,3.1c-0.1,0-0.1,0.1-0.1,0.1
			c0,0.1,0.1,0.1,0.1,0.1c0.1,0,0.1-0.1,0.1-0.1C11.8,3.2,11.7,3.1,11.7,3.1L11.7,3.1z M11.9,3.3c-0.1,0-0.1,0.1-0.1,0.1
			c0,0.1,0.1,0.1,0.1,0.1c0.1,0,0.1-0.1,0.1-0.1C12.1,3.4,12,3.3,11.9,3.3L11.9,3.3z M12.1,3.6c-0.1,0-0.2,0.1-0.2,0.2
			c0,0.1,0.1,0.2,0.2,0.2c0.1,0,0.2-0.1,0.2-0.2C12.2,3.7,12.2,3.6,12.1,3.6L12.1,3.6z M12.2,3.9C12.1,3.9,12,4,12,4.1
			c0,0.1,0.1,0.2,0.2,0.2c0.1,0,0.2-0.1,0.2-0.2C12.4,4,12.3,3.9,12.2,3.9L12.2,3.9z M12.2,4.3c-0.1,0-0.2,0.1-0.2,0.2
			c0,0.1,0.1,0.2,0.2,0.2c0.1,0,0.2-0.1,0.2-0.2C12.4,4.4,12.3,4.3,12.2,4.3L12.2,4.3z M7.8,4.3C7.9,4.3,8,4.4,8,4.4
			c0,0.1-0.1,0.2-0.2,0.2c-0.1,0-0.2-0.1-0.2-0.2C7.6,4.4,7.7,4.3,7.8,4.3L7.8,4.3z M12.2,3.3c-0.1,0-0.1,0.1-0.1,0.1
			c0,0.1,0.1,0.1,0.1,0.1c0.1,0,0.1-0.1,0.1-0.1C12.4,3.4,12.3,3.3,12.2,3.3L12.2,3.3z M12.5,3.4c-0.1,0-0.1,0.1-0.1,0.1
			c0,0.1,0.1,0.1,0.1,0.1c0.1,0,0.1-0.1,0.1-0.1C12.7,3.4,12.6,3.4,12.5,3.4L12.5,3.4z M12.8,3.5c-0.1,0-0.1,0.1-0.1,0.1
			c0,0.1,0.1,0.1,0.1,0.1c0.1,0,0.1-0.1,0.1-0.1C12.9,3.5,12.9,3.5,12.8,3.5L12.8,3.5z M13.1,3.6c-0.1,0-0.1,0.1-0.1,0.1
			c0,0.1,0.1,0.1,0.1,0.1c0.1,0,0.1-0.1,0.1-0.1C13.2,3.7,13.1,3.6,13.1,3.6L13.1,3.6z M13.3,3.7c-0.1,0-0.1,0.1-0.1,0.1
			C13.2,4,13.3,4,13.3,4c0.1,0,0.1-0.1,0.1-0.1C13.5,3.8,13.4,3.7,13.3,3.7L13.3,3.7z M13.6,4c-0.1,0-0.1,0.1-0.1,0.1
			c0,0.1,0.1,0.1,0.1,0.1c0.1,0,0.1-0.1,0.1-0.1C13.7,4,13.6,4,13.6,4L13.6,4z M13.7,4.2c-0.1,0-0.1,0.1-0.1,0.1
			c0,0.1,0.1,0.1,0.1,0.1c0.1,0,0.1-0.1,0.1-0.1C13.9,4.3,13.8,4.2,13.7,4.2L13.7,4.2z M13.8,4.6c-0.1,0-0.1,0.1-0.1,0.1
			c0,0.1,0.1,0.1,0.1,0.1c0.1,0,0.1-0.1,0.1-0.1C14,4.6,13.9,4.6,13.8,4.6L13.8,4.6z M13.8,4.9c-0.1,0-0.1,0.1-0.1,0.1
			c0,0.1,0.1,0.1,0.1,0.1C13.9,5.2,14,5.1,14,5C14,5,13.9,4.9,13.8,4.9L13.8,4.9z"/>
		<path class="st1" d="M6,5c0,0.1,0.1,0.2,0.2,0.2c0.1,0,0.2-0.1,0.2-0.2c0-0.1-0.1-0.2-0.2-0.2C6.1,4.9,6,4.9,6,5z M6.1,5
			c0-0.1,0-0.1,0.1-0.1c0.1,0,0.1,0,0.1,0.1c0,0.1,0,0.1-0.1,0.1C6.2,5.2,6.1,5.1,6.1,5z"/>
		<path class="st1" d="M6,4.7c0,0.1,0.1,0.2,0.2,0.2c0.1,0,0.2-0.1,0.2-0.2c0-0.1-0.1-0.2-0.2-0.2C6.1,4.5,6,4.6,6,4.7z M6.1,4.7
			c0-0.1,0-0.1,0.1-0.1c0.1,0,0.1,0,0.1,0.1c0,0.1,0,0.1-0.1,0.1C6.2,4.8,6.1,4.8,6.1,4.7z"/>
		<path class="st1" d="M6.1,4.4c0,0.1,0.1,0.2,0.2,0.2c0.1,0,0.2-0.1,0.2-0.2c0-0.1-0.1-0.2-0.2-0.2C6.2,4.2,6.1,4.3,6.1,4.4z
			 M6.2,4.4c0-0.1,0-0.1,0.1-0.1c0.1,0,0.1,0,0.1,0.1c0,0.1,0,0.1-0.1,0.1C6.3,4.5,6.2,4.4,6.2,4.4z"/>
		<path class="st1" d="M6.3,4.1c0,0.1,0.1,0.2,0.2,0.2c0.1,0,0.2-0.1,0.2-0.2c0-0.1-0.1-0.2-0.2-0.2C6.4,3.9,6.3,4,6.3,4.1z
			 M6.4,4.1c0-0.1,0-0.1,0.1-0.1c0.1,0,0.1,0,0.1,0.1c0,0.1,0,0.1-0.1,0.1C6.4,4.2,6.4,4.2,6.4,4.1z"/>
		<path class="st1" d="M6.5,3.9c0,0.1,0.1,0.2,0.2,0.2c0.1,0,0.2-0.1,0.2-0.2c0,0,0-0.1-0.1-0.1c0,0-0.1-0.1-0.1-0.1
			C6.6,3.7,6.5,3.8,6.5,3.9z M6.6,3.9C6.6,3.8,6.7,3.8,6.6,3.9c0.1-0.1,0.1-0.1,0.2-0.1c0,0,0,0,0,0.1C6.8,3.9,6.8,4,6.6,3.9
			C6.7,4,6.6,3.9,6.6,3.9z"/>
		<path class="st1" d="M7.4,3.5c0,0.1,0.1,0.2,0.2,0.2c0.1,0,0.2-0.1,0.2-0.2c0-0.1-0.1-0.2-0.2-0.2C7.4,3.3,7.4,3.4,7.4,3.5z
			 M7.4,3.5C7.4,3.4,7.5,3.4,7.4,3.5c0.1-0.1,0.2,0,0.2,0C7.6,3.5,7.6,3.6,7.4,3.5C7.5,3.6,7.4,3.5,7.4,3.5z"/>
		<path class="st1" d="M6.8,3.7c0,0.1,0.1,0.2,0.2,0.2c0.1,0,0.2-0.1,0.2-0.2c0-0.1-0.1-0.2-0.2-0.2C6.9,3.6,6.8,3.6,6.8,3.7z
			 M6.9,3.7C6.9,3.7,6.9,3.6,6.9,3.7c0.1-0.1,0.2-0.1,0.2,0C7.1,3.8,7,3.8,6.9,3.7C6.9,3.8,6.9,3.8,6.9,3.7z"/>
		<path class="st1" d="M7.1,3.6c0,0.1,0.1,0.2,0.2,0.2c0.1,0,0.2-0.1,0.2-0.2c0-0.1-0.1-0.2-0.2-0.2C7.2,3.4,7.1,3.5,7.1,3.6z
			 M7.2,3.6C7.2,3.5,7.2,3.5,7.2,3.6c0.1-0.1,0.2,0,0.2,0C7.4,3.6,7.3,3.7,7.2,3.6C7.2,3.7,7.2,3.6,7.2,3.6z"/>
		<path class="st1" d="M7.6,3.4c0,0.1,0.1,0.2,0.2,0.2C7.9,3.6,8,3.5,8,3.4c0-0.1-0.1-0.2-0.2-0.2C7.7,3.3,7.6,3.3,7.6,3.4z
			 M7.7,3.4C7.7,3.4,7.8,3.3,7.7,3.4c0.1-0.1,0.2,0,0.2,0C7.9,3.5,7.9,3.5,7.7,3.4C7.8,3.5,7.7,3.5,7.7,3.4z"/>
		<path class="st1" d="M9.4,2.8C9.4,2.9,9.5,3,9.6,3c0.1,0,0.2-0.1,0.2-0.2c0-0.1-0.1-0.2-0.2-0.2C9.5,2.7,9.4,2.7,9.4,2.8z
			 M9.5,2.8C9.5,2.8,9.6,2.8,9.5,2.8c0.1-0.1,0.2,0,0.2,0C9.7,2.9,9.7,2.9,9.5,2.8C9.6,2.9,9.5,2.9,9.5,2.8z"/>
		<path class="st1" d="M9.1,2.9c0,0.1,0.1,0.2,0.2,0.2c0.1,0,0.2-0.1,0.2-0.2c0-0.1-0.1-0.2-0.2-0.2C9.2,2.7,9.1,2.8,9.1,2.9z
			 M9.2,2.9c0-0.1,0-0.1,0.1-0.1s0.1,0,0.1,0.1C9.4,3,9.4,3,9.3,3S9.2,3,9.2,2.9z"/>
		<path class="st1" d="M8.8,3c0,0.1,0.1,0.2,0.2,0.2c0.1,0,0.2-0.1,0.2-0.2c0-0.1-0.1-0.2-0.2-0.2C8.9,2.8,8.8,2.9,8.8,3z M8.9,3
			c0-0.1,0-0.1,0.1-0.1c0.1,0,0.1,0,0.1,0.1c0,0.1,0,0.1-0.1,0.1C8.9,3.1,8.9,3.1,8.9,3z"/>
		<path class="st1" d="M8.5,3.1c0,0.1,0.1,0.2,0.2,0.2c0.1,0,0.2-0.1,0.2-0.2c0-0.1-0.1-0.2-0.2-0.2C8.6,2.9,8.5,3,8.5,3.1z
			 M8.6,3.1c0-0.1,0-0.1,0.1-0.1c0.1,0,0.1,0,0.1,0.1c0,0.1,0,0.1-0.1,0.1C8.6,3.2,8.6,3.2,8.6,3.1z"/>
		<path class="st1" d="M8.3,3.2c0,0-0.1,0.1-0.1,0.1c0,0.1,0.1,0.2,0.2,0.2c0.1,0,0.2-0.1,0.2-0.2c0-0.1-0.1-0.2-0.2-0.2
			C8.3,3.1,8.3,3.1,8.3,3.2z M8.3,3.3C8.3,3.3,8.3,3.2,8.3,3.3c0.1-0.1,0.1-0.1,0.1-0.1c0.1,0,0.1,0,0.1,0.1c0,0.1,0,0.1-0.1,0.1
			C8.3,3.4,8.3,3.3,8.3,3.3z"/>
		<path class="st1" d="M8,3.5C8,3.6,8,3.7,8.1,3.7s0.2-0.1,0.2-0.2c0-0.1-0.1-0.2-0.2-0.2S8,3.4,8,3.5z M8,3.5c0-0.1,0-0.1,0.1-0.1
			c0.1,0,0.1,0,0.1,0.1c0,0.1,0,0.1-0.1,0.1C8.1,3.6,8,3.6,8,3.5z"/>
		<path class="st1" d="M7.8,3.8C7.8,3.9,7.9,4,8,4c0.1,0,0.2-0.1,0.2-0.2c0-0.1-0.1-0.2-0.2-0.2C7.9,3.6,7.8,3.7,7.8,3.8z M7.9,3.8
			c0-0.1,0.1-0.1,0.1-0.1c0.1,0,0.1,0.1,0.1,0.1C8.1,3.8,8,3.9,8,3.9C7.9,3.9,7.9,3.8,7.9,3.8z"/>
		<path class="st1" d="M7.6,4.1c0,0.1,0.1,0.2,0.2,0.2c0.1,0,0.2-0.1,0.2-0.2C8.1,4,8,3.9,7.9,3.9C7.7,3.9,7.6,4,7.6,4.1z M7.7,4.1
			C7.7,4,7.8,4,7.9,4C7.9,4,8,4,8,4.1c0,0.1-0.1,0.1-0.1,0.1C7.8,4.2,7.7,4.2,7.7,4.1z"/>
		<path class="st1" d="M9.9,3.9c0,0-0.1,0.1-0.1,0.1c0,0.1,0.1,0.2,0.2,0.2c0.1,0,0.2-0.1,0.2-0.2c0-0.1,0-0.1-0.1-0.1
			c0,0-0.1-0.1-0.1-0.1S9.9,3.9,9.9,3.9z M9.9,4.1C9.9,4,9.9,4,9.9,4.1C10,4,10,4,10,4c0,0,0.1,0,0.1,0c0,0,0,0,0,0.1
			c0,0.1-0.1,0.1-0.1,0.1C10,4.2,9.9,4.1,9.9,4.1z"/>
		<path class="st1" d="M9.9,3.6c0,0-0.1,0.1-0.1,0.1c0,0.1,0.1,0.2,0.2,0.2c0.1,0,0.2-0.1,0.2-0.2c0,0,0-0.1-0.1-0.1
			c0,0-0.1-0.1-0.1-0.1C10,3.6,9.9,3.6,9.9,3.6z M9.9,3.8C9.9,3.7,9.9,3.7,9.9,3.8C10,3.7,10,3.7,10,3.7c0,0,0.1,0,0.1,0
			c0,0,0,0,0,0.1c0,0.1,0,0.1-0.1,0.1C10,3.9,9.9,3.8,9.9,3.8z"/>
		<path class="st1" d="M9.9,3.5c0,0.1,0.1,0.2,0.2,0.2c0.1,0,0.2-0.1,0.2-0.2c0-0.1-0.1-0.2-0.2-0.2C9.9,3.3,9.9,3.4,9.9,3.5z
			 M9.9,3.5C9.9,3.4,10,3.4,9.9,3.5c0.1-0.1,0.2,0,0.2,0C10.1,3.5,10.1,3.6,9.9,3.5C10,3.6,9.9,3.5,9.9,3.5z"/>
		<path class="st1" d="M9.9,3.2c0,0.1,0.1,0.1,0.1,0.1c0.1,0,0.1-0.1,0.1-0.1c0-0.1-0.1-0.1-0.1-0.1C10,3.1,9.9,3.1,9.9,3.2z
			 M10,3.2C10,3.2,10,3.1,10,3.2c0.1-0.1,0.1,0,0.1,0C10.1,3.2,10.1,3.3,10,3.2C10,3.3,10,3.2,10,3.2z"/>
		<path class="st1" d="M10.3,2.8c0,0.1,0.1,0.2,0.2,0.2c0.1,0,0.2-0.1,0.2-0.2c0-0.1-0.1-0.2-0.2-0.2C10.3,2.7,10.3,2.7,10.3,2.8z
			 M10.4,2.8C10.4,2.8,10.4,2.8,10.4,2.8c0.1-0.1,0.2,0,0.2,0C10.5,2.9,10.5,2.9,10.4,2.8C10.4,2.9,10.4,2.9,10.4,2.8z"/>
		<path class="st1" d="M10.6,2.9c0,0.1,0.1,0.2,0.2,0.2c0.1,0,0.2-0.1,0.2-0.2c0-0.1-0.1-0.2-0.2-0.2C10.6,2.7,10.6,2.8,10.6,2.9z
			 M10.6,2.9c0-0.1,0-0.1,0.1-0.1c0.1,0,0.1,0,0.1,0.1c0,0.1,0,0.1-0.1,0.1C10.7,3,10.6,3,10.6,2.9z"/>
		<path class="st1" d="M10.9,3c0,0.1,0.1,0.2,0.2,0.2c0.1,0,0.2-0.1,0.2-0.2c0-0.1-0.1-0.2-0.2-0.2C10.9,2.8,10.9,2.9,10.9,3z
			 M10.9,3c0-0.1,0-0.1,0.1-0.1c0.1,0,0.1,0,0.1,0.1c0,0.1,0,0.1-0.1,0.1C11,3.1,10.9,3.1,10.9,3z"/>
		<path class="st1" d="M11.2,3.1c0,0.1,0.1,0.2,0.2,0.2c0.1,0,0.2-0.1,0.2-0.2c0-0.1-0.1-0.2-0.2-0.2C11.3,2.9,11.2,3,11.2,3.1z
			 M11.3,3.1c0-0.1,0-0.1,0.1-0.1c0.1,0,0.1,0,0.1,0.1c0,0.1,0,0.1-0.1,0.1C11.3,3.2,11.3,3.2,11.3,3.1z"/>
		<path class="st1" d="M11.5,3.3c0,0.1,0.1,0.2,0.2,0.2c0.1,0,0.2-0.1,0.2-0.2c0,0,0-0.1-0.1-0.1c0,0-0.1-0.1-0.1-0.1
			C11.6,3.1,11.5,3.2,11.5,3.3z M11.6,3.3c0-0.1,0-0.1,0.1-0.1c0,0,0.1,0,0.1,0c0,0,0,0,0,0.1c0,0.1,0,0.1-0.1,0.1
			C11.6,3.4,11.6,3.3,11.6,3.3z"/>
		<path class="st1" d="M11.7,3.5c0,0.1,0.1,0.2,0.2,0.2c0.1,0,0.2-0.1,0.2-0.2c0-0.1-0.1-0.2-0.2-0.2C11.8,3.3,11.7,3.4,11.7,3.5z
			 M11.8,3.5c0-0.1,0-0.1,0.1-0.1c0.1,0,0.1,0,0.1,0.1c0,0.1,0,0.1-0.1,0.1C11.9,3.6,11.8,3.6,11.8,3.5z"/>
		<path class="st1" d="M11.9,3.6c0,0-0.1,0.1-0.1,0.1c0,0.1,0,0.1,0.1,0.1C12,3.9,12,4,12.1,4c0.1,0,0.2-0.1,0.2-0.2
			c0-0.1,0-0.1-0.1-0.1c0,0-0.1-0.1-0.1-0.1C12,3.6,12,3.6,11.9,3.6z M12,3.8C12,3.8,12,3.8,12,3.8c0-0.1,0-0.1,0-0.2
			c0,0,0.1,0,0.1,0c0,0,0.1,0,0.1,0c0,0,0,0.1,0,0.1C12.2,3.8,12.1,3.9,12,3.8C12.1,3.9,12,3.9,12,3.8z"/>
		<path class="st1" d="M12,4.1c0,0.1,0.1,0.2,0.2,0.2s0.2-0.1,0.2-0.2c0-0.1-0.1-0.2-0.2-0.2S12,4,12,4.1z M12.1,4.1
			C12.1,4,12.1,4,12.2,4c0.1,0,0.1,0.1,0.1,0.1c0,0.1-0.1,0.1-0.1,0.1C12.1,4.2,12.1,4.2,12.1,4.1z"/>
		<path class="st1" d="M12,4.4c0,0.1,0.1,0.2,0.2,0.2c0.1,0,0.2-0.1,0.2-0.2c0-0.1-0.1-0.2-0.2-0.2C12.1,4.2,12,4.3,12,4.4z
			 M12.1,4.4c0-0.1,0.1-0.1,0.1-0.1c0.1,0,0.1,0.1,0.1,0.1c0,0.1-0.1,0.1-0.1,0.1C12.2,4.6,12.1,4.5,12.1,4.4z"/>
		<path class="st1" d="M7.6,4.4c0,0.1,0.1,0.2,0.2,0.2C7.9,4.7,8,4.6,8,4.4c0-0.1-0.1-0.2-0.2-0.2C7.7,4.2,7.6,4.3,7.6,4.4z
			 M7.7,4.4c0-0.1,0.1-0.1,0.1-0.1c0.1,0,0.1,0.1,0.1,0.1c0,0.1-0.1,0.1-0.1,0.1C7.7,4.6,7.7,4.5,7.7,4.4z"/>
		<path class="st1" d="M12.1,3.4c0,0.1,0.1,0.2,0.2,0.2c0.1,0,0.2-0.1,0.2-0.2c0-0.1-0.1-0.2-0.2-0.2C12.2,3.3,12.1,3.3,12.1,3.4z
			 M12.2,3.4C12.2,3.4,12.2,3.3,12.2,3.4c0.1-0.1,0.2,0,0.2,0C12.3,3.5,12.3,3.5,12.2,3.4C12.2,3.5,12.2,3.5,12.2,3.4z"/>
		<path class="st1" d="M12.4,3.5c0,0.1,0.1,0.2,0.2,0.2c0.1,0,0.2-0.1,0.2-0.2c0-0.1-0.1-0.2-0.2-0.2C12.4,3.3,12.4,3.4,12.4,3.5z
			 M12.4,3.5C12.4,3.4,12.5,3.4,12.4,3.5c0.1-0.1,0.2,0,0.2,0C12.6,3.5,12.6,3.6,12.4,3.5C12.5,3.6,12.4,3.5,12.4,3.5z"/>
		<path class="st1" d="M12.6,3.6c0,0.1,0.1,0.2,0.2,0.2c0.1,0,0.2-0.1,0.2-0.2c0-0.1-0.1-0.2-0.2-0.2C12.7,3.4,12.6,3.5,12.6,3.6z
			 M12.7,3.6C12.7,3.5,12.7,3.5,12.7,3.6c0.1-0.1,0.2,0,0.2,0C12.9,3.6,12.8,3.7,12.7,3.6C12.7,3.7,12.7,3.6,12.7,3.6z"/>
		<path class="st1" d="M12.9,3.7c0,0.1,0.1,0.2,0.2,0.2c0.1,0,0.2-0.1,0.2-0.2c0-0.1-0.1-0.2-0.2-0.2C13,3.6,12.9,3.6,12.9,3.7z
			 M13,3.7C13,3.7,13,3.6,13,3.7c0.1-0.1,0.2-0.1,0.2,0C13.2,3.8,13.1,3.8,13,3.7C13,3.8,13,3.8,13,3.7z"/>
		<path class="st1" d="M13.2,3.8c0,0-0.1,0.1-0.1,0.1c0,0.1,0.1,0.2,0.2,0.2c0.1,0,0.2-0.1,0.2-0.2c0,0,0-0.1-0.1-0.1
			c0,0-0.1-0.1-0.1-0.1C13.3,3.7,13.2,3.7,13.2,3.8z M13.2,3.9C13.2,3.9,13.2,3.8,13.2,3.9C13.3,3.8,13.3,3.8,13.2,3.9
			c0.1-0.1,0.2-0.1,0.2-0.1c0,0,0,0,0,0.1C13.4,3.9,13.4,4,13.2,3.9C13.3,4,13.2,3.9,13.2,3.9z"/>
		<path class="st1" d="M13.4,4.1c0,0.1,0.1,0.2,0.2,0.2c0.1,0,0.2-0.1,0.2-0.2c0-0.1-0.1-0.2-0.2-0.2C13.5,3.9,13.4,4,13.4,4.1z
			 M13.4,4.1c0-0.1,0-0.1,0.1-0.1c0.1,0,0.1,0,0.1,0.1c0,0.1,0,0.1-0.1,0.1C13.5,4.2,13.4,4.2,13.4,4.1z"/>
		<path class="st1" d="M13.6,4.4c0,0.1,0.1,0.2,0.2,0.2c0.1,0,0.2-0.1,0.2-0.2c0-0.1-0.1-0.2-0.2-0.2C13.6,4.2,13.6,4.3,13.6,4.4z
			 M13.6,4.4c0-0.1,0-0.1,0.1-0.1c0.1,0,0.1,0,0.1,0.1c0,0.1,0,0.1-0.1,0.1C13.7,4.5,13.6,4.4,13.6,4.4z"/>
		<path class="st1" d="M13.6,4.7c0,0.1,0.1,0.2,0.2,0.2c0.1,0,0.2-0.1,0.2-0.2c0-0.1-0.1-0.2-0.2-0.2C13.7,4.5,13.6,4.6,13.6,4.7z
			 M13.7,4.7c0-0.1,0-0.1,0.1-0.1c0.1,0,0.1,0,0.1,0.1c0,0.1,0,0.1-0.1,0.1C13.8,4.8,13.7,4.8,13.7,4.7z"/>
		<path class="st1" d="M13.7,5c0,0.1,0.1,0.2,0.2,0.2C13.9,5.2,14,5.1,14,5c0-0.1-0.1-0.2-0.2-0.2C13.7,4.9,13.7,4.9,13.7,5z
			 M13.7,5c0-0.1,0-0.1,0.1-0.1c0.1,0,0.1,0,0.1,0.1c0,0.1,0,0.1-0.1,0.1C13.8,5.2,13.7,5.1,13.7,5z"/>
	</g>
	<g>
		<path class="st0" d="M9.1,5.1C9,5,8.8,5.1,8.8,5.2c0,0.1,0.1,0.1,0.2,0.1c0.1,0,0.1,0,0.1-0.1c0.1,0.1,0.3,0.1,0.3-0.1
			C9.4,5,9.3,5,9.2,5.1c0.1-0.1,0-0.2-0.1-0.2C9,4.8,9,5,9.1,5.1L9.1,5.1z"/>
		<path class="st1" d="M9.1,4.8C9,4.8,9,4.8,9,4.9c0,0,0,0,0,0.1C9,5,9,5,9,5c0,0-0.1,0-0.1,0c0,0-0.1,0.1-0.1,0.1c0,0,0,0,0,0
			c0,0,0,0.1,0.1,0.1c0,0,0.1,0,0.1,0c0.1,0,0.1,0,0.1-0.1c0.1,0,0.2,0.1,0.2,0c0,0,0.1-0.1,0.1-0.1c0-0.1,0-0.1-0.1-0.1
			c0,0-0.1,0-0.1,0c0,0,0,0,0,0c0,0,0-0.1,0-0.1C9.2,4.8,9.2,4.8,9.1,4.8z M9.1,5.1C9,5,9,5,9,4.9c0,0,0,0,0.1,0c0,0,0.1,0,0.1,0.1
			C9.2,5,9.2,5,9.1,5.1l0.2,0c0,0,0.1,0,0.1,0c0,0,0,0,0,0.1c0,0.1,0,0.1,0,0.1c-0.1,0-0.2,0-0.2,0l-0.1,0C9.1,5.3,9,5.3,9,5.3
			c0,0-0.1,0-0.1,0c0,0,0,0,0-0.1c0,0,0-0.1,0-0.1C8.9,5.1,9,5.1,9.1,5.1L9.1,5.1z"/>
	</g>
	<g>
		<path class="st0" d="M7.4,5.6c-0.1,0-0.2,0.1-0.2,0.2c0,0.1,0.1,0.1,0.2,0c0,0,0.1-0.1,0.1-0.1c0.1,0,0.3,0,0.2-0.2
			c0-0.1-0.2-0.1-0.2,0c0-0.1-0.1-0.2-0.2-0.2C7.3,5.4,7.3,5.6,7.4,5.6L7.4,5.6z"/>
		<path class="st1" d="M7.4,5.3c-0.1,0-0.1,0.1-0.1,0.1c0,0,0,0,0,0c0,0,0,0.1,0,0.1c0,0-0.1,0-0.1,0.1c0,0,0,0.1,0,0.1
			c0,0,0,0,0,0.1c0,0,0.1,0.1,0.1,0.1c0,0,0.1,0,0.1,0c0.1,0,0.1-0.1,0.1-0.1c0.1,0,0.2,0,0.2-0.1c0,0,0.1-0.1,0-0.2
			c0-0.1-0.1-0.1-0.1-0.1c0,0-0.1,0-0.1,0c0,0,0-0.1,0-0.1C7.5,5.3,7.5,5.3,7.4,5.3z M7.5,5.6c0,0-0.1-0.1-0.1-0.1c0,0,0-0.1,0-0.1
			c0,0,0.1,0,0.1,0C7.5,5.4,7.6,5.5,7.5,5.6l0.2,0c0,0,0.1-0.1,0.1-0.1c0,0,0,0,0.1,0c0,0,0,0.1,0,0.1c0,0-0.1,0-0.2,0l-0.1,0
			c0,0.1-0.1,0.1-0.1,0.1c0,0-0.1,0-0.1,0c0,0,0,0-0.1,0c0,0,0,0,0-0.1C7.3,5.7,7.4,5.6,7.5,5.6L7.5,5.6z"/>
	</g>
</g>
</svg>
