<?xml version="1.0" encoding="utf-8"?>
<!-- Generator: Adobe Illustrator 19.1.0, SVG Export Plug-In . SVG Version: 6.00 Build 0)  -->
<svg version="1.1" id="Layer_1" xmlns="http://www.w3.org/2000/svg" xmlns:xlink="http://www.w3.org/1999/xlink" x="0px" y="0px"
	 viewBox="0 0 20 20" style="enable-background:new 0 0 20 20;" xml:space="preserve">
<style type="text/css">
	.st0{fill:#F4C676;}
	.st1{fill:#0096D5;}
	.st2{fill:#343536;}
	.st3{fill:#FFFFFF;}
	.st4{fill:#808A92;}
	.st5{fill:#E25645;}
	.st6{fill:#BA8252;}
</style>
<g>
	<path class="st0" d="M4.6,7.2c-0.4,6.2,3.8,9.7,5.2,10.4c1.4-0.7,5.6-4.2,5.2-10.4H4.6z"/>
	<path class="st1" d="M15,9.2c0.1-0.6,0.1-1.3,0-2H4.6c0,0.7,0,1.4,0,2L15,9.2z"/>
	<path class="st2" d="M15,7.1H4.6l0,0C4.5,8.6,4.7,10,5.1,11.3c0.3,1.1,0.8,2.2,1.5,3.1c1.1,1.6,2.5,2.7,3.3,3.2l0,0l0,0
		c0.8-0.4,2.2-1.5,3.3-3.2c0.6-1,1.1-2,1.5-3.1C14.9,10,15.1,8.6,15,7.1L15,7.1L15,7.1z M15,7.2c0,0.3,0,0.5,0,0.8
		c0,1.1-0.2,2.3-0.5,3.3c-0.3,1.1-0.8,2.1-1.5,3.1c-0.5,0.8-1.1,1.5-1.8,2.1c-0.7,0.6-1.2,0.9-1.4,1.1c-0.2-0.1-0.7-0.4-1.4-1.1
		c-0.7-0.6-1.3-1.3-1.8-2.1c-0.6-1-1.1-2-1.5-3.1C4.8,10.2,4.6,9.1,4.6,8c0-0.3,0-0.5,0-0.8C4.7,7.2,14.9,7.2,15,7.2z"/>
	<path class="st3" d="M5.3,7.8h0.1l0.2,0.8h0l0.2-0.8h0.1l-0.2,1H5.5L5.3,7.8z"/>
	<path class="st3" d="M6.4,8.5H6.1L6.1,8.7H5.9l0.3-1h0.2l0.3,1H6.5L6.4,8.5l0-0.2L6.3,7.9h0L6.2,8.3h0.2"/>
	<path class="st3" d="M6.7,7.8h0.1v0.8h0.3v0.2H6.7V7.8z"/>
	<path class="st3" d="M7.2,7.8h0.4v0.2H7.4v0.2h0.2v0.2H7.4v0.3h0.3v0.2H7.2V7.8z"/>
	<path class="st3" d="M7.8,7.8h0.2l0.3,0.7h0V7.8h0.1v1H8.2L7.9,8h0v0.7H7.8V7.8z"/>
	<path class="st3" d="M9,8.7c-0.1,0-0.1,0-0.2,0c-0.2,0-0.4-0.2-0.4-0.5c0-0.3,0.1-0.5,0.4-0.5c0,0,0.1,0,0.2,0l0,0.2
		c-0.1,0-0.1-0.1-0.1-0.1C8.7,7.9,8.6,8,8.6,8.2c0,0.2,0.1,0.3,0.2,0.3c0.1,0,0.1,0,0.2,0L9,8.7z"/>
	<path class="st3" d="M9.1,7.8h0.1v1H9.1V7.8z"/>
	<path class="st3" d="M10.9,8.7c-0.1,0-0.1,0-0.2,0c-0.2,0-0.4-0.2-0.4-0.5c0-0.3,0.1-0.5,0.4-0.5c0,0,0.1,0,0.2,0l0,0.2
		c-0.1,0-0.1-0.1-0.2-0.1c-0.1,0-0.2,0.2-0.2,0.3c0,0.2,0.1,0.3,0.2,0.3c0.1,0,0.1,0,0.2,0L10.9,8.7z"/>
	<path class="st3" d="M11,8.5h0.1v0.2H11V8.5z"/>
	<path class="st3" d="M11.6,8.4c0,0.1,0,0.2,0.1,0.2c0.1,0,0.1-0.1,0.1-0.2c0-0.1,0-0.2-0.1-0.2C11.7,8.1,11.6,8.3,11.6,8.4h-0.1
		c0-0.2,0.1-0.4,0.2-0.4c0.1,0,0.1,0,0.2,0.1h0V7.7H12v1h-0.1V8.6h0c0,0.1-0.1,0.1-0.2,0.1c-0.2,0-0.2-0.2-0.2-0.4"/>
	<path class="st3" d="M12.5,8.3c0-0.1,0-0.2-0.1-0.2c-0.1,0-0.1,0.1-0.1,0.2H12.5l0.1,0.1h-0.4c0,0.1,0.1,0.2,0.1,0.2
		c0.1,0,0.1,0,0.2-0.1v0.2c0,0-0.1,0.1-0.2,0.1c-0.2,0-0.3-0.1-0.3-0.4c0-0.2,0.1-0.4,0.2-0.4c0.2,0,0.2,0.2,0.2,0.4"/>
	<path class="st3" d="M13,7.8h0.4v0.2h-0.2v0.2h0.2v0.2h-0.2v0.4H13V7.8z"/>
	<path class="st3" d="M13.5,8.5h0.1v0.2h-0.1V8.5z"/>
	<path class="st3" d="M9.8,8.5H9.5L9.5,8.7H9.3l0.3-1h0.2l0.3,1H9.9L9.8,8.5l0-0.2L9.7,7.9h0L9.6,8.3h0.2"/>
	<path class="st2" d="M14.9,9.9C14.6,8,14,6.6,13.3,7.1c-0.1-0.9-1-1.1-1.6-0.4c0-0.6-0.5-1.2-1.1-1c0,0.1-0.2,0.4-0.3,0.4
		c0,0.1,0.2,0.7,0.3,0.8c0.2-0.1,0.2-0.1,0.6,0.2h-0.8l-0.2-0.6c-0.1-0.1-0.1-0.1-0.1,0L9.8,7L9.6,6.6c0-0.1-0.1-0.1-0.1,0L9.3,7.2
		H8.5C8.9,6.9,8.9,6.9,9.1,7c0.1-0.1,0.2-0.7,0.3-0.8C9.3,6.1,9.2,5.9,9.1,5.7C8.5,5.6,8,6.1,8,6.7C7.4,6.1,6.5,6.2,6.4,7.1
		C5.6,6.6,5,8,4.8,9.9C4.6,9.1,4.6,8.1,4.6,7.2c0.2-3.3,2.6-4.5,3.6-4.8C7.7,3.3,7.9,4.8,9.3,4.5c0-0.1,0.1-0.3,0.3-0.3
		C9.4,4.1,9.3,3.7,9.3,3.5C9.1,3.5,9,3.2,9,3c0-0.1,0-0.4-0.1-0.5c0.3,0.1,0.6,0.4,0.6,0.6c0.1-0.1,0.2-0.1,0.2-0.1
		c0.1,0,0.2,0,0.2,0.1c0.1-0.2,0.3-0.5,0.6-0.6c-0.1,0.1-0.2,0.4-0.1,0.5c0,0.1,0,0.4-0.3,0.5c0.1,0.2-0.1,0.6-0.2,0.6
		c0.1,0.1,0.2,0.3,0.3,0.3c1.4,0.3,1.6-1.2,1.1-2.1c1,0.3,3.3,1.4,3.6,4.8C15,8.1,15,9.1,14.9,9.9z"/>
	<path class="st4" d="M8.1,6.2C8.1,6.3,8,6.5,8,6.7C7.4,5.9,6.7,4.1,7.6,2.9C7.2,3.8,7.2,5,8.1,6.2z"/>
	<path class="st4" d="M11.5,6.2c0.1,0.2,0.2,0.4,0.2,0.5C12.3,5.9,13,4.1,12,2.9C12.4,3.8,12.4,5,11.5,6.2z"/>
	<path class="st4" d="M13.1,6.6c0.1,0.1,0.2,0.3,0.2,0.5c0.3-0.6,0.7-2.5-0.9-4.1C12.8,3.8,13.7,5,13.1,6.6z"/>
	<path class="st4" d="M14.9,9.9C15,9.1,15,8.1,15,7.2c-0.2-3.3-2.6-4.5-3.6-4.8C13.8,3.4,15.1,5.3,14.9,9.9z"/>
	<path class="st4" d="M6.6,6.6C6.5,6.7,6.4,6.9,6.4,7.1C6,6.6,5.6,4.6,7.2,3.1C6.8,3.8,6,5,6.6,6.6z"/>
	<path class="st4" d="M4.8,9.9C4.6,9.1,4.6,8.1,4.6,7.2c0.2-3.3,2.6-4.5,3.6-4.8C5.8,3.4,4.6,5.3,4.8,9.9z"/>
	<path class="st5" d="M5.8,13.1c0.3,0.7,0.7,1.3,1.1,1.9V9.2H5.8L5.8,13.1z"/>
	<path class="st5" d="M9.2,17.2c-0.3-0.2-0.7-0.6-1.1-1l0-7h1.1L9.2,17.2z"/>
	<path class="st5" d="M13.8,13.1c-0.3,0.7-0.7,1.3-1.1,1.9V9.2h1.1L13.8,13.1z"/>
	<path class="st5" d="M10.4,17.2c0.3-0.2,0.7-0.6,1.1-1l0-7h-1.1L10.4,17.2z"/>
	<circle class="st2" cx="9.8" cy="12.4" r="1.6"/>
	<circle class="st6" cx="9.8" cy="12.4" r="1.5"/>
	<path class="st2" d="M11.4,12.1c-0.2-0.3-0.5-0.5-0.8-0.6c-0.3-0.1-0.6-0.2-0.8-0.2c0-0.1-0.1-0.1-0.2-0.1c0,0,0,0,0,0
		c0,0,0-0.1,0-0.1c0,0,0-0.1,0-0.1l-0.2,0c0,0,0,0.1,0,0.1c0,0.1,0,0.2,0.1,0.3c0,0,0,0,0,0c0,0,0.1,0,0.1,0c0,0,0,0,0,0
		c0,0,0,0-0.1,0.1c-0.1,0.1-0.1,0.1-0.2,0.2c-0.1,0.2,0,0.5,0.3,0.7c0,0.1-0.1,0.3-0.2,0.3c-0.1,0.1-0.3,0-0.4,0
		c-0.2-0.3-0.4-0.8-0.2-1.3L9,11.1l-0.3,0.2c-0.1,0.2-0.1,0.5,0,0.8c0,0.2,0.1,0.4,0.3,0.6c-0.1,0.2-0.3,0.4-0.6,0.3l0,0.2
		c0.4,0.1,0.6-0.2,0.7-0.3c0.2,0.1,0.4,0.1,0.5,0c0.2-0.1,0.3-0.2,0.3-0.4c0.1,0,0.3,0,0.4,0c0.1,0.1,0.2,0.1,0.2,0.3
		c-0.1,0.2-0.4,0.5-0.6,0.6c-0.3,0.2-0.7,0.3-1.2,0.3l0.2,0.2c0.4,0,0.8-0.1,1.1-0.3c0.3-0.2,0.5-0.4,0.7-0.7c0.1,0,0.3-0.1,0.4,0
		c0.1,0,0.1,0.1,0.2,0.3l0.1-0.2c0-0.1-0.1-0.2-0.2-0.3c-0.1-0.1-0.3-0.1-0.4,0c-0.1-0.2-0.1-0.3-0.3-0.3c-0.2-0.1-0.4-0.1-0.6,0
		c-0.2-0.2-0.2-0.4-0.2-0.5c0-0.1,0.1-0.1,0.1-0.2c0,0,0.1-0.1,0.1-0.1c0.3,0,1,0.1,1.5,0.8l0.1,0.1L11.4,12.1z"/>
</g>
</svg>
