<?xml version="1.0" encoding="utf-8"?>
<!-- Generator: Adobe Illustrator 19.1.0, SVG Export Plug-In . SVG Version: 6.00 Build 0)  -->
<svg version="1.1" id="Layer_1" xmlns="http://www.w3.org/2000/svg" xmlns:xlink="http://www.w3.org/1999/xlink" x="0px" y="0px"
	 viewBox="0 0 20 20" style="enable-background:new 0 0 20 20;" xml:space="preserve">
<style type="text/css">
	.st0{fill:#FFFFFF;enable-background:new    ;}
	.st1{fill:#343536;}
	.st2{fill:#E25645;enable-background:new    ;}
	.st3{fill:#F1AD46;enable-background:new    ;}
	.st4{fill:#E25645;}
	.st5{fill:#00A7E6;}
	.st6{fill:none;stroke:#FFFFFF;stroke-width:0;stroke-linejoin:round;}
</style>
<g>
	<g>
		<circle class="st0" cx="10" cy="11.2" r="6.1"/>
		<path class="st1" d="M3.9,11.2c0,3.4,2.7,6.1,6.1,6.1c3.4,0,6.1-2.7,6.1-6.1C16.2,7.8,13.4,5,10,5C6.7,5,3.9,7.8,3.9,11.2z
			 M4,11.2c0-3.3,2.7-6,6-6c3.3,0,6,2.7,6,6c0,3.3-2.7,6-6,6C6.7,17.2,4,14.5,4,11.2z"/>
	</g>
	<g>
		<path class="st2" d="M10,3.2L10,3.2c0,0-2.9-0.1-3.7,1.3l0.9,1.9C8.2,6.8,9.6,7,10,6.8l0,0c0.4,0.2,1.9,0,2.9-0.5l0.9-1.9
			C12.9,3,10,3.2,10,3.2z"/>
		<path class="st1" d="M10,3.1L10,3.1c0,0-2.9-0.1-3.8,1.3l0,0l0.9,2l0,0C8.1,6.8,9.6,7,10,6.9c0.5,0.2,1.9,0,2.9-0.5l0,0l0.9-2l0,0
			C12.9,3,10.2,3.1,10,3.1z M10,3.2c0.1,0,2.8-0.1,3.7,1.2c0,0-0.8,1.9-0.9,1.9c-1,0.5-2.4,0.6-2.8,0.4l0,0l0,0
			c-0.4,0.2-1.8,0-2.8-0.4c0,0-0.8-1.8-0.9-1.9C7.2,3.1,10,3.2,10,3.2L10,3.2L10,3.2z"/>
	</g>
	<g>
		<polygon class="st3" points="10.7,5.5 15.2,11 10,17.8 4.9,11 9.4,5.5 		"/>
		<path class="st1" d="M10.7,5.5l-1.3,0L4.9,11l5.1,6.9l5.1-6.9L10.7,5.5L10.7,5.5z M10.7,5.5c0,0,4.5,5.4,4.5,5.4
			c0,0-5.1,6.8-5.1,6.8C10,17.7,5,11,5,11c0,0,4.5-5.4,4.5-5.4C9.4,5.6,10.6,5.5,10.7,5.5z"/>
	</g>
	<g>
		<polygon class="st4" points="12.9,13.3 14,11.8 14,10.2 12.9,8.9 		"/>
		<polygon class="st4" points="10.6,16.4 11.8,14.8 11.8,7.5 10.6,6.1 		"/>
		<polygon class="st4" points="8.3,14.8 9.5,16.4 9.5,6.1 8.3,7.5 		"/>
		<polygon class="st4" points="6.1,11.8 7.2,13.3 7.2,8.9 6.1,10.2 		"/>
	</g>
	<g>
		<path class="st5" d="M4.6,11l0.1-0.1L8,6.9C7.7,6.8,7.4,6.7,7.2,6.6l-0.1,0l0-0.1L7,6.4c-1.6,1-2.7,2.8-2.7,4.8
			c0,2.8,2,5.1,4.6,5.6l-4.2-5.7L4.6,11z"/>
		<path class="st5" d="M15.8,11.2c0-2-1-3.7-2.5-4.7l0,0l0,0.1l-0.1,0c-0.3,0.1-0.6,0.2-0.9,0.3l3.2,3.9l0.1,0.1l-0.1,0.2l-4.2,5.7
			C13.8,16.3,15.8,14,15.8,11.2z"/>
	</g>
	<g>
		<path class="st1" d="M8,10.2H7.6c-0.4,0-0.7,0.4-0.7,0.8c0,0.4,0.3,0.8,0.7,0.8H8v0.6H7.5c-0.7,0-1.3-0.6-1.3-1.4
			c0-0.8,0.6-1.4,1.3-1.4H8V10.2z"/>
		<polygon class="st1" points="13.7,10.2 13.7,9.6 12.1,9.6 12.1,12.5 12.7,12.5 12.7,11.2 13.4,11.2 13.4,10.6 12.7,10.6 
			12.7,10.2 		"/>
		<polygon class="st1" points="11.5,7.4 10,11.9 8.6,7.4 6.3,7.4 6.3,8.3 7.9,8.3 10,14.9 12.2,8.3 13.8,8.3 13.8,7.4 		"/>
	</g>
	<g>
		<circle class="st6" cx="10" cy="3.2" r="0.3"/>
		<g>
			<path class="st3" d="M10,5.1L10,5.1c-0.4,0-1.9,0-3.2,0.6l0.3,0.7c0,0,0,0,0,0C8.3,5.9,9.7,5.8,10,5.8l0,0c0.4,0,1.8,0,2.8,0.6
				c0,0,0,0,0,0l0.3-0.7C12,5.1,10.5,5.1,10,5.1z"/>
			<path class="st1" d="M6.8,5.6C6.8,5.6,6.8,5.6,6.8,5.6C6.8,5.6,6.8,5.6,6.8,5.6l0.3,0.8c0,0,0,0,0,0l0,0c0,0,0,0,0,0
				C8.3,5.9,9.6,5.9,10,5.9c0.5,0,1.8,0.1,2.8,0.6c0,0,0,0,0,0l0,0c0,0,0,0,0,0l0.3-0.7c0,0,0,0,0,0c0,0,0,0,0,0
				C12.1,5.1,10.7,5,10,5h0c0,0,0,0,0,0c0,0,0,0,0,0C9.7,5,8.1,5,6.8,5.6z M10,5.1C10,5.1,10,5.1,10,5.1c0.7,0,2,0.1,3.1,0.6
				c0,0.1-0.3,0.6-0.3,0.7c-1.1-0.5-2.3-0.6-2.8-0.6c-0.4,0-1.7,0-2.8,0.6c0,0-0.3-0.6-0.3-0.7C8.2,5.1,9.7,5.1,10,5.1z M10,5L10,5
				L10,5z"/>
		</g>
		<g>
			<path class="st3" d="M14.3,4.3L14.3,4.3c-0.8-0.5-1.2,0.4-0.6,0.7c-0.9,0.3-1.2-0.4-1.2-0.7c0.4,0.8,1.5-0.2,0.4-0.6h0
				c0.4-0.4,0.2-0.8-0.1-0.9h0c-0.3-0.1-0.7,0-0.7,0.6l0,0C11,3,11.1,4.5,12,4.1c-0.7,1.1-1.7,0.1-1.9-0.4c0,0,0,0,0,0
				C10.5,4.1,10.8,4,11,3.8c0.2-0.3,0.1-0.7-0.5-0.8l0,0c0.2-0.5-0.1-0.8-0.4-0.8v0c-0.1,0-0.2,0-0.2,0C9.6,2.4,9.5,2.6,9.6,3h0
				C9.5,3,9.4,3,9.4,3.1C8.7,3.3,9.1,4.2,9.7,3.9c0.1,0,0.2-0.1,0.3-0.2c0,0,0,0,0,0C9.9,4.2,8.8,5.3,8.1,4.1C9,4.5,9.1,3,8,3.3l0,0
				c0-0.6-0.4-0.7-0.7-0.6l0,0C7.1,2.8,6.8,3.2,7.2,3.6l0,0C6.2,4.1,7.3,5,7.7,4.2c0,0.3-0.3,1.1-1.2,0.7C7,4.7,6.6,3.8,5.8,4.3l0,0
				C5.7,3.7,5.2,3.7,5,3.9l0.8,1.2c1,0.8,1.9,0.4,2.3-0.3C8.7,5.4,9.8,5,10,4.4c0.3,0.5,1.3,1,2,0.4c0.5,0.6,1.3,1,2.3,0.3l0.8-1.2
				C14.9,3.7,14.4,3.7,14.3,4.3z"/>
			<path class="st1" d="M10,2.2c-0.1,0-0.2,0-0.2,0C9.7,2.3,9.5,2.4,9.5,2.7c0,0.1,0,0.2,0.1,0.3C9.5,3,9.4,3,9.3,3
				C9.1,3.1,9,3.3,9,3.5c0,0,0,0,0,0.1c0,0.2,0.1,0.3,0.2,0.4C9.3,4,9.5,4.1,9.7,4c0.1,0,0.1-0.1,0.2-0.1C9.7,4.2,9.3,4.5,8.9,4.6
				c-0.3,0-0.5-0.1-0.8-0.4c0.2,0.1,0.4,0,0.5-0.2c0.1-0.2,0.1-0.4,0-0.6C8.6,3.3,8.4,3.2,8.1,3.3C8.1,3,8,2.8,7.8,2.7
				c-0.1-0.1-0.3-0.1-0.5,0C7.2,2.7,7,2.9,7,3c0,0,0,0.1,0,0.1c0,0.1,0.1,0.3,0.2,0.5C6.9,3.7,6.8,3.9,6.8,4.1c0,0,0,0,0,0.1
				c0,0.2,0.2,0.4,0.4,0.4c0.2,0,0.3,0,0.4-0.2c0,0.2-0.1,0.4-0.3,0.5C7.1,5,6.9,5.1,6.6,5c0.1-0.1,0.2-0.2,0.2-0.4c0,0,0,0,0,0
				c0-0.2-0.1-0.4-0.3-0.4C6.4,4.1,6.2,4,5.8,4.2C5.8,4,5.6,3.8,5.4,3.8c-0.2,0-0.3,0-0.5,0.1c0,0,0,0,0,0.1l0.8,1.2c0,0,0,0,0,0
				c0.4,0.3,0.9,0.5,1.3,0.4c0.4-0.1,0.8-0.3,1-0.7c0.3,0.2,0.7,0.3,1.1,0.2C9.5,5,9.9,4.8,10,4.5C10.2,4.8,10.6,5,11,5.1
				c0.4,0.1,0.8,0,1.1-0.2c0.3,0.4,0.6,0.6,1,0.7c0.4,0.1,0.9-0.1,1.3-0.4c0,0,0,0,0,0l0.8-1.2c0,0,0,0,0-0.1
				c-0.1-0.1-0.3-0.2-0.5-0.1c-0.2,0.1-0.3,0.2-0.4,0.5c-0.3-0.2-0.6-0.1-0.7-0.1c-0.2,0.1-0.3,0.3-0.3,0.4c0,0,0,0,0,0
				c0,0.2,0.1,0.3,0.2,0.4C13.2,5.1,13,5,12.8,4.9c-0.2-0.1-0.3-0.3-0.3-0.5c0.1,0.1,0.3,0.2,0.4,0.2c0.2,0,0.4-0.2,0.4-0.4
				c0,0,0,0,0-0.1c0-0.2-0.1-0.4-0.4-0.5c0.1-0.2,0.2-0.3,0.2-0.5c0,0,0-0.1,0-0.1c0-0.2-0.2-0.3-0.3-0.4c-0.2-0.1-0.3-0.1-0.5,0
				C12.1,2.8,12,3,12,3.3c-0.3-0.1-0.6,0-0.7,0.2c-0.1,0.2-0.1,0.4,0,0.6c0.1,0.2,0.3,0.2,0.5,0.2c-0.2,0.3-0.5,0.4-0.7,0.4
				c-0.4,0-0.8-0.4-0.9-0.7C10.4,4,10.6,4,10.7,4c0.1,0,0.3-0.1,0.4-0.2c0.1-0.1,0.1-0.2,0.1-0.3c0-0.1,0-0.1,0-0.2
				C11,3.1,10.8,3,10.5,3c0-0.1,0.1-0.2,0.1-0.3c0-0.1,0-0.2-0.1-0.3C10.4,2.2,10.2,2.2,10,2.2z M10.4,2.4c0.1,0.1,0.1,0.3,0,0.6
				c0,0,0,0,0,0c0,0,0,0,0,0c0.3,0,0.5,0.1,0.5,0.3c0.1,0.1,0,0.3,0,0.4c-0.1,0.1-0.2,0.2-0.3,0.2c-0.1,0-0.3,0-0.5-0.2
				c0,0,0,0-0.1,0c0,0,0,0,0,0l0,0c0.1,0.3,0.6,0.8,1.1,0.9c0.2,0,0.6,0,0.9-0.5c0,0,0,0,0,0c0,0,0,0,0,0c-0.2,0.1-0.5,0.1-0.6-0.1
				c-0.1-0.1-0.1-0.3,0-0.5c0.1-0.2,0.4-0.2,0.7-0.2c0,0,0,0,0,0c0,0,0,0,0,0c0-0.3,0.1-0.5,0.2-0.5c0.1-0.1,0.3-0.1,0.4,0
				C12.9,2.8,13,2.9,13,3c0,0.1,0,0.3-0.2,0.5c0,0,0,0,0,0c0,0,0,0,0,0c0.4,0.2,0.4,0.4,0.4,0.5c0,0.2-0.2,0.3-0.4,0.3
				c-0.2,0-0.3-0.1-0.4-0.3c0,0,0,0,0,0c0,0,0,0,0,0c0,0.2,0.1,0.5,0.4,0.7c0.2,0.1,0.5,0.2,0.9,0.1c0,0,0,0,0,0c0,0,0,0,0,0
				c-0.1-0.1-0.2-0.2-0.2-0.3c0-0.2,0.1-0.3,0.2-0.4c0.2-0.1,0.4-0.1,0.6,0.1c0,0,0,0,0,0c0,0,0,0,0,0c0.1-0.3,0.2-0.4,0.4-0.4
				c0.1,0,0.3,0,0.4,0.1c0,0.1-0.7,1.1-0.8,1.2c-0.4,0.3-0.8,0.5-1.2,0.4c-0.4-0.1-0.7-0.3-1-0.7c0,0,0,0,0,0c0,0,0,0,0,0
				C11.7,5,11.4,5.1,11,5c-0.4-0.1-0.8-0.3-0.9-0.6c0,0,0,0,0,0c0,0,0,0,0,0C9.9,4.7,9.5,5,9.1,5c-0.4,0.1-0.7,0-1-0.2c0,0,0,0,0,0
				c0,0,0,0,0,0C7.8,5.2,7.4,5.4,7,5.5C6.6,5.5,6.2,5.4,5.8,5.1c0,0-0.7-1.1-0.8-1.2c0.1-0.1,0.2-0.1,0.4-0.1c0.1,0,0.3,0.1,0.4,0.4
				c0,0,0,0,0,0c0,0,0,0,0,0c0.2-0.2,0.5-0.2,0.6-0.1c0.1,0.1,0.2,0.2,0.2,0.4c0,0.2-0.1,0.3-0.2,0.3c0,0,0,0,0,0c0,0,0,0,0,0
				C6.9,5.2,7.2,5.1,7.4,5c0.2-0.2,0.4-0.5,0.4-0.7c0,0,0,0,0,0c0,0,0,0,0,0C7.6,4.4,7.4,4.5,7.2,4.5C7,4.5,6.9,4.3,6.9,4.2
				c0-0.1,0-0.3,0.4-0.5c0,0,0,0,0,0c0,0,0,0,0,0C7.1,3.3,7,3.2,7.1,3c0-0.1,0.1-0.2,0.3-0.3c0.1-0.1,0.3,0,0.4,0C7.9,2.8,8,3,8,3.3
				c0,0,0,0,0,0c0,0,0,0,0,0c0.3-0.1,0.5,0,0.7,0.2c0.1,0.1,0.1,0.4,0,0.5C8.5,4.1,8.3,4.2,8.1,4.1c0,0,0,0,0,0c0,0,0,0,0,0
				C8.4,4.7,8.7,4.7,9,4.7c0.5-0.1,1-0.7,1-0.9c0,0,0,0,0,0c0,0,0,0,0,0C9.8,3.8,9.8,3.9,9.7,3.9C9.5,4,9.4,4,9.2,3.9
				C9.1,3.8,9.1,3.6,9.1,3.5c0-0.2,0.1-0.3,0.3-0.4c0.1,0,0.2-0.1,0.3-0.1c0,0,0,0,0,0c0,0,0,0,0,0c-0.2-0.4,0-0.6,0.2-0.7
				c0.1,0,0.1,0,0.2,0C10.2,2.2,10.3,2.3,10.4,2.4z"/>
		</g>
		<g>
			<g>
				<circle class="st2" cx="7.7" cy="3.6" r="0.3"/>
				<path class="st1" d="M7.6,3.3c-0.1,0-0.1,0.1-0.2,0.2c0,0.1,0,0.2,0,0.2c0,0.1,0.1,0.1,0.2,0.2c0.1,0,0.2,0,0.2,0
					C7.9,3.9,8,3.8,8,3.7c0,0,0-0.1,0-0.1c0,0,0-0.1,0-0.1C7.9,3.3,7.7,3.2,7.6,3.3z M7.6,3.8c-0.1,0-0.1-0.1-0.1-0.1
					c0-0.1,0-0.1,0-0.2c0-0.1,0.1-0.1,0.1-0.1c0.1,0,0.3,0,0.3,0.1c0,0.1,0,0.1,0,0.2c0,0.1-0.1,0.1-0.1,0.1l0,0
					C7.7,3.8,7.7,3.8,7.6,3.8z M7.8,3.9L7.8,3.9L7.8,3.9L7.8,3.9z"/>
			</g>
			<g>
				<path class="st2" d="M5.8,4.7C5.7,4.6,5.6,4.6,5.5,4.7l0.3,0.5h0C5.9,5,5.9,4.9,5.8,4.7z"/>
				<path class="st1" d="M5.5,4.6C5.5,4.6,5.4,4.6,5.5,4.6C5.4,4.7,5.4,4.7,5.5,4.6l0.3,0.5c0,0,0,0,0,0c0,0,0,0,0,0
					C5.9,5.1,5.9,5,5.9,4.9c0,0,0,0,0,0c0-0.1,0-0.1-0.1-0.2C5.8,4.6,5.6,4.6,5.5,4.6z M5.8,4.8L5.8,4.8c0,0,0.1,0.1,0.1,0.1
					c0,0,0,0,0,0c0,0,0,0.1-0.1,0.1c0-0.1-0.2-0.3-0.2-0.4C5.6,4.7,5.7,4.7,5.8,4.8z M5.8,4.7L5.8,4.7L5.8,4.7L5.8,4.7z"/>
			</g>
			<g>
				<circle class="st2" cx="10" cy="3.2" r="0.3"/>
				<path class="st1" d="M9.7,3.2c0,0.2,0.1,0.3,0.3,0.3c0.2,0,0.3-0.1,0.3-0.3c0-0.2-0.1-0.3-0.3-0.3C9.9,2.9,9.7,3,9.7,3.2z
					 M9.8,3.2C9.8,3.1,9.9,3,10,3c0.1,0,0.2,0.1,0.2,0.2c0,0.1-0.1,0.2-0.2,0.2C9.9,3.4,9.8,3.3,9.8,3.2z"/>
			</g>
			<g>
				<circle class="st2" cx="12.4" cy="3.6" r="0.3"/>
				<path class="st1" d="M12.3,3.3c-0.1,0-0.1,0.1-0.2,0.2c0,0,0,0.1,0,0.1c0,0,0,0.1,0,0.1c0,0.1,0.1,0.1,0.2,0.2
					c0.2,0.1,0.3,0,0.4-0.2c0.1-0.2,0-0.3-0.2-0.4C12.4,3.3,12.3,3.3,12.3,3.3z M12.3,3.8L12.3,3.8c-0.1,0-0.1-0.1-0.1-0.1
					c0-0.1,0-0.1,0-0.2c0-0.1,0.1-0.1,0.1-0.1c0.1,0,0.1,0,0.2,0c0.1,0,0.2,0.2,0.1,0.3C12.6,3.8,12.4,3.9,12.3,3.8z M12.3,3.9
					L12.3,3.9L12.3,3.9z"/>
			</g>
			<g>
				<path class="st2" d="M14.3,4.7c0.1-0.1,0.2-0.1,0.3-0.1l-0.3,0.5l0,0C14.2,5,14.2,4.9,14.3,4.7z"/>
				<path class="st1" d="M14.2,4.7c0,0.1-0.1,0.1-0.1,0.2c0,0,0,0,0,0c0,0.1,0,0.2,0.1,0.2c0,0,0,0,0,0c0,0,0,0,0.3-0.5c0,0,0,0,0,0
					c0,0,0,0,0,0C14.5,4.6,14.3,4.6,14.2,4.7z M14.3,4.9c0-0.1,0-0.1,0.1-0.1v0c0.1-0.1,0.2-0.1,0.2-0.1c0,0.1-0.2,0.3-0.2,0.4
					C14.3,5,14.3,5,14.3,4.9z M14.2,4.7L14.2,4.7L14.2,4.7z"/>
			</g>
		</g>
		<polygon class="st4" points="10.6,5.4 10,5.2 9.5,5.4 10,5.7 		"/>
		<g>
			<polygon class="st5" points="8.2,5.6 7.6,5.6 7.2,6 7.7,6 			"/>
			<polygon class="st5" points="12,5.6 12.5,5.6 12.9,6 12.4,6 			"/>
		</g>
	</g>
</g>
</svg>
