<?xml version="1.0" encoding="utf-8"?>
<!-- Generator: Adobe Illustrator 19.1.0, SVG Export Plug-In . SVG Version: 6.00 Build 0)  -->
<svg version="1.1" id="Layer_1" xmlns="http://www.w3.org/2000/svg" xmlns:xlink="http://www.w3.org/1999/xlink" x="0px" y="0px"
	 viewBox="0 0 500 500" style="enable-background:new 0 0 500 500;" xml:space="preserve">
<style type="text/css">
	.st0{fill:#BFC0C2;}
	.st1{fill:#04559F;}
	.st2{fill:#F4D021;}
	.st3{fill:#FFFFFF;}
</style>
<g>
	<path class="st0" d="M250.5,15c73.7,33.3,136,37.5,202.6,18.8c-0.9,64.9-8.3,152-8.8,218.7c-0.9,114.5-83.3,187.1-193.8,228.9
		C140.1,439.5,57.6,366.9,56.7,252.5C56.2,185.8,48.9,98.7,48,33.8C114.6,52.6,176.8,48.3,250.5,15"/>
	<path class="st1" d="M250.5,15c73.7,33.3,136,37.5,202.6,18.8c-0.9,64.9-8.3,152-8.8,218.7c-0.9,114.5-83.3,187.1-193.8,228.9
		C140.1,439.5,57.6,366.9,56.7,252.5C56.2,185.8,48.9,98.7,48,33.8C114.6,52.6,176.8,48.3,250.5,15"/>
	<path class="st2" d="M251.4,21.9C179.6,54.4,104.8,58,54,40.1c0.9,63.2,8,146.5,8.5,211.4c0.9,111.6,81.2,182.3,188.9,223.1
		c107.7-40.8,188.1-111.5,188.9-223.1c0.5-65,7.7-148.2,8.5-211.4C398.8,58,323.2,54.4,251.4,21.9 M79.7,255.8h343.4
		c-0.4,36.5-10.1,68.1-27,95.4H106.7C89.8,323.9,80.1,292.3,79.7,255.8L79.7,255.8z M251.4,458c-56.3-21.3-104.5-51.7-135.3-93
		h270.6C355.9,406.3,307.8,436.7,251.4,458L251.4,458z M423.3,242H79.5c-1.2-57-6.9-127.3-7.6-180.6c47,12,114.2,6,179.5-23.5
		c65.3,29.5,134.2,35.6,179.5,23.5C430.1,114.8,424.5,185,423.3,242L423.3,242z M423.3,242"/>
	<path class="st2" d="M109.6,95c-5.7-5.1-19.9-9.9-10.6,12.9c2.1,5.3-0.2,8.7,0.4,13.4c1.1,7.9,5.7,7.9,7.5,13.1
		c1.8,5.2,3.5,13.1,7.3,14.4c4.3,1.4,8.9,1.1,12.6-0.4c1.6-0.7,3.1-1.3,4.4-4.3c4.4,4.3,7.5,12.9,6.6,18.5
		c-0.9,5.6-1.8,20.7-1.8,26.3c0,5.6,1.8,21.9-5.3,21.1c-7.1-0.8-14.6,3.9-13.2,9.1c1.3,5.1,7.1,1.3,11.9,0.4
		c4.9-0.8,11.4-0.4,14.1-0.8c2.6-0.4,0.9-4.3,3.6-6.4c2.6-2.2,6.2-10.3,7.5-15.1c1.3-4.7,2.4-13.8,4.6-16.8c4.4,6.9,6,13.3,6.4,17.2
		c0.4,3.9,3.3,10.1,1.5,12.7c-1.8,2.6-9.9,3.7-10.8,6.3c-0.9,2.6,0.5,8.2,5.7,9c5.3,0.8,10.2,1.7,13.2-0.8c3.1-2.6,5.1-5.6,6.4-8.2
		c1.3-2.6,3.3-5.6,3.3-9.5c0-3.9,2.2-27.9,0.9-34.8c7.5,0.4,38.8,0.4,45.9-0.5c7.1-0.8,22.3-7.5,28.5-9.7
		c5.1,10.1,14.3,25.6,18.3,28.6c2.5,1.9,3.3,3.8,2,7.7c-1.3,3.9-7.4,14.1-9.9,13.3c-4.4-1.3-8.8-2.6-13.3,1.7
		c-4.4,4.3-3.5,5.2-3.5,6.9c4.4,0.8,13.3,2.6,18.6,3c5.3,0.4,9.3-1.3,13.7-4.8c4.4-3.4,14.8-16.3,17.4-18.5c2.6-2.2,2.4-6.5-0.2-9.4
		c-2.7-3-4.9-12.9-5.3-16.4c9,6.6,23.9,11.6,29.2,13.3c5.3,1.7,7.1,6.8,7.1,10.3c0,3.5-2,12.9-4.7,14.6c-2.7,1.7-6,0-9.9,2.2
		c-4,2.2-9.3,6-7.5,10.3c1.7,4.3,4.4,4.3,8.3,4.3c4,0,10.6-1.3,15.5-3.4c4.9-2.2,10.6-7.4,12.8-10.4c2.2-3,0.7-10.9,2.4-15.7
		c1.7-4.7,2-10.9,2.4-14c0.4-3-1.8-4.3-4-6c-2.2-1.7-26-22.6-24.7-41.1c4.4,6,18.1,29.4,26,38c7.9,8.6,29.1,28.8,45.9,16.8
		c16.8-12,7.5-28.3,2.2-28c-5.3,0.4-7,0.9-6.6,7.8c0.4,6.9-9.9,9.8-16.8,5.2c-11.9-7.9-33.7-42.7-39.3-54.6
		c-5.3-11.4-18.9-40-64.4-37.8c-45.5,2.1-65.9,10.3-77.7,11.6c-17.9,1.9-30.5-4.7-37.5-4.7h-7.5c-1.3-4.3-6-5-10.4,0.8
		C134.6,93.6,116.7,88.9,109.6,95"/>
	<path d="M203.9,169.4c1.8-1.3-1.5-3-1.9-1.3C201.5,169.8,201.7,169.8,203.9,169.4"/>
	<path d="M399.3,165.5c-5.3,0.4-7,0.9-6.6,7.8c0.4,6.9-9.9,9.8-16.8,5.2c-11.9-7.9-33.7-42.7-39.3-54.6c-5.3-11.4-18.9-40-64.4-37.8
		c-45.5,2.1-65.9,10.3-77.7,11.6c-2.9,0.3-5.7,0.4-8.4,0.3c0.2,2.2,0.9,1.6,2.4,2.1c1.5,0.4,2,2.4,3.7,4.1c1.8,1.7,3.3-3.9,3.7-4.9
		c0.4-1.1,5.7-1.5,7.7-1.9c2-0.4,7.5-1.1,9.5-2.2c2-1.1,5.8-1.1,9-0.8c3.3,0.2,7.3-1.7,10.4-2.4c3.1-0.7,11-1.1,12.6-1.3
		c1.5-0.2,1.5,0.4,1.5,2.2c0,1.7,8.9,2.8,11.3,2.4c2.4-0.4,4.4-3.6,3.7-4.7c-0.6-1.1,0-2.2,0.9-1.5c0.9,0.6,2.9,2.6,3.8,0.8
		c0.9-1.7,4.8-0.4,8.2-0.8c3.3-0.4,7.1,2,9,2c2,0,4-2.8,5.7-2.2c1.8,0.7,2.9,3,3.9,4.3c1.1,1.3,1.1,3.4-0.9,1.5
		c-2-1.9-3.3,0-2.4,1.7c0.8,1.7,5.9,3.9,7.5,3.7c1.6-0.3,3.1-4.8,2.2-6.9c-0.9-2.1,0.9-2.1,2-0.8c1.1,1.3-1.5,4.3-1.3,6.9
		c0.2,2.6,6.2,0.9,7.1-1.9c0.9-2.8,3.3-0.4,1.3,1.7c-2,2.2,3.1,4.5,4,2c0.9-2.6,3.3,0,3.7,1.9c0.5,1.9-2.6,1.1-4.8,3.6
		c-2.2,2.6,3.1,7.3,4,6.9c0.8-0.4,0-5.8,1.1-6.7c1.1-0.9,1.1,5.2,2.2,6.2c1.1,1.1,3.1,3.4,0.9,3c-2.2-0.4-0.9,2.8,0.2,4.1
		c1.1,1.3,2.6,5.8,1.6,6.5c-1.1,0.7-2-0.2-2.4-2.6c-0.4-2.4-2.4-5.1-2.9-3.2c-0.4,1.9,0.7,6,3.6,7.5c0,0,4.8,5.6,3.1,7.1
		c-1.8,1.5-1.5-2.8-4.9-2.8c-3.3,0-4.8,6.2-3.1,10.8c1.8,4.5,3.8-1.1,3.6-3c-0.2-1.9,2-2.3,2.9-1.3c0.9,1.1,2.4,6.5,3.1,8.4
		c0.7,2-1.8,2.2-4.4,2c-2.7-0.2-3.8,5.4-2.4,10.5c1.3,5.2,4.4,2.6,5.9-2.1c1.5-4.7,3.5,0.6,2.9,2.8c-0.7,2.2,2.9,3.7,4,4.7
		c1.1,1.1,4.4,2.4,3.8,5c-0.7,2.6-1.8,5.4,0.9,5.2c2.7-0.3,6.6,0.4,7.9,2.1c1.4,1.7,2.5,3.9,4.6,3.9c2.2,0,4,2.8,1.5,3
		c-2.4,0.2-2,4.7-0.9,5.2c1.1,0.4,3.1-1.3,2.8,0.2c-0.2,1.5-0.4,5.8-2,6.2c-1.5,0.5-2.9-1.3-5.3-1.7c-2.4-0.4-2.7,1.1-3.1,2.4
		c-0.4,1.3,4.4,0,7.3,0.2c2.9,0.2,1.3,4.1,0,4.9c-1.3,0.8-2.5,0.4-4.2-0.2c-1.8-0.6-3.8-1.3-3.1,0.2c0.7,1.5,2.2,3.7,4,1.9
		c1.8-1.7,2.7,1.1,3.5,2.8c0.9,1.7-0.4,2.8,0,5.2c0.4,2.4-2,3.2-2.6,7.6c1.4-1.3,2.5-2.6,3.3-3.6c2.2-3,0.7-10.9,2.4-15.7
		c1.7-4.7,2-10.9,2.4-14c0.4-3-1.8-4.3-4-6c-2.2-1.7-26-22.6-24.7-41.1c4.4,6,18.1,29.4,26,38c7.9,8.6,29.1,28.8,45.9,16.8
		C413.9,181.4,404.6,165.1,399.3,165.5 M324,120.8c-1.8-0.8,0.2-5.2,2.2-6c2.8,0,3.1,3.8,0.6,4.3C324.4,119.5,325.7,121.7,324,120.8
		L324,120.8z M324.8,128.1c-0.2-2.4,3.6-1.3,4.9-2.6c1.3-1.3,2.6,0.8,1.5,3.7C330.1,132,325.5,130.1,324.8,128.1L324.8,128.1z
		 M330.1,138.4c-3.3,0-1.5-4.3,1.1-4.3c2,0.2,3.3-0.9,4.2-3.4c0.9-2.6,2.9,0.8,3.4,2.8c0.4,2,1.3,4.5-1.4,3.2
		C334.8,135.5,333.5,138.4,330.1,138.4L330.1,138.4z M344.7,158.9c-0.9,2.6-2.6,0-2.2-2.4c0.4-2.4,1.3-4.7-2.4-4.5
		c-3.7,0.2-3.7-3.2-0.4-3.9c1.8-0.2,2-0.6,2.4-3.4c0.4-2.8,3.1-2.6,2.9,0c-0.2,2.6-0.2,4.7,2.9,5.4c3,0.7,4.1,5.2,1.3,4.3
		C346.3,153.5,345.6,156.3,344.7,158.9L344.7,158.9z M353.5,166c-4.2,1.7-5.5-3-3.3-4.3C356,159.7,357.7,164.3,353.5,166L353.5,166z
		 M359.7,171.8c11.5,0,7.3,5.4,1.1,5.4C354.6,177.1,354.9,172.2,359.7,171.8L359.7,171.8z M370.3,183.8c-4.9,5.6-8.4,0.7-5.1-3.4
		C372.3,175.2,375.2,178.2,370.3,183.8L370.3,183.8z M383.1,191.1c-5.3,4.3-8.8-1.7-5.3-3.9c4.4-1.3-2.6-5.4,2-5.2
		C384.4,182.3,388.4,186.8,383.1,191.1L383.1,191.1z M393.9,184c-2.4,1.7-4.8-1.3-3.3-3C396.6,178.5,396.4,182.3,393.9,184
		L393.9,184z M393.9,184"/>
	<path d="M341,222.8c-1.6,1.1-3.3,2.2-4.9,2.9c-1.8,0.8-3.7,1.4-5.7,2c2.5,0.2,7,0.8,9.9,1.7c2.9,0.9,0.4,2.4,5.1,2.6
		c4.6,0.2,16.8-0.6,22.5-0.9l0.4-1c-1.3-1.5-6-2.2-11.5-3.2C351.3,225.8,346,223.8,341,222.8"/>
	<path d="M327.4,172.9c1.8-1.3-0.3-9-4.9-4.1C321.3,170.1,318.7,174.1,327.4,172.9"/>
	<path d="M332.8,213.1c-0.4-1.3,0.9-2.6,0.9-3.9c0-1.3,1.7-3.2,1.7-4.7c0-1.5-0.2-2,0.9-3.2c1.1-1.3,2.4-2.4,1.1-2.8
		c-1.3-0.4-0.6-1.1-0.2-4.9c0.5-3.9,2.4-2.4,4.9-3c2.4-0.6,2.6-5.1,0.7-4.7c-2,0.4-4.6,2.6-8,3.5c-3.3,0.8-4.6-3-2.9-3.9
		c1.8-0.9,6.6,1.5,7.9-3.3c1.3-4.7-7.5-3-7.7-1.1c-0.2,2-5.3,4.1-6.8,4.1c-1.5,0-3.9-0.4-4.6-2.1c-0.7-1.7,1.3,0,6.8-3.3
		c5.5-3.2-3.3-5-6.6-4.7c-3.3,0.2-2.7,4.1-4.4,4.7c-1.7,0.6-5-1.3-7.7-1.7c-2.6-0.4-5.8-3.6-6.4-4.7c-0.7-1,1.5-1.7,0.6-3.2
		c-0.8-1.5-4.1-1.5-3.9-0.2c0.2,1.3,1.1,2.6-0.4,1.9c-1.6-0.6-9.5-4.3-15-9c-5.5-4.7-13.2-5.6-15.4-5.6c-2.2,0-8.7,0.2-11.1,0.7
		c-2.4,0.4-3.1,2.5-6,4.5c-2.9,2-2.9-0.6-0.9-2.3c2-1.7,0-3.7-3.8-1.5c-3.7,2.2-2,5.8-4.9,7.5c-2.9,1.7-12.4,3.6-14.5,4.1
		c-2.2,0.4-1.5-1.5-0.5-1.9c1.1-0.4,4.4-2.7,4.9-5.2c0.4-2.3-7.1-0.6-7.5,1c-0.4,1.8-3.8,5.2-7.3,6.5c-3.6,1.3-13.9,0.2-17.4,0.2
		c-3.5,0-2.7-0.2-3.1-1.3c-0.5-1.1,4-4,2.2-5.1c-1.8-1.1-5.8,3-6.9,4.7c-1.1,1.7-2.2,1.1-1.5-0.2c0.7-1.3,2-4.3-0.7-4.9
		c-2.7-0.6-2.2,2-2,4.7c0.2,2.8-2.2,2.8-4.4,3.4c-2.2,0.7-4,0.7-6.2,1.7c-2.2,1-3.5,0.7-4.2,2.8c-0.7,2.2,6,0.9,7.7,0.7
		c1.8-0.2,4,1.5,2.6,3c-1.3,1.5-4-0.6-5.1,0c-1.1,0.7-1.5,2.2-4.4,1.3c-2.9-0.9-3.7-2.2-5.1,0.2c-1.3,2.4,4.2,5.2,5.3,3.7
		c1.1-1.5,6.4-1.7,9.1-0.9c2.6,0.9,2.2,2.4-1.1,3.2c-3.3,0.8-2.4,5.4-0.7,4.5c1.8-0.9,2.4,2.2,1.1,3.6c-1.3,1.5-1.8,3.5-1.1,3.9
		c0.7,0.4,2-1.3,1.8,0.9c-0.2,2.1-1.3,3.2-2.7,4.7c-1.3,1.5-1.1,2.8,0.9,1.7c2-1.1,2.2,2.8,1.1,4.5c-1.1,1.7-1.8,4.7-2,7.8
		c-1.2,1.7-2.6,3.5-4.5,5c11.7,0.6,24-1.7,28.9-2.7c4.9-1.1,8.8-4.1,23.2-3c14.4,1.1,18.3,7.1,20.8,7.1c2.4,0,31.8,0.4,31.8,0.4
		s30.7-0.4,34.5-0.4c-1.1-3.2,0.4-6.3,1.9-6.9c-1.7,2.4,0,6.9,0.9,9.5l2.5,0.2c0,0-0.9-2.3-1.6-5.1c-0.6-2.8,0.5-3.9,2.4-5.4
		c2-1.5,5.7-0.6,3.7,1.1c-2,1.7-0.6,7.3,0.2,9h3.1c0,0-0.9-0.9-2.4-2.8c-1.5-1.9,0-6.2,1.8-7.7c1.7-1.5,1.1-2.8,2.4-2.6
		C330.8,215.2,333.2,214.3,332.8,213.1 M237.6,217.8c-7.7-1.7-19.4-0.9-25.6-0.9c-6.1,0-24.9-0.4-30.2-0.7c1.3-2.6,3.3-5.6,3.3-9.5
		c0-3.9,2.2-27.9,0.9-34.8c7.5,0.4,38.8,0.4,45.9-0.5c7.1-0.8,22.3-7.5,28.5-9.7c5.1,10.1,14.3,25.6,18.3,28.6
		c2.5,1.9,3.3,3.8,2,7.7c-1.3,3.9-7.4,14.1-9.9,13.3c-4.4-1.3-8.8-2.6-13.3,1.7c-4.4,4.3-3.5,5.2-3.5,6.9
		C248.5,220.7,245.3,219.5,237.6,217.8L237.6,217.8z M271.4,222.3c-2.2-0.2-3.7-0.6-3.7-0.6c0.4-1.5,0.7-2.4,1.5-3.4
		c-1.5,0-4.2,1.5-4.4,3.2c-0.2,1.7-2.7-0.2-2.7-0.2s-1.6-3.6,0-5.6c-2,1.3-3.6,4.7-3.6,4.7l-1.8-0.6c1.1-3.2,2.2-8,7.3-7.6
		c5.1,0.4,0.7,1.7,3.8,2.4c3.1,0.6,5.9-3.7,7.3-4.9c1.3-1.3,6.4-11.2,8-12c1.5-0.8,4.4,1.5,7.1-1.1c2.6-2.6,3.9-4.1,6.1-4.1
		c2.2,0,1.6-7.1-2-4.3c-3.5,2.8-8.4,6.3-9.9,5.8c-1.5-0.4-1.1-1.9,0.7-3c1.8-1,4.2-3,3.5-3.8c-0.7-0.9-4,0.4-6.2,0.4
		c-2.2,0-4-1.1-2.4-2.4c1.6-1.3,3.5-2.4,5.3-2.8c1.8-0.4,0.2-4.7-3.3-2.8c-3.6,2-4.4,4.1-5.8,2.8c-1.3-1.3-9.5-11.2-9.5-14.6
		c0-3.4,2.7-1.7,3.4-0.2c0.6,1.5,2.6,2.8,5.1,1.7c2.5-1.1,4-1.1,4.9,0.4c0.9,1.5,0.6,3.9-2.2,3.9c-2.9,0-3.3,2.6-2.5,4.5
		c0.9,2,3.3,1.3,5.7-0.4c2.4-1.7,6.4-4.1,9.1-2.6c2.6,1.5,7.2,5,5.7,6c-1.5,1.1-7.7,0.5-7.7,2.6c0,2.1,0.7,2.8,2.7,2.6
		c2-0.2,5.3-3,6.9-1.3c1.5,1.7,2,3.8,3.3,5.1c1.3,1.3,3.3,4.7,2.2,6.5c-1.1,1.7-2.6,4.5-4.2,4.7c-1.6,0.2-4.2-0.9-4.6,1.1
		c-0.4,2,0,3.4-1.1,4.5c-1.1,1.1-3.7,1.7-4.2,3c-0.5,1.3,0.2,2.2-0.9,3.4c-1.1,1.3-1.9,3.5-3.9,4.5
		C282.2,218.9,273.6,222.5,271.4,222.3L271.4,222.3z M329.8,212.3c-2.7,1.7-6,0-9.9,2.2c-3,1.6-6.7,4.2-7.6,7.2
		c-5.6,0.9-21.1-1.9-27.2-2.3c0.5-0.3,0.9-0.6,1.4-1c4.4-3.4,14.8-16.3,17.4-18.5c2.6-2.2,2.4-6.5-0.2-9.4c-2.7-3-4.9-12.9-5.3-16.4
		c9,6.6,23.9,11.6,29.2,13.3c5.3,1.7,7.1,6.8,7.1,10.3C334.4,201.2,332.4,210.6,329.8,212.3L329.8,212.3z M329.8,212.3"/>
	<path d="M168.9,220c-1,1.2-0.2,3,0.1,4.1c0.3,1.1-0.7,1.3-2.6,1.2c-2-0.1-2.6-3.4-3.7-4.6c-1.1,1-1.2,3-0.6,4.6
		c4.3,0.7,8.3,1.4,11.4,0.3C171.7,225.3,169.9,221.9,168.9,220"/>
	<path d="M161.9,215c-0.2,1.1,2.2,1.1,3.1-0.2c0.9-1.3,2-1.7,2.5-3c0.4-1.3,1.3-1.5,3.1-0.6c1.8,0.9,1.1-2.2-0.6-3.2
		c-1.8-1.1-0.5-3.2-1.4-4.7c-0.9-1.5,0.7-2.2,1.8-3.4c1.1-1.3-1.3-2.2-2.6-3.4c-1.3-1.3,2-0.5,2.9-1.5c0.9-1.1-3.3-1.5-4.4-2.3
		c-1.1-0.9,0.9-2.2,2.2-1.3c1.3,0.9,3.3-1.1,1.3-3.2c-2-2.2-4.4-1.5-5.7-2.2c-1.3-0.6,1.3-1.1,2-1.9c0.6-0.8-0.2-1.9-2-1.9
		c-1.8,0-2.2,0-1.8-1.3c0.5-1.3,2.2-3.9,2-5.2c-0.2-1.3-3.3-2.2-2.7-0.2c0.7,1.9-0.2,3-1.5,1.5c-1.3-1.5-2.4-4.1-3.1-6.5
		c-0.7-2.3-0.9-4.1-3.3-4.5c-2.4-0.4-2.4-2.4-4.6-3.5c-2.2-1.1-4-0.4-6.4-1.7c-2.4-1.3-2.9-0.5-4.6,1.9c-0.9,5.6-1.8,20.7-1.8,26.3
		c0,0.8,0,1.7,0.1,2.8c2.1,1,2.7,1.2,2.9,0c0.1-1.2-1.4-3.2-0.3-4.3c1.1-1.1,3.7-2.2,5.4-0.9c1.7,1.4,6.4,3.8,6.7,1.5
		c0.3-2.2-4.3-3.9-4.9-5.5c-0.7-1.6-5.3-4.5-6.5-4c-1.2,0.5-1.9-2.3-0.9-3.3c1-1.1,2-2.2,1.2-3.5c-0.8-1.4-2.3-5.8,2.4-5.1
		c4.7,0.7,8.6,5.7,7.4,6.4c-1.2,0.6-5.7-2.3-7.1-1.7c-1.3,0.5-1.1,3.4,0.7,5c1.7,1.6,5.3,4.7,6.6,3.7c1.3-1.1,1.3-5.6,4.2-4.6
		c2.9,1,1.3,4.2,0.1,4.1c-1.2-0.1-1.6,2.2-0.6,3.3c1,1.2-0.8,2.7-1.1,3.7c-0.3,0.9,2.8,2.6,2.3,4.1c-0.4,1.5-4.1,3.2-6.5,1.5
		c-2.4-1.7-7.2-5.5-8.1-2.6c-0.9,2.9,0.4,2.6,2,4.2c1.6,1.6,3.5,4.8,6,3.9c2.4-0.8,3.3-1.9,4.6-1.7c1.4,0.2,2,1.1,2,1.1
		c1.3-4.7,2.4-13.8,4.6-16.8c4.4,6.9,6,13.3,6.4,17.2c0.4,3.9,3.3,10.1,1.5,12.7c-1.2,1.7-5.2,2.8-8,4.1
		C161.4,215.3,162.1,213.9,161.9,215"/>
	<path d="M156.4,216.2c0,0-3.6,0.8-6.9,0.8c-3.3,0-3.7,0.6-4.2-1c0.2-1.3,0.4-3,1.8-4.1c1.1-0.8,2.3-2.7,3.4-4.9
		c-1,0.5-1.3,0.3-2.5,1.6c-1.2,1.3-3.3,5.6-4.5,7.6c-1.2,2-2.4,2-4.3,2.2c-1.9,0.3-8.1,0.8-9.1-0.4c-1.1-1.2,1.7-2.9,0.2-2.4
		c-1.4,0.6-1.9,1.9-3.1,2.9c-1.2,1.1-1.9,1.9-2.4,0.6c-0.5-1.4,1.2-3.9,0-2.9c-1.2,1-1.4,1.5-1.8,2.7c-0.3,1.2-2.1,1.5-3.1,0.3
		c-1-1.2-0.3-1.9,0.7-2.2c1-0.2,2.1-1.4,0.8-2.4c-1.3-0.9-0.4-1.5,0.5-2c0.9-0.5,2.6,0.4,3.7-0.3c1.1-0.7,2.1,0.8,4.2,0.8
		c2.1,0.1-0.3-2.4-1.2-3.6c-6.4,0.2-12.3,4.5-11.1,9.2c0.1,0.4,0.3,0.9,0.5,1.2c-2.3,1.3-13.8,6.2-15.9,7.4
		c-2.1,1.3-1.4,2.7,0.8,1.9c2.2-0.7,14.8-3.3,20.9-4.2c6-0.9,21.1-1.6,25.8-1.7c1.7-0.1,5.9-0.1,9.9,0.9
		C156.5,222.4,155.7,218.3,156.4,216.2"/>
	<path d="M103.5,124c-3.5-2-1.8-5.1-1.9-8.8c-0.1-3.7,1.8-8.3,3.3-9.9c1.5-1.6,1.7-6.7-2.5-8.8c-4.2-2.2-3.6,2.1-3.3,2.8
		c0.3,0.7,1,2.2-0.1,2c-1.1-0.2-2.2-4.7-1.2-6.2c1-1.5,1.2-1.5-0.1-3.6c-2.2,1.7-2.7,6.4,1.4,16.4c2.1,5.3-0.2,8.7,0.4,13.4
		c0.7,5,2.9,6.9,4.8,8.9C106.1,128.8,107.1,126.1,103.5,124"/>
	<path d="M107.7,96.5c1.1,2.4,2.1,3.3,3.6,1.6c1.5-1.6,4.6-5.3,6-5.3c1.4,0,2.1,3.4,3.7,4.4c1.7,0.9,4.6,0.9,5.5,0.1
		c0.9-0.8-1.3-1.1-2.7-2.1c-1.3-1-2-2.5-0.3-2.1c1.7,0.3,2.6,2.1,3.9,1.8c1.3-0.3,3.4-0.9,3.6,0.5c0.2,1.5,2.4,3.9,4.5,3.1
		c2.1-0.7,5.1-5.6,6.9-6.5c1.9-1,4.3-1.3,4.1-2.5c-2.1-0.7-4.9,0.4-7.7,4c-4.4,0-22.3-4.7-29.4,1.3c-2-1.8-5-3.6-7.7-4.1
		C103.8,93.2,106.6,94.2,107.7,96.5"/>
	<path d="M128,101.9c-1.8,0.6-3.3,1.9-0.4,2.3C130.4,104.6,129.3,101.9,128,101.9"/>
	<path d="M130.1,113.7c-3.1,0.6-2.7,3.4-3.8,6.3c0.2,1.9,1.1,0,2.2-0.9c1.1-0.8-0.4,0.6,3.5-0.6
		C136.1,117.1,133.2,113.1,130.1,113.7"/>
	<path d="M136.8,124.2c-0.6,1.7,0,4.1-2.2,3.2c-2.9,0.4-3.3,2.4,0,1.9c3.3-0.4,4.8,0.2,4.8-1.7C139.4,125.7,137.4,122.5,136.8,124.2
		"/>
	<path d="M139.7,121.8c-0.7,1.9,0.9,3.2,2.2,1.7C143.2,122.1,142.3,119.9,139.7,121.8"/>
	<path d="M143.4,116.2c1.1-1.9-0.9-3-2-1.9C140.8,116.5,142.3,118.2,143.4,116.2"/>
	<path d="M142,96.5c-0.4,1.5-0.4,2.4-2.4,4.3c-2,1.9,1.5,5.8,3.7,8.8c2.2,3,1.8-2.1,0.9-4.3c-0.9-2.1-0.4-4.1,0.9-7.5
		C146.4,94.4,144.2,93.5,142,96.5"/>
	<path d="M122.4,105.7c1.1-1.1-1.5-2.8-3.7-2.1c-2.6,0.7-1.8,4.3,0.7,4.3C121.8,107.8,121.3,106.8,122.4,105.7"/>
	<path d="M108.3,103.8c-1.7,0.7-1.5,3.2,0.7,2.2C111.2,104.9,109.9,103.1,108.3,103.8"/>
	<path d="M113.8,118.9c0.4,1.3,2.2,2.4,2.4,0.6c-0.2-1.7-0.6-7.1-2.9-7.3c-2.2-0.2-7.3,2.4-2.8,4.3
		C114.9,118.5,113.3,117.6,113.8,118.9"/>
	<path d="M137.4,202.3c0.2-1.5-0.2-6.4-1.1-7.3c0.1,5.1-0.1,11.2-2.4,13.7C136.1,208.5,137.2,203.8,137.4,202.3"/>
	<path d="M147.1,106.6c1.1,1.1,1.5,4.7,0,6.9c-1.6,2.1-1.6,6.2-2.2,10.1c-0.7,3.9-1.3,6.2-5.3,7.7c-4,1.5-4.4,2.7-6.7,4.6
		c-2.3,2-5.1,4.3-8.5,4.2c-3.2-0.1-3.5-1.4-4.7-3.6c-0.1,0-0.3,0-0.4,0c-0.3,1.1-0.7,2.4-2.4,3.1c-2,0.7-3,0.7-4.3-0.9
		c-1.3-1.6-2.4-3.4-5.6-4.3c1.8,5.2,3.5,13.1,7.3,14.4c4.3,1.4,9,1.1,12.6-0.4c1.6-0.7,3.1-1.3,4.4-4.3c3.3,3.2,5.8,8.7,6.5,13.6
		c1.4-2.1,1.4-3.2,3.1-3.6c1.8-0.5,2.2-0.7,2-3.5c-0.2-2.8,1.1-4.3,1.1-2.4c0,1.9,1.1,4.1,2.6,2.1c1.6-1.9,3.1-5.4,1.1-5.4
		c-2,0-4.4-1.3-4-3c0.4-1.7,2-2.6,3.3-4.3c1.3-1.7-2-2.2-1.6-4.1c0.5-1.9,2.9-0.8,4.2-3.4c1.3-2.6,2.6-3.2,2.9-5.8
		c0.2-2.6-1.8-1.7-2.9,1.1c-1.1,2.8-1.5-2.1-0.7-3.5c0.9-1.3,1.3-1.3,4-2.4c2.7-1,3.5-3.6,2.4-4.3c-1.1-0.7-2.6,0.7-3.7,1.9
		c-1.1,1.3-1.3-1.1,0.2-3c1.5-1.9,3.8-2.1,3.8-5.6c0-3.5-1.5-5,0-5.8c1.5-0.9,4.2-3.2,2.9-4.8c-1.3-1.5-2.2-3.4,0.4-3.4
		c2.7,0,3.1,1,3.3,2.5c0.2,1.5,2.4,2.6,4.2,1.5c1.8-1,1.3-3.2,3.4-1.7c2,1.5,1.1,4.9,4.2,6.2c3.1,1.3,3.8-1.5,5.3-2.4
		c1.5-0.8,2.9-2.6,1.5-3.3c-10.9-1.2-18.9-4.7-24-4.7h-7.5c0.9,2.5-0.7,5.8-2.3,7.8C145.5,102.5,146,105.5,147.1,106.6 M116.3,144.4
		c2.4,1.1,6.8,1.9,9.1,0.7C122.2,147,118.7,147.4,116.3,144.4L116.3,144.4z M116.3,144.4"/>
	<path d="M119.7,136.5c1,0,1.8-0.8,3.1-1.7c1.8-1.3,2.7-5.1,0-5.1h-7.1c-4.4,0.6,0.9,5.4,2.7,6.5c0.3,0.2,0.6,0.3,0.9,0.4
		c0-0.2,0.1-0.3,0.1-0.5C119.5,136.2,119.6,136.3,119.7,136.5"/>
	<path d="M189.9,124.2c0.2,4.5-2,5.8,2.9,6.3c4.9,0.4,3.3-1.7,1.5-3.5c-1.8-1.7-0.9-4.9,0.4-3.2c1.4,1.7,2.9,0.8,1.8-2.2
		C193.9,119.3,189.7,119.7,189.9,124.2"/>
	<path d="M191.5,114.6c-0.4,3.2,3.8,3,3.3-1.1c-0.4-4.1,5.1-0.9,4,1.5c-2.9,2.8,1.8,4.3,3.7,1.5c2-2.8-1.5-7.9-4.8-8.8
		C194.3,106.8,191.9,111.4,191.5,114.6"/>
	<path d="M245.5,144c-4.8,3.2-6.2,2.6-6.4,0.2c-0.2-2.4,1.6-4.3,4.4-3c2.4,1.3,4.6-3,1.3-3.6c-3.3-0.7-11.3,2.3-9.1,7.9
		c2.2,5.6,6.4,5.2,10,3.7C249.3,147.7,250.4,140.8,245.5,144"/>
	<path d="M234.1,140.1c0.4-2.3-3.3-5.8-7.9-6.2c-4.7-0.4-7.1,1.3-6.9,6.2c0.7,3,3.6,2.8,3.1-1c-0.5-3.9,2.6-2.4,5.3-2.4
		s3.8,6.9,0.7,7.3c-3.1,0.5-10.1-1.5-4.6,3.5C229.2,152.4,233.6,142.5,234.1,140.1"/>
	<path d="M238.2,116.9c-0.8-7.7-5.5-0.2-1.7,2.4c3.8,2.6,9.3,1.5,13.7-0.2c4.4-1.7-1.6-8.6-4.6-9.2c-3.1-0.7-10.6,1.2-1.8,4.2
		C252.6,117.1,238.2,119.7,238.2,116.9"/>
	<path d="M222.1,131.4c2.2,1.9,3.5-1.9,0.9-4.5c-2.6-2.6-1.1-6.3,1.3-6.3c2.4,0,8.8,2.1,5.7,6c-3.1,3.9-2.9,6.7,0.9,4.9
		c3.7-1.7,5.5-8.8,3.5-10.7c-2-1.9-12.6-4.5-14.1-2.3C218.8,120.6,217.7,129.2,222.1,131.4"/>
	<path d="M224.1,111.6c-4.4-2.3-3.7,3.7,0.7,4.5c4.4,0.9,9.7-2.3,10.1-6c0.4-3.7-8.1-7.7-13-5.8c-4.9,1.9,0.9,5.4,2,2.8
		c2.9-1.5,6.4,0.2,7.3,3.4C232.1,113.7,228.5,113.9,224.1,111.6"/>
	<path d="M211.1,129c-2.9,0.6-1.4,4.1,2.2,4.3c3.5,0.2,3.3-8.2,3.5-11c0.2-2.8-6.2-2.8-9.5-2.8c-3.3,0-6.2,2-6.6,5
		c-0.4,3-1.1,9.4,4.8,9.3c6-0.2,1.5-4.3-1.1-4.3c-2.2,0-1.3-3.6-1.1-5.6c0.2-2,3.3-1.7,3.3,0c0,1.7,1.3,3,2,0.8
		c0.6-2.2,3.3-3.2,4.6-1.5C214.6,124.9,214,128.4,211.1,129"/>
	<path d="M199,134.6c-1.5-2.2-4.2,0.2-3.5,2.5c0.7,2.4-4.7,5-4,0.7c2.6-2.6-2-4.9-3.5-1.9c-1.5,3,1.5,9.9,7.3,7.5
		C201,141,200.5,136.7,199,134.6"/>
	<path d="M195,161.9c3.7-1.9,3.7-6.7-0.4-5.1c-4.2,1.5-4.8,3-6,2.4c-1.3-2.6-7.7-0.2-3.5,1.9C189.3,163.2,191.3,163.8,195,161.9"/>
	<path d="M178.5,166.8c2.5,0.4,6,2.4,6.4-0.2c0.4-2.6-2-3.5-5.3-3.9C176.3,162.2,175.6,166.1,178.5,166.8"/>
	<path d="M182.7,158.6c0.4-2.6-2-3.4-5.3-3.8c-3.3-0.4-4,3.5-1.1,4.1C178.7,159.2,182.3,161.2,182.7,158.6"/>
	<path d="M172.8,173.4c2.6-1.7,5.7-5.2,1.3-4.7C169.7,169.1,168.8,174.1,172.8,173.4"/>
	<path d="M169.9,167.4c4.9,0.6,2.5-3.5,0-4.3C167.5,162.2,165.1,166.8,169.9,167.4"/>
	<path d="M166.8,154.5c-3.3-1.1-6.2,0.6-6.2,2.8c0,2.2,0.9,1.3,2.9,1.9C166.8,160.3,170.1,155.6,166.8,154.5"/>
	<path d="M158.4,163.6c2.4,0.4,5.9,2.3,6.4-0.2c0.5-2.6-2-3.4-5.3-3.9C156.2,159,155.6,162.9,158.4,163.6"/>
	<path d="M157.8,133.2c-0.4-3.2-2.7,0.5-2.7,3.7C155.1,140.9,158.2,136.5,157.8,133.2"/>
	<path d="M155.2,127.5c0.9,3.4,1.1-1.1,3.1,0c2,1.1,2.9-0.7,1.3-2.2C158.1,123.9,155.6,125,155.2,127.5"/>
	<path d="M158.2,110.2c0.9,3.4,1.1-1.1,3.1,0c2,1.1,2.9-0.6,1.3-2.1C161.1,106.6,158.7,107.6,158.2,110.2"/>
	<path d="M161.5,104.4c2,1.7,4.4,0.9,3.8-2.1C164.6,99.3,159.4,102.6,161.5,104.4"/>
	<path d="M166.1,128.3c-0.7-3-5.8,0.3-3.7,2.1C164.3,132.2,166.7,131.3,166.1,128.3"/>
	<path d="M165.9,141.7c-0.4-3.2-2.6,0.4-2.6,3.7C163.3,149.5,166.4,144.9,165.9,141.7"/>
	<path d="M158.7,119.6c0,4.1,3.1-0.4,2.6-3.6C160.9,112.7,158.7,116.4,158.7,119.6"/>
	<path d="M157.2,152c0.9,3.5,1.1-1.1,3.1,0c2,1.1,2.9-0.6,1.3-2.2C160.1,148.4,157.7,149.5,157.2,152"/>
	<path d="M161.3,134.7c-0.2,1.9-0.2,3.7-1.5,4.5c-1.3,0.8-0.4,4.5,1.5,2.8c2-1.7,3.3-3.6,3.3-5.6
		C164.6,134.5,163.1,131.5,161.3,134.7"/>
	<path d="M170.3,124c-0.6-1.7-2.7-5.7-4.4-4.5c-2.4,1.7,4,7.7,5.8,9.2c1.8,1.5,4-0.2,4.2-2.8c0.2-2.6-2.2-4.1-2.4-1.9
		C173.2,126.2,171,125.7,170.3,124"/>
	<path d="M167.6,149.3c2,1.7,4.4,0.9,3.7-2.1C170.7,144.2,165.5,147.6,167.6,149.3"/>
	<path d="M175.9,136c0.4-2.6-2-3.4-5.3-3.9c-3.3-0.5-4,3.4-1.1,4.1C171.9,136.7,175.4,138.6,175.9,136"/>
	<path d="M176.7,149.8c2,1.7,4.4,0.9,3.7-2.2C179.8,144.6,174.6,148,176.7,149.8"/>
	<path d="M180.4,139.5c-1.5-1.5-3.9-0.4-4.4,2.2c0.9,3.4,1.1-1.1,3.1,0C181,142.8,181.9,141,180.4,139.5"/>
	<path d="M187.1,118.2c-0.4-2-3.3-7.8-6.4,2.6c-3.1,10.3,1.8,6.2,2,4.3c1.5-8.8,3.7-1.9,2.6,1.9c-1.1,3.9,1.6,5.8,2.6,3.2
		C189,127.7,187.5,120.2,187.1,118.2"/>
	<path d="M185.8,140.6c-0.4-3.3-2.6,0.4-2.6,3.6C183.1,148.4,186.2,143.9,185.8,140.6"/>
	<path d="M191.7,152.6c-2.2,1.3-0.7,2.6,2.9,1.7c2.2-2.1,2.6-8.2-3.1-8.2c-5.7,0-10.1,4.1-7.3,7.1c2.9,3,5.3,0.7,3.7-1.7
		c-1.5-2.3,0.7-3.2,2.7-2.8C192.6,149.2,193.9,151.4,191.7,152.6"/>
	<path d="M173.6,112.9c0,5.2,1.8,6.9,3.3,8.6c1.5,1.7,2.9-3.5,3.3-6.9c0.4-3.4-0.7-9-3.3-8.6c-2.6,0.4-1.8,3.9-0.4,5.2
		c1.3,1.3,3.3,4.3,1.5,5.4C176.3,117.6,173.8,106.8,173.6,112.9"/>
	<path d="M167.2,102.5c-2,1.1-0.7,3.2-1.8,5.4c-1.1,2.2-2.3,5.7,0.2,7.6c0.9,0.6,2.2,1,5.3,1c3.1,0,0.7-2.4-0.9-5.6
		c-1.5-3.2-1.5-2.6-0.7-7.3C170.3,98.8,169.2,101.4,167.2,102.5"/>
	<path d="M156.9,143.8c0.4-2.6-2-3.4-5.3-3.9c-3.3-0.4-4,3.4-1.1,4.1C152.9,144.4,156.4,146.3,156.9,143.8"/>
	<path d="M148.1,153.4c-2,1.1-7.3,1.3-5.7,3.2c1.5,1.9,3.7,3,7.8,3.4c3.9,0.5,3.3,0,4.6-3c1.3-3,1.3-3.7-0.9-6
		c-2.2-2.4-6.9-1.3-4.9,0.3c2,1.5,4.9,3,3.3,4.3C150.7,156.9,150.5,154.5,148.1,153.4"/>
	<path d="M215.5,138.6c-2.2-4.5-11.7-0.4-14.1,1.5c-2.4,2-5.9,6.5-0.2,9.5c5.8,3,2.7-6,4.2-8c1.6-1.9,6.2-3.2,7.7-1.3
		c1.5,2,2.7,5.8-2.9,6.7c-5.5,0.8-2.4,3.4,0.7,2.8C218.6,149.8,217.7,143.2,215.5,138.6"/>
	<path d="M213.1,166.2c2.7-1.3,0.7-4.1-1.5-2.8C209.3,164.7,209.8,166,213.1,166.2"/>
	<path d="M202.1,159.7c-3.5,0.9-2,2.6,2.2,3.4C209.6,161.7,205.6,158.9,202.1,159.7"/>
	<path d="M210.7,157.1c1.5-1.7-1.1-2.1-1.3-4.1c-0.2-1.9-2.9-1.3-4.6-1.5c-4.9-0.2-0.9,1.5,1.8,3.8
		C209.1,157.8,209.1,158.9,210.7,157.1"/>
	<path d="M219.5,160.8c4.6,0.4,5.3-2.2,0.6-2.8C216,157.5,214.9,160.4,219.5,160.8"/>
	<path d="M223.9,154.4c0.9,2.4,4.2,3,5.7,0c1.5-3-6.8-6.2-11.9-3.2c-5.1,3,0.5,5.6,2,3.4C219.9,152.9,223,152,223.9,154.4"/>
	<path d="M235.7,163c-0.5,1.7-0.2,1.7,2,1.3C239.5,163,236.2,161.2,235.7,163"/>
	<path d="M244.7,155.6c3.5-2.6,0-3.4-2.4-2.1c-2.4,1.3-2.8,1.1-5.3-1.3c-2.4-2.4-5.1,1.3-3.5,3.2
		C237.6,158.2,241.1,158.2,244.7,155.6"/>
	<path d="M256,105.8c-6.4,8-0.6,12.5,5.7,12.9c6.4,0.4,8.2-10.3,6.2-13.3c-2-3-5.3,1.3-3.3,3.4c2,2.2,0.2,5.6-3.3,6.2
		c-3.5,0.7-5.3-2.5-2.2-6.4C262.2,104.7,258.2,102.8,256,105.8"/>
	<path d="M286,98c-4.2-0.8-7.3,2.8-9.1,7.3c-1.8,4.5,5.8,1.9,4.9-0.5c3.1-5.8,10.4,0.5,6.4,3.5c-3.9,3,0.2,5.6,4.9,1.9
		C297.7,106.6,290.2,98.9,286,98"/>
	<path d="M293.5,117.4c-2.4,3.9,1.1,7.7,2.8,4.5c0-3.4,1.3-2.4,3.1,0c1.8,2.4,3.3-1.7,0.9-4.5C297.9,114.6,295.9,113.5,293.5,117.4"
		/>
	<path d="M297.7,107.9c-0.9,3.7,2.6,3,3.5,0.2c0.9-2.8,7.3,0.9,3.7,2.4c-3.5,1.5-2.6,7.5,2,7.3c4.7-0.2,3.1-8.2,0.7-12.5
		C305.2,101,298.6,104.3,297.7,107.9"/>
	<path d="M313.2,123.2c-3.8-4.5-7.3-1.1-5.7,4.1c1.1,1.3,2.4,5.4,5.7,4.3C316.4,130.5,316.9,127.7,313.2,123.2"/>
	<path d="M313.6,174.8c6.6-2.5,4.2-4,3.1-7.1c-1.1-3-5.1-1.1-5.9,1.9C308.3,171.1,306.9,177.4,313.6,174.8"/>
	<path d="M303.4,149.6c-1.5-5.4-3.3-8.6-4.6-4.1c-1.4,4.5-3.8,5.2-0.9,8.4C300.8,156.9,305,155,303.4,149.6"/>
	<path d="M296.6,165.1c5.1,0,3.3-3.7,2-6.5c-1.3-2.8-4.6-1.9-5.1,0.9C291.1,161.7,291.5,165.1,296.6,165.1"/>
	<path d="M294.8,151.6c0.2-3.2-6.6-2.6-7.3-0.2C289.8,155.4,294.6,154.8,294.8,151.6"/>
	<path d="M288.2,162.3c2.7-0.4,3.1-4.9,0.2-5.8c-2.9-0.9-4.2-1.5-4.6,1.9C284.2,159.5,285.6,162.7,288.2,162.3"/>
	<path d="M285.6,138c-1.8,2.4-1.1,2.4-0.4,4.7c0.6,2.2,2,1.3,2.8-2.4C288.9,136.7,287.3,135.7,285.6,138"/>
	<path d="M290.6,144.5c1.3,1.9,4,2.6,5.7,0c1.8-2.6-1.5-3.9-2.6-2.6C292.6,143.2,289.1,138,290.6,144.5"/>
	<path d="M297.3,137.1c1.3-3.6-3.3-2.7-5.5-0.4C293.3,138.9,295.9,140.8,297.3,137.1"/>
	<path d="M296.8,126.6c-1.1,1.3-4-1.1-4.2,2.4c0.6,2.8,8.6,3.7,8.6,0.2C301.2,125.8,297.9,125.3,296.8,126.6"/>
	<path d="M300.3,135c-1.1,2.8-0.9,7.3,3.3,5.1c4.2-2.1,4.6-4,3.5-7.5C306.1,129.2,302.3,133.3,300.3,135"/>
	<path d="M305.1,156.9c-0.4,1.7-0.2,1.7,2,1.3C308.8,156.9,305.5,155.2,305.1,156.9"/>
	<path d="M312.5,158.4c0.2-2.8,1.1-14.2-0.7-16.1c-1.8-2-6.4,4.9-4.9,9.7C308.1,155.4,312.2,161.2,312.5,158.4"/>
	<path d="M284.7,121.2c3.5-0.6,6.2-1.3,2-3.4c-2.9,0.2-7.1,3.4-6.6,8.8c0.4,5.4,1.3,5.4,5.3,5.6c4,0.2,4-0.9,4.9-3.8
		c0.9-3-2.9-3.5-4-1.1C285.1,129.6,281.1,121.9,284.7,121.2"/>
	<path d="M270.1,120.8c-0.2-3.9-6.5-3.2-3.6,2.8c2.9,6,7.7,0.4,11.5-2.6c3.7-3,3.7-7.5,0-9.5c-3.8-1.9-11.7,2-7.9,3.2
		c3.7,1.3,6.4-2,6.8,0.9C277.4,118.5,273.2,123.4,270.1,120.8"/>
	<path d="M282.7,137.1c0.4-2.7-6.6-8.1-11.5-9c-4.8-0.8-7.3,4.9-5.7,10.1c1.5,5.2,4.9,0.4,2.9-1.7c-1.8-2.8,2.2-4.3,5.3-4.1
		c3.1,0.2,6.6,5.2,2,6.7c-4.6,1.5-5.1,4.7,0.2,3.6C281.1,141.6,282.2,139.9,282.7,137.1"/>
	<path d="M274.5,155.2c0.2-0.9-0.6-1.7-1.4-2.3c0.6-0.3,0.8-1.4,0.1-3.5c-1.1-3.2-4.4,0.6-4.4,4.5
		C269.9,155.4,274.1,157.1,274.5,155.2"/>
	<path d="M267.2,144.3c-2.4,1.3-2.6,3.6,0.9,2.2C271.6,144.9,269.7,143,267.2,144.3"/>
	<path d="M266.2,152.9c1.8-1.3-1.6-3-2-1.3C263.8,153.3,264,153.3,266.2,152.9"/>
	<path d="M261.6,147.7c-0.4,1.7-0.2,1.7,2,1.3C265.4,147.7,262.1,146,261.6,147.7"/>
	<path d="M261.1,155.6c4.2-0.2-0.7-5.8-3.8-4.1C256.4,153.9,256.8,155.9,261.1,155.6"/>
	<path d="M250.2,151.4c-0.4,1.7-0.2,1.7,2,1.3C254,151.4,250.6,149.6,250.2,151.4"/>
	<path d="M256.8,145.1c-3.5,0.9-3.5,3,0.9,3.4c4.4,0.5,6-6.9,4.4-9c-1.6-2.2-5.1-3.9-9.1,0.2c-4,4.1,2.6,4.9,3.1,2.1
		C260.2,137.6,260.4,144.3,256.8,145.1"/>
	<path d="M278.7,152.9c-3.5,0.4-2.9,3-0.7,3.4c2.2,0.4,6.2-3.7,6.8-7.1c0.7-3.5-3.7-7.4-8-4.1c-4.2,3.2,0.9,3.9,1.3,2.4
		C282,145.3,282.2,152.4,278.7,152.9"/>
	<path d="M305.6,170.1c4.2,0.4,4-4.7,2.9-7.1c-1.1-2.3-3.8-1.7-6.2,0.2C302.5,165.5,301.4,169.6,305.6,170.1"/>
	<path d="M275.2,97.8c-3.3,1.5-9.5,2.4-10.4,0c-0.9-2.4-5.8-3.2-6,0c2,3,6,4.3,11.7,3.9c5.7-0.4,9.7-2.4,10.1-5.6
		c0.5-3.2-7.2-6.2-11.2-4.7c-4,1.5-4.4,3.4,0.2,3C274.3,93.9,278.5,96.3,275.2,97.8"/>
	<path d="M252,132.4c-4.2,0.4-8.2-4.1-3.4-6.7c4.9-2.6-0.6-4.5-4.9-1.9c-4.2,2.6-6.8,6.4-4,7.7c2.9,1.3,15.5,4.7,20.1,2.2
		c4.6-2.6,3.7-10.1-2-12.3c-5.8-2.1-6.6,2.4-1.8,3C261.5,126.2,256.2,132,252,132.4"/>
	<path d="M246.2,104.3c-2.2,1.3-7.1,2.1-7.1-0.6c0-2.8-3.3-3.2-3.5-0.9c0.2,1.5,0,3.2,3.1,5.8c3.1,2.6,13.3-2.2,13.9-6.2
		c0.7-4.1-7.3-8.2-12.4-6.7c-5.1,1.5-0.2,3.5,2.9,2.8C246.2,97.8,248.4,103,246.2,104.3"/>
	<path d="M218.6,96.9c-5.1,4.3,7.1,4.9,13,4.7c6-0.2,6.8-8.6,4-8.8c-2.9-0.2-9.7,1.3-4.8,2.4c4.8,1-9.5,4.7-8,3.2
		C224.4,96.9,221.3,95.2,218.6,96.9"/>
	<path d="M214,112.4c0,0-8.1-1.3-5.5-3.2c2.7-2-4.4-6.2-4.6,0.4c-0.2,6.7,4.6,7.5,8.8,6.5c4.2-1.1,5.1-2.8,5.7-6.7
		c0.7-3.9-2.6-9-6.2-6.9c-3.5,2.1-1.8,3.2,0.7,3.8C215.3,107.1,216.2,111.4,214,112.4"/>
	<path d="M197.2,104.9c5.1,2.4,8.8,0,11.7-2.1c2.9-2.1-0.9-4.8-3.5-3.9c-2.7,0.9,0.5,1.7,0.2,2.8c-0.2,1.1-5.5,3-5.3-0.2
		C201.4,99.5,192.1,102.5,197.2,104.9"/>
	<path d="M180.9,108.1c2.9,3,4.6,6.7,6.8,6.5c2.2-0.2,3.3-3,3.3-6.2c0-3.2-3.6-7.3-5.1-6c-1.5,1.3-1.8,2.5-0.4,4.9
		c1.3,2.4-0.7,3.5-2.4-0.2c-1.8-3.7,1.3-6.7-1.5-6.3C178.9,103,178,105.1,180.9,108.1"/>
	<path class="st3" d="M106.6,351.3c-16.9-27.5-26.7-59.3-27-96h343.5c-0.3,36.7-10,68.5-27,96"/>
	<path class="st1" d="M207.3,267.9v49.8c0,6.3-1.6,15.9-13.9,21.7c-4.6,2-10,3-15.2,3c-5.2,0-10.3-0.9-14.3-2.4
		c-12.3-6.6-15.4-15.1-15.4-22.3v-49.8h15.2v50c0.2,4.6,1.6,11.6,14,11.6c12.1,0,14.2-7,14.2-11.6v-50"/>
	<path class="st1" d="M285.7,340h-15.5l-5.1-14.4h-27.5l-5.2,14.4h-15.6l25.8-72.2h17.6 M242.4,313.2h19.1l-9.9-28L242.4,313.2
		L242.4,313.2z M242.4,313.2"/>
	<path class="st1" d="M354.7,326.9v15.5L311,311.5V340h-15.2v-72.2h41.1c7.4,0.3,15,3.7,17.1,11.5c1,3.1,2.5,8.3,0.7,14.5
		c-1.9,6.3-4.9,16.1-22,17 M311,299.2h20.8c3.6,0,10-3.7,9.1-10.8c0-5.2-2.5-8.1-9.2-8.1H311V299.2L311,299.2z M311,299.2"/>
</g>
</svg>
