<?xml version="1.0" encoding="utf-8"?>
<!-- Generator: Adobe Illustrator 19.1.0, SVG Export Plug-In . SVG Version: 6.00 Build 0)  -->
<svg version="1.1" id="Layer_1" xmlns="http://www.w3.org/2000/svg" xmlns:xlink="http://www.w3.org/1999/xlink" x="0px" y="0px"
	 viewBox="0 0 500 500" style="enable-background:new 0 0 500 500;" xml:space="preserve">
<style type="text/css">
	.st0{fill-rule:evenodd;clip-rule:evenodd;fill:#077D67;}
	.st1{fill:#077D67;}
	.st2{fill:#EDB31F;}
</style>
<g>
	<path class="st0" d="M482.9,420c-1.4,0-2.7,0.5-3.7,1.5c-1,1-1.6,2.4-1.6,3.8c0,1.4,0.5,2.7,1.5,3.7c1,1,2.3,1.6,3.7,1.6
		c1.4,0,2.7-0.5,3.7-1.5c1-1,1.5-2.3,1.5-3.7c0-1.4-0.5-2.7-1.5-3.7C485.7,420.5,484.4,420,482.9,420 M482.9,420.8
		c1.2,0,2.3,0.5,3.2,1.3c0.8,0.9,1.3,2,1.3,3.2c0,1.2-0.5,2.3-1.3,3.1c-0.9,0.9-2,1.3-3.2,1.3c-1.1,0-2.2-0.5-3.1-1.3
		c-0.8-0.9-1.3-2-1.3-3.2c0-1.2,0.5-2.3,1.4-3.2C480.7,421.2,481.7,420.8,482.9,420.8L482.9,420.8z M480.8,422.2v5.9h1.3v-2.5h0.9
		l1.2,2.5h1.4l-1.3-2.7c0.8-0.2,1.3-0.8,1.3-1.6c0-1-0.8-1.6-2.5-1.6L480.8,422.2L480.8,422.2z M482,423h0.8c1,0,1.4,0.3,1.4,0.9
		c0,0.7-0.4,0.9-1.4,0.9H482V423L482,423z M482,423"/>
	<polyline class="st1" points="13.8,421 33.5,421 33.5,452.5 33.6,452.5 47.9,421 64.2,421 65,452.5 65.1,452.5 78.5,421 98.2,421 
		72.1,472.6 52.1,472.6 51.2,444 51,444 37.9,472.6 17.9,472.6 	"/>
	<path class="st1" d="M128.6,456.4c-1.4,6.8-8.5,8.3-14.6,8.3c-4.5,0-6.4-1.7-5.8-4.5c0.5-2.5,2.4-3.6,5.7-3.9
		c6.6-0.6,11.8-1,14.9-1.7 M113,445.1c1.7-3.8,5.9-4.5,10.1-4.5c5.1,0,8.1,1.2,7.6,3.8c-0.5,2.2-1.9,3-5.5,3.3l-15.4,0.7
		c-13.5,0.6-19.6,5.2-21.1,12.4c-2.2,10.1,4.8,13.4,17,13.4c9.6,0,16.1-1.7,21-5.5c-0.2,1.5-0.3,2.8-0.2,3.9h18.5
		c-0.6-1.3-1-3.1-0.4-6.1l4.1-19.1c2.5-11.8-3.9-15.9-22.3-15.9c-9.5,0-16.3,0.7-21.1,2.7c-4.9,2.1-7.9,5.4-10.1,10.8L113,445.1
		L113,445.1z M113,445.1"/>
	<polyline class="st1" points="163.1,419.2 181.1,419.2 169.8,472.6 151.7,472.6 	"/>
	<polyline class="st1" points="189.8,419.2 207.9,419.2 196.5,472.6 178.4,472.6 	"/>
	<path class="st1" d="M244.9,456.4c-1.4,6.8-8.5,8.3-14.6,8.3c-4.5,0-6.3-1.7-5.8-4.5c0.5-2.5,2.4-3.6,5.7-3.9
		c6.6-0.6,11.8-1,15-1.7 M229.4,445.1c1.7-3.8,5.9-4.5,10.1-4.5c5.1,0,8.1,1.2,7.6,3.8c-0.5,2.2-1.9,3-5.5,3.3l-15.4,0.7
		c-13.5,0.6-19.6,5.2-21.1,12.4c-2.2,10.1,4.8,13.4,17,13.4c9.6,0,16.1-1.7,21-5.5c-0.2,1.5-0.3,2.8-0.2,3.9h18.5
		c-0.6-1.3-1-3.1-0.4-6.1l4.1-19.1c2.5-11.8-3.9-15.9-22.3-15.9c-9.5,0-16.3,0.7-21.1,2.7c-4.9,2.1-7.9,5.4-10.1,10.8L229.4,445.1
		L229.4,445.1z M229.4,445.1"/>
	<path class="st1" d="M290.3,453.1c1.2-5.6,4.9-8.9,11.9-8.9c6.5,0,9,3.9,7.9,8.9c-1.1,5.2-4.8,9-11.8,9
		C291.3,462.1,289.1,458.7,290.3,453.1 M268.1,472.6h17.5l0.9-4.2h0.1c2.5,3.8,7,5.8,15,5.8c11.7,0,23.9-6.4,27-21.1
		c3.1-14.7-6.3-21.1-18-21.1c-7.4,0-13,1.8-16.9,5.6h-0.1l3.9-18.3h-18.1L268.1,472.6L268.1,472.6z M268.1,472.6"/>
	<path class="st1" d="M339.3,433.1h18.1l-8.4,39.5h-18.1 M342.3,419.2h18.1l-2.1,10h-18.1L342.3,419.2L342.3,419.2z M342.3,419.2"/>
	<path class="st1" d="M379.2,448c2-5,6-6.9,12.3-6.9c6.2,0,9.8,2.7,9.2,6.9 M396.8,460.8c-2.5,2.5-5.4,3.5-10.1,3.5
		c-8,0-10-4.3-9.4-7.1H417c4.5-19.7-7.1-25.6-24.6-25.6c-17.8,0-29.8,7.7-32.7,21.3c-3.1,14.4,6.3,21.4,25.3,21.4
		c8.3,0,14.8-1.3,19.9-3.6c5.1-2.3,8.9-5.7,11.1-9.8L396.8,460.8L396.8,460.8z M396.8,460.8"/>
	<path class="st1" d="M435.8,456.9c-10.2-1.1-12.4-5.3-10.9-12.1c2-9.3,11.5-13.3,29.1-13.3c12.3,0,25.3,2.2,23.3,13.4h-20.4
		c0.2-1,0-1.9-0.9-2.5c-0.9-0.6-2.5-1-5.1-1c-5.4,0-6.7,1.2-7,2.8c-0.2,1,0.5,2.1,4.3,2.5l16.9,1.5c9.6,0.9,12.3,5.2,10.9,11.9
		c-2.2,10.2-11.8,14.1-30.9,14.1c-18.8,0-26.1-3.9-24.6-13.9h21.2c-0.1,1.6,0.5,2.6,1.6,3.2c1.2,0.6,3,0.7,5,0.7
		c4.6,0,6.3-1.2,6.6-3c0.3-1.2-0.1-2.2-1.9-2.5"/>
	<path class="st2" d="M487.6,179.7c-5.4-14.8-36-22.2-64.9-11.7c-3.2,1.1-6.2,2.5-9,3.9c-12.8,1.1-25.5,3.1-38,3.7
		c16.2-30.7,3.7-49.3,0.6-53.3c-0.4-0.7-1.2-1.1-2-1.1c-66.6,3.2-96.7,21.2-119.6,46.7c-11.5,12.7-19.3,27.3-25.4,42.6
		c-6.1,15.3-14.5,35.5-19.2,51.6c-18.6,63.9-47.5,112.7-192.7,123.6c-2,0-3.6,1.6-3.6,3.6c0,1.7,1.2,3.1,2.7,3.5l0.5,0.1
		c148.5,26.8,199.6-67.2,215.8-74.8c60.7-26.4,69.6,29,8.2,55.4c-0.9,0.3-1.5,1.2-1.5,2.1c0,1.3,1.1,2.3,2.6,2.3
		c101.8-15.5,72.4-117.4-8.2-75c7.7-17.5,20.9-137.9,111.6-145.8c3.6-0.2,8.3-0.2,10.3,2.9c1.4,2.1,0.6,6,0.3,8.4
		c-0.5,2.8-2.2,6.5-4.4,10.6c-4.5,8.2-10.9,17.2-12.9,21.3c-0.2,0.4-0.2,0.8-0.2,1c0,1.3,1,2.3,2.3,2.3c0.3,0,0.7-0.1,1-0.2
		c8-3.7,16.5-6.4,25.3-8.5c7.5-1.8,15.2-3.2,22.7-4.5c-8.2,9.7-12.1,20.4-9.3,28.2c5.4,14.8,36,22.3,64.9,11.7
		C474.3,219.9,493,194.5,487.6,179.7 M418.1,195.3c-1.2,0.7-3.2-0.2-4.4-2.3l-2.4-4.2c-1.2-2.1-0.8-4.2,0.4-4.9
		c1.2-0.7,3.2,0.2,4.4,2.3l2.4,4.2C419.6,192.5,419.3,194.7,418.1,195.3L418.1,195.3z M425.9,190.4c-1.2,0.7-3.2-0.2-4.4-2.3
		l-2.3-4.2c-1.2-2.1-0.8-4.2,0.4-4.9c1.2-0.7,3.2,0.2,4.4,2.3l2.4,4.2C427.5,187.6,427.1,189.8,425.9,190.4L425.9,190.4z
		 M433.7,185.5c-1.2,0.7-3.2-0.2-4.4-2.3L427,179c-1.2-2.1-0.8-4.2,0.4-4.9c1.2-0.7,3.2,0.2,4.4,2.3l2.3,4.2
		C435.3,182.7,434.9,184.8,433.7,185.5L433.7,185.5z M392.2,96l-0.2,3.6c0,0.8-0.7,1.4-1.5,1.4c-0.2,0-0.4-0.1-0.6-0.1
		c-18.7-9.2-32.6-37.1-34.3-70.9c0-1.8,1.4-3.3,3.2-3.3c0.5,0,0.9,0.1,1.3,0.3c1.5,0.7,3,1.4,4.5,2.1c13.5,6.6,25.1,15.6,34.1,24
		c8.9-8.3,20.6-16.4,34-22.9c3-1.4,5.7-2.7,8.6-3.9c0.4-0.2,1-0.4,1.5-0.4c1.5,0,2.8,1,3.2,2.4c1.5,6.4,0.6,16-2.8,25.9
		c-1.9,5.5-4.5,10.5-7.1,14.5c0.1,10.9-2.8,24.8-8.9,39.1c-6,14.1-13.9,25.8-21.7,33.3c-0.6,0.7-1.5,1.1-2.5,1.1h-7.6
		c-0.8,0-1.4-0.6-1.4-1.4c0-0.5,0.3-1,0.7-1.2c5.1-3.3,8.6-6.7,8.9-13.5c0.9-14.6,6.1-27.4,15.2-38.3c3.8-3.8,4.7-11.7,4.7-18.4
		c0-1.1-0.1-2-0.2-2.7c-0.2-1.3-1.3-2.2-2.6-2.2c-0.6,0-1.1,0.2-1.6,0.5c-5.5,4-12.8,5.3-20.2,5.3c-5.3,0-10.4-1.8-14.8-4.4
		c-0.4-0.2-0.9-0.4-1.4-0.4c-1.5,0-2.7,1.2-2.7,2.7c0,0.2,0,0.4,0,0.6c1,11.1,5.6,20.6,11.9,26.3C392,95.2,392.2,95.6,392.2,96
		L392.2,96L392.2,96z M298,251.5c-8-2.6-14-9.9-14-18.7c0-8.9,5.9-16.3,14.1-18.7c3-0.8,6.4-1.3,10.2-1.3
		c48.5,1,133.1,76.1,18.7,144.9c-0.3,0.2-0.7,0.3-1.1,0.3c-1.3,0-2.3-1-2.3-2.3c0-0.6,0.2-1.1,0.6-1.6c43.1-51,34.3-69.6,25.3-80.7
		C335.2,255.9,316.9,256.3,298,251.5L298,251.5z M435.8,381.2c-14.1-0.6-108.9-7-150.9,26.6c-8.1,6-15.3,4.6-18.9-0.1
		c-3.4-4.6-3-11.8,3-16.2c37.7-37.8,151.1-23.3,166.8-21c2.9,0.4,5.1,2.6,5.1,5.4C440.9,378.7,438.6,381,435.8,381.2L435.8,381.2z
		 M435.8,381.2"/>
</g>
</svg>
