<?xml version="1.0" encoding="utf-8"?>
<!-- Generator: Adobe Illustrator 19.1.0, SVG Export Plug-In . SVG Version: 6.00 Build 0)  -->
<svg version="1.1" id="Layer_1" xmlns="http://www.w3.org/2000/svg" xmlns:xlink="http://www.w3.org/1999/xlink" x="0px" y="0px"
	 viewBox="0 0 500 500" style="enable-background:new 0 0 500 500;" xml:space="preserve">
<style type="text/css">
	.st0{fill:#FFFFFF;}
	.st1{fill:#B22F25;}
</style>
<g>
	<path class="st0" d="M218.1,80c1.9-1.1,3.7-2.8,5.4-5.3c3.1-4.6,5.3-11.6,5.3-20.6c0-9.5-2.4-21.3-8.8-34.9
		c-0.1-0.1-1.6-4.1-3.3-7.5c50.1,9.2,59.8,40,63.9,54.9c1.7,6.1,2.7,9.7,4.9,11.2c1.8,1.2,4.5,1,6.7,0.4
		c6.7-1.9,13.3-11.5,16.9-19.1c0,0,2.7-5.2,4.5-9.3c1.4,4,3.9,12.5,3.9,23v0.7c-0.2,16.5-5,31-9.2,43.9l-0.8,2.4l-1.3,3.7
		c-2,5.3-3.5,9.7-3.5,12.7c0,1.4,0.4,2.6,1.2,3.3c0.7,0.6,1.4,0.7,1.9,0.6c1.8-0.3,3.1-2.6,5.3-6.4c2.9-4.9,7.2-12.3,14.4-17.9
		c6.8-5.2,15.3-6.6,18.8-6.9c-1.1,3.5-3,10.4-3,15.5c0,2.4,0.4,4.4,1.5,5.5c1.2,1.2,3.7,1.2,6.7,0c7.7-2.9,20.8-14,23.9-37.3
		c1.9,2.8,5.2,7.6,5.2,7.6c8.2,13.1,10.8,26.6,10.8,38.9c0,12.9-2.8,24.4-4.8,32.4l-0.3,1.2c-0.7,2.6-1.4,5.4-1.4,7.7
		c0,1.6,0.4,2.9,1.3,3.7c2.5,2,6.3,1.6,7.8,1.3c7.3-1.4,15.2-9,19.7-15.4c0,0.3,0,0.7,0,1c0,13-2.5,24.2-7.7,34.8
		c-10.8,21.9-30.1,32.7-44.2,40.7l-4,2.3l-3.4,1.9c-7.3,4.1-11.8,6.7-12.3,9l0,0.6c1.5,5.3,16.4,6.4,34,2.5c0,0,6.9-1.5,10.9-2.3
		c-1.2,2-2.8,4.6-6.3,9.6c-13.1,18.5-41.9,22-57.1,19.8c0,0-3.9-0.6-3.9-0.6l6.1,6.2c4.1,4.2,10.1,10.3,16.5,15.7
		c-14.6-1.2-31.3-7.9-40-14.4l-0.2-0.2l-11.5-2.4l-3.5-0.8c-7-1.5-14.2-3.6-21.5-6.3l-1.5-0.6l-0.1,1.6c-0.7,10-2.2,25.2-5.1,40.4
		c-8.4,43.3-15.1,45.8-17.6,46.7c-4.8,1.7-7.9-1.9-10.3-5.7c-1-1.6-1.6-2.5-2.1-2.9c-2.8-1.8-6.2-5.3-6.2-11.7
		c0-1.8,0.3-3.8,0.8-5.8c0.9-3.4,3.3-7.6,6.1-12.5c3.4-6,7.3-12.8,9.2-19.4c2.3-8,4.4-17.3,6.1-26.3l0.4-2.2l-2.1,0.8
		c-2.1,0.8-13,4.4-22.7,6.1c-12.4,2.1-21.1,2.4-25.6,2.7c6-5.1,7.4-6.5,7.4-7.4c0-0.2-0.1-0.4-0.1-0.5c-0.1-0.2-0.4-1-1.5-1
		c-3.2,0-18-1.3-26.3-4.6c-8.3-3.3-20.3-2.6-30,1.6c3.8-15.3,12.9-18.9,20.3-21.7l3.1-1.2l2-0.8c3-1.2,6.2-2.5,7.6-3.9
		c0.6-0.5,0.9-1.2,0.9-1.9c0-0.2,0-0.3,0-0.5c-0.6-3.3-8.1-6.5-21.8-11.3l-0.7-0.3c-23.4-8.3-52.5-18.6-54.7-55.3
		c-0.1-2-0.2-3.9-0.2-5.6c0-1.1,0-2,0-2.8c17.1,12,27.8,14.7,29.8,13.6c2.3-1.3-0.6-7.7-4.1-13.5c-15.3-25.3-18.9-54.8-5.7-68.9
		c10.3,22.3,18.6,27.4,26.2,25c3.8-1.2,15.7-7.1,11.1-28.3c3.7,3.2,10.3,9.1,10.3,9.1l1.9,1.7l0.8-1.2c2.6-4.2,6-8.2,10-11.6
		l0.9-0.8l-4-4.5c-5-6.6-7.7-14.2-7.7-21.3c0-1.7,0.2-3.4,0.5-5c1.2-5.7,4.4-10.4,9.2-13.1c7.8-4.5,19.7-2.8,28.3,4.1
		c4.1,3.3,7.5,7.7,10,13.1l0.6,1.2"/>
	<polyline points="259.8,370.7 257.9,370.7 257.9,363.3 255.2,363.3 255.2,361.7 262.6,361.7 262.6,363.3 259.8,363.3 	"/>
	<polyline points="272.4,370.7 270.6,370.7 270.6,363.2 270.6,363.2 268.9,370.7 267,370.7 265.4,363.2 265.4,363.2 265.4,370.7 
		263.6,370.7 263.6,361.7 266.4,361.7 268,368.8 268,368.8 269.6,361.7 272.4,361.7 	"/>
	<path class="st1" d="M408,179.9c-9.8,10.5-29.9,14.1-29.7,0.9c0.1-10.3,17.1-45.7-3.4-78.2c-2.3,10.5-7.2,19-16.9,26.6
		c-7.9,6.2-26.9,13.8-18.8-16.1c-10.2,1.9-18.1,10.7-29.7,29.4c-2.8,4.5-12.7,2.9-10.3-8.5c2.8-13.8,17.6-44.3,12.9-71.8
		c-6.4,14.7-18.2,22.2-26.4,20.6c-14.5-2.8-2.6-48.6-61.4-65.4c20.2,43.1,3.3,69.3-11.2,68.3c0.1,0.2,0.1,0.4,0.2,0.6
		c0.8,2.5,1.2,4.9,1.4,7.2c11.3-1.5,24.2,0.2,36.6,5.7c26.9,11.9,40.9,36.9,32.2,56c-0.7,1.5-1.5,2.9-2.5,4.3
		c4.6,6.6,8.2,18.5,9.2,32.2c0.7,9.7-0.5,19.8-2.3,26.6c3.7,4.9,14.6,21.6,21.3,35.2c5.7,11.5,10.2,22.5,13.3,31.9
		c11.3,1.7,38.8-0.4,52.9-18.2c-15.6,3.5-36.5,4.7-39.3-5.7C331.5,245.1,397.9,238.6,408,179.9"/>
	<path d="M194,112.1c1.9,5.7,9.5,9.7,9.5,9.7s0.5-4.4,6.3-5.1C202,116.6,196.5,113.2,194,112.1"/>
	<path d="M241,120.2c-0.5,0.4-1,1.1-1.2,0.5c-0.2-0.4-0.2-1.1-0.4-1.5c-0.3-0.9-0.6-1.3-1.2-1.7c0.1,0.5,0,0.9-0.2,1.4
		c-0.2,0.4-0.7,1-1.1-0.4c-0.3,0-0.5,1.3-0.6,1.8c0,0.2-0.5,0.4-0.7-0.2c-0.2-0.6-0.5-2.8-0.8-3.2c0,0.5-0.4,1.2-0.7,1.3
		c-0.7,0.1-0.9-1.8-3.7-1.7c1.6,1.5,1.1,2.7,1,2.9c-0.3,0.4-1.1,0.2-1.1,0.2c0,0,0,0.1,0,0.1c0.5,0.9,1.4,1.9,1.7,2.2
		c0.3,0.3,0.3,0.9-0.4,0.7c-0.3-0.1-1.8-0.6-1.8-0.6s0.5,0.7,0.1,0.9c-0.6,0.4-1.3,0.4-2-0.2c0,0.2,0.3,1.2,0.9,1.8
		c0.5,0.5,1.2,0.9,1,1.2c-0.1,0.3-0.9,0.2-1.3,0.1c0.6,0.9,1.4,1.2,2.5,1.4c0.6,0.1,1.7-0.2,1.9,0.1c0.2,0.4-0.8,0.8-0.9,1.5
		c0.3-0.2,0.5-0.3,0.9-0.3c0.4-0.1,1.2-0.2,1.5-0.3c0.3-0.1,0,0.4,0,0.4s0.9-0.5,1.3-0.8c0.2-0.2,0.4-0.4,0.5-0.5
		c0.1,0.4,0.2,1.1,0.3,1.7c0.1,0.6-0.1,1.3-0.1,1.6c0.1,0.3,0.2,0.4,0.4,0.5c0.2,0,0.4,0.3,0.5,0.2c0.1-0.1,0.1-1-0.2-2
		c-0.2-0.8-0.5-1.7-0.6-2.1c0,0,0.6,0,1.3-0.1c0.3,0,0.8-0.1,1.3-0.3c0.1-0.1,0.3-0.1,0.4-0.2c-0.4-0.1-0.4-0.2-0.4-0.2
		s1.7-0.5,2-1.7c-0.7,0.3-1.4,0.8-1.7,0.4C239,124.2,241.6,122.5,241,120.2"/>
	<path class="st0" d="M130.3,431.4c-7.6-0.3-14.1,1.4-18.3,4.9c-5.2,4.3-6,10.4-6,15.7v18.7c0,5.9,0,12.5,5.7,17.8
		c3.9,3.6,11,5.7,19,5.4c8-0.2,15.4-2.6,20.1-6.5l1.5-1.3v-23.6h-21.6V460h21.6v-21l-1.9-1.3C144.8,434,137.5,431.7,130.3,431.4"/>
	<path class="st0" d="M201.4,473.6c0-0.1-7.2-35.9-8.2-40.7h1.7v-14.9c0,0-0.9-0.4-1.6-0.7c0-0.4,0-0.7,0-0.7v-2.5
		c0-3.2-0.7-5.7-2.1-7.5c1.7-2.2,3-5.4,3-10.1c0-7.8-3.8-11.6-6.9-13.5c-3.8-2.3-8.8-2.3-12.4-2.3h-23.4v14.4c0,0,0.9,0.6,1.5,0.9
		c0,0.3,0,0.6,0,0.6v20.5c0,0,0,0.3,0,0.6c-0.6,0.4-1.5,0.9-1.5,0.9V433h11.6c-0.9,4.7-7.4,39.8-7.4,39.9c0,0-0.3,1.1-0.3,1.1
		c-0.1,0.7-0.4,1.9-0.6,2.2l-1.2,1.1l-0.5,2.2v13.5h51.2v-16.6c0,0-1.4-0.4-2.3-0.7C201.8,475.3,201.6,474.8,201.4,473.6"/>
	<path class="st0" d="M350.2,436.3c-2.4-1.9-5.2-2.8-7.9-3.3H359v-14.4c0,0-0.9-0.6-1.5-0.9c0-0.3,0-0.6,0-0.6v-4.6
		c0.8-1.6,7.5-14.6,7.5-14.6c0.6-1.3,0.6-1.3,1-1.6l1.8-1.3v-14.2h-4.3h-38.6v9.3c-1-3-2.9-5.3-5.4-6.9c-3.9-2.4-8.5-2.4-12.1-2.4
		h-24.3v14.8c0,0,1,0.4,1.7,0.8v0.1v21c-0.8,0.3-1.7,0.7-1.7,0.7v14.3h-11.8c3.3-1,6-2.4,8.2-4.4l1.4-1.3v-39.6l-1.7-1.3
		c-5.1-3.9-11.8-5.9-19.5-5.9c-6,0-10.8,1.5-14.3,4.4c-4.5,3.8-5.1,9-5.1,13.5v16.6c0,4.4,0,10.6,5.7,15.4c1.4,1.1,2.9,1.9,4.5,2.5
		h-20.7v0.6c-0.1-0.2-0.2-0.6-0.2-0.6h-3.3c1.8-0.6,3.5-1.6,5-2.9c5-4.4,5.5-9.4,5.6-14.7v-18.2c0,0,0-0.3,0-0.5
		c0.6-0.3,1.6-0.9,1.6-0.9l0.1-2.5v-12h-4.3h-38.9v14.4c0,0,0.9,0.6,1.5,0.9c0,0.3,0,0.6,0,0.6l0,18.1c0.1,5.3,0.6,10.4,5.6,14.8
		c1.6,1.3,3.3,2.3,5,2.9h-2.7v15.7c0,0,1.3,0.9,1.7,1.2c0,0.3,0,1.2,0,1.2v24.4c0,0,0,0.9,0,1.2c-0.4,0.3-1.6,1.1-1.6,1.1l-0.1,2.3
		v13.5h48.4v-42.4c0,0,0-0.9,0.1-1.2c0.4-0.3,1.6-1.1,1.6-1.1l0.1-2.3v-12.4c1.8,0.3,3.6,0.3,5.3,0.3c1.9,0,3.7-0.1,5.4-0.3
		c-1.2,6.4-7.3,39.3-7.3,39.3c0,0-0.2,1.1-0.2,1.1c-0.1,0.7-0.4,1.9-0.6,2.2c-0.3,0.3-1.2,1.1-1.2,1.1l-0.5,2.2v13.5h49.1h2.1h27.5
		c5.5,0,11.3-0.4,16.2-5c5.5-5.2,5.5-11.1,5.5-15.8v-19.5C356.5,448.7,356.5,441.2,350.2,436.3 M309.7,475.3c0-0.1,0,0.2-0.1,0.5
		c-0.6,0.2-1.9,0.8-2.4,0.9v-0.4c0,0-1.4-0.4-2.3-0.7c-0.1-0.3-0.3-0.8-0.5-2c0-0.1-7.2-35.9-8.2-40.7h11.3v15.7c0,0,1.3,0.6,2,0.9
		c0,0.3,0.1,0.6,0.1,0.6V475.3L309.7,475.3z M335.4,417.7c-0.6,0.4-1.5,0.9-1.5,0.9v13.8h-19.1c2.3-0.5,4.6-1.3,6.6-3
		c3.4-2.7,5.2-7.3,5.2-13.1c0-4.5-1.4-8.1-3.7-10.6c1.8-2.2,3.1-5.2,3.1-9.6c0-0.2,0-0.3,0-0.5c0.5,0.4,0.9,0.7,1,0.7
		c0.2,0.2,0.6,1.1,0.8,1.6l0.5,1.1l0,0c0,0,6.3,12.8,7.1,14.4v3.3l0,0.5C335.5,417.2,335.4,417.4,335.4,417.7L335.4,417.7z
		 M335.4,417.7"/>
	<path class="st0" d="M405.8,475.6c-0.1-0.3-0.3-0.8-0.5-2l-8.3-41.2h-3.5h-26.6c0,0-7.5,40.4-7.5,40.4c0,0-0.3,1.1-0.3,1.1
		c-0.1,0.7-0.4,1.9-0.6,2.2c-0.3,0.3-1.2,1.1-1.2,1.1l-0.5,2.2v13.5h51.2v-16.6C408.1,476.3,406.6,475.9,405.8,475.6"/>
	<path d="M170.6,394h1.4c3,0,3.9,1.5,3.9,4.3c0,3.1-0.9,4.6-3.9,4.6h-1.4 M170.6,411.7h0.6c3.7,0.1,4.1,1.8,4.1,5.3
		c-0.2,7.3,0.2,9.3,0.8,11.7h14.6V421c-1.7-0.7-1.7-2.8-1.7-4.3v-2.5c0-4.4-1.4-6.3-5.7-7.3v-0.1c5.1-1.3,6.5-5.5,6.5-10.3
		c0-4-1.2-7.7-4.8-9.8c-3-1.8-7.2-1.7-10.6-1.7h-18.9v7.7c1.6,1,1.5,2.6,1.5,4.3v19.6c0,1.6,0.2,3.3-1.5,4.3v7.8h16.6V421
		c-1.6-1-1.5-2.7-1.5-4.3V411.7L170.6,411.7z M170.6,411.7"/>
	<path d="M218.8,385h15.8v7.7c-1.8,1-1.7,2.6-1.7,4.3v17.7c-0.1,4.6-0.5,8.3-4.2,11.6c-3.2,2.8-7.6,3.3-11.6,3.3
		c-3.9,0-8.4-0.5-11.6-3.3c-3.7-3.3-4.1-6.9-4.2-11.6V397c0-1.6,0.2-3.3-1.5-4.3V385h16.6v7.7c-1.6,1-1.5,2.6-1.5,4.3V417
		c0,0.9,0.2,3.1,2.7,3.1c2.5,0,2.7-2.2,2.7-3.1V397c0-1.6,0.1-3.3-1.6-4.3"/>
	<path d="M276.8,400.2h-13.1v-1c0-1.9,0.4-5.6-2.6-5.6c-2.5,0-2.8,2.4-2.8,4.3v19.4c0,0.4,0.2,2.8,2.8,2.8c3,0,2.6-3.7,2.6-5.7v-1.9
		h-2.3V404h15.4v20.9c-4.3,3.9-10.8,4.7-16.3,4.7c-3.9,0-8.4-0.3-11.5-2.9c-4-3.4-4.2-7.4-4.2-12.2v-16.6c0-3.9,0.5-7.6,3.6-10.3
		c3.2-2.7,7.5-3.4,11.5-3.4c6,0,12.1,1.4,16.9,5"/>
	<path d="M302.9,394.1h0.9c2.9,0,4.5,0.7,4.5,3.9c0,3.3-1.5,3.9-4.5,3.9h-0.9 M307.9,428.7c3.8,0,7.8-0.1,10.9-2.6
		c2.9-2.3,3.7-6.3,3.7-9.8c0-5.1-1.9-9.6-7.6-10.3v-0.1c4.9-1.4,6.9-4.8,6.9-9.8c0-3.6-1.1-7.3-4.3-9.3c-2.9-1.8-6.8-1.8-10.2-1.8
		h-19.8v7.7c1.5,0.7,1.7,2,1.7,3.5v21.3c-0.1,1.5-0.2,2.8-1.7,3.5v7.8L307.9,428.7L307.9,428.7z M302.9,410.1h1.2
		c3.3,0,4.5,1.3,4.5,4.7c0,3.5-1.2,4.8-4.5,4.8h-1.2V410.1L302.9,410.1z M302.9,410.1"/>
	<path d="M332.2,397.1c-0.8-1.6-1.3-3.4-2.8-4.4V385H345v5.6c0,3.2,0.9,5.3,2.5,8.1c1.6-2.8,2.5-4.9,2.5-8.1V385h13.7v7.7
		c-1.3,0.9-1.7,1.6-2.4,3.2l-8,15.6v5.2c0,1.6-0.1,3.3,1.5,4.3v7.8h-16.6v-7.8c0.8-0.5,1.2-1.2,1.4-1.9c0.2-0.7,0.1-1.5,0.1-2.3
		v-4.3"/>
	<path class="st1" d="M132.5,452.6c0-2.1,0.4-5.8-3-5.8c-3.4,0-3,3.6-3,5.8v20.1c0,2.1-0.4,5.8,3,5.8c3.4,0,3-3.6,3-5.8v-5.9h15.6
		v17.4c-4.2,3.5-10.9,5.3-17.5,5.5c-6.5,0.2-12.8-1.3-16-4.3c-4.5-4.2-4.3-9.7-4.3-15.4V452c0-4.7,0.6-9.2,4.4-12.4
		c3.5-2.9,9.3-4.2,15.4-3.9c6.2,0.2,12.8,2.2,18,5.6v14.5h-15.7"/>
	<path class="st1" d="M179.6,465l-2.7-15.4h-0.1l-2.5,15.4 M175.1,488.7h-17.9v-9.2c1.8-1.2,1.9-3.9,2.4-5.9l6.9-36.9h23.1l7.6,37.7
		c0.3,1.6,0.9,4.5,2.7,5.1v9.2h-20.5v-9.2c1.3-0.5,1.9-1.5,1.9-2.8c0-0.6-0.1-1-0.2-1.5h-7.8c-0.1,0.5-0.2,1-0.2,1.5
		c0,1.4,0.7,2.5,2.1,2.8V488.7L175.1,488.7z M175.1,488.7"/>
	<path class="st1" d="M236,460.2h0.1V451c0-1.9,0.2-3.9-1.8-5.1v-9.2h16.6v9.2c-1.9,1.2-1.8,3.1-1.8,5.1v37.7h-15.7l-9.7-23.4h-0.1
		v9c0,1.9-0.2,3.9,1.8,5.1v9.2h-16.1v-9.2c1.9-1.2,1.8-3.2,1.8-5.1V451c0-1.9,0.2-3.9-1.8-5.1v-9.2h17.6"/>
	<path class="st1" d="M277.5,465l2.6-15.4h0.1l2.7,15.4 M278.3,479.5c-1.4-0.4-2.1-1.4-2.1-2.9c0-0.5,0.1-1,0.2-1.5h7.8
		c0.1,0.5,0.2,1,0.2,1.5c0,1.4-0.6,2.4-1.9,2.9v9.2h20.5v-9.2c-1.8-0.6-2.4-3.5-2.7-5.1l-7.6-37.7h-23.1l-6.9,36.9
		c-0.5,2-0.7,4.7-2.4,5.9v9.2h17.9L278.3,479.5L278.3,479.5z M278.3,479.5"/>
	<path class="st1" d="M330.2,448h1.3c3.5,0,4.6,1.3,4.6,5v19.6c0,3.8-1.1,5-4.6,5h-1.3 M311.9,436.7v9.2c1.9,0.8,2,2.3,2.1,4.1v25.3
		c-0.1,1.8-0.2,3.3-2.1,4.1v9.2h22.9c4.9,0,9.5-0.3,13.2-3.8c3.9-3.7,4.2-7.6,4.2-12.8v-19.5c0-5-0.4-9.7-4.7-13.1
		c-3.7-2.8-8.8-2.9-13.2-2.9H311.9L311.9,436.7z M311.9,436.7"/>
	<path class="st1" d="M401.1,474.4l-7.6-37.7h-23.1l-6.9,36.9c-0.5,2-0.7,4.7-2.4,5.9v9.2H379v-9.2c-1.4-0.4-2.1-1.4-2.1-2.9
		c0-0.5,0.1-1,0.2-1.5h2.8c-0.1-0.2-0.2-0.4,0-0.7c0.2-0.5,0.4-0.7,0.9-1.5c0.7-1.1,1-2.9,1.1-4.5c-0.3,0.1-0.9,0.4-1.5,0.6
		c-1,0.3-2.9,0.6-2.9,0.6s0.9-0.7,0.3-0.7c-0.6,0-2.2-0.3-3-0.5c-0.8-0.2-1.2-0.1-1.8-0.1c0.7-1.1,2.9-1.2,2.7-2
		c-0.1-0.8-2.4-1.1-3.3-1.6c-1.9-1.1-2.9-2.1-3.4-4.1c0.7,0.5,2,1.2,2.4,0.7c0.4-0.5-0.4-1.6-0.9-2.8c-0.6-1.4-0.4-3.5-0.3-3.8
		c0.7,1.6,1.9,2,3.2,1.7c0.7-0.2,0.5-1.8,0.5-1.8s2.6,2.3,3,2.6c1,0.9,1.6-0.1,1.3-0.9c-0.2-0.6-0.7-2.2-1.1-3.7
		c-0.1-0.4-0.2-0.9-0.2-1.3c0-0.1,0-0.1,0-0.2c0,0,1.3,0.9,2,0.4c0.3-0.2,2.2-2,0.5-5.7c5,1.8,4,5.3,5.3,5.6
		c0.7,0.1,1.9-0.9,2.3-1.8c0.1,0.9-1,5-1.1,6.1c-0.2,1.2,0.6,1.1,0.9,0.7c0.6-1.1,2.1-2.7,2.6-2.5c-0.3,2.6,0.9,1.9,1.6,1.4
		c0.8-0.7,1.3-1.4,1.4-2.3c0.7,1,1,1.9,0.8,3.8c-0.1,0.8-0.5,2-0.5,2.9c0,1.1,1.4,0.2,2.6-0.1c-0.7,4.4-6.6,5.6-6.2,7
		c0.2,0.9,1.9,0.5,3.4,0.5c-1.5,1.9-4.9,1.5-4.9,1.5s-0.1,0.3,0.5,0.7c-0.3,0-0.6,0.1-0.8,0c-0.1,0-0.1,0-0.2,0
		c-0.9,0-1.8-0.3-2.3-0.4c-1.3-0.3-2.4-0.8-2.4-0.8c-0.1,3-0.6,5.4-1.1,6.8h3.5c0.1,0.5,0.2,1,0.2,1.5c0,1.4-0.6,2.4-1.9,2.9v9.2
		h20.4v-9.2C402,478.9,401.4,476,401.1,474.4"/>
	<path d="M263,143.6c-0.1,0.5-0.2,0.9-0.3,1.4c2.3,1.5,4.3,3.1,5.9,4.8c5-14-5.5-32.2-19.8-41.8C257.1,113.7,264.7,132.8,263,143.6"
		/>
	<path d="M299.8,275.4c-29.5-35.8-44.1-73.2-38.1-93.4c-10,9.2-11.5,29.4-4.3,50.5c0,0-22.5-19.6-32.6-46.9
		c4.9-0.3,8.9-0.8,13.8-2.3c7.2-2.1,13.5-5.3,18.8-9.3c6.4-1.4,11.1-4.5,12.6-9.1c0.5-1.6,0.6-3.4,0.3-5.2c-0.1,0.7-0.2,1.3-0.4,2
		c-2.8,8.4-17.4,11.6-32.4,6.9c-15.1-4.6-26.6-14.9-23.8-23.4c2.1-6.1,11.9-9.7,22-9.3c-14.7-2.5-27.5,1.1-30.2,9.1
		c-3.2,9.5,8.7,21.6,26.5,27.1c3,0.9,4.3,1.3,7.3,1.8c-24.2,5.6-50.7-8.2-59.3-29.7c-5.5-13.9-0.7-26.7,9.1-36.8
		c7,4.4,14.8,5.5,20.5,2.5c1.2-0.7,2.3-1.5,3.3-2.5c-0.8,0.6-1.7,1.1-2.7,1.5c-8.6,3.4-20.5-2.3-26.8-13.1
		c-6.6-11.3-4.7-24,4.6-27.8c5-2,10.9-1,16.3,2.2c-7.7-6.1-17-8.2-23.8-4.2c-9.8,5.7-9.7,20.8-0.6,32.9c2.2,3,4.8,5.5,7.6,7.4
		c-8.2,5.5-14.2,12.8-17.6,20.8c-5.1-4.5-5.6-5.2-8.9-7.9c2.2,15.4-22.9,42-42.5,1.2c-4.5,5.7-4.3,27.4,2.9,44.1
		c6.4,14.7,16.8,27.3,10.8,33.2c-5.3,5.3-20.6-2.8-28.5-8.5c2.5,53.4,74.1,47.4,77.8,67.4c1.7,9.3-26.9,11.6-31.8,22.8
		c4.9-2.7,15.3-2.7,24.4,0.9c10.3,4.1,23.6,4.1,30.5,4.6c9,0.7-3,9-3,9s22-2.9,33.2-6.7c6.2-2.1,11.2-4.5,14.5-6.2
		c-1.5,10-4.3,24-8,37.2c-3.5,12.5-13.5,25.3-15.2,31.8c-1.7,6.5,0.1,10.4,3.4,12.5c3.4,2.2,5.1,9.4,8.5,8.2
		c4.5-1.6,10.1-19.8,14.7-43.3c3.6-18.7,5.1-38.1,5.5-47.7c0,0,12.8,5.6,28.1,9c3.8,0.8,9.5,2.3,15.9,3.4
		c9.6,7.3,18.1,11.7,30.3,15.4C318.8,297.8,312.6,290.9,299.8,275.4"/>
	<path d="M238.8,142.9c-0.9,0-1.9-0.1-2.8-0.1c-1.4-2-3.4-3.3-4.4-3.1c0.9,0.8,1.8,1.9,2.7,3.2c-6.3,0.2-11.7,1.4-15.1,3.4
		c4.2-1.3,9.8-1.9,16-1.8c0.9,1.6,1.4,3.2,1.6,4.5c0.6-0.6,0.9-2.4,0.1-4.5c1,0,1.9,0.1,2.9,0.2c0.9,1.7,1.5,3.3,1.7,4.7
		c0.6-0.6,0.9-2.4,0.1-4.5c0.4,0,0.9,0.1,1.3,0.1c0.6,0.1,1.1,0.2,1.7,0.2c1,1.8,1.6,3.5,1.8,4.9c0.7-0.6,0.9-2.6,0.1-4.7
		c1.1,0.2,2.2,0.4,3.3,0.6c1,1.7,1.6,3.5,1.8,4.8c0.6-0.6,0.9-2.4,0.2-4.4c5.7,1.4,10.6,3.2,14.2,5.4c-3-3-8.5-5.7-15.2-7.4
		c-1.4-2-3.3-3.1-4.3-3c0.7,0.6,1.5,1.5,2.2,2.5c-1-0.2-2.1-0.4-3.2-0.6c-1.4-1.8-3.2-2.8-4.1-2.7c0.7,0.6,1.4,1.4,2.1,2.4
		c-0.1,0-0.2,0-0.2,0c-0.9-0.1-1.7-0.2-2.6-0.2c-1.4-2-3.3-3.1-4.3-3C237.1,140.7,238,141.7,238.8,142.9"/>
	<path d="M220.3,122.7c0,1-0.8,1.8-1.8,1.8c-1,0-1.8-0.8-1.8-1.8c0-1,0.8-1.8,1.8-1.8C219.5,120.9,220.3,121.7,220.3,122.7"/>
	<path d="M218.1,94.8c1.7,6.8,0.4,12.2-2.9,15.9c-5.2,5.9-2,13.5,1.8,16.9c-3.3-6.6-2.7-13.3,1.4-16.5c3.6-0.3,6.5,1.1,6.5,1.1
		S225.7,103.6,218.1,94.8"/>
</g>
</svg>
