<?xml version="1.0" encoding="utf-8"?>
<!-- Generator: Adobe Illustrator 19.1.0, SVG Export Plug-In . SVG Version: 6.00 Build 0)  -->
<svg version="1.1" id="Layer_1" xmlns="http://www.w3.org/2000/svg" xmlns:xlink="http://www.w3.org/1999/xlink" x="0px" y="0px"
	 viewBox="0 0 160 160" style="enable-background:new 0 0 160 160;" xml:space="preserve">
<style type="text/css">
	.st0{fill-rule:evenodd;clip-rule:evenodd;fill:#252929;}
	.st1{fill-rule:evenodd;clip-rule:evenodd;fill:#FFFFFF;}
	.st2{fill-rule:evenodd;clip-rule:evenodd;fill:#009E6A;}
	.st3{fill-rule:evenodd;clip-rule:evenodd;fill:#B5282F;}
	.st4{fill-rule:evenodd;clip-rule:evenodd;fill:#E52E33;}
	.st5{fill-rule:evenodd;clip-rule:evenodd;fill:#00643F;}
</style>
<g>
	<path class="st0" d="M107.5,126.8c0-1.4,1.2-2.5,2.7-2.5c1.4,0,2.5,1.1,2.5,2.5s-1.1,2.7-2.5,2.7
		C108.8,129.5,107.5,128.2,107.5,126.8L107.5,126.8L107.5,126.8z M108,126.8c0,1.2,0.9,2.1,2.1,2.1c1.1,0,2.1-0.9,2.1-2.1
		s-1.1-2.1-2.1-2.1C108.9,124.7,108,125.6,108,126.8L108,126.8L108,126.8z M110.9,128.2l-0.7-1.2h-0.5v1.2h-0.5v-2.9h1.2
		c0.5,0,1.1,0.2,1.1,0.9c0,0.5-0.5,0.7-0.9,0.7l0.7,1.2H110.9L110.9,128.2L110.9,128.2z M109.6,126.6h0.4c0.4,0,0.9,0,0.9-0.4
		c0-0.4-0.2-0.4-0.5-0.4h-0.7V126.6L109.6,126.6z"/>
	<path class="st0" d="M40.4,141.6v-10.4h7.1v1.8l0,0c-0.5-0.5-2.1-0.5-2.9-0.5h-1.8v2.9h3.6v1.6l0,0c-0.2-0.4-1.8-0.4-2.3-0.4h-1.2
		v3.6H45c2.7,0,3.6-0.7,3.6-0.7l0,0l-0.7,2.1H40.4L40.4,141.6z"/>
	<path class="st0" d="M57.4,140l-5.7-6.1v7.7h-2.5v-0.2c0.9-0.4,0.9-1.1,0.9-1.8v-8.4h2.5l0,0c0,0.2,0.2,0.4,0.2,0.5l0.4,0.2
		l5.9,6.4v-7.1h2.5v0.2c-0.9,0.4-0.9,1.1-0.9,1.8v8.7C59.1,141.5,58.2,141.1,57.4,140L57.4,140z"/>
	<path class="st0" d="M62,136.5c0-3.2,2.9-5.4,6.8-5.4c1.2,0,2.7,0.4,3.6,0.5v1.8h-0.2c-0.5-0.7-2.9-1.2-3.7-1.2
		c-2.5,0-3.6,2.3-3.6,4.1c0,2,1.1,4.5,3.7,4.5c0.7,0,1.2,0,2-0.2v-2.5c0-0.7,0-1.4-0.7-1.6l0,0h2.9v5c-1.4,0.2-2.7,0.4-4.1,0.4
		C64.5,141.8,62,139.5,62,136.5L62,136.5z"/>
	<path class="st0" d="M74.5,141.6v-10.4h3.4v0.2c-0.9,0.2-0.7,1.4-0.7,2.1v6.8h2.3c2.1,0,3-0.9,3-0.9h0.2l-0.9,2.1H74.5L74.5,141.6z
		"/>
	<path class="st0" d="M91.4,141.6l-1.6-3.9h-4.1l-0.9,2.1c-0.4,0.9-0.5,1.4,0.4,1.6v0.2h-2.9l3.9-8.7c0.4-0.5,0.7-1.2-0.2-1.4v-0.2
		h3.7l3.6,8c0.4,0.9,0.7,1.8,1.6,2.1v0.2H91.4L91.4,141.6L91.4,141.6z M86.1,136.6h3.4l-1.6-3.9L86.1,136.6L86.1,136.6z"/>
	<path class="st0" d="M103.6,140l-5.7-6.1v7.7h-2.5v-0.2c0.9-0.4,0.9-1.1,0.9-1.8v-8.4h2.5l0,0c0,0.2,0.2,0.4,0.2,0.5l0.4,0.2
		l5.9,6.4v-7.1h2.3v0.2c-0.7,0.4-0.7,1.1-0.7,1.8v8.7C105.4,141.5,104.5,141.1,103.6,140L103.6,140z"/>
	<path class="st0" d="M109.1,141.6v-10.4h4.3c3.9,0,6.6,2,6.6,5.2c0,3-2.9,5.2-6.8,5.2H109.1L109.1,141.6L109.1,141.6z M113.2,132.5
		l-1.6,0.2v7.7h1.2c2.7,0,4.5-1.2,4.5-3.7C117.3,134.1,116.1,132.5,113.2,132.5L113.2,132.5L113.2,132.5z"/>
	<path class="st0" d="M61.3,155.6c-0.9,0-1.4-0.2-2-0.9l-2-2.3l-2.1-2.1v3c0,0.7,0,2,0.9,2.1v0.2h-3.4v-10.4h4.5
		c2.1,0,4.1,1.1,4.1,2.7c0,1.6-1.4,2.3-2.7,2.7l2.3,2.7c0.7,0.9,1.6,1.6,2.5,2.3H61.3L61.3,155.6L61.3,155.6z M55.2,150
		c1.4-0.2,3.4-0.7,3.4-2.1c0-1.1-1.1-1.6-2.1-1.6h-1.2V150L55.2,150z"/>
	<path class="st0" d="M64.3,154.7c-0.9-0.9-0.9-2-0.9-3v-6.4h2.5v6.4c0,2,0.9,3,2.7,3c0.9,0,1.8-0.4,2.5-1.1
		c0.4-0.5,0.4-0.9,0.4-1.4v-7h3l0.2,0.2c-0.9,0.2-0.9,1.2-0.9,2v6.1c0,0.7,0,1.8,0.9,2v0.2h-3.2v-1.1c-0.9,0.9-2.1,1.2-3.2,1.2
		C66.8,155.7,65.4,155.7,64.3,154.7L64.3,154.7z"/>
	<path class="st0" d="M75.9,150.4c0-3.2,2.7-5.4,6.6-5.4c1.2,0,2.7,0.4,3.6,0.5v1.8l0,0c-0.7-0.7-2.9-1.2-3.9-1.2
		c-2.5,0-3.6,2.3-3.6,4.1c0,2,1.2,4.5,3.7,4.5c0.7,0,1.2,0,2-0.2V152c0-0.7,0-1.4-0.7-1.6v-0.2h2.9v5.2c-1.2,0.2-2.7,0.4-3.9,0.4
		C78.2,155.7,75.9,153.4,75.9,150.4L75.9,150.4z"/>
	<path class="st0" d="M91.3,155.6h-2.7v-10.4h4.1c2.3,0,4.1,0.7,4.1,2.3c0,1.1-0.9,1.6-2,2c1.6,0.4,3,1.4,3,2.9
		c0,1.1-0.9,2.3-2.5,2.9c-1.1,0.4-2.5,0.4-3.6,0.4C91.6,155.6,91.4,155.6,91.3,155.6L91.3,155.6L91.3,155.6z M91.1,154.3h1.4
		c1.4,0,2.7-0.5,2.7-2c0-1.6-1.6-2-3-2h-1.1V154.3L91.1,154.3L91.1,154.3z M91.1,146.3v3h0.5c1.1,0,2.5-0.2,2.5-1.6
		c0-1.1-0.9-1.4-2-1.4H91.1L91.1,146.3z"/>
	<path class="st0" d="M101.4,155.6v-4.5l-3.9-5.9h3l2.7,4.1l2-2.5c0.2-0.4,0.5-1.1-0.4-1.4v-0.2h3.4l-4.3,5.9v2.3c0,1.1,0,1.4,0.9,2
		v0.2H101.4L101.4,155.6z"/>
	<path class="st1" d="M62.2,130.2c-0.4-1.1-0.9-2.5-1.6-3.2c-1.2-1.6-2.3-3-2.5-3.6c0,0-0.2,0.7-0.4,0.9c-0.4,0.4-0.4,0.7-0.9,0.2
		c-0.5-0.4-2.7-2.7-3-6.1c0-0.4,0-1.8-0.2-1.6c-0.4,0.2-1.2,1.1-1.4,0.2c-0.4-0.9-0.9-3.7,0.2-6.2c0.9-1.8,1.2-2.5,1.6-3.6
		c0,0,0.5-1.8-0.7-2c-0.9-0.2-3.9,2.1-3.4,1.8c-1.6,1.2-2.9,2.3-6.6,6.6c-2.1,2.5-4.6,0.2-4.6,0.2s-2.1-2.1-4.3-3.6
		c-2.1-1.2-6.2-2.7-6.4-4.5c0-1.4,1.4-1.8,4.1-1.4c2.7,0.4,4.1,0.7,7.9-0.5c2.7-0.9,4.1-1.6,4.5-2.9c0.2-0.9-0.2-3.9,1.2-4.5
		c0.9-0.4,1.4,0,2.1,0.7c0.5,0.4,0.7,0.9,1.4,1.2c0.4,0.4,0.5,0.7,1.4,0.5c0.9-0.4,7-4.1,7.3-4.3c0,0,0.5-0.7-0.7-0.9
		c-2.1,0-5.4,1.2-9.8,0.4c-1.8-0.4-3.6-1.1-5.5-2.3c-0.5-0.2-4.5-2.9-3.9-4.3c0.2-0.9,1.2-0.7,0.9-1.2c-1.2-1.2-2.3-2.9-2.5-5
		c0-0.7,0.2-2,1.2-1.8c0,0-1.2-2.3-1.6-3.4c-0.2-0.7,0-1.6,0.7-1.8c0,0-2.7-4.6-1.8-7.3c0.4-0.7,2.1-0.2,2.9,0.4l0,0
		c-1.1-1.6-1.4-5.9,0.5-8.9c2-3,6.1-4.5,6.1-4.5s-3,0.4-6.1-1.1c-4.3-2-4.1-7.7-3.7-9.8c0.4-2.3,1.6-4.5,3.7-7
		c0.5-0.7,1.1-1.4,1.4-2.1c0.5-0.9-0.4-3-1.2-4.5c-1.1-1.6-2.1-3.9-1.6-6.8c0.5-3.7,4.1-6.4,8.6-7.3c4.5-0.9,10.9,2,10.9,2
		s-1.1-1.6-1.4-3.4c-0.4-2.1,0-4.3,1.4-5.9C58.1,6,62.7,5.3,69,7.2c6.1,1.8,7,0.5,9.5-0.7c2-1.1,4.3-2.3,7-2.3
		c3.7,0,5.4,2.1,6.2,4.1c1.1,3.2,0.2,8.4,0.2,8.4s0.5-2.3,2.5-4.3c2.1-2.1,3.9-2.7,5.7-2.9c2.9,0,4.1,1.1,5.5,2.9c1.2,1.6,1.6,5,3,7
		c1.6,2,2.9,2.1,5.9,3.2c3.2,0.9,5.4,1.6,6.4,4.3c1.2,3.2-1.8,5.9-1.6,7.9c0.2,1.8,3.9,3.7,3.4,7c-0.9,4.6-6.1,6.1-6.1,6.1
		s5.7-0.9,8.9,1.2c3,2,2.7,5.7,2.3,7.3c-0.9,3.7-5.2,6.8-5.7,8c-0.7,1.4-1.1,2.5-0.4,4.5c0.7,2.1,0.5,4.3-0.5,5.9
		c-1.1,1.6-4.6,2.5-6.1,3.7c-1.2,0.9-1.8,4.1-2.9,5.2c-0.5,0.7-1.4,1.2-2.7,1.6c3.9,1.2,8.4,3.7,11.8,8.6c0.5,0.5,1.1,1.8-0.2,2.3
		c-0.2,0-0.7,0-1.6-0.4c0,0,3.2,4.1,3.4,7.5c0,0.9-0.5,1.6-1.2,1.6c-0.5,0-1.4-0.5-1.4-0.5s1.8,2.7,1.2,8.7c-0.4,2.7-2,8.6-3,3.4
		c-0.4-1.2-0.7-4.1-3.4-6.1c-2.1-1.4-3.4-1.4-4.3-1.4c0,0,0.7,1.8-0.4,2.1c-0.5,0.2-2.9-0.4-4.1-1.1c-3.9-1.8-4.6-2.5-6.8-4.5
		c0,0-0.4,1.2-1.1,1.4c0,0-1.8,0.7-3-2.7c-0.9-2.5-2.1-9.3-4.8-11.4c-3.6-3-6.8-3-9.1-2.7c-1.8,0.4-2.1,0.4-4.5,1.1
		c0,0,3.9-0.5,7.9,1.2c3.6,1.6,6.1,4.8,6.2,6.1c0.5,2-0.4,1.6-1.2,1.8c-0.9,0,0.7,0.7,1.6,1.6c0.9,1.1,1.8,2,2.5,3.9
		c0.7,2.3,0,2.7-1.4,2.3c-0.5-0.2,1.1,2.3,1.2,3.4c0.5,2.7,0.5,3.6,0.2,4.1c-0.5,0.5-1.4,0.2-1.8,0.7c-0.4,0.5,0.2,2.3,0.7,3.4
		c1.1,2.5,3.2,4.1,3.4,4.6c0.4,1.8-4.8,0.4-6.4-0.4c-3.2-1.6-4.5-2.5-6.8-5.5c0,0-0.4,1.1-0.9,1.2c-0.5,0.2-1.4-0.5-2.3-1.1
		c-0.7-0.7-1.2-1.4-2-2.5c0,0-0.7,0.5-1.2,0.7c-1.2,0.4-2.3-0.9-2.9-2.1l-0.9-2.1c0.2,2,0,3.4-0.2,4.1c-0.2,0.5-0.5,0.5-0.9,0.4
		c-0.4-0.4-0.5,0-0.5,0.7c0,0.5-0.7,6.8-3.6,9.5c-0.5,0.5-1.1,0-1.8-0.5c0,0-2.1,4.1-3,4.5c-0.2,0-0.2,0-0.4,0
		C62.4,131.3,62.4,130.9,62.2,130.2L62.2,130.2L62.2,130.2z M63.8,129.3c0.4-0.9,2.5-5,2.5-5s0.2,0,0.2,0.2c0.4,0.2,0.5,0.4,0.7,0.4
		h0.2l0,0c0.2,0,0.4,0,0.4,0c0-0.2,0.2-0.2,0.2-0.2c2.9-2.9,3-8.4,3-9.1c0-0.4,0-0.5,0-0.5c0.2,0,0.2,0,0.2,0l0.2,0.2h0.2
		c0,0,0,0,0.2,0c0.2,0,0.4-0.2,0.4-0.5c0-0.4,0.2-0.9,0.2-1.8c0-1.2-0.2-3.2-1.2-5.2c-2-4.5-5.4-5-9.8-5.2c-5-0.2-5.2-1.1-5.2-1.1
		l0,0c3.9-2.5,12-7.1,12.7-7.5c0.7-0.4,1.1-0.5,2.3-0.2c0.9,0.4,2.1,1.2,2.3,2.3c0.4,1.1,0.4,2.9-0.9,5.2c-1.2,2.1-0.7,4.6-0.5,5.7
		c0.2,0.4,0.4,0.5,0.4,0.5c0.7,0.2,1.1,0.2,1.1,0.2c-0.4,3.6,2.5,7.1,3,7.5c0.4,0.5,0.7,0.4,1.2,0.2c0.4-0.2,0.5-0.4,0.5-0.4
		c0.7,1.1,2.7,2.5,3.2,2.9c0.7,0.2,0.7,0.2,1.2-0.2c0.4-0.4,0.7-0.5,0.7-0.5c3.2,4.5,8.6,5.7,10,5.9c0.5,0.2,0.7-0.2,0.5-0.7l0,0
		l0,0l0,0c0,0,0,0,0-0.2l0,0l0,0h-0.2l0,0c-0.4-0.7-1.2-1.6-1.6-3.4c-0.2-1.1-0.4-1.8-0.2-2.5c0-1.2,0.4-1.8,0.7-2
		c0.4-0.2,0.5-0.4,0.5-0.9c0,0,0-0.2,0-0.4c-0.2-2.7-1.1-5-1.4-5.7c-0.4-0.4-0.2-0.5,0-0.5h0.2c0.2,0,0.2,0,0.2,0h0.2
		c0.2,0,0.4,0,0.4,0c0.2,0,0.4-0.2,0.4-0.4c0,0,0-0.2,0-0.5c-0.5-2.5-3-5-3.9-5.7c-0.4-0.4-0.5-0.5-0.5-0.7c0-0.2,0.4-0.2,0.7-0.2
		c0.5-0.2,0.9-0.2,0.9-0.5c0-0.2-0.2-0.4-0.2-0.7c-0.5-1.2-2.1-3.7-5.9-5.4c-0.2-0.2-0.5-0.4-0.9-0.5c-1.6-0.4-3.4-0.5-5-0.7
		c-0.4,0-0.5,0-0.9,0c0,0,0,0-0.2,0c-1.8,0-3.2,0.2-3.2,0.2c1.4-0.9,5-2.3,7.5-2.9c3.2-0.9,6.8,0,9.1,1.8c2.9,2,4.1,8.4,5,11.1
		c1.2,3.4,3.2,3.4,3.2,3.4c0.7-0.2,0.9-1.1,0.9-1.1c2.7,2.9,7.7,4.5,9.5,4.8c0.7,0.2,1.1,0.2,1.1-0.5c0-0.5,0.2-0.5,0.2-0.5
		c0.9,0,2.3,0.2,5,1.4c2.7,1.4,3.7,3.4,4.1,4.5c0.2,0.5,0.4,0.7,0.5,0.5l0,0c0.4,0,0.5-0.4,0.5-0.7c0.2-1.1,0.2-2.1,0.2-3
		c0-4.3-1.1-7.5-1.1-7.5s0.9,0.2,1.4,0.2c0.5,0,0.5-0.2,0.5-0.5c0-0.2,0-0.2,0-0.4c-0.5-3.9-2.9-7.5-2.9-7.5l0,0c0.4,0,0.5,0,0.7,0
		c0.4,0,0.4,0,0.5-0.2c0,0,0,0,0-0.2c0-0.4-0.4-1.1-0.5-1.2c-6.8-8.4-15-8.6-18.2-8.6c-3.4,0-6.2,0.5-10.2,1.4
		c-0.7,0.2-1.2,0.2-1.8,0.4c0,0,0,0-0.2,0c-0.2,0-0.4,0-0.5,0c-0.2,0-0.2,0-0.2,0l0,0c-0.2,0-0.2,0-0.4,0c0,0,0,0-0.2,0
		c-2,0-3.2-0.4-4.3-1.1c-2.1-1.2-2.9-4.3-2.9-4.3c-4.6,5.4-10.2,3.7-10.2,3.7c-2.7,3.9-8,7.7-8,7.7c-0.7-1.2-0.5-3.6-0.4-4.8
		c0.2-1.2,0-3.6-0.5-5.5c-0.9-2.9-3.7-5.9-5.5-7c-2.7-1.8-7.3-3-10.4-3.2c-2.3-0.2-3.7-0.5-5.2-1.1c-2-0.7-2.9-1.6-3.4-2.1
		c-0.5-0.5-1.2-0.2-1.2,0.4c0.4,2.5,2.1,5.5,2.1,5.5c-0.5-0.2-0.9,0.4-0.7,0.9c0.5,2.7,1.6,3.9,1.6,3.9c-1.1-0.2-1.1,0.7-1.1,1.1
		c0,2.9,2,4.8,2.3,5.2c0.5,0.5,0.4,0.7,0,0.7c-1.1,0.5-0.9,1.1-0.5,1.4c0.7,0.9,3.7,3.2,5.4,3.9c4.1,1.8,9.3,1.6,11.4,1.4
		c2.3-0.2,3.9,0.7,3.9,0.7c-0.4,0.2-8,5.2-8.7,5.5c-0.9,0.4-1.4,0.2-2,0c-1.1-0.7-2.3-2-2.9-2.5c-0.5-0.5-0.9-0.2-0.9,0.4
		c0,0.7-0.2,3.2-0.2,3.9c0.2,0.7-0.4,0.9-0.5,1.1c-8.2,4.1-12.5,2.5-13.7,2.5c-1.2-0.2-2.1-0.2-2.5,0.5c-0.2,0.7,0.5,1.4,3.4,2.5
		c3.2,1.4,5.5,3,7.5,4.3c1.4,0.9,2.1,0.2,2.9-0.5c4.3-4.3,8.9-7.1,10.2-7.9c0.4-0.2,0.7,0,0.7,0c1.1,0.4,1.4,1.4,1.4,1.4
		c0.5,1.4-0.4,2.1-1.2,3.9c-1.1,2.5-1.2,4.5-1.1,5.4c0.4,0.9,0.9,0.5,1.2,0.4c0.2-0.2,0.4,0,0.4,0.4c0.2,3.7,2.1,6.2,2.7,6.8
		c0.7,0.5,0.7,0.5,1.1,0.2c0.4-0.4,0.7-1.1,0.7-1.1c0.2,0.5,1.1,2.5,2.1,3.9c1.2,1.2,1.8,2.9,2.1,4.3c0,0.2,0.2,0.4,0.2,0.5l0,0l0,0
		C63.2,129.9,63.4,129.9,63.8,129.3L63.8,129.3L63.8,129.3z M66.3,96.7c-1.2,0.7-3.7,2.1-7.7,4.8c0,0,1.1,0.7,3.7,0.9
		c4.6,0.2,6.8,1.2,8.4,3.7c-0.2-1.1-0.2-2.3,0.2-3.4c1.1-2.3,2.1-3.7,2-4.8c-0.2-1.1-1.6-2-2.5-2c-0.4-0.2-0.7-0.2-0.9-0.2
		C68.2,95.8,67.2,96.1,66.3,96.7L66.3,96.7L66.3,96.7z M62.5,88.3c-0.2,1.2-0.2,2,0,3.2c0,0,3.6-2.1,5.4-6.4
		c-1.8-0.2-3.9-1.1-5.5-2.9C62.9,84,62.7,87,62.5,88.3L62.5,88.3L62.5,88.3z M37.7,67.4C37.7,67.4,37.7,67.2,37.7,67.4L37.7,67.4
		L37.7,67.4z"/>
	<path class="st2" d="M63.1,129.7c0.2,0.2,0.4,0.2,0.7-0.4c-0.2,0.4-0.4,0.5-0.5,0.5C63.2,129.9,63.1,129.9,63.1,129.7L63.1,129.7
		L63.1,129.7z M62.9,129.1c-0.4-1.4-0.9-3-2.1-4.3c-1.1-1.4-2-3.4-2.1-3.9c0,0-0.4,0.7-0.7,1.1c-0.4,0.4-0.4,0.4-1.1-0.2
		c-0.5-0.5-2.5-3-2.7-6.8c0-0.4-0.2-0.5-0.4-0.4c-0.4,0.2-0.9,0.5-1.2-0.4c-0.2-0.9,0-2.9,1.1-5.4c0.9-1.8,1.8-2.5,1.2-3.9
		c0,0-0.4-1.1-1.4-1.4c0,0-0.4-0.2-0.7,0c-1.2,0.7-5.9,3.6-10.2,7.9c-0.7,0.7-1.4,1.4-2.9,0.5c-2-1.2-4.3-2.9-7.5-4.3
		c-2.9-1.1-3.6-1.8-3.4-2.5c0.4-0.7,1.2-0.7,2.5-0.5c1.2,0,5.5,1.6,13.7-2.5c0.2-0.2,0.7-0.4,0.5-1.1c0-0.7,0.2-3.2,0.2-3.9
		c0-0.5,0.4-0.9,0.9-0.4c0.5,0.5,1.8,1.8,2.9,2.5c0.5,0.2,1.1,0.4,2,0c0.7-0.4,8.4-5.4,8.7-5.5c0,0-1.6-0.9-3.9-0.7
		c-2.1,0.2-7.3,0.4-11.4-1.4c-1.6-0.7-4.6-3-5.4-3.9c-0.4-0.4-0.5-0.9,0.5-1.4c0.4,0,0.5-0.2,0-0.7c-0.4-0.4-2.3-2.3-2.3-5.2
		c0-0.4,0-1.2,1.1-1.1c0,0-1.1-1.2-1.6-3.9c-0.2-0.5,0.2-1.1,0.7-0.9c0,0-1.8-3-2.1-5.5c0-0.5,0.7-0.9,1.2-0.4
		c0.5,0.5,1.4,1.4,3.4,2.1c1.4,0.5,2.9,0.9,5.2,1.1c3,0.2,7.7,1.4,10.4,3.2c1.8,1.1,4.6,4.1,5.5,7c0.5,2,0.7,4.3,0.5,5.5
		c-0.2,1.2-0.4,3.6,0.4,4.8c0,0,5.4-3.7,8-7.7c0,0,5.5,1.6,10.2-3.7c0,0,0.7,3,2.9,4.3c1.1,0.7,2.3,1.1,4.3,1.1c0,0-0.2,0-0.4,0
		c0,0,4.3,1.1,5.2,1.2c2.5,0.7,7.7,2.1,13,7.1c5.2,5,11.2,12.7,11.2,12.7c1.4,2.5,3,6.8,3,6.8c-0.2,0.2-0.4,0-0.5-0.5
		c-0.4-1.1-1.4-3-4.1-4.5c-2.7-1.2-4.1-1.4-5-1.4c0,0-0.2,0-0.2,0.5c0,0.7-0.4,0.7-1.1,0.5c-1.8-0.4-6.8-2-9.5-4.8
		c0,0-0.2,0.9-0.9,1.1c0,0-2,0-3.2-3.4c-0.9-2.7-2.1-9.1-5-11.1c-2.3-1.8-5.9-2.7-9.1-1.8c-2.5,0.5-6.1,2-7.5,2.9
		c0,0,1.4-0.2,3.2-0.2c-1.8,0-3.2,0.2-3.2,0.2c-0.7,0.4-0.4,1.2,0.2,1.8c0,0,2.7,2.7,4.1,6.6c0.9,2.5,2.1,10,5.2,13.9
		c2.9,3.7,5.2,5,5.2,5c2.7,3,5.4,4.1,5.4,4.1c0.2-0.2,0.2-0.4,0-0.7c0.2,0.5,0,0.9-0.5,0.7c-1.4-0.2-6.8-1.4-10-5.9
		c0,0-0.4,0.2-0.7,0.5c-0.5,0.4-0.5,0.4-1.2,0.2c-0.5-0.4-2.5-1.8-3.2-2.9c0,0-0.2,0.2-0.5,0.4c-0.5,0.2-0.9,0.4-1.2-0.2
		c-0.5-0.4-3.4-3.9-3-7.5c0,0-0.4,0-1.1-0.2c0,0-0.2-0.2-0.4-0.5c-0.2-1.1-0.7-3.6,0.5-5.7c1.2-2.3,1.2-4.1,0.9-5.2
		c-0.2-1.1-1.4-2-2.3-2.3c-1.2-0.4-1.6-0.2-2.3,0.2c-0.7,0.4-8.7,5-12.7,7.5c-0.2,1.1,0.5,1.4,0.5,1.4s4.3,3,6.6,12.7
		c0.7,2.9,0.7,9.3,0.7,9.3c-0.5,2-0.7,4.8-0.7,4.8C63.1,129.5,62.9,129.3,62.9,129.1L62.9,129.1L62.9,129.1z M67.2,124.9h0.2H67.2
		L67.2,124.9L67.2,124.9z M67.7,124.9c0,0-0.2,0-0.4,0C67.5,124.9,67.7,124.9,67.7,124.9L67.7,124.9L67.7,124.9z M66.3,124.3
		c0,0,0.2,0,0.2,0.2C66.5,124.3,66.3,124.3,66.3,124.3L66.3,124.3L66.3,124.3z M93.8,122.4L93.8,122.4L93.8,122.4L93.8,122.4
		L93.8,122.4z M93.8,122.2c0,0.2,0,0.2,0,0.2S93.8,122.4,93.8,122.2L93.8,122.2L93.8,122.2z M93.8,122.2L93.8,122.2L93.8,122.2
		L93.8,122.2L93.8,122.2z M93.6,122.2c-0.4-0.7-1.2-1.6-1.6-3.4c-0.2-1.1-0.4-1.8-0.2-2.5c-0.2,0.7,0,1.4,0.2,2.5
		C92.3,120.6,93.2,121.5,93.6,122.2L93.6,122.2L93.6,122.2L93.6,122.2L93.6,122.2z M81.4,108.1c2.3,6.2,7,10.9,7,10.9
		S83.8,114.5,81.4,108.1L81.4,108.1L81.4,108.1z M63.4,112.9c-0.2-0.2-0.2-0.2-0.2-0.4c0.4,1.4,0.7,2.9,0.7,4.3
		C64,115.6,63.6,114.3,63.4,112.9L63.4,112.9L63.4,112.9z M71.5,115.2c0,0,0,0,0.2,0C71.5,115.2,71.5,115.2,71.5,115.2L71.5,115.2
		L71.5,115.2z M70.9,115c0.2,0,0.2,0,0.2,0S71.1,115,70.9,115L70.9,115L70.9,115z M93,113.1c-0.2-2.7-1.1-5-1.4-5.7
		c-0.4-0.4-0.2-0.5,0-0.5c-0.2,0-0.4,0.2,0,0.5C92,108.1,92.9,110.4,93,113.1c0,0.2,0,0.4,0,0.4S93,113.3,93,113.1L93,113.1
		L93,113.1z M92.2,106.8c0.2,0,0.4,0,0.4,0S92.3,106.8,92.2,106.8L92.2,106.8L92.2,106.8z M91.8,106.8c0.2,0,0.2,0,0.2,0
		S92,106.8,91.8,106.8L91.8,106.8L91.8,106.8z M56.5,102.9c0,0,1.6,0.2,3.4,2.3C58.1,103.3,56.5,102.9,56.5,102.9L56.5,102.9
		L56.5,102.9z M74,93.4c0,0,4.3,2.3,6.6,11.8C78.2,95.8,74,93.4,74,93.4L74,93.4L74,93.4z M89.8,98.1c-0.5-1.2-2.1-3.7-5.9-5.4
		c-0.2-0.2-0.5-0.4-0.9-0.5c0.4,0.2,0.7,0.4,0.9,0.5C87.7,94.3,89.3,96.8,89.8,98.1c0,0.4,0.2,0.5,0.2,0.7
		C90,98.6,89.8,98.4,89.8,98.1L89.8,98.1L89.8,98.1z M118.6,94.7c0.4,0,0.5,0,0.7,0C119.1,94.7,118.9,94.7,118.6,94.7L118.6,94.7
		L118.6,94.7z M77.2,91.5c0.4,0,0.5,0,0.9,0C77.7,91.5,77.5,91.5,77.2,91.5L77.2,91.5L77.2,91.5z M87.9,86.3L87.9,86.3L87.9,86.3
		L87.9,86.3z M88.2,86.3L88.2,86.3L88.2,86.3L88.2,86.3L88.2,86.3z M88.9,86.3c-0.2,0-0.4,0-0.5,0C88.6,86.3,88.8,86.3,88.9,86.3
		L88.9,86.3z"/>
	<path class="st1" d="M105.5,94.7c-5.4-5-10.5-6.4-13-7.1c6.6,1.1,11.1,3.6,15.2,7.7c4.6,4.5,6.8,8.4,9.1,12.1
		C116.8,107.4,110.7,99.7,105.5,94.7L105.5,94.7z"/>
	<path class="st1" d="M63.1,115.6c-2.3-9.6-6.6-12.7-6.6-12.7s1.6,0.4,3.4,2.3c1.1,1.2,2.3,3.6,3.4,7c0,0.2,0,0.2,0,0.4
		c0,0.2,0,0.2,0.2,0.4c0.2,1.4,0.5,2.7,0.5,3.9c0.5,4.5-0.2,8-0.2,8S63.8,118.4,63.1,115.6L63.1,115.6z"/>
	<path class="st1" d="M37.9,70.8c0,0,3.2,5.9,8.6,9.8c5.4,3.7,1.4,1.2,8.6,6.2c4.6,3,5.9,4.3,5.9,4.3l-4.5-2.7c0,0-4.5-2.7-9.1-6.1
		C41.1,77.9,37.9,70.8,37.9,70.8L37.9,70.8z"/>
	<path class="st1" d="M83.2,114c-3-3.9-4.3-11.4-5.2-13.9c-1.4-3.9-4.1-6.6-4.1-6.6s4.3,2.3,6.6,11.8c0.2,0.9,0.5,1.8,0.9,2.9
		c2.3,6.4,7,10.9,7,10.9S86.1,117.7,83.2,114L83.2,114z"/>
	<path class="st3" d="M87,6.5c3,1.2,4.6,3.9,4.5,7.5c0,3.9-2,7-2.5,7.7c-0.7,0.7-1.6,0.7-2.7,0.2c-1.2-0.4-2.7-1.1-4.8-1.1
		c-2,0-3.9,0.9-5.2,2.1c0,0-3-0.2-5.2,0.7c-2.1,0.7-2.9,1.2-3.4,1.6c0,0-2.1-0.2-4.1-1.1c-2.3-1.2-7.5-4.6-7.5-9.6
		c0-5.2,4.5-7,7.1-6.8c2.1,0,3.9,0.5,5.9,0.9c1.8,0.5,3.2,0.7,4.3,0.5c1.2-0.2,3-0.5,4.5-1.4C79,6.9,81.1,6.2,82.5,6
		C84.3,5.8,85.9,6.2,87,6.5L87,6.5z"/>
	<path class="st3" d="M98.6,11.7c3.7,0,5.5,1.8,6.8,5.4c0.5,1.6,1.1,4.5,4.6,5.2c4.3,1.1,6.8,2.3,8,4.5c1.2,1.8,1.2,4.5,0.7,6.1
		c-0.5,1.6-0.9,2.7,0.5,4.1c1.1,1.2,2,3.4,0.9,6.1c-0.9,2.9-3.7,5.2-8.9,5.5c-2.5,0.2-6.1-0.4-5.9-1.6c0-0.4,0.4-0.7,1.2-1.8
		c0.7-0.7,1.1-2,1.2-3c0.2-1.8-0.5-3.4-2-5c-0.7-0.7-1.1-1.6-0.5-3c0.5-1.4,0.5-2.3,0.5-4.1c0-2.1-1.4-5-3.7-5.7
		c-3-0.9-6.2-0.5-8.7,1.8c0,0-2.3-1.6-2.3-4.8C91.1,17.9,94.3,11.7,98.6,11.7L98.6,11.7z"/>
	<path class="st4" d="M115.7,52.4c1.4,2.1,1.6,6.8-0.7,10.4c-3.2,5.4-8.2,5-8.2,5c-0.7,7.5-7.1,9.1-10.7,9.1c-9.5,0-9.8-7.5-9.8-8.4
		c0-0.7-0.4-0.9-0.7-0.5c-2.3,1.8-3.4,5-3.6,7.9c-0.2,2.7,0.5,4.6,0.9,5.5c1.6,2.5,3.7,3.9,8.7,2.7c4.8-1.2,9.3-1.6,13.4-1.1
		c4.1,0.7,6.1-0.5,6.8-2.7c0.5-2,2.1-3.6,4.3-4.8c5.7-3,4.8-7.7,4.3-9.6c-0.4-2,0.9-3,1.8-3.9c3.2-3.7,3.9-8.7,1.8-11.4
		c-2.1-2.9-6.2-2.1-8.4-1.8c-1.2,0.2-2.7,0.7-3.2,1.1C112.3,49.7,114.3,50.1,115.7,52.4L115.7,52.4z"/>
	<path class="st4" d="M81.8,69.3c-0.2,2.5-1.2,10.2-5.4,12.5c-1.8,1.1-5.7,1.6-9.6,0.2c-3.7-1.4-5.7-4.1-6.6-5.2
		c-2-2.1-4.5-4.8-10.9-5.7c-5.9-0.9-11.2-3.4-10.2-10c0.7-5.5,6.2-7,9.3-6.8c0.4,0,1.2,0.4,1.4,0.7c0.7,1.2,2.5,3.6,4.5,4.8
		c2.7,1.6,5.9,2.1,8.9,2.1c0,0,1.4,6.2,6.2,8.4C73.6,72.2,78.1,71.5,81.8,69.3L81.8,69.3z"/>
	<path class="st4" d="M48.4,16c3.9,0,9.6,2.3,10.5,8c0,0-3.9-1.8-6.1,0.9c-1.8,2.5-0.5,5.4-0.2,7c0.5,1.6,0.9,3,0.5,4.3
		c-0.4,1.6-1.2,2.5-3.7,4.1c-2.3,1.4-2.9,3.7-3,5.4c-0.2,2.9,0.7,5.9,3,7.5c0,0-3.4,1.2-7-0.2c-4.1-1.6-6.2-5-6.2-9.1
		c0-4.3,2.3-6.6,3.2-7.5c0.7-0.9,1.6-2.3,1.6-3.7c0-1.4-0.7-2.5-1.1-3.2c-0.7-1.2-1.4-3.4-0.7-6.4C39.9,20.8,42.5,16,48.4,16
		L48.4,16z"/>
	<path class="st4" d="M55.2,28.3c-0.7,2-0.2,3,0.4,4.6c0.5,1.4,1.1,3.6-1.4,5.7c-2.7,2.1-5.4,3.7-5.2,8c0.4,4.3,3.4,10,7.3,12.1
		c3.2,1.8,5.5,2,7.9,1.6c0,0,2.1,6.1,6.8,8c3.4,1.4,8.6,2,13.2-2c1.6-1.2,3.6-5,3.2-8.4c0,0-5.7,0.5-11.4-1.4
		c-5.5-2-11.2-6.2-13.2-11.4c-1.8-5-2.5-12.9,3.2-18.7c0,0-2.1-1.4-4.6-1.6C59,24.7,56.1,25.8,55.2,28.3L55.2,28.3z"/>
	<path class="st3" d="M92,29c-1.6-3-4.8-7.1-10.4-6.8c-1.6,0-3.9,1.1-4.6,2.1c0,0-2.7,0-4.5,0.5c-2.5,0.5-5.2,2.1-6.8,5.2
		c-1.8,3.2-2.5,5.5-2.5,8.6c0,4.3,2.3,9.6,6.4,12.5c0.7,0.5,0.9-0.2,0.7-1.2c-0.2-1.1-0.9-5.9,1.2-10.4c2.5-5.2,7-8.4,11.8-9.8
		C86.3,28.7,90.2,28.7,92,29L92,29z"/>
	<path class="st4" d="M82.3,31.5c-4.3,2-10.2,7.5-10.5,14.5c-0.4,6.2,2.3,10,10.7,10.4c8.4,0.4,16.6-5.4,17-5.5
		c0.4-0.4,0.2-0.7-0.7-0.5c-0.9,0.2-6.8,0.9-10.2,0.7c-3.4,0-7.3-1.1-8.9-3.7C77.7,44.4,77.2,39.4,82.3,31.5L82.3,31.5z"/>
	<path class="st4" d="M95.5,33.5c2.3,2.7,2,6.4-0.4,10.4c-2.3,4.1-5.5,5.2-7.5,5c-2.1-0.2-3-0.5-3.9-0.9c0,0,3.7-0.4,6.1-3
		c1.6-2,1.4-4.5,0.5-6.1c-0.7-1.1-1.6-1.8-2.3-2.3c-1.6-0.9-4.6-1.4-6.4-0.7c0,0,2.7-4.6,7.9-4.6C92,31.2,93.9,31.9,95.5,33.5
		L95.5,33.5z"/>
	<path class="st4" d="M81.8,36.5c-1.2,1.1-2,2.9-2.1,4.3c-0.2,2,0.5,3.7,2.1,4.6c1.6,0.9,4.5,0.5,5.7-0.7c1.4-1.2,1.4-2.9,1.2-3.4
		c0-0.9-0.7-1.8-2-1.4c-0.9,0.2-1.8,0.2-2.3,0C83.8,39.7,82.3,39.2,81.8,36.5L81.8,36.5z"/>
	<path class="st3" d="M102.2,25.6c2.3,1.2,2.7,3.7,2,6.4c-0.7,2.7-1.1,3.7,0.7,6.1c1.6,2.3,0.9,5.5,0,7c-1.1,1.2-3.2,3.7-7.5,4.1
		c-4.3,0.4-5-0.2-5-0.2s3-2,5.2-5.7c1.4-2.3,2.1-5.2,1.4-7.9c-1.1-3.7-5-4.8-6.8-4.8c0,0,0.9-3.4,3.4-4.6
		C98,24.9,100.7,24.9,102.2,25.6L102.2,25.6z"/>
	<path class="st4" d="M88.4,56.5c0.5,1.4,1.2,3.4,0,6.4c-1.2,2.5-1.6,6.8,1.6,9.8c3,3,8,2.3,10.2,1.2c2.5-1.2,3.4-3.6,3.9-6.2
		c0.2-1.2,0.9-1.8,2.5-1.8c1.6-0.2,4.6-0.5,6.8-3.9c1.6-2.7,2.3-6.4,0.5-9.1c-1.8-3-6.8-3.7-8.9-3.6c-1.2,0.2-2.1,0.5-3,1.2
		C101.3,51.3,96.4,55.8,88.4,56.5L88.4,56.5z"/>
	<path class="st5" d="M116.8,107.4c-2.3-3.7-4.5-7.7-9.1-12.1c-4.1-4.1-8.6-6.6-15.2-7.7c-0.9-0.2-5.2-1.2-5.2-1.2
		c0.5,0,1.1,0,1.8,0c0.5-0.2,1.1-0.2,1.8-0.4c3.9-0.9,6.8-1.4,10.2-1.4c3.2,0,11.4,0.2,18.2,8.6c0.2,0.2,0.7,1.2,0.5,1.4
		c-0.2,0.2-0.5,0.2-1.2,0.2c0,0,2.3,3.6,2.9,7.5c0.2,0.5,0,0.9-0.5,0.9c-0.5,0-1.4-0.2-1.4-0.2s1.6,4.8,0.9,10.5
		c0,0.4-0.2,0.7-0.5,0.7C119.8,114.1,118.2,109.9,116.8,107.4L116.8,107.4z"/>
	<path class="st5" d="M63.1,129.7c0,0,0.2-2.9,0.7-4.8c0,0,1.2-6.1-0.5-12.7c-2.5-8.7-6.8-9.3-6.8-9.3s-0.7-0.4-0.5-1.4
		c0,0,0,0.9,5.2,1.1c4.5,0.2,7.9,0.7,9.8,5.2c1.6,3.4,1.1,6.1,1.1,7c0,0.5-0.4,0.7-0.7,0.5c-0.4-0.2-0.4-0.2-0.4,0.4
		c0,0.7-0.2,6.2-3,9.1c-0.5,0.5-0.7,0.4-1.6-0.4c0,0-2.1,4.1-2.5,5c-0.2,0.4-0.4,0.5-0.5,0.5L63.1,129.7L63.1,129.7z"/>
	<path class="st5" d="M36.1,68.5c0,0,0.5-0.4,0.9,0.2c0.5,0.5,1.4,1.4,3.4,2.1c1.4,0.5,2.9,0.9,5.2,1.1c3,0.2,7.7,1.4,10.4,3.2
		c1.8,1.1,4.6,4.1,5.5,7c0.5,2,0.7,4.3,0.5,5.5c-0.2,1.2-0.4,3.6,0.4,4.8l-1.4-1.2c0,0-1.2-1.2-5.9-4.3c-6.4-4.5-4.1-3-8.6-6.2
		c-1.1-0.9-5.2-3.9-8.6-9.8C37.5,70.4,36.7,68.8,36.1,68.5L36.1,68.5z"/>
	<path class="st5" d="M88.4,119c0,0-6.1-6.1-7.9-13.7C78.2,95.8,74,93.4,74,93.4c-0.5-0.5-0.9-1.4-0.2-1.8c0,0,6.4-0.7,10.2,1.1
		c3.7,1.6,5.4,4.1,5.9,5.4c0.2,0.9,0.2,1.1-0.7,1.2c-0.9,0-1.1,0.2-0.2,0.9c0.9,0.7,3.4,3.2,3.9,5.7c0,0.9,0,0.9-0.7,0.9
		c-0.5-0.2-0.9,0-0.5,0.5c0.4,0.7,1.2,3,1.4,5.7c0,0.9,0,1.1-0.5,1.2c-0.5,0.2-1.2,1.2-0.5,4.5c0.4,1.8,1.2,2.7,1.6,3.4
		c0.4,0.4,0.4,0.7,0.2,0.9C93.8,123.1,91.1,122,88.4,119L88.4,119z"/>
</g>
</svg>
