<?xml version="1.0" encoding="utf-8"?>
<!-- Generator: Adobe Illustrator 19.1.0, SVG Export Plug-In . SVG Version: 6.00 Build 0)  -->
<svg version="1.1" id="Layer_1" xmlns="http://www.w3.org/2000/svg" xmlns:xlink="http://www.w3.org/1999/xlink" x="0px" y="0px"
	 viewBox="0 0 160 160" style="enable-background:new 0 0 160 160;" xml:space="preserve">
<style type="text/css">
	.st0{fill-rule:evenodd;clip-rule:evenodd;}
</style>
<g>
	<path class="st0" d="M82.9,152c-3.3,0.3-4.2-2.8-4.2-2.8s-0.8,3.1-4.2,2.8c-1.1-0.1-7.2-3.1-12.9-8.9h-6.2
		c8.4,9.2,17.7,13.4,19.1,13.5c3.3,0.3,4.2-2.8,4.2-2.8s0.8,3.1,4.2,2.8c1.4-0.1,10.7-4.4,19.1-13.5h-6.2
		C90.1,148.9,84,151.9,82.9,152"/>
	<path class="st0" d="M72.1,136.1h0.5l1.9,2.9l1.8,2.8H80v-0.4c-0.2,0-0.3,0-0.4-0.1c-0.1,0-0.2-0.1-0.3-0.3l-1.4-2l-2.2-3.1
		c0.6-0.1,1.2-0.4,1.7-0.8c0.7-0.6,1.1-1.3,1.1-2.3c0-1.3-0.7-2.2-2.2-2.7c-0.7-0.3-1.7-0.4-2.9-0.4h-5.8v0.5c0.6,0.1,1,0.2,1.2,0.3
		c0.3,0.2,0.4,0.7,0.4,1.4v7.3v0.7c0,0.7-0.1,1.1-0.3,1.3c-0.2,0.2-0.6,0.3-1.2,0.3v0.5h6.1v-0.5c-0.6,0-1.1-0.1-1.3-0.4
		c-0.2-0.2-0.3-0.6-0.3-1.3v-0.7 M72.1,130.9c0-0.3,0.1-0.5,0.2-0.6c0.2-0.1,0.5-0.2,0.9-0.2c0.9,0,1.5,0.3,1.8,1
		c0.2,0.4,0.3,1,0.3,1.7c0,1.1-0.3,1.9-0.8,2.2c-0.5,0.3-1.3,0.5-2.5,0.5V130.9L72.1,130.9z M72.1,130.9"/>
	<path class="st0" d="M82.2,138.9L82.2,138.9c0.1,0.5,0.3,0.9,0.5,1.3c0.8,1.2,2.2,1.9,4.2,1.9c1.6,0,2.7-0.4,3.5-1.2
		c0.4-0.5,0.7-1.1,0.9-1.8l0,0c0.1-0.5,0.2-1.1,0.2-1.7v-5.7c0-0.6,0.1-0.9,0.3-1.1c0.2-0.2,0.6-0.3,1.1-0.4v-0.5H89v0.5
		c0.7,0.1,1.2,0.2,1.4,0.4c0.2,0.2,0.4,0.7,0.4,1.3v5.5c0,0.6,0,1.2-0.2,1.6h0c-0.1,0.3-0.1,0.5-0.2,0.7c-0.5,1-1.4,1.5-2.8,1.5
		c-1.1,0-1.9-0.5-2.3-1.4c-0.1-0.2-0.2-0.5-0.2-0.8v-0.1c-0.1-0.4-0.1-0.8-0.1-1.2v-6c0-0.7,0.1-1.1,0.3-1.3
		c0.2-0.2,0.7-0.3,1.4-0.3v-0.5h-6.1v0.5c0.6,0.1,1,0.2,1.2,0.4c0.2,0.2,0.3,0.6,0.3,1.3v6C82.1,138.1,82.1,138.5,82.2,138.9"/>
	<polyline class="st0" points="96.8,126.5 98.8,124 92.7,125.6 95.4,122.4 89.9,123.4 91.7,120 86.9,122 87.5,118 83.2,121.8 
		81.8,117.8 80.4,121.4 78.6,117.8 77.7,121.2 73.9,116.4 74.9,120.6 69.3,119 70.9,121 67,120.8 69.3,123.4 64.4,122.6 67,125.2 
		61.4,124.2 62.8,126 41.9,127.9 113.8,127.9 	"/>
	<path class="st0" d="M60.8,131.3c0-0.5,0.2-0.9,0.5-1.1c0.2-0.1,0.6-0.2,1.2-0.2v-0.5h-6.3v0.5c0.5,0,0.9,0.1,1.1,0.2
		c0.3,0.2,0.5,0.5,0.5,1.1v7.6v1c0,0.5-0.2,0.9-0.5,1.1c-0.2,0.1-0.6,0.2-1.1,0.2v0.5h6.3v-0.5c-0.6,0-1-0.1-1.3-0.3
		c-0.3-0.2-0.4-0.5-0.4-1v-1"/>
	<path class="st0" d="M40.2,130c0.5,0,0.9,0.1,1.1,0.2c0.3,0.2,0.5,0.5,0.5,1.1v7.7v1c0,0.5-0.2,0.9-0.5,1.1
		c-0.2,0.1-0.6,0.2-1.1,0.2v0.5h6.3v-0.5c-0.6,0-1-0.1-1.3-0.3c-0.3-0.2-0.4-0.5-0.4-1v-1v-7.7c0-0.5,0.2-0.9,0.5-1.1
		c0.2-0.1,0.6-0.2,1.2-0.2v-0.5h-6.3"/>
	<path class="st0" d="M55.5,129.6h-6.3v0.5c0.6,0,1.1,0.1,1.3,0.2c0.4,0.2,0.5,0.5,0.5,1.1v7.7v0.9c0,0.5,0,0.8-0.2,1.1
		c-0.2,0.3-0.5,0.5-1.1,0.5c-0.2,0-0.4,0-0.5-0.1c-0.1-0.1-0.2-0.2-0.2-0.4c0,0,0.1-0.2,0.2-0.5c0.1-0.3,0.2-0.5,0.2-0.8
		c0-0.3-0.2-0.7-0.2-0.7c0-0.1-0.1-0.1-0.1-0.2c-0.2-0.2-0.5-0.4-0.9-0.4c-0.3,0-0.7,0.1-0.9,0.4c-0.1,0.1-0.1,0.1-0.2,0.2h0
		c-0.1,0.2-0.2,0.5-0.2,0.8c0,0.5,0.3,1.1,0.8,1.5c0.5,0.5,1.3,0.7,2.1,0.7c1.3,0,2.2-0.4,2.9-1.1c0.5-0.5,0.8-1.2,1-2l0,0
		c0-0.3,0.1-0.6,0.1-0.9v-6.3c0-0.7,0.1-1.1,0.3-1.3c0.2-0.2,0.7-0.3,1.3-0.3"/>
	<path class="st0" d="M29.2,130c0.5,0,0.9,0.1,1.1,0.2c0.3,0.2,0.5,0.5,0.5,1.1v7.7v1c0,0.5-0.2,0.9-0.5,1.1
		c-0.2,0.1-0.6,0.2-1.1,0.2v0.5h6.5v-0.5c-0.7,0-1.2-0.1-1.5-0.2c-0.3-0.2-0.5-0.5-0.5-1.1v-1v-3.1c1,0,1.6,0.2,2,0.7
		c0.4,0.4,0.6,1.2,0.7,2.1h0.5v-6.1h-0.5c-0.2,0.9-0.4,1.6-0.8,2c-0.3,0.4-1,0.6-2,0.6V131c0-0.3,0.1-0.5,0.2-0.7
		c0.1-0.1,0.5-0.2,1-0.2c1.4,0,2.4,0.2,2.9,0.7c0.5,0.4,0.9,1.2,1.1,2.3h0.4v-3.6H29.2"/>
	<path class="st0" d="M100.7,137c0.7,0,1.1,0.1,1.3,0.2c0.3,0.2,0.5,0.5,0.5,1.1v0.7v1.2c0,0.4-0.1,0.6-0.2,0.8
		c-0.3,0.3-0.8,0.5-1.5,0.5c-1.4,0-2.4-0.6-2.9-1.8c-0.1-0.3-0.2-0.5-0.3-0.8v0c-0.3-1-0.4-2-0.4-3.2c0-1.8,0.3-3.2,0.8-4.2
		c0.5-1,1.4-1.5,2.5-1.5c1.1,0,2,0.5,2.9,1.5c0.5,0.5,0.9,1.2,1.3,2.2h0.5v-4.2h-0.5c-0.1,0.3-0.2,0.5-0.3,0.6
		c-0.1,0.1-0.3,0.2-0.5,0.2c-0.2,0-0.6-0.1-1.4-0.4c-0.7-0.3-1.5-0.4-2.2-0.4c-1.9,0-3.4,0.6-4.6,1.9c-1.2,1.2-1.7,2.7-1.7,4.5
		c0,1.2,0.3,2.3,0.8,3.2v0c0.2,0.4,0.5,0.8,0.9,1.2c1.2,1.3,2.8,1.9,4.8,1.9c1.1,0,2.1-0.1,3-0.4c0.9-0.2,1.5-0.5,1.9-0.7v-2v-0.3
		c0-0.6,0.1-1,0.3-1.3c0.2-0.2,0.6-0.4,1.2-0.4v-0.5h-6.2"/>
	<path class="st0" d="M127.9,129.6v0.5c0.6,0,1,0.1,1.1,0.2c0.3,0.1,0.4,0.3,0.4,0.6c0,0.2-0.1,0.5-0.3,0.9
		c-0.1,0.3-0.3,0.5-0.4,0.7l-2.1,3.2l-2.2-4.3l-0.2-0.5c0-0.1,0-0.2,0-0.3c0-0.2,0.1-0.3,0.3-0.4c0.2-0.1,0.6-0.1,1.2-0.1v-0.5h-6
		v0.5c0.2,0,0.4,0.1,0.6,0.2c0.3,0.2,0.6,0.4,0.8,0.8l3.3,6v2v0.7c0,0.7-0.1,1.1-0.3,1.3c-0.2,0.2-0.7,0.3-1.3,0.3v0.5h6.2v-0.5
		c-0.6,0-1.1-0.1-1.3-0.3c-0.2-0.2-0.3-0.6-0.3-1.3v-0.7v-2.6l3.4-5.6c0.1-0.2,0.3-0.4,0.5-0.5c0.2-0.1,0.4-0.1,0.7-0.2v-0.5"/>
	<path class="st0" d="M116.9,135.9c-0.5-0.3-1.1-0.5-1.7-0.8c0.6-0.1,1.2-0.4,1.8-0.8c0.5-0.4,0.8-1,0.8-1.8c0-1.2-0.7-2.1-2-2.5
		c-0.7-0.2-1.6-0.4-2.7-0.4h-5.6v0.5c0.5,0,0.9,0.1,1.1,0.2c0.3,0.2,0.5,0.5,0.5,1.1v7.6v1c0,0.5-0.2,0.9-0.5,1.1
		c-0.2,0.1-0.6,0.2-1,0.2v0.5h5.8c1.5,0,2.8-0.3,3.7-0.9c0.7-0.5,1.2-1.1,1.3-1.8v0c0-0.2,0-0.4,0-0.5
		C118.4,137.3,117.9,136.5,116.9,135.9 M112,131c0-0.3,0.1-0.6,0.2-0.7c0.1-0.1,0.4-0.2,0.8-0.2c0.7,0,1.2,0.2,1.4,0.7
		c0.2,0.5,0.4,1,0.4,1.7c0,0.9-0.2,1.6-0.6,1.9c-0.4,0.4-1.1,0.5-2.2,0.5L112,131L112,131z M115.3,138.9L115.3,138.9
		c-0.1,0.6-0.2,1.1-0.5,1.5c-0.3,0.5-0.9,0.7-1.8,0.7c-0.4,0-0.7-0.1-0.8-0.4c-0.1-0.1-0.1-0.4-0.1-0.7v-1.1v-3.4
		c1,0,1.7,0.1,2.1,0.4c0.8,0.4,1.1,1.3,1.1,2.5C115.3,138.6,115.3,138.7,115.3,138.9L115.3,138.9z M115.3,138.9"/>
	<path class="st0" d="M46.1,66.9l0.5,2.1l0.9-3.7l0.1,2.6l1.6-4.8l0.2,3.2l1.4-4.7l0.3,2.8l0.9-4.1l0.6,2.7l0.9-4.1l0.6,2.8l0.9-3.9
		l0.5,2.8l0.9-3.7l0.6,2.7l0.9-3.8l0.2,2.8l0.9-3.4l0.5,2.4l0.7-3.1l0.6,2.7l0.8-3.3l0.5,2.3l0.8-2.8l0.4,2.3l0.9-2.8l0.5,2.1
		l0.8-2.1l0.5,1.8l0.9-2.4l0.2,1.7l0.9-2.2l0.4,1.7l0.8-2l0.2,1.9c0,0,0.7-1.1,1.2-1.8c2-2.6,5.1-3.6,5.1-3.6s-6.7-1.6-18.8,4.3
		c-8.4,4.1-10.4,11.1-10.8,15.1v0.1c-0.2,1.7-0.1,2.8-0.1,2.8"/>
	<path class="st0" d="M33.5,75c0,3.5,0.1,6.8,0.2,10.1h0c0.5,10.1,1.8,19.1,4.1,26.9h0c1.5,5.2,3.3,9.8,5.6,14l6.4-0.3
		c-2.5-4.1-4.9-8.7-6.9-13.6c0,0,0-0.1,0-0.1c0-0.1-0.1-0.1-0.2-0.2c-3.2-7.8-5.6-16.7-6.6-26.7h0c-0.3-3.3-0.5-6.6-0.5-10.1v-1.7
		c0-2.1,0-4.2,0.2-6.2v0c0.7-10.5,3.7-19.5,7.7-27h0c10.7-20.2,28.7-29.8,31-30c3.3-0.3,4.2,2.8,4.2,2.8s0.8-3.1,4.2-2.8
		c2.3,0.2,20.3,9.8,31,29.9h0c1.2,2.2,2.3,4.5,3.2,7c-0.8-1.4-2.7-4.3-5.5-7h0c-3.6-3.4-8.8-6.5-15.6-6.4c-8,0.1-12.8,3.4-15.5,6.4
		l0,0c-2.3,2.5-3.1,4.7-3.1,4.7l0.9,0.5l0.2-1.3l0.8,0.8l0-1.2l1.2,0.6v-1l1,0.6l0.1-1.2l0.8,0.6l0.5-0.9l0.9,0.4l0.2-0.9l1.1,0.5
		l0.3-1.1l0.9,0.7l0.4-0.9l0.9,0.6l0.2-0.9l1.1,0.6l0.3-0.6l0.7,0.3l0.5-0.9l1.2,0.9l0.4-0.9l1.1,0.8l0.3-0.9l0.9,0.9l0.5-1l1.2,1
		l0.4-1l1.1,1l-0.1-0.9l1.4,1.4l-0.1-1.4l2.3,1.6l-0.2-1.7l1.4,1.9l0.2-1.7l1,2.1l0.1-1.5l1.5,2.1v-1.6l1.7,2.3v-1.6l1.9,2.6l-0.3-2
		l2.2,2.8l0.2-1.8l1.6,2.5l-0.2-1.7l1.9,2.6v-1.4l1.6,2.1l-0.1-0.9c1,0.8,1.7,1.5,2,1.8c2.2,5.8,3.7,12.3,4.2,19.4v0.1
		c0.1,2,0.2,4,0.2,6.1V75c0,3.5-0.2,6.9-0.5,10.1v0c-1,10.1-3.5,19-6.7,26.9v0.1c-1.9,4.7-4.2,9.1-6.5,13c1.6,0.1,4.8,0.2,6.3,0.3
		c2.1-4,3.9-8.4,5.2-13.3l0,0c2.2-7.7,3.5-16.6,4-27v0c0.2-3.2,0.3-6.6,0.3-10.1v-1.7c0-2.1,0-4.1-0.2-6.2
		c-0.8-10.2-3.7-19.3-7.6-27.1v0C104.8,17.9,85.2,5.6,82.9,5.4c-3.3-0.3-4.2,2.8-4.2,2.8s-0.8-3.1-4.2-2.8
		C72.2,5.6,52.6,17.8,41.4,40h0c-4,7.8-6.9,16.9-7.6,27.1c-0.1,2-0.2,4.1-0.2,6.2"/>
	<path class="st0" d="M42.8,53.2l0.2,2l1.1-3l0.2,2l1-2.9l0.1,2.4l1-3l0.4,2.5l1-3l-0.1,2.8l1.5-3.3l0.3,2.8l0.9-3.4l0.4,2.5
		l0.9-2.8l0.2,2.1l1.3-2.7l-0.1,2.5l0.9-2.7l0.6,2.1l0.6-2.7l0.5,2.1l0.9-2.6v1.9l1.2-1.9v2l1.4-2.3v1.9l1.3-2l0.2,1.7l0.9-2
		l0.2,1.5l1.1-2.1l0.4,1.6l1-1.9l-0.1,1.9l1-2l0.3,1.7l0.7-1.4l0.3,1.4l0.9-1.6l0.1,1.7l0.9-1.8l0.1,1.6l0.7-1.7l0.4,1.7l0.6-1.3
		l0.2,1.7l0.8-1.6l0.2,1.3l0.8-1.3l0.3,1.7l0.5-1.6l0.3,1.6l0.6-1.2l0.3,1.1l0.5-1.1l0.2,1.1l0.8-0.7c0,0-5.8-6.2-16.6-4.6
		C42.1,44,41.6,55.7,41.6,55.7"/>
	<path class="st0" d="M73.8,52.8l0.6,0.7l0.2-2l0.7,0.4l0.7-3.4c0,0-9.2,4.1-9.9,11.7c-0.2,2.7,0.1,5,0.8,7h0
		c1.5,4.5,4.3,7.1,4.3,7.1l-1.3-2.7l1.3,1.2l-2-2.8l1.4,0.9l-1.8-2.2l1.2,0.7l-0.8-2.3l-0.3-0.8l0.5,0.8L70,68l-0.3-0.9l-0.9-2.7
		l1.1,1.4l-0.7-3.4l0.6,1l-0.3-2.7l0.7,0.9v-2.7l0.7,1.1v-2.8l0.6,1.2c0,0,0.3-1.8,0.3-2.5c0-0.7,0.9,0.9,0.9,0.9L72,54.7l1.2,1
		l-0.1-2.3l0.5,1"/>
	<path class="st0" d="M98.6,70.1L99,68l0.2,2.3c0,0,0.8-1.1,1.2-3.1v0c0.8-3.5,0.6-9.7-6.9-17.2c-6.3-6.3-15-0.9-15-0.9l0.4,5.4
		l1.4,1.6l0.5-0.8l0.3,2.3l0.4-1l0.4,2.5l0.6-1.9l-0.2,3.2l0.9-2.6l-0.1,3.1c0,0,0.9-2.8,0.9-2c0,0.8-0.2,3.4-0.2,3.4s0.9-3,0.9-2.6
		c0,0.5-0.2,3.7-0.2,3.7l0.8-1.9v2.9l0.5-1.3v2l0.5-1.2l0.1,2.6l0.6-1l-0.2,2.3l0.6-1.2l0.1,3.1l0.5-1.5L87.7,71l0.7-1.2l-0.3,1.7
		c0,0,1.2-1.5,1.4-4.3v0c0.2-2-0.2-4.8-2-8.2c-3-5.5-5.1-5.9-5.1-5.9l0.4-1.1l0.6,1.2l0.5-1.6l0.6,1.6l0.5-1.8l1.1,1.8l0.4-1.9
		l0.4,2l0.7-1.6l0.4,2l0.6-1.3l0.5,1.8l0.8-1.5l0.4,1.9l0.7-1l0.5,2.4l0.7-1.4l0.5,2.4l0.6-0.9l0.5,2.6l0.4-1.2l0.6,2.8l0.5-1.3
		l0.5,2.9l0.8-1.5l0.4,2.8l0.8-1.3L96.9,65l0.5-1.4v2.7c0,0,1-2.2,0.9-1.4c-0.1,0.5-0.2,1.5-0.2,2.2h0c0,0.5,0,0.9,0,0.9l0.3-0.9
		l0.4-1l0,1"/>
	<path class="st0" d="M101.3,48.3l0.8,2.5l0.6-1.5l0.5,2.2l0.5-1.5l0.7,2.3l0.5-1.2l0.6,2.3l0.4-1.8l0.6,2.4l0.1-1.5l0.9,2.7
		l0.3-1.5L108,56l0.4-1.1l0.6,1.9l0.2-0.9l0.5,1.9l0.5-0.2l0.6,1.3c0,0-1.7-12.8-14.3-17C86,38.5,78,46.8,78,46.8l0.9,1l0.3-1.3
		l0.6,0.8l0.3-0.9l0.9,0.7l0.3-0.8l0.8,0.7l0.4-0.9l0.9,0.9l0.2-1l0.7,0.8l0.4-0.9l0.7,0.9l0.3-0.9l0.9,0.9l0.2-1.1l0.8,0.9l0.5-1.1
		l0.5,1.3l0.2-1.3l0.9,1.4l0.4-1.2l0.7,1.2l0.3-1.5l0.8,1.7l0.5-1.2l0.9,1.5l0.2-1.3l0.9,1.2l0.6-1.1l0.7,1.5l0.4-1.4l0.7,1.4
		l0.6-1.1l0.9,1.7l0.3-1.4l0.9,1.8l0.5-1.1l0.5,1.7l0.6-1.5l0.9,2.2"/>
	<path class="st0" d="M76.1,52.4c0,0-2.2,2.4-1.4,10.5c0.1,1.2,0.6,4.2,0.6,4.2c0.8,4.9,2,11.6,3.1,17.9l0,0c1,6,1.7,11.6,1.6,15.1
		c-0.1,3.9-0.7,8.3-1.3,11.8h0c-0.7,3.9-1.3,6.8-1.3,6.8l-0.3,0.8l0.5-0.1l0.9-3.7l1.9,3.8l1.5-3.8l1.6,4.5l1.3-1.2
		c0.2-1.9,0.4-4.4,0.5-7.1c0.2-4.7,0.1-10.3-0.9-16.1c-0.6-3.8-1.2-7.4-1.9-10.8c-1.3-7.4-2.6-13.5-3-17.9v0c-0.1-1-0.2-1.8-0.2-2.6
		c-0.2-6.1,0.4-8.1,0.4-8.1l-1.2-1.8l-1.8-8.3"/>
	<path class="st0" d="M58.4,31.4c-6.7,0.8-11,4.8-13.6,8.5c0,0-1.1,1.6-1.5,2.3c-0.3,0.4-1.2,2.4-1.3,2.7c-0.2,0.4-0.2,0.6,0,0.5
		l0.7-1.2c0.2-0.3,0.5-0.7,0.9-1.1l-0.1,1.1l1.5-2.5l-0.2,1.8l1.4-2.4l-0.1,1.6l1.5-2.5V42l1.3-1.9l0.4-0.5l-0.1,0.5l-0.1,1.1
		l0.7-1.1l0.7-1.1l0.2,1.1l0.1,0.3l0.2-0.3l1-1.7v1.5l1.3-1.9l0.1,1.3l1-1.8l0.1,1.6l1.6-1.8l-0.1,1.3l1.1-1.6l-0.1,1.7l1-1.6
		l0.3,1.3l1-1.5l0.3,1.6l0.9-1.5l0.5,1.7l0.9-1.4l0.4,1.8l0.8-1.5l0.8,1.9l0.7-1.7l0.6,2l0.5-1.6l0.5,1.9l0.1,0.2l0.1-0.2l0.5-1.6
		l0.5,1.6l0.2,0.7l0.3-0.7l0.5-1.3l0.3,1.3l0.3,1.5l0.7-1.5l0.1-0.3l0,0.3l0.2,2.3l0.9-2.1l0.4,2.3l0.9-1.4l0.4,2.3l0.7-1.6l0.5,2.3
		l0.8-1.6l0.4,2.5l0.6-1.8l0.4,2.5l0.6-1.2c0.3-1.3,0.9-2.4,1.6-3.3l-0.8-1C75.1,37.3,68.3,30.3,58.4,31.4"/>
	<path class="st0" d="M67.5,25.3c0.3,0.2,2.4,0.9,3,1.4l-1.2,0.1l2.1,0.8l-1.6,0.1l2.4,0.8l0.3,0.3l-1.7-0.1l2.8,1.3l-1.7,0.1
		l2.6,1.1l-1.2,0.2l2,1.2l-0.9,0.2l1.4,0.8l0.2,0.4L75.2,34l1.1,0.5l0.2,0.6l-0.7,0.2l1,0.8l0.2,0.4l-0.7,0.1l1.1,0.9l0.2,0.6
		l-0.4,0.1l0.6,0.4l0.1,0.4l-0.3,0.1l0.6,0.8l0.1,0.1l0.2,0.8c0.2-0.3,0.5-0.6,0.8-0.9h0c1.3-1.5,2.7-2.8,4-3.4l1.7-1.1l-1.7,0.4
		l2.5-1.3l-2.2,0.2l1.7-1.3L84,33.4l1.4-1.3l-1.2,0.2l1.6-1.6l-0.9-0.1l1.2-1.1L85,29.3l1.9-1.5l-2,0.1l2.9-1.7h-1.9l3.2-1.4l-2,0
		l2.2-0.9l-0.9,0c0,0-4.7-0.7-7.3,4.5c-1.9,3.8-0.9,9.2-0.9,9.2s-1-4.6-3.2-8.1C75,26,67.5,25.3,67.5,25.3"/>
</g>
</svg>
