<?xml version="1.0" encoding="utf-8"?>
<!-- Generator: Adobe Illustrator 19.1.0, SVG Export Plug-In . SVG Version: 6.00 Build 0)  -->
<svg version="1.1" id="Layer_1" xmlns="http://www.w3.org/2000/svg" xmlns:xlink="http://www.w3.org/1999/xlink" x="0px" y="0px"
	 viewBox="0 0 160 160" style="enable-background:new 0 0 160 160;" xml:space="preserve">
<style type="text/css">
	.st0{fill:#D6312A;}
	.st1{fill:#F1A42B;}
	.st2{fill:#F1A42B;stroke:#F1A42B;stroke-width:1.25;}
	.st3{fill:#F9D95C;}
	.st4{fill:#D6312A;stroke:#F1A42B;stroke-width:5;}
</style>
<g>
	<path class="st0" d="M80.5,154.6l37.1-23.1c0,0,18.5-10.3,16.6-34c-1.9-23.6-6-75.3-6-75.3S93.5,16.8,80.5,4.8
		c-13,12-47.7,17.4-47.7,17.4s-4.1,51.6-6,75.3s16.6,34,16.6,34L80.5,154.6z"/>
	<g>
		<path class="st1" d="M72.7,127.5h-6.9V141H69v-5.8h3.2v-2.1H69v-3.4h3.7V127.5L72.7,127.5z M81.6,127.5h-6.9V141h3.2v-5.8h3.2
			v-2.1h-3.2v-3.4h3.7V127.5L81.6,127.5z M89.8,135L89.8,135c0.9-0.2,1.6-0.6,2.2-1.2c0.6-0.6,0.9-1.4,0.9-2.3
			c0-1.3-0.4-2.3-1.3-3.1c-0.9-0.8-2.3-1.1-4-1.1c-1.6,0-3,0.3-4.1,0.8V141h3.1v-5.9l3.2,5.9h3.5L89.8,135L89.8,135z M87.4,134.3
			c-0.3,0-0.5,0-0.7-0.1v-4.9c0.3-0.1,0.6-0.2,0.9-0.2c0.8,0,1.4,0.2,1.7,0.6c0.3,0.4,0.5,1.1,0.5,1.9
			C89.8,133.5,89,134.3,87.4,134.3L87.4,134.3z"/>
	</g>
	<path class="st2" d="M70.7,99.7c0,0,1.3,13.8-0.9,16.5c0,0-6.7,0.9-9.2,4.8l7.9-1.6c0,0-3,2.4-2.7,3.6c0,0,3.7-1.2,6.1-1.5
		c0,0-2.5,1.7-1.9,3.2c0,0,4.3-3,8.4-4.3c0,0,1.9,0.9,2.1,2.1c0,0,4-3-2.6-3.9c0,0,1.7-3.2,1.2-4.3l3.6-1.9l-4-1.3l-1.2-10
		c0,0-1,13.4-2.7,15.7l-2,0.1c0,0,3.4-6.3,1.8-14.5L70.7,99.7z"/>
	<path class="st3" d="M70.5,28c0,0-6.3,12.3-6.6,12.7c-13.1,10.2-16.3,19.7-16.7,26c0,0.4,0,0.8,0,1.2c0,6.2,2.5,10.1,2.6,10.3
		l1.1,1.7c0,0,1.4-3.5,2-5c1.5,5.4,5.8,11.4,8,13l0.3,0.2c2.8,2,5.6,4,7.8,9.8c2.3,6.2,6.5,14.2,6.7,14.5l2-0.6
		C76.1,96.7,85.3,84.3,92.5,81c1.2-0.5,3.4-1.3,4.6,0.1c4.4,5,0.5,13.4,0.5,13.5l-1,2.3l2.4-0.8c1.1-0.4,2.1-1.2,2.9-2.1
		c-0.4,5.6-4.2,12.7-4.2,12.8l-1.4,2.7l2.8-1.2c9-3.8,11.4-13.8,11.4-23.1c0-1.8-0.1-3.6-0.2-5.3c0.8,3.8,1.4,7.4,1.6,9.5l0.5,4
		l1.5-3.8c3.5-8.7,3-31.8-8.4-41.9c-3.4-3-6.6-4.1-9.4-3.1c-3.7,1.2-5.6,5.6-6.5,8.2c-0.5-1.1-0.6-2.4-0.6-3.2c0-0.5,0-0.8,0-0.8
		l0.4-3.2L87.1,48c-4.3,4.4-5.4,10.7-5.4,15.8c0,3.2,0.4,5.9,0.7,7.5c0,0,0,0-0.1,0c-2.1-1.1-4-6-4.7-8.3c1.4-1.7,1.9-4.3,1.9-7
		c0-4-1-8.3-1.4-9.7c1.2-2,1.8-4.1,1.8-6.2c0-0.8-0.1-1.7-0.3-2.5c-1.4-6-7.4-9.8-7.7-9.9l-1-0.6L70.5,28z"/>
	<path class="st1" d="M70.5,28c0,0-6.3,12.3-6.6,12.7c-13.1,10.2-16.3,19.7-16.7,26c0,0.4,0,0.8,0,1.2c0,6.2,2.5,10.1,2.6,10.3
		l1.1,1.7c0,0,1.4-3.5,2-5c1.5,5.4,5.8,11.4,8,13l0.3,0.2c2.8,2,5.6,4,7.8,9.8c2.3,6.2,6.5,14.2,6.7,14.5l2-0.6
		C76.1,96.7,85.3,84.3,92.5,81c1.2-0.5,3.4-1.3,4.6,0.1c4.4,5,0.5,13.4,0.5,13.5l-1,2.3l2.4-0.8c1.1-0.4,2.1-1.2,2.9-2.1
		c-0.4,5.6-4.2,12.7-4.2,12.8l-1.4,2.7l2.8-1.2c9-3.8,11.4-13.8,11.4-23.1c0-1.8-0.1-3.6-0.2-5.3c0.8,3.8,1.4,7.4,1.6,9.5l0.5,4
		l1.5-3.8c3.5-8.7,3-31.8-8.4-41.9c-3.4-3-6.6-4.1-9.4-3.1c-3.7,1.2-5.6,5.6-6.5,8.2c-0.5-1.1-0.6-2.4-0.6-3.2c0-0.5,0-0.8,0-0.8
		l0.4-3.2L87.1,48c-4.3,4.4-5.4,10.7-5.4,15.8c0,3.2,0.4,5.9,0.7,7.5c0,0,0,0-0.1,0c-2.1-1.1-4-6-4.7-8.3c1.4-1.7,1.9-4.3,1.9-7
		c0-4-1-8.3-1.4-9.7c1.2-2,1.8-4.1,1.8-6.2c0-0.8-0.1-1.7-0.3-2.5c-1.4-6-7.4-9.8-7.7-9.9l-1-0.6L70.5,28z M52.7,69.9
		c0,0-1.1,2.8-2,4.9c-0.6-1.6-1.3-4-1.3-7c0-6.4,3-15.6,16.1-25.6l0.2-0.1c0,0,5.2-10.2,6.2-12c1.6,1.2,4.8,4.1,5.7,7.9
		c0.2,0.7,0.2,1.3,0.2,2c0,1.8-0.6,3.6-1.7,5.5l-0.3,0.4l0.1,0.5c0.6,2,1.4,6.1,1.4,9.7c0,2.5-0.4,4.7-1.7,5.8l-0.5,0.5l0.2,0.7
		c0.2,0.8,2.4,8.4,5.9,10.2c0.9,0.5,1.9,0.6,2.8,0.3l1-0.3l-0.3-1c0-0.1-0.9-3.7-0.9-8.3c0-3.9,0.7-8.4,3-12.1
		c0.3,1.5,0.9,3.2,2.5,4.3l1.4,0.9l0.3-1.6c0-0.1,1.6-7.3,5.6-8.6c2-0.7,4.5,0.2,7.3,2.7c7.1,6.3,9.6,18.1,9.6,27.5
		c0,2.5-0.2,4.8-0.5,6.9c-1.1-6.1-3.1-15.4-5.7-18.4l-1.9,1c0,0.2,2.6,9.2,2.6,18.7c0,7.5-1.6,15.3-7.1,19.5c1.3-3,3-7.7,3-11.7
		c0-0.8-0.1-1.5-0.2-2.2l-0.5-2.6l-1.5,2.3c-0.3,0.4-0.7,0.9-1.1,1.5c0.3-1.3,0.6-2.9,0.6-4.5c0-2.6-0.6-5.4-2.6-7.7
		c-1.5-1.7-4.1-2-7.1-0.6c-7,3.1-15.7,14.2-16.1,28c-1.4-2.9-3.2-6.7-4.4-9.9c-2.4-6.4-5.6-8.7-8.5-10.8l-0.3-0.2
		c0,0-12.8-12.9-4.1-18.9c0,0,0.3,7.9,3,10.8c0,0,1.7-10.3,9.8-15.7c0,0-6.6,1.4-9.7,8.6c0,0-0.8-6.3-0.1-7.8
		C61.2,63.2,55.8,64.5,52.7,69.9z"/>
	<path class="st4" d="M75.7,37.9c1.4,5.3,10.6,7.3,12.2-4.1c0,0-10.1-0.8-2.6-7.5L80.6,27l-0.1-4.2L77.7,24c0,0-2.9-3.9-5.3-0.4
		c0,0-3.9-4.5-5.4,1.8c0,0-5.6-0.7-4.5,3.1l-2.6,2.9c0,0,4.3-2.2,6.4,0.3c2,2.4-2.4,5-4.8,3c0,0,3,3.1,1,4.5c-2,1.4-7.1,3.1-1.2,7.5
		c5.8,4.3,7.3,0,7.7-7.1c0,0,4.5,1.9,3-3.1l-1.5-3.9C70.5,32.4,74.2,32.3,75.7,37.9z"/>
</g>
</svg>
