<?xml version="1.0" encoding="utf-8"?>
<!-- Generator: Adobe Illustrator 19.1.0, SVG Export Plug-In . SVG Version: 6.00 Build 0)  -->
<svg version="1.1" id="Layer_1" xmlns="http://www.w3.org/2000/svg" xmlns:xlink="http://www.w3.org/1999/xlink" x="0px" y="0px"
	 viewBox="0 0 160 160" style="enable-background:new 0 0 160 160;" xml:space="preserve">
<style type="text/css">
	.st0{fill:#FFFFFF;}
	.st1{fill:#046941;}
</style>
<g>
	<path class="st0" d="M101.9,58.3L94.7,51l-10-5.2l-11.3-1.6l-10.1,1.7l-8.7,4.9l-4.1,8.6l2.2,9.7l9.2,4.2l7.1,5.6l4.2,5.9l3.2,7.1
		L78,99v7.7l-2.1,6.5l4.7,1.7l3.2-5.1l1-12L87,82.6l11.4-2.2l7.9-5.6l0.1-10.1L101.9,58.3L101.9,58.3z M101.9,58.3"/>
	<path class="st1" d="M103.8,69.8c-0.4,0-1-0.3-2.3-1.6c-5-4.9-10.9-8.2-16.6-10.4c0.1-0.2,0.2-0.4,0.2-0.6c0-0.1,0-0.2,0-0.2
		c0-0.2-0.2-0.4-0.4-0.5c-0.1-0.1-0.2-0.1-0.3-0.1c-0.1,0-0.2,0-0.3,0c0,0-0.8,0.2-0.9,0.3c-0.2,0.1-0.5,0.2-0.7,0.4
		c-0.6-0.2-1.2-0.4-1.7-0.6c0,0,0.1-0.1,0.1-0.1c0.1-0.2,0.2-0.4,0.2-0.7c0-0.1,0-0.2,0-0.2c0-0.2-0.2-0.4-0.4-0.5
		c-0.1,0-0.2-0.1-0.2-0.1c-0.1,0-0.2,0-0.3,0c0,0-0.8,0.2-0.9,0.3c-0.3,0.1-0.7,0.3-1,0.6c-0.7-0.2-1.4-0.3-2-0.5
		c0.1-0.1,0.1-0.1,0.2-0.2c0.1-0.1,0.2-0.2,0.3-0.3c0.1-0.2,0.2-0.4,0.2-0.7c0-0.1,0-0.2,0-0.2c0-0.2-0.2-0.4-0.4-0.5
		c-0.1-0.1-0.2-0.1-0.3-0.1c-0.1,0-0.2,0-0.3,0c0,0-0.8,0.2-0.9,0.3c-0.5,0.2-1,0.5-1.3,1.1c0,0,0,0.1,0,0.1
		c-6-1.2-9.8-1.3-11.9-1.3c-0.7,0-1.1,0.1-2,0.1c-0.4,0-1.2,0.2-1.6,0.2c-0.7,0-1.1-0.2-1.3-0.4c-0.1-0.1-0.3-0.2-0.3-0.5
		c0-0.5,0.5-1.2,1.2-1.8c1.2-1,2.9-1.9,4.4-2.6c1.5-0.7,2.7-1.1,2.7-1.1l0,0l0,0c0,0,0.2-0.1,0.5-0.2c1.1-0.4,3.7-1.1,7.7-1.1
		c3,0,6.7,0.4,11,1.7c0,0,0.9,0.3,2.3,0.9c4.3,1.8,13.3,6.8,16.9,17.1c0,0,0.2,0.5,0.3,1.2c0.2,0.7,0.3,1.5,0.3,2
		C104.3,69.4,104.1,69.8,103.8,69.8 M99.6,77.4c-3.2,2.2-7.9,3.9-15.2,3.2c-7.7-0.8-16.9-3.8-25.9-11.7c-1.8-1.6-4.9-6.1-3.4-11.5
		c0.5-1.8,3.6-2.6,5.8-2.7c5-0.2,9,0.6,12.7,1.5c0,0.7,0.2,1.3,0.2,1.8c0,0,0,0.1,0,0.1v0.1v0l0,0l0,0v0c0,0.3,0.2,0.5,0.5,0.6l0,0
		c0,0,0,0,0,0h0c0,0,0,0,0,0h0c0,0,0,0,0,0h0c0,0,0,0,0,0h0c0,0,0,0,0,0c0,0,0.1,0,0.1,0h0c0,0,0,0,0,0h0c0,0,0,0,0,0h0c0,0,0,0,0,0
		c0,0,0,0,0,0c0,0,0,0,0,0c0,0,0,0,0,0h0l0,0h0c0.3-0.1,0.5-0.3,0.5-0.6v0c0-0.4,0.2-0.9,0.3-1.4c0,0,0-0.1,0-0.1
		c0.7,0.2,1.5,0.3,2.2,0.5c0,0.2,0,0.3,0,0.5c0,0.8,0.2,1.4,0.2,1.9c0,0,0,0.1,0,0.1h0c0,0,0,0,0,0c0,0.4,0.3,0.7,0.6,0.7h0
		c0.3,0,0.6-0.3,0.6-0.6c0,0,0,0,0-0.1c0-0.4,0.2-0.9,0.3-1.4c0.1-0.2,0.2-0.4,0.3-0.6c0.6,0.2,1.3,0.4,1.9,0.6
		c-0.1,0.3-0.1,0.6-0.1,0.8c0,0.8,0.2,1.4,0.2,1.9c0,0,0,0.1,0,0.1c0,0.1,0,0.2,0.1,0.3h0c0,0,0,0,0,0c0,0,0,0,0,0c0,0,0,0,0,0
		c0,0,0,0,0,0c0,0,0,0,0,0c0,0.1,0.1,0.2,0.2,0.2l0,0c0,0,0,0,0,0c0.1,0.1,0.2,0.1,0.3,0.1h0c0.1,0,0.2,0,0.3-0.1c0,0,0,0,0,0h0l0,0
		c0,0,0,0,0,0c0,0,0,0,0,0c0,0,0,0,0,0c0,0,0,0,0,0c0,0,0,0,0,0c0.1,0,0.1-0.1,0.2-0.2v0c0,0,0,0,0,0l0,0l0,0c0,0,0,0,0,0
		c0,0,0,0,0,0c0,0,0,0,0,0c0,0,0,0,0,0c0,0,0,0,0,0c0,0,0,0,0,0c0-0.1,0.1-0.2,0.1-0.3v0c0-0.4,0.2-0.9,0.3-1.4
		c0.1-0.2,0.2-0.5,0.4-0.8c6.3,2.2,12.6,5.6,17.8,10.8C103.8,72.2,102.7,75.4,99.6,77.4 M79,111.9c-0.4,0.6-0.4,0.8-0.5,0.7
		c-0.1,0,0-0.2,0.1-0.7c-0.3,1.7,3.8-20.2-5.2-29.9c0,0-0.3-0.4,0.3-0.3c0.1,0,0.2,0.1,0.4,0.1c3.9,1.4,7.6,2.1,7.8,2.1
		c0,0,1.5,1,1.7,6.4C83.7,102.9,80.2,109.9,79,111.9 M133.8,57.6c-1.7-2.4-3.9-3.2-4.5-4c-0.6-0.8-0.5-3.2-2.2-5.6
		c-3.1-4.5-6-2.9-8.4-1.3c-2.5,1.8-4.8,5.5-6.1,9c-0.6,1.6-0.7,2.4-1,2.3c-0.2,0-0.3-0.2-0.3-1c0-0.4,0-0.8-0.1-1.3c0,0,0,0,0-0.1
		l0,0c-0.3-3.2-1.1-6.6-2.6-8.7c-1.7-2.4-3.8-4.9-8.3-1.7c-2.4,1.7-3.2,3.9-4,4.5c0,0,0,0-0.1,0c-0.4-0.3-0.7-0.5-1.1-0.8
		c-4.8-3.2-9-4.5-9.1-4.5c-2.5-0.8-4.8-1.2-7-1.6c-0.3-1.7-0.6-3.7-0.6-5.5c0-1,0.1-1.9,0.3-2.6c0.2-0.6,0.4-0.7,0.7-0.3
		c0.2,0.3,0.5,0.7,0.7,1.1c1.9,3.5,8,8.3,13,8.8c2.9,0.3,6.2,0.3,6.7-5.2c0.3-2.9-0.9-5-0.8-6c0.1-1,1.7-2.8,2-5.7v0h0
		c0.6-5.5-2.6-6.1-5.5-6.4c-1.2-0.1-2.7,0-4.2,0.3c0,0,0,0,0,0c-0.3,0.1-0.5,0.1-0.8,0.2c-0.1,0-0.1,0-0.2,0.1
		c-0.2,0.1-0.4,0.1-0.6,0.2c-0.1,0-0.2,0.1-0.3,0.1c-0.2,0.1-0.4,0.1-0.6,0.2c-0.2,0.1-0.3,0.1-0.5,0.2c-0.1,0-0.1,0-0.2,0.1
		c-0.5,0.2-1.1,0.4-1.6,0.7l0,0c-1.6,0.8-2.2,1-2.3,0.8c-0.1-0.1,0-0.3,0.3-0.5c0.4-0.4,0.9-0.9,1.4-1.4c0,0,0,0,0,0l0,0
		c1.7-2,3.3-4.5,4.2-6.9l0-0.1c0.1-0.3,0.2-0.5,0.3-0.8c0,0,0,0,0,0c0-0.1,0.1-0.2,0.1-0.4c0,0,0-0.1,0-0.2c0-0.2,0.1-0.4,0.1-0.5
		c0-0.1,0-0.1,0-0.2c0-0.1,0-0.2,0-0.3c0-0.1,0-0.2,0-0.2c0-0.1,0-0.1,0-0.2c0.3-2.9,0.3-6.2-5.2-6.7c-2.9-0.3-5,0.9-6,0.8
		c-1-0.1-2.8-1.7-5.7-2c-5.5-0.6-6.1,2.6-6.5,5.5c0,0.1,0,0.1,0,0.2c0,0.2,0,0.3,0,0.5c0,0.1,0,0.2,0,0.3c0,0.1,0,0.2,0,0.4
		c0,0.1,0,0.3,0,0.4c0,0.1,0,0.2,0,0.4c0,0.3,0.1,0.5,0.1,0.8c0,0.1,0,0.2,0,0.3c0,0.2,0.1,0.3,0.1,0.5c0,0.1,0,0.2,0.1,0.3
		c0,0.2,0.1,0.4,0.1,0.5c0,0.1,0,0.1,0,0.2c0.5,2.1,1.4,4.2,2.4,6c0.1,0.2,0.2,0.3,0.2,0.4c0,0,0,0,0,0c0.6,1,1,1.5,0.8,1.6
		c-0.1,0.1-0.4,0-1-0.4c0,0,0,0,0,0c-0.3-0.2-0.6-0.5-1-0.7c0,0,0,0,0,0c0,0,0,0,0,0c0,0,0,0,0,0c-2.6-1.9-5.7-3.4-8.3-3.7
		c-2.9-0.3-6.2-0.3-6.7,5.2c-0.3,2.9,0.9,5,0.8,6c-0.1,1-1.7,2.8-2,5.7c-0.3,2.9,0.5,4.5,1.7,5.3c1.1,0.8,2.5,1,3.9,1.1l0,0
		c5,0.5,12.7-2.7,14.8-5.3c0.8-1,1.2-1.4,1.5-1.4c0.6,0,0.5,0.8,0.5,1.3c0,1.9,0.2,4.7,0.5,7.1c-1.1-0.1-2.1-0.1-3-0.1
		c-5.6,0-8.9,1.2-9.7,1.5c-0.4,0.1-1.8,0.7-3.5,1.4c-0.2,0-0.3,0-0.5-0.1c-0.9-0.3-2.3-2.3-5.1-3.2c-5.2-1.7-6.6,1.2-7.5,4
		c-0.8,2.5-0.7,6,0,9.2h0c0.4,1.8,0.5,2.3,0.3,2.4c-0.1,0-0.3-0.1-0.5-0.4c-0.3-0.5-0.7-1.1-1.1-1.6c0,0,0,0,0,0
		c-2.2-2.9-5.5-6-8.4-6.9c-2.8-0.9-6-1.6-7.7,3.6c-0.9,2.8-0.2,5.1-0.5,6c-0.3,0.9-2.3,2.3-3.2,5.1c-1.7,5.2,1.2,6.6,4,7.5
		c2.9,1,7.3,0.6,10.8-0.5c1.6-0.5,2.3-0.9,2.5-0.6c0.1,0.2,0,0.4-0.6,0.8c-0.3,0.3-0.7,0.5-1,0.8c0,0,0,0,0,0
		c-2.4,2.1-4.6,4.8-5.4,7.3c-0.9,2.8-1.6,6,3.6,7.7c2.8,0.9,5,0.2,6,0.5c0.9,0.3,2.3,2.3,5.1,3.2c5.2,1.7,6.6-1.2,7.5-4
		c1.4-4.2-0.1-11.4-2.1-14.7c2.9,2.4,3.7,2.9,5.1,3.8c0.2,0.2,4.1,2.6,4.1,2.6s21.9,15.8,4.7,43.3c0,0-0.1,0.1-0.1,0.1
		c0,0.1,0,0.2,0,0.2c0,0.1,0.1,0.1,0.2,0.1h18.5c0,0,0.3,0,0.2-0.3c-0.1-0.3-8.2-30.6,4.6-37c5.7-1,9-3.6,9.7-4.1
		c1.6-1.2,2.6-2.3,3.3-3.5c0,0,0,0,0-0.1c-0.3,3.9,0.6,9,2.6,11.9c1.7,2.4,3.8,4.9,8.3,1.7c2.4-1.7,3.2-3.9,4-4.5
		c0.8-0.6,3.2-0.5,5.6-2.2c4.5-3.1,2.9-6,1.3-8.4c-1.5-2.1-4.4-4.1-7.3-5.5v0c0,0,0,0-0.1,0c0,0,0,0-0.1,0c-1.5-0.7-2-0.9-2-1.2
		c0-0.1,0.2-0.2,0.6-0.1c0.6,0.1,1.2,0.1,1.9,0.1c0,0,0,0,0.1,0l0,0c3.7,0,8-0.8,10.6-2.6C134.5,64.3,136.9,62.1,133.8,57.6"/>
	<path class="st1" d="M48.8,144.3c0,3.8,0.1,5.3,0.2,6.1c0.2,1.7,0.6,2.1,2.8,2.4c0.4,0.1,0.5,0.4,0.5,0.7c0,0.3-0.1,0.5-0.4,0.5
		h-9.4c-0.3,0-0.4-0.3-0.4-0.5c0-0.3,0.2-0.6,0.5-0.7c2.3-0.3,2.6-0.8,2.7-2.4c0.1-0.8,0.2-2.3,0.2-6.2v-4.6c0-3.8-0.1-5.7-0.2-6.5
		c-0.1-1.6-0.3-2-2.6-2.4c-0.4-0.1-0.5-0.4-0.5-0.7c0-0.3,0.1-0.5,0.4-0.5h8.8c0.3,0,0.4,0.3,0.4,0.5c0,0.3-0.2,0.6-0.5,0.7
		c-2.2,0.3-2.2,0.7-2.4,2.4c-0.1,0.8-0.2,2.6-0.2,6.4L48.8,144.3L48.8,144.3z M48.8,144.3"/>
	<path class="st1" d="M64,143.5c-0.3-0.5-0.6-0.9-0.6-1.1c0-0.3,0.2-0.4,0.6-0.4c2.9,0,5.9-1.6,5.9-5.6c0-3.4-2.4-5.2-6.3-5.2
		c-0.5,0-1.4,0.1-1.7,0.2v12.4c0,5.3,0.1,6,0.2,7c0.2,1.2,0.5,1.6,2.7,1.9c0.4,0.1,0.5,0.4,0.5,0.7c0,0.3-0.1,0.5-0.4,0.5h-9.3
		c-0.3,0-0.4-0.3-0.4-0.5c0-0.3,0.2-0.6,0.5-0.7c2.3-0.3,2.6-0.8,2.8-2.4c0.1-0.8,0.2-2.3,0.2-6.2v-4.7c0-3.8-0.1-5.5-0.2-6.3
		c-0.1-1.6-0.3-2-2.6-2.4c-0.4-0.1-0.5-0.4-0.5-0.7c0-0.3,0.1-0.5,0.4-0.5h8.8c4.5,0,8.9,1.8,8.9,6.6c0,3.9-3.3,6.1-6.2,6.6l5.3,7.4
		c1.5,2,2.3,2.7,4.1,3.6c0.2,0.1,0.3,0.2,0.3,0.4c0,0.4-0.7,0.5-1.9,0.5c-2.5,0-4-0.4-4.7-1.6L64,143.5L64,143.5z M64,143.5"/>
	<path class="st1" d="M84.3,140.4c0.8,0.1,1.5,0.2,2.4,0.2c3.2,0,4.4-0.1,4.9-2.7c0.1-0.4,0.4-0.5,0.7-0.5c0.3,0,0.5,0.1,0.5,0.4
		c0,1-0.2,2-0.2,3.7c0,1.9,0.2,2.5,0.2,3.2c0,0.3-0.3,0.4-0.5,0.4c-0.3,0-0.6-0.2-0.7-0.5c-0.3-2.4-1.7-2.5-4.8-2.5
		c-0.9,0-1.6,0-2.5,0.1v2.1c0,3.8,0.1,5.2,0.2,6c0.2,1.7,1.4,2.1,4.1,2.4c0.4,0,0.5,0.4,0.5,0.7c0,0.3-0.1,0.5-0.4,0.5H78
		c-0.3,0-0.4-0.3-0.4-0.5c0-0.3,0.2-0.6,0.5-0.7c2.3-0.3,2.6-0.8,2.7-2.4c0.1-0.8,0.2-2.2,0.2-6.1v-4.8c0-3.8-0.1-5.5-0.2-6.3
		c-0.1-1.6-0.3-2-2.6-2.4c-0.4-0.1-0.5-0.4-0.5-0.7c0-0.3,0.1-0.5,0.4-0.5h15.6c0.7,0,1.2,0.3,1.2,1v4.8c0,0.4-0.3,0.6-0.6,0.6
		c-0.3,0-0.6-0.2-0.7-0.6c-0.3-2.6-1.5-4-3.6-4H86c-0.5,0-1.4,0.1-1.7,0.2L84.3,140.4L84.3,140.4z M84.3,140.4"/>
	<path class="st1" d="M102.5,146c0,4.3,2.8,6.4,6.3,6.4c4.3,0,6.7-2.1,6.7-5.2v-7.7c0-3.8-0.1-5.5-0.2-6.3c-0.1-1.6-0.3-2-2.6-2.4
		c-0.4-0.1-0.5-0.4-0.5-0.7c0-0.3,0.1-0.5,0.4-0.5h7.9c0.3,0,0.4,0.3,0.4,0.5c0,0.3-0.2,0.6-0.5,0.7c-2.2,0.3-2.2,0.7-2.4,2.4
		c-0.1,0.8-0.1,2.5-0.2,6.3l-0.1,7.3c-0.1,5.1-3.8,7.5-9.6,7.5c-4.9,0-9-2.2-9-8.1v-6.6c0-3.8-0.1-5.5-0.2-6.3
		c-0.1-1.6-0.3-2-2.6-2.4c-0.4-0.1-0.5-0.4-0.5-0.7c0-0.3,0.1-0.5,0.4-0.5h8.8c0.3,0,0.4,0.3,0.4,0.5c0,0.3-0.2,0.6-0.5,0.7
		c-2.2,0.3-2.2,0.7-2.4,2.4c-0.1,0.8-0.1,2.5-0.1,6.3L102.5,146L102.5,146z M102.5,146"/>
</g>
</svg>
