<?xml version="1.0" encoding="utf-8"?>
<!-- Generator: Adobe Illustrator 19.1.0, SVG Export Plug-In . SVG Version: 6.00 Build 0)  -->
<svg version="1.1" id="Layer_1" xmlns="http://www.w3.org/2000/svg" xmlns:xlink="http://www.w3.org/1999/xlink" x="0px" y="0px"
	 viewBox="0 0 500 500" style="enable-background:new 0 0 500 500;" xml:space="preserve">
<style type="text/css">
	.st0{fill:#FFFFFF;}
	.st1{fill:#7B6E3F;}
	.st2{fill:none;stroke:#97864D;stroke-width:5.3067;}
	.st3{fill:none;stroke:#97864D;stroke-width:4.3115;}
	.st4{fill:#04559F;}
	.st5{fill:none;stroke:#97864D;stroke-width:6.6336;}
	.st6{fill:none;stroke:#97864D;stroke-width:6.6337;}
	.st7{fill:#97864D;}
	.st8{fill:#029468;}
	.st9{fill:#D72027;}
	.st10{fill:none;stroke:#97864D;stroke-width:16.5846;}
</style>
<g>
	<polyline class="st0" points="170.8,264.2 178.4,332.6 219.8,352.6 238.9,360 293.6,337 301.2,92.5 167.6,86 	"/>
	<path class="st1" d="M415.4,233.1c0,0-6.7,9.9-7.3,13.7c-0.6,3.8-2.1,5.3-2.1,5.3s-5.5-8-7.4-10.2c-1.8-2.2-6.1-7.5-7.5-8.7
		c-1.4-1.2-4.9-2.4-4.9-2.4s-0.4,3.1,0.3,7.5c0.7,4.4,0.7,7.6,1.1,9.6c0.3,1.8,1.2,6.8,1.6,8.4c0.4,1.6,0.1,2,0.1,2
		s-2.2-1.1-3.8-4.6c-1.5-3.5-2.4-5.4-2.9-6.9c-0.4-1.4-3.6-3-3.6-3s-1.5,3.6-1.3,8.9c0.2,5.3-0.2,10.6,1.1,15
		c1.3,4.4,1.7,5.3,0.6,9.2c-1.1,3.8-2,4.2-1.9,7c0.1,2.8,0.1,6.9,0,7.2c-0.9,1.4-0.4,0.2-4.8,2.8c0,0,0,10.7,0.3,16.6
		c0.1,1.7-2.6,3-3.7,3.7c-1.1,0.6-1.4,1.4-1.4,1.4s0.1,5.6,0.1,8c0,2.4,0.1,5.1-0.8,8.1c-0.9,3-6.6,10.4-9,12.3
		c-2.4,2-4.6,5.3-8.3,7.5c-3.8,2.2-16.7,5.2-20.1,7c-3.4,1.8-8,5.5-11.3,9.9c-3.3,4.4-5.7,8-6.5,8.3c-0.9,0.4-18.5,14.3-18.5,14.3
		s17.2,23.6,27.1,27.2c9.9,3.7,21.1,7.1,24.3,6.2c3.2-0.9,14.2-9.6,15.4-9.9c1.2-0.2,8.1-4.3,11.4-4.8c3.3-0.5,6.3-1.3,10-4.6
		c3.8-3.3,6.3-4.8,9-5.3c2.8-0.5,4.1-1.5,4.5-2.9c0.5-1.4,1.3-1.2,4.1-1.4c2.7-0.2,4.3-1.6,4.3-1.6s-1.9-0.8-2.4-2.8
		c-0.5-2,1.7-2.7,4.3-5.1c2.6-2.5,6.8-7.3,9.4-10c2.6-2.7,5-4.3,5-4.3s-1.2-0.2-1.9-1.2c-0.7-1.1-0.8-0.8,2.3-6.4
		c3.2-5.6,9.6-15.3,14.6-24.4c4.8-8.7,6-12.6,7.4-15.9c1.4-3.3,2.5-10.1,2.5-10.1s-3.9,1.7-6,3.2c-2,1.6-4.4,2.3-4.4,2.3
		s-0.1-4.6,1.2-10.8c1.4-6.1,2.6-14.1,2.5-18.8c-0.1-4.6-3.3-5-3.4-7.6c-0.2-2.7,0.2-10.7,0.6-14.7c0.4-4,1.1-5.8,1.2-7.1
		c0.6-6.2,0-5.6,0-7.5c0,0-3.9,1-5.9,5.7c-1.4,3.1-2.9,5.9-3.5,6.3c-0.6,0.4-1.5-0.6-1.8-2.6c-0.4-2-2.9-9.9-3.9-13.2
		c-1.1-3.7-2.2-8.9-2.6-10.6C418.2,236.5,415.4,233.1,415.4,233.1"/>
	<path class="st2" d="M415.4,233.1c0,0-6.7,9.9-7.3,13.7c-0.6,3.8-2.1,5.3-2.1,5.3s-5.5-8-7.4-10.2c-1.8-2.2-6.1-7.5-7.5-8.7
		c-1.4-1.2-4.9-2.4-4.9-2.4s-0.4,3.1,0.3,7.5c0.7,4.4,0.7,7.6,1.1,9.6c0.3,1.8,1.2,6.8,1.6,8.4c0.4,1.6,0.1,2,0.1,2
		s-2.2-1.1-3.8-4.6c-1.5-3.5-2.4-5.4-2.9-6.9c-0.4-1.4-3.6-3-3.6-3s-1.5,3.6-1.3,8.9c0.2,5.3-0.2,10.6,1.1,15
		c1.3,4.4,1.7,5.3,0.6,9.2c-1.1,3.8-2,4.2-1.9,7c0.1,2.8,0.1,6.9,0,7.2c-0.9,1.4-0.4,0.2-4.8,2.8c0,0,0,10.7,0.3,16.6
		c0.1,1.7-2.6,3-3.7,3.7c-1.1,0.6-1.4,1.4-1.4,1.4s0.1,5.6,0.1,8c0,2.4,0.1,5.1-0.8,8.1c-0.9,3-6.6,10.4-9,12.3
		c-2.4,2-4.6,5.3-8.3,7.5c-3.8,2.2-16.7,5.2-20.1,7c-3.4,1.8-8,5.5-11.3,9.9c-3.3,4.4-5.7,8-6.5,8.3c-0.9,0.4-18.5,14.3-18.5,14.3
		s17.2,23.6,27.1,27.2c9.9,3.7,21.1,7.1,24.3,6.2c3.2-0.9,14.2-9.6,15.4-9.9c1.2-0.2,8.1-4.3,11.4-4.8c3.3-0.5,6.3-1.3,10-4.6
		c3.8-3.3,6.3-4.8,9-5.3c2.8-0.5,4.1-1.5,4.5-2.9c0.5-1.4,1.3-1.2,4.1-1.4c2.7-0.2,4.3-1.6,4.3-1.6s-1.9-0.8-2.4-2.8
		c-0.5-2,1.7-2.7,4.3-5.1c2.6-2.5,6.8-7.3,9.4-10c2.6-2.7,5-4.3,5-4.3s-1.2-0.2-1.9-1.2c-0.7-1.1-0.8-0.8,2.3-6.4
		c3.2-5.6,9.6-15.3,14.6-24.4c4.8-8.7,6-12.6,7.4-15.9c1.4-3.3,2.5-10.1,2.5-10.1s-3.9,1.7-6,3.2c-2,1.6-4.4,2.3-4.4,2.3
		s-0.1-4.6,1.2-10.8c1.4-6.1,2.6-14.1,2.5-18.8c-0.1-4.6-3.3-5-3.4-7.6c-0.2-2.7,0.2-10.7,0.6-14.7c0.4-4,1.1-5.8,1.2-7.1
		c0.6-6.2,0-5.6,0-7.5c0,0-3.9,1-5.9,5.7c-1.4,3.1-2.9,5.9-3.5,6.3c-0.6,0.4-1.5-0.6-1.8-2.6c-0.4-2-2.9-9.9-3.9-13.2
		c-1.1-3.7-2.2-8.9-2.6-10.6C418.2,236.5,415.4,233.1,415.4,233.1L415.4,233.1z M415.4,233.1"/>
	<path class="st3" d="M307,405.9c0,0,22.4-11.1,26.8-13.4c4.4-2.2,15.3-8.1,25-13.1c9.7-5,40.7-25.6,44-29
		c3.3-3.4,10.8-14.4,11.2-17c0.4-2.6,1.9-16.1,2.2-18.7c0.4-2.6-1.4-13.2-1.9-15.6c-0.5-2.4-11.3-11.1-11.3-11.1s-4.1-10.7-5.4-16.5
		c-1.3-5.9-17.9-25.4-17.9-25.4 M416.8,310.6c0,0-0.2-13.8,2.3-22.8c2.6-9-4.4-8.3-5.5-12.5c-1.1-4.1-5.2-12.4-6.2-17.1
		c-1.1-5.1-2.4-5-3.3-8.1 M419.7,285.7c0,0,2.1-10.5,1.7-17.2c-0.4-6.8-6.1-34-6.1-34 M416.2,312c0,0,5.1-3.9,7.2-6.5
		c2.1-2.6,14-15.7,14-15.7 M392.4,356.5c0,0-6.8-17.8-7.3-19.8c-0.5-2.1-2.1-20-2.9-22.1c-0.8-2.1-6.6-13.8-8.7-15.6 M403.6,367
		c0,0,0.3-2.6,0.1-6.1c-0.2-3.5-3.8-9.5-3.8-9.5s0.1-2.6,0.1-4.4c0.1-1.7,1.6-28.1,1.4-30.7c-0.2-2.7-1.3-16.7-5.8-23.9
		c-4.5-7.2-15-14.5-15-14.5 M383.3,316.7c0,0,8.2-1,15.1-1.4c7-0.4,15.9-3.4,17.1-3.9 M368.2,410.6c0,0,2.6-12.7,3.2-15.3
		c0.6-2.6,5.1-5.4,7.7-6.3c2.6-0.8,10.5-3.2,14.1-7.5c3.6-4.3,10.9-17,15.1-21c4.2-4,19.1-8.9,19.1-8.9 M375.7,391
		c0,0,0.9-2.1,1.3-5.6c0.4-3.5,2.2-22.8,1.4-25.8c-0.9-3.2-7.9-12.3-9.6-17.8c-1.6-5.3-2.3-9.3-2.3-9.3 M409.9,340.5
		c0,0,6.3-3.6,8.7-5.3c2.4-1.7,16.8-15.7,18.3-16.9 M347.8,385.7c0,0,0.6-11.8,1-15.9c0.4-4.1-3.2-16.3-3.2-16.3 M331.7,393.6
		c0,0,1.1-19.7,0.3-22.3c-0.8-2.7,0.9-13.5,0.9-13.5 M306.1,405.1l0.5-9.8c0,0,2.4-3.8,3.8-11.1c1.4-7.3,6.8-14.3,6.8-14.3
		 M353.2,420.4c0,0-0.4-1.9-2.6-7.2c-2.2-5.3-1.1-5.6,0.3-12c1.3-6.4,5.4-20.4,5.4-20.4 M328.1,422.3l1.2-3c0,0,3.1-7.8,3.2-11.9
		c0.1-4.1,3.8-16,3.8-16 M360.2,377.6c0,0,1.5-12.8,1-15.4c-0.5-2.7-3.3-18.1-3.3-18.1 M410.3,380.5c0,0-4.9,4.5-9.3,5.5
		c-4.4,1.1-15.6,0.8-15.6,0.8 M382.9,320.2c0,0-7.6,22-8.7,23.1c-1.1,1.1-3.2,7.2-3.2,7.2s-4.7,22.1-5.4,24.6 M405.1,251.3
		c0,0-4.3,21.8-4.3,25.6c0,3.8-13.9,29-14.2,38.2 M352.1,383.7c0,0,14.6,7.9,16.9,8.8c2.2,0.9,20.9,5.6,22,6.5"/>
	<path class="st1" d="M62.4,233.1c0,0,6.7,9.9,7.3,13.7c0.6,3.8,2.1,5.3,2.1,5.3s5.5-8,7.4-10.2c1.8-2.2,6.1-7.5,7.5-8.7
		c1.4-1.2,5-2.4,5-2.4s0.4,3.1-0.3,7.5c-0.7,4.4-0.7,7.6-1.1,9.6c-0.3,1.8-1.2,6.8-1.6,8.4c-0.4,1.6-0.1,2-0.1,2s2.2-1.1,3.7-4.6
		c1.5-3.5,2.5-5.4,2.9-6.9c0.4-1.4,3.6-3,3.6-3s1.5,3.6,1.3,8.9c-0.2,5.3,0.2,10.6-1.1,15c-1.4,4.4-1.7,5.3-0.6,9.2
		c1.1,3.8,2,4.2,1.8,7c-0.1,2.8-0.1,6.9,0.1,7.2c0.9,1.4,0.4,0.2,4.8,2.8c0,0,0,10.7-0.3,16.6c-0.1,1.7,2.6,3,3.7,3.7
		c1,0.6,1.3,1.4,1.3,1.4s-0.1,5.6-0.1,8c0,2.4-0.1,5.1,0.9,8.1c0.9,3,6.6,10.4,9,12.3c2.5,2,4.6,5.3,8.3,7.5
		c3.7,2.2,16.7,5.2,20.1,7c3.4,1.8,8,5.5,11.3,9.9c3.3,4.4,5.6,8,6.5,8.3c0.8,0.4,18.5,14.3,18.5,14.3s-17.3,23.6-27.1,27.2
		c-9.9,3.7-21.1,7.1-24.3,6.2c-3.2-0.9-14.2-9.6-15.4-9.9c-1.2-0.2-8.1-4.3-11.4-4.8c-3.3-0.5-6.3-1.3-10-4.6
		c-3.7-3.3-6.3-4.8-9-5.3c-2.8-0.5-4.1-1.5-4.5-2.9c-0.5-1.4-1.4-1.2-4-1.4c-2.7-0.2-4.3-1.6-4.3-1.6s1.9-0.8,2.4-2.8
		c0.6-2-1.7-2.7-4.3-5.1c-2.6-2.5-6.8-7.3-9.5-10c-2.6-2.7-5-4.3-5-4.3s1.2-0.2,1.9-1.2c0.7-1.1,0.9-0.8-2.3-6.4
		c-3.2-5.6-9.6-15.3-14.6-24.4c-4.8-8.7-6-12.6-7.4-15.9c-1.4-3.3-2.5-10.1-2.5-10.1s3.9,1.7,6,3.2c2,1.5,4.4,2.3,4.4,2.3
		s0.1-4.6-1.2-10.8c-1.3-6.1-2.6-14.1-2.5-18.8c0.1-4.6,3.3-5,3.4-7.6c0.2-2.7-0.2-10.7-0.6-14.7c-0.4-4-1.1-5.8-1.2-7.1
		c-0.6-6.2,0-5.6,0-7.5c0,0,3.9,1,6,5.7c1.4,3.1,2.9,5.9,3.5,6.3c0.6,0.4,1.5-0.6,1.8-2.6c0.4-2,2.9-9.9,3.9-13.2
		c1.1-3.7,2.2-8.9,2.6-10.6C59.5,236.5,62.4,233.1,62.4,233.1"/>
	<path class="st2" d="M62.4,233.1c0,0,6.7,9.9,7.3,13.7c0.6,3.8,2.1,5.3,2.1,5.3s5.5-8,7.4-10.2c1.8-2.2,6.1-7.5,7.5-8.7
		c1.4-1.2,5-2.4,5-2.4s0.4,3.1-0.3,7.5c-0.7,4.4-0.7,7.6-1.1,9.6c-0.3,1.8-1.2,6.8-1.6,8.4c-0.4,1.6-0.1,2-0.1,2s2.2-1.1,3.7-4.6
		c1.5-3.5,2.5-5.4,2.9-6.9c0.4-1.4,3.6-3,3.6-3s1.5,3.6,1.3,8.9c-0.2,5.3,0.2,10.6-1.1,15c-1.4,4.4-1.7,5.3-0.6,9.2
		c1.1,3.8,2,4.2,1.8,7c-0.1,2.8-0.1,6.9,0.1,7.2c0.9,1.4,0.4,0.2,4.8,2.8c0,0,0,10.7-0.3,16.6c-0.1,1.7,2.6,3,3.7,3.7
		c1,0.6,1.3,1.4,1.3,1.4s-0.1,5.6-0.1,8c0,2.4-0.1,5.1,0.9,8.1c0.9,3,6.6,10.4,9,12.3c2.5,2,4.6,5.3,8.3,7.5
		c3.7,2.2,16.7,5.2,20.1,7c3.4,1.8,8,5.5,11.3,9.9c3.3,4.4,5.6,8,6.5,8.3c0.8,0.4,18.5,14.3,18.5,14.3s-17.3,23.6-27.1,27.2
		c-9.9,3.7-21.1,7.1-24.3,6.2c-3.2-0.9-14.2-9.6-15.4-9.9c-1.2-0.2-8.1-4.3-11.4-4.8c-3.3-0.5-6.3-1.3-10-4.6
		c-3.7-3.3-6.3-4.8-9-5.3c-2.8-0.5-4.1-1.5-4.5-2.9c-0.5-1.4-1.4-1.2-4-1.4c-2.7-0.2-4.3-1.6-4.3-1.6s1.9-0.8,2.4-2.8
		c0.6-2-1.7-2.7-4.3-5.1c-2.6-2.5-6.8-7.3-9.5-10c-2.6-2.7-5-4.3-5-4.3s1.2-0.2,1.9-1.2c0.7-1.1,0.9-0.8-2.3-6.4
		c-3.2-5.6-9.6-15.3-14.6-24.4c-4.8-8.7-6-12.6-7.4-15.9c-1.4-3.3-2.5-10.1-2.5-10.1s3.9,1.7,6,3.2c2,1.5,4.4,2.3,4.4,2.3
		s0.1-4.6-1.2-10.8c-1.3-6.1-2.6-14.1-2.5-18.8c0.1-4.6,3.3-5,3.4-7.6c0.2-2.7-0.2-10.7-0.6-14.7c-0.4-4-1.1-5.8-1.2-7.1
		c-0.6-6.2,0-5.6,0-7.5c0,0,3.9,1,6,5.7c1.4,3.1,2.9,5.9,3.5,6.3c0.6,0.4,1.5-0.6,1.8-2.6c0.4-2,2.9-9.9,3.9-13.2
		c1.1-3.7,2.2-8.9,2.6-10.6C59.5,236.5,62.4,233.1,62.4,233.1L62.4,233.1z M62.4,233.1"/>
	<path class="st3" d="M98.2,246c0,0-16.6,19.5-17.9,25.4c-1.3,5.9-5.4,16.5-5.4,16.5s-10.8,8.8-11.3,11.1c-0.5,2.4-2.3,13-1.9,15.6
		c0.4,2.6,1.9,16.1,2.2,18.7c0.4,2.6,7.9,13.6,11.2,17c3.3,3.4,34.3,24,44,29c9.7,5,20.6,10.9,25,13.1c4.4,2.2,26.8,13.4,26.8,13.4
		 M73.7,250.1c-0.9,3.1-2.2,2.9-3.3,8.1c-1,4.7-5.2,13-6.2,17.1c-1,4.1-8,3.4-5.5,12.5c2.6,9,2.3,22.8,2.3,22.8 M62.5,234.5
		c0,0-5.7,27.2-6.1,34c-0.4,6.8,1.7,17.2,1.7,17.2 M40.4,289.7c0,0,11.9,13.2,14.1,15.7c2.1,2.6,7.2,6.5,7.2,6.5 M104.3,299.1
		c-2.1,1.8-7.9,13.5-8.7,15.6c-0.8,2.1-2.4,20-2.9,22.1c-0.5,2.1-7.3,19.8-7.3,19.8 M97.3,278c0,0-10.6,7.3-15,14.5
		c-4.5,7.2-5.6,21.2-5.8,23.9c-0.2,2.6,1.3,29,1.4,30.7c0,1.8,0.1,4.4,0.1,4.4s-3.6,6-3.8,9.5c-0.2,3.5,0.1,6.1,0.1,6.1 M62.2,311.5
		c1.2,0.6,10.1,3.5,17.1,3.9c7,0.4,15.1,1.4,15.1,1.4 M50.4,351.6c0,0,14.9,4.9,19.1,8.9c4.2,4,11.5,16.7,15.1,21
		c3.6,4.3,11.5,6.7,14.1,7.5c2.6,0.8,7.1,3.6,7.7,6.3c0.6,2.6,3.2,15.3,3.2,15.3 M111.3,332.5c0,0-0.7,4-2.3,9.3
		c-1.7,5.5-8.7,14.6-9.6,17.8c-0.8,2.9,1,22.3,1.4,25.8c0.4,3.5,1.3,5.6,1.3,5.6 M41,318.4c1.5,1.1,15.9,15.1,18.3,16.8
		c2.4,1.7,8.7,5.3,8.7,5.3 M132.2,353.4c0,0-3.6,12.2-3.2,16.3c0.4,4.1,1,15.9,1,15.9 M144.8,357.9c0,0,1.7,10.8,0.9,13.5
		c-0.8,2.7,0.3,22.3,0.3,22.3 M160.5,369.9c0,0,5.5,7,6.8,14.3c1.3,7.3,3.8,11.1,3.8,11.1l0.5,9.8 M121.4,380.8
		c0,0,4.1,13.9,5.4,20.4c1.3,6.4,2.5,6.7,0.3,12c-2.2,5.3-2.6,7.2-2.6,7.2 M141.4,391.3c0,0,3.7,11.9,3.8,16
		c0.1,4.1,3.2,11.9,3.2,11.9l1.2,3 M119.8,344.1c0,0-2.7,15.4-3.3,18.1c-0.5,2.6,1,15.4,1,15.4 M92.4,386.8c0,0-11.3,0.3-15.6-0.8
		c-4.4-1.1-9.3-5.5-9.3-5.5 M94.9,320.2c0,0,7.6,22,8.7,23.1c1.1,1.1,3.2,7.2,3.2,7.2s4.7,22.1,5.4,24.6 M72.6,251.3
		c0,0,4.3,21.8,4.3,25.6c0,3.8,13.9,29,14.2,38.2 M125.7,383.7c0,0-14.6,7.9-16.9,8.8c-2.2,0.9-20.9,5.6-22,6.5"/>
	<path class="st4" d="M239.9,429.4c0,0,12.9,0,27.5,0.5c14.6,0.5,33.7,2.4,33.7,2.4s0.5,16.8,1.8,23c1.3,6.2,14.8,11.1,25.2,10.9
		c10.4-0.2,21,1.1,37.4,4c16.4,2.9,32.8,16.6,32.8,16.6l-12.4-35l41.6-4.4c0,0-9.3-6.7-22.6-12.9c-13.3-6.2-30.8-9.1-41.7-9.7
		c-10.9-0.5-30.6,1.3-30.6,1.3s-0.2-12.2-0.5-17.1c-0.4-4.9-1.1-21.1-1.1-21.1s-14.4-4.6-37.6-7.5c-23.2-2.9-54.3-3.1-54.3-3.1h-0.2
		c0,0-31.2,0.2-54.3,3.1c-23.2,2.9-37.5,7.5-37.5,7.5s-0.7,16.2-1.1,21.1c-0.4,4.9-0.5,17.1-0.5,17.1s-19.7-1.8-30.6-1.3
		c-10.9,0.5-28.4,3.5-41.7,9.7c-13.3,6.2-22.6,12.9-22.6,12.9l41.6,4.4l-12.4,35c0,0,16.4-13.7,32.8-16.6c16.4-2.9,27-4.2,37.4-4
		c10.4,0.2,23.9-4.7,25.2-10.9c1.3-6.2,1.8-23,1.8-23s19.1-1.8,33.7-2.4c14.6-0.5,27.5-0.5,27.5-0.5"/>
	<path class="st5" d="M239.9,429.4c0,0,12.9,0,27.5,0.5c14.6,0.5,33.7,2.4,33.7,2.4s0.5,16.8,1.8,23c1.3,6.2,14.8,11.1,25.2,10.9
		c10.4-0.2,21,1.1,37.4,4c16.4,2.9,32.8,16.6,32.8,16.6l-12.4-35l41.6-4.4c0,0-9.3-6.7-22.6-12.9c-13.3-6.2-30.8-9.1-41.7-9.7
		c-10.9-0.5-30.6,1.3-30.6,1.3s-0.2-12.2-0.5-17.1c-0.4-4.9-1.1-21.1-1.1-21.1s-14.4-4.6-37.6-7.5c-23.2-2.9-54.3-3.1-54.3-3.1h-0.2
		c0,0-31.2,0.2-54.3,3.1c-23.2,2.9-37.5,7.5-37.5,7.5s-0.7,16.2-1.1,21.1c-0.4,4.9-0.5,17.1-0.5,17.1s-19.7-1.8-30.6-1.3
		c-10.9,0.5-28.4,3.5-41.7,9.7c-13.3,6.2-22.6,12.9-22.6,12.9l41.6,4.4l-12.4,35c0,0,16.4-13.7,32.8-16.6c16.4-2.9,27-4.2,37.4-4
		c10.4,0.2,23.9-4.7,25.2-10.9c1.3-6.2,1.8-23,1.8-23s19.1-1.8,33.7-2.4c14.6-0.5,27.5-0.5,27.5-0.5H239.9L239.9,429.4z
		 M239.9,429.4"/>
	<path class="st6" d="M177.9,432.3c0,0-16.4,1-21.6,1.8c-4.7,0.7-11.3,2.2-11.3,7.2c0,6.4,7.1,5.9,14.9,5.9c7.8,0,16.4,0.2,16.4,0.2
		 M145.3,427.2c0,0-0.4,10.4-0.3,14 M299.8,432.2c0,0,16.5,1.1,21.6,1.9c4.7,0.8,11.3,2.2,11.3,7.2c0,6.4-7.1,5.8-15,5.8
		c-7.8,0-16.4,0.2-16.4,0.2 M332.6,428.4c0,0,0.4,9.2,0.2,12.8"/>
	<polyline class="st7" points="156.9,393.3 166.1,392.5 168.8,424.2 159.5,425 	"/>
	<polyline class="st7" points="173.7,391.5 201.7,389.5 202.3,397.3 192.9,398 194.6,421.9 185.4,422.6 183.7,398.7 174.3,399.3 	
		"/>
	<path class="st7" d="M226.3,415.1l-10.5,0.3l-1.3,5.3l-9.5,0.2l10.4-32.1l10.1-0.3l12.1,31.5l-9.7,0.3 M224.1,408.3l-3.6-11.3
		l-3,11.5L224.1,408.3L224.1,408.3z M224.1,408.3"/>
	<polyline class="st7" points="244.6,388.1 253.9,388.4 253.3,412.3 267.7,412.7 267.5,420.5 243.8,419.9 	"/>
	<polyline class="st7" points="276.4,389.4 285.7,389.9 283.9,421.7 274.7,421.2 	"/>
	<path class="st7" d="M312.3,418.7l-10.5-1.1l-2,5.1l-9.4-0.9l14.4-30.5l10.1,1l8,32.8l-9.6-1 M311,411.7l-2.1-11.7l-4.4,11.1
		L311,411.7L311,411.7z M311,411.7"/>
	<polyline class="st8" points="111.7,259.4 117.7,274.1 127.4,290 147,313.5 168.7,330.4 194.7,344.5 194.7,101.7 111.7,101.7 	"/>
	<polyline class="st9" points="362.8,259.4 356.7,274.1 347.1,290 327.5,313.5 305.8,330.4 279.8,344.5 279.8,101.7 362.8,101.7 	
		"/>
	<path class="st4" d="M111.7,20.7h254.4v81.7H111.7V20.7L111.7,20.7z M111.7,20.7"/>
	<path class="st10" d="M238.9,360c0,0,11-3.9,19-7.4c7.4-3.2,26.4-9.9,56.1-29.6c47.4-31.6,51.9-75.6,51.9-93.9V19.4H239.3h-0.8
		H111.9v209.7c0,18.3,4.6,62.3,51.9,93.9c29.6,19.8,48.6,26.5,56.1,29.6C227.9,356.1,238.9,360,238.9,360L238.9,360L238.9,360z
		 M238.9,360 M111.3,101.2h254.4"/>
	<polyline class="st7" points="140.8,36.5 179,36.5 179,47.2 156.3,47.2 156.3,55.9 175.8,55.9 175.8,66.1 156.3,66.1 156.3,86.4 
		140.8,86.4 	"/>
	<path class="st7" d="M191.3,74.5h12.6v11.9h-12.6V74.5L191.3,74.5z M191.3,74.5"/>
	<path class="st7" d="M218,36.5h15.4v49.9H218V36.5L218,36.5z M218,36.5"/>
	<path class="st7" d="M248.5,74.5h12.6v11.9h-12.6V74.5L248.5,74.5z M248.5,74.5"/>
	<path class="st7" d="M274.8,86.4V36.5h25.7c4.8,0,8.4,0.4,10.9,1.2c2.5,0.8,4.6,2.3,6.1,4.6c1.6,2.2,2.3,4.9,2.3,8.1
		c0,2.8-0.6,5.2-1.8,7.2c-1.2,2-2.8,3.6-4.9,4.9c-1.3,0.8-3.1,1.5-5.4,2c1.8,0.6,3.2,1.2,4,1.9c0.6,0.4,1.4,1.3,2.5,2.6
		c1.1,1.3,1.8,2.4,2.2,3.1l7.5,14.4h-17.4l-8.2-15.2c-1.1-2-2-3.3-2.8-3.8c-1.1-0.8-2.4-1.2-3.8-1.2h-1.4v20.2 M290.3,56.7h6.5
		c0.7,0,2.1-0.2,4.1-0.7c1-0.2,1.9-0.7,2.5-1.6c0.7-0.8,1-1.8,1-2.9c0-1.6-0.5-2.8-1.5-3.7c-1-0.9-2.9-1.3-5.8-1.3h-6.8L290.3,56.7
		L290.3,56.7z M290.3,56.7"/>
	<path class="st7" d="M332.9,74.5h12.6v11.9h-12.6V74.5L332.9,74.5z M332.9,74.5"/>
</g>
</svg>
