<?xml version="1.0" encoding="utf-8"?>
<!-- Generator: Adobe Illustrator 19.1.0, SVG Export Plug-In . SVG Version: 6.00 Build 0)  -->
<svg version="1.1" id="Layer_1" xmlns="http://www.w3.org/2000/svg" xmlns:xlink="http://www.w3.org/1999/xlink" x="0px" y="0px"
	 viewBox="0 0 300 300" style="enable-background:new 0 0 300 300;" xml:space="preserve">
<style type="text/css">
	.st0{fill:#A5DAD4;}
	.st1{fill:#01AA95;}
	.st2{fill:#FAC6C5;}
	.st3{fill:#F16578;}
	.st4{fill:none;stroke:#F16578;stroke-width:2.7259;}
</style>
<g>
	<path class="st0" d="M140.8,253.8c0,0-13.1,17.6-49.4,17.6c-36.2,0-53.2-17.5-53.2-17.5s18-20.2,53.2-20.2S140.8,253.8,140.8,253.8
		"/>
	<path class="st0" d="M159.7,254c0,0,13.5,17.3,49.7,16.5c36.2-0.8,52.9-18.7,52.9-18.7s-18.4-19.8-53.6-19.1
		C173.5,233.6,159.7,254,159.7,254"/>
	<path class="st1" d="M263.8,250.5c-0.8-0.8-23.4-20.3-59.2-19.6c-30.5,0.6-46.1,21.1-46.7,22l-0.6,1c-1,0.2-2,0.5-2.8,0.7
		c0.7-5.3,1.4-11,2-17.1c1.4-1,4.2-3.3,7.9-7.5c5.6-6.4,9.7-12.7,9.7-12.7l-3-0.8c0,0-2.2,3.4-7.5,8.6c-2.6,2.6-4.8,4.3-6.5,5.4
		c0.2-3,0.5-6.1,0.7-9.3c2.5-42.1-0.4-47.2-0.4-47.2l-5-0.2c0,0,2.6,5.2-2.2,47.2c-0.5,4.5-1.1,8.9-1.7,13.1
		c-1.5-1.2-3.9-3.1-6.9-5.9c-5.6-5.2-13.5-16.5-13.5-16.5l-3.4,1.5c0,0,9,12,13.5,18.3c3.2,4.5,7.1,8.1,9.1,9.8
		c-0.7,4.5-1.5,8.7-2.3,12.7c-0.6-0.1-1.2-0.3-1.8-0.4l-0.7-1c-0.6-0.9-16.7-21-47.2-21c-35.7,0-58,20-58.8,20.8l-1.3,1.5l1.4,1.4
		c0.7,0.7,18.8,17.9,55.5,17.9c31.2,0,45.2-12.4,49.1-16.7c1.2,0.3,2.2,0.5,3.1,0.7c-4.4,21.7-8.8,35.2-8.8,35.2h11.9
		c0.9-3.4,3.9-15.9,6.5-34.3c1.2-0.4,3-0.8,5.2-1.4c4,4.2,18.3,16.3,49.5,15.6c36.7-0.8,54.4-18.3,55.1-19l1.3-1.4 M91.4,235.7
		c1.1,0,2.3,0,3.3,0.1c1.5,1.3,5.1,4.4,7.6,6.7c2,1.9,4,4.3,5.2,5.8c-3.5-0.3-7.1-0.4-10.8-0.5c-6.5-0.2-12.9,0.1-18.9,0.5
		c-0.2-0.1-0.4-0.1-0.5-0.2c-0.4-0.5-1.9-2.1-4.1-4.2c-1.6-1.5-4.1-3.5-5.7-4.7C74.2,237.2,82.2,235.7,91.4,235.7L91.4,235.7z
		 M41.3,253.7c3.1-2.9,11.2-9.4,24-13.8c1.4,1.1,4.7,3.6,6.6,5.4c1.4,1.3,2.5,2.4,3.2,3.2c-16,1.4-29.1,4.2-33.7,5.2
		C41.4,253.8,41.4,253.7,41.3,253.7L41.3,253.7z M42.5,254.6c6-1.2,19-3.5,34.3-4.4c-1.2,1.6-3.7,4.6-7,7.8c-3.2,3-6.2,5.1-8,6.3
		C52.1,261.3,45.8,257.2,42.5,254.6L42.5,254.6z M89.8,268.3c-10.3,0-18.8-1.3-25.7-3.3c1.8-1.3,4.4-3.2,7-5.6
		c4.7-4.4,7.6-8.5,8.1-9.2c5.4-0.2,11-0.3,16.7,0c5,0.2,9.8,0.6,14.3,1.1c-1.8,2.2-5.2,6.2-9.6,10.3c-3,2.8-6,5.1-8.2,6.7
		C91.5,268.2,90.7,268.3,89.8,268.3L89.8,268.3z M95.6,268.1c1.9-1.4,4-3.2,6.2-5.3c5.1-4.9,9-9.5,10.5-11.4
		c9.4,1.1,17.6,2.6,23.8,3.9C130.9,259.5,117.7,267,95.6,268.1L95.6,268.1z M109.9,248.6c-0.8-1-3.5-4.6-6.3-7.3
		c-1.8-1.7-4.1-3.7-5.9-5.2c21.6,1.6,33.9,11.3,38.8,16.2C129.7,250.8,120.5,249.4,109.9,248.6L109.9,248.6z M205.4,235.1
		c1.1-0.1,2.2-0.1,3.4-0.1c9.2-0.2,17.2,1.1,24,3c-1.6,1.3-4.1,3.3-5.6,4.9c-2.1,2.1-3.6,3.8-4,4.3c-0.1,0-0.3,0.1-0.5,0.2
		c-6.1-0.3-12.5-0.4-18.9-0.1c-3.7,0.2-7.3,0.4-10.8,0.8c1.2-1.6,3.1-4,5-5.9C200.4,239.6,203.9,236.4,205.4,235.1L205.4,235.1z
		 M202.4,235.3c-1.7,1.6-4,3.6-5.7,5.4c-2.8,2.8-5.4,6.4-6.2,7.5c-10.5,1.1-19.6,2.7-26.5,4.1C168.7,247.3,180.8,237.4,202.4,235.3
		L202.4,235.3z M164.3,255.5c6.2-1.4,14.4-3.1,23.8-4.3c1.5,1.8,5.5,6.4,10.7,11.2c2.2,2,4.4,3.7,6.3,5.1
		C183,266.7,169.7,259.6,164.3,255.5L164.3,255.5z M211,267.5c-0.9,0-1.7,0-2.6,0c-2.3-1.6-5.3-3.8-8.4-6.5c-4.5-4-8-8-9.8-10.1
		c4.5-0.6,9.3-1.1,14.3-1.4c5.7-0.4,11.3-0.4,16.7-0.3c0.5,0.7,3.6,4.7,8.3,9c2.7,2.4,5.2,4.3,7.1,5.5
		C229.8,265.7,221.3,267.2,211,267.5L211,267.5z M238.9,262.9c-1.8-1.1-4.9-3.2-8.1-6.1c-3.4-3.1-5.9-6-7.2-7.6
		c15.3,0.5,28.4,2.5,34.4,3.6C254.7,255.5,248.6,259.7,238.9,262.9L238.9,262.9z M259.1,252c-4.6-1-17.7-3.5-33.8-4.5
		c0.7-0.8,1.8-2,3.1-3.3c1.8-1.8,5.1-4.4,6.5-5.5c12.9,4.1,21.1,10.4,24.3,13.3C259.1,251.9,259.1,251.9,259.1,252L259.1,252z
		 M259.1,252"/>
	<path class="st2" d="M234.8,133.2c0,0-2.3-8.4-7.1-16.8c-4.8-8.4-12.2-14.2-12.2-14.2s-3.6,3.1-7.5,7.7c-4.4-4.1-8.3-6.7-8.3-6.7
		s-6.7,6.6-10.4,15.5c-3.8,8.9-5,17.5-5,17.5s-8.7-0.5-18.2,1.5c-9.5,1.9-17.3,7.2-17.3,7.2s1.8,4.3,5,9.5c-5.3,2.9-9,5.8-9,5.8
		s4.2,8.4,11.5,14.7c7.3,6.3,15.1,10.2,15.1,10.2s-3.2,8.1-4.3,17.8c-1.1,9.6,1.5,18.6,1.5,18.6s4.7-0.4,10.5-1.8
		c1.1,5.9,2.8,10.3,2.8,10.3s9.3-1.4,17.6-6.4c8.3-5,14.6-11.3,14.6-11.3s7,5.5,15.8,9.5c8.8,4,18.2,4.3,18.2,4.3s1.1-4.6,1.5-10.6
		c6,0.7,10.7,0.6,10.7,0.6s1.5-9.3-0.7-18.7c-2.2-9.4-6.4-17.1-6.4-17.1s7.2-4.7,13.8-11.9c6.5-7.2,9.7-16,9.7-16s-4-2.5-9.6-4.7
		c2.6-5.4,3.8-10,3.8-10s-8.3-4.3-18-5.1C243.4,131.7,234.8,133.2,234.8,133.2"/>
	<path class="st3" d="M213.6,99.8c-0.1,0.1-2.6,2.3-5.7,5.7c-3.5-3-6.2-4.9-6.4-5l-2.1-1.4l-1.8,1.7c-0.3,0.3-7.1,7.1-11.1,16.5
		c-2.7,6.3-4.1,12.3-4.7,15.6c-3.4,0-9.6,0.2-16.3,1.6c-10,2-18,7.4-18.4,7.7l-2.1,1.4l1,2.3c0.1,0.2,1.4,3.2,3.6,7.2
		c-3.9,2.4-6.6,4.4-6.7,4.5l-1.9,1.5l1.1,2.2c0.2,0.4,4.6,9,12.3,15.7c5.2,4.5,10.4,7.7,13.3,9.3c-1.1,3.2-2.8,9.2-3.6,16
		c-0.2,1.8-0.3,3.6-0.3,5.2c0,7.9,1.8,14.3,1.9,14.6l0.7,2.4l2.5-0.2c0.2,0,3.5-0.3,8-1.2c1,4.5,2.2,7.6,2.2,7.8l0.9,2.3l2.5-0.4
		c0.4-0.1,10-1.6,18.7-6.8c5.9-3.6,10.7-7.6,13.2-9.9c2.8,2,8,5.5,14.3,8.3c9.3,4.2,18.9,4.6,19.4,4.6l2.5,0.1l0.6-2.4
		c0-0.2,0.8-3.4,1.3-8c4.5,0.4,7.9,0.3,8.1,0.3l2.5-0.1l0.4-2.4c0-0.2,0.6-3.5,0.6-8c0-3.4-0.3-7.6-1.3-11.8
		c-1.6-6.7-4-12.4-5.4-15.5c2.7-2,7.5-5.8,12.1-10.8c6.9-7.5,10.2-16.6,10.4-17l0.8-2.3l-2.1-1.3c-0.1-0.1-3-1.8-7.2-3.7
		c1.8-4.2,2.7-7.4,2.8-7.6l0.7-2.4l-2.2-1.1c-0.4-0.2-9-4.6-19.1-5.5c-6.9-0.6-13-0.1-16.4,0.3c-1-3.2-3.2-9-6.6-15
		c-5-8.9-12.6-14.8-13-15.1l-2-1.5 M210.5,111.8c2-2.4,3.9-4.3,5.2-5.5c2.4,2.2,6.5,6.4,9.5,11.6c4.5,8,6.7,16,6.8,16.1l0.7,2.7
		l2.7-0.5c0.1,0,8.4-1.4,17.5-0.6c6,0.5,11.5,2.5,14.5,3.8c-0.6,1.8-1.5,4.2-2.9,7l-1.4,2.9l3,1.2c2.9,1.2,5.2,2.4,6.9,3.2
		c-1.3,2.9-4,8.1-8.1,12.6c-6.2,6.8-13.1,11.3-13.2,11.4l-2.3,1.5l1.3,2.5c0,0.1,4,7.5,6.1,16.4c0.9,3.7,1.1,7.4,1.1,10.4
		c0,1.8-0.1,3.3-0.2,4.5c-1.9,0-4.4-0.1-7.6-0.5l-3.2-0.4l-0.2,3.2c-0.2,3.1-0.6,5.7-1,7.5c-3.2-0.4-9-1.3-14.5-3.8
		c-8.4-3.8-15.1-9.1-15.2-9.1l-2.1-1.7l-1.9,1.9c-0.1,0.1-6.1,6.1-14,10.8c-5.2,3.1-10.8,4.8-14,5.5c-0.5-1.8-1.2-4.3-1.8-7.4
		l-0.6-3.1l-3.1,0.8c-3,0.7-5.6,1.2-7.5,1.4c-0.5-2.4-1.1-6.1-1.1-10.5c0-1.5,0.1-3,0.2-4.5c1-9.1,4.1-16.9,4.1-17l1-2.6l-2.5-1.2
		c-0.1,0-7.5-3.8-14.4-9.8c-4.6-4-7.9-8.8-9.5-11.6c1.5-1.1,3.7-2.5,6.4-4l2.8-1.5l-1.7-2.7c-1.6-2.6-2.9-5-3.7-6.7
		c2.8-1.6,8-4.2,14-5.4c9-1.8,17.3-1.4,17.4-1.4l2.8,0.2l0.4-2.7c0-0.1,1.2-8.4,4.8-16.8c2.4-5.6,5.9-10.2,8.1-12.7
		c1.5,1.1,3.6,2.8,5.8,4.9l2.3,2.2L210.5,111.8L210.5,111.8z M210.5,111.8"/>
	<path class="st2" d="M174.7,42.2c0,0-2.4-8.4-7.3-16.7c-4.9-8.4-12.4-14-12.4-14s-3.5,3.1-7.3,7.8c-4.5-4-8.4-6.6-8.4-6.6
		s-6.6,6.7-10.2,15.7c-3.6,9-4.7,17.6-4.7,17.6s-8.7-0.3-18.2,1.8C96.7,49.9,89,55.3,89,55.3s1.9,4.3,5.1,9.4c-5.2,3-8.9,6-8.9,6
		s4.3,8.3,11.8,14.5c7.4,6.2,15.2,9.9,15.2,9.9s-3.1,8.2-4,17.8c-0.9,9.7,1.8,18.6,1.8,18.6s4.7-0.5,10.5-2
		c1.2,5.9,2.9,10.3,2.9,10.3s9.2-1.6,17.5-6.7c8.2-5.2,14.4-11.5,14.4-11.5s7.1,5.4,16,9.2c8.9,3.9,18.3,4,18.3,4s1-4.6,1.4-10.6
		c6,0.6,10.7,0.4,10.7,0.4s1.4-9.3-1-18.7c-2.4-9.4-6.6-17-6.6-17s7.1-4.8,13.6-12.1c6.4-7.3,9.5-16.1,9.5-16.1s-4.1-2.4-9.7-4.6
		c2.5-5.5,3.7-10,3.7-10s-8.4-4.2-18.1-4.8C183.3,40.5,174.7,42.2,174.7,42.2"/>
	<path class="st3" d="M153,9.2c-0.1,0.1-2.6,2.4-5.6,5.8c-3.5-2.9-6.3-4.8-6.4-4.9l-2.1-1.3l-1.7,1.8c-0.3,0.3-7,7.2-10.8,16.7
		c-2.6,6.3-3.9,12.4-4.5,15.7c-3.4,0-9.5,0.3-16.2,1.8c-9.9,2.2-17.9,7.7-18.2,8l-2,1.4l1,2.3c0.1,0.2,1.4,3.2,3.8,7.1
		c-3.9,2.4-6.5,4.5-6.6,4.6l-1.9,1.6l1.1,2.2c0.2,0.4,4.7,8.9,12.5,15.5c5.2,4.4,10.5,7.5,13.5,9.1c-1,3.2-2.7,9.2-3.3,16.1
		c-0.1,1.5-0.2,3-0.2,4.4c0,8.3,2.1,15.1,2.2,15.4l0.7,2.4l2.5-0.2c0.2,0,3.5-0.4,8-1.4c1.1,4.4,2.3,7.6,2.3,7.7l0.9,2.3l2.4-0.4
		c0.4-0.1,9.9-1.7,18.6-7.1c5.8-3.7,10.6-7.8,13.1-10.2c2.8,1.9,8.1,5.3,14.5,8.1c9.3,4,19,4.3,19.4,4.3l2.5,0l0.5-2.4
		c0-0.2,0.7-3.4,1.2-8c4.6,0.3,7.9,0.2,8.1,0.2l2.5-0.1l0.4-2.5c0-0.2,0.4-3,0.4-7c0-3.6-0.3-8.2-1.5-12.8
		c-1.7-6.6-4.2-12.3-5.7-15.4c2.7-2,7.4-5.9,11.9-11c6.7-7.6,9.9-16.8,10.1-17.2l0.8-2.3l-2.1-1.3c-0.1-0.1-3-1.7-7.3-3.6
		c1.7-4.3,2.6-7.5,2.6-7.6l0.6-2.4l-2.2-1.1c-0.4-0.2-9.1-4.4-19.2-5.1c-6.9-0.5-13,0.2-16.4,0.6c-1.1-3.2-3.3-9-6.8-14.9
		c-5.2-8.8-12.9-14.6-13.2-14.9l-2-1.5 M150,21.2c2-2.4,3.8-4.3,5.1-5.6c2.4,2.1,6.6,6.2,9.7,11.5c4.7,7.9,7,15.9,7,16l0.8,2.7
		l2.7-0.5c0.1,0,8.3-1.6,17.5-0.9c6.1,0.4,11.6,2.3,14.6,3.5c-0.6,1.8-1.5,4.3-2.7,7.1l-1.3,2.9l3,1.2c2.9,1.1,5.3,2.3,6.9,3.1
		c-1.3,3-3.9,8.2-7.9,12.7c-6.1,6.9-12.9,11.6-13,11.6l-2.3,1.6l1.4,2.4c0,0.1,4.1,7.4,6.3,16.3c1,4.1,1.3,8.2,1.3,11.4
		c0,1.4-0.1,2.6-0.1,3.6c-1.9,0-4.5-0.1-7.6-0.4l-3.2-0.3L188,124c-0.2,3.1-0.5,5.7-0.8,7.6c-3.2-0.3-9-1.2-14.6-3.6
		c-8.4-3.7-15.3-8.8-15.3-8.9l-2.1-1.6l-1.9,1.9c-0.1,0.1-6,6.2-13.8,11.1c-5.1,3.2-10.7,4.9-13.9,5.7c-0.6-1.8-1.3-4.3-2-7.3
		l-0.7-3.1l-3.1,0.8c-3,0.8-5.6,1.3-7.4,1.5c-0.6-2.5-1.3-6.5-1.3-11.2c0-1.2,0.1-2.5,0.2-3.8c0.9-9.1,3.8-17,3.8-17l1-2.6l-2.5-1.2
		c-0.1,0-7.5-3.6-14.6-9.5c-4.7-3.9-8-8.7-9.7-11.4c1.5-1.1,3.7-2.6,6.4-4.1l2.8-1.6L96.7,63c-1.7-2.6-2.9-4.9-3.8-6.6
		c2.8-1.6,8-4.3,13.9-5.7c8.9-2,17.3-1.7,17.4-1.7l2.8,0.1l0.4-2.8c0-0.1,1.1-8.4,4.5-16.9c2.3-5.6,5.8-10.3,7.8-12.8
		c1.5,1.1,3.6,2.7,5.9,4.8l2.4,2.1L150,21.2L150,21.2z M150,21.2"/>
	<line class="st4" x1="129" y1="72" x2="174.9" y2="79.8"/>
	<path class="st3" d="M174.5,82.4c1.5,0.2,2.8-0.7,3.1-2.2c0.3-1.5-0.7-2.8-2.2-3.1c-1.5-0.2-2.8,0.7-3.1,2.2
		C172,80.8,173,82.2,174.5,82.4"/>
	<path class="st3" d="M129.4,69.3c-1.5-0.3-2.8,0.7-3.1,2.2c-0.2,1.5,0.7,2.8,2.2,3.1c1.5,0.2,2.8-0.7,3.1-2.2
		C131.9,70.9,130.9,69.6,129.4,69.3"/>
	<line class="st4" x1="130.1" y1="84" x2="173.8" y2="67.8"/>
	<path class="st3" d="M174.7,70.3c1.4-0.5,2.1-2.1,1.6-3.4c-0.5-1.4-2.1-2.1-3.4-1.6c-1.4,0.5-2.1,2.1-1.6,3.4
		C171.8,70.1,173.4,70.8,174.7,70.3"/>
	<path class="st3" d="M129.2,81.5c-1.4,0.5-2.1,2.1-1.6,3.4c0.5,1.4,2.1,2.1,3.4,1.6c1.4-0.5,2.1-2.1,1.6-3.4
		C132.1,81.6,130.6,80.9,129.2,81.5"/>
	<line class="st4" x1="137.1" y1="93.8" x2="166.8" y2="57.9"/>
	<path class="st3" d="M168.9,59.6c0.9-1.1,0.8-2.8-0.4-3.8c-1.1-0.9-2.8-0.8-3.8,0.4c-0.9,1.1-0.8,2.8,0.4,3.8
		C166.3,60.9,168,60.8,168.9,59.6"/>
	<path class="st3" d="M135,92.1c-0.9,1.1-0.8,2.8,0.3,3.8c1.1,0.9,2.8,0.8,3.8-0.4c0.9-1.1,0.8-2.8-0.4-3.8
		C137.7,90.8,136,90.9,135,92.1"/>
	<line class="st4" x1="148.1" y1="98.8" x2="155.9" y2="52.9"/>
	<path class="st3" d="M158.5,53.3c0.2-1.5-0.7-2.8-2.2-3.1c-1.5-0.2-2.8,0.7-3.1,2.2c-0.2,1.5,0.7,2.9,2.2,3.1
		C156.9,55.8,158.3,54.8,158.5,53.3"/>
	<path class="st3" d="M145.4,98.4c-0.2,1.5,0.7,2.8,2.2,3.1c1.5,0.2,2.8-0.7,3.1-2.2c0.2-1.5-0.7-2.8-2.2-3.1
		C147,95.9,145.7,96.9,145.4,98.4"/>
	<line class="st4" x1="160.1" y1="97.7" x2="143.9" y2="54"/>
	<path class="st3" d="M146.4,53.1c-0.5-1.4-2.1-2.1-3.4-1.6c-1.4,0.5-2.1,2.1-1.6,3.4c0.5,1.4,2.1,2.1,3.4,1.6
		C146.2,56,146.9,54.5,146.4,53.1"/>
	<path class="st3" d="M157.6,98.6c0.5,1.4,2,2.1,3.4,1.6c1.4-0.5,2.1-2.1,1.6-3.4c-0.5-1.4-2.1-2.1-3.4-1.6
		C157.7,95.7,157,97.2,157.6,98.6"/>
	<line class="st4" x1="169.9" y1="90.7" x2="134" y2="61"/>
	<path class="st3" d="M135.7,58.9c-1.1-0.9-2.8-0.8-3.8,0.4c-0.9,1.1-0.8,2.8,0.3,3.8c1.1,0.9,2.8,0.8,3.8-0.3
		C137,61.6,136.9,59.9,135.7,58.9"/>
	<path class="st3" d="M168.2,92.8c1.1,0.9,2.8,0.8,3.8-0.4c0.9-1.1,0.8-2.8-0.3-3.8c-1.1-0.9-2.8-0.8-3.8,0.4
		C166.9,90.2,167.1,91.8,168.2,92.8"/>
	<path class="st3" d="M146.8,76.2c-0.2-2.8,1.9-5.3,4.7-5.5c2.8-0.2,5.3,1.9,5.5,4.7c0.2,2.8-1.9,5.3-4.7,5.5
		C149.5,81.2,147,79.1,146.8,76.2"/>
	<path class="st2" d="M111.4,131.5c0,0-2.4-8.4-7.4-16.7c-5-8.3-12.5-14-12.5-14s-3.5,3.1-7.3,7.8c-4.5-4-8.4-6.6-8.4-6.6
		s-6.5,6.7-10.1,15.7c-3.6,9-4.7,17.6-4.7,17.6s-8.7-0.3-18.2,1.8c-9.5,2.1-17.1,7.5-17.1,7.5s1.9,4.3,5.2,9.4c-5.2,3-8.9,6-8.9,6
		s4.4,8.3,11.8,14.5c7.5,6.2,15.2,9.9,15.2,9.9s-3.1,8.2-4,17.8c-0.9,9.7,1.9,18.6,1.9,18.6s4.7-0.5,10.5-2c1.2,5.9,3,10.3,3,10.3
		s9.2-1.6,17.5-6.8C86,217.3,92.2,211,92.2,211s7.1,5.4,16,9.2c8.9,3.8,18.3,4,18.3,4s1-4.6,1.3-10.6c6,0.6,10.7,0.4,10.7,0.4
		s1.3-9.3-1-18.7c-2.4-9.4-6.7-17-6.7-17s7.1-4.8,13.5-12.1c6.4-7.3,9.4-16.2,9.4-16.2s-4.1-2.4-9.7-4.5c2.5-5.5,3.7-10,3.7-10
		s-8.4-4.1-18.1-4.8C119.9,129.9,111.4,131.5,111.4,131.5"/>
	<path class="st3" d="M89.5,98.6c-0.1,0.1-2.6,2.4-5.6,5.8c-3.5-2.9-6.3-4.8-6.5-4.9l-2.1-1.3l-1.7,1.8c-0.3,0.3-7,7.3-10.8,16.7
		c-2.5,6.4-3.8,12.4-4.4,15.7c-3.4,0.1-9.5,0.4-16.2,1.9c-9.9,2.2-17.9,7.8-18.2,8l-2,1.4l1,2.3c0.1,0.2,1.4,3.2,3.8,7.1
		c-3.9,2.4-6.5,4.5-6.6,4.6l-1.9,1.6l1.2,2.2c0.2,0.4,4.7,8.9,12.6,15.4c5.2,4.4,10.5,7.5,13.5,9.1c-1,3.2-2.7,9.2-3.3,16.1
		c-0.1,1.5-0.2,2.9-0.2,4.3c0,8.3,2.1,15.2,2.2,15.5l0.7,2.4l2.5-0.3c0.2,0,3.5-0.4,8-1.4c1.1,4.4,2.3,7.6,2.4,7.7l0.9,2.3l2.4-0.4
		c0.4-0.1,9.9-1.8,18.6-7.2c5.8-3.7,10.6-7.8,13.1-10.2c2.8,1.9,8.1,5.3,14.5,8c9.4,4,19,4.2,19.4,4.2l2.5,0l0.5-2.4
		c0-0.2,0.7-3.4,1.1-8c4.6,0.3,7.9,0.1,8.1,0.1l2.5-0.1l0.4-2.5c0-0.2,0.4-2.9,0.4-6.9c0-3.6-0.3-8.3-1.5-13
		c-1.7-6.6-4.2-12.3-5.7-15.4c2.7-2,7.4-5.9,11.9-11c6.7-7.7,9.9-16.8,10-17.2l0.8-2.3l-2.1-1.3c-0.1-0.1-3-1.7-7.3-3.6
		c1.7-4.3,2.6-7.5,2.6-7.6l0.6-2.4l-2.2-1.1c-0.4-0.2-9.1-4.4-19.2-5.1c-6.9-0.5-13,0.2-16.4,0.7c-1.1-3.2-3.3-9-6.8-14.9
		c-5.2-8.8-12.9-14.6-13.2-14.8l-2-1.5 M86.6,110.6c1.9-2.4,3.8-4.3,5.1-5.6c2.4,2.1,6.6,6.2,9.7,11.4c4.7,7.9,7,15.9,7.1,16
		l0.8,2.7l2.7-0.5c0.1,0,8.3-1.6,17.5-1c6.1,0.4,11.6,2.3,14.6,3.5c-0.6,1.8-1.5,4.3-2.7,7.1L140,147l3,1.1c2.9,1.1,5.3,2.3,6.9,3.1
		c-1.3,3-3.9,8.2-7.9,12.8c-6.1,6.9-12.9,11.6-13,11.6l-2.3,1.6l1.4,2.4c0,0.1,4.1,7.4,6.4,16.3c1,4.1,1.3,8.3,1.3,11.5
		c0,1.4-0.1,2.5-0.1,3.5c-1.9,0-4.5-0.1-7.6-0.4l-3.2-0.3l-0.2,3.2c-0.2,3.1-0.5,5.7-0.8,7.6c-3.2-0.3-9-1.1-14.6-3.6
		c-8.4-3.6-15.3-8.8-15.3-8.8l-2.1-1.6l-1.9,1.9c-0.1,0.1-6,6.2-13.8,11.1c-5.1,3.2-10.7,5-13.9,5.8c-0.6-1.8-1.3-4.3-2-7.3
		l-0.7-3.1l-3.1,0.8c-3,0.8-5.6,1.3-7.4,1.6c-0.6-2.5-1.3-6.5-1.3-11.3c0-1.2,0.1-2.4,0.2-3.7c0.8-9.1,3.8-17,3.8-17.1l1-2.6
		l-2.5-1.2c-0.1,0-7.6-3.6-14.6-9.5c-4.7-3.9-8-8.7-9.8-11.4c1.5-1.1,3.7-2.6,6.4-4.1l2.8-1.6l-1.7-2.7c-1.7-2.6-2.9-4.9-3.8-6.6
		c2.8-1.6,8-4.4,13.9-5.7c8.9-2,17.3-1.7,17.4-1.7l2.8,0.1l0.3-2.8c0-0.1,1.1-8.4,4.5-16.9c2.3-5.6,5.8-10.3,7.8-12.8
		c1.5,1.1,3.6,2.7,5.9,4.8l2.4,2.1L86.6,110.6L86.6,110.6z M86.6,110.6"/>
	<line class="st4" x1="65.7" y1="161.4" x2="111.6" y2="169.1"/>
	<path class="st3" d="M111.2,171.8c1.5,0.2,2.8-0.7,3.1-2.2c0.2-1.5-0.7-2.8-2.2-3.1c-1.5-0.2-2.8,0.7-3.1,2.2
		C108.7,170.2,109.7,171.5,111.2,171.8"/>
	<path class="st3" d="M66.1,158.8c-1.5-0.2-2.8,0.7-3.1,2.2c-0.2,1.5,0.7,2.8,2.2,3.1c1.5,0.2,2.8-0.7,3.1-2.2
		C68.6,160.4,67.6,159,66.1,158.8"/>
	<line class="st4" x1="66.8" y1="173.4" x2="110.5" y2="157.1"/>
	<path class="st3" d="M111.4,159.6c1.4-0.5,2.1-2.1,1.6-3.4c-0.5-1.4-2.1-2.1-3.5-1.6c-1.4,0.5-2.1,2.1-1.6,3.4
		C108.5,159.4,110,160.2,111.4,159.6"/>
	<path class="st3" d="M65.9,170.9c-1.4,0.5-2.1,2.1-1.6,3.4c0.5,1.4,2.1,2.1,3.4,1.6c1.4-0.5,2.1-2.1,1.6-3.4
		C68.8,171.1,67.3,170.4,65.9,170.9"/>
	<line class="st4" x1="73.8" y1="183.2" x2="103.5" y2="147.3"/>
	<path class="st3" d="M105.6,149c0.9-1.1,0.8-2.8-0.4-3.8c-1.1-0.9-2.8-0.8-3.8,0.4c-0.9,1.1-0.8,2.8,0.4,3.8
		C102.9,150.3,104.6,150.2,105.6,149"/>
	<path class="st3" d="M71.7,181.5c-0.9,1.1-0.8,2.8,0.4,3.8c1.1,0.9,2.8,0.8,3.8-0.4c0.9-1.1,0.8-2.8-0.4-3.8
		C74.4,180.2,72.7,180.4,71.7,181.5"/>
	<line class="st4" x1="84.8" y1="188.3" x2="92.5" y2="142.3"/>
	<path class="st3" d="M95.2,142.7c0.2-1.5-0.7-2.8-2.2-3.1c-1.5-0.2-2.8,0.7-3.1,2.2c-0.2,1.5,0.7,2.8,2.2,3.1
		C93.5,145.2,94.9,144.2,95.2,142.7"/>
	<path class="st3" d="M82.1,187.8c-0.2,1.5,0.7,2.9,2.2,3.1c1.5,0.2,2.8-0.7,3.1-2.2c0.2-1.5-0.7-2.8-2.2-3.1
		C83.8,185.4,82.4,186.3,82.1,187.8"/>
	<line class="st4" x1="96.8" y1="187.1" x2="80.5" y2="143.4"/>
	<path class="st3" d="M83,142.5c-0.5-1.4-2.1-2.1-3.5-1.6c-1.4,0.5-2.1,2.1-1.6,3.4c0.5,1.4,2.1,2.1,3.4,1.6
		C82.8,145.4,83.5,143.9,83,142.5"/>
	<path class="st3" d="M94.3,188c0.5,1.4,2.1,2.1,3.5,1.6c1.4-0.5,2.1-2.1,1.6-3.4c-0.5-1.4-2.1-2.1-3.5-1.6
		C94.5,185.1,93.8,186.7,94.3,188"/>
	<line class="st4" x1="106.6" y1="180.1" x2="70.7" y2="150.4"/>
	<path class="st3" d="M72.4,148.4c-1.1-0.9-2.8-0.8-3.8,0.4c-0.9,1.1-0.8,2.8,0.4,3.8c1.1,0.9,2.8,0.8,3.8-0.4
		C73.7,151,73.5,149.3,72.4,148.4"/>
	<path class="st3" d="M104.9,182.2c1.1,0.9,2.8,0.8,3.8-0.4c0.9-1.1,0.8-2.8-0.4-3.8c-1.1-0.9-2.8-0.8-3.8,0.4
		C103.6,179.5,103.8,181.2,104.9,182.2"/>
	<path class="st3" d="M83.5,165.7c-0.2-2.8,1.9-5.3,4.7-5.5c2.8-0.2,5.3,1.9,5.5,4.7c0.2,2.8-1.9,5.3-4.7,5.5
		C86.2,170.6,83.7,168.5,83.5,165.7"/>
	<line class="st4" x1="188.6" y1="162.2" x2="234.4" y2="170.8"/>
	<path class="st3" d="M233.9,173.4c1.5,0.3,2.9-0.7,3.1-2.1c0.3-1.5-0.7-2.9-2.1-3.1c-1.5-0.3-2.9,0.7-3.1,2.1
		C231.5,171.7,232.4,173.1,233.9,173.4"/>
	<path class="st3" d="M189.1,159.6c-1.5-0.3-2.9,0.7-3.1,2.1c-0.3,1.5,0.7,2.9,2.1,3.1c1.5,0.3,2.9-0.7,3.1-2.1
		C191.5,161.2,190.5,159.8,189.1,159.6"/>
	<line class="st4" x1="189.5" y1="174.2" x2="233.5" y2="158.8"/>
	<path class="st3" d="M234.4,161.3c1.4-0.5,2.1-2,1.6-3.4c-0.5-1.4-2-2.1-3.4-1.6c-1.4,0.5-2.1,2-1.6,3.4
		C231.4,161,233,161.8,234.4,161.3"/>
	<path class="st3" d="M188.6,171.7c-1.4,0.5-2.1,2-1.6,3.4c0.5,1.4,2,2.1,3.4,1.6c1.4-0.5,2.1-2,1.6-3.4
		C191.6,171.9,190,171.2,188.6,171.7"/>
	<line class="st4" x1="196.3" y1="184.2" x2="226.7" y2="148.8"/>
	<path class="st3" d="M228.7,150.5c1-1.1,0.8-2.8-0.3-3.8c-1.1-1-2.8-0.8-3.8,0.3c-1,1.1-0.8,2.8,0.3,3.8
		C226,151.8,227.7,151.7,228.7,150.5"/>
	<path class="st3" d="M194.3,182.4c-1,1.1-0.8,2.8,0.3,3.8c1.1,1,2.8,0.8,3.8-0.3c1-1.1,0.8-2.8-0.3-3.8
		C197,181.2,195.3,181.3,194.3,182.4"/>
	<line class="st4" x1="207.2" y1="189.4" x2="215.8" y2="143.6"/>
	<path class="st3" d="M218.4,144.1c0.3-1.5-0.7-2.9-2.1-3.1c-1.5-0.3-2.9,0.7-3.1,2.1c-0.3,1.5,0.7,2.9,2.1,3.1
		C216.8,146.5,218.2,145.5,218.4,144.1"/>
	<path class="st3" d="M204.6,188.9c-0.3,1.5,0.7,2.9,2.1,3.1c1.5,0.3,2.9-0.7,3.1-2.1c0.3-1.5-0.7-2.9-2.1-3.1
		C206.2,186.5,204.8,187.4,204.6,188.9"/>
	<line class="st4" x1="219.2" y1="188.5" x2="203.8" y2="144.5"/>
	<path class="st3" d="M206.3,143.6c-0.5-1.4-2-2.1-3.4-1.6c-1.4,0.5-2.1,2-1.6,3.4c0.5,1.4,2,2.1,3.4,1.6
		C206.1,146.5,206.8,145,206.3,143.6"/>
	<path class="st3" d="M216.7,189.4c0.5,1.4,2,2.1,3.4,1.6c1.4-0.5,2.1-2,1.6-3.4c-0.5-1.4-2-2.1-3.4-1.6
		C216.9,186.4,216.2,188,216.7,189.4"/>
	<line class="st4" x1="229.2" y1="181.7" x2="193.8" y2="151.3"/>
	<path class="st3" d="M195.6,149.3c-1.1-1-2.8-0.8-3.8,0.3c-1,1.1-0.8,2.8,0.3,3.8c1.1,1,2.8,0.8,3.8-0.3
		C196.8,151.9,196.7,150.2,195.6,149.3"/>
	<path class="st3" d="M227.4,183.7c1.1,1,2.8,0.8,3.8-0.3c1-1.1,0.8-2.8-0.3-3.8c-1.1-1-2.8-0.8-3.8,0.3
		C226.2,181,226.3,182.7,227.4,183.7"/>
	<path class="st3" d="M206.4,166.8c-0.2-2.8,2-5.3,4.8-5.4c2.8-0.2,5.3,2,5.4,4.8c0.2,2.8-2,5.3-4.8,5.4
		C209,171.8,206.5,169.6,206.4,166.8"/>
</g>
</svg>
