<?xml version="1.0" encoding="utf-8"?>
<!-- Generator: Adobe Illustrator 19.0.0, SVG Export Plug-In . SVG Version: 6.00 Build 0)  -->
<svg version="1.1" id="Layer_1" xmlns="http://www.w3.org/2000/svg" xmlns:xlink="http://www.w3.org/1999/xlink" x="0px" y="0px"
	 viewBox="0 0 400 400" style="enable-background:new 0 0 400 400;" xml:space="preserve">
<style type="text/css">
	.st0{fill:none;stroke:#ED2024;stroke-width:5;stroke-miterlimit:10;}
</style>
<path id="XMLID_18_" class="st0" d="M217.1,269.1c0.8-3.8,2.2-7.5,4.1-10.9c1.1-2,2.5-3.9,4.2-5.4c3-2.5,6.9-3.4,10.7-4.2
	c2.3-0.5,4.6-1,6.9-1.5"/>
<path id="XMLID_17_" class="st0" d="M197.4,231.6c-11.6-1.2-23.5,0.6-34.6,4.1c-3.7,1.2-7.3,2.5-10.5,4.6c-3.2,2.1-6,4.8-8.5,7.6
	c-6.2,6.9-11.6,14.8-13.6,23.8c-8.1,1.1-16.2-1.3-24.4-1.5c-15-0.5-30.2,6.6-39.3,18.6c4,0.1,8.1-0.2,12.1-0.7
	c-2.7,4.4-5.4,8.8-8.1,13.2c3.6-0.5,7.3-1.1,10.8-1.9c-0.6,3.1-1.1,6.1-1.7,9.2c2.9-2.7,5.3-5.8,8.4-8.1c7.4-5.1,17.5-4.2,25.8-1
	c8.4,3.2,15.8,8.5,24.2,11.8c7.3-9.8,15.1-19.2,23.3-28.2c1.4-1.5,2.8-3,4.8-3.5c3.2-0.8,6.4,1.4,8.9,3.6
	c5.3,4.4,10.5,8.8,15.8,13.2c0.4,0.3,0.8,0.7,1.3,0.7c1.8,0.3,2.4-2.4,3.9-3.4"/>
<path id="XMLID_16_" class="st0" d="M263.9,258.6c-3.1,5.5-7.6,10.1-10.4,15.6s-3.8,12.9,0.1,17.8c3.6,4.4,10.1,5.5,13.8,9.9
	c-2,1.9-4,3.7-6,5.6c-0.6,0.5-1.2,1.1-1.5,1.8c-1,2.7,2.6,5,3,7.9c-4.9,1.5-9.7,3.6-14.1,6.3c1.7,1.2,3.2,2.7,4.5,4.4
	c-5.7,4.2-11.3,8.3-17,12.5c-9.3,6.8-18.8,13.8-25.7,23.1c-3.7,5-6.6,10.5-8.6,16.4c-1.2-4.5-3.9-8.5-6.6-12.3
	c-1.8-2.5-3.9-5.3-7-5.7c-4.1-0.6-5.6,3.4-8.8,4c0.4-1.2,1.3-2.4,2.2-3.4c-3.2-0.7-8.3-2.3-11-4.1c-0.3-4.2,1.8-7.8,4-11.3
	c3.6-5.5,7.3-11.1,12.8-14.6c6.7-4.3,15.9-5.3,20.6-11.7c1.1-11.3-10-19.7-11.7-30.9c-0.6-3.6-0.1-7.3-0.3-11
	c-0.7-9.4-6.3-18.1-6-27.5c0.1-3.6,1.1-7.1,2.4-10.5c0.7-1.9,1.5-3.9,2.7-5.5c2-2.7,4.9-4.5,7.7-6.2c3.6-2.2,7.2-4.4,10.7-6.5
	c5.2-3.2,10.6-6.4,16.6-7.5c6.9-1.2,14.2,0.6,20.2,4.2c2.1,1.2,4,2.7,5.7,4.5c7.6,8.2,6.4,21,9.2,31.8"/>
<path id="XMLID_15_" class="st0" d="M282.8,226.7c5.3-2.5,9.5-7.4,11.1-13.1c0.7-2.4,0.9-5,1.2-7.5c0.8-8.3,1.6-16.9-0.4-25
	c-2-8.1-7.5-15.9-15.5-18.4c-1.2-0.4-2.6-0.7-3.1-1.8c-0.3-0.5-0.3-1.1-0.3-1.7c-0.1-3.3,0.1-6.6,0.8-9.8c5.5-1,13.6-3.9,13.8-9.5
	c0.5-15.9,1-31.9,1.5-47.8c0.2-7.2,0.5-14.4,2.1-21.3c2.4-10,7.5-19,12.6-27.9c5.3-9.2,12.1-19.5,22.6-20.6c2.2,3.1,4.4,6.6,4,10.3
	c-0.3,2.5-1.7,4.7-3,6.8c-15.7,25.4-21.6,56.7-16.5,86.1c1,5.5,2.3,10.9,4.7,15.9c3.8,8,10.2,14.4,16.8,20.4
	c-6.6-0.3-14.4-0.1-18.1,5.3c-1.8,2.6-2.2,5.9-2.6,9.1c-0.9,7.9-1.9,16-0.8,23.9s4.3,15.8,10.4,21c0.8,0.7,1.7,1.3,2.1,2.3
	c0.3,0.8,0.3,1.7,0.2,2.6c-0.5,5.4-2.1,10.7-4.6,15.4c-0.5,0.9-1,1.8-1.8,2.4c-1.2,1-2.7,1.3-4.2,1.6c-11.1,2.1-22.2,4.1-33.3,6.2"
	/>
<path id="XMLID_14_" class="st0" d="M196.5,205.7c3.7,0.3,7.5,0.6,11.2,0.9"/>
<path id="XMLID_13_" class="st0" d="M188.5,195.4c6.2,1.4,13,0,18-3.8"/>
<path id="XMLID_12_" class="st0" d="M197.8,41.7c-1.8-0.9-4.2-0.2-5.6,1.2c-1.4,1.5-2,3.6-1.9,5.6c3.2,0,6.4,0.1,9.6,0.1
	c1.9,0,3.9,0,5.5-1c1.6-1,2.6-3.3,1.4-4.8c-3.5,0.2-7-0.1-10.5-0.7"/>
<path id="XMLID_11_" class="st0" d="M149.2,53.1c0.3-4.7,3.7-8.8,7.8-11.1s8.9-3.2,13.5-4.1c14.6-2.7,29.1-5.4,43.7-8
	c2.3-0.4,4.6-0.8,6.7-1.8c1.9-0.8,3.7-2.1,5.4-3.3c7.1-4.9,14.4-9.5,22-13.6c-2.2,5.5-2.8,11.6-1.8,17.4c5.7-0.1,11.3,0,17,0.4
	c1.6,5.8-3.3,11.1-6.7,16.1c-6.5,9.4-8.6,21.7-5.7,32.7c-9.7,2.1-19.7,2.8-29.6,2.1c-3.6-0.2-7.5-0.7-10.4-2.9
	c-2.9-2.2-4.6-6.5-2.6-9.6c1.8-1.5,3.6-3,5.4-4.5c-7.7,6.7-16.2,13.6-26.4,14.4c-3,0.2-6-0.1-9,0c-4.1,0.1-8.2,1.1-12.2,0.2
	c-4-0.9-7.8-4.6-6.8-8.6c0.3-1.3,1.1-2.5,1.5-3.8c1-3.2-0.9-6.8-3.6-8.8c-2.7-2-6.1-2.9-9.3-3.6"/>
<path id="XMLID_10_" class="st0" d="M173.1,57.7c1.6,2.4,3.3,4.8,4.2,7.6c0.9,2.8,0.9,6-0.7,8.4"/>
<path id="XMLID_9_" class="st0" d="M147.1,53.1c-6.3,2.2-16.3,4.9-21,9.7c4.6,0.7,9.2-0.6,13.9,0.1c5.1,0.7,10.1,2.8,13.4,6.7
	c4.4,5.3,4.9,13.1,9.2,18.4c2.8,3.4,7,5.7,9.1,9.6c1.5,2.8,1.6,6.1,1.7,9.2c6,0.3,12.2-1.5,17.1-4.9c1.8-1.3,3.8-2.8,6-2.5
	c4.9,0.7,4.8,9,9.4,10.9c3.2,1.2,6.6-1.4,8.3-4.3s3-6.4,5.8-8.4c12.6,3.2,21.8,17.5,34.8,16.4c0.9-11.1,0.5-22.3-0.9-33.3"/>
<path id="XMLID_8_" class="st0" d="M161,93.4c-5.1,0.6-10.2,1.1-15.3,1.7c-1.3,0.1-2.7,0.3-4-0.1c-3.9-1.2-4.8-6.2-7.3-9.4
	c-2.6-3.4-7-4.7-10.1-7.6c-2.9-2.7-4.5-6.4-6-10.1c-1.2-2.9-2.4-5.9-2.9-9c-0.4-2.9-0.2-5.9-0.4-8.8c-0.5-8.7-4.6-17.1-11.1-22.9
	s-15.4-8.8-24.1-8.1c0.9,1.3,1.8,3,1.1,4.5c-0.6,1.3-2.3,1.9-3.2,3.1c-1.2,1.7-0.4,4,0.8,5.6c1.3,1.6,3,2.8,4.1,4.5
	c3.3,5,0.3,11.6-3.2,16.5c-0.7,1-1.4,2-1.4,3.2c0,1.5,1.2,2.7,2.2,3.9c7.9,9,9,21.9,9.9,33.8c0.1,1.8,0.3,3.8,1.3,5.3
	c2,3.1,7.3,4.5,6.8,8.2c9.1-1.4,15.5,9.3,24.4,11.4c7,1.6,13.9-2.3,20-6.1c3.3-2,6.6-4.1,9.2-6.9c3.3-3.5,5.2-8,6.6-12.6"/>
<path id="XMLID_7_" class="st0" d="M136.6,119.5c2,4.2-0.1,9.5-3.6,12.6s-8.3,4.3-12.9,5.4c-8.5,2-17.2,3.4-26,3.7
	c-7.6,0.3-15.5-0.3-22.6,2.6s-12.8,10.9-10.1,18c5.4,0,10.8-0.1,16.3-0.1c-2,2.4-0.6,6.4,2.2,8c2.7,1.6,6.1,1.3,9.2,0.5
	s5.9-2.2,9-2.6c-0.6,3.3,1.5,6.8,4.7,7.8c3.3,1,6.8-0.5,9.6-2.6c2.8-2,5.2-4.6,8.3-6c5.1-2.3,11-1.3,16.5-2.4
	c7.3-1.4,13.8-6.6,21.3-6.1c0.5,0,1.1,0.1,1.5,0.4c1.1,0.7,0.9,2.3,0.6,3.6c-1.2,6.2-1.4,12.6-0.6,18.8c0.2,1.9,1.2,4.2,3.1,4.1
	c1.5-0.1,2.3-1.8,2.9-3.2c3.5-8.3,11.8-14.3,20.8-14.9c2.9-0.2,5.9,0.1,8.6-1.1c1.4-0.6,2.6-1.6,3.9-2.5c4.2-2.8,9.6-4,14.6-3.2
	c2.1,0.3,4.2,1,6.3,1.5c6.1,1.3,12.7,0.5,18.4-2.1c0.6-7.5,0.2-15.1-1.1-22.5c-3.1,2.2-6.2,4.3-9.4,6.5c-1,0.7-2.1,1.4-3.3,1.6
	c-2.1,0.2-3.9-1.2-5.8-2.1c-8.4-4.2-18.6,1.9-27.7-0.3c-1-3.3-2.5-7.1-5.8-7.9c-1.5-0.4-3-0.1-4.5,0.2c-5.5,1.1-11.1,2.2-16.6,3.3
	c-1.1-6-4.8-11.4-10.1-14.5c-5.2-3.1-11.8-3.8-17.6-1.8"/>
<path id="XMLID_6_" class="st0" d="M273.2,160.7c-0.5,1.3-2.2,1.6-3.6,1.7c-5.1,0.2-10.7,0.3-14.4-3.1c-1.2-1.1-2.1-2.4-3.1-3.7
	c-1.5-1.9-3.2-3.5-5.1-5"/>
<path id="XMLID_5_" class="st0" d="M239.5,156.4c4.4,4.3,8.7,8.6,13.1,12.9c2.7,2.7,5.5,5.4,7.4,8.8c3.3,5.7,3.6,12.6,6,18.8
	c1.5,3.8,3.6,7.2,6.1,10.4c1.2,1.5,2.4,3,3.2,4.7c0.8,1.6,1.2,3.5,1.6,5.3c1.2,5.7,2,11.5,2.6,17.3c0.4,4,0.6,8.1-0.9,11.8
	c-2.4,6.1-8.7,9.6-14.5,12.6"/>
<path id="XMLID_3_" class="st0" d="M172.3,175.7c-0.4,3.9-0.8,8,0.4,11.7c0.7,2.2,2,4.3,3.3,6.2c7.2,11.2,14.6,22.7,17.1,35.8"/>
<path id="XMLID_2_" class="st0" d="M256.2,117.4c4.6,2.2,7.6,6.8,9.9,11.3c0.2,0.4,0.4,0.8,0.4,1.3c0,0.5-0.1,0.9-0.3,1.4
	c-1.6,3.5-4.6,6.1-7.6,8.6c-3.5,2.9-6.9,5.7-10.4,8.6"/>
<path id="XMLID_1_" class="st0" d="M238.7,149c2.5,0,4.9,0,7.4,0c1.2,0,1.2,0.5,2.4,0.5"/>
<path id="XMLID_4_" class="st0" d="M256.6,173.9c1.6-3.2,4.4-5.7,7.1-8c1.4-1.2,2.9-2.4,4.5-3.3c2.2-1.2,4.8-1.7,7.3-2.1"/>
<path id="XMLID_19_" class="st0" d="M237.5,149.8c2.5,0.1,5,0.1,7.5,0.2c0.3,0,0.7,0,1,0.1c0.3,0.1,0.6,0.3,0.8,0.5
	c1.1,0.9,2.2,1.8,3.4,2.7"/>
<path id="XMLID_20_" class="st0" d="M253.3,113c0.9,3.1,4.8,4.3,6.6,7.1"/>
<path id="XMLID_21_" class="st0" d="M261,262.8c0.8-0.9,1.6-1.9,2.4-2.8c0.3-0.4,0.6-0.7,0.8-1.1c0.2-0.5,0.3-1,0.3-1.6
	c0.1-1.7,0.1-3.4-0.1-5.1"/>
<path id="XMLID_22_" class="st0" d="M275.3,252.3c2.1,0.4,4.3,0.2,6.4-0.5c1-0.3,1.9-0.8,2.9-1.1"/>
<path id="XMLID_23_" class="st0" d="M278.9,229.1c1.6-1.4,3.3-2.8,5.3-2.9"/>
<path id="XMLID_24_" class="st0" d="M250.2,78c2.9,0.5,5.1,3.7,4.5,6.7"/>
<path id="XMLID_25_" class="st0" d="M142.5,54.6c0.7,0.2,1.4-0.2,2.1-0.5c1.5-0.8,3.1-1.5,4.7-2.1"/>
<path id="XMLID_26_" class="st0" d="M194.2,45.1c2.5-0.5,5.2-0.4,7.6,0.4"/>
<path id="XMLID_27_" class="st0" d="M191.3,46c4.6,0,9.2,0,13.7,0"/>
<path id="XMLID_28_" class="st0" d="M196.5,41.4c3-0.2,6.1-0.4,8.9,0.6c0.9,0.3,1.7,0.8,2.4,1.3"/>
<path id="XMLID_29_" class="st0" d="M155.3,94.9c1.5-0.1,3.1-0.3,4.4-1c1.3-0.7,2.2-2,3.1-3.2"/>
<path id="XMLID_30_" class="st0" d="M118.7,65.5c0.8,0.2,1.7-0.2,2.4-0.6c0.7-0.4,1.4-1,2.2-1.3c0.8-0.3,1.6-0.4,2.4-0.7"/>
</svg>
