<?xml version="1.0" encoding="utf-8"?>
<!-- Generator: Adobe Illustrator 19.1.0, SVG Export Plug-In . SVG Version: 6.00 Build 0)  -->
<svg version="1.1" id="Layer_1" xmlns="http://www.w3.org/2000/svg" xmlns:xlink="http://www.w3.org/1999/xlink" x="0px" y="0px"
	 viewBox="0 0 500 500" style="enable-background:new 0 0 500 500;" xml:space="preserve">
<style type="text/css">
	.st0{fill-rule:evenodd;clip-rule:evenodd;fill:#FFFFFF;stroke:#000000;stroke-width:0.216;stroke-miterlimit:10;}
	.st1{fill-rule:evenodd;clip-rule:evenodd;}
	.st2{fill-rule:evenodd;clip-rule:evenodd;fill:#508544;}
	.st3{fill-rule:evenodd;clip-rule:evenodd;fill:#D92840;}
	.st4{fill-rule:evenodd;clip-rule:evenodd;fill:#FFFFFF;}
</style>
<g>
	<rect x="5.1" y="94.9" class="st0" width="489.9" height="328.3"/>
	<rect x="5.1" y="94.9" class="st1" width="489.9" height="99"/>
	<rect x="5.1" y="324.1" class="st2" width="489.9" height="99"/>
	<rect x="5.1" y="209.5" class="st3" width="489.9" height="99"/>
	<path class="st0" d="M184.3,144.2c10.1,7.5,24.3,24.9,28.3,38.3c0.6,1.9,0.7,4,0.5,6.4l96,165.8l-4.9,3.4L209,190.9
		c-2.8-0.7-4.4-1.8-6.5-4.3C193,175.4,187.9,158,184.3,144.2z"/>
	<path class="st0" d="M316.4,144.2c-10.1,7.5-24.3,24.9-28.3,38.3c-0.6,1.9-0.8,4-0.6,6.4l-96,165.8l4.9,3.4l95.4-167.2
		c2.8-0.7,4.3-1.8,6.5-4.3C307.7,175.4,312.8,158,316.4,144.2z"/>
	<path class="st3" d="M236.7,168.2c9.9-8.7,15.9-11.9,27.1,0.9c16.2,19.9,28.4,42.3,32.9,67.7c3.3,18.7,2.1,36.4-3.6,55.6
		c-6,20.3-15.5,37.9-28.1,53.7c-13.5,15.4-20.5,10.1-31.4-1.7c-8.7-11.7-16.3-24.1-22-37.8c-2-4.9-3.8-9.9-5.4-15.1
		c-7.4-25-6.2-46.7,1.5-71.6c1.1-3.6,2.4-7.1,3.8-10.6C217.7,194.4,226.4,180.7,236.7,168.2z"/>
	<path class="st1" d="M211.7,306.6c-2-4.9-3.8-9.8-5.3-15c-7.4-25-6.2-46.7,1.5-71.6c1.1-3.6,2.4-7,3.8-10.5
		c4.1,10.8,7,21.4,8.6,33.3c1.5,10.6,1.6,20.4,0.1,31.1C218.9,284.9,216,295.9,211.7,306.6z"/>
	<path class="st1" d="M288.5,306.3c11.6-30.9,13.7-57.1,4.1-86.4c-1.2-3.6-2.4-7-3.8-10.5c-4.1,10.8-7,21.4-8.6,33.3
		c-1.5,10.6-1.6,20.4-0.1,31.1C281.5,284.9,284.1,295.7,288.5,306.3z"/>
	<path class="st4" d="M248.3,160.7v84.9C237.3,220.7,236.8,185.6,248.3,160.7z"/>
	<path class="st4" d="M252.3,160.7v84.9C263.2,220.7,263.8,185.6,252.3,160.7z"/>
	<path class="st4" d="M248.3,355.3v-84.9C237.3,295.4,236.8,330.4,248.3,355.3z"/>
	<path class="st4" d="M252.3,355.3v-84.9C263.2,295.4,263.8,330.4,252.3,355.3z"/>
	<path class="st4" d="M250.3,245.7c4.5,0,8.1,5.5,8.1,12.3c0,6.7-3.6,12.2-8.1,12.2c-4.4,0-8-5.5-8-12.2
		C242.2,251.2,245.9,245.7,250.3,245.7z"/>
</g>
</svg>
