<?xml version="1.0" encoding="utf-8"?>
<!-- Generator: Adobe Illustrator 19.1.0, SVG Export Plug-In . SVG Version: 6.00 Build 0)  -->
<svg version="1.1" id="Layer_1" xmlns="http://www.w3.org/2000/svg" xmlns:xlink="http://www.w3.org/1999/xlink" x="0px" y="0px"
	 viewBox="0 0 500 500" style="enable-background:new 0 0 500 500;" xml:space="preserve">
<style type="text/css">
	.st0{fill-rule:evenodd;clip-rule:evenodd;}
</style>
<g>
	<path d="M79.4,168.6C62.6,198.7,53,233.4,53,270.2C53,385.5,146.5,479,261.8,479s208.7-93.4,208.7-208.7c0-27.2-5.2-53.1-14.6-76.9
		l-9.9,8.6c7.9,21.3,12.2,44.3,12.2,68.3c0,108.5-87.9,196.4-196.4,196.4c-108.5,0-196.4-87.9-196.4-196.4
		c0-33.6,8.4-65.2,23.3-92.9L79.4,168.6L79.4,168.6z M79.4,168.6"/>
	<path d="M95.6,184.5c-13.3,25.7-20.8,54.8-20.8,85.7c0,103.2,83.7,186.9,186.9,186.9c103.2,0,186.9-83.7,186.9-186.9
		c0-21.9-3.8-42.9-10.7-62.4l-8.3,7.5c5.6,17.3,8.7,35.7,8.7,54.9c0,97.5-79.1,176.6-176.6,176.6c-97.5,0-176.6-79-176.6-176.6
		c0-29,7-56.3,19.3-80.4L95.6,184.5L95.6,184.5z M95.6,184.5"/>
	<polyline class="st0" points="113.3,91.6 115.4,88.5 117.5,98.9 121.8,105.3 130.8,114.9 139.1,121.1 148.2,129 168.2,145.4 
		178,153.9 186.5,161.2 194.4,169.7 199.2,177 204.3,186.9 207.1,198 208.7,212.4 209.3,229.6 208.7,240.2 211.4,242.1 221,242.1 
		229.9,240 227.2,228 223.5,215.9 218.9,205.3 213.5,194.9 207.7,184.7 203.4,177.6 200.5,172.7 197,166.1 207.1,174.9 217.7,188 
		227.2,203.8 236.2,220.2 244.1,236.5 247.6,247.7 259.2,237.1 267.1,227.5 274.2,219.8 287.7,205.1 299.4,189.1 308.7,174.9 
		317.2,161.2 325.6,155 339.7,149.6 353.2,145.4 365.1,143.3 348.2,151.7 337.2,158.7 328.7,165.4 323.3,174.5 311.2,191.8 
		298.1,211.7 286.1,228.2 276.1,241.3 271.9,252.5 267.1,258.3 266.5,268.7 253.4,275.6 244.1,281.2 235.5,281.2 239.3,268.7 
		252.7,248.2 243.4,255 233,240.2 226.2,244 238.7,258.7 235.1,268.7 220.4,245 213.5,244.4 232.4,273.5 232.4,282.8 242,285.5 
		237.6,300.7 203.7,246 198.5,246.7 235.1,304 229.7,312.4 188.2,250.4 186.1,253.7 226.6,316.5 216.6,319.8 171,249 173.8,247.7 
		183.8,246.5 186.5,231.3 162.4,227.1 179,218.6 152.8,215.9 175.9,209 136.6,203.2 168.2,195.9 122.2,188 160.9,181.6 102.3,174.3 
		134.5,171.2 87.1,161.2 117.5,159.8 95.6,156.6 73.4,150.2 105.4,149.6 78.9,140.8 54.9,127.5 84.4,133.4 51.4,116.9 36,107.4 
		68.6,116.9 36.8,97 21.4,80.3 11.8,63.3 34.5,84.5 46.7,90.8 55.9,93.2 38.3,78.5 23.3,57.5 15,34.8 29.1,54.4 43.2,70.2 
		33.7,46.5 21.6,19.4 50.7,54.4 47,19.4 64.4,49 76.5,36.3 79.5,54.4 86.1,73.3 100,92.6 109.1,101.1 105.4,104.7 89.6,93 
		80.4,81.8 75.5,72.7 72.3,63.3 69.6,56.4 69.9,67 71.1,75 73,80.8 74.4,84.1 72.3,83.1 66.9,79.1 63.4,76.4 67.6,85.1 70.7,92 
		75.5,100.5 80.2,105.7 88.8,113.2 79.6,113.2 88.1,121.1 97.9,128.6 114.3,137.5 104.8,137.5 141.4,151.7 131.8,153.9 151.8,166.6 
		165.5,175.6 173.6,183.3 179.6,190.1 184.8,198 192.3,209 192.4,199.4 189.9,186.1 183.8,174.9 171.7,163.9 146.6,141.3 
		129.1,125.2 120.2,114.9 115,109 112.3,103.6 112.3,102.2 111.6,96.8 	"/>
	<polyline class="st0" points="211.2,319.8 198.5,318.8 158.9,253.6 163,251.4 168.4,250.2 	"/>
	<polyline class="st0" points="192.9,315.5 154.5,254.6 144.5,257 181.7,314.4 	"/>
	<polyline class="st0" points="170.9,307.4 152.4,299.3 135.5,265.6 130.8,264.5 118.5,277.8 103.7,277.8 122.2,257.7 141.4,258.3 	
		"/>
	<polyline class="st0" points="143.9,292.8 130.8,270.8 127,275.1 130.2,282.8 119.1,283.9 115,295.9 112.3,295.5 111.6,282.2 
		99.6,282.8 102.3,292 107.5,299.9 115.4,305.9 120.8,308.2 123.9,289.1 	"/>
	<polyline class="st0" points="383.6,226.5 349.7,224.4 334.9,219.2 381.9,193.9 366.7,193.9 389.8,180.6 379.8,179.3 409.7,162.3 
		382.5,167.7 410.8,153.3 433.4,136.5 387.3,151.7 416,137.5 439.3,123.8 453.6,110.5 392.5,143.3 386.7,142.7 373.6,154.4 
		349.7,165 332.8,177 357.3,170.9 370.9,168.7 320.2,195.9 354.6,187.1 355.1,188 312.4,213 309.1,216.3 342.8,204.9 352.1,201.1 
		339.3,214.4 295,234 333.5,223.8 291.9,252.5 280.2,260.8 270.7,264.5 274.4,252.5 286.1,236.5 303.5,212.8 312,199.1 321.8,183.7 
		327.6,174.9 334.9,166.6 346.6,158.1 363.4,149.6 373.6,144.8 384.6,136.9 392.5,128.6 392.1,133.4 388.3,138.6 407.7,129 
		427.2,120 445.1,108 461.9,97.8 477.7,86.2 474,97.8 467.8,107 450.5,122.8 447.2,126.9 469.8,114.2 484,104.3 479.2,114.9 
		467.3,125.2 433.4,146 458.4,138.6 472.9,130 485,123.2 472.3,137.5 464.6,145.4 453.6,151.2 435.5,158.5 416,166 407.7,171.8 
		430.3,165.4 453,158.5 464.2,154.4 457.8,161.2 438.2,170.8 420.4,177 402.3,183.3 422.9,180.4 444.7,176 455.1,172.9 441.4,183.3 
		425.6,190.5 395.4,197 388.3,199.7 423.5,196.8 433.4,195.7 420.4,203.8 399.2,210.1 371.9,212.8 360.9,214.4 382.9,218.6 
		397.7,218.6 	"/>
	<polyline class="st0" points="192.3,378 199.8,362.5 205.4,344.6 207.1,325 221.8,320.7 218.1,344.6 210.4,360.8 	"/>
	<polyline class="st0" points="203.9,382.4 233.5,382.4 234.1,377.7 206,377.7 	"/>
	<polyline class="st0" points="209.8,370.6 207.7,374.7 236,374.7 240.7,368.3 	"/>
	<polyline class="st0" points="213.9,362 211.8,366.6 244.5,366.8 245.5,361 	"/>
	<polyline class="st0" points="215.6,358.9 247.8,358.1 254.3,351.9 219.3,351.9 	"/>
	<polyline class="st0" points="220.4,348.7 257,348.3 261.7,339.8 222.9,344.6 	"/>
	<polyline class="st0" points="227.2,340.4 269.6,336.7 274.4,328.8 243.4,329.2 	"/>
	<polyline class="st0" points="266.3,343.1 279.8,342.9 294,353.1 301.1,352.8 312.5,349.9 321.2,345.6 329.7,339.8 336,332.5 
		340.3,322.1 339.3,314.4 334.5,306.6 332,298.3 330.8,288.7 329.1,282.2 319.8,280.8 319.8,291.3 320.9,301.7 325.1,310.9 
		331.8,318.8 331.8,325.2 327,330.9 319.8,336.7 308.4,343.1 301,346.2 295,346.2 289.8,340.4 286.1,337.7 266.5,339.4 266.5,341 	
		"/>
	<polyline class="st0" points="300.4,358.9 315.6,376 326.6,374.7 327,362 319.3,350.4 315.6,352.1 321.8,361 319.3,363.7 
		311.4,355.2 	"/>
	<polyline class="st0" points="322.9,349.4 336,366.2 348.6,364.1 348.2,356.8 331.8,342.5 329.1,345.6 340.3,356.8 337,358.9 
		325.6,347.7 	"/>
	<polyline class="st0" points="348.6,314.4 401.2,330.4 385.6,344.6 344.5,326.7 347.2,322.3 370.9,331.9 373,329.2 347.6,318.8 	
		"/>
	<polyline class="st0" points="358,346.4 341.8,334.6 343.8,330.9 380.4,347.7 375.7,355.2 359.8,355.6 335.5,340.8 337.6,337.7 	
		"/>
	<polyline class="st0" points="200.8,392 216.6,405.1 220.4,410.9 224.5,406.1 223.9,401.3 210.2,389.9 201.2,388.6 	"/>
	<polyline class="st0" points="191.7,392.2 199.8,397.8 200.8,416.3 193.4,416.3 191.7,396.8 185.4,408.8 183.8,423.2 178.6,421.5 
		176.5,419.4 176.5,406.1 187.5,392.4 191.7,392 	"/>
	<polyline class="st0" points="185.4,388.6 172.1,403 172.1,415.7 166.1,415.7 166.7,401.3 184.4,383.5 200.2,385.1 201.2,388.6 	
		"/>
	<polyline class="st0" points="164,397.2 179.6,383.5 171.7,383.5 164,391.4 	"/>
	<polyline class="st0" points="338.5,226.1 352.4,232.9 376.1,233.4 369.8,237.5 342.4,239.2 324.5,237.1 338.2,226.1 	"/>
	<polyline class="st0" points="312,242.3 321.2,238.8 340.3,243.3 363.4,244.4 355.1,249.8 332.8,249.8 	"/>
	<polyline class="st0" points="307.3,245.6 322.2,253.5 349.3,255.6 345.5,262.5 316.2,261.4 295.6,255.6 	"/>
	<polyline class="st0" points="291.9,258.3 312,266.2 339.3,266.2 324.9,276.6 302.5,275.1 282.3,266.2 	"/>
	<path class="st0" d="M197.5,81.3l-0.2-6v-5.8l0.2-5.8l4.1,4.2l4,4.2l3.7,4.4l-4,1.4l-3.9,1.7 M190.4,100.2l2.7-1.5l2.7-1.4l2.7-1.5
		l-0.2-2.7l-0.2-2.9l-0.2-2.9l5-2.1l5.2-2.1l5.2-1.7l1.9,2.1l1.7,2.1l1.9,2.1l2.9-0.8l2.9-0.8l3.1-0.8l-3.1-4l-3.1-4.2l-3.3-4
		l-3.3-3.7l-3.3-4l-3.7-3.7l-3.8-3.7l-3.7-3.5l-3.7,1.5l-3.7,1.5l-3.8,1.7l-0.2,5.2l-0.2,5.2v5.2l0.2,5.2L189,85l0.4,5l0.4,5.2
		L190.4,100.2L190.4,100.2z M231,84.6L231,84.6L222.4,48l5.2-1.2L233,46l5.4-0.8l2.9,5.2l2.7,5l2.7,5.2l2.7,5.4l2.3,5.2l1.7-5.6
		l1.7-5.6l1.9-5.6l2.1-5.6l2.1-5.4h5.4l5.2,0.2l5.4,0.4l-0.4,5.4l-0.2,5.2l-0.4,5.4l-0.4,5.4l-0.4,5.2l-0.2,5.4l-0.4,5.4l-2.9-0.2
		l-2.7-0.2h-2.9l0.4-27l-2.1,5.4l-2.1,5.4l-2.1,5.4l-1.9,5.4l-1.7,5.6l-2.9,0.2l-2.9,0.2l-2.9,0.2l-2.3-5.2l-2.7-5l-2.7-5.2l-2.9-5
		l-2.9-5l4.4,26.6l-2.5,0.4l-2.7,0.6L231,84.6L231,84.6z M281.1,81.9l3.1,0.4l3.1,0.4l2.9,0.6l6.9-37l-3.9-0.8l-3.8-0.4l-4-0.6
		L281.1,81.9L281.1,81.9z M311.8,65.3l2.3-8.7l4.6,1.5l4.6,1.5l4.4,1.7l2.3,1.3l1.4,2.3v2.9l-1.7,1.7l-2.7,0.6l-3.3-0.4l-3.9-1.5
		l-4-1.5L311.8,65.3L311.8,65.3z M307.3,80.9l2.9-10.2l3.8,1.2l3.7,1.3l3.7,1.5l3.5,1.9l1.5,2.7l-0.2,2.9l-1.9,2.1l-3.1,1l-3.5-0.6
		l-3.5-1.2l-3.3-1.2L307.3,80.9L307.3,80.9z M296.7,84.6L296.7,84.6L305,48l5.2,1.2l5.4,1.5l5.2,1.5l5.4,1.9l5,2.1l3.5,1.4l2.5,1.7
		l1.9,1.7l2.1,3.1l0.6,3.3l-0.8,3.5l-2.5,2.5l-3.5,1.3h-4.6l4,4L336,83l-1.1,4.4l-2.1,2.9l-2.9,1.7l-3.5,0.8l-2.3,0.2l-2.7-0.6
		l-3.3-1.2l-7.1-2.5l-7.1-2.3L296.7,84.6L296.7,84.6z M335.1,99.2l2.7,1.7l2.7,1.5l2.5,1.7l20.2-31.6l-3.1-2.1l-3.3-1.9l-3.3-1.9
		L335.1,99.2L335.1,99.2z M366.1,103.3l5.2-2.7l5.2-2.5l5.4-2.5l-2.1,5.4l-2.1,5.4l-2.1,5.4l-3.1-2.9l-3.3-2.7L366.1,103.3
		L366.1,103.3z M345.7,105.6L345.7,105.6l4.2-2.7l4.4-2.7l4.6-2.5l4.4-2.5l4.6-2.5l4.8-2.3l4.8-2.3l4.8-2.3l3.1,2.7l2.9,2.7l2.9,2.7
		l-1.5,5.2l-1.7,4.8l-1.7,5l-1.9,4.8l-2.1,4.8l-2.1,4.6l-2.1,4.6l-2.3,4.6l-2.1-2.3l-2.1-2.3l-2.1-2.3l1-2.5l1.2-2.5l1.3-2.7
		l-4.2-3.7l-4.2-3.5l-4.2-3.7l-2.5,1.4l-2.5,1.5l-2.5,1.5l-2.5-1.9l-2.5-1.7L345.7,105.6L345.7,105.6z M159.5,123.9l2.1-2.1l2.1-1.9
		l1.9-1.9L148.9,99l5.4,1l5.4,1l5.2,1.2l5,1.5l5.2,1.5l4.8,1.7l2.5-1.7l2.7-1.7l2.5-1.7l-19.5-32l-2.9,1.9l-3.1,1.9l-2.9,2.1
		l14.3,21l-5.2-1.4l-5.2-1.5l-5.6-1.3l-5.4-1l-5.6-0.8l-5.6-0.8l-2.7,2.5l-2.7,2.7l-2.7,2.5l3.7,3.7l4,3.7l3.8,4l3.7,3.7l4,3.7
		l3.8,3.7L159.5,123.9L159.5,123.9z M159.5,123.9"/>
</g>
</svg>
