<?xml version="1.0" encoding="utf-8"?>
<!-- Generator: Adobe Illustrator 19.1.0, SVG Export Plug-In . SVG Version: 6.00 Build 0)  -->
<svg version="1.1" id="Layer_1" xmlns="http://www.w3.org/2000/svg" xmlns:xlink="http://www.w3.org/1999/xlink" x="0px" y="0px"
	 viewBox="0 0 500 500" style="enable-background:new 0 0 500 500;" xml:space="preserve">
<style type="text/css">
	.st0{fill-rule:evenodd;clip-rule:evenodd;}
</style>
<g>
	<path d="M234.8,133.5l-7.1,65.4l10.1-3.5l61.2,41.6c-2.1,1.1-4.3,2.1-6.4,3.1l-73.2-38.3l-2.1-66
		C223.1,135,228.9,134.2,234.8,133.5 M199.5,139c-5.9,1.2-11.6,2.5-16.8,3.9l-0.8,75.1l75.9,38.8c2.8-1.3,5.7-2.7,8.7-4.1
		l-65.9-43.3l-10.5,4.7L199.5,139 M215.9,136.1c-5.1,0.8-10.2,1.7-15,2.6l-0.3,70.6l75.3,38.9c2.5-1.2,5-2.4,7.5-3.6l-64-42.7
		l-10.5,3.7L215.9,136.1 M266.2,130.1c-4.6,0.5-9.3,0.9-13.9,1.4l3.3,58.3l-10.1,3.3l5.2-61.4c-4.8,0.5-9.7,1.1-14.4,1.7l1.5,62.2
		l71.1,36.6c2-1,4.1-2.1,6.1-3.1l-59.1-39.2l67,35.1c2-1.1,4-2.1,6-3.2L273,184l-10.2,3.5L266.2,130.1 M282.2,128.5
		c-4.8,0.5-9.6,0.9-14.4,1.4L273,184l63,33.7c1.8-1,3.6-2,5.3-3l-53.2-35.9l-8.8,3.1L282.2,128.5 M96.8,182.4
		c-9,5.5-16.3,10.5-21.5,14.1L73.1,286c0,0-17.2,12.4-23.7,17.8c-6.5,5.5-18.3,16.6-18.3,16.6l0,22.1c0,0,14.3-19.8,24.4-29.2
		c9.8-9.2,22.4-19.5,22.4-19.5l-2.3-3.3l79.9,36.1c1.3-1.2,4.4-4.2,8.9-8.3l-69.3-45.4l-10.8,8.7L96.8,182.4 M118.6,169.7
		c-7.1,3.9-13.8,7.7-19.8,11.4l-3.8,91.8l81,35c2.9-2.5,6-5.1,9.3-7.7l-67.9-44.1l-10.8,7.9L118.6,169.7 M298.4,126.9
		c-4.8,0.5-9.7,0.9-14.7,1.4l4.4,50.4l60,31.9c1.9-1.1,3.8-2.3,5.7-3.5l-50.2-33.8l-9.4,3.3L298.4,126.9 M181,143.4
		c-0.4,0.1-0.8,0.2-1.2,0.3c-5.9,1.7-11.7,3.7-17.5,5.8l-1.9,79.6l77.9,36.9c3-1.4,6.1-3,9.4-4.5L181.9,218l-11.2,5.7L181,143.4
		 M161,150.1c-6.9,2.6-13.6,5.5-20.1,8.5l-1.9,83.3l-11,7l11.4-89.7c-6.7,3.1-13.2,6.4-19.3,9.7l-2.6,87.2l78.8,35.6
		c2.9-2.1,5.8-4.3,8.8-6.4L139,242.1l77.6,35.8c3.1-1.9,6.2-3.7,9.2-5.3c0.2-0.1,0.4-0.2,0.6-0.3l-65.9-43l-11.1,6.4L161,150.1
		 M393.3,106.6c-4.1,1.7-8.3,3.3-12.7,4.9l0.1,28.9l37.2,8c2.1-3.1,4-6.3,5.9-9.4l-28.3-8l-7.3,4.7L393.3,106.6 M379.1,112
		c-4.3,1.5-8.9,2.9-13.6,4.3l-0.3,32l43,13.3c1.8-2.2,3.4-4.5,5.1-6.7l-32.8-14.5l-7.5,3.9L379.1,112 M420.2,93.7
		c-3.5,1.9-7.2,3.9-11.2,5.9l-0.2,21.5l-7.2,5.7l6.2-26.5c-4.1,2-8.5,4-13.1,5.9l1,24.9l31.8,1.9c1.8-3.2,3.4-6.3,5-9.4l-23.1-2.7
		l25.9-3.2c1.4-3,2.7-5.9,3.9-8.7l-17.6,1.1l-5.4,4.9L420.2,93.7 M364.3,116.7c-2.1,0.6-4.2,1.2-6.3,1.7c-2.5,0.6-5.2,1.2-8,1.8
		l-0.1,35.2l-0.1,0l48.5,17.8c1.7-1.8,3.3-3.6,4.9-5.4l-37.9-19.4l-7.5,3.5L364.3,116.7 M451.1,72.8c0,0-2.1,1.9-6.1,4.9l-1.7,7.8
		l-3.3,4.2l1.8-9.6c-2.1,1.5-4.6,3.2-7.4,5.1l-1.8,13.2l-3.6,4.1l3.5-16.1c-3.3,2.1-7,4.3-11,6.6l-0.1,17l20.2-7.3
		c1.1-2.7,2-5.3,2.9-7.8L434,96.9l12.1-7C449.6,79.4,451.1,72.8,451.1,72.8 M315.1,125.2c-4.9,0.5-9.9,1.1-15,1.6l3.6,46.7l57.8,29
		c1.9-1.2,3.9-2.5,5.8-3.8l-47.3-31.3l-9.3,3.6L315.1,125.2 M334.4,161.8L334.4,161.8L334.4,161.8L334.4,161.8 M333,123
		c-5.2,0.7-10.8,1.4-16.5,2.1l3.5,42.4l53.8,26.8c1.3-0.9,2.6-1.9,3.9-2.8c0.7-0.5,1.4-1,2.1-1.6l-45.3-28.1l-8.1,3.1L333,123
		 M349.8,155.4L349.8,155.4L349.8,155.4L349.8,155.4 M348.5,120.5c-4.3,0.8-8.9,1.6-13.9,2.3l0.1,38.9l-0.2,0.1l52.4,22.4
		c1.8-1.5,3.5-3.1,5.2-4.7l-42.2-24l-7.8,3.4L348.5,120.5"/>
	<path class="st0" d="M482,355.8h0.9l2.5,4.7h2.6l-2.8-4.8c1.9-0.1,3.1-0.8,3.1-2.9c0-2.6-1.8-3.4-4.7-3.4h-4.2v11.2h2.6 M482,353.7
		v-2.5h1.6c0.8,0,2,0.1,2,1.1c0,1.1-0.5,1.4-1.5,1.4H482L482,353.7z M483.7,365.2c5.5,0,10.7-3.8,10.7-10.3
		c0-6.6-5.2-10.3-10.7-10.3c-5.6,0-10.7,3.8-10.7,10.3C473,361.4,478.1,365.2,483.7,365.2L483.7,365.2z M491,354.8
		c0,4.6-3.3,7.8-7.3,7.8c-4.1,0-7.3-3.1-7.3-7.8c0-4.6,3.2-7.8,7.3-7.8C487.7,347.1,491,350.2,491,354.8"/>
	<path d="M363.1,384h-18.9v-4.5c0-2.5-1.3-4.2-4.1-4.2s-4.1,1.7-4.1,4.2v23.9c0,2.5,1.3,4.2,4.1,4.2s4.1-1.7,4.1-4.2V398h18.9
		c0,11-3.6,20-23,20c-19.7,0-23.6-7.5-23.6-26.5c0-20.5,5-26.5,23.6-26.5C359,364.9,363.1,372.5,363.1,384 M197.7,416.4
		c12.6,0,16.2-6.6,16.2-12.9c0-8.5-5.4-11.5-13.2-12.6c7.3-1.3,12.2-4.2,12.2-12.4c0-7.9-4.3-12.1-18.7-12.1l-26.5,0.1h-3.9v3.1
		c0.3,0,0.6,0.1,0.9,0.1c0.5,0.1,0.9,0.2,1.4,0.5c0.8,0.5,1.5,1.3,1.6,2.7v43.4L197.7,416.4L197.7,416.4z M190.5,396
		c2.3,0,4,1.3,4,4.3c0,3.1-1.5,5.7-4.3,5.7h-3.8V396H190.5L190.5,396z M186.3,376.8h3.8c2.4,0,3.9,2.1,3.9,4.6
		c0,2.5-1.5,4.6-3.9,4.6h-3.8V376.8 M221.6,416.4h35.6v-11.9h-16.5v-38l-19.2,0.2h-4v3.1c0.3,0,0.6,0.1,0.9,0.1
		c0.5,0.1,0.9,0.3,1.4,0.5c0.9,0.5,1.6,1.5,1.6,3.1l0,3.1L221.6,416.4 M63.9,416.4h35.6v-11.9H83.1v-38l-19.2,0.2h-4v3.1
		c0.3,0,0.6,0.1,0.9,0.1c0.5,0.1,0.9,0.3,1.4,0.5c0.9,0.5,1.6,1.5,1.6,3.1l0,3.1L63.9,416.4 M105.2,416.4h35.6v-11.9h-16.5v-38
		l-19.2,0.2h-4l0,3.1c0.3,0,0.6,0.1,0.9,0.1c0.5,0.1,0.9,0.3,1.4,0.5c0.9,0.5,1.6,1.5,1.6,3.1l0,3.1V416.4 M472.7,380
		c0-8.3-4.1-15.5-22.6-15.5c-14.7,0-22.5,5.3-22.5,17.5c0,18.5,27,11.2,27,22.5c0,2.5-1.9,4.4-4.5,4.4c-1.7,0-2.6-0.7-3.2-1.8
		c-0.6-1.2-0.7-2.8-0.8-4.8H427c-0.9,14.6,12,16.2,24.5,16.2c12.3,0,22.4-4.2,22.4-17.6c0-18.4-27.1-12.8-27.1-22.2
		c0-1.9,1.4-3.8,3.5-3.8c2,0,3.2,0.5,3.7,1.4c0.6,0.9,0.7,2.2,0.7,3.8H472.7 M291.8,398.9h-7.6l3.9-22.1L291.8,398.9L291.8,398.9z
		 M261.5,416.4h19.7l1.4-7.8h10.5l1.4,7.8h19.6l-13.1-49.9h-31v3.1c0.3,0,0.6,0.1,0.9,0.1c0.5,0.1,0.7,0.2,1.1,0.4
		c0.9,0.5,1.2,1.5,0.9,3L261.5,416.4 M35.6,398.9H28l3.9-22.1L35.6,398.9L35.6,398.9z M5.3,416.4h19.7l1.4-7.8H37l1.4,7.8H58
		l-13.1-49.9H14v3.1c0.3,0,0.6,0.1,0.9,0.1c0.5,0.1,0.7,0.2,1.1,0.4c0.9,0.5,1.2,1.5,0.9,3L5.3,416.4 M366.3,366.2v3.2
		c0.3,0,0.6,0.1,0.9,0.1c0.5,0.1,0.9,0.2,1.4,0.5c0.9,0.5,1.6,1.5,1.6,3.1l0.1,3.1v39.9h19.2v-14.4l4.1-4.1l10.8,18.5h20.3
		l-18.5-30.9l19.4-19h-22.4l-13.7,13.9v-13.9L366.3,366.2"/>
</g>
</svg>
