<?xml version="1.0" encoding="utf-8"?>
<!-- Generator: Adobe Illustrator 19.1.0, SVG Export Plug-In . SVG Version: 6.00 Build 0)  -->
<svg version="1.1" id="Layer_1" xmlns="http://www.w3.org/2000/svg" xmlns:xlink="http://www.w3.org/1999/xlink" x="0px" y="0px"
	 viewBox="0 0 500 500" style="enable-background:new 0 0 500 500;" xml:space="preserve">
<style type="text/css">
	.st0{fill:#204297;}
	.st1{fill:#92192E;}
	.st2{fill-rule:evenodd;clip-rule:evenodd;fill:#202021;}
</style>
<g>
	<path class="st0" d="M270.2,166h11.7l0,10c0,2.4-2.6,4.4-5.9,4.4c-3.2,0-5.9-2-5.9-4.4"/>
	<path class="st0" d="M257.4,181.3h11.7l0,10c0,2.4-2.6,4.4-5.9,4.4c-3.2,0-5.9-2-5.9-4.4"/>
	<path class="st0" d="M283,181.3h11.7l0,10c0,2.4-2.6,4.4-5.9,4.4c-3.2,0-5.9-2-5.9-4.4"/>
	<path class="st0" d="M257.4,150.6h11.7l0,10c0,2.4-2.6,4.4-5.9,4.4c-3.2,0-5.9-2-5.9-4.4"/>
	<path class="st0" d="M283,150.6h11.7l0,10c0,2.4-2.6,4.4-5.9,4.4c-3.2,0-5.9-2-5.9-4.4"/>
	<path class="st1" d="M252.7,133.8c-37.4,38.4-47.4,72.1-55.3,101.3c17.5,5.6,57.7,14.3,114.8-20.1c24.9-15,43.6-32.3,57.2-51.6
		c7.3-10.3,23.1-40.2,23.1-40.2s-0.8,6.6-2.8,15.1c-11.7,49.8-44.3,90.1-91.1,112.7c-62.8,30.4-117.7,13.6-130.9,8.3
		c-2.4-0.9-4.2-3-3.5-5.8c0.9-12.2,7.8-27.9,13-38.3C193.3,182.6,222.7,147.2,252.7,133.8"/>
	<path class="st1" d="M231.8,151.4l16.8-14.9c-2,19.5-2,39.3,0,54.3c0,11.6,12.5,23.3,28,23.3c3.6,0,6.9-0.6,10.1-1.7
		c-4.7,3.2-10.6,5.2-17,5.2c-15.5,0-28.2-7.7-32-21.8C235,183.4,232.7,169.2,231.8,151.4"/>
	<path class="st1" d="M298.6,206.4c37.4-38.4,48.6-69.6,53.1-97.8c-17.5-5.6-57.7-14.3-114.8,20.1c-24.9,15-43.8,36.3-58.5,56.2
		c-7.5,10.1-21.7,35.5-21.7,35.5s0.8-6.5,2.8-15c11.7-49.8,44.3-90.1,91.1-112.7c62.8-30.4,117.7-13.6,130.9-8.3
		c2.4,0.9,4.2,3,3.5,5.8c-0.9,12.2-6.7,27.6-11.9,38C356.9,160.7,328.7,193,298.6,206.4"/>
	<path class="st1" d="M323.5,125.2c0,0-1.6,26.2-5.5,42.5c-3.7,15.3-11.7,35.5-20.5,39.7c3.5-3.9,8.1-20.8,8.5-28.8
		c0.7-14.7,0.9-33.6,0.4-44.4c-11.6-0.9-22.9-1.8-37.2-2C280.5,128.8,302.7,121.8,323.5,125.2"/>
	<path class="st2" d="M257.9,414.1c0.8-4.2-0.1-8.6-8.4-8.6h-12l-4.9,25.9h7l1.6-8.4h5.5C253.4,423,257.1,418.7,257.9,414.1
		 M250.6,414.3c-0.6,3.1-2.2,4.1-5.1,4.1h-3.4l1.6-8.1h3.4C249.9,410.2,251.2,411.2,250.6,414.3L250.6,414.3z M250.6,414.3"/>
	<path class="st2" d="M286.9,418.5c1.6-8.3-2-13.7-10.5-13.7c-8.5,0-14.1,5.4-15.7,13.7c-1.6,8.3,2,13.7,10.5,13.7
		C279.7,432.2,285.4,426.8,286.9,418.5 M279.7,418.5c-0.8,4.4-2.3,9-7.6,9c-5.2,0-5-4.5-4.2-9c0.9-4.4,2.4-9,7.6-9
		C280.8,409.5,280.5,414.1,279.7,418.5L279.7,418.5z M279.7,418.5"/>
	<path class="st2" d="M316.9,413.7c1.2-6.1-2.5-8.1-8-8.1h-12.5l-4.9,25.9h7l1.7-8.7h3.1l3.5,8.7h8l-4.7-10.1l0.2-0.5
		C310.2,420.9,315.8,419.8,316.9,413.7 M309.5,414.1c-0.6,3-2.1,4-4.9,4H301l1.5-7.9h3.6C308.9,410.2,310.1,411.1,309.5,414.1
		L309.5,414.1z M309.5,414.1"/>
	<polyline class="st2" points="343.4,405.5 320.9,405.5 320,410.4 327.7,410.4 323.7,431.4 330.7,431.4 334.7,410.4 342.5,410.4 	
		"/>
	<path class="st2" d="M370.6,405.5h-7l-3.2,16.8c-0.8,4-2.4,5.2-5.4,5.2c-3,0-4.2-1.2-3.4-5.2l3.2-16.8h-7l-3.1,16.2
		c-1.1,5.5,0.1,10.2,9.3,10.2c9.2,0,12.4-4.7,13.5-10.2"/>
	<path class="st2" d="M399.8,406.1c-2.5-0.6-5.3-0.9-8.1-0.9c-9.1,0-15.4,4.4-17.2,13.8c-1.5,8.2,3.1,12.8,11.1,12.8
		c3.3,0,6.8-0.4,10.1-1.1l2.3-12.2h-7l-1.6,8.4c-0.7,0.1-1.4,0.2-2,0.2c-4.7,0-7-1.3-5.5-8.5c1.4-7.2,5.1-8.5,11.1-8.5
		c2.5,0,4.7,0.4,5.9,0.6"/>
	<path class="st2" d="M428.4,431.4l-3.9-25.9h-10.4l-14.5,25.9h7.2l3-5.8h10.6l0.5,5.8 M419.7,420.9h-7.4l5.6-10.8h0.7L419.7,420.9
		L419.7,420.9z M419.7,420.9"/>
	<polyline class="st2" points="453.3,426.4 441.3,426.4 445.3,405.5 438.3,405.5 433.4,431.4 452.3,431.4 	"/>
	<path class="st2" d="M53.6,336.2c-1.8-4.1,1.3-6.3,4.1-6.6l7.4,0c12.1,0,18.9-4,21.5-17.3c2.4-13.1-2.7-17.1-14.9-17.1H56.1
		L38.5,388H8l21.5-113h54.7c23.7,0,39.9,8.7,34.7,35.5c-5,26.6-29.2,31.3-29.2,31.3l-0.8,2.1l12.6,26.9l5.3,11.5
		c15.4,28.8,47.8,47,84.5,45.9c-46.7,11.1-99.8-2-116.5-40.2 M363.1,321.1c1.7-9-1.7-11.7-9.9-11.7h-13.4l-4.4,23.2h13.4
		C356.9,332.6,361.4,330,363.1,321.1L363.1,321.1z M358.5,360.7c1.9-9.6-2-12.5-10.8-12.5h-15.5l-4.8,25.1h15.5
		C351.7,373.4,356.6,370.4,358.5,360.7L358.5,360.7z M390.3,318.1c-3.2,17.1-20.3,18.8-25.5,20.2l-0.7,3.5
		c7.8,1.3,23.4,3.2,19.9,21.8c-4,21-26.7,24.4-39.8,24.4h-44.6l17.7-92.9h45C367.3,295.1,394.9,294.3,390.3,318.1L390.3,318.1z
		 M303.1,297l-3.1,16.2c-4.4-0.8-12.2-2.1-21.2-2.1c-21.4,0-34.8,4.6-39.7,30.7c-5,25.9,3.2,30.7,19.9,30.7c2.3,0,4.8-0.4,7.3-0.7
		l5.7-30.3H297l-8.4,43.7c-11.9,2.5-24.4,4.1-36.2,4.1c-28.7,0-45.4-16.2-39.8-45.8c6.5-34,28.9-49.6,61.6-49.6
		C284.1,293.9,293.9,294.8,303.1,297L303.1,297z M213,295.1l-11.1,58.3c-3.7,19.9-15.3,36.8-48.3,36.8s-37.3-16.9-33.4-36.8l11-58.3
		h25.1l-11.4,60.3c-2.8,14.5,1.6,18.6,12.3,18.6c10.6,0,16.6-4.1,19.4-18.6l11.5-60.3H213L213,295.1z M489.6,295.1l-49,60.8
		l-6.1,32.1h-25.1l6-31.6l-24.7-61.3h30l11.7,40.3h1.2l26.7-40.3H489.6L489.6,295.1z M489.6,295.1"/>
</g>
</svg>
