<?xml version="1.0" encoding="utf-8"?>
<!-- Generator: Adobe Illustrator 19.1.0, SVG Export Plug-In . SVG Version: 6.00 Build 0)  -->
<svg version="1.1" id="Layer_1" xmlns="http://www.w3.org/2000/svg" xmlns:xlink="http://www.w3.org/1999/xlink" x="0px" y="0px"
	 viewBox="0 0 500 500" style="enable-background:new 0 0 500 500;" xml:space="preserve">
<style type="text/css">
	.st0{fill:#21255D;}
	.st1{fill:#FFFFFF;}
	.st2{fill:none;stroke:#21255D;stroke-width:2.3432;}
</style>
<path class="st0" d="M37.5,468.2c-2.5-1.1-0.8-3.8-0.8-5.5c0.2-5.8-0.1-12.3-0.4-18.9c-1.2-25.1,0.4-48.2-0.4-71.4
	c-0.5-13.6-2.6-27.9-2.7-40.2c-0.2-19.4,1-41.7,3.5-61.2c2-15.5,5.8-44.6,18.9-48.9c17.2-5.7,19.7,19,25.7,30.8
	c2,4,6.1,9.9,10.6,9.8c6.7-0.1,11-13.5,11.5-23.7c0.3-6.1-0.1-12.3,0-18.1c0.3-20.6-0.3-38.5,3.2-60c1-6.3,2.5-12.3,3.6-18.6
	c2.2-12.8,4.7-22.6,8.7-33.9c3.4-9.7,7.7-21.2,18.9-22.1c4-0.4,10.3,1.3,13.4,3.2c5,2.9,10.4,12.7,14.2,19.3
	c4.2,7.3,8.1,15.3,12.6,20.9c3.1,3.9,8.5,8.4,14.6,7.5c8.9-1.3,12.7-16.9,15-27.6c5.4-25.1,10.5-42.5,20.1-64.3
	c1.8-4,4.5-9.1,7.5-13.8c4.5-7.1,9.7-16,21.7-11.5c3.9,1.5,9,7.1,11,11c4.7,9.2,4.8,24.3,8.3,34.7c2.2,6.7,7.4,14.5,16.2,13.8
	c5.5-0.4,12.3-6.4,16.6-11c9.1-9.7,15.8-21.2,22.9-32c3.5-5.4,7.5-11.7,11.5-15.8c2.4-2.5,8-7.5,12.2-6.7c9.5,1.8,12.7,18.8,17,26.4
	c2.4,4.3,6,9.3,10.6,9.9c4.8,0.6,9.8-2.2,15.4-3.6c4.8-1.1,10.8-2,15.8-2.7c15.7-2.2,36.1-2.2,40.2,13.8c4,15.2-17.6,24-27.2,30
	c-3.4,2.1-8.2,4.8-13,7.5c-3.8,2.2-10.2,5.9-10.6,9.5c-1.2,9.1,14.5,15.8,15.4,24.5c0.6,6-4,11.4-8.3,14.2
	c-9.1,5.9-24.6,6.3-36.3,3.9c-6.6-3.2-13.9-7.4-24-6.3c-5.1,0.5-10.3,3.6-11,7.9c-1.1,5.8,6.6,14.8,11,20.1c4.1,5,11.3,9.1,11,16.6
	c-0.2,5.2-7.3,11.7-11.5,13.4c-6.7,2.7-17.9,3.1-27.2,3.2c-7.1,0.1-13.2-0.2-20.1-0.4c-2.4,0-4.9,0.9-7.1,0.8
	c-5-0.2-11.4-1.8-17-1.6c-10.2,0.3-22.7,4.3-29.6,8.7c-3.2,2-7.8,7.1-7.5,11.5c0.6,8.9,14.6,8.8,25.2,12.2
	c10.9,3.5,23.9,12.9,26.8,24.1c1.8,6.4-0.7,10.8-3.9,16.1c-17.2,12.8-42,15.6-66.3,20.9c-6.5,1.4-12.6,4.1-19.3,5.5
	c-13.4,2.8-22.7,5.5-35.5,10.2c-4.6,1.7-12.3,4.2-12.6,8.7c-0.3,5.9,10.9,9.5,15.8,11.8c6.7,3.3,13.1,7.2,16.6,11
	c4.4,4.9,8.6,13.3,4.7,20.9c-1.9,3.8-8.3,8.8-13.8,11c-10.3,4.2-23.2,4.9-36.3,5.9c-12.5,0.9-23.8,5.5-35.5,9
	c-11.6,3.5-22.2,8.1-31.2,14.6c-12.9,9.4-21.2,24.7-28.8,40.2c-2.5,5.1-5.7,10.3-7.5,15.4C38.9,462,39.4,465.4,37.5,468.2"/>
<path class="st0" d="M342.5,20c-3.6,3.7-7.2,9.3-10.5,14.2l-1.1,1.7l-3.6,5.6c-5.7,8.9-11.7,18.2-19.1,26.2
	c-2.8,3.1-10.1,10.2-15.8,10.7c-9.7,0.8-13.9-9.8-15-13c-1.5-4.4-2.3-9.7-3.2-14.9c-1.2-7.2-2.4-14.6-5.2-20
	c-2.2-4.2-7.5-10-11.6-11.6c-12.6-4.7-18.2,4.2-22.7,11.3l-0.4,0.6c-3,4.6-5.7,9.7-7.6,13.9c-9.1,20.7-14.3,37.6-20.2,64.5
	c-1.8,8.2-5.5,25.4-14,26.7c-6.5,1-12-5.1-13.5-7c-3.3-4.2-6.4-9.8-9.4-15.2l-3.1-5.6l-0.6-1.1c-3.8-6.6-9-15.7-14-18.6
	c-3.2-1.9-9.7-3.7-14.1-3.3c-12.3,1-16.7,13.6-19.9,22.9c-4,11.4-6.5,21.3-8.7,34.1l-1.6,8.3l-1.9,10.2c-2.8,17.6-2.9,32.8-3.1,48.9
	l-0.1,11.2l0,7.5l0,10.7c-0.5,10.6-5,22.5-10.3,22.6c-3.6,0-7.3-4.7-9.6-9.2l-3.8-9.9c-4-11.6-9-26.1-23.2-21.5
	c-13.8,4.5-17.6,33.8-19.7,49.5c-2.5,19-3.8,41.3-3.6,61.7l1.4,21.2l1.4,19l0.1,32c-0.2,12.7-0.3,25.8,0.3,39.5l0.1,1.8l0.3,17
	c0,0-0.2,1.3-0.2,1.3c-0.4,1.5-1,4.2,1.7,5.4l0.9,0.4l0.5-0.8c1.3-1.9,1.6-4,1.8-6l0.7-3.3l4.8-10l2.7-5.2
	c6.9-14.3,15.4-30.4,28.4-39.8c8.1-5.9,18.2-10.6,30.8-14.4l7.7-2.5c9.2-3,17.9-5.8,27.6-6.6c0,0,3-0.2,3-0.2
	c12.3-0.9,24-1.8,33.7-5.8c5.9-2.4,12.3-7.6,14.4-11.6c4-7.9,0.1-16.6-4.9-22.2c-3.1-3.4-8.8-7.3-16.9-11.3c0,0-3.2-1.4-3.2-1.4
	c-4.8-2.1-12.2-5.2-12-9.3c0.2-3.4,6.5-5.7,10.7-7.2l1.2-0.4c12.7-4.8,22-7.4,35.3-10.2l10.3-2.9l9.1-2.6l13.2-2.7
	c20.2-4,39.2-7.8,53.5-18.4c3.5-5.7,6.3-10.4,4.4-17.4c-3.1-11.5-16.2-21.2-27.6-24.9l-8.9-2.2c-8.1-1.8-15.1-3.3-15.5-8.9
	c-0.2-3.7,4-8.5,7-10.4c7.2-4.6,19.6-8.2,29-8.5c0,0,10.1,0.8,10.1,0.8l6.8,0.7c0,0,3.8-0.4,3.8-0.4l3.4-0.4l6.4,0.2l13.8,0.2
	c9.8,0,20.9-0.5,27.6-3.2c4.2-1.7,12-8.4,12.2-14.4c0.2-6-4-10-7.6-13.5l-3.7-3.8l-0.6-0.8c-4.2-5-11.1-13.4-10.2-18.4
	c0.7-3.8,5.6-6.5,10-6.9c8.8-0.9,15.4,2.3,21.3,5.2l2.1,1c12,2.5,28.1,2.1,37.5-4c4.5-3,9.4-8.8,8.8-15.3c-0.5-4.5-4.3-8.3-8-11.9
	c-4.1-4.1-7.9-7.9-7.4-12.2c0.4-3,6.9-6.8,10-8.6l13.1-7.5c0,0,5.4-3.2,5.4-3.2c10.9-6.1,25.9-14.5,22.3-28.1
	c-3.4-13.1-17.4-18-41.5-14.6c0,0-15.9,2.8-15.9,2.8l-5.5,1.7c-3.4,1.1-6.6,2.2-9.5,1.9c-3.2-0.4-6.5-3.5-9.7-9.3c0,0-3.5-8-3.5-8
	c-3.2-8.2-6.8-17.6-14.3-19C350.8,12,344.8,17.5,342.5,20 M292.5,80.7c6.3-0.5,13.6-7.4,17.3-11.4c7.6-8.1,13.6-17.5,19.4-26.5
	l3.6-5.6l1.1-1.7c3.2-4.8,6.7-10.3,10.2-13.9c3.2-3.3,8-7,11.2-6.4c6.2,1.2,9.6,9.9,12.6,17.5l3.6,8.3c3.7,6.5,7.4,10,11.5,10.5
	c3.5,0.4,6.9-0.8,10.5-2l5.3-1.6c0,0,15.7-2.7,15.7-2.7c22.8-3.2,35.9,1.2,38.9,12.9c3.1,11.9-10.9,19.8-21.2,25.5l-5.5,3.2l-13,7.4
	c-5.2,3-10.8,6.5-11.2,10.3c-0.7,5.4,3.8,9.9,8.1,14.2c3.4,3.4,6.9,6.9,7.3,10.5c0.6,5.5-3.8,10.6-7.8,13.2
	c-8.8,5.8-24.2,6.1-35.4,3.8c0,0-1.8-0.9-1.8-0.9c-6.2-3-13.1-6.4-22.6-5.4c-5.2,0.5-11.2,3.8-12.1,8.8c-1.1,6.1,6,14.6,10.7,20.3
	l0.6,0.8l3.9,4c3.7,3.5,7.1,6.9,6.9,11.8c-0.2,4.5-6.7,10.8-10.7,12.4c-6.4,2.6-17.1,3-26.8,3.1c0,0-13.7-0.2-13.7-0.2l-6.4-0.2
	l-7.1,0.8l-6.6-0.7l-10.5-0.9c-9.7,0.3-22.7,4.1-30.1,8.9c-3.3,2.1-8.1,7.3-8.1,12.1c0,0.1,0,0.3,0,0.5c0.5,7.4,8.7,9.2,17.3,11.1
	l8.7,2.2c10.8,3.5,23.2,12.6,26.1,23.3c0.4,1.4,0.5,2.6,0.5,3.8c0,4.1-2,7.5-4.4,11.4c-13.5,10-32.3,13.7-52.2,17.7l-13.3,2.7
	l-9.3,2.7l-10.1,2.8c-13.5,2.8-22.8,5.5-35.7,10.3l-1.1,0.4c-5,1.8-11.9,4.4-12.2,9.3c0,0.1,0,0.2,0,0.3c0,5.5,7.7,8.8,13.4,11.3
	l3.1,1.4c7.7,3.9,13.3,7.6,16.2,10.8c3.2,3.6,6,8.6,6,13.7c0,2-0.4,4-1.4,5.9c-1.8,3.5-7.8,8.3-13.2,10.5c-9.3,3.8-20.8,4.7-33,5.6
	l-3,0.2c-9.9,0.7-19.1,3.7-28.1,6.7l-7.6,2.4c-12.9,3.9-23.2,8.7-31.5,14.8c-13.4,9.7-22.1,26.1-29.1,40.7l-2.7,5.2l-4.9,10.3
	c0,0-0.8,3.8-0.8,3.8c-0.1,1.1-0.3,2.1-0.6,3.1c0-0.3,0.1-0.6,0.2-1.2l0.3-1.7l-0.3-17.2l-0.1-1.8c-0.4-7.5-0.5-14.8-0.5-22.1
	c0-5.9,0.1-11.6,0.1-17.3l-0.1-32.1l-1.4-19.2l-1.4-21c0-1.3,0-2.7,0-4c0-19.1,1.3-39.7,3.5-56.9c2-15.6,5.8-43.9,18.1-48
	c12-4,16.2,8.2,20.3,20l4,10.2c1.3,2.5,5.8,10.5,11.7,10.5c7.8-0.1,12.2-14.8,12.6-24.8l0-10.8l0-7.4l0.1-11.2
	c0.1-16,0.2-31.2,3-48.6c0,0,1.9-10.1,1.9-10.1l1.6-8.4c2.2-12.7,4.7-22.5,8.6-33.7c3-8.6,7.1-20.4,17.9-21.3
	c3.8-0.4,9.9,1.3,12.7,3c4.5,2.6,9.5,11.4,13.2,17.8l0.6,1.1l3.1,5.5c3,5.5,6.2,11.2,9.6,15.5c1.7,2.2,7.9,9.1,15.7,7.9
	c8.9-1.3,12.9-14.5,15.9-28.5c5.8-26.7,11-43.5,20-64.1c1.8-4.1,4.5-9.1,7.4-13.6l0.4-0.6c4.5-7.1,9.1-14.4,19.9-10.4
	c3.5,1.4,8.4,6.7,10.4,10.5c2.6,5.1,3.8,12.3,4.9,19.3c0.9,5.3,1.7,10.7,3.3,15.2C276.3,69.8,281.1,81.6,292.5,80.7L292.5,80.7z
	 M292.5,80.7"/>
<path class="st1" d="M338.1,84.3c25.1-9.1,49.6-17.6,75.8-24.9c4.5-1.2,9.4-2.1,14.2-2.7c4.5-0.6,9.2-1.3,13.8-1.2
	c-0.6,2.6-4,2.8-5.9,3.6c-6.4,2.4-13.4,4.5-20.1,7.1c-4.4,1.7-8.6,4-13,5.5c-4.7,1.6-9.6,2.3-14.2,3.9c-18,6.6-35.4,13.6-51.3,21.7
	c19.3,3.9,32.8,13.8,49.3,20.5c2,1.8,4.8,3.9,7.5,5.5c2.6,1.5,6.5,2.3,6.7,5.1c-3.2,0.8-6-1.9-9-3.2c-9.5-3.8-20-7.9-29.2-12.2
	c-7.9-1.7-14.8-4.5-21.3-7.5c-15.9-4.6-28.2,2.5-39.4,9.1c-22.3,12.9-46.2,26.4-63.1,43.4c26.5,3.1,55.3,4.3,77.3,13.4
	c3.7,1.5,7.8,2.7,11.5,4.4c3.2,1.4,7.3,3.2,8.7,6.7c-14.1-3.1-31.1-9.2-49.7-10.6c-9.6-0.8-18.1-1.1-28.4-1.6
	c-4.7-0.2-10.3-1.3-15.8-1.2c-5.6,0.1-12.5-0.4-16.6,0.8c-2.9,0.9-7.3,5.9-10.3,8.7c-3.7,3.5-7.1,6.3-9.9,9.1
	c-6.2,6.1-12.4,13.2-17.7,19.3c-11.8,13.5-24.7,26.1-34.8,40.3c39.6-1.9,82.5-3.9,112.1,9.8c-1.1,2.7-6.1,0.9-9.8,0.4
	c-3.9-0.5-7.9-1.1-11.9-1.6c-8.1-0.9-16.4-0.5-24.8-0.8c-7.2-0.3-13.6-1.7-20.9-1.2c-11.6,0.7-28,0.9-39.9,4
	c-5.2,1.4-11.9,2.4-15.4,4.4c-2.5,1.4-5.8,6.5-8.3,9.8c-5.4,7.2-9.1,14.5-14.2,21.7c-12.1,17.4-23.3,36.4-33.9,55.6
	c24.5-2.9,55.6-6.1,76.1,4c-0.5,2.6-3.7,0.8-4.7,0.8c-7.9-0.3-16.6,0.4-25.7,0.4c-17.8,0-36.6,1.6-49.7,8.3
	c-7.5,3.9-13.5,16.6-17.8,25.2c-1.7,3.3-3.7,6.5-5.5,9.9c-3.9,7.3-5.8,15.2-8.3,21.3c-0.9,2.2-2,4.2-3.9,5.1
	c-0.8-7.1,1.9-13.6,3.9-20.1c2-6.5,3.5-13.5,6.3-20.1c3.5-8.6,10.4-17,11.8-26c1.1-7.3-0.5-18-1.2-26.5c-1.5-17.5-3.1-32.5-5.1-49.3
	c-0.6-5.4-3.3-11-1.2-16.6c1.7,1.5,2.9,5.7,3.6,8.3c5,20.6,8.7,43.6,13,65.5c9.4-14.2,18.1-29,27.2-43.4c9.1-14.3,18.1-28.8,28-42.2
	c5-25,6.6-54,7.9-82c1-22.6-2.5-44.7-2.8-67.5c4.1,2.9,3.9,9.1,5.1,13.8c5.4,21,5.1,49.9,5.5,71.4c0.2,13.7-1.3,32.8-1.2,46.6
	c11.7-15.4,24.9-30.5,37.9-45.8c4.3-5.1,8.1-10.6,12.2-15.8c4-5.1,9.9-9.3,15-13.4c5.4-4.3,9.7-9.4,15-13.4
	c11.5-29.7,16.7-68.1,17-104.5c2.6,0.9,2.6,4.7,3.2,7.1c1.2,5.8,3.4,14.1,3.2,21.7c-0.7,22.6-4.5,47.4-9.5,66.6
	c22.1-12.9,44.5-28.7,68.3-40.2c12.1-5.9,20.5-16.6,26.8-28c6.4-11.6,13-23.8,17-37.5c0.8-0.3,1.5-1.3,2.4-0.4
	C358.6,52.8,347,70.6,338.1,84.3"/>
<path class="st0" d="M111.3,448.8l10.5,26.8h12.9L123.1,446c7.1-3,10.7-8.7,10.7-17c0-6.5-2.4-11.4-7.1-14.8
	c-3.6-2.6-8.9-3.9-15.7-3.9H91.7v65.3H104v-26.8H111.3L111.3,448.8z M104,419.6h4.5c2.1,0,3.9,0.1,5.3,0.3c1.7,0.2,3.1,0.8,4.2,1.8
	c2,1.6,3,4.2,3,7.8c0,4.9-1.8,7.9-5.4,9.2c-1.4,0.5-3.8,0.8-7.2,0.8H104V419.6L104,419.6z M185.7,423.1c-0.5-2.7-1.8-5.2-3.8-7.5
	c-3.7-4.2-9.4-6.3-17.1-6.3c-7.7,0-13.4,2.1-17.1,6.3c-1.6,1.9-2.8,4-3.5,6.4c-0.7,2.4-1,5.4-1,9.1v23.8c0,2.9,0.3,5.5,0.8,8
	c0.6,2.7,1.8,5.2,3.8,7.5c3.7,4.2,9.4,6.3,17.1,6.3c7.7,0,13.4-2.1,17.1-6.3c1.6-1.9,2.8-4,3.5-6.4c0.7-2.4,1-5.4,1-9.1v-23.8
	C186.5,428.2,186.2,425.5,185.7,423.1L185.7,423.1L185.7,423.1z M155.7,426.5c0.1-1.5,0.6-2.9,1.4-4.2c1.5-2.4,4.1-3.5,7.8-3.5
	c4.8,0,7.7,2,8.8,6c0.3,1.1,0.5,3.3,0.5,6.5v23.4c0,1.9-0.1,3.4-0.2,4.7c-0.1,1.5-0.6,2.9-1.4,4.2c-1.5,2.4-4,3.5-7.7,3.5
	c-4.8,0-7.8-2-8.9-6c-0.3-1.1-0.5-3.3-0.5-6.4v-23.4C155.5,429.4,155.6,427.8,155.7,426.5L155.7,426.5L155.7,426.5z M238,410.3
	l-11.1,41l-11-41h-18v65.3h11.7v-48.1l13.7,48.1h6.9l13.8-48.1v48.1h11.7v-65.3H238L238,410.3z M300.5,475.6h12.6l-16-65.3h-16.8
	L265,475.6h12l3.2-14.2h16.9L300.5,475.6L300.5,475.6z M282.2,452.1l6.3-29.2l6.5,29.2H282.2L282.2,452.1z M353.9,410.3v40.6
	l-20-40.6h-12.3v65.3h11.7v-43.5l21.3,43.5h11v-65.3H353.9L353.9,410.3z M377.8,410.3v65.3h12.3v-65.3H377.8L377.8,410.3z
	 M434.9,475.6h12.6l-16-65.3h-16.8l-15.2,65.3h12l3.2-14.2h16.9L434.9,475.6L434.9,475.6z M416.6,452.1l6.3-29.2l6.5,29.2H416.6
	L416.6,452.1z"/>
<path class="st0" d="M293.6,390.7h2.5h2.4v-14.8h11.7c2.4,0,4.1,0.5,5.1,1.4c1,0.9,1.6,2.4,1.7,4.6l0.1,2.7c0.1,1.4,0.2,2.8,0.3,3.9
	c0.1,1.2,0.3,1.9,0.4,2.2h6.1v-0.7c-0.7-0.3-1.2-0.7-1.4-1.2c-0.2-0.5-0.4-1.2-0.4-2.2l-0.2-6.3c-0.1-2.8-1.2-4.8-3.4-6l-0.8-0.4
	c0.6-0.3,1.2-0.7,1.7-1.1c2.1-1.7,3.1-4,3.1-7c0-3-1-5.4-3-6.9c-2-1.6-4.9-2.4-8.8-2.4H296h-2.4V390.7L293.6,390.7L293.6,390.7
	L293.6,390.7L293.6,390.7L293.6,390.7L293.6,390.7L293.6,390.7z M298.5,360.3h11.8c2.4,0,4.2,0.5,5.3,1.4c1.1,0.9,1.7,2.4,1.7,4.3
	c0,2-0.5,3.5-1.6,4.5c-1.1,0.9-2.7,1.4-5,1.4h-12.2l0,0l0,0V360.3L298.5,360.3z M333.6,365.7h-2.2h-2.2v17.1c0,2.8,0.7,5,2.3,6.4
	c1.5,1.4,3.8,2.1,6.8,2.1c2.9,0,5.2-1.1,7.1-3.2c0.4-0.4,0.7-0.8,1-1.3v3.8h2.1h2.1v-25h-2.2H346v13.3c0,2.7-0.6,4.8-1.9,6.4
	c-1.3,1.6-3,2.3-5.1,2.3c-1.9,0-3.3-0.5-4.2-1.4c-0.9-0.9-1.3-2.4-1.3-4.5V365.7L333.6,365.7L333.6,365.7L333.6,365.7L333.6,365.7
	L333.6,365.7L333.6,365.7L333.6,365.7L333.6,365.7L333.6,365.7L333.6,365.7z M363,396.7c-1-0.7-1.6-1.8-1.9-3.1h-4.6
	c0.4,2.5,1.4,4.4,3.2,5.7c1.8,1.3,4.1,2,7.1,2c4.1,0,7.2-1,9.2-3c2-2,3-5.1,3-9.4v-23.1H375v3.6l-0.3-0.4c-1.9-2.6-4.4-3.9-7.6-3.9
	c-3.3,0-6,1.2-8.1,3.5c-2.1,2.3-3.1,5.3-3.1,9.1c0,4.2,1,7.6,3.1,10.1c2.1,2.5,4.9,3.7,8.5,3.7c3,0,5.3-1.1,7.2-3.3l0,0v0.8
	c0,2.9-0.7,5.1-2,6.6c-1.3,1.5-3.3,2.3-5.8,2.3l0,0l0,0l0,0l0,0C365.3,397.8,364,397.4,363,396.7L363,396.7z M373.1,371.5
	c1.2,1.8,1.8,4.4,1.8,7.9c0,2.5-0.7,4.5-2,6c-1.3,1.5-3.1,2.3-5.2,2.3c-2.3,0-4.1-0.8-5.3-2.5c-1.2-1.7-1.9-4-1.9-7.1
	c0-3.3,0.6-5.6,1.7-7.1c1.1-1.5,3-2.2,5.5-2.2C370.1,368.8,371.9,369.7,373.1,371.5L373.1,371.5z M385,390.7h4.2v-3.1l0.4,0.5
	c1.8,2.2,4.1,3.2,7.1,3.2c3.6,0,6.4-1.2,8.5-3.7c2-2.5,3.1-5.9,3.1-10.2c0-3.8-1-6.9-3-9.1c-2-2.2-4.8-3.4-8.2-3.4
	c-3.1,0-5.6,1.3-7.5,4v-12.6h-2.2H385l0,0l0,0l0,0l0,0l0,0l0,0V390.7L385,390.7z M391.3,385.6c-1.2-1.4-1.8-3.5-1.8-6.2
	c0-3.7,0.6-6.4,1.7-8c1.1-1.7,2.9-2.5,5.4-2.5c2.4,0,4.2,0.8,5.3,2.3c1.2,1.5,1.7,3.8,1.7,6.9c0,3.2-0.6,5.6-1.8,7.2
	c-1.2,1.7-3,2.5-5.3,2.5l0,0l0,0l0,0C394.2,387.7,392.5,387,391.3,385.6L391.3,385.6L391.3,385.6z"/>
<path class="st0" d="M435.1,365.7h-2.5h-2.4l-7.2,20.6h0l-7.1-20.6h-2.6h-2.5l9.8,25.4v0l-0.1,0.4c-0.9,2.1-1.6,3.6-2.3,4.4
	c-0.7,0.8-1.5,1.2-2.5,1.2c-1,0-1.9-0.1-2.5-0.4v3.9c0.6,0.2,1.4,0.3,2.2,0.3c2.4,0,4.2-0.6,5.5-1.8c1.2-1.2,2.6-3.7,4.1-7.5
	L435.1,365.7L435.1,365.7L435.1,365.7L435.1,365.7L435.1,365.7L435.1,365.7L435.1,365.7z"/>
<path class="st2" d="M293.6,390.7v-34.3l0,0h2.4l0,0h14.5c3.9,0,6.8,0.8,8.8,2.4c2,1.6,3,3.9,3,6.9c0,3-1,5.4-3.1,7
	c-0.5,0.4-1.1,0.8-1.7,1.1l0,0l0.8,0.4c2.2,1.2,3.4,3.2,3.4,6l0.2,6.3c0,1,0.2,1.8,0.4,2.2c0.2,0.5,0.7,0.8,1.4,1.2v0.7h-6.1
	c-0.1-0.3-0.3-1-0.4-2.2c-0.1-1.2-0.2-2.5-0.3-3.9l-0.1-2.7c-0.1-2.1-0.6-3.6-1.7-4.6c-1-0.9-2.7-1.4-5.1-1.4h-11.7l0,0v14.8l0,0
	H296H293.6L293.6,390.7z M298.5,371.9h12.2c2.3,0,3.9-0.5,5-1.4c1.1-0.9,1.6-2.4,1.6-4.5c0-2-0.6-3.4-1.7-4.3
	c-1.1-0.9-2.9-1.4-5.3-1.4h-11.8l0,0V371.9z M333.6,365.7v16.1c0,2.1,0.4,3.6,1.3,4.5c0.9,0.9,2.2,1.4,4.2,1.4
	c2.1,0,3.8-0.8,5.1-2.3c1.3-1.6,1.9-3.7,1.9-6.4l0,0v-13.3l0,0h2.2h2.2l0,0v25l0,0h-2.1h-2.1l0,0v-3.8l0,0l0,0
	c-0.3,0.5-0.6,0.9-1,1.3c-1.9,2.1-4.3,3.2-7.1,3.2c-3,0-5.3-0.7-6.8-2.1c-1.5-1.4-2.2-3.5-2.2-6.4v-17.1l0,0h2.2H333.6L333.6,365.7z
	 M366.9,397.8c2.6,0,4.5-0.8,5.8-2.3c1.3-1.5,2-3.7,2-6.6v-0.8l0,0c-1.8,2.2-4.2,3.3-7.2,3.3c-3.5,0-6.4-1.2-8.5-3.7
	c-2.1-2.5-3.1-5.9-3.1-10.1c0-3.7,1-6.8,3.1-9.1c2.1-2.3,4.8-3.5,8.1-3.5c3.2,0,5.7,1.3,7.6,3.9l0.3,0.4l0,0v-3.6l0,0h4.2v23.1
	c0,4.2-1,7.3-3,9.4c-2,2-5.1,3-9.2,3c-3,0-5.4-0.7-7.1-2c-1.8-1.3-2.8-3.2-3.2-5.7l0,0h4.6l0,0c0.3,1.3,0.9,2.4,1.9,3.1
	C364.1,397.4,365.3,397.8,366.9,397.8L366.9,397.8z M367.8,368.8c-2.5,0-4.3,0.8-5.5,2.2c-1.1,1.5-1.7,3.9-1.7,7.1
	c0,3.1,0.6,5.4,1.9,7.1c1.2,1.7,3,2.5,5.3,2.5c2.2,0,3.9-0.8,5.2-2.3c1.3-1.5,2-3.5,2-6c0-3.5-0.6-6.2-1.8-7.9
	C372,369.7,370.2,368.8,367.8,368.8L367.8,368.8z M385,356.4h2.2h2.2l0,0V369l0,0c1.9-2.7,4.5-4,7.5-4c3.5,0,6.2,1.1,8.2,3.4
	c2,2.2,3,5.3,3,9.1c0,4.3-1,7.7-3.1,10.2c-2,2.5-4.9,3.7-8.5,3.7c-3,0-5.4-1.1-7.1-3.2l-0.4-0.5l0,0v3.1l0,0H385l0,0V356.4z
	 M396.5,387.7c2.3,0,4.1-0.8,5.3-2.5c1.2-1.7,1.8-4.1,1.8-7.2c0-3.1-0.6-5.4-1.7-6.9c-1.2-1.5-2.9-2.2-5.3-2.3
	c-2.5,0-4.3,0.8-5.4,2.5c-1.1,1.7-1.7,4.4-1.7,8l0,0l0,0l0,0c0,2.7,0.6,4.7,1.8,6.2C392.5,387,394.3,387.7,396.5,387.7L396.5,387.7z
	 M435.1,365.7L425,391.5c-1.6,3.8-2.9,6.4-4.1,7.5c-1.2,1.2-3,1.8-5.5,1.8c-0.8,0-1.5-0.1-2.2-0.3v-3.9c0.7,0.2,1.5,0.4,2.5,0.4
	c1,0,1.8-0.4,2.5-1.2c0.7-0.8,1.4-2.2,2.3-4.4l0.1-0.4v0l-9.8-25.4l0,0h2.5h2.6l0,0l7.1,20.6h0l0,0l7.2-20.6l0,0h2.4H435.1
	L435.1,365.7z M435.1,365.7"/>
</svg>
