<?xml version="1.0" encoding="utf-8"?>
<!-- Generator: Adobe Illustrator 19.1.0, SVG Export Plug-In . SVG Version: 6.00 Build 0)  -->
<svg version="1.1" id="Layer_1" xmlns="http://www.w3.org/2000/svg" xmlns:xlink="http://www.w3.org/1999/xlink" x="0px" y="0px"
	 viewBox="0 0 500 500" style="enable-background:new 0 0 500 500;" xml:space="preserve">
<style type="text/css">
	.st0{fill-rule:evenodd;clip-rule:evenodd;fill:#1F1A17;}
	.st1{fill-rule:evenodd;clip-rule:evenodd;fill:#D92B27;}
	.st2{fill-rule:evenodd;clip-rule:evenodd;fill:#2991CF;}
	.st3{fill-rule:evenodd;clip-rule:evenodd;fill:#FFFFFF;}
	.st4{fill-rule:evenodd;clip-rule:evenodd;fill:#EB2725;}
	.st5{fill:#26ADE3;}
	.st6{fill:#EB2725;}
</style>
<g>
	<path class="st0" d="M248,186.9l-2.3,1.6l-2.1,1.8l-5.6,3.8l-5.4,3.4l-5.6,3l-5.4,2.8l-5.6,2.4l-5.6,1.8l-5.4,1.6l-5.4,1.2l3.3,0.2
		h3.3l3.3-0.2l3.6-0.4l3.5-0.6l3.6-1l3.7-1l3.8-1.4l3.8-1.6l3.7-1.6l3.7-2l3.8-2.2l3.6-2.4l3.7-2.6l3.5-2.6l3.5-3l3.3-3.2l3.1-3.1
		l3.1-3.2l2.7-3.4l2.5-3.2l2.5-3.4l2.1-3.6l1.9-3.4l1.7-3.4l1.5-3.4l1.3-3.4l1.1-3.4l0.8-3.2l0.4-3.4l0.4-3.1v-3l-1,3.2l-1.2,3.2
		l-1.5,3.4l-1.5,3.2l-0.2,0.4v0.2l-2.5,4.4l-2.7,4.6l-2.9,4.4l-3.3,4.3l-3.6,4.4l-4,4.2l-4.2,4.2l-4.4,4l-2.1,1.8L248,186.9z
		 M248,186.9"/>
	<path class="st1" d="M203,173.9l-1.9-1.6l-1.7-1.6l-1.7-1.8l-1.5-1.6l-1.2-1.8l-1.2-1.8l-2.9,4.4l-2.7,4.4l-2.5,4.6l-2.1,4.3
		l-1.9,4.6l-1.5,4.3l-1.1,4.2l-0.8,4.4l1,1.4l1.2,1.4l1.9,1.8l2.1,1.6l2.1,1.4l2.3,1l2.5,1l2.5,0.8l2.7,0.6l2.7,0.4l5.4-1.2l5.4-1.6
		l5.6-1.8l5.6-2.4l5.4-2.8l5.6-3l5.4-3.4l5.6-3.8l-4.4-0.4l-4.4-0.8l-4.6-1l-4.4-1.4l-2.7-1l-2.5-1l-2.5-1.2l-2.5-1.2l-2.3-1.2
		l-2.3-1.4l-2.3-1.4l-2.1-1.4l-1.9-1.6L203,173.9z M203,173.9"/>
	<path class="st2" d="M261,175.1l4-4.2l3.6-4.4l3.3-4.3l2.9-4.4l2.7-4.6l2.5-4.4l-0.2-0.2v-0.2l-2.1,0.8l-2.3,0.6l-2.3,0.6l-2.3,0.4
		l-2.3,0.2l-2.5,0.4h-2.5H261h-2.7l-2.5-0.2l-2.7-0.2l-2.7-0.6l-2.7-0.4l-2.7-0.6l-2.7-0.8l-2.9-0.8l-2.7-1l-2.7-1.2l-2.7-1.2
		l-2.5-1.2l-2.5-1.4l-2.3-1.4l-2.3-1.6l-2.1-1.6l-3.1,2.6l-3.1,2.6l-2.7,2.4l-2.7,2.6l-2.7,2.8l-2.5,2.6l-2.3,2.6l-2.3,2.8l-2.1,2.8
		l-2.1,2.8l1.2,1.8l1.2,1.8l1.5,1.6l1.7,1.8l1.7,1.6l1.9,1.6l1.9,1.6l1.9,1.6l2.1,1.4l2.3,1.4l2.3,1.4l2.3,1.2l2.5,1.2l2.5,1.2
		l2.5,1l2.7,1l4.4,1.4l4.6,1l4.4,0.8l4.4,0.4l2.1-1.8l2.3-1.6l2.3-2l2.1-1.8l4.4-4L261,175.1z M261,175.1"/>
	<path class="st3" d="M244.9,149.5l2.7,0.6l2.7,0.4l2.7,0.6l2.7,0.2l2.5,0.2h2.7h2.5h2.5l2.5-0.4l2.3-0.2l2.3-0.4l2.3-0.6l2.3-0.6
		l2.1-0.8h0.2l0.2-0.2l1.5-3.2l1.5-3.4l1.2-3.2l1-3.2l-0.2-2.6l-0.4-2.6l-0.6-2.6l-0.6-2.4l-1.1-2.2l-1.2-2.2l-1.5-2.2l-1.6-1.8
		l-1.2-1.4l-1.7-1.2l-3.1,0.4l-3.3,0.4l-3.5,0.6l-3.3,0.6l-3.5,1l-3.5,1l-3.6,1.4l-3.5,1.4l-3.6,1.4l-3.5,1.8l-3.6,1.8l-3.5,2
		l-3.5,2.2l-3.6,2.2l-3.5,2.4l-3.3,2.6l2.1,1.6l2.3,1.6l2.3,1.4l2.5,1.4l2.5,1.2l2.7,1.2l2.7,1.2l2.7,1l2.9,0.8L244.9,149.5z
		 M244.9,149.5"/>
	<path class="st0" d="M375.6,187.4l-3.8,2l-3.7,2.2l-3.3,2l-3.1,2.2l-2.9,2.2l-2.7,2.4l-2.5,2.2l-2.7,2.4l-2.5,2.8l-2.7,3l-2.5,3.2
		l-2.7,3.4l-2.3,3.6l-2.5,3.8l-2.3,3.8l-2.3,4l-2.1,4l-1.9,4.1l-1.9,4.2l-1.5,4l-1.5,4.2l-1.2,4.2l-1,4l-1,4l-0.8,3.8l-0.8,3.6
		l-1,6.7l-0.6,5.9l-0.4,4.9v3.6v2.4v0.8l0.2-0.8l0.6-2.2l1-3.6l1.5-4.6l1.9-5.5l2.5-6.1l3.1-6.7l3.5-6.9l2.1-3.6l2.1-3.6l2.1-3.6
		l2.5-3.4l2.3-3.4l2.5-3.4l2.7-3.2l2.5-3l5.2-6l5.2-5.1l5-4.8l4.6-3.8l4.6-4l5.4-4.2l6-4.4l6.9-4.2l3.5-2l3.5-2l3.7-2l3.8-1.8
		l3.9-1.8l4-1.6l4-1.4l4-1.4l7.9-2.4l7.3-1.8l6.9-1.6l6.1-1l5-0.8l3.7-0.6l2.5-0.2l0.8-0.2h-0.8l-2.5-0.2l-3.9-0.4l-5-0.4l-6.3-0.2
		h-7.1l-4,0.2l-4.2,0.2l-4.2,0.4l-4.4,0.4l-4.4,0.6l-4.6,0.8l-4.4,0.8l-4.6,1.2l-4.6,1.2l-4.4,1.6l-4.6,1.6l-4.2,1.6l-4.2,1.8
		L375.6,187.4z M375.6,187.4"/>
	<path class="st0" d="M279.9,228.1l-3.7,0.8l-4.2,0.8l-4.2,0.8l-4.2,0.6l-4.2,0.6l-4.4,0.2l-8.5,0.4H238l-8.3-0.2l-7.9-0.4l-7.1-0.4
		l-6.5-0.4l-3.3-0.4l-3.6-0.2h-4l-4.2,0.2l-4.4,0.4l-4.6,0.6l-4.8,0.8l-4.8,1l-5,1.2l-4.8,1.4l-4.8,1.6l-4.8,1.8l-4.6,2.2l-4.4,2.2
		l-4.2,2.6l-4,2.8l-3.8,2.8l-3.1,2.8l-3.1,3l-2.5,3l-2.3,2.8l-2.1,2.8l-1.9,2.8l-1.5,2.6l-2.3,4.8l-1.5,3.8l-1.1,2.6l-0.2,1.2l0.6-1
		l1.7-2.2l2.7-2.8l3.7-3.6l2.1-1.8l2.3-2l2.7-1.8l2.7-2l3.1-1.8l3.1-1.6l3.5-1.6l3.7-1.2l3.8-1.2l4-1.2l4.2-0.8l4.2-0.8l4.2-0.6
		l4.2-0.4l4-0.2l4.2-0.2h4.2l3.8,0.2l3.7,0.2l3.6,0.4l6.9,0.6l7.1,0.6l3.6,0.2h3.7l4-0.2l4.2-0.2l4.4-0.4l4.4-0.6l4.6-0.6l4.6-0.8
		l4.8-1l4.8-1.2l4.8-1.2l4.6-1.6l4.6-1.6l4.6-1.8l4.4-2l4.4-2l4.2-2.2l3.8-2.4l3.5-2.4l3.1-2.4l3.1-2.6l2.5-2.4l2.3-2.4l2.1-2.4
		l3.3-4.2l2.1-3.4l1.2-2.2l0.2-0.8l-0.4,0.8l-1.9,1.6l-3.1,2.4l-4.2,2.6l-2.7,1.6l-2.7,1.4l-3.1,1.4l-3.1,1.4l-3.5,1.2L279.9,228.1z
		 M279.9,228.1"/>
	<path class="st0" d="M61.3,178.2l2.9-4.4l3.1-4.2l2.9-4l3.1-3.5l2.7-3.4l2.9-3.2l2.7-3.2l2.9-3.2l3.3-3.4l3.3-3.5l3.8-3.6l4-3.8
		l4.2-3.5l4.4-3.6l4.6-3.5l4.8-3.6l4.8-3.4l5-3.2l5-3.2l5.2-2.8l5.4-2.8l5.2-2.4l6.5-2.8l6.5-2.4l6.1-2.2l6-1.8l5.4-1.4l5.2-1.2
		l4.8-0.8l4.2-0.8l-1,3l-0.6,3l-0.6,2.8l-0.4,3l-0.6,5.9v6l0.2,5.3l0.4,5.1l0.6,4.8l0.8,4.2l0.8,4l0.8,3.4l-3.3,3.8l-2.9,4l-2.7,4
		l-2.3,4l-2.1,4l-1.9,4.2l-1.5,4l-1,3.8l-0.8,4l-0.4,3.8v3.6l0.2,3.6l0.6,3.2l0.8,3.4l0.6,1.4l0.8,1.6l0.8,1.4l0.8,1.4l0.8-4.4
		l1.1-4.2l1.5-4.3l1.9-4.6l2.1-4.3l2.5-4.6l2.7-4.4l2.9-4.4l2.1-2.8l2.1-2.8l2.3-2.8l2.3-2.6l2.5-2.6l2.7-2.8l2.7-2.6l2.7-2.4
		l3.1-2.6l3.1-2.6l3.3-2.6l3.5-2.4l3.6-2.2l3.5-2.2l3.5-2l3.6-1.8l3.5-1.8l3.6-1.4l3.5-1.4l3.6-1.4l3.5-1l3.5-1l3.3-0.6l3.5-0.6
		l3.3-0.4l3.1-0.4l-2.3-1.6l-2.7-1.4l-2.9-1.2l-2.9-1l-3.3-0.6l-3.3-0.4h-3.3l-3.6,0.2l-3.7,0.4l-3.7,0.6l-3.7,0.8l-4,1.2l-4,1.4
		l-4,1.6l-4,1.8l-3.7,2l-1.2,2.4l-0.8,2.2l-0.4,2.2v2l0.2,1.8l0.4,1.6l0.6,1.4l0.4,1l0.2,0.2v0.2l-0.4-0.4l-0.6-0.8l-1-1.4l-1-1.8
		l-0.8-2.2l-0.4-1.2l-0.2-1.2l-0.2-1.4l-0.2-1.2l-1,0.6l-1.1,0.8l-1,2.4l-0.6,2.2l-0.2,2.2l0.2,2l0.2,1.8l0.6,1.6l0.6,1.2l0.6,1
		l0.2,0.4h-0.2l-0.2-0.2l-0.8-0.8l-1-1.4l-1.1-1.6l-1.2-2.2l-0.4-1l-0.4-1.2l-0.2-1.4l-0.2-1.2l-1,0.8l-0.8,0.8l-1.1,2.2l-0.6,2.4
		l-0.2,2l0.2,2l0.2,1.8l0.6,1.4l0.6,1.4l0.6,1v0.2v0.2v-0.2h-0.2l-0.8-0.8l-0.8-1.2l-1.1-1.6l-1-2l-1-2.2l-0.4-2.4l-1,1l-0.8,0.8
		l-0.8,2.4l-0.2,2v2l0.2,1.8l0.2,1.4l0.6,1.4l0.4,1l0.6,0.8l0.2,0.4h-0.2l-0.2-0.2l-0.6-0.6l-0.8-1l-1-1.4l-1-1.8l-0.6-2l-0.6-2.2
		v-0.4v-0.4l-0.2-0.6v-0.4v-3.4l0.2-3.6l0.2-4l0.2-4.2l0.6-4.4l0.8-4.4l1-4.6l1.2-4.7l1.7-4.2l1.9-4.2l2.3-4l2.5-3.8l1.3-1.8
		l1.4-1.6l1.7-1.6l1.7-1.6l1.7-1.4l1.7-1.4l1.6-1.2l1.9-1l3.8-2l3.9-1.8l3.8-1.2l4-1.2l3.7-0.8l3.8-0.6l3.6-0.4l3.5-0.4l3.3-0.4
		l3.5-0.2l4-0.2h4.2h9l9.6,0.6l10,1l10.2,1.2l10,1.6l9.8,2l7.3,1.4l7.1,1.6l6.5,1.6l6,1.4l5.4,1.4l4.6,1.2l3.9,1l2.9,0.8l-1.7,2.6
		l-1.2,2.4l-1.2,2.4l-0.8,2.2l-1.3,3.2l-0.2,1.2l0.4-0.6l1.7-1.8l2.5-2.2l3.1-2.6l3.5-2.8l3.6-2.4l1.7-1.2l1.6-1l1.5-0.6l1.5-0.6
		l2.7-1.2l2.9-1.2l1.2-0.2h1.2l0.6,0.4l0.6,0.2l0.4,0.6l0.4,0.6l0.8,1.6l0.4,1.8l0.2,1.6v1.4v2.4v0.8l0.4-0.8l1-2l0.6-1.6l0.6-1.8
		l0.2-2.2l0.2-2.4v-0.8l-0.2-0.8l-0.4-0.6l-0.2-0.8l-1-1.2l-1.2-1.2l-1.5-1l-1.7-0.8l-1.7-0.6h-1.5h-1.6h-1.5l-1.2,0.2l-1.3,0.4
		l-2.3,0.6l-1.9,0.8l-1.5,0.6l-1.3,1l-1.4,1l-1.3,1l-2.3,2.6l-2.1,3l-2.9-1.4l-3.5-1.8l-4.4-2.2l-5-2.4l-5.6-2.4l-6.2-2.8l-6.7-2.8
		l-7.1-2.8l-4.8-1.8l-4.8-1.8l-5-1.6l-5.2-1.6l-5-1.4L296,55l-5.2-1.2l-5.2-1.2l-5.2-1l-5-0.8l-5-0.6l-5-0.4l-4.6-0.4h-4.6l-4.4,0.2
		l-4.2,0.4l-4,0.4l-4.4,0.8l-4.6,1l-4.8,1.4l-2.5,1l-2.3,0.8l-2.5,1.2l-2.5,1.2l-2.3,1.2l-2.5,1.6L213,62l-2.5,1.8l-2.9,2.6
		l-2.9,2.6l-2.5,2.9l-2.5,3l-2.1,3.2l-1.9,3.4l-1.6,3.4l-1.2,3.6h-4.4h-5l-5.4,0.4l-6,0.6l-6.5,0.8l-6.7,1.4l-7.1,1.6l-7.5,2
		l-5.8,1.8l-6,2l-5.8,2.4l-6.1,2.6l-5.6,2.8l-5.8,3l-5.4,3.2l-5.4,3.4l-5.2,3.5l-4.8,3.6l-4.8,3.6l-4.4,3.6l-4,3.6l-4,3.6l-3.3,3.6
		l-2.9,3.6l-3.1,3.4l-2.9,3.8l-3.1,4.2l-2.9,4.6l-3.1,4.7l-2.7,5l-2.9,5.1l-2.5,5.5l-2.5,5.5l-2.5,5.7l-2.1,5.8l-2.1,5.7l-1.7,5.9
		l-1.6,5.9l-1.2,5.9l-1.1,5.7l-1,5.5l-0.6,5.5l-0.6,5.3l-0.2,5.2l-0.4,9.5v8.1l0.2,6.9l0.2,4.9l0.4,3.4v1l0.2-1l0.2-3.4l0.6-4.9
		l1-6.7l1.2-7.9l1.9-9.1l1.2-4.9l1.2-5l1.7-5.1l1.7-5.3l1.9-5.4l2.1-5.3l2.1-5.3l2.5-5.3l2.5-5.1l2.9-5.2l2.7-4.9l2.9-5l2.9-4.7
		L61.3,178.2z M61.3,178.2"/>
	<path class="st0" d="M431.3,114.5l-0.6,0.4l-0.6,0.4l-0.6,0.4l-0.8,0.8l-0.2,0.2l11.9,6.3l-1-2.6l-1.1-2l-1-1.6l-1-1l-1-0.8
		l-1.1-0.6l-1-0.2h-0.8L431.3,114.5z M431.3,114.5"/>
	<path class="st0" d="M474.2,131.9l-7.3-5.3l-7.3-4.7l-6.5-4l-0.4-1.8l-1.1-2.2l-1.2-2l-1.2-2l-1.7-2l-1.9-1.8l-1.9-1.8l-2.3-1.6
		l-2.1-1.4l-2.3-1.2l-2.5-1.2l-2.3-1l-2.3-0.8l-2.5-0.8l-2.3-0.6l-3.3-0.8l-3.3-0.8l-3.1-0.4l-2.7-0.4v-1.8l-0.2-1.6l-0.6-1.4
		l-0.6-1.2l-0.8-0.8l-1-0.8l-1-0.2l-1.2-0.2h-1l-1.2,0.4l-1.3,0.4l-1,0.8l-1,1l-0.8,1.2l-0.6,1.4l-0.6,1.6l10.2,2.4l3.1,1l3.3,1.2
		l3.8,1.4l3.7,1.6l4.2,2.2l3.7,2.4l1.9,1.2l1.9,1.4l1.7,1.4l1.5,1.6l1.5,1.4l1,1.6l1.1,1.6l0.8,1.4l0.8,1.6l0.4,1.4l0.4,1.4l0.2,0.8
		l0.2,0.2v0.2v0.2l0.2,0.2l-0.4-0.6l0.4,0.6l2.1,2.8l3.1,1.6l3.6,2l3.7,2l4.2,2.2l4.4,2.2l4.2,2.2l4.2,2.2l4.2,2.4l1,0.6l1.2,0.8
		l0.8,1.4l0.8,1.4l0.4,1.4l0.2,1.4v1.4v1.2l-0.2,1.4l-0.2,1.2l-0.2,1.4l0.2,1v0.4l0.4,0.2l0.2,0.2h0.4h0.8l1.1-0.8l1.2-1.2l1.2-1.8
		l1-1.4l0.4-1.2l0.2-1.2v-1v-0.2l-0.2-1.2l-0.6-1l-0.6-1l-0.6-0.8l-1.5-1.6l-1.5-1.6l-1.6-1.4l-1.9-1.6L474.2,131.9z M474.2,131.9"
		/>
	<path class="st0" d="M345.2,127.9l-1.7,2.2l-1,2.2l-0.6,1.2l-0.4,1.2l-0.4,1.2l-0.4,1.4l-0.2,2.9v3l0.4,3.2l0.8,3l0.6,1.4l0.6,1.4
		l0.6,1.4l0.8,1.2l3.1,4.2l2.7,3.4l1.9,2l0.8,0.8l-0.4-1l-1.1-2.6l-1.5-3.8l-1.2-4.6l-0.6-2.6l-0.2-2.6v-2.4l0.4-2.2l0.4-2.2l0.6-2
		l0.6-1.6l0.9-1.6l0.6-1.6l0.9-1.8l1.2-1.8l1.5-2l3.3-4l3.8-3.8l3.7-3.6l2.9-2.6l2.3-2l0.8-0.6l-0.8,0.4l-2.9,0.8l-4,1.8l-5,2.2
		l-2.5,1.4l-2.5,1.6l-2.5,1.6l-2.3,1.8l-2.3,1.8L345.2,127.9z M345.2,127.9"/>
	<path class="st4" d="M78.4,394.6v2.1l-0.4,1.7l-0.2,0.7l-0.4,0.7l-0.4,0.5l-0.4,0.4l-0.5,0.5l-0.5,0.3l-0.7,0.2l-0.7,0.4l-2,0.2
		l-2.1,0.2h-1.4v-22.6h1.4h2.1l2,0.3l0.7,0.2l0.7,0.3l0.5,0.3l0.5,0.3l0.4,0.5l0.4,0.5l0.4,0.7l0.2,0.7l0.4,1.9v2.1V394.6
		L78.4,394.6z M96.4,370.4l-1.8-1.6l-2-1.2l-2.1-1l-2.5-0.9l-2.7-0.7l-3-0.5l-3.4-0.2l-3.6-0.2H41.6v13.5h0.7l0.7,0.4l0.5,0.7
		l0.4,0.7l0.4,1l0.2,1.2l0.2,1.4v1.5v35.1v1.7l-0.2,1.4l-0.2,1.2l-0.4,1l-0.4,0.7l-0.5,0.5l-0.7,0.4l-0.7,0.2V440h31.2v-13.3
		l-1.1-0.2l-0.9-0.4l-0.7-0.5l-0.5-0.7l-0.4-1l-0.3-1.2l-0.2-1.4v-1.7v-3.1l2.1,0.9l2.5,0.5l2.7,0.4l2.3,0.2l3.4-0.2l3-0.4l2.7-0.5
		l2.5-0.9l2.1-1l2-1.2l1.8-1.4l1.6-1.6l1.2-1.9l1.1-1.9l0.9-2.2l0.7-2.2l0.5-2.4l0.3-2.6l0.2-2.7l0.2-2.9l-0.2-3.8l-0.2-3.5
		l-0.5-3.1l-0.7-2.8l-0.9-2.6l-1.1-2.2l-1.3-2.1L96.4,370.4L96.4,370.4z M96.4,370.4"/>
	<path class="st4" d="M137,419.7l-0.2,2.5l-0.2,2l-0.2,1.4l-0.5,1.1l-0.5,0.7l-0.9,0.5l-0.9,0.4l-1.1,0.2l-1.1-0.2l-0.9-0.4
		l-0.7-0.5l-0.5-0.7l-0.5-1.1l-0.4-1.4l-0.2-2v-2.5v-20.2v-2.5l0.2-2l0.4-1.6l0.5-0.9l0.5-0.7l0.7-0.5l0.9-0.4l1.1-0.2l1.1,0.2
		l0.9,0.4l0.9,0.5l0.5,0.7l0.5,0.9l0.2,1.6l0.2,2l0.2,2.5V419.7L137,419.7z M152.9,382l-1.8-1.1l-1.8-1.1l-2.2-0.9l-2.5-0.5
		l-2.5-0.5l-2.9-0.4l-3.3-0.2h-3.4H129l-3.1,0.2l-2.9,0.4l-2.5,0.5L118,379l-2,0.9l-2,1.1l-1.6,1.1l-1.6,1.4l-1.3,1.6l-0.9,1.8
		l-0.9,2.1l-0.7,2.1l-0.4,2.7l-0.4,2.7v3.2v20.2v3.2l0.4,2.7l0.4,2.7l0.7,2.1l0.9,2.1l0.9,1.8l1.3,1.6l1.6,1.2l1.6,1.2l2,1.1l2,0.7
		l2.5,0.7l2.5,0.3l2.9,0.4l3.1,0.2l3.4,0.2l3.4-0.2l3.3-0.2l2.9-0.4l2.5-0.3l2.5-0.7l2.2-0.7l1.8-1.1l1.8-1.2l1.4-1.4l1.3-1.6
		l0.9-1.8l0.9-1.9l0.5-2.3l0.6-2.5l0.2-2.8l0.2-3v-20.2l-0.2-3.2l-0.2-2.7L158,391l-0.5-2.1l-0.9-2.1l-0.9-1.8l-1.3-1.6L152.9,382
		L152.9,382z M152.9,382"/>
	<path class="st4" d="M217,419.1l0.2,2.8l0.2,2.8l0.5,2.5l0.7,2.3l0.7,1.9l1.1,1.8l1.3,1.6l1.4,1.4l1.6,1.1l1.8,1.1l2.1,0.9l2.3,0.7
		l2.5,0.5l2.7,0.4l3,0.2h3.4h3.9l3.8-0.4l3.4-0.5l2.8-0.9l2.9-0.9l2.7-1.2l2.5-1.6l2.3-1.6v-19.1h-19.5v7.1v1.4l-0.2,1.2l-0.3,1.1
		l-0.5,0.9l-0.5,0.5l-0.7,0.4l-1.1,0.3h-0.9H242l-0.9-0.3l-0.7-0.5l-0.7-0.7l-0.4-1.1l-0.4-1.4l-0.2-2.1l-0.2-2.5v-20.2l0.2-2.7
		l0.2-2l0.4-1.6l0.4-1.1l0.7-0.7l0.7-0.5l0.9-0.3h1.1h0.9l0.9,0.3l0.7,0.4l0.7,0.5l0.5,0.9l0.3,0.9l0.2,1.4v1.4v5.8h19.5v-17.5
		l-2.7-1.7l-2.7-1.4l-2.8-1.4l-2.7-1.1l-3.1-0.7l-3.2-0.7l-3.6-0.4h-3.6h-3.2l-3,0.2l-2.7,0.5l-2.5,0.5l-2.3,0.7l-2.1,0.9l-1.8,1.1
		l-1.6,1.2l-1.4,1.2l-1.2,1.6l-1.1,1.9l-0.9,2l-0.7,2.3l-0.5,2.3l-0.2,2.7l-0.2,2.8V419.1z M217,419.1"/>
	<path class="st4" d="M295.2,389.6l0.3-0.2l0.5-0.2l0.5-0.2v-10.8h-26.4v11.3h0.7l0.5,0.4l0.5,0.4l0.3,0.7l0.4,0.7l0.2,0.9l0.2,1.2
		v1.2v28v1.2l-0.2,1.2l-0.2,1.1l-0.4,0.7L272,428l-0.5,0.4l-0.5,0.4h-0.7v11.3h26.4v-10.8l-0.7-0.2l-0.5-0.2l-0.3-0.4l-0.2-0.5
		l-0.4-1.4l-0.2-1.8l0.2-0.9l0.2-0.7l0.7-1.1l1.2-1.6l7-8.9v11.7v1.6l-0.2,1.2v1.1l-0.3,0.7l-0.2,0.5l-0.4,0.4l-0.5,0.2l-0.7,0.2
		v10.8h26.4v-11.3H327l-0.5-0.4l-0.5-0.4l-0.4-0.7l-0.3-0.7l-0.2-1.1l-0.2-1.2v-1.2v-28v-1.2l0.2-1.2l0.2-0.9l0.3-0.7l0.4-0.7
		l0.5-0.4l0.5-0.4h0.7v-11.3h-26.4v10.8l0.7,0.2h0.5l0.4,0.4l0.2,0.2l0.3,1.1l0.2,1.4l-0.2,1.4l-0.2,1l-0.7,1.3l-1.2,1.4l-7,8.1
		v-11.9v-1.2l0.2-1.1l0.2-0.7l0.2-0.5L295.2,389.6z M295.2,389.6"/>
	<path class="st5" d="M213.6,288.9c-100.9,0-185.1,31.2-205.3,72.9c34.7-27.7,107.6-46.7,192-46.7c118,0,213.6,37.3,213.6,83.2
		c0,5.1-1.2,10-3.4,14.9c8.5-10,13.1-20.8,13.1-32.1C423.5,330.2,329.5,288.9,213.6,288.9L213.6,288.9z M213.6,288.9"/>
	<path class="st4" d="M167.1,435.4l1.4,1.4l1.6,1.1l1.8,1.1l2.1,0.9l2.3,0.7l2.5,0.5l2.7,0.4l3,0.2h3.4h3.9l3.8-0.4l3.4-0.5l2.8-0.9
		l2.9-0.9l2.7-1.2l2.5-1.6l2.3-1.6v-19.1h-19.5v7.1v1.4l-0.2,1.2l-0.3,1.1l-0.5,0.9l-0.6,0.5l-0.7,0.4l-1.1,0.3h-0.9h-1.1l-0.9-0.3
		l-0.7-0.5l-0.7-0.7l-0.4-1.1l-0.4-1.4l-0.2-2.1l-0.2-2.5v-20.2l0.2-2.7l0.2-2l0.4-1.6l0.4-1.1l0.7-0.7l0.7-0.5l0.9-0.3h1.1h0.9
		l0.9,0.3l0.7,0.4l0.7,0.5l0.5,0.9l0.3,0.9l0.2,1.4v1.4v5.8h19.5v-17.5l-2.7-1.7l-2.7-1.4l-2.8-1.4l-2.7-1.1l-3.1-0.7l-3.2-0.7
		l-3.6-0.4H188h-3.2l-3,0.2l-2.7,0.5l-2.5,0.5l-2.3,0.7l-2.1,0.9l-1.8,1.1l-1.6,1.2l-1.4,1.2l-1.2,1.6l-1.1,1.9l-0.9,1.9l-0.7,2.3
		l-0.5,2.3l-0.2,2.7l-0.2,2.8v20.4l0.2,2.8l0.2,2.8l0.5,2.5l0.7,2.3l0.7,1.9l1.1,1.8L167.1,435.4z M167.1,435.4"/>
	<path class="st6" d="M385.7,378.4v12c-1.4,0.5-2.1,1.2-2.3,2c-0.2,0.9-0.2,1.9-0.2,3c0,0.2,0,0.4,0,0.6c0,0.2,0,0.4,0,0.5v25.7
		c0,1.7,0.1,3.1,0.3,4.3c0.2,1.2,0.9,2.2,2.2,3v10.9h-25.9v-10.8c0.8-0.2,1.4-0.7,1.8-1.5c0.3-0.8,0.5-1.7,0.6-2.6
		c0.1-0.4,0.1-0.8,0.1-1.1c0-0.4,0-0.7,0-1.1V416c-0.2,0-0.4,0.1-0.7,0.1c-0.2,0-0.5,0.1-0.7,0.1c-1.4,0.3-2.6,0.8-3.7,1.5
		c-1.1,0.7-1.7,2-1.7,3.9v5.8c0,0.8,0,1.8,0,3c0,1.3-0.1,2.5-0.1,3.8c-0.1,1.2-0.2,2.3-0.4,3.4c-0.2,1.1-0.4,2-0.7,2.7h-22.8v-10.8
		c1.1-0.5,1.8-1.3,2.1-2.2c0.2-1,0.4-2,0.4-3c0,0,0-0.1,0-0.2c0-0.1,0-0.2,0-0.3v-4.5c0-2.3,0.5-4.3,1.5-6.1c1-1.8,3.4-3,7.1-3.6
		c-2.8-0.9-5.1-2.3-7-4.2c-1.9-2-2.9-5.5-2.9-10.6c0-4.9,1.3-8.5,3.8-10.8c2.6-2.3,5.4-3.8,8.5-4.6c1.9-0.5,3.8-0.8,5.5-0.9
		c1.7-0.1,3.2-0.2,4.4-0.3H385.7L385.7,378.4L385.7,378.4z M362.2,391.5c-2.8,0-4.7,0.3-5.8,1c-1.1,0.7-1.8,2.4-2.2,5.2
		c-0.2,2.5,0.2,4.1,1.3,4.9c1.1,0.8,2.3,1.2,3.6,1.3c0.4,0,0.8,0.1,1.2,0.1s0.8,0,1.1,0c0.1,0,0.2,0,0.4,0c0.1,0,0.2,0,0.4-0.1
		V391.5L362.2,391.5L362.2,391.5z"/>
</g>
</svg>
