<?xml version="1.0" encoding="utf-8"?>
<!-- Generator: Adobe Illustrator 19.1.0, SVG Export Plug-In . SVG Version: 6.00 Build 0)  -->
<svg version="1.1" id="Layer_1" xmlns="http://www.w3.org/2000/svg" xmlns:xlink="http://www.w3.org/1999/xlink" x="0px" y="0px"
	 viewBox="0 0 160 160" style="enable-background:new 0 0 160 160;" xml:space="preserve">
<style type="text/css">
	.st0{clip-path:url(#SVGID_3_);}
	.st1{clip-path:url(#SVGID_4_);fill:#FFFFFF;}
	.st2{clip-path:url(#SVGID_4_);fill:#508BBE;}
	.st3{clip-path:url(#SVGID_4_);fill:#E21D38;}
	.st4{clip-path:url(#SVGID_4_);fill:#085EAA;}
	.st5{clip-path:url(#SVGID_4_);fill:#B06227;}
	.st6{clip-path:url(#SVGID_4_);fill:#0EA94E;}
</style>
<g>
	<g>
		<defs>
			<rect id="SVGID_1_" x="14.2" y="8.5" width="132.8" height="143.3"/>
		</defs>
		<defs>
			<path id="SVGID_2_" d="M14.2,8.5h132.6v143.3H14.2V8.5L14.2,8.5z M14.2,8.5"/>
		</defs>
		<clipPath id="SVGID_3_">
			<use xlink:href="#SVGID_1_"  style="overflow:visible;"/>
		</clipPath>
		<clipPath id="SVGID_4_" class="st0">
			<use xlink:href="#SVGID_2_"  style="overflow:visible;"/>
		</clipPath>
		<path class="st1" d="M58.2,103.2l0.9,0.7c1.2,0.9,5.2,2.2,8.1,3.1c2.6,0.8,5,1.6,6.8,2.4c2.4,1.1,4.5,3.3,6,5.2
			c1.5-1.9,3.6-4.1,6-5.2c1.7-0.8,4.2-1.6,6.8-2.4c2.9-0.9,6.9-2.2,8.1-3.1l0.9-0.7c2.7-2.1,7.1-5.4,7.1-11.7c0-0.3,0-0.5,0-0.8
			c-0.3-5.6-1.2-9.3-1.9-12.3c-0.4-1.7-0.8-3.2-0.9-4.7c-0.1-0.8-0.3-1.8-0.5-3c-0.5-2.4-1-5.1-1-7.7c0-2.2,0.4-4.3,1.5-6.1
			c1-1.5,2.4-3.7,3.8-5.3c-1.7-1.9-4.1-4.5-6-6.5c-0.4,0.3-0.9,0.6-1.3,0.8l-0.2,0.1c-1.3,0.6-4.3,1.9-7.4,1.4
			c-1.1-0.2-2.5-0.6-3.9-1c-1.9-0.5-4-1.2-5.5-1.2c-2.9-0.1-4.9-0.1-5-0.1h-1c0,0-2.1,0-5,0.1C73,45.4,70.9,46,69,46.5
			c-1.4,0.4-2.8,0.8-3.9,1c-3.1,0.5-6.1-0.8-7.4-1.4L57.4,46c-0.4-0.2-0.9-0.5-1.3-0.8c-1.9,2.1-4.2,4.7-6,6.5
			c1.4,1.7,2.8,3.8,3.8,5.3c1.1,1.7,1.5,3.9,1.5,6.1c0,2.6-0.5,5.3-1,7.7c-0.2,1.1-0.4,2.2-0.5,3c-0.2,1.5-0.5,2.9-0.9,4.7
			c-0.7,3-1.6,6.7-1.9,12.3c0,0.3,0,0.5,0,0.8C51.1,97.8,55.5,101.2,58.2,103.2"/>
		<path class="st2" d="M135,96.7c9.5-1.6,11.8-11.8,11.8-11.8c-4.5-0.6-8.1,2-10.2,4.9c0.7-2.5,1.2-5,1.5-7.6
			c0.2,0.2,0.5,0.3,0.8,0.1c8.6-4.4,7.6-14.9,7.6-14.9c-4.2,0.8-6.7,4-8,7.2c0-1.9-0.2-3.7-0.4-5.5c0.3,0.2,0.6,0.2,0.9-0.1
			c6.6-7.1,2.1-16.6,2.1-16.6c-3,1.8-4.5,4.7-4.9,7.6c-0.6-1.9-1.2-3.7-2-5.5c0.3,0.1,0.6,0,0.8-0.3c5.4-8-0.4-16.7-0.4-16.7
			c-3.6,2.9-4.1,7.2-3.5,10.8c-0.9-1.5-1.8-3-2.9-4.4l0,0c-1.3-8.6-10.3-11.7-10.3-11.7c-1.9,8,6.6,13.9,9.5,13.8
			c0.6,0.9,1.2,1.8,1.7,2.7c-3.3-2.8-7.1-3.6-7.1-3.6c-1.1,8.6,9.2,13.5,11.4,12.6c0.9,2.3,1.5,4.7,2.1,7.1
			c-3.1-4.8-8.4-6.6-8.4-6.6c-1.9,7.9,6.4,13.6,9.4,13.8c0.1,1.2,0.1,2.5,0.1,3.7c0,0.8,0,1.5,0,2.3c-2.2-5.7-7.9-8.5-7.9-8.5
			c-2.8,7.3,4,13.9,7.2,14.8c-0.5,3-1.3,6-2.3,8.9c-0.4-6.2-5.2-10.6-5.2-10.6c-4.7,6.2,0,14.4,2.8,16.2c-1.2,2.5-2.7,5-4.3,7.3
			c2.7-7.1-1.9-13.9-1.9-13.9c-6.7,5.4-2.8,16-0.5,17c-0.1,0.1-0.2,0.3-0.4,0.4c-1.7,2-3.6,4-5.6,5.7c3.3-6.4,0.1-13.4,0.1-13.4
			c-7,4-5.6,13.9-3.7,16.3c-2.7,2-5.6,3.8-8.7,5.3c4.8-5.2,3.7-12.8,3.7-12.8c-7.9,1.9-9.3,11.9-8,14.7c-1.8,0.7-3.7,1.3-5.6,1.9
			c4.8-4.6,4.7-11.5,4.7-11.5c-7.5,0.8-10.4,9.2-10.1,12.7c-0.9,0.1-1.8,0.3-2.7,0.4l-0.9,0.1l0.2,1.2l-3.2,1.1l6.2,6.2l4-2.2
			c-2.3-1.6-5-3.5-6.2-4.5l0.2,0c1.5-0.2,3.1-0.4,4.6-0.8c0,0,0,0,0,0c-0.1,0.2-0.1,0.5,0.1,0.8c6.4,7.2,16.3,3.7,16.3,3.7
			c-2-4.4-6.5-6-10.3-6.1c1.6-0.5,3.2-1.1,4.8-1.8c-0.1,0.3,0,0.6,0.4,0.8c8.4,4.8,16.6-1.6,16.6-1.6c-2.7-2.9-6.2-3.5-9.4-3
			c1.7-1,3.3-2.1,4.8-3.3c0.1,0.2,0.2,0.4,0.5,0.5c9.4,2.4,15.5-6.1,15.5-6.1c-3-1.8-6.2-1.7-9-0.7c0.7-0.7,1.4-1.5,2-2.3
			c0.5-0.6,1-1.2,1.5-1.8c0,0,0,0,0.1,0c9.6,1.2,14.7-8,14.7-8c-3.7-1.6-7.4-0.7-10.2,1.1c1-1.8,1.9-3.7,2.7-5.6
			C134.4,96.7,134.6,96.8,135,96.7 M73.7,129l-0.9-0.1c-0.9-0.1-1.8-0.2-2.6-0.4c0.3-3.5-2.6-12-10.1-12.7c0,0-0.1,6.9,4.7,11.5
			c-1.9-0.5-3.8-1.1-5.6-1.9c1.2-2.8-0.1-12.8-8-14.7c0,0-1.1,7.5,3.7,12.8c-3.1-1.5-6-3.3-8.7-5.3c1.9-2.4,3.3-12.3-3.7-16.3
			c0,0-3.2,7,0.1,13.4c-2-1.8-3.9-3.7-5.6-5.7c-0.1-0.1-0.2-0.3-0.4-0.4c2.3-1,6.2-11.5-0.5-17c0,0-4.5,6.8-1.9,13.9
			c-1.6-2.3-3.1-4.7-4.3-7.3c2.8-1.8,7.5-10,2.8-16.2c0,0-4.8,4.3-5.2,10.6c-1-2.9-1.8-5.9-2.3-8.9c3.2-1,10-7.5,7.2-14.8
			c0,0-5.7,2.8-7.9,8.5c0-0.8,0-1.5,0-2.3c0-1.2,0-2.5,0.1-3.7c3-0.2,11.3-5.9,9.5-13.8c0,0-5.4,1.8-8.4,6.6
			c0.5-2.4,1.2-4.8,2.1-7.1c2.3,1,12.5-4,11.4-12.6c0,0-3.8,0.8-7.1,3.6c0.5-0.9,1.1-1.8,1.7-2.7c2.9,0,11.5-5.8,9.5-13.8
			c0,0-9,3.1-10.3,11.7l0,0c-1,1.4-2,2.9-2.9,4.4c0.6-3.6,0.1-7.9-3.5-10.8c0,0-5.9,8.7-0.4,16.7c0.2,0.3,0.5,0.4,0.8,0.3
			c-0.8,1.8-1.4,3.7-2,5.5c-0.5-2.9-1.9-5.8-4.9-7.6c0,0-4.5,9.5,2.1,16.6c0.3,0.3,0.6,0.3,0.9,0.1c-0.2,1.8-0.3,3.7-0.4,5.5
			c-1.3-3.2-3.8-6.4-8-7.2c0,0-1,10.4,7.6,14.9c0.3,0.2,0.6,0.1,0.8-0.1c0.3,2.6,0.8,5.1,1.5,7.6c-2.2-2.9-5.7-5.4-10.2-4.9
			c0,0,2.3,10.2,11.8,11.8c0.3,0.1,0.6,0,0.7-0.3c0.8,1.9,1.7,3.8,2.7,5.6c-2.8-1.8-6.5-2.7-10.2-1.1c0,0,5.1,9.2,14.7,8
			c0,0,0.1,0,0.1,0c0.5,0.6,1,1.2,1.5,1.8c0.7,0.8,1.3,1.5,2,2.3c-2.8-1-6-1.1-9,0.7c0,0,6.2,8.5,15.5,6.1c0.3-0.1,0.5-0.2,0.5-0.5
			c1.6,1.2,3.2,2.3,4.8,3.3c-3.2-0.4-6.7,0.2-9.4,3c0,0,8.3,6.4,16.6,1.6c0.3-0.2,0.4-0.4,0.4-0.8c1.6,0.7,3.1,1.3,4.8,1.8
			c-3.8,0.1-8.2,1.7-10.3,6.1c0,0,9.9,3.5,16.3-3.7c0.2-0.3,0.3-0.5,0.1-0.8c0,0,0,0,0,0c1.5,0.3,3,0.6,4.6,0.8l0.2,0
			c-1.3,1-3.9,3-6.2,4.5l4,2.2l6.2-6.2l-3.2-1.1L73.7,129"/>
		<path class="st3" d="M74,14.5l0.1,0l-0.3-0.6c0-0.1-2.5-1.6-2.5-1.6c-0.1,0-0.4,0-0.7,0v1.2l2.7,1.2C73.5,14.7,74,14.5,74,14.5
			 M46.5,139.3c-0.5,1.1-1.1,1.8-1.9,2.1c-0.7,0.3-1.5,0.3-2.2-0.1c-0.7-0.4-1.2-0.9-1.5-1.7c-0.2-0.8-0.1-1.7,0.4-2.7
			c0.5-1.1,1.1-1.8,1.9-2.1c0.7-0.3,1.5-0.3,2.3,0.1c0.8,0.4,1.3,0.9,1.5,1.7C47.1,137.4,47,138.3,46.5,139.3 M48.4,140.3
			c0.7-1.5,0.9-2.9,0.4-4.1c-0.4-1.2-1.3-2.2-2.7-2.8c-0.8-0.4-1.5-0.6-2.2-0.6c-0.5,0-1.1,0.1-1.6,0.3c-0.5,0.2-1,0.5-1.5,0.9
			c-0.6,0.5-1.1,1.2-1.6,2.2c-0.7,1.5-0.8,2.8-0.4,4.1c0.4,1.2,1.3,2.2,2.7,2.8c1.4,0.7,2.7,0.7,3.9,0.3
			C46.7,142.8,47.7,141.8,48.4,140.3 M146.7,123.7l-7.3-7.2l-1.4,1.4l4.9,4.8L135,121l-1.4,1.4l7.3,7.2l1.4-1.4l-4.8-4.7l7.7,1.7
			L146.7,123.7 M136.1,130.4c-0.1,0.8-0.4,1.4-1.1,2c-0.7,0.5-1.4,0.7-2.2,0.5c-0.8-0.1-1.5-0.7-2.3-1.6c-0.7-0.9-1.1-1.8-1-2.6
			c0.1-0.8,0.4-1.4,1.1-2c0.7-0.5,1.4-0.7,2.2-0.6c0.8,0.1,1.5,0.7,2.2,1.6C135.8,128.7,136.2,129.6,136.1,130.4 M133.3,124.2
			c-1.3-0.2-2.5,0.2-3.8,1.1c-0.7,0.5-1.2,1.1-1.5,1.7c-0.3,0.5-0.4,1-0.5,1.6c-0.1,0.6,0,1.1,0.1,1.7c0.2,0.8,0.6,1.5,1.2,2.4
			c1,1.3,2.1,2,3.4,2.2c1.3,0.2,2.5-0.2,3.8-1.1c1.2-0.9,1.9-2,2-3.3c0.1-1.3-0.3-2.6-1.3-3.9C135.8,125.2,134.6,124.4,133.3,124.2
			 M47,59.6c-1.7,4.1-2.6,8.6-2.6,13.4c0,2.2,0.2,4.3,0.6,6.4l1.4-0.5c-0.3-1.9-0.5-3.9-0.5-5.9c0-4.4,0.9-8.7,2.4-12.6L47,59.6
			 M26.6,128.4l-2.1-1.8l3.5-2L26.6,128.4 M28.7,122.1l-9.7,5.2l1.7,1.5l2.2-1.2l3.1,2.7l-0.9,2.3l1.7,1.5l3.6-10.5L28.7,122.1
			 M38.9,129.6l-5.4,4.9l2.3-6.9l-2.6-1.7l-5.6,8.6l1.6,1.1l4.4-6.8l-2.7,7.9l1.7,1.1l6.1-5.7l-4.4,6.8l1.6,1.1l5.6-8.6L38.9,129.6
			 M21,124.9c0.5-0.4,0.8-0.9,0.9-1.4c0.1-0.5,0.1-1,0-1.5c-0.1-0.5-0.5-1.3-1-2.2c-0.5-0.9-0.8-1.5-0.8-1.9c0-0.3,0.1-0.5,0.3-0.7
			c0.2-0.2,0.4-0.2,0.7-0.2c0.4,0.1,0.8,0.4,1.2,0.8c0.4,0.4,0.6,0.8,0.6,1.2c0,0.4-0.1,0.8-0.5,1.2l1.4,1.5c0.7-0.7,1-1.4,1-2.3
			c0-0.9-0.5-1.8-1.3-2.7c-0.5-0.6-1.1-1-1.6-1.3c-0.6-0.3-1.1-0.3-1.6-0.3c-0.5,0.1-1,0.3-1.4,0.7c-0.6,0.5-0.9,1.2-0.9,2.1
			c0,0.6,0.3,1.4,0.8,2.4c0.4,0.8,0.7,1.3,0.8,1.5c0.1,0.3,0.2,0.6,0.2,0.9c0,0.2-0.1,0.4-0.3,0.6c-0.3,0.3-0.6,0.3-1.1,0.3
			c-0.4-0.1-0.9-0.3-1.3-0.8c-0.4-0.5-0.6-0.9-0.7-1.4c0-0.5,0.2-1,0.6-1.5l-1.5-1.4c-0.8,0.9-1.1,1.8-1.1,2.7
			c0,0.9,0.5,1.9,1.3,2.8c0.6,0.7,1.2,1.1,1.8,1.4c0.6,0.3,1.2,0.4,1.8,0.3C20,125.6,20.6,125.3,21,124.9 M95.8,148.3
			c-0.2,0.2-0.4,0.4-0.7,0.5c-0.2,0.1-0.7,0.2-1.4,0.3l-1.9,0.2l-0.4-2.7l1.7-0.2c0.9-0.1,1.6-0.2,1.9-0.1c0.3,0.1,0.5,0.2,0.7,0.4
			c0.2,0.2,0.3,0.4,0.3,0.7C96,147.7,95.9,148,95.8,148.3 M90.8,142.5l1.2-0.2c1-0.1,1.6-0.2,1.8-0.2c0.3,0,0.6,0.1,0.8,0.3
			c0.2,0.2,0.3,0.4,0.4,0.7c0,0.3,0,0.6-0.2,0.8c-0.2,0.2-0.4,0.4-0.8,0.5c-0.2,0-0.7,0.1-1.5,0.2l-1.4,0.2L90.8,142.5 M97.4,145.7
			c-0.4-0.4-0.9-0.6-1.6-0.7c0.4-0.3,0.7-0.6,0.9-1c0.2-0.4,0.3-0.9,0.2-1.4c-0.1-0.4-0.2-0.8-0.5-1.1c-0.3-0.3-0.6-0.6-0.9-0.7
			c-0.3-0.2-0.7-0.3-1.1-0.3c-0.4,0-1,0-1.8,0.1l-4.1,0.5l1.4,10.2l3.5-0.5c1.3-0.2,2.1-0.3,2.5-0.4c0.5-0.1,1-0.4,1.3-0.7
			c0.3-0.3,0.6-0.7,0.7-1.2c0.2-0.5,0.2-0.9,0.1-1.4C98,146.6,97.8,146.1,97.4,145.7 M121.6,130.9l3.2,6.1l-7-4l-1.8,1l4.9,9
			l1.7-0.9l-3.2-5.9l6.9,3.9l1.8-1l-4.8-9L121.6,130.9 M103.3,138.5L102,143l-3.3-3.4l-2.4,0.6l5.1,4.9l1,4.2l2-0.5l-1-4.2l2.3-6.7
			L103.3,138.5 M75.6,146.8c-0.1,0.8-0.1,1.4-0.2,1.7c-0.1,0.3-0.3,0.6-0.6,0.8c-0.3,0.2-0.8,0.3-1.4,0.2c-0.6,0-1-0.2-1.3-0.5
			c-0.3-0.3-0.5-0.6-0.6-1.1c0-0.3,0-0.8,0.1-1.7l0.5-5.5l-2.1-0.2l-0.5,5.5c-0.1,1.1-0.1,2,0,2.6c0.1,0.4,0.2,0.8,0.5,1.2
			c0.3,0.4,0.6,0.7,1.1,1c0.5,0.3,1.2,0.4,2.2,0.5c0.8,0.1,1.5,0,2-0.1c0.5-0.2,0.9-0.4,1.3-0.7c0.3-0.3,0.6-0.7,0.7-1.2
			c0.2-0.5,0.3-1.4,0.4-2.6l0.5-5.4l-2.1-0.2L75.6,146.8 M66.9,143.1c-0.1,0.3-0.2,0.5-0.4,0.7c-0.2,0.2-0.4,0.3-0.7,0.3
			c-0.3,0-0.9,0-1.9-0.2l-1.5-0.3l0.5-2.6l1.6,0.3c0.8,0.2,1.3,0.3,1.5,0.3c0.3,0.1,0.6,0.3,0.7,0.5
			C66.9,142.5,66.9,142.8,66.9,143.1 M67.9,140.6c-0.5-0.3-1.2-0.5-2.3-0.7l-4.3-0.8l-1.9,10.1l2,0.4l0.8-4.2l0.4,0.1
			c0.5,0.1,0.8,0.2,1,0.3c0.2,0.1,0.4,0.3,0.5,0.5c0.2,0.2,0.4,0.8,0.8,1.7l1,2.5l2.4,0.5l-0.9-2.2c-0.3-0.9-0.6-1.5-0.8-1.9
			c-0.2-0.4-0.5-0.7-0.9-1.1c0.9,0,1.6-0.1,2.2-0.5c0.5-0.4,0.9-1,1-1.7c0.1-0.6,0.1-1.2-0.1-1.7C68.7,141.2,68.3,140.8,67.9,140.6
			 M51.2,142.3l2.5-3.2l0.1,4.1L51.2,142.3 M53.4,136.6l-7.1,8.4l2.1,0.7l1.6-1.9l3.9,1.3l0.1,2.5l2.1,0.7l-0.6-11L53.4,136.6
			 M123.8,129.6l5.5,8.6l1.8-1.1l-5.5-8.6L123.8,129.6 M83.8,146l0,1.7l2.4-0.1l0,1.3c-0.3,0.3-0.7,0.5-1.1,0.6
			c-0.4,0.2-0.9,0.3-1.3,0.3c-0.9,0-1.6-0.3-2.2-0.9s-0.9-1.5-0.9-2.7c0-1.1,0.2-2,0.7-2.6c0.5-0.6,1.2-0.9,2.2-0.9
			c0.6,0,1.1,0.1,1.5,0.4c0.4,0.3,0.7,0.7,0.9,1.2l2.1-0.4c-0.2-0.9-0.7-1.7-1.4-2.2c-0.7-0.5-1.7-0.8-3-0.7c-1,0-1.8,0.2-2.5,0.6
			c-0.9,0.5-1.5,1.1-1.9,2c-0.4,0.8-0.6,1.8-0.6,2.9c0,1,0.2,1.9,0.7,2.7c0.4,0.8,1,1.5,1.9,1.9c0.8,0.4,1.8,0.6,2.8,0.6
			c0.8,0,1.7-0.2,2.5-0.5c0.8-0.3,1.4-0.7,1.9-1.2l-0.1-4.1L83.8,146 M74,118.7c0-0.3-0.2-1.4-0.2-1.6C52.2,113.7,36,94.7,36,72.9
			C36,53,49.2,35.6,68.2,30v-1.6C48.2,34,34.4,52.1,34.4,72.9C34.4,95.8,51.4,115.4,74,118.7 M84.9,24.2l-0.1,0V25
			c0,0.1,4.6,4.7,4.6,4.7l0,0l0.1,0l0.8-0.1v-1.5c-0.6-0.5-4.7-3.8-4.7-3.8C85.4,24.3,84.9,24.2,84.9,24.2 M90.1,25.9v-1.2l-2.7-1.2
			c-0.1,0-0.6,0.2-0.6,0.2l-0.1,0l0.3,0.6c0,0.1,2.5,1.6,2.5,1.6C89.5,26,89.9,26,90.1,25.9 M65.1,41.2c0.7-0.2,1.4-0.4,2.2-0.6
			c0.7-0.2,1.5-0.4,2.2-0.6c3.5-1.2,7.2-1.8,11.1-1.8c5,0,9.8,1.1,14.1,3c0.4,0.1,0.8,0.2,1.2,0.3c0.1,0,0.1,0,0.2,0l0.4-1
			c-4.8-2.4-10.2-3.7-15.9-3.7c-5.7,0-11.1,1.3-15.9,3.7L65.1,41.2 M86.4,29.7h1.2l-0.1-0.8c0-0.1-2-2.2-2-2.2
			c-0.1,0-0.6-0.2-0.6-0.2l-0.1,0l-0.1,0.7C84.7,27.3,86.1,29.4,86.4,29.7 M76,26.6c0,0-0.5,0.1-0.6,0.2c0,0-2,2.1-2,2.2l-0.1,0.8
			h1.2c0.3-0.4,1.7-2.4,1.7-2.5l-0.1-0.7L76,26.6 M125.4,72.9c0,22.6-16.9,41.7-39.3,44.4c0,0-0.1,0.1-0.1,0.1c0,0-0.2,1.1-0.2,1.5
			c23.5-2.5,41.3-22.2,41.3-45.9c0-20.9-14.5-39.6-34.8-44.8v1.6C111.8,35,125.4,52.5,125.4,72.9 M73.9,24.4l0.3-0.6l-0.1,0
			c0,0-0.5-0.2-0.6-0.2l-2.7,1.2v1.2c0.2,0,0.6,0.1,0.7,0C71.4,26,73.8,24.4,73.9,24.4 M70.7,29.7l0.8,0.1l0.1,0l0,0
			c0,0,4.5-4.6,4.6-4.7v-0.7l-0.1,0c0,0-0.5,0-0.6,0.1c0,0-4.1,3.3-4.7,3.8L70.7,29.7 M115.8,81.6c0.7-2.8,1.1-5.7,1.1-8.7
			c0-4.9-1-9.6-2.8-13.9l-1.3,0.7c1.7,4.1,2.6,8.5,2.6,13.2c0,2.8-0.4,5.5-1,8.2L115.8,81.6 M89.5,12.3c0,0-2.4,1.6-2.5,1.6
			l-0.3,0.6l0.1,0c0,0,0.5,0.2,0.6,0.2l2.7-1.2v-1.2C89.9,12.3,89.5,12.2,89.5,12.3 M76,14l0.1,0v-0.7c0-0.1-4.6-4.7-4.6-4.7l0,0
			l-0.1,0l-0.8,0.1v1.5c0.6,0.5,4.7,3.8,4.7,3.8C75.5,14,76,14,76,14 M77.4,35.3h5.8V22H90v-5.8h-6.9V8.5h-5.8v7.8h-6.9V22h6.9V35.3
			 M75.4,11.5c0.1,0,0.6,0.2,0.6,0.2l0.1,0l0.1-0.7c0-0.1-1.5-2.1-1.7-2.5h-1.2l0.1,0.8C73.4,9.4,75.4,11.5,75.4,11.5 M84.9,11.6
			c0,0,0.5-0.1,0.6-0.2c0,0,2-2.1,2-2.2l0.1-0.8h-1.2c-0.3,0.4-1.7,2.4-1.7,2.5l0.1,0.7L84.9,11.6 M117.4,139.2l-2-5l-1.9,0.8
			l2.1,5.3c0.3,0.8,0.5,1.3,0.6,1.7c0.1,0.3,0,0.7-0.2,1c-0.2,0.3-0.6,0.6-1.1,0.8c-0.5,0.2-1,0.3-1.4,0.1c-0.4-0.1-0.7-0.3-1-0.7
			c-0.1-0.2-0.4-0.7-0.7-1.6l-2-5.2l-1.9,0.8l2,5.1c0.4,1.1,0.8,1.9,1.1,2.4c0.2,0.3,0.6,0.6,1,0.8c0.4,0.2,0.9,0.4,1.4,0.4
			c0.6,0,1.3-0.1,2.2-0.5c0.8-0.3,1.3-0.6,1.7-1c0.4-0.4,0.7-0.8,0.8-1.2c0.2-0.4,0.2-0.9,0.1-1.4
			C118.2,141.2,117.9,140.3,117.4,139.2 M84.7,14l0.1,0c0,0,0.5,0,0.6-0.1c0,0,4.1-3.3,4.7-3.8V8.6l-0.8-0.1l-0.1,0l0,0
			c0,0-4.5,4.6-4.6,4.7L84.7,14"/>
		<path class="st4" d="M107.1,57.7c-1,1.5-1.3,3.4-1.3,5.4c0,2.5,0.5,5.1,1,7.5c0.2,1.2,0.4,2.3,0.5,3.1c0.1,1.4,0.5,2.8,0.9,4.5
			c0.7,3,1.6,6.8,2,12.5c0,0.3,0,0.6,0,0.9c0,6.8-4.7,10.4-7.6,12.6l-0.9,0.7c-1.3,1.1-5.1,2.3-8.5,3.3c-2.6,0.8-5,1.6-6.6,2.4
			c-2.8,1.3-5.2,4.2-6.6,6.2c-1.4-2-3.8-4.9-6.6-6.2c-1.7-0.8-4.1-1.5-6.6-2.4c-3.4-1.1-7.1-2.3-8.5-3.3l-0.9-0.7
			c-2.9-2.2-7.6-5.8-7.6-12.6c0-0.3,0-0.6,0-0.9c0.3-5.7,1.2-9.5,2-12.5c0.4-1.7,0.7-3.1,0.9-4.5c0.1-0.8,0.3-1.9,0.5-3.1
			c0.5-2.3,1-5,1-7.5c0-2-0.3-3.9-1.3-5.4c-0.5-0.8-2.7-4.1-4.4-6l7.5-8.2c0.6,0.6,1.3,1.1,1.9,1.4l0.2,0.1c1.2,0.5,4,1.8,6.8,1.3
			c1.1-0.2,2.4-0.5,3.8-0.9c2-0.6,4.2-1.2,5.8-1.3c2.9-0.1,5-0.1,5-0.1h1c0,0,2.1,0,5,0.1c1.6,0.1,3.9,0.7,5.8,1.3
			c1.4,0.4,2.7,0.8,3.8,0.9c2.7,0.4,5.6-0.8,6.8-1.3l0.2-0.1c0.6-0.3,1.3-0.8,1.9-1.4c1.5,1.6,6.1,6.7,7.5,8.2
			C109.9,53.6,107.7,56.9,107.1,57.7 M114.7,50.7L104,39l-1.1,1.3c-0.7,0.8-1.6,1.7-1.9,1.8l-0.2,0.1c-1,0.4-3.2,1.4-5.1,1.1
			c-0.9-0.1-2.1-0.5-3.5-0.9c-2.1-0.6-4.5-1.3-6.5-1.4c-3-0.1-5.1-0.1-5.2-0.1h-1c-0.1,0-2.2,0-5.2,0.1c-2,0.1-4.4,0.8-6.5,1.4
			c-1.3,0.4-2.6,0.7-3.5,0.9c-1.9,0.3-4.1-0.7-5.1-1.1L59,42.1c-0.3-0.1-1.2-1-1.9-1.8L56,39l-1.1,1.2L44.2,52c0,0,1.4,0.9,1.5,1
			c0.4,0.3,2.1,2.3,4.8,6.4c0.6,1,0.8,2.3,0.8,3.8c0,2.2-0.5,4.8-0.9,6.9c-0.2,1.2-0.5,2.4-0.6,3.3c-0.1,1.2-0.5,2.6-0.8,4.1
			c-0.7,3-1.7,7.1-2,13c0,0.4,0,0.7,0,1c0,8.3,5.9,12.8,8.8,15l0.8,0.6c1.8,1.4,5.5,2.6,9.4,3.9c2.5,0.8,4.8,1.5,6.3,2.2
			c3.4,1.6,6.5,6.9,6.5,7l1.3,2.3l1.3-2.3c0-0.1,3.1-5.4,6.5-7c1.5-0.7,3.8-1.4,6.3-2.2c3.9-1.2,7.7-2.4,9.4-3.8
			c0,0,0.8-0.6,0.8-0.6c2.9-2.2,8.8-6.7,8.8-15c0-0.3,0-0.7,0-1c-0.3-6-1.3-10.1-2-13c-0.4-1.6-0.7-2.9-0.8-4.1
			c-0.1-0.9-0.3-2.1-0.6-3.3c-0.4-2.1-0.9-4.7-0.9-6.9c0-1.5,0.2-2.8,0.8-3.8c2.7-4.1,4.4-6.1,4.8-6.4c0.1,0,1.4-0.9,1.4-0.9
			L114.7,50.7 M83.8,130.3c-1.1,0-2.1-0.6-2.1-1.3c0-0.7,1-1.4,2.1-1.4c1.1,0,2.1,0.6,2.1,1.4C85.9,129.7,84.9,130.3,83.8,130.3
			 M76.7,130.3c-1.1,0-2.1-0.6-2.1-1.3c0-0.7,1-1.4,2.1-1.4c1.1,0,2.1,0.6,2.1,1.4C78.8,129.7,77.8,130.3,76.7,130.3 M83.8,125.7
			c-1,0-1.9,0.3-2.6,0.7l-1,0.2l-1-0.2c-0.7-0.5-1.6-0.7-2.6-0.7c-2.3,0-4.1,1.4-4.1,3.2c0,1.8,1.8,3.2,4.1,3.2
			c0.7,0,1.3-0.1,1.8-0.3l-0.4,1.6l-2.8,3.5l3.1-1.6l1.1,2.2l0.7-1.7l0.7,1.7l1.1-2.2l3.1,1.6l-2.8-3.5l-0.4-1.6
			c0.5,0.2,1.2,0.3,1.8,0.3c2.3,0,4.1-1.4,4.1-3.2C87.8,127.2,86,125.7,83.8,125.7"/>
		<path class="st1" d="M107.1,57.7c-1,1.5-1.3,3.4-1.3,5.4c0,2.5,0.5,5.1,1,7.5c0.2,1.2,0.4,2.3,0.5,3.1c0.1,1.4,0.5,2.8,0.9,4.5
			c0.7,3,1.6,6.8,2,12.5c0,0.3,0,0.6,0,0.9c0,6.8-4.7,10.4-7.6,12.6l-0.9,0.7c-1.3,1.1-5.1,2.3-8.5,3.3c-2.6,0.8-5,1.6-6.6,2.4
			c-2.8,1.3-5.2,4.2-6.6,6.2c-1.4-2-3.8-4.9-6.6-6.2c-1.7-0.8-4.1-1.5-6.6-2.4c-3.4-1.1-7.1-2.3-8.5-3.3l-0.9-0.7
			c-2.9-2.2-7.6-5.8-7.6-12.6c0-0.3,0-0.6,0-0.9c0.3-5.7,1.2-9.5,2-12.5c0.4-1.7,0.7-3.1,0.9-4.5c0.1-0.8,0.3-1.9,0.5-3.1
			c0.5-2.3,1-5,1-7.5c0-2-0.3-3.9-1.3-5.4c-0.5-0.8-2.7-4.1-4.4-6l7.5-8.2c0.6,0.6,1.3,1.1,1.9,1.4l0.2,0.1c1.2,0.5,4,1.8,6.8,1.3
			c1.1-0.2,2.4-0.5,3.8-0.9c2-0.6,4.2-1.2,5.8-1.3c2.9-0.1,5-0.1,5-0.1h1c0,0,2.1,0,5,0.1c1.6,0.1,3.9,0.7,5.8,1.3
			c1.4,0.4,2.7,0.8,3.8,0.9c2.7,0.4,5.6-0.8,6.8-1.3l0.2-0.1c0.6-0.3,1.3-0.8,1.9-1.4c1.5,1.6,6.1,6.7,7.5,8.2
			C109.9,53.6,107.7,56.9,107.1,57.7"/>
		<path class="st4" d="M88,65.8H73c-7.7,5-16.7,1.1-16.7,1.1l-1.1-0.7c-0.2,1.6-0.5,3.1-0.8,4.5c-0.2,1.1-0.4,2.2-0.5,3
			c-0.2,1.5-0.5,2.9-0.9,4.7c-0.7,3-1.6,6.7-1.9,12.3c0,0.3,0,0.5,0,0.8c0,6.2,4.4,9.6,7.2,11.7l0.9,0.7c1.2,0.9,5.2,2.2,8.1,3.1
			c2.6,0.8,5,1.6,6.8,2.4c2.4,1.1,4.5,3.3,6,5.3c1.5-1.9,3.6-4.1,6-5.3c1.7-0.8,4.2-1.6,6.8-2.4c2.9-0.9,6.9-2.2,8.1-3.1l0.9-0.7
			c2.7-2.1,7.1-5.4,7.1-11.7c0-0.3,0-0.5,0-0.8c-0.3-5.6-1.2-9.3-1.9-12.3c-0.4-1.7-0.8-3.2-0.9-4.7c-0.1-0.8-0.3-1.8-0.5-3
			c-0.2-1.3-0.5-2.6-0.7-4l-0.2,0.1C104.7,67,95.7,70.9,88,65.8"/>
		<path class="st5" d="M79.6,55.7h1.7v9.1h-1.7V55.7L79.6,55.7z M79.6,55.7"/>
		<path class="st6" d="M82.8,54.9c0,0,1.3,0.1,1.3,0.5l0.4-0.5c0,0-0.1-0.7-0.5-1.1l-0.4-0.4c0,0,1.9,0,2.5,0.7l0.8-0.2
			c0,0-0.8-1.3-1.1-1.5l-0.3-0.2c0,0,2.8,0.6,3.1,1l0.2-0.4c0,0-1.7-1.4-2.4-1.5L85.6,51c0,0,2.4-0.8,3-0.5V50c0,0-2.7-0.4-3.7-0.1
			c0,0,0.2-1,1.3-1.4V48c0,0-3-0.1-4.6,1.4c0,0-0.1-2.4-0.7-2.7c-0.6-0.4-0.8,0-0.8,0s0.5,1.6,0.3,2.1c0,0-1.1-0.4-1.6-0.6
			c-0.5-0.2-1.1-0.4-1.1-0.4h-0.3l-0.2,0.2c0,0,0.8,0.7,1,1c0.2,0.2,0.8,1.3,0.8,1.3s-3-1.5-6.3,0.7l0.1,0.6c0,0,1-0.3,1.8-0.1
			c0.8,0.1,1,0.1,1,0.1s-2.7,1.3-3.2,2.7l0.5,0.3c0,0,1.2-1.3,2.7-1.6l1.5-0.3c0,0-3.5,2.1-3.5,2.9l0.6,0.3l1.3-1.1l-0.2,1.6
			l0.3,0.1c0,0,1.6-1.7,2-1.8c0.4-0.1,0.8-0.1,0.8-0.1s0,1.8,0.3,2.6c0.3,0.7,0.5-0.1,0.5-0.1s0.3-1,0.4-1.3c0.2-0.3,1.3-0.2,1.5,0
			c0.3,0.3,0.4-0.1,0.4-0.1v1.7l0.6,0.1C82.3,57.5,83,55.5,82.8,54.9 M70.6,63l-0.9-1.1L68.8,63c-0.2,0-0.9-0.5-0.9-0.5
			c-0.2,1,0.7,1.8,0.7,1.8h2.2c0,0,0.8-0.8,0.7-1.8C71.5,62.5,70.8,63,70.6,63 M74.8,59.9c0,0-0.7,0.5-0.9,0.5L73,59.3l-0.9,1.1
			c-0.2,0-0.9-0.5-0.9-0.5c-0.1,1,0.7,1.8,0.7,1.8h2.2C74.1,61.7,74.9,60.9,74.8,59.9 M77.1,63l-0.9-1.1L75.3,63
			c-0.2,0-0.9-0.5-0.9-0.5c-0.1,1,0.7,1.8,0.7,1.8h2.2c0,0,0.8-0.8,0.7-1.8C78,62.5,77.3,63,77.1,63 M84.5,57.3l-0.9,1.1
			c-0.2,0-0.9-0.5-0.9-0.5c-0.1,1,0.7,1.8,0.7,1.8h2.2c0,0,0.8-0.8,0.7-1.8c0,0-0.7,0.5-0.9,0.5L84.5,57.3 M77.1,58.4l-0.9-1.1
			l-0.9,1.1c-0.2,0-0.9-0.5-0.9-0.5c-0.1,1,0.7,1.8,0.7,1.8h2.2c0,0,0.8-0.8,0.7-1.8C78,57.9,77.3,58.4,77.1,58.4 M94.9,65.6
			L94,64.5l-0.9,1.1c-0.2,0-0.9-0.5-0.9-0.5c-0.1,1,0.7,1.8,0.7,1.8h2.2c0,0,0.8-0.8,0.7-1.8C95.8,65.1,95.1,65.6,94.9,65.6
			 M101.4,65.6l-0.9-1.1l-0.9,1.1c-0.2,0-0.9-0.5-0.9-0.5c-0.2,1,0.7,1.8,0.7,1.8h2.2c0,0,0.8-0.8,0.7-1.8
			C102.2,65.1,101.6,65.6,101.4,65.6 M92.8,62.5c0,0-0.7,0.5-0.9,0.5L91,61.9L90.1,63c-0.2,0-0.9-0.5-0.9-0.5
			c-0.1,1,0.7,1.8,0.7,1.8h2.2C92.1,64.2,92.9,63.4,92.8,62.5 M85.4,63l-0.9-1.1L83.6,63c-0.2,0-0.9-0.5-0.9-0.5
			c-0.1,1,0.7,1.8,0.7,1.8h2.2c0,0,0.8-0.8,0.7-1.8C86.3,62.5,85.6,63,85.4,63 M89.3,59.9c0,0-0.7,0.5-0.9,0.5l-0.9-1.1l-0.9,1.1
			c-0.2,0-0.9-0.5-0.9-0.5c-0.1,1,0.7,1.8,0.7,1.8h2.2C88.7,61.7,89.5,60.9,89.3,59.9 M99.2,62.5c0,0-0.7,0.5-0.9,0.5l-0.9-1.1
			L96.6,63c-0.2,0-0.9-0.5-0.9-0.5c-0.2,1,0.7,1.8,0.7,1.8h2.2C98.6,64.2,99.4,63.4,99.2,62.5 M92.1,59.6c0,0,0.8-0.8,0.7-1.8
			c0,0-0.7,0.5-0.9,0.5L91,57.3l-0.9,1.1c-0.2,0-0.9-0.5-0.9-0.5c-0.1,1,0.7,1.8,0.7,1.8H92.1 M92.9,61.7h2.2c0,0,0.8-0.8,0.7-1.8
			c0,0-0.7,0.5-0.9,0.5L94,59.3l-0.9,1.1c-0.2,0-0.9-0.5-0.9-0.5C92.1,60.9,92.9,61.7,92.9,61.7 M99.7,61.7h2.2c0,0,0.8-0.8,0.7-1.8
			c0,0-0.7,0.5-0.9,0.5l-0.9-1.1l-0.9,1.1c-0.2,0-0.9-0.5-0.9-0.5C98.8,60.9,99.7,61.7,99.7,61.7 M98.7,59.6c0,0,0.8-0.8,0.7-1.8
			c0,0-0.7,0.5-0.9,0.5l-0.9-1.1l-0.9,1.1c-0.2,0-0.9-0.5-0.9-0.5c-0.1,1,0.7,1.8,0.7,1.8H98.7 M70.8,59.6c0,0,0.8-0.8,0.7-1.8
			c0,0-0.7,0.5-0.9,0.5l-0.9-1.1l-0.9,1.1c-0.2,0-0.9-0.5-0.9-0.5c-0.1,1,0.7,1.8,0.7,1.8H70.8 M65.4,61.7h2.2c0,0,0.8-0.8,0.7-1.8
			c0,0-0.7,0.5-0.9,0.5l-0.9-1.1l-0.9,1.1c-0.2,0-0.9-0.5-0.9-0.5C64.6,60.9,65.4,61.7,65.4,61.7 M65,62.5c0,0-0.7,0.5-0.9,0.5
			l-0.9-1.1L62.4,63c-0.2,0-0.9-0.5-0.9-0.5c-0.1,1,0.7,1.8,0.7,1.8h2.2C64.4,64.2,65.2,63.4,65,62.5 M61,65.6l-0.9-1.1l-0.9,1.1
			c-0.2,0-0.9-0.5-0.9-0.5c-0.1,1,0.7,1.8,0.7,1.8h2.2c0,0,0.8-0.8,0.7-1.8C61.9,65.1,61.2,65.6,61,65.6 M60.9,61.7
			c0,0,0.8-0.8,0.7-1.8c0,0-0.7,0.5-0.9,0.5l-0.9-1.1l-0.9,1.1c-0.2,0-0.9-0.5-0.9-0.5c-0.1,1,0.7,1.8,0.7,1.8H60.9 M64.4,59.6
			c0,0,0.8-0.8,0.7-1.8c0,0-0.7,0.5-0.9,0.5l-0.9-1.1l-0.9,1.1c-0.2,0-0.9-0.5-0.9-0.5c-0.1,1,0.7,1.8,0.7,1.8H64.4 M67.4,65.6
			l-0.9-1.1l-0.9,1.1c-0.2,0-0.9-0.5-0.9-0.5c-0.1,1,0.7,1.8,0.7,1.8h2.2c0,0,0.8-0.8,0.7-1.8C68.3,65.1,67.6,65.6,67.4,65.6"/>
		<polyline class="st1" points="80.3,69.3 82.1,73.9 87,74.1 83.2,77.2 84.5,82 80.3,79.3 76.2,82 77.5,77.2 73.6,74.1 78.6,73.9 		
			"/>
		<polyline class="st1" points="96.3,75.2 98,79.8 103,80 99.1,83.1 100.4,87.9 96.3,85.2 92.2,87.9 93.4,83.1 89.6,80 94.5,79.8 		
			"/>
		<polyline class="st1" points="65.8,76.1 67.6,80.7 72.5,80.9 68.7,84 70,88.8 65.8,86.1 61.7,88.8 63,84 59.1,80.9 64.1,80.7 		
			"/>
		<polyline class="st1" points="80.3,98 81.8,101.8 85.8,102 82.7,104.5 83.7,108.5 80.3,106.3 76.9,108.5 78,104.5 74.8,102 
			78.9,101.8 		"/>
		<polyline class="st1" points="86.5,89.3 87,91.7 89.5,92.2 87.4,93.5 87.7,96 85.8,94.3 83.5,95.4 84.5,93.1 82.8,91.3 85.3,91.5 
					"/>
	</g>
</g>
</svg>
