<?xml version="1.0" encoding="utf-8"?>
<!-- Generator: Adobe Illustrator 19.1.0, SVG Export Plug-In . SVG Version: 6.00 Build 0)  -->
<svg version="1.1" id="Layer_1" xmlns="http://www.w3.org/2000/svg" xmlns:xlink="http://www.w3.org/1999/xlink" x="0px" y="0px"
	 viewBox="0 0 160 160" style="enable-background:new 0 0 160 160;" xml:space="preserve">
<style type="text/css">
	.st0{fill:#0B4C85;}
	.st1{fill-rule:evenodd;clip-rule:evenodd;fill:#0B4C85;}
</style>
<g>
	<path class="st0" d="M83.3,82.5c14.9-7.3,22.6-21.6,17.2-31.9c-5.4-10.4-21.8-12.9-36.7-5.7c-14.9,7.2-22.6,21.6-17.2,31.9
		C51.9,87.2,68.4,89.7,83.3,82.5"/>
	<path class="st0" d="M29.6,33.3c0,0,17.6-21.5,50.1-22.6c0,0-6.3,14.4-1.5,24.8c0,0-14.9,2.4-28.7,12.6
		C49.6,48.1,43.2,35.6,29.6,33.3"/>
	<path class="st0" d="M82.8,34.7c0,0-0.1-5.6,10.9-11.5c0,0-3-10-6.3-12.3c2.5-0.4,23.4,3.6,28.7,20.5c0,0,6.1-9.5,3.1-16.2
		c0,0,18.8,9.3,9,31.8C128.2,47,115.8,29.8,82.8,34.7"/>
	<path class="st0" d="M129.8,49.1c0,0,12.3-10,12.6-20.4c0,0,7.5,8.4-1,31.8c0,0,9.7-7.8,10.4-8.7c0,0,9.4,24.3-28.2,42.8
		C123.7,94.5,143.1,69.3,129.8,49.1"/>
	<path class="st0" d="M93.8,118.2c0,0,8.9,5.4,22.1,0.6c0,0,10-4,18.9,0.5c0,0-0.6-20.9,19.3-23.7c0,0-12.8-8.1-37.9,7.6
		C116.2,103.1,108.7,111.4,93.8,118.2"/>
	<path class="st0" d="M24.9,39c0,0-1.1,9.1,3.7,13.7c0,0,9-4.7,17.4-1.7c0,0-18.2,13.6-22.7,34.6C23.3,85.5,2.5,67.6,24.9,39"/>
	<path class="st0" d="M22.8,88.2c0,0-4.5,17.7,12,29.7c0,0-13.6,8-28.9-14c0,0,3.9,1.6,10.4,1c0,0-11.7-7.1-10-28.8
		C6.3,76,12.8,87.5,22.8,88.2"/>
	<path class="st0" d="M82.4,87.5c1.3-0.4,6.7-3.2,8.4-4.5c1.8,3.6,7.4,16.8,1.8,31.1c0,0-32.3,16.1-54.1,1.1
		C19.3,102.1,27.8,80,33.8,71.1c0,0,2.3,26.6,11.7,31.2c0,0,5.2-1.6,5.2-11.3c0,0,13,21.1,32.7,19.1C83.5,110,88.4,100.5,82.4,87.5"
		/>
	<path class="st0" d="M99.7,110.4c0,0,12.5-21.5,6.4-41.2c0,0,9.1,5.5,10.7,3.9c0,0,5.2-23.7-10-33.7c0,0,37.5,7.1,17.7,45.9
		C124.5,85.3,118.6,98.9,99.7,110.4"/>
	<path class="st0" d="M130.5,19.1c0-3.4,2.8-6,6.1-6c3.3,0,6,2.5,6,6c0,3.5-2.8,6-6,6C133.3,25.1,130.5,22.6,130.5,19.1 M136.6,24.1
		c2.7,0,4.8-2.1,4.8-5c0-2.8-2.1-5-4.8-5c-2.7,0-4.9,2.1-4.9,5C131.8,22,133.9,24.1,136.6,24.1L136.6,24.1z M135.4,22.6h-1v-6.9h2.6
		c1.6,0,2.4,0.6,2.4,2c0,1.2-0.8,1.8-1.8,1.9l2,3h-1.2l-1.8-3h-1.2L135.4,22.6L135.4,22.6z M136.6,18.7c0.9,0,1.7-0.1,1.7-1.1
		c0-0.9-0.8-1-1.5-1h-1.4v2.1L136.6,18.7"/>
	<path class="st1" d="M59,136.8c0-3-2-4.2-7.3-4.2c-4.7,0-7.3,0.9-8.9,3c-1.6,2.3-3,6.8-3,9.6c0,1.4,0.7,2.5,1.9,3.1
		c1.1,0.6,2.8,0.8,5.3,0.8c6.5,0,8.8-1.4,10.6-6.6C58.5,140.3,59,138.3,59,136.8 M50.8,136c1.1,0,1.7,0.5,1.7,1.5
		c0,0.8-0.6,3.4-1.5,5.5c-0.9,2.1-1.6,2.8-3,2.8c-1.1,0-1.7-0.5-1.7-1.4c0-1.1,0.5-3.1,1.5-5.6C48.6,136.7,49.3,136,50.8,136"/>
	<path class="st1" d="M91.4,147.7c-0.2,0.3-0.2,0.5-0.2,0.7c0,0.4,0.4,0.6,1.2,0.6h5.3l0.1-0.6c-0.6-0.1-0.9-0.3-0.9-0.7
		c0-0.2,0.1-0.4,0.2-0.7l1.1-1.9h5.2l0.1,2.6c0,1,0.2,1.2,1.6,1.2h5.6l0.2-0.6c-0.8-0.1-1.1-0.4-1.2-1.1l-0.8-13
		c0-0.8-0.1-0.9-0.2-1.1c-0.2-0.3-0.5-0.4-1.3-0.4h-8.1l-0.2,0.6c0.6,0,0.9,0.2,0.9,0.6c0,0.2-0.2,0.5-0.5,1 M99.8,142.4l3.3-5.9
		l0.2,5.9H99.8"/>
	<path class="st1" d="M133.1,147.7c-0.1,0.2-0.1,0.4-0.1,0.5c0,0.5,0.5,0.8,1.5,0.8h9.3c2,0,3-0.2,4.1-0.8c1.5-0.8,2.4-2.2,3.4-5.2
		c1-2.9,1.5-5.2,1.5-6.7c0-1.3-0.3-2-1-2.6c-0.7-0.6-1.5-0.8-3.8-0.8h-11.8l-0.2,0.6c0.7,0.1,1,0.3,1,0.8c0,0.1,0,0.3-0.1,0.7
		 M144.3,136.1c1.3,0,1.7,0.3,1.7,1.3c0,0.6-0.2,1.8-0.8,3.6c-0.7,2.5-1.3,3.7-1.9,4.3c-0.4,0.3-0.7,0.4-2.3,0.4h-0.9l2.7-9.5
		L144.3,136.1"/>
	<path class="st0" d="M12.5,145.5h-2.3c-1.7,0-2.2-0.2-2.2-1H7.2L6.5,147c-0.1,0.2-0.2,0.8-0.2,1c0,0.4,0.3,0.8,0.8,0.9
		c0.3,0.1,0.7,0.1,1.6,0.1h6c2.6,0,3.7-0.4,4.9-1.7c1-1,2-3.7,2-5.3c0-0.7-0.3-1.3-0.8-1.8c-0.4-0.3-1-0.6-2.2-1.1l-2-0.7
		c-1-0.4-1.2-0.6-1.2-1.1c0-0.6,0.3-1,0.8-1.3c0.4-0.1,0.8-0.2,1.8-0.2h2.6c1.2,0,1.5-0.2,1.8-1.3l0.5-1.8h-7.6
		c-1.6,0-2.1,0.1-2.8,0.4c-1,0.4-1.9,1.4-2.4,2.7c-0.5,1.1-0.8,2.6-0.8,3.3c0,1.2,0.8,1.9,2.9,2.7l2,0.7c1.1,0.4,1.5,0.7,1.5,1.3
		c0,0.5-0.3,0.9-0.7,1.2C14.3,145.4,13.9,145.5,12.5,145.5"/>
	<path class="st0" d="M86.8,134.2c0.1-0.2,0.1-0.4,0.1-0.5c0-0.5-0.5-0.8-1.5-0.8h-5.9l-0.2,0.6c0.7,0.1,1,0.3,1,0.8
		c0,0.1,0,0.3-0.2,0.7l-3.7,12.8c-0.1,0.2-0.1,0.4-0.1,0.6c0,0.5,0.4,0.8,1.4,0.8H87c1.5,0,1.8-0.2,2.1-1.3l0.9-3.1h-0.8
		c-0.3,0.8-0.7,1-2.4,1h-3.3L86.8,134.2"/>
	<path class="st0" d="M113,147.7c-0.1,0.2-0.1,0.4-0.1,0.6c0,0.5,0.5,0.8,1.5,0.8h4.8l0.1-0.6c-0.6-0.1-0.9-0.3-0.9-0.7
		c0-0.1,0-0.3,0.2-0.7l1.8-6.1l3.3,7.2c0.4,0.9,0.5,1,1.8,1h3.9l4.2-14.8c0.1-0.2,0.1-0.4,0.1-0.6c0-0.5-0.5-0.8-1.5-0.8h-4.8
		l-0.2,0.6c0.7,0.1,1,0.3,1,0.8c0,0.1,0,0.3-0.2,0.7l-1.4,5.1l-3-6.5c-0.2-0.6-0.4-0.6-1.6-0.6h-6l-0.2,0.6c0.7,0.1,1,0.3,1,0.8
		c0,0.1,0,0.3-0.2,0.7L113,147.7"/>
	<path class="st0" d="M37.2,136.1c1.3,0,1.6-0.2,1.9-1.3l0.5-1.9h-7.8c-4.6,0-6.1,1.6-7.9,8.4c-0.5,2-0.8,3.3-0.8,4.3
		c0,1.4,0.5,2.4,1.6,2.9c1,0.5,2.2,0.7,5.8,0.7c4.3,0,5-0.1,5.7-0.6c0.3-0.2,0.6-0.7,0.8-1.4l0.7-2.6H37c-0.3,0.8-0.8,1-2.4,1h-2
		c-0.9,0-1.2,0-1.5-0.1c-0.7-0.1-1.1-0.7-1.1-1.4c0-0.5,0.2-1.2,0.5-2.5c0.5-1.7,1-3.3,1.3-4c0.5-1.2,1.1-1.5,2.5-1.5H37.2"/>
	<path class="st0" d="M62.3,147.7c-0.1,0.2-0.1,0.4-0.1,0.5c0,0.5,0.5,0.8,1.5,0.8h5.9l0.2-0.6c-0.6-0.1-0.9-0.3-0.9-0.7
		c0-0.1,0-0.3,0.1-0.7l3.1-10.9h2.9c1.3,0,1.5-0.1,1.8-1.4l0.5-1.8H63.9c-1.5,0-1.7,0.1-2.1,1.5l-0.7,2.5h0.8
		c0.3-0.7,0.6-0.8,1.8-0.8l1.9,0L62.3,147.7"/>
</g>
</svg>
