<?xml version="1.0" encoding="utf-8"?>
<!-- Generator: Adobe Illustrator 19.1.0, SVG Export Plug-In . SVG Version: 6.00 Build 0)  -->
<svg version="1.1" id="Layer_1" xmlns="http://www.w3.org/2000/svg" xmlns:xlink="http://www.w3.org/1999/xlink" x="0px" y="0px"
	 viewBox="0 0 160 160" style="enable-background:new 0 0 160 160;" xml:space="preserve">
<style type="text/css">
	.st0{fill:#010101;}
	.st1{stroke:#000000;}
	.st2{clip-path:url(#SVGID_2_);fill:#E8B663;}
	.st3{fill:#F9EE21;}
	.st4{fill:#FFFFFF;}
	.st5{fill:#010101;stroke:#010101;}
	.st6{fill:#E8B663;}
	.st7{clip-path:url(#SVGID_4_);fill:#FFFFFF;}
	.st8{clip-path:url(#SVGID_4_);fill:#F9EE21;}
	.st9{clip-path:url(#SVGID_6_);fill:#FFFFFF;}
	.st10{clip-path:url(#SVGID_6_);fill:#E8B663;}
</style>
<path class="st0" d="M75.5,50.2c0,0-2,2.7-6.7,3.6c-3,0.6-4.1-0.1-4.1-0.1s4.5-1.7,7.4-5.7c3.6-5,3.1-10,3.1-10s-2.6-0.2-4.8,1.2
	c0,0,0.4-7.8-2.4-11.3c0,0-2.2,0.4-5.2,2.5c0,0-0.7-3.5-2.9-5.7c0,0-1.7,0.8-3.5,3.1c0,0-2.4-4.5-5.3-7.3v0l0,0
	c-2.9,2.8-5.3,7.3-5.3,7.3c-1.8-2.2-3.5-3.1-3.5-3.1c-2.2,2.2-2.9,5.7-2.9,5.7c-2.9-2.1-5.2-2.5-5.2-2.5c-2.8,3.6-2.4,11.3-2.4,11.3
	c-2.1-1.4-4.8-1.2-4.8-1.2s-0.5,5,3.1,10c2.9,4,7.4,5.7,7.4,5.7s-1.1,0.7-4.1,0.1c-4.7-0.9-6.7-3.6-6.7-3.6s-1.3,4.5,3,9
	c4.4,4.4,10.8,5.5,13.2,5.5c2.4,0,5.2-0.2,5.2-0.2s0,2,0.7,3.1c0.7,1.1,2.2,2.7,2.2,2.7l0-1.2v1.2c0,0,1.5-1.6,2.2-2.7
	c0.7-1.1,0.7-3.1,0.7-3.1s2.8,0.2,5.2,0.2c2.4,0,8.9-1.1,13.2-5.5C76.9,54.7,75.5,50.2,75.5,50.2z"/>
<path class="st1" d="M2.2,141.1c0,0,4.4,0.3,8-0.9c9.3-3.2,25.2-16.8,33.5-18.9c0,0,13.8-3.2,19-5c5.2-1.7,22.8-12.8,22.8-12.8
	s5.1,0.8,7.2,0.8c2.1,0,20.3-9.7,22.1-10.7c1.7-1,6.5-3,6.5-3S116,97,114,98.6c-1.9,1.6-3,3-3.4,2.7c-0.5-0.3-1.9-1.5-1.9-1.5
	l-10.9,6c0,0,4.9,1.8,10.4,1.8c5.5,0,14.5-5.4,20.5-14.2c6-8.8,8.1-13.5,8.1-13.5h-10.1c0,0,3.2-3.9,6.5-9.4s5.5-11.6,5.5-11.6
	s3.4,0.3,5.3,0.3c1.9,0,9-1.3,10.7-2.8c1.7-1.5,2.7-3.3,1.6-3.6c-1.2-0.3-5.6-2.5-8.1-4.3c-2.5-1.9-5.2-4.5-5.8-4.6
	c-0.5-0.1-3.4,0-3.4,0s-4.3-6.1-8.2-7.8c-3.9-1.7-6.3-1.8-9.7-5.4c-3.9-4.2-8.7-4.5-8.7-4.5s4.3,5,5.7,8c1.4,2.9,7.9,6,8.8,7.4
	c0.9,1.5,1.2,2.5,1.2,2.5s-2-0.8-5.8-0.8c-3.8,0-6.8,0.6-6.8,0.6s1.7,3.8,4,6c2.3,2.2,7.1,3.8,7.1,3.8s-7.9,14.3-31,24.4
	c-12.4,5.4-25.5,4.7-31,6.5c-5.5,1.9-8.5,6.2-8.5,6.2s-2.9-1.2-6.6-1.2c-3.7,0-4.6,1.3-9.1,1.3s-10.2-3.6-10.2-3.6s1.5,9.1,10,9.1
	c3.8,0,6-1.9,9.1-1.9s3.9,1,3.9,1s-1.7,4.4-1.7,7.6c0,3.2,0.1,4.1-0.6,5.1c-0.8,1-5.2,6.3-16.7,6.3c0,0-2.7,5.6-9.6,10.2
	s-9.8,4.3-10.8,5c-1,0.7-2,2.3-2,2.3l-3.3-0.1L2.2,141.1z"/>
<g>
	<defs>
		<path id="SVGID_1_" d="M9,133.1l-3.6,6c0,0,4.1,0.5,9.6-3c5.4-3.5,18.5-12.8,25.1-15.8s16.6-3.6,25.6-7.6s18.8-11.2,18.8-11.2
			s6.9,0.9,8,0.9s31.7-14.9,31.7-14.9s-2.1,6.4-8,11.1c-1.8,1.5-5.7,4.1-5.7,4.1l-1.9-1.4l-6.3,3.8c0,0,1.7,1.1,5.2,1.1
			c3.5,0,11.7-3,17.4-10.7c5.7-7.8,8.8-13.7,8.8-13.7l-12-0.3c0,0,5.2-4.6,9.6-12.1s6.5-12.2,6.5-12.2s-0.8-1.1-1.5-1.6
			c-0.6-0.5-0.9-1.7-0.9-1.7s2.1,2.5,3.2,3.1c1.1,0.6,3.7,1,7.6,0.6c3.9-0.3,7.2-1.9,7.2-1.9s-2-1.8-1.4-1.9c0.6-0.1,3.2,0,3.2,0
			s-2.2-1.2-4.6-2.6c-2.4-1.4-8.1-6.1-8.1-6.1l-4.3-0.4c0,0-4.9-6.1-9.3-8c-4.4-1.8-7.3-3.8-9.4-6.2c-1.5-1.7-3.8-2.6-3.8-2.6
			s3,3.7,4.3,5.9c1.1,1.9,7.3,5,8.6,6.4c1.3,1.4,2.2,5,2.2,5s-8.3-1.8-12.6-0.2c0,0,3.5,6.9,10.6,7.8c0,0-8.9,15-20.4,21.4
			C96.7,80.6,87.1,83.6,72,84.9c-9,0.8-14.6,7.5-14.6,7.5s-2.5-1.6-7.4-1.6c-4.9,0-6.1,1.4-9.4,1.4c-3.3,0-7.6-2.2-7.6-2.2
			s1.9,4.5,6.9,4.5s6.7-1.7,9.9-1.7c4.4,0,6.1,1.9,6.1,1.9s-2.7,3-2.7,7.6s-0.1,9-6.1,11.8c-6.1,2.8-12.2,2.1-12.2,2.1
			s-1.7,3.9-7.1,7.8c-5.4,3.9-9.7,6.3-10.7,6.3c-1,0-3.5,0.8-4.3,2.8L9,133.1z"/>
	</defs>
	<use xlink:href="#SVGID_1_"  style="overflow:visible;fill:#FFFFFF;"/>
	<clipPath id="SVGID_2_">
		<use xlink:href="#SVGID_1_"  style="overflow:visible;"/>
	</clipPath>
	<path class="st2" d="M153.7,54.9c0,0-0.3-0.6-4-0.6c-3.7,0-6.9,1.6-7.9,5.9c-1,4.2,12,0.2,12,0.2L153.7,54.9z"/>
	<path class="st2" d="M138.4,50.4c0,0-2.2,1.8-4,3.9c-1.7,2.1-4.2,8.5-7.9,13.2c-3.7,4.6-7.2,7.6-7.8,9.3c-0.6,1.7-1.5,4.8,3.3,4.8
		c4.8,0,12.1-0.7,12.1-0.7l-0.1,2.8l-13.4,17.7l-8.4,4.9c0,0-4.9,0.8-5.1,0.8s-5-0.5-5-0.5l-1.7-1.2l8-4.8l1.8,1.4
		c0,0,4.7-2.9,7-5.3c2.3-2.4,6.9-9.1,6.9-9.1s-4,0.7-7.6,0.7c-3.5,0-13.4-0.6-13.4-0.6L82,95.5L70.8,96l-3.8,4.8
		c0,0-3.4,6.2-5.1,9.3c-1.7,3-5.8,5.9-9.8,7.9c-4,2-14.8,4.9-14.8,4.9l-18,11.4l-9.5,5.4l-6.4,0.9l5.4-8l3.5,0c0,0,1.6-1.9,4.3-2.9
		c2.7-1,11.2-6,13.3-8c2.1-2,4.8-6.4,4.8-6.4s6.3,0.1,9.5-1.2c3.1-1.4,7.6-3.8,7.8-5.8c0.2-2,0.6-6.9,0.6-8c0.1-1.1,2.2-5.1,2.2-5.1
		s-4-1.5-5.2-1.5s-6.6,2-9.6,2c-3,0-3.4-0.8-3.4-0.8s3.7,0,5.5-1c1.8-1,3.5-3,4.6-3.3c1.1-0.3,7.1,0,7.1,0l3.1,0.9
		c0,0,5.3-4.9,8.7-6.1c3.4-1.1,15.3-2.4,17.2-2.4s16.6-5.6,17.7-6.1c1.1-0.4,15.2-8.5,18.9-12.8c3.8-4.4,8.3-10.6,8.3-10.6
		s-7.7-3.3-9.1-5.5c-1.4-2.2-1.7-3.7-1.7-3.7s6-0.4,9-0.2c2.9,0.1,4.2,0.9,4.2,0.9s-2.1-3.9-4.2-5.4c-2.2-1.5-4.8-2.9-6.5-5.2
		c-1.7-2.3-4.1-6.7-4.1-6.7s3.9,2,5.1,3c1.1,1,4.3,3.8,4.6,3.8c0.2,0,3.6,3.4,5,5c1.4,1.6,5.3,6.6,6.6,8.1
		C137.8,48.9,138.4,50.4,138.4,50.4z"/>
</g>
<path d="M122.9,46.8c0,0,5.7-0.1,7.3,0.7c0,0,0.7,1.2,1.2,1.8c0.5,0.6,1.5,1.5,1.5,1.5s-3.2,0.1-5.6-0.8
	C125,49.2,122.9,46.8,122.9,46.8z"/>
<path class="st3" d="M120.4,81.4c0,0-4.9,1.1-4.9-3.4c0-4.4,8.2-9.4,11.2-12.8c3-3.4,5.6-7,5.6-7s-1.9,4.7-6.6,10.2
	c-4.7,5.5-7.9,8.1-7.7,9.8C118.2,79.9,120.4,81.4,120.4,81.4z"/>
<path d="M133.6,44.1c0,0,2.3,3.3,3,4.5c0.7,1.2,1.2,2.5,1.2,2.5s3.6-0.1,4.3,0c0.7,0.1,3.7,2,6.3,2.2c0,0-4.9-2.1-6.4-4.2
	c-1.5-2.1-3.7-0.6-4.1-1c-0.4-0.4-1.1-1-2-2C135.1,45.1,133.6,44.1,133.6,44.1z"/>
<path d="M120.4,81.4c0,0-1.4-0.9-1.4-2.6c0-1.7,6.3-8.7,8.5-11.7c2.1-3.1,4.8-8.9,4.8-8.9s-3.5,6.2-7.2,10.1
	c-3.7,3.9-8.2,7.9-8.2,10C116.9,81.4,120.4,81.4,120.4,81.4z"/>
<path class="st3" d="M61.8,110.1c0,0,3.8-8.7,4-10.8s-0.7-5.6,4.1-5.8c4.9-0.2,16.5-0.6,23.8-4.6c7.3-4,8.9-5.2,8.9-5.2
	s1.8,0.5,4.2,1.4c2.4,0.9,7.2,2.6,8.8,2.6c6.1,0.3,8.4-0.2,8.4-0.2s-5.7,1.9-12.8,0.7c-7.1-1.3-8-1.9-8-1.9s-5.5,4.1-14,6.7
	c-8.5,2.6-17.3,2.5-19.3,2.5c-2.1,0-3.9,6.3-4.5,7.7C63.9,107.4,61.8,110.1,61.8,110.1z"/>
<path d="M61.8,110.1c0,0,3.8-7.2,4.6-9.6c0.8-2.3,1.3-5.3,4.8-5.5c3.5-0.2,14.5-0.6,21.6-3.6c7.1-2.9,10.7-6,10.7-6s7,2.7,13.4,3.1
	l-4.9,0.2l-4.6-0.3c0,0-5.5,4.6-15.5,6.8c-10,2.3-21.9,2.5-21.9,2.5s-3.4,5.2-4.7,7.2C64,107,61.8,110.1,61.8,110.1z"/>
<path class="st4" d="M51.2,32.7L51.2,32.7L51.2,32.7c-3.5,0-16.4,1.7-16.4,7.1s11.7,8.5,16.4,8.5l0,0v0c4.7,0,16.4-3,16.4-8.5
	S54.7,32.7,51.2,32.7z"/>
<g>
	<path class="st0" d="M52.9,137.8c0.1,0.2,0.3,0.4,0.5,0.5c0.2,0.1,0.4,0.2,0.7,0.3c0.3,0.1,0.6,0.1,0.9,0.1c0.2,0,0.4,0,0.6-0.1
		c0.2,0,0.4-0.1,0.6-0.2c0.2-0.1,0.3-0.2,0.5-0.3c0.1-0.1,0.2-0.3,0.2-0.5c0-0.2,0-0.3,0-0.4c-0.1-0.1-0.2-0.3-0.4-0.4
		c-0.2-0.1-0.5-0.3-0.8-0.4c-0.3-0.1-0.8-0.3-1.3-0.5c-0.7-0.3-1.2-0.6-1.6-1.1c-0.4-0.5-0.5-1.1-0.3-1.8c0.1-0.5,0.3-1,0.6-1.4
		c0.3-0.4,0.7-0.7,1.2-1c0.5-0.3,1-0.5,1.5-0.6c0.6-0.1,1.1-0.2,1.7-0.2c0.6,0,1.2,0.1,1.7,0.2c0.6,0.1,1.1,0.3,1.6,0.4
		c-0.2,0.3-0.4,0.6-0.6,1c-0.2,0.4-0.3,0.7-0.4,1h-0.7c0-0.4-0.2-0.8-0.5-1c-0.3-0.3-0.8-0.4-1.4-0.4c-0.2,0-0.4,0-0.6,0.1
		c-0.2,0-0.4,0.1-0.6,0.2c-0.2,0.1-0.3,0.2-0.5,0.3c-0.1,0.1-0.2,0.3-0.3,0.5c0,0.2,0,0.3,0.1,0.4c0.1,0.1,0.2,0.2,0.4,0.3
		c0.2,0.1,0.4,0.2,0.6,0.3c0.2,0.1,0.5,0.2,0.8,0.3l1.2,0.5c0.7,0.3,1.1,0.6,1.4,1.1c0.2,0.4,0.3,1,0.1,1.7
		c-0.1,0.6-0.3,1.1-0.7,1.5c-0.3,0.4-0.7,0.8-1.2,1c-0.5,0.3-1,0.5-1.6,0.6c-0.6,0.1-1.2,0.2-1.9,0.2c-0.4,0-0.7,0-1,0
		c-0.3,0-0.6-0.1-0.8-0.1c-0.3,0-0.5-0.1-0.8-0.2c-0.3-0.1-0.6-0.2-0.9-0.3c0.1-0.2,0.2-0.4,0.2-0.5c0.1-0.2,0.1-0.3,0.2-0.5
		c0.1-0.2,0.1-0.3,0.2-0.5c0.1-0.2,0.1-0.4,0.2-0.7h0.7C52.7,137.4,52.8,137.6,52.9,137.8z"/>
	<path class="st0" d="M72,134.2c-0.3,0.4-0.7,0.7-1.2,0.9c-0.5,0.2-1,0.4-1.6,0.5c-0.6,0.1-1.1,0.1-1.7,0.1c-0.4,0-0.7,0-1,0
		s-0.5,0-0.6,0c-0.1,0.3-0.1,0.6-0.2,1c-0.1,0.4-0.2,0.8-0.2,1.3c-0.1,0.4-0.1,0.8-0.2,1.2c-0.1,0.4-0.1,0.6-0.1,0.7
		c-0.3,0-0.6-0.1-0.9-0.1c-0.3,0-0.6,0-0.9,0c-0.4,0-0.7,0-1.1,0c-0.4,0-0.8,0.1-1.1,0.1c0.1-0.4,0.3-0.8,0.4-1.2
		c0.1-0.4,0.2-0.7,0.3-1.1c0.1-0.4,0.2-0.7,0.3-1.1c0.1-0.4,0.2-0.8,0.3-1.2c0.1-0.3,0.2-0.7,0.2-1.2c0.1-0.4,0.2-0.9,0.3-1.3
		c0.1-0.5,0.2-0.9,0.2-1.4c0.1-0.5,0.1-0.9,0.2-1.3c0.4,0,0.7,0.1,1.1,0.1c0.4,0,0.7,0,1.1,0c0.6,0,1.2,0,1.7-0.1
		c0.6,0,1.1-0.1,1.7-0.1c0.5,0,1,0,1.6,0.1c0.5,0.1,1,0.2,1.3,0.4c0.4,0.2,0.7,0.5,0.8,0.8c0.2,0.3,0.2,0.8,0.1,1.3
		C72.5,133.3,72.3,133.8,72,134.2z M68.9,132c-0.1-0.2-0.1-0.4-0.3-0.5c-0.1-0.1-0.3-0.2-0.5-0.2c-0.2,0-0.4-0.1-0.7-0.1
		c-0.1,0-0.2,0-0.3,0c-0.1,0-0.2,0-0.3,0c-0.1,0.3-0.1,0.7-0.2,0.9c-0.1,0.3-0.1,0.6-0.2,0.8l-0.2,0.8l-0.2,0.8c0.1,0,0.1,0,0.1,0
		c0,0,0.1,0,0.1,0h0.3c0.3,0,0.6,0,0.9-0.1c0.2-0.1,0.4-0.2,0.6-0.4c0.2-0.2,0.3-0.3,0.4-0.6c0.1-0.2,0.2-0.5,0.2-0.7
		C68.9,132.5,68.9,132.2,68.9,132z"/>
	<path class="st0" d="M82,136.6c0.2,0.4,0.4,0.7,0.6,1.1c0.2,0.4,0.4,0.7,0.6,1.1c0.2,0.4,0.4,0.7,0.6,1c-0.4,0-0.8-0.1-1.1-0.1
		c-0.4,0-0.8,0-1.1,0c-0.4,0-0.7,0-1.1,0c-0.3,0-0.7,0.1-1.1,0.1c-0.3-0.7-0.6-1.4-0.9-2.1c-0.3-0.7-0.6-1.4-1-2.1h0
		c-0.1,0.6-0.3,1.3-0.4,2c-0.1,0.8-0.3,1.5-0.4,2.2c-0.3,0-0.6-0.1-0.9-0.1c-0.3,0-0.6,0-1,0c-0.3,0-0.6,0-1,0
		c-0.3,0-0.7,0.1-1.1,0.1c0.2-0.5,0.3-1,0.5-1.7c0.2-0.6,0.3-1.3,0.5-1.9c0.1-0.3,0.1-0.7,0.2-1.1c0.1-0.5,0.2-0.9,0.3-1.5
		c0.1-0.5,0.2-1.1,0.3-1.7c0.1-0.6,0.2-1.2,0.3-1.8c0.4,0,0.8,0.1,1.1,0.1c0.4,0,0.7,0,1.1,0c0.5,0,1.1,0,1.6-0.1
		c0.5,0,1.1-0.1,1.6-0.1c0.5,0,1.1,0,1.6,0.1c0.5,0.1,1,0.2,1.4,0.4c0.4,0.2,0.7,0.5,0.9,0.8c0.2,0.3,0.3,0.8,0.1,1.4
		c-0.1,0.7-0.5,1.2-1.1,1.6c-0.6,0.4-1.3,0.6-2.1,0.8l0.3,0.5C81.6,135.9,81.8,136.3,82,136.6z M77.9,134.6c0,0,0.1,0,0.2,0h0.3
		c0.7,0,1.2-0.2,1.5-0.5c0.3-0.3,0.6-0.7,0.7-1.3c0.1-0.4,0.1-0.7,0-0.9c-0.1-0.2-0.2-0.4-0.4-0.5c-0.2-0.1-0.4-0.2-0.6-0.2
		c-0.2,0-0.4,0-0.6,0c-0.1,0-0.2,0-0.3,0c-0.1,0-0.2,0-0.3,0l-0.7,3.3C77.8,134.6,77.8,134.6,77.9,134.6z"/>
	<path class="st0" d="M89.3,137.7c-0.2,0.8-0.3,1.5-0.3,2.2c-0.3,0-0.6-0.1-1-0.1c-0.4,0-0.7,0-1.1,0c-0.4,0-0.7,0-1,0
		c-0.3,0-0.7,0.1-0.9,0.1c0.2-0.8,0.4-1.5,0.6-2.3c0.2-0.7,0.4-1.5,0.5-2.3c0-0.2,0.1-0.4,0.1-0.7c0.1-0.3,0.1-0.5,0.2-0.8
		c0.1-0.3,0.1-0.6,0.2-0.8c0.1-0.3,0.1-0.5,0.1-0.7c0.1-0.3,0.1-0.7,0.2-1.1c0.1-0.4,0.1-0.8,0.2-1.2c0.3,0,0.6,0.1,1,0.1
		c0.4,0,0.7,0,1,0c0.3,0,0.7,0,1.1,0c0.4,0,0.7-0.1,1-0.1c-0.2,0.7-0.4,1.3-0.5,1.9c-0.2,0.6-0.3,1.3-0.5,1.9l-0.3,1.4
		C89.7,136.1,89.5,136.9,89.3,137.7z"/>
	<path class="st0" d="M95,134.6c-0.2-0.2-0.4-0.4-0.6-0.6l-0.3,1.4c-0.1,0.3-0.1,0.6-0.2,0.9c-0.1,0.4-0.1,0.8-0.2,1.2
		c-0.1,0.4-0.1,0.8-0.2,1.2c-0.1,0.4-0.1,0.8-0.2,1.1c-0.1,0-0.3-0.1-0.4-0.1c-0.1,0-0.3,0-0.5,0c-0.2,0-0.4,0-0.6,0
		c-0.2,0-0.4,0.1-0.6,0.1c0.1-0.4,0.3-0.8,0.4-1.2c0.1-0.4,0.3-0.9,0.4-1.3c0.1-0.4,0.2-0.9,0.3-1.3c0.1-0.4,0.2-0.9,0.3-1.2
		c0.2-0.8,0.3-1.6,0.5-2.3c0.1-0.7,0.3-1.5,0.4-2.3c0.2,0,0.5,0.1,0.7,0.1c0.2,0,0.5,0,0.7,0c0.2,0,0.4,0,0.7,0
		c0.2,0,0.4-0.1,0.6-0.1c0.2,0.3,0.5,0.7,0.8,1c0.3,0.4,0.6,0.7,0.8,1c0.3,0.3,0.6,0.6,0.8,0.9c0.3,0.3,0.5,0.5,0.7,0.8
		c0.2,0.2,0.4,0.4,0.5,0.6c0.2,0.2,0.3,0.3,0.5,0.5c0.1,0.2,0.3,0.3,0.4,0.5c0.2,0.2,0.3,0.4,0.5,0.5c0.1-0.4,0.2-0.8,0.2-1.2
		c0.1-0.4,0.1-0.8,0.2-1.2c0.1-0.3,0.1-0.7,0.2-0.9c0.1-0.3,0.1-0.6,0.1-0.9c0-0.3,0.1-0.6,0.1-0.8c0-0.3,0.1-0.6,0.1-0.8
		c0.2,0,0.4,0.1,0.6,0.1c0.2,0,0.3,0,0.5,0c0.2,0,0.4,0,0.5,0c0.2,0,0.3-0.1,0.5-0.1c-0.1,0.3-0.2,0.7-0.3,1c-0.1,0.3-0.2,0.7-0.3,1
		c-0.2,0.9-0.5,1.9-0.7,2.8c-0.2,0.9-0.4,1.8-0.6,2.8c-0.1,0.4-0.1,0.7-0.2,1.1c-0.1,0.4-0.1,0.7-0.2,1.1c-0.2,0-0.4-0.1-0.6-0.1
		c-0.2,0-0.5,0-0.7,0c-0.3,0-0.5,0-0.7,0c-0.2,0-0.4,0.1-0.6,0.1c-0.3-0.4-0.6-0.7-0.8-1.1c-0.3-0.3-0.5-0.6-0.8-0.9
		c-0.3-0.3-0.5-0.6-0.8-0.9c-0.2-0.3-0.5-0.6-0.8-0.9l-0.7-0.9C95.4,135,95.2,134.8,95,134.6z"/>
	<path class="st0" d="M114.9,131.6c-0.4-0.3-1-0.4-1.7-0.4c-0.7,0-1.3,0.1-1.7,0.3c-0.5,0.2-0.9,0.5-1.2,0.9
		c-0.3,0.4-0.6,0.8-0.8,1.2c-0.2,0.5-0.4,0.9-0.5,1.4c-0.3,1.3-0.2,2.2,0.1,2.8c0.4,0.6,1.1,0.9,2.1,0.9c0.2,0,0.4,0,0.5,0
		c0.1,0,0.3-0.1,0.5-0.1c0.1-0.5,0.2-1.1,0.3-1.6c0.1-0.5,0.2-1.1,0.3-1.6c0.3,0,0.6,0.1,1,0.1c0.3,0,0.6,0,0.9,0c0.3,0,0.6,0,1,0
		c0.3,0,0.6,0,1-0.1c-0.2,0.6-0.3,1.1-0.4,1.6c-0.1,0.5-0.2,1-0.3,1.4c0,0.1-0.1,0.3-0.1,0.4c0,0.2,0,0.3-0.1,0.4
		c-0.3,0.1-0.7,0.1-1.1,0.2c-0.4,0.1-0.8,0.1-1.2,0.2c-0.4,0.1-0.8,0.1-1.3,0.1c-0.4,0-0.8,0-1.2,0c-0.9,0-1.8-0.1-2.6-0.3
		c-0.8-0.2-1.5-0.5-2-0.9c-0.5-0.4-0.9-0.9-1.2-1.6c-0.2-0.6-0.3-1.3-0.1-2.2c0.2-0.8,0.5-1.5,1-2.1c0.5-0.6,1.1-1.1,1.8-1.6
		c0.7-0.4,1.5-0.8,2.4-1c0.9-0.2,1.8-0.4,2.8-0.4c0.8,0,1.6,0.1,2.3,0.2c0.8,0.1,1.5,0.3,2.2,0.6c-0.3,0.4-0.5,0.7-0.7,1
		c-0.2,0.3-0.4,0.7-0.5,1h-0.6C115.6,132.3,115.3,131.8,114.9,131.6z"/>
	<path class="st0" d="M126.4,134.9c0.4,0.1,0.8,0.2,1.1,0.4c0.3,0.2,0.5,0.4,0.7,0.8c0.1,0.3,0.2,0.7,0.1,1.1
		c-0.1,0.5-0.3,0.9-0.7,1.2c-0.3,0.3-0.7,0.6-1.2,0.8c-0.5,0.2-1,0.4-1.5,0.5c-0.5,0.1-1.1,0.1-1.6,0.1c-0.5,0-1.1,0-1.8-0.1
		c-0.6,0-1.3-0.1-1.9-0.1c-0.3,0-0.6,0-0.9,0c-0.3,0-0.6,0.1-0.9,0.1c0.1-0.4,0.2-0.8,0.3-1.1c0.1-0.3,0.1-0.5,0.2-0.8
		c0.1-0.2,0.1-0.5,0.2-0.7c0.1-0.3,0.1-0.6,0.2-0.9l0.2-1.1l0.3-1.3l0.2-0.8c0-0.2,0.1-0.4,0.1-0.6c0-0.2,0.1-0.3,0.1-0.5l0.3-1.9
		c0.8,0.1,1.5,0.1,2.3,0.1c0.5,0,1,0,1.5-0.1c0.5,0,1-0.1,1.5-0.1c0.4,0,0.9,0,1.4,0.1c0.5,0.1,0.9,0.2,1.3,0.3
		c0.4,0.2,0.7,0.4,0.9,0.7c0.2,0.3,0.3,0.7,0.2,1.2c0,0.2-0.1,0.4-0.3,0.6c-0.1,0.2-0.3,0.5-0.7,0.7c-0.3,0.2-0.7,0.4-1.2,0.6
		c-0.5,0.2-1.1,0.3-1.9,0.3l0,0.1C125.5,134.7,126,134.8,126.4,134.9z M122.2,136.8l-0.2,1c-0.1,0.2-0.1,0.4-0.1,0.6
		c0,0.1-0.1,0.3-0.1,0.4c0.3,0,0.6,0,0.9,0c0.3,0,0.5-0.1,0.8-0.2c0.2-0.1,0.4-0.3,0.6-0.5c0.2-0.2,0.3-0.6,0.4-1
		c0.1-0.5,0.1-0.9-0.1-1.2c-0.2-0.3-0.6-0.4-1.1-0.4h-0.7L122.2,136.8z M124.6,133.9c0.3-0.3,0.5-0.6,0.6-1.1c0-0.2,0.1-0.4,0.1-0.6
		c0-0.2-0.1-0.4-0.2-0.5c-0.1-0.1-0.2-0.2-0.5-0.3c-0.2-0.1-0.5-0.1-0.8-0.1h-0.2c0,0-0.1,0-0.1,0c0,0-0.1,0-0.1,0
		c0,0.1-0.1,0.2-0.1,0.4c0,0.1-0.1,0.3-0.1,0.5L123,133l-0.3,1.3h0.6C123.8,134.3,124.3,134.1,124.6,133.9z"/>
	<path class="st0" d="M140.4,130.3c0.8,0.2,1.4,0.5,2,0.9c0.5,0.4,0.9,0.9,1.1,1.5c0.2,0.6,0.2,1.3,0.1,2.1c-0.2,0.9-0.5,1.6-1,2.2
		c-0.5,0.6-1.1,1.2-1.8,1.6c-0.7,0.4-1.5,0.7-2.4,0.9c-0.9,0.2-1.8,0.3-2.8,0.3c-0.9,0-1.7-0.1-2.5-0.3c-0.8-0.2-1.4-0.5-1.9-1
		c-0.5-0.4-0.9-0.9-1.1-1.6c-0.2-0.6-0.2-1.3-0.1-2.1c0.2-0.8,0.5-1.5,1-2.2c0.5-0.6,1.1-1.1,1.7-1.6c0.7-0.4,1.5-0.7,2.3-1
		c0.9-0.2,1.8-0.3,2.7-0.3C138.8,130,139.6,130.1,140.4,130.3z M137.1,138.7c0.3-0.1,0.6-0.3,0.8-0.5c0.2-0.2,0.5-0.4,0.6-0.7
		c0.2-0.3,0.3-0.6,0.5-0.8c0.1-0.3,0.2-0.6,0.3-0.9c0.1-0.3,0.2-0.6,0.2-0.8c0.1-0.4,0.1-0.8,0.2-1.3c0-0.5,0-0.9-0.1-1.3
		c-0.1-0.4-0.3-0.7-0.6-1c-0.3-0.3-0.8-0.4-1.4-0.4c-0.6,0-1.1,0.1-1.5,0.4c-0.4,0.2-0.8,0.5-1,0.9c-0.3,0.4-0.5,0.8-0.7,1.2
		c-0.2,0.4-0.3,0.8-0.4,1.2c-0.1,0.3-0.1,0.6-0.2,0.9c-0.1,0.3-0.1,0.6-0.1,0.9c0,0.3,0,0.6,0.1,0.9c0.1,0.3,0.2,0.5,0.3,0.7
		c0.2,0.2,0.4,0.4,0.7,0.5c0.3,0.1,0.7,0.2,1.1,0.2C136.4,138.9,136.8,138.8,137.1,138.7z"/>
	<path class="st0" d="M148.7,136.5c-0.1,0.3-0.1,0.7-0.2,1.1c-0.1,0.4-0.1,0.8-0.2,1.2c-0.1,0.4-0.1,0.8-0.2,1.1
		c-0.3,0-0.6-0.1-0.9-0.1c-0.4,0-0.7,0-1,0c-0.3,0-0.7,0-1,0c-0.3,0-0.7,0.1-1,0.1c0.2-0.5,0.4-1.1,0.5-1.8c0.2-0.7,0.3-1.3,0.5-2
		l0.3-1.3c0.2-0.8,0.3-1.5,0.5-2.3c0.2-0.8,0.3-1.6,0.4-2.4c0.3,0,0.7,0.1,1,0.1c0.3,0,0.7,0,1,0c0.6,0,1.3,0,1.9-0.1
		c-0.1,0.4-0.2,0.7-0.3,1.1c-0.1,0.4-0.2,0.8-0.3,1.1c-0.1,0.4-0.2,0.7-0.3,1.1c-0.1,0.3-0.1,0.6-0.2,0.9l0.6-0.5
		c0.5-0.4,1-0.7,1.3-1c0.4-0.3,0.7-0.6,1-0.8c0.3-0.3,0.6-0.6,1-0.8c0.3-0.3,0.7-0.6,1.1-1c0.4,0.1,0.9,0.1,1.3,0.1
		c0.2,0,0.4,0,0.6,0c0.2,0,0.4-0.1,0.6-0.1l0,0.2c-0.2,0.2-0.4,0.3-0.7,0.5c-0.2,0.2-0.5,0.3-0.7,0.5c-1.1,0.8-2.2,1.6-3.3,2.5
		c0.1,0.3,0.3,0.7,0.5,1.1c0.2,0.4,0.4,0.8,0.6,1.2c0.2,0.4,0.4,0.8,0.6,1.2c0.2,0.4,0.4,0.7,0.5,1.1c0.2,0.3,0.3,0.6,0.4,0.8
		c0.1,0.2,0.2,0.3,0.2,0.4c0,0,0.1,0.1,0.1,0.1c0,0.1,0.1,0.1,0,0.1l0,0.2c-0.1,0-0.2,0-0.4,0c-0.2,0-0.3,0-0.5,0
		c-0.2,0-0.4,0-0.6,0s-0.4,0-0.5,0c-0.3,0-0.7,0-1.2,0c-0.4,0-0.8,0-1.2,0.1c0-0.1-0.1-0.2-0.2-0.4c-0.1-0.2-0.1-0.3-0.2-0.5
		c-0.1-0.2-0.1-0.3-0.2-0.5c-0.1-0.2-0.1-0.3-0.2-0.5l-1.1-2.4C148.8,135.9,148.8,136.1,148.7,136.5z"/>
</g>
<ellipse class="st5" cx="54.7" cy="39.8" rx="0.8" ry="3.7"/>
<ellipse class="st5" cx="51.2" cy="39.8" rx="0.8" ry="3.7"/>
<path class="st6" d="M54.7,31.4c0,0,2.2-3.4,5.1-5.7c0,0,1.9,3,2.3,4.9c0,0-2.1,1.7-2.4,2.2c0,0-0.8-0.5-2.6-1
	C55.9,31.3,54.7,31.4,54.7,31.4z"/>
<path class="st6" d="M61.3,33.4c0,0,3-3.3,6.1-4.2c0,0,1.8,3.2,1.9,6.6s-0.7,4-0.7,4s0-1.6-1.7-3.3C64.5,34.2,61.3,33.4,61.3,33.4z"
	/>
<path class="st6" d="M67.6,43c0,0-1.3,5.4-11,12.2c0,0,1.1-2.5,1.4-4.3c0,0-1.6,3.3-3.3,5.1c-1.7,1.8-3.5,3.8-3.5,3.8V49.6
	c0,0,3.5-0.1,7.7-1.3C64.8,46.6,67.6,43,67.6,43z"/>
<path class="st3" d="M59.6,53.8c0,0,3.9,0,9.4-4.2c4.6-3.5,4.9-10.1,4.9-10.1s-2-0.5-3.4,1.1c0,0-1.6,4.3-4.9,7.8
	C62.2,51.9,59.6,53.8,59.6,53.8z"/>
<g>
	<defs>
		<path id="SVGID_3_" d="M52.1,61c0,0,0.4,2.4,7.5,2.4s13.3-4.2,15.2-10.7c0,0-4.5,2.4-8.5,2.6c-4,0.2-7.5-0.1-7.5-0.1
			s-2.7,1.2-3.8,2.2c-1,0.9-2.4,1.9-2.6,2.3C52.2,60.1,52.1,61,52.1,61z"/>
	</defs>
	<use xlink:href="#SVGID_3_"  style="overflow:visible;fill:#E8B663;"/>
	<clipPath id="SVGID_4_">
		<use xlink:href="#SVGID_3_"  style="overflow:visible;"/>
	</clipPath>
	<path class="st7" d="M54.7,60.3c0,0,0.9-2.1,4.7-2.7c3.8-0.6,10.2-0.5,12.3-1.4c0,0-3.1,2.7-7.4,4.2C60.1,61.7,54.7,60.3,54.7,60.3
		z"/>
	<path class="st8" d="M51.6,60.6c0,0,0.3-1,5.1-1c4.7,0,10.6-1,13.5-3c2.9-2,4.6-4.1,4.9-4.6c0.3-0.5,7.5,0.9,7.5,0.9
		s-7.7,11.4-8.6,11.7c-0.9,0.3-13.3,3.4-14.7,3.4c-1.3,0-6.4-3.9-7-5.3C51.7,61.1,51.6,60.6,51.6,60.6z"/>
</g>
<path class="st6" d="M53.6,64.3c0,0-0.2,3.7-2.4,4.7v-6.2c0,0,0.7,0.1,1.2,0.4C52.9,63.4,53.6,64.3,53.6,64.3z"/>
<ellipse class="st5" cx="47.7" cy="39.8" rx="0.8" ry="3.7"/>
<path class="st3" d="M47.7,31.4c0,0-2.2-3.4-5.1-5.7c0,0-1.9,3-2.3,4.9c0,0,2.1,1.7,2.4,2.2c0,0,0.8-0.5,2.6-1
	C46.5,31.3,47.7,31.4,47.7,31.4z"/>
<path class="st3" d="M41.1,33.4c0,0-3-3.3-6.1-4.2c0,0-1.8,3.2-1.9,6.6c-0.1,3.4,0.7,4,0.7,4s0-1.6,1.7-3.3
	C37.9,34.2,41.1,33.4,41.1,33.4z"/>
<path class="st3" d="M34.8,43c0,0,1.3,5.4,11,12.2c0,0-1.1-2.5-1.4-4.3c0,0,1.1,2.8,2.8,4.6s4,4.3,4,4.3V49.6c0,0-3.5-0.1-7.7-1.3
	C37.6,46.6,34.8,43,34.8,43z"/>
<path class="st6" d="M42.8,53.8c0,0-3.9,0-9.4-4.2c-4.6-3.5-4.9-10.1-4.9-10.1s2-0.5,3.4,1.1c0,0,1.6,4.3,4.9,7.8
	C40.1,51.9,42.8,53.8,42.8,53.8z"/>
<g>
	<defs>
		<path id="SVGID_5_" d="M50.3,61c0,0-0.4,2.4-7.5,2.4s-13.3-4.2-15.2-10.7c0,0,4.5,2.4,8.5,2.6s7.5-0.1,7.5-0.1s2.7,1.2,3.8,2.2
			c1,0.9,2.4,1.9,2.6,2.3C50.2,60.1,50.3,61,50.3,61z"/>
	</defs>
	<use xlink:href="#SVGID_5_"  style="overflow:visible;fill:#F9EE21;"/>
	<clipPath id="SVGID_6_">
		<use xlink:href="#SVGID_5_"  style="overflow:visible;"/>
	</clipPath>
	<path class="st9" d="M47.7,60.3c0,0-0.9-2.1-4.7-2.7c-3.8-0.6-10.2-0.5-12.3-1.4c0,0,3.1,2.7,7.4,4.2
		C42.3,61.7,47.7,60.3,47.7,60.3z"/>
	<path class="st10" d="M50.8,60.6c0,0-0.3-1-5.1-1c-4.7,0-10.6-1-13.5-3c-2.9-2-4.6-4.1-4.9-4.6c-0.3-0.5-7.5,0.9-7.5,0.9
		s7.7,11.4,8.6,11.7c0.9,0.3,13.3,3.4,14.7,3.4s6.4-3.9,7-5.3C50.6,61.1,50.8,60.6,50.8,60.6z"/>
</g>
<path class="st3" d="M48.8,64.3c0,0,0.2,3.7,2.4,4.7v-6.2c0,0-0.7,0.1-1.2,0.4C49.5,63.4,48.8,64.3,48.8,64.3z"/>
<path class="st6" d="M51.2,31.7c0,0,1.8-2.4,3-2.9c0,0-1-4.4-3-6.9"/>
<path class="st3" d="M51.2,21.9c-2,2.6-3,6.9-3,6.9c1.2,0.6,3,2.9,3,2.9"/>
</svg>
