<?xml version="1.0" encoding="utf-8"?>
<!-- Generator: Adobe Illustrator 19.1.0, SVG Export Plug-In . SVG Version: 6.00 Build 0)  -->
<svg version="1.1" id="Layer_1" xmlns="http://www.w3.org/2000/svg" xmlns:xlink="http://www.w3.org/1999/xlink" x="0px" y="0px"
	 viewBox="0 0 300 300" style="enable-background:new 0 0 300 300;" xml:space="preserve">
<style type="text/css">
	.st0{fill:#F15F2C;}
	.st1{fill:none;stroke:#000000;stroke-width:5.2156;}
	.st2{fill:#FFFFFF;}
	.st3{fill:#FCEE23;}
	.st4{clip-path:url(#SVGID_3_);}
	.st5{clip-path:url(#SVGID_4_);fill:#F15F2C;}
	.st6{clip-path:url(#SVGID_4_);fill:none;stroke:#000000;stroke-width:5.2156;}
	.st7{fill:#8AC8EE;}
	.st8{fill:none;stroke:#000000;stroke-width:5.2012;stroke-miterlimit:35;}
	.st9{fill:#008348;}
	.st10{fill:none;stroke:#000000;stroke-width:2.8978;stroke-linecap:round;stroke-miterlimit:35;}
	.st11{fill:none;stroke:#000000;stroke-width:2.8978;stroke-miterlimit:35;}
</style>
<g>
	<path class="st0" d="M151.5,17.8c0,0,9.7,15.8,31.6,15.8c22,0,40.5-17.8,40.5-17.8L290.8,76c0,0-18.9,28.6-18.9,47.8
		c0,24.7,5.8,28.6,3.9,49.8c-2.4,25.9-23.1,48.2-44.4,62.5c-21.2,14.3-29.3,13.5-56.7,30.9c-11.6,7.4-23.2,19.7-23.2,19.7
		S140,274.4,128.4,267c-27.4-17.4-35.5-16.6-56.7-30.9c-21.2-14.3-42-36.7-44.4-62.5c-1.9-21.2,3.9-25.1,3.9-49.8
		c0-19.3-18.9-47.8-18.9-47.8l67.1-60.2c0,0,18.5,17.8,40.5,17.8C141.9,33.6,151.5,17.8,151.5,17.8"/>
	<path class="st1" d="M151.5,17.8c0,0,9.7,15.8,31.6,15.8c22,0,40.5-17.8,40.5-17.8L290.8,76c0,0-18.9,28.6-18.9,47.8
		c0,24.7,5.8,28.6,3.9,49.8c-2.4,25.9-23.1,48.2-44.4,62.5c-21.2,14.3-29.3,13.5-56.7,30.9c-11.6,7.4-23.2,19.7-23.2,19.7
		S140,274.4,128.4,267c-27.4-17.4-35.5-16.6-56.7-30.9c-21.2-14.3-42-36.7-44.4-62.5c-1.9-21.2,3.9-25.1,3.9-49.8
		c0-19.3-18.9-47.8-18.9-47.8l67.1-60.2c0,0,18.5,17.8,40.5,17.8C141.9,33.6,151.5,17.8,151.5,17.8L151.5,17.8z M151.5,17.8"/>
	<path class="st2" d="M35.3,79.6c6.4,11.9,13.9,29.1,13.9,44.3c0,13.2-1.5,21.5-2.7,28.1c-0.9,4.9-1.5,8.5-1.5,13.5
		c0,1.9,0.1,4,0.3,6.5c1.5,16.4,15.1,34.8,36.5,49.2c9.3,6.3,15.5,9.1,23.3,12.7c8.5,4,18.2,8.4,33,17.9c4.8,3,9.4,7.9,13.5,11.4
		c4.1-3.4,8.7-8.3,13.5-11.4c14.9-9.4,24.5-13.9,33-17.9c7.8-3.6,14-6.5,23.3-12.7c21.3-14.4,35-32.7,36.5-49.2
		c0.2-2.5,0.3-4.6,0.3-6.5c0-5-0.7-8.7-1.5-13.5c-1.2-6.7-2.7-14.9-2.7-28.1c0-15.1,7.5-32.4,13.9-44.3
		c-12.4-11.1-32.7-29.3-45.1-40.4c-9.6,6.1-23.6,12.5-39.5,12.5c-13.1,0-23.7-4.1-31.6-9.3c-8,5.2-18.6,9.3-31.6,9.3
		c-15.9,0-29.9-6.4-39.5-12.5C68,50.3,47.6,68.5,35.3,79.6"/>
	<path class="st1" d="M35.3,79.6c6.4,11.9,13.9,29.1,13.9,44.3c0,13.2-1.5,21.5-2.7,28.1c-0.9,4.9-1.5,8.5-1.5,13.5
		c0,1.9,0.1,4,0.3,6.5c1.5,16.4,15.1,34.8,36.5,49.2c9.3,6.3,15.5,9.1,23.3,12.7c8.5,4,18.2,8.4,33,17.9c4.8,3,9.4,7.9,13.5,11.4
		c4.1-3.4,8.7-8.3,13.5-11.4c14.9-9.4,24.5-13.9,33-17.9c7.8-3.6,14-6.5,23.3-12.7c21.3-14.4,35-32.7,36.5-49.2
		c0.2-2.5,0.3-4.6,0.3-6.5c0-5-0.7-8.7-1.5-13.5c-1.2-6.7-2.7-14.9-2.7-28.1c0-15.1,7.5-32.4,13.9-44.3
		c-12.4-11.1-32.7-29.3-45.1-40.4c-9.6,6.1-23.6,12.5-39.5,12.5c-13.1,0-23.7-4.1-31.6-9.3c-8,5.2-18.6,9.3-31.6,9.3
		c-15.9,0-29.9-6.4-39.5-12.5C68,50.3,47.6,68.5,35.3,79.6L35.3,79.6z M35.3,79.6"/>
	<path class="st3" d="M68.6,65.2c0,0-11.8,10.6-19,17.1c7.4,15.6,11.2,29.6,11.2,41.6c0,14.2-1.7,23.5-2.9,30.2
		c-0.8,4.5-1.4,7.5-1.4,11.4c0,1.6,0.1,3.4,0.3,5.5c1.2,12.8,13.2,28.4,31.4,40.6c8.5,5.7,14.1,8.3,21.7,11.9
		c8.9,4.1,18.9,8.8,34.4,18.6c2.4,1.5,4.8,4.5,7.3,6.3c2.5-1.9,4.9-4.9,7.3-6.3c15.5-9.8,25.5-14.5,34.3-18.6
		c7.7-3.6,13.2-6.1,21.7-11.9c18.2-12.3,30.3-27.8,31.4-40.6c0.2-2,0.3-3.8,0.3-5.5c0-3.9-0.5-6.9-1.4-11.4
		c-1.2-6.8-2.9-16-2.9-30.2c0-12,3.8-26,11.2-41.6c-8.1-7.2-24.7-22.1-32.4-29c-10,5.2-23.1,9.9-38,9.9c-11.1,0-21.9-2.6-31.6-7.6
		c-9.7,4.9-20.5,7.6-31.6,7.6c-14.8,0-28-4.7-38-9.9C76.1,58.5,68.6,65.2,68.6,65.2"/>
	<g>
		<defs>
			<rect id="SVGID_1_" x="10.7" y="14.2" width="281.7" height="274.2"/>
		</defs>
		<defs>
			<path id="SVGID_2_" d="M68.6,65.2c0,0-11.8,10.6-19,17.1c7.4,15.6,11.2,29.6,11.2,41.6c0,14.2-1.7,23.5-2.9,30.2
				c-0.8,4.5-1.4,7.5-1.4,11.4c0,1.6,0.1,3.4,0.3,5.5c1.2,12.8,13.2,28.4,31.4,40.6c8.5,5.7,14.1,8.3,21.7,11.9
				c8.9,4.1,18.9,8.8,34.4,18.6c2.4,1.5,4.8,4.5,7.3,6.3c2.5-1.9,4.9-4.9,7.3-6.3c15.5-9.8,25.5-14.5,34.3-18.6
				c7.7-3.6,13.2-6.1,21.7-11.9c18.2-12.3,30.3-27.8,31.4-40.6c0.2-2,0.3-3.8,0.3-5.5c0-3.9-0.5-6.9-1.4-11.4
				c-1.2-6.8-2.9-16-2.9-30.2c0-12,3.8-26,11.2-41.6c-8.1-7.2-24.7-22.1-32.4-29c-10,5.2-23.1,9.9-38,9.9c-11.1,0-21.9-2.6-31.6-7.6
				c-9.7,4.9-20.5,7.6-31.6,7.6c-14.8,0-28-4.7-38-9.9C76.1,58.5,68.6,65.2,68.6,65.2"/>
		</defs>
		<clipPath id="SVGID_3_">
			<use xlink:href="#SVGID_1_"  style="overflow:visible;"/>
		</clipPath>
		<clipPath id="SVGID_4_" class="st4">
			<use xlink:href="#SVGID_2_"  style="overflow:visible;"/>
		</clipPath>
		<polyline class="st5" points="258.4,115 177.6,115 177.6,45.2 125.5,45.2 125.5,115 44.6,115 44.6,167.5 125.5,167.5 125.5,254.4 
			177.6,254.4 177.6,167.5 258.4,167.5 		"/>
		<path class="st6" d="M125.5,115H44.6v52.5h80.8v86.9h52.1v-86.9h80.8V115h-80.8V45.2h-52.1V115z M125.5,115"/>
	</g>
	<path class="st1" d="M68.6,65.2c0,0-11.8,10.6-19,17.1c7.4,15.6,11.2,29.6,11.2,41.6c0,14.2-1.7,23.5-2.9,30.2
		c-0.8,4.5-1.4,7.5-1.4,11.4c0,1.6,0.1,3.4,0.3,5.5c1.2,12.8,13.2,28.4,31.4,40.6c8.5,5.7,14.1,8.3,21.7,11.9
		c8.9,4.1,18.9,8.8,34.4,18.6c2.4,1.5,4.8,4.5,7.3,6.3c2.5-1.9,4.9-4.9,7.3-6.3c15.5-9.8,25.5-14.5,34.3-18.6
		c7.7-3.6,13.2-6.1,21.7-11.9c18.2-12.3,30.3-27.8,31.4-40.6c0.2-2,0.3-3.8,0.3-5.5c0-3.9-0.5-6.9-1.4-11.4
		c-1.2-6.8-2.9-16-2.9-30.2c0-12,3.8-26,11.2-41.6c-8.1-7.2-24.7-22.1-32.4-29c-10,5.2-23.1,9.9-38,9.9c-11.1,0-21.9-2.6-31.6-7.6
		c-9.7,4.9-20.5,7.6-31.6,7.6c-14.8,0-28-4.7-38-9.9C76.1,58.5,68.6,65.2,68.6,65.2L68.6,65.2z M68.6,65.2"/>
	<path class="st7" d="M83.6,142.2c0-37.6,30.5-68.1,68.1-68.1c37.6,0,68.1,30.5,68.1,68.1c0,37.6-30.5,68.1-68.1,68.1
		C114.1,210.3,83.6,179.8,83.6,142.2"/>
	<path class="st8" d="M219.8,142.2c0,37.6-30.5,68.1-68.1,68.1c-37.6,0-68.1-30.5-68.1-68.1c0-37.6,30.5-68.1,68.1-68.1
		C189.3,74.1,219.8,104.6,219.8,142.2L219.8,142.2z M219.8,142.2"/>
	<path class="st9" d="M119.5,114.2c0,0,4.7-1.8,8.3,1.6c3.7,3.3,5.6,9.5,5.6,9.5s-6.5-0.5-10.5-3.3
		C118.8,119.1,119.5,114.2,119.5,114.2"/>
	<path class="st9" d="M115.7,114.3c0,0-5-0.5-7.6,3.7c-2.7,4.2-3,10.6-3,10.6s6.1-2.2,9.3-5.9C117.7,118.9,115.7,114.3,115.7,114.3"
		/>
	<path class="st9" d="M116.9,107.9c0,0.2-1.6,28.8,7,53c6.5,18.5,16,27,16.4,27.3l1.1-1.2c-0.1-0.1-9.6-8.6-16-26.7
		c-7.4-20.9-6.4-52.3-6.5-52.5"/>
	<path class="st9" d="M134.4,179.7c0,0,4.9-0.7,7.8,3.3c2.8,4.1,3.4,10.5,3.4,10.5s-6.2-1.9-9.6-5.5
		C132.6,184.4,134.4,179.7,134.4,179.7"/>
	<path class="st9" d="M128.3,165.4c0,0,3.6-3.4,8.3-1.8c4.7,1.7,8.8,6.6,8.8,6.6s-6.2,2-11,1C129.6,170.2,128.3,165.4,128.3,165.4"
		/>
	<path class="st9" d="M124.8,167.3c0,0-4.8,1.5-5.6,6.3c-0.9,4.9,1.3,10.9,1.3,10.9s4.8-4.4,6.3-9.1
		C128.4,170.8,124.8,167.3,124.8,167.3"/>
	<path class="st9" d="M122.2,144.9c0,0,4.4-2.4,8.5,0.5c4.1,2.9,6.8,8.7,6.8,8.7s-6.5,0.3-10.9-2
		C122.1,149.8,122.2,144.9,122.2,144.9"/>
	<path class="st9" d="M118.9,145.8c0,0-5,0.1-7.1,4.6c-2.1,4.5-1.6,10.9-1.6,10.9s5.8-2.9,8.5-7.1
		C121.4,150.1,118.9,145.8,118.9,145.8"/>
	<path class="st2" d="M149,135.3c0,0,8.9,0.1,17.1-2.9c8.1-3.1,12.1-5.1,12.1-5.1s0.1,5.6-7.1,8.2c-17.6,6.4-23.2,5.5-23.2,5.5"/>
	<path class="st10" d="M149,135.3c0,0,8.9,0.1,17.1-2.9c8.1-3.1,12.1-5.1,12.1-5.1s0.1,5.6-7.1,8.2c-17.6,6.4-23.2,5.5-23.2,5.5"/>
	<path class="st2" d="M152.2,130c0,0,8.9,0,17-3.2c8.1-3.2,12-5.3,12-5.3s0.2,5.6-7,8.4c-17.4,6.7-23.1,5.9-23.1,5.9"/>
	<path class="st10" d="M152.2,130c0,0,8.9,0,17-3.2c8.1-3.2,12-5.3,12-5.3s0.2,5.6-7,8.4c-17.4,6.7-23.1,5.9-23.1,5.9"/>
	<path class="st2" d="M155.4,124.7c0,0,8.9-0.2,16.9-3.5c8-3.4,11.9-5.5,11.9-5.5s0.3,5.6-6.8,8.5c-17.3,7-23,6.3-23,6.3"/>
	<path class="st10" d="M155.4,124.7c0,0,8.9-0.2,16.9-3.5c8-3.4,11.9-5.5,11.9-5.5s0.3,5.6-6.8,8.5c-17.3,7-23,6.3-23,6.3"/>
	<path class="st2" d="M158.6,119.4c0,0,8.9-0.3,16.9-3.8c8-3.5,11.8-5.7,11.8-5.7s0.4,5.6-6.7,8.6c-17.2,7.3-22.9,6.7-22.9,6.7"/>
	<path class="st10" d="M158.6,119.4c0,0,8.9-0.3,16.9-3.8c8-3.5,11.8-5.7,11.8-5.7s0.4,5.6-6.7,8.6c-17.2,7.3-22.9,6.7-22.9,6.7"/>
	<path class="st2" d="M154.2,125.8c0.8-7.1,7-13.1,9.6-20.1c0.3-1.9,0.6-4.7,0.2-8.2c-0.6-7-4.8-8.3-4.8-8.3s0.6,3.8,0.3,8.6
		c-0.3,4.8-3.5,10.8-7.6,15.3c-4.1,4.5-5.4,5.7-5.1,10.5c0.3,4.8,0.6,21.3,0.6,21.3l6.7-0.5v-11.2c-0.3-1.1-0.5-2.2-0.7-3.2
		C153.6,128.6,153.9,127.2,154.2,125.8"/>
	<path class="st10" d="M154.2,125.8c0.8-7.1,7-13.1,9.6-20.1c0.3-1.9,0.6-4.7,0.2-8.2c-0.6-7-4.8-8.3-4.8-8.3s0.6,3.8,0.3,8.6
		c-0.3,4.8-3.5,10.8-7.6,15.3c-4.1,4.5-5.4,5.7-5.1,10.5c0.3,4.8,0.6,21.3,0.6,21.3l6.7-0.5v-11.2c-0.3-1.1-0.5-2.2-0.7-3.2
		C153.6,128.6,153.9,127.2,154.2,125.8L154.2,125.8z M154.2,125.8"/>
	<path class="st2" d="M185.1,145.3c-1.8,1.5-3.7,3.4-5.5,5.6c-6.8,8.2-11.1,12.7-21,12.7c-9.9,0-18.5-5.4-22-14
		c-3.5-8.6-7-15-12.1-15s-9.2,2.5-9.2,2.5s4.5-10.2,12.7-10.2c8.3,0,12.7,8.6,16.6,12.7c3.8,4.1,17.5,5.1,25.8,2.5
		c7.4-2.3,11.5-9.6,19.1-8.9"/>
	<path class="st11" d="M185.1,145.3c-1.8,1.5-3.7,3.4-5.5,5.6c-6.8,8.2-11.1,12.7-21,12.7c-9.9,0-18.5-5.4-22-14
		c-3.5-8.6-7-15-12.1-15s-9.2,2.5-9.2,2.5s4.5-10.2,12.7-10.2c8.3,0,12.7,8.6,16.6,12.7c3.8,4.1,17.5,5.1,25.8,2.5
		c7.4-2.3,11.5-9.6,19.1-8.9"/>
	<path class="st2" d="M185.7,133.8c0,0,4.1-1.4,8,0.3c5.8,2.5,3.8,5.7,3.8,5.7s-3.2-1.3-5.7-1.9c-2.5-0.6-4.8,0.1-4.8,0.1
		c1.1,0.1,2.2,0.4,3.1,0.9c6.7,3.2,3.8,5.7,3.8,5.7s-3.2-1.3-5.7-1.9c-2.5-0.6-4.6,0.1-4.6,0.1c1,0.1,2.1,0.5,3,0.9
		c6.7,3.2,3.8,5.7,3.8,5.7s-3.2-1.3-5.7-1.9c-2.5-0.6-4.8,0-4.8,0"/>
	<path class="st10" d="M185.7,133.8c0,0,4.1-1.4,8,0.3c5.8,2.5,3.8,5.7,3.8,5.7s-3.2-1.3-5.7-1.9c-2.5-0.6-4.8,0.1-4.8,0.1
		c1.1,0.1,2.2,0.4,3.1,0.9c6.7,3.2,3.8,5.7,3.8,5.7s-3.2-1.3-5.7-1.9c-2.5-0.6-4.6,0.1-4.6,0.1c1,0.1,2.1,0.5,3,0.9
		c6.7,3.2,3.8,5.7,3.8,5.7s-3.2-1.3-5.7-1.9c-2.5-0.6-4.8,0-4.8,0"/>
	<path class="st2" d="M169.1,143.6c0,0-9.9-2-9.9-13.7c0-12,9.6-20.9,10.1-23.1c0.5-2.2,0.8-5,0.5-9.3c-0.6-7-4.8-8.3-4.8-8.3
		s0.6,3.8,0.3,8.6c-0.3,4.8-3.5,10.8-7.6,15.3c-4.1,4.5-5.4,5.7-5.1,10.5c0.3,4.8,0.7,22,0.7,22"/>
	<path class="st10" d="M169.1,143.6c0,0-9.9-2-9.9-13.7c0-12,9.6-20.9,10.1-23.1c0.5-2.2,0.8-5,0.5-9.3c-0.6-7-4.8-8.3-4.8-8.3
		s0.6,3.8,0.3,8.6c-0.3,4.8-3.5,10.8-7.6,15.3c-4.1,4.5-5.4,5.7-5.1,10.5c0.3,4.8,0.7,22,0.7,22"/>
	<path class="st2" d="M160.1,123.8c1.1-5.2,7.7-6.1,10.4-9.8c1.4-1.8,2.6-4.2,3.5-8.4c1.6-6.9-2-9.4-2-9.4s-0.6,3.8-2.4,8.3
		c-1.3,3.1-5.3,6.2-8.7,8.9"/>
	<path class="st10" d="M160.1,123.8c1.1-5.2,7.7-6.1,10.4-9.8c1.4-1.8,2.6-4.2,3.5-8.4c1.6-6.9-2-9.4-2-9.4s-0.6,3.8-2.4,8.3
		c-1.3,3.1-5.3,6.2-8.7,8.9"/>
	<path d="M123.2,131.4c0,0,1.3-1.5,3.4-1.5c2.1,0,2.8,0.5,4.1,2.6C128.3,131.4,122.2,133.4,123.2,131.4"/>
</g>
</svg>
