<?xml version="1.0" encoding="utf-8"?>
<!-- Generator: Adobe Illustrator 19.1.0, SVG Export Plug-In . SVG Version: 6.00 Build 0)  -->
<svg version="1.1" id="Layer_1" xmlns="http://www.w3.org/2000/svg" xmlns:xlink="http://www.w3.org/1999/xlink" x="0px" y="0px"
	 viewBox="0 0 500 500" style="enable-background:new 0 0 500 500;" xml:space="preserve">
<style type="text/css">
	.st0{fill:#ACC3E2;}
	.st1{fill:none;stroke:#000000;stroke-width:1.5529;}
	.st2{clip-path:url(#SVGID_4_);}
	.st3{clip-path:url(#SVGID_5_);}
	.st4{clip-path:url(#SVGID_6_);fill:#949494;}
	.st5{clip-path:url(#SVGID_6_);}
	.st6{clip-path:url(#SVGID_6_);fill:#FFFFFF;}
	.st7{fill:none;stroke:#000000;stroke-width:13.0445;}
</style>
<g>
	<path class="st0" d="M50.9,34.2l400.7-0.7l-7.9,125.8l-7.3,64.2l-20.5,76.2l-31.8,57.6l-24.5,32.5l-28.5,27.8L294,444.1l-29.1,19.2
		l-13.9,6l-41.1-23.8l-33.1-25.2L139,384.5l-40.4-58.3l-21.2-55l-13.2-62.9l-7.3-74.2L50.9,34.2L50.9,34.2z M50.9,34.2"/>
	<path class="st1" d="M50.9,34.2l400.7-0.7l-7.9,125.8l-7.3,64.2l-20.5,76.2l-31.8,57.6l-24.5,32.5l-28.5,27.8L294,444.1l-29.1,19.2
		l-13.9,6l-41.1-23.8l-33.1-25.2L139,384.5l-40.4-58.3l-21.2-55l-13.2-62.9l-7.3-74.2L50.9,34.2L50.9,34.2z M50.9,34.2"/>
	<g>
		<defs>
			<rect id="SVGID_1_" x="47.3" y="31.2" width="410.2" height="443.5"/>
		</defs>
		<defs>
			<path id="SVGID_2_" d="M401.9,378.9H99.5V62.7h302.4V378.9L401.9,378.9z M401.9,378.9"/>
		</defs>
		<defs>
			<rect id="SVGID_3_" x="47.3" y="-74.1" width="424.1" height="548.8"/>
		</defs>
		<clipPath id="SVGID_4_">
			<use xlink:href="#SVGID_1_"  style="overflow:visible;"/>
		</clipPath>
		<clipPath id="SVGID_5_" class="st2">
			<use xlink:href="#SVGID_2_"  style="overflow:visible;"/>
		</clipPath>
		<clipPath id="SVGID_6_" class="st3">
			<use xlink:href="#SVGID_3_"  style="overflow:visible;"/>
		</clipPath>
		<path class="st4" d="M110.1,97.9c0-0.3,0.1-0.6,0.2-0.9c0.5-0.8,2.2-2.1,8.2-2.1c10.5,0,15.9-0.4,24.8-9l0.9-0.9
			c7.7-7.6,12.4-12.1,33-12.1c19.7,0,35.1,4.6,45.4,7.6l1.5,0.4c1.2,0.3,1.7,1,1.7,1.2c-0.1,0.2-0.9,0.5-2,0.1
			c-11.3-4.1-21.3-3.3-28.1,2.1c-4.8,3.8-7.5,9.8-7.5,16.4c0,1,0.1,1.9,0.2,2.9c3.3,27.6,21.2,45.3,53,52.7
			c34.5,8,63.1,17.7,95.6,32.5c34,15.5,51.4,38.7,52.2,39.7c0.3,0.6,4.6,8,4.6,17.7c0,4.8-1.2,11.3-4.4,15.5c-0.1,0-0.3,0.1-0.4,0
			c-0.7-0.1-1.8-0.7-2.9-2.1c-2.9-4.1-19-24.4-46.4-24.1c-11.5,0.1-20.9,2.2-30.8,4.4c-10.9,2.4-22.2,4.9-36.9,4.8
			c0,0-58.3-6-58.6-6c-18.3-6.6-33.1-17.5-43-31.6c-16.7-23.9-17.3-50.7-18-76.7l-0.1-3.1c-0.6-25.9-17.4-27.2-36.7-28.7
			c0,0-4.4-0.4-5.5-0.5C110.1,98.1,110.1,98,110.1,97.9L110.1,97.9z M110.1,97.9"/>
		<path class="st5" d="M182.7,338.7c-3.1-7.6-4.1-29.2,26.5-42.6c16.8-7.4,30.6-10.4,39.6-11.7c-1.7-1.9-3.7-3.6-6-4.8
			c-21.9-11.9-27.9-31.1-29.6-39.8c-20-7.2-34.4-19-43.6-32c-17.5-25.1-17.5-52.9-18.2-80.4c-0.7-27.5-19.4-26.1-42-28.2
			c0,0-2.8-5.3,9.2-5.3c10.5,0,15.6-0.5,24.1-8.7c8.5-8.2,12.8-13.3,34.6-13.3c20.8,0,36.8,5,47.1,8.1c1.6,0.5,2.7,1.5,2.4,2.4
			c-0.3,0.9-1.8,1.4-3.3,0.8c-22.9-8.2-35.9,5.1-34.1,20.3c3.2,26.6,20.6,44.4,52.2,51.8c31.6,7.3,60.5,16.5,95.8,32.5
			c35.3,16,52.6,40.2,52.6,40.2c1.5,1.7,1.6,3.8,0.4,4.9c-1.2,1.1-3.3,0.5-4.9-1c-45.7-45.2-115.5-60.5-143-65.5
			c-27.5-5-47.7-23.4-56.4-48.6c-8.7-25.2,5-37.6,5-37.6c-35.1-8.7-40.3,3-44.9,8c-4.6,5-13.4,8.9-13.4,8.9
			c18.6,3.1,23.1,13.1,23.7,29.6c0.7,19.6,0.7,71.8,39.5,94.5c38.8,22.7,83.5,14.4,101.4,11.3c17.9-3.1,63.9-13.9,91.8,24.7
			c1.5,2.1,2,4.4,0.9,5.3c-1.1,0.9-3.3-0.1-4.8-2.2c-3-4.1-18.7-24-45.5-23.7c-24.2,0.3-39.7,9.4-67.7,9.2c0.1,6.6,0.4,20.9,2.5,27
			c2.3,6.7,6,14.8-6.6,14.9c-8.6,0.1-8.2,2.5-8.2,2.5l0,55.5c0,4.6,1.1,9.2,2.7,9.2c1.7,0,3.1,1.4,3.1,3.1c0,1.7-1.4,3.1-3.1,3.1
			c-0.7,0-1.4-0.3-2-0.7c-1.2-1-2.8-1.6-4.6-1.6c-2,0-3.8,0.8-5.1,2.1c-0.6,0.6-1.4,0.9-2.4,0.9c-1.9,0-3.4-1.5-3.4-3.4
			c0-1.9,1.5-3.4,3.4-3.4c3.2,0,5.8-3.4,5.8-6.9v-57.3c-21.6,2.1-38.9,10-48.8,13.3c-10.8,3.7-10.3,16-10.3,16L182.7,338.7
			L182.7,338.7z M242.3,246.9c-0.4,6,5.2,28.3,12.8,36.8c4-0.7,4.9-3.4,1.1-7.7c-8.6-9.8-11.7-21.5-12.1-28.7L242.3,246.9
			L242.3,246.9z M242.3,246.9"/>
		<path class="st5" d="M201.8,176.6c-0.3,0.1-0.5,0.3-0.5,0.6l-0.3,4c0,10.1,4.8,28.4,36.7,37.1c20.9,5.7,43.3,5.6,64.9,5.5
			c23.2-0.1,47.1-0.2,69.9,6.9c0.3,0.1,0.6,0,0.8-0.3c0.2-0.3,0.1-0.6-0.1-0.8c-5.4-5.3-22.8-17.6-68.5-17.1
			c-55.8,0.6-83.8-4.3-102.2-35.6C202.4,176.7,202.1,176.6,201.8,176.6L201.8,176.6z M201.8,176.6"/>
		<path class="st5" d="M161.7,83.1c2.9,1.5,4.4,4.5,3.3,6.7c-1.1,2.2-4.4,2.8-7.4,1.3c-2.9-1.5-4.4-4.5-3.3-6.7
			C155.5,82.2,158.8,81.6,161.7,83.1L161.7,83.1z M161.7,83.1"/>
		<path class="st5" d="M136.3,345c0,15.3,22.8,27.3,51.9,27.3c29.1,0,51.9-12,51.9-27.3c0-15.3-22.8-27.3-51.9-27.3
			C159.1,317.7,136.3,329.7,136.3,345L136.3,345z M136.3,345"/>
		<path class="st6" d="M139,345c0,13.6,22,24.6,49.1,24.6c27.1,0,49.1-11,49.1-24.6s-22-24.6-49.1-24.6C161,320.5,139,331.5,139,345
			L139,345z M139,345"/>
		<path class="st5" d="M163.4,338.6c0-1.5-1.2-2.7-2.7-2.7h6.9c-1.5,0-2.7,1.2-2.7,2.7l0,10.1c0,4.6-3.7,8.2-8.2,8.2
			c-4.6,0-8.2-3.7-8.2-8.2v-10.1c0-1.5-1.2-2.7-2.8-2.7h8.3c-1.5,0-2.8,1.2-2.8,2.7v10.1c0,3.4,2.8,6.2,6.2,6.2
			c3.4,0,6.2-2.8,6.2-6.2L163.4,338.6L163.4,338.6z M163.4,338.6"/>
		<path class="st5" d="M223.9,338.6c0-1.5-1.2-2.7-2.8-2.7h6.9c-1.5,0-2.7,1.2-2.7,2.7l0,10.1c0,4.6-3.7,8.2-8.2,8.2
			c-4.6,0-8.2-3.7-8.2-8.2v-10.1c0-1.5-1.2-2.7-2.8-2.7h8.3c-1.5,0-2.7,1.2-2.7,2.7v10.1c0,3.4,2.8,6.2,6.2,6.2
			c3.4,0,6.2-2.8,6.2-6.2L223.9,338.6L223.9,338.6z M223.9,338.6"/>
		<path class="st5" d="M181.3,330.4h2.5c3.4,0,6.1,2.7,6.1,6.1c0,3.4-2.7,6.1-6.1,6.1h-2.5V330.4L181.3,330.4z M189,343.6
			c2.9-1,5-3.8,5-7.1c0-4.1-3.4-7.5-7.5-7.5h-13.4c2.3,0,4.1,1.8,4.1,4.1v20.6c0,2.3-1.8,4.1-4.1,4.1h12.4c-2.3,0-4.1-1.8-4.1-4.1
			v-9.7l3.9,0l5.2,7.7c0.5,0.7,1,1.3,1.6,1.9c2.6,2.6,6.3,4.2,10.3,4.2v-1.1c-2.5-0.7-4.7-2-6.5-3.8c-0.6-0.6-1.1-1.2-1.6-1.9
			L189,343.6L189,343.6z M189,343.6"/>
		<path class="st5" d="M171.5,354.8c0,1-0.8,1.9-1.9,1.9c-1,0-1.9-0.8-1.9-1.9c0-1,0.8-1.9,1.9-1.9
			C170.6,353,171.5,353.8,171.5,354.8L171.5,354.8z M171.5,354.8"/>
		<path class="st5" d="M207.2,354.8c0,1-0.8,1.9-1.9,1.9c-1,0-1.9-0.8-1.9-1.9c0-1,0.8-1.9,1.9-1.9
			C206.4,353,207.2,353.8,207.2,354.8L207.2,354.8z M207.2,354.8"/>
	</g>
	<path d="M249.9,473.6l2.1,1l2.1-1v-6.5h-4.2V473.6L249.9,473.6z M249.9,473.6"/>
	<path class="st7" d="M51.8,35.7h400.5c-2.1,81.2-4.4,159.6-26,234.7c-21.7,75.1-68,144.3-174.2,199.2 M452.2,35.7H51.8
		c2.1,81.2,4.4,159.6,26,234.7c21.7,75.1,68,144.3,174.2,199.2"/>
</g>
</svg>
