<?xml version="1.0" encoding="utf-8"?>
<!-- Generator: Adobe Illustrator 19.1.0, SVG Export Plug-In . SVG Version: 6.00 Build 0)  -->
<svg version="1.1" id="Layer_1" xmlns="http://www.w3.org/2000/svg" xmlns:xlink="http://www.w3.org/1999/xlink" x="0px" y="0px"
	 viewBox="0 0 500 500" style="enable-background:new 0 0 500 500;" xml:space="preserve">
<style type="text/css">
	.st0{fill:#FFFFFF;}
	.st1{fill:#1F3D73;}
	.st2{fill:#AA1D37;}
</style>
<g>
	<path class="st0" d="M267.4,23.9l-49.3,0.6l-58.5,8.6l-59.1,18.5l-45,16.6l-12.9,61l-3.7,49.3l8,49.9l22.2,53l32,41.9l59.1,44.3
		l21.5,8.6l35.1-6.2l45.6-17.2l36.9-17.9l28.9-17.2l32-27.1l34.5-35.1l25.9-36.3l24.6-43.1l14.8-36.3l14.2-41.3l4.9-22.8l-51.1-24
		L385,40.6l-42.5-11.1L300,23.9H267.4L267.4,23.9z M267.4,23.9"/>
	<path class="st1" d="M74.7,412.9h-1.3H58.5l-9.4,41.2l-0.4,1.3c-1.8,8.1-4.5,12.5-8.1,12.5c-1.3,0-2.7-0.4-3.6-1.3
		c-0.4-0.4-0.9-1.8-0.9-2.7c0-0.9,0-1.8,0.5-3.1c0-1.3,0.4-3.1,0.9-5.8l9.4-42.1H30.8l-8.1,36.3c-0.9,3.6-1.3,6.7-1.8,8.9
		c-0.4,2.7-0.4,4.5-0.4,5.8c0,4.9,1.8,8.9,5.4,11.6c3.1,2.7,8.5,4,15.7,4c4,0,7.2-0.5,9.9-1.8c2.7-0.9,4.9-2.7,7.2-4.9
		c0.9-1.3,2.2-3.1,3.1-5.8c0.9-2.2,1.8-6.3,3.1-11.6l8.5-37.6"/>
	<path class="st1" d="M147.2,412.9h-1.8l-27.3,60.5l-2.2,4.5h2.2h14.3l4.9-12.5h9.9h3.6l-0.9,12.5h15.7l-0.4-65 M151.3,454.1h-4
		h-5.8l5.8-15.7l6.3-15.7L151.3,454.1L151.3,454.1z M151.3,454.1"/>
	<path class="st1" d="M102.9,439.3c-0.4,0-0.4-0.5-0.4-0.5c-3.6-2.7-5.4-4.9-6.3-6.3c-1.3-1.3-1.8-3.1-1.8-4.9c0-1.8,0.5-3.1,1.4-4
		c1.3-0.9,2.2-1.3,4-1.3c2.2,0,3.6,0.5,4.5,2.2c0.9,1.3,1.8,3.6,1.8,7.2v0.9h12.1h1.8v-1.3V429c0-4-0.4-7.2-1.8-9.9
		c-0.9-1.3-1.8-2.7-3.1-3.6c-3.1-3.1-8.1-4.5-14.3-4.5c-6.7,0-12.1,1.3-15.7,4.9c-4,3.1-5.8,7.6-5.8,13.9c0,3.1,0.9,6.3,2.2,9
		c1.8,3.1,4,5.8,7.6,8.9c0.9,0.5,1.8,1.4,3.1,2.3c4.9,4,7.2,8.1,7.2,11.2c0,1.8-0.4,3.6-1.3,4.9c-1.3,0.9-2.7,1.8-4.5,1.8
		c-2.2,0-4-0.9-4.9-2.7c-0.9-1.3-1.8-3.6-1.8-6.7c0-0.9,0.4-1.8,0.4-3.1V455H73.3h-0.9v0.4c0,1.3-0.4,2.7-0.4,3.6
		c0,3.1,0.4,5.8,1.3,8.5c0.9,2.7,2.2,4.9,4,6.7c3.6,3.6,8.5,5.4,15.2,5.4c7.6,0,13-1.8,16.6-5.4c4-3.6,5.8-8.5,5.8-14.8
		C115,452.7,111,446,102.9,439.3"/>
	<path class="st2" d="M382.5,416c-3.6-2.2-9.9-3.1-18.8-3.1h-3.6h-10.8l-14.8,65h24.2h1.3c7.6,0,13-1.8,17-5.4
		c4-3.1,5.8-8.5,5.8-16.1c0-2.7-0.4-4.9-1.8-7.2c-1.3-1.8-3.1-3.1-5.8-4.5c4-1.3,7.2-3.1,9.4-6.3c1.8-3.1,3.1-7.2,3.1-12.1
		C387.8,421.4,386.1,417.8,382.5,416 M364.5,463.9c-1.3,1.3-2.7,2.2-4.5,2.7h-3.1h-4l4-17.5h3.1h0.9c1.8,0,3.6,0.4,4.5,1.8
		c0.9,0.9,1.4,2.7,1.4,4.5C366.8,459,366.3,462.1,364.5,463.9L364.5,463.9z M369.9,436.2c-1.8,1.8-4,2.7-6.7,2.7h-3.1h-0.9l0.9-2.7
		l2.7-13h3.6c1.8,0,3.6,0.5,4.5,1.3c0.9,0.9,1.3,2.2,1.3,4C372.2,432.1,371.3,434.4,369.9,436.2L369.9,436.2z M369.9,436.2"/>
	<path class="st2" d="M314.8,411.1c-5.4,0-9.9,0.9-13,2.7c-3.6,2.2-6.3,4.9-8.1,9c-1.8,3.1-3.1,7.2-4.5,11.6
		c-1.3,4.9-2.7,10.3-3.6,17c-0.4,2.2-0.9,4.5-0.9,6.7c-0.4,1.8-0.4,3.6-0.4,4.9c0,5.4,1.3,9.4,3.6,12.1c2.7,3.1,6.3,4.5,11.2,4.5
		c3.1,0,6.3-0.9,8.5-1.8c2.7-1.3,4.5-3.6,6.3-5.8l-0.9,5.8h11.2l7.6-35.4h-21.9l-2.7,11.2h5.8c-0.9,5.8-2.2,9.9-3.6,11.7
		c-1.3,1.3-3.1,2.2-5.4,2.2c-1.3,0-2.2-0.4-3.1-1.3c-0.9-0.5-1.4-1.8-1.4-3.1c0-0.9,0.9-4,1.8-8.9v-0.5l4-17
		c1.3-6.3,2.7-9.9,3.6-11.2c1.4-1.8,2.7-2.2,4.9-2.2c1.3,0,2.7,0.5,3.6,1.3c0.9,0.9,1.3,2.2,1.3,4c0,0.5-0.5,1.3-0.5,2.7
		c0,0.9,0,2.2-0.4,3.1h15.2c0.4-1.4,0.4-2.7,0.4-3.6c0.4-1.3,0.4-2.2,0.4-3.1c0-5.4-1.8-9.4-4.9-12.1
		C325.6,412.4,321.1,411.1,314.8,411.1"/>
	<path class="st2" d="M220.7,416.4c-1.8-1.3-4-2.2-6.7-3.1c-2.2-0.4-5.8-0.4-10.8-0.4h-1.3h-15.2l-14.8,65H188l5.8-26.9h4
		c1.8,0,3.1,0.4,4,1.3c0.4,0.4,0.9,0.9,1.3,1.3c0,0.5,0.4,1.3,0.4,2.2c0,0.9-0.4,2.2-0.4,4.5c-0.4,1.3-0.9,2.7-0.9,4.5
		c-1.3,4-1.8,7.2-1.8,9c0,0.9,0.5,1.8,0.5,2.2c0,0.9,0.4,1.3,0.4,1.8h1.8h15.2v-1.3c-0.4-0.4-0.9-1.3-0.9-1.8c0-0.9-0.4-1.8-0.4-3.1
		c0-1.8,0.4-4.9,1.3-8.5c0.9-4,1.3-6.7,1.3-8.5c0-2.2-0.4-4-1.8-5.4c-0.9-1.4-3.1-2.3-5.4-2.7c4.5-1.3,7.6-3.1,9.9-6.3
		c2.2-2.7,3.1-6.7,3.1-12.1c0-2.7-0.4-4.9-1.3-6.7C223.9,419.6,222.5,417.8,220.7,416.4 M206.8,437c-0.9,0.9-2.2,1.8-3.6,2.3h-3.1
		h-3.6l3.6-15.7h3.1h0.4c1.8,0,3.1,0.5,4.5,1.8c0.9,0.9,1.3,2.2,1.3,4C209.5,432.6,208.6,435.3,206.8,437L206.8,437z M206.8,437"/>
	<polyline class="st2" points="412,431.7 408.5,412.9 392.3,412.9 402.2,447.4 395.5,477.8 411.1,477.8 417.9,449.2 439.8,412.9 
		421.9,412.9 	"/>
	<path class="st2" d="M268.2,412.9l-9.4,41.2l-0.5,1.3c-1.8,8.1-4.5,12.5-8.1,12.5c-1.3,0-2.7-0.4-3.1-1.3c-0.9-0.4-1.4-1.8-1.4-2.7
		c0-0.9,0-1.8,0.5-3.1c0-1.3,0.4-3.1,0.9-5.8l9.9-42.1h-16.6l-8.1,36.3c-0.9,3.6-1.3,6.7-1.8,8.9c-0.4,2.7-0.4,4.5-0.4,5.8
		c0,4.9,1.8,8.9,5.4,11.6c3.1,2.7,8.5,4,15.7,4c4,0,7.2-0.5,9.9-1.8c2.7-0.9,4.9-2.7,7.2-4.9c0.9-1.3,2.2-3.1,3.1-5.8
		c0.9-2.2,1.8-6.3,3.1-11.6l9.9-42.6"/>
	<path class="st1" d="M481.7,72.6C335.7,5,192,3,54.7,66.8l-1.1,0.5l-0.3,1.2C9.6,214.7,52.9,319.4,182,379.9l0.8,0.4l0.9-0.2
		C341.2,348,442,245.6,483.2,75.7l0.5-2.2 M183.5,374.6C89.5,330.3,42.3,261.9,42.3,170.4c0-30.5,5.3-63.6,15.8-99.2
		C192.9,9,334,10.8,477.4,76.6C435.9,244.9,339.8,342.4,183.5,374.6L183.5,374.6z M183.5,374.6"/>
	<path class="st2" d="M205,242.6C133.8,223.8,93.9,171.4,99.8,70.1c-39,94.1,3.6,188.6,108.4,217.7c82.9,14.3,146.9-6.3,191.3-66.3
		C335.9,251.6,271.3,256.9,205,242.6"/>
	<path class="st2" d="M193.8,302.2C112.8,278.5,64.8,217.5,72,94.8c-16.6,47.5-21.1,95.4-7.2,137.1c20.2,60.5,73,107.5,128.1,120.1
		c46.2-1.8,95-23.3,136.2-56.9C285.2,309.8,240.4,312.5,193.8,302.2"/>
	<path class="st1" d="M235.1,37.8c39,2.7,76.2,9.9,110.7,26c17.9,9.4,29.1,20.2,26.4,34c16.1,15.7,18.8,35,7.6,57.8
		c-40.3-33.2-86-37.6-132.2-14.8c4.5-9,9-17.9,13.4-26.9c-18.4-3.1-36.7-6.3-54.7-9.4c16.1-6.7,32.7-13.4,48.8-20.2
		c-16.1-4.5-32.3-9-48.4-13.4c18.4-5.4,36.3-10.8,54.2-16.1c-47.9-4-145.6-11.7-148.7,56.5c0.9,18.4,3.1,35.8,15.2,49.3
		c-5.8-26.4-5.4-40.8,2.2-42.6c21.5-9.9,48.8,9.9,77.1,34c23.3,18.8,36.3,41.2,39,66.8c-21.5,3.1-49.7-4.9-82.9-17.5
		c64.5,48.4,170.7,30,245.5,0.9c-16.1,0-33.6-1.3-49.7-0.9c0-1.8,0.4-3.6,0.9-5.4c26.9-6.3,51.1-17.5,71.2-35.4
		c-13,0.4-25.5,0.9-38.5,1.8c25.1-13.4,55.6-23.8,61.4-49.3c5.4-37.2-69.9-56.9-94.1-62.7C317.1,40.5,270.9,36.1,235.1,37.8
		 M251.2,218c-8.1-50.2-39-87.8-103.5-106.6c24.2-2.2,53.3,8.5,86.5,33.1C254.8,171.8,264.6,197.4,251.2,218L251.2,218z M251.2,218"
		/>
	<polyline class="st1" points="360.5,101 303.6,81.8 328.3,96.1 323.8,106 	"/>
	<polyline class="st1" points="288.4,355.5 287.5,357.7 292.4,357.7 289.3,371.2 292.9,371.2 295.6,357.7 300,357.7 300.5,355.5 
		300,355.5 	"/>
	<polyline class="st1" points="314.4,371.2 317.5,355.5 313,355.5 307.6,366.3 307.2,355.5 302.7,355.5 300,368.1 299.1,371.2 
		300,371.2 302.3,371.2 304.5,357.7 305.4,371.2 308.5,371.2 314.4,357.7 311.2,371.2 	"/>
</g>
</svg>
