<?xml version="1.0" encoding="utf-8"?>
<!-- Generator: Adobe Illustrator 19.1.0, SVG Export Plug-In . SVG Version: 6.00 Build 0)  -->
<svg version="1.1" id="Layer_1" xmlns="http://www.w3.org/2000/svg" xmlns:xlink="http://www.w3.org/1999/xlink" x="0px" y="0px"
	 viewBox="0 0 160 160" style="enable-background:new 0 0 160 160;" xml:space="preserve">
<style type="text/css">
	.st0{fill:#CB2128;}
	.st1{fill:#FCBC16;}
	.st2{fill:#FFFFFF;}
	.st3{fill:#008348;}
</style>
<g>
	<path class="st0" d="M72.5,4.2h4.2c-0.5,1.4-0.9,2.8-1.4,4.1c1,2.6,2,5.2,3,7.8c1-2.6,2.1-5.3,3.1-7.9c-0.5-1.4-1-2.7-1.5-4.1h5.3
		l-0.7,0c4.4,2.6,8.9,5.3,13.3,7.9c0,4.8,0,9.6,0,14.4c-1.4,1-2.9,1.9-4.3,2.9c0-1.4,0.1-2.8-0.2-4.1c-1.8-2.1-4-3.9-5.9-5.9
		c0.8,2.7,1.7,5.5,2.4,8.2c-3.8,2.6-7.6,5.3-11.5,7.9c-3.8-2.7-7.7-5.4-11.5-8.2c0.8-2.7,1.6-5.5,2.4-8.2c-2.1,1.9-4.1,3.8-6.2,5.7
		c0,1.5,0,2.9,0,4.4c-1.4-0.9-2.8-1.9-4.3-2.8c0-4.9,0-9.8,0-14.8C63.4,9.2,67.9,6.6,72.5,4.2L72.5,4.2z"/>
	<path class="st0" d="M44.6,30.6c4.8,2.6,9.6,5.1,14.4,7.7c3.9,13.6,7.8,27.2,11.7,40.8c-0.7,0.4-1.3,0.7-2,1.1
		c-4.3-11.9-8.7-23.7-13-35.6c-0.3-0.7-0.5-1.4-1.2-1.8c-2.1-1.4-4.4-2.6-6.5-3.9c-3.4,3.3-6.8,6.7-10.2,10.1c0.3,1.9,0.7,3.8,1,5.6
		c-3.2-3.4-7.2-6.3-9.2-10.7c-0.6,1.9-1.2,3.9-1.9,5.8c2.5,2.5,5.1,5.1,7.6,7.6c-1.9-0.1-3.9,0.2-5.9-0.2c-2.4-2.1-4.5-4.6-6.6-7
		V37.8c4.7-1.9,9.4-3.9,14.1-5.8c-2.2,2.3-4.3,4.5-6.5,6.8c1.6,1.7,3.2,3.5,4.8,5.2c0-1.5,0-3,0-4.5C38.5,36.6,41.5,33.6,44.6,30.6
		L44.6,30.6z"/>
	<path class="st0" d="M97.5,38.4c4.8-2.6,9.6-5.1,14.4-7.7c3,3,6.1,5.9,9.1,8.9c0,1.5,0,3,0,4.4c1.6-1.7,3.2-3.5,4.8-5.2
		c-2.2-2.3-4.3-4.5-6.5-6.8c4.7,2,9.4,3.9,14.1,5.8v12.5c-2.1,2.5-4.4,4.8-6.6,7.1c-2,0-3.9,0-5.9,0c2.6-2.5,5.1-5.1,7.6-7.6
		c-0.7-1.9-1.3-3.8-1.9-5.8c-2,4.4-6,7.3-9.2,10.7c0.3-1.9,0.7-3.8,1-5.6c-3.4-3.4-6.8-6.7-10.2-10.1c-2.2,1.3-4.4,2.5-6.5,3.9
		c-0.7,0.4-0.9,1.2-1.2,1.9C96.4,56.7,92,68.5,87.7,80.3c-0.6-0.4-1.3-0.8-1.9-1.1C89.7,65.6,93.7,52,97.5,38.4L97.5,38.4z"/>
	<path class="st0" d="M66.2,32.7c3.3,2.2,6.5,4.5,9.8,6.7c0,11.1,0,22.1,0,33.2c-0.9,0-1.8,0-2.7,0C71,59.3,68.7,46,66.2,32.7
		L66.2,32.7z"/>
	<path class="st0" d="M80.4,39.4c3.3-2.2,6.5-4.5,9.8-6.7c-2.5,13.3-4.7,26.6-7.1,39.8c-0.9,0-1.8,0-2.7,0
		C80.4,61.5,80.4,50.5,80.4,39.4L80.4,39.4z"/>
	<path class="st0" d="M44,51.3c1.8-2.4,3.5-4.8,5.3-7.2c0.7,0.3,1.4,0.7,2.1,1c4.5,12.5,9,24.9,13.6,37.4c-0.6,0.4-1.2,0.8-1.9,1.2
		C56.7,72.9,50.4,62.1,44,51.3L44,51.3z"/>
	<path class="st0" d="M105.1,45.1c0.7-0.4,1.4-0.7,2.1-1c1.8,2.4,3.5,4.8,5.3,7.2c-6.4,10.8-12.8,21.6-19.1,32.4
		c-0.6-0.4-1.3-0.8-1.9-1.2C96.1,70.1,100.6,57.6,105.1,45.1L105.1,45.1z"/>
	<path class="st1" d="M73.9,75.2c2.9,0,5.7,0,8.6,0c-0.9,2-1.9,4-2.8,6c-0.9,0-1.9,0-2.8,0C75.8,79.3,74.8,77.2,73.9,75.2L73.9,75.2
		z"/>
	<path class="st1" d="M48.2,87c1.3-1.6,2.7-3.1,4-4.7c2.2,5.2,4.5,10.3,6.8,15.5c-0.5,0.5-1,1-1.4,1.4C54.4,95.2,51.3,91.1,48.2,87
		L48.2,87z"/>
	<path class="st1" d="M104.1,82.4c1.3,1.5,2.7,3.1,4,4.6c-3.1,4.1-6.2,8.1-9.3,12.2c-0.5-0.5-0.9-1-1.4-1.4
		C99.6,92.7,101.8,87.5,104.1,82.4L104.1,82.4z"/>
	<path class="st1" d="M71.6,88c2.2-1.1,4.3-2.1,6.5-3.1c2.2,1.1,4.3,2.1,6.5,3.1c-2.2,1.1-4.4,2.2-6.6,3.3
		C75.9,90.2,73.7,89.1,71.6,88L71.6,88z"/>
	<path class="st1" d="M63.4,87.5c1.7-0.6,4.4-0.6,5.3,1.3c0.4,2.2-1.9,3.7-3.8,4.2c-1.7,0.5-4.3,0.7-5.2-1.3
		C59.3,89.6,61.6,88.1,63.4,87.5L63.4,87.5z"/>
	<path class="st1" d="M89.4,87.5c2.3-0.5,4.9,0.4,6.4,2.2c0.8,0.9,0.9,2.7-0.3,3.3c-2.6,1.3-6.3,0.1-7.8-2.4
		C86.9,89.3,88,87.7,89.4,87.5L89.4,87.5z"/>
	<path class="st1" d="M69.5,94.9c5.7,0,11.4,0,17.2,0c3.4,2.3,6.8,4.6,10.2,7c-2.4,0-4.8,0-7.1,0c-1.6-1.1-3.1-2.8-5.2-2.6
		c-4.6,0-9.1,0-13.7,0c-2.2-0.2-3.5,2.3-5.6,2.2c-1.9,0.1-3.9,0-5.8,0C62.8,99.3,66.2,97.1,69.5,94.9L69.5,94.9z"/>
	<path class="st0" d="M70.3,104.2c1.2-0.8,2.4-1.6,3.6-2.4c0,3.8,0,7.7,0,11.5c-0.7,0-1.4,0-2.1,0C71.3,110.3,70.8,107.3,70.3,104.2
		L70.3,104.2z"/>
	<path class="st0" d="M75.9,101.8c1.5,0,2.9,0,4.4,0c-0.3,5.1-0.9,10.2-1.1,15.3c-0.7,0-1.4,0-2.1,0C76.5,112,76.3,106.9,75.9,101.8
		L75.9,101.8z"/>
	<path class="st0" d="M82.4,101.8c1.2,0.8,2.3,1.6,3.5,2.4c-0.5,3-1,6.1-1.4,9.1c-0.7,0-1.4,0-2.1,0
		C82.4,109.5,82.5,105.7,82.4,101.8L82.4,101.8z"/>
	<path class="st0" d="M54.3,121.2c1.4,0,2.8,0,4.2,0c0.5,2.8,0.9,5.6,1.4,8.4c0.5-2.8,0.9-5.5,1.5-8.3c1.1-0.2,2.3-0.1,3.5-0.2
		c0.5,2.8,1,5.6,1.5,8.3c0.6-2.7,1-5.5,1.6-8.2c1.4,0,2.7,0,4.1,0c-1.2,5.7-2.5,11.4-3.7,17.1c-1,0-2,0-3,0
		c-0.8-2.8-1.4-5.6-2.3-8.3c-0.6,2.7-1.1,5.4-1.8,8.1c-1.1,0-2.1,0-3.2-0.2C56.7,132.5,55.6,126.8,54.3,121.2L54.3,121.2z"/>
	<path class="st0" d="M75.8,121.3c2.4,0.1,4.9-0.1,7.3,0.1c2.3,0.3,3.4,2.9,3.1,5c0.1,1.8-1,3.3-2.3,4.5c1.1,2.5,2.2,5,3.3,7.5
		c-1.6,0-3.1,0-4.7,0c-0.8-2.2-1.6-4.4-2.5-6.6c0,2.2,0,4.4,0,6.6c-1.4,0-2.8,0-4.2,0C75.8,132.7,75.8,127,75.8,121.3L75.8,121.3z"
		/>
	<path class="st0" d="M90.6,121.4c1.4,0,2.7,0,4.1,0c0,3.9-0.1,7.7,0,11.6c0,0.6,0.6,1.6,1.3,1.6c1.1-0.1,1.1-1.8,1.2-2.6
		c0.2-3.5-0.1-7.1-0.1-10.6c1.4,0,2.8,0,4.2,0c0,4,0,8.1,0,12.1c0,2.5-1.8,5.1-4.5,5.3c-2.9,0.6-6.1-1.7-6.1-4.8
		C90.5,129.8,90.7,125.6,90.6,121.4z"/>
	<path class="st2" d="M80.2,124.4c0.9,0.4,2.2,0.7,2,2c0.2,1.4-1,2.1-2,2.8C80.1,127.6,80.1,126,80.2,124.4L80.2,124.4z"/>
	<path class="st3" d="M38.8,142.9c25.9,0,51.9,0,77.8,0c0,3,0,6,0,8.9c-25.9,0-51.9,0-77.8,0C38.9,148.8,38.9,145.8,38.8,142.9
		L38.8,142.9z"/>
	<path class="st3" d="M38.9,154.2c25.9,0,51.8,0,77.7,0c0,0.9,0,1.8,0,2.7H39C38.9,156,38.9,155.1,38.9,154.2L38.9,154.2z"/>
</g>
<g>
	<g>
		<g>
			<path class="st0" d="M104.3,135.1h-1.1v-0.8h3.2v0.8h-1.1v3.3h-0.9V135.1z"/>
			<path class="st0" d="M110.3,136.8c0-0.5,0-1.1,0-1.7h0c-0.1,0.5-0.3,1.1-0.5,1.6l-0.5,1.6h-0.7l-0.4-1.6
				c-0.1-0.5-0.3-1.1-0.4-1.6h0c0,0.6,0,1.2-0.1,1.7l-0.1,1.6h-0.9l0.3-4.1h1.2l0.4,1.4c0.1,0.5,0.3,1,0.3,1.5h0
				c0.1-0.5,0.3-1,0.4-1.5l0.4-1.4h1.2l0.2,4.1h-0.9L110.3,136.8z"/>
		</g>
	</g>
	<g>
		<g>
			<path class="st0" d="M114.8,136.6c0.1,0,0.3,0.1,0.4,0.1c-0.1,0.4-0.3,0.7-0.7,0.8c-0.3,0.1-0.8,0.1-1.1,0
				c-0.4-0.2-0.7-0.7-0.7-1.1c0-0.3,0-0.6,0.2-0.9c0.2-0.4,0.6-0.6,1.1-0.6c0.2,0,0.4,0,0.6,0.1c0.2,0.1,0.4,0.4,0.5,0.6
				c-0.1,0-0.3,0.1-0.4,0.1c-0.1-0.2-0.2-0.3-0.4-0.4c-0.1-0.1-0.3-0.1-0.4-0.1c-0.3,0-0.6,0.2-0.7,0.5c-0.1,0.3-0.1,0.6-0.1,0.9
				c0,0.2,0.2,0.4,0.4,0.5c0.3,0.2,0.8,0.1,1-0.1C114.7,136.9,114.7,136.8,114.8,136.6z"/>
		</g>
		<g>
			<path class="st0" d="M116.4,135.8c-0.1-0.6-0.5-1.2-1-1.5c-0.5-0.4-1.2-0.5-1.9-0.4c-0.3,0.1-0.6,0.2-0.9,0.4
				c-0.5,0.3-0.8,0.9-1,1.5c-0.2,1,0.3,2.2,1.2,2.7c0.6,0.3,1.3,0.4,1.9,0.1c0.5-0.2,0.9-0.5,1.2-0.9
				C116.3,137.1,116.5,136.4,116.4,135.8z M115.1,138c-0.3,0.2-0.6,0.3-1,0.3c-0.6,0-1.3-0.3-1.7-0.8c-0.3-0.4-0.5-1-0.4-1.6
				c0.1-0.5,0.4-1,0.8-1.3c0.2-0.2,0.5-0.3,0.8-0.3c0.2,0,0.4,0,0.6,0c0.5,0.1,1.1,0.4,1.4,0.8c0.2,0.3,0.4,0.7,0.4,1.1
				C116,136.9,115.7,137.6,115.1,138z"/>
		</g>
		<g>
			<path class="st0" d="M115.2,136.8c-0.1,0.4-0.3,0.7-0.7,0.8c-0.3,0.1-0.8,0.1-1.1,0c-0.4-0.2-0.7-0.7-0.7-1.1
				c0-0.3,0-0.6,0.2-0.9c0.2-0.4,0.6-0.6,1.1-0.6c0.2,0,0.4,0,0.6,0.1c0.2,0.1,0.4,0.4,0.5,0.6c-0.1,0-0.3,0.1-0.4,0.1
				c-0.1-0.2-0.2-0.3-0.4-0.4c-0.1-0.1-0.3-0.1-0.4-0.1c-0.3,0-0.6,0.2-0.7,0.5c-0.1,0.3-0.1,0.6-0.1,0.9c0,0.2,0.2,0.4,0.4,0.5
				c0.3,0.2,0.8,0.1,1-0.1c0.1-0.1,0.1-0.2,0.2-0.4C114.9,136.7,115,136.7,115.2,136.8z"/>
		</g>
		<g>
			<path class="st0" d="M115.2,136.8c-0.1,0.4-0.3,0.7-0.7,0.8c-0.3,0.1-0.8,0.1-1.1,0c-0.4-0.2-0.7-0.7-0.7-1.1
				c0-0.3,0-0.6,0.2-0.9c0.2-0.4,0.6-0.6,1.1-0.6c0.2,0,0.4,0,0.6,0.1c0.2,0.1,0.4,0.4,0.5,0.6c-0.1,0-0.3,0.1-0.4,0.1
				c-0.1-0.2-0.2-0.3-0.4-0.4c-0.1-0.1-0.3-0.1-0.4-0.1c-0.3,0-0.6,0.2-0.7,0.5c-0.1,0.3-0.1,0.6-0.1,0.9c0,0.2,0.2,0.4,0.4,0.5
				c0.3,0.2,0.8,0.1,1-0.1c0.1-0.1,0.1-0.2,0.2-0.4C114.9,136.7,115,136.7,115.2,136.8z"/>
		</g>
	</g>
</g>
</svg>
