<?xml version="1.0" encoding="utf-8"?>
<!-- Generator: Adobe Illustrator 19.1.0, SVG Export Plug-In . SVG Version: 6.00 Build 0)  -->
<svg version="1.1" id="Layer_1" xmlns="http://www.w3.org/2000/svg" xmlns:xlink="http://www.w3.org/1999/xlink" x="0px" y="0px"
	 viewBox="0 0 250 250" style="enable-background:new 0 0 250 250;" xml:space="preserve">
<style type="text/css">
	.st0{fill:#FFFFFF;}
	.st1{fill:#CE1141;}
	.st2{fill:#ED1C2E;}
	.st3{fill:#003976;}
	.st4{fill:#86754D;}
</style>
<g>
	<g>
		<g>
			<path class="st0" d="M124.8,5.7c31.7,0,62.4,6.5,91.3,19.4c6,24.4,9.8,49.9,9.9,66.6c0,0.3,0,0.6,0,0.9c0,16.4-2.4,32.5-7,47.8
				c-4.6,15-11.4,29.2-20.3,42.2c-8.7,12.8-19.5,24.6-32,34.9c-13.3,11-28.9,20.9-41.8,26.6c-12.9-5.7-28.5-15.6-41.8-26.6
				c-12.5-10.4-23.3-22.1-32-34.9c-8.9-13-15.7-27.2-20.3-42.2c-4.7-15.3-7-31.3-7-47.8c0-0.3,0-0.6,0-0.9
				c0.1-16.7,3.9-42.1,9.9-66.6C62.4,12.2,93.1,5.7,124.8,5.7"/>
			<path class="st1" d="M124.8,99.6c7,0,13.6,1.8,19.4,5h58.9c0.1-4.1,0-8.7,0-13.1c-0.3-18-5.6-48.5-10.7-69.6
				c-20.9-6.8-43.3-10.7-67.5-10.7"/>
			<path class="st2" d="M124.8,11.2c-23.6,0-45.4,3.5-67.5,10.6c-5.4,21.9-9.9,50.9-10.6,64.8c-1,20.4,0.5,35.1,4.6,51.2
				c2.3,9.1,5.4,17.6,9.2,26.2c4.2-2.2,8.5-5,12.9-8.2c4.6-3.4,8.6-7.8,11.9-12c-0.2-1.5-0.3-3.1-0.3-4.6c0-2.4,0.2-4.7,0.6-7
				c-8.1,0.3-12.8,0.4-16.4,0.4c-4.4,0-8.4-3.1-10.3-7.7c-1,0-2,0-2,0c-1.6,0-4.2-1.3-4.2-6.3c0-5,2.6-6.3,4.2-6.3c0,0,1.1,0,2,0
				c1.9-4.7,5.9-7.7,10.3-7.7h36.1c5.7-3.2,12.3-5,19.4-5"/>
			<path class="st3" d="M88.9,209.7c-11.1-11.1-20.3-23.4-27.6-36.5c-7.4-13.3-12.6-28.1-15.7-42.9c-3.2-15.2-4.2-30.6-3.1-46.9
				c1-15.3,5-38.6,10-60C47.7,25.2,43,27,38.3,29c-5.3,21.1-8.9,47.9-9,62.5c-0.1,16.3,2.2,32.1,6.8,47
				c4.8,15.6,11.1,28.3,19.6,40.7c8.4,12.4,18.8,23.7,30.9,33.8c11.3,9.4,24.2,17.6,38.2,24.6c0,0,0,0,0,0
				C111.4,229.5,99.3,220.1,88.9,209.7"/>
			<path class="st3" d="M160.6,209.7c11.1-11.1,20.3-23.4,27.6-36.4c7.4-13.3,12.6-28.1,15.7-42.9c3.2-15.2,4.2-30.6,3.1-46.9
				c-1-15.3-5.1-38.6-10-60.1c4.8,1.7,9.5,3.6,14.2,5.6c5.3,21.1,8.9,47.9,9,62.5c0.1,16.3-2.2,32.1-6.8,47
				c-4.4,14.5-11,28.1-19.6,40.7c-8.4,12.4-18.8,23.7-30.9,33.8c-11.3,9.4-24.2,17.6-38.2,24.6l0,0
				C138.1,229.5,150.2,220.1,160.6,209.7"/>
			<path class="st4" d="M124.8,101.6c-20.8,0-37.7,16.9-37.7,37.7c0,20.8,16.9,37.7,37.7,37.7c20.8,0,37.7-16.9,37.7-37.7
				C162.4,118.5,145.6,101.6,124.8,101.6"/>
			<path class="st2" d="M124.8,179c-12.8,0-24.2-6.1-31.5-15.5c-8.9,5-18.2,9-27.1,11.8c7,12.4,15.7,23.9,26.2,34.5
				c9.5,9.5,20.3,18.2,32.3,26"/>
			<path class="st4" d="M69.3,130.7c-4.1,0-7.6-3.2-8.9-7.7c-1.7,0-3.4,0-3.4,0c-0.9,0-2.2-1.1-2.2-4.3c0-3.2,1.3-4.3,2.2-4.3
				c0,0,1.8,0,3.4,0c1.4-4.5,4.9-7.7,8.9-7.7h33c-8,5.5-13.9,13.9-16.1,23.7C78.8,130.6,73.2,130.7,69.3,130.7"/>
			<path class="st4" d="M194,179.3c-8.4,12.4-18.8,23.8-30.9,33.8c-11.3,9.4-24.2,17.6-38.2,24.6c-14.1-6.9-26.9-15.2-38.2-24.6
				c-12.1-10-22.5-21.4-30.9-33.8c-0.7-1-1.3-2-2-3c12.3-2.1,25.9-7.3,38.5-14.5c-3.1-4.5-5.4-9.7-6.4-15.3
				c-3.1,3.9-6.9,7.8-11.2,11c-6.9,5.2-15.3,10.3-24.4,13.1c-5.9-10.1-10.7-20.9-14.1-32.1c-4.6-14.9-6.9-30.7-6.8-47
				c0.1-14.7,3.8-41.4,9-62.5c27.4-11.8,56.5-17.8,86.5-17.8s59.1,6,86.5,17.8c5.3,21.1,8.9,47.9,9,62.5c0,5-0.2,10.1-0.6,15h-72.5
				c9,6.2,15.3,16,16.8,27.3l13.8-3.3c3.1-0.7,4.3-2.8,4.7-4.7l34.8-2.3c-1,5.1-2.3,10.1-3.8,15C209.1,153,202.5,166.7,194,179.3
				 M216.9,24.3c-28-12.5-58.8-19.6-92.1-19.6s-64.1,7.1-92.1,19.6c-6.5,26.2-9.9,51.5-10,67.3c-0.1,16.9,2.3,33.3,7.1,49
				c4.6,15.1,11.5,29.4,20.4,42.5c8.8,12.9,19.6,24.7,32.2,35.1c11.8,9.8,27.8,20.6,42.4,26.9c14.6-6.3,30.6-17.1,42.4-26.9
				c12.6-10.4,23.4-22.3,32.2-35.1c8.9-13.1,15.8-27.4,20.4-42.5c4.8-15.6,7.2-32.1,7.1-49C226.8,75.8,223.3,50.4,216.9,24.3z"/>
			<path class="st0" d="M127.3,149.7V170c9.5-0.8,17.7-5.8,22.9-13.2l-17.6-10.2C131.1,148.1,129.3,149.2,127.3,149.7"/>
			<path class="st0" d="M122.3,108.6c-9.5,0.7-17.8,5.8-22.9,13.2l17.6,10.1c1.4-1.5,3.2-2.6,5.3-3.1"/>
			<path class="st0" d="M124.7,133.8c-3,0-5.5,2.5-5.5,5.5c0,3,2.5,5.5,5.5,5.5c3,0,5.5-2.5,5.5-5.5
				C130.2,136.2,127.8,133.8,124.7,133.8"/>
			<path class="st0" d="M127.3,108.6v20.3c2.1,0.5,3.9,1.6,5.3,3.1l17.5-10.1C145,114.4,136.8,109.3,127.3,108.6"/>
			<path class="st0" d="M122.3,149.7c-1.7-0.4-3.2-1.2-4.5-2.3c-0.3-0.2-0.6-0.5-0.8-0.8l-17.6,10.2c0.4,0.6,0.8,1.2,1.3,1.7
				c5.2,6.4,12.9,10.8,21.6,11.5"/>
			<path class="st0" d="M135.1,142.4l17.6,10.1c3.5-7.1,4.4-17.3,0-26.4l-17.6,10.1C135.6,138,135.7,140.3,135.1,142.4"/>
			<path class="st4" d="M102.3,121.2l14.3,8.2c1.1-0.9,2.3-1.6,3.7-2.1v-16.5C113.2,111.9,106.8,115.6,102.3,121.2"/>
			<path class="st4" d="M129.3,110.8l0,16.6c1.3,0.5,2.5,1.1,3.6,2l14.4-8.2C142.7,115.6,136.3,111.9,129.3,110.8"/>
			<path class="st4" d="M153.5,136.3c-0.3-2.5-0.9-5-1.8-7.4l-14.4,8.3c0.1,0.7,0.2,1.4,0.2,2.1c0,0.3,0,0.6,0,0.8
				c4.1-1.1,8.3-2.2,12.7-3.1C151.2,136.8,152.3,136.6,153.5,136.3"/>
			<path class="st1" d="M124.8,235.7c12-7.8,22.8-16.5,32.3-26c11.1-11.2,20.3-23.5,27.5-36.7c7.3-13.3,12.5-28.2,15.5-43
				c0.2-1.2,0.5-2.3,0.7-3.4l-16.7,1.2c-0.9,2.4-2.9,4.1-5.7,4.7h0c-0.1,0-6.2,1.5-14.1,3.4c0.1,1.1,0.2,2.3,0.2,3.4
				c0,21.9-17.7,39.7-39.6,39.7"/>
			<path class="st4" d="M128.3,139.3c0-1.9-1.6-3.5-3.5-3.5c-1.9,0-3.5,1.6-3.5,3.5c0,1.9,1.6,3.5,3.5,3.5
				C126.7,142.8,128.3,141.2,128.3,139.3"/>
			<path class="st1" d="M129.2,167.8c7.1-1.1,13.5-4.7,18-10.4l-14.4-8.3c-1.1,0.9-2.3,1.6-3.6,2.1
				C129.2,151.2,129.3,167.8,129.2,167.8"/>
			<path class="st2" d="M102.3,157.4l14.4-8.3c1.1,0.9,2.3,1.6,3.6,2.1l0,16.6C113.2,166.7,106.8,163,102.3,157.4"/>
			<path class="st1" d="M153.6,139.3c0-0.4,0-0.8,0-1.2c-1.1,0.2-2.1,0.5-3.1,0.6c-4.4,0.9-8.6,2-12.4,3l13.6,7.9
				C153,146.4,153.6,142.9,153.6,139.3"/>
			<path class="st0" d="M96.9,126.1c-4.1,8.6-3.8,18.3,0.1,26.4l17.5-10.2c-0.6-2-0.6-4.1,0-6.2"/>
			<path class="st4" d="M97.9,149.7l14.3-8.3c-0.2-1.4-0.2-2.8,0-4.2l-14.4-8.2C95.2,135.6,95.2,143,97.9,149.7"/>
			<path class="st4" d="M173.8,72.4c-1.9,0.1-2.3-1.2-2.3-2.2c0-1,0.3-2.4,3.3-3.2c0.1,1,0.2,2.1,0.2,2.1L175,70
				c0,0.7,0.1,1.3,0.2,1.9C174.8,72.2,174.3,72.4,173.8,72.4 M136.6,69.3c-2.1,1.8-3.6,2.9-6.1,2.9c-2,0-3.2-1.4-3.9-2.9
				c2.1-0.8,10.2-3.8,12.5-4.7c0,1.7,0.1,3.9,0.1,3.9v0c0,1.3,0.1,2.6,0,3.9c0,0,0,0,0,0L136.6,69.3z M125.3,62.5
				C125.3,62.5,125.3,62.5,125.3,62.5c0-3.4,1.2-4.7,2.4-4.8c0.3,0,1.3-0.1,1.7,1.4c0.2,0.6,0.2,1.1,0.2,1.4c0,0.9-0.5,1.1-1.1,1.3
				l0,0c0,0-1.7,0.7-3.2,1.3C125.3,62.9,125.3,62.7,125.3,62.5z M64.3,65c0.6-1.6,1-2.9,2-5.7c0.6,2.8,0.9,4.2,1.2,5.6
				C66.2,64.9,65.6,64.9,64.3,65z M139.1,74.7c0,0.8-0.2,3.4-0.3,4.1h11.4c-0.7-3.1-0.9-7.3-1-10.5c0,0-0.2-6.6-0.2-6.6
				c0-0.6,0.2-1.2,0.5-1.5c0.3-0.4,0.8-0.6,1.2-0.6c0.5,0,1.4,0,1.5,1.8l0.3,7c0.1,3.1,0.2,7.6-0.3,10.3h11.1
				c-0.2-1-0.5-3.2-0.6-3.9c1.4,3,4.4,4.5,8.4,4.5c2.4,0,4.2-0.9,5.6-1.7c0,0.1,0.6,1.1,0.6,1.1h20.6c-0.9-3.1-1.5-7.4-1.8-10.6
				l-2.8-23l-10.6-1.7c0.9,2.9,1.5,7.3,1.9,10.5l1.6,14.7c0.3,2.7,0.6,5.6,0.6,8.5l0,0.4l-0.4-1.1c-0.7-1.8-1.2-4.3-1.4-7.7
				c0,0-0.4-4.7-0.4-4.7c-0.6-7.5-4.7-10.9-13.6-10.9c-1.5,0-5.3,0.4-7.6,1l0.6,8.5l2.4-1.5c2-1.2,3.5-1.7,5.3-1.7
				c1.4,0,2.3,0.6,2.8,1.5c-1.8,0.3-3.6,0.7-5.7,1.7c-3.2,1.4-5.2,3.4-6,5.9c0-0.1,0-0.1,0-0.2l-0.4-7.8c-0.2-5-3.3-8.2-8.2-8.2
				c-2.2,0-4.2,0.6-6,1.9c-0.1-0.3-0.2-0.6-0.3-0.8l-0.5-0.9l-9.1-0.4c0.4,1.6,1,6.2,1.1,8c-0.5-2.5-1.8-5.1-4.2-6.9
				c-1.9-1.3-4.2-2-6.8-2c-3.4,0-6.8,1.4-9.2,3.8c-2.3,2.4-3.6,5.6-3.7,9.4c-0.9-0.9-2-1.8-3.5-2.4l-4.2-2l-0.2-0.1
				c-1-0.5-1-0.6-1-0.9c0-0.4,1-0.9,2.4-0.9c1.7,0,4.2,0.9,6.2,2.2l0.2-7.5c-1.5-0.7-3.6-1.2-6.6-1.2c-1.6,0-4.6,0.2-7.1,1.7l0,0
				c-0.7,0.4-1.3,0.9-1.9,1.4l0.1-2.2c-2.4-0.3-5-0.3-8.2,2.6c0-0.2-0.2-1.2-0.5-1.8L81,53.9c0.7,2.6,0.8,6.7,0.6,10.2l-0.2,3.8
				c0,0,0,0.4,0,0.4c-0.1,2-0.2,4-0.4,5.9c-0.8-2.5-1.7-6-2.4-8.9l-4.9-21.9l-13.9,2c0.1,0.3,0.3,1,0.4,1.7c0.1,0.9,0.1,2.8-1.2,6.7
				c-2.2,6.5-5.5,16.1-8.5,22.8c-0.4,0.9-1.2,2.5-1.2,2.5H60c0.1-1.7,0.9-4.5,1.5-6.5c1.5-0.1,5.4-0.1,7.3-0.2
				c0.3,1.6,0.8,3.8,0.9,5.1l0.1,1.6h21.8c-0.5-3.4-0.3-8.2-0.2-10.8c0.2-3.1,0.8-5,2.1-6.3c1-1,2.1-1.3,3-1.3c-0.1,4.1,2.6,6,5,7.2
				l4.3,2.2c1.5,0.8,1.5,1.2,1.5,1.5c-0.1,0.8-1.3,1.1-2.4,1.1c-2.2,0-5.3-1.6-8.8-5.2l-0.2,9.7c2.8,1.6,6.1,2.1,9.1,2.1
				c5,0,10.3-2.2,11.7-6.8c2.4,4.7,7.3,6.8,12.1,6.8C133.1,79.1,136.3,77.7,139.1,74.7z"/>
			<path class="st0" d="M113.4,54c-1-0.3-2.5-0.7-4.9-0.7c-1.9,0-4.4,0.4-6.3,1.5c-2.2,1.2-3.8,3.3-3.9,5.4c-0.2,3.1,1.5,4.6,4,5.9
				c1.7,0.8,3.3,1.7,4.3,2.2c1.4,0.7,2.5,1.6,2.4,3.1c-0.1,1.6-1.6,2.7-4.1,2.7c-2.1,0-5.1-1.2-7.2-3.1l-0.1,4.9
				c1.8,0.9,4.7,1.4,7.4,1.4c4.6,0,10.3-2.1,10.4-7.5c0.1-3.8-2.7-5.4-4.4-6.2c-1.7-0.8-3.4-1.6-4.2-2c-0.8-0.4-2.3-1-2.2-2.7
				c0.1-1.7,2-2.5,4.1-2.5c1.7,0,3.4,0.5,4.7,1.2"/>
			<path class="st0" d="M61.8,66.8l4.8-13.9l2.9,13.6 M72.3,45.2l-10.5,1.5c0.3,1.5-0.1,4.1-1.3,7.5c-2.2,6.5-5.8,16.9-8.6,23h6.6
				c0.3-1.9,0.9-4,1.8-6.5l9.8-0.3c0.4,1.9,1.1,5,1.2,6.8h8.8c-1.1-2.5-2.5-7.9-3.3-11.6L72.3,45.2z"/>
			<path class="st0" d="M97.7,54.1l-0.2,4.7c-1.6-0.2-3.6,0.1-5.1,1.8c-1.4,1.5-2.3,3.7-2.5,7.4c-0.2,3.1-0.3,6.4,0,9.3h-7.5
				c0.5-2.8,0.7-6.1,0.8-9.2l0.2-3.8c0.2-3.1,0.2-6-0.3-8.8l6.6-0.4c0.3,1.1,0.5,2.6,0.4,4.2C92.8,55,95.6,54,97.7,54.1"/>
			<path class="st0" d="M191.8,46.7l-6.8-1.1c0.7,2.8,0.9,5.1,1.3,8.1l1.6,14.7c0.3,3.1,0.6,5.9,0.6,8.7h7.4c-0.7-2.8-1-5.6-1.3-8.7
				"/>
			<path class="st0" d="M161.4,77.2c-0.4-2.8-0.6-5.6-0.7-8.7l-0.4-7.8c-0.2-4.1-2.5-6.6-6.5-6.6c-2.2,0-4.8,0.7-7,3.5
				c-0.1-0.6-0.4-2.6-0.8-3.4l-6-0.3c0.5,2.9,0.7,5.8,0.8,8.8l0.1,5.7c0.1,3.1,0,5.9-0.2,8.7h7.5c-0.4-2.8-0.6-5.6-0.7-8.7l-0.2-6.6
				c-0.1-2.3,1.7-3.8,3.5-3.8c2.1,0,3.1,1.3,3.2,3.5l0.2,7c0.1,3.1,0.2,5.9-0.1,8.7"/>
			<path class="st0" d="M173.8,74.1c-2.1,0.1-4-1-4-3.7c-0.1-2.5,1.6-4.6,6.6-5.4l0.3,4c0.1,1.4,0.1,2.4,0.3,3.7
				C176.3,73.5,175.1,74.1,173.8,74.1 M184.7,77.2c-0.9-2.2-1.3-5.2-1.6-8.2l-0.4-4.7c-0.4-5.6-2.8-9.3-11.9-9.3
				c-1.6,0-3.9,0.2-5.8,0.7l0.3,4.3c1.9-1.2,3.8-2,6.1-2c2.5,0,4.6,1,4.8,4.7c-2.4,0.3-4.6,0.7-7.1,1.8c-2.8,1.3-5.7,3.5-5.4,7.4
				c0.3,4.3,3.5,6.1,7.6,6.1c3,0,5.2-1.6,6.3-2.8c0.2,0.8,0.5,1.6,0.8,2.2H184.7z"/>
			<path class="st0" d="M129.1,63.5l-5.4,2.1c-0.1-1-0.2-2-0.2-3c0-5.6,3-6.4,4-6.5c1.7-0.1,3,0.8,3.5,2.7
				C131.6,60.9,131.5,62.6,129.1,63.5 M133.8,54.7c-1.7-1.2-3.7-1.7-5.8-1.7c-4.9,0-11.4,3.5-11.2,12.5c0.2,9.1,7.1,11.8,12,11.8
				c4.3,0,6.9-1.5,9-3.8l-1.5-1.9c-1.1,0.9-2.9,2.2-5.8,2.2c-3.1-0.1-5.1-2.4-6.1-5.6l13.5-5.1C137.5,58.8,136,56.2,133.8,54.7z"/>
		</g>
	</g>
</g>
</svg>
