<?xml version="1.0" encoding="utf-8"?>
<!-- Generator: Adobe Illustrator 19.1.0, SVG Export Plug-In . SVG Version: 6.00 Build 0)  -->
<svg version="1.1" id="Layer_1" xmlns="http://www.w3.org/2000/svg" xmlns:xlink="http://www.w3.org/1999/xlink" x="0px" y="0px"
	 viewBox="0 0 160 160" style="enable-background:new 0 0 160 160;" xml:space="preserve">
<style type="text/css">
	.st0{clip-path:url(#SVGID_2_);}
	.st1{clip-path:url(#SVGID_4_);fill:none;stroke:#FFFFFF;stroke-width:3.828;stroke-miterlimit:6;}
	.st2{clip-path:url(#SVGID_4_);fill:#94BDE5;}
	.st3{clip-path:url(#SVGID_4_);fill:none;stroke:#7A003C;stroke-width:1.4287;stroke-miterlimit:6;}
	.st4{clip-path:url(#SVGID_4_);fill:#FFFFFF;}
	.st5{clip-path:url(#SVGID_4_);fill:#7A003C;}
	.st6{clip-path:url(#SVGID_4_);fill-rule:evenodd;clip-rule:evenodd;fill:#FFE600;}
</style>
<g>
	<defs>
		<rect id="SVGID_1_" x="11.8" y="4.3" width="133.8" height="150.3"/>
	</defs>
	<clipPath id="SVGID_2_">
		<use xlink:href="#SVGID_1_"  style="overflow:visible;"/>
	</clipPath>
	<g class="st0">
		<defs>
			<rect id="SVGID_3_" x="29.7" y="10.2" width="101.8" height="142.4"/>
		</defs>
		<clipPath id="SVGID_4_">
			<use xlink:href="#SVGID_3_"  style="overflow:visible;"/>
		</clipPath>
		<path class="st1" d="M83.1,143.5c1.5-1.1,2.5-1.7,5-2.6c13.1-4.8,38.7-7.7,38.7-25.3V14.9H34.3v100.7c0,17.3,24.9,20.7,38.4,25.2
			c0,0,3,1.2,4.2,2.1c1.8,1.2,3.5,3.1,3.5,3.1S82.2,144.3,83.1,143.5z"/>
		<path class="st2" d="M83.1,143.5c1.5-1.1,2.5-1.7,5-2.6c13.1-4.8,38.7-7.7,38.7-25.3V14.9H34.3v100.7c0,17.3,24.9,20.7,38.4,25.2
			c0,0,3,1.2,4.2,2.1c1.8,1.2,3.5,3.1,3.5,3.1S82.2,144.3,83.1,143.5"/>
		<path class="st3" d="M83.1,143.5c1.5-1.1,2.5-1.7,5-2.6c13.1-4.8,38.7-7.7,38.7-25.3V14.9H34.3v100.7c0,17.3,24.9,20.7,38.4,25.2
			c0,0,3,1.2,4.2,2.1c1.8,1.2,3.5,3.1,3.5,3.1S82.2,144.3,83.1,143.5z"/>
		<polyline class="st4" points="55.3,46.7 56.8,49.7 60.2,50.2 57.8,52.6 58.3,56 55.3,54.4 52.3,56 52.9,52.6 50.5,50.2 53.8,49.7 
					"/>
		<path class="st5" d="M49.5,25.1c0.1-0.5,0.3-1,0.5-1.6c0.2-0.6,0.4-1,0.7-1.2l1.3-1c0.2-0.1,0.3-0.2,0.4-0.2c0,0,0.1,0.1,0.2,0.4
			l6.1,15.3c0.3,0.8,0.6,1.3,0.9,1.6c0.3,0.3,0.7,0.4,1.4,0.5c0.2,0,0.3,0.1,0.3,0.3v0.4c0,0.2-0.1,0.3-0.3,0.3
			c-0.3,0-0.8,0-1.5-0.1c-0.7,0-1.3-0.1-1.8-0.1c-0.4,0-1.1,0-2.1,0.1c-1,0-1.6,0.1-1.8,0.1c-0.1,0-0.2-0.1-0.2-0.2v-0.5
			c0-0.2,0.1-0.4,0.4-0.4c1,0,1.6-0.3,1.6-1c0-0.2,0-0.4-0.1-0.6c-0.1-0.2-0.3-0.7-0.5-1.4l-1.2-3h-5.3l-1.2,3.6
			c-0.2,0.6-0.3,1-0.3,1.3c0,0.7,0.6,1,1.8,1c0.2,0,0.3,0.1,0.3,0.3v0.5c0,0.1-0.2,0.2-0.5,0.2c-0.2,0-0.6,0-1.2-0.1
			c-0.6,0-1.1-0.1-1.4-0.1c-0.3,0-0.8,0-1.5,0.1c-0.7,0-1.1,0.1-1.2,0.1c-0.2,0-0.3-0.1-0.3-0.2v-0.4c0-0.2,0.1-0.3,0.4-0.3
			c0.7,0,1.3-0.3,1.7-0.8c0.4-0.6,0.8-1.5,1.3-2.8 M48.8,31.7L48.8,31.7l4.3,0v0l-2.4-5.8h0L48.8,31.7z"/>
		<path class="st5" d="M71.9,35.7L71.9,35.7l4-10.5c0.2-0.5,0.3-0.9,0.3-1.3c0-0.4-0.1-0.6-0.4-0.7C75.5,23,75,23,74.3,23
			c-0.3,0-0.4-0.1-0.4-0.3v-0.4c0-0.2,0.1-0.3,0.3-0.3c0.2,0,0.6,0,1.4,0.1c0.8,0,1.4,0.1,1.7,0.1c0.3,0,0.6,0,1.2-0.1
			c0.5,0,0.9-0.1,1-0.1c0.2,0,0.3,0.1,0.3,0.3v0.4c0,0.2-0.1,0.3-0.3,0.3c-0.6,0-1,0.1-1.2,0.4c-0.2,0.3-0.5,0.9-0.8,1.8L71.6,40
			c-0.1,0.1-0.1,0.2-0.2,0.3c-0.1,0-0.2,0.1-0.3,0.1h-0.4c-0.2,0-0.3,0-0.4-0.1c-0.1-0.1-0.1-0.2-0.2-0.3l-6-14.9
			c-0.3-0.8-0.7-1.3-1-1.6c-0.4-0.3-0.9-0.4-1.6-0.4c-0.3,0-0.4-0.1-0.4-0.3v-0.5c0-0.2,0.1-0.3,0.3-0.3c0.2,0,0.7,0,1.5,0.1
			c0.8,0,1.5,0.1,2,0.1c0.4,0,1.2,0,2.3-0.1c1.1,0,1.8-0.1,2-0.1c0.3,0,0.4,0.1,0.4,0.3v0.4c0,0.2-0.1,0.3-0.4,0.3
			c-0.6,0-1.1,0.1-1.3,0.2c-0.3,0.1-0.4,0.3-0.4,0.5c0,0.2,0.1,0.6,0.3,1.2"/>
		<path class="st5" d="M89.3,29.7h3.8c0.8,0,1.3-0.1,1.6-0.3c0.3-0.2,0.5-0.7,0.6-1.4c0-0.2,0.1-0.3,0.2-0.3H96
			c0.2,0,0.2,0.1,0.2,0.3c0,0.2,0,0.5-0.1,1.2c0,0.6-0.1,1.1-0.1,1.4c0,0.2,0,0.6,0.1,1.2c0,0.6,0.1,0.9,0.1,1.1
			c0,0.3-0.1,0.4-0.2,0.4h-0.5c-0.1,0-0.2-0.1-0.3-0.3c-0.2-0.8-0.4-1.3-0.8-1.6c-0.4-0.3-0.9-0.5-1.6-0.5h-3.5v5.9
			c0,0.8,0.2,1.4,0.5,1.7c0.3,0.3,0.8,0.5,1.5,0.5c0.3,0,0.4,0.1,0.4,0.2v0.6c0,0.1-0.1,0.2-0.4,0.2c-0.1,0-0.6,0-1.5-0.1
			c-0.8,0-1.4-0.1-1.8-0.1c-0.3,0-1,0-2.1,0.1c-1.1,0-1.7,0.1-1.9,0.1c-0.3,0-0.4-0.1-0.4-0.3v-0.5c0-0.2,0.1-0.3,0.4-0.3
			c0.7,0,1.1-0.2,1.5-0.5c0.3-0.4,0.5-0.9,0.5-1.6V25.5c0-1-0.1-1.7-0.4-2c-0.2-0.4-0.7-0.6-1.5-0.6c-0.3,0-0.5-0.1-0.5-0.3v-0.5
			c0-0.2,0.1-0.3,0.4-0.3c0.2,0,0.8,0,2,0.1c1.2,0,2.1,0.1,2.9,0.1c0.6,0,2.1,0,4.5-0.1c2.4,0,3.7-0.1,3.9-0.1
			c0.2,0,0.3,0.1,0.3,0.3v3.5c0,0.2-0.1,0.3-0.3,0.3H97c-0.2,0-0.3-0.1-0.4-0.4l-0.3-0.7c-0.3-0.7-0.6-1.2-1.1-1.4
			c-0.5-0.3-1.4-0.4-2.7-0.4h-0.8c-1,0-1.6,0.1-1.9,0.3c-0.3,0.2-0.5,0.6-0.5,1.3"/>
		<path class="st5" d="M117.3,26.6c0,0.1-0.1,0.1-0.4,0.2c-0.2,0-0.4,0.1-0.6,0.1c-0.1,0-0.1,0-0.2-0.1c0-0.1-0.1-0.2-0.1-0.3
			c-0.3-1-0.9-1.8-1.7-2.6c-0.8-0.7-1.9-1.1-3.3-1.1c-2,0-3.6,0.8-4.8,2.3c-1.2,1.5-1.8,3.4-1.8,5.7c0,2.3,0.7,4.3,2,5.9
			c1.3,1.6,3,2.4,5,2.4c1.5,0,2.5-0.3,3.2-0.8c0.7-0.6,1.3-1.5,1.9-2.7c0.2-0.3,0.3-0.5,0.4-0.5c0.1,0,0.3,0,0.6,0.2
			c0.3,0.1,0.4,0.2,0.4,0.3c0,0,0,0.2-0.1,0.4L117,39c-1.7,0.9-3.7,1.3-6,1.3c-2.9,0-5.4-0.8-7.3-2.5c-2-1.7-2.9-4.1-2.9-7.2
			c0-2.5,1-4.6,2.9-6.4c2-1.8,4.4-2.6,7.2-2.6c1.3,0,2.6,0.2,3.8,0.7c1.3,0.4,1.9,0.8,2.1,1.1c0,0.1,0.1,0.7,0.3,1.7
			C117.2,26,117.3,26.5,117.3,26.6"/>
		<path class="st5" d="M61,125.1v6.5h1v-3.4c0,0,2.6-0.6,2.6-2.1C64.6,124.5,61,125.1,61,125.1 M62,127.3v-1.5c0,0,1.6-0.2,1.6,0.3
			C63.6,126.9,62,127.3,62,127.3z"/>
		<path class="st5" d="M76,125.1v6.5h0.9v-3.4c0,0,2.6-0.6,2.6-2.1C79.5,124.5,76,125.1,76,125.1 M76.9,127.3v-1.5
			c0,0,1.6-0.2,1.6,0.3C78.6,126.9,76.9,127.3,76.9,127.3z"/>
		<path class="st5" d="M65.8,125.1v6.5h0.9v-3.4c0,0,2.6-0.6,2.6-2.1C69.3,124.5,65.8,125.1,65.8,125.1 M66.7,127.3v-1.5
			c0,0,1.6-0.2,1.6,0.3C68.4,126.9,66.7,127.3,66.7,127.3z"/>
		<path class="st5" d="M69.2,131.6c0,0-0.1-0.9-0.6-2.1c-0.5-1.2-0.9-1.8-0.9-1.8l0.7-0.4c0,0,0.7,1,1.1,2.1
			c0.4,1.1,0.6,2.2,0.6,2.2"/>
		<path class="st5" d="M85.7,125.1v6.5h1v-3.4c0,0,2.6-0.6,2.6-2.1C89.2,124.5,85.7,125.1,85.7,125.1 M86.6,127.3v-1.5
			c0,0,1.6-0.2,1.6,0.3C88.3,126.9,86.6,127.3,86.6,127.3z"/>
		<path class="st5" d="M89.1,131.6c0,0-0.1-0.9-0.6-2.1c-0.5-1.2-0.9-1.8-0.9-1.8l0.7-0.4c0,0,0.7,1,1.1,2.1
			c0.4,1.1,0.6,2.2,0.6,2.2"/>
		<rect x="71.5" y="125.1" class="st5" width="0.9" height="6.5"/>
		<rect x="71.5" y="125.1" class="st5" width="2.9" height="0.7"/>
		<rect x="71.5" y="130.8" class="st5" width="2.9" height="0.7"/>
		<rect x="71.5" y="127.1" class="st5" width="2.2" height="0.7"/>
		<rect x="91.1" y="125.1" class="st5" width="0.9" height="6.5"/>
		<rect x="91.1" y="125.1" class="st5" width="2.9" height="0.7"/>
		<rect x="91.1" y="130.8" class="st5" width="2.9" height="0.7"/>
		<rect x="91.1" y="127.1" class="st5" width="2.2" height="0.7"/>
		<polyline class="st5" points="79.4,131.6 81.4,125.1 82.2,125.1 80.4,131.6 		"/>
		<polyline class="st5" points="84.8,131.6 82.7,125.1 81.9,125.1 83.8,131.6 		"/>
		<rect x="81" y="127.1" class="st5" width="2.2" height="0.7"/>
		<rect x="95.5" y="125.1" class="st5" width="0.9" height="6.5"/>
		<path class="st5" d="M96.5,131.6c0,0,3.2,0,3.2-4c0-3.3-4.1-2.5-4.1-2.5l0.8,0.8c0,0,2.3-0.5,2.3,1.8c0,3.5-2.5,3.3-2.5,3.3"/>
		<path class="st6" d="M115.8,58.5c0,0-1.9,2.5-3.8,3c-1.4,0.3-2.4,0.2-2.4,0.2s0.5,0,0.9-0.3c0.5-0.4,0.7-1,0.7-1s-0.8,0.4-2.2,0.1
			c-0.6-0.2-2-0.3-3.1,0.1c-0.8,0.3-1.8,1.1-1.8,1.1s0.3-0.3,0.5-0.7c0.2-0.5,0.1-1.1,0.1-1.1s-0.1,0.5-0.8,0.8
			c-0.4,0.2-1.3,0.6-1.7,1.2c-0.5,0.8-0.5,1.7-0.7,2c-0.2,0.2-5.2,2.5-5.6,7.1c-0.3,4.6,3.1,8.2,4.3,9.5c1.1,1.3,5.9,6.9,6.7,8.2
			c0.6,1,1.1,2.1,0.5,3.4c-0.4,0.8-1.6,1.7-3.3,0.8c-1.8-0.8-3-2-5-2.9c-1.5-0.7-3.3-1.2-3.7-1.4c-0.3-0.2-2.9-1.9-3.2-5
			c-0.2-2.4,0.8-6.1,0.9-8.7c0.2-3.6-0.8-5.1-0.8-5.3c0-0.2,0.9,0.1,1.3,0.8c0.5,1,0.5,1.4,0.5,1.4s1.2-2.3,0.7-5.2
			c-0.6-3.3-2.6-3.7-2.6-3.9c0-0.2,0.6-0.3,1.3-0.1c1.8,0.6,2.1,2.3,2.1,2.3s0.8-2.4-0.3-4.9c-1-2.2-2.4-2.4-2.4-2.7
			c0-0.1,0.5-0.3,1.4-0.1c1.5,0.4,1.8,1.6,1.8,1.6s0.3-2.1-0.3-3.9c-1.1-3.2-3.4-3.5-3.4-3.8c0-0.1,0.7-0.3,1.3-0.1
			c1.1,0.3,1.3,0.6,1.3,0.6s-0.1-0.8-0.7-1.9c-0.7-1.3-2.3-3-3-3.4c-3.7-2.3-5.8-1.8-6.5-1.8c-0.2,0-0.6-0.3-0.4-0.9
			c0.3-0.8,0.8-1.1,0.8-1.1s-1.6-0.1-3,0.5c-1.7,0.6-2.5,1.6-2.7,1.5c-0.2,0-0.4-0.3-0.4-0.7c0-0.6,0.2-0.8,0.2-0.8s-2,0.7-2.9,1.3
			c-0.7,0.5-1.7,1.3-2.2,2.5c-0.4,1-0.6,2.2-0.6,2.2s-0.4-0.3-1.1,0.1c-0.6,0.5-1.4,1.4-1.7,1.9c-0.3,0.5-0.8,1.1-1.2,1.2
			c-0.4,0.1-2.6,0.9-3,1.2c-0.4,0.2-0.6,1.1-0.5,1.4c0,0.2,0.2,0.5,0.5,0.9c0.2,0.2,0.3,0,0.4-0.2c0.1-0.1,0.2-0.2,0.2-0.2
			c0.5,0.2,0.1,1.3,0.2,1.6c0.1,0.4,0.5,0.7,0.9,0.9c0.5,0.3,1.5,0.7,1.5,0.7s-0.1-0.5,0-0.7c0.1-0.2,0.6-0.5,1-0.6
			c0.8-0.1,2,0,2.7,0.5c0.9,0.8,0.8,1.8,0.8,1.8S72.8,59.9,72,60c-0.8,0.1-1.3,0.1-1.9-0.1c-0.6-0.2-1-0.8-1-0.8s-0.2,0.9-0.2,1
			c-0.1,0.1-0.5,0.3-0.4,0.5c0.1,0.5,0.8,0.5,0.8,0.7c0.1,0.2-0.4,0.7-0.1,1.5c0.2,0.4,0.6,0.8,1,1c0.4,0.2,0.8,0.3,0.8,0.3
			s-0.1-0.6,0.2-1.1c0.2-0.3,0.6-0.3,0.6-0.3c0.1,0.1,0.1,0.3,0.6,0.5c0.5,0.3,1.1,0.2,1.1,0.2s-0.4-0.6-0.1-1
			c0.3-0.3,0.9-0.5,1-0.4c0.1,0,0.6,0.6,1.9,1c0.6,0.2,1.4,0.2,1.9,0c1-0.6,1-1,2.1-1.2c0,0-0.6,0.3-1.1,1.6
			c-0.5,1.2-1.8,1.6-2.6,1.9c-1,0.3-2.1,0.5-3.1,1c-0.7,0.3-1.5,0.9-2.3,1.5c-0.8,0.7-1.5,1.8-1.8,2c-0.4,0.2-3.8,0.6-6.9-0.4
			c-3.2-1.1-4.4-2.7-5.7-4.4c-1.4-1.8-2.7-3.1-3.6-3.4c-0.8-0.3-1.4-0.5-2.1-0.3c-0.6,0.1-1,0.5-1.1,1c-0.2,0.8-0.1,1.3,0.1,1.5
			c0.2,0.3,0.9,0.5,0.9,0.5s-0.9-0.2-1.3,0.3c-0.5,0.5-0.6,1.9,0.1,2.5c0.6,0.5,1.1,0.5,1.1,0.5s-0.4,0-0.5,0.3
			c-0.2,0.4-0.4,1.1-0.1,1.6c0.8,1.2,1.6,0.7,2.5,0.9c1.2,0.3,1.7,0.3,2.5,0.8c1.4,0.7,2.7,1.9,4,3.2c1.5,1.5,2.9,2.3,3.3,2.7
			c3.5,2.8,7.1,2.5,7.1,2.5s-0.3-0.1-0.7-0.4c-0.3-0.2-0.6-0.4-0.5-0.4c0.2,0,1.1,0.2,2.2,0.2c1.1-0.1,1.6-0.3,1.7-0.3
			c0.2,0-0.1,1.9-1.3,3c-1.2,1.1-1.9,1.3-3.3,1.4c-1.1,0.1-5,0.5-5.8,0.4c-0.9-0.1-2.3-0.8-2.8-0.9c-0.6-0.1-1-0.2-1.6,0.3
			c-0.6,0.5-1.2,1.9-0.9,2.6c0.3,0.7,1.3,0.7,1.3,0.7s-1.3,0-1.8,0.7c-0.4,0.6-0.6,1.4-0.1,2.5c0.3,0.7,1.1,1.3,1.6,1.2
			c0.5-0.1,1.2-0.6,1.2-0.6s-0.7,0.9-0.4,1.4c0.3,0.5,1.3,1,2.2,0.9c0.8,0,1.7-1.3,2.2-2c0.6-0.9,1.4-1.2,2.3-1.5
			c1-0.4,7.4-1.2,8.4-1.1c1,0.2,1,0.2,1.6,0.4c0,0-0.1-0.3-0.3-0.7c-0.3-0.5-0.6-0.7-0.5-0.8c0.1-0.1,1.5-0.1,2.6,0.1
			c1.3,0.3,2.3,1.1,2.3,1.1s-0.9-0.3-1.9-0.2c-0.6,0.1-1.2,0.2-1.2,0.2c0.1,0.2,0.1,0.2,0.2,0.4c0.2,0.4,0.3,1,0.2,1
			c-0.1,0-0.6-0.2-1.3-0.3c-0.8-0.2-1.1-0.3-1.7-0.2c-0.4,0-4.9,1.2-6.3,3.7c-1.3,2.4-0.6,3.9-0.2,4.6c0.4,0.8,1.7,1.8,2.1,2.1
			c0.6,0.5,2.8,1.5,2.8,1.7c0,0.2-1.5,0.7-3.1,0.9c-1.6,0.2-4-0.4-4.8-1.2c-0.5-0.5-1.5-2.2-2.1-2.9c-0.6-0.7-2.1-1.4-3.1-1
			c-0.7,0.3-1,0.8-1.2,1.3c-0.3,0.5,0,1,0.2,1.2c0.1,0.1,0.5,0.4,0.5,0.4s-0.4-0.1-0.9,0.3c-0.4,0.3-0.6,0.7-0.7,1.6
			c-0.1,0.8,0.2,1.3,0.6,1.6c0.4,0.3,0.9,0.2,0.9,0.2s-0.8,0.2-0.8,0.8c0,0.6,0.3,1.5,1,1.8c0.7,0.3,3.2-0.1,4.3-0.2
			c0.8-0.1,2.3,0.1,3.1,0.6c0.5,0.4,0.9,0.9,1.4,1.3c0.4,0.3,1,0.3,1.4,0c0.4-0.3,0.4-0.6,0.6-0.8c0.2-0.2,0.4-0.3,2-0.4
			c1.4-0.1,1.9,0.4,2.2,0.8c0.1,0.1,0.1,0,0.2,0.4c0.1,0.6-0.1,0.9-0.1,0.9s0.8,0,1.4-0.4c0.3-0.2,0.8-0.5,0.8-0.6
			c0.1-0.1,0.3-0.2,0.4,0.1c0.1,0.4-0.1,0.5-0.1,0.5s0.8-0.1,1.3-0.5c0.6-0.4,0.8-0.6,1-0.7c0.1,0,0.2,0.1,0.1,0.6
			c0,0,2.5-0.5,2.2-3.2c-0.3-3.6-0.7-5-0.4-6.4c0.3-1.4,1.6-2.8,1.6-2.8l0.5,0.8c0,0-1,1.3-1.1,3c-0.1,1,0.3,3.1,0.6,4.1
			c0.4,1.2,1,2.1,1.3,2.5c0.6,0.8,1.1,0.8,1.1,0.8s0-0.2,0.1-0.5c0.1-0.3,0.3-0.3,0.3-0.3c0.1,0,0.2,0.4,0.6,0.8
			c0.5,0.4,1.7,0.6,1.7,0.6s-0.1-0.2-0.1-0.5c0-0.3,0.2-0.5,0.3-0.5c0.1,0,0,0.2,0.8,0.6c0.7,0.4,1.5,0.2,1.5,0.2s-0.2-0.2-0.2-0.4
			c0-0.3,0.1-0.5,0.2-0.5c0.1,0,0,0.1,0.9,0.3c0.9,0.2,1.4-0.4,1.4-0.4s-0.4-0.4-0.6-0.8c-0.1-0.2-0.1-0.5,0.1-0.6
			c0.1-0.1,1.3-0.2,1.8,0.6c0.5,0.7,0.9,3.7,0.7,5.5c-0.1,1.3-1.3,3.5-3,4.6c-1.5,0.9-2,0.5-2.5,0.1c-0.6-0.5-1.7-1.4-2.4-1.5
			c-0.7-0.1-1.4-0.1-1.9,0c-0.5,0.1-0.2,0-1.1,0.2c-0.6,0.2-1.5,0.4-1.9,1.2c-0.3,0.6-0.3,1.8,0.2,2.2c0.5,0.4,1,0.5,1.2,0.2
			c0,0-0.3,0.2-0.5,0.6c-0.3,0.5-0.3,1,0.2,1.8c0.4,0.7,1.2,1,1.5,1c0.6,0,0.9-0.1,0.9-0.1s0.1,0,0.4-0.4c0,0-0.7,1-0.3,1.6
			c0.2,0.3,0.8,0.7,1.4,0.7c0.9,0,1.8-0.2,2.2-0.4c0.7-0.4,1.2-0.8,1.7-1.2c0.9-0.8,1.7-1.7,2.8-2.4c0.6-0.4,3.2-1.8,4.4-2
			c0.7-0.1,1-0.2,1.4-0.6c0.4-0.4,0.8-1.4,0.4-2.2c-0.4-0.9-0.1-2.1,0.3-3.8c0.3-1.7,0.7-2.8,1.3-3.1c0.5-0.4,1.1-0.3,2.2-1
			c1.1-0.7,1-2,1-2s-0.3,0.1-1.2-0.3c-0.7-0.4-0.6-0.8-0.6-1c0-0.2,0.2-0.2,0.9-0.7c0.7-0.6,0.5-2.2,0.5-2.2s-0.2,0.3-1,0.3
			c-0.5,0-1-0.1-1.2-0.5c-0.1-0.5,0.3-0.6,0.4-1.2c0.1-0.8-0.3-1.4-0.3-1.4s-0.3,0.6-1.7,0.6c-0.8,0.1-1.3-0.1-1.6-0.2
			c-0.5-0.2-1.1-0.9-1.2-1.5c-0.2-1.3,0.2-1.9,0.4-2.1c0.5-0.6,1.7-0.3,3.2,0.7c1.7,1.2,4.9,2.8,7.6,1.7c2.5-1,4.7-5.4,2.1-9.2
			c-2.3-3.3-8.8-10.4-9.6-11.5c-0.6-1-1.7-2.8-1.5-4.5c0.2-1.5,0.9-2.4,1.5-3c0.6-0.5,1.5-0.9,1.7-1c0.2,0,2,1,3.6,1.2
			c1.5,0.2,2.8-0.5,3.8-1.1c0.8-0.5,1.6-0.4,1.6-0.4c-0.4-0.2-0.3-0.2-0.7-0.4c-0.2-0.1-0.8-0.1-0.8-0.1s2.3-0.7,3.5-2
			C115.4,62.2,115.8,58.5,115.8,58.5 M75.7,51.8c-0.2,0.5-0.7,1-1.2,1.1c-0.5,0.1-0.9,0.1-1.2,0c-0.8-0.3-1-0.9-1-0.9l0.9-0.4
			c0.2,0.5,0.5,0.7,0.8,0.7c0.4,0,0.6-0.2,0.8-0.5c0.1-0.2,0-0.5,0-0.5s-0.1,0.3-0.3,0.3c-0.2,0-0.4-0.1-0.3-0.5l2-1
			C76.1,50.2,76.1,51,75.7,51.8z M83.3,49.4c-0.5,0.8-1.9,1.4-1.9,1.4s-0.3,0-0.1-0.6c0.2-0.5,0.3-0.8,0.3-0.8l-1.1,0.4
			c0,0,0.4-0.4,0.5-0.9c0.2-0.6,0.1-1,0.1-1s-0.1,0.5-0.7,0.7c-0.4,0.2-1.3,0.3-1.3,0.3s1.1-2.2,2.8-2.1
			C83.5,47,83.8,48.5,83.3,49.4z"/>
	</g>
</g>
</svg>
