<?xml version="1.0" encoding="utf-8"?>
<!-- Generator: Adobe Illustrator 19.1.0, SVG Export Plug-In . SVG Version: 6.00 Build 0)  -->
<svg version="1.1" id="Layer_1" xmlns="http://www.w3.org/2000/svg" xmlns:xlink="http://www.w3.org/1999/xlink" x="0px" y="0px"
	 viewBox="0 0 400 400" style="enable-background:new 0 0 400 400;" xml:space="preserve">
<style type="text/css">
	.st0{fill-rule:evenodd;clip-rule:evenodd;fill:#CB1E43;}
	.st1{fill-rule:evenodd;clip-rule:evenodd;fill:#FFFFFF;}
	.st2{fill-rule:evenodd;clip-rule:evenodd;}
	.st3{fill:#221E1F;}
	.st4{fill:#FFFFFF;}
</style>
<g>
	<path class="st0" d="M295.2,73.2V167c15-42.7,15.2-79.7,14.6-93.8H295.2L295.2,73.2z M258.7,124v55.8l15.8,18.2v-87.3
		c-1.1,1.3-2.3,2.6-3.6,3.9C267.2,118.1,263.1,121.3,258.7,124L258.7,124z M237.9,155.8v-24c-3.7,0.7-7.4,1-11.3,1
		c-6.6,0-13-1-18.9-2.9c8.2,5.4,16.7,11.1,21.5,16l0.1,0L237.9,155.8L237.9,155.8z M164.1,73.2H85.3c-0.9,21.9,0.1,99.3,55.7,167.6
		l-0.3-0.9c0,0-0.7-31.4-4.9-40.8c-4.2-9.3-20.6-32.8-23.5-36.8c-2.9-4-2.4-10.8,0.4-14.2c2.9-3.3,11.5-3.5,11.5-3.5s-0.4-5.1,2.9-6
		c3.3-0.9,6.4-0.7,6.4-0.7s0.2-5.5,4.2-5.8c4-0.2,7.7,0,7.7,0l0.5-10.2l25.7,0.7c0,0,5-6.8,11.1-7.8l-0.5-0.5l0,0
		C171.7,103.8,164.9,89.3,164.1,73.2L164.1,73.2z"/>
	<path class="st1" d="M295.2,167V73.2h-6.1c-0.7,14.2-6.1,27.2-14.7,37.4V198l4.7,5.4C285.8,191,291.1,178.8,295.2,167L295.2,167z"
		/>
	<path class="st1" d="M258.7,179.8V124c-6.3,3.8-13.3,6.4-20.8,7.8v24L258.7,179.8L258.7,179.8z"/>
	<path d="M240.8,255.8l2-2.2l-37.1-42.8c0.1,1.4,0.1,2.9-0.1,4.5L240.8,255.8L240.8,255.8z M237.3,259.4l-33.5-38.6
		c-0.5,0.9-1.1,1.7-1.8,2.4l33.1,38.2L237.3,259.4L237.3,259.4z M229.4,267c0.7-0.7,1.5-1.3,2.2-2l-33.5-38.7
		c-1,0.5-1.9,0.9-2.8,1.3L229.4,267L229.4,267z M223.5,272.3l2.2-2l-35.8-41.4c-1.3,0.2-2.6,0.3-3.7,0.3L223.5,272.3L223.5,272.3z
		 M309.8,73.2h-20.7c0-1,0.1-2,0.1-3c0-3.5-0.3-7-0.9-10.4H316h6l0.6,6.1c0,0.4,16.1,148.5-118.9,238h0c-1.1,0.8-2.3,1.2-3.5,1.5
		c-0.9,0.2-1.8,0.3-2.7,0.2c-0.8,0-1.7,0-2.5-0.2c-1.2-0.3-2.4-0.7-3.6-1.5l-0.1,0c-135-89.5-119-237.6-118.9-238l0.6-6.1h6h85.8
		c-0.6,3.4-0.9,6.9-0.9,10.4c0,1,0,2,0.1,3H85.3c-1.2,27.7,0.8,144.1,112.2,218.8c7.9-5.3,15.3-10.8,22.1-16.5l-41-47.3l-1.6-1.9
		l1.9-1.6l0.1-0.1l0.6-0.5l0.9-0.1c0.9-0.1,1.8,0,2.9,0.1h0c3.1,0.2,7.3,0.4,12.8-2.5c2.3-1.2,3.6-3.2,4.2-5.4h0
		c0.9-3,0.5-6.3-0.5-8.2c-2.2-4.4-9.6-5-9.7-5l-0.2,0l-1.5-0.3l-0.9-0.1l-0.6-0.6l-7.4-8.3l3.8-3.3l6.8,7.6l0.5,0.1
		c0.5,0,2.5,0.3,4.8,1l-9.5-10.9l3.8-3.3l56.3,65l2-2.2l-56.1-64.8l3.8-3.3l55.6,64.1l1.9-2.3l-55.2-63.7l1.3-1.1
		c0,0,1.9,0.5,4.9,0.7l52.2,60.3l1.9-2.3l-50.3-58c1.8-0.1,3.7-0.5,5.7-1l47.5,54.9l1.8-2.5l-46.3-53.5c1.7-0.8,2.9-2,3.7-3.3
		l45.6,52.6l1.8-2.5L222,168.7c0.8-3,0.6-5.9,0.4-7.1l48.4,55.9l1.7-2.6l-52.5-60.7v-7.6l55.2,63.8c0.6-1,1.2-2.1,1.8-3.1
		l-50.9-58.7l3.1-2.7l49.9,57.5C310,146.4,310.6,91.2,309.8,73.2L309.8,73.2z"/>
	<path d="M289.2,70.3c0,17.3-7,32.9-18.3,44.2c-11.3,11.3-27,18.3-44.3,18.3c-17.3,0-32.9-7-44.2-18.3l0,0
		C171,103.2,164,87.5,164,70.3c0-17.3,7-32.9,18.3-44.2c11.3-11.3,27-18.3,44.2-18.3c17.3,0,32.9,7,44.3,18.3
		C282.2,37.3,289.2,53,289.2,70.3L289.2,70.3z"/>
	<polygon class="st2" points="212.3,92.1 203.2,64.1 227.1,46.7 250.9,64.1 241.8,92.1 212.3,92.1 	"/>
	<path class="st1" d="M274.4,99c4.2-7,6.9-15,7.7-23.5l-14.4-18.1l1-23.6c-0.9-1-1.8-2-2.7-2.9c-4.9-4.9-10.8-8.9-17.3-11.8
		l-21.7,8.1l-22.2-8.3c-6.7,2.8-12.7,6.9-17.7,11.9c-0.9,0.9-1.7,1.8-2.5,2.7l1.1,23.1L171,75.2c0.8,8.6,3.4,16.5,7.6,23.6l22.3,6.2
		l13.1,19.7c4,0.9,8.2,1.4,12.5,1.4c4.2,0,8.3-0.5,12.3-1.4l12.8-19.3L274.4,99L274.4,99z M212.3,92.1l-9.1-28l23.8-17.3l23.8,17.3
		l-9.1,28H212.3L212.3,92.1z"/>
	<path class="st3" d="M352.2,222.3c0,0.1-5,28.5-14.6,51.9l15.4,9c1.4,0.8,2.1,2.6,1.5,4.1c-12.2,30.9-34,57.4-62,75.9
		c-27.1,18-60,28.5-95.4,28.5c-35,0-67.6-10.3-94.6-27.9c-27.7-18.1-49.5-44-62-74.5c-0.7-1.5-0.2-3.4,1.4-4.3l15.5-9.1
		C48,252.5,43,224.1,42.9,224l0,0c-0.2-0.9,0.1-1.8,0.7-2.6c1.1-1.4,3.2-1.7,4.7-0.6l25.4,19.9l18-31c0.6-1.2,2-2,3.5-1.8
		c1.8,0.3,3.1,2,2.8,3.8c-3.1,21.1,14.6,58.8,15.8,61.4c0.9,1.6,0.3,3.6-1.3,4.5l-13.3,7.3c7.8,12.8,18.4,24,30.8,32.8
		c18.8,13.3,42.1,21.1,67.2,21.1c25.5,0,49.1-8.1,68-21.7c12.6-9.1,23.2-20.6,31-33.9l-13.5-7.4c-1.6-0.9-2.2-2.9-1.3-4.5
		c1.2-2.6,18.9-40.3,15.8-61.4c-0.3-1.8,1-3.5,2.8-3.8c1.5-0.2,2.8,0.5,3.5,1.8l18,31l25.4-19.9c1.4-1.1,3.5-0.9,4.7,0.6
		C352.2,220.4,352.4,221.4,352.2,222.3L352.2,222.3L352.2,222.3z"/>
	<path class="st4" d="M311.3,266.5c-7.8,22.6-22.7,42.1-42.2,56.1c-20.1,14.4-45,23-71.9,23c-26.6,0-51.2-8.3-71.1-22.4
		c-19.3-13.6-34.3-32.7-42.4-54.8l-35.9,20.9c12.1,28.1,32.6,52,58.4,68.9c25.9,16.9,57.2,26.9,90.9,26.9
		c34.1,0,65.7-10.1,91.7-27.4c26-17.2,46.5-41.6,58.4-70.1L311.3,266.5L311.3,266.5z"/>
	<path class="st4" d="M331.9,270.8c5.8-14.5,9.9-31,12-40.9l-21.2,16.6c-0.2,0.1-0.3,0.3-0.5,0.4c-1.6,0.9-3.6,0.4-4.6-1.2
		l-13.8-23.8c-1.6,15.1-8,32.5-12.3,43l16.2-6.2v0c1-0.6,2.3-0.6,3.3,0L331.9,270.8L331.9,270.8z"/>
	<path class="st4" d="M303.3,268.9l-11.1,4.3l7.3,4.2C300.8,274.6,302.1,271.8,303.3,268.9L303.3,268.9z"/>
	<path class="st4" d="M63.3,272.5c-5.8-14.5-9.9-31-12-40.9l21.2,16.6c0.2,0.1,0.3,0.3,0.5,0.4c1.6,0.9,3.6,0.4,4.6-1.2l13.8-23.8
		c1.6,15.1,8,32.5,12.3,43l-16.2-6.2l0,0l-0.4-0.1c-0.4-0.1-0.7-0.2-1.1-0.2c-0.5-0.1-1,0-1.4,0.1c-0.3,0.1-0.5,0.2-0.7,0.3
		L63.3,272.5L63.3,272.5z"/>
	<path class="st4" d="M91.8,270.6l11.2,4.3l-7.2,4.1C94.4,276.3,93,273.5,91.8,270.6L91.8,270.6z"/>
	<path class="st0" d="M79.4,292.4l-10,2l4,6.3L79.4,292.4L79.4,292.4z M84.2,286.2l2.9,4.5l-17.5,23.9l-2.9-4.6l3.6-4.9l-6.1-9.5
		l-6,1.2l-3-4.6L84.2,286.2L84.2,286.2z"/>
	<polygon class="st0" points="94.1,300.6 103,310.9 99.1,314.2 93.6,307.8 89.8,311.1 95.3,317.5 91.4,320.8 85.9,314.4 76.5,322.5 
		73.1,318.5 94.1,300.6 	"/>
	<path class="st0" d="M119.9,332.4l-5.1,0.3c-0.2-3.6-1.5-6.5-3.8-8.5c-2-1.7-4.3-2.5-6.8-2.3c-2.5,0.2-4.7,1.3-6.4,3.3
		c-1.2,1.4-1.9,2.9-2.3,4.5c-0.3,1.6-0.2,3.2,0.4,4.8c0.6,1.6,1.6,2.9,2.9,4.1c1.2,1,2.4,1.7,3.7,2.1c1.3,0.4,3.1,0.5,5.2,0.3
		l0.3,5.1c-2.8,0.2-5.2,0-7.1-0.6c-1.9-0.6-3.7-1.6-5.5-3.1c-3.3-2.8-5-6.1-5.4-9.9c-0.3-3.8,0.9-7.4,3.7-10.6
		c1.8-2.1,3.8-3.5,6.2-4.4c2.3-0.8,4.8-1,7.4-0.5c2.6,0.5,4.9,1.6,7,3.4c1.7,1.5,3.1,3.3,4.1,5.4
		C119.4,327.9,119.9,330.1,119.9,332.4L119.9,332.4z"/>
	<path class="st0" d="M134.9,340.7l-2.5,5.2l1.1,0.5c1.2,0.5,2.1,0.7,2.9,0.5c0.8-0.2,1.4-0.7,1.8-1.6c0.4-0.8,0.4-1.5,0.1-2.2
		c-0.3-0.7-1-1.3-2.1-1.8L134.9,340.7L134.9,340.7z M130.4,350.1l-3.1,6.4l1.2,0.6c2,0.9,3.4,1.3,4.4,1.2c0.9-0.2,1.6-0.7,2.1-1.7
		c0.5-1.1,0.5-2.1,0-3.1c-0.5-1-1.7-2-3.6-2.9L130.4,350.1L130.4,350.1z M120.4,358.8l11.9-24.9l3.9,1.9c2.3,1.1,3.8,2,4.8,2.8
		c1.3,1.1,2.1,2.4,2.5,3.9c0.4,1.5,0.2,3-0.5,4.4c-0.5,0.9-1.1,1.7-1.8,2.3c-0.8,0.6-1.8,1-3,1.2c1.2,1.4,1.9,2.9,2,4.3
		c0.2,1.4-0.1,2.8-0.8,4.3c-0.7,1.4-1.6,2.5-2.9,3.3c-1.3,0.8-2.6,1.2-4,1.3c-1.4,0-3.1-0.5-5.1-1.4L120.4,358.8L120.4,358.8z"/>
	<path class="st0" d="M155.1,355.5c-1.5-0.4-3-0.3-4.3,0.5c-1.3,0.8-2.2,2-2.7,3.6c-0.5,1.7-0.4,3.2,0.3,4.6
		c0.7,1.4,1.8,2.3,3.4,2.7c1.5,0.5,3,0.3,4.3-0.5c1.3-0.8,2.3-2,2.7-3.7c0.5-1.7,0.4-3.2-0.3-4.5C157.8,356.9,156.6,356,155.1,355.5
		L155.1,355.5z M156.3,350.9c1.9,0.5,3.5,1.5,4.8,2.9c1.4,1.4,2.3,3,2.7,4.9c0.5,1.8,0.4,3.7-0.1,5.5c-0.5,1.8-1.5,3.4-2.9,4.8
		c-1.4,1.3-3,2.2-4.9,2.7c-1.9,0.5-3.7,0.4-5.6-0.2c-2.8-0.8-4.9-2.5-6.3-5.1c-1.4-2.6-1.7-5.3-0.9-8.2c0.9-3.1,2.8-5.3,5.6-6.7
		C151.2,350.4,153.8,350.1,156.3,350.9L156.3,350.9L156.3,350.9z"/>
	<path class="st0" d="M168.7,354.7l5.1,0.7l-1.3,9.8c-0.2,1.9-0.3,3.2-0.1,4c0.2,0.8,0.5,1.4,1.1,1.9c0.5,0.5,1.2,0.8,2.1,0.9
		c0.9,0.1,1.6,0,2.3-0.3c0.7-0.3,1.2-0.9,1.6-1.6c0.3-0.6,0.6-1.8,0.8-3.7l1.3-9.9l5.1,0.6l-1.1,8.6c-0.4,3.5-1,5.9-1.8,7.1
		c-0.9,1.5-2.1,2.6-3.5,3.3c-1.4,0.7-3.2,0.9-5.3,0.6c-2.2-0.3-4-1-5.2-2.2c-1.3-1.2-2-2.7-2.4-4.5c-0.2-1.3-0.2-3.5,0.3-6.8
		L168.7,354.7L168.7,354.7z"/>
	<path class="st0" d="M189.5,356.9l4.5,0.1l-0.1,2.6c0.5-1,1.1-1.7,1.9-2.3c0.8-0.5,1.6-0.8,2.5-0.7c0.6,0,1.3,0.2,2,0.6l-1.6,4.4
		c-0.6-0.3-1.1-0.5-1.4-0.5c-0.8,0-1.4,0.5-2,1.4c-0.6,1-0.8,2.9-0.9,5.7v1l-0.2,8.3l-5.1-0.1L189.5,356.9L189.5,356.9z"/>
	<path class="st0" d="M201.9,357.3l5.1-0.5l0.2,2.1c1.1-1.1,2.1-1.9,3-2.3c0.9-0.5,1.9-0.7,2.8-0.8c2-0.2,3.8,0.4,5.3,1.6
		c1.3,1.1,2,2.8,2.3,5.1l1.2,13.4l-5.1,0.5l-0.8-8.9c-0.2-2.4-0.5-4-0.8-4.8c-0.3-0.8-0.7-1.3-1.3-1.7c-0.6-0.4-1.3-0.5-2-0.4
		c-1,0.1-1.9,0.5-2.6,1.3c-0.7,0.8-1.1,1.8-1.3,3c-0.1,0.7,0,2,0.2,4.1l0.7,8.1l-5.1,0.5L201.9,357.3L201.9,357.3z"/>
	<path class="st0" d="M239.5,358.9c-0.6-1-1.5-1.7-2.6-2.2c-1.1-0.4-2.4-0.5-3.6-0.2c-1.4,0.4-2.5,1.1-3.4,2.1
		c-0.5,0.6-0.9,1.6-1.2,3L239.5,358.9L239.5,358.9z M245.4,361.5l-16,4.1c0.6,1.3,1.5,2.3,2.7,2.9c1.2,0.6,2.6,0.7,4.1,0.3
		c1.9-0.5,3.3-1.5,4.3-3.2l4.7,0.9c-0.7,1.7-1.6,3.1-2.9,4.2c-1.3,1.1-2.9,1.9-4.9,2.4c-3.1,0.8-5.9,0.5-8.3-1
		c-2.4-1.5-4-3.7-4.8-6.6c-0.8-3-0.4-5.8,1-8.3c1.4-2.5,3.6-4.1,6.6-4.8c3.1-0.8,5.9-0.4,8.4,1.1c2.4,1.5,4.1,3.9,4.9,7.1
		L245.4,361.5L245.4,361.5z"/>
	<path class="st0" d="M243.8,350.3l4.6-2.3l1,2.1c0.4-1.3,0.9-2.3,1.7-3.2c0.8-0.9,1.7-1.6,2.8-2.2c1.2-0.6,2.3-0.8,3.5-0.7
		c1.2,0.1,2.3,0.6,3.4,1.4c0.2-1.4,0.7-2.7,1.5-3.8c0.8-1.1,1.8-1.9,3.1-2.6c1.3-0.6,2.6-0.9,3.9-0.8c1.3,0.1,2.4,0.6,3.3,1.3
		c0.9,0.8,1.9,2.2,3,4.4l5.3,10.8l-4.6,2.2l-4.5-9.3c-1-2.1-2-3.4-2.8-3.8c-0.9-0.5-1.9-0.5-2.9,0c-0.8,0.4-1.4,1-1.8,1.7
		c-0.4,0.8-0.6,1.6-0.5,2.5c0.1,0.9,0.5,2.3,1.4,4l4,8.2l-4.6,2.2l-4.3-8.9c-0.8-1.6-1.5-2.8-2.1-3.4c-0.6-0.6-1.2-1-1.9-1.1
		c-0.7-0.1-1.3,0-2,0.3c-0.8,0.4-1.4,0.9-1.8,1.7c-0.4,0.8-0.6,1.6-0.5,2.6c0.1,1,0.6,2.3,1.4,4.1l4,8.1l-4.6,2.2L243.8,350.3
		L243.8,350.3z"/>
	<path class="st0" d="M283.5,332.4c-1.3,1-2,2.2-2.1,3.8c-0.2,1.5,0.3,3,1.3,4.3c1.1,1.4,2.4,2.2,3.9,2.5c1.5,0.2,2.9-0.1,4.2-1.1
		c1.3-1,2-2.2,2.1-3.8c0.2-1.5-0.3-3-1.4-4.4c-1.1-1.4-2.4-2.2-3.9-2.4C286.2,331,284.8,331.4,283.5,332.4L283.5,332.4z
		 M280.5,328.7c1.5-1.2,3.3-1.9,5.2-2.2c1.9-0.3,3.8-0.1,5.5,0.7c1.8,0.7,3.2,1.8,4.4,3.4c1.2,1.5,1.9,3.2,2.1,5.2
		c0.3,1.9,0,3.7-0.7,5.5c-0.7,1.8-1.9,3.2-3.5,4.5c-2.3,1.8-4.9,2.5-7.8,2.1c-2.9-0.4-5.3-1.7-7.1-4.1c-2-2.5-2.7-5.3-2.1-8.5
		C277.1,332.5,278.4,330.3,280.5,328.7L280.5,328.7L280.5,328.7z"/>
	<path class="st0" d="M290.9,320.9l3.5-3.7l7.1,6.8c1.4,1.3,2.4,2.1,3.2,2.4c0.7,0.3,1.5,0.4,2.2,0.3c0.7-0.1,1.4-0.5,2-1.2
		c0.6-0.6,1-1.3,1.1-2c0.1-0.7,0-1.5-0.4-2.2c-0.3-0.6-1.1-1.5-2.5-2.8l-7.3-6.9l3.5-3.7l6.3,5.9c2.6,2.4,4.2,4.3,4.7,5.6
		c0.7,1.6,0.9,3.2,0.6,4.8c-0.3,1.6-1.2,3.1-2.6,4.6c-1.6,1.6-3.2,2.6-4.8,2.9c-1.7,0.3-3.4,0.1-5.1-0.7c-1.2-0.6-3-2-5.3-4.2
		L290.9,320.9L290.9,320.9z"/>
	<polygon class="st0" points="300.1,299.5 303.2,295.4 309.1,300 311,297.6 314.5,300.2 312.6,302.6 325.4,312.3 322.3,316.4 
		309.5,306.7 307.9,308.8 304.5,306.1 306,304 300.1,299.5 	"/>
	<path class="st0" d="M305.4,292l2.7-4.4l8.5,5.2c-0.2-1.3-0.3-2.5-0.1-3.6c0.2-1.1,0.5-2.1,1.1-3c1.1-1.7,2.5-2.8,4.4-3.3
		c1.7-0.4,3.5,0,5.5,1.3l11.5,7l-2.6,4.3l-7.7-4.7c-2-1.2-3.4-2-4.3-2.2c-0.8-0.2-1.6-0.2-2.2,0c-0.6,0.3-1.2,0.7-1.6,1.4
		c-0.5,0.9-0.7,1.8-0.5,2.8c0.2,1,0.7,1.9,1.6,2.8c0.5,0.5,1.6,1.2,3.5,2.4l7,4.3l-2.7,4.4L305.4,292L305.4,292z"/>
</g>
</svg>
