<?xml version="1.0" encoding="utf-8"?>
<!-- Generator: Adobe Illustrator 19.1.0, SVG Export Plug-In . SVG Version: 6.00 Build 0)  -->
<svg version="1.1" id="Layer_1" xmlns="http://www.w3.org/2000/svg" xmlns:xlink="http://www.w3.org/1999/xlink" x="0px" y="0px"
	 viewBox="0 0 160 160" style="enable-background:new 0 0 160 160;" xml:space="preserve">
<style type="text/css">
	.st0{fill:#BA8B2D;}
	.st1{fill:#253D83;}
	.st2{fill:#2C3037;}
	.st3{fill:#9E8644;}
	.st4{fill:#A29266;}
	.st5{fill:#A48C4C;}
	.st6{fill:#FFFFFB;}
	.st7{fill:#A28C51;}
	.st8{fill:#A58D49;}
	.st9{fill:#FFFFFC;}
	.st10{fill:#243A7A;}
	.st11{fill:#384142;}
	.st12{fill:#424741;}
	.st13{fill:#E0C178;}
	.st14{fill:#A48C4D;}
	.st15{fill:#333D42;}
	.st16{fill:#2C3B48;}
	.st17{fill:#B98B2D;}
	.st18{fill:#2B3944;}
	.st19{fill:#1E2F44;}
	.st20{fill:#B3944A;}
	.st21{fill:#524F35;}
	.st22{fill:#5A6EB2;}
	.st23{fill:#596FB2;}
	.st24{fill:#D4D3D6;}
	.st25{fill:#596EB3;}
	.st26{fill:#D2D3DA;}
	.st27{fill:#CED4E0;}
	.st28{fill:#B5C7E7;}
	.st29{fill:#D3D4D7;}
	.st30{fill:#5B6EB3;}
	.st31{fill:#E91E25;}
	.st32{fill:#546FB5;}
	.st33{fill:#5B6FAF;}
	.st34{fill:#D7D3D5;}
	.st35{fill:#FCF6FA;}
	.st36{fill:#FDF8FB;}
	.st37{fill:#C7373C;}
	.st38{fill:#C73237;}
	.st39{fill:#586EB4;}
	.st40{fill:#D2D3D8;}
	.st41{fill:#D2D3D7;}
	.st42{fill:#ED1C24;}
	.st43{fill:#E21F26;}
	.st44{fill:#DB1F26;}
	.st45{fill:#D3D4D8;}
	.st46{fill:#DF1F26;}
	.st47{fill:#576EB4;}
	.st48{fill:#E11F26;}
	.st49{fill:#EA1D25;}
	.st50{fill:#E71E25;}
	.st51{fill:#566EB4;}
	.st52{fill:#D1D3D8;}
	.st53{fill:#BC7D80;}
	.st54{fill:#C96D70;}
	.st55{fill:#C4373A;}
	.st56{fill:#576EB0;}
	.st57{fill:#CE3639;}
	.st58{fill:#CC2B30;}
	.st59{fill:#CA2027;}
	.st60{fill:#5B6EB2;}
	.st61{fill:#6C82B9;}
	.st62{fill:#FEF3F8;}
	.st63{fill:#FEF2F4;}
	.st64{fill:#263A7D;}
	.st65{fill:#D0D4DF;}
	.st66{fill:#D3D3D6;}
	.st67{fill:#C8CDE1;}
	.st68{fill:#596FB0;}
	.st69{fill:#4D69A5;}
	.st70{fill:#5C73AF;}
	.st71{fill:#2B3B47;}
	.st72{fill:#FFFEF9;}
	.st73{fill:#A69977;}
	.st74{fill:#333C39;}
	.st75{fill:#1B3562;}
	.st76{fill:#9B916F;}
	.st77{fill:#3C4443;}
	.st78{fill:#FFFEF5;}
	.st79{fill:#FFFEF6;}
	.st80{fill:#253B7F;}
	.st81{fill:#28344A;}
	.st82{fill:#303D43;}
	.st83{fill:#FFFEF8;}
	.st84{fill:#FFFEF4;}
	.st85{fill:#243976;}
	.st86{fill:#384754;}
	.st87{fill:#263D59;}
	.st88{fill:#2C3E55;}
	.st89{fill:#C1B288;}
	.st90{fill:#3F4C54;}
	.st91{fill:#FFFFFA;}
	.st92{fill:#2A3F59;}
	.st93{fill:#A0936B;}
	.st94{fill:#373B32;}
	.st95{fill:#AB955C;}
	.st96{fill:#474C45;}
	.st97{fill:#3C4645;}
	.st98{fill:#2E4056;}
	.st99{fill:#303E4A;}
	.st100{fill:#B0A789;}
</style>
<g>
	<path class="st0" d="M73.1,13.6c9.5-0.9,19.2,0.1,28.3,3.2c12.1,4.1,23,11.8,30.9,21.9c7.8,9.9,12.7,22,14,34.6
		c0.6,6.8,0.4,13.7-1.1,20.4c-2,9.6-6.1,18.7-12,26.5c-6.1,8.1-14,14.8-23,19.4c-9.3,4.8-19.8,7.3-30.3,7.2c-11,0.1-22-2.7-31.7-8
		c-11.2-6.1-20.7-15.4-26.8-26.6c-4.3-7.7-6.9-16.3-7.9-25.1c-0.8-9.2-0.1-18.7,2.8-27.5c4-12.6,12-24,22.4-32.1
		C48.5,19.7,60.6,14.8,73.1,13.6 M70.6,15.6c-15.4,2.2-30,10.2-40.1,22C23.2,46.1,18.1,56.5,16,67.5c-1.3,6-1,12.3-0.9,18.4
		c0.9,11.1,4.9,21.9,11.2,31c10.6,15.6,28.5,26.2,47.3,27.8c3.1,0.2,6.2,0.1,9.4,0.1c4.5,0,9-0.8,13.3-1.9c9-2.3,17.4-6.6,24.6-12.5
		c13.5-10.9,22.4-27.5,23.7-44.9c0.1-5.7,0.4-11.5-0.8-17.1c-1.7-10-5.9-19.5-12-27.6c-6.5-8.8-15.3-15.7-25.3-20.2
		C98.6,17.1,90,15,81.2,15.1C77.7,15.2,74.1,15.1,70.6,15.6 M37.4,119.3c0.9-1.7,2.5-2.9,3.8-4.2c1.3,1.1,2.5,2.4,3.7,3.6
		c-0.4,0.4-0.7,0.9-1.1,1.3c-0.9-0.5-1.6-1.4-2.7-1.2c0.5,0.8,1,1.5,1.5,2.3c-0.5,0.3-0.9,0.7-1.4,1c-0.5-0.4-1-1.1-1.7-1.2
		c-0.9,0.6-1.5,1.6-2.5,1.9l0.2-0.2c0.8-0.8,1.6-1.6,2.4-2.4c0.7,0.6,1.3,1.1,2,1.7c0.2-0.3,0.4-0.7,0.6-1c-0.5-0.6-1-1.1-1.6-1.7
		c0.4-0.4,0.8-0.8,1.1-1.1c0.6,0.6,1.2,1.1,1.8,1.7c0.3-0.3,0.5-0.5,0.8-0.8c-0.9-1.2-2-2.2-3.2-3.2C40,116.8,38.8,118.1,37.4,119.3
		 M117.6,115.2c0.6,0,1.3,0,1.9,0c1.1,0.3,1.3,1.5,2.2,2.1c0.6,0.5,1.3,0.8,1.6,1.5c0.3,0.9,0.3,1.9-0.4,2.6c-1,1.1-2,2.1-3.1,3.1
		c-1.4-1.3-2.7-2.7-4.1-4c-0.6-0.6-1.1-1.2-1.7-1.8C115.2,117.5,116.3,116.2,117.6,115.2 M117.6,115.7c-1.1,0.9-2,2-3,3
		c1.6,1.9,3.5,3.6,5.3,5.3c1.3-1.4,3.6-2.5,3.2-4.7c-0.1-1-1.2-1.2-1.9-1.8c-0.5-0.5-0.8-1.3-1.3-1.8
		C119.2,115.3,118.2,115.1,117.6,115.7 M44.7,120.5c1-0.1,2.1-0.1,3.2,0C46.8,120.6,45.8,120.6,44.7,120.5 M46.3,122.5
		c0.7-0.2,1.4,0.1,1.8,0.7c0.6,1.9-1.2,4.1-3.2,3.8C43.1,125.9,44.7,123.2,46.3,122.5 M46.6,122.9c-1.1,0.2-1.8,1.4-2.2,2.4
		c-0.3,0.8,0.5,1.8,1.4,1.5c1-0.4,1.8-1.3,2.1-2.3C48.3,123.6,47.4,122.6,46.6,122.9 M103.7,126.7c-0.6-1.2,1.1-1.6,1.8-2.1
		c1.1,1.6,1.9,3.4,3,4.9c0.9,0.3,1.7-0.5,2.5-0.8c0.3,0.6,1,1.2,0.6,1.9c-1.3,1-2.8,1.7-4.3,2.5
		C106.2,130.9,104.8,128.9,103.7,126.7 M103.8,125.9c1,2.3,2.4,4.5,3.8,6.6c1.3-0.7,2.6-1.4,3.9-2.2c-0.2-0.4-0.4-0.8-0.6-1.2
		c-0.7,0.4-1.4,0.8-2.2,1.1c-0.4-0.1-0.5-0.6-0.7-0.9c-0.8-1.4-1.6-2.9-2.5-4.2C104.9,125.4,104.4,125.7,103.8,125.9 M52.3,125.3
		c1.9-0.4,4.4,0.1,5.2,2.1c0.4,1.1,0.3,2.4,0,3.5c-0.1,0.5-0.6,0.8-0.9,1.2c0.8-1.6,1.4-3.6,0.3-5.1c-0.9-1.4-2.7-1.5-4.3-1.7
		L52.3,125.3 M59,127.8c0.1,0,0.4,0,0.6,0c1.3,0.5,2.6,1,3.9,1.4c0.3,0.1,0.7,0.2,1,0.3c0,0.6-0.1,1.3-0.4,1.8
		c-0.5-0.1-1-0.2-1.5-0.2c-0.6,0.5-0.7,1.2-0.9,1.9c-0.4,1.2-0.8,2.4-1.3,3.5c-0.7-0.2-1.8-0.1-2.2-0.8c0-1.2,0.5-2.4,1.1-3.5
		c0.2-0.3,0.4-0.6,0.6-0.8c-0.5,1.4-1,2.8-1.4,4.2c0.6,0.2,1.2,0.5,1.8,0.7c0.8-1.9,1.4-3.8,2.1-5.7c0.6,0.1,1.1,0.2,1.7,0.3
		c0.1-0.4,0.1-0.8,0.2-1.1c-1.6-0.6-3.2-1.2-4.8-1.7c-0.1,0.2-0.4,0.6-0.5,0.9c0.5,0.3,1,0.7,1.5,1c0,0.1-0.1,0.3-0.1,0.4
		c-0.5-0.4-1.1-0.7-1.7-1C58.7,128.9,58.8,128.4,59,127.8 M44.8,129.1c0.9-0.1,1.8-0.1,2.7,0C46.6,129.4,45.6,129.2,44.8,129.1
		 M103.2,131.5c0.6,0.1,1.2,0.1,1.9,0.2c-0.2,1.6-1,3.3-2.6,3.8c-1.3,0.3-2.9,0.4-3.9-0.7c1.4,0.5,3,0.9,4.3,0.1
		c1.1-0.6,1.6-1.8,1.9-3c-0.4,0-0.7-0.1-1.1-0.1c-0.3,0.4-0.5,0.8-0.8,1.2C102.9,132.6,103.1,132.1,103.2,131.5L103.2,131.5z"/>
	<path class="st1" d="M70.6,15.6c3.5-0.5,7.1-0.4,10.6-0.4c8.7-0.1,17.4,2,25.3,5.5c9.9,4.5,18.8,11.5,25.3,20.2
		c6.1,8.1,10.3,17.6,12,27.6c1.2,5.6,0.8,11.4,0.8,17.1c-1.3,17.4-10.2,34-23.7,44.9c-7.2,5.9-15.6,10.2-24.6,12.5
		c-4.3,1.1-8.8,1.9-13.3,1.9c-3.1,0-6.2,0.1-9.4-0.1c-18.9-1.6-36.7-12.2-47.3-27.8C20,107.8,16,97,15.1,85.9
		c-0.1-6.1-0.4-12.3,0.9-18.4c2.1-11,7.2-21.4,14.5-29.9C40.6,25.7,55.2,17.8,70.6,15.6 M76.8,17.9c0,4.6,0,9.1,0,13.7
		c3.1,0.2,6.1,0.2,9.2,0c0.2-1.2,0.2-2.5,0-3.7c-1.3-0.1-2.7-0.2-4-0.2c-0.3-3.3,0.1-6.5-0.2-9.8C80.2,17.9,78.5,17.9,76.8,17.9
		 M63.9,19.8c-0.1,0.9,0,1.8,0.2,2.6c0.8,3.6,1.3,7.2,2.2,10.7c2.9-0.4,5.7-0.9,8.5-1.7c-0.1-1-0.3-2-0.6-3c-0.4,0-0.8,0.1-1.2,0.2
		c-1,0-1.9,0-2.9-0.1c0.1-0.3,0.1-0.7,0.2-1c0.5-0.2,1.1-0.4,1.4-0.8c0.6-0.1,1.2-0.2,1.8-0.3c0-1.1-0.2-2.2-0.6-3.3
		c-0.6,0.1-1.1,0.2-1.7,0.4c-0.8,0-1.7-0.1-2.4-0.5c0.6-0.4,1.3-0.7,1.9-1.2c0.7-0.1,1.4-0.3,2-0.5c-0.3-1-0.1-2.3-0.9-3
		C69.2,18.7,66.6,19.5,63.9,19.8 M91.4,20.3c-1.9,0.9-2.5,3.3-1.8,5.1c0.6,1.4,1.9,2.1,3,3.1c-0.2,0.7-0.7,1.2-1.2,1.7
		c-0.4-0.7-0.7-1.4-1.1-2.2c-1,0.1-1.9,0.4-2.8,0.9c0.2,0.9,0.5,1.8,1.1,2.5c1.4,1.8,4.1,2.3,6.2,1.6c1.8-0.6,2.9-2.6,2.6-4.4
		c-0.2-1-0.8-2-1.6-2.7c0.9-0.2,1.8-0.5,2.7-1C99.1,21.2,94.4,18.6,91.4,20.3 M54.5,23.4c0.4,1.2,1,2.3,1.5,3.4
		c-0.2,0.4-0.3,1-0.7,1.2c-0.4,0-0.8,0-1.3,0c-0.6-1.2-1.1-2.4-1.7-3.6c-1.4,0.5-2.8,1-4,2c1.1,2.4,2.3,4.8,3.4,7.2
		c0.8,1.6,1.4,3.3,2.4,4.7c1.4-0.4,2.7-1.1,3.9-1.8c-0.4-1.2-1-2.3-1.6-3.4c0.1-0.4,0.1-0.9,0.2-1.3c0.5-0.2,1-0.4,1.4-0.7
		c0.7,1.5,1.3,3,2.1,4.4c1.4-0.3,2.7-1.1,4-1.8c-1.7-4.1-3.8-8-5.7-12.1C57,22,55.8,22.7,54.5,23.4 M103.1,24.8
		c-1.6,3.4-3.5,6.7-5,10.1c2.5,1.5,5.1,2.8,7.8,4c0.6-0.9,1-1.8,1.3-2.9c-0.9-0.5-1.9-1-2.9-1.4c0-0.5,0.1-1.1,0.1-1.6
		c0.8,0.2,1.5,0.3,2.3,0.5c0.4,0.2,0.8,0.4,1.3,0.7c0.7-0.9,1.2-1.9,1.4-2.9c-0.9-0.5-1.7-0.9-2.6-1.4c0-0.4-0.1-0.7-0.1-1.1
		c0.7,0.1,1.4,0.2,2.1,0.3c0.5,0.3,1,0.5,1.6,0.8c0.6-0.9,1.1-1.9,1.4-2.9c-2.4-1.2-4.8-2.5-7.3-3.7
		C103.7,23.2,103.5,24.2,103.1,24.8 M41.3,31.4c-3.3,1.1-5.5,5.1-4.4,8.5c0.7,2,2,3.7,3.8,4.8c3.7,2,9.3-0.1,10.1-4.4l0.4,0.1
		c0.1-1.2,0.7-2.9-0.4-3.7c-0.1-0.2-0.2-0.5-0.3-0.6c-1,0.1-2,0.3-3,0.6c0.2,1.7,0.2,3.8-1.6,4.6c-0.4-0.4-1.2-0.4-1.6,0
		c-1.3-0.5-2.4-1.4-3.1-2.7c-0.7-1.1-0.6-2.7,0.4-3.5c1.1,0,2.3-0.1,3.4-0.4c0.1,0,0.3,0,0.4,0.1c0.2-1.1,0.4-2.3,0.4-3.4
		C44.4,31.1,42.8,31,41.3,31.4 M116.9,34.4c-3.1,1.7-6.4,3.2-9.4,5c0.7,0.7,1.3,1.7,2.2,2c0.6-0.1,1.1-0.5,1.7-0.7
		c0.6,0.1,1.3,0,1.8,0.5c0.6,0.5,0.4,1.4,0.4,2.1c-0.1,0.5-0.6,1-0.2,1.5c0.9,1,1.9,2,3.1,2.7c1-3.1,2.1-6.2,3.1-9.3
		c0.6-1.9,1.4-3.8,1.8-5.8C119.8,32.8,118.4,33.6,116.9,34.4 M78.6,33.5c-7.6,0.1-15.2,2.3-21.8,6.1c-9.6,5.5-17.2,14.5-20.9,25
		c-2.4,6.7-3.1,13.9-2.3,21c1.2,9.9,5.6,19.3,12.5,26.5c7.2,7.7,17.1,12.7,27.6,14.1c8.1,1,16.4,0.1,23.9-3.1
		c9.5-3.9,17.6-11.1,22.7-20c6.3-11,7.8-24.6,4.1-36.7c-3.1-10.5-10.3-19.8-19.5-25.7C97.1,35.8,87.8,33.2,78.6,33.5 M24.7,59.6
		c-2.9,0.8-4.9,3.9-4.6,6.8c0.2,2.4,1.9,4.6,4.2,5.5c2.4,1,5.4,0.2,7.2-1.8c2-2.2,2.2-5.8,0.4-8.2C30.3,59.8,27.3,58.8,24.7,59.6
		 M131.4,59.6c-2.8,0.8-4.9,3.6-4.6,6.5c0,3.7,3.7,6.7,7.3,6.2c3.3-0.3,6-3.5,5.7-6.9C139.6,61.4,135.2,58.4,131.4,59.6 M23.4,88.9
		c-0.8,0-1.9-0.1-2.3,0.8c-0.4,1.2-0.9,2.4-1.4,3.5c-0.4,0.9,0.4,1.6,0.9,2.2c-0.1,0.6-0.3,1.2-0.2,1.9c0.2,0.7,0.9,1,1.4,1.4
		c0.8,0.5,1.4,1.2,2.1,1.8c0.8,0.4,1.6-0.1,2.3-0.3c0.7,0.4,1.5,1,2.3,0.5c1.1-0.7,2.1-1.4,3.2-2c0.9-0.5,0.6-1.6,0.5-2.5
		c0.6-0.4,1.5-1,1.3-1.9c-0.3-1.3-0.7-2.5-1-3.8c-0.2-0.9-1.3-1-2-1.2c-0.3-0.8-0.6-1.8-1.6-1.8c-1.4,0-2.7-0.2-4-0.2
		C24.1,87.3,23.8,88.3,23.4,88.9 M130.9,87.7c-0.6,0.3-0.7,1-0.9,1.6c-0.8,0.2-1.9,0.2-2.2,1.2c-0.3,1.3-0.7,2.6-1,3.8
		c-0.2,0.9,0.6,1.5,1.2,2c0,0.7-0.3,1.6,0.3,2.2c0.6,0.5,1.4,0.8,2.1,1.3c0.7,0.5,1.4,1.2,2.4,1c0.5-0.2,0.8-0.5,1.2-0.8
		c0.7,0.5,1.7,0.9,2.5,0.3c0.9-0.8,1.9-1.6,2.9-2.4c0.8-0.6,0.4-1.7,0.2-2.6c0.7-0.5,1.4-1.3,1-2.2c-0.5-1.2-0.9-2.4-1.4-3.6
		c-0.4-0.9-1.5-0.8-2.3-0.8c-0.3-0.6-0.5-1.5-1.3-1.6c-0.9-0.1-1.8,0.2-2.8,0.1C132.3,87.5,131.6,87.3,130.9,87.7 M117.6,115.2
		c-1.3,1-2.4,2.3-3.7,3.5c-0.3,0.3-0.6,0.6-0.9,0.9c-0.4,0.4-0.8,0.8-1.3,1.2c0.7,2,3.1,3.2,3,5.4c-0.2,0-0.7-0.1-0.9-0.1
		c-1.3-1.3-2.2-2.9-3.3-4.3c-0.9,0.3-1.5,0.9-2.2,1.5c1,1.5,2,3.2,3.5,4.4c0.1,0.1,0.2,0.3,0.3,0.5c1.5,1.1,4.3,0.6,4.8-1.4
		c0.7-0.1,0.8-1.9,0-2c-0.1-0.5-0.4-1-0.7-1.4c-0.3-0.9-0.7-1.8-0.5-2.8c1.4,1.3,2.7,2.7,4.1,4c1.1-1,2.2-2,3.1-3.1
		c0.7-0.7,0.7-1.7,0.4-2.6c-0.3-0.7-1.1-1-1.6-1.5c-0.8-0.6-1.1-1.8-2.2-2.1C119.5,114.4,117.8,114.4,117.6,115.2 M37.4,119.3
		c-0.6,0.5-1.1,1.1-1.7,1.7c0.5,0.5,1,1,1.5,1.5l-0.2,0.2c1-0.4,1.7-1.3,2.5-1.9c0.7,0.1,1.1,0.8,1.7,1.2l-0.2,0.1
		c0.3,0.2,0.6,0.4,0.9,0.6c-0.3,1.3-0.8,2.6-0.1,3.8l0.2-0.4c0.9,2.3,3.8,3.4,5.9,2.2c0.2,0,0.7,0.1,1,0.2c0.1,1.4,0.2,2.9,1.5,3.7
		c1.5,1.6,4.5,1.7,5.9,0c0.3-0.4,0.8-0.7,0.9-1.2c0.5-0.6,1.1-1.1,1.8-0.6c-0.1,0.7-0.1,1.3-0.1,2c-0.6,1.1-1.1,2.3-1.1,3.5
		c0.4,0.7,1.5,0.6,2.2,0.8c0.6-1.1,1-2.3,1.3-3.5c0.7-0.9,1.6-1.4,2.7-1.7l-0.2,0c0.3-0.6,0.4-1.2,0.4-1.8c-0.3-0.1-0.7-0.2-1-0.3
		c-0.9-1.2-2.5-1.4-3.9-1.4c-0.1,0-0.4,0-0.6,0c-0.5-0.1-1-0.2-1.5-0.4c-0.8-2.1-3.2-2.5-5.2-2.1c-0.5,0-1,0.3-1.5,0.4
		c0-1,0-2-0.5-2.9c-0.1,0.1-0.2,0.5-0.2,0.6c-0.5-1.1-1.3-2.2-2.5-2.5c-1.1-0.2-2.4-0.3-3.3,0.3c-0.4-0.1-0.9-0.2-1.3-0.3
		c0.3-0.3,0.6-0.7,1-1c0.4-0.4,0.8-0.9,1.1-1.3c-1.2-1.2-2.4-2.5-3.7-3.6C39.9,116.4,38.4,117.6,37.4,119.3 M44.7,120.5
		c1,0.1,2.1,0.1,3.2,0C46.8,120.4,45.8,120.4,44.7,120.5 M103.7,126.7c1.1,2.2,2.5,4.2,3.7,6.4c1.5-0.8,3-1.5,4.3-2.5
		c0.3-0.7-0.3-1.3-0.6-1.9c-0.8,0.3-1.6,1.1-2.5,0.8c-1.2-1.5-1.9-3.4-3-4.9C104.8,125.1,103.1,125.5,103.7,126.7 M96.4,131.1
		c0,1.2,0.4,2.5,1.5,3.2c0.2,0.2,0.5,0.5,0.7,0.7c1,1.1,2.6,1,3.9,0.7c1.7-0.5,2.4-2.3,2.6-3.8c-0.6-0.1-1.2-0.2-1.9-0.2
		c-0.2,0.6-0.3,1.1-0.4,1.7c-0.1,0.1-0.2,0.4-0.3,0.5c-0.6-0.2-1.2-0.3-1.8-0.6c-0.7-0.6-0.9-1.5-1.2-2.4c0.3-0.4,0.6-0.9,1.1-1.3
		c0.8,0,1.5,0.2,2.2,0.4c0.5-0.6,0.8-1.2,0.9-1.9c-0.9-0.4-1.9-0.9-2.9-0.9C98.6,127.3,96.7,129,96.4,131.1 M44.8,129.1
		c0.9,0.1,1.8,0.2,2.7,0C46.6,129.1,45.6,129.1,44.8,129.1 M65.5,129.9l0.3,0.1c-0.2,0.7-0.4,1.4-0.6,2.1c-0.6,0.8-0.9,1.7-0.6,2.6
		c-0.3,1.1-0.6,2.2-0.6,3.3c-0.1,0.6,1,0.7,1.2,0.3c0.4,0.2,0.9,0.3,1.4,0.4c0.7,0.8,2.1,0.7,2.9,0.1c1.1-0.9,1.3-2.4,1.1-3.8
		c0-0.1,0.1-0.3,0.1-0.4c0.1-0.1,0.4-0.2,0.5-0.2c0.5-1.3,0-3-1.4-3.5C68.6,129.8,67,129.7,65.5,129.9 M75.4,130.7
		c-1,1.8-1.9,3.8-2.8,5.6c-0.5,1-1.1,2-1.3,3.1c0.1,0.7,1.6,0.7,1.6,0c0.4-0.5,0.9-1.1,1.3-1.6c1.1,0.1,1.3,1.3,1.7,2.1
		c0.8,0.1,1.6,0.1,2.5,0.2c-0.4-1.7-1-3.4-1.5-5.1C76.5,133.5,76.2,132,75.4,130.7 M85.5,131.2c-0.5,0.9,0,1.9,0.1,2.8
		c0.4,1.7,0.2,3.6,1.1,5.1l0,0.3l0.2,0.3c1.4,0.3,2.8-0.3,4.1-0.8c0.4-0.1,0.7-0.2,1.1-0.3c-0.1-0.7-0.2-1.4-0.3-2.1
		c-0.8-0.2-1.6-0.2-2.4-0.2c-0.2-1-0.3-2-0.4-3.1c-0.1-0.4,0-1.2-0.6-1.3c-0.1-0.4-0.1-0.8-0.1-1.2
		C87.4,130.5,86.3,130.8,85.5,131.2 M79.6,131.5c0,1.2-0.2,2.4,0.3,3.5c0,0.7,0,1.4,0.1,2.1c-0.5,0.9-0.2,2-0.1,3
		c1.9,0.2,3.7-0.1,5.6-0.3c0-0.7,0.1-1.4,0-2.1c-0.9,0-1.8-0.1-2.7-0.1c0-2,0.1-4.1-0.2-6.1C81.6,131.3,80.6,131.3,79.6,131.5
		 M85.4,44c0.7,0.9,1,2,1.9,2.8c2.1,2,5.1,2.2,7.9,2.5c0.6,1.2,1.7,1.9,2.6,2.6c-0.7,1.7-2,3.1-3,4.7c-0.6-0.4-1.2-1.3-2.1-0.9
		c-1.1,0.5-1.8,1.9-1.5,3.1c0.8,0.1,1.5,0.1,2.3,0c0,0.6,0,1.1,0,1.7c0,0.7,0.1,1.4,0.2,2.1c-1.1-0.7-2.5-1.8-3.9-1.1
		c-1.5,0.8-1.5,2.9-1.1,4.3c0.2,1.1,1.1,1.8,2.1,2.2c1,0,1.9-0.7,2.6-1.3c0.2,0.6,0.5,1.2,0.7,1.8c0,1.1,0,2.3-0.9,3.1
		c-1.1,1.2-2.7,1.1-4.2,1.2c-0.3,2,1.2,3.6,1.5,5.5c0.6,3.4,1.1,7,2.8,10.1c0.9,2,2.8,3.6,5,4c1.7,0.3,3.7-0.2,4.7-1.6
		c0.9-1.4,0.9-3.3,0.4-4.9c-1-3-3.8-4.9-5.1-7.7c-0.8-1.7-0.7-3.7,0.4-5.2c1.4-2.1,3.6-3.6,5.5-5.3c0.9-0.9,1.8-1.9,2-3.2
		c0.2-2.2-2.1-4.4-4.3-3.7c-1.2,0.3-1.7,1.4-2.2,2.4c-0.2,0.4-0.4,0.7-0.7,1.1c0-1,0-2.1,0.2-3.1c0.3-0.5,0.7-1,1.1-1.4
		c2.6-2.3,7.2-1.7,9.1,1.2c0.7,1.8,0.7,3.9-0.3,5.6c-1.7,2.8-4.8,4.3-7.1,6.4c-0.8,0.7-1.3,1.6-1.7,2.5c1.6-1.2,3.5-2.3,5.6-2.1
		c1.6,0.2,3,1.2,3.9,2.5c0.9,2,0.2,4.4-1.5,5.8l-0.3,0.3c0.2-1.3,0.7-2.9-0.3-4.1c-1.2-1.7-4-1.8-5.3-0.2c-0.7,0.7-0.7,1.8-0.7,2.7
		c1.6,2.3,3.8,4.2,4.4,7c0.7,2.3-0.2,5.1-2.4,6.2c-2.6,1.4-5.7,0.8-8.4-0.2c-0.2-0.1-0.6-0.3-0.8-0.4c-0.7-0.5-1.5-0.9-2.2-1.4
		c0.4,2.1,1.5,4.2,3.3,5.4c1.7,1.2,3.9,1.1,5.9,0.7c-0.5,0.7-1.1,1.3-1.5,2c-2.5,3.4-2.4,7.9-2.1,11.9c0.1,1.1-1,1.5-1.9,1.7
		c-0.8,0.1-1.1,0.9-1.5,1.5l-0.2-0.2l-0.2-0.2c-0.2-0.4-0.3-0.9-0.4-1.3c-0.2,0-0.7-0.1-1-0.1c-1.1-0.1-1.6,0.9-2,1.7
		c-0.2,0.1-0.5,0.4-0.7,0.6c0-0.9-0.1-1.7-0.1-2.6c-0.7,0-1.3,0.1-2,0.2c-0.6,0.1-1.1,0.3-1.6,0.7c-0.3,0.6-0.5,1.3-0.7,1.9
		c-0.1-0.2-0.3-0.5-0.4-0.7c0-1.6-1-3.9,0.7-5c2-1.3,4.4-0.8,6.6-1c1.1-1.8,2-3.7,1.9-5.8c-0.1-1.2-0.4-2.5-1.4-3.3
		c-1.1-0.4-2.4-0.2-3.5-0.7c-1-0.7-1.1-2.1-2-2.9c-0.9-0.3-1.8-0.3-2.7-0.3c-2.2,0.3-4.7,1.3-5.6,3.4c-0.6,1.4,0.6,2.7,1.8,3.2
		c0.6,0.3,1.2,0.5,1.8,0.7c-0.3,0.1-0.6,0.2-0.9,0.4c-1.1,0.5-2.4,0.9-3.2,1.9c-1.3,1.6-1.3,3.9-2.4,5.6c-0.8,1.1-2.2,0.7-3.3,1.2
		c-0.6,0.6-0.7,1.6-1,2.3c-0.2-0.8-0.4-1.7-0.6-2.5c-0.7,0-1.4,0-2.1,0c-0.9,0.5-1.5,1.3-1.8,2.2c-0.1,0.2-0.2,0.5-0.3,0.7
		c-0.1-0.1-0.3-0.4-0.4-0.6c0-0.8,0.1-1.6,0.2-2.4c-0.9,0-1.8,0-2.7,0.1c-0.2,0.1-0.6,0.4-0.8,0.5c-0.7,0.3-0.4,1.9-1.3,1.7
		l-0.1-0.2c-0.1-1.4-0.3-2.8-0.4-4.2c-0.1-0.7,0.4-1.5,1.1-1.7c2.6-1,5.7,0.6,8.2-0.9c2.7-1.6,3.3-4.9,3.9-7.7
		c-1-0.7-2.6-1.4-2.6-2.9c-0.2-1.2,0.4-2.3,1.3-3.1c3.1-2.8,7.4-3.6,10.8-5.9c1.1-0.7,2.1-2.1,1.7-3.5c-0.3-1.4-1.6-2-2.7-2.5
		c0.1,1,0.4,2,0.2,3c-0.8,1.1-2.3,1-3.4,1.4c-0.2-0.4-0.5-0.7-0.7-1.1c-0.6-0.9-1.1-1.8-1.6-2.8c-2.1,2.6-4.7,5.1-8.1,5.9
		c-0.7-0.5-1.3-1.2-2.2-1.5c-2.3-0.3-5.1,1.3-5,3.9c-0.2,0.1-0.6,0.2-0.8,0.2l0-0.3c0-0.8-0.1-1.7-0.2-2.5c-0.8,0.3-1.7,0.6-2.5,1
		c0.1-0.8,0.2-1.6,0.4-2.4c-0.5,0.1-0.9,0.2-1.4,0.4c-0.2,0.1-0.7,0.4-1,0.5c0.2-0.9,0.6-1.8,1.1-2.6c-0.7,0.1-1.3,0.1-2,0.3
		l-0.4,0.2c0.2-1.4,1.5-2.3,2.7-2.7c2.5-0.6,5.2,0.1,7.5-1.1c1.9-1,3.7-2.2,5.5-3.2c2.2-1.3,4.6-2.5,6.7-4c-1.5-0.1-3-0.2-4.4-0.7
		c-0.3-0.5-0.6-1-0.9-1.6c-0.7,0.8-1.4,1.6-2.4,2.1c-1,0.5-2.2,0.5-3.2,0.5c-0.6-0.5-1.2-0.9-1.8-1.5c1-0.3,2.7,0.1,2.9-1.2
		C69,70.8,68,70,67,69.6c-1.6-0.6-3.2-1-4.8-1.4c0,4.1,0,8.2,0,12.3c-0.4,0.1-0.8,0.1-1.2,0.2c-0.3-4.2,0-8.5-0.1-12.7
		c-0.5-0.1-1-0.1-1.5-0.2c-0.6-0.1-1.3-0.2-1.8-0.7c-0.4-0.8-0.6-1.6-0.9-2.4c-0.5-0.9,0.6-1.7,0.2-2.6c-0.1-0.6-0.3-1.3,0.1-1.8
		c0.4-0.9,1.5-1,2.4-0.9c0.5,0,1.1,0,1.6,0c0-0.2,0-0.7,0-1c-0.5,0-1.1-0.1-1.6-0.1c-0.8,0-1.5-0.2-2.3-0.4c0.5-0.3,0.9-0.6,1.5-0.8
		c-0.4-0.3-0.7-0.5-1.1-0.8c-1.2-1.6-1.9-3.6-1.6-5.6c0.2-1.9,1.5-3.3,2.7-4.6c2.7-1.4,6.1,0.1,7.6,2.6c1.2,2.7,0.5,6.2-1.9,8
		c-0.7,0.7-1.9,1-2.2,2c0.1,0.6,0.1,1.2,0.4,1.7c0.8,0.6,1.8,0.8,2.7,1.1c1.3,0.5,2.6,1,3.8,1.7c1.3,1.2,2.8,2.4,3.8,3.9
		c0.7,1,0.7,2.3,0.9,3.5c1.6-0.3,2.5-1.8,2.6-3.3c0-0.8-0.5-1.8,0.1-2.5c1.1-2,2.3-3.9,2.6-6.2c-1.6-0.8-3.6-1.5-4.1-3.5l-0.1-0.3
		c0.8,0.4,1.4,1,2.3,1.3c0.7,0.1,1.5-0.2,2.1-0.4c2-0.5,3.4-3,2.3-4.9c-0.6-1.2-2.1-1-3.3-1c0.9-1.4,2.7-1.6,4.3-1.6
		c0.6,0,1.3,0,1.9,0C84.5,46.8,84.8,45.3,85.4,44 M60.1,49.6c-0.3,0.4-0.7,0.9-0.9,1.3c-0.3,0.7,0.2,1.4,0.5,2.1
		c0.9,0.7,1.7,1.5,1.9,2.6c1.9-0.9,3.3-3.3,2.4-5.3C63.2,49,61.3,48.7,60.1,49.6 M88,51.9c0.8,1,2.3,2.1,3.7,1.4
		c-0.7-0.5-1.3-1.1-1.6-2C89.3,51.4,88.2,50.9,88,51.9 M90.9,51.2c-0.1,0.8,0.3,1.3,1.1,1.4c0.2-0.5,0.4-1,0.6-1.5
		C92,51.2,91.4,51.2,90.9,51.2 M58,60.6c0,0.6-0.1,1.2-0.1,1.8c1.2,0.2,2.4,0.1,3.6,0C60.6,61.3,59.4,60.1,58,60.6 M58.4,63.1
		c-0.7,0.2-0.4,1.1-0.5,1.6c1.2,0.4,2.6,0,3.7-0.6C60.5,63.6,59.5,63.1,58.4,63.1 M58.3,65.7c0,0.3,0,0.8,0,1.1c1,0,1.9-0.2,2.8-0.5
		C60.3,65.7,59.3,65.3,58.3,65.7L58.3,65.7z"/>
	<path class="st2" d="M76.8,17.9c1.7,0,3.3,0,5,0c0.4,3.3-0.1,6.5,0.2,9.8c1.3,0,2.7,0.1,4,0.2c0.2,1.2,0.2,2.5,0,3.7
		c-3.1,0.2-6.1,0.2-9.2,0C76.8,27.1,76.8,22.5,76.8,17.9 M77.2,18.2c0,4.4,0,8.8,0,13.2c2.9,0.2,5.8,0.1,8.7,0c0-0.9,0-1.8-0.1-2.6
		c0-0.2,0.1-0.5,0.1-0.6c-1.4,0-2.8,0-4.2,0c-0.2-3.3,0.1-6.6-0.1-9.9c-0.1-0.1-0.3-0.2-0.5-0.2C79.7,18.1,78.4,18.1,77.2,18.2
		 M68.7,22.4c0.7-0.2,1.4-0.4,2.1-0.5c-0.6,0.5-1.3,0.8-1.9,1.2c0.7,0.4,1.6,0.4,2.4,0.5c-0.7,0.2-1.5,0.3-2.2,0.5
		C68.9,23.4,68.8,22.9,68.7,22.4 M56,26.9c0.2,0.3,0.3,0.7,0.5,1c-0.7,0.4-1.3,0.7-2,1c-0.1-0.3-0.3-0.5-0.4-0.8
		c0.4,0,0.8,0.1,1.3,0C55.8,27.9,55.8,27.3,56,26.9 M106.7,27.8c0.7,0.3,1.4,0.6,2.1,1c-0.7-0.1-1.4-0.2-2.1-0.3
		c0,0.4,0.1,0.7,0.1,1.1c-0.3-0.1-0.6-0.3-0.8-0.4C106.2,28.8,106.4,28.3,106.7,27.8 M111.4,40.6c0.4-0.2,0.7-0.3,1.1-0.5
		c0.6,0.5,1.1,0.9,1.7,1.4c-0.2,0.6-0.4,1.1-0.6,1.7c-0.1-0.7,0.2-1.6-0.4-2.1C112.7,40.7,112,40.7,111.4,40.6 M41.2,118.8
		c1.1-0.2,1.8,0.7,2.7,1.2c-0.3,0.3-0.6,0.7-1,1c0.4,0.1,0.9,0.2,1.3,0.3c-1.6,1.1-2.3,3-2.1,4.9l-0.2,0.4c-0.7-1.2-0.3-2.6,0.1-3.8
		c-0.3-0.2-0.6-0.4-0.9-0.6l0.2-0.1c0.5-0.3,1-0.6,1.4-1C42.2,120.3,41.7,119.6,41.2,118.8 M96.4,131.1c0.3-2.1,2.2-3.8,4.3-4
		c1.1-0.1,2,0.4,2.9,0.9c-0.1,0.7-0.4,1.4-0.9,1.9c-0.7-0.2-1.5-0.4-2.2-0.4c-0.4,0.4-0.7,0.8-1.1,1.3c0.3,0.8,0.5,1.8,1.2,2.4
		c0.6,0.2,1.2,0.4,1.8,0.6c-0.8,0-1.9,0.3-2.5-0.5c-0.7-1-1.3-2.5-0.4-3.5c0.8-0.9,2.1-0.4,3.1-0.4c0.2-0.3,0.4-0.7,0.6-1
		c-1-0.3-2.1-1-3.1-0.6c-1.7,0.4-3.3,2-3.1,3.8c0,1,0.4,1.9,0.8,2.8C96.8,133.6,96.4,132.3,96.4,131.1 M65.5,129.9
		c1.5-0.2,3,0,4.3,0.9c-1.3-0.3-2.7-0.5-4-0.8L65.5,129.9 M85.5,131.2c0.8-0.5,1.8-0.7,2.7-0.3c-0.8,0.2-1.7,0.4-2.5,0.5
		c0.1,2.6,0.8,5.1,1,7.7c-0.9-1.6-0.7-3.4-1.1-5.1C85.5,133.1,85.1,132.1,85.5,131.2 M79.6,131.5c1-0.2,2-0.2,3,0
		c0.3,2,0.1,4.1,0.2,6.1c0.9,0,1.8,0.1,2.7,0.1c0,0.7,0,1.4,0,2.1c-1.8,0.3-3.7,0.5-5.6,0.3c-0.1-1-0.4-2.1,0.1-3l0.3-0.2
		c0,0.8,0,1.6,0.1,2.4c0.2,1,1.6,0.4,2.3,0.2c0.8,0,1.5-0.1,2.3,0l0.4,0c0-0.6-0.1-1.1-0.1-1.7c-0.9,0-1.8,0-2.7,0
		c0-2,0-4.1-0.3-6.1c-0.8,0-1.5,0-2.3,0c0,1.1,0,2.2,0,3.2C79.4,133.9,79.5,132.7,79.6,131.5 M67.6,131.9c0.6,0,1.5,0.4,1.3,1.2
		c0.1,0.8-1,0.6-1.5,0.7C67.5,133.2,67.5,132.6,67.6,131.9L67.6,131.9z"/>
	<path class="st3" d="M77.2,18.2c1.3-0.1,2.6-0.1,3.9-0.1c0,0.4,0,0.7-0.1,1.1c-1-0.4-2.1-0.4-3.1-0.3c0,3.9,0,7.9,0,11.8l0,0.3
		c2.4,0.1,4.9,0.4,7.3-0.2c0.2-0.6,0.4-1.3,0.5-1.9c0.2,0.9,0.2,1.7,0.1,2.6c-2.9,0.1-5.8,0.2-8.7,0C77.2,27,77.2,22.6,77.2,18.2
		L77.2,18.2z"/>
	<path class="st4" d="M81,18.1c0.1,0.1,0.3,0.2,0.5,0.2c0.2,3.3-0.1,6.6,0.1,9.9c1.4,0,2.8,0,4.2,0c0,0.1-0.1,0.5-0.1,0.6
		c-0.2,0.7-0.4,1.3-0.5,1.9c-0.1-0.6-0.1-1.2-0.2-1.8c-1.4-0.1-2.7-0.1-4.1-0.1c-0.1-3.2-0.1-6.5,0.1-9.7C81,18.8,81,18.4,81,18.1
		L81,18.1z"/>
	<path class="st5" d="M63.9,19.8c2.7-0.3,5.3-1,7.9-1.4c0.8,0.7,0.6,2,0.9,3c-0.7,0.2-1.3,0.4-2,0.5c-0.7,0.1-1.4,0.3-2.1,0.5
		c0.1,0.5,0.2,1.1,0.4,1.6c0.7-0.2,1.5-0.3,2.2-0.5c0.6-0.1,1.1-0.2,1.7-0.4c0.5,1,0.6,2.1,0.6,3.3c-0.6,0.1-1.2,0.2-1.8,0.3
		c-0.7,0.1-1.4,0.3-2.1,0.5c0.1,0.7,0.2,1.3,0.3,2c1-0.1,2.1-0.3,3.1-0.5c0.4-0.1,0.8-0.1,1.2-0.2c0.3,1,0.5,2,0.6,3
		c-2.8,0.8-5.7,1.3-8.5,1.7c-0.9-3.6-1.5-7.2-2.2-10.7C63.9,21.5,63.8,20.7,63.9,19.8 M64.7,20.5c0,0.7,0.1,1.4,0.3,2.1
		c0.7,3.2,1.2,6.5,2,9.7c2.3-0.2,4.5-0.7,6.7-1.2c0.8-0.2,0.2-1.2,0.2-1.7c-1.4,0.1-2.8,0.5-4.3,0.6c-0.3-1.1-0.5-2.3-0.7-3.4
		c1.3-0.3,2.7-0.6,4-0.9c-0.1-0.5-0.2-1.1-0.3-1.6c-1.4,0.1-2.7,0.4-4,0.6c-0.3-1-0.5-2-0.5-3c1.3-0.2,2.6-0.5,3.9-0.8
		c-0.1-0.5-0.2-1.1-0.4-1.6C69.2,19.6,66.9,20.1,64.7,20.5 M103.1,24.8c0.4-0.6,0.6-1.5,1.3-1.8c2.5,1.1,4.9,2.4,7.3,3.7
		c-0.3,1.1-0.8,2-1.4,2.9c-0.5-0.2-1.1-0.5-1.6-0.8c-0.7-0.4-1.4-0.7-2.1-1c-0.2,0.5-0.5,0.9-0.7,1.4c0.3,0.1,0.6,0.3,0.8,0.4
		c0.9,0.4,1.8,0.9,2.6,1.4c-0.2,1.1-0.8,2.1-1.4,2.9c-0.4-0.2-0.9-0.4-1.3-0.7c-0.8-0.4-1.5-0.8-2.3-1.2c-0.3,0.6-0.6,1.3-1,1.9
		c0.3,0.2,0.6,0.3,0.9,0.5c0.9,0.5,1.9,0.9,2.9,1.4c-0.3,1-0.8,2-1.3,2.9c-2.7-1.2-5.3-2.4-7.8-4C99.7,31.4,101.5,28.2,103.1,24.8
		 M104.5,23.8c-1.8,3.6-3.7,7.1-5.4,10.7c2.1,1.3,4.3,2.3,6.5,3.4c0.3-0.5,0.5-1,0.7-1.6c-1.2-0.6-2.4-1.3-3.6-1.9
		c0.4-1.1,0.9-2.2,1.6-3.2c1.2,0.6,2.4,1.2,3.7,1.7c0.2-0.5,0.4-1,0.7-1.6c-1.2-0.6-2.3-1.2-3.5-1.9c0.3-0.9,0.8-1.9,1.3-2.7
		c1.3,0.5,2.5,1.2,3.8,1.7c0.2-0.5,0.5-1.1,0.6-1.6C108.7,25.9,106.6,24.9,104.5,23.8 M116.9,34.4c1.4-0.8,2.8-1.6,4.4-2.1
		c-0.4,2-1.2,3.8-1.8,5.8c-1,3.1-2,6.2-3.1,9.3c-1.2-0.7-2.2-1.6-3.1-2.7c-0.4-0.4,0.1-1,0.2-1.5c0.2-0.5,0.4-1.1,0.6-1.7
		c-0.6-0.5-1.1-0.9-1.7-1.4c-0.4,0.2-0.7,0.3-1.1,0.5c-0.6,0.3-1.1,0.6-1.7,0.7c-1-0.3-1.6-1.2-2.2-2
		C110.6,37.6,113.8,36.1,116.9,34.4 M117.9,34.7c-3.1,1.6-6.1,3.2-9.2,4.8c0.3,0.4,0.7,0.8,1.1,1.2c0.9-0.4,1.9-0.8,2.7-1.3
		c0.9,0.6,1.6,1.3,2.3,2.1c-0.3,0.9-0.6,1.8-0.9,2.7c0.7,0.7,1.4,1.4,2.3,1.8c1.3-4.1,2.8-8.1,3.9-12.3
		C119.4,34,118.6,34.3,117.9,34.7 M65.8,129.9c1.3,0.4,2.7,0.5,4,0.8c1.4,0.5,2,2.2,1.4,3.5c-0.1,0.1-0.4,0.2-0.5,0.2
		c0.3-0.9,0.5-2.2-0.4-2.9c-1.3-0.8-2.8-1-4.3-1.2c-0.5,2.4-1.3,4.8-1.6,7.2c1.5,0.3,3,1.1,4.5,0.7c1.4-0.6,1.1-2.3,1.6-3.5
		c0.2,1.4,0,2.9-1.1,3.8c-1,0-1.9,0-2.9-0.1c-0.5-0.1-0.9-0.2-1.4-0.4c-0.4-0.2-0.8-0.4-1.2-0.3c0-1.1,0.3-2.2,0.6-3.3
		c0.3-0.9,0.4-1.7,0.6-2.6C65.4,131.3,65.6,130.6,65.8,129.9L65.8,129.9z"/>
	<path class="st6" d="M77.9,18.9c1-0.1,2.1-0.1,3.1,0.3c-0.2,3.2-0.2,6.5-0.1,9.7c1.4,0,2.7,0,4.1,0.1c0.1,0.6,0.1,1.2,0.2,1.8
		c-2.4-0.1-4.9,0-7.3-0.1C77.9,26.7,77.8,22.8,77.9,18.9 M64.7,20.5c2.3-0.4,4.5-0.9,6.8-1.3c0.1,0.5,0.2,1.1,0.4,1.6
		c-1.3,0.3-2.6,0.6-3.9,0.8c0,1,0.2,2,0.5,3c1.3-0.2,2.7-0.5,4-0.6c0.1,0.5,0.2,1.1,0.3,1.6c-1.3,0.3-2.7,0.6-4,0.9
		c0.2,1.1,0.4,2.3,0.7,3.4c1.4-0.1,2.8-0.5,4.3-0.6c0,0.5,0.6,1.5-0.2,1.7c-2.2,0.5-4.4,1-6.7,1.2c-0.7-3.2-1.3-6.4-2-9.7
		C64.8,21.9,64.7,21.2,64.7,20.5 M91.5,21.1c2.3-1.4,5.8,0,6.3,2.7c-0.5,0.2-0.9,0.4-1.4,0.5c-0.4-0.9-0.7-2.1-1.9-2.1
		c-1.2-0.3-2,1.2-1.4,2.2c0.7,1.2,2,1.8,2.8,2.8c1.1,1.3,0.8,3.4-0.4,4.5c-1.4,1.2-3.5,1.2-5.1,0.4c-1.1-0.5-1.7-1.6-2.1-2.7
		c0.5-0.1,1-0.3,1.5-0.2c0.6,0.7,1.1,1.9,2.3,1.8c1.2,0.1,2-1.5,1.3-2.5c-1-1.3-2.6-2-3.1-3.7C89.9,23.4,90.2,21.8,91.5,21.1
		 M104.5,23.8c2.1,1.1,4.2,2.1,6.2,3.2c-0.2,0.6-0.4,1.1-0.6,1.6c-1.3-0.6-2.5-1.3-3.8-1.7c-0.5,0.9-0.9,1.8-1.3,2.7
		c1.2,0.6,2.3,1.2,3.5,1.9c-0.2,0.5-0.5,1-0.7,1.6c-1.3-0.5-2.5-1.2-3.7-1.7c-0.7,1-1.2,2-1.6,3.2c1.2,0.6,2.4,1.3,3.6,1.9
		c-0.2,0.5-0.4,1.1-0.7,1.6c-2.2-1.1-4.4-2.1-6.5-3.4C100.8,30.9,102.7,27.4,104.5,23.8 M38.3,35c1.3-2.5,4.3-3.5,6.9-3
		c0,0.6-0.1,1.2-0.1,1.7c-1.3,0-2.7-0.1-3.7,0.8c-1.1,0.9-1.5,2.6-0.8,3.9c0.8,1.7,2.3,3.3,4.3,3.6c1.3,0.2,2.6-0.4,3.2-1.6
		c0.6-0.9,0.4-2.1,0.6-3.2c0.3-0.5,1.1-0.2,1.7-0.4c0.1,1.4,0.2,2.8-0.3,4c-0.8,2.2-3.1,3.7-5.5,3.7C39.6,45.2,35.6,39.1,38.3,35
		 M117.9,34.7c0.7-0.4,1.5-0.7,2.2-1c-1.2,4.1-2.7,8.2-3.9,12.3c-0.9-0.4-1.6-1.1-2.3-1.8c0.3-0.9,0.6-1.8,0.9-2.7
		c-0.7-0.8-1.5-1.5-2.3-2.1c-0.9,0.5-1.8,0.9-2.7,1.3c-0.4-0.4-0.7-0.8-1.1-1.2C111.8,37.9,114.9,36.3,117.9,34.7 M113.8,38.7
		c0.5,0.4,1,0.9,1.5,1.2c0.3-0.8,0.6-1.5,0.8-2.4C115.3,37.9,114.5,38.3,113.8,38.7L113.8,38.7z"/>
	<path class="st7" d="M91.4,20.3c3-1.7,7.7,0.9,7,4.6c-0.9,0-1.8,0.1-2.7,0.1c-0.2-0.6-0.5-1.3-0.7-1.9c-0.4,0-0.9,0-1.3-0.1
		c-0.1,1.4,1.1,2,2,2.8c0.8,0.7,1.4,1.7,1.6,2.7c0.2,1.8-0.9,3.8-2.6,4.4c-2.1,0.8-4.8,0.3-6.2-1.6c-0.6-0.7-0.8-1.6-1.1-2.5
		c0.9-0.4,1.8-0.7,2.8-0.9c0.3,0.7,0.7,1.4,1.1,2.2c0.7,0,1.3-0.2,1.8-0.7c-0.2-0.3-0.4-0.7-0.6-1c-1-1-2.3-1.8-3-3.1
		C88.9,23.6,89.5,21.2,91.4,20.3 M91.5,21.1c-1.3,0.7-1.6,2.3-1.3,3.6c0.5,1.6,2.2,2.4,3.1,3.7c0.7,1-0.1,2.6-1.3,2.5
		c-1.2,0.1-1.7-1-2.3-1.8c-0.5-0.1-1,0.1-1.5,0.2c0.4,1.1,1,2.1,2.1,2.7c1.6,0.8,3.7,0.9,5.1-0.4c1.3-1.1,1.6-3.2,0.4-4.5
		c-0.8-1.1-2.1-1.7-2.8-2.8c-0.6-1,0.2-2.5,1.4-2.2c1.2,0,1.5,1.3,1.9,2.1c0.5-0.2,0.9-0.3,1.4-0.5C97.3,21.1,93.8,19.7,91.5,21.1
		L91.5,21.1z"/>
	<path class="st8" d="M54.5,23.4c1.3-0.7,2.5-1.5,4-1.8c1.8,4,3.9,8,5.7,12.1c-1.3,0.7-2.6,1.5-4,1.8c-0.8-1.4-1.4-2.9-2.1-4.4
		c-0.8-0.3-1.5,0.3-2.2,0.6c0.2,0.5,0.4,0.9,0.6,1.4c0.6,1.1,1.2,2.2,1.6,3.4c-1.2,0.8-2.5,1.4-3.9,1.8c-1-1.5-1.6-3.2-2.4-4.7
		c-1.2-2.4-2.3-4.8-3.4-7.2c1.2-0.9,2.6-1.4,4-2c0.6,1.2,1.1,2.4,1.7,3.6c0.1,0.3,0.3,0.5,0.4,0.8c0.7-0.3,1.3-0.7,2-1
		c-0.2-0.3-0.3-0.7-0.5-1C55.5,25.7,54.8,24.7,54.5,23.4 M55.5,23.8c0.5,1.5,1.3,2.9,1.9,4.5c-1,0.6-2.1,1.1-3.2,1.5
		c-0.8-1.4-1.4-2.9-2.2-4.3c-0.9,0.3-1.8,0.7-2.6,1.2c1.6,3.7,3.4,7.3,5.2,10.9c0.9-0.4,1.8-0.8,2.6-1.3c-0.7-1.6-1.5-3.2-2.2-4.8
		c1.1-0.6,2.2-1.1,3.3-1.5c0.9,1.6,1.4,3.3,2.4,4.7c0.9-0.4,1.7-0.8,2.5-1.3c-1.7-3.6-3.3-7.3-5.2-10.8
		C57.1,22.9,56.3,23.3,55.5,23.8L55.5,23.8z"/>
	<path class="st9" d="M55.5,23.8c0.8-0.4,1.7-0.8,2.5-1.2c1.9,3.5,3.5,7.2,5.2,10.8c-0.8,0.5-1.7,0.9-2.5,1.3
		c-1-1.5-1.6-3.2-2.4-4.7c-1.1,0.4-2.2,1-3.3,1.5c0.7,1.6,1.5,3.2,2.2,4.8c-0.8,0.5-1.7,0.9-2.6,1.3c-1.8-3.6-3.6-7.2-5.2-10.9
		c0.9-0.4,1.7-0.8,2.6-1.2c0.8,1.4,1.4,2.9,2.2,4.3c1.1-0.4,2.2-0.9,3.2-1.5C56.8,26.7,56,25.3,55.5,23.8L55.5,23.8z"/>
	<path class="st10" d="M93.7,23c0.4,0,0.9,0,1.3,0.1c0.2,0.6,0.5,1.3,0.7,1.9c0.9-0.1,1.8-0.1,2.7-0.1c-0.8,0.4-1.8,0.8-2.7,1
		C94.8,25.1,93.6,24.4,93.7,23L93.7,23z"/>
	<path class="st11" d="M69.7,27.2c0.7-0.2,1.4-0.3,2.1-0.5c-0.4,0.4-0.9,0.6-1.4,0.8c-0.1,0.3-0.1,0.7-0.2,1c1,0.1,1.9,0.1,2.9,0.1
		c-1,0.2-2,0.5-3.1,0.5C69.9,28.5,69.8,27.9,69.7,27.2L69.7,27.2z"/>
	<path class="st12" d="M92.5,28.6c0.2,0.3,0.4,0.7,0.6,1c-0.5,0.4-1.1,0.7-1.8,0.7C91.9,29.8,92.3,29.3,92.5,28.6L92.5,28.6z"/>
	<path class="st13" d="M77.8,30.6c2.4,0.1,4.9,0,7.3,0.1c-2.4,0.6-4.9,0.3-7.3,0.2L77.8,30.6L77.8,30.6z"/>
	<path class="st14" d="M41.3,31.4c1.5-0.5,3.1-0.3,4.7-0.2c0.1,1.2-0.2,2.3-0.4,3.4c-0.1,0-0.3,0-0.4-0.1c-1.1-0.2-2.4-0.4-3.4,0.4
		c-1,0.9-1.1,2.4-0.4,3.5c0.7,1.2,1.8,2.2,3.1,2.7c0.5,0.3,1.2,0.4,1.6,0c1.8-0.8,1.8-2.9,1.6-4.6c1-0.3,2-0.5,3-0.6
		c0.1,0.2,0.2,0.5,0.3,0.6c0.1,1.2,0.1,2.4,0,3.7c-0.8,4.4-6.4,6.5-10.1,4.4c-1.8-1.1-3.2-2.8-3.8-4.8C35.8,36.5,38,32.6,41.3,31.4
		 M38.3,35c-2.6,4.1,1.4,10.2,6.1,9.8c2.3,0,4.6-1.5,5.5-3.7c0.5-1.3,0.4-2.7,0.3-4c-0.5,0.1-1.3-0.2-1.7,0.4
		c-0.2,1.1,0,2.2-0.6,3.2c-0.6,1.1-1.9,1.7-3.2,1.6c-2-0.3-3.5-1.9-4.3-3.6c-0.7-1.3-0.3-3,0.8-3.9c1-0.9,2.4-0.8,3.7-0.8
		c0-0.6,0.1-1.2,0.1-1.7C42.5,31.4,39.6,32.5,38.3,35 M85.7,131.5c0.8-0.2,1.7-0.3,2.5-0.5c0,0.4,0.1,0.8,0.1,1.2
		c0.2,1.7,0.4,3.4,0.8,5c0.9-0.1,1.7-0.3,2.6-0.5c0.1,0.7,0.2,1.4,0.3,2.1c-0.4,0.1-0.7,0.2-1.1,0.3c-1.4,0.2-2.8,0.3-4.2,0.5l0-0.3
		C86.5,136.6,85.8,134,85.7,131.5 M86,131.8c0.4,2.4,0.7,4.9,1.1,7.3c1.5-0.1,3-0.4,4.5-0.7c-0.1-0.4-0.2-0.8-0.3-1.2
		c-0.8,0.1-1.6,0.3-2.5,0.4c-0.5-2-0.6-4.1-1.1-6.2C87.2,131.5,86.6,131.6,86,131.8L86,131.8z"/>
	<path class="st15" d="M55.8,31.8c0.7-0.3,1.4-0.9,2.2-0.6c-0.5,0.2-1,0.5-1.4,0.7c-0.1,0.4-0.1,0.9-0.2,1.3
		C56.2,32.7,56,32.2,55.8,31.8L55.8,31.8z"/>
	<path class="st16" d="M103.5,34.1c0.3-0.6,0.6-1.3,1-1.9c0.8,0.4,1.5,0.8,2.3,1.2c-0.8-0.1-1.5-0.3-2.3-0.5c0,0.5-0.1,1.1-0.1,1.6
		C104.1,34.4,103.8,34.2,103.5,34.1L103.5,34.1z"/>
	<path class="st17" d="M78.6,33.5c9.2-0.3,18.5,2.2,26.3,7.2c9.3,5.9,16.4,15.1,19.5,25.7c3.7,12.1,2.3,25.7-4.1,36.7
		c-5.1,8.9-13.2,16.1-22.7,20c-7.5,3.1-15.8,4.1-23.9,3.1c-10.4-1.4-20.4-6.4-27.6-14.1c-6.9-7.2-11.3-16.6-12.5-26.5
		c-0.8-7-0.1-14.3,2.3-21c3.6-10.5,11.2-19.5,20.9-25C63.4,35.8,70.9,33.6,78.6,33.5 M75.1,35.3c-5.5,0.5-10.9,2.2-15.8,4.7
		c-9.7,5-17.5,13.6-21.4,23.8c-3.5,9-4,19.1-1.4,28.4c2.7,9.7,8.7,18.3,16.8,24.2c7.8,5.8,17.6,8.9,27.3,8.7
		c9.3-0.1,18.6-3.2,26.1-8.8c8-5.9,14-14.5,16.6-24.1c2.6-9.5,2.1-19.8-1.6-28.9c-3.7-9.2-10.5-17-19-22
		C94.4,36.3,84.6,34.2,75.1,35.3 M113,119.5c1.2,1.1,2.2,2.4,3.2,3.7c0.3,0.4,0.6,0.9,0.7,1.4c0,0.7,0,1.3,0,2
		c-0.5,2-3.3,2.5-4.8,1.4c1,0.1,2,0.5,3,0.1c1.4-0.5,2.3-2.5,1.4-3.8c-0.9-1.5-2.1-2.9-3.3-4.3c-0.3,0.3-0.6,0.6-1,0.9
		c1,1.5,2.3,2.8,3.2,4.4c0.5,0.9-1,1.9-1.7,1.1c-1.2-1.3-2.1-2.9-3.3-4.2c-0.5,0.4-1,0.8-1.5,1.2c1,1.4,2.1,2.7,3,4.2
		c-1.4-1.2-2.4-2.8-3.5-4.4c0.7-0.6,1.4-1.2,2.2-1.5c1.1,1.4,2,3,3.3,4.3c0.2,0,0.7,0.1,0.9,0.1c0-2.2-2.3-3.4-3-5.4
		C112.2,120.3,112.6,119.9,113,119.5 M75.4,130.7c0.8,1.3,1.1,2.8,1.5,4.3c0.5,1.7,1.1,3.3,1.5,5.1c-0.8,0-1.6-0.1-2.5-0.2
		c-0.4-0.8-0.6-2-1.7-2.1c-0.4,0.5-0.9,1.1-1.3,1.6c-0.5-0.1-1.1,0-1.6,0c0.1-1.1,0.8-2.1,1.3-3.1C73.6,134.5,74.4,132.5,75.4,130.7
		 M75.4,131.7c-1.3,2.4-2.7,4.8-3.6,7.4c0.3,0,0.8,0,1.1,0c0.3-0.6,0.6-1.1,0.9-1.7c0.6,0.1,1.2,0.2,1.8,0.3
		c0.2,0.6,0.4,1.1,0.6,1.7c0.6,0.1,1.2,0.1,1.8,0.2C77.2,136.9,76.5,134.2,75.4,131.7L75.4,131.7z"/>
	<path class="st18" d="M41.8,35c1-0.8,2.2-0.6,3.4-0.4C44.1,34.9,42.9,35,41.8,35L41.8,35z"/>
	<path class="st19" d="M50.9,36.6c1.1,0.8,0.5,2.6,0.4,3.7l-0.4-0.1C51,39.1,51,37.8,50.9,36.6L50.9,36.6z"/>
	<path class="st20" d="M113.8,38.7c0.7-0.4,1.5-0.8,2.2-1.1c-0.2,0.8-0.4,1.6-0.8,2.4C114.8,39.5,114.3,39.1,113.8,38.7L113.8,38.7z
		"/>
	<path class="st21" d="M44.5,41.2c0.4-0.4,1.2-0.4,1.6,0C45.6,41.6,44.9,41.5,44.5,41.2L44.5,41.2z"/>
	<path class="st22" d="M82.6,48.3c-0.5-2,1.3-3.4,2.8-4.3c-0.6,1.3-0.9,2.8-0.9,4.2C83.9,48.3,83.2,48.3,82.6,48.3 M78,49.9l0.2,0
		c1.1,0,2.7-0.2,3.3,1c1.1,1.9-0.3,4.4-2.3,4.9c0.6-1.1,1.4-2.5,0.9-3.8c-0.3-0.9-1.3-1-2-1.2C78.1,50.5,78.1,50.1,78,49.9L78,49.9z
		"/>
	<path class="st23" d="M55.1,50c0.5-1.7,1.8-3.2,3.5-3.8c-1.2,1.3-2.5,2.8-2.7,4.6c-0.3,2,0.5,4,1.6,5.6
		C55.3,55.3,54.5,52.4,55.1,50 M64.5,112.1c0.9-0.1,1.8-0.1,2.7-0.1c-0.1,0.8-0.2,1.6-0.2,2.4c-0.2-0.1-0.6-0.4-0.8-0.5
		C66,113,65.7,112.1,64.5,112.1L64.5,112.1z"/>
	<path class="st24" d="M66.2,48.8c1.2,0.1,1.8,1.3,2.2,2.3c0.7,2,0.4,4.4-0.9,6.1c-0.9,1.2-2.2,2-3.5,2.7c-0.6-0.5-1.3-0.8-2-1.2
		c0.3-1,1.5-1.3,2.2-2C66.7,55,67.4,51.5,66.2,48.8 M109.8,75.8c1.5,0.5,2.5,2,2.5,3.5c0.2,2.2-1.4,4.2-3.4,4.9
		c-0.1-0.9-0.2-1.8-0.5-2.6C110,80.2,110.7,77.9,109.8,75.8 M78.9,105.5c0.8-1,2.1-1.4,3.2-1.9c0.9,0.5,1.9,0.9,2.9,1.3
		c-1.4,0.7-3.2,1.1-4.2,2.5c-1.1,1.5-1.1,3.6-2.1,5.2c-0.8,1.2-2.4,0.9-3.5,1.4c-0.5,0.7-0.6,1.5-0.9,2.3c-0.8-0.5-1.5-1-2.1-1.7
		c0.3-0.8,0.4-1.7,1-2.3c1.1-0.5,2.6-0.1,3.3-1.2C77.7,109.4,77.6,107.1,78.9,105.5L78.9,105.5z"/>
	<path class="st25" d="M60.1,49.6c1.2-0.9,3.1-0.7,3.8,0.7c1,2-0.5,4.4-2.4,5.3c-0.2-1.1-1-1.9-1.9-2.6c1-0.1,2.6,0.1,2.7-1.3
		C62.6,50.4,61.1,49.9,60.1,49.6L60.1,49.6z"/>
	<path class="st26" d="M60.1,49.6c1.1,0.2,2.5,0.7,2.3,2.1c-0.1,1.4-1.7,1.3-2.7,1.3c-0.3-0.7-0.8-1.4-0.5-2.1
		C59.4,50.5,59.8,50.1,60.1,49.6L60.1,49.6z"/>
	<path class="st27" d="M88,51.9c0.2-1,1.3-0.5,2.1-0.6c0.3,0.9,0.9,1.4,1.6,2C90.3,54,88.8,52.9,88,51.9L88,51.9z"/>
	<path class="st28" d="M90.9,51.2c0.5,0,1.1-0.1,1.6-0.1c-0.2,0.5-0.4,1-0.6,1.5C91.2,52.5,90.8,52,90.9,51.2L90.9,51.2z"/>
	<path class="st29" d="M97.8,52c0.7,0.6,1.7,1,1.9,2c-0.4,1.1-1.3,2.1-1.9,3.1c-0.6-0.2-1.1-0.3-1.7-0.5c-0.2,0.3-0.4,0.6-0.5,1
		c-0.9-0.8-1.6,0.6-2.1,1.2c-0.8,0-1.5,0-2.3,0c-0.3-1.2,0.4-2.6,1.5-3.1c0.8-0.4,1.4,0.5,2.1,0.9C95.9,55.1,97.2,53.7,97.8,52
		 M86.5,113.6c0.5-0.3,1-0.6,1.6-0.7c0.2,0,0.7,0.1,0.9,0.2c0.3,0.5,0.5,1,0.8,1.5c-1.2,0.3-1.6,1.4-2.1,2.4
		C86.9,116.1,86.8,114.8,86.5,113.6L86.5,113.6z"/>
	<path class="st30" d="M74.7,57c-0.1-0.6,0.1-1.2,0.3-1.8c0.5,1.9,2.5,2.7,4.1,3.5c-0.2,2.3-1.5,4.2-2.6,6.2
		c-0.5,0.8-0.1,1.7-0.1,2.5c-0.1,1.5-1.1,3.1-2.6,3.3c-0.2-1.2-0.2-2.5-0.9-3.5c-1-1.5-2.5-2.7-3.8-3.9c1.6,0.1,3.3,0.4,4.9,0.5
		c1.1-1.3,2-2.8,2.8-4.3C75.9,58.8,74.8,58.2,74.7,57 M101.9,60.6c2.2-0.7,4.6,1.5,4.3,3.7c-0.2,1.3-1.1,2.4-2,3.2
		c-1.8,1.7-4,3.2-5.5,5.3c-1.1,1.5-1.1,3.6-0.4,5.2c1.3,2.8,4.1,4.7,5.1,7.7c0.5,1.6,0.5,3.5-0.4,4.9c-1,1.5-3,2-4.7,1.6
		c-2.2-0.4-4.1-2-5-4c0.6,0.5,1.1,0.9,1.8,1.4c1.6,0.9,3.6,1.3,5.2,0.4c1.3-0.7,1.7-2.4,1.3-3.8c-0.6-2.1-2.4-3.6-3.7-5.4
		c-1.7-2.1-2.8-5.1-1.7-7.8c1.4-3.2,4.6-4.9,6.8-7.4c0.5-0.6,0.7-1.4,0.8-2.2c-0.4-1.1-1.5-1.9-2.7-1.5c-0.5,0.3-1,0.6-1.4,1
		C100.2,62.1,100.7,60.9,101.9,60.6 M59.5,67.8c0.5,0.1,1,0.1,1.5,0.2c0.1,4.2-0.1,8.5,0.1,12.7c0.4-0.1,0.8-0.1,1.2-0.2
		c0.7-0.2,1.4-0.4,2-0.7c1.8-1,3.5-2.3,5.3-3.5c1.5-0.9,3.1-1.8,4.6-2.7c1.4,0.5,2.9,0.6,4.4,0.7c-2.1,1.5-4.4,2.7-6.7,4
		c-1.9,1-3.7,2.2-5.5,3.2c-2.3,1.2-5.1,0.5-7.5,1.1c-1.2,0.4-2.5,1.3-2.7,2.7L56,85.6c-0.6-0.3-0.2-1-0.1-1.5
		c0.4-1.8,2.3-2.6,3.7-3.4C59.5,76.4,59.5,72.1,59.5,67.8 M83.8,81.7c1.1,0.5,2.4,1.2,2.7,2.5c0.4,1.4-0.6,2.7-1.7,3.5
		c-3.4,2.3-7.7,3.1-10.8,5.9c-0.9,0.7-1.5,1.9-1.3,3.1c0,1.5,1.5,2.1,2.6,2.9c-0.6,2.8-1.3,6.1-3.9,7.7c-2.5,1.5-5.5-0.1-8.2,0.9
		c-0.7,0.3-1.2,1-1.1,1.7c0.1,1.4,0.3,2.8,0.4,4.2c-0.4-0.5-0.7-1.1-0.7-1.7c0-1.5-0.3-3.3,0.7-4.6c0.7-0.5,1.6-0.8,2.4-1
		c2,0,4.5,0.9,6.1-0.8c1.2-1.6,1.6-3.7,1.7-5.7c-0.4-1.1-1.9-1.6-2.2-2.9c-0.5-2.4,1.2-4.6,2.8-6.2c2.1-2,4.6-3.8,7.3-4.9
		c1.2-0.4,2.7-0.3,3.4-1.4C84.1,83.7,83.9,82.7,83.8,81.7 M85,95.9c0.9,0,1.8,0,2.7,0.3c0.9,0.8,1,2.2,2,2.9
		c1.1,0.5,2.4,0.2,3.5,0.7c1,0.8,1.3,2.1,1.4,3.3c0.1,2.1-0.9,4.1-1.9,5.8c-2.2,0.2-4.6-0.2-6.6,1c-1.7,1.1-0.7,3.4-0.7,5
		c-0.9-1.5-0.9-3.6-0.1-5.1c1.4-1.7,3.9-1.5,5.9-1.8c0.6,0,0.7-0.7,0.9-1.2c0.2-1,0.2-2.1,0-3.1c-0.1-0.4-0.2-0.9-0.3-1.3
		c-0.6-0.2-1.1-0.4-1.7-0.5c-1.9-0.7-3.4-2.3-4.3-4.1C85.5,97.1,85.2,96.5,85,95.9L85,95.9z"/>
	<path class="st31" d="M97.9,57.1c1.4,0.5,2.5-0.8,3.6-1.4c-0.3,1.5-1.2,3-2.7,3.3c-0.4-0.1-0.9-0.1-1.3-0.2
		c-0.6-0.4-1.2-0.8-1.8-1.2c0.1-0.4,0.3-0.7,0.5-1C96.7,56.7,97.3,56.9,97.9,57.1L97.9,57.1z"/>
	<path class="st32" d="M59.4,58.4c0.5,0,1.1,0.1,1.6,0.1c0,0.2,0,0.7,0,1c-0.5,0-1.1,0-1.6,0C59.4,59.2,59.4,58.7,59.4,58.4
		L59.4,58.4z"/>
	<path class="st33" d="M62.1,58.8c0.7,0.4,1.3,0.7,2,1.2c0.5,0.5,0.8,1.1,1.2,1.6c-0.9-0.3-1.9-0.5-2.7-1.1
		C62.2,60,62.2,59.4,62.1,58.8L62.1,58.8z"/>
	<path class="st34" d="M97.5,58.8c0.4,0.1,0.9,0.1,1.3,0.2c0.5,0.2,1,0.4,1.6,0.6c-0.4,0.4-0.8,0.9-1.1,1.4
		c-0.5-0.3-1.1-0.5-1.6-0.9C97.5,59.7,97.5,59.3,97.5,58.8L97.5,58.8z"/>
	<path class="st35" d="M24.7,59.6c2.6-0.8,5.6,0.2,7.1,2.4c1.8,2.4,1.7,6-0.4,8.2c-1.7,2-4.7,2.7-7.2,1.8c-2.3-0.8-4-3-4.2-5.5
		C19.8,63.5,21.8,60.4,24.7,59.6 M23.7,61c0.4,0.2,0.8,0.6,1.2,0.5c1.3-0.3,2.7-0.5,4-0.7C27.3,59.9,25.3,60.1,23.7,61 M21.9,62.7
		c2.2,1.1,4.3,2.4,6.5,3.6c0.1-0.6,0.3-1.2,0.4-1.8c-1.7-1.4-3.6-2.4-5.7-3.1C22.7,61.8,22.3,62.2,21.9,62.7 M25.5,61.7
		c0.5,0.4,1.1,1.1,1.8,1c1.2-0.1,2.4-0.1,3.6-0.2c-0.3-0.4-0.6-0.7-0.9-1C28.6,61.2,27,61.3,25.5,61.7 M27.6,63
		c0.5,0.4,0.9,0.9,1.5,1.1c0.9,0.1,1.9,0,2.8,0c-0.2-0.4-0.3-0.7-0.5-1.1C30.2,62.8,28.9,62.8,27.6,63 M21.1,65
		c2,1.4,4.3,2.5,6.6,3.2c0.1-0.6,0.7-1.4,0.1-1.8c-1.9-1.3-4-2.4-6.1-3.3C21.4,63.7,21.2,64.3,21.1,65 M31.1,64.4
		c-0.2,2.3-1.1,4.5-2.3,6.5c2.5-0.9,3.7-3.7,3.4-6.2C31.8,64.6,31.4,64.5,31.1,64.4 M27,70.3c0.2,0.2,0.6,0.5,0.8,0.6
		c1.9-1.5,2.6-4,2.9-6.3c-0.3,0-1,0-1.3-0.1C28.8,66.5,28,68.5,27,70.3 M20.9,65.5c0.1,0.8,0,1.9,0.7,2.5c1.4,1.1,3.2,1.8,5,2.1
		c0.3-0.5,0.5-1,0.8-1.5C25.2,67.7,23.1,66.6,20.9,65.5 M22,68.9c-0.2,0.5,0,0.7,0.5,0.5C22.7,69,22.5,68.8,22,68.9 M23,69.4
		c0,1,1,1.5,1.8,1.8C24.8,70.1,23.9,69.5,23,69.4 M24.9,70.2c0.2,0.4,0.5,0.8,0.8,1.2c0.6,0.2,1.3,0.1,1.9,0
		C27,70.5,25.9,70.2,24.9,70.2L24.9,70.2z"/>
	<path class="st36" d="M131.4,59.6c3.8-1.3,8.2,1.8,8.3,5.8c0.4,3.4-2.3,6.6-5.7,6.9c-3.6,0.6-7.3-2.5-7.3-6.2
		C126.5,63.2,128.6,60.4,131.4,59.6 M130.3,61c0.4,0.2,0.8,0.6,1.3,0.5c1.3-0.3,2.7-0.5,4.1-0.7C133.9,59.9,131.9,60.1,130.3,61
		 M128.6,62.7c2.2,1.1,4.3,2.4,6.5,3.5c0.1-0.6,0.5-1.1,0.4-1.7c-1.6-1.4-3.6-2.4-5.6-3.1C129.4,61.8,129,62.2,128.6,62.7
		 M132.2,61.6c0.5,0.4,0.9,1,1.6,1c1.3,0,2.6-0.1,3.9-0.1c-0.3-0.3-0.5-0.7-0.9-1C135.3,61.1,133.7,61.3,132.2,61.6 M134.3,63
		c0.5,0.4,0.9,0.9,1.5,1.2c0.9,0.1,1.8,0,2.8-0.1c-0.1-0.3-0.3-0.7-0.4-1C136.9,62.8,135.5,62.8,134.3,63 M128.2,63.3
		c-0.3,0.6-0.4,1.2-0.5,1.7c2,1.3,4.2,2.4,6.5,3.2c0.2-0.5,0.5-0.9,0.7-1.4c-1.6-1.3-3.5-2.2-5.3-3.2
		C129.1,63.5,128.7,63,128.2,63.3 M135.8,65.1c-0.6,1.8-1.3,3.5-2.2,5.2c0.2,0.2,0.6,0.5,0.8,0.6c1.9-1.6,2.7-4.1,2.7-6.5
		C136.7,64.6,135.9,64.4,135.8,65.1 M137.7,64.4c-0.2,2.4-1.1,4.8-2.6,6.7c2.6-0.8,4.2-3.6,3.7-6.3C138.5,64.5,138,64.5,137.7,64.4
		 M127.6,65.6c0,0.8-0.1,1.7,0.5,2.3c1.4,1.2,3.1,1.8,4.8,2.2c0.6-0.2,0.7-1,1.1-1.5C131.8,67.8,129.7,66.6,127.6,65.6 M128.6,68.9
		c-0.1,0.5,0,0.7,0.5,0.5C129.3,69,129.1,68.8,128.6,68.9 M129.6,69.4c0,1,0.9,1.6,1.8,1.7C131.4,70.1,130.6,69.5,129.6,69.4
		 M131.5,70.2c0.2,0.4,0.4,0.8,0.7,1.2c0.6,0.2,1.2,0.1,1.8,0.2C133.9,70.3,132.5,70.2,131.5,70.2L131.5,70.2z"/>
	<path class="st37" d="M23.7,61c1.6-0.9,3.6-1.1,5.3-0.2c-1.4,0.2-2.7,0.4-4,0.7C24.5,61.6,24.1,61.2,23.7,61L23.7,61z"/>
	<path class="st38" d="M130.3,61c1.6-0.9,3.7-1.1,5.3-0.2c-1.4,0.2-2.7,0.4-4.1,0.7C131.1,61.6,130.7,61.2,130.3,61L130.3,61z"/>
	<path class="st39" d="M58,60.6c1.5-0.4,2.6,0.8,3.5,1.7c-1.2,0.2-2.4,0.2-3.6,0C57.9,61.7,57.9,61.1,58,60.6L58,60.6z"/>
	<path class="st40" d="M93.5,60.6c0.6,0,1.3,0,2,0c0.1,1.2,0.2,2.5,0.3,3.7c-1.2-0.6-2.7-2-4.1-0.9c-1.5,1.1-1.1,3.1-0.8,4.7
		c-1-0.4-1.9-1.1-2.1-2.2c-0.4-1.4-0.5-3.5,1.1-4.3c1.4-0.6,2.7,0.5,3.9,1.1C93.6,62,93.5,61.3,93.5,60.6 M94.2,68.5
		c0.1,0.1,0.2,0.4,0.2,0.6c0.4-0.2,0.8-0.3,1.2-0.5c0.7,1.4,1,3.3-0.1,4.5c-1,1.3-2.8,1.2-4.3,1.5c-0.2,2.1,1.2,3.8,1.5,5.8
		c0.5,3.2,1.1,6.4,2.4,9.3c-0.6-0.4-1.2-0.9-1.8-1.4c-1.8-3.1-2.3-6.6-2.8-10.1c-0.2-1.9-1.8-3.5-1.5-5.5c1.4-0.1,3.1-0.1,4.2-1.2
		C94.1,70.8,94.2,69.6,94.2,68.5L94.2,68.5z"/>
	<path class="st41" d="M109.4,60.9c1.7,0.6,2.6,2.4,2.5,4.2c0.1,2-1.1,3.9-2.5,5.2c-1.2,1-2.4,2-3.6,3c-2.1-0.1-3.9,1-5.6,2.1
		c0.4-0.9,0.9-1.8,1.7-2.5c2.3-2.2,5.4-3.7,7.1-6.4C110.1,64.8,110.1,62.7,109.4,60.9 M101.8,80.4c0.3-0.9,0.7-1.9,1.8-2.1
		c1.3-0.5,2.6,0.4,3,1.6c-0.7,0.2-1.6,0.2-2.1,0.8c-0.6,0.7-0.6,1.8,0.1,2.4c1.5,1.7,3.1,3.4,3.7,5.7c0.6,1.9,0.4,4.2-1.2,5.6
		c-1.9,2-4.9,2.1-7.3,1.4c-1.6-0.4-3.3-1-4.2-2.4c2.6,1,5.8,1.6,8.4,0.2c2.2-1.2,3.1-4,2.4-6.2C105.6,84.6,103.4,82.6,101.8,80.4
		 M70.1,88.2c3.4-0.8,6-3.3,8.1-5.9c0.5,0.9,1,1.9,1.6,2.8c-2.3,1.8-4.5,4.2-7.5,4.7c-0.8-0.6-1.5-1.3-2.5-1.5
		c-1.5,0-3.1,0.7-4.1,1.9c-0.4,1-1,2-1.4,3.1c-0.1,2-0.1,3.9,0,5.9c0,1.2,1.4,1.9,1,3.1c-0.3,1.5-0.4,3-0.3,4.5
		c-0.9,0.2-1.7,0.5-2.4,1c-0.8-0.3-1.5-0.7-1.7-1.6c0.8-0.4,1.8-0.6,2.2-1.6c0.2-0.9-0.1-1.8,0-2.7c0.2-0.9,0.3-1.7,0.3-2.6
		c-0.4-0.4-1.1-0.6-1-1.3c-0.1-2.4,0-4.8,0-7.3c0.2-0.1,0.6-0.2,0.8-0.2c-0.1-2.6,2.7-4.2,5-3.9C68.8,87,69.4,87.6,70.1,88.2
		 M79.3,99.3c1-2.1,3.4-3.2,5.6-3.4c0.2,0.6,0.5,1.2,0.8,1.8c-1.4,0.6-2.9,1.2-3.8,2.4c-0.6,0.7-0.6,1.6-0.7,2.4
		C79.9,102,78.7,100.7,79.3,99.3 M63.8,112.6c0.2-0.1,0.6-0.4,0.8-0.5c1.1,0,1.4,0.9,1.7,1.8c-0.5,0.7-1,1.3-1.4,2
		C63.6,115.3,63.9,113.7,63.8,112.6 M67.7,114.3c0.3-1,0.9-1.7,1.8-2.2c0.7,0.5,1.2,1.1,1.7,1.8c-0.8,0.8-1.3,1.8-1.8,2.8
		C68.6,116,68,115.2,67.7,114.3 M91,114.7c0.4-0.8,0.9-1.8,2-1.7c0.5,0.5,0.9,0.9,1.4,1.4l0.2,0.2c-0.8,0.7-1.3,1.5-1.9,2.4
		C91.9,116.3,91.4,115.5,91,114.7L91,114.7z"/>
	<path class="st42" d="M21.9,62.7c0.4-0.4,0.8-0.9,1.2-1.3c2.1,0.6,4,1.7,5.7,3.1c-0.1,0.6-0.3,1.2-0.4,1.8
		C26.3,65,24.2,63.7,21.9,62.7 M127.6,65.6c2.1,1,4.2,2.2,6.4,3c-0.3,0.5-0.4,1.3-1.1,1.5c-1.7-0.3-3.5-1-4.8-2.2
		C127.5,67.3,127.7,66.3,127.6,65.6L127.6,65.6z"/>
	<path class="st43" d="M25.5,61.7c1.5-0.3,3-0.5,4.5-0.2c0.3,0.3,0.7,0.6,0.9,1c-1.2,0.1-2.4,0.1-3.6,0.2
		C26.6,62.7,26.1,62.1,25.5,61.7L25.5,61.7z"/>
	<path class="st42" d="M128.6,62.7c0.4-0.4,0.8-0.9,1.3-1.3c2,0.7,4,1.6,5.6,3.1c0.1,0.6-0.2,1.2-0.4,1.7
		C132.9,65.1,130.8,63.8,128.6,62.7L128.6,62.7z"/>
	<path class="st44" d="M132.2,61.6c1.5-0.3,3.1-0.5,4.6-0.1c0.3,0.3,0.6,0.6,0.9,1c-1.3,0-2.6,0.1-3.9,0.1
		C133.1,62.6,132.6,62,132.2,61.6L132.2,61.6z"/>
	<path class="st45" d="M101.1,62.1c1.2-0.4,2.3,0.4,2.7,1.5c-1.1,0.5-2,1.3-2.7,2.2C101.1,64.5,101.2,63.3,101.1,62.1L101.1,62.1z"
		/>
	<path class="st46" d="M27.6,63c1.3-0.2,2.6-0.2,3.8,0c0.2,0.4,0.3,0.7,0.5,1.1c-0.9,0-1.9,0.1-2.8,0C28.6,63.8,28.1,63.4,27.6,63
		L27.6,63z"/>
	<path class="st47" d="M58.4,63.1c1.1,0,2.2,0.4,3.2,1c-1.1,0.7-2.4,1.1-3.7,0.6C58,64.2,57.6,63.4,58.4,63.1L58.4,63.1z"/>
	<path class="st48" d="M134.3,63c1.3-0.2,2.6-0.2,3.8,0.1c0.1,0.3,0.3,0.7,0.4,1c-0.9,0-1.8,0.1-2.8,0.1
		C135.2,63.9,134.7,63.4,134.3,63L134.3,63z"/>
	<path class="st42" d="M21.1,65c0.1-0.7,0.3-1.3,0.6-1.9c2.1,0.9,4.2,2,6.1,3.3c0.6,0.4,0,1.2-0.1,1.8C25.4,67.5,23.1,66.4,21.1,65
		 M25.8,92.7c0.9-0.7,2.5,0.1,2.5,1.2c0.1,1.2-1.3,2.2-2.4,1.5C24.8,94.9,24.7,93.2,25.8,92.7 M28.4,95.5c1.3,0.1,2.9,0.6,3.3,1.9
		c-0.3,0.9-1.4,1.1-2.1,1.6c-0.7,0.4-1.3,1.2-2.2,1.1c-1.1-0.9-0.6-2.6-0.4-3.8c0.6,0.3,1.2,0.7,1.7,1.2
		C28.6,96.8,28.5,96.1,28.4,95.5L28.4,95.5z"/>
	<path class="st42" d="M128.2,63.3c0.5-0.2,0.9,0.2,1.4,0.3c1.8,0.9,3.7,1.9,5.3,3.2c-0.2,0.5-0.5,1-0.7,1.4
		c-2.3-0.8-4.5-1.9-6.5-3.2C127.8,64.4,127.9,63.8,128.2,63.3 M21.2,97c0-1.6,2.3-1.8,3.5-1.9c-0.2,0.7-0.5,1.3-0.7,2
		c0.6-0.4,1.1-0.8,1.7-1.1c0.4,1.1,0.4,2.3-0.1,3.4c-0.3,0.6-1.2,0.5-1.6,0C23.1,98.6,22,98,21.2,97L21.2,97z"/>
	<path class="st46" d="M31.1,64.4c0.4,0.1,0.7,0.2,1.1,0.2c0.4,2.5-0.8,5.4-3.4,6.2C29.9,68.9,30.9,66.8,31.1,64.4L31.1,64.4z"/>
	<path class="st49" d="M135.8,65.1c0.1-0.6,0.9-0.5,1.4-0.6c0,2.4-0.8,4.9-2.7,6.5c-0.2-0.2-0.6-0.5-0.8-0.6
		C134.5,68.6,135.2,66.9,135.8,65.1L135.8,65.1z"/>
	<path class="st43" d="M137.7,64.4c0.4,0.1,0.8,0.1,1.1,0.4c0.5,2.6-1.1,5.5-3.7,6.3C136.6,69.2,137.5,66.8,137.7,64.4L137.7,64.4z"
		/>
	<path class="st50" d="M27,70.3c1-1.8,1.7-3.8,2.4-5.8c0.3,0,1,0,1.3,0.1c-0.3,2.3-0.9,4.8-2.9,6.3C27.6,70.7,27.2,70.4,27,70.3
		L27,70.3z"/>
	<path class="st51" d="M58.3,65.7c1-0.5,2,0,2.8,0.6c-0.9,0.4-1.8,0.5-2.8,0.5C58.3,66.6,58.3,66,58.3,65.7L58.3,65.7z"/>
	<path class="st42" d="M20.9,65.5c2.1,1.1,4.2,2.2,6.5,3c-0.3,0.5-0.5,1-0.8,1.5c-1.8-0.3-3.5-1-5-2.1C20.9,67.5,21,66.4,20.9,65.5
		 M135.7,95.2c1.1,0,2.2,0.2,3.1,0.9c0.6,0.3,0.4,1.2-0.1,1.5c-0.8,0.6-1.5,1.2-2.3,1.9c-0.4,0.5-1.4,0.5-1.6-0.2
		c-0.4-0.9-0.4-1.9-0.4-2.9c0.8-0.4,1.3,0.5,1.9,0.7C136.2,96.5,136,95.8,135.7,95.2L135.7,95.2z"/>
	<path class="st52" d="M62.2,68.2c1.6,0.4,3.3,0.7,4.8,1.4c0.1,0.3,0.3,0.6,0.4,1c-1.1-0.2-2.1-0.4-3.2-0.6c-0.1,3.3-0.1,6.6,0,9.8
		c-0.6,0.3-1.3,0.6-2,0.7C62.2,76.4,62.2,72.3,62.2,68.2L62.2,68.2z"/>
	<path class="st53" d="M22,68.9c0.5-0.1,0.7,0.1,0.5,0.5C22,69.6,21.8,69.4,22,68.9L22,68.9z"/>
	<path class="st54" d="M128.6,68.9c0.5-0.1,0.7,0,0.5,0.5C128.6,69.6,128.5,69.4,128.6,68.9L128.6,68.9z"/>
	<path class="st55" d="M23,69.4c1,0.1,1.9,0.7,1.8,1.8C23.9,70.9,23,70.4,23,69.4L23,69.4z"/>
	<path class="st56" d="M67,69.6c0.9,0.4,2,1.2,1.6,2.4c-0.2,1.3-1.9,0.9-2.9,1.2c0.6-0.4,1.3-0.7,1.7-1.3c0.1-0.4,0-0.9-0.1-1.3
		C67.3,70.2,67.2,69.9,67,69.6L67,69.6z"/>
	<path class="st57" d="M129.6,69.4c1,0.1,1.8,0.7,1.8,1.7C130.5,71,129.7,70.5,129.6,69.4L129.6,69.4z"/>
	<path class="st58" d="M24.9,70.2c1,0,2.2,0.2,2.7,1.2c-0.6,0-1.3,0.2-1.9,0C25.3,71,25.1,70.6,24.9,70.2L24.9,70.2z"/>
	<path class="st59" d="M131.5,70.2c0.9,0.1,2.4,0.2,2.5,1.4c-0.6,0-1.2,0-1.8-0.2C131.9,71,131.8,70.6,131.5,70.2L131.5,70.2z"/>
	<path class="st27" d="M70.8,74.1c1-0.5,1.7-1.3,2.4-2.1c0.3,0.5,0.6,1,0.9,1.6c-1.5,0.9-3.1,1.8-4.6,2.7c-0.6-0.6-1.3-1.1-2-1.7
		C68.7,74.6,69.8,74.6,70.8,74.1L70.8,74.1z"/>
	<path class="st60" d="M102.5,77.6c1.3-1.6,4.1-1.5,5.3,0.2c1,1.1,0.5,2.7,0.3,4.1c-0.4,0.4-0.9,0.5-1.4,0.7c0-0.9,0.1-1.8,0-2.7
		c-0.5-1.2-1.8-2.1-3-1.6c-1,0.2-1.4,1.2-1.8,2.1C101.8,79.4,101.8,78.4,102.5,77.6 M58.4,86.9c0.5-0.1,0.9-0.2,1.4-0.4
		c-0.1,0.8-0.3,1.6-0.4,2.4c0.8-0.4,1.6-0.7,2.5-1c0.1,0.8,0.1,1.7,0.2,2.5c-0.4-0.4-0.7-0.7-1.1-1.1c-0.2,3.1,0,6.3,0,9.4
		c-0.1,0.5,0,1.2-0.5,1.5c-0.7,0.3-1.5,0.3-2.2,0.4c0-0.5,0-1-0.1-1.5c0.4-0.2,0.8-0.3,1.2-0.5c0.2-2.5,0-5,0.1-7.5
		C59.7,89.6,58.7,88.3,58.4,86.9L58.4,86.9z"/>
	<path class="st61" d="M56.5,85.1c0.6-0.2,1.3-0.2,2-0.3c-0.5,0.8-0.9,1.7-1.1,2.6l-0.1,0.4C57,86.9,57,85.9,56.5,85.1L56.5,85.1z"
		/>
	<path class="st62" d="M23.4,88.9c0.3-0.7,0.6-1.7,1.5-1.7c1.3,0,2.7,0.2,4,0.2c1,0,1.3,1,1.6,1.8c0.7,0.2,1.8,0.3,2,1.2
		c0.3,1.3,0.7,2.6,1,3.8c0.2,0.9-0.6,1.5-1.3,1.9c0.1,0.8,0.3,1.9-0.5,2.5c-1.1,0.6-2.1,1.3-3.2,2c-0.8,0.5-1.6-0.1-2.3-0.5
		c-0.7,0.2-1.5,0.7-2.3,0.3c-0.8-0.5-1.4-1.2-2.1-1.8c-0.5-0.4-1.2-0.7-1.4-1.4c-0.1-0.6,0.1-1.3,0.2-1.9c-0.6-0.5-1.3-1.3-0.9-2.2
		c0.5-1.2,1-2.3,1.4-3.5C21.5,88.8,22.6,88.9,23.4,88.9 M24.4,88.5c-0.2,1.2,0.7,2.2,1.4,3.1c0.8,0.3,0.7-1.2,1.1-1.6
		c0.3,0.6,0.4,1.2,0.6,1.8c1-0.4,1.6-1.3,2-2.2c0.3-0.4,0.2-1.2-0.4-1.3c-1-0.3-2-0.1-3-0.2C25.5,88.1,24.7,87.9,24.4,88.5 M21,92.4
		c-0.2,0.6-0.8,1.3-0.4,2c1.1,0.7,2.5,0,3.7-0.2c-0.2-0.7-0.7-1.1-1.2-1.6c0.6-0.1,1.3,0.3,1.8-0.1c-0.4-1.2-1.2-2.3-2.4-2.9
		C21.6,90.2,21.5,91.4,21,92.4 M28.6,92.9c0.6,0,1.3,0,1.9,0.1c-0.4,0.5-1.7,0.7-1.3,1.5c0.8,0.5,1.7,0.8,2.7,0.9
		c0.6,0,1.1-0.5,0.9-1.1c-0.3-1.2-0.6-2.4-0.9-3.5c-0.1-0.5-0.9-0.7-1.3-0.4C29.7,91,28.9,91.8,28.6,92.9 M25.8,92.7
		c-1.1,0.5-1,2.2,0.1,2.7c1,0.7,2.5-0.3,2.4-1.5C28.3,92.7,26.7,92,25.8,92.7 M21.2,97c0.8,0.9,1.9,1.5,2.7,2.4
		c0.4,0.5,1.3,0.6,1.6,0c0.5-1,0.6-2.3,0.1-3.4c-0.6,0.4-1.1,0.8-1.7,1.1c0.2-0.7,0.5-1.3,0.7-2C23.5,95.3,21.2,95.4,21.2,97
		 M28.4,95.5c0.1,0.7,0.3,1.3,0.4,2c-0.5-0.4-1.1-0.9-1.7-1.2c-0.2,1.2-0.7,2.9,0.4,3.8c0.9,0.1,1.5-0.7,2.2-1.1
		c0.7-0.5,1.7-0.7,2.1-1.6C31.3,96.1,29.7,95.5,28.4,95.5L28.4,95.5z"/>
	<path class="st63" d="M130.9,87.7c0.6-0.3,1.4-0.2,2.1-0.2c0.9,0,1.8-0.3,2.8-0.1c0.8,0.1,1,1,1.3,1.6c0.8,0,1.9-0.1,2.3,0.8
		c0.5,1.2,0.9,2.4,1.4,3.6c0.4,0.9-0.3,1.7-1,2.2c0.2,0.8,0.6,1.9-0.2,2.6c-1,0.8-1.9,1.6-2.9,2.4c-0.8,0.6-1.8,0.1-2.5-0.3
		c-0.4,0.3-0.7,0.6-1.2,0.8c-0.9,0.2-1.7-0.6-2.4-1c-0.7-0.5-1.5-0.8-2.1-1.3c-0.6-0.6-0.4-1.4-0.3-2.2c-0.6-0.5-1.4-1.1-1.2-2
		c0.3-1.3,0.7-2.6,1-3.8c0.2-1,1.4-1,2.2-1.2C130.2,88.7,130.3,88,130.9,87.7 M132.7,88.2c-0.6,0-1.4-0.1-1.7,0.6
		c-0.1,1.4,1.1,2.4,2.1,3.2c0.2-0.6,0.4-1.3,0.5-2c0.2,0.6,0.4,1.1,0.7,1.7c0.7,0.1,0.9-0.8,1.3-1.2c0.4-0.7,1.1-1.8,0.1-2.4
		C134.6,88,133.6,88.2,132.7,88.2 M137.3,89.9c-0.9,0.7-1.5,1.7-1.8,2.8c0.7,0,1.4,0,2,0c-0.4,0.5-1.5,0.8-1.4,1.6
		c1.2,0.3,3,1.2,3.9-0.2c-0.5-1.2-1-2.4-1.4-3.6C138.5,89.7,137.8,89.5,137.3,89.9 M128.5,91.2c-0.2,1.4-1,2.7-0.7,4.1
		c1.4,0.3,2.7-0.3,3.8-1c-0.5-0.5-1.1-0.8-1.7-1.2c0.7,0,1.4,0,2.1-0.1c-0.4-1-1.2-2-2.1-2.6C129.2,89.9,128.5,90.5,128.5,91.2
		 M133.1,92.6c-1,0.4-1.2,1.9-0.3,2.6c0.9,0.9,2.6,0.2,2.6-1C135.7,93,134.2,92,133.1,92.6 M131.1,95.6c-1,0.4-2.4,0.8-2.4,2.1
		c1.1,0.8,2.3,1.5,3.4,2.2c0.5,0.4,1.1,0.1,1.3-0.5c0.3-1.1,0.1-2.1-0.1-3.2c-0.6,0.3-1.2,0.8-1.8,1.2c0.2-0.6,0.4-1.2,0.6-1.9
		C131.8,95.5,131.5,95.4,131.1,95.6 M135.7,95.2c0.2,0.7,0.5,1.3,0.7,1.9c-0.6-0.3-1.2-1.1-1.9-0.7c0,1,0,2,0.4,2.9
		c0.2,0.7,1.2,0.6,1.6,0.2c0.7-0.7,1.5-1.3,2.3-1.9c0.5-0.3,0.7-1.2,0.1-1.5C137.9,95.4,136.8,95.2,135.7,95.2L135.7,95.2z"/>
	<path class="st42" d="M24.4,88.5c0.3-0.6,1.1-0.4,1.7-0.4c1,0.1,2,0,3,0.2c0.6,0.2,0.7,0.9,0.4,1.3c-0.5,0.9-1.1,1.8-2,2.2
		c-0.2-0.6-0.3-1.2-0.6-1.8c-0.4,0.5-0.2,1.9-1.1,1.6C25.1,90.7,24.2,89.7,24.4,88.5 M21,92.4c0.5-1,0.6-2.2,1.5-2.9
		c1.2,0.6,2,1.7,2.4,2.9c-0.5,0.5-1.2,0.1-1.8,0.1c0.5,0.5,1,0.9,1.2,1.6c-1.2,0.2-2.5,1-3.7,0.2C20.2,93.7,20.8,93,21,92.4
		 M137.3,89.9c0.5-0.4,1.2-0.1,1.4,0.5c0.5,1.2,0.9,2.4,1.4,3.6c-0.9,1.4-2.7,0.6-3.9,0.2c-0.1-0.8,0.9-1.1,1.4-1.6
		c-0.7,0-1.4,0-2,0C135.8,91.5,136.5,90.6,137.3,89.9 M28.6,92.9c0.2-1.1,1.1-1.9,2-2.6c0.4-0.3,1.2-0.1,1.3,0.4
		c0.3,1.2,0.6,2.4,0.9,3.5c0.2,0.6-0.3,1.1-0.9,1.1c-0.9-0.1-1.8-0.4-2.7-0.9c-0.3-0.8,0.9-1,1.3-1.5C29.9,93,29.3,93,28.6,92.9
		 M128.5,91.2c0-0.7,0.7-1.3,1.3-0.9c1,0.6,1.7,1.5,2.1,2.6c-0.7,0.1-1.4,0.1-2.1,0.1c0.6,0.4,1.2,0.8,1.7,1.2
		c-1.1,0.7-2.4,1.3-3.8,1C127.5,93.9,128.3,92.6,128.5,91.2 M133.1,92.6c1.1-0.6,2.5,0.4,2.3,1.6c-0.1,1.2-1.8,1.9-2.6,1
		C131.9,94.5,132.1,93,133.1,92.6 M131.1,95.6c0.3-0.2,0.7-0.1,1,0c-0.2,0.6-0.4,1.2-0.6,1.9c0.6-0.4,1.1-0.9,1.8-1.2
		c0.2,1.1,0.3,2.1,0.1,3.2c-0.2,0.5-0.8,0.9-1.3,0.5c-1.1-0.7-2.3-1.5-3.4-2.2C128.8,96.4,130.1,95.9,131.1,95.6L131.1,95.6z"/>
	<path class="st42" d="M132.7,88.2c1,0,2-0.2,3-0.1c0.9,0.6,0.3,1.7-0.1,2.4c-0.4,0.4-0.6,1.3-1.3,1.2c-0.2-0.6-0.4-1.1-0.7-1.7
		c-0.2,0.7-0.3,1.3-0.5,2c-1-0.8-2.1-1.8-2.1-3.2C131.2,88.1,132.1,88.2,132.7,88.2L132.7,88.2z"/>
	<path class="st64" d="M61,89.4c0.4,0.4,0.7,0.7,1.1,1.1l0,0.3c0.1,2.4-0.1,4.8,0,7.3c0,0.6,0.7,0.9,1,1.3c0,0.9-0.1,1.7-0.3,2.6
		c-0.2,0.9,0.1,1.8,0,2.7c-0.3,0.9-1.4,1.2-2.2,1.6c-1-0.3-1.9-1-2.4-1.9c0.8,0.2,1.5,0.5,2.3,0.5c1-0.3,1.3-1.9,0.5-2.5
		c-0.9-0.5-2-0.5-3-0.6c0-0.2,0-0.7,0-1c0.7-0.1,1.5-0.1,2.2-0.4c0.6-0.3,0.5-1,0.5-1.5C61,95.6,60.9,92.5,61,89.4L61,89.4z"/>
	<path class="st65" d="M92.5,91.6c0.8,0.4,1.5,0.9,2.2,1.4c-0.2,1.4,0.6,2.7,1.1,4C94,95.8,92.9,93.8,92.5,91.6L92.5,91.6z"/>
	<path class="st66" d="M100.2,99.7c1.2,0,2.3-0.1,3.5-0.2c-2.8,2.9-3.9,7.1-3.7,11.1c0,1.2,0.3,2.3,0,3.5c-0.5,0.8-1.6,0.8-2.4,1.1
		c-0.3,0.5-0.6,0.9-0.8,1.4c-0.7-0.6-1.4-1.1-2.1-1.7c0.4-0.6,0.6-1.4,1.5-1.5c0.9-0.2,2-0.5,1.9-1.7
		C97.9,107.6,97.7,103.2,100.2,99.7L100.2,99.7z"/>
	<path class="st39" d="M58.2,101.6c1,0.1,2.1,0.1,3,0.6c0.9,0.6,0.6,2.2-0.5,2.5c-0.8,0-1.5-0.3-2.3-0.5c0-0.8,0.3-1.6,0.8-2.2
		C58.8,101.9,58.5,101.8,58.2,101.6L58.2,101.6z"/>
	<path class="st67" d="M90,101.8c0.6,0.2,1.1,0.4,1.7,0.5c0.1,0.4,0.2,0.9,0.3,1.3C91.2,103.1,90.4,102.6,90,101.8L90,101.8z"/>
	<path class="st68" d="M69.5,112.1c0.7,0,1.4,0,2.1,0c0.2,0.8,0.4,1.7,0.6,2.5c-0.4-0.2-0.7-0.5-1.1-0.7
		C70.7,113.2,70.1,112.6,69.5,112.1L69.5,112.1z"/>
	<path class="st69" d="M88.1,112.9c0.7-0.1,1.3-0.2,2-0.2c0,0.9,0.1,1.7,0.1,2.6c-0.1-0.2-0.3-0.5-0.4-0.7c-0.3-0.5-0.5-1-0.8-1.5
		C88.8,113.1,88.4,113,88.1,112.9L88.1,112.9z"/>
	<path class="st70" d="M93,113c0.2,0,0.7,0.1,1,0.1c0.1,0.4,0.3,0.9,0.4,1.3C93.9,113.9,93.4,113.5,93,113L93,113z"/>
	<path class="st71" d="M117.6,115.2c0.1-0.7,1.8-0.7,1.9,0C118.9,115.2,118.3,115.2,117.6,115.2L117.6,115.2z"/>
	<path class="st72" d="M117.6,115.7c0.6-0.6,1.6-0.4,2.2,0.1c0.6,0.5,0.8,1.2,1.3,1.8c0.7,0.5,1.8,0.8,1.9,1.8
		c0.3,2.2-2,3.3-3.2,4.7c-1.8-1.7-3.6-3.4-5.3-5.3C115.6,117.6,116.5,116.6,117.6,115.7 M116.6,117.9c0.5,0.6,1.1,1.2,1.8,1.7
		c0.4-0.6,1.1-1.4,0.5-2.1C118.1,116.7,117.2,117.5,116.6,117.9 M119.8,119.4c-0.1,0.2-0.4,0.5-0.6,0.6l-0.3-0.2
		c0.3,0.8,0.9,1.4,1.5,1.9c0.5-0.5,1.2-1.3,0.6-2C120.8,119.3,120.2,119.4,119.8,119.4 M37.4,119.3c1.3-1.2,2.5-2.4,3.8-3.6
		c1.2,0.9,2.3,2,3.2,3.2c-0.3,0.3-0.5,0.5-0.8,0.8c-0.6-0.6-1.2-1.1-1.8-1.7c-0.4,0.4-0.8,0.8-1.1,1.1c0.5,0.6,1,1.1,1.6,1.7
		c-0.2,0.3-0.4,0.7-0.6,1c-0.7-0.6-1.3-1.1-2-1.7c-0.8,0.8-1.6,1.6-2.4,2.4c-0.5-0.5-1-1-1.5-1.5C36.3,120.4,36.9,119.8,37.4,119.3
		 M66,130.4c1.5,0.2,3,0.4,4.3,1.2c0.9,0.7,0.6,1.9,0.4,2.9c0,0.1-0.1,0.3-0.1,0.4c-0.5,1.2-0.2,2.9-1.6,3.5
		c-1.5,0.4-3.1-0.4-4.5-0.7C64.8,135.2,65.5,132.8,66,130.4 M67.6,131.9c-0.1,0.6-0.1,1.3-0.2,1.9c0.5-0.1,1.6,0.1,1.5-0.7
		C69.1,132.3,68.2,132,67.6,131.9 M67,134.8c-0.3,0.7-0.4,1.5-0.5,2.2c0.6-0.1,1.5,0.2,1.8-0.5c0.1-0.5-0.1-0.9-0.1-1.4
		C67.8,135,67.4,134.9,67,134.8L67,134.8z"/>
	<path class="st73" d="M116.6,117.9c0.6-0.5,1.5-1.3,2.2-0.4c0.7,0.7,0,1.5-0.5,2.1C117.7,119.1,117.1,118.6,116.6,117.9
		 M117.2,117.9c0.3,0.4,0.7,0.8,1.1,1.1c0.1-0.2,0.4-0.6,0.5-0.8c-0.1-0.2-0.3-0.6-0.4-0.8C118,117.6,117.6,117.7,117.2,117.9
		L117.2,117.9z"/>
	<path class="st74" d="M117.2,117.9c0.4-0.2,0.8-0.3,1.1-0.5c0.1,0.2,0.3,0.6,0.4,0.8c-0.1,0.2-0.4,0.6-0.5,0.8
		C117.9,118.7,117.6,118.3,117.2,117.9L117.2,117.9z"/>
	<path class="st75" d="M113,119.5c0.3-0.3,0.6-0.6,0.9-0.9c0.6,0.6,1.1,1.2,1.7,1.8c-0.2,1,0.3,1.9,0.5,2.8
		C115.2,122,114.2,120.6,113,119.5L113,119.5z"/>
	<path class="st76" d="M119.8,119.4c0.5,0,1-0.2,1.3,0.3c0.6,0.8-0.2,1.5-0.6,2c-0.6-0.5-1.2-1.1-1.5-1.9l0.3,0.2
		c0.5,0.3,0.9,0.7,1.4,1c0.1-0.3,0.3-0.7,0.4-1C120.6,119.9,120.2,119.6,119.8,119.4L119.8,119.4z"/>
	<path class="st77" d="M119.2,120.1c0.1-0.2,0.4-0.5,0.6-0.6c0.4,0.2,0.8,0.4,1.2,0.6c-0.1,0.3-0.3,0.7-0.4,1
		C120.1,120.8,119.7,120.4,119.2,120.1L119.2,120.1z"/>
	<path class="st78" d="M112.2,121c0.3-0.3,0.6-0.6,1-0.9c1.1,1.4,2.3,2.8,3.3,4.3c0.9,1.3,0.1,3.3-1.4,3.8c-1,0.4-2,0-3-0.1
		c-0.1-0.1-0.2-0.3-0.3-0.5c-0.8-1.5-2-2.8-3-4.2c0.5-0.4,1-0.8,1.5-1.2c1.2,1.3,2.1,2.9,3.3,4.2c0.7,0.8,2.1-0.2,1.7-1.1
		C114.5,123.8,113.2,122.5,112.2,121L112.2,121z"/>
	<path class="st79" d="M44.2,121.3c1-0.7,2.3-0.6,3.3-0.3c1.2,0.3,2,1.4,2.5,2.5c0.4,1.9-0.5,3.7-2,4.9c-2.1,1.2-5,0.1-5.9-2.2
		C41.9,124.3,42.6,122.4,44.2,121.3 M46.3,122.5c-1.6,0.6-3.2,3.3-1.4,4.5c1.9,0.3,3.7-2,3.2-3.8C47.7,122.6,47,122.3,46.3,122.5
		L46.3,122.5z"/>
	<path class="st80" d="M46.6,122.9c0.9-0.2,1.7,0.8,1.3,1.5c-0.4,1-1.1,1.9-2.1,2.3c-0.9,0.3-1.7-0.7-1.4-1.5
		C44.8,124.3,45.5,123.1,46.6,122.9L46.6,122.9z"/>
	<path class="st81" d="M50.1,123.5c0.1-0.2,0.2-0.5,0.2-0.6c0.5,0.9,0.5,1.9,0.5,2.9c0.5-0.2,1-0.4,1.5-0.4l0.3,0
		c-1,0.8-2.1,1.5-2.5,2.8c-0.6,1.4-0.1,2.9,0.6,4.1c-1.3-0.8-1.5-2.3-1.5-3.7c-0.2,0-0.7-0.1-1-0.2
		C49.5,127.2,50.4,125.4,50.1,123.5L50.1,123.5z"/>
	<path class="st82" d="M117,124.7c0.7,0.2,0.7,1.9,0,2C117,126,117,125.3,117,124.7L117,124.7z"/>
	<path class="st83" d="M103.8,125.9c0.5-0.3,1.1-0.5,1.6-0.8c0.9,1.4,1.7,2.8,2.5,4.2c0.2,0.3,0.3,0.8,0.7,0.9
		c0.8-0.3,1.5-0.8,2.2-1.1c0.2,0.4,0.4,0.8,0.6,1.2c-1.3,0.8-2.5,1.5-3.9,2.2C106.2,130.4,104.9,128.2,103.8,125.9 M59.3,128.2
		c1.6,0.5,3.2,1,4.8,1.7c-0.1,0.4-0.1,0.8-0.2,1.1c-0.6-0.1-1.1-0.2-1.7-0.3c-0.7,1.9-1.3,3.8-2.1,5.7c-0.6-0.2-1.2-0.5-1.8-0.7
		c0.5-1.4,0.9-2.8,1.4-4.2c0.1-0.3,0.3-0.7,0.4-1c0-0.1,0.1-0.3,0.1-0.4c-0.5-0.4-1-0.7-1.5-1C58.9,128.8,59.2,128.4,59.3,128.2
		L59.3,128.2z"/>
	<path class="st84" d="M52.6,125.4c1.5,0.1,3.3,0.2,4.3,1.7c1.2,1.5,0.5,3.6-0.3,5.1c-1.5,1.7-4.4,1.6-5.9,0
		c-0.7-1.2-1.2-2.7-0.6-4.1C50.5,126.9,51.6,126.1,52.6,125.4 M53.3,127.4c-1.1,0.9-2.1,3-0.8,4.1c1.8,0.6,3.2-1.6,3-3.2
		C55.6,127.2,54,126.6,53.3,127.4 M100.1,127.7c1.1-0.4,2.1,0.3,3.1,0.6c-0.2,0.3-0.4,0.7-0.6,1c-1,0-2.3-0.5-3.1,0.4
		c-0.9,1-0.3,2.5,0.4,3.5c0.5,0.8,1.6,0.5,2.5,0.5c0.1-0.1,0.2-0.4,0.3-0.5c0.3-0.4,0.6-0.8,0.8-1.2c0.4,0,0.7,0.1,1.1,0.1
		c-0.2,1.2-0.8,2.4-1.9,3c-1.3,0.8-2.9,0.4-4.3-0.1c-0.3-0.2-0.5-0.4-0.7-0.7c-0.4-0.9-0.8-1.8-0.8-2.8
		C96.8,129.6,98.4,128,100.1,127.7L100.1,127.7z"/>
	<path class="st85" d="M53.3,127.4c0.7-0.8,2.3-0.2,2.2,0.9c0.3,1.6-1.2,3.8-3,3.2C51.2,130.4,52.1,128.3,53.3,127.4L53.3,127.4z"/>
	<path class="st86" d="M57.5,127.5c0.5,0.1,1,0.3,1.5,0.4c-0.2,0.5-0.3,1.1-0.5,1.6c0.6,0.3,1.1,0.7,1.7,1c-0.1,0.3-0.3,0.7-0.4,1
		c-0.2,0.3-0.4,0.6-0.6,0.8c0-0.7,0-1.3,0.1-2c-0.7-0.5-1.4,0-1.8,0.6C57.8,129.8,57.8,128.6,57.5,127.5L57.5,127.5z"/>
	<path class="st87" d="M59.6,127.8c1.4,0,3,0.2,3.9,1.4C62.1,128.8,60.9,128.3,59.6,127.8L59.6,127.8z"/>
	<path class="st88" d="M62.5,131.2c0.5,0,1,0.1,1.5,0.2l0.2,0c-1.1,0.3-2,0.9-2.7,1.7C61.9,132.5,62,131.7,62.5,131.2L62.5,131.2z"
		/>
	<path class="st78" d="M86,131.8c0.6-0.1,1.2-0.2,1.8-0.4c0.5,2,0.6,4.1,1.1,6.2c0.8-0.1,1.6-0.3,2.5-0.4c0.1,0.4,0.2,0.8,0.3,1.2
		c-1.5,0.3-3,0.6-4.5,0.7C86.8,136.6,86.4,134.2,86,131.8 M75.4,131.7c1.1,2.5,1.8,5.2,2.5,7.9c-0.6,0-1.2-0.1-1.8-0.2
		c-0.2-0.6-0.4-1.1-0.6-1.7c-0.6-0.1-1.2-0.2-1.8-0.3c-0.3,0.6-0.6,1.1-0.9,1.7c-0.3,0-0.8,0-1.1,0
		C72.7,136.6,74.1,134.1,75.4,131.7 M74.7,135.7c-0.6,0.1-0.4,1.2,0.2,1C75.4,136.6,75.2,135.6,74.7,135.7L74.7,135.7z"/>
	<path class="st89" d="M79.9,131.7c0.8,0,1.5,0,2.3,0c0.3,2,0.3,4.1,0.3,6.1c0.9,0,1.8,0,2.7,0c0,0.6,0.1,1.1,0.1,1.7l-0.4,0
		c-0.1-0.3-0.2-0.9-0.3-1.2c-0.8-0.1-1.7-0.1-2.5-0.2c-0.1-2-0.1-4.1-0.2-6.1c-0.6,0-1.1,0-1.7,0c0,1.6,0.1,3.2,0.1,4.8l-0.3,0.2
		c0-0.7-0.1-1.4-0.1-2.1C79.9,133.9,79.9,132.8,79.9,131.7L79.9,131.7z"/>
	<path class="st90" d="M64.6,134.7c-0.2-0.9,0-1.9,0.6-2.6C65.1,132.9,64.9,133.8,64.6,134.7L64.6,134.7z"/>
	<path class="st91" d="M80.2,132.2c0.6,0,1.1,0,1.7,0c0.1,2,0.1,4.1,0.2,6.1c0.8,0.1,1.7,0.1,2.5,0.2c0.1,0.3,0.2,0.9,0.3,1.2
		c-0.8,0-1.5,0-2.3,0c-0.7-0.1-1.5-0.3-2.3-0.2c0-0.8,0-1.6-0.1-2.4C80.3,135.4,80.2,133.8,80.2,132.2L80.2,132.2z"/>
	<path class="st92" d="M88.4,132.1c0.6,0.1,0.5,0.9,0.6,1.3c0.1,1,0.2,2.1,0.4,3.1c0.8,0,1.6,0,2.4,0.2c-0.8,0.2-1.7,0.3-2.6,0.5
		C88.8,135.5,88.6,133.8,88.4,132.1L88.4,132.1z"/>
	<path class="st93" d="M67,134.8c0.4,0.1,0.8,0.2,1.2,0.3c0.1,0.5,0.2,0.9,0.1,1.4c-0.3,0.7-1.2,0.5-1.8,0.5
		C66.6,136.3,66.7,135.5,67,134.8 M67.3,135.2c-0.1,0.5-0.3,1-0.4,1.5c0.7,0.2,1.2-0.4,1.3-1C68,135.6,67.5,135.3,67.3,135.2
		L67.3,135.2z"/>
	<path class="st94" d="M67.3,135.2c0.2,0.1,0.7,0.4,0.9,0.5c-0.1,0.7-0.5,1.2-1.3,1C67,136.2,67.2,135.7,67.3,135.2L67.3,135.2z"/>
	<path class="st95" d="M74.7,135.7c0.6-0.1,0.8,0.9,0.2,1C74.3,136.9,74.1,135.8,74.7,135.7L74.7,135.7z"/>
	<path class="st96" d="M64,138c0.4-0.1,0.8,0.1,1.2,0.3C65,138.8,63.9,138.6,64,138L64,138z"/>
	<path class="st97" d="M66.6,138.7c1,0,1.9,0,2.9,0.1C68.7,139.4,67.3,139.5,66.6,138.7L66.6,138.7z"/>
	<path class="st98" d="M86.7,139.5c1.4-0.2,2.8-0.3,4.2-0.5c-1.3,0.5-2.7,1-4.1,0.8L86.7,139.5L86.7,139.5z"/>
	<path class="st99" d="M71.3,139.4c0.5-0.1,1.1-0.1,1.6,0C73,140.1,71.4,140.1,71.3,139.4L71.3,139.4z"/>
	<path class="st100" d="M80.3,139.4c0.8-0.1,1.5,0.1,2.3,0.2C81.9,139.8,80.6,140.4,80.3,139.4L80.3,139.4z"/>
</g>
</svg>
