<?xml version="1.0" encoding="utf-8"?>
<!-- Generator: Adobe Illustrator 19.1.0, SVG Export Plug-In . SVG Version: 6.00 Build 0)  -->
<svg version="1.1"
	 id="svg2" xmlns:inkscape="http://www.inkscape.org/namespaces/inkscape" xmlns:cc="http://creativecommons.org/ns#" xmlns:svg="http://www.w3.org/2000/svg" xmlns:dc="http://purl.org/dc/elements/1.1/" xmlns:sodipodi="http://sodipodi.sourceforge.net/DTD/sodipodi-0.dtd" xmlns:rdf="http://www.w3.org/1999/02/22-rdf-syntax-ns#" inkscape:version="0.48.4 r9939" sodipodi:docname="palace.pdf"
	 xmlns="http://www.w3.org/2000/svg" xmlns:xlink="http://www.w3.org/1999/xlink" x="0px" y="0px" viewBox="0 0 69.391 86.254"
	 enable-background="new 0 0 69.391 86.254" xml:space="preserve">
<sodipodi:namedview  fit-margin-left="0" inkscape:zoom="2" fit-margin-top="0" showgrid="false" objecttolerance="10" guidetolerance="10" inkscape:cy="32.048726" pagecolor="#ffffff" inkscape:cx="121.75736" gridtolerance="10" borderopacity="1" bordercolor="#666666" inkscape:window-width="1024" inkscape:window-x="-8" inkscape:pageopacity="0" inkscape:current-layer="g10" inkscape:window-y="-8" fit-margin-right="0" fit-margin-bottom="0" inkscape:window-maximized="1" inkscape:window-height="538" inkscape:pageshadow="2" id="namedview4">
	</sodipodi:namedview>
<g id="g10" transform="matrix(1.25,0,0,-1.25,-250.29012,1007.0359)" inkscape:label="palace" inkscape:groupmode="layer">
	<g id="g108" transform="translate(217.8548,750.9886)">
		<path id="path110" inkscape:connector-curvature="0" fill="#FFFFFF" d="M0,0c0,0-7.722,3.873-11.484,9.814
			c0.02-5.105-0.232-11.473-0.232-11.473l11.82-2.322L0,0z"/>
	</g>
	<g id="g112" transform="translate(238.2607,750.8835)">
		<path id="path114" inkscape:connector-curvature="0" fill="#FFFFFF" d="M0,0c0,0,7.723,3.568,11.484,9.508
			c-0.02-5.104,0.233-11.061,0.233-11.061l-11.82-2.323L0,0z"/>
	</g>
	<path id="path116" inkscape:connector-curvature="0" fill="#FFFFFF" d="M238.344,743.433h-20.542v9.375h20.542V743.433z"/>
	<g id="g118" transform="translate(234.1849,752.1142)">
		<path id="path120" inkscape:connector-curvature="0" fill="#FFFFFF" d="M0,0c0-3.322-2.729-6.018-6.094-6.018
			c-3.365,0-6.095,2.696-6.095,6.018c0,3.324,2.73,6.02,6.095,6.02C-2.729,6.019,0,3.324,0,0"/>
	</g>
	<g id="g122" transform="translate(203.5315,748.9727)">
		<path id="path124" inkscape:connector-curvature="0" fill="#FFFFFF" d="M0,0v8.794l-0.525,0.198v1.188L0,10.413v0.829
			l-0.525,0.196v1.418L1.2,14.492v0.387c0,0,0.058,0.34,0.5,0.34h0.509c0,0,0.398-0.058,0.398-0.34v-0.361l1.769-1.667l-0.016-1.418
			l-0.527-0.186V10.42l0.538-0.23V8.881V0.846L0,0z"/>
	</g>
	<g id="g126" transform="translate(252.7899,748.9727)">
		<path id="path128" inkscape:connector-curvature="0" fill="#FFFFFF" d="M0,0v8.794l0.525,0.198v1.188L0,10.413v0.829l0.525,0.196
			v1.418L-1.2,14.492v0.387c0,0-0.058,0.34-0.5,0.34h-0.51c0,0-0.397-0.058-0.397-0.34v-0.361l-1.77-1.667l0.016-1.418l0.526-0.186
			V10.42l-0.536-0.23V8.881V0.846L0,0z"/>
	</g>
	<g id="g130" transform="translate(227.5555,736.626)">
		<path id="path132" inkscape:connector-curvature="0" fill="#FFFFFF" d="M0,0c-4.271,0-7.002,1.464-9.877,3.007
			c-1.524,0.816-3.099,1.661-4.95,2.282c-5.236,1.758-8.684-0.396-8.828-0.489l-0.698,1.077c0.164,0.107,4.083,2.593,9.934,0.629
			c1.953-0.656,3.577-1.527,5.148-2.37c2.97-1.591,5.77-3.097,10.383-2.82C5.425,1.575,8.39,3.041,11.257,4.459
			c1.222,0.605,2.377,1.176,3.601,1.636c0.079,0.03,0.173,0.067,0.281,0.109c1.534,0.607,6.205,2.449,10.238-0.622L24.6,4.562
			c-3.459,2.634-7.477,1.047-8.991,0.45c-0.114-0.045-0.214-0.085-0.3-0.117C14.146,4.457,13.018,3.9,11.825,3.31
			C8.982,1.905,5.76,0.311,1.189,0.036C0.78,0.012,0.384,0,0,0"/>
	</g>
	<g id="g134" transform="translate(250.4311,738.9429)">
		<path id="path136" inkscape:connector-curvature="0" fill="#FFFFFF" d="M0,0l-0.907,0.584C-1.11,0.715-1.645,0.798-2.188,0.711
			c-0.096-0.015-0.197-0.038-0.297-0.06C-2.94,0.55-3.507,0.427-3.947,0.78c-0.18,0.145-0.397,0.425-0.397,0.939
			C-4.345,2.11-4.176,2.458-3.869,2.697c1.002,0.779,3.461,0.235,4.191,0.05c0.484-0.133,1.021-0.128,1.126-0.032
			c0.249,2.768,1.374,4.77,2.007,5.7c-4.546,2.748-11.503,1.255-14.111-0.41c-3.888-2.483-7.128-4.023-11.267-4.041
			c-3.527-0.003-6.52,1.45-9.679,2.996c-1.769,0.866-3.597,1.761-5.607,2.436c-4.226,1.419-9.033-0.178-10.859-0.907
			c0.68-0.934,1.714-2.767,1.827-5.391c0.098-0.122,0.632-0.152,1.111-0.047c0.751,0.153,3.233,0.578,4.196-0.248
			c0.294-0.254,0.448-0.608,0.429-0.998c-0.025-0.512-0.254-0.784-0.442-0.92c-0.456-0.332-1.016-0.181-1.467-0.059
			c-0.1,0.027-0.198,0.053-0.291,0.073c-0.539,0.114-1.077,0.057-1.288-0.066l-0.932-0.538l-0.036,1.484
			c-0.368-0.071-1.411-0.215-2.055,0.277c-0.311,0.238-0.485,0.579-0.502,0.987c-0.144,3.356-2.012,5.218-2.03,5.236l-0.649,0.634
			l0.816,0.398c0.273,0.134,6.773,3.245,12.58,1.296c2.09-0.702,3.958-1.617,5.762-2.501c3.009-1.473,5.851-2.864,9.07-2.864h0.043
			c3.83,0.016,6.89,1.48,10.584,3.84c3.054,1.948,11.042,3.62,16.088,0.014l0.57-0.409l-0.459-0.53
			c-0.018-0.02-1.83-2.165-2.136-5.535c-0.036-0.407-0.226-0.74-0.548-0.962c-0.659-0.456-1.683-0.27-2.066-0.178L0,0z"/>
	</g>
	<g id="g138" transform="translate(209.4236,741.7437)">
		<path id="path140" inkscape:connector-curvature="0" fill="#FFFFFF" d="M0,0c0,0-0.638,0.64-0.904,1.11
			c-0.525,0.93-4.632-0.906-4.632-0.906l1.12-0.241"/>
	</g>
	<g id="g142" transform="translate(246.4116,741.4991)">
		<path id="path144" inkscape:connector-curvature="0" fill="#FFFFFF" d="M0,0c0,0,0.652,0.625,0.929,1.088
			c0.55,0.919,4.609-1.015,4.609-1.015L4.414-0.142"/>
	</g>
	<g id="g146" transform="translate(203.41,741.7071)">
		<path id="path148" inkscape:connector-curvature="0" fill="#FFFFFF" d="M0,0c0,0-0.088,2.526-0.655,3.646
			c-0.567,1.121-0.794,2.249-0.794,2.249S1.994,7.628,4.238,7.67c2.243,0.041,7.827-0.928,9.566-1.888
			c1.74-0.959,6.429-3.532,8.861-4.057c2.433-0.525,6.451,0.1,8.964,1.134c2.512,1.034,4.194,2.815,5.212,3.267
			c1.018,0.452,4.303,1.64,6.512,1.838c2.209,0.2,4.87-0.705,6.368-0.988c1.499-0.284,1.278-0.85,1.278-0.85l-1.803-5.738
			c0,0-2.883,0.98-4.816,1.036c-1.933,0.057-5.221-1.397-6.24-1.774c-1.017-0.377-5.496-2.247-6.938-2.814
			c-1.442-0.566-6.313-1.868-9.089-1.245c-2.775,0.623-8.167,3.359-9.577,4.059C11.125,0.35,6.024,2.031,5.348,1.71
			C4.672,1.39,0,0,0,0"/>
	</g>
	<g id="g150" transform="translate(231.5543,762.9777)">
		<path id="path152" inkscape:connector-curvature="0" fill="#FFFFFF" d="M0,0c0.011-0.007,0.023-0.012,0.033-0.016l-0.17-0.028L0,0
			z M19.94,33.48c-0.102,0.312-0.633,0.553-2.784,0.553c-0.838,0-1.619-0.034-1.627-0.034c-0.034-0.001-0.066-0.008-0.098-0.017
			c-1.331-0.097-2.602-0.404-3.75-0.902c1.523,1.837,3.895,2.984,5.329,3.551c0.074,0.03,0.286,0.127,0.331,0.196
			c0.069,0.11,0.187,0.21,0.09,0.389c-0.167,0.305-0.819,0.384-1.255,0.384c-0.468,0-1.133-0.064-1.965-0.189
			c-0.396-0.045-0.787-0.109-1.161-0.191c-0.017-0.003-0.034-0.007-0.05-0.013c-1.652-0.371-3.215-1.111-4.52-2.14
			c-0.184-0.145-0.359-0.295-0.532-0.448l1.051,1.788c0.569,0.93,1.184,1.788,1.834,2.552c0.045,0.051,0.073,0.113,0.087,0.178
			c0.026,0.13,0.173,0.334,0.09,0.437c-0.054,0.064-0.174,0.172-0.388,0.172c-0.19,0-0.818-0.064-3.227-1.894
			c-2.267-1.584-4.21-3.636-5.628-5.945c-0.57-1.02-1.564-2.912-1.895-4.245c-0.019,0.134-0.038,0.269-0.052,0.398
			c-0.06,0.535-0.092,1.091-0.102,1.748c-0.011,0.787,0.024,1.492,0.056,1.944c0.014,0.19-0.022,0.638-0.206,0.682
			c-0.185,0.046-0.466-0.323-0.541-0.498c-1.178-2.698-1.488-4.941-1.552-6.278l-0.43-3.935c-0.049-0.272-0.255-1.586-0.255-1.586
			c-0.327,0.569-0.557,0.991-0.807,1.608c-0.009,0.021-0.019,0.04-0.03,0.06l-0.371,0.593c-0.009,0.016-0.02,0.032-0.032,0.045
			c-0.562,0.668-1.13,1.012-1.787,1.409c-0.923,0.56-2.071,1.255-3.777,3.229c-0.941,1.091-2.032,3.291-2.384,4.806
			c-0.698,3.001-0.633,6.589,0.17,9.812c0.073,0.215,0.124,0.608,0.028,0.741c-0.073,0.102-0.21,0.172-0.338,0.172
			c-0.251,0-0.478-0.22-2.052-2.722c-0.004-0.007-0.009-0.012-0.013-0.02c-1.033-1.646-1.762-3.528-2.108-5.448
			c-0.077-0.418-0.134-0.835-0.174-1.248c-0.365,0.908-0.666,1.848-0.902,2.806c-0.505,2.056-0.671,4.141-0.481,6.03
			c0.012,0.118,0.038,0.433-0.046,0.517c-0.081,0.077-0.193,0.122-0.31,0.122c-0.347,0-0.88-0.447-1.989-3.41
			c-1.055-2.82-1.395-5.405-1.065-8.232c-1.198,1.559-1.738,3.753-2.224,5.728c-0.121,0.49-0.239,0.971-0.364,1.431
			c-0.062,0.23-0.229,0.79-0.438,0.684c-0.016-0.006-0.03-0.015-0.044-0.025c-0.001-0.001-0.002-0.002-0.005-0.003
			c-0.008-0.005-0.015-0.011-0.022-0.018c-0.01-0.008-0.02-0.015-0.028-0.023c-0.043-0.041-0.195-0.529-0.221-0.582
			c-0.067-0.126-0.111-0.31-0.137-0.578c-0.001-0.013-0.002-0.025-0.002-0.038c0-0.091-0.006-0.184-0.011-0.276
			c-0.006-0.102-0.012-0.203-0.012-0.305c-0.143-1.482-0.256-5.316,1.712-9.323l0.045-0.104c0.026-0.06,0.052-0.121,0.08-0.182
			c0.214-0.451,0.456-0.866,0.688-1.265c0.077-0.132,0.152-0.262,0.226-0.392c0.272-0.477,0.51-0.768,0.755-1.045
			c-1.111,0.227-2.753,0.554-3.545,0.673c-0.184,0.024-0.357-0.076-0.423-0.247c-0.065-0.172-0.003-0.366,0.152-0.466
			c0.661-0.434,1.867-1.521,3.133-2.698l-0.018-0.006l2.246-2.089l0.205-0.191c0.733-0.691,1.495-1.403,2.221-2.064l-1.54,0.152
			c-0.17,0.02-0.335-0.08-0.4-0.24c-0.066-0.16-0.019-0.344,0.116-0.453l3.584-2.901l-0.003-0.001l1.568-1.248
			c0.011-0.011,0.02-0.025,0.033-0.034l2.691-2.166c0.066-0.052,0.149-0.083,0.234-0.086l0.691-0.018
			c-1.462-0.607-2.798-0.627-4.362-0.103c-1.205,0.405-2.359,1.034-3.336,1.82c-0.139,0.112-0.494,0.32-0.637,0.214
			c-0.143-0.107-0.037-0.501,0.03-0.667c0.305-0.747,0.867-1.405,1.435-1.997c-1.854,0.245-3.546,0.756-5.473,1.638
			c-0.159,0.073-0.449,0.261-0.563,0.13c-0.112-0.132-0.022-0.55,0.072-0.697c0.872-1.353,1.571-2.281,2.266-3.004
			c0.73-0.759,1.693-1.536,2.166-1.82c0.09-0.056,0.334-0.2,1.488-0.2c0.436,0,0.921,0.022,1.327,0.061
			c0.052,0.006,0.102,0.01,0.149,0.014c-1.151-0.407-2.212-0.558-3.128-0.443c-0.198,0.029-0.648,0.009-0.696-0.184
			c-0.045-0.195,0.327-0.505,0.516-0.572c1.373-0.491,2.716-0.825,4.002-0.995c0.423-0.119,1.628-0.434,2.927-0.548
			c0.088-0.008,0.17-0.008,0.248-0.006c0.107-0.011,0.214-0.019,0.317-0.03c0.498-0.045,0.969-0.091,1.471-0.091
			c0.413,0,0.821,0.031,1.245,0.098c0.005-0.052,0.017-0.102,0.041-0.148l0.226-0.444c-0.082-0.014-0.162-0.054-0.221-0.119
			c-0.114-0.123-0.138-0.305-0.059-0.452l0.487-0.91c0.011-0.02,0.024-0.041,0.039-0.059c0.004-0.003,0.015-0.018,0.036-0.043
			c-0.021-0.009-0.041-0.023-0.061-0.035C-8.918,0.927-8.979,0.761-8.94,0.605c0.252-1.014,0.742-1.37,1.101-1.631
			c0.245-0.177,0.393-0.284,0.47-0.562c0.052-0.184,0.136-0.39,0.224-0.611c0.186-0.464,0.466-1.165,0.291-1.443
			C-7.089-4.017-7.25-4.125-7.519-4.303c-0.167-0.113-0.375-0.252-0.629-0.479C-8.757-5.33-8.8-6.057-8.274-6.945l0.032-0.052
			c0.08-0.141,0.241-0.216,0.402-0.191c0.161,0.027,0.288,0.15,0.32,0.311c0.122,0.626,1.151,1.122,1.352,1.135
			c0.354,0.023,0.689,0.047,0.919,0.277c0.375,0.374,2.409,0.397,2.409,0.397s0.237-0.008,0.612-0.084
			c0.073-0.036,0.146-0.068,0.212-0.11c0.065-0.042,0.134-0.064,0.211-0.059c0.044,0,0.726-0.275,0.782-0.34
			c0.101-0.119,1.254-0.757,1.388-0.829c0.078-0.041,0.749-0.936,0.846-0.936c0.156-0.23,0.215-0.166,0.22,0.069
			C1.867-7.1,2.26-6.525,2.411-5.912c0.152,0.611,0.06,1.192-0.26,1.681C2.133-4.203,2.112-4.178,2.087-4.156
			C2.019-4.094,1.842-3.953,1.634-3.789C1.35-3.566,0.876-3.193,0.78-3.083C0.492-2.754,0.352-2.396,0.213-1.989
			c0.11,0.007,0.213,0.059,0.283,0.148c0.073,0.092,0.1,0.215,0.074,0.33L0.518-1.286c-0.08,0.344-0.171,0.734-0.244,1.16
			L0.269-0.104c0.016-0.002,0.033-0.002,0.048-0.002c0.002,0,0.003,0.001,0.006,0c0.216,0,0.391,0.175,0.391,0.391
			c0,0.073-0.02,0.141-0.054,0.199L0.229,1.652c0.041-0.045,0.07-0.078,0.082-0.092c0.107-0.112,0.365-0.303,0.512-0.25
			c0.145,0.05,0.15,0.334,0.162,0.488c0.061,0.78,0.657,1.57,1.3,2.033c0.036-0.106,0.071-0.177,0.08-0.194
			c0.067-0.131,0.073-0.416,0.22-0.416c0.002,0,0.005,0,0.008,0.002C2.741,3.224,2.853,3.43,3.066,3.65
			c0.269,0.28,0.495,0.522,0.778,0.605l1.348-0.543c0.08-0.241,0.247-0.633,0.541-0.871c0.253-0.204,0.498-0.359,0.945-0.642
			c0.047-0.03,0.097-0.061,0.15-0.094c-0.041-0.02-0.084-0.041-0.136-0.059C6.539,1.991,6.096,1.845,6.095,1.681
			c0-0.163,0.44-0.311,0.594-0.368c0.299-0.112,0.629-0.172,0.952-0.172c0.664,0,1.245,0.238,1.596,0.651
			c0.288,0.341,0.4,0.773,0.32,1.247C9.499,3.394,9.359,4.27,9.314,4.552l0.365,1.195C9.69,5.784,9.696,5.824,9.696,5.863
			c-0.003,0.566-0.165,1.198-0.48,1.879L9.201,7.787C9.187,7.834,9.163,7.876,9.134,7.912C9.117,7.948,9.1,7.979,9.085,8.008
			C9,8.194,8.896,8.38,8.763,8.584c-0.967,1.594-2.343,2.893-2.401,2.948c-0.117,0.109-0.348,0.3-0.492,0.234
			c-0.145-0.068-0.175-0.381-0.166-0.541l0.006-0.085c-0.095,0.224-0.454,0.599-0.534,0.72c-0.174,0.26-0.303,0.526-0.35,0.717
			c1.161,5.37,4.714,8.947,4.749,8.983c0.064,0.064,0.105,0.148,0.113,0.239c0.77,7.684,9.547,11.068,9.636,11.101
			c0.033,0.012,0.259,0.083,0.288,0.103C19.916,33.226,19.965,33.403,19.94,33.48"/>
	</g>
	<g id="g154" transform="translate(227.5614,737.0431)">
		<path id="path156" inkscape:connector-curvature="0" fill="#292D6B" d="M0,0c-4.187,0-6.877,1.443-9.712,2.963
			c-1.538,0.824-3.126,1.675-5.007,2.307c-5.436,1.826-9.105-0.505-9.142-0.528l-0.299,0.459c0.159,0.102,3.93,2.498,9.616,0.588
			c1.924-0.646,3.533-1.509,5.091-2.343c3.017-1.618,5.866-3.147,10.58-2.864c4.387,0.264,7.384,1.746,10.284,3.181
			c1.214,0.601,2.361,1.168,3.57,1.622c0.08,0.031,0.177,0.068,0.286,0.111c1.645,0.649,6.013,2.371,9.88-0.573l-0.332-0.436
			c-3.621,2.758-7.78,1.118-9.347,0.498c-0.112-0.043-0.211-0.083-0.295-0.114c-1.18-0.444-2.316-1.005-3.518-1.601
			C8.843,1.881,5.657,0.306,1.159,0.036C0.76,0.012,0.374,0,0,0"/>
	</g>
	<g id="g158" transform="translate(226.9923,741.3633)">
		<path id="path160" inkscape:connector-curvature="0" fill="#1B458F" d="M0,0l-0.124,0.004l-0.03-0.912l0.112-0.004
			c0.335-0.01,0.523,0.13,0.534,0.451C0.503-0.165,0.334-0.011,0,0"/>
	</g>
	<g id="g162" transform="translate(229.7522,740.1547)">
		<path id="path164" inkscape:connector-curvature="0" fill="#1B458F" d="M0,0l0.62,0.085L0.172,1.108L0,0z"/>
	</g>
	<g id="g166" transform="translate(220.5993,741.7748)">
		<path id="path168" inkscape:connector-curvature="0" fill="#1B458F" d="M0,0l0.21,1.097l-0.77-0.816L0,0z"/>
	</g>
	<g id="g170" transform="translate(209.4581,747.3084)">
		<path id="path172" inkscape:connector-curvature="0" fill="#1B458F" d="M0,0l-0.202,0.012l-0.055-0.91l0.207-0.012
			c0.325-0.02,0.512,0.138,0.53,0.438C0.497-0.188,0.325-0.019,0,0"/>
	</g>
	<g id="g174" transform="translate(235.7777,741.8658)">
		<path id="path176" inkscape:connector-curvature="0" fill="#1B458F" d="M0,0l0.571,0.258L-0.15,1.112L0,0z"/>
	</g>
	<g id="g178" transform="translate(250.7885,744.2134)">
		<path id="path180" inkscape:connector-curvature="0" fill="#1B458F" d="M0,0c-0.264-0.021-0.494,0.175-0.517,0.438
			c-0.021,0.264,0.175,0.494,0.44,0.517C0.186,0.977,0.417,0.78,0.438,0.517C0.461,0.253,0.263,0.022,0,0 M-0.75,2.708
			C-0.916,2.87-1.115,3-1.38,3.029c-0.466,0.05-0.806-0.265-0.868-0.843C-2.312,1.597-2.02,1.224-1.55,1.173
			c0.236-0.025,0.455,0.034,0.71,0.145l0.04-0.827c-0.289-0.107-0.588-0.164-0.985-0.121c-1.034,0.112-1.58,0.84-1.464,1.918
			c0.113,1.048,0.841,1.679,1.89,1.565c0.343-0.037,0.616-0.136,0.841-0.284L-0.75,2.708z M-3.921,0.479
			c-0.263-0.021-0.494,0.175-0.516,0.438c-0.021,0.264,0.173,0.495,0.439,0.517c0.263,0.021,0.494-0.175,0.516-0.439
			C-3.461,0.732-3.656,0.5-3.921,0.479 M-5.332,0.263l-0.979-0.205L-7.01,3.385l2.103,0.441l0.171-0.809L-5.86,2.781l0.112-0.536
			l0.809,0.169l0.304-0.776L-5.579,1.44L-5.332,0.263z M-9.702-1.268l-1.284,3.148l2.076,0.847l0.3-0.734l-1.164-0.474l0.184-0.452
			l0.881,0.358l0.41-0.678l-0.995-0.405l0.206-0.502l1.204,0.491l0.3-0.734L-9.702-1.268z M-10.913-1.919
			c-0.934-0.456-1.784-0.129-2.259,0.846c-0.463,0.948-0.181,1.871,0.768,2.33c0.31,0.152,0.593,0.212,0.864,0.207l0.261-0.852
			c-0.226,0.048-0.464,0.052-0.702-0.064c-0.422-0.206-0.543-0.655-0.289-1.177c0.259-0.532,0.705-0.692,1.13-0.485
			c0.212,0.103,0.367,0.271,0.523,0.502l0.473-0.68C-10.331-1.538-10.553-1.745-10.913-1.919 M-13.49-3.164l-0.429,0.472
			l-0.975-0.441l0.082-0.589l-0.889-0.402l-0.336,3.595l1.027,0.465l2.384-2.536L-13.49-3.164z M-18.118-4.883l-1.004,3.248
			l0.965,0.299l0.752-2.429l0.918,0.284l0.384-0.779L-18.118-4.883z M-19.81-5.274L-20.087-4.7l-1.06-0.146l-0.088-0.589
			l-0.968-0.133l0.7,3.545l1.118,0.153l1.565-3.11L-19.81-5.274z M-23.808-4.497l-0.159,0.005L-24-5.512l-1.004,0.034l0.114,3.4
			l1.177-0.039c0.877-0.03,1.402-0.427,1.375-1.212C-22.365-4.131-22.951-4.526-23.808-4.497 M-26.906-5.144l-2.005,0.649
			l1.044,3.233l0.961-0.31l-0.782-2.419l0.916-0.295L-26.906-5.144z M-29.444-4.171l-0.982,0.318l0.096,0.63l-0.955,0.48
			l-0.407-0.436l-0.872,0.439l2.582,2.523l1.009-0.507L-29.444-4.171z M-34.047-1.918l1.189,2.27l-0.809,0.423l0.391,0.741
			l2.423-1.269l-0.267-0.806l-0.843,0.441l-1.189-2.27L-34.047-1.918z M-35.089,0.97c0.61-0.539,0.798-0.915,0.579-1.427
			c-0.316-0.738-0.975-0.788-1.609-0.516c-0.459,0.196-0.789,0.45-1.08,0.756l0.46,0.698c0.289-0.337,0.624-0.62,0.936-0.755
			c0.181-0.078,0.325-0.064,0.384,0.071c0.055,0.131,0.007,0.227-0.356,0.56c-0.542,0.498-0.742,0.832-0.507,1.38
			c0.275,0.642,0.915,0.748,1.531,0.484c0.453-0.193,0.695-0.389,0.942-0.666l-0.459-0.692c-0.25,0.316-0.533,0.544-0.769,0.645
			c-0.185,0.079-0.303,0.055-0.349-0.054C-35.437,1.334-35.392,1.24-35.089,0.97 M-38.16-0.161l-0.974,0.265l0.313,1.15l-0.57,2.34
			l1.071-0.152l0.277-1.428l0.937,1.063l1.013-0.277l-1.748-1.791L-38.16-0.161z M-40.907,0.363l-0.559,1.125l-0.152,0.009
			l-0.063-1.052l-0.999,0.06l0.204,3.394l1.299-0.078c0.876-0.053,1.354-0.472,1.311-1.2c-0.028-0.458-0.254-0.77-0.65-0.944
			l0.683-1.216L-40.907,0.363z M-44.047,0.26c-1.022-0.195-1.756,0.342-1.959,1.408c-0.198,1.036,0.314,1.852,1.352,2.05
			c0.338,0.064,0.627,0.049,0.888-0.027l0.03-0.893c-0.206,0.105-0.435,0.173-0.698,0.123c-0.459-0.089-0.694-0.49-0.586-1.061
			c0.111-0.58,0.5-0.854,0.966-0.765c0.232,0.044,0.425,0.166,0.636,0.347l0.28-0.78C-43.385,0.475-43.655,0.334-44.047,0.26
			 M-11.357,3.273c-3.851-2.459-6.985-3.924-10.926-3.941c-5.328-0.02-9.457,3.51-15.08,5.399C-42.988,6.62-49.46,3.467-49.46,3.467
			s2.066-2.018,2.222-5.667c0,0,3.754,2.448,9.379,0.56c5.624-1.889,8.538-5.657,15.774-5.221c6.302,0.378,9.886,3.296,13.934,4.819
			C-6.895-1.57-2.265,0.583,1.74-2.456C2.105,1.1,4.015,3.306,4.015,3.306C-0.778,6.731-8.528,5.079-11.357,3.273"/>
	</g>
	<g id="g182" transform="translate(207.1212,740.8084)">
		<path id="path184" inkscape:connector-curvature="0" fill="#C4122E" d="M0,0c0.284,0,0.56-0.033,0.788-0.08
			c0.11-0.023,0.227-0.055,0.344-0.086C1.382-0.233,1.724-0.328,1.83-0.25c0.039,0.029,0.065,0.114,0.071,0.232
			c0.005,0.114-0.03,0.197-0.115,0.269C1.399,0.584,0.236,0.563-0.76,0.442l0.013-0.532C-0.512-0.025-0.253,0,0,0 M41.041,0.333
			c-0.458,0-0.845-0.059-1.044-0.215c-0.088-0.068-0.128-0.15-0.128-0.264c0.001-0.119,0.023-0.205,0.061-0.235
			c0.102-0.082,0.448-0.007,0.7,0.05c0.118,0.025,0.236,0.051,0.349,0.069c0.433,0.07,1.04,0.077,1.532-0.083l0.037,0.531
			C42.05,0.272,41.508,0.333,41.041,0.333 M42.982-1.21l-0.377,0.243c-0.309,0.199-0.958,0.275-1.543,0.181
			c-0.102-0.016-0.209-0.041-0.317-0.064c-0.418-0.091-0.848-0.186-1.148,0.054c-0.171,0.138-0.257,0.356-0.257,0.65
			c-0.001,0.277,0.113,0.513,0.331,0.682c0.907,0.708,3.568,0.059,3.869-0.017c0.263-0.073,1.078-0.222,1.427,0.021
			c0.098,0.067,0.148,0.162,0.162,0.299c0.278,3.057,1.662,5.144,2.168,5.815c-4.615,3.078-11.964,1.555-14.85-0.203
			c-3.286-2.004-6.849-3.96-11.062-3.978h-0.048c-3.427,0-6.36,1.438-9.465,2.957C10.093,6.302,8.253,7.202,6.22,7.885
			C1.466,9.48-3.982,7.372-5.352,6.78c0.574-0.685,1.92-2.592,2.047-5.563C-3.3,1.08-3.252,0.983-3.158,0.911
			C-2.818,0.652-2,0.762-1.739,0.821c0.308,0.063,2.996,0.584,3.87-0.167c0.209-0.179,0.312-0.42,0.3-0.697
			C2.416-0.336,2.319-0.55,2.143-0.678c-0.312-0.228-0.738-0.112-1.151,0C0.886-0.65,0.78-0.621,0.68-0.6
			c-0.58,0.122-1.232,0.077-1.551-0.106l-0.387-0.225l-0.03,1.296c-0.12-0.02-0.234-0.041-0.34-0.063
			c-0.121-0.027-1.255-0.269-1.851,0.186C-3.7,0.657-3.823,0.9-3.835,1.194c-0.151,3.502-2.124,5.468-2.144,5.488l-0.27,0.264
			L-5.91,7.11c0.268,0.132,6.635,3.179,12.299,1.279c2.066-0.695,3.921-1.604,5.716-2.482c3.048-1.493,5.928-2.903,9.233-2.903
			h0.045c3.678,0.015,6.856,1.504,10.789,3.9c3.04,1.854,10.876,3.446,15.664,0.023l0.236-0.17l-0.191-0.22
			c-0.017-0.023-1.906-2.245-2.223-5.748c-0.028-0.292-0.161-0.529-0.39-0.686c-0.617-0.427-1.739-0.132-1.865-0.097
			c-0.102,0.025-0.213,0.052-0.33,0.077L42.982-1.21z"/>
	</g>
	<g id="g186" transform="translate(227.5642,737.0021)">
		<path id="path188" inkscape:connector-curvature="0" fill="#C4122E" d="M0,0c-4.186,0-6.875,1.441-9.709,2.962
			c-1.537,0.824-3.128,1.676-5.008,2.308c-5.424,1.821-9.114-0.506-9.15-0.53l-0.289,0.444c0.157,0.104,3.929,2.496,9.608,0.588
			c1.924-0.646,3.534-1.509,5.091-2.343C-6.44,1.811-3.59,0.283,1.126,0.565c4.388,0.262,7.388,1.747,10.289,3.181
			c1.213,0.601,2.36,1.168,3.567,1.62c0.08,0.031,0.177,0.07,0.286,0.112c1.644,0.648,6.009,2.371,9.872-0.573l-0.321-0.421
			c-3.627,2.762-7.79,1.118-9.356,0.5c-0.113-0.043-0.211-0.083-0.294-0.115c-1.182-0.443-2.318-1.005-3.519-1.598
			C8.839,1.88,5.653,0.305,1.157,0.035C0.759,0.011,0.373,0,0,0"/>
	</g>
	<g id="g190" transform="translate(209.0032,740.9769)">
		<path id="path192" inkscape:connector-curvature="0" fill="#C4122E" d="M0,0c-1.272,1.04-1.765,2.048-1.786,2.093l0.477,0.23
			c0.006-0.011,0.47-0.952,1.645-1.913L0,0z"/>
	</g>
	<g id="g194" transform="translate(247.0532,740.8667)">
		<path id="path196" inkscape:connector-curvature="0" fill="#C4122E" d="M0,0l-0.313,0.43c1.37,0.995,1.532,2.055,1.534,2.066
			l0.526-0.074C1.739,2.369,1.549,1.126,0,0"/>
	</g>
	<g id="g198" transform="translate(234.0518,768.9382)">
		<path id="path200" inkscape:connector-curvature="0" fill="#27409B" d="M0,0c0.041-0.04,0.078-0.077,0.112-0.108
			C0.112-0.108,0.095-0.062,0,0"/>
	</g>
	<g id="g202" transform="translate(231.2168,789.5673)">
		<path id="path204" inkscape:connector-curvature="0" fill="#27409B" d="M0,0c-0.082,0.393-0.168,0.882-0.233,1.427
			C-0.182,0.976-0.108,0.505,0,0"/>
	</g>
	<g id="g206">
		<g>
			<defs>
				<rect id="SVGID_1_" x="230.955" y="789.389" width="0.291" height="1.783"/>
			</defs>
			<clipPath id="SVGID_2_">
				<use xlink:href="#SVGID_1_"  overflow="visible"/>
			</clipPath>
			<g id="g208" clip-path="url(#SVGID_2_)">
				<g id="g214" transform="translate(231.2168,789.5673)">
					<path id="path216" inkscape:connector-curvature="0" fill="#FFFFFF" d="M0,0c-0.082,0.393-0.168,0.882-0.233,1.427
						C-0.182,0.976-0.108,0.505,0,0"/>
				</g>
			</g>
		</g>
	</g>
	<g id="g218">
		<g>
			<g id="g220">
				<g id="g226" transform="translate(235.0491,775.171)">
					<path id="path228" inkscape:connector-curvature="0" fill="#F4F4F4" d="M0,0C0.001,0.086,0,0,0,0"/>
				</g>
				<g id="g230" transform="translate(240.2915,765.3142)">
					<path id="path232" inkscape:connector-curvature="0" fill="#1B458F" d="M0,0c-0.143-0.18-0.371-0.34-0.614-0.446
						c-0.268-0.118-0.555-0.172-0.771-0.118c0.005,0.002,0.01,0.006,0.016,0.009c0.023,0.011,0.044,0.022,0.064,0.034
						c0.016,0.009,0.034,0.017,0.048,0.026c0.544,0.338,0.25,0.972-0.315,1.62l-0.01,0.002l-1.294,1.125l-0.07,0.062l-0.02,0.016
						l0.012,0.004l0.04,0.013l0.01,0.002l0.048,0.016l0.195-0.109L-2,1.883l0.049-0.026l0.291-0.165l0.317-0.179
						c0.001,0,0.002,0.001,0.003,0.001c0.002,0.001,0.004,0.001,0.007,0.002c0.297,0.069,0.631,0.152,0.681,0.166
						c0.222,0.058,0.347,0.121,0.415,0.173C-0.231,1.809,0.328,0.417,0,0 M-1.453,0.276l-0.468,0.381L-2.257,0.93l-0.084,0.259
						l-0.021,0.068l-0.116,0.354l-0.002,0.011c0.377-0.223,0.675-0.625,0.87-0.946c0.041-0.069,0.25-0.475,0.25-0.475L-1.453,0.276z
						 M-3.891,3.475L-4.49,4.553l-1.53,0.771l1.25-1.45C-5.428,4.25-6.55,4.847-7.766,5.073c0,0,1.034-0.966,1.527-1.449
						c0.094-0.061,0.111-0.109,0.111-0.109c-0.033,0.032-0.071,0.07-0.111,0.109c-0.146,0.094-0.476,0.22-1.232,0.263
						c-0.701,0.07-1.532,0.255-2.287,0.68c0,0,0.15-0.221,0.459-0.487c0.004-0.005,0.009-0.007,0.013-0.01
						c0.001-0.001,0.002-0.003,0.004-0.004C-8.993,3.82-8.568,3.54-7.995,3.354c0.044-0.015,0.618-0.252,0.664-0.265
						C-7.744,2.924-8.09,2.727-8.379,2.503c-0.559-0.431-0.906-0.95-1.113-1.478c-0.357-0.912-0.684-2.562-0.432-3.502
						c-0.791,1.064-1.491,2.434-1.102,3.987c-1.206-0.679-1.983-0.457-2.82-0.334c-0.386-0.52-0.895-1.769-0.961-2.84
						c-0.07,0.113-0.137,0.236-0.198,0.364c-0.312,0.665-0.471,1.425-0.51,2.155c-0.019,0.291-0.017,0.572,0.006,0.829v0.002
						l2.756,1.956l-4.009,0.336c0.001,0.002,0.002,0.002,0.002,0.002c0.066,0.049,0.134,0.097,0.202,0.146
						c1.543,1.086,3.447,1.835,5.358,1.75c0.148-0.005,0.296-0.017,0.444-0.034c-1.231,0.689-3.392,0.655-4.673,0.255
						c-1.739-0.543-2.429-0.576-4.29-0.246c1.954,0.395,1.883,0.448,3.042,0.996c0.952,0.533,2.76,1.517,5.04,1.097
						c-0.559,0.245-1.036,0.475-1.715,0.638c-0.663,0.152-1.745,0.3-2.901,0.052c0,0,0.787,0.842,2.258,1.049
						c-2.007,1.81-7.938,4.65-7.938,4.65c8.42-1.988,11.999-5.94,12.534-6.579c0.036-0.028,0.07-0.056,0.104-0.083
						c-0.317,0.722-2.184,5.076-7.302,8.263c-0.709,0.442-1.492,0.755-2.215,1.173c-1.155,0.672-2.223,1.416-3.194,2.231
						l0.005-0.016c-9.522,7.562-5.978,17.968-5.978,17.968c-0.308-2.414,0.102-4.778,0.8-6.883c0.445-1.336,1.006-2.565,1.575-3.635
						c0.641-1.202,1.292-2.202,1.802-2.922c1.185-1.448,2.592-2.686,4.222-3.58c0,0-7.186,4.894-3.104,15.327
						c-0.159-0.446-2.985-8.807,7.633-16.089c0.205-0.138,0.354-0.133,0.415-0.282c1.413-3.401,6.853-8.816,7.867-11.421
						C-6.813,8.337-6.858,8.87-6.904,9.402c0.609-0.655,1.086-1.466,1.336-2.325c0.046,0.526,0.093,1.325,0.138,1.851
						c0.88-0.483,2.184-1.492,3.259-2.653c0,0-0.012,0.013-0.029,0.031c-0.039,0.042-0.074,0.08-0.107,0.115
						c0.016-0.017,0.032-0.034,0.046-0.049c0.01-0.011,0.016-0.019,0.025-0.027C-2.221,6.329-2.21,6.317-2.2,6.306
						c0.01-0.012,0.018-0.019,0.029-0.031l-0.047,0.773l-0.023,0.359c0,0,1.627-1.998,2.179-3.545
						c0.031-0.088,0.06-0.175,0.084-0.259c-0.01-0.434-0.072-0.727-0.145-0.92C-0.185,2.52-0.432,2.25-0.486,2.21
						C-0.525,2.18-0.55,2.171-0.55,2.171c0.076,0.058,0.092,0.198,0.093,0.328c0.001,0.164-0.034,0.335-0.095,0.53
						c-0.057,0.184-0.126,0.359-0.183,0.492c-0.062,0.147-0.11,0.244-0.11,0.244c0.034-0.359,0.016-0.622-0.026-0.812
						c0-0.005-0.001-0.011-0.003-0.017c-0.082-0.358-0.247-0.452-0.291-0.471C-1.171,2.462-1.176,2.46-1.176,2.46
						c-0.012,0.058-0.025,0.113-0.039,0.163c-0.045,0.13-0.096,0.259-0.146,0.384c-0.184,0.46-0.856,1.731-1.077,2.174
						C-2.627,4.911-2.373,4.28-2.373,4.28c0.086-0.167,0.286-0.592,0.286-0.592c-0.186-0.424,0.089-0.893,0.463-1.072
						C-1.73,2.569-2.079,2.619-2.324,2.761c0.091-0.185,0.419-0.626,0.583-0.752C-2.213,2.126-3.297,2.983-3.891,3.475 M0.114,5.262
						C0.1,5.306,0.092,5.331,0.092,5.331s0.004-0.018,0.011-0.045C0.067,5.36,0.031,5.434-0.007,5.51
						c-0.086,0.189-0.19,0.364-0.301,0.534c-0.952,1.566-2.335,2.865-2.335,2.865l0.022-0.381c0.001,0,0.005-0.002,0.005-0.002
						l0.043-0.594c0,0-4.461,2.591-6.364,4.979c-1.475,1.852-3.173,3.871-4.179,6.351l-0.372,0.594
						c-1.285,1.527-2.625,1.239-5.56,4.634c-1.006,1.166-2.116,3.457-2.469,4.973c-0.745,3.202-0.612,6.847,0.18,10.027
						c0,0,0.373,1.086-1.659-2.143l0.001,0.002c-1.017-1.615-1.729-3.454-2.069-5.33c-0.173-0.959-0.252-1.925-0.22-2.877
						c-0.689,1.373-1.241,2.867-1.619,4.409c-0.499,2.03-0.694,4.142-0.491,6.162c0,0-0.357,0.348-1.59-2.947
						c-1.234-3.297-1.429-6.11-0.862-9.261c-2.267,1.921-2.78,5.44-3.534,8.225c0,0-0.001,0-0.001-0.002h-0.001
						c-0.002,0-0.002-0.002-0.005-0.002h-0.001c-0.006-0.006-0.016-0.02-0.028-0.044c-0.029-0.054-0.068-0.176-0.093-0.434
						c0-0.201-0.026-0.401-0.026-0.601c-0.137-1.395-0.266-5.184,1.678-9.144c0.042-0.091,0.08-0.188,0.123-0.277
						c0.277-0.584,0.603-1.109,0.9-1.63c0.492-0.868,0.875-1.08,1.427-1.844c-0.058,0.009-3.394,0.709-4.615,0.891
						c0.739-0.484,2.091-1.712,3.627-3.152c0,0,4.603-0.37,8.216-3.043c0,0-3.128,1.53-6.887,1.791
						c0.221-0.208,0.441-0.416,0.664-0.625c1.07-1.007,2.145-2.009,3.102-2.854l-0.014,0.002l-2.715,0.269l3.903-3.157l0.701-0.024
						c0,0,1.311,0.046,2.609-0.247c1.384-0.314,2.119-0.763,2.119-0.763c-0.773,0.262-2.059,0.302-2.835,0.252
						c-0.552-0.035-0.913-0.19-1.316-0.246l0.229-0.183l2.462-1.98l2.193-0.058C-19.813,7.473-21.63,7.019-23.96,7.8
						c-1.238,0.415-2.438,1.065-3.457,1.885c0.412-1.011,1.369-1.88,2.113-2.646c-2.455,0.189-4.434,0.757-6.677,1.784
						c0.859-1.331,1.541-2.236,2.22-2.945c0.679-0.708,1.616-1.475,2.085-1.756c0.298-0.179,1.67-0.172,2.577-0.084
						c0.17,0.016,0.327,0.034,0.453,0.056c0.208,0.034,0.468,0.09,0.745,0.154c0.933,0.215,2.055,0.529,1.994,0.488
						c-0.405-0.262-0.847-0.521-1.313-0.759c-0.275-0.141-0.558-0.277-0.847-0.401c-1.305-0.559-2.727-0.908-4.023-0.744
						c1.449-0.518,2.966-0.897,4.502-1.042c0.528-0.051,0.72-0.043,1.18,0.171c0.686,0.317,1.252,0.578,1.797,0.838
						c0.276,0.133,0.55,0.267,0.827,0.409c0.383,0.194,0.777,0.4,1.218,0.646c-0.255-0.239-0.51-0.462-0.773-0.684
						c-0.147-0.122-0.297-0.246-0.448-0.372c-0.53-0.434-1.097-0.884-1.745-1.452c1.734-0.121,2.738-0.408,5.041,0.312
						c0,0-0.474-0.354-1.133-0.736l0.683-1.34l-0.741,0.333l0.488-0.909c0,0,0.346-0.429,0.839-0.787l0.166-0.537
						c-0.38,0.113-0.869,0.52-1.111,0.681c0.385-1.546,1.304-1.243,1.57-2.18c0.178-0.633,0.848-1.767,0.469-2.369
						c-0.445-0.709-0.737-0.659-1.364-1.224c-0.727-0.652-0.167-1.468-0.017-1.728c0.15,0.763,0.72,1.26,1.042,1.357
						c0.507,0.149,1.115,0.035,1.337,0.257c0.802,0.799,2.524,1.002,3.716,0.256c-0.552,0.892-0.836,0.865-1.934,1.182
						c1.941-0.128,2.068-0.553,3.017-1.657c0.078,0.629-0.444,1.429-0.89,1.812c-0.139,0.118-1.681,0.335-3.179,0.465
						c-0.526,0.046-0.739,0.723-0.815,1.087c0.091-0.053,0.516-0.277,0.929-0.271c-0.105,0.527-0.25,1.127-0.337,1.487
						c0.148-0.067,0.299-0.161,0.631-0.172l-0.217,0.886c-0.102,0.708-0.332,1.22,0.348,2.302c0.375-0.263,0.541-0.377,0.711-0.569
						c0,0,0.141-0.676,0.296-1.037c0.03-0.068,0.698-0.639,0.722-0.708l-1.15,0.333c0,0,0.384-0.873,1.143-1.376
						c0.45-0.159,0.85-0.34,0.981-0.515c0.134-0.182,0.362-0.673,0.255-0.935c-0.086-0.212-0.697,0.694-1.983-0.386
						c0.878-0.014,1.93-0.254,2.158-0.522c0.294-0.348,0.505-0.664,0.717-0.791c0.934-0.56,0.998-0.854,0.923-1.953
						c0.578,0.446,0.416,1.609,0.33,1.89c0.766-0.919,0.598-2.166,0.364-2.655c0.573,0.319,1.27,1.588,0.612,2.591
						C-7.091-6.62-8.062-5.893-8.251-5.677C-8.738-5.12-8.86-4.494-9.099-3.859c0.169-0.01,0.381-0.078,0.551-0.077
						c-0.086,0.377-0.207,0.866-0.301,1.407C-8.857-2.479-8.866-2.429-8.874-2.38C-8.877-2.36-8.88-2.339-8.883-2.319
						c-0.012,0.08-0.024,0.161-0.035,0.244c-0.002,0.02-0.004,0.04-0.006,0.059c-0.011,0.083-0.02,0.167-0.028,0.252
						C-8.637-1.966-8.42-2.052-8.42-2.052l-0.54,1.464v0.004c0.01,0.11,0.024,0.221,0.042,0.332c0,0.006,0.002,0.015,0.003,0.021
						c0.016,0.1,0.037,0.201,0.059,0.3c0.005,0.016,0.009,0.033,0.012,0.048c0.021,0.091,0.048,0.181,0.079,0.271
						c0.007,0.022,0.012,0.043,0.02,0.065c0.038,0.107,0.081,0.216,0.13,0.32c-0.245-0.524,0.473-1.281,0.473-1.281
						c0.091,1.16,1.127,2.243,1.997,2.634c-0.048-0.323,0.12-0.646,0.12-0.646c0.257,0.548,0.782,0.762,1.158,0.848l0.704-0.283
						l0.746-0.3l0.196-0.079c0,0,0.134-0.593,0.464-0.858c0.318-0.257,0.648-0.446,1.441-0.956
						c-0.059-0.197-0.238-0.382-0.595-0.511c1.127-0.422,2.548,0.085,2.347,1.296C0.365,1.065,0.177,2.244,0.177,2.244v0.004
						l0.267,0.87l0.079,0.26l0.008,0.027l0.038,0.12C0.565,4.086,0.386,4.68,0.114,5.262"/>
				</g>
				<g id="g234" transform="translate(247.1008,796.5867)">
					<path id="path236" inkscape:connector-curvature="0" fill="#1B458F" d="M0,0l0.065-0.006c-1.813-0.11-3.609-0.635-5.105-1.585
						c1.231,2.399,3.952,4.024,6.359,4.977c0,0,0.297,0.462-2.61,0.027c-0.378-0.043-0.753-0.103-1.123-0.184
						c-0.006-0.002-0.012-0.002-0.017-0.003h0.005C-4.025,2.87-5.543,2.161-6.825,1.15c-0.723-0.572-1.374-1.237-1.92-1.988
						c-2.451-3.259-3.279-6.109-3.279-6.109s-0.354,4.206,5.021,9.758c0.592,0.989,1.257,1.932,1.991,2.793
						c0,0,0.123,0.629-2.92-1.68c-2.201-1.537-4.123-3.559-5.509-5.816c-0.498-0.892-1.564-2.893-1.873-4.217
						c0.003-0.039,0.005-0.08,0.009-0.119c0,0,0.033-0.793,0.179-1.848c0.177-1.276,0.7-3.037,0.7-3.037
						c-0.356,0.727-0.992,2.33-1.203,3.068c-0.103,0.361-0.185,0.701-0.256,1.028c-0.044,0.204-0.078,0.398-0.111,0.591
						c-0.018,0.103-0.035,0.21-0.052,0.32c-0.025,0.174-0.052,0.347-0.07,0.516c-0.068,0.616-0.094,1.199-0.103,1.785
						c-0.011,0.773,0.023,1.472,0.058,1.977c-1.397-3.203-1.529-5.67-1.532-6.658c-0.069-0.63-0.107-1.1-0.133-1.494
						c0.363-1.029,1.006-2.402,2.157-4.143c0,0-1.036,0.577-2.255,2.71c-0.049-0.47-0.135-1.005-0.321-1.838
						c1.382-2.348,2.768-4.155,4.021-5.534v2.794c0.448-0.449,0.757-0.798,0.969-1.068c0.2,0.91,0.481,2.002,0.872,3.164
						c2.436,7.25,5.324,9.459,5.324,9.459c-2.658-4.153-5.097-12.552-4.995-16.473c0.516-0.438,0.975-0.791,1.357-1.059
						c-0.205,0.31-0.379,0.662-0.423,0.937c1.183,5.602,4.873,9.259,4.873,9.259C-5.444-3.747,3.639-0.346,3.639-0.346
						C4.378,0.195,0,0,0,0"/>
				</g>
				<g id="g238" transform="translate(248.463,750.3534)">
					<path id="path240" inkscape:connector-curvature="0" fill="#D3D2D2" d="M0,0v4.142v0.397c-0.476-0.365-0.923-0.691-1.345-0.987
						V3.101V2.507V2.214h-0.688v0.87c-2.951-1.951-4.411-2.155-4.411-2.155c1.989,1.016,3.411,2.013,4.411,2.859v1.117v0.615
						c-3.626-3.115-6.882-4.719-8.086-5.255c0-0.086,0-0.352,0.001-0.721h5.346h0.871c1.241,0.205,2.568,0.305,3.9,0.248"/>
				</g>
				<g id="g242" transform="translate(242.8501,749.535)">
					<path id="path244" inkscape:connector-curvature="0" fill="#A7A5A6" d="M0,0c-0.973-0.252-1.856-0.563-2.598-0.903V0H0z"/>
				</g>
				<g id="g246" transform="translate(235.0387,745.7284)">
					<path id="path248" inkscape:connector-curvature="0" fill="#A7A5A6" d="M0,0c-0.242-0.108-0.675-0.298-0.857-0.375l0.003,0.923
						v1.891H0V0.547V0z"/>
				</g>
				<path id="path250" inkscape:connector-curvature="0" fill="#A7A5A6" d="M235.038,748.507h-0.853v2.143h0.853V748.507z"/>
				<g id="g252" transform="translate(238.0002,747.497)">
					<path id="path254" inkscape:connector-curvature="0" fill="#A7A5A6" d="M0,0v0.67h-0.762V0v-0.619
						c0.252,0.146,0.508,0.298,0.765,0.455L0,0z"/>
				</g>
				<path id="path256" inkscape:connector-curvature="0" fill="#A7A5A6" d="M238,748.507h-0.762v2.143H238V748.507z"/>
				<g id="g258" transform="translate(235.9655,746.7413)">
					<path id="path260" inkscape:connector-curvature="0" fill="#A7A5A6" d="M0,0v1.426h-0.588V0l-0.001-0.857
						C-0.393-0.763-0.197-0.663,0-0.563V0z"/>
				</g>
				<path id="path262" inkscape:connector-curvature="0" fill="#A7A5A6" d="M235.965,748.507h-0.587v2.143h0.587V748.507z"/>
				<path id="path264" inkscape:connector-curvature="0" fill="#A7A5A6" d="M236.89,748.507h-0.587v2.143h0.587V748.507z"/>
				<g id="g266" transform="translate(236.8894,746.8913)">
					<path id="path268" inkscape:connector-curvature="0" fill="#A7A5A6" d="M0,0v1.276h-0.588V0v-0.534
						C-0.392-0.43-0.196-0.323,0-0.212V0z"/>
				</g>
				<path id="path270" inkscape:connector-curvature="0" fill="#A7A5A6" d="M238.003,752.468h-3.818v-1.479h3.818V752.468z"/>
				<g id="g272" transform="translate(218.9817,747.2639)">
					<path id="path274" inkscape:connector-curvature="0" fill="#A7A5A6" d="M0,0c-0.278,0.136-0.558,0.273-0.84,0.408l-0.001,0.165
						v0.331H0V0.573V0z"/>
				</g>
				<path id="path276" inkscape:connector-curvature="0" fill="#A7A5A6" d="M218.995,748.507h-0.853v2.143h0.853V748.507z"/>
				<g id="g278" transform="translate(221.1738,746.2025)">
					<path id="path280" inkscape:connector-curvature="0" fill="#A7A5A6" d="M0,0c0.258-0.121,0.517-0.24,0.774-0.355l0.008,1.661
						v0.659H0V1.306V0z"/>
				</g>
				<path id="path282" inkscape:connector-curvature="0" fill="#A7A5A6" d="M221.956,748.507h-0.764v2.143h0.764V748.507z"/>
				<path id="path284" inkscape:connector-curvature="0" fill="#A7A5A6" d="M219.907,748.507h-0.586v2.143h0.586V748.507z"/>
				<path id="path286" inkscape:connector-curvature="0" fill="#A7A5A6" d="M220.835,748.507h-0.577v2.143h0.577V748.507z"/>
				<path id="path288" inkscape:connector-curvature="0" fill="#A7A5A6" d="M221.959,752.468h-3.818v-1.479h3.818V752.468z"/>
				<g id="g290" transform="translate(220.2502,746.6448)">
					<path id="path292" inkscape:connector-curvature="0" fill="#A7A5A6" d="M0,0c0.178-0.087,0.4-0.204,0.586-0.295v0.43v1.388
						h-0.588V0.135L0,0z"/>
				</g>
				<g id="g294" transform="translate(217.215,748.1086)">
					<path id="path296" inkscape:connector-curvature="0" fill="#A7A5A6" d="M0,0c0.197-0.091,0.392-0.182,0.587-0.275v0.566v1.134
						h-0.588V0.291L0,0z"/>
				</g>
				<g id="g298" transform="translate(219.3207,747.0981)">
					<path id="path300" inkscape:connector-curvature="0" fill="#A7A5A6" d="M0,0l0.098-0.048c0.162-0.08,0.325-0.159,0.488-0.238
						v0.447v0.908H0V0.161V0z"/>
				</g>
				<g id="g302" transform="translate(207.8452,751.9562)">
					<path id="path304" inkscape:connector-curvature="0" fill="#D3D2D2" d="M0,0v2.937c0.475-0.366,0.922-0.691,1.344-0.987V0.611
						h0.688V1.48c2.951-1.95,4.411-2.153,4.411-2.153c-1.989,1.017-3.41,2.013-4.411,2.86V3.41v0.508
						C5.506,0.934,8.64-0.664,9.956-1.264V-2.06c0,0-5.286-0.026-5.418,0.002C2.998-1.728,1.443-1.706,0-1.848"/>
				</g>
				<g id="g306" transform="translate(215.9457,748.6572)">
					<path id="path308" inkscape:connector-curvature="0" fill="#A7A5A6" d="M0,0c-0.74,0.306-1.735,0.709-2.289,0.893H0V0z"/>
				</g>
				<g id="g310" transform="translate(216.287,748.7076)">
					<path id="path312" inkscape:connector-curvature="0" fill="#A7A5A6" d="M0,0v0.828h0.588V0L0.586-0.442
						c-0.058,0.027-0.28,0.121-0.588,0.25L0,0z"/>
				</g>
				<g id="g314" transform="translate(238.9873,748.1673)">
					<path id="path316" inkscape:connector-curvature="0" fill="#A7A5A6" d="M0,0v1.368h-0.644V0v-0.628
						c0.212,0.132,0.427,0.267,0.643,0.404L0,0z"/>
				</g>
				<g id="g318" transform="translate(239.9146,748.6336)">
					<path id="path320" inkscape:connector-curvature="0" fill="#A7A5A6" d="M0,0v0.901h-0.587V0l0.005-0.475
						C-0.402-0.369-0.207-0.264,0-0.162V0z"/>
				</g>
				<g id="g322" transform="translate(233.8511,750.9886)">
					<path id="path324" inkscape:connector-curvature="0" fill="#A7A5A6" d="M0,0v1.048c0,3.191-2.586,5.779-5.778,5.779
						c-3.191,0-5.778-2.588-5.778-5.779V0l0.984,0.002c-0.063,0.309-0.096,0.632-0.096,0.962c0,2.682,2.174,4.855,4.855,4.855
						c2.682,0,4.856-2.173,4.856-4.855c0-0.33-0.033-0.654-0.095-0.966L0,0z"/>
				</g>
				<g id="g326" transform="translate(209.1897,755.1962)">
					<path id="path328" inkscape:connector-curvature="0" fill="#D3D2D2" d="M0,0v1.298l-1.345,1.359v-1.2V1.133
						C-1.16,0.847-0.754,0.29,0-0.435V0z"/>
				</g>
				<g id="g330" transform="translate(248.463,756.3292)">
					<path id="path332" inkscape:connector-curvature="0" fill="#D3D2D2" d="M0,0c-0.184-0.286-0.591-0.843-1.345-1.568v0.67v1.064
						L0,1.524V0.481V0z"/>
				</g>
				<g id="g334" transform="translate(227.1024,746.3987)">
					<path id="path336" inkscape:connector-curvature="0" fill="#A7A5A6" d="M0,0c-0.156,0-0.261-0.102-0.261-0.279
						c0-0.169,0.084-0.262,0.261-0.262c0.108,0,0.205,0.034,0.298,0.105v0.009C0.298-0.151,0.177,0,0,0"/>
				</g>
				<g id="g338" transform="translate(228.5635,746.3916)">
					<path id="path340" inkscape:connector-curvature="0" fill="#A7A5A6" d="M0,0c-0.202,0-0.313-0.194-0.313-0.547
						c0-0.354,0.111-0.549,0.313-0.549c0.201,0,0.309,0.195,0.309,0.549C0.309-0.194,0.201,0,0,0"/>
				</g>
				<g id="g342" transform="translate(229.9029,745.0687)">
					<path id="path344" inkscape:connector-curvature="0" fill="#A7A5A6" d="M0,0c-0.186,0-0.332,0.044-0.451,0.108l0.042,0.247
						c0.113-0.066,0.252-0.116,0.411-0.116c0.173,0,0.302,0.087,0.302,0.261c0,0.148-0.098,0.239-0.273,0.239
						c-0.1,0-0.171-0.02-0.233-0.045l-0.189,0.042l0.053,0.786h0.833l0.038-0.239h-0.648l-0.027-0.348
						c0.056,0.016,0.126,0.03,0.225,0.03c0.297,0,0.491-0.17,0.491-0.452C0.574,0.181,0.331,0,0,0 M-1.339,0
						c-0.358,0-0.595,0.277-0.595,0.775c0,0.496,0.238,0.776,0.595,0.776c0.355,0,0.594-0.28,0.594-0.776
						C-0.745,0.277-0.984,0-1.339,0 M-3.096-0.002l-0.037,0.237c0.298,0.059,0.53,0.191,0.609,0.448
						c-0.106-0.068-0.223-0.11-0.359-0.11c-0.269,0-0.448,0.161-0.448,0.463c0,0.31,0.228,0.516,0.533,0.516
						c0.327,0,0.557-0.219,0.557-0.633C-2.241,0.394-2.598,0.096-3.096-0.002 M-3.69,0.029h-0.282v1.219l-0.305-0.116l-0.031,0.223
						l0.368,0.17h0.25V0.029z M2.812,5.572C2.239,3.527,0.363,2.028-1.864,2.028S-5.97,3.529-6.541,5.575l-1.067,0.006V1.589
						L-7.61,0.628c2.005-0.872,4.012-1.511,6.194-1.511h0.043C0.532-0.876,2.245-0.51,3.94,0.145l0.008,5.438L2.812,5.572z"/>
				</g>
				<g id="g346" transform="translate(206.5298,758.4846)">
					<path id="path348" inkscape:connector-curvature="0" fill="#A7A5A6" d="M0,0c0.202-0.038,0.396-0.087,0.579-0.143v-2.594
						C0.395-2.68,0.202-2.632,0-2.594V0z"/>
				</g>
				<g id="g350" transform="translate(206.1941,755.9425)">
					<path id="path352" inkscape:connector-curvature="0" fill="#A7A5A6" d="M0,0c-0.187,0.023-0.382,0.039-0.579,0.044l0.001,2.594
						c0.094-0.003,0.188-0.007,0.282-0.014c0.1-0.008,0.199-0.018,0.296-0.03V0z"/>
				</g>
				<g id="g354" transform="translate(204.699,755.9425)">
					<path id="path356" inkscape:connector-curvature="0" fill="#A7A5A6" d="M0,0c0.188,0.023,0.382,0.039,0.58,0.044v2.594
						C0.382,2.633,0.188,2.618,0,2.594V0z"/>
				</g>
				<g id="g358" transform="translate(203.7857,755.7463)">
					<path id="path360" inkscape:connector-curvature="0" fill="#A7A5A6" d="M0,0c0.184,0.059,0.377,0.106,0.578,0.145v2.594
						C0.376,2.7,0.184,2.651,0,2.595V0z"/>
				</g>
				<g id="g362" transform="translate(203.2621,760.592)">
					<path id="path364" inkscape:connector-curvature="0" fill="#A7A5A6" d="M0,0c0.125,0.057,0.256,0.11,0.394,0.157v-0.312L0,0z"
						/>
				</g>
				<g id="g366" transform="translate(205.2787,759.6818)">
					<path id="path368" inkscape:connector-curvature="0" fill="#A7A5A6" d="M0,0c-0.198-0.006-0.391-0.02-0.58-0.045v1.35
						C-0.392,1.329-0.198,1.344,0,1.351V0z"/>
				</g>
				<g id="g370" transform="translate(206.1941,760.9877)">
					<path id="path372" inkscape:connector-curvature="0" fill="#A7A5A6" d="M0,0c-0.187,0.023-0.382,0.039-0.579,0.045v-1.35
						C-0.382-1.311-0.188-1.325,0-1.35V0z"/>
				</g>
				<g id="g374" transform="translate(206.5298,760.9357)">
					<path id="path376" inkscape:connector-curvature="0" fill="#A7A5A6" d="M0,0c0.202-0.038,0.394-0.087,0.579-0.143v-1.349
						C0.396-1.436,0.202-1.387,0-1.351V0z"/>
				</g>
				<g id="g378" transform="translate(204.3633,759.5853)">
					<path id="path380" inkscape:connector-curvature="0" fill="#A7A5A6" d="M0,0c-0.202-0.037-0.395-0.086-0.578-0.141v1.348
						C-0.394,1.263-0.201,1.312,0,1.351V0z"/>
				</g>
				<g id="g382" transform="translate(207.2386,760.7491)">
					<path id="path384" inkscape:connector-curvature="0" fill="#A7A5A6" d="M0,0c0.14-0.048,0.273-0.101,0.399-0.16L0-0.313V0z"/>
				</g>
				<g id="g386" transform="translate(203.2621,758.1408)">
					<path id="path388" inkscape:connector-curvature="0" fill="#A7A5A6" d="M0,0c0.125,0.059,0.256,0.11,0.394,0.157v-0.312L0,0z"
						/>
				</g>
				<g id="g390" transform="translate(207.2386,758.2979)">
					<path id="path392" inkscape:connector-curvature="0" fill="#A7A5A6" d="M0,0C0.14-0.048,0.273-0.101,0.399-0.16L0-0.313V0z"/>
				</g>
				<g id="g394" transform="translate(207.6377,761.467)">
					<path id="path396" inkscape:connector-curvature="0" fill="#A7A5A6" d="M0,0c-0.601,0.278-1.363,0.444-2.19,0.444
						c-0.827,0-1.585-0.166-2.186-0.442v-0.563C-3.775-0.284-3.016-0.12-2.19-0.12c0.827,0,1.589-0.166,2.19-0.443V0z"/>
				</g>
				<g id="g398" transform="translate(207.6377,758.995)">
					<path id="path400" inkscape:connector-curvature="0" fill="#A7A5A6" d="M0,0c-0.601,0.277-1.363,0.444-2.19,0.444
						c-0.827,0-1.585-0.165-2.186-0.442v-0.562c0.601,0.276,1.359,0.441,2.186,0.441c0.827,0,1.589-0.166,2.19-0.444V0z"/>
				</g>
				<g id="g402" transform="translate(207.6377,761.7147)">
					<path id="path404" inkscape:connector-curvature="0" fill="#A7A5A6" d="M0,0c-0.601,0.278-1.363,0.445-2.19,0.445
						c-0.827,0-1.585-0.166-2.186-0.442l1.736,1.653c0.147,0.012,0.297,0.016,0.45,0.016s0.302-0.005,0.45-0.016L0,0z"/>
				</g>
				<g id="g406" transform="translate(204.9973,763.8331)">
					<path id="path408" inkscape:connector-curvature="0" fill="#A7A5A6" d="M0,0v-0.273c0.147,0.011,0.298,0.016,0.45,0.016
						c0.153,0,0.303-0.005,0.45-0.016V0c0,0.103-0.223,0.107-0.282,0.109c-0.055,0-0.112,0.001-0.168,0.001
						c-0.057,0-0.112-0.001-0.169-0.001C0.221,0.107,0,0.109,0,0"/>
				</g>
				<g id="g410" transform="translate(207.1088,752.9337)">
					<path id="path412" inkscape:connector-curvature="0" fill="#A7A5A6" d="M0,0c-0.184,0.059-0.377,0.106-0.579,0.144v2.523
						C-0.377,2.63-0.184,2.582,0,2.525V0z"/>
				</g>
				<g id="g414" transform="translate(206.1941,753.1299)">
					<path id="path416" inkscape:connector-curvature="0" fill="#A7A5A6" d="M0,0c-0.187,0.024-0.382,0.038-0.579,0.045v2.523
						C-0.382,2.563-0.187,2.547,0,2.524V0z"/>
				</g>
				<g id="g418" transform="translate(205.2787,753.1732)">
					<path id="path420" inkscape:connector-curvature="0" fill="#A7A5A6" d="M0,0c-0.198-0.005-0.391-0.02-0.58-0.043v2.523
						C-0.392,2.506-0.198,2.519,0,2.526V0z"/>
				</g>
				<g id="g422" transform="translate(204.3633,753.0771)">
					<path id="path424" inkscape:connector-curvature="0" fill="#A7A5A6" d="M0,0c-0.202-0.038-0.395-0.086-0.578-0.143v2.525
						C-0.394,2.439-0.201,2.486,0,2.524V0z"/>
				</g>
				<g id="g426" transform="translate(251.9475,758.4846)">
					<path id="path428" inkscape:connector-curvature="0" fill="#A7A5A6" d="M0,0c0.202-0.038,0.395-0.087,0.578-0.143v-2.594
						C0.395-2.68,0.202-2.632,0-2.594V0z"/>
				</g>
				<g id="g430" transform="translate(251.6116,755.9425)">
					<path id="path432" inkscape:connector-curvature="0" fill="#A7A5A6" d="M0,0c-0.188,0.023-0.381,0.039-0.58,0.044v2.594
						c0.096-0.003,0.189-0.007,0.284-0.014c0.1-0.008,0.198-0.018,0.296-0.03V0z"/>
				</g>
				<g id="g434" transform="translate(250.1167,755.9425)">
					<path id="path436" inkscape:connector-curvature="0" fill="#A7A5A6" d="M0,0c0.188,0.023,0.381,0.039,0.58,0.044v2.594
						C0.381,2.633,0.188,2.618,0,2.594V0z"/>
				</g>
				<g id="g438" transform="translate(249.203,755.7463)">
					<path id="path440" inkscape:connector-curvature="0" fill="#A7A5A6" d="M0,0c0.184,0.059,0.377,0.106,0.577,0.145v2.594
						C0.377,2.7,0.184,2.651,0,2.595V0z"/>
				</g>
				<g id="g442" transform="translate(248.6798,760.592)">
					<path id="path444" inkscape:connector-curvature="0" fill="#A7A5A6" d="M0,0c0.125,0.057,0.256,0.11,0.394,0.157v-0.312L0,0z"
						/>
				</g>
				<g id="g446" transform="translate(250.6964,759.6818)">
					<path id="path448" inkscape:connector-curvature="0" fill="#A7A5A6" d="M0,0c-0.198-0.006-0.392-0.02-0.58-0.045v1.35
						C-0.392,1.329-0.198,1.344,0,1.351V0z"/>
				</g>
				<g id="g450" transform="translate(251.6116,760.9877)">
					<path id="path452" inkscape:connector-curvature="0" fill="#A7A5A6" d="M0,0c-0.188,0.023-0.381,0.039-0.58,0.045v-1.35
						C-0.381-1.311-0.188-1.325,0-1.35V0z"/>
				</g>
				<g id="g454" transform="translate(251.9475,760.9357)">
					<path id="path456" inkscape:connector-curvature="0" fill="#A7A5A6" d="M0,0c0.202-0.038,0.395-0.087,0.578-0.143v-1.349
						C0.395-1.436,0.202-1.387,0-1.351V0z"/>
				</g>
				<g id="g458" transform="translate(249.7807,759.5853)">
					<path id="path460" inkscape:connector-curvature="0" fill="#A7A5A6" d="M0,0c-0.201-0.037-0.395-0.086-0.578-0.141v1.348
						c0.184,0.056,0.377,0.105,0.579,0.144L0,0z"/>
				</g>
				<g id="g462" transform="translate(252.6564,760.7491)">
					<path id="path464" inkscape:connector-curvature="0" fill="#A7A5A6" d="M0,0c0.139-0.048,0.273-0.101,0.399-0.16L0-0.313V0z"/>
				</g>
				<g id="g466" transform="translate(248.6798,758.1408)">
					<path id="path468" inkscape:connector-curvature="0" fill="#A7A5A6" d="M0,0c0.125,0.059,0.256,0.11,0.394,0.157v-0.312L0,0z"
						/>
				</g>
				<g id="g470" transform="translate(252.6564,758.2979)">
					<path id="path472" inkscape:connector-curvature="0" fill="#A7A5A6" d="M0,0C0.139-0.048,0.273-0.101,0.399-0.16L0-0.313V0z"/>
				</g>
				<g id="g474" transform="translate(253.0554,761.467)">
					<path id="path476" inkscape:connector-curvature="0" fill="#A7A5A6" d="M0,0C-0.602,0.278-1.363,0.444-2.19,0.444
						c-0.826,0-1.584-0.166-2.186-0.442v-0.563C-3.775-0.284-3.016-0.12-2.19-0.12c0.827,0,1.589-0.166,2.191-0.443V0z"/>
				</g>
				<g id="g478" transform="translate(253.0554,758.995)">
					<path id="path480" inkscape:connector-curvature="0" fill="#A7A5A6" d="M0,0C-0.602,0.277-1.363,0.444-2.19,0.444
						c-0.826,0-1.584-0.165-2.186-0.442v-0.562c0.602,0.276,1.36,0.441,2.186,0.441c0.827,0,1.589-0.166,2.191-0.444V0z"/>
				</g>
				<g id="g482" transform="translate(253.0554,761.7147)">
					<path id="path484" inkscape:connector-curvature="0" fill="#A7A5A6" d="M0,0C-0.602,0.278-1.363,0.445-2.19,0.445
						c-0.826,0-1.584-0.166-2.186-0.442l1.735,1.653c0.148,0.012,0.298,0.016,0.451,0.016c0.153,0,0.302-0.005,0.45-0.016L0,0z"/>
				</g>
				<g id="g486" transform="translate(250.4148,763.8331)">
					<path id="path488" inkscape:connector-curvature="0" fill="#A7A5A6" d="M0,0v-0.273c0.148,0.011,0.297,0.016,0.45,0.016
						c0.152,0,0.302-0.005,0.45-0.016V0c0,0.103-0.224,0.107-0.282,0.109c-0.056,0-0.113,0.001-0.168,0.001
						c-0.056,0-0.113-0.001-0.17-0.001C0.221,0.107,0,0.109,0,0"/>
				</g>
				<g id="g490" transform="translate(252.5261,752.9337)">
					<path id="path492" inkscape:connector-curvature="0" fill="#A7A5A6" d="M0,0c-0.184,0.059-0.377,0.106-0.578,0.144v2.523
						C-0.377,2.63-0.184,2.582,0,2.525V0z"/>
				</g>
				<g id="g494" transform="translate(251.6116,753.1299)">
					<path id="path496" inkscape:connector-curvature="0" fill="#A7A5A6" d="M0,0c-0.188,0.024-0.381,0.038-0.58,0.045v2.523
						C-0.381,2.563-0.188,2.547,0,2.524V0z"/>
				</g>
				<g id="g498" transform="translate(250.6964,753.1732)">
					<path id="path500" inkscape:connector-curvature="0" fill="#A7A5A6" d="M0,0c-0.198-0.005-0.392-0.02-0.58-0.043v2.523
						C-0.392,2.506-0.198,2.519,0,2.526V0z"/>
				</g>
				<g id="g502" transform="translate(249.7807,753.0771)">
					<path id="path504" inkscape:connector-curvature="0" fill="#A7A5A6" d="M0,0c-0.201-0.038-0.394-0.086-0.578-0.143v2.525
						C-0.394,2.439-0.201,2.486,0,2.524V0z"/>
				</g>
				<g id="g506" transform="translate(204.3593,749.4693)">
					<path id="path508" inkscape:connector-curvature="0" fill="#A7A5A6" d="M0,0c-0.198-0.056-0.391-0.112-0.573-0.17
						c0,0.338-0.001,1.27-0.001,1.27v2.055c0,0,0.377,0.106,0.578,0.144V1.328L0,0z M0.925,0.238
						C0.723,0.191,0.526,0.142,0.335,0.092c0,0.139,0.006,1.313,0.006,1.313v1.947c0,0,0.38,0.039,0.579,0.045l0.007-1.991
						L0.925,0.238z M1.835,3.352C1.647,3.377,1.256,3.396,1.256,3.396V1.405c0,0-0.003-0.93-0.003-1.092
						c0.191,0.041,0.384,0.08,0.58,0.117L1.835,3.352z M2.75,1.489v1.666C2.566,3.214,2.171,3.3,2.171,3.3V1.489L2.166,0.49
						c0,0,0.384,0.063,0.58,0.09L2.75,1.489z M45.421,1.145V3.3c-0.2-0.038-0.577-0.144-0.577-0.144V0.917
						c0,0,0.005-0.043,0.005-0.301c0.191-0.016,0.382-0.037,0.573-0.061 M46.343,1.256l-0.006,2.141
						c-0.198-0.006-0.579-0.045-0.579-0.045V1.256c0,0-0.008-0.552-0.008-0.745c0.2-0.03,0.398-0.063,0.594-0.1 M47.254,0.202
						c-0.193,0.052-0.388,0.099-0.584,0.142c0,0.147,0.002,0.912,0.002,0.912v2.141c0,0,0.392-0.02,0.58-0.045V1.256L47.254,0.202z
						 M48.167-0.081c-0.193,0.07-0.387,0.132-0.584,0.191c0,0.152,0.005,1.247,0.005,1.247V3.3c0,0,0.395-0.086,0.579-0.144V1.357
						V-0.081z"/>
				</g>
				<g id="g510" transform="translate(226.1732,750.2943)">
					<path id="path512" inkscape:connector-curvature="0" fill="#C4122E" d="M0,0c0.781-0.427,1.53-0.627,2.02-0.717
						c0.011-0.002,0.02-0.004,0.029-0.004c0.035,0,0.069,0.011,0.096,0.034c0.036,0.028,0.057,0.07,0.059,0.114
						c0.033,0.832-0.152,1.571-0.234,1.85C1.959,1.319,1.93,1.354,1.891,1.373C0.896,1.855,0.09,2.383-0.504,2.945
						c-0.433,0.41-0.748,0.83-0.933,1.246C-1.46,4.242-1.508,4.276-1.563,4.282c-0.056,0.006-0.11-0.02-0.142-0.065
						C-2.033,3.746-2.274,3.198-2.4,2.634c-0.007-0.032-0.002-0.066,0.011-0.097C-1.897,1.452-1.093,0.598,0,0"/>
				</g>
				<g id="g514" transform="translate(225.8749,753.4811)">
					<path id="path516" inkscape:connector-curvature="0" fill="#C4122E" d="M0,0c0.029-0.027,0.066-0.042,0.107-0.042H0.12
						C0.164-0.039,0.205-0.016,0.231,0.02c1.161,1.567,2.433,2.149,3.296,2.362c0.067,0.015,0.115,0.075,0.118,0.144
						c0.002,0.069-0.041,0.131-0.107,0.152C3.1,2.821,2.643,2.893,2.178,2.893c-0.59,0-1.166-0.117-1.715-0.35
						C-0.059,2.32-0.525,2.005-0.925,1.605c-0.037-0.037-0.052-0.093-0.041-0.144C-0.901,1.2-0.693,0.663,0,0"/>
				</g>
				<g id="g518" transform="translate(226.3288,753.2783)">
					<path id="path520" inkscape:connector-curvature="0" fill="#C4122E" d="M0,0c-0.049-0.066-0.037-0.162,0.03-0.212
						C0.508-0.585,1.092-0.944,1.769-1.28c0.022-0.01,0.045-0.015,0.068-0.015c0.044,0,0.087,0.018,0.117,0.054
						C2.359-0.772,3.508,0.348,5.43,0.645c0.05,0.007,0.094,0.039,0.117,0.084c0.022,0.045,0.021,0.099-0.006,0.143
						C5.203,1.47,4.722,1.987,4.151,2.365C4.127,2.381,4.098,2.39,4.069,2.391c-0.173,0.005-0.825-0.006-1.655-0.37
						C1.503,1.622,0.689,0.942,0,0"/>
				</g>
				<g id="g522" transform="translate(232.1555,753.5414)">
					<path id="path524" inkscape:connector-curvature="0" fill="#C4122E" d="M0,0c-0.025,0.067-0.092,0.108-0.163,0.099
						c-0.341-0.042-0.676-0.113-0.996-0.214c-0.039-0.012-0.073-0.04-0.091-0.076c-0.018-0.038-0.022-0.08-0.009-0.12
						c0.113-0.348,0.309-1.06,0.344-1.896c0.022-0.529-0.024-1.036-0.137-1.502c-0.075-0.31-0.18-0.609-0.312-0.886
						c-0.032-0.067-0.012-0.148,0.047-0.191c0.028-0.021,0.059-0.03,0.092-0.03c0.038,0,0.075,0.012,0.105,0.04
						c0.477,0.439,0.843,0.97,1.088,1.576C0.383-2.172,0.394-1.034,0,0"/>
				</g>
				<g id="g526" transform="translate(228.2797,749.1976)">
					<path id="path528" inkscape:connector-curvature="0" fill="#C4122E" d="M0,0c-0.023,0.034-0.059,0.058-0.1,0.065
						c-0.48,0.088-1.217,0.277-2,0.679c-0.934,0.479-1.681,1.133-2.223,1.943C-4.362,2.745-4.435,2.77-4.501,2.749
						c-0.065-0.023-0.108-0.085-0.105-0.154c0.02-0.525,0.136-1.038,0.342-1.524c0.308-0.723,0.803-1.35,1.433-1.815
						c0.605-0.445,1.319-0.728,2.066-0.821c0.007-0.002,0.013-0.002,0.02-0.002c0.044,0,0.086,0.02,0.116,0.054
						c0.327,0.377,0.547,0.847,0.654,1.396C0.032-0.076,0.023-0.034,0,0"/>
				</g>
				<g id="g530" transform="translate(230.6088,753.1074)">
					<path id="path532" inkscape:connector-curvature="0" fill="#C4122E" d="M0,0c-0.014,0.041-0.044,0.076-0.084,0.094
						c-0.04,0.018-0.087,0.018-0.126-0.001C-1.257-0.375-1.9-1.053-2.128-1.322c-0.034-0.041-0.046-0.094-0.031-0.144
						c0.087-0.29,0.234-0.881,0.25-1.586c0.01-0.442-0.033-0.857-0.127-1.235c-0.091-0.359-0.232-0.691-0.418-0.981
						c-0.031-0.05-0.032-0.109-0.003-0.162c0.029-0.046,0.078-0.075,0.133-0.075h0.009c0.441,0.024,0.88,0.12,1.309,0.281
						c0.019,0.005,0.037,0.017,0.052,0.032c0.453,0.426,0.792,0.937,1.006,1.517c0.179,0.486,0.272,1.027,0.277,1.606
						C0.333-1.168,0.125-0.386,0,0"/>
				</g>
			</g>
		</g>
	</g>
</g>
</svg>
