<?xml version="1.0" encoding="utf-8"?>
<!-- Generator: Adobe Illustrator 19.1.0, SVG Export Plug-In . SVG Version: 6.00 Build 0)  -->
<svg version="1.1" id="Layer_1" xmlns="http://www.w3.org/2000/svg" xmlns:xlink="http://www.w3.org/1999/xlink" x="0px" y="0px"
	 viewBox="0 0 160 160" style="enable-background:new 0 0 160 160;" xml:space="preserve">
<style type="text/css">
	.st0{fill-rule:evenodd;clip-rule:evenodd;fill:#FEDF00;}
	.st1{fill-rule:evenodd;clip-rule:evenodd;fill:#0F4D93;}
	.st2{fill-rule:evenodd;clip-rule:evenodd;fill:#FFFFFF;}
	.st3{fill-rule:evenodd;clip-rule:evenodd;fill:#1B478B;}
	.st4{fill-rule:evenodd;clip-rule:evenodd;fill:#0D4E97;}
	.st5{clip-path:url(#SVGID_3_);}
</style>
<g>
	<path class="st0" d="M55.1,15.1l-0.7,0.7h0L40.8,28.2l1.5,1.5c0.1,0,5.2,5.4,5.5,9.2c0,0.3,0,0.6,0,1c0,3.9-1.5,8.2-2.7,11.4
		l-1,3.1c-0.8,2.8-1.7,7-1.7,11.6c0,3.9,0.6,8,2.4,11.9c4,8.5,11.1,12.5,16.4,14.4c1.6,0.6,3,1,4.8,1.5l5.3,1.6
		c0.9,0.3,1.6,0.6,2.4,0.9c-1.1,0.3-2.1,0.7-2.8,1.2c-1.6,1.1-1.9,2.5-1.9,3.4c0,0.9,0.3,1.8,0.8,2.6l0,0l0,0.1
		c-3.2-0.5-7.7-1.6-12.7-3.8c-5.4-2.3-10.9-6.3-13.6-8.4c0.4-0.5,0.9-1,1.5-1.7c0.7-0.7,1.1-2,1.1-3.4c0-1.2-0.3-2.3-0.8-3.2l0,0
		L45,83.1l0,0c-3.6-4.8-8.8-7.3-15.1-7.5c-7.1-0.1-7.4,4.7-7.5,6.7c-0.1,2.1-1.1,6.7-1.8,8.9c-0.4,1.1-0.6,1.4-0.8,1.6l-0.1,0.1
		L19.2,94l0,0.2c-0.2,2.1,1.1,3.5,1.8,4.4l0.2,0.2c0.6,0.7,1.6,1.4,3.1,2.3c0.6,0.4,1.3,0.5,2.1,0.4L27,102
		c0.4,0.3,9.6,8.2,19.9,12.9c10.8,5,17.7,7.2,30,7.2h2c0,0,0-6,0.1-7.1c0.2,0,0.3,0,0.5,0H80c0.2,0,0.4,0,0.5,0
		c0,1.2,0.1,7.1,0.1,7.1l2,0c12.3,0,19.2-2.2,30-7.2c10.2-4.7,19.5-12.6,19.9-12.9l0.7-0.6c0.7,0.1,1.5-0.1,2.1-0.4
		c1.5-0.9,2.5-1.6,3.1-2.3l0.1-0.2c0.7-0.8,1.9-2.1,1.9-3.9c0-0.2,0-0.3,0-0.5c0-0.2,0-0.2-0.6-1.2l0-0.1l-0.1-0.1
		c-0.2-0.2-0.4-0.5-0.8-1.6c-0.7-2.2-1.7-6.8-1.8-8.9c-0.1-2-0.4-6.8-7.5-6.7c-6.3,0.1-11.5,2.7-15.1,7.4l0,0l-0.1,0.1l0,0.1
		c-0.5,0.9-0.8,2-0.8,3.2c0,1.4,0.4,2.7,1.1,3.4c0.6,0.7,1.1,1.2,1.5,1.7c-2.7,2.1-8.2,6-13.6,8.4c-5.1,2.2-9.6,3.3-12.7,3.8l0-0.1
		l0,0c0.5-0.8,0.8-1.8,0.8-2.6c0-1-0.3-2.4-1.9-3.4c-0.8-0.5-1.9-1-3.2-1.3c0.7-0.3,1.4-0.5,2.1-0.8l5.3-1.6
		c1.8-0.5,3.1-0.9,4.8-1.5c5.3-1.9,12.4-5.9,16.4-14.4c4-8.5,2.2-18.4,0.8-23.4l-1-3.1c-1.3-3.5-3-8.3-2.7-12.4
		c0.3-3.9,5.4-9.2,5.5-9.2l1.5-1.5l-14.9-13.6l-1.6,1.4c-2.4,2-5.6,4.7-10.5,5.2c-4.9,0.5-8.7-0.7-10.2-2.1l-1.3-1.2L78,19
		c-1.5,1.4-5.3,2.6-10.2,2.1c-4.9-0.5-8.1-3.2-10.5-5.2l-1.6-1.4L55.1,15.1L55.1,15.1z"/>
	<path class="st1" d="M131.6,97.4c-0.5,0.1-1.1,0.3-1.7,0.6c0.7,1.5,1.2,2.5,1.2,2.5s-9.3,7.9-19.4,12.6c-10.1,4.7-16.8,7-29.1,7
		c0-1,0-6.5,0-6.5S82.3,113,80,113h-0.6c-2.2,0-2.5,0.7-2.5,0.7s0,5.5,0,6.5c-12.3,0-19-2.3-29.1-7c-10.1-4.7-19.4-12.6-19.4-12.6
		s0.5-1.1,1.2-2.6c-0.6-0.2-1.1-0.4-1.7-0.5c-0.1,0.8-0.3,1.3-0.6,1.6c-0.6,0.5-1.5,0.5-2,0.2c-0.5-0.3-1.9-1.1-2.6-1.9
		c-0.6-0.7-1.7-1.7-1.5-3c0-0.3,0.7-0.5,1.4-2.6c0.7-2.2,1.7-7,1.9-9.4c0.1-2.4,0.5-4.9,5.5-4.8c5,0.1,10,1.9,13.5,6.6
		c0.8,1.4,0.6,3.6,0,4.2c-0.6,0.6-2.4,2.6-2.8,3.4c3.9,3.2,10,7.5,15.6,9.9c5.8,2.5,11.4,3.8,15.6,4.3c0-0.9,0.1-2.6-0.4-3.4
		c-0.5-0.8-1-2.3,0.6-3.4c1.5-1.1,4.5-1.6,7.5-1.6H80c3,0,6,0.5,7.5,1.6c1.5,1.1,1.1,2.6,0.5,3.4c-0.5,0.8-0.4,2.6-0.4,3.4
		c4.2-0.5,9.8-1.8,15.6-4.3c5.5-2.4,11.6-6.6,15.6-9.9c-0.4-0.8-2.2-2.8-2.8-3.4c-0.6-0.6-0.8-2.8,0-4.2c3.6-4.8,8.6-6.6,13.5-6.6
		c5-0.1,5.3,2.4,5.5,4.8c0.1,2.4,1.2,7.2,1.9,9.4c0.7,2.2,1.3,2.3,1.4,2.6c0.1,1.2-0.9,2.2-1.5,3c-0.6,0.7-2,1.6-2.6,1.9
		c-0.5,0.3-1.4,0.3-2-0.2C131.9,98.7,131.8,98.2,131.6,97.4L131.6,97.4z"/>
	<path class="st2" d="M28.1,95.9c0.7,0.2,1.3,0.4,2,0.7c1.4-3,3.2-6.8,4-8.4c1.3-2.8,3.1-1.8,6-1.3c2,0.3,2.3-1.1,1.1-2.7
		c-1.3-1.6-4.6-3.7-6.5-4.3c-1.9-0.6-7.2-1.5-8,0.3c-0.8,1.8,1.5,3.6,2.7,4.4c1.2,0.8,2.4,1.3,3.3,1.2c0,0-3.8,7.5-4.4,9.7
		C28.2,95.6,28.2,95.8,28.1,95.9L28.1,95.9z"/>
	<path class="st3" d="M39.3,147.3H23l2.5-2.5v-18.2l-2.5-2.5h16.3v5.5l-3.1-3.1h-5.9v7.3h4.1l2.5-2.5v7.4l-2.5-2.5h-4.1v8.7h5.9
		l3.1-3.1V147.3L39.3,147.3z M39.2,131h10l-2.3,2.3l3.3,8.7l3.3-8.7l-2.3-2.3h7.2l-2.3,2.3l-5.8,14h-2.9l-5.8-14L39.2,131L39.2,131z
		 M64.4,132.1c1.5,0,2.9,1.9,2.9,3.3c0,0.4-0.2,1-0.4,1.3h-5C61.9,134.4,62.5,132.1,64.4,132.1L64.4,132.1z M64.4,130.1
		c-4.7,0-8.2,4.2-8.2,8.9c0,4.7,3.6,8.8,8.2,8.8c4.4,0,6.3-1.6,7.7-3.3l-1.3-1.3c-0.6,0.8-1.7,2.4-4.8,2.4c-4,0-4.1-2.3-4.1-6.8
		h10.6C72.5,133.5,68.9,130.1,64.4,130.1L64.4,130.1z M80.8,132.1c0.7-0.9,2.4-1.7,4.2-1.7c0.3,0,1.1,0.1,1.6,0.2v6.6l-4-4l-3.1,3.4
		v8.4l2.3,2.3h-9.5l2.4-2.3v-9.9l-2.3-2.2l7.1-2.4v3.2L80.8,132.1L80.8,132.1z M97.2,144l1.1,1.1c-1.2,2.4-3.5,2.8-4.5,2.8
		c-2.9,0-4.7-1.8-4.7-4.3v-9.7h-1.3l0-1.6l6.2-6.2v4.6h4.6v2h-4.6v12.8C95.3,145.7,96.3,145.2,97.2,144L97.2,144z M104.2,139
		c0-3.1,0.3-7.1,3.3-7.1c2.9,0,3.3,4,3.3,7.1c0,3.1-0.4,7.1-3.3,7.1C104.5,146,104.2,142.1,104.2,139L104.2,139z M107.5,148
		c4.9,0,9-4,9-9c0-4.9-4-8.9-9-8.9c-4.9,0-8.9,4-8.9,8.9C98.5,143.9,102.6,148,107.5,148L107.5,148z M125.5,132.2
		c1.7-1.7,3.4-2.2,4.5-2.2c3.1,0,4.7,2.6,4.7,4.2l0,10.7l2.3,2.3h-7.2v-12.5c0-0.6-0.4-1.7-1.6-1.7c-0.7,0-1.5,0.4-2.5,1.4l-1.6,1.6
		v8.9l2.3,2.3h-9.5l2.4-2.3v-9.9l-2.3-2.2l7.1-2.4v3.2L125.5,132.2L125.5,132.2z"/>
	<path class="st4" d="M111.2,76.9c-3.4,7.4-9.7,10.9-14.4,12.6L92.1,91l-5.5,1.7c-3.5,1.1-5.7,2.4-7.1,3.6c-1.4-1.2-3.6-2.4-7.1-3.6
		L66.9,91l-4.7-1.5c-4.7-1.7-11-5.2-14.4-12.6c-1.6-3.4-2.1-7-2.1-10.5c0-4.5,0.9-8.6,1.5-10.7l1-2.9c1.3-3.6,3-8.4,3-13.1
		c0-0.4,0-0.9,0-1.3c-0.3-4-3.4-8.2-5.3-10.5c2.1-1.9,7.6-7,9.5-8.6c2.7,2.2,6.5,4.8,11.9,5.3c5.5,0.5,9.7-0.7,12.3-2.2
		c2.5,1.6,6.7,2.8,12.3,2.2c5.5-0.5,9.2-3.2,11.9-5.3c1.9,1.7,7.4,6.8,9.5,8.6c-1.9,2.3-5,6.5-5.3,10.5c0,0.4,0,0.9,0,1.3
		c0,4.7,1.7,9.5,3,13.1l1,2.9c0.6,2.1,1.5,6.2,1.5,10.7C113.3,69.9,112.7,73.6,111.2,76.9L111.2,76.9z"/>
	<g>
		<defs>
			<polyline id="SVGID_1_" points="45.7,96.3 45.7,19.3 113.3,19.3 113.3,96.3 45.7,96.3 			"/>
		</defs>
		<defs>
			<path id="SVGID_2_" d="M79.5,96.3c-1.4-1.2-3.6-2.4-7.1-3.6L66.9,91l-4.7-1.5c-4.7-1.7-11-5.2-14.4-12.6c-1.6-3.4-2.1-7-2.1-10.5
				c0-4.5,0.9-8.6,1.5-10.7l1-2.9c1.3-3.6,3-8.4,3-13.1c0-0.4,0-0.9,0-1.3c-0.3-4-3.4-8.2-5.3-10.5c2.1-1.9,7.6-7,9.5-8.6
				c2.7,2.2,6.5,4.8,11.9,5.3c0.3,0,0.5,0,0.7,0.1l0.1,0l0.4,0l0,0c0.2,0,0.3,0,0.5,0l0.1,0c0.2,0,0.4,0,0.6,0l0,0h0h0l0.1,0h0
				l0.1,0l0.2,0h0l0.4,0l0.2,0l0.1,0l0.2,0l0,0l0.2,0c0.3,0,0.7,0,1-0.1l0.1,0l0,0l0.2,0l0.1,0l0.2,0l0.3,0l0,0l0.1,0l0.1,0
				c0.2,0,0.3-0.1,0.5-0.1l0.2,0l0.2,0l0.3-0.1l0,0c0.2,0,0.4-0.1,0.6-0.1l0,0l0.1,0l0,0l0.1,0l0.2-0.1c0.4-0.1,0.7-0.2,1.1-0.3l0,0
				l0.2-0.1l0,0c0.2-0.1,0.3-0.1,0.5-0.2l0.1,0l0,0l0.1-0.1l0.2-0.1l0,0c0.2-0.1,0.4-0.2,0.5-0.2l0.1,0l0,0l0,0
				c0.1-0.1,0.3-0.1,0.4-0.2l0.2-0.1l0.1,0l0.2-0.1l0.2,0.1l0.1,0l0,0l0.1,0l0.1,0l0,0l0.1,0.1l0.2,0.1l0,0l0,0l0.1,0.1l0.1,0.1l0,0
				l0.1,0.1l0.1,0.1l0,0l0.1,0.1l0,0l0.1,0l0.1,0l0,0l0.2,0.1l0.3,0.1l0.2,0.1l0,0l0.2,0.1c0.1,0,0.3,0.1,0.4,0.1l0.1,0
				c0.2,0.1,0.4,0.1,0.7,0.2l0,0l0.1,0l0,0c0.3,0.1,0.7,0.2,1.1,0.2l0,0l0.1,0l0.1,0c0.1,0,0.3,0,0.4,0.1l0,0l0.1,0l0.1,0l0.1,0
				l0.4,0c0.4,0,0.8,0.1,1.2,0.1l0.1,0l0.1,0l0.1,0l0.1,0l0.2,0l0.1,0l0.1,0l0.1,0l0.2,0l0.1,0l0.1,0l0.1,0l0.1,0h0l0.2,0l0.1,0h0
				l0.1,0h0h0l0,0l0.4,0l0.2,0l0.1,0l0.1,0l0.2,0l0,0l0,0l0,0l0.2,0l0,0l0.4,0l0.1,0l0.1,0l0.2,0l0.2,0l0,0l0.3,0
				c5.5-0.5,9.2-3.2,11.9-5.3c1.9,1.7,7.4,6.8,9.5,8.6c-1.9,2.3-5,6.5-5.3,10.5c0,0.4,0,0.9,0,1.3c0,4.7,1.7,9.5,3,13.1l1,2.9
				c0.6,2.1,1.5,6.2,1.5,10.7c0,3.4-0.5,7.1-2.1,10.5c-3.4,7.4-9.7,10.9-14.4,12.6L92.1,91l-5.5,1.7C83.1,93.8,80.9,95.1,79.5,96.3
				L79.5,96.3z M51.2,39.7L51.2,39.7L51.2,39.7z M55.3,19.3L55.3,19.3L55.3,19.3z M103.6,19.3L103.6,19.3L103.6,19.3z M107.8,39.7
				L107.8,39.7L107.8,39.7z"/>
		</defs>
		<clipPath id="SVGID_3_">
			<use xlink:href="#SVGID_1_"  style="overflow:visible;"/>
		</clipPath>
		<clipPath id="SVGID_4_" class="st5">
			<use xlink:href="#SVGID_2_"  style="overflow:visible;"/>
		</clipPath>
		<g transform="matrix(1 0 0 1 0 0)" style="clip-path:url(#SVGID_4_);">
			
				<image style="overflow:visible;" width="78" height="88" xlink:href="ADD8C22562D8EF78.jpg"  transform="matrix(0.8667 0 0 -0.8744 45.6632 96.2803)">
			</image>
		</g>
	</g>
	<path class="st3" d="M29.4,42.5L27.9,44v7.8l1.5,1.5h-6.1l1.5-1.5V44l-1.5-1.5H29.4L29.4,42.5z M36.7,46c1.5,0,2.3,1.7,2.3,3.3
		c0,1.5-0.8,3.1-2.3,3.1c-1.5,0-2.2-1.6-2.2-3.1C34.4,47.7,35.1,46,36.7,46L36.7,46z M41.7,41.9c0-2.3-2.5-3.9-5-3.9
		c-2.5,0-5,1.7-5,3.9c0,1.4,0.9,2.7,2.1,3.4c-1.7,0.7-2.6,2.1-2.6,4c0,2.7,2.8,4.4,5.5,4.4c2.7,0,5.5-1.6,5.5-4.4
		c0-1.9-0.9-3.3-2.6-4C40.8,44.6,41.7,43.3,41.7,41.9L41.7,41.9z M36.7,44.8c-1.1,0-1.7-1.4-1.7-2.6c0-1.5,0.4-3,1.7-3
		c1.3,0,1.7,1.5,1.7,3C38.4,43.3,37.8,44.8,36.7,44.8L36.7,44.8z"/>
	<path class="st3" d="M115.1,46.9v-4.2h9.3l-4.7,13.5v1.4h-3.1l5.3-12.2h-5.3L115.1,46.9L115.1,46.9z M130.9,46
		c1.5,0,2.3,1.7,2.3,3.3c0,1.5-0.8,3.1-2.3,3.1c-1.5,0-2.2-1.6-2.2-3.1C128.7,47.7,129.4,46,130.9,46L130.9,46z M135.9,41.9
		c0-2.3-2.5-3.9-5-3.9c-2.5,0-5,1.7-5,3.9c0,1.4,0.9,2.7,2.1,3.4c-1.7,0.7-2.6,2.1-2.6,4c0,2.7,2.8,4.4,5.5,4.4
		c2.7,0,5.5-1.6,5.5-4.4c0-1.9-0.9-3.3-2.6-4C135,44.6,135.9,43.3,135.9,41.9L135.9,41.9z M130.9,44.8c-1.1,0-1.7-1.4-1.7-2.6
		c0-1.5,0.4-3,1.7-3c1.3,0,1.7,1.5,1.7,3C132.6,43.3,132.1,44.8,130.9,44.8L130.9,44.8z"/>
	<path class="st2" d="M133.8,82.2c0,0-0.7,1.4-2.4,2.6c-1.7,1.2-3.1,1.8-3.1,1.8s1.2,2.2,1.7,3.4c0.5,1.2,2.3,5.2,2.6,6.9
		c0.3,2.1,0.5,1.8,1.5,1.2c1.2-0.7,2.3-1.6,3.2-3.5c-0.5-0.4-1.2-1.9-1.8-4C134.9,88.6,133.8,82.9,133.8,82.2L133.8,82.2z"/>
	<path class="st2" d="M123,88.5c0,0-0.3-0.9-1.3-0.6c-1.3,0.4-2.4,0.7-3,0.5c0.3,0.6,1.6,2.3,1.6,2.3c0.7-0.4,0.7-0.4,1.2-0.8
		C122.1,89.3,123,88.5,123,88.5L123,88.5z"/>
	<path class="st1" d="M133.3,84.1c0,0-1.1,1.1-1.8,1.6c-0.7,0.5-1.4,1-1.6,1.1c-0.2,0.1,0,0.4,0.1,0.6c0.1,0.2,2,4.3,2.5,5.6
		c0.4,1.3,1.1,3.8,1.1,4c0.2,0,0.7,0,1-0.3c0.4-0.3,1.5-1,1.9-1.7c0-0.2,0-0.6-0.2-0.9c-0.2-0.3-2.3-5.9-2.5-7.2
		C133.4,85,133.3,84.1,133.3,84.1L133.3,84.1z"/>
	<path class="st2" d="M124.4,88.8c0,0-10,8.7-18.3,12.8c-8.5,4.2-16.2,5.6-22.2,5.6c-0.3,0.4-0.2,10.7-0.1,12
		c4.6,0.2,15.3-0.7,27.4-6.9c12.2-6.2,18.5-11.8,18.7-12C129.2,98.8,124.4,88.8,124.4,88.8L124.4,88.8z"/>
	<path class="st1" d="M128.9,100.1c-1.4,1.3-8.2,6.7-18.2,11.7c-12.9,6.3-23.1,6.8-26.2,6.8c0-1,0-2.7,0-4.5c0-2.5,0-5,0.1-6.1
		c4.8-0.2,12.8-1.3,21.9-5.8c7-3.5,15.3-10.1,17.7-12.1C125.2,92.2,128,98.1,128.9,100.1L128.9,100.1z"/>
	<path class="st2" d="M85.6,103.7c0,0-0.2,1.9-0.1,2.4c-0.6,0.1-2,0.1-2-1C83.5,104.2,84.7,104.5,85.6,103.7L85.6,103.7z"/>
	<path class="st2" d="M80,111c0,0,1.9,0.1,2.4,0.2c0.1-0.9,0-3.9,0.1-4.2c-0.4-0.3-0.9-0.9-0.9-2c0-1.2,0.9-2.2,2.1-2.6
		c1.2-0.4,2.8-0.8,2.8-1.5c0-0.7-2.6-1.4-6.4-1.4h-0.6c-3.8,0-6.4,0.7-6.4,1.4c0,0.6,1.6,1.1,2.8,1.5c1.2,0.4,2.1,1.4,2.1,2.6
		c0,1.1-0.6,1.7-0.9,2c0.1,0.3,0,3.3,0.1,4.2c0.5-0.1,2.4-0.2,2.4-0.2H80L80,111z"/>
	<path class="st2" d="M35.1,88.8c0,0,10,8.7,18.3,12.8c8.5,4.2,16.2,5.6,22.2,5.6c0.3,0.4,0.2,10.7,0.1,12
		c-4.6,0.2-15.3-0.7-27.4-6.9c-12.2-6.2-18.5-11.8-18.7-12C30.2,98.8,35.1,88.8,35.1,88.8L35.1,88.8z"/>
	<path class="st1" d="M30.6,100.1c1.5,1.3,8.2,6.7,18.2,11.7c12.9,6.3,23.1,6.8,26.2,6.8c0-1,0-2.7,0-4.5c0-2.5,0-5-0.1-6.1
		c-4.8-0.2-12.8-1.3-21.9-5.8C46,98.7,37.7,92,35.3,90C34.3,92.2,31.5,98.1,30.6,100.1L30.6,100.1z"/>
	<path class="st2" d="M37.2,101.9l0.5-2.1c0.1-0.3,0.2-0.7,0.4-1.1c-0.1,0.2-0.4,0.6-0.8,1.2l-1,1.3l-0.9-0.7l3.4-4.6l0.9,0.7
		l-0.5,2.1c-0.1,0.3-0.2,0.7-0.3,1.1c0.2-0.3,0.5-0.8,0.7-1.1l1.1-1.4l0.9,0.7l-3.4,4.6L37.2,101.9L37.2,101.9z"/>
	<polygon class="st2" points="39.7,103.7 42.9,98.9 43.9,99.5 40.7,104.3 39.7,103.7 	"/>
	<polygon class="st2" points="44.4,106.6 42.2,105.3 45.1,100.3 46.2,101 43.8,104.8 45.2,105.7 44.4,106.6 	"/>
	<path class="st2" d="M50.1,109.8c-0.6-0.3-1-0.7-1.3-1.2l0.9-0.9c0.2,0.4,0.5,0.8,1,1c0.4,0.2,0.7,0.1,0.8-0.2
		c0.1-0.2,0-0.4-0.2-0.6l-0.4-0.4c-0.5-0.5-0.7-1.1-0.3-2c0.5-1,1.5-1.4,2.4-0.9c0.6,0.3,1,0.7,1.2,1.2l-1,0.7
		c-0.2-0.4-0.5-0.7-0.8-0.8c-0.3-0.1-0.5,0-0.6,0.2c-0.1,0.2-0.1,0.4,0.2,0.6l0.4,0.3c0.4,0.4,0.9,0.9,0.4,2
		C52.3,110,51.2,110.3,50.1,109.8L50.1,109.8z"/>
	<path class="st2" d="M56,109.8l-0.6-0.2l0.5-0.8c0.2-0.3,0.4-0.6,0.5-0.8c-0.1,0.2-0.2,0.5-0.2,0.8L56,109.8L56,109.8z M56.7,112.5
		l0.9-5.9l-1.1-0.5l-3.6,4.8l1.2,0.5l0.7-0.9l1,0.4l-0.2,1.1L56.7,112.5L56.7,112.5z"/>
	<polygon class="st2" points="62,109.6 61,109.2 59.5,113.5 58.4,113.1 59.9,108.8 58.8,108.5 59.3,107.3 62.5,108.4 62,109.6 	"/>
	<polygon class="st2" points="61.8,114.2 63.4,108.7 64.6,109 63,114.6 61.8,114.2 	"/>
	<path class="st2" d="M65.7,115.4c-0.7-0.2-1.2-0.5-1.5-0.9l0.7-1c0.3,0.3,0.7,0.6,1.2,0.7c0.5,0.1,0.7-0.1,0.8-0.4
		c0.1-0.2-0.1-0.4-0.3-0.6l-0.5-0.3c-0.6-0.4-0.9-0.9-0.7-1.9c0.3-1.1,1.2-1.7,2.2-1.4c0.6,0.1,1.2,0.5,1.5,0.9l-0.8,0.9
		c-0.2-0.3-0.6-0.6-0.9-0.6c-0.3-0.1-0.5,0.1-0.6,0.3c0,0.2,0,0.4,0.3,0.6l0.4,0.3c0.4,0.3,1.1,0.7,0.8,1.8
		C67.8,115.1,66.9,115.6,65.7,115.4L65.7,115.4z"/>
	<path class="st2" d="M88.9,116.4l-1.1-1.9c-0.2-0.3-0.3-0.7-0.5-1c0.1,0.2,0.2,0.7,0.2,1.4l0.2,1.6l-1.1,0.1L86,111l1.1-0.1
		l1.1,1.9c0.2,0.3,0.4,0.7,0.5,1c-0.1-0.3-0.1-0.9-0.2-1.3l-0.2-1.8l1.1-0.1l0.7,5.7L88.9,116.4L88.9,116.4z"/>
	<polygon class="st2" points="91.1,116.1 90.1,110.4 91.3,110.2 92.3,115.9 91.1,116.1 	"/>
	<path class="st2" d="M94.6,115.5c-0.7,0.2-1.3,0.1-1.8-0.1l0.2-1.2c0.4,0.2,0.9,0.3,1.4,0.2c0.5-0.1,0.6-0.4,0.5-0.7
		c-0.1-0.2-0.2-0.3-0.6-0.4l-0.6-0.1c-0.7-0.1-1.2-0.4-1.5-1.4c-0.3-1.1,0.3-2,1.3-2.2c0.6-0.1,1.3-0.1,1.7,0.2L95,111
		c-0.4-0.2-0.8-0.2-1.1-0.2c-0.3,0.1-0.4,0.3-0.4,0.5c0,0.2,0.2,0.3,0.5,0.4l0.5,0c0.5,0,1.3,0.2,1.5,1.3
		C96.4,114.4,95.7,115.3,94.6,115.5L94.6,115.5z"/>
	<polygon class="st2" points="97.3,114.8 95.7,109.2 96.9,108.9 98.4,114.4 97.3,114.8 	"/>
	<path class="st2" d="M102.4,112c-0.5,0.2-0.9-0.1-1.3-1.5c-0.4-1-0.4-1.8,0.1-2c0.5-0.2,0.8,0.1,1.3,1.4
		C103,111.5,102.9,111.9,102.4,112L102.4,112z M102.8,113.2c1.6-0.6,1.4-2.2,0.9-3.7c-0.4-1.2-1.4-2.4-2.8-1.9
		c-1.1,0.4-1.6,1.7-0.9,3.7C100.5,112.8,101.5,113.6,102.8,113.2L102.8,113.2z"/>
	<path class="st2" d="M105.1,107.2c0.3-0.1,0.5-0.1,0.7,0.3c0.2,0.6,0.1,0.8-0.2,0.9l-0.3,0.1l-0.5-1.2L105.1,107.2L105.1,107.2z
		 M107,107.1c-0.5-1.2-1.3-1.4-2.4-0.9l-1.4,0.6l2.3,5.3l1.1-0.5l-0.8-1.9l0.3-0.1C107.5,108.9,107.3,107.8,107,107.1L107,107.1z"/>
	<polygon class="st2" points="110.1,104.8 109.2,105.3 111.2,109.4 110.2,109.9 108.1,105.9 107.1,106.3 106.6,105.2 109.7,103.7 
		110.1,104.8 	"/>
	<polygon class="st2" points="113,108.4 110.2,103.4 111.2,102.8 114.1,107.8 113,108.4 	"/>
	<path class="st2" d="M117.8,105.5l-1.3-1.9c-0.2-0.3-0.4-0.5-0.6-1l0,0c0.2,0.4,0.3,0.7,0.4,1l0.8,2.3l-0.9,0.5l-1.7-1.7
		c-0.2-0.2-0.4-0.5-0.7-0.9l0,0c0.3,0.4,0.4,0.7,0.6,1l1.2,2l-1,0.6l-2.7-5.1l1.2-0.8l1.6,1.7c0.2,0.2,0.4,0.5,0.7,0.8l0,0
		c-0.2-0.4-0.3-0.7-0.5-1.1l-0.8-2.1l1.2-0.7l3.4,4.7L117.8,105.5L117.8,105.5z"/>
	<path class="st2" d="M121,101.1c0.3,0.4,0.4,0.6,0.5,0.8c0.1,0.5,0,1.2-0.8,1.7c-0.6,0.4-1.1,0.5-1.6,0.3c-0.3-0.2-0.5-0.2-0.9-0.9
		l-2.3-3.2l1-0.7l2.2,3c0.3,0.4,0.6,0.6,1,0.4c0.3-0.2,0.3-0.6-0.1-1l-2.2-3.1l1-0.7L121,101.1L121,101.1z"/>
	<path class="st2" d="M125.5,99.6l-1.6-1.7c-0.3-0.3-0.5-0.5-0.8-0.9l0,0c0.3,0.4,0.4,0.6,0.6,0.9l1.1,2.2l-0.8,0.7l-1.9-1.4
		c-0.3-0.2-0.5-0.4-0.9-0.8l0,0c0.3,0.4,0.5,0.6,0.8,0.9l1.4,1.8l-0.9,0.8l-3.4-4.7l1.1-0.9l1.8,1.4c0.3,0.2,0.5,0.4,0.8,0.7l0,0
		c-0.3-0.4-0.4-0.6-0.6-1l-1.1-2l1.1-0.9l4.1,4.1L125.5,99.6L125.5,99.6z"/>
	<path class="st2" d="M25.6,82.2c0,0,0.7,1.4,2.3,2.6c1.7,1.2,3.1,1.8,3.1,1.8s-1.2,2.2-1.7,3.4c-0.5,1.2-2.3,5.2-2.6,6.9
		c-0.3,2.1-0.5,1.8-1.5,1.2c-1.2-0.7-2.3-1.6-3.2-3.5c0.5-0.4,1.2-1.9,1.8-4C24.5,88.6,25.6,82.9,25.6,82.2L25.6,82.2z"/>
	<path class="st2" d="M36.4,88.5c0,0,0.3-0.9,1.4-0.6c1.3,0.4,2.4,0.7,3,0.5c-0.3,0.6-1.6,2.3-1.6,2.3c-0.7-0.4-0.7-0.4-1.2-0.8
		C37.4,89.3,36.4,88.5,36.4,88.5L36.4,88.5z"/>
	<path class="st1" d="M26.2,84.1c0,0,1.1,1.1,1.8,1.6c0.7,0.5,1.4,1,1.6,1.1c0.2,0.1,0,0.4-0.1,0.6c-0.1,0.2-2,4.3-2.5,5.6
		c-0.4,1.3-1.1,3.8-1.1,4c-0.2,0-0.7,0-1-0.3c-0.4-0.3-1.5-1-1.9-1.7c0-0.2,0-0.6,0.2-0.9c0.2-0.3,2.3-5.9,2.5-7.2
		C26,85,26.2,84.1,26.2,84.1L26.2,84.1z"/>
	<path class="st2" d="M73.8,103.7c0,0,0.1,1.9,0.1,2.4c0.6,0.1,2,0.1,2-1C75.9,104.2,74.8,104.5,73.8,103.7L73.8,103.7z"/>
	<path class="st2" d="M63.3,45.3c0.3,0,0.3,0,0.3,0c0.4,0,0.9,0.5,1,0.3c0.1-0.2-0.1-0.3-0.3-0.6c-0.1-0.2-0.2-0.6-0.2-1v-1.5
		c0,0,1.3,0.2,1.6-0.3c0.3-0.5,0.6-1.6,0.5-1.8c0-0.2-0.3-0.4-0.5-0.1c-0.5,0.5-1.3,1.2-1.6,1.2c-0.3,0-0.3-0.3-0.6-0.4l-0.5,0
		c-0.3,0.2-0.3,0.4-0.6,0.4c-0.3,0-1.1-0.7-1.6-1.2c-0.3-0.2-0.5-0.1-0.5,0.1c0,0.2,0.2,1.3,0.5,1.8c0.3,0.5,1.6,0.3,1.6,0.3v1.5
		c0,0.4-0.1,0.7-0.2,1c-0.1,0.2-0.4,0.4-0.3,0.6c0.1,0.2,0.6-0.3,1-0.3C62.9,45.4,63.1,45.3,63.3,45.3L63.3,45.3z"/>
	<path class="st2" d="M58.3,43c-0.2,0-0.2,0.1-0.1,0.3c0.2,0.2,1,1,2.1,1c1,0,1-0.6,1-0.7c0-0.2-0.2-0.6-0.8-0.6
		C60.1,42.9,59.7,43.2,58.3,43L58.3,43z"/>
	<path class="st2" d="M57.1,42.2c-0.4-0.2-1.1-1-1.2-1.5c-0.1-0.3,0-0.3,0.2-0.2c0.3,0.2,0.9,0.4,1.4,0.5c0.6,0.1,1.1,0.3,1,1
		C58.4,42.6,57.5,42.4,57.1,42.2L57.1,42.2z"/>
	<path class="st2" d="M59.3,41.5c-0.4,0-0.8-0.4-0.7-0.9c0-0.5,0.4-1.6,0.5-1.9c0.2-0.3,0.2-0.2,0.3,0.1c0.1,0.8,0.4,1.2,0.5,1.4
		C60.1,40.6,60,41.5,59.3,41.5L59.3,41.5z"/>
	<path class="st2" d="M55.7,39.2c-0.3-0.3-0.5-1.3-0.6-1.7c0-0.4,0.1-0.2,0.3,0.1c0.1,0.2,0.5,0.5,1,0.6c0.4,0.1,1,0.3,0.9,0.9
		C57.2,39.7,56.3,39.7,55.7,39.2L55.7,39.2z"/>
	<path class="st2" d="M57.6,37.5c0.2-0.5,0.7-1.1,1.1-1.2c0.2-0.1,0.2,0,0.2,0.2c0,0.2,0,0.8,0,1.2c0,0.3,0.1,1.2-0.6,1.2
		C57.3,38.8,57.4,38,57.6,37.5L57.6,37.5z"/>
	<path class="st2" d="M56.3,36.4c-0.3,0.2-0.8,0.2-1.1-0.2c-0.3-0.5-0.1-1.5-0.1-1.7c0-0.2,0.2-0.2,0.3-0.1c0.3,0.4,0.9,0.7,1.1,1.1
		C56.6,35.8,56.6,36.2,56.3,36.4L56.3,36.4z"/>
	<path class="st2" d="M57.2,36c-0.2-0.3-0.2-0.6,0.2-1c0.4-0.4,1.3-0.8,1.5-0.8c0.2-0.1,0.2,0.1,0.1,0.2c-0.3,0.5-0.6,1.3-0.9,1.6
		C58,36.2,57.5,36.4,57.2,36L57.2,36z"/>
	<path class="st2" d="M55.7,32.8c0-0.5,0.2-1,0.3-1.2c0.1-0.2,0.2-0.2,0.3,0c0.2,0.5,0.7,1.1,0.7,1.6c0,0.6-0.5,0.8-0.9,0.6
		C55.7,33.5,55.7,32.8,55.7,32.8L55.7,32.8z"/>
	<path class="st2" d="M57.6,33.4c-0.1-0.3,0.1-0.6,0.5-0.7c0.4-0.1,1.2-0.2,1.6-0.3c0.2-0.1,0.3,0.1,0.1,0.3c-0.1,0.2-0.5,0.9-1.3,1
		C57.9,33.9,57.6,33.7,57.6,33.4L57.6,33.4z"/>
	<path class="st2" d="M57.5,31.3c-0.4-0.1-0.7-0.7-0.3-1.4c0.3-0.5,0.6-0.6,0.7-0.6c0.2-0.1,0.2,0.1,0.2,0.3c0,0.3,0.1,0.9,0,1.3
		C58.1,31.1,57.9,31.4,57.5,31.3L57.5,31.3z"/>
	<path class="st2" d="M58.8,31.2c-0.1-0.5,0.3-0.7,0.6-0.8c0.2,0,1-0.2,1.4-0.4c0.2-0.1,0.4-0.1,0.2,0.3c-0.2,0.4-0.8,1.1-1.2,1.2
		C59.3,31.6,58.9,31.5,58.8,31.2L58.8,31.2z"/>
	<path class="st2" d="M59.6,29.1c-0.2-0.2-0.1-0.7,0.3-1c0.4-0.3,1-0.5,1.2-0.5c0.2,0,0.6-0.1,0.3,0.3
		C60.9,28.4,60.2,29.8,59.6,29.1L59.6,29.1z"/>
	<path class="st2" d="M68.5,43c0.2,0,0.2,0.1,0.1,0.3c-0.2,0.2-1,1-2.1,1c-1,0-1-0.6-1-0.7c0-0.2,0.2-0.6,0.8-0.6
		C66.7,42.9,67.1,43.2,68.5,43L68.5,43z"/>
	<path class="st2" d="M69.7,42.2c0.4-0.2,1.1-1,1.2-1.5c0.1-0.3,0-0.3-0.2-0.2c-0.3,0.2-0.9,0.4-1.4,0.5c-0.6,0.1-1.1,0.3-1,1
		C68.4,42.6,69.2,42.4,69.7,42.2L69.7,42.2z"/>
	<path class="st2" d="M67.5,41.5c0.4,0,0.8-0.4,0.7-0.9c0-0.5-0.4-1.6-0.5-1.9c-0.2-0.3-0.2-0.2-0.3,0.1c-0.1,0.8-0.4,1.2-0.5,1.4
		C66.7,40.6,66.8,41.5,67.5,41.5L67.5,41.5z"/>
	<path class="st2" d="M71.1,39.2c0.3-0.3,0.5-1.3,0.6-1.7c0-0.4-0.1-0.2-0.3,0.1c-0.1,0.2-0.6,0.5-1,0.6c-0.4,0.1-1,0.3-0.9,0.9
		C69.6,39.7,70.5,39.7,71.1,39.2L71.1,39.2z"/>
	<path class="st2" d="M69.2,37.5c-0.2-0.5-0.7-1.1-1.1-1.2c-0.2-0.1-0.2,0-0.1,0.2c0,0.2,0,0.8,0,1.2c0,0.3-0.1,1.2,0.6,1.2
		C69.4,38.8,69.4,38,69.2,37.5L69.2,37.5z"/>
	<path class="st2" d="M70.4,36.4c0.3,0.2,0.8,0.2,1.1-0.2c0.3-0.5,0.1-1.5,0.1-1.7c0-0.2-0.2-0.2-0.3-0.1c-0.3,0.4-0.9,0.7-1.1,1.1
		C70.2,35.8,70.2,36.2,70.4,36.4L70.4,36.4z"/>
	<path class="st2" d="M69.6,36c0.2-0.3,0.2-0.6-0.2-1c-0.4-0.4-1.3-0.8-1.5-0.8c-0.2-0.1-0.2,0.1-0.1,0.2c0.3,0.5,0.6,1.3,0.9,1.6
		C68.7,36.2,69.2,36.4,69.6,36L69.6,36z"/>
	<path class="st2" d="M71.1,32.8c0-0.5-0.2-1-0.3-1.2c-0.1-0.2-0.2-0.2-0.3,0c-0.2,0.5-0.7,1.1-0.7,1.6c0,0.6,0.5,0.8,0.9,0.6
		C71.1,33.5,71.1,32.8,71.1,32.8L71.1,32.8z"/>
	<path class="st2" d="M69.2,33.4c0.1-0.3-0.1-0.6-0.5-0.7c-0.4-0.1-1.2-0.2-1.6-0.3c-0.2-0.1-0.3,0.1-0.1,0.3c0.1,0.2,0.5,0.9,1.3,1
		C68.9,33.9,69.2,33.7,69.2,33.4L69.2,33.4z"/>
	<path class="st2" d="M69.2,31.3c0.4-0.1,0.7-0.7,0.3-1.4c-0.3-0.5-0.6-0.6-0.7-0.6c-0.2-0.1-0.2,0.1-0.2,0.3c0,0.3-0.1,0.9,0,1.3
		C68.7,31.1,68.9,31.4,69.2,31.3L69.2,31.3z"/>
	<path class="st2" d="M68,31.2c0.1-0.5-0.3-0.7-0.6-0.8c-0.2,0-1-0.2-1.4-0.4c-0.2-0.1-0.4-0.1-0.2,0.3c0.2,0.4,0.8,1.1,1.2,1.2
		C67.4,31.6,67.9,31.5,68,31.2L68,31.2z"/>
	<path class="st2" d="M67.2,29.1c0.2-0.2,0.1-0.7-0.3-1c-0.4-0.3-1-0.5-1.2-0.5c-0.2,0-0.6-0.1-0.3,0.3
		C65.8,28.4,66.5,29.8,67.2,29.1L67.2,29.1z"/>
	<path class="st2" d="M95.4,45.3c0.3,0,0.3,0,0.3,0c0.4,0,0.9,0.5,1,0.3c0.1-0.2-0.1-0.3-0.3-0.6c-0.1-0.2-0.2-0.6-0.2-1v-1.5
		c0,0,1.3,0.2,1.6-0.3c0.3-0.5,0.6-1.6,0.5-1.8c0-0.2-0.3-0.4-0.5-0.1c-0.5,0.5-1.3,1.2-1.6,1.2c-0.3,0-0.3-0.3-0.6-0.4l-0.5,0
		c-0.3,0.2-0.3,0.4-0.6,0.4c-0.3,0-1.1-0.7-1.6-1.2c-0.3-0.2-0.5-0.1-0.5,0.1c0,0.2,0.2,1.3,0.5,1.8c0.3,0.5,1.6,0.3,1.6,0.3l0,1.5
		c0,0.4-0.1,0.7-0.2,1c-0.1,0.2-0.4,0.4-0.3,0.6c0.1,0.2,0.6-0.3,1-0.3C94.9,45.4,95.1,45.3,95.4,45.3L95.4,45.3z"/>
	<path class="st2" d="M90.3,43c-0.2,0-0.2,0.1-0.1,0.3c0.2,0.2,1,1,2.1,1c1,0,1-0.6,1-0.7c0-0.2-0.2-0.6-0.8-0.6
		C92.1,42.9,91.7,43.2,90.3,43L90.3,43z"/>
	<path class="st2" d="M89.1,42.2c-0.4-0.2-1.1-1-1.2-1.5c-0.1-0.3,0-0.3,0.2-0.2c0.3,0.2,0.9,0.4,1.4,0.5c0.6,0.1,1.1,0.3,1,1
		C90.4,42.6,89.6,42.4,89.1,42.2L89.1,42.2z"/>
	<path class="st2" d="M91.3,41.5c-0.4,0-0.8-0.4-0.7-0.9c0-0.5,0.4-1.6,0.5-1.9c0.2-0.3,0.2-0.2,0.3,0.1c0.1,0.8,0.4,1.2,0.5,1.4
		C92.1,40.6,92,41.5,91.3,41.5L91.3,41.5z"/>
	<path class="st2" d="M87.7,39.2c-0.3-0.3-0.5-1.3-0.6-1.7c0-0.4,0.1-0.2,0.3,0.1c0.2,0.2,0.5,0.5,1,0.6c0.4,0.1,1,0.3,0.9,0.9
		C89.2,39.7,88.3,39.7,87.7,39.2L87.7,39.2z"/>
	<path class="st2" d="M89.6,37.5c0.2-0.5,0.7-1.1,1.1-1.2c0.2-0.1,0.2,0,0.2,0.2c0,0.2,0,0.8,0,1.2c0,0.3,0.1,1.2-0.6,1.2
		C89.4,38.8,89.4,38,89.6,37.5L89.6,37.5z"/>
	<path class="st2" d="M88.4,36.4c-0.3,0.2-0.8,0.2-1.1-0.2c-0.3-0.5-0.1-1.5-0.1-1.7c0-0.2,0.2-0.2,0.3-0.1c0.3,0.4,0.9,0.7,1.1,1.1
		C88.6,35.8,88.6,36.2,88.4,36.4L88.4,36.4z"/>
	<path class="st2" d="M89.2,36c-0.2-0.3-0.2-0.6,0.2-1c0.4-0.4,1.3-0.8,1.5-0.8c0.2-0.1,0.2,0.1,0.1,0.2c-0.3,0.5-0.6,1.3-0.9,1.6
		C90,36.2,89.6,36.4,89.2,36L89.2,36z"/>
	<path class="st2" d="M87.7,32.8c0-0.5,0.2-1,0.3-1.2c0.1-0.2,0.2-0.2,0.3,0c0.2,0.5,0.7,1.1,0.7,1.6c0,0.6-0.5,0.8-0.9,0.6
		C87.7,33.5,87.7,32.8,87.7,32.8L87.7,32.8z"/>
	<path class="st2" d="M89.6,33.4c-0.1-0.3,0.1-0.6,0.5-0.7c0.4-0.1,1.2-0.2,1.6-0.3c0.2-0.1,0.3,0.1,0.1,0.3c-0.1,0.2-0.5,0.9-1.3,1
		C89.9,33.9,89.6,33.7,89.6,33.4L89.6,33.4z"/>
	<path class="st2" d="M89.6,31.3c-0.4-0.1-0.7-0.7-0.3-1.4c0.3-0.5,0.6-0.6,0.7-0.6c0.2-0.1,0.2,0.1,0.2,0.3c0,0.3,0.1,0.9,0,1.3
		C90.1,31.1,89.9,31.4,89.6,31.3L89.6,31.3z"/>
	<path class="st2" d="M90.8,31.2c-0.1-0.5,0.3-0.7,0.6-0.8c0.2,0,1-0.2,1.4-0.4c0.2-0.1,0.4-0.1,0.2,0.3c-0.2,0.4-0.8,1.1-1.2,1.2
		C91.4,31.6,90.9,31.5,90.8,31.2L90.8,31.2z"/>
	<path class="st2" d="M91.6,29.1c-0.2-0.2-0.1-0.7,0.3-1c0.4-0.3,1-0.5,1.2-0.5c0.2,0,0.6-0.1,0.3,0.3C93,28.4,92.2,29.8,91.6,29.1
		L91.6,29.1z"/>
	<path class="st2" d="M100.5,43c0.2,0,0.2,0.1,0.1,0.3c-0.2,0.2-1,1-2.1,1c-1,0-1-0.6-1-0.7c0-0.2,0.2-0.6,0.8-0.6
		C98.7,42.9,99.1,43.2,100.5,43L100.5,43z"/>
	<path class="st2" d="M101.7,42.2c0.4-0.2,1.1-1,1.2-1.5c0.1-0.3,0-0.3-0.2-0.2c-0.3,0.2-0.9,0.4-1.4,0.5c-0.6,0.1-1.1,0.3-1,1
		C100.4,42.6,101.2,42.4,101.7,42.2L101.7,42.2z"/>
	<path class="st2" d="M99.5,41.5c0.4,0,0.8-0.4,0.7-0.9c0-0.5-0.4-1.6-0.5-1.9c-0.2-0.3-0.2-0.2-0.3,0.1c-0.1,0.8-0.4,1.2-0.5,1.4
		C98.7,40.6,98.8,41.5,99.5,41.5L99.5,41.5z"/>
	<path class="st2" d="M103.1,39.2c0.3-0.3,0.5-1.3,0.6-1.7c0-0.4-0.1-0.2-0.3,0.1c-0.2,0.2-0.6,0.5-1,0.6c-0.4,0.1-1,0.3-0.9,0.9
		C101.6,39.7,102.5,39.7,103.1,39.2L103.1,39.2z"/>
	<path class="st2" d="M101.2,37.5c-0.2-0.5-0.7-1.1-1.1-1.2c-0.2-0.1-0.2,0-0.2,0.2c0,0.2,0,0.8,0,1.2c0,0.3-0.1,1.2,0.6,1.2
		C101.4,38.8,101.4,38,101.2,37.5L101.2,37.5z"/>
	<path class="st2" d="M102.4,36.4c0.3,0.2,0.8,0.2,1.1-0.2c0.3-0.5,0.1-1.5,0.1-1.7c0-0.2-0.2-0.2-0.3-0.1c-0.3,0.4-0.9,0.7-1.1,1.1
		C102.2,35.8,102.2,36.2,102.4,36.4L102.4,36.4z"/>
	<path class="st2" d="M101.6,36c0.2-0.3,0.2-0.6-0.2-1c-0.4-0.4-1.3-0.8-1.5-0.8c-0.2-0.1-0.2,0.1-0.1,0.2c0.3,0.5,0.6,1.3,0.9,1.6
		C100.8,36.2,101.2,36.4,101.6,36L101.6,36z"/>
	<path class="st2" d="M103.1,32.8c0-0.5-0.2-1-0.3-1.2c-0.1-0.2-0.2-0.2-0.3,0c-0.2,0.5-0.7,1.1-0.7,1.6c0,0.6,0.5,0.8,0.9,0.6
		C103.1,33.5,103.1,32.8,103.1,32.8L103.1,32.8z"/>
	<path class="st2" d="M101.2,33.4c0.1-0.3-0.1-0.6-0.5-0.7c-0.4-0.1-1.2-0.2-1.6-0.3c-0.2-0.1-0.3,0.1-0.1,0.3
		c0.1,0.2,0.5,0.9,1.3,1C100.9,33.9,101.2,33.7,101.2,33.4L101.2,33.4z"/>
	<path class="st2" d="M101.2,31.3c0.4-0.1,0.7-0.7,0.3-1.4c-0.3-0.5-0.6-0.6-0.7-0.6c-0.2-0.1-0.2,0.1-0.2,0.3c0,0.3-0.1,0.9,0,1.3
		C100.7,31.1,100.9,31.4,101.2,31.3L101.2,31.3z"/>
	<path class="st2" d="M100,31.2c0.1-0.5-0.3-0.7-0.6-0.8c-0.2,0-1-0.2-1.4-0.4c-0.2-0.1-0.4-0.1-0.2,0.3c0.2,0.4,0.8,1.1,1.2,1.2
		C99.4,31.6,99.9,31.5,100,31.2L100,31.2z"/>
	<path class="st2" d="M99.2,29.1c0.2-0.2,0.1-0.7-0.3-1c-0.4-0.3-1-0.5-1.2-0.5c-0.2,0-0.6-0.1-0.3,0.3
		C97.8,28.4,98.6,29.8,99.2,29.1L99.2,29.1z"/>
	<path class="st2" d="M73.1,54.8c-0.4,0-1.3,0.4-1.4,0.4l-0.1,0.3l0.3,0.1c0.2-0.1,1-0.4,1.3-0.4l0.2-0.2L73.1,54.8L73.1,54.8z"/>
	<path class="st2" d="M75.1,82.1c-1.6,0.2-2.7,0.4-2.7,0.4l-0.2,0.3l0.3,0.2c0,0,1.1-0.3,2.6-0.4l0.2-0.3L75.1,82.1L75.1,82.1z"/>
	<path class="st2" d="M79,82c-1.6,0-2.3,0.1-2.4,0.1l-0.2,0.3l0.3,0.2c0,0,0.7-0.1,2.3-0.1l0.3-0.3L79,82L79,82z"/>
	<path class="st2" d="M81,82.2l0.2,0.3c0,0,2,0.1,2.9,0.2l0.3-0.2l-0.2-0.3c-0.9-0.1-2.9-0.2-3-0.2L81,82.2L81,82.2z"/>
	<path class="st2" d="M85.7,82.6l0.2,0.3c0,0,1.4,0.2,2.4,0.5l0.3-0.2l-0.2-0.3c-1-0.3-2.4-0.5-2.5-0.5L85.7,82.6L85.7,82.6z"/>
	<path class="st2" d="M77.5,79.2l-0.3,0.3l0.3,0.3c0,0,2.8-0.1,4.6,0l0.3-0.3l-0.3-0.3C80.3,79.1,77.5,79.2,77.5,79.2L77.5,79.2z"/>
	<path class="st2" d="M76.2,77.1L76,77.4l0.3,0.2c0,0,0.4-0.1,1.5,0l0.3-0.3L77.7,77C76.8,77,76.2,77.1,76.2,77.1L76.2,77.1z"/>
	<path class="st2" d="M73,77.3l-0.2,0.3l0.3,0.2c0,0,0.4-0.1,1.2-0.1l0.2-0.2l-0.2-0.2C73.5,77.2,73,77.3,73,77.3L73,77.3z"/>
	<path class="st2" d="M77,43.2l-0.2,0.2l0.2,0.2c0,0,0.3,0,1.1,0l0.2-0.2l-0.2-0.2C77.5,43.1,77.1,43.2,77,43.2L77,43.2z"/>
	<path class="st2" d="M76.9,45.6l-0.2,0.2l0.2,0.2c0,0,0.3,0,1,0l0.2-0.2l-0.2-0.2C77.3,45.5,76.9,45.6,76.9,45.6L76.9,45.6z"/>
	<path class="st2" d="M73.9,45.9l-0.2,0.2l0.2,0.2c0,0,0.3,0,1,0l0.2-0.2L75,45.8C74.4,45.8,73.9,45.9,73.9,45.9L73.9,45.9z"/>
	<path class="st2" d="M78.2,47.9L78,48.1l0.2,0.2c0,0,0.3,0,0.9,0l0.2-0.2l-0.2-0.2C78.6,47.9,78.2,47.9,78.2,47.9L78.2,47.9z"/>
	<path class="st2" d="M78.5,41l-0.1,0.2l0.2,0.2c0,0,0.2,0,0.7,0l0.1-0.2l-0.1-0.2C78.9,40.9,78.6,40.9,78.5,41L78.5,41z"/>
	<path class="st2" d="M77.5,39.2l-0.1,0.2l0.2,0.2c0,0,0.2,0,0.8,0l0.2-0.2l-0.2-0.2C77.8,39.2,77.5,39.2,77.5,39.2L77.5,39.2z"/>
	<path class="st2" d="M78.3,37.3l-0.1,0.2l0.2,0.2c0,0,0.3,0,0.8,0l0.2-0.2l-0.2-0.2C78.7,37.3,78.3,37.3,78.3,37.3L78.3,37.3z"/>
	<path class="st2" d="M91.2,73.1c-0.1-7-0.1-15.5-0.2-18.9c0.6-0.2,1.1-0.7,1.2-1.3c0.1-0.6-0.6-1.6-2.2-2.3l-9.4-18.9
		c0.3-0.7,0.6-1.1,0.6-1.2c0.2-0.4,0.4-1.1-0.3-1.4c-0.7-0.3-1.3,0.4-1.3,0.4l-0.1,0.1l-0.1-0.1c0,0-0.6-0.7-1.2-0.4
		c-0.7,0.3-0.5,0.9-0.3,1.4c0,0.1,0.2,0.5,0.6,1.2l-9.3,19c-1.9,1-2.3,2.2-1.9,3c0,0,0.2,0.6,1.1,0.8c0,1.3,0,3,0,5
		c-2,1.2-2.9,5.6-1.3,10.4c0.4,1,0.6,1.3,1.3,1.7c0,5.8,0.1,11,0.1,11.6c0,1.1-0.1,1.4-0.1,1.4c1.5-0.3,2-0.4,2-0.4l-0.1-11.6
		c1.8,1.1,4.2,2.1,5.9,2.9c2.6,1.2,9.6,3.9,11.1,4.7c1.1,0.5,1.8,0.9,2.2,1.5l0,2.7c0,0,0.2,0,0.4,0c2-0.1,2.8-1.7,2.8-5
		C92.8,76.8,92.3,74.8,91.2,73.1L91.2,73.1z M90.5,77.6L90.5,77.6l0.3,0l0.1,0.2v0.2l-0.1,0.1L90.6,78l-0.1-0.2V77.6L90.5,77.6z
		 M79.5,33.7c0.3,0.6,0.7,1.4,1,2.1c-0.3,0-1,0.1-1.4,0.2c-0.2,0.1-0.3,0.1-0.3,0.2c0,0.1,0.1,0.2,0.3,0.2c0.5,0,1.2,0,1.6,0.1
		c0.1,0.2,0.2,0.5,0.3,0.7c-0.3,0.1-0.7,0.2-0.8,0.2c-0.2,0.1-0.3,0.1-0.3,0.2l0.3,0.1c0.3,0,0.8,0.1,1.1,0.1
		c0.2,0.4,0.4,0.8,0.6,1.2c-0.1,0.1-0.3,0.2-0.6,0.2c-0.4,0-1.3,0-1.7,0.1c-0.2,0-0.2,0.1-0.2,0.2c0,0.1,0.1,0.2,0.3,0.2
		c0.6,0,1.4,0.1,1.8,0.2c0.3,0.1,0.7,0.1,1,0.2c0.1,0.2,0.2,0.5,0.4,0.7L82.7,41c-0.2,0-1.3,0-1.8,0c-0.2,0-0.3,0.1-0.3,0.2
		c0,0.1,0,0.1,0.3,0.2c0.4,0.1,1.3,0.1,1.6,0.1c0.3,0,0.7,0.1,1,0.3c0.2,0.4,0.4,0.8,0.6,1.2l-0.2,0.1l-2.2,0
		c-0.2,0-0.4,0.1-0.4,0.2c0,0.1,0.1,0.3,0.6,0.3c0.4,0,2.1,0.1,3,0.7c0.2,0.5,0.5,0.9,0.7,1.4c-0.6-0.1-2.9-0.2-3.9-0.2
		c-0.9,0-1.2,0-1.3,0.2c0,0.2,0.2,0.2,0.7,0.3c0.5,0.1,3.5,0.2,5,0.8c0.3,0.6,0.6,1.2,0.8,1.6C85.9,48.3,84,48,82.9,48
		c-0.4,0-0.6,0.1-0.6,0.3c0,0.2,0.4,0.2,0.7,0.2c1.4,0.1,3.5,0.6,4.3,0.9c0.1,0.2,0.1,0.3,0.2,0.4c-2.6-0.5-6.3-0.8-8-0.8
		c-1.6,0-5.1,0.2-7.7,0.8C72.4,48.3,77,38.8,79.5,33.7L79.5,33.7z M68.6,62.9l0.1-0.1l0.3,0.2l0.1,0.2v0.5l-0.1,0.1l-0.3-0.2
		l-0.1-0.2V62.9L68.6,62.9z M69.1,69.4L69,69.4l-0.3-0.2L68.6,69v-0.5l0.1-0.1l0.3,0.2l0.1,0.2V69.4L69.1,69.4z M69.1,66.5L69,66.6
		l-0.3-0.2l-0.1-0.2v-0.5l0.1-0.1l0.3,0.2l0.1,0.2V66.5L69.1,66.5z M72.3,71.3l-0.1,0.1l-1.5-0.9l-0.1-0.2v-0.9l0.1-0.1l1.5,0.8
		l0.1,0.2V71.3L72.3,71.3z M72.3,68.4l-0.1,0.1l-1.5-0.9l-0.1-0.2v-0.7l0.1-0.1l1.5,0.8l0.1,0.2V68.4L72.3,68.4z M72.3,65.7
		l-0.1,0.1L70.6,65l-0.1-0.2v-1l0.1-0.1l1.5,0.8l0.1,0.2V65.7L72.3,65.7z M75.6,72.7l-0.1,0.1l-1.5-0.7l-0.1-0.2V71l0.1-0.1l1.5,0.7
		l0.1,0.2V72.7L75.6,72.7z M75.6,69.8l-0.1,0.1l-1.5-0.7L73.8,69v-0.7l0.1-0.1l1.5,0.7l0.1,0.2V69.8L75.6,69.8z M75.6,67.3l-0.1,0.1
		l-1.5-0.9l-0.1-0.2v-1l0.1-0.1l1.5,0.8l0.1,0.2V67.3L75.6,67.3z M79.2,74.4L79,74.5l-1.7-0.8l-0.1-0.2v-1l0.1-0.1l1.7,0.7l0.1,0.2
		V74.4L79.2,74.4z M79.2,71.4l-0.1,0.1l-1.8-0.8l-0.1-0.2v-0.7l0.1-0.1l1.8,0.8l0.1,0.2V71.4L79.2,71.4z M79.2,68.8l-0.1,0.1
		L77.3,68l-0.1-0.2V67l0.1-0.1l1.8,0.8l0.1,0.2V68.8L79.2,68.8z M82.6,76.1l-0.1,0.1L81,75.4l-0.1-0.2v-1l0.1-0.1l1.5,0.7l0.1,0.2
		V76.1L82.6,76.1z M82.6,73l-0.1,0.1L81,72.4l-0.1-0.2v-0.7l0.1-0.1l1.5,0.7l0.1,0.2V73L82.6,73z M82.6,70.4l-0.1,0.1L81,69.6
		l-0.1-0.2v-0.7l0.1-0.1l1.5,0.8l0.1,0.2V70.4L82.6,70.4z M86.1,78L86,78l-1.6-0.9l-0.1-0.2v-1l0.1-0.1l1.6,0.9l0.1,0.2V78L86.1,78z
		 M84.2,71.2v-0.6l0.1-0.1l1.5,0.8l0.1,0.2v0.7l-0.1,0.1l-1.5-0.9L84.2,71.2L84.2,71.2z M86.1,74.9L86,75l-1.6-1l-0.1-0.2v-0.6
		l0.1-0.1l1.6,1l0.1,0.2V74.9L86.1,74.9z M89,79.7l-0.1,0.1L87.7,79l-0.1-0.2v-0.8l0.1-0.1l1.2,0.8l0.1,0.2V79.7L89,79.7z M89,76.8
		l-0.1,0.1l-1.3-0.9l-0.1-0.2v-0.6l0.1-0.1l1.3,0.9l0.1,0.2V76.8L89,76.8z M87.6,73.2v-0.6l0.1-0.1l1.2,0.7l0.1,0.2v0.6l-0.1,0.1
		l-1.2-0.8L87.6,73.2L87.6,73.2z M76.8,65.2c-4.4-1.8-5.2-2.9-5.8-3.5c-0.4-0.5-0.8-1-0.9-1.6l-0.1-5.8c0.3-0.2,0.5-0.5,1-0.6
		c0.5-0.1,3.4-0.7,8.3-0.7c4.9,0,8.4,0.5,9.2,0.9c0.2,0.1,0.4,0.2,0.6,0.3l0,0.9c-0.8-0.1-4-0.5-5.4-0.6c-1.7-0.1-4.9-0.1-5.1-0.1
		c-0.3,0-0.5,0-0.5,0.2c0,0.1,0.2,0.2,0.4,0.2c1.2,0,3.7,0.1,5.6,0.4c1.3,0.2,3.8,0.6,4.9,1l0,0.9c-0.5-0.1-1.7-0.4-2.5-0.5
		c-1.1-0.1-1.9-0.1-2.1-0.1c-0.2,0-0.4,0-0.4,0.2c0,0.2,0.2,0.2,0.4,0.2c0.2,0,3.3,0.1,4.6,1.2l0,1.2c-0.9-0.2-2.9-0.6-5.2-0.8
		c-0.6-0.1-1.2-0.1-1.9-0.1l0-2.7c0,0-3.7,0-4.7,0l-0.2,0.2c0,0,0,1.4,0,2.6c-0.2,0-0.3,0-0.4,0c-0.9,0.1-4.3,0.5-4.6,0.6
		c-0.2,0.1-0.4,0.2-0.4,0.3c0,0.2,0.3,0.1,0.5,0.1c1.2-0.2,3.1-0.3,4.8-0.4c0,0.3,0,0.6,0,0.7c1.1-0.1,4.9,0,4.9,0l0-0.6
		c2.5,0.2,5.7,0.7,7.1,1.5l0,1c-0.8-0.2-2.9-0.6-3.7-0.6c-1-0.1-1.4,0-1.6,0l-0.3,0.2c0,0.1,0.2,0.2,0.4,0.2c0.2,0,3.3,0.1,5.1,1.4
		l0,1c-1.1-0.2-4.7-0.9-7.2-1c-3.3-0.1-7.3,0.2-7.6,0.3c-0.3,0-0.5,0.1-0.5,0.3c0,0.2,0.1,0.2,0.5,0.2c0.3,0,6.2-0.2,9.3,0.2
		c2.5,0.4,4.3,0.8,5.4,1.3l0,1.2c-1-0.2-3.2-0.6-4.3-0.7c-1.5-0.1-3.8-0.2-4.1-0.2c-0.2,0-0.3,0.1-0.3,0.2c0,0.2,0.2,0.2,0.3,0.2
		c0.2,0,2,0.1,3.9,0.3c1.2,0.2,3.2,0.5,4.5,1.1l0,1.2c-0.7-0.1-2-0.2-2.5-0.2c-0.8,0-1.4,0-1.6,0L85,68.4l0.3,0.2
		c0.2,0,1.3,0.1,2.1,0.2c0.7,0.1,1.5,0.3,2,0.6l0,1.8C86.9,69.2,80.9,66.8,76.8,65.2L76.8,65.2z M81.3,57.9c0,0.3-0.3,0.4-0.5,0.4
		c-0.2,0-0.5-0.1-0.5-0.4c0-0.3,0.3-0.4,0.5-0.4C81.1,57.5,81.3,57.5,81.3,57.9L81.3,57.9z M90,53.1c-0.2,0.3-0.7,0.2-1.1,0
		c-0.4-0.2-3.8-1.4-9.6-1.4c-5.7,0-8.9,1.1-9.3,1.2c-0.4,0.1-1,0.4-1.3-0.2c-0.2-0.4,0.1-0.7,0.7-1c0.6-0.3,5.3-1.2,9.9-1.3
		c4.6,0,9,0.9,10.3,1.7C90,52.3,90.2,52.7,90,53.1L90,53.1z M90.9,81l-0.1,0.1L90.6,81l-0.1-0.2v-0.3l0.1-0.1l0.2,0.1l0.1,0.2V81
		L90.9,81z"/>
	<path class="st2" d="M129.3,96.7c0.7-0.3,1.4-0.5,2.1-0.7l-0.2-0.6c-0.6-2.2-4.4-9.7-4.4-9.7c1,0.1,2.1-0.4,3.3-1.2
		c1.2-0.8,3.5-2.6,2.7-4.4c-0.8-1.8-6.1-1-8-0.3c-1.9,0.6-5.2,2.7-6.5,4.3c-1.3,1.7-0.9,3,1.1,2.7c2.9-0.4,4.6-1.5,6,1.3
		C126,89.7,127.9,93.7,129.3,96.7L129.3,96.7z"/>
	<path class="st1" d="M109,39c0.3-4.7,6-10.5,6-10.5l-12.1-11c-2.6,2.2-6.2,5.3-11.9,5.9c-6,0.6-10.1-1.1-11.8-2.6
		c-1.7,1.5-5.7,3.2-11.7,2.6c-5.7-0.6-9.3-3.7-11.9-5.9l-12.1,11c0,0,5.7,5.8,6,10.5c0.4,6.1-2.9,12.9-3.8,16.2
		c-0.8,3-3.4,13.4,0.7,22.1c4.1,8.8,12,12.2,15.2,13.4c2.8,1,4.8,1.5,10,3.1c5,1.6,6.9,3.4,7.6,4.6c0.6-1.1,2.5-3,7.6-4.6
		c5.2-1.7,7.2-2.1,10-3.1c3.3-1.2,11.1-4.5,15.2-13.4c4.1-8.7,1.5-19.1,0.7-22.1C111.9,51.9,108.6,45,109,39L109,39z M110.2,76.4
		c-3.4,7.2-9.5,10.7-14.1,12.3l-4.6,1.5l-5.4,1.7c-3.4,1.1-5.6,2.3-6.9,3.5c-1.4-1.1-3.5-2.4-6.9-3.5L67,90.1l-4.6-1.5
		c-4.6-1.6-10.7-5.1-14.1-12.3c-1.5-3.3-2-6.9-2-10.2c0-4.4,0.9-8.4,1.5-10.4l1-2.8c1.3-3.5,2.9-8.2,2.9-12.8c0-0.4,0-0.8,0-1.3
		c-0.3-3.9-3.3-8-5.2-10.2c2-1.9,7.4-6.8,9.2-8.4c2.6,2.1,6.3,4.7,11.6,5.2c5.4,0.5,9.5-0.6,11.9-2.2c2.5,1.5,6.6,2.7,12,2.2
		c5.3-0.5,9-3.1,11.6-5.2c1.8,1.7,7.2,6.6,9.2,8.4c-1.9,2.2-4.9,6.3-5.2,10.2c0,0.4,0,0.8,0,1.3c0,4.6,1.7,9.3,2.9,12.8l1,2.8
		c0.6,2.1,1.5,6,1.5,10.4C112.3,69.5,111.8,73.1,110.2,76.4L110.2,76.4z"/>
</g>
</svg>
