<?xml version="1.0" encoding="utf-8"?>
<!-- Generator: Adobe Illustrator 19.1.0, SVG Export Plug-In . SVG Version: 6.00 Build 0)  -->
<svg version="1.1" id="Layer_1" xmlns="http://www.w3.org/2000/svg" xmlns:xlink="http://www.w3.org/1999/xlink" x="0px" y="0px"
	 viewBox="0 0 400 400" enable-background="new 0 0 400 400" xml:space="preserve">
<g>
	<path fill-rule="evenodd" clip-rule="evenodd" fill="#001C71" d="M372.179,232.906c-1.264,2.124-2.273,4.374-3.044,6.722
		l20.097,7.633l-0.463,1.116c-32.154,77.544-92.498,124.895-177.49,131.862l-12.399,11.802l-12.399-11.802
		c-84.991-6.967-145.335-54.318-177.49-131.862l-0.463-1.116l20.097-7.633c-0.77-2.348-1.78-4.598-3.043-6.722L13.3,238.407
		l-0.537-0.354c-4.586-3.024-5.19-8.579-4.549-13.609c0.433-3.395,3.271-5.425,6.211-6.668c10.375-4.387,20.646-9.019,31.111-13.189
		c2.298-0.916,4.739-1.068,6.979,0.085c1.575,0.811,3.111,1.746,4.565,2.758l0.105,0.073l0.087,0.095
		c10.056,10.914,9.901,22.736,11.454,36.555l0.105,0.933l-10.151,3.507c18.679,35.882,47.721,63.641,86.146,77.381
		c17.352,6.205,35.645,9.162,54.056,9.162s36.705-2.957,54.056-9.162c38.424-13.741,67.466-41.499,86.146-77.381l-10.151-3.507
		l0.105-0.933c1.553-13.819,1.398-25.641,11.454-36.555l0.086-0.095l0.106-0.073c1.454-1.012,2.99-1.947,4.565-2.758
		c2.239-1.152,4.681-1.001,6.978-0.085c10.465,4.17,20.737,8.803,31.112,13.189c2.939,1.243,5.778,3.273,6.21,6.668
		c0.641,5.03,0.036,10.586-4.549,13.609l-0.537,0.354L372.179,232.906L372.179,232.906z"/>
	<path fill-rule="evenodd" clip-rule="evenodd" fill="#FFFFFF" d="M198.881,390.424l11.891-11.319
		c91.208-7.33,147.58-60.431,176.915-131.176l-19.999-7.596c0.936-3.176,2.268-6.154,4.031-8.916l12.634,5.658
		c3.141-2.071,4.715-5.966,4.031-12.483c-0.351-2.333-2.053-4.281-5.504-5.737c-10.363-4.393-20.725-8.786-31.088-13.18
		c-2.263-0.845-4.262-0.821-6.008,0.039c-1.458,0.783-3.013,1.689-4.432,2.677c-9.835,10.675-9.639,22.439-11.151,35.892
		l10.544,3.644c-30.376,59.374-83.887,86.953-141.864,88.381c-57.977-1.428-111.488-29.006-141.864-88.381l10.544-3.644
		c-1.512-13.453-1.316-25.217-11.151-35.892c-1.419-0.988-2.973-1.894-4.432-2.677c-1.746-0.86-3.746-0.883-6.009-0.039
		c-10.363,4.393-20.726,8.786-31.088,13.18c-3.451,1.456-5.154,3.404-5.504,5.737c-0.683,6.517,0.89,10.411,4.032,12.483
		l12.634-5.658c1.763,2.762,3.095,5.739,4.031,8.916l-19.999,7.596C39.41,318.673,95.782,371.775,186.99,379.105L198.881,390.424
		L198.881,390.424z"/>
	<path fill-rule="evenodd" clip-rule="evenodd" fill="#001C71" d="M343.679,211.058c-8.163,9.065-8.573,19.484-9.69,30.814
		c2.867,0.991,5.734,1.982,8.601,2.973c1.399-3.187,2.797-6.375,4.195-9.562c0.296-0.562-0.506-0.791-1.278-0.135
		c-1.964,1.706-3.695,4.611-5.738,5.211c-1.42,0.013-2.843,0.026-4.263,0.039c0.141-1.163,0.284-2.092,0.426-3.255
		c1.967,0.564,3.532,0.846,3.953,0.31c1.305-1.576,2.93-3.2,4.235-4.777c0.805-0.612,1.511-0.736,2.781-0.418
		c5.834,2.264,11.667,4.529,17.501,6.793c0.96-3.172,2.298-6.196,4.035-9.017c-4.995-2.101-9.99-4.203-14.984-6.305
		c-0.917-0.346-1.006-1.346-1.008-3.101c0.564-3.592,2.213-8.314,0.005-10.901c-1.165-1.119-3.256-1.639-5.055-0.888
		C346.118,209.498,344.869,210.248,343.679,211.058L343.679,211.058z M54.083,211.058c8.163,9.065,8.573,19.484,9.69,30.814
		c-2.867,0.991-5.734,1.982-8.601,2.973c-1.398-3.187-2.797-6.375-4.195-9.562c-0.296-0.562,0.506-0.791,1.279-0.135
		c1.964,1.706,3.695,4.611,5.737,5.211c1.421,0.013,2.843,0.026,4.264,0.039c-0.142-1.163-0.284-2.092-0.426-3.255
		c-1.968,0.564-3.533,0.846-3.954,0.31c-1.305-1.576-2.93-3.2-4.234-4.777c-0.806-0.612-1.511-0.736-2.782-0.418
		c-5.833,2.264-11.667,4.529-17.5,6.793c-0.96-3.172-2.298-6.196-4.035-9.017c4.995-2.101,9.99-4.203,14.984-6.305
		c0.917-0.346,1.006-1.346,1.008-3.101c-0.564-3.592-2.213-8.314-0.005-10.901c1.165-1.119,3.256-1.639,5.055-0.888
		C51.644,209.498,52.894,210.248,54.083,211.058L54.083,211.058z M14.064,232.929c-1.591-2.137-1.518-5.39-1.2-7.892
		c0.185-1.447,2.232-2.455,3.386-2.943c8.27-3.497,16.474-7.151,24.764-10.601c0.196,3.071,0.392,6.142,0.589,9.214
		c0.02,0.306-0.151,0.579-0.435,0.695C31.832,225.234,23.279,228.801,14.064,232.929L14.064,232.929z M52.043,245.926
		c0.615,1.201,1.229,2.403,1.843,3.603c19.2,37.528,49.38,66.562,89.36,80.859c17.858,6.386,36.685,9.436,55.634,9.436
		c18.949,0,37.776-3.049,55.634-9.436c39.98-14.296,70.161-43.331,89.36-80.859c0.615-1.201,1.229-2.402,1.844-3.603
		c1.282-2.908,2.564-5.816,3.846-8.723c0.156-0.354,0.57-0.515,0.924-0.361c4.302,1.874,8.604,3.748,12.906,5.621
		c6.545,2.486,13.09,4.971,19.635,7.458c-31.865,74.061-90.32,119.072-172.539,125.678c-0.413,0.034-0.827,0.067-1.24,0.1
		c-3.456,3.29-6.913,6.58-10.369,9.87c-3.456-3.29-6.913-6.58-10.369-9.87c-0.414-0.033-0.827-0.066-1.241-0.1
		c-82.219-6.606-140.674-51.617-172.538-125.678c6.545-2.487,13.089-4.972,19.634-7.458c4.302-1.874,8.604-3.748,12.906-5.621
		c0.354-0.154,0.768,0.007,0.924,0.361C49.479,240.11,50.761,243.018,52.043,245.926L52.043,245.926z M383.698,232.929
		c1.591-2.137,1.518-5.39,1.199-7.892c-0.184-1.447-2.232-2.455-3.385-2.943c-8.27-3.497-16.474-7.151-24.764-10.601
		c-0.196,3.071-0.392,6.142-0.589,9.214c-0.019,0.306,0.151,0.579,0.435,0.695C365.93,225.234,374.483,228.801,383.698,232.929
		L383.698,232.929z"/>
	<path fill-rule="evenodd" clip-rule="evenodd" fill="#001C71" d="M214.925,330.495c-5.067,5.21-10.136,10.42-15.203,15.629
		l-0.84,0.864l-0.84-0.864c-5.068-5.209-10.136-10.419-15.204-15.629c-29.809-3.248-58.514-14.289-81.931-33.181
		c-20.337-16.408-36.349-38.65-42.973-64.125c-6.437-24.759-2.403-50.683,4.858-74.788c3.061-10.162,7.677-19.797,10.345-30.084
		c1.97-7.595,3.806-16.128,2.642-23.985c-2.289-15.442-15.436-29.53-26.602-39.535l-0.96-0.86l0.947-0.874
		c19.2-17.734,38.401-35.468,57.602-53.202l0.856-0.791l0.795,0.852c12.405,13.289,34.799,16.482,52.034,14.86
		c13.086-1.232,27.168-5.441,37.718-13.5l0.711-0.543l0.711,0.543c10.551,8.06,24.633,12.268,37.718,13.5
		c17.236,1.623,39.629-1.57,52.034-14.86l0.795-0.852l0.857,0.791c19.201,17.734,38.402,35.468,57.602,53.202l0.947,0.874
		l-0.959,0.86c-11.166,10.005-24.313,24.093-26.602,39.535c-1.165,7.856,0.672,16.39,2.642,23.985
		c2.669,10.287,7.284,19.922,10.345,30.084c7.261,24.105,11.295,50.029,4.858,74.788c-6.624,25.475-22.635,47.717-42.972,64.125
		C273.439,316.206,244.735,327.247,214.925,330.495L214.925,330.495z"/>
	<path fill-rule="evenodd" clip-rule="evenodd" fill="#FFFFFF" d="M198.881,12.213c24.723,18.885,71.896,19.317,91.321-1.491
		c19.201,17.734,38.402,35.468,57.602,53.202c-14.33,12.84-24.693,26.349-26.979,40.236c-1.007,7.637,0.716,15.792,2.667,24.451
		c3.026,10.294,7.234,19.988,10.356,30.128c7.548,25.627,9.858,50.233,4.846,74.155c-14.653,46.997-59.72,89.603-124.315,96.482
		c-5.166,5.311-10.332,10.621-15.499,15.932c-5.166-5.311-10.332-10.621-15.498-15.932c-64.595-6.879-109.662-49.485-124.315-96.482
		c-5.012-23.922-2.702-48.528,4.845-74.155c3.123-10.139,7.331-19.833,10.357-30.128c1.951-8.659,3.674-16.814,2.667-24.451
		c-2.286-13.887-12.649-27.396-26.979-40.236c19.2-17.734,38.402-35.468,57.602-53.202
		C126.985,31.531,174.158,31.099,198.881,12.213L198.881,12.213z"/>
	<path fill-rule="evenodd" clip-rule="evenodd" fill="#001C71" d="M198.881,19.498c-11.087,7.243-24.77,11.155-37.762,12.379
		c-17.681,1.664-39.232-1.369-53.569-13.041c-16.277,15.033-32.554,30.066-48.83,45.1c11.083,10.689,21.857,24.179,24.106,39.352
		c1.324,8.933-0.553,18.184-2.793,26.819c-2.706,10.43-7.329,20.09-10.419,30.35c-6.87,22.807-10.88,47.494-4.784,70.939
		c6.236,23.987,21.409,44.93,40.551,60.372c22.459,18.12,50.037,28.643,78.632,31.688l2.138,0.228l1.499,1.542
		c3.744,3.848,7.487,7.696,11.231,11.544c3.744-3.848,7.487-7.696,11.231-11.544l1.5-1.542l2.138-0.228
		c28.595-3.045,56.174-13.567,78.632-31.688c19.141-15.442,34.314-36.386,40.551-60.372c6.096-23.445,2.086-48.132-4.784-70.939
		c-3.091-10.26-7.714-19.92-10.419-30.35c-2.24-8.635-4.118-17.886-2.793-26.819c2.249-15.173,13.023-28.662,24.106-39.352
		c-16.277-15.033-32.553-30.066-48.83-45.1c-14.337,11.672-35.887,14.705-53.569,13.041
		C223.651,30.653,209.968,26.741,198.881,19.498L198.881,19.498z"/>
	<path fill-rule="evenodd" clip-rule="evenodd" fill="#FFFFFF" d="M274.662,100.586l-0.083,0.085c2.65,1.76,4.907,3.703,6.983,5.73
		c-0.93,1.047-1.861,2.093-2.791,3.14c-1.282-2.853-2.835-5.576-5-8.006c-2.165,2.43-3.717,5.153-5.001,8.006
		c-0.93-1.047-1.861-2.093-2.791-3.14c2.076-2.027,4.334-3.97,6.983-5.73l-0.083-0.085c0.2-0.207,0.401-0.413,0.601-0.62
		l0.291,0.182l0.291-0.182C274.261,100.172,274.461,100.379,274.662,100.586L274.662,100.586z M124.884,100.586l-0.084,0.085
		c2.65,1.76,4.907,3.703,6.983,5.73c-0.931,1.047-1.861,2.093-2.791,3.14c-1.283-2.853-2.836-5.576-5.001-8.006
		c-2.165,2.43-3.718,5.153-5,8.006c-0.93-1.047-1.861-2.093-2.791-3.14c2.076-2.027,4.334-3.97,6.983-5.73l-0.084-0.085
		c0.2-0.207,0.401-0.413,0.601-0.62l0.291,0.182l0.291-0.182C124.483,100.172,124.684,100.379,124.884,100.586L124.884,100.586z
		 M102.596,59.945c2.751-3.852,2.317-7.651,0.612-11.656C100.644,52.244,100.262,56.275,102.596,59.945L102.596,59.945z
		 M105.473,57.768c4.335-2.159,5.575-5.2,6.083-9.524C107.367,50.404,105.268,53.423,105.473,57.768L105.473,57.768z
		 M102.586,64.202c4.297-0.898,6.238-2.99,6.993-6.573C106.327,58.374,103.609,59.821,102.586,64.202L102.586,64.202z
		 M100.741,66.905c1.893-4.458,0.86-7.576-1.563-11.193C97.396,60.075,97.762,63.735,100.741,66.905L100.741,66.905z M99.781,71.609
		c-3.828-1.914-6.341-5.812-5.245-9.875C98.528,63.575,100.368,67.05,99.781,71.609L99.781,71.609z M100.69,73.786
		c4.373-2.855,4.85-4.963,5.126-9.318C101.778,66.899,100.397,69.298,100.69,73.786L100.69,73.786z M101.383,79.124
		c-4.1-1.227-7.246-4.634-6.866-8.826C98.767,71.425,101.178,74.532,101.383,79.124L101.383,79.124z M103.499,73.491
		c-1.514,4.796-0.792,8.81,2.016,11.668C106.995,80.789,106.579,76.769,103.499,73.491L103.499,73.491z M103.266,84.151
		c-4.943-0.26-8.365-2.001-9.381-6.086C98.27,77.736,101.363,79.828,103.266,84.151L103.266,84.151z M107.104,91.128
		c-4.943-0.26-8.365-2.001-9.381-6.086C102.107,84.714,105.201,86.805,107.104,91.128L107.104,91.128z M106.831,83.801
		c-0.74,4.619,1.167,8.173,5.117,9.923C111.698,88.689,110.447,85.297,106.831,83.801L106.831,83.801z M121.318,98.299
		c-4.125-0.09-7.681-2.875-8.48-6.648C117.574,91.775,120.815,94.66,121.318,98.299L121.318,98.299z M110.792,94.887
		c-2.963-3.051-6.56-4.029-10.888-2.015C102.974,96.073,106.645,96.794,110.792,94.887L110.792,94.887z M116.307,97.471
		c-3.797-1.915-7.517-1.664-10.949,1.653C109.306,101.147,113.012,100.629,116.307,97.471L116.307,97.471z M123.12,99.753
		c-3.929-1.628-7.619-1.102-10.796,2.462C116.412,103.938,120.069,103.146,123.12,99.753L123.12,99.753z M145.388,59.945
		c-2.751-3.852-2.317-7.651-0.612-11.656C147.34,52.244,147.722,56.275,145.388,59.945L145.388,59.945z M142.512,57.768
		c-4.335-2.159-5.575-5.2-6.083-9.524C140.617,50.404,142.716,53.423,142.512,57.768L142.512,57.768z M145.399,64.202
		c-4.297-0.898-6.239-2.99-6.993-6.573C141.657,58.374,144.375,59.821,145.399,64.202L145.399,64.202z M147.243,66.905
		c-1.893-4.458-0.859-7.576,1.563-11.193C150.588,60.075,150.222,63.735,147.243,66.905L147.243,66.905z M148.203,71.609
		c3.828-1.914,6.341-5.812,5.245-9.875C149.456,63.575,147.615,67.05,148.203,71.609L148.203,71.609z M147.294,73.786
		c-4.373-2.855-4.85-4.963-5.126-9.318C146.205,66.899,147.588,69.298,147.294,73.786L147.294,73.786z M146.601,79.124
		c4.1-1.227,7.246-4.634,6.865-8.826C149.217,71.425,146.807,74.532,146.601,79.124L146.601,79.124z M144.486,73.491
		c1.514,4.796,0.792,8.81-2.016,11.668C140.989,80.789,141.405,76.769,144.486,73.491L144.486,73.491z M144.718,84.151
		c4.943-0.26,8.365-2.001,9.381-6.086C149.714,77.736,146.621,79.828,144.718,84.151L144.718,84.151z M140.88,91.128
		c4.943-0.26,8.365-2.001,9.381-6.086C145.877,84.714,142.783,86.805,140.88,91.128L140.88,91.128z M141.153,83.801
		c0.74,4.619-1.167,8.173-5.117,9.923C136.286,88.689,137.537,85.297,141.153,83.801L141.153,83.801z M126.666,98.299
		c4.125-0.09,7.681-2.875,8.479-6.648C130.41,91.775,127.169,94.66,126.666,98.299L126.666,98.299z M137.192,94.887
		c2.963-3.051,6.56-4.029,10.888-2.015C145.01,96.073,141.339,96.794,137.192,94.887L137.192,94.887z M131.677,97.471
		c3.798-1.915,7.517-1.664,10.949,1.653C138.678,101.147,134.972,100.629,131.677,97.471L131.677,97.471z M124.864,99.753
		c3.929-1.628,7.619-1.102,10.796,2.462C131.572,103.938,127.915,103.146,124.864,99.753L124.864,99.753z M252.374,59.945
		c2.751-3.852,2.317-7.651,0.612-11.656C250.422,52.244,250.04,56.275,252.374,59.945L252.374,59.945z M255.251,57.768
		c4.335-2.159,5.575-5.2,6.083-9.524C257.145,50.404,255.046,53.423,255.251,57.768L255.251,57.768z M252.364,64.202
		c4.296-0.898,6.239-2.99,6.994-6.573C256.105,58.374,253.388,59.821,252.364,64.202L252.364,64.202z M250.519,66.905
		c1.893-4.458,0.859-7.576-1.564-11.193C247.174,60.075,247.54,63.735,250.519,66.905L250.519,66.905z M249.559,71.609
		c-3.828-1.914-6.341-5.812-5.244-9.875C248.307,63.575,250.147,67.05,249.559,71.609L249.559,71.609z M250.468,73.786
		c4.373-2.855,4.849-4.963,5.126-9.318C251.557,66.899,250.174,69.298,250.468,73.786L250.468,73.786z M251.161,79.124
		c-4.1-1.227-7.246-4.634-6.865-8.826C248.546,71.425,250.955,74.532,251.161,79.124L251.161,79.124z M253.276,73.491
		c-1.514,4.796-0.791,8.81,2.016,11.668C256.773,80.789,256.357,76.769,253.276,73.491L253.276,73.491z M253.045,84.151
		c-4.943-0.26-8.366-2.001-9.381-6.086C248.048,77.736,251.141,79.828,253.045,84.151L253.045,84.151z M256.882,91.128
		c-4.943-0.26-8.366-2.001-9.381-6.086C251.886,84.714,254.979,86.805,256.882,91.128L256.882,91.128z M256.609,83.801
		c-0.741,4.619,1.167,8.173,5.117,9.923C261.476,88.689,260.225,85.297,256.609,83.801L256.609,83.801z M271.097,98.299
		c-4.126-0.09-7.682-2.875-8.48-6.648C267.352,91.775,270.594,94.66,271.097,98.299L271.097,98.299z M260.57,94.887
		c-2.963-3.051-6.56-4.029-10.888-2.015C252.752,96.073,256.423,96.794,260.57,94.887L260.57,94.887z M266.085,97.471
		c-3.797-1.915-7.517-1.664-10.949,1.653C259.084,101.147,262.789,100.629,266.085,97.471L266.085,97.471z M272.899,99.753
		c-3.929-1.628-7.619-1.102-10.796,2.462C266.19,103.938,269.847,103.146,272.899,99.753L272.899,99.753z M295.166,59.945
		c-2.751-3.852-2.317-7.651-0.612-11.656C297.119,52.244,297.501,56.275,295.166,59.945L295.166,59.945z M292.29,57.768
		c-4.336-2.159-5.576-5.2-6.084-9.524C290.395,50.404,292.494,53.423,292.29,57.768L292.29,57.768z M295.177,64.202
		c-4.297-0.898-6.239-2.99-6.994-6.573C291.435,58.374,294.153,59.821,295.177,64.202L295.177,64.202z M297.022,66.905
		c-1.894-4.458-0.86-7.576,1.563-11.193C300.366,60.075,300,63.735,297.022,66.905L297.022,66.905z M297.981,71.609
		c3.828-1.914,6.341-5.812,5.245-9.875C299.234,63.575,297.394,67.05,297.981,71.609L297.981,71.609z M297.072,73.786
		c-4.373-2.855-4.85-4.963-5.126-9.318C295.984,66.899,297.366,69.298,297.072,73.786L297.072,73.786z M296.38,79.124
		c4.099-1.227,7.246-4.634,6.865-8.826C298.995,71.425,296.585,74.532,296.38,79.124L296.38,79.124z M294.264,73.491
		c1.514,4.796,0.792,8.81-2.016,11.668C290.767,80.789,291.183,76.769,294.264,73.491L294.264,73.491z M294.496,84.151
		c4.943-0.26,8.366-2.001,9.381-6.086C299.493,77.736,296.399,79.828,294.496,84.151L294.496,84.151z M290.658,91.128
		c4.943-0.26,8.366-2.001,9.381-6.086C295.655,84.714,292.561,86.805,290.658,91.128L290.658,91.128z M290.931,83.801
		c0.741,4.619-1.167,8.173-5.117,9.923C286.065,88.689,287.315,85.297,290.931,83.801L290.931,83.801z M276.444,98.299
		c4.125-0.09,7.681-2.875,8.479-6.648C280.188,91.775,276.947,94.66,276.444,98.299L276.444,98.299z M286.971,94.887
		c2.963-3.051,6.56-4.029,10.888-2.015C294.789,96.073,291.117,96.794,286.971,94.887L286.971,94.887z M281.455,97.471
		c3.797-1.915,7.517-1.664,10.949,1.653C288.457,101.147,284.751,100.629,281.455,97.471L281.455,97.471z M274.641,99.753
		c3.929-1.628,7.619-1.102,10.796,2.462C281.351,103.938,277.693,103.146,274.641,99.753L274.641,99.753z"/>
	<path fill-rule="evenodd" clip-rule="evenodd" fill="#FFFFFF" d="M197.764,41.588c0.59-1.047,1.746-1.27,2.898-1.295
		c1.548,0.079,2.597,0.862,3.112,2.218c0.326,1.295,0.062,2.694,0.59,3.945c9.494,19.875,18.953,39.896,28.455,59.767
		c0.405,0.848,0.967,1.473,1.767,1.967c2.525,1.559,5.423,3.072,6.23,6.026c0.401,2.465-1.8,4.149-3.688,5.271
		c-0.013,24.488-0.414,48.982-0.208,73.476c0.859,0.663,2.025,1.658,2.008,3.687l-0.232,17.456
		c-0.942,2.707-4.367,2.174-6.643,2.211c-0.032-1.474,0.082-3.188-0.163-4.638c-0.897-0.849-2.134-1.177-3.263-1.598
		c-20.726-7.016-40.3-14.252-63.89-22.562c-1.248-0.372-2.308-1.437-2.258-2.793c-0.082-3.92-0.1-7.847,0-11.761
		c-0.025-1.425,1.593-1.939,2.528-2.694c-0.019-16.653-0.006-33.307-0.113-49.96c-1.424-0.719-3.086-1.517-3.5-3.202
		c-0.959-2.843,0.998-5.636,3.175-7.32c1.167-1.053,2.854-1.635,3.55-3.121c8.839-18.543,17.659-37.097,26.522-55.634
		c0.797-1.703,1.731-3.351,2.34-5.134C197.156,44.455,196.855,42.851,197.764,41.588L197.764,41.588z M175.602,104.863
		c8.312-17.496,16.667-34.973,24.872-52.518c1.198,2.211,2.22,4.515,3.331,6.769c-1.933,0.347-4.871-0.212-5.024,1.61
		c-0.331,0.699,3.794,0.168,5.97,0.639c0.434,0.619,0.544,1.529,0.92,2.185c-1.417,0.533-4.042,0.666-3.88,1.654
		c-0.348,0.84,3.438,0.464,5.175,0.582c0.596,1.331,1,2.832,1.627,4.145c-2.883,0.296-4.857,0.227-7.724,0.741
		c-0.906,0.262-0.117,0.725,1.412,0.935c2.835,0.427,5.087,0.365,7.809,1.344c0.841,0.743,0.956,2.325,1.489,3.28
		c-2.785,0.275-8.028-0.475-7.705,0.509c2.498,2.315,6.09,0.262,9.07,1.977c0.879,1.257,1.276,3.017,1.941,4.385
		c-2.584,0.038-6.62-0.818-9.675,0.637c-1.827,1.811,8.613,0.663,11.743,3.345c0.928,1.387,1.524,2.954,2.246,4.446
		c-5.42-0.489-10.594-0.697-16.039-0.356c-1.103,0.132-1.307,0.806-0.258,0.976c5.984,0.83,12.132,0.879,17.903,2.855
		c0.866,1.783,1.725,3.573,2.591,5.363c-4.73-0.594-9.541-1.685-14.322-0.923c-0.705,0.225-0.423,0.763,0.364,0.929
		c5.037,0.978,10.231,1.246,15.074,3.042c0.679,0.405,1.053,0.805,1.217,1.214c-8.425-1.177-16.894-2.273-25.412-2.403
		C192.018,102.355,183.732,103.21,175.602,104.863L175.602,104.863z M225.685,193.748l6.236,1.703l0.094,12.752l-6.229-2.329
		L225.685,193.748L225.685,193.748z M214.619,190.608l7.176,2.143l-0.019,11.686l-7.164-2.31L214.619,190.608L214.619,190.608z
		 M203.272,186.886l7.22,2.285l0.032,11.569l-7.22-2.899L203.272,186.886L203.272,186.886z M192.633,182.978l6.694,2.224
		l0.069,11.383l-6.781-2.447L192.633,182.978L192.633,182.978z M181.68,179.176l7.114,2.669l0.076,11.42l-6.938-2.421
		L181.68,179.176L181.68,179.176z M171.123,175.237l6.492,2.545l0.176,11.736l-6.574-2.291L171.123,175.237L171.123,175.237z
		 M207.111,121.646c8.205,0.706,16.486,1.407,24.333,4.014c-0.025,0.96-0.044,1.926-0.063,2.892
		c-4.98-1.127-10.168-2.415-15.281-1.666c-1.008,0.206-1.4,0.884-0.821,0.991c5.539,0.514,11.404,0.774,16.203,3.895
		c0.013,1.375,0,2.75-0.025,4.125c-3.846-0.985-7.772-1.592-11.693-2.193c-4.636-0.921-8.353-0.998-13.318-1.077L207.111,121.646
		L207.111,121.646z M195.632,121.647c3.055-0.31,6.128-0.217,9.19-0.18c-0.364,4.849-0.471,9.711-0.828,14.56
		c-2.522-0.074-5.05-0.099-7.572,0.006C196.227,131.234,195.926,126.44,195.632,121.647L195.632,121.647z M174.705,117.318
		c14.195-2.619,28.78-2.619,43.126-1.344c4.573,0.514,9.285,0.923,13.481,2.936c0.013,1.034,0.032,2.537,0.057,3.572
		c-7.296-1.003-16.664-2.581-24.041-2.711c-0.726-0.943-1.307-1.11-3.234-1.232c-3.678,0.006-7.378-0.157-11.051,0.157
		c-0.621,0.053-1.09,0.581-1.072,1.203c0.134,4.39,0.497,9.006,0.699,13.398c-4.159,0.439-8.299,0.75-12.439,1.32
		c-1.345,0.226-2.877,0.28-3.875,1.265c-0.07,0.069-0.09,0.168-0.051,0.258c0.038,0.09,0.124,0.145,0.222,0.142
		c5.428-0.145,10.833-0.534,16.263-0.744c0.052,0.653,0.115,1.211,0.184,1.797c0.071,0.592,0.567,1.033,1.163,1.033
		c3.109,0.002,6.213-0.116,9.322,0.001c0.847-0.075,1.864,0.248,2.566-0.384c0.201-0.854,0.358-1.721,0.477-2.594
		c3.632-0.019,7.245,0.446,10.833,0.941c4.856,0.799,9.781,1.641,14.258,3.747c-0.006,1.059-0.019,2.124-0.031,3.189
		c-5.138-0.997-10.246-2.031-15.527-1.752c-0.992,0.146-1.543,0.245-1.987,0.732c-0.06,0.066-0.077,0.155-0.047,0.239
		c0.032,0.084,0.102,0.141,0.191,0.151c5.679,0.715,11.968,1.241,17.023,4.138l0.244,3.446c-11.354-2.329-22.686-3.735-34.31-2.954
		c-4.793,0.378-9.147,0.035-13.771,1.496c-0.56,0.233-0.069,0.999,0.966,1.102c9.485-0.439,18.401-0.437,27.866,0.337
		c6.637,0.867,13.368,1.624,19.578,4.206c0.013,1.332,0.025,2.669,0.025,4.001c-8.983-2.031-18.172-2.594-27.387-2.247
		c-1.035,0.146-0.884,0.98-0.126,0.958c9.284,0.576,18.629,1.196,27.31,4.781c0,1.356,0.025,2.713,0.05,4.075
		c-4.572-0.619-8.512-0.991-13.122-0.57c-1.227,0.327-0.937,0.914-0.038,1.189c4.723,0.241,9.029,0.54,13.432,2.354
		c-0.012,1.79-0.025,3.58-0.025,5.376c-6.33-2.18-13.123-1.741-19.722-1.456c-1.203,0.245-1.514,0.741-1.684,1.278
		c-0.023,0.073-0.011,0.146,0.034,0.208c0.045,0.062,0.111,0.096,0.187,0.096c7.18,0.088,14.473,0.267,21.28,2.747
		c-0.007,1.647-0.013,3.301-0.026,4.948c-3.826-0.885-7.734-1.11-11.673-1.135c-2.001,0.004-3.053,1.398-1.66,1.712
		c2.579,0.181,4.3-0.081,6.866,0.241c2.221,0.229,4.341,0.947,6.486,1.517c-0.013,2.521,0.115,5.894,0.053,8.421l-54.462-18.144
		c-2.239-0.917-5.668-2.302-6.386-5.14c-0.678-6.912-0.498-12.635-0.535-19.578c-0.094-9.705-0.126-19.41-0.207-29.115
		C170.176,118.668,172.929,117.757,174.705,117.318L174.705,117.318z M174.567,109.824c17.37-3.357,35.599-4.032,52.799,0.619
		c2.691,0.818,5.104,1.075,6.465,3.794c0.141,0.63,0.025,1.901-0.549,2.004c-2.007-0.025-3.726-1.245-5.627-1.722
		c-10.068-2.874-20.65-3.53-31.082-3.332c-8.939,0.254-17.928,1.288-26.478,3.951c-0.834,0.204-1.687,0.501-2.553,0.365
		c-1.005-0.388-1.698-1.601-1.103-2.353C168.696,110.852,171.556,110.449,174.567,109.824L174.567,109.824z"/>
	<path fill-rule="evenodd" clip-rule="evenodd" fill="#FFFFFF" d="M101.913,221.542c1.172,3.059,1.014,6.314,1.093,9.468
		l0.058,22.918c-0.025,3.263-0.321,6.349-0.841,9.383c-0.021,0.099,0.042,0.137,0.1,0.136c8.759-0.047,17.405-0.242,26.146,0.222
		c0.095,0.009,0.111-0.063,0.124-0.127c0.453-2.092,1.234-4.515,1.817-6.65c0.216-0.766-0.234-1.836-1.311-1.007
		c-2.204,1.688-4.902,3.015-7.639,3.04l-3.387-0.009c-4.912-0.009-5.82-1.769-5.8-6.899l0.005-8.913
		c0.002-0.112,0.12-0.137,0.21-0.137c4.254,0.02,8.341,0.058,12.555,0.556c0.075,0.009,0.09-0.038,0.101-0.077
		c0.475-1.774,0.939-3.403,1.42-5.114c0.126-0.336,0.019-0.586-0.428-0.494c-4.478,0.592-9.197,0.423-13.79,0.493
		c-0.051,0-0.087-0.072-0.087-0.096c0.04-4.15-0.03-8.261,0.211-12.41c0.012-0.136,0.042-0.189,0.199-0.185
		c5.428-0.222,10.671-0.284,12.737,3.123c0.226,0.43,0.723,0.276,0.812,0.017c0.7-2.468,1.367-4.818,2.067-7.286
		c0.02-0.066-0.058-0.166-0.161-0.162c-8.628,0.219-17.331,0.19-25.997,0.028C101.948,221.357,101.872,221.421,101.913,221.542
		L101.913,221.542z M265.165,233.683c-0.057-0.165-0.01-0.267,0.17-0.266c2.893,0.037,5.827,0.021,8.648-0.219
		c0.162-0.018,0.332,0.08,0.323,0.267c-0.076,1.769-0.167,3.88-0.219,5.074c2.987-3.25,7.152-5.783,10.956-5.758
		c5.873,0.038,9.578,2.851,9.52,10.661c0.013,3.51,0.026,7.019,0.039,10.528c-0.006,3.313,0.405,6.968,1.235,9.255
		c0.07,0.195-0.036,0.226-0.19,0.218c-3.1-0.195-6.315-0.171-9.501,0c-0.236,0.02-0.317-0.107-0.286-0.275
		c0.485-3.05,0.712-5.948,0.712-8.951l-0.001-9.483c0.051-2.401-0.772-6.065-5.435-6.062c-3.053,0.002-6.677,2.572-6.766,6.994
		v8.019c0.032,3.322,0.329,6.872,1.236,9.512c0.068,0.212-0.078,0.292-0.266,0.266c-3.181-0.15-6.268-0.13-9.374-0.023
		c-0.202,0.01-0.281-0.049-0.241-0.216c0.58-3.607,0.667-7.43,0.714-11.106l0.028-7.9
		C266.478,240.779,266.03,236.329,265.165,233.683L265.165,233.683z M248.218,232.816c-10.535,0.303-16.244,6.616-16.305,16.229
		c-0.061,9.693,5.333,15.643,15.582,15.393c9.777-0.24,15.693-6.454,15.963-16.609C263.672,239.824,258.632,232.517,248.218,232.816
		L248.218,232.816z M247.228,236.349c6.284-0.208,7.421,6.944,7.526,12.086c0.113,5.559-0.674,12.49-7.145,12.542
		c-5.824,0.048-7.057-7.036-7.069-12.618C240.53,244.509,240.887,236.56,247.228,236.349L247.228,236.349z M213.896,228.287
		c-0.086,0.036-0.056,0.091-0.035,0.178c0.17,1.752,0.237,3.513,0.256,5.255c-0.002,0.076-0.022,0.204-0.137,0.199
		c-1.147-0.038-2.247,0.01-3.397-0.161c-0.099-0.007-0.203,0.045-0.228,0.133l-1.093,3.905c-0.117,0.53,0.079,0.697,0.589,0.59
		c1.269-0.187,2.616-0.298,3.782-0.304c0.229-0.029,0.285,0.123,0.285,0.304l0.038,16.553c-0.038,7.044,3.629,9.586,8.437,9.502
		c2.387-0.042,4.842-0.535,7.164-1.216c0.128-0.041,0.199-0.082,0.257-0.21l1.159-4c0.232-0.678-0.355-1.032-0.817-0.75
		c-0.896,0.519-2.286,1.13-3.715,1.131c-3.647,0.002-4.65-2.571-4.666-6.793v-10.376c0.01-1.255,0.125-3.539,0.168-3.95
		c0.003-0.097,0.08-0.155,0.222-0.155c2.593,0.039,5.254-0.054,7.839,0.275c0.08,0.009,0.144-0.051,0.166-0.119l1.121-4.12
		c0.159-0.451,0.07-0.87-0.636-0.684c-0.943,0.222-1.963,0.415-2.945,0.409l-5.626,0.038c-0.084-0.005-0.108-0.088-0.107-0.166
		c-0.008-2.634,0.233-5.462,0.515-8.148c0.079-0.85-0.345-1.043-1.102-0.608C219.257,226.253,216.498,227.487,213.896,228.287
		L213.896,228.287z M186.796,233.761c-0.153,0.002-0.193,0.088-0.162,0.199c0.713,2.027,1.35,6.753,1.283,10.129l-0.038,10.109
		c-0.238,3.006-0.119,6.436-0.69,9.109c-0.021,0.103,0.01,0.169,0.138,0.156c3.125-0.198,6.307-0.158,9.531-0.038
		c0.075,0.002,0.205-0.002,0.147-0.152c-0.963-2.579-1.241-5.84-1.291-9.103l0.038-6.044c0-4.877,2.547-7.967,5.359-7.905
		c1.381,0.031,1.976,0.845,2.832,1.853c0.284,0.335,0.81,0.311,0.931-0.047l2.333-8.362c0.078-0.176-0.011-0.235-0.223-0.366
		c-0.58-0.337-1.596-0.473-2.604-0.47c-4.334,0.014-6.799,4.045-9.464,7.678c0.041-2.272,0.082-4.543,0.124-6.813
		c-0.089-0.057-0.178-0.114-0.266-0.17C192.116,233.644,189.475,233.724,186.796,233.761L186.796,233.761z M166.033,247.989
		c-0.083-0.002-0.135,0.016-0.138,0.086c0.107,6.264,3.628,11.241,10.35,11.213c2.3-0.01,4.295-0.577,6.328-2.033
		c0.453-0.317,1.115-0.106,0.912,0.75l-1.263,4.561c-0.022,0.077-0.109,0.134-0.19,0.162c-2.998,0.935-6.455,1.733-9.368,1.757
		c-8.447,0.071-15.53-5.895-15.184-15.963c0.351-10.175,6.467-15.622,14.71-15.621c5.906,0.001,11.954,3.066,12.01,11.669
		c0.007,1.055,0.016,2.566-0.589,3.107c-0.112,0.115-0.27,0.128-0.451,0.124L166.033,247.989L166.033,247.989z M165.912,244.219
		c0.157-3.744,1.23-7.696,5.701-7.734c2.858,0.069,4.767,2.002,4.77,4.58C176.389,245.403,171.938,243.724,165.912,244.219
		L165.912,244.219z M128.306,233.513c-0.061,0.001-0.088,0.072-0.043,0.111c1.924,2.203,3.06,4.757,3.977,7.207
		c1.951,5.84,3.902,11.68,5.853,17.52c0.521,1.644,0.995,3.361,1.178,4.932c0.007,0.122,0.081,0.191,0.199,0.18
		c2.249-0.162,4.669-0.164,6.975-0.132c0.075,0.006,0.181-0.027,0.19-0.109c0.356-1.692,0.756-3.246,1.378-4.904l7.231-16.827
		c1.117-2.579,2.632-5.302,4.215-7.483c0.446-0.503,0.494-0.988-0.571-0.855c-2.469,0.192-4.919,0.327-7.35,0.233
		c-0.196-0.011-0.264,0.063-0.247,0.181c0.178,3.237-0.671,6.321-1.805,9.254l-4.675,12.352l-4.56-15.583
		c-0.494-2.048-0.805-4.072-1.102-6.233c-0.018-0.098-0.014-0.233-0.211-0.216C135.465,233.471,131.864,233.543,128.306,233.513
		L128.306,233.513z"/>
	<path fill-rule="evenodd" clip-rule="evenodd" fill="#FFFFFF" d="M170.55,282.693c-0.116,0.005-0.227,0.045-0.26,0.189
		c-0.111,0.606-0.343,1.163-0.63,1.736c-0.1,0.178,0.119,0.321,0.279,0.267c0.929-0.351,3.385-1.002,4.032-0.968
		c0.816,0.044,1.303,0.309,1.292,2.732l-0.037,12.45c-0.094,1.7-0.096,3.467-0.386,4.908c-0.007,0.056,0.017,0.097,0.102,0.089
		c1.208-0.085,2.34-0.118,3.548-0.014c0.054,0.011,0.103-0.017,0.076-0.092c-0.351-1.329-0.563-2.917-0.617-4.899l0.006-12.391
		c0.153-1.763,0.136-3.531,0.407-5.281c0.041-0.232-0.191-0.352-0.445-0.295C176.211,281.675,171.624,282.71,170.55,282.693
		L170.55,282.693z M214.744,286.278c0.022-2.948,2.578-5.676,6.612-5.74c3.543-0.056,6.079,2.55,6.029,5.375
		c-0.053,2.971-2.765,4.813-4.36,5.525c2.972,1.553,5.071,3.495,5.102,6.566c0.034,3.336-2.812,6.725-7.766,6.62
		c-3.707-0.078-6.798-2.165-6.779-6.002c0.014-2.857,2.095-4.937,5.208-6.557C216.562,290.738,214.721,289.377,214.744,286.278
		L214.744,286.278z M220.488,293.008c2.367,1.214,4.871,2.747,4.84,5.576c-0.027,2.422-2.16,4.371-4.744,4.34
		c-1.891-0.023-4.487-1.32-4.43-4.484C216.209,295.276,218.623,293.993,220.488,293.008L220.488,293.008z M221.453,290.547
		c2.279-1.196,3.557-2.747,3.556-4.425c-0.002-2.125-1.299-4.02-3.884-3.989c-1.891,0.023-3.745,1.531-3.654,3.707
		C217.562,288.015,219.571,289.349,221.453,290.547L221.453,290.547z M182.936,286.278c0.022-2.948,2.578-5.676,6.612-5.74
		c3.542-0.056,6.079,2.55,6.028,5.375c-0.053,2.971-2.766,4.813-4.36,5.525c2.972,1.553,5.071,3.495,5.102,6.566
		c0.034,3.336-2.812,6.725-7.766,6.62c-3.706-0.078-6.798-2.165-6.779-6.002c0.015-2.857,2.095-4.937,5.208-6.557
		C184.754,290.738,182.913,289.377,182.936,286.278L182.936,286.278z M188.68,293.008c2.367,1.214,4.871,2.747,4.84,5.576
		c-0.027,2.422-2.161,4.371-4.744,4.34c-1.891-0.023-4.486-1.32-4.431-4.484C184.401,295.276,186.815,293.993,188.68,293.008
		L188.68,293.008z M189.645,290.547c2.279-1.196,3.557-2.747,3.556-4.425c-0.001-2.125-1.299-4.02-3.883-3.989
		c-1.892,0.023-3.745,1.531-3.654,3.707C185.754,288.015,187.763,289.349,189.645,290.547L189.645,290.547z M199.383,281.647
		c-0.085,0.017-0.105,0.105-0.107,0.178c-0.162,1.122-0.413,2.226-0.779,3.313c-0.028,0.093,0.011,0.105,0.053,0.129l0.183,0.088
		c0.074,0.032,0.19-0.036,0.276-0.106c1.074-0.701,2.21-0.87,3.262-0.892l8.098,0.018l-11.693,19.715
		c-0.072,0.107-0.116,0.216-0.08,0.302l0.116,0.212c0.043,0.086,0.141,0.124,0.257,0.107c1.273-0.166,2.652-0.094,3.978-0.097
		c0.138,0.023,0.183-0.041,0.16-0.195c0.338-5.382,7.591-17.536,10.199-20.514c0.074-0.086,0.067-0.2,0.037-0.3
		c-0.166-0.589-0.253-1.175-0.322-1.776c-0.013-0.126-0.067-0.243-0.267-0.231c-4.397,0.149-8.769,0.123-13.162,0.064
		C199.527,281.663,199.45,281.638,199.383,281.647L199.383,281.647z"/>
	<path fill-rule="evenodd" clip-rule="evenodd" fill="#FFFFFF" d="M42.508,284.978l15.209-9.503l-1.767-2.827l-9.859,6.161
		l6.264-11.914l-2.496-3.994l-15.209,9.504l1.767,2.828l11.681-7.3l-7.545,13.918L42.508,284.978L42.508,284.978z M52.406,298.668
		l2.103-1.528l-1.646-2.265l10.303-7.485l1.646,2.265l2.103-1.528l-5.468-7.525l-2.103,1.528l1.646,2.264l-10.303,7.485
		l-1.646-2.265l-2.103,1.529L52.406,298.668L52.406,298.668z M64.92,313.022l2.157-1.942l-5.296-5.882l11.17-10.057l-2.478-2.751
		l-13.327,12L64.92,313.022L64.92,313.022z M94.213,320.932l2.377-2.833c-0.408-0.795-0.923-1.551-1.467-2.256
		c-0.67-0.867-1.433-1.655-2.272-2.359c-1.448-1.215-3.14-2.114-5.061-2.194c-1.64-0.069-3.024,0.491-4.084,1.753
		c-0.699,0.833-1.208,1.797-1.286,2.896c-0.084,1.184,0.412,2.38,1,3.381c0.344,0.586,0.733,1.146,1.156,1.678
		c0.438,0.549,0.861,1.111,1.27,1.684c0.329,0.462,0.625,1.007,0.694,1.578c0.062,0.514-0.061,0.988-0.395,1.387
		c-0.291,0.347-0.665,0.632-1.129,0.678c-0.382,0.038-0.764-0.006-1.132-0.115c-0.379-0.111-0.747-0.321-1.075-0.537
		c-0.303-0.199-0.608-0.413-0.886-0.646c-0.889-0.746-1.599-1.668-2.165-2.677c-0.588-1.05-0.985-2.169-1.186-3.353l-2.5,2.98
		c0.422,0.851,0.919,1.664,1.471,2.436c0.699,0.98,1.595,1.853,2.514,2.625c1.511,1.268,3.319,2.289,5.337,2.332
		c1.725,0.036,3.131-0.603,4.24-1.924c0.667-0.796,1.176-1.734,1.217-2.792c0.043-1.106-0.39-2.197-0.944-3.133
		c-0.323-0.547-0.671-1.08-1.052-1.589c-0.37-0.493-0.745-0.982-1.118-1.472c-0.394-0.519-0.948-1.298-1.093-1.942
		c-0.126-0.558,0.042-1.07,0.405-1.503c0.265-0.317,0.609-0.512,1.016-0.582c0.375-0.065,0.749-0.041,1.114,0.068
		c0.379,0.114,0.747,0.268,1.085,0.476c0.327,0.202,0.64,0.426,0.934,0.673c0.844,0.708,1.521,1.562,2.037,2.535
		C93.691,319.049,94.041,319.97,94.213,320.932L94.213,320.932z M104.568,343.493l4.355-18.426l-3.873-2.419l-14.655,11.99
		l3.131,1.956l3.001-2.569l5.807,3.629l-0.994,3.822L104.568,343.493L104.568,343.493z M103.058,334.904l-4.376-2.734l6.535-5.593
		L103.058,334.904L103.058,334.904z M128.217,338.641l1.271-2.605l-12.918-6.301l-1.271,2.605l4.793,2.338l-6.591,13.513
		l3.327,1.623l6.591-13.513L128.217,338.641L128.217,338.641z M135.694,357.393l0.932-2.427l-2.614-1.003l4.564-11.889l2.614,1.003
		l0.932-2.427l-8.684-3.333l-0.931,2.426l2.614,1.004l-4.564,11.889l-2.614-1.004l-0.931,2.427L135.694,357.393L135.694,357.393z
		 M158.343,349.91l0.957-3.571c-0.706-0.549-1.492-1.016-2.283-1.425c-0.974-0.502-1.998-0.894-3.057-1.177
		c-1.82-0.488-3.745-0.587-5.514,0.15c-1.527,0.635-2.53,1.712-2.96,3.315c-0.281,1.048-0.335,2.141,0.059,3.168
		c0.424,1.108,1.379,1.983,2.334,2.642c0.56,0.386,1.149,0.729,1.758,1.032c0.629,0.313,1.25,0.644,1.862,0.99
		c0.493,0.279,0.992,0.649,1.296,1.137c0.274,0.44,0.363,0.921,0.228,1.424c-0.117,0.438-0.335,0.854-0.737,1.092
		c-0.332,0.197-0.694,0.317-1.074,0.376c-0.39,0.059-0.812,0.023-1.201-0.033c-0.359-0.052-0.726-0.117-1.077-0.211
		c-1.121-0.3-2.154-0.836-3.093-1.512c-0.976-0.703-1.809-1.549-2.492-2.537l-1.006,3.757c0.742,0.593,1.535,1.119,2.362,1.587
		c1.048,0.592,2.228,1.005,3.387,1.316c1.899,0.509,3.981,0.669,5.823-0.142c1.58-0.697,2.582-1.867,3.029-3.536
		c0.268-1,0.332-2.071-0.077-3.044c-0.428-1.02-1.282-1.826-2.18-2.441c-0.524-0.359-1.064-0.695-1.625-0.995
		c-0.543-0.29-1.09-0.575-1.635-0.863c-0.577-0.303-1.408-0.774-1.811-1.298c-0.35-0.453-0.414-0.987-0.268-1.534
		c0.107-0.399,0.335-0.721,0.675-0.957c0.314-0.217,0.662-0.354,1.038-0.409c0.392-0.057,0.79-0.073,1.184-0.027
		c0.382,0.044,0.759,0.116,1.131,0.216c1.064,0.285,2.039,0.773,2.918,1.436C157.073,348.424,157.78,349.11,158.343,349.91
		L158.343,349.91z M185.575,367.874l2.496-17.759l-3.301-0.464l-1.618,11.513l-5.1-12.457l-4.663-0.655l-2.496,17.758l3.302,0.464
		l1.917-13.64l5.812,14.726L185.575,367.874L185.575,367.874z M202.348,368.467l0.045-2.599l-2.8-0.048l0.223-12.733l2.799,0.048
		l0.045-2.599l-9.3-0.162l-0.045,2.599l2.799,0.048l-0.222,12.734l-2.799-0.049l-0.045,2.599L202.348,368.467L202.348,368.467z
		 M220.735,353.101l-0.387-3.678c-0.855-0.259-1.756-0.413-2.642-0.511c-1.089-0.12-2.186-0.119-3.275-0.004
		c-1.879,0.198-3.703,0.791-5.094,2.116c-1.196,1.139-1.749,2.508-1.576,4.156c0.114,1.081,0.454,2.117,1.19,2.937
		c0.794,0.883,1.997,1.357,3.126,1.63c0.661,0.159,1.333,0.269,2.011,0.334c0.699,0.067,1.397,0.153,2.092,0.257
		c0.561,0.084,1.159,0.25,1.618,0.598c0.414,0.312,0.669,0.729,0.724,1.248c0.047,0.45-0.007,0.917-0.296,1.283
		c-0.239,0.302-0.534,0.544-0.869,0.735c-0.343,0.195-0.75,0.313-1.133,0.4c-0.355,0.08-0.72,0.151-1.081,0.189
		c-1.152,0.121-2.312-0.009-3.43-0.303c-1.163-0.306-2.244-0.798-3.235-1.475l0.406,3.868c0.905,0.288,1.835,0.495,2.775,0.635
		c1.19,0.178,2.441,0.141,3.634,0.015c1.961-0.206,3.951-0.797,5.384-2.219c1.224-1.215,1.741-2.671,1.561-4.387
		c-0.109-1.034-0.43-2.05-1.163-2.814c-0.766-0.799-1.852-1.245-2.91-1.498c-0.618-0.148-1.243-0.267-1.873-0.346
		c-0.612-0.076-1.224-0.146-1.836-0.219c-0.648-0.077-1.591-0.22-2.156-0.563c-0.489-0.298-0.741-0.772-0.799-1.336
		c-0.043-0.409,0.056-0.795,0.288-1.135c0.214-0.315,0.49-0.568,0.822-0.754c0.345-0.194,0.712-0.351,1.096-0.449
		c0.372-0.095,0.75-0.164,1.132-0.204c1.096-0.115,2.18-0.009,3.239,0.296C219.018,352.168,219.924,352.556,220.735,353.101
		L220.735,353.101z M238.026,363.862l-0.496-2.551l-2.748,0.534l-2.43-12.5l2.748-0.535l-0.496-2.551l-9.131,1.774l0.497,2.552
		l2.748-0.535l2.43,12.501l-2.748,0.535l0.496,2.551L238.026,363.862L238.026,363.862z M265.871,346.38
		c-0.813-2.359-2.142-4.517-4.375-5.754c-2.125-1.177-4.409-1.12-6.671-0.342c-2.268,0.781-4.103,2.13-5.05,4.376
		c-0.99,2.347-0.7,4.871,0.11,7.224c0.81,2.351,2.135,4.497,4.354,5.74c2.123,1.188,4.413,1.131,6.677,0.351
		c2.272-0.782,4.108-2.139,5.053-4.391C266.954,351.24,266.681,348.734,265.871,346.38L265.871,346.38z M262.554,352.741
		c-0.204,0.619-0.529,1.173-1,1.626c-0.443,0.428-0.959,0.745-1.542,0.946c-0.581,0.2-1.18,0.271-1.791,0.213
		c-0.646-0.061-1.242-0.295-1.784-0.648c-0.631-0.411-1.152-0.986-1.588-1.594c-0.572-0.794-0.983-1.739-1.3-2.659
		c-0.321-0.935-0.564-1.928-0.609-2.919c-0.033-0.753,0.013-1.56,0.276-2.273c0.223-0.602,0.552-1.158,1.025-1.596
		c0.438-0.406,0.946-0.701,1.512-0.896c0.569-0.195,1.16-0.269,1.759-0.216c0.647,0.058,1.245,0.296,1.788,0.646
		c0.628,0.406,1.156,0.983,1.59,1.586c0.577,0.799,0.994,1.746,1.314,2.674c0.305,0.887,0.549,1.829,0.613,2.768
		C262.87,351.19,262.802,351.985,262.554,352.741L262.554,352.741z M267.958,335.859l7.58,16.253l3.355-1.565l-2.566-5.502
		l2.802-1.307c0.902-0.421,1.819-0.983,2.476-1.743c0.595-0.688,1.017-1.483,1.294-2.347c0.224-0.7,0.257-1.436,0.174-2.163
		c-0.088-0.791-0.303-1.553-0.64-2.274c-0.376-0.806-0.879-1.585-1.569-2.157c-0.607-0.503-1.294-0.825-2.068-0.97
		c-0.682-0.127-1.376-0.117-2.058,0.001c-0.865,0.149-1.738,0.489-2.531,0.858L267.958,335.859L267.958,335.859z M278.992,336.939
		c0.208,0.444,0.38,0.931,0.435,1.421c0.049,0.446-0.009,0.883-0.177,1.298c-0.199,0.495-0.543,0.896-0.968,1.213
		c-0.507,0.377-1.105,0.688-1.677,0.955l-1.461,0.682l-2.658-5.698l1.004-0.468c0.53-0.247,1.065-0.492,1.606-0.715
		c0.472-0.195,0.976-0.279,1.483-0.292c0.481-0.012,0.938,0.143,1.347,0.385C278.411,336.004,278.756,336.433,278.992,336.939
		L278.992,336.939z M296.695,323.684l-1.536-2.458l-12.189,7.616l1.536,2.458l4.523-2.827l7.968,12.751l3.14-1.962l-7.968-12.751
		L296.695,323.684L296.695,323.684z M316.714,327.442l-1.601-2.048l-2.206,1.723l-7.84-10.035l2.206-1.724l-1.601-2.048l-7.33,5.726
		l1.601,2.048l2.206-1.723l7.841,10.035l-2.206,1.724l1.601,2.048L316.714,327.442L316.714,327.442z M334.793,310.825l-12.458-12.9
		l-3.259,3.147l3.968,9.961l-9.828-4.303l-3.257,3.145l12.458,12.901l2.48-2.395l-9.721-10.066l9.383,4.304l1.84-1.777l-3.974-9.527
		l9.721,10.066L334.793,310.825L334.793,310.825z M334.986,282.357l-2.294,2.936l8.884,6.941c0.828,0.647,1.738,1.542,1.967,2.61
		c0.218,1.018-0.216,1.965-0.832,2.754c-0.628,0.804-1.456,1.457-2.52,1.458c-1.078,0.002-2.131-0.626-2.954-1.269l-8.884-6.941
		l-2.294,2.936l9.103,7.112c1.461,1.141,3.191,1.939,5.079,1.665c1.969-0.286,3.536-1.694,4.718-3.206
		c1.182-1.514,2.168-3.376,1.971-5.357c-0.189-1.909-1.384-3.388-2.852-4.535L334.986,282.357L334.986,282.357z M363.112,272.488
		l-15.209-9.503l-2.401,3.842l6.26,8.706l-10.578-1.797l-2.398,3.839l15.208,9.504l1.827-2.924l-11.866-7.415l10.145,1.906
		l1.355-2.169l-6.16-8.283l11.867,7.415L363.112,272.488L363.112,272.488z"/>
</g>
</svg>
