<?xml version="1.0" encoding="utf-8"?>
<!-- Generator: Adobe Illustrator 19.1.0, SVG Export Plug-In . SVG Version: 6.00 Build 0)  -->
<svg version="1.1" id="Layer_1" xmlns="http://www.w3.org/2000/svg" xmlns:xlink="http://www.w3.org/1999/xlink" x="0px" y="0px"
	 viewBox="0 0 250 250" style="enable-background:new 0 0 250 250;" xml:space="preserve">
<style type="text/css">
	.st0{fill-rule:evenodd;clip-rule:evenodd;fill:#00539F;}
	.st1{fill-rule:evenodd;clip-rule:evenodd;fill:#FFFFFF;}
	.st2{fill-rule:evenodd;clip-rule:evenodd;fill:#EEB310;}
</style>
<g>
	<path class="st0" d="M5,125.1C5,59.2,58.4,5.8,124.3,5.8c65.9,0,119.3,53.4,119.3,119.3c0,65.9-53.4,119.3-119.3,119.3
		C58.4,244.4,5,191,5,125.1L5,125.1z"/>
	<path class="st1" d="M11.8,125.1C11.8,63,62.1,12.6,124.3,12.6c62.1,0,112.5,50.4,112.5,112.5c0,62.1-50.4,112.5-112.5,112.5
		C62.1,237.6,11.8,187.2,11.8,125.1L11.8,125.1z"/>
	<path class="st0" d="M124.3,203.7c21,0,40.7-8.2,55.6-23c14.8-14.8,23-34.6,23-55.6c0-21-8.2-40.7-23-55.6
		c-14.8-14.8-34.6-23-55.6-23c-21,0-40.7,8.2-55.6,23c-14.8,14.8-23,34.6-23,55.6c0,21,8.2,40.7,23,55.6
		C83.5,195.5,103.3,203.7,124.3,203.7L124.3,203.7z M46.5,125.1c0-20.8,8.1-40.3,22.8-55c14.7-14.7,34.2-22.8,55-22.8
		c20.8,0,40.3,8.1,55,22.8c14.7,14.7,22.8,34.2,22.8,55c0,20.8-8.1,40.3-22.8,55c-14.7,14.7-34.2,22.8-55,22.8
		c-20.8,0-40.3-8.1-55-22.8C54.6,165.4,46.5,145.9,46.5,125.1L46.5,125.1z"/>
	<path class="st0" d="M103,67c2.8-3.1,14.3-7.8,14.3-7.8c5.2-2.6,5.3-5.6,4.8-7.3c-15.4,0.5-29.6,5.8-41.1,14.6
		c6.6,2.2,17.2,9.9,17.2,9.9C98.5,70.9,100.1,70.1,103,67L103,67z"/>
	<path class="st0" d="M131.8,58.1c0,0,11.5,4.8,14.3,7.8c2.8,3.1,4.4,3.9,4.7,9.5c0,0,9.3-6.8,15.9-9.5c-11.3-8.4-25-13.5-40-14.1
		C126.7,53.6,127.6,56,131.8,58.1L131.8,58.1z"/>
	<path class="st0" d="M60.5,99.1c2.3-1.4,3.5-2.2,7.2-7.4c0,0,3.6-4.4,6-5.5c0,0-0.6-5.5-0.5-6.5c0.1-1,0.2-4.2,1.1-5.3
		c0.7-1,1.3-2.2,1-3c-8.4,7.9-14.9,17.8-18.8,29C57,100.4,58.6,100.3,60.5,99.1L60.5,99.1z"/>
	<path class="st0" d="M175,78.6c0.1,1-0.5,6.5-0.5,6.5c2.3,1,6,5.5,6,5.5c3.8,5.2,4.9,6,7.2,7.4c1.8,1.1,3.3,1.3,3.9,1.3
		c-4-10.8-10.5-20.4-18.7-28c0.1,0.7,0.6,1.4,1,2.1C174.8,74.4,174.9,77.6,175,78.6L175,78.6z"/>
	<path class="st0" d="M74,166.4c-5.5-9.1-1.5-15,0.6-19.3c2.1-4.3,10.6-7.7,10.6-7.7l-0.8-1.9c-2.5,0.6-9.4,2.4-16.8-1.6
		c-7.5-4-7.9-16.5-7.9-16.5c0.4-9.3-3.2-12.6-4.9-13.6c-1.6,6.1-2.5,12.6-2.5,19.2c0,23.9,11.3,45.1,28.7,58.5
		C82,179.5,79,174.8,74,166.4L74,166.4z"/>
	<path class="st0" d="M196.3,125.1c0-7.5-1.1-14.8-3.2-21.6c-1.3,1.4-2.8,4.7-2.4,12.9c0,0-0.4,13.2-7.8,17.2
		c-7.5,4-14.1,2.1-16.5,1.6l-1.5,3.8c0,0,8.5,3.2,10.6,7.5c2.1,4.3,6.8,9.4,1.2,18.5c-5,8.3-7.9,12.9-7,17
		C185.9,168.6,196.3,148.1,196.3,125.1L196.3,125.1z"/>
	<path class="st0" d="M146.6,187.7c-8,2-16.6-7.2-16.6-7.2c-5.7,2.2-9.6,0.3-9.6,0.3c-5,9.1-14.1,6.6-23.7,4.6
		c-7-1.4-9.8,0.6-10.8,1.8c11.1,7.1,24.2,11.2,38.3,11.2c15.2,0,29.3-4.8,41-13C160.9,182.1,154,185.8,146.6,187.7L146.6,187.7z"/>
	<path class="st0" d="M125.1,52.5c0,0-1,4.3-2,5.4c-1,1.1-5,4.3-7.4,5.1c-2.3,0.9-11.5,5.2-12.9,8.8c-1.4,3.6-2.1,7-2.1,7l2.2,2
		c0,0,0.1-5.4,1.8-7.6c1.7-2.2,4.5-5.2,8.9-6.8c4.5-1.7,10.4-6.8,11.2-9.2l0.5,0c0,0,2.8,4.4,4.2,5.2c1.4,0.7,4.8,3,8.1,4
		c3.3,1,6.6,5.1,7.2,6.1c0.5,1,2.1,6.3,2.1,6.3l2.3-2.6c0,0-1.9-5.1-4.2-7.4c-2.3-2.3-4-3.5-8.3-4.8
		C132.4,62.7,125.1,59.9,125.1,52.5L125.1,52.5z"/>
	<path class="st0" d="M75,89c0,0-4.3,4-6.3,6.2c-2,2.3-5.1,7.9-13.5,7.3l0,0.7c0,0,1.7,0.1,3.1,2c1.4,1.9,3.2,3.2,3.4,7.4
		c0.2,4.2,0.2,24.9,19.2,22.8l-0.3-1.3c0,0-4.1,0.6-8.3-2.3c-4.1-2.9-6.6-5.6-7.8-13.3c0,0-1.4-9.7-4-12c-2.6-2.3-1.7-2.3-1.4-2.9
		c0,0,3.1-0.3,6.6-3c3.5-2.7,8.2-7.9,9.2-8.6C75.8,91.4,76.6,90.8,75,89L75,89z"/>
	<path class="st0" d="M82.8,186.4c0,0-0.2-0.6,0.5-1.8c0.7-1.2,2.2-3.8-1.1-10c-3.3-6.2-9-13.6-7.1-20.1c1.9-6.4,5.8-10.3,11-12
		l0.5,2.7c0,0-7.1,2.8-8.6,7.5c-1.5,4.8-1.5,8.3,2.1,14.5c3.6,6.2,5.5,9.1,5,15.1c0,0,5.9-1.6,9.8-1.1c3.9,0.5,10.6,1.3,12.7,0.5
		c2.1-0.8,5.7-0.1,8.2-4.5l2.1,1.8c0,0-3.3,5.8-9.5,5.4c-6.2-0.3-11.4-1.5-13.8-1.8C92.2,182.4,85.8,181.8,82.8,186.4L82.8,186.4z"
		/>
	<path class="st0" d="M135.5,177.1l-2.4,1.3c0,0,3.6,7,11.8,6.5c8.3-0.6,11.5-2.8,13.4-2.9c1.9-0.1,4.3-1.8,9,1.5l0.8-0.3
		c0,0-2.5-4.4-0.1-8.2c2.3-3.9,7-11.2,7.7-16.9c0.7-5.7-0.8-10.8-11.9-16.1l-1.5,3c0,0,9.2,2.7,10.3,8.3c1.2,5.6,1.5,7.4-2,14.2
		c-3.6,6.8-4.8,6.7-4.9,13.2c0,0-1.6-1.5-7.8-0.2C151.7,181.7,141.3,185.9,135.5,177.1L135.5,177.1z"/>
	<path class="st0" d="M125.1,178.5c0,0,2.8,0.5,5.4-2.3c0,0,3.2-1,5-2.3c1.7-1.3,3.9-2.9,3.6-8.9c0,0,2.2-3.6,3.4-5
		c1.1-1.4,1-1.1,4.3-4.2c3.3-3.1,9-6.3,10.5-8.3c1.5-1.9,2.6-3.2,5-10.2c0,0,2-3.6,4.2-5.5c2.3-1.9,3-1.9,1.9-4.1
		c0,0-0.1-1.2,1.3-2.9c1.4-1.7,4.1-4,2.1-4.9c-2-0.8-2.5-1.4-3.3-2.1c-0.7-0.7-1.3-2.1-3.5-3.3c0,0-1-0.9-0.8-1.8
		c0.2-0.9,1.2-2.3,1.4-3.9c0.2-1.6,1.7-1.6,1.9-3.6c0.2-2,0.2-7.3,0.8-9.6c0.5-2.3,2.5-5.3,2.7-7.2c0.2-1.9-0.3-2.5,1.2-7.2
		c0,0,0.9-1.2,0.5-3.3c-0.4-2.2-2.9-8.9-3.6-9.5c-0.7-0.5-0.9-1.3-3.3-0.2c-2.3,1.2-4.7,2.9-5.8,4c-1,1-5.4,2.7-5.9,3.5
		c-0.5,0.8-3.9,3-5,4.2c-1.1,1.2-2.8,3-3.5,4c-0.7,1-1.1,2-3.9,1.1c-2.8-0.8-9.2-2.6-16.7-2.7c0,0-11.1,0.6-17.2,2.9
		c0,0-3.2,1.8-4.5-0.4c-1.3-2.2-9.3-8.4-10.8-8.8c-1.5-0.4-8.1-5.9-13.5-6.9c0,0-3.8,9-2.7,13.6c1.1,4.5,2.2,8.5,2.3,9
		c0,0.5,1.2,2.9,1.7,4.4c0.5,1.6,0.8,5.7,1.2,8.1c0.4,2.4,0.8,3.6,1.4,4.5c0.6,0.8,0.5,1.8,0.9,2.5c0.3,0.6,0.6,0.8,1,1.6
		c0.4,0.8,1.2,1-0.7,3.1c-1.9,2-3.8,5.4-7.4,5.7l0,1c0,0,1.7,1.6,2.5,2.9c0.9,1.3,2.7,2.9,1.1,5.4l5.2,4.3c0,0,1.2-0.1,2.5,4.4
		c1.2,4.5,0.9,6.5,4.8,9.3c3.9,2.8,5.4,3.5,6.6,4.6c1.2,1,3.5,2.5,4.1,3.3c0.6,0.8,1.9,1,2.6,1.5c0.7,0.5,0.5,1.9,2.3,3.3
		c1.8,1.4,3.1,2.9,3.1,3.9c0.1,1-0.2,1.9,0,3.4c0.2,1.5,1.4,4,2.7,4.9c1.3,0.9,1.6,0.9,3.3,1.6C119.2,176,123.3,178.8,125.1,178.5
		L125.1,178.5z"/>
	<path class="st2" d="M140.8,87.4c0,0-8.5-2.8-16-2.5c0,0-14.7,1.4-17.8,3.3c0,0,2.1,2.3,2.7,4.4l-0.8,1c0,0-18.6-18-28.7-20.6
		c0,0-1.9,4.1,0.9,13.9c2.9,9.7,3.9,13,4,14.1c0.1,1,0,3.7,1.1,5.5c1.1,1.9,2.3,4.4,2.7,6.3c0.4,1.9-0.1,2-1.4,3.4
		c-1.4,1.4-5.2,5.1-5.3,6c-0.1,0.8,1.1,2.9,2.1,4.3c0.9,1.4,1,1.9,1.4,3.5c0.4,1.6,0.1,1.7,1.7,2.7c1.7,1,1.8,1.2,2.5,2.3
		c0.7,1.1,1.4,2.9,2.9,3.2c1.5,0.3,2.7,1.1,4.5,1.4c1.8,0.3,2.9,0.8,4,1.8c1.1,1,1.8,1.7,0.8,1.9c-0.9,0.2,0,0.7-2.7-0.3
		c-2.7-1-4.2-2.3-5.1-1.9c-0.9,0.4-2.2,1.1-1.8,1.9c0.4,0.8,1.7,2.8,3,3.5c1.3,0.6,0.9,0.6,3.1,1.8c2.2,1.2,2.6,1.2,4.5,3.3
		c1.9,2.1,0.9,1.3,3,2.8c2.1,1.6,1.7,1.8,3.2,3c0,0,3.8,4.9,3.9,6.6c0,0,1.6-4.9,1.3-6.3l2.1-0.3c0,0,1.5-4.6,2-7.2
		c0.5-2.6,1.5-5,1-7c-0.5-2,0.8-5.4,1.2-6.1c0.4-0.7,0.2-2.2,0.2-2.2l-1.5-1.9c0,0,1.2-2.3,1.4-1.7c0.2,0.6,0.6,1.7,1.1,2.2
		c0.5,0.5,1.7,1.2,1.6,1.8c-0.1,0.6-0.8,1.5-1,2c-0.2,0.5-0.6,4.1-0.4,4.9c0.1,0.8,0,3.7,0.3,4c0.3,0.3-0.5,0.7-1.2,3.2
		s-2,6.6-1.9,7c0.1,0.4-0.5,3.3-0.8,3.8c-0.3,0.5-0.4,1.2-0.4,1.2l-1.9-0.5c0,0-0.1,0.8-0.5,2c-0.4,1.2-0.7,3.4-1.1,4.2
		c-0.4,0.8,0.7,5.2,4.1,5.7c3.4,0.5,5.4,0.1,5.7,0.1c0.3,0,1.3-0.2,2.1,0c0.8,0.2,7-0.4,7.6-1.2c0.6-0.9,3.5-4.1,1.2-7.6
		c0,0,0-2.3-0.4-2.6c-0.4-0.3-1.9,0.8-2.4-0.3c-0.5-1.1-1.3-7.5-1.9-8.6c-0.6-1.1-0.9-2.2-1.2-4c-0.3-1.8-0.7-1.4-0.7-3.2
		c0-1.9,0.2-2.1,0.1-4.1c-0.1-2-2-6.1-1.7-6.9c0.3-0.8,3-4,4.9-6.8c1.9-2.8,3.8-6.5,9.7-5.8c6,0.6,8.3,0.9,9.9,0.6
		c1.6-0.2,3.7-0.7,4.4-0.2c0.7,0.5,0.8,0.2,0.4,1.1c-0.4,0.9-1.3,1.7-2.6,1.5c-1.2-0.2-5.4-0.5-6.8-0.4c-1.4,0-4.5-0.7-6.7-0.1
		c-2.2,0.6-4.6,2.7-5.5,3.8c-0.9,1.1-4.2,4.3-4.6,6.6c-0.4,2.3,0.9,3.6,0.9,5.1c0,1.5-1.2,1.9,0,3.8c1.1,1.9,0.4,2.2,0.8,3.5
		c0.4,1.3,0.6,3.5,1,5.2c0.3,1.7,0.1,4,0.9,4.1c0.8,0.1,1.3,0.2,1.9,0.4c0.6,0.2,0.7,1.5,0.8,2.6c0.1,1.1,0,2.2,0.7,2
		c0.7-0.2,0.9-0.1,2.1-1.7c1.2-1.5,3-3.3,4.9-5.4c1.9-2.1,2.7-3.6,6.7-6.3c3.9-2.7,6.7-2.8,6.6-5c-0.1-2.2,0.7-3.1-0.5-3.2
		c-1.2-0.1-1.3,0.6-3,1.1c-1.7,0.5-2.1,1.8-3,1.7c-0.9-0.1-3.1,0.5-2.1-1.2c1-1.7,2.9-3,4.9-4.3c2-1.3,3.8-0.8,5.6-2.8
		c1.8-2.1,6.3-4,5.6-5.5c-0.6-1.5-1.7-1.9-1-2.7c0.7-0.8,3.8-3.1,3.4-4.7c-0.4-1.7-0.4-1.4-1.6-2.6c-1.2-1.1-3.3-2.9-4.1-3.4
		c-0.8-0.5-0.2,0.2-0.1-2.5c0.1-2.8,0.3-3.5,1.4-6.3c1.1-2.9,1.1-2.5,1.4-5.6c0.3-3.1,1.4-7.5,1.9-8.7c0.5-1.1,1.2-4.1,1.5-5.7
		c0.3-1.7,1.5-3.7,1.6-7.1c0.1-3.4,0-3.6-0.6-5.2c-0.5-1.7-0.6-3-1-2.9c0,0-5.5,2.5-7.2,3.9c-1.7,1.4-3.3,2.7-4.2,3.1
		c-0.8,0.4-6.8,5.6-7.5,6.4c-0.7,0.7-3.1,4-4,4.6c-0.8,0.5-4.7,3.2-5.7,3.3C139.2,92.7,140.2,88.4,140.8,87.4L140.8,87.4z"/>
	<path class="st0" d="M140.6,125.9c0.4,0,2.4,2.1,2.6,2.9c0.1,0.8-0.6,1.9-3.1,2.6c-2.5,0.8-2.6-2.5-3.1-3.2
		c-0.5-0.8,2.4-2.3,2.4-2.3C139.7,125.7,140.2,125.9,140.6,125.9L140.6,125.9z M139.9,128.1c0,0-0.5-0.2-0.4,0.4
		c0,0.6,0.6,0.9,0.8,0.6C140.4,128.8,141,128.2,139.9,128.1L139.9,128.1z"/>
	<path class="st0" d="M93.5,124.1c0,0,3.1,3.3,7.9,2.1c4.8-1.2,6.7-1.2,9.1-0.4c2.4,0.9,5.1,4.7,6.3,5.2c1.1,0.5,1.4-2,1.4-2
		c0,0-1.3-1.9-2.5-2.9c-1.2-1-4.2-3.1-6-3.3c-1.8-0.1-6.6,0.3-9.6,0.7c-3,0.4-6.2-0.5-6.7-0.6C93,122.8,92.8,123.6,93.5,124.1
		L93.5,124.1z"/>
	<path class="st0" d="M101.4,127.6c0,0,4.8,4,6.6,4.5c1.9,0.5,4.1,0.9,4.6,1.1c0.5,0.3,0.7,1.2,0.4,1.4c-0.3,0.2-5.9,0-8-1.7
		c-2.1-1.7-4.8-3.2-4.8-4C100.3,128.2,101,127.4,101.4,127.6L101.4,127.6z"/>
	<path class="st0" d="M112.5,130.3c-0.1,1-1.4,1.1-2.9,1.1c-1.5,0-1.5-0.4-2.1-2.4c-0.6-2,2.4-2.5,2.4-2.5
		C112.6,127.1,112.6,129.3,112.5,130.3L112.5,130.3z M109.8,128.4c0,0-0.7,0.4-0.2,0.8c0.5,0.3,0.5,0.7,0.8,0.2
		C110.6,128.8,110.2,128.3,109.8,128.4L109.8,128.4z"/>
	<path class="st0" d="M169.8,133.1l1.2-1.8c0,0,4.1,1,9.6-3.2c5.5-4.1,5.6-12.7,5.6-17c0.1-4.3,1.2-6.2,1.2-6.2
		c1.1-2.4,2.4-2.4,2.2-2.9c-0.1-0.5-3.7-1.4-6.4-3c-1.1-0.6-4.9-4.7-6-5.5c-1.1-0.8-3.8-2.8-3.8-2.8l0.3-2.8c0,0,4.5,4,5.6,5.5
		c1.1,1.5,3.5,3.6,4.4,4.3c0.9,0.7,5.2,2.9,6.1,3c0.9,0,2.4-0.4,2.4-0.4l0.2,1.1c0,0-1.3,0.6-1.8,1.2c-0.5,0.6-2.5,2.9-2.7,4.8
		c-0.3,1.9-0.2,7.4-0.1,8.7c0.1,1.2-0.7,10.1-3.8,12.7C181.1,131.2,179.4,133.3,169.8,133.1L169.8,133.1z"/>
	<path class="st0" d="M159.8,107.3c1.1-0.5,2.6-2.3,3-4c0.4-1.7,0.3-3.1,0.6-4.3c0.2-1.1,0.4-3.8,1.3-4.8c0.9-1,1.4-3.6,1.4-4.2
		c0-0.6,0.6-2.5,0.4-3.9c-0.2-1.3,0-2.8,0.1-4.4c0.1-1.6,0.4-3.8,0.7-4.2c0.4-0.5-0.4-2.1-0.4-2.1l-0.3-1.4c0,0,0,0.1-1.6,0.7
		c-1.5,0.6-2.4,1.6-3.3,2.2c-0.9,0.6-2,1.6-2.8,1.9c-0.8,0.3-1.9,0.8-3.1,2.6c-1.2,1.8-3,2-3.8,4.1c-0.7,2.1-3,2.8-2.6,3.9
		c0.4,1.1,1.2,2.1,1.1,3.1c-0.1,1-1.9,2.9-2.5,3.7c-0.6,0.8-0.9-0.5,0.9,2.4c1.9,2.9,4.2,4.8,4.5,5.2c0.3,0.4,2.3,2.2,3.2,2.9
		C157.5,107.4,159.8,107.3,159.8,107.3L159.8,107.3z"/>
	<path class="st2" d="M151.4,97.2c0,0,2.5,3.5,3.6,4.3c1.1,0.8,0.4,1.2,1.3,1.5c0.9,0.3,1.8,1.3,2.2,1.2c0.4-0.1,1.6-0.4,1.5-0.5
		c0-0.1,0.3-1,0.3-1.8c0-0.7,0.5-2.8,0.5-2.8l1.9-6.3c0,0,0.9-1.6,0.9-2.2c0-0.6-0.1-3.6-0.4-4c-0.3-0.4,0.4-1.2,0.4-1.9
		c0-0.7-0.1-1.3,0.4-2.1c0.5-0.8,0.3-2,0.7-2.7c0.4-0.7,0.6-1.9,0.6-1.9l0.3-1.2c0,0-1.2-0.1-1.5,0.7c-0.3,0.8-1.5,1.6-1.5,1.6
		c-0.1,0-1.2,1.4-1.2,1.4l-2.9,1.3c0,0-2.1,2.5-2.6,3.2c-0.4,0.7-2.5,2.7-2.5,3c0,0.3,0.2,1.2,0.3,1.6c0.1,0.5-0.3,1.8-0.3,1.8
		l0.1,1.5L151.4,97.2L151.4,97.2z"/>
	<path class="st0" d="M175.3,101.1c0-0.8,0.4-1.5,0.9-1.5c0.5,0,0.9,0.7,0.9,1.5c0,0.8-0.4,1.5-0.9,1.5S175.3,101.9,175.3,101.1
		L175.3,101.1z"/>
	<path class="st0" d="M179.1,105.5c0.5,0,0.9-0.7,0.9-1.5c0-0.8-0.4-1.5-0.9-1.5c-0.5,0-0.9,0.7-0.9,1.5
		C178.2,104.9,178.6,105.5,179.1,105.5L179.1,105.5z"/>
	<path class="st0" d="M172.7,104c0-0.8,0.4-1.5,0.9-1.5c0.5,0,0.9,0.7,0.9,1.5c0,0.8-0.4,1.5-0.9,1.5
		C173.1,105.5,172.7,104.9,172.7,104L172.7,104z"/>
	<path class="st0" d="M151.3,158.9c0-0.8,0.4-1.5,0.9-1.5s0.9,0.7,0.9,1.5c0,0.8-0.4,1.5-0.9,1.5S151.3,159.8,151.3,158.9
		L151.3,158.9z"/>
	<path class="st0" d="M154,155.8c0-0.8,0.4-1.5,0.9-1.5c0.5,0,0.9,0.7,0.9,1.5c0,0.8-0.4,1.5-0.9,1.5
		C154.4,157.4,154,156.7,154,155.8L154,155.8z"/>
	<path class="st0" d="M156.8,158.6c0-0.8,0.4-1.5,0.9-1.5c0.5,0,0.9,0.7,0.9,1.5c0,0.8-0.4,1.5-0.9,1.5
		C157.2,160.2,156.8,159.5,156.8,158.6L156.8,158.6z"/>
	<path class="st0" d="M173.4,118.2c0,0,2.8-9.2,2.9-11c0,0,1.2,8.7,2.3,10.8c0,0-1.8-0.8-1.9,0.3c-0.1,1-0.3,1.8-0.6,1.9
		c0,0-0.6,0.3-0.6-1.7C175.4,118.5,174.9,117.1,173.4,118.2L173.4,118.2z"/>
	<path class="st1" d="M186.7,143.5c0,0-4.6-3-5.9-3.4c-1.4-0.4-4.2-1.8-5.2-1.5c-1,0.3-1.8,0.8-2,1.3c-0.2,0.5-0.5,1.9,1.6,2.9
		c2.1,1,5.1,1.7,8.5,2c3.4,0.3,3.4,0.4,3.4,0.4L186.7,143.5L186.7,143.5z"/>
	<path class="st0" d="M148.4,143.5l0.8,0.9l0.1,0.3l-1.5,0.7l-1.3,0.7l-1.2,0.8l-1.4-0.9l-0.5-0.4l1.5-0.7c0,0,0.4-0.7,1-0.8
		c0.5-0.1,1.1-0.4,1.4-0.4C147.5,143.7,148.4,143.5,148.4,143.5L148.4,143.5z"/>
	<path class="st0" d="M157.7,172.1c0,0-2.9-5.2-2.7-10.1c0,0-1,6.1-2.7,9.9c0,0-0.3,0.9,0.6,0.6c1-0.4,1.5-0.8,1.4,0.5
		c-0.1,2.1,1,1.4,1,1.4s0-1.6,0.1-1.8c0,0,0.4-0.9,1.3-0.3C157.6,173,157.7,172.6,157.7,172.1L157.7,172.1z"/>
	<path class="st0" d="M93.2,158.9c0-0.8,0.4-1.5,0.9-1.5c0.5,0,0.9,0.7,0.9,1.5c0,0.8-0.4,1.5-0.9,1.5
		C93.6,160.5,93.2,159.8,93.2,158.9L93.2,158.9z"/>
	<path class="st0" d="M95.9,155.8c0-0.8,0.4-1.5,0.9-1.5c0.5,0,0.9,0.7,0.9,1.5c0,0.8-0.4,1.5-0.9,1.5
		C96.3,157.4,95.9,156.7,95.9,155.8L95.9,155.8z"/>
	<path class="st0" d="M98.7,158.6c0-0.8,0.4-1.5,0.9-1.5c0.5,0,0.9,0.7,0.9,1.5c0,0.8-0.4,1.5-0.9,1.5
		C99.1,160.2,98.7,159.5,98.7,158.6L98.7,158.6z"/>
	<path class="st0" d="M99.6,172.1c0,0-2.9-5.2-2.7-10.1c0,0-1,6.1-2.7,9.9c0,0-0.3,0.9,0.6,0.6c1-0.4,1.5-0.8,1.4,0.5
		c-0.1,2.1,1,1.4,1,1.4s0-1.6,0.1-1.8c0,0,0.4-0.9,1.3-0.3C99.5,173,99.6,172.6,99.6,172.1L99.6,172.1z"/>
	<path class="st0" d="M70.6,105.7c0-0.8,0.4-1.5,0.9-1.5c0.5,0,0.9,0.7,0.9,1.5c0,0.8-0.4,1.5-0.9,1.5
		C71.1,107.2,70.6,106.5,70.6,105.7L70.6,105.7z"/>
	<path class="st0" d="M73.3,102.6c0-0.8,0.4-1.5,0.9-1.5c0.5,0,0.9,0.7,0.9,1.5c0,0.8-0.4,1.5-0.9,1.5
		C73.7,104.1,73.3,103.4,73.3,102.6L73.3,102.6z"/>
	<path class="st0" d="M76.1,105.4c0-0.8,0.4-1.5,0.9-1.5c0.5,0,0.9,0.7,0.9,1.5c0,0.8-0.4,1.5-0.9,1.5
		C76.5,106.9,76.1,106.2,76.1,105.4L76.1,105.4z"/>
	<path class="st0" d="M77.1,118.8c0,0-2.9-5.2-2.7-10.1c0,0-1,6.1-2.7,9.9c0,0-0.3,0.9,0.6,0.6c1-0.4,1.5-0.8,1.4,0.5
		c-0.1,2.1,1,1.4,1,1.4s0-1.6,0.1-1.8c0,0,0.4-0.9,1.3-0.3C77,119.7,77.1,119.4,77.1,118.8L77.1,118.8z"/>
	<path class="st0" d="M121.2,68.2c0-0.8,0.4-1.5,0.9-1.5c0.5,0,0.9,0.7,0.9,1.5c0,0.8-0.4,1.5-0.9,1.5
		C121.6,69.7,121.2,69.1,121.2,68.2L121.2,68.2z"/>
	<path class="st0" d="M123.9,65.1c0-0.8,0.4-1.5,0.9-1.5c0.5,0,0.9,0.7,0.9,1.5c0,0.8-0.4,1.5-0.9,1.5
		C124.3,66.6,123.9,66,123.9,65.1L123.9,65.1z"/>
	<path class="st0" d="M126.7,67.9c0-0.8,0.4-1.5,0.9-1.5c0.5,0,0.9,0.7,0.9,1.5c0,0.8-0.4,1.5-0.9,1.5
		C127.1,69.4,126.7,68.7,126.7,67.9L126.7,67.9z"/>
	<path class="st0" d="M127.1,80c-0.8-1.9-2.3-5.5-2.1-8.7c0,0-0.8,5-2.2,8.8L127.1,80L127.1,80z"/>
	<polygon class="st2" points="123.9,175.9 124.5,176.3 126.1,176.1 125.8,175.5 124.9,175.4 123.9,175.9 	"/>
	<path class="st0" d="M125.1,171.8l2.3-0.1l2.3-2.6l1.6-2.4l0.3-1.9l-0.7-2.1l-3.3-0.6l-4.2,0l-2.4,0.1c0,0-1.5,0.6-1.8,1.7
		c-0.3,1,0,3.4,0.8,4.4c0.9,1,2.8,2.6,2.8,2.6S122.8,171.8,125.1,171.8L125.1,171.8z"/>
	<path class="st2" d="M126.4,164.5l-2.2,0.1c0,0-2.2-0.6-2.2,0.9c0,1.4,0.6,2.3,1.4,3.2c0.8,0.9,1.1,1.4,1.8,1.3
		c0.7-0.1,1.8-0.6,2.4-1.8C128.4,167.1,130.4,164.4,126.4,164.5L126.4,164.5z"/>
	<path class="st0" d="M113.1,135.8l2.2,4.5l0.6,1l0.6,0.2l-0.2,1l1.1,5l-0.2,2.1l-1.4,2l0.2,1l-0.2,1l-0.9,1.4l-1.2,1.2
		c0,0-2.2,1.1-2.3,0.5c-0.1-0.6,1.2-2.6,1.2-2.6l0.1-1.4l0.4-1.3l1.3-3.9l0.6-1.6l-0.7-1.3l0-1.1V143l-0.9-2.9l-0.8-1.9L113.1,135.8
		L113.1,135.8z"/>
	<path class="st0" d="M102.1,145.2l3.3,2c0,0,1.7-0.5,1.2-1.4C106.1,144.8,104.5,144.4,102.1,145.2L102.1,145.2z"/>
	<path class="st1" d="M125.9,193.7c0,0,1.8-2.2,2.2-8.5c0,0,0.4-3.3-2.5-3.3c-2.4,0-1.9,3.1-1.8,3.3
		C123.9,185.3,124.2,192.6,125.9,193.7L125.9,193.7z"/>
	<path class="st1" d="M63.6,148c0,0,4.9-0.6,9.1-2.7c2.7-1.4,2.1-3.1,2.1-3.1s-1.1-2.4-4.6-0.8c-3.5,1.6-6.7,4-7.3,4.9
		c-0.6,0.9-1,1.5-1,1.5L63.6,148L63.6,148z"/>
	<path class="st0" d="M81.4,75.6c0,0,6.7,3.8,8.1,4.9c1.3,1,7.3,5.9,8.2,6.8c0.9,1,1.7,4.6,1.9,4.9c0.2,0.3-1.3,1.7-1.3,1.7
		s2.6,1.7,3.1,2.6c0.5,0.9,0.3,2.2,0.3,2.2l-0.3,0.7c0,0-9.3,8.4-10.1,9.3c-0.7,0.9-1.9,0.8-2.8-1.9c-0.8-2.7-1-4.4-1.1-5.3
		c-0.1-0.8-0.8-0.4-1.5-2.5c-0.7-2.1-1-3.7-1.2-5.7c-0.2-2-1.3-3.6-1.2-5.2c0.1-1.6,0.2-1.9-0.4-3.4c-0.6-1.6-1-1.9-1.3-3.8
		c-0.3-1.9-0.6-4-0.6-4L81.4,75.6L81.4,75.6z"/>
	<path class="st2" d="M83.3,78.2c0,0,3.2,1.8,3.1,2.9c-0.1,1.2,1.3,0.9,1.7,1.3c0.4,0.4,0.5,0.6,1.9,1.4c1.4,0.8,1.8-0.1,2.9,1.5
		c1.1,1.6,1.7,2,2.2,3.2c0.5,1.2,1.2,2.3,1.2,2.3s0.2,0,0.6,1.3c0.4,1.4-0.8,1.6-0.2,2.5c0.6,0.9-0.5,1.1,0.3,1.7
		c1.8,1.3,1.5,1.2,1.3,1.5c-0.2,0.3-0.1,0.3-0.3,0.9l-0.9,0.4l-1.1,0.1c0,0-2.4,3.8-2.3,4c0.1,0.2-1.8,1.4-2.1,1.7
		c-0.3,0.3-1.3-0.3-1.3-0.3l-0.8-2l-0.9-1.9c0,0,0.6-1.9,0.2-2.6c-0.3-0.7-1.9-1.8-1.9-2.1c0-0.3,0-2.4-0.2-2.9
		c-0.2-0.5-0.9-1.4-1.1-3.8c-0.2-2.4-0.5-4.4-0.6-5.4c-0.1-1-1.4-5.4-2.2-6.2L83.3,78.2L83.3,78.2z"/>
	<path class="st0" d="M105.3,111.8c0,0,1.1-1.8,2.5-2c1.4-0.3,2.5-0.2,2.2-1c-0.2-0.8-0.1-1.1,0.4-1c0.4,0.1,1.3,0.6,2.1,0.3
		c0.7-0.3,2,0.1,2,0.1s0.1,0.2-0.5,0.9c-0.6,0.7-1.3,1.4-1.3,1.4l-0.3,0.5c0,0,0.1-1-0.5-0.9c-0.7,0.1-1-0.9-3.4,1.5
		C108.3,111.5,108.8,110.1,105.3,111.8L105.3,111.8z"/>
	<path class="st0" d="M136.6,107.3l-1.6,1.9c0,0-0.3-0.2,1.8-0.1c2.1,0.1,3.6,0.5,5,0.9c1.4,0.4,1.8,0.7,2.5,0.5
		c0,0,1.1,0.3-2.8-1.3C137.7,107.6,137.6,108.4,136.6,107.3L136.6,107.3z"/>
	<path class="st0" d="M117.4,90.7l6.8,4.9c0,0,0.1,1.1,0,1.6c-0.1,0.4-0.6,1.5-0.6,1.5l-0.2,0.5l-1.5-1.7l0.2-1.6
		c0,0-2.1-2.3-2.7-1.6L117.4,90.7L117.4,90.7z"/>
	<path class="st0" d="M125.7,98.5l-0.6-2.3c0,0,3.1-4.7,5.9-5.7c0,0,1.1-0.9,0.7,0.1c-0.4,1.1-3.8,4.7-5.3,6
		c-0.9,0.9-0.5,1.3,0.3,2.4L125.7,98.5L125.7,98.5z"/>
	<path class="st0" d="M41.8,97.8l-3.4,13.6l-0.6-0.1c0.2-1.4,0.3-2.1-1.2-2.4l-11.4-2.8c-1.5-0.4-1.8,0.6-2.2,1.6l-0.6-0.1l2.1-8.2
		l0.6,0.1c-0.3,1.7-0.5,2.4,1.6,2.9l11.1,2.8c1.1,0.3,1.4-0.2,1.8-1.8c0.9-3.5-0.7-5.3-3.1-7.1l0.2-0.7L41.8,97.8L41.8,97.8z"/>
	<path class="st0" d="M29,85.2l6.3-12.4l4.3,2.2l-0.3,0.5c-3.3-1.1-4.6,0.2-6.1,3.1c-0.6,1.2-0.7,1.6,0.2,2.1l5,2.6
		c1.1-2.1,1.1-3.4-1.4-5.1l0.3-0.6l7.3,3.7l-0.3,0.6c-2.8-1.1-4-0.3-5.1,1.8l5.2,2.7c0.9,0.5,1.4,0.2,2.1-1.2
		c1.1-2.1,1.6-4.6-0.9-7.6l0.3-0.6l4,3.1l-6.4,12.6L43,92.4c0.5-1.3,0.8-2-0.6-2.7L32,84.4c-1.4-0.7-1.9,0.2-2.5,1.1L29,85.2
		L29,85.2z"/>
	<path class="st0" d="M58.4,68.7l-5.2,6.7l-0.5-0.4c0.7-1.1,1.2-1.9,0-2.8L43.4,65c-1.3-1-2-0.1-2.7,0.7l-0.5-0.4l5.2-6.7l0.5,0.4
		c-0.7,0.9-1.4,1.9,0,2.9l9.3,7.2c1.2,0.9,1.9,0.2,2.8-0.8L58.4,68.7L58.4,68.7z"/>
	<path class="st0" d="M71.3,52.3c0,2.7-0.4,5.1-2.8,7.1c-4.3,3.7-9.2,2.7-12.1-0.7c-3.2-3.7-3.1-8.8,0.8-12.2
		c1.6-1.4,3.8-1.8,4.3-2.2c0.5-0.4,0.3-1,0.1-1.6l0.5-0.4l3.7,4.3L65.3,47c-2-1-5.4-1.8-7.5,0c-2.7,2.3-0.9,5.7,1.7,8.8
		c1,1.1,2.6,2.8,4.3,3.3c1.9,0.6,3.6-0.3,4.2-0.8c1.4-1.2,2.3-3,2.4-6L71.3,52.3L71.3,52.3z"/>
	<path class="st0" d="M69.5,37.6L81.8,31l2.3,4.3l-0.5,0.3c-2.1-2.8-3.9-2.5-6.8-1c-1.2,0.6-1.5,0.9-1,1.8l2.6,5
		c2.1-1.1,2.9-2.2,1.8-5l0.6-0.3l3.8,7.2l-0.6,0.3c-1.7-2.5-3.1-2.6-5.2-1.5l2.7,5.2c0.5,0.9,1,1,2.4,0.3c2.1-1.1,4-2.8,3.6-6.8
		l0.6-0.3l1.5,4.9L77.1,52l-0.3-0.5c1.2-0.8,1.8-1.2,1.1-2.5l-5.5-10.4c-0.7-1.4-1.7-1-2.7-0.5L69.5,37.6L69.5,37.6z"/>
	<path class="st0" d="M101.8,29.5c-0.9-1.5-3-3.8-5.8-3c-1.2,0.3-2.3,1.4-1.9,2.9c0.4,1.3,0.9,1.6,3.2,2.1l3.9,0.7
		c0.9,0.2,3.1,1,3.8,3.6c0.6,2.1-0.1,5.3-4.4,6.5c-2.2,0.6-3.5,0.1-4.2,0.3c-0.5,0.1-0.5,0.6-0.5,1l-0.7,0.2L93.6,38l0.7-0.2
		c1.1,2.2,3.2,4.5,6.2,3.6c2.8-0.8,2.3-3.1,2.2-3.4c-0.4-1.6-1.7-1.8-3.4-2.1l-1.8-0.3c-4.5-0.8-5.1-2.8-5.4-3.9
		c-0.4-1.4-0.6-4.8,3.9-6c1.9-0.5,3.2-0.1,3.9-0.3c0.5-0.2,0.6-0.5,0.5-1l0.7-0.2l1.4,5.1L101.8,29.5L101.8,29.5z"/>
	<path class="st0" d="M123,38.4l-8.6,0.5l0-0.6c1.8-0.3,2.3-0.3,2.2-2.4l-0.8-12.7c-1.7,0.2-4.2,0.5-4.4,4.4l-0.7,0l-0.2-4.9
		l14.5-0.9l0.4,4.9l-0.7,0c-0.7-3.8-3.2-3.8-4.9-3.8l0.8,12.7c0.1,2.1,0.7,2.1,2.5,2.1L123,38.4L123,38.4z"/>
	<path class="st0" d="M133.1,22.2l13.8,2.2l-0.8,4.8l-0.6-0.1c0-3.5-1.6-4.4-4.8-4.9c-1.3-0.2-1.8-0.2-1.9,0.8l-0.9,5.5
		c2.3,0.4,3.6,0,4.4-2.9l0.6,0.1l-1.3,8.1l-0.6-0.1c0.2-3-0.9-3.9-3.3-4.3l-0.9,5.8c-0.2,1.1,0.2,1.4,1.8,1.7c2.3,0.4,4.9,0.1,7-3.2
		l0.7,0.1l-1.7,4.8l-14-2.2l0.1-0.6c1.4,0.1,2.1,0.1,2.4-1.4l1.9-11.6c0.3-1.6-0.7-1.8-1.8-2L133.1,22.2L133.1,22.2z"/>
	<path class="st0" d="M165.3,48.3l-4.6-1.9l-1.7-8.9l-0.6-0.2l-1.8,4.4c-0.7,1.8-0.3,2.1,1.1,2.9l-0.2,0.6l-7.6-3.1l0.2-0.6
		c1.6,0.5,2.1,0.6,2.8-1.2l4.1-9.9c0.8-1.9,0.1-2.3-1.1-2.9l0.2-0.6l7.2,3c1.6,0.6,6.2,2.8,4.7,6.5c-1.1,2.8-3.7,2.5-5.1,2.4
		l1.9,8.2c0.1,0.5,0.5,0.7,0.7,0.8L165.3,48.3L165.3,48.3z M158.6,36.5c2.9,1.2,4.3,1.2,5.5-1.7c0.9-2.3,0.4-3.6-1.4-4.3
		c-1.2-0.5-1.4-0.3-1.8,0.4L158.6,36.5L158.6,36.5z"/>
	<path class="st0" d="M189.3,62.8c-2.7,0.3-5.1,0.2-7.4-1.8c-4.2-3.7-3.9-8.7-0.9-12.1c3.2-3.7,8.4-4.2,12.2-0.9
		c1.6,1.4,2.3,3.6,2.7,4c0.5,0.4,1,0.2,1.6-0.1l0.5,0.4l-3.7,4.3l-0.5-0.4c0.7-2.1,1.1-5.6-1-7.4c-2.7-2.3-5.8-0.2-8.5,2.9
		c-1,1.1-2.4,2.9-2.7,4.7c-0.4,2,0.8,3.5,1.4,4c1.4,1.2,3.3,1.9,6.3,1.5L189.3,62.8L189.3,62.8z"/>
	<path class="st0" d="M195.5,75.6l-5.2-6.7l0.5-0.4c0.9,1,1.5,1.6,2.7,0.7l9.3-7.2c1.3-1,0.6-1.9,0-2.8l0.5-0.4l5.2,6.7L208,66
		c-0.7-0.9-1.5-1.8-2.8-0.8l-9.3,7.2c-1.2,0.9-0.7,1.8,0,2.9L195.5,75.6L195.5,75.6z"/>
	<path class="st0" d="M203.5,89.9l-3.9-7.7l0.5-0.3c0.9,1.5,1.2,2,3,1.1l11.4-5.8c-0.9-1.5-2.1-3.6-5.8-2.3l-0.3-0.6l4.4-2.1l6.6,13
		l-4.3,2.2l-0.3-0.6c3.2-2.2,2.2-4.5,1.5-6L205,86.5c-1.8,0.9-1.6,1.5-0.9,3.1L203.5,89.9L203.5,89.9z"/>
	<path class="st0" d="M225.7,109.1c-0.2-0.4-0.4-1.1-1.3-1.4L216,105l-4.3,1c-2,0.5-1.9,1-1.6,2.7l-0.6,0.1l-2-8.2l0.6-0.1
		c0.6,1.6,0.7,2.1,2.7,1.7l3.5-0.8l6.8-6.2c0.2-0.2,1.1-1,0.8-2.2l0.6-0.1l1.9,7.9l-0.6,0.1c-0.4-1.6-0.6-1.9-1.3-1.7
		c-0.4,0.1-0.9,0.6-1.2,0.9l-4.8,4.1l5,1.6c0.3,0.1,1.8,0.5,2.4,0.4c0.9-0.2,0.8-1.1,0.6-2.2l0.6-0.1l1.2,5.2L225.7,109.1
		L225.7,109.1z"/>
	<path class="st0" d="M149.1,126.6c0,0-1.4-0.2-2.5,0.6c-1.1,0.9-1.6,3.1-2.9,3.7c-1.4,0.6-4.8,0.8-5.4,1.1c-0.4,0.2-1.4,1.4-2,2.4
		c0.6,0.2,1.1,0.2,1.8,0.2c0.1-0.1,0.2-0.2,0.4-0.3c1.2-0.4,2-0.4,3.8-0.8c1.9-0.4,3.7-1.1,4.2-2c0.5-0.9,2.7-2.2,2.9-3.1
		C149.5,127.5,149.4,126.9,149.1,126.6L149.1,126.6z"/>
	<path class="st0" d="M136.8,135.7c-0.6-0.2,0-0.3-0.6-0.4c-0.4,1.8-2.6,8-2.6,8.4c0,0.4-0.1,5.9,0.3,6.8c0.4,0.9,0.9,2.5,1.4,3.4
		c0.5,1,1.3,2.1,1.3,3.3c0,1.2,0.1,1.8,0.1,1.8s1.8-0.4,1.7-2.4c-0.1-2,0.2-1.4-0.6-3.6c-0.8-2.2-1.7-3.7-2-5.9
		c-0.3-2.1,0.5-5.3,1.1-7.4C137.2,138.9,136.7,136.6,136.8,135.7L136.8,135.7z"/>
	<path class="st0" d="M38.2,138.8l3.2,13.3l-4.7,1.1l-0.1-0.6c2.3-1.1,3.7-2.1,2.7-6.1c-0.3-1.3-0.5-1.7-1.5-1.4l-5.5,1.3
		c0.7,2.9,2.4,2.9,4.4,2.8l0.1,0.6l-7.9,1.9l-0.1-0.6c1.9-0.7,3.5-1.5,2.8-4.5L26,148c-1.6,0.4-1.4,1.3-1,3l-0.6,0.1l-2.1-8.5
		l0.6-0.1c0.5,1.3,0.7,2,2.2,1.7l11.4-2.8c1.6-0.4,1.4-1.4,1.2-2.5L38.2,138.8L38.2,138.8z"/>
	<path class="st0" d="M43.5,176c-4.5,2.3-9.3,0.7-11.6-3.7c-2.3-4.4-0.8-9.2,3.7-11.5c4.7-2.4,9.4-0.4,11.6,3.7
		C49.4,168.6,48.2,173.6,43.5,176L43.5,176z M37.6,164.5c-1.9,1-6.9,3.7-5,7.4c1.9,3.7,7,1.2,8.9,0.3c3.1-1.6,6.5-4.3,5-7.4
		C45,161.8,40.8,162.9,37.6,164.5L37.6,164.5z"/>
	<path class="st0" d="M59.3,195c-3.8,3.4-8.8,3.1-12.1-0.6c-3.3-3.7-3.1-8.7,0.7-12.1c3.9-3.5,9-2.8,12.1,0.6
		C63.1,186.4,63.2,191.5,59.3,195L59.3,195z M50.7,185.5c-1.6,1.4-5.7,5.3-2.9,8.4c2.8,3.1,7.1-0.6,8.7-2c2.6-2.4,5.2-5.9,2.9-8.4
		C57.1,180.9,53.3,183.1,50.7,185.5L50.7,185.5z"/>
	<path class="st0" d="M69.3,212.5l-7.1-4.9l0.3-0.5c1.5,0.9,2,1.2,3.2-0.5l7.2-10.5c-1.4-0.9-3.6-2.2-6.2,0.7l-0.6-0.4l2.8-4l12,8.3
		l-2.7,4l-0.6-0.4c1.8-3.5-0.2-5-1.5-6l-7.2,10.5c-1.2,1.7-0.7,2.1,0.7,3.2L69.3,212.5L69.3,212.5z"/>
	<path class="st0" d="M79.8,217.9c1.3,0.4,2.1,0.5,2.6-0.8l4.3-10.9c0.6-1.5-0.3-1.9-1.4-2.4l0.2-0.6l7,2.7c1.3,0.5,5.8,2.4,4.5,5.9
		c-1,2.5-3.8,2.1-4.8,2l0,0c1.8,1.1,3.7,3.1,2.7,5.7c-0.7,1.9-3.2,3.5-8,1.7l-7.3-2.8L79.8,217.9L79.8,217.9z M86,218.5
		c-0.4,1-0.1,1.5,0.8,1.9c2.5,1,3.6-0.9,4.1-2.3c1.3-3.2-0.6-4.3-2-5l-0.7-0.3L86,218.5L86,218.5z M88.5,212.2
		c3,1.2,3.9,0.4,4.8-1.9c0.6-1.6,0.6-3.1-1.2-3.8c-1.1-0.4-1.4,0.1-1.6,0.6L88.5,212.2L88.5,212.2z"/>
	<path class="st0" d="M117.6,228.4l-7.8-1.1l0.1-0.6c1.5,0.1,1.9,0.1,2-0.7c0.1-0.6-0.4-2.5-0.7-3.3l-5.4-0.8
		c-0.9,1.6-1.4,2.6-1.5,2.9c-0.1,0.9,1,1.1,1.8,1.3l-0.1,0.6l-4.9-0.7l0.1-0.6c1.3,0,1.8-0.8,2.7-2.5l7.2-12.4l0.7,0.1l3.6,13.4
		c0.7,2.7,1,3.6,2.1,3.7L117.6,228.4L117.6,228.4z M111.1,221.7l-1.6-6.2l-3.1,5.5L111.1,221.7L111.1,221.7z"/>
	<path class="st0" d="M140.6,227.2l-13.9,1.3l-0.1-0.6c1.3-0.3,2-0.4,1.9-1.9l-1.1-11.7c-0.2-1.6-1.1-1.5-2.2-1.5l-0.1-0.6l8.4-0.8
		l0.1,0.6c-1.7,0.2-2.4,0.3-2.2,2.5l1.1,11.4c0.1,1.2,0.7,1.3,2.3,1.1c3.6-0.4,4.8-2.5,5.6-5.3l0.7-0.1L140.6,227.2L140.6,227.2z"/>
	<path class="st0" d="M163.6,220.7l-13.2,4.5l-0.2-0.6c1.2-0.6,1.9-0.9,1.4-2.3l-3.8-11.1c-0.5-1.5-1.5-1.2-2.5-1l-0.2-0.6l8-2.7
		l0.2,0.6c-1.6,0.6-2.3,0.9-1.6,2.9l3.7,10.8c0.4,1.1,0.9,1.1,2.5,0.6c3.5-1.2,4.1-3.5,4.3-6.5l0.7-0.2L163.6,220.7L163.6,220.7z"/>
	<path class="st0" d="M191.3,199.8c-0.2,2.7-0.8,5-3.2,6.9c-4.5,3.4-9.3,2.1-12.1-1.5c-3-3.9-2.5-9,1.5-12.1
		c1.7-1.3,3.9-1.5,4.4-1.9c0.5-0.4,0.4-0.9,0.2-1.6l0.5-0.4l3.4,4.5l-0.5,0.4c-2-1.2-5.3-2.2-7.5-0.5c-2.8,2.1-1.3,5.7,1.2,8.9
		c0.9,1.2,2.4,2.9,4.1,3.6c1.9,0.8,3.6-0.1,4.2-0.6c1.5-1.1,2.5-2.8,2.7-5.8L191.3,199.8L191.3,199.8z"/>
	<path class="st0" d="M208.2,185.4l-8.9,10.8l-0.5-0.4c0.7-1.2,1.1-1.8,0-2.7l-9.1-7.4c-1.2-1-1.9-0.3-2.6,0.5l-0.5-0.4l5.3-6.5
		l0.5,0.4c-1,1.4-1.5,2,0.2,3.3l8.8,7.2c0.9,0.7,1.4,0.4,2.4-0.8c2.3-2.8,1.6-5.2,0.2-7.7l0.4-0.5L208.2,185.4L208.2,185.4z"/>
	<path class="st0" d="M206.5,155.8c-0.4,1.3-0.4,1.9,1,2.6l6.9,3.4c1.3,0.6,3.1,1.9,3.6,3.3c0.6,1.7,0.1,3.8-0.5,5.1
		c-0.5,1-1.6,2.9-3.5,3.8c-1.3,0.5-2.3,0.7-4.7-0.4l-7.3-3.5c-1.8-0.9-2.1-0.3-2.9,0.8l-0.5-0.3l3.6-7.4l0.5,0.3
		c-0.6,1.5-0.9,2.2,1,3.1l7.3,3.5c1.2,0.6,4.2,2.1,5.8-1.1c1.9-3.8-1.4-5.5-2.8-6.2l-6.6-3.2c-1.3-0.6-2.2-0.7-3.2,1.1l-0.5-0.3
		l2.3-4.8L206.5,155.8L206.5,155.8z"/>
	<path class="st0" d="M222.8,154.8c0.2-1.4,0.2-2.1-1.2-2.5l-11.4-2.5c-1.6-0.3-1.8,0.6-2.1,1.7l-0.6-0.1l1.6-7.3
		c0.3-1.3,1.4-6.1,5.1-5.3c2.6,0.6,2.6,3.4,2.7,4.4l0,0c0.8-1.9,2.5-4.1,5.2-3.5c2,0.4,3.9,2.6,2.9,7.6l-1.7,7.6L222.8,154.8
		L222.8,154.8z M222.5,148.6c1.1,0.2,1.5-0.1,1.8-1.1c0.6-2.6-1.5-3.4-2.9-3.7c-3.4-0.7-4.2,1.3-4.6,2.8l-0.2,0.7L222.5,148.6
		L222.5,148.6z M215.8,147.1c0.7-3.2-0.2-3.9-2.6-4.4c-1.7-0.4-3.2-0.2-3.6,1.8c-0.3,1.2,0.3,1.4,0.9,1.5L215.8,147.1L215.8,147.1z"
		/>
	<path class="st0" d="M25,124.9c0-1.7,1.4-3.1,3.1-3.1c1.7,0,3.1,1.4,3.1,3.1c0,1.7-1.4,3.1-3.1,3.1C26.4,128,25,126.6,25,124.9
		L25,124.9z"/>
	<path class="st0" d="M217.1,124.9c0-1.7,1.4-3.1,3.1-3.1c1.7,0,3.1,1.4,3.1,3.1c0,1.7-1.4,3.1-3.1,3.1
		C218.5,128,217.1,126.6,217.1,124.9L217.1,124.9z"/>
</g>
</svg>
