<?xml version="1.0" encoding="utf-8"?>
<!-- Generator: Adobe Illustrator 19.1.0, SVG Export Plug-In . SVG Version: 6.00 Build 0)  -->
<svg version="1.1" id="Layer_1" xmlns="http://www.w3.org/2000/svg" xmlns:xlink="http://www.w3.org/1999/xlink" x="0px" y="0px"
	 viewBox="-29 31 100 100" style="enable-background:new -29 31 100 100;" xml:space="preserve">
<style type="text/css">
	.st0{fill:#231F20;}
	.st1{fill:#FCEE21;}
	.st2{fill:#ED3426;}
</style>
<g>
	<g>
		<g>
			<path class="st0" d="M33.5,41.5c-0.4-0.2-0.7-0.2-1.1-0.1l0,0c0-0.6-0.4-1.2-0.6-1.6c-2.8-2.7-7.1,1.8-7.4,1.9l-0.1,0.1V42
				c-0.2,0.5-0.2,1,0,1.3c0.5,1,2.1,1.5,5.4,2.2c2.4,0.6,3.5-0.2,3.9-1.1C34.2,43.3,34,41.8,33.5,41.5z M30,42
				C30,42,30.1,41.8,30,42c0.1,0,0.1,0,0.2,0C30.1,42,30,42,30,42z M10.3,38.9L10.3,38.9L10.3,38.9c-1,0.1-1.5,1.1-1.5,1.9
				c0,0.1,0,0.1,0,0.2c-0.7,0-1.3,0.2-1.7,0.7c-0.5,0.6-0.4,1.6,0.1,2.9c0.2,0.5,0.7,1.1,1.8,1.3c2.4,0.4,6.4-1.6,7.5-2.9l0.2-0.2
				l-0.1-0.5C16.6,42.3,13.9,38.8,10.3,38.9z M22.9,39.7c-0.5-0.4-1.7-1.2-2.8-1.1c-0.4,0-0.7,0.2-1,0.5c-0.1,0.2-0.2,0.4-0.2,0.6
				c0,0.1,0,0.1,0,0.2c0.1,0.4,0.5,0.4,0.7,0.5c-0.4,0.2-0.7,0.4-0.8,0.2l-0.5-0.8L18,40.6l-0.2,0.7c-0.2,0.7-0.4,1.2,0.2,1.7
				c0.4,0.4,2.3,0.6,5.8,0.5h0.6l-0.1-0.6C24.1,42.4,23.5,40.1,22.9,39.7z"/>
			<path class="st1" d="M10.3,39.4c-1.2,0.1-1.2,2.3-0.8,2.4c0.4,0.1,1.8-1.2,2.1-0.6c0.1,0.6-2.5,2.2-2.8,0.4
				c-0.8,0-2.2,0.4-1.1,2.9c1.1,2.5,7.3-0.2,8.6-1.8C16.2,42.7,13.7,39.3,10.3,39.4z M19.5,39.3c-0.6,0.8,1.3,0.2,1,1
				c-0.5,0.7-1.8,1.1-2.1,0.5c-0.2,1.2-0.6,1.6-0.1,1.9c0.5,0.5,5.4,0.2,5.4,0.2s-0.6-2.5-1.2-3.1C21.9,39.4,20.1,38.4,19.5,39.3z
				 M33.3,41.7c-0.5-0.4-1.5,0.5-2.3,0.6c-0.8,0.1-1.8,0-1.2-0.8c0.5-0.7,0.5,0.2,1.6,0.2c1.1,0,0.7-1.3,0.2-1.8
				c-2.4-2.3-6.7,1.9-6.7,1.9c-0.5,1.3,0.7,1.8,5.2,2.9C34.4,45.8,33.6,42.2,33.3,41.7z"/>
		</g>
		<path class="st0" d="M28.7,116.4c-2.3,0-4.2,1.6-4.5,3.5c-0.6-1.2-1.9-2.1-3.5-2.1c-1.7,0-3.1,1.1-3.6,2.5l0,0
			c0-2.2-2.1-3.9-4.5-3.9s-4.5,1.7-4.5,3.9c0,2.2,2.1,3.9,4.5,3.9c2.1,0,3.6-1.2,4.2-2.8c0,0,0,0,0,0.1c0,2.1,1.8,3.8,3.9,3.8
			s3.6-1.5,3.9-3.3c0.7,1.3,2.3,2.3,4,2.3c2.4,0,4.5-1.7,4.5-3.9C33.2,118.1,31.2,116.4,28.7,116.4z"/>
		<path class="st1" d="M12.6,117c-2.1,0-3.8,1.5-3.8,3.1c0,1.8,1.7,3.1,3.8,3.1c2.1,0,3.8-1.5,3.8-3.1C16.3,118.4,14.6,117,12.6,117
			z M15.9,120c0,0-0.8,2.3-2.5,2.2c0.4-0.7,2.1-1.5,2.1-2.5C15.5,118.6,15.9,120,15.9,120z M20.8,118.4c-1.8,0-3.3,1.3-3.3,3
			s1.5,3,3.3,3c1.8,0,3.3-1.3,3.3-3C24,119.8,22.5,118.4,20.8,118.4z M21.2,122.8c0.2-0.7,1.8-1.1,1.5-2.8c-0.4-1.7,0.4,0.1,0.4,0.1
			S23.8,122.9,21.2,122.8z M28.7,117c-2.1,0-3.8,1.5-3.8,3.1c0,1.8,1.7,3.1,3.8,3.1c2.1,0,3.8-1.5,3.8-3.1
			C32.4,118.4,30.7,117,28.7,117z M25.4,120.4c2.3,2.1,2.5,0.1,4.5-0.7C27.6,124,25.4,120.4,25.4,120.4z"/>
		<path class="st0" d="M55.5,95.1L55.5,95.1c-1.6-2.4-4-2.8-5.3-2.8c-1.8,0-3.5,0.6-4.2,1.5c-6.4,8.5-15.9,13.3-25.9,13.3
			c-9.6,0-18.8-4.5-25-12.3c-0.5-0.5-2.7-3-6.2-2.3c-1.7,0.4-3.3,1.6-4.1,3.4c-0.7,1.5-1.5,4.5,0.8,8.8
			c7.9,10.9,20.8,17.4,34.7,17.4c13.7,0,26.5-6.3,34.2-16.9l0.2-0.4C54.8,104.8,58.6,100.2,55.5,95.1z"/>
		<path class="st1" d="M54.9,95.4L54.9,95.4c-1.3-2.1-3.5-2.4-4.7-2.5c-1.6,0-3,0.5-3.6,1.2c-6.5,8.7-16.2,13.7-26.5,13.7
			c-9.8,0-19.1-4.6-25.7-12.6c-0.1-0.1-2.2-2.8-5.6-2.1c-1.5,0.2-2.8,1.5-3.5,3c-0.6,1.3-1.3,4.1,0.8,8.2
			c7.6,10.8,20.3,17.1,34,17.1c13.4,0,26-6.2,33.6-16.6l0.2-0.4C54.3,104.3,57.6,99.9,54.9,95.4z"/>
		<g>
			<path class="st2" d="M54.3,95.8c-1.9-3-6.4-2.3-7.1-1.2l0,0c-6.4,8.5-16.1,13.9-27,13.9c-10.4,0-19.8-5-26.3-12.8l0,0
				c0,0-1.8-2.4-4.8-1.8c-2.5,0.5-5.4,4.4-2.3,10.2c7.3,10,19.5,16.7,33.4,16.7c13.8,0,25.9-6.4,33.2-16.3l0.2-0.4
				C53.6,104,56.9,99.9,54.3,95.8z"/>
		</g>
		<polygon class="st0" points="3.6,61.1 3.6,98.5 20.3,110.1 37.3,98.5 37.3,61.1 		"/>
		<polygon class="st1" points="4.4,61.8 4.4,98.1 20.3,109.2 36.5,98.1 36.5,61.8 		"/>
		<path class="st0" d="M60.1,67.5v-1.2c0,0-1-0.1-1.1-0.1c-0.4-0.2-1.6-1.3-3.4-3.4l-1.2-1.2l-0.7-1c-8.8-12.2-19.6-18.4-31.9-18.4
			C0,42.2-9.1,55.7-12,60.2l-0.1,0.2c-2.3,3.5-6.3,5.8-6.4,5.8l-0.7,0.4v0.8c0.1,4.8,1.8,8.7,4.5,10.2c2.5,1.3,8.1,0.5,12.1-5.7
			c7.4-9.1,13.1-15,23.4-15c12.5,0,19.7,10.3,22.9,14.8c4.4,6.2,8.2,6.7,9.7,6.5c1.9-0.1,7-2.2,7-10.2
			C60.1,68.2,60.1,67.5,60.1,67.5z"/>
		<path class="st1" d="M59.5,67.5v-0.6c0,0-0.5,0-0.6,0c-0.6-0.1-2.8-2.4-3.8-3.5L54,62.2l-0.7-1C44.5,49.2,34,43,21.8,43
			C0.4,43-8.5,56.4-11.4,60.7l-0.1,0.2c-2.4,3.6-6.5,6.1-6.7,6.1l-0.4,0.2v0.4c0.1,4.6,1.7,8.2,4.1,9.6c2.4,1.2,7.4,0.4,11.1-5.4
			c7.5-9.2,13.3-15.4,24-15.4c12.9,0,20.2,10.5,23.4,15c4.1,5.9,7.7,6.3,9.1,6.3c1.8-0.1,6.4-2.1,6.4-9.4
			C59.5,68,59.5,67.7,59.5,67.5z"/>
		<path class="st2" d="M-17.9,67.6c0,0,4.2-2.4,6.9-6.3c2.5-3.9,11.4-17.7,32.8-17.7c20.3,0,30.4,17.7,31.7,18.9
			c1.3,1.3,4.5,5,5.3,5c0.2,7-3.8,9.2-5.7,9.3c-1.9,0.1-5.2-1.3-8.5-5.9c-3.3-4.7-10.9-15.4-24-15.4c-11.4,0-17.5,7.1-24.4,15.7
			c-3.4,5.3-8,6.4-10.2,5.2C-16.3,75.4-17.8,71.8-17.9,67.6z"/>
		<path class="st2" d="M5.2,74.5h30.4v-2.1H5.2V74.5z M16.7,70.4v-1.5h-2.1v-3.6c0,0-1.2,2.8-2.3,5C12.3,70.4,14.2,70.4,16.7,70.4z
			 M5.2,63.4V72h4.2v-2.8c0.1,0.2,0.4,0.5,0.7,0.7l4.4-4.4h2.2v-1.2h0.4v1.2h1.8v3.6h-1.8v1.5h4.6v-1.5h-1.6v-3.6h1.6v-1.2H22v1.2
			h2.3v3.6H22v1.5h4.8v-1.5h-1.9v-3.6h1.9v-1.2h0.4v1.2H29v3.6h-1.8v1.5h2.5c0,0.2-0.4,1-0.6,1.5h6.4v-8.6H5.2V63.4z M10.3,69.8
			c0.8,0.5,2.1,0.6,2.1,0.6C12,69.3,10.3,69.8,10.3,69.8z"/>
		<path class="st1" d="M39,105.5l-3.4,1.9l3.6,6.4l3.4-1.9c0.8-0.7,2.3-2.3,0.8-4.8C41.7,104,39,105.5,39,105.5z M41.3,111.4
			l-1.1,0.6l-2.5-4.4l1.2-0.7c1.2-0.7,2.3-0.1,3.1,1.3C43.2,110.4,41.3,111.4,41.3,111.4z"/>
		<polygon class="st1" points="14.2,110 12.9,114.8 10.2,109 10.2,109 10.2,109 10.2,109 10.2,109 8.6,108.6 6.9,115.9 8.6,116.3 
			9.7,111.4 12.5,117.2 14,117.6 15.7,110.3 		"/>
		<polygon class="st1" points="28,110.6 21.8,111.4 21.9,112.4 24.2,112 25,118.4 26.7,118.2 25.8,111.8 28.1,111.5 		"/>
		<polygon class="st1" points="33.3,115.4 32.3,113.2 34.6,112.3 34.2,111.3 31.9,112.3 31.1,110.4 33.4,109.5 33,108.5 29.2,110.2 
			32.1,117 36.4,115.2 36.1,114.2 		"/>
		<path class="st1" d="M5.3,107.5l-2.4,4.4l0,0c-0.5,0.8-1.5,1-2.3,0.6c-0.8-0.5-1.2-1.3-0.7-2.2l0,0l2.4-4.4l-1.5-0.8l-2.5,4.7l0,0
			c-0.5,1,0.4,2.5,1.9,3.5c1.7,0.8,3.4,0.8,4-0.2l2.5-4.7L5.3,107.5z"/>
		<rect x="18.3" y="111.2" class="st1" width="1.7" height="7.4"/>
		<path class="st0" d="M-12.1,54.2c-0.7-0.2-1.3,0-1.8,0.5v-0.1l-1.1,1c0,0-2.8,2.7-4.7,4.8l-0.1,0.1v0.1c-0.4,1.2-0.2,2.2,0.2,2.8
			c0.6,0.8,1.7,0.8,1.8,0.8h0.2l0.5-0.5l0.2,2.4l1.1-1.1c0.5-0.5,5.1-5.3,5.8-7.3v-0.1v-0.1C-9.9,56.1-10.9,54.5-12.1,54.2z"/>
		<path class="st0" d="M60.9,60.6v-0.1l-0.2-0.1c-1.9-2.2-4.7-4.7-4.7-4.8l-1-1v0.1c-0.5-0.5-1.2-0.7-1.8-0.5
			c-1.2,0.4-2.2,1.8-2.2,3.3v0.1v0.1c0.7,1.9,5.3,6.8,5.8,7.3l1.1,1.1l0.2-2.4l0.5,0.5h0.2c0.1,0,1.2,0,1.8-0.8
			C61.1,62.6,61.2,61.8,60.9,60.6z"/>
		<g>
			<g>
				<path class="st1" d="M-13.2,58.3l-4.7,5.2c0,0-2.2,0.1-1.3-2.8c1.9-2.2,4.7-4.7,4.7-4.7S-14.3,57.9-13.2,58.3z"/>
				<path class="st1" d="M-16.3,64.5l-0.1-1.6l4.2-4.8c0,0-2.3-1.5-1.5-2.9c1-1.5,3,0.4,2.9,2.1C-11.4,59.3-16.3,64.5-16.3,64.5z"/>
			</g>
			<g>
				<path class="st1" d="M54.1,58.3l4.7,5.2c0,0,2.2,0.1,1.3-2.8c-1.9-2.2-4.7-4.7-4.7-4.7S55.2,57.9,54.1,58.3z"/>
				<path class="st1" d="M57.2,64.5l0.1-1.6L53.1,58c0,0,2.4-1.5,1.5-2.9c-1-1.5-3,0.4-2.9,2.1C52.4,59.3,57.2,64.5,57.2,64.5z"/>
			</g>
		</g>
		<g>
			<circle class="st0" cx="-14.8" cy="85.8" r="7.7"/>
			<circle class="st1" cx="-14.8" cy="85.8" r="7.1"/>
			<circle class="st2" cx="-14.8" cy="85.8" r="6.3"/>
			<path class="st1" d="M-14.5,86.8c2.2,0,4.1-1.5,4.7-3.5c-0.4-0.7-0.8-1.3-1.5-1.8c-0.6,0.4-1.3,0.7-2.2,0.8
				C-14,83.6-14.5,85.2-14.5,86.8z M-9.6,83.8c-0.8,1.9-2.8,3.4-5,3.4l0,0c0,1.5,0.2,2.8,0.7,3.9c2.7-0.4,4.6-2.7,4.6-5.4
				C-9.2,85-9.3,84.4-9.6,83.8z M-11.6,81.3c-0.8-0.6-1.9-1-3.1-1c-1,0-1.8,0.2-2.5,0.7c0.8,0.7,1.9,1.1,3.1,1.1
				C-13.2,82-12.3,81.6-11.6,81.3z M-13.9,82.4c-0.1,0-0.1,0-0.2,0c-1.1,0-2.1-0.4-2.9-0.8c-1,1.5-1.6,3.5-1.6,5.7
				c0,0.8,0.1,1.7,0.2,2.5c1,0.8,2.3,1.5,3.8,1.5c0.1,0,0.2,0,0.4,0c-0.4-1.2-0.6-2.5-0.6-4C-15,85.4-14.5,83.7-13.9,82.4z
				 M-17.7,81c-0.7,0.5-1.5,1.2-1.8,1.9c0.1,0.6,0.4,1.1,0.7,1.6c0.2-1.3,0.7-2.4,1.3-3.4C-17.5,81.2-17.7,81.2-17.7,81z
				 M-19.8,83.6c-0.2,0.6-0.4,1.3-0.4,2.1c0,1.3,0.5,2.5,1.3,3.5c-0.1-0.6-0.1-1.3-0.1-2.1c0-0.7,0.1-1.5,0.1-2.1
				C-19.2,84.7-19.6,84.2-19.8,83.6z"/>
		</g>
		<g>
			<circle class="st0" cx="56.1" cy="85.8" r="7.7"/>
			<circle class="st1" cx="56.1" cy="85.8" r="7.1"/>
			<circle class="st2" cx="56.1" cy="85.8" r="6.3"/>
			<path class="st1" d="M54.8,82.2c-0.8-0.1-1.6-0.4-2.2-0.8c-0.6,0.5-1.1,1.1-1.5,1.8c0.6,2.1,2.5,3.5,4.7,3.5
				C55.9,85.2,55.4,83.6,54.8,82.2z M50.6,85.8c0,2.8,2.1,5.1,4.6,5.4c0.5-1.2,0.7-2.5,0.7-3.9l0,0c-2.3,0-4.2-1.5-5-3.4
				C50.7,84.4,50.6,85,50.6,85.8z M55.5,82c1.2,0,2.3-0.4,3.1-1.1c-0.7-0.4-1.7-0.7-2.5-0.7c-1.2,0-2.3,0.4-3.1,1
				C53.7,81.6,54.6,82,55.5,82z M56.4,87.2c0,1.5-0.2,2.8-0.6,4c0.1,0,0.2,0,0.4,0c1.5,0,2.7-0.6,3.8-1.5c0.1-0.8,0.2-1.7,0.2-2.5
				c0-2.3-0.6-4.2-1.6-5.7c-0.8,0.5-1.8,0.8-2.9,0.8c-0.1,0-0.1,0-0.2,0C55.9,83.7,56.4,85.4,56.4,87.2z M58.8,81.3
				c0.6,1,1.1,2.1,1.3,3.4c0.4-0.5,0.6-1,0.7-1.6c-0.5-0.8-1.1-1.5-1.8-1.9C59.1,81.2,58.9,81.2,58.8,81.3z M60.3,85.2
				c0.1,0.6,0.1,1.3,0.1,2.1c0,0.7-0.1,1.3-0.1,2.1c0.8-1,1.3-2.2,1.3-3.5c0-0.7-0.1-1.5-0.4-2.1C61,84.2,60.7,84.7,60.3,85.2z"/>
		</g>
		<g>
			<polygon class="st1" points="-8.3,62.3 -6.3,68 -11.6,65.6 -13.2,67 -8.1,72.3 -7,71.4 -10.9,67.5 -5.4,69.8 -4.7,69.1 
				-6.4,63.9 -3,67.5 -1.8,66.3 -6.9,61 			"/>
			<polygon class="st1" points="5.3,49.6 8,53.8 1.9,51.8 1.8,51.8 1.8,51.8 1.8,51.8 1.8,51.8 0.6,52.5 4.6,58.8 5.9,57.9 
				3.4,53.7 9.3,55.7 10.8,54.9 6.8,48.6 			"/>
			<polygon class="st1" points="23.4,45.9 23.4,49.1 20,49.1 20,45.9 18.3,45.9 18.3,53.3 20,53.3 20,49.9 23.4,49.9 23.4,53.3 
				25,53.3 25,45.9 			"/>
			<polygon class="st1" points="45.5,57 40.9,52.8 40.3,53.6 41.9,55 37.5,59.7 38.7,60.8 43.2,56.2 44.8,57.7 			"/>
			<polygon class="st1" points="28.7,52.8 29.4,50.7 31.8,51.5 32.2,50.5 29.8,49.7 30.5,47.8 32.9,48.7 33.3,47.8 29.3,46.3 
				26.7,53.2 31.2,54.9 31.6,53.9 			"/>
			<polygon class="st1" points="43.3,63.7 45,62.2 46.7,64 47.4,63.3 45.7,61.4 47.3,60.1 49,61.9 49.7,61.3 47,58.2 41.4,63.1 
				44.7,66.6 45.4,66 			"/>
			<path class="st1" d="M16.3,52c-0.4,0.5-0.8,0.7-1.3,1c-1.5,0.5-3.1-0.4-3.6-1.9s0.4-3.1,1.8-3.6c0.6-0.1,1.1-0.1,1.6,0l0.4-1
				c-0.8-0.2-1.8-0.2-2.8,0c-2.3,0.7-3.6,3-2.9,5.2c0.7,2.2,3.1,3.4,5.4,2.7c1-0.4,1.8-1,2.3-1.7L16.3,52z"/>
			<path class="st1" d="M38.8,53.1l1.1-0.2c0,0-0.1-1.2-1.5-2.1c-1.3-0.8-3.1-0.8-3.9,0.2c-0.7,1.1,0.2,2.5,0.5,3
				c0.4,0.5,0.6,1.2,0.6,1.2s0.4,0.8-0.5,1.2c-0.7,0.4-2.2-0.7-2.2-1.8c-0.8,0.4-1.1,0.5-1.1,0.5s0,1.1,1.8,2.2
				c1.7,1.1,3.3,0.4,3.6-0.4c0.5-0.7,0.5-1.5,0.1-2.3c-0.2-0.6-1-1.9-1-1.9s-0.4-0.8,0.2-1.2c0.5-0.2,1.5,0.4,1.7,0.8
				C38.7,52.7,38.8,53.1,38.8,53.1z"/>
			<path class="st1" d="M-3.6,56.4l-1.2,1.3l3.4,7.3l1-1.1l-1-1.9l1.8-1.8L2.3,61l1.5-1.5L-3.6,56.4z M-1.9,61.2l-1.3-2.7l2.8,1.2
				L-1.9,61.2z"/>
			<path class="st1" d="M50.6,69.4c0.5,0.4,1.6,0.6,2.7-0.4c1.6-1.5-0.2-3.4-0.2-3.4l-2.3-2.4l-5.3,5.1l1.2,1.2l2.1-1.9l0.7,0.8
				l-1.2,2.8l1.6,1.7C49.7,72.9,50.3,70.6,50.6,69.4z M49.9,67.6L49.3,67l1.9-1.8l0.5,0.5c0.2,0.2,0.8,1.2-0.1,2.1
				C50.7,68.6,49.9,67.6,49.9,67.6z"/>
		</g>
		<path class="st2" d="M30.4,76.6L29.3,79h0.4v2.3h-1.3V79h0.6l-1.2-2.4L26.6,79h0.5v2.3h-1.3V79h0.6l-1.2-2.4L24.1,79h0.5v4.2h2.7
			v1.2c-1.1-0.1-2.2,0.2-2.4,0.6c-0.5,0.5-2.7,1-1.6,0c1.1-1,1.7-1,0.7-1.5c-1-0.5-1.2-1.1-1.2-1.1l0.1-3.3l1.5-2.3h-1.7l-1.1-2.2
			l-1.1,2.1H19l-1.1-2.1l-1.1,2.1H15l2.9,5.6l-1.7,1.6c0,0-0.4,1.5,0.5,2.4c0.8,1,1.1,1.5,0.5,2.4c-0.6,1-0.7,1.3-0.7,1.3
			s-1,1.5-1.1-0.4c-0.1-1.8-0.5-4.7-0.5-4.7l1.6-2.8c0,0-2.1-0.5-2.5-5c-1.1,1.5-2.1,0.6-2.7,0.1c-0.6,2.1-1.7,3.4-2.2,2.9
			c-0.5-0.5-1.3-0.7-1.3-0.7s1.6,2.5,0.8,4c1.8-1.8,3.3-2.4,3.9-2.1c0.6,0.4,0.7,0.8-1,2.3c1.2,0.5,1.5,0.5,1.6,0.5v8.2
			c0,0-0.4,2.9,1.8,2.9c1.2,0,1.5,0,1.5,0l-0.4,4.8c0,0,0.1,0.8,0.4,1.3c0.2,0.5,1.1,1.5,1.1,1.5s0.2,0.5,0.1,1
			c-0.1,0.5-0.5,2.1,0.5,2.4c1,0.2,2.8-0.8,3.1-1.1c0.4-0.2,1-0.7,0-1.8c-0.8-1.2-1.7-2.8-0.8-3.3c0.8-0.5,1.6-0.7,0.8-2.1
			c-0.7-1.3-2.2-4.7-1.1-3.4l5,5.6c0,0,0.7,0.8,0.8,0.2c0-0.7-0.5-5.2-0.1-5.7c0.4-0.5-0.1-1.1-1.3-1c-0.1-1.1,0.2-1.6,0.2-2.1
			c0-0.5-0.8-0.5-2.1,0.2c-0.6,0.2,0.1-1.3,0.5-1.7c0.4-0.5,0.6-0.8,0.6-0.8l3.1,1.6c0,0,0,0,0.1,0v9.4l0,0c0,0.4,0.2,0.6,0.6,0.6
			s0.6-0.2,0.6-0.6l0,0v-9.6c0.8-0.2,1.7-1,0.7-2.5c0.5-0.5,1.2-0.8,0.1-2.8c-0.2-0.4-0.5-0.7-0.8-0.8v-1.6h2.7v-4.2h0.6L30.4,76.6z
			 M18.5,79.7L18.4,78l1,1.5L18.5,79.7z M20.1,83.7l-0.8-1.8c0.2,0,1.7,0,1.7,0L20.1,83.7z M21.4,79.7l-0.8-0.4l1-1.5L21.4,79.7z"/>
	</g>
</g>
</svg>
