<?xml version="1.0" encoding="utf-8"?>
<!-- Generator: Adobe Illustrator 19.1.0, SVG Export Plug-In . SVG Version: 6.00 Build 0)  -->
<svg version="1.1" id="Layer_1" xmlns="http://www.w3.org/2000/svg" xmlns:xlink="http://www.w3.org/1999/xlink" x="0px" y="0px"
	 viewBox="0 0 100 100" style="enable-background:new 0 0 100 100;" xml:space="preserve">
<style type="text/css">
	.st0{fill:#FEC670;}
	.st1{fill:#02B4DB;}
	.st2{fill:#FFFFFF;}
	.st3{fill:none;stroke:#000000;stroke-width:2.12;}
	.st4{fill:none;stroke:#000000;stroke-width:0.242;}
	.st5{fill:#B3B3B3;}
	.st6{fill:none;stroke:#000000;stroke-width:8.100000e-02;}
</style>
<g>
	<g>
		<g>
			<g>
				<path d="M43,34c0-0.3-0.1-0.5,0.1-0.8c0-0.1,0.3-0.1,0.5,0c0.1,0.2,0.3,0.3,0.4,0.5c0.2,0,0.4-0.2,0.6-0.2
					c0.2-0.2,0.6-0.2,0.9-0.2c0.7,0.2,1.4,0.5,1.8,1.1c-0.6-0.2-0.9-0.2-1.5-0.3l-0.5,0L43,34c-0.1,0.1-0.8,0.1-0.8,0.1
					c-1.2-0.1-2.6,0.1-3.5-0.7l-0.1,0.1c0,0.5,0.5,0.8,0.9,1c0.1,0.2,0.4,0.2,0.6,0.3c0.9,0.3,2,0.3,2.9,0.3c0,0,0.4,0,0.6,0.1
					c0.3,0.1,0.9,0,1.3,0.1c0.7,0,1.4,0.2,2.1,0.3l0,0c-0.4,0.1-0.9,0-1.3,0.1c-0.8,0.2-1.5-0.1-2.1-0.5c0,0-0.4-0.1-0.5,0
					c0,0.1-0.1,0.2-0.1,0.3c0.1,0.3,0.2,0.5,0.4,0.7c0,0.3,0.4,0.3,0.5,0.4c0.3,0.1,0.5,0.4,0.9,0.3c0.3,0.3,0.7,0.1,1.1,0.2
					c0.4,0.2,0.9,0.2,1.3,0.2c0.1,0.1,0.4,0.1,0.5,0.1v0c0.2,0.1,0.6-0.1,0.7,0.2c0.2,0.4-0.2,0.7-0.4,1c-0.6,0.2-1.3,0-1.8,0.4
					c-0.4,0.2-0.8,0.5-1.2,0.8c-0.4,0.4,0.3,0.4,0.4,0.6c-0.4,0.2-0.9,0.4-1.4,0.7c-0.4,0.5-1,0.8-1.1,1.6c0,0.1,0.2,0.2,0.3,0.2
					l13.6,0c0-0.1,0-0.1-0.1-0.2c0.3,0,0.4,0.1,0.7,0.1c0-0.1,0.2-0.2,0.1-0.4h0l0-1l0,0c0-0.4-0.1-0.9-0.2-1.3
					c-0.1-0.4-0.3-0.7-0.3-1.1c0.3,0.2,0.6,0.1,0.8,0.2c0.3-0.1,0.1-0.5,0.2-0.7c0-0.1-0.1-0.1,0-0.2c0-0.8-0.3-1.6-0.5-2.4
					c-0.1-0.2-0.4-0.4-0.4-0.7l0.4-0.1c0-0.1-0.1-0.3,0-0.4c-0.1-0.2-0.2-0.5-0.2-0.7c0-0.4-0.3-0.7-0.3-1.1c-0.3-0.3-0.4-0.8-0.9-1
					l0.1-0.1c0.5-0.1,0.7-0.5,1-0.9c0.3-0.5,0.7-1.2,0.4-1.8c-0.1,0.1-0.3,0.2-0.3,0.2c-0.8,0.3-2.1,0.4-2.9,0
					c-2.7-0.7-5.4-2.2-8.4-1.8c-1.1,0.3-2.2,0.6-3,1.5c-0.2,0.4-0.8,0.4-1.1,0.6c-0.3,0.2-0.6,0.6-0.8,1c-0.4,1.1,0,2.3,0.8,3
					c0,0.1,0.2,0.1,0.2,0.2C42.2,34,43,34.2,43,34C43,34,43,34,43,34"/>
				<path d="M65,56.7c0.2,0.3,0.3,0.6,0.5,0.9c0.2,0.2,0.4,0.2,0.5,0.5c0.1,0,0.4,0.1,0.4-0.1c0.4-0.3,0.4-0.7,0.7-1.2
					c0.1-0.3,0.3-0.6,0.3-1c0,0.2,0.2,0.3,0.1,0.4c0,1.1,0.3,1.8,0.4,2.9c0.1,1.1,0.4,1.8,0.6,2.9c0.3,1,0.7,1.8,1.1,2.6
					c0.4,0.6,0.8,1.2,1.2,1.8c0.1,0,0.3,0.4,0.5,0.2c-0.1-1.7,0.2-3.1,0.2-4.9c0.1,0.5,0.3,1,0.4,1.5c0.1,0.2-0.1,0.6,0.1,0.8
					c0.1,0.9,0.4,1.7,0.5,2.5c0.3,1.5,1,2.7,1.7,3.9c0.2,0.1,0.3,0.4,0.5,0.5c0.1,0.4,0.4,0.4,0.6,0.8c0.9,0.8,1.8,1.6,2.8,2.3
					c0.4,0.1,0.5,0.4,0.9,0.5c-0.1-0.2,0-0.5-0.3-0.6c0-0.4-0.5-0.6-0.5-1.1c-0.2,0-0.1-0.2-0.2-0.3c0-0.2-0.3-0.2-0.2-0.4
					c-0.2-0.4-0.5-0.8-0.4-1.3c-0.1-0.2-0.3-0.4-0.3-0.7L77,70.2c-0.2-0.8-0.4-1.8-0.5-2.7h0c0-1.1-0.1-2.2-0.3-3.2c0,0,0,0,0,0
					c0.8,1.4,1.3,3,2.8,3.8c0.2,0.1,0.3,0.2,0.4,0.3c0.1,0.1,0.3,0.1,0.2,0.2h0.1c1.3,0.8,2.9,1,4.1,2c0.2,0,0.1,0.2,0.3,0.1
					c-0.5-1.7-1.9-2.9-2.9-4.2c-0.1-0.3-0.3-0.6-0.5-0.9c-0.3-0.6-0.5-1.3-0.8-2c-0.1-0.1,0.1-0.4-0.1-0.4c0-0.3-0.1-0.6-0.3-0.9
					c-0.1-0.5-0.3-1.2-0.3-1.8h0c0-0.6-0.2-1-0.2-1.6c0.1-0.1-0.1-0.2,0-0.3c0.5,0.6,0.8,1.3,1.5,1.6c0.8,0.8,2,1.1,3.1,1.5
					c0.7-0.1,1.2,0.3,1.8,0.1c-0.1-0.2-0.3-0.4-0.5-0.4c-0.3-0.4-0.9-0.6-1.1-1.1c-0.7-0.8-1.1-2-1.4-3.1c-0.2-0.3-0.2-0.8-0.3-1.1
					c-0.1-0.4-0.2-0.8-0.3-1.3c-0.1,0-0.1-0.1-0.1-0.2c-0.2-1-0.4-1.8-0.5-2.8l-0.1-0.1c0-0.8-0.2-1.8-0.2-2.6l0.1-0.1
					c0.7,0,1.5,0.1,2.2-0.2c0.3-0.1,0.6-0.3,0.6-0.7c-0.3,0-0.8-0.1-1-0.3c-0.4-0.3-0.8-0.8-1-1.2c-0.2-1.2-0.7-2.1-0.9-3.3
					c-0.1,0,0-0.3-0.1-0.3c-0.2-1.1-0.7-2.4-0.7-3.6c0-0.2-0.1-0.6-0.1-0.9c0.5-0.2,1-0.2,1.4-0.5c0.1-0.1,0-0.2-0.1-0.3
					c-0.4-0.1-0.7-0.3-0.9-0.5c-0.3-0.3-0.6-0.9-0.6-1.3c-0.5-0.5-0.6-1.3-0.8-2c-0.1-0.4-0.2-0.7-0.4-1c-0.1-0.6-0.5-1-0.5-1.5
					c-0.1-0.1-0.3-0.2-0.2-0.4c-0.6-1.5-1.5-2.9-2.8-3.9c-0.3-0.5-1.1-0.7-1.5-1.1c-0.4-0.3-0.9-0.3-1.4-0.4
					c-0.8-0.1-1.5,0.1-2.2,0.5c-0.3,0-0.4,0.2-0.6,0.3c0,0.1-0.1,0.1-0.2,0.2c-0.9,1-1.6,2.4-2.2,3.6l-0.4,1.5
					c-0.1,0.1,0,0.4-0.2,0.5c-0.3,1.2-0.7,2.2-1.1,3.3c-0.2,0.3-0.3,0.5-0.4,0.8c-0.1,0.2-0.2,0.4-0.3,0.6c0,0.3-0.2,0.6-0.4,0.8
					c-0.3,0.7-0.7,1.3-1,1.8c-0.2,0.1-0.2,0.5-0.4,0.7c-0.1,0,0,0.3-0.2,0.3c-0.5,0.9-1.2,1.7-2,2.5l4.6,0L65,56.7"/>
				<path d="M33.8,58.3c-0.2,0-0.2,0-0.3,0.1c-0.3,0.2-0.2-0.3-0.4-0.3c-0.3-0.8-0.9-1.5-1.1-2.3c-0.2,2,0,3.9-0.3,5.8
					c-0.2,0.2,0,0.4-0.1,0.5l0,0.2h0c-0.1,0.5-0.3,1.1-0.6,1.6c0,0.2-0.2,0.4-0.2,0.6c-0.3,0.6-0.6,1-0.8,1.6h-0.1l-0.7,1.1
					c0.1,0.1-0.1,0.1-0.2,0.2c-0.3,0.6-0.5,1-1,1.5c0-0.5,0-1.2-0.1-1.7c0.1-0.8,0-1.9-0.1-2.9c-0.2,1.3-0.7,2.6-1,3.9
					c-0.1,0.4-0.4,0.7-0.4,1.1c-0.3,0.5-0.4,1-0.8,1.4v0.1c-0.2,0.1-0.3,0.5-0.5,0.6c-0.2,0,0,0.3-0.3,0.3c-0.6,1.1-1.9,1.7-3,2.4
					c-0.6,0.5-1.2,0.9-1.5,1.6c-0.2,0-0.1-0.2-0.2-0.3c0.1-0.6,0.1-1.4,0.6-1.9c0.6-1,1.3-2.2,1.6-3.3c-0.1-0.2,0.2-0.3,0.2-0.5
					c0.2-0.4,0.2-0.9,0.3-1.4c0.2-0.6,0.1-1.3,0.4-1.9c0.1-1,0.3-1.9,0.4-3h-0.1c-0.3,0.9-0.8,1.9-1.3,2.7c-0.6,0.6-1.2,1.4-2,1.7
					c-0.7,0.4-1.5,0.5-2,1.2c-0.3,0.2-0.4,0.5-0.7,0.7V70c-0.2,0.1-0.3,0.4-0.5,0.4c-0.1-0.9,0.3-1.6,0.5-2.4
					c0.1-0.1,0.2-0.3,0.3-0.5c0.2-0.3,0.4-0.4,0.5-0.7c0.2,0,0.1-0.2,0.3-0.2c0.6-1,1.1-2.3,1.4-3.4c0.3-0.8,0.4-1.8,0.6-2.7
					c0.2-0.3,0.1-0.6,0.3-1c0.1-0.4,0.2-0.7,0.1-1.1c-0.1,0.1,0,0.2-0.1,0.3c-0.3,0.1-0.2,0.4-0.4,0.6c-0.1,0.3-0.3,0.5-0.4,0.8
					c-0.4,0.6-1,0.9-1.6,1.3c-0.7,0.1-1.2,0.4-1.9,0.4v0c-0.5,0-1,0.3-1.4,0.6h-0.1c0.2-0.9,0.7-1.6,1.4-2.2c0.5-0.6,0.8-1.3,1.1-2
					c0.2-0.7,0.5-1.4,0.6-2.1c0.2-0.6,0.3-1.4,0.6-2c0.2-0.5,0.2-1.2,0.4-1.7c-0.1-0.4,0.3-0.7,0.2-1.1c0.2-0.4,0.2-1,0.4-1.5
					c-0.4,0.2-0.8,0.5-1.3,0.6c-0.5,0-1.1,0.1-1.5-0.2c-0.1-0.7,0.9-1,1-1.5c0.5-1,1.1-2,1.3-3.1c0.5-1.2,0.6-2.5,1-3.7l0-0.1
					c0.1-0.1-0.1-0.2,0.1-0.3c0.1-0.4,0.2-1,0.4-1.5c-0.2-0.1-0.4,0.1-0.5,0.2c-0.4,0-0.8,0.3-1.3,0.1c-0.2-0.1-0.1-0.3,0-0.5
					c0.2,0,0-0.3,0.2-0.3c0.6-1.1,1.1-2.1,1.3-3.4c0.7-2.2,1-4.4,2.4-6.3c0-0.3,0.3-0.3,0.3-0.6c0.7-1.1,1.6-1.9,2.7-2.6
					c0.9-0.7,2.5-0.7,3.5-0.1c0.2,0.1,0.4,0.1,0.5,0.3c0.2,0.1,0.4,0.3,0.7,0.4c0.2,0.4,0.8,0.8,1,1.3c0.3,0.1,0.1,0.3,0.3,0.5
					c1,1.9,1.5,3.9,2.5,5.8c0.4,0.7,0.5,1.5,1.1,2.2c0.1,0.2,0.2,0.5,0.3,0.7c0.1,0.1,0,0.3,0.3,0.3c0,0.3,0.3,0.6,0.4,0.8
					c0.2,0.2,0.2,0.4,0.4,0.5c0,0.3,0.3,0.4,0.4,0.6c0.5,0.6,1.1,1.4,1.6,1.9c0.4,0.5,0.7,0.8,1.1,1.1c0.1,0.1,0.2,0.2,0.4,0.4
					l-6.3,0L33.8,58.3"/>
				<path class="st0" d="M65,44.6c0.1-0.2,0.2-0.3,0.2-0.5c0.4-0.6,0.1-1.1-0.1-1.7c0,0,0-0.1,0.1-0.1c0.2,0.3,0.5,0.4,0.5,0.7
					c0.1-0.2,0.4-0.3,0.5-0.5c0-0.1,0.2-0.3,0.1-0.4c0.1-0.3,0.2-0.5,0.2-0.9c0-0.3-0.3-0.7-0.1-1c0.4,0.2,0.4,0.8,0.5,1.2
					c0.6-0.4,0.8-1.1,1.1-1.8c0.2-0.6-0.1-1-0.2-1.6c0.4,0,0.5,0.6,0.6,1c0.4-0.6,0.7-1.4,0.6-2.2c0-0.3-0.2-0.6-0.2-0.9
					c0.4,0.1,0.4,0.5,0.5,0.8h0.1c0.1,0,0.1-0.1,0.1-0.3c0.3-0.6,0.5-1.4,0.4-2.2c0-0.3-0.6-0.6-0.2-0.8l0.1,0.1
					c0.3,0,0.2,0.3,0.4,0.4c0,0.2,0.1,0.4,0.3,0.4c0.4-0.7,0.8-1.7,0.5-2.5c0-0.2-0.3-0.4-0.2-0.7c0.3,0,0.4,0.3,0.5,0.6
					c0.1,0.1,0,0.4,0.1,0.4c0.5-0.8,0.4-1.9,0.3-2.8c-0.2-0.2-0.4-0.4-0.4-0.7c0.1-0.2,0.2-0.4,0.6-0.3c0.3,0.1,0.8,0.3,1,0.6
					c0.1,0,0.1,0.1,0.1,0.1c0.9,1.1,1,2.6,1.6,3.7l0.1-0.9c0.1-0.3,0.1-0.7,0.3-0.9l0,0c-0.1,0.8-0.2,1.8,0.2,2.5
					c0.2,0.3,0.2,0.7,0.5,0.8c0.1,0.3,0.3,0.6,0.7,0.8c0-0.5-0.1-1,0.1-1.4c0.1,0,0.1,0,0.2,0.1c-0.2,0.3,0.1,0.6,0.1,0.9
					c0.2,0.5,0.3,1.1,0.7,1.4c0.1,0.4,0.5,0.6,0.8,1c0.2,0,0.2,0.3,0.4,0.3c0.3,0.3,0.6,0.4,0.9,0.5c0.6,0.3,1.2,0.3,1.9,0.1
					c-0.1-0.1-0.4-0.1-0.6-0.3c-0.5-0.1-0.7-0.7-1-1.1c-0.3-0.7-0.6-1.4-0.9-2.1c0-0.3-0.3-0.4-0.3-0.8c-0.2-0.3-0.3-0.7-0.4-1
					c-0.2-0.2-0.1-0.6-0.3-0.8c0.1-0.3-0.3-0.4-0.2-0.8c-0.2,0-0.1-0.3-0.2-0.4c-0.3-0.7-0.7-1.3-1.1-1.9c-0.2,0-0.1-0.2-0.2-0.3
					c-0.3-0.2-0.4-0.6-0.8-0.8c-1.1-0.9-2.2-1.9-3.8-1.8c-0.5,0.2-0.9,0.3-1.3,0.5c-0.6,0.4-1.2,0.9-1.5,1.5
					c-0.2,0.2-0.2,0.5-0.4,0.7c0,0.3-0.4,0.4-0.3,0.8c-0.2,0.3-0.3,0.6-0.4,1c-0.6,1.3-0.9,2.9-1.5,4.2l-0.1,0
					c0,0.4-0.2,0.6-0.4,0.9c-0.3,0.7-0.5,1.4-0.8,2c-0.2,0.3-0.4,0.7-0.6,1c-0.3,0.5-0.6,1.1-1,1.7c-0.6,0.9-1.3,1.7-2,2.6l3.9,0
					L65,44.6"/>
				<path class="st0" d="M39.4,43c-0.7-0.7-1.4-1.4-2-2.2l0-0.1c-1-1.2-1.9-2.6-2.6-4.1c-0.2-0.5-0.6-0.8-0.7-1.4
					c-0.5-0.7-0.6-1.6-1.1-2.3c0-0.4-0.3-0.8-0.4-1.1c0-0.2-0.1-0.4-0.2-0.5c-1-2.2-2.1-5.1-5-5.1c-0.5,0-0.9,0.2-1.3,0.3
					c-0.5,0.3-0.9,0.5-1.3,0.8c0,0.2-0.2,0.2-0.2,0.3c-0.5,0.4-0.8,1-1.2,1.5c-0.1,0.1-0.2,0.4-0.3,0.5c-0.5,0.9-0.9,1.9-1.2,2.9
					c-0.1,0.2-0.2,0.4-0.3,0.6c-0.5,1.2-0.6,2.6-1.1,3.7c-0.2,0.9-0.6,1.7-1.1,2.4c-0.1,0-0.1,0.1-0.1,0.2c0.4,0.1,0.9-0.1,1.2-0.2
					c1-0.6,1.9-1.7,2.6-2.7c0.2-0.8,0.6-1.4,0.5-2.4c0-0.1,0-0.3,0.1-0.2c0.2,0.3,0.1,0.7,0.2,1c0.1-0.1,0.2-0.2,0.2-0.3
					c0.5-0.5,0.7-1.3,0.6-2.1c0-0.2-0.3-0.4,0-0.5c0.2,0.4,0.3,0.9,0.3,1.4c0.1-0.1,0.3,0,0.4-0.1c0.1,0,0-0.2,0.1-0.1
					c0-0.2,0.2-0.3,0.2-0.5c0-1.3,0.2-2.5,0.8-3.5c0.2-0.1,0.3-0.3,0.4-0.5c0.3-0.4,0.6-0.1,0.9,0c0.1,0.2,0,0.4,0.1,0.5
					c-0.2,0.4-0.5,0.6-0.8,1c-0.1,0.7,0,1.5,0.4,1.9c0.2-0.1,0.2-0.3,0.3-0.5c0.2-0.1,0.2-0.4,0.5-0.3v0.1c-0.3,0.2-0.3,0.7-0.4,1
					c0.2,0.1-0.1,0.1,0,0.2c0,0.4,0.2,0.8,0.3,1.1c0.2,0.3,0.4,0.6,0.5,0.9c0.2-0.2,0.2-0.5,0.5-0.6l0.1,0.2c-0.3,0,0,0.3-0.2,0.3
					c-0.3,0.7-0.1,1.4,0.3,1.9c0.2,0.2,0.3,0.6,0.6,0.6c0.1-0.3,0.1-0.8,0.5-0.9c0,0.2-0.1,0.5-0.1,0.7c0,0.6,0.2,1.2,0.5,1.7
					c0,0.3,0.4,0.5,0.6,0.7c0-0.2,0.2-0.4,0.2-0.7c0.1,0,0.2-0.2,0.3,0c-0.1,0.2-0.2,0.4-0.2,0.7c0,0,0,0,0.1,0l-0.1,0.1
					c0,0.5,0.4,1,0.6,1.4c0.1,0.5,0.6,0.7,1,1l0.2-0.5l0.1,0c-0.1,0.6,0,1.2,0.3,1.7c0,0,0.1,0,0.1,0c0,0.1,0,0.1,0,0.1H39.4"/>
				<path class="st0" d="M49.9,28.4c0.1,0.3,0.6,0,0.7,0.3c0.8,0.2,1.5,0.6,2.3,0.8c0.3,0.3,0.6,0.2,1,0.3c1,0.3,2.3,0.9,3.4,0.2
					c0,0.7-0.6,1.4-1.2,1.7c-0.9,0.2-1.9,0-2.8-0.3l-0.4,0c0.4,0.3,1,0.4,1.6,0.6c0.7,0.1,1.4,0.3,1.9,0.8c0.4,0.7,0.7,1.4,0.8,2.1
					c-0.4,0.1-0.8,0-1.1,0.1c0,0.1,0.2,0.1,0.2,0.2c0.4,0.3,0.8,0.8,1,1.3c0.2,0.7,0.5,1.3,0.4,2.1c0.1,0.1,0,0.2,0,0.2
					c-0.5,0-0.9-0.3-1.2-0.5c-0.6,0.1-0.5-0.6-0.8-0.9c-0.3-0.6-0.7-1.1-1.2-1.5c0,0.5,0.6,0.8,0.8,1.3c0.1,0.3,0.6,0.6,0.5,1
					c-0.4,0-0.7-0.3-1-0.4c-0.3-0.1-0.5-0.4-0.8-0.3c0.3,0.5,1,0.6,1.3,1.3c0.1,0.2,0.2,0.3,0.3,0.5c0.3,0.4,0.2,0.9,0.3,1.3
					l-0.2,0.7c-0.3,0-0.4-0.2-0.6-0.3c-0.2-0.2-0.4-0.2-0.6-0.4l-0.2,0c-0.4-0.5-1-0.8-1.3-1.3c-0.3-0.2-0.4-0.5-0.7-0.6
					c-0.1,0.2,0.2,0.3,0.2,0.5c0.1,0.2,0.4,0.4,0.3,0.7c0.2,0.2,0.2,0.5,0.2,0.8c0.1,0.6,0,1.4-0.5,1.8c-0.1,0.2-0.3,0.4-0.5,0.6
					l-0.7,0l0-0.4h0c0-0.8-0.4-1.4-0.5-2.3c-0.1-0.2-0.2,0-0.3,0c-0.3,0.6-0.7,1.2-1.2,1.5c-0.3,0.1-0.5,0.3-0.7,0.3
					c-0.6,0.4-1.2,0.3-1.9,0.4c-0.1-0.2,0.1-0.5,0.2-0.7c0.2-0.6,0.6-1,1-1.4v-0.1c-0.4-0.1-0.8,0.1-1.2,0c-0.3,0-0.7-0.1-0.9-0.3
					c0.1,0,0.1-0.1,0.1-0.2c0.6-0.3,1.1-0.6,1.8-0.6c0.4-0.1,0.9-0.3,1.1-0.7c0-0.2,0.1-0.5,0-0.8c0.1,0,0.2,0.2,0.4,0.2
					c0.1,0.4,0.4,0.7,0.4,1.1c0.2-0.2,0.1-0.7,0.1-1c0,0-0.1-0.1-0.1-0.1v0c0.4,0.2,0.7,0.7,0.9,1.1c0.2-0.4-0.1-0.8-0.3-1.1
					c0.3-0.1,0.5,0.3,0.8,0.4c0.1,0.1,0.1,0.4,0.3,0.3c0.1-0.2-0.1-0.4-0.2-0.6c-0.3-0.3-0.7-0.6-1.1-0.6c-0.7-0.2-1.4-0.5-2.3-0.6
					c-1.2-0.2-2.4-0.1-3.4-0.5c-0.4-0.2-0.5-0.5-0.7-0.8c1.8,1.1,3.9,0.1,5.9,0.4c0.5-0.1,1,0.3,1.5,0.3c0,0.1,0.1,0,0.2,0.1v0.1
					c0.4,0.1,0.9,0.3,1.2,0.7c0.1,0,0.1-0.1,0.1-0.1v-0.1c-0.8-0.6-1.3-1-2.2-1.4c-0.1-0.2-0.3-0.1-0.5-0.3
					c-0.5-0.3-1.2-0.7-1.7-1.1c-0.3-0.2-0.7-0.4-1-0.7c-0.5-0.4-1.2-0.8-1.9-0.8c-0.3,0-0.5,0.1-0.8,0.2c-0.4,0-0.5-0.7-1-0.5l0,0
					c-0.3,0.1-0.6,0-0.7,0.4c-0.1,0-0.1,0.1-0.1,0.1c-0.1,0.2-0.1,0.5,0,0.7c-0.3,0-0.3-0.4-0.5-0.5c-0.2-0.4-0.5-0.8-0.4-1.4
					c-0.1-0.2,0.1-0.5,0-0.7c0.1-0.2,0.2-0.5,0.4-0.7c0,0,0.1-0.1,0.1-0.1c0.5-0.4,1.2-0.5,1.5-1.2c0.1-0.1,0.2-0.2,0.3-0.3
					c0.2-0.2,0.5-0.3,0.8-0.5c1-0.4,2.3-0.6,3.4-0.5C48.7,28.1,49.3,28.3,49.9,28.4"/>
				<path d="M45,29c0,0.3-0.3,0.2-0.5,0.4c-0.3,0.2-0.5,0.5-0.6,0.8c0.3,0.3,0.8,0.6,1.2,0.7c0.8-0.1,1.6-0.5,2.4-0.8
					c0.2,0,0.4-0.1,0.6-0.1c0.4-0.1,0.8-0.1,1.3,0v0.1c-0.8,0-1.5,0.4-2.2,0.7c1.1,0.1,1.9,0.5,2.6,1.3c0,0.1-0.1,0-0.1,0
					c-0.3-0.3-0.7-0.5-1.1-0.7c0.1,0.3,0,0.7-0.3,1l-0.4,0.1c1.5,1,2.3,2.8,4.2,3.4c0.5,0.2,1.1,0.2,1.6,0.1
					c0.1-0.1-0.1-0.2-0.1-0.3c-0.2,0-0.1-0.3-0.4-0.3c-0.3-0.3-0.6-0.4-0.9-0.6c-0.1-0.1-0.3-0.1-0.3-0.3c0.1,0,0.4,0.1,0.6,0.1
					c0.3,0.1,0.5,0.4,0.8,0.4c0.3,0.2,0.7,0.3,1,0.4c0.4,0.1,0.7,0,1.1-0.1c-0.1-0.2-0.1-0.4-0.3-0.5c-0.3-0.5-0.9-0.9-1.4-1.2
					c-0.2-0.1-0.5-0.2-0.8-0.2c0,0,0-0.1,0-0.2c0.6,0.2,1.4,0.3,1.9,0.3c0.2-0.2-0.1-0.3-0.1-0.5c-0.2,0-0.2-0.3-0.4-0.3
					c-0.3-0.4-1-0.6-1.4-0.8v-0.1c0.7,0,1.1,0.4,1.7,0.7c0.5,0.3,0.6,1,1.3,1.1c0.3,0.2,0.5,0.3,0.7,0.7l-0.8-0.5
					c-0.2-0.1-0.4-0.3-0.6-0.1c-0.2,0-0.3,0.1-0.6,0.1l0,0.1c0.3,0.3,0.6,0.5,0.9,0.9c0,0.3,0.4,0.6,0.3,0.9c-0.2,0.1-0.4,0-0.6,0.1
					c0.6,0.4,1.4,0.9,1.7,1.6c0.1,0.1,0.1,0.2,0.1,0.3c-0.8-0.9-1.9-1.7-3.1-2c-0.1,0.3,0.4,0.4,0.2,0.7c-1.1,0.3-2.2-0.3-3.1-0.8
					c0-0.1-0.1-0.1-0.2-0.2c-1.6-0.8-2-3.1-4.2-2.9c-0.1,0-0.2-0.2-0.4-0.1c-0.4-0.2-0.5-0.6-0.8-0.9c0,0,0-0.1,0-0.1
					c-0.2,0-0.4-0.1-0.6-0.2c-0.2,0,0,0.3,0,0.4c0.1,0.2,0,0.4,0.1,0.6c0.8,0,1.4,0.5,1.9,0.9c-0.2,0-0.4-0.2-0.7-0.3
					c-0.2,0-0.3-0.2-0.5-0.1c-0.2-0.1-0.5-0.2-0.8-0.1c-0.1-0.1-0.5,0.2-0.5-0.1c0.1-0.4,0.1-0.7-0.1-1.1c-0.2-0.4-0.7-0.8-1.1-0.8
					l-0.3,0.2c-0.1,0,0-0.1,0-0.2c0.2-0.4,0.9,0,0.8-0.6c0.2-0.2,0.4-0.4,0.7-0.6c0,0,0.1,0,0.1,0C44.7,29.1,44.9,29,45,29"/>
				<path class="st0" d="M27.4,29.1c-0.6,0.5-0.8,1.5-0.6,2.3c0.2,0.5,0.3,0.9,0.8,1.1c0,0.4,0,0.7-0.1,1.1h0c0,0.4,0,0.7-0.2,1.1
					c-0.1,0.7-0.4,1.5-0.6,2.2c-0.2,0.6-0.3,1.1-0.5,1.7c-0.3,0.8-0.5,1.5-0.7,2.3c-0.1,0-0.1,0.1-0.1,0.2l0,0.1
					c0.1-0.1,0.2-0.3,0.2-0.4h0c0.1-0.5,0.3-0.9,0.5-1.5c0.1-0.1,0-0.3,0.1-0.4c0.1-0.4,0.3-0.6,0.4-1c-0.2-0.1,0.1-0.1,0.1-0.3
					c0.2-0.6,0.5-1.3,0.6-2c0.1-0.2,0.1-0.4,0.2-0.6c0-0.3,0.1-0.7,0.2-1c0.1,0.3,0.4,0.7,0.7,1c0.1,0.4-0.2,0.7-0.2,1.1h0
					c-0.2,0.5-0.3,1.3-0.6,1.7c-0.1,0.9-0.5,1.8-0.7,2.6c-0.2,0.2-0.2,0.6-0.2,0.8c-0.1,0.3-0.1,0.7-0.3,0.9
					c-0.1,0.3-0.2,0.8-0.4,1.1c-0.1,0.1-0.1,0.4-0.3,0.5c-0.2,0.3-0.4,0.6-0.6,0.9c0,0-0.1,0-0.1,0c-0.1,0.4-0.5,0.5-0.7,0.8
					c-0.4-1.2-0.4-2.7-0.5-4c0.2-0.5,0.3-1.1,0.5-1.6c0.2-0.5,0.3-1.1,0.5-1.7c0.2-0.4,0.4-0.9,0.4-1.3c0.4-1.1,0.7-2.3,1-3.3
					c0.2-0.3,0-0.7,0.2-1.1c-0.2-0.8,0.1-1.7,0.1-2.6c0.1-0.2,0.2-0.6,0.4-0.7c-0.1-0.2,0.1-0.2,0.3-0.4
					C27.4,29,27.4,29.1,27.4,29.1"/>
				<path class="st0" d="M72.7,30.8c0.3,0.9,0.5,1.8,1.1,2.6c0.1,0.3,0.3,0.6,0.4,0.9c0.1,0.3,0.1,0.6,0.2,0.9
					c0,0.3,0.2,0.5,0.2,0.8c0.1,0.4,0.4,0.8,0.3,1.3c0.2,0.5,0.3,1.1,0.5,1.7c0.1,0.1,0.2,0.3,0.1,0.5c0,0,0.2,0.1,0.1,0.2
					c0.1,0.1,0.1,0.4,0.2,0.6c0.3,0.3,0.2,0.8,0.4,1.3c0.2,0.7,0.3,1.3,0.5,1.9c-0.1-1.2-0.5-2.6-0.7-3.7c-0.2-0.4-0.1-0.8-0.3-1.2
					c0-0.5-0.3-1.1-0.4-1.6c0-0.1,0.1-0.2,0-0.2c-0.2-0.6-0.3-1.2-0.4-1.7c-0.2-0.2-0.1-0.5-0.2-0.7h0.1c0.1,0.6,0.5,1,0.8,1.5
					c0.4,0.5,1,0.6,1,1.3c0.1,0.5,0.3,1,0.3,1.5c0.1,0,0,0.2,0.1,0.3c0.4,1.4,0.6,3.2,1.1,4.5c0.1,0.1-0.1,0.1,0,0.2
					c0.1,1,0,1.8-0.3,2.7l-0.2,0.2c-0.6-0.6-1.2-1.3-1.6-2.1c-0.4-0.8-0.5-1.8-0.8-2.8c-0.2-1.2-0.6-2.5-0.8-3.8
					c-0.2-0.3-0.3-0.8-0.4-1.1c0.1-0.5-0.3-0.7-0.3-1.2c-0.3-1.1-0.7-2.3-1.1-3.4c-0.2-0.1-0.2-0.4-0.3-0.5c0-0.6-0.1-1.1-0.2-1.8
					c-0.1-0.2-0.2-0.3-0.3-0.5c0.1,0,0.2,0.1,0.3,0.1C72.3,29.8,72.5,30.4,72.7,30.8"/>
				<path class="st0" d="M46.9,31.2c0,0.1,0,0.1-0.1,0.1l-0.2,0c0,0,0,0,0,0c-0.1-0.1-0.1,0.1-0.1,0.1c0,0.2,0.2,0.3,0.3,0.4
					c0.3,0.1,0.4-0.2,0.6-0.2l0.1-0.5c0.3,0,0.6,0,0.7,0.3c-0.1,0.2,0,0.5-0.3,0.6c-0.5,0.2-1.2,0.2-1.6-0.1
					c-0.2-0.2-0.5-0.3-0.5-0.7C46.1,31,46.6,30.9,46.9,31.2"/>
				<path d="M43.8,31.3c0.1,0.1-0.1,0.2-0.1,0.4c-0.3,0.1-0.9-0.2-1.1,0.3c0,0,0,0-0.1,0c0-0.3,0.2-0.4,0.3-0.6
					c0.1-0.1,0.3-0.3,0.5-0.3C43.5,31.1,43.6,31.1,43.8,31.3"/>
				<path class="st0" d="M72.4,33.8c0.1,0.2,0.2,0.6,0.3,0.9c0.1,0.6,0.5,0.9,0.5,1.5c0.2,0.4,0.1,0.6,0.3,0.9
					c0.2,0.8,0.5,1.5,0.6,2.4c0.1,0.4,0.2,0.8,0.3,1.2c0.3,1.3,0.5,2.4,0.8,3.7c0,0.5-0.2,0.8-0.2,1.3c-0.1,0.1-0.1,0.2-0.1,0.4
					c-0.2,0.2-0.1,0.7-0.4,0.8c-0.8-1-1.7-2-1.8-3.5c-0.1-0.2-0.2-0.5-0.1-0.7c-0.2-0.3-0.1-0.6-0.2-0.9c0-0.7-0.4-1.2-0.5-1.8
					c-0.1-0.2,0-0.6-0.2-0.8c-0.2-1.4-0.7-2.6-1-4c0.2-0.4,0.5-0.8,0.5-1.3c0.1,0,0.2,0.3,0.2,0.4c0.1,0.5,0.4,0.9,0.4,1.5
					c0.2,0.6,0.4,1.2,0.5,1.8c0.2,0.4,0.1,0.9,0.4,1.4c0.1,0.5,0.2,1,0.3,1.4c0.2,0.7,0.3,1.4,0.6,2c0.2,0.2,0,0.7,0.2,0.8
					c-0.1-1.4-0.7-2.9-0.8-4.1c-0.2-0.4-0.3-0.7-0.3-1.2c-0.2-0.4-0.2-0.8-0.4-1.2c0-0.3-0.1-0.6-0.2-0.9c0-0.5-0.4-0.7-0.3-1.3
					c-0.1-0.2-0.1-0.4-0.2-0.6c0-0.3-0.3-0.5,0-0.6c0-0.2,0.3-0.2,0.2-0.4c0.2,0,0.1-0.3,0.2-0.4C72.1,32.9,72.3,33.3,72.4,33.8"/>
				<path class="st0" d="M24.5,38.1c0.1,0.1-0.1,0.2-0.1,0.3c-0.1,0.3-0.2,0.8-0.3,1.1c-0.3,0.7-0.4,1.6-0.7,2.3
					c0,0.6-0.4,1.1-0.4,1.6c-0.3,0.2-0.1,0.6-0.4,0.8c-0.4,1.5-1.3,3-2.2,4.2c-0.1,0.1-0.3,0.2-0.3,0.3c-0.6,0.5-1.5,1.5-2.5,0.9
					l0,0c0.1-0.2,0.4-0.1,0.4-0.4c0.2-0.1,0.2-0.3,0.3-0.4c0.4-0.2,0.4-0.8,0.6-1c0.9-2.6,1.4-5.1,2.1-7.7c0.2-0.3,0.1-0.9,0.4-1
					c0.5-0.6,1.1-0.9,1.4-1.5c0.4-0.6,0.7-1.2,0.9-1.9c-0.3,1.4-0.8,2.7-1.2,4.1c-0.5,1.7-1,3.3-1.7,4.9c-0.2,0.5-0.2,1-0.5,1.5
					c0.5-0.7,0.8-1.7,1.1-2.6c0.3-1.1,0.7-2.1,1-3.1c0.2-0.3,0.1-0.7,0.4-0.9c0.1-0.6,0.4-1.1,0.5-1.7c0.3-0.8,0.5-1.6,0.7-2.4
					c0.3-0.4,0.9-0.6,0.9-1.2c0-0.5,0.7-0.3,0.9-0.6C25.5,35.1,24.9,36.6,24.5,38.1"/>
				<path class="st0" d="M40.4,34.3c0.3,0,0.8,0.1,1.2,0.1c2-0.1,3.6,0,5.6,0.3c0.3,0.1,0.7,0,1,0.4c0.2,0.2,0.5,0.4,0.8,0.5
					c-0.7,0-1.3-0.4-2.1-0.4c-0.6-0.3-1.4-0.1-2-0.3c-0.8-0.1-2,0-2.8-0.2c-0.3,0-0.7,0.1-0.9,0c-0.7,0-1.4-0.3-1.9-0.7
					C39.6,34.2,40,34.2,40.4,34.3"/>
				<path class="st0" d="M71.2,39.3c0,0.3,0.2,0.6,0.1,0.9c0.2,0.1,0.1,0.4,0.1,0.6h0c0.2,0.4,0.2,0.8,0.3,1.2
					c-0.1,0.2,0.1,0.2,0.1,0.3c0,0.4,0.3,0.7,0.2,1.2l0.1,0.1c0,0.7,0.5,1.5,0.1,2.2c0.1,0.7-0.2,1.4-0.4,2c-0.1,0.1,0,0.4-0.3,0.2
					c-0.1-0.1-0.2-0.2-0.3-0.4c-0.8-0.6-1.1-1.7-1.5-2.6c0-0.2,0-0.5-0.1-0.7c-0.3-1.2-0.4-2.4-0.7-3.6c0-0.5-0.3-0.9-0.2-1.4
					c0.4-0.5,0.3-1.1,0.5-1.6c0.1,0.2,0.2,0.8,0.4,1.1c0.1,0.4,0.4,0.9,0.3,1.4c0.2,0.3,0.2,0.6,0.3,0.9c0.1,0.5,0.3,1,0.3,1.4
					c0.1,0.2,0,0.5,0.2,0.6c0,0.4,0.2,0.5,0.2,0.9c0.1,0.5,0.1,0.7,0.3,1.2l0,0c-0.2-0.9-0.3-1.7-0.4-2.5c-0.3-0.8-0.4-1.7-0.7-2.6
					c0-0.6-0.3-1.2-0.3-1.7c-0.2-0.3,0-0.7-0.3-1c0.2-0.5,0.4-1.1,0.6-1.6C70.5,37,70.8,38.3,71.2,39.3"/>
				<path class="st0" d="M29.1,36.9c0.1,0.9-0.1,1.4-0.3,2.3c-0.1,0.5-0.3,1-0.4,1.5l-0.1,0.1c0.1,0.1-0.1,0.1,0,0.2
					c-0.2,0,0.1,0.2-0.1,0.3c-0.1,0.7-0.4,1.5-0.6,2.2c0.2,0,0.1-0.3,0.3-0.4c0.3-1,0.5-2.2,0.9-3.2c0.1-0.5,0.3-1,0.4-1.5
					c0.1-0.3,0.1-0.7,0.2-1c0.1,0,0.2,0.2,0.3,0.2c0.1,0.1,0.3,0.1,0.3,0.2c0,0.1,0,0.3,0,0.5c0.1,0.2-0.1,0.3,0,0.6h0
					c-0.1,0.4-0.2,0.9-0.3,1.3c0.1,0.4-0.3,0.7-0.1,1.1c-0.1,0.1-0.1,0.2-0.1,0.4c0,0.6-0.3,0.8-0.3,1.5c-0.1,0.1-0.2,0.3-0.2,0.4
					c-0.1,0.4-0.2,0.8-0.4,1.2c-0.2,0.5-0.4,0.9-0.7,1.4c-0.4,0.3-0.4,0.8-0.8,0.9c-0.3-0.2-0.1-0.7-0.3-0.9
					c-0.1-1.1-0.3-2.6,0.1-3.6c0-0.1,0-0.1,0.1-0.2c0-0.7,0.2-1.2,0.4-1.8c-0.1-0.2,0.2-0.3,0.1-0.5c0.2-0.3,0.2-0.8,0.4-1.2
					c0.4-1,0.5-2.1,0.9-3C28.8,36.3,29,36.6,29.1,36.9"/>
				<path class="st0" d="M77.6,38.2c0.3,0.2,0.8,0.4,0.7,0.8c0.1,0.3,0.1,0.6,0.3,0.8c-0.1,0.2,0.1,0.3,0.1,0.6
					c0.2,0.8,0.3,1.8,0.7,2.6c0.1,1.1,0.5,1.8,0.7,2.9l0.2,0.2c-0.1-0.6-0.2-1.2-0.3-1.8c-0.1-0.5-0.3-0.9-0.3-1.4
					c-0.4-1.1-0.4-2.2-0.7-3.1c-0.1-0.3-0.1-0.6-0.3-0.9c0.2,0,0.5,0,0.7,0.1c0.1,0.5,0.3,1.1,0.3,1.6c0,0.3,0.1,0.5,0.1,0.7
					c0.2,0.9,0.4,1.6,0.5,2.4c0.1,0.1,0.1,0.2,0.1,0.3c0.2,0.9,0.5,1.8,0.8,2.6c0.2,0.2,0.1,0.5,0.3,0.7c0.1,0.1,0.1,0.5,0.3,0.5
					c0,0.1,0.2,0.2,0.2,0.4c0.3,0.3,0.5,0.5,1,0.6c-0.3,0.3-0.6,0.3-1,0.3c-0.3,0.1-0.7,0-0.9-0.3c-0.3,0.1-0.3-0.3-0.5-0.3
					c-0.2-0.2-0.6-0.5-0.7-0.9c-0.2-0.1-0.2-0.3-0.3-0.4c0-0.3-0.3-0.4-0.3-0.7c-0.2-0.3-0.3-0.4-0.3-0.7c-0.2-0.1-0.1-0.3-0.2-0.4
					c-0.3-1.1-0.6-2-0.9-3c0-0.3-0.1-0.5-0.1-0.7c-0.1-0.2-0.2-0.4-0.3-0.7c-0.1-0.4-0.1-0.7-0.3-1.1c0.1-0.2-0.1-0.3,0-0.5
					c-0.3-0.8-0.4-1.4-0.6-2.2C77,37.6,77.4,37.8,77.6,38.2"/>
				<path d="M54.9,40.2c-0.6-0.5-0.9-1.3-1.5-1.7c0-0.1-0.2-0.2-0.1-0.3C54,38.7,54.6,39.4,54.9,40.2"/>
				<path class="st0" d="M56.6,39.1c0.3,0.5,0.4,1.1,0.6,1.7c-0.1,0,0,0.2,0,0.2c0,0.4-0.1,0.8,0,1.2c0,0.1-0.2,0-0.1,0.2
					c-0.4-0.1-0.8-0.4-1.1-0.6c0.4-1.1,0-2.4-0.6-3.3C55.9,38.7,56.5,38.6,56.6,39.1"/>
				<path class="st0" d="M31.2,39.8c0,0.6-0.3,1.4-0.3,2c-0.1,0.3-0.1,0.5-0.2,0.8l-0.1,0.1l0.1,0c-0.3,0.8-0.3,1.6-0.5,2.5
					c0.1,0.2-0.2,0.5-0.1,0.6c0.1-0.5,0.3-1,0.4-1.5c0-0.4,0.3-0.6,0.2-1c0.3-0.7,0.3-1.4,0.5-2.2c0.2-0.4,0.1-1,0.3-1.4
					c0,0.6,0.4,0.8,0.4,1.4c-0.3,0.8-0.2,1.6-0.5,2.3c-0.1,0.3,0,0.5-0.1,0.8c-0.1,0.6-0.2,1.2-0.4,1.7c0.1,0.5-0.4,0.9-0.5,1.4
					c-0.2,0.3-0.4,0.6-0.6,0.8c-0.2-0.4-0.4-0.8-0.5-1.4c-0.1-0.1-0.1-0.4-0.2-0.5c0-0.4,0-0.8-0.1-1.2c0.1-1.2,0.6-2.6,0.7-3.8
					c0.1-0.8,0.4-1.7,0.6-2.5C30.6,39.2,30.9,39.5,31.2,39.8"/>
				<path d="M51.7,39.7c0.1,0.7,0.3,1.6,0,2.2c0.1-0.8-0.2-1.5-0.3-2.3l0.1-0.1L51.7,39.7"/>
				<path class="st0" d="M68.5,39.9c0.3,1.8,0.7,3.3,1,5c0.2,0.5,0.2,1.1,0.3,1.6c0.1,0.6,0.1,1.2-0.1,1.7c0,0.5-0.2,1-0.5,1.4
					c-0.1,0-0.1-0.2-0.3-0.3c-0.4-0.7-0.9-1.3-1.1-2.1c-0.3-1.8-0.7-3-1-4.8c0.3-0.2,0.5-0.5,0.7-0.7c0.2,0,0.1,0.3,0.2,0.4
					c0.2,1.3,0.6,2.3,0.8,3.5c0,0.7,0.4,1.3,0.4,2c0,0,0,0,0.1,0c0-1.1-0.3-1.9-0.4-2.8c-0.1-0.3-0.1-0.5-0.1-0.8
					c-0.3-0.6-0.2-1.4-0.5-1.9c0-0.2,0-0.4-0.1-0.7c-0.3-0.2,0.2-0.4,0.2-0.7C68.2,40.5,68.2,40.1,68.5,39.9"/>
				<path class="st0" d="M56.4,43.1c-0.2-0.5-0.6-1-1-1.2c0-0.1-0.2,0-0.1-0.1c-0.3,0-0.4-0.3-0.7-0.4c0.1,0.1,0.1,0.4,0.3,0.4
					c0.1,0.4,0.4,0.8,0.5,1.2c0,0.2,0,0.1,0,0.1l-0.2,0c-0.3-0.7-0.6-1.1-0.9-1.7c-0.3-0.3-0.4-0.9-0.9-1.1c0.2,0.9,0.1,1.9-0.5,2.5
					c-0.1,0.1-0.1,0.2-0.2,0.3l0,0l-1.7,0c0.2-0.9-0.2-1.2-0.4-2c-0.1,0.7-0.4,1.4-0.6,2c-0.2,0,0-0.1-0.1-0.2
					c0.2-0.5,0.3-1.1,0.4-1.7c-0.3,0.3-0.5,0.7-1,0.9c-0.4,0.3-0.9,0.4-1.4,0.7c-0.7,0-0.6,0.3-0.9,0.3c-0.2,0,0,0,0,0h-0.4
					c0,0,0,0,0,0c0,0,0,0,0.2-0.2h-0.2c-0.1-0.1-0.5,0.1-0.5-0.2c0.1-0.4,0.3-0.9,0.5-1.3c-0.2,0.1-0.4,0.1-0.4,0.3c0,0-0.1,0-0.1,0
					c-0.4,0.2-0.9,0.3-1.2,0.4c0.6-0.4,1.5-0.7,2-1.2l-0.7,0l-0.1,0c-0.1-0.2-0.3,0-0.4,0C45.5,41,45.2,41,45,41.2
					c-0.7,0.2-1.1,0.8-1.5,1.4c0.3,0.2,0.7,0.5,1.1,0.4c0.3,0,0.6-0.2,0.8,0L56.4,43.1"/>
				<path class="st0" d="M32.5,41.7c0.2,0.2,0.7,0.5,0.5,0.8c0,0.8-0.1,1.9-0.2,2.6c-0.2,0.1,0,0.3,0,0.4c-0.1,0.8-0.3,1.4-0.3,2.1
					l0,0c0-0.6,0.3-1.1,0.4-1.6l0.1-0.1c-0.1-0.8,0.4-1.1,0.3-1.9c0.1-0.4,0.2-1,0.2-1.5l0.2,0.8l0.4,0.5c0,0.6-0.1,1.2-0.2,1.7
					c0,0,0,0-0.1,0c0.1,0.3-0.1,0.6-0.1,0.8h0c-0.3,0.1,0.2,0.3-0.1,0.4l0.1,0.1c-0.1,0.3,0,0.7-0.2,1c0,0.2,0,0.6-0.1,0.8
					c-0.2,0.2-0.1,0.5-0.4,0.6c-0.1,0.2-0.2,0.4-0.4,0.6c-0.1,0-0.2,0.2-0.3,0c-0.1-0.1-0.2-0.5-0.4-0.6c-0.3-0.3-0.2-0.8-0.4-1.1
					c-0.4-1.6,0.2-3.4,0.5-4.9h0c0.1-0.6,0.2-1.3,0.4-1.8C32.4,41.5,32.6,41.5,32.5,41.7"/>
				<path class="st0" d="M66.7,43.9c-0.1,0.3,0.2,0.3,0,0.6c0.2,0.7,0.4,1.7,0.5,2.4c0,0.2,0.1,0.4,0.1,0.6c0.1,0.6,0.1,1.4,0.1,2
					c-0.2,0.4-0.3,0.9-0.5,1.3c-0.6-0.5-1.1-1.1-1.5-1.8c-0.1-0.6-0.1-1.2-0.4-1.8c0-0.5-0.3-0.8-0.3-1.4c0.3-0.3,0.6-0.6,0.7-1.1
					c0.2,0.2,0.2,0.6,0.2,0.8c0.2,1,0.3,1.9,0.6,2.9h0c0.1-0.6-0.2-1.1-0.1-1.6c-0.1-0.9-0.4-1.9-0.4-2.7c0.1-0.2,0.4-0.4,0.5-0.6
					c0,0,0.1-0.1,0.1-0.2c0,0,0.1-0.1,0.2,0C66.6,43.5,66.7,43.7,66.7,43.9"/>
				<path class="st0" d="M23.6,43.7c0.1,0.8,0.1,1.6,0.4,2.5c-0.2,0.3-0.1,0.7-0.3,1c-0.1,0.7-0.2,1.5-0.4,2.2l0,0.3c0,0,0,0-0.1,0
					c-0.2,1-0.5,2-0.7,2.9c-0.1,0.3-0.1,0.6-0.3,0.8c-0.1,0.7-0.3,1.3-0.5,2c0,0.5-0.2,0.9-0.4,1.3c-0.1,0.2-0.1,0.4-0.3,0.6
					c0,0.1-0.1,0.4-0.2,0.5c-0.5,1.2-1.2,2.5-2.6,2.9c-0.7,0.4-1.6,0.3-2.3,0.6c0.5-0.8,1.3-1.5,1.7-2.3c0-0.2,0.2-0.3,0.2-0.5
					c0.2-0.1,0-0.3,0.2-0.5c0.3-1,0.7-1.9,0.9-2.9c0-0.2,0.1-0.4,0.1-0.6h0c0.1-0.4,0.1-0.7,0.3-1c-0.1-0.2,0.1-0.5,0.1-0.8
					c0.2-0.6,0.3-1.1,0.4-1.8c0.2-0.6,0.4-1.2,0.5-1.8c0.2-0.5,0.6-0.9,0.9-1.4c0.6-1.1,1.3-2.1,1.7-3.3c-0.1,0.6-0.4,1.3-0.5,1.9
					l-0.1,0.1c0.1,0.3-0.2,0.7-0.1,1l0,0c0.1,0.1-0.1,0.3-0.1,0.5c-0.2,0.6-0.3,1.2-0.5,1.7c-0.2,1-0.5,2-0.7,3
					c-0.3,0.2,0,0.7-0.3,0.8c0.1,0.3-0.1,0.5-0.1,0.8c-0.2,0.2-0.2,0.5-0.3,0.8c0,0.1,0,0.2-0.1,0.2c-0.1,0.5-0.3,1-0.3,1.5
					c0.1-0.1,0.1-0.3,0.3-0.4c0.2-0.6,0.3-1.2,0.5-1.8c0.3-0.6,0.4-1.1,0.6-1.6c0-0.3,0.1-0.7,0.1-0.9c0.4-0.8,0.4-1.4,0.7-2.2
					c0-0.4,0.3-1,0.3-1.4c0.2-0.1,0.2-0.6,0.3-0.8c0.2-0.3,0.1-0.8,0.4-1.1c0.2-0.8,0.3-1.5,0.5-2.2c0.2-0.1,0.1-0.3,0.2-0.5
					C23.4,44,23.6,43.8,23.6,43.7"/>
				<path class="st0" d="M25.6,46.1c-0.1,0.4,0,0.9-0.3,1.3c0,0.1,0.1,0.2-0.1,0.2c0,0.3-0.1,0.7-0.1,1c0,0.1,0,0.3-0.1,0.4
					c0,0.3,0,0.6-0.1,0.8c0.2,0.1-0.1,0.2,0,0.3c-0.1,1-0.4,2.1-0.6,2.9c0.1,0.4-0.1,0.8-0.3,1.2c0.1,0.1,0.1,0.2,0.1,0.3
					c-0.2,0.2-0.1,0.4-0.2,0.6c0.1,0.6-0.3,1.1-0.3,1.6c-0.3,0.1,0.1,0.5-0.2,0.7c0,0.3-0.1,0.7-0.3,0.9c0.1,0.3-0.2,0.5-0.1,0.9
					c-0.1,0.6-0.3,1.1-0.4,1.8c-0.1,0.1,0,0.2,0,0.3c0.1,0.1,0.1-0.1,0.2-0.1c0.1-0.5,0.3-0.9,0.4-1.4c0.2-0.5,0.3-1,0.4-1.5
					c-0.1-0.3,0.2-0.5,0.1-0.9c0.2-0.5,0.2-1.1,0.4-1.5c-0.2-0.1,0.2-0.2,0-0.3c0.1-0.3,0.1-0.5,0.2-0.7c-0.1-0.4,0.2-0.7,0.2-1.1
					c0-0.1,0-0.1,0-0.2c0.1-0.3,0-0.7,0.3-1c0-0.3,0.1-0.7,0.1-1c0.2-0.6,0.1-1.2,0.4-1.7c-0.2-0.1,0-0.2,0-0.3c0-0.4,0.1-0.6,0.1-1
					c0.1-0.7,0.3-1.4,0.4-2.1c0.1-0.4,0.2-1.1,0.3-1.4c0.2,0.4,0,1.1,0.3,1.5c0,0.4,0.2,0.6,0.2,0.9c-0.1,0.4-0.1,1-0.2,1.4
					c-0.1,1-0.5,1.9-0.5,2.8c-0.2,0.7-0.3,1.6-0.5,2.3c-0.1,0.2,0.1,0.5-0.2,0.7c-0.1,1.6-0.5,3-0.8,4.6c-0.2,1.2-0.7,2.7-1.1,3.7
					c-0.2,0.4-0.4,0.9-0.6,1.2c0,0.3-0.2,0.4-0.2,0.6c-0.2,0.3-0.5,0.7-0.7,0.9c-0.3,0.4-0.7,0.9-1.1,1.2c-0.4,0.5-1.2,0.7-1.8,1
					c-0.2,0.1-0.3,0.2-0.5,0.3c-0.3,0.1-0.5,0.4-0.8,0.6c0-0.8,0.8-1.5,1.2-2.2c0.2-0.2,0.3-0.4,0.5-0.7c0.2-0.2,0.3-0.4,0.3-0.6
					c0.2-0.4,0.4-1,0.6-1.5c0-0.3,0.2-0.6,0.2-0.9h0c0.1-0.4,0.1-0.8,0.3-1.1c0.1-0.8,0.4-1.4,0.4-2.3c0-0.1,0-0.3,0.1-0.4
					c0.1-1,0.4-2,0.7-2.9c0.2-1,0.4-1.9,0.7-2.8c0.1-0.1,0-0.4,0.1-0.6c0.2-0.5,0.3-1.1,0.4-1.6c0-0.1,0.1-0.3,0.2-0.4
					c0-0.5,0.3-1,0.3-1.5c0.1-0.5,0.2-0.9,0.4-1.4c-0.1-0.3,0.1-0.5,0.2-0.8l0-0.1c0.2-0.3,0-0.8,0.3-1l0-0.1c0.4-0.5,0.8-1,1.2-1.5
					C25.9,45.1,25.7,45.6,25.6,46.1"/>
				<path class="st0" d="M78.8,47.1c0.1,0.4,0.2,0.8,0.2,1.1c0.1,0.3,0.1,0.7,0.2,1c0.1,0.6,0.3,1.2,0.4,1.8l0,0.1
					c-0.1,0.1,0,0.1,0.1,0.2c0.4,2.2,0.7,4.2,1.3,6.3c-0.1-2.1-0.9-4.2-1.1-6.3c-0.1-0.4-0.1-0.9-0.3-1.2c0-0.9-0.3-1.7-0.4-2.7
					l0-0.1h0l0-0.2c0.1,0.2,0.3,0.4,0.3,0.6c0.2,0.2,0.4,0.4,0.4,0.7c0.4,0.4,0.7,0.7,0.7,1.3c0.2,2.1,0.7,4,1,6
					c0.1,0.4,0.2,0.7,0.2,1.1c0.1,0.2,0.1,0.6,0.3,0.8c-0.1,0.2,0.2,0.4,0.1,0.6c0.2,0.2,0.1,0.6,0.3,0.8l-0.1,0.1
					c0.4,0.6,0.5,1.4,1.1,1.9c0.2,0,0.1,0.2,0.3,0.3c0.1,0.2,0.3,0.2,0.3,0.4c-0.2,0-0.3,0-0.5-0.1c-0.8-0.1-1.7-0.6-2.4-1.1
					c-0.1-0.3-0.4-0.3-0.6-0.5c-0.8-0.9-1.7-1.8-1.8-3.2c-0.4-2.1-0.6-3.7-0.8-5.8c-0.2-1.2-0.2-2.5-0.5-3.8c0.2,0,0-0.3,0.2-0.3
					c0.2-0.3,0.2-0.8,0.4-1c0.1-0.3,0.1-0.7,0.1-1C78.6,45.6,78.7,46.3,78.8,47.1"/>
				<path class="st0" d="M77.2,47.1c0.2,0.7,0.1,1.7,0.3,2.4l0,0c0.1,3,0.7,6,1.1,8.9c-0.2,0.1,0,0.3,0,0.4c0.1,1.1,0.2,1.8,0.4,2.8
					c-0.1,0.2,0.1,0.4,0.1,0.7l0.5,2c0.4,1.4,0.9,2.7,2,3.8c0.5,0.6,1.3,1.2,1.6,2c-0.9-0.6-1.9-0.8-2.8-1.3
					c-0.4-0.3-0.9-0.4-1.1-0.8c-0.2,0.1-0.1-0.1-0.2-0.2c-0.2-0.1-0.3-0.3-0.5-0.4c-0.4-0.5-0.9-0.9-1.1-1.5
					c-1.1-1.7-1.7-3.5-1.8-5.6c-0.2-0.5-0.1-1.1-0.3-1.6c-0.2-0.9-0.1-1.8-0.3-2.5c-0.1-0.7,0-1.6-0.2-2.3c-0.2-0.1,0-0.3-0.1-0.4
					c-0.3-1.9-0.4-4-0.7-5.8c0.2-0.1,0.3,0.3,0.5,0.1c0.2-0.5,0.6-1,0.7-1.6c0.2,0.5,0.1,1,0.3,1.5c0.1,0.8,0.2,1.5,0.3,2.2
					c0.2,1.1,0.3,2.3,0.4,3.4c0,0.6,0.2,1,0.2,1.6c0.1,0.1,0.1,0.2,0,0.3l0.1,0.7c0,0.1-0.1,0.1,0,0.2c0.1,1.5,0.2,3,0.4,4.5
					c0,0.5,0,1.1,0.2,1.5l0,0.6h0.1c0.1-0.4-0.1-0.5-0.1-0.9c0.2,0,0-0.1,0-0.2c-0.1-1.5-0.2-2.9-0.3-4.5L77,56.7
					c-0.2-1.6-0.3-3.2-0.5-4.9l-0.1-0.1c0-0.1,0.1-0.4,0-0.5c0-0.1-0.1-0.2,0-0.4c-0.3-1.1-0.2-2.5-0.5-3.6c0-0.3,0-0.6-0.1-0.8
					c0-0.3-0.1-0.8-0.1-1.1C76.2,46,76.7,46.5,77.2,47.1"/>
				<path class="st0" d="M73.5,46.8L73.5,46.8l0.2,1.2c0.1,0.2,0,0.3,0.1,0.5h0l0.1,0.7h0c0,0.4,0,0.9,0.2,1.2l0,0
					c0.3,2.3,0.5,4.8,0.8,6.9c0,0.3,0,0.5,0.1,0.8c0,0-0.1,0.1,0,0.1l0,0c0.2,1.9,0.4,3.9,0.6,5.7h0c0.1,0.9,0.1,1.8,0.3,2.6
					c0,0.1-0.1,0.3,0.1,0.4c0,1.2,0.3,2.2,0.5,3.3c0.1,0.5,0.4,0.9,0.5,1.4c0.2,0,0,0.2,0.1,0.4c0.3,0.2,0.2,0.5,0.4,0.7
					c0,0.2,0.3,0.4,0.3,0.6c-1.2-0.6-2-1.7-2.9-2.6c0-0.1-0.1-0.2-0.2-0.3c-0.1-0.3-0.4-0.4-0.4-0.7c-0.1-0.2-0.3-0.3-0.4-0.6
					c0-0.1-0.2-0.2-0.1-0.3c-0.2-0.1-0.2-0.3-0.3-0.4c0.1-0.4-0.4-0.6-0.3-1c-0.1-0.3-0.2-0.6-0.3-0.9c0-1-0.5-1.6-0.5-2.6
					c-0.3-1.8-0.8-3.6-1-5.5c0.1-1.4-0.3-2.6-0.4-3.9c0.1-0.1,0-0.1,0-0.2c-0.1-0.6,0-1.4-0.2-2l0.1-0.1c-0.2-1-0.1-2.2-0.4-3.3
					c-0.1-0.7-0.1-1.2-0.2-1.9c0.2,0.6,0.9,1.1,1.4,1.5c0.1,0,0.2,0,0.3,0c0-0.1,0.1-0.2,0.2-0.3c0.3,0.9,0.2,2.2,0.4,3.1
					c0.1,0.1,0.1,0.3,0.1,0.5h0c0.1,1.1,0.3,2.4,0.4,3.6l-0.1,0c0.2,1.4,0.3,2.8,0.5,4.1c0.2,0.5,0.1,1.1,0.2,1.6
					c0.1,1.4,0.3,2.6,0.6,3.8c0-0.7-0.1-1.3-0.1-2c0-0.7-0.2-1.3-0.2-2c-0.3-2.7-0.7-5.3-0.8-8c-0.2-0.4-0.1-1.1-0.3-1.6
					c-0.1-1.3-0.2-2.7-0.4-4c0.3-0.7,0.4-1.2,0.4-2C73.1,46.1,73.5,46.4,73.5,46.8"/>
				<path class="st0" d="M28.1,49.3c-0.1,0.3-0.1,0.6-0.2,0.8c-0.2,1.6-0.5,3.2-0.7,4.7c-0.1,0.1-0.1,0.3-0.1,0.4
					C27,55.5,27,55.8,27,56c-0.3,0.4-0.2,1-0.3,1.4c0,0.8-0.3,1.7-0.4,2.5c0,0.7-0.3,1.2-0.3,2h0c0,0.6-0.3,1.1-0.3,1.8
					c-0.1,0.2,0,0.5-0.1,0.8l0.1,0c0.2-0.3,0.2-0.8,0.3-1.2c0.2-0.8,0.4-1.6,0.6-2.5c-0.2-0.2,0.1-0.3,0-0.5l0.1-0.6l0.1,0l0.1-1
					l0.1-0.1c0-0.7,0.4-1.3,0.4-2.2c0.1-0.1,0.1-0.2,0.1-0.3c0,0,0.1,0,0.1,0c0-0.7,0.3-1.4,0.3-2.1c0.2-1,0.4-1.7,0.5-2.6
					c0.1-0.2,0-0.5,0.1-0.7c0.2-1.1,0.3-2.4,0.6-3.6c0.1,0,0,0.2,0.1,0.3c0.2,0.7,1,1.3,0.6,2.3c-0.2,0.7-0.2,1.5-0.4,2.2
					c0,0.7-0.2,1.1-0.2,1.8c-0.2,2-0.7,3.7-0.8,5.7L28,59.3c-0.1,1.4-0.4,2.8-0.6,4.2c-0.1,0.7-0.4,1.2-0.4,1.9
					c-0.2,0.4-0.1,0.9-0.3,1.3c0,0.1-0.1,0-0.1,0.1c0.1,0.2-0.1,0.5-0.2,0.7c-0.4,0.9-0.6,1.9-1.1,2.8c-0.2,0.1-0.2,0.4-0.4,0.6
					c-0.2,0.4-0.5,0.8-0.8,1.1c0.1,0.2-0.2,0.1-0.2,0.4c-0.8,0.7-1.7,1.2-2.7,1.7c-0.1,0.2-0.3,0.2-0.4,0.3c0.2-0.8,0.8-1.4,1.2-2
					c0.3-0.6,0.6-1.2,0.7-1.8c0.3-0.7,0.5-1.5,0.6-2.3c0.1-0.6,0.2-1.3,0.4-1.9c-0.1-0.5,0.3-0.9,0.1-1.2c0.2-0.6,0.3-1.4,0.4-2.1
					c-0.2-0.1,0.1-0.2,0.1-0.4c0-0.7,0.3-1.2,0.3-2c0.2-0.3,0.1-0.7,0.2-1c0.4-1.1,0.3-2.5,0.7-3.6c0-0.6,0.2-1.1,0.2-1.6
					c0.1,0,0.1-0.1,0-0.1c0.2-0.5,0.2-1.1,0.4-1.6c-0.1-0.6,0.2-1.1,0.3-1.8c0.1-0.3,0.1-0.7,0.2-1.1c0.1,0,0.1-0.3,0.1-0.4
					c0.1-0.4,0.1-0.9,0.3-1.2c0-0.9,1-1.2,1.2-2c0.1,0,0.1-0.1,0.1-0.2C28.4,47.1,28.3,48.2,28.1,49.3"/>
				<polyline points="32.5,47.8 32.5,47.6 32.5,47.8 32.5,47.8 				"/>
				<path class="st0" d="M30.9,47.7c0.1,0.8-0.2,1.5,0,2.3c-0.3,0.1,0.1,0.4-0.1,0.6c-0.1,0.5,0,1.1-0.2,1.6c0.1,0.1,0,0.3,0,0.4
					c0,0.9-0.3,2-0.3,2.9l0,0c0,1-0.2,1.9-0.4,2.9c-0.1,1.4-0.3,2.9-0.4,4.3c0,0,0,0.1-0.1,0.2c0,0-0.1,0.2,0.1,0.1
					c0-0.9,0.4-1.7,0.4-2.7l0.1-0.1c-0.1,0,0.1-0.1,0-0.2c-0.1-0.5,0.2-0.8,0.1-1.4c0.2-0.7,0.1-1.5,0.2-2.3c0.1-0.2,0-0.3,0.1-0.5
					c0.1-0.7,0.1-1.5,0.3-2.3c-0.1-0.1,0.1-0.2,0-0.4c0.2-1.3,0.3-2.6,0.5-3.8c0.3,0.3,0.4,0.9,0.8,1.1c-0.1,1.8-0.5,3.7-0.5,5.6
					c-0.1,0,0,0.2-0.2,0.3c0,1.8-0.1,3.6-0.3,5.3c-0.1,0.3-0.1,0.8-0.3,1.1c-0.4,1.4-1.2,2.7-1.9,3.8c0,0.2-0.3,0.3-0.3,0.5
					l-0.1,0.2c-0.1-2.3-0.3-4.8,0-7c0-1.6,0.3-3.1,0.5-4.6c0.2-0.3,0.2-0.8,0.2-1.3c0.2-1.1,0.4-2,0.5-3.1c0.1-0.3,0.1-0.5,0.2-0.8
					c0-0.5,0.2-0.9,0.2-1.4c0.1,0,0-0.1,0.1-0.3C30.5,48.5,30.5,47.9,30.9,47.7"/>
				<path class="st0" d="M68.5,49.5c0.6,3.8,0.7,7.8,1.5,11.8h0c0-0.3-0.1-0.8-0.1-1.1h0c-0.1-1.3-0.3-2.3-0.4-3.6
					c-0.2-0.8-0.1-1.6-0.2-2.3c-0.2-0.7-0.1-1.7-0.2-2.5c-0.1-0.1,0-0.2-0.1-0.4c-0.1-0.2,0.1-0.6-0.1-0.8c0.1-0.1,0-0.1,0-0.2v-0.4
					c0.1,0.1,0.2,0.3,0.4,0.2c0.4-0.3,0.5-0.7,0.8-1.2c0.2,2.2,0.5,4.3,0.6,6.4l0.1,0.1c0,1.6,0.4,3.2,0.2,5c0.1,0.1-0.2,0.2,0,0.3
					l-0.1,0c0.2,0.1,0,0.3,0.1,0.5c0,0.4,0,0.7-0.1,1.1c0,0.1,0,0.3,0,0.4c-0.1,0.5,0,1.1-0.2,1.6c0,0.3,0.2,0.7,0,1
					c-0.2-0.2-0.5-0.5-0.6-0.9c-0.3-0.3-0.3-0.6-0.5-0.9c-0.3-0.6-0.4-1.4-0.7-2.1c-0.3-0.7-0.2-1.4-0.5-2.1
					c-0.2-0.7-0.1-1.4-0.4-2.2c0-0.5-0.1-0.9-0.2-1.3c-0.2-1.7-0.3-3.1-0.5-4.8c0.3-0.2,0.1-0.5,0.4-0.8c0-0.2,0-0.4,0.1-0.6
					c0.1-0.4,0.1-0.9,0.1-1.2C68,48.9,68.3,49.2,68.5,49.5"/>
				<path class="st0" d="M33.5,50.2l0.1,0.1l0,1.7h0c-0.1,1.3-0.2,2.5-0.3,3.7c0.4-1.3,0.4-2.8,0.6-4.2c-0.1,0,0-0.2,0-0.3
					c0.3,0.4,0.3,0.9,0.7,1.2l0.4-0.2c0.2,0.8-0.2,1.2-0.2,1.9c-0.2,0.9-0.5,1.8-0.8,2.6l-0.5,0.8c-0.2-0.1-0.3-0.3-0.3-0.5
					c-0.1-0.1-0.2-0.3-0.3-0.4c-0.2-0.1-0.1-0.4-0.3-0.5c-0.4-1.1-0.5-2.1-0.5-3.4c0.1-0.7,0.2-1.5,0.3-2.3c0.4-0.3,0.8-0.7,1.1-1
					C33.5,49.8,33.6,50,33.5,50.2"/>
				<path class="st0" d="M66.9,51.2c0.2,1.2,0.4,2.5,0.1,3.9c0,0.4-0.2,0.8-0.2,1.2c-0.1,0.2-0.2,0.4-0.3,0.7
					c-0.2,0.1-0.2,0.3-0.3,0.5c-0.6-0.7-1.2-1.5-1.3-2.5c0-0.6-0.2-1.2-0.1-1.9c-0.3-0.6,0.4-1,0.4-1.5c0.2-0.1,0.1-0.4,0.2-0.5
					c-0.1-0.3,0.2-0.4,0.1-0.7c0.2,0.1,0,0.3,0.1,0.4c0.1,0.5,0.1,1.2,0.3,1.7c0.1,1.1,0.2,2.2,0.4,3.3c0.1-0.7,0-1.3,0-1.9h0
					c-0.1-1.2-0.3-2.4-0.4-3.6l-0.1-0.2C66.1,50.5,66.4,50.9,66.9,51.2"/>
				<polyline points="80.9,57.6 81,57.6 81,57.7 81,57.7 80.9,57.6 				"/>
				<polyline points="70,61.3 70.1,61.3 70.1,61.6 70.1,61.6 70,61.3 				"/>
				<polyline points="74.4,65.5 74.4,65.5 74.4,65.9 74.4,65.9 74.4,65.5 				"/>
				<path class="st1" d="M49.4,82.6c0,0,15-4.9,15.6-15.9l0-23.6H33.7l0,23.6C34.3,77.7,49.4,82.6,49.4,82.6"/>
				<path class="st2" d="M51.3,81.8L37.7,63.9h4.2l12.5,16.3C54.4,80.3,53.3,81,51.3,81.8"/>
				<path class="st2" d="M57.3,78.5L46.2,63.9h4.1l9.6,12.5C59.9,76.4,59,77.3,57.3,78.5"/>
				<path class="st2" d="M62.2,73.9l-7.6-10h4.2l5.2,6.8C64,70.8,63.7,72,62.2,73.9"/>
				<line class="st3" x1="33.8" y1="60" x2="65" y2="60"/>
				<path class="st0" d="M36.3,62.3V62c0.3,0,0.4,0,0.4-0.1c0,0,0.1,0,0.1,0c0,0,0-0.1,0-0.1c0-0.1,0-0.4,0-0.8c0-0.2,0-0.6,0-1.1
					c0-0.5,0-0.8,0-1.2c0-0.3,0-0.6,0-0.6c0,0,0-0.1,0-0.1c0,0-0.1,0-0.1,0c-0.1,0-0.3,0-0.4,0v-0.3c0.5,0,0.8,0,0.9,0
					c0.2,0,0.5,0,0.7,0l0.3,0.7l0.2,0.5l1.1,2.2c0.2-0.4,0.4-0.8,0.5-1l0.4-0.9c0.2-0.5,0.4-0.8,0.4-0.9c0.1-0.1,0.1-0.3,0.2-0.4
					c0.3,0,0.5,0,0.6,0l1,0V58h0c-0.2,0-0.4,0-0.4,0.1C42,58.1,42,58.2,42,58.4c0,0.2,0,0.3,0,0.4l0,0.9v1.2c0,0.3,0,0.4,0,0.5
					c0,0.3,0,0.5,0,0.5c0,0,0,0.1,0,0.1c0,0,0,0,0.1,0c0,0,0.2,0,0.4,0v0.3l-1.1,0l-1,0V62c0.3,0,0.4,0,0.5,0c0,0,0.1-0.1,0.1-0.2
					c0-0.1,0-0.4,0-0.8v-2.4l-0.8,1.5l-0.4,0.8c-0.1,0.2-0.2,0.5-0.4,0.9c-0.1,0.2-0.2,0.4-0.3,0.6H39c-0.1-0.2-0.2-0.4-0.3-0.8
					c-0.3-0.6-0.4-1-0.6-1.2l-0.9-1.8v1.6c0,0.3,0,0.6,0,1c0,0.4,0,0.6,0,0.6c0,0.1,0,0.1,0,0.1c0,0,0.1,0,0.1,0.1c0,0,0.2,0,0.4,0
					v0.3c-0.2,0-0.5,0-0.8,0C36.7,62.3,36.5,62.3,36.3,62.3"/>
				<path class="st0" d="M43.6,61.4c0.1,0,0.3,0.1,0.4,0.1c0.1,0.1,0.2,0.2,0.2,0.4c0,0.1-0.1,0.3-0.2,0.4c-0.1,0.1-0.2,0.2-0.4,0.2
					c-0.1,0-0.3-0.1-0.4-0.2c-0.1-0.1-0.1-0.2-0.1-0.4c0-0.1,0-0.3,0.1-0.4C43.4,61.4,43.5,61.4,43.6,61.4"/>
				<path class="st0" d="M48.8,61.7L48.8,61.7l-0.1,0.4c-0.3,0.1-0.5,0.2-0.7,0.3c-0.2,0.1-0.5,0.1-0.8,0.1c-0.5,0-0.9-0.1-1.2-0.2
					c-0.3-0.1-0.5-0.3-0.7-0.5c-0.2-0.2-0.3-0.4-0.4-0.6c-0.2-0.3-0.2-0.7-0.2-1.1c0-0.7,0.2-1.3,0.7-1.7c0.5-0.4,1.1-0.7,2-0.7
					c0.3,0,0.6,0,0.8,0.1c0.2,0,0.5,0.1,0.8,0.2l0,0c0,0.1-0.1,0.2-0.1,0.4c0,0.2-0.1,0.5-0.1,0.7h-0.3c0-0.2,0-0.4,0-0.6
					c-0.1-0.2-0.3-0.3-0.5-0.3c-0.2-0.1-0.4-0.1-0.7-0.1c-0.5,0-0.9,0.2-1.2,0.5c-0.3,0.3-0.5,0.8-0.5,1.4c0,0.4,0.1,0.7,0.2,0.9
					c0.1,0.3,0.2,0.5,0.4,0.7c0.2,0.2,0.3,0.3,0.5,0.4c0.2,0.1,0.5,0.2,0.9,0.2c0.2,0,0.4,0,0.6-0.1C48.4,61.9,48.6,61.8,48.8,61.7"
					/>
				<path class="st0" d="M49.9,61.4c0.1,0,0.3,0.1,0.4,0.1c0.1,0.1,0.1,0.2,0.1,0.4c0,0.1,0,0.3-0.1,0.4c-0.1,0.1-0.2,0.2-0.4,0.2
					c-0.1,0-0.3-0.1-0.4-0.2c-0.1-0.1-0.2-0.2-0.2-0.4c0-0.1,0.1-0.3,0.1-0.4C49.6,61.4,49.7,61.4,49.9,61.4"/>
				<path class="st0" d="M53.9,60.7h-0.3c0-0.3,0-0.4-0.1-0.5c0,0-0.1,0-0.1-0.1c-0.2,0-0.4,0-0.8,0c-0.1,0-0.1,0-0.3,0v0.4
					c0,0.5,0,0.9,0,1.1c0,0.2,0,0.3,0.1,0.4c0,0,0,0,0.1,0.1c0,0,0.2,0,0.5,0.1v0.3l-1.3,0c-0.2,0-0.5,0-0.9,0V62c0.3,0,0.4,0,0.4,0
					c0,0,0,0,0.1,0c0,0,0-0.1,0-0.2c0-0.1,0-0.2,0-0.5c0-0.3,0-0.5,0-0.6v-1.4c0,0,0-0.3,0-0.9c0-0.2,0-0.3,0-0.4c0,0,0,0,0-0.1
					c0,0-0.1,0-0.1,0c-0.1,0-0.2,0-0.4,0v-0.3l1.2,0l1.6,0c0.2,0,0.4,0,0.6,0l0,0c0,0.1,0,0.3-0.1,0.5c0,0.2,0,0.4,0,0.5H54
					c0-0.1,0-0.2,0-0.4c0-0.1,0-0.2,0-0.2c0,0,0,0,0,0c0,0-0.1-0.1-0.3-0.1c-0.1,0-0.3,0-0.5,0c0,0-0.1,0-0.3,0c-0.2,0-0.3,0-0.3,0
					c0,0.2,0,0.6,0,1.2v0.5c0.3,0,0.5,0,0.6,0c0.3,0,0.5,0,0.5,0c0,0,0.1,0,0.1-0.1c0-0.1,0-0.2,0-0.4H54
					C53.9,59.7,53.9,60.1,53.9,60.7"/>
				<path class="st0" d="M55.3,61.4c0.1,0,0.3,0.1,0.4,0.1c0.1,0.1,0.1,0.2,0.1,0.4c0,0.1-0.1,0.3-0.2,0.4c-0.1,0.1-0.2,0.2-0.4,0.2
					c-0.1,0-0.3-0.1-0.4-0.2c-0.1-0.1-0.1-0.2-0.1-0.4c0-0.1,0-0.3,0.1-0.4C55.1,61.4,55.2,61.4,55.3,61.4"/>
				<path class="st0" d="M60.8,61.6L60.8,61.6l-0.1,0.4c-0.3,0.1-0.5,0.2-0.7,0.3c-0.2,0.1-0.5,0.1-0.8,0.1c-0.5,0-0.9-0.1-1.2-0.2
					c-0.3-0.1-0.5-0.3-0.7-0.5c-0.2-0.2-0.3-0.4-0.5-0.6c-0.2-0.3-0.2-0.7-0.2-1.1c0-0.7,0.2-1.3,0.7-1.7c0.5-0.4,1.1-0.7,2-0.7
					c0.3,0,0.6,0,0.8,0.1c0.2,0,0.5,0.1,0.8,0.2l0,0c0,0.1-0.1,0.2-0.1,0.4c0,0.2-0.1,0.5-0.1,0.7h-0.3c0-0.2,0-0.4,0-0.6
					c-0.1-0.2-0.3-0.3-0.5-0.3C59.8,58,59.5,58,59.3,58c-0.5,0-0.9,0.2-1.2,0.5c-0.3,0.3-0.5,0.8-0.5,1.4c0,0.4,0.1,0.7,0.2,0.9
					c0.1,0.3,0.2,0.5,0.4,0.7c0.2,0.2,0.4,0.3,0.5,0.4c0.2,0.1,0.5,0.2,0.9,0.2c0.2,0,0.4,0,0.6-0.1C60.4,61.9,60.6,61.8,60.8,61.6"
					/>
				<path class="st0" d="M61.9,61.4c0.1,0,0.3,0.1,0.4,0.1c0.1,0.1,0.1,0.2,0.1,0.4c0,0.1-0.1,0.3-0.2,0.4c-0.1,0.1-0.2,0.2-0.4,0.2
					c-0.1,0-0.3-0.1-0.4-0.2c-0.1-0.1-0.2-0.2-0.2-0.4c0-0.1,0.1-0.3,0.2-0.4C61.6,61.4,61.8,61.4,61.9,61.4"/>
				<path class="st0" d="M50.4,44.2c0,0.5,0,1,0,1.5c0.5,0,1,0.1,1.5,0.2l0.4,1.4c-0.5-0.2-1.3-0.4-1.9-0.1c0,0,0,0.1,0,0.1
					c0.8,0,1.5,0.1,2.2,0.3l0.6,2c-0.8-0.3-2-0.6-2.7-0.1c-0.1,0,0,0.1,0,0.1c1,0,1.9,0.1,2.7,0.4l0.7,2.5c-0.9-0.4-2.4-0.8-3.4-0.2
					l0,0.3l3.7,0.1l0-0.1l0.1-6.1h0.1v0.1c0.3,0,0.7-0.2,1,0c0.2,0.1,0.3,0.3,0.5,0.4c0.3,0,0.5,0,0.8-0.1c-0.4,0.2-0.8,0.5-1.3,0.4
					c-0.2-0.1-0.4-0.2-0.6-0.2c-0.1,0-0.3,0-0.4,0.1l0,0.7c0.2,0.1,0.5,0.2,0.8,0.2c1,0.2,2.2,0.1,3.1-0.3c-0.8,1.2-0.7,3,0.2,4.1
					l0.2,0.1l-1.2,1.8c0.6,0.1,1.5,0.5,2.1,0c0.4-0.3,0.9-0.5,1.5-0.4L61,53.8c-0.7-0.1-1.2,0.2-1.6,0.6c-0.9,0.2-1.7-0.3-2.6-0.3
					c-0.9-0.1-1.4,0.3-2.2,0.4c-1,0.1-1.7-0.5-2.6-0.3c-0.7,0.2-1.3,0.5-2,0.4c-0.6-0.2-1.2-0.5-1.9-0.4c-0.6,0.1-1.1,0.3-1.7,0.3
					c-1.2,0.1-2.1-0.8-3.3-0.3c-0.6,0.4-1.5,0.4-2.2,0.2c-0.5-0.1-0.9-0.5-1.5-0.3l-1.2,0.3l-0.1-0.3l1.5-0.3c0.5,0,0.9,0.3,1.3,0.4
					c0.4,0.1,0.9,0.2,1.3,0.1c-0.6-0.5-1.2-1.1-1.8-1.7L36.8,51l0.1-0.1l3.6,1.3c0.3,0,0.6,0.1,1,0.1l-0.1-0.1l-1.9-1.7
					c0.5-1.3,2.2-2.5,3.9-2.8c0.4-0.1,0.8-0.1,1.2-0.1l0.4,0.3c0-0.3,0-0.7,0-1c-0.2-0.1-0.5-0.1-0.7-0.1c-0.2,0.1-0.4,0.2-0.6,0.2
					c-0.4,0-0.6-0.3-0.9-0.4c0.3,0,0.7,0.1,1,0c0.2-0.2,0.5-0.4,0.8-0.4l0.4,0.1l0-0.1l0.1,0l0.1,2.2v0c0.3,0,0.6,0.1,0.9,0.3
					l0.4,1.2c-0.4-0.2-0.8-0.3-1.2-0.4v0.2c0.5,0.1,0.9,0.2,1.3,0.4l0.4,1.6c-0.5-0.3-1.1-0.4-1.7-0.5l0,1.2l0.1,0l4.7,0.1
					c0-0.1,0-0.2,0-0.3c-1-0.6-2.4-0.2-3.4,0.2l0.9-2.5c0.8-0.2,1.6-0.3,2.5-0.4l0-0.2c-0.8-0.4-1.9-0.1-2.6,0.2l0.7-2
					c0.6-0.2,1.2-0.3,1.9-0.3c0-0.1,0-0.1,0-0.1c-0.6-0.3-1.3-0.1-1.9,0.1l0.5-1.4c0.4-0.1,0.9-0.2,1.4-0.2c0-0.2,0-0.5,0-0.7
					c-0.2-0.1-0.5-0.1-0.8,0c-0.1,0.1-0.3,0.2-0.5,0.2c-0.4,0-0.6-0.3-1-0.4c0.3,0.1,0.7,0.1,0.9,0c0.2-0.2,0.5-0.5,0.8-0.4
					c0.2,0,0.3,0.1,0.5,0.1l0-0.2H50.4"/>
				<path class="st1" d="M54.6,51.5l-0.1-3.4C55,49.1,55.1,50.4,54.6,51.5"/>
				<path class="st1" d="M45,48.5c-0.5,0-1,0.2-1.4,0.4l-0.2,1.2c0.5-0.2,1-0.4,1.6-0.5v0.2c-0.6,0-1.2,0.2-1.7,0.5L43,52
					c0.6-0.3,1.2-0.5,1.9-0.6v1.2l-2.2,0l-1.3-0.2c0.1-1.4,0.7-2.6,2-3.7c0.5-0.4,0.9-0.6,1.6-0.6V48.5"/>
				<path class="st1" d="M58.5,52l-1.1,0.7l-2.9,0l0-1.2c0.9-0.4,2.2-0.3,3.1,0.1L58.5,52"/>
				<path class="st0" d="M61.2,54.1L61,54.5c-0.7-0.2-1,0.5-1.5,0.6c-1.3,0.2-2.4-0.7-3.7-0.1c-0.6,0.3-1.5,0.4-2.2,0.2
					c-0.4-0.1-0.8-0.3-1.2-0.2c-0.9,0.2-1.8,0.7-2.7,0.3c-0.5-0.2-0.9-0.4-1.5-0.3c-0.8,0.1-1.5,0.5-2.4,0.3
					c-0.6-0.1-1.2-0.4-1.8-0.4c-0.6,0.1-1.1,0.5-1.8,0.5c-0.9,0.1-1.7-0.2-2.5-0.5L38.2,55L38,54.7l1.5-0.3c0.5,0,0.9,0.3,1.3,0.4
					c0.6,0.2,1.4,0.2,1.9-0.1c0.6-0.3,1.5-0.4,2.2-0.1c0.5,0.1,1,0.3,1.6,0.2c0.9-0.2,1.9-0.6,2.8-0.1c0.5,0.3,1.4,0.3,1.9,0.1
					c0.5-0.2,1-0.4,1.6-0.2c0.7,0.1,1.3,0.5,2.1,0.3c0.6-0.2,1.1-0.5,1.9-0.4c0.9,0,1.6,0.5,2.5,0.3c0.4-0.2,0.6-0.5,1.1-0.6
					C60.7,54.1,61,54.1,61.2,54.1"/>
				<path class="st4" d="M49.4,82.6c0,0,15-4.9,15.6-15.9l0-23.6H33.7l0,23.6C34.3,77.7,49.4,82.6,49.4,82.6z"/>
				<path d="M29.7,73.2c0.5,0.4,1.1,0.8,1.7,1.1c0.4,0.4,0.9,0.5,1.3,0.9c0.8,0.4,1.6,0.8,2.5,1.2c0.6,0.1,1.2,0.4,1.9,0.7
					c0.3,0.1,0.7,0.3,1,0.3c0.6,0.3,1.3,0.3,1.9,0.6c1.3,0.3,2.6,0.7,4,0.8c1.7,0.2,3.3,0.2,5,0.4c0.9,0,2,0.1,2.9-0.1
					c0.7,0,1.3-0.2,1.9-0.2c0.2-0.1,0.4,0.1,0.6,0c1.3-0.2,2.4-0.3,3.7-0.5c1.6-0.3,3.3-0.8,4.9-1.2c0.7-0.3,1.5-0.5,2.2-0.9
					c0.3-0.1,0.5-0.1,0.7-0.2c0.2-0.1,0.4-0.2,0.6-0.2c1.1-0.6,2.3-1.1,3.4-1.9c0.3,0,0.4-0.2,0.7-0.3c0.8-0.2,2-0.6,2.7-0.1
					c0.5,0.1,0.4,0.5,0.5,0.9c-0.1,0.6-0.2,1.2-0.2,1.8c-0.1,0.3,0,0.6,0,0.9l0,0.6c0.2,0,0,0.2,0,0.3c0.1,0.5,0.2,0.9,0.4,1.4
					c0.1,0.2-0.1,0.4,0.2,0.5c1.4-0.3,2.8,0.1,4.1,0.4c0.4,0.2,0.9,0.4,1.3,0.6c0.2,0,0.3,0.2,0.4,0.2c1.4,0.6,2.7,1.5,3.8,2.6
					c0.2,0.2,0.5,0.5,0.4,0.8c-0.8-0.4-1.7-0.5-2.6-0.6c-0.3,0.1-0.6,0-0.9,0.2c-0.5-0.1-1,0.2-1.5,0.3c-0.5,0.2-1,0.5-1.5,0.7v0.1
					c0.8,0.8,1.7,1.4,2.3,2.3c0.3,0.3,0.6,0.6,0.8,1v0.1c0.5,0.4,0.7,1,1.1,1.4h0c0,0.2,0.2,0.3,0.2,0.4c0.3,0.5,0.7,1.1,0.8,1.6
					c-0.2,0.1-0.3-0.3-0.5-0.3c-0.3-0.1-0.6-0.4-0.9-0.5c-0.4-0.3-0.8-0.5-1.2-0.7c-2.4-1.3-5.5-1.6-8.3-1.1
					c-1.3,0.1-2.8,0.2-4.1,0.2c-0.6,0-1.2-0.1-1.7-0.5c-0.3-0.4-0.4-0.8-0.5-1.2c-0.1-0.4-0.2-0.7-0.3-1.1c-0.1-0.1,0-0.2-0.1-0.2
					c-0.3,0-0.6,0.3-0.9,0.3c-0.4,0.3-0.8,0.3-1.3,0.5c-1.1,0.4-2.2,0.7-3.3,1c-0.4-0.1-0.5,0.3-0.9,0.2c-0.2,0.2-0.5,0.1-0.8,0.2
					c-1.2,0.4-2.6,0.3-3.9,0.5c-0.2,0-0.3-0.1-0.5,0c-1.2-0.1-2.4,0.1-3.5,0c-0.3,0-0.5,0.1-0.7,0c-0.4,0-0.7-0.1-1,0
					c-0.2-0.1-0.5,0-0.7-0.1c-0.5,0.1-1.1-0.2-1.6-0.1c-0.1-0.1-0.4-0.1-0.6-0.2c-0.1-0.1-0.2,0-0.4,0c-0.8-0.2-1.5-0.2-2.3-0.4
					c-1.8-0.3-3.4-0.8-5.2-1.3c-0.1-0.1-0.3,0-0.3-0.1c-0.7-0.3-1.6-0.4-2.3-0.7c-0.7-0.2-1.4-0.5-2.1-0.7c-0.2,0.6-0.3,1.1-0.5,1.7
					c-0.1,0.3,0,0.7-0.2,1c-0.2,0.2-0.3,0.5-0.5,0.4c-0.4,0.3-0.9,0.3-1.4,0.3c-1.7,0.1-3.1-0.2-4.6-0.4c-0.1,0-0.3-0.2-0.5-0.1
					c-0.2-0.2-0.5,0-0.7-0.1c-0.2,0-0.4,0.1-0.6,0c-0.4,0-0.7,0-1,0c-0.4-0.1-0.9,0.1-1.3,0.1c-0.7,0.1-1.4,0.2-2,0.5
					c-0.4,0-0.7,0.3-1.1,0.4c-0.3,0.1-0.4,0.3-0.7,0.3c0,0.2-0.1,0-0.2,0.1c-0.2,0.1-0.5,0.2-0.7,0.3c-0.4,0.2-0.8,0.5-1.2,0.8
					c-0.1,0-0.1,0-0.1-0.1c0-0.4,0.2-0.8,0.4-1.1c0.4-0.8,1.1-1.5,1.6-2.2c0-0.1,0.2-0.1,0.2-0.3c0.8-1.1,1.9-2,2.9-2.9
					c-0.5-0.6-1.4-0.7-2.1-1c-0.2-0.1-0.5,0-0.7-0.2c-0.3,0-0.7-0.1-0.9,0c-0.2,0-0.6,0-0.8,0C16.6,83,16.4,83,16.2,83
					c-0.5,0.2-0.9,0.3-1.3,0.5c-0.1,0-0.2,0.1-0.3,0.1c0-0.1,0.2-0.3,0.3-0.4c0.1-0.2,0.4-0.4,0.5-0.5c0.2-0.2,0.5-0.4,0.6-0.7
					c0.3-0.1,0.5-0.4,0.8-0.6c0.1-0.2,0.2-0.2,0.4-0.3c0.4-0.2,0.7-0.5,1.1-0.7c0.3,0,0.4-0.2,0.7-0.3c0.1-0.1,0.3-0.1,0.5-0.2
					c0.4-0.3,1-0.3,1.5-0.6c0.3-0.1,0.6-0.1,0.9-0.2c0.2-0.1,0.5-0.1,0.7-0.1c0.4-0.1,0.9-0.1,1.3-0.1c0.3-0.2,0.8,0.1,1.2,0
					c0.1,0.1,0.4,0.1,0.5,0.1c0.2-0.2,0.2-0.6,0.4-0.9c0.2-0.8,0.5-1.7,0.4-2.6l0-0.6c0.1-0.1,0-0.1,0-0.2c0.2-0.7,0.2-1.4,0.5-2
					c0.5-0.4,1.2-0.3,1.8-0.2C28.9,72.8,29.3,72.9,29.7,73.2"/>
				<path class="st2" d="M28.7,73.2c1.2,0.5,2.2,1.3,3.4,2c0.1,0,0.2,0.1,0.3,0.1c0.8,0.5,1.7,0.8,2.5,1.2c0.1,0,0.2,0.2,0.4,0.1
					c0.8,0.4,1.7,0.6,2.5,1c0.1,0,0.2,0,0.3,0.1c0.6,0.2,1.3,0.4,1.9,0.5c0,0.1,0.1,0,0.2,0.1c0.3,0.1,0.6,0.1,0.9,0.3
					c0.4,0,0.9,0.1,1.3,0.3c0.3-0.1,0.5,0.1,0.7,0.1c0.5,0,1,0.1,1.6,0.2c0.1,0.1,0.2,0,0.3,0.1l0.7,0.1v0c0.5,0,0.9,0.1,1.4,0.1
					c0.5,0.1,1.1,0,1.6,0c0.4,0,0.9,0.1,1.2,0c0.9,0.1,1.8,0,2.7-0.1c0.2,0.1,0.3-0.1,0.5,0c0.7,0,1.2-0.2,1.9-0.1
					c0.1-0.2,0.3,0,0.4-0.1c0.4-0.1,1-0.1,1.4-0.2c0.5,0,1-0.2,1.5-0.2c0.1,0.1,0.1,0,0.2,0c0.8-0.2,1.5-0.2,2.3-0.4
					c0.1-0.1,0.2-0.1,0.3-0.1c0.6-0.3,1.4-0.4,2.1-0.6c0.7-0.2,1.4-0.5,2.1-0.7c0.4-0.2,0.8-0.3,1.1-0.5c0.9-0.4,1.8-0.9,2.6-1.4
					c0.1,0,0.2-0.2,0.4-0.1c0.4-0.3,0.9-0.5,1.3-0.8c0.8-0.3,2-0.9,2.8-0.1c0,0.4,0,0.8,0,1.2c-0.1,0,0,0.1,0,0.1
					c0,0.1-0.1,0.3,0,0.4h0c0,0.3,0,0.7,0,0.9c0,0.8,0,1.5,0.4,2.2c0,0.2,0.1,0.3,0.1,0.5c0,0.2,0.2,0.3,0.2,0.6
					c0.2,0.3,0.1,0.7,0.4,0.9c-0.1,0.1,0.1,0.2,0.1,0.4c0.2,0.4,0.3,0.8,0.3,1.3c0,0-0.1,0.1-0.1,0.1c-0.5-0.7-1.5-0.4-2.1-0.2
					c-2.5,0.9-4.8,2.4-7.3,3.5c-1.1,0.5-2.2,0.8-3.3,1.2c-2.3,0.6-4.6,1-6.9,1.2c-3.1,0.2-6.1,0-9.2-0.3c-1-0.1-2-0.3-3-0.5
					c-0.3,0-0.5-0.1-0.8-0.2c-1.4-0.3-2.7-0.7-4.1-1.1c-1-0.3-1.9-0.6-2.9-0.9c-1.3-0.4-2.5-0.7-3.7-1.3c-0.7-0.3-1.4-0.6-2.2-0.9
					c-0.7-0.2-1.3-0.6-2.1-0.7l0-0.1c-0.1,0.1-0.2-0.1-0.4,0c-0.6-0.2-1.2-0.3-1.7,0c-0.1,0-0.1-0.2,0-0.3c0.1-0.5,0.3-0.8,0.4-1.3
					c0.2-0.1,0.2-0.3,0.2-0.4c0.7-1.7,1.1-3.5,1.2-5.5c0.1-0.2,0-0.4,0.1-0.6c0-0.2,0.1-0.4,0-0.7c0.1-0.1,0.2-0.5,0.5-0.5
					c0.2,0,0.5-0.1,0.7,0C28.3,73,28.5,73.2,28.7,73.2"/>
				<path class="st2" d="M25,79.6c0,0,0.1-0.1,0.1,0c-0.1,0.2-0.2,0.3-0.2,0.5c-0.3,0.9-0.8,2-0.7,3c0.1,0.2,0,0.5,0.2,0.7
					c0.3,1.2,1.7,1.7,2.8,1.8c1,0.2,2,0.5,3,0.7c0.2,0.1,0.3,0.1,0.5,0c0.3,0.1,0.7,0.2,1,0.5c0.1,0,0.2,0.2,0.3,0.1
					c0.2,0.2,0.4,0.4,0.4,0.7c-0.1,0.3-0.4,0.4-0.7,0.5c-0.3,0.1-0.4,0-0.7,0.1c-1.7,0.2-3.4-0.3-5.1-0.4c-0.1,0-0.3-0.2-0.4,0
					c-0.8-0.2-1.5,0-2.3-0.1c-0.4,0.1-0.6,0-1,0.1c-0.7,0.1-1.5,0.3-2.2,0.5c-0.2,0.1-0.4,0-0.5,0.2c-0.7,0.3-1.5,0.6-2.1,1
					c-0.2,0-0.2,0.2-0.4,0.2c0.2-0.6,0.7-1,1.1-1.5c0.5-0.3,0.7-0.8,1.1-1.2c0.1-0.3,0.5-0.5,0.6-0.7c0.1-0.1,0.2-0.2,0.3-0.3l0,0
					c0.1-0.2,0.4-0.3,0.4-0.5c0.2-0.2,0.4-0.3,0.5-0.4l0-0.1l1-0.9c0.1-0.1-0.1-0.2-0.2-0.3c-0.4-0.2-0.8-0.5-1.3-0.7
					c0-0.1-0.2,0-0.2-0.1c-0.3,0-0.6-0.2-0.9-0.3c-0.2-0.1-0.6-0.1-0.8-0.2c-0.1,0.1-0.2-0.2-0.3,0c-0.2-0.1-0.5,0-0.7-0.1
					c-0.6,0.1-1.1,0.1-1.7,0.2l0-0.1c0.5-0.3,0.9-0.8,1.4-1c0.4-0.3,0.9-0.6,1.4-0.8c1.4-0.8,3.1-1.3,4.7-1.4
					C24,79.5,24.5,79.5,25,79.6"/>
				<path class="st2" d="M77.5,80.1c1.1,0.3,2.2,0.9,3.3,1.4c0.8,0.5,1.7,0.9,2.4,1.6c0.1,0,0.2,0.1,0.2,0.2
					c-1.7-0.4-3.6-0.1-5.1,0.8c-0.3,0.1-0.6,0.3-0.8,0.5v0.1c0.3,0.2,0.5,0.5,0.7,0.7c1.1,1,2.1,2,3,3.1c0.2,0.4,0.5,0.6,0.7,1
					c0.2,0.3,0.4,0.6,0.6,0.9c-0.2,0.1-0.3-0.2-0.4-0.2c-1.6-0.9-3.3-1.6-5.1-1.9c-1.5-0.1-2.7-0.1-4.2,0.1c-0.3,0-0.6,0-0.8,0.1
					c-0.1,0-0.3,0.1-0.5,0c-0.2,0.1-0.4,0-0.5,0.1c-0.9,0-1.9,0.1-2.8,0c-0.4-0.2-0.9-0.2-1.2-0.7c0.1-0.2,0-0.6,0.4-0.6
					c0.8-0.6,2-0.6,3-0.9c1.4-0.2,2.7-0.3,3.8-1.2c0.3-0.5,0.9-0.8,1-1.4c0.2-0.6,0.4-1.1,0.3-1.7c0-0.2-0.1-0.5-0.2-0.7
					c-0.2-0.5-0.3-0.9-0.6-1.4C75.4,79.8,76.4,80,77.5,80.1"/>
				<path class="st5" d="M26.3,82.6c0.5,0.2,1.1,0.4,1.7,0.5c0.8,0.3,1.6,0.7,2.5,1c0.6,0.2,1.2,0.6,1.9,0.7
					c0.1,0.1,0.3,0.1,0.4,0.2c0.1,0,0.2,0.1,0.3,0.1c-0.1,0.3-0.2,0.5-0.3,0.8c0,0.3-0.2,0.5-0.2,0.8c0,0,0,0.1,0,0.1
					c-0.5-0.5-1.2-0.6-1.8-0.9c-1.5-0.2-3-0.4-4.5-0.9c0-0.1-0.2,0-0.3-0.1c-0.4-0.3-1-0.6-1.1-1.1c-0.1-0.2-0.3-0.4-0.2-0.6
					c0.2-0.2,0.2-0.6,0.5-0.6c0.1-0.1,0.4,0,0.5-0.1C25.9,82.6,26.1,82.6,26.3,82.6"/>
				<path class="st5" d="M74.5,83.1c0,0.3,0.2,0.6-0.1,0.8c-0.1,0.2,0,0.4-0.2,0.6c-0.3,0.4-0.7,0.7-1.2,0.9c-0.3,0.2-0.6,0.4-1,0.4
					c-0.2,0.1-0.5,0.2-0.8,0.2c-1.4,0.3-2.9,0.2-4.1,1c-0.2,0-0.3,0.1-0.5,0.2L66.5,87c-0.1-0.4-0.2-0.7-0.2-1.2
					c0.4-0.1,0.7-0.4,1.1-0.5c0.3-0.2,0.6-0.4,0.9-0.5c0.7-0.5,1.5-0.7,2.2-1.2c0.2,0,0.3-0.2,0.4-0.2c0.6-0.2,1-0.6,1.6-0.6
					c0.5-0.2,1.1-0.4,1.6-0.2L74.5,83.1"/>
				<polyline class="st2" points="74.4,83.9 74.4,83.9 74.4,84 74.4,84 74.4,83.9 				"/>
				<path d="M30.8,77.7L30.8,77.7c-0.1,0-0.1-0.1-0.1-0.2c0-0.1,0-0.2,0-0.3c0-0.1,0-0.2-0.1-0.3c0-0.1-0.1-0.1-0.2-0.2
					c-0.1,0-0.1-0.1-0.2-0.1c-0.1,0-0.2,0-0.3,0c-0.1,0-0.2,0.1-0.2,0.1c-0.1,0.1-0.1,0.2-0.1,0.3c0,0.1,0,0.2,0,0.3
					c0,0.1,0.1,0.2,0.1,0.3c0.1,0.1,0.1,0.2,0.2,0.3c0.1,0.1,0.1,0.2,0.2,0.3c0.1,0.2,0.2,0.4,0.3,0.5c0.1,0.2,0.1,0.3,0,0.5
					c0,0.2-0.2,0.4-0.3,0.6c-0.2,0.2-0.4,0.3-0.6,0.4c-0.2,0.1-0.5,0.1-0.7,0c-0.3-0.1-0.5-0.1-0.7-0.3c-0.2-0.1-0.3-0.2-0.3-0.3
					c-0.1-0.1-0.1-0.2-0.1-0.2c0,0,0-0.1,0.1-0.1c0-0.1,0.1-0.1,0.2-0.2c0.1-0.1,0.2-0.2,0.2-0.2c0.1,0,0.1,0,0.1,0.1
					c0,0.1,0,0.1,0,0.2c-0.1,0.5,0.1,0.8,0.5,0.9c0.1,0,0.3,0,0.4,0c0.1,0,0.2-0.1,0.3-0.2c0.1-0.1,0.1-0.2,0.2-0.3
					c0-0.1,0-0.2,0-0.3c0-0.1-0.1-0.2-0.1-0.3c-0.1-0.1-0.1-0.2-0.2-0.3c-0.1-0.1-0.2-0.2-0.2-0.3C29.1,78.3,29,78.2,29,78
					c0-0.2,0-0.4,0-0.5c0-0.1,0.1-0.3,0.2-0.5c0.1-0.2,0.3-0.3,0.5-0.4c0.2-0.1,0.4-0.1,0.7-0.1c0.2,0,0.4,0.1,0.5,0.2
					c0.1,0.1,0.2,0.2,0.3,0.3c0.1,0.1,0.1,0.2,0.1,0.2c0,0-0.1,0.1-0.1,0.2C31.1,77.5,30.9,77.6,30.8,77.7"/>
				<path d="M32.5,80.2l0.7-1l0.8,0.1c0,0-0.1,0.1-0.2,0.2c-0.1,0.1-0.2,0.3-0.3,0.4c-0.1,0.2-0.2,0.3-0.3,0.5
					c-0.1,0.1-0.1,0.3-0.2,0.3c-0.1,0.2,0,0.3,0.1,0.3c0.1,0,0.1,0,0.2,0c0.1,0,0.2-0.1,0.3-0.1c0.1-0.1,0.2-0.1,0.3-0.1l-0.1,0.3
					c-0.3,0.1-0.5,0.2-0.7,0.3c-0.2,0.1-0.4,0.1-0.5,0c-0.1,0-0.2-0.1-0.2-0.1c-0.1-0.1-0.1-0.2-0.1-0.3c0-0.1,0-0.2,0.1-0.4l0,0
					c-0.5,0.3-0.9,0.4-1.2,0.3c-0.1,0-0.2-0.1-0.3-0.3c-0.1-0.1,0-0.3,0-0.5c0.1-0.2,0.2-0.4,0.3-0.6c0.2-0.3,0.3-0.5,0.6-0.8
					l0.8,0.1L32,79.6c-0.1,0.1-0.1,0.2-0.2,0.4c-0.1,0.1-0.1,0.3-0.2,0.3c-0.1,0.2,0,0.3,0.1,0.4c0.1,0,0.1,0,0.2,0
					c0.1,0,0.2-0.1,0.3-0.2C32.4,80.4,32.5,80.3,32.5,80.2"/>
				<path d="M34.8,80.3c-0.2,0.1-0.3,0.2-0.5,0.4c-0.2,0.1-0.3,0.2-0.5,0.2l-0.1,0.2l0.1,0c0.1,0,0.1-0.1,0.2-0.1
					c0.1,0,0.2-0.1,0.2-0.1c0.1,0,0.1-0.1,0.2-0.1l0,0c-0.5,0.7-1,1.5-1.5,2.3l0.7,0.2c0.1-0.2,0.2-0.4,0.3-0.5
					c0.1-0.2,0.3-0.4,0.5-0.7c0,0,0,0.1,0,0.1c0,0,0,0.1,0.1,0.1c0,0,0.1,0.1,0.1,0.1c0,0,0.1,0.1,0.2,0.1c0.1,0.1,0.3,0.1,0.5,0.1
					c0.2,0,0.4-0.1,0.6-0.2c0.2-0.1,0.4-0.2,0.5-0.4c0.2-0.2,0.3-0.3,0.3-0.5c0.1-0.2,0.1-0.4,0.1-0.6c-0.1-0.2-0.2-0.3-0.3-0.4
					c-0.1-0.1-0.3-0.1-0.4-0.1c-0.1,0-0.3,0.1-0.5,0.2l0,0l0.3-0.4l-0.6-0.1C35.1,80,35,80.1,34.8,80.3 M36.4,82.3
					c-0.2,0-0.3,0.1-0.4,0.1c-0.1,0-0.1,0-0.1,0c0,0,0,0,0,0.1c0,0.1,0,0.1,0,0.1c0,0,0.1,0,0.3-0.1c0.2-0.1,0.4-0.1,0.6-0.2
					l0.1-0.3C36.7,82.2,36.5,82.3,36.4,82.3z M35.4,80.8c0.1-0.1,0.1-0.1,0.2-0.1c0.1-0.1,0.2-0.1,0.3,0c0.1,0,0.1,0.1,0.1,0.1
					c0,0.1,0,0.1,0,0.2c0,0.1,0,0.2-0.1,0.2c-0.1,0.1-0.2,0.3-0.3,0.5c-0.1,0.2-0.3,0.3-0.4,0.4c-0.2,0.1-0.3,0.1-0.4,0.1
					c-0.1,0-0.1-0.1-0.1-0.1c0-0.1,0-0.1-0.1-0.2l0.5-0.6C35.2,80.9,35.3,80.8,35.4,80.8z"/>
				<path d="M38.2,83.1c-0.1,0-0.3,0-0.4,0c-0.1-0.1-0.2-0.2-0.3-0.3c-0.1-0.1-0.1-0.3,0-0.4c0.2,0,0.4,0,0.6,0c0.2,0,0.4,0,0.6-0.1
					c0.2-0.1,0.3-0.2,0.4-0.3c0-0.1,0-0.2,0-0.2c0-0.1,0-0.2-0.1-0.2c-0.1-0.1-0.2-0.1-0.3-0.2c-0.1-0.1-0.3-0.1-0.5-0.1
					c-0.2,0-0.4,0.1-0.5,0.1c-0.2,0.1-0.3,0.2-0.5,0.3c-0.1,0.1-0.3,0.3-0.3,0.5c-0.1,0.3-0.1,0.5,0,0.7c0.1,0.2,0.2,0.4,0.5,0.5
					c0.1,0.1,0.3,0.1,0.4,0.1c0.1,0,0.3,0,0.5,0c0.2,0,0.4-0.1,0.6-0.2l0.1-0.3C38.6,83,38.4,83.1,38.2,83.1 M37.8,81.7
					c0.1-0.1,0.2-0.2,0.3-0.3c0.1-0.1,0.2-0.1,0.3,0c0.1,0.1,0.1,0.2,0.1,0.3c-0.1,0.2-0.2,0.3-0.4,0.4c-0.2,0.1-0.4,0.1-0.6,0.1
					l0-0.1C37.6,82,37.7,81.8,37.8,81.7z"/>
				<path d="M39,83.1l-0.3,0.1l0.1-0.3c0.2-0.1,0.5-0.1,0.6-0.3c-0.1-0.1-0.2-0.3-0.1-0.4c0,0,0.1-0.1,0.1-0.2
					c0.1-0.1,0.2-0.2,0.3-0.2c0.1-0.1,0.2-0.1,0.4,0c0.1,0,0.2,0.1,0.1,0.3c0,0.1-0.1,0.3-0.3,0.4c0.3,0.1,0.6-0.1,1-0.4l0.2,0.1
					l-0.5,0.6c0,0-0.1,0.1-0.2,0.2c-0.1,0.1-0.2,0.2-0.2,0.3c-0.1,0.1-0.1,0.2-0.1,0.3c0,0.1,0,0.2,0,0.2c0,0.1,0.1,0.1,0.1,0.1
					c0.1,0,0.1,0,0.2,0c0.1,0,0.2-0.1,0.3-0.1c0.1-0.1,0.2-0.1,0.5-0.2l-0.1,0.3c-0.4,0.2-0.6,0.3-0.8,0.3c-0.2,0.1-0.3,0.1-0.4,0.1
					c-0.1,0-0.2,0-0.3,0c-0.1,0-0.2-0.1-0.2-0.2c0-0.1,0-0.3,0-0.4c0-0.1,0.1-0.3,0.3-0.4c0.1-0.1,0.3-0.3,0.5-0.4l0,0
					c-0.1,0-0.3,0-0.5,0C39.5,82.9,39.4,82.9,39,83.1"/>
				<path d="M42.3,81.8c-0.2,0.2-0.4,0.5-0.5,0.8c-0.2,0.3-0.3,0.5-0.5,0.8C41.1,83.6,41,83.8,41,84c0,0.1-0.1,0.3,0,0.4
					c0,0.1,0.1,0.2,0.1,0.3c0.1,0.1,0.2,0.1,0.3,0.2c0.1,0,0.2,0,0.3,0c0.1,0,0.2-0.1,0.4-0.1c0.2-0.1,0.3-0.2,0.5-0.3
					c0.1,0.1,0.1,0.2,0.2,0.2c0.1,0.1,0.1,0.1,0.2,0.1c0.1,0,0.2,0,0.3,0c0.1,0,0.2-0.1,0.4-0.3l0.1-0.3c-0.3,0.2-0.3,0.2-0.3,0.3
					c-0.1,0-0.1,0.1-0.2,0.1c-0.1,0-0.1,0-0.2,0c-0.1,0-0.2-0.1-0.3-0.3c0.1-0.1,0.3-0.2,0.4-0.4c0.1-0.1,0.2-0.3,0.3-0.4
					c0.1-0.1,0.1-0.2,0.2-0.3c0-0.1,0-0.2,0-0.3c0-0.1-0.1-0.1-0.1-0.1c-0.1,0-0.2,0-0.4,0.1c-0.1,0.1-0.3,0.2-0.4,0.3
					c-0.1,0.1-0.2,0.3-0.2,0.5c0,0.2,0,0.3,0,0.5c-0.1,0.1-0.2,0.1-0.3,0.2c-0.1,0-0.2,0.1-0.3,0c-0.1,0-0.1-0.1-0.2-0.1
					c0-0.1,0-0.2,0-0.3c0-0.2,0.2-0.5,0.4-0.8l0.5-0.3c0.1-0.1,0.2-0.1,0.3-0.2c0.1-0.1,0.3-0.2,0.4-0.3c0.1-0.1,0.2-0.2,0.4-0.4
					c0.1-0.1,0.2-0.3,0.2-0.4c0-0.1,0-0.2,0-0.3c0-0.1-0.1-0.1-0.1-0.1l-1,0C42.6,81.4,42.5,81.6,42.3,81.8 M43.6,81.7
					c0,0.1-0.1,0.2-0.1,0.3c-0.1,0.1-0.2,0.2-0.3,0.3c-0.1,0.1-0.2,0.2-0.4,0.3c-0.1,0.1-0.3,0.2-0.4,0.3l0,0c0.3-0.5,0.5-0.8,0.7-1
					c0.2-0.2,0.3-0.3,0.4-0.3C43.6,81.5,43.6,81.6,43.6,81.7z"/>
				<path d="M44.8,82c0,0,0.1,0.1,0.1,0.1c0,0,0.1,0.1,0.1,0.1c0,0,0.1,0,0.1,0c0.1,0,0.2,0,0.3-0.1c0,0.2-0.1,0.4-0.2,0.5
					c-0.1,0.1-0.2,0.1-0.4,0.1c-0.2,0-0.3-0.1-0.4-0.2C44.6,82.3,44.7,82.2,44.8,82 M44.3,83.2l0.7,0l0,0L44.6,84
					c0,0.1-0.1,0.1-0.1,0.2c0,0.1-0.1,0.1-0.1,0.2c0,0,0,0.1-0.1,0.2c0,0.1,0,0.1-0.1,0.2c0,0.1,0,0.1,0,0.1c0,0,0,0.1,0.1,0.1
					c0.1,0,0.2,0,0.3-0.1c0.1-0.1,0.2-0.1,0.6-0.4l-0.1,0.3c-0.4,0.3-0.7,0.5-0.9,0.6c-0.2,0.1-0.3,0.1-0.4,0.1
					c-0.1,0-0.2-0.1-0.3-0.2c-0.1-0.1-0.1-0.3-0.1-0.5c0-0.3,0.1-0.5,0.3-0.8C44,83.7,44.2,83.4,44.3,83.2z"/>
				<path d="M48,85.2c-0.1,0.1-0.2,0.1-0.2,0.2c-0.1,0-0.1,0.1-0.2,0c-0.1,0-0.2-0.1-0.2-0.3c0-0.1,0-0.2,0.1-0.4
					c0.1-0.2,0.1-0.3,0.2-0.4l0.3-0.8l-0.2,0l-0.6,0.3c-0.1-0.2-0.2-0.4-0.5-0.4c-0.1,0-0.3,0-0.5,0.1c-0.2,0.1-0.3,0.2-0.5,0.3
					c-0.2,0.1-0.3,0.3-0.4,0.5c-0.1,0.2-0.2,0.4-0.2,0.6c0,0.2,0,0.4,0.1,0.6c0.1,0.2,0.2,0.2,0.4,0.3c0.1,0,0.3,0,0.4-0.1
					c0.1-0.1,0.2-0.2,0.4-0.3c0.1-0.1,0.2-0.2,0.3-0.4l0,0c0,0.2,0,0.3,0,0.4c0,0.1,0.1,0.2,0.1,0.3c0.1,0.1,0.1,0.1,0.2,0.1
					c0.1,0,0.2,0,0.3,0c0.1,0,0.2-0.1,0.3-0.1c0.1-0.1,0.2-0.1,0.3-0.2c0.1-0.1,0.2-0.1,0.2-0.2l0-0.3C48.1,85,48.1,85.1,48,85.2
					 M47,83.7c0,0.1,0.1,0.2,0,0.3c0,0.1,0,0.2-0.1,0.4c-0.1,0.2-0.1,0.3-0.2,0.4c-0.1,0.1-0.2,0.2-0.3,0.3
					c-0.1,0.1-0.2,0.1-0.3,0.1c-0.1,0-0.1,0-0.2-0.1c0-0.1-0.1-0.2-0.1-0.3c0-0.2,0.1-0.4,0.2-0.6c0.1-0.2,0.2-0.4,0.3-0.5
					c0.1-0.1,0.3-0.2,0.4-0.2C46.9,83.6,46.9,83.6,47,83.7z"/>
				<path d="M51.5,81.9c0.1,0,0.2,0,0.3,0.1c0.1,0,0.2,0.1,0.3,0.1c0.1,0,0.2,0,0.2-0.1c0.1,0,0.1-0.1,0.1-0.1c0,0,0.1,0,0.1,0
					c0,0,0.1,0.1,0.1,0.1c0,0,0,0,0,0c0,0,0,0-0.1,0.1c0,0-0.1,0.1-0.1,0.1c-0.1,0.1-0.2,0.2-0.3,0.4c-0.1,0.2-0.1,0.4-0.2,0.7
					c0,0.3-0.1,0.6-0.1,0.8c0,0.2-0.1,0.4-0.1,0.6c0,0.2-0.1,0.3-0.2,0.5c-0.1,0.2-0.2,0.3-0.3,0.4c-0.1,0.1-0.3,0.2-0.4,0.3
					C50.8,86,50.6,86,50.4,86c-0.2,0-0.4,0-0.5-0.1c-0.1-0.1-0.3-0.1-0.3-0.2c-0.1-0.1-0.1-0.2-0.1-0.2c0-0.1,0.1-0.2,0.2-0.2
					c0,0,0.1-0.1,0.1-0.1c0,0,0.1-0.1,0.1-0.1c0,0,0,0,0.1,0c0.1,0,0.1,0,0.1,0.1c0,0,0,0.1,0,0.2c0,0.1,0,0.3,0.1,0.4
					c0.1,0.1,0.2,0.2,0.3,0.2c0.1,0,0.1,0,0.2-0.1c0.1,0,0.1-0.1,0.1-0.1c0.1-0.1,0.2-0.2,0.2-0.3c0.1-0.1,0.1-0.2,0.1-0.4
					c0-0.1,0.1-0.3,0.1-0.5c0-0.2,0.1-0.3,0.1-0.4c0.1-0.2,0.1-0.4,0.2-0.6c0.1-0.2,0.1-0.3,0.2-0.4c0.1-0.1,0.2-0.2,0.3-0.3
					c0.1-0.1,0.2-0.2,0.4-0.4l0,0c-0.1,0-0.2,0.1-0.3,0.1c-0.1,0-0.2,0-0.2,0c-0.1,0-0.1,0-0.2,0c-0.1,0-0.1,0-0.2-0.1
					c-0.1,0-0.1,0-0.1,0c0,0-0.1,0-0.1,0c-0.2,0-0.3,0.1-0.4,0.2c-0.1,0.1-0.2,0.2-0.2,0.4c0,0.1,0,0.2,0.1,0.2c0,0,0.1,0.1,0.1,0.1
					c0.1,0,0.1,0.1,0.1,0.1c0,0.1,0,0.1-0.1,0.2c-0.1,0.1-0.1,0.1-0.2,0.1c-0.1,0-0.1-0.1-0.2-0.1c-0.1-0.1-0.1-0.2-0.1-0.4
					c0-0.1,0-0.3,0.1-0.4c0.1-0.1,0.2-0.3,0.3-0.4c0.1-0.1,0.3-0.2,0.4-0.3C51.2,82,51.4,81.9,51.5,81.9"/>
				<path d="M53,83.7l0.7-0.2c-0.1,0.2-0.1,0.3-0.1,0.5c0,0.2-0.1,0.3-0.1,0.4l0,0c0.1-0.2,0.3-0.3,0.4-0.5c0.1-0.1,0.2-0.2,0.4-0.4
					c0.1-0.1,0.3-0.2,0.4-0.2c0.1,0,0.1,0,0.2,0c0.1,0,0.1,0.1,0.1,0.1c0,0.1,0.1,0.1,0.1,0.2c0,0.1,0,0.2,0,0.3
					c0,0.1-0.1,0.3-0.1,0.5c-0.1,0.2-0.1,0.3-0.1,0.4c0,0.1,0,0.2,0,0.2c0,0.1,0.1,0.2,0.2,0.2c0.1,0,0.2-0.1,0.3-0.2
					c0.1-0.1,0.2-0.2,0.3-0.4l0,0.3c-0.2,0.2-0.3,0.4-0.5,0.5c-0.2,0.2-0.4,0.2-0.5,0.2c-0.1,0-0.2,0-0.3-0.1
					c-0.1-0.1-0.1-0.2-0.2-0.4c0-0.1,0-0.2,0-0.4c0-0.2,0.1-0.3,0.1-0.6c0.1-0.2,0.1-0.4,0.1-0.4c0-0.1,0-0.1-0.1-0.1
					c-0.1,0-0.4,0.3-0.8,0.9c0,0.2,0,0.4,0,0.5c0,0.1,0,0.3,0,0.5L52.7,86c0-0.2-0.1-0.4-0.1-0.6c0-0.3,0-0.6,0.1-0.9
					C52.8,84.3,52.9,84,53,83.7"/>
				<path d="M59,81.6C59,81.6,59,81.6,59,81.6c0.1,0,0.2,0.1,0.2,0.1c-0.1,0.1-0.1,0.2-0.1,0.3c0,0.1,0,0.2,0,0.4c0,0.2,0,0.4,0,0.7
					c0,0.2,0,0.5,0,0.7c0,0.2,0,0.4-0.1,0.5c0,0.2-0.1,0.3-0.2,0.5c-0.1,0.2-0.3,0.3-0.4,0.5c-0.2,0.1-0.4,0.2-0.7,0.3
					c-0.2,0.1-0.5,0-0.6-0.1c-0.2-0.1-0.3-0.2-0.3-0.4c0-0.1,0-0.1,0-0.2c0-0.1,0.1-0.1,0.2-0.3c0.1-0.1,0.2-0.2,0.2-0.2
					c0,0,0.1,0,0.1,0c0,0,0,0,0.1,0.1c0,0,0,0.1,0,0.2c0,0.1,0,0.2,0,0.2c0.1,0.2,0.2,0.3,0.4,0.3c0.1,0,0.1,0,0.2-0.1
					c0.1-0.1,0.1-0.1,0.1-0.2c0.1-0.2,0.2-0.4,0.2-0.6c0-0.2,0-0.5,0-0.8c0-0.3,0-0.5,0-0.7c0-0.2,0-0.4,0.1-0.5
					c0-0.1,0.1-0.2,0.1-0.3c0.1-0.1,0.2-0.3,0.3-0.3C58.9,81.7,58.9,81.6,59,81.6 M58.5,81.1c0.2-0.1,0.4-0.1,0.6,0
					c0.2,0,0.3,0.1,0.4,0.1c0.1,0.1,0.2,0.2,0.3,0.3c0.1,0.1,0.1,0.2,0.2,0.4c0,0.2,0,0.3,0,0.5c0,0.1-0.1,0.3-0.1,0.4
					c0,0.1-0.1,0.1-0.2,0.2c-0.1,0.1-0.1,0.1-0.2,0.1c-0.1,0-0.2,0-0.2-0.1c0,0,0,0,0-0.1c0,0,0-0.1,0-0.1c0,0,0-0.1,0.1-0.1
					c0.1-0.3,0.2-0.6,0.1-0.8c0-0.1-0.1-0.3-0.2-0.3c-0.1-0.1-0.2-0.1-0.3-0.2c-0.1,0-0.3,0-0.4,0c-0.3,0.1-0.5,0.2-0.7,0.3
					c-0.2,0.2-0.3,0.3-0.4,0.5c-0.1,0.2-0.1,0.4-0.1,0.5c0,0.1,0.1,0.2,0.2,0.3c0,0,0.1,0,0.1,0c0.1,0,0.1,0,0.1,0c0,0,0,0,0,0.1
					c0,0,0,0.1-0.2,0.2c-0.1,0.1-0.2,0.1-0.3,0.2c-0.1,0-0.2,0-0.3-0.1c-0.1-0.1-0.2-0.2-0.2-0.3c0-0.1,0-0.3,0-0.5
					c0-0.2,0.1-0.3,0.2-0.5c0.1-0.2,0.3-0.4,0.5-0.6C57.9,81.3,58.2,81.2,58.5,81.1z"/>
				<path d="M60.5,84.1L60.5,84.1l-0.1-0.2c0.1-0.2,0.2-0.4,0.2-0.6c-0.2,0-0.3-0.1-0.3-0.2c0,0,0-0.1,0-0.2c0-0.1,0-0.2,0.1-0.4
					c0.1-0.1,0.1-0.2,0.3-0.2c0.1,0,0.2,0,0.3,0.2c0,0.1,0,0.3,0,0.5c0.3-0.1,0.5-0.4,0.5-0.9l0.2-0.1l0,0.8c0,0,0,0.1,0,0.3
					c0,0.2,0,0.3,0,0.4c0,0.1,0,0.2,0,0.3c0,0.1,0.1,0.1,0.1,0.2c0.1,0,0.1,0,0.2,0c0.1,0,0.1-0.1,0.2-0.1c0.1-0.1,0.1-0.2,0.2-0.3
					c0.1-0.1,0.1-0.2,0.2-0.4l0.1,0.3c-0.2,0.4-0.3,0.5-0.4,0.7C62.1,84,62,84.2,62,84.2c-0.1,0.1-0.2,0.1-0.3,0.2
					c-0.1,0-0.2,0-0.3,0c-0.1-0.1-0.2-0.2-0.2-0.3c0-0.1-0.1-0.3,0-0.5c0-0.2,0.1-0.4,0.1-0.6l0,0c-0.1,0.1-0.2,0.2-0.4,0.3
					C60.8,83.4,60.7,83.7,60.5,84.1"/>
				<path d="M64.8,82.3c0,0,0,0.1,0,0.1c0,0,0,0.1-0.1,0.1c0,0-0.1,0.1-0.1,0.1c-0.1,0-0.2,0-0.4,0c0-0.3,0-0.5-0.1-0.7
					c0-0.2-0.1-0.4-0.2-0.5c0-0.1-0.1-0.2-0.1-0.2c0,0-0.1-0.1-0.2-0.1c-0.1,0-0.2,0-0.4,0.1c-0.1,0.1-0.3,0.2-0.4,0.3
					c-0.1,0.1-0.3,0.3-0.3,0.5c-0.1,0.2-0.1,0.4-0.1,0.6c0,0.2,0,0.4,0.1,0.7c0.1,0.2,0.2,0.3,0.3,0.4c0.1,0.1,0.2,0.1,0.4,0.2
					c0.1,0,0.2,0,0.3,0c0.2-0.1,0.3-0.2,0.4-0.4c0.1-0.2,0.2-0.4,0.2-0.6c0.1,0,0.2,0,0.3,0c0.1,0,0.1,0,0.2,0
					c0.1,0,0.1-0.1,0.2-0.1c0.1-0.1,0.1-0.1,0.2-0.3L64.9,82C64.8,82.2,64.8,82.2,64.8,82.3 M63.9,83.1c0,0.1-0.1,0.1-0.1,0.2
					c-0.1,0-0.2,0-0.3-0.1c-0.1-0.1-0.2-0.2-0.2-0.3c-0.1-0.2-0.1-0.4-0.2-0.6c0-0.2,0-0.4,0.1-0.6c0.1-0.2,0.2-0.3,0.3-0.3
					c0.1,0,0.1,0,0.1,0c-0.2,0.3-0.2,0.6-0.1,0.9c0.1,0.2,0.3,0.4,0.5,0.6C63.9,82.9,63.9,83,63.9,83.1z"/>
				<path d="M66.6,81.8c-0.1,0.1-0.2,0.2-0.3,0.3c-0.1,0.1-0.3,0.1-0.4,0c-0.1-0.1-0.3-0.1-0.3-0.3c0.1-0.1,0.3-0.3,0.4-0.4
					c0.1-0.1,0.2-0.3,0.3-0.5c0.1-0.2,0.1-0.3,0-0.5c0-0.1-0.1-0.1-0.2-0.2c-0.1-0.1-0.2-0.1-0.3-0.1c-0.1,0-0.2,0-0.3,0.1
					c-0.1,0.1-0.3,0.2-0.4,0.3c-0.1,0.1-0.2,0.3-0.3,0.5c-0.1,0.2-0.1,0.4-0.1,0.6c0,0.2,0.1,0.4,0.1,0.6c0.1,0.3,0.3,0.4,0.5,0.5
					c0.2,0.1,0.4,0.1,0.7,0c0.1-0.1,0.3-0.1,0.4-0.2c0.1-0.1,0.2-0.2,0.3-0.4c0.1-0.1,0.2-0.3,0.3-0.5l-0.1-0.3
					C66.7,81.5,66.6,81.7,66.6,81.8 M65.2,81.1c0-0.2,0-0.3,0-0.4c0-0.1,0.1-0.2,0.2-0.2c0.1-0.1,0.2,0,0.3,0.2
					c0.1,0.2,0.1,0.3,0,0.5c-0.1,0.2-0.2,0.3-0.4,0.5l0-0.1C65.3,81.4,65.3,81.3,65.2,81.1z"/>
				<path d="M66.4,78.8c0,0.2,0,0.5,0,0.8c0,0.3,0.1,0.6,0.1,0.9c0.1,0.3,0.1,0.6,0.2,0.8c0.1,0.2,0.2,0.4,0.4,0.5
					c0.1,0.1,0.2,0.1,0.4,0.1c0.1,0,0.2,0,0.3-0.1c0.1-0.1,0.3-0.2,0.4-0.4c0.1-0.2,0.3-0.4,0.4-0.8l-0.1-0.3
					c-0.1,0.3-0.2,0.5-0.3,0.6c-0.1,0.1-0.2,0.2-0.3,0.3c-0.1,0-0.2,0-0.3,0c-0.1-0.1-0.2-0.2-0.2-0.3c-0.1-0.1-0.1-0.3-0.1-0.4
					c0.1-0.2,0.1-0.4,0.2-0.6c0.1-0.2,0.1-0.4,0.1-0.6c0-0.2,0-0.4,0-0.6c0-0.2-0.1-0.4-0.2-0.6c-0.1-0.1-0.1-0.2-0.2-0.3
					c-0.1-0.1-0.1-0.1-0.2,0l-0.5,0.5C66.5,78.4,66.4,78.5,66.4,78.8 M67.3,78.3c0.1,0.1,0.1,0.3,0.1,0.4c0,0.2,0,0.4,0,0.5
					c0,0.2,0,0.4-0.1,0.5c0,0.2-0.1,0.3-0.1,0.4l0,0c-0.1-0.4-0.2-0.8-0.2-1.1c0-0.3-0.1-0.5,0-0.7c0-0.2,0-0.3,0.1-0.3
					C67.1,78,67.2,78.1,67.3,78.3z"/>
				<path d="M68.1,77.8c0,0,0.1,0,0.1,0c0,0,0.1,0,0.1,0c0,0,0.1,0,0.1,0c0.1,0,0.2-0.1,0.2-0.2c0.1,0.2,0.1,0.4,0.1,0.5
					c0,0.1-0.1,0.2-0.3,0.3c-0.2,0.1-0.3,0.1-0.4,0C68.2,78.2,68.2,78,68.1,77.8 M68.4,79.1l0.6-0.4l0,0l0.1,0.9c0,0.1,0,0.1,0,0.2
					c0,0.1,0,0.1,0,0.2c0,0,0,0.1,0,0.2c0,0.1,0,0.1,0.1,0.2c0,0.1,0.1,0.1,0.1,0.1c0,0,0.1,0,0.1,0c0.1,0,0.1-0.1,0.2-0.2
					c0-0.1,0.1-0.2,0.2-0.4l0.1,0.3c-0.1,0.3-0.2,0.5-0.3,0.7c-0.1,0.2-0.2,0.3-0.3,0.3c-0.1,0-0.2,0-0.3,0
					c-0.1-0.1-0.2-0.2-0.3-0.4c-0.1-0.2-0.2-0.5-0.2-0.8C68.4,79.7,68.4,79.4,68.4,79.1z"/>
				<path d="M72.1,79.1c0,0,0,0.1,0,0.1c0,0,0,0.1-0.1,0.1c0,0-0.1,0.1-0.1,0.1c-0.1,0.1-0.2,0.1-0.4,0c0-0.3,0-0.5-0.1-0.7
					c0-0.2-0.1-0.4-0.1-0.5c0-0.1-0.1-0.1-0.1-0.2c0,0-0.1-0.1-0.2-0.1c-0.1,0-0.2,0-0.4,0.1c-0.1,0.1-0.3,0.2-0.4,0.3
					c-0.1,0.1-0.3,0.3-0.3,0.5c-0.1,0.2-0.1,0.4-0.1,0.6c0,0.2,0,0.5,0.1,0.7c0.1,0.2,0.2,0.3,0.3,0.4c0.1,0.1,0.2,0.1,0.4,0.2
					c0.1,0,0.2,0,0.3,0c0.2-0.1,0.3-0.2,0.4-0.4c0.1-0.2,0.2-0.4,0.2-0.6c0.1,0,0.2,0,0.3,0c0.1,0,0.1,0,0.2,0
					c0.1,0,0.2-0.1,0.2-0.1c0.1-0.1,0.1-0.1,0.1-0.2l-0.1-0.3C72.2,79,72.1,79.1,72.1,79.1 M71.2,79.9c0,0.1-0.1,0.1-0.1,0.2
					c-0.1,0-0.2,0-0.3-0.1c-0.1-0.1-0.2-0.2-0.2-0.3c-0.1-0.2-0.1-0.4-0.2-0.6c0-0.2,0-0.4,0.1-0.5c0.1-0.2,0.2-0.3,0.3-0.3
					c0.1,0,0.1,0,0.1,0c-0.2,0.3-0.2,0.6-0.1,0.9c0.1,0.3,0.3,0.4,0.5,0.6C71.3,79.7,71.2,79.8,71.2,79.9z"/>
				<polygon class="st0" points="26.9,12.9 28.9,7.1 30.9,12.9 37,13 32.1,16.6 33.9,22.5 28.9,19 23.9,22.5 25.7,16.6 20.7,13 				
					"/>
				<polygon class="st6" points="26.9,12.9 28.9,7.1 30.9,12.9 37,13 32.1,16.6 33.9,22.5 28.9,19 23.9,22.5 25.7,16.6 20.7,13 				
					"/>
				<path class="st6" d="M28.9,19c0-0.1,0-3.4,0-3.4l3.2,1 M30.9,12.9l-2,2.7V7.1 M20.7,13l8.1,2.6l-3.2,1 M33.9,22.5l-5-6.9L37,13
					 M26.9,12.9l2,2.7l-5,6.9"/>
				<polygon class="st0" points="47.4,12.9 49.4,7.1 51.3,12.9 57.5,13 52.6,16.6 54.4,22.5 49.4,19 44.3,22.5 46.1,16.6 41.2,13 
									"/>
				<polygon class="st6" points="47.4,12.9 49.4,7.1 51.3,12.9 57.5,13 52.6,16.6 54.4,22.5 49.4,19 44.3,22.5 46.1,16.6 41.2,13 
									"/>
				<path class="st6" d="M49.4,19c0-0.1,0-3.4,0-3.4l3.2,1 M51.3,12.9l-2,2.7V7.1 M41.2,13l8.1,2.6l-3.2,1 M54.4,22.5l-5-6.9
					l8.1-2.6 M47.4,12.9l2,2.7l-5,6.9"/>
				<polygon class="st0" points="67.7,12.9 69.7,7.1 71.7,12.9 77.8,13 72.9,16.6 74.7,22.5 69.7,19 64.6,22.5 66.5,16.6 61.6,13 
									"/>
				<polygon class="st6" points="67.7,12.9 69.7,7.1 71.7,12.9 77.8,13 72.9,16.6 74.7,22.5 69.7,19 64.6,22.5 66.5,16.6 61.6,13 
									"/>
				<path class="st6" d="M69.7,19c0-0.1,0-3.4,0-3.4l3.2,1 M71.7,12.9l-2,2.7V7.1 M61.6,13l8.1,2.6l-3.2,1 M74.7,22.5l-5-6.9
					l8.1-2.6 M67.7,12.9l2,2.7l-5,6.9"/>
				<polyline points="76.3,75.9 78.5,75.9 78.5,76.2 77.5,76.2 77.5,78.6 77.2,78.6 77.2,76.2 76.3,76.2 76.3,75.9 				"/>
				<path d="M81.1,78.6V77c0-0.1,0-0.4,0-0.7h0l-0.8,2.3h-0.4l-0.8-2.3h0c0,0.2,0,0.6,0,0.7v1.6h-0.4v-2.7h0.5l0.8,2.3h0l0.8-2.3
					h0.5v2.7H81.1"/>
			</g>
		</g>
	</g>
</g>
</svg>
