<?xml version="1.0" encoding="utf-8"?>
<!-- Generator: Adobe Illustrator 19.1.0, SVG Export Plug-In . SVG Version: 6.00 Build 0)  -->
<svg version="1.1" id="Layer_1" xmlns="http://www.w3.org/2000/svg" xmlns:xlink="http://www.w3.org/1999/xlink" x="0px" y="0px"
	 viewBox="0 0 400 400" style="enable-background:new 0 0 400 400;" xml:space="preserve">
<style type="text/css">
	.st0{fill:#FDC176;}
	.st1{fill:#00B5D8;}
	.st2{fill:#F1EFED;}
	.st3{fill:#AFB0B2;}
</style>
<path d="M361.6,259.1c0-0.5-4.6-3.1-7.8-7.4c-7.7-10.3-12.7-44.9-12.2-50.3c7.2,0.3,12.9-1.5,12.9-3.8c0-0.7-3.6,0.6-6.9-3.6
	c-4.4-5.4-9.7-29.6-10.9-40.6c4.6-0.9,6.4-1.8,6.4-2.9s-2.1-0.8-3.7-2.4c-4.6-4.5-10.1-22.4-12.9-28.8c-2.8-6.5-12.4-25.9-27.6-25.9
	S278,110,271.6,130.8c-4.8,15.7-15.6,31.7-22.3,40H235c0.2-1.2,0.3-2.8,0.3-4.7c0-4.3-2.6-10.7-2.6-11.8c0-0.7,1.3,1,3.9,1
	c0.6,0,0.8-1,0.8-2.3c0-10.7-4.5-14.3-4.5-15.4c0-0.7,2.1-0.2,2.1-0.7c0-4.5-3.3-12.3-6.6-14.3c4.5-1.7,7.5-7.3,7.5-10.1
	c0-0.9-0.5-2.2-0.7-2.2c-0.2,0-2.2,2-8.3,2c-7.1,0-27-10-39.6-10c-8.6,0-16.6,4.6-18,6.1c-1.4,1.6-1.5,2.1-3.4,2.8
	c-1.4,0.5-6.8,3.3-6.8,9.1c0,4.9,3.5,9.3,5.6,11.3c-7.2,0-13.4-0.2-15.9-3.3L148,129c4.1,7.2,12.3,7.4,20.4,7.4
	c6.6,0,14.5,1.6,18.5,2.7c-3.8-0.3-6.6,0.4-8.5,0.4c-4.4,0-6.9-2.6-9.2-2.6c-0.7,0-1.5,0.5-1.3,1.1c1.7,5.3,7.5,7.1,14.5,7.9
	c8.9,1,10.7,1.7,10.6,3.2c-0.4,2.9-1.6,4.1-6,4.4c-4.3,0.3-10.1,4.6-10.1,5.7c0,0.8,2.4,1.4,2.4,1.7c0,0.3-8.5,2.8-11.2,9.7h-14.4
	c-19.1-19.2-28.1-42.6-31.7-52.6c-3.9-10.6-9-24.7-23.9-24.7c-7.9,0-24.2,13-30.2,37.9C64.5,145,61.5,151.1,60,154
	c-0.5,0.9-1.9,2.8-1.9,3.3c0,1.1,1.2,1.4,2.1,1.4c2.8,0,6.9-2.1,6.9-2.1c-3.8,15.2-6.1,34.7-17.1,46.7c-1.7,1.8,3.7,2.2,4.8,2.2
	s5.6-0.6,7.9-3.2c-2.2,8.5-7.6,37.3-13.6,45.4c-3.8,5.1-6.7,7.2-7.2,11.6c4-2.7,8.1-3,10.9-3.5c5.1-0.9,11.4-4.1,15.8-14.7
	c-3.4,24.5-8.6,34.1-13.1,40.2c-2.9,3.9-5.4,10.3-4.7,15.2c2.1-4.4,8.7-8.5,11.7-9.9c12.9-5.9,16.7-17.4,18.1-21.3
	c-2.9,25.9-6,32.8-8.5,37.7s-7.4,12.1-7.4,15.7c0,0.7,0.4,2.5,0.9,2.5s2.5-4.2,11-9.5c10.8-6.7,15.8-13,22.9-42.5
	c1.3,6.6,0.8,19.4,0.7,20.6c6.1-8.2,17.7-25.6,17.7-39.3c0-9.9,0.2-19.7,0.6-20.5c1,2.4,2.5,6.5,6.3,11c0,17.2,0,31.9,0,36
	c0,31.7,30.1,66.4,72.7,66.4S270,308.7,270,277c0-4.4,0-20.9,0-39.6c1,1.2,2.9,3.2,3.7,3.2c2,0,5-8.2,5.2-9.3
	c0.2-1.1,0.7-1.1,0.8-0.3c1.4,20.3,5.9,38.3,16.6,48.7c-0.3-7.9,1.9-15.3,1.4-22c0.5,1.2,2.2,6.8,4.5,19.2c2.3,12.3,9.1,27.4,30,39
	c-12.5-20.9-11.8-36.2-11.9-38.9s-1.3-8-0.8-8c0.4,0,2.1,4.1,3.6,6.7c5.8,10,13.6,14.8,17.5,15.9s12,4.2,15.2,7.7
	c-1-4.5-4.2-8.7-8.6-13.8c-4.4-5.1-13.5-16.6-14.2-41.3C342.4,259.9,361.6,259.6,361.6,259.1z M168.6,131.8
	c-0.3-0.7-0.6-1.6-0.6-2.6c0-0.6,0.3-1.9,1.6-1.9c1.5,0,2.7,2.8,3.4,2.8c1.2,0,2.1-1.9,5.2-1.9c3.7,0,7.4,2.9,9.3,4.8
	C182.5,131.5,175.3,131.7,168.6,131.8z"/>
<path d="M168,170.8h-43.4c0,0,0,94.6,0,106.3c0,31.7,30.1,66.4,72.7,66.4S270,308.7,270,277c0-11.7,0-106.3,0-106.3h-35H168z"/>
<polygon points="197.3,7.6 206.6,34.8 235.5,35.4 212.4,52.6 220.9,80.4 197.3,63.2 173.6,80.4 182.1,52.6 159,35.4 187.9,34.8 "/>
<g>
	<polygon class="st0" points="195.7,47.7 163.4,37.1 182.8,51.9 	"/>
	<polygon class="st0" points="196.8,12.1 188.7,35 196.8,46.2 	"/>
	<polygon class="st0" points="230.9,36.1 206.6,35.6 198.6,46.7 	"/>
	<polygon class="st0" points="197.8,46.1 205.8,35 197.8,12.1 	"/>
	<polygon class="st0" points="196,46.7 187.9,35.6 163.7,36.1 	"/>
	<polygon class="st0" points="198.6,48.6 218.5,76 211.4,52.7 	"/>
	<polygon class="st0" points="198.9,47.7 211.7,51.8 231.2,37.1 	"/>
	<polygon class="st0" points="196.8,49.2 176.9,76.5 196.8,62 	"/>
	<polygon class="st0" points="197.8,49.2 197.8,62 217.7,76.5 	"/>
	<polygon class="st0" points="196,48.6 183.1,52.9 176,76 	"/>
</g>
<polygon points="289.4,7.6 298.7,34.8 327.7,35.4 304.6,52.6 313.1,80.4 289.4,63.2 265.8,80.4 274.2,52.6 251.2,35.4 280.1,34.8 
	"/>
<g>
	<polygon class="st0" points="287.9,47.7 255.5,37.1 274.9,51.9 	"/>
	<polygon class="st0" points="288.9,12.1 280.9,35 288.9,46.2 	"/>
	<polygon class="st0" points="323,36.1 298.8,35.6 290.7,46.7 	"/>
	<polygon class="st0" points="289.9,46.1 298,35 289.9,12.1 	"/>
	<polygon class="st0" points="288.2,46.7 280.1,35.6 255.8,36.1 	"/>
	<polygon class="st0" points="290.7,48.6 310.7,76 303.6,52.7 	"/>
	<polygon class="st0" points="291,47.7 303.9,51.8 323.3,37.1 	"/>
	<polygon class="st0" points="288.9,49.2 269.1,76.5 288.9,62 	"/>
	<polygon class="st0" points="289.9,49.2 289.9,62 309.8,76.5 	"/>
	<polygon class="st0" points="288.1,48.6 275.2,52.9 268.2,76 	"/>
</g>
<polygon points="104.1,7.6 113.4,34.8 142.4,35.4 119.3,52.6 127.8,80.4 104.1,63.2 80.5,80.4 88.9,52.6 65.8,35.4 94.7,34.8 "/>
<g>
	<polygon class="st0" points="102.5,47.7 70.2,37.1 89.6,51.9 	"/>
	<polygon class="st0" points="103.6,12.1 95.5,35 103.6,46.2 	"/>
	<polygon class="st0" points="137.7,36.1 113.4,35.6 105.4,46.7 	"/>
	<polygon class="st0" points="104.6,46.1 112.6,35 104.6,12.1 	"/>
	<polygon class="st0" points="102.8,46.7 94.8,35.6 70.5,36.1 	"/>
	<polygon class="st0" points="105.4,48.6 125.4,76 118.2,52.7 	"/>
	<polygon class="st0" points="105.7,47.7 118.6,51.8 138,37.1 	"/>
	<polygon class="st0" points="103.6,49.2 83.7,76.5 103.6,62 	"/>
	<polygon class="st0" points="104.6,49.2 104.6,62 124.5,76.5 	"/>
	<polygon class="st0" points="102.8,48.6 89.9,52.9 82.9,76 	"/>
</g>
<path class="st1" d="M127.7,266.1c0,4.7,0,8.3,0,9.9c0,30.4,28.9,65.3,69.6,65.3s69.6-34.8,69.6-65.3c0-1.7,0-5.2,0-9.9H127.7z"/>
<path class="st1" d="M266.9,232.4c0-27.8,0-58.4,0-58.4H127.7c0,0,0,30.5,0,58.4H266.9z"/>
<path class="st2" d="M217.5,338.3l-53.8-71.1h-19.3l56,74C206.4,341,212.1,340,217.5,338.3z"/>
<path class="st2" d="M244.2,323.2l-42.3-55.9h-19.3l49.2,64.9C236.3,329.6,240.4,326.5,244.2,323.2z"/>
<path class="st2" d="M262.8,296.7l-22.3-29.4h-19.3l33.5,44.2C258,306.8,260.8,301.8,262.8,296.7z"/>
<path class="st0" d="M250.4,224.3c-3.8-0.9-5.2,2.8-8.3,2.8c-5.4,0-6.5-1.6-11.8-1.6c-4.7,0-5.5,2.2-10.2,2.2
	c-4.4,0-5.7-1.8-8.8-1.8s-6.1,2.1-9.6,2.1c-3.7,0-5.2-2.3-8.8-2.3s-6.3,1.8-10.6,1.8c-4.2,0-5-1.9-9.9-1.9s-4.6,2.2-9.3,2.2
	s-8.3-2.4-10.3-2.4s-6.1,1.2-6.1,1.2l-0.7-1.4c0,0,4.6-1.4,6.8-1.4c2,0,5.6,2.4,10.3,2.4s4.5-2.2,9.3-2.2s5.6,1.9,9.9,1.9
	c4.2,0,7-1.8,10.6-1.8s5.1,2.3,8.8,2.3c3.5,0,6.5-2.1,9.6-2.1s4.5,1.8,8.8,1.8c4.7,0,5.4-2.2,10.2-2.2c5.3,0,6.4,1.6,11.8,1.6
	c3,0,3.9-3.9,8.7-2.7L250.4,224.3z"/>
<path class="st0" d="M240.6,222.7c-2.4,0-4-0.7-6.2-1.2l5.4-7.9l-0.8-0.7l-4.8,3.5l-13.3-0.2l-0.1-5.3c0.9-0.5,2.8-1.4,6.5-1.4
	c5.3,0,11.7,3.2,11.7,3.2s-3.4-4.3-3.4-9.6c0-5.3,2.8-9,2.8-9s-4.4,2.1-9.4,2.1c-4,0-7.4-1.1-8.5-1.5l-0.1-3.2
	c0.3-0.3,1-0.7,2.1-0.7c2,0,2.2,1.2,3.6,1.2c2.5,0,4.2-1.8,4.2-1.8s-1.4,0.3-2.3,0.3c-2.6,0-3.2-2.3-4.9-2.3c-1.4,0-2.4,0.5-2.7,0.7
	l0-0.7h-0.7l-0.2,27.9l-17-0.2l0-1.4c1.1-0.6,3.2-1.5,7.2-1.5c3.4,0,8.2,2.2,8.2,2.2l-3.2-11.4c0,0-6.1-1.6-12.3-1.7l0-0.5
	c0.7-0.5,2.5-1.3,6.1-1.3c2.7,0,6.6,1.8,6.6,1.8l-2.6-9.2c0,0-5.1-1.3-10.1-1.4l0-0.7c0.6-0.4,1.8-0.8,4-0.8c1.9,0,4.6,1.3,4.6,1.3
	l-1.8-6.4c0,0-3.4-0.9-6.8-1l-0.1-6.7h-0.8l0,1c-0.4-0.2-1.3-0.5-2.2-0.5c-2.4,0-3.2,2.2-4.5,2.2c-1.7,0-3.1-0.4-3.1-0.4
	s2.2,1.8,4.3,1.8c1.2,0,2.5-1.2,3.6-1.2c1,0,1.6,0.2,1.9,0.4l-0.1,3.4c-3.4,0.1-6.3,1-6.3,1l-2.2,6.4c0,0,2.3-1.3,5.2-1.3
	c1.6,0,2.6,0.5,3.2,0.9l0,0.6c-4.8,0.1-9,1.4-9,1.4l-3.1,9.2c0,0,3.3-1.8,7.4-1.8c2.1,0,3.6,0.6,4.5,1.1l0,0.7
	c-6,0.1-11.4,1.7-11.4,1.7l-3.9,11.4c0,0,4-2.3,9.2-2.3c2.9,0,4.8,0.9,5.8,1.6l0,1.2l-22-0.3l-0.1-5.6c3.7,0.1,7.6,2.2,7.6,2.2
	l-2-7.2c0,0-2.7-1.1-5.8-1.5l0-1.3c2.5,0.2,5.6,1.9,5.6,1.9l-1.6-5.6c0,0-1.9-0.9-4-1.3l-0.2-10.2h-0.8l0,0.6
	c-0.4-0.1-1.1-0.3-2.2-0.3c-2.6,0-3.3,2.1-4.5,2.1s-3-0.5-3-0.5s1.5,2,4.1,2c1.6,0,1.9-1.2,3.6-1.2c1.2,0,1.8,0.3,2,0.6l-0.1,4.8
	l-2-1.5c-7.6,0-18.6,3.1-23.2,13.1l9.2,8.1c0-10.1,9.1-19.6,14.7-19.6c0.6,0,1.1,0,1.3,0l0,2c-0.1,0-0.1,0-0.2,0c-2.5,0-6,1.7-6,1.7
	l-1.1,5.7c0,0,3.8-2,7.2-2.3l0,1.2c-0.1,0-0.2,0-0.3,0c-3.3,0-7.3,2.4-7.3,2.4l-1.3,6.9c0,0,5.1-2.3,8.9-2.7l-0.1,5.5l-10-0.1
	l-10.6-1.3l-16-6.3l-0.2,0.8l16,6.8l8.1,7.5c-0.6,0.1-1.2,0.1-2,0.1c-4.7,0-7.8-2.4-9.8-2.4c-2,0-5.9,1.4-6.9,1.4l0.2,1.2
	c1,0,4.6-1.3,6.6-1.3c2,0,5.1,2.4,9.8,2.4c5,0,5.7-2.2,9.8-2.2c3.9,0,6.6,2,10.7,2c3.1,0,5.6-1.7,9.6-1.7c4.3,0,6.3,2.3,9.2,2.3
	c3.9,0,4.7-2.1,9.3-2.1c3.9,0,5.7,1.7,8.9,1.7c3.9,0,6.3-2.2,10.3-2.2c5.1,0,6.9,1.7,10.6,1.7c3.4,0,3.4-3,9.4-3l0.5-1.1
	C243.8,219.6,243.9,222.7,240.6,222.7z M220.4,195.3c0.7,1.2,2.2,3.9,2.2,7.5c0,3.7-1.1,6.4-1.8,7.7L220.4,195.3z"/>
<path class="st0" d="M164.9,240.2c0.7,0,1.4,0,1.4,0v-1.4h-6.9l-7.2,15l-7.1-15h-7.3v1.4c0,0,0.9,0,1.6,0c0.7,0,1,0.1,1,2
	c0,0.7,0,15.1,0,15.1c0,1.4-0.3,1.3-1.1,1.3h-1.4v1.3h7.1v-1.3h-1.6c-0.8,0-1.1,0.1-1.1-1.3c0,0,0-10.6,0-14l8.1,16.9h1.1l8-16.8
	l0,13.9c0,1.4-0.3,1.3-1.1,1.3h-1.5v1.3h9.5v-1.3h-1.3c-0.8,0-1.1,0.1-1.1-1.3c0,0,0-14.3,0-15.1C164,240.3,164.2,240.2,164.9,240.2
	z"/>
<path class="st0" d="M194.6,245.2c0-2.8,0.7-5,0.7-5s-3.4-1.5-7.3-1.5c-8.8,0-12.8,5.4-12.8,10.7c0,7.1,5.7,11.4,11.9,11.4
	c4.6,0,7.4-1.9,7.4-1.9l0.6-1.6l-0.4-0.4c0,0-2.2,1.6-6.1,1.6c-6.1,0-8.8-5.6-8.8-9.9c0-5.2,3.9-8.3,8-8.3c3.6,0,5.3,2.1,5.3,2.1
	l0.2,2.6L194.6,245.2z"/>
<path class="st0" d="M249,245.2c0-2.8,0.7-5,0.7-5s-3.4-1.5-7.3-1.5c-8.8,0-12.8,5.4-12.8,10.7c0,7.1,5.7,11.4,11.9,11.4
	c4.6,0,7.4-1.9,7.4-1.9l0.6-1.6l-0.4-0.4c0,0-2.2,1.6-6.1,1.6c-6.1,0-8.8-5.6-8.8-9.9c0-5.2,3.9-8.3,8-8.3c3.6,0,5.3,2.1,5.3,2.1
	l0.2,2.6L249,245.2z"/>
<circle class="st0" cx="171.3" cy="257.9" r="2.3"/>
<circle class="st0" cx="199.6" cy="257.9" r="2.3"/>
<circle class="st0" cx="224.4" cy="257.9" r="2.3"/>
<circle class="st0" cx="254.2" cy="257.9" r="2.3"/>
<path class="st0" d="M211.3,238.8h-0.8h-6.1v1.4c0,0,0.7,0,1.4,0c0.7,0,1,0.1,1,2c0,0.7,0,15.1,0,15.1c0,1.4-0.3,1.3-1.1,1.3h-1.3
	v1.3h9.9v-1.3h-1.9c-0.8,0-1.1,0.1-1.1-1.3c0-3,0-5.4,0-7.2c1.4,0,3,0,3.4,0c1.9,0,2,0.2,2,1c0,0.7,0,1.4,0,1.4h1.4V246h-1.4
	c0,0,0,0.7,0,1.4c0,0.7-0.1,1-2,1c-0.4,0-2,0-3.4,0l0-7.8c0.8,0,3.3,0,4,0c1.4,0,3,0,3,1.3c0,1.3,0,1.8,0,1.8h1.3
	c0-2.5,0.4-4.9,0.4-4.9H211.3z"/>
<path class="st0" d="M182.9,170.8c0.3-1.7,1.2-3.9,2.1-5.7c-1.4,0.8-3.8,1.9-7.4,2.6c1.3-0.2,8.6-4.8,9-5.5c0,0-1.4,0-2.6,0
	c-5,0-10.8,2.4-13.8,8.6H182.9z"/>
<path class="st0" d="M204.5,170.8c-0.1-2.5-1.3-5.9-2-7.5c-0.5,2.6-1.6,5.7-2.2,7.5H204.5z"/>
<path class="st0" d="M199.5,170.8c1.2-2.7,1.7-5.5,1.9-7.2c-1.2,1.7-4,5.1-10.6,7.2H199.5z"/>
<path class="st0" d="M222.6,170.8c-1.1-2.6-4-7-5.8-9.8c-0.8-0.7-1.4-1.3-1.8-1.5c0,0,0.5,3,0.5,4.3c0,2.3-0.4,4.5-2.4,7H222.6z"/>
<path class="st0" d="M223.8,170.8h4.6c-1.3-2.2-3.9-4.2-5.5-4.7c-0.6-0.2-1.5-0.9-2.5-1.7C221.6,166.4,222.9,168.8,223.8,170.8z"/>
<path class="st0" d="M224.8,152.2c0,0,4.4,0.2,4.9,1.3c0.6,1,3.3,6.4,3.3,12.6c0,3.6-0.6,3.8-1.1,3.8s-4.6-2.9-4.6-2.9
	s0.9-1.9,0.9-4.7C228.2,160,226.9,155.4,224.8,152.2z"/>
<path class="st0" d="M150.9,131.3c7.1,2.5,11.2,1.5,17.3,1.5s17.6,1.1,22,2.5c1.1,0.5,3.9,3.1,5.1,3.4c-6.4-1.3-14.7-3.4-25.8-3.4
	C164.5,135.4,154.9,135.3,150.9,131.3z"/>
<path class="st0" d="M192.1,119.1c0-0.8-1.4-1.4-3.5-1.6c0.1,0.3,0.2,0.6,0.2,1.1c0,1.5-0.9,2.7-2.7,2.7c-1.1,0-2.1-0.8-2.1-1.6
	c0-0.3,0.2-0.7,0.5-0.8c0.3-0.1-0.2,0.5,0.9,0.5c0.3,0,0.7,0,0.7-0.7c0-0.4-0.9-0.9-1.5-1.2c-2.3,0.1-3.8,0.6-3.8,1.2
	c0,1.7,2.7,4,6.2,4C191.9,122.7,192.1,120.3,192.1,119.1z"/>
<path class="st0" d="M276.8,209.6c-1.3-0.7-3.7-3.8-4.9-5.1c1.4,7.7,3.1,23.2,2.3,25.6c-0.4-2-2-16.6-3.6-24.4
	c-0.2,0.5-0.4,1.1-0.6,1.6c0,8.3,0,17.2,0,25.8c1,1.6,2.2,3.3,3.6,4.5C279.4,227.2,278.5,213.8,276.8,209.6z"/>
<path class="st0" d="M314,178.3c-0.4-3.7-6.1-32-14.6-53.7c-0.5,1.2-1.2,2.1-2.1,2.5c-0.1,0.8-0.2,1.5-0.3,2.2
	c3.1,10.3,9.8,38.4,10.3,43.7c0.1,3.5-5.3-22.9-11.1-40.9c-0.2,0.4-0.3,0.8-0.5,1.1c-0.9,1.9-1.7,2.9-2.3,3.4
	c3.7,15.9,8.9,38.2,9.8,41.1c1.3,4.2,7,12,7.6,12C311.5,189.7,314.5,182.5,314,178.3z"/>
<path class="st0" d="M326.4,174.2c-0.1-1.8-5-23-7.5-32.1l-1.5-1.3c-2.4-1.9-5.5-6.4-5.5-6.4c2.8,10.7,9.6,36.2,9.3,39
	c-0.1,1.9-4.9-18.4-11.5-42.2l-1.1-1.7c-1.2-1.9-2.2-4.9-3.2-8.1c-0.8-2.5-1.7-5.2-2.4-6.4c-0.9-1.4-1.9-2.8-3-3.7l0.1,0.3
	c0,0.1,0.6,3.3,0.6,6.5c0,1.3-0.1,2.4-0.3,3.5c9.5,22.6,13.6,48.9,15.3,53.9c1.7,5.1,8.4,12.4,8.8,12.4
	C325.2,187.7,327.1,182.9,326.4,174.2z"/>
<path class="st0" d="M292.2,140.4c-0.2,0.8-0.5,1.6-0.7,2.1c-0.7,1.9-1.4,3.1-2,3.8c2,8.5,7.4,33.9,7.5,35.9
	c0.1,2.1-4-19.7-8.6-32.8c-0.7,3.3-2.2,5.7-2.9,6.6c1.5,8.6,4,21.9,4.5,24.2c2.1,8.9,8.3,15.2,8.9,15.2c1.4,0,3.1-10.7,3.1-13.2
	C302.1,178.6,295,150.2,292.2,140.4z"/>
<path class="st0" d="M290.1,190.5c-0.2-3.9-4.3-24.3-6.1-32c-0.6,2.1-1.8,4.3-3.1,6.2c1.9,6.2,5.9,25,5.5,28.5
	c-0.5,0.4-3.7-17.8-6.5-27.1c-0.6,0.8-1.2,1.4-1.7,2c-0.2,0.1-1.6,1.4-1.8,1.4v0c1.1,5.4,3.9,18.7,4.6,21.9
	c0.9,4.1,5.4,11.1,6.2,11.1C288,202.4,290.3,195,290.1,190.5z"/>
<path class="st0" d="M275.4,173.6c-1,1-2.1,2.5-3.1,4.1c0.8,6.1,2.5,18.6,2.3,19.5c-0.2,1.2-2.4-11.9-3.8-17.3
	c-0.3,0.3-0.5,0.7-0.8,1c0,4.6,0,10.5,0,17.1c2.4,5.7,7.2,9.3,7.4,9.3c0.3,0,1.9-3.7,2.2-6.5C280.2,195.5,275.6,170.2,275.4,173.6z"
	/>
<path class="st0" d="M335.1,146.3c-7.1-10.8-13.6-50.1-37.6-50.1c-20.3,0-17,40.2-46.4,74.6h18.4c-0.1-0.4-0.5-0.8-0.5-1.2
	c0-0.1,0.1-0.2,0.4-0.2c0.4,0,2.4,2.4,2.5,3.2c2.6-2,3.4-5.5,3.5-7.2c0.1-1.4-1.1-2.9-1.1-3.9c0-0.3,0-1,0.2-1c0,0,0.1,0,0.1,0.1
	c2.3,2.1,1.7,5.1,2,5.1c0,0,0,0,0,0c1.8-1.1,5.2-7,5.2-9.6c0-2.7-1.4-4.3-1.4-5.3c0-0.2,0.1-0.3,0.3-0.3c1.9,0,2.2,4.5,2.4,4.5
	c0,0,0,0,0,0c0.2-0.3,3-4,3-8.7c0-3.2-1.2-3.9-1.2-5c0-0.2,0.2-0.4,0.4-0.4c1.9,0,1.7,4,2.1,4c0,0,0,0,0,0c0.7-0.1,2.9-5.2,2.9-8.8
	c0-1.2-0.1-2.4-0.3-2.9c-0.2-0.5-1.6-1.4-1.6-2.1c0-0.3,0.2-0.7,0.5-0.7c0.6,0,1.9,1.4,2.1,2.6c0.2,0.9,0.6,1.7,0.8,1.7
	c0.3,0,3-3.7,3-8.5c0-3.4-1.8-4.3-1.8-5.3c0-0.2,0.1-0.6,0.5-0.6s2.3,1.4,2.3,3.7c0,0.6,0.1,1,0.4,1c0.2,0,1.8-1.7,1.8-6.8
	c0-3-0.6-6-0.6-6s-1.8-1.3-1.8-2.6c0-0.8,1-2.1,1.7-2.1c3.2,0,5.6,3,7.7,6.2c1.9,2.9,3.6,11.2,5.7,14.5c0.4-6,1.5-8.2,1.8-8.2
	c0.3,0-0.4,2.4-0.4,4.7c0,2.3,1.2,9.4,6.8,14.3c-0.2-0.5-0.4-2.6-0.4-4.4c0-1.2,0.3-2.2,0.6-2.2c0.1,0,0.3,0.2,0.3,0.8
	c2.4,15.2,14.6,19.3,17.3,19.3s4.1-1,4.1-1S337.4,150,335.1,146.3z"/>
<path class="st0" d="M165.9,130c-0.1-0.6-0.2-1.1-0.2-1.5s0.5-4,4.6-4c1.4,0,2.1,2.6,3.6,2.6c1.5,0,1.1-1.2,4-1.2
	c5.1,0,9.9,4.6,14.7,8.3c4.8,3.7,10.6,4.5,18.1,11.2c0,0,0,0.9-0.3,0.9c-2.4-2.6-10.7-5.6-16.1-5.6c-5.3,0-10.9,1-14.7,1s-7-1-9-2.4
	c1.6,2.2,2.7,3.3,3.6,3.6c2.9,0.8,10.1,1.6,12.9,1.9c16.1,1.9,18.1,6,18.1,7.2c0,0.4,0,1-0.2,1c-0.1,0-2-3.4-4.5-3.4
	c-0.6,0,1.5,2.1,1.5,3.6c0,0.6-0.3,1.4-0.3,1.4c-1.1-3.6-3.6-5.2-4-5.2c-0.5,0,0.7,0.3,0.7,2.9c0,1.4-0.8,2.3-0.8,2.3
	c-0.7-4.5-3-6-3.6-6c-0.5,0,0.3,0.1,0.3,1.8c0,2.7-3.2,4.7-5.5,4.9c-4.2,0.3-8.6,2.8-8.6,3.4c0,0.8,3.7,2,6,2c2.2,0,3.8-0.3,3.8-0.3
	l0.1,0.3c-2.3,1.5-5.8,7.6-5.8,9.4c0,0.3,0.5,0.3,1.6,0.3c3.2,0,9.4-2.1,11-3.6c3.9-3.4,5.1-7.1,6-7.1c0.8,0,0.4,1.1,0.7,2.4
	c0.5,3,1.9,4.7,1.9,7.4c0,0.5-0.1,0.9-0.2,1.3h5.2c1.7-1.8,3.2-3.6,3.2-6.8c0-7.7-2.7-8-3.2-10.8c5.8,6.2,13.9,11.9,15.1,11.9
	c0.9,0,0.8-3,0.8-4.3c0-5.1-3.4-9.2-5.4-10.3c-1.4-0.8-3.1-2.1-3.1-2.7c0-0.1,0.3-0.3,0.9-0.3c0.6,0,5.9,3.3,6.9,3.3
	c0.3,0,0.4-0.1,0.4-0.5c0-1.7-2.2-3.8-2.4-4.5c-0.2-0.6-0.2-1-1-1.8s-2.4-2.7-2.4-3.3c0-0.2,0.1-0.3,0.3-0.3c0.1,0,2,1.3,4.5,4.8
	c1,1.4,1.9,2.9,2.2,3.9c0.3,1.1,0.8,1.7,2.5,1.7c2,1.7,4.6,2.3,5.1,2.3c0.5,0,0.6-0.4,0.6-0.6c0-12.8-7.3-16.2-7.3-16.8
	c0-0.5,3.3-0.5,4.7-0.5c0-1.6-1.4-8.1-3.4-9.9c-2.5-2.2-7.6-3.1-9.4-3.5c-1.8-0.4-6-1.8-6.2-2.2c2.1-0.1,6,1.8,9.9,1.8
	c8.1,0,9.8-6.4,9.8-8c-1.6,0.7-4.2,1.2-5.5,1.2c-8.4,0-27-10.4-40.7-10.4c-8.5,0-15.5,4.2-15.9,4.9c-1.2,2.3-2.7,3.5-3.6,3.9
	c-5,1.9-5.8,5.1-5.8,7.8C161.9,127.3,165.3,129.5,165.9,130z M208.2,167.4c-0.1-6.4-1.3-6.9-1.3-9.2c0-0.8,0-2.1,0.1-2.1
	c0.1,0,1,1.2,1,1.2C208.1,159.2,209.2,162.2,208.2,167.4z M222.6,159.3c-3-2.1-3.1-4.6-7.5-8.3v-0.7
	C217.1,151.4,221.3,156.5,222.6,159.3z M169.8,113.9c1.2,0,1.5-0.6,1.6-1.2c0.2-1.3,2.2-3,6.1-4.5c0.4,0.5-0.9,0.9-1.9,1.5
	c-1.1,0.7-2.7,3-2.7,3.6c0,0.8,4.4,3.3,5.4,3.3c1.3,0,5.9-1.8,8.3-2.7s6.7-1.9,8.8-1.9c3.3,0,2.6,0.7,2.2,0.7c-5.6,0-7.9,2.7-9.9,3
	c5.4,0,11.6,5.1,11.6,5.7c0,0.2-0.1,0.3-0.3,0.3c-0.4,0-1.9-1.7-5.3-3.2c0,0,0.2,0.8,0.2,1.5c0,3.2-4.1,3.3-3.4,3.8
	c1.2,1,1.9,0.3,8.4,7.7c4.3,4.9,9.2,8.5,14.5,8.5c1.4,0,3.2-0.1,3.2-0.7c0-0.6-2-2.4-7.5-6c0,0,0.2,0,0.2-0.3
	c1.6,0.9,10.3,4.4,12.1,4.4c1.8,0,3-0.8,3-1s-0.9-2.4-2.7-4c-5.9-5.1-7.9-4.6-8.9-4.6c0.3-0.2,0.3-0.8,0.3-0.8
	c0.8,0,3.7,1.3,8.3,1.3c0.8,0,1-0.2,1-0.7c0-1.1-2.2-2.8-5.4-4.8c-2.7-1.6-3.8-1.4-3.8-1.8c0-0.2,0.5-0.2,1.1-0.2
	c2.4,0,7.9,4.1,8.3,5.1c0.4,1,2.2,2.6,3,3c0.8,0.3,3.1,1.5,4,3.2c-1.1-0.8-4.9-3.3-5.6-3.3c-0.9,0-1.7,0.8-2.6,0.8
	c-0.3,0-0.6-0.2-0.7-0.2c-0.1,0-0.3,0.1-0.3,0.3c0,0.5,5.3,4.1,5.3,7.7c0,1.2-2.7,0.8-2.7,1c0,0.4,7.3,4.4,8.2,8.5
	c-7-7.5-13.6-9-13.8-9s-0.3,0.1-0.3,0.3c0,0.5,1.3,1.5,1.3,2.4c0,0.4-0.5,1-3.4,1c-7.6,0-15.3-7.2-18.5-11c-3.2-3.8-6.5-7-11.5-7
	c-3.7,0-5.9-4.1-5.9-5.1c-1.8,0-2.1-0.7-2.7-0.7c-0.2,0-0.4,0.1-0.4,0.7s0.5,0.7,0.5,1.9c0,0.6-0.2,1.7-0.2,2c4.2,0,7.6,2.3,9.1,3.9
	c-3.4-1.9-6.4-3-7.4-3c-1.8,0-1.8,0.4-2.8,0.4c-0.3,0-0.6-0.1-0.6-0.6s0.3-0.5,0.3-2.3c0-3.5-3.3-6.1-5.4-6.1c-1,0-1.1,1-1.8,1
	c-0.1,0-0.3-0.1-0.3-0.4C167.6,114.9,168.4,113.9,169.8,113.9z M169.7,117.8c1.7,0,2.2,1,2.2,1.6c0,1.4-0.8,1.5-1.5,1.5
	c-0.4,0-1-0.4-1.6-0.4c-2.3,0-2.7,1.6-2.8,1.5C165.5,121.4,167.9,117.8,169.7,117.8z"/>
<path class="st0" d="M333.6,154.1c-0.9-0.3-1.9-0.7-3-1.2c1.4,5.8,6,25.7,7.4,33.2l-0.9-1c-0.1-0.8-6.7-26.1-8.7-33.5
	c-2.4-1.6-4.9-3.8-6.9-6.8c11.9,55.3,19.8,54.5,23.3,55.3c3.4,0.8,5.6-1.5,5.6-1.5C344.8,197.3,340.9,188.8,333.6,154.1z"/>
<path class="st0" d="M339,199.6C339,199.6,339,199.6,339,199.6c-1.5-1.3-3.2-3.4-5-6.7c-0.5-0.9-1-1.9-1.5-3
	c0.9,10,4.9,29.7,8.1,47.6c-2.1-7.8-9.5-44-10.2-52.5c-0.7-1.7-1.3-3.5-2-5.5c-0.2,4.7-1.1,8.1-2.3,9.3c-0.2,0.2-0.4,0.4-0.6,0.5
	c0.8,7.8,4.3,42.3,6.1,48c2,6.5,8.3,16.9,24.1,19.7C348,252.8,341.9,226,339,199.6z"/>
<path class="st0" d="M334,264.6c-2.3-10.8-8.8-62.6-9.9-75c-0.7-0.1-1.8-0.8-5-5c-0.6-0.8-1.3-1.7-2-2.7c3.5,23.2,8.1,68.5,7.6,78.7
	c-0.5-5.3-5.7-56.8-9.3-76.3c-0.8,3-2,5.7-2.7,6.5c-0.6,0.6-1.2,0.8-1.6,0.8c-0.4,0-0.8,0-1.4-0.5c0.9,10.4,6.3,60.4,9.6,71.9
	c7.3,25.5,26.7,28.1,32.3,31.6C349.1,288.2,338.4,284.8,334,264.6z"/>
<path class="st0" d="M319.7,294c-1.3-4.7-10.9-92-12.6-105.7c-0.4-0.5-0.8-1.2-1.3-1.9c-0.5-0.7-1.2-1.8-1.8-2.9
	c-0.1,1.8-0.5,4.4-1,6.8c-0.3,1.2-0.5,2.3-0.7,3.1c2.4,13.7,8,72.4,8.5,79.9c-4.1-24.2-8-68.2-9.4-77.6c-0.6,1.3-1.4,1.8-2.4,1.8
	c-1.3,0-3.8-2.4-6-5.9c0.7,5.7,1.6,22,3.5,38.1c2.1,17.4,4.9,32.9,5.9,40c1.8,12.5,8.6,33,24.6,40.6
	C326.3,309.6,321.1,298.9,319.7,294z"/>
<path class="st0" d="M291.1,198.1c-0.7,2.6-1.5,4.9-2.3,5.6c-0.6,0.6-1.3,0.7-1.6,0.7c-0.3,0-0.6,0-1.1-0.3c0.5,8.5,4.4,43,5.2,52
	c-1.7-5.2-6.1-46.3-6.9-53.7c-0.5-0.7-1.2-1.7-2-3.1c-0.2-0.4-0.6-1-1-1.7c0.1,1.5,0.1,2.7,0.1,3.4c-0.2,1.9-0.9,3.8-1.2,4.8
	c-0.4,1.1-0.8,2-1.3,2.7c2.1,14.4,2.9,55.2,15.2,64.8c-0.4-1.7,0.1-11.6,1-19.7C296.4,242.8,292.3,206.5,291.1,198.1z"/>
<path class="st0" d="M126.6,164c0.5,0,0,1.1,0,3c0,1.4,0.4,2.8,1.1,3.8h22.6c-7.5-7.5-12.8-16.1-19-26.7
	c-8.6-14.7-15.3-48.2-32.7-48.2c-19.1,0-27.3,30.4-29.9,40.4c-2.5,10-6.6,17.2-7.6,18.4c-0.9,1.2-0.5,1.4,0.5,1.4
	c6.4,0,18.8-11.6,18.8-22.7c0-1.3-0.3-2.7,0.3-2.7c1,0,0.6,4.2,1.1,4.2s4.2-4.1,4.2-9.3c0-2.7-1.8-3.8-0.3-3.8
	c0.8,0,1.5,4.5,1.5,6.5c1.3,0,2.1-0.5,2.3-1.3c0.2-0.9,1-0.9,1-1.7c0-9.3,3.8-19.6,6.9-19.6c1.7,0,2.7,1,2.8,1.2
	c0.2,0.3,0.2,1,0.2,1.9c0,1-3.4,3.4-3.4,4.5c0,3.2,0,7.7,1.9,8.9c0.8,0.4,1-3.6,2.9-3.6c1.4,0-1.5,1.4-1.5,5.4
	c0,4.8,3.5,9.9,3.8,9.9s1.1-2.7,2.2-2.7s-1,2.2-1,5.6c0,3.4,3,8.2,4.5,8.2c0.5,0,0.6-4,2.3-4c0.6,0-0.6,1.8-0.6,3.5
	c0,5.3,3.7,10.3,5.1,10.3c0.4,0,1.2-3.4,2.1-3.4c0.9,0-0.5,2.1-0.5,3.8c0,5,6.6,11,7.2,11C125.8,166.3,126.1,164,126.6,164z"/>
<path class="st0" d="M124.7,174.4c-0.4,1.7-2,13.2-4,18.3c1.3-7.1,3.4-22.8,2.8-24c-1.5-1.1-2.7-3.2-3.4-3.2
	c-1.2,3.6-4.8,19.9-4.8,25.5c0,4.3,3.5,13.4,4.7,13.4c1.3,0,3.4-3.9,4.7-6.5C124.7,187.5,124.7,178.9,124.7,174.4z"/>
<path class="st0" d="M116.5,157.9c-0.6,3.4-4.1,20.8-6.7,27c1.4-7,4.5-21.6,5.1-27.4c-2-1.1-3.6-4.1-3.8-4.1
	c-0.3,0-5.9,24.6-5.9,28.2s2.5,13.8,3.4,13.8c1.9,0,6-10.6,6.6-13.6c0.5-3.1,3.2-17.1,3.2-17.9C118.5,162.9,116.3,159,116.5,157.9z"
	/>
<path class="st0" d="M107,146.5c-1.2,6.6-5.6,25.4-7.9,27.9c3.3-9.9,5.7-23.8,6.5-29.7c-1.5-2.3-2-4.8-2.3-4.8
	c-0.5,0-7.7,25.9-9.2,33.4s1.2,17.1,1.6,17.6c1.4,1.4,11.9-16.8,14.2-42.5C108.8,148,107.8,147.3,107,146.5z"/>
<path class="st0" d="M99.5,131.4c-1.6,7.1-6.8,26.4-10.4,32.9c5.1-15.7,9.3-30,9.7-39.3c-2.2-1.1-3.9-4.8-3.9-8s1.8-6.8,3.1-7.7
	l-0.5-0.6c-4.8,2.3-4.9,12.2-3.8,16.9c-2.1,9.3-11.6,37.8-12,39.4c-0.7,2.9,1.2,19.1,2.1,19.1c0.9,0,5.9-6.2,7.8-10.5
	c2.2-4.9,10.9-33.9,10.9-37.3C101.1,134.4,100.1,133.2,99.5,131.4z"/>
<path class="st0" d="M91,129.8c-0.5,0.3-1.6,1-2.1,1c-2.6,0-1.9,1.1-1.9,1.9c0,0.7-0.5,2-3.4,4.3c-1.2,1-1,0.8-1.1,2
	c-0.2,1.2-6.3,25-16,47.4c3.5-11.2,9.2-24.2,14.6-46.4c0,0-2.9,9.2-9.9,14.6c-0.8,0.6-1.3,0.6-1.6,2.1c-0.3,1.5-7.1,31.6-12.4,41.5
	c-1.4,2.6-3.7,3.7-4.4,4.4c-0.5,0.5,1.7,1,2.8,1c6.2,0,14.8-10.6,19.3-23.4C79.5,167.5,91,129.8,91,129.8z"/>
<path class="st0" d="M124.6,202.2c-1.8,3-3.1,4-4.2,4.1l0,0c-3.7,17.7,0.4,27,4.2,31.8C124.6,226.3,124.6,213.4,124.6,202.2z"/>
<path class="st0" d="M115.3,200c0-0.1-0.1-0.2-0.1-0.3c-1.3,9.8-5.5,47.4-8.7,62.7c0.4-2.4,5.9-55.9,7.2-67.9
	c-0.1-0.7-0.2-1.3-0.3-2c-1.6,3.3-2.9,4.5-4,4.8c-1,6.5-5.8,38.4-6.8,46.6c-1.4,10.9-1.1,28-0.4,38.9c3.6-4.1,10.3-17.6,11.2-21.5
	c2-8.8,3.7-40.4,5.4-55.2C117.9,205.4,116.8,203.9,115.3,200z"/>
<path class="st0" d="M104.7,190.4c-0.1-0.6-0.3-1.3-0.5-2c-1.8,10-9.6,60.5-15.7,81.7c0.8-2.6,13.4-72.1,14.4-86.3
	c-1.1,2.3-2,4-2.6,5.1c-1.8,3-2.9,3.9-3.9,4.1c-2.8,11.5-13.4,70.2-14.9,80.6c-1.6,10.9-3.5,21.2-8.4,32.1c-1.2,2.7-4.8,5.4-5.3,8.8
	c0,0,8.3-3.8,11.2-6.5c9.9-9.4,13.2-18.9,15.7-28.6c2.4-9.4,11.9-68.9,13-82.1C106.7,196.7,105.8,195,104.7,190.4z"/>
<path class="st0" d="M75.4,256.3C77,251.6,88,194.7,90.8,179c-0.8,1.2-1.5,2.1-1.9,2.7c-2.8,3.6-3.9,4.3-4.6,4.4
	c-3.5,14.5-14.5,59.9-15.8,67c-1.4,7.4-4.4,17.8-8.2,24.5c-2.4,4.2-7,7.8-7.3,12.6c0.9-1.3,6.2-4.6,8.9-5.6c6.2-2.3,9.9-6.5,14.6-16
	c8-16.3,11.9-46.3,17.7-76.7c-0.8-1.5-2-6.2-2.3-11.2C90,191,80.6,243.5,75.4,256.3z"/>
<path class="st0" d="M62.5,236c5.4-18.6,11.1-42,13.9-54c-2.6,6.8-6.6,13.6-11,18.1c-1.9,7.4-9.1,34.9-10.8,40.4
	c-3,9.4-7.1,10.3-9.5,15.2c0,0,4.1-1.2,6.3-1.6c6.8-1.3,9.7-3.9,12.8-8.9c6.8-10.8,15.8-49.7,17.7-60.5c-0.8-1.6-1.5-6.2-1.9-10.7
	C77.9,184.2,66.3,231,62.5,236z"/>
<path d="M197.3,335.6c-26.5,0-56.4-7.9-70.6-14.9c-18.1-8.9-19-14.1-28-14.1c-5.7,0-6.5,3.8-6.5,9.3c0,11-3.7,20.5-3.7,20.5
	s-2.4-0.8-8.8-0.8c-23.8,0-44.5,22.4-40.1,20.9c1.9-0.7,7.6-3.3,11.5-3.3c10.6,0,18.7,4.7,18.7,5.6c0,0.4-7.4,6.2-16.7,18.1
	c-2.6,3.4-6.6,8.2-6.6,10.7c0,0.5,0.1,1.1,0.5,1.1S61.2,377,81.6,377c8.5,0,21.8,2.7,28.5,2.7c6.6,0,11.5-1.1,12.4-5
	c0.9-3.9,0.3-5,2.4-10.9c17.2,6.1,48.9,16.3,72.4,16.3c45.1,0,54.3-4.7,74.5-12.3c0,0,1.7,6.9,2.6,9.1c0.9,2.2,1.4,4.7,15.8,4.7
	c8,0,13.5-2.1,25.6-2.1c16.1,0,28.9,8.5,34.6,13c3.5,2.5-4.2-9.7-6.5-12.6c-8.2-10.9-16.8-17.6-16.8-18.3c0-0.5,9-5.5,17.7-5.5
	c3.7,0,8.9,1.9,11.1,2.9c1.4,0.6-0.1-1.9-2.2-4.1c-2.1-2.1-19.8-16.8-37-16.8c-5,0-6.7,0.5-6.7,0.5s-2.6-5.8-2.6-12.6s1-10.2,1-12.6
	s-2.4-4.7-6.5-4.7c-10.9,0-13,7.1-38.2,16.1C251.6,329.2,230.5,335.6,197.3,335.6z"/>
<path class="st2" d="M197.3,337.8c-26.6,0-54-6.9-73.3-16.6c-11-5.6-19.1-12.6-24.9-12.6c-4.1,0-4.6,2.5-4.6,4.4
	c0,1.8-0.2,12.9-3.2,22c-1.5,4.4-5.5,13.9-5.5,15c0,0.3,0.1,0.6,0.5,0.6c0.5,0,1.4-0.7,3.7-0.7c5.3,0,11.5,4.3,28.2,10
	c17.2,5.9,53.5,18,79.2,18c26.9,0,43.4,0.5,73.3-11.2c15.3-6,28.6-16.2,37.2-16.2c3.2,0,4.3,1.9,4.6,1.9c0.3,0,0.4-0.2,0.4-0.4
	c0-5-6.9-16.9-6.9-25.5c0-7.4,0.4-12.2,0.4-13c0-0.8-1.6-2.4-4.7-2.4c-6.6,0-17,7.6-24.2,11.1C270.8,325.1,240.5,337.8,197.3,337.8z
	"/>
<path class="st2" d="M87.3,338.6c0,0-2.4-1-7.8-1c-7.3,0-20.8,3.7-34.1,14.1c-1.2,0.9,3.5-0.7,6-0.6c11.3,0.5,21.6,6.8,21.6,7.3
	c0,0.6-13.9,11.9-23,25.7c-0.5,0.8,3.8-2.2,5.7-3c6.9-2.9,15.2-5.9,26-5.9c11.6,0,17.6,2.5,28.1,2.5c5.7,0,10.5-0.6,10.5-3
	c0-4-8.4-5.7-19.2-7.8c-4.7-0.9-18.1-2.1-18.1-12.9C83,346.9,87.3,338.6,87.3,338.6z"/>
<path class="st2" d="M310.7,340.2c0,0,2.4-0.4,5-0.4c12.9,0,25.7,7.3,35.4,15.1c0.5,0.4-3.9-0.6-7.3-0.6c-9.7,0-19.4,6.4-19.4,6.8
	s15.1,13.3,22.6,26.3c0.6,1-4.4-2.9-9.8-4.9c-2.6-1-10.6-5-23.3-5c-8.1,0-21.6,2.2-27.4,2.2c-5.7,0-10.4-1.9-10.2-3.4
	c0.3-2.8,4.7-5.5,14.8-6.6s23.3-3.7,23.3-18.1C314.3,346.8,310.7,340.2,310.7,340.2z"/>
<path class="st3" d="M273.9,366.9c8.7-3.1,24.7-14.6,34-14.6c3.2,0,3.7,2,3.7,3.9c0,4.3-4.5,9.4-18.9,11.5c-5,0.7-11.4,1.2-17.5,5
	C274.6,373,273.9,367.7,273.9,366.9z"/>
<path class="st3" d="M123.1,363.5c-7.2-1.6-25.2-11.6-32.8-11.6c-3.2,0-4.8,1.3-4.8,4c0,7.6,13.2,8.7,20.2,10.2
	c7,1.5,11,1.5,15.3,5.1C121.2,371.3,122.2,365.3,123.1,363.5z"/>
<path d="M116.6,329.2c-0.1,0.3-0.9,0.9-2.4,1.7l-0.2-0.1c-0.1-0.1-0.1-0.4,0-0.8c0.2-0.9,0.2-1.6-0.1-2.3c-0.3-0.7-0.8-1.2-1.4-1.4
	c-0.6-0.2-1.3-0.2-1.9,0.1c-0.6,0.3-1.1,0.8-1.3,1.4c-0.2,0.5-0.2,1-0.1,1.7c0.1,0.6,0.5,1.8,1.3,3.4c0.8,1.6,1.2,2.8,1.3,3.6
	c0.1,0.8,0,1.5-0.2,2.1c-0.5,1.4-1.6,2.5-3.3,3.1c-1.6,0.6-3.3,0.6-5,0c-1.4-0.5-2.4-1.3-3-2.2c-0.7-1-0.9-1.7-0.8-2.1
	c0.1-0.2,0.5-0.7,1.3-1.3c0.8-0.6,1.2-0.9,1.3-0.9c0.3,0.1,0.4,0.2,0.5,0.4c0.1,0.2,0,0.5-0.1,0.9c-0.3,1.3-0.4,2.3-0.1,2.9
	c0.3,0.7,0.9,1.1,1.6,1.4c0.8,0.3,1.7,0.3,2.6-0.1c0.9-0.4,1.4-0.9,1.7-1.7c0.1-0.4,0.2-0.9,0.1-1.4c-0.1-0.5-0.5-1.6-1.2-3.1
	c-0.7-1.5-1.1-2.7-1.2-3.6c-0.1-0.9,0-1.7,0.3-2.4c0.5-1.2,1.4-2.2,2.7-2.9c1.3-0.7,2.8-0.7,4.3-0.2c1.2,0.4,2.1,1.1,2.6,1.9
	C116.5,328.2,116.7,328.8,116.6,329.2z"/>
<g>
	<path d="M126.3,347.2c-1.5,0.6-2.7,0.9-3.6,1.1c-0.9,0.2-1.7,0.1-2.2-0.1c-0.6-0.3-1-0.7-1.1-1.3c-0.1-0.6,0-1.4,0.3-2.2
		c-1.3,0.6-2.4,1-3.3,1.1c-0.9,0.2-1.7,0.1-2.3-0.2c-0.6-0.3-1-0.7-1.2-1.3c-0.2-0.6-0.1-1.4,0.3-2.3c0.7-1.6,2.2-3.7,4.6-6.3
		l3.5,0.7c-2.9,3.2-4.6,5.4-5.1,6.5c-0.3,0.8-0.2,1.3,0.4,1.5c0.4,0.2,1.1,0,2-0.4c0.9-0.4,1.5-0.8,1.9-1.3l3.7-4.4l3.6,0.7
		c-1.8,2.1-3,3.5-3.7,4.4c-0.7,0.8-1.1,1.5-1.3,1.9c-0.3,0.7-0.2,1.2,0.3,1.4c0.4,0.2,1.2,0,2.3-0.4l1.4-0.5L126.3,347.2z"/>
	<path d="M134.4,343.9c0.8-0.5,1.6-0.8,2.2-0.9c0.6-0.1,1.3-0.1,1.9,0.1c0.8,0.3,1.4,0.9,1.7,1.7c0.3,0.8,0.2,1.7-0.1,2.7
		c-0.7,1.8-1.9,3.2-3.7,4.2c-1.8,1-3.4,1.3-4.9,0.8c-0.4-0.1-0.7-0.3-0.9-0.5c-0.2-0.2-0.4-0.5-0.7-1c-1.5,2.3-2.7,4.2-3.4,5.7
		l-3.3-0.6c2-3.5,4.1-7.1,6.5-10.6c-1.6,1-2.6,1.6-3.1,1.8l-0.3-0.1l0.4-1.1c2.2-1.1,4.2-2.6,6.1-4.6l3,0.5L134.4,343.9z
		 M130.6,349.8c0.2,0.8,0.5,1.4,1,1.5c0.8,0.3,1.8-0.1,2.9-1.1c1.1-1,1.9-2.1,2.3-3.3c0.2-0.6,0.3-1.2,0.2-1.6
		c-0.1-0.5-0.4-0.8-0.8-0.9c-0.3-0.1-0.7-0.1-1.2,0.1c-0.5,0.2-0.8,0.4-1.2,0.7c-0.3,0.3-0.8,0.9-1.3,1.7L130.6,349.8z"/>
	<path d="M148.8,354.9c-1.4,0.7-2.6,1.1-3.6,1.3c-1,0.2-2,0.1-3-0.2c-1.1-0.4-1.9-1-2.4-2c-0.4-0.9-0.5-2-0.1-3.1
		c0.6-1.7,1.7-3.1,3.4-4.1c1.7-1,3.3-1.2,4.7-0.8c0.8,0.3,1.3,0.6,1.6,1.2c0.3,0.5,0.4,1.1,0.2,1.8c-0.6,1.7-2.9,2.4-6.8,2.3
		c-0.2,1.7,0.4,2.8,1.8,3.2c0.5,0.2,1.1,0.2,1.7,0.1c0.6-0.1,1.6-0.5,2.9-1.2L148.8,354.9z M143,350.6c2.3,0.1,3.7-0.6,4.3-2.2
		c0.3-0.8,0.1-1.3-0.5-1.5c-0.5-0.2-1.2,0.1-2,0.7C144.1,348.3,143.5,349.2,143,350.6z"/>
	<path d="M158.1,357.8c-2.7,1.4-4.6,1.9-5.8,1.6c-0.5-0.2-0.9-0.5-1.1-1c-0.2-0.5-0.2-1.1,0-1.7c0.4-1.2,1.5-2.5,3.3-4.1
		c-0.7,0.1-1.5,0.1-2.2,0c-0.8,0.8-2,1.6-3.5,2.4l-0.3-0.1l0.3-1.1c0.9-0.5,1.7-1,2.4-1.6c-0.6-0.5-0.8-1.1-0.6-1.7
		c0.2-0.6,0.6-1.2,1.3-1.8c0.7-0.6,1.4-0.8,2.1-0.5c0.6,0.2,0.9,0.6,0.7,1.3c-0.2,0.5-0.6,1.2-1.3,2c1.4,0.3,3-0.4,4.6-2l1.2,0.3
		l-2.1,2.8c-0.9,1.2-1.5,2-1.8,2.4c-0.3,0.4-0.5,0.8-0.6,1.2c-0.1,0.3-0.1,0.6,0,0.9c0.1,0.3,0.3,0.4,0.6,0.5c0.3,0.1,0.6,0.1,1,0
		c0.3-0.1,1.1-0.5,2.4-1.1L158.1,357.8z"/>
	<path d="M169.5,360.8c-0.7,0.5-1.5,0.6-2.4,0.3c-0.7-0.2-1.3-0.7-1.8-1.5c-1.2,0.8-2.2,1.3-3,1.6c-0.8,0.3-1.6,0.3-2.5,0.1
		c-0.7-0.2-1.3-0.7-1.6-1.4c-0.3-0.7-0.4-1.5-0.1-2.4c0.5-1.7,1.6-3.9,3.5-6.6c1.8-2.6,3.5-4.6,4.9-5.8c1.2,0,2.3-0.1,3.2-0.1
		c0.9,0,1.4,0,1.5,0.1c0.2,0.1,0.4,0.3,0.5,0.6c0.1,0.4,0.1,0.8,0,1.2c-0.3,0.9-1,1.9-2.1,2.9c-1.1,1-2.5,2-4.1,2.9l-2.1,1.2
		c-1,1.7-1.6,2.9-1.9,3.8c-0.1,0.5-0.1,0.9,0,1.2c0.1,0.3,0.4,0.6,0.7,0.7c0.4,0.1,0.8,0.1,1.2-0.1c0.4-0.2,0.9-0.5,1.4-0.9
		c-0.2-0.8-0.2-1.6,0-2.3c0.3-1.2,1-2.2,1.9-3.1c0.9-0.8,1.8-1.2,2.5-1c0.3,0.1,0.5,0.3,0.6,0.6c0.1,0.3,0.1,0.7,0,1.1
		c-0.4,1.4-1.7,3-3.9,4.9c0.3,0.7,0.8,1.1,1.3,1.3c0.4,0.1,0.7,0.1,1,0c0.3-0.1,0.8-0.4,1.5-0.9L169.5,360.8z M164.6,352.4
		c1.7-0.9,3.1-1.9,4.1-2.8c1-0.9,1.6-1.7,1.8-2.2c0.1-0.2,0.1-0.4,0-0.6c-0.1-0.2-0.2-0.3-0.3-0.3
		C169.1,346.2,167.3,348.1,164.6,352.4z"/>
	<path d="M175.9,362.3c-2.5,1.6-4.2,2.3-5.2,2c-0.5-0.1-0.9-0.5-1.2-1.1c-0.2-0.6-0.3-1.4-0.1-2.2c0.4-1.8,1.6-4.1,3.6-6.9l3.4,0.1
		l0.2,0l-2.2,3.6c-0.9,1.5-1.5,2.6-1.6,3.3c-0.1,0.3-0.1,0.5,0,0.7c0.1,0.2,0.2,0.3,0.4,0.4c0.3,0.1,0.7,0,1.1-0.1
		c0.4-0.2,1-0.5,2-1.2L175.9,362.3z M178.7,349.5c-0.5,2-1.5,2.8-3,2.5c-0.7-0.2-1.3-0.5-1.7-1.1c0.7-0.6,1.2-1.4,1.7-2.2
		c0.6,0.6,1.1,0.9,1.5,1C177.7,349.8,178.2,349.8,178.7,349.5z"/>
	<path d="M189.9,365c-1.6,1-2.7,1.7-3.4,2c-0.7,0.3-1.3,0.4-1.8,0.3c-1.4-0.2-1.8-1.5-1.2-3.9c-1.1,1-2,1.8-2.9,2.2
		c-0.8,0.4-1.6,0.6-2.4,0.4c-0.8-0.1-1.3-0.6-1.7-1.4c-0.4-0.8-0.5-1.7-0.3-2.7c0.2-1.3,0.8-2.4,1.7-3.4c0.9-1,2-1.8,3.2-2.3
		c1.2-0.5,2.3-0.7,3.1-0.5c1.1,0.2,1.7,0.8,2,1.9l2.9-0.9l0.7,0.1l-1.8,3.5c-0.9,1.8-1.5,3-1.6,3.7c-0.1,0.7,0.1,1.1,0.6,1.2
		c0.3,0.1,0.7,0,1.2-0.3c0.5-0.3,1.1-0.7,2-1.3L189.9,365z M180.3,363.9c0.9,0.2,1.8-0.4,2.8-1.7c1-1.3,1.7-2.5,1.9-3.8
		c0.1-0.5,0.1-0.9-0.1-1.2c-0.2-0.3-0.4-0.5-0.8-0.6c-0.9-0.2-1.8,0.4-2.8,1.7c-1,1.3-1.7,2.5-1.9,3.7c-0.1,0.5,0,0.8,0.1,1.2
		C179.7,363.7,180,363.9,180.3,363.9z"/>
</g>
<path d="M208.8,351.6c-0.8,0.4-1.6,0.6-2.3,0.6c-0.4,0-0.9-0.1-1.4-0.2c-0.5-0.2-1-0.3-1.2-0.3c-0.6,0-1.2,0.3-1.7,0.8
	c-0.5,0.5-0.7,1.1-0.7,1.7c0,0.6,0.3,1,0.9,1.4c0.3,0.2,0.4,0.4,0.4,0.5c0,0.3-0.1,0.6-0.5,1c-0.3,0.4-0.6,0.6-0.9,0.6
	c-0.3,0-0.7-0.2-1-0.7s-0.5-1-0.5-1.5c-0.1-1.3,0.5-2.6,1.7-3.9c1.2-1.3,2.4-2,3.6-2c0.4,0,0.8,0.1,1.4,0.3c0.6,0.2,1.1,0.3,1.5,0.3
	c0.5,0,0.9-0.2,1.3-0.5c0.2-0.1,0.3-0.2,0.4-0.2c0.1,0,0.3,0.1,0.5,0.2c0.2,0.1,0.3,0.3,0.3,0.4c0,0.1-0.2,0.4-0.6,0.9
	c-0.7,0.8-1.1,1.6-1.3,2.5c-0.2,0.9-0.4,2.3-0.6,4.1c-0.2,1.9-0.4,3.4-0.7,4.6c-0.3,1.2-0.7,2.3-1.4,3.2c-0.6,1-1.4,1.7-2.3,2.2
	c-0.9,0.5-1.9,0.8-3,0.8c-1.3,0.1-2.4-0.2-3.2-0.8c-0.8-0.6-1.2-1.1-1.3-1.7c0-0.3,0.3-0.8,0.9-1.3c0.6-0.6,1-0.8,1.2-0.9
	c0.2,0,0.4,0.1,0.5,0.3c0.1,0.2,0.1,0.5,0.1,0.9c0,0.8,0.2,1.3,0.6,1.8c0.4,0.4,0.8,0.7,1.4,0.6c0.8,0,1.5-0.5,2-1.4
	c0.5-0.9,0.9-2.5,1.2-4.7c0.3-2.3,0.7-4,1.2-5.3C205.9,354.8,207.1,353.3,208.8,351.6z"/>
<path d="M223.7,363.3c-1.7,2.3-3.3,3.5-4.7,3.7c-0.6,0.1-1.1-0.1-1.4-0.4c-0.4-0.4-0.6-0.9-0.7-1.5c-0.1-0.9,0.1-2.3,0.6-4.3
	c0.3-1,0.4-1.7,0.4-2c0-0.3-0.2-0.4-0.4-0.4c-0.1,0-0.3,0.1-0.5,0.2c-0.2,0.1-0.4,0.3-0.6,0.6c-0.2,0.2-0.4,0.5-0.6,0.8
	c-0.2,0.3-0.4,0.6-0.6,0.9l-0.6,0.9c-0.3,0.4-0.4,0.8-0.4,1.3c0,0.7-0.1,1.4,0,2c0,0.5,0.1,1.1,0.2,1.8l-2.7,1
	c-0.2-1.1-0.4-2-0.4-2.5c-0.2-1.4-0.2-2.7,0-3.9c0.2-1.3,0.5-2.7,1.1-4.3l3-1c-0.4,1.8-0.7,3.3-0.8,4.3c1.2-1.7,2.2-2.9,2.9-3.6
	c0.7-0.7,1.4-1.1,2.1-1.2c0.4-0.1,0.8,0.1,1.1,0.4c0.3,0.3,0.5,0.7,0.6,1.2c0.1,0.8-0.1,2.2-0.6,4.2c-0.4,1.3-0.5,2.2-0.5,2.6
	c0.1,0.5,0.3,0.7,0.7,0.7c0.6-0.1,1.5-1,2.7-2.8L223.7,363.3z"/>
<path d="M240.8,347.7c-0.4,0.6-0.7,1.3-0.8,2c-0.1,0.7,0,2.1,0.2,4.3c0.2,2.1,0.2,3.9-0.2,5.2c-0.3,1.3-1,2.5-2.1,3.6
	c-1.1,1.1-2.3,1.8-3.8,2.1c-1.1,0.2-2,0.2-2.8-0.2c-0.8-0.4-1.3-1-1.5-1.8c-0.1-0.3,0-0.6,0.1-0.8c0.1-0.2,0.5-0.6,1-1.1
	c0.5-0.5,0.9-0.7,1.1-0.8c0.1,0,0.3,0,0.4,0.1c0.1,0.1,0.2,0.2,0.2,0.3c0,0.1,0,0.4,0.1,1c0,0.6,0.1,0.9,0.1,1
	c0.2,1,0.8,1.4,1.6,1.2c0.9-0.2,1.6-0.9,2-2.2s0.5-3.1,0.2-5.5c-0.2-2.4-0.2-4.2,0.2-5.3c0.4-1.1,0.9-1.9,1.6-2.5
	c0.7-0.6,1.2-0.9,1.5-1C240.1,347.3,240.4,347.4,240.8,347.7z M237.7,345c1.8-0.4,3.3-0.3,4.5,0.3c1.2,0.6,2,1.6,2.3,3.1
	c0.3,1.3,0.2,2.5-0.4,3.4c-0.6,1-1.2,1.5-1.7,1.6c-0.2,0-0.5,0-0.8-0.1c-0.3-0.1-0.5-0.3-0.5-0.4c0-0.1,0.1-0.4,0.4-1
	c0.7-1.3,0.9-2.6,0.6-3.7c-0.2-0.9-0.7-1.6-1.5-2c-0.8-0.4-1.7-0.5-2.8-0.2c-1.6,0.4-3,1.2-4.1,2.5c-1.1,1.3-1.5,2.5-1.2,3.7
	c0.2,0.8,0.7,1.2,1.4,1.4c0.3,0.1,0.5,0.2,0.5,0.4c0.1,0.2-0.2,0.6-0.8,1c-0.6,0.4-1,0.7-1.2,0.7c-0.4,0.1-0.8-0.1-1.2-0.5
	c-0.4-0.4-0.7-0.9-0.9-1.5c-0.4-1.6,0.1-3.3,1.5-5.1C233.3,346.8,235.2,345.6,237.7,345z"/>
<path d="M255.1,356.1c-1.5,2.6-2.9,4-4,4.3c-0.5,0.1-1,0-1.4-0.3c-0.5-0.3-0.8-0.8-0.9-1.4c-0.3-1.2-0.1-2.9,0.6-5.2
	c-0.5,0.5-1.1,0.9-1.8,1.2c-0.3,1.1-0.8,2.4-1.7,3.9l-0.3,0.1l-0.3-1.1c0.5-0.8,0.9-1.7,1.2-2.6c-0.8-0.1-1.3-0.5-1.4-1.1
	c-0.2-0.6-0.1-1.4,0.1-2.2c0.2-0.8,0.7-1.4,1.5-1.6c0.6-0.2,1.1,0.1,1.2,0.7c0.1,0.5,0.2,1.3,0,2.4c1.3-0.5,2.2-1.9,2.7-4.1l1.1-0.4
	l-0.3,3.5c-0.1,1.5-0.2,2.5-0.2,3c0,0.5,0,1,0.1,1.3c0.1,0.3,0.2,0.6,0.5,0.8c0.2,0.2,0.5,0.2,0.7,0.1c0.3-0.1,0.6-0.3,0.8-0.5
	c0.2-0.3,0.7-1,1.4-2.2L255.1,356.1z"/>
<path d="M266.3,352.5c-0.3,0.5-0.6,0.9-1,1.2c-0.3,0.3-0.6,0.5-0.9,0.5c-0.6,0.2-1.2,0.1-2-0.1c-0.6,2.2-1.7,3.5-3.2,4
	c-0.9,0.3-1.8,0.2-2.6-0.3c-0.8-0.5-1.4-1.4-1.8-2.5c-0.6-1.9-0.4-3.7,0.4-5.4s2.3-2.9,4.1-3.5c0.7-0.2,1.2-0.3,1.6-0.3
	c0.4,0,0.6,0.2,0.8,0.3c0.1,0.2,0.3,0.4,0.4,0.7c0.5,1.5,0.7,3.5,0.5,6c0.5,0.3,1,0.3,1.5,0.2c0.5-0.2,1.1-0.9,1.6-2.1L266.3,352.5z
	 M260.1,347c-0.1,0-0.3,0-0.5,0.1c-1.1,0.3-1.7,1.2-2,2.5c-0.2,1.3-0.1,2.7,0.3,4.2c0.3,0.8,0.6,1.4,1,1.8c0.4,0.4,0.8,0.5,1.3,0.3
	c0.6-0.2,1-0.9,1.4-2.2c-1.1-0.7-1.8-1.6-2.1-2.7C259,349.6,259.2,348.3,260.1,347z"/>
<path d="M275.5,349c-0.6,1.4-1.3,2.5-1.9,3.2c-0.6,0.8-1.4,1.4-2.4,1.7c-1.1,0.4-2.1,0.4-3,0c-0.9-0.4-1.6-1.2-2-2.4
	c-0.6-1.7-0.6-3.5,0-5.3c0.7-1.8,1.7-3,3.1-3.5c0.7-0.3,1.4-0.3,2-0.1c0.6,0.2,1,0.6,1.2,1.3c0.6,1.7-0.6,3.7-3.8,6
	c0.9,1.4,2,1.9,3.4,1.4c0.5-0.2,1-0.5,1.4-1c0.4-0.5,0.9-1.4,1.5-2.7L275.5,349z M268.4,349.1c1.8-1.4,2.5-2.8,1.9-4.4
	c-0.3-0.8-0.7-1-1.3-0.8c-0.5,0.2-0.9,0.8-1.1,1.8C267.7,346.7,267.9,347.8,268.4,349.1z"/>
<path d="M283.6,345.4c-0.6,1.4-1.3,2.6-1.9,3.4c-0.6,0.8-1.3,1.4-2,1.7c-0.8,0.4-1.7,0.3-2.5-0.1c-0.8-0.4-1.4-1.2-1.9-2.3
	c-0.7-1.6-1.2-3.8-1.5-6.4c-0.3-2.6-0.4-5.1-0.2-7.5l2.5-2.4c0.1-0.1,0.1-0.1,0.2-0.1c0.2-0.1,0.5,0,0.8,0.3
	c0.3,0.3,0.6,0.7,0.8,1.3c0.7,1.6,1,3.3,0.9,5.1c-0.1,1.8-0.5,3.9-1.4,6.3c0.3,0.8,0.5,1.4,0.6,1.7c0.3,0.7,0.7,1.2,1.1,1.5
	c0.4,0.3,0.8,0.3,1.3,0.2c0.4-0.2,0.8-0.5,1.1-1.1c0.3-0.5,0.8-1.5,1.4-2.9L283.6,345.4z M277,342.8c0.5-1.5,0.8-3.1,0.8-4.8
	c0-1.6-0.2-3-0.6-3.9c-0.1-0.3-0.3-0.5-0.4-0.6c-0.2-0.1-0.3-0.2-0.4-0.1c-0.3,0.1-0.4,1-0.3,2.7C276.1,337.7,276.4,340,277,342.8z"
	/>
<path d="M283.3,330.9c0.9,1.8,0.7,3.1-0.6,3.8c-0.7,0.3-1.3,0.4-2,0.2c0.1-0.9,0.1-1.8-0.1-2.8c0.8,0.1,1.4,0,1.7-0.2
	C282.8,331.8,283.1,331.4,283.3,330.9z M289.4,342.5c-0.8,2.8-1.7,4.4-2.6,4.8c-0.5,0.2-1,0.2-1.6-0.1c-0.6-0.3-1.1-0.9-1.5-1.6
	c-0.8-1.6-1.4-4.2-1.7-7.6l2.6-2.1l0.1-0.1l0.7,4.2c0.3,1.7,0.6,2.9,0.9,3.5c0.1,0.3,0.3,0.4,0.5,0.5c0.2,0.1,0.4,0.1,0.5,0
	c0.3-0.1,0.5-0.4,0.7-0.8c0.2-0.4,0.4-1.1,0.7-2.1L289.4,342.5z"/>
<path d="M299.9,336.1c-0.2,0.6-0.4,1-0.6,1.4c-0.3,0.4-0.5,0.6-0.7,0.7c-0.5,0.3-1.2,0.5-1.9,0.4c0,2.2-0.7,3.8-2.1,4.6
	c-0.8,0.5-1.7,0.6-2.6,0.3c-0.9-0.3-1.7-1-2.4-2c-1-1.6-1.4-3.4-0.9-5.4c0.4-1.9,1.4-3.4,3.1-4.4c0.6-0.4,1.1-0.6,1.5-0.7
	c0.4,0,0.6,0,0.8,0.1c0.2,0.1,0.4,0.3,0.5,0.6c0.9,1.4,1.5,3.2,2,5.7c0.6,0.1,1.1,0,1.5-0.2c0.5-0.3,0.8-1.1,1.1-2.4L299.9,336.1z
	 M292.4,332.3c-0.1,0-0.3,0.1-0.5,0.2c-0.9,0.6-1.4,1.6-1.3,2.9c0.1,1.3,0.6,2.6,1.4,4c0.5,0.7,0.9,1.2,1.4,1.5
	c0.5,0.3,0.9,0.3,1.4,0c0.5-0.3,0.8-1.2,0.8-2.5c-1.2-0.4-2.1-1.1-2.8-2.1C292.1,335.1,292,333.8,292.4,332.3z"/>
</svg>
