<?xml version="1.0" encoding="utf-8"?>
<!-- Generator: Adobe Illustrator 19.1.0, SVG Export Plug-In . SVG Version: 6.00 Build 0)  -->
<svg version="1.1" id="Layer_1" xmlns="http://www.w3.org/2000/svg" xmlns:xlink="http://www.w3.org/1999/xlink" x="0px" y="0px"
	 viewBox="0 0 160 160" style="enable-background:new 0 0 160 160;" xml:space="preserve">
<style type="text/css">
	.st0{fill:#FFFFFF;stroke:#FFFFFF;stroke-width:0.554;stroke-miterlimit:3.864;}
	.st1{fill:#231F20;}
	.st2{fill:#28B4E9;stroke:#28B4E9;stroke-width:1.700000e-02;stroke-miterlimit:3.864;}
	.st3{fill:#EF402E;}
	.st4{fill:#BBBDBF;}
	.st5{fill:#F0B83C;}
	.st6{fill:#28B4E9;stroke:#FFFFFF;stroke-width:1.700000e-02;stroke-miterlimit:3.864;}
	.st7{fill:#FFFFFF;}
</style>
<g id="g2737" transform="matrix(1.25,0,0,-1.25,0.4220794,1050.562)">
	<g id="g3315" transform="matrix(16.894363,0,0,16.894363,-8191.9172,-546.25294)">
		<path id="path2981" class="st0" d="M490.5,77.3C490.5,77.3,490.5,77.3,490.5,77.3C490.5,77.3,490.5,77.3,490.5,77.3z"/>
		<path id="path2983" class="st0" d="M490.5,77.3"/>
		<path id="path2985" class="st0" d="M490.5,77.3C490.5,77.3,490.5,77.3,490.5,77.3C490.5,77.3,490.5,77.3,490.5,77.3z"/>
		<path id="path2999" class="st1" d="M490.5,77.3C490.5,77.3,490.5,77.3,490.5,77.3C490.5,77.3,490.5,77.3,490.5,77.3"/>
		<path id="path3001" class="st1" d="M490.5,77.3C490.5,77.3,490.5,77.2,490.5,77.3"/>
		<path id="path3003" class="st1" d="M490.5,77.3C490.5,77.3,490.5,77.3,490.5,77.3C490.5,77.3,490.5,77.3,490.5,77.3"/>
		<path id="path3005" class="st1" d="M491.7,76.9c-0.1,0.1,0,0.3-0.2,0.3c-0.2,0-0.3-0.1-0.5-0.1c-0.1-0.1,0-0.1,0-0.2
			c0-0.1,0.1-0.1,0.1-0.2c0,0-0.1,0-0.1,0c0,0-0.1,0-0.1,0c-0.1,0-0.2,0-0.3,0c0-0.1-0.1,0-0.1,0c-0.1,0-0.3,0-0.4-0.1
			c-0.1-0.1,0-0.2,0-0.2c-0.2-0.1-0.4-0.1-0.6-0.1c-0.1,0-0.1,0-0.2,0c-0.2,0-0.4-0.1-0.6-0.1l0,0c0,0,0,0,0,0
			c0.1,0.2,0.3,0.3,0.5,0.4c0,0,0.1,0,0.1,0c0,0,0.1,0,0.1,0.1c0.2,0.1,0.3,0.2,0.4,0.4c0,0,0,0.1,0,0.1c0,0,0,0.1,0,0.1
			c0-0.1,0-0.2,0.1-0.3c0.1-0.1,0.3-0.1,0.4-0.1c0.2,0.1,0.3,0.3,0.3,0.5c0,0,0,0,0,0.1c0,0,0,0.1,0,0.1c0,0,0.1,0,0.1,0.1
			c0,0,0,0,0,0c0,0-0.1,0.1,0,0.1c0,0,0,0,0.1,0.1c0,0-0.1,0-0.1,0c0,0,0,0,0,0c0.1,0,0.2,0,0.3-0.1c0.1-0.1,0-0.3,0-0.4
			c0,0,0-0.1,0-0.1c0,0.1,0.1,0.1,0.2,0.2l0,0c0,0.1,0,0.1,0,0.2c0,0,0,0,0,0v0c0,0,0,0.1,0,0.1c0,0,0,0,0,0c0,0,0,0-0.1,0.1
			c0,0.1-0.1,0.1-0.1,0.1l0,0c0,0,0,0.1,0,0.1c0,0-0.1,0-0.1,0c0.1,0.1,0,0.2,0.1,0.3l0,0c0,0.1,0,0.1,0,0.2c0,0,0,0,0,0
			c0,0.1-0.1,0.1-0.1,0.2c0,0,0,0,0,0c0,0-0.1,0.1-0.1,0.1c0,0,0,0,0,0c0-0.2,0.1-0.3,0-0.5c0,0,0-0.1-0.1-0.1
			c0-0.1-0.1-0.2-0.2-0.2c0,0,0,0,0,0c0,0,0,0.1,0,0.1c0,0-0.1,0-0.1,0.1c0,0,0,0.1,0,0.1c0,0,0,0,0,0c0,0-0.1,0.1-0.1,0.1
			c0,0,0,0.1,0,0.1c0,0-0.1,0-0.1,0.1c0,0.1,0,0.1,0,0.2c0,0.2,0.3,0.2,0.3,0.3c0,0,0.1,0,0.1,0c0,0,0,0,0,0c0,0,0,0.1,0,0.1
			c0,0,0,0,0.1,0c0,0,0,0,0,0c0,0,0,0-0.1,0c0,0,0,0,0,0c0,0,0,0,0,0c0,0,0,0.1,0,0.1h0c0,0,0,0,0,0.1c0,0,0,0,0,0c0,0,0,0,0,0
			c-0.1,0,0,0.1-0.1,0.1c0,0,0,0,0,0.1c0,0,0,0,0,0c0,0,0,0,0,0c0,0,0,0,0,0c0,0,0,0.1,0,0c0,0.1,0,0-0.1,0c0,0,0,0,0,0.1
			c0,0,0,0-0.1,0l0,0c0,0,0,0-0.1,0c-0.1-0.1,0,0-0.1,0.1c0,0,0,0,0,0c0,0,0-0.1,0-0.1c0,0,0,0,0,0c0,0,0,0.1-0.1,0.1c0,0,0,0,0,0
			c0,0,0-0.1,0-0.1c0,0,0,0-0.1,0c0-0.1,0-0.1,0-0.1c0,0-0.1-0.1-0.1-0.1c0-0.1-0.1-0.1-0.2-0.2c-0.1,0-0.1-0.1-0.1-0.2
			c0,0,0.1,0,0.1,0c0,0,0,0,0,0c0,0,0,0,0,0c0,0,0,0,0,0c0,0,0,0,0,0c0,0,0.1,0,0.1,0c0,0,0.1,0,0.1,0v0c0.1,0,0.1,0.1,0.1,0.1
			c0,0,0,0,0.1,0c0-0.1-0.1-0.1-0.2-0.1c-0.1-0.1-0.2-0.2-0.2-0.3c0,0,0-0.1,0-0.1c-0.1,0.1-0.1,0.2-0.1,0.3c0,0-0.1,0-0.1,0
			c-0.1-0.1-0.2-0.1-0.3-0.1l0,0c0,0,0,0.1,0,0.1c0,0-0.1,0-0.1,0c-0.1,0-0.1,0-0.1,0c0,0,0,0,0,0.1c0,0,0,0.1,0,0.1
			c0,0,0,0.1,0,0.1c0,0,0,0,0,0c0,0.1,0,0.2,0,0.2c0,0,0,0.1,0,0.1c0,0,0,0,0,0c0,0,0,0,0,0c0.1,0,0.1,0.1,0.1,0.1c0,0,0,0,0,0
			c0,0,0,0.1,0,0.1l-0.1,0l0,0c0,0.1,0,0.1,0,0.1c0,0,0.1,0,0.1,0c0,0,0,0,0-0.1c0,0,0,0,0,0c0,0,0,0.1-0.1,0.1c0,0,0-0.1,0-0.1
			c0,0,0.1,0,0.1,0c0,0,0,0,0.1,0.1c0,0.1,0.1,0,0.1,0c0.1,0,0,0.1,0,0.1c0,0,0,0,0,0.1c0,0,0,0-0.1,0c0,0,0-0.1-0.1-0.1l0,0.1
			c0,0,0,0-0.1,0.1c0,0,0,0,0,0c0,0,0,0,0,0c0-0.1-0.1,0-0.1-0.1c0,0-0.1-0.1-0.1-0.1c-0.1,0-0.1-0.1-0.1-0.2c0,0,0,0,0-0.1
			c0,0,0,0,0,0.1c0,0,0,0.1,0,0.2c0,0.1,0.1,0.1,0.1,0.2c0,0.1,0,0.1,0,0.1c0,0,0,0,0,0c0,0,0,0,0,0c0.1,0,0,0.1,0.1,0.1
			c0,0,0,0,0,0.1c0,0,0,0,0,0c0,0-0.1,0-0.1,0c0,0,0,0,0,0c0,0-0.1-0.1-0.1-0.1l0,0c0,0,0-0.1,0-0.1c0,0,0,0-0.1-0.1
			c0,0,0-0.1-0.1-0.1c0,0.1-0.1,0.1-0.1,0.2c0,0.1-0.1,0.1-0.1,0.2c0.2,0.1,0.4,0,0.7,0c0.3,0,0.7-0.1,1,0.2c0,0,0,0,0,0.1
			c-0.1-0.1-0.2-0.1-0.4-0.1c-0.1,0-0.2,0-0.2,0c-0.2,0-0.3,0.1-0.5,0.2c-0.1,0.1-0.3,0.1-0.4,0.1c0,0,0,0,0,0c0,0,0,0.1,0,0.1
			c0,0,0,0-0.1,0c0,0-0.1,0-0.1,0c0,0,0-0.1,0-0.1c0,0,0,0,0.1-0.1c0-0.2,0-0.4,0-0.5c0,0,0-0.1,0-0.1c0-0.1,0-0.3,0-0.4l0,0
			c0,0,0,0,0,0l0-1c0,0,0,0-0.1-0.1c0,0,0-0.1,0-0.1c0.1-0.1,0.2-0.1,0.2,0l0,0c0,0,0-0.1,0-0.1c0,0,0-0.1,0-0.1
			c-0.1-0.1-0.3-0.1-0.4-0.1c-0.1,0,0,0.1,0,0.1c0,0.1,0,0.1-0.1,0.1c-0.1,0-0.1,0-0.2,0c0,0,0,0.1,0.1,0.1c0,0,0.1,0,0.1-0.1
			c0,0,0-0.1,0.1-0.1c0,0,0-0.1,0-0.1l0,0c0.1,0,0.1,0,0.2,0c0,0.1,0.1,0,0.1,0c0,0,0,0,0,0c-0.1,0.1-0.1,0.1-0.2,0.2
			c-0.1,0.1-0.2,0.1-0.3,0.2c-0.2,0-0.2-0.2-0.3-0.3l0,0c-0.1,0.2-0.2,0.3-0.4,0.4c0,0,0,0-0.1,0.1c0.1,0,0.1-0.1,0.2-0.1
			c0.1,0,0.1,0,0.2,0c0,0,0,0,0,0c0,0,0,0,0,0.1c0,0,0,0,0,0c0,0,0,0,0,0c0,0,0.1,0,0.1,0.1c0,0.1-0.1,0.2-0.2,0.3
			c-0.1,0-0.1,0.1-0.2,0.2c0,0,0,0,0.1,0.1c0,0,0,0.1,0,0.1c0,0,0,0-0.1,0c0,0,0,0.1,0,0.1c0,0,0,0.1,0,0c0-0.1-0.1-0.1-0.1-0.1h0
			c-0.1,0,0,0.1,0,0.1c-0.1,0-0.1,0-0.1-0.1c0,0-0.1,0-0.1,0c0,0,0,0,0,0c0,0,0,0-0.1,0c0,0,0,0,0-0.1c0,0,0,0-0.1,0c0,0,0,0,0,0
			c0,0,0,0,0,0c0,0,0,0,0,0c0,0,0,0,0,0c0,0,0-0.1-0.1-0.1c0,0,0,0,0,0c-0.1,0,0-0.1-0.1-0.1c0,0,0,0,0,0c0,0,0,0,0,0c0,0,0,0,0,0
			c0,0,0-0.1,0-0.1c0,0,0,0,0.1,0c0,0,0,0-0.1,0c0,0,0.1,0,0.1,0c0,0,0,0,0-0.1c0,0,0-0.1-0.1-0.1c0,0,0.1,0,0.1,0
			c0-0.1,0-0.1,0.1-0.2c0.1,0,0.2-0.2,0.2-0.3c0-0.1,0-0.1-0.1-0.2c0,0,0,0-0.1,0c0,0,0,0,0-0.1c0-0.1,0-0.1,0-0.1c0,0,0,0-0.1,0
			c0,0,0.1-0.1,0.1-0.1c0,0,0,0,0-0.1c-0.1,0,0-0.1,0-0.1c-0.1,0-0.2,0.1-0.2,0.2c-0.1,0.1-0.1,0.3,0,0.4c0,0,0,0.1,0,0.2
			c0,0,0,0.1,0,0.1c0-0.1,0-0.1-0.1-0.1c0,0,0,0,0,0c0,0,0,0,0,0c-0.1,0-0.1-0.1-0.1-0.2c0,0,0,0,0,0c0,0,0-0.1,0-0.1
			c0,0,0-0.1,0-0.1c0,0,0,0,0,0v0c0-0.1,0-0.2,0.1-0.3c0,0,0,0-0.1,0c0,0-0.1,0,0,0c0,0,0-0.1,0.1-0.1c-0.1,0-0.1-0.1-0.2-0.2
			c0,0,0,0,0,0c0-0.1,0-0.1,0-0.1c0,0,0,0,0,0c0,0,0,0,0-0.1c0,0,0-0.1,0-0.1c0,0,0,0,0,0c0-0.1,0.1-0.1,0.2-0.2c0,0,0,0,0,0
			c0,0,0,0,0,0c0,0.1-0.1,0.2,0,0.4c0,0.1,0.1,0.1,0.1,0.1c0.1,0,0.2,0,0.2,0c0,0,0,0-0.1,0c0,0,0,0,0,0c0,0,0-0.1,0-0.1
			c0,0,0-0.1-0.1-0.1c0,0,0,0,0,0c0,0,0,0,0-0.1c0,0,0,0,0,0c0,0,0,0,0-0.1c0-0.2,0.1-0.3,0.2-0.4c0.1-0.1,0.4-0.1,0.5-0.1
			c0.1,0,0.2,0.2,0.2,0.3c0,0,0,0,0-0.1c0-0.3,0.3-0.5,0.6-0.6c0.2-0.1,0.4-0.2,0.6-0.4v0c-0.2,0-0.4,0-0.6,0
			c-0.2,0-0.5,0.1-0.7,0.1c-0.1,0-0.1,0-0.2,0.1c0,0.1,0.1,0.2,0,0.3c-0.1,0.1-0.3,0.1-0.5,0.1c-0.1,0.1-0.2,0.1-0.3,0.1
			c0,0,0,0-0.1,0c0,0-0.1,0-0.1,0c0,0.1,0.1,0.2,0.1,0.3c0,0,0,0.1,0,0.1h0c-0.1,0.1-0.2,0.1-0.4,0.1c-0.1,0-0.2,0-0.2-0.1
			c0-0.1-0.1-0.2-0.1-0.3c0-0.1-0.1-0.3-0.1-0.4c0.1-0.2,0.3-0.3,0.4-0.4c0,0,0.1,0,0.1,0c0,0,0.1,0,0.1,0c0-0.1-0.1-0.2,0-0.3
			c0.1-0.1,0.2-0.1,0.3-0.2c0.3-0.1,0.5-0.2,0.8-0.3c0.1,0,0.1,0,0.2,0c0.4-0.1,0.9-0.1,1.3-0.1c0.5,0,0.9,0.1,1.3,0.2
			c0.2,0.1,0.3,0.1,0.5,0.1c0,0,0.1,0,0.1,0c0.2,0.1,0.3,0.1,0.5,0.2c0.1,0.1,0,0.2,0,0.3l0,0c0.1,0,0.1,0,0.2,0.1
			c0.2,0.1,0.4,0.2,0.5,0.4C491.8,76.7,491.7,76.8,491.7,76.9z M490.3,77.6c0,0,0.2-0.2,0.2-0.2c0,0,0.1-0.1,0.1-0.1
			c0,0,0-0.1-0.2-0.1c-0.1,0-0.2,0.1-0.2,0.2C490.1,77.5,490.2,77.5,490.3,77.6z M489.7,78.1c0,0,0,0.1,0,0.1c0,0,0,0,0,0
			s0.1-0.1,0.1-0.2c0,0,0.1-0.2,0.2-0.3c0,0-0.2-0.2-0.2-0.4c0,0,0,0.1,0,0.1c0,0,0,0.1,0,0.1l0,0c0,0,0,0,0,0c0,0,0,0,0,0.1
			c0,0,0,0,0,0c0,0,0,0-0.1,0.1C489.8,77.8,489.7,78,489.7,78.1C489.7,78,489.7,78,489.7,78.1z M489,79C489,79,489,79,489,79
			c0.1,0,0.1,0,0.1,0l0,0l-0.1-0.1c0,0,0,0,0,0s0,0,0,0c0,0,0,0,0.1,0c0,0,0.1,0,0.1,0l0.2,0l0,0c0,0,0,0.1,0,0.1c0,0,0,0,0.1,0
			c0,0,0.1,0.1,0.1,0.1c0,0,0.1,0,0.1-0.1c0,0,0,0.1-0.1,0.1c-0.1,0-0.1,0-0.2-0.1c0,0,0,0,0-0.1c0,0-0.1,0-0.1,0
			c-0.1,0-0.2,0-0.2,0c0,0-0.1,0.1-0.1,0.1C488.9,78.9,489,78.9,489,79z M487.2,77.3c0,0,0-0.2-0.2-0.2c0,0-0.2,0-0.2,0.1
			c0,0.1,0.1,0.2,0.1,0.2c0,0,0.1,0.1,0.1,0.1S487.2,77.5,487.2,77.3C487.2,77.4,487.2,77.4,487.2,77.3z M487.6,77.7
			C487.5,77.7,487.5,77.6,487.6,77.7C487.5,77.6,487.5,77.6,487.6,77.7c-0.1-0.1,0-0.1,0-0.1c0,0,0,0,0,0s0,0,0,0c0,0,0,0,0-0.1
			c0,0,0,0,0,0c0,0,0,0,0,0c0,0,0-0.1,0-0.1s0,0.1-0.1,0.3c-0.1,0.1-0.1,0.1-0.1,0.1s0,0,0,0c0,0,0.2,0.3,0.2,0.3c0,0,0,0.1,0.1,0.1
			c0,0,0.1,0,0.1,0c0,0,0-0.1,0-0.1C487.6,78,487.6,77.7,487.6,77.7z M488.3,80.4C488.3,80.4,488.3,80.4,488.3,80.4
			C488.3,80.4,488.3,80.4,488.3,80.4C488.3,80.4,488.3,80.4,488.3,80.4c0.1-0.1,0-0.1,0.1-0.1c0,0,0,0,0.1,0c0,0,0,0,0,0
			c0,0,0,0-0.1,0c0,0,0,0,0,0L488.3,80.4z M488.5,79.5L488.5,79.5l0-0.2c0,0,0,0,0,0c0,0,0-0.1,0-0.1c0,0,0,0,0,0c0,0,0,0,0,0
			c0,0,0,0.7,0,0.9c0,0,0.1,0,0.1,0v0c0,0,0,0,0,0c0,0-0.1,0-0.1,0v-0.1c0,0,0,0,0.1,0c0,0,0-0.1,0.1-0.1v0c0,0,0,0,0,0c0,0,0,0,0,0
			S488.5,79.5,488.5,79.5"/>
		<path id="path3007" class="st2" d="M488.8,81.3L488.8,81.3c0-0.1-0.1-0.1-0.1,0c0,0,0,0.1,0,0.1C488.7,81.3,488.7,81.3,488.8,81.3
			z"/>
		<path id="path3009" class="st2" d="M488.5,81.3C488.5,81.3,488.5,81.2,488.5,81.3c-0.1-0.1-0.1-0.1-0.2-0.1c0,0,0,0,0,0.1
			c0,0,0,0,0.1,0C488.4,81.3,488.4,81.3,488.5,81.3z"/>
		<path id="path3011" class="st2" d="M488.8,81l0-0.1c0,0-0.1,0-0.1,0c0,0,0,0.1,0,0.1C488.6,81.1,488.7,81.1,488.8,81
			C488.7,81.1,488.7,81.1,488.8,81z"/>
		<path id="path3013" class="st2" d="M488.4,81.1c0,0,0-0.1,0-0.1c-0.1,0-0.1,0-0.2,0V81C488.3,81.1,488.4,81.1,488.4,81.1z"/>
		<path id="path3015" class="st3" d="M488.6,81.3c0,0,0-0.1,0-0.1c0.1,0,0.1,0,0.2,0l0,0c-0.1,0-0.1,0-0.2,0c0,0,0-0.1,0-0.1l0-0.1
			c0,0-0.1,0-0.1,0c0,0,0,0.1,0,0.1c-0.1,0-0.1,0-0.2,0v0.1c0.1,0,0.1,0,0.2,0l0,0L488.6,81.3C488.5,81.3,488.5,81.3,488.6,81.3
			L488.6,81.3"/>
		<path id="path3017" class="st3" d="M489.8,81.1L489.8,81.1L489.8,81.1c-0.1-0.1-0.2-0.2-0.4-0.2c-0.2,0-0.4,0-0.6,0c0,0,0,0,0,0.1
			c0,0.1,0,0.1,0,0.2l0,0C489.1,81.1,489.4,81,489.8,81.1"/>
		<path id="path3019" class="st4" d="M487.2,79.8c0.1-0.1,0.2-0.2,0.2-0.3c0,0,0,0-0.1,0c0,0-0.1,0.1-0.1,0.1c0,0,0,0,0-0.1
			c0,0,0,0,0,0c0,0,0,0,0,0.1c0,0,0,0,0,0.1c0,0,0,0-0.1,0c0,0,0,0.1,0,0.1c0,0,0-0.1-0.1-0.1c0,0-0.1,0-0.1,0c0,0,0,0-0.1,0
			c0,0,0,0.1-0.1,0.1h0c0-0.1,0-0.1,0.1-0.2l0,0c0,0,0,0-0.1,0c0,0,0.1,0,0.1,0c0,0-0.1,0,0,0c0,0,0.1,0,0.1,0v0c0,0,0,0,0,0
			c0,0,0,0,0,0c0,0,0,0,0.1,0c0.2-0.1,0.4-0.3,0.4-0.5c0.1-0.1,0.1-0.2,0.1-0.2c0-0.1,0-0.1,0-0.2c0,0.1,0,0.1,0,0.2
			c0,0,0,0.1,0,0.1c0,0,0,0,0-0.1c0,0,0-0.1,0-0.1c0,0,0,0,0,0c0,0.1,0,0.2,0,0.2c0,0,0,0,0-0.1c0-0.1,0-0.1,0-0.2c0,0,0,0,0-0.1
			c0.1-0.1,0.2-0.2,0.3-0.3c0.1-0.1,0-0.2,0-0.3c0-0.1,0-0.1,0-0.2c0-0.1,0-0.2-0.1-0.3c0,0.1,0,0.2,0,0.2c0,0,0,0,0,0
			c0,0,0-0.1,0-0.1c0,0,0,0.1,0,0.1c0,0,0,0,0,0c0,0,0,0,0,0c0,0,0,0-0.1,0c0,0,0,0,0,0c0,0,0.1,0.1,0.1,0.1c0,0,0,0,0,0
			c0,0,0,0,0,0.1c0,0.1,0.1,0.2,0,0.3c0,0.1-0.1,0.1-0.2,0.2c0,0-0.1,0-0.1,0.1l0,0c0,0,0,0,0,0c0,0,0,0.1-0.1,0.1
			c-0.1,0-0.1,0-0.1,0c0,0,0,0,0,0c0-0.1,0.1,0,0.1-0.1c0-0.1,0.1-0.1,0.2-0.1c0,0,0.1,0,0.1,0c-0.1,0-0.1-0.1-0.2,0
			c-0.1,0-0.1,0-0.2,0c0,0,0,0-0.1,0c0,0-0.1,0.1-0.1,0.1c0,0,0,0.1,0,0.1c0.1-0.1,0.2-0.1,0.3-0.1c0,0,0,0,0,0c0,0-0.1,0-0.1,0
			c0,0-0.1,0.1-0.1,0.1c0,0,0,0.1,0,0.1c0.1,0,0.2,0,0.2,0.1c0,0,0,0.1,0,0.2c0,0-0.1,0-0.1,0c0,0,0.1,0,0.1,0c0,0,0-0.1,0.1,0
			c0,0,0,0.1,0,0.1c0,0,0,0,0,0.1c0,0-0.1,0,0,0.1c0,0.1-0.1,0.1-0.1,0.1c0,0,0,0,0,0c0,0.1-0.1,0-0.2,0.1c-0.1,0.1-0.1,0.3-0.1,0.5
			c0,0.1,0.1,0.1,0.1,0.1c0,0,0.1,0,0.1,0C487.1,79.9,487.1,79.9,487.2,79.8C487.2,79.8,487.2,79.8,487.2,79.8"/>
		<path id="path3021" class="st4" d="M488,79.1c0.1,0,0.1-0.1,0.2-0.1c0,0,0.1-0.1,0.1-0.1c0,0,0,0,0,0c0,0-0.1,0.1-0.1,0.1
			c0,0,0,0,0.1-0.1l0,0c0,0,0,0,0,0c0,0,0,0.1-0.1,0.1c0,0,0,0,0,0l0-0.1l0,0c0,0,0,0.1-0.1,0.1c0,0,0,0,0-0.1c0,0,0,0,0-0.1
			c0,0,0,0,0,0c0,0.1,0,0.1,0,0.2c0,0-0.1,0.1-0.1,0.1c0,0-0.1,0.1-0.2,0c0,0-0.1,0-0.1-0.1l0,0c0-0.1,0-0.2-0.1-0.3
			c0,0,0,0.1,0,0.1c0,0,0,0.1,0,0.1c0,0.1,0,0.1,0.1,0.2c0,0,0,0.1,0.1,0.1C487.8,79.2,487.9,79.1,488,79.1"/>
		<path id="path3023" class="st4" d="M489.7,79.2C489.7,79.2,489.7,79.2,489.7,79.2C489.7,79.2,489.7,79.2,489.7,79.2
			c0.1-0.1,0.1-0.2,0.1-0.2c0,0,0-0.1,0-0.1c0-0.1,0-0.1-0.1-0.2c0,0.1,0,0.2-0.1,0.3c0,0,0,0,0,0.1c0,0,0,0,0,0c0,0-0.1,0-0.1,0
			c-0.1,0-0.1-0.1-0.1-0.1c0,0,0,0,0,0c0,0-0.1-0.1,0-0.1c0,0,0,0,0,0c0,0.1,0,0.1,0,0.1l0,0c0,0,0-0.1-0.1-0.1c0,0,0,0,0,0
			c0,0,0,0.1,0,0.1c0,0,0,0,0,0c0,0-0.1-0.1-0.1-0.1c0,0,0,0,0,0c0,0,0,0,0,0c0,0,0.1,0,0,0.1c0,0-0.1-0.1-0.1-0.1c0,0,0,0,0,0
			c0,0,0,0,0.1,0.1c0,0,0,0,0,0c0,0,0.1,0.1,0.1,0.1c0,0,0,0,0.1,0C489.4,79.1,489.5,79.3,489.7,79.2L489.7,79.2"/>
		<path id="path3025" class="st5" d="M488.6,79C488.6,78.9,488.7,78.9,488.6,79c0-0.1,0-0.1,0-0.2c0-0.1-0.2-0.2-0.2-0.2
			c-0.2-0.1-0.4-0.1-0.5,0c-0.1,0-0.1,0.1-0.1,0.2c0,0,0,0.1,0,0.1c0,0,0,0,0.1,0.1c0,0,0.1,0,0.1,0c0,0,0,0,0-0.1
			c0,0-0.1-0.1,0-0.1c0,0,0,0,0,0c0,0,0.1,0,0.1,0c0.1,0,0.3,0,0.3,0.1c0,0,0,0.1,0,0.1c0,0,0,0,0,0.1C488.5,79,488.5,79,488.6,79
			C488.6,79,488.6,79,488.6,79"/>
		<path id="path3027" class="st5" d="M488.9,79C488.9,78.9,488.9,78.9,488.9,79c0-0.1,0-0.2,0-0.2c0.1-0.1,0.3-0.1,0.5,0
			c0,0,0,0,0,0.1c0,0,0,0.1,0,0.1c0,0,0.1,0,0.1,0c0.1,0,0.1-0.1,0.1-0.2c0-0.1-0.1-0.1-0.2-0.2c0,0,0,0,0,0c-0.2,0-0.5,0-0.6,0.2
			c0,0.1,0,0.2,0,0.2C488.8,79,488.8,79,488.9,79C488.9,79,488.9,79,488.9,79"/>
		<path id="path3029" class="st5" d="M488.7,79L488.7,79c-0.1,0-0.1,0-0.2,0.1c0,0,0.1,0,0.1,0C488.6,79.1,488.7,79.1,488.7,79"/>
		<path id="path3031" class="st5" d="M488.8,79.1C488.8,79.1,488.8,79.1,488.8,79.1l-0.1,0C488.7,79.1,488.8,79.1,488.8,79.1
			C488.8,79.1,488.8,79.1,488.8,79.1"/>
		<path id="path3033" class="st5" d="M488.5,79.1C488.5,79.1,488.5,79.1,488.5,79.1l-0.1,0l0,0C488.4,79.1,488.5,79.1,488.5,79.1"/>
		<path id="path3035" class="st5" d="M489.2,79.1C489.2,79.1,489.2,79.1,489.2,79.1C489.2,79,489.1,79,489.2,79.1
			c-0.1-0.1-0.1,0-0.1,0C489.1,79.1,489.1,79.1,489.2,79.1C489.2,79.1,489.2,79.1,489.2,79.1"/>
		<path id="path3037" class="st5" d="M489,79.1C489,79.1,489,79.1,489,79.1C489,79,489,79,489,79.1c-0.1,0-0.1,0-0.2,0
			C488.9,79.1,488.9,79.1,489,79.1C489,79.1,489,79.1,489,79.1"/>
		<path id="path3039" class="st5" d="M488.4,79L488.4,79c-0.1,0-0.1,0-0.2,0c0,0,0,0,0,0C488.3,79.2,488.3,79.1,488.4,79"/>
		<path id="path3041" class="st4" d="M488.5,80C488.5,80,488.5,80,488.5,80c0.1-0.1,0.1-0.1,0.1,0v0c0,0,0.1,0,0.1,0
			c0,0,0-0.1,0-0.1c0,0,0.1,0,0.1,0v0c0,0,0.1,0,0.1,0c0,0,0,0,0,0c0,0,0,0,0,0c0,0,0,0,0-0.1c0,0-0.1,0-0.1,0c0,0,0,0,0,0
			c-0.1,0-0.2,0-0.3,0c0,0,0,0,0,0.1C488.5,79.9,488.4,79.9,488.5,80C488.4,80,488.4,80,488.5,80c-0.1,0-0.1-0.1-0.1,0
			C488.3,80.1,488.4,80,488.5,80"/>
		<path id="path3043" class="st4" d="M488.8,79.8C488.8,79.8,488.8,79.7,488.8,79.8l-0.3-0.1c0,0,0,0,0,0.1
			C488.6,79.8,488.7,79.8,488.8,79.8L488.8,79.8"/>
		<path id="path3045" class="st4" d="M488.8,79.7l0-0.2c-0.1,0-0.2,0-0.3,0c0,0.1,0,0.2,0,0.2l0,0L488.8,79.7L488.8,79.7"/>
		<path id="path3047" class="st4" d="M488.8,79.4C488.9,79.4,488.8,79.4,488.8,79.4L488.8,79.4l-0.4-0.1c0,0,0,0.1,0,0.1
			C488.6,79.4,488.7,79.4,488.8,79.4"/>
		<path id="path3049" class="st4" d="M488.9,79.3C488.9,79.3,488.9,79.2,488.9,79.3c-0.1-0.1-0.3-0.1-0.4-0.1c0,0,0,0,0,0.1
			C488.6,79.3,488.7,79.3,488.9,79.3"/>
		<path id="path3051" class="st5" d="M488.5,80.4C488.4,80.4,488.5,80.3,488.5,80.4C488.4,80.4,488.3,80.3,488.5,80.4
			c-0.1,0-0.1,0-0.1,0C488.4,80.4,488.4,80.4,488.5,80.4c-0.1,0.1-0.1,0-0.1,0.1C488.3,80.4,488.4,80.4,488.5,80.4
			c-0.1,0.1-0.1,0.1-0.2,0.1l0,0c0,0,0,0.1,0,0.1c0,0,0,0,0,0C488.3,80.6,488.5,80.5,488.5,80.4"/>
		<path id="path3053" class="st5" d="M489.1,80.4C489.1,80.4,489.1,80.4,489.1,80.4c0-0.1-0.1-0.1-0.1-0.1
			C489.1,80.3,489.1,80.3,489.1,80.4C489.1,80.3,489.2,80.3,489.1,80.4C489.2,80.3,489.2,80.4,489.1,80.4c0.1,0,0.1,0,0.1,0
			c0,0,0-0.1-0.1-0.2c0,0-0.1,0-0.1,0c0,0,0,0,0,0c0,0,0,0,0-0.1c0,0,0-0.1,0-0.1h0c0,0,0,0,0.1,0c0,0,0,0.1,0,0.1c0,0-0.1,0-0.1,0
			c0,0-0.1,0-0.1-0.1c0,0,0-0.1,0-0.1c0,0,0,0.1,0,0.2c0,0,0.1,0,0.1,0.1C489,80.4,489.1,80.3,489.1,80.4
			C489.1,80.4,489.1,80.4,489.1,80.4"/>
		<path id="path3055" class="st5" d="M488.5,80.3C488.5,80.3,488.5,80.2,488.5,80.3C488.5,80.2,488.6,80.2,488.5,80.3l0.1,0
			C488.6,80.2,488.6,80.2,488.5,80.3C488.5,80.2,488.5,80.2,488.5,80.3c0-0.1,0-0.1,0-0.1C488.5,80.2,488.5,80.2,488.5,80.3
			C488.5,80.2,488.5,80.2,488.5,80.3c-0.1-0.1-0.1-0.1-0.1-0.1C488.5,80.2,488.5,80.2,488.5,80.3c-0.1-0.1-0.1-0.2-0.1-0.1
			c0,0,0,0,0,0c0,0,0,0,0,0l0,0l0,0c0,0,0,0-0.1,0c0,0,0.1,0,0,0.1c0,0,0,0,0,0c0,0,0,0,0.1,0c0,0,0.1,0,0.1,0
			C488.4,80.3,488.5,80.3,488.5,80.3"/>
		<path id="path3057" class="st5" d="M488.7,80.2c0,0,0-0.1,0-0.1v0c0,0-0.1,0-0.1,0c0,0,0,0,0-0.1l0,0c0,0,0,0.1,0,0.1c0,0,0,0,0,0
			c0,0,0,0,0,0C488.5,80.2,488.6,80.2,488.7,80.2C488.7,80.2,488.7,80.2,488.7,80.2C488.7,80.3,488.7,80.2,488.7,80.2"/>
		<path id="path3059" class="st5" d="M488.8,80.8C488.8,80.8,488.8,80.8,488.8,80.8C488.9,80.8,488.9,80.7,488.8,80.8
			c0.1-0.1,0-0.1,0.1-0.1c0,0,0,0,0,0c0,0,0,0,0,0h0c0,0,0,0,0,0c0,0,0,0,0,0c0,0,0,0,0,0C488.9,80.7,488.8,80.7,488.8,80.8
			C488.8,80.7,488.8,80.7,488.8,80.8C488.8,80.7,488.8,80.7,488.8,80.8C488.8,80.7,488.8,80.8,488.8,80.8
			C488.8,80.8,488.8,80.8,488.8,80.8"/>
		<path id="path3061" class="st5" d="M488.3,80.7C488.3,80.7,488.3,80.6,488.3,80.7c0-0.1,0-0.1,0-0.1
			C488.2,80.6,488.2,80.6,488.3,80.7C488.2,80.7,488.2,80.7,488.3,80.7L488.3,80.7C488.3,80.7,488.3,80.7,488.3,80.7"/>
		<path id="path3063" class="st5" d="M488.7,80.7C488.7,80.7,488.7,80.7,488.7,80.7L488.7,80.7C488.7,80.7,488.7,80.7,488.7,80.7
			C488.7,80.6,488.7,80.6,488.7,80.7C488.7,80.6,488.7,80.6,488.7,80.7C488.7,80.6,488.7,80.6,488.7,80.7
			C488.7,80.6,488.7,80.7,488.7,80.7C488.7,80.6,488.7,80.6,488.7,80.7c0-0.1-0.1-0.1-0.1-0.2c0,0,0,0-0.1,0c0,0-0.1,0-0.1,0
			c0,0.1,0.1,0,0.1,0.1c0,0,0,0-0.1,0l0,0c0,0,0,0,0,0c0,0,0,0,0.1,0C488.6,80.6,488.6,80.6,488.7,80.7
			C488.6,80.6,488.6,80.6,488.7,80.7L488.7,80.7C488.6,80.7,488.6,80.6,488.7,80.7C488.7,80.7,488.6,80.7,488.7,80.7
			C488.7,80.7,488.7,80.7,488.7,80.7"/>
		<path id="path3065" class="st5" d="M488.7,80.5C488.7,80.4,488.7,80.4,488.7,80.5c0-0.1,0-0.1,0-0.1c0,0-0.1,0-0.1-0.1
			C488.6,80.3,488.6,80.3,488.7,80.5C488.6,80.4,488.6,80.4,488.7,80.5c-0.1-0.1-0.1-0.1-0.2-0.2c0,0,0.1,0.1,0.1,0.1
			C488.6,80.4,488.7,80.5,488.7,80.5"/>
		<path id="path3067" class="st5" d="M488.6,80.4C488.6,80.4,488.5,80.4,488.6,80.4C488.5,80.4,488.5,80.4,488.6,80.4
			C488.5,80.4,488.5,80.4,488.6,80.4"/>
		<path id="path3069" class="st5" d="M488.8,80.5C488.8,80.5,488.7,80.5,488.8,80.5L488.8,80.5C488.7,80.5,488.7,80.5,488.8,80.5
			C488.7,80.5,488.7,80.5,488.8,80.5"/>
		<path id="path3071" class="st5" d="M488.9,80.5C488.9,80.5,488.9,80.5,488.9,80.5C488.8,80.5,488.8,80.5,488.9,80.5
			C488.8,80.5,488.8,80.5,488.9,80.5C488.9,80.5,488.9,80.5,488.9,80.5"/>
		<path id="path3073" class="st5" d="M488.8,80.5C488.8,80.5,488.9,80.5,488.8,80.5C488.8,80.4,488.8,80.4,488.8,80.5
			C488.8,80.4,488.9,80.4,488.8,80.5C488.8,80.4,488.8,80.5,488.8,80.5C488.8,80.5,488.8,80.5,488.8,80.5
			C488.8,80.4,488.8,80.5,488.8,80.5C488.8,80.5,488.8,80.5,488.8,80.5L488.8,80.5"/>
		<path id="path3075" class="st5" d="M488.8,80.4C488.8,80.4,488.8,80.4,488.8,80.4C488.8,80.4,488.8,80.4,488.8,80.4"/>
		<path id="path3077" class="st5" d="M488.7,80.3L488.7,80.3C488.7,80.3,488.7,80.4,488.7,80.3C488.7,80.4,488.8,80.4,488.7,80.3"/>
		<path id="path3079" class="st5" d="M488.7,80.6L488.7,80.6C488.7,80.6,488.7,80.6,488.7,80.6C488.7,80.5,488.7,80.6,488.7,80.6"/>
		<path id="path3081" class="st5" d="M488.8,80.6C488.8,80.6,488.8,80.6,488.8,80.6C488.8,80.6,488.8,80.6,488.8,80.6
			C488.8,80.6,488.8,80.6,488.8,80.6C488.8,80.6,488.8,80.6,488.8,80.6L488.8,80.6"/>
		<path id="path3083" class="st4" d="M490.4,79.9c0.1,0,0.1-0.1,0.2-0.2c0-0.2,0-0.4-0.1-0.5c0,0-0.1,0-0.1,0c0,0,0,0,0,0
			c-0.1,0-0.1,0-0.1-0.1c0,0,0,0,0-0.1c0,0-0.1-0.1-0.1-0.1c0,0,0,0,0,0c0,0,0-0.1,0-0.1c0,0,0,0,0,0c0,0,0,0.1,0.1,0.1h0
			c0,0-0.1,0-0.1-0.1c0,0,0-0.1,0-0.1c0-0.1,0.1-0.1,0.2-0.1l0,0c0-0.1,0-0.1,0-0.2c-0.1-0.1-0.1-0.1-0.2-0.1c0,0,0,0,0,0
			c0,0,0.1,0,0.1,0c0.1,0,0.1,0,0.2,0.1c0,0,0-0.1,0-0.1c0,0-0.1-0.1-0.1-0.1c-0.1-0.1-0.2-0.1-0.4-0.1h0c0,0,0,0,0,0c0,0,0,0,0,0
			c0.1,0,0.2,0.1,0.3,0.2c0,0,0.1,0,0.1,0.1c0,0,0,0,0,0c0,0-0.1,0-0.1,0c0,0-0.1-0.1-0.1-0.1c0,0,0,0,0,0c0,0,0,0-0.1,0
			c0,0,0,0-0.1,0c-0.1,0-0.1-0.1-0.2-0.1c0-0.1,0-0.1,0-0.2c0-0.1,0.1-0.1,0-0.2c0,0,0,0,0,0c0,0,0,0,0,0c0,0,0.1-0.1,0.1-0.1
			c0,0-0.1,0-0.1,0.1c0,0,0,0,0,0c0,0,0-0.1,0.1-0.1c0,0,0,0,0,0c0,0,0,0,0,0c0,0,0,0,0,0c-0.1,0-0.1,0.1-0.1,0.1c0,0,0,0,0,0
			c0,0,0,0,0,0c0-0.1,0-0.2,0.1-0.2c-0.1,0-0.1,0.1-0.1,0.2c0,0,0,0,0,0c0-0.1,0-0.2,0-0.2c0,0-0.1,0.1-0.1,0.1c0,0.1,0,0.2,0,0.3
			c0,0.1,0,0.2,0,0.3c0,0,0,0.1,0,0.1c0,0,0.1,0.1,0.1,0.1l0,0l0,0l0.1,0.1c0,0.1,0,0.1,0,0.2c0,0,0,0,0,0c0,0,0,0,0-0.1
			c0-0.1,0-0.1,0-0.2c0,0,0,0,0,0c0,0,0,0.1,0,0.1c0,0,0,0,0,0c0,0,0,0,0-0.1v-0.2c0,0.1,0,0.3,0.1,0.4c0,0.2,0.2,0.4,0.4,0.5
			c0,0,0.1,0.1,0.1,0c0,0,0,0,0,0c0,0,0,0,0,0c0,0,0.1,0,0.1,0c0,0,0,0,0,0c0,0,0,0,0,0c0,0,0.1,0,0.1,0c0,0,0,0,0,0
			c0,0,0,0,0.1,0.1c0,0,0.1,0.1,0,0.1c0,0,0,0,0-0.1c0,0,0-0.1,0-0.1c0,0,0,0-0.1,0c0,0,0,0-0.1,0c0,0,0,0.1-0.1,0.1
			c0,0,0-0.1,0-0.1c0,0,0,0-0.1,0c0,0,0-0.1,0-0.1l0,0c0,0,0,0,0,0.1c0,0,0,0,0,0c-0.1,0-0.1-0.1-0.2,0c0,0.2,0.2,0.2,0.3,0.4
			C490.2,79.9,490.3,79.9,490.4,79.9C490.4,79.9,490.4,79.9,490.4,79.9"/>
		<path id="path3085" class="st4" d="M490.5,78.2c-0.1-0.1-0.3-0.2-0.4-0.2c0,0-0.1,0-0.1,0c0,0-0.1,0.1-0.1,0.1
			c0.2,0,0.3,0,0.5,0.1c0,0,0.1,0.1,0.1,0.1C490.5,78.3,490.5,78.2,490.5,78.2"/>
		<path id="path3087" class="st4" d="M490.5,78.1C490.6,78.1,490.6,78.1,490.5,78.1c0-0.2-0.2-0.2-0.3-0.2c-0.1,0-0.3,0-0.3,0.1l0,0
			c0,0,0.1,0,0.1,0C490.3,78,490.4,78,490.5,78.1C490.5,78.1,490.5,78.1,490.5,78.1"/>
		<path id="path3089" class="st4" d="M490.6,77.9c0,0,0-0.1,0-0.1c-0.1-0.1-0.3-0.1-0.4-0.1c0,0,0,0-0.1,0.1c0.1,0,0.2,0,0.2,0
			C490.4,77.9,490.5,77.9,490.6,77.9C490.6,78,490.6,78,490.6,77.9L490.6,77.9"/>
		<path id="path3091" class="st4" d="M490.7,77.8c0-0.1-0.1-0.1-0.2-0.2c-0.1,0-0.2,0-0.2,0l0,0c0.1,0,0.1,0,0.2,0
			C490.5,77.7,490.5,77.8,490.7,77.8C490.6,77.8,490.6,77.9,490.7,77.8C490.7,77.9,490.7,77.8,490.7,77.8"/>
		<path id="path3093" class="st4" d="M490.7,77.7c0,0,0-0.1,0-0.1c-0.1-0.1-0.2-0.1-0.3-0.1c0,0-0.1,0-0.1,0.1
			C490.5,77.6,490.6,77.6,490.7,77.7C490.7,77.8,490.7,77.7,490.7,77.7"/>
		<path id="path3095" class="st4" d="M490.7,77.5c-0.1-0.1-0.2-0.1-0.2-0.1c0,0,0,0-0.1,0.1c0.1,0,0.2,0,0.3,0.1
			C490.7,77.6,490.7,77.5,490.7,77.5"/>
		<path id="path3097" class="st4" d="M490.7,77.4c-0.1,0-0.2-0.1-0.2,0c0,0,0,0,0,0c0.1,0,0.2,0,0.3,0.1
			C490.8,77.5,490.8,77.4,490.7,77.4"/>
		<path id="path3099" class="st4" d="M490.7,77.3c0,0-0.1,0-0.2,0c0,0,0,0,0,0C490.6,77.3,490.7,77.3,490.7,77.3
			C490.7,77.3,490.8,77.3,490.7,77.3"/>
		<path id="path3101" class="st4" d="M490.7,77.2c0,0-0.1,0-0.2,0c0,0,0,0,0,0C490.6,77.2,490.7,77.2,490.7,77.2
			C490.7,77.2,490.7,77.2,490.7,77.2"/>
		<path id="path3103" class="st4" d="M490.7,77.1C490.7,77.1,490.7,77.1,490.7,77.1c-0.1-0.1-0.1-0.1-0.1-0.1c0,0,0,0,0,0.1
			C490.6,77.1,490.7,77.1,490.7,77.1"/>
		<path id="path3105" class="st4" d="M490.6,77C490.6,77,490.6,77,490.6,77c0-0.1-0.1-0.2-0.2-0.2c-0.1,0-0.1,0-0.2,0c0,0,0,0,0,0.1
			c0.1,0.1,0.2,0.1,0.3,0.1l0,0c0,0-0.1-0.1-0.1-0.1v0c0,0,0.1,0,0.1,0C490.5,76.9,490.5,76.9,490.6,77
			C490.5,76.9,490.5,76.9,490.6,77C490.5,77,490.5,77,490.6,77C490.5,77,490.5,77,490.6,77C490.6,77,490.6,77,490.6,77"/>
		<path id="path3107" class="st4" d="M490.3,80L490.3,80L490.3,80C490.3,80,490.3,80,490.3,80C490.2,80,490.2,80,490.3,80
			C490.3,80.1,490.3,80,490.3,80"/>
		<path id="path3109" class="st4" d="M490.2,80C490.2,80,490.2,80,490.2,80L490.2,80C490.2,80,490.2,80,490.2,80
			C490.2,80,490.2,80,490.2,80"/>
		<path id="path3111" class="st5" d="M489.7,78.6c0-0.1,0-0.1,0.1-0.2c0,0-0.1,0-0.1,0c-0.1-0.1,0-0.2-0.1-0.2c0-0.1,0-0.2,0-0.3
			c0-0.1,0-0.2,0-0.2c-0.1,0.3-0.2,0.6-0.1,0.9C489.5,78.6,489.6,78.7,489.7,78.6L489.7,78.6"/>
		<path id="path3113" class="st5" d="M490.4,80C490.4,80,490.4,80,490.4,80C490.5,80,490.5,80,490.4,80C490.5,80,490.5,80,490.4,80
			L490.4,80c0.1-0.1,0.1,0,0.1,0c0,0,0-0.1,0-0.1c0,0,0,0,0.1,0c0,0,0,0,0,0c0,0-0.1-0.1,0-0.1c0,0,0,0.1,0.1,0c0,0-0.1-0.1-0.1-0.1
			c0,0,0.1,0.1,0.1,0c0,0-0.1-0.1-0.1-0.1c0,0,0,0,0.1,0c0,0-0.1,0-0.1-0.1c0,0,0.1,0.1,0.1,0c0,0,0,0,0,0c0,0,0,0,0,0
			c0,0-0.1,0-0.1,0c0,0,0,0,0,0c0,0,0,0,0,0c0,0,0,0,0.1,0c0,0,0,0,0.1-0.1c0,0-0.1,0-0.1,0c0,0,0,0,0,0c0,0,0.1-0.1,0.1-0.1
			c0,0-0.1,0-0.1,0.1c0,0,0,0,0,0c0,0,0,0,0-0.1c0,0-0.1,0.1-0.1,0.1c0,0,0,0,0,0c0,0,0,0,0,0c0.1,0,0.1-0.1,0.1-0.2
			c-0.1,0-0.1,0.1-0.1,0.1c0,0,0,0,0-0.1c0-0.1,0.1-0.1,0-0.2c-0.1-0.1-0.2-0.1-0.2-0.3c0-0.1-0.2-0.1-0.2-0.2c0,0,0,0,0,0.1
			c0,0.1,0.1,0,0.1,0.1c0,0,0,0,0,0c-0.1,0-0.2-0.1-0.2-0.1c0,0,0,0,0-0.1c0,0-0.1,0-0.1,0.1c0,0,0,0.1,0.1,0.1c0.1,0,0.1,0,0.2,0.1
			c0,0,0,0,0,0c0,0-0.1,0-0.1,0c0,0-0.1,0-0.1,0c0,0,0,0,0,0.1c0.1,0,0.2,0,0.2,0c0,0,0,0,0,0c0,0,0,0,0,0c0,0,0,0-0.1,0
			c-0.1,0,0,0.1-0.1,0.1h-0.1c0,0,0.1,0,0.1,0c0.1,0,0.1-0.1,0.2-0.1c0,0,0,0,0,0l0,0c0,0-0.1,0-0.1,0c0,0,0,0.1-0.1,0.1
			c0,0,0,0,0.1,0c0,0,0.1-0.1,0.2-0.1c0,0,0,0,0,0l0,0c0,0-0.1,0-0.1,0c0,0,0,0,0,0c0,0,0.1-0.1,0.1-0.1c0,0,0,0,0.1,0
			c0,0,0,0-0.1,0c0,0-0.1,0-0.1,0c0,0.1,0.1,0.1,0.1,0.2c0,0.2,0,0.4-0.2,0.5C490.4,79.9,490.4,79.9,490.4,80
			C490.3,80,490.4,80,490.4,80C490.4,80,490.4,80,490.4,80C490.4,80.1,490.4,80,490.4,80"/>
		<path id="path3115" class="st5" d="M490.4,79c-0.1,0-0.1,0.1-0.2,0C490.3,79.1,490.3,79.1,490.4,79C490.4,79,490.4,79,490.4,79"/>
		<path id="path3117" class="st5" d="M490.5,78.6c0,0,0-0.1,0-0.2c0,0,0-0.1,0.1-0.1c0,0,0-0.1,0-0.1c0,0,0.1,0,0-0.1
			c0,0,0-0.1,0-0.1C490.5,78.2,490.5,78.4,490.5,78.6C490.5,78.6,490.5,78.6,490.5,78.6"/>
		<path id="path3119" class="st5" d="M490.7,77.9c0,0,0-0.1,0-0.1c0,0,0-0.1,0.1-0.1c0,0,0-0.1,0-0.1
			C490.7,77.8,490.7,77.9,490.7,77.9C490.7,78,490.7,78,490.7,77.9"/>
		<path id="path3121" class="st5" d="M490.8,77.5L490.8,77.5C490.8,77.5,490.8,77.6,490.8,77.5C490.8,77.6,490.8,77.6,490.8,77.5"/>
		<path id="path3123" class="st1" d="M489.6,78.7C489.6,78.7,489.6,78.7,489.6,78.7C489.6,78.7,489.6,78.7,489.6,78.7
			C489.6,78.7,489.6,78.7,489.6,78.7"/>
		<path id="path3125" class="st4" d="M490.2,79L490.2,79L490.2,79L490.2,79"/>
		<path id="path3127" class="st5" d="M490.4,78.7C490.4,78.7,490.4,78.7,490.4,78.7C490.4,78.6,490.4,78.7,490.4,78.7
			C490.4,78.7,490.3,78.7,490.4,78.7C490.4,78.7,490.4,78.7,490.4,78.7C490.4,78.8,490.4,78.7,490.4,78.7"/>
		<path id="path3129" class="st1" d="M490.3,79.8C490.3,79.8,490.3,79.8,490.3,79.8C490.4,79.8,490.3,79.8,490.3,79.8
			c0-0.1-0.1-0.1-0.2-0.1c0,0,0,0,0,0C490.2,79.8,490.2,79.8,490.3,79.8C490.2,79.8,490.3,79.8,490.3,79.8"/>
		<path id="path3131" class="st4" d="M490.7,77.9c0,0,0.1,0.1,0,0.1c0,0,0,0-0.1,0c0.1,0,0.1,0,0.2,0c0,0,0,0,0,0c0,0,0,0,0-0.1
			c0,0,0,0-0.1,0c0,0,0,0,0,0C490.8,77.9,490.8,77.9,490.7,77.9"/>
		<path id="path3133" class="st5" d="M491,78.8C491,78.8,491,78.7,491,78.8c0.1-0.1,0.1-0.1,0.1-0.1c0,0,0.1-0.1,0.1-0.2
			c0,0,0,0,0,0c0,0,0-0.1,0-0.1c0-0.1,0-0.1,0-0.2c0,0-0.1-0.1-0.1-0.1c0,0,0,0,0,0c0,0,0.1,0,0.1,0c0,0,0-0.1-0.1-0.1c0,0,0,0,0,0
			c0,0,0.1,0,0.1-0.1c0,0,0-0.1,0.1-0.1c0,0,0,0,0-0.1c0,0,0-0.1,0-0.1c0,0,0-0.1,0-0.1c0,0,0-0.1-0.1-0.1c0,0-0.1,0-0.1-0.1
			c0,0,0,0.1,0,0.1c0,0.1,0.1,0.1,0,0.2c0,0.1-0.1,0.1-0.2,0.2c-0.1,0-0.2,0-0.2,0c0,0,0,0,0,0c0.1,0,0.1,0,0.1,0.1
			c0,0,0.1,0,0.1,0.1c0,0,0,0,0,0.1c0,0-0.1,0-0.1,0l-0.1,0c0.1,0.1,0.2,0.2,0.2,0.4C491,78.6,491,78.7,491,78.8L491,78.8"/>
		<path id="path3135" class="st1" d="M491,78.7c0.1-0.2,0-0.4,0-0.5c0,0,0,0,0,0c0,0,0,0.1,0,0.1C491,78.4,491.1,78.5,491,78.7
			C491,78.7,491,78.7,491,78.7C491,78.7,491,78.7,491,78.7"/>
		<path id="path3137" class="st1" d="M491.1,78.5L491.1,78.5L491.1,78.5L491.1,78.5C491.1,78.5,491.1,78.5,491.1,78.5"/>
		<path id="path3139" class="st1" d="M491.1,78.2C491.1,78.2,491.1,78.2,491.1,78.2C491,78.2,491.1,78.2,491.1,78.2
			c0,0.1,0,0.1,0,0.2l0,0C491.1,78.4,491.1,78.3,491.1,78.2"/>
		<path id="path3141" class="st1" d="M491.2,77.9c0-0.1,0.1-0.1,0-0.2c0,0,0,0,0,0.1c0,0.1-0.1,0.2-0.1,0.2
			C491.1,78,491.1,78,491.2,77.9C491.2,77.9,491.2,77.9,491.2,77.9"/>
		<path id="path3143" class="st1" d="M491.2,77.6c0-0.1,0-0.1-0.1-0.2c0,0,0,0,0,0c0,0,0,0,0,0.1C491.2,77.6,491.2,77.6,491.2,77.6
			c0,0.1-0.1,0.2-0.1,0.2c0,0,0,0,0,0C491.2,77.8,491.2,77.7,491.2,77.6"/>
		<path id="path3145" class="st6" d="M491.5,77.1c0-0.1-0.1-0.2-0.2-0.2l-0.1,0c0,0.1-0.1,0.1-0.1,0.2
			C491.2,77.1,491.3,77.1,491.5,77.1C491.4,77.1,491.5,77.1,491.5,77.1z"/>
		<path id="path3147" class="st6" d="M491.7,76.9c0-0.1,0.1-0.3,0.1-0.4c-0.1-0.2-0.3-0.3-0.5-0.4c0,0,0,0-0.1,0
			c-0.1,0.2-0.1,0.3-0.1,0.5c0,0,0.1,0,0.1,0C491.3,76.6,491.5,76.7,491.7,76.9C491.6,77,491.6,76.9,491.7,76.9z"/>
		<path id="path3149" class="st2" d="M490.8,76.6C490.8,76.6,490.8,76.5,490.8,76.6c-0.1,0-0.1-0.1-0.1-0.1
			C490.7,76.5,490.8,76.6,490.8,76.6z"/>
		<path id="path3151" class="st6" d="M486.9,76.2c0.3-0.1,0.5-0.2,0.8-0.2c0.2-0.1,0.4-0.1,0.7-0.1c0.3,0,0.7,0,1,0
			c0.3,0,0.5,0.1,0.7,0.2c0.3,0.1,0.6,0.1,0.8,0.3l0.1,0.1l0,0c0-0.2,0.1-0.4,0.2-0.5c0-0.1,0-0.1,0-0.2c-0.4-0.2-0.9-0.4-1.4-0.5
			c-0.1,0-0.2,0-0.3,0c-0.3,0-0.7-0.1-1.1,0c-0.1,0-0.2,0-0.4,0c-0.2,0-0.3,0-0.5,0.1c-0.4,0.1-0.9,0.2-1.3,0.4c0,0-0.1,0.1-0.1,0.1
			c0,0.2,0.1,0.3,0.2,0.5c0,0,0,0.1,0,0.1C486.5,76.3,486.7,76.3,486.9,76.2z"/>
		<path id="path3153" class="st2" d="M490.5,76.5c-0.1,0-0.1,0-0.2,0c0,0,0,0,0,0C490.4,76.5,490.4,76.5,490.5,76.5z"/>
		<path id="path3155" class="st2" d="M490.2,76.3C490.2,76.3,490.2,76.3,490.2,76.3C490.2,76.3,490.2,76.3,490.2,76.3L490.2,76.3z"
			/>
		<path id="path3157" class="st5" d="M491.6,77.1c0.1-0.1,0-0.3-0.1-0.3c-0.1-0.1-0.3-0.2-0.4-0.2l-0.1,0c0,0,0,0,0,0
			c0.2,0.1,0.4,0.1,0.5,0.4C491.5,77,491.5,77.1,491.6,77.1c-0.1,0-0.2,0-0.2,0c-0.1,0-0.2,0-0.2-0.1l0,0c0-0.1,0.1-0.2,0.1-0.2
			c0,0,0,0-0.1,0c0,0,0,0.1-0.1,0.2c0,0.1-0.1,0.1,0,0.2c0.1,0.1,0.2,0.1,0.4,0.1C491.5,77.2,491.5,77.2,491.6,77.1"/>
		<path id="path3159" class="st5" d="M486.9,76.4c0.1,0,0.1,0,0.2,0c0,0,0,0,0,0.1c-0.1,0-0.2,0-0.3,0c0,0,0,0,0,0
			c0.1,0,0.2,0,0.4,0c0,0,0.1,0,0.1-0.1c0,0,0-0.1,0-0.1C487.1,76.3,487,76.4,486.9,76.4c-0.1,0-0.2,0-0.3,0.1
			c-0.1,0.1-0.1,0.1-0.2,0.1c0,0,0,0,0-0.1l0,0C486.6,76.4,486.7,76.4,486.9,76.4c0-0.1,0-0.1,0.1-0.1c0.3-0.1,0.7-0.2,1-0.2
			c0.2,0,0.3,0,0.5,0l0,0c0.5,0,0.9,0.1,1.3,0.2c0.1,0,0.2,0,0.3,0.1c0.2,0.1,0.4,0.1,0.6,0.2c0.1,0,0.2,0.1,0.2,0.2c0,0,0,0-0.1,0
			c-0.1-0.1-0.2-0.2-0.3-0.2c-0.1,0-0.2-0.1-0.3,0c0,0,0,0.1,0,0.1c0.1,0.1,0.2,0.1,0.3,0.1h0.2c0-0.1-0.1,0-0.2,0
			c-0.1,0-0.1,0-0.2-0.1c0,0,0,0,0,0c0.1-0.1,0.2,0,0.3,0c0.1,0.1,0.2,0.3,0.4,0.2c0,0,0,0,0-0.1c0-0.1,0-0.1-0.1-0.1
			c-0.1-0.1-0.2-0.1-0.4-0.2c-0.4-0.1-0.9-0.2-1.3-0.3c-0.1,0-0.3,0-0.4,0c-0.3,0-0.6,0-0.9,0.1c0,0,0,0-0.1,0
			c-0.4,0.1-0.8,0.2-1.2,0.3c-0.1,0.1-0.2,0.1-0.2,0.2c0,0,0.1,0,0.1,0.1C486.7,76.7,486.8,76.5,486.9,76.4"/>
		<path id="path3161" class="st6" d="M486.2,77l-0.1-0.2c-0.1,0-0.2,0.1-0.2,0.2c0,0,0,0,0,0.1c0.1,0,0.1,0,0.2,0
			C486.1,77.1,486.1,77,486.2,77z"/>
		<path id="path3163" class="st6" d="M485.8,76.8c0.1-0.2,0.3-0.2,0.5-0.3c0-0.1,0-0.1,0-0.2c0-0.1-0.1-0.2-0.1-0.3c0,0,0-0.1,0,0
			c-0.2,0.1-0.4,0.1-0.5,0.3c-0.1,0.1-0.1,0.2-0.1,0.3c0,0.1,0.1,0.2,0.1,0.4l0,0C485.7,76.9,485.7,76.9,485.8,76.8z"/>
		<path id="path3165" class="st2" d="M486.6,76.5c0,0-0.1,0-0.1,0.1C486.6,76.6,486.6,76.5,486.6,76.5z"/>
		<path id="path3167" class="st2" d="M487,76.5C487,76.4,487,76.5,487,76.5c-0.1,0-0.1,0-0.2,0C486.9,76.5,487,76.5,487,76.5z"/>
		<path id="path3169" class="st2" d="M487.2,76.3C487.2,76.3,487.2,76.3,487.2,76.3L487.2,76.3C487.1,76.3,487.1,76.3,487.2,76.3z"
			/>
		<path id="path3171" class="st5" d="M486.1,77.1c0,0,0.1,0,0.1-0.1c0-0.1,0-0.1-0.1-0.2c0,0,0-0.1,0-0.1c0,0,0,0-0.1,0
			c0,0,0,0.1,0,0.1c0,0,0,0.1,0,0.1C486.2,77,486.2,77.1,486.1,77.1c-0.1,0-0.2,0-0.3,0c0,0,0,0-0.1,0c0-0.1,0.1-0.2,0.2-0.3
			c0.1-0.1,0.2-0.1,0.3-0.1c0,0,0,0,0,0c-0.1,0-0.2,0.1-0.4,0.1c-0.1,0.1-0.3,0.2-0.2,0.4c0,0.1,0.1,0.1,0.1,0.1
			C485.9,77.2,486,77.2,486.1,77.1"/>
		<path id="path3173" class="st1" d="M486.4,75.9C486.4,75.9,486.4,75.9,486.4,75.9l0.1,0.2c0,0,0,0,0,0l0,0l0.1,0l0.1-0.2l0,0
			l0.1,0.1c0,0,0,0,0,0.1l0,0l0.1,0l0,0c0,0,0,0,0,0l-0.1-0.3l0,0l-0.1,0.3l0,0L486.4,75.9C486.4,75.9,486.4,75.8,486.4,75.9
			L486.4,75.9L486.4,75.9L486.4,75.9"/>
		<path id="path3175" class="st1" d="M486.8,76l0.3-0.1l0-0.1l0,0c0,0.1,0,0.1-0.1,0.1C486.9,76,486.9,76,486.8,76l0.1-0.2
			c0,0,0.1,0,0.1,0l0,0l0-0.1l0,0c0,0.1,0,0.1,0,0.1l0-0.1c0,0,0,0,0,0c0,0,0.1,0,0.1,0l0,0l0-0.1l-0.3,0.1l0,0c0,0,0,0,0,0
			L486.8,76C486.8,76,486.8,76,486.8,76L486.8,76"/>
		<path id="path3177" class="st1" d="M487.5,75.8C487.4,75.8,487.4,75.8,487.5,75.8l-0.2-0.3l0,0l0,0.2l0,0l-0.1-0.2l0,0l0,0.3
			c0,0,0,0,0,0l0,0l0.1,0l0,0c0,0,0,0,0,0c0,0,0,0,0,0l0-0.2l0,0l0.1,0.1l0,0c0,0,0,0,0,0l0,0l0.1,0l0,0c0,0,0,0,0,0c0,0,0,0,0,0
			l0-0.2l0,0L487.5,75.8C487.4,75.8,487.4,75.8,487.5,75.8C487.4,75.8,487.4,75.8,487.5,75.8L487.5,75.8L487.5,75.8L487.5,75.8"/>
		<path id="path3179" class="st1" d="M487.7,75.5c0,0-0.1-0.1-0.1,0c-0.1,0-0.2,0.1-0.1,0.2c0,0.1,0.1,0.2,0.2,0.1c0,0,0.1,0,0.1,0
			c0,0,0,0,0,0l0,0l0-0.1l0,0c0,0,0,0.1-0.1,0.1c-0.1,0-0.1-0.1-0.1-0.1c0,0,0-0.1,0-0.1c0,0,0,0,0.1-0.1
			C487.6,75.5,487.7,75.5,487.7,75.5L487.7,75.5"/>
		<path id="path3181" class="st1" d="M488,75.4l-0.1,0l0,0c0,0,0,0,0,0c0,0,0,0,0,0.1l-0.1,0c0,0,0,0,0-0.1c0,0,0,0,0,0l0,0l-0.1,0
			l0,0c0,0,0,0,0.1,0l0.1,0.2l0,0L488,75.4C488,75.5,488,75.5,488,75.4L488,75.4z M487.9,75.6l0,0.1L487.9,75.6L487.9,75.6"/>
		<path id="path3183" class="st1" d="M488.2,75.6C488.2,75.7,488.2,75.7,488.2,75.6c-0.1,0.1-0.1,0.1-0.1,0.1
			C488.1,75.7,488.1,75.7,488.2,75.6L488.2,75.6c0-0.1,0-0.1,0-0.1c0,0,0-0.1-0.1-0.1c0,0-0.1,0-0.1,0c0,0,0,0,0,0l0,0l0,0.1l0,0
			c0,0,0-0.1,0.1-0.1c0.1,0,0.1,0,0.1,0C488.2,75.5,488.2,75.5,488.2,75.6l-0.1-0.1c-0.1,0-0.1,0.1-0.1,0.1c0,0,0,0.1,0.1,0.1
			C488.2,75.8,488.2,75.7,488.2,75.6c0,0.1,0,0.1,0,0.1L488.2,75.6L488.2,75.6L488.2,75.6"/>
		<path id="path3185" class="st1" d="M488.5,75.4l-0.2,0l0,0c0,0,0,0,0,0l0,0.2c0,0-0.1,0-0.1-0.1l0,0l0,0.1l0.3,0l0-0.1l0,0
			c0,0.1-0.1,0.1-0.1,0.1L488.5,75.4C488.4,75.4,488.4,75.4,488.5,75.4L488.5,75.4"/>
		<path id="path3187" class="st1" d="M488.8,75.4h-0.3v0c0,0,0,0,0,0v0.2c0,0,0,0,0,0v0h0.2v0c0,0,0,0,0,0v-0.2c0,0,0,0,0,0
			c0.1,0,0.1,0,0.1,0.1h0L488.8,75.4"/>
		<path id="path3189" class="st1" d="M488.8,75.7l0.3,0l0-0.1l0,0c0,0.1,0,0.1-0.1,0.1c0,0,0,0,0,0l0-0.1c0,0,0.1,0,0.1,0.1l0,0
			l0-0.2l0,0c0,0.1,0,0.1-0.1,0.1l0-0.1c0,0,0,0,0,0c0,0,0.1,0,0.1,0.1l0,0l0-0.1l-0.3,0l0,0c0,0,0,0,0,0L488.8,75.7
			C488.9,75.7,488.9,75.7,488.8,75.7L488.8,75.7"/>
		<path id="path3191" class="st1" d="M489.5,75.8C489.5,75.8,489.5,75.8,489.5,75.8l0-0.2c0,0,0-0.1,0-0.1c0,0-0.1,0-0.1,0
			c0,0-0.1,0-0.1,0c0,0,0,0,0,0.1l0,0.2c0,0,0,0,0,0l0,0l0.2,0l0,0c0,0,0,0,0,0l0-0.2c0,0,0-0.1,0.1-0.1c0.1,0,0.1,0.1,0.1,0.1
			L489.5,75.8c-0.1,0-0.1,0-0.1,0l0,0L489.5,75.8L489.5,75.8"/>
		<path id="path3193" class="st1" d="M489.6,75.5C489.6,75.5,489.6,75.5,489.6,75.5v0.3c0,0,0,0,0,0l0,0l0.1,0l0.2-0.2l0,0l0,0.1
			c0,0,0,0,0,0l0,0l0.1,0l0,0c0,0,0,0,0,0l0-0.3l0,0l-0.2,0.2l0,0L489.6,75.5c0.1,0,0.1,0,0.1,0l0,0L489.6,75.5L489.6,75.5"/>
		<path id="path3195" class="st1" d="M490.1,75.6l-0.2,0l0,0c0,0,0,0,0,0l0,0.2c0,0,0,0,0,0l0,0l0.2,0l0,0c0,0,0,0,0,0L490.1,75.6
			C490,75.6,490,75.6,490.1,75.6L490.1,75.6"/>
		<path id="path3197" class="st1" d="M490.3,75.6l-0.2,0l0,0c0,0,0,0,0,0.1l-0.1,0.2c0,0-0.1,0-0.1-0.1l0,0l0,0.1l0.3,0.1l0-0.1l0,0
			c0,0.1-0.1,0.1-0.1,0.1L490.3,75.6C490.3,75.6,490.3,75.6,490.3,75.6L490.3,75.6"/>
		<path id="path3199" class="st1" d="M490.3,75.9l0.3,0.1l0-0.1l0,0c0,0.1-0.1,0.1-0.1,0c0,0,0,0,0,0l0-0.1c0,0,0.1,0,0,0.1l0,0
			l0.1-0.1l0,0c0,0.1-0.1,0.1-0.1,0l0-0.1c0,0,0,0,0,0c0,0,0.1,0,0.1,0.1l0,0l0-0.1l-0.3-0.1l0,0c0,0,0,0,0,0L490.3,75.9
			C490.3,75.9,490.3,75.9,490.3,75.9L490.3,75.9"/>
		<path id="path3201" class="st1" d="M490.7,75.8C490.7,75.8,490.7,75.8,490.7,75.8l-0.1,0.3c0,0,0,0,0,0l0,0l0.1,0.1
			c0.1,0.1,0.2,0,0.2-0.1c0-0.1,0-0.2-0.1-0.2L490.7,75.8L490.7,75.8z M490.8,75.8C490.8,75.8,490.8,75.8,490.8,75.8
			c0.1,0,0.1,0.1,0.1,0.2c0,0-0.1,0.1-0.1,0.1c0,0,0,0,0,0L490.8,75.8"/>
		<path id="path3203" class="st1" d="M487.1,79.8C487.1,79.8,487.1,79.8,487.1,79.8c0.1,0,0.1,0,0.1-0.1
			C487.2,79.7,487.1,79.7,487.1,79.8C487.1,79.7,487,79.8,487.1,79.8C487,79.8,487,79.8,487.1,79.8C487,79.8,487,79.8,487.1,79.8
			C487.1,79.8,487.1,79.8,487.1,79.8"/>
		<path id="path3205" class="st1" d="M487.4,79.5C487.4,79.5,487.4,79.5,487.4,79.5C487.4,79.5,487.4,79.5,487.4,79.5
			C487.4,79.5,487.4,79.5,487.4,79.5C487.4,79.5,487.4,79.5,487.4,79.5C487.4,79.5,487.4,79.5,487.4,79.5
			C487.4,79.5,487.4,79.5,487.4,79.5C487.3,79.5,487.3,79.5,487.4,79.5C487.3,79.5,487.3,79.5,487.4,79.5
			C487.4,79.6,487.4,79.6,487.4,79.5C487.4,79.6,487.4,79.5,487.4,79.5"/>
		<path id="path3207" class="st7" d="M487.2,79.7L487.2,79.7C487.1,79.7,487.1,79.7,487.2,79.7C487.1,79.7,487.1,79.7,487.2,79.7
			C487.1,79.7,487.1,79.7,487.2,79.7C487.1,79.7,487.1,79.7,487.2,79.7C487.1,79.7,487.2,79.7,487.2,79.7L487.2,79.7"/>
		<path id="path3209" class="st1" d="M490,79.5L490,79.5C490,79.5,490,79.5,490,79.5C490,79.5,490,79.5,490,79.5
			C490,79.5,490,79.5,490,79.5c-0.1-0.1-0.1-0.1-0.1-0.1C489.9,79.5,489.9,79.5,490,79.5C489.9,79.5,489.9,79.5,490,79.5L490,79.5
			C490,79.5,490,79.5,490,79.5C490,79.6,490,79.5,490,79.5"/>
		<path id="path3211" class="st7" d="M490.2,79.7C490.2,79.7,490.2,79.7,490.2,79.7C490.2,79.7,490.2,79.7,490.2,79.7
			C490.2,79.7,490.2,79.7,490.2,79.7C490.2,79.7,490.2,79.7,490.2,79.7C490.2,79.7,490.2,79.7,490.2,79.7
			C490.2,79.7,490.2,79.7,490.2,79.7L490.2,79.7"/>
		<path id="path3213" class="st4" d="M487.1,79C487.1,79,487.1,79,487.1,79C487.1,79,487.1,79,487.1,79"/>
		<path id="path3215" class="st5" d="M487,80L487,80c-0.1,0-0.2-0.1-0.3-0.3c-0.1-0.1,0-0.3,0-0.5c0,0,0,0,0-0.1c0,0-0.1,0-0.1,0
			c0,0,0,0,0,0c0,0,0,0,0.1,0c0,0,0.1,0,0.1,0.1c0,0,0,0,0,0c0-0.1-0.1,0-0.1,0c0,0,0.1,0,0.1,0c0.1,0,0.1,0.1,0.2,0.1
			c-0.1,0,0-0.1-0.1-0.1c0,0,0,0-0.1,0c0,0,0.1,0,0.1,0c0.1,0,0.1,0.1,0.2,0.1c0,0,0,0,0,0c0,0-0.1,0-0.1,0c0,0,0-0.1-0.1-0.1
			c0,0,0,0,0,0c0,0,0.1,0,0,0c0,0,0.1,0,0.1,0l0,0c0,0,0,0,0.1,0c0,0,0.1,0,0.1-0.1l0,0c0,0-0.1,0-0.2,0c0,0-0.1,0-0.1,0
			c0,0,0,0,0,0c0.1-0.1,0.3,0,0.2-0.2c0,0,0,0,0-0.1c0,0,0,0.1,0,0.1c0,0.1-0.1,0.1-0.2,0.1c0,0,0,0,0,0c0,0,0,0,0,0
			c0,0,0.1,0,0.1-0.1c0,0,0,0,0-0.1c0,0,0,0.1-0.1,0.1c-0.1,0-0.1,0.1-0.1,0.1c0,0.1-0.2,0.1-0.2,0.2c0,0.1,0,0.2,0.1,0.2
			c0,0,0,0,0,0c-0.1,0-0.1-0.1-0.1-0.1c0,0.1,0,0.2,0.1,0.2c0,0,0,0,0,0c0,0-0.1,0-0.1,0c0,0,0,0,0,0c0,0,0,0.1,0.1,0.1c0,0,0,0,0,0
			c0,0,0,0,0,0l-0.1,0c0,0.1,0.1,0.1,0.1,0.1c0,0-0.1,0-0.1,0l0,0c0,0,0,0,0,0c0,0,0.1,0,0.1,0c0,0,0,0,0,0h0c0,0,0,0,0.1,0
			c0,0,0,0-0.1,0c0,0,0,0,0,0c0,0,0,0,0,0v0c0,0,0.1,0,0.1,0c0,0,0,0,0,0c0,0,0,0-0.1,0.1c0,0,0,0,0.1,0c0,0,0,0.1-0.1,0.1
			c0,0,0.1,0,0.1,0c0,0,0,0,0,0c0,0,0,0-0.1,0.1c0,0,0,0,0.1,0c0,0,0,0,0,0c0,0,0,0,0,0.1c0,0,0.1,0,0.1-0.1c0,0,0,0.1,0,0.1
			c0,0,0.1-0.1,0.1-0.1c0,0,0,0.1,0,0.1c0,0,0,0,0,0C486.9,80,486.9,79.9,487,80C486.9,80,486.9,80,487,80C486.9,80,487,80,487,80"
			/>
		<path id="path3217" class="st5" d="M487.1,79C487.1,79,487.1,79,487.1,79c0,0-0.1,0-0.1,0c0,0,0,0-0.1,0C487,79,487,79.1,487.1,79
			L487.1,79"/>
		<path id="path3219" class="st5" d="M487,78.7C487,78.7,487,78.7,487,78.7C487,78.6,487,78.6,487,78.7
			C486.9,78.7,486.9,78.7,487,78.7C487,78.7,487,78.7,487,78.7"/>
		<path id="path3221" class="st4" d="M487,78.2c0.1-0.1,0.2-0.1,0.3-0.1c0.1,0,0.2,0,0.2,0c0-0.1-0.1-0.1-0.1-0.1
			c-0.1,0-0.3,0-0.4,0.1c0,0-0.1,0.1-0.1,0.1C486.9,78.2,486.9,78.3,487,78.2C486.9,78.3,486.9,78.2,487,78.2"/>
		<path id="path3223" class="st4" d="M487.3,78L487.3,78C487.4,78,487.3,77.9,487.3,78c-0.1-0.1-0.2-0.1-0.3-0.1
			c-0.1,0-0.2,0.1-0.2,0.1c0,0,0,0.1,0,0.1C487,78,487.1,77.9,487.3,78"/>
		<path id="path3225" class="st4" d="M487.2,77.8C487.2,77.8,487.2,77.8,487.2,77.8C487.2,77.8,487.2,77.8,487.2,77.8L487.2,77.8
			c0-0.1,0-0.1-0.1-0.1c-0.1,0-0.2,0-0.3,0.1c0,0-0.1,0.1,0,0.1c0,0,0,0,0,0.1C486.9,77.9,487,77.8,487.2,77.8"/>
		<path id="path3227" class="st4" d="M486.7,77.9c0.1-0.1,0.3-0.2,0.4-0.2c0-0.1-0.1-0.1-0.2-0.1c-0.1,0-0.2,0-0.3,0.1
			C486.7,77.8,486.7,77.8,486.7,77.9L486.7,77.9"/>
		<path id="path3229" class="st4" d="M487,77.6c0-0.1-0.1-0.1-0.1-0.1c-0.1,0-0.2,0-0.3,0.1c0,0,0,0.1,0,0.1
			C486.7,77.6,486.9,77.6,487,77.6"/>
		<path id="path3231" class="st4" d="M486.9,77.5c0-0.1-0.1-0.1-0.2-0.1c-0.1,0-0.1,0.1-0.1,0.1c0,0,0,0,0,0.1
			C486.7,77.5,486.8,77.5,486.9,77.5"/>
		<path id="path3233" class="st4" d="M486.9,77.4C486.9,77.4,486.8,77.3,486.9,77.4c-0.1-0.1-0.2-0.1-0.2,0c0,0,0,0-0.1,0
			c0,0,0,0.1,0,0.1C486.7,77.4,486.8,77.4,486.9,77.4"/>
		<path id="path3235" class="st4" d="M486.8,77.3C486.8,77.3,486.8,77.3,486.8,77.3c-0.1-0.1-0.1-0.1-0.2-0.1c0,0,0,0,0,0v0.1
			C486.7,77.3,486.7,77.3,486.8,77.3"/>
		<path id="path3237" class="st4" d="M486.8,77.2C486.8,77.2,486.8,77.2,486.8,77.2c-0.1-0.1-0.1-0.1-0.2,0c0,0,0,0,0,0.1
			C486.7,77.2,486.7,77.2,486.8,77.2"/>
		<path id="path3239" class="st4" d="M486.8,77.1C486.8,77.1,486.8,77.1,486.8,77.1C486.8,77,486.7,77,486.8,77.1
			c-0.1-0.1-0.1-0.1-0.1-0.1c0,0,0,0.1,0,0.1C486.7,77.1,486.7,77.1,486.8,77.1L486.8,77.1"/>
		<path id="path3241" class="st4" d="M486.8,77C486.9,76.9,486.8,77,486.8,77C486.8,76.9,486.8,76.9,486.8,77L486.8,77
			c0.1,0,0.1-0.1,0.1-0.1c0,0,0,0,0,0C486.9,76.9,486.9,77,486.8,77C486.9,77,486.9,77,486.8,77c0.1,0,0.2,0,0.3-0.1c0,0,0,0,0-0.1
			c-0.1-0.1-0.2,0-0.2,0c-0.1,0-0.2,0.1-0.2,0.2C486.7,77,486.8,77,486.8,77C486.8,77,486.8,77,486.8,77"/>
		<path id="path3243" class="st4" d="M486.5,77.9L486.5,77.9c0,0-0.1,0.1-0.1,0.1c0,0,0.1,0,0.1,0c0,0,0.1,0,0.1,0
			C486.6,78,486.6,78,486.5,77.9c0.1,0,0.1,0,0.1-0.1C486.6,77.9,486.5,77.9,486.5,77.9"/>
		<path id="path3245" class="st4" d="M487.1,80.1C487.1,80,487.1,80,487.1,80.1C487.1,80,487.1,80,487.1,80.1
			C487.1,80,487.1,80,487.1,80.1C487.1,80,487.1,80,487.1,80.1L487.1,80.1"/>
		<path id="path3247" class="st4" d="M487.2,80C487.2,80,487.2,80,487.2,80L487.2,80L487.2,80C487.1,80,487.2,80,487.2,80"/>
		<path id="path3249" class="st5" d="M486.3,78.6c0-0.2,0-0.3,0.1-0.4c0,0,0.1-0.1,0.1-0.1c-0.1,0-0.1,0-0.2,0c0,0,0-0.1,0-0.1
			c0,0,0.1-0.1,0.1-0.1c0,0,0.1,0,0.1-0.1c-0.1,0-0.2,0-0.3,0c-0.1-0.1-0.1-0.1-0.1-0.2c0-0.1,0.1-0.1,0.1-0.2
			c0,0.1-0.2,0.1-0.2,0.2c0,0.1,0,0.1,0,0.1c0,0,0,0.1,0,0.1c0,0,0,0,0,0h0v0c0,0.1,0.1,0.1,0.2,0.2c0,0,0,0,0,0.1c0,0,0,0,0,0.1
			c0,0,0.1,0,0.1,0c0,0,0,0,0,0c0,0,0,0,0,0c-0.1,0-0.1,0.1-0.1,0.2c0,0,0,0.1,0,0.2c0,0,0,0,0,0c0,0.1,0,0.1,0.1,0.2l0,0
			c0,0,0,0,0,0h0l0.1,0.1C486.4,78.7,486.3,78.7,486.3,78.6"/>
		<path id="path3251" class="st5" d="M486.7,78.1L486.7,78.1c0,0-0.1,0.1,0,0.1c0,0,0,0,0,0.1c0,0.1-0.1,0.1,0,0.1
			c0,0,0.1,0.1,0,0.2c0,0,0,0,0,0c0,0,0.1,0,0.1,0.1C486.9,78.4,486.8,78.3,486.7,78.1"/>
		<path id="path3253" class="st1" d="M486.3,78.7c0-0.1,0-0.2,0-0.3c0-0.1,0-0.1,0.1-0.2c0,0,0,0,0,0c0,0,0,0,0,0
			C486.3,78.4,486.3,78.5,486.3,78.7L486.3,78.7"/>
		<path id="path3255" class="st1" d="M486.2,78.5L486.2,78.5C486.2,78.4,486.2,78.4,486.2,78.5C486.2,78.5,486.2,78.5,486.2,78.5
			C486.2,78.5,486.2,78.5,486.2,78.5"/>
		<path id="path3257" class="st1" d="M486.2,78.4c0-0.1,0-0.2,0.1-0.3c0,0,0,0,0,0c0,0,0,0-0.1,0.1
			C486.2,78.3,486.2,78.3,486.2,78.4C486.2,78.4,486.2,78.4,486.2,78.4"/>
		<path id="path3259" class="st1" d="M486.2,77.9C486.2,77.9,486.2,77.9,486.2,77.9c-0.1-0.1-0.1-0.2-0.1-0.3h0
			C486.1,77.8,486.1,77.9,486.2,77.9C486.2,78,486.2,77.9,486.2,77.9"/>
		<path id="path3261" class="st1" d="M486.2,77.8c-0.1-0.1,0-0.3,0-0.4c0,0,0,0,0,0C486.1,77.6,486.1,77.7,486.2,77.8
			C486.2,77.8,486.2,77.9,486.2,77.8C486.2,77.8,486.2,77.8,486.2,77.8"/>
		<path id="path3263" class="st4" d="M488.2,78.8C488.2,78.8,488.2,78.8,488.2,78.8C488.2,78.8,488.2,78.8,488.2,78.8"/>
		<path id="path3265" class="st4" d="M489.2,78.8C489.2,78.8,489.2,78.8,489.2,78.8C489.2,78.8,489.2,78.8,489.2,78.8"/>
		<path id="path3267" class="st4" d="M487.2,77.7c0,0,0-0.1,0-0.2c0,0,0,0,0,0C487.3,77.6,487.3,77.6,487.2,77.7
			c0.1-0.1,0.1-0.2,0.1-0.3c0,0,0,0,0,0c0,0,0,0.1,0,0.1c0-0.1,0-0.2,0-0.2c0,0,0,0,0,0c0,0,0,0,0,0c0-0.1,0-0.2,0-0.2
			c0,0.2-0.1,0.4-0.3,0.5C487.1,77.6,487.1,77.6,487.2,77.7C487.2,77.6,487.2,77.6,487.2,77.7C487.2,77.6,487.2,77.7,487.2,77.7
			L487.2,77.7"/>
		<path id="path3269" class="st4" d="M490.2,77.6C490.2,77.6,490.2,77.6,490.2,77.6C490.2,77.6,490.2,77.6,490.2,77.6
			c-0.1-0.1-0.3-0.3-0.3-0.5c0,0.1,0,0.2,0,0.3c0,0,0,0,0,0c0,0,0,0.1,0,0.1c0,0.1,0,0.1,0,0.2c0,0,0-0.1,0-0.1c0,0,0,0,0,0
			c0,0.1,0,0.2,0.1,0.2C490.1,77.6,490,77.6,490.2,77.6L490.2,77.6c-0.1,0-0.1,0.1,0,0.1C490.2,77.7,490.1,77.6,490.2,77.6"/>
		<path id="path3271" class="st7" d="M487.5,77.5L487.5,77.5C487.5,77.5,487.6,77.5,487.5,77.5c0.1,0.1,0.1,0.1,0.1,0.1
			C487.6,77.6,487.6,77.5,487.5,77.5"/>
		<path id="path3273" class="st7" d="M487.6,77.5C487.6,77.5,487.6,77.5,487.6,77.5C487.6,77.5,487.6,77.5,487.6,77.5"/>
		<path id="path3275" class="st7" d="M487.6,77.4c0,0,0.1,0.1,0.1,0.1C487.7,77.5,487.6,77.4,487.6,77.4"/>
		<path id="path3277" class="st7" d="M489.8,77.5C489.7,77.5,489.7,77.5,489.8,77.5C489.7,77.5,489.8,77.5,489.8,77.5"/>
		<path id="path3279" class="st7" d="M489.8,77.5L489.8,77.5C489.8,77.5,489.8,77.5,489.8,77.5L489.8,77.5
			C489.8,77.5,489.8,77.5,489.8,77.5"/>
		<path id="path3281" class="st7" d="M487.6,77.4C487.5,77.4,487.6,77.5,487.6,77.4L487.6,77.4L487.6,77.4"/>
		<path id="path3283" class="st1" d="M487.7,78.7C487.7,78.7,487.7,78.7,487.7,78.7C487.7,78.7,487.7,78.7,487.7,78.7
			C487.7,78.7,487.7,78.7,487.7,78.7"/>
		<path id="path3285" class="st7" d="M488.3,80.5c0-0.1,0-0.2,0-0.3c0,0,0,0,0,0C488.2,80.4,488.2,80.4,488.3,80.5
			C488.2,80.5,488.3,80.5,488.3,80.5"/>
		<path id="path3287" class="st7" d="M487.3,79.4C487.3,79.4,487.3,79.4,487.3,79.4c0.1,0,0.1-0.1,0.1-0.1c0,0,0,0,0,0
			C487.4,79.3,487.3,79.3,487.3,79.4C487.3,79.4,487.3,79.4,487.3,79.4L487.3,79.4"/>
		<path id="path3289" class="st7" d="M490.1,79.4C490.1,79.4,490,79.4,490.1,79.4C490,79.4,490,79.3,490.1,79.4
			c-0.1-0.1-0.1-0.1-0.1-0.1c0,0,0,0,0,0c0,0,0,0,0,0S489.9,79.3,490.1,79.4C490,79.4,490,79.4,490.1,79.4"/>
		<path id="path3291" class="st5" d="M487.9,78.5c0.1-0.3,0-0.5-0.1-0.8c0,0.1,0,0.1,0,0.2c0,0.1,0,0.2,0,0.3c0,0,0,0.1,0,0.1
			c0,0.1,0,0.1,0,0.2c0,0-0.1,0-0.1,0c0,0.1,0,0.1,0.1,0.2C487.8,78.6,487.9,78.6,487.9,78.5"/>
		<path id="path3293" class="st7" d="M488.3,81.4C488.3,81.4,488.3,81.3,488.3,81.4C488.3,81.3,488.3,81.3,488.3,81.4
			C488.3,81.3,488.3,81.3,488.3,81.4C488.3,81.4,488.3,81.4,488.3,81.4c-0.1,0-0.1,0-0.1,0c0,0,0-0.1,0-0.1c0,0,0,0,0,0
			c0,0,0,0.1,0,0.1C488.2,81.4,488.2,81.4,488.3,81.4C488.3,81.4,488.3,81.4,488.3,81.4"/>
		<path id="path3295" class="st7" d="M488.3,81.3L488.3,81.3c0-0.2,0-0.4,0-0.6c0,0,0,0,0,0C488.2,81,488.2,81.2,488.3,81.3
			C488.2,81.3,488.3,81.4,488.3,81.3"/>
		<path id="path3297" class="st5" d="M486.6,77.7C486.6,77.7,486.6,77.7,486.6,77.7c0,0.1,0,0.1,0,0.2c0,0,0,0.1,0,0.1
			c0,0,0.1,0,0.1,0.1C486.7,77.9,486.6,77.8,486.6,77.7"/>
		<path id="path3299" class="st5" d="M486.6,77.5C486.6,77.5,486.5,77.5,486.6,77.5C486.5,77.5,486.6,77.6,486.6,77.5
			C486.6,77.6,486.6,77.5,486.6,77.5"/>
		<path id="path3301" class="st5" d="M489.8,77.4C489.8,77.4,489.8,77.3,489.8,77.4c0-0.3-0.1-0.6-0.3-0.7c-0.3-0.2-0.6-0.3-0.8-0.6
			l0,0c-0.1,0.2-0.3,0.3-0.5,0.4c-0.1,0-0.1,0.1-0.2,0.1c0,0-0.1,0-0.1,0.1c-0.2,0.1-0.4,0.3-0.4,0.6c0,0,0,0.1,0,0.1c0,0,0,0,0.1,0
			l0,0c0,0,0,0,0,0c0,0,0,0,0.1,0c0-0.3,0.1-0.5,0.3-0.6c0.2-0.1,0.5-0.2,0.6-0.4c0,0,0,0,0,0c0.2,0.2,0.5,0.3,0.7,0.5
			c0.2,0.1,0.2,0.3,0.2,0.5C489.7,77.4,489.7,77.3,489.8,77.4L489.8,77.4C489.7,77.4,489.8,77.4,489.8,77.4"/>
		<path id="path3303" class="st7" d="M488.2,78.5c0,0,0.2,0,0.3,0.1v-2c0,0,0,0,0,0c0,0-0.3,0.1-0.3,0.1L488.2,78.5"/>
		<path id="path3305" class="st7" d="M488.9,78.6c0,0,0.1,0,0.2-0.1c0.1,0,0.1,0,0.1,0v-1.8c0,0-0.3-0.1-0.3-0.2L488.9,78.6"/>
		<path id="path3307" class="st7" d="M488.2,80.1l0-0.9l0-0.1c0,0,0,0.1,0,0.2C488.2,79.4,488.2,80.1,488.2,80.1
			C488.2,80.1,488.2,80.1,488.2,80.1"/>
	</g>
</g>
</svg>
