<?xml version="1.0" encoding="utf-8"?>
<!-- Generator: Adobe Illustrator 19.1.0, SVG Export Plug-In . SVG Version: 6.00 Build 0)  -->
<svg version="1.1" id="Layer_1" xmlns="http://www.w3.org/2000/svg" xmlns:xlink="http://www.w3.org/1999/xlink" x="0px" y="0px"
	 viewBox="0 0 400 400" style="enable-background:new 0 0 400 400;" xml:space="preserve">
<style type="text/css">
	.st0{fill-rule:evenodd;clip-rule:evenodd;}
	.st1{fill-rule:evenodd;clip-rule:evenodd;fill:#FFFFFF;}
	.st2{fill-rule:evenodd;clip-rule:evenodd;fill:#BBA756;}
	.st3{fill-rule:evenodd;clip-rule:evenodd;fill:#B1BABF;}
	.st4{fill-rule:evenodd;clip-rule:evenodd;fill:#F15D2F;}
	.st5{fill-rule:evenodd;clip-rule:evenodd;fill:#00BBE5;}
</style>
<g>
	<path class="st0" d="M56.8,280.8c-2.1,5.7-4.8,12.6-4.8,12.6c1.7,1.3,9.5,2.6,9.5,2.6c3.9-3.5,8.7-2.2,11.1-2c2.4,0.2,8.7,5,9.3,5
		c0.7,0,9.5-0.2,18.7,1.1c9.1,1.3,12.6,7.4,13,9.3c0.4,2-1.8,6.3-2.2,8.2c-0.1,0.6-0.1,2.3-0.1,2.3c54.2,15.9,84.8,14.2,84.8,14.2
		s0-0.5-6.2-7.3c-6.2-6.8-20-14.8-31.7-21.5c-11.7-6.7-18.5-12.9-24.1-20c-1.1-1.4-2-3-2.7-4.6h0l0,0c-3-6.7-3.2-14.3-3.2-14.3
		l-0.6,0c0.3,2.7-1,4.3-1.4,6.7c-0.9,1.3-1.1,3.3-2,4.7c-0.3,1.2-1.2,1.7-1.8,2.8c0,0,0,0.1-0.1,0.1l0.1,0.2c-1.4,1.7-3.2,2.7-5,3.9
		c-0.7,0-0.9,0.7-1.6,1c-2.5,1.1-5.4,2.4-7.9,2.7l-0.3,0.3c-2.7,0-5.9,0.7-9-0.1c0-0.2-0.1-0.2-0.2-0.3c0,0.6-0.8,0.5-1.1,0.3
		c-0.3-0.3-1-0.1-1.4-0.3c-0.6,0.3-1.3-0.7-1.9-0.4l-0.5-0.5l-0.1,0.2c-1.4-0.3-2.2-1.5-3.6-1.4c-0.8-1.2-2.5-1.1-3.3-2.3
		c-1.3-0.9-2.6-2-3.7-3.3h0l0,0c-2.2-2.5-4-5.5-5.5-8.3c-2.4-4.5-2.7-9.7-3.9-14.6c-0.8-1.2-2.6-1.6-2.6-3.3
		c1.5-1.2,2.5-2.9,1.9-4.7c-0.7-1.6-1.6-3.1-3.6-3.3c-0.3-0.5-0.7-0.9-0.6-1.6c0.9-0.3,1.6-1,2.4-1.4c2-1.2,2.5-4.1,2.4-5.9
		c-0.1-2-2.1-3.4-3.3-4.6l0.1-1.3c1.6,0.5,3.4-0.6,4.5-1.9c-0.4-1.5-2.1-0.7-2.7-1.7c-0.7,0.5-1.6-1-2,0.3c0.1-0.2-0.2-0.4-0.3-0.6
		c-3.4,0-6-0.6-9.5,0.3c-0.7,0-1.1,0.6-1.9,0.5c-0.4,0.5-1.1,0.8-1.7,1c-0.7,0.8-1.7,1.3-2,2.4c-1.2,0.7-1.5,2.1-2,3.3l-0.3,0.3
		c-0.9,3-0.1,5.9,0.4,8.8c1.5,4.9,4,11.9,0.6,16.9c-0.7-1.3-0.3-3.4-1.4-4.7c-2.3-3.5-5.9-4.8-8.3-8c-0.1-0.2,0.1-0.5-0.2-0.6
		c-0.3,0-0.5,0-0.7,0.3c-0.1,0.5,0.3,1.2-0.3,1.6c-1.3-0.9-1.1-2.7-1.3-4.1c0.4-1.8,0.3-3.6-0.3-5.3c0.1-0.9-0.7-1.7-1-2.6
		c-0.6-0.2-1.4,0.3-1.7,0.7c-0.7-0.2-0.5-1-0.6-1.6c2.2-2,2.2-4.9,2.7-7.6c0.3-1.2-1-0.5-1.3-1.4c0,0.4-0.5,0.3-0.7,0.1
		c-0.1-0.2-0.3-0.1-0.5-0.1c-0.5-1.2,0.9-0.9,1.3-1.6c2.9-3.3,3.3-8.4,7.7-9.9c0.2-0.2,0.3-0.5,0.6-0.5l0.2,0.2l0.4-0.6
		c-2.1-2.1-2.6-4.9-4.4-6.9v-1c1.1,0,2.8-0.2,3.4-1.1c1-0.1,1.9-0.4,2.7-0.9c-0.4-1.6-1.4-3.4-2-5.1c-1-4.4-1-8.1-1.1-12.5
		c0.9-0.2,0.5,1.8,1.4,0.8c0.3-3.5,0.4-6.8,1.6-10.3c0.6-0.1,0.6,0.6,0.9,0.9c0.1,0.4-0.2,0.8,0.3,1c0.8,0.1,0.4-0.9,0.7-1.3
		c1.4-3.4,2.6-7,5.6-9.7l0.9-0.5c0.7,0.7-0.2,2.1,0.7,2.4c0.7-1.6,2.9-2.8,3.2-4.6c0.7-0.5,0.4-1.5,0.8-2.1c0.3-0.6,0.4-1.4,0.6-2.1
		c1.1,0.2,0.8,1.9,1.3,2.9c0,3.4,0,6.5-0.6,9.8c-0.7,1.3-0.3,3-0.7,4.4c-0.1,5.8-0.7,11.4,1.6,16.5c0.5,1.6,1.2,3.1,1.7,4.6
		c1.2,1.1,1.1,2.4,2.3,3.6c0.2,0.8,0.9,1.5,1.2,2.1c2.3,2.7,5.9,5.6,9.1,7.5c0.5,0,0.5,0.8,1.1,0.7c0.8-1.2,0.3-2.9-0.1-4.1
		c0-1.5-2.3-2.5-1-4c0.9,0,1.4-0.7,2.1-0.8c1-0.7,2.2-1.7,2.7-2.9c0.4-2.7-1.1-4.8-3-6.4c-0.1-0.7,0.7-0.9,1.2-1.1
		c2.6-0.1,3.9-3,4.7-5.2c0.8-2.6,0-5.6-2.2-7.6c-0.3-1.1,0.9-0.7,1.4-1c2.7-0.8,4.2-3.8,4.7-6.3c0.7-2.5,0.3-5.5-0.7-8
		c-0.8-3.6-3.3-7-6.3-8.9c-3.5-2.3-9.1-5.3-9.8-10.5c-0.1-1,0.3-2.4-0.4-3.1l-0.3,0.3c-1.7,0.5-3.6-0.1-4.6-1.1v-0.4
		c0.5-0.1,0.9-0.2,1.6-0.1c-0.1-1.1,1.3-0.5,1.1-1.6c1.1-1.6,0.7-3.8,1.4-5.6c-0.2-0.1-0.3-0.4-0.6-0.3l-0.4,0.4
		c-0.3-0.4-0.4,0.2-0.7,0.1c-1.1,0.3-2.2-0.4-3.3-0.8v-1.1c0.5,1,1.2,0,1.7-0.3c0.3-0.9,1.6-1.1,1.7-2.1c-0.9-0.5-3.2,0.8-3.6-0.9
		c-0.1-0.7,0.5-0.7,1-1c0.8-1.3,1.3-2.8,1.9-4c-0.3-0.1-0.5-0.4-0.7-0.6L70,126l-0.6-0.4l-0.3,0.4c-0.6-0.5-0.8-1.4-0.3-2
		c0.6-0.6,1.2-1,1.2-1.9c-0.1-0.2-0.4-0.1-0.6-0.1c-0.3-0.3-1.2-0.5-0.8-1.3c1.6-0.9,3.1-2,2.9-4c0.5-1,1.7-1.4,2.6-2.1l-0.1-0.1
		c0.7-0.4-0.4-1.1-0.5-1.7c0-0.8,1.1-1.3,1.6-1.6c0.6-1,0.4-2.5,2-2.4c0.3,0,0.6,0,0.7-0.3c-0.2-0.9-1-1.9-0.7-2.9
		c0.9-0.8,1.1-0.2,2-0.7c0.1,0.1,0.1,0.2,0.3,0.1c0.2-0.8-0.4-1.9,0-2.9c0.6,0,1.1-0.1,1.9,0.2c1-0.6-0.1-1.7,0.4-2.4
		c0.3-0.1,0.5-0.5,0.7,0c0.6-0.6,1.3,0,2,0l0.6,0.6c0.8-0.7,0.1-1.5,0.1-2.4c0-0.3,0-0.6-0.3-0.7c-0.1-0.7,0.2-2,1.3-1.5
		c0.4,0.5,0.7-0.3,0.8,0.5l0.3-0.3c0.2,0.7,1.1,0.3,1.4,1c0.6-0.8-0.7-2,0.1-2.7v-0.4l1.4,0.1L90,94c0.7,0.4,1.6,0.4,2.4,0.6
		c0.1,0.5,0.8,0.7,1.3,1.1c0.9-0.9,1-2.8,2.3-3.4c0.3-0.6,0.8-0.9,1.4-1.1c0.5-0.6,1.2-0.6,2-0.6c0.7,1-0.7,1.7-0.7,2.7
		c-0.2,1-0.5,2.9,0.6,3.7c0.7,0.3,0.9,1.1,1.6,1.1c0.5-0.7,0.7-1.7,1.4-2c0.2-0.6,0.6-1.3,1.3-1.4l-0.1-0.2c0.2,0.1,0.7-0.7,1.1-0.8
		c0.9-1.3,1.6-2.5,2.6-3.7c1.1,0.7,0.4,1.7,1,2.6c-0.4,0.7,0.1,1.4,0.1,2.1l-0.3,0.3c0.5,1-0.5,2.1,0.3,3c0.9-0.8,1.3-1,2.4-1.3
		c0.2-0.5,0.9-0.4,1.4-0.4c0.9,2.1,0.9,4.8-0.6,6.6c-0.5,1.1-1.9,1.5-2.2,2.7c2.2,1.6,4.1,4.1,5.3,6.4l0.6,0.6l-0.1,0.1
		c1.9,1.8,4.1,3.8,6.4,5.6c0.9,1.3,1.8,2.4,3,3.3c1.5,2,3.1,3.7,3.6,6.2c-0.5,2.5,3,5.4-0.7,7.2c-0.3,0.2-0.9,0-1,0.6
		c-0.8-1.2-1.2,0.6-2.3,0.2c-0.1,0.5-1.2-0.5-1.4,0.4c0.3,0.7,0.8,1.4,1.4,1.7c0.7-0.2,1.2-2,2.3-1.1c1.3,0.6,1.2,2.2,1,3.4
		c-0.1,1.1-1.6,1-1.7,2h-0.6c0-0.2,0.1-0.2,0.1-0.3c-0.1-0.4-0.6-0.4-0.8-0.1l-0.1,0.1l0.1,0.1c0.2-0.1-0.3,0.3-0.6,0.2l0.3-0.3
		c-0.5-0.6-1.5-0.1-2.2-0.4c-1.1-0.6-1.8-2.4-3-1.6c-1.8,0.2-4.6-0.1-6.2-1.4c-0.8-0.3-1.2-1.3-1.9-2c-2.3-1.3-3.3-4.4-6.6-3.4
		c-0.6,0.1-0.3,0.7-0.7,1c0.5,0.8,1.2,1.2,1.6,1.9c0.6,0,0.7,0.6,1.1,0.7c1,0.6,2.1,1.4,3.2,1.7c0.9,0.5,1.5,1.4,2.6,1.6
		c0.9,0.8,1.8,1.6,2.9,1.9l-0.1,0.4c1.1-0.1,1.4,0.9,2.3,1.3c0.2,0.5,1.3,0.7,1.9,1.4c5.4,4.6,9.8,10.6,11.9,17.5l0.3,0.3
		c2.5-3.3,3.5-7.4,5-11.2c1.4-2.7,3.5-5.9,6.3-6.4l0.1-0.2l4.3,0.2c-0.2,0.6,0.5,0.3,0.7,0.6c0.9-0.5,0.8,0.9,1.6,0.5
		c0.7,0.6,1.6,1.2,2.4,1.3c0.1,0.7,1.2,0.6,1.3,1.3c0.1-0.1,0.2-0.2,0.1-0.3c0.5-0.2,0.6,0.8,1,0.3l0.6,0.6c0.1-0.2,0.3-0.1,0.4-0.1
		c-0.1,0.2,0.2,0.3,0.3,0.4c1.7,0.2,2.8,1.4,4.3,1.7c2.9,0.6,5.6,2.6,7.2,5.6c1.3,0.3,1.4,1.7,2.6,2c1.8,0.8,3.5,1.9,5,2.9
		c2,1.6,3.6,3.8,5.2,5.8c0,0.1,0.1,0.7-0.3,0.8c-0.6-0.7-1.2,0.1-1.9,0.1c-0.7,0.8-1.7,1.4-2.6,1.9c-0.7-0.1-1.9-1.3-2.6,0
		c-0.8,0.1-1.7,1.5-2.6,0.8c-1.3,0.4-2.6-0.8-3.9,0c-0.8,0-2.2-0.4-2.9-0.7c-0.7,0.1-1.5-0.3-2.3,0.3c-0.2-0.7-1.4-0.9-1-1.9
		c0.6-1,0.6-2.5,0.6-3.6c-0.1-1.4-0.3-2.8-1.1-3.7c-0.1,0.5-0.6,0-0.8,0.4c-2.4-0.4-3.1-2.8-4.9-3.9c-0.8-1.1-2.2-1.1-3.2-2.1
		c-1.2-0.2-2.5-0.6-3.6-0.8c-1.3,0.5-2,1.8-2.7,3c0,1.7-1.3,3.2-0.6,4.8h0.1c0,0,3.1-6.2,11.1-2.1c0,0,2.8,0.8,3.7,7.6l-1.1,4.1
		c0,0,6,2.8,13.2,1.5c7.2-1.3,12.5-4.6,12.5-4.6s0.5-1.5,1-2c0.5-0.5-0.5-1.6-1-2.8c-0.5-1.1-0.3-3.9,0.3-5.7c0,0,1.3-0.7-1.1-0.2
		c-2.4,0.5-8,1.3-10.2-0.2c-2.3-1.5-6.3-4.9-2.8-8.8c0,0,1.5-0.7,2-1c0.5-0.3,0.2,0.2,0.3-2.1c0.2-2.3,0-55.6,0-55.6
		s-1.3-2.6,0.3-4.4V63.7c0,0-1.3-2.8,0.6-5.4l-0.4-32c-5.4-2.9-4.2-5-4.3-7.7c-0.1-2.7,2.5-6.2,7.2-6.3c4.7-0.1,6.5,4.8,7.1,6.7
		c0.5,2,0,1.8,0,1.8c2.4-1,3.1-1.2,10.2-1.4c7.1-0.2,13.5,2.4,19,4.9c5.5,2.5,13.1,5.5,18.7,7.2c5.5,1.6,10.4,2.2,13.8,2.6
		c3.4,0.4,6,0.7,15,0.2c9-0.4,15.3-4,15.3-4L274,31c-6.9,14.5-21.5,16.7-32.6,18.3c-11.2,1.6-20.2-0.5-23.9-1
		c-3.7-0.4-19.7-3.5-27.8-3.8c-8-0.3-12.8,3.5-12.8,3.5l0,0c-0.3,2.7-1,5.9,1.1,8c2.1,1.6,1.3,4.6,2.9,6.4c1.9,2.5,4.2,4.2,5.9,6.9
		c0.7,0.3,0.7,1,1.1,1.6c0.9-1.1,1.7-2.8,2-4.5c0.6-1.6,2.3-2.6,4-3.3c0.7-0.9-0.2-2.2,0.7-3.2c0.4-1.6,1.3-3,2-4.4
		c0.2-0.1,0.3,0.2,0.4,0.3c-0.2,0.6,0.3,0.7,0.6,1c0.6-2,2.8-3.1,4-4.6c0.7,0,0.7-0.9,1.4-0.7c0.5-0.7,0.6-1.5,1.6-1.6l-0.1-0.1
		l0.6,0.6c1.2-0.7,1.6,1.9,2.6,0.2c0.4-0.2,0.3,0.3,0.4,0.4c2.1-0.1,3.5,1.5,4.3,3.3c-0.1,0.3,0.2,0.5,0.3,0.7c0.1,0,0.4,0,0.4-0.1
		c-0.1-0.4,0.1-0.4,0.4-0.6c0.9,1.4,2.4,1.9,2.3,3.7c-0.3,1.4-1.6,3-0.5,4.4c0.2,1.1-0.7,2.4-1.6,3c-0.7,0.2-1.5,0.6-2,1.3
		c-0.3,0.8,0.5,1.3,1,1.4c0.2-0.1,0.1-0.3,0.1-0.4c0.5,0.1,0.8-0.3,1.3-0.1c0.2,1.8-1.8,2.8-2.7,4c0.3,1.8-0.1,3.2-1.4,4.6
		c-2.5,1.1-3.7,3.9-5.7,5.4c-2.2,4-1.2,8.7-0.8,12.9c0.4,1.5,0.9,3,1.7,4.2c0.2,0.3,0.7,0.1,1,0.1c1.1-1.2-0.5-4,1.4-3.9
		c0.6-0.8,0-2.3,0-3.3c-0.4-3.7,0.9-7.5,4.1-9.4c0.5,0.1,0.9-0.4,1.3-0.2c1.1-0.9,1.2-2.8,2.7-3.4l0.1-0.5c0-0.2,0,0.6,0.4,0.3
		c0.2-0.7,0.9-0.5,1.4-0.7c0,0.2,0.1,0.2,0.2,0.3c0.2-1.2,2.3-0.7,3.1-1c0.9-0.6,2.2-0.5,2.7-1.7c0.1-0.7,0.1-1.6-0.7-2
		c-0.5,0.2-0.5-0.3-0.7-0.6c0.2-0.8,1.6-0.6,2.3-0.4c0.2,0.3,0.5,0.3,0.7,0.3c1.2,0.8,2.3,1.7,2.9,3c0.5,1.2-0.3,2.4-0.2,3.4
		c1-0.5,1-1.8,1.6-2.7c-0.2-0.6,0.6-0.8,0.7-1.3c0.1,0,0.4,0,0.4-0.2v-0.3c0.5,0,1.3,0,1.6-0.6l1.4,0.1l-0.1,0.2
		c0.4,0.1,0.9-0.4,1.4,0c0.2,0.4,1.1-0.1,1,0.7c-0.3,1-1.5,1.2-1.9,2.1c-2.2,2.8,1.1,7.2-2.9,8.9c-1.7,0.6-2.7,1.1-4.6,0.8
		c-0.7,0.6,0.3,1.4-0.3,2.1c-0.3,0.3-0.1,0.9-0.2,1.1c-0.4,0.3-0.3,0.9-0.6,1.3c-1.2,0.8-1.7,2.6-3.3,2.3v0.3l-2.9-0.1
		c0.3,0,0.6,0.1,0.9-0.2c-1.7,0.3-2.4-1.4-3.3-2.3c-0.7-1.4-1.3-3.1-0.9-4.6c-0.1-0.2,0.2-0.3,0.3-0.4l-0.1-0.2h0.6
		c1.1,1.2,1.1,3.3,2.9,3.9c0.5-1,1.6,0.2,1.7-1.1c0.3-1.8-0.9-3.4-2.1-4.2c-1.5-0.5-2.9-0.4-4.3,0.5c-1.9,0.3-2.7,2.5-3.2,4.1
		c0,1.4-0.7,4.1,0.6,5.4l0.3-0.1l5.5-0.2c0,0,0.5,0.1,0.5,1c0,0.9-0.4,6.7-1,7.2L216,103c0,0-2.4,3.5-3.3,4.1
		c-0.9,0.6-1.7,0.9-1.7,0.9s-0.2,0.3-0.4,0.8c-0.2,0.4,0.8,0.4,0.7,1.3c-0.1,0.9-1,1.1-1.2,2.3c-0.2,1.2,0.2,16.2,0.2,16.8
		c0,0.7,0.4,2,1.8,2c0,0-0.2,1.7,0,3.1c0.2,1.4,0.2,5.1,1.1,5.4c0.9,0.3,0.9,0.3,0.9,0.3s0.5,2.8,1.3,8c0,0,1.4,1.1,2.6,1
		c0,0,0.5,0.9,1.1,0.8c0.5-0.1,2.6-1.6,6.3-1.2c0.7,0.1,1.1,0.1,1.6,0.5c0.3,0.2,0.8,0.5,1.3,0.7c1.4,0.9,2.4,2.5,2.4,4.2
		c0,1.9-1.1,3.6-2.8,4.5c-0.8,0.3-1.6,0.6-2.5,0.8c-2.6,0.9-7.2,0.2-9.4-0.2c-2.4-0.5-1.1,0.2-1.1,0.2c0.7,1.8,0.8,4.6,0.3,5.7
		c-0.5,1.1-1.5,2.3-1,2.8c0.5,0.5,1,2,1,2s5.4,3.3,12.5,4.6c7.2,1.3,13.2-1.5,13.2-1.5l-1.1-4.1c1-6.8,3.7-7.6,3.7-7.6
		c8-4.1,11.1,2.1,11.1,2.1h0.1v-2.2c-0.2-0.8-0.6-1.7-0.6-2.6c-0.7-1.2-1.4-2.5-2.7-3c-1,0.2-2.4,0.6-3.6,0.8
		c-0.9,1-2.4,1.1-3.2,2.1c-1.8,1.1-2.5,3.5-4.9,3.9c-0.3-0.4-0.8,0.1-0.8-0.4c-0.8,0.9-1.1,2.4-1.1,3.7c-0.1,1.1-0.1,2.6,0.6,3.6
		c0.4,0.9-0.8,1.2-1,1.9c-0.7-0.6-1.5-0.2-2.3-0.3c-0.7,0.3-2,0.7-2.9,0.7c-1.3-0.8-2.6,0.4-3.9,0c-0.9,0.7-1.8-0.7-2.6-0.8
		c-0.7-1.3-1.9-0.1-2.6,0c-0.9-0.5-2-1-2.6-1.9c-0.6,0-1.3-0.8-1.9-0.1c-0.4-0.1-0.3-0.7-0.3-0.8c1.6-2,3.2-4.2,5.2-5.8
		c1.5-0.9,3.3-2.1,5-2.9c1.1-0.3,1.3-1.7,2.6-2c0.3-0.7,0.7-1.3,1.2-1.8l0.1,0l0-0.1l0,0c1.1-0.9,2.3-2.1,3.7-2.5
		c0.6-0.2,1.5-0.7,2.1-0.7c0.8-1,2.2-0.7,3.2-1.6c1.2,0.2,1.8-1.2,2.9-0.9l0.3-0.4l0.3,0.1c0.1-0.1,0.1-0.2,0.2-0.3l0,0
		c0,0,0,0,0-0.1c0.6-0.6,1.8-0.7,2.3-1.3c1.7-0.3,2.8-1.7,4.4-1.9c2.1-0.4,4.9-0.2,6.4,1.4c4.6,4.3,4.9,10.6,8,15.6
		c0.4,0.2,0,1,0.7,0.9c1.6-3.3,2.3-7.2,5-9.9c1.4-2.6,3.6-4.7,5.6-6.9c0.6-0.5,1.1-0.9,1.9-1.3c0.5-0.4,1.2-0.9,1.7-1.3l0.8-0.4
		l-0.2-0.1c1.2-0.3,1.4-1.2,2.6-1.4c0.1-0.4,0.3-0.6,0.7-0.7c0.6,0.1,0.5-0.7,1-0.7c2.1-1,4.2-2.3,6-3.6c0.8-0.4,2.2-1.2,2.4-2.3
		c-0.5-1.3-2.1-0.5-3.2-0.7c-0.6,0.2-1.1,0.7-1.7,1.1l-2.7,2.3c-0.5,0.9-1.5,1.8-2.3,2.4c-0.5,0-0.8,0.1-1.1,0.4
		c-1,0.2-2.5,0.2-3.5,0.6c0,0.7,0.1-0.3-0.3-0.3c-0.5,0-0.9,0-1.1-0.4c-0.1,0.3-0.4,0.5-0.7,0.4c-0.4,0.8-1.5,0.8-1.7,1.6
		c-0.8,0-1.7,0.4-2.4,0.3l-0.3,0.6c-0.1-1.4-2.9-0.2-2.7-2.1c0-0.3,0.1-0.7-0.3-0.9c0-1.1,0.7-2.1,1.3-2.7c1.2-0.8,2.9,3,3.6-0.2
		c-0.3-1.2-2.1-0.6-2.9-1.1c-0.7,0.6-1.5-0.6-2.1-0.7c-0.9-0.3-0.7-1.3-1.1-1.9c1-3.1,0.6-6.9,3.2-9.3c0.4-0.9,1.6-1.2,1.8-2.2
		c1.5-0.9,2.2-2.6,3.7-3.4c1.6-1.2,3-2.7,4.5-4.2l-0.2-0.1c2.1-0.9,2-3.6,4-4.9v-0.3l2.7-2.6c0.1-1.3-1.6-1.9-2.2-3.2
		c-0.5-1-1-2.1-1-3.4c0.5-1,0.2-2.6,1.2-2.9h0.3c0,0.1,0,0.4,0.2,0.4c0.1,0,0.4,0,0.4-0.2h-0.1v-0.3h0.1c0.2,1,1.3,0.9,2,1.4
		c0,0.2,0.3,0.4,0.4,0.6h0.3c-0.3-2.2,0-4.6,0.3-6.7c0.2-0.5,0.6-1.2,1-1.1c1.4,1,1.3,3.2,2.9,4c0.9,1.2,2.5,2.4,3,3.9l-0.2,0.2
		c0.2,0.2,0.5,0.1,0.7,0.1c-0.2-0.4,0.4-0.6,0.7-0.7c1.2-0.9,1.3-2.7,1-4.2c0-1-1.2-1.7-0.8-2.7c2-0.6,3.2,1.5,4.4,2.6
		c0,0.7,0.7,1.1,0.9,1.7c-0.1,0.4,0.4,0.6,0.4,1c1.1-0.5,2.3-2,3.5-1.5c0.2-0.1,0.1-0.3,0.1-0.4h1.6c0.7,1-0.7,1.9,0.2,2.9
		c0.8-0.6,2-1.1,3-1.1l0.4,0c0.6,1.5-0.5,3.1-0.1,4.3c0.8,0.6,1.4-1.1,2.1-0.1c0.1-0.6,0.7-0.2,1.1-0.3c0.6,0.5,0.2,1.6,0.3,2.4
		c0.8,0.3,1.5-0.6,2.3,0.3c0,1,0.1,1.5-0.3,2.4c0.2,0.6,0.8,0.2,1.3,0.3v0.2c0.5-0.2,1.2,0.2,1.4,0.7c0.2,1.2-2,2.1-0.7,3
		c0.4-0.3,1.2,0,1.6,0.3c0.2,1,0.6,2,1.4,2.6c0.7,0,0.6,0.6,0.8,1l-0.7,1.4c0.9,1.3,2.4,1.5,2.7,3c-0.3,1.6,1.1,2.5,2.2,3.2
		c0.4-0.1,0.7,0.2,0.7,0.4c0.5,1.8-2.6,0.6-1.3,2.4c0.4,0.6,1.6,1,1.1,2c-0.5,0.8-1.4,0.8-2.2,0.6l-0.1-0.2l-0.3,0.4
		c1,1.5,1.1,3.7,2.9,4.5l0.2,1c-0.6,0.2-1.4,0-1.7,0.7c-0.3,0,0.3,0,0.1-0.3c-0.6-0.3-1.3-0.3-2-0.3c0.1,1.1,1.3,1.8,1.9,2.7
		c0.5,0.3,2.1-0.1,1.4,1c0,0.8-0.9,0.1-1.1,0.7c-1.4,0.4-2.4-0.1-3.5-0.6c-0.6,1,0.2,1.7,0.1,2.9c0.1,1,0.4,1.5,0.3,2.4
		c0.4,0.8,1,1,1.3,1.9h0.3c0.2,1.1,1,0,1.6,0.6c0,0.8-1,1.2-1.6,1.6c-0.3,0.2-0.6,0.1-0.7-0.1c-0.9,1.2-2.3-1.2-2.9,0.7
		c-0.2,3.1-1,6.3-3.7,8c-0.5,0.8-1.3,1.4-2.1,1.7c-1.2,1.3-3,1.9-4.4,3.2c-2.2,1.8-4.4,3.7-5.2,6.4c-2.2,4.5-2.5,9.8,0.2,14.2
		c0.8,0.8,1.9,2,3,2c0.5,0.7,1-0.1,1.4,0.6c0,1.8-2.4,2.2-2.1,4c-0.7,3.5,0.3,6.7,3,8.9c1,0.7,2.4,0.1,2.6,1.6
		c-0.4,0.8-1.5,0.8-1.7,1.9v0.3c-0.6-0.5-0.4,0.6-0.9,0.8c-0.1,1-0.7,2.2-0.3,3.4c0.4,1.2,1.4,1.8,2.3,2.6c0.8,1,3.5,0.7,2.7,2.6
		c-1.6,1.7-1.9,3.9-1.9,6.3c0.9,0.7,1.6-1.1,2.3-0.7c1.3-1,2.6-2.1,3.9-2.9c3.9-2.3,5.7-6.7,8.2-10.3c1-2.4,2-4.9,2.7-7.5
		c0.2-1,0.3-2.5,0.4-3.4c0.6-3.8,0.1-7.9-0.1-11.7c-0.5-0.7,0.1-1.8-0.6-2.4c0-2-0.5-4.3-0.3-6.3c-0.7-1.6,0.2-3.1,0.3-4.6
		c0.2-0.5,0.1-1.1,0.7-1.4c0.9-0.4,0.2,1.2,0.6,1.4c0.3,2.9,2.5,5.3,4.2,7.5h0.3l0.3-2.3c1.4,0.2,2.1,1.8,3.2,3
		c1.7,2.5,2.7,5.4,3.9,8.2c0.2,0.1,0.3-0.2,0.4-0.3c-0.2-0.7,0.4-1,0.6-1.6c0.7,1.1,1,2.7,1.3,4.1c0.5,2.2,0.1,3.6,0.4,6l0.4,0.4
		l0.8-1.1l0.3,0.3c-0.7,5.9,0.1,11.5-3.5,16.6c-0.2,0.6,0.5,0.9,0.9,1.1l0.6-0.2c-0.1,1,0.7,0.1,1.1,0.6c1,0.5,2.5,1.5,3.3,0.8
		c1,1.2-0.6,2.3-1.3,3.4c-0.6,1.8-1.6,3.1-2.9,4.6c0.9,0.8,2.2,1.4,3.3,2.1c1.6,1.1,2,3,3,4.4c0.1,1.6,1.4,2.7,2.1,4
		c0.3,0.7,1.4,0.6,1.6,1.4c-0.5,0.1-0.9,1.3-1.4,0.4c-1.9,0.8-0.6,2.4-0.7,3.9c-0.2,2.7,2.4,3.5,2.4,6.1c-0.7,0.5-1.4-0.3-1.9-0.4
		l-0.1-0.2c-1.6,1.4-1.7,3.4-2.1,5.5c0.2,2.1,0.3,4.6-0.6,6.4c-0.9,0.2-0.6-0.9-0.8-1.3l0.1-0.1c-0.2-0.3-0.4-0.3-0.7-0.3
		c-0.7,1.4-1.9,2.9-3.3,3.6v0.3c-1.8,1.2-3.6,2.5-4.9,4.2c-1,1.5-1.4,3.4-1.6,5.1c-2.6-2.6-1.6-7.4-1.4-10.6c0.1-0.3,0.6-0.7,0.3-1
		c1.7-5.1,4.7-11.3,0.9-16.6c-2.9-5.2-8.7-5.6-13.8-5.2c-1.4,0.4-3.2,0.4-4.6,0.7c-0.6,0.1-1.2,0.6-1.9,0.6c-0.2,0.5-0.8,0.4-0.6,1
		c1,1.3,2.4,1.5,3.7,2.1l0.3-0.4c0.4-0.1,0.5,0.9,0.4,1.6c-2.1,1-3.2,3.1-3.3,5.4c0.4,2.6,2,5.1,4.6,6c0.2,0.3,0.4,0.8,0.1,1.1
		c-0.3,0.4-0.7,0.6-1.1,0.7l-0.2-0.1c-1.6,1.1-3,2.4-3,4.4c0.2,1.4,0.8,2.7,2,3.6c-0.2,1.9-2.4,2.2-2.9,3.6
		c-0.2,2.4-0.8,4.6-1.2,6.9c-0.5,0.3-0.1,1-0.4,1.4c-1.5,5-3.9,9.6-7.4,13.6h0c-0.9,1.1-1.9,2.1-3,3.1c-1.4,0.7-2.3,1.8-3.9,2.3
		c-0.9,0.5-2.2,1.3-3.5,1.7c-2.4,1.2-4.7,1.3-7,1.6h-4.2c-0.5-0.5-1.3,0.2-2,0c-0.4-0.6-0.8-0.1-1.4-0.5c-1.8-0.1-3.6-0.8-5.1-1.9
		c-1,0-2.2-0.6-3-1.3c-1.4-0.2-2.1-1.3-3.2-1.9c-1.4-0.7-2.6-1.9-3.6-3.2h0l0,0c-0.9-1.3-1.6-2.7-2.2-4c-0.9-2.4-1.4-4.9-2.4-7.3
		c-0.2-0.7,0.4-1.9-0.5-2.1l-0.1-0.1c-0.3,4.4-1.6,9.1-3.8,13.6h0c-2,4.2-4.9,8.3-8.6,11.8c-7.6,7.2-25.1,17.2-25.1,17.2
		c-19.8,10.1-23.4,15.6-27.8,19.8c-4.4,4.2-3.3,4.9-3.3,4.9c57.8-3.4,82.8-13.5,82.8-13.5s-1.1-4.9-1.6-7.8
		c-0.5-2.9-0.7-2.9,2.1-6.7c2.8-3.7,8.8-4.6,15.3-5.5c6.5-1,14.6-0.2,14.6-0.2c2.9-3.6,10.7-5.4,13.8-5.2c3.1,0.2,6.5,2.8,6.5,2.8
		c1.1-0.3,8-2.4,8-2.4c0-2.2-2.4-10-4.2-15.2h0c-0.6-1.7-1.1-3.2-1.5-4c-1.5-3.4,1.6-4.4,1.6-4.4s3.6-2.1,8.9-4.2
		c5.4-2.1,14.8-3.9,18.1-3.7c3.3,0.2,6.7,4.1,7.3,6.2c0.3,1.1,1.8,5.3,3.5,10.2h0c1.7,4.9,3.6,10.4,4.9,14.4
		c2.6,8,2.9,11.5,2.9,11.5c-0.6,6.5-6.7,12.9-14,18.4c-7.3,5.5-24.7,12-24.7,12s0-2.3,2,6.2c2,8.5-6.5,12.7-6.5,12.7
		c-23.8,11.7-69.6,29.6-141.5,29.9c-75.9,0.4-120.1-20.1-139.1-28.5c-13.2-5.9-12.4-9.3-13-13.2c-0.6-3.9,2-8.7,2-8.7
		c-23.6-8.9-32.3-18.9-36-24.1c-3.7-5.2-1.7-10.2-1.7-10.2s4.9-14.6,7-20.5h0c0.1-0.2,0.1-0.4,0.2-0.6c2-5.4,3.9-12.4,7.8-16.1
		c3.9-3.7,5.9-2.6,14.1-1.1c8.2,1.5,15.4,5.9,17.1,7.2c1.7,1.3,2.4,3.5,2.4,3.5C59.1,274.7,58,277.6,56.8,280.8L56.8,280.8
		L56.8,280.8L56.8,280.8z M122.3,280.8h0.2H122.3L122.3,280.8L122.3,280.8z M136.4,194.4l-0.4,0.7c0.9,2.2,3.8,3.5,4.7,5.6
		c0.4-1.6-0.1-2.8-0.3-4.4c0.5-2.3-2.4-1-3-1.6C137.1,194.2,136.7,195.2,136.4,194.4L136.4,194.4z M130.9,207.3
		c-0.6,0.6-1.3,1.5-1.4,2.4c-3.2,4.4-5.5,9.4-9.2,13.4c-1.9,2-2.9,4.4-4.7,6.3c-0.8,1-2,2.2-2,3.4c1.5,0.8,2.6,2.2,3.7,3.4h0.3
		c0.7,0.6,0.9,1.7,1.9,2.1c0.9,2.1,3,3.6,3.6,5.8c1.5,1.9,2.4,4.3,3.4,6.6c0.7,3.1,2.1,6.1,1.6,9.6h0.3c0-3.4,0.5-6.8,0.7-9.9
		c1.3-2.2-2.6-2.4-2.3-4.7c0.5-0.8,1.1-0.3,1.7-0.6c0.7-0.2,1-1.2,1-2c-0.5-0.7-0.9-1.8-1.7-1.7c-0.2-0.2-0.5-0.4-0.6-0.7
		c0-0.4,0-1.1,0.6-1.4c0.1,0,0.4,0,0.4,0.1c0.7-0.6,1.5-0.6,2.3-1c0.2-0.9,1.2-0.5,1.6-1.1c2.2-6.1,3.8-12.3,5.3-18.6l-1.3-3.3
		c-1-1.8,0.2-3.2-0.4-4.8C134.9,208.6,132.4,208.3,130.9,207.3L130.9,207.3z M104.6,243.4c-3.4,2.8-6.7,6.6-9.7,9.9
		c-1.3,1.9-3,3.5-3.7,5.9c-0.7,0.4-0.5,1.3-1,1.9c-0.1,1.1-0.5,2.2,0.2,3.3c1.2,1.6,2.7,3.3,4.7,3.6c0.1,1,0.9,0,1.1,0.7
		c0.7,0.4,1.3,0.2,1.9,0.3c0.5,0.5,1.7-0.3,2.3,0.1c0.5-0.8,1.4,0.5,1.7-0.6l0.1,0.2c0.2,0.2,0.9,0.2,0.6,0.1c0.4-0.5,0.7,0.3,1-0.4
		c1.5-0.3,2.8-1.2,4.1-1.9c0.1,0.1,0.2,0.1,0.2,0.3c0.4-1.2,1.8-1.5,2.6-2.4c0.4-1.6,2.2-2.2,2.4-3.9c0.4-2.8,1.2-5.9,0.3-8.8
		c-0.5-0.4-0.2-1.2-0.9-1.3c0,0.3,0.1,0.6-0.1,0.7c-0.7-0.3,0.1-0.7-0.2-1.1c-1.6-1.5-2.6-3.5-4.7-4.5
		C106.7,244.7,105.6,244.2,104.6,243.4L104.6,243.4z M176.8,74v10.5l0.8,0.6c0.6-0.4,1.7,0.9,1.9-0.3c1.6,0.1,2.1-1.8,3.3-2.6
		c0.7,0,0.8-0.4,1.4-0.6c0-0.4-0.2-0.6-0.5-0.9c-1-0.3-2.2-0.1-2.9,0.6c-1.9-0.3-0.5-2.8-1.1-4c-1,0.1-1.6-0.7-2.4-1
		c-0.1-0.4-0.4-1.3,0.3-1.3c0.3-0.8-0.5-0.4-0.6-1L176.8,74L176.8,74z M176.2,148.2c0,0,3.3,0,4.7-0.9c1.4-0.9,1.6-5.5,1.7-6.7
		c0.1-1.2,0.7-1.2,0.7-1.2l1.2-0.2c0,0,1.1-6.9,1.3-7.9c0.2-1,0.1-0.7,0.1-0.7l1.2-0.4c0,0,1.1-17,1.2-17.6c0.1-0.5-0.5-1.6-0.9-1.6
		c-0.3,0-1.7-0.6-0.8-2.6c0,0-0.6-0.8-1.7-1c-1.1-0.2-3-1.8-3.7-3.1c-0.6-1.3-2.6-1-2.6-1c0,0-1.2-3.9,0.1-8.8l5.7,0l0.3,0.3
		l-0.2-0.2c0.5-0.2,0.3-0.9,0.3-1c-0.5-0.1-0.9-0.4-1.4-0.3c-1.9,0.8-4,0.3-6,0.4c-0.4-0.7-0.5,0.1-1,0.1
		c-0.1,17.8-0.6,36.4-0.3,54.1L176.2,148.2L176.2,148.2z M259.9,195.2c-0.7,0.2-1.2,0.1-2,0.1c-0.9,1.7-1.1,3.9-1,5.9h0.1
		c0.9-2.1,3.8-3.1,4.6-5.6C261.3,194.4,260.4,196,259.9,195.2L259.9,195.2z M266.6,207.9l-0.4,0.5l-0.2-0.2c-1.4,0.7-3.1,1.3-4,2.9
		c-0.1,1.5,0.4,3.2-0.4,4.5c-0.1,1.9-2.4,3.3-1.1,5.1c0.3,1.3,0.6,2.8,0.8,3.9c0.5,1.1,0.6,2.4,1.1,3.4c0.2,1.8,0.9,3.4,1.4,5.1
		c0.4,0.5-0.1,1.3,0.4,1.7c0.3,1.9,0.8,3.6,2.9,4.3c1,0.6,2.7,0.4,3,1.9c-0.1,0.4-0.3,1-0.8,1c-0.5,0.7-1.9,1.3-1.6,2.4
		c0.3,1.2,1.5,1.4,2.6,1.6c0.9,1.9-1.5,2.1-2.3,3.6c-0.5,0.8,0.3,1.4,0,2.3c0.6,2.5,0.6,5.9,0.6,8.5l0.4,0.1c0-2.6,0.3-5.7,1.4-8.2
		c0.2-0.8,0.7-1.6,0.9-2.4c2.9-5.5,6.3-11.4,11-15.5c0.6-0.2,1.5-1,1.4-1.6c-1.1-1.9-2.6-3.3-3.9-5c-2.5-4.3-6.2-7.8-8.2-12.2
		C270.1,213.2,268.4,210.3,266.6,207.9L266.6,207.9z M292.6,243.8c-1.8,1.5-3.8,2.8-5.5,4.3c-1.4,0.7-1.8,2.2-3,3
		c-0.6,2.5-1.3,5-0.6,7.6c0,2.7,1.7,4.8,3.3,6.7c1.3,1.4,3.2,2.1,4.9,3c0.7,0.5,1.6,0.5,2.3,0.9l0.3-0.3c0.8,0.6,2.1,0,2.7,0.6
		c3.8,0.1,7.2-1.7,9.5-4.9c1-1.7,0-3.5-0.7-5c-0.4-1.6-1.6-2.8-2.4-4.2c-2.8-4.5-7.1-7.9-10.5-11.7H292.6L292.6,243.8z"/>
	<path class="st1" d="M178.6,16.5c0.9,0.7,0.7,2,1.1,3c-0.2,1.2-1.2,1.9-2,2.6c-0.5-1,1-1.6,0.9-2.6c0.4-1.9-1.6-2.7-2.3-3.9
		c-0.9,0.6-1.1-1.2-2-0.2c-0.6-0.7-1.1,0.7-1.9,0.4c-1.5,1.3-2.3,3-1.7,4.9c0.2,1.2,2.1,1.8,1.4,3.2c-1.3-0.6-2.4-1.9-2.9-3.3
		c0.3-1.7-0.2-3.2,1-4.5c0.6-0.3,1-1,1.6-0.8c1.1-0.5,2.7-1.5,3.7-0.7C177,14.9,177.6,15.5,178.6,16.5L178.6,16.5z"/>
	<path class="st1" d="M175.4,19c0.3,0.7,0,1.6-0.3,2.3c0.1,10.7,0.4,21.7,0.1,32.2l-1.3,1.3l-0.3-0.6c0.4-11.8-0.2-23.5,0-35.1
		l0.6-0.7C174.5,19.1,175,18.3,175.4,19L175.4,19z"/>
	<path class="st2" d="M208.5,54.2c0.8-0.3,0.2-1.5,1.3-1.3c1.6,1.3,1.3,3.5,2.7,4.8c0.6,0.2,0.7-0.7,1.3-0.6l-0.1-0.1h0.3l-0.2,0.1
		c0.5,0.3,0.7,0.6,0.6,1.1c-0.7,0.7-1.5,1-2.4,1.3c-0.4,0.4-0.5,0.9-0.1,1.4c0.6,1.3,0.8-0.6,1.6,0c0.5,0.7,0.7,1.8,0.4,2.7
		c-0.4,0.5-0.9,0.6-1.4,1c-0.1-0.6,0.5-1.3,0.5-2l-0.7-0.7l-0.9,0.8c0-0.7-0.5-0.7-0.7-1.3c0.5,0.2,0.6-0.3,0.7-0.6
		c0-1.3-1.4-1-1.9-1.9c-0.7-0.2-0.6,0.6-1.3,0.6c0.3,0.5-0.5-0.7-0.4-1.1c-0.5-1.3-1.4-0.2-2.1,0l-0.6,0.8l-0.3-0.4
		c0.4-1.3-0.2-2.6,0.4-3.6c-0.6-1.1-0.1-2.6,0.1-3.7C206.2,52.5,207,54,208.5,54.2L208.5,54.2z"/>
	<path class="st2" d="M177.4,57.5c0,0.8-1,0.5-1,1.3c0,0.8,0.6,1.7,0,2.4c-0.7,0.4-0.6,1.5-0.5,2.3c0.9,1-0.8,1.7-0.4,2.9h-0.3
		c-0.6-1.9-3.5-3.6-1.8-5.7c-0.6-1.1,1-1.7,0.7-2.9c1-0.6,1.1-1.8,1.4-2.7C176.3,55.6,176.8,56.7,177.4,57.5L177.4,57.5z"/>
	<path class="st2" d="M200.2,57.1l1,0.1c0,0.8-0.7,1.8,0.1,2.4c0.3,0,0.8-0.1,1,0.2c0.2,0.6-0.5,0.3-0.7,0.6c-0.1,0.8,0,1.7,0.9,2
		c0.6,0.2,1.1,0.2,1.7,0c-0.1-0.2,0.2-0.3,0.3-0.4h0.5c-0.2,0.2-0.2,0.5-0.5,0.7c-0.9,0.1-1.6,0.2-2.1,1c-1-0.9-1.2-2.2-1.3-3.6
		c-0.1-0.3-0.4-0.5-0.7-0.4c-0.8,0.8-0.9,2-1,2.9c0,0.4-0.3,0.7-0.2,1.3c-0.4,0.2-0.4,0.7-0.6,1.1c-0.7,1.1-1.1,2.9-0.7,4.4
		c-1.5,2.4-4.5,1.9-6.4,2.7c-0.3,0-1-0.1-1.3,0.3l-0.5,0.6c-0.8-0.7,0.2-1.3,0.3-2c0.8-0.9,2-1.3,2.9-1.4c1-0.2,1.6-0.8,2.4-0.9
		c0.4-0.9,2.4-1.6,1.1-2.9c-1.1,0.1-1.3,1-2.1,1.4c-0.1,0-0.4,0.1-0.4-0.1c-0.5,0.8-1.8,0.6-2.3,1.4h-0.3c0.1-1.9,1.5-2.9,3-3.9
		c0.9-0.3,1.4-0.1,2.1,0.4c0.3-0.5,0.6-1.2,0.3-1.9c-0.8-0.5-0.9-1.5-0.7-2.3c0.5-0.5,0.3-1.3,0.6-1.9c0.7-0.3,0.5,0.5,0.7,0.7
		c0.7,0.2,0.9,2,1.9,1c0.8-0.8-0.3-1.5-0.1-2.4l0.8-1.9C199.9,56.7,200.4,56.7,200.2,57.1L200.2,57.1z"/>
	<path class="st2" d="M178.7,60.5c0,1.1,0.8,2.2,1.3,3.3c0.9,1.3,1.9,2.5,3.1,3.4c0.1,0.5,0.6,0.8,0.7,1.2c1.6,1.8,4,3.8,3.3,6.3
		c0.2,1.8-1.1,3.7,0.4,5.3c0.4,0.9-0.7,0.7-1,1.1c-0.5-1.1-1.7-1.8-2.6-2.4c-0.8-0.1-1.4,0.2-2,0.6c-0.3-0.6,0.2-2.7-1-3.3
		c-0.5-0.2-1.1-0.1-1.4-0.7c0.2-1,1.4-0.3,1.7-1.1c0.3,0,0.6,0,0.7-0.3l-0.1-0.1c0.5-0.1,0.5-0.7,0.3-1c-0.6-0.4-1.3,0-1.7,0.6
		l-2.3-0.3c0.1-0.2-0.2-0.3-0.3-0.5c-0.3,0-0.5,0-0.7,0.3V73c-0.6-0.2-0.1-1-0.5-1.4c0.3-2.2-0.2-4.1,1-5.9c0.8-1.5-1-3.1,0.4-4.3
		C178,61,178.2,60.4,178.7,60.5L178.7,60.5z"/>
	<path class="st2" d="M211.5,69.3c0.3,0.5-0.3,0.7-0.7,1c-0.5-0.5-1-0.9-1.1-1.7c0.1-0.6-0.4-1.5,0.4-1.7
		C210.4,67.7,210.5,68.9,211.5,69.3L211.5,69.3z"/>
	<path class="st1" d="M175,67.7c0.2,5.7-0.3,10.9-0.1,16.2c-0.1,0-0.2,0.1-0.3,0.2c-0.2-0.5-0.5-0.1-0.8-0.2l0.1-16.8
		C174.2,66.7,174.8,67.3,175,67.7L175,67.7z"/>
	<path class="st2" d="M208.3,70.1c0.6,1.3,2.5,2,1.6,3.6c0.2,0.3-0.5,0.6-0.5,1c-0.1,0.2-0.1,0.5-0.3,0.6c-0.7-1.4-0.3-3.9-2-4.7
		c-1.2,0.9,0.1,2.3,0.1,3.4l-0.6,0c-0.2-1.3-2-0.9-1.9-2.4c0.3-0.7,0.7-1.4,1.4-1.7c0.3-0.6,0.7-1.5,1.4-1.6L208.3,70.1L208.3,70.1z
		"/>
	<path class="st0" d="M179.7,71.3c0.4-0.4,1-0.5,1.4-0.3c0.2,0.3,0.3,0.6,0.1,1c-0.5,0.6-1,0-1.4,0.6c-1-0.1-2.3,0.3-2.6-1
		c0.4-0.3-0.2-1.1,0.6-1C178.4,70.9,179.1,71,179.7,71.3L179.7,71.3z"/>
	<path class="st2" d="M201.2,72c-0.3,1.1-1.9,1.4-1.9,2.4c-0.8,0.8-1.3,2-1,3.1c0.3,0.5,0.8,0.6,1.3,0.6l0.1-0.1
		c-0.6,1.3-1.8,2.3-3.2,2.7c-0.2,0.5-1.1,0.2-1.4,0.7l-0.1-0.1c-0.7,0.6-1.6,1.3-2.1,1.7c-0.4-3.3,4.5-4.2,4.4-7.6
		c-0.3-0.1-0.5-0.4-0.8-0.3c-0.6,0.5-1.1,1-1.1,1.7c-1.6,1.5-3.9,3.2-4.3,5.5c-0.9,0.4-0.1,1.8-0.7,2.4c0.1,0.6-0.4,1.5,0.4,1.7
		c0,0.2,0,0.4,0.1,0.5c1.7-0.3,1.5-2.4,3.3-2.4c0.6-0.7,2.7-0.3,3.3-1c0.2,0.1,0.4-0.2,0.6-0.3c0.6,0.7-0.4,1-0.6,1.6
		c-1.8,0-2.7,2.1-4.3,2.7c-0.3,0.4-0.5,0.4-0.9,0.6c-0.5-0.2-0.5-1.3-1.4-1c-0.3,1.1-1,2.8-2.1,3.3c0.4-0.9,1-2,0.7-3l-0.6-0.7
		c-0.4,0.2-0.5,0.7-0.9,1c0.4,0.3-0.3,0.8-0.3,1c-0.2,0.6-0.6,1.1-1.1,1.6l0.1,0.1h-0.6c0.1-0.9,0.4-1.7-0.3-2.4
		c-1.7,0-0.5,2.4-2,2.7c-0.1-0.4-0.3-0.8-0.7-1.1c-0.6-0.2-0.5,0.5-1.1,0.4c-0.1,0.7-1.2,1-1.3,1.7h-0.6c0.3-0.2,0.2-1,0.7-1.3
		c-0.3-0.4,0.1-1.6-0.8-1.6c-0.2,0.1-0.2,0.6-0.6,0.4c-0.3,0.8-1.1,1.3-1.7,1.7c-0.1-0.7,1.1-1.8-0.1-2.4c-1.4,0.4-2.3,1.9-3.5,2.4
		c-0.4-1.7,2.7-1.6,2-3.3c-0.7-0.7-1.6,0.1-2,0.4c-0.4,0.5-0.9,0.7-1.3,1c-0.2-1.5,2-1.9,3-2.4v-0.9h0.3c0.1,1,1.3,0.5,1.9,1
		c0.2-0.1,0.3-0.4,0.6-0.3c0.4,1,0.7-0.4,1.4,0c0.2-0.5,0.6-0.2,1-0.3c0.9-0.8,1.8-1.4,2.6-2.3c0.7-0.1,1.6-1.1,2.4-0.7l0.3-0.3
		c-0.1-0.2,0.2,0.4,0.4,0.2c0.9-0.5,2.2-1.5,3.3-0.7c1.2,0.1,0.9-1.4,1.4-2.1c-0.6-1.5,1.1-1.8,1.7-2.7c0.7-1.1,2.2-2.4,1.4-3.9
		l0.8-0.7c0.3,0.7,0.3-0.3,0.8-0.1c0.7-0.2,1.3-0.7,1.9-1.3C199,69.7,200.3,71.6,201.2,72L201.2,72z"/>
	<path class="st2" d="M193,73.5c0.7,2.6-2.9,3.3-3.3,5.3l-0.6,1c-0.4-0.9-1-2.2-0.6-3.4c0.7-0.8,0.7-2.7,2.3-2.6
		c-0.1-0.3-0.4-0.1-0.6-0.1C191.1,73.4,192.1,73.6,193,73.5L193,73.5z"/>
	<path class="st2" d="M205.5,75.4c-0.1,0.7,0.3,1.1,0.2,1.7c-0.7-0.4-0.5-1.4-0.9-2l-1.1-1.6C204.7,73.5,205.1,74.7,205.5,75.4
		L205.5,75.4z"/>
	<path class="st2" d="M226.8,75.9c0.2,0.9,0.4,2.2-0.7,2.7c-0.4,0.2-0.7,0.6-1.1,1c-0.7-0.4-0.8,0.7-1.7,0.3
		c-0.7,0.7-2.5,0.6-2.1,2.1l0.4,0.6c0.3-0.6,0.9,0,1.1-0.3c1-0.9,2.8-0.9,3.7-1.4c-0.1,0.2,0.2,0.3,0.3,0.4c0.3-0.1,0.6-0.6,0.8,0
		c2.4-0.7,3.5-3.4,4.2-5.4c0.4-0.8,1.2-0.3,1.7-0.3c0.6,0.5-0.5,0.7-0.5,1.1c-1.8,2.6,0.8,7.2-2.7,8.5c-1,0.5-2,0.4-3.2,0.3
		c-1.2-0.6-2.4-1.7-3.2-2.9c-0.6-0.2-0.7,0.6-1.1,0.6c-0.3,1.8,2.2,2.2,2.3,4c0.5,1.4-0.2,3.2-1,4.3c-0.9,1.3-2.6,0.9-3.8,0.9
		l0.1-0.2l-0.4-0.3l1.3-0.3l-0.1-0.2l0.4,0.3c0-0.4,0.5-0.5,0.9-0.4l1.1-1.6c0.2-2.8-1.3-5.1-3.3-6.5l-0.2,0.2
		c-0.1-0.6-1.4-0.1-2-0.4l-0.3,0.3l-0.3-0.6c-0.4,1.1-1.4,0.1-1.9,1c-1-0.2-1.2,0.8-2.1,0.8c-3.5,2.2-3,7.3-3,10.3h-0.6
		c-0.7-2.8-1.3-5.7,0.1-8.5c0.9-2.3,3.2-3.1,5-4.3c0-0.9,0.9-1.7,1.6-2.3c1.5-0.7,2.9-1,4.4-1.1c1.4-0.6,3.2-0.7,4.2-2.4l0.6-1.9
		C226.2,74.6,226.8,75.2,226.8,75.9L226.8,75.9z"/>
	<path class="st2" d="M203.2,75.3c0.7,1.7,1.2,3.6,0.1,5.3c0,0.2,0.1,0.5-0.1,0.6h-0.4c0.3-1.1,0.2-2.3-0.6-3.4
		c-0.3-0.1-0.6-0.4-0.4-0.7c0.5-0.5,0.9-0.9,1-1.6C203,75.5,203,75.2,203.2,75.3L203.2,75.3z"/>
	<path class="st2" d="M201.2,84c0,2.3-0.6,4.2-0.6,6.7c0,1.2,0.6,2.7,0.7,3.9l0.2,0.2l-0.3,0.3h-7.4c-0.3,1.5,0,2.3-0.3,3.6
		c-0.7,0.2-1.5,0.1-2.3,0.1c-0.1,0-0.2,0.1-0.3,0.1c-0.5-1-0.2-2.4-0.3-3.6c-0.5-1.1-3,0.6-2.7-1.4c0.3-0.7,0.4-1.4,1.1-1.7
		c0.6-0.1,1.2-0.5,1.6-0.7c0.9-0.6,1.7-1.7,2.6-2.3c0.1,0.2,0.3,0.1,0.4,0.1c1.6-0.8,2.4-2.9,4.6-3c1.1-0.6,1.5-1.8,2.2-2.7
		C200.1,83.9,200.9,83.9,201.2,84L201.2,84z"/>
	<path class="st1" d="M174.7,93.5c-0.6,17.1,0,33.2-0.6,50.3c-0.2,1.5,0,3-0.4,4.6c-0.2,0.1-0.3-0.2-0.4-0.3
		c-0.4-14.2,0.2-27.1,0-41.4c0.4-4.4-0.2-9.2,0.4-13.6C174,92,174.4,93.1,174.7,93.5L174.7,93.5z"/>
	<path class="st2" d="M106.8,94c0.7,1.2-0.6,2.7-0.3,3.9c-0.6,0.4,0,1.2-0.6,1.6c0,0.2,0.1,0.5-0.2,0.6h-0.4
		c0.6-0.4,0.2-1.1,0.4-1.6c-0.2-0.2-0.6-0.7-0.8-0.3c-0.5,0.4-0.1,1.5-1,1.3v-0.6c0.3-0.3,0.6-1,0.6-1.4c0.3-0.7,1.1-1.5,1.4-2.4
		c0.2,0.1,0.3-0.2,0.4-0.3l-0.2-0.2l0.5-0.4l-0.2-0.1H106.8L106.8,94z"/>
	<path class="st2" d="M97.1,94.3c-0.2,1.3,0.2,3.4,1.3,4.6c0.7,0.1,0.8,0.9,1.4,1.3c0.3,1.8-2,1.3-2.9,1.9c-0.9,0.4-1.8,0.7-2.9,1.1
		c-1.6,1.1-3.1,1.9-4.6,3c-2.7,2.6-4.9,4.8-6,8.5c-0.6,0.8-0.6,1.9-1.2,2.7l-1.4,5.4c0.5,3.4-0.9,6.1,0.2,9.5
		c-0.1,1.4,0.7,2.5,0.8,4.2c0.5,2,1.5,4.4,2.7,6c0.4,1.2,1,2.5,0.6,3.8l-1.1,1.6c-2,0.8-4.6,0.5-6.3-0.9c-0.5,0.4-0.8,1.2-0.3,1.7
		c0.5,1.1,1.8,0.7,2.6,1.4c0.6,0,1.2-0.1,1.7,0.3c0.4-0.7,0.9,0.2,1.4-0.3c1.6-0.5,3.3-1.4,4.3-2.7c1.2-0.3,0.3-1.4,1.3-1.7
		c0.2,1.5,0.3,3.4-1.1,4.4c-0.9,0.4-1.5,1.5-2.4,0.9c-0.7,0.5-2.1-0.3-2.6,0.6c-0.5-0.1-1.5-0.9-2.1,0c-0.2,1.3,1.3,1,2,1.4
		c0.8,0.6,2.1-0.5,3,0.3c0.9-0.5,1.9-0.7,2.7-1.3c2.1-1.4,2.4-3.9,5-4.3c0.1-0.6,0.7-0.4,1-0.6c0.1,0,0.4,0,0.4-0.2l0.3,0.3
		c0.2-0.1,0.2-0.4,0.3-0.6l1.2,0.4c-1.9,1.4-3.4,3.3-3.7,5.7c-0.7,1.1-2,2-3.4,2.1c-0.8,0-1.6-0.6-2.3,0c0.1-0.4-1.1-0.3-1.4-0.3
		c-0.3,0.2-0.1,0.5-0.1,0.7c0.4,0.7,1.2,0.4,1.7,0.9c0.4,0.4,1,0.4,1.6,0.6l0.3-0.3c0.8,0.8,1.5-0.3,2.4-0.1c2.6-0.6,3.2-3.5,5.3-5
		c0.9-0.1,1.3-1,2.3-0.7c0.2-0.2,0.4-0.2,0.6-0.4c0.2,0.7,0.6-0.2,0.8,0.3c1,0,2.1,0.5,3,1.1c-0.2,0.7-0.7,0-1.1,0v-0.2
		c-0.3-0.4-0.5,0.1-0.7,0.2c-0.1-0.4-1.2,0-1.8-0.2c-0.7,0.3-1.8,0.5-2.6,0.9c-2,1.6-2.9,5.1-5.9,5.3c-0.2-0.7-1.1,0.1-1.7-0.2
		c0.1-0.2-0.2-0.3-0.3-0.4c-0.5,0-1.1,0.6-0.7,1c0.9,0.4,1.8,1,2.7,1.3c-0.5,0.4-0.2,1.2,0,1.6c0.7,0.6,1.7,0.7,2.4,0.7
		c0.8,1.1,1-1,1.9,0.1c0.3-0.5,0.7,0.5,0.7-0.3c1,0,1.5-0.5,2.3-0.7l0.1-0.1c0.1,0.3,0.4,0.5,0.6,0.7c0.1-0.3,0.4-0.4,0.3-0.7
		c1,0.7,1.9-0.7,2.7-0.1c1.3-0.5,2.9,0.2,4.2,0.6c1.3,0.9,2.6,2.5,2.6,4c-1.1-0.9-2.6-2-3.9-2.1c-0.2-0.7-1.2,0.2-1.3-0.7
		c-0.4,1-1.3-0.3-1.9,0.5c-0.8-0.6-1.5,0.5-2.3,0.1l-0.7,0.7l-0.3-0.3c-0.7,0.3-1.2-0.1-1.7,0.3c0-0.6-0.8-0.5-1.1-0.3
		c-1-0.5-2.1-0.9-3.3-1.1c-0.3,0.2-0.3,0.4-0.3,0.7c0.3,0.6,0.9,0.9,1.4,1.1c-0.1,0.2,0.2,0.3,0.3,0.5c0.6,0,0.8,0.8,1.6,0.7
		c1.2,0.7,2.1,0.8,3.4,1.4c0.7,0.4,1.5-0.3,2,0.6c0.6-0.2,1.3-0.1,1.9,0.3c0.3,0.7,0.6,0,1,0.4c1.7,0.9,2.3,2.4,3,4
		c0.6,2.3-0.4,4.4-1.9,5.9c-0.5,0.3-0.7,0.7-1.3,1c0.1-1,0.9-2,1-3.2c-0.1-3.4-2.7-6.1-5.7-7.3l-0.1,0.2c-0.5-0.6-1.5-0.7-2-1
		c-1.2,0.1-1.7-1.1-2.4-1.7c-0.4,0.2-1.1,0.2-0.8,0.9c0.4,1.7,2.2,2.3,3.6,3c0.1,0,0.4,0,0.4-0.1c1.9,1.1,4.6,1.6,5,4.3
		c0.5,1.1-0.2,2.6-0.6,3.7h-0.3c0.2-2.9-1.7-5.4-4.2-6.7c-3.1-0.6-5.6-3.5-6.3-6.4c-2-6.2-8.9-8.2-13.2-12.5
		c-1.6-2.2-1.8-5.3-1.4-7.9c1.2-2.6,2-5.6,4.3-7.5c0-0.7-0.4-1-1.1-0.8c-0.4,0.1-0.2,0.7-0.7,0.6c-1.5,1.5-2.2,3.4-3.3,5
		c-0.8,0.2-0.5,1.1-1.3,1.2c-0.4,0.7-0.9,0.7-1.6,0.8l-0.2-0.1c1.6-2.5,1.5-5.7,2.7-8.3c0.4-0.7,1-1.6,1.7-2c0.7-0.7,0.9-0.9,1.9-1
		c0.7,0,0.6-0.7,0.8-1.1c-0.8-2-2.1,0.2-3.3,0.1l-0.7,0.4l0.2,0.2c-1,0.2-1.4,1.4-2.3,1.9c-0.1,0.2-0.1,0.6-0.4,0.6h-0.6
		c1.1-2.1,2.4-4.2,4.6-5.1c0.6-0.4,1.6-0.9,1.6-1.7c-0.3-0.3-0.9-0.6-1.3-0.3c-0.2,0.7-0.7-0.1-1,0.3c-0.6,0.6-1.5,0.5-2,1.3
		l-0.2-0.2c-1,0.5-1.8,1.3-2.7,1.9c-0.6-1,0.9-2.6,1.4-3.9c1.1-1.1,2.9-1.8,3.8-3.2c0.8,0.1,0.8-0.7,1.2-1.1c-0.9-1-1.3,0.7-2.6,0.1
		l-0.1,0.4c-1.3,0.8-2.9,1.7-4.4,1.7c0.4-0.8,1.3-1.5,1.6-2.4c1.4-1.4,2.5-1.4,4.2-2.1c0.6,0.1,1.1-0.1,1.4-0.6
		c0.1-0.5-0.4-0.6-0.6-0.9c-0.7,0-0.8-0.1-1.4,0.2c0.1-0.5,0.7-0.7,1.1-0.9l2.4-0.1c-0.1-0.8-1-0.9-1.4-1.4
		c-0.1,0.2-0.5,0.1-0.7,0.1c-0.7-0.7-1.8,0.2-2.4,0.3v0.1h-0.4c0.4-1.2,2.7-0.5,2.4-2.3c-0.4-0.5-0.9-0.8-1.4-1
		c-0.3-0.3,0.1-0.9,0.6-0.8c0.6,0.2,1.3,0.2,1.9,0.4c-0.2,0-0.2,0.1-0.3,0.1c1.1,0.6,2.9,1,3.4,2.4c0.2-0.4,1-0.5,0.7-1.3
		c-0.5-0.3-0.8-1.2-1-1.4c-0.9-0.7-1.7-0.9-2.4-1.6c-0.4,0.2-0.5-0.3-0.7-0.4v-0.3c1.5-0.3,2.7,1,3.9,2c0.8,0.1,0.2-0.7,0.5-1v-0.6
		c-1.2-1.2-2.6-2.7-3.6-4c0.1-0.3,0.4-0.1,0.6-0.1v0.1c1.5-0.2,2.7,1.3,4.2,2.3c0.2,0.3,0.2,0.9,0.7,0.7c0.9-0.6,0.1-0.9,0.1-1.7
		c-0.7-1.4-2.7-2.5-3.3-4c1.5-0.5,2.3,1.3,3.4,2c0.7,0.4,1,1,1.6,1.3c0.6-1-0.4-2.1-0.9-3c-1.2-0.4-0.9-1.8-2-2.3
		c0.1-0.4-0.4-0.6,0.1-0.9c2,1,3.6,1.9,5,3.7c0.4,0.2,0.4-0.3,0.6-0.4c-1-2.3-2.8-4.8-2.3-7c2.4,0.8,3.1,3.6,5,5.3h0.3
		c0.4-1.9-1.2-3.7-1.4-5.7c0-0.5-0.5-1-0.1-1.4h0.3l-0.2,0.1c2.4,0.5,3.6,2.7,4.2,5l1,0.9c1.4-1-0.2-2.5-0.3-3.7
		c0.1-1.1,0.2-2.4,1.1-3v-0.5H97.1L97.1,94.3z"/>
	<path class="st2" d="M293.5,97.6c0.3,0.8,1.3,1.6,0.9,2.6c0.1,0.2,0.4,0.3,0.3,0.6c-0.6,0.1-0.5-0.6-0.9-0.7c0.3-0.5-0.4-0.6-0.4-1
		c-1,0.2-0.4,1.1-0.4,1.7c0.1,0.2,0.4,0.3,0.3,0.6c-0.7,0.1-0.5-0.7-0.9-1c-0.5-1.7-0.9-3.5-0.7-5.3
		C292.6,95.5,292.8,96.8,293.5,97.6L293.5,97.6z"/>
	<path class="st2" d="M302.3,96.3c0.9,0.8,0.6,1.5,0.8,2.6c0.3,1.4-1.8,2.4-0.4,3.7c1.2,0,1.2-1.5,1.7-2c0.2-1.2,1.2-2.1,1.9-3
		c0.6,0.2,1.3-0.4,1.7-0.7c0.2,2.4-1.5,4.5-1.7,6.7c0.8,0.9,0.9-0.7,1.4-0.9c0.9-0.5,1-1.6,1.6-2.4c0.7-0.2,1.2-1.1,2-1.1l0.5-0.4
		c0.6,1-0.2,1.8-0.2,2.7c-0.7,1.2-1.5,2.7-2,4.1l0.4,0.4c1.2-1.4,2.3-2.2,3.9-3v-0.3c0.4-0.2,0.8-0.1,1.3-0.1
		c-0.1,1.8-1.9,2.6-2.7,4.1c0.1,0.5-0.7,0.7-0.5,1.3l0.6,0.4c0.5-0.8,1.1-1.1,1.9-1.6c0.7-0.8,1.7-1.8,2.9-1.7
		c-0.9,2.2-3.6,2.7-3.6,5.4c0.8,0.7,1.1-0.6,1.9-0.8l2.1-1.9c0.6,1.3,1.1-0.7,1.9,0.1c-1.1,2-3,2.5-3.9,4.5l0.1,1.1
		c1,0.2,1.3-1.2,2.3-1.4c0.5,0,0.8-0.7,1.3-0.4c0.2-0.1,0.2-0.3,0.2-0.5c0.3,0,0.6,0.3,0.7,0.6c-1,0.1-1.2,1.1-2.1,1.1
		c-1.1,0.3-1.3,1.5-2,2.3c0,0.5,0.1,0.8,0.4,1.1c1.4-1.2,2.9-2.3,4.8-2.9c0.3,0.5,0.7-0.4,1,0.3v0.7c-0.6-0.3-0.8,0.4-1.1,0.7
		c-0.1,0.6,0.1,1,0.4,1.4c0.6,0.4,1.4,0,1.9,0.7h0.1c-0.1,0.1-0.4,0.4-0.7,0.3c0-0.8-0.9-0.2-1.3-0.6c-1-0.1-2.3,0-3.2,1
		c0.6,1.1,2.1-0.3,3,1h0.1c-0.5,0.6-1.9-0.2-1.6,1.3c0.6,0.5,1.7,0.1,2,1c1.7-0.3,3,0.8,4,2.4c0.1,0.4,1,0.8,0.8,1.4
		c-0.6-0.4-1.2,0.1-1.6-0.4c-1.1,0-2.4-1-3.2-1.7c-0.7,0-1.3,0-1.7-0.6l-0.6,0.6c1.9,2.5,6.5,3.9,6.7,7.7h-0.7
		c0-0.6-0.4,0.2-0.6-0.3c-1.3-0.9-2.4-1.9-3.9-2.1c-0.3-0.4-0.7-0.5-1-0.5c-0.3-0.5-0.7-0.3-1.1-0.1c-0.6,1.5,1.2,1.5,2,2.4
		c1,0.4,1.8,1.3,2.3,2.1c1,0.5,0.6,1.6,1.3,2.1c0,0.1,0,0.4-0.2,0.4c-1-0.8-1.8-2.2-3.2-2.6c0-1.1-1.4-0.6-2-1.1
		c-0.3,0,0.5,0.1,0.6-0.2c-0.6,0-1.3-0.7-1.9,0c0,0.6-0.3,1.4,0.6,1.9c0.4-0.3,0.9,0.1,1.4,0.2c-0.1,0.8,1.1,0.7,1.1,1.4
		c2.6,2.5,1.5,7,3.6,9.7c-0.1,0.3-0.5,0.1-0.7,0.2c-0.2-0.6-0.8-0.7-1.3-0.9l0.2-0.1c-2.2-1.9-2.5-5.4-5.3-6.9l-0.2-0.2
		c-1.7,1.7,1.3,2.5,1.6,4c0.1,0.6,0.7,1,0.4,1.6c0.7,0.2,0.3,1.1,1,1.3c0.3,1,0.5,2.1,0.6,3.4c0.1,1.9-0.2,3.6-0.9,5.2
		c-1.4,1.7-3,3-4.9,4c-0.8,0.7-1.6,0.8-2.4,1.6c-2.6,1.5-4.2,3.8-5.9,5.9c-1.2,2.6-1.8,5.8-4.6,7.3c-0.5,0.4-1.5-0.1-1.7,0.9
		c-0.7-0.3-0.9,0.6-1.6,0.4c-2.2,1.5-3.7,4-3.4,6.4c-0.6-0.5-0.6-1.4-0.8-2.1c-0.1-2.2,1.3-4,3.3-5.2c0.7,0.3,0.9-0.6,1.6-0.4
		c0.7-0.2,1.2-0.7,2-0.7c0.7-0.7,1.8-1.2,2.3-2.1c-0.1-0.6-0.3-1.3-0.9-1.4c-0.4,1.6-1.9,1.5-3,2.3l-0.2-0.2c-0.4,0.9-1.5,0.7-2,0.9
		c-2.3,0.8-4.3,3.3-5,5.7c-0.7,1.6,0.5,2.9,1,4.3c-1.9-0.4-2.9-2.6-3.4-4.5c-0.6-1,0.7-1.7,0.3-2.9c0.6-0.6,0.6-1.5,1.1-2.1
		c1.3-1.2,3-1.8,4.4-2.3c0.3,0.2,0.7,0.1,1,0.1c0.2-0.3,0.5-0.3,0.7-0.1c1.7-0.7,3.2-1.3,5-2c0.6-0.7,1.7-1,2-1.9
		c-0.4-2.1-1.8,0.3-2.9,0.1c-1.5-0.1-3.2,0.9-4.9-0.3c-1.4,0.4-3.5-0.9-4.9,0.3c-1.6-0.4-2.3,1.1-3.6,1.6v0.3h-0.1
		c-0.6-2,1.6-2.6,2.4-4c0.3,0,0.7-0.1,1,0.2c0.5-1.1,2.2-0.3,3-0.7l0.4,0.4c0.7-0.9,1.4,0.4,2.1,0c0.5,0.2,1.3,0.2,1.9,0.3
		c0.2,0.5,0.8,0.2,1.1,0.4c-0.1,0.2,0.2,0.3,0.3,0.4c0.2-0.7,0.7,0,1,0c0.4-0.5,0.7-0.1,1.2,0c1.1,0,2.8-0.1,3.3-1.4
		c0-0.4-0.6-0.9,0-1.3c1.1,0,1.6-0.4,2.4-1.1c0-0.3,0-0.5-0.3-0.7c-1,0.2-2.4,0.9-3.3,0c-3-0.3-2.6-4.1-5.5-5.1
		c-0.7-0.2-1.6-0.6-2.3-0.3c0.1-0.2-0.2-0.3-0.3-0.4c-0.7,0.7-1.1-0.5-1.7,0.3c-0.4-0.4-0.8,0.7-1.3,0.1c1.7-1.8,4.1-1.5,6.2-0.7
		c2.5,1.1,2.4,4.3,5.3,5.3c0.8-0.1,1.6,0.8,2.3,0.3c1.4,0.4,2.3-0.6,3.3-0.9c0.4,0.2,0.5-0.3,0.7-0.4c0-0.3-0.1-0.6-0.3-0.7
		c-0.8-0.1-1.3,0.8-2,0c-0.3,0-0.5,0-0.7,0.3c-1.5,0-3-0.4-3.9-1.7c-1-2.2-1.7-4.9-4-6.1c1.1-0.5,3,0.3,4.3,0.8
		c1.5,1.8,3.3,3.9,5.3,5c1.3,0.4,2.7-0.2,3.5,0.7c0.7-1,2.5-0.7,2.9-2c-0.3-0.2-0.5-0.6-0.9-0.5c-1.2,0.7-3,0-4.4,0
		c-1.5-0.4-2.8-1.7-3.2-3.2c-0.1-0.8,0.2-1.4,0.3-2.1c0.5,0,0.1,0.6,0.4,0.9c1.1,1.6,2.7,2.4,4.3,3.4l0.3-0.3c0.8,0.4,1.2,0.4,2,0.6
		c0.5-0.5,1.4,0.4,1.7-0.4c0.6,0,0.9-0.7,1.4-0.3c0.4-0.6,1.6-1.1,1-2.1l-0.4-0.6c-1.6,1.3-3.9,1.7-5.7,1.1
		c-1.1-0.7-1.7-1.8-1.9-3.2c0.4-1.1,0.6-2.2,1.6-3.3c0-0.4,0.5-1,0.7-1.4c0.1-0.5,0.4-1,0.6-1.3c1.3-2.8,1.6-5.7,1.9-8.6l0.3-0.6
		c-0.2-2.7-0.3-5.1-0.5-8c-0.7-2.7-1.3-5.6-2.7-8c0.2-0.9-0.8-1.4-0.9-2.3c-1.9-2.4-3.8-4.7-6.3-6.6c-0.5,0.3-0.9-0.6-1.4-0.7
		c-0.7-0.2-1.2-0.6-1.7-1c-0.7-0.6-1.7-0.9-2.4-0.9c-0.2-0.7-0.9-0.3-1.6-0.6c0.1-0.2-0.2-0.3-0.3-0.5c-0.4,0.1-0.7-0.1-1-0.4
		c0.2-1.2,1.2-1.9,2.2-2.7c0.4-1.1,0.9-2.6,0.7-3.6C302.2,94.9,302.1,96,302.3,96.3L302.3,96.3z"/>
	<path class="st2" d="M110.5,101.8c-0.5,0.3-0.5,0.9-1.2,0.9c0.2-0.4,0.9-1.1,0.5-1.7c-0.2-0.3-0.5-0.1-0.7-0.1
		c-0.1,0.2-0.4,0.4-0.5,0.7h-0.3c-0.1-1.5,1.9-2,2.4-3C111.8,99.3,110.8,100.7,110.5,101.8L110.5,101.8z"/>
	<path class="st2" d="M290.4,102.3c-0.6,0.4-1-0.7-1.4-0.7c-0.1,0.4-0.4,1-0.3,1.6c0.3,0.3,0.5,0.7,0.8,0.7c0,0.3-0.4,0.1-0.6,0.2
		c-0.7-1.3-2.3-2.9-1.4-4.6C288.6,100.1,289.7,101.2,290.4,102.3L290.4,102.3z"/>
	<path class="st3" d="M110.4,108.7h0.3c2.3,2.6,3.5,5.8,6,8.2c1.5,0.4,2.2,2.1,3.6,2.7c2.8,2.7,5,5.4,6.4,8.9
		c-0.1,1.4,0.8,2.8,0.4,4.2c-0.6,0.5-1.7,0.1-2,1.1c-0.8,0.1-2.1,0.6-2.6-0.4c-0.5,0-0.7-0.5-1.1-0.7l0.1-0.2
		c-0.4-0.5-1.6-0.7-1.4-1.4c-0.4,0-0.8-0.5-1.3-0.7c-1-0.2-2-0.1-2.7,0.5c-0.8,0.5-0.7,1.5-1.1,2.3c0.6,0.3-0.1,0.7,0.1,1.1
		c0.5,0.7,0.7,1.6,1,2.3c-1,0.4-1-0.7-1.7-0.7c-0.6-1.4-0.7-3.1-0.8-4.5c-1.1-1.4-2.8-1.4-4-2l-0.3-0.3c-0.1,0.1-0.1,0.2-0.3,0.1
		c-1.2-1.6,1.3-3.5-0.6-4.6l-0.7,0.5c-1.6,1.9-1.7,5.6-5,5.7c-1.3,0.1-2-2.8-3.1-0.7c-0.9-0.3-1.5-1.4-2.3-1.9l-0.9,0.7
		c0-0.2-0.3-0.4-0.4-0.6c-0.7,0.6-1.4-0.3-2-0.6c-1.1-0.7-0.7-2.2-1.7-3c-0.5-1.1,0-3-1.6-3.4c-0.7,1,0.2,2,0.1,3
		c1,2.8,2.4,5.8,5,7.6c0.5,0.3,1.5,1.1,1.1,1.9c-0.9-0.3-1.4,0.6-2.3,0.1c0.1-0.2-0.2-0.4-0.3-0.6c-0.4,0-0.4,0.5-0.6,0.7
		c0.4,0.5,0.9,0.6,1.4,0.7c0,0.1,0,0.4,0.2,0.4c0.3-0.2,1.5,0.1,2.1,0.4c0.3-0.4,1.4,0,1.7-0.7c0.1,0,0.4,0,0.4,0.2
		c-0.1,0.7-0.8,0.6-1.3,1.1c-0.5,0-1-0.1-1.3,0.4c-0.1,0.4,0.3,0.7,0.6,0.7c0.5,0.1,0.7-0.1,1-0.4c1.4,1.2,3.6-1.8,4,0.3
		c-0.4,0.2-1.1,0.6-0.8,1.1c0.4,0.6,1,0,1.6,0c0.6-0.2,0.5-1.3,1.3-0.8c0.7,1,2.1,0.9,2.9,2l0.1-0.1c1.1,0.5,2.4,1.2,3.3,2.1
		c0.4-0.2,0.8,0.2,1.3,0.3c0,0.1-0.1,0.2-0.1,0.3c0.5,0.7,1.8,0.3,2,1.3c0.3-0.1,0.6,0.1,0.7,0.3l-0.2,0.1c3.8,2.4,7.4,5.7,10,9.8
		c2.5,3.6,4.5,7.6,5.5,12c1.1,3.7,3.8,6.3,4.6,10.2c1.3,5.1,1.4,11.9-0.1,16.9h-0.3c-0.3-1.1,0-2.4,0.3-3.4
		c-0.1-2.9,0.4-6.2-0.4-8.6c0.2-1-0.3-1.8-0.7-2.6c-0.6-0.5-0.7,0.3-1,0.6c-0.4,1.1,0.3,1.7,0.3,2.7c-0.4,2,0.3,4.3-0.6,6.3
		c0,0.4,0,1.1-0.4,1.4l-0.7,0.7c0.1-0.2-0.2-0.3-0.3-0.4c-0.1,0.2-0.3,0.1-0.4,0.1c-2.3-2.2-1-5.4-1.1-8c0.1-2.4-0.6-5-2.1-6.6
		c-1.4,0.5,0.2,1.5,0.1,2.3c0.6,3.6,0.3,6.3-0.3,10c-0.1,2.1,1.6,3.8,3.2,4.9l0.2,0.4c4.5,4.6,8.3,8.1,12.3,13
		c2.1,1.9,2,4.8,2.7,7.3c0.8,3.3-0.8,6.3-0.9,9.6c0.3,3.9,0.7,9.1-0.3,12.9c-1.4,2.4-0.3,4.5-0.5,7.3l0.2,5.6
		c-0.7,1.1-0.4,2.5-1.3,3.4c-0.1,1.1-1,1.5-1.7,2.3l-0.1-0.1l-0.7,0.6c0.4-2.3,2.1-4.8,2.3-7.4c0.3-2.1,0.6-4.3,0.3-6.4
		c-0.2-0.3-0.5-0.5-0.8-0.5c-0.9,1.5-1.1,3.4-1.6,5c-0.6,1-0.8,2.2-1.3,3.3c-0.5,1.5-1.9,2.3-2.7,3.7c-0.3,0.7-1.1,0.3-1.4,1
		c-0.1-0.1-0.1-0.2-0.3-0.1c0.2-0.6,0.7-0.7,1.1-1c2.2-2.6,3.7-5.4,4.5-8.6c0.3-1.3,1.3-2.9,0.4-4c-0.3,0-0.5,0.1-0.7,0.3
		c-0.2-0.4-0.5-0.3-0.8-0.3c-0.5,0.7-0.7,1.6-1,2.3c-1.4,2.1-3,5.4-5.9,5.6c-0.2,0.6-0.8,0.1-1.1,0.4c-0.2,0.4-0.7-0.2-1-0.4
		c0.1-1.2,1.4-0.3,1.6-1.2c0.1,0.4,0.6,0.5,1,0.5c1.7-0.6,2.7-1.7,3.7-3.2c0.5-1.4,2.1-2.3,1.9-4.2c-0.3-0.7-0.8-0.2-1.1,0
		c-1,0.7-1.7,2.2-2.9,2.1l-0.3,0.4c-0.6-0.1-1,0.7-1.7,0.4c0.1-0.9,1.3-1,1.9-1.7c1.6-1,2.6-2.5,3.9-4l-0.3-0.6l0.3,0.3
		c0.6-1.3,2.4,0.3,2.6-1.4c0.2-2-1.6-3.2-1-5.2c0.1-1.6,1.4-2.6,1.4-4.3c0.4-0.6,0.4-1.4,0.7-2c0-2.3,0.8-4.8-0.7-6.7
		c0.3-0.6-0.4-0.9-0.6-1.3c0.2-4.3-1.7-7.7-5.4-9.6c-1.7-1.1-3.6-1.8-5.3-2.9c-0.5-0.3-0.4,0.4-0.8,0.4l0.1-0.1
		c-0.7-0.7-1.9-0.5-2.4-1.3c-0.6,0.6-0.5-0.6-1.1-0.6c-0.5-0.6-1.6-0.8-1.6-1.7c-0.8-0.2-0.2,0.8-0.7,1v0.6
		c-0.6-0.1-1.1-0.9-1.4-1.4l-0.6-0.6c-1.1,0.6-1-1.1-1.6-1.6c-0.5-2.3-2.2-4.9-4.6-5.4c-1.3-0.9-2.3,1.5-3.3-0.3
		c-1.1,0.3-1.6-1.1-2.9-0.7c-0.7-0.5-1.3-1.4-2.3-1.4c-0.4,0.4-0.2,1.3,0.1,1.7c0.7,0.8,1.4,1.9,2.4,1.9c0.6,1,2,0.5,2.9,1
		c0.5,0.8,1.9,1.2,2,2.3c1,1,1.4,1.8,2.1,2.9c0.3,1,1.4,1,1.6,2c0.8,0.6,1.9,1,2.3,1.9c1.2,0.2,1.8,0.7,2.9,1.1
		c0.8,0.3,1.8,0.5,2.6,1c0.5-0.2,0.7,0.3,1.1,0.4c0.9-0.1,1.6,0.2,2.2,0.6c0.2,1.1-1.5,0.7-2.2,1.4c-0.6,1-2.2,0.4-2.4,1.1
		c-0.6,0.1-1.2-0.3-1.6,0.3c-0.1-0.3-0.5-0.1-0.7-0.1c-0.9,0.6-1.5,0.1-2.4-0.2l-0.3,0.4c-1.7,0.1-3.4-0.6-5-0.6
		c-1.6,0.2-3.1-0.9-4.8-0.7c-1.2-1-2.1,0.2-3.2-1c-1.1,0-2.5-0.7-3.3-1.3c-0.7,0.2-1.3-0.6-2-0.7c-2.7-2.1-6.3-3.4-6.6-7.5
		c-0.4-1.8,0.6-3.5,0.9-5c0.1-0.4,0.3-0.8,0.4-1.3c0.6,1.3,2,2.3,3,3.4c0.1-0.2,0.3-0.1,0.4-0.1c1.6,1.3,3.5,2.1,5.6,2.6
		c0.8,0.9,1.6,0.3,2.4,0.9c0.7,0.5,2.4,0.1,3.3,0.8c0.1-0.1,0.2-0.1,0.1-0.3c0.2,0.2,0.8,0.5,1.1,0.2c0.2,0.1,0.3-0.2,0.4-0.3
		c0-0.6-0.7-0.9-1.1-1.1c-0.6,0.4-1.7-0.2-2.2-0.3c-1-0.7-2,0.3-3-0.9c-0.4,0.4-0.6-0.3-1-0.3c-1-0.2-2.5-0.7-3.4-1.3
		c-0.4-0.1-0.7-0.6-1-0.8l-0.1,0.1c-1.4-1.7-3.9-2.8-4.2-5.3c0-2.6,1.1-5,0.7-7.6c0.6-0.8,0.7,0.5,1.3,0.4c0.6,0.3,1-0.6,1.4,0.1
		l0.3-0.3l0.3,0.4c0-0.6,0.8-0.2,1-0.3v-0.1c1.4,0.1,2.4-0.2,3.6-0.9c0.9,0.2,1.1-1,2-1c2.5-1.6,3.4-4.5,3.2-7.3
		c0.1-1.4-0.9-2.7-1.6-4c-1-1.5-2.9-2.4-4.4-3c-0.1,0.1-0.1,0.2-0.3,0.2l-0.3-0.3c-0.1,0.4-0.6,0.4-0.8,0.1
		c-0.2-0.1-0.1-0.3-0.1-0.4c0.7,0,1.6-0.4,2.1,0c1.5-0.3,2,1,3.4,1.1c1.4,0.7,1.8,2.4,2.7,3.3c0.9,0.2,0.7-0.8,1.1-1.3
		c0.4-2.8-0.8-5.8-3.4-7.6c-1.1-0.7-2.2-1.6-3.7-1.4c0.1,0.1,0.2-0.1,0.3-0.1l-0.9-0.1c1.1-0.1,2,0,3,0.4c1.5,0.5,2.4,1.9,3.4,3
		c0.7,0.1,0.5-0.7,0.7-1c0.5-3-3.8-4-3.3-6.7c-1.4-2.7-3.7-5.3-6.7-5.5c-0.3,0-0.5,0-0.7-0.3l-1.6,0.3c0-0.4,0.6-0.7,1-0.7
		c0.7-0.3,1.3,0.7,1.7-0.3c0.2-0.8-0.8-1.1-1.2-1.7c-0.9-0.4-1.8-0.6-2.9-0.7c0.2,0,0.4,0,0.5-0.2c-0.5-0.2-1.2-0.2-1.7,0l0.1,0.2
		H95c0-0.2,0-0.4-0.1-0.5c-0.2,0.1-0.2,0.3-0.2,0.5h-1c0.1-0.7-0.9-0.6-0.8-1.3c-1.1,0.1-0.2-0.8-1.3-0.8c0.3-1-1.1-0.5-0.8-1.4
		c-1.1-0.7-1.7-2-2.6-3c-1-1.7-1.9-3.7-2.3-5.7c-0.7-1.1-0.5-2.5-0.8-3.7c0-4.5-0.1-8,1.1-11.9c0.5-3.5,2.8-6.4,5.4-8.7
		c0.8-0.6,1.9-1.8,2.9-1.7c0.8-0.6,2.3-0.1,3.3-0.4c1.5-0.4,1.7-2.2,3.3-2.4c2.2-1.2,4.4,1,6.4,1.9
		C108.5,107.1,109.6,107.4,110.4,108.7L110.4,108.7z"/>
	<path class="st3" d="M297.2,105.1c1.6,0.1,2,2.6,3.6,2.4c0.4,0.3,1.5,0.6,1.6,0c0.8,0.6,2.1,0.6,3,1.2c0.7,0.4,0.7,1.4,1.6,1.3
		c5.5,4.2,5.9,11.2,6.3,17.9c-0.3,2.5-0.5,5.4-1.4,7.9c-0.4,1.3-0.9,2.7-1.7,3.7c-1,1.9-2.5,2.9-3.6,4.7c-0.8,0.9-2.2,1.5-2.9,2.4
		l-0.6-0.4l-0.1,0.1c-0.2-0.2-0.5-0.3-0.7-0.3c0-0.2,0-0.4-0.2-0.5c-0.1,0.3-0.3,0.5-0.3,0.9v-0.2c-0.6-0.4-1.5,0.2-2.3,0.3
		c-0.2,0.5-0.7,0.2-1,0.3c-0.6,0.6-1.6,1-1.3,1.9c0.5,0.9,1.6-0.5,2.2,0.7c0.3,0,0.5,0,0.7,0.3c-1.2-0.1-2.3-0.5-3.4,0.3
		c-2,0.3-4,2-5.3,3.9c-1,1.6-0.2,3-1.9,4.1c-1.3,0.9-1.9,2.8-2,4.3l0.6,0.6l1.6-1.9c0.9-0.1,1.3-1.1,2.2-1c0.5-0.6,1.4-0.7,2-0.6
		l-0.4,0.5c-0.6-0.3-1.1,0.4-1.7,0.4c-2.3,1.2-4.6,3.9-4.9,6.7c0.2,1.1,0.1,2.2,1.1,3c1-0.6,1.2-2.4,2.3-2.9c0.6-1.1,1.9-1,2.7-1.7
		c0.9,0.1,1.7-0.2,2.6,0.3c0.2-0.7,0.6-0.2,1,0c-1.1,0-2,0.6-3,0.6c-1.2,1.1-4,2.2-4.3,4.6c-0.7,2.3-1.1,4.8,0.3,7
		c1.9,1.7,3.9,4.1,6.7,4.2c0.1,0,0.4,0,0.4-0.1l0.3,0.4c0.1-0.1,0.2-0.2,0.1-0.3c1.1,0.4,2.7,0.3,3.7-0.1c0.1-0.2,0-0.6,0.4-0.5
		c0.5,2.7,0.8,5.4,0.8,8.2c-0.7,1.4-1.3,3-2.9,3.7c-0.9,1.4-2.6,1.8-3.9,2.6l-0.1-0.1c-0.7,0.4-1.5,1-2.3,0.8
		c-1.3,1.1-3.3,0.7-4.9,1.4c-0.4-0.1-1,0.2-1.6,0.3L286,199c0.3,1.2,1.5,0.1,1.7,0.5l0.3-0.3c0.2,0.5,0.4,0.1,0.7,0
		c0-0.6,0.5-0.1,0.7,0.1c1.5-1.1,3.1-0.5,4.6-1.6c1.2-0.5,1.9-0.4,2.9-1c2.2-0.9,4.3-2.5,5.4-4.3h0.3c0.3,1.1,0.5,2.4,1,3.3
		c0.5,2,0,3.3-0.5,5.2c-1.4,1.6-2.7,2.6-4.4,3.6c-1.4,1.6-3.3,1.9-4.9,2.7c-0.9,0.4-2,0.9-2.9,0.9c-1.8,0.8-4.4,0.8-6.4,1.6
		c-0.3-0.5-1.9,0.3-2.6-0.1c-0.6,0.7-1.4,0.5-2.1,0.4c-0.5-0.1-1,0.3-1.4-0.3c-0.7-0.1-1.3,0.4-1.9,0.4c-0.6-0.4-1.4-0.4-2-0.7
		c-0.8,0.5-0.6,0.2-1.1-0.4c-1.8,0.4-2.4-1.3-4-1.3c-0.1-0.3-0.5-0.6-0.2-0.9c0.9,0.1,1.6-0.7,2.4-0.4c0.2-0.2,0.5-0.8,1-0.6
		c0.5,0,1.2-0.5,1.9-0.7c1.5-0.1,2.6-1.2,4-1.9c0-0.4,0.9-0.3,1.1-0.7c1-0.4,1-1.6,1.9-1.9c0.7-1.4,2.2-2.6,2.7-4.2
		c0.4-0.5,1.4-0.8,1.6-1.4c0.4-0.4,1.2,0.3,1.3-0.6c0.3,0.7,0.8-0.3,1.2,0.1c1.3-0.8,3-1.6,3.4-3.3c0.1-0.5-0.1-1-0.6-1.1
		c-0.7,0.8-1.8,1.9-2.9,1.7c-0.5,0.9-1.2,0-1.7,0.9c-0.6-0.6-0.8,0.6-1.4,0.4c-0.6-1.1-2.1-0.3-2.9-0.3c-1.8,1-3.4,3.4-3.7,5.3
		c-0.4,1.9-2.6,2-3.3,3.6c-0.5-0.3-0.3-1-0.7-1.4c-1.3,0.7-2.3,2.2-3.7,2.7c-0.3-0.5-0.9,0.1-1.2,0.3c-2.2-0.4-2.7,1.1-4.6,1.6
		c-1.7,1.3-3.9,1.9-5.1,3.7c-1.8,1.6-2.2,3.9-2.1,6.3c-0.8,1.5-1.7,3.4-1.7,5.4c-0.3,2.4,0.4,4.4,1.3,6.3c0.4,1.2,0.8,2.4,1,3.7
		c0.2,1.2-0.8,2-0.9,3.1c-0.3,0.6-0.4,1.4-0.1,2c0.4,0.3,0.9,0.6,1.4,0.3l0.1-0.2c1.6,2.6,4.1,4.7,6.7,6.6v0.3c-2,0.1-4-1.6-5.4-3.4
		c-0.4,0.1-0.7,0.3-0.9,0.7c1.4,2.5,2.4,5.9,5.6,6.9c1,0.7,2.6-1,2.6,1c-0.3,0.2-0.7,0.2-1,0.4c-0.4-0.5-1.2-0.1-1.6-0.7
		c-1,0.8-0.9-0.9-1.9-0.7c-1.4-2.2-3.7-3.6-3.9-6.3c-0.3-0.3-0.5-0.9-1-0.9c-0.2,1.2-0.8-0.7-1.3,0.3c-0.2,2.8,0.6,5.4,2,7.7
		c0.2,1.3,1.3,1.8,1.6,3c0.7,1.1,1.9,1.7,2.4,2.7c-2.2,0.3-2.2-2.7-3.8-3.4c-0.3-1-1-1.9-1.2-3c-0.4-1.5-1-2.9-1.6-4.3
		c0.2-0.9-0.3-1.6-0.7-2.3c-1.5,0.9-0.7,3.2-0.7,4.7c0.2,3.4,1.1,6.6,2.7,9.4l-0.3,0.3c-3.1-1.4-3.4-4.6-3.9-7.6
		c-0.3-3.9,1.3-8-0.3-11.9c-1.5-5.1,0.6-10-0.3-15c-0.6-2.6-0.7-4.6-0.4-7.5c0.5-0.5,0.3-1.2,0.7-1.7c-0.7-3.9,3.2-5.7,5-8.6
		c3.9-4,7.5-8,11.7-11.9c1.5-1.6,0.8-3.8,0.6-5.7c0.1-3.1-0.3-6.1,0.9-8.9l-0.6-0.5c-3.1,3.4-1.9,8.2-2.1,12.3
		c-0.4,0.8-0.6,2.1-1.6,2.3c-0.9,0.2-1.4-0.8-1.6-1.5l-0.6-7c0.4-0.9,0.9-2.1,0.3-3c-0.7-0.7-0.9,0.2-1.3,0.6
		c-0.7,4.3-1,8.3-0.3,12.8c0.2,0.5-0.3,0.7-0.1,1.1h-0.3c-0.6-2.9-1.2-6.6-1.1-10.2c0.7-4.5,1.4-10.1,4.7-14c1.1-1.7,1.2-3.9,2-5.7
		c1.9-5.6,5.3-10.5,9.4-14.8c0.8-0.1,0.8-1.1,1.6-1.3c1-1.3,2.6-1.5,3.7-2.9l0.2,0.1c0.2-0.1,0.1-0.3,0.1-0.4
		c1.3,0.2,0.5-0.8,1.7-0.8c0.3-0.8,1.5-0.8,2.3-1.2c-0.1-0.2-0.4-0.1-0.6-0.1c0.5,0,1.1-0.4,1.4-0.4c1-1.2,2.7-1.3,3.9-2.4
		c0.6,0.1,0.9-0.6,1.4-0.6c0.5,0.8,1.4,1,2,1.4c1.2-0.8-0.4-1.4-0.7-2c0.3-0.6,1.3-0.8,1.7-0.3c1.1,1,2.5,0.4,3.7,0.7
		c0.4-0.1,0.4-0.7,0.1-0.8c-0.3-0.6-0.8,0-1.1-0.3c-0.3-0.6-1.5-0.5-1-1.3c0.7,0.8,1.9,0.8,2.9,0.6c0.8-0.7,2.3-0.4,2.7-1.4
		c0-0.3-0.3-0.4-0.5-0.6c-0.4,0.8-1.3,0.3-1.7,0.4c-0.4,0-0.6-0.2-1-0.4c0.3-1.2,2.2-2.1,3.2-3l-0.2-0.2c0.9-0.9,1.8-2.3,2.4-3.6
		c0.8-1.6,1.5-3.7,1-5.3c-0.3,0-0.6-0.1-0.7,0.2l0.1,0.1c-0.9,1.5-1.1,4-2.4,5.7c-0.4,0.7-1.2,0.7-1.7,1.3c-0.2-0.9-1.6,1.1-2-0.4
		c-0.8,0.4-1.7,2.9-3,1.1c-0.4,0.4-1,0.6-1.6,0.8l0.2,0.2c-0.2,0-1.3,0.6-1.9,0c0.2,0,0.2-0.1,0.3-0.2c-0.8-0.4-1.3-0.3-2-0.8
		c-0.5-1.8-1.8-3.3-2.7-4.9c-0.9-0.1-0.5,0.8-1,1.3c0.4,0.8,0.5,1.8,0.4,2.9l-0.8,0.8c-1.1-0.4-2,0.7-3.2,0.6
		c0.2,0.3-0.4,0.7-0.7,0.8l0.1,0.2c-0.8,1-0.2,2.1-0.6,3.3c-0.2,0.9-1.2,1.3-1.7,2l-0.6-0.3c0.6-1.3,1.8-3,0.7-4.5
		c0.2-0.6-0.3-0.7-0.7-1c-0.3,0.1-0.5-0.2-0.6-0.3l0.1-0.2c-0.8-0.5-2-0.2-2.9,0c0.1,0.3,0.4,0.1,0.6,0.2c-1.2,0.5-2.8,1.7-3.5,2.9
		c-0.7-0.3-1.2,0.8-1.7,0c-0.4,0.7-0.8-0.2-1.3-0.2c-0.7-0.5-2,0-2-1.1c0.3-2.8,1.5-5.8,3-8.2c0.4-0.4,1.1-0.8,1-1.4
		c1.1-0.4,1.4-1.4,2.4-2c2.1-2.6,5.6-3.9,7-7.2c1.4-0.9,1.4-2.8,2.7-3.7c0.5-0.9,1.7-1.7,2.4-2.1c1.3-1.2,2.8-2.4,4.5-2.7
		c0.9-0.1,1.7-1.1,2.4-0.6H297.2L297.2,105.1z"/>
	<path class="st0" d="M103.2,110.9c0.8,0.4,1.2,1.7,2.4,1c0.8-0.5,1.3-0.8,2.1-1.3c0.4,0.4,1,0.4,1.6,0.6c1.7,0.8,1.9,2.8,3.3,4
		c0.1,0.2,0.2,0.4,0.1,0.7c-0.3,0-0.5,0.3-0.7,0.4c-0.4-0.7-1.4-0.4-2-0.3l-0.3,0.3c-0.2-0.8-1.2,0.4-1.6-0.3l-0.4,0.1
		c-1.9-0.4-2.7-2.5-4.7-2.7c-0.3-1.1-3.2,0-2.7-2c0.4-0.6,1.2-0.4,1.4-1C102.4,110.3,102.7,111.3,103.2,110.9L103.2,110.9z"/>
	<path class="st0" d="M291.6,112.4c1,0,1.3,1.3,2.4,0.6c0.7-0.6,1.4-1.1,2.4-1.3c0.4,0.7,2.3,0.3,1.6,1.7c-0.6,1.1-2.2,0.2-2.6,1.3
		c-1-0.4-1,0.7-1.9,0.7c-1.6,2-4.2,2.2-6.7,1.7c-0.3,0.7-0.7,0-1,0c0.1-1.3,0.8-2.2,1.6-3.4c1-0.7,1.7-1.6,2.7-1.6
		C290.6,111,291,112.2,291.6,112.4L291.6,112.4z"/>
	<path class="st0" d="M123,124.8c0.3,0.7-0.6,1.5-0.9,2c0.9,0.6,1.3-1.3,2.3-0.4c1.6,0.8,1.1,2.2,1.1,3.7c0.1,0.7-0.8,0.5-1,0.8
		c-0.2-0.5-0.7-0.2-0.7,0c-0.9-0.2-1.3-1.3-1.7-2.1c-0.5-0.7,1-1.5-0.1-1.7c-1,1,0.2,2-1,2.9c-1.3-1-1-2.7-2.3-3.7l0.3-1
		c0.3,0.4,0.5,1,1,1.2C121.4,126.4,121.4,124.4,123,124.8L123,124.8z"/>
	<path class="st0" d="M277,126.5c0.3,0.6,0.9,0.4,1.3,0.8l1-0.8c-0.2-0.4,0.7,0.3,0.4,0.7c-1.2,1-1.4,2.3-2.2,3.4
		c-0.4,0.1-0.6-0.2-0.7-0.5c1.1-2.4-1.9-2.5-1.3-4.6C276.3,125.5,276.5,126.2,277,126.5L277,126.5z"/>
	<path class="st0" d="M275.9,128.1c0,0.3-0.1,0.7,0.3,0.9c-0.1,1.2-0.8,1.9-1.6,2.7h-1.4c-1-0.9-0.5-2.5-0.4-3.6
		C273.6,127.2,275.3,126.7,275.9,128.1L275.9,128.1z"/>
	<path class="st1" d="M120.1,135.3c0.7,1,1.6,1.5,2.2,2.6c0.6,0.5,1.5,2,2.4,1.3c0.5-0.2,1-0.4,1.4-0.7c0.3,0.6,0,1.2-0.3,1.7
		c-0.5,0-0.8,0-1.2,0.3l-0.3-0.3l-0.3,0.4c-0.4-0.4-1.2-0.6-1.7-0.6c-1.7-1-2.4-3.9-4.7-4.3c-0.3-0.4-0.7-1-0.2-1.4
		C118.5,134.3,119,135.4,120.1,135.3L120.1,135.3z"/>
	<path class="st1" d="M280.8,135.3c0.2,1.5-2.1,2-2.7,3.2c-0.7-0.1-0.4,0.9-0.8,1c-1.2,1-2.8,2.3-4.3,1.7c-1.1,0.3-0.8-0.9-1.2-1.4
		c0-0.3,0.1-0.7,0.6-0.6c0.1,0.7,0.9,0.4,1.3,0.9c1.3-0.1,2.6-1.4,3.1-2.6c0.7-0.8,1.9-1.2,2.7-1.7
		C279.6,135,280.4,135.4,280.8,135.3L280.8,135.3z"/>
	<path class="st3" d="M145.7,146.3l0.2-0.1v0.3c1.8,0.2,3.4,1.3,4.9,2l0.3,0.3c0.3-0.4,0.5,0.2,0.7,0.2c0.3,0.7,1.5,0.5,2.2,1.1
		c0.9,0.3,1.7,0.6,2.4,1.1l0.2-0.1c0.7,0.5,1.5,0.8,2.3,1c0.4,0.5,1.1,0.3,1.6,0.6c1.8,1.4,3.6,2.2,4.9,4.3c2.6,3,6.2,3.9,8.9,6.4
		l0.4,0.5l0.2-0.2c0.7,0.8,2,2,2.7,2.9c-0.8,0.5-1.5,1.3-2.4,1.4c-0.6-1.7-2-3.3-3.4-4.1c-0.8-1-2.2-1.5-2.7-2.9
		c-0.3,0.1-0.7,0.4-0.6,0.7c0,0.8,1.1,1.3,1.3,1.9c1.2,1.1,2.3,2.8,3.2,4.3c-0.4,0.7-1.4,0.4-1.9,1.1c-1.1-3.3-2.8-6.3-5.3-8.6
		c-0.3,0-0.6,0-0.7,0.3c0.5,2.6,1.4,5.1,2.3,7.6c-0.3,0.3,0.2,1.3-0.7,1c-0.8-2.2-0.8-4.2-1.6-6.4c-0.6-0.9-0.6-2.1-1.6-2.7
		c-0.8,0.5-0.3,1.4-0.5,2.1c1,2.1,1.5,4.5,1.9,6.9c-0.7,0.6-1.5-0.4-2.3-0.4c0.4-3.4-0.3-6.9-2.7-9.2c-0.5,0.3-0.9,0.3-1.4,0.2
		c-0.5-0.5-1.1-1.1-1.3-1.9c-2-2.6-5-3.8-7.6-5c-0.8-0.3-1.5,0-2-0.3c-1.2,1-2.6,0.3-3.7,1.6c-0.8,0.3-1.6,0.9-2.4,0.7
		c-1.4,0.9-0.4,2.7-0.3,3.9c1.2,2,0,4.5,0,6.7c-0.6,1.9-0.6,4.1-1.1,6c0.2,2.9-0.9,5.8-1.6,8.7h-0.3c0.3-3.3-1.5-5.8-1.9-8.9
		c-0.8-2.5-2.8-5.3-0.7-7.7c0.4-1.4,0.3-2.4,1.1-3.6c0.7-3.5,1.5-7,2.7-10.3c0.7-1.5,1.9-2.3,3.4-2.7
		C143.8,146.1,144.5,146.4,145.7,146.3L145.7,146.3z"/>
	<path class="st3" d="M255.5,147.2c-0.1,0.1,0.1,0.4,0.3,0.3h0.5c0.1,0.6,0.8,0.5,1.1,0.7c2.3,2.6,2.9,5.9,3.6,9.1
		c0.4,1.8,0.8,3.5,1.6,5.2c0,2.1,1.8,3.9,0.7,6.2c-1.8,3.3-2.4,7.2-3.2,10.7v1.6c-0.4,0.1-0.4-0.4-0.6-0.6c-0.1-0.4,0.2-0.9-0.3-1.1
		c-1-6.5-2.1-12.5-2.6-19.1c0.5-1.4,1.4-2.5,0.8-4l-1-0.8c-0.1,0.2-0.4,0.1-0.6,0.1c-1.3-0.5-2.4-2-3.9-1.7
		c-0.5-0.9-1.6-0.5-2.4-0.6l-0.3,0.3c-0.6-0.5-0.9,0.3-1.4,0.4c-2.6,1-5.8,2.3-6.9,5c-0.4,0.6-0.9,1.1-1.4,1.6
		c-0.4-0.9-1.3-0.3-1.9,0c-1.6,2.7-2.7,5.2-2,8.6c-0.2,0.1-0.4,0.5-0.6,0.2c-0.4,0.5-1.6,0.2-1.6,0.7c-0.1-2.9,1.2-5.8,1.9-8.8
		c-0.1-0.2-0.3-1-0.7-0.6l-1,1.1c-0.9,2.6-1.2,5.4-2.3,7.9H231c-0.1-1.8,1.3-3.5,1.4-5.3c0.1-1.2,1.7-2.6,0.3-3.7
		c-2.7,2.3-4.3,5.6-5.8,8.7c-0.4-0.2-0.7-1.2-1.4-0.8c-0.5-1.1,1.1-1.6,1.2-2.6c0.9-1.1,2.2-2.5,3.2-3.6c0-0.4-0.2-0.6-0.5-0.8
		c-0.5-0.2-0.3,0.4-0.6,0.6c-2.1,2-4.9,3.7-6.2,6.4c-0.6-0.6-1.8-1.1-2-2c0.7-0.8,1.8-0.8,2.1-2c1.4-1.3,2.9-1.4,4-3
		c1.5-0.6,2.8-1.7,4.3-2.3c0.6-1.6,2.4-1.5,2.6-3.2c1-0.3,1.3-1.4,2.3-1.6c0.5-1.4,1.7-1,2.9-1.7l0.1-0.2l0.3,0.3
		c0.2-0.5,1.2-0.8,2-0.8c1.4-0.8,3.2-1.3,4.6-2.3c1.6-0.8,3.6-1.7,5.3-2.6c0.5-0.1,0.1,0.8,0.7,0.6c-0.1-1.2,0.9-0.3,1.4-0.8
		C254,147.2,254.8,146.9,255.5,147.2L255.5,147.2z"/>
	<path class="st3" d="M104.2,155.5l2.6,1.7c0,0.1,0,0.4-0.1,0.4c-1.8-1.3-3.9-1.2-5.7-0.1l-0.6-0.2c-1.1,1-2.4,1.7-3.7,2.1
		c-1.2,0.3-1.8,0.3-2.9,0.2c0.2-0.2,0.9-0.3,1.3-0.4c0.6-0.6,1.7-0.5,1.9-1.3c1-1.3,2.7-3,4.5-2.7
		C102.4,155,103.2,155.5,104.2,155.5L104.2,155.5z"/>
	<path class="st2" d="M296.3,156.6c0.3-0.8,1.3-0.3,1.9-0.3c1.8,0.6,2.4,3,4.2,3.7c0.6-0.3,1,0.6,1.7,0.4v0.3
		c-3.4,0.5-5.8-2.3-8.7-3.3l-0.6,0.4c-0.7-0.7-2,0.2-2.7,0.1c-0.2,0.2-0.4,0.2-0.6,0.5c-0.2-0.1-0.1-0.4-0.1-0.6
		c1.4-1.1,2.7-1.9,4.7-1.7L296.3,156.6L296.3,156.6z"/>
	<path class="st2" d="M63.3,171.5c-1.4,6.2-2.1,12.3-1.7,19.1c0,3.3,1.6,6.6,2.4,9.9c1,0.7,0.4,2.2,1.6,2.7c1.1,2.2,2.3,4.3,4.5,5.9
		v0.3c1.6,2.3,4.2,3.1,6.2,5c-0.4,0.8-1.1-0.4-1.6,0l-0.3-0.3c-0.6,0.9-1.1-0.7-1.7,0.3c-1.1-0.9-2.6,0-3.7-0.7l-0.3,0.3
		c-1.8-0.5-3.5,0.3-4.8,1.4c0.4,0.4-0.5,0.8-0.4,1.4c-0.9,2.2,0.9,3.9,2.3,5.2c0.8,0.6,1.8,1.7,2.7,2.1c0.2-0.2,0.7-0.6,0.3-0.9
		c-1.2-0.4-1.6-2-2.6-2.6c-1.1-0.8-0.9-2-0.7-3.3c0.7-0.7,1.2-1.6,2.4-1.4l0.4-0.4c0.3,0.5,0.8,0.4,1.3,0.4l0,0.1
		c0.5,0.1,1.6-0.2,2.2,0.3c0.4-0.3,1.2,0,1.7,0.3c0.7,0.1,1.6-0.3,2.3,0.3c0.4-0.6,0.8,0.3,1.4,0c0.7,0.6,1.2,0.1,2,0.4
		c-0.1,0.8-0.9,1.4-1.4,1.9c-1.1,0.8-2.1,1.3-3.1,1.9c-0.6-0.2-0.9,0.4-1.2,0.7c0.4,2.3,3.5,3.1,2.3,5.6c-0.3-0.3-1.3-1-2-0.6
		c-0.3-0.6-1.1-0.6-1.9-0.6c-0.7-1.1-1.5,0.5-2.3-0.6c-0.5,0.3-1.3-0.6-1.7,0c-0.8-0.5-1.7,0.2-2.6-0.3l-0.4,0.5
		c-0.2-0.6-1.4-0.1-2,0c-0.6-0.1-1.7-0.5-2.1,0.3c-1-0.1-2.2,0.3-3,0.9c-0.6,0-1.4,0.5-2,0.8c-2,1.8-4.1,3.7-5,6.3
		c-0.6,3-1.4,6.5,0.2,9.3c0.5,4.3,2.9,7.9,2.7,12.3c-2-4.4-7.8-5-9.1-9.8c-1.8-1.5-1.3-3.5-1.6-5.7c-0.8-1.5-0.5-3.4-2-4.6
		c1-2.3,0.9-5,1.9-7.3c0.5-0.7-0.3-1.1-0.4-1.7c-1-0.4,0.4-1.3,0.4-2c1.3-4,4.3-7.1,8.7-7.6c0.8-0.3,0.4-1.2,0.2-1.6
		c-1.8-0.8-3.8-2.4-4.2-4.5c-0.5-0.5-0.9-1.2-0.7-1.9c0.8-0.8,2-1.1,3-1.1c0.7-0.6,1.7-0.2,2.6-0.3c0.6,0.4,1,0.9,1.9,0.7
		c0.7-0.3,0.4-1.2,0.1-1.6c-0.5-0.4-0.8-0.9-1.4-1.4c-0.8,0.1-0.9-0.9-1.4-1.3c-1.8-2.6-2.4-6.2-2.6-9.5c0.3-0.9-0.1-2.3,1-2.7
		c0.1-3-0.3-5.6,0.3-8.5l0.3-0.3c0.4,0.1,0.4,0.8,0.4,1c0.5,0.3,0.7-0.4,1.1-0.7c1-3.6,2.4-7,4.5-10.2h0.4c-0.2,0.4,0.2,0.9,0.3,1.3
		c0.7,0.5,1.2-0.2,1.6-0.7c1.5-1.2,3.4-3.1,4.4-4.7C63.2,169.7,63.6,170.7,63.3,171.5L63.3,171.5z"/>
	<path class="st2" d="M334.5,170.4c1.6,2.4,3.2,4.1,5.6,5.9c0.2-0.6,0.9-1,0.7-1.7c0.6,0.1,0.5,0.9,1,1.3c1.9,3,2.5,6.5,4,9.6
		c0.7,0.2,0.7-0.7,1.1-0.8l0.6,2.1c0.4,2.6-0.8,5.4,0.7,7.6c0.1,4.5-0.2,9.3-3.7,12.3c-0.9,0.4-1.4,1.1-2,1.9
		c0.1,0.3,0.1,1.2,0.8,1.1c0.7,0.3,0.5-0.6,1-0.6c0.6-0.2,1.2-0.2,1.7-0.6c0.3,0.6,0.8,0,1.1,0.3c1.2,0.4,2.3,0.9,3.3,1.6
		c-0.5,1.6-1.2,3.2-2.4,4.5c-0.6,1.3-3.5,1.2-2.6,3.2c0.5,0.1,1,0.4,1.4,0.3c4,0.7,6.6,4.5,7.5,8.2c0.5,0.3,0.6,0.8,0.6,1.3
		c-1.9,1.6,0.6,3.6,0,5.4c0,1.5,1.8,3.4,0.1,4.6c-1,2.4-1.6,5.3-1.7,7.9l-0.5,0.2c-1.1,2.5-2.9,5.1-5.4,6.3c-0.5,0.8-1,1.2-1.9,1.4
		c-0.7,1.1-1.9,1.7-2.3,2.9h-0.3c-0.3-1.3,0.4-2.5,0.4-3.9c0.2-1.4,1-2.6,1.1-4.1c1.1-2.3,1.5-4.8,2.3-7.2c-0.1-5-1.5-9.9-6.1-12.6
		c-1.7-0.6-2.8-1.8-4.7-1.7c-0.9-0.5-2.1,0-3.2-0.6c-2.4,0.4-5.1-0.3-7.3,0.6c-1,0.3-2.3,0.6-3,0.7c-0.1,0.1-0.2,0.4-0.4,0.3
		c-0.3-0.1-0.7,0.2-1,0.3c-0.5-1.3,0.6-2.4,1.1-3.4l0.3,0c0.3-0.8,2-1.6,0.7-2.6c-0.6,0.3-0.7-0.7-1.3-0.6c-1.6-0.1-2.2-1.4-3.4-2.3
		c-0.3-0.3-0.9-0.7-0.4-1.1c1.6,0,4.1-0.5,5.7-0.7c1,0.5,2-1,3.3-0.3c0.3-0.7,0.6,0.1,1-0.3c0.3,0,1.4-0.5,1.6,0.3
		c0.9-0.9,1.3,0.7,2,1c1,2.8-2,4.2-3.4,5.9c0.1,0.4-0.2,0.8,0.3,1c1.3-0.8,2.1-1.9,3.5-2.6c0.9-1.1,2.3-2.7,1.6-4.3
		c0.4-0.9-0.6-1.6-0.8-2.4c-0.5-0.1-0.9-0.4-1.2-0.7c-0.7,0.4-1.4-0.8-2.1,0c-0.6-0.5-1.3,0-2-0.1l-0.3,0.3
		c-0.1-0.8-0.8-0.2-1.3-0.3c-0.5,0.6-1.1-0.3-1.6,0.4c-1.1-0.5-2.4,0.3-3.3,0c1.6-0.8,2.2-2.2,4-2.7c-0.1-0.6,0.7-0.4,0.8-0.8
		c5.2-4.7,8.7-11.4,9.8-18.5c0.7-3.8-0.1-7.5,0.1-11.2c-0.7-2.3-0.4-4.9-1.3-7c-0.5-1.6-0.3-3.1-0.3-4.6H334.5L334.5,170.4z"/>
	<path class="st3" d="M99.6,177.4c-0.4,1.1-1.4,1.8-2.4,2.1c-0.4-0.1-0.7,0-0.9-0.6c0.3-1.8-0.3-4.4,1.6-5.7
		C99.3,174.2,99.9,175.8,99.6,177.4L99.6,177.4z"/>
	<path class="st3" d="M301.2,180.3c-0.8,0.5-1.5-0.3-2.1-0.6c-1.3-0.8-0.7-2.1-0.9-3.2c0.2-0.8,0.8-1.5,1.3-2.1l-0.1-0.1
		C301.8,175,301,178.2,301.2,180.3L301.2,180.3z"/>
	<path class="st0" d="M60.4,176.5c-0.7,2.3-1.1,4.8-1.3,7c-1.3,6.1,0.4,12.5,2.3,18.1c0.6,1.8,1.6,3.4,2.4,5.1
		c-0.2,0.6-0.6,1.1-1.3,1.3c-2-1.3-2-3.6-2.9-5.5c-2-5.8-2.9-12.3-2-18.3c0.1-2.3,0.9-4.4,1.3-6.4c0.7-0.8-0.2-2.8,1.3-3.3
		C60.5,175.3,60.4,175.7,60.4,176.5L60.4,176.5z"/>
	<path class="st0" d="M338.1,176.7c1.2,5.8,2.4,12.4,1.7,18.3c-0.4,1.6-0.9,3.1-1.1,4.7c-0.9,3-1.6,6-3.2,8.6
		c-0.4,0.5-1.2,0.5-1.7,0.3c-0.6-0.5,0-1.1,0-1.7c1.8-2.5,2.3-5.5,3.5-8.2c-0.3-0.4,0.3-0.7,0.3-1.2c1.6-5.2,1.2-11.2,0.3-16.6
		c-0.3-1.7-1.6-3.5-0.4-5.3L338.1,176.7L338.1,176.7z"/>
	<path class="st2" d="M92.5,178.7c-0.3,3.2,0.1,7.1-0.9,10.2c-1.2,7.1-3,13.9-6.2,20.2c-1.4,2.7-1.5,5-3,7.7v0.5
		c-0.5,0.1-0.2,0.7-0.6,1c-1,3.1-2.2,6.1-3.2,9.2c-0.9,2.8-1.4,6.2-2.6,9l-0.3,2.6c-0.7-0.3-0.5-1.5-0.7-2c-0.4-1.3-1.2-2.3-1.6-3.6
		c2.3-1.1,4.4-3.3,4.7-5.9c0.3-1.8-0.9-3.4-1.6-5c2.3-2,5.3-3.7,5.7-6.9l0.3-0.3c0.5-2.6-0.8-4.9-1.5-7.3c2-1.6,4.8-2.9,5-5.7
		c-0.4-1.9-0.8-3.7-2-5.2c0-0.9,1.2-1,1.6-1.6c2.7-2.6,3.7-6.2,3-9.9c-0.4-0.9-1-1.9-1.1-2.7c1.7-0.7,2.8-2.3,4.1-3.7
		C91.9,178.9,92,178.5,92.5,178.7L92.5,178.7z"/>
	<path class="st2" d="M144.8,180c5.7,3.4,7.9,9.9,8.4,16.3c0.5,1.5,0.2,3.3,0.3,5.1c-0.1,6-1.1,12.2-2.6,18.2
		c-0.6,2.1-1,4.6-1.9,6.7c-0.6,3.8-2.3,7-2.9,10.7c-0.2,0.7-0.6,1.2-0.5,2c-0.2,0.1-0.4-0.1-0.5-0.3c0.6-3.3,2.3-6.9,1.4-10.2
		c-0.4-3.2-0.6-7.1,0.3-10.2c1.1-4.1-0.5-8-1.2-12c-0.6-1.7-3.1-2.4-2.1-4.7c-0.4-2.1,0.8-3.9-0.4-6c0.1-1.5-0.6-3.1-1.6-4.1
		c-1,0.5-2.2,0.5-3.3,0.3c-0.3-0.7-0.6,0.1-1-0.1c-0.2-2.7,1.3-5,2-7.5c0.4-1.7,0.9-3.7,1.7-5.4C142.4,178.9,143.5,179.7,144.8,180
		L144.8,180z"/>
	<path class="st2" d="M257.5,180.6c0.4,3.6,2.5,6.9,3.2,10.6c0.3,1-0.4,1.2-1.1,1.3c-1.3-0.1-1.9,0.6-3-0.3c-1.6,1-1.7,3.2-2.3,4.9
		c-0.6,2.6,0.8,5.5-0.7,8c-2.7,2-1.9,5.7-3.2,8.5c-0.3,3.5,1.1,7.3,1,11.5c-0.2,2.3-0.8,4.9-0.6,7.3c0.2,2.5,1.1,4.6,1.3,7
		c-0.9-0.1-0.4-1.2-0.7-1.7c-0.7-1.7-0.6-3.7-1.6-5.3c-0.5-2-1.2-4.1-1.6-6.3c-0.8-2.6-1.3-5-1.9-7.7c-0.9-0.9,0.1-2.6-0.9-3.6
		c-1.4-7.3-1.6-13.9-0.4-20.8c0.8-3.2,1.7-6.9,3.9-9.6c1.6-1.8,3.5-3.2,5.6-4.3l0.3,0.3c0.1-1.1,1.1-0.2,1.5-0.9
		C256.9,179.3,257.3,180,257.5,180.6L257.5,180.6z"/>
	<path class="st2" d="M306.5,181.1c0.9,0.8,1.7,2,2.7,2.4c0.6,0.3,0.7,0.6,0.5,1.1c-1.9,3-1.6,7,0.6,9.8c0.4,1.3,1.9,2.6,3,3.1
		c0.1,0.9-0.7,1-0.9,1.7c-1,2.5-2,4.9,0.3,7.2c0.8,0.8,1.9,1.4,3,1.9c0.5,0.4,0.3,1.1,0.2,1.6c-1,1.9-1.6,4.6-1.1,6.6h-0.5
		c-1.1-5.7-4.8-10.2-5.9-15.9l-1.1-4.9c-1.2-5.2-2.4-10.8-1.7-15.9C306.1,179.9,305.9,180.8,306.5,181.1L306.5,181.1z"/>
	<path class="st0" d="M54.1,194.3c0.7,3.6,1.8,7.1,3.6,10.2c1,0.9,2.3,2.2,2.6,3.7c-0.4,0.5-1,1-1.6,0.4c-3.4-3-4.6-7.6-5.3-11.7
		c-0.4-1.6-0.4-2.6-0.6-4.4c-0.1-0.4,0.3-0.6,0.3-0.8C54.3,192.1,53.8,193.4,54.1,194.3L54.1,194.3z"/>
	<path class="st0" d="M343.1,201.9c-0.9,2.6-2.2,5.4-4.2,7.3c-0.6,0.1-1,0.6-1.4,0.8c-0.3-0.6-0.8-1-0.4-1.7c3.3-3.3,5-7.4,5.7-11.9
		c1-1.2-0.3-3.1,1.6-3.6C344.6,196.1,343.6,198.9,343.1,201.9L343.1,201.9z"/>
	<path class="st3" d="M96.8,204.3h0.6c0.3,0.7,1.2,0.9,1.7,1.4l0.2-0.1c1.6,1.6,3.3,1.5,5,2.9c0.6,0.1,1.3,0.6,1.9,0.4
		c0.7,0.2,1.2,1.1,2,0.6c0.3,0.8,0.9,0.2,1.6,0.6c1.1-0.5,1.5,1.2,2.4,0.2c0.8,0.6,2.5,0.6,3.6,0.6l0.4,0.5c0.8-0.5,1.7,0.2,2.6-0.5
		c1.1,0.5,2.1,0,3.3,0.2c0.8-0.5,2.2,0.4,2.9-0.7c0.7,0.3,1-0.3,1.7-0.3c-0.5,1.6-1.9,3.1-2.6,4.7c-1.3,2-3.9,2-5.6,3.3
		c-0.2-0.3-0.7,0-0.9-0.5c-0.4,0.8-1.2,0-1.4,0.9l-0.3-0.3l-1.7,0.1c0,0.1-0.7-0.5-0.9,0.2l-0.3-0.3c-0.4,0.9-0.9,0.1-1.4,0.4
		c-0.4,0-0.5-0.5-0.8-0.6c-0.5,0.4-1.4,0.4-2,0.3c-0.9-0.6-2-0.3-2.9-1c-0.3,0.5-0.7-0.4-0.8,0.3c-0.7-0.6-1.8-0.4-2.3-1.3
		c-1.1,0-2-1.1-3.3-1.2c-0.5-0.1-1-1.3-1.9-0.7v-0.1l-3-2c-1.3-1.9-3-2.4-3.6-4.6c-0.6-2.7,0.8-4.8,1.7-7
		C93.9,201.7,95.5,203.2,96.8,204.3L96.8,204.3z"/>
	<path class="st3" d="M305.9,203.6c0.8,1.5,0.8,3.1,0.6,4.6c-0.3,2.4-2.7,3.5-4,5c-0.9,0.6-1.7,1.1-2.7,1.9
		c-1.1,0.1-2.3,0.7-3.3,1.3c-0.8,0.7-2,0.4-2.7,1.4c-0.4-0.3-0.9,0-1.1,0.3c-0.6-0.6-1.3,0.4-1.6,0.3c-1.4,0.1-3.2,0.7-4.8,0.4
		c-0.3,1-1-0.2-1.6,0l-2.3,0.1c-0.6-0.6-1.3,0-1.9-0.6c-1.1-0.3-2.2,0.1-3.1-1l-0.2,0.1c-0.9-0.7-2-0.7-2.9-1.6
		c-1.3-1.8-2.6-3.7-3.2-5.6c0.2,0,0.2-0.1,0.3-0.1c0.3,1,2.1,0.5,3,1.1c1-0.1,2.5,0.1,3.3,0.4c0.9-0.5,1.9-0.3,2.7-0.1
		c0,0.1,0,0.4,0.2,0.4c0-0.8,0.7-0.3,1-0.4c0.2,0.3,0.4-0.3,0.7-0.3c2.2-0.2,3.9-0.2,6-0.6l0.3-0.3l0.3,0.3c0.3-0.1,0.4-0.6,0.7-0.4
		l0.2,0.2c0.5-0.3,0.9-0.6,1.4-0.7c2.2-0.2,3.8-1.8,6-2.4c0.2-0.8,1.1-0.7,1.6-0.9c0.8-0.6,1.8-1.6,2.7-2.1l0.1,0.2
		c1-0.9,2.2-2.4,3.3-3L305.9,203.6L305.9,203.6z"/>
	<path class="st3" d="M91.2,210.9c2.4,3.5,6.5,5.2,10,7.2c0.6-0.3,0.8,0.6,1.4,0.3l0.6,0.8c0.4,0,0.5-0.7,1-0.4
		c0.5,0.6,1.6,0.3,2.3,0.7l0.2,0.1c0.5-0.6,1.1,0.5,1.7,0v0.2c1.1-0.2,2.1,0.4,3.2,0c0.6,0.6,1.2,0,1.7,0.6c0.6-0.9,1.7,0.1,2.4-0.7
		c0.6,0.3,1.1,0,1.6,0.5c0.3-0.6,1.1,0,1.3-0.7c0.9,0.1,1.6-0.8,2.4-0.6c-1,1.9-2.7,4-4.3,5.6c-0.9-0.2-2,1.2-2.7,0.8
		c-0.5,0-1.4,0.6-2.3,0.6c-1-0.6-1.9,1.3-2.7-0.2c-0.5,0.4-1.2,1-2,0.6c-0.2-0.3-0.5-0.3-0.7-0.2c-0.5,0-0.8,0.7-1-0.1
		c-0.6,0.5-1.2-0.3-1.9,0c-2,0.3-3.4-1.6-5.4-1.1c-1.5-0.8-3.2-1-4.6-2.1c-1.3-0.2-1.6-1.9-3-1.9c-1.9-2-3.9-4.4-2.9-7.5
		c0.5-1.4,1.4-2.5,1.9-3.9C89.9,209.8,90.4,210.6,91.2,210.9L91.2,210.9z"/>
	<path class="st3" d="M310,214.2c0.7,3.1-1.5,6-3.7,7.7c-1.2,0.7-2.3,1.9-3.9,2c-0.2,0.5-0.9,0.3-1.1,0.9c0.4,0.2-0.4,0-0.4-0.3
		c-0.3,0.5-1.3,0.8-1.4,1c-0.1-0.3-0.4-0.1-0.6-0.2c-0.9,0.5-2.2,0.3-3,1c-0.7-0.1-1.5,0.1-2.1,0.4l-0.3-0.3
		c-0.4,0.4-1.1,0.1-1.4,0.4c-0.4-0.4-1.2,0.1-1.4-0.3c-0.6-0.3-0.7,0.6-1.1,0.4c0.1-0.2-0.2-0.3-0.3-0.4c-0.3-0.1-0.4,0.1-0.6,0.3
		c0.1-0.9-0.7-0.3-1-0.4c-0.3,0.1-0.4,0.6-0.7,0.4l0.1-0.2c-0.8-0.5-2-0.1-2.7-1c-0.6,0.5-1.6-0.3-2.4-0.5c-0.5-0.5-1.1-0.2-1.7-0.7
		c-1.6-1.5-2.5-3.6-3.7-5.4c0.2-0.2,0.6,0,0.7,0.3c0.4-0.5,0.5,0.4,0.9,0.3c1.3,0.6,3.3,0.6,4.6,0.6l0.6,0.7c0-0.7,0.9-0.4,1.3-0.3
		l0.1,0.1l1.1-0.7l-0.1,0.1c0.6,0.2,1.5,0.6,2.1,0h-0.1v-0.3h0.1c-0.2,0.5,0.4,0.3,0.6,0.6c0.2-0.6,0.8-0.1,1.1-0.4l0.3,0.4
		c0.1-0.3,0.2-0.7,0.7-0.6l0.1,0.1c0.7-0.7,1.4,0.2,2-0.7c0.3,0.7,0.7-0.5,1.1,0.1c0.7-0.3,1.4-0.5,2-1c0.6,0.1,1.1-0.8,2-0.6
		c3.2-1.9,6.9-3.9,9-6.7c0.7,0,0.6-1.5,1.5-1L310,214.2L310,214.2z"/>
	<path class="st3" d="M87,219.6c2.8,3.6,7.5,6,11.6,7.7c0.7-0.1,1.7,0.3,2.3,0.1c0.6,0.8,2.2,0.2,3.1,0.6c0.7-0.1,1.5,0.3,2-0.1
		l0.3,0.4c0.1-1,1.1,0.1,1.4-0.6c0-0.2,0.4,0.4,0.6-0.1c0.2,0.1,0.3,0.4,0.6,0.3c0.3-0.3,1.1,0,1.4-0.6l2.3,0.1
		c0.5-0.4,1.3-0.6,2-0.3c-0.5,1.1-1.9,2.1-2.1,3c-0.8,0.4-1.1,2.1-2.4,1.9c-0.6,0.7-1.5,0.7-2.1,1.3l-0.1-0.1
		c-0.4,0.6-1.3-0.1-1.7,0.6l-0.3-0.3c-0.2,0.1-0.1,0.5-0.4,0.5l-0.1-0.2c-1.2,0.6-1.9-0.2-3.2,0l-0.3,0.3l-0.3-0.3
		c-0.2,0.2-0.3,0.4-0.5,0.3l-0.3-0.4c-2,0.2-3.5-0.9-5.5-0.9c-0.2-0.8-0.6-0.1-1.1-0.4c-2.2-1.2-4.7-2-6.4-3.9
		c-1.8-0.9-2.7-3-3.7-4.7c0.1-0.7-0.3-1.6,0.3-2.1c0.3-0.6,0.3-1.4,0.7-2c0.1-0.6,0.4-1.2,0.8-1.7C85.8,218.7,86.9,219,87,219.6
		L87,219.6z"/>
	<path class="st2" d="M316.3,219.8c1.1,1.4,2.6,2.2,4,3.4c-0.9,2.1-2.5,4.9-0.9,7.2c0.6,1.5,2.7,2.7,4,3.7c0.2,0.6-0.6,0.8-0.7,1.3
		c-0.9,1.2-1.3,2.9-1.3,4.3c-0.7-0.2-0.5-1.3-0.7-1.9c-1.5-6.6-3.2-13.2-5.7-19.5C315.9,218.3,315.7,219.4,316.3,219.8L316.3,219.8z
		"/>
	<path class="st3" d="M311.6,218.8c1.2,2.4,2.7,5.2,0.6,7.6c-0.9,1.3-1.6,2.7-3.2,3.3c-1.1,0.9-2.2,1.5-3.6,2.3
		c-1.8,0.7-2.8,1.1-4.6,1.7c-0.6-0.2-1.3-0.3-1.4,0.3c-0.4-0.4-0.6,0.3-1,0.3c-1.9,0.7-4.7-0.2-6.4,0.5l-0.3-0.3
		c-0.1,0.2-0.4,0.1-0.6,0.1c-0.6-0.7-1.4,0.2-1.7-0.7l-0.2,0.2c-1.1-0.4-2-1.4-3.3-1.6c-1.1-1.5-2-3-3.3-4.4v-0.5h1.3v0.3
		c1.7,0.2,3.8,0.8,5.7,0.6c0.2,0.5,0.8,0.3,1,0.1l0.2-0.1v0.1c1.5,0.8,2.9-0.6,4.6,0.3c0.3-0.9,1,0,1.6-0.7c1.3-0.3,2.5,0.1,3.5-1
		l0.1,0.2l0.6-0.6l0.1,0.1c2.6-1.1,4.8-3,7.2-4.6c1.1-1,2-2.2,2.9-3.4H311.6L311.6,218.8z"/>
	<path class="st0" d="M52.8,221.7c-2.2,2.1-4.5,4-5.6,6.9c-1.6,2.5-1.8,5.2-2,8l-0.4,0.7l-0.4-0.4c0.3-2.9-0.1-4.8,0.6-7.7
		c1.6-3.4,4-7,7.3-9.2C52.5,220.5,53.3,221,52.8,221.7L52.8,221.7z"/>
	<path class="st0" d="M347.7,223.2c0.3,1,1,1,1.6,1.9c0.8,1.5,1.9,2.9,2.3,4.6c1.1,0.9,0.3,2.8,0.7,3.8v4.5
		c-0.5,0.1-0.6-0.4-0.7-0.7c0-5.6-2.5-10.6-6.9-14.2c-0.6-0.5-0.7-1.3-0.1-1.9C345.7,221.6,346.6,222.6,347.7,223.2L347.7,223.2z"/>
	<path class="st3" d="M82.7,225.2c1.7,2.7,4.1,5.5,7,6.7c0.3,0.8,1.1,0.2,1.4,1c1.1,0.2,2,0.8,2.9,1.4c0.4,0,0.9,0.1,1.1-0.2
		c1.1,0.9,3,0.7,3.9,1.3c1-0.4,2.5,0.1,3.6,0c0.9,0.5,2.2-0.4,3.2,0.3c0.6-0.6,1,0,1.6-0.6l-0.2-0.1h0.4c0,1.5-1.4,2.1-2.4,3.4
		c-1.2,0.8-2.5,1.2-3.7,2c-1.1,0.3-2.8,0-4.1,0.3l-0.5-0.4c-0.6,0.6-1.1,0-1.7,0.4c-0.4-0.8-1-0.2-1.4-0.7c-0.9,0.3-1.7-0.5-2.7-0.4
		c-0.2-0.3-0.5-0.3-0.7-0.2c-2.5-1.4-5.2-2.6-7.2-5.1c-1.3-1.8-2.4-3.4-2-5.7c0.5-1.1,1.1-2.2,1.3-3.4H82.7L82.7,225.2z"/>
	<path class="st0" d="M53.8,227.7c-3.1,3.2-5.2,7.6-4.8,12.2c0.5,4.4,2.4,8.3,3.3,12.3c-0.2,0.2-0.1,0.7-0.6,0.6
		c-1.4-3.4-2.4-6.4-3.6-9.9l0.2-0.2c-0.6-0.8-0.1-1.5-0.7-2.3c-0.1-3,0-5.9,1-8.5c1.1-1.1,1.2-2.7,2.3-3.9c1-0.5,1.7-2.9,3-1.9
		V227.7L53.8,227.7z"/>
	<path class="st3" d="M315.2,227.4c0.7,1.6,1.3,3.3,0.4,5c-0.9,2.4-3.2,3.6-5,5.6c-0.3-0.1-0.5,0.2-0.7,0.3c-0.5,0.9-1.8,1-2.7,1.6
		c-0.9,0-1.6,1.1-2.1,0.4c-0.9,0.7-2.7,0.4-3.7,1.3c-0.1-1-0.9,0.3-1.3-0.6c-0.1,0.7-0.8,0.2-1.2,0.6c-0.5-0.5-0.8-0.2-1.4-0.4
		l-0.3,0.3c-0.4-0.4-1-0.5-1.4-0.4c-2.6-0.9-4.9-2.5-6.5-5v-0.3c1.2,0.8,2.3,0.3,3.7,0.5c0.7,0.4,1.4-0.1,2.1-0.2
		c-0.1,0.3,0.7,0.1,1.1,0.2l0.3-0.3c0.7,0.4,1.5,0.3,2.3,0.1c0.5-0.4,1.2-0.4,1.7-0.6c1.1-0.5,2.7-0.1,3.6-1.2
		c1.1-0.1,1.7-1.3,2.9-1.3c0.3-0.8,1.5-0.1,1.4-1.1c2.7-1,4.5-3.5,5.9-5.8C315,226,314.8,227,315.2,227.4L315.2,227.4z"/>
	<path class="st0" d="M348.9,234.2c0.7,2.2,0.4,4.9,0.3,7.3c-0.5,0.6-0.3,1.4-0.6,2.1c-1,3.3-2,6.7-3.6,9.7h-0.3
		c0.3-5,3.5-9.2,3.3-14.6c-0.1-4.1-2.2-7.4-4.8-10.4c-0.5-0.8,0.2-1,0.4-1.7C346,228.8,347.8,231.2,348.9,234.2L348.9,234.2z"/>
	<path class="st3" d="M80.7,233.5c1.2,2.3,3.1,3.4,4.9,5.5c0.9,0,1.1,1.1,2,1.1c1.1,1,2.6,0.8,3.7,1.6l0.1-0.1l0.3,0.3
		c0.4-0.5,0.8,0.2,1.1,0.3c0.7-0.3,1.4,0.6,2.3,0.3l0.3,0.5c0.5-0.7,0.8-0.2,1.4-0.2c0.6-0.7,1.4,0.2,2,0c0.8-0.2,2-0.2,2.9-0.6
		c0.3,0.5-0.6,0.9-0.7,1.5c-1.1,1.6-2.9,2.2-4.4,3.1c-1.1,0-2,0.6-3,0.7l-0.4-0.4l-0.3,0.3l-0.3-0.3c-0.1,0.6-0.9,0.1-1.1,0.3
		c-0.5-0.7-1.1,0.3-1.6-0.1c-0.5-0.2-1.2-0.7-1.7-0.3L88,247c0,0.2,0-0.4-0.3-0.4c-1.6-0.6-3.1-1.2-4.6-2c-1.5-0.8-2.9-2.1-3.6-3.7
		c-0.8-0.7-0.7-2-1.2-2.9c0-1.1,0.6-2,0.6-3c0.6-0.8,0.7-1.8,1-2.7C80.8,232.2,80.3,233.2,80.7,233.5L80.7,233.5z"/>
	<path class="st3" d="M317.9,235.4c0.4,1.7,1,3.3,0.1,5c-0.5,0.9-1.1,2-1.9,2.6c-1.9,2.1-4.7,3.6-7.3,4.4c-0.8-0.4-2.1,0.8-2.3,0.3
		c-1.7,0.3-2.8,0-4.3,0.2c-0.2-0.6-0.7-0.1-1-0.2c-1.1-0.7-2.3-0.9-3.3-1.9l-0.1,0.1c-0.7-1.2-2.3-1.7-2.7-3.1
		c0.7-0.3,1.4,0.6,2.2,0.1c0.4,0.7,1-0.1,1.4,0.1c0.5-0.1,1.7,0.4,2.2-0.4l-0.1-0.1c0.7,1.4,2.1-0.3,3.1,0.3c0.3-0.9,1,0.2,1.4-0.6
		c2.4-0.4,4.1-1.4,6.2-2.6c0.9-0.9,1.9-2,2.9-2.7c0.9-1.3,2.2-2.4,2.4-3.9C317.6,233.4,317.5,234.6,317.9,235.4L317.9,235.4z"/>
	<path class="st3" d="M112.8,235.4c0.4,1.1,0.8,2.7,1.3,4c0.4,2.3,1.1,4.3,0.4,6.7c-0.1,0.4,0.1,0.7,0.3,1c0.9-0.2,1.1-1.2,1.4-1.9
		c-0.3-2.3,0.7-4.7-0.3-7.3l0.1-0.2c1.7,2.4,2.8,5.2,3.3,7.9c0.5,2.3,1,5,0.5,7.4c0.3,0.3,0.5,1,1.1,0.7c1.5-2.6,0.7-5.4,0.7-8.3
		l-0.3-0.3c0-0.2,0.4-0.1,0.6-0.1c0.3,1.3,1.1,2.5,1.6,3.7c1,3.5,0.5,6.2,0.7,9.8c-0.7,0.4-0.5,1.3-0.3,1.9c0.2,0.3,0.5,0.1,0.7,0.1
		c1-1.2,1-2.2,1-3.8h0.3c0.7,5.7,0,10.9-1.6,16c-0.2,0.2-0.3,0.6-0.2,0.7c-0.2-0.1-0.3,0.2-0.6,0.1c0.1-1.3,1-2.6,0.3-3.9
		c0.6-2.8-0.9-4.7-1-7.2c-2.1-6-5.8-11.9-10.9-16.2c-2-1.5-3.9-3.1-5.9-4.5c-0.2-1.7,2-2.4,2.6-3.9h0.4c0.3,1.7-0.7,2.9-0.1,4.7
		c1,0.5,0.7-0.9,1.3-1.3c0.5-2.1-0.4-4.9,0.7-6.6c0.6,0.2,0.4-0.7,0.9-0.6L112.8,235.4L112.8,235.4z"/>
	<path class="st3" d="M286.7,239.8c0.3,1.4-0.1,2.6,0.9,3.7c1.3-1.3-0.2-3.3,0.7-5c0.8,1.4,3,2.4,2.9,3.9c-4.7,3.4-9.6,7.4-12.9,12
		c-3.6,5.6-5.9,12.1-5.3,19.1v0.4h-0.3c-0.5-1.7-1-3.3-1.4-5c0.5-0.7-0.4-1.1-0.3-1.7c0-3.5,0-5.9,0-9.6h0.6
		c0.1,0.8-0.4,2.2,0.4,2.9l0.8,0.6c0.4-0.3,0.5-0.7,0.4-1.2c-0.6-1-0.7-2.4-0.4-3.6l0.3-0.8c-0.4-1.4,0-3.2,0.4-4.6
		c-0.1-2.2,1.6-3.3,2-5.3h0.3c-0.2,2.7-1,5.9,0.1,8.2c0.3,0.2,0.5,0.8,1,0.6c1.2-1.1-0.6-2.5,0.4-3.6c-0.4-2.9,0.6-5.6,1.6-8
		c0.4-1.1,0.9-2.2,1.6-3.3c0.2-0.3,0.5-0.5,0.4-0.9h0.3c0,3-1.5,6.6,0.7,9.2c1.7-0.8-0.1-2.2,0.4-3.6c0.5-3,1.2-6.4,2.7-9.2
		C287.2,235.6,286.6,238.2,286.7,239.8L286.7,239.8z"/>
	<path class="st3" d="M78.2,241.9c1.1,1.8,2.9,2.9,4.4,4.4c0.6,0.1,1,0.9,1.7,0.7c-0.1,0.7,0.7,0.5,1,0.6c0.6,0.5,1.4,0.7,2.1,1
		l0.3-0.3c0.8,0.9,2.7,0.7,3.7,0.4c0.1,0.4,1.4-0.3,1.4,0.6c0.2-0.2,0.2-0.6,0.6-0.5l0.3,0.3c0.5-0.6,1.4-0.1,2-0.4
		c-0.2,1.1-1.5,1.4-1.7,2.6c-0.9,0.7-2.2,0.8-2.9,1.4c-0.5-0.8-1.4-0.3-2-0.3h-3.3c0.1-0.1-0.1-0.4-0.3-0.3c-0.3,0-0.6,0-0.7,0.3
		c-0.5-0.4-1.4-0.4-1.7-1c-0.2,0.4-0.6,0.4-0.9,0.1c-0.1-0.6-0.9-0.1-1.1-0.6c-1.7-0.7-2.2-2.3-3.7-3.3c-0.6-1.4-1.1-2.7-0.6-4.3
		c-0.2-1,0.9-1.7,0.7-2.6C78,240.8,78,241.5,78.2,241.9L78.2,241.9z"/>
	<path class="st2" d="M75.3,241.6c-0.9,2.1-0.6,4.7-1.3,6.7c-0.3-1.1-1.7-1.7-2-2.9c1.2-1.1,2.4-2.2,2.7-3.9H75.3L75.3,241.6z"/>
	<path class="st3" d="M320.4,246c-0.5,1.2-0.9,2.6-2,3.3c-0.4,1-1.5,1.1-2,2c-0.8,0.1-0.9,1-1.9,0.7c-0.9,0-1.5,1.1-2.6,0.7
		c-0.5,0.6-0.8,0.2-1.4,0.3c-0.9,0.4-2.4,0.3-3.3-0.3c-0.5,0-0.7,0.6-1.2,0.2c-0.6,0.7-1-0.8-1.9-0.3c-0.3-0.5-0.8-0.6-1.3-0.7
		c-0.5-1-1.9-1.8-1.7-2.9c0.7,0.6,1.6,0.6,2.6,0.6c0.4-0.1,1.4,0.2,1.7-0.4c0.3,0.5,2.2,0.3,3.2,0.2c1.5-0.3,3.1-1.1,4.6-1.7
		l0.3-0.3l0.2,0.1c1.1-1.5,3.4-2.2,4.3-4c1-0.3,0.8-1.6,1.6-1.9L320.4,246L320.4,246z"/>
	<path class="st2" d="M322.8,243.8l2.2,2.3v0.4c-0.8,0.7-1.9,1.2-1.9,2.4c-0.8,0.1-0.2-0.9-0.6-1.1c-0.2-2-0.2-3.5-0.6-5.6
		C322.5,242.4,322.3,243.4,322.8,243.8L322.8,243.8z"/>
	<path class="st2" d="M260.2,245.7c0.7,1,1.4,2.3,2.6,2.9c-0.3,0.5,0,1.3-0.3,1.9c-1-1.4-1.8-3.2-2.7-4.7H260.2L260.2,245.7z"/>
	<path class="st2" d="M137.1,246c-0.4,1.4-2,2.4-2.3,3.9c-0.1-0.5-0.4-1-0.3-1.6C135.5,247.7,136.1,246.4,137.1,246L137.1,246z"/>
	<path class="st3" d="M79.9,252c0.8,0.9,2.2,1.6,3.4,1.9c0.6-0.4,1,0.9,1.6,0c-0.1,0.2,0.2,0.3,0.3,0.5c0.1-0.2,0.3-0.2,0.5-0.2
		c-0.1,0.2,0.1,0.2,0.1,0.3c0.8-0.6,1.7,0.6,2.6-0.4c0.4,0.7,1.1-0.3,1.4,0.4l1.7-0.1c-0.2,1.2-1.4,2.3-2.6,3.2
		c-0.6-0.8-0.8,0.1-1.4,0.1c-0.6,0.2-1.9-0.5-2.3,0.6c-1.5-0.8-2.7-0.2-4.1-0.7c-0.7-0.4-1.3-0.2-1.9-0.6c-0.4,0.5-0.6-0.7-1.1-0.3
		c-1.2-0.8-2-1.7-2.4-3c-0.2-1.8,0.3-3.4,0.6-5C77.4,249.7,78.1,251.6,79.9,252L79.9,252z"/>
	<path class="st3" d="M320.8,249.3c0.4,2,1.2,4,0.3,5.9c-1.5,1.8-3.4,2.7-5.9,2.9c-0.9,0.6-1.9,0.1-2.6,0.4
		c-1.6,0.1-2.9-0.4-4.3-0.7L308,258c-0.9-0.7-2.5-1.6-2.7-3.3c0.9,0.5,2.1-0.3,2.9,0.1c0.4-0.3,0.9,0,1.3,0.3
		c1.3-0.7,3.4-0.2,4.7-1.1c1,0,1.7-0.6,2.4-1c1.4-1.1,2.9-2.1,3.9-3.7L320.8,249.3L320.8,249.3z"/>
	<path class="st3" d="M76,256.8c0.1,1.3,1.6,0.6,2.1,1.7c0.7-0.7,0.9,0.8,1.6,0.3c0.3,1,1.1-0.1,1.4,0.6c0.2,0,0.5-0.1,0.6,0.1
		l0.3-0.3c0.7,0.3,1.7,0.9,2.3,0.5c0.6,0.7,1.4-0.1,2,0.1c1,0.6,1.3-0.7,2.4-0.4c0.2,1.4-0.7,2.7-2,3.4c-1.2,0.3-3.1,0.7-4.5,0.7
		l-0.3,0.3c-2.3-0.6-4.7-0.4-6-2.7c-0.8-1.4,0.4-3-0.5-4.3H76L76,256.8z"/>
	<path class="st3" d="M320.9,258.6c0.2,1.1,0.4,3-0.7,3.7c-1.1,1.6-3.1,1.4-4.4,1.9l-0.3-0.3c-0.6,1.2-1.4-0.5-2,0.3
		c-1.4-0.7-2.6-0.4-4-1.1c-1-0.7-1.6-1.9-1.4-3.2c0.8,0.3,1.8,0,2.6,0.3l0.5,0.3l-0.2,0.1c0.5,0.6,0.3-0.4,0.7-0.3
		c0.4,0.4,1.1-0.4,1.3,0.3c0.7-1.6,2,0.2,3-1c2-0.2,3.7-1.2,5.2-2.4C321.7,257.6,320.9,258.1,320.9,258.6L320.9,258.6z"/>
	<path class="st3" d="M79.3,265.2c0.6-0.1,1.2,0.1,1.4,0.4c0.3-0.1,1.1,0.3,1.3-0.1c0.2,0.2,0.5,0.2,0.6,0.4
		c0.2-0.4,0.6-0.3,0.9-0.7c-0.1,0.2,0.2,0.3,0.3,0.4c0.9-0.7,2.1-0.3,3-1c0.4,0.1,0.3-0.6,0.7-0.5c0.2,1.2,0.4,2.7-0.9,3.4
		c-1.5,0.4-2.7,1.4-4.4,1l-0.2-0.2l-0.3,0.5l-0.3-0.3c-1,0.3-2.4,0.1-3.3-0.9l-0.2,0.2c-1.2-0.9-1.2-2.4-1.6-3.7l0.3-0.4
		C77.2,264.5,78.5,264.5,79.3,265.2L79.3,265.2z"/>
	<path class="st3" d="M319.5,267.6c-0.7,0.7-1.7,1-2.6,1.6c-1.8-0.1-4.1,0.6-5.7-0.9c-1.2,0.3-1.7-0.8-2.1-1.6l0.1-2
		c0.5-0.1,0.4,0.7,0.9,0.3c0.2,0.6,1,0,1.3,0.6c0.9-0.3,1.4,0.6,2.3,0.3c0.3,0.8,1.1,0.2,1.6,0c1.8,0,3.4-0.5,4.6-1.6
		C320.5,265.4,319.6,266.5,319.5,267.6L319.5,267.6z"/>
	<path class="st3" d="M80.6,270.5h0.6c0.3,0.3-0.3,0.9,0.3,1.1c0.3-0.2,0.3-0.4,0.3-0.7l-0.2-0.1l0.2-0.1l0.3,0.3
		c1.9-0.9,3.4,0.1,5-1.4c0.7-0.2,0.5,0.7,0.7,1c0.4,1.2-0.7,1.7-0.7,2.7c-0.8,1.5-2.8,1.9-4.3,1.9c-0.7,0.1-1.1-0.4-1.9-0.1
		c-1-0.6-1.4-2.4-2.3-3.6c0.1-0.8-0.8-1.3-0.3-2C79,269.9,79.8,270.1,80.6,270.5L80.6,270.5z"/>
	<path class="st3" d="M311.5,270.9c0.4,0,0.6-0.1,0.8-0.3c0.5,1.1,1.5,0.2,2.3,0.8c0.1-0.2,0.4-0.3,0.4-0.6c0.4,0.5,0.6,0,1-0.1
		c0.4,0.6,0.8-0.3,1.3-0.4c0.2,0,0.5,0.1,0.6-0.2v-0.3h0.4c-0.3,1.9-1.4,4-2.6,5.6c-0.7-0.3-1.3,0.6-2-0.1c0,0.3-0.5,0.6-0.7,0.3
		c-0.2-0.1-0.3,0.2-0.4,0.3c-0.4-0.6-1.4-0.4-1.9-1.1c-1.2-0.2-1.1-1.8-1.9-2.6c0.2-0.7-0.1-1.8,0.4-2.4
		C309.9,270.7,310.8,270.1,311.5,270.9L311.5,270.9z"/>
	<path class="st3" d="M89.4,276.8c0.4,0.5,0.8,1,0.7,1.7c-0.4,1.2-1.5,1.8-2.6,2.1c-0.1,0.4,0.1,0.7,0.4,1h0.5
		c-0.1,0.2,0.1,0.2,0.1,0.3c0.1-0.9,0.7,0.1,1.1-0.4c0.5-0.4,1.5-1,1.6-1.9c1.5,0.4,2.2,2.1,3.8,2.3c0.7,0.4,1.6,1.2,2.4,0.5
		c-0.1-0.7-0.4-1-0.8-1.5c-1.6-0.2-2.7-1.9-3.9-2.9c-0.6-0.9-1.5-1.8-1.7-2.9c1.1-0.1,2.2,1.3,3.4,1c0.3,0.7,1.4,0,1.9,0.9
		c0.3,0,0.6-0.1,0.7,0.1l0.3-0.3c0.4,1,1.9,0.3,2.7,0.7c0.9,0.6,2,0.6,3,1.1c0.4-0.3,0.7,0.3,1.1,0.5c1.1,0.3,2,1.1,3,1.4
		c1,1.2,2.1,2.6,1.4,4.3c-0.6,1.3-2.2,2.2-3.7,2.3c-1.6,0.6-3.5-0.2-5.3,0.3c-0.2-0.3-0.5-0.4-0.8-0.4l-0.3,0.3
		c-0.7-0.4-1.5-0.2-2.3-0.7l-0.3,0.3l-0.3-0.3c-0.5,0.3-0.8-0.6-1.4-0.3c-1.7-0.7-3.3-1.2-4.7-2.3c-0.8-0.7-2-0.9-2.6-1.9
		c-0.4-0.4-1.2-0.6-1.3-1.3c-1.4-1.7-3.4-2.7-4-4.8c0.2-0.4,0.4,0.2,0.7,0.1c0.3,1,1.1-0.2,1.6,0.6c1.4-0.6,3.2-0.7,4.2-2.3
		C89.2,274.8,89,276.1,89.4,276.8L89.4,276.8z"/>
	<path class="st3" d="M311.1,276.8c0.6,1.2,1.9-0.5,2.7,0.3c0.2-0.3,0.6-0.5,0.9-0.6c0.5,1-0.8,1.5-1,2.3c-2.1,2.3-3.8,3.7-6.2,5.3
		c-0.4,0.3-0.5,0.9-1.1,0.7c-1.5,1.4-3.6,1.3-5.1,2.4c-0.1-0.1-0.2-0.2-0.3-0.1l-0.3,0.3c-0.5,0-0.8-0.1-1.4,0.1
		c-0.8,0.6-1.6,0-2.6,0.4l-0.3-0.3c-0.5,0.4-1.3-0.1-1.7,0.5l-0.3-0.3l-2,0.1v0.3c-1.2-1.2-2.7-0.5-3.9-1.9c-0.7-1.2-1.1-2.8-0.1-4
		c1.2-2.4,3.9-2.3,5.9-3.4l0.1,0.1c0.5-1,1.9-0.3,2.6-1.1c0.9,0.7,1.9-0.3,2.7-0.6c0.4-0.1,0.8,0.2,1-0.3c0.4,0.2,1.1,0.1,1.4-0.3
		c1.1-0.2,2.2-0.7,3.2-1.3l0.3,0.4c-0.8,1.5-1.8,2.8-3,3.9c-0.9,1.3-2.7,1.4-3.6,2.7c-0.1,0.7,0.7,0.9,1.2,0.6
		c0.4-0.6,1.1-0.3,1.6-0.6c1.5-0.4,2.2-2,3.6-2.6c0.3,0.7,0.5,1.5,1.3,1.9c0.7,0.3,1.5,0.1,2.3,0.1c0.9-1.6-1.3-0.7-1.7-1.6
		c-1.7-2,0.7-3.8,1.3-5.6C309,275.6,309.8,276.7,311.1,276.8L311.1,276.8z"/>
	<path class="st1" d="M209.8,304.3V184.3c0,0,8.1,4.6,17.6,4.6v105.7C227.4,294.6,217.6,298.5,209.8,304.3L209.8,304.3z"/>
	<path class="st1" d="M168.8,293.6V188.8c0,0,13-1.6,18.2-4.6V304L168.8,293.6L168.8,293.6z"/>
	<polygon class="st3" points="190.9,115.7 207.1,115.7 207.1,111.6 190.9,111.6 190.9,115.7 	"/>
	<path class="st3" d="M190.9,117.5c0,0,14.4-0.2,16.3,0.1c0,0,1,10.6,0,14.6l-16.7-0.4C190.5,131.8,189.8,121.8,190.9,117.5
		L190.9,117.5z"/>
	<path class="st3" d="M188.3,139.5c0,0-0.7-0.5-0.5-2c0.1-1.4,0.9-4,0.9-4l20.1,0.2c0,0,0.9,0.5,0.9,5.9L188.3,139.5L188.3,139.5z"
		/>
	<path class="st3" d="M186.4,142.2l24.7,0.2c0,0,0.9-0.1,1,1c0.1,1.1-0.1,2.4-0.1,2.4s0,0.5-0.9,0.7c-0.9,0.1-25.1-0.5-25.1-0.5
		s-0.9-0.4-0.9-1.1c0-0.6-0.3-1.7,0.4-2.2C186.4,142.2,186.4,142.2,186.4,142.2L186.4,142.2z"/>
	<path class="st3" d="M207,109c0,0-14.1-0.2-15.4-0.1c-1.3,0.1-1.7-0.4-1.7-1.3c0-0.9,0.2-2.3-1.7-2.6c-2-0.3-3.5-0.1-4.2-2.5
		c-0.8-2.4-1.4-2.2-2.2-2.2c-0.8,0-0.7-0.1-0.8-0.9c-0.1-0.8-0.3-2.2,0.4-2.3c0.8-0.1,5.6-0.1,5.6-0.1s1.2-0.2,1.2,0.4
		c0,0.7,0,2.2,0,2.2s-0.8,1.2,1.3,1.2c2.1,0,4.2,0.2,4.7-0.1c0.4-0.3,1.7-0.7,1.6-2c-0.1-1.3-0.4-1.4,1.2-1.5c1.6-0.1,3.4,0,3.4,0
		s0.7-0.5,0.9,0.8c0.2,1.3,0.3,2.1,0.3,2.1s-0.4,0.7,1.4,0.7c1.8,0,4.4,0,4.4,0s1-0.2,1.1-1.2c0.1-1-0.1-2.1,0.9-2.1
		c1,0,5.9-0.1,5.9-0.1s0.9-0.1,1,0.6c0.1,0.8,0,1.8,0,1.8s0.4,0.5-0.8,0.4c-1.2-0.1-1.7-0.4-2.2,1.1c-0.4,1.5-1.2,3.5-2.8,3.7
		c-1.6,0.2-2.7,0.2-2.7,1.5C207.7,107.9,207.6,108.9,207,109L207,109z"/>
	<path class="st4" d="M207.3,24.9c0,0,17.7,8,28.3,9.8c10.6,1.7,17.2,2.4,24.4,1.3c7.2-1.1,9.3-1.6,9.3-1.6l0.2,0.4
		c0,0-6,9.8-24.1,12c0,0-9.9,1.6-17.7,1c-7.8-0.7-17.8-3-21.1-3.3c0,0,0.2-7.6,0.1-9.9C206.7,32.4,206.5,27.2,207.3,24.9L207.3,24.9
		z"/>
	<path class="st5" d="M204.9,44.5c0,0-5-1.4-8.8-1.5l-0.1-7.3c0,0,0.2-1.1,5.9,0.4c0,0,2.6,1.2,3.1,2.1c0,0-0.2,3.5-0.1,4.4
		C205,43.6,204.9,44.5,204.9,44.5L204.9,44.5z"/>
	<path class="st5" d="M177.2,45.7c0,0,3.6-2.4,9.5-2.8l0.1-6.5l-0.5-1.1c0,0-2,0-3.8,0.6c-1.8,0.7-2.9,0.8-5.2,2.4L177.2,45.7
		L177.2,45.7z"/>
	<path class="st4" d="M177.4,35.4c0,0,5.3-2.7,9.7-2.4c0,0,1.8,0,2,1.7c0.1,1.7-0.3,7.8-0.3,7.8s2.1-0.1,4.9,0.3
		c0,0,0.6-6.3,0.5-8.5c0,0,0-1.6,1-1.5c1,0.1,6.4,0.8,9.6,2.4c0,0,1.1-2.3,0.4-3.3c-0.7-1-4.7-2.5-8.1-2.7c-3.5-0.2-2.5-0.7-2.6-2.2
		c-0.1-1.5-0.2-5.4-0.2-5.4c0,0-2.7-0.4-4.9,0c0,0-0.8,3.1-0.5,6.8c0,0,0.1,0.4-0.6,0.4c-0.8,0-5.7-0.3-11.1,2.9L177.4,35.4
		L177.4,35.4z"/>
	<path class="st5" d="M177.6,29.3c0,0,6.2-2.6,9.1-2.4c0,0,0.6-1.2,0.4-2.7c-0.2-1.5,0.2-1.8-0.4-2.1c-0.7-0.2-1.6-0.4-3.7,0.2
		c-2.1,0.7-4.3,1.5-5,1.8c-0.7,0.3-0.8,1-0.8,1C177.3,25.2,176.9,28.9,177.6,29.3L177.6,29.3z"/>
	<path class="st5" d="M196.7,27.3c0,0,6,0.2,8.2,1.6c0,0,0.4-4.1-0.1-4.9c0,0-3.3-2-7.6-2.2c0,0-1.1-0.7-1.1,0.5
		C196.1,23.6,195.8,26.6,196.7,27.3L196.7,27.3z"/>
	<path class="st2" d="M85.7,304.3l-2.9-2.9c0,0,10.1,0.2,13.8,0.6c3.7,0.5,10.7,1.8,13,5.2c2.3,3.4,0.7,5.9-2.3,6.8
		c-2.9,1-10.4,0.8-13.5,0.2c-3.1-0.7-8.8-2.3-13.2-6.8c-4.4-4.6-9.1-9.6-12-8c-2.9,1.6-1.6,3.1-1.3,3.9c0.3,0.8,4.4,4.1,10.4,7
		c6,2.9,17.2,7.6,27.2,10.4c9.9,2.8,49.3,15.6,93.1,15.9c43.8,0.3,96.1-15.1,115.2-22.9c0,0,11.2-4.6,13.7-8.3
		c2.4-3.7-0.5-4.7-2.1-4.4c-1.6,0.3-4.2,0.7-13.2,9.9c0,0-4.2,3.7-11.9,4.7c-7.6,1-12.2,1.3-14.6-1.5c-2.4-2.8-0.8-7.2,5-9.1
		c5.9-2,15.6-2.8,21.8-2.1l-3.1,2.9c0,0-8.6-0.3-11.2,0.2c-2.6,0.5-9.1,2-8.3,4.9c0.8,2.9,7.3,3.4,11.7,1.3
		c4.4-2.1,7.8-4.2,13.8-9.1c6-4.9,10.9-6.7,15.1-4.4c4.2,2.3,2.4,7-0.3,9.6c-2.8,2.6-8.6,7.2-18.7,10.6
		c-10.1,3.4-61.8,21.3-113.1,21.1c-51.2-0.2-103.5-18.5-114.9-22.9c-11.4-4.4-16.8-8.3-19.7-13.2c-2.9-4.9,1-8.5,5.5-8.3
		c4.6,0.2,5.9,2,8.8,4.1c2.9,2.1,7.6,6.8,10.6,8.5c2.9,1.6,12.5,5.7,15.9,3.1c3.4-2.6-0.3-4.4-3.1-5.5
		C98.2,304.7,87.3,303.4,85.7,304.3L85.7,304.3z"/>
	<path class="st5" d="M44.5,289.5l4.6-12.9c0,0,0.5-0.5-0.7-1.1c-1.1-0.6-7.5-4.6-12.5-4.6c-5,0-5.2,2.1-4.7,4.4
		C31.7,277.6,36.4,285.9,44.5,289.5L44.5,289.5z"/>
	<path class="st2" d="M50.2,292.6l6.5-18.9c0,0-5.7-5-16.4-8c-10.7-2.9-12.7-1.3-14.8,2.1c-2.1,3.4-2.4,10.2,3.7,17.4
		c6.2,7.2,21.5,14.5,30.1,16.1l0.8-2.6c0,0-13.8-4.6-21.6-10.7c-7.8-6.2-11.9-13.2-9.3-17.1c2.6-3.9,7-2.1,10.4-1.3
		c3.4,0.8,9.1,2.9,11.9,5.7l-5.2,15.3L50.2,292.6L50.2,292.6z"/>
	<path class="st5" d="M49.1,333.3c0,0,8.3-23.4,9.8-29.6c0,0-15.9-4.9-22.1-9.3c-6.2-4.4-11.1-7-14.8-17.6c0,0-8.1,21.5-8.5,23.4
		c-0.3,2-0.7,5.5-0.2,6.5c0.5,1,2,4.4,3.6,6.2C18.5,314.7,26,324.3,49.1,333.3L49.1,333.3z"/>
	<path class="st5" d="M77.4,307.7c0,0-6-3.3-7.2-4.9c-1.1-1.6,0.7-1,1.5-0.5C72.5,302.9,77.4,307.7,77.4,307.7L77.4,307.7z"/>
	<path class="st5" d="M91,306.9c0,0,5.4-1,11.1,2.3C102.1,309.2,98.5,311.3,91,306.9L91,306.9z"/>
	<path class="st5" d="M103.6,317.5l5.7-1.3c0,0,0.3,2.3-0.8,3.4L103.6,317.5L103.6,317.5z"/>
	<path class="st5" d="M61.1,305.8c0,0-10.4,30.3-10.9,31.9c-0.5,1.6-2.1,6-1.1,8.9c1,2.9,3.6,4.9,7.8,7
		c3.3,1.6,57.5,31.4,141.4,30.3c85.2-1.1,118.3-19.8,141.2-30.3c0,0,6.8-3.4,4.7-10.6c-2.1-7.2-10.9-35.1-10.9-35.1c0,0,0,0.7-1,1.6
		c-1,1-6.8,5.9-14.2,8.8c-7.3,2.9-61.5,24.4-120.4,24.1c-58.9-0.3-110.6-21.1-120.1-25.1C68.3,313.4,63.4,309.5,61.1,305.8
		L61.1,305.8z"/>
	<path class="st5" d="M292.1,310.7c0,0,2.6-3.3,11.2-2.1C303.3,308.6,296,312.5,292.1,310.7L292.1,310.7z"/>
	<path class="st5" d="M317.3,309.2c0,0,2.8-4.6,6.3-5.2C323.7,304,326.8,304.2,317.3,309.2L317.3,309.2z"/>
	<path class="st5" d="M285.6,320.6l-0.5-2.6v-0.8c0,0,2.1,1.6,5.4,1.8L285.6,320.6L285.6,320.6z"/>
	<path class="st2" d="M334.4,300.3c0,0,18.9-4.2,27.5-15.3c0,0,6.3-6.3,3.7-11.1c-2.6-4.7-9.3-2.3-10.4-2c-1.1,0.3-8.9,2.6-11.9,5.4
		v1l4.7,14.6c0,0-2.8,1.5-3.4,1.8l-5.9-17.7c0,0-1.5-1,0.5-2.3c2-1.3,5.5-3.3,8-4.2c2.4-1,8-3.1,11.7-3.4c3.7-0.3,8.8-1.8,11.4,5.4
		c2.6,7.2-6.7,17.1-6.7,17.1s-15,11.9-28.6,13.7L334.4,300.3L334.4,300.3z"/>
	<path class="st5" d="M344.3,334.9c0,0-7.5-23.3-8.3-26.8l-0.5-2.8c0,0,11.5-2,22.6-8.9c11.1-7,14.5-15.5,14.6-16.8l7.3,21.2
		c0,0,1.3,3.1,0.8,6.3c-0.5,3.3-4.2,9.1-8.5,12.7C368.3,323.4,360.1,329.4,344.3,334.9L344.3,334.9z"/>
	<path class="st2" d="M198.2,318.2c14-16.4,36.9-21.8,48.6-33.7c11.7-11.9,8.9-28.5,8.9-28.5c0,0,2.4,1.1,4.1,1.5
		c1.6,0.3,0.2-3.3,0.2-3.3c2.3,2.1,5.2,0.5,5.2,0.5l0.7,2.3c0.2,13,2.3,29.6-29.8,46.9c-32,17.2-38.4,28-38.4,28
		c-6.5-10.7-34-26.5-48.6-35.6c-14.6-9.1-16.8-21-17.9-25.9c-1.1-4.9,0.5-15.9,0.5-15.9s1.5,0.3,2.1,0.6c0.6,0.3,2.1-0.5,2.1-0.5
		l0.8-1l0.5,0.3l-0.8,1c-0.7,2.3,1.1,1.8,1.1,1.8s-0.2,0.5,0.7,0.5c0.8,0,2.9-1.3,2.9-1.3s-2.8,22.6,13.8,33.2
		c0,0,38.9,21.1,42.5,28.3L198.2,318.2L198.2,318.2z"/>
	<path class="st2" d="M200.2,168.8c0,0-1.1-8.9,5.4-11.4c6.5-2.4,7.5,3.7,7.3,5c-0.2,1.3-1,3.3-1.6,4.4c0,0,0.3,3.1,3.4,5
		c3.1,2,8.6,4.4,12.9,4.7c4.2,0.3,13.5-0.2,16.1-1.8c0,0,0.3-0.7,0.3-1.1c0-0.5-1.3-2.1-1.5-2.9c-0.2-0.8-1.3-5.5,2.9-7.3
		c4.2-1.8,7-0.3,8.5,5c1.5,5.4-1.5,9.9-3.9,11.9c-2.4,2-12.9,8.1-27,5C208.8,182.3,201.7,176.3,200.2,168.8L200.2,168.8z"/>
	<path class="st2" d="M186.7,166.4c0,0-2-2.1-1.5-5.5c0.5-3.4,3.7-4.9,6.5-3.9c2.8,1,6.7,2.9,5.9,10.9c0,0-0.5,4.2-1.8,5.9
		c-1.3,1.6-10.9,13-29.6,12c0,0-9.6,1-17.6-5.4c0,0-3.4-2.1-4.4-5.5c-1-3.4-1.8-8.9,3.6-12.2c5.4-3.3,7.6,4.1,7.6,4.1s0.2,3.3-1,4.9
		c-1.1,1.6-0.5,2.3,0.2,2.8c0.7,0.5,7.3,2.6,13.3,2.1c6-0.5,13.8-2.9,16.6-5.9C187.3,167.7,186.7,166.4,186.7,166.4L186.7,166.4z"/>
	<path class="st2" d="M181.2,156c0,0-7,2.9-9.9-1c0,0-1.3-3.7,0.3-4.2C173.2,150.3,176.6,149.1,181.2,156L181.2,156z"/>
	<path class="st2" d="M185.1,156.1c0,0-4.4-4.7-5.5-5.2c0,0,4.9-3.4,9.8,3.3C189.3,154.2,186.9,153.4,185.1,156.1L185.1,156.1z"/>
	<path class="st2" d="M201.3,157.1c0,0-4.1,0.6-7.2-1.5c0,0-2.3-3.7-4.1-4.6C190.1,151.1,195,145.7,201.3,157.1L201.3,157.1z"/>
	<path class="st2" d="M204.1,155.5c0,0-2.4-3.6-3.1-4.2c-0.7-0.7,4.4-2.9,8.1,2.9C209.1,154.2,205.6,153.8,204.1,155.5L204.1,155.5z
		"/>
	<path class="st2" d="M221.2,156.8c0,0-3.9,2.8-7.3-0.5c-3.4-3.3-3.3-4.4-3.3-4.4s0.2-3.6,6.8,0.5
		C217.4,152.4,220,154.5,221.2,156.8L221.2,156.8z"/>
	<path class="st2" d="M220.5,151.5c0,0,10.9-3.2,7.6,4.6c0,0-1.1,0.8-2,0.8C225.4,156.9,221.5,154.1,220.5,151.5L220.5,151.5z"/>
	<path class="st5" d="M350.4,292l-4.2-12.5l-0.2-1.3c0,0,5.5-4.6,12.9-4.7c7.3-0.2,4.9,5.2,3.7,7C361.4,282.2,358,287.4,350.4,292
		L350.4,292z"/>
	<path class="st0" d="M67,324.6l5.9,2.8l2.7,15.1l0,0l0.1,0l4-8.5c0.6-1.2,0.2-1.9-1.7-3l0.5-1l6.1,2.9l-0.5,1
		c-1.7-0.5-2.5-0.4-3.1,0.8l-6.6,13.8l-2.3-1.1l-3.1-17.1l-0.1,0l-4.9,10.2c-0.6,1.2-0.2,1.9,2.1,2.9l-0.5,1l-6.5-3.1l0.5-1
		c1.8,0.8,2.5,0.7,3.1-0.5l5.5-11.5c0.6-1.2,0.2-1.9-1.7-2.8L67,324.6L67,324.6z"/>
	<path class="st0" d="M97.6,344.6l-1.1-0.4c0.3-3.6-1.1-6.1-4-7.2c-1.6-0.6-2.2-0.4-2.7,0.8l-1.8,4.9c2.4,0.9,3.4,0.6,5-1.5l1,0.4
		l-2.6,7l-1-0.4c0.2-2.6-0.4-3.5-2.8-4.3l-2.1,5.7c-0.5,1.2-0.1,1.8,1.5,2.4c3.4,1.2,6.2-0.1,8.2-3.1l1.1,0.4l-2.6,6.5l-15.9-5.9
		l0.4-1c1.9,0.7,2.6,0.5,3.1-0.7l4.4-11.9c0.5-1.3,0-1.9-1.8-2.6l0.4-1l15.5,5.7L97.6,344.6L97.6,344.6z"/>
	<path class="st0" d="M117.7,343.7l-0.3,1c-1.6-0.4-2.3-0.2-2.5,0.4c-0.1,0.5-0.1,1.1-0.1,2.2l0,8.3l0.1,0l5.1-7.5
		c0.2-0.4,0.4-0.7,0.5-1.1c0.3-1-0.7-1.6-2-2l0.3-1l6.2,1.7l-0.3,1c-1.4-0.4-2.2,0.2-2.9,1.2l-9.3,13.3l-2-0.6l0-11.8l-0.1,0
		l-6.8,9.8l-2-0.6l0.1-15.4c0-2.2-0.6-2.5-1.6-3l0.3-1l8,2.2l-0.3,1c-1.4-0.4-1.9-0.2-2.1,0.5c-0.1,0.3-0.1,0.6-0.1,1.2l0,9.3l0.1,0
		l4.5-6.6l0-1.5c0-1.7-0.5-2.4-1.6-2.7l0.3-1L117.7,343.7L117.7,343.7z"/>
	<path class="st0" d="M139.2,355.2l-1-0.2c-0.6-4-1.7-6.2-4.7-6.8c-3.2-0.7-5.3,2-6.3,7.2c-1.1,5.3,0.1,8.5,3.7,9.2
		c3.5,0.7,5.9-1.1,6.9-5l1.2,0.2c-0.9,4.6-4.1,6.8-8.9,5.8c-6.2-1.3-8.7-6.2-7.7-11.3c1-5,6.1-8.4,11.1-7.4c2,0.4,3.5,1.5,4.8,2.6
		l1.2-0.9l1,0.2L139.2,355.2L139.2,355.2z"/>
	<path class="st0" d="M138.4,367l0.1-1.1c2-0.1,2.8-0.8,4-2.9l7.8-13.3l1.4,0.2l4.6,16.6c0.4,1.3,0.9,1.8,2.3,2.1l-0.1,1.1l-9.5-1.3
		l0.1-1.1l1.1,0.1c1.4,0.2,1.6-0.1,1.7-0.7c0-0.3,0-0.7-0.1-1.1l-0.9-3.2l-5.8-0.8l-1.1,2c-0.2,0.3-0.4,0.9-0.5,1.6
		c-0.1,0.7,0.3,1.3,1.3,1.4l1.3,0.2l-0.1,1.1L138.4,367L138.4,367z M148.8,355.3l-3,5.3l4.7,0.6L148.8,355.3L148.8,355.3z"/>
	<path class="st0" d="M159.9,362.8l1.2,0.1c0.5,3,2,6.3,5.4,6.6c1.8,0.2,3.5-0.6,3.7-2.8c0.3-3.9-10.1-3.4-9.6-9.5
		c0.3-3.8,3.3-5.8,6.7-5.5c2.9,0.2,3.7,1.7,4.5,1.8c0.5,0,0.8-0.5,1.1-1l1.1,0.1l-0.5,6.3l-1.1-0.1c-0.5-3-2-5.6-4.8-5.9
		c-1.7-0.1-3.2,0.7-3.3,2.4c-0.3,4.1,10.3,3,9.7,9.9c-0.3,4-4.1,5.7-7,5.5c-3.3-0.3-4.4-1.8-5.3-1.8c-0.5,0-1,0.6-1.2,1l-1.1-0.1
		L159.9,362.8L159.9,362.8z"/>
	<path class="st0" d="M192.8,353.3l-0.1,6.5l-1.2,0c-0.6-3.1-2.1-5.3-5.1-5.4l-0.4,14.3c0,1.3,0.6,1.8,2.9,1.8l0,1.1l-10.4-0.3
		l0-1.1c2.3,0.1,3-0.3,3-1.7l0.4-14.3c-3-0.1-4.6,2-5.4,5.1l-1.2,0l0.3-6.5L192.8,353.3L192.8,353.3z"/>
	<path class="st0" d="M193,371.6l0-1.1c2,0,2.6-0.5,2.6-1.8l-0.2-12.7c0-1.3-0.7-1.7-2.6-1.7l0-1.1l9.7-0.2l0,1.1
		c-2,0-2.6,0.5-2.6,1.8l0.2,12.6c0,1.3,0.5,1.6,1.8,1.6c2.7,0,4.7-2.9,5.4-5.9l1.1,0l0,7L193,371.6L193,371.6z"/>
	<path class="st0" d="M225.4,358.7l-1.1,0.1c-1.1-3.4-3.4-5.2-6.5-5c-1.7,0.1-2.2,0.5-2.1,1.8l0.3,5.2c2.6-0.1,3.4-0.8,4-3.3
		l1.1-0.1l0.4,7.4l-1.1,0.1c-0.8-2.5-1.8-3-4.3-2.9l0.3,6.1c0.1,1.3,0.6,1.7,2.3,1.6c3.6-0.2,5.7-2.6,6.3-6.1l1.1-0.1l0.2,7
		l-16.9,0.9l-0.1-1.1c2-0.1,2.6-0.6,2.5-1.9l-0.7-12.7c-0.1-1.3-0.7-1.7-2.7-1.6l-0.1-1.1l16.5-0.9L225.4,358.7L225.4,358.7z"/>
	<path class="st0" d="M242.1,350.5l0.1,1.1c-2.1,0.2-2.7,0.7-2.5,2.1l1.2,10.9c0.3,2.4,2.5,3.4,4.2,3.2c3-0.3,4.3-2,4-5.1L248,353
		c-0.2-1.3-0.8-1.7-3.1-1.7l-0.1-1.1l6.7-0.8l0.1,1.1c-1.8,0.5-2.4,1-2.2,2.3l1.1,9.4c0.5,4.2-1.9,6.3-6.3,6.8
		c-2.9,0.3-6.9-0.4-7.4-4.5l-1.2-10.5c-0.2-1.3-0.8-1.7-2.8-1.5l-0.1-1.1L242.1,350.5L242.1,350.5z"/>
	<path class="st0" d="M250.9,349.6l6.4-1.1l11,10.8l0,0l0.1,0l-1.6-9.3c-0.2-1.3-0.9-1.6-3.1-1.5l-0.2-1.1l6.6-1.2l0.2,1.1
		c-1.7,0.6-2.3,1.1-2.1,2.4l2.6,15l-2.5,0.4L255.8,353l-0.1,0l1.9,11.1c0.2,1.3,0.9,1.6,3.4,1.2l0.2,1.1l-7.1,1.2l-0.2-1.1
		c1.9-0.3,2.5-0.9,2.3-2.2l-2.2-12.5c-0.2-1.3-0.9-1.6-3-1.3L250.9,349.6L250.9,349.6z"/>
	<path class="st0" d="M274.2,364l-0.2-1c1.9-0.5,2.5-1,2.1-2.3l-2.9-12.4c-0.3-1.3-1-1.6-2.9-1.1l-0.2-1l9.5-2.2l0.2,1
		c-1.9,0.5-2.4,1-2.1,2.3l2.9,12.4c0.3,1.3,1,1.6,2.9,1.1l0.2,1L274.2,364L274.2,364z"/>
	<path class="st0" d="M296,339l2,6.2l-1.2,0.4c-1.6-2.8-3.7-4.4-6.5-3.5l4.1,13.7c0.4,1.3,1.1,1.5,3.3,0.8l0.3,1l-10,3l-0.3-1
		c2.2-0.7,2.7-1.3,2.4-2.6l-4.1-13.7c-2.8,0.9-3.7,3.4-3.5,6.6l-1.2,0.4l-1.8-6.3L296,339L296,339z"/>
	<path class="st0" d="M313.6,339l-1.1,0.4c-2.2-2.9-4.9-3.8-7.8-2.6c-1.5,0.6-1.9,1.2-1.4,2.4l1.9,4.8c2.4-1,3-1.8,2.7-4.4l1-0.4
		l2.8,6.9l-1,0.4c-1.6-2.1-2.6-2.3-5-1.3l2.3,5.6c0.5,1.2,1.2,1.4,2.7,0.8c3.3-1.3,4.5-4.3,4-7.8l1.1-0.4l2.5,6.5l-15.7,6.3l-0.4-1
		c1.8-0.7,2.3-1.4,1.8-2.6l-4.7-11.8c-0.5-1.2-1.3-1.4-3.1-0.7l-0.4-1L311,333L313.6,339L313.6,339z"/>
	<path class="st0" d="M319.9,328.8c6-2.8,11.1-1,13.3,3.9c2.2,4.7,0.4,9.9-4.9,12.4l-8.2,3.8l-0.5-1c1.8-0.8,2.2-1.5,1.6-2.7
		l-5.4-11.5c-0.6-1.2-1.3-1.3-3.1-0.5l-0.5-1L319.9,328.8L319.9,328.8z M325.1,343.2c0.5,1.2,1.3,1.4,3,0.7c2.6-1.2,3.2-4.2,0.8-9.2
		c-2.3-5-5-6.4-7.5-5.3c-1.6,0.8-1.9,1.5-1.4,2.7L325.1,343.2L325.1,343.2z"/>
	<path class="st3" d="M73.7,226.8c0.7-0.4,1.7,0.3,2,0.6c1.1-2.5-1.9-3.3-2.3-5.6c0.3-0.3,0.6-0.9,1.2-0.7c1-0.6,2-1,3.1-1.9
		c0.5-0.5,1.4-1.1,1.4-1.9c-0.8-0.4-1.3,0.1-2-0.4c-0.6,0.3-1.1-0.6-1.4,0c-0.8-0.6-1.6-0.2-2.3-0.3c-0.5-0.3-1.3-0.6-1.7-0.3
		c-0.6-0.5-1.6-0.2-2.2-0.3l0-0.1c-0.5,0-1,0.1-1.3-0.4l-0.4,0.4c-1.2-0.2-1.7,0.7-2.4,1.4c-0.2,1.3-0.4,2.5,0.7,3.3
		c1,0.6,1.4,2.2,2.6,2.6C68.7,223.2,70.5,226.1,73.7,226.8L73.7,226.8z"/>
	<path class="st3" d="M328.7,224.9c-0.5-0.2-0.2-0.6-0.3-1c1.5-1.7,4.5-3.1,3.4-5.9c-0.7-0.3-1.1-1.9-2-1c-0.2-0.8-1.2-0.3-1.6-0.3
		c-0.4,0.4-0.7-0.4-1,0.3c-1.3-0.7-2.3,0.8-3.3,0.3c-1.6,0.3-4.1,0.7-5.7,0.7c-0.5,0.4,0.1,0.8,0.4,1.1c1.2,0.9,1.9,2.2,3.4,2.3
		c0.6-0.1,0.7,0.8,1.3,0.6c1.2,0.9-0.5,1.7-0.7,2.6l-0.3,0c-0.5,1.1-1.6,2.1-1.1,3.4c0.3-0.1,0.7-0.4,1-0.3c0.2,0.1,0.3-0.2,0.4-0.3
		c0.7-0.1,2-0.4,3-0.7C325.7,226.8,327.8,225.9,328.7,224.9L328.7,224.9z"/>
</g>
</svg>
