<?xml version="1.0" encoding="utf-8"?>
<!-- Generator: Adobe Illustrator 19.1.0, SVG Export Plug-In . SVG Version: 6.00 Build 0)  -->
<svg version="1.1" id="Layer_1" xmlns="http://www.w3.org/2000/svg" xmlns:xlink="http://www.w3.org/1999/xlink" x="0px" y="0px"
	 viewBox="0 0 160 160" style="enable-background:new 0 0 160 160;" xml:space="preserve">
<style type="text/css">
	.st0{fill:#06A54D;}
	.st1{fill:#FBEC20;}
	.st2{fill:#231F20;}
</style>
<g>
	<path class="st0" d="M77.7,148c-2.4-0.2-4-0.7-4-0.7c-19.7-6.8-33.6-24.1-42.4-42.5C24.2,89.1,20.9,71,20.7,52.9V15h118.6v38
		c-0.2,18-3.5,36.2-10.5,51.9c-8.8,18.5-22.7,35.7-42.4,42.5C83.2,148.2,80,148.2,77.7,148"/>
	<path class="st1" d="M71.1,39.6c-2.2-0.3-4.3-0.7-6.5-1c-4.3-0.6-8.6-1-12.8,0.1c-0.4,0.3-0.5,0.7-0.6,1c0,0.2-0.1,0.4-0.1,0.6
		c0,0.2-0.1,0.3-0.1,0.5c0.8,1,1.9,1.3,3.3,1.3c1.4,0,2.9-0.4,4.2-0.5c0.1-0.1,0.2-0.2,0.3-0.4l0.4-0.5c0.2-0.3,0.5-0.7,0.9-1
		l0.2-0.1c1.7-0.1,3.7,0,4.7,1.5c4.4-1.5,10.5-0.8,13.3,2.7l0.1,0.2c-0.1,2.8-2,3.3-4,3.6c-1,0.1-2,0.2-2.9,0.5
		c-0.8,0.2-1.6,0.6-2,1.4c0.1,1.1,1.1,1.9,2.1,2.2c0.4-0.1,0.9-0.2,1.3-0.3c0.5-0.1,1-0.2,1.5-0.2c1,0,1.9,0.3,2.6,1.2
		c0.3,0.6,0.5,0.5,0.8,0.3l0.3-0.3c0.1-0.1,0.2-0.2,0.4-0.3c0.3-0.2,0.6-0.3,1-0.2l0.2,0.2c0.1,0.7-0.1,1.3-0.4,1.8
		c-0.1,0.3-0.3,0.5-0.5,0.8l-0.5,0.8c-0.7,1-1.1,2-0.5,3.2l0.2,0.5l-0.5-0.1c-0.6-0.1-0.9-0.4-1.2-0.8c-0.1-0.2-0.2-0.4-0.3-0.6
		l-0.3-0.6c-0.4-0.7-0.7-1.1-1.8-0.7l-0.5,0.2l0.2-0.6c0.1-0.4,0.3-0.8,0.3-1.2c0.1-0.4,0.1-0.8-0.1-1.1c-0.5-0.6-1-0.7-1.5-0.6
		c-0.6,0.1-1.2,0.4-1.9,0.6c-0.7,0.7-1.5,1-2.5,1.1c-0.9,0.1-2,0.1-3,0.1c-1.4-0.8-1.6-1.8-1.7-2.9c0-0.5,0-1.1,0-1.6
		c0-0.5,0-1-0.2-1.5c-2.7-1.1-4.8-0.1-6.8,1.3c-1,0.7-2,1.6-3.1,2.3c-1.1,0.7-2.2,1.4-3.5,1.7c-1.4,0.5-3,0.6-4.6,0.7
		c-0.8,0-1.5,0.1-2.3,0.2c-0.6,0.1-1.2,0.1-1.7,0.3c0.5,1.1,0.7,2.6,0,3.4c-0.1,0.6-1,1.2-1.6,0.5c-0.2-0.6-0.5-1-0.7-1.5
		c-0.2,0.1-0.3,0.1-0.5,0.3c-0.1,0.1-0.2,0.2-0.3,0.3l-0.3,0.3c-0.4,0.4-1,1-1.8,0.8l-0.2,0l0-0.2c0-0.4-0.1-0.6-0.3-0.8
		c-0.1-0.1-0.2-0.2-0.4-0.3l-0.2-0.2l-0.3,0.4c-0.2,0.2-0.4,0.5-0.7,0.7c-0.5,0.4-1.2,0.7-2,0.4l-0.2-0.1v-2.2
		c-0.4-0.1-0.8-0.1-1.2-0.1c-0.5,0-1.1,0-1.6,0c-1.1,0-2.2,0-3.1-0.4l-0.3-0.1l1-1.7l-1-0.3l0.1-0.5c1.6,0.2,3.2,0.8,4.8,1.2
		c1.5,0.4,3,0.6,4.6,0.2c0.1-0.5,0.1-1,0.1-1.5c-0.1-0.6-0.2-1.1-0.3-1.7c-0.2-1.1-0.4-2.3,0.5-3.5l0.2-0.1c0.5-0.1,1.1,0,1.6,0.1
		c0.5,0.1,1.1,0.3,1.7,0.4c0.9,0.2,1.7,0.4,2.5,0.5c-0.2-0.2-0.4-0.4-0.6-0.7c-0.4-0.4-0.7-0.8-1-1.2c-0.7-0.7-1.4-1.1-2.6-1
		l-1.5,1.6L35,47.6c-0.1-0.9,0-2.5,0.6-3.5l2.7-0.1c0.3-0.5,0.2-0.8-0.2-1.3c-0.2-0.2-0.5-0.5-0.7-0.7c-0.2-0.2-0.5-0.5-0.6-0.8
		l0-0.2c0.7-1.6,1.7-2.7,3-3.8l0.2-0.2l1.4,1.4c0.3-0.2,0.7-0.3,1-0.4c0.4-0.1,0.8-0.2,1.2-0.3l0.2-0.1l0.1,0.2
		c0.1,0.2,0.1,0.4,0.2,0.6c0.1,0.2,0.1,0.5,0.2,0.6c0.1,0.2,0.2,0.4,0.6,0.1c0.1-0.2,0.3-0.3,0.4-0.3c0.1,0,0.1,0,0.2,0l0.5,0
		L46,39.2c-0.6,1.4-1.4,3-2.1,4.6L39.9,44c0,0.8,0.8,1.8,1.7,1.9l0.9,0l-0.6,0.9c9.5-1.3,19.7-1.3,29.7-0.7c0.4-0.1,0.8-0.1,1.2-0.1
		c0.4,0,0.8-0.1,1.1-0.2c0.7-0.2,1.2-0.6,1.4-1.4c0-0.6-0.6-1.5-1.2-1.9c-1.6-0.7-3.3-0.6-5.1-0.4c-0.9,0.1-1.8,0.3-2.7,0.4
		c-0.9,0.1-1.8,0.2-2.8,0.1c-2.1,0.2-4.4,0.6-6.6,0.9c-2.3,0.2-4.6,0.2-6.7-0.7c-0.6-1-1-2.2-0.5-3.3c0.4-0.8,1.2-1.2,1.9-1.5
		c0.7-0.2,1.5-0.4,2.2-0.6c5-0.5,10.4-0.1,15.1,0.4c2.2-1.5,4.9-1,7.1,0l0.6,0.5c0.2,0.2,0.4,0.3,0.5,0.5c0.3,0.3,0.6,0.7,0.8,1.2
		l0.1,0.3l-0.4,0C75.4,40.1,73.3,39.9,71.1,39.6"/>
	<path class="st1" d="M124.2,33.5c-1.4,2.6-2.9,4.3-5.9,5.2c-1.8,0.2-3.2-0.2-4.4-1.2c-1.3-2.1-1.2-4.7-0.9-7c0.7-1.2,2.1-2.4,3.5-2
		c0.4,0.6,0.6,0.8,0.9,1c0.1,0.1,0.3,0.2,0.5,0.3l0.6,0.3c1.7,0.3,3.7,0.3,4.9-0.9c0.7-0.7,0.9-1.8,0.5-2.7
		c-0.3-0.7-0.8-1.1-1.5-1.4c-0.4-0.1-0.7-0.3-1.1-0.4l-1.1-0.3c-0.4,0.1-0.8,0.2-1.2,0.3c-0.4,0.1-0.8,0.2-1.2,0.4
		c-0.7,0.3-1.2,0.7-1.5,1.5c0.1,0.9-0.4,1.4-1,1.6c-0.3,0.1-0.6,0.2-0.9,0.3c-0.3,0.1-0.5,0.2-0.6,0.3c-1,0.7-1.4,1.7-1.5,3
		c-0.1,1.2,0.1,2.6,0.2,3.9c0.2,1.2,1.3,2.5,2.4,2.9c1.7,0.7,3.7,0.6,5.3-0.2c2.8-1.9,4.6-4.4,5.4-7.3l0.5,0.1
		c0,18.6-2.6,38-18.5,47c-8.6,5.4-20.4,6.5-31,4.4l0-0.5c1.6-0.2,3.1-0.9,4.5-1.8c0.7-0.5,1.4-1,2-1.5c0.6-0.5,1.2-1,1.8-1.5
		c13.2-2.7,26.1-9.9,29.6-23.6l0.2-0.2c1.6-0.5,2.8-1.7,3.9-3.1c-3.8,3.6-9.3,5.7-15.1,4.3c-2.2,4-7.8,5.8-12.4,5.7l-2.6-0.7
		l0.2-0.3c0.8-1.2,1.4-2.7,1.8-4.3c0.5-1.6,0.9-3.4,1.5-4.9c4.3-3.9,7.6-8.7,10.8-13.5c1.6-2.4,3.2-4.8,4.9-7
		c1.7-2.2,3.5-4.3,5.5-6.1c2.6-2.1,7.3-3.5,10.6-1.4C126.5,25.7,126.3,30.2,124.2,33.5"/>
	<path class="st1" d="M126,25.3l-0.3,0.1l-0.8-3l0.4,0c1.7,0.1,3.7,0.5,5.4,1.2l0.7,0.3l-0.8,0.2C129.2,24.5,127.6,24.9,126,25.3"/>
	<path class="st1" d="M130.7,25.9c-0.4,0.2-0.9,0.5-1.3,0.7c-0.9,0.5-1.7,1-2.2,1.8l-0.3,0.5l-0.8-2.8l0.1-0.1
		c0.7-0.6,1.6-0.9,2.6-1.1c0.9-0.2,1.9-0.3,2.9-0.4l0.8-0.1l-0.6,0.5C131.5,25.4,131.1,25.6,130.7,25.9"/>
	<path class="st1" d="M123.2,28.7c-0.2,0.2-0.5,0.3-0.7,0.4c-0.2,0.1-0.4,0.3-0.5,0.4l-0.1,0.1l-0.1,0c-1.5,0.3-3.7,0.4-4.8-0.9
		l-0.1-0.1c-0.1-0.3-0.2-0.6-0.3-0.8c-0.1-0.3-0.2-0.6-0.1-1l0-0.1l0.1-0.1c0.9-1,2.2-1.5,3.6-1.7l0.1,0l0.1,0
		c0.2,0.1,0.5,0.2,0.8,0.3c0.3,0.1,0.6,0.2,1,0.3c0.6,0.2,1.3,0.6,1.5,1.4C124,27.8,123.7,28.4,123.2,28.7"/>
	<path class="st1" d="M68.5,82.1l0.5,0.3l-0.1,0.2c-1.1,2.1-2.7,3.7-4.5,5c-0.9,0.6-1.9,1.2-2.8,1.8c-1,0.5-1.9,1-2.9,1.5l-0.3-0.4
		c11.2-13.2,21-25.1,32.2-38.5l0.8-0.9l-0.3,1.2c-1.2,4.9-3.9,9-7.1,12.8c-3.1,3.8-6.8,7.3-9.9,11"/>
	<path class="st1" d="M84.9,76.3c-1.7,0.2-3.2,0.1-4.7-0.2c-1.5-0.2-2.9-0.5-4.4-0.6l-0.3,0l0.1-0.3c0.8-2.5,2.6-3.2,4.6-3.3
		c1.9-0.1,4.1,0.5,5.9,0.5c10-1.7,21.1-6.5,24.5-17c0.4-0.6,0.9-0.8,1.4-0.9c0.3,0,0.5-0.1,0.8-0.1c0.2,0,0.5-0.1,0.7-0.2l0.5-0.2
		l-0.2,0.5C110.1,67.2,97.6,74.6,84.9,76.3"/>
	<path class="st1" d="M88.8,66l-0.2,0c-0.2-0.1-0.6-0.2-1-0.3c-0.4-0.1-0.8-0.1-1.2-0.2c-0.4-0.1-0.8-0.1-1.1-0.3
		c-0.3-0.2-0.6-0.4-0.6-0.8l3.5-4.3l0.2,0c5.7,1.7,11.6-0.2,15.1-5.1l0.1-0.1l2.5,0.5l-0.2,0.3C102.6,61.7,96.2,65.4,88.8,66"/>
	<path class="st1" d="M90.7,71.1c-3.9,1-7.3,0.7-11.2,0.2L79,71.3l5-5.9l0.2,0.1c8,3.4,15.6-2.2,20.8-7.1c0.2-0.4,0.5-0.8,0.7-1.3
		c0.3-0.4,0.6-0.8,0.9-1.2c0.7-0.7,1.7-1.1,3-0.8l0.3,0.1l-0.1,0.3C107.4,64.3,98.7,68.1,90.7,71.1"/>
	<path class="st1" d="M69.8,81.8l-0.5-0.1l5.6-6l0.2,0c2.9,0.7,5.8,1.3,9,1l0.7-0.1l-0.5,0.5C80.9,80.9,75.3,82.6,69.8,81.8"/>
	<path class="st1" d="M66.9,92.3l-0.4-0.6c-0.9-1.4-1.1-3.3-0.7-5l0.1-0.3l0.2-0.1c0.4-0.2,0.8-0.6,1.2-1.1c0.4-0.6,0.7-1.2,1.1-1.8
		c0.8-1.2,1.9-2.2,3.8-1.1l4.3-0.2l-1.1,1c-2.7,2.6-5.7,5.8-8,8.6"/>
	<path class="st1" d="M83.8,87.5c-0.4,1.1-0.7,2.2-0.3,3.5l1.3,3.8l-2.2,0.5l0-0.4c0-0.9-0.1-1.8-0.3-2.8c-0.2-1-0.5-1.9-0.7-2.9
		c-0.3-1.9-0.2-3.8,1.7-5.4l0.1-0.1h2.1l-0.1,0.4C84.9,85.3,84.3,86.4,83.8,87.5"/>
	<path class="st1" d="M89.3,92.1c0.3,1.4,0.8,2.8,1.3,4.1c0.4,1.3,0.8,2.6,0.9,3.9c1.8,0.2,3.7,0.4,5.5,0.6l0,0.5
		c-0.9,0.1-1.9-0.1-2.7,0c-0.8,0.1-1.4,0.3-1.9,0.8c0.3,0.3,0.6,0.5,1,0.7c0.4,0.3,0.8,0.5,1.2,0.8c0.8,0.5,1.7,1.1,2.4,1.9l0.5,0.5
		l-0.7-0.1c-0.4,0-0.7-0.2-0.9-0.4c-0.3-0.2-0.5-0.4-0.8-0.5c-0.5-0.3-0.9-0.5-1.5-0.3c-0.1,0.3,0,0.5,0,0.8c0,0.3,0.1,0.7,0.2,1.1
		c0.2,0.7,0.3,1.5,0,2.4l-0.2,0.6l-0.3-0.6c-0.5-1.1-0.8-2.5-1.4-3.8c-0.5-1.2-1.2-2.2-2.3-2.6c-2.1,0.4-4,1.4-5.8,2.5l-0.7,0.5
		l0.3-0.8c0.3-0.6,0.8-1.1,1.4-1.4c0.3-0.2,0.6-0.3,0.9-0.5c0.3-0.1,0.6-0.3,1-0.4c1.3-0.6,2.5-1.1,2.9-2.4c0-1.1-0.2-2.2-0.5-3.2
		c-0.3-1-0.7-2-1.1-3c-0.8-2-1.5-4-1-6.2l0.2-0.2c0.4-0.2,0.6-0.6,0.7-1.3c0.1-0.3,0.1-0.7,0.2-1c0.1-0.3,0.2-0.7,0.4-1l3.3-0.1
		L91,84.5C88.6,86.8,88.6,89.3,89.3,92.1"/>
	<path class="st1" d="M56.1,103.9c-3.5,4-6.8,8.3-9.3,13l-0.3,0.6l-0.2-0.6c-0.4-1.3-0.3-2.7-0.1-4.2c0.2-1.4,0.5-2.8,0.6-4.1
		l0.1-0.2c7.4-6,13.2-13,17.7-20.5l0.4-0.7l0.1,0.9c0.1,1.4,0.4,2.7,1.1,3.8l0.1,0.2C63.2,96,59.6,99.8,56.1,103.9"/>
	<path class="st1" d="M43.7,108.7c-0.5,0-1,0-1.5,0c-0.5,0.1-0.9,0.1-1.3,0.3l-0.3-0.5c3-2.2,5.8-4.9,8.6-7.9c2.7-2.9,5.4-6.1,8-8.9
		c2.2-0.4,3.8-1.6,5.6-2.8l1.1-0.8l-0.7,1.1c-4.5,7.4-10,13.5-16.5,18.8C45.8,108.7,44.7,108.7,43.7,108.7"/>
	<path class="st1" d="M69.8,110.6c0.3-1.3,0.6-2.1,0.6-2.1c2.8-7.5,8.7-12.3,16.8-13.8l0.2,0.1c1.5,1.3,1.7,4,1.3,5.6
		c-0.6,0.8-1.3,1.2-2,1.6c-0.7,0.4-1.5,0.7-2.2,1.1c-1.3,0.7-2.2,1.5-2.3,3.2c0.4-0.2,0.9-0.4,1.3-0.6c0.6-0.3,1.1-0.6,1.7-1
		c1.1-0.7,2.4-1.3,3.8-1.7c1.2-0.1,2,1.2,2.3,1.9l1.8,5.9c1.1-1.4,1.6-3.5,0.8-5.3l-0.2-0.4l0.5,0.1c1.1,0.1,2,0.8,2.7,1.5
		c0.4,0.3,0.8,0.7,1.1,1c0.3,0.2,0.5,0.4,0.7,0.5c-0.1-1.2-0.8-2.2-1.7-3.1c-0.5-0.5-1.1-1-1.7-1.4c-0.6-0.5-1.2-0.9-1.8-1.3
		l-0.4-0.3l0.5-0.1c0.5-0.1,1-0.2,1.5-0.2c0.5,0,1.1,0,1.7,0c1,0,2.1,0,2.9-0.3c0-0.2-0.2-0.3-0.4-0.4c-0.2-0.1-0.3-0.1-0.5-0.2
		c-0.2-0.1-0.3-0.2-0.5-0.3c-2.1-0.5-4.4-0.5-6.6-0.7l-0.2,0l-0.9-5.1l0.3,0c9.3,0.3,16.2,6.4,19.2,14.4c2.8,8.3-0.1,17.4-6.6,23
		c-6,5.1-15.2,5.7-22.2,2.6c-7.1-3.2-12.5-10.8-12.2-18.8C69.2,113.7,69.5,111.9,69.8,110.6"/>
	<polyline class="st1" points="33,20.1 33,22.9 38.5,22.9 38.5,20.1 44.4,20.1 44.4,22.9 49.7,22.9 49.7,20.1 55.9,20.1 55.9,22.9 
		61,22.9 61,20.1 66.4,20.1 66.4,22.9 72.5,22.9 72.5,20.1 79.3,20.1 79.3,33.8 56.3,33.8 56.3,28.8 49.4,28.8 49.4,33.8 27.5,33.8 
		27.5,20.1 	"/>
	<path class="st1" d="M33.1,38l-0.4,0.6c-0.4,0.6-0.9,1.2-1.4,1.8c-0.5,0.6-0.9,1.2-1.3,1.8c-0.7,1.2-1.1,2.6-0.6,4.3
		c1,1.5,2.5,2.6,4.3,2.4l0.3,0l0,0.3c-0.1,0.4-0.1,0.9-0.2,1.3c0,0.4-0.1,0.9,0,1.4l0,0.3l-0.3,0c-1.9,0.1-4.4,0.1-6.2-0.8
		c-0.7-0.6-1.5-1.5-1.7-2.4l0-0.1l0.1-0.1c0.2-0.2,0.5-0.3,0.7-0.3c0.1,0,0.2,0,0.3,0.1l0.3,0.1c0.2,0.1,0.4,0.1,0.5,0l-0.5-0.3
		c-0.2-0.2-0.5-0.3-0.7-0.6c-0.3-0.8-0.6-2.5,0.2-3.3l0.2-0.2l0.2,0.2c0.1,0.1,0.2,0.1,0.4,0.1c0.1,0,0.2,0,0.4,0
		c0-0.3-0.2-0.7-0.4-1.1c-0.1-0.2-0.3-0.5-0.5-0.7c-0.2-0.2-0.3-0.5-0.4-0.7c-0.2-0.3-0.3-0.7-0.3-1.1c0-0.3,0-0.7,0-1l0-0.1
		l0.1-0.1c0.2-0.1,0.4-0.3,0.5-0.5c0.2-0.2,0.3-0.4,0.4-0.5c0.2-0.3,0.2-0.6-0.2-0.9l-0.6-0.5l0.8,0c0.5,0,0.9,0.3,1.3,0.5
		c0.4,0.3,0.8,0.6,1.2,0.9c0.8,0.5,1.3,0.7,1.8-0.1l0.1-0.1"/>
	<path class="st1" d="M62.6,53.1c0.1,0.2,0.3,0.5,0.6,0.7c0.2,0.2,0.5,0.5,0.7,0.7c1,0.9,1.9,2,0.9,3.8c-0.6,1.5-1.7,1.7-2.8,1.6
		c-0.5-0.1-1.1-0.2-1.7-0.3c-0.5-0.1-1-0.2-1.5-0.1c-0.4,0.1-0.9,0.2-1.3,0.5c-0.5,0.2-0.9,0.5-1.4,0.6c-1,0.4-2,0.6-3.2-0.2
		l-0.5-1.9l-2.3,0.7l0.3-0.6c0.4-0.8,1.1-1.2,1.8-1.5c0.4-0.1,0.7-0.3,1.1-0.4c0.2-0.1,0.5-0.2,0.7-0.4l-1.4-1.1l0.9,0.1
		c0.8,0.1,1.5,0.3,2.2,0.5c0.7,0.3,1.4,0.6,2.2,0.8c1.3,0.4,2.5,0.5,3.7-0.3l-3.5-3.8l0-0.1c0.2-1,1-1.3,1.7-1.4
		c0.7-0.1,1.6,0,2.2,0l0.4,0l-0.1,0.4C62.2,52.1,62.3,52.7,62.6,53.1"/>
	<path class="st2" d="M85.9,146c19.2-6.6,32.8-23.5,41.5-41.8c7-15.5,10.2-33.5,10.4-51.3V16.3H22.1v36.6
		c0.2,17.9,3.4,35.8,10.4,51.3c8.7,18.3,22.4,35.1,41.5,41.8C74.1,146,80.1,147.7,85.9,146 M86.9,149.9l-0.2,0.1
		c-6.4,1.9-13.5-0.1-13.5-0.1C38.5,138,25.4,98.1,25.4,98.1c-5.3-17.9-7.3-29.8-7.3-54.4V12.1h123.8v31.6c0,24.5-2.1,36.4-7.4,54.4
		C134.6,98.1,121.5,138,86.9,149.9"/>
	<path class="st2" d="M27.8,20.4v13.2h21.3v-5h7.5v5H79V20.4h-6.2v2.8h-6.6v-2.8h-4.9v2.8h-5.6v-2.8H50v2.8h-5.9v-2.8h-5.3v2.8h-6
		v-2.8 M26.9,19.7h6.7v2.7h4.2v-2.7H45v2.7h4.1v-2.7h7.5v2.7h3.8v-2.7h6.7v2.7h4.8v-2.7h8v14.6H55.7v-4.8H50v4.8H26.9V19.7z"/>
	<path class="st2" d="M77.6,39.8c-0.3-0.9-1-1.4-1.8-2c-2.2-1-4.8-1.5-6.9,0c-4.7-0.4-10-0.8-15-0.4c-1.4,0.5-3.2,0.5-4,2
		c-0.4,1-0.1,2.1,0.4,3c4.2,1.8,8.9,0.2,13.2-0.2c3.7,0.3,7.2-1.5,10.7,0c0.7,0.4,1.4,1.4,1.4,2.1c-0.4,1.9-2.5,1.8-4,2
		c-10.2-0.6-20.6-0.6-30.2,0.8l0.6-1h-0.4c-1.2-0.1-2.1-1.5-2-2.4l4-0.2c0.7-1.5,1.6-3.2,2.1-4.6c-0.2,0-0.5-0.1-0.5,0.2
		c-1.2,0.9-1.2-0.8-1.4-1.4c-0.8,0.2-1.6,0.4-2.4,0.8L40,37.3c-1.3,1.1-2.3,2.2-3,3.7c0.4,1,2.4,1.8,1.4,3.2h-2.6
		c-0.5,1-0.7,2.5-0.5,3.3l1.1-1.2c2.7-0.4,3.3,2.1,5.2,3.3c-2.1,0.2-4.6-1.2-6.5-1c-1.5,2.1,0.4,4.3-0.2,6.7c-3.3,1-6.5-0.9-9.7-1.4
		l1.4,0.4l-1,1.8c1.8,0.8,4.2,0.1,6.1,0.6V59c1.4,0.4,2.4-0.9,3-1.6c0.4,0.6,1.2,0.8,1.1,1.8c1.4,0.3,1.8-1.6,3-1.8
		c0.3,0.5,0.7,1,0.8,1.6c0.4,0.4,1.1,0.1,1.2-0.4c0.7-0.8,0.4-2.4-0.2-3.5c2.6-0.7,6.1-0.2,8.9-1.2c4.9-1.2,7.7-7.6,13.6-5.2
		c0.7,2.2-0.7,4.6,1.6,5.9c2,0.1,4.1,0.2,5.3-1.2c1.4-0.3,2.6-1.3,3.8,0.2c0.4,0.9,0,1.8-0.2,2.6c2.6-1.1,1.9,2.4,3.7,2.6
		c-1.5-2.9,2.2-4.3,1.8-6.7c-1-0.3-1.8,2-2.6,0.4c-1.2-1.7-3.4-1-5.2-0.6c-1.2-0.3-2.3-1.2-2.4-2.6c2.1-3.5,8.7-0.2,8.9-5.3
		c-2.7-3.5-8.8-4.1-13.2-2.6c-0.9-1.6-2.7-1.6-4.6-1.6c-0.7,0.6-1,1.4-1.6,2c-2.6,0.3-6.3,1.5-7.9-1c0.4-0.8,0.1-1.5,1-2.4
		C60.2,36.3,69.1,40,77.6,39.8 M31.5,38.7c-1.2,2-3.1-1.2-4.6-1.2c1,0.9-0.1,1.8-0.8,2.4c0.1,0.7-0.2,1.5,0.2,2c0.4,1,1.5,2,1.4,3
		c-0.4,0-0.9,0.2-1.2-0.2c-0.7,0.7-0.4,2.3-0.2,3c0.4,0.4,0.9,0.7,1.4,1c-0.5,1-1.4-0.3-2,0.4c0.2,0.8,1,1.6,1.6,2.2
		c1.8,0.8,4.2,0.8,6.1,0.8c-0.1-1,0.1-1.9,0.2-2.7c-1.9,0.2-3.5-1-4.6-2.6c-1.1-3.6,1.6-5.7,3.4-8.1L31.5,38.7z M62.1,51.3
		c-1.4,0.1-3.3-0.4-3.7,1.2l3.6,4c-2.6,2.2-5.7-0.6-8.5-0.8l1,0.8c-1.2,1-3.1,1-3.8,2.4l2-0.6l0.4,2c2,1.4,3.8-0.7,5.7-1
		c1.9-0.3,4.7,1.8,5.7-1C66.4,54.9,61.2,54.5,62.1,51.3 M79.9,51.3c0.8,3.5-3.5,5.4-1.4,8.9c-2.7,0.1-2.7-3.1-5.2-3.1
		c-1.9-0.4,0.4-2-0.5-3.2c-2.6-0.6-4,2.7-6.9,1.8c-0.3,0.7-0.3,1.8-0.4,2.6c-0.5,1.1-1.3,1.9-2.4,2.4c-4.2-3-7.2,3.5-11.3-0.2v-0.8
		c-0.6-0.5-2.3,1.1-2.2-0.5c0.1-1,1.1-1.9,2-2.2c0.3,0.1,0.4-0.2,0.6-0.4l-0.8-0.8c3-2.7,5.7,1.9,9.1,0.6c-1.2-1.6-3.7-2.6-2.7-4.7
		c1-1.6,3.1-0.6,4.6-1.2c0.2-1.5-1.7-0.3-2.4-1c-5,0.2-7,6.3-12.3,5.8c-1.8,0.5-4,0.5-5.7,0.8c0.3,0.9,0.2,1.5,0,2.4
		c-0.5,1.1-0.9,1.7-2.2,2l-1.4-1.4c-0.9,1.3-2.7,1.6-4.1,1.6c-0.5-1.6-3.5,0.5-4.2-1.6c0.6,0.3,0.6-0.4,0.8-0.6
		c-0.8-1.4-3.3-0.6-4.9-0.8c-0.5-0.4-1.3-0.7-1.8-1.4c1.3-0.9-0.3-1.6,0.2-3c3.3,0.1,5.9,2.1,9.3,2c0.3-0.6,0.1-1.4,0.2-2
		c-3.1-0.6-7.4-0.2-8.7-3.4l-0.6-1.5l0.8-0.4c0-1.3-1.2-4,1-4.1c-0.8-1.3-1.8-2.9-0.8-4.3c1.4-0.6,0.4-1.7,0-2.2v-0.4
		c2.9-1.1,4.4,3.6,6.9,0.8l1.2-0.2c-0.8,3.5-6.8,7.2-2,10.6c0.7,0.3,1.6,0.2,2.4,0.2c0.8-4.3,1.9-9.3,5.9-12.1c0.8,3.5,4.2-1,4.7,2
		c0.8,0.5,1.6-0.2,2.4-0.2c-0.6,3-2.7,5.4-3.9,8.1c10.1-1.7,20,0.1,30.8-0.8c0.4-0.3,0.8-1.2,0.4-1.8c-2.9-1.6-6.5-0.2-9.9-0.4
		c-4.8,0.5-9.1,1.6-14,0.6c-0.9-0.3-1.2-1.3-1.6-2c-0.4-2,0.6-3.3,2-4.2c6.6-2.1,12.8,0.1,19.8-1.2c2.5-0.8,5.4,0.2,7.1,2
		c0.2,0.8,1.1,1.5,0.8,2.5c-0.7,0.5-1.7,0-2.4,0.4c1.4,0.3,2.3,1.8,2.7,3c0.4,1.6-1.2,3.1-2.6,3.5c-2,0.7-4.6,0.3-6.3,1.8
		c1.3,3.4,5.7-1,7.3,2.4C78,51,79,51.4,79.9,51.3 M61,38.8c-0.3,0-0.6,0-0.8,0.1c-2.1,0.1-4-0.6-6.1-0.1c-1.2,0.1-2.5,0.5-2.2,2
		c1.8,1.2,4.2,0.3,6.1,0c0.6-0.8,1.2-1.7,2.1-1.9C60.4,38.9,60.7,38.9,61,38.8 M63.2,39.1c1.3,1.6,3.6,0.8,4.7,0.7L63.2,39.1z
		 M34.2,59.4c0.3,0,0.7,0.1,0.6-0.2C34.6,59.1,34.4,59.3,34.2,59.4"/>
	<path class="st2" d="M123.8,22.3c-3.2-2-7.7-0.7-10.3,1.4c-8,7.1-12.6,18.8-21.1,26.5c-1.2,3.1-1.6,6.9-3.3,9.3l2.1,0.6
		c4.7,0.1,10.3-1.8,12.3-5.8c5.8,1.5,11.4-0.6,15.2-4.3l0.4,0.4c-1.1,1.4-2.4,2.8-4.2,3.3C111.4,67.5,98.3,74.8,85.2,77l0.2,0.2
		c-2.6,2.3-5.3,4.7-8.7,5.1c10.5,2.1,22.2,1,30.8-4.3c15.8-9,18.4-28.1,18.4-46.8c-0.8,3.1-2.7,5.6-5.5,7.5
		c-1.6,0.8-3.7,0.9-5.5,0.2c-1.1-0.4-2.3-1.8-2.5-3.1c-0.2-2.6-0.9-5.6,1.4-7.1c0.8-0.6,2.6-0.3,2.4-2c0.6-1.7,2.5-2,4.2-2.4
		c1.5,0.4,3.3,0.6,4,2.2c0.4,1,0.2,2.2-0.6,3c-1.3,1.3-3.4,1.3-5.2,1c-0.9-0.4-1.5-0.7-2-1.6c-1.2-0.4-2.5,0.7-3.1,1.8
		c-0.4,2.3-0.4,4.8,0.8,6.8c1.2,1,2.5,1.4,4.2,1.1c2.9-0.9,4.3-2.6,5.7-5.1C126,30.2,126.2,25.7,123.8,22.3 M130.7,23.9
		c-1.6-0.7-3.6-1.1-5.3-1.2L126,25C127.6,24.6,129.1,24.2,130.7,23.9 M131.7,24.8c-1.9,0.2-4,0.3-5.3,1.4l0.6,2
		C127.9,26.5,130.5,26,131.7,24.8 M123.4,27c-0.4-1.4-2.1-1.2-3.1-1.8c-1.3,0.2-2.6,0.7-3.4,1.6c-0.1,0.7,0.3,1.2,0.4,1.8
		c1,1.2,3,1.2,4.5,0.8C122.3,28.6,124,28.6,123.4,27 M73.8,75.8c6.4-7.5,14.5-13.9,17-23.7c-11.2,13.4-21,25.4-32.2,38.5
		c3.7-1.9,8-4,10.1-8.1l-0.6-0.4L73.8,75.8z M113.5,54.5c-0.9,0.3-2.2,0.2-2.7,1c-3.4,10.6-14.7,15.5-24.7,17.2
		c-3.7-0.1-8.7-2.1-10.3,2.6c3,0.2,5.8,1.2,9.1,0.8C97.5,74.3,109.9,67,113.5,54.5 M105.8,55.6l-2-0.4c-3.6,4.9-9.6,6.9-15.4,5.2
		l-3.3,3.9c0.1,1.2,2.6,0.7,3.7,1.4C96.1,65.1,102.4,61.5,105.8,55.6 M109.6,55.5c-2.5-0.5-3.4,1.4-4.3,3.1
		c-5.2,4.8-12.9,10.6-21.1,7.1l-4.6,5.3c3.9,0.5,7.2,0.8,11.1-0.2C98.6,67.9,107.1,64.1,109.6,55.5 M84.1,77c-3.3,0.3-6.2-0.3-9.1-1
		l-5.1,5.5C75.3,82.4,80.7,80.6,84.1,77 M75,82.7l-3,0.2c-3.2-2.1-3.5,3-5.7,4c-0.4,1.5-0.2,3.3,0.6,4.6
		C69.3,88.6,72.2,85.4,75,82.7 M85.1,84.1h-1.6c-3.6,3-0.4,7.2-0.6,10.9l1.6-0.4L83.3,91C82.4,88.3,84.3,86.3,85.1,84.1 M90.8,84.3
		h-2.4c-0.7,0.9-0.3,2.9-1.4,3.4c-0.9,4.3,2.7,7.7,2.6,12.4c-0.9,2.8-5.2,2.5-6.1,4.8c1.8-1.2,3.7-2.2,5.9-2.6
		c2.6,0.8,3,4.4,3.9,6.5c0.6-1.5-0.6-3-0.2-4.3c1.6-0.6,2.4,1,3.6,1.2c-1.4-1.6-3.2-2.1-4.7-3.6c1.1-1.6,3.1-1,4.9-1.2
		c-1.9-0.2-3.8-0.4-5.8-0.6C90.7,95.1,85.9,89.1,90.8,84.3 M66.1,92c-0.8-1.2-1-2.5-1.2-3.9c-4.5,7.5-10.3,14.5-17.8,20.5
		c-0.2,2.5-1.3,5.7-0.6,8.1C51.6,107.3,59.9,99.6,66.1,92 M46.6,108c6.4-5.3,12-11.4,16.4-18.8c-1.8,1.3-3.5,2.5-5.5,2.8
		c-5.3,5.7-10.5,12.5-16.6,16.8C42.5,108,44.9,108.9,46.6,108 M69.4,115.7c-0.2,7.8,5.1,15.4,12.1,18.5c7,3,16.1,2.4,21.9-2.6
		c6.4-5.6,9.3-14.5,6.5-22.7c-3-7.9-9.7-13.9-18.9-14.2l0.8,4.6c2.3,0.3,4.6,0.3,6.7,0.8c0.5,0.6,1.6,0.4,1.5,1.4
		c-1.9,0.8-4.5,0.1-6.3,0.5c2.2,1.7,5.4,3.5,5.3,6.5c-1.6-0.5-3-2.9-4.9-3.1c0.9,2,0.2,4.5-1.2,5.9l-2-6.4c-0.3-0.8-1-1.8-2-1.8
		c-2.8,0.7-4.8,2.6-7.1,3.3c-0.1-4.2,4.5-3.9,6.5-6.3c0.4-1.6,0.2-4.1-1.2-5.3c-8,1.4-13.8,6.2-16.6,13.6
		C70.7,108.6,69.4,111.7,69.4,115.7 M122,20.7c3.4,2.1,8.3,0.4,11.2,3.8c-1.6,3-7.2,2.6-6.5,7.3c0.5,11.1-1,21.1-4.7,30.8
		c-4.5,12.4-17.6,20.1-29.8,21.6c-2.9,2.7-2.8,6.7-1.5,9.7c8.9,0.4,16.8,6.3,20.1,14.4c2.4,6.9,1,15.1-3.3,20.7
		c-5.1,6.2-12.8,9-21.2,7.9c-7.9-1.8-14.8-7.6-17-15.6c-1.9-7.1,0.2-15.3,5.1-20.6c2.4-2.5,4.7-3.9,7.5-5.1
		c0.8-3.8-3.3-8.2,0.4-11.5c-1.8-1.2-4.4-0.3-6.3-1c-9.1,8.9-17.6,19.3-25.5,28.4c-1.6,2.6-3.4,5.2-4.2,8.1
		c-1.5-3.6-0.4-6.6-0.2-10.5c-2.7-0.3-5.4,0.6-8.1,0.8c10.6-7.8,18.1-18.3,26.9-28L102,37.3C106.9,30.3,111.4,19.1,122,20.7
		 M85.7,94.2c0.5,0.2,0.9-0.2,1.4-0.4c-2.2-2.7-0.9-6.3-0.2-9.3h-0.6l-1.8,3.2C83.8,90,84.8,92.2,85.7,94.2"/>
	<path class="st2" d="M79.8,111.8c-0.1,0.3,0.1-0.4,0.8-0.1c-0.8,1.8-0.8,4.6-0.8,5.7l-0.6,0C78.7,115.5,79,113.3,79.8,111.8"/>
	<path class="st2" d="M78,112.4c-0.7,1.2-0.9,3.2-0.4,4.7H77c-0.8-1.5-0.4-3.5,0.2-4.7C77.8,112.2,77.7,112.2,78,112.4"/>
	<path class="st2" d="M75.8,112.6c-0.2,1-0.2,3.2,0,4.1l-0.7-0.1c-0.3-1-0.6-2.9,0-4.1C75.4,112.8,75.8,112.4,75.8,112.6"/>
	<path class="st2" d="M74.4,113c-0.2,0.9-0.2,2.7,0,3.5l-0.6,0c-0.2-0.9-0.5-2.5,0-3.5C74,113.1,74.3,112.8,74.4,113"/>
	<path class="st2" d="M73,113.2c-0.2,0.7-0.2,2.3,0,3l-0.5,0c-0.2-0.8-0.4-2.1,0-3C72.7,113.3,73,113.1,73,113.2"/>
	<path class="st2" d="M72,113.4c-0.1,0.6-0.1,2,0,2.5l-0.4,0c-0.2-0.6-0.4-1.8,0-2.5C71.7,113.5,72,113.3,72,113.4"/>
	<path class="st2" d="M71.1,113.6c-0.1,0.6-0.1,1.8,0,2.3l-0.4,0c-0.2-0.6-0.3-1.6,0-2.3C70.9,113.6,71.1,113.4,71.1,113.6"/>
	<path class="st2" d="M70.3,113.7c-0.1,0.5-0.1,1.6,0,2l-0.3,0c-0.1-0.5-0.3-1.5,0-2C70.1,113.7,70.3,113.6,70.3,113.7"/>
	<rect x="69.1" y="25.8" class="st2" width="0.8" height="3.7"/>
	<rect x="35.4" y="25.8" class="st2" width="0.8" height="3.7"/>
	<path class="st2" d="M122.2,26.8c0.5,1.4-0.7,1.9-1.6,2.4c-0.9-0.2-2.1-0.3-2.6-1.2c-0.3-1.2,0.4-1.8,1.4-2.1
		C120.5,25.8,121.6,25.7,122.2,26.8"/>
</g>
</svg>
