<?xml version="1.0" encoding="utf-8"?>
<!-- Generator: Adobe Illustrator 19.1.0, SVG Export Plug-In . SVG Version: 6.00 Build 0)  -->
<svg version="1.1" id="Layer_1" xmlns="http://www.w3.org/2000/svg" xmlns:xlink="http://www.w3.org/1999/xlink" x="0px" y="0px"
	 viewBox="0 0 400 400" enable-background="new 0 0 400 400" xml:space="preserve">
<g>
	<path fill="#FFFFFF" d="M381.594,55.544c5.125,0,9.301,4.171,9.301,9.298c0,0.834-0.276,2.236-0.541,3.173
		c-0.004,0.008-0.283,0.271-72.267,271.198l-0.053,0.151c-2.493,7.338-8.003,13.253-15.114,16.23l-0.329,0.132
		c-0.004,0-98.172,35-102.722,36.619c-4.554-1.619-102.722-36.619-102.726-36.619l-0.329-0.132
		c-7.111-2.977-12.618-8.892-15.114-16.23l-0.05-0.151C9.665,68.286,9.384,68.024,9.384,68.016
		c-0.265-0.937-0.544-2.339-0.544-3.173c0-5.127,4.176-9.298,9.3-9.298H381.594z"/>
	<path fill="#0D1140" d="M18.144,58.26c-3.63,0-6.589,2.941-6.589,6.585c0,0.588,0.08,1.161,0.231,1.711L83.971,337.66
		c2.096,6.986,7.156,12.607,13.888,15.42l0.249,0.107l101.762,36.279l101.758-36.279l0.249-0.107
		c6.733-2.813,11.797-8.434,13.892-15.42l72.179-271.104c0.148-0.55,0.232-1.123,0.232-1.711c0-3.644-2.958-6.585-6.586-6.585
		H18.144z"/>
	<path fill="#FFFFFF" d="M366.117,68.356c4.415,0,8,3.574,8,8c0,0.708-0.087,1.392-0.265,2.042l-67.754,256.364
		c-1.222,4.077-4.237,7.386-8.117,9.006l-98.116,34.978l-98.115-34.978c-3.877-1.62-6.888-4.929-8.109-9.006L25.886,78.398
		c-0.181-0.651-0.268-1.335-0.268-2.042c0-4.426,3.585-8,7.998-8H366.117z"/>
	<path fill="#FFFFFF" d="M135.512,9.766L135.512,9.766c0,0-6.025,7.08-6.525,7.669c-0.525-0.558-6.365-6.742-6.365-6.742
		c-0.587-0.628-1.468-0.883-2.299-0.671c-0.833,0.209-1.483,0.86-1.703,1.692c0,0.008-0.646,2.51-0.715,2.793
		c-0.609-0.806-1.92-2.546-1.92-2.546c-0.753-0.92-2.073-1.15-3.075-0.537c-0.701,0.426-1.128,1.197-1.128,2.022l0.197,0.94
		c0.968,2.197,4.217,9.893,5.477,16.825c-0.004-0.026,0.041,0.089,0.087,0.197c-0.507,0.261-2.393,1.237-2.393,1.237
		c-0.454,0.3-0.739,0.777-0.893,1.305c-0.353-0.066-0.915-0.178-0.915-0.178c-2.86-0.184-5.004,0.951-6.422,3.368
		c-0.726,1.237-1.196,2.982-1.196,4.45l0.121,1.244c0.239,1.157,0.779,1.789,1.29,2.15c-2.341,2.899-3.555,7.533-4.61,11.672
		l-0.617,2.379c-1.354,5.061-4.301,9.306-7.509,10.817c-0.927,0.437-1.498,1.32-1.498,2.307l0.102,0.717
		c0.567,1.846,3.518,3.06,6.271,3.669c-3.007,4.221-4.562,9.539-4.562,15.859c0,2.122,0.167,4.369,0.498,6.683l0.061,0.446
		c0.261,2.768,2.054,3.124,2.603,3.161c0.287,0.019,1.059-0.038,1.788-0.658c-0.037,0.401-0.166,1.985-0.166,1.985
		c0,7.928,2.379,14.831,3.881,17.327c0.511,0.858,1.429,1.324,2.395,1.214c0.382-0.038,0.708-0.178,1.009-0.375
		c0,0.03,0.007,0.113,0.007,0.113c0,3.132-0.76,7.126-2.889,8.881c-0.605,0.492-0.957,1.21-0.957,1.967l0.09,0.651
		c0.129,0.439,0.644,1.698,2.406,1.864c1.24,0.121,4.664-0.538,7.803-3.045c0.03,0.53,0.064,1.12,0.064,1.12
		c0,7.882-3.733,14.546-6.093,16.895c-0.484,0.499-0.749,1.142-0.749,1.808l0.098,0.699c0.347,1.128,1.271,1.801,2.749,2.065
		c2.18,0.408,5.644,0.053,8.714-1.558c1.253,12.455,4.281,17.781,5.916,20.644l0.609,1.097c1.039,2.088,1.142,3.612,1.263,5.538
		l0.023,0.363c0.7,10.809,2.689,16.797,3.877,20.371l0.689,2.231c0.431,1.68,0.646,3.087,0.646,4.164l-0.14,1.189
		c-0.038,0.108-0.068,0.192-1.146,0.29l-0.349,0.034c0.027-0.004-2.114,0.034-2.114,0.034c-1.558-0.043-3.181-0.091-5.318,0.802
		c-5.495,2.315-7.621,9.358-7.322,11.861c0.265,2.133,1.733,3.465,3.831,3.465h30.939c1.029,0,1.959-0.701,2.258-1.691
		c0,0,0.095-0.628,0.095-0.632c0-0.854-0.402-1.589-1.075-2.019c-6.736-4.395-11.094-13.36-11.094-22.838
		c0-9.187,4.498-17.292,12.652-22.852c1.078,0.453,2.511,0.681,4.322,0.631c0.087,0.041,0.148,0.08,0.272,0.129
		c0.651,0.291,1.76,0.782,3.73,0.782l1.471,0.038l3.257,0.075c1.77,0,2.704-0.454,3.475-1.135c0.37,0.325,0.84,0.673,1.532,0.93
		c2.251,0.787,9.233-0.023,9.293-0.031c1.676-0.264,3.071-1.414,3.972-3.215c1.77-0.128,4.735-0.389,6.222-0.718
		c1.573-0.348,2.299-0.42,2.625-0.42c0.155,0.382,1.233,3.056,1.233,3.056c0.003,0.015,0.144,0.287,0.144,0.287
		c1.63,2.999,5.366,8.453,8.158,10.919c5.303,4.652,11.041,9.206,12.625,10.167c0.219,0.129,0.507,0.386,0.507,1.143l-0.11,0.923
		c-0.231,1.12-1.714,6.207-3.518,8.54c-1.404,1.824-2.114,2.383-3.827,2.315c-2.399-0.101-6.753,0.016-8.979,1.986
		c-4.55,3.982-4.785,8.582-4.785,9.459l0.03,0.477c0.084,1.437,1.192,3.569,3.858,3.569h17.448c2.231,0,3.244-0.831,4.002-1.736
		l0.11-0.128l0.651-0.799l1.335-1.629c0,0-0.043,0.017-0.057,0.029c0.174-0.131,0.503-0.427,1.35-1.187
		c0.877-0.733,1.982-1.651,2.689-2.62c0.756-1.036,1.162-2.262,1.521-3.349c0,0-0.053,0.034-0.08,0.054
		c0.137-0.224,0.333-0.738,0.813-2.016c0.682-1.452,4.338-6.824,7.596-11.366c1.142-1.592,2.144-3.423,2.144-5.624
		c0-1.664-0.564-3.533-2.069-5.673c-0.007-0.008-1.096-1.399-1.096-1.399c-1.949-2.413-5.995-7.428-6.559-11.365
		c-0.007-0.015-0.03-0.208-0.03-0.208c-0.004-0.004-0.228-2.164-0.228-2.164c0-0.915,0.219-1.717,0.87-3.177
		c-0.003,0.011,0.292-0.59,0.292-0.59c0.404-0.885,0.699-1.361,0.863-1.429c0.706-0.026,3.468,3.608,4.792,5.348
		c1.916,2.526,4.295,5.666,7.356,8.824c2.726,2.81,5.083,5.427,7.863,8.736c1.982,2.341,6.471,11.763,7.318,14.194
		c0.648,1.824,0.703,3.559,0.549,4.029c-0.246,0.783-0.648,1.444-1.116,2.22l-0.931,1.589c-1.395,2.61-1.361,6.082-0.706,8.374
		c0.923,3.272,3.525,3.176,4.92,3.128l0.774-0.02h15.817c3.31,0,3.855-2.496,4.032-3.32l0.034-0.174
		c0-0.011,0.178-1.683,0.178-1.683c0-2.392-0.863-4.943-2.311-6.828c-0.016-0.014-1.24-1.338-1.24-1.338
		c-1.15-1.128-2.561-2.511-3.511-5.477c-1.585-4.932-1.985-9.043-2.371-13.018c0.003,0.034-0.034-0.363-0.034-0.363l-0.817-6.385
		c-0.47-2.549-1.274-3.926-2.13-5.378c-0.56-0.945-1.139-1.921-1.733-3.491c-0.404-1.146-1.048-11.805-1.048-16.286l0.061-3.907
		c0-7.799-0.961-14.176-2.825-19.024c10.332-3.586,17.261-11.18,17.261-19.021l-0.019-0.722
		c-0.904-17.002-27.653-17.558-35.829-17.327l-0.643,0.022c-14.619,0.488-18.354-1.619-19.281-2.545
		c-0.295-0.296-0.356-0.515-0.356-0.749c0.023-0.863,2.614-2.444,4.331-2.871c1.546,1.237,4.08,3.143,8.639,2.469
		c4.459-0.673,8.324-4.16,10.779-6.967c1.471-1.686,3.783-3.986,6.922-4.531c2.212-0.386,2.688-1.687,2.788-2.428
		c0.067-0.597,0.011-2.084-2.093-3.003c-4.197-1.823-10.628-3.139-16.27-1.535c-0.068-0.17-0.132-0.34-0.132-0.34
		c-0.598-0.817-1.479-1.18-2.406-1.055c-7.966,1.096-10.484,6.017-11.457,8.018c-7.447,2.765-11.721,7.386-11.721,12.712l0.02,0.382
		c0.473,13.695,22.16,13.393,30.329,13.28h0.269c8.808-0.129,22.258,1.599,23.245,6.872c0.004,0.011,0.057,0.564,0.057,0.564
		c-0.004,0.76-0.333,1.585-0.991,2.428c-1.822,2.333-5.787,4.199-9.895,4.683c-2.745-2.648-6.096-5.253-15.681-8.003h0.004
		c0-0.004-0.254-0.053-4.308-0.863c-6.343-1.104-16.949-2.95-24.525-8.267c-11.479-8.057-16.521-10.795-22.909-14.263l-1.343-0.722
		c-3.82-2.081-7.084-4.611-9.826-7.474c1.301-0.137,2.447-0.417,3.324-0.916c0.685-0.39,1.128-1.097,1.176-1.888v-0.003
		c0-0.878-0.329-1.581-0.93-2.034c-3.393-2.572-4.811-5.083-6.374-9.106c-0.964-2.466-1.875-4.302-2.893-5.948
		c0.162-0.058,0.326-0.118,0.326-0.118c0.635-0.433,1.014-1.157,1.014-1.936c-0.02-6.209-3.613-10.681-5.76-13.349l-0.814-1.046
		c-0.756-0.965-1.372-2.583-1.372-3.607l0.125-0.658h-0.004c0.087-0.17,0.189-0.352,0.189-0.352l0.518-1.039l0.231-0.923v-0.046
		c0-0.384-0.178-0.701-0.356-1.026c0.609-0.411,1.025-0.972,1.071-1.646c0-0.013,0.027-0.772,0.027-0.772l-0.129-1.681
		c-0.347-2.258-2.212-6.061-5.73-6.785c-1.565-0.325-2.544-0.059-3.267,0.248c-0.235-0.197-0.756-0.626-1.062-0.876
		c0.276-0.318,0.571-0.626,0.639-1.014c1.233-6.911,4.5-14.616,5.464-16.814c0-0.004,0.205-0.952,0.205-0.952
		c0-0.817-0.439-1.592-1.13-2.017c-1.002-0.609-2.319-0.384-3.064,0.525c-0.009,0.008-1.237,1.644-1.933,2.568
		c-0.246-0.938-0.73-2.805-0.73-2.805c-0.208-0.828-0.854-1.478-1.694-1.692c-0.831-0.212-1.713,0.043-2.304,0.671
		c0.05-0.048,0.046-0.048-2.9,3.079c0,0-2.961,3.141-3.454,3.663c-0.503-0.589-6.52-7.669-6.52-7.669
		c-0.45-0.526-1.105-0.832-1.804-0.832C136.615,8.934,135.957,9.24,135.512,9.766"/>
	<path fill="#0D1140" d="M154.464,20.732l-0.972-7.618l-8.593,8.595l-7.692-9.603l-7.685,9.603l-8.586-8.595l-0.98,7.618
		c0,0-4.441-4.565-5.767-6.205c2.137,4.838,4.621,11.877,5.628,16.873c5.253-1.666,11.8-2.143,17.391-2.143
		c5.598,0,12.148,0.476,17.402,2.143c1.007-4.996,3.491-12.035,5.624-16.873C158.912,16.167,154.464,20.732,154.464,20.732
		 M122.984,28.219l0.151-5.441l5.31,4.512C126.384,27.514,124.509,27.856,122.984,28.219 M137.206,26.859
		c-1.619,0-3.2,0.043-4.705,0.129l4.705-5.434l4.717,5.434C140.416,26.903,138.836,26.859,137.206,26.859 M145.977,27.291
		l5.31-4.512l0.151,5.441C149.911,27.856,148.037,27.514,145.977,27.291"/>
	<path fill="#0D1140" d="M275.295,214.347c-1.078-1.422-3.585-2.82-5.08-7.477c-2.546-7.916-2.144-13.756-3.275-19.921
		c-0.673-3.661-2.19-4.364-3.714-8.373c-0.685-1.778-1.347-11.317-1.185-17.776c0.148-5.5,0.152-16.2-3.532-23.405
		c11.4-3.003,18.31-10.152,17.895-17.988c-0.648-12.156-16.65-15.461-33.144-15.008c-4.952,0.137-23.045,0.984-22.527-5.711
		c0.224-2.912,4.811-4.977,6.736-5.087c1.612,1.222,4.119,3.188,8.246,2.47c8.747-1.513,9.47-10.802,18.528-11.548
		c-3.646-3.01-13.729-4.217-19.22-0.749c0-1.063,0.389-2.046,0.824-2.746c-7.335,1.009-8.847,5.397-9.842,7.39
		c-7.902,2.644-11.267,6.849-11.116,11.135c0.397,11.46,20.815,10.958,27.993,10.927c7.496-0.023,23.93,0.908,25.402,8.733
		c0.991,5.276-6.132,10.103-13.904,10.518c-10.82-12.141-28.829-6.301-45.674-18.306c-19.486-13.873-29.703-15.046-36.968-26.381
		c1.755,0.753,5.457,1.264,7.655,0c-3.824-2.893-5.439-5.79-7.096-10.056c-2.012-5.144-3.518-7.406-6.343-9.925
		c1.694-0.068,3.507,0.712,4.641,1.138c-0.02-6.177-4.34-10.515-6.048-12.862c-1.468-2.025-2.936-5.07-0.792-8.02
		c-2.247-2.475-4.341-0.992-5.222-0.228c-0.76,0.658-1.374,0.542-0.927-0.961c0.468-1.58,2.039-3.761,3.941-3.676
		c1.71,0.074,2.568,1.541,2.927,2.08c0.374-3.629-0.98-6.262-3.393-6.726c-1.425-0.273-2.772,0.177-3.793,0.868
		c-0.851-1.407-1.57-2.445-4.112-3.317c-1.066-0.363-4.822-1.212-7.735-1.524c-2.046,1.587-4.256,3.951-6.071,6.812
		c-0.201-1.363,0.201-4.376,1.041-7.184c-7.274-0.248-18.288,0.441-23.45,3.822c1.039,0.976,1.644,2.298,1.736,3.122
		c0.105,1.123-0.318,0.938-0.767,0.481c-0.473-0.462-1.872-2.17-4.112-2.336c-4.717-0.359-5.45,5.426-4.391,7.328
		c0.446-1.399,1.395-2.541,2.881-2.612c2.319-0.104,3.961,2.808,4.233,4.331c0.208,1.097-0.349,1.182-1.071,0.503
		c-0.961-0.903-1.933-1.209-3.162-0.987c-4.391,0.787-5.998,8.393-7.511,15c-1.441,6.29-4.834,10.628-8.979,12.378
		c0.915,1.297,4.788,2.878,8.84,2.458c-8.863,7.769-7.349,21.453-6.166,25.467c0.463-1.62,2.799-7.902,7.013-9.777
		c-5.76,11.706-1.785,25.738,0.491,29.486c0.379-1.638,1.308-3.51,2.326-4.584c2.19,3.529,2.217,13.586-2.489,17.588
		c2.84,0.136,7.053-0.863,9.543-5.946c2.791,10.783-2.39,21.347-5.924,24.869c1.011,0.548,7.368,1.6,11.045-3.113
		c0.987,17.133,5.253,22.281,6.58,24.94c1.331,2.67,1.429,4.531,1.532,6.793c0.765,16.438,6.354,23.026,4.943,28.51
		c-0.468,1.824-2.413,1.929-3.487,2.047c-2.482,0.268-3.158-0.148-5.79,0.665c-4.993,1.548-6.082,7.607-5.886,9.285
		c0.128,1.064,0.665,1.377,1.491,1.377h23.06c1.683,0,2.231-0.916,2.765-3.018c-5.148-5.461-8.415-12.818-8.415-20.912
		c0-11.35,6.203-21.411,15.397-26.676c0,0,0.564,1.513,3.918,1.399c1.377-0.045,1.502-0.878,2.331-0.802
		c1.249,0.11,0.651,1.222,2.735,1.597c1.229,0.219,2.397,0.283,3.797,0.268c1.63-0.019,2.19-0.59,2.56-1.04
		c0.545-0.681,1.4-0.572,1.808,0.015c0.322,0.461,0.723,0.873,1.529,1.112c1.263,0.371,6.055,0.401,7.92-0.03
		c1.372-0.314,1.804-1.139,2.268-2.133c0.265-0.56,0.463-1.21,1.461-1.203c3.158,0.038,6.26-0.597,8.075-0.991
		c2.541-0.552,3.226,0.507,3.68,1.869c3.562,10.708,15.544,18.662,20.788,22.583c1.546,1.15,1.893,2.523,1.471,4.501
		c-0.261,1.298-1.801,6.744-3.927,9.452c-1.861,2.383-2.738,2.981-5.813,3.269c-1.491,0.135-5.601,0.074-7.576,1.768
		c-3.208,2.739-3.619,7.05-3.555,7.698c0,0,0.06,1.32,1.486,1.32h16.683c1.559,0,2.333-0.279,2.927-1.022
		c0.417-0.518,1.157-1.452,1.968-2.393c0.79-0.941,2.726-1.982,3.854-3.635c0.851-1.253,1.222-3.23,1.989-5.009
		c1.335-3.085,4.758-7.473,7.769-11.671c1.966-2.753,2.197-4.936,0.057-8.503c-1.55-2.579-12.251-12.579-6.664-21.717
		c1.142-1.869,3.098-3.075,4.724-1.513c1.713,1.661,2.276,5.379,18.37,21.487c2.032,2.024,2.651,3.037,3.351,4.369
		c2.171,4.138,4.838,10.02,5.617,11.899c1.093,2.603,0.911,4.416,0.568,5.484c-0.507,1.589-1.381,2.648-2.21,4.191
		c-1.059,1.982-1.078,4.889-0.5,6.64c0.443,1.347,1.506,1.384,3.393,1.384h15.701c1.505,0,1.562-0.786,1.747-1.629
		C277.334,219.491,276.978,216.522,275.295,214.347 M119.562,50.315c0.45-0.291,1.683-1.026,3.373-1.611
		c2.221-0.787,2.47-1.434,2.073-3.718c-0.174-1.042,0.538-1.485,1.698-1.91c0.81-0.291,3.381-1.008,5.103-1.375
		c0.829,0.518,3.797,4.492,5.42,6.812c1.619-2.32,4.584-6.293,5.411-6.812c2.463,0.492,4.918,1.231,6.96,1.929
		c1.872,0.647,2.708,1.39,3.608,3.837c0.685,1.911,0.95,4.102,0.95,4.102s-1.249,0.263-3.068,0.055
		c-2.083-0.244-3.263-0.906-4.297-0.687c-1.777,0.357-3.989,2.6-4.194,3.514c-0.377,1.908,0.31,3.44,0.447,3.931
		c0.559-2.08,1.667-3.514,3.041-3.598c0.567-0.04,1.32,0.355,2.379,0.488c0.619,0.074,1.244,0.048,1.797-0.329
		c1.3-0.876,2.137-1.918,2.987-2.362c0,0,1.219,2.203,1.797,4.136c0.404,1.379-0.256,2.472-2.571,3.585
		c-1.331,0.635-3.155,1.755-4.294,2.778c-1.138,1.014-0.893,2.243-0.32,3.172c1.058,1.715,1.966,4.105,2.094,6.049
		c0.057,0.89-0.276,1.558-0.948,1.944c-0.881,0.507-2.353,0.855-4.221,0.768c-2.009-0.098-4.573-2.561-6.616-3.215l0.401-3.211
		c0,0,3.146-1.975,4.977-3.618c0.427-0.384,0.231-1.168,0.182-1.689c-1.642-0.541-4.305-0.94-6.468-0.94
		c-1.68,0.003-3.665,0.285-5.231,0.614c0.457-2.133,0.968-6.154,0.204-8.544c-0.272-0.905-3.295-3.135-5.071-3.508
		c-1.041-0.206-2.21,0.458-4.297,0.698c-1.819,0.2-3.495-0.261-3.495-0.261S119.436,50.4,119.562,50.315 M136.272,83.656
		c0.128,0.695,0.242,3.184-0.689,4.576c-0.178,0.272-0.386,0.31-0.696,0c-0.665-0.658-2.144-2.197-4.012-2.89
		c-0.833-0.321-4.194-0.734-3.136-5.749c0.098-0.488,0.269-0.855,1.071-1.082c1.007-0.283,2.349-0.975,4.093-2.806
		c0.439-0.469,1.343-0.813,2.336-0.496c0.776,0.246,1.321,0.382,1.997,0.382c0.669,0,1.21-0.137,1.986-0.382
		c0.995-0.318,1.902,0.026,2.341,0.496c1.737,1.831,3.079,2.474,4.26,2.859c0.738,0.25,0.806,0.908,0.56,1.35
		c-0.269,0.495-0.673,1.456-0.856,2.254c-0.169,0.799-0.439,2.228-1.936,3.302c-0.635,0.453-2.427,1.369-3.747,2.825
		c-0.265,0.283-0.552,0.367-0.587-0.064c-0.038-0.431-0.125-3.563-2.194-5.114C136.514,82.71,136.131,82.922,136.272,83.656
		 M125.446,74.23c-0.669-0.386-1.002-1.053-0.945-1.948c0.175-2.568,1.699-5.92,3.139-7.468c0.223-0.229,2.198-0.814,3.178,0.066
		c1.856,1.662,5.06,3.687,5.06,3.687l0.406,3.211c-2.039,0.658-4.607,3.12-6.612,3.208C127.792,75.085,126.324,74.737,125.446,74.23
		 M119.179,59.351c-0.843-0.566-1.441-2.494,0.651-7.032c0.851,0.439,2.573,1.725,3.87,2.583c0.571,0.38,1.18,0.403,1.792,0.335
		c1.064-0.128,1.82-0.535,2.39-0.493c1.582,0.106,1.605,3.606,1.623,4.041c0.027,0.441-0.178,0.456-0.461,0.212
		c-0.715-0.573-1.365-0.566-1.868-0.566c-0.693,0.004-2.349,0.666-3.045,0.857C123.431,59.474,120.635,60.342,119.179,59.351
		 M124.955,119.957c-5.987-11.805,6.956-14.531,11.397-19.917C135.53,105.94,126.68,108.622,124.955,119.957 M142.277,140.514
		c1.479-2.803,5.232-10.447,1.831-20.746c-3.582,1.96-7.05,7.251-8.297,12.557c-3.9-15.167,7.749-20.447,10.412-33.646
		c3.427,6.081-4.799,14.266,1.714,21.37c4.085-16.805,19.921-10.806,19.025-31.348c7.149,16.54-3.292,20.977-5.584,33.451
		c-2.151-3.737-2.329-8.381-0.265-13.567C150.701,113.633,156.366,135.518,142.277,140.514 M256.535,156.804
		c-0.464,2.133-2.352,2.685-3.354,1.271c-1.835-2.58-2.61-15.923-17.062-22.732c-2.19-1.021-2.89,0.201-2.333,1.479
		c2.272,5.026,3.233,9.762,2.575,14.482c-0.208,1.528-1.21,2.304-2.103,0.651c-0.794-1.483-2.466-4.331-3.797-5.602
		c-2.486-2.386-5.799-2.364-8.726-1.978c-2.92,0.39-15.212,4.13-17.902,0.787c-1.657-2.058-4.013-6.366-2.694-11.589
		c0.349-1.385-0.888-1.846-2.325-0.87c-4.372,2.976-2.667,13.245-2.372,15.174c0.336,2.225,0.468,4.025-1.498,5.904
		c-3,2.874-7.838,8.075-9.785,9.429c-1.948,1.362-3.971,1.101-5.31,2.413c-1.032,1.006-0.991,3.669-2.719,4.176
		c-0.851,0.254-2.749,0.363-4.122,0.174c-1.347-0.193-2.027-0.378-2.203-2.549c-0.071-0.809-0.624-1.097-1.334-0.038
		c-0.552,0.806-1.071,1.664-2.267,1.982c-1.377,0.379-3.238,0.526-4.902,0.167c-1.203-0.265-1.724-0.602-1.724-1.763
		c0-0.515,0.026-0.968-0.007-1.286c-0.043-0.417-0.413-0.451-0.881-0.137c-0.817,0.541-1.162,1.884-2.864,1.944
		c-0.968,0.031-3.69,0.031-2.882-3.022c0.459-1.706,1.573-6.638,7.546-7.814c2.36-0.458,8.824,0.253,10.965-0.147
		c2.359-0.446,4.13-1.846,4.13-3.4c0-1.555-4.861-1.192-5.148-2.652c-0.56-2.753,8.102-4.841,7.655-7.647
		c-0.336-2.141-2.746-2.186-3.128-3.737c-0.401-1.558,2.648-5.791,2.648-9.339c0-4.716-2.648-7.398-3.39-11.078
		c-0.706-3.525,0.084-8.257,1.642-10.636c1.098-1.684,1.895-2.179,4.381-2.447c8.63-0.934,19.564,7.897,22.482,9.709
		c9.546,5.92,14.893,7.118,26.778,9.27c7.121,1.301,15.113,1.99,21.119,10.42C254.749,140.185,257.916,150.59,256.535,156.804"/>
	<path fill="#EB1F3C" d="M177.521,182.365c-4.369-0.231-9.974,0.847-13.159,2.731c-0.021,4.523-0.484,9.127-1.343,13.102
		c2.966,2.182,9.127,4.777,12.623,5.53c2.734-1.998,6.24-6.124,8.119-9.275C182.66,189.952,180.532,185.246,177.521,182.365
		 M175.311,187.278c-3.589-0.938-9.096-0.953-9.096-0.953c3.079-1.056,6.968-1.929,10.402-1.85c2.153,2.338,3.601,5.56,4.898,9.221
		C181.514,193.696,178.349,189.619,175.311,187.278"/>
	<path fill="#EB1F3C" d="M181.843,175.436c-0.023-0.023-0.665,1.089-3.752,1.233c0.379,0.476,0.961,1.539,1.13,2.163
		c0,0,3.609,0.253,5.95,0.851c2.546,2.277,4.456,4.951,5.81,8.226c-0.004,0.023-1.573,3.306-3.445,6.536
		c1.562,3.215,3.339,7.315,3.638,11.051c-1.754,4.516-4.856,8.371-8.813,11.054c0.541-1.287,1.135-3.041,1.509-4.872
		c-2.235-0.189-6.142-0.995-8.174-1.657c-2.386,2.973-5.306,4.993-9.005,6.831c0.537,1.207,1.669,2.927,2.429,3.744
		c-6.041,0-11.559-2.261-15.739-5.991c0,0,3.011,0.408,5.701-0.098c-0.621-3.352-0.859-9.157-0.571-12.134
		c-4.225-1.199-8.041-2.837-11.091-4.74c-0.562,1.112-1.19,2.621-1.573,3.537c-0.957-5.439-0.11-11.022,2.728-15.946
		c0.389,0.613,0.779,1.26,1.089,1.808c2.825-1.936,6.694-3.934,10.832-5.257c0.186-1.672,0.609-4.085,0.961-5.647
		c0,0-1.566-0.147-2.24-0.844c-0.332-0.333-0.726-0.306-1.021-0.174c-1.418,0.666-3.484,0.227-3.895,0.03
		c-7.947,4.694-13.431,13.465-13.431,23.374c0,14.91,12.077,26.99,26.99,26.99c14.902,0,26.991-12.08,26.991-26.99
		C194.851,188.722,189.639,180.163,181.843,175.436 M179.631,218.728c-0.155-1.415-0.375-3.118-0.454-4.036
		c-1.256-1.116-2.375-2.096-3.302-2.84c1.529,0.447,4.13,1.059,5.859,1.407C181.466,214.468,180.206,217.748,179.631,218.728
		 M190.324,193.904l1.429-3.18c0,0,2.062,6.831,0.091,12.537C191.845,203.26,191.845,198.477,190.324,193.904"/>
	<path fill="#0D1140" d="M101.996,232.525H89.697c1.491,0.873,2.242,3.891,2.242,5.998v30.1c0,2.688-1.236,5.29-2.167,6.071h10.258
		v-14.589c0,0,0.87,0.046,1.619,0.046c10.185,0,16.395-6.475,16.395-14.607C118.044,237.335,112.304,232.698,101.996,232.525
		 M101.278,253.365c-0.746,0-1.249-0.03-1.249-0.03v-14.214c0,0,0.753,0.023,1.744,0.023c5.468,0,7.889,2.671,7.889,6.891
		C109.663,250.566,106.244,253.304,101.278,253.365"/>
	<path fill="#0D1140" d="M142.886,258.5c-1.112-1.989-2.121-2.514-2.121-2.514c4.149-1.343,7.758-5.493,7.758-11.706
		c0-8.571-5.961-11.801-15.221-11.801l-13.275,0.007c1.493,0.883,2.238,3.895,2.238,6.002v30.091c0,2.705-1.233,5.303-2.163,6.082
		h10.265v-17.281l1.085,0.009c2.005,0,2.372,1.421,2.742,2.101l7.118,15.171h10.004L142.886,258.5z M132.243,251.511h-1.884v-12.47
		h2.137c5.187,0,7.577,2.009,7.577,6.056C140.073,249.007,137.092,251.511,132.243,251.511"/>
	<path fill="#0D1140" d="M302.172,258.5c-1.116-1.989-2.126-2.514-2.126-2.514c4.149-1.343,7.753-5.493,7.753-11.706
		c0-8.571-5.964-11.801-15.219-11.801l-13.268,0.007c1.482,0.883,2.231,3.895,2.231,6.002v30.091c0,2.705-1.237,5.303-2.164,6.082
		h10.269v-17.281l1.082,0.009c2.009,0,2.375,1.421,2.746,2.101l7.117,15.171h9.997L302.172,258.5z M291.528,251.511h-1.886v-12.47
		h2.128c5.189,0,7.584,2.009,7.584,6.056C299.354,249.007,296.366,251.511,291.528,251.511"/>
	<path fill="#0D1140" d="M194.167,232.502l9.349,16.064c1.233,2.098,1.948,3.324,2.47,4.738h0.056c0.557-1.452,1.317-2.62,2.6-4.754
		l9.379-16.032h8.041v42.176h-8.135c0,0,0.011-28.352,0-28.317h-0.091c-0.548,1.777-1.664,3.638-2.292,4.69l-7.587,12.413h-3.824
		l-7.603-12.413c-0.525-0.794-1.418-2.573-2.114-4.69l-0.144,0.007v28.268h-10.185c0.927-0.775,2.16-3.374,2.16-6.074v-30.091
		c0-2.11-0.749-5.103-2.24-5.984H194.167z"/>
	<path fill="#0D1140" d="M242.836,274.651h-10.261c0.923-0.772,2.163-3.374,2.163-6.074v-30.096c0-2.106-0.752-5.118-2.238-5.998
		l10.332-0.008L242.836,274.651z"/>
	<path fill="#0D1140" d="M154.71,274.659c0.927-0.78,2.163-3.374,2.163-6.075v-30.098c0-2.104-0.752-5.123-2.242-5.999l24.044,0.031
		v6.845h-13.68v10.178h12.062v6.751h-12.062v11.468h14.657l-2.874,6.936L154.71,274.659z"/>
	<path fill="#0D1140" d="M250.128,274.659c0.923-0.78,2.164-3.374,2.164-6.075v-30.098c0-2.104-0.749-5.123-2.244-5.999
		l24.041,0.031v6.845h-13.678v10.178h12.066v6.751h-12.066v11.468h14.664l-2.879,6.936L250.128,274.659z"/>
	<path fill="#0D1140" d="M127.436,325.182c0.927-0.772,2.16-3.377,2.16-6.075v-30.099c0-2.103-0.746-5.117-2.232-5.991l24.045,0.014
		v6.854H137.72v10.182h12.07v6.755h-12.07v11.468h14.664l-2.882,6.932L127.436,325.182z"/>
	<path fill="#0D1140" d="M274.834,325.182c0.927-0.772,2.167-3.377,2.167-6.075v-30.099c0-2.103-0.749-5.117-2.238-5.991
		l24.046,0.014v6.854h-13.687v10.182h12.066v6.755h-12.066v11.468h14.66l-2.877,6.932L274.834,325.182z"/>
	<path fill="#0D1140" d="M100.884,325.182c0.935-0.772,2.164-3.377,2.164-6.075v-30.099c0-2.103-0.745-5.117-2.242-5.991
		l10.363-0.016v35.289h14.024l-2.874,6.932L100.884,325.182z"/>
	<path fill="#0D1140" d="M221.089,317.746v-7.308c0-2.692-1.212-5.325-2.141-6.101h10.121l0.046,17.993
		c-3.518,1.952-9.32,3.411-14.35,3.411c-13.287,0-21.015-8.548-21.015-21.34c0-13.176,8.45-21.838,23.315-21.838
		c3.914,0,7.655,0.908,10.076,1.933l0.007,7.998c-2.462-1.459-6.66-2.722-10.582-2.722c-8.253,0-14.062,4.795-14.062,14.596
		c0,8.884,4.69,14.096,13.196,14.096C217.685,318.465,219.753,318.2,221.089,317.746"/>
	<path fill="#0D1140" d="M190.29,319.282c-0.572-1.589-12.285-36.173-12.285-36.173h-8.242c0,0-11.717,34.603-12.288,36.188
		c-0.938,2.58-2.069,5.073-3.26,5.901h9.564l2.712-8.571h14.728l2.769,8.555h9.569C192.358,324.354,191.224,321.854,190.29,319.282
		 M168.402,310.235l3.521-10.685c0.749-2.425,1.392-4.535,1.849-7.016h0.053c0.484,2.481,1.045,4.584,1.794,6.883l3.635,10.817
		H168.402z"/>
	<path fill="#0D1140" d="M236.179,289.182c0-2.701-1.213-5.325-2.133-6.105l10.034,0.027V310c0,5.523,1.968,9.006,8.537,9.006
		c6.1,0,8.665-3.47,8.665-8.961v-26.941h7.872v27.319c0,8.631-5.034,15.281-17.084,15.281c-12.516,0-15.916-6.741-15.916-15.212
		L236.179,289.182z"/>
</g>
</svg>
