<?xml version="1.0" encoding="utf-8"?>
<!-- Generator: Adobe Illustrator 19.1.0, SVG Export Plug-In . SVG Version: 6.00 Build 0)  -->
<svg version="1.1" id="Layer_1" xmlns="http://www.w3.org/2000/svg" xmlns:xlink="http://www.w3.org/1999/xlink" x="0px" y="0px"
	 viewBox="0 0 400 400" style="enable-background:new 0 0 400 400;" xml:space="preserve">
<style type="text/css">
	.st0{fill-rule:evenodd;clip-rule:evenodd;fill:#221F20;stroke:#FFFFFF;stroke-width:2.3557;}
	.st1{fill-rule:evenodd;clip-rule:evenodd;fill:#FFFFFF;}
	.st2{fill-rule:evenodd;clip-rule:evenodd;fill:#D61F26;}
	.st3{fill-rule:evenodd;clip-rule:evenodd;fill:#2FABE1;}
	.st4{fill-rule:evenodd;clip-rule:evenodd;fill:#221F20;stroke:#221F20;stroke-width:1.4409;}
	.st5{fill:none;stroke:#221F20;stroke-width:1.4409;}
	.st6{fill-rule:evenodd;clip-rule:evenodd;fill:#221F20;}
	.st7{fill-rule:evenodd;clip-rule:evenodd;fill:#FFC212;}
	.st8{fill:none;stroke:#FFCB05;stroke-width:0.5708;}
	.st9{fill-rule:evenodd;clip-rule:evenodd;fill:#0DB14B;}
	.st10{fill:none;stroke:#221F20;stroke-width:5.9007;}
	.st11{fill:none;stroke:#221F20;stroke-width:4.7041;}
	.st12{fill:none;stroke:#FFFFFF;stroke-width:2.3557;}
	.st13{fill:none;stroke:#221F20;stroke-width:2.462000e-03;}
	.st14{fill:none;stroke:#221F20;stroke-width:9.4355;}
	.st15{fill-rule:evenodd;clip-rule:evenodd;fill:#FFFFFF;stroke:#221F20;stroke-width:4.7041;}
</style>
<g>
	<path class="st0" d="M322.9,282.6c-29.1,34.6-72.8,56.6-121.6,56.6c-48.3,0-91.6-21.6-120.7-55.6l-34.5,41.5
		c38.8,41.6,94.1,67.7,155.4,67.7c61.7,0,117.3-26.4,156.1-68.4L322.9,282.6L322.9,282.6z"/>
	<path class="st0" d="M295.6,123.6v184.3c0,5.3-3.4,9.9-8.1,11.7l-85.6,33.2l-85.6-33.2c-4.7-1.8-8.1-6.4-8.1-11.7l0-184.3H295.6
		L295.6,123.6z"/>
	<polygon class="st1" points="112.6,265.9 112.6,152.3 291.1,152.3 291.1,265.9 112.6,265.9 	"/>
	<path class="st2" d="M291.1,255.2c-1.6,2.5-5.4,4.3-9.9,4.3c-4.5,0-8.4-1.8-9.9-4.3c-1.6,2.5-5.4,4.3-9.9,4.3
		c-4.5,0-8.3-1.8-9.9-4.3c-1.6,2.5-5.4,4.3-9.9,4.3c-4.5,0-8.4-1.8-9.9-4.3h0c-1.6,2.5-5.4,4.3-9.9,4.3c-4.5,0-8.3-1.8-9.9-4.3
		c-1.6,2.5-5.5,4.3-9.9,4.3c-4.5,0-8.4-1.8-9.9-4.3h0c-1.6,2.5-5.4,4.3-9.9,4.3c-4.5,0-8.4-1.8-9.9-4.3c-1.6,2.5-5.4,4.3-9.9,4.3
		c-4.5,0-8.3-1.8-9.9-4.3h0c-1.5,2.5-5.4,4.3-9.9,4.3c-4.5,0-8.4-1.8-10-4.3v0.1c-1.6,2.5-5.4,4.2-9.9,4.2c-4.6,0-8.4-1.8-9.9-4.3
		V255l0.1,50.2c0,5.1,3.2,9.4,7.7,11.1l81.5,31.7l81.5-31.7c4.5-1.7,7.7-6,7.7-11.1V255V255.2L291.1,255.2z"/>
	<path class="st3" d="M291.1,250c-1.6,2.5-5.4,4.3-9.9,4.3c-4.5,0-8.4-1.8-9.9-4.3c-1.6,2.5-5.4,4.3-9.9,4.3c-4.5,0-8.3-1.8-9.9-4.3
		c-1.6,2.5-5.4,4.3-9.9,4.3c-4.5,0-8.4-1.8-9.9-4.3h0c-1.6,2.5-5.4,4.3-9.9,4.3c-4.5,0-8.3-1.8-9.9-4.3c-1.6,2.5-5.5,4.3-9.9,4.3
		c-4.5,0-8.4-1.8-9.9-4.3h0c-1.6,2.5-5.4,4.3-9.9,4.3c-4.5,0-8.4-1.8-9.9-4.3c-1.6,2.5-5.4,4.3-9.9,4.3c-4.5,0-8.3-1.8-9.9-4.3h0
		c-1.5,2.5-5.4,4.3-9.9,4.3c-4.5,0-8.4-1.8-10-4.3v0.1c-1.6,2.5-5.4,4.2-9.9,4.2c-4.6,0-8.4-1.8-9.9-4.3v-6.2
		c1.5,2.5,5.4,4.3,9.9,4.3c4.5,0,8.3-1.8,9.9-4.3c1.6,2.5,5.4,4.3,10,4.3c4.5,0,8.3-1.8,9.9-4.3h0c1.6,2.5,5.4,4.3,9.9,4.3
		c4.5,0,8.4-1.8,9.9-4.3c1.6,2.5,5.4,4.3,9.9,4.3c4.5,0,8.3-1.8,9.9-4.3h0c1.6,2.5,5.4,4.3,9.9,4.3c4.5,0,8.3-1.8,9.9-4.3
		c1.6,2.5,5.4,4.3,9.9,4.3c4.5,0,8.3-1.8,9.9-4.3h0c1.6,2.5,5.4,4.3,9.9,4.3c4.5,0,8.3-1.8,9.9-4.3c1.6,2.5,5.4,4.3,9.9,4.3
		c4.5,0,8.4-1.8,9.9-4.3c1.5,2.5,5.4,4.3,9.9,4.3c4.5,0,8.3-1.8,9.9-4.3V250L291.1,250z"/>
	<path class="st3" d="M291.1,238.8c-1.6,2.5-5.4,4.3-9.9,4.3c-4.5,0-8.4-1.8-9.9-4.3c-1.6,2.5-5.4,4.3-9.9,4.3
		c-4.5,0-8.3-1.8-9.9-4.3c-1.6,2.5-5.4,4.3-9.9,4.3c-4.5,0-8.4-1.8-9.9-4.3h0c-1.6,2.5-5.4,4.3-9.9,4.3c-4.5,0-8.3-1.8-9.9-4.3
		c-1.6,2.5-5.5,4.3-9.9,4.3c-4.5,0-8.4-1.8-9.9-4.3h0c-1.6,2.5-5.4,4.3-9.9,4.3c-4.5,0-8.4-1.8-9.9-4.3c-1.6,2.5-5.4,4.3-9.9,4.3
		c-4.5,0-8.3-1.8-9.9-4.3h0c-1.5,2.5-5.4,4.3-9.9,4.3c-4.5,0-8.4-1.8-10-4.3v0.1c-1.6,2.5-5.4,4.2-9.9,4.2c-4.6,0-8.4-1.8-9.9-4.3
		v-6.2c1.5,2.5,5.4,4.3,9.9,4.3c4.5,0,8.3-1.8,9.9-4.3c1.6,2.5,5.4,4.3,10,4.3c4.5,0,8.3-1.8,9.9-4.3h0c1.6,2.5,5.4,4.3,9.9,4.3
		c4.5,0,8.4-1.8,9.9-4.3c1.6,2.5,5.4,4.3,9.9,4.3c4.5,0,8.3-1.8,9.9-4.3h0c1.6,2.5,5.4,4.3,9.9,4.3c4.5,0,8.3-1.8,9.9-4.3
		c1.6,2.5,5.4,4.3,9.9,4.3c4.5,0,8.3-1.8,9.9-4.3h0c1.6,2.5,5.4,4.3,9.9,4.3c4.5,0,8.3-1.8,9.9-4.3c1.6,2.5,5.4,4.3,9.9,4.3
		c4.5,0,8.4-1.8,9.9-4.3c1.5,2.5,5.4,4.3,9.9,4.3c4.5,0,8.3-1.8,9.9-4.3V238.8L291.1,238.8z"/>
	<path class="st4" d="M215,312.4c0,0,8.8,13.7,4.2,9.8c-3.4-2.9-8-9.6-11.3-15.1l-18,7c0,0-10.3,12.5-8,7c1.6-4,6.7-10.5,10.9-15.4
		l-12.3-14.9c0,0-15.1-5.9-9.1-5.4c3.9,0.3,12.1,3.2,18,5.6l10.2-16.3c0,0,1-16.2,2.4-10.4c1,4,0.7,12.7,0.2,19.1L221,288
		c0,0,15.7-4.1,10.6-1c-3.6,2.2-11.4,4.6-17.7,6.1L215,312.4L215,312.4z"/>
	<path class="st1" d="M200.6,308.8c0.1,0.3,0.3,0.4,0.5,0.4c0.2,0,0.4-0.2,0.5-0.4c0.2-0.5,0.4-1.6,0.3-3.8c0,0,0.1-7.7,5.8,0.6
		c16,23.1-6.8,23.2-6.8,23.2h0.2c0,0-22.8-0.1-6.8-23.2c5.7-8.2,5.8-0.6,5.8-0.6C200.2,307.2,200.4,308.3,200.6,308.8L200.6,308.8
		L200.6,308.8z"/>
	<path class="st5" d="M200.6,308.8l0.5,0.4l0.5-0.4c0.2-0.5,0.3-1.6,0.3-3.8c0,0,0.1-7.7,5.8,0.6c16,23.1-6.8,23.2-6.8,23.2h0.2
		c0,0-22.8-0.1-6.8-23.2c5.7-8.2,5.8-0.6,5.8-0.6C200.3,307.2,200.4,308.3,200.6,308.8L200.6,308.8L200.6,308.8z"/>
	<path class="st1" d="M188.9,299.5c-0.2,0.2-0.3,0.4-0.2,0.6c0.1,0.2,0.3,0.4,0.5,0.4h0c0.5,0,1.6-0.1,3.7-0.8c0,0,7.3-2.2,1.3,5.7
		c-17,22.4-24.2,0.8-24.2,0.8v0.1c0,0-6.9-21.8,20-13.6c9.6,2.9,2.3,5.4,2.3,5.4C190.2,298.7,189.3,299.2,188.9,299.5L188.9,299.5z"
		/>
	<path class="st5" d="M188.9,299.5c-0.2,0.2-0.2,0.6-0.2,0.6l0.5,0.4h0c0,0,1.6-0.1,3.7-0.8c0,0,7.3-2.2,1.3,5.7
		c-17,22.4-24.2,0.8-24.2,0.8v0.1c0,0-6.9-21.8,20-13.6c9.6,2.9,2.3,5.4,2.3,5.4C190.2,298.7,189.3,299.2,188.9,299.5L188.9,299.5
		L188.9,299.5z"/>
	<path class="st1" d="M194,285.4c-0.2-0.1-0.5-0.1-0.7,0c-0.2,0.1-0.2,0.3-0.2,0.6v0c0.1,0.5,0.6,1.5,2,3.3c0,0,4.4,6.3-5.1,3
		c-26.5-9.3-8.2-22.8-8.2-22.8l-0.1,0.1c0,0,18.5-13.3,19.1,14.9c0.2,10-4.4,3.8-4.4,3.8C195.3,286.5,194.5,285.7,194,285.4
		L194,285.4z"/>
	<path class="st5" d="M194,285.4h-0.7l-0.2,0.6v0c0,0,0.6,1.5,2,3.3c0,0,4.4,6.3-5.1,3c-26.5-9.3-8.2-22.8-8.2-22.8l-0.1,0.1
		c0,0,18.5-13.3,19.1,14.9c0.2,10-4.4,3.8-4.4,3.8C195.3,286.5,194.5,285.7,194,285.4L194,285.4L194,285.4z"/>
	<path class="st1" d="M209.1,286c0-0.3,0-0.5-0.2-0.6c-0.2-0.1-0.4-0.1-0.7,0.1c-0.4,0.2-1.2,0.9-2.5,2.9c0,0-4.6,6.1-4.4-3.9
		c0.6-28.1,19.2-14.8,19.2-14.8l-0.1-0.1c0,0,18.4,13.5-8.2,22.8c-9.4,3.3-5-3-5-3C208.5,287.5,209,286.5,209.1,286L209.1,286z"/>
	<path class="st5" d="M209.1,286l-0.2-0.6l-0.7,0.1c-0.4,0.2-1.2,0.9-2.5,2.9c0,0-4.6,6.1-4.4-3.9c0.6-28.1,19.2-14.8,19.2-14.8
		l-0.1-0.1c0,0,18.4,13.5-8.2,22.8c-9.4,3.3-5-3-5-3C208.5,287.5,209.1,286,209.1,286L209.1,286L209.1,286z"/>
	<path class="st1" d="M213.2,300.5c0.3,0,0.5-0.2,0.5-0.4c0.1-0.2,0-0.4-0.2-0.6c-0.4-0.4-1.3-0.9-3.5-1.5c0,0-7.3-2.5,2.3-5.4
		c27-8.1,20.1,13.6,20.1,13.6l0-0.1c0,0-7.2,21.6-24.2-0.8c-6.1-7.9,1.2-5.7,1.2-5.7C211.6,300.4,212.7,300.5,213.2,300.5
		L213.2,300.5z"/>
	<path class="st5" d="M213.2,300.5l0.5-0.4c0,0,0-0.4-0.2-0.6c-0.4-0.4-1.3-0.9-3.5-1.5c0,0-7.3-2.5,2.3-5.4
		c27-8.1,20.1,13.6,20.1,13.6l0-0.1c0,0-7.2,21.6-24.2-0.8c-6.1-7.9,1.2-5.7,1.2-5.7C211.6,300.4,213.2,300.5,213.2,300.5
		L213.2,300.5L213.2,300.5z"/>
	<path class="st6" d="M185.5,274.6c0,0-1.7,1.2-3.2,1.7c-1.5,0.4-2.1,1.6-2.3,1.8c0,0-0.8,2-1.4,1.2c-0.6-0.8,0.6-2.2,0.6-2.2
		c0.2-0.3,0.9-1.4,2.3-1.9c1.5-0.4,3.2-1.6,3.2-1.6c0,0,1.7-1.3,2.6-2.6c0.9-1.3,2.1-1.6,2.5-1.6c0,0,1.7-0.6,2.3,0.1
		c0.6,0.8-1.5,1-1.5,1c-0.4,0.1-1.6,0.4-2.5,1.6C187.2,273.3,185.5,274.6,185.5,274.6L185.5,274.6z"/>
	<path class="st6" d="M216.7,274.6c0,0-1.6-1.3-2.5-2.5c-0.9-1.2-2.2-1.5-2.5-1.6c0,0-2.1-0.1-1.6-0.9c0.6-0.8,2.4-0.1,2.4-0.1
		c0.3,0,1.6,0.3,2.5,1.6c0.9,1.2,2.6,2.6,2.6,2.6c0,0,1.8,1.1,3.2,1.6c1.4,0.5,2.1,1.6,2.3,1.8c0,0,1.2,1.5,0.6,2.3
		c-0.6,0.8-1.4-1.2-1.4-1.2c-0.2-0.3-0.9-1.4-2.3-1.8C218.5,275.7,216.7,274.6,216.7,274.6L216.7,274.6z"/>
	<path class="st6" d="M226.4,304.3c0,0,0.7-2,1.6-3.2c1-1.2,0.8-2.5,0.8-2.8c0,0-0.5-2.1,0.4-1.8c0.9,0.3,0.9,2.2,0.9,2.2
		c0,0.3,0.1,1.6-0.8,2.9c-1,1.2-1.7,3.2-1.7,3.2s-0.5,2-0.5,3.5c0,1.6-0.9,2.5-1.1,2.8c0,0-1.1,1.5-2,1.3c-1-0.3,0.7-1.7,0.7-1.7
		c0.2-0.3,1.1-1.3,1-2.8C225.9,306.3,226.4,304.3,226.4,304.3L226.4,304.3z"/>
	<path class="st6" d="M201.2,322.6c0,0,2.1,0.1,3.5,0.6c1.5,0.5,2.6,0,2.9-0.2c0,0,1.8-1.1,1.8-0.1c0,0.9-1.8,1.5-1.8,1.5
		c-0.3,0.1-1.5,0.6-2.9,0.1c-1.4-0.5-3.5-0.6-3.5-0.6s-2.1,0.1-3.6,0.6c-1.5,0.5-2.6,0-3-0.1c0,0-1.8-0.6-1.8-1.5
		c0-1,1.8,0.1,1.8,0.1c0.4,0.1,1.5,0.6,3,0.2C199,322.7,201.2,322.6,201.2,322.6L201.2,322.6z"/>
	<path class="st6" d="M176,304.3c0,0,0.6,2,0.6,3.6c0,1.6,0.8,2.5,1.1,2.8c0,0,1.6,1.4,0.7,1.7c-0.9,0.3-2-1.3-2-1.3
		c-0.2-0.3-1-1.2-1-2.8c0-1.5-0.5-3.5-0.5-3.5s-0.7-2-1.7-3.2c-0.9-1.2-0.8-2.5-0.8-2.9c0,0,0-1.8,0.9-2.2c0.9-0.3,0.4,1.8,0.4,1.8
		c0,0.3-0.2,1.6,0.8,2.8C175.3,302.3,176,304.3,176,304.3L176,304.3z"/>
	<path class="st7" d="M201,290.9c-2.8,0-5.1,2.3-5.1,5.1c0,2.9,2.3,5.1,5.1,5.1c2.9,0,5.2-2.2,5.2-5.1
		C206.2,293.2,203.9,290.9,201,290.9L201,290.9z"/>
	<path class="st8" d="M201,290.9c-2.8,0-5.1,2.3-5.1,5.1c0,2.9,2.3,5.1,5.1,5.1c2.9,0,5.2-2.2,5.2-5.1
		C206.2,293.2,203.9,290.9,201,290.9L201,290.9L201,290.9z"/>
	<path class="st6" d="M210.8,197.6l0.7,13.9l11.7-7.6l3.7,6l-13.8,8v2.9c0,0,16.1,9-3.5,8.7l0,0.1c-6.9,5.7-13.4,0.1-13.4,0.1
		c-19.6,0.3-3.5-8.7-3.5-8.7v-2.9l-12.2-9.5l2.9-6.3l11,9.4l0.6-13.9L210.8,197.6L210.8,197.6z"/>
	<path class="st9" d="M225.4,209.5c11.4,13,19.7-0.7,19.7-0.7c14.4-3.5,5.8-13.7,5.8-13.7c15-9.8-2.6-17.5-2.6-17.5
		c-0.1-13.1-11.2-12.1-11.2-12.1c-11.6-10.1-22.7,1.1-22.7,1.1c-17.4-14.5-30.6,2.2-30.6,2.2s-11.1-7.7-16.1,4.4
		c0,0-17.7-0.5-11.1,17.4c0,0-13.7,13.7,4.2,20.4c0,0,9.5,17.6,22.6,0.8c0,0,8,0.5,6.8-10.8c0,0,10.2,4.2,19.8-0.5
		c0,0,3.1,6.9,9.7,3c0,0-1,4.5,5.4,5.4L225.4,209.5L225.4,209.5z"/>
	<path class="st10" d="M225.4,209.5c11.4,13,19.7-0.7,19.7-0.7c14.4-3.5,5.8-13.7,5.8-13.7c15-9.8-2.6-17.5-2.6-17.5
		c0-13.1-11.2-12.1-11.2-12.1c-11.6-10.1-22.7,1.1-22.7,1.1c-17.4-14.5-30.6,2.2-30.6,2.2s-11.1-7.7-16.1,4.4
		c0,0-17.7-0.5-11.1,17.4c0,0-13.7,13.7,4.2,20.4c0,0,9.5,17.6,22.6,0.8c0,0,8,0.5,6.8-10.8c0,0,10.2,4.2,19.8-0.5
		c0,0,3.1,6.9,9.7,3c0,0-1,4.5,5.4,5.4L225.4,209.5L225.4,209.5z"/>
	<path class="st7" d="M73.1,321.7l0.8,0.7c-2.9,5.3-3.3,9-1.3,10.8c1.5,1.3,3.4,0.8,5.2-1.2c0.8-0.9,1.3-1.9,1.3-2.6
		c0-1.1-0.8-2.3-1.7-4.2c-1.8-3.6-1.7-6.5,1.4-10.1c3.1-3.6,7.2-4.8,9.8-2.5c1.1,1,1.7,2.4,1.8,4.2l2-0.6l0.7,0.6l-6.2,7.6l-0.7-0.7
		c2.4-5,3-8.1,1.1-9.6c-1.4-1.3-3.2-0.8-4.8,1c-2,2.3-0.9,3.7,0.7,6.6c0.8,1.6,1.5,2.8,1.1,4.7c-0.3,1.7-1.3,3.7-3,5.6
		c-3.4,3.9-7.3,5-10,2.6c-1.4-1.2-2-2.7-1.9-4.9l-2.5,0.8l-0.7-0.6L73.1,321.7L73.1,321.7z"/>
	<path class="st7" d="M96.5,324.2c2.8-1.3,5.2-1.3,7.3,0.2c2.1,1.5,3,3.6,2.7,6.9c-0.2,2.9-1.6,6.2-3.8,9.4
		c-2.3,3.2-4.5,5.3-7.3,6.6c-3,1.4-5.6,1.4-7.6,0c-2.1-1.4-2.9-3.6-2.6-7c0.3-3.2,1.4-6,3.7-9.2C91.2,327.8,93.8,325.5,96.5,324.2
		L96.5,324.2z M88.9,345.7c2.2,1.5,5.5-1,10.1-7.5c4.6-6.6,5.8-10.5,3.6-12.1c-2.2-1.5-5.4,1-10,7.6C88,340.2,86.7,344.2,88.9,345.7
		L88.9,345.7L88.9,345.7z"/>
	<path class="st7" d="M119.4,337l-1-0.5c-0.9-0.4-1.2-0.1-1.9,1.2l-6.4,11.9c-2.3,4.3-2.4,6.8,0.1,8.1c1.1,0.6,2.3,0.5,3.3,0
		c1.6-0.9,2.7-2.8,4.3-5.7l4.6-8.6c1.3-2.5,1.6-3.9-0.1-4.8c0,0-0.1-0.1-0.1-0.1l0.9-1.7l5.4,2.9l-0.9,1.7c-1.7-0.6-2.6,0.3-3.9,2.7
		l-4.7,8.8c-1.4,2.6-2.4,4.5-4,5.9c-2.4,2-4.7,2.2-7.2,0.8c-3.9-2-4.4-5.7-1.6-11l6.9-12.8c0.7-1.3,0.7-1.8-0.1-2.3l-1-0.5l0.9-1.7
		l7.5,4L119.4,337L119.4,337z"/>
	<path class="st7" d="M140.2,346.3c-0.8-0.3-1.1,0-1.7,1.4l-7.1,17.9c-0.6,1.4-0.6,1.9,0.3,2.2l1.1,0.4l-0.7,1.8l-7.8-3.1l0.7-1.8
		l1,0.4c0.9,0.3,1.2,0,1.7-1.4l7.1-17.8c0.5-1.3,0.5-1.8-0.2-2.1c-1.6-0.7-4,1.6-6.4,6.4l-1.1-0.4l4-9.2l13.6,5.4l-3.4,9.5l-1-0.4
		C142,350.2,141.8,346.9,140.2,346.3L140.2,346.3z"/>
	<path class="st7" d="M151.8,374.1c0.9,0.3,1.2-0.1,1.6-1.6l2.3-8.4l-5.7-1.5l-2.2,8.4c-0.4,1.4-0.4,1.9,0.6,2.2l1.1,0.3l-0.5,1.9
		l-8.1-2.2l0.5-1.9l1.1,0.2c0.9,0.3,1.2-0.1,1.6-1.5l4.9-18.3c0.4-1.4,0.4-2-0.6-2.2l-1.1-0.3l0.5-1.9l8.1,2.2l-0.5,1.9l-1.1-0.3
		c-0.9-0.3-1.2,0.2-1.6,1.6l-2,7.6l5.7,1.5l2-7.6c0.4-1.4,0.4-2-0.6-2.2l-1.1-0.3l0.5-1.9l8.2,2.2l-0.5,1.8l-1.1-0.3
		c-0.9-0.2-1.2,0.2-1.6,1.6l-4.9,18.3c-0.4,1.4-0.4,1.9,0.6,2.1l1.1,0.3l-0.5,1.9l-8.2-2.2l0.5-1.9L151.8,374.1L151.8,374.1z"/>
	<path class="st7" d="M173.4,378.4l1.1,0.1c0.5,0,0.7-0.2,0.7-0.8c0-0.3,0-0.6,0-1l-0.4-4.3l-5.6-0.8l-0.8,1.9
		c-0.3,0.6-0.5,1.3-0.5,1.8c-0.3,1.7,0.3,2.3,2,2.6l-0.3,1.9l-6.2-0.9l0.3-1.9c1.4-0.2,2.3-1.7,3.5-4.5l8.1-19.3l1.6,0.2l2.6,24.2
		c0.1,1.2,0.4,1.6,1.2,1.8l-0.3,1.9l-7.4-1.1L173.4,378.4L173.4,378.4z M170.2,369.4l4.5,0.7l-0.9-9.2L170.2,369.4L170.2,369.4z"/>
	<path class="st7" d="M189.8,375.4c-0.1,3.4,0.3,4.7,2.4,4.8l0,2l-6.4-0.2v-2c2-0.1,2.4-1.3,2.5-4.7l0.4-16c0-1.4-0.1-2-1.1-2.1
		l-1.2,0l0.1-1.9l7.2,0.2l3.1,16l3.6-15.9l7.1,0.2l-0.1,2l-1.1-0.1c-0.9,0-1.1,0.5-1.2,1.9l-0.4,18.9c0,1.5,0.1,2,1.1,2l1.1,0
		l-0.1,2l-8.3-0.2l0.1-1.9h1c0.9,0,1.1-0.4,1.2-1.9l0.5-20l-5.4,23.8l-1.1,0l-4.5-23.9L189.8,375.4L189.8,375.4z"/>
	<path class="st7" d="M219.9,379.5l1.4-0.1l0.2,1.9l-8.7,0.9l-0.2-2l1.2-0.1c1-0.1,1.1-0.5,0.9-2l-1.8-18.8
		c-0.1-1.5-0.3-1.9-1.3-1.9l-1.2,0.1l-0.2-1.9l9.7-0.9c4-0.4,6.3,2,6.8,6.9c0.5,5.3-1.7,7.9-6.6,8.4c-0.7,0.1-1.4,0.1-2.2,0.2
		l0.8,7.6C218.8,379.2,219,379.6,219.9,379.5L219.9,379.5z M217.7,368.1c0.3,0.1,0.6,0.1,1.1,0c3-0.3,4.1-1.6,3.7-6
		c-0.4-4.3-1.5-5.6-4.2-5.3c-1.4,0.1-1.6,0.4-1.5,2.5L217.7,368.1L217.7,368.1z"/>
	<path class="st7" d="M239.6,353.2c-0.8,0.1-0.9,0.6-0.6,2l3.9,18.8c0.3,1.4,0.6,1.8,1.5,1.6l1.1-0.2l0.4,1.9l-8.2,1.7l-0.4-1.9
		l1.1-0.2c0.9-0.2,1-0.7,0.7-2.1l-3.9-18.8c-0.3-1.4-0.6-1.8-1.3-1.7c-1.7,0.4-2.5,3.6-1.8,8.9l-1.1,0.2l-1.7-9.9l14.3-3l2.4,9.8
		l-1.1,0.2C243.3,355.5,241.3,352.8,239.6,353.2L239.6,353.2z"/>
	<path class="st7" d="M250,352.3c0.7-3,2.1-4.9,4.6-5.7c2.5-0.8,4.7-0.2,7.1,2c2.2,2,3.9,5,5.2,8.7c1.3,3.8,1.5,6.8,0.9,9.8
		c-0.7,3.2-2.2,5.3-4.6,6c-2.4,0.8-4.6,0.1-7.1-2.1c-2.4-2.1-3.9-4.7-5.1-8.5C249.7,358.7,249.4,355.2,250,352.3L250,352.3z
		 M262.6,371.2c2.5-0.8,2.5-5,0.1-12.6c-2.5-7.6-4.9-11-7.5-10.1c-2.5,0.8-2.5,4.9,0,12.6C257.7,368.7,260.1,372.1,262.6,371.2
		L262.6,371.2L262.6,371.2z"/>
	<path class="st7" d="M276,366c1.7-1.1,1.5-2.4,0.1-5.3l-6.7-14.6l-0.7-0.5c-0.7-0.5-1.2-0.9-2-0.5l-0.2,0.1l-0.8-1.7l5.1-2.4
		l14.7,11.5l-4.2-9.1c-1.5-3.3-2.4-4.1-4.4-3.2l-0.8-1.8l5.9-2.7l0.8,1.8c-1.7,0.9-1.5,2.1-0.1,5.3l8.6,18.5l-1.3,0.6l-18.1-14.3
		l5.7,12.3c1.4,3.1,2.4,4,4.3,3.2l0.9,1.7l-5.8,2.7L276,366L276,366z"/>
	<path class="st7" d="M309.5,329.7l-0.9,0.6c-3.9-4.2-6.3-5-9.1-3c-1.1,0.7-1.3,1-0.2,2.6l4.4,6.5c0.1-0.1,0.2-0.1,0.3-0.2
		c1.6-1.1,1.5-2.8-0.3-6l0.9-0.6l6.9,10.1l-0.9,0.6c-2.4-2.9-3.8-3.6-5.5-2.5c-0.1,0.1-0.2,0.1-0.2,0.2l5,7.4c0.8,1.2,1.2,1.5,2,1
		l1.3-0.9l1.1,1.6l-7.3,5l-1.1-1.6l0.9-0.6c0.8-0.5,0.7-1-0.1-2.2L296,332c-0.8-1.2-1.2-1.5-2-1l-1,0.6l-1.1-1.6l12-8.2L309.5,329.7
		L309.5,329.7z"/>
	<path class="st7" d="M331,335.2c-1.5,1.2-3.3,1.6-5.5,1.2c-3.3-0.7-6.7-3-9.8-6.6c-2.4-2.8-4-5.8-4.7-8.7c-0.7-3.2-0.1-5.6,1.9-7.3
		c1.2-1.1,2.6-1.4,4.5-1.1l-0.3-2.2l0.7-0.6l7.3,7.9l-0.8,0.9c-4.7-4-8.1-5.2-9.9-3.6c-2.2,1.9-0.7,5.6,4.6,11.7
		c5.3,6.2,8.6,8.2,11,6.1c1.9-1.6,1.5-4.8-1.3-9.3l1.4-0.3C333.5,328.5,333.8,332.7,331,335.2L331,335.2z"/>
	<path class="st1" d="M46.1,110.7l4.2,8.7l-11.9,3.2l3.7,7.4l11.9-3.3l3.7,7.4l-11.9,3.2l3.7,7.4l11.9-3.2l3.8,7.4l-12,3.2l3.7,7.3
		l12-3.2l5.3,10.2c2.2-0.6,4.5-1.4,6.6-2.3L53,108.7C51,109.5,48.7,110.2,46.1,110.7L46.1,110.7z"/>
	<path class="st1" d="M78.8,113.7c-0.8-3.9,8.1-8.6,15.3-14.4l-9.5-19.1c-3.8,2.1-7.9,5.3-12.1,10c-1.1,1.2-2.1,2.4-3,3.6
		L78.8,113.7L78.8,113.7z"/>
	<path class="st2" d="M100.1,79.8c-2.3-3.1-8.3-3.6-15.5,0.4l9.5,19.1C100.7,93.9,105.8,87.5,100.1,79.8L100.1,79.8z"/>
	<path class="st2" d="M53,108.7l27.8,55.6c7.8-3.2,14.2-7.8,16.4-11.2l-12-25.5l-5.9-12.7c-0.3-0.4-0.5-0.8-0.5-1.2l-9.4-20
		C64.7,99.6,60.7,105.4,53,108.7L53,108.7z"/>
	<path class="st2" d="M46.1,110.7c-3.8,0.6-8.1,0.8-13.5,0.4l5.8,11.6l11.9-3.2L46.1,110.7L46.1,110.7z"/>
	<polygon class="st2" points="54,126.8 42.1,130 45.9,137.4 57.8,134.2 54,126.8 	"/>
	<polygon class="st2" points="61.5,141.5 49.5,144.7 53.2,152.1 65.2,148.9 61.5,141.5 	"/>
	<path class="st2" d="M56.9,159.5l4.3,8.8c4.2,0.2,8.6-0.5,12.9-1.7l-5.3-10.2L56.9,159.5L56.9,159.5z"/>
	<path class="st1" d="M93.9,99.4l5.3,10.6c3.8-3.2,7.8-6.9,12-10.5l-9.9-17.7C104.9,88.7,100,94.5,93.9,99.4L93.9,99.4z"/>
	<path class="st2" d="M79.3,114.9c0.3,0.4,0.7,0.8,1.2,1.1c5.3,3.8,11.6-0.1,18.7-6l-5.3-10.6C86,105.8,76.1,110.8,79.3,114.9
		L79.3,114.9z"/>
	<path class="st11" d="M111.2,99.5C99,109.8,88.7,121.8,80.5,116c-0.5-0.4-0.9-0.7-1.2-1.1c-5.7-7.4,30.2-17.4,22-33.1L111.2,99.5
		L111.2,99.5z M79.3,114.9c-6-7.7,33.2-18.2,20.8-35.1c-3.5-4.8-15.3-3.3-27.7,10.4c-9.5,10.5-13.7,23-39.8,20.8l28.7,57.2
		c14.5,0.8,32.1-9.1,35.9-15.2L79.3,114.9L79.3,114.9z"/>
	<path class="st1" d="M353.9,110.7l-4.2,8.7l11.8,3.2l-3.7,7.4l-11.9-3.3l-3.7,7.4l11.9,3.2l-3.7,7.4l-11.9-3.2l-3.7,7.4l12,3.2
		l-3.7,7.3l-12-3.2l-5.3,10.2c-2.2-0.6-4.5-1.4-6.6-2.3l27.8-55.6C349,109.5,351.3,110.2,353.9,110.7L353.9,110.7z"/>
	<path class="st1" d="M321.2,113.7c0.8-3.9-8.1-8.6-15.3-14.4l9.5-19.1c3.7,2.1,7.9,5.3,12.2,10c1,1.2,2,2.4,3,3.6L321.2,113.7
		L321.2,113.7z"/>
	<path class="st2" d="M299.9,79.8c2.3-3.1,8.3-3.6,15.6,0.4l-9.5,19.1C299.3,93.9,294.2,87.5,299.9,79.8L299.9,79.8z"/>
	<path class="st2" d="M347,108.7l-27.8,55.6c-7.8-3.2-14.2-7.8-16.4-11.2l17.9-38.2c0.3-0.4,0.5-0.8,0.5-1.2l9.4-20
		C335.3,99.6,339.3,105.4,347,108.7L347,108.7z"/>
	<path class="st2" d="M353.9,110.7c3.7,0.6,8.1,0.8,13.5,0.4l-5.9,11.6l-11.8-3.2L353.9,110.7L353.9,110.7z"/>
	<polygon class="st2" points="345.9,126.8 357.8,130 354.1,137.4 342.2,134.2 345.9,126.8 	"/>
	<polygon class="st2" points="338.5,141.5 350.5,144.7 346.8,152.1 334.8,148.9 338.5,141.5 	"/>
	<path class="st2" d="M343,159.5l-4.4,8.8c-4.2,0.2-8.6-0.5-12.9-1.7l5.3-10.2L343,159.5L343,159.5z"/>
	<path class="st1" d="M306.1,99.4l-5.3,10.6c-3.8-3.2-7.8-6.9-12-10.5l9.9-17.7C295.1,88.7,300,94.5,306.1,99.4L306.1,99.4z"/>
	<path class="st2" d="M320.7,114.9c-0.3,0.4-0.7,0.8-1.2,1.1c-5.4,3.8-11.6-0.1-18.7-6l5.3-10.6
		C313.9,105.8,323.9,110.8,320.7,114.9L320.7,114.9z"/>
	<path class="st11" d="M288.8,99.5c12.3,10.3,22.5,22.3,30.7,16.5c0.5-0.4,0.9-0.7,1.2-1.1c5.7-7.4-30.2-17.4-22-33.1L288.8,99.5
		L288.8,99.5z M320.7,114.9c6-7.7-33.2-18.2-20.8-35.1c3.6-4.8,15.4-3.3,27.7,10.4c9.5,10.5,13.7,23,39.8,20.8l-28.7,57.2
		c-14.4,0.8-32.1-9.1-35.9-15.2L320.7,114.9L320.7,114.9z"/>
	<path class="st1" d="M235.8,97.6c-2.6,2.1-7,5.1-12,8.1v39.6c5.6-3.4,11.3-7,16.7-9.9v-41C238.6,95.5,237,96.6,235.8,97.6
		L235.8,97.6z"/>
	<path class="st1" d="M262.5,86.8c-0.2,0-0.5,0.1-0.7,0.1l-5.7,42.8c0.2,0,0.5-0.1,0.7-0.1c4.6,0,8.9,1.6,13,3.8l12.7-38.9
		C276.3,90.1,269.6,86.8,262.5,86.8L262.5,86.8z"/>
	<path class="st1" d="M319.5,116c-5.3,3.7-11.5,0-18.5-5.9l-16.5,34.4c6.7,5.8,12.7,10.6,18.2,8.5l17.9-38.1
		C320.4,115.3,320,115.7,319.5,116L319.5,116z"/>
	<path class="st1" d="M80.5,116c-0.5-0.4-0.9-0.7-1.2-1.1L97.2,153c5.6,2.1,11.6-2.7,18.3-8.5L99,110.1C92,116,85.8,119.7,80.5,116
		L80.5,116z"/>
	<path class="st1" d="M200,115.9c-1.6,0-3.9-0.6-6.3-1.5v39.8c2.3,0.8,4.4,1.3,6.3,1.3c1.9,0,4-0.5,6.3-1.3v-39.8
		C203.9,115.4,201.6,115.9,200,115.9L200,115.9z"/>
	<path class="st1" d="M137.5,86.8c-7.1,0-13.8,3.3-20,7.7l12.7,38.9c4-2.3,8.3-3.8,13-3.8c0.2,0,0.5,0.1,0.7,0.1l-5.6-42.8
		C138,86.9,137.7,86.8,137.5,86.8L137.5,86.8z"/>
	<path class="st1" d="M164.2,97.6c-1.2-1-2.8-2.1-4.7-3.3v41c5.4,2.9,11.1,6.5,16.6,9.9v-39.6C171.2,102.6,166.7,99.6,164.2,97.6
		L164.2,97.6z"/>
	<path class="st2" d="M176.2,105.6v39.6c6.2,3.8,12.3,7.3,17.5,9.1v-39.8C188.5,112.6,181.9,109.2,176.2,105.6L176.2,105.6z"/>
	<path class="st2" d="M138.2,86.9l5.6,42.8c4.4,0.2,9.8,2.5,15.7,5.6v-41C154.2,90.9,146.4,87.1,138.2,86.9L138.2,86.9z"/>
	<path class="st2" d="M99,110.1l16.5,34.4c4.5-3.9,9.3-8.1,14.7-11.1l-12.7-38.9C110.8,99.4,104.6,105.4,99,110.1L99,110.1z"/>
	<path class="st2" d="M206.3,114.5v39.8c5.2-1.8,11.3-5.3,17.5-9.1v-39.6C218.1,109.2,211.5,112.6,206.3,114.5L206.3,114.5z"/>
	<path class="st2" d="M240.5,94.3v41c5.8-3.2,11.2-5.4,15.7-5.6l5.7-42.8C253.6,87.1,245.8,90.9,240.5,94.3L240.5,94.3z"/>
	<path class="st2" d="M282.5,94.6l-12.7,38.9c5.3,3,10.2,7.2,14.7,11.1l16.5-34.4C295.4,105.4,289.2,99.4,282.5,94.6L282.5,94.6z"/>
	<path class="st11" d="M200,155.6c14.3,0,41.8-26,56.8-26c20,0,33.7,28,45.9,23.4l17.9-38.1c-0.3,0.4-0.7,0.8-1.2,1.1
		c-13.5,9.5-32.6-29.2-57-29.2c-11.4,0-22,7.1-26.7,10.7c-7.1,5.6-27.7,18.3-35.8,18.3c-8,0-28.8-12.7-35.8-18.3
		c-4.7-3.7-15.3-10.7-26.7-10.7c-24.3,0-43.5,38.7-57,29.2c-0.5-0.4-0.9-0.7-1.2-1.1L97.2,153c12.2,4.6,25.9-23.4,45.9-23.4
		C158.2,129.6,185.7,155.6,200,155.6L200,155.6L200,155.6z"/>
	<path class="st6" d="M200.6,77c37,0,67-16.3,67-36.3c0-20-30-36.3-67-36.3c-37,0-67,16.3-67,36.3C133.6,60.8,163.6,77,200.6,77
		L200.6,77z"/>
	<path class="st12" d="M200.6,77c37,0,67-16.3,67-36.3c0-20-30-36.3-67-36.3c-37,0-67,16.3-67,36.3C133.6,60.8,163.6,77,200.6,77
		L200.6,77L200.6,77z"/>
	<path class="st7" d="M200.7,71.1c32.9,0,59.6-13.6,59.6-30.4c0-16.8-26.7-30.4-59.6-30.4c-32.9,0-59.6,13.6-59.6,30.4
		C141.1,57.5,167.7,71.1,200.7,71.1L200.7,71.1z"/>
	<path class="st13" d="M200.7,71.1c32.9,0,59.6-13.6,59.6-30.4c0-16.8-26.7-30.4-59.6-30.4c-32.9,0-59.6,13.6-59.6,30.4
		C141.1,57.5,167.7,71.1,200.7,71.1L200.7,71.1L200.7,71.1z"/>
	<path class="st1" d="M200.7,63.9c26.8,0,48.5-8.7,48.5-19.4c0-10.7-21.8-19.4-48.5-19.4c-26.8,0-48.5,8.7-48.5,19.4
		C152.2,55.2,174,63.9,200.7,63.9L200.7,63.9z"/>
	<path class="st14" d="M200.7,63.9c26.8,0,48.5-8.7,48.5-19.4c0-10.7-21.8-19.4-48.5-19.4c-26.8,0-48.5,8.7-48.5,19.4
		C152.2,55.2,174,63.9,200.7,63.9L200.7,63.9L200.7,63.9z"/>
	<path class="st15" d="M200.6,30.6c-25.8,0-46.7,20.9-46.7,46.7c0,25.8,20.9,46.7,46.7,46.7H200c25.7,0,46.7-20.9,46.7-46.7
		c0-25.8-20.9-46.7-46.7-46.7H200.6L200.6,30.6z"/>
	<path class="st6" d="M192.8,115.9l-9.6-16.3l-17.6-2.9l-4.4,5.6c0.2,0.3,0.3,0.6,0.5,0.8l0.8,1.1c5.9,8.3,14.4,14.6,24.3,17.7
		l1.8,0.3L192.8,115.9L192.8,115.9z"/>
	<polygon class="st6" points="180.8,70.9 188.3,94.1 212.2,94.1 219.8,70.9 200.2,56.7 180.8,70.9 	"/>
	<path class="st6" d="M200.2,47.3L200.2,47.3l14.5-9.5v-4.7c-4.5-1.5-9.4-2.4-14.5-2.4c-5,0-9.9,0.9-14.5,2.4v4.7L200.2,47.3
		L200.2,47.3z"/>
	<path class="st6" d="M173.4,63.5l0.5-18.5l-3.8-2.9c-2,1.7-3.8,3.5-5.5,5.5l-0.2,0.2c-5.3,6.5-8.9,14.4-10.1,23.2l4.2,1.8
		L173.4,63.5L173.4,63.5z"/>
	<path class="st6" d="M217.4,99.6l-9.6,16.3l4.2,6.4l1.7-0.3c10.1-3.1,18.8-9.6,24.7-18.1l0.4-0.6c0.2-0.3,0.4-0.7,0.6-1l-4.5-5.6
		L217.4,99.6L217.4,99.6z"/>
	<path class="st6" d="M227.2,63.5l14.8,9.3l4.2-1.8c-1.2-8.8-4.8-16.7-10.1-23.3l0,0c-1.7-2-3.6-3.9-5.5-5.6l-3.8,2.9L227.2,63.5
		L227.2,63.5z"/>
</g>
</svg>
