<?xml version="1.0" encoding="utf-8"?>
<!-- Generator: Adobe Illustrator 19.1.0, SVG Export Plug-In . SVG Version: 6.00 Build 0)  -->
<svg version="1.1" id="Layer_1" xmlns="http://www.w3.org/2000/svg" xmlns:xlink="http://www.w3.org/1999/xlink" x="0px" y="0px"
	 viewBox="0 0 160 160" style="enable-background:new 0 0 160 160;" xml:space="preserve">
<style type="text/css">
	.st0{fill:#211E1F;}
	.st1{fill:none;stroke:#FFFFFF;stroke-width:2.356;}
	.st2{fill:#FFFFFF;}
	.st3{fill:#EC1E3C;}
	.st4{fill:#2BACE2;}
	.st5{fill:none;stroke:#211E1F;stroke-width:1.441;}
	.st6{fill:#FFC515;}
	.st7{fill:none;stroke:#FFC515;stroke-width:0.571;}
	.st8{fill:#28B24C;}
	.st9{fill:none;stroke:#211E1F;stroke-width:5.901;}
	.st10{fill:#FFC316;}
	.st11{fill:none;stroke:#211E1F;stroke-width:4.704;}
	.st12{fill:none;stroke:#211E1F;stroke-width:2.000000e-03;}
	.st13{fill:none;stroke:#211E1F;stroke-width:9.436;}
</style>
<g>
	<path class="st0" d="M124.3,110.3c-10.6,12.6-26.5,20.7-44.3,20.7c-17.6,0-33.4-7.9-44-20.3l-12.6,15.1
		C37.5,141,57.7,150.5,80,150.5c22.5,0,42.8-9.6,56.9-25L124.3,110.3"/>
	<path class="st1" d="M124.3,110.3c-10.6,12.6-26.5,20.7-44.3,20.7c-17.6,0-33.4-7.9-44-20.3l-12.6,15.1
		C37.5,141,57.7,150.5,80,150.5c22.5,0,42.8-9.6,56.9-25L124.3,110.3z"/>
	<path class="st0" d="M114.3,52.3v67.2c0,1.9-1.2,3.6-3,4.3l-31.2,12.1L49,123.8c-1.7-0.6-3-2.3-3-4.3l0-67.2H114.3"/>
	<path class="st1" d="M114.3,52.3v67.2c0,1.9-1.2,3.6-3,4.3l-31.2,12.1L49,123.8c-1.7-0.6-3-2.3-3-4.3l0-67.2H114.3z"/>
	<polyline class="st2" points="47.6,104.2 47.6,62.7 112.7,62.7 112.7,104.2 47.6,104.2 	"/>
	<path class="st3" d="M112.7,100.3c-0.6,0.9-2,1.6-3.6,1.6c-1.7,0-3.1-0.6-3.6-1.6c-0.6,0.9-2,1.6-3.6,1.6c-1.6,0-3-0.6-3.6-1.6
		c-0.6,0.9-2,1.6-3.6,1.6c-1.7,0-3-0.6-3.6-1.6h0c-0.6,0.9-2,1.6-3.6,1.6c-1.6,0-3-0.6-3.6-1.6c-0.6,0.9-2,1.6-3.6,1.6
		c-1.7,0-3-0.6-3.6-1.6h0c-0.6,0.9-2,1.6-3.6,1.6c-1.6,0-3.1-0.6-3.6-1.6c-0.6,0.9-2,1.6-3.6,1.6c-1.6,0-3-0.6-3.6-1.6h0
		c-0.6,0.9-2,1.6-3.6,1.6c-1.7,0-3-0.6-3.6-1.6v0c-0.6,0.9-2,1.5-3.6,1.5c-1.7,0-3.1-0.6-3.6-1.6v-0.1l0,18.3c0,1.9,1.2,3.4,2.8,4.1
		l29.7,11.5l29.7-11.5c1.6-0.6,2.8-2.2,2.8-4.1L112.7,100.3L112.7,100.3"/>
	<path class="st4" d="M112.7,98.4c-0.6,0.9-2,1.6-3.6,1.6c-1.7,0-3.1-0.7-3.6-1.6c-0.6,0.9-2,1.6-3.6,1.6c-1.6,0-3-0.7-3.6-1.6
		c-0.6,0.9-2,1.6-3.6,1.6c-1.7,0-3-0.7-3.6-1.6h0c-0.6,0.9-2,1.6-3.6,1.6c-1.6,0-3-0.7-3.6-1.6c-0.6,0.9-2,1.6-3.6,1.6
		c-1.7,0-3-0.7-3.6-1.6h0c-0.6,0.9-2,1.6-3.6,1.6c-1.6,0-3.1-0.7-3.6-1.6c-0.6,0.9-2,1.6-3.6,1.6c-1.6,0-3-0.7-3.6-1.6h0
		c-0.6,0.9-2,1.6-3.6,1.6c-1.7,0-3-0.7-3.6-1.6v0c-0.6,0.9-2,1.5-3.6,1.5c-1.7,0-3.1-0.7-3.6-1.6v-2.3c0.6,0.9,2,1.6,3.6,1.6
		c1.6,0,3-0.6,3.6-1.6c0.6,0.9,2,1.6,3.6,1.6c1.6,0,3-0.7,3.6-1.6h0c0.6,0.9,2,1.6,3.6,1.6c1.6,0,3-0.6,3.6-1.6
		c0.6,0.9,2,1.6,3.6,1.6c1.6,0,3-0.7,3.6-1.6h0c0.6,0.9,2,1.6,3.6,1.6c1.6,0,3-0.6,3.6-1.6c0.6,0.9,2,1.6,3.6,1.6
		c1.6,0,3-0.7,3.6-1.6h0c0.6,0.9,2,1.6,3.6,1.6c1.6,0,3-0.6,3.6-1.6c0.6,0.9,2,1.6,3.6,1.6c1.6,0,3.1-0.7,3.6-1.6
		c0.6,0.9,2,1.6,3.6,1.6c1.6,0,3-0.6,3.6-1.6V98.4"/>
	<path class="st4" d="M112.7,94.3c-0.6,0.9-2,1.6-3.6,1.6c-1.7,0-3.1-0.6-3.6-1.6c-0.6,0.9-2,1.6-3.6,1.6c-1.6,0-3-0.6-3.6-1.6
		c-0.6,0.9-2,1.6-3.6,1.6c-1.7,0-3-0.6-3.6-1.6h0c-0.6,0.9-2,1.6-3.6,1.6c-1.6,0-3-0.6-3.6-1.6c-0.6,0.9-2,1.6-3.6,1.6
		c-1.7,0-3-0.6-3.6-1.6h0c-0.6,0.9-2,1.6-3.6,1.6c-1.6,0-3.1-0.6-3.6-1.6c-0.6,0.9-2,1.6-3.6,1.6c-1.6,0-3-0.6-3.6-1.6h0
		c-0.6,0.9-2,1.6-3.6,1.6c-1.7,0-3-0.6-3.6-1.6v0c-0.6,0.9-2,1.5-3.6,1.5c-1.7,0-3.1-0.6-3.6-1.6V92c0.6,0.9,2,1.6,3.6,1.6
		c1.6,0,3-0.6,3.6-1.6c0.6,0.9,2,1.6,3.6,1.6c1.6,0,3-0.7,3.6-1.6h0c0.6,0.9,2,1.6,3.6,1.6c1.6,0,3-0.6,3.6-1.6
		c0.6,0.9,2,1.6,3.6,1.6c1.6,0,3-0.7,3.6-1.6h0c0.6,0.9,2,1.6,3.6,1.6c1.6,0,3-0.6,3.6-1.6c0.6,0.9,2,1.6,3.6,1.6
		c1.6,0,3-0.7,3.6-1.6h0c0.6,0.9,2,1.6,3.6,1.6c1.6,0,3-0.6,3.6-1.6c0.6,0.9,2,1.6,3.6,1.6c1.6,0,3.1-0.7,3.6-1.6
		c0.6,0.9,2,1.6,3.6,1.6c1.6,0,3-0.6,3.6-1.6V94.3"/>
	<path class="st0" d="M84.9,121.1c0,0,3.2,5,1.5,3.6c-1.2-1.1-2.9-3.5-4.1-5.5l-6.6,2.5c0,0-3.8,4.6-2.9,2.6c0.6-1.5,2.5-3.8,4-5.6
		l-4.5-5.4c0,0-5.5-2.1-3.3-2c1.4,0.1,4.4,1.2,6.6,2.1l3.7-6c0,0,0.4-5.9,0.9-3.8c0.4,1.5,0.2,4.6,0.1,7l6.8,1.7
		c0,0,5.7-1.5,3.9-0.4c-1.3,0.8-4.2,1.7-6.5,2.2L84.9,121.1"/>
	<path class="st5" d="M84.9,121.1c0,0,3.2,5,1.5,3.6c-1.2-1.1-2.9-3.5-4.1-5.5l-6.6,2.5c0,0-3.8,4.6-2.9,2.6c0.6-1.5,2.5-3.8,4-5.6
		l-4.5-5.4c0,0-5.5-2.1-3.3-2c1.4,0.1,4.4,1.2,6.6,2.1l3.7-6c0,0,0.4-5.9,0.9-3.8c0.4,1.5,0.2,4.6,0.1,7l6.8,1.7
		c0,0,5.7-1.5,3.9-0.4c-1.3,0.8-4.2,1.7-6.5,2.2L84.9,121.1z"/>
	<path class="st2" d="M79.7,119.8c0,0.1,0.1,0.2,0.2,0.2c0.1,0,0.1-0.1,0.2-0.2c0.1-0.2,0.1-0.6,0.1-1.4c0,0,0-2.8,2.1,0.2
		c5.8,8.4-2.5,8.5-2.5,8.5h0.1c0,0-8.3,0-2.5-8.5c2.1-3,2.1-0.2,2.1-0.2C79.6,119.3,79.6,119.7,79.7,119.8L79.7,119.8"/>
	<path class="st5" d="M79.7,119.8l0.2,0.2l0.2-0.2c0.1-0.2,0.1-0.6,0.1-1.4c0,0,0-2.8,2.1,0.2c5.8,8.4-2.5,8.5-2.5,8.5h0.1
		c0,0-8.3,0-2.5-8.5c2.1-3,2.1-0.2,2.1-0.2C79.6,119.3,79.6,119.7,79.7,119.8L79.7,119.8L79.7,119.8z"/>
	<path class="st2" d="M75.4,116.4c-0.1,0.1-0.1,0.1-0.1,0.2c0,0.1,0.1,0.1,0.2,0.1h0c0.2,0,0.6,0,1.4-0.3c0,0,2.7-0.8,0.5,2.1
		c-6.2,8.2-8.8,0.3-8.8,0.3v0.1c0,0-2.5-7.9,7.3-5c3.5,1,0.8,2,0.8,2C75.9,116.1,75.6,116.3,75.4,116.4"/>
	<path class="st5" d="M75.4,116.4c-0.1,0.1-0.1,0.2-0.1,0.2l0.2,0.1h0c0,0,0.6,0,1.4-0.3c0,0,2.7-0.8,0.5,2.1
		c-6.2,8.2-8.8,0.3-8.8,0.3v0.1c0,0-2.5-7.9,7.3-5c3.5,1,0.8,2,0.8,2C75.9,116.1,75.6,116.3,75.4,116.4z"/>
	<path class="st2" d="M77.3,111.3c-0.1-0.1-0.2-0.1-0.2,0c-0.1,0-0.1,0.1-0.1,0.2v0c0,0.2,0.2,0.6,0.7,1.2c0,0,1.6,2.3-1.9,1.1
		c-9.7-3.4-3-8.3-3-8.3l0,0c0,0,6.7-4.8,7,5.4c0.1,3.7-1.6,1.4-1.6,1.4C77.8,111.7,77.5,111.4,77.3,111.3"/>
	<path class="st5" d="M77.3,111.3h-0.2l-0.1,0.2v0c0,0,0.2,0.6,0.7,1.2c0,0,1.6,2.3-1.9,1.1c-9.7-3.4-3-8.3-3-8.3l0,0
		c0,0,6.7-4.8,7,5.4c0.1,3.7-1.6,1.4-1.6,1.4C77.8,111.7,77.5,111.4,77.3,111.3z"/>
	<path class="st2" d="M82.8,111.5c0-0.1,0-0.2-0.1-0.2c-0.1,0-0.2,0-0.2,0c-0.2,0.1-0.5,0.3-0.9,1c0,0-1.7,2.2-1.6-1.4
		c0.2-10.3,7-5.4,7-5.4l0,0c0,0,6.7,4.9-3,8.3c-3.4,1.2-1.8-1.1-1.8-1.1C82.6,112.1,82.8,111.7,82.8,111.5"/>
	<path class="st5" d="M82.8,111.5l-0.1-0.2l-0.2,0c-0.2,0.1-0.5,0.3-0.9,1c0,0-1.7,2.2-1.6-1.4c0.2-10.3,7-5.4,7-5.4l0,0
		c0,0,6.7,4.9-3,8.3c-3.4,1.2-1.8-1.1-1.8-1.1C82.6,112.1,82.8,111.5,82.8,111.5z"/>
	<path class="st2" d="M84.3,116.8c0.1,0,0.2-0.1,0.2-0.1c0-0.1,0-0.1-0.1-0.2c-0.1-0.1-0.5-0.3-1.3-0.6c0,0-2.7-0.9,0.8-2
		c9.8-3,7.3,5,7.3,5l0-0.1c0,0-2.6,7.9-8.8-0.3c-2.2-2.9,0.5-2.1,0.5-2.1C83.7,116.8,84.1,116.8,84.3,116.8"/>
	<path class="st5" d="M84.3,116.8l0.2-0.1c0,0,0-0.1-0.1-0.2c-0.1-0.1-0.5-0.3-1.3-0.6c0,0-2.7-0.9,0.8-2c9.8-3,7.3,5,7.3,5l0-0.1
		c0,0-2.6,7.9-8.8-0.3c-2.2-2.9,0.5-2.1,0.5-2.1C83.7,116.8,84.3,116.8,84.3,116.8z"/>
	<path class="st0" d="M74.2,107.3c0,0-0.6,0.4-1.2,0.6c-0.5,0.2-0.8,0.6-0.8,0.7c0,0-0.3,0.7-0.5,0.4c-0.2-0.3,0.2-0.8,0.2-0.8
		c0.1-0.1,0.3-0.5,0.8-0.7c0.5-0.2,1.2-0.6,1.2-0.6c0,0,0.6-0.5,0.9-0.9c0.3-0.5,0.8-0.6,0.9-0.6c0,0,0.6-0.2,0.9,0
		c0.2,0.3-0.6,0.3-0.6,0.3c-0.1,0-0.6,0.1-0.9,0.6C74.8,106.9,74.2,107.3,74.2,107.3"/>
	<path class="st0" d="M85.6,107.3c0,0-0.6-0.5-0.9-0.9c-0.3-0.5-0.8-0.6-0.9-0.6c0,0-0.8-0.1-0.6-0.3c0.2-0.3,0.9,0,0.9,0
		c0.1,0,0.6,0.1,0.9,0.6c0.3,0.5,0.9,0.9,0.9,0.9c0,0,0.6,0.4,1.2,0.6c0.5,0.2,0.8,0.6,0.8,0.7c0,0,0.4,0.5,0.2,0.8
		c-0.2,0.3-0.5-0.4-0.5-0.4c-0.1-0.1-0.3-0.5-0.9-0.7C86.2,107.8,85.6,107.3,85.6,107.3"/>
	<path class="st0" d="M89.1,118.2c0,0,0.3-0.7,0.6-1.2c0.4-0.4,0.3-0.9,0.3-1c0,0-0.2-0.8,0.2-0.6c0.3,0.1,0.3,0.8,0.3,0.8
		c0,0.1,0.1,0.6-0.3,1c-0.4,0.4-0.6,1.2-0.6,1.2s-0.2,0.7-0.2,1.3c0,0.6-0.3,0.9-0.4,1c0,0-0.4,0.6-0.7,0.5
		c-0.4-0.1,0.2-0.6,0.2-0.6c0.1-0.1,0.4-0.5,0.4-1C88.9,118.9,89.1,118.2,89.1,118.2"/>
	<path class="st0" d="M79.9,124.8c0,0,0.8,0,1.3,0.2c0.5,0.2,1,0,1.1-0.1c0,0,0.7-0.4,0.6,0c0,0.3-0.6,0.5-0.6,0.5
		c-0.1,0-0.5,0.2-1.1,0c-0.5-0.2-1.3-0.2-1.3-0.2s-0.8,0-1.3,0.2c-0.5,0.2-0.9,0-1.1,0c0,0-0.7-0.2-0.7-0.5c0-0.4,0.7,0,0.7,0
		c0.1,0,0.6,0.2,1.1,0.1C79.1,124.9,79.9,124.8,79.9,124.8"/>
	<path class="st0" d="M70.7,118.2c0,0,0.2,0.7,0.2,1.3c0,0.6,0.3,0.9,0.4,1c0,0,0.6,0.5,0.3,0.6c-0.3,0.1-0.7-0.5-0.7-0.5
		c-0.1-0.1-0.4-0.5-0.4-1c0-0.5-0.2-1.3-0.2-1.3s-0.3-0.7-0.6-1.2c-0.3-0.5-0.3-0.9-0.3-1c0,0,0-0.7,0.3-0.8
		c0.3-0.1,0.1,0.6,0.1,0.6c0,0.1-0.1,0.6,0.3,1C70.5,117.5,70.7,118.2,70.7,118.2"/>
	<path class="st6" d="M79.9,113.3c-1,0-1.9,0.8-1.9,1.9c0,1.1,0.8,1.9,1.9,1.9c1,0,1.9-0.8,1.9-1.9
		C81.8,114.1,80.9,113.3,79.9,113.3"/>
	<path class="st7" d="M79.9,113.3c-1,0-1.9,0.8-1.9,1.9c0,1.1,0.8,1.9,1.9,1.9c1,0,1.9-0.8,1.9-1.9
		C81.8,114.1,80.9,113.3,79.9,113.3z"/>
	<path class="st0" d="M83.4,79.3l0.2,5.1l4.3-2.8l1.3,2.2l-5.1,2.9v1.1c0,0,5.9,3.3-1.3,3.2l0,0c-2.5,2.1-4.9,0-4.9,0
		c-7.2,0.1-1.3-3.2-1.3-3.2v-1.1l-4.5-3.5l1.1-2.3l4,3.4l0.2-5.1L83.4,79.3"/>
	<path class="st8" d="M88.8,83.6c4.2,4.7,7.2-0.3,7.2-0.3c5.2-1.3,2.1-5,2.1-5c5.5-3.6-1-6.4-1-6.4c0-4.8-4.1-4.4-4.1-4.4
		c-4.2-3.7-8.3,0.4-8.3,0.4c-6.3-5.3-11.2,0.8-11.2,0.8s-4.1-2.8-5.9,1.6c0,0-6.5-0.2-4,6.3c0,0-5,5,1.5,7.5c0,0,3.5,6.4,8.2,0.3
		c0,0,2.9,0.2,2.5-3.9c0,0,3.7,1.5,7.2-0.2c0,0,1.1,2.5,3.5,1.1c0,0-0.4,1.6,2,2L88.8,83.6"/>
	<path class="st9" d="M88.8,83.6c4.2,4.7,7.2-0.3,7.2-0.3c5.2-1.3,2.1-5,2.1-5c5.5-3.6-1-6.4-1-6.4c0-4.8-4.1-4.4-4.1-4.4
		c-4.2-3.7-8.3,0.4-8.3,0.4c-6.3-5.3-11.2,0.8-11.2,0.8s-4.1-2.8-5.9,1.6c0,0-6.5-0.2-4,6.3c0,0-5,5,1.5,7.5c0,0,3.5,6.4,8.2,0.3
		c0,0,2.9,0.2,2.5-3.9c0,0,3.7,1.5,7.2-0.2c0,0,1.1,2.5,3.5,1.1c0,0-0.4,1.6,2,2L88.8,83.6z"/>
	<path class="st10" d="M33.2,124.5l0.3,0.3c-1.1,1.9-1.2,3.3-0.5,3.9c0.5,0.5,1.2,0.3,1.9-0.5c0.3-0.3,0.5-0.7,0.5-1
		c0-0.4-0.3-0.9-0.6-1.5c-0.6-1.3-0.6-2.4,0.5-3.7c1.1-1.3,2.6-1.7,3.6-0.9c0.4,0.4,0.6,0.9,0.7,1.5l0.7-0.2l0.3,0.2l-2.3,2.8
		l-0.3-0.3c0.9-1.8,1.1-2.9,0.4-3.5c-0.5-0.5-1.2-0.3-1.8,0.4c-0.7,0.9-0.3,1.3,0.2,2.4c0.3,0.6,0.5,1,0.4,1.7
		c-0.1,0.6-0.5,1.3-1.1,2c-1.2,1.4-2.7,1.8-3.7,1c-0.5-0.4-0.7-1-0.7-1.8l-0.9,0.3l-0.3-0.2L33.2,124.5"/>
	<path class="st10" d="M41.7,125.5c1-0.5,1.9-0.5,2.7,0.1c0.8,0.5,1.1,1.3,1,2.5c-0.1,1.1-0.6,2.2-1.4,3.4c-0.8,1.2-1.6,1.9-2.7,2.4
		c-1.1,0.5-2,0.5-2.8,0c-0.8-0.5-1.1-1.3-1-2.5c0.1-1.2,0.5-2.2,1.4-3.4C39.8,126.8,40.8,125.9,41.7,125.5 M39,133.3
		c0.8,0.6,2-0.4,3.7-2.8c1.7-2.4,2.1-3.8,1.3-4.4c-0.8-0.5-2,0.4-3.7,2.8C38.6,131.3,38.2,132.7,39,133.3z"/>
	<path class="st10" d="M50.1,130.1l-0.4-0.2c-0.3-0.2-0.4,0-0.7,0.4l-2.3,4.3c-0.8,1.6-0.9,2.5,0,3c0.4,0.2,0.8,0.2,1.2,0
		c0.6-0.3,1-1,1.6-2.1l1.7-3.1c0.5-0.9,0.6-1.4,0-1.7c0,0,0,0,0,0l0.3-0.6l2,1.1l-0.3,0.6c-0.6-0.2-0.9,0.1-1.4,1l-1.7,3.2
		c-0.5,0.9-0.9,1.6-1.5,2.1c-0.9,0.7-1.7,0.8-2.6,0.3c-1.4-0.7-1.6-2.1-0.6-4l2.5-4.7c0.3-0.5,0.3-0.7,0-0.8l-0.4-0.2l0.3-0.6
		l2.7,1.4L50.1,130.1"/>
	<path class="st10" d="M57.7,133.5c-0.3-0.1-0.4,0-0.6,0.5l-2.6,6.5c-0.2,0.5-0.2,0.7,0.1,0.8l0.4,0.2l-0.3,0.7l-2.9-1.1l0.3-0.7
		l0.4,0.2c0.3,0.1,0.4,0,0.6-0.5l2.6-6.5c0.2-0.5,0.2-0.7-0.1-0.8c-0.6-0.2-1.5,0.6-2.3,2.3l-0.4-0.1l1.5-3.4l5,2l-1.2,3.5l-0.4-0.1
		C58.3,134.9,58.3,133.7,57.7,133.5"/>
	<path class="st10" d="M61.9,143.6c0.3,0.1,0.4,0,0.6-0.6l0.8-3.1l-2.1-0.6l-0.8,3.1c-0.1,0.5-0.1,0.7,0.2,0.8l0.4,0.1l-0.2,0.7
		l-3-0.8l0.2-0.7l0.4,0.1c0.3,0.1,0.4,0,0.6-0.6l1.8-6.7c0.2-0.5,0.1-0.7-0.2-0.8l-0.4-0.1l0.2-0.7l3,0.8l-0.2,0.7l-0.4-0.1
		c-0.3-0.1-0.4,0.1-0.6,0.6l-0.7,2.8l2.1,0.6l0.7-2.8c0.1-0.5,0.1-0.7-0.2-0.8l-0.4-0.1l0.2-0.7l3,0.8l-0.2,0.7l-0.4-0.1
		c-0.3-0.1-0.4,0.1-0.6,0.6l-1.8,6.7c-0.1,0.5-0.1,0.7,0.2,0.8l0.4,0.1l-0.2,0.7l-3-0.8l0.2-0.7L61.9,143.6"/>
	<path class="st10" d="M69.8,145.2l0.4,0c0.2,0,0.2-0.1,0.3-0.3c0-0.1,0-0.2,0-0.4l-0.1-1.6l-2.1-0.3l-0.3,0.7
		c-0.1,0.2-0.2,0.5-0.2,0.7c-0.1,0.6,0.1,0.8,0.7,1l-0.1,0.7l-2.3-0.3l0.1-0.7c0.5-0.1,0.9-0.6,1.3-1.6l3-7l0.6,0.1l1,8.8
		c0,0.4,0.2,0.6,0.4,0.6l-0.1,0.7l-2.7-0.4L69.8,145.2 M68.6,141.9l1.6,0.3l-0.3-3.4L68.6,141.9z"/>
	<path class="st10" d="M75.8,144.1c0,1.2,0.1,1.7,0.9,1.7l0,0.7l-2.3-0.1v-0.7c0.7,0,0.9-0.5,0.9-1.7l0.1-5.8c0-0.5,0-0.7-0.4-0.7
		l-0.4,0l0-0.7l2.6,0.1l1.1,5.8l1.3-5.8l2.6,0.1l0,0.7l-0.4,0c-0.3,0-0.4,0.2-0.4,0.7l-0.2,6.9c0,0.5,0,0.7,0.4,0.7l0.4,0l0,0.7
		l-3-0.1l0-0.7h0.4c0.3,0,0.4-0.2,0.4-0.7l0.2-7.3l-2,8.7l-0.4,0l-1.7-8.7L75.8,144.1"/>
	<path class="st10" d="M86.7,145.6l0.5,0l0.1,0.7l-3.2,0.3l-0.1-0.7l0.4,0c0.4,0,0.4-0.2,0.3-0.7l-0.7-6.9c0-0.5-0.1-0.7-0.5-0.7
		l-0.4,0l-0.1-0.7l3.5-0.3c1.5-0.1,2.3,0.7,2.5,2.5c0.2,1.9-0.6,2.9-2.4,3.1c-0.2,0-0.5,0-0.8,0.1l0.3,2.8
		C86.3,145.5,86.4,145.6,86.7,145.6 M85.9,141.4c0.1,0,0.2,0,0.4,0c1.1-0.1,1.5-0.6,1.3-2.2c-0.1-1.6-0.6-2-1.5-1.9
		c-0.5,0.1-0.6,0.2-0.5,0.9L85.9,141.4z"/>
	<path class="st10" d="M93.9,136c-0.3,0-0.3,0.2-0.2,0.7l1.4,6.9c0.1,0.5,0.2,0.7,0.5,0.6l0.4-0.1l0.1,0.7l-3,0.6l-0.2-0.7l0.4-0.1
		c0.3-0.1,0.4-0.2,0.3-0.8l-1.4-6.9c-0.1-0.5-0.2-0.7-0.5-0.6c-0.6,0.1-0.9,1.3-0.7,3.2l-0.4,0.1l-0.6-3.6l5.2-1.1l0.9,3.6l-0.4,0.1
		C95.3,136.9,94.6,135.9,93.9,136"/>
	<path class="st10" d="M97.7,135.7c0.2-1.1,0.8-1.8,1.7-2.1c0.9-0.3,1.7-0.1,2.6,0.7c0.8,0.7,1.4,1.8,1.9,3.2
		c0.5,1.4,0.6,2.5,0.3,3.6c-0.2,1.2-0.8,1.9-1.7,2.2c-0.9,0.3-1.7,0-2.6-0.8c-0.9-0.8-1.4-1.7-1.9-3.1
		C97.6,138,97.5,136.7,97.7,135.7 M102.3,142.6c0.9-0.3,0.9-1.8,0-4.6c-0.9-2.8-1.8-4-2.7-3.7c-0.9,0.3-0.9,1.8,0,4.6
		C100.5,141.7,101.4,142.9,102.3,142.6z"/>
	<path class="st10" d="M107.2,140.7c0.6-0.4,0.5-0.9,0-1.9l-2.5-5.3l-0.3-0.2c-0.3-0.2-0.4-0.3-0.7-0.2l-0.1,0l-0.3-0.6l1.9-0.9
		l5.4,4.2l-1.5-3.3c-0.5-1.2-0.9-1.5-1.6-1.2l-0.3-0.7l2.1-1l0.3,0.6c-0.6,0.3-0.6,0.8,0,1.9l3.1,6.7l-0.5,0.2l-6.6-5.2l2.1,4.5
		c0.5,1.1,0.9,1.5,1.6,1.2l0.3,0.6l-2.1,1L107.2,140.7"/>
	<path class="st10" d="M119.4,127.5l-0.3,0.2c-1.4-1.5-2.3-1.8-3.3-1.1c-0.4,0.3-0.5,0.4-0.1,0.9l1.6,2.4c0,0,0.1,0,0.1-0.1
		c0.6-0.4,0.5-1-0.1-2.2l0.3-0.2l2.5,3.7l-0.3,0.2c-0.9-1.1-1.4-1.3-2-0.9c0,0-0.1,0.1-0.1,0.1l1.8,2.7c0.3,0.4,0.4,0.5,0.7,0.4
		l0.5-0.3l0.4,0.6l-2.7,1.8l-0.4-0.6l0.3-0.2c0.3-0.2,0.2-0.4,0-0.8l-3.9-5.7c-0.3-0.5-0.5-0.6-0.7-0.4l-0.3,0.2l-0.4-0.6l4.4-3
		L119.4,127.5"/>
	<path class="st10" d="M127.3,129.4c-0.5,0.5-1.2,0.6-2,0.4c-1.2-0.2-2.5-1.1-3.6-2.4c-0.9-1-1.5-2.1-1.7-3.2c-0.3-1.2,0-2,0.7-2.7
		c0.4-0.4,1-0.5,1.6-0.4l-0.1-0.8l0.3-0.2l2.6,2.9l-0.3,0.3c-1.7-1.5-2.9-1.9-3.6-1.3c-0.8,0.7-0.3,2,1.7,4.3c1.9,2.3,3.1,3,4,2.2
		c0.7-0.6,0.5-1.7-0.5-3.4l0.5-0.1C128.2,127,128.3,128.6,127.3,129.4"/>
	<path class="st2" d="M23.4,47.6l1.5,3.2l-4.3,1.2l1.4,2.7l4.3-1.2l1.4,2.7l-4.3,1.2l1.3,2.7l4.4-1.2l1.4,2.7L26,62.7l1.4,2.7
		l4.4-1.2l1.9,3.7c0.8-0.2,1.6-0.5,2.4-0.8L25.9,46.8C25.1,47.2,24.3,47.4,23.4,47.6"/>
	<path class="st2" d="M35.3,48.7c-0.3-1.4,3-3.2,5.6-5.3l-3.5-7c-1.4,0.8-2.9,1.9-4.4,3.6c-0.4,0.4-0.8,0.9-1.1,1.3L35.3,48.7"/>
	<path class="st3" d="M43.1,36.3c-0.8-1.1-3-1.3-5.7,0.1l3.5,7C43.3,41.4,45.1,39.1,43.1,36.3"/>
	<path class="st3" d="M25.9,46.8L36,67.1c2.8-1.2,5.2-2.8,6-4.1l-4.4-9.3l-2.2-4.6c-0.1-0.1-0.2-0.3-0.2-0.4l-3.4-7.3
		C30.1,43.5,28.7,45.6,25.9,46.8"/>
	<path class="st3" d="M23.4,47.6c-1.4,0.2-3,0.3-4.9,0.1l2.1,4.2l4.3-1.2L23.4,47.6"/>
	<polyline class="st3" points="26.3,53.4 21.9,54.6 23.3,57.3 27.6,56.1 26.3,53.4 	"/>
	<polyline class="st3" points="29,58.8 24.6,60 26,62.7 30.3,61.5 29,58.8 	"/>
	<path class="st3" d="M27.3,65.4l1.6,3.2c1.5,0.1,3.1-0.2,4.7-0.6l-1.9-3.7L27.3,65.4"/>
	<path class="st2" d="M40.8,43.5l1.9,3.8c1.4-1.2,2.8-2.5,4.4-3.8L43.5,37C44.8,39.5,43,41.7,40.8,43.5"/>
	<path class="st3" d="M35.5,49.1c0.1,0.1,0.2,0.3,0.4,0.4c1.9,1.4,4.2,0,6.8-2.2l-1.9-3.8C37.9,45.8,34.3,47.6,35.5,49.1"/>
	<path class="st11" d="M35.5,49.1c-2.2-2.8,12.1-6.6,7.6-12.8c-1.3-1.7-5.6-1.2-10.1,3.8c-3.5,3.8-5,8.4-14.5,7.6l10.5,20.9
		c5.3,0.3,11.7-3.3,13.1-5.5L35.5,49.1z"/>
	<path class="st11" d="M47.1,43.5c-4.5,3.8-8.2,8.1-11.2,6c-0.2-0.1-0.3-0.3-0.4-0.4c-2.1-2.7,11-6.3,8-12.1L47.1,43.5z"/>
	<path class="st2" d="M135.6,47.6l-1.5,3.2l4.3,1.2l-1.3,2.7l-4.3-1.2l-1.4,2.7l4.3,1.2l-1.3,2.7l-4.4-1.2l-1.4,2.7l4.4,1.2
		l-1.4,2.7l-4.4-1.2l-1.9,3.7c-0.8-0.2-1.6-0.5-2.4-0.8l10.2-20.3C133.8,47.2,134.7,47.4,135.6,47.6"/>
	<path class="st2" d="M123.7,48.7c0.3-1.4-3-3.2-5.6-5.3l3.5-7c1.4,0.8,2.9,1.9,4.4,3.6c0.4,0.4,0.7,0.9,1.1,1.3L123.7,48.7"/>
	<path class="st3" d="M115.9,36.3c0.9-1.1,3-1.3,5.7,0.1l-3.5,7C115.7,41.4,113.8,39.1,115.9,36.3"/>
	<path class="st3" d="M133.1,46.8l-10.2,20.3c-2.8-1.2-5.2-2.8-6-4.1l6.5-13.9c0.1-0.1,0.2-0.3,0.2-0.4l3.4-7.3
		C128.8,43.5,130.3,45.6,133.1,46.8"/>
	<path class="st3" d="M135.6,47.6c1.4,0.2,3,0.3,4.9,0.1l-2.1,4.2l-4.3-1.2L135.6,47.6"/>
	<polyline class="st3" points="132.7,53.4 137.1,54.6 135.7,57.3 131.4,56.1 132.7,53.4 	"/>
	<polyline class="st3" points="130,58.8 134.4,60 133,62.7 128.6,61.5 130,58.8 	"/>
	<path class="st3" d="M131.7,65.4l-1.6,3.2c-1.5,0.1-3.1-0.2-4.7-0.6l1.9-3.7L131.7,65.4"/>
	<path class="st2" d="M118.2,43.5l-1.9,3.8c-1.4-1.2-2.8-2.5-4.4-3.8l3.6-6.4C114.2,39.5,115.9,41.7,118.2,43.5"/>
	<path class="st3" d="M123.5,49.1c-0.1,0.1-0.3,0.3-0.4,0.4c-2,1.4-4.2,0-6.8-2.2l1.9-3.8C121,45.8,124.7,47.6,123.5,49.1"/>
	<path class="st11" d="M123.5,49.1c2.2-2.8-12.1-6.6-7.6-12.8c1.3-1.7,5.6-1.2,10.1,3.8c3.5,3.8,5,8.4,14.5,7.6l-10.5,20.9
		c-5.3,0.3-11.7-3.3-13.1-5.5L123.5,49.1z"/>
	<path class="st11" d="M111.9,43.5c4.5,3.8,8.2,8.1,11.2,6c0.2-0.1,0.3-0.3,0.4-0.4c2.1-2.7-11-6.3-8-12.1L111.9,43.5z"/>
	<path class="st2" d="M92.5,42.8c-0.9,0.8-2.6,1.8-4.4,2.9v14.4c2-1.2,4.1-2.6,6.1-3.6v-15C93.6,42,93,42.4,92.5,42.8"/>
	<path class="st2" d="M102.3,38.9c-0.1,0-0.2,0-0.3,0L100,54.5c0.1,0,0.2,0,0.3,0c1.7,0,3.3,0.6,4.7,1.4l4.6-14.2
		C107.3,40.1,104.9,38.9,102.3,38.9"/>
	<path class="st2" d="M123.1,49.5c-1.9,1.4-4.2,0-6.8-2.1l-6,12.6c2.4,2.1,4.6,3.9,6.7,3.1l6.5-13.9
		C123.4,49.3,123.2,49.4,123.1,49.5"/>
	<path class="st2" d="M35.9,49.5c-0.2-0.1-0.3-0.3-0.4-0.4L42,63c2.1,0.8,4.2-1,6.7-3.1l-6-12.6C40.1,49.5,37.8,50.9,35.9,49.5"/>
	<path class="st2" d="M79.5,49.5c-0.6,0-1.4-0.2-2.3-0.5v14.5c0.8,0.3,1.6,0.5,2.3,0.5c0.7,0,1.5-0.2,2.3-0.5V48.9
		C80.9,49.3,80.1,49.5,79.5,49.5"/>
	<path class="st2" d="M56.7,38.9c-2.6,0-5,1.2-7.3,2.8L54,55.9c1.5-0.8,3-1.4,4.7-1.4c0.1,0,0.2,0,0.2,0l-2.1-15.6
		C56.9,38.9,56.8,38.9,56.7,38.9"/>
	<path class="st2" d="M66.4,42.8c-0.4-0.3-1-0.8-1.7-1.2v15c2,1.1,4,2.4,6.1,3.6V45.7C69,44.6,67.4,43.5,66.4,42.8"/>
	<path class="st3" d="M70.8,45.7v14.4c2.3,1.4,4.5,2.7,6.4,3.3V48.9C75.3,48.3,72.9,47,70.8,45.7"/>
	<path class="st3" d="M56.9,38.9L59,54.5c1.6,0.1,3.6,0.9,5.7,2.1v-15C62.8,40.3,59.9,39,56.9,38.9"/>
	<path class="st3" d="M42.7,47.4l6,12.6c1.6-1.4,3.4-3,5.4-4.1l-4.6-14.2C47,43.4,44.7,45.7,42.7,47.4"/>
	<path class="st3" d="M81.8,48.9v14.5c1.9-0.6,4.1-1.9,6.4-3.3V45.7C86.1,47,83.7,48.3,81.8,48.9"/>
	<path class="st3" d="M94.3,41.6v15c2.1-1.1,4.1-2,5.7-2.1l2.1-15.6C99,39,96.2,40.3,94.3,41.6"/>
	<path class="st3" d="M109.6,41.7l-4.6,14.2c1.9,1.1,3.7,2.6,5.4,4.1l6-12.6C114.3,45.7,112,43.4,109.6,41.7"/>
	<path class="st11" d="M79.5,63.9c5.2,0,15.2-9.5,20.7-9.5c7.3,0,12.3,10.2,16.7,8.6l6.5-13.9c-0.1,0.1-0.3,0.3-0.4,0.4
		c-4.9,3.5-11.9-10.6-20.8-10.6c-4.1,0-8,2.6-9.7,3.9c-2.6,2.1-10.1,6.7-13.1,6.7c-2.9,0-10.5-4.6-13.1-6.7
		c-1.7-1.3-5.6-3.9-9.7-3.9c-8.9,0-15.9,14.1-20.8,10.6c-0.2-0.1-0.3-0.3-0.4-0.4L42,63c4.5,1.7,9.5-8.6,16.8-8.6
		C64.2,54.5,74.3,63.9,79.5,63.9z"/>
	<path class="st0" d="M79.7,35.3c13.5,0,24.4-5.9,24.4-13.2c0-7.3-10.9-13.2-24.4-13.2c-13.5,0-24.4,5.9-24.4,13.2
		C55.3,29.4,66.2,35.3,79.7,35.3"/>
	<path class="st1" d="M79.7,35.3c13.5,0,24.4-5.9,24.4-13.2c0-7.3-10.9-13.2-24.4-13.2c-13.5,0-24.4,5.9-24.4,13.2
		C55.3,29.4,66.2,35.3,79.7,35.3z"/>
	<path class="st10" d="M79.7,33.1c12,0,21.7-5,21.7-11.1c0-6.1-9.7-11.1-21.7-11.1c-12,0-21.7,5-21.7,11.1
		C58,28.2,67.7,33.1,79.7,33.1"/>
	<path class="st12" d="M79.7,33.1c12,0,21.7-5,21.7-11.1c0-6.1-9.7-11.1-21.7-11.1c-12,0-21.7,5-21.7,11.1
		C58,28.2,67.7,33.1,79.7,33.1z"/>
	<path class="st2" d="M79.8,30.5c9.8,0,17.7-3.2,17.7-7.1c0-3.9-7.9-7.1-17.7-7.1c-9.8,0-17.7,3.2-17.7,7.1
		C62.1,27.3,70,30.5,79.8,30.5"/>
	<path class="st13" d="M79.8,30.5c9.8,0,17.7-3.2,17.7-7.1c0-3.9-7.9-7.1-17.7-7.1c-9.8,0-17.7,3.2-17.7,7.1
		C62.1,27.3,70,30.5,79.8,30.5z"/>
	<path class="st2" d="M79.7,18.4c-9.4,0-17,7.6-17,17c0,9.4,7.6,17,17,17h-0.2c9.4,0,17-7.6,17-17c0-9.4-7.6-17-17-17H79.7"/>
	<path class="st11" d="M79.7,18.4c-9.4,0-17,7.6-17,17c0,9.4,7.6,17,17,17h-0.2c9.4,0,17-7.6,17-17c0-9.4-7.6-17-17-17H79.7z"/>
	<path class="st0" d="M76.9,49.5l-3.5-5.9l-6.4-1l-1.6,2c0.1,0.1,0.1,0.2,0.2,0.3l0.3,0.4c2.1,3,5.2,5.3,8.9,6.5l0.7,0.1L76.9,49.5"
		/>
	<polyline class="st0" points="72.5,33 75.2,41.5 83.9,41.5 86.7,33 79.6,27.9 72.5,33 	"/>
	<path class="st0" d="M79.6,24.5L79.6,24.5l5.3-3.5v-1.7c-1.7-0.6-3.4-0.9-5.3-0.9c-1.8,0-3.6,0.3-5.3,0.9V21L79.6,24.5"/>
	<path class="st0" d="M69.8,30.3l0.2-6.8l-1.4-1.1c-0.7,0.6-1.4,1.3-2,2l-0.1,0.1c-1.9,2.4-3.2,5.3-3.7,8.4l1.5,0.7L69.8,30.3"/>
	<path class="st0" d="M85.8,43.5l-3.5,5.9l1.5,2.3l0.6-0.1c3.7-1.1,6.9-3.5,9-6.6l0.1-0.2c0.1-0.1,0.2-0.3,0.2-0.4l-1.6-2L85.8,43.5
		"/>
	<path class="st0" d="M89.4,30.3l5.4,3.4l1.5-0.7c-0.4-3.2-1.7-6.1-3.7-8.5l0,0c-0.6-0.7-1.3-1.4-2-2l-1.4,1.1L89.4,30.3"/>
</g>
</svg>
