<?xml version="1.0" encoding="utf-8"?>
<!-- Generator: Adobe Illustrator 19.1.0, SVG Export Plug-In . SVG Version: 6.00 Build 0)  -->
<svg version="1.1" id="Layer_1" xmlns="http://www.w3.org/2000/svg" xmlns:xlink="http://www.w3.org/1999/xlink" x="0px" y="0px"
	 viewBox="0 0 250 250" style="enable-background:new 0 0 250 250;" xml:space="preserve">
<style type="text/css">
	.st0{fill-rule:evenodd;clip-rule:evenodd;fill:#FFFFFF;}
	.st1{fill-rule:evenodd;clip-rule:evenodd;fill:#1B449C;}
	.st2{fill-rule:evenodd;clip-rule:evenodd;fill:#E03A3E;}
	.st3{fill-rule:evenodd;clip-rule:evenodd;fill:#E03A3E;stroke:#E03A3E;stroke-width:0.6565;}
	.st4{fill:none;stroke:#1B449C;stroke-width:0.7493;}
	.st5{fill:none;stroke:#1B449C;stroke-width:0.7567;}
	.st6{fill-rule:evenodd;clip-rule:evenodd;fill:#1B449C;stroke:#1B449C;stroke-width:0.6274;}
	.st7{fill-rule:evenodd;clip-rule:evenodd;fill:#1B449C;stroke:#1B449C;stroke-width:0.6755;}
</style>
<g>
	<path class="st0" d="M221.9,169.9L221.9,169.9l-10-8.7l-2.1-1.9c-2-2-5.1-4.5-10.4-4.3c-0.9,0-1.7,0.1-2.6,0.2
		c0.9-4.2,1.6-8.7,2-13.3c0.3-3.2,0.4-6.5,0.5-9.6c0-0.1,0-1.2,0-1.2l-0.1-2.5l0,0.2V5.5H46.4v123.1l0-0.2l-0.1,2.5l0,1.2
		c0,3.1,0.2,6.3,0.5,9.6c0.4,4.7,1.1,9.1,2,13.3c-0.8-0.1-1.6-0.2-2.5-0.2c-5.3-0.2-8.4,2.3-10.4,4.3l-2.1,1.9l-9.9,8.7l-0.1,0.1
		c-3.4,3.4-3.8,6.7-3.4,8.9c0.9,6.2,8.8,10.8,9.6,11.3l4.6-3.6c3.3-1.3,5.2,0.5,5.2,0.5c0.3,0.2,1.4,1.1,2.1,4.7l0.4,2.1
		c-2.6,2.2-4.4,3.8-4.4,3.8l1.6,2.3c4.6,6.7,6.3,8.7,9.3,12.1c19.8,22.3,45.3,34.1,73.8,34.1h0.5c28.5,0,54-11.8,73.8-34.1
		c3-3.3,4.7-5.4,9.3-12l1.6-2.3c0,0-1.8-1.5-4.3-3.7l0.4-2.2c0.7-3.6,1.8-4.5,2.1-4.7c0,0,1.9-1.8,5.2-0.5l4.6,3.6
		c0.8-0.4,8.7-5,9.6-11.3C225.7,176.6,225.3,173.3,221.9,169.9L221.9,169.9z"/>
	<path class="st1" d="M210,162.8c0,0,5,10.7-10.2,11.9l15.7,12.3c0,0,12.6-7.3,4.7-15.2L210,162.8L210,162.8z"/>
	<path class="st2" d="M206.8,169.8c2.8-2.9,0.1-7.8,0.1-7.8s-2.4-4.5-7.3-4.3c-1.2,0-2.4,0.2-3.6,0.6c-1,4-2.2,7.7-3.7,11.1l0,0
		c-0.2,0.5-1.9,4.7-5.3,10.4c0.4,0.4,1,0.9,1.8,1.6l11.8,10.2c1.5-10,7.1-7.5,7.1-7.5l-13.2-10.5
		C204.6,173.1,206.8,169.8,206.8,169.8L206.8,169.8z"/>
	<path class="st1" d="M35.6,163c0,0-5,10.7,10.2,11.9l-15.7,12.3c0,0-12.6-7.3-4.7-15.2L35.6,163L35.6,163z"/>
	<path class="st2" d="M38.7,169.9c-2.8-2.9-0.1-7.8-0.1-7.8s2.4-4.5,7.3-4.3c1.2,0,2.4,0.2,3.6,0.6c1,4,2.2,7.7,3.7,11.1l0,0
		c0.2,0.5,1.9,4.7,5.3,10.4c-0.4,0.4-1,0.9-1.8,1.6l-11.8,10.2c-1.5-10-7.1-7.5-7.1-7.5L51,173.6C41,173.2,38.7,169.9,38.7,169.9
		L38.7,169.9z"/>
	<path class="st1" d="M183.1,180.4c4.3-6.7,6.4-11.8,6.5-12.1l-0.1,0.1c3.3-7.6,5.4-16.7,6.3-26.9c0.3-3.1,0.4-6.3,0.4-9.3
		c0-0.4,0-0.8,0-1.2c0-0.9,0-1.6-0.1-2.3c0-0.2,0-120,0-120H49.5c0,0,0,119.8,0,120c0,0.7-0.1,1.4-0.1,2.3c0,0.4,0,0.8,0,1.2
		c0,3,0.2,6.2,0.4,9.3c0.9,10.1,3,19.1,6.2,26.7c0.3,0.6,2.3,5.6,6.4,12.1L42,198.1c4.5,6.6,6.2,8.6,9.1,11.7
		c19.2,21.6,43.9,33.1,71.5,33.1h0.5c27.6,0,52.3-11.4,71.5-33.1c2.8-3.2,4.5-5.1,9.1-11.7L183.1,180.4L183.1,180.4z"/>
	<path class="st0" d="M122.8,15.4H56.2v113.4c0,0-1.1,20.1,6.1,37c0,0,17.1,43.5,60.3,43.5h0.2c43.2,0,60.5-43.5,60.5-43.5
		c7.2-16.9,6.1-37,6.1-37V15.4H122.8L122.8,15.4z"/>
	<polygon class="st2" points="110.4,79.8 135,79.8 135,176 110.4,176 110.4,79.8 	"/>
	<path class="st2" d="M90.2,43.5V27.3c-3.3,0.2-6.4,1-9.4,2.3l1.9-6h23.8L104,29c-2.1-1-4.3-1.6-7.1-1.6v16.2c0,2.6,0.3,4.8,1.4,7
		h-9.5C89.9,48.3,90.2,46.1,90.2,43.5L90.2,43.5z"/>
	<path class="st2" d="M136.2,43.5V30.6c0-2.6-0.3-4.8-1.4-7h9.5c-1,2.2-1.4,4.4-1.4,7v5.2l8.2-9.3c0.8-0.9,1.2-1.7,1.2-2.6
		c0-0.1,0-0.2,0-0.3H163c-2.5,1.6-4.5,3-5.8,4.4l-7.1,7.6l9.6,11.3c0.9,1.1,2.1,2.2,3.7,3.6h-10.6c0-0.3,0.1-0.6,0.1-0.9
		c0-1.1-0.5-1.9-1.3-2.9L143,36.3v7.2c0,2.6,0.3,4.8,1.4,7h-9.5C135.9,48.3,136.2,46.1,136.2,43.5L136.2,43.5z"/>
	<path class="st2" d="M166,43.5V30.6c0-2.6-0.3-4.8-1.4-7H183l-3,5.3c-1.9-0.7-4.3-1.1-7.2-1.2v7.4h9.3l-3.5,4.9
		c-1.3-0.8-3.1-1.2-5.2-1.2c-0.2,0-0.4,0-0.6,0v7.7c0.9,0,1.8,0.1,2.7,0.1c3.8,0,7.1-0.4,9.7-1.4l-2.6,5.4h-18
		C165.7,48.3,166,46.1,166,43.5L166,43.5z"/>
	<path class="st3" d="M102.6,59.2c-3.7,0-6.3,2.4-6.3,6.3c0,3.9,2.7,6.4,6.8,6.4c2.3,0,4-0.8,5.5-2.4l-0.6,4.1c-2,0.7-4,1.1-6.2,1.1
		c-2.5,0-4.6-0.6-6.3-1.7c-2.6-1.7-3.8-3.9-3.8-6.8c0-3,1.4-5.6,3.9-7.4c2.2-1.6,4.9-2.4,7.9-2.4c1.5,0,3.1,0.2,4.8,0.7v4.5
		C106.5,60,104.7,59.2,102.6,59.2L102.6,59.2L102.6,59.2z"/>
	<path class="st3" d="M112.1,69.8v-8.6c0-1.7-0.2-3.2-0.9-4.7h6.1c-0.7,1.4-0.9,3-0.9,4.7v8.6c0,1.7,0.2,3.2,0.9,4.7h-6.1
		C111.9,73,112.1,71.5,112.1,69.8L112.1,69.8L112.1,69.8z"/>
	<path class="st3" d="M124.9,69.8V59c-2.1,0.1-4.1,0.6-6,1.5l1.2-4h15.3l-1.6,3.5c-1.3-0.7-2.8-1-4.5-1.1v10.8
		c0,1.7,0.2,3.2,0.9,4.7h-6.1C124.7,73,124.9,71.5,124.9,69.8L124.9,69.8L124.9,69.8z"/>
	<path class="st3" d="M148.9,74.4h-6.1c0.7-1.4,0.9-3,0.9-4.7v-3.7l-4.6-6.5c-0.7-1-1.6-2-2.5-3h6.1c0,0.1,0,0.3,0,0.4
		c0,0.4,0.1,0.8,0.3,1.1l3.1,4.6l2.6-4.3c0.2-0.4,0.4-0.9,0.4-1.3c0-0.2,0-0.4-0.1-0.5h5.5c-1,0.9-1.9,1.9-2.7,3l-3.8,5.7v4.4
		C148,71.5,148.2,73,148.9,74.4L148.9,74.4L148.9,74.4z"/>
	<path class="st2" d="M119,26.7c-4.3,0-6.4,5-6.4,10.3c0,5.3,2,10.3,6.4,10.3c4.3,0,6.4-5,6.4-10.3C125.4,31.7,123.4,26.7,119,26.7
		L119,26.7z M133,37.1c0,8.9-6.3,13.7-14,13.7c-7.7,0-14-4.5-14-13.7c0-7.6,6.3-13.7,14-13.7C126.8,23.4,133,29.6,133,37.1L133,37.1
		L133,37.1z"/>
	<path class="st1" d="M112.2,195.5c0-3.1,0.7-4.6,2.2-4.6c1.5,0,2.2,1.5,2.2,4.6c0,3-0.8,4.6-2.2,4.6
		C112.8,200.1,112.2,198.6,112.2,195.5L112.2,195.5z M117,189.9c2-0.6,3-2.2,3-4.4c0-3.2-1.9-4.9-5.4-4.9c-3.7,0-5.8,2-5.8,4.9
		c0,2.2,1.1,3.8,3,4.4v0.2c-2.5,0.7-3.7,2.6-3.7,5.6c0,3.8,2.3,5.4,6.3,6.2c4.1,0.8,6.3-1.2,6.3-5c0-2.8-1.3-6.2-3.7-6.8V189.9
		L117,189.9z M112.3,185.7c0-2.4,0.7-3.6,2-3.6c1.5,0,2,1.1,2,3.6c0,2.4-0.7,3.5-2,3.5C113,189.3,112.3,188.1,112.3,185.7
		L112.3,185.7L112.3,185.7z"/>
	<path class="st4" d="M112.2,195.5c0-3.1,0.7-4.6,2.2-4.6c1.5,0,2.2,1.5,2.2,4.6c0,3-0.8,4.6-2.2,4.6
		C112.8,200.1,112.2,198.6,112.2,195.5L112.2,195.5L112.2,195.5z M117,189.9c2-0.6,3-2.2,3-4.4c0-3.2-1.9-4.9-5.4-4.9
		c-3.7,0-5.8,2-5.8,4.9c0,2.2,1.1,3.8,3,4.4v0.2c-2.5,0.7-3.7,2.6-3.7,5.6c0,3.8,2.3,5.4,6.3,6.2c4.1,0.8,6.3-1.2,6.3-5
		c0-2.8-1.3-6.2-3.7-6.8V189.9L117,189.9z M112.3,185.7c0-2.4,0.7-3.6,2-3.6c1.5,0,2,1.1,2,3.6c0,2.4-0.7,3.5-2,3.5
		C113,189.3,112.3,188.1,112.3,185.7L112.3,185.7L112.3,185.7z"/>
	<path class="st1" d="M126.9,190.7C126.9,190.7,126.9,190.7,126.9,190.7c0-5.2,1.1-8.2,3.4-8.2c1.1,0,1.9,0.6,2.7,1.9l0.2-0.1
		c0.1-1,0.2-2,0.4-3c-1-0.5-3.2-0.7-4.3-0.7c-5.1,0-6.8,5.8-6.8,13.6c0,6,2.3,8.9,6.5,8.2c3.8-0.6,6.2-2.8,6.2-7.3
		c0-3.8-1.8-6-4.7-6C128.8,189.1,127.6,189.7,126.9,190.7L126.9,190.7z M130.9,195.9c0,3.2-0.6,4.8-1.9,4.8c-1.3,0-2-1.6-2-5
		c0-3,0.6-4.4,1.9-4.4C130.3,191.4,130.9,192.8,130.9,195.9L130.9,195.9L130.9,195.9z"/>
	<path class="st5" d="M126.9,190.7L126.9,190.7c0-5.2,1.1-8.2,3.4-8.2c1.1,0,1.9,0.6,2.7,1.9l0.2-0.1c0.1-1,0.2-2,0.4-3
		c-1-0.5-3.2-0.7-4.3-0.7c-5.1,0-6.8,5.8-6.8,13.6c0,6,2.3,8.9,6.5,8.2c3.8-0.6,6.2-2.8,6.2-7.3c0-3.8-1.8-6-4.7-6
		C128.8,189.1,127.6,189.7,126.9,190.7L126.9,190.7L126.9,190.7z M130.9,195.9c0,3.2-0.6,4.8-1.9,4.8c-1.3,0-2-1.6-2-5
		c0-3,0.6-4.4,1.9-4.4C130.3,191.4,130.9,192.8,130.9,195.9L130.9,195.9L130.9,195.9z"/>
	<path class="st6" d="M137.7,196.7c0.7,1.3,2.5,1.4,2.5,1.4c3.7-0.2,3.3-6,3.3-6c-0.4-3-2.7-2.7-4.5-2.5c-0.3,0-0.7,0.1-1,0.1
		l0.1-2.2c0.2,0,0.4,0,0.6,0c2-0.2,3.3-0.8,3.7-2.7c0.2-1.2,0-3-2-3c-2.3,0.1-2.6,1.7-3.3,2.6l-0.3-0.1l-0.2-2.6
		c1.2-1.4,4.1-1.6,4.1-1.6c3-0.3,5.4,1.4,5.6,3.8c0.2,1.8-0.5,2.5-2.6,3.5l0,0.2c2.5-0.1,3.5,0.7,4.1,2.5
		c0.9,2.9,0.6,10.2-11.8,10.8c0,0,1-1.1,1.4-3.9L137.7,196.7L137.7,196.7z"/>
	<path class="st7" d="M106,199.7c-2.1-0.8-5.2-2.5-5.2-2.5c0.2-1.7,0.6-5.3,0.6-11.3c0-0.7-0.1-1.1-0.1-2.1c-1,0.4-0.6,0.1-1.6,0.6
		l-1.1-1.7c2.7-0.9,3.8-1,6.4-2.4l0.5,0.3c-0.1,5.4,0,8.4,0,10.1c0,2.2,0.3,5.8,0.5,8C105.9,199.3,106,199.7,106,199.7L106,199.7z"
		/>
	<path class="st2" d="M87.1,188.9c-1.9-1.7-3.8-3.5-5.6-5.5c-8.9-9.9-12.9-20-13-20.1l0-0.1l0-0.1c-5.1-11.9-5.6-25.9-5.6-31.5
		c0-1.5,0-2.4,0-2.5l0-0.2c0,0,0-20.8,0-72.8H87L87.1,188.9L87.1,188.9z"/>
	<path class="st2" d="M158.5,188.9c1.9-1.7,3.8-3.5,5.6-5.5c8.9-9.9,12.9-20,13-20.1l0-0.1l0-0.1c5.1-11.9,5.6-25.9,5.6-31.5
		c0-1.5,0-2.4,0-2.5l0-0.2c0,0,0-20.8,0-72.8h-24.1L158.5,188.9L158.5,188.9z"/>
	<path class="st0" d="M102.4,225.9c0.2,0.1,0.5,0.1,0.7,0.2c3.6,0.9,5.8-0.2,6.6-3.4c0.7-2.8-0.4-4.4-3.5-5.2
		c-1.3-0.3-2.5-0.5-3.6-0.8c-0.4-0.1-0.9-0.3-1.5-0.5c-0.5,2.8-1.1,5.3-1.7,7.6c-0.5,2-1.2,4.5-2.2,7.4c0.8,0.1,1.4,0.3,1.9,0.4
		c0.5,0.1,1.1,0.3,1.8,0.6c0.3-1.9,0.5-3,0.6-3.3L102.4,225.9L102.4,225.9z M102.7,224.3l0.9-3.4c0.1-0.6,0.3-1,0.3-1.2
		c0-0.1,0.1-0.4,0.3-1c0.4,0,0.6,0.1,0.7,0.1c1.4,0.4,1.9,1.5,1.5,3.2C105.8,224.2,104.8,224.9,102.7,224.3L102.7,224.3L102.7,224.3
		z"/>
	<path class="st0" d="M112.4,227.4c0,5,2.7,7.8,7.6,7.8c5,0,7.9-3.1,7.9-8.4c0-4.9-2.8-7.7-7.5-7.7
		C115.4,219.1,112.4,222.1,112.4,227.4L112.4,227.4z M116,227.2c0-4.2,1.6-6.6,4.1-6.6c2.5,0,4.1,2.3,4.1,6.6c0,4.2-1.6,6.5-4.1,6.6
		C117.6,233.7,116,231.4,116,227.2L116,227.2L116,227.2z"/>
	<path class="st0" d="M136.6,220.1c0.1,1.3,0.3,2.3,0.5,3.2c0.1,0.3,0.1,0.7,0.2,0.9c0.6,3.3,1.1,6.3,1.8,9.3
		c-0.9,0.1-1.5,0.1-1.9,0.2c-0.5,0.1-1.1,0.2-1.9,0.4c-0.3-2.8-0.6-5.3-1-7.7c-0.2-1.2-0.6-3.2-1.1-5.7c-1.2,0.2-2.4,0.5-3.5,0.9
		c0-0.4-0.1-0.8-0.1-1.2c0-0.2-0.1-0.5-0.2-1c2.2-0.3,4-0.5,5.3-0.8c1.3-0.2,3.1-0.6,5.3-1.1c0,0.5,0.1,0.8,0.1,1
		c0.1,0.3,0.1,0.7,0.3,1.2C139,219.8,137.8,219.9,136.6,220.1L136.6,220.1z"/>
	<path class="st0" d="M149.5,216.4c0.3,1.2,0.7,2.3,1,3c0.1,0.3,0.2,0.6,0.3,0.9c1.1,3.1,2.1,6.1,3.3,8.8c-0.9,0.2-1.5,0.4-1.8,0.5
		c-0.5,0.2-1,0.4-1.8,0.7c-0.7-2.7-1.5-5.2-2.3-7.4c-0.4-1.2-1.1-3-2-5.5c-1.2,0.4-2.3,0.9-3.3,1.5c-0.1-0.4-0.2-0.8-0.3-1.1
		c-0.1-0.2-0.2-0.5-0.4-0.9c2.1-0.6,3.8-1.2,5.1-1.6c1.3-0.4,2.9-1.1,5-1.9c0.1,0.5,0.2,0.8,0.3,1c0.1,0.3,0.3,0.7,0.4,1.1
		C151.8,215.6,150.6,216,149.5,216.4L149.5,216.4z"/>
	<path class="st0" d="M159.4,219.6c-0.2-0.5-0.5-0.9-0.8-1.4c-0.2-0.3-0.3-0.6-0.5-0.8c-1.1-2-2.2-3.9-3.5-5.8
		c1.7-0.9,2.9-1.4,3.5-1.8c0.9-0.5,2.2-1.2,3.7-2.1c0.2,0.4,0.3,0.7,0.4,0.9c0.1,0.2,0.3,0.5,0.6,0.8c-1,0.4-2,0.9-2.9,1.4
		c-0.4,0.2-0.8,0.4-1.1,0.6c0.5,1,1,2,1.5,3l0.6,1.1c0.9-0.6,2.2-1.3,3.8-2.3c0.2,0.4,0.3,0.8,0.4,1c0.1,0.2,0.3,0.5,0.6,0.9
		c-1.4,0.6-2.7,1.3-4,1.9l1.2,2.2c0.5,1,1,1.9,1.5,2.6c1.2-0.7,2.4-1.4,3.7-2.3c0.2,0.4,0.3,0.7,0.5,1c0.1,0.2,0.3,0.5,0.6,0.9
		c-2.1,1.1-3.6,1.8-4.5,2.3c-0.7,0.4-1.6,0.9-2.6,1.6C161.4,223.2,160.4,221.4,159.4,219.6L159.4,219.6z"/>
	<path class="st0" d="M174,217.7c0.5-0.5,1-0.9,1.4-1.2c0.3-0.3,0.8-0.6,1.5-1c-1-1.1-1.9-2.2-2.8-3.3l-1.8-2.3
		c3.6,1.4,6,2.6,7.5,3.4c0.6-0.5,1.1-1,1.5-1.3c0.4-0.3,1-0.7,1.8-1.3c-2.3-0.8-5-1.9-8.3-3.4c1.4-1.3,1.5-3.2,0.1-4.9
		c-1.7-2.2-3.6-2.3-6-0.4c-1.2,0.9-2.1,1.9-3.1,2.6c-0.4,0.3-0.8,0.6-1.3,0.9c2,2.1,3.6,4.2,5,5.9c0.2,0.2,0.3,0.4,0.5,0.6
		C171.1,213.6,172.5,215.4,174,217.7L174,217.7z M171.5,208.9l-1.9-2.5c-0.4-0.5-0.9-1.2-1.5-2.1c0.2-0.2,0.4-0.3,0.4-0.3
		c1.5-1.1,2.6-1,3.8,0.5C173.5,206.2,173.3,207.5,171.5,208.9C171.5,208.9,171.5,208.9,171.5,208.9L171.5,208.9L171.5,208.9z"/>
	<path class="st0" d="M183,204.1l0.2-0.3c1.7,1,3,0.9,4.2-0.3c1-1.2,1-2.4-0.1-3.3c-1-0.9-2-0.5-3.8,0.2c-2.6,1-4.2,1.4-6.1-0.3
		c-2.2-1.9-2.4-4.6-0.2-7.1c0.9-1,1.9-1.7,3.1-2.1c0.5,0.9,1.1,1.8,1.7,2.6l-0.2,0.2c-1.6-0.7-2.8-0.5-3.7,0.5c-0.9,1.1-0.8,2.3,0,3
		c1,0.9,2,0.3,4-0.5c2.4-0.9,3.9-1.3,5.9,0.4c2.4,2.1,2.5,5,0.1,7.7c-0.9,1-1.9,1.8-2.9,2.2C184.5,205.9,183.7,204.9,183,204.1
		L183,204.1z"/>
	<path class="st2" d="M77.9,36.8c-0.9-0.7-3.2-1.7-5.8-3.3c-2.1-1.2-3.7-2.2-3.6-3.7c0.1-1.6,1.5-2.9,3.9-2.8c2.5,0.1,5,1.7,6.9,4
		l-0.1-6.7c-1.7-0.5-3.4-0.8-5.2-0.8c-7.3-0.2-11.8,2.8-12,7.6c-0.1,3.1,1.9,5.1,5.7,7.2c3.4,1.9,6.3,2.8,6.4,5.2h0
		c-0.1,1.8-1.7,3.3-4.2,3.2c-2.6-0.1-5.2-1.9-7.2-4.5l0.1,7.6c1.8,0.6,4,0.9,5.9,1c7.6,0.3,12.3-3.2,12.5-8.6
		C81.1,40,80.1,38.3,77.9,36.8L77.9,36.8z"/>
	<path class="st0" d="M67,195.3c-1,0.8-1.7,1.6-2.3,2.2c-0.2,0.2-0.5,0.5-0.7,0.6c-2.4,2.3-4.6,4.5-6.6,6.8c-0.6-0.7-1-1.2-1.3-1.4
		c-0.3-0.4-0.8-0.8-1.4-1.3c2.2-1.8,4-3.5,5.7-5.2c0.9-0.9,2.3-2.3,4.1-4.2c-0.9-0.9-1.8-1.7-2.7-2.4c0.3-0.3,0.7-0.5,0.9-0.8
		c0.1-0.1,0.3-0.4,0.7-0.8c1.5,1.6,2.7,3,3.6,4c0.9,1,2.2,2.2,3.9,3.7c-0.4,0.3-0.6,0.5-0.8,0.7c-0.2,0.2-0.5,0.5-0.8,0.9
		C68.7,197.1,67.9,196.2,67,195.3L67,195.3z"/>
	<path class="st0" d="M67.7,205.8c0.2-0.2,0.4-0.5,0.6-0.7c1.4-1.7,3.1-3.7,4.8-6.1c0.6,0.6,1,1,1.3,1.3c0.4,0.3,0.9,0.7,1.6,1.1
		c-0.9,0.9-1.6,1.8-2.4,2.7l-1.6,1.9c1,0.9,1.6,1.5,2,1.8c0.6,0.5,1.4,1.1,2.3,1.8l1.6-1.9c0.8-0.9,1.5-1.9,2.2-2.9
		c0.6,0.6,1.1,1.1,1.4,1.3c0.3,0.3,0.8,0.6,1.5,1.1c-2,2.1-3.6,4.1-5.1,5.8c-0.2,0.2-0.4,0.4-0.6,0.7c-1.2,1.4-2.6,3.2-4.2,5.4
		c-0.5-0.5-1-1-1.4-1.3c-0.4-0.3-0.9-0.7-1.5-1.1c0.8-0.8,1.5-1.6,2.3-2.5L75,211c-0.8-0.8-1.6-1.4-2.2-1.9
		c-0.4-0.3-1.1-0.9-2.1-1.6l-2.6,3.1c-0.7,0.9-1.4,1.8-2,2.7c-0.6-0.6-1-1-1.4-1.3c-0.4-0.3-0.9-0.7-1.5-1.1
		C65.1,209,66.5,207.2,67.7,205.8L67.7,205.8z"/>
	<path class="st0" d="M81.8,217.4c0.2-0.5,0.5-0.9,0.7-1.4c0.2-0.3,0.3-0.6,0.5-0.8c1.1-2,2.1-4,3-6.1c1.6,1,2.8,1.6,3.4,2
		c1,0.5,2.2,1.2,3.8,1.9c-0.2,0.4-0.4,0.6-0.6,0.9c-0.1,0.2-0.2,0.5-0.4,0.9c-0.9-0.6-1.8-1.2-2.7-1.6c-0.4-0.2-0.8-0.4-1.2-0.6
		c-0.6,1-1.1,1.9-1.6,2.9l-0.6,1.1c1,0.5,2.3,1.1,4,1.9c-0.3,0.4-0.5,0.7-0.6,0.9c-0.1,0.2-0.2,0.5-0.4,1c-1.3-0.8-2.5-1.6-3.8-2.3
		l-1.2,2.2c-0.5,1-1,1.9-1.3,2.7c1.2,0.7,2.5,1.3,4,1.9c-0.2,0.4-0.4,0.6-0.6,0.9c-0.1,0.2-0.2,0.5-0.4,1c-2-1.2-3.5-2-4.4-2.5
		c-0.7-0.4-1.6-0.8-2.7-1.4C79.8,220.9,80.8,219.1,81.8,217.4L81.8,217.4z"/>
</g>
</svg>
