<?xml version="1.0" encoding="utf-8"?>
<!-- Generator: Adobe Illustrator 19.1.0, SVG Export Plug-In . SVG Version: 6.00 Build 0)  -->
<svg version="1.1" id="Layer_1" xmlns="http://www.w3.org/2000/svg" xmlns:xlink="http://www.w3.org/1999/xlink" x="0px" y="0px"
	 viewBox="0 0 160 160" style="enable-background:new 0 0 160 160;" xml:space="preserve">
<style type="text/css">
	.st0{fill-rule:evenodd;clip-rule:evenodd;}
	.st1{fill-rule:evenodd;clip-rule:evenodd;fill:#FFFFFF;}
	.st2{fill-rule:evenodd;clip-rule:evenodd;fill:#ED1C24;}
	.st3{fill-rule:evenodd;clip-rule:evenodd;fill:#D8B383;}
	.st4{fill-rule:evenodd;clip-rule:evenodd;fill:#B17925;}
	.st5{fill-rule:evenodd;clip-rule:evenodd;fill:#FFEF91;}
	.st6{fill:none;stroke:#B17925;stroke-width:0.8635;stroke-miterlimit:2.6131;}
</style>
<g>
	<polygon class="st0" points="70.3,59.1 69.1,59.1 69.1,44.1 70.3,44.1 70.3,59.1 	"/>
	<polygon class="st0" points="90.8,59.1 89.5,59.1 89.5,44.1 90.8,44.1 90.8,59.1 	"/>
	<path class="st0" d="M65,48.8c0,0,3.6,1.5,3.5,3.6c-0.1,2.1-4.8,5.7-8.3-0.1v2.3c0,0,2.7,3.6,5.8,3.2c3.1-0.4,4.3-2.5,4-5.4
		c-0.3-2.8-1.4-3.4-2.9-4.4L65,48.8L65,48.8z"/>
	<path class="st0" d="M95,48.8c0,0-3.6,1.5-3.5,3.6c0.1,2.1,4.8,5.7,8.3-0.1v2.3c0,0-2.7,3.6-5.8,3.2c-3.1-0.4-4.3-2.5-4-5.4
		c0.3-2.8,1.4-3.4,2.9-4.4L95,48.8L95,48.8z"/>
	<path class="st0" d="M60.6,41.9c0,0-2.6,0.3-3.5,3c1.5-0.3,2.4-0.4,2.4-0.4S59.2,43.5,60.6,41.9L60.6,41.9z"/>
	<path class="st1" d="M57.6,44.9c0,0,0.5-1.8,2.3-2.5c-0.6,0.9-0.7,1.7-0.7,2.3L57.6,44.9L57.6,44.9z"/>
	<path class="st2" d="M60.5,53.1c0,0,2,3,4.7,2.6c2.5-0.4,4.2-2.5,3.5-4.2c-0.7-1.7-2.9-2.7-2.9-2.7l1.3-0.4c0,0,2.5,0.9,2.6,4.4
		c0.1,3-1.6,4.8-4.3,4.7c-2.6-0.1-4.4-2.4-5-2.9L60.5,53.1L60.5,53.1z"/>
	<path class="st0" d="M99.5,41.9c0,0,2.6,0.3,3.5,3c-1.5-0.3-2.4-0.4-2.4-0.4S100.9,43.5,99.5,41.9L99.5,41.9z"/>
	<path class="st1" d="M102.5,44.9c0,0-0.5-1.8-2.3-2.5c0.6,0.9,0.7,1.7,0.7,2.3L102.5,44.9L102.5,44.9z"/>
	<path class="st2" d="M99.5,53.1c0,0-2,3-4.7,2.6c-2.5-0.4-4.2-2.5-3.5-4.2c0.7-1.7,2.9-2.7,2.9-2.7l-1.3-0.4c0,0-2.5,0.9-2.6,4.4
		c-0.1,3,1.6,4.8,4.3,4.7c2.6-0.1,4.4-2.4,5-2.9L99.5,53.1L99.5,53.1z"/>
	<path class="st0" d="M90.6,40.1c2.5,5.9-0.3,12.6-6.2,15.1c-5.9,2.4-12.7-0.3-15.1-6.2c-2.5-5.9,0.3-12.6,6.2-15.1
		C81.4,31.4,88.1,34.2,90.6,40.1L90.6,40.1L90.6,40.1z M79.4,43.4c0,0-0.6-4.4-1-8.1c-1.8-0.2-4,1.5-4,1.5L79.4,43.4L79.4,43.4
		L79.4,43.4z M80.5,46.4c0,0,0.6,4.4,1,8.1c1.8,0.2,4-1.5,4-1.5L80.5,46.4L80.5,46.4L80.5,46.4z M78.5,45.3c0,0-4.4,0.6-8.2,1
		c-0.2,1.8,1.5,4,1.5,4L78.5,45.3L78.5,45.3L78.5,45.3z M81.5,44.2c0,0,4.4-0.6,8.2-1c0.2-1.8-1.5-4-1.5-4L81.5,44.2L81.5,44.2
		L81.5,44.2z M78.6,44.3c0,0-3.5-2.7-6.4-5.1c-1.4,1.1-1.7,3.9-1.7,3.9L78.6,44.3L78.6,44.3L78.6,44.3z M81.5,45.6
		c0,0,3.5,2.7,6.4,5.1c1.4-1.1,1.7-3.9,1.7-3.9L81.5,45.6L81.5,45.6L81.5,45.6z M79.3,46.3c0,0-2.7,3.5-5.1,6.4
		c1.1,1.4,3.9,1.7,3.9,1.7L79.3,46.3L79.3,46.3L79.3,46.3z M80.6,43.3c0,0,2.7-3.5,5.1-6.4c-1.1-1.4-3.9-1.7-3.9-1.7L80.6,43.3
		L80.6,43.3z"/>
	<path class="st0" d="M79.7,19.9c-0.9,0-0.7,1.3-0.5,2.4c0.2,1.1,1.1,3.6-0.5,4.5c-1.3,0.7-2.1,0.3-3.5-0.1
		c-1.3-0.3-1.2,0.7-1.1,1.2c0.2,0.5,1.7,1.5,3.5,2.1c1.8,0.6,1.3,1.9,0.6,2.6c-0.7,0.7-2,0.6-2.6,0.6c-0.6,0-2.6-0.5-3.5-0.5
		c-0.9,0-2-0.2-2.8,0.5c2-0.5,5.7,0.2,5.9,0.3c1.5,0.8,1.7,1.5,1.8,2.5c0.2,1.3-1.3,3.4-3.9,3.6c-2.7,0.3-4.2-2.1-5.2-3.3
		c-1.3,0.7-2.5,1.6-2.5,3s1.4,1.5,4.3,1.6c2.9,0.1,3.4,2.1,3.4,2.1l-5.1,0.5c0,0-0.6-0.7-1.5-1.4c-0.9-0.8-2.3-1.8-2.6-4.3
		c-0.3-2.5,1.9-3.2,3.5-4.1c0.6-2.7,2.6-2.9,4.1-2.9c1.5-0.1,3.2,1.5,4.4,1.9c1.2,0.4,0.9-1,0.8-1.5c-0.2-0.6-1.1-1.1-3-1.9
		c-0.8-0.4-1.2-1.5-0.7-2.3c0.5-0.9,1.2-0.9,2.4-1c1.2-0.1,1.6,0,2.1-0.4c0.6-0.4,0.8-0.8,0.7-3.3c-0.1-2.8,1.3-2.8,1.3-2.8
		L79.7,19.9L79.7,19.9L79.7,19.9z M74.2,37.4c1.1-0.3,2.3-0.8,2.1-1.5c-0.2-0.7-1.2-0.9-3.4-1c-2.3-0.1-3.9,0.9-3.9,0.9
		C71.9,38.1,73.8,37.5,74.2,37.4L74.2,37.4z"/>
	<path class="st2" d="M65.3,40.2c0,0-1.7-2.7-0.3-4.4c1.4-1.7,3.9-2.2,4.9-2.3c1-0.1,4.1-0.1,5,0.3c1,0.4,1.8,1,1.9,2
		c-0.9-0.7-2.2-1.2-4.2-1.1c-2,0.1-4.1,0.5-5.5,1.6C65.8,37.4,64.7,38.2,65.3,40.2L65.3,40.2z"/>
	<path class="st1" d="M65.6,40.5c0,0,1,0.6,2.2,0.6c1.2,0,4.1-0.2,4.9,1.6c-1,0.1-4.4,0.4-4.4,0.4s-0.7-0.9-1.3-1.3
		C66.3,41.5,66,41.1,65.6,40.5L65.6,40.5z"/>
	<path class="st1" d="M68.2,36.1l0.4-0.2c0,0,2.3,2.2,4.5,1.9c2.2-0.2,3.4-0.7,3.5-1.9c0.1,0.2,0.2,0.2,0.2,0.2s-0.3,2.8-3.9,3
		C70.2,39.4,68.2,36.1,68.2,36.1L68.2,36.1z"/>
	<path class="st1" d="M68,33.5l0.9-0.3c0,0,0.9-1,2.1-0.9c1.3,0.1,2.3,0.2,3.2,0.4c0.9,0.2,1,0.3,1.9,0.2c-1.2-0.5-2.3-1.2-2.8-1.5
		c-0.5-0.3-1.7-0.5-2.7-0.4C69.6,31.2,68.3,31.8,68,33.5L68,33.5z"/>
	<path class="st2" d="M75.9,29.7c0,0,1.2,0.4,1.7,0.6c0.6,0.2,1,0.6,0.9,1.2c-0.1,0.5-0.7,1.4-1.9,1.4c0.8-0.8,0.7-1.3,0.5-1.7
		C77,30.7,76.6,30.2,75.9,29.7L75.9,29.7z"/>
	<path class="st1" d="M75.2,29.3c0,0-1.6-0.8-1.4-1.8c0.2-0.9,0.3-1.1,0.3-1.1s-0.9,0.1-0.9,0.9S73.7,29.1,75.2,29.3L75.2,29.3z"/>
	<path class="st2" d="M74.7,26.3c0,0,0.7-0.2,1.7-0.2c1,0,2.3-0.3,2.3-1.7c0-1.4-0.2-3.2,0.1-3.5c0,0,0.1,1.5,0.3,2.3
		c0.2,0.8,0.3,2.9-0.4,3.3c-0.8,0.4-1.5,0.6-2.4,0.2C75.2,26.4,75,26.3,74.7,26.3L74.7,26.3z"/>
	<path class="st0" d="M80.4,19.5c0,0,1.3,0,1.2,2.8c-0.1,2.5,0.1,2.8,0.7,3.3c0.5,0.4,1,0.3,2.1,0.4c1.2,0.1,1.8,0.1,2.4,1
		c0.5,0.9,0.1,2-0.7,2.3c-1.8,0.8-2.8,1.4-3,1.9c-0.2,0.6-0.4,1.9,0.8,1.5c1.2-0.4,2.9-1.9,4.4-1.9c1.5,0.1,3.6,0.2,4.1,2.9
		c1.6,0.9,3.8,1.6,3.5,4.1c-0.3,2.5-1.7,3.5-2.6,4.3c-0.9,0.8-1.5,1.4-1.5,1.4l-5.1-0.5c0,0,0.5-2,3.4-2.1c2.9-0.1,4.3-0.2,4.3-1.6
		s-1.2-2.3-2.5-3c-1,1.2-2.6,3.5-5.2,3.3c-2.7-0.3-4.1-2.4-3.9-3.6c0.2-1,0.3-1.7,1.8-2.5c0.2-0.1,3.9-0.8,5.9-0.3
		c-0.8-0.7-1.9-0.5-2.8-0.5c-0.9,0-2.9,0.5-3.5,0.5c-0.6,0-1.9,0.2-2.6-0.6s-1.2-2.1,0.6-2.6c1.8-0.6,3.3-1.5,3.5-2.1
		c0.1-0.4,0.2-1.5-1.1-1.2c-1.4,0.3-2.2,0.8-3.5,0.1c-1.6-1-0.7-3.5-0.5-4.5c0.2-1.1,0.2-2.4-0.4-2.4L80.4,19.5L80.4,19.5L80.4,19.5
		z M91.1,35.9c0,0-1.7-0.9-3.9-0.9c-2.3,0.1-3.2,0.3-3.4,1c-0.2,0.7,0.9,1.2,2.1,1.5C86.2,37.5,88,38.1,91.1,35.9L91.1,35.9z"/>
	<path class="st2" d="M94.7,40.2c0,0,1.7-2.7,0.3-4.4c-1.4-1.7-3.9-2.2-4.9-2.3c-1-0.1-4.1-0.1-5,0.3c-1,0.4-1.8,1-1.9,2
		c0.9-0.7,2.2-1.2,4.2-1.1c2,0.1,4.1,0.5,5.5,1.6C94.2,37.4,95.2,38.2,94.7,40.2L94.7,40.2z"/>
	<path class="st1" d="M94.4,40.5c0,0-1,0.6-2.2,0.6c-1.2,0-4.1-0.2-4.9,1.6c1,0.1,4.4,0.4,4.4,0.4s0.7-0.9,1.3-1.3
		C93.7,41.5,94,41.1,94.4,40.5L94.4,40.5z"/>
	<path class="st1" d="M91.7,36.1L91.4,36c0,0-2.3,2.2-4.5,1.9c-2.2-0.2-3.4-0.7-3.5-1.9c-0.1,0.2-0.2,0.2-0.2,0.2s0.3,2.8,3.9,3
		C89.8,39.4,91.7,36.1,91.7,36.1L91.7,36.1z"/>
	<path class="st1" d="M92,33.5l-0.9-0.3c0,0-0.9-1-2.1-0.9c-1.3,0.1-2.3,0.2-3.2,0.4c-0.9,0.2-1,0.3-1.9,0.2
		c1.2-0.5,2.3-1.2,2.8-1.5c0.5-0.3,1.7-0.5,2.7-0.4C90.4,31.2,91.6,31.8,92,33.5L92,33.5z"/>
	<path class="st2" d="M84.1,29.7c0,0-1.2,0.4-1.7,0.6c-0.6,0.2-1,0.6-0.9,1.2c0.1,0.5,0.7,1.4,1.9,1.4c-0.8-0.8-0.7-1.3-0.5-1.7
		C83,30.7,83.3,30.2,84.1,29.7L84.1,29.7z"/>
	<path class="st1" d="M84.8,29.3c0,0,1.6-0.8,1.4-1.8c-0.2-0.9-0.3-1.1-0.3-1.1s0.9,0.1,0.9,0.9S86.3,29.1,84.8,29.3L84.8,29.3z"/>
	<path class="st2" d="M85.3,26.3c0,0-0.7-0.2-1.7-0.2c-1,0-2.3-0.3-2.3-1.7c0-1.4,0.2-3.2-0.1-3.5c0,0-0.1,1.5-0.3,2.3
		c-0.2,0.8-0.3,2.9,0.4,3.3c0.8,0.4,1.5,0.6,2.4,0.2C84.8,26.4,85,26.3,85.3,26.3L85.3,26.3z"/>
	<path class="st0" d="M80.2,42c9.9,0,25.5,1.9,29.5,3.6c1.7,0.7,2.9,1.1,2.9,2.7c0,1.6,0,2.3,0,2.3s0.5-0.3,2.1-0.3
		c1.1,0,2.2,0.3,2.8,0.9c0.2,0.2,0.4,0.5,0.4,0.9c0,1.4,0,4.8,0,5.6c0,0.8-0.4,0.8-1.1,1.2c-0.6,0.4-1,0.6-1,0.6l0,3.2
		c0,0-1.9-0.1-3.4-1.2c-1.2-0.8-0.5-3.2,0.5-4c0.6-0.4,0.6-0.6,0.6-0.6s-0.4,0.1-0.7,0.2c-1.2,0.4-3.6,1.8-5.4,1.8
		c-2.1,0-6.5,0-7.7-3.3l-0.1-6.1c0,0-6.4-1.3-19.3-1.3h0.2c-12.8,0-19.3,1.3-19.3,1.3l-0.1,6.1c-1.2,3.3-5.6,3.3-7.7,3.3
		c-1.7,0-4.2-1.4-5.4-1.8c-0.4-0.1-0.7-0.2-0.7-0.2s0,0.1,0.6,0.6c1,0.8,1.7,3.1,0.5,4c-1.5,1.1-3.4,1.2-3.4,1.2l0-3.2
		c0,0-0.4-0.2-1-0.6c-0.6-0.4-1.1-0.4-1.1-1.2c0-0.8,0-4.2,0-5.6c0-0.4,0.1-0.7,0.4-0.9c0.7-0.6,1.7-0.9,2.8-0.9
		c1.6,0,2.1,0.3,2.1,0.3s0-0.7,0-2.3c0-1.6,1.2-2,2.9-2.7c4-1.7,19.6-3.6,29.5-3.6H80.2L80.2,42z"/>
	<path class="st0" d="M82.3,147.7c23.9,0,33.7-5.3,36.2-6.5c1.4-0.7,2.3-2,2.3-3.1c0-1,0.1-4.6,0.1-4.6s2.4,0.2,3.9,0
		c1.6-0.1,3-1.3,3-3.1c0-1.8-0.1-10.8-0.1-13.5c0-0.9-2.6-1.6-2.6-1.6v-6c0,0-6,1.8-6,4.6c0,2.7,0,4.8,0,4.8s-7.4-1-9.9-1.2
		c-2.5-0.1-3.9,1.4-3.9,3.6c0,2.2,0,9.8,0,9.8s-6.8,2.3-23,2.3H78c-16.2,0-23-2.3-23-2.3s0-7.6,0-9.8c0-2.2-1.4-3.8-3.9-3.6
		c-2.5,0.1-9.9,1.2-9.9,1.2s0-2,0-4.8c0-2.7-6-4.6-6-4.6v6c0,0-2.6,0.7-2.6,1.6c0,2.7-0.1,11.7-0.1,13.5c0,1.8,1.5,3,3,3.1
		c1.6,0.1,3.9,0,3.9,0s0.1,3.5,0.1,4.6c0,1,1,2.4,2.3,3.1c2.5,1.3,9.9,6.5,36.2,6.5H82.3L82.3,147.7z"/>
	<path class="st2" d="M35.6,110.1c0,0,5.1,1.9,4.7,3.7c0,0-2.8,0.9-4.7,1.3V110.1L35.6,110.1z"/>
	<path class="st3" d="M40.8,114.1v4.7c0,0-5.2,0.7-6.6-0.3c-1-0.7-1.7-1.4-0.3-2.1C35.3,115.6,39.4,114.8,40.8,114.1L40.8,114.1z"/>
	<path class="st2" d="M33,117.9c0,0,0.7,1.5,2.7,1.6c2.9,0.2,4.8-0.1,7.8-0.5c3.2-0.4,6-0.9,8-0.9c1.9,0.1,2.9,1.1,2.9,2.6
		c0,1.5-2,2.3-3.6,2.3c-1.6,0-3.5-1.4-5.5-1.7c-2-0.3-5.8-0.3-5.8,1.7c0.1,2.1,0,10.2,0,10.2s-3.1,0.3-4.2,0
		c-1.1-0.3-2.3-1.1-2.3-2.5C32.8,129.3,33,117.9,33,117.9L33,117.9z"/>
	<path class="st3" d="M42.9,121.5c1.7,0,3.3,0.4,4.9,1.1c1.7,0.7,2.2,0.9,3.1,0.9c0.9,0,3.3-0.7,3.7-2.3v9.5c0,0-4.9-0.6-10.5-3.4
		c-0.9-0.4-4.6-2.1-4.3-4.5C40,121.4,42.9,121.5,42.9,121.5L42.9,121.5z"/>
	<path class="st2" d="M82.3,147.2c23.1,0,31.9-4.5,35-5.9c3.1-1.4,3.1-3.3,3.1-3.3v-13c0,0-5.3,8.7-38.2,8.7H78
		c-32.9,0-38.2-8.7-38.2-8.7v13c0,0,0.1,1.9,3.1,3.3c3.1,1.4,11.8,5.9,35,5.9H82.3L82.3,147.2z"/>
	<path class="st2" d="M124.6,110.1c0,0-5.1,1.9-4.7,3.7c0,0,2.8,0.9,4.7,1.3V110.1L124.6,110.1z"/>
	<path class="st3" d="M119.4,114.1v4.7c0,0,5.2,0.7,6.6-0.3c1-0.7,1.7-1.4,0.3-2.1C124.9,115.6,120.9,114.8,119.4,114.1L119.4,114.1
		z"/>
	<path class="st2" d="M127.3,117.9c0,0-0.7,1.5-2.7,1.6c-2.9,0.2-4.8-0.1-7.8-0.5c-3.2-0.4-6-0.9-8-0.9c-1.9,0.1-2.9,1.1-2.9,2.6
		c0,1.5,2,2.3,3.6,2.3c1.6,0,3.5-1.4,5.5-1.7c2-0.3,5.8-0.3,5.8,1.7c-0.1,2.1,0,10.2,0,10.2s3.1,0.3,4.2,0c1.1-0.3,2.3-1.1,2.3-2.5
		C127.4,129.3,127.3,117.9,127.3,117.9L127.3,117.9z"/>
	<path class="st3" d="M117.4,121.5c-1.7,0-3.3,0.4-4.9,1.1c-1.7,0.7-2.2,0.9-3.1,0.9c-0.9,0-3.3-0.7-3.7-2.3v9.5
		c0,0,4.9-0.6,10.5-3.4c0.9-0.4,4.6-2.1,4.3-4.5C120.2,121.4,117.4,121.5,117.4,121.5L117.4,121.5z"/>
	<path class="st1" d="M43.3,130c0.2,0.1,0.5,0.2,0.7,0.5c0.1,0.1,0.2,0.2,0.3,0.3c0.1,0.1,0.2,0.2,0.2,0.2c0,0,0.1,0,0.1,0
		c0,0,0.1-0.1,0.1-0.1c0,0,0,0,0.1,0c0.1,0,0.1,0.1,0.1,0.2c0,0.2,0,0.4,0,0.5c0,0.1,0,0.2,0,0.2c0,0.2,0,0.5,0.1,0.7
		c0,0.2,0,0.4,0,0.6c0,0.1,0,0.1,0,0.1c0,0.2,0,0.3-0.1,0.3c0,0-0.1-0.1-0.1-0.3c-0.1-0.7-0.3-1.3-0.6-1.8c-0.3-0.6-0.6-0.9-1-1
		c-0.2-0.1-0.4,0-0.6,0.2c-0.2,0.2-0.3,0.5-0.3,0.9c0,0.3,0.1,0.7,0.2,1c0.1,0.2,0.4,0.6,0.9,1.1c0.6,0.6,1,1.2,1.2,1.7
		c0.2,0.6,0.4,1.2,0.4,1.9c0,0.8-0.2,1.4-0.5,1.9c-0.3,0.5-0.7,0.7-1.1,0.5c-0.2-0.1-0.5-0.2-0.8-0.6c-0.2-0.2-0.3-0.3-0.4-0.3
		c-0.1-0.1-0.2-0.1-0.2-0.2c0,0,0-0.2,0-0.4c0-0.2-0.1-0.5-0.1-1c-0.1-0.7-0.1-1.1-0.1-1.2c0-0.2,0-0.3,0.1-0.3c0,0,0.1,0.1,0.1,0.2
		c0.1,0.8,0.3,1.5,0.7,2.2c0.3,0.6,0.6,1,1,1.1c0.3,0.1,0.5,0,0.7-0.3c0.2-0.3,0.3-0.6,0.3-1.1c0-0.4-0.1-0.7-0.2-0.9
		c-0.1-0.3-0.3-0.5-0.6-0.8c-0.2-0.2-0.4-0.4-0.6-0.7c-0.6-0.6-0.9-1.2-1.1-1.6c-0.2-0.5-0.3-1-0.3-1.6c0-0.7,0.1-1.3,0.4-1.7
		C42.5,130,42.9,129.9,43.3,130L43.3,130z"/>
	<path class="st1" d="M49.8,132.1C49.8,132.1,49.8,132.1,49.8,132.1c0.1,0.1,0.2,0.1,0.4,0.2c0.1,0,0.3,0.1,0.4,0.1
		c0.1,0,0.3,0,0.4,0.1c0.1,0,0.2,0,0.3,0c0,0,0.1,0,0.1,0c0.1,0,0.1,0.1,0.1,0.2c0,0.1,0,0.1-0.1,0.1c0,0-0.1,0-0.2,0
		c-0.2,0-0.3,0.4-0.3,1c0,0.2,0,0.4,0,0.6c0,0.3,0,0.6,0,0.8c0,1.3,0,2.3-0.1,3.1c-0.1,0.8-0.2,1.4-0.4,1.7c-0.4,0.9-1.1,1.3-2,1
		c-0.7-0.2-1.2-0.5-1.5-1.1c-0.5-0.7-0.7-1.9-0.7-3.6c0-0.9,0-1.7,0-2.6c0-0.4,0-0.8,0-1.2c0-0.3,0-0.5-0.1-0.7
		c0-0.1-0.1-0.3-0.2-0.4c-0.1-0.1-0.3-0.3-0.4-0.3c-0.1-0.1-0.2-0.1-0.2-0.3c0-0.1,0-0.2,0.1-0.1c0,0,0.1,0,0.2,0.1
		c0.3,0.2,0.6,0.3,0.8,0.3c0.3,0.1,0.5,0.1,0.8,0.2c0.1,0,0.2,0,0.3,0c0.1,0,0.2,0.1,0.2,0.3c0,0.1,0,0.1,0,0.1c0,0-0.1,0-0.2,0
		c-0.2,0-0.3,0.1-0.3,0.2c-0.1,0.1-0.1,0.4-0.1,0.9c0,0.6,0,1.1-0.1,1.7c0,0.4,0,0.8,0,1.2c0,1.1,0,1.9,0.1,2.4
		c0.1,0.5,0.2,0.9,0.4,1.3c0.3,0.6,0.7,0.9,1.2,1.1c0.5,0.1,0.9,0,1.2-0.4c0.2-0.3,0.4-0.8,0.4-1.4c0.1-0.6,0.1-1.6,0.1-2.8
		c0-0.2,0-0.4,0-0.5c0-0.5,0-0.9,0-1.4c0-0.4-0.1-0.8-0.2-1c-0.1-0.3-0.3-0.4-0.5-0.5c-0.1,0-0.2-0.1-0.2-0.2
		C49.7,132.1,49.7,132.1,49.8,132.1L49.8,132.1z"/>
	<path class="st1" d="M54.1,134.7c0.7,1.5,1.4,3,2.1,4.4c0,0.1,0.1,0.2,0.1,0.3c0.2,0.4,0.3,0.6,0.4,0.6c0.1,0,0.1-0.1,0.1-0.4
		c0-1,0-1.9,0-2.8c0-1.1-0.1-1.8-0.2-2.2c-0.1-0.4-0.4-0.7-0.7-0.8c-0.1,0-0.1-0.1-0.1-0.2c0-0.1,0-0.2,0.1-0.2
		c0.1,0,0.3,0.1,0.5,0.2c0.1,0.1,0.3,0.1,0.3,0.1c0.2,0,0.5,0,0.9,0c0.1,0,0.1,0,0.1,0c0.1,0,0.1,0.1,0.1,0.2c0,0.1,0,0.2-0.1,0.2
		c-0.3,0-0.5,0.5-0.5,1.5c0,0.1,0,0.2,0,0.3c0,1.4,0,2.8-0.1,4.2c0,0.2,0,0.4,0,0.6c0,0.3,0,0.5,0,0.8c0,0.2,0,0.3,0,0.5
		c0,0.3,0,0.6,0,0.9c0,0.1,0,0.2-0.1,0.2c0,0-0.1-0.1-0.1-0.2c-1.2-2.5-2.4-5.1-3.6-7.6c-0.1-0.1-0.1-0.2-0.1-0.2
		c-0.1,0-0.1,0.1-0.1,0.3c0,0.1,0,0.1,0,0.2c0,0.9,0,1.8,0,2.6c0,1.4,0,2.4,0.1,2.8c0.1,0.5,0.3,0.9,0.8,1c0.1,0,0.1,0.1,0.1,0.2
		c0,0.1,0,0.2-0.1,0.2c0,0-0.1,0-0.2-0.1c-0.2-0.1-0.5-0.2-0.7-0.3c-0.3-0.1-0.5-0.1-0.7-0.1c-0.1,0-0.2,0-0.2,0
		c-0.1,0-0.1-0.1-0.1-0.2c0-0.1,0-0.2,0.1-0.2c0.2,0,0.3-0.2,0.4-0.5c0.1-0.3,0.1-0.7,0.1-1.2c0-0.5,0-1.1,0-1.6c0-1,0-1.9,0-2.9
		c0-1.4-0.3-2.2-0.9-2.4c-0.1,0-0.1-0.1-0.1-0.2c0-0.1,0-0.2,0.1-0.2c0.1,0,0.2,0.1,0.3,0.1c0.1,0,0.1,0,0.2,0
		c0.2,0,0.4,0.1,0.7,0.1c0.1,0,0.2,0,0.2,0c0.1,0,0.1,0.1,0.2,0.1c0,0.1,0.1,0.3,0.3,0.6c0.1,0.2,0.2,0.4,0.3,0.6
		C54.1,134.5,54.1,134.7,54.1,134.7L54.1,134.7z"/>
	<path class="st1" d="M58.9,135.9c0-0.4-0.1-0.8-0.2-1c-0.1-0.3-0.3-0.4-0.6-0.5c-0.1,0-0.1-0.1-0.1-0.2c0-0.1,0-0.1,0.1-0.2
		c0,0,0.1,0,0.2,0c0.2,0,0.4,0.1,0.6,0.1c0.1,0,0.3,0,0.4,0.1c0.2,0,0.4,0,0.7,0c0.4,0,0.7,0,0.9,0.1c0.9,0.1,1.6,0.6,2.2,1.5
		c0.5,0.9,0.8,1.9,0.8,3.2c0,1.7-0.4,3-1.1,3.8c-0.5,0.6-1.1,0.9-1.8,0.8c-0.1,0-0.3-0.1-0.7-0.2c-0.2-0.1-0.4-0.1-0.6-0.1
		c-0.5-0.1-0.8-0.1-0.9-0.1c-0.1,0-0.2,0-0.2,0c-0.1,0-0.1-0.1-0.1-0.2c0-0.1,0-0.1,0.1-0.2c0.2,0,0.3-0.1,0.3-0.3
		c0.1-0.2,0.1-0.5,0.1-0.9C58.9,139.9,58.9,137.9,58.9,135.9L58.9,135.9L58.9,135.9z M59.8,135.7c0,2,0,4,0,5.9c0,0.2,0,0.4,0,0.6
		c0.1,0.5,0.4,0.9,1,0.9c0.6,0.1,1.1-0.2,1.5-0.9c0.4-0.7,0.5-1.6,0.5-2.8c0-1.3-0.2-2.4-0.6-3.2c-0.4-0.9-1-1.4-1.7-1.5
		c-0.3,0-0.5,0-0.6,0.1C59.9,135,59.8,135.3,59.8,135.7L59.8,135.7z"/>
	<path class="st1" d="M66,136.8c0,0.5,0,1,0,1.5c0,0.4,0,0.7,0.1,0.8c0,0.1,0.1,0.2,0.3,0.2c0,0,0.1,0,0.1,0c0.1,0,0.1,0,0.2,0
		c0.1,0,0.2,0,0.3,0c0.3,0,0.5-0.2,0.6-0.7c0-0.1,0.1-0.2,0.1-0.3c0-0.1,0.1-0.1,0.1-0.1c0.1,0,0.1,0.1,0.1,0.2c0,0,0,0.1,0,0.3
		c0,0.1,0,0.2,0,0.3c0,0.1,0,0.5,0.1,1c0,0.4,0,0.7,0,0.9c0,0.1,0,0.2,0,0.3c0,0.1,0,0.1,0,0.1c0,0,0,0-0.1,0
		c-0.1,0-0.1-0.1-0.1-0.3c0-0.4-0.1-0.7-0.2-0.9c-0.1-0.1-0.2-0.2-0.3-0.2c-0.1,0-0.3-0.1-0.6-0.1c-0.1,0-0.2,0-0.3,0
		c-0.1,0-0.2,0-0.3,0.1c0,0.1-0.1,0.2-0.1,0.4c0,0.2,0,0.6,0,1.1c0,0.2,0,0.4,0,0.6c0,0.6,0,1.1,0.1,1.4c0,0.2,0.1,0.4,0.2,0.4
		c0.1,0.1,0.2,0.1,0.3,0.1c1.1,0.1,1.8-0.4,2.1-1.4c0-0.1,0-0.1,0-0.1c0,0,0.1,0,0.1,0.1c0,0,0,0.1,0,0.1c0,0.4-0.1,0.9-0.2,1.3
		c-0.1,0.3-0.3,0.6-0.4,0.7c-0.2,0.1-0.4,0.2-0.7,0.2c-0.2,0-0.4-0.1-0.6-0.1c-0.2,0-0.3-0.1-0.5-0.1c-0.2,0-0.4-0.1-0.7-0.1
		c-0.2,0-0.5,0-0.9-0.1c-0.1,0-0.2,0-0.2,0c-0.1,0-0.1-0.1-0.1-0.2c0-0.1,0-0.1,0.1-0.2c0.2-0.1,0.3-0.2,0.3-0.3
		c0.1-0.1,0.1-0.3,0.1-0.6c0-0.2,0-0.6,0-1c0-1.8,0-3.6,0-5.3c0-0.5,0-0.8-0.1-1c-0.1-0.2-0.3-0.3-0.6-0.5c-0.1,0-0.1-0.1-0.1-0.2
		c0-0.1,0-0.2,0.1-0.1c0,0,0.1,0,0.1,0c0,0,0.1,0,0.2,0c0.1,0,0.3,0.1,0.4,0.1c0.5,0.1,1,0.1,1.5,0.2c0.9,0.1,1.4,0.1,1.6,0.1
		c0,0,0,0,0.1,0c0.1,0,0.1,0.1,0.1,0.2c0,0.1,0,0.3,0,0.6c0,0.4,0,0.7,0,0.9c0,0.3-0.1,0.5-0.2,0.5c-0.1,0-0.1-0.1-0.1-0.3
		c0-0.4-0.1-0.8-0.3-1c-0.2-0.2-0.5-0.4-0.9-0.4c-0.2,0-0.3,0-0.5-0.1c-0.1,0-0.2,0-0.3,0c-0.1,0.1-0.2,0.3-0.2,0.7
		C66,136.6,66,136.7,66,136.8L66,136.8z"/>
	<path class="st1" d="M70.8,142.3c0,0.9,0,1.4,0.1,1.7c0.1,0.3,0.3,0.5,0.6,0.6c0.1,0,0.2,0.1,0.2,0.2c0,0.1,0,0.2-0.1,0.2
		c0,0-0.1,0-0.2,0c-0.2-0.1-0.5-0.1-0.7-0.1c-0.2,0-0.3,0-0.5,0c-0.1,0-0.2,0-0.3,0c-0.1,0-0.2,0-0.3,0c-0.1,0-0.1,0-0.2,0
		c-0.1,0-0.1-0.1-0.1-0.2c0-0.1,0-0.2,0.1-0.2c0.2-0.1,0.3-0.2,0.4-0.3c0.1-0.2,0.1-0.4,0.1-0.7c0-0.2,0-0.4,0-0.6
		c0-0.1,0-0.2,0-0.3c0-1.6,0-3.3,0-4.9c0-0.5,0-0.9-0.1-1.1c-0.1-0.3-0.3-0.5-0.6-0.6c-0.1,0-0.2-0.1-0.2-0.3c0-0.1,0-0.2,0.1-0.2
		c0,0,0.1,0,0.1,0c0.2,0.1,0.4,0.1,0.7,0.1c0.3,0,0.6,0,1,0c0.5,0,0.8,0,0.9,0c0.5,0,0.9,0.3,1.3,0.8c0.3,0.5,0.5,1.1,0.5,1.8
		c0,0.4-0.1,0.8-0.2,1.2c-0.1,0.4-0.4,0.6-0.6,0.8c-0.1,0-0.1,0.1-0.1,0.1c0,0,0,0.1,0,0.2c0,0.1,0.1,0.2,0.1,0.3
		c0.1,0.4,0.2,0.7,0.4,1.1c0.1,0.4,0.3,0.8,0.4,1.3c0.1,0.4,0.3,0.7,0.4,0.9c0.1,0.2,0.2,0.3,0.4,0.3c0.1,0,0.1,0,0.2,0
		c0,0,0.1,0,0.1,0c0,0,0.1,0.1,0.1,0.2c0,0.1-0.1,0.3-0.3,0.4c-0.2,0.2-0.4,0.2-0.6,0.2c-0.3,0-0.5-0.3-0.7-0.7
		c-0.2-0.5-0.5-1.4-0.9-2.7c-0.1-0.5-0.3-0.8-0.4-1c-0.1-0.1-0.2-0.2-0.5-0.2c-0.1,0-0.2,0-0.2,0c-0.1,0-0.1,0-0.2,0
		c0,0-0.1,0.1-0.1,0.3C70.8,141.4,70.8,141.9,70.8,142.3L70.8,142.3L70.8,142.3z M70.8,137c0,0.8,0,1.6,0,2.3c0,0.3,0,0.5,0.1,0.6
		c0,0.1,0.1,0.1,0.3,0.1c0.5,0,0.8,0,0.9,0c0.1,0,0.2-0.1,0.3-0.3c0.2-0.3,0.3-0.7,0.3-1.2c0-0.7-0.1-1.3-0.4-1.7
		c-0.3-0.5-0.6-0.7-1-0.7c-0.2,0-0.3,0-0.4,0.2C70.9,136.5,70.8,136.7,70.8,137L70.8,137z"/>
	<path class="st1" d="M76.5,143.2c0,0.8,0.1,1.3,0.2,1.4c0.1,0.1,0.2,0.1,0.4,0.1c0.9,0,1.5-0.4,1.9-1.3c0.1-0.3,0.2-0.4,0.2-0.4
		c0.1,0,0.1,0.1,0.1,0.3c0,0.6-0.1,1.1-0.3,1.5c-0.2,0.4-0.5,0.6-0.8,0.6c-0.1,0-0.2,0-0.4,0c0,0-0.2,0-0.5-0.1c-0.1,0-0.3,0-0.4,0
		c-0.1,0-0.3,0-0.5,0c-0.3,0-0.6,0-1,0.1c-0.1,0-0.2,0-0.2,0c-0.1,0-0.1-0.1-0.1-0.2c0-0.1,0-0.1,0.1-0.2c0.2-0.1,0.3-0.2,0.4-0.5
		c0.1-0.2,0.1-0.6,0.1-1.1c0-1.9,0-3.8,0-5.7c0-0.7-0.2-1.1-0.5-1.2c-0.1,0-0.2-0.1-0.2-0.1c-0.1,0-0.2-0.1-0.2-0.2
		c0-0.1,0-0.2,0.1-0.2c0,0,0.1,0,0.1,0c0,0,0.1,0,0.2,0c0.1,0,0.1,0,0.2,0c0.2,0,0.3,0.1,0.4,0.1c0.1,0,0.3,0,0.6-0.1
		c0.2,0,0.4,0,0.6,0c0.2,0,0.2,0.1,0.2,0.2c0,0.1-0.1,0.2-0.2,0.2c-0.3,0-0.4,0.3-0.4,0.9C76.5,139.2,76.5,141.2,76.5,143.2
		L76.5,143.2z"/>
	<path class="st1" d="M82.3,136.8c0.6,2.3,1.2,4.7,1.8,7c0.1,0.4,0.2,0.6,0.3,0.8c0.1,0.2,0.3,0.3,0.5,0.3c0,0,0.1,0.1,0.1,0.2
		c0,0.1,0,0.2-0.1,0.2c0,0-0.1,0-0.2,0c-0.2-0.1-0.5-0.1-1-0.1c-0.5,0-0.8,0.1-0.9,0.1c0,0-0.1,0-0.1,0c-0.1,0-0.1-0.1-0.1-0.2
		c0-0.1,0-0.1,0.1-0.2c0.1-0.1,0.2-0.2,0.3-0.3c0.1-0.2,0.1-0.3,0.1-0.5c0-0.3-0.1-0.8-0.3-1.6c-0.1-0.3-0.2-0.4-0.2-0.4
		c-0.1,0-0.4,0-0.9,0c-0.2,0-0.4,0-0.5,0c-0.1,0-0.2,0.1-0.4,0.1c-0.1,0.1-0.2,0.4-0.3,0.9c0,0.2-0.1,0.3-0.1,0.5
		c0,0.1-0.1,0.3-0.1,0.5c0,0.6,0.2,0.9,0.7,1c0.1,0,0.2,0.1,0.1,0.2c0,0.1-0.1,0.2-0.1,0.2c0,0-0.1,0-0.2,0
		c-0.2-0.1-0.3-0.1-0.5-0.1c-0.1,0-0.3,0-0.6,0.1c-0.2,0-0.3,0-0.4,0c-0.1,0-0.1-0.1-0.1-0.2c0-0.1,0-0.2,0.1-0.2
		c0.1-0.1,0.3-0.2,0.4-0.4c0.1-0.2,0.2-0.6,0.4-1.3c0.4-1.4,0.7-2.8,1.1-4.3c0.1-0.3,0.1-0.6,0.2-0.7c0.1-0.4,0.2-0.9,0.4-1.3
		c0.1-0.2,0.1-0.4,0.2-0.6c0,0,0,0,0,0c0.1-0.4,0.1-0.5,0.2-0.5c0,0,0.1,0.2,0.2,0.6C82.3,136.5,82.3,136.6,82.3,136.8L82.3,136.8
		L82.3,136.8z M82.5,141c-0.2-0.7-0.4-1.4-0.5-2.1c-0.1-0.5-0.2-0.7-0.3-0.7c0,0-0.1,0.2-0.2,0.5c0,0.1-0.1,0.2-0.1,0.3
		c-0.2,0.6-0.3,1.2-0.5,1.8c0,0.1,0,0.1,0,0.2c0,0.1,0,0.1,0,0.2c0,0.2,0.1,0.2,0.3,0.2c0.4,0,0.8,0,1.2,0c0.1,0,0.2,0,0.2-0.1
		C82.5,141.2,82.5,141.1,82.5,141C82.5,141.1,82.5,141,82.5,141L82.5,141z"/>
	<path class="st1" d="M87.3,137.4c0.7,1.3,1.4,2.6,2.1,3.9c0,0.1,0.1,0.2,0.1,0.2c0.2,0.3,0.3,0.5,0.4,0.5c0.1,0,0.1-0.1,0.1-0.4
		c0-1,0-2,0-2.9c0-1.1-0.1-1.8-0.2-2.1c-0.1-0.4-0.4-0.6-0.8-0.6c-0.1,0-0.1-0.1-0.1-0.2c0-0.1,0-0.2,0.1-0.2c0.1,0,0.3,0,0.5,0
		c0.1,0,0.3,0,0.3,0c0.2,0,0.5-0.1,0.9-0.2c0.1,0,0.1,0,0.1,0c0.1,0,0.1,0.1,0.1,0.2c0,0.1,0,0.2-0.1,0.2c-0.3,0.1-0.5,0.7-0.5,1.6
		c0,0.1,0,0.2,0,0.3c0,1.4,0,2.8-0.1,4.3c0,0.2,0,0.4,0,0.6c0,0.3,0,0.5,0,0.8c0,0.2,0,0.3,0,0.5c0,0.3,0,0.6,0,0.8
		c0,0.1,0,0.2-0.1,0.2c0,0-0.1,0-0.1-0.1c-1.2-2.2-2.4-4.4-3.6-6.6c-0.1-0.1-0.1-0.2-0.1-0.2c-0.1,0-0.1,0.1-0.1,0.3
		c0,0.1,0,0.1,0,0.2c0,0.9,0,1.8,0,2.6c0,1.4,0,2.3,0.1,2.8c0.1,0.5,0.4,0.8,0.8,0.8c0.1,0,0.1,0.1,0.1,0.2c0,0.1,0,0.2-0.1,0.2
		c0,0-0.1,0-0.2,0c-0.2-0.1-0.5-0.1-0.8-0.1c-0.3,0-0.5,0.1-0.7,0.1c-0.1,0-0.2,0-0.2,0c-0.1,0-0.1-0.1-0.1-0.2c0-0.1,0-0.2,0.1-0.2
		c0.2-0.1,0.3-0.3,0.4-0.6c0.1-0.3,0.1-0.7,0.1-1.3c0-0.5,0-1.1,0-1.6c0-1,0-1.9,0-2.9c0-1.4-0.3-2.1-0.9-2.1
		c-0.1,0-0.1-0.1-0.1-0.2c0-0.1,0-0.2,0.1-0.2c0.1,0,0.2,0,0.3,0c0.1,0,0.1,0,0.2,0c0.2,0,0.4,0,0.7-0.1c0.1,0,0.2,0,0.2,0
		c0.1,0,0.1,0,0.2,0.1c0,0.1,0.1,0.2,0.3,0.5c0.1,0.2,0.2,0.4,0.3,0.5C87.2,137.2,87.3,137.3,87.3,137.4L87.3,137.4z"/>
	<path class="st1" d="M92.1,137.2c0-0.4-0.1-0.8-0.2-1c-0.1-0.2-0.3-0.3-0.6-0.3c-0.1,0-0.1,0-0.1-0.2c0-0.1,0-0.1,0.1-0.2
		c0,0,0.1,0,0.2-0.1c0.2,0,0.4,0,0.6,0c0.1,0,0.3,0,0.4-0.1c0.2,0,0.4-0.1,0.7-0.2c0.4-0.1,0.7-0.2,0.9-0.2c0.9-0.1,1.6,0.2,2.2,0.9
		c0.5,0.7,0.8,1.7,0.8,3c0,1.7-0.4,3.1-1.1,4.2c-0.5,0.8-1.1,1.2-1.8,1.3c-0.1,0-0.3,0-0.7,0c-0.2,0-0.4,0-0.6,0
		c-0.5,0.1-0.8,0.1-0.9,0.2c-0.1,0.1-0.2,0.1-0.2,0.1c-0.1,0-0.1-0.1-0.1-0.2c0-0.1,0-0.2,0.1-0.2c0.2-0.1,0.3-0.2,0.3-0.4
		c0.1-0.2,0.1-0.5,0.1-0.9C92.1,141.2,92.1,139.2,92.1,137.2L92.1,137.2L92.1,137.2z M93.1,136.8c0,2,0,4,0,5.9c0,0.2,0,0.4,0,0.6
		c0.1,0.5,0.4,0.7,1,0.7c0.6-0.1,1.1-0.5,1.5-1.3c0.4-0.8,0.5-1.8,0.5-3c0-1.3-0.2-2.3-0.6-3.1c-0.4-0.8-1-1.1-1.7-1
		c-0.3,0-0.5,0.1-0.6,0.3C93.1,136,93.1,136.3,93.1,136.8L93.1,136.8z"/>
	<path class="st1" d="M102.4,134.7c0.6,2.2,1.2,4.5,1.8,6.7c0.1,0.3,0.2,0.6,0.3,0.7c0.1,0.1,0.3,0.2,0.5,0.3c0,0,0.1,0.1,0.1,0.2
		c0,0.1,0,0.2-0.1,0.2c0,0-0.1,0-0.1,0c-0.2,0-0.5,0-1,0.1c-0.5,0.1-0.8,0.2-0.9,0.3c0,0-0.1,0-0.1,0c-0.1,0-0.1,0-0.1-0.2
		c0-0.1,0-0.1,0.1-0.2c0.1-0.1,0.2-0.2,0.3-0.4c0.1-0.2,0.1-0.4,0.1-0.5c0-0.3-0.1-0.8-0.3-1.6c-0.1-0.2-0.1-0.4-0.2-0.4
		c-0.1,0-0.4,0-0.9,0.1c-0.2,0-0.4,0.1-0.5,0.1c-0.1,0.1-0.2,0.1-0.4,0.2c-0.1,0.1-0.2,0.4-0.3,1c0,0.2-0.1,0.4-0.1,0.5
		c0,0.2-0.1,0.3-0.1,0.5c0,0.6,0.2,0.9,0.7,0.9c0.1,0,0.2,0.1,0.1,0.2c0,0.1-0.1,0.2-0.1,0.2c0,0-0.1,0-0.2,0c-0.2,0-0.3,0-0.5,0
		c-0.1,0-0.3,0.1-0.6,0.2c-0.2,0.1-0.3,0.1-0.4,0.1c-0.1,0-0.1,0-0.1-0.2c0-0.1,0-0.2,0.1-0.2c0.1-0.1,0.3-0.3,0.3-0.5
		c0.1-0.2,0.2-0.7,0.4-1.4c0.4-1.5,0.7-3,1.1-4.4c0.1-0.4,0.1-0.6,0.2-0.7c0.1-0.5,0.2-0.9,0.4-1.4c0.1-0.2,0.1-0.4,0.2-0.7
		c0,0,0,0,0,0c0.1-0.4,0.1-0.6,0.2-0.6c0,0,0.1,0.2,0.2,0.5C102.4,134.4,102.4,134.6,102.4,134.7L102.4,134.7L102.4,134.7z
		 M102.6,138.9c-0.2-0.7-0.3-1.3-0.5-2c-0.1-0.5-0.2-0.7-0.3-0.7c0,0-0.1,0.2-0.2,0.5c0,0.1,0,0.2-0.1,0.3c-0.2,0.6-0.3,1.3-0.5,1.9
		c0,0.1,0,0.1,0,0.2c0,0.1,0,0.1,0,0.2c0,0.2,0.1,0.2,0.3,0.2c0.4-0.1,0.8-0.1,1.2-0.2c0.1,0,0.1-0.1,0.1-0.2
		C102.6,139,102.6,139,102.6,138.9C102.6,138.9,102.6,138.9,102.6,138.9L102.6,138.9z"/>
	<path class="st1" d="M106.2,140.2c0.1,0,0.2,0.1,0.3,0.2c0.1,0.1,0.2,0.2,0.2,0.4c0.1,0.1,0.1,0.2,0.2,0.2c0,0.1,0,0.1,0,0.2
		c0,0.1-0.1,0.3-0.2,0.5c-0.1,0.1-0.1,0.2-0.2,0.4c-0.1,0.3-0.2,0.4-0.3,0.4c-0.1,0-0.1-0.1-0.2-0.2c-0.1-0.2-0.2-0.3-0.3-0.4
		c-0.1-0.2-0.2-0.3-0.2-0.4c0-0.1,0.1-0.3,0.2-0.4c0.1-0.1,0.1-0.3,0.3-0.5C106,140.4,106.1,140.2,106.2,140.2L106.2,140.2z"/>
	<path class="st1" d="M109.1,135.8c0,0.3,0,0.4,0.1,0.5c0,0.1,0.1,0.1,0.2,0.1c0.1,0,0.1,0,0.1,0c0.1,0,0.3-0.1,0.4-0.1
		c0.2-0.1,0.3-0.2,0.4-0.3c0.1-0.2,0.2-0.5,0.3-0.9c0-0.1,0-0.2,0.1-0.2c0.1,0,0.1,0,0.1,0.1c0,0,0,0.1,0,0.2c0,0.1,0,0.1,0,0.2
		c0,0.3,0,0.6,0,0.9c0,0.4,0,0.8,0.1,1.3c0,0.1,0,0.2,0,0.3c0,0.1,0,0.2-0.1,0.2c0,0-0.1,0-0.1-0.2c-0.1-0.5-0.1-0.8-0.3-0.9
		c-0.1-0.1-0.3-0.2-0.6-0.1c-0.4,0.1-0.6,0.2-0.7,0.3c-0.1,0.1-0.1,0.4-0.1,1c0,0.2,0,0.4,0,0.5c0,0.3,0,0.5,0,0.8
		c0,0.7,0.1,1.1,0.2,1.4c0.1,0.2,0.3,0.3,0.6,0.2c0.1,0,0.1,0,0.1,0.2c0,0.1,0,0.2-0.1,0.2c-0.1,0-0.1,0-0.2,0c-0.1,0-0.3,0-0.6,0.1
		c-0.1,0-0.3,0.1-0.4,0.1c-0.2,0-0.4,0.1-0.5,0.2c-0.2,0.1-0.3,0.2-0.4,0.2c-0.1,0-0.1,0-0.1-0.2c0-0.1,0-0.2,0.1-0.2
		c0.2-0.1,0.3-0.3,0.3-0.5c0.1-0.2,0.1-0.6,0.1-1.2c0-1.9,0-3.7,0-5.6c0-0.6-0.1-0.9-0.2-1.1c-0.1-0.2-0.3-0.2-0.6-0.2
		c-0.1,0-0.1,0-0.1-0.1c0-0.1,0-0.2,0.1-0.2c0,0,0.1,0,0.2,0c0.2,0,0.3,0,0.5-0.1c0.2-0.1,0.5-0.1,0.7-0.2c0.3-0.1,0.7-0.2,1-0.3
		c0.4-0.1,0.7-0.2,1.1-0.4c0.1-0.1,0.2-0.1,0.3-0.1c0.1,0,0.1,0.1,0.1,0.3c0,0.3,0,0.5,0,0.5c0,0.2,0,0.3,0,0.5c0,0.1,0,0.2,0,0.3
		c0,0.4-0.1,0.6-0.2,0.6c-0.1,0-0.1,0-0.1-0.2c0-0.1,0-0.2,0-0.2c0-0.1,0-0.2,0-0.2c-0.1-0.6-0.4-0.8-1-0.6c-0.2,0-0.3,0.1-0.5,0.1
		c-0.1,0-0.1,0-0.2,0c-0.1,0-0.3,0.1-0.3,0.2c-0.1,0.1-0.1,0.3-0.1,0.5C109.1,134.4,109.1,135.1,109.1,135.8L109.1,135.8z"/>
	<path class="st1" d="M112.3,138.7c0.1,0,0.2,0.1,0.3,0.2c0.1,0.1,0.2,0.2,0.2,0.4c0.1,0.1,0.1,0.2,0.2,0.2c0,0.1,0,0.1,0,0.2
		c0,0.1-0.1,0.3-0.2,0.5c-0.1,0.1-0.1,0.3-0.2,0.4c-0.1,0.3-0.2,0.4-0.3,0.4c-0.1,0-0.1,0-0.2-0.2c-0.1-0.2-0.2-0.3-0.3-0.4
		c-0.1-0.2-0.2-0.3-0.2-0.4c0-0.1,0.1-0.3,0.2-0.5c0.1-0.1,0.1-0.3,0.2-0.5C112.1,138.8,112.2,138.7,112.3,138.7L112.3,138.7z"/>
	<path class="st1" d="M116.3,130.2c0.5-0.2,0.9-0.1,1.3,0.1c0.1,0.1,0.2,0.1,0.3,0.2c0.1,0,0.1,0,0.1,0c0.1,0,0.1-0.1,0.1-0.1
		c0-0.1,0.1-0.2,0.1-0.2c0,0,0-0.1,0.1-0.1c0.1,0,0.1,0.1,0.1,0.4c0,0.2,0,0.3,0,0.5c0,0.2,0,0.4,0,0.6c0,0.2,0,0.3,0,0.5
		c0,0.1,0,0.2,0,0.3c0,0.1,0,0.3,0,0.4c0,0.2,0,0.3-0.1,0.3c0,0-0.1,0-0.1-0.1c0-0.2-0.1-0.4-0.2-0.7c-0.1-0.3-0.2-0.6-0.3-0.7
		c-0.4-0.7-0.9-1-1.5-0.8c-0.5,0.2-0.9,0.6-1.2,1.4c-0.3,0.8-0.5,1.7-0.5,2.9c0,1.5,0.3,2.5,0.8,3.3c0.4,0.5,0.8,0.7,1.2,0.6
		c0.3-0.1,0.5-0.3,0.8-0.6c0.3-0.3,0.5-0.7,0.7-1c0.1-0.2,0.2-0.4,0.3-0.6c0-0.1,0.1-0.1,0.1-0.1c0,0,0.1,0,0.1,0.1
		c0,0.2-0.1,0.5-0.3,1c-0.5,1.2-1.2,2-2,2.2c-0.8,0.2-1.4,0-1.8-0.7c-0.5-0.7-0.7-1.7-0.7-3.1c0-0.7,0.1-1.5,0.3-2.3
		c0.2-0.8,0.4-1.4,0.7-2C115.1,131,115.7,130.4,116.3,130.2L116.3,130.2z"/>
	<path class="st3" d="M48.7,54.3c0-0.9,0.9-1.7,2.3-2.3c2.7-1.1,6.6-2,9.6-2.3v5c0,0-2.2-0.8-4.6-0.3C54.3,54.9,48.7,55.9,48.7,54.3
		L48.7,54.3z"/>
	<path class="st2" d="M48.1,50.8c0,0,0,2.7,0,3.4c0,0.7,0.8,1.4,2.3,1.5c0.9,0,3.6-0.3,5.1-0.6c1.7-0.4,4.8-0.4,4.8,0.8
		c0,1.6-2.9,2.7-5.7,2.7c-2.9,0-4.9-1.3-6-1.6c-1.1-0.4-4.7-1.2-5.3,0.5c0-2.9,0-6,0-6s0.9-0.9,2.7-0.9
		C46.9,50.6,48.1,50.8,48.1,50.8L48.1,50.8z"/>
	<path class="st2" d="M45.2,59.5c0,0,1.2,1,2.3,1.8c-1.4,0.6-2.3,0.8-2.3,0.8V59.5L45.2,59.5z"/>
	<path class="st3" d="M43.4,58c-0.7-0.4,1.4-1.6,2.7-1.2c1.2,0.3,2.6,1.8,2.5,3.2c-0.2,1.4-0.7,1-0.7,1S46,59.4,43.4,58L43.4,58z"/>
	<path class="st3" d="M112,54.3c0-0.9-0.9-1.7-2.3-2.3c-2.7-1.1-6.6-2-9.6-2.3v5c0,0,2.2-0.8,4.6-0.3
		C106.3,54.9,111.9,55.9,112,54.3L112,54.3z"/>
	<path class="st2" d="M112.5,50.8c0,0,0,2.7,0,3.4c0,0.7-0.8,1.4-2.3,1.5c-0.9,0-3.6-0.3-5.1-0.6c-1.7-0.4-4.8-0.4-4.8,0.8
		c0,1.6,2.9,2.7,5.7,2.7c2.9,0,4.9-1.3,6-1.6c1.1-0.4,4.7-1.2,5.3,0.5c0-2.9,0-6,0-6s-0.9-0.9-2.7-0.9
		C113.7,50.6,112.5,50.8,112.5,50.8L112.5,50.8z"/>
	<path class="st2" d="M115.4,59.5c0,0-1.2,1-2.3,1.8c1.4,0.6,2.3,0.8,2.3,0.8V59.5L115.4,59.5z"/>
	<path class="st3" d="M117.2,58c0.7-0.4-1.4-1.6-2.7-1.2c-1.2,0.3-2.6,1.8-2.5,3.2c0.2,1.4,0.7,1,0.7,1S114.6,59.4,117.2,58
		L117.2,58z"/>
	<path class="st2" d="M80.2,47.7c20.7,0,29.6,3.2,31.8,5.2v-5.1c0,0,0-1.5-5.3-2.7c-4.7-1-15.1-2.7-26.4-2.7h0.2
		c-11.3,0-21.7,1.7-26.4,2.7c-5.4,1.1-5.3,2.7-5.3,2.7v5.1c2.2-1.9,11.1-5.2,31.8-5.2H80.2L80.2,47.7z"/>
	<path class="st1" d="M52.2,46.2c0.2-0.1,0.5,0,0.6,0.1c0,0,0.1,0.1,0.1,0.1c0,0,0,0,0.1,0c0,0,0,0,0.1-0.1c0,0,0-0.1,0-0.1
		c0,0,0,0,0,0c0,0,0.1,0,0.1,0.2c0,0.1,0,0.1,0,0.2c0,0.1,0,0.2,0,0.2c0,0.1,0,0.1,0,0.2c0,0,0,0.1,0,0.1c0,0.1,0,0.1,0,0.2
		c0,0.1,0,0.1-0.1,0.1c0,0,0,0,0-0.1c0-0.1,0-0.2-0.1-0.3c-0.1-0.1-0.1-0.2-0.2-0.3c-0.2-0.3-0.5-0.4-0.8-0.3
		c-0.2,0.1-0.4,0.2-0.6,0.5c-0.2,0.3-0.2,0.7-0.2,1.1c0,0.6,0.1,1,0.4,1.3c0.2,0.2,0.4,0.3,0.6,0.3c0.1,0,0.3-0.1,0.4-0.2
		c0.1-0.1,0.3-0.2,0.3-0.4c0-0.1,0.1-0.1,0.1-0.2c0,0,0-0.1,0.1-0.1c0,0,0,0,0,0.1c0,0.1-0.1,0.2-0.2,0.4c-0.3,0.5-0.6,0.8-1,0.8
		c-0.4,0.1-0.7,0-0.9-0.3c-0.2-0.3-0.4-0.7-0.4-1.2c0-0.3,0-0.6,0.1-0.9c0.1-0.3,0.2-0.6,0.4-0.8C51.6,46.5,51.9,46.3,52.2,46.2
		L52.2,46.2z"/>
	<path class="st1" d="M55,45.6c0.4-0.1,0.7,0,1,0.3c0.3,0.3,0.4,0.7,0.4,1.2c0,0.6-0.1,1.1-0.4,1.5c-0.3,0.4-0.6,0.7-1,0.8
		c-0.4,0.1-0.8,0-1-0.3c-0.3-0.3-0.4-0.7-0.4-1.3c0-0.2,0-0.5,0.1-0.8c0.1-0.3,0.2-0.5,0.3-0.7c0.1-0.2,0.3-0.4,0.5-0.5
		C54.6,45.8,54.8,45.7,55,45.6L55,45.6L55,45.6z M54.8,45.9c-0.3,0.1-0.5,0.2-0.6,0.5c-0.1,0.3-0.2,0.7-0.2,1.2c0,0.6,0.1,1,0.3,1.3
		c0.2,0.3,0.4,0.4,0.7,0.4c0.3-0.1,0.5-0.2,0.6-0.6c0.2-0.3,0.2-0.7,0.2-1.2c0-0.3,0-0.6-0.1-0.8c-0.1-0.3-0.2-0.5-0.3-0.6
		C55.3,45.9,55.1,45.8,54.8,45.9L54.8,45.9z"/>
	<path class="st1" d="M57.7,45.8c0.3,0.5,0.7,1,1,1.4c0,0,0,0.1,0.1,0.1c0.1,0.1,0.1,0.2,0.2,0.2c0,0,0-0.1,0-0.2c0-0.4,0-0.8,0-1.1
		c0-0.4,0-0.7-0.1-0.8c-0.1-0.1-0.2-0.2-0.4-0.2c0,0-0.1,0-0.1-0.1c0,0,0-0.1,0.1-0.1c0,0,0.1,0,0.2,0c0.1,0,0.1,0,0.2,0
		c0.1,0,0.2-0.1,0.4-0.1c0,0,0,0,0.1,0c0,0,0.1,0,0.1,0.1c0,0,0,0.1-0.1,0.1c-0.2,0.1-0.3,0.3-0.3,0.7c0,0,0,0.1,0,0.1
		c0,0.6,0,1.1,0,1.7c0,0.1,0,0.2,0,0.2c0,0.1,0,0.2,0,0.3c0,0.1,0,0.1,0,0.2c0,0.1,0,0.2,0,0.3c0,0.1,0,0.1,0,0.1c0,0,0,0-0.1,0
		c-0.6-0.8-1.2-1.6-1.8-2.4c0,0-0.1-0.1-0.1-0.1c0,0,0,0,0,0.1c0,0,0,0.1,0,0.1c0,0.3,0,0.7,0,1c0,0.6,0,0.9,0.1,1.1
		c0,0.2,0.2,0.3,0.4,0.3c0,0,0.1,0,0.1,0.1c0,0.1,0,0.1-0.1,0.1c0,0,0,0-0.1,0c-0.1,0-0.2,0-0.4,0c-0.1,0-0.3,0.1-0.4,0.1
		c0,0-0.1,0-0.1,0c0,0-0.1,0-0.1-0.1c0,0,0-0.1,0.1-0.1c0.1-0.1,0.2-0.1,0.2-0.3c0-0.1,0.1-0.3,0.1-0.5c0-0.2,0-0.4,0-0.6
		c0-0.4,0-0.8,0-1.2c0-0.6-0.1-0.8-0.4-0.8c0,0-0.1,0-0.1-0.1c0-0.1,0-0.1,0.1-0.1c0,0,0.1,0,0.1,0c0,0,0.1,0,0.1,0
		c0.1,0,0.2,0,0.3-0.1c0,0,0.1,0,0.1,0c0,0,0.1,0,0.1,0c0,0,0.1,0.1,0.1,0.2c0,0.1,0.1,0.1,0.1,0.2C57.6,45.8,57.7,45.8,57.7,45.8
		L57.7,45.8z"/>
	<path class="st1" d="M60.5,44.7c0.1,0,0.2,0,0.4,0c0,0,0.1,0,0.1,0.1c0.1,0,0.1,0,0.1,0c0,0,0,0,0.1,0c0,0,0.1,0,0.1-0.1
		c0,0,0,0,0,0c0,0,0,0,0,0.1c0,0.1,0,0.1,0,0.2c0,0,0,0.1,0,0.1c0,0.1,0,0.2,0,0.3c0,0.1,0,0.2,0,0.2c0,0,0,0,0,0.1
		c0,0.1,0,0.1,0,0.1c0,0,0,0-0.1-0.1c0-0.2-0.1-0.4-0.3-0.6c-0.2-0.2-0.3-0.2-0.5-0.2c-0.1,0-0.2,0.1-0.3,0.2
		c-0.1,0.1-0.1,0.3-0.1,0.4c0,0.1,0,0.3,0.1,0.3c0,0.1,0.2,0.1,0.5,0.2c0.3,0.1,0.5,0.3,0.6,0.4c0.1,0.2,0.2,0.4,0.2,0.7
		c0,0.3-0.1,0.6-0.2,0.9c-0.2,0.3-0.4,0.4-0.6,0.4c-0.1,0-0.2,0-0.4-0.1c-0.1,0-0.2,0-0.2-0.1c-0.1,0-0.1,0-0.1,0c0,0,0-0.1,0-0.1
		c0-0.1,0-0.2-0.1-0.4c-0.1-0.2-0.1-0.4-0.1-0.5c0-0.1,0-0.1,0.1-0.1c0,0,0,0,0,0.1c0.1,0.3,0.2,0.5,0.3,0.7
		c0.2,0.2,0.3,0.3,0.5,0.2c0.1,0,0.3-0.1,0.4-0.3c0.1-0.2,0.2-0.3,0.2-0.5c0-0.1,0-0.3-0.1-0.3c-0.1-0.1-0.1-0.2-0.3-0.2
		c-0.1,0-0.2-0.1-0.3-0.1c-0.3-0.1-0.5-0.3-0.6-0.4c-0.1-0.1-0.2-0.3-0.2-0.6c0-0.3,0.1-0.6,0.2-0.8C60.1,44.9,60.2,44.7,60.5,44.7
		L60.5,44.7z"/>
	<path class="st1" d="M62.5,45.1c0,0.2,0,0.4,0,0.6c0,0.2,0,0.3,0,0.3c0,0,0.1,0.1,0.1,0.1c0,0,0,0,0.1,0c0,0,0.1,0,0.1,0
		c0.1,0,0.1,0,0.2,0c0.1,0,0.2-0.1,0.3-0.3c0,0,0-0.1,0-0.1c0,0,0-0.1,0.1-0.1c0,0,0,0,0,0.1c0,0,0,0.1,0,0.1c0,0,0,0.1,0,0.1
		c0,0.1,0,0.2,0,0.4c0,0.1,0,0.3,0,0.4c0,0,0,0.1,0,0.1c0,0,0,0,0,0.1c0,0,0,0,0,0c0,0-0.1,0-0.1-0.1c0-0.2-0.1-0.3-0.1-0.3
		c0,0-0.1-0.1-0.1-0.1c0,0-0.1,0-0.3,0c0,0-0.1,0-0.1,0c-0.1,0-0.1,0-0.1,0.1c0,0,0,0.1,0,0.2c0,0.1,0,0.2,0,0.4c0,0.1,0,0.2,0,0.2
		c0,0.3,0,0.4,0,0.5c0,0.1,0,0.1,0.1,0.2c0,0,0.1,0,0.1,0c0.5-0.1,0.9-0.3,1-0.8c0,0,0,0,0,0c0,0,0,0,0,0c0,0,0,0,0,0.1
		c0,0.2,0,0.4-0.1,0.5c-0.1,0.1-0.1,0.3-0.2,0.3c-0.1,0.1-0.2,0.1-0.3,0.1c-0.1,0-0.2,0-0.3,0c-0.1,0-0.2,0-0.2,0
		c-0.1,0-0.2,0-0.3,0c-0.1,0-0.2,0-0.4,0.1c-0.1,0-0.1,0-0.1,0c0,0,0,0-0.1-0.1c0,0,0-0.1,0-0.1c0.1,0,0.1-0.1,0.2-0.1
		c0,0,0-0.1,0.1-0.2c0-0.1,0-0.2,0-0.4c0-0.7,0-1.4,0-2.1c0-0.2,0-0.3-0.1-0.4c0-0.1-0.1-0.1-0.3-0.1c0,0-0.1,0-0.1-0.1
		c0,0,0-0.1,0.1-0.1c0,0,0,0,0.1,0c0,0,0.1,0,0.1,0c0.1,0,0.1,0,0.2,0c0.2,0,0.5-0.1,0.7-0.1c0.4-0.1,0.7-0.1,0.8-0.1c0,0,0,0,0,0
		c0,0,0.1,0,0.1,0.1c0,0,0,0.1,0,0.2c0,0.2,0,0.3,0,0.3c0,0.1,0,0.2-0.1,0.2c0,0,0,0,0-0.1c0-0.2,0-0.3-0.1-0.4
		c-0.1-0.1-0.3-0.1-0.5-0.1c-0.1,0-0.2,0-0.2,0c0,0-0.1,0-0.1,0c-0.1,0-0.1,0.1-0.1,0.3C62.5,45,62.5,45.1,62.5,45.1L62.5,45.1z"/>
	<path class="st1" d="M65.4,44.1c0.2,0,0.5,0,0.6,0.1c0,0,0.1,0.1,0.1,0.1c0,0,0.1,0,0.1,0c0,0,0,0,0.1-0.1c0,0,0-0.1,0-0.1
		c0,0,0,0,0,0c0,0,0.1,0.1,0.1,0.2c0,0.1,0,0.1,0,0.2c0,0.1,0,0.2,0,0.2c0,0.1,0,0.1,0,0.2c0,0,0,0.1,0,0.1c0,0.1,0,0.1,0,0.2
		c0,0.1,0,0.1-0.1,0.1c0,0,0,0,0-0.1c0-0.1,0-0.2-0.1-0.3c-0.1-0.1-0.1-0.2-0.2-0.3c-0.2-0.3-0.5-0.5-0.8-0.4
		c-0.2,0-0.5,0.2-0.6,0.5c-0.2,0.3-0.2,0.7-0.2,1.1c0,0.6,0.1,1,0.4,1.4c0.2,0.2,0.4,0.3,0.6,0.3c0.1,0,0.3-0.1,0.4-0.2
		c0.1-0.1,0.3-0.2,0.4-0.4c0-0.1,0.1-0.1,0.1-0.2c0,0,0,0,0.1-0.1c0,0,0,0,0,0.1c0,0.1-0.1,0.2-0.2,0.4c-0.3,0.4-0.6,0.7-1,0.7
		c-0.4,0-0.7-0.1-0.9-0.4c-0.2-0.3-0.4-0.7-0.4-1.3c0-0.3,0-0.6,0.1-0.9c0.1-0.3,0.2-0.5,0.4-0.7C64.8,44.3,65.1,44.1,65.4,44.1
		L65.4,44.1z"/>
	<path class="st1" d="M68.2,44.5c0,0.7,0,1.4,0,2c0,0.3,0,0.5,0.1,0.6c0.1,0.1,0.2,0.2,0.3,0.2c0,0,0.1,0,0.1,0.1c0,0,0,0.1-0.1,0.1
		c0,0,0,0,0,0c0,0-0.1,0-0.1,0c-0.1,0-0.2,0-0.2,0c0,0,0,0-0.1,0c-0.1,0-0.1,0-0.2,0c-0.1,0-0.3,0.1-0.4,0.1c0,0-0.1,0-0.1,0
		c0,0-0.1,0-0.1-0.1c0,0,0-0.1,0-0.1c0,0,0,0,0.1,0c0.1,0,0.2-0.1,0.2-0.2c0.1-0.1,0.1-0.2,0.1-0.4c0,0,0-0.1,0-0.1
		c0-0.8,0-1.6,0-2.4c0-0.1-0.1-0.2-0.2-0.2c-0.3,0-0.4,0.1-0.5,0.1c-0.1,0-0.1,0.1-0.1,0.1c0,0.1-0.1,0.2-0.1,0.4c0,0,0,0.1,0,0.1
		c0,0.1,0,0.1-0.1,0.1c0,0-0.1,0-0.1-0.1c0-0.1,0-0.1,0-0.2c0-0.1,0-0.2,0-0.2c0-0.1,0-0.2,0-0.2c0-0.1,0-0.1,0-0.2
		c0-0.1,0-0.1,0.1-0.1c0,0,0,0,0.1,0c0.1,0,0.1,0,0.2,0c0.1,0,0.3,0,0.4,0c0.2,0,0.3,0,0.5,0c0.3,0,0.6-0.1,1-0.1c0.1,0,0.1,0,0.1,0
		c0.1,0,0.1,0,0.1,0.1c0,0.1,0,0.1,0,0.2c0,0,0,0.1,0,0.2c0,0.1,0,0.2,0,0.2c0,0.1,0,0.1-0.1,0.1c0,0-0.1,0-0.1-0.1
		c0-0.2-0.1-0.3-0.2-0.3c-0.1-0.1-0.2-0.1-0.3-0.1c-0.2,0-0.3,0-0.4,0.1C68.2,44.2,68.2,44.4,68.2,44.5L68.2,44.5z"/>
	<path class="st1" d="M70.6,44c0.3,0.9,0.6,1.8,0.9,2.8c0,0.1,0.1,0.2,0.2,0.3c0.1,0.1,0.1,0.1,0.2,0.1c0,0,0,0,0,0.1
		c0,0.1,0,0.1,0,0.1c0,0,0,0-0.1,0c-0.1,0-0.3,0-0.5,0c-0.2,0-0.4,0-0.5,0.1c0,0,0,0-0.1,0c0,0-0.1,0-0.1-0.1c0,0,0,0,0-0.1
		c0.1,0,0.1-0.1,0.2-0.1C71,47,71,47,71,46.9c0-0.1-0.1-0.3-0.2-0.7c0-0.1-0.1-0.2-0.1-0.2c0,0-0.2,0-0.5,0c-0.1,0-0.2,0-0.3,0
		c-0.1,0-0.1,0-0.2,0.1c0,0-0.1,0.2-0.2,0.4c0,0.1,0,0.1-0.1,0.2c0,0.1,0,0.1,0,0.2c0,0.2,0.1,0.3,0.3,0.4c0.1,0,0.1,0,0.1,0.1
		c0,0,0,0.1-0.1,0.1c0,0-0.1,0-0.1,0c-0.1,0-0.2,0-0.2,0c-0.1,0-0.2,0-0.3,0c-0.1,0-0.2,0-0.2,0c0,0-0.1,0-0.1-0.1
		c0,0,0-0.1,0.1-0.1c0.1,0,0.1-0.1,0.2-0.2c0-0.1,0.1-0.3,0.2-0.5c0.2-0.6,0.4-1.2,0.5-1.7c0-0.1,0.1-0.2,0.1-0.3
		c0.1-0.2,0.1-0.4,0.2-0.5c0-0.1,0.1-0.2,0.1-0.3c0,0,0,0,0,0c0-0.1,0.1-0.2,0.1-0.2c0,0,0.1,0.1,0.1,0.2
		C70.6,43.9,70.6,43.9,70.6,44L70.6,44L70.6,44z M70.7,45.7c-0.1-0.3-0.2-0.5-0.3-0.8c-0.1-0.2-0.1-0.3-0.1-0.3c0,0,0,0.1-0.1,0.2
		c0,0,0,0.1,0,0.1c-0.1,0.2-0.2,0.5-0.2,0.7c0,0,0,0,0,0.1c0,0,0,0.1,0,0.1c0,0.1,0,0.1,0.1,0.1c0.2,0,0.4,0,0.6,0
		C70.7,45.8,70.7,45.8,70.7,45.7C70.7,45.7,70.7,45.7,70.7,45.7C70.7,45.7,70.7,45.7,70.7,45.7L70.7,45.7z"/>
	<path class="st1" d="M73.3,44.2c0,0.7,0,1.4,0,2c0,0.3,0,0.5,0.1,0.6c0.1,0.1,0.2,0.2,0.3,0.2c0,0,0.1,0,0.1,0.1c0,0,0,0.1-0.1,0.1
		c0,0,0,0,0,0c0,0-0.1,0-0.1,0c-0.1,0-0.2,0-0.2,0c0,0,0,0-0.1,0c-0.1,0-0.1,0-0.2,0c-0.1,0-0.3,0-0.4,0.1c0,0-0.1,0-0.1,0
		c0,0-0.1,0-0.1-0.1c0,0,0-0.1,0-0.1c0,0,0,0,0.1,0c0.1,0,0.2-0.1,0.2-0.2c0.1-0.1,0.1-0.2,0.1-0.4c0,0,0-0.1,0-0.1
		c0-0.8,0-1.6,0-2.4c0-0.1-0.1-0.2-0.2-0.2c-0.3,0-0.4,0.1-0.5,0.1C72.1,44,72,44,72,44.1c0,0.1-0.1,0.2-0.1,0.4c0,0,0,0.1,0,0.1
		c0,0.1,0,0.1-0.1,0.1c0,0-0.1,0-0.1-0.1c0-0.1,0-0.1,0-0.2c0-0.1,0-0.2,0-0.2c0-0.1,0-0.2,0-0.2c0-0.1,0-0.1,0-0.2
		c0-0.1,0-0.1,0.1-0.1c0,0,0,0,0.1,0c0.1,0,0.1,0,0.2,0c0.1,0,0.3,0,0.4,0c0.2,0,0.3,0,0.5,0c0.3,0,0.6,0,1-0.1c0.1,0,0.1,0,0.1,0
		c0.1,0,0.1,0,0.1,0.1c0,0.1,0,0.1,0,0.2c0,0,0,0.1,0,0.2c0,0.1,0,0.2,0,0.2c0,0.1,0,0.1-0.1,0.1c0,0-0.1,0-0.1-0.1
		c0-0.2-0.1-0.3-0.2-0.4c-0.1-0.1-0.2-0.1-0.3-0.1c-0.2,0-0.3,0-0.4,0.1C73.3,43.9,73.3,44,73.3,44.2L73.3,44.2z"/>
	<path class="st1" d="M75.3,46.3c0,0.1,0,0.2,0,0.3c0,0.1,0.1,0.2,0.1,0.3c0.1,0.1,0.1,0.1,0.2,0.1c0.1,0,0.1,0,0.1,0.1
		c0,0.1,0,0.1-0.1,0.1c0,0-0.1,0-0.2,0c-0.2,0-0.3,0-0.4,0c-0.1,0-0.2,0-0.3,0c-0.1,0-0.1,0-0.1,0c0,0,0,0-0.1-0.1c0,0,0,0,0,0
		c0,0,0,0,0.1-0.1c0.1-0.1,0.2-0.1,0.2-0.2c0-0.1,0-0.2,0-0.3c0-0.1,0-0.2,0-0.2c0-0.7,0-1.4,0-2.2c0-0.2,0-0.3-0.1-0.4
		c0-0.1-0.1-0.1-0.2-0.1c-0.1,0-0.1,0-0.1,0c0,0,0,0,0-0.1c0-0.1,0-0.1,0-0.1c0,0,0.1,0,0.1,0c0,0,0.1,0,0.2,0c0.1,0,0.2,0,0.3,0
		c0,0,0.1,0,0.1,0c0.1,0,0.2,0,0.3,0c0,0,0.1,0,0.1,0.1c0,0,0,0.1,0,0.1c0,0,0,0,0,0c-0.1,0-0.2,0.1-0.2,0.1c0,0.1,0,0.2,0,0.3
		C75.3,44.7,75.3,45.5,75.3,46.3L75.3,46.3z"/>
	<path class="st1" d="M77.4,43.3c0.4,0,0.7,0.2,1,0.5c0.3,0.3,0.4,0.8,0.4,1.3c0,0.6-0.1,1.1-0.4,1.5c-0.3,0.4-0.6,0.6-1.1,0.6
		c-0.4,0-0.8-0.2-1-0.5c-0.3-0.3-0.4-0.8-0.4-1.4c0-0.2,0-0.5,0.1-0.7c0.1-0.2,0.2-0.5,0.3-0.6c0.1-0.2,0.3-0.4,0.5-0.5
		C77,43.4,77.2,43.3,77.4,43.3L77.4,43.3L77.4,43.3z M77.3,43.5c-0.3,0-0.5,0.1-0.6,0.4c-0.1,0.3-0.2,0.6-0.2,1.1
		c0,0.6,0.1,1,0.3,1.4c0.2,0.4,0.4,0.5,0.7,0.5c0.3,0,0.5-0.2,0.6-0.5c0.2-0.3,0.2-0.7,0.2-1.2c0-0.3,0-0.6-0.1-0.8
		c-0.1-0.3-0.2-0.5-0.3-0.6C77.7,43.6,77.5,43.5,77.3,43.5L77.3,43.5z"/>
	<path class="st1" d="M80.9,44c0,0.2,0,0.4,0,0.6c0,0.2,0,0.3,0,0.3c0,0,0.1,0.1,0.1,0.1c0,0,0,0,0.1,0c0,0,0.1,0,0.1,0
		c0.1,0,0.1,0,0.2,0c0.1,0,0.2-0.1,0.3-0.3c0,0,0-0.1,0-0.1c0,0,0,0,0.1-0.1c0,0,0,0,0,0.1c0,0,0,0.1,0,0.1c0,0,0,0.1,0,0.1
		c0,0.1,0,0.2,0,0.4c0,0.1,0,0.3,0,0.4c0,0,0,0.1,0,0.1c0,0,0,0,0,0.1c0,0,0,0,0,0c0,0-0.1,0-0.1-0.1c0-0.2-0.1-0.3-0.1-0.3
		c0,0-0.1-0.1-0.1-0.1c0,0-0.1,0-0.3,0c0,0-0.1,0-0.1,0c-0.1,0-0.1,0-0.1,0c0,0,0,0.1,0,0.2c0,0.1,0,0.2,0,0.4c0,0.1,0,0.2,0,0.2
		c0,0.3,0,0.4,0,0.5c0,0.1,0,0.1,0.1,0.2c0,0,0.1,0,0.1,0c0.5,0,0.9-0.2,1.1-0.7c0,0,0,0,0,0c0,0,0,0,0,0c0,0,0,0,0,0.1
		c0,0.2,0,0.3-0.1,0.5C82.1,46.9,82,47,81.9,47c-0.1,0.1-0.2,0.1-0.3,0.1c-0.1,0-0.2,0-0.3,0c-0.1,0-0.2,0-0.2,0c-0.1,0-0.2,0-0.3,0
		c-0.1,0-0.2,0-0.4,0c-0.1,0-0.1,0-0.1,0c0,0,0,0-0.1-0.1c0,0,0-0.1,0-0.1c0.1,0,0.1-0.1,0.2-0.1c0,0,0-0.1,0.1-0.2
		c0-0.1,0-0.2,0-0.4c0-0.7,0-1.4,0-2.1c0-0.2,0-0.3-0.1-0.4c0-0.1-0.1-0.1-0.3-0.2c0,0-0.1,0-0.1-0.1c0,0,0-0.1,0.1-0.1
		c0,0,0,0,0.1,0c0,0,0.1,0,0.1,0c0.1,0,0.1,0,0.2,0c0.3,0,0.5,0,0.8,0c0.4,0,0.7,0,0.8,0c0,0,0,0,0,0c0,0,0.1,0,0.1,0.1
		c0,0,0,0.1,0,0.2c0,0.2,0,0.3,0,0.3c0,0.1,0,0.2-0.1,0.2c0,0,0,0,0-0.1c0-0.2,0-0.3-0.1-0.4c-0.1-0.1-0.3-0.1-0.5-0.1
		c-0.1,0-0.2,0-0.2,0c0,0-0.1,0-0.1,0c-0.1,0-0.1,0.1-0.1,0.3C80.9,43.9,80.9,43.9,80.9,44L80.9,44z"/>
	<path class="st1" d="M84.2,43.4C84.2,43.4,84.2,43.4,84.2,43.4c0.2,0,0.3,0,0.4,0c0.1,0,0.1,0,0.2,0c0.1,0,0.2,0,0.2,0
		c0,0,0.1,0,0.1,0c0,0,0.1,0,0.1,0.1c0,0,0,0.1-0.1,0.1c-0.1,0-0.2,0.1-0.3,0.1c-0.2,0.2-0.4,0.4-0.6,0.8c-0.2,0.3-0.2,0.4-0.3,0.4
		C84,45,84,45,84,45c0,0,0,0.1,0.1,0.3c0,0.1,0.1,0.2,0.3,0.5c0.2,0.4,0.4,0.8,0.6,1c0.1,0.1,0.2,0.2,0.4,0.2c0,0,0.1,0,0.1,0.1
		c0,0,0,0.1-0.1,0.1c0,0,0,0-0.1,0c-0.1,0-0.2,0-0.2,0c-0.1,0-0.2,0-0.3,0c-0.1,0-0.1,0-0.2,0c-0.1,0-0.1,0-0.2,0
		c-0.1,0-0.1,0-0.2,0c0,0-0.1,0-0.1-0.1c0-0.1,0-0.1,0.1-0.1c0.1,0,0.2-0.1,0.2-0.2c0-0.1,0-0.2-0.1-0.3c-0.1-0.1-0.2-0.4-0.4-0.7
		c0-0.1-0.1-0.1-0.1-0.2c0,0,0,0,0,0c0,0,0,0,0,0c0,0.1-0.1,0.1-0.1,0.2c-0.3,0.5-0.4,0.8-0.4,0.9c0,0.1,0.1,0.2,0.3,0.3
		c0,0,0.1,0,0.1,0.1c0,0,0,0.1,0,0.1c0,0,0,0-0.1,0c-0.2,0-0.3,0-0.5,0c0,0-0.1,0-0.2,0c-0.1,0-0.1,0-0.2,0c0,0-0.1,0-0.1,0
		c0,0,0,0-0.1,0c0,0,0,0,0,0c0,0,0-0.1,0.1-0.1c0.1,0,0.2-0.1,0.3-0.2c0.1-0.1,0.2-0.3,0.4-0.6c0.2-0.2,0.3-0.4,0.3-0.5
		c0.1-0.1,0.1-0.2,0.1-0.3c0,0,0-0.1-0.1-0.3c-0.1-0.1-0.1-0.3-0.2-0.4c-0.2-0.5-0.4-0.8-0.5-0.9c-0.1-0.1-0.2-0.2-0.3-0.2
		c0,0-0.1,0-0.1-0.1c0-0.1,0-0.1,0.1-0.1c0,0,0.1,0,0.1,0c0.2,0,0.4,0,0.5,0c0.1,0,0.2,0,0.3,0c0.1,0,0.1,0,0.2,0c0.1,0,0.1,0,0.1,0
		c0,0,0.1,0,0.1,0.1c0,0.1,0,0.1-0.1,0.1c0,0-0.1,0-0.1,0.1c0,0,0,0.1,0,0.1c0,0.1,0.1,0.3,0.1,0.5c0,0.1,0.1,0.2,0.1,0.3
		c0,0.1,0.1,0.2,0.1,0.3c0,0.1,0.1,0.1,0.1,0.1c0,0,0,0,0.1,0c0,0,0.1-0.1,0.1-0.1c0.1-0.1,0.1-0.2,0.2-0.3c0.1-0.2,0.2-0.3,0.2-0.3
		c0-0.1,0-0.1,0-0.2c0-0.1-0.1-0.2-0.2-0.2c0,0-0.1,0-0.1,0C84.1,43.5,84.1,43.5,84.2,43.4C84.1,43.4,84.1,43.4,84.2,43.4L84.2,43.4
		z"/>
	<path class="st1" d="M86.6,43.4c0.2,0,0.5,0.1,0.6,0.2c0,0,0.1,0.1,0.1,0.1c0,0,0.1,0,0.1,0c0,0,0,0,0.1,0c0,0,0-0.1,0-0.1
		c0,0,0,0,0,0c0,0,0.1,0.1,0.1,0.2c0,0.1,0,0.1,0,0.2c0,0.1,0,0.2,0,0.2c0,0.1,0,0.1,0,0.2c0,0,0,0.1,0,0.1c0,0.1,0,0.1,0,0.2
		c0,0.1,0,0.1-0.1,0.1c0,0,0,0,0-0.1c0-0.1,0-0.2-0.1-0.3c-0.1-0.1-0.1-0.3-0.2-0.3c-0.2-0.3-0.5-0.5-0.8-0.5
		c-0.2,0-0.5,0.1-0.6,0.4c-0.2,0.3-0.2,0.6-0.2,1.1c0,0.6,0.1,1.1,0.4,1.4c0.2,0.3,0.4,0.4,0.6,0.4c0.1,0,0.3,0,0.4-0.1
		c0.1-0.1,0.3-0.2,0.4-0.3c0-0.1,0.1-0.1,0.1-0.2c0,0,0,0,0.1,0c0,0,0,0,0,0.1c0,0.1-0.1,0.2-0.2,0.3c-0.3,0.4-0.6,0.6-1,0.6
		c-0.4,0-0.7-0.2-0.9-0.6c-0.2-0.3-0.4-0.8-0.4-1.3c0-0.3,0-0.6,0.1-0.9c0.1-0.3,0.2-0.5,0.4-0.7C86,43.5,86.3,43.4,86.6,43.4
		L86.6,43.4z"/>
	<path class="st1" d="M88.7,44.2c0,0.2,0,0.4,0,0.6c0,0.2,0,0.3,0,0.3c0,0,0.1,0.1,0.1,0.1c0,0,0,0,0.1,0c0,0,0.1,0,0.1,0
		c0.1,0,0.1,0,0.2,0c0.1,0,0.2-0.1,0.3-0.3c0,0,0-0.1,0-0.1c0,0,0,0,0.1,0c0,0,0,0,0,0.1c0,0,0,0.1,0,0.1c0,0,0,0.1,0,0.1
		c0,0.1,0,0.2,0,0.4c0,0.1,0,0.3,0,0.4c0,0,0,0.1,0,0.1c0,0,0,0,0,0.1c0,0,0,0,0,0c0,0-0.1,0-0.1-0.1c0-0.2-0.1-0.3-0.1-0.4
		c0,0-0.1-0.1-0.1-0.1c0,0-0.1,0-0.3,0c0,0-0.1,0-0.1,0c-0.1,0-0.1,0-0.1,0c0,0,0,0.1,0,0.2c0,0.1,0,0.2,0,0.4c0,0.1,0,0.2,0,0.2
		c0,0.3,0,0.4,0,0.6c0,0.1,0,0.1,0.1,0.2c0,0,0.1,0,0.1,0.1c0.5,0,0.9-0.2,1-0.6c0,0,0,0,0,0c0,0,0,0,0,0c0,0,0,0,0,0.1
		c0,0.2,0,0.3-0.1,0.5c-0.1,0.1-0.1,0.2-0.2,0.3c-0.1,0.1-0.2,0.1-0.3,0.1c-0.1,0-0.2,0-0.3,0c-0.1,0-0.2,0-0.2,0
		c-0.1,0-0.2,0-0.3,0c-0.1,0-0.2,0-0.4,0c-0.1,0-0.1,0-0.1,0c0,0,0,0-0.1-0.1c0,0,0-0.1,0-0.1c0.1,0,0.1-0.1,0.2-0.1
		c0,0,0-0.1,0.1-0.2c0-0.1,0-0.2,0-0.4c0-0.7,0-1.4,0-2.1c0-0.2,0-0.3-0.1-0.4c0-0.1-0.1-0.1-0.3-0.2c0,0-0.1,0-0.1-0.1
		c0,0,0-0.1,0.1-0.1c0,0,0,0,0.1,0c0,0,0.1,0,0.1,0c0.1,0,0.1,0,0.2,0c0.3,0,0.5,0,0.8,0.1c0.4,0,0.7,0,0.8,0c0,0,0,0,0,0
		c0,0,0.1,0,0.1,0.1c0,0,0,0.1,0,0.2c0,0.2,0,0.3,0,0.3c0,0.1,0,0.2-0.1,0.2c0,0,0,0,0-0.1c0-0.2,0-0.3-0.1-0.4
		c-0.1-0.1-0.3-0.1-0.5-0.2c-0.1,0-0.2,0-0.2,0c0,0-0.1,0-0.1,0c-0.1,0-0.1,0.1-0.1,0.3C88.7,44.2,88.7,44.2,88.7,44.2L88.7,44.2z"
		/>
	<path class="st1" d="M91.1,46.7c0,0.3,0,0.5,0.1,0.6c0,0,0.1,0,0.2,0.1c0.4,0,0.8-0.1,0.9-0.5c0.1-0.1,0.1-0.2,0.1-0.2
		c0,0,0,0,0,0.1c0,0.2-0.1,0.4-0.2,0.6c-0.1,0.2-0.2,0.2-0.4,0.2c0,0-0.1,0-0.2,0c0,0-0.1,0-0.2,0c-0.1,0-0.1,0-0.2,0
		c-0.1,0-0.2,0-0.2,0c-0.2,0-0.3,0-0.5,0c-0.1,0-0.1,0-0.1,0c0,0-0.1,0-0.1-0.1c0,0,0-0.1,0.1-0.1c0.1,0,0.1-0.1,0.2-0.2
		c0-0.1,0-0.2,0-0.5c0-0.8,0-1.5,0-2.3c0-0.3-0.1-0.5-0.3-0.5c0,0-0.1,0-0.1,0c-0.1,0-0.1,0-0.1-0.1c0-0.1,0-0.1,0.1-0.1
		c0,0,0,0,0.1,0c0,0,0,0,0.1,0c0,0,0.1,0,0.1,0c0.1,0,0.1,0,0.2,0c0.1,0,0.2,0,0.3,0c0.1,0,0.2,0,0.3,0c0.1,0,0.1,0,0.1,0.1
		c0,0,0,0.1-0.1,0.1c-0.1,0-0.2,0.1-0.2,0.4C91.1,45.1,91.1,45.9,91.1,46.7L91.1,46.7z"/>
	<path class="st1" d="M93.4,46.9c0,0.3,0,0.5,0.1,0.6c0,0,0.1,0,0.2,0.1c0.4,0,0.8-0.1,0.9-0.4c0.1-0.1,0.1-0.2,0.1-0.2
		c0,0,0,0,0,0.1c0,0.2-0.1,0.4-0.2,0.6c-0.1,0.1-0.2,0.2-0.4,0.2c0,0-0.1,0-0.2,0c0,0-0.1,0-0.2,0c-0.1,0-0.1,0-0.2,0
		c-0.1,0-0.2,0-0.2,0c-0.2,0-0.3,0-0.5,0c-0.1,0-0.1,0-0.1,0c0,0-0.1,0-0.1-0.1c0,0,0-0.1,0.1-0.1c0.1,0,0.1-0.1,0.2-0.2
		c0-0.1,0-0.2,0-0.5c0-0.8,0-1.5,0-2.3c0-0.3-0.1-0.5-0.3-0.5c0,0-0.1,0-0.1,0c-0.1,0-0.1,0-0.1-0.1c0-0.1,0-0.1,0.1-0.1
		c0,0,0,0,0.1,0c0,0,0,0,0.1,0c0,0,0.1,0,0.1,0c0.1,0,0.1,0,0.2,0c0.1,0,0.2,0,0.3,0c0.1,0,0.2,0,0.3,0c0.1,0,0.1,0,0.1,0.1
		c0,0,0,0.1-0.1,0.1c-0.1,0-0.2,0.1-0.2,0.4C93.4,45.3,93.4,46.1,93.4,46.9L93.4,46.9z"/>
	<path class="st1" d="M95.7,44.9c0,0.2,0,0.4,0,0.6c0,0.2,0,0.3,0,0.3c0,0,0.1,0.1,0.1,0.1c0,0,0,0,0.1,0c0,0,0.1,0,0.1,0
		c0.1,0,0.1,0,0.2,0c0.1,0,0.2-0.1,0.3-0.3c0,0,0-0.1,0-0.1c0,0,0,0,0.1,0c0,0,0,0,0,0.1c0,0,0,0.1,0,0.1c0,0,0,0.1,0,0.1
		c0,0.1,0,0.2,0,0.4c0,0.1,0,0.3,0,0.4c0,0,0,0.1,0,0.1c0,0,0,0,0,0.1c0,0,0,0,0,0c0,0-0.1,0-0.1-0.1c0-0.2-0.1-0.3-0.1-0.4
		c0,0-0.1-0.1-0.1-0.1c0,0-0.1,0-0.3-0.1c0,0-0.1,0-0.1,0c-0.1,0-0.1,0-0.1,0c0,0,0,0.1,0,0.2c0,0.1,0,0.2,0,0.4c0,0.1,0,0.2,0,0.2
		c0,0.3,0,0.4,0,0.6c0,0.1,0,0.1,0.1,0.2c0,0,0.1,0.1,0.1,0.1c0.5,0.1,0.9-0.1,1-0.5c0,0,0,0,0,0c0,0,0,0,0,0c0,0,0,0,0,0.1
		c0,0.2,0,0.3-0.1,0.5c-0.1,0.1-0.1,0.2-0.2,0.3c-0.1,0-0.2,0.1-0.3,0c-0.1,0-0.2,0-0.3-0.1c-0.1,0-0.2,0-0.2-0.1
		c-0.1,0-0.2,0-0.3-0.1c-0.1,0-0.2,0-0.4,0c-0.1,0-0.1,0-0.1,0c0,0,0,0-0.1-0.1c0,0,0-0.1,0-0.1c0.1,0,0.1-0.1,0.2-0.1
		c0,0,0-0.1,0.1-0.2c0-0.1,0-0.2,0-0.4c0-0.7,0-1.4,0-2.1c0-0.2,0-0.3-0.1-0.4c0-0.1-0.1-0.1-0.3-0.2c0,0-0.1,0-0.1-0.1
		c0,0,0-0.1,0.1-0.1c0,0,0,0,0.1,0c0,0,0.1,0,0.1,0c0.1,0,0.1,0,0.2,0c0.2,0,0.5,0.1,0.7,0.1c0.4,0.1,0.7,0.1,0.8,0.1c0,0,0,0,0,0
		c0,0,0.1,0,0.1,0.1c0,0,0,0.1,0,0.2c0,0.2,0,0.3,0,0.3c0,0.1,0,0.2-0.1,0.2c0,0,0,0,0-0.1c0-0.2,0-0.3-0.1-0.4
		c-0.1-0.1-0.3-0.2-0.5-0.2c-0.1,0-0.2,0-0.2,0c0,0-0.1,0-0.1,0c-0.1,0-0.1,0.1-0.1,0.3C95.7,44.8,95.7,44.8,95.7,44.9L95.7,44.9z"
		/>
	<path class="st1" d="M98.3,45.2c0.3,0.6,0.7,1.2,1,1.8c0,0,0,0.1,0.1,0.1c0.1,0.1,0.1,0.2,0.2,0.2c0,0,0,0,0-0.2c0-0.4,0-0.8,0-1.1
		c0-0.4,0-0.7-0.1-0.9c-0.1-0.2-0.2-0.3-0.4-0.3c0,0-0.1,0-0.1-0.1c0,0,0-0.1,0.1-0.1c0,0,0.1,0,0.2,0.1c0.1,0,0.1,0,0.2,0
		c0.1,0,0.2,0,0.4,0c0,0,0,0,0.1,0c0,0,0.1,0,0.1,0.1c0,0,0,0.1-0.1,0.1c-0.2,0-0.3,0.2-0.3,0.6c0,0,0,0.1,0,0.1c0,0.6,0,1.1,0,1.7
		c0,0.1,0,0.2,0,0.2c0,0.1,0,0.2,0,0.3c0,0.1,0,0.1,0,0.2c0,0.1,0,0.2,0,0.3c0,0.1,0,0.1,0,0.1c0,0,0,0-0.1-0.1c-0.6-1-1.2-2-1.8-3
		c0-0.1-0.1-0.1-0.1-0.1c0,0,0,0,0,0.1c0,0,0,0.1,0,0.1c0,0.3,0,0.7,0,1c0,0.6,0,0.9,0.1,1.1c0,0.2,0.2,0.3,0.4,0.4
		c0,0,0.1,0,0.1,0.1c0,0.1,0,0.1-0.1,0.1c0,0,0,0-0.1,0c-0.1,0-0.2-0.1-0.4-0.1c-0.1,0-0.3,0-0.4,0c0,0-0.1,0-0.1,0
		c0,0-0.1,0-0.1-0.1c0,0,0-0.1,0.1-0.1c0.1,0,0.2-0.1,0.2-0.2c0-0.1,0.1-0.3,0.1-0.5c0-0.2,0-0.4,0-0.6c0-0.4,0-0.8,0-1.2
		c0-0.6-0.1-0.9-0.4-0.9c0,0-0.1,0-0.1-0.1c0-0.1,0-0.1,0.1-0.1c0,0,0.1,0,0.1,0c0,0,0.1,0,0.1,0c0.1,0,0.2,0,0.3,0c0,0,0.1,0,0.1,0
		c0,0,0.1,0,0.1,0c0,0,0.1,0.1,0.1,0.2c0,0.1,0.1,0.2,0.1,0.2C98.3,45.1,98.3,45.2,98.3,45.2L98.3,45.2z"/>
	<path class="st1" d="M101.7,45.8c0,0.7,0,1.4,0,2c0,0.3,0,0.5,0.1,0.7c0.1,0.1,0.2,0.2,0.3,0.3c0,0,0.1,0,0.1,0.1
		c0,0,0,0.1-0.1,0.1c0,0,0,0,0,0c0,0-0.1,0-0.1,0c-0.1,0-0.2,0-0.2-0.1c0,0,0,0-0.1,0c-0.1,0-0.1,0-0.2,0c-0.1,0-0.3,0-0.4,0
		c0,0-0.1,0-0.1,0c0,0-0.1,0-0.1-0.1c0,0,0-0.1,0-0.1c0,0,0,0,0.1,0c0.1,0,0.2,0,0.2-0.1c0.1-0.1,0.1-0.2,0.1-0.4c0,0,0-0.1,0-0.1
		c0-0.8,0-1.6,0-2.4c0-0.1-0.1-0.2-0.2-0.2c-0.3,0-0.4,0-0.5,0c-0.1,0-0.1,0.1-0.1,0.1c0,0-0.1,0.2-0.1,0.4c0,0,0,0,0,0.1
		c0,0.1,0,0.1-0.1,0.1c0,0-0.1,0-0.1-0.1c0,0,0-0.1,0-0.2c0-0.1,0-0.2,0-0.2c0-0.1,0-0.2,0-0.2c0-0.1,0-0.1,0-0.2
		c0-0.1,0-0.1,0.1-0.1c0,0,0,0,0.1,0c0.1,0,0.1,0,0.2,0c0.1,0,0.3,0,0.4,0.1c0.2,0,0.3,0.1,0.5,0.1c0.3,0,0.6,0.1,1,0.1
		c0.1,0,0.1,0,0.1,0c0.1,0,0.1,0.1,0.1,0.1c0,0.1,0,0.1,0,0.2c0,0,0,0.1,0,0.2c0,0.1,0,0.2,0,0.2c0,0.1,0,0.1-0.1,0.1
		c0,0-0.1,0-0.1-0.1c0-0.2-0.1-0.3-0.2-0.4c-0.1-0.1-0.2-0.1-0.3-0.2c-0.2,0-0.3,0-0.4,0C101.8,45.5,101.7,45.6,101.7,45.8
		L101.7,45.8z"/>
	<path class="st1" d="M103.7,48.3c0,0.1,0,0.2,0,0.3c0,0.1,0.1,0.3,0.1,0.3c0.1,0.1,0.1,0.1,0.2,0.2c0.1,0,0.1,0,0.1,0.1
		c0,0.1,0,0.1-0.1,0.1c0,0-0.1,0-0.2,0c-0.2-0.1-0.3-0.1-0.4-0.1c-0.1,0-0.2,0-0.3,0c-0.1,0-0.1,0-0.1,0c0,0,0,0-0.1-0.1
		c0,0,0,0,0,0c0,0,0,0,0.1-0.1c0.1,0,0.2-0.1,0.2-0.1c0-0.1,0-0.2,0-0.3c0-0.1,0-0.2,0-0.2c0-0.7,0-1.4,0-2.2c0-0.2,0-0.3-0.1-0.4
		c0-0.1-0.1-0.1-0.2-0.2c-0.1,0-0.1,0-0.1-0.1c0,0,0,0,0-0.1c0-0.1,0-0.1,0-0.1c0,0,0.1,0,0.1,0c0,0,0.1,0,0.2,0.1
		c0.1,0,0.2,0,0.3,0c0,0,0.1,0,0.1,0c0.1,0,0.2,0,0.3,0c0,0,0.1,0,0.1,0.1c0,0,0,0.1,0,0.1c0,0,0,0,0,0c-0.1,0-0.2,0-0.2,0.1
		c0,0,0,0.1,0,0.3C103.7,46.8,103.7,47.5,103.7,48.3L103.7,48.3z"/>
	<path class="st1" d="M105.7,46.1c0.3,1,0.6,2,0.9,3c0,0.2,0.1,0.3,0.2,0.3c0.1,0.1,0.1,0.1,0.2,0.2c0,0,0,0,0,0.1
		c0,0.1,0,0.1,0,0.1c0,0,0,0-0.1,0c-0.1,0-0.3-0.1-0.5-0.1c-0.2,0-0.4-0.1-0.5,0c0,0,0,0-0.1,0c0,0-0.1,0-0.1-0.1c0,0,0,0,0,0
		c0.1,0,0.1,0,0.2-0.1c0-0.1,0.1-0.1,0.1-0.2c0-0.1-0.1-0.3-0.2-0.7c0-0.1-0.1-0.2-0.1-0.2c0,0-0.2-0.1-0.4-0.1
		c-0.1,0-0.2,0-0.3-0.1c-0.1,0-0.1,0-0.2,0c0,0-0.1,0.1-0.2,0.3c0,0.1,0,0.1-0.1,0.2c0,0.1,0,0.1,0,0.2c0,0.2,0.1,0.4,0.3,0.5
		c0.1,0,0.1,0,0.1,0.1c0,0,0,0.1-0.1,0.1c0,0-0.1,0-0.1,0c-0.1,0-0.2-0.1-0.2-0.1c-0.1,0-0.2,0-0.3,0c-0.1,0-0.2,0-0.2,0
		c0,0-0.1,0-0.1-0.1c0,0,0-0.1,0.1-0.1c0.1,0,0.1-0.1,0.2-0.1c0-0.1,0.1-0.2,0.2-0.5c0.2-0.5,0.4-1.1,0.5-1.6c0-0.1,0.1-0.2,0.1-0.3
		c0.1-0.2,0.1-0.3,0.2-0.5c0-0.1,0.1-0.2,0.1-0.2c0,0,0,0,0,0c0-0.1,0.1-0.2,0.1-0.2c0,0,0.1,0.1,0.1,0.2
		C105.7,46,105.7,46.1,105.7,46.1L105.7,46.1L105.7,46.1z M105.8,47.8c-0.1-0.3-0.2-0.6-0.3-0.9c-0.1-0.2-0.1-0.3-0.1-0.3
		c0,0,0,0.1-0.1,0.2c0,0,0,0.1,0,0.1c-0.1,0.2-0.2,0.4-0.2,0.7c0,0,0,0,0,0.1c0,0,0,0,0,0.1c0,0.1,0,0.1,0.1,0.1
		c0.2,0,0.4,0.1,0.6,0.1C105.8,47.9,105.8,47.9,105.8,47.8C105.8,47.9,105.8,47.9,105.8,47.8C105.8,47.8,105.8,47.8,105.8,47.8
		L105.8,47.8z"/>
	<path class="st1" d="M107.9,46.9c0,0.2,0,0.4,0,0.6c0,0.2,0,0.3,0,0.3c0,0,0.1,0.1,0.1,0.1c0,0,0,0,0.1,0c0,0,0.1,0,0.1,0
		c0.1,0,0.1,0,0.2,0c0.1,0,0.2,0,0.3-0.2c0,0,0-0.1,0-0.1c0,0,0,0,0.1,0c0,0,0,0,0,0.1c0,0,0,0.1,0,0.1c0,0,0,0.1,0,0.1
		c0,0.1,0,0.2,0,0.4c0,0.1,0,0.3,0,0.4c0,0,0,0.1,0,0.1c0,0,0,0,0,0c0,0,0,0,0,0c0,0-0.1,0-0.1-0.1c0-0.2-0.1-0.3-0.1-0.4
		c0-0.1-0.1-0.1-0.1-0.1c0,0-0.1,0-0.3-0.1c0,0-0.1,0-0.1,0c-0.1,0-0.1,0-0.1,0c0,0,0,0.1,0,0.1c0,0.1,0,0.2,0,0.4
		c0,0.1,0,0.2,0,0.2c0,0.3,0,0.4,0,0.6c0,0.1,0,0.1,0.1,0.2c0,0,0.1,0.1,0.1,0.1c0.5,0.1,0.9,0,1-0.4c0,0,0,0,0,0c0,0,0,0,0,0
		c0,0,0,0,0,0.1c0,0.2,0,0.3-0.1,0.5c-0.1,0.1-0.1,0.2-0.2,0.3c-0.1,0-0.2,0-0.3,0c-0.1,0-0.2,0-0.3-0.1c-0.1,0-0.2-0.1-0.2-0.1
		c-0.1,0-0.2-0.1-0.3-0.1c-0.1,0-0.2,0-0.4-0.1c-0.1,0-0.1,0-0.1,0c0,0,0,0-0.1-0.1c0,0,0-0.1,0-0.1c0.1,0,0.1-0.1,0.2-0.1
		c0,0,0-0.1,0.1-0.2c0-0.1,0-0.2,0-0.4c0-0.7,0-1.4,0-2.1c0-0.2,0-0.3-0.1-0.4c0-0.1-0.1-0.2-0.3-0.2c0,0-0.1,0-0.1-0.1
		c0,0,0-0.1,0.1-0.1c0,0,0,0,0.1,0c0,0,0.1,0,0.1,0c0.1,0,0.1,0,0.2,0.1c0.2,0.1,0.5,0.1,0.7,0.2c0.4,0.1,0.7,0.1,0.8,0.1
		c0,0,0,0,0,0c0,0,0.1,0,0.1,0.1c0,0,0,0.1,0,0.2c0,0.2,0,0.3,0,0.3c0,0.1,0,0.2-0.1,0.2c0,0,0,0,0-0.1c0-0.2,0-0.3-0.1-0.4
		c-0.1-0.1-0.2-0.2-0.5-0.2c-0.1,0-0.2,0-0.2-0.1c0,0-0.1,0-0.1,0c-0.1,0-0.1,0.1-0.1,0.3C107.9,46.8,107.9,46.8,107.9,46.9
		L107.9,46.9z"/>
	<path class="st0" d="M79.6,33.3V19.2c0,0-1.2-0.4-1-1.6c0.1-1.2,0.7-2.2,0.9-3.3c0.1-1.1,0.1-1.8,0.4-1.8c0.3,0,0.4,1.1,0.4,1.9
		c0.1,1.1,0.8,1.7,0.9,3.1c0.1,1.3-0.7,1.7-0.7,1.7v14.2H79.6L79.6,33.3z"/>
	<path class="st2" d="M47.4,58H114c0,0-4,4.3-4,11.9s0.4,36.8,0.4,40.7c0,3.9-1.4,11.3-9.1,13.5c-7.7,2.2-7.7,2.2-11.8,2.2
		s-8.9,6-9,6.7c0,0-5.5-6.3-8.7-6.2c-3.2,0.1-12.7-1.6-15.6-4.5c-2.9-3-5.6-3.6-5.6-13.5c0-9.8,0-41.4,0-44.2
		C50.6,61.9,47.9,59.4,47.4,58L47.4,58z"/>
	<polygon class="st3" points="57.6,71.9 72.7,65.4 80.7,68.6 80.7,71.9 57.6,71.9 	"/>
	<polygon class="st3" points="56.1,72.7 80.6,72.7 80.6,73.8 56,73.8 56.1,72.7 	"/>
	<path class="st3" d="M80.4,103.3c8.6-0.6,20.1,0,29.5,5.6l0.1,0.7c0,0-10.9-7.2-29.5-5.7L80.4,103.3L80.4,103.3z"/>
	<path class="st3" d="M81.8,103.6c0,0,1-0.2,1,2.6c0,2.8,0,23.7,0,23.7l0.9-1c0,0,0.1-22,0.1-23.3c0-1.2,0-1.9,0.6-2.2L81.8,103.6
		L81.8,103.6z"/>
	<path class="st3" d="M90.5,103.7c0,0-1-0.2-1,2.6c0,2.8,0,20,0,20l-0.9,0.3c0,0-0.1-19.7-0.1-20.9c0-1.2,0-1.9-0.6-2.2L90.5,103.7
		L90.5,103.7z"/>
	<path class="st3" d="M96.3,104.3c0,0-1-0.2-1,2.6c0,2.8,0,18.8,0,18.8l-0.9,0.4c0,0-0.1-18.6-0.1-19.8c0-1.2,0-1.9-0.6-2.2
		L96.3,104.3L96.3,104.3z"/>
	<path class="st3" d="M102.1,105.6c0,0-1-0.2-1,2.6c0,2.8,0,15.9,0,15.9l-0.9,0.7c0,0-0.1-16-0.1-17.2c0-1.2,0-1.9-0.6-2.2
		L102.1,105.6L102.1,105.6z"/>
	<path class="st3" d="M107.9,108.2c0,0-1-1.1-1,1.6c0,2.8,0,10.3,0,10.3l-0.9,1c0,0-0.1-10.7-0.1-11.9c0-1.2,0-1.9-0.6-2.2
		L107.9,108.2L107.9,108.2z"/>
	<path class="st4" d="M80.6,100.2c12.3-0.4,19.9,0.1,29.4,4.9v0.7c0,0-11.3-6.6-29.3-4.8L80.6,100.2L80.6,100.2z"/>
	<path class="st4" d="M80.6,101.6c0,0,16.6-2.3,29.4,4.8v1.6c0,0-9.3-6.8-29.5-5.4L80.6,101.6L80.6,101.6z"/>
	<path class="st1" d="M51,94.6h6.4v28.5c0,0-6.9-3.9-6.7-11.2C50.9,104.6,51,94.6,51,94.6L51,94.6z"/>
	<path class="st1" d="M62.9,94.5H69v31.9c0,0-4.2,0.1-6.1-1.1V94.5L62.9,94.5z"/>
	<path class="st1" d="M74.5,94.6h5.9v37.6c0,0-2.9-3.6-5.9-4.7V94.6L74.5,94.6z"/>
	<polygon class="st1" points="86.2,90.2 80.6,90.2 80.6,58 86.2,58 86.2,90.2 	"/>
	<polygon class="st1" points="97.7,90.2 92.1,90.2 92.1,57.7 97.7,57.7 97.7,90.2 	"/>
	<path class="st1" d="M103.6,58.2v32.1h6.7c0,0-0.4-21.2-0.3-23.7c0.1-2.6,2-6.7,4-8.5L103.6,58.2L103.6,58.2z"/>
	<path class="st5" d="M57.3,77.9c-2.9-1.4-4.8-4.4-4.8-7.9c0-4.9,4-8.8,8.8-8.8c3.5,0,6.5,2,7.9,4.9l-14.4,6.1v2.3h2.5L57.3,77.9
		L57.3,77.9z"/>
	<path class="st5" d="M65.4,77.7v-3.2h-2.7l0,4.2c1-0.2,1.9-0.5,2.7-0.9L65.4,77.7L65.4,77.7z"/>
	<polygon class="st3" points="74.5,74.6 78.5,74.6 78.5,89.5 110.3,89.5 110.3,94.9 50.6,94.9 50.6,89.5 58,89.5 58,74.6 61.9,74.6 
		61.9,89.5 66.3,89.5 66.3,89.5 66.3,74.6 70.2,74.6 70.2,89.5 74.5,89.5 74.5,74.6 	"/>
	<path class="st0" d="M46.2,58l0.6-0.8h67.7l0.5,0.8c0,0-4.3,2.5-4.3,9.2c0,6.8,0,40.6,0,44.8c0,4.3-4.5,10.5-8.7,12.3
		c-4.2,1.8-7.7,1.9-11.6,2.4c-4,0.5-8.3,3.9-8.9,6.2h-1.7c0,0-3.2-5.5-7.9-6c-4.7-0.5-10.1-0.1-14.7-3.5c-4.6-3.4-6.9-6.5-6.9-12.2
		s0-40.7,0-44.2C50.2,63.6,49.1,60.3,46.2,58L46.2,58L46.2,58z M51,66.3c0,4.4,0,37.9,0,44.2c0,7,3.5,10.5,7.7,13
		c4.2,2.5,8,1.5,14.1,2.7c5.1,1,7.3,6.1,7.3,6.1h0.6c0,0,1.9-3.2,5.9-5.4c4-2.3,8.8-0.8,14.1-2.9c5.3-2.1,9.2-8.5,9.2-11.9
		c0-3.5,0-39.9,0-45.5c0-5.6,3.5-8.3,3.5-8.3H47.9C47.9,58.1,51,60.7,51,66.3L51,66.3z"/>
	<path class="st6" d="M32.1,62.3c0,0,0.3-0.9,1.5-1.5c0,1,0,2.1,0,2.1s1.4,0,2.5,0.1c1.1,0,1.7,1.1,2.2,2.3c1.2-0.1,3.4,0.1,3.4,0.1
		s0,1.8-0.3,2.6c-0.3,0.8-0.3,1.4-1,1.4c-0.7,0-2-0.2-2.8,0.3c-0.8,0.5-1.3,1.3-1.1,2c0.1,0.7,0.3,0.7,1.1,0.8
		c0.9,0.1,1.9,0.1,2.4-0.4c0.5-0.5,0.9-1,1.2-0.6c0.3,0.4,0.6,1.7,0.5,2.5c-0.1,0.8-0.6,1.5-1.5,1.1s-2.2-1.1-2.8-0.1
		c-0.5,1-0.3,2.6,0.4,3.2c0.7,0.5,1.6,0.5,3.1-0.6c1.4-1.1,4.1-2.7,5.4-3.2c0-2.3,0-6.8,3.3-7.4c0.1,0.8,0.1,1.7,0.1,1.7
		s-1.8,0.1-2.3,1.4c0.1,0.3,0.2,0.3,0.2,0.3s0.8-1.4,2.4-1.4c0.1,0.5,0.1,1.4,0.1,1.4s-1.9-0.4-2.7,1.7c0.1,0.2,0.2,0.4,0.2,0.4
		s1.1-2.1,2.7-1.5c0.3,0.9,0.1,2.5,0.1,2.5s-0.6,0.9-1,1.6c-0.4,0.7-0.5,0.7-0.6,1.1c-0.1,0.5-0.8,0.9-1.3,1.2
		c-0.5,0.3-2.2,2-2.7,2.7c0.7,0.3,0.8,0.2,1.1,0.1C45.3,80.8,45,81,44.2,81c0,0.9-0.4,1.1,0,1.6c-0.9,0-2,0.2-2,0.2
		s-0.9,0.9-0.9,1.1c0,0.2,0.1,0.4,0.1,0.4s6.2,1.8,8.1,2.9c0.8-2.6,2.1-4.3,3.6-4.6c0.5,2.1,0.8,4.4,0.8,5.7c0,1.3-0.3,2.4-1.3,2
		c-0.9-0.4-1.4-1-1.9-0.8c-0.5,0.2-1.8,0.7-1.9,0.8c-0.1,0.1-0.8-0.4-0.8-0.4l-2.2-0.1c0,0-0.5,0.4-0.2,0.9c-0.6-0.2-1-0.9-1-0.9
		l-0.4,0.1c0,0-0.3,0.8-0.3,1.3c-0.7-0.2-1.3-0.7-1.7-1.1c-0.4-0.3-1.7-0.3-1.7-0.3l0.2,0.3l1.3,1c0,0-1.6,5.3-6.1,7.7
		c0.7,0.1,0.8,0.1,1.6-0.1c0.8-0.2,2.7-1.6,4.6-1.8c2-0.2,4.3-0.2,5.3,1.7c1,1.8,2.1,6.2-5.2,12.4c0.5,1.2,1.1,2.5,1.8,3
		c1.7,0,4.7-0.9,5.4,3.9c-0.5,0-1.3,0-1.3,0s-0.1-2.2-1.6-3.3c-0.2,0-0.4,0.2-0.4,0.2s1.1,0.4,1.3,3.1c-0.5,0.1-1,0-1,0
		s0.1-2.1-1.8-3c-0.3,0.2-0.3,0.3-0.3,0.3s1.3,0.4,1.5,2.8c-1.9,0.3-3.5,0.3-3.5,0.3s-2.1-6.3-5-6.1c-0.1-0.4,0.2-0.6,0.2-0.6l0-1.6
		l-1.1,0.4c0,0,1.4-1.6,1.1-3.6c-1,0.8-3.5,2.8-6.6,2.6c-1.3,3.4-2.1,6-4.9,7.8c-2.8,1.8-6.3,4-7.4,5.3c-0.2,1.2-0.2,2.1,0.1,2.6
		c0.3,0.5,0.7,0.8,1.4,0.8c0.7,0,4,0.5,4.2,3.6c-0.3,0.1-1.3-0.1-1.3-0.1s-0.1-2-2-2.7c-0.1,0.2-0.2,0.4-0.2,0.4s1.5,0.5,1.5,2.4
		c-0.3,0-1.3,0-1.3,0s-0.3-1.7-1.5-2.3c-0.2,0.3-0.3,0.4-0.3,0.4s1.6,0.9,1.3,2.6c-1.3,0-4.6-0.1-4.6-0.1s-1.1-4.6-2.7-5.5
		c-0.6-0.3-0.2-0.5,0-0.8c0.1-0.2,0.2-0.6-0.3-0.8c-0.4-0.3-0.4-0.4,0.1-0.9s0.5-1.7,0.2-2c-0.3-0.3-0.5-0.5,0.3-0.8
		c0.8-0.2,2.3-1.5,3-2.5c0.7-1,1.3-3.1,1.6-4.3c0.3-1.2,0.5-3.2,1.6-5.6c-1.6-0.3-2.7-0.8-2.7-0.8s-0.1,0.8,0.1,1.6
		c-0.7-0.8-1.4-1.4-1.1-2.4c-0.5,1-0.5,1-0.5,1s-1.2-1.3-0.9-4.3c0.3-3,0.8-6.6,1.4-7.9c0.5-1.3,4.6-9.7,3-11.5
		c-1.6-1.8-4.3,0.6-5.1,2.7c-0.8,2.1-2.2,6-2.5,10.6c1,0.2,3,4.2-1.3,8.2c0-0.9,0-2.1,0-2.1s-1.3,3.5-5.3,3.2c1.8-1.5,2.6-3,2.9-4.2
		c-1.4,0.5-1.9,0.2-2.2,0.2c1.6-1.4,2-2.8,2.2-3.5c0.2-0.8,0.7-2.1,2-2c0.3-3.8,1.3-11,4.1-13.2c-2,0.9-1.9,0.6-1.9,0.6
		s1.5-2.7,4.3-2.9c-0.7-0.1-1-0.3-1-0.3s3-1.5,4.5-0.1c1.5,1.3,3.2,3.2,0.9,8.9c-2.3,5.8-3.4,9-3.3,10.9c0.1,1.9,1.5,4,4.2,2.8
		c2.7-1.3,5.9-3.9,6-7.1c0.1-3.2-1.7-6.1-1.9-8.1c-0.3-2-1.1-5-1-6.6c-0.8,1.9-1.2,2.8-1.3,4.2c-0.3-4.5-0.1-8.1,0.8-9.8
		c-1.1,1.2-1.5,2.2-1.5,2.2s0.1-6.2,3.3-9.8c-1.3,0.4-1.9,0.2-2.4,0.9c1.3-2.6,3.4-4,4.8-4.6c-2.3,0.3-2.8,0.3-2.8,0.3
		S28.2,61.2,32.1,62.3L32.1,62.3z"/>
	<path class="st0" d="M32.1,62.3c0,0,0.3-0.9,1.5-1.5c0,1,0,2.1,0,2.1s1.4,0,2.5,0.1c1.1,0,1.7,1.1,2.2,2.3c1.2-0.1,3.4,0.1,3.4,0.1
		s0,1.8-0.3,2.6c-0.3,0.8-0.3,1.4-1,1.4c-0.7,0-2-0.2-2.8,0.3c-0.8,0.5-1.3,1.3-1.1,2c0.1,0.7,0.3,0.7,1.1,0.8
		c0.9,0.1,1.9,0.1,2.4-0.4c0.5-0.5,0.9-1,1.2-0.6c0.3,0.4,0.6,1.7,0.5,2.5c-0.1,0.8-0.6,1.5-1.5,1.1c-0.8-0.3-2.2-1.1-2.8-0.1
		c-0.5,1-0.3,2.6,0.4,3.2c0.7,0.5,1.6,0.5,3.1-0.6c1.4-1.1,4.1-2.7,5.4-3.2c0-2.3,0-6.8,3.3-7.4c0.1,0.8,0.1,1.7,0.1,1.7
		s-1.8,0.1-2.3,1.4c0.1,0.3,0.2,0.3,0.2,0.3s0.8-1.4,2.4-1.4c0.1,0.5,0.1,1.4,0.1,1.4s-1.9-0.4-2.7,1.7c0.1,0.2,0.2,0.4,0.2,0.4
		s1.1-2.1,2.7-1.5c0.3,0.9,0.1,2.5,0.1,2.5s-0.6,0.9-1,1.6c-0.4,0.7-0.5,0.7-0.6,1.1c-0.1,0.5-0.8,0.9-1.3,1.2
		c-0.5,0.3-2.2,2-2.7,2.7c0.7,0.3,0.8,0.2,1.1,0.1C45.3,80.8,45,81,44.2,81c0,0.9-0.4,1.1,0,1.6c-0.9,0-2,0.2-2,0.2
		s-0.9,0.9-0.9,1.1s0.1,0.4,0.1,0.4s6.2,1.8,8.1,2.9c0.8-2.6,2.1-4.3,3.6-4.6c0.5,2.1,0.8,4.4,0.8,5.7c0,1.3-0.3,2.4-1.3,2
		c-0.9-0.4-1.4-1-1.9-0.8c-0.5,0.2-1.8,0.7-1.9,0.8c-0.1,0.1-0.8-0.4-0.8-0.4l-2.2-0.1c0,0-0.5,0.4-0.2,0.9c-0.6-0.2-1-0.9-1-0.9
		l-0.4,0.1c0,0-0.3,0.8-0.3,1.3c-0.7-0.2-1.3-0.7-1.7-1.1c-0.4-0.3-1.7-0.3-1.7-0.3l0.2,0.3l1.3,1c0,0-1.6,5.3-6.1,7.7
		c0.7,0.1,0.8,0.1,1.6-0.1c0.8-0.2,2.7-1.6,4.6-1.8c2-0.2,4.3-0.2,5.3,1.7c1,1.8,2.1,6.2-5.2,12.4c0.5,1.2,1.1,2.5,1.8,3
		c1.7,0,4.7-0.9,5.4,3.9c-0.5,0-1.3,0-1.3,0s-0.1-2.2-1.6-3.3c-0.2,0-0.4,0.2-0.4,0.2s1.1,0.4,1.3,3.1c-0.5,0.1-1,0-1,0
		s0.1-2.1-1.8-3c-0.3,0.2-0.3,0.3-0.3,0.3s1.3,0.4,1.5,2.8c-1.9,0.3-3.5,0.3-3.5,0.3s-2.1-6.3-5-6.1c-0.1-0.4,0.2-0.6,0.2-0.6l0-1.6
		l-1.1,0.4c0,0,1.4-1.6,1.1-3.6c-1,0.8-3.5,2.8-6.6,2.6c-1.3,3.4-2.1,6-4.9,7.8c-2.8,1.8-6.3,4-7.4,5.3c-0.2,1.2-0.2,2.1,0.1,2.6
		c0.3,0.5,0.7,0.8,1.4,0.8c0.7,0,4,0.5,4.2,3.6c-0.3,0.1-1.3-0.1-1.3-0.1s-0.1-2-2-2.7c-0.1,0.2-0.2,0.4-0.2,0.4s1.5,0.5,1.5,2.4
		c-0.3,0-1.3,0-1.3,0s-0.3-1.7-1.5-2.3c-0.2,0.3-0.3,0.4-0.3,0.4s1.6,0.9,1.3,2.6c-1.3,0-4.6-0.1-4.6-0.1s-1.1-4.6-2.7-5.5
		c-0.6-0.3-0.2-0.5,0-0.8c0.1-0.2,0.2-0.6-0.3-0.8c-0.4-0.3-0.4-0.4,0.1-0.9c0.5-0.5,0.5-1.7,0.2-2c-0.3-0.3-0.5-0.5,0.3-0.8
		c0.8-0.2,2.3-1.5,3-2.5c0.7-1,1.3-3.1,1.6-4.3c0.3-1.2,0.5-3.2,1.6-5.6c-1.6-0.3-2.7-0.8-2.7-0.8s-0.1,0.8,0.1,1.6
		c-0.7-0.8-1.4-1.4-1.1-2.4c-0.5,1-0.5,1-0.5,1s-1.2-1.3-0.9-4.3c0.3-3,0.8-6.6,1.4-7.9c0.5-1.3,4.6-9.7,3-11.5
		c-1.6-1.8-4.3,0.6-5.1,2.7c-0.8,2.1-2.2,6-2.5,10.6c1,0.2,3,4.2-1.3,8.2c0-0.9,0-2.1,0-2.1s-1.3,3.5-5.3,3.2c1.8-1.5,2.6-3,2.9-4.2
		c-1.4,0.5-1.9,0.2-2.2,0.2c1.6-1.4,2-2.8,2.2-3.5c0.2-0.8,0.7-2.1,2-2c0.3-3.8,1.3-11,4.1-13.2c-2,0.9-1.9,0.6-1.9,0.6
		s1.5-2.7,4.3-2.9c-0.7-0.1-1-0.3-1-0.3s3-1.5,4.5-0.1c1.5,1.3,3.2,3.2,0.9,8.9c-2.3,5.8-3.4,9-3.3,10.9c0.1,1.9,1.5,4,4.2,2.8
		c2.7-1.3,5.9-3.9,6-7.1c0.1-3.2-1.7-6.1-1.9-8.1c-0.3-2-1.1-5-1-6.6c-0.8,1.9-1.2,2.8-1.3,4.2c-0.3-4.5-0.1-8.1,0.8-9.8
		c-1.1,1.2-1.5,2.2-1.5,2.2s0.1-6.2,3.3-9.8c-1.3,0.4-1.9,0.2-2.4,0.9c1.3-2.6,3.4-4,4.8-4.6c-2.3,0.3-2.8,0.3-2.8,0.3
		S28.2,61.2,32.1,62.3L32.1,62.3z"/>
	<path class="st6" d="M128.1,62.3c0,0-0.3-0.9-1.5-1.5c0,1,0,2.1,0,2.1s-1.4,0-2.5,0.1c-1.1,0-1.7,1.1-2.2,2.3
		c-1.2-0.1-3.4,0.1-3.4,0.1s0,1.8,0.3,2.6c0.3,0.8,0.3,1.4,1,1.4c0.7,0,2-0.2,2.8,0.3c0.8,0.5,1.3,1.3,1.1,2
		c-0.1,0.7-0.3,0.7-1.1,0.8c-0.9,0.1-1.9,0.1-2.4-0.4c-0.5-0.5-0.9-1-1.2-0.6c-0.3,0.4-0.6,1.7-0.5,2.5c0.1,0.8,0.6,1.5,1.5,1.1
		c0.8-0.3,2.2-1.1,2.8-0.1c0.5,1,0.3,2.6-0.4,3.2c-0.7,0.5-1.6,0.5-3.1-0.6c-1.4-1.1-4.1-2.7-5.4-3.2c0-2.3,0-6.8-3.3-7.4
		c-0.1,0.8-0.1,1.7-0.1,1.7s1.8,0.1,2.3,1.4c-0.1,0.3-0.2,0.3-0.2,0.3s-0.8-1.4-2.4-1.4c-0.1,0.5-0.1,1.4-0.1,1.4s1.9-0.4,2.7,1.7
		c-0.1,0.2-0.2,0.4-0.2,0.4s-1.1-2.1-2.7-1.5c-0.3,0.9-0.1,2.5-0.1,2.5s0.6,0.9,1,1.6c0.4,0.7,0.5,0.7,0.6,1.1
		c0.1,0.5,0.8,0.9,1.3,1.2c0.5,0.3,2.2,2,2.7,2.7c-0.7,0.3-0.8,0.2-1.1,0.1c0.7,0.7,0.9,0.9,1.7,0.9c0,0.9,0.4,1.1,0,1.6
		c0.9,0,2,0.2,2,0.2s0.9,0.9,0.9,1.1c0,0.2-0.1,0.4-0.1,0.4s-6.2,1.8-8.1,2.9c-0.8-2.6-2.1-4.3-3.6-4.6c-0.5,2.1-0.8,4.4-0.8,5.7
		c0,1.3,0.3,2.4,1.3,2c0.9-0.4,1.4-1,1.9-0.8c0.5,0.2,1.8,0.7,1.9,0.8c0.1,0.1,0.8-0.4,0.8-0.4l2.2-0.1c0,0,0.5,0.4,0.2,0.9
		c0.6-0.2,1-0.9,1-0.9l0.4,0.1c0,0,0.3,0.8,0.3,1.3c0.7-0.2,1.3-0.7,1.7-1.1c0.4-0.3,1.7-0.3,1.7-0.3l-0.2,0.3l-1.3,1
		c0,0,1.6,5.3,6.1,7.7c-0.7,0.1-0.8,0.1-1.6-0.1c-0.8-0.2-2.7-1.6-4.6-1.8c-2-0.2-4.3-0.2-5.3,1.7c-1,1.8-2.1,6.2,5.2,12.4
		c-0.5,1.2-1.1,2.5-1.8,3c-1.7,0-4.7-0.9-5.4,3.9c0.5,0,1.3,0,1.3,0s0.1-2.2,1.6-3.3c0.2,0,0.4,0.2,0.4,0.2s-1.1,0.4-1.3,3.1
		c0.5,0.1,1,0,1,0s-0.1-2.1,1.8-3c0.3,0.2,0.3,0.3,0.3,0.3s-1.3,0.4-1.5,2.8c1.9,0.3,3.5,0.3,3.5,0.3s2.1-6.3,5-6.1
		c0.1-0.4-0.2-0.6-0.2-0.6l0-1.6l1.1,0.4c0,0-1.4-1.6-1.1-3.6c1,0.8,3.5,2.8,6.6,2.6c1.3,3.4,2.1,6,4.9,7.8c2.8,1.8,6.3,4,7.4,5.3
		c0.2,1.2,0.2,2.1-0.1,2.6c-0.3,0.5-0.7,0.8-1.4,0.8s-4,0.5-4.2,3.6c0.3,0.1,1.3-0.1,1.3-0.1s0.1-2,2-2.7c0.1,0.2,0.2,0.4,0.2,0.4
		s-1.5,0.5-1.5,2.4c0.3,0,1.3,0,1.3,0s0.3-1.7,1.5-2.3c0.2,0.3,0.3,0.4,0.3,0.4s-1.6,0.9-1.3,2.6c1.3,0,4.6-0.1,4.6-0.1
		s1.1-4.6,2.7-5.5c0.6-0.3,0.2-0.5,0-0.8c-0.1-0.2-0.2-0.6,0.3-0.8c0.4-0.3,0.4-0.4-0.1-0.9c-0.5-0.5-0.5-1.7-0.2-2
		c0.3-0.3,0.5-0.5-0.3-0.8c-0.8-0.2-2.3-1.5-3-2.5c-0.7-1-1.3-3.1-1.6-4.3c-0.3-1.2-0.5-3.2-1.6-5.6c1.6-0.3,2.7-0.8,2.7-0.8
		s0.1,0.8-0.1,1.6c0.7-0.8,1.4-1.4,1.1-2.4c0.5,1,0.5,1,0.5,1s1.2-1.3,0.9-4.3c-0.3-3-0.8-6.6-1.4-7.9c-0.5-1.3-4.6-9.7-3-11.5
		c1.6-1.8,4.3,0.6,5.1,2.7c0.8,2.1,2.2,6,2.5,10.6c-1,0.2-3,4.2,1.3,8.2c0-0.9,0-2.1,0-2.1s1.3,3.5,5.3,3.2c-1.8-1.5-2.6-3-2.9-4.2
		c1.4,0.5,1.9,0.2,2.2,0.2c-1.6-1.4-2-2.8-2.2-3.5c-0.2-0.8-0.7-2.1-2-2c-0.3-3.8-1.3-11-4.1-13.2c2,0.9,1.9,0.6,1.9,0.6
		s-1.5-2.7-4.3-2.9c0.7-0.1,1-0.3,1-0.3s-3-1.5-4.5-0.1c-1.5,1.3-3.2,3.2-0.9,8.9c2.3,5.8,3.4,9,3.3,10.9c-0.1,1.9-1.5,4-4.2,2.8
		c-2.7-1.3-5.9-3.9-6-7.1c-0.1-3.2,1.7-6.1,1.9-8.1c0.3-2,1.1-5,1-6.6c0.8,1.9,1.2,2.8,1.3,4.2c0.3-4.5,0.1-8.1-0.8-9.8
		c1.1,1.2,1.5,2.2,1.5,2.2s-0.1-6.2-3.3-9.8c1.3,0.4,1.9,0.2,2.4,0.9c-1.3-2.6-3.4-4-4.8-4.6c2.3,0.3,2.8,0.3,2.8,0.3
		S132,61.2,128.1,62.3L128.1,62.3z"/>
	<path class="st0" d="M128.1,62.3c0,0-0.3-0.9-1.5-1.5c0,1,0,2.1,0,2.1s-1.4,0-2.5,0.1c-1.1,0-1.7,1.1-2.2,2.3
		c-1.2-0.1-3.4,0.1-3.4,0.1s0,1.8,0.3,2.6c0.3,0.8,0.3,1.4,1,1.4c0.7,0,2-0.2,2.8,0.3c0.8,0.5,1.3,1.3,1.1,2
		c-0.1,0.7-0.3,0.7-1.1,0.8c-0.9,0.1-1.9,0.1-2.4-0.4c-0.5-0.5-0.9-1-1.2-0.6c-0.3,0.4-0.6,1.7-0.5,2.5c0.1,0.8,0.6,1.5,1.5,1.1
		c0.8-0.3,2.2-1.1,2.8-0.1c0.5,1,0.3,2.6-0.4,3.2c-0.7,0.5-1.6,0.5-3.1-0.6c-1.4-1.1-4.1-2.7-5.4-3.2c0-2.3,0-6.8-3.3-7.4
		c-0.1,0.8-0.1,1.7-0.1,1.7s1.8,0.1,2.3,1.4c-0.1,0.3-0.2,0.3-0.2,0.3s-0.8-1.4-2.4-1.4c-0.1,0.5-0.1,1.4-0.1,1.4s1.9-0.4,2.7,1.7
		c-0.1,0.2-0.2,0.4-0.2,0.4s-1.1-2.1-2.7-1.5c-0.3,0.9-0.1,2.5-0.1,2.5s0.6,0.9,1,1.6c0.4,0.7,0.5,0.7,0.6,1.1
		c0.1,0.5,0.8,0.9,1.3,1.2c0.5,0.3,2.2,2,2.7,2.7c-0.7,0.3-0.8,0.2-1.1,0.1c0.7,0.7,0.9,0.9,1.7,0.9c0,0.9,0.4,1.1,0,1.6
		c0.9,0,2,0.2,2,0.2s0.9,0.9,0.9,1.1s-0.1,0.4-0.1,0.4s-6.2,1.8-8.1,2.9c-0.8-2.6-2.1-4.3-3.6-4.6c-0.5,2.1-0.8,4.4-0.8,5.7
		c0,1.3,0.3,2.4,1.3,2c0.9-0.4,1.4-1,1.9-0.8c0.5,0.2,1.8,0.7,1.9,0.8c0.1,0.1,0.8-0.4,0.8-0.4l2.2-0.1c0,0,0.5,0.4,0.2,0.9
		c0.6-0.2,1-0.9,1-0.9l0.4,0.1c0,0,0.3,0.8,0.3,1.3c0.7-0.2,1.3-0.7,1.7-1.1c0.4-0.3,1.7-0.3,1.7-0.3l-0.2,0.3l-1.3,1
		c0,0,1.6,5.3,6.1,7.7c-0.7,0.1-0.8,0.1-1.6-0.1c-0.8-0.2-2.7-1.6-4.6-1.8c-2-0.2-4.3-0.2-5.3,1.7c-1,1.8-2.1,6.2,5.2,12.4
		c-0.5,1.2-1.1,2.5-1.8,3c-1.7,0-4.7-0.9-5.4,3.9c0.5,0,1.3,0,1.3,0s0.1-2.2,1.6-3.3c0.2,0,0.4,0.2,0.4,0.2s-1.1,0.4-1.3,3.1
		c0.5,0.1,1,0,1,0s-0.1-2.1,1.8-3c0.3,0.2,0.3,0.3,0.3,0.3s-1.3,0.4-1.5,2.8c1.9,0.3,3.5,0.3,3.5,0.3s2.1-6.3,5-6.1
		c0.1-0.4-0.2-0.6-0.2-0.6l0-1.6l1.1,0.4c0,0-1.4-1.6-1.1-3.6c1,0.8,3.5,2.8,6.6,2.6c1.3,3.4,2.1,6,4.9,7.8c2.8,1.8,6.3,4,7.4,5.3
		c0.2,1.2,0.2,2.1-0.1,2.6c-0.3,0.5-0.7,0.8-1.4,0.8s-4,0.5-4.2,3.6c0.3,0.1,1.3-0.1,1.3-0.1s0.1-2,2-2.7c0.1,0.2,0.2,0.4,0.2,0.4
		s-1.5,0.5-1.5,2.4c0.3,0,1.3,0,1.3,0s0.3-1.7,1.5-2.3c0.2,0.3,0.3,0.4,0.3,0.4s-1.6,0.9-1.3,2.6c1.3,0,4.6-0.1,4.6-0.1
		s1.1-4.6,2.7-5.5c0.6-0.3,0.2-0.5,0-0.8c-0.1-0.2-0.2-0.6,0.3-0.8c0.4-0.3,0.4-0.4-0.1-0.9c-0.5-0.5-0.5-1.7-0.2-2
		c0.3-0.3,0.5-0.5-0.3-0.8c-0.8-0.2-2.3-1.5-3-2.5c-0.7-1-1.3-3.1-1.6-4.3c-0.3-1.2-0.5-3.2-1.6-5.6c1.6-0.3,2.7-0.8,2.7-0.8
		s0.1,0.8-0.1,1.6c0.7-0.8,1.4-1.4,1.1-2.4c0.5,1,0.5,1,0.5,1s1.2-1.3,0.9-4.3c-0.3-3-0.8-6.6-1.4-7.9c-0.5-1.3-4.6-9.7-3-11.5
		c1.6-1.8,4.3,0.6,5.1,2.7c0.8,2.1,2.2,6,2.5,10.6c-1,0.2-3,4.2,1.3,8.2c0-0.9,0-2.1,0-2.1s1.3,3.5,5.3,3.2c-1.8-1.5-2.6-3-2.9-4.2
		c1.4,0.5,1.9,0.2,2.2,0.2c-1.6-1.4-2-2.8-2.2-3.5c-0.2-0.8-0.7-2.1-2-2c-0.3-3.8-1.3-11-4.1-13.2c2,0.9,1.9,0.6,1.9,0.6
		s-1.5-2.7-4.3-2.9c0.7-0.1,1-0.3,1-0.3s-3-1.5-4.5-0.1c-1.5,1.3-3.2,3.2-0.9,8.9c2.3,5.8,3.4,9,3.3,10.9c-0.1,1.9-1.5,4-4.2,2.8
		c-2.7-1.3-5.9-3.9-6-7.1c-0.1-3.2,1.7-6.1,1.9-8.1c0.3-2,1.1-5,1-6.6c0.8,1.9,1.2,2.8,1.3,4.2c0.3-4.5,0.1-8.1-0.8-9.8
		c1.1,1.2,1.5,2.2,1.5,2.2s-0.1-6.2-3.3-9.8c1.3,0.4,1.9,0.2,2.4,0.9c-1.3-2.6-3.4-4-4.8-4.6c2.3,0.3,2.8,0.3,2.8,0.3
		S132,61.2,128.1,62.3L128.1,62.3z"/>
</g>
</svg>
