<?xml version="1.0" encoding="utf-8"?>
<!-- Generator: Adobe Illustrator 19.1.0, SVG Export Plug-In . SVG Version: 6.00 Build 0)  -->
<svg version="1.1" id="Layer_1" xmlns="http://www.w3.org/2000/svg" xmlns:xlink="http://www.w3.org/1999/xlink" x="0px" y="0px"
	 viewBox="0 0 250 250" style="enable-background:new 0 0 250 250;" xml:space="preserve">
<style type="text/css">
	.st0{fill-rule:evenodd;clip-rule:evenodd;fill:#FFFFFF;}
	.st1{fill-rule:evenodd;clip-rule:evenodd;fill:#AD923D;}
	.st2{fill:none;stroke:#AD923D;stroke-width:6.870800e-02;stroke-miterlimit:3.8637;}
	.st3{fill-rule:evenodd;clip-rule:evenodd;}
	.st4{fill:none;stroke:#000000;stroke-width:6.870800e-02;stroke-miterlimit:3.8637;}
	.st5{fill-rule:evenodd;clip-rule:evenodd;stroke:#000000;stroke-width:6.870800e-02;stroke-miterlimit:3.8637;}
	.st6{fill-rule:evenodd;clip-rule:evenodd;fill:#ED1C2E;stroke:#000000;stroke-width:6.870800e-02;stroke-miterlimit:3.8637;}
	.st7{fill-rule:evenodd;clip-rule:evenodd;fill:#AD923D;stroke:#AD923D;stroke-width:6.870800e-02;stroke-miterlimit:3.8637;}
	.st8{fill-rule:evenodd;clip-rule:evenodd;fill:#FFFFFF;stroke:#AD923D;stroke-width:6.870800e-02;stroke-miterlimit:3.8637;}
	.st9{fill-rule:evenodd;clip-rule:evenodd;fill:#AD923D;stroke:#000000;stroke-width:6.870800e-02;stroke-miterlimit:3.8637;}
	.st10{fill-rule:evenodd;clip-rule:evenodd;fill:#ED1C2E;stroke:#ED1C2E;stroke-width:6.870800e-02;stroke-miterlimit:3.8637;}
	.st11{fill-rule:evenodd;clip-rule:evenodd;fill:#ED1C2E;}
	.st12{fill:none;stroke:#ED1C2E;stroke-width:6.870800e-02;stroke-miterlimit:3.8637;}
	.st13{fill-rule:evenodd;clip-rule:evenodd;fill:#D6C391;}
	.st14{fill:none;stroke:#D6C391;stroke-width:6.870800e-02;stroke-miterlimit:3.8637;}
	.st15{fill-rule:evenodd;clip-rule:evenodd;fill:#FFFFFF;stroke:#FFFFFF;stroke-width:6.870800e-02;stroke-miterlimit:3.8637;}
	.st16{fill-rule:evenodd;clip-rule:evenodd;fill:#FFFFFF;stroke:#000000;stroke-width:6.870800e-02;stroke-miterlimit:3.8637;}
</style>
<g>
	<path class="st0" d="M213.7,136.4c-0.3,0.7-0.7,1.5-1.1,2.3l-0.7-2.1c-1.4,4.3-2.7,6.5,0.4,10.8c1.5,2.1,4.4,3,5.5,3.2
		c0.1-0.1,0.1-0.4,0.1-0.8C217.9,146.2,215.3,141.5,213.7,136.4L213.7,136.4z M36.7,136.7l-0.1,0.4c-1.1,3.3-4.2,9.4-4.2,12.7
		c0,0.4,0.1,0.7,0.2,0.8c3.9-0.6,8-4.6,7.4-8.8c-0.2-1.7-1-3.5-1.5-5.2l-0.7,2.1C37.4,138,37.1,137.3,36.7,136.7L36.7,136.7z
		 M73.3,104.3c-0.1-1.8-0.6-3.4-1.5-4.9l-5.9,2.1l0.4-7.2c-1.3-0.5-3.4-2-3.3-4.1L63,90.2l0.1-0.1c0-0.3,0.1-0.6,0.3-1v-6
		c0-5.9,3.4-5.7,7.9-5.7h0.6v-1.5c0-5.4,12.3-6.5,15.6-7.1c1.3-1.8,3.4-2.7,5.5-2.8c1.3-0.8,2.7-1.2,4.2-1.4
		c-1.4-3.7,0-7.7,5.8-10.2c1.2-3.7,4.8-5.3,8.4-5.2c-1-2.7,0.1-5.9,2.9-6.5c1.7-1.3,3.7-1.1,5.7-0.9c0.5-2.5-0.4-5.1,1-7.5
		c0-0.2-0.1-0.4-0.1-0.6c0-1.5,1-2.7,1.1-4.2c0.2-1.2,3.1-13.4,3.1-13.4s3,12.2,3.1,13.4c0.2,1.4,1.2,2.6,1.2,4.2
		c0,0.3,0,0.5-0.1,0.8c1.5,2.9,0.3,5,0.8,7.3c1.9-0.2,4.2-0.2,5.8,1c2.8,0.7,3.9,3.8,3,6.5c4-0.1,8.1,2,8.7,6.7
		c1.9-1.7,7.5,4,5.5,8.8c1.7,0.2,3,0.7,4.1,1.4c2.1,0.1,4.2,1,5.5,2.8c3.8,0.6,15.6,1.8,15.6,7.1v1.5h0.6c4.2,0,7.9-0.7,7.9,5.7v6.1
		c0.1,0.2,0.1,0.5,0.2,0.7l0.2,0.2l-0.2,0.2c0.1,1.8-1.2,3.2-3,3.9l0,7.2l-5.7-2.1c-0.9,1.5-1.4,3.1-1.5,5c4.6,1.1,6.4,5.6,6.3,10.6
		l0.2,0.1c0.1-1.5,0.6-2.6,1.3-3.5c-1.1-1.3-1.6-3.2-1.6-5.7c0-3.6,3.8-4,6.4-4.1l0.2,0c1-1.9,2.9-2.7,5-2.7l0.1,0
		c-0.2-1.5-0.4-3.1-0.6-3.9c0,0,6.1,2.2,6.8,2.4c2.6,0.9,5.8-0.1,9.2,2.5c2.9,2.2,5,5.3,7.4,8l-1.9-0.3c1.7,2.4,3.4,4.8,5,7.1
		c0,0-2.1-0.6-4.4-1.3c0.5,1.5,0.9,3.2,0.9,5c0,1-0.2,1.9-0.4,2.9c2.6-1.3,5.9-1.3,9.1,0c0.5,0.2,5.5,2.5,5.5,2.5l-1.5,0.8
		c2,2,4.1,4.5,5.9,6.4l-3.4-0.2c1.7,3.6,2.9,7.6,3,11.7c3.4,2.6,2.6,5.1,5.3,7.6l3,2.7l-2.9,1.2c1.4,1.2,6,3.9,6.2,4.1
		c0,0-5.8,1.8-6.5,1.9c-0.7,0.2-1.5,0.3-2.2,0.3l0.1,0.1l-0.7-0.2c-0.8-0.1-1.6-0.3-2.3-0.5l-0.1,0c-2.6-0.6-5-1.4-6.8-2.8
		c-0.2,0.8-0.6,1.5-1,2.2c-1.2,1.9-2.9,3.9-4.3,5.7c0.9,7.8,6.3,8,12.3,9.4l-4.2,2.9c1.5,0.1,3.5,0.2,3.5,0.2c0,0-2.2,2.6-3.3,4
		l3.4,4h-6.7c-1.2,1.3-1.8,5.3-2.1,7h-9.8l-4,0.3l-0.4-0.8l-3.3-0.2c0,0-0.3-3.2-0.3-3.6c0.3-4.4,3.6-6.9,7-7.6
		c-4-3.6-7.8-4.1-11-6.7v16.9c0,7.5-3.1,8.9-8.9,8.9c-0.8,0-1.5,0-2.2,0v1.5c0,6.3-2,7.7-7.5,10c-5.3,2.3-28.8,8.7-60.6,8.7
		c-31.8,0-55.2-6.4-60.6-8.7c-5.5-2.4-7.5-3.7-7.5-10v-1.5c-0.6,0-1.4,0-2.2,0c-4.9,0-8.9-0.7-8.9-8.9v-16.9c-3.2,2.6-7,3.1-11,6.7
		c6.3,1.3,7.2,5.9,6.8,11.2l-3.3,0.2l-0.4,0.8l-4-0.3h-9.8c-0.3-1.5-1-6.2-2.3-7.2c-0.3,0.2-6.6,0.2-6.6,0.2l3.4-4
		c-1-1.2-2.8-3.3-2.8-3.3l3.1-0.8l-4.4-3.1c2.6-0.6,5.4-0.8,7.8-2c2.5-1.3,4.2-4.8,4.5-7.4c-2.8-3.7-4.5-5.5-5.3-7.9
		c-1.8,1.4-4.2,2.2-6.8,2.8c-0.8,0.3-1.6,0.5-2.4,0.6l-0.7,0.2l0.1-0.1c-2.9,0-6-1.4-8.6-2.2c0.2-0.1,4.8-2.8,6.2-4.1l-2.9-1.2
		c3.5-3.2,3.7-2.7,5.3-6.6c0.5-1.3,1.3-2.6,2.9-3.8c0-4.1,1.3-8.1,3-11.7l-3.4,0.2c1.8-2,3.8-4.5,5.9-6.4l-1.5-0.8
		c0,0,5-2.3,5.5-2.5c3.9-1.6,6.9-1.5,9-0.3c-0.2-0.9-0.3-1.7-0.3-2.6c0-1.8,0.3-3.4,0.9-5c-2.3,0.7-4.4,1.3-4.4,1.3
		c1.7-2.4,3.3-4.8,5-7.1l-1.9,0.3c5.5-6.1,7.2-10.1,16.1-10.5c1.1-0.1,5.8-1.9,7.2-2.4c-0.1,0.8-0.4,2.5-0.6,3.9l0.1,0
		c2.2,0,4,0.8,5,2.7l0.2,0c2.6,0.1,6.4,0.5,6.4,4.1c0,2.5-0.5,4.5-1.7,5.8c0.2,0.2,0.3,0.5,0.5,0.8c0.4,0.8,0.7,1.8,0.8,2.6l0.3-0.2
		l0.1-0.1C65.9,114,67.8,105.8,73.3,104.3L73.3,104.3z"/>
	<path class="st1" d="M181.5,91.8c-3.8,3.7-7.2,7.5-7.2,13.2v1.6c0.2,0,0.3,0,0.4,0c0.5,0,1.2,0,1.6,0.2c0.8,0.3,2.7,1.6,3.6,3.1
		c0.8,1.4,0.6,4.6,0.6,6.3c0.7,1,6,2.9,7.5,4c0.5,0.3,1.6,1.2,2.2,1.2c0.7,0,1.7-0.7,1.7-1.8c0-1.2-0.9-1.8-1.2-1.8
		c-1,0-1.9,0.6-2.9,0.6c-1.3,0-1.9-0.8-1.9-2.2c0-1.2,0.7-4.3,2.6-3.4c1,0.5,1.7,1.1,2.8,1.1c0.4,0,1.4-0.2,1.7-0.5
		c0-1.4-1.3-2.3-2.6-2.3c-2.9,0-3.6,0-4.4-2.8c-0.3-1-0.4-2.1-0.4-2.4c0-1.9,4.1-1.4,5.3-1.7c1.2-0.3,0.5-2.6,3.8-2.6
		c0.8,0,1.8,0.1,2.6-0.2c0.4-0.4,0.1-2,0-2.5c0,0,2.2,0.8,2.9,1c0.7,0.2,1.6,0.2,2.3,0.2c1.7,0.2,4.8,0.8,6.2,1.9
		c0.8,0.6,1.4,1.4,2,2.1c0,0-1.8-0.3-2.8-0.4c3.2,2.1,4.3,3.3,6.5,6.5c0,0-2.4-0.7-3.2-0.9c2,2.7,3.5,5.6,3.5,9.1
		c0,1.2-0.6,3.7-0.6,3.7l-0.1-0.3c0.7,3.8,0.7,6.7-1,10.2c0,0-0.8-2.3-1.1-3.2c0-0.1-0.1-0.2-0.1-0.3c-0.3,1.1-0.8,2.8-1.3,4.3
		c-0.9,2.5-2.4,7.2-2.6,8.7c-0.2,1.4,0,4.2,2.3,7.5c2.3,3.2,6.7,4.3,7.9,4.3c1,0,2.4-1.1,2.4-3.4c0-3.8-3.1-9.5-4.4-13.5
		c-0.6-1.8-1.1-3.9-1.2-6.4c-0.3-5.6,3.8-8.2,8.5-6.9c0.8,0.2,2.4,0.9,2.4,0.9l-0.8,0.5c2.1,0.7,3.3,2.1,4.8,3.7l-1.7-0.1
		c2.8,4.6,5.2,10.3,4.8,15.8l0.2,0.1c3.5,2,2.7,4.4,4.7,6.9c0.3,0.3,1.2,1.2,1.2,1.2c0,0-1,0.4-1.3,0.5c-0.2,0-0.5,0.1-0.8,0.1
		c-0.1,0-0.2,0-0.4,0c1.2,2.3,2.2,3.3,4.3,4.7c0,0-1.8,0.5-2.5,0.5c-1.9-0.1-3.6-1-5.2-2l0.5,1c0,0-1.4-0.3-1.6-0.4
		c-2.9-1.4-4.8-5-4.8-8.1c0-1.2,0.7-2.5,1.4-3.4c-0.2-3.1-0.5-6.1-1.2-9.2c-0.9-3.5-4.6-7.7-6-7.9c-1.3-0.1-1.6,0.6-1.8,2.2
		c-0.3,3,5.4,13.3,6.1,17.6c0.4,2.3,0.8,6.4,0.5,7.8c-0.3,1.7-1.5,3.1-2.5,4.4c0,0,0-0.6,0-1.2c-0.9,1.5-2.2,2.7-3.5,3.9
		c0.3,1.2,0.3,2.4,0.5,3.9c0.3,2.6,3.3,6.8,5.8,8c0.8,0.4,2.8,0.9,2.8,0.9c0,0-1.2,0.8-1.3,0.9c-1.1,1-0.8,2.4,0.5,2.9
		c0.1,0,1.1,0.3,1.1,0.3s-0.6,0.8-0.7,0.8c-0.3,0.3-0.7,0.5-1.1,0.5c0.3,0.7,0.9,1.3,1.4,1.9h-1.9l-0.1,0.1c-2.2,1.1-2.9,4.9-3.3,7
		h-7.8l-2.4,0.2l-0.3-0.6l-2.6-0.2c0,0-0.1-0.7-0.1-1c0.2-3.3,2.9-5.2,6-5.4c0.6,0,1.1,0,1.5,0c0.1-0.8,0.4-1.6,0.5-2.4
		c-1.3-1.6-4.1-4-6-4.7c-2.4-0.9-5.1-2.4-7.7-4.7c-1.9-1.7-3.1-5-3.8-7.4c-2.5-0.2-5.1-0.6-7.3-1.9c0.4,1.6,1.3,2.1,2.6,3
		c0,0-1.2,0.5-1.5,0.6c-0.5,0.1-1.1,0.1-1.6-0.1c0.2,0.5,0.8,1.7,0.8,1.7s-1,0.1-1.1,0.1c-2.2,0.5-6.1,4.1-6,6.5c0,0.1,0.2,1,0.2,1
		l-13.4-0.7c0,0,0.8-1.7,1.3-2.6c2-3.4,4-3.5,7.6-3.3c1.1-0.8,1.8-1.3,2.4-2.6c-3.7-3.2-8.8-9-8.8-14c0-2.1,0.9-5.6,6.8-5.6
		c2.8,0,5.2,0.4,6.9,0.7c-0.8-0.7-1.6-1.5-2.3-2.5c-0.2-0.3-3.5-4.8-2.3-6.1c-0.7,0.3-0.9,1.4-1.1,2.1c0,0-0.8-1-0.8-1
		c-1.4-1.6-2.5-0.3-4,0.7c0,0,0.3-1.6,0.4-1.8c0-0.1,0.1-0.3,0.2-0.5c-1.1,0-3.1-0.1-4,0.7l-0.5,0.5l-1.5-1V162
		c0,8.5-0.4,16.5-7.6,22.4c-2.3,1.8-4.8,3.3-7.3,4.8c-5.1,3-15.1,2.5-21.1,3.1c-1.5,0.2-4.1,0.9-5.5,2.2l-1.6,0.1
		c0.6-0.9,2.4-3,7-3.5c5.6-0.6,15.8-0.1,20.6-3c4.7-2.8,10-5.8,12.2-11.1c2.1-5.4,2.1-10,2.1-15v-16.9h-96l0,16.9
		c0,8.3,0.3,15.8,7.2,21.4c2.2,1.8,4.7,3.2,7.1,4.7c4.7,2.8,15,2.3,20.6,3c4.6,0.5,6.4,2.7,7,3.5l-1.7-0.1c-1.4-1.4-3.6-2-5.4-2.2
		c-5.9-0.7-16-0.1-21.1-3.1c-8.7-5.2-13.4-8.4-14.6-19.7c-0.3-2.5-0.3-5-0.3-7.5v-24.3l-1.5,1l-0.5-0.5c-0.8-0.8-2.9-0.8-4-0.7
		c0.1,0.2,0.2,0.4,0.2,0.5c0.1,0.2,0.4,1.8,0.4,1.8c-1.5-1-2.5-2.3-4-0.7c-0.1,0.1-0.8,1-0.8,1c-0.2-0.7-0.4-1.8-1.1-2.1
		c1.2,1.3-2.1,5.8-2.3,6.1c-0.7,1-1.5,1.8-2.3,2.5c1.7-0.4,4.2-0.7,6.9-0.7c5.9,0,6.8,3.5,6.8,5.6c0,5-5.1,10.8-8.8,14
		c0.6,1.3,1.2,1.7,2.4,2.6c3.6-0.2,5.6-0.1,7.6,3.3c0.6,1,1.3,2.6,1.3,2.6L63,174.5c0,0,0.2-0.9,0.2-1c0.1-2.4-3.8-6-6-6.5
		c-0.2,0-1.1-0.1-1.1-0.1s0.5-1.2,0.7-1.7c-0.5,0.1-1.1,0.1-1.6,0.1c-0.3,0-1.5-0.6-1.5-0.6c1.3-0.9,2.3-1.4,2.6-3
		c-2.2,1.3-4.8,1.7-7.3,1.9c-0.7,2.4-1.9,5.8-3.8,7.4c-2.5,2.3-5.3,3.8-7.6,4.7c-1.8,0.7-4.7,3.1-6,4.7c0.2,0.8,0.4,1.6,0.5,2.4
		c0.4,0,0.9,0,1.5,0c3.1,0.2,5.8,2.2,6,5.4c0,0.3-0.1,1-0.1,1l-2.6,0.2l-0.3,0.6l-2.4-0.2h-7.8c-0.4-2.1-1.1-5.9-3.3-7l-0.1-0.1H21
		c0.5-0.6,1.1-1.2,1.4-1.9c-0.4,0-0.8-0.2-1.1-0.5c-0.1-0.1-0.7-0.8-0.7-0.8s1-0.3,1.1-0.3c1.3-0.5,1.6-2,0.5-2.9
		c-0.1-0.1-1.3-0.9-1.3-0.9s2-0.5,2.8-0.9c2.5-1.2,5.4-5.5,5.8-8c0.2-1.5,0.2-2.7,0.5-3.9c-1.3-1.2-2.6-2.4-3.5-3.9
		c0,0.6,0,1.2,0,1.2c-1-1.3-2.2-2.7-2.5-4.4c-0.2-1.4,0.2-5.5,0.5-7.8c0.7-4.4,6.4-14.6,6.1-17.6c-0.2-1.6-0.5-2.3-1.8-2.2
		c-1.5,0.2-5.2,4.4-6,7.9c-0.8,3.1-1.1,6.1-1.2,9.2c0.7,0.9,1.4,2.2,1.4,3.4c0,3.1-1.9,6.7-4.8,8.1c-0.2,0.1-1.6,0.4-1.6,0.4l0.5-1
		c-1.5,1-3.3,2-5.2,2c-0.8,0-2.5-0.5-2.5-0.5c2.2-1.4,3.1-2.4,4.3-4.7c-0.1,0-0.2,0-0.4,0c-0.4,0-0.6,0-0.8-0.1
		c-0.2-0.1-1.3-0.5-1.3-0.5s0.9-0.8,1.2-1.2c2-2.5,1.2-4.9,4.7-6.9l0.2-0.1c-0.4-5.5,2-11.2,4.8-15.8l-1.7,0.1
		c1.5-1.6,2.7-3,4.8-3.7l-0.8-0.5c0,0,1.6-0.7,2.4-0.9c4.7-1.2,8.7,1.3,8.5,6.9c-0.1,2.5-0.6,4.6-1.2,6.4c-1.3,3.9-4.4,9.6-4.4,13.5
		c0,2.4,1.4,3.4,2.4,3.4c1.3,0,5.7-1.1,7.9-4.3c2.4-3.3,2.5-6,2.3-7.5c-0.2-1.5-1.8-6.2-2.6-8.7c-0.5-1.5-1-3.1-1.3-4.3
		c0,0.1-0.1,0.2-0.1,0.3c-0.3,0.9-1.1,3.2-1.1,3.2c-1.6-3.5-1.6-6.4-1-10.2l-0.1,0.3c0,0-0.6-2.6-0.6-3.7c0-3.4,1.5-6.4,3.5-9.1
		c-0.9,0.1-3.2,0.9-3.2,0.9c2.2-3.2,3.2-4.4,6.5-6.5c-0.9,0.1-2.8,0.4-2.8,0.4c0.6-0.7,1.3-1.5,2-2.1c1.4-1.1,4.5-1.7,6.2-1.9
		c0.7-0.1,1.6,0,2.3-0.2c0.7-0.2,2.9-1,2.9-1c-0.1,0.5-0.3,2.1,0,2.5c0.8,0.3,1.7,0.2,2.6,0.2c3.3,0,2.6,2.2,3.8,2.6
		c1.2,0.3,5.3-0.2,5.3,1.7c0,0.4-0.2,1.4-0.4,2.4c-0.7,2.8-1.5,2.8-4.4,2.8c-1.3,0-2.6,0.9-2.6,2.3c0.3,0.3,1.3,0.5,1.7,0.5
		c1.2,0,1.9-0.7,2.8-1.1c1.9-0.9,2.6,2.2,2.6,3.4c0,1.4-0.6,2.2-1.9,2.2c-1,0-1.9-0.6-2.9-0.6c-0.4,0-1.2,0.6-1.2,1.8
		c0,1.1,1,1.8,1.7,1.8c0.6,0,1.6-0.8,2.2-1.2c1.5-1,6.8-2.9,7.5-4c0-1.7-0.2-4.9,0.6-6.3c0.9-1.5,2.8-2.8,3.6-3.1
		c0.5-0.2,1.1-0.2,1.6-0.2c0.1,0,0.3,0,0.4,0V105c0-5.7-3.3-9.5-7.2-13.2l-0.7-0.6c-0.4-0.3-0.8-0.7-1.2-1c1.1-1,5.8-0.8,6.6-0.8
		c2.6,0,10.3,0.9,13.8,0.9c1.4,0,5.4-0.1,7-1.5l30.9,0l30.9,0c1.6,1.4,5.6,1.5,7,1.5c3.5,0,11.2-0.9,13.8-0.9c2.6,0,4.9,0,5.9,0.4
		c0.3,0.1,0.6,0.3,0.7,0.4c-0.4,0.3-0.8,0.7-1.2,1L181.5,91.8L181.5,91.8z"/>
	<path class="st2" d="M181.5,91.8c-3.8,3.7-7.2,7.5-7.2,13.2v1.6l0.4,0c0.5,0,1.2,0,1.6,0.2c0.8,0.3,2.7,1.6,3.6,3.1
		c0.8,1.4,0.6,4.6,0.6,6.3c0.7,1,6,2.9,7.5,4c0.5,0.3,1.6,1.2,2.2,1.2c0.7,0,1.7-0.7,1.7-1.8c0-1.2-0.9-1.8-1.2-1.8
		c-1,0-1.9,0.6-2.9,0.6c-1.3,0-1.9-0.8-1.9-2.2c0-1.2,0.7-4.3,2.6-3.4c1,0.5,1.7,1.1,2.8,1.1c0.4,0,1.4-0.2,1.7-0.5
		c0-1.4-1.3-2.3-2.6-2.3c-2.9,0-3.6,0-4.4-2.8c-0.3-1-0.4-2.1-0.4-2.4c0-1.9,4.1-1.4,5.3-1.7c1.2-0.3,0.5-2.6,3.8-2.6
		c0.8,0,1.8,0.1,2.6-0.2c0.4-0.4,0.1-2,0-2.5c0,0,2.2,0.8,2.9,1c0.7,0.2,1.6,0.2,2.3,0.2c1.7,0.2,4.8,0.8,6.2,1.9
		c0.8,0.6,1.4,1.4,2,2.1c0,0-1.8-0.3-2.8-0.4c3.2,2.1,4.3,3.3,6.5,6.5c0,0-2.4-0.7-3.2-0.9c2,2.7,3.5,5.6,3.5,9.1
		c0,1.2-0.6,3.7-0.6,3.7l-0.1-0.3c0.7,3.8,0.7,6.7-1,10.2c0,0-0.8-2.3-1.1-3.2l-0.1-0.3c-0.3,1.1-0.8,2.8-1.3,4.3
		c-0.9,2.5-2.4,7.2-2.6,8.7c-0.2,1.4,0,4.2,2.3,7.5c2.3,3.2,6.7,4.3,7.9,4.3c1,0,2.4-1.1,2.4-3.4c0-3.8-3.1-9.5-4.4-13.5
		c-0.6-1.8-1.1-3.9-1.2-6.4c-0.3-5.6,3.8-8.2,8.5-6.9c0.8,0.2,2.4,0.9,2.4,0.9l-0.8,0.5c2.1,0.7,3.3,2.1,4.8,3.7l-1.7-0.1
		c2.8,4.6,5.2,10.3,4.8,15.8l0.2,0.1c3.5,2,2.7,4.4,4.7,6.9c0.3,0.3,1.2,1.2,1.2,1.2s-1,0.4-1.3,0.5c0,0-0.5,0.1-0.8,0.1l-0.4,0
		c1.2,2.3,2.2,3.3,4.3,4.7c0,0-1.8,0.5-2.5,0.5c-1.9-0.1-3.6-1-5.2-2l0.5,1c0,0-1.4-0.3-1.6-0.4c-2.9-1.4-4.8-5-4.8-8.1
		c0-1.2,0.7-2.5,1.4-3.4c-0.2-3.1-0.5-6.1-1.2-9.2c-0.9-3.5-4.6-7.7-6-7.9c-1.3-0.1-1.6,0.6-1.8,2.2c-0.3,3,5.4,13.3,6.1,17.6
		c0.4,2.3,0.8,6.4,0.5,7.8c-0.3,1.7-1.5,3.1-2.5,4.4c0,0,0-0.6,0-1.2c-0.9,1.5-2.2,2.7-3.5,3.9c0.3,1.2,0.3,2.4,0.5,3.9
		c0.3,2.6,3.3,6.8,5.8,8c0.8,0.4,2.8,0.9,2.8,0.9s-1.2,0.8-1.3,0.9c-1.1,1-0.8,2.4,0.5,2.9l1.1,0.3c0,0-0.6,0.8-0.7,0.8
		c-0.3,0.3-0.7,0.5-1.1,0.5c0.3,0.7,0.9,1.3,1.4,1.9h-1.9l-0.1,0.1c-2.2,1.1-2.9,4.9-3.3,7h-7.8l-2.4,0.2l-0.3-0.6l-2.6-0.2
		c0,0-0.1-0.7-0.1-1c0.2-3.3,2.9-5.2,6-5.4c0.6,0,1.1,0,1.5,0c0.1-0.8,0.4-1.6,0.5-2.4c-1.3-1.6-4.1-4-6-4.7
		c-2.4-0.9-5.1-2.4-7.7-4.7c-1.9-1.7-3.1-5-3.8-7.4c-2.5-0.2-5.1-0.6-7.3-1.9c0.4,1.6,1.3,2.1,2.6,3c0,0-1.2,0.5-1.5,0.6
		c-0.5,0.1-1.1,0.1-1.6-0.1c0.2,0.5,0.8,1.7,0.8,1.7l-1.1,0.1c-2.2,0.5-6.1,4.1-6,6.5l0.2,1l-13.4-0.7c0,0,0.8-1.7,1.3-2.6
		c2-3.4,4-3.5,7.6-3.3c1.1-0.8,1.8-1.3,2.4-2.6c-3.7-3.2-8.8-9-8.8-14c0-2.1,0.9-5.6,6.8-5.6c2.8,0,5.2,0.4,6.9,0.7
		c-0.8-0.7-1.6-1.5-2.3-2.5c-0.2-0.3-3.5-4.8-2.3-6.1c-0.7,0.3-0.9,1.4-1.1,2.1c0,0-0.8-1-0.8-1c-1.4-1.6-2.5-0.3-4,0.7
		c0,0,0.3-1.6,0.4-1.8c0,0,0.1-0.3,0.2-0.5c-1.1,0-3.1-0.1-4,0.7l-0.5,0.5l-1.5-1V162c0,8.5-0.4,16.5-7.6,22.4
		c-2.3,1.8-4.8,3.3-7.3,4.8c-5.1,3-15.1,2.5-21.1,3.1c-1.5,0.2-4.1,0.9-5.5,2.2l-1.6,0.1c0.6-0.9,2.4-3,7-3.5
		c5.6-0.6,15.8-0.1,20.6-3c4.7-2.8,10-5.8,12.2-11.1c2.1-5.4,2.1-10,2.1-15v-16.9h-96l0,16.9c0,8.3,0.3,15.8,7.2,21.4
		c2.2,1.8,4.7,3.2,7.1,4.7c4.7,2.8,15,2.3,20.6,3c4.6,0.5,6.4,2.7,7,3.5l-1.7-0.1c-1.4-1.4-3.6-2-5.4-2.2c-5.9-0.7-16-0.1-21.1-3.1
		c-8.7-5.2-13.4-8.4-14.6-19.7c-0.3-2.5-0.3-5-0.3-7.5v-24.3l-1.5,1l-0.5-0.5c-0.8-0.8-2.9-0.8-4-0.7c0.1,0.2,0.2,0.5,0.2,0.5
		c0.1,0.2,0.4,1.8,0.4,1.8c-1.5-1-2.5-2.3-4-0.7c-0.1,0.1-0.8,1-0.8,1c-0.2-0.7-0.4-1.8-1.1-2.1c1.2,1.3-2.1,5.8-2.3,6.1
		c-0.7,1-1.5,1.8-2.3,2.5c1.7-0.4,4.2-0.7,6.9-0.7c5.9,0,6.8,3.5,6.8,5.6c0,5-5.1,10.8-8.8,14c0.6,1.3,1.2,1.7,2.4,2.6
		c3.6-0.2,5.6-0.1,7.6,3.3c0.6,1,1.3,2.6,1.3,2.6L63,174.5l0.2-1c0.1-2.4-3.8-6-6-6.5l-1.1-0.1c0,0,0.5-1.2,0.7-1.7
		c-0.5,0.1-1.1,0.1-1.6,0.1c-0.3,0-1.5-0.6-1.5-0.6c1.3-0.9,2.3-1.4,2.6-3c-2.2,1.3-4.8,1.7-7.3,1.9c-0.7,2.4-1.9,5.8-3.8,7.4
		c-2.5,2.3-5.3,3.8-7.6,4.7c-1.8,0.7-4.7,3.1-6,4.7c0.2,0.8,0.4,1.6,0.5,2.4c0.4,0,0.9,0,1.5,0c3.1,0.2,5.8,2.2,6,5.4
		c0,0.3-0.1,1-0.1,1l-2.6,0.2l-0.3,0.6l-2.4-0.2h-7.8c-0.4-2.1-1.1-5.9-3.3-7l-0.1-0.1H21c0.5-0.6,1.1-1.2,1.4-1.9
		c-0.4,0-0.8-0.2-1.1-0.5c-0.1-0.1-0.7-0.8-0.7-0.8l1.1-0.3c1.3-0.5,1.6-2,0.5-2.9c-0.1-0.1-1.3-0.9-1.3-0.9s2-0.5,2.8-0.9
		c2.5-1.2,5.4-5.5,5.8-8c0.2-1.5,0.2-2.7,0.5-3.9c-1.3-1.2-2.6-2.4-3.5-3.9c0,0.6,0,1.2,0,1.2c-1-1.3-2.2-2.7-2.5-4.4
		c-0.2-1.4,0.2-5.5,0.5-7.8c0.7-4.4,6.4-14.6,6.1-17.6c-0.2-1.6-0.5-2.3-1.8-2.2c-1.5,0.2-5.2,4.4-6,7.9c-0.8,3.1-1.1,6.1-1.2,9.2
		c0.7,0.9,1.4,2.2,1.4,3.4c0,3.1-1.9,6.7-4.8,8.1c-0.2,0.1-1.6,0.4-1.6,0.4l0.5-1c-1.5,1-3.3,2-5.2,2c-0.8,0-2.5-0.5-2.5-0.5
		c2.2-1.4,3.1-2.4,4.3-4.7l-0.4,0c-0.4,0-0.8-0.1-0.8-0.1c-0.2-0.1-1.3-0.5-1.3-0.5s0.9-0.8,1.2-1.2c2-2.5,1.2-4.9,4.7-6.9l0.2-0.1
		c-0.4-5.5,2-11.2,4.8-15.8l-1.7,0.1c1.5-1.6,2.7-3,4.8-3.7l-0.8-0.5c0,0,1.6-0.7,2.4-0.9c4.7-1.2,8.7,1.3,8.5,6.9
		c-0.1,2.5-0.6,4.6-1.2,6.4c-1.3,3.9-4.4,9.6-4.4,13.5c0,2.4,1.4,3.4,2.4,3.4c1.3,0,5.7-1.1,7.9-4.3c2.4-3.3,2.5-6,2.3-7.5
		c-0.2-1.5-1.8-6.2-2.6-8.7c-0.5-1.5-1-3.1-1.3-4.3l-0.1,0.3c-0.3,0.9-1.1,3.2-1.1,3.2c-1.6-3.5-1.6-6.4-1-10.2l-0.1,0.3
		c0,0-0.6-2.6-0.6-3.7c0-3.4,1.5-6.4,3.5-9.1c-0.9,0.1-3.2,0.9-3.2,0.9c2.2-3.2,3.2-4.4,6.5-6.5c-0.9,0.1-2.8,0.4-2.8,0.4
		c0.6-0.7,1.3-1.5,2-2.1c1.4-1.1,4.5-1.7,6.2-1.9c0.7-0.1,1.6,0,2.3-0.2c0.7-0.2,2.9-1,2.9-1c-0.1,0.5-0.3,2.1,0,2.5
		c0.8,0.3,1.7,0.2,2.6,0.2c3.3,0,2.6,2.2,3.8,2.6c1.2,0.3,5.3-0.2,5.3,1.7c0,0.4-0.2,1.4-0.4,2.4c-0.7,2.8-1.5,2.8-4.4,2.8
		c-1.3,0-2.6,0.9-2.6,2.3c0.3,0.3,1.3,0.5,1.7,0.5c1.2,0,1.9-0.7,2.8-1.1c1.9-0.9,2.6,2.2,2.6,3.4c0,1.4-0.6,2.2-1.9,2.2
		c-1,0-1.9-0.6-2.9-0.6c-0.4,0-1.2,0.6-1.2,1.8c0,1.1,1,1.8,1.7,1.8c0.6,0,1.6-0.8,2.2-1.2c1.5-1,6.8-2.9,7.5-4
		c0-1.7-0.2-4.9,0.6-6.3c0.9-1.5,2.8-2.8,3.6-3.1c0.5-0.2,1.1-0.2,1.6-0.2l0.4,0V105c0-5.7-3.3-9.5-7.2-13.2l-0.7-0.6
		c-0.4-0.3-0.8-0.7-1.2-1c1.1-1,5.8-0.8,6.6-0.8c2.6,0,10.3,0.9,13.8,0.9c1.4,0,5.4-0.1,7-1.5l30.9,0l30.9,0c1.6,1.4,5.6,1.5,7,1.5
		c3.5,0,11.2-0.9,13.8-0.9c2.6,0,4.9,0,5.9,0.4c0.3,0.1,0.6,0.3,0.7,0.4c-0.4,0.3-0.8,0.7-1.2,1L181.5,91.8L181.5,91.8z"/>
	<path class="st3" d="M105.7,69.2c-1.8-0.7-3.6-1.9-4.7-3.2c-2.1-2.5-2.1-3.7-1.1-5.8c0.7-1.6,2.7-3,5.3-3.9l0-0.2
		c0.5-3.9,4.5-5,7.9-4.2c0.4,0.1,0.9,0.3,1.4,0.6c1.2,0.6,3.6,2.1,4.7,2.3c0.9-0.2,1.2-0.4,1.2-1.4c0-0.9-0.9-1.8-1.7-2.5
		c-1.2,0-2.3-0.1-3.4-0.8c-1.5-0.9-2.1-2.7-1.4-3.9c0.5-0.8,0.9-1.1,1.7-1c0.5-0.7,1.5-0.9,2.6-1c0.6,0,1.1,0.1,1.7,0.2
		c2.2,0.2,3.1-1.5,2.9-3.6c-0.1-1.2-0.1-3.2,0.2-4.4c0.2-0.7,0.6-1.3,1.1-1.8c-0.3-0.3-0.5-0.6-0.5-0.9c0-0.8,1-2.7,1.1-3.9
		c0.1-1.1,0.6-3,0.6-3s0.5,1.9,0.6,3c0.1,1.1,1.1,3,1.1,3.9c0,0.3-0.2,0.7-0.5,1c0.5,0.5,0.9,1.1,1.1,1.8c0.3,1.1,0.3,3.1,0.2,4.4
		c-0.2,2.1,0.7,3.8,2.9,3.6c0.6-0.1,1.1-0.2,1.7-0.2c1.1,0,2.1,0.2,2.6,1c0.7,0,1.2,0.2,1.7,1c0.7,1.1,0.1,3-1.4,3.9
		c-1.1,0.7-2.2,0.8-3.4,0.8c-0.9,0.7-1.8,1.6-1.7,2.5c0.1,1.1,0.3,1.3,1.2,1.4c1.1-0.2,3.5-1.7,4.7-2.3c0.5-0.3,1-0.5,1.4-0.6
		c3.4-0.7,7.4,0.3,7.9,4.2l0,0.2c2.6,0.9,4.6,2.3,5.3,3.9c1,2.1,1,3.3-1.1,5.8c-1.1,1.3-3,2.5-4.7,3.2l1.4,0.1c1.5-1.5,4-2.3,6-2.2
		c2.1,0.1,3.5,0.7,4.5,1.5c0.5,0,1,0,1.4,0.1c1.3,0.2,2.8,1.1,3.2,2.5c5.1,0.8,12,2,14,3.5c0.4,0.3,0.8,0.7,0.8,1.2v4h3.2
		c2.7,0,5.4-1.2,5.4,3.2v6.6c0.2,0.3,0.2,0.7,0.1,1.1c-0.2,0.8-2.1,1.3-3.2,1.6l0.3,5.3l-4.2-1.5c0.2-0.3,0.4-0.6,0.7-0.9l2.4,0.9
		l-0.2-3.3c0.3-0.3,0.6-0.6,1-1l0.9-0.9c0.8-0.2,1.4-0.5,1.3-0.9h-0.1v-0.2c-0.1-0.1-0.4-0.3-0.7-0.4c-0.9-0.4-3.2-0.4-5.9-0.4
		c-2.6,0-10.3,0.9-13.8,0.9c-1.7,0-7.7-0.1-7.7-3c0-0.2,0-0.5,0.1-0.7v-0.4l-0.1,0.1c-1.1,1-2.3,1.7-3.6,2.3h-1.3
		c0.2-0.1,0.6-0.2,1.1-0.5c1.6-0.7,2.8-1.4,4-2.7v-0.4c-1.6,1.3-3.7,2.1-5.8,2.1c-4.1,0-5.9-2-6.9-4.4c-0.1-0.3-0.2-0.6-0.3-0.9
		c-0.4,0.5-0.6,1.2-0.6,1.8c0,1.7,1.1,3.7,2.4,4.9h-0.7c-0.7-0.7-1.2-1.6-1.6-2.5l0.2,2.5h-2.8l-1-7.7c-2.6,4.4-7.5,7.4-13,7.4
		c-5.5,0-10.3-2.9-12.9-7.3l-1,7.6h-2.8l0.3-3.2c-0.4,1.2-1.1,2.3-1.9,3.2h-0.7c1.3-1.2,2.4-3.2,2.4-4.9c0-0.7-0.2-1.3-0.6-1.8
		c-0.1,0.3-0.2,0.6-0.3,0.9c-1.1,2.4-2.8,4.4-6.9,4.4c-2.1,0-4.2-0.7-5.8-2.1v0.4c1.2,1.3,2.4,1.9,4,2.7c0.5,0.2,1,0.4,1.1,0.5h-1.3
		c-1.3-0.6-2.5-1.3-3.6-2.3l-0.1-0.1v0.4c0.1,0.2,0.1,0.4,0.1,0.7c0,2.8-6,3-7.7,3c-3.5,0-11.2-0.9-13.8-0.9c-0.8,0-5.5-0.2-6.6,0.7
		v0.2h-0.2c-0.2,0.6,1.1,0.8,1.3,0.8L69,92c0.3,0.3,0.7,0.6,1,0.9l-0.2,3.3l2.4-0.9c0.2,0.3,0.4,0.6,0.7,0.9l-4.2,1.5l0.3-5.4
		c-0.5-0.1-1.2-0.2-1.6-0.4c-1.5-0.5-2.1-1.4-1.6-2.3v-6.6c0-1.5,0.4-3.2,2.2-3.3c1.1-0.1,2.1,0.1,3.2,0.1h3.2v-4
		c0-1.9,5-2.9,6.1-3.2c1.7-0.4,4.5-1,8.6-1.6c0.4-1.4,1.8-2.3,3.2-2.5c0.4-0.1,0.9-0.1,1.4-0.1c1-0.7,2.4-1.3,4.5-1.5
		c2.1-0.1,4.5,0.7,6,2.2L105.7,69.2L105.7,69.2z"/>
	<path class="st4" d="M105.7,69.2c-1.8-0.7-3.6-1.9-4.7-3.2c-2.1-2.5-2.1-3.7-1.1-5.8c0.7-1.6,2.7-3,5.3-3.9l0-0.2
		c0.5-3.9,4.5-5,7.9-4.2c0.4,0.1,0.9,0.3,1.4,0.6c1.2,0.6,3.6,2.1,4.7,2.3c0.9-0.2,1.2-0.4,1.2-1.4c0-0.9-0.9-1.8-1.7-2.5
		c-1.2,0-2.3-0.1-3.4-0.8c-1.5-0.9-2.1-2.7-1.4-3.9c0.5-0.8,0.9-1.1,1.7-1c0.5-0.7,1.5-0.9,2.6-1c0.6,0,1.1,0.1,1.7,0.2
		c2.2,0.2,3.1-1.5,2.9-3.6c-0.1-1.2-0.1-3.2,0.2-4.4c0.2-0.7,0.6-1.3,1.1-1.8c-0.3-0.3-0.5-0.6-0.5-0.9c0-0.8,1-2.7,1.1-3.9
		c0.1-1.1,0.6-3,0.6-3s0.5,1.9,0.6,3c0.1,1.1,1.1,3,1.1,3.9c0,0.3-0.2,0.7-0.5,1c0.5,0.5,0.9,1.1,1.1,1.8c0.3,1.1,0.3,3.1,0.2,4.4
		c-0.2,2.1,0.7,3.8,2.9,3.6c0.6-0.1,1.1-0.2,1.7-0.2c1.1,0,2.1,0.2,2.6,1c0.7,0,1.2,0.2,1.7,1c0.7,1.1,0.1,3-1.4,3.9
		c-1.1,0.7-2.2,0.8-3.4,0.8c-0.9,0.7-1.7,1.6-1.7,2.5c0,1.1,0.3,1.3,1.2,1.4c1.1-0.2,3.5-1.7,4.7-2.3c0.5-0.3,1-0.5,1.4-0.6
		c3.4-0.7,7.4,0.3,7.9,4.2l0,0.2c2.6,0.9,4.6,2.3,5.3,3.9c1,2.1,1,3.3-1.1,5.8c-1.1,1.3-3,2.5-4.7,3.2l1.4,0.1c1.5-1.5,4-2.3,6-2.2
		c2.1,0.1,3.5,0.7,4.5,1.5c0.5,0,1,0,1.4,0.1c1.3,0.2,2.8,1.1,3.2,2.5c5.1,0.8,12,2,14,3.5c0.4,0.3,0.8,0.7,0.8,1.2v4h3.2
		c2.7,0,5.4-1.2,5.4,3.2v6.6c0.2,0.3,0.2,0.7,0.1,1.1c-0.2,0.8-2.1,1.3-3.2,1.6l0.3,5.3l-4.2-1.5c0.2-0.3,0.4-0.6,0.7-0.9l2.4,0.9
		l-0.2-3.3c0.3-0.3,0.6-0.6,1-1l0.9-0.9c0.8-0.2,1.4-0.5,1.3-0.9h-0.1v-0.2c-0.1-0.1-0.4-0.3-0.7-0.4c-0.9-0.4-3.2-0.4-5.9-0.4
		c-2.6,0-10.3,0.9-13.8,0.9c-1.7,0-7.7-0.1-7.7-3c0-0.2,0-0.5,0.1-0.7v-0.4l-0.1,0.1c-1.1,1-2.3,1.7-3.6,2.3h-1.3
		c0.2-0.1,0.6-0.2,1.1-0.5c1.6-0.7,2.8-1.4,4-2.7v-0.4c-1.6,1.3-3.7,2.1-5.8,2.1c-4.1,0-5.9-2-6.9-4.4c-0.1-0.3-0.2-0.6-0.3-0.9
		c-0.4,0.5-0.6,1.2-0.6,1.8c0,1.7,1.1,3.7,2.4,4.9h-0.7c-0.7-0.7-1.2-1.6-1.6-2.5l0.2,2.5h-2.8l-1-7.7c-2.6,4.4-7.5,7.4-13,7.4
		c-5.5,0-10.3-2.9-12.9-7.3l-1,7.6h-2.8l0.3-3.2c-0.4,1.2-1.1,2.3-1.9,3.2h-0.7c1.3-1.2,2.4-3.2,2.4-4.9c0-0.7-0.2-1.3-0.6-1.8
		c-0.1,0.3-0.2,0.6-0.3,0.9c-1.1,2.4-2.8,4.4-6.9,4.4c-2.1,0-4.2-0.7-5.8-2.1v0.4c1.2,1.3,2.4,1.9,4,2.7c0.5,0.2,1,0.4,1.1,0.5h-1.3
		c-1.3-0.6-2.5-1.3-3.6-2.3l-0.1-0.1v0.4c0.1,0.2,0.1,0.4,0.1,0.7c0,2.8-6,3-7.7,3c-3.5,0-11.2-0.9-13.8-0.9c-0.8,0-5.5-0.2-6.6,0.7
		v0.2h-0.2c-0.2,0.6,1.3,0.8,1.3,0.8L69,92c0.3,0.3,0.7,0.6,1,0.9l-0.2,3.3l2.4-0.9c0.2,0.3,0.4,0.6,0.7,0.9l-4.2,1.5l0.3-5.4
		c-0.5-0.1-1.2-0.2-1.6-0.4c-1.5-0.5-2.1-1.4-1.6-2.3v-6.6c0-1.5,0.4-3.2,2.2-3.3c1.1-0.1,2.1,0.1,3.2,0.1h3.2v-4
		c0-1.9,5-2.9,6.1-3.2c1.7-0.4,4.5-1,8.6-1.6c0.4-1.4,1.8-2.3,3.2-2.5c0.4-0.1,0.9-0.1,1.4-0.1c1-0.7,2.4-1.3,4.5-1.5
		c2.1-0.1,4.5,0.7,6,2.2L105.7,69.2L105.7,69.2z"/>
	<path class="st3" d="M170.4,131.4c0.3,0.1,0.8,0.2,1.3,0.6c0.9,0.7,1.7,1.8,1.4,2.1c-0.3,0.3-0.9-0.7-1.7-1.1
		c-0.4-0.2-0.9-0.3-1.3-0.4v4.5l1-0.7h3.4l1.2,0.8c1.7-1.3,5.1-0.9,7.1-0.7l-0.5,0.6c0.7-0.1,1.3,0.3,1.8,0.7l0-0.1
		c1.2-1.7,3.8-1,5.6-0.6c0,0-1,0.9-1.2,1.1c-0.6,0.4-1.3,0.4-1.9,0.7c0.9,3.3,3.8,6.7,6.7,8.5l-0.5,1.1c0,0-1-0.3-2.7-0.7
		c-1.7-0.4-4.1-0.7-6.8-0.7c-5.1,0-5.6,2.7-5.6,4.3c0,4.8,5.5,10.6,9.1,13.6c0,0-0.3,0.8-0.5,1.2c-0.7,1.4-1.7,2.1-2.9,2.9
		c-1.3-0.1-4-0.1-5.1,0.5c-0.9,0.5-1.8,2-2.3,3l1.5,0.1c0.1-0.3,0.4-1.4,1-2.2c0.3-0.4,1.7-1,1.7-0.6c0,0.4-0.7,0.9-1.2,1.5
		c-0.4,0.5-0.3,1.1-0.3,1.4l1.4,0.1c0.2-0.4,0.6-1.4,1-2c0.2-0.3,1.7-0.9,1.8-0.5c0.1,0.4-0.8,0.9-1.2,1.5c-0.2,0.4-0.4,0.8-0.4,1.1
		l4.8,0.2c0.2-2.9,4-6.4,6.6-7.2c-0.4-1-0.6-2.1-0.8-3.1c0,0,1.4,1,1.6,1.1c0.1,0.1,0.3,0.1,0.5,0.2c-1.2-1.4-1.2-3.5-1.4-5.2
		c0,0,1.6,1.4,2.3,1.9c2.2,1.3,5,1.7,7.6,1.8c0.6,2.4,1.8,6.1,3.6,7.7c2.4,2.2,5,3.6,7.3,4.4c2.2,0.8,5.4,3.6,6.9,5.5
		c0,0-0.2,1.1-0.4,1.9c-0.2,0.8-0.3,2.1-0.3,2.1c-3.1-0.4-6.8,0.3-7.3,3.9l1.2,0.1c0-0.3,0.1-0.8,0.5-1.5c0.6-1,1.5-1.6,1.8-1.4
		c0.3,0.2-0.4,1.2-0.7,1.8c-0.2,0.4-0.4,1-0.5,1.4l0.1,0.3l1.3-0.1c0.1-0.3,0.4-1.3,0.8-1.9c0.5-0.8,1.1-1.1,1.5-1
		c0.4,0.1-0.2,1-0.6,1.8c-0.2,0.4-0.3,0.8-0.4,1.1l6,0c0.6-2.4,1.3-5.6,3.8-6.8l0.1-0.1c-0.5-0.9-0.6-1.9-0.8-2.9l0.5,0.2
		c-0.5-1-0.4-2.2,0.2-3.1c-1.5-0.6-2.9-1.6-3.8-2.9c-1.7-2.3-3.1-4.5-3.3-6.4c-0.6-4.2-0.2-4.5-2.8-7.9c3.3,0.2,3.5,0.1,6.1-1.9
		c0,0-0.1,0.4-0.1,0.9c0.6-1.1,1.4-2.7,1.4-2.7s0.4,0.5,0.6,0.9c0.7-1.7,0-6.6-0.3-8.2c-0.7-4.7-6.5-14.3-6.1-17.9
		c0.1-1.5,0.7-3.6,3.2-3.3c2.3,0.3,6.2,5.2,7.1,8.8c0.8,3.3,1.1,6.5,1.3,9.9c-0.6,0.8-1.4,2-1.4,3c0,2.5,1.1,4.5,2.9,6.1
		c-0.1-0.8-0.3-2-0.3-2s1.7,1.5,2.3,2c1.1,0.8,2.8,1.9,4.4,2.1c-1.1-1.1-3.2-3.9-2.5-4.9c0.4-0.6,0.8-0.4,1.3-0.3
		c-2-2.7-1.1-5.1-5.1-6.7c0,0,0.2-1.5,0.1-3.2c-0.3-4.9-3.1-10.9-6-14.7l1.2,0.1c-1.8-1.4-3.3-1.4-5.5-1.6l1.7-1c-3.9-1-7,1-6.8,5.7
		c0.2,4,1.3,6.8,2.8,10.3c0.9,2.3,2.7,6.8,2.7,9.5c0,2.8-1.8,4.7-3.6,4.7c-1.5,0-6.4-1.2-9-4.8c-2.5-3.6-2.8-6.6-2.5-8.3
		c0.2-1.7,1.9-6.5,2.7-8.9c0.8-2.4,1.8-6.7,1.8-6.7s1,1.1,1.2,1.4c0.2,0.3,0.4,0.6,0.6,1.1c0.4-2.6,0-6.3-0.9-8.8
		c-0.3-0.9-2.1-3.9-2.1-3.9s2.8,2,3.1,2.2c0.1,0.1,0.3,0.3,0.4,0.4c-0.1-3.9-2.5-7.3-4.9-10.2c0,0,1.9,0,2.8,0.2
		c-1.9-2.2-4.3-3.6-6.8-5.1c0,0,1.6-0.5,1.9-0.5c0.2,0,0.4-0.1,0.6-0.1c-1.5-0.7-4.2-1.1-6-1.2c-0.8,0-1.5-0.3-2.3-0.6l0,0.1
		c-0.2,2.3-2.2,2-4,2c-1.5,0-1.4,0.3-2.1,1.3c-1.4,2.1-3.6,1-5.8,1.8c0,0.8,0.4,3,0.9,3.7c0.7,0.3,1.7,0.3,2.6,0.3
		c2,0,3.8,1.5,3.8,3.5c0,1.3-2,1.7-2.9,1.7c-1.8,0-3.1-1.3-3.5-1.3c-0.1,0-0.7,1.2-0.7,2.4c0,0.9,0.2,1,0.7,1c1,0,1.9-0.6,2.9-0.6
		c1.3,0,2.5,1.4,2.5,3.1c0,1.8-1.6,3-2.9,3c-1.2,0-2.5-1.3-3.7-1.9c-1.6-0.8-5.6-2.2-6.8-3.6c-0.2-0.2-0.4-0.5-0.4-0.8
		c0-1.4,0.2-4.6-0.4-5.7c-0.7-1.2-2.4-2.3-3-2.6c-0.3-0.1-1-0.1-1.5-0.1v1c0.4,0.1,1,0.2,1.7,0.4c1.1,0.4,2.6,2,2.3,2.3
		c-0.3,0.3-1.6-0.5-2.3-0.9c-0.6-0.4-1.5-0.5-1.7-0.5v1.1c0.5,0.2,1.5,0.5,2,0.8c0.7,0.4,1.7,1.5,1.7,1.8c0,0.3-0.6,0.4-0.9,0.1
		c-0.3-0.3-1.3-0.6-1.8-0.9c-0.4-0.2-0.8-0.3-1-0.4v3.2c0.8,0.2,1.6,1.5,2.1,2.2c0.4,0.5,0.6,1,0.7,1.6l0,0.2
		c2.1,0.7,3.7,2.5,5.1,4.2l-0.7,0.3c1.2,0.7,1.4,1.6,1.7,2.9l0,0.2c2.2-0.3,2.9,0.5,4.1,2c0,0-4.2,1.4-5.7,2.1
		c-0.6,0.3-6.3,2.7-7.2,1.8c-1.1-1.1,0.9-3.1-4-5.2l0,1.1c0.4,0.1,1,0.3,1.5,0.6c0.8,0.5,1.2,1.3,1.2,1.6c0,0.3-0.6,0.2-1.1-0.3
		c-0.5-0.5-0.6-0.6-1.2-0.7c-0.2,0-0.4-0.1-0.5-0.1L170.4,131.4L170.4,131.4z"/>
	<path class="st4" d="M170.4,131.4c0.3,0.1,0.8,0.2,1.3,0.6c0.9,0.7,1.7,1.8,1.4,2.1c-0.3,0.3-0.9-0.7-1.7-1.1
		c-0.4-0.2-0.9-0.3-1.3-0.4v4.5l1-0.7h3.4l1.2,0.8c1.7-1.3,5.1-0.9,7.1-0.7l-0.5,0.6c0.7-0.1,1.3,0.3,1.8,0.7l0-0.1
		c1.2-1.7,3.8-1,5.6-0.6c0,0-1,0.9-1.2,1.1c-0.6,0.4-1.3,0.4-1.9,0.7c0.9,3.3,3.8,6.7,6.7,8.5l-0.5,1.1c0,0-1-0.3-2.7-0.7
		c-1.7-0.4-4.1-0.7-6.8-0.7c-5.1,0-5.6,2.7-5.6,4.3c0,4.8,5.5,10.6,9.1,13.6c0,0-0.3,0.8-0.5,1.2c-0.7,1.4-1.7,2.1-2.9,2.9
		c-1.3-0.1-4-0.1-5.1,0.5c-0.9,0.5-1.8,2-2.3,3l1.5,0.1c0.1-0.3,0.4-1.4,1-2.2c0.3-0.4,1.7-1,1.7-0.6c0,0.4-0.7,0.9-1.2,1.5
		c-0.4,0.5-0.3,1.1-0.3,1.4l1.4,0.1c0.2-0.4,0.6-1.4,1-2c0.2-0.3,1.7-0.9,1.8-0.5c0.1,0.4-0.8,0.9-1.2,1.5c-0.2,0.4-0.4,0.8-0.4,1.1
		l4.8,0.2c0.2-2.9,4-6.4,6.6-7.2c-0.4-1-0.6-2.1-0.8-3.1c0,0,1.4,1,1.6,1.1c0.1,0.1,0.5,0.2,0.5,0.2c-1.2-1.4-1.2-3.5-1.4-5.2
		c0,0,1.6,1.4,2.3,1.9c2.2,1.3,5,1.7,7.6,1.8c0.6,2.4,1.8,6.1,3.6,7.7c2.4,2.2,5,3.6,7.3,4.4c2.2,0.8,5.4,3.6,6.9,5.5
		c0,0-0.2,1.1-0.4,1.9c-0.2,0.8-0.3,2.1-0.3,2.1c-3.1-0.4-6.8,0.3-7.3,3.9l1.2,0.1c0-0.3,0.1-0.8,0.5-1.5c0.6-1,1.5-1.6,1.8-1.4
		c0.3,0.2-0.4,1.2-0.7,1.8c-0.2,0.4-0.4,1-0.5,1.4l0.1,0.3l1.3-0.1c0.1-0.3,0.4-1.3,0.8-1.9c0.5-0.8,1.1-1.1,1.5-1
		c0.4,0.1-0.2,1-0.6,1.8c-0.2,0.4-0.3,0.8-0.4,1.1l6,0c0.6-2.4,1.3-5.6,3.8-6.8l0.1-0.1c-0.5-0.9-0.6-1.9-0.8-2.9l0.5,0.2
		c-0.5-1-0.4-2.2,0.2-3.1c-1.5-0.6-2.9-1.6-3.8-2.9c-1.7-2.3-3.1-4.5-3.3-6.4c-0.6-4.2-0.2-4.5-2.8-7.9c3.3,0.2,3.5,0.1,6.1-1.9
		c0,0-0.1,0.4-0.1,0.9c0.6-1.1,1.4-2.7,1.4-2.7s0.4,0.5,0.6,0.9c0.7-1.7,0-6.6-0.3-8.2c-0.7-4.7-6.5-14.3-6.1-17.9
		c0.1-1.5,0.7-3.6,3.2-3.3c2.3,0.3,6.2,5.2,7.1,8.8c0.8,3.3,1.1,6.5,1.3,9.9c-0.6,0.8-1.4,2-1.4,3c0,2.5,1.1,4.5,2.9,6.1
		c-0.1-0.8-0.3-2-0.3-2s1.7,1.5,2.3,2c1.1,0.8,2.8,1.9,4.4,2.1c-1.1-1.1-3.2-3.9-2.5-4.9c0.4-0.6,0.8-0.4,1.3-0.3
		c-2-2.7-1.1-5.1-5.1-6.7c0,0,0.2-1.5,0.1-3.2c-0.3-4.9-3.1-10.9-6-14.7l1.2,0.1c-1.8-1.4-3.3-1.4-5.5-1.6l1.7-1c-3.9-1-7,1-6.8,5.7
		c0.2,4,1.3,6.8,2.8,10.3c0.9,2.3,2.7,6.8,2.7,9.5c0,2.8-1.8,4.7-3.6,4.7c-1.5,0-6.4-1.2-9-4.8c-2.5-3.6-2.8-6.6-2.5-8.3
		c0.2-1.7,1.9-6.5,2.7-8.9c0.8-2.4,1.8-6.7,1.8-6.7s1,1.1,1.2,1.4c0.2,0.3,0.4,0.6,0.6,1.1c0.4-2.6,0-6.3-0.9-8.8
		c-0.3-0.9-2.1-3.9-2.1-3.9s2.8,2,3.1,2.2c0.1,0.1,0.3,0.3,0.4,0.4c-0.1-3.9-2.5-7.3-4.9-10.2c0,0,1.9,0,2.8,0.2
		c-1.9-2.2-4.3-3.6-6.8-5.1c0,0,1.6-0.5,1.9-0.5l0.6-0.1c-1.5-0.7-4.2-1.1-6-1.2c-0.8,0-1.5-0.3-2.3-0.6l0,0.1c-0.2,2.3-2.2,2-4,2
		c-1.5,0-1.4,0.3-2.1,1.3c-1.4,2.1-3.6,1-5.8,1.8c0,0.8,0.4,3,0.9,3.7c0.7,0.3,1.7,0.3,2.6,0.3c2,0,3.8,1.5,3.8,3.5
		c0,1.3-2,1.7-2.9,1.7c-1.8,0-3.1-1.3-3.5-1.3c0,0-0.7,1.2-0.7,2.4c0,0.9,0.2,1,0.7,1c1,0,1.9-0.6,2.9-0.6c1.3,0,2.5,1.4,2.5,3.1
		c0,1.8-1.6,3-2.9,3c-1.2,0-2.5-1.3-3.7-1.9c-1.6-0.8-5.6-2.2-6.8-3.6c-0.2-0.2-0.4-0.5-0.4-0.8c0-1.4,0.2-4.6-0.4-5.7
		c-0.7-1.2-2.4-2.3-3-2.6c-0.3-0.1-1-0.1-1.5-0.1v1c0.4,0.1,1,0.2,1.7,0.4c1.1,0.4,2.6,2,2.3,2.3c-0.3,0.3-1.6-0.5-2.3-0.9
		c-0.6-0.4-1.7-0.5-1.7-0.5v1.1c0.5,0.2,1.5,0.5,2,0.8c0.7,0.4,1.7,1.5,1.7,1.8c0,0.3-0.6,0.4-0.9,0.1c-0.3-0.3-1.3-0.6-1.8-0.9
		c-0.4-0.2-0.8-0.3-1-0.4v3.2c0.8,0.2,1.6,1.5,2.1,2.2c0.4,0.5,0.6,1,0.7,1.6l0,0.2c2.1,0.7,3.7,2.5,5.1,4.2l-0.7,0.3
		c1.2,0.7,1.4,1.6,1.7,2.9l0,0.2c2.2-0.3,2.9,0.5,4.1,2c0,0-4.2,1.4-5.7,2.1c-0.6,0.3-6.3,2.7-7.2,1.8c-1.1-1.1,0.9-3.1-4-5.2l0,1.1
		c0.4,0.1,1,0.3,1.5,0.6c0.8,0.5,1.2,1.3,1.2,1.6c0,0.3-0.6,0.2-1.1-0.3c-0.5-0.5-0.6-0.6-1.2-0.7l-0.5-0.1L170.4,131.4L170.4,131.4
		z"/>
	<path class="st3" d="M79.9,131.4c-0.3,0.1-0.8,0.2-1.3,0.6c-0.9,0.7-1.7,1.8-1.4,2.1c0.3,0.3,0.9-0.7,1.7-1.1
		c0.4-0.2,0.9-0.3,1.3-0.4v4.5l-1-0.7h-3.4l-1.2,0.8c-1.7-1.3-5.1-0.9-7.1-0.7l0.5,0.6c-0.7-0.1-1.3,0.3-1.8,0.7l0-0.1
		c-1.2-1.7-3.8-1-5.6-0.6c0,0,1,0.9,1.2,1.1c0.6,0.4,1.3,0.4,1.9,0.7c-0.9,3.3-3.8,6.7-6.6,8.5l0.5,1.1c0,0,1-0.3,2.7-0.7
		c1.7-0.4,4.1-0.7,6.8-0.7c5.1,0,5.6,2.7,5.6,4.3c0,4.8-5.5,10.6-9.1,13.6c0,0,0.3,0.8,0.5,1.2c0.7,1.4,1.7,2.1,2.9,2.9
		c1.3-0.1,4-0.1,5.1,0.5c0.9,0.5,1.8,2,2.3,3l-1.5,0.1c-0.1-0.3-0.4-1.4-1-2.2c-0.3-0.4-1.7-1-1.7-0.6c0,0.4,0.7,0.9,1.2,1.5
		c0.4,0.5,0.3,1.1,0.3,1.4l-1.4,0.1c-0.2-0.4-0.6-1.4-1-2c-0.2-0.3-1.7-0.9-1.8-0.5c-0.1,0.4,0.8,0.9,1.2,1.5
		c0.2,0.4,0.4,0.8,0.4,1.1l-4.8,0.2c-0.2-2.9-4-6.4-6.6-7.2c0.4-1,0.6-2.1,0.8-3.1c0,0-1.4,1-1.6,1.1c-0.1,0.1-0.3,0.1-0.5,0.2
		c1.2-1.4,1.2-3.5,1.4-5.2c0,0-1.6,1.4-2.3,1.9c-2.2,1.3-5,1.7-7.6,1.8c-0.6,2.4-1.8,6.1-3.6,7.7c-2.4,2.2-5,3.6-7.3,4.4
		c-2.2,0.8-5.4,3.6-6.9,5.5c0,0,0.2,1.1,0.4,1.9c0.2,0.8,0.3,2.1,0.3,2.1c3.1-0.4,6.8,0.3,7.3,3.9l-1.2,0.1c0-0.3-0.1-0.8-0.5-1.5
		c-0.6-1-1.5-1.6-1.8-1.4c-0.3,0.2,0.4,1.2,0.7,1.8c0.2,0.4,0.4,1,0.5,1.4l-0.1,0.3l-1.3-0.1c-0.1-0.3-0.4-1.3-0.8-1.9
		c-0.5-0.8-1.1-1.1-1.5-1c-0.4,0.1,0.2,1,0.6,1.8c0.2,0.4,0.3,0.8,0.4,1.1l-6,0c-0.6-2.4-1.3-5.6-3.8-6.8l-0.1-0.1
		c0.5-0.9,0.6-1.9,0.8-2.9l-0.5,0.2c0.5-1,0.4-2.2-0.2-3.1c1.5-0.6,2.9-1.6,3.8-2.9c1.7-2.3,3.1-4.5,3.3-6.4
		c0.6-4.2,0.2-4.5,2.8-7.9c-3.3,0.2-3.5,0.1-6.1-1.9c0,0,0.1,0.4,0.1,0.9c-0.6-1.1-1.4-2.7-1.4-2.7s-0.4,0.5-0.6,0.9
		c-0.7-1.7,0-6.6,0.3-8.2c0.7-4.7,6.5-14.3,6.1-17.9c-0.1-1.5-0.7-3.6-3.2-3.3c-2.3,0.3-6.2,5.2-7.1,8.8c-0.8,3.3-1.1,6.5-1.3,9.9
		c0.6,0.8,1.4,2,1.4,3c0,2.5-1.1,4.5-2.9,6.1c0.1-0.8,0.3-2,0.3-2s-1.7,1.5-2.3,2c-1.1,0.8-2.8,1.9-4.4,2.1c1.1-1.1,3.2-3.9,2.5-4.9
		c-0.4-0.6-0.8-0.4-1.3-0.3c2-2.7,1.1-5.1,5.1-6.7c0,0-0.2-1.5-0.1-3.2c0.3-4.9,3-10.9,6-14.7l-1.2,0.1c1.8-1.4,3.3-1.4,5.5-1.6
		l-1.7-1c3.9-1,7,1,6.8,5.7c-0.2,4-1.3,6.8-2.8,10.3c-0.9,2.3-2.7,6.8-2.7,9.5c0,2.8,1.8,4.7,3.6,4.7c1.5,0,6.4-1.2,9-4.8
		c2.5-3.6,2.8-6.6,2.5-8.3c-0.2-1.7-1.9-6.5-2.7-8.9c-0.8-2.4-1.8-6.7-1.8-6.7s-1,1.1-1.2,1.4c-0.2,0.3-0.4,0.6-0.6,1.1
		c-0.4-2.6,0-6.3,0.9-8.8c0.3-0.9,2.1-3.9,2.1-3.9s-2.8,2-3.1,2.2c-0.1,0.1-0.3,0.3-0.4,0.4c0.1-3.9,2.5-7.3,4.9-10.2
		c0,0-1.9,0-2.8,0.2c1.9-2.2,4.3-3.6,6.8-5.1c0,0-1.6-0.5-1.9-0.5c-0.2,0-0.4-0.1-0.6-0.1c1.5-0.7,4.2-1.1,6-1.2
		c0.8,0,1.5-0.3,2.3-0.6l0,0.1c0.2,2.3,2.2,2,4,2c1.5,0,1.4,0.3,2.1,1.3c1.4,2.1,3.6,1,5.8,1.8c0,0.8-0.4,3-0.9,3.7
		c-0.7,0.3-1.7,0.3-2.6,0.3c-2,0-3.8,1.5-3.8,3.5c0,1.3,2,1.7,2.9,1.7c1.8,0,3.1-1.3,3.5-1.3c0.1,0,0.7,1.2,0.7,2.4
		c0,0.9-0.2,1-0.7,1c-1,0-1.9-0.6-2.9-0.6c-1.3,0-2.5,1.4-2.5,3.1c0,1.8,1.6,3,2.9,3c1.3,0,2.6-1.3,3.7-1.9c1.6-0.8,5.6-2.2,6.8-3.6
		c0.2-0.2,0.4-0.5,0.4-0.8c0-1.4-0.2-4.6,0.4-5.7c0.7-1.2,2.4-2.3,3-2.6c0.3-0.1,1-0.1,1.5-0.1v1c-0.4,0.1-1,0.2-1.7,0.4
		c-1.1,0.4-2.6,2-2.3,2.3c0.3,0.3,1.6-0.5,2.3-0.9c0.6-0.4,1.5-0.5,1.7-0.5v1.1c-0.5,0.2-1.5,0.5-2,0.8c-0.7,0.4-1.7,1.5-1.7,1.8
		c0,0.3,0.6,0.4,0.9,0.1c0.3-0.3,1.3-0.6,1.8-0.9c0.4-0.2,0.8-0.3,1-0.4v3.2c-0.8,0.2-1.6,1.5-2.1,2.2c-0.4,0.5-0.6,1-0.7,1.6l0,0.2
		c-2.1,0.7-3.7,2.5-5.1,4.2l0.7,0.3c-1.2,0.7-1.4,1.6-1.7,2.9l0,0.2c-2.2-0.3-2.9,0.5-4.1,2c0,0,4.2,1.4,5.7,2.1
		c0.6,0.3,6.3,2.7,7.2,1.8c1.1-1.1-0.9-3.1,4-5.2v1.1c-0.4,0.1-1,0.3-1.5,0.6c-0.8,0.5-1.2,1.3-1.2,1.6c0,0.3,0.6,0.2,1.1-0.3
		c0.5-0.5,0.6-0.6,1.2-0.7c0.2,0,0.3-0.1,0.5-0.1L79.9,131.4L79.9,131.4z"/>
	<path class="st4" d="M79.9,131.4c-0.3,0.1-0.8,0.2-1.3,0.6c-0.9,0.7-1.7,1.8-1.4,2.1c0.3,0.3,0.9-0.7,1.7-1.1
		c0.4-0.2,0.9-0.3,1.3-0.4v4.5l-1-0.7h-3.4l-1.2,0.8c-1.7-1.3-5.1-0.9-7.1-0.7l0.5,0.6c-0.7-0.1-1.3,0.3-1.8,0.7l0-0.1
		c-1.2-1.7-3.8-1-5.6-0.6c0,0,1,0.9,1.2,1.1c0.6,0.4,1.3,0.4,1.9,0.7c-0.9,3.3-3.8,6.7-6.6,8.5l0.5,1.1c0,0,1-0.3,2.7-0.7
		c1.7-0.4,4.1-0.7,6.8-0.7c5.1,0,5.6,2.7,5.6,4.3c0,4.8-5.5,10.6-9.1,13.6c0,0,0.3,0.8,0.5,1.2c0.7,1.4,1.7,2.1,2.9,2.9
		c1.3-0.1,4-0.1,5.1,0.5c0.9,0.5,1.8,2,2.3,3l-1.5,0.1c-0.1-0.3-0.4-1.4-1-2.2c-0.3-0.4-1.7-1-1.7-0.6c0,0.4,0.7,0.9,1.2,1.5
		c0.4,0.5,0.3,1.1,0.3,1.4l-1.4,0.1c-0.2-0.4-0.6-1.4-1-2c-0.2-0.3-1.7-0.9-1.8-0.5c-0.1,0.4,0.8,0.9,1.2,1.5
		c0.2,0.4,0.4,0.8,0.4,1.1l-4.8,0.2c-0.2-2.9-4-6.4-6.6-7.2c0.4-1,0.6-2.1,0.8-3.1c0,0-1.4,1-1.6,1.1c-0.1,0.1-0.5,0.2-0.5,0.2
		c1.2-1.4,1.2-3.5,1.4-5.2c0,0-1.6,1.4-2.3,1.9c-2.2,1.3-5,1.7-7.6,1.8c-0.6,2.4-1.8,6.1-3.6,7.7c-2.4,2.2-5,3.6-7.3,4.4
		c-2.2,0.8-5.4,3.6-6.9,5.5c0,0,0.2,1.1,0.4,1.9c0.2,0.8,0.3,2.1,0.3,2.1c3.1-0.4,6.8,0.3,7.3,3.9l-1.2,0.1c0-0.3-0.1-0.8-0.5-1.5
		c-0.6-1-1.5-1.6-1.8-1.4c-0.3,0.2,0.4,1.2,0.7,1.8c0.2,0.4,0.4,1,0.5,1.4l-0.1,0.3l-1.3-0.1c-0.1-0.3-0.4-1.3-0.8-1.9
		c-0.5-0.8-1.1-1.1-1.5-1c-0.4,0.1,0.2,1,0.6,1.8c0.2,0.4,0.3,0.8,0.4,1.1l-6,0c-0.6-2.4-1.3-5.6-3.8-6.8l-0.1-0.1
		c0.5-0.9,0.6-1.9,0.8-2.9l-0.5,0.2c0.5-1,0.4-2.2-0.2-3.1c1.5-0.6,2.9-1.6,3.8-2.9c1.7-2.3,3.1-4.5,3.3-6.4
		c0.6-4.2,0.2-4.5,2.8-7.9c-3.3,0.2-3.5,0.1-6.1-1.9c0,0,0.1,0.4,0.1,0.9c-0.6-1.1-1.4-2.7-1.4-2.7s-0.4,0.5-0.6,0.9
		c-0.7-1.7,0-6.6,0.3-8.2c0.7-4.7,6.5-14.3,6.1-17.9c-0.1-1.5-0.7-3.6-3.2-3.3c-2.3,0.3-6.2,5.2-7.1,8.8c-0.8,3.3-1.1,6.5-1.3,9.9
		c0.6,0.8,1.4,2,1.4,3c0,2.5-1.1,4.5-2.9,6.1c0.1-0.8,0.3-2,0.3-2s-1.7,1.5-2.3,2c-1.1,0.8-2.8,1.9-4.4,2.1c1.1-1.1,3.2-3.9,2.5-4.9
		c-0.4-0.6-0.8-0.4-1.3-0.3c2-2.7,1.1-5.1,5.1-6.7c0,0-0.2-1.5-0.1-3.2c0.3-4.9,3-10.9,6-14.7l-1.2,0.1c1.8-1.4,3.3-1.4,5.5-1.6
		l-1.7-1c3.9-1,7,1,6.8,5.7c-0.2,4-1.3,6.8-2.8,10.3c-0.9,2.3-2.7,6.8-2.7,9.5c0,2.8,1.8,4.7,3.6,4.7c1.5,0,6.4-1.2,9-4.8
		c2.5-3.6,2.8-6.6,2.5-8.3c-0.2-1.7-1.9-6.5-2.7-8.9c-0.8-2.4-1.8-6.7-1.8-6.7s-1,1.1-1.2,1.4c-0.2,0.3-0.4,0.6-0.6,1.1
		c-0.4-2.6,0-6.3,0.9-8.8c0.3-0.9,2.1-3.9,2.1-3.9s-2.8,2-3.1,2.2c-0.1,0.1-0.3,0.3-0.4,0.4c0.1-3.9,2.5-7.3,4.9-10.2
		c0,0-1.9,0-2.8,0.2c1.9-2.2,4.3-3.6,6.8-5.1c0,0-1.6-0.5-1.9-0.5l-0.6-0.1c1.5-0.7,4.2-1.1,6-1.2c0.8,0,1.5-0.3,2.3-0.6l0,0.1
		c0.2,2.3,2.2,2,4,2c1.5,0,1.4,0.3,2.1,1.3c1.4,2.1,3.6,1,5.8,1.8c0,0.8-0.4,3-0.9,3.7c-0.7,0.3-1.7,0.3-2.6,0.3
		c-2,0-3.8,1.5-3.8,3.5c0,1.3,2,1.7,2.9,1.7c1.8,0,3.1-1.3,3.5-1.3c0,0,0.7,1.2,0.7,2.4c0,0.9-0.2,1-0.7,1c-1,0-1.9-0.6-2.9-0.6
		c-1.3,0-2.5,1.4-2.5,3.1c0,1.8,1.6,3,2.9,3c1.3,0,2.6-1.3,3.7-1.9c1.6-0.8,5.6-2.2,6.8-3.6c0.2-0.2,0.4-0.5,0.4-0.8
		c0-1.4-0.2-4.6,0.4-5.7c0.7-1.2,2.4-2.3,3-2.6c0.3-0.1,1-0.1,1.5-0.1v1c-0.4,0.1-1,0.2-1.7,0.4c-1.1,0.4-2.6,2-2.3,2.3
		c0.3,0.3,1.6-0.5,2.3-0.9c0.6-0.4,1.7-0.5,1.7-0.5v1.1c-0.5,0.2-1.5,0.5-2,0.8c-0.7,0.4-1.7,1.5-1.7,1.8c0,0.3,0.6,0.4,0.9,0.1
		c0.3-0.3,1.3-0.6,1.8-0.9c0.4-0.2,0.8-0.3,1-0.4v3.2c-0.8,0.2-1.6,1.5-2.1,2.2c-0.4,0.5-0.6,1-0.7,1.6l0,0.2
		c-2.1,0.7-3.7,2.5-5.1,4.2l0.7,0.3c-1.2,0.7-1.4,1.6-1.7,2.9l0,0.2c-2.2-0.3-2.9,0.5-4.1,2c0,0,4.2,1.4,5.7,2.1
		c0.6,0.3,6.3,2.7,7.2,1.8c1.1-1.1-0.9-3.1,4-5.2v1.1c-0.4,0.1-1,0.3-1.5,0.6c-0.8,0.5-1.2,1.3-1.2,1.6c0,0.3,0.6,0.2,1.1-0.3
		c0.5-0.5,0.6-0.6,1.2-0.7l0.5-0.1L79.9,131.4L79.9,131.4z"/>
	<path class="st5" d="M119,194.6c-0.6-0.9-2.5-3-7-3.5c-5.6-0.6-15.8-0.1-20.6-3c-2.4-1.5-4.9-2.9-7.1-4.7
		c-6.9-5.6-7.2-13.1-7.2-21.4v-16.9h3.6v15.3c0,11.4,1,13.8,4,18.3c3,4.5,11.4,7.5,16.2,7.9c4.7,0.4,9.4,0.2,15.3,1.9
		c5.2,1.5,7.1,5.3,7.5,6.1l1.3,0l1.3,0c0.4-0.9,2.2-4.6,7.5-6.1c6-1.7,10.6-1.6,15.3-1.9c4.7-0.4,13.1-3.4,16.2-7.9
		c3-4.5,4-6.8,4-18.3v-15.3l3.6,0V162c0,8.3-0.3,15.8-7.2,21.4c-2.2,1.8-4.7,3.2-7.1,4.7c-4.7,2.8-15,2.3-20.6,3
		c-4.5,0.5-6.4,2.6-7,3.5l1.6-0.1c11.1-0.5,22.4-1.8,31.3-3.3v-5.1c0.4-0.3,0.8-0.6,1.2-0.9v5.7c6.9-1.1,12.3-2.3,14.9-3.1
		c2.7-0.8,7.1-2.8,8.8-5.5c-0.3-2-1.4-3.7-4.5-3.7c-3.8,0-5.3,0.9-8.6,2.2c-1.9,0.7-5.3,1.4-7.4,1.5c0.5-0.5,0.9-1,1.3-1.5
		c0.4,0,1-0.1,1.6-0.2c5.1-0.7,7.7-3.2,13.1-3.2c4.6,0,5.8,3.2,5.8,6v11.9c0.7,0.1,2.1,0.2,4.7,0.2c4.3,0,5.1-0.4,5.1-5.1v-16.2
		c-2.4,1.8-7.2,1.6-9.3,1.4c-6.3-0.6-15.4-1.8-17.8-2c0.1-0.4,0.2-0.8,0.3-1.2l0.8,0.1c-0.3,0.6-0.5,1.1-0.5,1.1l13.4,0.7l0-0.3
		c1.4,0.2,2.7,0.3,4,0.4c1.8,0.2,7.7,0.5,9-1.9l0.1,0c-0.4-2.2-2.4-2.4-4.3-2.8c-2.1-0.5-5.4-1.1-6-1.2c0.5-0.4,1-0.8,1.5-1.1
		c1,0.2,3.1,0.7,4.7,1.1l0.3,0.1v-4.1v-1.9c0.4,0.1,0.8,0.2,1.2,0.3v6c2.1,0.6,3.8,1.4,3.8,4.4v17.1c0,5.8-1.6,6.3-6.3,6.3
		c-2.4,0-3.9-0.1-4.7-0.2v4.3c0,4.8-0.9,5.5-5.9,7.7c-4.9,2.1-28,8.5-59.5,8.5c-31.5,0-54.6-6.4-59.6-8.5c-5-2.1-5.9-2.8-5.9-7.7
		v-4.3c-0.8,0.1-2.3,0.2-4.7,0.2c-4.2,0-6.3-0.1-6.3-6.3v-17.1c0-2.9,1.7-3.8,3.8-4.4v-6c0.4-0.1,0.8-0.2,1.2-0.3v1.9v4.1l0.3-0.1
		c1.6-0.4,3.7-0.8,4.7-1.1c0.5,0.3,0.9,0.6,1.4,1c-1.1,0.2-4,0.9-5.8,1.3c-1.9,0.4-3.9,0.7-4.3,2.8l0.1,0c1.4,2.4,7.3,2,9,1.9
		c1.2-0.1,2.6-0.3,4-0.4l-0.1,0.3l13.4-0.7c0,0-0.3-0.6-0.6-1.3l0.9-0.1c0.1,0.5,0.2,1,0.3,1.5c-2.9,0.3-11.8,1.4-17.8,2
		c-5.4,0.6-8.1-0.5-9.3-1.4v16.2c0,4.7,0.8,5.1,5.1,5.1c2.6,0,4.1-0.1,4.7-0.2v-11.9c0-2.8,1.2-6,5.8-6c5.4,0,8.1,2.5,13.1,3.2
		c0.6,0.1,1.2,0.1,1.6,0.2c0.4,0.5,0.8,1,1.2,1.4c-1-0.1-2.2-0.3-2.9-0.4c-1.3-0.2-2.9-0.5-4.4-1c-3.3-1.3-4.8-2.2-8.6-2.2
		c-3.1,0-4.2,1.7-4.5,3.6c0.1,0.1,0.2,0.2,0.3,0.3c2.1,2.6,5.5,4.3,8.6,5.2c2.7,0.8,8.1,1.9,14.9,3.1v-5.8c0.4,0.3,0.8,0.6,1.2,0.9
		v5.1c9,1.4,20.2,2.8,31.3,3.3L119,194.6L119,194.6z"/>
	<path class="st6" d="M189.4,184.3c-2.2,2.4-5.5,4-8.6,4.9c-7.2,2.1-33,6.8-55.7,6.8c-22.7,0-48.5-4.7-55.7-6.8
		c-2.5-0.7-6.3-2.5-8.6-4.8V201c0,4.2,0.4,4.5,5.2,6.5c4.8,2,27.7,8.4,59.1,8.4c31.4,0,54.3-6.4,59.1-8.4c4.7-2,5.2-2.4,5.2-6.5
		V184.3L189.4,184.3z"/>
	<path class="st0" d="M64.5,199.6l0.4,0.1c-0.2,1.2-0.1,2.1,0.2,2.8c0.3,0.7,0.8,1.1,1.4,1.3c0.6,0.2,1.1,0.2,1.5-0.1
		c0.4-0.3,0.6-0.6,0.8-1c0.2-0.4,0.1-0.8,0-1.2c-0.1-0.2-0.4-0.6-0.8-1.1l-0.7-0.8c-0.7-0.8-1.1-1.4-1.3-2c-0.2-0.6-0.2-1.2,0.1-1.9
		c0.2-0.7,0.7-1.3,1.4-1.8c0.7-0.5,1.5-0.5,2.5-0.2c0.5,0.2,0.9,0.4,1.3,0.7c0.4,0.3,0.6,0.5,0.7,0.5c0.1,0.1,0.3,0,0.4,0
		c0.1-0.1,0.2-0.2,0.3-0.3l0.4,0.1l-1.1,3.2l-0.4-0.1c0.1-0.8,0-1.6-0.3-2.2c-0.3-0.7-0.7-1.1-1.3-1.4c-0.5-0.2-0.9-0.1-1.2,0
		c-0.4,0.2-0.6,0.5-0.7,0.9c-0.2,0.5-0.2,0.9,0,1.2c0.2,0.3,0.6,0.9,1.3,1.6l0.8,0.9c0.4,0.4,0.6,0.8,0.8,1.2c0.3,0.7,0.3,1.5,0,2.3
		c-0.3,0.7-0.8,1.4-1.5,1.8c-0.8,0.5-1.7,0.5-2.9,0.1c-0.3-0.1-0.5-0.2-0.8-0.4c-0.3-0.1-0.5-0.3-0.7-0.5l-0.2-0.2
		c-0.1,0-0.1-0.1-0.2-0.1c-0.1,0-0.1-0.1-0.1-0.1c-0.1,0-0.2,0-0.3,0c-0.1,0.1-0.2,0.2-0.3,0.3l-0.4-0.1L64.5,199.6L64.5,199.6z"/>
	<path class="st0" d="M77,196.1l-0.1,0.4c-0.5-0.1-0.9-0.1-1.1,0c-0.2,0.1-0.4,0.5-0.5,1.1l-1.3,5.1c-0.2,0.8-0.3,1.4-0.2,1.8
		c0.1,0.9,0.6,1.4,1.4,1.6c1,0.3,1.9,0,2.4-0.8c0.3-0.4,0.6-1.1,0.8-1.9l1.2-4.6c0.1-0.5,0.1-0.9,0-1.2c-0.1-0.3-0.4-0.5-1-0.6
		l0.1-0.4l3,0.7l-0.1,0.4c-0.5,0-0.8,0-0.9,0.1c-0.2,0.1-0.3,0.4-0.4,0.9l-1.2,4.8c-0.3,1.3-0.8,2.2-1.6,2.8
		c-0.7,0.6-1.7,0.7-2.9,0.4c-1.6-0.4-2.5-1.2-2.8-2.4c-0.2-0.6-0.1-1.4,0.1-2.2L73,197c0.1-0.6,0.2-0.9,0.1-1.1
		c-0.1-0.2-0.4-0.4-0.8-0.5l0.1-0.4L77,196.1L77,196.1z"/>
	<path class="st0" d="M79,207.1c0.5,0.1,0.9,0,1.1-0.1c0.2-0.2,0.3-0.5,0.4-0.9l1.3-7.3c-0.3-0.6-0.5-1-0.6-1.1
		c-0.1-0.1-0.2-0.2-0.4-0.3l0.1-0.4l2.9,0.5l3.6,7.3l0.1,0l0.8-4.6c0.1-0.5,0.1-0.9-0.1-1.2c-0.1-0.3-0.5-0.5-1-0.6l0.1-0.4l3,0.5
		l-0.1,0.4c-0.4,0-0.8,0.1-0.9,0.2c-0.2,0.1-0.3,0.4-0.4,0.9l-1.6,9.1l-0.4-0.1l-4.6-9.3l-0.1,0l-1.1,6c-0.1,0.5-0.1,0.8,0,1
		c0.1,0.3,0.5,0.6,1,0.7l-0.1,0.4l-3.1-0.6L79,207.1L79,207.1z"/>
	<path class="st0" d="M88.3,208.8c0.4,0,0.6,0,0.8-0.1c0.3-0.1,0.5-0.4,0.5-0.8l1.1-7.6c0.1-0.4,0-0.7-0.3-0.9
		c-0.1-0.1-0.4-0.2-0.7-0.3l0.1-0.4l4.3,0.6c1.7,0.2,3,0.9,3.7,2.1c0.7,1,0.9,2.3,0.7,3.9c-0.2,1.4-0.8,2.5-1.7,3.4
		c-1.1,1-2.4,1.3-4,1.1l-4.4-0.6L88.3,208.8L88.3,208.8z M91.9,208.9c0.1,0.2,0.3,0.3,0.6,0.3c0.8,0.1,1.5-0.1,2.2-0.7
		c0.6-0.6,1.1-1.8,1.3-3.6c0.2-1.1,0.1-2,0-2.9c-0.3-1.3-1-2.1-2.1-2.2c-0.4-0.1-0.6,0-0.7,0.2c-0.1,0.1-0.2,0.3-0.2,0.6l-1.1,7.6
		C91.8,208.5,91.8,208.8,91.9,208.9L91.9,208.9z"/>
	<path class="st0" d="M97.6,210.5l0-0.4c0.4,0,0.7,0,0.9-0.1c0.3-0.1,0.4-0.4,0.5-0.9l0.5-7.5c0-0.5-0.1-0.8-0.3-0.9
		c-0.2-0.1-0.4-0.2-0.8-0.2l0-0.4l8.1,0.6l-0.2,3.1l-0.3,0c-0.1-1-0.4-1.7-0.8-2.1c-0.4-0.4-1.2-0.6-2.3-0.7c-0.4,0-0.7,0-0.8,0.1
		c-0.1,0.1-0.2,0.3-0.2,0.6l-0.3,3.6c0.8,0.1,1.3-0.1,1.7-0.4c0.3-0.3,0.6-0.9,0.8-1.8l0.4,0l-0.4,5.3l-0.4,0c0-0.9-0.2-1.5-0.5-1.9
		c-0.3-0.4-0.8-0.6-1.6-0.7l-0.3,3.8c0,0.3,0,0.6,0.2,0.7c0.1,0.1,0.5,0.2,0.9,0.2c0.9,0.1,1.6-0.1,2.2-0.4c0.6-0.3,1.1-1,1.7-2.1
		l0.4,0l-0.8,3.2L97.6,210.5L97.6,210.5z"/>
	<path class="st0" d="M106.3,210.9c0.5,0,0.8-0.1,1-0.2c0.2-0.2,0.3-0.5,0.3-1.1l0.4-6.9c0-0.6,0-1-0.2-1.2
		c-0.1-0.1-0.4-0.2-0.9-0.3l0-0.4l4.5,0.2c0.9,0,1.7,0.2,2.3,0.4c1.1,0.5,1.6,1.3,1.6,2.5c0,0.8-0.4,1.5-0.9,2
		c-0.4,0.3-0.9,0.6-1.4,0.6l2.6,4.6c0.1,0.1,0.1,0.2,0.2,0.3c0.1,0,0.2,0.1,0.3,0.1l0,0.4l-2.9-0.2l-2.7-5l-0.4,0l-0.2,3.1
		c0,0.5,0,0.9,0.2,1.1c0.2,0.2,0.5,0.3,1,0.4l0,0.4l-4.7-0.3L106.3,210.9L106.3,210.9z M112,205.7c0.4-0.3,0.6-0.9,0.7-1.9
		c0-0.6,0-1.1-0.2-1.4c-0.2-0.6-0.7-0.9-1.4-1c-0.4,0-0.6,0-0.7,0.1c-0.1,0.1-0.2,0.3-0.2,0.5l-0.2,4C111,206.1,111.6,206,112,205.7
		L112,205.7z"/>
	<path class="st0" d="M115.7,211.3c0.4,0,0.7-0.1,0.8-0.2c0.3-0.2,0.4-0.5,0.4-0.9l0.1-7.5c0-0.5-0.1-0.8-0.4-0.9
		c-0.2-0.1-0.4-0.2-0.8-0.2l0-0.4l4.9,0.1l0,0.4c-0.6,0-1,0.1-1.1,0.2c-0.2,0.2-0.3,0.5-0.3,1.2l-0.1,7.4c0,0.3,0.1,0.6,0.2,0.7
		c0.2,0.1,0.5,0.2,1,0.2c0.8,0,1.6-0.2,2.1-0.6c0.6-0.4,1.1-1.2,1.5-2.4l0.4,0l-0.6,3.5l-8.1-0.1L115.7,211.3L115.7,211.3z"/>
	<path class="st0" d="M129.6,208.1l-1.4-3.6l-0.1,0l-1.2,3.6L129.6,208.1L129.6,208.1z M124.4,211.5c0.3,0,0.6-0.2,0.8-0.5
		c0.1-0.2,0.3-0.6,0.5-1.3l3-8.6l0.4,0l3.3,8.1c0.4,0.9,0.6,1.5,0.8,1.8c0.2,0.3,0.4,0.4,0.7,0.4l0,0.4l-4.5,0.1l0-0.4
		c0.5,0,0.8-0.1,0.9-0.1c0.1-0.1,0.2-0.2,0.2-0.5c0-0.1,0-0.3-0.1-0.6c0-0.1-0.1-0.3-0.2-0.5l-0.4-0.9l-3.2,0.1
		c-0.2,0.6-0.3,1-0.4,1.2c-0.1,0.4-0.2,0.7-0.2,0.9c0,0.2,0.1,0.4,0.4,0.5c0.2,0.1,0.4,0.1,0.7,0.1l0,0.4l-2.9,0L124.4,211.5
		L124.4,211.5z"/>
	<path class="st0" d="M133.8,211.3c0.5,0,0.9-0.2,1-0.4c0.1-0.2,0.2-0.5,0.2-0.9l-0.4-7.4c-0.5-0.5-0.7-0.8-0.8-0.9
		c-0.1-0.1-0.2-0.1-0.4-0.2l0-0.4l3-0.2l5.2,6.3l0.1,0l-0.2-4.6c0-0.5-0.1-0.9-0.3-1.1c-0.2-0.2-0.5-0.3-1.1-0.4l0-0.4l3-0.2l0,0.4
		c-0.4,0.1-0.7,0.2-0.9,0.4c-0.1,0.1-0.2,0.5-0.2,0.9l0.5,9.2l-0.4,0l-6.6-8l-0.1,0l0.3,6.1c0,0.5,0.1,0.8,0.2,1
		c0.2,0.3,0.6,0.5,1.2,0.5l0,0.4l-3.2,0.2L133.8,211.3L133.8,211.3z"/>
	<path class="st0" d="M143.1,210.8c0.3,0,0.6-0.1,0.7-0.2c0.3-0.2,0.4-0.5,0.4-0.9l-0.5-7.7c0-0.4-0.2-0.7-0.5-0.8
		c-0.2-0.1-0.4-0.1-0.8-0.1l0-0.4l4.3-0.3c1.7-0.1,3.1,0.3,4.1,1.3c0.9,0.9,1.4,2.1,1.5,3.7c0.1,1.4-0.2,2.6-1,3.7
		c-0.9,1.2-2.1,1.8-3.7,1.9l-4.4,0.3L143.1,210.8L143.1,210.8z M146.7,210.2c0.1,0.1,0.3,0.2,0.6,0.2c0.8-0.1,1.5-0.4,2-1.1
		c0.5-0.7,0.7-2,0.5-3.8c-0.1-1.1-0.3-2-0.6-2.8c-0.6-1.2-1.4-1.8-2.5-1.7c-0.4,0-0.6,0.1-0.7,0.3c-0.1,0.1-0.1,0.3-0.1,0.7l0.5,7.7
		C146.6,209.9,146.6,210.1,146.7,210.2L146.7,210.2z"/>
	<path class="st0" d="M159.4,205.8l-1.8-3.4l-0.1,0l-0.8,3.8L159.4,205.8L159.4,205.8z M154.6,209.8c0.3-0.1,0.6-0.3,0.7-0.6
		c0.1-0.2,0.2-0.7,0.4-1.4l1.9-8.9l0.4-0.1l4.2,7.7c0.5,0.9,0.8,1.4,1,1.7c0.2,0.2,0.5,0.3,0.8,0.3l0.1,0.4l-4.5,0.6l-0.1-0.4
		c0.5-0.1,0.7-0.2,0.9-0.3c0.1-0.1,0.2-0.3,0.1-0.5c0-0.1-0.1-0.3-0.2-0.5c-0.1-0.1-0.2-0.3-0.3-0.5l-0.5-0.9l-3.1,0.4
		c-0.1,0.6-0.2,1.1-0.2,1.3c-0.1,0.4-0.1,0.7-0.1,0.9c0,0.2,0.2,0.4,0.5,0.4c0.2,0,0.4,0,0.7,0l0.1,0.4l-2.8,0.4L154.6,209.8
		L154.6,209.8z"/>
	<path class="st0" d="M164.3,206.7c0.2-0.3,0.4-0.5,0.8-0.5c0.3-0.1,0.6,0,0.9,0.2c0.3,0.2,0.4,0.5,0.5,0.9c0.1,0.4,0,0.7-0.2,1
		c-0.2,0.3-0.4,0.5-0.8,0.5c-0.3,0.1-0.6,0-0.9-0.2c-0.3-0.2-0.4-0.5-0.5-0.9C164,207.3,164.1,207,164.3,206.7L164.3,206.7z"/>
	<path class="st0" d="M166.7,208c0.4-0.1,0.7-0.2,0.8-0.4c0.2-0.2,0.3-0.5,0.2-1l-1.6-7.4c-0.1-0.4-0.3-0.7-0.6-0.8
		c-0.2-0.1-0.5-0.1-0.9,0l-0.1-0.4l7.8-1.7l0.7,3.1l-0.3,0.1c-0.4-0.9-0.8-1.5-1.3-1.8c-0.5-0.3-1.3-0.3-2.3-0.1
		c-0.4,0.1-0.6,0.2-0.7,0.3c-0.1,0.1-0.1,0.3,0,0.6l0.8,3.5c0.7-0.1,1.2-0.4,1.4-0.8c0.2-0.4,0.3-1,0.2-1.9l0.3-0.1l1.1,5.2
		l-0.3,0.1c-0.3-0.8-0.6-1.4-1-1.7c-0.4-0.3-0.9-0.4-1.6-0.2l0.8,3.6c0.1,0.5,0.3,0.7,0.6,0.8c0.3,0.1,0.7,0,1.2-0.1l0.1,0.4
		l-4.9,1.1L166.7,208L166.7,208z"/>
	<path class="st0" d="M173.4,204.9c0.2-0.3,0.4-0.5,0.7-0.6c0.3-0.1,0.6,0,0.9,0.2c0.3,0.2,0.5,0.5,0.5,0.8c0.1,0.4,0,0.7-0.1,1
		c-0.2,0.3-0.4,0.5-0.7,0.6c-0.3,0.1-0.6,0-0.9-0.2c-0.3-0.2-0.5-0.5-0.5-0.8C173.2,205.5,173.2,205.2,173.4,204.9L173.4,204.9z"/>
	<path class="st0" d="M179.8,194.5c0.6,0.1,1,0.1,1.1,0.1c0.2,0,0.3-0.2,0.3-0.3c0.1-0.2,0.1-0.3,0.1-0.5l0.4-0.1l1,3.5l-0.3,0.1
		c-0.5-0.7-1-1.2-1.5-1.5c-0.9-0.6-1.7-0.8-2.5-0.6c-0.9,0.3-1.4,0.9-1.6,1.9c-0.1,1,0,2.2,0.4,3.6c0.3,1.1,0.7,1.9,1.1,2.6
		c0.8,1.2,1.8,1.6,2.9,1.3c0.7-0.2,1.3-0.6,1.8-1.2c0.3-0.3,0.6-0.9,0.9-1.5l0.5,0.3c-0.3,0.8-0.7,1.4-1,1.8
		c-0.6,0.7-1.3,1.2-2.1,1.5c-1.3,0.4-2.6,0.3-3.7-0.4c-1.3-0.7-2.2-1.9-2.6-3.5c-0.5-1.6-0.4-3.1,0.3-4.4c0.6-1.2,1.6-2,2.9-2.4
		C178.5,194.4,179.1,194.4,179.8,194.5L179.8,194.5z"/>
	<path class="st0" d="M184.9,201.5c0.1-0.3,0.3-0.5,0.7-0.7c0.3-0.1,0.6-0.1,0.9,0.1c0.3,0.2,0.5,0.4,0.6,0.8c0.1,0.3,0.1,0.7,0,1
		c-0.1,0.3-0.3,0.5-0.7,0.6c-0.3,0.1-0.6,0.1-0.9-0.1c-0.3-0.2-0.5-0.4-0.6-0.8C184.8,202.2,184.8,201.8,184.9,201.5L184.9,201.5z"
		/>
	<path class="st7" d="M199.9,108.6c0,0-1-1.8-2.1-2.3c-1-0.4-2.3-0.7-2.4-0.3c-0.1,0.4,0.9,1.8,0.9,1.8s0.6-0.2,1.5,0
		C198.8,108.1,199.9,108.6,199.9,108.6L199.9,108.6z"/>
	<path class="st8" d="M220.1,162c0.4-0.9,0.9-2,1.1-2.5c-0.6,0.3-1.3,0.5-2,0.5C219.7,160.8,219.9,161.4,220.1,162L220.1,162z"/>
	<path class="st9" d="M50.3,108.6c0,0,1-1.8,2.1-2.3c1-0.4,2.3-0.7,2.4-0.3c0.2,0.4-0.9,1.8-0.9,1.8s-0.6-0.2-1.5,0
		C51.5,108.1,50.3,108.6,50.3,108.6L50.3,108.6z"/>
	<path class="st8" d="M30.2,162c-0.4-0.9-0.9-2-1.1-2.5c0.6,0.3,1.3,0.5,2,0.5C30.6,160.8,30.3,161.4,30.2,162L30.2,162z"/>
	<path class="st10" d="M134,188.6c-5.3,1.5-7.1,5.3-7.5,6.2h-1.3v-49.6l44.4,0v15.3c0,11.4-1,13.8-4,18.3c-3,4.5-11.4,7.5-16.2,7.9
		C144.6,187,139.9,186.9,134,188.6L134,188.6z"/>
	<path class="st1" d="M125.1,152.2v-0.7c0.8,0,2-0.1,2.7-0.2c1-0.2,2.4-0.2,2.7,0c0.3,0.2,1,0.4,1,0.4s1.3-0.2,2-0.2
		c0.7,0,2.1,0.4,2.1,0.4s1.3-0.8,2.2-0.9c0.9-0.1,8.8,0.1,18.3,2.2c7.5,1.7,11.9,3.5,13.4,4.2v1.2c-1.8-0.8-6.7-2.6-13.7-4.3
		c-9-2.2-16.6-2.3-18-2.2c-1.4,0.1-2.8,0.6-4.2,0.6c-1.4,0-2.8-0.3-4.2-0.6c-0.5-0.1-1.9-0.1-3.1,0
		C125.9,152.1,125.5,152.2,125.1,152.2L125.1,152.2z M125.1,155v-2.3c1.4-0.1,3.4-0.2,4.2,0c1.4,0.3,2.9,0.6,4.3,0.6
		c1.4,0,2.8-0.5,4.2-0.6c1.3-0.1,8.9,0,17.9,2.2c7.3,1.8,12.2,3.7,13.8,4.4v1.1c0,0.5,0,1,0,1.5c-1.6-0.8-6.1-3-13.5-4.8
		c-9.4-2.3-17.1-2.3-18.1-2.5c-0.6-0.1-1.2-0.3-1.7-0.5c-2.3-0.7-4.5-0.1-6.7,0.7C129.2,155,126.6,155,125.1,155L125.1,155z
		 M156.8,159.1v25.6c-0.7,0.3-1.5,0.5-2.2,0.8v-27c-1-0.2-2-0.4-3-0.6c-1.3-0.2-2.5-0.4-3.6-0.6v29.4c-0.7,0-1.4,0.1-2.2,0.1V157
		c-3.1-0.5-5.2-0.7-6.6-0.9v31.3c-0.7,0.1-1.4,0.2-2.2,0.4v-31.9l-1.2-0.5c0,0-0.8,0.5-1.5,0.5c-0.8,0-2.2-0.4-2.2-0.4l-1.1,1
		c0,0-0.3,0-0.7-0.1v33.8c-0.9,0.6-1.6,1.3-2.2,1.9v-35.8c-0.4,0-0.8,0-1.1,0c-0.7,0.1-1.4,0.2-1.9,0.2v-1c1.6,0,4,0,4.5-0.2
		c1.3-0.4,2.6-0.8,4-0.9c1.8-0.2,2.6,0.6,4.1,0.8c1.1,0.2,8.7,0.2,18.1,2.5c7.8,1.9,12.4,4.2,13.7,4.9l0,1.1c-0.7-0.4-2.1-1-3.8-1.7
		l0,16.4l-0.1,0.2c-0.5,0.8-1.2,1.5-2,2.2v-19.7C161.5,160.5,159.3,159.8,156.8,159.1L156.8,159.1z"/>
	<path class="st2" d="M125.1,152.2v-0.7c0.8,0,2-0.1,2.7-0.2c1-0.2,2.4-0.2,2.7,0c0.3,0.2,1,0.4,1,0.4s1.3-0.2,2-0.2
		c0.7,0,2.1,0.4,2.1,0.4s1.3-0.8,2.2-0.9c0.9-0.1,8.8,0.1,18.3,2.2c7.5,1.7,11.9,3.5,13.4,4.2v1.2c-1.8-0.8-6.7-2.6-13.7-4.3
		c-9-2.2-16.6-2.3-18-2.2c-1.4,0.1-2.8,0.6-4.2,0.6c-1.4,0-2.8-0.3-4.2-0.6c-0.5-0.1-1.9-0.1-3.1,0
		C125.9,152.1,125.5,152.2,125.1,152.2L125.1,152.2z M125.1,155v-2.3c1.4-0.1,3.4-0.2,4.2,0c1.4,0.3,2.9,0.6,4.3,0.6
		c1.4,0,2.8-0.5,4.2-0.6c1.3-0.1,8.9,0,17.9,2.2c7.3,1.8,12.2,3.7,13.8,4.4v1.1c0,0.5,0,1,0,1.5c-1.6-0.8-6.1-3-13.5-4.8
		c-9.4-2.3-17.1-2.3-18.1-2.5c-0.6-0.1-1.2-0.3-1.7-0.5c-2.3-0.7-4.5-0.1-6.7,0.7C129.2,155,126.6,155,125.1,155L125.1,155z
		 M156.8,159.1v25.6c-0.7,0.3-1.5,0.5-2.2,0.8v-27c-1-0.2-2-0.4-3-0.6c-1.3-0.2-2.5-0.4-3.6-0.6v29.4c-0.7,0-1.4,0.1-2.2,0.1V157
		c-3.1-0.5-5.2-0.7-6.6-0.9v31.3c-0.7,0.1-1.4,0.2-2.2,0.4v-31.9l-1.2-0.5c0,0-0.8,0.5-1.5,0.5c-0.8,0-2.2-0.4-2.2-0.4l-1.1,1
		c0,0-0.3,0-0.7-0.1v33.8c-0.9,0.6-1.6,1.3-2.2,1.9v-35.8c-0.4,0-0.8,0-1.1,0c-0.7,0.1-1.4,0.2-1.9,0.2v-1c1.6,0,4,0,4.5-0.2
		c1.3-0.4,2.6-0.8,4-0.9c1.8-0.2,2.6,0.6,4.1,0.8c1.1,0.2,8.7,0.2,18.1,2.5c7.8,1.9,12.4,4.2,13.7,4.9l0,1.1c-0.7-0.4-2.1-1-3.8-1.7
		l0,16.4l-0.1,0.2c-0.5,0.8-1.2,1.5-2,2.2v-19.7C161.5,160.5,159.3,159.8,156.8,159.1L156.8,159.1z"/>
	<path class="st11" d="M98.9,186.3c-2.7-0.5-5.9-1.6-8.7-3.1v-38.1l8.7,0V186.3L98.9,186.3z M116.5,188.6l-0.2,0
		c-3.2-0.9-5.9-1.3-8.6-1.5v-41.9l8.7,0V188.6L116.5,188.6z"/>
	<path class="st12" d="M98.9,186.3c-2.7-0.5-5.9-1.6-8.7-3.1v-38.1l8.7,0V186.3L98.9,186.3z M116.5,188.6l-0.2,0
		c-3.2-0.9-5.9-1.3-8.6-1.5v-41.9l8.7,0V188.6L116.5,188.6z"/>
	<path class="st7" d="M81.4,182.4c-1-0.1-2.2-0.3-3-0.4c-1.3-0.2-2.9-0.5-4.4-1c-3.3-1.3-4.8-2.2-8.6-2.2c-3.1,0-4.2,1.7-4.5,3.6
		c0.1,0.1,0.2,0.2,0.3,0.3c2.1,2.6,5.5,4.3,8.6,5.2c2.7,0.8,8.1,1.9,14.9,3.1v-5.8c0,0-0.9-0.7-1.9-1.6
		C81.9,182.8,81.4,182.4,81.4,182.4L81.4,182.4z"/>
	<path class="st1" d="M63.1,173.5c0-0.3-0.2-1.4-1-2.5c-0.8-1.1-2.1-2.3-2.1-2.3c-1.1,0.2-4,0.9-5.8,1.3c-1.9,0.4-3.9,0.7-4.3,2.8
		l0.1,0c1.4,2.4,7.3,2,9,1.9c1.2-0.1,2.6-0.3,4-0.4C63,174.2,63.2,173.8,63.1,173.5L63.1,173.5z"/>
	<path class="st2" d="M63.1,173.5c0-0.3-0.2-1.4-1-2.5c-0.8-1.1-2.1-2.3-2.1-2.3c-1.1,0.2-4,0.9-5.8,1.3c-1.9,0.4-3.9,0.7-4.3,2.8
		l0.1,0c1.4,2.4,7.3,2,9,1.9c1.2-0.1,2.6-0.3,4-0.4C63,174.2,63.1,173.8,63.1,173.5L63.1,173.5z"/>
	<path class="st10" d="M53.7,162.9l0,1.9v4.1l0.3-0.1c1.6-0.4,3.7-0.8,4.7-1.1c0,0-1.1-0.6-1.6-0.7c-0.5-0.1-1.1-0.1-1.1-0.1
		l0.7-1.7c0,0-1.2,0.1-1.9,0c-0.7-0.1-1.2-0.5-1.2-0.5s1.1-0.6,1.7-1.3c0.6-0.7,0.9-1.8,0.9-1.8s-0.7,0.5-1.3,0.7
		C54.4,162.6,53.7,162.9,53.7,162.9L53.7,162.9z"/>
	<path class="st7" d="M168.9,182.4c1-0.1,2.2-0.3,3-0.4c1.3-0.2,2.9-0.5,4.4-1c3.3-1.3,4.8-2.2,8.6-2.2c3.1,0,4.2,1.7,4.5,3.6
		c-0.1,0.1-0.1,0.2-0.3,0.3c-2.1,2.6-5.5,4.3-8.6,5.2c-2.7,0.8-8.1,1.9-14.9,3.1v-5.8c0,0,0.9-0.7,1.9-1.6
		C168.4,182.8,168.9,182.4,168.9,182.4L168.9,182.4z"/>
	<path class="st1" d="M187.2,173.5c0-0.3,0.2-1.4,1-2.5c0.8-1.1,2.1-2.3,2.1-2.3c1.1,0.2,4,0.9,5.8,1.3c1.9,0.4,3.9,0.7,4.3,2.8
		l-0.1,0c-1.4,2.4-7.3,2-9,1.9c-1.2-0.1-2.6-0.3-4-0.4C187.3,174.2,187.1,173.8,187.2,173.5L187.2,173.5z"/>
	<path class="st2" d="M187.2,173.5c0-0.3,0.2-1.4,1-2.5c0.8-1.1,2.1-2.3,2.1-2.3c1.1,0.2,4,0.9,5.8,1.3c1.9,0.4,3.9,0.7,4.3,2.8
		l-0.1,0c-1.4,2.4-7.3,2-9,1.9c-1.2-0.1-2.6-0.3-4-0.4C187.3,174.2,187.2,173.8,187.2,173.5L187.2,173.5z"/>
	<path class="st11" d="M196.6,162.9l0,1.9v4.1l-0.3-0.1c-1.6-0.4-3.7-0.8-4.7-1.1c0,0,1.1-0.6,1.6-0.7c0.5-0.1,1.1-0.1,1.1-0.1
		l-0.8-1.7c0,0,1.2,0.1,1.9,0c0.7-0.1,1.2-0.5,1.2-0.5s-1.1-0.6-1.7-1.3c-0.6-0.7-0.9-1.8-0.9-1.8c0,0,0.7,0.5,1.3,0.7
		C195.9,162.6,196.6,162.9,196.6,162.9L196.6,162.9z"/>
	<path class="st12" d="M196.6,162.9l0,1.9v4.1l-0.3-0.1c-1.6-0.4-3.7-0.8-4.7-1.1c0,0,1.1-0.6,1.6-0.7c0.5-0.1,1.1-0.1,1.1-0.1
		l-0.8-1.7c0,0,1.2,0.1,1.9,0c0.7-0.1,1.2-0.5,1.2-0.5s-1.1-0.6-1.7-1.3c-0.6-0.7-0.9-1.8-0.9-1.8s0.7,0.5,1.3,0.7
		C195.9,162.6,196.6,162.9,196.6,162.9L196.6,162.9z"/>
	<path class="st6" d="M172,177.7c-1,2.2-1.9,3.3-1.9,3.3c0.4,0,0.9-0.1,1.6-0.2c5.1-0.7,7.7-3.2,13.1-3.2c4.6,0,5.8,3.2,5.8,6v11.9
		c0.7,0.1,2.1,0.2,4.7,0.2c4.3,0,5.1-0.4,5.1-5.1v-16.2c-2.4,1.8-7.2,1.6-9.3,1.4c-6.3-0.6-15.4-1.8-17.8-2
		C173.4,173.8,173,175.5,172,177.7L172,177.7z"/>
	<path class="st6" d="M78.3,177.7c1,2.2,1.9,3.3,1.9,3.3c-0.4,0-0.9-0.1-1.6-0.2c-5.1-0.7-7.7-3.2-13.1-3.2c-4.6,0-5.8,3.2-5.8,6
		v11.9c-0.7,0.1-2.1,0.2-4.7,0.2c-4.3,0-5.1-0.4-5.1-5.1v-16.2c2.4,1.8,7.2,1.6,9.3,1.4c6.3-0.6,15.4-1.8,17.8-2
		C76.9,173.8,77.3,175.5,78.3,177.7L78.3,177.7z"/>
	<path class="st10" d="M80.8,126.4v-7.8v-15.9c0-1.6-0.9-4.3-1.7-5.9c-0.8-1.6-2.1-3.4-2.1-3.4h48.2l0.1,43.2h-2.9v-20.6h-5.8v20.6
		h-6.7v-20.6H104v20.6h-6.7v-20.6h-5.8v20.6h-10v-4.3l-0.7-2.3L80.8,126.4L80.8,126.4z"/>
	<polygon class="st7" points="87.2,115 125.1,115 125.1,113.6 87.2,113.6 87.2,115 	"/>
	<polygon class="st7" points="125.1,111.4 125.1,112.9 87.2,112.9 113.3,103.2 125.1,107.7 125.1,111.4 	"/>
	<path class="st13" d="M103.5,120.8c-1.6,1.2-3.6,2.1-5.7,2.4v-7.7h5.7V120.8L103.5,120.8z M83,110.5c0-7.1,5.8-12.9,12.9-12.9
		c5.1,0,9.4,2.9,11.5,7.2l-23.1,8.5h2.4v2.2h4.3v6.9C86.2,120.5,83,115.9,83,110.5L83,110.5z"/>
	<path class="st14" d="M103.5,120.8c-1.6,1.2-3.6,2.1-5.7,2.4v-7.7h5.7V120.8L103.5,120.8z M83,110.5c0-7.1,5.8-12.9,12.9-12.9
		c5.1,0,9.4,2.9,11.5,7.2l-23.1,8.5h2.4v2.2h4.3v6.9C86.2,120.5,83,115.9,83,110.5L83,110.5z"/>
	<path class="st0" d="M75.9,128.9v-11.8c-0.1,0-0.1,0.1-0.2,0.2c-0.6,1.1-1.3,1.4-1.6,2.7c-0.1,0.3-0.2,0.9-0.2,0.9
		c-1.8,0.4-2.8,1.3-4,2.6l-0.1,0.1l2.2,1c-2.4,0.5-3.4,0.3-4,2.9c-0.1,0.4-0.2,1.5-0.2,1.5c-0.9-0.3-2.1-0.6-2.9-0.1
		c2.8,1,7.1,3,9.8,3.4c0,0,0-0.1,0-0.1C75,130.6,75.3,129.6,75.9,128.9L75.9,128.9z"/>
	<path class="st2" d="M75.9,128.9v-11.8l-0.2,0.2c-0.6,1.1-1.3,1.4-1.6,2.7c-0.1,0.3-0.2,0.9-0.2,0.9c-1.8,0.4-2.8,1.3-4,2.6
		l-0.1,0.1l2.2,1c-2.4,0.5-3.4,0.3-4,2.9c-0.1,0.4-0.2,1.5-0.2,1.5c-0.9-0.3-2.1-0.6-2.9-0.1c2.8,1,7.1,3,9.8,3.4l0-0.1
		C75,130.6,75.3,129.6,75.9,128.9L75.9,128.9z"/>
	<path class="st0" d="M174.4,117.1v11.8c0.6,0.8,0.9,1.7,1.2,3.3c0,0,0,0.1,0,0.1c2.7-0.4,7-2.4,9.8-3.4c-0.9-0.5-2-0.2-2.9,0.1
		c0,0-0.1-1-0.2-1.5c-0.5-2.5-1.5-2.3-4-2.9l2.2-1l-0.1-0.1c-1.2-1.3-2.3-2.2-4-2.6c0,0-0.1-0.6-0.2-0.9c-0.3-1.3-1-1.6-1.6-2.7
		C174.5,117.2,174.4,117.2,174.4,117.1L174.4,117.1z"/>
	<path class="st2" d="M174.4,117.1v11.8c0.6,0.8,0.9,1.7,1.2,3.3l0,0.1c2.7-0.4,7-2.4,9.8-3.4c-0.9-0.5-2-0.2-2.9,0.1
		c0,0-0.1-1-0.2-1.5c-0.5-2.5-1.5-2.3-4-2.9l2.2-1l-0.1-0.1c-1.2-1.3-2.3-2.2-4-2.6c0,0-0.1-0.6-0.2-0.9c-0.3-1.3-1-1.6-1.6-2.7
		L174.4,117.1L174.4,117.1z"/>
	<path class="st5" d="M125.2,93.2H77c0,0,1.3,1.8,2.1,3.4c0.8,1.6,1.7,4.3,1.7,5.9v15.9v7.8c0,0-0.8,0.1-1.9,0.6
		c-1.2,0.5-1.7,0.9-1.7,0.9v-23c0-6.5-4-10.9-8.5-15h56.5h56.5c-4.5,4.1-8.5,8.5-8.5,15v23c0,0-0.5-0.4-1.7-0.9
		c-1.2-0.5-1.9-0.6-1.9-0.6v-7.8v-15.9c0-1.6,0.9-4.3,1.7-5.9c0.8-1.6,2.1-3.4,2.1-3.4H125.2L125.2,93.2z"/>
	<path class="st15" d="M168.9,136.4v-4.3l0.7-2.3v-3.5l0-7.8v-15.9c0-1.6,0.9-4.3,1.7-5.9c0.8-1.6,2.1-3.4,2.1-3.4h-48.2v43.2H168.9
		L168.9,136.4z"/>
	<polygon class="st10" points="151.8,136.4 160.5,136.4 160.5,93.2 151.8,93.2 151.8,136.4 	"/>
	<polygon class="st10" points="134.3,136.4 143,136.4 143,93.2 134.3,93.2 134.3,136.4 	"/>
	<path class="st9" d="M174.8,85v-0.4c-1.1-2-11.2-3.4-12.4-3.6c-1.1-0.2-3.2-0.5-6-0.9v5.4c1.2-0.7,3.2-0.8,4.2-0.8
		c1.8,0,5.5,1.3,7.6,1.8c0.8,0.2,1.4,0.3,1.7,0.3c1.3,0,5,0.2,5-1.8H174.8L174.8,85z"/>
	<path class="st11" d="M175.8,81v3.5c0.1,0.2,0.1,0.4,0.1,0.5c0,2.9-4.1,2.8-6,2.8c-1,0-3.5-0.8-4.6-1.1c-1.9-0.5-3.8-1-4.7-1
		c-1,0-4.3,0-4.3,1.6c0,1.8,5.7,1.9,6.7,1.9c3.5,0,11.2-0.9,13.8-0.9c0.9,0,4.6-0.2,6.6,0.6v-5.8c0-0.9-0.1-2.2-1.2-2.3
		c-1-0.1-2.1,0.1-3.1,0.1H175.8L175.8,81z"/>
	<path class="st4" d="M175.8,81v3.5c0.1,0.2,0.1,0.5,0.1,0.5c0,2.9-4.1,2.8-6,2.8c-1,0-3.5-0.8-4.6-1.1c-1.9-0.5-3.8-1-4.7-1
		c-1,0-4.3,0-4.3,1.6c0,1.8,5.7,1.9,6.7,1.9c3.5,0,11.2-0.9,13.8-0.9c0.9,0,4.6-0.2,6.6,0.6v-5.8c0-0.9-0.1-2.2-1.2-2.3
		c-1-0.1-2.1,0.1-3.1,0.1H175.8L175.8,81z"/>
	<path class="st11" d="M74.4,84.5V81h-3.2c-0.5,0-3.1-0.3-3.6-0.1c-0.3,0.2-0.8,0.8-0.8,2.2v5.8c0.1-0.1,0.2-0.1,0.3-0.2
		c1.3-0.5,4.8-0.5,6.2-0.5c2.6,0,10.3,0.9,13.8,0.9c1,0,6.7-0.2,6.7-1.9c0-1.5-3.4-1.6-4.3-1.6c-1.6,0-5.4,1.3-7.3,1.7
		c-0.8,0.2-1.5,0.3-1.9,0.3c-2,0-6,0.1-6-2.8C74.3,84.8,74.4,84.7,74.4,84.5L74.4,84.5z"/>
	<path class="st4" d="M74.4,84.5V81h-3.2c-0.5,0-3.1-0.3-3.6-0.1c-0.3,0.2-0.8,0.8-0.8,2.2v5.8l0.3-0.2c1.3-0.5,4.8-0.5,6.2-0.5
		c2.6,0,10.3,0.9,13.8,0.9c1,0,6.7-0.2,6.7-1.9c0-1.5-3.4-1.6-4.3-1.6c-1.6,0-5.4,1.3-7.3,1.7c-0.8,0.2-1.5,0.3-1.9,0.3
		c-2,0-6,0.1-6-2.8C74.3,85,74.4,84.7,74.4,84.5L74.4,84.5z"/>
	<path class="st9" d="M75.5,84.7V85h-0.1c0,2,3.7,1.8,5,1.8c0.9,0,3.4-0.8,4.3-1c1.8-0.5,3.9-1.1,4.9-1.1c1.1,0,3,0.1,4.2,0.8v-5.4
		c-2.8,0.4-4.8,0.7-6,0.9C86.6,81.3,76.6,82.7,75.5,84.7L75.5,84.7z"/>
	<path class="st11" d="M174.8,83.3v-7.4c0-0.9-4.8-2-5.3-2.2c-2.3-0.5-6.9-1.5-14.1-2.3c-7.3-0.9-15.1-2-30.2-2
		c-15.1,0-22.9,1.1-30.2,2c-2,0.2-16.3,2-19.1,4.1c-0.3,0.2-0.4,0.4-0.4,0.4v7.4c2.9-2.1,10.7-3,12.2-3.3c3.9-0.7,19.1-3.2,37.4-3.2
		c18.3,0,33.5,2.5,37.4,3.2C164.1,80.3,171.9,81.2,174.8,83.3L174.8,83.3z"/>
	<path class="st4" d="M174.8,83.3v-7.4c0-0.9-4.8-2-5.3-2.2c-2.3-0.5-6.9-1.5-14.1-2.3c-7.3-0.9-15.1-2-30.2-2
		c-15.1,0-22.9,1.1-30.2,2c-2,0.2-16.3,2-19.1,4.1c-0.3,0.2-0.4,0.4-0.4,0.4v7.4c2.9-2.1,10.7-3,12.2-3.3c3.9-0.7,19.1-3.2,37.4-3.2
		c18.3,0,33.5,2.5,37.4,3.2C164.1,80.3,171.9,81.2,174.8,83.3L174.8,83.3z"/>
	<path class="st6" d="M71.1,94.2C70.5,93.5,70,93,70,93l-0.2,3.3l2.4-0.9C72.2,95.4,71.8,94.9,71.1,94.2L71.1,94.2z"/>
	<path class="st6" d="M179.1,94.2c0.6-0.7,1.1-1.2,1.1-1.2l0.2,3.3l-2.4-0.9C178.1,95.4,178.5,94.9,179.1,94.2L179.1,94.2z"/>
	<path class="st11" d="M150.3,88.7c0.2-0.1,0.6-0.2,1.1-0.5c1.7-0.8,2.8-1.5,4.1-2.8l0-0.3c-1.6,1.4-3.8,2.2-6,2.2
		c-4.1,0-5.9-2-6.9-4.4c-0.1-0.3-0.2-0.6-0.3-0.9c-0.4,0.5-0.6,1.2-0.6,1.8c0,1.7,1.1,3.7,2.4,4.9H150.3L150.3,88.7z"/>
	<path class="st12" d="M150.3,88.7c0.2-0.1,0.6-0.2,1.1-0.5c1.7-0.8,2.8-1.5,4.1-2.8l0-0.3c-1.6,1.4-3.8,2.2-6,2.2
		c-4.1,0-5.9-2-6.9-4.4c-0.1-0.3-0.2-0.6-0.3-0.9c-0.4,0.5-0.6,1.2-0.6,1.8c0,1.7,1.1,3.7,2.4,4.9H150.3L150.3,88.7z"/>
	<path class="st11" d="M99.9,88.7c-0.2-0.1-0.6-0.2-1.1-0.5c-1.7-0.8-2.8-1.5-4.1-2.8l0-0.3c1.6,1.4,3.8,2.2,6,2.2
		c4.1,0,5.9-2,6.9-4.4c0.1-0.3,0.2-0.6,0.3-0.9c0.4,0.5,0.6,1.2,0.6,1.8c0,1.7-1.1,3.7-2.4,4.9H99.9L99.9,88.7z"/>
	<path class="st12" d="M99.9,88.7c-0.2-0.1-0.6-0.2-1.1-0.5c-1.7-0.8-2.8-1.5-4.1-2.8l0-0.3c1.6,1.4,3.8,2.2,6,2.2
		c4.1,0,5.9-2,6.9-4.4c0.1-0.3,0.2-0.6,0.3-0.9c0.4,0.5,0.6,1.2,0.6,1.8c0,1.7-1.1,3.7-2.4,4.9H99.9L99.9,88.7z"/>
	<path class="st0" d="M105.7,56.1c0.2,0,0.3-0.1,0.5-0.1c0.4-0.4,1.6-1.5,4.1-1.9c1.5-0.2,2.7-0.1,3.6,0.1c1.9,0.4,2.4,0.8,4,0.7
		c-0.6-0.3-1.3-0.7-2-1c-0.7-0.4-2.2-1.2-3-1.4C109.8,51.7,106.2,52.6,105.7,56.1L105.7,56.1z"/>
	<path class="st4" d="M105.7,56.1l0.5-0.1c0.4-0.4,1.6-1.5,4.1-1.9c1.5-0.2,2.7-0.1,3.6,0.1c1.9,0.4,2.4,0.8,4,0.7
		c-0.6-0.3-1.3-0.7-2-1c-0.7-0.4-2.2-1.2-3-1.4C109.8,51.7,106.2,52.6,105.7,56.1L105.7,56.1z"/>
	<path class="st6" d="M103.6,69.4c-1.4-1.2-3.5-1.9-5.3-1.8c-1.2,0.1-2.5,0.4-3.6,0.9c1.5,0.1,3,0.5,4,1.2l0.2,0.1
		C100.4,69.7,102,69.5,103.6,69.4L103.6,69.4z"/>
	<path class="st16" d="M94,69c-0.6,0.4-1,1-1.4,1.6c0.7-0.1,1.4-0.2,2.2-0.3l3.3-0.4c-0.8-0.4-1.6-0.6-2.5-0.8
		C95.1,69.1,94.6,69.1,94,69L94,69z"/>
	<path class="st16" d="M92,70.7c0.2-0.4,0.5-1,1.2-1.7c-1.4,0.1-2.8,0.6-3.4,2C90.5,71,91.3,70.9,92,70.7L92,70.7z"/>
	<path class="st16" d="M160.5,71.1c-0.6-1.3-1.9-1.9-3.4-2c0.7,0.7,1,1.3,1.2,1.7C158.9,70.8,159.7,70.9,160.5,71.1L160.5,71.1z"/>
	<path class="st16" d="M157.6,70.7c-0.3-0.7-0.8-1.2-1.4-1.6c-0.6,0-1.1,0.1-1.6,0.2c-0.9,0.2-1.8,0.4-2.5,0.8l3.3,0.4
		C155.9,70.4,156.6,70.5,157.6,70.7L157.6,70.7z"/>
	<path class="st6" d="M151.3,69.9l0.2-0.1c1-0.7,2.6-1.1,4-1.2c-1.1-0.6-2.3-0.9-3.5-0.9c-1.8-0.1-3.9,0.5-5.3,1.8
		C148.3,69.5,149.9,69.7,151.3,69.9L151.3,69.9z"/>
	<path class="st0" d="M103.8,78.9c-3.4,0.3-6.4,0.7-8.9,1v4.5c1.4,1.4,3.9,2.2,5.8,2.2c3.9,0,5.4-1.8,6.5-4.1
		c0.2-0.4,0.3-0.8,0.4-1.2c-1.3-1.5-3.5-2.4-3.6-2.4C103.9,79,103.8,79,103.8,78.9L103.8,78.9z"/>
	<path class="st4" d="M103.8,78.9c-3.4,0.3-6.4,0.7-8.9,1v4.5c1.4,1.4,3.9,2.2,5.8,2.2c3.9,0,5.4-1.8,6.5-4.1
		c0.2-0.4,0.4-0.8,0.4-1.2c-1.3-1.5-3.6-2.4-3.6-2.4L103.8,78.9L103.8,78.9z"/>
	<path class="st11" d="M106.9,78.6c-0.7,0.1-1.5,0.1-2.2,0.2c0.9,0.4,2,1.1,2.8,1.9c0-0.6-0.2-1.2-0.5-1.8
		C107,78.8,107,78.7,106.9,78.6L106.9,78.6L106.9,78.6z"/>
	<path class="st12" d="M106.9,78.6c-0.7,0.1-1.5,0.1-2.2,0.2c0.9,0.4,2,1.1,2.8,1.9c0-0.6-0.2-1.2-0.5-1.8
		C107,78.8,106.9,78.7,106.9,78.6L106.9,78.6L106.9,78.6z"/>
	<path class="st16" d="M109.4,78.5c-0.6,0-1.3,0.1-1.9,0.1c0.4,0.8,0.6,1.8,0.5,2.7c0.5,0.6,0.8,1.2,0.9,1.8L109.4,78.5L109.4,78.5z
		"/>
	<path class="st0" d="M146.5,78.9c0,0.1-0.1,0.1-0.1,0.1c0,0-2.2,0.9-3.6,2.4c0.1,0.4,0.2,0.8,0.3,1.2c1,2.2,2.6,4.1,6.5,4.1
		c1.9,0,4.4-0.8,5.8-2.2V80C152.9,79.6,149.9,79.3,146.5,78.9L146.5,78.9z"/>
	<path class="st4" d="M146.5,78.9l-0.1,0.1c0,0-2.2,0.9-3.6,2.4c0,0.4,0.2,0.8,0.3,1.2c1,2.2,2.6,4.1,6.5,4.1c1.9,0,4.4-0.8,5.8-2.2
		V80C152.9,79.6,149.9,79.3,146.5,78.9L146.5,78.9z"/>
	<path class="st11" d="M143.4,78.7c0,0-0.1,0.1-0.2,0.3c-0.3,0.6-0.4,1.2-0.5,1.8c0.8-0.8,1.9-1.5,2.8-1.9
		C144.8,78.8,144.1,78.7,143.4,78.7L143.4,78.7z"/>
	<path class="st12" d="M143.4,78.7c0,0-0.1,0.1-0.2,0.3c-0.3,0.6-0.5,1.2-0.5,1.8c0.8-0.8,1.9-1.5,2.8-1.9
		C144.8,78.8,144.1,78.7,143.4,78.7L143.4,78.7z"/>
	<path class="st16" d="M141.4,82.6c0.2-0.5,0.4-0.9,0.8-1.3c-0.1-0.9,0.1-1.9,0.5-2.7c-0.6,0-1.1-0.1-1.7-0.1L141.4,82.6L141.4,82.6
		z"/>
	<path class="st11" d="M130.9,50.7h-0.1c-1.2,0-2.7,0.5-2.7,2.2c0,1.1,0.9,1.7,1.9,1.8c-0.3-0.3-0.4-0.7-0.5-1.4
		C129.4,52.4,130,51.5,130.9,50.7L130.9,50.7z"/>
	<path class="st4" d="M130.9,50.7h-0.1c-1.2,0-2.7,0.5-2.7,2.2c0,1.1,0.9,1.7,1.9,1.8c-0.3-0.3-0.5-0.7-0.5-1.4
		C129.4,52.4,130,51.5,130.9,50.7L130.9,50.7z"/>
	<path class="st11" d="M126.3,35.2c1.3,2.5,0.1,5,0.2,7.6c0.1,1.7,1.7,3,2.9,3.2c1.2,0.2,3.3-0.5,4.5-0.8l0.3-0.1
		c-0.6-0.5-2.1-0.6-2.8-0.5c-1,0.1-1.7,0.3-2.8-0.2c-1.5-0.8-1.7-2.5-1.6-3.8c0.1-1.2,0.1-3.1-0.2-4.2
		C126.8,36.1,126.6,35.6,126.3,35.2L126.3,35.2z"/>
	<path class="st4" d="M126.3,35.2c1.3,2.5,0.1,5,0.2,7.6c0,1.7,1.7,3,2.9,3.2c1.2,0.2,3.3-0.5,4.5-0.8l0.3-0.1
		c-0.6-0.5-2.1-0.6-2.8-0.5c-1,0.1-1.7,0.3-2.8-0.2c-1.5-0.8-1.7-2.5-1.6-3.8c0.1-1.2,0.1-3.1-0.2-4.2
		C126.8,36.1,126.6,35.6,126.3,35.2L126.3,35.2z"/>
	<path class="st16" d="M132.4,50.2c0.8-0.1,1.7-0.2,2.4-0.7c1.3-0.8,1.7-2.3,1.2-3.2c-0.3-0.5-0.5-0.7-1-0.8c0.2,0.8,0.4,2-0.3,2.8
		C134.2,49.2,133.2,49.6,132.4,50.2L132.4,50.2z"/>
	<path class="st11" d="M130.7,59.2c0.2-0.7,0.9-1.2,1.6-1.4c1.8-0.6,5.3-0.4,9.5,0.6c4.3,1,6.3,2.4,6.9,3.3c0.6,0.9,1,2,1.1,2.9
		c1.1-1.6,1-2.6,0.2-4.2c-0.6-1.4-2.5-2.7-5-3.6c-0.1,0-0.3,0-0.3-0.1c-0.2-0.1-0.4-0.1-0.5-0.2c-0.1,0-0.2,0-0.3-0.1
		c-0.5-0.1-1.1-0.3-1.6-0.4c-3.8-0.7-7-0.2-9.1,0.5c-2.1,0.6-3,2-3,2.4C130.3,59,130.5,59.1,130.7,59.2L130.7,59.2z"/>
	<path class="st4" d="M130.7,59.2c0.2-0.7,0.9-1.2,1.6-1.4c1.8-0.6,5.3-0.4,9.5,0.6c4.3,1,6.3,2.4,6.9,3.3c0.6,0.9,1,2,1.1,2.9
		c1.1-1.6,1-2.6,0.2-4.2c-0.6-1.4-2.5-2.7-5-3.6c0,0-0.3,0-0.3-0.1c-0.2-0.1-0.5-0.2-0.5-0.2s-0.2,0-0.3-0.1
		c-0.5-0.1-1.1-0.3-1.6-0.4c-3.8-0.7-7-0.2-9.1,0.5c-2.1,0.6-3,2-3,2.4C130.3,59,130.5,59.1,130.7,59.2L130.7,59.2z"/>
	<path class="st0" d="M143.4,69.1c0.7-0.2,2.3-0.9,3.8-1.9c-0.2,0-0.5-0.1-0.8-0.1c-2.2-0.3-5-0.2-7.1,0.5c0.2,0.4,0.3,0.8,0.4,1.2
		C141,68.9,142.2,69,143.4,69.1L143.4,69.1z"/>
	<path class="st4" d="M143.4,69.1c0.7-0.2,2.3-0.9,3.8-1.9c0,0-0.5-0.1-0.8-0.1c-2.2-0.3-5-0.2-7.1,0.5c0.2,0.4,0.3,0.8,0.4,1.2
		C141,68.9,142.2,69,143.4,69.1L143.4,69.1z"/>
	<path class="st0" d="M131.2,55.2c-1.4,0.2-3.7-0.2-3.7-2.3c0-2.2,2-2.7,3.3-2.7h0.8c0.6-0.5,1.2-0.9,1.7-1.2c0.5-0.3,0.9-0.6,1.2-1
		c0.5-0.6,0.4-1.7,0.1-2.4c-0.2,0-0.3,0.1-0.6,0.1c-1.3,0.3-3.4,1-4.7,0.8c-1.4-0.2-3.3-1.7-3.3-3.7c-0.1-1.8,0.5-3.9,0.4-5.4
		c0-0.6-0.2-1.3-0.5-1.9v22.7c1.3,0.1,2.5,0.3,3.7,0.6c0.1-0.6,1.2-2.1,3.4-2.8c2.2-0.6,5.4-1.2,9.3-0.5c0.2,0,0.4,0.1,0.6,0.1
		c-1.8-1.2-4.5-1.4-6.4-0.9C134.1,55.3,133.9,55.7,131.2,55.2L131.2,55.2z"/>
	<path class="st4" d="M131.2,55.2c-1.4,0.2-3.7-0.2-3.7-2.3c0-2.2,2-2.7,3.3-2.7h0.8c0.6-0.5,1.2-0.9,1.7-1.2c0.5-0.3,0.9-0.6,1.2-1
		c0.5-0.6,0.4-1.7,0.1-2.4l-0.6,0.1c-1.3,0.3-3.4,1-4.7,0.8c-1.4-0.2-3.3-1.7-3.3-3.7c-0.1-1.8,0.4-3.9,0.4-5.4
		c0-0.6-0.2-1.3-0.5-1.9v22.7c1.3,0.1,2.5,0.3,3.7,0.6c0.1-0.6,1.2-2.1,3.4-2.8c2.2-0.6,5.4-1.2,9.3-0.5l0.6,0.1
		c-1.8-1.2-4.5-1.4-6.4-0.9C134.1,55.3,133.9,55.7,131.2,55.2L131.2,55.2z"/>
	<path class="st0" d="M144.6,56.1c-0.5-3.5-4.2-4.3-7.2-3.7c-0.7,0.2-2.3,1-3,1.4c-0.7,0.4-1.4,0.8-2,1c1.6,0.1,2.1-0.2,4-0.7
		c0.9-0.2,2.1-0.3,3.6-0.1c2.5,0.4,3.8,1.5,4.1,1.9C144.3,56,144.4,56,144.6,56.1L144.6,56.1z"/>
	<path class="st4" d="M144.6,56.1c-0.5-3.5-4.2-4.3-7.2-3.7c-0.7,0.2-2.3,1-3,1.4c-0.7,0.4-1.4,0.8-2,1c1.6,0.1,2.1-0.2,4-0.7
		c0.9-0.2,2.1-0.3,3.6-0.1c2.5,0.4,3.8,1.5,4.1,1.9L144.6,56.1L144.6,56.1z"/>
	<path class="st11" d="M119.4,50.7c0.8,0.8,1.5,1.6,1.4,2.6c0,0.7-0.2,1.1-0.5,1.4c1-0.1,1.9-0.7,1.9-1.8c0-1.7-1.5-2.2-2.7-2.2
		H119.4L119.4,50.7z"/>
	<path class="st4" d="M119.4,50.7c0.8,0.8,1.4,1.6,1.4,2.6c0,0.7-0.2,1.1-0.5,1.4c1-0.1,1.9-0.7,1.9-1.8c0-1.7-1.5-2.2-2.7-2.2
		H119.4L119.4,50.7z"/>
	<path class="st11" d="M124,35.2c-0.3,0.4-0.6,0.8-0.7,1.3c-0.3,1-0.3,3-0.2,4.2c0.1,1.2-0.1,3-1.6,3.8c-1,0.5-1.7,0.4-2.8,0.2
		c-0.7-0.1-2.1-0.1-2.8,0.5l0.3,0.1c1.2,0.3,3.3,1,4.5,0.8c1.2-0.2,2.8-1.5,2.9-3.2C123.9,40.2,122.7,37.7,124,35.2L124,35.2z"/>
	<path class="st4" d="M124,35.2c-0.3,0.4-0.6,0.8-0.7,1.3c-0.3,1-0.3,3-0.2,4.2c0.1,1.2-0.1,3-1.6,3.8c-1,0.5-1.7,0.4-2.8,0.2
		c-0.7-0.1-2.1-0.1-2.8,0.5l0.3,0.1c1.2,0.3,3.3,1,4.5,0.8c1.2-0.2,2.9-1.5,2.9-3.2C123.9,40.2,122.7,37.7,124,35.2L124,35.2z"/>
	<path class="st16" d="M117.9,50.2c-0.8-0.6-1.8-1-2.4-1.8c-0.7-0.8-0.5-2-0.3-2.8c-0.4,0-0.7,0.3-1,0.8c-0.5,0.8-0.1,2.3,1.2,3.2
		C116.2,50,117,50.1,117.9,50.2L117.9,50.2z"/>
	<path class="st0" d="M111.2,67.6c-2.1-0.7-5-0.9-7.2-0.6c-0.3,0-0.6,0.1-0.8,0.1c1.5,1,3.1,1.7,3.8,1.9c1.2-0.1,2.5-0.2,3.8-0.3
		C110.9,68.4,111,68,111.2,67.6L111.2,67.6z"/>
	<path class="st4" d="M111.2,67.6c-2.1-0.7-5-0.9-7.2-0.6c-0.3,0-0.8,0.1-0.8,0.1c1.5,1,3.1,1.7,3.8,1.9c1.2-0.1,2.5-0.2,3.8-0.3
		C110.9,68.4,111,68,111.2,67.6L111.2,67.6z"/>
	<path class="st11" d="M120.2,59l0-0.1c-0.1-0.4-1-1.8-3-2.4c-2.1-0.6-5.3-1.1-9.1-0.5c-0.6,0.1-1.1,0.2-1.6,0.4
		c-0.1,0.1-0.2,0.1-0.3,0.1c-0.2,0.1-0.4,0.1-0.5,0.2c-0.1,0.1-0.2,0.2-0.3,0.1c-2.5,0.9-4.3,2.2-5,3.6c-0.7,1.6-0.9,2.6,0.2,4.2
		c0.1-0.9,0.5-1.9,1.1-2.9c0.5-0.9,2.6-2.3,6.9-3.3c4.3-1,7.7-1.2,9.5-0.6c0.7,0.2,1.4,0.7,1.6,1.4C119.8,59.1,120,59.1,120.2,59
		L120.2,59z"/>
	<path class="st4" d="M120.2,59l0-0.1c-0.1-0.4-1-1.8-3-2.4c-2.1-0.6-5.3-1.1-9.1-0.5c-0.6,0.1-1.1,0.2-1.6,0.4
		c-0.1,0.1-0.3,0.1-0.3,0.1s-0.4,0.1-0.5,0.2c-0.1,0.1-0.3,0.1-0.3,0.1c-2.5,0.9-4.3,2.2-5,3.6c-0.7,1.6-0.9,2.6,0.2,4.2
		c0.1-0.9,0.5-1.9,1.1-2.9c0.5-0.9,2.6-2.3,6.9-3.3c4.3-1,7.7-1.2,9.5-0.6c0.7,0.2,1.4,0.7,1.6,1.4C119.8,59.1,120,59.1,120.2,59
		L120.2,59z"/>
	<path class="st0" d="M119.1,55.2c-2.7,0.4-2.9,0-5.3-0.5c-2-0.4-4.6-0.3-6.4,0.9c0.2,0,0.4-0.1,0.6-0.1c3.9-0.7,7.2-0.2,9.3,0.5
		c2.2,0.7,3.3,2.2,3.4,2.8c1.2-0.3,2.5-0.6,3.9-0.6V35.2c-0.4,0.7-0.7,1.5-0.7,2.2c-0.1,1.6,0.5,3.6,0.4,5.4c-0.1,2-2,3.5-3.3,3.7
		c-1.3,0.2-3.4-0.5-4.7-0.8c-0.2,0-0.4-0.1-0.6-0.1c-0.3,0.7-0.4,1.9,0.1,2.4c0.3,0.3,0.7,0.6,1.2,1c0.5,0.3,1.1,0.7,1.7,1.2h0.8
		c1.2,0,3.3,0.5,3.3,2.7C122.8,55.1,120.5,55.5,119.1,55.2L119.1,55.2z"/>
	<path class="st4" d="M119.1,55.2c-2.7,0.4-2.9,0-5.3-0.5c-2-0.4-4.6-0.3-6.4,0.9l0.6-0.1c3.9-0.7,7.2-0.2,9.3,0.5
		c2.2,0.7,3.3,2.2,3.4,2.8c1.2-0.3,2.5-0.6,3.9-0.6V35.2c-0.4,0.7-0.7,1.5-0.7,2.2c-0.1,1.6,0.4,3.6,0.4,5.4c-0.1,2-2,3.5-3.3,3.7
		c-1.3,0.2-3.4-0.5-4.7-0.8l-0.6-0.1c-0.3,0.7-0.4,1.9,0.1,2.4c0.3,0.3,0.7,0.6,1.2,1c0.5,0.3,1.1,0.7,1.7,1.2h0.8
		c1.2,0,3.3,0.5,3.3,2.7C122.8,55.1,120.5,55.5,119.1,55.2L119.1,55.2z"/>
	<path class="st0" d="M106,59.9c-0.1-0.1-0.1-0.2-0.1-0.2l0.2,0c0.1,0.1,0.1,0.2,0.3,0.3c2.7,2.7,9.4,3.7,12.6,1.8
		c-0.1,0.3-0.3,0.7-0.5,1c-0.4,0.7-3,2.4-7.3,1.3c-2.2-0.6-4.1-1.9-5.2-3.9L106,59.9L106,59.9z"/>
	<path class="st4" d="M106,59.9l-0.1-0.2l0.2,0c0,0,0.1,0.2,0.3,0.3c2.7,2.7,9.4,3.7,12.6,1.8c-0.1,0.3-0.3,0.7-0.5,1
		c-0.4,0.7-3,2.4-7.3,1.3c-2.2-0.6-4.1-1.9-5.2-3.9L106,59.9L106,59.9z"/>
	<path class="st16" d="M112.6,64.8c-0.5-0.1-1-0.2-1.5-0.3c-4-1-5.5-4-5.8-4.6c-2,0.8-3,1.6-3.3,2.1c-0.8,1.3-1.2,2.6-0.9,3.4
		l0.2,0.3c0.3,0.4,0.7,0.8,1.2,1.1c1.5-0.3,3.2-0.4,4.8-0.3c2.2,0.1,3.7,0.6,4.1,0.7C111.8,66.3,112.1,65.5,112.6,64.8L112.6,64.8z"
		/>
	<path class="st0" d="M143.2,59.3c-0.5-0.1-1-0.3-1.5-0.4c-1-0.2-9.5-2.2-10.5,0.3c0,0,0,0.1-0.1,0.2c1.6,0.7,3.1,1.7,4.3,2.8
		c3,0.1,6.4-1,8-2.6l0.1-0.1L143.2,59.3L143.2,59.3z"/>
	<path class="st4" d="M143.2,59.3c-0.5-0.1-1-0.3-1.5-0.4c-1-0.2-9.5-2.2-10.5,0.3l-0.1,0.2c1.6,0.7,3.1,1.7,4.3,2.8
		c3,0.1,6.4-1,8-2.6l0.1-0.1L143.2,59.3L143.2,59.3z"/>
	<path class="st16" d="M144.9,59.9c-0.3,0.7-1.8,3.6-5.8,4.7c-0.5,0.1-0.9,0.2-1.3,0.3c0.5,0.7,0.9,1.5,1.2,2.3
		c0.5-0.2,1.9-0.5,4-0.7c1.5-0.1,3.2,0,4.8,0.3c0.4-0.3,0.8-0.7,1.2-1.1l0.2-0.3c0.3-0.8-0.1-2.1-0.9-3.4
		C147.9,61.5,146.9,60.7,144.9,59.9L144.9,59.9z"/>
	<path class="st0" d="M144.2,59.7c-0.1,0.1-0.2,0.2-0.3,0.3c-1.8,1.8-5.4,2.9-8.6,2.8c-1.5-0.1-3-0.4-4-1c0.1,0.3,0.3,0.7,0.5,1
		c0.4,0.7,3,2.4,7.3,1.3c2.2-0.6,4.1-1.9,5.2-3.9c0.1-0.2,0.1-0.3,0.2-0.4L144.2,59.7L144.2,59.7z"/>
	<path class="st4" d="M144.2,59.7c0,0-0.2,0.2-0.3,0.3c-1.8,1.8-5.4,2.9-8.6,2.8c-1.5-0.1-3-0.4-4-1c0.1,0.3,0.3,0.7,0.5,1
		c0.4,0.7,3,2.4,7.3,1.3c2.2-0.6,4.1-1.9,5.2-3.9c0.1-0.2,0.2-0.4,0.2-0.4L144.2,59.7L144.2,59.7z"/>
	<path class="st0" d="M134.5,64.8c-1.4-0.3-2.4-0.8-2.9-1.3l-2.9,5c1.2,0,2.4,0,3.5,0.1l3.6-2.1C135.5,65.8,135,65.3,134.5,64.8
		L134.5,64.8z M115.8,64.8c-0.5,0.5-0.9,1.1-1.3,1.6l3.6,2.1c1.1,0,2.3-0.1,3.5-0.1l-2.9-5.1C118.2,63.8,117.2,64.5,115.8,64.8
		L115.8,64.8z M136.9,78.2c-0.7,0-1.4-0.1-2.1-0.1l1.7,1C136.6,78.8,136.8,78.5,136.9,78.2L136.9,78.2z M132.3,78
		c-1.2,0-2.5-0.1-3.7-0.1l3.5,6c1.5-1,2.8-2.3,3.8-3.8l-3.3-1.9C132.5,78.2,132.4,78.1,132.3,78L132.3,78z M127.2,77.9l-1.3,0v8
		c1.9-0.1,3.6-0.6,5.2-1.4L127.2,77.9L127.2,77.9L127.2,77.9z M124.6,77.9l-1.3,0l0,0.1l-3.8,6.6c1.6,0.8,3.3,1.3,5.2,1.4V77.9
		L124.6,77.9z M121.8,77.9c-1.2,0-2.5,0.1-3.7,0.1c0,0.1-0.1,0.1-0.2,0.2l-3.4,2c1,1.5,2.3,2.8,3.8,3.8L121.8,77.9L121.8,77.9z
		 M115.6,78.1c-0.7,0-1.4,0.1-2.1,0.1c0.1,0.3,0.3,0.6,0.4,0.9L115.6,78.1L115.6,78.1z M113.4,68.7c0.8,0,1.6-0.1,2.4-0.1l-1.9-1.1
		C113.8,67.9,113.6,68.3,113.4,68.7L113.4,68.7z M123.1,68.4l1.5,0v-7.8c-1.9,0.1-3.6,0.6-5.2,1.4L123.1,68.4L123.1,68.4z
		 M125.8,68.4l1.5,0L131,62c-1.6-0.8-3.3-1.3-5.2-1.4V68.4L125.8,68.4z M134.6,68.6c0.8,0,1.6,0.1,2.4,0.1c-0.2-0.4-0.3-0.8-0.5-1.2
		L134.6,68.6L134.6,68.6z"/>
	<path class="st4" d="M134.5,64.8c-1.4-0.3-2.4-0.8-2.9-1.3l-2.9,5c1.2,0,2.4,0,3.5,0.1l3.6-2.1C135.5,65.8,135,65.3,134.5,64.8
		L134.5,64.8z M115.8,64.8c-0.5,0.5-0.9,1.1-1.3,1.6l3.6,2.1c1.1,0,2.3-0.1,3.5-0.1l-2.9-5.1C118.2,63.8,117.2,64.5,115.8,64.8
		L115.8,64.8z M136.9,78.2c-0.7,0-1.4-0.1-2.1-0.1l1.7,1C136.6,78.8,136.8,78.5,136.9,78.2L136.9,78.2z M132.3,78
		c-1.2,0-2.5-0.1-3.7-0.1l3.5,6c1.5-1,2.8-2.3,3.8-3.8l-3.3-1.9C132.5,78.2,132.3,78,132.3,78L132.3,78z M127.2,77.9l-1.3,0v8
		c1.9-0.1,3.6-0.6,5.2-1.4L127.2,77.9L127.2,77.9L127.2,77.9z M124.6,77.9l-1.3,0l0,0.1l-3.8,6.6c1.6,0.8,3.3,1.3,5.2,1.4V77.9
		L124.6,77.9z M121.8,77.9c-1.2,0-2.5,0.1-3.7,0.1l-0.2,0.2l-3.4,2c1,1.5,2.3,2.8,3.8,3.8L121.8,77.9L121.8,77.9z M115.6,78.1
		c-0.7,0-1.4,0.1-2.1,0.1c0.1,0.3,0.3,0.6,0.4,0.9L115.6,78.1L115.6,78.1z M113.4,68.7c0.8,0,1.6-0.1,2.4-0.1l-1.9-1.1
		C113.8,67.9,113.6,68.3,113.4,68.7L113.4,68.7z M123.1,68.4l1.5,0v-7.8c-1.9,0.1-3.6,0.6-5.2,1.4L123.1,68.4L123.1,68.4z
		 M125.8,68.4l1.5,0L131,62c-1.6-0.8-3.3-1.3-5.2-1.4V68.4L125.8,68.4z M134.6,68.6c0.8,0,1.6,0.1,2.4,0.1c-0.2-0.4-0.3-0.8-0.5-1.2
		L134.6,68.6L134.6,68.6z"/>
	<path class="st0" d="M79.8,74.8c0.3,0.1,0.5,0.1,0.5,0.1c0.1,0,0.1-0.1,0.2-0.2c0-0.1,0-0.2,0-0.3l0.2,0l0.5,2l-0.2,0
		c-0.3-0.4-0.5-0.7-0.8-0.9c-0.4-0.4-0.9-0.5-1.3-0.4c-0.5,0.1-0.7,0.4-0.8,1c-0.1,0.5,0,1.2,0.2,2.1c0.2,0.6,0.3,1.1,0.6,1.5
		c0.4,0.7,0.9,1,1.5,0.8c0.4-0.1,0.6-0.3,0.9-0.6c0.1-0.2,0.3-0.5,0.4-0.8l0.3,0.2c-0.2,0.4-0.3,0.8-0.5,1c-0.3,0.4-0.7,0.6-1.1,0.8
		c-0.7,0.2-1.3,0.1-1.9-0.3c-0.6-0.4-1.1-1.1-1.3-2.1c-0.2-0.9-0.2-1.8,0.2-2.5c0.3-0.7,0.8-1.1,1.5-1.2
		C79.1,74.8,79.4,74.8,79.8,74.8L79.8,74.8z"/>
	<path class="st0" d="M85.6,78.3c0-0.4,0-1-0.2-1.7c-0.2-0.9-0.4-1.6-0.7-2c-0.3-0.4-0.7-0.6-1-0.5c-0.5,0.1-0.8,0.6-0.9,1.4
		c0,0.4,0,1,0.2,1.7c0.1,0.7,0.3,1.2,0.5,1.6c0.3,0.7,0.8,1.1,1.3,1C85.3,79.6,85.6,79.1,85.6,78.3L85.6,78.3z M85.5,74.3
		c0.6,0.5,1,1.2,1.2,2.1c0.2,0.9,0.1,1.7-0.3,2.4c-0.4,0.7-0.9,1.1-1.6,1.2c-0.7,0.1-1.4,0-2-0.6c-0.5-0.5-0.9-1.2-1.1-2
		c-0.2-0.9-0.1-1.7,0.3-2.4c0.3-0.7,0.9-1.1,1.6-1.2C84.3,73.7,84.9,73.8,85.5,74.3L85.5,74.3z"/>
	<path class="st0" d="M87,79.1c0.3,0,0.4-0.1,0.5-0.3c0.1-0.1,0.1-0.3,0-0.5l-0.7-4.1c-0.3-0.3-0.4-0.4-0.5-0.5
		c-0.1,0-0.1-0.1-0.2-0.1l0-0.2l1.5-0.2l3,3.3l0,0l-0.4-2.6c0-0.3-0.1-0.5-0.2-0.6c-0.1-0.1-0.3-0.2-0.6-0.1l0-0.2l1.5-0.2l0,0.2
		c-0.2,0.1-0.3,0.2-0.4,0.3c-0.1,0.1-0.1,0.3,0,0.5l0.8,5.2l-0.2,0l-3.8-4.2l0,0l0.5,3.4c0,0.3,0.1,0.5,0.2,0.6
		c0.1,0.2,0.3,0.2,0.6,0.2l0,0.2L87,79.3L87,79.1L87,79.1z"/>
	<path class="st0" d="M91.3,76.5l0.2,0c0.2,0.6,0.5,1.1,0.8,1.3c0.3,0.3,0.6,0.4,0.9,0.3c0.3-0.1,0.5-0.2,0.6-0.4
		c0.1-0.2,0.1-0.5,0.1-0.7c0-0.3-0.1-0.5-0.3-0.6c-0.1-0.1-0.3-0.2-0.6-0.3l-0.5-0.2c-0.5-0.2-0.9-0.4-1.1-0.7
		c-0.2-0.2-0.4-0.6-0.4-1c-0.1-0.4,0-0.8,0.2-1.3c0.2-0.4,0.5-0.7,1-0.7c0.3,0,0.5,0,0.8,0c0.3,0.1,0.4,0.1,0.4,0.1
		c0.1,0,0.1,0,0.1-0.1c0-0.1,0-0.1,0-0.2l0.2,0l0.3,1.9l-0.2,0c-0.2-0.4-0.4-0.8-0.7-1.1c-0.3-0.3-0.6-0.4-0.9-0.3
		c-0.2,0-0.4,0.1-0.5,0.3c-0.1,0.2-0.1,0.4-0.1,0.6c0,0.3,0.1,0.5,0.3,0.6c0.2,0.1,0.5,0.3,0.9,0.5l0.6,0.2c0.3,0.1,0.5,0.2,0.6,0.4
		c0.3,0.3,0.5,0.7,0.6,1.1c0.1,0.4,0,0.9-0.2,1.3c-0.2,0.4-0.6,0.7-1.2,0.8c-0.1,0-0.3,0-0.4,0c-0.1,0-0.3,0-0.5-0.1l-0.1,0
		c0,0-0.1,0-0.1,0c0,0-0.1,0-0.1,0c-0.1,0-0.1,0-0.1,0.1c0,0.1,0,0.1,0,0.2l-0.2,0L91.3,76.5L91.3,76.5z"/>
	<path class="st0" d="M94.9,78.1l0-0.2c0.2,0,0.3-0.1,0.4-0.1c0.1-0.1,0.2-0.3,0.1-0.5l-0.4-4.3c0-0.3-0.1-0.4-0.3-0.5
		c-0.1,0-0.2-0.1-0.4-0.1l0-0.2l4.1-0.4l0.2,1.8l-0.2,0c-0.2-0.6-0.3-0.9-0.6-1.1c-0.2-0.2-0.6-0.3-1.2-0.2c-0.2,0-0.4,0.1-0.4,0.1
		c-0.1,0.1-0.1,0.2-0.1,0.3l0.2,2c0.4,0,0.7-0.2,0.8-0.4c0.1-0.2,0.2-0.6,0.2-1.1l0.2,0l0.3,3l-0.2,0c-0.1-0.5-0.2-0.8-0.4-1
		C97,75,96.7,75,96.3,75l0.2,2.1c0,0.2,0.1,0.3,0.2,0.4c0.1,0.1,0.2,0.1,0.5,0.1c0.4,0,0.8-0.2,1.1-0.4c0.3-0.2,0.5-0.7,0.6-1.3
		l0.2,0L99,77.7L94.9,78.1L94.9,78.1z"/>
	<path class="st0" d="M101.9,71.4c0.3,0.1,0.5,0.2,0.5,0.1c0.1,0,0.2-0.1,0.2-0.2c0-0.1,0.1-0.2,0.1-0.3l0.2,0l0.2,2.1l-0.2,0
		c-0.2-0.4-0.4-0.8-0.6-1c-0.4-0.4-0.8-0.6-1.2-0.6c-0.5,0-0.8,0.3-0.9,0.9c-0.1,0.5-0.2,1.2-0.1,2.1c0.1,0.6,0.2,1.1,0.3,1.5
		c0.3,0.7,0.7,1.1,1.3,1c0.4,0,0.7-0.2,1-0.5c0.2-0.2,0.3-0.4,0.6-0.8l0.2,0.2c-0.2,0.4-0.4,0.7-0.6,0.9c-0.3,0.3-0.7,0.5-1.2,0.6
		c-0.7,0.1-1.3-0.1-1.8-0.6c-0.6-0.5-0.9-1.3-1-2.2c-0.1-1,0.1-1.8,0.5-2.4c0.4-0.6,1-0.9,1.6-1C101.3,71.3,101.6,71.3,101.9,71.4
		L101.9,71.4z"/>
	<path class="st0" d="M103.2,71.1l4.3-0.3l0.1,1.8l-0.2,0c-0.1-0.6-0.3-1-0.7-1.3c-0.2-0.1-0.5-0.2-0.8-0.1l0.3,4.7
		c0,0.3,0.1,0.5,0.2,0.6c0.1,0.1,0.3,0.1,0.6,0.1l0,0.2l-2.5,0.2l0-0.2c0.3,0,0.5-0.1,0.5-0.2c0.1-0.1,0.1-0.3,0.1-0.7l-0.3-4.6
		c-0.3,0-0.6,0.1-0.8,0.3c-0.3,0.3-0.5,0.7-0.5,1.3l-0.2,0L103.2,71.1L103.2,71.1z"/>
	<path class="st0" d="M109.7,74.6l-0.8-2l-0.1,0l-0.5,2.1L109.7,74.6L109.7,74.6z M107.1,76.7c0.2,0,0.3-0.1,0.4-0.3
		c0.1-0.1,0.1-0.4,0.2-0.8l1.2-4.9l0.2,0l1.9,4.5c0.2,0.5,0.4,0.8,0.5,1c0.1,0.1,0.2,0.2,0.4,0.2l0,0.2l-2.3,0.2l0-0.2
		c0.2,0,0.4-0.1,0.4-0.1c0.1,0,0.1-0.1,0.1-0.3c0-0.1,0-0.2-0.1-0.3c0-0.1-0.1-0.2-0.1-0.3l-0.2-0.5l-1.6,0.1
		c-0.1,0.4-0.1,0.6-0.2,0.7c0,0.2-0.1,0.4-0.1,0.5c0,0.1,0.1,0.2,0.2,0.3c0.1,0,0.2,0,0.4,0l0,0.2l-1.4,0.1L107.1,76.7L107.1,76.7z"
		/>
	<path class="st0" d="M110.8,70.6l4.3-0.3l0.1,1.8l-0.2,0c-0.1-0.6-0.3-1-0.7-1.3c-0.2-0.1-0.5-0.2-0.8-0.1l0.3,4.7
		c0,0.3,0.1,0.5,0.2,0.6c0.1,0.1,0.3,0.1,0.6,0.1l0,0.2l-2.5,0.2l0-0.2c0.3,0,0.5-0.1,0.5-0.2c0.1-0.1,0.1-0.3,0.1-0.7l-0.3-4.7
		c-0.3,0-0.6,0.1-0.8,0.3c-0.3,0.3-0.5,0.7-0.5,1.3l-0.2,0L110.8,70.6L110.8,70.6z"/>
	<path class="st0" d="M115.3,76.2c0.2,0,0.3,0,0.4-0.1c0.1-0.1,0.2-0.3,0.2-0.5l-0.1-4.3c0-0.3-0.1-0.4-0.2-0.5
		c-0.1-0.1-0.2-0.1-0.4-0.1l0-0.2l2.5-0.1l0,0.2c-0.2,0-0.4,0.1-0.5,0.1c-0.1,0.1-0.2,0.3-0.2,0.5l0.2,4.3c0,0.2,0.1,0.4,0.2,0.5
		c0.1,0.1,0.3,0.1,0.5,0.1l0,0.2l-2.5,0.1L115.3,76.2L115.3,76.2z"/>
	<path class="st0" d="M121.2,74.9c0.1-0.4,0.1-1,0.1-1.7c0-0.9-0.1-1.7-0.4-2.1c-0.2-0.5-0.5-0.7-0.9-0.7c-0.5,0-0.9,0.4-1.1,1.2
		c-0.1,0.4-0.1,1-0.1,1.7c0,0.7,0.1,1.2,0.2,1.7c0.2,0.8,0.6,1.2,1.1,1.2C120.7,76.1,121,75.7,121.2,74.9L121.2,74.9z M121.8,71
		c0.5,0.6,0.8,1.3,0.8,2.3c0,0.9-0.2,1.7-0.7,2.3c-0.5,0.6-1.1,0.9-1.8,0.9c-0.8,0-1.4-0.3-1.9-0.9c-0.5-0.6-0.7-1.3-0.7-2.1
		c0-0.9,0.2-1.7,0.7-2.3c0.5-0.6,1.1-0.9,1.8-0.9C120.7,70.1,121.3,70.4,121.8,71L121.8,71z"/>
	<path class="st0" d="M123.6,76.2l0-0.2c0.2,0,0.3,0,0.4-0.1c0.1-0.1,0.2-0.3,0.2-0.5l0.1-4.3c0-0.3-0.1-0.4-0.2-0.5
		c-0.1-0.1-0.2-0.1-0.4-0.1l0-0.2l4.1,0.1l0,1.8l-0.2,0c-0.1-0.6-0.2-1-0.4-1.2c-0.2-0.2-0.6-0.3-1.2-0.3c-0.2,0-0.4,0-0.4,0.1
		c-0.1,0.1-0.1,0.2-0.1,0.3l0,2c0.4,0,0.7-0.1,0.8-0.3c0.1-0.2,0.3-0.5,0.3-1l0.2,0l-0.1,3l-0.2,0c0-0.5-0.1-0.9-0.3-1.1
		c-0.1-0.2-0.4-0.3-0.8-0.3l0,2.1c0,0.2,0,0.3,0.1,0.4c0.1,0.1,0.2,0.1,0.5,0.1c0.5,0,0.8-0.1,1.1-0.3c0.3-0.2,0.6-0.6,0.8-1.2
		l0.2,0l-0.3,1.8L123.6,76.2L123.6,76.2z"/>
	<path class="st0" d="M127.8,76c0.2,0,0.3-0.1,0.4-0.1c0.1-0.1,0.2-0.2,0.4-0.4l1.3-1.9l-1.4-2.6c-0.1-0.2-0.2-0.3-0.3-0.4
		c-0.1-0.1-0.2-0.1-0.3-0.1l0-0.2l2.5,0l0,0.2c-0.2,0-0.4,0-0.5,0.1c-0.1,0-0.1,0.1-0.1,0.2c0,0.1,0,0.1,0,0.2c0,0,0,0.1,0.1,0.2
		l0.7,1.3c0.4-0.7,0.6-1.1,0.7-1.2c0.1-0.2,0.1-0.3,0.1-0.4c0-0.1-0.1-0.2-0.2-0.3c-0.1,0-0.2,0-0.3-0.1l0-0.2l1.8,0l0,0.2
		c-0.3,0-0.6,0.2-0.7,0.4c-0.2,0.2-0.6,0.8-1.2,1.9l1.2,2.5c0.2,0.3,0.3,0.5,0.4,0.6c0.1,0.1,0.2,0.1,0.3,0.2l0,0.2l-2.4,0l0-0.2
		c0.2,0,0.3,0,0.4,0c0.1,0,0.2-0.1,0.2-0.2c0,0,0-0.1,0-0.2c0-0.1-0.1-0.2-0.1-0.3l-0.7-1.4l-0.3,0.4c-0.2,0.4-0.4,0.6-0.5,0.8
		c-0.1,0.3-0.2,0.4-0.2,0.5c0,0.2,0.1,0.3,0.2,0.3c0.1,0,0.2,0.1,0.3,0.1l0,0.2l-1.8,0L127.8,76L127.8,76z"/>
	<path class="st0" d="M136.1,70.5c0.3,0.1,0.5,0.2,0.5,0.2c0.1,0,0.2,0,0.2-0.1c0.1-0.1,0.1-0.2,0.1-0.3l0.2,0l-0.1,2.1l-0.2,0
		c-0.2-0.5-0.3-0.8-0.5-1.1c-0.3-0.5-0.7-0.7-1.1-0.8c-0.5,0-0.8,0.2-1,0.7c-0.2,0.5-0.3,1.2-0.4,2c0,0.6,0,1.2,0.1,1.6
		c0.2,0.8,0.6,1.2,1.2,1.2c0.4,0,0.7-0.1,1-0.3c0.2-0.1,0.4-0.4,0.7-0.7l0.2,0.2c-0.3,0.4-0.5,0.6-0.8,0.8c-0.4,0.3-0.8,0.4-1.3,0.4
		c-0.7,0-1.3-0.3-1.7-0.8c-0.5-0.6-0.7-1.4-0.7-2.3c0-1,0.3-1.7,0.8-2.3c0.5-0.5,1.1-0.8,1.8-0.8C135.5,70.3,135.8,70.4,136.1,70.5
		L136.1,70.5z"/>
	<path class="st0" d="M136.9,76.5l0-0.2c0.2,0,0.3,0,0.4-0.1c0.1-0.1,0.2-0.2,0.2-0.5l0.3-4.3c0-0.3,0-0.4-0.2-0.5
		c-0.1-0.1-0.2-0.1-0.4-0.1l0-0.2l4.1,0.3l-0.1,1.8l-0.2,0c0-0.6-0.2-1-0.4-1.2c-0.2-0.2-0.6-0.4-1.2-0.4c-0.2,0-0.4,0-0.4,0.1
		c-0.1,0.1-0.1,0.2-0.1,0.3l-0.1,2c0.4,0,0.7,0,0.8-0.2c0.2-0.2,0.3-0.5,0.4-1l0.2,0l-0.2,3l-0.2,0c0-0.5-0.1-0.9-0.2-1.1
		c-0.1-0.2-0.4-0.3-0.8-0.4l-0.1,2.1c0,0.2,0,0.3,0.1,0.4c0.1,0.1,0.2,0.1,0.5,0.1c0.5,0,0.8-0.1,1.1-0.3c0.3-0.2,0.6-0.6,0.8-1.2
		l0.2,0l-0.4,1.8L136.9,76.5L136.9,76.5z"/>
	<path class="st0" d="M141.1,76.5c0.2,0,0.3,0,0.4-0.1c0.1-0.1,0.2-0.3,0.2-0.5l0.3-4.3c0-0.3,0-0.4-0.2-0.5
		c-0.1-0.1-0.2-0.1-0.4-0.1l0-0.2l2.5,0.2l0,0.2c-0.3,0-0.5,0-0.6,0.1c-0.1,0.1-0.2,0.3-0.2,0.6l-0.3,4.2c0,0.2,0,0.3,0.1,0.4
		c0.1,0.1,0.2,0.1,0.5,0.1c0.4,0,0.8-0.1,1.1-0.3c0.3-0.2,0.6-0.7,0.8-1.3l0.2,0l-0.4,2l-4.1-0.3L141.1,76.5L141.1,76.5z"/>
	<path class="st0" d="M145.2,76.7c0.2,0,0.3,0,0.4-0.1c0.1-0.1,0.2-0.2,0.3-0.5l0.4-4.3c0-0.3,0-0.4-0.1-0.5
		c-0.1-0.1-0.2-0.1-0.4-0.1l0-0.2l2.5,0.3l0,0.2c-0.3,0-0.5,0-0.6,0.1c-0.1,0.1-0.2,0.3-0.2,0.6l-0.4,4.2c0,0.2,0,0.3,0.1,0.4
		c0.1,0.1,0.2,0.1,0.5,0.1c0.4,0,0.8,0,1.1-0.2c0.3-0.2,0.6-0.6,0.9-1.3l0.2,0l-0.5,2l-4.1-0.4L145.2,76.7L145.2,76.7z"/>
	<path class="st0" d="M149.3,77.4l0-0.2c0.2,0,0.3,0,0.4-0.1c0.1-0.1,0.2-0.2,0.2-0.5l0.4-4.3c0-0.3,0-0.4-0.1-0.5
		c-0.1-0.1-0.2-0.1-0.4-0.1l0-0.2l4.1,0.4l-0.2,1.8l-0.2,0c0-0.6-0.1-1-0.3-1.2c-0.2-0.2-0.6-0.4-1.1-0.4c-0.2,0-0.4,0-0.4,0
		c-0.1,0-0.1,0.2-0.1,0.3l-0.2,2c0.4,0,0.7,0,0.8-0.2c0.2-0.2,0.3-0.5,0.4-1l0.2,0l-0.3,3l-0.2,0c0-0.5-0.1-0.9-0.2-1.1
		c-0.1-0.2-0.4-0.4-0.8-0.4l-0.2,2.1c0,0.2,0,0.3,0.1,0.4c0.1,0.1,0.2,0.1,0.5,0.1c0.5,0,0.8,0,1.1-0.2c0.3-0.2,0.6-0.6,0.9-1.1
		l0.2,0l-0.5,1.8L149.3,77.4L149.3,77.4z"/>
	<path class="st0" d="M153.5,77.6c0.3,0,0.4,0,0.5-0.1c0.1-0.1,0.2-0.3,0.2-0.5l0.7-4.1c-0.2-0.3-0.3-0.5-0.3-0.6
		c0-0.1-0.1-0.1-0.2-0.1l0-0.2l1.5,0.2l1.8,4.1l0,0l0.4-2.6c0-0.3,0-0.5,0-0.7c-0.1-0.1-0.2-0.2-0.5-0.3l0-0.2l1.5,0.2l0,0.2
		c-0.2,0-0.4,0-0.5,0.1c-0.1,0.1-0.1,0.2-0.2,0.5l-0.8,5.2l-0.2,0l-2.3-5.2l0,0l-0.5,3.4c0,0.3,0,0.5,0,0.6c0.1,0.2,0.2,0.3,0.5,0.4
		l0,0.2l-1.6-0.3L153.5,77.6L153.5,77.6z"/>
	<path class="st0" d="M159,72.6l4.2,0.7l-0.3,1.8l-0.2,0c0-0.6-0.1-1.1-0.4-1.4c-0.2-0.2-0.4-0.3-0.8-0.3l-0.7,4.6
		c-0.1,0.3,0,0.5,0,0.7c0.1,0.1,0.3,0.2,0.5,0.2l0,0.2l-2.5-0.4l0-0.2c0.3,0,0.5,0,0.6-0.1c0.1-0.1,0.2-0.3,0.2-0.6l0.7-4.6
		c-0.3,0-0.6,0-0.8,0.1c-0.4,0.2-0.6,0.6-0.8,1.2l-0.2,0L159,72.6L159,72.6z"/>
	<path class="st0" d="M162.1,78.9c0.2,0,0.3,0,0.4,0c0.2-0.1,0.3-0.2,0.3-0.5l0.8-4.2c0-0.3,0-0.4-0.1-0.6c-0.1-0.1-0.2-0.1-0.4-0.2
		l0-0.2l2.4,0.5l0,0.2c-0.2,0-0.4,0-0.5,0c-0.2,0.1-0.3,0.2-0.3,0.5l-0.8,4.2c0,0.2,0,0.4,0.1,0.5c0.1,0.1,0.2,0.2,0.5,0.2l0,0.2
		l-2.4-0.5L162.1,78.9L162.1,78.9z"/>
	<path class="st0" d="M167.3,78l-0.3-2.1l-0.1,0l-1,1.9L167.3,78L167.3,78z M164.3,79.3c0.2,0,0.3,0,0.5-0.2
		c0.1-0.1,0.2-0.3,0.4-0.7l2.5-4.5l0.2,0l0.7,4.9c0.1,0.5,0.1,0.9,0.2,1.1c0.1,0.2,0.2,0.3,0.3,0.3l0,0.2l-2.3-0.4l0-0.2
		c0.2,0,0.4,0,0.5,0c0.1,0,0.1-0.1,0.2-0.3c0-0.1,0-0.2,0-0.3c0-0.1,0-0.2,0-0.3l-0.1-0.6l-1.6-0.3c-0.2,0.3-0.3,0.5-0.3,0.6
		c-0.1,0.2-0.2,0.4-0.2,0.5c0,0.1,0,0.2,0.1,0.3c0.1,0,0.2,0.1,0.3,0.1l0,0.2l-1.4-0.3L164.3,79.3L164.3,79.3z"/>
	<path class="st0" d="M168.7,80.5l0.1-0.2c0.2,0,0.3,0,0.4,0c0.2-0.1,0.3-0.2,0.3-0.5l1-4.2c0.1-0.3,0-0.4-0.1-0.6
		c-0.1-0.1-0.2-0.1-0.4-0.2l0.1-0.2l4,1l-0.4,1.7l-0.2,0c0.1-0.6,0-1-0.2-1.2c-0.2-0.3-0.5-0.5-1.1-0.6c-0.2-0.1-0.4-0.1-0.4,0
		c-0.1,0-0.1,0.1-0.2,0.3l-0.5,2c0.4,0.1,0.7,0.1,0.9-0.1c0.2-0.2,0.4-0.5,0.6-0.9l0.2,0l-0.7,2.9l-0.2,0c0.1-0.5,0.1-0.9,0-1.1
		c-0.1-0.2-0.3-0.4-0.7-0.5l-0.5,2.1c0,0.2,0,0.3,0,0.4c0.1,0.1,0.2,0.2,0.4,0.2c0.4,0.1,0.8,0.1,1.2-0.1c0.3-0.1,0.7-0.5,1-1l0.2,0
		l-0.7,1.7L168.7,80.5L168.7,80.5z"/>
	<path class="st0" d="M114.9,62.2c1.2-1.1,2.7-2.1,4.2-2.8c0-0.1,0-0.2-0.1-0.2c-1-2.5-9.5-0.5-10.5-0.3c-0.7,0.2-1.4,0.4-2,0.6
		l0.1,0.1C108.4,61.3,111.9,62.3,114.9,62.2L114.9,62.2z"/>
	<path class="st4" d="M114.9,62.2c1.2-1.1,2.7-2.1,4.2-2.8l-0.1-0.2c-1-2.5-9.5-0.5-10.5-0.3c-0.7,0.2-1.4,0.4-2,0.6l0.1,0.1
		C108.4,61.3,111.9,62.3,114.9,62.2L114.9,62.2z"/>
</g>
</svg>
