<?xml version="1.0" encoding="utf-8"?>
<!-- Generator: Adobe Illustrator 19.1.0, SVG Export Plug-In . SVG Version: 6.00 Build 0)  -->
<svg version="1.1" id="Layer_1" xmlns="http://www.w3.org/2000/svg" xmlns:xlink="http://www.w3.org/1999/xlink" x="0px" y="0px"
	 viewBox="0 0 250 250" style="enable-background:new 0 0 250 250;" xml:space="preserve">
<style type="text/css">
	.st0{fill:#FFFFFF;}
</style>
<g>
	<path class="st0" d="M239.3,125c0,63.1-51.4,114.5-114.5,114.5c-63.1,0-114.5-51.4-114.5-114.5c0-63.1,51.4-114.5,114.5-114.5
		C187.9,10.5,239.3,61.9,239.3,125z"/>
	<g>
		<path d="M236.4,125c0,61.5-50.1,111.6-111.6,111.6c-61.5,0-111.6-50.1-111.6-111.6c0-61.5,50.1-111.6,111.6-111.6
			C186.3,13.4,236.4,63.5,236.4,125z M124.8,7.8C60.1,7.8,7.5,60.4,7.5,125c0,64.7,52.6,117.2,117.2,117.2
			c64.6,0,117.2-52.6,117.2-117.2C242,60.4,189.4,7.8,124.8,7.8z"/>
	</g>
	<path d="M102,145.1c-10,16.4-31.2,17.6-52.6,9.2c0,0,8.5-0.2,16.1-4.4c6.6-3.6,7.3-5.7,13.8-13.7c18.7-23,35.7-33.4,53.1-16.8
		C132.4,119.4,116.7,120.7,102,145.1z"/>
	<path d="M124.7,159.3c-10,16.5-31.2,17.6-52.6,9.2c0,0,8.5-0.2,16.1-4.4c6.6-3.6,7.3-5.7,13.8-13.7c18.7-23,35.7-33.4,53.1-16.8
		C155.1,133.6,139.4,134.9,124.7,159.3z"/>
	<path d="M198.7,135.8c0.9,9.3-4.9,17.7-23.6,28.8c0,0,28.8-24.5-6.5-41.8c-22-10.8-38.7-20-44.6-33.8c-4.1-9.5-0.2-25.6,11.8-31
		c0,0,13.2-6.5,37.2,2.4c0,0,13.3,4.7,6.1,13.8c0,0,1.9,3.1,3.7,7c1.4,2.9,1,4.4-2.1,2.5c0,0-34.8-30.4-44-12.5c0,0-3.3,6.4,1,14.2
		c3.6,4.7,6.4,6.1,12,9.3c8.6,4.5,14.4,7.6,25.1,13.6C174.7,108.2,197.1,119.2,198.7,135.8z"/>
	<path d="M149.4,172.3c-10,16.4-31.2,17.6-52.6,9.2c0,0,8.5-0.2,16.1-4.4c6.6-3.6,7.3-5.7,13.8-13.7c18.7-23,35.7-33.4,53.1-16.8
		C179.7,146.6,164.1,148,149.4,172.3z"/>
	<path d="M45.6,167.2c-0.1-1.2-0.2-1.8-0.7-2.8c-0.5-1.1-1.5-2.2-2.9-1.5c-2.6,1.3,0.8,6.8-3.6,8.9c-2.9,1.4-5.1-0.3-6.4-3
		c-0.5-0.9-0.6-2-0.8-3l1.9-0.7c0,0.8,0.2,2.1,0.7,3.1c0.5,1.1,1.9,2.3,3.5,1.6c3-1.5-0.6-6.9,3.6-8.9c2.4-1.2,4.6,0.1,5.8,2.5
		c0.4,0.9,0.8,2,0.9,3.1L45.6,167.2z"/>
	<path d="M48.5,168.9l1.4,1.9l-8.1,10.6l0,0l12.2-5.1l1.8,2.4L47.5,189l0,0l12.4-4.8l1.4,1.8l-14.8,5.3l-1.7-2.2l8.5-10.5l0,0
		l-12.5,5.2l-1.7-2.3L48.5,168.9z"/>
	<path d="M66.9,190.5l1.7,1.5l-5,15.5l-1.8-1.5l1.3-3.9l-5.6-4.8l-3.6,1.9l-1.7-1.5L66.9,190.5z M66.4,192.7l-7.1,3.7l4.5,3.9
		L66.4,192.7z"/>
	<path d="M75.8,197.6l2.5,1.5L78,212.8l0,0l6.1-10.5l1.9,1.1l-7.5,13l-2.4-1.4l0.3-14.1l0,0l-6.2,10.7l-1.9-1.1L75.8,197.6z"/>
	<path d="M95.4,209.7c-0.9-0.8-1.4-1.2-2.4-1.6c-1.1-0.4-2.6-0.5-3.2,0.9c-1,2.7,5.2,4.4,3.4,9c-1.1,3-3.9,3.3-6.7,2.2
		c-1-0.4-1.8-1-2.6-1.7l0.9-1.8c0.6,0.5,1.6,1.4,2.6,1.8c1.1,0.4,3,0.4,3.6-1.2c1.2-3.1-5.1-4.6-3.5-8.9c1-2.5,3.4-3,6-2.1
		c0.9,0.4,2,0.9,2.8,1.7L95.4,209.7z"/>
	<path d="M100.5,209l8.2,2l-0.5,1.8l-6.1-1.5l-1,4.3l5.5,1.3l-0.4,1.8l-5.5-1.3l-1.1,4.8l6.1,1.5l-0.4,1.8l-8.2-2L100.5,209z"/>
	<path d="M117.4,212l2.2,0.2l5.2,15.4l-2.3-0.2l-1.2-3.9l-7.3-0.5l-1.8,3.7l-2.2-0.2L117.4,212z M118.2,214.1l-3.5,7.2l6,0.4
		L118.2,214.1z"/>
	<path d="M145.5,212.6c-1-0.4-2.1-0.5-3.2-0.3c-3.4,0.6-5.3,3.4-4.7,6.8c0.6,3.5,3.5,5.4,6.6,4.8c1.1-0.2,2.4-0.7,3.1-1.3l0.5,2
		c-1,0.7-2.4,1-3.3,1.1c-4.7,0.8-8.3-1.7-9.1-6.4c-0.8-4.6,2-8.2,6.5-8.9c1.1-0.2,2.3-0.2,3.4,0.1L145.5,212.6z"/>
	<path d="M148.1,209.2l2.1-0.6l4.2,14.4l-2.1,0.6L148.1,209.2z"/>
	<path d="M157.6,207.9l-4.3,1.8l-0.7-1.8l10.6-4.4l0.7,1.7l-4.3,1.8l5,12.1l-2,0.8L157.6,207.9z"/>
	<path d="M173.7,207.7l-9.5-4.4l2.2-1.3l7.3,3.4l0.2-8l2.2-1.3l-0.5,10.5l3.3,5.4l-1.8,1.1L173.7,207.7z"/>
	<path d="M186.3,187l1.6-1.6l15.1,6l-1.6,1.7l-3.8-1.6l-5.2,5.2l1.6,3.7l-1.6,1.6L186.3,187z M188.5,187.7l3.2,7.3l4.2-4.3
		L188.5,187.7z"/>
	<path d="M193.7,178.7l4.6-6.5l1.5,1.1l-3.4,4.7l3.6,2.5l3.2-4.5l1.5,1.1l-3.2,4.5l5.6,4l-1.3,1.7L193.7,178.7z"/>
	<path d="M207.1,161.3c-0.9,0.6-1.7,1.4-2.2,2.4c-1.6,3.1-0.4,6.3,2.6,7.8c3.1,1.6,6.4,0.4,7.8-2.3c0.5-1,0.9-2.4,0.9-3.2l1.9,0.8
		c-0.1,1.2-0.7,2.5-1.1,3.3c-2.2,4.2-6.3,5.6-10.6,3.4c-4.1-2.1-5.3-6.5-3.2-10.6c0.5-1,1.2-2,2.1-2.7L207.1,161.3z"/>
</g>
</svg>
