<?xml version="1.0" encoding="utf-8"?>
<!-- Generator: Adobe Illustrator 19.1.0, SVG Export Plug-In . SVG Version: 6.00 Build 0)  -->
<svg version="1.1" id="Layer_1" xmlns="http://www.w3.org/2000/svg" xmlns:xlink="http://www.w3.org/1999/xlink" x="0px" y="0px"
	 viewBox="0 0 160 160" style="enable-background:new 0 0 160 160;" xml:space="preserve">
<style type="text/css">
	.st0{fill:#001C58;}
	.st1{fill:#FFFFFF;}
	.st2{fill:none;stroke:#FFFFFF;stroke-width:0.343;}
	.st3{clip-path:url(#SVGID_2_);fill:none;stroke:#FFFFFF;stroke-width:0.343;stroke-linecap:round;stroke-linejoin:round;}
	.st4{fill:none;stroke:#FFFFFF;stroke-width:0.343;stroke-linecap:round;stroke-linejoin:round;}
</style>
<g>
	<path class="st0" d="M66,99c-0.2-0.1-0.7,0-1.2,0.5c-0.8,0.8-1.1,1.9-1,3.3c0,0.4,0.1,0.6,0.2,0.8c0.2,0.5,0.6,0.8,0.9,0.9
		c0.4,0.1,0.8-0.1,1.2-0.6c0.9-1,1.2-2.9,0.8-4C66.6,99.4,66.4,99.1,66,99 M83.9,112.5c0.4,0.9,1.2,1.4,1.7,1.6
		c0.7,0.2,2.6,0.6,4.2,0.8c1.7,0.2,3.1-0.8,3.8-2.7c-0.6,0-1.2-0.1-1.8-0.2c-0.1,0.4-0.3,0.8-0.5,1.1c-0.1,0.2-0.5,0.4-0.7,0.2
		c-0.3-0.2-0.4-0.5-0.2-0.8c0.1-0.2,0.2-0.5,0.3-0.7c-0.4-0.1-0.7-0.1-1-0.2c-0.1,0.5-0.2,0.9-0.4,1.2c-0.1,0.3-0.4,0.4-0.7,0.3
		c-0.3-0.1-0.4-0.4-0.3-0.7c0.1-0.2,0.2-0.6,0.3-1c-0.2,0-0.4-0.1-0.5-0.1c-0.2-0.1-0.4-0.1-0.6-0.1c-0.1,0.3-0.2,0.6-0.4,1
		c-0.1,0.3-0.4,0.4-0.7,0.3c-0.3-0.1-0.4-0.4-0.3-0.7c0.1-0.3,0.2-0.5,0.3-0.8c-0.9-0.2-1.8-0.5-2.8-0.8
		C83.5,111.2,83.7,112,83.9,112.5z M94,111.2c0.2-1.1,0-1.8-0.3-2.3c-0.3-0.6-0.9-1-1.5-1.2l-0.7-0.1c-0.6-0.1-1.6-0.3-3-0.6
		c-1.9-0.5-3.5,0.4-4.4,2.3c0.9,0.3,1.8,0.5,2.7,0.7c0.2-0.7,0.2-1.2,0.2-1.2c0-0.3,0.3-0.5,0.6-0.5c0.3,0,0.5,0.3,0.5,0.6
		c0,0.1,0,0.6-0.2,1.4c0.2,0,0.4,0.1,0.5,0.1c0.2,0,0.4,0.1,0.5,0.1c0.2-0.8,0.3-1.4,0.3-1.4c0-0.3,0.3-0.5,0.6-0.4
		c0.3,0.1,0.5,0.3,0.5,0.6c0,0.1-0.1,0.7-0.3,1.5c0.4,0.1,0.7,0.1,1,0.2c0.1-0.7,0.1-1.2,0.1-1.2c0-0.3,0.3-0.5,0.6-0.5
		c0.3,0,0.5,0.3,0.5,0.6c0,0,0,0.6-0.2,1.3C92.8,111.1,93.4,111.2,94,111.2z M97.1,104.3c-0.1-2-0.5-3.9-1.1-5.6
		c-0.8-2.2-3.6-3.7-7.2-4.5c-6.7-1.5-15.5,1-21,5.7c0.2,0.9,0.1,1.9-0.1,2.8c4,2.2,9.9,4.5,15.4,6.2c1.3-3,3.8-3.6,5.7-3.1
		c1.4,0.4,2.3,0.5,2.9,0.6l0.7,0.1c0.9,0.2,1.7,0.8,2.2,1.7c0.4,0.6,0.7,1.6,0.5,2.9c0.7,0,1-0.1,1.1-0.2
		C96.9,108.9,97.2,106.7,97.1,104.3z M89.7,116.1c-1.5-0.2-3.5-0.6-4.4-0.9c-1-0.4-1.9-1.2-2.3-2.2c-0.2-0.4-0.4-1-0.4-1.7
		c0-0.4,0-0.9,0.1-1.4c-5.5-1.7-11.4-4-15.5-6.2c-0.1,0.3-0.3,0.5-0.5,0.7c-0.3,0.3-0.6,0.6-1,0.8c0.4,3.4,1.6,6.7,3.4,9.6
		c2.5,3.9,5.9,6.5,9.5,7.3c1.3,0.3,3,0.7,4.5,0.3c5.6-1.3,10.2-5.1,12.5-10.3c-0.3,0.1-0.6,0.1-0.9,0.1
		C93.5,116,90.8,116.2,89.7,116.1z M63.5,100.2c0.2-0.4,0.4-0.8,0.7-1.1c0.2-0.2,0.5-0.4,0.7-0.6c0.7-3.1,2-5.8,4.1-7.9
		c-3,2.1-5.3,5.2-6.6,8.8C62.6,99.5,63,99.8,63.5,100.2z M63.2,101.2c-0.4-0.3-0.8-0.6-1.1-0.9c-0.5,1.7-0.7,3.6-0.6,5.4
		c0,0.4,0,0.8,0.1,1.1c0.3-1.1,0.8-2.2,1.6-3.4C63,102.8,63,102,63.2,101.2z M64.6,105.3c-0.4-0.1-0.7-0.3-1-0.7
		c-1.3,2.1-1.9,3.9-1.4,5.5c2,6.9,8.1,12,15.4,12.7C70.7,120.7,65.5,113.4,64.6,105.3"/>
	<path class="st1" d="M71.6,9.9c-7,0-8.6,3.6-8.6,3.6s8.1-0.6,8.1,7.4c0,3.6-1.9,6-4,8.6c-2.4,3-5.1,6.4-5.1,12.1
		c0,9.4,6,13.8,11.4,17.7c4.6,3.4,9,6.6,9,12.6c0,6.1-2.7,10.7-3.9,12c-2,2-3.9,2.4-5.3,2.7c-1.5,0.3-2.9,0.6-3.2,2.8
		c-5.6,3.3-9,9.3-9,15.8c0,0.3,0,0.5,0,0.8c0.2,4.9,2.3,9.5,5.9,12.9c3.6,3.4,8.4,5.1,13.3,4.9c4.9-0.2,9.5-2.3,12.9-5.9
		c3.3-3.6,5.1-8.4,4.9-13.3c-0.3-7.5-5.1-14.1-12.2-16.6l0,0l-0.1-0.1l-0.2,0c-0.9-0.3-1.9-0.7-1.9-3c0-2.2,1-2.4,3-2.8
		c1.2-0.2,2.7-0.5,4.1-1.4c2.6-1.6,3-3.4,2.6-3.9c-0.6-0.6-1.3,0.7-3.9,1.5c-0.9,0.3-1.9,0.4-2.5,0.4c-0.5,0-0.9,0-1.2-0.1
		c1.3-2.5,2.9-4.6,2.9-4.7l0.3-0.4l-0.4-0.4c-0.5-0.5-0.8-1.6-0.8-3.1c0-1.8,0.5-4.2,1.5-6.8c1.2-3,6.3-12.9,17.7-12.9h0.6v-0.6
		c0-4.1-0.4-7.9-1.1-11.2l-0.1-0.6c0,0-1.1,0.3-2,0.5c-0.1,0-1,0.2-1,0.1c0-0.1,0.6-0.5,0.9-0.6c0.8-0.4,2-0.9,2-0.9l-0.2-0.5
		c-0.8-2.9-1.6-4.2-1.7-4.3l-0.3-0.4l-0.5,0.1c-9.6,3-11.6,9.3-12.8,13.1c-0.6,1.9-1,2.9-1.6,2.9c-2,0-3.6-1.7-4.1-2.2
		c-6-5.9-5.5-10.2-4.8-16.7c0.3-2.3,0.5-4.9,0.5-7.9C80.5,13.3,77.7,9.9,71.6,9.9"/>
	<path class="st2" d="M71.6,9.9c-7,0-8.6,3.6-8.6,3.6s8.1-0.6,8.1,7.4c0,3.6-1.9,6-4,8.6c-2.4,3-5.1,6.4-5.1,12.1
		c0,9.4,6,13.8,11.4,17.7c4.6,3.4,9,6.6,9,12.6c0,6.1-2.7,10.7-3.9,12c-2,2-3.9,2.4-5.3,2.7c-1.5,0.3-2.9,0.6-3.2,2.8
		c-5.6,3.3-9,9.3-9,15.8c0,0.3,0,0.5,0,0.8c0.2,4.9,2.3,9.5,5.9,12.9c3.6,3.4,8.4,5.1,13.3,4.9c4.9-0.2,9.5-2.3,12.9-5.9
		c3.3-3.6,5.1-8.4,4.9-13.3c-0.3-7.5-5.1-14.1-12.2-16.6l0,0l-0.1-0.1l-0.2,0c-0.9-0.3-1.9-0.7-1.9-3c0-2.2,1-2.4,3-2.8
		c1.2-0.2,2.7-0.5,4.1-1.4c2.6-1.6,3-3.4,2.6-3.9c-0.6-0.6-1.3,0.7-3.9,1.5c-0.9,0.3-1.9,0.4-2.5,0.4c-0.5,0-0.9,0-1.2-0.1
		c1.3-2.5,2.9-4.6,2.9-4.7l0.3-0.4l-0.4-0.4c-0.5-0.5-0.8-1.6-0.8-3.1c0-1.8,0.5-4.2,1.5-6.8c1.2-3,6.3-12.9,17.7-12.9h0.6v-0.6
		c0-4.1-0.4-7.9-1.1-11.2l-0.1-0.6c0,0-1.1,0.3-2,0.5c-0.1,0-1,0.2-1,0.1c0-0.1,0.6-0.5,0.9-0.6c0.8-0.4,2-0.9,2-0.9l-0.2-0.5
		c-0.8-2.9-1.6-4.2-1.7-4.3l-0.3-0.4l-0.5,0.1c-9.6,3-11.6,9.3-12.8,13.1c-0.6,1.9-1,2.9-1.6,2.9c-2,0-3.6-1.7-4.1-2.2
		c-6-5.9-5.5-10.2-4.8-16.7c0.3-2.3,0.5-4.9,0.5-7.9C80.5,13.3,77.7,9.9,71.6,9.9"/>
	<path class="st0" d="M66,99c-0.2-0.1-0.7,0-1.2,0.5c-0.8,0.8-1.1,1.9-1,3.3c0,0.4,0.1,0.6,0.2,0.8c0.2,0.5,0.6,0.8,0.9,0.9
		c0.4,0.1,0.8-0.1,1.2-0.6c0.9-1,1.2-2.9,0.8-4C66.6,99.4,66.4,99.1,66,99 M94,111.2c0.2-1.1,0-1.8-0.3-2.3c-0.3-0.6-0.9-1-1.5-1.2
		l-0.7-0.1c-0.6-0.1-1.6-0.3-3-0.6c-1.9-0.5-3.5,0.4-4.4,2.3c0.9,0.3,1.8,0.5,2.7,0.7c0.2-0.7,0.2-1.2,0.2-1.2
		c0-0.3,0.3-0.5,0.6-0.5c0.3,0,0.5,0.3,0.5,0.6c0,0.1,0,0.6-0.2,1.4c0.2,0,0.4,0.1,0.5,0.1c0.2,0,0.4,0.1,0.5,0.1
		c0.2-0.8,0.3-1.4,0.3-1.4c0-0.3,0.3-0.5,0.6-0.4c0.3,0.1,0.5,0.3,0.5,0.6c0,0.1-0.1,0.7-0.3,1.5c0.4,0.1,0.7,0.1,1,0.2
		c0.1-0.7,0.1-1.2,0.1-1.2c0-0.3,0.3-0.5,0.6-0.5c0.3,0,0.5,0.3,0.5,0.6c0,0,0,0.6-0.2,1.3C92.8,111.1,93.4,111.2,94,111.2z
		 M83.9,112.5c0.4,0.9,1.2,1.4,1.7,1.6c0.7,0.2,2.6,0.6,4.2,0.8c1.7,0.2,3.1-0.8,3.8-2.7c-0.6,0-1.2-0.1-1.8-0.2
		c-0.1,0.4-0.3,0.8-0.5,1.1c-0.1,0.2-0.5,0.4-0.7,0.2c-0.3-0.2-0.4-0.5-0.2-0.8c0.1-0.2,0.2-0.5,0.3-0.7c-0.4-0.1-0.7-0.1-1-0.2
		c-0.1,0.5-0.2,0.9-0.4,1.2c-0.1,0.3-0.4,0.4-0.7,0.3c-0.3-0.1-0.4-0.4-0.3-0.7c0.1-0.2,0.2-0.6,0.3-1c-0.2,0-0.4-0.1-0.5-0.1
		c-0.2-0.1-0.4-0.1-0.6-0.1c-0.1,0.3-0.2,0.6-0.4,1c-0.1,0.3-0.4,0.4-0.7,0.3c-0.3-0.1-0.4-0.4-0.3-0.7c0.1-0.3,0.2-0.5,0.3-0.8
		c-0.9-0.2-1.8-0.5-2.8-0.8C83.5,111.2,83.7,112,83.9,112.5z M96,98.7c-0.8-2.2-3.6-3.7-7.2-4.5c-6.7-1.5-15.5,1-21,5.7
		c0.2,0.9,0.1,1.9-0.1,2.8c4,2.2,9.9,4.5,15.4,6.2c1.3-3,3.8-3.6,5.7-3.1c1.4,0.3,2.3,0.5,2.9,0.6l0.7,0.1c0.9,0.2,1.7,0.8,2.2,1.7
		c0.4,0.6,0.7,1.6,0.5,2.9c0.7,0,1-0.1,1.1-0.2c0.7-2.1,1.1-4.3,1-6.6C97,102.4,96.6,100.4,96,98.7z M89.7,116.1
		c-1.5-0.2-3.5-0.6-4.4-0.9c-1-0.4-1.9-1.2-2.3-2.2c-0.2-0.4-0.4-1-0.4-1.7c0-0.4,0-0.9,0.1-1.4c-5.5-1.7-11.4-4-15.5-6.2
		c-0.1,0.3-0.3,0.5-0.5,0.7c-0.3,0.4-0.6,0.6-1,0.8c0.4,3.4,1.6,6.7,3.4,9.6c2.5,3.9,5.9,6.5,9.5,7.3c1.3,0.3,3,0.7,4.5,0.3
		c5.6-1.3,10.2-5.1,12.5-10.3c-0.3,0.1-0.6,0.1-0.9,0.1C93.5,116,90.8,116.2,89.7,116.1z M63.5,100.2c0.2-0.4,0.4-0.8,0.7-1.1
		c0.2-0.2,0.5-0.4,0.7-0.6c0.7-3.1,2-5.8,4.1-7.9c-3,2.1-5.3,5.2-6.6,8.8C62.6,99.5,63,99.8,63.5,100.2z M63.2,101.2
		c-0.4-0.3-0.8-0.6-1.1-0.9c-0.5,1.7-0.7,3.6-0.6,5.4c0,0.4,0,0.8,0.1,1.1c0.3-1.1,0.8-2.2,1.6-3.4C63,102.8,63,102,63.2,101.2z
		 M64.6,105.3c-0.4-0.1-0.7-0.3-1-0.7c-1.3,2.1-1.9,3.9-1.4,5.5c2,6.9,8.1,12,15.4,12.7C70.7,120.7,65.5,113.4,64.6,105.3z
		 M73.2,20.8c0-1-0.1-1.9-0.3-2.7c0,0,1.6-0.1,1.6-2.1c0-1.6-1.1-2.7-1.4-2.7c-0.2,0-0.3,0.3-0.8,0.3c-1.2,0-1.3-1.6-1.3-1.6
		c0.2,0,0.4,0,0.6,0c3.5,0,6.8,1.1,6.8,8.8c0,2.9-0.3,5.4-0.5,7.6c-0.2,2.2-0.5,4.3-0.4,6.3c0,0-6.1-0.7-6.1-5.3
		C71.3,26.4,73.2,25.7,73.2,20.8z M82.9,71.8c0,6-2.6,10.9-4.1,12.4c-4.6,4.6-8.4,1.3-8.5,5.9c-2.1,1.9-3.6,4.8-4.3,8.1
		c0,0,0.1,0,0.1,0c0.4,0.1,0.8,0.3,1.1,0.7c5.8-4.8,14.9-7.3,21.7-5.7c2.2,0.5,4,1.3,5.4,2.5c-2.1-3.4-5.3-6.1-9.2-7.4
		c-0.9-0.3-2.5-0.7-2.5-3.6c0-5.5,6-1.2,10-7.2c0.2-0.3-0.1-0.6-0.3-0.3c-1.2,1.2-4.1,2-5.7,2c-1.6,0-2.1-0.4-2.1-0.4
		c1.5-2.9,3.3-5.4,3.3-5.4c-3.7-3.7,2.5-23.9,18.9-23.9c0-4.7-0.5-8.4-1.1-11.1c-0.4,0.1-3.5,0.8-3.6,0.2c-0.1-0.6,2.3-1.8,3.1-2.2
		c-0.8-2.8-1.6-4.1-1.6-4.1c-14,4.4-11.2,16-14.6,16c-2.2,0-4-1.7-4.6-2.4C76,37.5,79.9,32,79.9,20.8c0-7.5-2.9-10.3-8.3-10.3
		c-5.4,0-7.3,2.3-7.3,2.3s7.4,0.2,7.4,8c0,8.1-9.1,10.3-9.1,20.6C62.5,58.6,82.9,58.2,82.9,71.8"/>
	<path class="st1" d="M52,120.7c1.4,0.9,2.8,1.7,2.8,1.7l-0.5,1.3c-0.2-0.8-1-1.2-2-1.9l-3.3,4.8c-0.4,0.6-1.2,1.8-1.3,2.4
		c0,0-0.6-0.4-1.1-0.7c-0.5-0.4-1-0.8-1-0.8c0.5-0.1,1.4-1.4,1.9-2.1l3.2-4.6c-1.2-0.9-1.7-1.1-2.6-1.1l1.2-0.9
		C49.4,118.8,50.5,119.7,52,120.7"/>
	<g>
		<defs>
			<rect id="SVGID_1_" x="44.8" y="9.1" width="70" height="143"/>
		</defs>
		<clipPath id="SVGID_2_">
			<use xlink:href="#SVGID_1_"  style="overflow:visible;"/>
		</clipPath>
		<path class="st3" d="M52,120.7c1.4,0.9,2.8,1.7,2.8,1.7l-0.5,1.3c-0.2-0.8-1-1.2-2-1.9l-3.3,4.8c-0.4,0.6-1.2,1.8-1.3,2.4
			c0,0-0.6-0.4-1.1-0.7c-0.5-0.4-1-0.8-1-0.8c0.5-0.1,1.4-1.4,1.9-2.1l3.2-4.6c-1.2-0.9-1.7-1.1-2.6-1.1l1.2-0.9
			C49.4,118.8,50.5,119.7,52,120.7"/>
	</g>
	<path class="st1" d="M104.9,137l0.1,0.1c-0.1,0-0.2,0-0.3,0.1l0.3,0.6c0.1,0.1,0.1,0.3,0.2,0.3c0,0-0.1,0-0.1,0.1
		c-0.1,0-0.1,0.1-0.1,0.1c0-0.1,0-0.1-0.1-0.3l-0.3-0.6c-0.1,0.1-0.2,0.1-0.3,0.2l0-0.2c0,0,0.1-0.1,0.3-0.1
		C104.8,137.1,104.9,137,104.9,137"/>
	<path class="st4" d="M104.9,137l0.1,0.1c-0.1,0-0.2,0-0.3,0.1l0.3,0.6c0.1,0.1,0.1,0.3,0.2,0.3c0,0-0.1,0-0.1,0.1
		c-0.1,0-0.1,0.1-0.1,0.1c0-0.1,0-0.1-0.1-0.3l-0.3-0.6c-0.1,0.1-0.2,0.1-0.3,0.2l0-0.2c0,0,0.1-0.1,0.3-0.1
		C104.8,137.1,104.9,137,104.9,137"/>
	<path class="st1" d="M58,124.6c-1.5-0.7-2.6,1-3.5,2.8c-0.9,1.9-1.5,3.8,0,4.5c1.5,0.7,2.6-1,3.5-2.8
		C58.9,127.3,59.5,125.3,58,124.6 M54.2,132.6c-2.3-1.1-2.6-3.6-1.5-6.1c1.1-2.4,3.3-3.7,5.6-2.7c2.3,1.1,2.6,3.7,1.5,6.1
		C58.7,132.4,56.5,133.7,54.2,132.6"/>
	<path class="st4" d="M58,124.6c-1.5-0.7-2.6,1-3.5,2.8c-0.9,1.9-1.5,3.8,0,4.5c1.5,0.7,2.6-1,3.5-2.8
		C58.9,127.3,59.5,125.3,58,124.6z M54.2,132.6c-2.3-1.1-2.6-3.6-1.5-6.1c1.1-2.4,3.3-3.7,5.6-2.7c2.3,1.1,2.6,3.7,1.5,6.1
		C58.7,132.4,56.5,133.7,54.2,132.6"/>
	<path class="st1" d="M64.5,126.4c1.6,0.4,2.8,0.7,2.8,0.7l-0.1,1.4c-0.4-0.6-0.6-0.8-2-1.1l-1.6,5.4c-0.1,0.5-0.8,2.4-0.6,2.8
		c0,0-0.5-0.1-1.2-0.3c-0.8-0.2-1.2-0.4-1.2-0.4c0.4-0.3,1-1.9,1.1-2.6l1.6-5.5c-1.4-0.4-1.7-0.5-2.4-0.2l0.8-1.2
		C61.9,125.5,62.8,125.9,64.5,126.4"/>
	<path class="st4" d="M64.5,126.4c1.6,0.4,2.8,0.7,2.8,0.7l-0.1,1.4c-0.4-0.6-0.6-0.8-2-1.1l-1.6,5.4c-0.1,0.5-0.8,2.4-0.6,2.8
		c0,0-0.5-0.1-1.2-0.3c-0.8-0.2-1.2-0.4-1.2-0.4c0.4-0.3,1-1.9,1.1-2.6l1.6-5.5c-1.4-0.4-1.7-0.5-2.4-0.2l0.8-1.2
		C61.9,125.5,62.8,125.9,64.5,126.4"/>
	<path class="st1" d="M71,127.9c1.5,0.2,3,0.4,3,0.4l0.1,1.4c-0.6-0.5-0.8-0.7-2.3-0.9l-0.9,5.6c-0.1,0.5-0.4,2.4-0.1,2.8
		c0,0-0.5-0.1-1.3-0.1c-0.7-0.1-1.2-0.2-1.2-0.2c0.4-0.3,0.7-2.1,0.7-2.6l0.9-5.7c-1.3-0.3-1.6-0.1-2.2,0.2l0.6-1.3
		C68.2,127.3,69.5,127.6,71,127.9"/>
	<path class="st4" d="M71,127.9c1.5,0.2,3,0.4,3,0.4l0.1,1.4c-0.6-0.5-0.8-0.7-2.3-0.9l-0.9,5.6c-0.1,0.5-0.4,2.4-0.1,2.8
		c0,0-0.5-0.1-1.3-0.1c-0.7-0.1-1.2-0.2-1.2-0.2c0.4-0.3,0.7-2.1,0.7-2.6l0.9-5.7c-1.3-0.3-1.6-0.1-2.2,0.2l0.6-1.3
		C68.2,127.3,69.5,127.6,71,127.9"/>
	<path class="st1" d="M76.7,133.2l-0.1,3.8c2,0,3.3-0.1,3.9-1l-0.3,1.7c0,0-1.1,0-2.7,0c-1.8,0-3.1-0.1-3.1-0.1
		c0.3-0.3,0.4-2.1,0.4-2.7l0.2-3.7c0-1,0.1-2.6-0.2-2.9c1.4,0.1,1.2,0.1,2.6,0.1c1.7,0.1,2.7,0,2.7,0l0.2,1.4
		c-0.7-0.6-1.7-0.6-3.3-0.6l-0.1,3.2h2.5c0.2,0,0.2,0.1,0.2,0.4c0,0.3,0,0.4-0.2,0.4H76.7"/>
	<path class="st4" d="M76.7,133.2l-0.1,3.8c2,0,3.3-0.1,3.9-1l-0.3,1.7c0,0-1.1,0-2.7,0c-1.8,0-3.1-0.1-3.1-0.1
		c0.3-0.3,0.4-2.1,0.4-2.7l0.2-3.7c0-1,0.1-2.6-0.2-2.9c1.4,0.1,1.2,0.1,2.6,0.1c1.7,0.1,2.7,0,2.7,0l0.2,1.4
		c-0.7-0.6-1.7-0.6-3.3-0.6l-0.1,3.2h2.5c0.2,0,0.2,0.1,0.2,0.4c0,0.3,0,0.4-0.2,0.4H76.7"/>
	<path class="st1" d="M87.8,134.3c0.1,1.4,0.3,2.4,0.6,2.5c-0.1,0.1-0.3,0.4-0.6,0.4c-0.4,0-0.7-0.1-1-0.5l-4.5-5.1l0.2,3.3
		c0.1,0.5,0.1,2.5,0.4,2.7l-1.5,0.1c0.3-0.3,0.2-2.2,0.1-2.7l-0.2-3.7c-0.1-0.5-0.1-2.6-0.5-2.8l1.4-0.1l4.6,5.4l-0.4-3.1
		c-0.1-0.5-0.3-2.4-0.6-2.7c0,0,0.2,0,0.7-0.1c0.6-0.1,0.7-0.1,0.7-0.1c-0.3,0.3,0,2.2,0.1,2.7L87.8,134.3"/>
	<path class="st4" d="M87.8,134.3c0.1,1.4,0.3,2.4,0.6,2.5c-0.1,0.1-0.3,0.4-0.6,0.4c-0.4,0-0.7-0.1-1-0.5l-4.5-5.1l0.2,3.3
		c0.1,0.5,0.1,2.5,0.4,2.7l-1.5,0.1c0.3-0.3,0.2-2.2,0.1-2.7l-0.2-3.7c-0.1-0.5-0.1-2.6-0.5-2.8l1.4-0.1l4.6,5.4l-0.4-3.1
		c-0.1-0.5-0.3-2.4-0.6-2.7c0,0,0.2,0,0.7-0.1c0.6-0.1,0.7-0.1,0.7-0.1c-0.3,0.3,0,2.2,0.1,2.7L87.8,134.3"/>
	<path class="st1" d="M96.2,132.4c0.1,0.6,0.5,2.3,0.9,2.6c0,0-0.7,0.2-1.1,0.3c-0.4,0.1-1.2,0.3-1.2,0.3c0.2-0.4-0.3-2.3-0.4-2.8
		l-0.4-1.7l-2.8,0.7l0.3,1.7c0.1,0.6,0.4,2.4,0.8,2.7c0,0-0.4,0.1-1.2,0.2c-0.7,0.1-1.2,0.2-1.2,0.2c0.2-0.4-0.1-2.1-0.2-2.7
		l-0.7-3.7c-0.1-0.7-0.4-2.4-0.8-2.6c0,0,0.4-0.1,1.2-0.2c0.8-0.1,1.2-0.3,1.2-0.3c-0.2,0.4,0.1,2.1,0.2,2.7l0.2,1.1l2.8-0.7
		l-0.3-1.2c-0.2-0.6-0.5-2.1-0.9-2.4c0,0,0.4-0.1,1.2-0.3c0.8-0.2,1.1-0.4,1.1-0.4c-0.1,0.4,0.3,1.9,0.5,2.6L96.2,132.4"/>
	<path class="st4" d="M96.2,132.4c0.1,0.6,0.5,2.3,0.9,2.6c0,0-0.7,0.2-1.1,0.3c-0.4,0.1-1.2,0.3-1.2,0.3c0.2-0.4-0.3-2.3-0.4-2.8
		l-0.4-1.7l-2.8,0.7l0.3,1.7c0.1,0.6,0.4,2.4,0.8,2.7c0,0-0.4,0.1-1.2,0.2c-0.7,0.1-1.2,0.2-1.2,0.2c0.2-0.4-0.1-2.1-0.2-2.7
		l-0.7-3.7c-0.1-0.7-0.4-2.4-0.8-2.6c0,0,0.4-0.1,1.2-0.2c0.8-0.1,1.2-0.3,1.2-0.3c-0.2,0.4,0.1,2.1,0.2,2.7l0.2,1.1l2.8-0.7
		l-0.3-1.2c-0.2-0.6-0.5-2.1-0.9-2.4c0,0,0.4-0.1,1.2-0.3c0.8-0.2,1.1-0.4,1.1-0.4c-0.1,0.4,0.3,1.9,0.5,2.6L96.2,132.4"/>
	<path class="st1" d="M100.9,129.6l-2.5-3.4l0.2,4.3L100.9,129.6 M101.4,130.2l-2.8,1.1l0.1,1.5c0.1,0.5,0.1,1,0.2,1.3
		c0.1,0.1,0.2,0.2,0.3,0.3c0,0-0.3,0.1-0.8,0.3c-0.5,0.1-0.7,0.2-0.7,0.2c0.2-0.3,0.2-0.7,0.2-1.2l-0.3-7.2c0-0.3,0-0.5-0.1-0.7
		c-0.1-0.2-0.2-0.3-0.3-0.4c0.3-0.2,0.7-0.4,1.1-0.6c0.6-0.3,0.9-0.3,1.4,0.3l4.1,5.1c0.7,0.9,1.4,1.6,1.8,1.7c0,0-0.4,0.2-1.2,0.5
		c-0.8,0.4-1.3,0.6-1.3,0.6c0-0.2,0-0.4-0.1-0.6c-0.1-0.3-0.5-0.7-0.8-1.1L101.4,130.2"/>
	<path class="st4" d="M100.9,129.6l-2.5-3.4l0.2,4.3L100.9,129.6z M101.4,130.2l-2.8,1.1l0.1,1.5c0.1,0.5,0.1,1,0.2,1.3
		c0.1,0.1,0.2,0.2,0.3,0.3c0,0-0.3,0.1-0.8,0.3c-0.5,0.1-0.7,0.2-0.7,0.2c0.2-0.3,0.2-0.7,0.2-1.2l-0.3-7.2c0-0.3,0-0.5-0.1-0.7
		c-0.1-0.2-0.2-0.3-0.3-0.4c0.3-0.2,0.7-0.4,1.1-0.6c0.6-0.3,0.9-0.3,1.4,0.3l4.1,5.1c0.7,0.9,1.4,1.6,1.8,1.7c0,0-0.4,0.2-1.2,0.5
		c-0.8,0.4-1.3,0.6-1.3,0.6c0-0.2,0-0.4-0.1-0.6c-0.1-0.3-0.5-0.7-0.8-1.1L101.4,130.2"/>
	<path class="st1" d="M113,127.6c-0.6,0.4-1,0.7-1,0.7c0-0.6-1.1-1.9-1.4-2.3l-2.4-3.1l1.9,6.1c-0.1,0.1-0.2,0.3-0.3,0.4
		c-0.4,0.3-0.8,0.2-1.1,0l-4.6-3.8l1.6,2.9c0.4,0.8,1.1,2.3,1.6,2.4c0,0-0.3,0.2-0.7,0.4c-0.4,0.2-0.7,0.3-0.7,0.3
		c0.1-0.4-0.6-1.7-1.1-2.5l-1.8-3.4c-0.5-1-1.1-2-1.6-2.2c0.4-0.2,0.5-0.3,1.1-0.5c0.5-0.2,0.9-0.5,0.9-0.5l5.1,4.4l-2-6.2
		c0,0,0.3-0.2,0.8-0.5c0.5-0.3,1-0.7,1-0.7c0,0.6,1.1,2,1.5,2.5l2.2,2.8c0.5,0.6,1.3,1.9,2,2C114.1,126.8,113.6,127.2,113,127.6"/>
	<path class="st4" d="M113,127.6c-0.6,0.4-1,0.7-1,0.7c0-0.6-1.1-1.9-1.4-2.3l-2.4-3.1l1.9,6.1c-0.1,0.1-0.2,0.3-0.3,0.4
		c-0.4,0.3-0.8,0.2-1.1,0l-4.6-3.8l1.6,2.9c0.4,0.8,1.1,2.3,1.6,2.4c0,0-0.3,0.2-0.7,0.4c-0.4,0.2-0.7,0.3-0.7,0.3
		c0.1-0.4-0.6-1.7-1.1-2.5l-1.8-3.4c-0.5-1-1.1-2-1.6-2.2c0.4-0.2,0.5-0.3,1.1-0.5c0.5-0.2,0.9-0.5,0.9-0.5l5.1,4.4l-2-6.2
		c0,0,0.3-0.2,0.8-0.5c0.5-0.3,1-0.7,1-0.7c0,0.6,1.1,2,1.5,2.5l2.2,2.8c0.5,0.6,1.3,1.9,2,2C114.1,126.8,113.6,127.2,113,127.6"/>
	<path class="st1" d="M106,136.7l0.3,0.3c0.1,0.1,0.1,0.2,0.2,0.2c0,0-0.1,0-0.1,0.1c-0.1,0-0.1,0.1-0.1,0.1c0-0.1-0.1-0.2-0.2-0.3
		l-0.3-0.4l0.2,0.7c0,0,0,0,0,0c-0.1,0.1-0.1,0-0.1,0l-0.5-0.4l0.2,0.3c0,0.1,0.1,0.2,0.2,0.3c0,0,0,0-0.1,0.1c0,0-0.1,0.1-0.1,0.1
		c0-0.1-0.1-0.3-0.1-0.3l-0.2-0.4c-0.1-0.1-0.1-0.2-0.2-0.2c0,0,0.1,0,0.1-0.1c0,0,0.1-0.1,0.1-0.1l0.6,0.5l-0.2-0.7
		c0,0,0.1,0,0.1-0.1c0.1,0,0.1-0.1,0.1-0.1C105.9,136.5,106,136.7,106,136.7"/>
	<path class="st4" d="M106,136.7l0.3,0.3c0.1,0.1,0.1,0.2,0.2,0.2c0,0-0.1,0-0.1,0.1c-0.1,0-0.1,0.1-0.1,0.1c0-0.1-0.1-0.2-0.2-0.3
		l-0.3-0.4l0.2,0.7c0,0,0,0,0,0c-0.1,0.1-0.1,0-0.1,0l-0.5-0.4l0.2,0.3c0,0.1,0.1,0.2,0.2,0.3c0,0,0,0-0.1,0.1c0,0-0.1,0.1-0.1,0.1
		c0-0.1-0.1-0.3-0.1-0.3l-0.2-0.4c-0.1-0.1-0.1-0.2-0.2-0.2c0,0,0.1,0,0.1-0.1c0,0,0.1-0.1,0.1-0.1l0.6,0.5l-0.2-0.7
		c0,0,0.1,0,0.1-0.1c0.1,0,0.1-0.1,0.1-0.1C105.9,136.5,106,136.7,106,136.7"/>
	<path class="st1" d="M60.5,138.8c0.5,0.2,1.1,0.4,1.1,0.4c-0.5,0.4-1,1.9-1.3,2.7l-1.2,3.3c-0.3,0.9-0.9,2.2-0.7,2.7
		c0,0-0.7-0.2-1.2-0.4c-0.5-0.1-0.7-0.2-1.2-0.4c0.6-0.1,1.1-2.1,1.3-2.6l0.5-1.5l-2.9-1.2l-0.8,1.8c-0.3,0.6-0.9,2-0.8,2.4
		c0,0-0.5-0.2-1.2-0.5c-0.9-0.4-1.1-0.5-1.1-0.5c0.6-0.3,1-1.3,1.4-2.3l1.5-3.3c0.5-1.1,1-2.1,0.9-2.8c0,0,0.3,0.2,1,0.5
		c0.6,0.3,0.9,0.4,1.2,0.5c-0.5,0.2-1.1,1.8-1.5,2.6l-0.4,0.9l2.8,1.1l0.4-1.1c0.2-0.5,0.9-2.1,0.8-2.7
		C59.3,138.4,59.9,138.6,60.5,138.8"/>
	<path class="st4" d="M60.5,138.8c0.5,0.2,1.1,0.4,1.1,0.4c-0.5,0.4-1,1.9-1.3,2.7l-1.2,3.3c-0.3,0.9-0.9,2.2-0.7,2.7
		c0,0-0.7-0.2-1.2-0.4c-0.5-0.1-0.7-0.2-1.2-0.4c0.6-0.1,1.1-2.1,1.3-2.6l0.5-1.5l-2.9-1.2l-0.8,1.8c-0.3,0.6-0.9,2-0.8,2.4
		c0,0-0.5-0.2-1.2-0.5c-0.9-0.4-1.1-0.5-1.1-0.5c0.6-0.3,1-1.3,1.4-2.3l1.5-3.3c0.5-1.1,1-2.1,0.9-2.8c0,0,0.3,0.2,1,0.5
		c0.6,0.3,0.9,0.4,1.2,0.5c-0.5,0.2-1.1,1.8-1.5,2.6l-0.4,0.9l2.8,1.1l0.4-1.1c0.2-0.5,0.9-2.1,0.8-2.7
		C59.3,138.4,59.9,138.6,60.5,138.8"/>
	<path class="st1" d="M66,141.1c-1.6-0.4-2.4,1.4-2.9,3.3c-0.5,1.9-0.7,3.9,0.9,4.4c1.6,0.4,2.4-1.4,2.9-3.4
		C67.4,143.5,67.5,141.5,66,141.1 M63.7,149.5c-2.5-0.6-3.3-3.1-2.6-5.6c0.7-2.5,2.5-4.2,5-3.6c2.5,0.6,3.3,3.1,2.6,5.6
		C68.1,148.5,66.2,150.2,63.7,149.5"/>
	<path class="st4" d="M66,141.1c-1.6-0.4-2.4,1.4-2.9,3.3c-0.5,1.9-0.7,3.9,0.9,4.4c1.6,0.4,2.4-1.4,2.9-3.4
		C67.4,143.5,67.5,141.5,66,141.1z M63.7,149.5c-2.5-0.6-3.3-3.1-2.6-5.6c0.7-2.5,2.5-4.2,5-3.6c2.5,0.6,3.3,3.1,2.6,5.6
		C68.1,148.5,66.2,150.2,63.7,149.5"/>
	<path class="st1" d="M70.5,150.4c0,0,0.2-0.2,0.3-0.5c0.1-0.5,0.3-1.4,0.4-2.2l0.7-5.4c-1.5-0.2-1.8-0.1-2.5,0.3l0.6-1.4
		c0.5,0.1,1.5,0.2,2.7,0.4c0.8,0.1,3.3,0.3,3.3,0.3l0.1,1.4c-0.6-0.6-1.1-0.7-2.4-0.8l-0.7,5.4c-0.1,0.5-0.3,2.3-0.1,2.8
		c-0.3,0-0.8-0.1-1.2-0.1C71.3,150.5,70.7,150.4,70.5,150.4"/>
	<path class="st4" d="M70.5,150.4c0,0,0.2-0.2,0.3-0.5c0.1-0.5,0.3-1.4,0.4-2.2l0.7-5.4c-1.5-0.2-1.8-0.1-2.5,0.3l0.6-1.4
		c0.5,0.1,1.5,0.2,2.7,0.4c0.8,0.1,3.3,0.3,3.3,0.3l0.1,1.4c-0.6-0.6-1.1-0.7-2.4-0.8l-0.7,5.4c-0.1,0.5-0.3,2.3-0.1,2.8
		c-0.3,0-0.8-0.1-1.2-0.1C71.3,150.5,70.7,150.4,70.5,150.4"/>
	<path class="st1" d="M82.3,148.5c0,1.6-1.3,2.8-3.3,2.8c-1.6,0-2.4-0.7-2.7-0.9l0.3-1.5c0.5,1,1.3,1.7,2.2,1.7c1,0,1.7-0.6,1.7-1.5
		c0-0.7-0.4-1.1-2-1.9c-1.5-0.8-2.1-1.6-2.1-2.7c0-1.6,1.4-2.4,3-2.4c1.2,0,2,0.4,2.6,0.6l-0.3,1.4c-0.7-1-1.4-1.3-2.2-1.3
		c-0.8,0-1.3,0.4-1.3,1.2c0,0.9,1,1.4,2.3,2.1C81.9,146.8,82.3,147.7,82.3,148.5"/>
	<path class="st4" d="M82.3,148.5c0,1.6-1.3,2.8-3.3,2.8c-1.6,0-2.4-0.7-2.7-0.9l0.3-1.5c0.5,1,1.3,1.7,2.2,1.7c1,0,1.7-0.6,1.7-1.5
		c0-0.7-0.4-1.1-2-1.9c-1.5-0.8-2.1-1.6-2.1-2.7c0-1.6,1.4-2.4,3-2.4c1.2,0,2,0.4,2.6,0.6l-0.3,1.4c-0.7-1-1.4-1.3-2.2-1.3
		c-0.8,0-1.3,0.4-1.3,1.2c0,0.9,1,1.4,2.3,2.1C81.9,146.8,82.3,147.7,82.3,148.5"/>
	<path class="st1" d="M89.7,143.6c0.1,0.2,0.1,0.4,0.1,0.6c0,0.1,0,0.4,0,0.6c0,0.5-0.3,1.1-0.7,1.6c-0.6,0.7-1.5,1-2.5,1
		c-0.4,0-0.5-0.1-0.5-0.4l0-0.1c0,0,0-0.1,0.1-0.1h0.1c0.3,0,0.8-0.1,1.2-0.6c0.4-0.5,0.5-1.1,0.4-1.8c-0.1-0.7-0.3-1.2-0.8-1.6
		c-0.4-0.3-0.9-0.4-1.4-0.4c0,0-0.2,0-0.4,0.1c0,0-0.1,0-0.1,0.1l0.5,5.6c0,0.5,0.2,2.2,0.6,2.6c0,0-0.5,0.1-1.3,0.1
		c-0.7,0.1-1.2,0.1-1.2,0.1c0.2-0.4,0.2-1.1,0.1-1.8l-0.4-4.4c0-0.5-0.1-2.2-0.5-2.7c0,0,1.1-0.1,3.2-0.3c1.1-0.1,1.9,0,2.7,0.6
		C89.2,142.6,89.5,143.1,89.7,143.6"/>
	<path class="st4" d="M89.7,143.6c0.1,0.2,0.1,0.4,0.1,0.6c0,0.1,0,0.4,0,0.6c0,0.5-0.3,1.1-0.7,1.6c-0.6,0.7-1.5,1-2.5,1
		c-0.4,0-0.5-0.1-0.5-0.4l0-0.1c0,0,0-0.1,0.1-0.1h0.1c0.3,0,0.8-0.1,1.2-0.6c0.4-0.5,0.5-1.1,0.4-1.8c-0.1-0.7-0.3-1.2-0.8-1.6
		c-0.4-0.3-0.9-0.4-1.4-0.4c0,0-0.2,0-0.4,0.1c0,0-0.1,0-0.1,0.1l0.5,5.6c0,0.5,0.2,2.2,0.6,2.6c0,0-0.5,0.1-1.3,0.1
		c-0.7,0.1-1.2,0.1-1.2,0.1c0.2-0.4,0.2-1.1,0.1-1.8l-0.4-4.4c0-0.5-0.1-2.2-0.5-2.7c0,0,1.1-0.1,3.2-0.3c1.1-0.1,1.9,0,2.7,0.6
		C89.2,142.6,89.5,143.1,89.7,143.6"/>
	<path class="st1" d="M98,145.4c0.4,1.9-0.5,3.6-2.5,4.1c-1.4,0.4-3.5-0.1-4-2.6l-0.7-2.9c-0.2-0.8-0.5-2.3-1-2.7
		c0,0,0.5-0.1,1.4-0.2c0.8-0.1,1.2-0.3,1.2-0.3c-0.2,0.4,0,1.7,0.2,2.7l0.9,3.7c0.2,0.7,0.4,1.1,0.8,1.4c0.3,0.2,0.7,0.3,1.1,0.2
		c0.3-0.1,0.7-0.3,0.9-0.6c0.2-0.4,0.2-0.9,0.1-1.6l-1-3.7c-0.3-1-0.6-2.3-0.9-2.5c0,0,0.4-0.1,1.2-0.3c0.6-0.2,0.9-0.3,1.2-0.4
		c-0.2,0.6,0.3,2.3,0.4,2.8L98,145.4"/>
	<path class="st4" d="M98,145.4c0.4,1.9-0.5,3.6-2.5,4.1c-1.4,0.4-3.5-0.1-4-2.6l-0.7-2.9c-0.2-0.8-0.5-2.3-1-2.7
		c0,0,0.5-0.1,1.4-0.2c0.8-0.1,1.2-0.3,1.2-0.3c-0.2,0.4,0,1.7,0.2,2.7l0.9,3.7c0.2,0.7,0.4,1.1,0.8,1.4c0.3,0.2,0.7,0.3,1.1,0.2
		c0.3-0.1,0.7-0.3,0.9-0.6c0.2-0.4,0.2-0.9,0.1-1.6l-1-3.7c-0.3-1-0.6-2.3-0.9-2.5c0,0,0.4-0.1,1.2-0.3c0.6-0.2,0.9-0.3,1.2-0.4
		c-0.2,0.6,0.3,2.3,0.4,2.8L98,145.4"/>
	<path class="st1" d="M107.1,144.6c0.2,0.1,0.4,0.1,0.6,0c0,0.1-0.1,0.4-0.3,0.6c-0.8,0.8-1.6,0.7-1.8,0.6c-1.4-0.5-3.7-2.6-3.8-2.8
		c0,0,0-0.1,0-0.1l0.1,0c0.4-0.2,0.8-0.6,0.9-1c0.3-0.6,0.2-1.1,0-1.7c-0.3-0.6-0.8-1.1-1.1-1.2c-0.6-0.2-1,0-1.2,0.1
		c0,0-0.3,0.1-0.4,0.2c0,0-0.1,0.1,0,0.3l1.8,5.1c0.3,0.7,0.7,2.2,1.2,2.4c0,0-0.5,0.2-1.2,0.4c-0.7,0.3-1.2,0.4-1.2,0.4
		c0.1-0.6-0.4-2.1-0.6-2.6l-1.1-3.4c-0.3-0.8-0.8-2.3-1.2-2.5c0,0,0.8-0.2,2.7-1c1-0.4,2-0.6,2.8-0.3c0.5,0.2,0.9,0.4,1.2,0.9
		c0.1,0.2,0.2,0.3,0.3,0.5c0.1,0.1,0.1,0.3,0.1,0.5c0.1,0.5,0,1.1-0.3,1.6c0,0-0.3,0.5-0.8,0.9C103.5,142.4,105.4,144,107.1,144.6"
		/>
	<path class="st4" d="M107.1,144.6c0.2,0.1,0.4,0.1,0.6,0c0,0.1-0.1,0.4-0.3,0.6c-0.8,0.8-1.6,0.7-1.8,0.6c-1.4-0.5-3.7-2.6-3.8-2.8
		c0,0,0-0.1,0-0.1l0.1,0c0.4-0.2,0.8-0.6,0.9-1c0.3-0.6,0.2-1.1,0-1.7c-0.3-0.6-0.8-1.1-1.1-1.2c-0.6-0.2-1,0-1.2,0.1
		c0,0-0.3,0.1-0.4,0.2c0,0-0.1,0.1,0,0.3l1.8,5.1c0.3,0.7,0.7,2.2,1.2,2.4c0,0-0.5,0.2-1.2,0.4c-0.7,0.3-1.2,0.4-1.2,0.4
		c0.1-0.6-0.4-2.1-0.6-2.6l-1.1-3.4c-0.3-0.8-0.8-2.3-1.2-2.5c0,0,0.8-0.2,2.7-1c1-0.4,2-0.6,2.8-0.3c0.5,0.2,0.9,0.4,1.2,0.9
		c0.1,0.2,0.2,0.3,0.3,0.5c0.1,0.1,0.1,0.3,0.1,0.5c0.1,0.5,0,1.1-0.3,1.6c0,0-0.3,0.5-0.8,0.9C103.5,142.4,105.4,144,107.1,144.6"
		/>
	<path class="st0" d="M52,120.7c1.4,0.9,2.8,1.7,2.8,1.7l-0.5,1.3c-0.2-0.8-1-1.2-2-1.9l-3.3,4.8c-0.4,0.6-1.2,1.8-1.3,2.4
		c0,0-0.6-0.4-1.1-0.7c-0.5-0.4-1-0.8-1-0.8c0.5-0.1,1.4-1.4,1.9-2.1l3.2-4.6c-1.2-0.9-1.7-1.1-2.6-1.1l1.2-0.9
		C49.4,118.8,50.5,119.7,52,120.7"/>
	<path class="st0" d="M104.9,137l0.1,0.1c-0.1,0-0.2,0-0.3,0.1l0.3,0.6c0.1,0.1,0.1,0.3,0.2,0.3c0,0-0.1,0-0.1,0.1
		c-0.1,0-0.1,0.1-0.1,0.1c0-0.1,0-0.1-0.1-0.3l-0.3-0.6c-0.1,0.1-0.2,0.1-0.3,0.2l0-0.2c0,0,0.1-0.1,0.3-0.1
		C104.8,137.1,104.9,137,104.9,137"/>
	<path class="st0" d="M58,124.6c-1.5-0.7-2.6,1-3.5,2.8c-0.9,1.9-1.5,3.8,0,4.5c1.5,0.7,2.6-1,3.5-2.8
		C58.9,127.3,59.5,125.3,58,124.6 M54.2,132.6c-2.3-1.1-2.6-3.6-1.5-6.1c1.1-2.4,3.3-3.7,5.6-2.7c2.3,1.1,2.6,3.7,1.5,6.1
		C58.7,132.4,56.5,133.7,54.2,132.6"/>
	<path class="st0" d="M64.5,126.4c1.6,0.4,2.8,0.7,2.8,0.7l-0.1,1.4c-0.4-0.6-0.6-0.8-2-1.1l-1.6,5.4c-0.1,0.5-0.8,2.4-0.6,2.8
		c0,0-0.5-0.1-1.2-0.3c-0.8-0.2-1.2-0.4-1.2-0.4c0.4-0.3,1-1.9,1.1-2.6l1.6-5.5c-1.4-0.4-1.7-0.5-2.4-0.2l0.8-1.2
		C61.9,125.5,62.8,125.9,64.5,126.4"/>
	<path class="st0" d="M71,127.9c1.5,0.2,3,0.4,3,0.4l0.1,1.4c-0.6-0.5-0.8-0.7-2.3-0.9l-0.9,5.6c-0.1,0.5-0.4,2.4-0.1,2.8
		c0,0-0.5-0.1-1.3-0.1c-0.7-0.1-1.2-0.2-1.2-0.2c0.4-0.3,0.7-2.1,0.7-2.6l0.9-5.7c-1.3-0.3-1.6-0.1-2.2,0.2l0.6-1.3
		C68.2,127.3,69.5,127.6,71,127.9"/>
	<path class="st0" d="M76.7,133.2l-0.1,3.8c2,0,3.3-0.1,3.9-1l-0.3,1.7c0,0-1.1,0-2.7,0c-1.8,0-3.1-0.1-3.1-0.1
		c0.3-0.3,0.4-2.1,0.4-2.7l0.2-3.7c0-1,0.1-2.6-0.2-2.9c1.4,0.1,1.2,0.1,2.6,0.1c1.7,0.1,2.7,0,2.7,0l0.2,1.4
		c-0.7-0.6-1.7-0.6-3.3-0.6l-0.1,3.2h2.5c0.2,0,0.2,0.1,0.2,0.4c0,0.3,0,0.4-0.2,0.4H76.7"/>
	<path class="st0" d="M87.8,134.3c0.1,1.4,0.3,2.4,0.6,2.5c-0.1,0.1-0.3,0.4-0.6,0.4c-0.4,0-0.7-0.1-1-0.5l-4.5-5.1l0.2,3.3
		c0.1,0.5,0.1,2.5,0.4,2.7l-1.5,0.1c0.3-0.3,0.2-2.2,0.1-2.7l-0.2-3.7c-0.1-0.5-0.1-2.6-0.5-2.8l1.4-0.1l4.6,5.4l-0.4-3.1
		c-0.1-0.5-0.3-2.4-0.6-2.7c0,0,0.2,0,0.7-0.1c0.6-0.1,0.7-0.1,0.7-0.1c-0.3,0.3,0,2.2,0.1,2.7L87.8,134.3"/>
	<path class="st0" d="M96.2,132.4c0.1,0.6,0.5,2.3,0.9,2.6c0,0-0.7,0.2-1.1,0.3c-0.4,0.1-1.2,0.3-1.2,0.3c0.2-0.4-0.3-2.3-0.4-2.8
		l-0.4-1.7l-2.8,0.7l0.3,1.7c0.1,0.6,0.4,2.4,0.8,2.7c0,0-0.4,0.1-1.2,0.2c-0.7,0.1-1.2,0.2-1.2,0.2c0.2-0.4-0.1-2.1-0.2-2.7
		l-0.7-3.7c-0.1-0.7-0.4-2.4-0.8-2.6c0,0,0.4-0.1,1.2-0.2c0.8-0.1,1.2-0.3,1.2-0.3c-0.2,0.4,0.1,2.1,0.2,2.7l0.2,1.1l2.8-0.7
		l-0.3-1.2c-0.2-0.6-0.5-2.1-0.9-2.4c0,0,0.4-0.1,1.2-0.3c0.8-0.2,1.1-0.4,1.1-0.4c-0.1,0.4,0.3,1.9,0.5,2.6L96.2,132.4"/>
	<path class="st0" d="M100.9,129.6l-2.5-3.4l0.2,4.3L100.9,129.6 M101.4,130.2l-2.8,1.1l0.1,1.5c0.1,0.5,0.1,1,0.2,1.3
		c0.1,0.1,0.2,0.2,0.3,0.3c0,0-0.3,0.1-0.8,0.3c-0.5,0.1-0.7,0.2-0.7,0.2c0.2-0.3,0.2-0.7,0.2-1.2l-0.3-7.2c0-0.3,0-0.5-0.1-0.7
		c-0.1-0.2-0.2-0.3-0.3-0.4c0.3-0.2,0.7-0.4,1.1-0.6c0.6-0.3,0.9-0.3,1.4,0.3l4.1,5.1c0.7,0.9,1.4,1.6,1.8,1.7c0,0-0.4,0.2-1.2,0.5
		c-0.8,0.4-1.3,0.6-1.3,0.6c0-0.2,0-0.4-0.1-0.6c-0.1-0.3-0.5-0.7-0.8-1.1L101.4,130.2"/>
	<path class="st0" d="M113,127.6c-0.6,0.4-1,0.7-1,0.7c0-0.6-1.1-1.9-1.4-2.3l-2.4-3.1l1.9,6.1c-0.1,0.1-0.2,0.3-0.3,0.4
		c-0.4,0.3-0.8,0.2-1.1,0l-4.6-3.8l1.6,2.9c0.4,0.8,1.1,2.3,1.6,2.4c0,0-0.3,0.2-0.7,0.4c-0.4,0.2-0.7,0.3-0.7,0.3
		c0.1-0.4-0.6-1.7-1.1-2.5l-1.8-3.4c-0.5-1-1.1-2-1.6-2.2c0.4-0.2,0.5-0.3,1.1-0.5c0.5-0.2,0.9-0.5,0.9-0.5l5.1,4.4l-2-6.2
		c0,0,0.3-0.2,0.8-0.5c0.5-0.3,1-0.7,1-0.7c0,0.6,1.1,2,1.5,2.5l2.2,2.8c0.5,0.6,1.3,1.9,2,2C114.1,126.8,113.6,127.2,113,127.6"/>
	<path class="st0" d="M106,136.7l0.3,0.3c0.1,0.1,0.1,0.2,0.2,0.2c0,0-0.1,0-0.1,0.1c-0.1,0-0.1,0.1-0.1,0.1c0-0.1-0.1-0.2-0.2-0.3
		l-0.3-0.4l0.2,0.7c0,0,0,0,0,0c-0.1,0.1-0.1,0-0.1,0l-0.5-0.4l0.2,0.3c0,0.1,0.1,0.2,0.2,0.3c0,0,0,0-0.1,0.1c0,0-0.1,0.1-0.1,0.1
		c0-0.1-0.1-0.3-0.1-0.3l-0.2-0.4c-0.1-0.1-0.1-0.2-0.2-0.2c0,0,0.1,0,0.1-0.1c0,0,0.1-0.1,0.1-0.1l0.6,0.5l-0.2-0.7
		c0,0,0.1,0,0.1-0.1c0.1,0,0.1-0.1,0.1-0.1C105.9,136.5,106,136.7,106,136.7"/>
	<path class="st0" d="M60.5,138.8c0.5,0.2,1.1,0.4,1.1,0.4c-0.5,0.4-1,1.9-1.3,2.7l-1.2,3.3c-0.3,0.9-0.9,2.2-0.7,2.7
		c0,0-0.7-0.2-1.2-0.4c-0.5-0.1-0.7-0.2-1.2-0.4c0.6-0.1,1.1-2.1,1.3-2.6l0.5-1.5l-2.9-1.2l-0.8,1.8c-0.3,0.6-0.9,2-0.8,2.4
		c0,0-0.5-0.2-1.2-0.5c-0.9-0.4-1.1-0.5-1.1-0.5c0.6-0.3,1-1.3,1.4-2.3l1.5-3.3c0.5-1.1,1-2.1,0.9-2.8c0,0,0.3,0.2,1,0.5
		c0.6,0.3,0.9,0.4,1.2,0.5c-0.5,0.2-1.1,1.8-1.5,2.6l-0.4,0.9l2.8,1.1l0.4-1.1c0.2-0.5,0.9-2.1,0.8-2.7
		C59.3,138.4,59.9,138.6,60.5,138.8"/>
	<path class="st0" d="M66,141.1c-1.6-0.4-2.4,1.4-2.9,3.3c-0.5,1.9-0.7,3.9,0.9,4.4c1.6,0.4,2.4-1.4,2.9-3.4
		C67.4,143.5,67.5,141.5,66,141.1 M63.7,149.5c-2.5-0.6-3.3-3.1-2.6-5.6c0.7-2.5,2.5-4.2,5-3.6c2.5,0.6,3.3,3.1,2.6,5.6
		C68.1,148.5,66.2,150.2,63.7,149.5"/>
	<path class="st0" d="M70.5,150.4c0,0,0.2-0.2,0.3-0.5c0.1-0.5,0.3-1.4,0.4-2.2l0.7-5.4c-1.5-0.2-1.8-0.1-2.5,0.3l0.6-1.4
		c0.5,0.1,1.5,0.2,2.7,0.4c0.8,0.1,3.3,0.3,3.3,0.3l0.1,1.4c-0.6-0.6-1.1-0.7-2.4-0.8l-0.7,5.4c-0.1,0.5-0.3,2.3-0.1,2.8
		c-0.3,0-0.8-0.1-1.2-0.1C71.3,150.5,70.7,150.4,70.5,150.4"/>
	<path class="st0" d="M82.3,148.5c0,1.6-1.3,2.8-3.3,2.8c-1.6,0-2.4-0.7-2.7-0.9l0.3-1.5c0.5,1,1.3,1.7,2.2,1.7c1,0,1.7-0.6,1.7-1.5
		c0-0.7-0.4-1.1-2-1.9c-1.5-0.8-2.1-1.6-2.1-2.7c0-1.6,1.4-2.4,3-2.4c1.2,0,2,0.4,2.6,0.6l-0.3,1.4c-0.7-1-1.4-1.3-2.2-1.3
		c-0.8,0-1.3,0.4-1.3,1.2c0,0.9,1,1.4,2.3,2.1C81.9,146.8,82.3,147.7,82.3,148.5"/>
	<path class="st0" d="M89.7,143.6c0.1,0.2,0.1,0.4,0.1,0.6c0,0.1,0,0.4,0,0.6c0,0.5-0.3,1.1-0.7,1.6c-0.6,0.7-1.5,1-2.5,1
		c-0.4,0-0.5-0.1-0.5-0.4l0-0.1c0,0,0-0.1,0.1-0.1h0.1c0.3,0,0.8-0.1,1.2-0.6c0.4-0.5,0.5-1.1,0.4-1.8c-0.1-0.7-0.3-1.2-0.8-1.6
		c-0.4-0.3-0.9-0.4-1.4-0.4c0,0-0.2,0-0.4,0.1c0,0-0.1,0-0.1,0.1l0.5,5.6c0,0.5,0.2,2.2,0.6,2.6c0,0-0.5,0.1-1.3,0.1
		c-0.7,0.1-1.2,0.1-1.2,0.1c0.2-0.4,0.2-1.1,0.1-1.8l-0.4-4.4c0-0.5-0.1-2.2-0.5-2.7c0,0,1.1-0.1,3.2-0.3c1.1-0.1,1.9,0,2.7,0.6
		C89.2,142.6,89.5,143.1,89.7,143.6"/>
	<path class="st0" d="M98,145.4c0.4,1.9-0.5,3.6-2.5,4.1c-1.4,0.4-3.5-0.1-4-2.6l-0.7-2.9c-0.2-0.8-0.5-2.3-1-2.7
		c0,0,0.5-0.1,1.4-0.2c0.8-0.1,1.2-0.3,1.2-0.3c-0.2,0.4,0,1.7,0.2,2.7l0.9,3.7c0.2,0.7,0.4,1.1,0.8,1.4c0.3,0.2,0.7,0.3,1.1,0.2
		c0.3-0.1,0.7-0.3,0.9-0.6c0.2-0.4,0.2-0.9,0.1-1.6l-1-3.7c-0.3-1-0.6-2.3-0.9-2.5c0,0,0.4-0.1,1.2-0.3c0.6-0.2,0.9-0.3,1.2-0.4
		c-0.2,0.6,0.3,2.3,0.4,2.8L98,145.4"/>
	<path class="st0" d="M107.1,144.6c0.2,0.1,0.4,0.1,0.6,0c0,0.1-0.1,0.4-0.3,0.6c-0.8,0.8-1.6,0.7-1.8,0.6c-1.4-0.5-3.7-2.6-3.8-2.8
		c0,0,0-0.1,0-0.1l0.1,0c0.4-0.2,0.8-0.6,0.9-1c0.3-0.6,0.2-1.1,0-1.7c-0.3-0.6-0.8-1.1-1.1-1.2c-0.6-0.2-1,0-1.2,0.1
		c0,0-0.3,0.1-0.4,0.2c0,0-0.1,0.1,0,0.3l1.8,5.1c0.3,0.7,0.7,2.2,1.2,2.4c0,0-0.5,0.2-1.2,0.4c-0.7,0.3-1.2,0.4-1.2,0.4
		c0.1-0.6-0.4-2.1-0.6-2.6l-1.1-3.4c-0.3-0.8-0.8-2.3-1.2-2.5c0,0,0.8-0.2,2.7-1c1-0.4,2-0.6,2.8-0.3c0.5,0.2,0.9,0.4,1.2,0.9
		c0.1,0.2,0.2,0.3,0.3,0.5c0.1,0.1,0.1,0.3,0.1,0.5c0.1,0.5,0,1.1-0.3,1.6c0,0-0.3,0.5-0.8,0.9C103.5,142.4,105.4,144,107.1,144.6"
		/>
</g>
</svg>
