<?xml version="1.0" encoding="utf-8"?>
<!-- Generator: Adobe Illustrator 19.1.0, SVG Export Plug-In . SVG Version: 6.00 Build 0)  -->
<svg version="1.1" id="Layer_1" xmlns="http://www.w3.org/2000/svg" xmlns:xlink="http://www.w3.org/1999/xlink" x="0px" y="0px"
	 viewBox="0 0 250 250" style="enable-background:new 0 0 250 250;" xml:space="preserve">
<style type="text/css">
	.st0{fill-rule:evenodd;clip-rule:evenodd;fill:#ED2127;}
	.st1{fill-rule:evenodd;clip-rule:evenodd;fill:#FBEE23;}
	.st2{fill-rule:evenodd;clip-rule:evenodd;}
</style>
<g>
	<polygon class="st0" points="125.5,244.6 231.8,138.2 196.8,57.9 216.6,57.9 216.6,5.4 34.4,5.4 34.4,57.9 54.1,57.9 19.1,138.2 
		125.5,244.6 	"/>
	<path class="st1" d="M44.3,15.4c0,10,0,22.5,0,32.5c4.9,0,157.4,0,162.3,0c0-10,0-22.5,0-32.5C189.8,15.4,61.1,15.4,44.3,15.4
		L44.3,15.4z"/>
	<path class="st2" d="M125.5,57.9l-60.5,0c-9.3,21.3-30.4,69.8-34,78c8.2,8.2,82.8,82.8,94.5,94.5V57.9L125.5,57.9z"/>
	<path class="st1" d="M185.9,57.9l-60.5,0v172.5c11.7-11.7,86.3-86.3,94.5-94.5C216.4,127.7,195.2,79.2,185.9,57.9L185.9,57.9z"/>
	<polygon class="st2" points="67.5,27.5 71,43.8 75.6,43.8 81.1,20.7 76.8,20.7 73.3,38.5 69.8,20.7 65.4,20.7 61.8,38.5 58.2,20.7 
		54,20.7 59.4,43.8 64.2,43.8 67.5,27.5 	"/>
	<path class="st2" d="M88.9,35.6l2.5-7.9l2.5,7.9H88.9L88.9,35.6z M96.7,43.8h4.4l-7.4-20.2h-4.4l-7.4,20.2h4.4l1.5-4.7h7.4
		L96.7,43.8L96.7,43.8z"/>
	<polygon class="st2" points="101.2,23.6 101.2,27.1 106.7,27.1 106.7,43.8 111,43.8 111,27.1 116.4,27.1 117.2,23.6 101.2,23.6 	
		"/>
	<polygon class="st2" points="120.8,23.6 120.8,43.8 124.9,43.8 124.9,35.1 131,35.1 131,31.6 124.9,31.6 124.9,27.1 132,27.1 
		132.9,23.6 120.8,23.6 	"/>
	<path class="st2" d="M144.9,41.1c-4,0-5-3.3-5-7.3c0-4,1-7.3,5-7.3c4,0,5,3.3,5,7.3C149.9,37.9,148.9,41.1,144.9,41.1L144.9,41.1z
		 M144.9,23.4c-6.9,0-9.8,4.7-9.8,10.5c0,5.8,2.9,10.5,9.8,10.5c6.9,0,9.8-4.7,9.8-10.5C154.6,28,151.8,23.4,144.9,23.4L144.9,23.4z
		"/>
	<path class="st2" d="M166.9,32.4h-3.2v-5.3h3.2c1.2,0,2.9,0.2,2.9,2.5C169.7,31.9,168,32.4,166.9,32.4L166.9,32.4z M169.5,35.3
		v-0.2c1.4,0,4.8-1.3,4.8-5.6c0-4.3-3.3-5.9-7.1-5.9h-7.7v20.2h4.2v-8.4h0.4c1.4,0,6.4,8.4,6.4,8.4l5.3,0L169.5,35.3L169.5,35.3z"/>
	<path class="st2" d="M187.3,40.3h-3.2V27.1h3.2c2.8,0,4.3,2.7,4.3,6.6C191.7,37.8,190.1,40.3,187.3,40.3L187.3,40.3z M187.2,23.6
		H180v20.2h7.2c6.4,0,9.1-4.3,9.1-10.1S193.6,23.6,187.2,23.6L187.2,23.6z"/>
	<path class="st2" d="M91.3,73.8c0,0.6,0.1,1,0.1,1.4c0.1,0.4,0.1,0.8,0.1,1.7c0,3.1-0.7,4.5-1.2,4.5c-0.1,0-0.2,0-0.2,0
		c-0.1-0.1-0.2-0.2-0.2-0.3c-0.8-1.2-2-2.5-5-2.5c-2.9,0-4.8,2-4.8,5c0,4.4,1.1,8,2,10.9c0.5,1.7,1,3.1,1,4.1c0,0.8-0.4,1.5-0.6,1.7
		c-1.1,0-1.5-0.4-2.3-1.2c-1.1-1.1-2.5-2.5-5.8-2.5c-1.4,0-4.6,0.5-4.6,4.9c0,1.9,0.7,3.6,1.3,5.2c0.7,1.7,1.4,3.5,1.4,5.8
		c0,0.2,0,1.8-0.5,1.8c-2.1,0-2.9-1.3-4.1-3.6c-1.1-2-2.4-4.5-5.4-4.5c-5,0-5,7.5-5,10.3c0,15.9,15.1,21.6,25.2,21.6
		c1.9,0,3-0.2,4.1-0.3c1.1-0.2,2.2-0.3,4.3-0.3c6.1,0,10.8,1.2,13.6,3.5c-1.5-0.6-3.4-1-5.6-1c-5.3,0-7.2,1.3-9.1,2.8
		c-0.7,0.6-1.2,1-2.2,1.3l-7.5,2.2l7.6,1.7c3.2,0.7,4.9,3.2,6.8,5.9c2,2.8,4.2,6,8.4,6c0.4,0,0.7,0,1.1-0.1c-0.4,2-0.7,4.4-0.7,7.3
		c0,4.1,1,5.7,2.3,7.4l0.6,0.8c0.6,0.9,1.2,1.7,1.8,2.5c2.2,2.9,4.2,5.6,4.2,9.3c0,2,0.1,3.6,0.2,5.1c0.1,1.6,0.2,3,0.2,4.9
		c0,5.5,3.8,7.2,5.8,8.1c0.2,0.1,0.5,0.2,0.6,0.3c0.4,1.9,2.2,2.5,3.4,2.9l0.4,0.1c0,0,0.4,0.2,0.4,0.2c0.6,0.3,1.4,0.6,2.9,0.6
		c3.8,0,5.5-2.8,5.8-5.2c0.1,0,0.1-0.1,0.2-0.1c1.7-0.7,5.2-2.3,5.2-7.2c0-2.6-0.3-4.5-0.6-6.2c-0.2-1.3-0.4-2.4-0.4-3.4
		c0-3.1,1.3-4.7,3-6.9c2.4-2.9,5.3-6.6,5.3-14.8c0-2.9-0.2-5.1-0.4-6.8c0.5,0.1,1,0.2,1.5,0.2c5.4,0,7.3-3.3,8.7-6
		c2.6-5.1,7.5-4.8,7.5-4.8s-3.9-6.8-13.2-6.8c-2.8,0-5,0.6-6.7,1.3c0.8-2.2,2.1-3.2,3.1-3.7c2.6-1.4,6.4-1.5,9.8-1.5
		c2.1,0,3.5,0.2,5,0.3c1.3,0.1,2.7,0.3,4.5,0.3c13.7,0,17.3-4.3,21.1-8.9c3.2-3.9,5.4-7.7,5.4-13.6c0-3.9-1.1-8.1-4.3-8.1
		c-2.8,0-4,2.6-4.9,4.7c-1.1,2.5-1.8,3.5-3,3.5c-1.5,0-2.8-1.5-2.8-3.4c0-1.7,1.1-3.9,2.2-6c1.3-2.4,2.6-4.9,2.6-7.4
		c0-1.4-0.6-2.6-1.6-3.5c-0.9-0.7-2-1.1-3.2-1.1c-2.4,0-4.4,2-6.3,4c-1.2,1.3-2.8,2.9-3.8,3c-0.2-0.2-0.5-0.9-0.5-1.4
		c0-1.7,0.8-4.2,1.5-6.7c0.8-2.6,1.5-5.1,1.5-7.1c0-4.3-2.5-6.2-5-6.2c-2.3,0-3.7,1.1-4.9,1.9c-0.9,0.6-1.5,1-2.2,1.1
		c0,0,0-0.1,0-0.1c0-0.1,0-2.1,0-2.1c0-0.6,0-1.2,0-1.8c0-4.6-0.2-7.6-2-9.4c-0.9-0.9-2-1.3-3.3-1.3c-6.2,0-9,8.2-9,16.4
		c0,3.8,0.2,7.1,0.3,10.4c0.1,3.1,0.3,6,0.3,9.1c0,7.6-1.5,13.8-2.9,17c-0.4-3.6-1.1-9-5.3-9c-3.5,0-4.3,4.4-5.2,9.6
		c-0.8,4.6-2,11-4.9,11c-2.4,0-3.1-4.4-3.8-10.2c-0.7-5.6-1.4-12-6.4-12c-5.5,0-5.8,7.1-6.1,11.8c0,0.6-0.1,1.3-0.1,2
		c-1.3-2.6-2.9-7.1-2.9-11.3c0-5.2,0.3-9.4,0.7-13.3c0.3-3.8,0.6-7.8,0.6-12.5c0-10.6-2.6-13.4-4.9-15.9l-0.2-0.2
		c-1.6-1.7-3-3.3-5.3-3.3C93,67.7,91.3,70.8,91.3,73.8L91.3,73.8z"/>
	<path class="st0" d="M140.1,161.7l-0.3,0.6c0,0-1.9-0.6-3.6-0.6c-3.1,0-4.3,2.1-4.3,2.1s1-0.6,3.1-0.6c2.7,0,4.6,1.4,4.6,2
		c0,0.6-0.8,0.9-1.5,0.9c0,1.3-1.8,3.1-7.1,3.1c0,2.6,1.6,4.3,1.6,5.1c-1.3,0-1.5,1.3-1.5,3.6c0,0-1.9-7.4-1.9-10.3
		c0-4.4,1.8-7.7,5.5-7.7C137.4,159.8,140.1,161.7,140.1,161.7L140.1,161.7z M151.4,147c0.8,0,1.3,0.1,1.3,0.1
		c-4.9,0.9-4.9,6.9-8.8,6.9c-0.9,0-1.4-0.4-1.4-0.4c0.5-1.1,2.4-1.3,2.4-2.8c-1.3,0-2.2,0.1-3.5,0.4
		C141.4,150.7,145.4,147,151.4,147L151.4,147z M118.5,178.1v-3.2c0-0.9-0.4-1.3-1.2-1.3l2.1-4.7v-0.5c-3.6,0-6.8-0.7-6.8-3.3h-1
		c-0.2,0-0.7-0.2-0.7-0.7c0-0.3,1.2-1.7,4.1-1.7c2.2,0,3.5,0.9,3.5,0.9s-1.2-2.9-4.6-2.9c-2,0-2.5,0.3-2.5,0.3s1.2-1.5,2.8-1.5
		c5.1,0,6.4,3.2,6.4,8.8C120.6,174.2,118.5,178.1,118.5,178.1L118.5,178.1z M104.4,151.7c0,0.5,1.6,0.9,2.6,0.9
		c0,0.6-1.1,1.4-2.2,1.4c-4.1,0-2.1-6.4-10.4-8c0,0,0.4-0.2,1.5-0.2c6.5,0,8.4,5.1,11.9,5.1C106.8,151,104.4,151.1,104.4,151.7
		L104.4,151.7z M187,109.5c-3.3,0-3.1,8.2-7.9,8.2c-2.7,0-4.8-2.4-4.8-5.4c0-4.3,4.8-9.3,4.8-13.4c0-1.7-1.5-2.6-2.8-2.6
		c-3.2,0-6.5,7-10.1,7c-1.7,0-2.4-2.2-2.4-3.4c0-3.9,3.1-10.3,3.1-13.8c0-2.8-1.3-4.2-3-4.2c-3.2,0-4.2,3-7.2,3
		c-1.1,0-1.8-1.2-1.8-2.1c0-7.8,0.4-12.6-3.3-12.6c-4.8,0-7,7.2-7,14.4c0,7.3,0.6,12.9,0.6,19.5c0,10.2-2.5,18.7-4.6,20.5
		c0,0-0.5,5.9,1.8,5.9c4.7,0,12.4-13.2,21.9-13.2c4.3,0,4.6,2.6,4.6,3.7c0,3.5-4.9,5.2-4.9,7.4c0,1.1,1.7,1.2,3.8,1.2
		c6.3,0,10.8-3.9,10.8-3.9s-4.5,5.3-11.5,5.3c-3.1,0-5.5-1-5.5-2.8c0-2.9,5.8-5.2,5.8-8.1c0-0.9-1-2.1-3.2-2.1
		c-7.8,0-16,14.7-22.4,14.7c-1.3,0-3.1-0.9-3.1-4.2c0-2.9-0.2-14.6-3.8-14.6c-4.3,0-2.2,20.6-10.1,20.6c-8.3,0-3.4-22.2-10.2-22.2
		c-4.2,0-3.5,6-4.2,11.4c-0.5,4.4-1.8,8.5-4.5,8.5c-3.6,0-6.1-1.7-9.2-3.5c-1.9-1.2-4-2.4-5.7-3.7c-2.8-2.1-4.3-4.2-7.1-4.2
		c-1.5,0-3.1,0.8-3.1,2.3c0,2.9,3.1,4.1,3.1,6.6c0,1.4-2.1,2.6-4.5,2.6c-7.3,0-11.6-4.8-11.6-6.7c0,0,3.6,5.1,11.9,5.1
		c1.8,0,2.5-0.4,2.5-1.3c0-1.6-2.5-3.1-2.5-6.3c0-2,1.6-3.7,3.8-3.7c2.9,0,4.9,2.1,7.8,4.3c4.3,3.1,9.9,6.7,14.2,6.7
		c1.6,0,2.7-0.7,2.7-2.4c0-1.6-4.9-6.1-4.9-15.2c0-10.4,1.3-16.3,1.3-25.9c0-10-2.4-12.4-4.6-14.7c-1.6-1.8-2.5-2.6-3.8-2.6
		c-2.3,0-3,2.5-3,4.2c0,1.1,0.3,1.1,0.3,3.1c0,3.6-0.8,6.5-3.2,6.5c-2.7,0-1.3-2.8-5.5-2.8c-2,0-2.8,1.4-2.8,3c0,6.9,3,11.8,3,14.9
		c0,1.6-0.9,3.7-2.5,3.7c-4.1,0-3.4-3.7-8.2-3.7c-2,0-2.6,1.2-2.6,2.9c0,3.4,2.7,6,2.7,10.9c0,2.2-0.7,3.8-2.5,3.8
		c-6.2,0-5.4-8.1-9.5-8.1c-2.1,0-3,2.7-3,8.3c0,14.8,14.5,19.6,23.2,19.6c3.7,0,4.1-0.6,8.4-0.6c20.2,0,18.6,12.4,18.6,12.4
		s-2.6-5.8-10.6-5.8c-7.8,0-6.9,2.9-10.7,4c7.8,1.7,8.5,11.8,14.8,11.8c2.8,0,4.2-2.1,4.2-2.1s-1.8,4.5-1.8,11.3
		c0,4.7,1.4,5.3,2.6,7.1c2.7,3.9,6.4,7.4,6.4,13c0.9,0,1.6-4.1,2.1-4.1c0.3,0,0.6,0.6,0.6,1.6c0,2.1-2.3,5.9-2.3,12.6
		c0,4,2.5,5.3,4.4,6.2c0.5,0,3.1-5.5,3.1-5.5c-1.6,4.3-1.1,6.7-1.1,7c0,1.1,1.1,1.4,2.5,1.9c0.8,0.3,1.2,0.7,2.6,0.7
		c3.3,0,3.9-3,3.9-4.1c0-1.2-1.2-3.4-1.2-4.7c0,0,0-0.8,0.1-0.8c0.4,0,2.2,4.6,2.2,4.6c1.6-0.7,4.2-1.7,4.2-5.4
		c0-4.4-2.6-10.3-2.6-13c0-0.6,0.2-1,0.4-1c0.5,0,1.4,2.4,1.4,2.4c1.1-6.7,8.2-7.3,8.2-19.7c0-7.9-1.2-10.4-1.2-10.4
		s2.1,1.8,4.3,1.8c7.6,0,5.8-7.5,11.7-10.1c0-0.7-3.2-3.4-8.8-3.4c-7,0-9.3,3.8-9.3,3.8c0-11,7.7-11.7,15.5-11.7
		c4.2,0,6,0.6,9.5,0.6c12.8,0,15.9-3.8,19.6-8.2c3.3-3.9,4.9-7.3,4.9-12.3C189.4,113,188.7,109.5,187,109.5L187,109.5z"/>
	<path class="st0" d="M131.7,166.8l-0.3,0.6c0,0,0.6,0.4,1.9,0.4c2.6,0,3.8-2.1,3.5-2.4c-0.3-0.3-1.4,1.6-3.4,1.6
		C132.2,167.1,131.7,166.8,131.7,166.8L131.7,166.8z"/>
	<path class="st0" d="M134.6,166c0,0.2-0.3,0.4-0.6,0.4c-0.3,0-0.6-0.2-0.6-0.4s0.3-0.4,0.6-0.4C134.3,165.7,134.6,165.8,134.6,166
		L134.6,166z"/>
	<path class="st0" d="M114.4,165.1c0.3,0.2,0.8,1.6,2.3,1.6c1,0,1.2-0.4,1.5-0.6c0.3-0.2,0.7,0.2,0.5,0.5c-0.2,0.3-0.6,0.7-1.9,0.7
		c-1.7,0-2.7-1.4-2.9-1.8C113.6,164.9,113.8,164.7,114.4,165.1L114.4,165.1z"/>
	<path class="st0" d="M116.9,165.5c0,0.2-0.2,0.3-0.5,0.3c-0.3,0-0.5-0.2-0.5-0.3c0-0.2,0.2-0.3,0.5-0.3
		C116.7,165.1,116.9,165.3,116.9,165.5L116.9,165.5z"/>
</g>
</svg>
