<?xml version="1.0" encoding="utf-8"?>
<!-- Generator: Adobe Illustrator 19.1.0, SVG Export Plug-In . SVG Version: 6.00 Build 0)  -->
<svg version="1.1" id="Layer_1" xmlns="http://www.w3.org/2000/svg" xmlns:xlink="http://www.w3.org/1999/xlink" x="0px" y="0px"
	 viewBox="0 0 250 250" style="enable-background:new 0 0 250 250;" xml:space="preserve">
<style type="text/css">
	.st0{fill:#FFFFFF;}
	.st1{fill-rule:evenodd;clip-rule:evenodd;fill:#002E6E;}
	.st2{fill-rule:evenodd;clip-rule:evenodd;fill:#FFFFFF;}
	.st3{clip-path:url(#SVGID_3_);}
	.st4{fill-rule:evenodd;clip-rule:evenodd;fill:#825E2F;}
	.st5{fill-rule:evenodd;clip-rule:evenodd;fill:#3B170B;}
	.st6{fill-rule:evenodd;clip-rule:evenodd;fill:#00A663;}
	.st7{fill-rule:evenodd;clip-rule:evenodd;fill:#AA393A;}
	.st8{fill-rule:evenodd;clip-rule:evenodd;fill:#7A593A;}
</style>
<g>
	<path class="st0" d="M192.2,6.9c17.8,2.1,29,4.2,29.3,4.2h0l1.9,0.4l2,0.4v2.1v20.3v97.7h0c0,0.8,0,10.7-3.6,24.6
		c-1.9,7.3-4.7,15.6-8.9,24.3c-3.7,7.5-8,14.5-13.1,21c-5.1,6.5-10.8,12.4-17.1,17.8h0c-7.9,6.7-16.8,12.4-26.6,17.2
		c-9.8,4.7-20.4,8.6-32,11.4l0,0l-0.5,0.1l-0.2,0l-0.4,0.1l-0.5,0.1l-0.5-0.1l-0.3-0.1h0l-0.5-0.1l0,0c-11.5-2.8-22.2-6.6-32-11.4
		c-9.8-4.8-18.7-10.5-26.6-17.2h0c-6.3-5.3-12-11.3-17.1-17.8c-5.1-6.5-9.4-13.5-13.1-21l0,0c-4.3-8.7-7.1-17-8.9-24.2
		c-3.6-14-3.6-23.9-3.6-24.6h0v-118v-2.1l2-0.4l1.9-0.4h0l0,0c0.9-0.2,44.9-8.4,98.9-8.4C149.7,2.7,174.3,4.8,192.2,6.9L192.2,6.9z"
		/>
	<path class="st1" d="M221,13.5c-0.4-0.1-44.3-8.4-98.4-8.4c-54.1,0-98,8.3-98.4,8.4l-1.9,0.4v118c0,0.9,0,22.7,12.3,47.8
		c7.2,14.7,17.2,27.5,29.6,38c15.5,13,34.9,22.5,57.6,28l0.5,0.1l0.3,0.1l0.4-0.1l0.5-0.1c22.7-5.6,42.1-15,57.6-28
		c12.4-10.5,22.4-23.2,29.6-38c12.3-25.1,12.3-46.9,12.3-47.8c0,0,0-97.7,0-97.7V13.9L221,13.5L221,13.5z"/>
	<path class="st2" d="M178,214c-0.3,0.3-0.6,0.5-0.9,0.8l0-128.7h-22.7v143.4c-6.2,3.1-12.9,5.9-19.9,8.2V86.1h-24.4v151.3
		c-7.3-2.4-14.1-5.3-20.5-8.6V86.1H66.7v127.6c-7.7-6.5-14.3-14-19.9-22.3V86.1H26.9V17.8c9-1.6,48.5-7.9,95.6-7.9
		c47.1,0,86.6,6.4,95.6,7.9v68.3h-20.6v106.5C192,200.6,185.4,207.8,178,214L178,214z"/>
	<path class="st1" d="M47,41.3h5.5L68,76.6h-7.3l-3.3-8.1H41.8l-3.2,8.1h-7.1L47,41.3L47,41.3z M55.1,63.2l-5.5-14.4L44,63.2H55.1
		L55.1,63.2z"/>
	<polygon class="st1" points="70.5,41.3 76.8,41.3 76.8,71 92.1,71 92.1,76.6 70.5,76.6 70.5,41.3 	"/>
	<path class="st1" d="M95.2,41.3h14c5.4,0,11,2.4,11,8.9c0,4-2.5,6.6-6.2,7.7V58c4.5,0.5,7.7,4,7.7,8.5c0,7.7-6.8,10.1-13.6,10.1
		H95.2V41.3L95.2,41.3z M101.6,55.7h5.8c4.3,0,6.4-1.8,6.4-4.4c0-3-2.1-4.5-6.9-4.5l-5.3,0V55.7L101.6,55.7z M101.6,71.3h5.9
		c3.3,0,7.8-0.6,7.8-5.2c0-3.7-2.4-5-7.6-5h-6.1V71.3L101.6,71.3z"/>
	<polygon class="st1" points="124.9,76.6 131.3,76.6 131.3,41.3 124.9,41.3 124.9,76.6 	"/>
	<path class="st1" d="M153.6,40.4c11.2-0.2,19.1,7.2,19.1,18.5c0,11-7.9,18.4-19.1,18.6c-11,0-18.9-7.4-18.9-18.4
		C134.6,47.8,142.5,40.4,153.6,40.4L153.6,40.4z M153.6,71.9c7.4,0,12.4-5.6,12.4-13.1c0-7-4.9-12.6-12.4-12.6
		c-7.4,0-12.3,5.6-12.3,12.6C141.3,66.3,146.2,71.9,153.6,71.9L153.6,71.9L153.6,71.9z"/>
	<polygon class="st1" points="176.2,41.3 184.7,41.3 202.1,67.6 202.2,67.7 202.1,67.7 202.2,67.6 202.2,41.3 208.5,41.3 
		208.5,76.6 200.4,76.6 182.7,49.6 182.6,49.6 182.6,76.6 176.2,76.6 176.2,41.3 	"/>
	<polygon class="st1" points="32.1,22.5 34.8,22.5 37.5,32.5 37.5,32.5 40.6,22.5 43.1,22.5 46.2,32.5 46.3,32.5 49,22.5 51.6,22.5 
		47.5,36.3 45.1,36.3 41.8,25.8 41.8,25.8 38.5,36.3 36.2,36.3 32.1,22.5 	"/>
	<polygon class="st1" points="53.7,22.5 63,22.5 63,24.7 56.2,24.7 56.2,28.1 62.6,28.1 62.6,30.3 56.2,30.3 56.2,34.1 63.3,34.1 
		63.3,36.3 53.7,36.3 53.7,22.5 	"/>
	<path class="st1" d="M73.2,25.4c-0.5-0.7-1.5-1.1-2.5-1.1c-1.1,0-2.3,0.5-2.3,1.8c0,2.8,6.7,1.2,6.7,6.1c0,3-2.4,4.4-5.2,4.4
		c-1.7,0-3.5-0.5-4.6-1.9l1.9-1.8c0.6,0.9,1.7,1.5,2.8,1.5c1.2,0,2.5-0.6,2.5-1.9c0-3-6.7-1.3-6.7-6.2c0-2.9,2.6-4.2,5.2-4.2
		c1.5,0,2.9,0.4,4,1.4L73.2,25.4L73.2,25.4z"/>
	<polygon class="st1" points="81.1,24.7 76.8,24.7 76.8,22.5 87.9,22.5 87.9,24.7 83.6,24.7 83.6,36.3 81.1,36.3 81.1,24.7 	"/>
	<path class="st1" d="M96.5,22.5h5.5c2.1,0,4.3,1,4.3,3.5c0,1.6-1,2.6-2.4,3v0c1.8,0.2,3,1.6,3,3.3c0,3-2.7,4-5.3,4h-5.1V22.5
		L96.5,22.5z M99,28.1h2.3c1.7,0,2.5-0.7,2.5-1.7c0-1.2-0.8-1.8-2.7-1.8H99V28.1L99,28.1z M99,34.2h2.3c1.3,0,3.1-0.2,3.1-2
		c0-1.4-1-2-3-2H99V34.2L99,34.2z"/>
	<path class="st1" d="M109.6,22.5h4.9c2.7,0,5.3,0.9,5.3,4c0,2-1.2,3.5-3.3,3.8l3.7,6.1h-3l-3.3-5.9h-1.8v5.9h-2.5V22.5L109.6,22.5z
		 M114.1,28.3c1.4,0,3.1-0.1,3.1-1.9c0-1.6-1.6-1.8-2.8-1.8h-2.2v3.8H114.1L114.1,28.3z"/>
	<path class="st1" d="M128.8,22.1c4.4-0.1,7.5,2.8,7.5,7.3c0,4.3-3.1,7.2-7.5,7.3c-4.3,0-7.4-2.9-7.4-7.2
		C121.4,25,124.5,22.1,128.8,22.1L128.8,22.1z M128.9,34.5c2.9,0,4.9-2.2,4.9-5.2c0-2.8-1.9-4.9-4.9-4.9c-2.9,0-4.8,2.2-4.8,4.9
		C124,32.3,126,34.5,128.9,34.5L128.9,34.5L128.9,34.5z"/>
	<polygon class="st1" points="138.7,22.5 142.5,22.5 146.3,32.2 150.1,22.5 153.9,22.5 153.9,36.3 151.5,36.3 151.5,24.8 
		151.4,24.8 147.2,36.3 145.4,36.3 141.1,24.8 141.1,24.8 141.1,36.3 138.7,36.3 138.7,22.5 	"/>
	<polygon class="st1" points="156,22.5 158.7,22.5 161.4,32.5 161.4,32.5 164.6,22.5 167.1,22.5 170.2,32.5 170.2,32.5 173,22.5 
		175.5,22.5 171.4,36.3 169,36.3 165.8,25.8 165.7,25.8 162.5,36.3 160.2,36.3 156,22.5 	"/>
	<polygon class="st1" points="177.4,36.3 179.9,36.3 179.9,22.5 177.4,22.5 177.4,36.3 	"/>
	<path class="st1" d="M192.7,25.7c-1-1.1-2-1.4-3-1.4c-2.9,0-4.8,2.2-4.8,4.9c0,3,1.9,5.2,4.8,5.2c1.1,0,2.2-0.5,3.2-1.7l2.1,1.4
		c-1.3,1.7-3.2,2.5-5.3,2.5c-4.3,0-7.4-2.9-7.4-7.2c0-4.4,3.1-7.3,7.4-7.3c1.9,0,3.5,0.6,4.9,2.2L192.7,25.7L192.7,25.7z"/>
	<polygon class="st1" points="197.2,22.5 199.7,22.5 199.7,28 206.3,28 206.3,22.5 208.8,22.5 208.8,36.3 206.3,36.3 206.3,30.2 
		199.7,30.2 199.7,36.3 197.2,36.3 197.2,22.5 	"/>
	<path class="st2" d="M164.2,204l-0.1-0.4c-0.3-1.1-1.3-4.2-2.9-6.2c4.2-0.6,9.4-2.2,11.7-5.7l0.6-0.9l-0.6-0.8
		c-2.7-3.5-8-4.9-12.2-5.4c1.6-2.1,2.2-4.7,2.3-5.1l0.5-2.1c0,0-1.2,0.3-2.3,0.3c-0.2,0-0.8,0-1.3,0c-1.9-0.3-4.5,0-5,0
		c-1.7,0.2-3.2,0.6-4.5,1.1c0.5-1.6,0.8-3.2,0.8-4.4c0-0.2,0-0.4,0-0.5c-0.1-1.3-1.5-5.7-1.7-6.4l-0.5-0.9c1.5,0,3.9,0.1,6.9,0.8
		c0.7,0.2,10.2,3.1,20.5,8c0.4,0.2,11.1,5.7,19,1.3c0,0,1-0.8,1.4-1.8l-5.9-3c0,0,4,0.5,6.6-0.5c-1-4.3-4.3-5.8-4.3-5.8
		c2.6,0.3,4.3-0.6,4.3-0.6c-0.2-0.7-0.7-1.6-0.7-1.6c-0.2-0.2-2.6-4.6-10.1-7.8c0.1-0.2,0.2-0.5,0.3-0.7c0,0.1,0,0.2,0,0.2
		c0.1-0.2,0.1-0.4,0.1-0.7c0-1.3-1.6-4.8-13.1-10.2l-0.1,0l-0.1,0c-0.3-0.1-7.7-3.4-13.2-4.8c-3.2-2.6-27.3-21.7-57.6-27.9
		c-1.2-1.7-4.6-6.6-6.4-8.5c-0.6-0.8-6.4-8.1-15.3-8c-0.1,0-4.3,0-8.1,1.9c-1,0-1.8-0.4-1.8-0.5C66.6,93.8,63,92,63,92l-0.2-0.1
		l-0.2-0.1c-1.9-0.4-2.7,0.7-2.9,1c-0.7,1.2-0.2,2.2,0,2.6l0,0c0.5,0.9,2.1,3.1,3.6,5c-3.2-0.3-4.9-0.1-5.9,0.1l0,0c0,0-0.1,0-0.1,0
		c0,0,0,0,0,0c-1.1,0.2-1.6,0.9-1.7,1.4c-0.1,0.3-0.2,0.7-0.2,1c0,0.7,0.3,1.2,0.4,1.4l0-0.1c0.2,0.3,0.6,1.2,3.4,2.4
		c2.9,1.3,7.4,4.1,7.8,4.3c2.2,1.5,4.2,7.9,5,11.6l0,0.1c1.9,7.3,3.7,13,4.2,14.6c1.8,6.2,5.8,17.9,17,25.9l-0.1,3.6
		c0,1.1-0.2,4.1-0.3,5c0,0.3-0.1,0.7-0.1,1.2c0,1,0.1,2.4,0.4,3.7c-1.1-0.5-2.4-1-3.9-1.3c-0.1,0-2.7-0.5-4.7-0.3c-0.5,0-1,0-1.2,0
		c-0.9-0.1-2.2-0.8-2.2-0.8l0.2,2.4c0.1,0.4,0.5,3,1.9,5.2c-4,0.3-9,1.4-11.7,4.8l-0.6,0.8l0.5,0.9c2,3.8,6.7,5.5,10.5,6.4
		c-1.6,1.9-2.5,4.3-2.6,4.7l-0.5,1.7c0,0,1.5,0.1,2.3,0.2c0.2,0,0.5,0.1,0.9,0.2c1.9,0.5,4.5,0.5,4.7,0.5c1.7,0,3.4-0.3,4.7-0.7
		c0,0.4-0.1,0.7-0.1,1.1c0,0.9,0.1,1.9,0.2,2.6l0.1,1.2c0,1-0.2,3.9-0.4,4.9l0.1,3.1l1.9-1.7c0.5-0.4,2.5-1.2,4-1.7
		c2.9-0.9,4.9-2.1,6.5-3.4c-0.3,1.4-0.5,2.8-0.5,4.5c0,0.9,0.1,1.9,0.2,2.9c0.2,1.1,0.3,2.4,0.3,3.3c0,0.4,0,0.7-0.1,0.9l-0.3,3.1
		l2.6-1.5c0.9-0.6,3.6-2.4,4.4-2.8c1-0.5,2.5-1.7,3.9-3.1c0.2,1.2,0.5,2.5,1.2,3.9c0,0.1,1.2,2.5,2.4,3.9c0.3,0.4,0.6,0.8,0.6,0.9
		c0.5,0.9,0.9,2.1,0.9,2.1l1.5-1.4c0.3-0.3,2.3-2.2,3.4-4.6c2.5,3,6.4,6.5,10.8,6.7l0.9,0l0.4-0.9c0.8-1.4,1.1-3.1,1.1-4.7
		c0-2.6-0.8-5.3-1.7-7.5c2.5,0.2,5.1-0.4,5.5-0.5l2.5-0.7c0,0,0.6,0.1,0.5,0c0.8,0.4,0.8,0.4,1.7,0.7c1.3,0.4,3.5,1.3,4.1,1.8
		l2.4,1.5l0-2.8c-0.1-1-0.3-3.6-0.3-4.8c0-0.1,0-0.2,0-0.2c0-0.1,0-0.1,0-0.2c0-1.1-0.3-2.9-1-4.7c1.3,0.4,2.8,0.8,4.5,0.8
		c0.1,0,3,0.1,5-0.2c0.5-0.1,0.7-0.1,0.9-0.1C161.6,204.1,163.1,203.9,164.2,204L164.2,204z M111.2,183.8c-1-3.9-3-11.1-12-15.9l0,0
		l0,0c-1.4-0.6-3.1-1.6-3.5-2.1l-1.9-2.2c5.4,3.7,12.3,6.6,21.4,7.7c1.2,0.2,4.9,0.9,8.1,1.3c-2.3,2.2-5.9,5.9-8.9,10.3l-0.7,1
		c-0.8,0.1-1.6,0.4-2.2,0.8C111.3,184.4,111.2,184.1,111.2,183.8L111.2,183.8L111.2,183.8z M120.6,189.4c-0.1-1.2-0.6-2.3-1.3-3.2
		c0.6-0.5,3.2-2.9,5.9-5.3c-0.9,2.7-2,5.6-2.7,7.1l-0.6,1.2C121.4,189.4,121,189.4,120.6,189.4L120.6,189.4L120.6,189.4z
		 M146.8,167.5c-0.9,1.4-2.3,2.2-2.4,2.2c-3.1,1.3-5.5,2.9-7.4,4.6c0.7-1.1,1.4-2.1,2.1-2.9c0,0,1.2-1.3,1.5-1.5
		c0.9-0.9,3.6-3.2,5.9-3.3l0.1,0l0.1,0c0,0,0.3,0,0.8-0.1L146.8,167.5L146.8,167.5z"/>
	<path class="st2" d="M74.9,110.9c10.8,3.8,1.7-2.7,1.7-2.6C80.3,111.3,74.9,110.9,74.9,110.9L74.9,110.9z"/>
	<path class="st2" d="M79.5,107.6c0,0-0.2-2.3,2.4-2.6c2.5-0.2,4.1,1.5,4.6,2.3c0.5,0.8,1,2.4,1.3,3.4c0,0,0.4,1-0.6,0.6
		c-1-0.5-2.2-1.3-5.2-1.5C79.6,109.7,79.5,107.6,79.5,107.6L79.5,107.6z"/>
	<path class="st2" d="M82.8,107.3c0,0.5-0.3,0.9-0.8,0.9c-0.5,0-0.8-0.4-0.9-0.8c0-0.5,0.3-0.9,0.8-0.9
		C82.3,106.4,82.7,106.8,82.8,107.3L82.8,107.3z"/>
	<path class="st2" d="M144.9,146.3c11.8,1.8,8-3.6,7.9-3.6c6.2,1.5,6.8,4.1,6.9,4.2C152.1,149.9,144.9,146.3,144.9,146.3
		L144.9,146.3z"/>
	<path class="st2" d="M86,123.1c0.5,1.1,0.5,2.1,0,2.2c-0.4,0.2-1.2-0.5-1.6-1.6c-0.4-1.1-0.5-2.1,0-2.2
		C84.8,121.3,85.5,122,86,123.1L86,123.1z"/>
	<path class="st2" d="M90,129.8c0.8,1.1,1.1,2.2,0.6,2.5c-0.4,0.3-1.4-0.4-2.2-1.5c-0.8-1.1-1.1-2.2-0.6-2.5
		C88.2,128,89.2,128.7,90,129.8L90,129.8z"/>
	<path class="st2" d="M95,136.9c1.1,1.4,1.5,2.9,1,3.3c-0.5,0.4-1.8-0.5-2.9-1.9c-1.1-1.5-1.5-2.9-1-3.3
		C92.7,134.6,94,135.4,95,136.9L95,136.9z"/>
	<path class="st2" d="M101.2,144.4c1.1,1.4,1.5,2.9,1,3.3c-0.5,0.4-1.8-0.5-2.9-1.9c-1.1-1.4-1.5-2.9-1-3.3
		C98.8,142.1,100.1,143,101.2,144.4L101.2,144.4z"/>
	<path class="st2" d="M110.5,159.7c1.9,1,3.2,2.3,2.9,3c-0.4,0.7-2.2,0.5-4.2-0.5c-1.9-1-3.2-2.3-2.9-3
		C106.7,158.5,108.5,158.8,110.5,159.7L110.5,159.7z"/>
	<path class="st2" d="M109.3,150.9c1.7,1.3,2.7,2.9,2.2,3.5c-0.5,0.6-2.3,0-4-1.3c-1.7-1.3-2.7-2.9-2.2-3.5
		C105.8,149,107.6,149.6,109.3,150.9L109.3,150.9z"/>
	<path class="st2" d="M119.3,156.3c1.9,1,3.2,2.4,2.8,3.1c-0.4,0.7-2.3,0.4-4.2-0.6c-1.9-1-3.2-2.4-2.8-3.1
		C115.5,155,117.3,155.3,119.3,156.3L119.3,156.3z"/>
	<g>
		<defs>
			<polyline id="SVGID_1_" points="58.2,169.9 58.2,95.5 154.3,95.5 154.3,169.9 58.2,169.9 			"/>
		</defs>
		<defs>
			<path id="SVGID_2_" d="M77.8,135.2c0,0,5.9,34.4,44.3,34.6c9.4,0,8.9-1.1,8.9-1.1l0.7-0.3c0,0,5.6-2.1,5.6-2.4
				c0.1-0.3,3.5-3.9,3.5-3.9l13.4-9.4l-28.5-2.7l-14.4-5.8l-6.6-7.2l-2.9-5.3l-1.6-5.5l-3.5-17.1l-7-7l-6-1.1l-8.5,0.8l-2.9-1.7
				l-9.5-4.7l6.4,8.2l-11-0.6l10.4,5.9l3.2,4.3L77.8,135.2L77.8,135.2z"/>
		</defs>
		<clipPath id="SVGID_3_">
			<use xlink:href="#SVGID_1_"  style="overflow:visible;"/>
		</clipPath>
		<clipPath id="SVGID_4_" class="st3">
			<use xlink:href="#SVGID_2_"  style="overflow:visible;"/>
		</clipPath>
		<g style="clip-path:url(#SVGID_4_);">
			
				<image style="overflow:visible;" width="42" height="33" xlink:href="20295BBB388E3BEF.jpg"  transform="matrix(2.2878 0 0 -2.2529 58.1675 169.8734)">
			</image>
		</g>
	</g>
	<path class="st4" d="M74.9,110.9c10.8,3.8,1.7-2.7,1.7-2.6C80.3,111.3,74.9,110.9,74.9,110.9L74.9,110.9z"/>
	<path class="st5" d="M79.5,107.6c0,0-0.2-2.3,2.4-2.6c2.5-0.2,4.1,1.5,4.6,2.3c0.5,0.8,1,2.4,1.3,3.4c0,0,0.4,1-0.6,0.6
		c-1-0.5-2.2-1.3-5.2-1.5C79.6,109.7,79.5,107.6,79.5,107.6L79.5,107.6z"/>
	<path class="st2" d="M82.8,107.3c0,0.5-0.3,0.9-0.8,0.9c-0.5,0-0.8-0.4-0.9-0.8c0-0.5,0.3-0.9,0.8-0.9
		C82.3,106.4,82.7,106.8,82.8,107.3L82.8,107.3z"/>
	<path class="st5" d="M83.6,129.7c0.6,1.3,0.6,2.6,0,2.8c-0.5,0.2-1.4-0.7-2-2c-0.6-1.3-0.6-2.6,0-2.8
		C82.2,127.5,83.1,128.4,83.6,129.7L83.6,129.7z"/>
	<path class="st5" d="M86,123.1c0.5,1.1,0.5,2.1,0,2.2c-0.4,0.2-1.2-0.5-1.6-1.6c-0.4-1.1-0.5-2.1,0-2.2
		C84.8,121.3,85.5,122,86,123.1L86,123.1z"/>
	<path class="st5" d="M90,129.8c0.8,1.1,1.1,2.2,0.6,2.5c-0.4,0.3-1.4-0.4-2.2-1.5c-0.8-1.1-1.1-2.2-0.6-2.5
		C88.2,128,89.2,128.7,90,129.8L90,129.8z"/>
	<path class="st5" d="M87.7,138.3c0.9,1.6,1.1,3.1,0.6,3.4c-0.6,0.3-1.8-0.7-2.6-2.3c-0.9-1.6-1.1-3.1-0.6-3.4
		C85.6,135.8,86.8,136.8,87.7,138.3L87.7,138.3z"/>
	<path class="st5" d="M95,136.9c1.1,1.4,1.5,2.9,1,3.3c-0.5,0.4-1.8-0.5-2.9-1.9c-1.1-1.5-1.5-2.9-1-3.3
		C92.7,134.6,94,135.4,95,136.9L95,136.9z"/>
	<path class="st5" d="M101.2,144.4c1.1,1.4,1.5,2.9,1,3.3c-0.5,0.4-1.8-0.5-2.9-1.9c-1.1-1.4-1.5-2.9-1-3.3
		C98.8,142.1,100.1,143,101.2,144.4L101.2,144.4z"/>
	<path class="st5" d="M86,148.2c1,1.7,1.5,3.3,1,3.5c-0.5,0.3-1.6-0.9-2.6-2.6c-1-1.7-1.5-3.3-1-3.5C83.8,145.4,85,146.5,86,148.2
		L86,148.2z"/>
	<path class="st5" d="M92.6,156.5c1.4,1.4,2.2,2.8,1.8,3.2c-0.4,0.4-1.9-0.4-3.3-1.7c-1.4-1.4-2.2-2.8-1.8-3.2
		C89.7,154.3,91.2,155.1,92.6,156.5L92.6,156.5z"/>
	<path class="st5" d="M101.2,162.7c1.8,0.9,3,2,2.7,2.6c-0.3,0.5-1.9,0.2-3.7-0.7c-1.8-0.9-3-2-2.7-2.6
		C97.8,161.4,99.4,161.8,101.2,162.7L101.2,162.7z"/>
	<path class="st5" d="M110.5,159.7c1.9,1,3.2,2.3,2.9,3c-0.4,0.7-2.2,0.5-4.2-0.5c-1.9-1-3.2-2.3-2.9-3
		C106.7,158.5,108.5,158.8,110.5,159.7L110.5,159.7z"/>
	<path class="st5" d="M93.1,146.6c1.4,1.6,2.1,3.4,1.5,3.9c-0.6,0.5-2.2-0.4-3.7-2.1c-1.4-1.6-2.1-3.4-1.5-3.9
		C90,144,91.7,145,93.1,146.6L93.1,146.6z"/>
	<path class="st5" d="M100.8,154.4c1.7,1.4,2.6,3,2.1,3.6c-0.5,0.6-2.3,0-4-1.4c-1.7-1.4-2.7-3-2.1-3.6
		C97.3,152.4,99.1,153,100.8,154.4L100.8,154.4z"/>
	<path class="st5" d="M109.3,150.9c1.7,1.3,2.7,2.9,2.2,3.5c-0.5,0.6-2.3,0-4-1.3c-1.7-1.3-2.7-2.9-2.2-3.5
		C105.8,149,107.6,149.6,109.3,150.9L109.3,150.9z"/>
	<path class="st5" d="M119.3,156.3c1.9,1,3.2,2.4,2.8,3.1c-0.4,0.7-2.3,0.4-4.2-0.6c-1.9-1-3.2-2.4-2.8-3.1
		C115.5,155,117.3,155.3,119.3,156.3L119.3,156.3z"/>
	<path class="st5" d="M121,162.9c1.9,0.4,3.3,1.2,3.2,1.8c-0.1,0.6-1.8,0.9-3.7,0.5c-1.9-0.4-3.3-1.2-3.2-1.8
		C117.5,162.8,119.1,162.6,121,162.9L121,162.9z"/>
	<path class="st5" d="M111.7,166.1c1.9,0.3,3.4,1,3.3,1.6c-0.1,0.6-1.7,0.9-3.6,0.6c-1.9-0.3-3.4-1-3.3-1.6
		C108.2,166.1,109.8,165.9,111.7,166.1L111.7,166.1z"/>
	<path class="st5" d="M129.6,161.2c1.7,0.3,3,1,2.9,1.5c-0.1,0.5-1.6,0.6-3.2,0.3c-1.7-0.3-3-1-2.9-1.5
		C126.5,161,127.9,160.8,129.6,161.2L129.6,161.2z"/>
	<path class="st5" d="M81.7,139.1c0.6,1.5,0.7,2.8,0.3,3c-0.4,0.2-1.2-0.9-1.8-2.4c-0.6-1.5-0.7-2.8-0.3-3
		C80.3,136.6,81.1,137.7,81.7,139.1L81.7,139.1z"/>
	<path class="st6" d="M154.8,185.6c0.6-0.7,3.2-0.6,3.2-0.6c2.5-1.7,3.5-6,3.5-6c-0.3,0.1-1.8,0-1.8,0c-1.9-0.3-4.7,0-4.7,0
		c-5.6,0.6-8.8,4.1-8.8,4.1c0.4-1.5,1.8-2.5,1.8-2.5c1.3-2.2,1.6-5.4,1.6-6.7c0-1.8-1.5-5.7-1.5-5.7c-1.2,1.8-3,2.8-3,2.8
		c-8.9,3.7-11.4,9.6-13.1,14.2c-0.6,1.6-1.2,2.7-1.8,3.4c1.5,0.1,3.2,0.5,4.9,1c7.2-0.5,18.4-0.7,29.7,1.3c0,0-14.6-0.9-26.3,0.1
		c1.1,0.6,2.3,1.3,3.4,2.1l0.1,0.1l0.1,0.1c0.9,0.8,2.4,1.7,3,2.1l2.8,1.5l-2.6,1.5c-0.9,0.4-3.3,1.7-4.2,2.2
		c-0.9,0.6-2.7,1.2-4.6,1.7c0.9,0.8,1.9,1.7,2.7,2.9c0.1,0.1,1.4,2,2.1,3.7c1.5,0.9,3.2,1.7,5.1,2.5c0,0,3.5,1.1,4.6,2.1
		c0,0-0.4-3.9-0.3-5.2c0.1-1.3-0.7-4.5-2.1-6.6c0,0-1.4-0.8-1.9-2.4c0,0,3.5,3.3,9.1,3.6c0,0,2.9,0.1,4.7-0.2c0,0,1.4-0.2,1.8-0.1
		c0,0-1.3-4.2-3.9-5.8c0,0-2.4,0.1-3.1-0.5c0,0,12.5,0.3,16.4-5.5h0C167.5,185.3,154.8,185.6,154.8,185.6L154.8,185.6z"/>
	<path class="st6" d="M138,206.3c-2.9-4.2-7.5-5.2-7.5-5.2c1.6-0.4,3,0.3,3,0.3c2.5,0,5.7-1.1,6.8-1.8c1.1-0.7,4.6-2.4,4.6-2.4
		c-1.3-0.4-3.9-2.6-3.9-2.6c-7.2-5.4-13.6-4.7-18.6-3.9c-0.7,0.1-1.3,0.2-1.9,0.2c-0.2,1.3-0.8,2.5-1.7,3.4
		c-0.3,0.3-0.7,0.6-1.1,0.9c3.9,10.1,14.4,24.2,14.4,24.2c-7.8-8.2-13.2-17.6-16.1-23.5c-0.3,0.1-0.6,0.1-0.8,0.2
		c0.4,0.8,0.7,1.8,0.7,2.7c0,3.4-2.8,6.2-6.2,6.2c-1.2,0-2.3-0.4-3.3-0.9c-1.2,2.8-1.9,6.2-1.4,10.6c0,0,0.5,3.5,0.1,4.8
		c0,0,3.5-2.3,4.6-2.9c1.2-0.6,3.8-2.7,5.1-4.8c0,0,0.2-1.6,1.3-2.7c0,0-1.5,4.3,0.7,8.9c0,0,1.1,2.4,2.2,3.7c0,0,0.8,1.1,0.9,1.4
		c0,0,3.2-3,3.5-5.8c0,0-1.3-2-1-2.8c0,0,5.8,10,12.7,10.4l0,0c3.2-6-3.1-15.5-3.1-15.5c0.9,0.2,2,2.1,2,2.1c2.6,1.2,6.9,0,6.9,0
		c-0.3-0.2-0.8-1.4-0.8-1.4C139.5,208.4,138,206.3,138,206.3L138,206.3z"/>
	<path class="st6" d="M103.4,198.8c0-1,0.3-1.9,0.8-2.8c-3.2-0.3-5.7-2.9-5.7-6.1c0-0.3,0-0.5,0.1-0.7c-9.6-1-19.6-0.9-19.6-0.9
		c7.1-1,14.1-0.9,19.9-0.5c0.9-2.4,3.1-4,5.8-4c2,0,3.7,1,4.9,2.5c0.2-0.2,0.4-0.4,0.6-0.6c-0.2-0.4-0.3-0.9-0.4-1.4
		c-1.3-4.8-3.3-10.7-11.3-14.9c0,0-3.1-1.4-4-2.5c0,0-0.2,3.9-0.3,5.2c-0.2,1.3,0.1,4.6,1.1,6.8c0,0,1.2,1,1.5,2.6
		c0,0-2.8-3.7-7.9-4.5c0,0-2.6-0.5-4.4-0.3c0,0-1.4,0-1.7-0.1c0,0,0.7,4.3,2.9,6.1c0,0,2.4,0.1,2.9,0.8c0,0-11.7-1-15.9,4.3h0
		c3.2,6,14.8,6.4,14.8,6.4c-0.7,0.6-2.9,0.4-2.9,0.4c-2.5,1.4-3.9,5.5-3.9,5.5c0.3-0.1,1.6,0.2,1.6,0.2c1.7,0.5,4.3,0.5,4.3,0.5
		c5.2,0.1,8.6-3.1,8.6-3.1c-0.6,1.5-1.9,2.3-1.9,2.3c-1.4,2-0.1,5.7-0.2,7.2c0,0.5,0,1.2-0.9,4.4c1.1-0.9,4.5-1.9,4.5-1.9
		c4.6-1.5,7-3.6,8.6-6C104.2,202.2,103.4,200.6,103.4,198.8L103.4,198.8z"/>
	<path class="st7" d="M99.6,189.9c0,2.8,2.3,5,5.1,5l0.2,0l1.5-0.2l-0.8,1.1c-0.7,0.9-1,1.9-1,3c0,2.8,2.3,5.1,5,5.1
		c2.8,0,5.1-2.3,5.1-5.1c0-1-0.3-2-0.9-2.9l-0.7-1l1.4,0.1c2.8,0,5.1-2.3,5.1-5c0-2.8-2.3-5.1-5-5.1c-1.8,0-3.4,0.9-4.3,2.5
		l-0.5,0.9l-0.5-0.9c-0.9-1.6-2.6-2.6-4.4-2.6C101.9,184.8,99.6,187.1,99.6,189.9L99.6,189.9z"/>
	<path class="st2" d="M103.4,188.3c-0.6,0.8-1.5,1.3-1.9,1c-0.4-0.3-0.3-1.3,0.4-2.1c0.6-0.9,1.5-1.3,1.9-1
		C104.2,186.5,104.1,187.5,103.4,188.3L103.4,188.3z"/>
	<path class="st2" d="M113,188.5c-0.6,0.9-1.5,1.3-1.9,1c-0.4-0.3-0.3-1.3,0.4-2.1c0.6-0.9,1.5-1.3,1.9-1
		C113.8,186.7,113.7,187.7,113,188.5L113,188.5z"/>
	<path class="st2" d="M108.4,197c-0.6,0.9-1.5,1.3-1.9,1c-0.4-0.3-0.3-1.3,0.4-2.1c0.6-0.8,1.5-1.3,1.9-1
		C109.2,195.2,109,196.2,108.4,197L108.4,197z"/>
	<path class="st8" d="M196.1,171c0,0-0.8-4.3-8.2-7.1c0,0,3.9,1.2,8.3,0.6c0,0-3.4-4.4-11.3-7.5c0,0-10.9-4.2-12.1-4.7
		c0,0,8.3,2.1,10.9,2.6c0,0,1.3,0.4,1.3-0.3c0,0,0.1-2.5-12.1-8.6c0,0-7.8-3.5-13.3-4.7c0,0-25.7-21.6-57.8-28c0,0-4.7-6.8-6.7-8.9
		c0,0-5.5-7.5-13.8-7.3c0,0-4.1,0-7.7,1.8c-1.8,0.2-3.3-0.7-3.3-0.7c-4.6-2.6-8.2-4.4-8.2-4.4c-1.4-0.3-0.7,0.9-0.7,0.9
		c0.8,1.5,6.1,8.2,6.1,8.2c-8.3-1-9.8-0.4-9.8-0.4c-0.9,0.2-0.4,1-0.4,1c0.3,0.6,2.5,1.6,2.5,1.6c3.1,1.4,8.1,4.5,8.1,4.5
		c3.6,2.5,5.8,12.7,5.8,12.7c2.1,8.2,4.4,14.3,4.4,14.3c0.4,0.6-0.2-2.3-0.2-2.3c-0.2-0.7-0.8-3-0.8-3c-0.9-4-2.1-9.4-2.1-9.4
		c-1.7-9.5-5-12.6-5-12.6c-1.3-1.6-9.9-5.7-9.9-5.7c2.4-0.3,11.7,1.4,11.7,1.4l-7-8.1l4.7,2.7c1.3,0.8,2.6,1.2,2.6,1.2
		c0,0,0.5,0.4,0.9,2.1c0,0,0.2,1.5,2.5,1.5c0,0,2-0.2,4-0.8c0,0,4.3-1,8.5,0.7c0,0,3.9,1.2,5,3.2c0,0,0.6,1-0.6,1.2
		c0,0-2.5,0.4-3.9-0.3l0.1,0.3c0,0,6.5,2,5.7,9c0,0-0.3,3-0.4,4.1c0,0-1.3,6.6,3.6,10.5c0,0-1-2.8,0.7-5.9c0,0,0.3,13.6,14.2,20.5
		c0,0,17.3,9.5,36.1,6.9c0,0-9.9,2.9-20.7,0.9c0,0-4.7-0.8-5.6-1c0,0-5.7-1-8.1-1.1c0,0-0.2,0.2,0.3,0.3c0,0,7.4,2.8,15.5,4.7
		c0,0,5.8,1.6,7.1,2c0,0,2.3,0.5,1.6,2c0,0-4,7.8-23.9,7.8c0,0,4.3,0.8,8.2,1.4c0,0,2.6,0.3,3.6,1.1c0,0-6.2,5.3-10.9,12.1
		c0,0,1.7,0.5,2,1c0,0,7.2-6.7,11.1-9.6c0,0-3.2,10-4.8,13.5c0,0,2.5-0.2,2.8-0.2c0,0,7.9-16.1,12.3-20c0,0,3.6-3.7,7.2-3.8
		c0,0,3.6-0.7,9.8,0.7c0,0,10,3,20.9,8.2c0,0,10.2,5.4,17.3,1.4c0,0-10.5-5.4-12.5-6.4C181.9,168.6,188.2,171.4,196.1,171L196.1,171
		z"/>
	<path class="st2" d="M102.6,126.8c0,0,2.6,2.3,4.5,0.5c0-0.1,0.9,4.9,4.4,8.4C111.4,135.6,105.9,135.3,102.6,126.8L102.6,126.8z"/>
	<path class="st2" d="M133.9,140.2c2,1.3,4.3,4.6,4.4,4.6c-5,0.2-12.3-3.4-12.3-3.4c3.6,2.3,5.5,7.4,5.4,7.4
		c-11.7-0.3-20.9-8.3-20.9-8.3l0.3-0.1c7.8,4.4,12.8,4.4,12.8,4.2c-2-4.7-5.5-8.5-5.5-8.5c11.3,4.5,15.2,1.9,15.2,1.8
		c0.8-2.3-0.8-5.3-0.8-5.3c2,3.4,13.4,7.2,13.6,7.2C139.9,141.5,133.9,140.1,133.9,140.2L133.9,140.2z"/>
	<path class="st2" d="M144.9,146.3c11.8,1.8,8-3.6,7.9-3.6c6.2,1.5,6.8,4.1,6.9,4.2C152.1,149.9,144.9,146.3,144.9,146.3
		L144.9,146.3z"/>
</g>
</svg>
