<?xml version="1.0" encoding="utf-8"?>
<!-- Generator: Adobe Illustrator 19.1.0, SVG Export Plug-In . SVG Version: 6.00 Build 0)  -->
<svg version="1.1" id="Layer_1" xmlns="http://www.w3.org/2000/svg" xmlns:xlink="http://www.w3.org/1999/xlink" x="0px" y="0px"
	 viewBox="0 0 250 250" style="enable-background:new 0 0 250 250;" xml:space="preserve">
<style type="text/css">
	.st0{fill-rule:evenodd;clip-rule:evenodd;fill:#2B9FDA;}
	.st1{fill-rule:evenodd;clip-rule:evenodd;fill:#6D2F49;}
	.st2{fill-rule:evenodd;clip-rule:evenodd;fill:#FFFFFF;}
	.st3{fill-rule:evenodd;clip-rule:evenodd;fill:#F5C259;}
</style>
<g>
	<path class="st0" d="M135.9,195.2c25.4-3.6,40.1-12.2,52.5-20.2l-5.5-6.9c-1.4,0.9-3.3,2.1-4.8,2.9L135.9,195.2L135.9,195.2z
		 M211.1,8.9H37.8l0,113.4l-8.9,26l-25.2-12l1,5.3c0.2,1,3.2,22.2,17.4,38l-9.8,12.1l-1.3,1.7l1.4,1.6c0.4,0.5,11.5,12.8,29.9,24
		c16.9,10.3,44.8,22.5,82,22.5c38.6,0,64.5-12.1,81.7-22.3c18.7-11.1,29.6-23.9,30-24.3l1.4-1.7l-11.2-14.1
		c14.3-15.6,17.3-35.3,17.5-36.2l1.3-6.6l-25.2,12l-9-26.8c0.1-1.5,0.1-3.3,0.1-4.8L211.1,8.9L211.1,8.9z M60.4,175
		c12.6,8.5,31,17.9,53,20.4L70,170.5c-1.4-0.8-2.8-1.6-4.1-2.5L60.4,175L60.4,175z"/>
	<path class="st1" d="M176.1,165.8l-51.7,29.6l-51.8-29.6c-18.7-10.5-29.4-28.5-29.4-49.3l0-102.1h162.4l0,102.3
		C205.6,138.3,194.6,155.6,176.1,165.8L176.1,165.8z"/>
	<path class="st1" d="M124.8,201.4c43.2,0,75.4-27.6,84-35.5l21.8,27.4c-7.4,6.8-42.7,42.8-106.1,42.8c-61,0-98.7-35.1-106.1-42.9
		l21.8-27.3c3.6,3.4,11.4,10.1,22.1,16.8c13.8,8.5,35.7,18.7,61.8,18.8H124.8L124.8,201.4z"/>
	<path class="st1" d="M208.8,157.2l-14.4,1.6c6.8-6.8,12.3-16.2,14.6-25.9l7.9,22.9l20.6-9.8c-2.7,9.7-7,19.7-14.5,28.6L208.8,157.2
		L208.8,157.2z"/>
	<path class="st1" d="M203.5,163.2c-2.7,2.1-5.5,5-10.7,8.7l-5.5-6.9L203.5,163.2L203.5,163.2z"/>
	<path class="st1" d="M61.5,164.9l-5.5,6.9c-4.7-3.4-8.3-6.5-10.7-8.7L61.5,164.9L61.5,164.9z"/>
	<path class="st1" d="M25.6,175.1c-8.6-10-12.1-22-14.1-29.1l17.8,8.5l2.8,1.3l1-2.9l6.9-20.1c2.5,9.3,7.6,18.6,14.6,25.9L40,157.2
		L25.6,175.1L25.6,175.1z"/>
	<path class="st2" d="M45,178.8l-6,11.5c3.2-3,9.4-8.8,9.4-8.8l3.1,2.3l-5.6,11.9l0,0l9.3-9.3l3.6,2.3l-16.9,15.7l-3.2-2.3
		c2.4-4.6,6.8-13.6,6.8-13.6c-3.5,3.4-7.2,6.5-11.4,10.2l-3.1-2.5l10.8-20.4L45,178.8L45,178.8z"/>
	<polygon class="st2" points="60.2,189.7 67.6,193.9 65.5,197.5 61.7,195.4 59.3,199.5 62.5,201.4 60.3,205.1 57.1,203.2 
		54.6,207.5 58.5,209.8 56.4,213.3 48.8,209 60.2,189.7 	"/>
	<path class="st2" d="M62.1,209.9c0.3,1,1,1.9,1.9,2.3c1.3,0.6,2.7,0.1,3.2-0.9c1.4-3-3.2-6.5-1-11.3c1.5-3.3,4.7-4.8,7.7-3.4
		c0.9,0.4,2,1.3,2.7,2.3l-1.9,4.1c-0.5-0.9-1.3-1.8-2-2.1c-0.9-0.4-1.8-0.4-2.5,0.9c-1.1,2.4,3.6,5.9,1,11.4
		c-1.8,3.9-5.1,4.8-8.5,3.2c-1.2-0.6-2-1.2-2.7-2.4L62.1,209.9L62.1,209.9z"/>
	<polygon class="st2" points="83.7,205.2 77.5,222.4 73.5,221 79.7,203.7 77.1,202.8 78.5,198.9 87.7,202.2 86.3,206.1 83.7,205.2 	
		"/>
	<polygon class="st2" points="102.3,228.4 98.2,227.7 99.8,218.7 96.1,218 94.2,227 90.1,226.1 94.7,204.1 98.7,205 96.9,214.2 
		100.5,214.8 102.3,205.7 106.4,206.4 102.3,228.4 	"/>
	<path class="st2" d="M116.2,207.4l2.4,22.5l-4-0.2l-0.5-4.3l-4.2-0.3l-1.1,4.1l-4-0.4l7.3-21.7L116.2,207.4L116.2,207.4z
		 M113.8,222l-0.6-7.5l-2.2,7.3L113.8,222L113.8,222z"/>
	<polygon class="st2" points="126.8,207.7 129.6,220.7 129.6,220.7 131.3,207.5 135.8,207.2 139.1,229.4 135.1,229.7 133.2,216.2 
		133.2,216.2 131.4,230 128.5,230.1 125.6,216.5 125.6,216.5 124.9,230.1 120.8,230 122.3,207.7 126.8,207.7 	"/>
	<path class="st2" d="M149.1,205.2l3.3,15.8c0.3,1.5,1.1,2,1.9,1.8c0.8-0.2,1.4-0.9,1-2.4l-3.3-15.9l4.1-0.9l3.3,16.3
		c0.7,3.4-0.4,6.4-4.3,7.2c-4,0.8-6.1-1.5-6.8-4.9L145,206L149.1,205.2L149.1,205.2z"/>
	<polygon class="st2" points="162,201.8 170.7,212.6 170.7,212.5 166.6,200.3 170.3,198.9 177.5,220.1 174.1,221.4 165.4,210.9 
		165.3,211 169,223.2 165.3,224.3 158.6,203 162,201.8 	"/>
	<polygon class="st2" points="181.7,218.4 172.5,198 176.4,196.3 185.6,216.8 181.7,218.4 	"/>
	<polygon class="st2" points="186.3,195.7 195,211.9 191.3,213.9 182.5,197.8 180.1,199 178.2,195.4 186.8,190.8 188.9,194.4 
		186.3,195.7 	"/>
	<polygon class="st2" points="188.6,189.7 195.6,185.2 197.9,188.6 194.4,191 196.9,194.9 199.9,192.9 202.2,196.4 199.1,198.4 
		202.1,202.7 205.7,200.3 208.1,203.8 200.5,208.7 188.6,189.7 	"/>
	<path class="st2" d="M197.4,183.8l3.4-2.5c4.5-3.3,9-0.9,12.8,4.3c3.8,5.2,4.8,10.6,0.3,13.8l-3.4,2.5L197.4,183.8L197.4,183.8z
		 M211.5,196.2l0.3-0.2c1.8-1.3,0.7-4.4-1.7-7.7c-2.4-3.3-4.7-5.1-6.5-3.8l-0.3,0.2L211.5,196.2L211.5,196.2z"/>
	<path class="st3" d="M83.8,29.8l6.3,7.2l-5.6,6.4l-7,6.3c0,0-9.9,6.4-10.6,6.8c-0.7,0.5-1.3,0.4-1.9,0c-0.5-0.4-0.4-1.4,0.1-2
		l5.4-7.7c1-1.6,0.5-3.3,0.4-4.3c-0.1-1,0.2-1.4,0.7-1.9C72.3,40.1,81.3,32,83.8,29.8L83.8,29.8z"/>
	<polygon class="st3" points="119.3,93.1 81,50 84.7,46.6 122.8,89.4 119.3,93.1 	"/>
	<path class="st3" d="M129.4,96.9l47.2,53c0,0,0,1.2-1.3,2.4c-1.1,1-2.4,1-2.4,1l-46.9-52.6L129.4,96.9L129.4,96.9z"/>
	<path class="st3" d="M158.5,37.1l5.8,6.3l7,6.3c0,0,9.9,6.4,10.6,6.8c0.7,0.5,1.3,0.4,1.9,0c0.5-0.4,0.4-1.4-0.1-2l-5.4-7.7
		c-1-1.6-0.5-3.3-0.4-4.3c0.1-1-0.2-1.4-0.7-1.9c-0.5-0.5-9.7-8.6-12.1-10.8L158.5,37.1L158.5,37.1z"/>
	<path class="st3" d="M75.9,153.3L167.9,50l-3.7-3.4L72.2,149.9c0,0,0,1.2,1.3,2.4C74.6,153.3,75.9,153.3,75.9,153.3L75.9,153.3z"/>
	<path class="st3" d="M94.5,163.3L94.5,163.3c0.1-0.2,11.5-16.6,29.9-16.6c18.6,0,29.5,16.6,29.6,16.8l2.4-1.6
		c-0.5-0.7-11.9-18.1-32-18.1c-19.9,0-31.8,17.1-32.3,17.8L94.5,163.3L94.5,163.3z"/>
	<polygon class="st3" points="66.3,80.9 66.3,72 70.9,72 70.9,75.9 75.1,75.9 75.1,72 79.8,72 79.8,75.9 83.9,75.9 83.9,72 88.6,72 
		88.6,80.9 66.3,80.9 	"/>
	<polygon class="st3" points="160.2,80.9 160.2,72 165,72 165,75.9 169.1,75.9 169.1,72 173.8,72 173.8,75.9 177.9,75.9 177.9,72 
		182.6,72 182.6,80.9 160.2,80.9 	"/>
	<path class="st3" d="M131.1,95l7.7-8.7h3.6v-3.7h4.7v3.7h4.2v-3.8h4.7v3.8h3.9l-4.1,34.8h31.6l3.4,16.6c0,0-6.4-3.8-15.8-3.8
		c-2.7,0-5.5,0.4-8.3,1.3L131.1,95L131.1,95z"/>
	<path class="st3" d="M82.1,135.1c-2.7-0.8-5.6-1.2-8.2-1.2c-9.4,0-15.8,3.8-15.8,3.8l3.4-16.6h31.6L89,86.2H93v-3.8h4.7v3.8h4.2
		v-3.7h4.7v3.7h3.3l7.7,8.9L82.1,135.1L82.1,135.1z"/>
	<polygon class="st3" points="112,45.9 112,36 117.2,36 117.2,40.4 121.8,40.4 121.8,36 126.9,36 126.9,40.4 131.4,40.4 131.4,36.1 
		136.6,36.1 136.6,45.9 112,45.9 	"/>
	<path class="st3" d="M115.2,142.5v-16.6c0-3.2,2-9.2,9.2-9.2c7.3,0,9.2,6,9.2,9.2v16.6l0,0c9.4,2.2,14.6,7.2,14.6,7.2
		c2.7-4.1,5.8-7.4,9.3-9.9l-33.1-37.2l-33.1,37.2c3.5,2.5,6.6,5.8,9.3,9.9C100.7,149.6,105.8,144.7,115.2,142.5L115.2,142.5
		L115.2,142.5z"/>
	<path class="st3" d="M117.6,141.9v-16.3c0-0.7,0.5-6.6,6.8-6.6c6.3,0,6.8,5.9,6.8,6.6v16.3l0,0c-2.1-0.4-4.4-0.6-6.8-0.6h0.1
		C122,141.4,119.7,141.6,117.6,141.9L117.6,141.9L117.6,141.9z"/>
	<path class="st3" d="M90.2,118.6H64.8L69,83.3h17L90.2,118.6L90.2,118.6z M81.7,95.4h-3v-4.1h-2.5v4.1h-3.1v2.5h3.1v6.5h2.5v-6.5h3
		V95.4L81.7,95.4z"/>
	<path class="st3" d="M162.8,83.3h17l4.3,35.3h-25.4L162.8,83.3L162.8,83.3z M175.3,95.4h-3v-4.1h-2.5v4.1h-3.1v2.5h3.1v6.5h2.5
		v-6.5h3V95.4L175.3,95.4z"/>
	<path class="st3" d="M111.2,72.6l4.9-24.4h16.7l4.9,24.5l-13.2,14.8L111.2,72.6L111.2,72.6z M128.8,58.9h-3v-4.2h-2.5v4.2h-3.1v2.5
		h3.1v6.5h2.5v-6.5h3V58.9L128.8,58.9z"/>
</g>
</svg>
