<?xml version="1.0" encoding="utf-8"?>
<!-- Generator: Adobe Illustrator 19.1.0, SVG Export Plug-In . SVG Version: 6.00 Build 0)  -->
<svg version="1.1" id="Layer_1" xmlns="http://www.w3.org/2000/svg" xmlns:xlink="http://www.w3.org/1999/xlink" x="0px" y="0px"
	 viewBox="0 0 400 400" enable-background="new 0 0 400 400" xml:space="preserve">
<g>
	<path fill="#FFFFFF" d="M351.089,104.397l-0.14,2.089c-0.539,7.965-3.302,11.208-7.884,16.595l-0.192,0.229
		c-3.391,3.991-15.043,11.639-54.816,18.039c-14.74,2.366-45.314,4.5-53.382,4.3c-4.219-0.103-7.101-1.492-8.947-4.108
		c0.598-0.606,1.359-1.383,1.359-1.383l0.998-0.92c0,0-4.773-2.948-5.911-3.657c0.421-0.427,1.729-1.755,1.729-1.755l-1.034-0.731
		c-6.059-4.269-14.245-6.714-22.463-6.714c-8.212,0-16.399,2.446-22.461,6.714l-1.042,0.731c0,0,1.315,1.332,1.736,1.755
		c-1.142,0.709-5.859,3.622-5.859,3.622s1.714,1.731,2.312,2.337c-1.832,2.614-4.74,4.005-8.955,4.108
		c-8.068,0.202-38.635-1.932-53.375-4.3c-39.78-6.4-51.424-14.048-54.815-18.043l-0.192-0.225
		c-4.592-5.388-7.348-8.631-7.884-16.595l-0.148-2.089l-1.607,1.328c-6.306,5.183-8.057,11.415-8.057,16.065
		c0,0.996,0.081,1.91,0.214,2.724c-5.552-2.261-10.625-6.548-13.776-11.975l-1.009-1.742l-0.879,1.809
		c-0.953,1.947-1.433,3.949-1.433,5.999c0,3.155,1.19,6.459,3.45,9.947c-4.662-0.695-8.778-2.497-13.008-5.839l-2.013-1.59
		l0.281,2.551c0.68,6.263,1.995,10.364,6.687,14.415c-4.134-0.467-7.987-1.622-10.03-3.124l-1.651-1.215l-0.063,2.05
		c0,0.102-0.007,0.203-0.007,0.309c0,5.286,4.115,10.248,8.737,13.447c-2.966-0.013-5.346-0.614-7.533-1.271l-2.113-0.628
		l0.805,2.05c2.653,6.809,7.78,10.342,14.674,13.022c-1.817,0.172-3.823,0.017-5.445-0.767l-2.726-1.319l1.293,2.739
		c2.748,5.881,7.68,9.542,16.007,11.829c-1.618,0.137-3.188,0.14-4.629-0.118l-1.929-0.342l0.746,1.814
		c2.29,5.599,9.535,11.347,23.012,11.039c0.24,1.385,1.323,7.241,1.323,7.241s5.807,0.213,7.012,0.261
		c0.362,1.176,2.243,7.244,2.243,7.244s6.092-0.423,7.307-0.502c0.495,1.121,3.037,7.028,3.037,7.028s6.14-1.005,7.344-1.201
		c0.595,1.079,3.716,6.735,3.716,6.735s6.058-1.633,7.226-1.943c0.698,0.987,4.341,6.151,4.341,6.151s5.911-2.435,7.008-2.892
		c0.809,0.842,4.873,5.054,4.873,5.054s5.387-3.414,6.513-4.13c0.916,0.872,4.319,4.101,4.319,4.101l0.421,0.007
		c15.428,0.207,26.643-1.285,38.712-5.164l0.532-0.177l0.17-0.539c1.459-4.832,6.893-9.926,11.774-12.767
		c1.762,1.966,2.224,3.86,2.224,5.15c0,0.225-0.037,0.303-0.052,0.488c-3.184-0.432-6.062,0.488-8.729,2.97
		c-2.435,2.253-3.716,5.467-3.716,8.977c0,1.263,0.233,2.578,0.572,3.886c-4.474,0.347-9.738,3.325-11.703,6.901
		c-1.142,2.069-1.696,4.278-1.696,6.421c0,3.222,1.315,6.225,3.669,8.397c-1.282,1.433-19.111,21.268-19.111,21.268
		s16.307-2.143,17.381-2.283c0.676,0.794,7.108,8.378,7.108,8.378s2.501-1.559,3.672-2.29c5.933,20.281,24.331,34.364,45.351,34.364
		c20.985,0,39.368-14.053,45.338-34.29c1.13,0.716,3.539,2.216,3.539,2.216s6.428-7.584,7.108-8.378
		c1.064,0.14,17.378,2.283,17.378,2.283s-17.821-19.835-19.114-21.268c2.357-2.172,3.665-5.175,3.665-8.397
		c0-2.143-0.547-4.352-1.685-6.421c-1.958-3.576-7.226-6.554-11.696-6.901c0.347-1.315,0.569-2.623,0.569-3.886
		c0-3.51-1.286-6.724-3.724-8.977c-2.719-2.519-5.652-3.45-8.888-2.97c-0.015-0.185-0.059-0.266-0.059-0.488
		c0-1.29,0.465-3.184,2.231-5.15c4.884,2.841,10.315,7.935,11.77,12.767l0.17,0.539l0.532,0.177
		c12.073,3.879,23.289,5.371,38.716,5.164l0.414-0.007c0,0,3.413-3.229,4.33-4.101c1.123,0.713,6.509,4.13,6.509,4.13
		s4.064-4.212,4.876-5.054c1.094,0.458,7.004,2.892,7.004,2.892s3.635-5.164,4.344-6.151c1.167,0.311,7.226,1.943,7.226,1.943
		s3.125-5.656,3.716-6.735c1.197,0.196,7.344,1.201,7.344,1.201s2.542-5.907,3.037-7.028c1.212,0.079,7.315,0.502,7.315,0.502
		s1.869-6.068,2.239-7.244c1.197-0.046,7.004-0.261,7.004-0.261s1.079-5.855,1.337-7.241c13.469,0.308,20.718-5.44,23.008-11.039
		l0.731-1.814l-1.921,0.342c-1.448,0.259-3.015,0.255-4.633,0.118c8.327-2.287,13.27-5.948,16.011-11.829l1.286-2.739l-2.712,1.317
		c-1.633,0.785-3.635,0.94-5.453,0.769c6.908-2.68,12.021-6.214,14.681-13.022l0.798-2.05l-2.113,0.628
		c-2.187,0.656-4.566,1.258-7.536,1.271c4.625-3.2,8.733-8.161,8.733-13.447c0-0.106,0-0.207,0-0.309l-0.067-2.05l-1.647,1.215
		c-2.047,1.5-5.896,2.656-10.026,3.124c4.692-4.051,5.992-8.15,6.679-14.415l0.281-2.551l-2.017,1.59
		c-4.219,3.341-8.342,5.144-13.004,5.839c2.253-3.487,3.458-6.792,3.458-9.947c0-2.05-0.48-4.053-1.441-5.999l-0.887-1.809
		l-1.005,1.742c-3.147,5.427-8.209,9.714-13.765,11.975c0.133-0.814,0.214-1.729,0.214-2.724c0-4.649-1.766-10.882-8.068-16.065
		L351.089,104.397z"/>
	<path fill="#192F5B" d="M393.092,149.314c-3.214,0.957-6.627,1.723-11.289,1.088c5.046-2.56,11.289-8.375,11.105-14.572
		c-2.763,2.045-8.519,3.513-14.134,3.576c6.561-4.474,8.268-8.307,9.088-15.846c-5.172,4.091-10.1,6.008-15.907,6.386
		c3.909-5.172,6.191-10.921,3.28-16.87c-4.049,6.988-10.469,11.469-16.24,13.27c1.249-3.571,1.744-12.619-6.982-19.79
		c-0.569,8.439-3.665,11.96-8.327,17.449c-4.736,5.564-19.691,12.658-55.473,18.407c-15.05,2.42-45.809,4.503-53.574,4.307
		c-6.051-0.142-8.888-2.771-10.344-5.268l2.017-2.045c-1.7-1.215-3.207-2.076-5.874-3.609l1.803-1.821
		c-6.524-4.601-14.777-6.52-21.842-6.52c-7.063,0-15.305,1.921-21.837,6.52l1.799,1.821c-2.653,1.533-4.163,2.394-5.87,3.609
		l2.014,2.045c-1.448,2.497-4.282,5.125-10.34,5.268c-7.766,0.196-38.531-1.888-53.578-4.307
		c-35.779-5.75-50.734-12.845-55.469-18.407c-4.67-5.489-7.754-9.012-8.327-17.449c-8.715,7.172-8.231,16.221-6.978,19.79
		c-5.77-1.801-12.198-6.282-16.244-13.27c-2.903,5.949-0.632,11.698,3.281,16.87c-5.807-0.377-10.728-2.294-15.9-6.386
		c0.816,7.542,2.519,11.373,9.084,15.846c-5.615-0.063-11.36-1.531-14.135-3.576c-0.188,6.199,6.059,12.012,11.109,14.572
		c-4.67,0.635-8.08-0.133-11.297-1.088c2.841,7.285,8.678,10.732,17.385,13.6c-2.438,1.226-6.712,1.422-9.627,0.007
		c3.417,7.287,10.229,10.532,20.252,12.387c-3.281,1.023-6.812,1.419-10.022,0.846c2.276,5.562,9.594,10.931,22.901,10.357
		l1.345,7.294l6.905,0.259l2.216,7.154l7.226-0.5l2.996,6.964l7.267-1.186l3.676,6.657l7.144-1.921l4.274,6.066l6.894-2.841
		l4.769,4.939l6.476-4.108l4.625,4.389c14.075,0.192,25.431-0.957,38.372-5.113c1.637-5.434,7.691-10.994,13-13.864
		c3.214,3.062,3.402,6.324,2.9,8.242c-3.033-0.768-6.055-0.259-9.088,2.56c-3.029,2.804-4.415,7.599-2.519,13.037
		c-4.167-0.255-10.063,2.697-12.121,6.454c-2.837,5.175-1.707,11.116,2.531,14.245l-17.862,19.879l15.08-1.98l6.886,8.105
		l3.887-2.416c5.264,20.052,23.311,34.829,44.767,34.829c21.488,0,39.553-14.814,44.791-34.911l4.012,2.497l6.886-8.105l15.087,1.98
		l-17.865-19.879c4.219-3.129,5.364-9.07,2.527-14.245c-2.054-3.757-7.95-6.712-12.11-6.454c1.891-5.438,0.495-10.233-2.535-13.037
		c-2.992-2.785-5.926-3.292-8.918-2.56c-0.51-1.918-0.318-5.18,2.904-8.242c5.29,2.87,11.349,8.43,12.996,13.864
		c12.93,4.156,24.301,5.305,38.376,5.113l4.625-4.389l6.473,4.108l4.765-4.939l6.894,2.841l4.278-6.066l7.137,1.921l3.679-6.657
		l7.27,1.186l3-6.964l7.226,0.5l2.202-7.154l6.916-0.259l1.345-7.294c13.306,0.574,20.621-4.795,22.897-10.357
		c-3.207,0.573-6.738,0.177-10.026-0.846c10.026-1.855,16.831-5.1,20.252-12.387c-2.904,1.415-7.181,1.219-9.627-0.007
		C384.426,160.045,390.263,156.599,393.092,149.314"/>
	<path fill="#BFC0C2" d="M190.387,272.645c-0.469,4.153-1.81,7.655-3.798,9.982c-4.101,4.773-7.95,6.982-11.637,7.887
		c6.502,4.902,14.467,7.976,23.115,8.441v-25.734C195.463,273.154,192.899,272.962,190.387,272.645"/>
	<path fill="#BFC0C2" d="M182.854,280.018c1.626-1.884,2.745-4.699,3.166-8.042c-10.366-1.899-19.764-5.826-27.759-11.375
		c0.95,10.337,5.612,19.598,12.642,26.44C174.668,286.661,178.598,284.987,182.854,280.018"/>
	<path fill="#BFC0C2" d="M177.66,247.128c-2.685-3.151-5.32-5.519-7.699-7.481c-1.821-0.835-3.617-2.002-5.294-3.672
		c-0.258-0.266-0.495-0.518-0.727-0.765c-1.829,3.088-3.266,6.432-4.263,9.963c1.891,2.952,6.787,7.544,15.098,8.253
		c-2.763,1.256-7.817,4.019-16.528-0.388c-0.056,0.621-0.096,1.23-0.122,1.854c7.868,6.166,17.4,10.54,28.054,12.601
		C185.854,261.178,183.338,253.789,177.66,247.128"/>
	<path fill="#BFC0C2" d="M169.577,228.277c0.739,3.34,5.294,11.497,14.921,11.973c-0.89,0.443-3.192,1.083-6.106,1.127
		c0.676,0.732,1.36,1.467,2.039,2.276c6.864,8.035,9.842,16.994,10.122,24.563c2.453,0.322,4.965,0.521,7.514,0.595v-54.376
		c-2.737,0.148-5.397,0.562-7.972,1.201c-0.934,1.854-2.737,3.45-5.408,3.698c-0.513,4.961,3.229,12.933,10.248,15.915
		c-3.554,0.188-10.015-0.824-14.485-6.883c-2.013-2.734-3.17-4.669-3.938-6.605c-1.097,0.75-2.161,1.551-3.173,2.394
		C172.872,225.768,171.516,228.195,169.577,228.277"/>
	<path fill="#BFC0C2" d="M210.426,272.645c0.466,4.153,1.811,7.655,3.805,9.982c4.093,4.773,7.943,6.982,11.629,7.887
		c-6.509,4.902-14.459,7.976-23.113,8.441v-25.734C205.35,273.154,207.921,272.962,210.426,272.645"/>
	<path fill="#BFC0C2" d="M217.962,280.018c-1.626-1.884-2.741-4.699-3.17-8.042c10.366-1.899,19.757-5.826,27.759-11.375
		c-0.953,10.337-5.608,19.598-12.642,26.44C226.149,286.661,222.218,284.987,217.962,280.018"/>
	<path fill="#BFC0C2" d="M223.157,247.128c2.682-3.151,5.32-5.519,7.699-7.481c1.818-0.835,3.621-2.002,5.298-3.672
		c0.251-0.266,0.488-0.518,0.724-0.765c1.825,3.088,3.259,6.432,4.263,9.963c-1.891,2.952-6.79,7.544-15.102,8.253
		c2.771,1.256,7.817,4.019,16.528-0.388c0.059,0.621,0.096,1.23,0.126,1.854c-7.868,6.166-17.4,10.54-28.054,12.601
		C214.963,261.178,217.475,253.789,223.157,247.128"/>
	<path fill="#BFC0C2" d="M231.247,228.277c-0.746,3.34-5.305,11.497-14.932,11.973c0.887,0.443,3.192,1.083,6.11,1.127
		c-0.68,0.732-1.36,1.467-2.047,2.276c-6.857,8.035-9.834,16.994-10.108,24.563c-2.46,0.322-4.972,0.521-7.527,0.595v-54.376
		c2.739,0.148,5.399,0.562,7.97,1.201c0.939,1.854,2.749,3.45,5.408,3.698c0.517,4.961-3.214,12.933-10.24,15.915
		c3.554,0.188,10.019-0.824,14.481-6.883c2.009-2.734,3.177-4.669,3.946-6.605c1.093,0.75,2.157,1.551,3.17,2.394
		C227.944,225.768,229.296,228.195,231.247,228.277"/>
	<path fill="#192F5B" d="M139.539,96.905l0.731-1.631h-11.918l0.717,1.631l-4.197,19.603l-1.127,1.627h6.712l-0.628-1.568
		l0.628-2.776h7.684l0.577,2.776l-0.643,1.568h6.787l-1.164-1.627L139.539,96.905z M131.367,109.619l2.146-10.178h1.563
		l2.176,10.178H131.367z M119.073,113.962l1.895-0.619v4.795h-14.522l0.657-1.615V96.866l-0.657-1.588h6.45l-0.861,1.714v16.97
		H119.073z M83.253,96.905l0.724-1.631H72.063l0.739,1.631l-4.226,19.644l-1.119,1.587h6.727l-0.636-1.568l0.643-2.776h7.662
		l0.577,2.776l-0.632,1.568h6.771l-1.145-1.627L83.253,96.905z M75.078,109.619l2.154-10.178h1.548l2.194,10.178H75.078z
		 M87.398,95.274h16.269v4.812l-1.884-0.645h-3.739v16.973l0.787,1.722h-6.583l0.824-1.722V99.441h-3.801l-1.873,0.645V95.274z
		 M179.802,116.414l0.794,1.722h-6.583l0.828-1.722V99.441h-3.801l-1.902,0.645v-4.812h16.288v4.812l-1.891-0.645h-3.731V116.414z
		 M200.066,96.905l0.72-1.631h-11.918l0.728,1.631l-4.204,19.603l-1.112,1.627h6.709l-0.632-1.568l0.632-2.776h7.677l0.547,2.776
		l-0.613,1.568h6.781l-1.167-1.627L200.066,96.905z M191.872,109.619l2.161-10.178h1.544l2.198,10.178H191.872z M165.568,96.99
		v19.425l0.802,1.722h-6.516l0.783-1.722v-4.745l-7.012-8.92v13.707l1.164,1.681h-6.875l0.82-1.615V96.709l-0.82-1.435h7.126
		l-0.425,1.182l6.022,7.67V96.99l-0.787-1.716h6.517L165.568,96.99z"/>
	<path fill="#BFC0C2" d="M164.423,117.163h-2.634v-5.8l-9.298-11.808v17.609h-2.638V96.24h3.222l8.715,11.09V96.24h2.634V117.163
		 M138.246,96.24l4.429,20.923h-2.697l-0.872-4.35h-9.575l-0.998,4.35h-2.649l4.488-20.921h7.873V96.24z M138.615,110.596
		l-2.597-12.108h-3.458l-2.575,12.108H138.615z M198.761,96.24l4.433,20.921h-2.73l-0.835-4.35h-9.579l-0.998,4.35h-2.649
		l4.504-20.921H198.761z M199.142,110.596l-2.604-12.108h-3.465l-2.553,12.108H199.142z M88.525,98.488h5.693v18.675H96.9V98.488
		l5.619-0.024V96.24H88.525V98.488z M170.301,98.488h5.693v18.675h2.664V98.488l5.615-0.024V96.24h-13.972V98.488L170.301,98.488z
		 M81.945,96.24l4.481,20.921h-2.704l-0.883-4.35h-9.616l-0.971,4.352h-2.653l4.499-20.921h7.847V96.24z M82.318,110.596
		l-2.571-12.108h-3.476l-2.568,12.108H82.318z M110.89,96.24h-2.63v20.923h11.57v-2.239h-8.94V96.24z"/>
	<path fill="#192F5B" d="M164.963,117.606h-2.653v-6.306l-9.295-11.796v18.1h-2.623V96.691h3.21l8.708,11.092
		c0,0,0.008-11.079,0-11.092h2.653C164.959,96.705,164.963,117.606,164.963,117.606 M138.767,96.691l4.444,20.914h-2.59
		l-0.894-4.345h-9.679l-0.99,4.345h-2.642l4.503-20.914H138.767z M139.254,111.037l-2.619-12.108h-3.561l-2.549,12.108H139.254z
		 M199.286,96.691l4.448,20.914h-2.538l-0.89-4.345h-9.745l-0.979,4.345h-2.638l4.496-20.914H199.286z M199.833,111.037
		l-2.619-12.108h-3.606l-2.56,12.108H199.833z M89.075,98.939l5.678-0.009v18.676h2.678V98.929l5.615-0.003v-2.235H89.075V98.939z
		 M170.829,98.939l5.689-0.009v18.676h2.671V98.929l5.626-0.003v-2.235h-13.986V98.939z M82.477,96.691l4.488,20.914H84.38
		l-0.909-4.345h-9.712l-0.975,4.345h-2.675l4.518-20.914H82.477z M82.976,111.037l-2.601-12.108h-3.576l-2.556,12.108H82.976z
		 M111.422,96.691h-2.627v20.914h11.559v-2.246h-8.933V96.691z"/>
	<path fill="#192F5B" d="M330.911,118.136h-16.085c-0.547-2.054-0.68-5.259-0.783-6.701h4.861c0.015,0.538,0.037,1.923,0.089,2.527
		h7.706c0.14-1.177,0.155-2.963,0.103-3.877l-12.413-4.681c-0.739-3.499-0.177-7.788,0.554-10.13h15.849
		c0.539,1.772,0.768,4.96,0.872,6.41h-4.839c-0.022-0.527-0.067-1.633-0.126-2.243h-7.706c-0.118,1.173-0.141,1.856-0.089,2.771
		l12.428,4.675C331.982,110.104,331.524,115.569,330.911,118.136 M235.909,95.267l-6.546,0.007l0.827,1.716v6.339h-6.576V96.99
		l0.791-1.716l-6.569,0.006l0.813,1.71l0.03,19.425l-0.835,1.725l6.561-0.004l-0.769-1.722v-8.872l6.554-0.008l0.008,8.879
		l-0.827,1.722h6.554l-0.783-1.722l-0.03-19.43L235.909,95.267z M283.514,96.99l-2.763,12.557l-3.753-12.557l0.923-1.716h-6.76
		l0.828,1.716l-3.761,12.557l-2.734-12.557l0.451-1.716h-6.576l1.197,1.716l4.249,19.425l-0.466,1.722h0.525h6.081h0.51
		l-0.325-1.722l3.354-11.314l3.377,11.314l-0.333,1.722h0.502h6.081h0.525l-0.466-1.722l4.234-19.425l1.219-1.716h-6.59
		L283.514,96.99z M305.228,102.71l5.911-7.433h-7.167l0.17,1.178l-6.022,7.67V96.99l0.805-1.716h-6.524l0.775,1.716v19.425
		l-0.775,1.722h6.524l-0.805-1.722v-4.745l3.532-4.448l3.694,9.193l-0.451,1.722h6.716L305.228,102.71z M258.732,116.509l1.16,1.627
		h-6.79l0.621-1.568l-0.562-2.776h-7.669l-0.628,2.776l0.628,1.568h-6.701l1.116-1.627l4.204-19.603l-0.724-1.631h11.881
		l-0.702,1.631L258.732,116.509z M252.282,109.619l-2.194-10.178h-1.559l-2.12,10.178H252.282z"/>
	<path fill="#BFC0C2" d="M245.396,96.24l-4.463,20.919h2.623l0.982-4.35h9.598l0.879,4.35h2.69l-4.44-20.919H245.396z
		 M245.019,110.594l2.549-12.106h3.487l2.608,12.106H245.019z M309.802,117.159h-2.97l-4.854-12.099l-4.995,6.299v5.8h-2.638V96.24
		h2.638v11.088l8.674-11.088h3.362l-5.046,6.321L309.802,117.159z M330.504,110.762c0,2.181-0.236,4.479-0.539,6.188
		c0,0-0.03,0.107-0.044,0.209h-14.156c-0.022-0.098-0.022-0.192-0.022-0.192c-0.236-1.456-0.377-3.31-0.466-4.566h2.512
		c0.015,0.297,0.118,2.53,0.118,2.53h9.834l0.111-0.875c0.074-0.833,0.126-1.923,0.126-2.815c0-0.477,0-0.903-0.045-1.219
		l-0.022-0.58c0,0-11.393-4.307-12.464-4.701c-0.17-0.946-0.236-1.906-0.236-2.865c0-1.932,0.251-3.832,0.532-5.419
		c0,0,0.007-0.111,0.022-0.214h14.156c0.015,0.099,0.044,0.197,0.044,0.197c0.252,1.518,0.399,3.207,0.466,4.295h-2.512
		c-0.03-0.469-0.126-2.244-0.126-2.244h-9.827l-0.111,0.876c-0.074,0.744-0.111,1.359-0.111,1.993c0,0.279,0,0.584,0.015,0.916
		l0.044,0.589c0,0,11.378,4.294,12.464,4.688C330.423,108.544,330.504,109.628,330.504,110.762 M284.814,96.24h2.63l-4.588,20.919
		h-3.583l-4.78-16.022l-4.758,16.022h-3.569l-4.618-20.919h2.601l3.946,17.777l5.268-17.777h2.268l5.231,17.732L284.814,96.24z
		 M233.995,117.159h-2.645v-10.584h-8.844v10.584h-2.697V96.24h2.697v8.068h8.844V96.24h2.645V117.159z"/>
	<path fill="#192F5B" d="M245.936,96.691l-4.47,20.914h2.623l1.005-4.345h9.731l0.864,4.345h2.556l-4.441-20.914H245.936z
		 M245.544,111.035l2.571-12.102h3.635l2.586,12.102H245.544z M310.341,117.606h-2.881l-4.847-12.102l-5.098,6.312v5.792h-2.637
		V96.691h2.637v10.743l8.408-10.743h3.643l-5.054,6.316L310.341,117.606z M331.044,111.2c0,2.204-0.251,4.466-0.569,6.204
		c0,0-0.007,0.1-0.022,0.201h-14.156c-0.008-0.098-0.015-0.192-0.015-0.192c-0.236-1.461-0.392-3.303-0.488-4.579h2.512
		c0.022,0.333,0.111,2.527,0.111,2.527h9.871l0.074-0.859c0.104-0.842,0.14-1.927,0.14-2.817c0-0.482-0.015-0.89-0.03-1.208
		l-0.03-0.589c0,0-11.393-4.298-12.457-4.706c-0.162-0.944-0.266-1.895-0.266-2.854c0-1.945,0.281-3.837,0.554-5.42
		c0,0,0.015-0.11,0.022-0.214h14.156c0.015,0.089,0.022,0.209,0.022,0.209c0.244,1.502,0.399,3.177,0.495,4.271h-2.505
		c-0.022-0.451-0.148-2.237-0.148-2.237h-9.827l-0.103,0.875c-0.081,0.765-0.14,1.361-0.14,1.997c0,0.286,0.007,0.584,0.044,0.907
		l0.044,0.829c0,0,11.393,4.291,12.457,4.688C330.94,109.211,331.044,110.079,331.044,111.2 M285.346,96.691h2.616l-4.581,20.914
		h-3.384l-4.862-16.338l-4.884,16.338h-3.414l-4.588-20.914h2.431l3.938,17.808l5.29-17.808h2.261l5.224,17.729L285.346,96.691z
		 M234.52,117.606h-2.638v-10.571h-8.874v10.571h-2.682V96.691h2.682v8.07h8.874v-8.07h2.638V117.606z"/>
	<path fill="#FFFFFF" d="M213.33,140.117c-0.288,0.58-0.369,0.863-0.938,1.659c0.82,1.783,0.502,3.766-0.695,4.344
		c-0.052-0.964-0.591-2.113-0.998-2.451c-0.754,0.678-1.825,1.258-2.8,1.452c0.62,1.271,1.913,2.145,3.421,2.145
		c2.098,0,3.812-1.723,3.812-3.862C215.133,142.021,214.409,140.806,213.33,140.117"/>
	<path fill="#FFFFFF" d="M187.487,140.117c0.281,0.58,0.369,0.863,0.938,1.659c-0.82,1.783-0.506,3.766,0.695,4.344
		c0.063-0.964,0.591-2.113,0.998-2.451c0.757,0.678,1.829,1.258,2.8,1.452c-0.62,1.271-1.925,2.145-3.421,2.145
		c-2.102,0-3.816-1.723-3.816-3.862C185.68,142.021,186.401,140.806,187.487,140.117"/>
	<path fill="#BFC0C2" d="M200.405,142.972c-2.032,0.044-3.901,1.068-5.105,2.8c-0.724,1.051-1.112,2.232-1.112,3.303
		c0,0.375,0.077,0.718,0.174,1.055c-0.236,0.186-6.129,4.932-6.129,4.932l-1.441,1.175c-0.207,0.155-0.288,0.336-0.288,0.499
		c0,0.098,0.033,0.186,0.081,0.262c0.137,0.196,0.458,0.284,0.802,0.059l1.027-0.678c2.608-1.733,4.492-2.985,6.598-2.898
		c2.098,0.091,3.436,1.949,5.394,6.175V142.972L200.405,142.972z"/>
	<path fill="#BFC0C2" d="M206.628,155.343c-2.43,0.089-4.756,4.672-6.005,7.136c0,0-0.089,0.249-0.218,0.504
		c-0.129-0.259-0.303-0.514-0.303-0.514c-1.252-2.464-3.58-7.037-6.007-7.124c-2.626-0.094-3.86,1.435-4.389,2.091l-0.292,0.361
		l0.37,0.188c2.243,0.365,6.055,5.063,9.073,11.168l0.263,0.532c0,0,0.96-2.229,1.285-3.009c0.318,0.782,1.197,3.009,1.197,3.009
		l0.263-0.532c3.012-6.105,6.832-10.802,9.071-11.168l0.458-0.067l-0.377-0.482C210.493,156.778,209.259,155.248,206.628,155.343"/>
	<path fill="#BFC0C2" d="M149.454,228.299l-0.721,0.203c0,0,2.501,1.105,3.077,1.352c-0.502,0.443-2.94,2.59-2.94,2.59
		s1.961,0.617,2.272,0.716c-0.008,0.37-0.133,4.094-0.133,4.094l0.458-0.37c0.757-0.613,1.869-0.842,3.055-0.613
		c1.4,0.259,2.656,1.101,3.288,2.202l0.252,0.429l0.229-0.44c0.964-1.895,1.378-4.969-0.388-7.932
		C156.285,227.829,152.395,227.482,149.454,228.299"/>
	<path fill="#BFC0C2" d="M210.049,207.123c-0.303,2.87,1.773,6.147,4.647,7.315l0.443,0.177l-0.081-0.484
		c-0.369-2.076-0.059-3.68,0.953-4.807c1.086-1.189,2.734-1.518,3.908-1.422l0.436,0.033c0,0-0.672-1.618-0.775-1.862
		c0.162-0.2,1.093-1.385,1.093-1.385s-2.253-1.445-2.645-1.698c0.244-0.329,1.249-1.697,1.249-1.697l-0.48-0.031
		C212.133,200.756,210.36,204.175,210.049,207.123"/>
	<path fill="#BFC0C2" d="M229.466,213.2c-1.167,1.681-1.529,3.727-1.02,5.752c0.48,1.906,1.692,3.591,3.066,4.292l0.561,0.281
		l-0.177-0.599c-0.48-1.651,0.111-3.702,1.411-4.88c0.879-0.816,2.446-1.563,4.928-0.58l0.384,0.155c0,0-0.067-1.526-0.081-1.784
		c0.236-0.129,1.707-0.994,1.707-0.994s-1.744-1.245-2.239-1.596c0.384-0.222,1.337-0.78,1.337-0.78l-0.362-0.233
		C236.537,210.64,231.971,209.587,229.466,213.2"/>
	<path fill="#BFC0C2" d="M182.023,201.26l-0.48,0.035c0,0,1.009,1.363,1.245,1.692c-0.392,0.253-2.649,1.705-2.649,1.705
		s0.938,1.186,1.094,1.385c-0.1,0.24-0.772,1.862-0.772,1.862l0.44-0.04c1.182-0.089,2.822,0.233,3.905,1.43
		c1.009,1.112,1.323,2.73,0.95,4.799l-0.092,0.491l0.458-0.185c2.87-1.171,4.954-4.444,4.648-7.315
		C190.457,204.168,188.687,200.762,182.023,201.26"/>
	<path fill="#BFC0C2" d="M161.83,212.236l-0.369,0.233c0,0,0.96,0.558,1.345,0.776c-0.488,0.358-2.243,1.599-2.243,1.599
		s1.478,0.864,1.71,0.994c-0.011,0.259-0.078,1.784-0.078,1.784l0.384-0.155c2.475-0.983,4.049-0.229,4.932,0.58
		c1.289,1.178,1.884,3.232,1.396,4.873l-0.174,0.606l0.554-0.281c1.385-0.706,2.59-2.386,3.07-4.289
		c0.518-2.035,0.159-4.082-1.009-5.759C168.838,209.591,164.279,210.648,161.83,212.236"/>
	<path fill="#BFC0C2" d="M242.913,230.534c-1.766,2.952-1.352,6.029-0.377,7.928l0.214,0.447l0.251-0.436
		c0.628-1.101,1.899-1.947,3.288-2.205c1.19-0.222,2.298,0.004,3.059,0.617l0.451,0.377c0,0-0.118-3.735-0.133-4.101
		c0.318-0.099,2.275-0.713,2.275-0.713s-2.438-2.146-2.941-2.597c0.569-0.244,3.081-1.344,3.081-1.344l-0.724-0.2
		C248.425,227.482,244.524,227.829,242.913,230.534"/>
	<path fill="#FFFFFF" d="M180.382,208.239c-1.448,6.325-0.691,8.881,0.07,11.438c0.765,2.593,2.771,7.991,6.938,12.147
		c-4.921-3.07-7.13-7.544-8.837-11.253c-1.152-2.512-1.891-6.901-1.385-9.066C177.605,209.598,178.683,209.007,180.382,208.239"/>
	<path fill="#FFFFFF" d="M162.214,217.825c-0.569,5.944,0.95,9.483,2.46,11.955c1.64,2.678,4.795,7.156,11.36,9.971
		c-6.181-1.289-10.517-5.608-12.494-8.501c-1.703-2.493-3.536-6.465-3.598-10.355C159.924,219.68,160.892,217.888,162.214,217.825"
		/>
	<path fill="#FFFFFF" d="M151.168,237.571c0.824,3.266,2.146,6.132,3.473,7.869c1.027,1.33,4.234,5.431,10.983,8.238
		c-8.39-1.921-11.482-5.564-12.498-6.908c-1.452-1.921-3.595-4.847-3.406-6.317C149.82,239.67,150.603,237.763,151.168,237.571"/>
	<path fill="#FFFFFF" d="M220.43,208.239c1.448,6.325,0.695,8.881-0.067,11.438c-0.776,2.593-2.778,7.991-6.945,12.147
		c4.928-3.07,7.13-7.544,8.844-11.253c1.153-2.512,1.884-6.901,1.382-9.066C223.208,209.598,222.13,209.007,220.43,208.239"/>
	<path fill="#FFFFFF" d="M238.599,217.825c0.561,5.944-0.953,9.483-2.468,11.955c-1.633,2.678-4.795,7.156-11.349,9.971
		c6.184-1.289,10.514-5.608,12.494-8.501c1.692-2.493,3.532-6.465,3.605-10.355C240.896,219.68,239.921,217.888,238.599,217.825"/>
	<path fill="#FFFFFF" d="M249.644,237.571c-0.827,3.266-2.143,6.132-3.472,7.869c-1.027,1.33-4.234,5.431-10.98,8.238
		c8.394-1.921,11.482-5.564,12.494-6.908c1.456-1.921,3.598-4.847,3.406-6.317C250.989,239.67,250.213,237.763,249.644,237.571"/>
	<path fill="#FFFFFF" d="M215.413,240.327c1.079,0.838,2.15,1.884,1.485,3.465l-3.096-3.247l1.899-4.09
		C216.832,237.73,216.16,239.175,215.413,240.327"/>
	<path fill="#FFFFFF" d="M225.225,253.619c1.086,0.842,2.158,1.884,1.493,3.465l-3.103-3.247l1.891-4.089
		C226.644,251.026,225.979,252.481,225.225,253.619"/>
	<path fill="#FFFFFF" d="M205.247,235.414c1.219,0.606,2.468,1.411,2.12,3.092l-3.663-2.564l1.062-4.385
		C206.133,232.584,205.757,234.143,205.247,235.414"/>
	<path fill="#FFFFFF" d="M185.403,240.327c-1.079,0.838-2.157,1.884-1.489,3.465l3.1-3.247l-1.891-4.09
		C183.984,237.73,184.646,239.175,185.403,240.327"/>
	<path fill="#FFFFFF" d="M175.591,253.619c-1.086,0.842-2.154,1.884-1.492,3.465l3.107-3.247l-1.895-4.089
		C174.176,251.026,174.837,252.481,175.591,253.619"/>
	<path fill="#FFFFFF" d="M195.577,235.414c-1.226,0.606-2.479,1.411-2.135,3.092l3.672-2.564l-1.068-4.385
		C194.683,232.584,195.049,234.143,195.577,235.414"/>
	<path fill="#FFFFFF" d="M89.755,205.845c-0.129,0.111-1.319,2.416-1.319,2.416l-0.177,0.347l2.996,0.306
		c0.181-0.04,11.873-8.426,11.873-8.426L89.755,205.845z"/>
	<polygon fill="#FFFFFF" points="111.932,209.876 111.832,209.946 111.562,212.495 114.204,212.698 121.267,204.279 	"/>
	<polygon fill="#FFFFFF" points="51.904,182.614 51.782,182.619 50.415,184.575 52.461,186.075 61.283,182.512 	"/>
	<polygon fill="#FFFFFF" points="34.053,167.216 32.49,168.84 34.293,170.644 43.543,168.5 34.141,167.124 	"/>
	<polygon fill="#FFFFFF" points="70.12,195.3 69.998,195.322 68.764,197.572 71.121,198.795 80.87,193.839 	"/>
	<path fill="#E03B3F" d="M216.145,137.163l-1.655,1.531l0.273,0.19c1.485,1.042,2.328,2.642,2.328,4.378
		c0,3.014-2.608,5.471-5.815,5.471l-1.773-0.235l-0.133,0.174c-0.126,0.299-0.199,0.575-0.199,0.844
		c0,1.219,1.411,2.215,3.798,3.886c0,0,3.761,2.771,4.359,3.214c-2.387,1.114-5.623,2.841-8.017,5.49
		c-1.581,1.751-2.933,3.622-4.115,5.272c-1.893,2.637-3.393,4.719-4.716,4.729c-1.315,0.002-2.815-2.084-4.703-4.729
		c-1.19-1.65-2.534-3.521-4.123-5.272c-2.386-2.649-5.626-4.378-8.009-5.49c0.599-0.441,4.359-3.214,4.359-3.214
		c2.387-1.672,3.794-2.667,3.794-3.886c0-0.268-0.067-0.543-0.207-0.844l-0.085-0.183l-1.814,0.242
		c-3.199,0-5.819-2.457-5.819-5.471c0-1.734,0.846-3.334,2.331-4.378l0.266-0.19l-1.884-1.753l-0.174,0.277
		c-3.439,5.471-5.327,8.488-5.715,16.299l-0.015,0.281h2.752c-0.218,0.813-0.362,1.67-0.362,2.61c0,3.447,1.33,7.516,3.029,10.192
		l0.093,0.144l0.17-0.019c1.415-0.177,2.512,0.044,3.258,0.659c0.613,0.504,0.861,1.182,1.012,1.831
		c-0.673-0.586-1.36-0.996-2.069-1.023c-0.853-0.039-1.714,0.384-2.549,1.173c-0.447-0.331-3.55-2.662-4.577-4.162l-0.218-0.318
		l-0.222,0.312c-3.066,4.239-4.614,9.727-4.843,17.272c-0.236,7.47,2.383,15.213,4.969,18.704l0.133,0.179l0.199-0.092
		c2.006-0.94,7.167-2.782,11.722,0.36c3.259,2.244,4.001,5.82,4.407,7.749l0.174,0.779l4.644-0.314v-31.822
		c-2.231-0.793-2.892-1.72-3.454-3.292c1.249,0.903,2.39,1.408,3.536,1.371c2.955-0.068,5.624-3.092,7.974-5.756
		c1.626-1.851,3.155-3.596,4.374-3.825c1.382-0.248,2.187,0.609,2.468,1.485l0.155,0.445l0.31-0.351
		c2.468-2.815,4.108-7.782,4.108-11.689c0-0.959-0.133-1.812-0.347-2.599h2.756l-0.015-0.279c-0.392-7.814-2.283-10.83-5.726-16.301
		l-0.17-0.275L216.145,137.163z"/>
	<path fill="#E03B3F" d="M223.962,175.068l-2.46,4.457c0,0,2.15,5.203,2.253,5.477c-0.17,0.225-3.259,4.331-3.259,4.331
		s1.315,4.339,1.382,4.594c-0.17,0.202-2.822,3.489-2.985,3.685c-2.209-0.246-6.265-0.205-9.612,2.51
		c-2.616,2.111-4.137,5.346-4.536,9.624l-0.022,0.27l0.577,0.048l0.569,0.107l0.074-0.263c0.495-3.022,2.069-5.781,3.428-7.174
		c2.882-2.976,8.017-3.138,11.844-1.973l0.229,0.067l0.096-0.214c4.086-8.912,5.091-17.723,2.919-25.492l-0.177-0.632
		L223.962,175.068z"/>
	<path fill="#E03B3F" d="M198.47,130.251c-4.208,0.236-8.574,1.153-12.28,2.58l-0.329,0.124l0.21,0.281
		c0.643,0.87,2.11,1.646,3.502,2.298c-0.174,0.621-0.292,1.243-0.292,1.84c0,2.944,1.969,5.462,4.252,6.559l0.211,0.098l0.133-0.186
		c1.433-2.054,3.632-3.098,6.535-3.098c2.896,0,5.093,1.044,6.533,3.098l0.126,0.186l0.207-0.098
		c2.276-1.099,4.249-3.615,4.249-6.559c0-0.597-0.111-1.219-0.288-1.84c1.396-0.65,2.867-1.424,3.509-2.298l0.2-0.281l-0.318-0.124
		c-3.85-1.479-7.891-2.344-12.008-2.571l-0.166-0.009c0,0-1.677,2.751-2.047,3.41c-0.37-0.659-1.77-3.417-1.77-3.417L198.47,130.251
		z"/>
	<path fill="#192F5B" d="M179.2,169.318l2.143,2.684c-1.888,3.449-3.155,7.16-3.402,11.122c-0.255,3.962,0.248,9.71,1.389,13.035
		l-0.381,0.766c-2.401-7.667-2.903-10.994-2.774-14.572C176.3,178.781,177.058,173.153,179.2,169.318"/>
	<path fill="#E03B3F" d="M172.052,172.251c-1.097-7.561-7.145-10.817-8.911-11.615c1.729-0.888,6.343,0.445,8.131,1.11l0.543,0.201
		l-0.203-0.552c-1.707-4.607-5.959-7.014-6.14-7.117c-6.036-3.682-18.109-6.461-18.231-6.489c-0.004,0-5.446-0.94-10.008-1.723
		c-5.575-0.464-11.183-1.012-16.155-1.588c0.879,8.102,10.595,15.084,14.467,17.564c-4.913-1.531-18.327-6.755-21.419-18.478
		c-0.573-0.085-1.142-0.174-1.681-0.261c-2.546-0.404-4.969-0.826-7.293-1.243c7.278,24.064,34.386,33.601,42.51,35.954
		c-9.332-0.604-43.326-4.791-53.98-33.856c-0.429-1.173-0.839-3.173-1.016-4.598c-3.229-0.726-6.192-1.453-8.907-2.185
		c0.251,9.432,8.386,18.239,11.626,21.388c-4.596-2.508-17.219-10.531-17.271-23.017c-13.008-4.032-19.007-8.022-21.678-11.153
		l-0.196-0.229c-2.589-3.044-4.688-5.516-6.151-8.576c-1.57,2.929-2.176,5.438-2.176,7.568c0,4.987,3.206,7.815,5.024,9.217
		c-8.15,0.534-14.707-3.633-14.777-3.678l-0.875-0.569l0.495,0.922c0.055,0.12,6.435,11.803,16.676,16.002
		c-7.389,2.261-12.683,0.247-18.29-2.483l-0.58-0.281l0.21,0.611c1.301,3.851,6.369,12.939,24.903,15.124
		c-4.939,5.292-16.705,1.215-16.827,1.175l-0.687-0.247l0.365,0.63c6.258,10.929,21.649,13.523,30.836,12.645
		c-2.796,5.338-16.21,4.483-16.347,4.47l-1.019-0.072l0.85,0.562c9.583,6.365,24.064,6.374,34.493,3.589
		c-2.508,4.234-6.347,6.26-12.435,6.413l-0.702,0.019l0.536,0.452c3.657,3.138,19.495,3.432,30.677,0.656
		c-1.655,3.312-6.055,5.706-11.581,6.118l-0.946,0.072l0.842,0.436c6.672,3.478,16.901,2.662,29.591-2.294
		c-0.432,3.463-6.809,6.614-6.883,6.652l0.122,0.506c33.573-0.168,47.671-16.349,47.807-16.515c1.891-2.535,2.93-4.613,2.93-7.965
		C172.322,174.551,172.233,173.472,172.052,172.251"/>
	<path fill="#E03B3F" d="M364.647,142.767c-5.608,2.726-10.898,4.74-18.294,2.483c10.233-4.199,16.624-15.882,16.683-16.006
		l0.495-0.925l-0.872,0.574c-0.067,0.039-6.664,4.232-14.836,3.67c3.376-2.723,5.127-5.89,5.127-9.49
		c0-2.313-0.739-4.818-2.143-7.479c-1.463,3.151-3.591,5.665-6.243,8.772l-0.185,0.216c-2.674,3.14-8.674,7.126-21.678,11.155
		c-0.207,12.35-12.664,20.429-17.26,22.991c3.251-3.184,11.342-12.027,11.645-21.358c-2.727,0.732-5.69,1.458-8.925,2.178
		c-0.192,1.447-0.621,3.475-1.035,4.605c-10.669,29.127-44.782,33.269-54.047,33.86c8.061-2.372,35.332-12.038,42.676-35.973
		c-2.357,0.429-4.818,0.842-7.388,1.262c-0.51,0.081-1.035,0.161-1.581,0.236c-3.163,11.581-16.654,16.918-21.545,18.488
		c3.805-2.499,13.44-9.553,14.555-17.566c-4.995,0.584-10.617,1.132-16.218,1.599c-4.559,0.789-10.004,1.725-10.004,1.725
		c-0.126,0.024-12.198,2.806-18.25,6.496c-0.177,0.094-4.426,2.505-6.125,7.115l-0.207,0.552l0.547-0.199
		c1.788-0.667,6.406-1.999,8.127-1.11c-1.758,0.796-7.809,4.049-8.903,11.617c-0.185,1.226-0.274,2.3-0.274,3.275
		c0,3.343,1.042,5.419,2.926,7.943c0.14,0.175,14.23,16.354,47.811,16.528l0.111-0.508c-0.059-0.039-6.443-3.186-6.871-6.65
		c12.686,4.958,22.927,5.767,29.598,2.296l0.835-0.438l-0.946-0.07c-5.527-0.414-9.923-2.813-11.578-6.118
		c11.179,2.776,27.02,2.479,30.677-0.656l0.532-0.454l-0.702-0.022c-6.096-0.146-9.923-2.178-12.428-6.415
		c10.418,2.787,24.899,2.778,34.482-3.58l0.85-0.562l-1.027,0.07c-0.126,0.013-13.543,0.87-16.336-4.472
		c9.177,0.879,24.574-1.714,30.84-12.646l0.355-0.626l-0.687,0.238c-0.111,0.05-11.888,4.117-16.817-1.167
		c18.523-2.185,23.599-11.275,24.892-15.128l0.215-0.608L364.647,142.767z"/>
	<path fill="#BFC0C2" d="M203.738,148.868c0-0.898,0.044-2.773-0.558-3.201c0.942,0.504,1.542,1.112,2.134,2.302
		C204.811,148.314,203.878,148.569,203.738,148.868"/>
	<path fill="#192F5B" d="M197.262,149.218c0-0.999-0.056-3.079,0.624-3.55c-1.049,0.573-1.725,1.228-2.39,2.551
		C196.061,148.584,197.11,148.892,197.262,149.218"/>
	<path fill="#FFFFFF" d="M311.058,205.845c0.133,0.111,1.322,2.416,1.322,2.416l0.177,0.347l-2.985,0.306
		c-0.199-0.04-11.881-8.426-11.881-8.426L311.058,205.845z"/>
	<polygon fill="#FFFFFF" points="288.877,209.876 288.981,209.946 289.254,212.495 286.609,212.698 279.538,204.279 	"/>
	<polygon fill="#FFFFFF" points="348.909,182.614 349.035,182.619 350.402,184.575 348.355,186.075 339.533,182.512 	"/>
	<polygon fill="#FFFFFF" points="366.678,167.124 357.265,168.5 366.531,170.644 368.326,168.84 366.76,167.216 	"/>
	<polygon fill="#FFFFFF" points="330.696,195.3 330.815,195.322 332.048,197.572 329.692,198.795 319.946,193.839 	"/>
</g>
</svg>
