<?xml version="1.0" encoding="utf-8"?>
<!-- Generator: Adobe Illustrator 19.1.0, SVG Export Plug-In . SVG Version: 6.00 Build 0)  -->
<svg version="1.1" id="Layer_1" xmlns="http://www.w3.org/2000/svg" xmlns:xlink="http://www.w3.org/1999/xlink" x="0px" y="0px"
	 viewBox="0 0 100 100" style="enable-background:new 0 0 100 100;" xml:space="preserve">
<style type="text/css">
	.st0{fill:#00A35F;}
	.st1{fill:#FFFFFF;}
	.st2{fill:#9B7C5B;}
	.st3{fill:#A25A57;}
	.st4{fill:#EFBB9B;}
	.st5{fill:#A55A58;}
	.st6{fill:#AB856F;}
</style>
<g>
	<ellipse class="st0" cx="49.3" cy="46.9" rx="33.6" ry="34.2"/>
	<path d="M15.4,46.9c0,19,15.2,34.5,33.9,34.5c18.7,0,33.9-15.5,33.9-34.5c0-19-15.2-34.5-33.9-34.5C30.6,12.4,15.4,27.9,15.4,46.9z
		 M16,46.9C16,28.2,30.9,13,49.3,13c18.4,0,33.3,15.2,33.3,33.9s-15,33.9-33.3,33.9C30.9,80.8,16,65.6,16,46.9z"/>
	<ellipse class="st1" cx="49.7" cy="47" rx="25.2" ry="25.4"/>
	<path d="M24.1,47c0,14.2,11.4,25.7,25.5,25.7c14.1,0,25.5-11.5,25.5-25.7c0-14.2-11.4-25.7-25.5-25.7C35.6,21.3,24.1,32.8,24.1,47z
		 M24.7,47c0-13.9,11.2-25.2,25-25.2c13.8,0,25,11.3,25,25.2c0,13.9-11.2,25.2-25,25.2C35.9,72.1,24.7,60.9,24.7,47z"/>
	<g>
		<path class="st1" d="M26.1,63.2c0.2-0.2,0.4-0.3,0.7-0.3c0.2,0,0.5,0,0.7,0c0.3,0.1,0.5,0.2,0.7,0.4c0.2,0.2,0.5,0.4,0.7,0.7
			l1.6,1.9l-4.3,3.5l-1.4-1.7c-0.3-0.3-0.5-0.6-0.6-0.8c-0.1-0.2-0.2-0.4-0.3-0.6c-0.1-0.2-0.1-0.5,0-0.6c0.1-0.2,0.2-0.4,0.4-0.5
			c0.2-0.2,0.4-0.3,0.7-0.3c0.3,0,0.5,0,0.7,0.2l0,0c-0.2-0.3-0.3-0.7-0.2-1C25.6,63.7,25.8,63.4,26.1,63.2z M25.6,66.2
			c-0.1,0.1-0.1,0.1-0.2,0.2c0,0.1,0,0.2,0,0.3c0,0.1,0.1,0.2,0.2,0.3c0.1,0.1,0.2,0.3,0.4,0.5l0.1,0.1l0.9-0.7l-0.1-0.1
			c-0.2-0.2-0.3-0.3-0.4-0.4c-0.1-0.1-0.2-0.1-0.3-0.2C26.1,66,26,66,25.9,66C25.7,66,25.7,66.1,25.6,66.2z M27.1,64.4
			c-0.1,0.1-0.2,0.2-0.2,0.3c0,0.1,0,0.3,0,0.4c0,0.1,0.1,0.2,0.2,0.3c0.1,0.1,0.2,0.3,0.4,0.5l0.2,0.2l1.1-0.9l-0.1-0.1
			c-0.3-0.3-0.4-0.5-0.5-0.6c-0.1-0.1-0.2-0.2-0.4-0.3c-0.1-0.1-0.3-0.1-0.4-0.1C27.3,64.3,27.2,64.4,27.1,64.4z"/>
		<path class="st1" d="M21.8,57.1c0.8-0.4,1.6-0.4,2.2-0.2c0.7,0.3,1.2,0.8,1.6,1.6c0.4,0.8,0.5,1.6,0.2,2.3
			c-0.2,0.7-0.8,1.2-1.6,1.6c-0.8,0.4-1.6,0.4-2.2,0.2c-0.7-0.3-1.2-0.8-1.6-1.6c-0.4-0.8-0.5-1.6-0.2-2.3
			C20.4,58.1,21,57.5,21.8,57.1z M22.4,58.6c-0.3,0.1-0.5,0.3-0.7,0.5c-0.2,0.2-0.3,0.3-0.4,0.5c-0.1,0.2-0.1,0.4-0.1,0.5
			c0,0.2,0.1,0.3,0.1,0.5c0.1,0.2,0.2,0.3,0.3,0.4c0.1,0.1,0.3,0.2,0.5,0.3c0.2,0.1,0.4,0.1,0.6,0c0.2,0,0.5-0.1,0.8-0.3
			c0.3-0.1,0.5-0.3,0.7-0.5c0.2-0.2,0.3-0.3,0.4-0.5c0.1-0.2,0.1-0.4,0.1-0.5c0-0.2-0.1-0.3-0.1-0.5c-0.1-0.2-0.2-0.3-0.3-0.4
			c-0.1-0.1-0.3-0.2-0.5-0.3c-0.2,0-0.4-0.1-0.6,0C23,58.3,22.8,58.4,22.4,58.6z"/>
		<path class="st1" d="M23.6,52.7c0.1,0.5,0.1,0.9,0.1,1.2c0,0.4,0,0.7-0.1,1l-1.3,0.3l0-0.1c0.2-0.3,0.3-0.7,0.3-1.1
			c0-0.4,0-0.8,0-1.1c0-0.1,0-0.2-0.1-0.3c0-0.1-0.1-0.2-0.2-0.3c-0.1-0.1-0.1-0.2-0.2-0.2c-0.1-0.1-0.2-0.1-0.3,0
			c-0.1,0-0.2,0.1-0.3,0.2c-0.1,0.1-0.1,0.3-0.1,0.5c0,0.2,0,0.4,0,0.7c0,0.2,0,0.5,0,0.7c-0.1,0.5-0.2,0.9-0.4,1.1
			c-0.2,0.3-0.5,0.4-0.9,0.5c-0.5,0.1-1,0-1.4-0.5c-0.4-0.4-0.7-1-0.8-1.7c-0.1-0.4-0.1-0.7-0.1-1.1c0-0.4,0-0.7,0.1-1l1.2-0.3
			l0,0.1c-0.1,0.3-0.2,0.6-0.3,0.9c-0.1,0.3,0,0.7,0,1c0,0.1,0.1,0.2,0.1,0.3c0,0.1,0.1,0.2,0.2,0.3c0.1,0.1,0.1,0.2,0.2,0.2
			c0.1,0.1,0.2,0.1,0.3,0c0.1,0,0.2-0.1,0.3-0.2c0.1-0.1,0.1-0.4,0.1-0.7c0-0.2,0-0.4,0-0.6c0-0.2,0-0.4,0-0.6
			c0.1-0.4,0.2-0.8,0.4-1c0.2-0.2,0.5-0.4,0.8-0.5c0.5-0.1,1,0,1.4,0.4C23.2,51.3,23.5,51.9,23.6,52.7z"/>
		<path class="st1" d="M22.9,47.6l-4.5,0l0,1.8l-1,0l0-5.1l1,0l0,1.8l4.5,0L22.9,47.6z"/>
		<path class="st1" d="M21.8,37.1c0.9,0.2,1.5,0.6,1.9,1.3c0.4,0.6,0.4,1.4,0.2,2.3c-0.2,0.9-0.6,1.5-1.3,1.9
			c-0.6,0.4-1.4,0.5-2.2,0.3c-0.9-0.2-1.5-0.6-1.9-1.3c-0.4-0.6-0.5-1.4-0.2-2.3c0.2-0.9,0.6-1.5,1.3-1.9
			C20.2,37,20.9,36.9,21.8,37.1z M21.4,38.6c-0.3-0.1-0.6-0.1-0.8-0.1c-0.2,0-0.5,0.1-0.6,0.2c-0.2,0.1-0.3,0.2-0.4,0.4
			c-0.1,0.1-0.2,0.3-0.2,0.5c0,0.2-0.1,0.4,0,0.5c0,0.2,0.1,0.3,0.2,0.5c0.1,0.2,0.3,0.3,0.5,0.4c0.2,0.1,0.5,0.2,0.8,0.3
			c0.3,0.1,0.6,0.1,0.8,0.1c0.2,0,0.4-0.1,0.6-0.2c0.2-0.1,0.3-0.2,0.4-0.4c0.1-0.1,0.2-0.3,0.2-0.5c0-0.2,0.1-0.4,0-0.5
			c0-0.2-0.1-0.3-0.2-0.5c-0.1-0.2-0.3-0.3-0.5-0.4C22,38.8,21.7,38.7,21.4,38.6z"/>
		<path class="st1" d="M27.5,31.9l-0.7,1.3l-4.5,0.2l3.4,1.9L25,36.5l-4.9-2.7l0.9-1.7l3.7-0.2L22,30.5l0.7-1.2L27.5,31.9z"/>
	</g>
	<g>
		<path class="st1" d="M71.3,24.9C71.3,24.7,71.4,24.9,71.3,24.9c-0.1-0.2-0.1-0.4-0.2-0.5c-0.1-0.2-0.2-0.3-0.3-0.4
			c-0.2-0.1-0.3-0.3-0.5-0.3c-0.2-0.1-0.4-0.1-0.6-0.1c-0.2,0-0.4,0.1-0.7,0.2c-0.2,0.1-0.5,0.3-0.7,0.5c-0.2,0.3-0.4,0.5-0.5,0.7
			c-0.1,0.2-0.1,0.5-0.1,0.7c0,0.2,0.1,0.4,0.2,0.6c0.1,0.2,0.2,0.3,0.4,0.5c0.1,0.1,0.3,0.2,0.5,0.3c0.2,0.1,0.3,0.1,0.5,0.2
			c0.2,0,0.1,0,0.2,0c0.1,0,0,0,0.1,0v0.1l-0.3,1c-0.1,0-0.2-0.1-0.4-0.1c-0.1-0.1-0.3-0.1-0.4-0.2c-0.2-0.1-0.3-0.2-0.5-0.3
			c-0.1-0.1-0.3-0.2-0.5-0.4c-0.7-0.6-1.1-1.3-1.1-2c-0.1-0.7,0.2-1.4,0.8-2.1c0.6-0.7,1.2-1,2-1c0.7,0,1.5,0.3,2.1,0.9
			c0.2,0.2,0.3,0.3,0.5,0.5c0.1,0.1,0.2,0.3,0.3,0.4c0.1,0.1,0.2,0.3,0.2,0.4c0.1,0.2,0.1,0.3,0.2,0.4"/>
		<path class="st1" d="M70,29.6l4.5-3.2l2.4,3.3L76,30.3l-1.5-2.1l-0.8,0.6l1.4,1.9l-0.9,0.6l-1.4-1.9l-1.1,0.8l1.5,2.1L72.4,33
			L70,29.6z"/>
		<path class="st1" d="M74.8,38l-1.7-3.7l5-2.3l0.6,1.4l-4.1,1.8l1,2.3L74.8,38z"/>
		<path class="st1" d="M75.4,40.4l4.4-1l-0.4-1.8l1-0.2l1.1,5l-1,0.2l-0.4-1.8l-4.4,1L75.4,40.4z"/>
		<path class="st1" d="M76.2,47l0-1.5l1,0l0,0l3.6-0.1l0,0l1,0l0,1.5l-1,0l0.1,0l-3.6,0.1l-0.1,0L76.2,47z"/>
		<path class="st1" d="M79.5,54.3c0.1-0.1,0.2-0.2,0.3-0.3c0.1-0.1,0.2-0.3,0.3-0.4c0.1-0.2,0.1-0.3,0.2-0.5c0-0.2,0-0.4,0-0.6
			c0-0.2-0.1-0.4-0.2-0.6c-0.1-0.2-0.3-0.3-0.5-0.5c-0.2-0.1-0.5-0.2-0.8-0.3c-0.3-0.1-0.6-0.1-0.9,0c-0.2,0.1-0.5,0.2-0.6,0.3
			c-0.2,0.1-0.3,0.3-0.4,0.5c-0.1,0.2-0.2,0.4-0.2,0.6c0,0.2,0,0.4,0,0.6c0,0.2,0.1,0.4,0.1,0.5c0.1,0.1,0.1,0.3,0.2,0.4l-0.1,0
			l-0.1,0l-1,0.2c0-0.1-0.1-0.3-0.1-0.4c0-0.2-0.1-0.3-0.1-0.5c0-0.2,0-0.4,0-0.5c0-0.2,0-0.4,0.1-0.7c0.2-0.9,0.5-1.6,1.1-2
			c0.6-0.4,1.3-0.6,2.2-0.4c0.9,0.1,1.5,0.5,1.9,1.1c0.4,0.6,0.6,1.4,0.4,2.3c0,0.2-0.1,0.4-0.1,0.6c-0.1,0.2-0.1,0.4-0.2,0.5
			c-0.1,0.1-0.1,0.3-0.2,0.4c-0.1,0.1-0.2,0.3-0.2,0.4"/>
		<path class="st1" d="M74.1,57.1c0.2-0.4,0.4-0.8,0.6-1.1c0.2-0.3,0.4-0.6,0.7-0.8l1.2,0.5l-0.1,0.1c-0.3,0.2-0.6,0.4-0.9,0.7
			c-0.3,0.3-0.4,0.6-0.6,0.9c0,0.1-0.1,0.2-0.1,0.3c0,0.1-0.1,0.3-0.1,0.3c0,0.1,0,0.2,0.1,0.3c0,0.1,0.1,0.2,0.2,0.2
			c0.1,0.1,0.3,0,0.4,0c0.1-0.1,0.2-0.2,0.3-0.3c0.1-0.2,0.3-0.4,0.4-0.6c0.1-0.2,0.3-0.4,0.4-0.5c0.3-0.4,0.6-0.6,0.9-0.7
			c0.3-0.1,0.6-0.1,1,0.1c0.5,0.2,0.8,0.6,0.9,1.1c0.1,0.6,0,1.2-0.2,1.8c-0.1,0.3-0.3,0.7-0.5,1c-0.2,0.3-0.4,0.6-0.6,0.8L77,60.8
			l0.1-0.1c0.2-0.1,0.5-0.3,0.7-0.6c0.2-0.3,0.4-0.5,0.6-0.9c0.1-0.1,0.1-0.2,0.1-0.3c0-0.1,0-0.2,0-0.3c0-0.1,0-0.2-0.1-0.3
			c0-0.1-0.1-0.2-0.2-0.2c-0.1-0.1-0.3,0-0.4,0c-0.1,0.1-0.3,0.2-0.5,0.5c-0.1,0.2-0.2,0.3-0.3,0.5c-0.1,0.2-0.2,0.3-0.4,0.5
			c-0.3,0.3-0.6,0.6-0.9,0.7c-0.3,0.1-0.6,0.1-1-0.1c-0.5-0.2-0.8-0.6-1-1.2C73.7,58.5,73.8,57.8,74.1,57.1z"/>
	</g>
	<path class="st1" d="M47.5,84.5l3-1.1c0,0,0.6-0.6,0-1c-0.6-0.4-3,0.9-3,0.9V84.5z"/>
	<path d="M47.5,83.3L47.5,83.3l0,1.4l3.2-1.2l0,0c0,0,0.3-0.3,0.3-0.7c0-0.2-0.1-0.3-0.3-0.5C49.9,81.9,47.7,83.1,47.5,83.3z
		 M50.5,82.5c0.1,0.1,0.2,0.2,0.2,0.3c0,0,0,0,0,0c0,0.2-0.2,0.4-0.2,0.5c0,0-2.6,1-2.9,1.1c0-0.2,0-0.9,0-1
		C48.3,83,50,82.2,50.5,82.5z"/>
	<path class="st1" d="M36.2,84.1L36,85c0,0,2.6,2.5,3.2,2.6c0.6,0.1,2.1,0.2,2.1,0.2s0.5-0.1,0.5-0.5C41.8,86.9,36.2,84.1,36.2,84.1
		z"/>
	<path d="M36.1,84.1L35.9,85l0,0c0.3,0.3,2.6,2.5,3.2,2.6c0.6,0.1,2,0.2,2.1,0.2c0.2,0,0.6-0.2,0.6-0.6c0-0.4-4-2.4-5.7-3.3L36.1,84
		L36.1,84.1z M36.2,84.3c2.6,1.3,5.4,2.8,5.5,3.1c0,0.3-0.4,0.4-0.4,0.4c0,0-1.5-0.1-2-0.2c-0.5-0.1-2.4-1.8-3.1-2.5
		C36.1,84.9,36.2,84.4,36.2,84.3z"/>
	<path class="st1" d="M45.7,79.3c0,0,0.2-2.7-1.1-5c-1.3-2.4,3.4-0.6,3.4-0.6l0.6,1.9c0,0-0.1,3.7,0.1,3.9c0.1,0.2-0.1,1.1-0.1,1.1
		l-2.3,0.1L45.7,79.3z"/>
	<path d="M44.5,73.2c-0.2,0.2-0.2,0.6,0.1,1.1c1.3,2.3,1.1,4.9,1.1,5l0,0l0.7,1.4l2.4-0.1l0-0.1c0-0.2,0.2-0.9,0-1.1
		c-0.1-0.2-0.1-2.5,0-3.8l0,0l-0.7-1.9l0,0C47.8,73.5,45.1,72.5,44.5,73.2z M45.8,78.8c0-0.9-0.1-2.8-1.1-4.6
		c-0.1-0.3-0.2-0.5-0.2-0.6c0-0.1,0-0.2,0.1-0.3c0.4-0.5,2.5,0.1,3.3,0.4c0,0.1,0.6,1.8,0.6,1.8c0,0.5,0,1.2,0,1.8c0,1,0,2,0.1,2.1
		c0,0,0,0.1,0,0.2c0,0.2,0,0.5-0.1,0.7c-0.1,0-2.1,0.1-2.2,0.1c0-0.1-0.6-1.2-0.6-1.3C45.8,79.3,45.8,79.1,45.8,78.8z"/>
	<path class="st1" d="M34.8,71.8l1.4,0.1l0.6-3.4c0,0-0.9-1.7-1.5-0.2C34.6,69.6,34.8,71.8,34.8,71.8z"/>
	<path d="M35.8,67.6c-0.3,0-0.5,0.2-0.7,0.6c-0.7,1.4-0.4,3.6-0.4,3.7l0,0.1l1.5,0.1l0.6-3.5l0,0C36.8,68.4,36.4,67.5,35.8,67.6z
		 M34.9,70.9c0-0.8,0.1-1.8,0.4-2.6c0.2-0.3,0.3-0.5,0.5-0.5c0.3,0,0.7,0.5,0.8,0.7c0,0.1-0.5,3.2-0.6,3.3c-0.1,0-1.1,0-1.2-0.1
		C34.9,71.6,34.9,71.3,34.9,70.9z"/>
	<path d="M37.6,54.6c0,0-0.4,1.4,0.2,3.4c0.6,2,3,8.7,3,8.7s3.4,5.8,4.5,7.4c1.1,1.5,2.4,2.1,4.8,1.2c2.5-0.9,3.5-2.8,3.7-3.8
		c0.2-0.9,0.5-2.3,0.5-2.3s4.4-9.9,4.1-12.8C58.3,53.3,37.6,54.6,37.6,54.6z"/>
	<path d="M36.9,67.8c0,0-1.4,3.1-0.9,4.3c0.4,1.2,1.4,2.1,0.6,4.4c-0.8,2.2-0.4,4.1-0.4,4.1l0.3,1.9c0,0-0.5,1.2-0.1,1.8
		c0.4,0.6,2.5,2.3,3,2.5c0.5,0.2,2.7,0.6,3.4,0.2c0.7-0.4,2.1-2.1,2.2-2.3c0.1-0.2,2.6-0.1,2.6-0.1v-0.8l3-1.3c0,0,1-0.8-1.5-3
		c0,0-1.8,1.5-3.3-0.1c0,0-1.7-0.6-4.4,0.5c0,0,0.5-7.2-1.6-11c0,0-0.4-0.7-1.1-1C37.9,67.5,36.9,67.8,36.9,67.8z"/>
	<path class="st2" d="M38.5,72.5l2.8,0.1c0,0,0.6,0.4,0.6,0.6c0,0.3,0.1,1.9,0.1,1.9s0.1,0.7-0.4,0.7c-0.4,0-2.6,0-2.6,0
		s-0.9-0.4-0.9-0.8c0-0.5-0.1-1.6-0.1-1.6S38.2,72.5,38.5,72.5z"/>
	<path d="M38.3,72.5c-0.2,0.2-0.3,0.8-0.3,0.8c0,0,0.1,1.1,0.1,1.6c0,0.5,0.9,0.9,0.9,0.9l0,0h2.6c0.1,0,0.2,0,0.3-0.1
		c0.2-0.2,0.1-0.6,0.1-0.6c0,0-0.1-1.9-0.1-1.9c0-0.3-0.6-0.7-0.6-0.7l0,0l-2.9-0.1l0,0C38.5,72.5,38.4,72.5,38.3,72.5z M38.2,75
		c0-0.5-0.1-1.6-0.1-1.6c0-0.2,0.1-0.6,0.2-0.7c0,0,0.1,0,0.1,0l0,0c0,0,2.8,0.1,2.8,0.1c0.2,0.1,0.5,0.4,0.5,0.6l0.1,1.9
		c0,0,0,0,0,0.1c0,0.1,0,0.3-0.1,0.4c0,0-0.1,0.1-0.2,0.1c0,0-2.6,0-2.6,0C38.8,75.6,38.2,75.3,38.2,75z"/>
	<path class="st2" d="M42.4,79.9l2.2-0.4c0,0,0.6,0,0.9,0.3c0.3,0.3,0.9,0.9,0.9,0.9s0.3,0.4-0.3,0.6c-0.6,0.2-1.5,0.5-1.5,0.5
		s-1,0.2-1.3-0.1c-0.3-0.3-1.1-1.1-1.1-1.1S42.2,79.9,42.4,79.9z"/>
	<path d="M42.4,79.8L42.4,79.8L42.4,79.8l-0.1,0.1c-0.2,0.2-0.1,0.7-0.1,0.7l0,0l1.1,1.1c0.3,0.3,1.3,0.1,1.4,0.1
		c0,0,1.5-0.5,1.5-0.5c0.2-0.1,0.4-0.2,0.4-0.3c0.1-0.2-0.1-0.4-0.1-0.4c0,0-0.9-1-0.9-1c-0.3-0.3-0.9-0.3-0.9-0.3L42.4,79.8z
		 M42.3,80.4c0-0.2,0-0.4,0.1-0.4l0,0l0,0l2.2-0.4c0,0,0.6,0,0.8,0.3l0.9,0.9c0,0,0.1,0.1,0,0.3c0,0.1-0.1,0.2-0.3,0.2l-1.5,0.5
		c-0.3,0.1-1,0.2-1.2,0c0,0-1-1.1-1-1.1C42.3,80.5,42.3,80.4,42.3,80.4z"/>
	<path class="st1" d="M38.9,71.8c0,0-0.4-2.4,0.5-2.5c0.8-0.1,1.5,0.8,3.3-0.1c1.8-0.8,3.2,0.4,3.1,2c-0.1,1.7-0.1,3.6-2.4,2.3
		C41,72.2,40.2,72.1,38.9,71.8z"/>
	<path d="M42.6,69.1c-1.2,0.5-1.9,0.4-2.5,0.2c-0.3-0.1-0.5-0.2-0.8-0.1c-0.1,0-0.3,0.1-0.4,0.2c-0.5,0.6-0.2,2.3-0.2,2.4l0,0.1
		l0.1,0c1.3,0.3,2.1,0.5,4.5,1.8c0.8,0.4,1.4,0.5,1.8,0.3c0.7-0.4,0.7-1.5,0.7-2.6l0-0.1c0-0.9-0.3-1.6-0.9-2
		C44.3,68.8,43.5,68.8,42.6,69.1z M42.7,69.3c0.8-0.4,1.6-0.3,2.1,0c0.6,0.4,0.9,1.1,0.9,1.9l0,0.1c0,1-0.1,2.1-0.6,2.4
		c-0.3,0.2-0.9,0.1-1.6-0.3C41,72.2,40.2,72,39,71.7c0-0.2-0.1-0.6-0.1-1c0-0.5,0.1-0.9,0.2-1.2c0.1-0.1,0.1-0.1,0.2-0.1
		c0.2,0,0.5,0,0.8,0.1C40.7,69.7,41.4,69.9,42.7,69.3z"/>
	<polygon class="st1" points="39.1,73.6 38.9,74.5 41.4,74.6 41.3,73.7 	"/>
	<path d="M39,73.6l-0.1,1l2.6,0.1l-0.1-1.1L39,73.6L39,73.6z M39.1,73.7c0.2,0,1.9,0.1,2.1,0.1c0,0.1,0,0.6,0,0.7
		c-0.2,0-2-0.1-2.2-0.1C39.1,74.3,39.1,73.8,39.1,73.7z"/>
	<path class="st1" d="M43.4,80.1l0.9-0.4c0,0,1,0.5,1.2,1.3l-0.9,0.4L43.4,80.1z"/>
	<path d="M44.3,79.6l-1,0.5l1.4,1.4l1-0.4l0-0.1C45.4,80.2,44.4,79.6,44.3,79.6L44.3,79.6L44.3,79.6z M44.3,79.8
		c0.2,0.1,0.9,0.5,1.1,1.1c-0.1,0.1-0.7,0.3-0.7,0.3c-0.1-0.1-1-1-1.1-1.1C43.8,80,44.2,79.8,44.3,79.8z"/>
	<path class="st1" d="M37,76.5c0,0,0.8-1.2,0.6,0.2c-0.2,1.4-0.4,3.7-0.1,4.4c0.4,0.7,0.3,2-0.7,0.5C35.9,80,37,76.5,37,76.5z"/>
	<path d="M37,76.4L37,76.4L37,76.4c-0.1,0.2-1.2,3.6-0.2,5.1c0.4,0.6,0.7,0.8,0.9,0.7c0.3-0.2,0.2-0.9,0-1.3
		c-0.3-0.6-0.2-2.9,0.1-4.3c0.1-0.5,0.1-0.7-0.1-0.8C37.4,75.8,37.1,76.2,37,76.4z M37.6,76.1c0,0,0,0,0,0.2c0,0.1,0,0.2,0,0.4
		c-0.1,0.8-0.3,2-0.3,2.9c0,0.7,0.1,1.2,0.2,1.5c0.1,0.2,0.2,0.5,0.2,0.7c0,0.1,0,0.3-0.1,0.3c0,0-0.2,0.1-0.7-0.7
		c-0.3-0.4-0.4-1.1-0.4-1.7c0-1.5,0.5-3.2,0.6-3.2C37.3,76.3,37.5,76.1,37.6,76.1z"/>
	<path class="st1" d="M45.6,67.7l-1.2,1.2l0.5,0.2c0,0,0.3-0.3,0.6-0.5c0.3,0.5,1.7,2.6,1.7,2.6l0.5-0.2c0,0-0.2-1.9-0.2-2
		c0.1-0.2,0.3-1.2,0.3-2.3c0-0.8-0.1-1.5-0.6-2.1l-0.7-0.2c0.3,0.4,0.7,1.6,0.7,2.2c0,1.1-0.3,2.1-0.3,2.1l-0.4,0.3"/>
	<path class="st1" d="M42,62.2c0.1,0.1,2.7,3.1,8.3,2.4l0.6-0.6c-6.5,0.5-9.2-2.6-9.2-2.6L42,62.2z"/>
	<path class="st3" d="M65.1,65.9c0,0-0.6,1.6-0.6,1.7c0,0.2-0.1,0.9,0.3,1.2c0.3,0.3,2,1.7,1.6,4.1c-0.4,2.4-0.9,3.9-0.9,3.9
		s1.4,0.5,1.7,1.7c0.2,1.2,1.2,8,1.2,8s0.1,2.1,0.3-0.3c0.2-2.5-0.5-10.2-0.6-10.9c-0.1-0.7,0.6-2.4,0.6-2.4s1.2-0.7-0.2-2.5
		c0,0-0.5-0.5-0.3-1.2c0.2-0.6-0.3-1.6-0.5-1.8c-0.2-0.3,0-1.2,0.2-1.5c0.2-0.3,1.6-2,1.4-2.9c-0.1-1-0.9-4.6-0.9-4.6l-3.5,2
		L65.1,65.9z"/>
	<path d="M68.4,58.5l-3.6,2.1c0,0,0.2,5.3,0.2,5.4c-0.2,0.6-0.6,1.6-0.6,1.8l0,0.1c0,0,0,0.1,0,0.2c0,0.3,0,0.8,0.3,1.1l0.1,0.1
		c0.4,0.4,1.5,1.5,1.5,3.2c0,0.2,0,0.5-0.1,0.7c-0.4,2.4-0.9,3.9-0.9,3.9L65.3,77l0.2,0.1c0,0,1.3,0.5,1.6,1.6
		c0.2,1.2,1.2,7.8,1.2,8c0,0.9,0.1,1,0.3,1c0.2,0,0.3-0.1,0.4-1.4c0-0.4,0-0.8,0-1.3c0-3.2-0.5-9-0.6-9.6c0,0,0-0.1,0-0.1
		c0-0.6,0.4-1.6,0.6-2.1c0.1-0.1,0.4-0.3,0.5-0.8c0-0.1,0-0.2,0-0.3c0-0.5-0.2-1.1-0.7-1.7c0,0-0.3-0.3-0.3-0.8c0-0.1,0-0.2,0-0.2
		c0-0.1,0-0.2,0-0.3c0-0.6-0.3-1.3-0.6-1.7c0-0.1,0-0.1,0-0.3c0-0.3,0.1-0.8,0.3-1c0.5-0.6,1.5-2,1.5-2.9c0,0,0-0.1,0-0.1
		c-0.1-1-0.8-4.4-0.9-4.6l-0.1-0.2L68.4,58.5z M68.4,58.9c0.2,0.8,0.7,3.5,0.8,4.3c0,0,0,0.1,0,0.1c0,0.9-1.1,2.3-1.4,2.7
		c-0.2,0.2-0.3,0.8-0.3,1.2c0,0.2,0,0.4,0.1,0.5c0.3,0.6,0.5,1.1,0.5,1.5c0,0.1,0,0.2,0,0.2c0,0.1,0,0.2,0,0.3c0,0.6,0.4,1,0.4,1
		c0.4,0.5,0.7,1,0.7,1.4c0,0.1,0,0.1,0,0.2c-0.1,0.4-0.4,0.6-0.4,0.6l-0.1,0l0,0.1c-0.1,0.2-0.6,1.5-0.6,2.3c0,0.1,0,0.1,0,0.2
		c0.1,0.6,0.6,6.3,0.6,9.5c0,0.5,0,0.9,0,1.2c-0.2-1.5-1-6.5-1.1-7.5c-0.2-1.1-1.2-1.6-1.6-1.8c0.1-0.4,0.5-1.8,0.9-3.8
		c0-0.3,0.1-0.5,0.1-0.8c0-1.9-1.2-3-1.6-3.5L65,68.7c-0.2-0.2-0.2-0.6-0.2-0.9c0-0.1,0-0.1,0-0.1l0-0.1c0-0.1,0.3-0.9,0.6-1.7l0,0
		c0,0-0.2-5-0.2-5.2C65.3,60.6,68,59.1,68.4,58.9z"/>
	<path d="M68.6,58.2l-0.2,0.1l0,0l-3.7,2.1c0,0,0.2,5.4,0.2,5.4c-0.4,1-0.6,1.6-0.6,1.8l0,0.2c0,0.5,0.1,0.9,0.4,1.2l0.1,0.1
		c0.4,0.4,1.5,1.4,1.5,3.1c0,0.2,0,0.5-0.1,0.7c-0.4,2.4-0.9,3.9-0.9,3.9l-0.1,0.3l0.3,0.1c0,0,1.3,0.5,1.5,1.5
		c0.2,1.2,1.2,7.7,1.2,8c0,0.9,0.1,1.1,0.4,1.1c0.3,0,0.4-0.2,0.5-1.4c0-0.3,0-0.8,0-1.4c0-3.2-0.5-9-0.6-9.6l0-0.1
		c0-0.5,0.3-1.5,0.5-2c0.1-0.1,0.4-0.4,0.5-0.8l0-0.3c0-0.5-0.3-1.1-0.8-1.7c0,0-0.3-0.3-0.3-0.7l0-0.2c0-0.1,0-0.2,0-0.4
		c0-0.6-0.3-1.3-0.6-1.7c0,0,0-0.1,0-0.2c0-0.3,0.1-0.8,0.2-1c0.5-0.6,1.5-2,1.5-3l0-0.2c-0.1-1-0.9-4.5-0.9-4.6l-0.1-0.4L68.6,58.2
		z M68.4,58.5c0,0,0.1,0,0.1-0.1c0,0.1,0,0.1,0,0.1c0,0,0.8,3.6,0.9,4.6l0,0.1c0,0.9-1,2.3-1.5,2.9c-0.2,0.2-0.3,0.7-0.3,1.1
		c0,0.1,0,0.2,0.1,0.3c0.2,0.4,0.6,1,0.6,1.6c0,0.1,0,0.2,0,0.3l0,0.3c0,0.4,0.3,0.8,0.3,0.8c0.5,0.6,0.7,1.1,0.7,1.6l0,0.2
		c-0.1,0.4-0.3,0.6-0.4,0.7l0,0l0,0c-0.2,0.5-0.6,1.5-0.6,2.1l0,0.2c0.1,0.6,0.6,6.4,0.6,9.6c0,0.6,0,1,0,1.3
		c-0.1,1.2-0.2,1.3-0.3,1.3c-0.1,0-0.2,0-0.2-0.9c0-0.3-1-6.8-1.2-8c-0.2-1.1-1.6-1.7-1.6-1.7c0,0,0,0-0.1,0c0,0,0-0.1,0-0.1
		c0,0,0.5-1.5,0.9-3.9c0-0.2,0.1-0.5,0.1-0.7c0-1.8-1.2-2.9-1.6-3.3l-0.1-0.1c-0.2-0.2-0.3-0.6-0.3-1.1l0-0.2c0,0,0-0.3,0.6-1.7l0,0
		c0,0-0.2-5.2-0.2-5.3C65,60.5,68.4,58.5,68.4,58.5z"/>
	<path d="M68.3,58.8l-3.2,1.9c0,0,0.2,5.2,0.2,5.3c0,0,0,0,0,0c-0.2,0.6-0.6,1.5-0.6,1.7l0,0.1l0,0.1c0,0.4,0.1,0.8,0.3,0.9l0.1,0.1
		c0.4,0.4,1.6,1.5,1.6,3.4c0,0.2,0,0.5-0.1,0.8c-0.3,1.9-0.7,3.3-0.9,3.8l0,0.1l0.1,0c0.4,0.2,1.4,0.7,1.6,1.7c0.2,1,0.9,6,1.1,7.5
		l0.2,0c0-0.3,0-0.7,0-1.2c0-3.2-0.5-9-0.6-9.5l0-0.2c0-0.8,0.5-2.1,0.6-2.2c0,0,0,0,0,0c0,0,0,0,0,0c0,0,0.3-0.2,0.4-0.6l0-0.2
		c0-0.4-0.2-0.9-0.7-1.5c0,0-0.4-0.4-0.4-0.9c0-0.1,0-0.2,0-0.3l0-0.3c0-0.4-0.2-0.9-0.5-1.5c-0.1-0.1-0.1-0.2-0.1-0.4
		c0-0.4,0.1-1,0.3-1.2c0.3-0.4,1.4-1.9,1.4-2.8l0-0.1c-0.1-0.8-0.6-3.5-0.8-4.3l0-0.1L68.3,58.8z M68.3,59c0.2,0.9,0.7,3.4,0.8,4.2
		l0,0.1c0,0.8-1.1,2.2-1.4,2.6c-0.2,0.2-0.4,0.8-0.4,1.3c0,0.2,0,0.4,0.1,0.5c0.3,0.5,0.5,1.1,0.5,1.4l0,0.2c0,0.1,0,0.2,0,0.4
		c0,0.6,0.4,1,0.4,1c0.4,0.5,0.6,1,0.6,1.4l0,0.2c-0.1,0.4-0.3,0.5-0.3,0.5l-0.1,0l0,0.1c-0.1,0.2-0.6,1.5-0.6,2.3l0,0.2
		c0.1,0.6,0.6,6.3,0.6,9.5c0,0.1,0,0.1,0,0.2c-0.3-2.1-0.8-5.7-1-6.6c-0.2-1-1.1-1.6-1.6-1.8c0.2-0.5,0.5-1.9,0.9-3.7
		c0-0.3,0.1-0.5,0.1-0.8c0-1.9-1.2-3.1-1.7-3.5l-0.1-0.1c-0.1-0.1-0.2-0.4-0.2-0.8l0-0.2c0-0.1,0.3-0.9,0.6-1.6l0,0
		c0,0-0.2-5.1-0.2-5.2C65.3,60.7,68.1,59.1,68.3,59z"/>
	<path class="st4" d="M70,63.9c0,0,0.1,1.4,1,0.5c1-0.9,0.8-1.4,1.4-2.1c0.6-0.6,0.4-1.1,0.4-1.6s0-1.4,0-1.4s-0.5-0.6-0.6-0.5
		L71,59.7"/>
	<path d="M72.3,58.7c-0.1,0-0.2,0-0.2,0.1l0.1,0l-1.2,0.8l0.2,0.3c0,0,1.1-0.7,1.2-0.8c0.1,0,0.2,0.2,0.4,0.4c0,0.1,0,1.4,0,1.4
		l0,0.3c0,0.1,0,0.2,0,0.3c0,0.3-0.1,0.5-0.4,0.8c-0.3,0.3-0.4,0.6-0.6,0.9c-0.2,0.4-0.3,0.7-0.9,1.2c-0.2,0.2-0.4,0.3-0.5,0.2
		c-0.1-0.1-0.2-0.4-0.2-0.6l-0.4,0c0,0.1,0,0.8,0.5,0.9c0.2,0.1,0.5,0,0.9-0.3c0.6-0.5,0.8-0.9,1-1.3c0.1-0.3,0.2-0.5,0.5-0.8
		c0.6-0.6,0.5-1,0.5-1.4l0-0.3v-1.5l0-0.1C72.8,59,72.5,58.7,72.3,58.7z"/>
	<polygon class="st4" points="63.9,57.8 64.4,59.6 67.5,58.5 66.8,56.4 	"/>
	<path d="M66.7,56.3l-3,1.5l0.6,2l3.4-1.2l-0.8-2.4L66.7,56.3z M66.7,56.7c0.1,0.3,0.5,1.4,0.6,1.7c-0.3,0.1-2.4,0.9-2.7,1
		c-0.1-0.3-0.4-1.2-0.4-1.4C64.4,57.8,66.4,56.8,66.7,56.7z"/>
	<path class="st4" d="M65.1,58.6c0,0-0.7,0.6-1,0.7c-0.3,0.2-0.7,0.6-0.8,1.3c-0.1,0.7,0,2-0.1,2.2c-0.1,0.2,0.2,1,0.5,1.3
		c0.2,0.3,0.5,0.6,0.5,0.6V66c0,0,1.6,0.5,1.7-0.9c0.1-1.4-0.3-1.9-0.3-1.9s0.1-1,0-1.3c-0.1-0.3,0.5-0.5,0.7-1
		c0.2-0.5,1-0.3,1.2-0.7c0,0,0.1,0.8,0.7,1.4c0,0-1,1.2-0.8,1.7c0.2,0.6,1.2,1.4,1.8,0.6l0.4-1l-0.1,1c0,0,0.5,0.4,1.2-0.6
		c0.6-1,0.8-2.3,0.9-2.6c0.1-0.3,0.4-1.3,0.6-1.6c0.2-0.3-0.2-1.3-0.5-1.6c-0.3-0.2-1.7-0.7-2,0.2L68.3,57c0,0-0.2-0.4-0.7,0.1
		c-0.5,0.5-1.2,1.1-1.2,1.1"/>
	<path d="M67.5,57c-0.5,0.5-1.2,1.1-1.2,1.1l0.2,0.3c0,0,0.7-0.6,1.2-1.1c0.1-0.1,0.3-0.2,0.3-0.2c0.1,0,0.1,0.1,0.1,0.1l0,0.1
		l0.1,0l1.5,0.8l0.1-0.2c0.1-0.2,0.2-0.3,0.4-0.4c0.5-0.1,1.1,0.1,1.3,0.2c0.3,0.2,0.6,1.1,0.4,1.3c-0.2,0.4-0.6,1.4-0.7,1.7l0,0.1
		c-0.1,0.4-0.3,1.6-0.8,2.4c-0.3,0.4-0.5,0.5-0.6,0.6c-0.1,0-0.1,0-0.2,0c0-0.2,0-0.9,0-0.9l-0.4-0.1c0,0-0.4,0.9-0.4,1
		c-0.2,0.2-0.3,0.3-0.6,0.2c-0.4-0.1-0.8-0.5-1-0.8c-0.1-0.3,0.4-1.1,0.8-1.6l0.1-0.1l-0.1-0.1c-0.5-0.5-0.6-1.2-0.6-1.2l-0.1-0.6
		l-0.3,0.6c-0.1,0.1-0.2,0.2-0.5,0.2c-0.3,0.1-0.6,0.2-0.7,0.5c-0.1,0.2-0.2,0.3-0.4,0.5c-0.2,0.2-0.4,0.4-0.3,0.7
		c0.1,0.2,0,0.9,0,1.2l0,0.1l0.1,0.1c0,0,0.4,0.5,0.3,1.7c0,0.3-0.1,0.5-0.3,0.7c-0.3,0.2-0.8,0.1-1,0.1c0-0.2,0-1.1,0-1.1l-0.5-0.7
		c-0.2-0.3-0.4-0.9-0.4-1.1c0,0,0,0,0,0c0.1-0.2,0.1-0.6,0.1-1.3l0-1c0.1-0.7,0.5-1,0.7-1.2c0.3-0.2,1-0.7,1-0.8L65,58.5
		c0,0-0.7,0.6-1,0.7c-0.2,0.1-0.8,0.6-0.9,1.5l0,1c0,0.4,0,1-0.1,1.1c0,0.1,0,0.1,0,0.2c0,0.4,0.3,1.1,0.5,1.3c0,0,0.4,0.5,0.4,0.6
		c0,0.1,0,1.2,0,1.2l0.1,0c0,0,0.9,0.3,1.4-0.1c0.3-0.2,0.5-0.5,0.5-0.9c0-0.2,0-0.3,0-0.5c0-0.9-0.2-1.3-0.3-1.5c0-0.1,0-0.5,0-0.8
		c0-0.2,0-0.4-0.1-0.6c0,0,0,0,0,0c0-0.1,0.1-0.1,0.2-0.2c0.2-0.2,0.4-0.3,0.5-0.6c0.1-0.2,0.2-0.2,0.5-0.3c0.1,0,0.3-0.1,0.4-0.2
		c0.1,0.3,0.2,0.7,0.5,1c-0.2,0.3-0.8,1-0.8,1.6c0,0.1,0,0.2,0,0.3c0.2,0.4,0.7,0.9,1.2,1c0.4,0.1,0.7-0.1,0.9-0.4l0,0
		c0,0,0,0,0-0.1c0,0,0.1,0,0.1,0c0,0,0.2,0.2,0.5,0.1c0.3-0.1,0.6-0.3,0.9-0.7c0.6-0.9,0.8-2.1,0.9-2.5l0-0.1
		c0.1-0.3,0.4-1.2,0.6-1.5c0.3-0.4-0.2-1.5-0.5-1.8c-0.2-0.2-1.1-0.5-1.7-0.3c-0.2,0.1-0.4,0.2-0.5,0.4c-0.3-0.1-1-0.6-1.1-0.6
		c0-0.1-0.1-0.2-0.3-0.2C68,56.6,67.7,56.7,67.5,57z"/>
	<path d="M69.5,57.8c0.1,0.2,0.2,1.3,0.2,1.5v2.4c0,0.3-0.1,0.5-0.1,0.5l0.4,0.1c0,0,0.1-0.3,0.1-0.6v-2.4c0-0.1-0.1-1.3-0.3-1.7
		L69.5,57.8z"/>
	<path class="st4" d="M37,41.2c0,0-2.1,0.2-2.6-0.2c-0.5-0.4-0.8-1.6-0.7-1.8c0.1-0.2,0.4-0.4,0.4-0.4s-0.9,0.6-1.4,0.4
		c-0.5-0.2-1.6-1.7-1.6-1.7s-0.2-1.3,0.3-1.7s0.5-0.5,0.5-0.5s-1-0.3-0.3-1c0.7-0.7,1.1-0.6,1.3-0.3c0,0-0.7-1,0-1.3
		c0.7-0.4,1.1,0,1.1,0l0.3,0.4l-1.8-3c0,0-0.5-1.3-0.1-1.8c0,0,0.5-1.1,1.5-0.8c0,0,0,1.3,0,1.4c0,0.1,0.3,0.8,0.5,1.1
		c0.2,0.3,1.4,1.6,1.7,1.8c0.3,0.1,0.9,0.3,1.1,0.6c0.2,0.3,0.5,0.6,0.4,1.1c-0.1,0.5-0.2,2.8,0,3c0.1,0.2,0.4,0.2,0.5,0.8
		c0,0.6,0.5,0.9,0.5,0.9l0.3,1.6L38,41.5L37,41.2z"/>
	<path d="M32.2,28.3C32.1,28.5,32,28.7,32,29c0,0.6,0.2,1.2,0.2,1.3l0,0c0,0,0.8,1.3,1.3,2.1c-0.2,0-0.5,0-0.9,0.2
		c-0.2,0.1-0.4,0.3-0.4,0.5c0,0.1,0,0.1,0,0.2c0,0.1,0,0.3,0.1,0.4c-0.3,0-0.6,0.2-1,0.6c-0.2,0.2-0.3,0.4-0.3,0.6c0,0,0,0.1,0,0.1
		c0.1,0.2,0.3,0.4,0.4,0.5c-0.1,0.1-0.2,0.2-0.3,0.3c-0.3,0.3-0.4,0.9-0.4,1.3c0,0.3,0,0.5,0,0.6l0,0l0,0c0.1,0.2,1.1,1.5,1.7,1.7
		c0.3,0.1,0.6,0,0.9-0.1c0,0.5,0.3,1.4,0.8,1.8c0.5,0.4,2.3,0.3,2.7,0.3c0,0,1.2,0.3,1.2,0.3l0.9-1.8l-0.3-1.7l-0.1,0
		c0,0-0.4-0.2-0.4-0.7c0-0.5-0.2-0.6-0.4-0.8c0,0-0.1-0.1-0.1-0.1c0-0.1,0-0.4,0-0.7c0-0.7,0-1.7,0.1-2.1c0-0.1,0-0.1,0-0.2
		c0-0.4-0.2-0.7-0.3-0.9l-0.1-0.2c-0.2-0.3-0.6-0.4-0.9-0.6l-0.3-0.1c-0.2-0.1-1.4-1.4-1.6-1.7c-0.2-0.3-0.4-0.9-0.4-1
		c0,0,0-0.2,0-0.5c0-0.2,0-0.5,0-1l0-0.1l-0.1,0C33.1,27.1,32.4,27.9,32.2,28.3z M32.4,29c0-0.2,0-0.4,0.1-0.5l0,0l0,0
		c0,0,0.4-0.9,1.2-0.7c0,0.3,0,0.6,0,0.9c0,0.2,0,0.3,0,0.4c0,0,0,0,0,0.1c0,0.3,0.4,1.1,0.5,1.2c0.2,0.3,1.4,1.7,1.8,1.8l0.3,0.1
		c0.2,0.1,0.6,0.2,0.7,0.4l0.1,0.2c0.1,0.2,0.3,0.4,0.3,0.7c0,0,0,0.1,0,0.1c0,0.2-0.1,1.3-0.1,2.1c0,0.5,0,0.9,0.1,1l0.2,0.2
		c0.1,0.1,0.2,0.2,0.2,0.5c0,0.6,0.4,0.9,0.6,1c0,0.1,0.2,1.3,0.2,1.4c0,0.1-0.6,1.2-0.7,1.4C37.7,41.2,37,41,37,41l0,0
		c-0.8,0.1-2.2,0.1-2.5-0.2c-0.4-0.3-0.7-1.3-0.7-1.5c0,0,0,0,0,0c0-0.1,0.1-0.2,0.3-0.2c0,0,0.1,0,0.1,0L34,38.7c0,0,0,0,0,0
		c-0.2,0.2-0.9,0.5-1.2,0.4c-0.3-0.1-1.1-1-1.5-1.5c0-0.1,0-0.3,0-0.5c0-0.4,0.1-0.8,0.2-1c0.4-0.4,0.5-0.5,0.5-0.6l0.1-0.2
		l-0.2-0.1c-0.1,0-0.4-0.1-0.4-0.3c0,0,0,0,0,0c0-0.1,0.1-0.3,0.2-0.4c0.4-0.4,0.6-0.5,0.8-0.5c0.1,0,0.1,0,0.2,0.2c0,0,0,0,0,0
		L33,34c0,0,0,0,0,0l0,0c-0.1-0.1-0.3-0.5-0.3-0.7c0,0,0-0.1,0-0.1c0-0.1,0.1-0.2,0.2-0.2c0.6-0.3,0.9,0,0.9,0c0,0,0.3,0.4,0.3,0.4
		l0.3-0.2c0,0-1.8-2.9-1.8-2.9C32.5,29.8,32.4,29.4,32.4,29z"/>
	<path d="M34.6,38.8c0.5,1.2,2.4,0.4,2.5,0.4L37,38.9c0,0-1.7,0.7-2.1-0.2c-0.5-1-0.6-2.6,0-3.1l-0.2-0.3C34,36,34.1,37.7,34.6,38.8
		z"/>
	<path d="M34.7,32.9c-0.1,0-0.9,0.1-1.2,0.4c-0.1,0.1-0.2,0.1-0.3,0.2c-0.3,0.2-0.8,0.5-0.8,1.2c0.1,0.6-0.1,0.9-0.2,1.1L32.3,36
		c-0.1,0.2-0.2,0.5-0.2,1c0.1,0.4,0.1,0.9,0.5,1.1c0.2,0.1,0.5,0.1,0.9-0.2c1-0.6,1.4-2.2,1.4-2.3l-0.4-0.1c0,0-0.4,1.5-1.2,2
		c-0.2,0.1-0.4,0.2-0.6,0.1c-0.2-0.1-0.3-0.6-0.3-0.8c0-0.1,0-0.1,0-0.2c0-0.3,0.1-0.5,0.2-0.6l0-0.1l0-0.1c0.1-0.2,0.2-0.5,0.2-1
		c0-0.1,0-0.2,0-0.3c0,0,0-0.1,0-0.1c0-0.4,0.3-0.6,0.6-0.8c0.1-0.1,0.2-0.1,0.3-0.2c0.2-0.2,0.7-0.3,1-0.3c0,0,1.5,0.1,1.5,0.1
		l0-0.4L34.7,32.9L34.7,32.9z"/>
	<circle class="st5" cx="29.7" cy="19.5" r="8.6"/>
	<path d="M20.9,19.5c0,4.8,3.9,8.8,8.8,8.8c4.8,0,8.8-3.9,8.8-8.8c0-4.8-3.9-8.8-8.8-8.8C24.9,10.7,20.9,14.6,20.9,19.5z M21.3,19.5
		c0-4.6,3.8-8.4,8.4-8.4s8.4,3.8,8.4,8.4c0,4.6-3.8,8.4-8.4,8.4S21.3,24.1,21.3,19.5z"/>
	<path d="M29.3,10.9c0,0.1-1.1,1.6-1.1,3.4c0.1,4.2-1.2,6.5-3.9,6.8l-2.8,0.2c-0.2,0-0.3,0.1-0.2,0.3c0,0.2,0.1,0.3,0.3,0.2l2.8-0.2
		c2.1-0.3,4.6-1.8,4.4-7.4c-0.1-1.6,1-3,1-3.1c0.1-0.1,0.1-0.3-0.1-0.4C29.5,10.8,29.4,10.8,29.3,10.9z"/>
	<path d="M22.8,14.6c0,0.1,0.1,0.3,0.2,0.3c0,0,1.7,0.3,4.5,4c0.1,0.1,0.3,0.1,0.4,0.1c0.1-0.1,0.1-0.3,0.1-0.4
		c-2.9-3.9-4.8-4.2-4.8-4.2C23,14.4,22.9,14.5,22.8,14.6z"/>
	<path d="M34.6,14.9c0,0-2,4.6-4.5,6.6c-2.4,2-5.4,3.3-6.5,3.5c-0.1,0-0.3,0.2-0.2,0.3c0,0.1,0.2,0.3,0.3,0.2
		c1.2-0.2,4.3-1.6,6.8-3.6c2.5-2.1,4.5-6.6,4.6-6.8c0.1-0.1,0-0.3-0.1-0.4C34.9,14.7,34.7,14.8,34.6,14.9z"/>
	<path d="M32.4,22.8c-0.1,0.1,0,0.3,0.1,0.4c0.7,0.4,1.7,2.3,2,3.1c0.1,0.1,0.2,0.2,0.4,0.1c0.1-0.1,0.2-0.2,0.1-0.4
		c-0.1-0.3-1.2-2.9-2.2-3.4C32.7,22.6,32.5,22.7,32.4,22.8z"/>
	<path d="M32.3,22.6c-1.9,1.8-2.6,5-2.6,5.2c0,0.1,0.1,0.3,0.3,0.3c0.1,0,0.3-0.1,0.3-0.3c0-0.3,0.7-3.2,2.4-4.8
		c1.2-1.1,2.9-1.5,4-1.4c0.5,0,0.8,0.2,0.9,0.4c0.1,0.1,0.3,0.2,0.4,0.1c0.1-0.1,0.2-0.3,0.1-0.4c-0.2-0.3-0.7-0.5-1.3-0.6
		C35.5,20.9,33.6,21.3,32.3,22.6z"/>
	<path class="st1" d="M39.6,44.8l2.1,2.1l15.6-1.3l1.9-3.9c0,0,1.4,3.5-0.3,6.2l2.8,5.2l2.2,0.4l1.8-1.9c0,0-0.9-2.9-0.9-3.9
		c-0.1-1-0.2-3.3-0.2-3.3l-1.2,0.5c0,0,0.6-3.3,0.6-3.8c0-0.4,0.3-1.2,0.3-1.2l0.1-2.2c0,0-0.6-0.2-0.6-0.6c0-0.4-1.5-3.4-1.7-3.6
		c-0.2-0.3-0.6-0.6-1-0.3c-0.4,0.2-1.8,0.5-2,0.2c-0.2-0.3-0.4-0.9-0.9-0.9c-0.5,0.1-9.5,4.1-9.5,4.1s-2.4,2.8-2.7,4
		c-0.3,1.2-0.8,1.5-0.8,1.5s-1.4-1-3.3-1.1C39.7,40.8,39.6,44.8,39.6,44.8z"/>
	<path d="M57.9,32.3c-0.5,0.1-8.6,3.7-9.5,4.1l0,0l0,0c-0.1,0.1-2.5,2.8-2.7,4.1c-0.2,0.8-0.5,1.2-0.7,1.3c-0.4-0.2-1.7-1-3.3-1.1
		c-0.4,0-0.7,0.1-1,0.4c-1.1,1-1.1,3.6-1.2,3.7l0,0.1l2.2,2.2l15.7-1.3c0,0,1.4-3,1.7-3.6c0.2,0.5,0.4,1.5,0.4,2.6
		c0,1-0.2,2.1-0.8,3l-0.1,0.1l2.8,5.4l2.3,0.5l1.9-2l0-0.1c0,0-0.9-2.9-0.9-3.9l-0.2-3.6l-0.2,0.1c0,0-0.5,0.2-0.9,0.4
		c0.1-0.9,0.5-3.1,0.5-3.5c0-0.3,0.2-0.9,0.3-1.1l0,0l0.1-2.4l-0.1,0c0,0-0.4-0.1-0.4-0.4c0-0.5-1.7-3.6-1.7-3.7
		c-0.2-0.3-0.8-0.7-1.2-0.4c-0.4,0.2-1.7,0.4-1.8,0.2L58.9,33C58.7,32.7,58.4,32.2,57.9,32.3z M58,32.6c0.3,0,0.4,0.2,0.6,0.6
		l0.1,0.2c0.3,0.5,1.9,0.1,2.3-0.1c0.3-0.2,0.6,0.1,0.7,0.3c0.2,0.4,1.7,3.2,1.7,3.5c0,0.4,0.3,0.6,0.5,0.7c0,0.2,0,2-0.1,2
		c-0.1,0.1-0.3,0.8-0.3,1.3c0,0.3-0.4,2.8-0.5,3.7L63,45.2c0,0,0.9-0.4,1.2-0.5c0,0.4,0.2,3,0.2,3c0.1,1,0.8,3.3,0.9,3.9
		c-0.1,0.1-1.5,1.6-1.6,1.7c-0.2,0-1.8-0.4-2-0.4c-0.1-0.1-2.6-4.9-2.7-5.1c0.6-1,0.8-2.1,0.8-3.1c0-1.7-0.5-3-0.6-3.1l-0.2-0.4
		c0,0-1.9,4-2,4.2c-0.2,0-15.2,1.2-15.4,1.3c-0.1-0.1-1.9-1.9-2-2c0-0.4,0.2-2.5,1-3.3c0.2-0.2,0.5-0.3,0.8-0.3
		c1.8,0.1,3.2,1.1,3.2,1.1l0.1,0.1l0.1,0c0,0,0.6-0.3,0.9-1.6c0.2-1.1,2.4-3.6,2.6-3.9C52.1,35.1,57.6,32.7,58,32.6z"/>
	<path class="st1" d="M35.6,42.3c0,0,2.7-3.9,2.9-4c0.2-0.1,0.4-0.5,0.9,0.1c0.4,0.6,1.3,1.6,1.3,1.6s0.6,1.2,0.3,2.3
		c-0.2,1-0.6,1.7-0.9,2.1c-0.4,0.4-0.9,1-0.9,1s-0.6,0.6-1,0.1c-0.4-0.5-2-2.4-2.3-2.5C35.8,42.7,35.6,42.3,35.6,42.3z"/>
	<path d="M38.5,38.1l-0.1,0.1c-0.2,0.1-1.7,2.3-3,4.1l-0.1,0.1l0,0.1c0,0,0.2,0.5,0.5,0.6c0.2,0.1,1.8,1.9,2.2,2.5
		c0.1,0.2,0.3,0.3,0.5,0.3c0.4,0,0.7-0.3,0.8-0.3c0,0,0.9-1,0.9-1c0.5-0.5,0.8-1.2,1-2.2c0.2-1.1-0.3-2.3-0.3-2.4l0,0l0,0
		c0,0-0.9-1-1.3-1.6c-0.2-0.2-0.3-0.4-0.5-0.4C38.8,37.8,38.7,38,38.5,38.1z M38.8,38.3c0.1-0.1,0.1-0.1,0.2-0.1c0,0,0.1,0,0.3,0.2
		c0.4,0.6,1.2,1.5,1.3,1.6c0,0.1,0.4,0.9,0.4,1.6c0,0.2,0,0.3,0,0.5c-0.2,0.9-0.5,1.5-0.9,2l-0.9,1c-0.1,0.1-0.3,0.2-0.5,0.2
		c-0.1,0-0.2-0.1-0.2-0.1c-0.3-0.4-2-2.4-2.3-2.6c-0.1,0-0.2-0.2-0.3-0.3c1-1.5,2.6-3.7,2.8-3.9l0,0L38.8,38.3z"/>
	<path class="st1" d="M62.2,52.9c0,0,2.8-0.8,3.1-1c0.3-0.2,0.6-0.3,0.7,0.2c0.2,0.5,0.6,2.7,0.8,3c0.3,0.3,0.3,1.1,0,1.4
		c-0.3,0.2-2.9,1.4-2.9,1.4s-1.7-0.2-1.8-0.7c-0.1-0.5-0.3-1.7-0.5-1.9c-0.2-0.2-0.2-1-0.1-1.2C61.6,53.7,61.2,52.9,62.2,52.9z"/>
	<path d="M65.2,51.7c-0.2,0.1-1.7,0.6-3,1l0,0c-0.3,0-0.5,0.1-0.7,0.3c-0.2,0.2-0.2,0.6-0.2,0.8l0,0.2c-0.1,0.2-0.1,1.1,0.1,1.4
		c0.1,0.1,0.3,1,0.4,1.5l0.1,0.4c0.1,0.6,1.5,0.8,1.9,0.9l0.1,0l0,0c0.4-0.2,2.7-1.2,3-1.4c0.2-0.1,0.3-0.4,0.3-0.8
		c0-0.4-0.1-0.7-0.2-0.8c-0.1-0.1-0.4-1.3-0.6-2c-0.1-0.4-0.2-0.8-0.2-1c-0.1-0.3-0.2-0.4-0.4-0.5C65.6,51.5,65.4,51.5,65.2,51.7z
		 M62.3,57.1l-0.1-0.4c-0.2-0.8-0.3-1.4-0.5-1.6c-0.1-0.1-0.1-0.4-0.1-0.7c0-0.1,0-0.3,0-0.3l0-0.3c0-0.1,0-0.1,0-0.2
		c0-0.1,0-0.2,0.1-0.3c0.1-0.1,0.2-0.1,0.4-0.1l0,0l0,0c0.5-0.1,2.9-0.8,3.2-1c0.1-0.1,0.2-0.1,0.3-0.1c0.1,0,0.1,0.1,0.2,0.3
		c0.1,0.2,0.1,0.5,0.2,0.9c0.3,1.2,0.4,1.9,0.6,2.1c0.1,0.1,0.1,0.3,0.1,0.5c0,0,0,0,0,0c0,0.3-0.1,0.5-0.1,0.5
		c-0.2,0.1-1.6,0.8-2.8,1.4C63.2,57.5,62.4,57.3,62.3,57.1z"/>
	<path class="st6" d="M45,61.2c-0.3,0.2-2.4-2-2.4-2l-1.7,1.2c0,0-1.1-2.8-1.5-3.3c-0.4-0.4-3-4.2-3-4.2l-1,0.1c0,0,1.7-4.1,4.2-5.8
		c2.6-1.7,5.4-5.5,6-6.7l1.6,3.2c0,0,4.9-4.8,5.4-5.6c0.5-0.8,2-5.7,2-5.7l1.2-1.3l2.6,1.3c0,0-2.2,2.4-2.9,5.7
		c-0.7,3.4-0.9,5.9-0.6,6.4c0.3,0.5,1,1.5,2.3,1.2c0,0-0.9,2.5-0.9,3.1c0,0.6,0.2,2.5,0.8,3.2c0.6,0.7,2.2,3.9,1.7,4.2
		c0,0-2.1-0.3-5,0.4C50.9,57.3,50.8,57.3,45,61.2z"/>
	<path d="M55.7,30.8l-1.2,1.3c0,0,0,0,0,0.1c0,0-1.5,4.9-2,5.7c-0.4,0.6-3.4,3.7-5.1,5.4c-0.2-0.4-1.5-3-1.5-3
		c0-0.1-0.1-0.1-0.2-0.1c-0.1,0-0.1,0-0.2,0.1c-0.6,1.2-3.4,5-5.9,6.7c-2.6,1.7-4.3,5.7-4.3,5.9c0,0.1,0,0.1,0,0.2
		c0,0.1,0.1,0.1,0.2,0.1c0,0,0.8,0,0.9,0c0.4,0.6,2.5,3.8,2.9,4.2c0.3,0.3,1.1,2.1,1.5,3.2c0,0.1,0.1,0.1,0.1,0.1c0.1,0,0.1,0,0.2,0
		c0,0,1.3-1,1.5-1.1c2.1,2.2,2.4,2,2.5,2h0c5.8-3.8,5.8-3.8,8.7-4.5l0,0c2.9-0.7,4.9-0.4,5-0.4c0,0,0.1,0,0.1,0
		c0.1-0.1,0.2-0.2,0.2-0.3c0.1-0.9-1.2-3.6-1.8-4.2c-0.6-0.6-0.7-2.5-0.7-3.1c0-0.5,0.6-2.4,0.9-3.1c0-0.1,0-0.1,0-0.2
		c0,0-0.1-0.1-0.2-0.1c-1.2,0.3-1.9-0.7-2.1-1.1c-0.2-0.4-0.2-2.6,0.6-6.3c0.7-3.3,2.8-5.6,2.8-5.7c0,0,0.1-0.1,0-0.2
		c0-0.1,0-0.1-0.1-0.1l-2.6-1.3C55.8,30.8,55.7,30.8,55.7,30.8z M55.8,31.2c0.2,0.1,2,0.9,2.3,1.1c-0.5,0.6-2.1,2.7-2.8,5.6
		c-0.5,2.2-0.7,4.2-0.7,5.4c0,0.5,0,0.9,0.1,1.1c0.2,0.4,0.9,1.5,2.2,1.3c-0.2,0.7-0.8,2.4-0.8,2.9c0,0.5,0.1,2.6,0.8,3.3
		c0.6,0.7,1.7,3.2,1.7,3.8c0,0,0,0.1,0,0.1c-0.5,0-2.4-0.2-5,0.5l0,0c-2.9,0.7-3,0.7-8.8,4.6c-0.3-0.1-1.3-1.1-2.2-2
		c-0.1-0.1-0.2-0.1-0.2,0c0,0-1.2,0.9-1.5,1.1c-0.3-0.7-1.1-2.7-1.5-3.1c-0.3-0.3-2.1-2.9-3-4.2c0-0.1-0.1-0.1-0.2-0.1
		c0,0-0.4,0-0.8,0c0.4-0.9,1.9-4.1,4.1-5.4c2.5-1.6,5.1-5,5.9-6.5c0.3,0.5,1.4,2.9,1.4,2.9c0,0.1,0.1,0.1,0.1,0.1
		c0.1,0,0.1,0,0.2-0.1c0.2-0.2,4.9-4.8,5.4-5.7c0.5-0.8,1.9-5.3,2-5.7C54.8,32.3,55.7,31.3,55.8,31.2z M44.9,61L44.9,61L44.9,61
		L44.9,61z"/>
	<path d="M47,43.5c-0.2,0.5-1.1,2.9-1.1,3.4c0,0.4-0.7,1.9-1,2.4c-0.3,0.4-2.7,5.2-2.8,6.1c-0.1,0.8-0.5,2.6,0.4,3.8
		c0.1,0.1,0.2,0.1,0.3,0c0.1-0.1,0.1-0.2,0-0.3c-0.8-1.1-0.5-2.8-0.4-3.6c0.2-0.8,2.5-5.5,2.8-6c0.2-0.4,1-2.1,1-2.6
		c0-0.3,0.7-2.1,1.1-3.2c0-0.1,0-0.2-0.1-0.2C47.1,43.4,47,43.4,47,43.5z"/>
	<path class="st6" d="M49.1,34.2c0.3-0.1,5-1.6,5-1.6s1.7-0.5,1.6,0.8c-0.2,1.3-0.8,3.6-0.8,3.6s-0.6,2-2.2,0.6
		c-1.6-1.3-2.5-1.6-2.7-1.6c-0.2,0-1.9-0.1-1.9-0.1l-3.2,1.6c0,0-1.3,0.7-1.6-0.3c-0.3-1.1-0.5-3.2-0.2-3.7c0.3-0.5,0.4-1.1,1.1-0.8
		c0.7,0.3,2.1,0.4,2.5,0.5"/>
	<path d="M54,32.5c0,0-5,1.6-5,1.6l0.1,0.3l5-1.6c0.2-0.1,0.9-0.2,1.2,0.1c0.1,0.1,0.2,0.3,0.1,0.5c-0.2,1.3-0.8,3.6-0.8,3.6
		c0,0-0.2,0.8-0.8,0.9c-0.3,0.1-0.7,0-1.2-0.4c-1.7-1.4-2.6-1.6-2.8-1.7c-0.2,0-1.7-0.1-1.9-0.1l0,0l-3.2,1.6
		c-0.2,0.1-0.7,0.3-1,0.2c-0.1-0.1-0.2-0.2-0.3-0.4c-0.3-1.1-0.4-3.1-0.2-3.6l0.1-0.2c0.2-0.5,0.3-0.6,0.8-0.5
		c0.7,0.3,1.9,0.4,2.5,0.5l0.1,0l0-0.4l-0.1,0c-0.5-0.1-1.7-0.2-2.4-0.4c-0.7-0.3-1,0.2-1.2,0.6l-0.1,0.2c-0.3,0.6-0.1,2.9,0.2,3.8
		c0.1,0.3,0.3,0.5,0.5,0.6c0.6,0.2,1.3-0.2,1.3-0.2c0,0,3.1-1.5,3.1-1.5c0.7,0,1.6,0.1,1.8,0.1c0.1,0,1,0.2,2.7,1.6
		c0.5,0.4,1,0.6,1.5,0.5c0.7-0.2,1-1.1,1-1.2c0-0.1,0.6-2.4,0.8-3.6c0.1-0.4,0-0.7-0.2-0.9C55.1,32.2,54.1,32.4,54,32.5z"/>
	<path class="st6" d="M48.2,34.4c0,0-0.4,1.8-0.1,2.1c0.3,0.3,1.2,0.3,1.5,0.1c0.2-0.2,0.6-1.6,0.3-2.1"/>
	<path d="M48,36.6c0.3,0.3,1.4,0.4,1.7,0.1c0.3-0.2,0.7-1.7,0.4-2.4l-0.3,0.2c0.2,0.5-0.1,1.8-0.3,1.9c-0.2,0.1-1,0.1-1.2-0.1
		c0,0-0.1-0.2-0.1-0.4c0-0.4,0.1-1,0.2-1.6L48,34.4C47.9,35.1,47.7,36.3,48,36.6z"/>
	<path class="st4" d="M55.6,30.6c0,1-1.1,1.6-1.6,2.1c-0.5,0.5-1.6,0.3-1.6,0.3c-0.5,0.9-1.2,0-1.2,0c0.2,0.7-1.4,1.8-2.5,1.7
		c-1.1-0.1-1.1-0.2-2.1-1.1c-1-0.9,0.5-1.1,0.5-1.1c-0.5-0.1-0.6-0.3-0.6-0.3c-1.9-0.2-3.5-1.6-3.8-3.3c-0.3-1.8,1.6-3.2,1.6-3.2
		l0.3-3.9l6.5-2.8l3.6,1.1l1.8,3.9l-0.2,5"/>
	<path d="M51.1,18.8l-6.6,2.8c0,0-0.3,3.8-0.3,4c-0.3,0.3-1.7,1.4-1.7,2.9c0,0.1,0,0.3,0,0.4c0.3,1.8,1.9,3.2,3.9,3.5
		c0,0,0.1,0.1,0.2,0.1c-0.2,0.1-0.4,0.2-0.4,0.4c0,0,0,0.1,0,0.2c0,0.2,0.1,0.4,0.4,0.7l0,0c1,0.9,1.1,1,2.2,1.1
		c0.8,0.1,1.9-0.5,2.4-1.1c0.1-0.1,0.2-0.3,0.2-0.4c0.1,0.1,0.3,0.2,0.5,0.2c0.2,0,0.4-0.2,0.6-0.4c0.3,0,1.1,0.1,1.6-0.4l0.4-0.4
		c0.5-0.4,1.2-1,1.2-1.8c0-0.1-0.1-0.2-0.2-0.2c-0.1,0-0.2,0.1-0.2,0.2c0,0.7-0.6,1.1-1.1,1.5L54,32.5c-0.4,0.4-1.4,0.3-1.4,0.3
		l-0.1,0l-0.1,0.1c-0.1,0.2-0.3,0.3-0.4,0.3c-0.2,0-0.4-0.2-0.5-0.3l-0.3,0.2c0.1,0.2-0.1,0.4-0.2,0.5c-0.4,0.5-1.4,1-2.1,1
		c-1-0.1-1-0.1-2-1l0,0c-0.2-0.2-0.3-0.3-0.3-0.4c0,0,0,0,0,0c0.1-0.2,0.4-0.3,0.7-0.3l0-0.4c-0.4-0.1-0.5-0.2-0.5-0.2l0-0.1l-0.1,0
		c-1.9-0.2-3.4-1.5-3.7-3.2c0-0.1,0-0.2,0-0.4c0-1.5,1.6-2.6,1.6-2.7l0.1,0c0,0,0.3-3.7,0.3-3.9c0.2-0.1,6.2-2.7,6.3-2.7
		c0.1,0,3.3,1.1,3.4,1.1c0.1,0.1,1.7,3.7,1.8,3.8c0,0.1-0.2,5-0.2,5c0,0.1,0.1,0.2,0.2,0.2c0.1,0,0.2-0.1,0.2-0.2l0.2-5.1l-1.9-4
		L51.1,18.8L51.1,18.8z"/>
	<path d="M56,29.3L55.9,31c0,0.1,0.1,0.2,0.2,0.2c0.1,0,0.2-0.1,0.2-0.2l0.1-1.7c0-0.1-0.1-0.2-0.2-0.2C56.1,29.1,56,29.2,56,29.3z"
		/>
	<path class="st4" d="M56.3,29.2c0,0,1.4-2,1.6-2.2c0.2-0.2,0.7-3.4-1.3-3c-2,0.5-2.4,2.9-2.4,2.9"/>
	<path d="M56.6,23.9c-2.1,0.5-2.5,3-2.5,3.1c0,0.1,0.1,0.2,0.2,0.2c0.1,0,0.2-0.1,0.2-0.2c0,0,0.4-2.4,2.2-2.8
		c0.4-0.1,0.7,0,0.9,0.3c0.2,0.3,0.3,0.8,0.3,1.3c0,0.5-0.1,1-0.2,1.1c-0.2,0.2-1.5,2-1.6,2.2c0,0,0,0.1,0,0.1c0,0.1,0,0.1,0.1,0.1
		c0.1,0.1,0.2,0,0.3,0c0.5-0.8,1.5-2,1.6-2.2c0.2-0.2,0.5-1.8,0-2.7C57.8,24.1,57.4,23.7,56.6,23.9z"/>
	<path d="M55.7,26.8l-0.3,0.1l0.8,0.7l0.1-1.1l0.7-0.8c0,0,0.2-0.6-0.4-0.2c-0.6,0.4-0.7,0.5-0.8,0.7C55.8,26.4,55.7,26.8,55.7,26.8
		z"/>
	<path class="st1" d="M35.3,27.3c0.1,0,1.7-0.6,2.2-0.4l0,2.1c0,0,0.1,0.3,0.4,0.3c0.2,0,3.5-1.3,6.4-1.1c3,0.2,0.7,0.5,0.3,0.6
		c-0.4,0-4.2-0.1-7.6,1.3c0,0-1.7,0.4-1.7-1.2C35.3,27.3,35.3,27.3,35.3,27.3z"/>
	<path d="M35.3,27.1l-0.2,0.1l0,0.1v1.6c0,0.5,0.2,0.9,0.5,1.2c0.6,0.4,1.4,0.2,1.4,0.2l0,0l0,0c2.9-1.2,6.1-1.2,7.1-1.3l0.4,0
		c1.4-0.2,1.4-0.4,1.4-0.5c0-0.2-0.1-0.3-1.7-0.5c-1.7-0.1-3.8,0.2-6.3,1l-0.2,0.1c0,0-0.1-0.1-0.1-0.1c0-0.1,0-2.2,0-2.2l-0.1-0.1
		C37.2,26.5,36.1,26.8,35.3,27.1z M37.4,27.1c0,0.2,0,2,0,2l0,0c0.1,0.2,0.3,0.4,0.6,0.4l0.3-0.1c2.4-0.8,4.4-1.1,6.1-1
		c0.5,0,0.8,0.1,1,0.1c-0.2,0-0.5,0.1-0.7,0.1l-0.4,0c-1.1,0-4.3,0.1-7.3,1.3c-0.1,0-0.7,0.2-1.1-0.2c-0.2-0.2-0.3-0.5-0.3-0.9
		c0,0,0-1.3,0-1.5C36.5,27.1,37.1,27,37.4,27.1z"/>
	<path d="M48.3,27.9c-0.1,0-0.2,0.1-0.2,0.2c0,0.1,0.1,0.2,0.2,0.2c2.3,0,2.9,0.5,3,0.8c-0.3,0.1-1.1,0.5-2,1.4c-1.1,1-2,0.4-2,0.4
		c0,0,0,0,0,0L44.1,29c-0.1,0-0.2,0-0.2,0.1c0,0.1,0,0.2,0.1,0.2l3.2,1.8c0,0,0,0,0,0c0,0,1.1,0.8,2.5-0.4c1.2-1.1,2-1.3,2-1.3
		c0.1,0,0.1-0.1,0.1-0.2c0,0,0-0.3-0.3-0.5C51.1,28.3,50.3,27.9,48.3,27.9z"/>
	<path class="st4" d="M47.3,26.7l0.7,0.7c0,0,0.4,1.1-0.7,1.1c-1.1,0-2.2,0.4-2.2,0.4s-2.2,0.3-0.8-1.4c0,0,0.7-0.5,1.2-0.7
		c0.5-0.2,1.2-1.1,1.2-1.1"/>
	<path d="M46.5,25.6c-0.2,0.2-0.7,0.9-1.1,1c-0.5,0.2-1.2,0.7-1.3,0.7l0,0l0,0c-0.5,0.6-0.6,1-0.4,1.3c0.3,0.5,1.3,0.4,1.4,0.4l0,0
		l0,0c0,0,1.1-0.4,2.2-0.4c0.4,0,0.6-0.1,0.8-0.3c0.3-0.4,0.1-1,0.1-1l0,0l-0.7-0.7c-0.1-0.1-0.2-0.1-0.3,0c0,0-0.1,0.1-0.1,0.1
		c0,0,0,0.1,0.1,0.1c0,0,0.6,0.6,0.7,0.7c0,0.1,0.1,0.2,0.1,0.4c0,0.1,0,0.2-0.1,0.3c-0.1,0.1-0.3,0.2-0.5,0.2
		c-1.1,0-2.1,0.4-2.3,0.4c-0.3,0-0.9,0-1-0.2c0,0,0-0.1,0-0.1c0-0.2,0.1-0.4,0.4-0.8c0.1-0.1,0.7-0.5,1.2-0.7
		c0.5-0.2,1.2-1.1,1.3-1.2c0,0,0-0.1,0-0.1c0-0.1,0-0.1-0.1-0.1C46.7,25.5,46.6,25.5,46.5,25.6z"/>
	<path d="M46.3,22.6c0,0-0.1,0.1-0.1,0.1c0,0,0,0.1,0,0.1c0,0,0.7,0.8,0.7,0.8c0,0.2,0.1,0.5,0.1,0.7c0,0.1,0,0.3-0.1,0.4
		c-0.2,0.4-0.7,1-0.7,1c0,0,0,0.1,0,0.1c0,0.1,0,0.1,0.1,0.1c0.1,0.1,0.2,0.1,0.3,0c0,0,0.5-0.6,0.7-1.1c0.2-0.5,0-1.3,0-1.4l0,0
		l-0.8-0.9C46.5,22.5,46.4,22.5,46.3,22.6z"/>
	<path d="M49.1,25.1c0,0.4,1.1,1.4,2.1,1.4c1,0,1.6-1,1.6-1.1l-0.3-0.2c0,0-0.5,0.9-1.3,0.9c-0.8,0-1.6-0.8-1.7-1
		c0-0.2,0.2-1.4,0.3-2.1L49.4,23C49.4,23.2,49.1,24.9,49.1,25.1z"/>
	<path d="M53.4,23.9c0,0-1.3,1-3.9,0.9c-0.1,0-0.2,0.1-0.2,0.2c0,0.1,0.1,0.2,0.2,0.2c2.8,0.1,4.1-1,4.2-1c0.1-0.1,0.1-0.2,0-0.3
		C53.6,23.9,53.5,23.9,53.4,23.9z"/>
	<path d="M52.7,22.5c0,0-0.7-0.8-0.7-0.8c-0.8-0.9-2.5-0.1-2.6-0.1l-1.6,0.8l0,0.1c0,0,0.1,0.4,0.5,1.1c0.1,0.2,0.2,0.2,0.4,0.3
		c0.5,0.1,1.1-0.4,1.5-0.7c0.2-0.2,1.2-0.4,2.1,0c0.2,0.1,0.5,0.2,0.6,0C53,22.9,52.7,22.6,52.7,22.5z"/>
	<path class="st1" d="M44.4,23.9c0,0-0.4,2-0.3,2.4c0.1,0.4,0.7,1,1.4,0.4c0.7-0.6,0.9-2.1,0-2.7C44.7,23.2,44.4,23.9,44.4,23.9z"/>
	<path d="M44.7,23.5c-0.3,0.1-0.4,0.3-0.4,0.3l0,0l0,0c0,0.2-0.4,2-0.3,2.4c0.1,0.3,0.4,0.6,0.7,0.7c0.2,0,0.5,0,0.8-0.3
		c0.4-0.3,0.6-0.9,0.6-1.5c0-0.6-0.2-1-0.6-1.3C45.2,23.6,45,23.5,44.7,23.5z M44.8,23.7c0.2-0.1,0.4,0,0.7,0.3
		c0.3,0.3,0.5,0.7,0.6,1.2c0,0.6-0.2,1.1-0.6,1.4c-0.2,0.2-0.4,0.3-0.7,0.2c-0.3-0.1-0.5-0.4-0.6-0.5c0,0,0-0.1,0-0.2
		c0-0.5,0.2-1.4,0.3-2.1C44.5,23.9,44.6,23.8,44.8,23.7z"/>
	<path d="M46.1,24.5L46,24.6l-0.2,0.1l0,0c0,0-0.9,1-0.3,1.8l0.1,0.1l0.4-0.3l0.3-0.8L46.1,24.5z"/>
	<path d="M56.6,22.8c0-0.3,0-0.7,0.1-1.5c0-0.1,0-0.3,0-0.4c0-2-1.8-2.9-1.9-2.9l0,0l0,0c-0.1,0-2.9,0.4-3.4,1.2
		c-0.1,0.1-0.1,0.3-0.1,0.4c0.3,0.9,1.4,0.9,1.7,0.9c0,0,0,0,0,0c0,1,0.9,1.7,1.1,1.8c0,0.1,0,0.2,0,0.3c0,2.8-1.5,4.6-2,5.3
		L52,28.1c0,0,0,0.1,0,0.1c0,0,0,0.1,0,0.1c0.1,0.2,0.4,0.3,0.4,0.3l0,0h0c1,0,2.2-0.2,2.2-0.2l0,0l0,0c0,0,0.3-0.4,0.3-0.7
		c0-0.1,0.1-0.5,0.2-0.9c0.1-0.6,0.2-1.1,0.2-1.2c0-1,1.2-1.5,1.2-1.5l0.1,0l0.1-1.2c0,0-0.1,0.1-0.1,0.1
		C56.6,23,56.6,22.9,56.6,22.8z"/>
	<path d="M43.6,21.6c0,0-1.8,1.4-2.2,2.3c0,0-1.3,1.3,0.8,0.2c2.1-1.1,7-4.8,7-4.8l5.2-2.1c0,0-0.1-3.1-1.1-4.3
		c-1-1.2-2.5-1.8-2.5-1.8s-1.4-0.2-2,0c-0.6,0.2-4,2-4.7,2.3c-0.8,0.3-2.1,1.9-2.2,2.6c0,0.7,0,1.9,0.3,3
		C42.5,20.2,43.6,21.6,43.6,21.6z"/>
	<path class="st6" d="M43,20.3l1.4,2.2l9.2-5c0,0,0.5-3-0.5-4.2c0,0-4.3,1.4-6,2.6C45.4,17.1,43.6,19.4,43,20.3z"/>
	<path class="st1" d="M57,15.3c0,0,0.9-0.6,1.3-0.1c0.5,0.5-0.2,1.3-0.2,1.3s-1.9,1.2-2.5,1.4c-0.6,0.3-2.7,0.9-3.4,1.2
		c-0.7,0.2-1.9,0.2-3.8,1.8c-1.9,1.5-3.6,3-4,3.4c-0.4,0.3-1.6,1.1-1.9,1.1c-0.2,0-0.6,0.2-1-0.2c-0.5-0.4-0.7-0.7,0.1-1
		c0.8-0.3,2.9-1.7,4.5-3c1.6-1.3,3.7-3,7-4C56.4,16.3,57,15.3,57,15.3z"/>
	<path d="M56.9,15.2L56.9,15.2L56.9,15.2c-0.1,0.1-0.7,1-3.9,1.9c-3.4,1-5.5,2.7-7.1,4c-1.6,1.3-3.7,2.7-4.4,3
		c-0.2,0.1-0.6,0.2-0.6,0.5c-0.1,0.3,0.2,0.5,0.5,0.8c0.4,0.4,0.8,0.3,1,0.2l0.1,0c0.3,0,1.6-0.9,2-1.2l0.6-0.5
		c0.8-0.7,2-1.7,3.5-2.9c1.5-1.2,2.6-1.5,3.3-1.6l0.4-0.1c1.8-0.6,3-1,3.4-1.2c0.6-0.3,2.4-1.4,2.5-1.4l0,0l0,0c0,0,0.8-1,0.2-1.6
		C57.9,14.5,56.9,15.2,56.9,15.2z M58.2,15.3c0.1,0.1,0.1,0.2,0.1,0.3c0,0.3-0.2,0.7-0.3,0.8c-0.2,0.1-1.9,1.2-2.4,1.4
		c-0.3,0.1-1.1,0.4-3.4,1.1l-0.4,0.1c-0.7,0.2-1.8,0.4-3.4,1.7c-1.4,1.1-2.7,2.2-3.5,2.9l-0.6,0.5c-0.4,0.3-1.6,1-1.8,1.1l-0.1,0
		c-0.2,0-0.4,0.1-0.7-0.2c-0.3-0.2-0.3-0.4-0.3-0.4c0,0,0,0,0,0c0,0,0-0.1,0.4-0.2c0.8-0.3,2.9-1.7,4.5-3c1.5-1.3,3.6-3,6.9-3.9
		c3-0.9,3.9-1.8,4-2C57.2,15.4,57.9,15,58.2,15.3z"/>
	<g>
		<path class="st0" d="M46.1,21c0,0-0.2-0.6-0.2-0.7c0-0.1,0.2-0.1,0.8-0.4c0.6-0.2,0.7-0.4,0.4-1.1c-0.4-0.7-0.6-1.2-1.1-0.4
			l-0.2,0.2l-0.2,0c0,0-0.2-1.6-0.9-0.6c-0.8,1-0.8,0.8-0.8,0.8s-0.9,1,0.7,1.1c0,0-1.6,0.3-1,1.1c0.6,0.8,0.6,0.8,0.6,0.8
			s0.4,0.4,0.8-0.8c0,0,0.3-0.3,0.3,0c0.1,0.3,0.3,0.4,0.3,0.4L46.1,21z"/>
		<path class="st0" d="M48.1,16.7c0,0-1.6,0.1-0.8,0.9c0.9,0.8,0.9,0.8,0.9,0.8s0.5,0.4,0.9-0.5c0.2-0.3,0.2-0.4,0.3-0.1l0,0.5
			l0.2,0.1l1-0.5l-0.5-0.7l0.7-0.2c0,0,0.4-0.1,0.3-0.8c-0.1-0.7-1.1-1.3-1.3-0.5c0,0,0.4-1.4-0.9-0.9c-0.8,0.3-1.3,0.8-1.3,0.8
			S47.1,16.2,48.1,16.7z"/>
		<path class="st0" d="M53.6,16.2c0,0-0.3,0.4-0.8,0.3c-0.6-0.1-0.6-0.5-0.6-0.7c0-0.3-0.1-0.5-0.2-0.6c-0.1-0.1-0.5-0.6-0.1-0.8
			c0.4-0.3,1,0,1,0s-0.5-0.7-0.2-0.9c0.3-0.3,0.8-0.3,0.9,0.7c0.1,0.9,0.4,1.5,0.4,1.5s0,0.4-0.2,0.9c-0.1,0.5-0.1,0.5-0.1,0.5
			L53.6,16.2z"/>
		<path class="st0" d="M52.2,42.6c-0.1-0.2-0.7-0.3-1.1-0.3c0.4-0.4,0.9-0.8,0.9-1.4c0-0.3-0.3-1-0.7-0.8c-0.7,0.3-1.2,1-1.7,1.5
			c-0.6,0.7-1.3,1.3-2,1.9c0,0-0.1,0.1,0,0.1c0,0,0,0.1,0.1,0.1c0.3,0.1,0.6,0.3,0.9,0.4c0.1,0-0.5,1-0.5,1c-0.1,0-0.1,0.1-0.1,0.1
			c-0.1,0.6,1,0.8,1.3,0.9c0.1,0,0.2,0,0.2-0.1c0-0.5,0-1.1,0.6-0.7c0.2,0.1,0.4,0.3,0.6,0.3c0.6,0,0.9-0.3,0.8-0.8
			c-0.1-0.6,0.5-1,0.7-1.6C52.1,42.9,52.3,42.7,52.2,42.6z"/>
		<path class="st0" d="M56.5,45.8c-0.2-0.2-0.6-0.2-0.8-0.2c-0.7,0.1-0.5-0.8-0.7-1.2c-0.1-0.2-0.4-0.3-0.6-0.3
			c-0.2,0-1.7,0.4-1.8,0.3c0-0.1-0.2-0.1-0.2,0c-0.6,0.6-0.4,0.9,0.2,1.3c0.2,0.2,0.4,0.3,0.4,0.6c0-0.1-0.8,0.1-0.8,0.1
			c-0.3,0.1-0.4,0.3-0.4,0.5c0,0.3,0.3,0.6,0.5,0.8c0.3,0.3,0.5,0.5,0.7,0.9c0.1,0.1,0.2,0.3,0.3,0.4c0.9,0.5,1.5-0.5,1.5-1.3
			c0,0,0,0,0,0c0.6,0.7,0.2,1.2-0.2,1.7c0,0.1,0,0.2,0,0.2c0.4,0.2,0.7,0.2,1-0.2c0.4-0.5-0.2-1.5,0.5-1.6
			C57,47.7,57,46.4,56.5,45.8z"/>
		<path class="st0" d="M51.3,50.5c-0.3-0.7,0-1.1,0.1-1.8c0-0.2-0.1-0.6-0.3-0.8c-0.8-0.4-1.3,0.5-1.7,1.1c-0.2-0.7,0.8-1.5,0.1-2
			c-0.2-0.1-0.5,0-0.7,0.1c-0.5,0.2-0.9,0.4-1.5,0.3c-0.5-0.1-0.7,0.5-0.5,0.8c0.2,0.3,0.4,0.6,0.7,0.8c0.1,0.1,0.6,0.5,0.2,0.3
			c-0.2-0.1-0.4-0.2-0.6-0.3c-0.3-0.1-1,0-1.1,0.3c-0.1,0.3,0,0.5,0,0.8c0.1,0.5,0.2,1,0.3,1.6c0.1,0.4,0.5,0.5,0.8,0.3
			c0.2-0.2,0.3-0.4,0.5-0.7c0.3-0.4,0.4-0.6,0.9-0.6c0.2,0.5,0.2,1.1-0.2,1.5c-0.1,0.1-0.3,0.2-0.3,0.4c0,0.3,0.1,0.5,0.5,0.5
			c0.3,0,0.5-0.4,0.6-0.6c0.3-0.6,0.4-1.1,0.3-1.7c0.4,0.3,0.9,0.6,1.4,0.6C51.4,51.6,51.6,51,51.3,50.5z"/>
		<path class="st0" d="M56.5,54c0-0.4,0.2-1.1-0.1-1.5c-0.5-0.8-1-0.2-1.6,0.2c0.2-0.5,0.4-1,0.2-1.5c-0.2-0.6-0.9-0.4-1.3-0.1
			c-0.5,0.4-0.8,0.4-1.4,0.5c-0.2,0-0.5,0.2-0.6,0.4c-0.1,0.4,0.1,0.8,0.4,1.1c-0.4-0.1-0.8-0.2-1.3-0.1c-0.6,0.2,0.2,1.2,0.2,1.5
			c0,0.6-0.4,1.4,0.5,1.7c0.6,0.2,1.2-0.8,1.7-1.1c0.1,0.5,0.1,0.9-0.2,1.4c0,0.1,0,0.2,0.1,0.2c1-0.1,1-0.6,0.9-1.5
			c-0.1-1,1.1,0.2,1.5,0.4c0.3,0.2,0.6,0.2,0.9-0.1C56.9,55.2,56.5,54.4,56.5,54z"/>
		<path class="st0" d="M48.5,56.1c-0.1-0.4-0.1-0.7-0.1-1.1c0-0.1,0-0.2,0-0.3c-0.1-0.2-0.4-0.5-0.6-0.3c-0.2,0.1-0.4,0.3-0.6,0.5
			c-0.7,0.5-0.6-0.1-0.3-0.6c0.2-0.3,0.2-0.6,0.1-0.9c-0.2-0.3-0.7-0.3-1-0.2c-0.3,0.1-0.5,0.3-0.9,0.4c-0.4,0.1-0.8,0.1-1.1,0.2
			c-0.9,0.3-0.2,1.3,0.2,1.9c-0.5-0.1-1.1-0.2-1.3,0.1c-0.3,0.5,0,0.8,0.3,1.2c0.3,0.3,0.4,0.7,0.5,1.1c0,0.1,0.1,0.2,0.3,0.3
			c0.5,0.1,1.1-0.9,1.5-0.8c0.1,0.5-0.2,1.6,0.4,1.9c0.6,0.3,0.8-0.6,0.8-1c0-0.2-0.1-0.4-0.2-0.6c-0.1-0.4,0.2-0.9,0.6-0.5
			c0.3,0.3,0.5,0.5,0.9,0.5C49.1,58.1,48.7,56.7,48.5,56.1z"/>
		<path class="st0" d="M40.6,51.8c-0.7-0.3-1.4,0.5-2.1,0.9c0.3-0.4,0.6-0.7,0.6-1.2c0-0.4-0.4-0.5-0.7-0.4
			c-0.7,0.1-1.3-0.2-1.9-0.1c-0.5,0.1-0.7,1-0.8,1.3c0,0,0,0,0,0.1c0,0.1,0,0.1,0.1,0.1c1.3,0.3,1.8,1.7,2.2,2.8
			c0,0.1,0.2,0.1,0.3,0c0.1-0.2,0-0.4,0-0.6c0.6,0.4,0.9,1.1,1.8,0.9c0.8-0.2,0.5-2,0.6-2.5C40.8,52.8,41.1,51.9,40.6,51.8z"/>
		<path class="st0" d="M44.5,46.5C44.3,46,43.6,46,43.1,46c0.5-0.3,1-0.7,1-1.2c0-0.5-0.9-0.5-1.2-0.4c-0.7,0.2-1.1,1.4-1.6,1.8
			c-0.5,0.5-1,0.9-1.6,1.2c-0.2,0.1-0.6,0.2-0.6,0.5c0,0.1,0,0.1,0.1,0.1c0.4,0.1,0.9,0,1.2,0.2c-0.1,0.8-0.6,3,1,2.4
			c0.1,0,0.1-0.1,0.1-0.2c-0.3-0.5-0.3-1.1-0.2-1.6c0.2-1.1,0.4-0.1,0.7,0.2c0.6,0.6,1.1,0.4,1.6-0.2C44,48.2,44.9,47.3,44.5,46.5z"
			/>
		<path class="st0" d="M46.2,34.3c-0.1,0-0.3,0-0.4,0c0.1-0.2,0.2-0.5,0.1-0.6c-0.5-0.7-0.9-0.1-1.5,0c-0.2,0-1-0.3-0.9,0.2
			c0,0.1,0.1,0.2,0.2,0.3c0.1,0.1,0.2,0.2,0.3,0.3c-0.2,0-0.3,0-0.5,0.1c-0.4,0.4,0.3,0.9,0.2,1.3c0,0.2,0,0.6,0.3,0.6
			c0.4,0,0.6-0.3,0.9-0.6c0.1,0.3,0,0.6-0.1,0.9c-0.1,0.2,0.1,0.3,0.3,0.2c0.1,0,0.1,0,0.2,0c0.3-0.2,0.3-0.5,0.3-0.7
			c0.2,0.2,0.5,0.3,0.7,0.1c0.4-0.3,0.1-0.9,0.3-1.3C46.6,34.8,46.6,34.4,46.2,34.3z"/>
		<path class="st0" d="M54.1,34.7c-0.2,0-0.4,0-0.6,0.1c0.1-0.2,0.2-0.4,0.1-0.6c-0.1-0.4-0.5-0.4-0.9-0.4c-0.3,0-1-0.1-1.2,0.2
			c-0.1,0.3,0.1,0.5,0.3,0.7c-0.2,0-0.5,0-0.6,0.1c-0.2,0.2-0.1,0.6,0,0.9c0.3,0.7,0.9,0.6,1.5,0.3c-0.1,0.2-0.3,0.4-0.5,0.5
			c-0.1,0.1-0.1,0.2,0,0.3c0.1,0,0.1,0.1,0.2,0.1c0,0.1,0.1,0.2,0.2,0.2c0.3-0.1,0.4-0.4,0.5-0.7c0.1,0.2,0.2,0.4,0.4,0.4
			c0.7,0.2,0.5-0.9,0.6-1.2C54.2,35.5,54.6,34.8,54.1,34.7z"/>
	</g>
</g>
</svg>
