<?xml version="1.0" encoding="utf-8"?>
<!-- Generator: Adobe Illustrator 19.1.0, SVG Export Plug-In . SVG Version: 6.00 Build 0)  -->
<svg version="1.1"
	 id="svg2" sodipodi:docname="Brooklyn Nets Logo.svg" inkscape:version="0.48.2 r9819" xmlns:inkscape="http://www.inkscape.org/namespaces/inkscape" xmlns:sodipodi="http://sodipodi.sourceforge.net/DTD/sodipodi-0.dtd" xmlns:cc="http://creativecommons.org/ns#" xmlns:dc="http://purl.org/dc/elements/1.1/" xmlns:rdf="http://www.w3.org/1999/02/22-rdf-syntax-ns#" xmlns:svg="http://www.w3.org/2000/svg"
	 xmlns="http://www.w3.org/2000/svg" xmlns:xlink="http://www.w3.org/1999/xlink" x="0px" y="0px" viewBox="-74 76 250 250"
	 enable-background="new -74 76 250 250" xml:space="preserve">
<sodipodi:namedview  id="base" inkscape:document-units="px" inkscape:pageshadow="2" fit-margin-right="0" inkscape:window-y="-8" fit-margin-bottom="0" inkscape:window-width="1920" inkscape:pageopacity="0.0" inkscape:window-height="1030" inkscape:window-x="-8" inkscape:window-maximized="1" inkscape:current-layer="layer2" inkscape:guide-bbox="true" borderopacity="1.0" showguides="true" bordercolor="#666666" pagecolor="#ffffff" showgrid="false" fit-margin-left="0" inkscape:cx="92.548433" fit-margin-top="0" inkscape:cy="105.68038" inkscape:zoom="2.8284271">
	<sodipodi:guide  id="guide3020" orientation="0,1" position="616,-9"></sodipodi:guide>
</sodipodi:namedview>
<g id="layer2" transform="translate(-104.84159,-612.36982)" inkscape:label="Layer" inkscape:groupmode="layer">
	
		<path id="path2997" sodipodi:nodetypes="scscscsscscscs" inkscape:connector-curvature="0" stroke="#000000" stroke-width="0.3195" d="
		M157.913,693.371c-52.207,0.399-89.502,19.172-89.851,19.552c-0.075,37.031,5.993,71.221,20.592,99.116
		c16.1,30.761,46.817,59.315,69.908,66.157c28.098-9.337,55.756-37.34,70.274-66.09c14.052-27.826,20.207-61.498,20.225-98.953
		C216.7,697.999,185.259,693.162,157.913,693.371L157.913,693.371z M158.023,696.377c26.351-0.196,56.699,4.399,88.043,18.783
		c0.335,37.922-6.756,69.93-19.952,95.585c-16.295,31.679-44.704,56.953-67.424,64.566c-25.477-7.695-54.048-38.172-67.554-64.054
		c-19.906-38.145-20.871-81.325-19.741-96.569C71.731,714.319,107.716,696.752,158.023,696.377L158.023,696.377z"/>
	<path id="path2997-1-7" sodipodi:nodetypes="ccscsc" inkscape:connector-curvature="0" stroke="#000000" stroke-width="0.2994" d="
		M243.302,716.62c-52.067-24.001-124.004-22.8-169.367,0.179c-0.721,44.599,10.805,77.293,21.428,96.671
		c11.982,21.857,39.367,51.112,63.479,58.884c32.789-11.344,62.27-50.462,72.137-78.813
		C240.584,765.943,243.192,749.327,243.302,716.62z"/>
	<path id="path3825" inkscape:connector-curvature="0" fill="#FFFFFF" stroke="#000000" stroke-width="0.3195" d="M86.326,777.198
		l0.057-56.633c0,0-0.2-0.599,0.799-0.999c0.999-0.399,7.675-2.853,7.675-2.853s0.856-0.314,1.056,0.171
		c0.2,0.485,17.118,43.081,17.118,43.081l-0.342-47.36c0,0-0.021-0.856,0.813-1.048s5.893-1.289,5.873-1.289
		c-0.02,0,0.746-0.121,0.746,0.686s-0.1,56.801-0.1,56.801s-0.093,0.977-0.849,1.127c-0.756,0.15-8.252,1.926-8.224,1.926
		c0.029,0-0.913,0.228-1.227-0.571c-0.314-0.799-16.605-42.368-16.605-42.368s0.257,47.161,0.228,47.189
		c-0.029,0.029,0.086,0.77-0.656,1.056c-0.742,0.285-5.506,1.912-5.506,1.912S86.326,777.997,86.326,777.198L86.326,777.198z"/>
	<path id="path3829" inkscape:connector-curvature="0" fill="#FFFFFF" stroke="#000000" stroke-width="0.3195" d="M126.297,709.695
		c0,0-0.285-0.827,1.17-0.999c1.455-0.171,9.044-1.912,28.445-2.425c0,0,1.312-0.285,1.312,0.628s0,3.766,0,3.994
		c0,0.228-0.086,0.913-0.827,0.913c-0.742,0-13.695-0.029-22.339,1.712L134,733.204c0,0,6.02-1.284,18.345-1.427
		c0,0,0.679-0.408,0.679,0.641s0,3.833,0,3.833s0.081,1.089-0.807,0.968c-0.888-0.121-14.203,0.444-18.318,1.412l-0.04,22.232
		c0,0,7.222-1.291,22.353-1.614c0,0,0.968-0.282,0.968,0.847c0,1.13,0,3.551,0,3.551s0.242,1.13-0.968,1.13
		c-1.21,0-17.955,0.282-28.728,2.421c0,0-1.089,0.161-1.089-0.605L126.297,709.695z"/>
	
		<path id="path2996" sodipodi:nodetypes="cccscsc" inkscape:connector-curvature="0" fill="#FFFFFF" stroke="#000000" stroke-width="0.3195" d="
		M175.377,764.496l-0.04-52.049c0,0-7.989-0.867-13.577-0.646c0,0-0.787,0.081-0.787-0.746s-0.02-4.176-0.02-4.176
		s-0.201-0.681,0.746-0.646c1.011,0.038,18.901,0.172,35.103,3.228c0,0,0.847,0.161,0.847,0.847s0,3.954,0,3.954
		s-0.121,1.049-0.928,0.888s-6.657-1.291-13.678-2.058v51.807c0,0,0.202,1.009-0.726,0.928l-6.012-0.484
		C176.305,765.343,175.417,765.424,175.377,764.496L175.377,764.496z"/>
	
		<path id="path3009" sodipodi:nodetypes="cscccccccccccccccscccccccccc" inkscape:connector-curvature="0" fill="#FFFFFF" stroke="#000000" stroke-width="0.3195" d="
		M225.166,735.243c0,0-0.686-0.363-0.646-0.888c0.04-0.525,0.04-7.706,0.04-7.706s-0.121-3.914-5.084-6.617
		c0,0-3.228-2.058-8.513-1.896c-0.202,0.04-3.147,0.121-3.349,4.398c0,0-0.242,5.044,1.856,7.828c0,0,3.268,4.358,7.384,8.473
		l6.698,7.021c0,0,5.85,6.052,7.585,9.643c0,0,1.735,2.623,1.937,9.159c0,0,0.767,9.603-6.94,10.006c0,0-5.81,1.17-16.906-3.51
		c0,0-10.289-3.631-11.136-13.275l-0.081-8.957c0,0-0.04-0.888,0.847-0.847l6.093,1.17c0,0,0.682,0,0.686,0.888l0.04,8.634
		c0,0,0.282,7.908,14.243,10.006c0,0,5.608,1.251,5.528-4.075l0.04-4.519c0,0-0.121-4.237-6.294-10.289l-13.436-13.476
		c0,0-4.812-4.795-5.729-11.136c0,0-0.444-6.052,1.654-9.482c0,0,4.519-7.868,20.739-0.161c0,0,8.271,3.147,9.28,11.459l0.444,9.603
		c0,0-0.081,0.968-0.928,0.807S225.166,735.243,225.166,735.243L225.166,735.243z"/>
	
		<path id="path2999" sodipodi:nodetypes="cscscscc" inkscape:connector-curvature="0" fill="none" stroke="#000000" stroke-width="0.3195" d="
		M153.914,791.862c0,0-0.285-0.086-0.285,0.342c0,0.428,0,18.003-0.029,18.003c0,0-0.029,0.314,0.314,0.314
		c0.342,0,4.508-0.029,4.508-0.029s4.793-0.628,4.793-4.879s0-9.729,0-9.729c0.136-4.494-3.739-4.019-4.936-4.051L153.914,791.862z"
		/>
	
		<path id="path3001" sodipodi:nodetypes="ccsscccc" inkscape:connector-curvature="0" fill="none" stroke="#000000" stroke-width="0.3195" d="
		M153.914,816.827c0,0-0.285-0.029-0.314,0.342c0,0,0.029,22.254,0,22.254s0,0.371,0.428,0.399s6.476,0.086,6.476,0.086
		c0.545-0.303,5.004,0.79,5.021-6.277v-11.212c-0.108-0.955-0.504-5.722-7.931-5.592L153.914,816.827z"/>
	
		<path id="path3772" sodipodi:nodetypes="cccccccccccccccccccccc" inkscape:connector-curvature="0" fill="#FFFFFF" stroke="#FFFFFF" stroke-width="0.3195" d="
		M146.639,775.429c-4.964,1.084-15.121,5.763-22.425,15.692c9.187-1.427,16.719,3.595,19.515,4.793l0.057,2.967
		c-9.586-4.907-15.349-5.421-20.941-5.364c-2.054,1.883-6.578,13.305-6.02,24.308c1.55,0.93,2.796,7.361,26.847,12.953l-0.057,3.595
		c0,0-17.547-1.871-26.505-13.626c1.04,10.112,9.021,26.794,24.109,31.885c13.26,1.89,21.078-2.459,33.055-8.425
		c12.981-6.869,12.847-7.302,17.064-9.318c1.076-4.156,1.221-7.515,1.221-7.515c-7.182,3.591-17.302,5.551-17.302,5.551l-0.04-2.945
		c8.796-1.614,17.511-5.689,17.511-5.689c0.075-5.496-0.553-8.92-0.553-8.92c-6.277,3.766-17.175-0.171-18.83-0.571
		c-1.312-2.168-1.883-2.111-1.883-2.111c1.369-1.769,0.97-2.397,0.97-2.397c5.193,2.739,13.752,4.28,18.944,1.883
		C185.44,787.754,163.871,773.032,146.639,775.429L146.639,775.429z"/>
	<path id="path3002" sodipodi:nodetypes="ccc" inkscape:connector-curvature="0" fill="#FFFFFF" d="M144.699,854.572
		c5.846,4.253,39.041,5.588,45.905-16.804C175.757,846.999,161.767,857.013,144.699,854.572L144.699,854.572z"/>
	<path id="path3003" sodipodi:nodetypes="cccc" inkscape:connector-curvature="0" fill="#FFFFFF" d="M189.297,843.699
		c0,0,5.528-6.173,5.689-8.433c-0.451-0.439-1.293,0.279-1.896,0.686C193.509,836.127,191.08,840.853,189.297,843.699z"/>
	<path id="path3010" sodipodi:nodetypes="ccccc" inkscape:connector-curvature="0" fill="#FFFFFF" d="M195.49,825.623
		c-0.06,1.009,0.202,1.553-1.473,8.029c1.13-0.323,1.251-0.404,2.098,0.484c2.811-4.972,3.718-10.482,3.954-13.557
		C198.012,824.574,195.49,825.623,195.49,825.623L195.49,825.623z"/>
	<path id="path2998" inkscape:connector-curvature="0" stroke="#000000" stroke-width="0.3195" d="M146.729,787.09
		c0.032,19.304,0.044,38.608,0.088,57.912c0.828,2.207,4.004,0.745,5.887,1.14c3.489-0.085,6.996,0.11,10.475-0.156
		c4.467-0.671,8.628-4.307,8.845-8.993c0.034-5.578,0.025-11.161-0.016-16.739c-0.405-3.114-2.667-6.027-5.656-7.051
		c2.981-1.635,3.879-5.233,3.645-8.394c-0.089-3.691,0.121-7.399-0.224-11.077c-0.319-3.351-2.437-6.699-5.861-7.519
		c-2.918-0.786-5.965-0.332-8.948-0.443c-2.477,0.037-4.972-0.052-7.437,0.065C146.985,785.977,146.697,786.561,146.729,787.09
		L146.729,787.09z"/>
	<path id="path3777" inkscape:connector-curvature="0" fill="#FFFFFF" stroke="#000000" stroke-width="0.3195" d="M153.8,791.862
		c0,0-0.257,0.057-0.257,0.314c0,0.257,0.029,18.031,0.029,18.031s-0.029,0.257,0.285,0.228c0.314-0.029,4.536,0,4.536,0
		s4.765-0.029,4.793-5.078l0.029-9.957c0,0,0.371-3.481-3.737-3.509L153.8,791.862z"/>
	
		<path id="path3779" sodipodi:nodetypes="ccsccccc" inkscape:connector-curvature="0" fill="#FFFFFF" stroke="#000000" stroke-width="0.3195" d="
		M153.6,816.741l-0.029,22.739c0,0-0.029,0.399,0.542,0.399c0.571,0,6.733-0.029,6.733-0.029s4.593,0.542,4.565-6.02l-0.029-12.068
		c0,0-0.514-5.078-7.532-5.021L153.6,816.741z"/>
	<path id="path3793" sodipodi:nodetypes="ccccc" inkscape:connector-curvature="0" fill="#FFFFFF" d="M198.992,804.929
		c1.969,4.28,1.512,10.984,1.512,10.984c-1.312,3.595-2.939,5.678-5.078,7.047c0.029-6.248-0.97-9.529-0.97-9.529
		C198.25,810.093,198.992,804.929,198.992,804.929L198.992,804.929z"/>
	
		<path id="path3795" sodipodi:nodetypes="ccc" inkscape:connector-curvature="0" fill="#FFFFFF" stroke="#FFFFFF" stroke-width="0.3195" d="
		M196.624,799.908c-2.739-13.866-21.74-28.416-41.94-26.305c24.291,2.557,35.879,26.121,39.03,36.462
		C197.081,808.353,196.624,799.908,196.624,799.908L196.624,799.908z"/>
	
		<path id="path3011" sodipodi:nodetypes="ccscccccccc" inkscape:connector-curvature="0" stroke="#000000" stroke-width="0.3195" d="
		M82.694,889.016l0.037,42.874c0,0,0,0.514,0.171,0.514c0.171,0,10.956,0,10.956,0c0.366,0.013,6.263-1.484,6.277-6.733v-11.583
		c-0.096-1.973-1.879-4.7-4.565-5.078c0.222-0.236,3.155-1.678,3.081-5.135l0.02-9.183c0.085-2.762-2.277-5.562-5.483-5.599
		L82.694,889.016z"/>
	<path id="path3012" inkscape:connector-curvature="0" fill="#FFFFFF" stroke="#000000" stroke-width="0.3195" d="M86.934,892.802
		c-0.02,0.04-0.161,0-0.161,0.262s0.04,14.021,0.04,14.021s-0.061,0.182,0.161,0.182c0.222,0,2.845,0,2.845,0s4.58,0.222,4.64-3.692
		l-0.02-7.969c0,0,0.363-2.703-3.369-2.764L86.934,892.802z"/>
	<path id="path3014" inkscape:connector-curvature="0" fill="#FFFFFF" stroke="#000000" stroke-width="0.3195" d="M86.994,911.04
		c-0.202,0.202-0.161,0.303-0.161,0.303l0.02,17.168c0,0-0.02,0.182,0.121,0.182c0.141,0,5.185,0.02,5.185,0.02
		s4.015,0.182,3.974-4.943l-0.02-7.747c0,0,0.424-4.983-5.265-4.963L86.994,911.04z"/>
	
		<path id="path3784" sodipodi:nodetypes="ccscsccccccccccc" inkscape:connector-curvature="0" stroke="#000000" stroke-width="0.3195" d="
		M102.588,889.16l0.171,42.729c0,0,0.057,0.514,0.285,0.456c0.228-0.057,3.252,0,3.252,0s0.456-0.057,0.456-0.571
		c0-0.514,0.057-19.857,0.057-19.857l3.538-0.057l7.69,20.479l3.759,0.01c0,0,0.3-0.067,0.34-0.288v-0.666l-7.505-19.841
		c0.725-0.015,5.613-2.229,5.588-6.143l0-10.289c0,0-0.484-6.012-7.646-5.971L102.588,889.16z"/>
	
		<path id="path3013" sodipodi:nodetypes="ccccccc" inkscape:connector-curvature="0" fill="#FFFFFF" stroke="#000000" stroke-width="0.3195" d="
		M106.765,892.823l0.02,15.252h6.193c0,0,3.006-0.121,2.966-3.389l0.02-7.868c0,0,0.343-4.015-3.551-3.974L106.765,892.823z"/>
	<path id="path3015" sodipodi:nodetypes="ccccc" inkscape:connector-curvature="0" stroke="#000000" stroke-width="0.3195" d="
		M122.902,897.824l0.057,26.191c0.096,11.917,18.245,12.123,18.202,0.114l-0.057-26.419
		C141.222,884.926,122.845,885.784,122.902,897.824z"/>
	
		<path id="path3017" sodipodi:nodetypes="ccccc" inkscape:connector-curvature="0" fill="#FFFFFF" stroke="#000000" stroke-width="0.3195" d="
		M127.01,897.254v26.647c-0.057,6.735,10.043,7.019,10.1,0v-26.362C137.107,890.893,127.082,890.671,127.01,897.254L127.01,897.254z
		"/>
	<path id="path3015-1" sodipodi:nodetypes="ccccc" inkscape:connector-curvature="0" stroke="#000000" stroke-width="0.3195" d="
		M143.672,897.738l0.057,26.191c-0.019,11.917,18.245,12.123,18.202,0.114l-0.057-26.419
		C161.993,884.84,143.615,885.698,143.672,897.738L143.672,897.738z"/>
	
		<path id="path3017-7" sodipodi:nodetypes="ccccc" inkscape:connector-curvature="0" fill="#FFFFFF" stroke="#000000" stroke-width="0.3195" d="
		M147.78,897.167v26.647c-0.057,6.735,10.043,7.019,10.1,0v-26.362C157.877,890.807,147.852,890.584,147.78,897.167z"/>
	
		<path id="path3786" sodipodi:nodetypes="ccccscccccccccccccccccc" inkscape:connector-curvature="0" stroke="#000000" stroke-width="0.3195" d="
		M168.151,888.752l-3.195-0.029c-0.057,0.043-0.578-0.101-0.485,0.514l0.057,42.51c0,0-0.013,0.446,0.371,0.456
		c0.485,0.013,3.224,0,3.224,0c0.033-0.022,0.56,0.112,0.514-0.485v-16.177l2.225-4.037l7.375,20.299c0,0,0.043,0.357,0.414,0.371
		h3.481c0,0,0.385,0.057,0.399-0.3c0.014-0.357-0.014-0.77-0.014-0.77l-8.916-24.793l8.873-16.847c0,0,0.185-0.685-0.342-0.67
		h-3.795c-0.119,0.013-0.227,0.045-0.271,0.171l-9.387,18.416l-0.043-18.188c0,0,0.071-0.456-0.3-0.442L168.151,888.752z"/>
	
		<path id="path3019" sodipodi:nodetypes="ccccccscsccc" inkscape:connector-curvature="0" stroke="#000000" stroke-width="0.3195" d="
		M188.086,888.929l-3.349-0.04c0,0-0.484,0-0.484,0.726l0.024,42.178c0,0,0.223,0.42,0.465,0.42l14.359,0.017
		c0,0,0.363-0.109,0.363-0.553v-2.722c0,0,0.121-0.444-0.484-0.444h-10.369l-0.04-39.138
		C188.57,889.373,188.409,888.889,188.086,888.929L188.086,888.929z"/>
	
		<path id="path3021" sodipodi:nodetypes="ccscccccccscsccc" inkscape:connector-curvature="0" stroke="#000000" stroke-width="0.3195" d="
		M197.689,888.929h-3.147c0,0-0.565,0.282-0.444,0.767s8.392,23.805,8.392,23.805l0.081,18.358c0,0-0.081,0.404,0.202,0.444
		c0.282,0.04,3.268,0,3.268,0s0.444,0,0.444-0.444v-18.318l8.796-23.967c0,0,0.323-0.726-0.484-0.686c-0.807,0.04-3.309,0-3.309,0
		s-0.444,0-0.605,0.605s-6.214,18.318-6.214,18.318l-6.214-18.439C198.456,889.373,198.213,888.929,197.689,888.929L197.689,888.929
		z"/>
	
		<path id="path3023" sodipodi:nodetypes="ccscscscccccccccccc" inkscape:connector-curvature="0" stroke="#000000" stroke-width="0.3195" d="
		M221.417,888.923h-4.394c0,0-0.428,0.029-0.456,0.571c-0.029,0.542-0.029,42.396-0.029,42.396s-0.143,0.485,0.342,0.485
		s3.11,0.024,3.11,0.024s0.514,0.005,0.542-0.594c0.029-0.599-0.143-34.749-0.143-34.749l8.616,34.92c0,0,0.23,0.347,0.573,0.376
		h4.57c0,0,0.421,0.081,0.421-0.49v-42.482c0,0-0.029-0.371-0.571-0.399l-3.11-0.029c0,0-0.456-0.029-0.456,0.428l0.543,36.266
		l-9.038-36.333C221.938,889.312,221.905,888.917,221.417,888.923L221.417,888.923z"/>
</g>
</svg>
