<?xml version="1.0" encoding="utf-8"?>
<!-- Generator: Adobe Illustrator 19.1.0, SVG Export Plug-In . SVG Version: 6.00 Build 0)  -->
<svg version="1.1" id="Layer_1" xmlns="http://www.w3.org/2000/svg" xmlns:xlink="http://www.w3.org/1999/xlink" x="0px" y="0px"
	 viewBox="0 0 100 100" style="enable-background:new 0 0 100 100;" xml:space="preserve">
<style type="text/css">
	.st0{fill-rule:evenodd;clip-rule:evenodd;fill:#FFFFFF;}
	.st1{fill:none;stroke:#FFFFFF;stroke-width:1.5358;stroke-miterlimit:2.6131;}
	.st2{fill-rule:evenodd;clip-rule:evenodd;fill:#6F7A83;}
	.st3{fill-rule:evenodd;clip-rule:evenodd;fill:#0D355E;}
	.st4{fill-rule:evenodd;clip-rule:evenodd;fill:#B9CAD1;}
	.st5{fill-rule:evenodd;clip-rule:evenodd;fill:#D52D48;}
</style>
<g>
	<path class="st0" d="M85.9,67.6c0-1-1.6-2-4.4-2.8c-1.7-0.5-3.8-0.9-6.3-1.5c3.1-8.9,4.4-18.3,4.3-26.2c0,0-1.7-1-4.3-2.7
		c-2.6-1.6-6.3-3.9-11.2-6.5c-2.4-1.3-5-2.7-8-4c-2.9-1.3-6.1-2.6-9.5-4c-3.4-1.3-7.1-2.6-10.9-3.7c-3.8-1.2-7.9-2.2-12.1-3.1
		c-1.3,1.1-2.5,2.2-3.8,3.3c0,0-0.2,1.3-0.3,3.7c0,2.3,0,5.7,0.3,10c0.2,2.1,0.3,4.4,0.6,6.9c0.3,2.6,0.7,5.2,1.2,8
		c0.5,2.8,1.1,5.7,1.9,8.8c0.7,2.8,1.5,5.7,2.5,8.7c-2.1,0.3-4,0.7-5.5,1.2c-2.4,0.8-3.8,1.6-4,2.6c-0.2,0.3-0.3,0.5-0.2,0.8l0,0
		l0,0c0,1,1.6,2,4.2,2.8c2.5,0.8,5.8,1.5,9.7,2.1c0.4,0.7,0.9,1.5,1.4,2.3c1.6,2.6,3.7,5.4,6.2,8c2.4,2.6,5.6,5,8.9,6.8
		c1.8-0.2,3.6-0.3,5.4-0.4c9.9-3.4,15.6-9.8,19.2-16.2l0,0c4.1-0.5,7.7-1.1,10.3-1.9c2.4-0.7,3.9-1.5,4.4-2.2l0,0
		C85.9,68.3,85.9,67.7,85.9,67.6L85.9,67.6z M29,70.4L29,70.4c-5.6-0.9-9.9-2.1-10.2-3.2c0.6-0.9,3.3-1.8,7.4-2.3
		C26.5,65.4,27.4,67.5,29,70.4L29,70.4z M73.4,67.8c0.3-0.7,0.7-1.5,0.9-2.1c5.6,0.8,9.1,1.8,9.4,2.9l0,0c-0.1,0.1-0.2,0.2-0.2,0.2
		c-0.1,0-0.1,0-0.1,0.1c0,0-0.1,0.1-0.3,0.2l0,0c-0.2,0.1-0.4,0.3-0.7,0.3h-0.1c-0.2,0.1-0.3,0.2-0.4,0.2c0,0,0,0-0.1,0
		c-0.1,0.1-0.3,0.2-0.4,0.2h-0.1c-0.2,0.1-0.3,0.2-0.5,0.2c-0.1,0-0.1,0.1-0.2,0.1c-0.2,0-0.3,0.1-0.6,0.1c-2.1,0.5-4.9,0.9-8.3,1.3
		h-0.1C72.4,70.1,73,68.9,73.4,67.8L73.4,67.8z"/>
	<path class="st1" d="M85.9,67.6c0-1-1.6-2-4.4-2.8c-1.7-0.5-3.8-0.9-6.3-1.5c3.1-8.9,4.4-18.3,4.3-26.2c0,0-1.7-1-4.3-2.7
		c-2.6-1.6-6.3-3.9-11.2-6.5c-2.4-1.3-5-2.7-8-4c-2.9-1.3-6.1-2.6-9.5-4c-3.4-1.3-7.1-2.6-10.9-3.7c-3.8-1.2-7.9-2.2-12.1-3.1
		c-1.3,1.1-2.5,2.2-3.8,3.3c0,0-0.2,1.3-0.3,3.7c0,2.3,0,5.7,0.3,10c0.2,2.1,0.3,4.4,0.6,6.9c0.3,2.6,0.7,5.2,1.2,8
		c0.5,2.8,1.1,5.7,1.9,8.8c0.7,2.8,1.5,5.7,2.5,8.7c-2.1,0.3-4,0.7-5.5,1.2c-2.4,0.8-3.8,1.6-4,2.6c-0.2,0.3-0.3,0.5-0.2,0.8l0,0
		l0,0c0,1,1.6,2,4.2,2.8c2.5,0.8,5.8,1.5,9.7,2.1c0.4,0.7,0.9,1.5,1.4,2.3c1.6,2.6,3.7,5.4,6.2,8c2.4,2.6,5.6,5,8.9,6.8
		c1.8-0.2,3.6-0.3,5.4-0.4c9.9-3.4,15.6-9.8,19.2-16.2l0,0c4.1-0.5,7.7-1.1,10.3-1.9c2.4-0.7,3.9-1.5,4.4-2.2l0,0
		C85.9,68.3,85.9,67.7,85.9,67.6 M29,70.4L29,70.4c-5.6-0.9-9.9-2.1-10.2-3.2c0.6-0.9,3.3-1.8,7.4-2.3C26.5,65.4,27.4,67.5,29,70.4
		 M73.4,67.8c0.3-0.7,0.7-1.5,0.9-2.1c5.6,0.8,9.1,1.8,9.4,2.9l0,0c-0.1,0.1-0.2,0.2-0.2,0.2l-0.1,0.1c0,0-0.1,0.1-0.3,0.2l0,0
		c-0.2,0.1-0.4,0.3-0.7,0.3h-0.1c-0.2,0.1-0.3,0.2-0.4,0.2H82c-0.1,0.1-0.3,0.2-0.4,0.2h-0.1c-0.2,0.1-0.3,0.2-0.5,0.2l-0.2,0.1
		c-0.2,0-0.3,0.1-0.6,0.1c-2.1,0.5-4.9,0.9-8.3,1.3h-0.1C72.4,70.1,73,68.9,73.4,67.8"/>
	<path class="st2" d="M79.5,37.2c0,0-1.7-1.1-4.3-2.7c-2.6-1.7-6.3-4-11.2-6.6c-2.4-1.3-5-2.7-8-3.9c-2.9-1.4-6.1-2.7-9.5-4
		c-3.4-1.4-7.1-2.6-10.9-3.8c-3.8-1.1-7.9-2.2-12.1-3.1c0,0-0.1,3.8,0.2,9.9c0.1,3,0.3,6.6,0.8,10.4c0.2,2,0.4,4,0.7,6.1
		c0.3,2.1,0.7,4.3,1.1,6.4c0.3,2.1,0.9,4.4,1.4,6.6c0.5,2.2,1.1,4.4,1.8,6.6c0.7,2.1,1.5,4.3,2.2,6.3c0.9,2.1,1.8,4.1,2.8,6.1
		c2,3.8,4.4,7.4,7.2,10.3c2.8,3,6.5,5.5,10.3,7.1c12.6-4.3,18.3-13.3,21.6-21.1C77.9,57.7,79.6,46.4,79.5,37.2L79.5,37.2z"/>
	<path class="st3" d="M29.3,59.1c-0.7-2.2-1.3-4.4-1.8-6.6c-0.5-2.2-1-4.4-1.4-6.6c-0.4-2.1-0.8-4.3-1.1-6.4
		c-0.3-2.1-0.5-4.1-0.7-6.1c-0.4-3.8-0.7-7.4-0.8-10.4c-0.3-6.1-0.2-9.9-0.2-9.9c-1.3,1.1-2.5,2.2-3.8,3.3c0,0-0.2,1.3-0.3,3.7
		c0,2.3,0,5.7,0.3,10c0.2,2.1,0.3,4.4,0.6,7c0.3,2.5,0.7,5.1,1.2,7.9c0.5,2.8,1.1,5.7,1.9,8.8c0.8,3.1,1.6,6.2,2.7,9.5
		c1.5-0.3,3-0.4,4.4-0.6C30.1,61.6,29.7,60.3,29.3,59.1L29.3,59.1z"/>
	<path class="st4" d="M23.4,13.1c0.9,0.9,2.6,2.6,2.6,2.6c5.5,9.7,22.5,39.6,22.5,39.6l30-17.6c0.3-0.2,0.8-0.3,1-0.5c0,0,0,0,0,0
		c0,0,0,0,0,0c0,0,0,0,0,0c0,0,0,0,0,0c-0.2-0.1-1.8-1.2-4.3-2.7c-2.6-1.7-6.3-4-11.2-6.6c-2.4-1.3-5-2.7-8-3.9
		c-2.9-1.4-6.1-2.7-9.5-4c-3.4-1.4-7.1-2.6-10.9-3.8C31.7,15.1,27.7,14,23.4,13.1L23.4,13.1z M79.5,37.2
		C79.5,37.2,79.5,37.2,79.5,37.2L79.5,37.2L79.5,37.2z M79.5,37.2C79.5,37.2,79.5,37.2,79.5,37.2L79.5,37.2L79.5,37.2z"/>
	<path class="st3" d="M26,15.7c-0.1,3.9,0,7.7,0.3,11.2c0.2,3.6,0.4,6.9,0.9,10.1c0.3,3.1,0.8,6.1,1.4,8.9c0.5,2.7,1.1,5.4,1.7,7.8
		c0.7,2.5,1.4,4.7,2.1,6.8c0.8,2.1,1.6,3.9,2.3,5.8c6.1,14.4,18.5,20.9,18.5,20.9c3.2-1.3,6.6-3.2,9-5.3c2.4-2.1,4.4-4.4,6.2-6.9
		c1.7-2.6,3.2-5.3,4.4-8.1c1.2-2.7,2.1-5.6,2.9-8.4c0.8-2.7,1.3-5.4,1.7-7.9c0.4-2.5,0.7-4.8,0.9-6.7c0.3-2.2,0.3-6.3,0.3-6.3
		C52.1,20.2,26,15.7,26,15.7L26,15.7z"/>
	<path class="st2" d="M70.2,63.5c-0.1-0.3-0.3-0.3-0.7,1.2c-3.4-0.4-7-0.2-10.3-0.1c-3.4,0.1-6.7,0.3-9.5,0.8
		c-3.8,0.5-6.8,1.1-8.4,1.5c-1.3-1.9-2.1-3.2-2.4-2.9c-0.1,0.2-0.2,0.9,0,2.4c0,0.2,0.1,0.5,0.1,0.8c0.5,3.7,2.1,7,4.1,9.4
		c2.1,2.5,4.4,3.9,7.3,4.4c0.9,0.1,2.4,0.2,3.4,0c0.8-0.1,0.3,0,2.2-0.3c1.9-0.3,4.8-1.6,5.1-1.8c0,0,0,0,0.1,0v-0.1
		c3-1.5,5.5-3.6,7.1-6.1c1.5-2.5,2.3-5.3,2-8.4C70.2,64.1,70.2,63.8,70.2,63.5L70.2,63.5z M61.1,78.8L61.1,78.8L61.1,78.8z
		 M61.2,78.8L61.2,78.8L61.2,78.8z"/>
	<path class="st4" d="M41.3,66.9c1.5-0.3,4.5-0.9,8.4-1.5c2.8-0.4,6.1-0.7,9.5-0.8c3.2-0.1,6.8-0.3,10.3,0.1
		c0.3-1.1,0.5-1.4,0.7-1.4c-0.3-1.6-1-3.1-2-4.5c-0.1-0.1-0.2,0-0.3-0.2c-0.1-0.2-0.2-0.6-0.3-0.8c-1-1.4-2.3-2.6-3.8-3.6
		c-2.1-1.4-3.4-2.5-7-3.1c-1.5-0.3-3-0.4-4.1-0.4c-7.1,0.4-10.1,3.9-11.4,6c-0.8,1.3-1.8,3.7-2.2,6.3c0,0.3-0.1,0.5-0.1,0.8
		C39.2,63.8,40.1,65.1,41.3,66.9L41.3,66.9z"/>
	<path class="st4" d="M66.9,68.2c0,0-0.1,0.9-0.2,1c-1.1,1.9-2.7,3.8-6.2,5.9c-4.3,2.1-9,0.5-9,0.5c-3.4-0.8-6.2-3.5-8.3-6.2
		c2.1-0.8,4.5-1.4,7.1-1.8c3-0.5,6.1-0.9,8.9-1c2.1-0.1,4-0.2,5.6-0.2c1-0.1,1.2,0.3,1.6,0.6C66.8,67.2,66.9,68.2,66.9,68.2
		L66.9,68.2z"/>
	<path class="st3" d="M67.4,66.8c0-1.6-0.1-3.3-0.3-5.1c-0.1-0.3-0.2-0.8-0.3-1.2c1-0.5,1.1-1.5,1.1-1.8h0c-0.1-0.1-0.1-0.5-0.3-0.7
		c-0.1,0.8-0.5,1.2-1.2,1.3c-1.4-3.5-4.3-5.9-7.3-7.2c-0.6-0.3-1.1-0.5-1.9-0.8c-0.2,0-0.3-0.1-0.5-0.1c-0.7-0.1-1.4-0.2-2.1-0.3
		c1.1,0.3,2.3,0.8,3.6,1.5c2.6,1.5,5.3,3.6,6.6,6.8c-0.7-0.2-1.4-0.3-2.2-0.7c-2.7-1-6-3-8.6-4.7c-2.4-1.6-4.4-2.2-5.8-2.3
		c-1.3,0.4-2.3,0.9-3.2,1.5l1.5-0.3c1.4,0,2.5,0.3,3.8,0.9c2,0.9,4.2,2.5,7.8,4.5c3.5,2.1,5.8,2.7,7.3,2.6c0.1,0.6,0.2,1.2,0.2,1.8
		c0.1,1.5,0.1,2.8,0,4.1c-2.8,0.2-4.4,1.1-5.8,2.4c-1.6,1.4-3.2,3.1-6.7,4.2c-4.3,1.5-9.4,1.3-11.4,1.2c0.4,0.7,0.8,1.3,1.3,1.9
		c0.9-0.1,3.8-0.3,9.1-1.3c3.4-0.7,5.6-2.6,7.6-4.2c1.7-1.5,3.4-2.8,5.7-3.1c-0.3,2.4-0.8,4.4-1.5,6c-1.1,2.6-2.7,4.4-4.4,5.5
		c-0.5,0.3-1,0.6-1.6,0.8c1.1-0.4,2.1-0.8,2.7-1c1.7-1,3.1-2.4,4.2-4.1c1.2-1.8,2-3.8,2.3-6.2c0.1-0.2,0.1-0.4,0.1-0.6l0,0
		c0-0.1,0-0.2,0-0.3c0-0.1,0.1-0.1,0.1-0.2l0,0l0,0c0,0,1.5-0.3,2,0.5c0.3,0.5,0.3,1.3,0.2,1.8c0,0.2,0,0.4-0.1,0.5
		c0.2-0.5,0.4-1.1,0.6-1.7c0-0.1,0-0.1,0-0.1C69.9,68,69.6,67,67.4,66.8L67.4,66.8z"/>
	<path class="st0" d="M66.3,67.3c0,0-0.2,2.5-1.2,5.2c-1.1,2.8-3.1,6-6.9,7.4c0,0,1.5-0.7,3-2.6c1.6-1.9,3.4-5,4-9.7
		C65.6,67.5,66,67.5,66.3,67.3L66.3,67.3z"/>
	<path class="st0" d="M66.3,67.3c-0.2,0.3-0.4,0.6-0.6,0.9c0,0-2.2-0.2-4.9,2.1c-3.5,3.2-5.3,4.6-7.8,5.2c-2.7,0.8-6.8,1.3-10.2,0.9
		l0.3-1c0,0,3.8,0.4,9.1-0.9c3.2-0.9,5.2-2.6,7.7-4.6C61.7,68.6,63.3,67.3,66.3,67.3L66.3,67.3z"/>
	<path class="st0" d="M69.2,71c0,0,0.7-1.7,0.1-2.7c-0.4-0.8-1.5-1.1-2.8-1c0.3,0.3,0.5,0.7,0.8,0.9C67.2,68.2,70.3,67.8,69.2,71
		L69.2,71z"/>
	<path class="st0" d="M66.3,67.2c-0.3-0.2-0.7-0.3-1-0.4c0-0.9,0-4.4-0.5-6.3c0.3,0,0.5-0.1,0.9-0.1C66.3,62.1,66.3,66.2,66.3,67.2
		L66.3,67.2z"/>
	<path class="st0" d="M66.9,61c-0.4-0.3-0.8-0.3-1.2-0.6c0,0,1.7,0.3,2-1.7c0,0,0,0,0,0c0.1,0.1,0.2,0.1,0.3,0.1
		C68.4,59.7,68,60.5,66.9,61L66.9,61z"/>
	<path class="st0" d="M65.7,60.3c0,0-1-2.9-3.6-5.4c-2.4-2.3-5.3-3.4-6.9-3.9c-0.4,0-0.7-0.1-1-0.1c2.1,0.5,6.6,2.1,9.9,8.2
		C64.6,59.5,65.1,59.8,65.7,60.3L65.7,60.3z"/>
	<path class="st0" d="M65.7,60.4c0,0-1.9,0-4.8-1.2c-2.3-1-7.4-4.3-8.8-5.1c-1.8-1.2-3.8-1.8-6.2-1.6c-0.3,0.2-0.7,0.4-1,0.5
		c0.3-0.1,1-0.1,2.1,0.1c1.9,0.2,3.2,0.6,5.7,2.1c2.4,1.5,5,3.1,7.4,4.2c1.7,0.8,2.7,1.3,4.8,1.5C65.1,60.8,65.4,60.5,65.7,60.4
		L65.7,60.4z"/>
	<path class="st3" d="M31.1,64.4c1.7,4.2,3.8,7.9,6,10.9c2.2,3.2,4.5,5.6,6.7,7.7c4.3,3.9,8,5.9,8,5.9c-1.8,0.2-3.6,0.3-5.4,0.4
		c-3.2-1.8-6.5-4.3-8.9-6.8c-2.5-2.6-4.5-5.4-6.2-8c-3.2-5.1-5.1-9.7-5.1-9.7L31,64L31.1,64.4L31.1,64.4z"/>
	<path class="st3" d="M51.8,88.9c-0.2-0.1-3.8-2-8-5.9c-2.1-2.1-4.4-4.5-6.7-7.7c-2-2.8-3.9-6.2-5.6-10c0,0,0,0,0,0.1
		c0.9,2.1,1.8,4.1,2.8,6.1c2,3.8,4.4,7.4,7.2,10.3C44.4,84.8,48,87.3,51.8,88.9L51.8,88.9z"/>
	<path class="st5" d="M42.9,22.9l-5.4-1.7l1.1,13.5c-1.1-3.1-4.3-14.4-4.3-14.4L29.1,19c0,0-0.8,21.7,6.2,40.8c0,0,3-3.9,4.4-5.5
		c0,0-2.2-7.9-3.2-13.1c1.3,2.8,4.7,11.6,4.7,11.6l4.2-2.1C43.5,36.9,42.9,22.9,42.9,22.9L42.9,22.9z"/>
	<path class="st5" d="M66.3,32.9c0,0-4.4-2.4-11.8-5.6V29l-1-2.1c-2.5-1.1-8.6-3.2-8.6-3.2C44.5,34.1,47,50,47,50
		c0.1,0,4.3-1.7,9.5-1.1l-0.3-5c0,0-3.2-0.3-4.6-0.3l-0.4-3.8c0.7,0.1,3.5,0.4,3.5,0.4l-0.4-4.4l-3.5-1.1l-0.3-3.8
		c0.9,0.3,5.2,1.9,7.4,2.9L58,49.3c0,0,2.6,0.6,4.9,2.1l-0.1-15.3l3.4,1.5V32.9L66.3,32.9z"/>
	<path class="st5" d="M66.1,36.6c0,1.1-0.1,3.4-0.1,3.7c0.3,2.3,0.8,4.2,1.7,6.1c0.8,1.6,1.3,2.8,1.5,4.1c-1.8-2-4.9-4.2-4.9-4.2
		v5.9c0.1,0,5.6,4.4,7.5,10.1c0,0,2.4-3.2,2.3-10.6c0-3.1-1.5-5.8-2.6-8.3c-0.5-1.4-0.6-2.5-0.5-3c0.9,0.7,4.6,3.4,4.6,3.4l0.3-5
		c0,0-4.9-3.2-7.4-4.5L66.1,36.6L66.1,36.6z"/>
	<path class="st3" d="M75,63.9c-1.5-0.3-3.2-0.5-5-0.7c-2.8-0.3-5.8-0.7-9.1-0.9c-3.3-0.2-6.8-0.3-10.3-0.4c-3.6-0.1-7-0.1-10.3,0
		c-3.2,0.2-6.3,0.3-9.1,0.6c-0.3,0-0.5,0.1-0.8,0.1c0.2,0.6,0.5,1.3,0.7,1.9c2.7-0.3,5.8-0.4,9.2-0.5c3.4,0,7,0,10.9,0.1
		c3.6,0.1,7,0.2,10.3,0.4c3.2,0.2,6.2,0.4,9,0.8c1.4,0.2,2.7,0.3,3.9,0.5C74.6,65.1,74.8,64.5,75,63.9L75,63.9z"/>
	<path class="st0" d="M81.6,64.9c-2.8-0.9-6.7-1.6-11.4-2.2c-2.8-0.3-5.9-0.7-9.1-0.9c-3.2-0.2-6.7-0.3-10.3-0.4
		c-3.6-0.1-7.1-0.1-10.3,0c-3.2,0.1-6.3,0.3-9.1,0.5c-4.6,0.5-8.5,1.1-11.1,2c-2.6,0.9-4.1,1.8-4.1,2.9c0.1,1,1.6,2,4.1,2.7
		c2.4,0.9,5.6,1.5,9.3,2.1c-0.3-0.4-0.5-0.9-0.8-1.2c-5.7-0.9-10.1-2.1-10.1-3.3c-0.1-1.5,4.8-2.6,12.4-3.2c2.8-0.3,5.9-0.4,9.3-0.5
		c3.3-0.1,7-0.1,10.8,0c3.6,0.1,7.1,0.3,10.3,0.5c3.2,0.2,6.2,0.4,9,0.8c8,0.9,13.3,2.2,13.3,3.6c0.1,0.7-1.3,1.3-3.7,1.9
		c-2.1,0.4-4.9,0.9-8.3,1.2c-0.2,0.3-0.4,0.6-0.6,0.9c4.2-0.4,7.7-1.1,10.3-1.8c2.8-0.8,4.4-1.7,4.4-2.7
		C85.9,66.6,84.3,65.7,81.6,64.9L81.6,64.9z"/>
	<path class="st3" d="M81.4,65.4c-2.7-0.9-6.7-1.6-11.4-2.2c-2.8-0.3-5.8-0.7-9.1-0.9c-3.3-0.2-6.8-0.3-10.3-0.4
		c-3.6-0.1-7-0.1-10.3,0c-3.2,0.2-6.3,0.3-9.1,0.6c-4.6,0.4-8.5,1.1-11.1,2c-2.7,0.8-4.1,1.8-4,2.9c0,0.9,1.6,1.9,4.2,2.7
		c2.6,0.9,6.2,1.6,10.2,2.2c-0.1-0.3-0.2-0.4-0.3-0.7c0.1,0,0.1,0,0.1,0c-0.1-0.1-0.1-0.2-0.2-0.3c0-0.1,0-0.2-0.1-0.3
		c0,0,0,0-0.1,0c-0.1-0.3-0.3-0.5-0.3-0.6c0-0.1-0.7-0.1-0.8-0.1c-5.6-0.9-9.8-2-10.1-3.2c0.9-1.3,5.5-2.2,12.3-2.8
		c2.7-0.3,5.8-0.4,9.2-0.5c3.4,0,7,0,10.9,0.1c3.6,0.1,7,0.2,10.3,0.4c3.2,0.2,6.2,0.4,9,0.8c7.9,0.9,13.1,2.1,13.3,3.4
		c-0.4,0.6-1.7,1-3.6,1.5c-2.1,0.4-4.9,0.9-8.3,1.2h-0.1c-0.1,0.3-0.3,0.4-0.3,0.7c-0.2,0.3-0.3,0.5-0.4,0.8
		c4.1-0.5,7.7-1.1,10.3-1.9c2.9-0.8,4.5-1.7,4.5-2.7C85.7,67.1,84.1,66.2,81.4,65.4L81.4,65.4z"/>
	<path class="st5" d="M46.6,61.8C46.6,61.8,46.6,61.8,46.6,61.8c-0.3,0-0.5,0-0.6,0c0,0-0.1,0-0.1,0c0,0-0.1,0-0.1,0
		c0,0-0.1,0-0.1,0c0,0-0.1,0-0.1,0c0,0-0.1,0-0.1,0c-0.1,0-0.1,0-0.2,0c-0.1,0-0.1,0-0.2,0c0,0,0,0-0.1,0c0,0-0.1,0-0.1,0
		c0,0,0,0-0.1,0c0,0-0.1,0-0.1,0c0,0,0,0-0.1,0c-0.2,0-0.4,0-0.6,0c0,0,0,0-0.1,0c-1.3,0-2.5,0-3.7,0.1c-0.1,0-0.1,0-0.2,0
		c-2.5,0.1-4.8,0.3-7,0.4c-0.6,0.1-1.2,0.1-1.8,0.2c-1,0.1-2,0.2-2.9,0.3c0,0,0,0,0,0c0,0-0.1,0-0.1,0c-3.3,0.4-6.1,1-8.2,1.6
		c-2.6,0.7-4,1.7-4,2.8c0,0,0,0,0,0c0,0.1,0,0.1,0,0.1c0,0,0,0,0,0c0,0,0,0,0,0v0c0-0.8,1.9-1.6,4.7-2.3c2.8-0.8,6.6-1.4,10.4-1.7
		c2.7-0.2,5.8-0.3,9.1-0.4c3.3-0.1,7-0.1,10.8,0c3.6,0.2,7.3,0.3,10.8,0.5c3.5,0.3,6.8,0.6,9.4,0.9c4,0.5,7.6,1.3,10.2,2.1
		c2.6,0.9,4.1,1.7,4.1,2.4c0-0.1,0.1-0.2,0.1-0.3c0-0.1,0-0.1,0-0.2c-0.1-1-1.7-2-4.4-2.7c-2.7-0.9-6.7-1.6-11.4-2.2
		c-2.8-0.3-5.8-0.7-9.1-0.9c-3.3-0.2-6.8-0.3-10.3-0.4C49.3,61.8,47.9,61.8,46.6,61.8L46.6,61.8z"/>
	<path class="st5" d="M85.9,68.1c-0.1-1-1.6-2-4.4-2.8c-2.7-0.8-6.7-1.5-11.4-2.1c-2.7-0.3-5.8-0.7-9.1-0.9
		c-3.2-0.2-6.8-0.3-10.3-0.4c-3.6-0.1-7-0.1-10.3,0c-3.2,0.1-6.2,0.3-9.1,0.6c-4.6,0.4-8.5,1-11.2,1.9c-2.7,0.8-4.2,1.8-4,2.9
		c0,0.1,0,0.1,0,0.1c0-0.8,1.9-1.6,4.7-2.3c2.8-0.8,6.6-1.4,10.4-1.7c2.7-0.2,5.8-0.3,9.1-0.4c3.3-0.1,7-0.1,10.8,0
		c3.6,0.2,7.3,0.3,10.8,0.5c3.5,0.3,6.8,0.6,9.4,0.9c4,0.5,7.6,1.3,10.2,2.1c2.6,0.9,4.1,1.7,4.1,2.4C85.7,68.5,85.8,68.3,85.9,68.1
		L85.9,68.1z"/>
	<path class="st0" d="M38.4,22.3l1.1,17.1c-2.8-7.4-5.2-16.3-5.8-18.5l-3.8-1c-0.1,4.3,0.2,22.1,5.7,38.3c0.9-1.2,2.4-3,3.3-4.1
		c-2.8-9.5-4.1-19-4.1-19c1,2.3,6,14.4,6.8,16.7l2.9-1.5c-1.6-12-2.2-24.1-2.4-26.7L38.4,22.3L38.4,22.3z"/>
	<path class="st0" d="M62.1,35.1l3.5,1.6l-0.1-3.2c-2.8-1.5-5.2-2.7-10.2-5l-0.2,3.2l-2.6-4.4c-1.9-0.8-5.3-2-7-2.6
		c-0.1,8.9,1.6,20.9,2.1,24.3c1.4-0.4,4.4-1.1,7.9-0.9l-0.2-3.5c-0.9-0.1-4.5-0.2-4.5-0.2l-0.5-5.6c0,0,2.5,0.4,3.4,0.6l-0.3-3.2
		l-3.5-1l-0.3-5.6l8.9,3.8l0.3,15.4c0.8,0.3,1.9,0.4,3.3,1.3C62.1,50.1,62.1,35.1,62.1,35.1L62.1,35.1z"/>
	<path class="st0" d="M68.8,35l-2.1,2c0,0-0.2,5.6,1.4,8.8c2.2,4.5,1.8,6.2,1.8,6.5c0,0-2.1-2.7-4.8-4.7L65,51.7
		c4.7,3.5,6.9,8.5,6.9,8.5s1.7-4.2,1.5-9.1c-0.1-2.1-1.5-5.4-2.6-7.9c-1.2-2.7-0.5-3.9-0.5-4c0.9,0.6,4.8,3.3,4.8,3.3l0.3-3.5
		C75.3,39.1,71,36.2,68.8,35L68.8,35z"/>
	<path class="st4" d="M42.3,50c-2.8-6.4-7.9-18.8-7.9-18.8l0.2,2.3c0,0,6,14.7,7.2,17.6c0.7-0.3,1.3-0.6,2.3-1.1
		c0-0.1-0.6-0.5-0.6-0.5L42.3,50L42.3,50z"/>
	<polygon class="st4" points="39.7,23.9 38.8,22.8 39.9,39.8 40.8,41.9 39.7,23.9 	"/>
	<path class="st4" d="M48,48.4c1.4-0.3,5-1,7.1-0.7l-0.9-0.8c0,0-2.7-0.3-5.5,0.4c0,0-1.8-10.3-2.1-21l-0.8-1.1
		C45.9,25.2,46,35.2,48,48.4L48,48.4z"/>
	<path class="st4" d="M50.2,37.5l0.2,0.9c0,0,1.7,0.3,2.9,0.6l-0.7-0.9L50.2,37.5L50.2,37.5z"/>
	<path class="st4" d="M56.2,31.3c1.6,0.7,3.5,1.5,3.5,1.5L60,48.1l1.5,0.5l0.3,1c-1.5-0.9-2.7-1-2.7-1l-0.3-15.4
		c0,0-2.7-1.1-3.4-1.4l0.1-2.9l0.7,0.9L56.2,31.3L56.2,31.3z"/>
	<path class="st4" d="M53.2,29.9c-1-0.5-3.6-1.5-3.6-1.5l0.1,0.9l4.4,1.9L53.2,29.9L53.2,29.9z"/>
	<polygon class="st4" points="62.1,34 62.1,34.6 65.2,36.2 64.7,35.2 62.1,34 	"/>
	<path class="st4" d="M31.1,21.5c-0.2,19.1,5,33.8,5,33.8l1.5-1.6l0.9,0.3l-2.6,3c-6.1-17.3-5.5-36.4-5.5-36.4L31.1,21.5L31.1,21.5z
		"/>
	<path class="st4" d="M66.3,51.3V50l-0.8-1.7v3.2c0,0,4.3,3.3,6.1,7.5l-0.3-1.9C69.7,54,66.3,51.3,66.3,51.3L66.3,51.3z"/>
	<path class="st4" d="M74.9,39.5l-0.7,0.3v1c-0.8-0.7-3.9-2.7-3.9-2.7l0.2,0.8c0,0,2.5,1.7,4.4,3L74.9,39.5L74.9,39.5z"/>
	<path class="st4" d="M70.3,53c0,0,0.6-2-0.5-4.7c-1-2.6-2.5-5.7-2.6-7.9c-0.2-2.6,0.1-3.2,0.1-3.2l0.6-0.5c0,0-0.3,1.7,0,4.4
		c0.3,1.7,2.3,6.3,2.7,7.3c0.4,1.2,0.9,3.5,0.4,5.5L70.3,53L70.3,53z"/>
	<path class="st5" d="M60.4,80.9c0,0-5.4,2.9-11.1,1.3c0,0,1.8,1.5,4.3,2.7C53.5,84.9,56.9,83.8,60.4,80.9L60.4,80.9z"/>
</g>
</svg>
