<?xml version="1.0" encoding="utf-8"?>
<!-- Generator: Adobe Illustrator 19.1.0, SVG Export Plug-In . SVG Version: 6.00 Build 0)  -->
<svg version="1.1" id="Layer_1" xmlns="http://www.w3.org/2000/svg" xmlns:xlink="http://www.w3.org/1999/xlink" x="0px" y="0px"
	 viewBox="0 0 100 100" enable-background="new 0 0 100 100" xml:space="preserve">
<g>
	<path fill="#010101" d="M6.302,21.399l3.105,2.548c0.444,0.365,1.385,1.38,0.541,2.954l-0.029,0.052L1.075,47.329l1.636,0.416
		c8.192,2.085,23.875,6.498,36.856,12.616c10.272,4.842,22.378,12.484,21.722,21.385L61,85.696l2.755-2.846
		c2.266-2.34,6.324-5.46,8.246-5.075c0.19,0.038,0.635,0.128,0.994,1.047l0.27,0.691l0.72,0.181
		c3.331,0.828,10.318,0.819,13.772-4.818c1.452-0.239,4.51-1.041,6.06-3.602c0.704-0.312,1.802-0.985,2.472-2.349
		c0.358-0.729,0.535-1.539,0.535-2.424c0-1.184-0.317-2.504-0.955-3.951l-0.025-0.055l-0.032-0.056
		c-0.5-0.917-0.953-2.172-0.919-2.928c0.03-0.709,0.307-1.463,0.307-1.463l-0.343-0.476c-0.184-0.255-4.111-5.651-9.645-8.899
		c1.523-1.419,2.793-3.172,3.786-5.245l0.012-0.021l9.663-22.008H6.302z"/>
	<path fill="#005C8A" stroke="#005C8A" stroke-width="0.2828" d="M93.693,58.412c0,0-4.785-6.66-11.088-9.482
		c1.867-1.271,3.699-3.199,5.097-6.123l8.77-19.971H10.32c0.4,0.329,2.317,2.093,0.894,4.744L3.065,46.352
		c18.099,4.606,60.99,17.454,59.656,35.498c0,0,9.261-9.575,11.614-3.55c0,0,8.9,2.219,12.535-4.756c0,0,4.465-0.284,5.949-3.425
		c0,0,4.338-1.079,1.736-6.988C94.555,63.131,92.866,60.063,93.693,58.412z"/>
	<g>
		<polygon fill="#010101" stroke="#005C8A" stroke-width="0.2828" points="55,33.726 58.571,25.639 57.89,25.639 56.221,26.796 
			53.838,32.773 54.322,33.721 		"/>
		<polygon fill="#010101" stroke="#005C8A" stroke-width="0.2828" points="37.806,35.109 37.999,34.602 36.856,34.503 
			33.394,42.213 34.569,42.276 34.814,41.838 		"/>
		<polygon fill="#010101" stroke="#005C8A" stroke-width="0.2828" points="40.35,26.796 37.15,33.59 38.456,33.72 38.574,33.392 
			41.273,27.231 41.396,26.763 		"/>
		<polygon fill="#010101" stroke="#005C8A" stroke-width="0.2828" points="81.55,36.767 80.869,36.767 80.098,37.215 78.008,41.94 
			78.966,42.375 79.242,41.838 		"/>
		<path fill="#010101" stroke="#005C8A" stroke-width="0.2828" d="M86.741,27.231l-0.024-0.425c0,0-2.129-0.139-2.506,0.697
			l-2.656,6.095l1.263,0.328l0.174-0.447l2.407-5.339C85.777,27.303,86.741,27.231,86.741,27.231z"/>
		<path fill="#010101" stroke="#005C8A" stroke-width="0.2828" d="M79.467,26.176c-0.602,0.391-1.568,1.001-0.661,2.087h0.68
			c0.742-1.82,2.113-2.434,2.724-2.624h-0.681C81.289,25.715,79.86,25.92,79.467,26.176z"/>
		<path fill="#010101" stroke="#005C8A" stroke-width="0.2828" d="M23.912,41.819l6.142-13.842c0.261-0.588,0.91-0.72,1.296-0.745
			l-0.047-0.337c0,0-1.934-0.667-2.318,0.196l-6.208,15.024l0.905,0.305L23.912,41.819z"/>
		<path fill="#010101" stroke="#005C8A" stroke-width="0.2828" d="M63.559,27.784c0.233-0.52,1.01-0.55,1.159-0.552l-0.002-0.566
			c0,0-2.161,0.338-2.419,0.915l-2.646,6.369l1.178,0.13l0.089-0.33L63.559,27.784z"/>
		<path fill="#010101" stroke="#005C8A" stroke-width="0.2828" d="M51.952,28.047c0.349-0.786,1.618-0.816,1.618-0.816l0.074-0.631
			c0,0-2.462-0.132-2.809,0.652l-6.597,15.056l1.371,0.066l0.239-0.537L51.952,28.047z"/>
		<path fill="#010101" stroke="#005C8A" stroke-width="0.2828" d="M52.92,36.968l-0.91,0.377l-2.776,3.593
			c0,0-0.915,0.62-2.335,2.74h0.681c2.616,0,3.887-1.843,3.887-1.843l2.135-4.868H52.92z"/>
		<path fill="#010101" stroke="#005C8A" stroke-width="0.2828" d="M69.359,25.639l-1.194,0.624l-5.749,13.021l0.618,1.049
			l0.54,0.326c0.522-1.177,1.745-4.257,6.466-15.019H69.359z"/>
		<path fill="#010101" stroke="#005C8A" stroke-width="0.2828" d="M60.108,35.157l-0.977-0.032l-2.485,4.18
			c0,0-1.435,2.058-3.525,4.383l-0.017,0.036c3.949,0,4.792-3.323,4.792-3.323l2.096-4.763L60.108,35.157z"/>
		<polygon fill="#010101" stroke="#005C8A" stroke-width="0.2828" points="77.44,27.831 76.395,27.765 71.17,37.89 71.67,39.21 
			72.149,39.66 77.275,28.263 		"/>
		<polygon fill="#010101" stroke="#005C8A" stroke-width="0.2828" points="91.369,25.639 90.505,26.219 88.043,31.858 
			88.397,32.369 89.076,32.369 92.051,25.639 		"/>
		<path fill="#010101" stroke="#005C8A" stroke-width="0.2828" d="M86.955,33.971l-3.462,7.185c0,0-1.11,0.588-3.095,2.545h0.678
			c2.485,0,3.661-1.635,3.661-1.635l3.788-8.586h-0.679L86.955,33.971z"/>
		<path fill="#010101" stroke="#005C8A" stroke-width="0.2828" d="M43.058,36.075c0.318-1.039-0.803-1.387-1.378-1.498h0.296
			c0.568-0.018,1.796-0.163,2.173-1.038l2.262-5.274l0.495-1.106c0,0,0.441-1.522-1.197-1.522h-0.681l0.189,1.615l-0.561,1.11
			l-2.28,4.932c0,0-0.574,0.471-1.142,0.49l-1.144,0.587c0.576,0.11,1.593,0.595,1.275,1.634l-0.524,0.849l-1.437,4.149
			c-0.194,0.298-0.694,0.444-0.947,0.652c0,0-0.979,0.033-2.583,2.09h0.681c2.036,0,3.342-1.196,3.342-1.196
			c0.253-0.208,0.505-0.438,0.698-0.737l2.15-5.007L43.058,36.075z"/>
		<polygon fill="#010101" stroke="#005C8A" stroke-width="0.2828" points="15.825,35.109 15.988,34.602 14.616,34.668 11.51,42.213 
			12.591,42.343 12.83,41.838 		"/>
		<polygon fill="#010101" stroke="#005C8A" stroke-width="0.2828" points="18.436,26.796 15.43,33.686 16.312,33.752 16.591,33.392 
			19.289,27.231 19.349,26.894 		"/>
		<path fill="#010101" stroke="#005C8A" stroke-width="0.2828" d="M35.205,25.639h-0.681l-1.163,2.17l-6.076,12.703
			c0,0-1.077,1.471-2.278,3.188h0.68c2.617,0,3.841-1.898,3.841-1.898l6.255-14.25C35.784,27.552,36.644,25.639,35.205,25.639z"/>
		<path fill="#010101" stroke="#005C8A" stroke-width="0.2828" d="M21.075,36.075c0.317-1.039-0.804-1.387-1.379-1.498h0.297
			c0.568-0.018,1.794-0.163,2.171-1.038l2.264-5.274l0.492-1.106c0,0,0.442-1.522-1.195-1.522h-0.681l-0.711,1.626l-1.939,5.477
			l-1.067,1.382l-1.11,0.502l1.067,1.414l-0.283,0.763l-1.546,4.181l-0.957,0.174c0,0-1.154,0.174-2.608,2.591h0.68
			c2.037,0,3.343-1.196,3.343-1.196c0.253-0.208,0.503-0.438,0.698-0.737l2.15-5.007L21.075,36.075z"/>
	</g>
	<g>
		<path fill="#F15B31" stroke="#F15B31" stroke-width="0.2828" d="M93.175,64.835c-0.073-0.26-0.44-1.378-1.03-2.426
			c-0.449-0.792-1.149-2.09-0.862-3.542c-0.555-1.392-3.489-4.684-6.577-6.44c0,0-2.367-1.437-7.441-3.297
			c-5.133-1.882-12.695-5.503-17.982-8.305c-0.702,2.272-1.192,6.851,0.713,9.374L55.57,46.34H12.448
			c38.52,3.982,39.189,6.123,39.189,6.123H29.868c0.053,0.018,0.106,0.038,0.16,0.056c5.258,0.202,18.492,1.114,30.848,5.235H42.978
			c23.681,10.945,21.566,19.474,21.566,19.474c8.283-7.516,11.483-0.891,11.483-0.891c0.956,0.545,4.26,0.513,5.086-0.667
			c-3.382-2.42-5.237-5.165-6.617-8.138c3.287-1.126,7.172-1.141,9.197-0.988c0,0,0.78,1.937,2.866,3.126
			c0.756,0.43,3.233,1.338,4.353-0.635c0,0,0.211-1.093-0.408-3.724c0,0,1.017,0.097,1.62,0.208
			C92.91,65.665,93.314,65.339,93.175,64.835z M70.709,48.665l-4.443,0.619c3.204-0.721-4.855-4.856-4.855-4.856
			C63.584,45.256,70.709,48.665,70.709,48.665z M70.783,62.646c0.565,0.487,1.834,1.828,1.834,1.828
			c-6.103,2.04-6.681,8.386-6.681,8.386c-1.183-6.264,3.428-9.127,3.428-9.127l-2.034-1.55c11.744-5.923,19.571,5.485,19.571,5.485
			C78.217,58.984,70.783,62.646,70.783,62.646z M72.787,58.831c11.247-1.194,15.245,8.437,15.245,8.437
			C82.347,58.857,72.787,58.831,72.787,58.831z M76.596,57.753c-0.028,0-0.057-0.001-0.085,0
			C76.532,57.752,76.562,57.752,76.596,57.753c9.622-0.212,12.765,8.822,12.765,8.822C84.057,58.448,77.608,57.773,76.596,57.753z
			 M85.835,59.643c2.434-5.569-23.222-7.129-23.222-7.129c18.494,0,23.074,4.022,23.074,4.022c2.927,1.894,3.917,4.605,4.023,6.946
			C88.33,61.52,85.835,59.643,85.835,59.643z M89.952,61.005l-0.268-2.2l0.881,1.05L89.952,61.005z"/>
		<path fill="#F15B31" stroke="#F15B31" stroke-width="0.2828" d="M68.317,39.122c0,0-0.988,2.316-1.74,3.071
			c0,0,7.808,3.581,9.758,4.57C76.335,46.763,71.943,43.014,68.317,39.122z"/>
	</g>
	<g>
		<path fill="#005C8A" d="M21.442,15.2c-0.169-0.074-0.321-0.124-0.668-0.124h-1.286c-0.236,0-0.384,0.074-0.483,0.299l-1.085,2.521
			c-0.098,0.227-0.013,0.299,0.223,0.299h1.015c0.721,0,0.859-0.052,1.156-0.175l-0.563,0.946h-2.897
			c-0.764,0-1.034-0.365-0.601-1.369l0.829-1.924c0.433-1.004,1.019-1.369,1.783-1.369h2.823L21.442,15.2z"/>
		<path fill="#005C8A" d="M28.618,16.17l0.46-1.064c0.191-0.444,0.208-0.619,0.198-0.802h2.088
			c-0.168,0.183-0.299,0.358-0.492,0.802l-1.322,3.059c-0.191,0.445-0.208,0.62-0.198,0.802h-2.086
			c0.166-0.181,0.299-0.357,0.49-0.802l0.529-1.223h-1.338l-0.528,1.223c-0.191,0.445-0.209,0.62-0.198,0.802h-2.087
			c0.164-0.181,0.298-0.357,0.492-0.802l1.318-3.059c0.191-0.444,0.211-0.619,0.198-0.802h2.088
			c-0.166,0.183-0.301,0.358-0.492,0.802L27.28,16.17H28.618z"/>
		<path fill="#005C8A" d="M35.532,17.714l-0.593,0.64c-0.082,0.089-0.145,0.184-0.185,0.277c-0.07,0.161-0.069,0.176-0.043,0.336
			h-1.33c0.434-0.357,0.577-0.488,0.901-0.844l3.247-3.556l-0.092-0.262h2.125l-0.059,4.022c-0.002,0.24,0.049,0.466,0.135,0.641
			h-2.36c0.164-0.175,0.19-0.205,0.235-0.306c0.046-0.109,0.085-0.249,0.085-0.35l0.001-0.598h-2.067 M37.622,16.942l0.01-1.575
			l-1.398,1.575H37.622z"/>
		<path fill="#005C8A" d="M46.481,16.942l-0.527,1.223c-0.194,0.445-0.207,0.62-0.199,0.802h-2.088
			c0.166-0.181,0.301-0.357,0.492-0.802l1.322-3.059c0.191-0.444,0.207-0.619,0.153-0.802h3.867c0.826,0,1.112,0.249,0.779,1.027
			l-0.372,0.861c-0.296,0.684-0.649,0.72-1.043,0.75l0.074,1.31c0.02,0.299,0.002,0.54,0.082,0.714h-2.008l0.021-2.025H46.481
			 M46.816,16.17h1.011c0.23,0,0.311-0.038,0.41-0.263l0.245-0.567c0.097-0.225,0.047-0.262-0.182-0.262h-1.014L46.816,16.17z"/>
		<path fill="#005C8A" d="M57.146,18.195c0.209,0,0.588-0.03,0.839-0.153l-0.552,0.925h-4.06c0.167-0.182,0.301-0.357,0.496-0.802
			l1.316-3.059c0.193-0.445,0.209-0.619,0.2-0.802h2.086c-0.163,0.182-0.299,0.357-0.489,0.802l-1.335,3.089H57.146z"/>
		<path fill="#005C8A" d="M63.198,15.673c0.432-1.004,1.016-1.369,1.779-1.369h2.693c0.764,0,1.032,0.365,0.598,1.369l-0.829,1.924
			c-0.432,1.006-1.015,1.37-1.781,1.37h-2.691c-0.766,0-1.034-0.365-0.601-1.37L63.198,15.673 M64.032,17.896
			c-0.098,0.225-0.013,0.298,0.224,0.298h0.779c0.235,0,0.383-0.073,0.482-0.298l1.085-2.522c0.1-0.225,0.012-0.298-0.224-0.298
			H65.6c-0.233,0-0.384,0.072-0.481,0.298L64.032,17.896z"/>
		<path fill="#005C8A" d="M77.712,14.304l-0.267,0.963c-0.148-0.124-0.259-0.191-0.588-0.191h-0.816l-1.336,3.089
			c-0.19,0.445-0.205,0.62-0.198,0.802H72.42c0.167-0.181,0.303-0.357,0.491-0.802l1.333-3.089h-0.817
			c-0.328,0-0.498,0.067-0.749,0.191l0.564-0.963H77.712z"/>
		<path fill="#005C8A" d="M86.389,14.304l-0.27,0.963c-0.144-0.124-0.254-0.191-0.587-0.191h-0.818l-1.332,3.089
			c-0.19,0.445-0.207,0.62-0.196,0.802h-2.09c0.168-0.181,0.301-0.357,0.494-0.802l1.333-3.089h-0.816
			c-0.334,0-0.5,0.067-0.752,0.191l0.564-0.963H86.389z"/>
		<path fill="#005C8A" d="M92.518,18.195c0.418,0,0.651-0.066,0.862-0.124l-0.549,0.896h-4.147c0.166-0.182,0.3-0.357,0.493-0.802
			l1.321-3.059c0.191-0.445,0.208-0.619,0.197-0.802h4.075L94.53,15.2c-0.168-0.059-0.345-0.124-0.763-0.124h-1.466l-0.471,1.093
			h1.279c0.414,0,0.648-0.066,0.862-0.125l-0.438,1.022c-0.166-0.059-0.343-0.124-0.758-0.124h-1.279l-0.54,1.253h1.561V18.195z"/>
	</g>
	<g>
		<path fill="#FFFFFF" d="M91.939,68.04c-0.046-0.821-0.414-1.55-0.664-1.761l0.566,0.353l1.194,0.503L91.939,68.04z"/>
		<path fill="#FFFFFF" d="M78.101,70.472l0.201,1.149l1.047,0.517l0.316,1.208c-1.161-1.088-2.309-2.391-3.116-3.765
			c-0.401-0.682-0.051-1.109,0.457-1.275c0.094-0.027,0.061-0.022,0.188-0.055c0.07,0.06,0.117,0.145,0.087,0.27
			c-0.059,0.242-0.062,1.23-0.062,1.23L78.101,70.472z"/>
		<path fill="#FFFFFF" d="M82.466,68.137l-0.228-0.717c0.219-0.012,0.428-0.017,0.614-0.009c0.392,0.68,1.401,1.787,2.33,2.572
			l-1.396-0.381l-0.272-0.924L82.466,68.137z"/>
		<path fill="#FFFFFF" d="M83.872,72.192c1.093-0.637,1.951-1.753,1.951-1.753c0.09,0.055,0.177,0.114,0.267,0.166
			c0.352,0.203,0.77,0.379,1.222,0.518c-0.764,0.688-1.809,0.896-2.165,0.974C84.555,72.226,83.872,72.192,83.872,72.192z"/>
		<g>
			<path fill="#FFFFFF" d="M88.764,60.971c0,0-0.056-0.184-0.199-0.498c-0.298,0.167-0.701,0.147-1.022,0.09
				c0.452,0.421,0.867,0.827,1.041,0.927C88.898,61.668,88.909,61.327,88.764,60.971z"/>
			<path fill="#FFFFFF" d="M87.648,58.938c-0.174-0.239-0.372-0.489-0.597-0.748c0,0,0.041,0.991-0.54,1.499
				c0.216,0.148,0.469,0.361,0.726,0.591C87.588,59.961,87.644,59.257,87.648,58.938z"/>
		</g>
		<path fill="#FFFFFF" d="M80.059,73.711c0,0,1.002,0.952,1.61,1.313c0,0,1.287-0.548,1.721-1.009
			C83.39,74.015,81.62,74.207,80.059,73.711z"/>
	</g>
	<path fill="#C4CED4" d="M78.805,28.263c0.742-1.82,2.113-2.434,2.723-2.624h-9.874l-1.151,2.624h2.358l-3.948,8.992l2.555,2.405
		l5.128-11.397H78.805 M20.394,36.075c0.32-1.039-0.801-1.387-1.377-1.498h0.295c0.568-0.018,1.796-0.163,2.173-1.038l2.264-5.274
		l0.49-1.106c0,0,0.445-1.522-1.195-1.522h-7.807c0.49,0.44,0.199,1.152,0.068,1.499L7.996,43.746h5.894
		c2.035,0,3.344-1.196,3.344-1.196c0.252-0.208,0.503-0.438,0.697-0.737l2.151-5.007L20.394,36.075 M16.651,35.92l-2.363,5.458
		c-0.089,0.23-0.506,0.392-0.506,0.392c-0.128,0.046-0.259,0.068-0.444,0.068H12.15l2.995-6.729h0.979
		C16.413,35.126,16.943,35.244,16.651,35.92 M16.995,33.392h-1.084l2.698-6.161H19.9c0,0,0.634-0.046,0.329,0.645l-2.11,4.869
		C17.812,33.448,16.995,33.392,16.995,33.392 M42.378,36.075c0.317-1.039-0.802-1.387-1.379-1.498h0.296
		c0.569-0.018,1.797-0.163,2.173-1.038l2.264-5.274l0.492-1.106c0,0,0.442-1.522-1.196-1.522h-7.93
		c0.491,0.44,0.404,0.854,0.191,1.499L29.98,43.746h5.893c2.039,0,3.344-1.196,3.344-1.196c0.253-0.208,0.503-0.438,0.697-0.737
		l2.152-5.007L42.378,36.075 M38.634,35.92l-2.361,5.458c-0.091,0.23-0.507,0.392-0.507,0.392c-0.128,0.046-0.26,0.068-0.443,0.068
		h-1.188l2.995-6.729h0.978C38.398,35.126,38.927,35.244,38.634,35.92 M38.979,33.392h-1.084l2.697-6.161h1.294
		c0,0,0.633-0.046,0.326,0.645l-2.109,4.869C39.797,33.448,38.979,33.392,38.979,33.392 M34.524,25.639h-4.64
		c0,0-2.769-0.089-3.617,1.719L19.113,43.7h5.895c2.617,0,3.844-1.898,3.844-1.898l6.252-14.25
		C35.103,27.552,35.963,25.639,34.524,25.639 M25.566,41.087c-0.367,0.687-1.888,0.75-1.888,0.75h-0.454l6.15-13.861
		c0.387-0.863,1.604-0.745,1.604-0.745h0.665L25.566,41.087 M88.397,32.369l2.973-6.73h-5.706c0,0-3.362,0.04-4.495,2.623
		l-3.127,7.129h5.454l-2.471,5.613c-0.379,0.856-1.711,0.833-1.711,0.833h-0.751l2.307-5.07h-3.433l-2.041,4.654
		c-1.085,2.406,2.693,2.279,2.693,2.279h2.31c2.482,0,3.658-1.635,3.658-1.635l3.79-8.586h-5.531l2.403-5.339
		c0.377-0.837,1.345-0.909,1.345-0.909h1.154l-2.221,5.138H88.397 M63.306,25.639c-2.487-0.022-3.661,1.635-3.661,1.635
		l-7.22,16.449c3.95,0,4.787-3.323,4.787-3.323l2.098-4.763h1.987l-1.321,3.261l2.915,1.758c0.521-1.177,1.745-4.257,6.466-15.019
		h-6.051 M62.195,33.749h-1.957l2.64-5.965c0.259-0.575,1.187-0.552,1.187-0.552h1.03L62.195,33.749 M49.548,36.968l-1.894,4.317
		c-0.393,0.531-1.422,0.553-1.422,0.553h-1.063l6.106-13.792c0.349-0.786,1.615-0.815,1.615-0.815h0.938l-2.847,6.47l3.34,0.024
		l3.57-8.088h-5.9c0,0-2.95-0.094-3.761,1.758l-7.144,16.281H46.9c2.617,0,3.886-1.842,3.886-1.842l2.135-4.868H49.548
		L49.548,36.968z"/>
	<path fill="none" stroke="#C4CED4" stroke-width="0.1413" d="M78.805,28.263c0.742-1.82,2.113-2.434,2.723-2.624h-9.874
		l-1.151,2.624h2.358l-3.948,8.992l2.555,2.405l5.128-11.397H78.805 M20.394,36.075c0.32-1.039-0.801-1.387-1.377-1.498h0.295
		c0.568-0.018,1.796-0.163,2.173-1.038l2.264-5.274l0.49-1.106c0,0,0.445-1.522-1.195-1.522h-7.807
		c0.49,0.44,0.199,1.152,0.068,1.499L7.996,43.746h5.894c2.035,0,3.344-1.196,3.344-1.196c0.252-0.208,0.503-0.438,0.697-0.737
		l2.151-5.007L20.394,36.075 M16.651,35.92l-2.363,5.458c-0.089,0.23-0.506,0.392-0.506,0.392c-0.128,0.046-0.259,0.068-0.444,0.068
		H12.15l2.995-6.729h0.979C16.413,35.126,16.943,35.244,16.651,35.92 M16.995,33.392h-1.084l2.698-6.161H19.9
		c0,0,0.634-0.046,0.329,0.645l-2.11,4.869C17.812,33.448,16.995,33.392,16.995,33.392 M42.378,36.075
		c0.317-1.039-0.802-1.387-1.379-1.498h0.296c0.569-0.018,1.797-0.163,2.173-1.038l2.264-5.274l0.492-1.106
		c0,0,0.442-1.522-1.196-1.522h-7.93c0.491,0.44,0.404,0.854,0.191,1.499L29.98,43.746h5.893c2.039,0,3.344-1.196,3.344-1.196
		c0.253-0.208,0.503-0.438,0.697-0.737l2.152-5.007L42.378,36.075 M38.634,35.92l-2.361,5.458c-0.091,0.23-0.507,0.392-0.507,0.392
		c-0.128,0.046-0.26,0.068-0.443,0.068h-1.188l2.995-6.729h0.978C38.398,35.126,38.927,35.244,38.634,35.92 M38.979,33.392h-1.084
		l2.697-6.161h1.294c0,0,0.633-0.046,0.326,0.645l-2.109,4.869C39.797,33.448,38.979,33.392,38.979,33.392 M34.524,25.639h-4.64
		c0,0-2.769-0.089-3.617,1.719L19.113,43.7h5.895c2.617,0,3.844-1.898,3.844-1.898l6.252-14.25
		C35.103,27.552,35.963,25.639,34.524,25.639 M25.566,41.087c-0.367,0.687-1.888,0.75-1.888,0.75h-0.454l6.15-13.861
		c0.387-0.863,1.604-0.745,1.604-0.745h0.665L25.566,41.087 M88.397,32.369l2.973-6.73h-5.706c0,0-3.362,0.04-4.495,2.623
		l-3.127,7.129h5.454l-2.471,5.613c-0.379,0.856-1.711,0.833-1.711,0.833h-0.751l2.307-5.07h-3.433l-2.041,4.654
		c-1.085,2.406,2.693,2.279,2.693,2.279h2.31c2.482,0,3.658-1.635,3.658-1.635l3.79-8.586h-5.531l2.403-5.339
		c0.377-0.837,1.345-0.909,1.345-0.909h1.154l-2.221,5.138H88.397 M63.306,25.639c-2.487-0.022-3.661,1.635-3.661,1.635
		l-7.22,16.449c3.95,0,4.787-3.323,4.787-3.323l2.098-4.763h1.987l-1.321,3.261l2.915,1.758c0.521-1.177,1.745-4.257,6.466-15.019
		h-6.051 M62.195,33.749h-1.957l2.64-5.965c0.259-0.575,1.187-0.552,1.187-0.552h1.03L62.195,33.749 M49.548,36.968l-1.894,4.317
		c-0.393,0.531-1.422,0.553-1.422,0.553h-1.063l6.106-13.792c0.349-0.786,1.615-0.815,1.615-0.815h0.938l-2.847,6.47l3.34,0.024
		l3.57-8.088h-5.9c0,0-2.95-0.094-3.761,1.758l-7.144,16.281H46.9c2.617,0,3.886-1.842,3.886-1.842l2.135-4.868H49.548
		L49.548,36.968z"/>
	<g>
		<g>
			<defs>
				<path id="SVGID_1_" d="M14.584,24.477h79.49l-9.666,21.034H5.402L14.584,24.477z M55,33.726l3.57-8.088h-0.681l-1.668,1.159
					l-2.384,5.977l0.484,0.948L55,33.726z M37.806,35.109l0.192-0.506l-1.142-0.099l-3.462,7.709l1.175,0.063l0.245-0.438
					L37.806,35.109z M40.35,26.796L37.15,33.59l1.307,0.13l0.117-0.328l2.699-6.161l0.123-0.468L40.35,26.796z M81.55,36.767h-0.681
					l-0.771,0.448l-2.092,4.725l0.958,0.435l0.276-0.537L81.55,36.767z M86.741,27.231l-0.024-0.425c0,0-2.129-0.139-2.506,0.697
					l-2.656,6.095l1.263,0.328l0.174-0.447l2.407-5.339C85.777,27.303,86.741,27.231,86.741,27.231z M79.467,26.176
					c-0.602,0.391-1.568,1.001-0.661,2.087h0.68c0.742-1.82,2.113-2.434,2.724-2.624h-0.681
					C81.289,25.715,79.86,25.92,79.467,26.176z M23.912,41.819l6.142-13.842c0.261-0.588,0.91-0.72,1.296-0.745l-0.047-0.337
					c0,0-1.934-0.667-2.318,0.196l-6.208,15.024l0.905,0.305L23.912,41.819z M63.559,27.784c0.233-0.52,1.01-0.55,1.159-0.552
					l-0.002-0.566c0,0-2.161,0.338-2.419,0.915l-2.646,6.369l1.178,0.13l0.089-0.33L63.559,27.784z M51.952,28.047
					c0.349-0.786,1.618-0.816,1.618-0.816l0.074-0.631c0,0-2.462-0.132-2.809,0.652l-6.597,15.056l1.371,0.066l0.239-0.537
					L51.952,28.047z M52.92,36.968l-0.91,0.377l-2.776,3.593c0,0-0.915,0.62-2.335,2.74h0.681c2.616,0,3.887-1.843,3.887-1.843
					l2.135-4.868H52.92z M69.359,25.639l-1.194,0.624l-5.749,13.021l0.618,1.049l0.54,0.326c0.522-1.177,1.745-4.257,6.466-15.019
					H69.359z M60.108,35.157l-0.977-0.032l-2.485,4.18c0,0-1.435,2.058-3.525,4.383l-0.017,0.036c3.949,0,4.792-3.323,4.792-3.323
					l2.096-4.763L60.108,35.157z M77.44,27.831l-1.045-0.066L71.17,37.889l0.501,1.321l0.479,0.449l5.126-11.395L77.44,27.831z
					 M91.369,25.639l-0.864,0.58l-2.462,5.64l0.353,0.511h0.68l2.974-6.73H91.369z M86.955,33.971l-3.462,7.185
					c0,0-1.11,0.588-3.095,2.545h0.678c2.485,0,3.661-1.635,3.661-1.635l3.788-8.586h-0.679L86.955,33.971z M43.058,36.075
					c0.318-1.039-0.803-1.387-1.378-1.498h0.296c0.568-0.018,1.796-0.163,2.173-1.038l2.262-5.274l0.495-1.106
					c0,0,0.441-1.522-1.197-1.522h-0.681l0.189,1.615l-0.561,1.11l-2.28,4.932c0,0-0.574,0.471-1.142,0.49l-1.144,0.587
					c0.576,0.11,1.593,0.595,1.275,1.634l-0.524,0.849l-1.437,4.149c-0.194,0.298-0.694,0.444-0.947,0.652
					c0,0-0.979,0.033-2.583,2.09h0.681c2.036,0,3.342-1.196,3.342-1.196c0.253-0.208,0.505-0.438,0.698-0.737l2.15-5.007
					L43.058,36.075z M15.825,35.109l0.162-0.506l-1.371,0.066l-3.105,7.545l1.079,0.13l0.239-0.505L15.825,35.109z M18.436,26.796
					l-3.007,6.89l0.884,0.066l0.278-0.36l2.698-6.161l0.06-0.337L18.436,26.796z M35.205,25.639h-0.681l-1.163,2.17l-6.076,12.703
					c0,0-1.077,1.471-2.278,3.188h0.68c2.617,0,3.841-1.898,3.841-1.898l6.255-14.25C35.784,27.552,36.644,25.639,35.205,25.639z
					 M21.075,36.075c0.317-1.039-0.804-1.387-1.379-1.498h0.297c0.568-0.018,1.794-0.163,2.171-1.038l2.264-5.274l0.492-1.106
					c0,0,0.442-1.522-1.195-1.522h-0.681l-0.711,1.626l-1.939,5.477l-1.067,1.382l-1.11,0.502l1.067,1.414l-0.283,0.763
					l-1.546,4.181l-0.957,0.174c0,0-1.154,0.174-2.608,2.591h0.68c2.037,0,3.343-1.196,3.343-1.196
					c0.253-0.208,0.503-0.438,0.698-0.737l2.15-5.007L21.075,36.075z"/>
			</defs>
			<clipPath id="SVGID_2_">
				<use xlink:href="#SVGID_1_"  overflow="visible"/>
			</clipPath>
			<path clip-path="url(#SVGID_2_)" fill="none" stroke="#005C8A" stroke-width="0.1413" d="M78.805,28.263
				c0.742-1.82,2.113-2.434,2.723-2.624h-9.874l-1.151,2.624h2.358l-3.948,8.992l2.555,2.405l5.128-11.397H78.805 M20.394,36.075
				c0.32-1.039-0.801-1.387-1.377-1.498h0.295c0.568-0.018,1.796-0.163,2.173-1.038l2.264-5.274l0.49-1.106
				c0,0,0.445-1.522-1.195-1.522h-7.807c0.49,0.44,0.199,1.152,0.068,1.499L7.996,43.746h5.894c2.035,0,3.344-1.196,3.344-1.196
				c0.252-0.208,0.503-0.438,0.697-0.737l2.151-5.007L20.394,36.075 M16.651,35.92l-2.363,5.458
				c-0.089,0.23-0.506,0.392-0.506,0.392c-0.128,0.046-0.259,0.068-0.444,0.068H12.15l2.995-6.729h0.979
				C16.413,35.126,16.943,35.244,16.651,35.92 M16.995,33.392h-1.084l2.698-6.161H19.9c0,0,0.634-0.046,0.329,0.645l-2.11,4.869
				C17.812,33.448,16.995,33.392,16.995,33.392 M42.378,36.075c0.317-1.039-0.802-1.387-1.379-1.498h0.296
				c0.569-0.018,1.797-0.163,2.173-1.038l2.264-5.274l0.492-1.106c0,0,0.442-1.522-1.196-1.522h-7.93
				c0.491,0.44,0.404,0.854,0.191,1.499L29.98,43.746h5.893c2.039,0,3.344-1.196,3.344-1.196c0.253-0.208,0.503-0.438,0.697-0.737
				l2.152-5.007L42.378,36.075 M38.634,35.92l-2.361,5.458c-0.091,0.23-0.507,0.392-0.507,0.392
				c-0.128,0.046-0.26,0.068-0.443,0.068h-1.188l2.995-6.729h0.978C38.398,35.126,38.927,35.244,38.634,35.92 M38.979,33.392h-1.084
				l2.697-6.161h1.294c0,0,0.633-0.046,0.326,0.645l-2.109,4.869C39.797,33.448,38.979,33.392,38.979,33.392 M34.524,25.639h-4.64
				c0,0-2.769-0.089-3.617,1.719L19.113,43.7h5.895c2.617,0,3.844-1.898,3.844-1.898l6.252-14.25
				C35.103,27.552,35.963,25.639,34.524,25.639 M25.566,41.087c-0.367,0.687-1.888,0.75-1.888,0.75h-0.454l6.15-13.861
				c0.387-0.863,1.604-0.745,1.604-0.745h0.665L25.566,41.087 M88.397,32.369l2.973-6.73h-5.706c0,0-3.362,0.04-4.495,2.623
				l-3.127,7.129h5.454l-2.471,5.613c-0.379,0.856-1.711,0.833-1.711,0.833h-0.751l2.307-5.07h-3.433l-2.041,4.654
				c-1.085,2.406,2.693,2.279,2.693,2.279h2.31c2.482,0,3.658-1.635,3.658-1.635l3.79-8.586h-5.531l2.403-5.339
				c0.377-0.837,1.345-0.909,1.345-0.909h1.154l-2.221,5.138H88.397 M63.306,25.639c-2.487-0.022-3.661,1.635-3.661,1.635
				l-7.22,16.449c3.95,0,4.787-3.323,4.787-3.323l2.098-4.763h1.987l-1.321,3.261l2.915,1.758c0.521-1.177,1.745-4.257,6.466-15.019
				h-6.051 M62.195,33.749h-1.957l2.64-5.965c0.259-0.575,1.187-0.552,1.187-0.552h1.03L62.195,33.749 M49.548,36.968l-1.894,4.317
				c-0.393,0.531-1.422,0.553-1.422,0.553h-1.063l6.106-13.792c0.349-0.786,1.615-0.815,1.615-0.815h0.938l-2.847,6.47l3.34,0.024
				l3.57-8.088h-5.9c0,0-2.95-0.094-3.761,1.758l-7.144,16.281H46.9c2.617,0,3.886-1.842,3.886-1.842l2.135-4.868H49.548
				L49.548,36.968z"/>
		</g>
	</g>
	<g>
		<g>
			<defs>
				<path id="SVGID_3_" d="M54.322,33.721l-0.484-0.948l2.383-5.977l1.669-1.157h0.681L55,33.726L54.322,33.721z M37.806,35.109
					l0.192-0.506l-1.142-0.099l-3.462,7.709l1.175,0.063l0.245-0.438L37.806,35.109z M40.35,26.796L37.15,33.59l1.307,0.13
					l0.117-0.328l2.699-6.161l0.123-0.468L40.35,26.796z M81.55,36.767h-0.681l-0.771,0.448l-2.092,4.725l0.958,0.435l0.276-0.537
					L81.55,36.767z M86.741,27.231l-0.024-0.425c0,0-2.129-0.139-2.506,0.697l-2.656,6.095l1.263,0.328l0.174-0.447l2.407-5.339
					C85.777,27.303,86.741,27.231,86.741,27.231z M79.467,26.176c-0.602,0.391-1.568,1.001-0.661,2.087h0.68
					c0.742-1.82,2.113-2.434,2.724-2.624h-0.681C81.289,25.715,79.86,25.92,79.467,26.176z M23.912,41.819l6.142-13.842
					c0.261-0.588,0.91-0.72,1.296-0.745l-0.047-0.337c0,0-1.934-0.667-2.318,0.196l-6.208,15.024l0.905,0.305L23.912,41.819z
					 M63.559,27.784c0.233-0.52,1.01-0.55,1.159-0.552l-0.002-0.566c0,0-2.161,0.338-2.419,0.915l-2.646,6.369l1.178,0.13
					l0.089-0.33L63.559,27.784z M51.952,28.047c0.349-0.786,1.618-0.816,1.618-0.816l0.074-0.631c0,0-2.462-0.132-2.809,0.652
					l-6.597,15.056l1.371,0.066l0.239-0.537L51.952,28.047z M52.92,36.968l-0.91,0.377l-2.776,3.593c0,0-0.915,0.62-2.335,2.74
					h0.681c2.616,0,3.887-1.843,3.887-1.843l2.135-4.868H52.92z M69.359,25.639l-1.194,0.624l-5.749,13.021l0.618,1.049l0.54,0.326
					c0.522-1.177,1.745-4.257,6.466-15.019H69.359z M60.108,35.157l-0.977-0.032l-2.485,4.18c0,0-1.435,2.058-3.525,4.383
					l-0.017,0.036c3.949,0,4.792-3.323,4.792-3.323l2.096-4.763L60.108,35.157z M77.44,27.831l-1.045-0.066L71.17,37.889
					l0.501,1.321l0.479,0.449l5.126-11.395L77.44,27.831z M91.369,25.639l-0.864,0.58l-2.462,5.64l0.353,0.511h0.68l2.974-6.73
					H91.369z M86.955,33.971l-3.462,7.185c0,0-1.11,0.588-3.095,2.545h0.678c2.485,0,3.661-1.635,3.661-1.635l3.788-8.586h-0.679
					L86.955,33.971z M43.058,36.075c0.318-1.039-0.803-1.387-1.378-1.498h0.296c0.568-0.018,1.796-0.163,2.173-1.038l2.262-5.274
					l0.495-1.106c0,0,0.441-1.522-1.197-1.522h-0.681l0.189,1.615l-0.561,1.11l-2.28,4.932c0,0-0.574,0.471-1.142,0.49l-1.144,0.587
					c0.576,0.11,1.593,0.595,1.275,1.634l-0.524,0.849l-1.437,4.149c-0.194,0.298-0.694,0.444-0.947,0.652
					c0,0-0.979,0.033-2.583,2.09h0.681c2.036,0,3.342-1.196,3.342-1.196c0.253-0.208,0.505-0.438,0.698-0.737l2.15-5.007
					L43.058,36.075z M15.825,35.109l0.162-0.506l-1.371,0.066l-3.105,7.545l1.079,0.13l0.239-0.505L15.825,35.109z M18.436,26.796
					l-3.007,6.89l0.884,0.066l0.278-0.36l2.698-6.161l0.06-0.337L18.436,26.796z M35.205,25.639h-0.681l-1.163,2.17l-6.076,12.703
					c0,0-1.077,1.471-2.278,3.188h0.68c2.617,0,3.841-1.898,3.841-1.898l6.255-14.25C35.784,27.552,36.644,25.639,35.205,25.639z
					 M21.075,36.075c0.317-1.039-0.804-1.387-1.379-1.498h0.297c0.568-0.018,1.794-0.163,2.171-1.038l2.264-5.274l0.492-1.106
					c0,0,0.442-1.522-1.195-1.522h-0.681l-0.711,1.626l-1.939,5.477l-1.067,1.382l-1.11,0.502l1.067,1.414l-0.283,0.763
					l-1.546,4.181l-0.957,0.174c0,0-1.154,0.174-2.608,2.591h0.68c2.037,0,3.343-1.196,3.343-1.196
					c0.253-0.208,0.503-0.438,0.698-0.737l2.15-5.007L21.075,36.075z"/>
			</defs>
			<clipPath id="SVGID_4_">
				<use xlink:href="#SVGID_3_"  overflow="visible"/>
			</clipPath>
			<path clip-path="url(#SVGID_4_)" fill="none" stroke="#010101" stroke-width="0.1413" d="M78.805,28.263
				c0.742-1.82,2.113-2.434,2.723-2.624h-9.874l-1.151,2.624h2.358l-3.948,8.992l2.555,2.405l5.128-11.397H78.805 M20.394,36.075
				c0.32-1.039-0.801-1.387-1.377-1.498h0.295c0.568-0.018,1.796-0.163,2.173-1.038l2.264-5.274l0.49-1.106
				c0,0,0.445-1.522-1.195-1.522h-7.807c0.49,0.44,0.199,1.152,0.068,1.499L7.996,43.746h5.894c2.035,0,3.344-1.196,3.344-1.196
				c0.252-0.208,0.503-0.438,0.697-0.737l2.151-5.007L20.394,36.075 M16.651,35.92l-2.363,5.458
				c-0.089,0.23-0.506,0.392-0.506,0.392c-0.128,0.046-0.259,0.068-0.444,0.068H12.15l2.995-6.729h0.979
				C16.413,35.126,16.943,35.244,16.651,35.92 M16.995,33.392h-1.084l2.698-6.161H19.9c0,0,0.634-0.046,0.329,0.645l-2.11,4.869
				C17.812,33.448,16.995,33.392,16.995,33.392 M42.378,36.075c0.317-1.039-0.802-1.387-1.379-1.498h0.296
				c0.569-0.018,1.797-0.163,2.173-1.038l2.264-5.274l0.492-1.106c0,0,0.442-1.522-1.196-1.522h-7.93
				c0.491,0.44,0.404,0.854,0.191,1.499L29.98,43.746h5.893c2.039,0,3.344-1.196,3.344-1.196c0.253-0.208,0.503-0.438,0.697-0.737
				l2.152-5.007L42.378,36.075 M38.634,35.92l-2.361,5.458c-0.091,0.23-0.507,0.392-0.507,0.392
				c-0.128,0.046-0.26,0.068-0.443,0.068h-1.188l2.995-6.729h0.978C38.398,35.126,38.927,35.244,38.634,35.92 M38.979,33.392h-1.084
				l2.697-6.161h1.294c0,0,0.633-0.046,0.326,0.645l-2.109,4.869C39.797,33.448,38.979,33.392,38.979,33.392 M34.524,25.639h-4.64
				c0,0-2.769-0.089-3.617,1.719L19.113,43.7h5.895c2.617,0,3.844-1.898,3.844-1.898l6.252-14.25
				C35.103,27.552,35.963,25.639,34.524,25.639 M25.566,41.087c-0.367,0.687-1.888,0.75-1.888,0.75h-0.454l6.15-13.861
				c0.387-0.863,1.604-0.745,1.604-0.745h0.665L25.566,41.087 M88.397,32.369l2.973-6.73h-5.706c0,0-3.362,0.04-4.495,2.623
				l-3.127,7.129h5.454l-2.471,5.613c-0.379,0.856-1.711,0.833-1.711,0.833h-0.751l2.307-5.07h-3.433l-2.041,4.654
				c-1.085,2.406,2.693,2.279,2.693,2.279h2.31c2.482,0,3.658-1.635,3.658-1.635l3.79-8.586h-5.531l2.403-5.339
				c0.377-0.837,1.345-0.909,1.345-0.909h1.154l-2.221,5.138H88.397 M63.306,25.639c-2.487-0.022-3.661,1.635-3.661,1.635
				l-7.22,16.449c3.95,0,4.787-3.323,4.787-3.323l2.098-4.763h1.987l-1.321,3.261l2.915,1.758c0.521-1.177,1.745-4.257,6.466-15.019
				h-6.051 M62.195,33.749h-1.957l2.64-5.965c0.259-0.575,1.187-0.552,1.187-0.552h1.03L62.195,33.749 M49.548,36.968l-1.894,4.317
				c-0.393,0.531-1.422,0.553-1.422,0.553h-1.063l6.106-13.792c0.349-0.786,1.615-0.815,1.615-0.815h0.938l-2.847,6.47l3.34,0.024
				l3.57-8.088h-5.9c0,0-2.95-0.094-3.761,1.758l-7.144,16.281H46.9c2.617,0,3.886-1.842,3.886-1.842l2.135-4.868H49.548
				L49.548,36.968z"/>
		</g>
	</g>
</g>
</svg>
