<?xml version="1.0" encoding="utf-8"?>
<!-- Generator: Adobe Illustrator 19.1.0, SVG Export Plug-In . SVG Version: 6.00 Build 0)  -->
<svg version="1.1" id="Layer_1" xmlns="http://www.w3.org/2000/svg" xmlns:xlink="http://www.w3.org/1999/xlink" x="0px" y="0px"
	 viewBox="0 0 100 100" style="enable-background:new 0 0 100 100;" xml:space="preserve">
<style type="text/css">
	.st0{fill:#FFFFFF;}
	.st1{fill:#CE1141;}
</style>
<g>
	<path d="M80.8,43.5c-0.5,1.6-0.9,3.2-2.1,4.6c-3,3.4-7.3,4.3-11.5,5.1c0,0.1,0.1,0.2,0.2,0.3c1.6,0.3,3.2,0.5,4.7,1
		c0.5,0.2,0.9,0.4,1.5,0.5c1.2,0.4,2.5,0.9,3.6,1.4v0.2c-1.6,2.1-3.8,2.9-6.2,3.3c-0.3-0.1-0.8,0-1.3,0c-1.6-0.1-3.1-0.5-4.5-1.2
		l-0.4,0.4c-2.3,5.8-5,11.4-7.9,17c0,0.9,0.9,1.6,1.2,2.4L58,78.6l0.1,0.1c-0.3,1.7-0.7,3.5-1.7,5c-0.2,1-1.1,1.8-1.7,2.6
		c-4.3,1.8-10.3,1.6-14.5-0.1c-1.7-1.9-2.5-4.2-3-6.5c0-0.7,0.1-1.6-0.1-2.3c0.4-0.5,1.1-0.9,1.3-1.6c-3.4-5.5-5.9-11.3-8.2-17.3
		c-2.3,0.7-4.9,1.3-7.5,0.8c-1.9-0.4-3.7-1.6-4.8-3.3c3.1-1.7,6.8-2.2,10.3-3v-0.1c-4.7-0.5-9.8-1.6-12.4-5.9
		c-0.7-1.1-1-2.1-1.2-3.6c-0.1-1,0-1.5-0.1-2c0.1-0.5-0.1-0.9,0.1-1.5c0.4-4,1.7-7.7,3.7-10.9c-0.3,0.5,0.2,1.1-0.1,1.6
		c0.2,0.2,0.1,0.5,0.1,0.7l-0.1,0.1c0.3,0.2-0.1,0.6,0.1,0.8c0,1.4-0.1,3.2,0.3,4.6c-0.1,0.4,0.1,1,0.2,1.5c0.3,0.5,0.2,1.1,0.7,1.6
		c0.1,0.8,0.9,1.2,1.3,1.9c3.2,3.2,8.3,2.1,12.6,2c3.3-0.3,6.6-0.6,10-0.5c0.7-0.2,1.6,0,2.3-0.2c1,0,1.8,0,2.7,0
		c4.7,0.1,9.4,0.4,14,0.9c2-0.1,3.8,0.2,5.8,0.1c0.9,0.1,1.9-0.1,2.8-0.3c2.3-0.4,4.6-2.3,5.3-4.6c0.5-1.2,0.6-2.2,0.8-3.5
		c0-1.9,0-3.6,0-5.6c1.1,1.3,1.5,3,2.2,4.5c0.6,1.3,0.9,2.8,1.3,4.2c-0.1,0.2,0.2,0.6,0,0.8C80.6,39.4,81.4,40.5,80.8,43.5z"/>
	<path class="st0" d="M19.6,40.8c1.1,1.5,2.8,2.7,4.6,3c0.7,0.4,1.8,0.4,2.5,0.4c2.2,0.1,4-0.1,6.2-0.2l0.2,0.2
		c-0.7,1.8-1.1,3.9-1.6,5.7c0.1,0.2-0.1,0.6-0.2,0.9l-0.2,1.5c-5.2,0.1-10.7-0.2-14.3-4.4c-1.5-2.1-2.4-4.8-1.9-7.4
		c0-0.2-0.1-0.8,0.1-1.1l1.8-2C18.2,38.4,19.3,39.3,19.6,40.8z"/>
	<path class="st0" d="M33.1,58.6c-0.1,0.4,0,1,0.3,1.4c0.5,0.7,1.2,1.3,2,1.5c0.2-0.1,0.6,0.1,0.9,0c0.2,0.2,0.3,0.5-0.1,0.6
		c-1.4,0-2.7-0.6-3.3-1.8c-0.3-0.6-0.6-1.4-0.3-2C32.8,58.1,33,58.4,33.1,58.6z"/>
	<path class="st0" d="M62.5,58.8c-0.1,1.3-0.5,2.7-1.9,3.3c-0.6,0.2-1.3,0.4-2,0.2v-0.2c1.2-0.2,2.8-0.7,3.1-2.2
		c-0.1-0.3,0.1-0.8,0-1.1C61.9,58.5,62.6,58.2,62.5,58.8z"/>
	<path d="M17.1,13.8c-1.3,0-1.8,1.1-1.8,3.6c0,2.4,0.5,3.6,1.7,3.6c1,0,1.7-1,1.9-2.7l2.5,0.8c-0.5,2.9-2.3,4.6-5,4.6
		c-1.5,0-2.8-0.6-3.8-1.8c-1-1.2-1.5-2.7-1.5-4.5c0-1.9,0.5-3.5,1.4-4.6c0.9-1.1,2.1-1.7,3.6-1.7c1,0,1.8,0.3,2.5,0.9v-0.7H21v4.3
		h-2.3C18.6,14.4,18,13.8,17.1,13.8z"/>
	<path d="M23,21h0.7v-7.3H23v-2.4h5v2.4h-0.6v2.4h2v-2.4h-0.6v-2.4h5v2.4h-0.7V21h0.7v2.4h-5V21h0.6v-2.6h-2V21H28v2.4h-5V21z"/>
	<path d="M35.4,21h0.7v-7.3h-0.7v-2.4h5.2v2.4h-0.7V21h0.7v2.4h-5.2V21z"/>
	<path d="M48.1,13.8c-1.3,0-1.8,1.1-1.8,3.6c0,2.4,0.5,3.6,1.7,3.6c1,0,1.7-1,1.9-2.7l2.5,0.8c-0.5,2.9-2.3,4.6-5,4.6
		c-1.5,0-2.8-0.6-3.8-1.8c-1-1.2-1.5-2.7-1.5-4.5c0-1.9,0.5-3.5,1.4-4.6c0.9-1.1,2.1-1.7,3.5-1.7c1,0,1.8,0.3,2.5,0.9v-0.7h2.3v4.3
		h-2.3C49.5,14.4,49,13.8,48.1,13.8z"/>
	<path d="M57,21v2.4h-3.4V21h0.5l1.9-7.3h-0.7v-2.4H62v2.4h-0.7l1.9,7.3h0.5v2.4h-4.8V21h0.7l-0.4-1.8h-2.4L56.4,21H57z M58.9,17.8
		l-0.8-3.5l-0.9,3.5H58.9z"/>
	<path d="M70.9,13.8c-1.3,0-1.8,1.1-1.8,3.6c0,2.4,0.6,3.6,1.7,3.6c0.7,0,1.2-0.6,1.2-1.4h-1.1v-2.3h4.5c0,0.1,0,0.1,0,0.2
		c0,3.9-1.9,6.2-5.1,6.2c-1.5,0-2.8-0.6-3.8-1.8c-1-1.2-1.5-2.7-1.5-4.6c0-1.9,0.5-3.5,1.4-4.6c0.9-1.1,2.1-1.7,3.6-1.7
		c1,0,1.8,0.3,2.5,0.9v-0.7h2.3v4.3h-2.3C72.3,14.4,71.8,13.8,70.9,13.8z"/>
	<path d="M78.6,12.8c1-1.1,2.3-1.8,3.8-1.8c1.6,0,2.9,0.6,3.9,1.8c1,1.2,1.5,2.7,1.5,4.5c0,1.8-0.5,3.4-1.5,4.5
		c-1,1.2-2.3,1.8-3.9,1.8c-1.5,0-2.8-0.6-3.8-1.8c-1-1.2-1.5-2.7-1.5-4.6C77.1,15.5,77.6,14,78.6,12.8z M83.6,17.4
		c0-2.5-0.4-3.7-1.2-3.7c-0.9,0-1.2,1.2-1.2,3.7c0,2.5,0.4,3.8,1.2,3.8C83.3,21.2,83.6,20,83.6,17.4z"/>
	<path d="M21.9,36.2h0.7v-7.3h-0.7v-2.4h6c2.7,0,4,0.9,4,3.2c0,1.4-0.6,2.3-1.7,2.7c1.3,0.3,2,1.4,2,2.9c0,2.2-1.3,3.5-3.8,3.5h-6.4
		V36.2z M26.7,36c1.1,0,1.6-0.4,1.6-1.3c0-1-0.4-1.3-1.5-1.3h-0.7V36H26.7z M26.7,31.4c1.1,0,1.6-0.4,1.6-1.3c0-0.9-0.5-1.2-1.5-1.2
		h-0.7v2.5H26.7z"/>
	<path d="M39.4,36c0.9,0,1.3-0.7,1.3-2.2v-5.1H40v-2.4h4v2.4h-0.7v4.7c0,1.6-0.2,2.7-0.5,3.4c-0.7,1.3-2,1.9-3.9,1.9
		c-3.2,0-4.4-1.6-4.4-5.3v-4.7h-0.7v-2.4h5.2v2.4h-0.7v5C38.1,35.3,38.5,36,39.4,36z"/>
	<path d="M45.4,36.2h0.7v-7.3h-0.7v-2.4h5.2v2.4h-0.7v7.3h2.1v-2.6h2.3v5.1h-8.8V36.2z"/>
	<path d="M55.7,36.2h0.7v-7.3h-0.7v-2.4h5.2v2.4h-0.7v7.3h2.1v-2.6h2.3v5.1h-8.7V36.2z"/>
	<path d="M66.2,34.5h2.3c0.1,1.3,0.6,2.1,1.4,2.1c0.6,0,1.1-0.5,1.1-1c0-0.7-0.5-1-1.5-1.6l-1.6-0.9c-1.2-0.7-1.8-1.8-1.8-3.2
		c0-2.2,1.3-3.7,3.3-3.7c1.1,0,1.9,0.4,2.6,1v-0.8h2.1V30H72c-0.2-1-0.6-1.5-1.3-1.5c-0.5,0-0.9,0.4-0.9,0.9c0,0.6,0.4,0.8,1.2,1.3
		l1.6,0.9c1.5,0.8,2.2,1.8,2.2,3.5c0,2.4-1.3,3.8-3.6,3.8c-1,0-1.9-0.3-2.7-0.9v0.7h-2.3V34.5z"/>
	<path d="M87,43.3c0.3,0.3,0.5,0.7,0.5,1.1c0,0.4-0.2,0.8-0.5,1.1c-0.3,0.3-0.7,0.5-1.1,0.5c-0.4,0-0.8-0.2-1.1-0.5
		c-0.3-0.3-0.5-0.7-0.5-1.1c0-0.4,0.2-0.8,0.5-1.1c0.3-0.3,0.7-0.4,1.1-0.4C86.3,42.9,86.7,43,87,43.3z M86.8,43.5
		c-0.3-0.3-0.6-0.4-1-0.4c-0.4,0-0.7,0.1-0.9,0.4c-0.3,0.3-0.4,0.6-0.4,1c0,0.4,0.1,0.7,0.4,0.9s0.6,0.4,0.9,0.4
		c0.4,0,0.7-0.1,1-0.4c0.3-0.2,0.4-0.6,0.4-0.9C87.2,44.1,87.1,43.7,86.8,43.5z M86.6,44c0,0.3-0.1,0.4-0.4,0.5l0.4,0.8h-0.4
		l-0.4-0.8h-0.3v0.8h-0.3v-1.8h0.7C86.4,43.5,86.6,43.7,86.6,44z M85.5,43.7v0.6h0.3c0.3,0,0.4-0.1,0.4-0.3c0-0.2-0.1-0.3-0.5-0.3
		H85.5z"/>
	<path class="st0" d="M80.6,39.9c0,0,0.5,1.3,0.1,3.3c-0.5,1.5-0.9,3-1.8,4.3c-1.2,1.7-2.9,2.5-4.5,3.5c-3.1,1.1-6.3,1.9-9.8,2
		c-1,0.2-0.9-0.7-1.2-1.3c0-2.5-0.7-5-1.3-7.4l0.2-0.2c0.9,0.2,2,0,2.9,0.2c3.1,0,5.8,0.2,8.3-1.3c0,0,1.2-0.7,1.7-1.4
		c0.5-0.7,1.8-2.5,1.8-2.5l1.5-0.6l1.4,0.4C79.9,39,80.6,39.7,80.6,39.9z"/>
	<g>
		<path class="st1" d="M18,31c0.1,2.3,0.1,4.4,0.4,6.6l-0.1,0.1c-0.5-0.4-1-1-1.6-1.1c-0.3,0.5-0.9,0.9-1.2,1.4
			c-0.1-0.6,0.2-1.2,0.3-1.9c0.5-1.7,1.2-3.5,2-5.2H18z"/>
		<path class="st1" d="M53.8,43.7c0.1-0.2,0.3-0.1,0.5-0.1l0.1,0.1l0.1-0.1c1.1,0.2,2.4-0.1,3.4,0.3c0.2-0.3,0.6,0.1,0.8-0.1
			c0.9,0.6,2.7-0.5,3.1,1c0.3,1.2,0.6,2.6,0.9,3.7c-0.1,0.4,0.1,0.9,0.2,1.3c-0.1,0.3,0.2,0.6,0,0.8c0.2,0.1,0,0.3,0,0.4
			c0.2,0.4,0.1,1,0.3,1.4c0,0.3-0.1,0.9,0.2,1.2c0.4,0,0.8-0.1,1.2,0.1c0.3-0.1,0.8-0.1,1.2,0.1c0.3-0.1,0.8,0.1,1.2,0.2
			c0.4,0.1,0.9-0.1,1.3,0.2c0.4-0.1,0.9,0.1,1.3,0.2c2.4,0.5,4.8,1.3,7,2.2v0.2c-1.5,1.5-3.3,2.3-5.3,2.7c-0.1,0-0.6,0.1-0.8-0.1
			c-2,0.4-3.7-0.6-5.4-1.3l-0.5,0.7c0.2,0.1,0,0.3-0.1,0.4c-0.9,1.8-1.4,5-4.2,4.9c-0.3,0.1-0.5-0.2-0.7,0c-0.4-0.2-1-0.4-1.1-0.9
			c1.7-0.1,3.6-0.8,4.3-2.4c0.2-0.8,0.7-1.5,0.7-2.4c0.4-0.4,1.5-0.1,1.4-1.1c-0.2-0.6-0.3-1.3-1-1.6c-3.4-1.2-5.4,2.6-7.9,4.4
			c-1.4,1.2-3.6,1.5-5.2,0.9c-1.5-0.7-2.4-2.3-2.5-3.9c0.7,0,1.5-0.4,2.1-0.1c0.5-0.3,1,0.1,1.6-0.2c0.5,0.1,1.2-0.1,1.8-0.2
			c0.7,0.2,1.6-0.3,2.2-0.2c0.1,0.1,0.2,0.1,0.3,0l0.4-0.4l-0.4-0.4c-2.6,0.5-5.4,0.7-8.1,0.6c0.1,0,0.1-0.1,0.1-0.2l-0.1-0.1
			c0.1-0.4-0.2-1.2,0.3-1.4c1,0.2,2.3,0,3.3-0.2c1.1,0.1,2.2-0.2,3.3-0.4c0.3,0,0.9,0,1.2-0.4c0-0.2-0.2-0.3-0.3-0.4
			c-0.3,0-0.6,0.2-0.8,0.1c-0.7,0.1-1.5,0.1-2.2,0.4c-1.6-0.2-2.8,0.4-4.4,0.2h-0.4l-0.1-2c2.2-0.3,4.4-0.2,6.6-0.7
			c0.4-0.2,1.2,0,1.3-0.6c-0.3-0.3-0.9-0.2-1.3-0.1c-0.5,0-1.1,0.1-1.7,0.2c-1.2,0.4-2.7,0-3.9,0.4c-0.4-0.4-0.9,0.4-1.2-0.3
			c0-0.7,0.5-1.5-0.2-2c-0.6,0.3,0,0.7-0.3,1.2c0.2,0.2,0.1,0.7,0,1c-1.5,0.1-2.6,0-4-0.3c-0.3,0.1-0.6,0.2-0.9-0.1
			c-0.7,0.1-1.4-0.1-2.1-0.2c-0.2-0.2-0.5-0.1-0.8-0.1c-0.1,0.1-0.2,0.1-0.2,0.3l0.3,0.3c2.1,0.4,4.4,0.8,6.6,0.8
			c0.4,0.2,1.2-0.1,1.2,0.6c0,0.4-0.2,0.7-0.1,1.2c0.2,0.5-0.4,0.4-0.6,0.4c-0.8-0.2-1.4,0-2.1-0.2c-1.3-0.2-2.6-0.2-3.9-0.5
			c-0.5,0.1-1.4-0.9-1.6,0.2c0.4,0.6,1.2,0.5,1.7,0.5c0.4,0.4,1.2,0,1.6,0.4c0.2,0,0.7-0.1,1,0.1c0.5-0.1,1.1,0.3,1.7,0
			c0.8,0.2,1.5,0,2.3,0.3c0.2,0.5,0.1,1,0.1,1.6c-1.4,0.3-2.9-0.1-4.2-0.1c-0.9-0.2-1.6-0.1-2.3-0.4c-0.4,0.2-1.4-0.5-1.5,0.3
			l0.4,0.3c2,0.2,3.9,0.8,5.9,0.6c0.4,0.2,1,0.1,1.3,0.1c0.3,0.6-0.3,1.2-0.4,1.9c-0.7,1.4-2.2,2.6-3.7,2.5c-0.3,0-1,0.1-1.4-0.1
			c-3.6-1.1-5.7-6.1-9.8-6.1c-0.7,0.3-1.3,1.1-1.3,1.9c-0.2,0.8,0.7,0.8,1.1,1.2c0.3,1.8,1.5,3.8,3.4,4.4c0.4,0.1,1,0.1,1.4,0.1
			c0,0.1,0.1,0.1,0.2,0.1c-0.7,0.7-1.8,1.4-2.9,1c-2.4-1.2-2.1-4-3.4-5.9c-0.6,0.2-1.1,0.4-1.7,0.7c-0.5-0.1-1,0.3-1.6,0.3
			c-0.5,0-0.3,0.1-0.8,0.1c0,0.1-0.1,0.1-0.2,0.1c-0.2,0-0.8,0-1.1,0.1c-2.5-0.1-4.7-1.1-6.5-2.9v-0.3c4.1-1.6,8.6-2.4,13.1-2.7
			c0.4-2,0.7-4.1,1.3-6.2L32.7,47c0.4-0.9,0.5-1.9,1-2.8l0.3-0.2c2.2,0,4.4-0.4,6.5-0.4C45.1,43.6,49.6,43.4,53.8,43.7z"/>
		<path class="st1" d="M49.3,63.6c1,0.4,2.2,0.8,3.3,0.8c0.4-0.1,0.9-0.3,1.2-0.2l2.4-0.9l0.2,0.2c-0.5,1.2-0.8,2.4-1.1,3.7
			c0.1,0.5-0.2,1.2-0.1,1.8c0,0.2,0.1,0.4-0.1,0.5c0.3,0.3-0.2,0.7,0.1,1c0,0.4,0.1,0.7-0.1,1.2c0.1,1.7,0.6,3.2,1,4.9l-0.1,0.1
			c-3.3-1.7-6.9-2.9-11.1-2.1l-0.3,0c-0.5,0.3-1.2,0.2-1.8,0.5l-0.1-0.1c-1.2,0.1-2.2,0.9-3.3,1.2c-0.2-0.2,0-0.7,0.2-1
			c0.2-0.8,0.2-1.7,0.5-2.5c-0.1,0-0.1-0.2-0.1-0.3l0.1-0.1l-0.1-0.1c0.2-1,0.1-2.2,0.1-3.1c-0.3-1.2-0.2-2.6-0.8-3.7
			c0-0.6-0.5-1.1-0.3-1.7c0.7,0.3,1.6,0.5,2.3,0.7c0.3,0,1,0,1.3,0c0.9,0.1,1.8-0.2,2.6-0.5c0.9-0.2,1.6-1.3,2.3-1.7L49.3,63.6z"/>
		<path class="st1" d="M37.1,63.6c-0.1,0.9-0.4,2-1.4,2.3c-0.6,0.2-1.2,0-1.8-0.3c-0.4-0.4-0.9-0.9-1-1.5c1.2,0.7,2.7,0.1,3.7-0.6
			H37.1z"/>
		<path class="st1" d="M62.2,64c0.3,0.2-0.2,0.4-0.2,0.7c-0.5,0.6-1.1,1.1-1.9,1.2c-0.9,0.2-1.4-0.6-1.9-1.2
			c0.1-0.3-0.4-0.5-0.1-0.7C59.3,64.9,61.1,64.5,62.2,64z"/>
		<path class="st1" d="M38.7,67.4c0.3,0.9,0.2,2,0.5,2.8l-0.1,0.1c0.1,0.7,0.1,1.7,0,2.3c0.2,0.1,0.1,0.3,0.1,0.5l-0.1,0.1l0.1,0.1
			l-0.3,2.3c-1.4-1.7-2.3-3.8-3.4-5.8c-0.5-1.2-1-2.2-1.5-3.4c0.5-0.1,1,0.4,1.7,0.2c0.1-0.2,0.3-0.2,0.5-0.2c0.7-0.4,1-1.1,1.4-1.8
			C38.2,65.3,38.3,66.4,38.7,67.4z"/>
		<path class="st1" d="M58.3,65.6c0.6,1.2,2,0.6,2.8,0.9c-1.3,3.1-2.8,6.2-4.5,9.2c-0.9-1.3-0.4-3.3-0.4-4.9c0.2-2.1,0.8-4,1.4-5.9
			C58.1,64.9,58,65.4,58.3,65.6z"/>
		<path class="st1" d="M46.9,74.8c0.5,0.2,1.7,0.1,2.2,0.1c1.3,0.3,2.7,0.5,3.9,1.1l0.1-0.1l0.2,0.2l0.1-0.1
			c1.5,0.8,3.2,1.4,4.4,2.6c-0.6,2.8-1.3,5.5-3.5,7.5c-4.2,1.5-9.3,1.3-13.5-0.2c-2.2-2.2-3-5.1-3.1-8.2c1.5-1.5,3.6-1.9,5.6-2.5
			c0.5,0.1,0.8-0.2,1-0.1c0.7-0.3,1.4-0.1,2-0.3C46.5,74.7,46.7,75,46.9,74.8z"/>
		<path class="st1" d="M77,38.6l1.5-0.7l1.6,0.7c0,0-0.9-4.2-2.5-6.7C77.6,31.9,77.6,37.3,77,38.6z"/>
	</g>
	<path d="M41.1,66.5c0.5,2.4,2.6,5,5.1,5.4c0.3-0.1,0.7,0.1,1.1,0.1c0.5,0.1,1-0.2,1.4,0c0.4-0.4,0.7,0,1.1-0.4
		c2.8-0.8,4.5-3.9,5.1-6.5l0.2-0.2c0.2,0.9-0.3,1.8-0.7,2.5c-0.9,2.4-3.3,4.7-5.9,5c-2.2,0.1-4.8-0.6-6.2-2.7
		c-0.9-1.5-1.6-3.1-1.6-4.8C41,65.1,40.8,66,41.1,66.5z"/>
	<path d="M52.4,77.5c0.4,0,0.9,0.2,1.4,0.4c0.6,0.2,0.7,0.9,1,1.3c0.1,1-0.5,1.7-1.3,2.2c-0.3,0.1-0.7,0.3-1,0.2
		c-0.7,0.1-1.3-0.1-2-0.5c-0.4-0.1-0.4-1-0.8-0.4c0,0.3,0.1,0.6,0.3,0.9c-0.1,0-0.1,0.1-0.1,0.2c-0.4-0.2-0.5-0.8-0.7-1.2
		c0.1-0.1,0-0.4,0-0.6c-0.1-1,0.8-2,1.7-2.3C51.4,77.6,51.9,77.4,52.4,77.5z"/>
	<path d="M45.2,78.9c0.3,0.5,0.5,1.2,0.3,1.8c0.2,0.5-0.3,0.9-0.4,1.4c-0.1,0-0.2,0-0.3-0.1c0.1-0.4,0.7-0.8,0.2-1.2
		c-0.5,0.2-1,0.9-1.7,1c-0.9,0.2-1.8,0.1-2.4-0.5c-0.4-0.4-0.7-0.9-0.8-1.5c0.1-0.1,0.1-0.1,0.1-0.2c0-0.2,0-0.7,0.2-1
		c0.9-0.9,2.2-1.2,3.4-0.8C44.4,78,44.9,78.5,45.2,78.9z"/>
	<path d="M48.6,83.6c0.4,0,0.9-0.1,1.3,0.2l0.1-0.1c0.1,0.1,0.1,0.1,0.2,0.1c0.6-0.2,1.1,0.3,1.7,0.3l2.5,1v0.2
		c-0.7,0.2-1.1-0.4-1.7-0.4c-0.6-0.4-1.3-0.5-2-0.7c-0.2,0.1-0.5-0.1-0.7-0.2c-0.5,0-1.1-0.1-1.6,0c-0.1,0-0.3-0.2-0.4,0
		c-0.3-0.3-0.6,0.2-0.9-0.1c-0.4,0.1-1-0.1-1.4,0c-0.3,0.1-0.5,0.1-0.8,0.2L45,84c-1.5,0.2-2.9,0.6-4.3,1.2c-0.1,0-0.1-0.2-0.1-0.3
		c1.3-0.5,2.7-0.9,4.1-1.2c0.4,0.1,0.9-0.1,1.3-0.2C47,83.5,47.7,83.4,48.6,83.6z"/>
</g>
</svg>
