<?xml version="1.0" encoding="utf-8"?>
<!-- Generator: Adobe Illustrator 19.1.0, SVG Export Plug-In . SVG Version: 6.00 Build 0)  -->
<svg version="1.1" id="Layer_1" xmlns="http://www.w3.org/2000/svg" xmlns:xlink="http://www.w3.org/1999/xlink" x="0px" y="0px"
	 viewBox="0 0 1200 1200" enable-background="new 0 0 1200 1200" xml:space="preserve">
<g>
	<path fill="#95774D" d="M371.315,616.933c-9.815-170.298,120.279-316.271,290.54-326.078
		c170.26-9.807,316.237,120.275,326.049,290.573c9.795,170.227-120.279,316.212-290.548,326.019
		C527.1,917.255,381.114,787.164,371.315,616.933z"/>
	<path fill="#002147" d="M973.427,582.252c9.351,162.249-114.618,301.393-276.909,310.723
		c-162.265,9.355-301.397-114.635-310.744-276.879c-9.342-162.303,114.639-301.431,276.9-310.777
		C824.961,295.972,964.076,419.954,973.427,582.252z"/>
	<path fill="#981E32" d="M716.284,329.619c103.774,14.025,190.243,87.042,222.12,185.837
		C859.922,438.991,760.542,394.172,657.73,397.21C662.085,362.739,689.134,340.522,716.284,329.619z M617.748,334.263
		c14.932-3.464,30.367-5.715,46.186-6.619c6.623-0.385,13.217-0.523,19.765-0.439c-22.731,14.392-43.211,38.484-47.061,71.302
		c-14.012,1.314-28.078,3.523-42.128,6.678C600.013,374.069,608.313,349.312,617.748,334.263z M518.247,380.177
		c23.547-17.401,50.065-31.095,78.725-40.216c-8.426,16.539-15.941,40.71-21.204,69.993c-14.84,4.238-29.655,9.54-44.391,15.957
		C531.292,412.565,527.71,398.52,518.247,380.177z M430.736,489.265c16.585-37.458,41.421-70.612,72.315-97.021
		c9.238,8.924,10.451,26.673,8.949,42.793C484.444,448.973,457.249,466.944,430.736,489.265z M419.087,520.745
		c0.594-1.983,1.218-3.962,1.862-5.924C420.69,516.95,420.113,518.837,419.087,520.745z M448.734,743.053
		c-23.384-37.425-37.956-81.089-40.672-128.246c-1.816-31.451,1.803-61.977,10.02-90.641c28.744-27.58,58.96-49.538,89.996-66.206
		l-0.297,1.138c-9.97,38.028-35.162,69.897-49.651,105.468C434.936,621.535,435.627,687.562,448.734,743.053z M731.781,866.098
		c-11.912,2.318-24.125,3.866-36.576,4.586c-81.528,4.686-156.742-27.041-209.786-81.08
		c-28.534-56.378-34.053-144.981-14.811-204.113c10.297-31.651,40.358-74.591,49.601-106.686
		c3.385-11.761,6.506-21.756,8.577-31.149c14.447-6.619,29.041-12.133,43.705-16.572
		C555.818,557.567,580.298,756.973,731.781,866.098z M891.423,769.709c-34.547,42.902-81.971,75.244-136.81,90.921
		C602.879,749.312,575.88,549.564,591.394,425.958c14.966-3.59,29.99-6.088,44.99-7.531c3.18,37.119,26.819,83.256,86.498,137.362
		C788.235,617.916,868.867,700.068,891.423,769.709z M951.086,583.537c3.493,60.667-13.175,117.844-44.208,164.989
		c-23.518-67.662-99.803-142.35-164.051-203.443c-57.542-52.153-81.147-94.628-85.092-127.986
		c108.51-3.201,214.154,48.345,290.69,140.91C949.7,566.391,950.592,574.914,951.086,583.537z"/>
	<path fill="#95774D" d="M1119.806,775.449l-113.673-30.555c20.824-15.715,90.339-32.811,91.289-69.524
		c0.059-0.531,0.088-1.033,0.138-1.56c37.317-29.631,50.391-71.298,37.534-128.48L1183,425.904c0,0-123.773,29.794-143.634,34.559
		l18.581-55.876l-441.58,108.619c-104.757-45.65-232.162-9.778-332.136,49.199l-77.03-19.409
		C137.292,524.974,75.638,509.624,15,523.456c46.392,41.425,107.79,57.805,177.695,75.829l27.087,7.096
		c-26.848,21.129-49.768,43.224-67.139,64.42l-17.447,21.288l63.136-10.012C52.651,912.238,292.323,997.962,453.768,796.62
		l167.424-43.893c-23.255,30.919-23.255,76.846-23.255,76.846l10.1-7.753c50.55-42.613,109.125-63.968,154.495-73.189
		l107.364,28.137c-0.184,0.419-0.255,1-0.297,1.803c-3.766,59.177,23.61,99.284,84.524,109.117c3.56,0.69,6.146,1.28,10.644,2.004
		c-1.083-12.878-1.155-22.3-0.557-35.191c46.237,33.019,97.076,27.112,139.178-9.527l3.188,7.678
		c45.22,11.104,67.763-65.319,64.232-82.407C1170.712,769.822,1146.579,766.274,1119.806,775.449z M981.13,807.008
		c0,0,37.726,22.869,90.268,20.234C1043.128,846.781,988.486,829.97,981.13,807.008z"/>
	<path fill="#002147" d="M1163.424,779.667c-25.028-4.485-41.605,5.924-42.12,5.911c-0.38-0.037-87.013-23.325-118.907-31.948
		l-16.773-4.519c10.794-14.614,31.609-20.915,52.491-30.17c9.029-4.017,21.459-8.74,30.735-15.242
		c16.748-11.74,19.145-19.459,19.25-19.459c-30.555,1.004-59.349-7.242-64.42-8.305c-13.418-2.795-26.827-3.335-39.764-1.908
		c-0.427,0.038-0.874,0.092-1.302,0.142c-34.735,4.159-65.913,22.543-84.436,49.617c0,0-2.28,2.975-3.046,3.824
		c-2.431,2.703-5.879,6.832-5.879,6.832l10.18,2.619c7.033,1.201,3.075,16.485-6.242,14.071l-44.689-11.669
		c-17.434,1.46-35.63,2.891-47.969,3.782c-6.343,0.46-13.355,1.234-20.873,2.356l99.038,26.036
		c-7.084,64.629,27.609,104.393,76.545,108.338c-0.096-6.564-0.26-20.43,0.084-45.169c0,0,70.453,75.57,151.249-5.703
		c0.586-0.519,6.799,15.343,6.799,15.343C1148.947,848.58,1164.628,779.826,1163.424,779.667z M981.13,807.008
		c0,0,37.726,22.869,90.268,20.234C1043.128,846.781,988.486,829.97,981.13,807.008z"/>
	<g>
		<g>
			<defs>
				<path id="SVGID_1_" d="M1023.526,683.327c-24.305-4.05-55.492-5.263-74.118,5.268c-18.631,10.531-44.149,37.262-44.149,37.262
					s-1.623,4.05,2.025,10.531c1.971,3.498,3.795,5.799,5.079,7.636c0.105-2.64,1.079-5.753,3.192-8.322
					c17.384-22.409,47.864-46.341,87.921-44.605c-39.772,6.941-66.587,32.48-83.544,55.747c-2.519,2.791-4.514,3.205-5.841,2.284
					c-0.385,4.757-3.452,10.803-7.619,11.56c-4.452,0.808-21.869,14.987-21.869,14.987v8.506l1.615,26.731
					c0,0,3.247,19.037,9.318,26.731c6.075,7.694,23.898,33.208,51.843,36.049c0,0,2.029-68.048,10.535-88.293
					c8.506-20.255,19.845-43.747,38.07-53.466c18.233-9.719,46.174-19.443,60.751-27.137c14.585-7.698,21.066-16.2,21.066-16.2
					S1047.826,687.382,1023.526,683.327z"/>
			</defs>
			<clipPath id="SVGID_2_">
				<use xlink:href="#SVGID_1_"  overflow="visible"/>
			</clipPath>
			<path clip-path="url(#SVGID_2_)" fill="#95774D" d="M1017.618,688.202c-41.22-7.271-78.896,5.69-106.063,44.274
				c5.251,3.335,8.648,11.234,8.067,20.229c-0.711,11.108-7.2,19.786-14.711,20.045c0.021,0.234,0.084,0.422,0.092,0.682
				c0,0.008-0.008,0-0.008,0.004c0.866,16.777,6.707,32.873,14.978,41.412c3.192-28.882,18.601-68.236,62.047-92.557
				c-43.253,37.705-51.751,91.9-48.667,128.931c-20.217-4.067-37.082-38.107-43.031-56.043
				c4.569,30.685,23.689,67.286,53.002,69.306c-6.02-58.926,16.874-119.986,55.471-140.362c15.84-8.46,38.161-13.924,62.679-29.718
				C1035.211,692.256,1026.944,689.846,1017.618,688.202z"/>
		</g>
	</g>
	<path fill="#002B60" d="M1162.796,441.413c-0.289,0.314-97.849,23.819-139.467,33.752l18.576-55.851L615.447,525.163
		c-97.925-44.534-218.894-13.635-316.242,41.011l189.113,47.642c-0.803,2.498-1.745,4.971-2.782,6.992l-287.188-72.236
		c-58.333-15.041-110.987-29.321-161.249-19.422c39.208,32.969,92.239,45.793,150.579,60.83l214.363,56.354
		c-3.9,1.665-7.564,3.372-10.686,5.02L232.702,609.77c-28.848,21.957-53.458,45.258-71.888,67.729l56.671-7.402
		C55.45,929.647,317.535,962.609,441.622,787.992l205.849-51.633c-18.853,18.51-30.016,45.282-35.814,68.788
		c60.955-52.654,140.446-69.005,188.126-72.44c28.936-2.092,60.914-5.271,85.691-8.033l7.008-8.849
		c22.589-30.944,55.412-46.044,90.134-49.454c27.032-2.623,36.518,1.331,47.906,3.397c5.301,1.368,24.15,6.385,43.458,7.251
		c49.889-29.112,64.655-71.273,50.099-132.43L1162.796,441.413z M442.572,633.476L229.439,577.83
		c-60.801-16.819-76.616-30.363-80.591-33.898l123.836,31.969l201.088,51.705C464.646,629.719,450.919,632.012,442.572,633.476z"/>
	<g>
		<g>
			<g>
				<path fill="#002147" d="M1162.796,441.413c-0.289,0.314-97.849,23.819-139.467,33.752l18.576-55.851L615.447,525.163
					c-97.925-44.534-218.894-13.635-316.242,41.011l189.113,47.642c-0.803,2.498-1.745,4.971-2.782,6.992l-287.188-72.236
					c-58.333-15.041-110.987-29.321-161.249-19.422c39.208,32.969,92.239,45.793,150.579,60.83l214.363,56.354
					c-3.9,1.665-7.564,3.372-10.686,5.02L232.702,609.77c-28.848,21.957-53.458,45.258-71.888,67.729l56.671-7.402
					C55.45,929.647,317.535,962.609,441.622,787.992l205.849-51.633c-18.853,18.51-30.016,45.282-35.814,68.788
					c60.955-52.654,140.446-69.005,188.126-72.44c28.936-2.092,60.914-5.271,85.691-8.033l7.008-8.849
					c22.589-30.944,55.412-46.044,90.134-49.454c27.032-2.623,36.518,1.331,47.906,3.397c5.301,1.368,24.15,6.385,43.458,7.251
					c49.889-29.112,64.655-71.273,50.099-132.43L1162.796,441.413z M442.572,633.476L229.439,577.83
					c-60.801-16.819-76.616-30.363-80.591-33.898l123.836,31.969l201.088,51.705C464.646,629.719,450.919,632.012,442.572,633.476z"
					/>
			</g>
		</g>
		<path fill="none" d="M1119.806,775.449l-113.673-30.555c20.824-15.715,90.339-32.811,91.289-69.524
			c0.059-0.531,0.088-1.033,0.138-1.56c37.317-29.631,50.391-71.298,37.534-128.48L1183,425.904c0,0-123.773,29.794-143.634,34.559
			l18.581-55.876l-441.58,108.619c-104.757-45.65-232.162-9.778-332.136,49.199l-77.03-19.409
			C137.292,524.974,75.638,509.624,15,523.456c46.392,41.425,107.79,57.805,177.695,75.829l27.087,7.096
			c-26.848,21.129-49.768,43.224-67.139,64.42l-17.447,21.288l63.136-10.012C52.651,912.238,292.323,997.962,453.768,796.62
			l167.424-43.893c-23.255,30.919-23.255,76.846-23.255,76.846l10.1-7.753c50.55-42.613,109.125-63.968,154.495-73.189
			l107.364,28.137c-0.184,0.419-0.255,1-0.297,1.803c-3.766,59.177,23.61,99.284,84.524,109.117c3.56,0.69,6.146,1.28,10.644,2.004
			c-1.083-12.878-1.155-22.3-0.557-35.191c46.237,33.019,97.076,27.112,139.178-9.527l3.188,7.678
			c45.22,11.104,67.763-65.319,64.232-82.407C1170.712,769.822,1146.579,766.274,1119.806,775.449z M393.729,808.247
			C245.668,953.642,84.165,844.099,281.37,635.216c-22.384,6.318-68.558,16.933-68.625,15.644
			c16.84-13.589,33.848-25.957,50.881-37.262l82.201,22.577c-1.339,1.318-2.644,2.631-3.908,3.945
			c-182.967,190.937-62.613,222.89,70.612,149.462C415.284,788.21,393.729,808.247,393.729,808.247z M507.138,622.046
			c47.023-91.941-37.68-71.014-108.23-26.844l-71.298-18.87c122.84-61.843,237.182-64.997,286.122-17.1
			C613.38,557.659,516.983,614.649,507.138,622.046z M915.401,692.252c-86.72,13.062-178.277,17.208-254.705,53.082
			c33.216-34.074,120.911-53.537,217.66-68.432c106.497-15.907,220.568-42.441,180.155-103.163
			c-7.64-7.23-11.765-9.133-17.832-17.304c-26.334-35.375,18.752-75.817,69.323-72.499c3.469,0.234,12.632,1.636,12.326,1.95
			l-12.426,31.668c-10.171-16.25-43.178-20.075-47.538-0.423c-3.263,14.724,20.07,20.083,33.664,45.772
			c18.547,35.036-0.837,70.407-34.442,87.674c-13.029,6.694-26.476,12.389-40.25,17.275c-11.179,2.924-22.924,6.159-37.5,10.213
			C970.486,681.771,966.42,684.144,915.401,692.252z M981.13,807.008c0,0,37.726,22.869,90.268,20.234
			C1043.128,846.781,988.486,829.97,981.13,807.008z"/>
	</g>
	<g>
		<g>
			<path fill="#95774D" d="M1125.994,794.089c8.656-4.134,18.271-5.995,27.731-7.23c-13.179,4.945-19.777,12.572-20.539,12.267
				c-2.983,7.313-2.9,15.058-19.618,23.413C1118.852,814.255,1126.576,804.715,1125.994,794.089z"/>
		</g>
		<path fill="#95774D" d="M959.432,808.117c18.02,39.588,70.524,48.927,102.217,42.211c-14.15,12.293-83.135,9.673-103.849-30.777
			L959.432,808.117z"/>
		<path fill="#95774D" d="M978.8,757.718l136.178,35.237c4.443,1.134,2.573,13.598-3.226,12.1l-140.061-35.622
			C972.49,766.09,977.582,758.529,978.8,757.718z"/>
	</g>
	<g>
		<g>
			<defs>
				<path id="SVGID_3_" d="M1017.618,688.202c-41.22-7.271-78.896,5.69-106.063,44.274c5.251,3.335,8.648,11.234,8.067,20.229
					c-0.711,11.108-7.2,19.786-14.711,20.045c0.021,0.234,0.084,0.422,0.092,0.682c0,0.008-0.008,0-0.008,0.004
					c0.866,16.777,6.707,32.873,14.978,41.412c3.192-28.882,18.601-68.236,62.047-92.557c-43.253,37.705-51.751,91.9-48.667,128.931
					c-20.217-4.067-37.082-38.107-43.031-56.043c4.569,30.685,23.689,67.286,53.002,69.306
					c-6.02-58.926,16.874-119.986,55.471-140.362c15.84-8.46,38.161-13.924,62.679-29.718
					C1035.211,692.256,1026.944,689.846,1017.618,688.202z"/>
			</defs>
			<clipPath id="SVGID_4_">
				<use xlink:href="#SVGID_3_"  overflow="visible"/>
			</clipPath>
			<path clip-path="url(#SVGID_4_)" fill="#FFFFFF" d="M915.556,735.702c-6.046,7.368-3.008,19.317,4.376,11.142
				c16.957-23.267,43.772-48.805,83.544-55.747C963.42,689.361,932.94,713.293,915.556,735.702z"/>
		</g>
	</g>
	<g>
		<path fill="#FFFFFF" d="M763.144,510.979l9.004-2.009l0.799,23.02l18.033-27.413l12.225-3.276l-35.438,47.538L763.144,510.979z
			 M997.046,456.187l-1.343-0.192l-7.247,1.673l-13.238,33.719l5.728-1.398c0.268-0.054,1.113-0.364,2.9-1.159l2.046-1.063
			l12.502-31.195C997.966,456.4,997.61,456.295,997.046,456.187z M980.252,494.503l-18.204,4.464l16.936-43.174l18.246-4.539
			c3.067-0.741,5.974-0.812,8.752-0.41c2.762,0.343,4.477,1.037,3.925,2.401l-12.481,31.802c-0.548,1.422-3.201,3.255-6.916,5.234
			C986.795,492.264,983.318,493.754,980.252,494.503z M648.287,577.662c-2.786,0.674-5.744,0.971-8.849,0.963
			c-3.966-0.004-6.201-0.749-5.473-2.598l12.824-32.672c0.536-1.356,3.238-3.142,6.853-5.058c3.728-1.942,7.184-3.406,10.23-4.159
			l18.054-4.418l-3.017,7.707l-11.05,2.707l1.314-2.971l-3.067,0.673c-3.008,0.745-5.159,1.423-6.615,2.054
			c-1.23,0.527-1.594,0.854-1.724,1.176l-12.355,31.814c-0.009,0.025-0.042,0.335,1.962,0.289c1.536-0.063,2.464-0.192,2.933-0.305
			c1.489-0.356,2.837-0.904,4.259-1.749c1.506-0.916,2.23-1.631,2.46-2.238l-0.69-1.481l12.104-2.966l-1.389,3.548
			c-0.674,1.732-3.833,3.736-8.289,5.786C654.898,575.558,651.379,576.901,648.287,577.662z M694.846,527.368l11.133-2.72
			l-15.058,38.375l18.321-4.494l-1.87,4.744l-29.455,7.222L694.846,527.368z M732.948,517.707l25.367-6.209l-1.811,4.631
			l-14.234,3.485l-5.088,12.991l14.209-3.477l-1.832,4.741l-14.246,3.485l-6.28,16.004l14.233-3.481l-1.878,4.744l-25.371,6.213
			L732.948,517.707z M812.376,498.089l25.367-6.217l-1.812,4.644l-14.233,3.481l-5.096,12.995l14.234-3.485l-1.866,4.745
			l-14.229,3.489l-6.284,15.999l14.229-3.506l-1.87,4.774l-25.371,6.221L812.376,498.089z M848.236,488.817l11.15-2.724
			l-15.05,38.362l18.304-4.481l-1.866,4.753l-29.459,7.213L848.236,488.817z M898.192,500.16l-10.506,2.569l-6.385,16.284
			l-11.443,2.791l14.966-37.777c0.719-1.841,3.736-3.9,8.217-6.037c3.724-1.782,7.343-3.138,10.812-3.987
			c3.313-0.816,6.51-1.075,9.623-0.904c3.263,0.142,5.075,0.912,4.409,2.556l-14.924,38.04l-11.141,2.736L898.192,500.16z
			 M906.368,478.767c-0.222-0.084-0.674-0.142-1.481-0.159c-1.594-0.054-2.619,0.126-2.979,0.226
			c-0.607,0.134-1.895,0.586-3.942,1.519c-0.933,0.439-1.456,0.745-1.77,0.933l-6.79,16.727l10.518-2.573l6.631-16.568
			L906.368,478.767z M942.672,491.792l-4.439-16.907l-11.192,33.388l-11.15,2.724l16.92-43.132l11.305-2.761l3.636,14.949
			l6.882-17.522l11.146-2.72l-16.937,43.12l-11.297,2.77L942.672,491.792z"/>
		<g>
			<path fill="#FFFFFF" d="M529.936,632.02l17.463,10.644c-9.033,25.715-48.207,80.231-70.633,96.695l39.233-104.268l-30.095,7.983
				l-49.266,125.489l63.14-16.2c1.385-0.406,56.759-44.333,88.436-135.17L529.936,632.02z"/>
			<path fill="#FFFFFF" d="M346.492,742.225c-0.305,0.029-23.02,46.789-27.639,56.37l31.237-8.167l21.125-43.785l25.25-7.427
				l-17.422,43.927l33.229-8.527l51.165-126.761C446.266,653.693,385.574,654.73,346.492,742.225z M404.854,721.82l-24.669,7.109
				c0,0,20.627-40.375,41.923-46.739L404.854,721.82z"/>
			<path fill="#FFFFFF" d="M978.607,584.604c-1.711-2.485-3.062-7.632-3.054-7.762c1.042-0.477,2.104-1.017,3.176-1.623
				c20.321-11.581,42.66-46.128,41.764-69.683c-28.572,7.665-76.453,20.062-76.708,20.405l-45.739,125.656l29.739-7.632
				l19.644-54.039c2.238,5.041,15.351,36.145,40.864,38.739c29.48,2.979,46.734-26.166,46.734-26.166
				C1027.27,609.142,992.071,611.669,978.607,584.604z M954.546,572.612l14.493-40.178l22.585-6.05
				C988.385,535.024,982.344,558.295,954.546,572.612z"/>
			<path fill="#FFFFFF" d="M572.19,685.026c-0.314,0.017-22.694,45.956-27.321,55.542l31.576-8.096l20.459-43.031l25.254-7.426
				l-17.259,43.354l32.961-8.33l51.236-126.112C674.014,595.277,611.263,597.536,572.19,685.026z M630.547,664.613l-24.673,7.104
				c0,0,20.626-40.362,41.923-46.726L630.547,664.613z"/>
			<polygon fill="#FFFFFF" points="803.016,560.697 753.772,687.005 785.089,679.123 834.162,552.823 			"/>
			<path fill="#FFFFFF" d="M836.517,651.149l15.723-36.827l43.069-23.288l-34.572,2.556l15.095-40.19
				c18.878-5.933,28.388-0.168,36.421,11.719l14.309-35.354l-75.846,19.313l-48.739,126.107l77.235-20.083l16.619-39.082
				C878.658,634.878,859.529,647.249,836.517,651.149z"/>
			<path fill="#FFFFFF" d="M697.695,686.604l41.132-109.351l-32.881,8.326l-48.542,126.438l83.327-21.48l18.388-44.823
				C736.978,671.872,725.329,682.047,697.695,686.604z"/>
		</g>
	</g>
	<g>
		<g>
			<defs>
				<path id="SVGID_5_" d="M1162.796,441.413c-0.289,0.314-97.849,23.819-139.467,33.752l18.576-55.851L615.447,525.163
					c-97.925-44.534-218.894-13.635-316.242,41.011l189.113,47.642c-0.803,2.498-1.745,4.971-2.782,6.992l-83.494,25.526
					c-3.9,1.665-7.564,3.372-10.686,5.02L232.702,609.77c-28.848,21.957-53.458,45.258-71.888,67.729l56.671-7.402
					C55.45,929.647,317.535,962.609,441.622,787.992l205.849-51.633c-18.853,18.51-30.016,45.282-35.814,68.788
					c60.955-52.654,140.446-69.005,188.126-72.44c28.936-2.092,60.914-5.271,85.691-8.033l7.008-8.849
					c22.589-30.944,55.412-46.044,90.134-49.454c27.032-2.623,36.518,1.331,47.906,3.397c5.301,1.368,24.15,6.385,43.458,7.251
					c49.889-29.112,64.655-71.273,50.099-132.43L1162.796,441.413z"/>
			</defs>
			<clipPath id="SVGID_6_">
				<use xlink:href="#SVGID_5_"  overflow="visible"/>
			</clipPath>
			<path clip-path="url(#SVGID_6_)" fill="#FFFFFF" d="M1122.329,485.884l-12.426,31.668c-10.171-16.25-43.178-20.075-47.538-0.423
				c-3.263,14.724,20.07,20.083,33.664,45.772c18.547,35.036-0.837,70.407-34.442,87.674c-13.029,6.694-26.476,12.389-40.25,17.275
				c-11.179,2.924-22.924,6.159-37.5,10.213c-13.351,3.707-17.418,6.079-68.436,14.188c-86.72,13.062-178.277,17.208-254.705,53.082
				c33.216-34.074,120.911-53.537,217.66-68.432c106.497-15.907,220.568-42.441,180.155-103.163
				c-7.64-7.23-11.765-9.133-17.832-17.304c-26.334-35.375,18.752-75.817,69.323-72.499
				C1113.472,484.169,1122.635,485.57,1122.329,485.884z"/>
		</g>
		<g>
			<defs>
				<path id="SVGID_7_" d="M1162.796,441.413c-0.289,0.314-97.849,23.819-139.467,33.752l18.576-55.851L615.447,525.163
					c-97.925-44.534-218.894-13.635-316.242,41.011l189.113,47.642c-0.803,2.498-1.745,4.971-2.782,6.992l-83.494,25.526
					c-3.9,1.665-7.564,3.372-10.686,5.02L232.702,609.77c-28.848,21.957-53.458,45.258-71.888,67.729l56.671-7.402
					C55.45,929.647,317.535,962.609,441.622,787.992l205.849-51.633c-18.853,18.51-30.016,45.282-35.814,68.788
					c60.955-52.654,140.446-69.005,188.126-72.44c28.936-2.092,60.914-5.271,85.691-8.033l7.008-8.849
					c22.589-30.944,55.412-46.044,90.134-49.454c27.032-2.623,36.518,1.331,47.906,3.397c5.301,1.368,24.15,6.385,43.458,7.251
					c49.889-29.112,64.655-71.273,50.099-132.43L1162.796,441.413z"/>
			</defs>
			<clipPath id="SVGID_8_">
				<use xlink:href="#SVGID_7_"  overflow="visible"/>
			</clipPath>
			<path clip-path="url(#SVGID_8_)" fill="#FFFFFF" d="M613.732,559.232c-0.352-1.573-96.749,55.416-106.594,62.813
				c61.541-120.321-102.527-47.349-165.219,18.075c-182.967,190.937-62.613,222.89,70.612,149.462
				c2.753-1.372-18.802,18.665-18.802,18.665C245.668,953.642,84.165,844.099,281.37,635.216
				c-22.384,6.318-68.558,16.933-68.625,15.644C373.37,521.209,549.638,496.499,613.732,559.232z"/>
		</g>
	</g>
	<path fill="#95774D" d="M969.043,793.8c-0.456,39.333,76.72,72.675,125.902,24.162C1019.313,829.999,970.039,793.779,969.043,793.8
		z M981.13,807.008c0,0,37.726,22.869,90.268,20.234C1043.128,846.781,988.486,829.97,981.13,807.008z"/>
</g>
</svg>
