<?xml version="1.0" encoding="utf-8"?>
<!-- Generator: Adobe Illustrator 19.1.0, SVG Export Plug-In . SVG Version: 6.00 Build 0)  -->
<svg version="1.1" id="Layer_1" xmlns="http://www.w3.org/2000/svg" xmlns:xlink="http://www.w3.org/1999/xlink" x="0px" y="0px"
	 viewBox="0 0 400 400" enable-background="new 0 0 400 400" xml:space="preserve">
<g>
	<path fill="#010101" d="M37.439,35.482c0,0,8.756,105.856,47.753,187.036c0,0-28.651-7.955-63.672-27.854l65.261,167.142
		c0,0,33.427-20.696,63.672-23.082c0,0,32.635,42.981,48.554,53.322c15.915-10.341,46.159-54.119,46.159-54.119
		c30.245,2.391,61.286,22.289,61.286,22.289l67.652-165.552c-35.021,19.899-58.103,27.854-58.103,27.854
		c35.021-81.178,46.956-187.831,46.956-187.831l-70.038,20.693H105.086L37.439,35.482L37.439,35.482z"/>
	<path fill="#FFFFFF" d="M105.086,60.276h188.542c0,0,51.957-15.349,63.531-18.772c-3.412,25.404-16.57,111.663-45.653,179.077
		l-5.855,13.876c0,0,60.207-20.022,88.268-35.019c-8.615,21.081-61.471,144.533-65.186,153.611
		c-10.346-3.183-59.028-18.094-83.184-20.005l-2.809-0.22l-1.603,2.32c-7.708,11.16-29.245,40.436-42.162,50.852
		c-15.827-12.415-44.324-49.835-44.627-50.232l-1.616-2.131l-2.668,0.211c-22.694,0.101-79.204,15.224-85.574,22.391
		C57.761,338.971,12.517,213.74,7.556,201.035c29.487,15.276,86.441,31.424,86.441,31.424l-4.949-12.098
		C56.656,152.938,45.803,67.226,43.043,42.236c11.23,3.306,61.344,18.041,61.344,18.041H105.086L105.086,60.276z"/>
	<path fill="#C4CED4" d="M49.378,50.607l47.753,14.326h203.748L347.84,49.81c0,0-3.98,72.426-42.981,167.932
		c-38.997,95.511-106.648,158.385-106.648,158.385s-78.795-85.953-109.836-172.713C57.334,116.667,49.378,50.607,49.378,50.607
		L49.378,50.607z"/>
	<path fill="#1463AD" d="M19.134,212.173c0,0,66.058,29.452,129.73,36.615c63.676,7.162,104.262,0.797,104.262,0.797
		s64.469-8.756,124.958-37.412l-56.509,132.125c0,0-41.383-12.741-72.424-15.919c-31.042-3.179-80.388-3.179-104.267,0
		c-23.874,3.179-75.612,17.508-75.612,17.508L19.134,212.173L19.134,212.173z"/>
	<path fill="#FFFFFF" d="M314.953,121.021c0-61.456-51.719-111.275-115.519-111.275c-63.795,0-115.515,49.82-115.515,111.275
		c0,61.453,51.72,111.271,115.515,111.271C263.234,232.292,314.953,182.474,314.953,121.021L314.953,121.021z"/>
	<path fill="#010101" d="M80.653,121.021c0,63.157,53.287,114.537,118.781,114.537c65.499,0,118.782-51.381,118.782-114.537
		c0-63.157-53.283-114.54-118.782-114.54C133.94,6.481,80.653,57.864,80.653,121.021L80.653,121.021z M87.181,121.021
		c0-59.558,50.355-108.011,112.253-108.011c61.898,0,112.257,48.455,112.257,108.011c0,59.556-50.359,108.008-112.257,108.008
		C137.537,229.03,87.181,180.577,87.181,121.021L87.181,121.021z"/>
	<path fill="#1463AD" d="M307.443,152.756c0,58.079-47.075,105.154-105.156,105.154c-58.072,0-105.156-47.075-105.156-105.156
		c0-58.076,47.084-105.158,105.156-105.158C260.368,47.596,307.443,94.677,307.443,152.756L307.443,152.756z"/>
	<path fill="#010101" d="M311.361,152.756c0,60.236-48.832,109.072-109.07,109.072c-30.121,0-57.389-12.208-77.13-31.948
		c-19.736-19.74-31.944-47.007-31.944-77.124c0-30.119,12.208-57.388,31.944-77.128c19.74-19.738,47.009-31.948,77.13-31.948
		c30.122,0,57.385,12.208,77.126,31.948C299.153,95.368,311.361,122.637,311.361,152.756L311.361,152.756z M303.529,152.756
		c0-27.958-11.332-53.269-29.65-71.59c-18.323-18.32-43.628-29.652-71.588-29.652c-27.955,0-53.269,11.332-71.588,29.652
		c-18.323,18.321-29.654,43.632-29.654,71.59s11.332,53.271,29.654,71.585c18.319,18.323,43.633,29.654,71.588,29.654
		C258.202,253.996,303.529,208.668,303.529,152.756L303.529,152.756z"/>
	<path fill="#010101" d="M193.231,37.82c0,0-4.856,4.858-4.856,8.219c0,0,20.555,10.837,25.036,18.686c0,0,8.224-2.617,13.828-2.243
		c5.604,0.372,14.572,4.112,14.572,4.112s-8.967,4.856-10.839,6.727c-1.866,1.867-6.348,8.221-6.348,8.221
		s14.198,9.718,31.015,11.211c16.813,1.495,26.159-3.735,26.159-3.735l3.359,1.493l-1.118,2.243c0,0-6.348,2.617-11.961,3.736
		c-5.604,1.123-11.579,2.243-16.439,2.243c-4.86,0-18.31-2.615-22.421-4.112l1.122,5.609c0,0-5.234-5.609-11.213-5.609v2.617
		c0,0,14.576,5.978,27.652,16.069c13.08,10.088,24.662,23.916,24.662,23.916s8.475,8.228,14.202,25.408
		c3.363,10.09,3.738,22.798,3.738,22.798l3.363,1.866l-7.101,15.321l-1.123-5.602c0,0-0.37-13.826-4.482-26.534
		c-4.107-12.705-11.587-20.926-18.314-29.148c-6.722-8.224-27.647-22.047-32.133-24.29c0,0,7.097,13.828,7.471,18.684
		c0,0-5.979-5.979-11.583-7.097c0,0,5.23,4.11,16.443,22.793c11.209,18.684,10.09,43.72,10.09,43.72s-1.123,19.426-2.993,27.654
		c-1.867,8.22-4.108,10.086-4.108,10.086l-1.866-9.342c0,0,4.107-14.942,1.866-32.88c-2.241-17.94-6.357-36.998-19.806-48.955
		c0,0,2.993,10.836,2.245,18.312c-0.753,7.475-5.983,17.189-5.983,17.189s-1.867-17.563-7.101-17.938c0,0,0,4.858-0.37,8.224
		c-0.374,3.359-3.738,9.714-1.497,14.946c2.245,5.232,5.609,19.058,5.983,20.553c0.37,1.494,1.118,5.606,1.118,5.606
		s0.748,1.497-1.492,3.363c-2.245,1.867-10.09,8.594-10.09,8.594s-5.979,3.363-2.241,4.481c3.733,1.118,25.036,1.118,25.036,1.118
		s23.918-1.866,38.49-13.449c14.572-11.583,26.159-28.772,26.159-28.772l-4.86,21.297c0,0-7.471,21.673-27.656,34.388
		c-20.176,12.705-58.288,35.122-111.728,11.952c-53.437-23.17-63.527-73.615-63.527-73.615s-4.482-15.322-3.734-22.047
		c0.744-6.725-2.989-14.948,4.108-14.948c0,0,0-11.211,3.738-14.948l1.866-7.847c0,0,2.62-19.058,15.699-29.895
		c0,0,7.097-8.593,8.593-9.716c1.497-1.12,2.241-5.232,2.241-5.232l8.967-8.593l4.861-0.749c0,0,13.075-8.591,15.694-8.967
		C156.238,54.637,164.087,37.072,193.231,37.82L193.231,37.82z"/>
	<path fill="#FFFFFF" d="M202.947,233.256c-14.198-2.241-16.813-3.738-25.78-9.716c-8.972-5.979-12.706-13.454-12.706-13.454
		c7.471,3.733,16.439,1.497,17.935,1.127c1.493-0.379,10.461-5.608,12.706-7.856c2.241-2.241,1.867-4.107,1.493-6.348
		c-0.375-2.243-1.123-10.093-1.123-14.202c0-4.11-1.492-9.714-1.492-9.714l-3.364,7.473c0,0,0,0-1.118-2.617
		c-1.122-2.615-1.871-6.725-2.245-9.714c-0.37-2.992-2.241-9.344-2.989-13.08c-0.748-3.738-2.241-13.079-2.241-13.079
		s-4.86-18.312-5.234-19.432c-0.37-1.123,0.748-3.363,0.748-3.363s1.867,5.233,6.353,8.222c4.486,2.989,9.342,3.365,9.342,3.365
		s-11.583-11.585-15.321-17.938c-3.738-6.351-5.978-17.94-7.097-22.047c-1.123-4.112,0.744-5.606,0.744-5.606l2.241,4.11
		l6.357,1.123c-7.475-24.662-4.112-32.886-3.363-35.873c0.744-2.989,8.219-12.331,8.219-12.331l-3.363,0.372
		c-7.101,1.493-16.443,8.968-16.443,8.968s-8.594,5.979-8.968,13.08c-0.37,7.099-6.353,11.211-9.342,14.948
		c-2.989,3.735-8.224,13.824-11.213,21.299c-2.989,7.473-3.359,20.553-1.118,28.4c2.241,7.847,8.219,15.695,10.834,18.31
		c2.62,2.615,1.123,2.989-2.241,1.869c-3.363-1.123-9.342-4.112-12.331-7.473c-2.989-3.363-2.989-1.123-2.989,0.748
		c0,1.866,6.727,16.066,8.219,18.684c1.497,2.615-1.118,1.495-3.733-0.746c-2.619-2.245-7.849-8.596-7.849-8.596
		s1.123,3.738,4.112,10.462c2.985,6.727,17.561,26.159,17.561,26.159s13.828,8.596-0.37,4.858
		c-14.202-3.735-21.673-8.967-21.673-8.967l4.856,8.967c0,0,21.299,29.146,40.731,37.749c19.432,8.589,38.116,7.845,46.335,7.845
		c8.224,0,23.918-4.112,23.918-4.112S217.145,235.501,202.947,233.256L202.947,233.256z M178.659,187.669
		c3.363-6.727,7.475-1.869,8.224,3.735c0.779,5.856,1.122,10.465,1.122,10.465c-7.101-18.684-6.357-3.363-6.357-3.363
		C172.681,197.011,178.659,187.669,178.659,187.669L178.659,187.669z M165.954,57.252c0.374-1.497,5.234-6.726,5.234-6.726
		s7.845-5.233,6.727-3.74c-1.123,1.499-7.475,14.951-7.475,14.951h-1.867l-5.983,5.604C162.591,67.34,165.58,58.745,165.954,57.252
		L165.954,57.252z M161.846,90.136c0.744-2.243,2.989-4.112,2.989-4.112s-0.748,5.604,0.744,12.331
		c1.497,6.727,6.727,14.574,6.727,14.574s-2.989,0.747-6.353-1.494c-3.363-2.243-5.979-5.979-5.979-9.342
		C159.976,98.729,161.094,92.377,161.846,90.136L161.846,90.136z M151.008,100.229c0.374-4.858,4.112-10.09,4.112-10.09
		s-2.989,7.473-1.123,13.824c1.871,6.355,7.097,14.574,8.22,14.946c1.123,0.376,2.619-0.37,2.619-0.37l4.112,3.363l3.363,12.329
		c0,0-8.219-4.481-14.198-11.954C152.126,114.798,150.633,105.082,151.008,100.229L151.008,100.229z M151.756,174.215
		c-4.486-7.473-10.465-18.31-10.465-18.31l11.583,2.613c0,0,14.198,32.14,15.321,32.886c1.123,0.747,0.374,3.362,0.374,3.362
		l-2.241-1.495C166.328,193.271,156.238,181.689,151.756,174.215L151.756,174.215z"/>
	<path fill="#C4CED4" d="M133.068,75.188c0,0-3.363,5.606-1.493,7.847c0,0,11.208-13.452,17.935-15.695
		c0,0-14.572,14.575-20.176,29.523c-5.608,14.948-7.101,34.38-5.978,46.712c0,0-7.849-20.555-3.364-35.501
		c0,0-9.721,8.967-6.727,31.763c2.989,22.793,20.55,43.348,20.55,43.348s-10.09-5.232-14.572-9.716
		c-4.486-4.486-8.224-12.331-8.224-12.331s1.123,27.277,22.048,52.312c20.929,25.041,45.965,32.138,63.527,34.753
		c17.565,2.615,47.458-1.493,73.991-19.054c0,0-27.281,23.54-63.527,24.288c-36.249,0.744-66.516-17.94-79.969-33.26
		c-13.454-15.321-32.512-46.71-28.774-72.12c0,0,1.492,19.804,9.716,28.772c0,0-7.849-33.256-7.101-46.709
		c0.748-13.449,7.475-27.279,11.583-30.266c0,0-6.353,13.828-3.733,20.178c0,0,6.352-19.432,11.208-23.542
		c4.86-4.112,4.486-7.099,5.234-9.344C125.971,84.904,127.468,79.297,133.068,75.188L133.068,75.188z"/>
	<path fill="#C4CED4" d="M174.547,175.336l-0.744-17.938c0,0,0.374-5.233-0.748-8.968c-1.118-3.738,0-10.836,0-10.836l2.245,5.604
		c0,0,0.744,3.363,0.744,4.858c0,1.493,0.748,5.979,2.619,9.716c1.867,3.735,5.23,19.43,5.23,19.43S179.033,173.093,174.547,175.336
		L174.547,175.336z"/>
	<path fill="#C4CED4" d="M176.419,191.779c0,0,0.748-7.473,1.866-8.594c1.123-1.122,5.609-4.86,8.224,0.372
		c2.615,5.233,3.359,10.462,1.866,16.817C188.375,200.374,186.883,174.59,176.419,191.779L176.419,191.779z"/>
	<path fill="#C4CED4" d="M214.909,68.087l4.107,6.352c0,0,0.379-4.11,5.608-6.352c5.23-2.241,11.957-1.869,11.957-1.869
		s-7.471-2.243-11.957-1.492C220.139,65.472,214.909,68.087,214.909,68.087L214.909,68.087z"/>
	<path fill="#C4CED4" d="M206.685,92.002c0,0,5.604-8.596,5.604-11.208l1.871-5.606l0.749,5.232
		c1.118,5.979,0.744,19.056,0.744,19.056s-0.37,12.335-2.615,18.686c-2.241,6.353-5.974,10.836-5.974,10.836
		s2.615-5.233,4.482-21.299c1.866-16.069,0.744-16.069,0.744-16.069s-3.733,9.718-6.727,12.706c0,0-1.118-7.101-3.363-11.959
		c-2.241-4.858-7.471-8.594-7.471-8.594s2.985,8.594,5.23,17.938c2.241,9.34,1.497,26.157,1.497,26.157s-3.742-14.949-8.598-32.51
		c-4.856-17.566-11.583-29.15-11.583-29.15s11.957,8.221,15.695,12.334C200.711,82.661,206.685,92.002,206.685,92.002
		L206.685,92.002z"/>
	<path fill="#C4CED4" d="M171.933,86.398c0,0,8.593,13.83,5.234-15.695c0,0,7.471,26.905,7.845,27.654
		c0.374,0.746,1.497,5.23-1.492,2.617C180.526,98.357,171.933,86.398,171.933,86.398L171.933,86.398z"/>
	<path fill="#C4CED4" d="M221.261,108.82c0,0-0.753-5.98,0.374-3.363c1.118,2.615,2.241,11.583,1.118,16.815
		c-1.118,5.232-8.968,12.331-8.968,12.331s-0.374,0.374,1.123-2.987c1.492-3.366,2.615-5.981,3.733-10.837
		C219.765,115.919,221.261,108.82,221.261,108.82L221.261,108.82z"/>
	<path fill="#C4CED4" d="M202.203,222.043l16.069-12.326c0,0,0.749-1.497,0.375-3.738c-0.375-2.245-7.475-26.534-7.475-26.534
		s-1.493-2.617-0.37-3.738c1.118-1.12,1.493-5.232,1.118-7.101c-0.374-1.866,0.374-5.979,1.118-7.099
		c0.753-1.118,1.871-5.979,1.871-9.714c0-3.738-0.749-10.09-0.749-10.09s-2.241,8.594-2.615,11.955
		c-0.374,3.366-2.241,5.608-1.867,11.213c0.37,5.604-1.871,8.221-1.871,8.221s-1.871,3.363-0.37,5.979
		c1.493,2.617,7.097,25.036,7.097,25.036s1.493,2.62-0.748,4.86C211.545,211.213,202.203,222.043,202.203,222.043L202.203,222.043z"
		/>
	<path fill="#010101" d="M128.859,48.821l4.477-3.671c0.88-0.724,1.66-1.231,2.333-1.515c0.673-0.288,1.312-0.427,1.911-0.416
		c0.599,0.006,1.145,0.145,1.629,0.409c0.484,0.266,0.911,0.621,1.272,1.065c0.568,0.691,0.889,1.325,0.968,1.902
		c0.075,0.579,0.014,1.169-0.198,1.774c-0.207,0.605-0.519,1.149-0.933,1.631c-0.564,0.656-1.118,1.204-1.655,1.645l-4.477,3.671
		L128.859,48.821L128.859,48.821z M133.086,47.833l2.91,3.551l0.739-0.608c0.63-0.515,1.039-0.929,1.228-1.239
		c0.189-0.31,0.264-0.645,0.225-1.001c-0.04-0.357-0.273-0.793-0.696-1.312c-0.568-0.693-1.122-1.026-1.664-0.999
		c-0.546,0.024-1.206,0.354-1.99,0.995L133.086,47.833L133.086,47.833z"/>
	<path fill="#010101" d="M163.255,35.777l-4.063,1.686l-0.057,1.526l-3.676,1.526l1.158-9.576l3.949-1.637l7.572,5.956l-3.769,1.561
		L163.255,35.777L163.255,35.777z M161.803,34.415l-2.426-2.26l-0.115,3.315L161.803,34.415L161.803,34.415z"/>
	<polygon fill="#010101" points="182.393,23.305 186.267,22.856 186.997,29.154 193.038,28.452 193.275,30.499 183.37,31.652 	"/>
	<polygon fill="#010101" points="210.744,22.495 214.601,23.052 213.694,29.328 219.716,30.195 219.421,32.233 209.547,30.814 	"/>
	<path fill="#010101" d="M242.635,38.597l-4.015-1.801l-1.145,1.006l-3.632-1.629l7.757-5.73l3.905,1.75l0.858,9.595l-3.72-1.667
		L242.635,38.597L242.635,38.597z M242.626,36.603l-0.018-3.315l-2.492,2.19L242.626,36.603L242.626,36.603z"/>
	<path fill="#010101" d="M260.636,47.822l2.892,2.331c-0.207,0.355-0.286,0.689-0.238,1.013c0.075,0.52,0.396,1.024,0.951,1.515
		c0.423,0.365,0.797,0.583,1.14,0.651c0.339,0.066,0.577,0.015,0.731-0.156c0.145-0.165,0.167-0.405,0.066-0.722
		s-0.493-0.878-1.175-1.682c-1.114-1.323-1.81-2.382-2.078-3.18c-0.268-0.806-0.189-1.453,0.238-1.944
		c0.29-0.33,0.696-0.513,1.237-0.554c0.532-0.04,1.158,0.103,1.871,0.438c0.709,0.335,1.558,0.934,2.549,1.801
		c1.211,1.065,2.008,2.025,2.378,2.883c0.374,0.858,0.335,1.668-0.119,2.43l-2.853-2.311c0.172-0.348,0.198-0.689,0.075-1.028
		c-0.119-0.333-0.387-0.683-0.806-1.044c-0.339-0.302-0.638-0.482-0.893-0.537c-0.256-0.055-0.445-0.014-0.568,0.123
		c-0.088,0.104-0.097,0.256-0.027,0.458c0.062,0.205,0.321,0.57,0.779,1.094c1.118,1.306,1.875,2.298,2.267,2.974
		c0.387,0.671,0.586,1.261,0.59,1.761c0.009,0.504-0.141,0.927-0.44,1.27c-0.357,0.405-0.854,0.634-1.493,0.678
		c-0.634,0.046-1.329-0.106-2.086-0.463c-0.757-0.354-1.598-0.933-2.514-1.739c-1.616-1.413-2.549-2.598-2.804-3.555
		C260.047,49.367,260.157,48.533,260.636,47.822L260.636,47.822z"/>
	<path fill="#FFFFFF" d="M39.579,237.381l35.818,96.281c0,0,13.964-4.121,14.405-4.248v0.013c0,0,13.384-3.601,13.965-3.759
		c0.022,0.07,0.096,0.335,0.096,0.335l17.218-3.566l-0.934-3.355c-0.502-1.823-12.393-44.667-15.743-54.722
		c-3.786-11.363-16.254-16.698-16.782-16.919l-0.163-0.075l-0.172-0.044c-3.848-1.145-10.416-3.135-11.675-3.637
		c-2.254-0.907-4.081-0.603-5.296,0.106c-1.884-1.224-4.376-2.677-4.733-2.888l-0.268-0.158l-28.162-9.879L39.579,237.381
		L39.579,237.381z"/>
	<path fill="#FFFFFF" d="M102.251,255.352l16.795,67.172c0,0,13.137-2.095,13.965-2.236c0.013,0.066,0.07,0.339,0.07,0.339
		l14.286-2.514l-0.629-3.267c-0.291-1.493-7.128-36.756-8.981-45.283c-2.245-10.319-14.026-14.216-14.524-14.374l-0.145-0.049
		l-22.118-4.913L102.251,255.352L102.251,255.352z M109.863,258.882c4.882,1.092,11.235,2.501,11.482,2.562
		c1.043,0.365,8.686,3.302,10.029,9.5c1.514,6.956,6.542,32.736,8.325,41.884c-0.779,0.141-0.841,0.15-1.603,0.291
		c-1.022-4.596-4.988-22.426-4.988-22.426l-12.952-0.815c0,0,5.239,19.71,6.59,24.807c-1.329,0.211-1.598,0.256-2.822,0.445
		C122.714,310.281,111.928,267.141,109.863,258.882L109.863,258.882z"/>
	<path fill="#FFFFFF" d="M118.249,259.912c-3.702,1.18-3.464,5.952-3.385,7.51l0.013,0.313l5.921,24.094h12.265l-0.498-3.698
		c-0.387-2.928-2.479-17.76-5.34-22.25C125.1,262.537,121.811,258.777,118.249,259.912L118.249,259.912z M122.313,270.65
		c0.806,2.108,1.66,5.851,2.395,9.751C123.625,275.986,123.07,273.718,122.313,270.65L122.313,270.65z"/>
	<path fill="#FFFFFF" d="M134.834,261.942l-0.014-0.04c0.718,2.43,8.387,43.329,9.219,49.166c0.435,3.033,1.607,5.133,3.478,6.242
		c1.347,0.802,2.778,0.885,3.879,0.674c1.888-0.014,10.381-0.172,15.148-1.642c5.058-1.554,6.489-7.07,6.489-11.732
		c0-1.871-0.229-3.601-0.546-4.878l0.009,0.04c-0.458-2.302-0.66-22.364-0.66-35.871v-3.166c0,0-16.655-0.515-17.821-0.559
		c-0.009-0.048-0.031-0.264-0.031-0.264l-20.744-2.967L134.834,261.942L134.834,261.942z M150.501,310.149
		c-0.502-3.509-5.943-33.274-8.386-45.349c2.712,0.387,4.081,0.581,5.921,0.845c0.929,8.699,3.958,36.773,4.605,40.973
		c0.352,2.289,1.316,3.79,2.474,4.715c-1.708,0.088-3.214,0.123-4.107,0.123c0,0-0.11,0-0.194,0
		C150.713,311.205,150.594,310.791,150.501,310.149L150.501,310.149z M157.598,293.062c0.312,2.518,0.568,4.755,0.748,6.595
		C158.127,297.729,157.867,295.484,157.598,293.062L157.598,293.062z M165.06,305.913c0.066-0.357,0.092-0.863,0.092-1.492
		c0-6.604-3.051-26.983-4.701-37.513c2.148,0.07,2.972,0.092,4.86,0.154c0.018,10.196,0.141,31.451,0.841,34.25
		c0.216,0.863,0.344,2.043,0.344,3.253c0,2.488-0.528,5.129-1.875,5.534c-0.511,0.167-1.123,0.304-1.774,0.427
		C163.947,309.361,164.757,307.767,165.06,305.913L165.06,305.913z"/>
	<path fill="#FFFFFF" d="M170.541,274.361v0.097l1.21,42.404h3.17c0.388,0,9.518-0.009,14.81-0.378
		c7.013-0.502,10.936-9.201,11.358-10.192l0.229-0.533l0.586-11.12c0,0-0.559,0-0.92,0c0-0.942,0-6.595,0-6.921
		c0.229,0,0.683,0,0.683,0l0.497-25.446l-3.183-0.137c-0.084-0.005-8.761-0.379-16.958-0.379
		C173.597,261.753,170.541,269.29,170.541,274.361L170.541,274.361z M182.023,268.286c0.401,0,0.802,0,1.206,0
		c-0.44,0.229-0.871,0.489-1.272,0.828c-1.118,0.934-2.448,2.672-2.448,5.618c0,0,0,14.189,0,14.304c-0.079,0-0.374,0-0.374,0
		s0,20.74,0,21.268c-0.365,0-0.709,0.009-1.039,0.009c-0.154-5.371-1.026-35.8-1.03-35.959
		C177.083,273.296,177.405,268.286,182.023,268.286L182.023,268.286z M192.386,270.624c0,0,0-1.479,0-2.184
		c1.167,0.031,2.227,0.066,3.125,0.097c-0.066,3.544-0.176,9.118-0.247,12.653c-1.294,0-1.572,0-2.879,0
		C192.386,277.381,192.386,270.624,192.386,270.624L192.386,270.624z M187.235,295.563c-0.101,0.854-0.977,8.312-0.977,8.312
		c-0.088,0.735-0.291,1.268-0.546,1.435c-0.018,0.004-0.035,0.009-0.053,0.018c0-2.993,0-6.603,0-9.764
		C186.188,295.563,186.553,295.563,187.235,295.563L187.235,295.563z M195.027,301.163c-0.079,1.51-0.132,2.518-0.163,3.02
		c-0.859,1.787-2.382,4.015-3.962,5.116c0.849-1.043,1.585-2.536,1.831-4.658c0,0,0.207-1.752,0.409-3.478
		C194.006,301.163,194.112,301.163,195.027,301.163L195.027,301.163z"/>
	<path fill="#FFFFFF" d="M223.379,261.013l-22.849,0.863l-1.695,53.384c0,0,12.745,0.414,13.617,0.44l-0.004,0.035
		c0,0,0.674,0,1.228,0c0.018,0.009,0.198,0.009,0.198,0.009v-0.009c1.026,0,12.991,0,12.991,0l0.568-2.553
		c0.097-0.422,2.32-10.513,2.32-16.773c0-2.87-0.532-4.904-1.255-6.366c2.245-2.676,3.244-6.102,3.386-6.621l0.057-0.216
		l0.031-0.225c0.035-0.317,0.845-6.841,0.845-11.719c0-0.863-0.031-1.686-0.088-2.408c-0.476-5.758-6.106-7.647-9.012-7.84
		L223.55,261L223.379,261.013L223.379,261.013z M223.397,267.546c0.568,0.066,2.712,0.422,2.831,1.858
		c0.044,0.537,0.066,1.171,0.066,1.862c0,3.509-0.502,8.483-0.766,10.645c-0.511,1.73-1.774,4.257-2.976,4.794
		c0,0-6.78,3.011-7.691,3.416c-0.871-0.198-1.823-0.335-2.945-0.335h-3.077c0,0-0.859,14.796-1.118,19.23
		c-1.003-0.031-1.136-0.031-2.153-0.07c0.167-5.248,1.14-35.853,1.294-40.784C211.162,268.004,223.023,267.555,223.397,267.546
		L223.397,267.546z M220.773,296.717l0.014-0.159v-0.15c0-1.4-0.709-3.561-2.853-5.032c2.218,0.638,4.094,1.167,4.574,1.308
		c0.247,0.326,0.722,1.391,0.722,3.724c0,3.79-0.999,9.518-1.642,12.802c-0.863,0-1.004,0-1.977,0
		C220.007,304.896,220.773,296.717,220.773,296.717L220.773,296.717z"/>
	<path fill="#FFFFFF" d="M211.955,266.428l-2.082,0.731l-0.973,22.849l3.069,0.308c2.827,0.282,6.806,0.339,8.783-2.386
		c0.66-0.916,0.902-1.924,0.902-2.84c0-0.251-0.039-0.48-0.075-0.709c0.26-1.849,1.074-7.938,1.074-12.257
		c0-3.007-1.554-4.552-2.479-5.204C217.132,264.764,212.796,266.129,211.955,266.428L211.955,266.428z"/>
	<path fill="#FFFFFF" d="M246.844,259.895l-14.673,0.916l-6.723,55.779l15.734,0.788l9.769-57.737L246.844,259.895L246.844,259.895z
		 M243.142,266.661c-1.088,6.458-6.639,39.248-7.427,43.905c-1.259-0.062-1.563-0.079-2.945-0.15
		c0.678-5.657,4.697-38.97,5.23-43.434C239.804,266.877,240.821,266.811,243.142,266.661L243.142,266.661z"/>
	<path fill="#FFFFFF" d="M281.178,253.969l-21.563,4.156l-0.242,0.097c-0.357,0.132-8.725,3.302-10.997,11.948
		c-1.875,7.132-7.656,38.151-7.902,39.472c-0.638,3.17,0.396,7.132,4.178,8.215c2.844,0.815,10.781,1.176,12.349,1.246l0.141,0.005
		l0.15-0.009c0.409-0.018,10.086-0.581,13.388-10.029c2.629-7.51,4.482-14.519,4.561-14.827l0.951-3.443
		c0,0-16.738,0.247-17.011,0.269c0.317-1.44-0.167,0.806,0.154-0.665c1.132-0.031,17.068-0.564,17.068-0.564l9.936-36.866
		L281.178,253.969L281.178,253.969z M261.821,264.355c-1.351,1.342-2.985,3.597-4.962,7.374l-0.202,0.388l-0.097,0.431
		c-2.765,12.661-7.022,32.005-7.405,33.379l0.027-0.084c-0.159,0.48-0.234,0.99-0.234,1.528c0,1.646,0.713,3.464,1.924,4.68
		c0.053,0.053,0.11,0.088,0.167,0.136c-1.761-0.15-3.289-0.325-4.178-0.515c-0.009-0.092-0.018-0.181-0.018-0.291
		c0-0.18,0.018-0.379,0.044-0.541c0.062-0.326,5.979-32.107,7.797-39.01c1.259-4.794,5.833-7.004,6.758-7.405
		C261.456,264.421,261.799,264.359,261.821,264.355L261.821,264.355z M277.255,261.374c-1.598,5.811-4.239,15.391-5.067,18.402
		c-1.506,0.053-2.342,0.079-4.459,0.15c1.091-4.261,2.699-10.531,2.699-10.531l0.022-0.176c0.048-0.335,0.075-0.674,0.075-1.017
		c0-2.003-0.85-4.002-2.607-5.023C271.981,262.391,273.831,262.034,277.255,261.374L277.255,261.374z M267.68,297.003
		c-0.779,2.672-1.884,6.264-3.165,9.91c-1.396,3.997-4.904,5.182-6.604,5.53c2.399-1.796,3.72-5.239,4.213-6.85l0.026-0.088
		c0,0,1.365-5.455,2.065-8.25C265.426,297.166,265.972,297.131,267.68,297.003L267.68,297.003z"/>
	<path fill="#FFFFFF" d="M314.482,246.582c0,0-12.529,3.795-12.595,3.812c0.005-0.027,0.079-0.255,0.079-0.255l-17.526,3.891
		l-19.261,65.917c0,0,12.45,1.757,13.203,1.862c-0.009,0.018-0.061,0.202-0.061,0.202l14.563,2.787l0.947-2.611
		c0.247-0.674,6.018-16.553,7.876-22.131c0.519-1.554,0.731-3.024,0.731-4.394c0-1.875-0.396-3.544-0.955-4.926
		c2.549-2.201,4.798-5.468,5.868-7.158l0.211-0.33l12.983-38.517L314.482,246.582L314.482,246.582z M292.272,258.979
		c-2.386,7.414-9.632,29.945-9.632,29.945s0.119,0.009,0.128,0.009c-0.097,0.308-6.472,21.493-7.775,25.807
		c-0.652-0.092-0.718-0.096-1.431-0.202c1.805-6.19,15.1-51.702,16.06-54.968C290.423,259.384,290.96,259.27,292.272,258.979
		L292.272,258.979z M310.313,254.656c-2.637,7.819-8.466,25.107-8.677,25.737c-1.871,2.883-4.371,5.758-5.357,6.137
		c-0.044,0.018-0.999,0.299-1.946,0.577c1.294-0.934,2.439-2.228,3.179-4.015c1.646-3.949,6.657-21.462,8.241-27.052
		C306.84,255.713,308.033,255.352,310.313,254.656L310.313,254.656z M291.907,288.383c0.573,0.717,2.756,3.447,2.756,3.447
		c0.061,0.075,1.246,1.523,1.246,3.83c0,0.696-0.11,1.488-0.387,2.333c-1.387,4.16-5.116,14.493-6.872,19.353
		c-0.912-0.176-1.061-0.203-2.069-0.401c1.391-4.812,5.146-17.834,5.34-18.486c0.506-0.893,0.902-2.038,0.902-3.267
		c0-0.713-0.137-1.462-0.453-2.184c-0.938-2.117-3.104-3.399-6.37-3.865c0.255,0.018,0.815,0.057,0.815,0.057
		C288.156,289.294,290.044,289.1,291.907,288.383L291.907,288.383z"/>
	<path fill="#FFFFFF" d="M352.013,233.943l-22.016,8.351l-0.304,0.202c-2.034,1.356-12.252,8.417-14.369,14.766
		c-1.827,5.477-12.556,33.978-12.666,34.259l-1.611,4.288c0,0,0.519,0.018,0.691,0.018c-0.079,0.238-7.651,21.052-7.674,21.105
		c-0.26,0.616-0.814,2.082-0.814,3.786c0,1.004,0.198,2.078,0.77,3.082c0.537,0.916,1.853,2.505,4.671,2.765
		c4.213,0.379,8.347,0.387,8.519,0.387h0.216l0.207-0.026c0.418-0.053,10.249-1.426,15.109-9.826
		c4.2-7.251,13.3-31.601,13.687-32.626l1.695-4.548c0,0-0.224,0.009-0.247,0.009c0.154-0.352,21.413-48.747,21.413-48.747
		L352.013,233.943L352.013,233.943z M347.056,242.805c-3.988,9.069-12.397,28.22-13.612,30.984c-0.999,0.039-1.545,0.061-3.09,0.114
		c2.003-5.159,5.41-13.947,5.41-13.947l0.053-0.277c0.176-0.876,0.264-1.677,0.264-2.408c0-1.673-0.463-2.959-1.383-3.839
		c-0.951-0.907-2.302-1.25-3.619-0.925c-2.201,0.555-4.288,2.514-4.878,3.104l-0.427,0.427l-0.251,0.555
		c-2.752,6.203-9.205,20.964-9.597,24.09c-0.291,2.36,0.207,4.13,1.484,5.265c1.197,1.061,2.681,1.171,3.671,0.925l-0.7,0.097
		c0,0,4.372-0.132,8.206-0.238c-2.871,7.484-8.607,22.109-11.499,27.102c-2.945,5.093-9.056,6.397-10.139,6.595
		c-0.863-0.009-3.922-0.053-7.083-0.313c0.057-0.233,0.141-0.484,0.229-0.682l0.044-0.106l0.048-0.123c0,0,5.442-14.96,6.692-18.406
		c0.26,0,0.335,0,0.625,0c-1.726,4.068-4.015,9.54-4.513,11.019c-0.344,1.039-0.511,1.99-0.511,2.862
		c0,1.184,0.313,2.219,0.938,3.09c0.687,0.951,2.034,2.087,4.539,2.087c4.151,0,6.326-4.411,6.718-5.301l0.035-0.07l9.553-24.574
		c0,0-9.791-0.264-13.885-0.379c3.099-8.259,9.69-25.868,11.134-30.2c1.026-3.064,7.251-8.312,11.517-11.208
		C333.509,247.938,340.8,245.182,347.056,242.805L347.056,242.805z"/>
	<polygon fill="#FFFFFF" points="126.345,280.719 121.111,280.719 121.111,269.501 126.345,269.501 	"/>
	<polygon fill="#FFFFFF" points="187.627,306.499 185.012,306.499 185.012,294.163 187.627,294.163 	"/>
	<polygon fill="#FFFFFF" points="303.846,293.424 301.231,293.424 301.231,288.938 303.846,288.938 	"/>
	<polygon fill="#FFFFFF" points="276.19,292.301 258.629,292.301 258.629,289.312 276.19,289.312 	"/>
	<path fill="#010101" d="M77.391,329.664l-34.753-93.419l21.299,7.475c0,0,4.187,1.929,5.979,3.734
		c1.316,1.329,1.871,2.619,1.871,2.619v-3.363c0,0,0.748-0.748,2.615,0c1.866,0.744,11.957,3.738,11.957,3.738
		s11.583,4.86,14.946,14.951c3.368,10.09,15.699,54.555,15.699,54.555l-10.839,2.241l-16.069-56.051c0,0-4.112-9.338-6.352-8.589
		c-2.241,0.744,0,6.348,0,6.348l17.939,58.948l-9.72,2.615c0,0-20.925-65.67-22.791-67.911c0,0-2.773-6.111-5.978-5.983
		c-2.272,0.088-0.749,1.862,0,4.486c0.744,2.615,24.662,70.531,24.662,70.531L77.391,329.664L77.391,329.664z"/>
	<path fill="#010101" d="M135.59,316.871l7.942-1.4c0,0-7.101-36.628-8.967-45.221c-1.871-8.589-12.331-11.957-12.331-11.957
		l-16.817-3.738l16.064,64.271l9.347-1.493l-6.353-23.914l5.979,0.37L135.59,316.871L135.59,316.871z M123.356,288.563
		l-5.235-21.303c-0.37-7.471,3.738-3.738,6.357,0.374c2.611,4.112,4.856,20.929,4.856,20.929H123.356L123.356,288.563z"/>
	<path fill="#010101" d="M137.928,260.907l13.08,1.875c0,0,4.112,38.486,4.86,43.342c0.744,4.865,5.226,3.742,5.974-0.744
		c0.748-4.486-5.23-41.854-5.23-41.854l11.957,0.374c0,0,0,33.63,0.748,36.619c0.748,2.994,1.123,11.213-3.738,12.706
		c-4.856,1.497-14.572,1.497-14.572,1.497s-2.989,1.118-3.738-4.112C146.522,305.376,138.677,263.148,137.928,260.907
		L137.928,260.907z"/>
	<path fill="#010101" d="M198.84,265.393l-0.374,19.058h-9.342v-13.828c0,0-6.353-1.123-6.353,4.107c0,5.235,0,13.833,0,13.833
		h14.946v3.738h-15.321v16.064c0,0,6.353,2.245,7.101-4.112c0.744-6.348,0.744-6.348,0.744-6.348h8.224l-0.374,7.101
		c0,0-3.363,7.849-8.594,8.219c-5.234,0.374-14.576,0.374-14.576,0.374l-1.123-39.239c0,0,0-9.342,8.224-9.342
		C190.247,265.019,198.84,265.393,198.84,265.393L198.84,265.393z"/>
	<path fill="#010101" d="M228.732,282.585c0,0,1.123-8.972,0.748-13.454c-0.37-4.481-5.979-4.86-5.979-4.86l-19.802,0.748
		l-1.497,47.089l8.598,0.282l1.118-19.345c5.604,0,5.604,3.363,5.604,3.363l-1.492,16.069h8.219c0,0,2.245-10.09,2.245-16.069
		c0-5.978-2.615-6.727-2.615-6.727C227.235,288.194,228.732,282.585,228.732,282.585L228.732,282.585z M212.294,287.067
		l0.744-17.566c0,0,6.353-2.241,6.353,2.624c0,4.852-1.118,12.327-1.118,12.327S219.765,287.815,212.294,287.067L212.294,287.067z"
		/>
	<polygon fill="#010101" points="235.085,263.901 247.046,263.148 238.448,313.974 229.107,313.507 	"/>
	<path fill="#010101" d="M263.485,283.329l11.213-0.374l7.101-25.781l-21.299,4.112c0,0-7.105,2.615-8.972,9.716
		s-7.849,39.234-7.849,39.234s-0.748,3.742,1.871,4.486c2.62,0.748,11.583,1.118,11.583,1.118s7.849-0.37,10.465-7.845
		c2.615-7.471,4.481-14.572,4.481-14.572l-10.46,0.748l-2.62,10.46c0,0-1.492,4.856-3.733,5.604
		c-2.245,0.753-3.368-2.241-2.994-3.359c0.374-1.122,7.475-33.634,7.475-33.634s4.108-7.845,5.974-7.471
		c1.876,0.374,1.497,2.989,1.497,2.989L263.485,283.329L263.485,283.329z"/>
	<path fill="#010101" d="M287.029,256.796l10.09-2.236l-10.09,31.389c0,0,5.604,0.37,7.475-4.112
		c1.867-4.481,8.594-28.404,8.594-28.404l12.331-3.733l-10.839,32.138c0,0-4.481,7.101-7.471,7.849c0,0,3.359,3.738,1.492,9.338
		c-1.871,5.608-7.845,22.047-7.845,22.047l-8.316-1.585l6.445-22.329c0,0,2.989-4.107-3.742-4.851l-7.845,26.058l-7.942-1.123
		L287.029,256.796L287.029,256.796z"/>
	<path fill="#010101" d="M325.519,277.355l10.086-0.379l17.566-39.983l-21.673,8.224c0,0-11.209,7.475-13.08,13.075
		c-1.867,5.608-12.706,34.383-12.706,34.383l13.828,0.37l-7.849,20.181c0,0-1.492,3.363-3.733,3.363
		c-2.245,0-2.62-1.497-1.871-3.733c0.749-2.245,6.353-15.325,6.353-15.325h-7.849l-7.471,20.55c0,0-2.241,4.856,1.866,5.235
		c4.112,0.374,8.224,0.374,8.224,0.374s8.593-1.123,12.701-8.22c4.112-7.105,13.454-32.142,13.454-32.142l-13.079,0.374
		c0,0-1.493,0.37-1.118-2.615c0.374-2.994,9.342-23.174,9.342-23.174s1.866-1.867,3.363-2.236c1.492-0.374,0.744,3.359,0.744,3.359
		L325.519,277.355L325.519,277.355z"/>
	<path fill="#FFFFFF" d="M198.166,345.108l-12.529,9.06l5.278-13.515c-2.972-4.94-16.324-8.241-16.324-8.241
		c3.297-0.991,19.621-2.642,19.621-2.642c0.656-2.637,3.954-11.706,3.954-11.706s3.297,9.065,3.958,11.706
		c0,0,16.32,1.651,19.622,2.642c0,0-13.357,3.297-16.324,8.241l5.274,13.515L198.166,345.108L198.166,345.108z"/>
	<path fill="#010101" d="M196.942,317.628c-0.123,0.335-2.765,7.603-3.751,10.935c-3.482,0.366-16.012,1.708-18.974,2.598
		l-4.574,1.365l4.636,1.154c3.412,0.837,12.441,3.702,15.162,7.158c-0.467,1.206-6.63,16.993-6.63,16.993
		s14.009-10.134,15.356-11.111c1.347,0.977,15.36,11.111,15.36,11.111s-6.163-15.787-6.63-16.993
		c2.721-3.456,11.75-6.322,15.162-7.158l4.631-1.154l-4.569-1.365c-2.963-0.889-15.488-2.227-18.974-2.598
		c-0.986-3.332-3.628-10.601-3.747-10.935l-1.228-3.381L196.942,317.628L196.942,317.628z M194.341,331.069l0.911-0.083l0.225-0.898
		c0.379-1.514,1.686-5.309,2.69-8.144c0.999,2.835,2.311,6.63,2.69,8.144l0.225,0.898l0.911,0.083
		c2.994,0.304,9.408,1.008,14.145,1.668c-4.292,1.497-9.875,3.976-11.834,7.242l-0.33,0.55c0,0,2.337,6.005,3.892,9.985
		c-3.654-2.642-9.699-7.009-9.699-7.009s-6.044,4.367-9.703,7.009c1.554-3.98,3.896-9.985,3.896-9.985l-0.33-0.55
		c-1.959-3.267-7.542-5.745-11.83-7.242C184.933,332.077,191.347,331.372,194.341,331.069L194.341,331.069z"/>
</g>
</svg>
