<?xml version="1.0" encoding="utf-8"?>
<!-- Generator: Adobe Illustrator 19.1.0, SVG Export Plug-In . SVG Version: 6.00 Build 0)  -->
<svg version="1.1" id="Layer_1" xmlns="http://www.w3.org/2000/svg" xmlns:xlink="http://www.w3.org/1999/xlink" x="0px" y="0px"
	 viewBox="0 0 400 400" enable-background="new 0 0 400 400" xml:space="preserve">
<g>
	<g>
		<path fill-rule="evenodd" clip-rule="evenodd" fill="#FFFFFF" d="M230.327,342.536
			C230.326,342.536,230.326,342.536,230.327,342.536h0.002C230.328,342.536,230.327,342.536,230.327,342.536z"/>
		<path fill-rule="evenodd" clip-rule="evenodd" fill="#FFFFFF" d="M322.343,280.619L322.343,280.619L322.343,280.619
			L322.343,280.619z"/>
	</g>
	<path fill-rule="evenodd" clip-rule="evenodd" fill="#0F4C92" d="M290.831,66.696c-36.079-23.938-79.384-32.376-121.933-23.759
		C126.353,51.54,89.747,76.15,65.82,112.218c-23.972,36.12-32.44,79.421-23.851,121.929c8.6,42.5,33.239,79.114,69.377,103.088
		c36.109,23.967,79.406,32.437,121.922,23.849c42.501-8.608,79.11-33.239,103.077-69.374
		C385.829,217.129,365.415,116.191,290.831,66.696z"/>
	<path fill-rule="evenodd" clip-rule="evenodd" fill="#DE1E35" d="M320.86,283.041c44.449-67.001,26.172-157.355-40.821-201.808
		C213.04,36.784,122.684,55.054,78.235,122.049c-44.452,67.006-26.169,157.359,40.821,201.814
		C186.059,368.317,276.407,350.033,320.86,283.041z"/>
	<path fill-rule="evenodd" clip-rule="evenodd" fill="#FFFFFF" d="M284.548,75.463C215.6,29.728,122.297,48.6,76.565,117.542
		c-22.17,33.393-29.993,73.423-22.048,112.705c7.951,39.291,30.728,73.132,64.122,95.289c33.39,22.162,73.424,29.984,112.699,22.042
		c39.286-7.949,73.127-30.721,95.28-64.121C372.365,214.517,353.49,121.217,284.548,75.463z M340.699,224.013
		c-3.669,8.603-9.217,16.877-16.57,24.607c-13.087,13.755-30.908,24.896-51.593,32.73c8.015-29.66,40.795-81.314,41.146-81.858
		c11.368-25.01,14.15-50.106,9.003-71.418C339.814,156.816,346.236,190.946,340.699,224.013z M312.874,113.765
		c11.347,22.858,10.622,53.347-3.106,83.599c-1.337,2.062-35.533,55.95-42.288,85.788c-9.136,3.151-18.762,5.677-28.764,7.513
		c4.925-25.44,7.404-57.131,6.561-90.7c-1.655-65.716-14.88-121.625-33.016-140.125c23.321,1.729,46.52,9.246,67.362,23.067
		C292.656,91.56,303.756,102.041,312.874,113.765z M204.78,59.482c1.198,0.71,2.404,1.554,3.595,2.705
		c17.485,16.62,30.819,73.316,32.435,137.884c0.861,34.109-1.688,66.125-6.71,91.383c-9.482,1.512-19.249,2.458-29.205,2.699
		c-4.012,0.113-8,0.066-11.969-0.054c5.099-30.119-26.86-59.613-28.276-60.889c-49.349-50.862-77.078-105.89-66.293-128.905
		C126.262,74.323,165.344,58.66,204.78,59.482z M213.485,341.103c-25.942,2.242-51.722-2.708-74.98-14.386
		c4.335,0.57,43.914,4.768,53.417-28.182c4.331,0.14,8.684,0.205,13.081,0.092c9.574-0.237,18.999-1.085,28.161-2.489
		c-4.426,20.26-10.536,35.597-17.833,43.263C214.716,340.045,214.1,340.578,213.485,341.103z M84,122.474
		c2.477-3.727,5.113-7.287,7.873-10.7c-2.745,28.116,24.025,77.602,69.68,124.637c0.427,0.403,32.083,29.613,26.89,57.531
		c-42.327-2.089-80.736-16.287-104.916-39.294c-10.658-10.128-17.868-21.505-21.529-33.497
		C56.835,186.584,64.535,151.808,84,122.474z M66.425,241.034c3.806,5.885,8.445,11.547,14.022,16.852
		c24.77,23.571,63.834,38.173,106.854,40.473c-9.496,29.67-46.919,24.148-48.564,23.88c-5.534-0.834-10.643-2.344-15.426-4.335
		C95.654,299.482,75.808,272.508,66.425,241.034z M229.575,338.824c-3.077,0.625-6.16,1.1-9.231,1.517
		c7.127-8.874,13.087-24.676,17.412-44.994c9.981-1.744,19.65-4.133,28.825-7.164c-1.085,8.545,0.537,15.059,4.886,19.356
		c4.443,4.384,10.692,5.43,15.373,5.497C270.153,325.7,250.706,334.548,229.575,338.824z M319.187,278.525
		c-7.398,11.154-16.202,21.01-26.105,29.458c-0.215,0.046-0.399,0.11-0.616,0.146c-0.187,0.039-11.767,2.269-17.868-3.771
		c-3.647-3.608-4.705-9.645-3.223-17.875c22.474-8.105,41.882-19.956,55.991-34.795c3.737-3.919,7.003-7.996,9.854-12.177
		C333.339,253.034,327.365,266.197,319.187,278.525z"/>
	<g>
		<g>
			<path fill-rule="evenodd" clip-rule="evenodd" fill="#0F2340" enable-background="new    " d="M211.209,124.513
				c0.078,0,0.301,0.004,0.222,0.004l0,0c0.703,0.026,1.512,0.041,1.71,0.161l0,0c0.072,0.036,0.333,0.366,0.319,1.989l0,0
				c0,0.09-0.011,0.172-0.015,0.262l0,0c-0.003,0.441-0.003,0.871-0.007,1.29l0,0c-0.025,1.52,0.004,1.812-0.111,2.804l0,0
				c0,0.145-0.021,0.3-0.025,0.45l0,0c0,0.007,0,0.023,0,0.039l0,0c0,0.076-0.011,0.173-0.086,0.219l0,0
				c-0.799-0.003-1.523-0.065-2.326-0.07l0,0c0.036-2.421,0.068-4.736,0.108-7.152l0,0
				C211.069,124.51,211.141,124.513,211.209,124.513z"/>
			<path fill-rule="evenodd" clip-rule="evenodd" fill="#0F2340" d="M198.155,115.228l-2.275,0.011l-0.559,38.595l17.493,0.086
				l0.076-1.749c0,0,0.017-1.247,0.025-1.558c1.204,1.743,3.516,3.475,8.003,4.106l0.122,0.018l0.24,0.023l6.975,0.387l0.014-1.869
				l0.191-13.051c0.007-1.478-0.703-2.772-1.366-3.772c1.014-1.338,1.646-2.795,1.678-4.691l0.032-1.555
				c0.126-8.492,0.194-13.171-9.218-14.511l-0.14-0.021l-0.344-0.025C212.198,115.317,205.346,115.178,198.155,115.228z"/>
		</g>
		<g>
			<path fill-rule="evenodd" clip-rule="evenodd" fill="#0F2340" d="M257.67,121.539l-0.574,36.222l17.253,2.9l0.067-2.154
				l0.528-36.131l-3.588-0.672h0.011l-13.694-2.318L257.67,121.539z"/>
		</g>
		<g>
			<path fill-rule="evenodd" clip-rule="evenodd" fill="#0F2340" d="M195.912,115.242l-1.778,0.029
				c-8.009,0.137-15.665,0.516-24.105,1.201l-2.047,0.169l-0.161,10.949c0,0,4.627-0.344,6.483-0.48
				c-0.05,3.375-0.404,27.758-0.404,27.758l17.525-0.916l0.094-1.631c0,0,0.358-24.513,0.39-26.592
				c1.323-0.363,2.53-0.843,3.423-1.558c2.498-1.874,2.917-4.342,2.946-5.639c0-0.159-0.004-0.237-0.004-0.237
				c0.004-0.054-0.093-1.563-0.093-1.563l-0.111-1.695L195.912,115.242z"/>
		</g>
		<g>
			<path fill-rule="evenodd" clip-rule="evenodd" fill="#0F2340" d="M272.407,124.117l-0.125,8.671c0,0,6.419,1.286,6.444,1.291
				c-0.032,2.417-0.398,27.409-0.398,27.409l17.471,3.88l0.083-2.299c0,0,0.351-23.224,0.39-25.802
				c1.028-0.082,2.061-0.185,2.917-0.568c2.935-1.421,3.409-3.9,3.433-5.25c0.003-0.165,0-0.266,0-0.266l-0.025-0.247l-0.118-2.187
				l-1.466-0.469l-1.72-0.445c-8.014-2.058-15.855-3.821-23.987-5.382l-2.864-0.552L272.407,124.117z"/>
		</g>
		<g>
			<path fill-rule="evenodd" clip-rule="evenodd" fill="#0F2340" d="M167.8,116.656l-1.849,0.164
				c-7.444,0.713-14.267,1.537-21.482,2.594l-1.86,0.276l-0.598,38.962l2.792-0.424c8.117-1.231,15.636-2.162,22.99-2.842
				l2.036-0.19l0.158-11.114c0,0-7.473,0.787-10.455,1.101c0.015-1.014,0.022-1.364,0.033-2.225
				c2.039-0.223,7.118-0.769,7.118-0.769l0.075-1.519l0.165-11.478c0,0-5.039,0.542-7.172,0.771
				c0.011-0.771,0.015-0.943,0.025-1.614c2.577-0.264,10.407-1.067,10.407-1.067l0.068-1.522l0.133-9.333L167.8,116.656z"/>
		</g>
		<g>
			<path fill-rule="evenodd" clip-rule="evenodd" fill="#0F2340" d="M133.352,121.252l-0.172,0.029
				c-9.042,1.631-17.676,3.487-26.396,5.673l-1.376,0.348l-0.416,2.307l-0.035,0.237l-0.05,0.625
				c-0.025,2.541,1.323,3.95,2.454,4.686c1.014,0.627,2.176,0.932,3.448,1.078c-0.039,2.982-0.413,28.872-0.413,28.872l3.036-0.727
				c6.975-1.678,13.289-3.025,19.873-4.235c6.333-1.253,10.322-5.501,10.45-11.09c0-0.011,0.241-15.647,0.241-15.647
				c0.082-5.853,0.132-9.385-2.806-11.264C138.929,120.696,135.814,120.904,133.352,121.252z"/>
		</g>
		<g>
			<path fill-rule="evenodd" clip-rule="evenodd" fill="#0F2340" d="M236.834,117.445c-4.627,0.441-10.157,2.426-10.3,9.39
				l-0.283,19.453c0.096,8.516,10.35,9.555,14.733,9.995l0.498,0.054c6.738,0.644,11.651,0.011,14.618-1.884
				c2.022-1.284,3.101-3.076,3.204-5.317c0-0.039,0.033-0.827,0.033-0.827l0.286-19.393c0.058-9.486-9.282-10.545-15.468-11.25
				C241.808,117.399,239.296,117.191,236.834,117.445z M236.819,117.445c0.004,0,0.022-0.003,0.025-0.003L236.819,117.445z"/>
		</g>
		<path fill-rule="evenodd" clip-rule="evenodd" fill="#0F4C92" d="M222.494,115.346c-6.978-0.337-13.804-0.47-20.779-0.423l0,0
			c-0.172,11.866-0.34,23.232-0.509,35.104l0,0c4.293-0.065,8.526-0.023,12.902,0.072l0,0c0.072-4.717,0.136-9.209,0.204-13.936l0,0
			c0.076,0,0.158,0.012,0.237,0.012l0,0c3.014,0.133,2.928,1.236,2.925,1.609l0,0c-0.018,1.059,0.029,4.085,0.093,5.548l0,0
			c0,0.244,0.025,0.463,0.022,0.685l0,0c0.075,2.012,0.157,2.272,0.251,2.43l0,0c0.881,2.448,3.279,3.96,7.06,4.491l0,0
			c0.032,0,0.09-0.011,0.09,0.018l0,0c1.498,0.073,3.003,0.172,4.498,0.251l0,0c0.064-4.426,0.125-8.623,0.193-13.051l0,0
			c0.004-1.263-0.738-2.656-1.616-3.772l0,0c1.312-1.272,1.892-2.673,1.928-4.691l0,0c0-0.169,0.003-0.33,0.003-0.498l0,0
			c0-0.219,0.025-0.436,0.021-0.649l0,0c0.122-8.695,0.298-12.092-7.322-13.183l0,0c-0.028,0-0.061-0.016-0.093-0.016l0,0
			C222.567,115.346,222.531,115.346,222.494,115.346z M214.75,122.461c0.079,0,0.301,0.006,0.219,0.006l0,0
			c0.703,0.025,1.517,0.039,1.713,0.154l0,0c0.072,0.039,0.334,0.373,0.319,1.995l0,0c0,0.088-0.007,0.173-0.014,0.264l0,0
			c-0.003,0.441-0.003,0.863-0.011,1.284l0,0c-0.021,1.52,0.007,1.812-0.108,2.805l0,0c-0.003,0.143-0.025,0.298-0.025,0.445l0,0
			c0,0.014,0,0.029,0,0.047l0,0c0,0.067-0.011,0.172-0.09,0.219l0,0c-0.8-0.01-1.52-0.072-2.323-0.076l0,0
			c0.036-2.417,0.065-4.731,0.104-7.15l0,0C214.61,122.458,214.682,122.461,214.75,122.461z"/>
		<path fill-rule="evenodd" clip-rule="evenodd" fill="#0F4C92" d="M274.364,121.354c-3.684-0.658-7.16-1.252-10.834-1.836l0,0
			c-0.172,11.773-0.38,23.023-0.548,34.797l0,0c4.279,0.648,8.378,1.36,12.654,2.135l0,0c0.172-11.758,0.337-23.008,0.509-34.762
			l0,0C275.55,121.582,274.959,121.465,274.364,121.354z"/>
		<path fill-rule="evenodd" clip-rule="evenodd" fill="#0F4C92" d="M197.726,114.966c-8.178,0.14-15.83,0.538-23.908,1.189l0,0
			c-0.035,2.505-0.072,4.923-0.107,7.426l0,0c2.2-0.185,4.29-0.337,6.48-0.477l0,0c-0.137,9.419-0.266,18.385-0.402,27.804l0,0
			c4.297-0.333,8.566-0.53,12.949-0.666l0,0c0.136-9.422,0.276-18.426,0.412-27.847l0,0c1.591-0.19,3.029-0.674,4.039-1.482l0,0
			c2.115-1.589,2.297-3.722,2.308-4.464l0,0c0.007-0.075,0-0.148,0-0.225l0,0c0.011-0.421,0.018-0.837-0.068-1.282l0,0
			C198.826,114.937,198.224,114.971,197.726,114.966z"/>
		<path fill-rule="evenodd" clip-rule="evenodd" fill="#0F4C92" d="M302.075,127.437c-8.042-2.067-15.762-3.798-23.808-5.343l0,0
			c-0.035,2.473-0.068,4.856-0.104,7.327l0,0c2.186,0.421,4.257,0.857,6.444,1.297l0,0c-0.136,9.286-0.265,18.136-0.401,27.425l0,0
			c4.372,0.91,8.53,1.828,12.895,2.871l0,0c0.136-9.29,0.279-18.174,0.416-27.467l0,0c1.584,0.242,2.92,0.127,4.024-0.367l0,0
			c2.104-1.016,2.294-3.059,2.305-3.788l0,0c0-0.079,0-0.152,0-0.228l0,0c-0.094-0.46-0.086-0.857-0.079-1.289l0,0
			C303.178,127.721,302.673,127.597,302.075,127.437z"/>
		<path fill-rule="evenodd" clip-rule="evenodd" fill="#0F4C92" d="M169.782,116.503c-7.186,0.688-14.049,1.507-21.335,2.573l0,0
			c-0.169,11.951-0.373,23.382-0.542,35.334l0,0c7.795-1.179,15.389-2.129,23.167-2.846l0,0c0.035-2.545,0.068-4.978,0.104-7.537
			l0,0c-3.491,0.313-6.859,0.676-10.451,1.096l0,0c0.029-1.935,0.054-3.81,0.083-5.77l0,0c2.494-0.294,4.777-0.559,7.171-0.774l0,0
			c0.047-3.192,0.09-6.244,0.136-9.43l0,0c-2.398,0.209-4.681,0.477-7.172,0.769l0,0c0.025-1.758,0.05-3.432,0.076-5.18l0,0
			c3.595-0.409,6.963-0.759,10.451-1.064l0,0c0.035-2.474,0.071-4.846,0.107-7.334l0,0
			C170.979,116.388,170.377,116.453,169.782,116.503z"/>
		<path fill-rule="evenodd" clip-rule="evenodd" fill="#0F2340" d="M127.883,128.676"/>
		<path fill-rule="evenodd" clip-rule="evenodd" fill="#0F4C92" d="M137.248,120.922c-8.899,1.605-17.407,3.426-26.202,5.634l0,0
			c-0.111,0.441-0.118,0.832-0.225,1.244l0,0c0,0.068-0.047,0.308-0.057,0.62l0,0c-0.003,0.87,0.165,2.34,1.641,3.301l0,0
			c1.089,0.67,2.394,0.928,4.29,0.759l0,0c-0.136,9.508-0.265,18.597-0.401,28.116l0,0c6.794-1.631,13.235-3.011,20.026-4.255l0,0
			c5.204-1.031,8.548-4.587,8.655-9.39l0,0c0.075-5.186,0.161-10.156,0.233-15.332l0,0c0.126-8.499,0.273-11.851-7.891-10.706l0,0
			c-0.022,0-0.029,0.006-0.033,0.006l0,0C137.288,120.919,137.259,120.922,137.248,120.922z M131.783,129.445
			c0.196,0.1,0.348,0.635,0.344,1.08l0,0c0,0.03,0,0.063,0,0.092l0,0c-0.003,0.028,0.011,0.053,0.011,0.082l0,0
			c0.173,0.95,0.122,3.867,0.068,7.462l0,0c-0.053,3.779-0.219,8.049-0.269,11.493l0,0c-0.896,0.179-1.666,0.316-2.569,0.524l0,0
			c0.097-6.902,0.193-13.504,0.293-20.389l0,0C131.073,129.469,131.593,129.434,131.783,129.445z M131.61,129.405
			c0.004,0,0.044,0.003,0.025,0.003l0,0C131.654,129.409,131.614,129.405,131.61,129.405z"/>
		<path fill-rule="evenodd" clip-rule="evenodd" fill="#0F4C92" d="M240.676,117.129c-5.515,0.518-8.189,3.055-8.282,7.675l0,0
			c-0.094,6.591-0.187,12.859-0.284,19.438l0,0c0.083,7.247,8.92,7.861,13.243,8.312l0,0c9.608,0.924,14.955-0.868,15.174-5.52l0,0
			c0.003-0.272,0.029-0.524,0.036-0.782l0,0c0.093-6.565,0.182-12.837,0.283-19.388l0,0c0.043-7.863-7.039-8.785-13.5-9.517l0,0
			C244.958,117.077,242.765,116.912,240.676,117.129z M246.059,124.644c1.397,0.181,1.523,0.324,1.523,0.403l0,0
			c0.279,0.631,0.301,2.163,0.275,3.876l0,0c-0.067,4.6-0.129,8.993-0.193,13.605l0,0c-0.015,0.498,0.011,0.935-0.086,1.351l0,0
			c-0.182,0.029-0.358,0.003-0.523-0.046l0,0c-0.8-0.074-1.265-0.219-1.459-0.404l0,0c-0.293-0.247-0.326-0.823-0.312-1.367l0,0
			c0-0.201,0.018-0.387,0.018-0.563l0,0c0.021,0,0-0.034,0-0.047l0,0c0.071-4.657,0.132-9.101,0.204-13.751l0,0
			c0.003-0.28,0.007-0.53,0.011-0.797l0,0c0.007-0.805,0.065-1.564,0.176-2.29l0,0C245.812,124.621,245.93,124.644,246.059,124.644z
			"/>
		<path fill-rule="evenodd" clip-rule="evenodd" fill="#0F2340" d="M127.883,128.676"/>
		<g>
			<path fill-rule="evenodd" clip-rule="evenodd" fill="#FFFFFF" d="M222.473,116.688c-6.379-0.299-12.615-0.419-18.98-0.424l0,0
				c-0.158,10.947-0.309,21.428-0.47,32.398l0,0c3.193-0.017,6.226-0.014,9.318,0.051l0,0c0.068-4.717,0.133-9.205,0.205-13.934l0,0
				c0.691,0.005,1.326,0.018,2.025,0.046l0,0c2.595,0.112,4.709,0.927,4.695,3.023l0,0c-0.021,1.307,0.118,5.72,0.111,6.199l0,0
				c0,0,0.104,1.803,0.197,2.1l0,0c0.781,2.066,2.752,3.078,5.534,3.462l0,0c0.899,0.053,1.713,0.085,2.609,0.14l0,0
				c0.058-3.954,0.111-7.738,0.169-11.703l0,0c-0.086-1.037-0.72-2.428-1.688-3.461l0,0c-0.107-0.125-0.28-0.229-0.376-0.381l0,0
				c1.817-1.342,2.344-2.627,2.376-4.629l0,0c0.004-0.161,0.007-0.326,0.007-0.494l0,0c0.007-0.235,0.025-0.457,0.025-0.674l0,0
				C228.365,119.084,228.089,117.468,222.473,116.688z M218.635,129.479c-0.011,0.697-0.613,1.578-1.717,1.548l0,0
				c-1.397-0.038-2.899-0.077-4.297-0.114l0,0c0.051-3.336,0.097-6.52,0.147-9.854l0,0c0.595,0.02,1.304,0.02,2,0.048l0,0
				c2.907,0.092,4.154-0.012,4.014,3.848l0,0C218.836,127.902,218.76,127.857,218.635,129.479z"/>
			<path fill-rule="evenodd" clip-rule="evenodd" fill="#FFFFFF" d="M273.88,154.779c0.155-10.844,0.309-21.234,0.47-32.083l0,0
				c-3.093-0.552-5.978-1.05-9.057-1.552l0,0c-0.158,10.859-0.348,21.245-0.509,32.108l0,0
				C267.874,153.754,270.794,154.242,273.88,154.779z"/>
			<path fill-rule="evenodd" clip-rule="evenodd" fill="#FFFFFF" d="M197.712,116.321c-7.48,0.15-14.64,0.494-22.116,1.046l0,0
				c-0.025,1.586-0.043,3.13-0.068,4.716l0,0c2.19-0.161,4.279-0.304,6.472-0.441l0,0c-0.132,9.404-0.261,18.391-0.398,27.79l0,0
				c3.197-0.215,6.168-0.367,9.362-0.478l0,0c0.136-9.424,0.279-18.399,0.412-27.806l0,0
				C198.131,121.173,197.712,116.321,197.712,116.321z"/>
			<path fill-rule="evenodd" clip-rule="evenodd" fill="#FFFFFF" d="M302.061,128.775c-7.455-1.914-14.58-3.53-22.027-4.99l0,0
				c-0.026,1.56-0.044,3.083-0.068,4.644l0,0c2.19,0.421,4.264,0.866,6.451,1.332l0,0c-0.136,9.285-0.261,18.153-0.398,27.42l0,0
				c3.075,0.644,6.139,1.315,9.311,2.071l0,0c0.14-9.289,0.284-18.143,0.42-27.42l0,0
				C302.397,133.704,302.061,128.775,302.061,128.775z"/>
			<path fill-rule="evenodd" clip-rule="evenodd" fill="#FFFFFF" d="M169.761,117.861c-6.587,0.613-12.945,1.364-19.536,2.316l0,0
				c-0.157,11.024-0.344,21.575-0.505,32.599l0,0c3.397-0.498,6.454-0.907,9.859-1.332l0,0c3.29-0.403,6.426-0.749,9.713-1.07l0,0
				c0.025-1.623,0.05-3.203,0.072-4.823l0,0c-3.491,0.344-6.856,0.702-10.454,1.154l0,0c0.043-2.887,0.079-5.613,0.125-8.49l0,0
				c2.402-0.298,4.774-0.566,7.164-0.813l0,0c0.032-2.269,0.068-4.431,0.1-6.721l0,0c-2.394,0.244-4.777,0.516-7.171,0.806l0,0
				c0.039-2.656,0.079-5.216,0.114-7.888l0,0c3.595-0.437,6.97-0.792,10.454-1.122l0,0
				C169.718,120.926,169.739,119.41,169.761,117.861z"/>
			<path fill-rule="evenodd" clip-rule="evenodd" fill="#FFFFFF" d="M137.23,122.288c-8.304,1.508-16.232,3.19-24.628,5.243l0,0
				c0,0-0.882,4.616,5.903,3.315l0,0v-0.004l0,0c-0.136,9.451-0.265,18.486-0.402,27.962l0,0c6.208-1.455,12.042-2.69,18.232-3.826
				l0,0c4.003-0.823,6.655-3.586,6.845-7.734l0,0c0.064-4.829,0.143-9.463,0.215-14.285l0,0
				C143.534,123.524,143.889,121.301,137.23,122.288z M133.686,150.683c-2.1,0.404-4.039,0.796-6.136,1.227l0,0
				c0.112-7.808,0.219-15.265,0.334-23.082l0,0c4.035-0.98,4.623-0.781,4.623-0.781l0,0c1.591,0.201,1.416,2.161,1.416,2.161l0,0
				C134.231,133.022,133.686,150.676,133.686,150.683z"/>
			<path fill-rule="evenodd" clip-rule="evenodd" fill="#FFFFFF" d="M247.331,118.69c-2.498-0.273-4.533-0.413-6.228-0.215l0,0
				c-3.992,0.367-6.73,1.946-6.921,6.466l0,0c-0.096,6.591-0.186,12.858-0.279,19.435l0,0c0.068,4.809,4.29,6.056,11.472,6.831l0,0
				c7.382,0.753,13.239,0.007,13.364-4.422l0,0c0.004-0.298,0.036-0.545,0.036-0.812l0,0c0.097-6.553,0.19-12.835,0.283-19.373l0,0
				C258.996,120.139,254.108,119.453,247.331,118.69z M249.449,142.734c-0.011,0.932-0.011,1.681-0.322,2.541l0,0
				c-0.692,0.015-1.394-0.011-2.093-0.089l0,0c-3.717-0.437-3.538-2.094-3.512-3.918l0,0c0.068-4.656,0.132-9.108,0.201-13.758l0,0
				c0.021-1.462,0.05-2.911,0.459-4.302l0,0c0.706-0.03,1.222,0.012,1.921,0.095l0,0c3.508,0.433,3.613,1.272,3.548,5.827l0,0
				C249.582,133.733,249.52,138.123,249.449,142.734z"/>
		</g>
	</g>
	<g>
		<path fill="none" d="M50.224,235.963c0,0.963,0,1.932,0,2.892C50.226,237.566,50.224,236.771,50.224,235.963z"/>
		<path fill="none" d="M50.224,235.963c1.94-0.429,8.268-1.784,11.119-2.417C59.574,233.942,53.256,235.292,50.224,235.963z"/>
		<polygon fill="none" points="348.554,244.327 348.554,244.322 347.539,244.085 		"/>
		<path fill="none" d="M112.28,234.299c0.002,0,4.062-0.493,8.227-0.991c0.062-0.013,0.122-0.02,0.183-0.028
			c-1.933,0.232-4.574,0.552-8.411,1.014V234.299z"/>
		<path fill="none" d="M128.346,232.302c-0.012-2.905-0.064-12.769-0.083-16.665C128.279,218.989,128.327,228.867,128.346,232.302z"
			/>
		<path fill="none" d="M47.64,182.208c0.281-0.069,0.567-0.138,0.853-0.205c-0.41,0.095-0.818,0.196-1.226,0.291
			C47.391,182.262,47.516,182.237,47.64,182.208z"/>
		<path fill="none" d="M391.052,207.746c0.062-0.062,0.115-0.127,0.174-0.191c0.007-0.005,0.012-0.015,0.018-0.021L391.052,207.746z
			"/>
		<path fill="#0F2340" d="M50.194,267.413c0,0,0-0.016,0-0.043c0-0.34,0-2.772,0-6.163c-8.63,2.027-17.177,4.103-25.805,6.555
			c0,0,0-57.785,0-63.155c-6.332,0.998-9.131-1.42-10.321-3.302c-0.579-0.96-1.442-3.258-1.482-5.524
			c0.04-1.309,0.325-2.537,1.108-3.533c0.374-0.422,0.62-0.81,1.03-1.266c6.232-1.81,12.354-3.51,18.455-5.126
			c-7.432,1.898-15.013,4.141-22.96,6.402l-1.066,0.305c0,0-3.836,3.333-3.72,7.806v0.186c0.053,2.817,1.09,4.945,2.03,6.48
			c1.306,2.022,4.176,4.916,9.888,5.175c0,6.704,0,63.526,0,63.526l4.592-1.281c8.036-2.241,16.121-4.182,23.773-5.954
			c0.715-0.168,1.449-0.34,2.154-0.501L50.194,267.413z"/>
		<path fill="#0F2340" d="M40.966,183.85c2.219-0.561,4.442-1.103,6.674-1.642c-0.124,0.029-0.248,0.054-0.372,0.086
			C45.172,182.775,43.071,183.309,40.966,183.85z"/>
		<path fill="#0F2340" d="M61.877,233.431c7.676-1.683,13.355-5.455,16.654-10.819c0.005,10.008,0.029,20.148,0.095,30.343
			c0.01,1.547,0.02,3.092,0.029,4.641l0.026,3.122l0.01,1.131l1.17-0.201l3.021-0.513c1.757-0.299,3.445-0.58,5.104-0.855
			c7.363-1.22,13.856-2.231,20.093-3.119l3.109-0.442v-7.105c-8.349,1.215-16.46,2.543-24.813,3.991
			c-0.205-26.746-0.081-52.428-0.124-79.166c-1.523,0.26-3.08,0.528-4.726,0.814l-2.999,0.521v5.675
			c2.675,4.01,2.582,11.393,2.582,22.58c0,0.497-0.041,0.958-0.041,1.458c0,0.421,0,0.764,0,1.151
			c-0.081,10.36-6.251,17.265-16.905,19.645c-4.689,0.996-9.209,2.029-13.939,3.142c0,2.196,0,4.368,0,6.536
			c3.032-0.671,9.35-2.02,11.119-2.417C61.674,233.479,61.877,233.431,61.877,233.431z"/>
		<path fill="#0F2340" d="M309.288,173.992c0,1.218,0,2.856,0,4.063c2.613,2.718,4.885,6.169,6.482,10.551
			c0.165,0.616,0.374,1.109,0.541,1.767c0-5.709,0-11.146,0-16.805c-0.436-0.076-0.857-0.155-1.263-0.229
			c-2.574-0.459-4.52-0.807-5.335-0.949c-0.273-0.053-0.425-0.079-0.425-0.079S309.288,173.02,309.288,173.992z"/>
		<path fill="#0F2340" d="M394.138,197.247l-0.006-0.191c0.01,0.305,0.017,0.611,0.017,0.916c0,0.076-0.635,2.908-2.243,4.525
			c-2.136,2.529-5.383,3.221-9.546,2.07c-4.111-1.116-8.178-2.184-12.293-3.301c0,0.615,0,1.155,0,1.764
			c0,2.576,1.998,4.544,5.316,6.967c1.436,0.386,2.747,0.738,2.747,0.738c7.312,2.027,11.334-1.105,13.096-3.179
			c-0.059,0.064-0.112,0.128-0.174,0.191l0.192-0.212c-0.007,0.007-0.012,0.016-0.018,0.021c0.007-0.01,0.012-0.016,0.018-0.025
			c2.273-2.449,3.002-6.064,3.002-6.898L394.138,197.247z"/>
		<path fill="#0F2340" d="M358.35,181.817c-2.849-0.7-5.409-0.896-7.682-0.62c-1.947,0.233-3.692,0.81-5.192,1.762
			c-1.542,0.972-2.773,2.3-3.653,3.917v-8.444l-0.464-0.095c0,26.901,0,52.583,0,79.485c-8.063-1.725-15.883-3.219-24.184-4.684
			c0,0-4.486-10.97-8.23-20.102c0,6.374,0,12.353,0,18.687c-8.23-1.342-16.409-2.494-24.682-3.526c0-26.828,0-52.336,0-79.12
			c0-0.023,0-0.048,0-0.071c0.975-0.034,2.842-0.043,2.842-0.043c0.674-0.021,1.413-0.01,2.201,0.035
			c-2.214-0.359-4.26-0.483-6.004-0.431l-6.407,0.22v6.013c1.358,2.62,2.154,5.964,2.193,10.28v44.391c0,0-0.048,1.845-0.048,1.889
			c-0.046,3.946-1.44,7.214-4.149,9.721c-4.712,4.365-13.289,6.076-26.277,5.233c-10.471-0.807-26.291-2.032-26.411-17.998v-44.418
			c0.075-9.546,4.244-15.492,12.722-18.061c-0.048,0.005-0.103,0.01-0.153,0.02c-1.196,0.196-2.326,0.45-3.414,0.738
			c-1.907,0.51-3.652,1.164-5.235,1.965c-2.064,1.04-3.862,2.308-5.364,3.824c-0.654,1.604-1.721,3.309-3.462,4.787
			c-2.183,1.731-4.897,2.69-8.062,2.995c0,21.337,0,41.749,0,63.119c-8.683-0.079-17.074,0-25.753,0.306c0-21.299,0-41.707,0-62.965
			c-4.523,0.117-8.552,0.305-12.917,0.538c0-5.682,0-11.088,0-16.729c1.316-0.064,2.611-0.118,3.914-0.176
			c-2.972,0.105-5.958,0.224-8.969,0.372c0,0.957,0.243,1.8,0.243,2.759c0,0.656,0.085,1.228,0.085,1.838
			c0,0.618-0.085,1.154-0.085,1.693c0,0.076,0,0.076,0,0.114c0,0.038-0.035,0.076-0.035,0.076c0,0.574-0.494,2.611-1.894,4.873
			c-2.181,3.414-5.39,5.295-9.75,5.673c-4.112,0.311-8.141,0.659-12.297,1.078c0,0.577,0,1.154,0,1.726
			c0.036,2.77,2.219,4.029,5.839,5.335c1.621-0.139,2.883-0.253,2.883-0.253c4.532-0.398,8.177-2.122,10.926-5.102v4.833
			c0,0,9.265-0.38,13.041-0.534c0,4.751,0,34.51,0,51.133c0,4.49,0,8.023,0,9.854c0,0.876,0,1.358,0,1.358l0.856-0.012l6.383-0.074
			l27.564-0.314c0,0,0-57.64,0-63.132c2.566-0.627,3.276-1.662,5.183-3.142l0.095-0.079c0.253-0.21,0.491-0.429,0.723-0.649
			c-0.226,1.425-0.348,2.928-0.364,4.506v44.026c0.09,11.506,7.13,16.632,14.995,19.063c1.778,0.551,3.593,0.963,5.383,1.281
			c3.49,0.616,6.876,0.881,9.637,1.088c14.376,0.914,23.654-1.027,29.249-6.111c1.083-0.986,1.986-2.091,2.754-3.275v0.524
			l0.004,9.083l2.213,0.273l0.963,0.113c8.798,1.077,16.908,2.214,24.799,3.477l4.183,0.666l4.075,0.735
			c2.332,0.403,4.583,0.797,6.783,1.197c2.272,0.413,4.484,0.82,6.663,1.241c1.116,0.214,2.227,0.427,3.328,0.644
			c2.528,0.5,5.026,1.004,7.525,1.526l3.027,0.635l1.337,0.284v-3.551v-46.281c2.263,4.735,5.595,8.197,9.248,10.904
			c2.14,1.593,4.392,2.923,6.604,4.1c0.04,2.428,0.057,6.512,0.057,10.411c0,2.089-0.006,4.496-0.011,6.188
			c2.22,0.515,4.458,1.044,6.796,1.611c0-4.606,0.076-20.722-0.129-23.104c0-0.074-0.201-0.112-0.287-0.15
			c-0.167-0.077-0.409-0.192-0.576-0.271c-5.879-3.028-12.876-7.329-16.083-15.614c-0.78-2.034-0.884-5.257-0.947-8.636
			c-0.084-4.692,0.741-11.431,0.741-12.007c1.184-5.245,5.922-7.601,13.284-5.85c-0.256-0.067-1.983-0.515-2.174-0.568
			L358.35,181.817z"/>
		<path fill="#0F2340" d="M360.607,182.446c0.253,0.067,1.71,0.434,3.913,0.996c-0.307-0.081-0.612-0.159-0.908-0.238
			c-1.121-0.288-2.12-0.544-2.928-0.758C360.66,182.446,360.634,182.446,360.607,182.446z"/>
		<path fill="#0F2340" d="M391.443,190.771l-0.687-0.201c0.739,0.227,1.49,0.492,2.247,0.74L391.443,190.771z"/>
		<path fill="#0F2340" d="M393.955,191.634l-0.012-0.005c0.003,1.317,0.076,2.632,0.138,3.953L393.955,191.634z"/>
		<path fill="#0F2340" d="M389.84,226.74c0.017,0.273,0.029,0.572,0.036,0.881C389.883,227.324,389.889,227.033,389.84,226.74z"/>
		<path fill="#0F2340" d="M389.972,258.286c0,0-0.095,1.146-0.532,1.989c-2.587,4.993-8.108,6.678-16.827,4.797
			c0.044,0-0.038-0.038-0.038-0.038c-8.268-2.149-15.756-3.988-24.022-5.83c0-5.05,0-9.834,0-14.878l-1.015-0.242l-5.695-1.337
			l-0.016,4.092v14.248v3.574l2.808,0.63c2.922,0.649,5.631,1.272,8.285,1.904c5.028,1.195,9.853,2.409,15.508,3.877l0.066,0.02
			l0.113,0.054c12.786,2.765,18.078-2.091,20.431-6.65c0.723-1.384,0.899-2.946,0.932-3.387l0.01-0.138l0.033-5.443l0.053-10.682
			c0-0.518-0.005-1.136-0.011-1.82c-0.004,6.216-0.083,12.154-0.083,15.141C389.972,258.245,389.972,258.286,389.972,258.286z"/>
		<path fill="#0F2340" d="M53.471,197.239c-0.782,0.189-1.604,0.344-2.385,0.46c-0.414,0.11-0.782,0.15-1.151,0.272
			c0,5.717,0,11.162,0,16.839c1.766-0.422,3.451-0.804,5.22-1.187c0-1.963-0.081-14.928-0.081-15.426
			C54.663,197.277,54.458,197.084,53.471,197.239z"/>
		<path fill="#0F2340" d="M249.192,182.422l-0.081-0.004l-0.081-0.009c-0.136-0.02-0.287-0.015-0.434-0.027
			c-0.067,0.566-0.114,1.133-0.114,1.697v0.224l-0.03,0.226c-0.066,0.559-0.086,1.154-0.086,1.757c0,0.418,0.004,0.842,0.02,1.261
			l0.018,1.209v31.501l-0.004,0.143c-0.024,0.623-0.048,1.167-0.048,1.639c0,2.389,0.548,2.985,3.972,3.276
			c0.181,0.008,0.699,0.036,0.699,0.036s0.169,0,0.207,0c0.01-0.434,0.067-2.336,0.067-2.336v-31.149c0-3.977,0-7.414-0.562-8.563
			C252.49,182.813,250.674,182.556,249.192,182.422z"/>
		<path fill="#0F2340" d="M136.101,208.403c0,0,0,0,0,0.005C136.125,208.403,136.133,208.403,136.101,208.403z"/>
		<path fill="#0F2340" d="M111.642,203.876c3.724,8.291,11.463,10.722,16.621,11.761c0.019,3.896,0.071,13.76,0.083,16.665
			c0,0.005,0,0.015,0,0.015c2.583-0.304,5.193-0.592,7.875-0.896c0-7.787-0.119-15.226-0.119-23.012c-0.069,0.002-0.29,0-0.29-0.086
			c-0.203-0.031-0.367-0.071-0.572-0.071c-5.88-0.998-12.874-2.764-16.084-9.904c-0.782-1.761-0.944-4.911-0.944-8.36
			c0-4.57,0.329-9.286,0.534-10.707c0,0.115,0,0.196,0,0.267c0-0.616,0.205-1.188,0.205-1.762c1.023-4.804,4.544-8.18,9.892-9.677
			c0.021-0.004,0.043-0.007,0.064-0.014c1.025-0.281,2.113-0.503,3.269-0.645l0.281-0.057c-2.334,0.272-6.799,0.601-10.09,1.444
			c-0.718,0.187-1.385,0.401-1.955,0.639c-1.743,0.732-3.211,1.814-4.499,3.004c-2.15,1.996-3.688,4.501-4.489,7.439
			c0,7.86,0,15.642,0,23.401C111.494,203.509,111.56,203.698,111.642,203.876z M128.84,168.08c-0.01-0.059-0.015-0.102-0.019-0.133
			C128.825,167.994,128.835,168.047,128.84,168.08z"/>
		<path fill="#0F2340" d="M112.28,234.299l0.09,2.964l0.105,19.379l4.46-0.547c7.464-0.957,14.817-1.754,23.838-2.593l0.196-0.016
			c13.785-1.8,20.78-8.603,20.78-20.216l0.007-1.47l0.039-7.284l0.007-1.596l0.029-4.726c0-7.191-0.043-11.125-0.153-13.433
			c0.036,2.407,0.053,5.547,0.053,9.515c0,4.259-0.086,9.131-0.086,15.077c0,11.774-7.925,15.189-17.316,16.272
			c0.041-0.005-0.043,0-0.043,0c-8.265,0.766-15.915,1.573-23.976,2.607c0-5.029-0.081-9.903-0.081-14.886
			c0.09-0.015,0.183-0.028,0.279-0.038C116.343,233.806,112.283,234.299,112.28,234.299L112.28,234.299z"/>
		<path fill="#0F4C92" d="M111.425,203.32c0-7.759,0-15.541,0-23.401c0-3.29,0-6.599,0-9.923c-1.152,0.189-2.348,0.344-3.536,0.537
			c-7.28,1.075-14.316,2.267-21.637,3.568c0,0.113,0,0.225,0,0.339c0.043,26.737-0.081,52.42,0.124,79.166
			c8.353-1.448,16.464-2.777,24.813-3.991c0.081-0.012,0.157-0.028,0.236-0.033C111.425,233.923,111.425,218.655,111.425,203.32z
			 M107.888,247.082c-6.088,0.921-11.892,1.802-18.019,2.875c0-24.867-0.081-48.613-0.081-73.479
			c6.127-1.108,12.011-1.996,18.099-2.916C107.888,198.426,107.888,222.222,107.888,247.082z"/>
		<path fill="#0F4C92" d="M162.841,164.79c-0.191,0.01-0.381,0.016-0.582,0.023c-11.596,0.732-26.039,2.113-29.081,2.499
			c-0.242,0.034-0.531,0.113-0.819,0.113c-0.06,0.007-0.122,0.019-0.183,0.025c-1.157,0.141-2.244,0.363-3.269,0.645
			c-0.021,0.007-0.043,0.01-0.064,0.014c-5.348,1.497-8.869,4.874-9.892,9.677c0,0.574-0.205,1.146-0.205,1.762
			c0-0.072,0-0.152,0-0.267c-0.205,1.421-0.534,6.137-0.534,10.707c0,3.449,0.162,6.599,0.944,8.36
			c3.21,7.141,10.204,8.907,16.084,9.904c0.205,0,0.369,0.039,0.572,0.071c0,0.086,0.221,0.087,0.29,0.086c0-0.005,0-0.005,0-0.005
			c0.031,0,0.024,0,0,0.005c0,7.786,0.119,15.225,0.119,23.012c-2.681,0.304-5.292,0.592-7.875,0.896
			c-2.558,0.299-5.095,0.615-7.655,0.963c-0.062,0.008-0.121,0.015-0.183,0.028c-0.095,0.01-0.188,0.023-0.279,0.038
			c0,4.983,0.081,9.857,0.081,14.886c8.061-1.034,15.711-1.841,23.976-2.607c0,0,0.084-0.005,0.043,0
			c9.391-1.083,17.316-4.498,17.316-16.272c0-5.946,0.086-10.817,0.086-15.077c0-3.969-0.016-7.108-0.053-9.515
			c-0.028-2.17-0.078-3.74-0.157-4.763c-0.243-2.68-1.69-4.72-4.442-6.442c-0.946-0.615-1.976-1.153-3.578-1.728
			c-0.987-0.423-2.098-0.765-3.29-1.15c-0.165-0.038-0.367,0-0.367-0.116c-0.794-0.267-1.535-0.518-2.227-0.768
			c-3.619-1.306-5.802-2.565-5.839-5.335c0-0.572,0-1.149,0-1.726c4.156-0.419,8.184-0.768,12.297-1.078
			c4.361-0.378,7.57-2.259,9.75-5.673c1.4-2.262,1.894-4.299,1.894-4.873c0,0,0.035-0.039,0.035-0.076c0-0.039,0-0.039,0-0.114
			c0-0.539,0.085-1.075,0.085-1.693c0-0.61-0.085-1.182-0.085-1.838c0-0.958-0.243-1.802-0.243-2.759c-0.014,0-0.024,0-0.038,0
			C164.515,164.692,163.723,164.752,162.841,164.79z M162.222,170.917c0,0-0.291,1.883-1.483,3.76
			c-1.359,1.957-3.085,3.607-6.664,3.955c-5.309,0.42-10.487,0.844-15.835,1.421c0,1.645,0,3.179,0,4.754
			c0.248,5.335,5.142,7.021,10.035,8.592c1.196,0.386,2.389,0.769,3.581,1.23c1.154,0.385,2.057,0.921,3.042,1.421
			c1.769,1.15,2.877,2.377,3.085,4.413c0.372,5.524,0.162,30.157,0.123,30.194c0,0.536-0.231,3.258-0.7,4.353
			c-2.15,5.045-7.073,6.625-13.2,7.472c-7.074,0.577-13.492,1.412-20.4,2.297c0-2.992-0.041-5.912-0.041-8.864
			c5.51-0.728,10.692-1.307,15.995-1.805c0-9.321-0.12-18.181-0.12-27.512c-0.372-0.648-1.073-0.88-1.647-1.067
			c-0.617-0.155-1.314-0.197-1.729-0.273c-6.494-1.034-11.348-2.836-13.777-8.365c-1.478-3.72-0.205-17.612-0.205-17.803
			c0,0-0.084-0.501,0.122-1.226c1.032-4.41,4.529-6.871,10.035-7.409c0.25-0.15,0.579-0.076,0.822-0.15
			c3.786-0.462,23.614-2.148,28.962-2.453C162.429,168.576,162.429,169.725,162.222,170.917z"/>
		<path fill="#0F4C92" d="M339.328,177.821c-7.741-1.626-15.23-3.07-23.016-4.408c0,0.054,0,0.105,0,0.155
			c0,5.659,0,11.096,0,16.805c-0.167-0.658-0.376-1.152-0.541-1.767c-1.597-4.382-3.869-7.833-6.482-10.551
			c-0.3-0.307-0.601-0.602-0.911-0.893c-6.074-5.774-13.708-7.838-19.072-8.166c-0.788-0.044-1.526-0.056-2.201-0.035
			c0,0-1.867,0.009-2.842,0.043c0,0.023,0,0.048,0,0.071c0,26.783,0,52.292,0,79.12c8.272,1.032,16.452,2.185,24.682,3.526
			c0-6.334,0-12.313,0-18.687c3.744,9.132,8.23,20.102,8.23,20.102c8.3,1.465,16.121,2.959,24.184,4.684c0-26.902,0-52.584,0-79.485
			c0-0.034,0-0.062,0-0.095C340.674,178.098,340.005,177.965,339.328,177.821z M337.82,254.063
			c-6.088-1.269-11.891-2.417-18.181-3.528c-4.732-11.782-9.459-22.988-14.187-34.65c0,10.857,0,21.335,0,32.227
			c-6.091-0.914-11.563-1.721-17.692-2.532c0-24.898,0.043-48.688,0.043-73.586c0,0,18.015-0.768,24.557,16.884
			c2.182,6.399,4.115,12.54,6.048,18.91c0.617,1.573,0.861,3.033,1.443,4.567c0-11.893,0-23.332,0-35.302
			c6.079,1.115,11.839,2.227,17.97,3.49C337.82,205.411,337.82,229.16,337.82,254.063z"/>
		<path fill="#0F4C92" d="M370.067,203.029c0-0.609,0-1.149,0-1.764c4.115,1.116,8.182,2.184,12.293,3.301
			c4.163,1.151,7.409,0.459,9.546-2.07c1.609-1.617,2.243-4.449,2.243-4.525c0-0.305-0.007-0.611-0.017-0.916
			c-0.01-0.488-0.026-0.982-0.05-1.473c-0.062-1.321-0.136-2.636-0.138-3.953c0-0.012,0-0.019,0-0.031
			c-0.315-0.092-0.631-0.187-0.941-0.288c-0.756-0.248-1.508-0.513-2.247-0.74c-0.104-0.038-0.224-0.076-0.331-0.11
			c-8.094-2.431-19.842-5.468-25.905-7.018c-2.203-0.562-3.66-0.93-3.913-0.996c0.027,0,0.053,0,0.076,0
			c0.014,0,0.031,0.005,0.043,0.005c-0.069-0.015-0.133-0.03-0.205-0.043c-7.363-1.751-12.1,0.605-13.284,5.85
			c0,0.576-0.825,7.315-0.741,12.007c0.062,3.379,0.167,6.603,0.947,8.636c3.207,8.286,10.204,12.586,16.083,15.614
			c0.167,0.079,0.409,0.194,0.576,0.271c0.086,0.038,0.287,0.076,0.287,0.15c0.205,2.382,0.129,18.498,0.129,23.104
			c-2.338-0.567-4.576-1.096-6.796-1.611c-3.022-0.709-6.014-1.397-9.168-2.147c0,0.01,0,0.028,0,0.039c0,0.005,0,0.005,0,0.005
			c0,5.044,0,9.828,0,14.878c8.266,1.841,15.754,3.681,24.022,5.83c0,0,0.081,0.038,0.038,0.038
			c8.719,1.881,14.24,0.196,16.827-4.797c0.437-0.843,0.532-1.989,0.532-1.989s0-0.041,0-0.118c0-2.987,0.079-8.925,0.083-15.141
			c0-0.247,0-0.495,0-0.741c0-5.756-0.052-11.276-0.178-14.664c-0.007-0.309-0.019-0.608-0.036-0.881
			c-0.023-0.485-0.045-0.909-0.071-1.261c-0.205-2.764-1.646-5.3-4.402-7.983c-0.989-0.955-1.978-1.877-3.576-2.956
			c-0.99-0.768-2.184-1.493-3.176-2.262c-0.116-0.079-0.367-0.23-0.488-0.345c-0.989-0.682-1.91-1.327-2.745-1.937
			C372.066,207.573,370.067,205.605,370.067,203.029z M376.567,214.275c1.192,0.766,2.384,1.609,3.576,2.456
			c0.987,0.84,2.055,1.649,3.042,2.532c1.769,1.761,2.884,3.411,3.09,5.446c0.329,5.484,0.162,30.426,0.162,32.574
			c0,0,0.039,0.503-0.367,1.08c-1.981,4.406-6.124,5.683-13.574,3.641c-6.891-1.884-13.534-3.415-20.403-5.026
			c0-2.992,0-5.872,0-8.868c5.303,1.231,10.65,2.456,15.961,3.842c0-9.325-0.127-18.268-0.127-27.587
			c-0.409-0.69-1.068-1.192-1.688-1.613c-0.575-0.348-1.316-0.651-1.683-0.88c-6.499-3.339-11.393-6.872-13.784-13.242
			c-1.476-4.218-0.243-17.691-0.243-17.875c0,0,0.017-0.429,0.167-1.154c1.03-4.067,4.481-5.256,10.031-3.876
			c0.21,0,23.362,6.065,29.656,7.906c0,0.996,0.127,2.032,0.127,3.068c0,0.46-0.615,1.995-1.607,3.376
			c-1.402,1.342-3.166,2.381-6.541,1.456c-5.303-1.456-10.526-2.837-15.831-4.176c0,1.645,0,2.72,0,4.791
			C366.53,207.45,371.834,210.978,376.567,214.275z"/>
		<path fill="#0F4C92" d="M221.78,166.733c0-1,0-1.92-0.21-2.878c-0.987,0-2.136-0.076-3.327-0.076
			c-14.853-0.317-29.051-0.172-43.762,0.477c-1.304,0.058-2.598,0.112-3.914,0.176c0,5.641,0,11.047,0,16.729
			c4.365-0.233,8.394-0.422,12.917-0.538c0,21.258,0,41.666,0,62.965c8.678-0.306,17.069-0.385,25.753-0.306
			c0-21.37,0-41.782,0-63.119c3.165-0.306,5.879-1.264,8.062-2.995c1.741-1.478,2.809-3.183,3.462-4.787
			c0.892-2.183,1.021-4.177,1.021-5.149C221.78,167.081,221.78,166.888,221.78,166.733z M205.691,177.209c0,21.332,0,41.67,0,63.042
			c-6.288-0.077-12.372,0-18.671,0.191c0-21.291,0-41.671,0-62.964c-4.319,0.115-8.389,0.234-12.912,0.463c0-3.612,0-7.062,0-10.628
			c14.929-0.734,29.161-0.846,44.134-0.5C218.242,166.812,219.269,177.897,205.691,177.209z"/>
		<path fill="#0F4C92" d="M13.695,192.249c-0.783,0.996-1.068,2.224-1.108,3.533c0.04,2.265,0.903,4.564,1.482,5.524
			c1.19,1.881,3.989,4.299,10.321,3.302c0,5.369,0,63.155,0,63.155c8.628-2.451,17.175-4.527,25.805-6.555
			c0.01-0.005,0.02-0.005,0.03-0.007c0-5.958,0-11.777,0-17.607c0-0.03,0-0.066,0-0.097c0-1.545,0-3.089,0-4.643
			c0-0.96,0-1.928,0-2.892c0-2.168,0-4.34,0-6.536c4.73-1.113,9.25-2.145,13.939-3.142c10.654-2.381,16.824-9.285,16.905-19.645
			c0-0.386,0-0.73,0-1.151c0-0.5,0.041-0.962,0.041-1.458c0-11.188,0.093-18.571-2.582-22.58c-0.127-0.194-0.261-0.372-0.401-0.549
			c-0.026-0.028-0.054-0.062-0.085-0.095c-0.115-0.141-0.233-0.281-0.358-0.409c-0.02-0.02-0.041-0.039-0.06-0.058
			c-0.141-0.145-0.284-0.281-0.433-0.41h-0.002c-2.127-1.835-5.407-2.465-10.466-1.974c-0.129,0.012-0.492,0.072-0.741,0.104
			c-0.055,0.01-0.098,0.012-0.136,0.014c-0.057,0.01-0.1,0.015-0.117,0.015c-0.419,0.09-0.832,0.186-1.251,0.271
			c-0.105,0.025-0.21,0.048-0.317,0.072c-1.623,0.348-3.23,0.703-4.835,1.064c-0.307,0.066-0.617,0.131-0.927,0.2
			c-2.389,0.533-4.763,1.083-7.126,1.64c-0.93,0.22-1.853,0.444-2.777,0.667c-0.286,0.067-0.572,0.136-0.853,0.205
			c-2.232,0.539-4.454,1.082-6.674,1.642c-2.253,0.57-4.505,1.147-6.758,1.741c-0.344,0.087-0.682,0.178-1.027,0.266
			c-6.101,1.616-12.223,3.316-18.455,5.126C14.315,191.439,14.069,191.828,13.695,192.249z M16.246,193.594
			c16.698-4.837,32.742-8.902,49.48-12.512c11.105-1.108,11.842,2.228,11.842,23.526c0,0.574-0.034,1.073-0.034,1.57
			c0,0.419,0,0.768,0,1.151c-0.045,9.091-5.269,14.118-13.372,15.92c-5.881,1.305-11.556,2.576-17.48,3.995
			c0,10.742,0,21.026,0,31.77c-6.293,1.456-12.464,3.069-18.755,4.758c-0.205-21.258-0.038-41.709-0.038-63.003
			C14.315,204.717,16.246,193.594,16.246,193.594z"/>
		<path fill="#0F4C92" d="M58.486,215.77c0-0.349,0.129-0.81,0.129-1.187c0.178-3.904,0.121-12.821,0.121-12.821
			c0-0.84-0.047-1.643-0.047-2.528c0-0.92-0.036-1.764-0.203-2.573c-0.617-1.685-1.807-2.841-4.563-2.532
			c-0.99,0.113-2.017,0.344-3.416,0.692c-1.355,0.229-2.716,0.575-4.112,0.917c0,7.753,0,15.196,0,22.983
			c3.375-0.845,6.458-1.568,9.791-2.303C56.966,216.191,57.705,215.998,58.486,215.77z M49.935,214.81c0-5.677,0-11.121,0-16.839
			c0.369-0.122,0.736-0.162,1.151-0.272c0.78-0.117,1.602-0.271,2.385-0.46c0.987-0.155,1.192,0.039,1.605,0.958
			c0,0.498,0.081,13.463,0.081,15.426C53.387,214.006,51.702,214.387,49.935,214.81z"/>
		<path fill="#FFFFFF" d="M89.87,249.958c6.127-1.074,11.93-1.955,18.019-2.875c0-24.86,0-48.656,0-73.519
			c-6.088,0.92-11.972,1.808-18.099,2.916C89.789,201.344,89.87,225.091,89.87,249.958z"/>
		<path fill="#FFFFFF" d="M133.26,170.304c-0.243,0.074-0.572,0-0.822,0.15c-5.506,0.538-9.002,2.999-10.035,7.409
			c-0.206,0.725-0.122,1.226-0.122,1.226c0,0.191-1.273,14.082,0.205,17.803c2.43,5.529,7.284,7.331,13.777,8.365
			c0.415,0.076,1.111,0.118,1.729,0.273c0.575,0.187,1.276,0.419,1.647,1.067c0,9.331,0.12,18.191,0.12,27.512
			c-5.303,0.498-10.485,1.077-15.995,1.805c0,2.953,0.041,5.872,0.041,8.864c6.908-0.884,13.326-1.72,20.4-2.297
			c6.127-0.847,11.05-2.426,13.2-7.472c0.469-1.095,0.7-3.817,0.7-4.353c0.039-0.036,0.248-24.669-0.123-30.194
			c-0.208-2.036-1.316-3.263-3.085-4.413c-0.985-0.501-1.888-1.037-3.042-1.421c-1.192-0.46-2.385-0.843-3.581-1.23
			c-4.892-1.571-9.787-3.257-10.035-8.592c0-1.574,0-3.109,0-4.754c5.348-0.577,10.526-1.001,15.835-1.421
			c3.579-0.348,5.305-1.997,6.664-3.955c1.192-1.877,1.483-3.76,1.483-3.76c0.207-1.192,0.207-2.341,0-3.066
			C156.874,168.156,137.046,169.842,133.26,170.304z"/>
		<path fill="#0F4C92" d="M252.143,164.7l-0.036-0.005c-5.801-0.401-9.768-0.332-13.253,0.233c-1.397,0.229-2.707,0.534-3.929,0.906
			c-8.478,2.569-12.647,8.516-12.722,18.061v44.418c0.12,15.966,15.94,17.191,26.411,17.998c12.988,0.843,21.566-0.868,26.277-5.233
			c2.708-2.507,4.102-5.775,4.149-9.721c0-0.044,0.048-1.889,0.048-1.889v-44.391c-0.039-4.315-0.835-7.66-2.193-10.28
			C272.515,166.321,262.201,165.49,252.143,164.7z M275.469,229.469c0,0.615-0.048,1.225-0.048,1.845
			c-0.12,10.124-11.716,12.349-26.528,11.391c-14.392-1.113-22.989-3.418-23.07-14.391c0-14.996,0-29.35,0-44.389
			c0.081-10.287,5.507-14.082,13.61-15.425c3.539-0.578,7.485-0.539,12.423-0.193c13.614,1.075,23.483,2.034,23.612,16.772
			C275.469,200.119,275.469,214.463,275.469,229.469z"/>
		<path fill="#0F4C92" d="M249.511,178.822c-1.154-0.155-2.223-0.078-3.373-0.038c-0.206,0.191-0.37,0.343-0.618,0.458
			c-0.405,1.497-0.658,3.109-0.658,4.837c-0.204,1.647-0.081,3.336-0.081,4.678c0,10.669,0,20.838,0,31.501
			c-0.161,4.181-0.08,8.055,7.282,8.669c1.152,0.043,2.384,0.156,3.745,0.043c0.243-0.153,0.408-0.271,0.612-0.459
			c0.21-0.963,0.21-1.807,0.411-2.765c0-0.921,0.085-1.805,0.085-2.729c0-10.546,0-20.596,0-31.149
			C256.916,181.507,256.873,179.476,249.511,178.822z M253.296,223.016c0,0-0.057,1.902-0.067,2.336c-0.038,0-0.207,0-0.207,0
			s-0.518-0.028-0.699-0.036c-3.424-0.291-3.972-0.888-3.972-3.276c0-0.472,0.024-1.016,0.048-1.639l0.004-0.143v-31.501
			l-0.018-1.209c-0.016-0.419-0.02-0.843-0.02-1.261c0-0.603,0.02-1.198,0.086-1.757l0.03-0.226v-0.224
			c0-0.565,0.047-1.132,0.114-1.697c0.147,0.012,0.298,0.007,0.434,0.027l0.081,0.009l0.081,0.004
			c1.483,0.134,3.299,0.391,3.543,0.883c0.562,1.149,0.562,4.587,0.562,8.563V223.016z"/>
		<path fill="#FFFFFF" d="M251.856,168.306c-4.938-0.346-8.883-0.385-12.423,0.193c-8.103,1.342-13.53,5.137-13.61,15.425
			c0,15.039,0,29.393,0,44.389c0.081,10.973,8.678,13.278,23.07,14.391c14.812,0.958,26.408-1.268,26.528-11.391
			c0-0.62,0.048-1.23,0.048-1.845c0-15.006,0-29.35,0-44.391C275.34,170.34,265.47,169.382,251.856,168.306z M256.916,223.016
			c0,0.924-0.085,1.808-0.085,2.729c-0.201,0.958-0.201,1.802-0.411,2.765c-0.204,0.187-0.369,0.306-0.612,0.459
			c-1.361,0.113-2.593,0-3.745-0.043c-7.362-0.613-7.443-4.488-7.282-8.669c0-10.663,0-20.833,0-31.501
			c0-1.342-0.122-3.031,0.081-4.678c0-1.728,0.253-3.34,0.658-4.837c0.248-0.115,0.413-0.267,0.618-0.458
			c1.151-0.04,2.219-0.118,3.373,0.038c7.362,0.653,7.404,2.685,7.404,13.046C256.916,202.42,256.916,212.47,256.916,223.016z"/>
		<path fill="#FFFFFF" d="M319.85,212.355c-0.582-1.534-0.825-2.994-1.443-4.567c-1.933-6.37-3.867-12.511-6.048-18.91
			c-6.542-17.652-24.557-16.884-24.557-16.884c0,24.898-0.043,48.688-0.043,73.586c6.13,0.81,11.601,1.618,17.692,2.532
			c0-10.891,0-21.37,0-32.227c4.728,11.662,9.455,22.868,14.187,34.65c6.29,1.111,12.092,2.259,18.181,3.528
			c0-24.903,0-48.652,0-73.519c-6.131-1.263-11.891-2.375-17.97-3.49C319.85,189.024,319.85,200.462,319.85,212.355z"/>
		<path fill="#FFFFFF" d="M366.53,202.148c0-2.071,0-3.147,0-4.791c5.304,1.339,10.528,2.72,15.831,4.176
			c3.375,0.925,5.139-0.114,6.541-1.456c0.992-1.381,1.607-2.916,1.607-3.376c0-1.036-0.127-2.072-0.127-3.068
			c-6.294-1.84-29.445-7.906-29.656-7.906c-5.55-1.379-9.002-0.191-10.031,3.876c-0.15,0.725-0.167,1.154-0.167,1.154
			c0,0.184-1.233,13.657,0.243,17.875c2.39,6.37,7.285,9.903,13.784,13.242c0.367,0.229,1.109,0.531,1.683,0.88
			c0.62,0.421,1.278,0.922,1.688,1.613c0,9.32,0.127,18.263,0.127,27.587c-5.312-1.386-10.659-2.611-15.961-3.842
			c0,2.995,0,5.876,0,8.868c6.869,1.611,13.513,3.142,20.403,5.026c7.45,2.042,11.593,0.764,13.574-3.641
			c0.406-0.577,0.367-1.08,0.367-1.08c0-2.147,0.167-27.089-0.162-32.574c-0.205-2.035-1.321-3.686-3.09-5.446
			c-0.987-0.883-2.055-1.692-3.042-2.532c-1.192-0.847-2.384-1.69-3.576-2.456C371.834,210.978,366.53,207.45,366.53,202.148z"/>
		<path fill="#FFFFFF" d="M174.108,167.312c0,3.567,0,7.016,0,10.628c4.523-0.229,8.592-0.348,12.912-0.463
			c0,21.293,0,41.673,0,62.964c6.299-0.191,12.383-0.268,18.671-0.191c0-21.372,0-41.71,0-63.042
			c13.578,0.689,12.551-10.396,12.551-10.396C203.27,166.466,189.037,166.578,174.108,167.312z"/>
		<path fill="#FFFFFF" d="M27.89,200.767c0,21.294-0.167,41.745,0.038,63.003c6.291-1.688,12.462-3.301,18.755-4.758
			c0-10.743,0-21.028,0-31.77c5.924-1.419,11.599-2.69,17.48-3.995c8.103-1.802,13.327-6.829,13.372-15.92c0-0.383,0-0.732,0-1.151
			c0-0.497,0.034-0.996,0.034-1.57c0-21.298-0.737-24.634-11.842-23.526c-16.738,3.61-32.782,7.675-49.48,12.512
			C16.246,193.594,14.315,204.717,27.89,200.767z M46.395,195.739c1.397-0.343,2.758-0.689,4.112-0.917
			c1.399-0.349,2.427-0.58,3.416-0.692c2.755-0.309,3.946,0.847,4.563,2.532c0.167,0.809,0.203,1.653,0.203,2.573
			c0,0.884,0.047,1.687,0.047,2.528c0,0-0.049,8.234-0.121,12.821c0,0.376-0.129,0.838-0.129,1.187
			c-0.782,0.229-1.521,0.421-2.301,0.649c-3.332,0.735-6.416,1.458-9.791,2.303C46.395,210.935,46.395,203.493,46.395,195.739z"/>
	</g>
</g>
</svg>
