<?xml version="1.0" encoding="utf-8"?>
<!-- Generator: Adobe Illustrator 19.1.0, SVG Export Plug-In . SVG Version: 6.00 Build 0)  -->
<svg version="1.1" id="Layer_1" xmlns="http://www.w3.org/2000/svg" xmlns:xlink="http://www.w3.org/1999/xlink" x="0px" y="0px"
	 viewBox="0 0 400 400" enable-background="new 0 0 400 400" xml:space="preserve">
<g id="layer1" transform="translate(-179.36809,-292.71165)">
	<g id="g5225" transform="matrix(6.0666086,0,0,6.0666086,-1529.2385,-2404.3535)">
		<g id="g3199" transform="matrix(1.25,0,0,-1.25,289.3163,503.47936)">
			<path id="path3201" fill="#2466B1" d="M4.443,4.792L1.631,3.379C1.48,3.315,1.39,3.267,1.368,3.238
				C1.292,3.151,1.31,3.031,1.413,2.877l-0.08-0.092L0.116,3.872l0.081,0.091c0.143-0.09,0.261-0.084,0.351,0.02
				c0.027,0.028,0.071,0.134,0.145,0.316l1.406,3.758c0.073,0.187,0.103,0.32,0.103,0.411c0,0.085-0.03,0.174-0.102,0.265
				l0.082,0.088l1.313-1.174L3.416,7.562c-0.14,0.075-0.245,0.075-0.322-0.01C3.058,7.511,3.02,7.436,2.977,7.331L1.939,4.663
				l2.605,1.288c0.111,0.056,0.182,0.096,0.204,0.123c0.078,0.087,0.065,0.197-0.042,0.331l0.084,0.089l1.37-1.228L6.083,5.176
				C5.926,5.258,5.809,5.251,5.737,5.168c-0.03-0.032-0.062-0.101-0.105-0.21L4.614,2.27l2.504,1.298
				c0.126,0.064,0.213,0.123,0.252,0.17C7.444,3.82,7.424,3.932,7.318,4.074l0.076,0.091l1.3-1.163L8.616,2.915
				C8.499,2.968,8.408,2.994,8.336,2.982C8.263,2.979,8.135,2.926,7.948,2.83l-3.577-1.82C4.2,0.923,4.097,0.86,4.058,0.812
				C3.975,0.725,3.991,0.608,4.102,0.47L4.026,0.381L2.791,1.482l0.079,0.089C3.02,1.474,3.138,1.476,3.235,1.583
				C3.26,1.618,3.308,1.726,3.367,1.907L4.443,4.792"/>
		</g>
		<g id="g3203" transform="matrix(1.25,0,0,-1.25,287.08205,508.11061)">
			<path id="path3205" fill="#2466B1" d="M4.635,5.191l1.173-1.047L5.84,4.178C5.785,4.251,5.757,4.324,5.757,4.392
				c0,0.056,0.02,0.111,0.059,0.155c0.049,0.052,0.152,0.117,0.325,0.204l3.576,1.816c0.19,0.098,0.317,0.152,0.395,0.162
				c0.017,0.002,0.029,0.002,0.043,0.002c0.067,0,0.147-0.021,0.238-0.066l0.032,0.039l-1.238,1.11L9.154,7.779
				c0.057-0.082,0.089-0.154,0.089-0.222c0-0.053-0.021-0.101-0.052-0.14c-0.05-0.059-0.139-0.112-0.266-0.176L6.329,5.892
				L7.38,8.678c0.043,0.108,0.079,0.178,0.11,0.219C7.535,8.953,7.601,8.98,7.673,8.979c0.058,0,0.121-0.017,0.186-0.046
				l0.031,0.035L6.58,10.141l-0.034-0.034c0.049-0.07,0.076-0.137,0.076-0.202c0.005-0.058-0.02-0.107-0.057-0.149
				C6.53,9.718,6.462,9.679,6.348,9.621L3.651,8.289l1.076,2.76c0.042,0.109,0.082,0.186,0.13,0.232
				c0.04,0.056,0.102,0.082,0.167,0.082c0.052,0,0.111-0.017,0.169-0.047l0.033,0.037L3.97,12.47l-0.031-0.035
				c0.06-0.087,0.092-0.173,0.092-0.263c-0.003-0.101-0.037-0.239-0.105-0.426l-1.41-3.754C2.443,7.806,2.4,7.702,2.364,7.661
				C2.311,7.602,2.244,7.566,2.166,7.566c-0.06,0-0.112,0.019-0.176,0.051L1.958,7.581l1.16-1.034l0.027,0.036
				C3.097,6.668,3.065,6.744,3.065,6.818c0,0.056,0.025,0.11,0.059,0.152C3.166,7.012,3.25,7.054,3.4,7.123l2.813,1.409l0.092,0.047
				L5.192,5.6C5.129,5.417,5.087,5.31,5.048,5.262C4.993,5.206,4.925,5.167,4.856,5.167c-0.065,0-0.125,0.02-0.188,0.057
				L4.635,5.191z M4.525,5.183L4.55,5.214L4.65,5.329l0.03-0.019c0.066-0.045,0.127-0.062,0.177-0.062
				c0.048,0,0.089,0.02,0.13,0.066c0.026,0.021,0.073,0.134,0.131,0.312l1.042,2.789L3.436,7.048
				c-0.15-0.062-0.238-0.115-0.253-0.133c-0.026-0.028-0.038-0.06-0.038-0.097c0-0.058,0.025-0.125,0.088-0.218L3.25,6.577
				L3.23,6.554L3.121,6.438l-1.27,1.139l0.025,0.027l0.099,0.112l0.029-0.014c0.06-0.038,0.116-0.055,0.163-0.055
				c0.051,0,0.092,0.022,0.139,0.068C2.317,7.729,2.374,7.839,2.44,8.02l1.41,3.754c0.066,0.185,0.099,0.322,0.099,0.399
				s-0.027,0.157-0.094,0.242l-0.019,0.028l0.02,0.021l0.105,0.121l1.375-1.228l-0.025-0.029l-0.097-0.112l-0.031,0.015
				c-0.06,0.036-0.117,0.05-0.16,0.05c-0.047,0-0.079-0.013-0.109-0.05c-0.032-0.035-0.073-0.105-0.114-0.208L3.797,8.449
				l2.516,1.243c0.11,0.052,0.18,0.096,0.191,0.116c0.031,0.029,0.039,0.061,0.039,0.098c0,0.045-0.024,0.106-0.081,0.183
				l-0.018,0.022l0.022,0.028l0.103,0.116l1.437-1.28L7.975,8.947L7.876,8.833L7.853,8.849c-0.07,0.036-0.13,0.053-0.18,0.053
				C7.62,8.901,7.584,8.883,7.553,8.847C7.532,8.824,7.498,8.757,7.459,8.649L6.478,6.058l2.412,1.254
				C9.013,7.374,9.094,7.43,9.131,7.469c0.022,0.026,0.028,0.053,0.031,0.089c0,0.046-0.027,0.117-0.089,0.195L9.052,7.782
				l0.021,0.027l0.105,0.115l1.359-1.212L10.511,6.68l-0.099-0.108l-0.025,0.011c-0.098,0.05-0.177,0.07-0.232,0.07
				c-0.008,0-0.02,0-0.029-0.003c-0.06-0.006-0.188-0.056-0.377-0.149L6.178,4.68c-0.17-0.084-0.274-0.153-0.303-0.185
				C5.846,4.462,5.834,4.434,5.833,4.392c0-0.049,0.026-0.115,0.09-0.193l0.022-0.024L5.919,4.148l-0.103-0.12L4.525,5.183"/>
		</g>
		<g id="g3207" transform="matrix(1.25,0,0,-1.25,296.54031,510.81149)">
			<path id="path3209" fill="#2466B1" d="M3.823,5.422l0.054,1.983L2.335,6.149L3.823,5.422z M3.802,4.659L1.735,5.671L1.111,5.182
				C1.027,5.117,0.971,5.055,0.945,5.003C0.901,4.906,0.939,4.801,1.071,4.69L1.015,4.583l-1.501,0.739l0.05,0.103
				C-0.338,5.4-0.252,5.397-0.185,5.422c0.067,0.018,0.161,0.08,0.285,0.18L3.489,8.28c0.107,0.085,0.176,0.163,0.208,0.227
				C3.746,8.611,3.72,8.715,3.614,8.822l0.051,0.106L5.279,8.14L5.223,8.032C5.078,8.06,4.98,8.024,4.936,7.932
				c-0.034-0.065-0.047-0.148-0.047-0.25l0.013-4.358c0-0.186,0.019-0.318,0.046-0.398c0.026-0.082,0.087-0.158,0.173-0.219
				L5.067,2.601L3.392,3.42l0.051,0.108C3.603,3.48,3.709,3.514,3.765,3.627c0.025,0.044,0.034,0.124,0.034,0.24L3.802,4.659"/>
		</g>
		<g id="g3211" transform="matrix(1.25,0,0,-1.25,294.55531,509.77724)">
			<path id="path3213" fill="#2466B1" d="M3.993,5.334l1.376-0.677l0.054,1.839L3.993,5.334z M5.411,4.596l0.015,0.035L5.411,4.596z
				 M3.85,5.315l1.653,1.348L5.451,4.595L5.447,4.533L3.85,5.315z M5.034,2.613l1.602-0.786l0.02,0.04
				C6.581,1.929,6.528,2.004,6.499,2.083c-0.033,0.09-0.045,0.226-0.045,0.413L6.437,6.842c-0.006,0.008,0,0.012,0,0.012
				c0,0.11,0.01,0.197,0.05,0.268c0.039,0.088,0.129,0.131,0.238,0.131c0.029,0,0.06-0.003,0.05-0.032l0.036,0.073L5.272,8.051
				l-0.024-0.05c0.065-0.068,0.098-0.147,0.098-0.223c0-0.04-0.008-0.078-0.023-0.114c-0.04-0.078-0.109-0.156-0.221-0.242
				L1.712,4.746c-0.125-0.103-0.219-0.163-0.297-0.19C1.378,4.544,1.338,4.54,1.298,4.54c-0.037,0-0.083,0.004-0.123,0.016
				L1.151,4.512l1.436-0.703l0.019,0.046C2.524,3.932,2.477,4.011,2.474,4.094c0,0.038,0.009,0.067,0.023,0.1
				c0.03,0.058,0.09,0.122,0.18,0.193L3.338,4.88l2.068-1.012L5.39,3.831h0.039l-0.003-0.79c0-0.12-0.009-0.203-0.038-0.259
				c-0.044-0.091-0.128-0.142-0.23-0.14c-0.032,0-0.067,0.004-0.106,0.013L5.034,2.613z M4.929,2.577L4.943,2.61l0.069,0.136
				l0.025-0.009c0.051-0.012,0.087-0.019,0.12-0.019c0.08,0.004,0.125,0.032,0.163,0.097c0.014,0.036,0.026,0.112,0.026,0.225v0.769
				L3.344,4.813l-0.619-0.49C2.642,4.257,2.592,4.199,2.569,4.159C2.558,4.136,2.554,4.117,2.554,4.094
				c0-0.055,0.038-0.125,0.13-0.199l0.025-0.02L2.695,3.847L2.623,3.703L1.045,4.477l0.019,0.036l0.069,0.134l0.034-0.008
				c0.044-0.011,0.089-0.02,0.132-0.02c0.033,0,0.068,0.005,0.093,0.013c0.06,0.019,0.15,0.077,0.274,0.178l3.386,2.677
				C5.155,7.566,5.218,7.642,5.25,7.698c0.014,0.029,0.02,0.055,0.02,0.081c0,0.06-0.031,0.122-0.098,0.188L5.153,7.99l0.012,0.024
				l0.066,0.142L6.92,7.33L6.905,7.295L6.806,7.168c-0.03,0.003-0.06,0.008-0.081,0.008C6.631,7.171,6.583,7.146,6.554,7.089
				c-0.026-0.054-0.04-0.133-0.04-0.234H6.491l0.023-0.002l0.017-4.356c0-0.183,0.018-0.313,0.043-0.387
				C6.6,2.038,6.649,1.97,6.731,1.913l0.023-0.02L6.741,1.861L6.672,1.719L4.929,2.577"/>
		</g>
		<g id="g3215" transform="matrix(1.25,0,0,-1.25,301.83181,511.38924)">
			<path id="path3217" fill="#2466B1" d="M3.368,5.473L5.04,5.125C5.286,5.073,5.46,5.044,5.567,5.04
				c0.104-0.009,0.204,0,0.297,0.033C6.07,5.132,6.202,5.293,6.257,5.55c0.053,0.262-0.002,0.457-0.166,0.594
				c-0.079,0.067-0.165,0.118-0.26,0.152C5.735,6.33,5.566,6.374,5.312,6.424L3.639,6.777L3.368,5.473z M3.194,4.657l-0.34-1.649
				C2.834,2.939,2.845,2.879,2.87,2.834C2.895,2.784,2.95,2.741,3.03,2.7L3.004,2.585L1.457,2.912l0.025,0.114
				C1.576,3.031,1.639,3.051,1.683,3.08c0.042,0.033,0.073,0.084,0.09,0.157L2.648,7.44c0.017,0.069,0.011,0.135-0.016,0.18
				c-0.023,0.044-0.077,0.088-0.16,0.133l0.023,0.113l3.101-0.648c0.377-0.078,0.674-0.163,0.887-0.253
				c0.212-0.092,0.39-0.205,0.532-0.35c0.165-0.165,0.272-0.37,0.32-0.604C7.383,5.785,7.383,5.553,7.33,5.316
				C7.164,4.509,6.615,4.128,5.687,4.177l0.676-1.572c0.119-0.272,0.208-0.454,0.274-0.538c0.066-0.086,0.155-0.146,0.27-0.174
				L6.878,1.777l-1.79,0.372l0.023,0.117C5.239,2.258,5.312,2.29,5.324,2.358c0.009,0.046-0.028,0.16-0.105,0.353L4.52,4.383
				L3.194,4.657"/>
		</g>
		<g id="g3219" transform="matrix(1.25,0,0,-1.25,304.18143,511.81936)">
			<path id="path3221" fill="#2466B1" d="M3.166,5.509c0.245-0.052,0.421-0.083,0.523-0.09c0.02,0,0.038-0.002,0.059-0.002
				c0.078,0,0.154,0.015,0.223,0.036c0.192,0.056,0.309,0.202,0.367,0.45c0.01,0.057,0.015,0.121,0.015,0.171
				c0,0.166-0.056,0.291-0.169,0.381C4.106,6.522,4.026,6.569,3.94,6.605C3.848,6.637,3.675,6.682,3.421,6.729L1.79,7.072
				L1.533,5.849L3.166,5.509z M3.687,5.344C3.573,5.351,3.397,5.38,3.149,5.432L1.48,5.78l-0.04,0.008l0.286,1.38l1.713-0.36
				c0.252-0.052,0.428-0.096,0.525-0.131c0.099-0.035,0.191-0.089,0.27-0.16c0.131-0.108,0.197-0.26,0.197-0.444
				c0-0.058-0.002-0.12-0.017-0.189C4.357,5.621,4.217,5.442,3.999,5.375C3.918,5.354,3.832,5.344,3.748,5.344
				C3.727,5.344,3.706,5.344,3.687,5.344 M1.311,4.963l0.005,0.038L1.311,4.963z M3.255,2.525L4.97,2.17l0.005,0.039
				C4.877,2.242,4.792,2.304,4.73,2.386c-0.073,0.093-0.163,0.276-0.281,0.55L3.748,4.566l0.06-0.004
				C3.864,4.56,3.913,4.559,3.964,4.559c0.822,0.003,1.289,0.364,1.45,1.112C5.439,5.792,5.45,5.912,5.45,6.028
				c0,0.109-0.008,0.216-0.033,0.32C5.368,6.576,5.266,6.772,5.11,6.934C4.97,7.072,4.799,7.184,4.589,7.274
				c-0.21,0.089-0.5,0.173-0.878,0.254l-3.08,0.645L0.611,8.133c0.086-0.045,0.146-0.094,0.177-0.147
				C0.806,7.944,0.814,7.908,0.814,7.86c0-0.029-0.003-0.056-0.004-0.087l-0.881-4.201c-0.016-0.078-0.05-0.138-0.103-0.18
				c-0.051-0.041-0.125-0.059-0.184-0.031l-0.017-0.078l1.483-0.312l0.023,0.039C1.05,3.054,0.988,3.097,0.953,3.158
				c-0.019,0.036-0.028,0.08-0.028,0.125c0,0.024,0.006,0.054,0.01,0.08l0.344,1.645l0.011,0.036l1.388-0.306l0.698-1.67
				c0.069-0.17,0.109-0.284,0.109-0.351V2.694c-0.023-0.09-0.109-0.125-0.221-0.123L3.255,2.525z M3.159,2.463l0.007,0.039
				L3.232,2.65h0.03c0.103,0.001,0.136,0.025,0.144,0.055v0.012c0.003,0.041-0.034,0.151-0.104,0.321L2.633,4.686L1.35,4.955
				L1.01,3.343c-0.004-0.022-0.007-0.041-0.007-0.06c0-0.035,0.007-0.061,0.019-0.089c0.023-0.034,0.069-0.074,0.166-0.155
				L1.154,2.882l-1.622,0.344l0.007,0.035l0.062,0.149C-0.31,3.413-0.253,3.433-0.22,3.454c0.033,0.026,0.054,0.071,0.073,0.134
				L0.729,7.79C0.732,7.815,0.734,7.842,0.734,7.86c0,0.036-0.005,0.065-0.018,0.084C0.701,7.981,0.652,8.02,0.549,8.105
				l0.038,0.153l3.14-0.655C4.105,7.521,4.4,7.438,4.619,7.351c0.218-0.098,0.4-0.214,0.544-0.364
				c0.17-0.171,0.281-0.38,0.333-0.621c0.021-0.11,0.033-0.223,0.033-0.338c0-0.121-0.014-0.247-0.039-0.373
				c-0.158-0.78-0.684-1.178-1.525-1.173c-0.029,0-0.062,0-0.096,0L4.52,2.967c0.118-0.27,0.211-0.452,0.272-0.532
				c0.058-0.083,0.137-0.131,0.24-0.161L5.07,2.265L5.062,2.229L5.028,2.076L3.159,2.463"/>
		</g>
		<g id="g3223" transform="matrix(1.25,0,0,-1.25,310.15693,512.57524)">
			<path id="path3225" fill="#2466B1" d="M2.653,5.574l1.707,0.069C4.612,5.65,4.79,5.667,4.889,5.686
				c0.108,0.021,0.202,0.054,0.284,0.104C5.358,5.9,5.447,6.085,5.436,6.352C5.423,6.614,5.327,6.796,5.134,6.891
				C5.04,6.933,4.947,6.96,4.843,6.97c-0.099,0.01-0.278,0.01-0.536,0L2.601,6.905L2.653,5.574z M2.685,4.743l0.07-1.682
				c0-0.076,0.023-0.131,0.059-0.171C2.85,2.851,2.915,2.824,3,2.804l0.004-0.123l-1.578-0.06L1.42,2.742
				C1.509,2.772,1.57,2.804,1.604,2.846c0.031,0.039,0.048,0.095,0.043,0.172L1.478,7.304C1.476,7.382,1.456,7.437,1.42,7.477
				C1.384,7.515,1.32,7.546,1.23,7.568L1.227,7.683l3.166,0.126c0.387,0.017,0.693,0.01,0.922-0.03
				c0.225-0.036,0.425-0.104,0.6-0.208c0.2-0.122,0.356-0.291,0.46-0.509C6.473,6.854,6.527,6.629,6.54,6.385
				c0.031-0.823-0.409-1.326-1.32-1.501l1.04-1.362c0.179-0.238,0.311-0.39,0.398-0.458c0.079-0.07,0.182-0.103,0.3-0.107V2.843
				L5.134,2.772L5.127,2.885c0.122,0.027,0.184,0.072,0.184,0.142c0,0.044-0.067,0.148-0.188,0.315L4.038,4.794L2.685,4.743"/>
		</g>
		<g id="g3227" transform="matrix(1.25,0,0,-1.25,312.4768,510.67649)">
			<path id="path3229" fill="#2466B1" d="M2.454,5.411l-1.67-0.024l0.054-1.291l1.665,0.068c0.253,0.011,0.429,0.025,0.528,0.043
				C3.126,4.224,3.218,4.256,3.3,4.304C3.459,4.402,3.539,4.555,3.539,4.79c0,0.01,0,0.028,0,0.04
				c-0.011,0.255-0.108,0.418-0.28,0.503C3.17,5.375,3.077,5.404,2.984,5.411c-0.047,0.007-0.115,0.01-0.202,0.01
				C2.688,5.421,2.582,5.418,2.454,5.411 M0.797,4.055H0.758L0.743,5.423l1.705,0.07C2.579,5.5,2.688,5.5,2.783,5.5
				c0.087,0,0.156-0.003,0.208-0.006c0.103-0.011,0.208-0.042,0.302-0.089C3.498,5.306,3.609,5.108,3.62,4.83V4.79
				c0-0.251-0.095-0.443-0.282-0.552c-0.087-0.055-0.187-0.093-0.294-0.11C2.937,4.111,2.758,4.096,2.509,4.083L0.797,4.019V4.055z
				 M3.413,1.51V1.508V1.51 M-0.433,1.142l1.544,0.022l0.025,0.082C1.044,1.263,0.979,1.295,0.932,1.344
				c-0.05,0.05-0.073,0.117-0.076,0.198L0.793,3.221l0.037,0.003v0.04l1.383,0.033l1.082-1.447C3.413,1.695,3.472,1.6,3.475,1.506
				h0.017c0-0.099-0.086-0.154-0.179-0.139L3.274,1.288l1.789,0.034l0.038,0.079c-0.129,0.004-0.235,0.04-0.328,0.111
				C4.687,1.588,4.556,1.742,4.368,1.98L3.293,3.389L3.356,3.4c0.868,0.176,1.283,0.624,1.288,1.384c0,0.026,0,0.054-0.005,0.082
				c-0.01,0.237-0.06,0.461-0.159,0.662c-0.1,0.211-0.251,0.37-0.44,0.489c-0.168,0.101-0.366,0.17-0.585,0.205
				C3.293,6.247,3.093,6.26,2.855,6.26c-0.099,0-0.204-0.006-0.316-0.008l-3.131-0.085l-0.023-0.082
				c0.093-0.021,0.158-0.054,0.209-0.096C-0.364,5.939-0.34,5.87-0.34,5.787l0.171-4.293V1.482c0-0.071-0.015-0.134-0.054-0.182
				c-0.039-0.047-0.108-0.087-0.175-0.077L-0.433,1.142z M-0.448,1.26c0.084,0.028,0.14,0.062,0.162,0.09
				c0.028,0.028,0.041,0.071,0.041,0.132c0,0.002-0.003,0.01,0,0.015l-0.171,4.287c-0.002,0.071-0.021,0.119-0.046,0.145
				c-0.029,0.033-0.088,0.062-0.2,0.118l0.034,0.157l3.166,0.129c0.11,0.004,0.219,0.005,0.318,0.005c0.238,0,0.44-0.01,0.606-0.035
				c0.235-0.037,0.437-0.108,0.618-0.219c0.207-0.122,0.364-0.3,0.476-0.521c0.099-0.215,0.153-0.447,0.163-0.696
				C4.721,4.839,4.721,4.81,4.721,4.784c0.003-0.773-0.438-1.268-1.293-1.446l1.002-1.31c0.183-0.238,0.319-0.389,0.393-0.449
				c0.077-0.065,0.165-0.096,0.316-0.136L5.104,1.281L3.235,1.248l0.024,0.157c0.121,0.025,0.153,0.062,0.153,0.1
				c0.004,0,0.004,0.003,0,0.005c0,0.025-0.06,0.132-0.177,0.291L2.182,3.234l-1.31-0.052l0.062-1.639
				c0.004-0.069,0.023-0.115,0.054-0.146c0.027-0.031,0.078-0.059,0.195-0.109L1.154,1.124l-1.626-0.022L-0.448,1.26"/>
		</g>
		<g id="g3231" transform="matrix(1.25,0,0,-1.25,317.74005,515.35886)">
			<path id="path3233" fill="#2466B1" d="M2.002,5.813l-0.923,4.19c-0.017,0.072-0.046,0.125-0.088,0.153
				c-0.04,0.032-0.109,0.052-0.205,0.056l-0.021,0.117l1.543,0.34l0.027-0.114c-0.082-0.042-0.138-0.086-0.164-0.133
				c-0.024-0.05-0.026-0.109-0.011-0.183l0.926-4.187c0.012-0.078,0.046-0.128,0.091-0.162c0.042-0.034,0.11-0.05,0.197-0.054
				l0.027-0.116l-1.546-0.34L1.829,5.498c0.082,0.039,0.138,0.088,0.164,0.135C2.016,5.679,2.022,5.738,2.002,5.813"/>
		</g>
		<g id="g3235" transform="matrix(1.25,0,0,-1.25,317.80743,515.47299)">
			<path id="path3237" fill="#2466B1" d="M1.996,5.823c0-0.044-0.007-0.085-0.025-0.118C1.938,5.647,1.88,5.597,1.816,5.597
				l0.015-0.076l1.482,0.327L3.319,5.89c-0.094,0.004-0.168,0.02-0.222,0.058c-0.055,0.04-0.091,0.107-0.106,0.185l-0.921,4.19
				c-0.01,0.033-0.016,0.065-0.016,0.089c0,0.044,0.012,0.086,0.028,0.12c0.033,0.06,0.094,0.104,0.16,0.104l-0.019,0.075
				l-1.481-0.323l-0.005-0.044c0.098-0.006,0.173-0.021,0.222-0.063c0.055-0.041,0.088-0.101,0.104-0.173l0.924-4.194l-0.04-0.01
				l0.04,0.01C1.994,5.883,1.996,5.852,1.996,5.823 M1.762,5.462L1.757,5.625c0.079,0.038,0.125,0.083,0.146,0.116
				c0.011,0.023,0.016,0.051,0.016,0.082c0,0.021-0.003,0.049-0.005,0.072l-0.927,4.195c-0.013,0.064-0.041,0.106-0.071,0.128
				c-0.035,0.023-0.093,0.043-0.22,0.078l-0.031,0.157l1.621,0.357l0.01-0.038l0.001-0.161c-0.074-0.038-0.122-0.082-0.143-0.117
				c-0.013-0.021-0.017-0.05-0.017-0.081c0-0.019,0.002-0.044,0.007-0.069l0.926-4.192C3.085,6.083,3.11,6.039,3.146,6.016
				c0.033-0.027,0.092-0.046,0.213-0.079l0.037-0.153L1.773,5.425L1.762,5.462"/>
		</g>
		<g id="g3239" transform="matrix(1.25,0,0,-1.25,322.74581,508.11511)">
			<path id="path3241" fill="#2466B1" d="M1.572,5.191C1.125,5.003,0.812,4.712,0.63,4.322C0.413,3.86,0.413,3.375,0.623,2.87
				c0.218-0.505,0.565-0.835,1.051-0.998c0.408-0.136,0.835-0.108,1.284,0.084c0.45,0.188,0.768,0.477,0.947,0.869
				c0.108,0.232,0.162,0.482,0.156,0.749C4.059,3.809,4.01,4.036,3.918,4.255C3.694,4.78,3.342,5.119,2.863,5.276
				C2.448,5.404,2.024,5.379,1.572,5.191 M1.231,5.982c0.81,0.346,1.548,0.401,2.217,0.167C4.144,5.902,4.65,5.418,4.961,4.689
				c0.192-0.448,0.246-0.915,0.17-1.409c-0.15-0.956-0.764-1.664-1.836-2.122C2.49,0.815,1.751,0.766,1.091,0.999
				C0.733,1.123,0.422,1.323,0.153,1.591c-0.242,0.245-0.428,0.524-0.567,0.842C-0.613,2.898-0.675,3.375-0.6,3.867
				C-0.458,4.799,0.153,5.506,1.231,5.982"/>
		</g>
		<g id="g3243" transform="matrix(1.25,0,0,-1.25,321.47255,509.35762)">
			<path id="path3245" fill="#2466B1" d="M1.681,5.298C1.572,5.073,1.524,4.84,1.524,4.603c0-0.233,0.048-0.472,0.155-0.724
				c0.21-0.493,0.554-0.815,1.023-0.976c0.17-0.057,0.339-0.085,0.512-0.085c0.241,0,0.488,0.059,0.749,0.166
				c0.442,0.189,0.749,0.472,0.924,0.852c0.106,0.22,0.154,0.455,0.154,0.711V4.57C5.039,4.8,4.994,5.021,4.898,5.233
				C4.675,5.75,4.336,6.078,3.87,6.23C3.701,6.284,3.532,6.31,3.364,6.31c-0.248,0-0.502-0.054-0.761-0.161
				C2.168,5.96,1.862,5.68,1.681,5.298 M2.679,2.831C2.185,2.994,1.825,3.337,1.606,3.849C1.495,4.105,1.443,4.356,1.443,4.603
				c0,0.25,0.056,0.492,0.171,0.73C1.799,5.73,2.121,6.03,2.57,6.223l0.019-0.037L2.57,6.223c0.268,0.114,0.534,0.167,0.794,0.167
				c0.175,0,0.354-0.029,0.525-0.083c0.493-0.157,0.855-0.508,1.084-1.042c0.094-0.221,0.144-0.452,0.147-0.706v-0.01
				c0-0.265-0.052-0.517-0.158-0.744c-0.183-0.4-0.508-0.699-0.964-0.892c-0.269-0.113-0.53-0.17-0.782-0.17
				C3.031,2.742,2.851,2.773,2.679,2.831 M2.267,6.94c-1.073-0.476-1.67-1.166-1.807-2.085C0.434,4.727,0.426,4.592,0.426,4.467
				c0-0.351,0.072-0.69,0.214-1.025C0.774,3.13,0.958,2.851,1.198,2.614c0.268-0.263,0.576-0.461,0.924-0.58
				c0.265-0.095,0.544-0.143,0.836-0.143c0.42,0,0.868,0.099,1.339,0.299c1.07,0.457,1.666,1.151,1.811,2.094
				C6.131,4.426,6.14,4.563,6.14,4.698c0,0.335-0.065,0.658-0.197,0.97C5.636,6.388,5.139,6.86,4.448,7.104
				c-0.266,0.097-0.54,0.144-0.829,0.144c-0.425,0-0.875-0.105-1.352-0.304V6.94z M2.097,1.957c-0.361,0.125-0.68,0.328-0.956,0.604
				C0.9,2.804,0.706,3.087,0.568,3.409C0.423,3.755,0.347,4.105,0.347,4.467c0,0.13,0.011,0.263,0.034,0.399
				c0.14,0.948,0.765,1.667,1.852,2.147C2.72,7.222,3.183,7.326,3.619,7.326c0.297,0,0.586-0.048,0.854-0.146
				C5.184,6.932,5.701,6.434,6.016,5.7c0.133-0.322,0.206-0.656,0.206-1.002c0-0.139-0.013-0.279-0.034-0.426
				C6.038,3.301,5.414,2.58,4.331,2.119C3.845,1.912,3.387,1.808,2.957,1.808C2.656,1.808,2.369,1.859,2.097,1.957"/>
		</g>
		<g id="g3247" transform="matrix(1.25,0,0,-1.25,329.29168,506.78086)">
			<path id="path3249" fill="#2466B1" d="M1.01,5.077l1.349,1.041c0.203,0.154,0.338,0.269,0.412,0.345
				C2.842,6.54,2.901,6.621,2.939,6.713C3.026,6.908,2.987,7.11,2.828,7.321C2.665,7.53,2.479,7.617,2.268,7.583
				c-0.101-0.015-0.196-0.049-0.285-0.1C1.899,7.43,1.753,7.328,1.548,7.17l-1.35-1.041L1.01,5.077z M1.516,4.416l1.031-1.334
				C2.587,3.027,2.641,2.99,2.691,2.98c0.055-0.011,0.121,0.002,0.205,0.037l0.072-0.094L1.716,1.958l-0.073,0.09
				C1.698,2.128,1.728,2.189,1.73,2.241c0.007,0.052-0.018,0.108-0.06,0.17l-2.624,3.393c-0.044,0.062-0.094,0.098-0.146,0.11
				c-0.053,0.004-0.123-0.005-0.206-0.037l-0.073,0.092l2.51,1.936c0.309,0.237,0.566,0.407,0.768,0.51
				c0.208,0.101,0.41,0.162,0.612,0.175c0.235,0.016,0.457-0.032,0.666-0.146c0.202-0.111,0.38-0.267,0.53-0.457
				c0.5-0.656,0.435-1.321-0.209-1.991l1.637-0.509c0.287-0.084,0.482-0.135,0.588-0.142C5.829,5.341,5.933,5.37,6.028,5.434
				L6.1,5.341l-1.447-1.12L4.582,4.318C4.67,4.407,4.691,4.483,4.649,4.537C4.622,4.575,4.507,4.623,4.312,4.685L2.586,5.241
				L1.516,4.416"/>
		</g>
		<g id="g3251" transform="matrix(1.25,0,0,-1.25,331.05855,503.32849)">
			<path id="path3253" fill="#2466B1" d="M0.858,4.78C0.766,4.766,0.675,4.738,0.594,4.689C0.508,4.639,0.358,4.535,0.16,4.378
				l-1.322-1.014L-0.4,2.373L0.924,3.39c0.199,0.151,0.333,0.267,0.402,0.342C1.398,3.803,1.45,3.882,1.49,3.968
				C1.513,4.032,1.53,4.093,1.53,4.16c0,0.117-0.047,0.243-0.147,0.374c-0.136,0.171-0.28,0.253-0.447,0.253
				C0.914,4.788,0.886,4.788,0.858,4.78 M-0.405,2.317l0.029,0.021L-0.405,2.317z M-1.273,3.374l1.381,1.071
				c0.206,0.153,0.353,0.261,0.441,0.31c0.093,0.057,0.194,0.089,0.298,0.102c0.033,0.01,0.064,0.012,0.089,0.012
				c0.196,0,0.364-0.096,0.509-0.286C1.551,4.441,1.611,4.301,1.611,4.16c0-0.081-0.016-0.156-0.049-0.226
				C1.519,3.839,1.459,3.751,1.384,3.673C1.308,3.598,1.172,3.48,0.97,3.326l-1.351-1.044l-0.035-0.023L-1.273,3.374z M0.311-0.746
				l1.191,0.916L1.47,0.21C1.41,0.188,1.362,0.178,1.315,0.178c-0.013,0-0.026,0-0.045,0.004c-0.065,0.01-0.118,0.051-0.166,0.115
				L0.075,1.631L0.047,1.664l1.14,0.852l1.725-0.552c0.198-0.068,0.307-0.11,0.352-0.163c0.021-0.025,0.03-0.053,0.03-0.083
				c0-0.055-0.03-0.108-0.076-0.164l0.026-0.038l1.387,1.068L4.603,2.619C4.519,2.574,4.428,2.548,4.337,2.548
				c-0.007,0-0.017-0.001-0.029,0c-0.114,0.005-0.308,0.051-0.6,0.142L2.012,3.218l0.044,0.043C2.41,3.637,2.583,3.998,2.583,4.354
				c0,0.281-0.107,0.561-0.323,0.843c-0.149,0.19-0.323,0.341-0.509,0.451C1.568,5.749,1.384,5.793,1.187,5.793
				c-0.029,0-0.054,0-0.083,0c-0.2-0.019-0.395-0.074-0.598-0.179C0.299,5.516,0.047,5.351-0.26,5.114L-2.736,3.2l0.029-0.038
				C-2.648,3.185-2.6,3.193-2.552,3.193c0.017,0,0.032-0.003,0.045-0.004c0.068-0.012,0.121-0.056,0.175-0.121l2.62-3.398
				c0.043-0.057,0.07-0.12,0.07-0.182v-0.009C0.356-0.584,0.324-0.641,0.279-0.711L0.311-0.746z M0.272-0.833L0.181-0.712
				l0.015,0.026c0.056,0.071,0.079,0.13,0.083,0.166v0.007c0,0.038-0.016,0.086-0.058,0.135l-2.615,3.397
				c-0.045,0.058-0.09,0.088-0.129,0.095c-0.008,0-0.016,0.003-0.029,0.003c-0.04,0-0.093-0.01-0.155-0.038l-0.028-0.011
				L-2.75,3.089l-0.096,0.124l2.541,1.961c0.307,0.237,0.562,0.409,0.774,0.513c0.211,0.106,0.421,0.169,0.625,0.181
				c0.031,0.002,0.064,0.002,0.093,0.002c0.208,0.002,0.408-0.049,0.596-0.154c0.205-0.116,0.389-0.272,0.539-0.469
				c0.224-0.29,0.339-0.592,0.339-0.895c0-0.367-0.17-0.736-0.503-1.098l1.576-0.492C4.018,2.679,4.214,2.632,4.31,2.625h0.027
				c0.091,0,0.176,0.024,0.254,0.08l0.036,0.019l0.021-0.026l0.099-0.124L3.231,1.406l-0.023,0.03L3.114,1.561l0.022,0.023
				c0.057,0.057,0.083,0.104,0.083,0.134c0,0.011-0.01,0.021-0.013,0.032c-0.01,0.017-0.124,0.077-0.316,0.135l-1.69,0.564
				L0.16,1.646l1.002-1.3c0.043-0.055,0.082-0.08,0.126-0.091C1.29,0.254,1.301,0.254,1.314,0.254c0.039,0,0.092,0.012,0.154,0.037
				l0.028,0.014l0.018-0.026l0.098-0.126L0.297-0.861L0.272-0.833"/>
		</g>
		<g id="g3255" transform="matrix(1.25,0,0,-1.25,336.47155,496.12749)">
			<path id="path3257" fill="#2466B1" d="M0.393,4.161l0.543-1.224L0.827,2.894C0.806,2.912,0.793,2.926,0.786,2.935
				C0.719,2.988,0.602,2.989,0.435,2.938c-0.516-0.147-0.96-0.454-1.333-0.913C-1.063,1.817-1.184,1.62-1.256,1.423
				c-0.06-0.145-0.073-0.286-0.055-0.419c0.021-0.13,0.074-0.234,0.168-0.305c0.148-0.123,0.318-0.11,0.518,0.023
				c0.101,0.07,0.298,0.247,0.568,0.526l0.416,0.417c0.246,0.245,0.46,0.429,0.643,0.555C1.188,2.344,1.376,2.437,1.569,2.49
				c0.204,0.055,0.412,0.057,0.628,0.008c0.216-0.044,0.408-0.142,0.582-0.283C3.06,1.994,3.23,1.703,3.304,1.348
				c0.063-0.319,0.004-0.686-0.179-1.104c-0.134-0.313-0.32-0.61-0.555-0.901C2.151-1.179,1.609-1.591,0.948-1.9
				c-0.14-0.064-0.216-0.112-0.233-0.129c-0.019-0.028-0.031-0.085-0.031-0.17L0.573-2.252l-0.621,1.209l0.106,0.053
				C0.075-1.002,0.09-1.013,0.095-1.02c0.089-0.072,0.204-0.092,0.343-0.072c0.214,0.038,0.463,0.153,0.757,0.353
				C1.489-0.545,1.73-0.335,1.919-0.098C2.123,0.16,2.259,0.413,2.32,0.666c0.033,0.139,0.037,0.268,0.002,0.392
				C2.289,1.18,2.231,1.277,2.145,1.348C2.014,1.453,1.863,1.457,1.698,1.365C1.577,1.299,1.38,1.131,1.107,0.854L0.701,0.449
				C0.427,0.179,0.231-0.009,0.106-0.113c-0.131-0.099-0.274-0.186-0.434-0.261c-0.231-0.105-0.474-0.138-0.729-0.094
				C-1.284-0.434-1.5-0.335-1.703-0.171c-0.333,0.269-0.516,0.607-0.545,1.014C-2.291,1.376-2.07,1.94-1.584,2.543
				c0.203,0.25,0.416,0.462,0.643,0.637c0.231,0.18,0.541,0.374,0.945,0.587c0.13,0.078,0.209,0.126,0.227,0.152
				c0.033,0.039,0.052,0.107,0.052,0.194L0.393,4.161"/>
		</g>
		<g id="g3259" transform="matrix(1.25,0,0,-1.25,335.92693,503.43812)">
			<path id="path3261" fill="#2466B1" d="M0.44,4.789l0.59-1.148l0.05,0.007C1.082,3.74,1.09,3.8,1.123,3.845
				c0.028,0.034,0.098,0.071,0.244,0.138c0.656,0.308,1.19,0.715,1.609,1.232C3.209,5.503,3.394,5.8,3.526,6.107
				C3.658,6.412,3.72,6.688,3.72,6.937c0,0.087-0.004,0.171-0.021,0.255C3.626,7.534,3.46,7.815,3.192,8.035
				C3.021,8.171,2.83,8.261,2.62,8.311C2.521,8.332,2.424,8.345,2.332,8.345c-0.107,0-0.213-0.015-0.313-0.043
				c-0.188-0.056-0.38-0.147-0.558-0.268c-0.183-0.124-0.4-0.309-0.643-0.554l-0.41-0.415c-0.279-0.278-0.466-0.454-0.575-0.53
				c-0.111-0.073-0.215-0.112-0.318-0.112c-0.089,0-0.175,0.029-0.248,0.093c-0.101,0.078-0.162,0.192-0.18,0.332
				c-0.009,0.04-0.011,0.076-0.011,0.116c0,0.101,0.022,0.212,0.063,0.319c0.076,0.199,0.201,0.405,0.367,0.612
				c0.379,0.467,0.829,0.777,1.355,0.927c0.08,0.027,0.152,0.039,0.218,0.039C1.146,8.864,1.2,8.85,1.243,8.814
				c0.016-0.01,0.029-0.026,0.003-0.033l0.075,0.03L0.803,9.968L0.756,9.961c0-0.091-0.015-0.165-0.056-0.221
				C0.667,9.704,0.593,9.662,0.456,9.582C0.055,9.367-0.255,9.173-0.482,9.004c-0.219-0.181-0.433-0.387-0.638-0.64
				C-1.563,7.82-1.782,7.305-1.782,6.821c0-0.036,0.004-0.084,0.007-0.125c0.034-0.4,0.211-0.72,0.536-0.986
				c0.194-0.161,0.404-0.254,0.626-0.292c0.067-0.009,0.138-0.014,0.203-0.014c0.173,0,0.339,0.037,0.498,0.109
				c0.16,0.072,0.301,0.159,0.428,0.259C0.637,5.868,0.838,6.054,1.11,6.325l0.407,0.409c0.272,0.272,0.47,0.443,0.595,0.513
				C2.195,7.295,2.28,7.32,2.363,7.32C2.45,7.322,2.532,7.289,2.605,7.227c0.093-0.074,0.159-0.18,0.192-0.312
				c0.014-0.063,0.02-0.126,0.02-0.193c0-0.069-0.005-0.141-0.023-0.218C2.734,6.243,2.596,5.986,2.389,5.727
				C2.192,5.486,1.946,5.272,1.653,5.076C1.358,4.875,1.101,4.757,0.88,4.72C0.841,4.715,0.806,4.711,0.773,4.711
				c-0.106,0-0.193,0.029-0.265,0.085C0.502,4.802,0.492,4.813,0.507,4.82L0.44,4.789z M0.334,4.828L0.37,4.843l0.151,0.051
				c0.014-0.019,0.029-0.028,0.038-0.032c0.059-0.049,0.125-0.072,0.214-0.072c0.029,0,0.062,0.006,0.096,0.007
				C1.07,4.831,1.318,4.944,1.607,5.141c0.289,0.192,0.53,0.402,0.72,0.635c0.2,0.253,0.332,0.501,0.391,0.746
				c0.016,0.07,0.023,0.136,0.023,0.201c0,0.063-0.006,0.12-0.019,0.177c-0.03,0.117-0.088,0.202-0.165,0.267
				C2.491,7.217,2.43,7.241,2.363,7.241c-0.065,0-0.137-0.018-0.21-0.062c-0.11-0.063-0.311-0.232-0.578-0.503L1.164,6.27
				C0.892,5.994,0.693,5.811,0.566,5.707C0.435,5.605,0.288,5.513,0.121,5.442C-0.05,5.361-0.224,5.324-0.41,5.324
				c-0.074,0-0.144,0.006-0.213,0.016C-0.86,5.379-1.084,5.481-1.29,5.649c-0.342,0.274-0.532,0.624-0.563,1.039
				c-0.002,0.045-0.008,0.091-0.008,0.133c0,0.508,0.23,1.039,0.68,1.594c0.206,0.254,0.423,0.472,0.653,0.647
				c0.232,0.178,0.544,0.373,0.95,0.591c0.13,0.072,0.212,0.127,0.216,0.139C0.663,9.82,0.677,9.875,0.7,10l0.112,0.045l0.036,0.015
				L1.423,8.77L1.388,8.753L1.236,8.711C1.212,8.735,1.204,8.745,1.195,8.753C1.169,8.772,1.132,8.785,1.08,8.785
				c-0.056,0-0.123-0.011-0.194-0.034C0.376,8.601-0.063,8.303-0.43,7.845c-0.164-0.198-0.284-0.397-0.362-0.589
				c-0.033-0.102-0.054-0.201-0.054-0.291c0-0.037,0.003-0.071,0.01-0.105c0.018-0.125,0.071-0.213,0.148-0.279
				c0.066-0.053,0.133-0.077,0.203-0.077c0.078,0,0.171,0.032,0.27,0.099c0.101,0.067,0.291,0.239,0.562,0.522l0.415,0.414
				C1.008,7.786,1.228,7.971,1.415,8.1c0.191,0.128,0.383,0.221,0.581,0.281c0.11,0.028,0.221,0.043,0.336,0.043
				c0.102,0,0.202-0.01,0.306-0.034c0.221-0.048,0.422-0.15,0.6-0.294c0.287-0.23,0.464-0.529,0.535-0.887
				C3.794,7.121,3.8,7.029,3.8,6.937c0-0.266-0.068-0.548-0.202-0.862C3.463,5.764,3.277,5.459,3.037,5.166
				C2.613,4.641,2.065,4.222,1.399,3.914C1.264,3.848,1.182,3.797,1.18,3.794c-0.01-0.006-0.02-0.063-0.044-0.183L0.988,3.547
				L0.334,4.828"/>
		</g>
		<g id="g3263" transform="matrix(1.25,0,0,-1.25,339.27543,479.16411)">
			<path id="path3265" fill="#2466B1" d="M0.153,2.704c0-11.217-9.091-20.311-20.31-20.311c-11.221,0-20.312,9.095-20.312,20.311
				s9.091,20.314,20.312,20.314C-8.939,23.018,0.153,13.921,0.153,2.704"/>
		</g>
		<g id="g3267" transform="matrix(1.25,0,0,-1.25,310.82255,502.77949)">
			<path id="path3269" fill="#F9BF1A" d="M2.596,4.733c-9.67,0-17.509,7.839-17.509,17.511c0,9.671,7.839,17.512,17.509,17.512
				c9.672,0,17.51-7.842,17.51-17.512C20.106,12.572,12.268,4.733,2.596,4.733 M2.594,40.926c-10.321,0-18.688-8.363-18.688-18.687
				c0-10.322,8.368-18.687,18.688-18.687c10.322,0,18.689,8.365,18.689,18.687C21.283,32.563,12.916,40.926,2.594,40.926"/>
		</g>
		<g id="g3271" transform="matrix(1.25,0,0,-1.25,296.43518,465.86611)">
			<path id="path3273" fill="#F9BF1A" d="M3.832,1.562c0,0,10.411-13.912,26.969-17.078l-2.987-0.857
				c0,0-10.348,2.395-23.902,17.527"/>
		</g>
		<g id="g3275" transform="matrix(1.25,0,0,-1.25,289.55893,493.29811)">
			<path id="path3277" fill="#F9BF1A" d="M4.422,3.919c0,0,13.472,2.22,28.323,1.858l2.975,0.638L34.114,2.91
				c0,0-15.671,0.537-27.278-0.68C4.769,2.514,5.04,3.272,5.04,3.272L4.422,3.919"/>
		</g>
		<g id="g3279" transform="matrix(1.25,0,0,-1.25,292.35243,495.97162)">
			<path id="path3281" fill="#F9BF1A" d="M4.182,4.148c0,0,17.56,0.765,26.472-0.418c0.236-0.031,0.723,0.802,0.723,0.802
				S24.91,5.425,5.111,4.735C1.9,4.623,4.182,4.148,4.182,4.148"/>
		</g>
		<g id="g3283" transform="matrix(1.25,0,0,-1.25,295.2408,467.97112)">
			<path id="path3285" fill="#F9BF1A" d="M3.934,1.743C0.731-5.843-3.051-8.87-3.051-8.87l0.218-1.529c0,0,4.171,5.408,6.768,11.453
				C5.369,4.391,3.934,1.743,3.934,1.743"/>
		</g>
		<g id="g3287" transform="matrix(1.25,0,0,-1.25,295.63756,465.05449)">
			<path id="path3289" fill="#F9BF1A" d="M3.9,1.492L3.448,1.381c0,0-0.442-21.637-0.155-24.046c0.027-0.214,1.076-0.02,1.076-0.02
				s0.358-1.467,1.048-0.857C4.811-15.873,4.665,1.94,4.665,1.94H3.912L3.9,1.492"/>
		</g>
		<g id="g3291" transform="matrix(1.25,0,0,-1.25,297.09631,465.59424)">
			<path id="path3293" fill="#F9BF1A" d="M3.775,1.539l0.509,0.44l0.543-0.245c0,0,0.543-20.395,1.52-26.114l-0.529,0.041
				c0,0-1.062,0.062-1.135,0.73C4.256-19.79,3.775,1.539,3.775,1.539"/>
		</g>
		<g id="g3295" transform="matrix(1.25,0,0,-1.25,293.05531,493.92261)">
			<path id="path3297" fill="#F9BF1A" d="M4.122,3.972L3.755,4.036l1.509,8.512l0.365-0.065L4.122,3.972z"/>
		</g>
		<g id="g3299" transform="matrix(1.25,0,0,-1.25,291.17468,493.69637)">
			<path id="path3301" fill="#F9BF1A" d="M4.283,3.952L3.922,4.02l3.041,17.155l0.367-0.062L4.283,3.952z"/>
		</g>
		<g id="g3303" transform="matrix(1.25,0,0,-1.25,289.65543,492.12261)">
			<path id="path3305" fill="#F9BF1A" d="M4.414,3.817L4.133,4.18l2.106,12.034l0.521,0.819L4.414,3.817z"/>
		</g>
		<g id="g3307" transform="matrix(1.25,0,0,-1.25,302.03218,492.61112)">
			<path id="path3309" fill="#F9BF1A" d="M3.351,3.859l0.352,0.11L0.339,14.662l0.289-2.239L3.351,3.859z"/>
		</g>
		<g id="g3311" transform="matrix(1.25,0,0,-1.25,303.86156,492.14887)">
			<path id="path3313" fill="#F9BF1A" d="M3.194,3.82l0.353,0.11l-4.543,14.614l0.031-1.47L3.194,3.82z"/>
		</g>
		<g id="g3315" transform="matrix(1.25,0,0,-1.25,305.98943,491.75949)">
			<path id="path3317" fill="#F9BF1A" d="M3.011,3.786l0.353,0.109l-4.912,15.68l-0.607,0.64L3.011,3.786z"/>
		</g>
		<g id="g3319" transform="matrix(1.25,0,0,-1.25,301.75593,471.93237)">
			<path id="path3321" fill="#F9BF1A" d="M3.374,2.083l4.502-14.122l0.353,0.114L4.014,1.476L3.791,1.699"/>
		</g>
		<g id="g3323" transform="matrix(1.25,0,0,-1.25,304.86143,474.86824)">
			<path id="path3325" fill="#F9BF1A" d="M3.108,2.335L6.923-9.698l0.354,0.111L3.661,1.859L3.165,2.335"/>
		</g>
		<g id="g3327" transform="matrix(1.25,0,0,-1.25,312.14043,491.36562)">
			<path id="path3329" fill="#F9BF1A" d="M2.483,3.752l0.354,0.111l-3.037,9.517l-0.494,0.381L2.483,3.752z"/>
		</g>
		<g id="g3331" transform="matrix(1.25,0,0,-1.25,314.3393,491.27037)">
			<path id="path3333" fill="#F9BF1A" d="M2.294,3.744l0.354,0.112l-2.437,7.714l-0.57,0.514L2.294,3.744z"/>
		</g>
		<g id="g3335" transform="matrix(1.25,0,0,-1.25,313.37205,481.69837)">
			<path id="path3337" fill="#F9BF1A" d="M2.377,2.922l2.172-6.797l0.353,0.11L2.931,2.503L2.587,2.702"/>
		</g>
		<g id="g3339" transform="matrix(1.25,0,0,-1.25,316.22718,483.85949)">
			<path id="path3341" fill="#F9BF1A" d="M2.132,3.107l1.663-5.264l0.351,0.11L2.608,2.802L2.185,2.933"/>
		</g>
		<g id="g3343" transform="matrix(1.25,0,0,-1.25,321.53843,493.74011)">
			<path id="path3345" fill="#F9BF1A" d="M1.676,3.956l0.354,0.11L0.367,9.445l-0.621,0.743L1.676,3.956z"/>
		</g>
		<g id="g3347" transform="matrix(1.25,0,0,-1.25,321.41005,486.60049)">
			<path id="path3349" fill="#F9BF1A" d="M1.687,3.343l1.476-4.714l0.353,0.114l-1.267,4.05L1.687,3.343z"/>
		</g>
		<g id="g3351" transform="matrix(1.25,0,0,-1.25,324.06468,488.23286)">
			<path id="path3353" fill="#F9BF1A" d="M1.459,3.483l1.08-3.403l0.356,0.111L1.992,3.023L1.459,3.483z"/>
		</g>
		<g id="g3355" transform="matrix(1.25,0,0,-1.25,287.13143,487.46049)">
			<path id="path3357" fill="#F9BF1A" d="M4.631,3.417L4.192,3.761l1.14,4.45l0.364-0.042L4.631,3.417z"/>
		</g>
		<g id="g3359" transform="matrix(1.25,0,0,-1.25,288.49305,489.21049)">
			<path id="path3361" fill="#F9BF1A" d="M4.514,3.567L4.232,3.932l1.312,7.441l0.473,0.685L4.514,3.567z"/>
		</g>
		<g id="g3363" transform="matrix(1.25,0,0,-1.25,284.94493,458.84499)">
			<path id="path3365" fill="#2466B1" d="M4.819,0.959L4.723,0.885c-0.014,0.021-0.032,0.037-0.05,0.051
				c-0.046,0.035-0.11,0.036-0.19,0.006c-0.079-0.03-0.166-0.081-0.256-0.15C4.136,0.723,4.046,0.64,3.956,0.546
				C3.867,0.449,3.789,0.356,3.72,0.262c-0.085-0.115-0.153-0.243-0.202-0.38C3.467-0.256,3.443-0.394,3.447-0.533
				c0.004-0.139,0.04-0.276,0.109-0.41c0.069-0.135,0.183-0.259,0.339-0.373c0.153-0.112,0.303-0.181,0.455-0.207
				c0.149-0.027,0.292-0.02,0.426,0.017c0.134,0.039,0.259,0.103,0.374,0.194c0.116,0.09,0.216,0.192,0.301,0.308
				C5.58-0.828,5.683-0.658,5.757-0.493C5.83-0.33,5.887-0.185,5.926-0.059L5.524,0.234l-0.439-0.6
				C5.053-0.408,5.039-0.449,5.043-0.484c0.002-0.035,0.032-0.078,0.09-0.13L5.07-0.699L4.472-0.26l0.061,0.083
				c0.059-0.031,0.102-0.042,0.131-0.03c0.03,0.012,0.062,0.038,0.093,0.083l0.856,1.168l0.084-0.062
				C5.662,0.913,5.644,0.866,5.646,0.841c0-0.024,0.02-0.051,0.061-0.082l0.528-0.386C6.267,0.35,6.295,0.344,6.318,0.357
				c0.023,0.012,0.05,0.025,0.079,0.041l0.076-0.054C6.469,0.189,6.45,0.036,6.413-0.112C6.376-0.259,6.329-0.402,6.27-0.538
				C6.21-0.675,6.142-0.804,6.062-0.924c-0.081-0.122-0.16-0.239-0.243-0.351C5.66-1.494,5.487-1.673,5.301-1.813
				c-0.186-0.139-0.379-0.233-0.58-0.282c-0.201-0.048-0.405-0.052-0.61-0.009C3.904-2.061,3.704-1.968,3.508-1.824
				C3.311-1.68,3.161-1.517,3.058-1.333C2.955-1.15,2.897-0.955,2.881-0.749C2.865-0.54,2.894-0.324,2.967-0.103
				c0.073,0.22,0.191,0.441,0.351,0.659c0.1,0.138,0.206,0.261,0.315,0.373c0.11,0.111,0.212,0.205,0.306,0.286
				c0.094,0.079,0.175,0.143,0.242,0.192C4.248,1.455,4.288,1.488,4.3,1.503c0.02,0.029,0.028,0.055,0.027,0.08
				c-0.001,0.025,0,0.05,0.003,0.072l0.073,0.032L4.819,0.959"/>
		</g>
		<g id="g3367" transform="matrix(1.25,0,0,-1.25,287.61755,455.25286)">
			<path id="path3369" fill="#2466B1" d="M4.589,0.65C4.512,0.518,4.46,0.379,4.43,0.236C4.402,0.092,4.403-0.052,4.435-0.196
				C4.467-0.339,4.537-0.47,4.647-0.591C4.756-0.711,4.88-0.794,5.021-0.838c0.141-0.045,0.282-0.06,0.429-0.044
				c0.145,0.014,0.287,0.055,0.428,0.119C6.017-0.699,6.142-0.617,6.25-0.517c0.109,0.098,0.202,0.215,0.28,0.348
				c0.076,0.132,0.128,0.271,0.157,0.415c0.029,0.144,0.027,0.287-0.004,0.43C6.652,0.82,6.58,0.953,6.471,1.072
				C6.362,1.191,6.237,1.276,6.097,1.32c-0.14,0.045-0.283,0.058-0.429,0.044C5.522,1.35,5.38,1.309,5.24,1.244
				C5.099,1.179,4.977,1.098,4.868,0.999C4.76,0.9,4.666,0.784,4.589,0.65 M5.053,1.759C5.258,1.86,5.472,1.925,5.692,1.953
				c0.219,0.028,0.438,0.01,0.655-0.057c0.217-0.065,0.415-0.197,0.594-0.394c0.18-0.197,0.293-0.407,0.338-0.628
				C7.327,0.65,7.325,0.432,7.277,0.215C7.229-0.001,7.143-0.206,7.018-0.396c-0.123-0.192-0.263-0.36-0.42-0.503
				C6.44-1.042,6.26-1.165,6.059-1.272c-0.202-0.106-0.412-0.172-0.632-0.2C5.206-1.5,4.987-1.481,4.77-1.415
				C4.553-1.35,4.355-1.218,4.176-1.021C3.995-0.823,3.884-0.614,3.837-0.392C3.791-0.17,3.793,0.05,3.842,0.266
				C3.89,0.484,3.973,0.688,4.094,0.884c0.12,0.196,0.258,0.365,0.415,0.509C4.666,1.535,4.847,1.658,5.053,1.759"/>
		</g>
		<g id="g3371" transform="matrix(1.25,0,0,-1.25,296.70943,452.90824)">
			<path id="path3373" fill="#2466B1" d="M3.808,0.449C3.772,0.436,3.731,0.414,3.681,0.384L1.337-1.07L1.282-0.981
				c0.098,0.062,0.13,0.121,0.093,0.18l-1.387,2.235c-0.036,0.06-0.105,0.058-0.203-0.003L-0.27,1.521l0.846,0.524l0.057-0.088
				C0.54,1.9,0.513,1.842,0.55,1.783l1.216-1.96l1.635,1.014C3.449,0.868,3.482,0.904,3.5,0.946C3.516,0.989,3.512,1.029,3.488,1.07
				l0.089,0.054l0.418-0.675L3.906,0.395C3.876,0.443,3.842,0.463,3.808,0.449"/>
		</g>
		<g id="g3375" transform="matrix(1.25,0,0,-1.25,299.51643,450.90862)">
			<path id="path3377" fill="#2466B1" d="M3.567,0.277c0.168,0.067,0.31,0.139,0.425,0.219C4.106,0.575,4.19,0.667,4.243,0.774
				C4.296,0.88,4.319,1.003,4.313,1.141C4.306,1.279,4.264,1.441,4.19,1.629C4.116,1.815,4.034,1.961,3.945,2.067
				c-0.09,0.105-0.191,0.179-0.303,0.22c-0.112,0.04-0.236,0.049-0.374,0.028C3.132,2.295,2.979,2.25,2.809,2.183L1.975,1.852
				l0.759-1.907L3.567,0.277z M2.841,2.732c0.198,0.079,0.393,0.123,0.587,0.134c0.192,0.01,0.375-0.019,0.548-0.085
				c0.172-0.067,0.33-0.175,0.472-0.323c0.142-0.15,0.262-0.344,0.357-0.585c0.094-0.242,0.143-0.465,0.14-0.671
				c0-0.206-0.04-0.393-0.12-0.56C4.746,0.477,4.632,0.331,4.485,0.205C4.336,0.08,4.164-0.022,3.967-0.1l-1.788-0.71L2.14-0.714
				c0.083,0.033,0.111,0.081,0.086,0.146L1.255,1.878C1.228,1.94,1.173,1.957,1.092,1.924l-0.04,0.098L2.841,2.732"/>
		</g>
		<g id="g3379" transform="matrix(1.25,0,0,-1.25,306.45468,446.27311)">
			<path id="path3381" fill="#2466B1" d="M2.971-0.121C2.962-0.08,2.94-0.05,2.904-0.037C2.869-0.021,2.81-0.021,2.73-0.038
				L0.889-0.397l0.137-0.706L2.14-0.885C2.216-0.871,2.273-0.848,2.311-0.82c0.037,0.03,0.046,0.087,0.03,0.176l0.103,0.019
				l0.171-0.887l-0.102-0.02C2.498-1.445,2.467-1.393,2.419-1.377C2.372-1.36,2.311-1.36,2.236-1.374L1.122-1.592l0.152-0.785
				l1.9,0.37c0.057,0.011,0.1,0.033,0.132,0.067c0.032,0.034,0.042,0.073,0.033,0.12L3.44-1.802L3.593-2.58L3.49-2.6
				C3.479-2.543,3.455-2.515,3.418-2.514C3.38-2.512,3.331-2.518,3.276-2.529l-2.65-0.518L0.606-2.944
				c0.026,0.005,0.048,0.018,0.067,0.039c0.016,0.022,0.021,0.049,0.014,0.083L0.184-0.24C0.177-0.205,0.161-0.181,0.138-0.169
				c-0.024,0.012-0.05,0.017-0.076,0.012l-0.02,0.103l2.594,0.506c0.079,0.015,0.133,0.038,0.16,0.07
				c0.028,0.031,0.037,0.067,0.03,0.109l0.102,0.021l0.146-0.752L2.971-0.121"/>
		</g>
		<g id="g3383" transform="matrix(1.25,0,0,-1.25,308.52556,449.27949)">
			<path id="path3385" fill="#2466B1" d="M2.793,0.138c0.073,0,0.109,0.035,0.11,0.103v2.631c0,0.07-0.037,0.104-0.109,0.104
				L2.793,3.081h0.991V2.977C3.753,2.976,3.739,2.958,3.739,2.919c0-0.032,0.038-0.086,0.117-0.162l1.663-1.727v1.843
				c0,0.07-0.05,0.105-0.152,0.105V3.08h0.876V2.976c-0.073,0-0.11-0.035-0.11-0.104L6.131,0.241c0-0.07,0.038-0.104,0.11-0.104
				V0.033H5.303v0.103c0.05,0.001,0.076,0.018,0.076,0.053C5.377,0.217,5.347,0.262,5.287,0.322L3.518,2.166l0.001-1.924
				C3.518,0.171,3.562,0.138,3.651,0.137V0.033H2.792L2.793,0.138"/>
		</g>
		<g id="g3387" transform="matrix(1.25,0,0,-1.25,317.92755,448.81424)">
			<path id="path3389" fill="#2466B1" d="M1.986,0.098l0.047-0.043C2.024,0.021,2.023-0.011,2.031-0.042
				c0.013-0.052,0.053-0.11,0.118-0.174c0.064-0.063,0.14-0.127,0.23-0.187c0.09-0.062,0.185-0.117,0.287-0.168
				c0.103-0.051,0.196-0.087,0.282-0.112c0.063-0.019,0.148-0.036,0.25-0.053C3.299-0.756,3.404-0.763,3.508-0.76
				c0.107,0.003,0.201,0.02,0.285,0.053c0.087,0.031,0.14,0.09,0.165,0.178c0.024,0.084,0.009,0.157-0.045,0.216
				c-0.054,0.059-0.132,0.112-0.232,0.16C3.58-0.104,3.463-0.058,3.328-0.015c-0.134,0.044-0.27,0.09-0.409,0.141
				c-0.138,0.051-0.272,0.108-0.4,0.172C2.391,0.361,2.282,0.438,2.192,0.53c-0.088,0.092-0.15,0.199-0.186,0.323
				C1.971,0.977,1.977,1.125,2.025,1.296C2.057,1.412,2.115,1.517,2.2,1.614c0.086,0.097,0.196,0.172,0.331,0.227
				c0.135,0.054,0.296,0.085,0.483,0.091c0.186,0.006,0.395-0.023,0.625-0.087c0.197-0.055,0.365-0.118,0.502-0.188
				c0.137-0.07,0.254-0.136,0.351-0.201c0.095-0.062,0.176-0.119,0.24-0.169c0.065-0.05,0.12-0.081,0.169-0.095
				c0.052-0.015,0.092-0.013,0.121,0.002l0.054-0.062L4.497,0.541L4.447,0.58C4.454,0.632,4.452,0.68,4.439,0.72
				C4.421,0.772,4.385,0.83,4.327,0.892C4.271,0.954,4.2,1.015,4.117,1.074C4.034,1.134,3.94,1.188,3.838,1.239
				c-0.103,0.05-0.207,0.09-0.316,0.121C3.44,1.382,3.353,1.4,3.263,1.411C3.172,1.422,3.086,1.425,3.009,1.419
				C2.931,1.412,2.863,1.394,2.805,1.364c-0.06-0.029-0.097-0.076-0.115-0.14C2.665,1.136,2.679,1.06,2.731,0.997
				c0.053-0.063,0.13-0.12,0.229-0.172c0.101-0.052,0.217-0.101,0.35-0.146c0.134-0.045,0.269-0.093,0.41-0.144
				C3.857,0.484,3.992,0.426,4.119,0.36c0.127-0.066,0.236-0.144,0.325-0.235c0.09-0.091,0.152-0.197,0.189-0.32
				c0.035-0.122,0.029-0.267-0.017-0.434C4.563-0.824,4.467-0.967,4.329-1.06C4.193-1.155,4.04-1.217,3.868-1.245
				C3.695-1.274,3.517-1.275,3.333-1.25C3.151-1.224,2.982-1.19,2.83-1.149c-0.214,0.06-0.387,0.121-0.524,0.186
				C2.169-0.899,2.06-0.837,1.975-0.775c-0.086,0.062-0.152,0.115-0.2,0.159c-0.049,0.043-0.093,0.071-0.133,0.08
				C1.614-0.527,1.586-0.536,1.556-0.558L1.49-0.492L1.986,0.098"/>
		</g>
		<g id="g3391" transform="matrix(1.25,0,0,-1.25,324.69318,452.51211)">
			<path id="path3393" fill="#2466B1" d="M1.405,0.415L1.359,0.321L0.554,0.704l0.044,0.094c0.024-0.012,0.05-0.014,0.077-0.007
				c0.027,0.005,0.046,0.025,0.063,0.055l0.987,2.085l-0.863,0.41c-0.033,0.014-0.067,0.02-0.105,0.018
				c-0.038-0.004-0.068-0.03-0.092-0.078L0.571,3.325l0.348,0.733l0.093-0.045C0.991,3.964,0.99,3.923,1.01,3.892
				C1.031,3.86,1.058,3.837,1.089,3.823l2.327-1.102C3.446,2.705,3.48,2.7,3.518,2.703c0.037,0.004,0.069,0.03,0.092,0.078
				l0.095-0.045L3.358,2.004L3.264,2.05c0.022,0.048,0.022,0.088,0.002,0.12C3.244,2.2,3.218,2.224,3.187,2.24L2.321,2.648
				L1.334,0.564C1.305,0.503,1.328,0.452,1.405,0.415"/>
		</g>
		<g id="g3395" transform="matrix(1.25,0,0,-1.25,329.38343,453.55424)">
			<path id="path3397" fill="#2466B1" d="M1.002,0.505l0.2,1.165L0.147,1.082L1.002,0.505z M-1.412,0.833
				c0.045-0.022,0.092-0.023,0.14-0.005c0.047,0.02,0.098,0.045,0.151,0.074L1.03,2.171c0.05,0.026,0.095,0.051,0.137,0.075
				c0.041,0.023,0.072,0.048,0.088,0.072c0.022,0.033,0.025,0.063,0.013,0.09C1.254,2.438,1.235,2.463,1.214,2.486l0.06,0.086
				l0.812-0.547L2.027,1.939C1.998,1.948,1.97,1.954,1.941,1.958c-0.029,0.004-0.057-0.012-0.08-0.046
				C1.844,1.885,1.831,1.855,1.825,1.823C1.82,1.789,1.814,1.745,1.808,1.688l-0.321-2.63C1.48-0.988,1.484-1.028,1.5-1.063
				c0.017-0.034,0.037-0.071,0.062-0.11L1.502-1.26L0.657-0.69l0.059,0.087c0.013-0.009,0.031-0.015,0.057-0.018
				c0.026-0.004,0.045,0.005,0.057,0.023c0.021,0.032,0.038,0.082,0.047,0.152l0.057,0.478l-1.172,0.791L-0.64,0.599
				c-0.078-0.045-0.125-0.082-0.145-0.111C-0.808,0.452-0.791,0.414-0.73,0.373l-0.058-0.086L-1.47,0.747L-1.412,0.833"/>
		</g>
		<g id="g3399" transform="matrix(1.25,0,0,-1.25,332.18493,457.80087)">
			<path id="path3401" fill="#2466B1" d="M0.761,0.87l-0.07-0.078L0.034,1.397l0.072,0.077c0.02-0.017,0.044-0.028,0.071-0.029
				C0.203,1.443,0.229,1.455,0.252,1.48l1.563,1.696L1.113,3.824c-0.027,0.024-0.057,0.04-0.094,0.047
				C0.98,3.879,0.944,3.863,0.908,3.824L0.83,3.895L1.38,4.491l0.077-0.07C1.42,4.381,1.408,4.344,1.419,4.306
				C1.429,4.27,1.448,4.24,1.474,4.217l1.892-1.744c0.026-0.024,0.057-0.04,0.094-0.048c0.038-0.008,0.074,0.008,0.111,0.048
				l0.076-0.071L3.099,1.805l-0.078,0.07c0.038,0.04,0.05,0.078,0.038,0.114c-0.01,0.037-0.029,0.067-0.054,0.091L2.301,2.729
				L0.738,1.032C0.692,0.981,0.699,0.927,0.761,0.87"/>
		</g>
		<g id="g3403" transform="matrix(1.25,0,0,-1.25,339.03243,460.82212)">
			<path id="path3405" fill="#2466B1" d="M0.173,1.129c0.033,0.026,0.049,0.059,0.046,0.097c-0.003,0.04-0.03,0.09-0.079,0.155
				l-1.145,1.486L-1.574,2.43l0.692-0.901c0.047-0.061,0.093-0.102,0.136-0.122c0.043-0.021,0.1-0.004,0.169,0.05l0.065-0.082
				l-0.718-0.553l-0.063,0.083c0.071,0.053,0.104,0.105,0.099,0.155C-1.203,1.109-1.23,1.166-1.277,1.227l-0.693,0.899l-0.633-0.487
				l1.181-1.534c0.036-0.046,0.074-0.076,0.119-0.088C-1.26,0.003-1.22,0.012-1.183,0.04l0.063-0.083l-0.628-0.484l-0.065,0.082
				c0.046,0.036,0.062,0.07,0.045,0.103c-0.016,0.035-0.041,0.074-0.077,0.12l-1.648,2.139l0.083,0.065
				c0.016-0.021,0.038-0.036,0.065-0.041C-3.32,1.934-3.29,1.942-3.263,1.963l2.082,1.605c0.029,0.022,0.044,0.046,0.044,0.073
				c0,0.029-0.007,0.053-0.023,0.075l0.082,0.062l1.612-2.093c0.05-0.065,0.095-0.102,0.135-0.113
				c0.04-0.01,0.076-0.002,0.109,0.024l0.065-0.083L0.236,1.045L0.173,1.129"/>
		</g>
	</g>
</g>
</svg>
