<?xml version="1.0" encoding="utf-8"?>
<!-- Generator: Adobe Illustrator 19.1.0, SVG Export Plug-In . SVG Version: 6.00 Build 0)  -->
<svg version="1.1" id="Layer_1" xmlns="http://www.w3.org/2000/svg" xmlns:xlink="http://www.w3.org/1999/xlink" x="0px" y="0px"
	 viewBox="0 0 100 100" style="enable-background:new 0 0 100 100;" xml:space="preserve">
<style type="text/css">
	.st0{fill-rule:evenodd;clip-rule:evenodd;fill:#0D355E;}
	.st1{fill-rule:evenodd;clip-rule:evenodd;fill:#FFCC32;}
</style>
<g>
	<path class="st0" d="M62.5,70.1c-2.4,0-3.9,0.5-4.6,3.4L57.4,76c-0.1,0.9,0,1.7,0.4,2.3c0.6,0.7,1.5,1,2.7,1c0.7,0,2.8-0.1,3.6-1.5
		c0.3-0.5,0.7-1.7,0.8-2.2v-0.1h-2.6v0.1v0.1c-0.1,0.7-0.4,1.6-1.2,1.6c-0.2,0-0.4-0.1-0.5-0.3c-0.2-0.2-0.3-0.5-0.2-0.8l0.8-3.3
		c0.1-0.8,0.4-1.2,1-1.2c0.2,0,0.4,0.1,0.6,0.2c0.1,0.1,0.1,0.2,0.1,0.4l-0.1,0.5c-0.1,0.1-0.1,0.3-0.1,0.5v0.1h2.6v-0.1
		c0.4-1.2,0.3-2-0.1-2.5C64.8,70.3,63.9,70.1,62.5,70.1L62.5,70.1z"/>
	<path class="st0" d="M80,72.8l0.7-2.7h-0.1c-1.2,0-2.2,0.5-2.7,1.3h-0.1l0.2-1h-2.8l-2,8.7h2.9l1.3-5.3c0.1-0.7,0.9-1,1.6-1
		c0.3,0,0.6,0,0.8,0.1H80L80,72.8z"/>
	<path class="st0" d="M87.4,71.1c-0.6-0.8-1.8-0.9-2.5-0.9c-2.3,0-3.7,0.9-4.2,2.8c-0.1,0.6,0,1.1,0.4,1.6c0.5,0.7,1.5,1.1,2.5,1.5
		l0.4,0.2c0.4,0.1,0.4,0.4,0.2,0.7c-0.1,0.4-0.4,0.7-0.9,0.7c-0.2,0-0.4-0.1-0.6-0.3c-0.1-0.1-0.2-0.4-0.1-0.7v-0.1h-2.8v0.1
		c-0.1,0.9,0.1,1.5,0.5,2c0.5,0.5,1.4,0.8,2.5,0.8c1.9,0,3.9-0.4,4.2-2.7c0.3-1.9-1.1-2.5-2.7-3.2l-0.1-0.1h-0.1
		c-0.6-0.3-0.8-0.4-0.7-0.9c0.1-0.4,0.8-0.7,1-0.7c0.2,0,0.4,0.1,0.5,0.2c0.2,0.1,0.2,0.4,0.2,0.8v0.1h2.4v-0.1
		C87.8,72.1,87.8,71.5,87.4,71.1L87.4,71.1z"/>
	<path class="st0" d="M57.2,72.8c0.2-0.9,0.1-1.5-0.1-1.9c-0.4-0.5-1.2-0.7-2.8-0.7c-2.4,0-3.7,0.9-4.1,2.5v0.1h2.5v-0.1
		c0.2-0.7,0.5-1,1.2-1c0.1,0,0.3,0.1,0.4,0.2c0.1,0.1,0.3,0.4,0.2,0.7c0,0.8-0.9,0.9-2,1.2c-0.3,0.1-0.5,0.1-0.8,0.2l0,0
		c-1.5,0.4-2.3,0.6-2.9,3c-0.1,0.7-0.1,1.2,0.3,1.6c0.3,0.4,0.8,0.6,1.5,0.6c1.1,0,1.7-0.4,2.5-0.9v0.9H56V79
		c-0.1-0.3-0.1-0.7,0-0.9L57.2,72.8L57.2,72.8z M52.7,77.3c-0.2,0-0.4-0.1-0.5-0.2c-0.1-0.1-0.2-0.4-0.1-0.7c0-0.3,0.2-0.8,0.5-1
		c0.2-0.1,0.9-0.4,1.3-0.5L53.7,76C53.7,76.3,53.4,77.3,52.7,77.3L52.7,77.3z"/>
	<path class="st0" d="M69,75.1h4.2l0.5-2.5c0.1-0.6,0.1-1.1-0.3-1.5c-0.5-0.6-1.5-0.9-2.8-0.9c-2.4,0-3.9,1-4.4,2.9l-0.7,3.3
		c-0.1,0.8,0,1.5,0.4,2c0.5,0.6,1.4,0.9,2.6,0.9c2.5,0,3.9-0.9,4.4-2.9v-0.1h-2.7v0.1c-0.2,0.9-0.4,1.3-1,1.3
		c-0.2,0-0.4-0.1-0.5-0.2c-0.1-0.1-0.1-0.4-0.1-0.7C68.8,76.7,69,75.5,69,75.1L69,75.1z M71,72.4c0,0-0.1,0.9-0.2,1.2h-1.5
		c0-0.2,0.1-0.8,0.1-0.8c0.1-0.4,0.2-1,0.9-1c0.3,0,0.5,0.1,0.7,0.2C71,72.1,71,72.3,71,72.4L71,72.4z"/>
	<path class="st0" d="M49.3,69.6c-0.4-0.7-1.5-0.9-3.1-0.9h-3.9l-2.5,10.5h3.3l0.9-3.3h0.4c0.9,0,2-0.1,2.9-0.4
		c1.1-0.4,1.8-1.4,2.2-2.8C49.7,71.7,49.9,70.3,49.3,69.6L49.3,69.6z M45.2,70.7h0.4c0.1,0,0.4,0.1,0.6,0.4c0.3,0.3,0.4,0.7,0.3,1.1
		c-0.3,1.2-0.9,1.3-2,1.3C44.6,73.1,45.1,71.2,45.2,70.7L45.2,70.7z"/>
	<path class="st0" d="M38.2,64.8L34.8,79H11.4l13.5-61h30c7.5,0,13.9,3,18.4,8.4c6.7,8.1,7.4,21.4-0.6,30.1
		c-4.9,5.8-12.1,8.2-20,8.2H38.2L38.2,64.8z"/>
	<path class="st1" d="M21.8,31.9H35c1.5,0,3.1,1.2,2.4,3.1c-0.4,1.2-0.7,2.6-0.9,3.9c-0.1,0.9,1,1.6,1.7,1.6H65
		c0.5,0,0.8-0.1,0.8-0.4c0-0.2,0-1.2-0.1-1.7c-0.1-0.6-0.1-0.7-0.7-0.7c-3.3,0-4.7-1.5-8.2-3.7c-3.5-2.3-8.7-3.6-13-3.6H22.2
		L21.8,31.9L21.8,31.9z"/>
	<path class="st1" d="M38.1,49.2c-0.5-0.9-0.9-2.2-1.2-3.3c-0.4-1.4-1.5-2.5-3.6-2.5H19.3l0.4-1.6h45.8c0.4,0,0.4,0.2,0.4,0.7
		c-0.1,0.4-0.1,1.4-0.2,2c-0.1,0.6-0.6,0.4-1,0.4c-1,0-2.9,0.3-4,1.1c-1.9,1.5-6,3.9-8.2,4.7C49.8,51.6,40.7,54.3,38.1,49.2
		L38.1,49.2L38.1,49.2z"/>
	<path class="st1" d="M16.7,55h23.9c1.1,0,2,0.3,2.7,0.9c2,1.7,4.6,2.8,7.4,3.6c1.2,0.4,3.3-0.1,5.3-1.2c4.7-2.7,7.9-7.9,8.8-11.2
		c0.3-0.9-0.2-0.8-0.9-0.7c-2,0.1-4.1,2-6.9,3.8c-2.8,1.7-8.4,3.4-13.8,3.4H17.1L17,53.9L16.7,55L16.7,55z"/>
	<path class="st1" d="M51.8,23c0.4-0.1,1.5-0.1,2.3,0.1c4.5,1.7,8.8,6.5,10.6,11.5c0.4,1,0.4,1.6,0,1.7c-2.1,0.2-3.1-0.8-5.5-2.5
		c-2.4-1.7-4.7-2.8-7.8-3.8c-3.1-0.9-8.7-1.1-9.4-1.1c-0.7-0.1-0.6-0.4-0.3-0.7C44.4,25.6,47.9,23.7,51.8,23L51.8,23z"/>
	<path class="st1" d="M73.6,40.2c0,0.1-0.2,0.4-0.4,0.4c-0.1,0-5.2,0-5.2,0c-0.7,0-0.7-0.3-0.7-0.7c0-0.4-0.1-1.2-0.1-1.7
		c0-0.4-0.2-0.9,0.4-1.2c1.5-0.7,2.8-2,3.5-3.3c0.2-0.4,0.5-1.1,0.9-0.5C73.1,35.3,73.5,37.7,73.6,40.2L73.6,40.2z"/>
	<path class="st1" d="M71.7,49.6c-0.1,0.1-0.4,0.3-0.5,0c-0.8-2-2.6-3.4-3.9-4.2C67,45.2,66.9,45,67,44.7c0.1-0.4,0.2-1.6,0.2-2.1
		c0-0.4,0.2-0.7,0.5-0.7h5.5c0.1,0,0.4,0.1,0.4,0.3C73.6,44.8,72.8,47.3,71.7,49.6L71.7,49.6z"/>
	<path class="st1" d="M57.5,59.9c-0.4,0-1.2-0.1,0.1-0.9c4-2.3,7.5-7.7,8.4-10.8c0.4-1.2,0.4-1.2,0.9-1.1c0.6,0.1,1.5,1,2.3,2
		c0.7,0.9,1,2.9,0.6,3.5C67,56.5,62.5,59.1,57.5,59.9L57.5,59.9z"/>
	<path class="st1" d="M67.6,35.3c-0.9,0.5-1.1,0.4-1.2-0.3c-1.7-6-6.8-10.5-9-11.8c-0.4-0.3-0.3-0.4,0-0.4c5,0.7,9.9,3.4,12.3,7.1
		C71.2,32.1,68.5,34.9,67.6,35.3L67.6,35.3z"/>
</g>
</svg>
