<?xml version="1.0" encoding="utf-8"?>
<!-- Generator: Adobe Illustrator 19.1.0, SVG Export Plug-In . SVG Version: 6.00 Build 0)  -->
<svg version="1.1" id="Layer_1" xmlns="http://www.w3.org/2000/svg" xmlns:xlink="http://www.w3.org/1999/xlink" x="0px" y="0px"
	 viewBox="0 0 100 100" style="enable-background:new 0 0 100 100;" xml:space="preserve">
<style type="text/css">
	.st0{fill-rule:evenodd;clip-rule:evenodd;fill:#FFFFFF;}
	.st1{fill-rule:evenodd;clip-rule:evenodd;fill:#0074BD;}
	.st2{fill-rule:evenodd;clip-rule:evenodd;fill:#EF3A53;}
</style>
<g>
	<path class="st0" d="M14.1,41.6c0,0-0.6-0.2-0.8-0.5c-0.1-0.3,0.1-0.9,0.1-0.9L24,27.5c0,0,0.3-0.5,1-0.9c0.9-0.4,1.6-0.4,1.6-0.4
		h15.8c7.8-7.3,18.9-6.8,18.9-6.8c16.4,0,29.4,13.4,29.4,29.4c0,16-12.5,29.5-29.5,29.5c-15.7,0-22.6-10.5-22.6-10.5h-7.1
		c0,0-4.7,5.6-10.4,4.9C16,71.9,10.1,69.2,9.3,60.5v-3.7c0.9-11.7,8.2-15.2,8.2-15.2H14.1L14.1,41.6z"/>
	<path class="st1" d="M34.2,48.9c0.4,0,0.7-0.1,0,0.4c-0.5,0.3-0.7,0.9-0.9,1.7c-0.2,0.6-1.9,7.4-2.1,7.9c-0.2,0.7,0.1,1.5,0.4,1.7
		c0.2,0.2,0.4,0.3-0.2,0.4h-4.1c-0.4,0-0.5-0.1,0-0.5c0.3-0.2,0.6-0.9,0.8-1.3l2.2-8.3c0.3-1.1-0.2-1.5-0.5-1.7
		c-0.2-0.1-0.1-0.2,0.2-0.2H34.2L34.2,48.9z"/>
	<path class="st1" d="M26.6,60.7C26.5,61,26.5,61,26.3,61h-7.6c-0.4,0-0.4-0.2,0-0.3c0.5-0.2,1.1-1.3,1.2-1.9l2.1-7.8
		c0.3-1.3-0.6-1.6-0.9-1.9c-0.2-0.1-0.1-0.1,0.2-0.2h5c0.8,0,0.4,0.2,0.1,0.4c-0.5,0.2-1.2,1.1-1.3,1.7c-0.2,0.6-2.2,8.1-2.3,8.5
		c-0.2,0.5,0,0.8,0.5,0.8c0.9,0,2.5-0.1,4-2.7c0.2-0.5,0.4-0.3,0.2,0.2C27.4,57.9,27,59.7,26.6,60.7L26.6,60.7z"/>
	<path class="st1" d="M60.7,60.6c0.2-0.5,0.8-2.6,0.9-2.9c0.2-0.5,0.2-0.7-0.2-0.2c-1.9,2.6-2.2,2.9-5,2.9c-0.6,0-0.7-0.5-0.5-0.9
		c0-0.2,0.5-2.3,1.1-4.3c0.2-0.6,0.6-0.6,0.9-0.6c0.5,0,1.5,0.6,1.5,2.3c0,0.5,0.2,0.3,0.3-0.2l1.1-4.3c0.2-0.7-0.1-0.4-0.5,0.1
		c-0.5,0.6-1.2,1.3-2.4,1.3c-0.3,0-0.4-0.3-0.2-0.7c0.2-1.2,0.5-2.4,0.8-3c0.2-0.8,0.3-0.8,0.9-0.8c1.1,0.1,2.8-0.2,2.8,2.2
		c0,0.6,0.2,0.6,0.3,0c0.2-0.8,0.5-2.2,0.6-2.6c0.1-0.3-0.1-0.2-0.5-0.2h-8c-0.2,0-0.5,0-0.3,0.2c0.5,0.4,1.3,0.4,0.9,1.9L53,58.6
		c-0.1,0.5-0.8,1.7-1.3,1.9c-0.5,0.2-0.5,0.3,0,0.3H60C60.5,60.9,60.6,60.9,60.7,60.6L60.7,60.6z"/>
	<path class="st1" d="M67.8,50c0.1-0.4,0.4-0.6,0.9-0.5v-0.7h-4.7c-0.4,0-0.5,0.1-0.3,0.2c0.4,0.3,0.9,0.3,0.6,2
		c-0.1,0.8-1.5,6.4-1.9,7.9c-0.2,0.8-0.6,1.5-0.9,1.6c-0.4,0.2-0.6,0.3-0.2,0.3h5c0.2,0,0.3-0.1-0.2-0.4c-0.8-0.4-0.7-1.2-0.5-1.9
		c0.2-0.7,0.5-1.5,0.7-2.8c0.2-0.6,0.9-0.5,1.1,0.4c0.5,1.7,0.3,2.7,0.3,3.5c0,0.6,0.7,1.9,2.2,1.9c1,0,1.4-0.5,1.6-0.6
		c0.2,0.1,0.5,0.2,0.5,0.2c0.6,0,0.9-0.5,1.8-0.5c0.8-0.1,1.1,0.6,2.3,0.5c3.3,0,4.9-2.9,3.6-5.7c-0.7-1.6-2.3-3.5-2.7-4.4
		c-1-2.1,3.2-3.1,3.2,0.5c0,0.6,0,0.9,0.2,0.1c0.3-1,0.7-2.5,0.7-2.6c0.2-0.5,0.1-0.5-0.2-0.3c-0.1,0-0.9,0.2-1.3,0.2
		c-0.5-0.1-1.4-0.5-1.9-0.5c-3.6,0-4.1,4-2.9,5.9c1.9,2.7,3.8,5,1.6,6.3c-1.1,0.6-3.3-0.6-3.2-3.8c0.1-0.5-0.2-0.5-0.3,0.2
		c-0.5,2.2-0.9,3.3-1.6,3.3c-0.8,0.1-0.7-1.2-0.9-3.5c0-0.7-0.2-1-0.6-1.2c-0.4-0.3-0.4-0.5,0.1-0.7c1.6-0.5,3.1-1.7,3.1-3.3
		c0-1.9-0.9-2.7-3-2.7h-1.3v0.7c0.5-0.1,0.9,0.2,1.1,0.6c0.2,0.4,0.5,1.9-0.4,3.2c-0.5,0.7-1,0.9-1.3,1c-0.9,0.5-1.3,0.2-1.2-0.5
		L67.8,50L67.8,50z"/>
	<path class="st1" d="M36.2,48.9c-0.4,0-0.5,0-0.3,0.2c0.4,0.2,1,0.6,0.8,1.8l-2,7.6c-0.1,0.5-0.5,1.8-1.1,2.2
		c-0.5,0.3-0.2,0.4,0.2,0.4h4.4c0.2,0,0.6,0-0.2-0.5c-0.7-0.4-0.5-1.5-0.4-2.1c0.2-0.7,0.3-1.2,0.6-2.5c0.2-0.6,0.3-0.6,1.1-0.5
		c1,0.1,2.1-0.1,3.3-0.7c1.2-0.6,2.2-1.9,2.2-3.2c0.1-2.1-1.2-2.6-2.9-2.6c0,0-0.5,0-1.2,0v0.5c0.5,0,1,0.3,1.2,1
		c0.2,0.5,0,3.5-1.9,4.2c-0.9,0.4-1.6,0.3-1.4-0.3c0.3-1,1.2-4.1,1.2-4.1c0.2-0.6,0.5-0.8,0.9-0.8v-0.5H36.2L36.2,48.9z"/>
	<path class="st1" d="M45.4,48.9c-0.4,0-0.5,0-0.3,0.2c0.4,0.2,1.1,0.6,0.8,1.8l-2,7.6c-0.1,0.5-0.5,1.8-1,2.2
		C42.2,61,42.5,61,43,61h4.4c0.2,0,0.5,0-0.1-0.4c-0.8-0.5-0.6-1.6-0.5-2.2c0.2-0.7,0.3-1.2,0.7-2.5c0.2-0.6,0.2-0.6,1-0.5
		c1,0.1,2.1-0.1,3.3-0.7c1.2-0.6,2.2-1.9,2.2-3.2c0.1-1.6-1-2.6-2.8-2.6c0,0-0.5,0-1.4,0v0.5c0.6,0,1,0.2,1.2,0.9
		c0.2,0.5,0,3.5-1.8,4.3c-0.9,0.4-1.6,0.2-1.4-0.4c0.2-0.9,1.1-4,1.1-4c0.2-0.6,0.5-0.9,0.9-0.8v-0.5H45.4L45.4,48.9z"/>
	<path class="st2" d="M68.9,64.9c0.2,2.2-0.5,6.4-2,8.5C78.1,71,86.5,61,86.5,48.9c0-6.1-1.9-11.2-5.4-15.5
		c-2.6,1.2-11,1.9-16.5,0.5c-5-1.2-7.5-2.6-8.5-3.5c-0.9,0.1-2.9,1.3-3.3,1.4c1.5,0.9,5.3,4.4,6.4,6.4c11.2,0,20.3,0,20.9,0
		c0.5,0,0.9,0.5,0.9,0.7c0,0.2-0.2,0.4-0.3,0.4c-1.4,0-52.1,0-61.9,0c-0.1,0-0.2-0.1-0.2-0.2c0-0.6,0.6-0.9,1.2-0.9
		c2.9,0,9.6,0,17.5,0c0.3-0.8,0.6-1.6,1-2.2c-0.5,0-17.2,0-17.6,0c-0.1,0-0.2-0.1-0.2-0.2c0-0.4,0.5-0.6,0.8-0.6c0.6,0,17,0,17.5,0
		c0.5-0.8,1-1.5,1.6-2.2c-0.2,0-16.8,0-17.1,0c-0.1,0-0.2-0.1-0.2-0.3c0-0.3,0.5-0.7,0.9-0.7c0.5,0,16.8,0,17.1,0
		c0.6-0.8,1.4-1.7,1.9-2c-0.4,0-16.3,0-16.5,0c-0.1,0-0.2-0.2-0.2-0.3c0-0.3,0.4-0.7,0.9-0.7c0.5,0,16.8,0,17.1,0
		c4.7-4,10.7-6.5,17.4-6.5c14.5,0,26.3,11.9,26.3,26.4c0,14.6-11.8,26.4-26.3,26.4c-8.5,0-16.5-4.1-21.2-10.3c-11.2,0-18.2,0-18.8,0
		c-0.5,0-0.8-0.5-0.8-0.8c0-0.2,0.2-0.5,0.3-0.5c1.4,0,46.7,0,56.5,0c0.5,0,0.5,0.1,0.5,0.3c0,0.6-0.5,0.9-1.3,0.9
		C73.8,64.9,72.6,64.9,68.9,64.9L68.9,64.9z"/>
	<path class="st0" d="M57.7,29.9c2.2,1.8,7,3.3,12,3.6c5,0.3,9.8-0.8,10.5-1.1c-0.5-0.6-3-3-3.8-3.5C72.2,27.5,61.6,27.9,57.7,29.9
		L57.7,29.9z"/>
	<path class="st0" d="M56.6,28.8c6.2-2.6,15.2-2.1,17.1-1.7c-4.4-2.6-10.4-4-17.4-2.7C55.3,25.6,55.4,28.1,56.6,28.8L56.6,28.8z"/>
	<path class="st0" d="M49.4,64.9c-0.7,0-7.1,0-7.4,0c0.4,0.7,3,3.3,3.8,3.7C46.8,68.2,49.1,65.5,49.4,64.9L49.4,64.9z"/>
	<path class="st0" d="M67.7,64.9c-1.5,0-6.3,0-10.5,0c0.2,2-0.5,7.1-1.2,8.5c2.3,0.6,6.1,0.8,9.2,0.3C65.9,73.1,67.7,69.1,67.7,64.9
		L67.7,64.9z"/>
	<path class="st0" d="M56,64.9c-0.3,0-4.7,0-5,0c-0.4,0.7-3.3,4-4,4.5c1.9,1.5,6.1,3.4,7.8,3.7C55.5,71.6,56.1,67.1,56,64.9L56,64.9
		z"/>
	<path class="st0" d="M38.7,38.3c1.1,0,1.9,0,2.9,0c0.5-0.6,3.3-3.3,3.9-3.7c-0.9-0.6-2.8-1.2-3.6-1.3C41,34.1,39.1,37.1,38.7,38.3
		L38.7,38.3z"/>
	<path class="st0" d="M43.4,38.3c1.9,0,4.4,0,6.4,0c-0.3-0.7-2.4-2.6-3-3C46,35.8,44,37.6,43.4,38.3L43.4,38.3z"/>
	<path class="st0" d="M51.5,38.3c2.1,0,4,0,6,0c-0.9-1.9-4.9-5.4-6-5.8c-0.5,0.1-3.2,1.7-3.5,2.1C49,35.2,50.8,37.1,51.5,38.3
		L51.5,38.3z"/>
	<path class="st0" d="M46.7,33.7c0.3-0.4,2.4-1.8,3.1-2c-0.9-0.7-4-1.7-5-1.7c-0.6,0.6-1.8,1.8-2.1,2.2
		C43.5,32.3,45.9,33.1,46.7,33.7L46.7,33.7z"/>
	<path class="st0" d="M46.2,29.1c1.5,0.1,4.2,1.4,5.1,1.9c0.6-0.5,3.3-1.6,3.8-1.9c-0.9-0.5-1-3.3-0.3-4.4
		C52.5,25.4,48.3,27.2,46.2,29.1L46.2,29.1z"/>
	<polygon class="st1" points="38,42 38.9,42 38.3,45 40.1,45 39.9,45.7 37.3,45.7 38,42 	"/>
	<path class="st1" d="M43.4,41.9c1,0,1.6,0.5,1.6,1.6c0,1.2-0.7,2.2-1.9,2.2c-1.1,0-1.6-0.6-1.6-1.6C41.5,43,42.2,41.9,43.4,41.9
		L43.4,41.9z"/>
	<path class="st1" d="M46.8,44.4c0,0.5,0.3,0.7,0.8,0.7c0.4,0,0.7-0.2,0.7-0.5c0-0.4-0.5-0.5-0.9-0.5c-0.5-0.2-0.9-0.4-0.9-1
		c0-0.9,0.8-1.2,1.5-1.2c0.8,0,1.4,0.4,1.4,1.2h-0.8c0-0.4-0.3-0.5-0.6-0.5c-0.3,0-0.7,0.2-0.7,0.5c0,0.4,0.6,0.5,0.9,0.5
		c0.5,0.2,0.9,0.4,0.9,1c0,0.9-0.8,1.2-1.5,1.2c-1,0-1.6-0.5-1.6-1.3H46.8L46.8,44.4z"/>
	<polygon class="st1" points="55.3,42 56.2,42 56.8,45.7 56,45.7 55.9,44.8 54.5,44.8 54,45.7 53.2,45.7 55.3,42 	"/>
	<polygon class="st1" points="58.7,42 59.5,42 60.5,44.6 60.5,44.6 61.1,42 61.8,42 61,45.7 60.2,45.7 59.2,43 59.2,43 58.7,45.7 
		57.9,45.7 58.7,42 	"/>
	<path class="st1" d="M65.5,45.3L65.5,45.3c-0.2,0.3-0.6,0.5-0.9,0.5c-1,0-1.6-0.6-1.6-1.6c0-1.2,0.8-2.3,2-2.3
		c0.9,0,1.6,0.4,1.6,1.3h-0.9c0-0.5-0.3-0.6-0.7-0.6c-0.9,0-1.2,0.9-1.2,1.6c0,0.5,0.2,0.9,0.9,0.9c0.6,0,0.9-0.3,1-0.8h-0.9
		l0.2-0.6h1.6l-0.5,2h-0.5V45.3L65.5,45.3z"/>
	<polygon class="st1" points="68.3,42 71.1,42 70.9,42.7 69,42.7 68.8,43.4 70.6,43.4 70.5,44 68.7,44 68.4,45 70.5,45 70.4,45.7 
		67.5,45.7 68.3,42 	"/>
	<polygon class="st1" points="72.6,42 73.3,42 72.7,45 74.5,45 74.3,45.7 71.8,45.7 72.6,42 	"/>
	<polygon class="st1" points="76,42 78.8,42 78.7,42.7 76.7,42.7 76.6,43.4 78.4,43.4 78.3,44 76.4,44 76.2,45 78.3,45 78.1,45.7 
		75.3,45.7 76,42 	"/>
	<path class="st1" d="M80.4,44.4c0,0.5,0.3,0.7,0.8,0.7c0.3,0,0.7-0.2,0.7-0.5c0-0.4-0.5-0.5-0.9-0.5c-0.5-0.2-0.9-0.4-0.9-1
		c0-0.9,0.8-1.2,1.5-1.2c0.8,0,1.4,0.4,1.4,1.2h-0.8c0-0.4-0.3-0.5-0.7-0.5c-0.3,0-0.6,0.2-0.6,0.5c0,0.4,0.6,0.5,0.9,0.5
		c0.6,0.2,1,0.4,1,1c0,0.9-0.8,1.2-1.5,1.2c-1,0-1.6-0.5-1.6-1.3H80.4L80.4,44.4z"/>
	<path class="st0" d="M43.1,45.1c0.8,0,1.2-0.9,1.2-1.6c0-0.5-0.2-0.9-0.9-0.9c-0.8,0-1.2,0.9-1.2,1.6
		C42.2,44.6,42.5,45.1,43.1,45.1L43.1,45.1z"/>
	<polygon class="st0" points="54.8,44.2 55.8,44.2 55.6,42.8 55.6,42.8 54.8,44.2 	"/>
	<path class="st1" d="M17.2,63.6c-1.8-4.7,0.2-12.4,3.6-17.2c4-5.7,11.3-5,12.6,0.9c0.2,0.9,0.3,0.5,0.4,0.2
		c0.1-0.3,1.2-4.3,1.2-4.6c0.1-0.3,0.2-0.8-0.2-0.7c-0.7,0.2-1.6,0.2-3.3-0.2c-0.8-0.2-1.9-0.9-5-0.9c-7.9,0-14.3,7.5-14.5,16.3
		c-0.2,7.4,4.1,12,8.8,12.2c3.9,0.2,6.4-2.2,8.5-4.7h-1.9C23.5,69.5,18.9,68.2,17.2,63.6L17.2,63.6z"/>
</g>
</svg>
