<?xml version="1.0" encoding="utf-8"?>
<!-- Generator: Adobe Illustrator 19.1.0, SVG Export Plug-In . SVG Version: 6.00 Build 0)  -->
<svg version="1.1" id="Layer_1" xmlns="http://www.w3.org/2000/svg" xmlns:xlink="http://www.w3.org/1999/xlink" x="0px" y="0px"
	 viewBox="0 0 100 100" style="enable-background:new 0 0 100 100;" xml:space="preserve">
<style type="text/css">
	.st0{fill-rule:evenodd;clip-rule:evenodd;fill:#FFFFFF;}
	.st1{fill-rule:evenodd;clip-rule:evenodd;fill:#FCB136;}
	.st2{fill-rule:evenodd;clip-rule:evenodd;fill:#4E3E93;}
	.st3{fill-rule:evenodd;clip-rule:evenodd;fill:#171F23;}
</style>
<g>
	<path class="st0" d="M25.1,32.7c0,0,7.5-12.3,22.9-12.3c15.3,0,22.5,11.9,22.5,11.9h20.8l-0.8,5.1c0,0-0.6,2-1.6,2.3h1.5
		c0,0,0.4,1.8-2.4,8h6.1c0,0,0.2,10.8-12.9,15.9c0,0-6.8,2.2-10.2-1.6c0,0-6.9,12.9-23,12.9c-16.1,0-23.3-13.2-23.3-13.2H5.9l3-5.4
		h-2L9.2,52h4.1l0.7-1.6h-2l4.7-8.6h2.6l1.1-2.7h-2.2l3.4-6.4H25.1L25.1,32.7z"/>
	<path class="st1" d="M48.2,72.2C61.4,72.2,72,61.3,72,48c0-13.4-10.6-24.2-23.8-24.2C35,23.8,24.4,34.6,24.4,48
		C24.4,61.3,35,72.2,48.2,72.2L48.2,72.2z"/>
	<path class="st2" d="M59.1,50.5c-2.3,2.7-3.5,3.6-5.8,3.6c-0.7,0-1.1-0.2-1-0.5l2.7-5.4h1.1c1.1,0,1,0.9,0.7,2.2
		c-0.1,0.2,0.1,0.2,0.2,0.1l2.5-4.5c0.1-0.3-0.2-0.3-0.3-0.2c-1.3,1.8-2.7,1.6-3.2,1.6h-0.5l2.9-5.5h1.1c1.5,0.1,2.1,1.3,1.7,4.3
		h0.6l2.1-4.2c0.2-0.3-0.2-0.7-0.6-0.7H49.1c-0.8,0-0.9,0.6-0.1,0.6c0.7,0,0.7,1,0.1,1.4l-6.1,4.8l1.2,5.7c0.1,0.4,0.4,0.7,0.9,0.7
		h11.8c0.5,0,0.7-0.2,0.9-0.4l2.1-3.8C60.1,50,59.4,50,59.1,50.5L59.1,50.5z M50.9,47.8h-1.1c-0.1,0-0.2,0.1-0.2,0.2
		c0,0,0.1,0.1,0.2,0.1h1.1c0.3,0,0.7,0.1,0.6,0.2l-2.7,5.1c-0.3,0.7-1.1,0.5-1.2,0l-1.3-7l4.7-3.7c0.5-0.4,1.4-1.1,1.9-1.1h1
		c0.7,0,0.9,0.3,0.7,0.7l-0.2,0.4c-0.2,0.2-0.5,0.2-0.8,0.2H53c-0.1,0-0.2,0.1-0.2,0.2c0,0.1,0.1,0.2,0.2,0.2h0.6
		c0.2,0,0.6,0,0.4,0.2l-2.2,4.2C51.7,47.8,51.2,47.8,50.9,47.8L50.9,47.8z"/>
	<path class="st2" d="M41.1,54c-0.3,0-0.6-0.2-0.7-0.5c-0.1-0.2-0.1-0.8,0.1-1.1l5.5-9.8c0.1-0.2,0.3-0.5,0.6-0.5
		c0.5,0,0.7-0.7-0.1-0.7H42c-0.8,0-0.9,0.6-0.1,0.6c0.3,0,0.5,0.3,0.4,0.6l-1.2,2.2c-0.2,0.2-0.5,0.2-0.9,0.2h-1.1
		c-0.1,0-0.1,0.1-0.1,0.2c0,0,0,0.1,0.1,0.1h1.1c0.3,0,0.5,0.1,0.3,0.4l-4,7.4c-0.3,0.4-0.9,0.5-0.9-0.2L37.1,42
		c0.1-0.4-0.1-0.6-0.4-0.6h-2.2c-0.2,0-0.4,0.1-0.5,0.2l-0.8,1c-0.1,0.2-0.3,0.2-0.6,0.2h-1.8c-0.1,0-0.2,0-0.2,0.1
		c0,0.1,0.1,0.2,0.2,0.2h1.5c0.2,0,0.6,0.1,0.5,0.2l-2.1,2.6C30.6,46,30.5,46,30.3,46L29.7,46c-0.1,0-0.2,0.1-0.2,0.2
		c0,0.1,0.1,0.2,0.2,0.2h0.5c0.2,0,0.2,0.1,0.1,0.2l-2,2.4C28.3,49,28,49,27.8,49h-1.7C26,49,26,49.1,26,49.1c0,0.1,0.1,0.2,0.2,0.2
		h1.5c0.2,0,0.4,0,0.2,0.2L25.1,53c-0.5,0.7-3,1-3.6,1L31,36.2c0.1-0.2,0.4-0.5,0.8-0.5h2c1,0,0.9-0.7,0.1-0.7H23.8
		c-0.8,0-0.8,0.7,0.1,0.7h1.9c0.6,0,0.7,0.3,0.6,0.6L26,36.8c-0.1,0.2-0.2,0.2-0.7,0.2H22c-0.1,0-0.2,0-0.2,0.1
		c0,0.1,0.1,0.2,0.2,0.2h3.3c0.2,0,0.5,0,0.2,0.3l-0.4,0.9c-0.1,0.1-0.3,0.2-0.5,0.2h-1.6c-0.1,0-0.2,0.1-0.2,0.2
		c0,0.1,0.1,0.1,0.2,0.1h1.5c0.2,0,0.2,0.2,0.2,0.4l-1.1,2c-0.1,0.2-0.2,0.2-0.6,0.2h-0.6c-0.1,0-0.2,0.1-0.2,0.2
		c0,0.1,0.1,0.1,0.2,0.1H23c0.2,0,0.2,0.2,0.2,0.4l-0.8,1.6C22.2,43.9,22,44,21.5,44h-3.3C18,44,18,44.1,18,44.2
		c0,0.1,0.1,0.2,0.2,0.2h3.3c0.4,0,0.6,0.2,0.4,0.4l-1.7,3.2c-0.1,0.2-0.4,0.2-0.9,0.2h-3.3c-0.1,0-0.2,0.1-0.2,0.2
		c0,0.1,0.1,0.2,0.2,0.2h3.3c0.4,0,0.7,0,0.6,0.2l-1,1.9c-0.2,0.3-0.7,0.3-0.9,0.3h-1.1c-0.1,0-0.2,0-0.2,0.1c0,0.1,0.1,0.2,0.2,0.2
		h1.1c0.3,0,0.6,0.1,0.4,0.2L17,53.7C16.9,54,16.3,54,16,54h-5.1c-0.1,0-0.2,0.1-0.2,0.2c0,0.1,0.1,0.1,0.2,0.1H16
		c0.3,0,0.7,0.1,0.6,0.3l-0.8,1.6c-0.1,0.2-0.4,0.2-0.8,0.2h-1.1c-0.1,0-0.1,0.1-0.1,0.2c0,0.1,0,0.1,0.1,0.1h1.1
		c0.2,0,0.6,0.1,0.5,0.2l-0.6,1c-0.2,0.3-0.3,0.5-0.7,0.5h-2.5c-1,0-1,0.7-0.2,0.7h15.1c0.5,0,0.5-0.1,0.7-0.4l2.3-3.8h11.4
		C41.7,54.6,41.5,54,41.1,54L41.1,54z M32.1,52.8c-0.2,0.6-0.8,1.1-1.6,1.2l-0.8,0.2l0.7-1.2c0.2-0.3-0.2-0.6-0.7-0.1
		c-2.9,3.4-3.9,5.1-8.4,5.1h-1.2c-0.3,0-0.7-0.2-0.5-0.5l1.6-2.9h6c0.8,0,0.6-0.7,0.1-0.7c-0.3,0-0.7-0.2-0.9-0.6
		c-0.1-0.2-0.2-0.6,0-0.9l2.4-3.1h3.8L32.1,52.8L32.1,52.8z M32.9,48.9h-3.8l4.8-6.3L32.9,48.9L32.9,48.9z"/>
	<path class="st2" d="M90.1,50.9c-0.1-0.3-0.2-0.2-0.4,0.2c0,0.1-0.2,0.1-0.4,0.1h-0.7c-0.1,0-0.1,0.1-0.1,0.2c0,0.1,0,0.2,0.1,0.2
		h0.7c0.2,0,0.2,0.2,0.1,0.3C89,52.7,88.6,53.3,88,54c-0.1,0.2-0.3,0.2-0.5,0.2h-0.7c-0.1,0-0.1,0-0.1,0.1c0,0.1,0,0.2,0.1,0.2h0.7
		c0.2,0-0.1,0.2-0.1,0.2c-1.1,1.4-1.8,2-2.5,2.7c-0.2,0.1-0.6,0-0.9,0h-0.6c-0.1,0-0.2,0.1-0.2,0.2c0,0.1,0.1,0.2,0.2,0.2H84
		c0.5,0,0.2,0.2,0.1,0.2c-1.6,1.4-4.1,1.9-5.2,1.7c-3.7-0.5-4.4-3.2-4.7-4.3c-0.1-0.2-0.2-0.7-0.3-1c-0.1-0.6,1.6-0.7,2-0.5
		c0.7,0.5,2.3,1,3.5,1c1.1,0,3.6-0.8,4.2-2.9c0.7-2-1.1-4.3-1.9-5.1c-1-1-1.9-2.5-1.6-3.8c0.3-0.9,0.8-1.2,1.9-1.2
		c1.4,0,2.4,0.9,2.4,2.1c0,0.1-0.1,0.2-0.2,0.2h-0.5c-0.1,0-0.2,0.1-0.2,0.2c0,0.1,0.1,0.1,0.2,0.1h0.5c0.1,0,0.2,0.2,0.2,0.3
		c-0.1,0.4-0.2,0.7-0.2,1.1c-0.1,0.2,0.3,0.4,0.4,0.2l2.2-3.9c0.2-0.3-0.2-0.4-0.4-0.3c-0.7,0.2-1.6,0.4-2,0.2c-0.8-0.7-1.6-1-2.7-1
		c-2,0-3.3,0.5-4.2,2c-0.1,0.2-0.2,0.2-0.4,0.2h-0.4c-0.1,0-0.2,0-0.2,0.1c0,0.1,0.1,0.2,0.2,0.2h0.3c0.2,0,0.2,0,0.2,0.2
		c-0.1,0.2-0.1,0.3-0.2,0.5C77,45,77.1,46,77.4,46.9c0.1,0.1,0,0.1-0.2,0.1h-0.6c-0.1,0-0.2,0.1-0.2,0.2c0,0,0.1,0.1,0.2,0.1h0.6
		c0.2,0,0.3,0,0.5,0.2c0.2,0.5,0.6,0.8,1,1.3c0.1,0.2-0.4,0.2-0.7,0.2h-2.4c-0.1,0-0.2,0.1-0.2,0.2s0.1,0.1,0.2,0.1H78
		c0.4,0,1.1,0,1.1,0.1c0.6,0.7,1.2,1.7,1.4,2.6c0,0.2-0.1,0.3-0.4,0.3h-0.3c-0.1,0-0.1,0.1-0.1,0.2c0,0.1,0,0.1,0.1,0.1h0.3
		c0.2,0,0.3,0.1,0.3,0.2c-0.3,1-0.8,1.7-2.7,1.7c-2,0-2.4-2-1.8-4c0.1-0.4,0-0.6-0.2-0.2l-1.4,2.1c-0.1,0.1-0.2,0.2-0.4,0.2h-0.2
		c-0.1,0-0.2,0.1-0.2,0.2c0,0.1,0.1,0.2,0.2,0.2c0.2,0,0.2,0.1,0.2,0.2l-0.5,0.8c-0.9-2-2.3-4.2-3-5.1l0,0c1.9-0.2,4.6-1.9,5.1-3.4
		c0.7-2.6-1.9-3.6-3.3-3.6h-6.2c-0.8,0-0.9,0.6-0.1,0.6c0.4,0,0.8,0.4,0.6,0.8l-1.4,2.4c-0.1,0.2-0.5,0.2-1.1,0.2h-0.6
		c-0.1,0-0.2,0.1-0.2,0.2c0,0.1,0.1,0.1,0.2,0.1h0.6c0.4,0,0.8,0.1,0.7,0.3L63.2,49c-0.1,0.2-0.2,0.2-0.8,0.2h-0.6
		c-0.1,0-0.2,0.1-0.2,0.2c0,0.1,0.1,0.1,0.2,0.1h0.6c0.4,0,0.6,0.1,0.5,0.3l-2.2,3.9c-0.2,0.2-0.6,0.3-1.1,0.3c-0.8,0-0.8,0.7,0,0.7
		h5.3c0.8,0,0.7-0.7,0.2-0.7c-0.3,0-0.6-0.6-0.4-0.8l2.7-5.1h0.3c1.1,0,1.5,2,1.7,4.1c0,0.2-0.3,0.2-0.9,0.2h-1.5
		c0,0-0.1,0.1-0.1,0.2c0,0.1,0.1,0.2,0.1,0.2h1.5c0.4,0,0.9,0,1,0.1c0.1,1,0.2,1.8,0.3,2.5c0.1,0.2-0.4,0.2-0.8,0.2h-2l-0.1,0.1
		c0,0.1,0.1,0.2,0.1,0.2h2c0.6,0,0.9,0,1,0.2c0.8,3,4.3,5.4,7.8,5.2c3-0.1,5.5-1.7,6.8-2.7c1.7-1.4,4.2-4.2,5.2-6.4
		C89.9,51.7,90.2,51.2,90.1,50.9L90.1,50.9z M70.2,46.8c-0.4,0.3-1.1,0.7-1.1,0.7c-0.2-0.2-0.7-0.6-1.1-0.7l2.4-4.5
		c0.2-0.2,0.2-0.2,0.5-0.2c1,0,1.3,1.1,0.8,2.4C71.5,45.2,70.9,46.2,70.2,46.8L70.2,46.8z"/>
	<path class="st2" d="M40.3,37.5c-0.6,0.7-1.2,0.8-2,0.8h-0.2l1.3-2.6c0-0.2,0.2-0.2,0.3-0.2c0.2,0,0.2-0.3-0.1-0.3h-2
		c-0.2,0-0.2,0.3-0.1,0.3c0.2,0,0.2,0.2,0.2,0.4l-1.2,2.3c-0.1,0.1-0.2,0.2-0.3,0.2c-0.2,0.1-0.3,0.4-0.1,0.4h3.3
		c0.2,0,0.3-0.2,0.4-0.2l0.7-1C40.6,37.3,40.4,37.3,40.3,37.5L40.3,37.5z"/>
	<path class="st2" d="M50.2,35.2c-0.1,0.1-0.3,0.1-0.4,0c-0.3-0.2-0.8-0.3-1.1-0.3c-0.8,0-1.4,0.1-1.7,0.8c-0.2,0.7,0,1.1,0.7,1.5
		c0.2,0.2,0.7,0.3,0.5,0.7c-0.1,0.2-0.4,0.2-0.7,0.2c-0.4,0-0.9-0.2-1-0.8c-0.1-0.2-0.2-0.1-0.3,0l-0.5,0.9c0,0.2,0.2,0.2,0.2,0.2
		c0.2-0.2,0.5-0.2,0.7-0.1c0.2,0.2,0.8,0.5,1.2,0.4c0.7,0,1.3-0.2,1.7-0.8c0.4-0.7,0.2-1.2-0.6-1.6c-0.4-0.2-0.7-0.6-0.6-0.9
		c0.2-0.2,0.5-0.2,0.7-0.2c0.3,0.1,0.7,0.4,0.7,0.7c0.1,0.1,0.2,0.2,0.2,0l0.2-0.6C50.4,35.3,50.3,35.2,50.2,35.2L50.2,35.2z"/>
	<path class="st2" d="M73.1,36.2l0.2-0.6c0.2-0.2-0.1-0.5-0.4-0.5h-3.8c-0.2,0-0.2,0.3-0.1,0.3c0.2,0,0.3,0.2,0.2,0.5L68,38.1
		c-0.2,0.2-0.2,0.2-0.5,0.2c-0.2,0-0.3,0.3,0,0.3h3.8c0.2,0,0.2-0.1,0.3-0.2l0.5-0.7c0.2-0.2-0.1-0.2-0.2-0.1
		c-0.7,0.7-1.4,0.7-2,0.7h-0.4l0.5-1.1h0.1c0.4,0,0.7,0,0.9,0.2c0,0.1,0.2,0.1,0.2,0l0.5-0.9c0-0.2-0.2-0.2-0.2-0.1
		c-0.2,0.3-1,0.2-1.1,0.2h-0.2l0.7-1.3h0.7c0.4,0,0.8,0.3,1,0.7C72.7,36.2,73,36.2,73.1,36.2L73.1,36.2z"/>
	<path class="st2" d="M63.2,35.1h-1.3c-0.3,0-0.2,0.3-0.1,0.3c0.2,0,0.5,0.3,0.3,0.7l-0.6,1l-1.2-1.8c-0.1-0.1-0.2-0.2-0.4-0.2h-1.4
		c-0.2,0-0.2,0.3-0.1,0.3c0.2,0,0.2,0.2,0.2,0.3l-1.1,2c-0.1,0.2-0.4,0.2-0.5,0l-0.8-2.7c-0.1-0.1-0.5-0.1-0.7,0l-2,1.7h-1.1
		c-0.2,0-0.2,0.1-0.2,0.2c0,0.2,0.1,0.2,0.2,0.2H53l-0.6,0.5c-0.2,0.2-0.6,0.6-0.8,0.6h-0.2c-0.2,0-0.2,0-0.2,0.2
		c0,0.2,0.1,0.2,0.2,0.2h1.7c0.2,0,0.2-0.4,0.1-0.4c-0.2,0-0.5-0.2-0.2-0.6l0.6-0.5h1c0.6,0,1,0.7,0.7,0.9l-0.2,0.2
		c-0.2,0.1-0.2,0.4,0,0.4h3.3c0.2,0,0.2-0.3,0.1-0.3c-0.3,0-0.2-0.5-0.2-0.7l0.9-1.6l1.2,2.4c0.1,0.2,0.2,0.2,0.2,0.2H61
		c0.2,0,0.2-0.1,0.2-0.2l1.4-2.4c0.2-0.5,0.4-0.6,0.7-0.6C63.4,35.4,63.5,35.1,63.2,35.1L63.2,35.1z M54,36.8l1.3-1.1v1.1H54
		L54,36.8z"/>
	<path class="st2" d="M43.8,34.9c-1.1,0-2.3,0.6-2.5,1.8c-0.2,1.1,0.5,2.1,1.8,2.1c1.2,0,2.4-0.8,2.6-2C45.9,35.8,45,34.9,43.8,34.9
		L43.8,34.9z M44.1,37.1c-0.3,0.7-0.9,1.2-1.3,1c-0.4-0.2-0.4-0.9-0.1-1.6c0.4-0.7,1-1.1,1.4-1C44.5,35.7,44.5,36.4,44.1,37.1
		L44.1,37.1z"/>
	<path class="st2" d="M67.1,36.7h-1.5c-0.2,0-0.2,0.2-0.1,0.2c0.1,0,0.2,0.1,0.2,0.2c0,0.7-0.2,0.9-0.8,0.9c-0.6,0-0.7-0.7-0.3-1.6
		c0.2-0.6,0.8-1.1,1.6-1.1c0.4,0,0.8,0.1,0.9,0.6c0,0.1,0.2,0.1,0.2,0l0.3-0.7c0.1-0.1,0-0.2-0.2-0.2c-0.1,0-0.2,0.2-0.4,0
		c-0.2-0.2-0.9-0.4-1.4-0.4c-0.8,0-2,0.2-2.7,1.5c-0.7,1.2,0.3,2.4,1.2,2.4c0.5,0,1.1-0.4,1.5-0.5l0.3,0.2c0.1,0.1,0.2,0.2,0.3,0.2
		h0.2c0.1,0,0.2-0.2,0.2-0.3l0.6-1.4C67.5,36.8,67.4,36.7,67.1,36.7L67.1,36.7z"/>
	<path class="st2" d="M87.4,35.2c-0.2,0.1-0.3,0.1-0.5,0c-0.2-0.2-0.7-0.3-1.1-0.3c-0.7,0-1.3,0.1-1.6,0.8c-0.3,0.7,0,1.1,0.7,1.5
		c0.3,0.2,0.7,0.3,0.6,0.7c-0.1,0.2-0.4,0.2-0.7,0.2c-0.4,0-1-0.2-1.1-0.8c0-0.2-0.2-0.1-0.2,0L83,38.2c-0.1,0.2,0.1,0.2,0.2,0.2
		c0.2-0.2,0.6-0.2,0.7-0.1c0.2,0.2,0.8,0.5,1.1,0.4c0.8,0,1.3-0.2,1.7-0.8c0.4-0.7,0.2-1.2-0.5-1.6c-0.4-0.2-0.7-0.6-0.6-0.9
		c0.1-0.2,0.5-0.2,0.7-0.2c0.3,0.1,0.7,0.4,0.7,0.7c0,0.1,0.2,0.2,0.2,0l0.2-0.6C87.7,35.3,87.4,35.2,87.4,35.2L87.4,35.2z"/>
	<path class="st2" d="M77.1,37.5c-0.5,0.7-1.1,0.8-1.9,0.8H75l1.3-2.6c0-0.2,0.2-0.2,0.3-0.2c0.2,0,0.2-0.3-0.1-0.3h-2
		c-0.2,0-0.2,0.3-0.1,0.3c0.2,0,0.2,0.2,0.2,0.4l-1.2,2.3c-0.1,0.1-0.2,0.2-0.3,0.2c-0.2,0.1-0.3,0.4-0.1,0.4h3.3
		c0.2,0,0.3-0.2,0.4-0.2l0.7-1C77.4,37.3,77.2,37.3,77.1,37.5L77.1,37.5z"/>
	<path class="st2" d="M82,35.4c0.5,0,0.9,0.3,1,0.7c0.1,0.1,0.3,0.2,0.3,0.1l0.3-0.6c0.1-0.2-0.1-0.5-0.4-0.5h-3.8
		c-0.3,0-0.2,0.3-0.1,0.3c0.2,0,0.3,0.2,0.2,0.5l-1.1,2.2c-0.2,0.2-0.3,0.2-0.6,0.2c-0.2,0-0.2,0.3,0,0.3h3.9c0.2,0,0.2-0.1,0.3-0.2
		l0.5-0.7c0.2-0.2-0.2-0.2-0.2-0.1c-0.7,0.7-1.4,0.7-1.9,0.7h-0.5l0.6-1.1h0.1c0.3,0,0.7,0,0.8,0.2c0.1,0.1,0.2,0.1,0.3,0l0.4-0.9
		c0.1-0.2-0.1-0.2-0.2-0.1c-0.2,0.3-1,0.2-1.2,0.2h-0.1l0.7-1.3H82L82,35.4z"/>
	<path class="st2" d="M59.1,50.5c-2.3,2.7-3.5,3.6-5.8,3.6c-0.7,0-1.1-0.2-1-0.5l2.7-5.4h1.1c1.1,0,1,0.9,0.7,2.2
		c-0.1,0.2,0.1,0.2,0.2,0.1l2.5-4.5c0.1-0.3-0.2-0.3-0.3-0.2c-1.3,1.8-2.7,1.6-3.2,1.6h-0.5l2.9-5.5h1.1c1.5,0.1,2.1,1.3,1.7,4.3
		h0.6l2.1-4.2c0.2-0.3-0.2-0.7-0.6-0.7H49.1c-0.8,0-0.9,0.6-0.1,0.6c0.7,0,0.7,1,0.1,1.4l-6.1,4.8l1.2,5.7c0.1,0.4,0.4,0.7,0.9,0.7
		h11.8c0.5,0,0.7-0.2,0.9-0.4l2.1-3.8C60.1,50,59.4,50,59.1,50.5L59.1,50.5z M50.9,47.8h-1.1c-0.1,0-0.2,0.1-0.2,0.2
		c0,0,0.1,0.1,0.2,0.1h1.1c0.3,0,0.7,0.1,0.6,0.2l-2.7,5.1c-0.3,0.7-1.1,0.5-1.2,0l-1.3-7l4.7-3.7c0.5-0.4,1.4-1.1,1.9-1.1h1
		c0.7,0,0.9,0.3,0.7,0.7l-0.2,0.4c-0.2,0.2-0.5,0.2-0.8,0.2H53c-0.1,0-0.2,0.1-0.2,0.2c0,0.1,0.1,0.2,0.2,0.2h0.6
		c0.2,0,0.6,0,0.4,0.2l-2.2,4.2C51.7,47.8,51.2,47.8,50.9,47.8L50.9,47.8z"/>
	<path class="st2" d="M41.1,54c-0.3,0-0.6-0.2-0.7-0.5c-0.1-0.2-0.1-0.8,0.1-1.1l5.5-9.8c0.1-0.2,0.3-0.5,0.6-0.5
		c0.5,0,0.7-0.7-0.1-0.7H42c-0.8,0-0.9,0.6-0.1,0.6c0.3,0,0.5,0.3,0.4,0.6l-1.2,2.2c-0.2,0.2-0.5,0.2-0.9,0.2h-1.1
		c-0.1,0-0.1,0.1-0.1,0.2c0,0,0,0.1,0.1,0.1h1.1c0.3,0,0.5,0.1,0.3,0.4l-4,7.4c-0.3,0.4-0.9,0.5-0.9-0.2L37.1,42
		c0.1-0.4-0.1-0.6-0.4-0.6h-2.2c-0.2,0-0.4,0.1-0.5,0.2l-0.8,1c-0.1,0.2-0.3,0.2-0.6,0.2h-1.8c-0.1,0-0.2,0-0.2,0.1
		c0,0.1,0.1,0.2,0.2,0.2h1.5c0.2,0,0.6,0.1,0.5,0.2l-2.1,2.6C30.6,46,30.5,46,30.3,46L29.7,46c-0.1,0-0.2,0.1-0.2,0.2
		c0,0.1,0.1,0.2,0.2,0.2h0.5c0.2,0,0.2,0.1,0.1,0.2l-2,2.4C28.3,49,28,49,27.8,49h-1.7C26,49,26,49.1,26,49.1c0,0.1,0.1,0.2,0.2,0.2
		h1.5c0.2,0,0.4,0,0.2,0.2L25.1,53c0,0-0.1,0.1-0.1,0.1c0.1,0.5,0.2,1,0.4,1.5h2c0.8,0,0.6-0.7,0.1-0.7c-0.3,0-0.7-0.2-0.9-0.6
		c-0.1-0.2-0.2-0.6,0-0.9l2.4-3.1h3.8l-0.6,3.4c-0.2,0.6-0.8,1.1-1.6,1.2l-0.8,0.2l0.7-1.2c0.2-0.3-0.2-0.6-0.7-0.1
		c-1.5,1.7-2.5,3-3.7,3.8c0.3,0.7,0.6,1.3,0.9,2c0.1-0.1,0.2-0.2,0.3-0.4l2.3-3.8h11.4C41.7,54.6,41.5,54,41.1,54L41.1,54z
		 M24.4,48.5L31,36.2c0.1-0.2,0.4-0.5,0.8-0.5h2c1,0,0.9-0.7,0.1-0.7H28c-2.3,3.7-3.6,8.2-3.6,12.9C24.4,48.2,24.4,48.3,24.4,48.5
		L24.4,48.5z M32.9,48.9h-3.8l4.8-6.3L32.9,48.9L32.9,48.9z"/>
	<path class="st2" d="M71.9,50.5c-0.5-0.9-1-1.6-1.3-2l0,0c0.5,0,1-0.2,1.5-0.4c0,0,0-0.1,0-0.1c0-1.2-0.1-2.4-0.3-3.6
		c-0.3,0.9-0.8,1.8-1.5,2.4c-0.4,0.3-1.1,0.7-1.1,0.7c-0.2-0.2-0.7-0.6-1.1-0.7l2.4-4.5c0.2-0.2,0.2-0.2,0.5-0.2c0.1,0,0.2,0,0.3,0
		c0-0.2-0.1-0.4-0.1-0.5h-5c-0.8,0-0.9,0.6-0.1,0.6c0.4,0,0.8,0.4,0.6,0.8l-1.4,2.4c-0.1,0.2-0.5,0.2-1.1,0.2h-0.6
		c-0.1,0-0.2,0.1-0.2,0.2c0,0.1,0.1,0.1,0.2,0.1h0.6c0.4,0,0.8,0.1,0.7,0.3L63.2,49c-0.1,0.2-0.2,0.2-0.8,0.2h-0.6
		c-0.1,0-0.2,0.1-0.2,0.2c0,0.1,0.1,0.1,0.2,0.1h0.6c0.4,0,0.6,0.1,0.5,0.3l-2.2,3.9c-0.2,0.2-0.6,0.3-1.1,0.3c-0.8,0-0.8,0.7,0,0.7
		h5.3c0.8,0,0.7-0.7,0.2-0.7c-0.3,0-0.6-0.6-0.4-0.8l2.7-5.1h0.3c1.1,0,1.5,2,1.7,4.1c0,0.2-0.3,0.2-0.9,0.2h-1.5
		c0,0-0.1,0.1-0.1,0.2c0,0.1,0.1,0.2,0.1,0.2h1.5c0.4,0,0.9,0,1,0.1c0.1,1,0.2,1.8,0.3,2.5c0.1,0.2-0.4,0.2-0.8,0.2h-2l-0.1,0.1
		c0,0.1,0.1,0.2,0.1,0.2h2c0.6,0,0.9,0,1,0.2c0.1,0.3,0.2,0.7,0.4,1C71.1,54.9,71.6,52.7,71.9,50.5L71.9,50.5z"/>
	<path class="st2" d="M40.3,37.5c-0.6,0.7-1.2,0.8-2,0.8h-0.2l1.3-2.6c0-0.2,0.2-0.2,0.3-0.2c0.2,0,0.2-0.3-0.1-0.3h-2
		c-0.2,0-0.2,0.3-0.1,0.3c0.2,0,0.2,0.2,0.2,0.4l-1.2,2.3c-0.1,0.1-0.2,0.2-0.3,0.2c-0.2,0.1-0.3,0.4-0.1,0.4h3.3
		c0.2,0,0.3-0.2,0.4-0.2l0.7-1C40.6,37.3,40.4,37.3,40.3,37.5L40.3,37.5z"/>
	<path class="st2" d="M50.2,35.2c-0.1,0.1-0.3,0.1-0.4,0c-0.3-0.2-0.8-0.3-1.1-0.3c-0.8,0-1.4,0.1-1.7,0.8c-0.2,0.7,0,1.1,0.7,1.5
		c0.2,0.2,0.7,0.3,0.5,0.7c-0.1,0.2-0.4,0.2-0.7,0.2c-0.4,0-0.9-0.2-1-0.8c-0.1-0.2-0.2-0.1-0.3,0l-0.5,0.9c0,0.2,0.2,0.2,0.2,0.2
		c0.2-0.2,0.5-0.2,0.7-0.1c0.2,0.2,0.8,0.5,1.2,0.4c0.7,0,1.3-0.2,1.7-0.8c0.4-0.7,0.2-1.2-0.6-1.6c-0.4-0.2-0.7-0.6-0.6-0.9
		c0.2-0.2,0.5-0.2,0.7-0.2c0.3,0.1,0.7,0.4,0.7,0.7c0.1,0.1,0.2,0.2,0.2,0l0.2-0.6C50.4,35.3,50.3,35.2,50.2,35.2L50.2,35.2z"/>
	<path class="st2" d="M69,36.2l-1,1.9c-0.2,0.2-0.2,0.2-0.5,0.2c-0.2,0-0.3,0.3,0,0.3h2.7c0-0.1-0.1-0.2-0.1-0.3c0,0,0,0,0,0h-0.4
		l0.2-0.5C69.6,37.3,69.3,36.7,69,36.2L69,36.2z"/>
	<path class="st2" d="M63.2,35.1h-1.3c-0.3,0-0.2,0.3-0.1,0.3c0.2,0,0.5,0.3,0.3,0.7l-0.6,1l-1.2-1.8c-0.1-0.1-0.2-0.2-0.4-0.2h-1.4
		c-0.2,0-0.2,0.3-0.1,0.3c0.2,0,0.2,0.2,0.2,0.3l-1.1,2c-0.1,0.2-0.4,0.2-0.5,0l-0.8-2.7c-0.1-0.1-0.5-0.1-0.7,0l-2,1.7h-1.1
		c-0.2,0-0.2,0.1-0.2,0.2c0,0.2,0.1,0.2,0.2,0.2H53l-0.6,0.5c-0.2,0.2-0.6,0.6-0.8,0.6h-0.2c-0.2,0-0.2,0-0.2,0.2
		c0,0.2,0.1,0.2,0.2,0.2h1.7c0.2,0,0.2-0.4,0.1-0.4c-0.2,0-0.5-0.2-0.2-0.6l0.6-0.5h1c0.6,0,1,0.7,0.7,0.9l-0.2,0.2
		c-0.2,0.1-0.2,0.4,0,0.4h3.3c0.2,0,0.2-0.3,0.1-0.3c-0.3,0-0.2-0.5-0.2-0.7l0.9-1.6l1.2,2.4c0.1,0.2,0.2,0.2,0.2,0.2H61
		c0.2,0,0.2-0.1,0.2-0.2l1.4-2.4c0.2-0.5,0.4-0.6,0.7-0.6C63.4,35.4,63.5,35.1,63.2,35.1L63.2,35.1z M54,36.8l1.3-1.1v1.1H54
		L54,36.8z"/>
	<path class="st2" d="M43.8,34.9c-1.1,0-2.3,0.6-2.5,1.8c-0.2,1.1,0.5,2.1,1.8,2.1c1.2,0,2.4-0.8,2.6-2C45.9,35.8,45,34.9,43.8,34.9
		L43.8,34.9z M44.1,37.1c-0.3,0.7-0.9,1.2-1.3,1c-0.4-0.2-0.4-0.9-0.1-1.6c0.4-0.7,1-1.1,1.4-1C44.5,35.7,44.5,36.4,44.1,37.1
		L44.1,37.1z"/>
	<path class="st2" d="M67.1,36.7h-1.5c-0.2,0-0.2,0.2-0.1,0.2c0.1,0,0.2,0.1,0.2,0.2c0,0.7-0.2,0.9-0.8,0.9c-0.6,0-0.7-0.7-0.3-1.6
		c0.2-0.6,0.8-1.1,1.6-1.1c0.4,0,0.8,0.1,0.9,0.6c0,0.1,0.2,0.1,0.2,0l0.3-0.7c0.1-0.1,0-0.2-0.2-0.2c-0.1,0-0.2,0.2-0.4,0
		c-0.2-0.2-0.9-0.4-1.4-0.4c-0.8,0-2,0.2-2.7,1.5c-0.7,1.2,0.3,2.4,1.2,2.4c0.5,0,1.1-0.4,1.5-0.5l0.3,0.2c0.1,0.1,0.2,0.2,0.3,0.2
		h0.2c0.1,0,0.2-0.2,0.2-0.3l0.6-1.4C67.5,36.8,67.4,36.7,67.1,36.7L67.1,36.7z"/>
	<path class="st3" d="M66.9,32.3c-0.3-0.3-0.7-1.1-3.7-3.7c-4.2-3.8-10-5.5-15.3-5.5c-4,0-7.4,0.9-11.3,3c-4.9,2.7-6.9,5.8-7.4,6.4
		c-0.3,0.4-0.4,0.7-0.2,0.8c0.2,0.1,0.5-0.2,0.8-0.7c1.5-1.9,3.3-3.8,5.4-4.9c0.7,0.1,1.5,0.9,1.8,1.4c-1.2,0.7-3.3,2.3-4.2,2.9
		c-0.7,0.6-1,0.8-0.8,1.1c0.2,0.2,0.7-0.2,1.1-0.5c0.8-0.7,3.1-2.3,4.2-2.9c0.7,0.9,0.5,2.6,0.2,2.9c-0.2,0.2-0.2,0.4,0,0.5
		c0.2,0.2,0.3-0.1,0.6-0.4c0.5-0.8,0.3-2.6-0.2-3.3c1.4-0.9,3.3-1.5,4.6-1.7c0.1,0.2,1.6,4.4,1.9,5.2c0.2,0.4,0.2,0.9,0.6,0.8
		c0.2-0.1,0.1-0.5-0.1-1c-0.2-0.6-1.3-4.2-1.6-5.2c0.3-0.2,2.8-0.7,3.3-0.7c-0.2,1.6,0.8,2.2,2,3c0.7,0.4,4.9,2.9,5.8,3.3
		c0.5,0.3,0.9,0.6,1,0.4c0.2-0.2-0.2-0.6-0.7-0.8c-0.4-0.2-4.3-2.4-6-3.5c-1.1-0.7-1.8-1.6-1.5-2.6c0.3-0.1,1.6-0.1,2.8-0.1
		c8.3,0.1,15,4.8,15.8,5.6c0.3,0.4,0.9,0.7,1.1,0.6C67.3,33,67.1,32.5,66.9,32.3L66.9,32.3z M37.8,29c-0.2-0.3-1.3-1.3-1.9-1.6
		c1.3-1,4.4-2.4,5.6-2.6c0.2,0.3,0.7,1.8,0.9,2.4C41.5,27.4,38.7,28.4,37.8,29L37.8,29z M46.9,26.3c-1.1,0.1-3.1,0.5-3.8,0.7
		c-0.2-0.5-0.7-2-0.8-2.4c2-0.6,4.3-0.7,6.1-0.6C47.9,24.3,47.1,25.9,46.9,26.3L46.9,26.3z M52.3,26.2c-1.8-0.1-3.3-0.2-4.6,0
		c0.4-1,1.1-1.8,1.7-2.2c1.2,0,2.5,0.2,3.5,0.4c3.3,0.7,8.2,2.6,10.4,5.6C60.5,28,55.8,26.5,52.3,26.2L52.3,26.2z"/>
	<path class="st3" d="M68.7,60.9c0.3-0.6,0.6-0.9,0.3-1c-0.2-0.2-0.5,0.3-0.8,0.9c-1,1.6-2,3.1-4.4,5.3C61.1,68.5,58,70,57,70.3
		c-0.9-2.5-4.3-13.5-4.4-13.7c-0.2-0.5-0.3-0.7-0.4-0.6c-0.2,0.1-0.1,0.3,0,0.7c0.1,0.4,4.2,13.3,4.3,13.7c-0.8,0.4-4.2,1.4-6.4,1.4
		c-2,0.1-4.5,0-5.7-0.2c-1.5-1.1-4.7-5.8-6-8.2c-1.5-2.9-2.4-5.6-2.7-6.7c-0.1-0.6-0.2-0.9-0.6-0.9c-0.2,0.1-0.1,0.5,0.1,1.1
		c0.4,1.6,1.1,3.6,2.7,6.6c1.6,3.2,4.5,6.9,5.3,8c-2.6-0.6-5.8-1.8-8.9-4.1c-2.6-2-4.8-4.4-6-6.3c-0.2-0.2-0.4-0.7-0.7-0.6
		c-0.1,0.1,0.1,0.5,0.2,0.8c1.6,2.9,5.6,7.1,10.8,9.5c6,2.6,12.6,2.5,18.4,0.2C62.1,69.1,66.5,65,68.7,60.9L68.7,60.9z"/>
	<path class="st3" d="M29.1,33.5c0.2,0,0.5-0.3,0.7-0.7c1.5-1.9,3.3-3.8,5.4-4.9c0.7,0.1,1.5,0.9,1.8,1.4c-1.2,0.7-3.3,2.3-4.2,2.9
		c-0.7,0.6-1,0.8-0.8,1.1c0.2,0.2,0.7-0.2,1.1-0.5c0.8-0.7,3.1-2.3,4.2-2.9c0.7,0.9,0.5,2.6,0.2,2.9c-0.2,0.2-0.2,0.4,0,0.5
		c0.2,0.2,0.3-0.1,0.6-0.4c0.5-0.8,0.3-2.6-0.2-3.3c1.4-0.9,3.3-1.5,4.6-1.7c0.1,0.2,1.6,4.4,1.9,5.2c0.2,0.4,0.2,0.9,0.6,0.8
		c0.2-0.1,0.1-0.5-0.1-1c-0.2-0.6-1.3-4.2-1.6-5.2c0.3-0.2,2.8-0.7,3.3-0.7c-0.2,1.6,0.8,2.2,2,3c0.7,0.4,4.9,2.9,5.8,3.3
		c0.5,0.3,0.9,0.6,1,0.4c0.2-0.2-0.2-0.6-0.7-0.8c-0.4-0.2-4.3-2.4-6-3.5c-1.1-0.7-1.8-1.6-1.5-2.6c0.3-0.1,1.6-0.1,2.8-0.1
		c8.3,0.1,15,4.8,15.8,5.6c0.2,0.3,0.6,0.6,0.9,0.6c-4.4-5.7-11.1-9.3-18.8-9.3C40.4,23.8,33.5,27.6,29.1,33.5L29.1,33.5z M37.8,29
		c-0.2-0.3-1.3-1.3-1.9-1.6c1.3-1,4.4-2.4,5.6-2.6c0.2,0.3,0.7,1.8,0.9,2.4C41.5,27.4,38.7,28.4,37.8,29L37.8,29z M46.9,26.3
		c-1.1,0.1-3.1,0.5-3.8,0.7c-0.2-0.5-0.7-2-0.8-2.4c2-0.6,4.3-0.7,6.1-0.6C47.9,24.3,47.1,25.9,46.9,26.3L46.9,26.3z M52.3,26.2
		c-1.8-0.1-3.3-0.2-4.6,0c0.4-1,1.1-1.8,1.7-2.2c1.2,0,2.5,0.2,3.5,0.4c3.3,0.7,8.2,2.6,10.4,5.6C60.5,28,55.8,26.5,52.3,26.2
		L52.3,26.2z"/>
	<path class="st3" d="M68.9,59.9c-0.2,0.1-0.4,0.5-0.7,0.9c-1,1.6-2,3.1-4.4,5.3C61.1,68.5,58,70,57,70.3
		c-0.9-2.5-4.3-13.5-4.4-13.7c-0.2-0.5-0.3-0.7-0.4-0.6c-0.2,0.1-0.1,0.3,0,0.7c0.1,0.4,4.2,13.3,4.3,13.7c-0.8,0.4-4.2,1.4-6.4,1.4
		c-2,0.1-4.5,0-5.7-0.2c-1.5-1.1-4.7-5.8-6-8.2c-1.5-2.9-2.4-5.6-2.7-6.7c-0.1-0.6-0.2-0.9-0.6-0.9c-0.2,0.1-0.1,0.5,0.1,1.1
		c0.4,1.6,1.1,3.6,2.7,6.6c1.6,3.2,4.5,6.9,5.3,8c-2.6-0.6-5.8-1.8-8.9-4.1c-2.6-2-4.8-4.4-6-6.3c-0.2-0.2-0.3-0.5-0.5-0.6
		c4.2,7,11.7,11.7,20.3,11.7C57.1,72.2,64.8,67.2,68.9,59.9L68.9,59.9z"/>
</g>
</svg>
