<?xml version="1.0" encoding="utf-8"?>
<!-- Generator: Adobe Illustrator 19.1.0, SVG Export Plug-In . SVG Version: 6.00 Build 0)  -->
<svg version="1.1" id="Layer_1" xmlns="http://www.w3.org/2000/svg" xmlns:xlink="http://www.w3.org/1999/xlink" x="0px" y="0px"
	 viewBox="0 0 100 100" style="enable-background:new 0 0 100 100;" xml:space="preserve">
<style type="text/css">
	.st0{fill-rule:evenodd;clip-rule:evenodd;fill:#5E8ABC;}
	.st1{fill-rule:evenodd;clip-rule:evenodd;fill:#C4D5DD;}
	.st2{fill-rule:evenodd;clip-rule:evenodd;fill:#F6B02B;}
	.st3{fill-rule:evenodd;clip-rule:evenodd;fill:#313365;}
</style>
<g>
	<path class="st0" d="M49.5,58l-2.2-1.7l-2.7-1.4l-2.2-1.2L40.3,52c0,0-1.8-1.3-2-1.5c-0.2-0.2-1.4-1.3-1.4-1.3l-0.4,1.5l-1.8-1.3
		l-1.8-2l-2-2.7l-1.2-2.4c0,0-0.6-2.3-0.7-2.2c-0.1,0.2-1.2,1-1.2,1l-0.7-2.7L27,34.9l0.6-2.7l1.2-3l1.1-2l1.1-1.3l-0.9-2.3L30,20.7
		l1.2-2.1l2.8-1.1l2.9,0c0,0,1.6,0.7,1.8,1c0.2,0.3,1.4,1.6,1.4,1.6s2.4-0.2,2.6-0.2c0.2,0,3.1,0.2,3.3,0.2c0.2,0,3.4,1.1,3.4,1.1
		l2.4-0.9c0,0,3.2-0.6,3.5-0.6c0.2,0,2.6,0.2,2.6,0.2l1,0.2l1.3-1.4l2.2-1.1l3.1-0.1c0,0,2.2,0.9,2.2,1.1c0.1,0.2,0.9,1.8,0.9,1.8
		l-0.3,0.4l-2.4-0.1l-2.4,0.7L62.1,23l-0.9,1.5l-1.7,1.3l-1.7,0.7l-1.1,1.2l2.6-0.1l3.1,0.8l2.1,1.5l0.2,1.4L64.1,32l-1.9-0.4L60,31
		l-2.3-0.1l-2.2,0.6c0,0-1.7,1.3-1.9,1.4c-0.2,0.1-1.8,1.7-1.8,1.7l-1.7,0.2l-1.9-0.2l-1.9-1.2l-1.8-1.3L42.6,31l-1.8-0.5h-0.8
		l0.2,1.7l0.5,1.2l0.9,0.9l1,0.9l-0.4,2.7l-0.1,2.4l0.3,2.2l0.5,2.8l0.7,2.7l0.7,1.8l0.6,1l0.5,0.9l1.1,0.5l2,0.2l2.1,0.2l-0.1,2.8
		l-0.4,2L49.5,58L49.5,58z"/>
	<path class="st1" d="M49.9,50c0.9,0,1.7,0,2.7,0.4c0.6,0.2,0.9,0.5,0.9,0.9c-0.3,1.3-5.6,1.2-6.7,1c-0.9-0.2-1.6-0.6-2-1.5
		c-1.9-4.1-3.1-8.9-2.2-13.3l0.5-2.5c-0.9-0.6-2-1-2.5-2.1c-0.4-0.7-0.3-1.6-0.3-2.3c2.4,0,3.8,1.3,4.6,2c1.6,1.4,3.1,1.8,5.1,2.1
		V50L49.9,50z"/>
	<path class="st2" d="M45.2,33c-0.8,0.4-1.2,0.8-1.7,1.4c-1.5-0.9-1.4-2.4-1.2-3.6C43.6,31.4,44.3,31.8,45.2,33L45.2,33z"/>
	<path class="st3" d="M38.2,21.8c-1.2-1.3-3.1-2.8-5.1-1c0.9,0.1,1.4,0.1,2.2,0.6c-1.5,0-2.2,0.1-2.8,1.6c0.7-0.4,1-0.3,1.8-0.2
		c-1.1,0.8-1.3,1.3-1.4,2.7C34.3,24,36,22.6,38.2,21.8L38.2,21.8z"/>
	<path class="st0" d="M51,47.4l0.9-1.2l0,0l0.1-0.1l0,0l0,0v0l0,0l0,0v-0.1l0,0l0-0.1v0l0-0.1v-0.1l0,0v-0.1l0-0.1v-0.1V45v0v-0.1
		v-0.1v0v0v-0.1l0,0v-0.1l0,0l0-0.1l0,0l-0.1,0l0-0.1l-0.1,0l-0.1,0l-0.1,0l-0.1-0.1l-0.1,0l-0.1,0h-0.1l-0.1,0l-0.1,0h-0.1l-0.1,0
		h-0.1l-0.1,0h-0.1h-0.1l-0.1,0h-0.1h-0.1h-0.1H50h-0.1h-0.1l-0.1,0l-0.2,0l0-1.3l0.3,0h0.1l0.1,0h0.1h0.1h0.1h0.1h0.1l0.1,0h0.1
		l0.1,0h0.1h0.1h0.1l0.1,0h0.2l0.2,0l0.2,0l0.1,0l0.2,0l0.2,0l0.2,0l0.2,0.1l0.2,0.1l0.2,0.1l0.1,0.1l0.1,0.1l0.1,0.1l0.1,0.1
		l0.1,0.2l0.1,0.2l0,0.2l0,0.2l0,0.1v0.2v0.1v0.2l0,0.1V45l0,0.1l0,0.1l0,0.1l0,0.2l0,0.1l0,0.1L53.8,46l0,0.1l-0.1,0.1l-0.1,0.2
		l-0.1,0.1l-0.1,0.2l-0.2,0.1l-0.2,0.1l-0.2,0l-0.2,0.1L51,47.4L51,47.4z M52.6,33.9l0.1-0.2l0.2-0.1l0.2-0.1l0.1-0.1l0.2-0.1
		l0.1-0.2l0.2-0.1l0.1-0.1l0.2-0.1l0.2-0.1l0.1-0.1l0.2-0.1l0.2-0.1l0.2-0.1l0.2-0.1l0.2-0.1l0.2-0.1l0.2-0.1l0.2-0.1l0.2-0.1
		l0.2-0.1l0.2,0l0.2-0.1l0.2-0.1l0.2,0l0.3,0l0.2,0l0.9-0.1l-0.1,0.9l0,0.2l0,0.2l0,0.2l0,0.2l0,0.2l0,0.1l0,0.2L58.1,33l0,0.2
		l-0.1,0.1l0,0.1l-0.1,0.1l-0.1,0.1l-0.1,0.1l-0.1,0.1L57.4,34l-0.1,0.1l-0.1,0.1L57,34.3l-0.1,0.1l-0.1,0.1l-0.1,0.1l-0.1,0
		l-0.2,0.1l-0.1,0.1l-0.2,0l-0.2,0L55.6,35h0l0.1,0.4l0.2,0.4l0.1,0.5l0.1,0.5l0.1,0.5l0.1,0.5l0.1,0.5l0.1,0.5l0.1,0.5l0,0.5l0,0.5
		l0,0.5l0,0.5V42v0.5l0,0.5l0,0.5l0,0.5l0,0.5l-0.1,0.5l-0.1,0.5l-0.1,0.5l-0.1,0.5L56,47.2l-0.2,0.5l-0.2,0.5l-0.2,0.5l-0.3,0.4
		l-0.3,0.4L54.6,50l-0.4,0.6h-0.6l-0.2-0.4l0.2-0.7l0.1-0.5l0.1-0.5l0.1-0.5l0.1-0.5l0.1-0.4l0.1-0.5l0.1-0.5l0.1-0.5l0.1-0.4l0-0.5
		l0.1-0.4l0-0.5v-0.4l0-0.5v-0.5V42v-0.5V41l0-0.5l0-0.4l0-0.5l-0.1-0.5l-0.1-0.4l-0.1-0.5l-0.1-0.4l-0.1-0.5l-0.1-0.4l-0.2-0.5
		l-0.1-0.5l-0.2-0.4l0-0.2H51l1.2-1l0.2-0.2l0.1-0.1L52.6,33.9L52.6,33.9z"/>
	<path class="st2" d="M53.6,33c0.8,0.4,1.2,0.8,1.7,1.4c1.5-0.9,1.3-2.4,1.2-3.6C55.3,31.4,54.5,31.8,53.6,33L53.6,33z"/>
	<path class="st3" d="M49.4,56.5c-1.5-1.2-2.6-1.6-4.3-2.5c-1.6-0.9-3.3-2-4.8-3.2c-1.6-1.3-3-2.9-4.4-4.4l-0.1,2.2
		c-3.6-2.7-5.1-6.5-6.2-10.7l-1.3,1.5c-0.7-5.4-0.3-9.1,3.9-13.5c-1.4-2-2-6,1.2-7.2c2.7-1,4.6,0.7,6,2.7c3.6-0.5,6.5-0.3,9.9,1.1
		c3.3-1.8,6.6-2.2,10.2-0.9c1.4-3.1,4-3.6,7-2.2c-4.5-0.2-5.4,1.5-6.3,3.5c-0.2,0.4-0.8,1-1.3,1.4c-2.6,1.8-3.5,2.3-4,5.6
		c3-1.7,5.4-1.3,8.1,0.6c-2.7-0.7-4.6-0.9-6.4-0.2c-1.3,0.5-2.5,1.4-4,2.7c-0.4,0.3-0.9,0.9-1.8,0.8c-0.4,0-0.6-0.3-0.6-0.9
		l-0.5-7.8l-0.5,0.2l-0.4,7.6c-0.1,2.1-2.8-0.2-3.9-1.1c-2.2-1.9-5.9-3-8.5-1.3c1.1,0,2,0,3.1,0.3c0.1,2.2,0.5,2.8,2.2,4
		c-0.9,5.6-0.2,10.9,2.6,16c1.3,2.3,2.8,2.1,5.2,2.2V56.5L49.4,56.5z M49.3,50.4c2.2,0,3.9,0.4,3.9,0.8c0,0.4-1.8,0.8-3.9,0.8
		c-2.2,0-3.9-0.4-3.9-0.8C45.4,50.8,47.1,50.4,49.3,50.4L49.3,50.4z M45.1,50.2c1.3-0.4,2.7-0.5,4.2-0.5v-2c-0.9-1.3-1.8-3.2-2.8-1
		c-1.5-1.4-1.3-3.6,1.1-3.7l1.7,0v-7.5c-1.3-0.1-2-0.2-3.1-0.9c-1.2-0.8-2-1.8-3-2.4c-0.7-0.4-1.5-0.7-2.5-0.8
		c0.4,1.1,0.7,2.2,1.7,2.9c0.6,0.4,1.4,0.3,2.1,0.3C42.6,39.6,43.3,45.1,45.1,50.2L45.1,50.2z M49.4,59.7c-1-0.9-2-1.9-3.1-2.7
		c-2.1-1.4-4.4-2.4-6.5-3.8c-0.9-0.6-1.6-1.4-2.3-2.2l-0.3,1.4c-4.1-2.5-7.2-6.1-8.5-10.8l-1.1,1c-2.9-6.2-1.4-11.2,2.2-16.7
		c-4.1-7.3,5.5-13.3,10.4-7c3.3-0.5,6.2,0,9.3,1.3c3.1-1.3,6-1.8,9.3-1.3c4.9-6.3,14.6-0.3,10.4,7c3.6,5.5,5,10.6,2.2,16.7l-1.1-1
		c-1.3,4.7-4.4,8.3-8.5,10.8L61.4,51c-0.7,0.8-1.5,1.5-2.3,2.2c-2.1,1.4-4.4,2.4-6.5,3.8C51.4,57.7,50.5,58.8,49.4,59.7L49.4,59.7z
		 M52.2,46.6c0.1-0.2,0.3-0.4,0.4-0.5c0.2-0.4,0.4-1,0.3-1.5c-0.1-0.7-0.8-1.1-1.5-1.3c-0.6-0.2-1.3-0.2-2-0.2l0.1-0.3
		c0.7,0,1.3-0.1,2,0c0.9,0.1,1.8,0.4,2,1.2c0.2,0.6-0.1,1.4-0.4,1.9C53,46.4,52.7,46.5,52.2,46.6L52.2,46.6z M52.3,34.8
		c1.9-1.6,3.1-3.1,5.8-3.5c-0.4,2.2-1,2.8-3.1,3.4c1.8,4.7,2.2,11.2-1,15.4c1.6-5.1,2.1-10.2-0.2-15.3H52.3L52.3,34.8z"/>
	<path class="st3" d="M25,73.2h-3.1V60.6l-0.8-2h8.4c2.7,0,3.1,0.7,3.1,2.9v11.7h-3V62.4c0-0.4-0.1-0.5-0.4-0.5h-0.4v11.2h-2.9V62
		H25V73.2L25,73.2z"/>
	<path class="st0" d="M27.8,60.7v12.5h-1.1V60.7H24v12.5h-1.1V59.6l0,0l0,0h7.1c1.1,0,1.6,0.7,1.6,2v11.6h-1.1V61.6
		c0-0.6-0.3-0.9-0.9-0.9H27.8L27.8,60.7z"/>
	<polygon class="st3" points="40,73.2 33.6,73.2 33.6,63.4 32.8,61.5 39.9,61.5 39.9,64.7 36.5,64.7 36.5,66.1 38.8,66.1 38.8,68.9 
		36.5,68.9 36.5,70.4 40,70.4 40,73.2 	"/>
	<path class="st0" d="M34.5,72.3v-9.7H35l0,0h5v1h-4.4v3.2h3.3v1h-3.3v3.5H40v1C38.1,72.3,36.3,72.3,34.5,72.3L34.5,72.3z"/>
	<path class="st3" d="M43.8,73.2h-2.9v-9.8l-0.7-1.8h7.7c2.5,0,2.9,0.7,2.9,2.7v9H48v-8.1c0-0.4-0.1-0.4-0.4-0.4h-0.5v8.6h-2.7v-8.6
		h-0.8V73.2L43.8,73.2z"/>
	<path class="st0" d="M46.4,63.6v9.6h-1v-9.6h-2.6v9.6h-1V62.6l0,0l0,0h6.6c1,0,1.5,0.6,1.5,1.8v8.8h-1v-8.8c0-0.6-0.3-0.9-0.9-0.9
		H46.4L46.4,63.6z"/>
	<path class="st3" d="M54.4,73.2h-2.8v-9.8l-0.7-1.8h5.4c1.2,0,1.8,0.9,1.8,1.9v4.1c0,0.8-0.8,1.3-1.8,1.3h-2V73.2L54.4,73.2z
		 M55.8,66v-1.5c0-0.2-0.2-0.4-0.4-0.4h-1v2.2h1C55.6,66.3,55.8,66.2,55.8,66L55.8,66z"/>
	<path class="st0" d="M55.9,68.1h-2.4v5.2h-1V62.5h3.4c0.9,0,1.4,0.4,1.4,1.2V67C57.3,67.6,56.8,68.1,55.9,68.1L55.9,68.1z
		 M53.5,67.1h2.2c0.6,0,0.9-0.3,0.9-0.9v-1.9c0-0.7-0.4-0.9-0.9-0.9h-2.2V67.1L53.5,67.1z"/>
	<polygon class="st3" points="65.6,73.2 62.7,73.2 62.7,68.9 61.5,68.9 61.5,73.2 58.6,73.2 58.6,63.4 58,61.5 61.5,61.5 61.5,66.1 
		62.7,66.1 62.8,61.5 65.6,61.5 65.6,73.2 	"/>
	<polygon class="st0" points="60.6,66.8 63.6,66.8 63.6,61.5 64.6,61.5 64.6,73.2 63.6,73.2 63.6,67.8 60.6,67.8 60.6,73.2 
		59.6,73.2 59.6,61.5 60.6,61.5 60.6,66.8 	"/>
	<polygon class="st3" points="69.7,73.2 66.6,73.2 66.6,63.4 65.9,61.5 69.7,61.5 69.7,73.2 	"/>
	<polygon class="st0" points="68.7,61.5 68.7,73.2 67.7,73.2 67.7,61.5 68.7,61.5 	"/>
	<path class="st3" d="M73.6,64.4H75c1.5,0,2.7,1.2,2.8,2.7l0,0v0v3.2c0,1.5-1.3,2.8-2.8,2.8h-1.8c-1.5,0-2.8-1.3-2.8-2.8v-1.9h3.3
		v1.9h0.9v-3.1h-1.4c-1.5,0-2.7-1.3-2.8-2.8l0,0l0,0v-3.1c0-1.6,1.3-2.8,2.8-2.8H75c1.5,0,2.8,1.2,2.8,2.8v2.1h-3.2v-1.9h-0.9V64.4
		L73.6,64.4z"/>
	<path class="st0" d="M75.6,63.4v-1.7l0,0c0-0.5,0-0.8-0.2-0.9c-0.1-0.1-0.4-0.2-0.8-0.2h-1.4c-0.2,0-0.4,0-0.4,0.2
		c-0.1,0.2-0.1,0.5-0.1,0.9v2.8c0,0.2,0,0.4,0.1,0.4c0.1,0.1,0.4,0.1,0.6,0.1h1.4c0.7,0,1.2,0.2,1.5,0.5c0.3,0.4,0.4,0.9,0.4,1.5
		l0,0v3.1l0,0c0,0.7-0.2,1.2-0.5,1.6c-0.3,0.4-0.9,0.5-1.5,0.5l0,0h-1.3c-0.7,0-1.1-0.2-1.4-0.6l0,0c-0.3-0.4-0.4-0.9-0.4-1.4l0,0
		v-1.8h1.1v1.8l0,0c0,0.4,0,0.7,0.2,0.8l0,0c0.1,0.1,0.2,0.2,0.5,0.2h1.3l0,0c0.4,0,0.7,0,0.8-0.2c0.1-0.1,0.2-0.4,0.2-0.8l0,0v-3.1
		l0,0c0-0.4,0-0.7-0.2-0.8c-0.1-0.1-0.3-0.2-0.6-0.2h-1.4c-0.5,0-0.9-0.1-1.3-0.4c-0.4-0.3-0.6-0.7-0.6-1.3v-2.8
		c0-0.5,0.1-1,0.3-1.4c0.2-0.4,0.7-0.7,1.3-0.7h1.4c0.8,0,1.3,0.1,1.6,0.5c0.3,0.4,0.4,0.9,0.4,1.6l0,0v1.7H75.6L75.6,63.4z"/>
	<path class="st0" d="M66.9,76.4l1.5-0.9c0.5-0.3,1.1-0.1,1.4,0.4l0.4,0.6l-1.3,0.8l-0.3-0.4L68,77.2l0.7,1.2l0.6-0.4l0.5-0.3
		c0.4-0.3,1.1-0.1,1.4,0.3l1,1.6c0.3,0.5,0.1,1.2-0.4,1.5L70.3,82c-0.5,0.3-1.2,0.1-1.4-0.4L68.4,81l1.3-0.8l0.3,0.5l0.6-0.3
		L70,79.2l-0.6,0.4l-0.5,0.3c-0.4,0.3-1.1,0-1.4-0.4l-0.9-1.6C66.2,77.3,66.4,76.7,66.9,76.4L66.9,76.4z"/>
	<path class="st0" d="M30.5,75.6l1.4,0.9c0.5,0.4,0.6,1,0.3,1.6l-0.5,0.9L30.5,78l0.4-0.7L30.3,77l-2,3.4l0.5,0.3l0.6-0.9l-0.3-0.2
		l0.5-0.9c0.6,0.4,1.1,0.7,1.7,1l-1.2,1.9c-0.4,0.6-0.9,0.8-1.5,0.5l-1.4-0.9c-0.6-0.3-0.6-0.9-0.3-1.5l2.2-3.6
		C29.3,75.5,30,75.2,30.5,75.6L30.5,75.6z"/>
	<polygon class="st0" points="47.5,86.8 49.2,81.8 48.6,81.8 47.7,82.5 47.7,80.4 51.4,80.4 49.9,85.1 51.5,85.1 51.5,86.7 
		47.5,86.8 	"/>
	<polygon class="st0" points="54.1,86.7 53.6,81.2 53.1,80.3 55.2,80.1 55.7,84.9 57.7,84.6 57.9,86.3 54.1,86.7 	"/>
	<polygon class="st0" points="39.6,85.9 37.9,85.5 39,80.2 38.8,79.1 40.8,79.5 39.6,85.9 	"/>
	<polygon class="st0" points="61.4,85.4 59.7,85.8 58.5,80.5 57.8,79.6 59.9,79.1 61.4,85.4 	"/>
	<path class="st0" d="M35.3,79.4l-0.4,1.1l0.4,0.1c0.3,0.1,0.5-0.1,0.6-0.4c0.1-0.3,0.1-0.6-0.2-0.7L35.3,79.4L35.3,79.4z
		 M35.6,84.9l-1.4-0.5l0.7-1.8c0.1-0.3,0-0.5-0.1-0.6l-0.3-0.1l-0.9,2.2l-1.6-0.6l1.9-5.1l0-1l2.7,1c1.9,0.7,0.2,3.6-0.3,3.6
		c0.1,0.4,0.1,0.8,0,1L35.6,84.9L35.6,84.9z"/>
	<polygon class="st0" points="41.7,86.2 44,81.5 43.4,81.4 42.4,82 42.6,80 46.3,80.4 44.3,84.9 45.8,85.1 45.6,86.7 41.7,86.2 	"/>
	<polygon class="st0" points="67,83.5 63.7,84.7 62,79.7 61.2,78.9 64.8,77.5 65.4,78.9 63.7,79.5 64.1,80.5 65.1,80.2 65.6,81.5 
		64.6,81.9 64.8,82.8 66.5,82.1 67,83.5 	"/>
</g>
</svg>
