<?xml version="1.0" encoding="utf-8"?>
<!-- Generator: Adobe Illustrator 19.1.0, SVG Export Plug-In . SVG Version: 6.00 Build 0)  -->
<svg version="1.1" id="Layer_1" xmlns="http://www.w3.org/2000/svg" xmlns:xlink="http://www.w3.org/1999/xlink" x="0px" y="0px"
	 viewBox="0 0 100 100" style="enable-background:new 0 0 100 100;" xml:space="preserve">
<style type="text/css">
	.st0{fill-rule:evenodd;clip-rule:evenodd;fill:#FFFFFF;}
	.st1{fill-rule:evenodd;clip-rule:evenodd;fill:#27292B;}
	.st2{fill:none;stroke:#FFFFFF;stroke-width:3.6774;stroke-miterlimit:2.6131;}
	.st3{fill-rule:evenodd;clip-rule:evenodd;fill:#F26A30;}
	.st4{fill-rule:evenodd;clip-rule:evenodd;fill:#F3702E;}
	.st5{fill-rule:evenodd;clip-rule:evenodd;fill:#F4752C;}
	.st6{fill-rule:evenodd;clip-rule:evenodd;fill:#F4772C;}
	.st7{fill-rule:evenodd;clip-rule:evenodd;fill:#F47D2D;}
	.st8{fill-rule:evenodd;clip-rule:evenodd;fill:#F5822D;}
	.st9{fill-rule:evenodd;clip-rule:evenodd;fill:#F6862D;}
	.st10{fill-rule:evenodd;clip-rule:evenodd;fill:#F6892B;}
	.st11{fill-rule:evenodd;clip-rule:evenodd;fill:#F78D2A;}
	.st12{fill-rule:evenodd;clip-rule:evenodd;fill:#F7922A;}
	.st13{fill-rule:evenodd;clip-rule:evenodd;fill:#F8972A;}
	.st14{fill-rule:evenodd;clip-rule:evenodd;fill:#F99D27;}
	.st15{fill-rule:evenodd;clip-rule:evenodd;fill:#FCB31F;}
	.st16{fill-rule:evenodd;clip-rule:evenodd;fill:#F78F28;}
	.st17{fill-rule:evenodd;clip-rule:evenodd;fill:#FAA224;}
</style>
<g>
	<path class="st0" d="M56.1,69.2h17.4l-0.8,4.1l4.6,0l-2.7,11.3c0,0-0.1,1.5-1.2,3.9c-1.1,2.5-2,2.1-2,2.1l-1.7,6.6H25.2l3-11.7H14
		l4.1-16.3h7.5v-0.1c-3.7-3.5-5.7-8.6-5.6-15C20.1,42.8,27,38.4,27,38.4c-6.1-2-10.2-5.6-10.2-9.8c0-5.6,11.8-13.2,33.7-13.2
		c0.7,0,2.8-5.2,7.1-5.2c2.6,0-1.2-7.8,11.7-7.6c0,0-3.3,4.4-1.7,7.6c0,0,1,0,2.4-2.2c0,0,7,4.1,3.3,10.4C81,21,85.1,25.2,85.1,28.6
		c0,5.9-12,11.8-17.3,11.8c-5.2,0-5.9,13.7-5.9,13.7C61.9,60.5,59.8,65.7,56.1,69.2L56.1,69.2L56.1,69.2z"/>
	<path class="st0" d="M25.6,29.2c-0.3,3.6,10.7,6.7,24.6,6.8c13.9,0.1,25.5-2.7,25.8-6.3l4.6-0.6c-0.5,5.4-14.2,9.7-30.7,9.5
		c-16.5-0.2-29.5-4.7-29-10.1L25.6,29.2L25.6,29.2z"/>
	<path class="st1" d="M75.4,34.4c-5.6,2.6-15,4.3-25.5,4.2c-9.9-0.1-18.6-1.8-23.8-4.3l2-2.1c4,2.2,12.3,3.7,22.1,3.8
		c10.1,0.1,19-1.4,23.2-3.6L75.4,34.4L75.4,34.4z"/>
	<path class="st0" d="M41.1,70.9c9.2,0,16.7-7.5,16.7-16.7c0-9.2-7.5-16.7-16.7-16.7c-9.2,0-16.7,7.5-16.7,16.7
		C24.4,63.4,31.9,70.9,41.1,70.9L41.1,70.9z"/>
	<path class="st0" d="M66.4,13.5c0.1,0.9,0,1.9-0.1,2.7c-0.1,1.1-0.2,2.2,0.6,3c0.1-1.6,1-2.4,2-3.1c0.6-0.5,1-0.9,1.3-1.4
		c0.2-0.5,0.3-0.9,0.3-1.4c0-0.1,0-0.2,0-0.3c0.1,0.1,0.1,0.2,0.2,0.3c0.3,0.5,0.6,1.1,0.8,1.8c0.2,0.7,0.1,1.3-0.2,1.7
		c-0.4,0.5-1,0.6-1.4,0.7c-0.5,0.1-0.9,0.2-1.2,0.7c-1.5,2.3-1.7,3.7-1.2,7.7c0.1,1-1.5,0.9-2,1.1c-0.5,0.2-2.3,1-2.4,2.5
		c-0.1,1.6,1.8,2.1,2.3,0.6c0.2-0.7,0.6-1.1,0.9-1.3c0.3-0.2,0.6-0.2,0.9-0.2c0.1,0,0.2,0,0.2,0c-0.1,0-0.2,0.1-0.2,0.1
		c-0.3,0.2-0.5,0.4-0.7,0.6c-0.6,0.9-0.4,1.9-0.8,3.6c-0.3,1.4-1.5,2.2-2.9,2.6c-4.5,1.3-4.2,6.9-4.4,9c0.2-1.8,1.6-4.2,4.6-4.6
		c0.3-0.1,0.7-0.1,1-0.1c-0.3,0.1-0.5,0.3-0.8,0.5c-2.2,1.5-3.8,3.7-3.8,8c0,4.8-1,9.7-3.8,14.4c-0.2,0.3-0.4,0.7-0.7,1
		c0.3-0.4,0.5-0.8,0.7-1.1c1.4-2.4,2.1-5.2,2.1-8.2c0-9.2-7.5-16.7-16.7-16.7c-1.9,0-3.8,0.3-5.5,0.9c-0.4,0.1-0.8,0.3-1.1,0.4
		c0.4-0.2,0.7-0.3,1.1-0.5c2.6-1.1,5.4-2,6.9-2.8c1.6-0.9,3.2-2.2,3.5-4.2c0.2-1,0.5-2.6,0.9-3.4c0.4-0.8,0.9-1.5,1.5-2.1
		c0.6-0.6,1.3-1.1,2-1.4c0.1,0,0.1-0.1,0.2-0.1c0,0.1,0,0.1-0.1,0.2c-0.2,0.8-0.2,1.7,0.2,2.3c0.3,0.5,0.8,0.9,1.5,0.9
		c1.8,0.1,2.3-1.9,1.5-3.5c-1.7-3.1-1-6.9,2.1-9.3c1.1-0.9,2.1-1.4,4.9-1.8c1.5-0.2,2.8-2,2.1-3.2C62,8.9,62,7.9,62.4,7.2
		c0.4-0.7,1.1-1.1,1.8-1.3c0.2,0,0.3-0.1,0.5-0.1c-0.1,0.1-0.2,0.2-0.2,0.3c-0.3,0.4-0.6,0.9-0.8,1.5c-0.2,0.7-0.2,1.5,0,2.5
		c0.1,0.6,0.3,2.4,0.3,2.7c0,2.5-1.8,4.1-3.5,5.1c1.9,0.3,3.4-0.7,4.4-2c0.6-0.8,1.1-1.8,1.4-2.7c0-0.1,0.1-0.2,0.1-0.4
		C66.3,13.2,66.4,13.3,66.4,13.5L66.4,13.5z"/>
	<path class="st2" d="M66.4,13.5c0.1,0.9,0,1.9-0.1,2.7c-0.1,1.1-0.2,2.2,0.6,3c0.1-1.6,1-2.4,2-3.1c0.6-0.5,1-0.9,1.3-1.4
		c0.2-0.5,0.3-0.9,0.3-1.4c0-0.1,0-0.2,0-0.3c0.1,0.1,0.1,0.2,0.2,0.3c0.3,0.5,0.6,1.1,0.8,1.8c0.2,0.7,0.1,1.3-0.2,1.7
		c-0.4,0.5-1,0.6-1.4,0.7c-0.5,0.1-0.9,0.2-1.2,0.7c-1.5,2.3-1.7,3.7-1.2,7.7c0.1,1-1.5,0.9-2,1.1c-0.5,0.2-2.3,1-2.4,2.5
		c-0.1,1.6,1.8,2.1,2.3,0.6c0.2-0.7,0.6-1.1,0.9-1.3c0.3-0.2,0.6-0.2,0.9-0.2c0.1,0,0.2,0,0.2,0c-0.1,0-0.2,0.1-0.2,0.1
		c-0.3,0.2-0.5,0.4-0.7,0.6c-0.6,0.9-0.4,1.9-0.8,3.6c-0.3,1.4-1.5,2.2-2.9,2.6c-4.5,1.3-4.2,6.9-4.4,9c0.2-1.8,1.6-4.2,4.6-4.6
		c0.3-0.1,0.7-0.1,1-0.1c-0.3,0.1-0.5,0.3-0.8,0.5c-2.2,1.5-3.8,3.7-3.8,8c0,4.8-1,9.7-3.8,14.4c-0.2,0.3-0.4,0.7-0.7,1
		c0.3-0.4,0.5-0.8,0.7-1.1c1.4-2.4,2.1-5.2,2.1-8.2c0-9.2-7.5-16.7-16.7-16.7c-1.9,0-3.8,0.3-5.5,0.9c-0.4,0.1-0.8,0.3-1.1,0.4
		c0.4-0.2,0.7-0.3,1.1-0.5c2.6-1.1,5.4-2,6.9-2.8c1.6-0.9,3.2-2.2,3.5-4.2c0.2-1,0.5-2.6,0.9-3.4c0.4-0.8,0.9-1.5,1.5-2.1
		c0.6-0.6,1.3-1.1,2-1.4c0.1,0,0.1-0.1,0.2-0.1c0,0.1,0,0.1-0.1,0.2c-0.2,0.8-0.2,1.7,0.2,2.3c0.3,0.5,0.8,0.9,1.5,0.9
		c1.8,0.1,2.3-1.9,1.5-3.5c-1.7-3.1-1-6.9,2.1-9.3c1.1-0.9,2.1-1.4,4.9-1.8c1.5-0.2,2.8-2,2.1-3.2C62,8.9,62,7.9,62.4,7.2
		c0.4-0.7,1.1-1.1,1.8-1.3c0.2,0,0.3-0.1,0.5-0.1c-0.1,0.1-0.2,0.2-0.2,0.3c-0.3,0.4-0.6,0.9-0.8,1.5c-0.2,0.7-0.2,1.5,0,2.5
		c0.1,0.6,0.3,2.4,0.3,2.7c0,2.5-1.8,4.1-3.5,5.1c1.9,0.3,3.4-0.7,4.4-2c0.6-0.8,1.1-1.8,1.4-2.7c0-0.1,0.1-0.2,0.1-0.4
		C66.3,13.2,66.4,13.3,66.4,13.5"/>
	<polygon class="st0" points="36.7,82 38.9,72.9 35.2,72.9 33,82 36.7,82 	"/>
	<path class="st0" d="M44.9,75.1l0.2,3.7h-1.9l1.9,3.2h3.4l-0.5-9.1c0,0-5.6,0-5.5,0c0,0-4.5,9.1-4.5,9.1h3.6L44.9,75.1L44.9,75.1
		L44.9,75.1z"/>
	<polygon class="st0" points="36.4,90.5 35.7,93.7 39.1,93.7 41.4,84.6 37.9,84.6 37.1,88.1 34.5,88.1 35.3,84.6 31.9,84.6 
		29.6,93.7 33.1,93.7 33.8,90.5 36.4,90.5 	"/>
	<polygon class="st0" points="45.1,91.6 45.3,90.4 49.6,90.4 50.1,88.4 45.8,88.4 46.1,87 50.4,87 51.1,84.6 43.3,84.6 41,93.7 
		48.8,93.7 49.3,91.6 45.1,91.6 	"/>
	<polygon class="st0" points="66.8,82 69,72.9 65.3,72.9 63.1,82 66.8,82 	"/>
	<path class="st0" d="M72.5,76.3c-0.2-0.2-0.1-0.5,0.1-0.3c0.4,0.3,0.6,0.5,0,2.7c-0.3,1-1.6,6-1.7,6.7c-0.1,0.7-0.6,2-2.1,2h-1.1
		l-1.5,6.3h-3.7l1.5-6.3l-2.5,0l0.8-2.8h6.4c1,0,2-0.8,2-1.6c0-0.6-0.3-1.2-0.6-1.8c-0.3-0.6-0.5-0.8-0.5-1.3
		c0.1-0.5,0.5-1.1,1.4-1.4C72.7,77.9,72.6,76.4,72.5,76.3L72.5,76.3z"/>
	<polygon class="st0" points="26.1,77.6 25.5,72.9 21,72.9 18.7,82 22.1,82 23.3,77.2 23.3,77.2 24,82 26,82 28.7,77.2 28.7,77.2 
		27.7,82 30.8,82 33.1,72.9 28.7,72.9 26.1,77.6 26.1,77.6 	"/>
	<polygon class="st0" points="56.8,77.6 56.2,72.9 51.6,72.9 49.4,82 52.7,82 54,77.2 54,77.2 54.7,82 56.7,82 59.4,77.2 59.4,77.2 
		58.3,82 61.5,82 63.8,72.9 59.4,72.9 56.8,77.6 56.8,77.6 	"/>
	<path class="st0" d="M57.1,86.8l0.2,3.7h-1.9l1.9,3.1h3.4l-0.5-9.1c0,0-5.6,0-5.5,0c0,0-4.5,9.1-4.5,9.1h3.6L57.1,86.8L57.1,86.8
		L57.1,86.8z"/>
	<polygon class="st1" points="36.7,82 38.9,72.9 35.2,72.9 33,82 36.7,82 	"/>
	<path class="st1" d="M44.9,75.1l0.2,3.7h-1.9l1.9,3.2h3.4l-0.5-9.1c0,0-5.6,0-5.5,0c0,0-4.5,9.1-4.5,9.1h3.6L44.9,75.1L44.9,75.1
		L44.9,75.1z"/>
	<polygon class="st1" points="36.4,90.5 35.7,93.7 39.1,93.7 41.4,84.6 37.9,84.6 37.1,88.1 34.5,88.1 35.3,84.6 31.9,84.6 
		29.6,93.7 33.1,93.7 33.8,90.5 36.4,90.5 	"/>
	<polygon class="st1" points="45.1,91.6 45.3,90.4 49.6,90.4 50.1,88.4 45.8,88.4 46.1,87 50.4,87 51.1,84.6 43.3,84.6 41,93.7 
		48.8,93.7 49.3,91.6 45.1,91.6 	"/>
	<polygon class="st1" points="66.8,82 69,72.9 65.3,72.9 63.1,82 66.8,82 	"/>
	<path class="st1" d="M72.5,76.3c-0.2-0.2-0.1-0.5,0.1-0.3c0.4,0.3,0.6,0.5,0,2.7c-0.3,1-1.6,6-1.7,6.7c-0.1,0.7-0.6,2-2.1,2h-1.1
		l-1.5,6.3h-3.7l1.5-6.3l-2.5,0l0.8-2.8h6.4c1,0,2-0.8,2-1.6c0-0.6-0.3-1.2-0.6-1.8c-0.3-0.6-0.5-0.8-0.5-1.3
		c0.1-0.5,0.5-1.1,1.4-1.4C72.7,77.9,72.6,76.4,72.5,76.3L72.5,76.3z"/>
	<polygon class="st1" points="26.1,77.6 25.5,72.9 21,72.9 18.7,82 22.1,82 23.3,77.2 23.3,77.2 24,82 26,82 28.7,77.2 28.7,77.2 
		27.7,82 30.8,82 33.1,72.9 28.7,72.9 26.1,77.6 26.1,77.6 	"/>
	<polygon class="st1" points="56.8,77.6 56.2,72.9 51.6,72.9 49.4,82 52.7,82 54,77.2 54,77.2 54.7,82 56.7,82 59.4,77.2 59.4,77.2 
		58.3,82 61.5,82 63.8,72.9 59.4,72.9 56.8,77.6 56.8,77.6 	"/>
	<path class="st1" d="M57.1,86.8l0.2,3.7h-1.9l1.9,3.1h3.4l-0.5-9.1c0,0-5.6,0-5.5,0c0,0-4.5,9.1-4.5,9.1h3.6L57.1,86.8L57.1,86.8
		L57.1,86.8z"/>
	<path class="st3" d="M41.1,70.9c9.2,0,16.7-7.5,16.7-16.7c0-9.2-7.5-16.7-16.7-16.7c-9.2,0-16.7,7.5-16.7,16.7
		C24.4,63.4,31.9,70.9,41.1,70.9L41.1,70.9z"/>
	<path class="st3" d="M69.6,17.4c-1.4,0.5-1.9,0.5-2.4,0.3c-0.2,0.4-0.3,0.8-0.4,1.4c-0.7-0.7-0.7-1.6-0.6-2.5
		c-0.2,0-1.3-0.1-1.7-0.2c-1,1.1-2.4,1.9-4.1,1.6c0.9-0.6,1.8-1.2,2.5-2.1c-0.4-0.9-4.7-1.1-6.3-0.4c-0.4,0.2-0.8,0.2-0.7,0
		c0.4-0.6,0.7-1.1,1.1-1.4c-0.5,0.2-0.9,0.5-1.4,0.9c-3,2.4-3.8,6.2-2.1,9.3c0.9,1.6,0.3,3.6-1.5,3.5c-1.8-0.1-2.1-2-1.6-3.4
		c-1.5,0.6-2.9,2-3.7,3.5c-0.4,0.8-0.8,2.3-0.9,3.4c-0.3,2.1-1.9,3.4-3.5,4.2c-1.7,0.9-5.2,2-8,3.3c2-0.9,4.3-1.4,6.7-1.4
		c9.2,0,16.7,7.5,16.7,16.7c0,3.5-1.1,6.7-2.9,9.3c3.4-5,4.5-10.3,4.5-15.4c0-4.8,2-7,4.6-8.5c-3.7,0-5.4,2.7-5.6,4.7
		c0.2-2-0.1-7.7,4.4-9c1.4-0.4,2.6-1.2,2.9-2.6c0.5-2.2-0.1-3.3,1.7-4.3c-0.6,0-1.5,0-2,1.5c-0.5,1.5-2.4,1-2.3-0.6
		c0.1-1.5,1.9-2.3,2.4-2.5c0.5-0.2,2.2-0.1,2-1.1c-0.5-4-0.3-5.3,1.2-7.7C68.9,17.7,69.2,17.5,69.6,17.4L69.6,17.4z"/>
	<path class="st3" d="M56.1,54.9c0.2,8.4-6.5,15.4-15,15.5c-8.5,0.1-15.6-6.6-15.8-15.1c-0.2-8.4,6.5-15.4,15-15.5
		C48.4,39.8,55.9,46.5,56.1,54.9L56.1,54.9z"/>
	<path class="st4" d="M39.9,41.5c7.7-0.1,14.8,6.2,15,14.1c0.2,7.9-6.1,14.4-14.2,14.6c-8.1,0.1-14.8-6.2-15-14.1
		C25.5,48.2,31.8,41.6,39.9,41.5L39.9,41.5z"/>
	<path class="st5" d="M39.5,43.2c7.2-0.1,14,5.8,14.2,13.2C54,63.7,48,69.8,40.4,70c-7.6,0.1-14-5.8-14.2-13.2
		C25.9,49.4,31.9,43.3,39.5,43.2L39.5,43.2z"/>
	<path class="st6" d="M39.1,44.8c6.8-0.1,13.2,5.3,13.4,12.2c0.3,6.9-5.3,12.6-12.5,12.7c-7.2,0.1-13.2-5.3-13.4-12.2
		C26.3,50.6,31.9,44.9,39.1,44.8L39.1,44.8z"/>
	<path class="st7" d="M38.7,46.4c6.4-0.1,12.4,4.9,12.7,11.3c0.3,6.4-4.9,11.6-11.6,11.8c-6.7,0.1-12.4-4.9-12.7-11.3
		C26.8,51.9,32,46.6,38.7,46.4L38.7,46.4z"/>
	<path class="st8" d="M38.3,48.1c6-0.1,11.6,4.5,11.9,10.3c0.3,5.9-4.5,10.7-10.8,10.9c-6.3,0.1-11.6-4.5-11.9-10.3
		C27.2,53.1,32,48.2,38.3,48.1L38.3,48.1z"/>
	<path class="st9" d="M37.9,49.7c5.6-0.1,10.8,4,11.1,9.4c0.3,5.3-4.1,9.8-9.9,9.9c-5.8,0.2-10.8-4-11.1-9.4
		C27.7,54.3,32.1,49.9,37.9,49.7L37.9,49.7z"/>
	<path class="st10" d="M37.5,51.4c5.2-0.2,9.9,3.6,10.3,8.4c0.3,4.8-3.7,8.9-9.1,9c-5.3,0.2-9.9-3.6-10.3-8.4
		C28.1,55.6,32.2,51.5,37.5,51.4L37.5,51.4z"/>
	<path class="st11" d="M37.1,53c4.8-0.2,9.1,3.2,9.5,7.5c0.3,4.3-3.3,7.9-8.2,8.1c-4.9,0.2-9.1-3.2-9.5-7.5
		C28.5,56.8,32.2,53.2,37.1,53L37.1,53z"/>
	<path class="st12" d="M36.7,54.7c4.4-0.2,8.3,2.8,8.7,6.5c0.4,3.8-2.9,7-7.4,7.2c-4.4,0.2-8.3-2.8-8.7-6.5
		C29,58,32.3,54.8,36.7,54.7L36.7,54.7z"/>
	<path class="st13" d="M36.3,56.3c3.9-0.2,7.5,2.3,7.9,5.6c0.4,3.3-2.5,6.1-6.5,6.2c-4,0.2-7.5-2.3-7.9-5.6
		C29.4,59.3,32.3,56.5,36.3,56.3L36.3,56.3z"/>
	<path class="st14" d="M35.9,57.9c3.5-0.2,6.7,1.9,7.1,4.7c0.4,2.7-2.1,5.1-5.7,5.3c-3.5,0.2-6.7-1.9-7.1-4.6
		C29.9,60.5,32.4,58.1,35.9,57.9L35.9,57.9z"/>
	<path class="st0" d="M66.8,19.1c-0.3,3.8-0.4,4.9-3.2,7.3c-0.8,0.7-2.6,2.7-3.4,4.6c-1.2,2.8-1,10-1.6,13.4
		c-0.5,2.7-1.5,6.5-2.8,9.1C53.4,58.8,48,63,41.9,64.5c1,1,3.3,1.4,5.7,1c3.7-0.5,7.4-2.2,10-6.9c0.8-1.5,0,2.9-2.7,4.9
		C48.7,69.1,42,66.4,40,65c-0.7,0.1-1.7,0.2-2.6,0.3c1.9,2.3,7,4.5,11.1,3.9c1.9-0.3-1.1,1.3-3.3,1.2c-4.1-0.5-7.3-2-9.6-5.2
		c-0.7,0-1.3,0-1.8-0.1c0.6,1.5,0.8,3.3,0.7,4.4c0,0.5-1.3,0.1-1.2-0.6c0.1-1.3-0.8-4.1-1.4-4.3c-3.6-1.4-5.1-2.8-6.7-5.4
		c-1-1.8-1.4-5.1-0.7-3.4c1.6,3.8,4,5.9,6.6,6.8c-0.2-0.4-1.8-3.3-3.3-5.6c-1.4-2-2.5-4.8-2.3-9c0.1-2.4,1.8-3.7,1.3-2.6
		c-0.5,1-0.5,6.8,1.5,10c1.2,1.9,3.5,4.9,4.7,7.7c0.3,0.1,1,0.1,1.4,0.1c-3.9-8.3-3.5-16.3,1-21.9c1.9-2.4,5-4.1,7.5-4.9
		c2.5-0.9,3.4-1.8,4-3.2c1.1-2.7-1.6-4.4,1.1-7.2c-1.4,2.1,1.8,4.4,1.2,7.1c-0.3,1.2-1,2.3-3.7,3.2c-2.7,1-10.4,3-11.9,11.5
		C32,56.6,35,61.9,36.1,63.5c1,0.1,2,0.1,2.8-0.1c-2.6-4.9-1.4-10.6,3.7-13.9c5-3.2,11.3-5.8,12.6-14.3c0.5-3,0-6.5,0.2-7.7
		c0.2-1.1,0.4-2.6,0.5-3.1c0.4-2.4,2.7-5.3,4.6-6.4c0.2,0,1,0.1,1.4,0c-1.4,0.5-3.6,4-4.1,6.5c-0.3,1.5-0.3,3.2-0.2,5.2
		c0,7.9-4.3,13.3-6.4,15.4c-2.3,2.3-7.5,5.2-9.9,7.8c-1.6,1.8-3.7,6.2-0.8,10.2c12.7-2.3,17.6-15.2,17.7-23c0-2.1-0.3-6,0.4-9.4
		c0.5-2.6,1.8-4.6,3-5.9c2.3-2.3,4.2-4.4,4.6-8.1C66.1,18,66.4,18.6,66.8,19.1L66.8,19.1z"/>
	<path class="st0" d="M25.6,29.2c0.3-3.6,11.9-6.5,25.8-6.3C65.3,23,76.3,26.1,76,29.7l4.6-0.6c0.5-5.4-12.5-9.9-29-10.1
		c-16.5-0.2-30.2,4.1-30.7,9.5L25.6,29.2L25.6,29.2z"/>
	<path class="st1" d="M75.4,34.4c3.2-1.5,5.1-3.3,5.2-5.3c0.5-5.4-12.5-9.9-29-10.1c-16.5-0.2-30.2,4.1-30.7,9.5
		c-0.2,2.2,1.8,4.2,5.2,5.8l2-2.1c-1.7-0.9-2.6-2-2.5-3c0.3-3.6,11.9-6.5,25.8-6.3C65.3,23,76.3,26.1,76,29.7c-0.1,1-1,1.9-2.6,2.7
		L75.4,34.4L75.4,34.4z"/>
	<path class="st3" d="M62.8,16.2c-0.4-0.9-4.7-1.1-6.3-0.4c-0.4,0.2-0.8,0.2-0.7,0c0.4-0.6,0.7-1.1,1.1-1.4c0.8-0.4,1.8-0.7,3.5-0.9
		c1.5-0.2,2.8-2,2.1-3.2c-1.5-2.5,0.6-4.2,2.1-4.2c-0.9,0.9-1.4,2-1.1,4.3c0.1,0.6,0.3,2.4,0.3,2.7C63.8,14.4,63.4,15.4,62.8,16.2
		L62.8,16.2z"/>
	<path class="st3" d="M62.8,16.2c-0.4-0.9-4.7-1.1-6.3-0.4c-0.4,0.2-0.8,0.2-0.7,0c0.4-0.6,0.7-1.1,1.1-1.4l0,0c0,0,0,0,0.1,0
		c0.8-0.4,1.8-0.6,3.5-0.9c1.5-0.2,2.8-2,2.1-3.2c-1.5-2.5,0.6-4.2,2.1-4.2c-0.9,0.9-1.4,2-1.1,4.3c0.1,0.6,0.3,2.4,0.3,2.7
		C63.8,14.4,63.4,15.4,62.8,16.2L62.8,16.2z"/>
	<path class="st15" d="M58,14.8c-0.5,0.1-1.1,0.4-0.6-0.1c0.4-0.4,2.8-1.2,3.3-1.3c1.2-0.4,1.9-1.2,2-2.1c0.1-1.2-0.3-1.6-0.2-2.9
		c0.1-1.3,1.1-2.3,2.1-2.3c-1.4,1.2-1.3,3.2-1.1,4.9c0.2,1.3,0.4,2.6-0.1,4C63,13.4,59.5,14.5,58,14.8L58,14.8z"/>
	<path class="st3" d="M69.6,17.4c-1.4,0.5-1.9,0.5-2.4,0.3c0.4-0.7,1-1.2,1.7-1.7c1.4-1,1.7-2.1,1.5-3.1c0.7,0.8,1.5,2.9,0.8,3.8
		c-0.4,0.5-1,0.6-1.4,0.7C69.7,17.4,69.7,17.4,69.6,17.4L69.6,17.4z"/>
	<path class="st3" d="M69.6,17.4c-1.4,0.5-1.9,0.5-2.4,0.3c0.1-0.2,0.3-0.4,0.4-0.6c0,0,0,0,0,0c0,0,0,0,0,0c0,0,0,0,0,0
		c0.2-0.2,0.3-0.4,0.5-0.5c0.2-0.2,0.5-0.4,0.7-0.6c0.2-0.1,0.3-0.3,0.5-0.4c0.1-0.1,0.2-0.2,0.3-0.3c0,0,0,0,0,0
		c0.6-0.7,0.7-1.4,0.7-2c0-0.1,0-0.2,0-0.3c0.5,0.5,1,1.6,1.1,2.5c0,0.1,0,0.1,0,0.2c0,1.1-0.6,1.5-1.4,1.7c0,0,0,0,0,0c0,0,0,0,0,0
		c0,0,0,0,0,0c-0.1,0-0.1,0-0.2,0C69.7,17.4,69.7,17.4,69.6,17.4C69.6,17.4,69.6,17.4,69.6,17.4C69.6,17.4,69.6,17.4,69.6,17.4
		C69.6,17.4,69.6,17.4,69.6,17.4C69.6,17.4,69.6,17.4,69.6,17.4C69.6,17.4,69.6,17.4,69.6,17.4C69.6,17.4,69.6,17.4,69.6,17.4
		C69.6,17.4,69.6,17.4,69.6,17.4L69.6,17.4L69.6,17.4z"/>
	<path class="st7" d="M68.1,17.5c-0.1,0.1-0.3,0-0.4-0.1c0.2-0.5,0.8-1,1.2-1.4c0.1-0.1,0.3-0.2,0.4-0.3c0.1-0.1,0.2-0.2,0.3-0.3
		c0,0,0,0,0,0c0.6-0.7,0.7-1.4,0.7-2c0-0.1,0-0.2,0-0.3c0.5,0.5,1,1.6,1.1,2.5c0,0.1,0,0.1,0,0.2c0,1.1-0.7,1.3-1.4,1.5h0
		C69,17.5,68.5,17.6,68.1,17.5L68.1,17.5z"/>
	<path class="st16" d="M69,17.2c-0.2,0.1-0.6,0-0.7-0.2c0.1-0.4,0.8-1,1-1.3c0,0,0,0,0,0c0.1-0.1,0.2-0.2,0.3-0.3c0,0,0,0,0,0
		c0.6-0.7,0.7-1.4,0.7-2c0-0.1,0-0.2,0-0.3c0.5,0.5,1,1.6,1.1,2.5c0,0.1,0,0.1,0,0.2c0,0.8-0.5,1-1,1.2c0,0,0,0,0,0
		C69.7,17.1,69.3,17.2,69,17.2L69,17.2z"/>
	<path class="st17" d="M69.9,16.8c-0.3,0.2-0.8,0.1-1-0.3c0-0.3,0.4-0.6,0.5-0.9c0,0,0,0,0,0c0.1-0.1,0.2-0.2,0.3-0.3c0,0,0,0,0,0
		c0.6-0.7,0.7-1.4,0.7-2c0-0.1,0-0.2,0-0.3c0.5,0.5,1,1.6,1.1,2.5c0,0.1,0,0.1,0,0.2c0,0.5-0.3,0.7-0.6,0.9c0,0,0,0,0,0
		C70.4,16.7,70.1,16.8,69.9,16.8L69.9,16.8z"/>
	<path class="st15" d="M70.7,16.5c-0.4,0.2-1.1,0.1-1.4-0.4c-0.1-0.1-0.1-0.3-0.1-0.4c0,0,0,0,0,0c0.1-0.1,0.2-0.2,0.3-0.3
		c0,0,0,0,0,0c0.6-0.7,0.7-1.4,0.7-2c0-0.1,0-0.2,0-0.3c0.5,0.5,1,1.6,1.1,2.5c0,0.1,0,0.1,0,0.2C71.4,16.1,71.2,16.3,70.7,16.5
		L70.7,16.5z"/>
	<path class="st3" d="M66.4,16.6c-0.2,0-1.3-0.1-1.7-0.2c0.9-1,1.5-2.3,1.8-3.4C66.8,14.2,66.5,15.5,66.4,16.6L66.4,16.6z"/>
	<path class="st3" d="M66.4,16.5c0,0.1,0,0.1,0,0.2l0,0c-0.2,0-1.3-0.1-1.7-0.2c0.9-1,1.5-2.3,1.8-3.4
		C66.8,14.2,66.5,15.4,66.4,16.5L66.4,16.5z"/>
	<path class="st7" d="M65.7,14.9c0.2-0.2,0.3-0.4,0.4-0.6c0.2-0.4,0.3-0.7,0.3-1c0.1,0.3,0.1,0.6,0.1,0.9c0,0.6-0.1,1.3-0.3,1.9l0,0
		c-0.2,0-0.9,0-1.2-0.1C65.3,15.6,65.5,15.3,65.7,14.9L65.7,14.9z"/>
	<path class="st16" d="M65.9,14.5c0.2-0.1,0.3-0.2,0.4-0.3c0.1-0.2,0.2-0.5,0.2-0.7c0,0.2,0,0.4,0,0.6c0,0.4-0.2,0.8-0.3,1.3l0,0
		c-0.1,0-0.5,0-0.8-0.1C65.6,15.1,65.8,14.8,65.9,14.5L65.9,14.5z"/>
	<path class="st17" d="M66.2,13.9c0.1,0.1,0.2,0.2,0.3,0.3c0-0.1,0-0.2,0-0.3c0,0.1,0,0.2-0.1,0.3c-0.1,0.2-0.2,0.4-0.3,0.7
		c0,0,0,0,0,0c-0.1,0-0.3,0-0.4,0C65.9,14.6,66.1,14.2,66.2,13.9L66.2,13.9z"/>
	<path class="st15" d="M66.6,14.2c-0.2,0.1-0.5,0.2-0.6,0.2c0.2-0.4,0.3-0.9,0.4-1.3C66.6,13.4,66.6,13.8,66.6,14.2L66.6,14.2z"/>
</g>
</svg>
