<?xml version="1.0" encoding="utf-8"?>
<!-- Generator: Adobe Illustrator 19.1.0, SVG Export Plug-In . SVG Version: 6.00 Build 0)  -->
<svg version="1.1" id="Layer_1" xmlns="http://www.w3.org/2000/svg" xmlns:xlink="http://www.w3.org/1999/xlink" x="0px" y="0px"
	 viewBox="0 0 100 100" enable-background="new 0 0 100 100" xml:space="preserve">
<g>
	<polyline fill="#FFFFFF" points="77.203,32.946 22.5,32.959 50.788,98.643 78.992,32.946 77.203,32.946 	"/>
	<path fill="#BCCAD6" d="M77.203,32.946L22.5,32.959l28.288,65.685l28.204-65.698H77.203 M50.788,95.661L24.291,34.135l52.912-0.009
		L50.788,95.661z"/>
	<polyline fill="#BCCAD6" points="24.291,34.135 77.203,34.126 50.788,95.661 24.291,34.135 	"/>
	<path fill="#C42033" d="M24.291,34.135h9.529c3.511,5.258,7.631,4.614,7.631,4.614c0.357,1.613,0.662,2.04,0.662,2.04
		c-0.472,2.323-0.034,3.684-0.034,3.684c-0.824,2.968-0.396,4.935-0.396,4.935c-2.144,1.283-2.54,4.359-2.54,4.359
		c-2.752,1.75-4.294,4.904-4.294,4.904L24.291,34.135"/>
	<path fill="#C42033" d="M77.203,34.126h-9.312c-2.965,4.909-7.438,4.554-7.438,4.554c0.033,1.107-0.504,1.89-0.504,1.89
		c0.58,2.256,0.116,3.646,0.116,3.646c0.744,1.865,0.567,4.903,0.567,4.903c2.722,2.08,2.722,4.4,2.722,4.4
		c3,2.758,3.455,4.764,3.455,4.764L77.203,34.126"/>
	<path fill="#BCCAD6" d="M80.277,57.884H71.28c-13.853,0.021-40.263,0.036-41.075,0.005L19.26,57.884l-4.12,5.721v11.093
		l-0.076,3.884v7.622l4.153,5.629h61.524l4.125-5.715V75.02l0.068-3.885v-7.612l-4.151-5.639H80.277 M30.142,59.884l-0.046-0.021
		c0.345,0.03,0.888,0.036,1.821,0.038l4.665,0.007h14.139l20.566-0.024h8.487c0.488,0.671,3.013,4.09,3.157,4.292v6.939
		l-0.074,3.886v10.47c-0.21,0.29-2.656,3.696-3.138,4.362H20.235c-0.496-0.663-3.015-4.087-3.165-4.287v-6.939l-0.033,0.032
		c0.027-0.213,0.042-0.423,0.044-0.623l0.068-3.299V64.255c0.211-0.302,2.653-3.7,3.135-4.371H30.142z"/>
	<path fill="#BCCAD6" d="M68.031,15.212c0.644,0.947,0.718,1.843,0.718,2.141v0.09c-0.096,0.894-0.359,1.606-0.666,2.169
		c0.109-1.048,0.14-1.958,0.14-2.02C68.208,16.709,68.125,15.899,68.031,15.212 M59.501,31.363c-0.142,0.136-0.46,0.343-0.655,0.35
		c0.096-0.129,0.335-0.35,0.882-0.602l0.083-0.044C59.7,31.177,59.619,31.243,59.501,31.363 M42.282,31.854
		c-0.582-0.217-0.845-0.513-0.924-0.624c0.612,0.248,0.882,0.471,0.983,0.602L42.282,31.854z M32.288,17.776
		c-0.004-0.016-0.004-0.056-0.004-0.129c0-0.328,0.08-1.194,0.686-2.115c-0.082,0.677-0.153,1.483-0.153,2.357
		c0.004,0.081,0.046,0.994,0.17,2.043C32.67,19.375,32.391,18.667,32.288,17.776 M70.656,22.219c0.055-0.068,1.69-2.295,1.69-5.135
		c0-0.294-0.017-0.602-0.053-0.912c-0.039-0.321-1.515-10.394-10.081-13.877c4.309,5.475,5.075,7.406,5.612,8.962
		c-0.751-0.469-1.318-0.767-1.574-0.896c-4.202-8.229-9.466-8.481-9.634-8.558c2.978,2.466,5.653,6.315,6.168,7.344
		c-2.835-1.106-6.904-1.004-7.129-0.955l3.035,1.4c3.074,1.351,4.703,2.25,5.222,2.552c0.545,1.591,0.701,3.312,0.701,4.715
		c0,1.679-0.217,2.907-0.221,2.934c-0.909,4.302-3.83,6.464-5.358,7.33c0.004-0.23,0.044-0.478,0.044-0.696
		c0-4.878-2.746-7.394-2.879-7.508c-2.087-2.129-4.572-2.517-4.683-2.551l1.504,1.844c2.111,2.499,2.697,4.908,2.697,6.827
		c0,1.662-0.438,2.939-0.714,3.586c-4.23-1.364-7.873-0.474-9.236-0.016c-0.565-1.16-0.79-2.325-0.804-3.43
		c-0.069-4.623,4.191-8.848,4.223-8.892c-6.749,1.745-7.536,7.655-7.536,10.197c0,0.222,0.011,0.42,0.025,0.615
		c-4.616-2.666-5.71-6.853-5.71-10.125c0-2.188,0.466-3.941,0.649-4.545c2.803-1.864,8.526-4.098,8.551-4.108
		c-2.987-0.038-6.115,0.516-7.427,1.065c2.346-4.6,6.177-7.561,6.207-7.581c-5.998,0.879-9.262,7.821-9.734,8.916
		c-0.637,0.265-1.201,0.569-1.665,0.858c1.382-4.289,5.409-9.301,5.434-9.335c-9.321,4.68-9.82,13.69-9.82,14.846
		c0,0.077,0,0.129,0,0.149c0.112,3.088,1.823,5.202,1.894,5.292c1.987,2.71,5.011,4.969,7.429,6.51l-0.024-0.004
		c-2.553-0.785-4.735-1.037-4.823-1.049c-0.655-0.032-0.958,0.224-1.096,0.448c-0.308,0.468-0.074,0.993-0.025,1.09
		c3.533,8.662,8.246,9.128,10.067,8.944c0.18,1.116,0.554,2.03,0.738,2.429c-0.229,0.87-0.346,1.562-0.346,2.064
		c0,0.806,0.241,1.201,0.509,1.383c-0.067,0.135-0.135,0.272-0.135,0.272c-0.44,0.921-0.545,2.324-0.545,3.475
		c0,0.651,0.034,1.209,0.061,1.562c-2.057,1.556-2.527,3.672-2.618,4.429c-2.796,2.279-3.882,4.716-3.932,4.815l-0.391,0.91h31.751
		l-0.254-0.833c-0.782-2.577-2.827-4.457-3.51-5.034c-0.101-2.413-2.034-4.017-2.814-4.555c0.007-0.17,0.009-0.344,0.009-0.504
		c0-3.278-0.438-4.23-0.72-4.499l-0.022-0.025l0.261-0.142l0.042-0.318c0.033-0.244,0.05-0.509,0.05-0.773
		c0-0.993-0.193-2.014-0.272-2.401c0.427-1.12,0.626-1.881,0.709-2.385c1.439,0.102,4.653-0.152,7.103-3.96
		c0.072-0.117,1.73-2.738,2.345-5.021c0.068-0.149,0.162-0.395,0.162-0.691c0-0.204-0.05-0.415-0.184-0.603
		c-0.127-0.183-0.442-0.476-1.082-0.381l-1.725,0.272c-0.107,0.019-1.697,0.32-3.361,0.923C65.881,27.225,68.97,24.82,70.656,22.219
		"/>
	<path fill="#144624" d="M51.386,59.16h14.416c-0.88-2.878-3.525-4.894-3.525-4.894c0.109-2.805-2.82-4.541-2.82-4.541
		c0.09-4.29-0.519-4.884-0.519-4.884c-2.133,1.148-2.546,3.581-2.546,3.581l-0.374-0.269c0.272-2.84,3.011-4.346,3.011-4.346
		c0.175-1.249-0.254-3.129-0.254-3.129c0.926-2.376,0.784-3.077,0.784-3.077s4.193,1.042,7.153-3.573c0,0,1.686-2.648,2.27-4.866
		c0,0,0.488-0.965-0.392-0.839c0,0-0.324,0.055-1.719,0.272c0,0-2.846,0.533-4.865,1.591c0,0-0.567,0.071-2.032,1.621
		c0,0-1.09,1.056-1.752,0.256c0,0-0.499-0.736,1.235-1.541c0,0,7.69-4.071,10.659-8.652c0,0,1.925-2.577,1.53-5.617
		c0,0-0.878-7.789-7.153-11.983c3.751,4.379,4.438,8.515,4.438,8.515c-1.684-1.249-3.151-1.931-3.151-1.931
		c-2.825-5.792-6.803-7.652-6.803-7.652c4.773,4.9,4.881,6.972,4.881,6.972c-3.978-1.36-4.905-1.181-4.905-1.181
		c3.902,1.718,5.509,2.722,5.509,2.722c1.353,3.753,0.567,8.188,0.567,8.188c-1.314,6.256-6.722,8.294-6.722,8.294
		c0.788-5.828-2.536-8.793-2.536-8.793c-1.285-1.291-2.253-1.612-2.253-1.612c5.043,5.971,1.822,11.622,1.822,11.622
		c-5.324-1.965-9.896,0-9.896,0c-3.331-5.826,1.707-11.689,1.707-11.689c-6.147,3.215-4.719,10.548-4.719,10.548
		c-10.27-4.828-6.363-16.271-6.363-16.271c3.036-1.897,5.393-2.755,5.393-2.755c-1.424-0.04-4.894,1.216-4.894,1.216
		c1.647-4.436,4.969-7.26,4.969-7.26c-4.61,2.357-6.831,8.009-6.831,8.009c-1.936,0.749-3.186,1.933-3.186,1.933
		c0.642-4.399,4.145-8.709,4.145-8.709c-7.11,5.113-6.859,12.782-6.859,12.782c0.107,2.899,1.752,4.904,1.752,4.904
		c3.649,4.97,11.051,8.507,11.051,8.507c1.786,0.718,1.395,1.468,1.395,1.468c-0.429,0.61-0.962,0.359-0.962,0.359
		c-0.966-0.359-1.291-0.965-1.291-0.965c-1.359-1.36-3.436-1.823-3.436-1.823c-2.565-0.789-4.751-1.038-4.751-1.038
		c-0.783-0.034-0.463,0.606-0.463,0.606c4.215,10.337,10.05,8.473,10.05,8.473c0.105,1.681,0.854,3.113,0.854,3.113
		c-0.749,2.615-0.147,3.002-0.147,3.002c3.153,2.36,3.083,4.542,3.083,4.542l-0.255,0.647c-0.783-3.219-2.748-4.113-2.748-4.113
		c-0.759,1.573-0.396,5.044-0.396,5.044c-2.574,1.714-2.681,4.463-2.681,4.463c-2.865,2.259-3.945,4.752-3.945,4.752h12.091
		 M69.4,17.507c-0.32,3.007-2.363,4.289-2.363,4.289c0.464-1.466,0.534-4.217,0.534-4.217c-0.037-2.359-0.569-4.256-0.569-4.256
		C69.608,15.038,69.4,17.507,69.4,17.507 M31.642,17.845c0,0-0.251-2.462,2.329-4.22c0,0-0.509,1.904-0.509,4.265
		c0,0,0.117,2.752,0.603,4.21C34.065,22.1,32.003,20.845,31.642,17.845"/>
	<path fill="#FFFFFF" d="M47.081,31.775l-0.646-0.715c-0.392,1.16-1.586,1.88-1.586,1.88C46.184,33.24,47.081,31.775,47.081,31.775"
		/>
	<path fill="#FFFFFF" d="M54.327,31.571l0.74-0.617c0.223,1.203,1.312,2.082,1.312,2.082C55.01,33.146,54.327,31.571,54.327,31.571"
		/>
	<path fill="#FFFFFF" d="M60.116,54.06c0,0,0.716,0.32,0.843,0.375c-0.02,0.142-0.142,2.984-2.341,4.737
		c-0.092-0.065-0.725,0.508-0.725,0.508s1.452-1.336,1.866-3.065h-0.653C59.209,56.383,59.901,55.78,60.116,54.06"/>
	<path fill="#FFFFFF" d="M40.374,34.881c0,0,0.656-0.614,1.892-0.264c-0.057,0.124-0.233,1.655-0.171,1.89
		c-0.486,0.148-5.284,0.86-7.784-5.766c0.129-0.102,3.324-0.431,6.063,4.123"/>
	<path fill="#FFFFFF" d="M61.333,34.864c0,0-0.661-0.606-1.887-0.236c0.059,0.123,0.333,1.632,0.274,1.857
		c0.495,0.145,5.207,0.82,7.622-5.837c-0.134-0.102-3.326-0.39-6.008,4.2"/>
	<path fill="#FFFFFF" d="M41.725,54.125c0,0,0.346-0.403,0.948-0.786c0.025,0.164,0.147,2.31,1.646,4.119
		c-0.116,0.243-0.238,0.313-0.238,0.313S42.673,56.776,41.725,54.125"/>
	<path fill="#FFFFFF" d="M46.867,36.816c-1.682-0.144-2.469-0.784-2.469-0.784l-0.5,0.214c-1.141,1.893,0.287,3.362,0.287,3.362
		c1.109,1.074,2.649,0.638,2.649,0.638c-0.325,1.039-0.074,1.292-0.074,1.292c0.254-0.856,1.108-1.714,1.108-1.714
		C46.834,38.067,46.867,36.816,46.867,36.816"/>
	<path fill="#FFFFFF" d="M54.907,36.787c1.668-0.195,2.439-0.866,2.439-0.866l0.51,0.197c1.202,1.859-0.182,3.369-0.182,3.369
		c-1.073,1.114-2.627,0.732-2.627,0.732c0.359,1.024,0.114,1.284,0.114,1.284c-0.276-0.853-1.158-1.68-1.158-1.68
		C54.977,38.042,54.907,36.787,54.907,36.787"/>
	<path fill="#144624" d="M46.435,37.176c-1.108-0.106-2-0.504-2-0.504c-0.715,1.325-0.069,2.077-0.069,2.077
		c0.786,1.497,2.861,0.823,2.861,0.823C46.478,38.352,46.435,37.176,46.435,37.176"/>
	<path fill="#144624" d="M55.432,37.211c1.108-0.109,2.003-0.504,2.003-0.504c0.716,1.325,0.068,2.071,0.068,2.071
		c-0.786,1.509-2.855,0.829-2.855,0.829C55.397,38.392,55.432,37.211,55.432,37.211"/>
	<path fill="#FFFFFF" d="M52.233,41.074h-2.291c-0.501,1.608-2.037,1.933-2.037,1.933c-1.004,0.749-0.962,2.822-0.962,2.822
		c0.355,2.324,1.246,2.648,1.246,2.648c0.611-0.644,1.541-0.929,1.541-0.929l-0.076-0.251c-1.07,0.178-1.359,0.43-1.359,0.43
		c-1.395-2.112-0.033-4.138-0.033-4.138c1.57-0.424,1.895-1.513,1.895-1.513h1.966c0.504,1.212,1.863,1.428,1.863,1.428
		c1.572,2.364,0.103,4.329,0.103,4.329c-0.786-0.427-1.25-0.391-1.25-0.391l-0.18,0.319c0.749,0.146,1.607,0.824,1.607,0.824
		c1.108-0.718,1.036-2.576,1.036-2.576c-0.07-2.577-0.856-3.042-0.856-3.042C52.84,42.754,52.233,41.074,52.233,41.074"/>
	<path fill="#FFFFFF" d="M53.287,44.401c0.103,1.551-0.766,1.897-0.766,1.897c-0.221-0.309-0.254-0.935-0.254-0.935
		C52.711,45.13,53.287,44.401,53.287,44.401"/>
	<path fill="#FFFFFF" d="M48.921,44.484c-0.103,1.557,0.734,1.815,0.734,1.815c0.217-0.309,0.254-0.935,0.254-0.935
		C49.454,45.13,48.921,44.484,48.921,44.484"/>
	<path fill="#FFFFFF" d="M53.177,49.512c-1.075-0.627-2.014-0.536-2.014-0.536c-1.27,0.016-2.042,0.57-2.042,0.57l0.214,0.377
		c0.609-0.483,1.827-0.499,1.827-0.499c1.283,0.016,1.785,0.483,1.785,0.483L53.177,49.512"/>
	<path fill="#FFFFFF" d="M48.009,59.16c0.596-1.144,1.757-1.892,1.757-1.892l-0.688-0.662c-0.437,0.142-1.195,0.631-1.195,0.631
		l-0.053-0.504l0.824-0.458l-0.896-0.614c-0.267-3.005-1.858-4.63-1.858-4.63l0.842-1.018c2.335,2.933,3.682,2.84,3.682,2.84
		c0.486-0.051,1.911-0.032,1.911-0.032c0.541,0.016,1.112-0.396,1.112-0.396C55.2,51.072,55.61,50.3,55.61,50.3l0.558,0.716
		c-2.308,3.109-0.451,7.134-0.451,7.134c-2.676,0.554-4.331,1.012-4.331,1.012h-3.377"/>
	<path fill="#144624" d="M69.864,90.836h10.37c0.379-0.53,3.389-4.7,3.626-5.043V75.02l0.077-3.906v-7.267
		c-0.252-0.343-3.278-4.445-3.659-4.955H19.771c-0.378,0.519-3.385,4.696-3.63,5.038v10.768l-0.076,3.907v7.264
		c0.258,0.346,3.282,4.447,3.66,4.966H69.864"/>
	<polyline fill="#C42033" points="49.139,91.834 50.788,95.663 52.424,91.834 49.139,91.834 	"/>
	<polyline fill="#FFFFFF" points="36.032,64.429 35.29,64.429 34.191,60.972 34.174,60.987 34.178,64.429 33.353,64.429 
		33.346,60.41 34.803,60.41 35.673,63.33 35.682,63.33 36.618,60.41 38.027,60.407 38.031,64.421 37.197,64.429 37.194,60.987 
		37.184,60.972 36.032,64.429 	"/>
	<polyline fill="#FFFFFF" points="40.099,64.412 39.214,64.412 39.209,60.398 40.097,60.393 40.099,64.412 	"/>
	<polyline fill="#FFFFFF" points="41.116,64.412 41.112,60.39 42.003,60.39 42.008,63.737 43.803,63.737 43.807,64.405 
		41.116,64.412 	"/>
	<polyline fill="#FFFFFF" points="46.152,60.381 47.151,60.381 47.877,63.396 47.884,63.396 48.55,60.381 49.4,60.372 
		48.346,64.397 47.36,64.397 46.614,61.336 46.601,61.336 45.806,64.397 44.795,64.405 43.778,60.381 44.703,60.381 45.34,63.405 
		45.349,63.405 46.152,60.381 	"/>
	<path fill="#FFFFFF" d="M57.092,60.366v2.518c0.004,1.067-0.786,1.587-1.789,1.587c-1.005,0-1.791-0.517-1.795-1.581v-2.518h0.882
		l0.004,2.178c0,0.68,0.035,1.297,0.904,1.297c0.876,0,0.909-0.617,0.909-1.301l-0.007-2.181H57.092"/>
	<polyline fill="#FFFFFF" points="58.846,62.097 58.857,62.097 60.227,60.366 61.27,60.357 59.752,62.157 61.408,64.379 
		60.3,64.379 58.857,62.332 58.846,62.332 58.846,64.379 57.968,64.379 57.959,60.366 58.846,60.366 58.846,62.097 	"/>
	<polyline fill="#FFFFFF" points="61.959,60.357 64.731,60.357 64.731,61.022 62.851,61.022 62.851,61.965 64.613,61.965 
		64.613,62.63 62.851,62.638 62.851,63.706 64.799,63.706 64.799,64.37 61.959,64.377 61.959,60.357 	"/>
	<polyline fill="#FFFFFF" points="65.623,60.348 68.397,60.348 68.397,61.014 66.509,61.014 66.509,61.955 68.276,61.955 
		68.276,62.621 66.509,62.621 66.509,63.696 68.458,63.696 68.462,64.361 65.623,64.368 65.623,60.348 	"/>
	<path fill="#FFFFFF" d="M49.359,64.39l1.482-4.018h1.057l1.441,4.016l-0.891,0.002l-0.3-0.853h-1.639l-0.304,0.853H49.359
		 M51.933,62.864l-0.589-1.709l-0.611,1.709H51.933z"/>
	<path fill="#C42033" d="M31.096,65.487l-2.237-2.899l-7.787,0.617l-0.063,2.448l1.053,0.008V84.12h-0.944l-0.184,2.341l8.351,0.709
		l1.811-2.589l-0.013-7.608l-1.516-1.612l1.529-2.513V65.487 M28.289,65.671v8.511h-3.415v-8.52L28.289,65.671z M24.874,84.103
		v-7.281h3.415v7.262L24.874,84.103z"/>
	<path fill="#C42033" d="M29.302,61.701h-7.139l-3.515,4.844h2.525v16.691l-2.525,0.009l3.416,4.814h7.684l2.24-3.197l-0.011-8.239
		c0,0-0.855-0.904-1.296-1.374c0.413-0.692,1.308-2.151,1.308-2.151V65.18L29.302,61.701 M28.421,63.481
		c0.375,0.487,1.512,1.955,1.787,2.304v6.815c-0.22,0.348-1.753,2.873-1.753,2.873s1.4,1.493,1.741,1.852
		c0,0.615,0.01,6.479,0.012,6.978c-0.224,0.32-1.04,1.485-1.386,1.974h-7.404c0.174-0.591,0.245-0.851,0.369-1.264
		c0.114,0,1.168-0.009,1.168-0.009V64.772c0,0-1.113,0-1.317,0c-0.147-0.402-0.25-0.685-0.466-1.291H28.421L28.421,63.481z"/>
	<path fill="#C42033" d="M23.987,65.662v9.404h5.185V64.787l-5.185-0.008V65.662 M25.765,66.555
		c0.629,0.009,1.003,0.009,1.632,0.009v6.728h-1.632V66.555z"/>
	<path fill="#C42033" d="M28.289,75.931h-4.301v9.067l5.185-0.033v-9.034H28.289 M27.398,77.707v5.491
		c-0.625,0.007-1.003,0.009-1.632,0.014v-5.506H27.398L27.398,77.707z"/>
	<polyline fill="#C42033" points="40.333,67.045 40.333,70.127 41.038,70.127 41.038,84.061 37.239,84.061 37.239,70.127 
		38.002,70.127 38.002,67.045 33.683,67.045 34.195,70.127 34.428,70.127 34.428,84.558 36.265,87.144 42.054,87.144 43.845,84.558 
		43.845,70.127 44.115,70.127 44.731,67.045 40.333,67.045 	"/>
	<path fill="#C42033" d="M44.731,66.153h-5.285v4.865h0.703v12.154h-2.024V71.018h0.763v-4.865h-6.256l0.811,4.865h0.092v13.818
		l2.271,3.201h6.709l2.216-3.201V71.018h0.108l0.979-4.865H44.731 M43.649,67.932c-0.117,0.597-0.171,0.842-0.263,1.304h-0.428
		v15.042c-0.22,0.318-1.025,1.474-1.371,1.973h-4.864c-0.35-0.489-1.179-1.654-1.408-1.979V69.235h-0.362
		c-0.084-0.473-0.126-0.725-0.224-1.304h2.382v1.304h-0.763v15.712h5.577V69.235h-0.701v-1.304H43.649L43.649,67.932z"/>
	<polyline fill="#C42033" points="55.029,71.289 55.029,70.109 52.803,67.045 48.676,67.045 46.601,70.192 46.601,84.546 
		48.28,87.133 53.306,87.133 55.029,84.624 55.029,82.289 52.22,80.01 52.22,84.05 49.409,84.05 49.409,70.109 52.22,70.109 
		52.22,73.566 55.029,71.289 	"/>
	<path fill="#C42033" d="M52.803,66.153h-4.598l-2.495,3.775v14.879l2.082,3.213h5.985l2.144-3.116v-3.041l-4.587-3.714v5.009
		h-1.033V71.002h1.033v4.429l4.587-3.715V69.82l-2.663-3.668H52.803 M52.349,67.932c0.379,0.52,1.537,2.118,1.791,2.464v0.473
		c-0.217,0.175-0.517,0.416-1.036,0.834v-2.478H48.52v15.71h4.584v-3.064c0.519,0.42,0.819,0.664,1.036,0.842v1.632
		c-0.217,0.315-0.963,1.406-1.305,1.894h-4.076c-0.33-0.512-1.074-1.649-1.271-1.956V70.461c0.222-0.334,1.301-1.967,1.672-2.53
		h3.19V67.932z"/>
	<polyline fill="#C42033" points="73.52,71.841 73.52,65.638 77.352,65.638 77.352,70.7 80.161,68.768 80.161,65.043 78.329,62.55 
		73.087,62.55 70.718,65.043 70.718,73.183 77.28,78.532 77.28,84.05 73.231,84.05 73.231,79.866 70.273,82.134 70.273,84.588 
		72.073,87.133 78.252,87.133 80.085,84.588 80.085,77.131 73.52,71.841 	"/>
	<path fill="#C42033" d="M78.329,61.664h-5.625l-2.879,3.019v8.922c0,0,5.975,4.867,6.566,5.347v4.204H74.12v-5.104l-4.727,3.645
		v3.174l2.212,3.147h7.103l2.271-3.141v-8.171c-5.848-4.708-5.772-4.646-6.564-5.288v-4.894h2.047v5.864l4.587-3.153v-4.57
		l-2.358-3.002H78.329 M77.965,63.442c0.368,0.359,0.926,1.601,1.305,1.975v2.888c-0.241,0.164-0.512,0.35-1.029,0.705v-4.254
		h-5.607v7.511c0,0,5.964,4.805,6.571,5.29v6.738c-0.241,0.328-1.058,1.466-1.401,1.944h-5.275
		c-0.346-0.488-1.139-1.617-1.364-1.936v-1.732c0.243-0.184,0.591-0.452,1.174-0.911v3.274h5.829v-6.83c0,0-5.973-4.863-6.564-5.349
		v-7.361c0.346-0.363,1.489-1.57,1.861-1.953H77.965L77.965,63.442z"/>
	<polyline fill="#C42033" points="67.576,84.002 64.053,76.073 67.197,70.068 67.593,70.068 67.593,66.986 64.081,66.986 
		64.081,70.068 64.644,70.068 60.983,77.058 60.983,70.068 61.552,70.068 61.552,66.986 56.989,66.986 57.71,70.068 58.172,70.068 
		58.172,84.002 57.583,84.002 56.856,87.085 61.62,87.085 61.62,84.002 60.983,84.002 60.983,81.934 62.535,78.972 64.613,84.002 
		64.289,84.002 64.289,87.085 68.276,87.085 68.276,84.002 67.576,84.002 	"/>
	<path fill="#C42033" d="M67.593,66.096H63.19v4.83c-0.396,0.748-0.663,1.268-1.32,2.52v-2.485h0.569v-4.865h-6.58l1.145,4.865h0.28
		v12.152h-0.407l-1.141,4.867h6.77v-4.867h-0.639v-0.963c0.077-0.127,0.293-0.553,0.569-1.082c0.44,1.057,0.666,1.61,0.963,2.323
		v4.589h5.763v-4.867h-1.005c-0.396-0.866-2.829-6.348-3.118-7.004c0.32-0.615,2.301-4.391,2.695-5.148h0.744v-4.865H67.593
		 M66.7,67.873v1.308h-0.042l-3.593,6.863l3.937,8.843h0.381v1.312h-2.201v-1.312h0.755l-3.302-8.021l-2.54,4.853v3.168h0.631v1.312
		h-2.748c0.138-0.593,0.195-0.854,0.306-1.312h0.777V69.181h-0.648c-0.11-0.453-0.164-0.712-0.304-1.308h2.555v1.308h-0.569v7.877
		l1.675,0.411l4.342-8.287H64.97v-1.307h1.73V67.873z"/>
	<path fill="#FFFFFF" d="M31.096,65.487l-2.237-2.899H22.6l-2.395,3.065l1.858,0.009V84.12h-1.828l2.366,3.05h6.685l1.811-2.589
		l-0.013-7.607l-1.516-1.613l1.529-2.513V65.487 M28.289,65.671v8.511h-3.415v-8.52L28.289,65.671z M24.874,84.103v-7.281h3.415
		v7.262L24.874,84.103z"/>
	<polyline fill="#FFFFFF" points="40.333,67.045 40.333,70.127 41.038,70.127 41.038,84.061 37.239,84.061 37.239,70.127 
		38.002,70.127 38.002,67.045 33.683,67.045 34.2,70.127 34.428,70.127 34.428,84.558 36.265,87.144 42.054,87.144 43.845,84.558 
		43.845,70.127 44.115,70.127 44.736,67.045 40.333,67.045 	"/>
	<polyline fill="#FFFFFF" points="55.029,71.289 55.029,70.109 52.803,67.045 48.68,67.045 46.601,70.192 46.601,84.546 
		48.28,87.133 53.306,87.133 55.029,84.624 55.029,82.289 52.22,80.01 52.22,84.05 49.409,84.05 49.409,70.109 52.22,70.109 
		52.22,73.566 55.029,71.289 	"/>
	<polyline fill="#FFFFFF" points="73.52,71.841 73.52,65.638 77.354,65.638 77.354,70.7 80.161,68.768 80.161,65.043 78.329,62.55 
		73.087,62.55 70.718,65.043 70.718,73.183 77.28,78.532 77.28,84.05 73.231,84.05 73.231,79.866 70.273,82.134 70.273,84.588 
		72.073,87.133 78.252,87.133 80.091,84.588 80.091,77.131 73.52,71.841 	"/>
	<polyline fill="#FFFFFF" points="67.576,84.002 64.053,76.073 67.197,70.068 67.593,70.068 67.593,66.986 64.081,66.986 
		64.081,70.068 64.644,70.068 60.983,77.058 60.983,70.068 61.559,70.068 61.559,66.986 56.989,66.986 57.714,70.068 58.172,70.068 
		58.172,84.002 57.583,84.002 56.856,87.085 61.62,87.085 61.62,84.002 60.983,84.002 60.983,81.934 62.54,78.972 64.613,84.002 
		64.289,84.002 64.289,87.085 68.276,87.085 68.276,84.002 67.576,84.002 	"/>
	<polyline fill="#BCCAD6" points="37.206,68.511 38.072,70.127 37.31,70.127 37.31,84.061 36.452,84.77 35.807,83.908 35.915,68.46 
		37.206,68.511 	"/>
	<polyline fill="#BCCAD6" points="44.191,70.127 43.92,70.127 43.92,84.558 42.124,87.144 36.339,87.144 36.939,85.525 
		41.517,85.525 42.484,84.346 42.484,68.408 43.4,68.408 44.801,67.045 44.191,70.127 	"/>
	<polyline fill="#BCCAD6" points="41.108,70.127 40.404,70.127 41.084,68.46 42.484,68.408 41.108,70.127 	"/>
	<polyline fill="#BCCAD6" points="34.5,70.127 34.269,70.127 34.948,68.511 35.915,68.46 34.5,70.127 	"/>
	<polyline fill="#BCCAD6" points="34.5,70.127 34.269,70.127 34.948,68.511 35.915,68.46 34.5,70.127 	"/>
	<polyline fill="#BCCAD6" points="23.438,85.577 22.6,87.17 29.285,87.17 31.096,84.581 31.088,76.976 29.676,77.138 29.676,84.378 
		28.74,85.631 23.438,85.577 	"/>
	<polyline fill="#BCCAD6" points="29.588,65.553 29.642,73.142 28.385,75.29 29.566,75.362 31.096,72.849 31.096,65.487 
		29.588,65.553 	"/>
	<polyline fill="#BCCAD6" points="24.874,74.182 23.48,75.371 23.48,64.022 28.397,64.046 29.588,65.553 28.289,65.671 
		24.874,65.662 24.874,74.182 	"/>
	<polyline fill="#BCCAD6" points="28.289,76.821 29.226,76.481 28.364,75.402 23.48,75.371 23.404,85.497 24.874,84.103 
		24.874,76.821 28.289,76.821 	"/>
	<polyline fill="#BCCAD6" points="26.19,75.675 24.375,75.666 27.586,74.058 27.586,74.008 26.19,75.675 	"/>
	<polyline fill="#BCCAD6" points="49.12,68.599 48.017,70.396 48.097,84.57 49.485,84.05 49.485,70.109 52.29,70.109 53.195,69.332 
		52.494,68.528 49.12,68.599 	"/>
	<polyline fill="#BCCAD6" points="53.635,69.918 53.674,70.914 52.29,73.566 55.102,71.289 55.102,70.109 53.635,69.918 	"/>
	<polyline fill="#BCCAD6" points="53.56,82.555 53.56,84.643 52.901,85.675 48.933,85.675 48.351,87.133 53.379,87.133 
		55.102,84.624 55.102,82.289 53.56,82.555 	"/>
	<polyline fill="#BCCAD6" points="59.586,68.266 60.541,68.266 61.629,66.986 61.629,70.068 61.062,70.068 61.062,76.969 
		59.658,79.653 59.586,68.266 	"/>
	<polyline fill="#BCCAD6" points="65.938,70.1 59.698,81.487 59.586,85.563 58.377,85.563 56.928,87.085 61.694,87.085 
		61.694,84.002 60.764,85.605 59.586,85.563 61.062,84.002 61.062,81.934 67.271,70.068 67.668,70.068 67.668,66.986 66.783,68.266 
		66.008,68.266 65.938,70.1 	"/>
	<polyline fill="#BCCAD6" points="68.355,84.002 68.355,87.085 64.366,87.085 65.06,85.708 67.552,85.675 68.355,84.002 	"/>
	<polyline fill="#BCCAD6" points="62.636,76.201 66.709,85.675 67.654,84.002 64.068,75.973 62.636,76.201 	"/>
	<polyline fill="#BCCAD6" points="73.231,79.866 73.24,83.946 72.581,85.486 71.703,84.059 71.703,82.443 73.231,79.866 	"/>
	<polyline fill="#BCCAD6" points="72.073,87.133 72.581,85.486 77.58,85.486 78.604,84.274 78.604,77.821 80.091,77.131 
		80.091,84.588 78.252,87.133 72.073,87.133 	"/>
	<polyline fill="#BCCAD6" points="70.711,73.183 77.28,78.532 78.604,77.821 72.215,72.45 70.711,73.183 	"/>
	<polyline fill="#BCCAD6" points="73.52,71.841 72.215,72.45 72.215,65.479 73.389,64.123 77.698,64.123 78.756,65.405 
		77.354,65.638 73.52,65.638 73.52,71.841 	"/>
	<polyline fill="#BCCAD6" points="77.352,70.7 80.161,68.768 80.161,65.043 78.756,65.405 78.756,68.266 77.352,70.7 	"/>
	<polyline fill="#BCCAD6" points="58.172,70.068 57.714,70.068 58.627,68.257 59.586,68.266 58.172,70.068 	"/>
	<polyline fill="#BCCAD6" points="64.602,70.068 64.138,70.068 65.049,68.257 66.008,68.266 64.602,70.068 	"/>
</g>
</svg>
