<?xml version="1.0" encoding="utf-8"?>
<!-- Generator: Adobe Illustrator 19.1.0, SVG Export Plug-In . SVG Version: 6.00 Build 0)  -->
<svg version="1.1" id="Layer_1" xmlns="http://www.w3.org/2000/svg" xmlns:xlink="http://www.w3.org/1999/xlink" x="0px" y="0px"
	 viewBox="0 0 400 400" enable-background="new 0 0 400 400" xml:space="preserve">
<g>
	<path fill="#020202" d="M249.52,258.339c0,2.607,1.879,5.057,4.161,5.057c2.292,0,4.167-2.45,4.167-5.057
		c0-2.622-1.874-5.076-4.167-5.076C251.399,253.263,249.52,255.717,249.52,258.339"/>
	<path fill="#020202" d="M130.826,292.204c-0.125-3.072-1.113-3.999-2.552-4.32v8.857c0.534-0.172,1.053-0.422,1.461-0.812
		C130.53,295.183,130.896,293.925,130.826,292.204"/>
	<path fill="#020202" d="M138.77,303.089c2.12,1.768,3.753,4.004,4.719,6.143l-0.07-14.536
		C142.602,298.333,140.617,301.191,138.77,303.089"/>
	<path fill="#020202" d="M171.869,281.333l-0.993,7.118l-0.668,4.788l-3.642-3.174l-3.573-3.109l-5.521-0.051
		c0.033,2.747,0.097,7.214,0.134,9.924h9.795h4.12l-1.745,3.725l-3.874,8.277l-1.007,2.148l-2.241-0.789l-5.048-1.777l-0.139,13.214
		l4.38-0.065l7.201-4.885l4.097-2.775v4.937v8.732l0.798-1.759l-0.278-40.681L171.869,281.333z"/>
	<path fill="#020202" d="M255.662,289.726c-0.028,0-0.269,0.079-0.636,0.511c-1.591,1.823-3.322,7.122-3.322,14.49
		c0,9.947,2.942,15.163,3.958,15.163c0.469,0,0.933-0.446,1.179-0.715c1.336-1.531,2.775-7.697,2.775-14.448
		c0-7.373-1.712-12.681-3.304-14.481C255.936,289.81,255.695,289.726,255.662,289.726"/>
	<polygon fill="#020202" points="187.895,326.162 189.807,330.106 190.586,331.707 191.124,330.296 192.437,326.919 187.705,317.36 
			"/>
	<path fill="#020202" d="M188.215,287.527c-0.069,2.45-0.185,6.5-0.255,9.27c1.698-0.923,2.645-2.895,2.784-5.957
		c0.032-0.691-0.302-1.99-1.146-2.71C189.417,287.978,189.027,287.644,188.215,287.527"/>
	<path fill="#020202" d="M129.56,310.591c-0.422-0.324-0.942-0.547-1.475-0.71v11.525c0.603-0.13,1.169-0.339,1.554-0.663
		c0.998-0.849,2.134-2.204,2.264-5.285C131.987,313.273,130.683,311.468,129.56,310.591"/>
	<polygon fill="#020202" points="74.765,282.289 72.311,279.171 70.872,277.357 70.088,278.796 68.158,282.349 68.158,323.875 
		68.33,324.394 	"/>
	<path fill="#020202" d="M381.357,323.504c-0.668,2.64-2.677,10.653-12.481,13.056c-9.289,2.282-16.016-3.466-18.011-5.452v0.116
		v2.626h-2.626H321.69h-3.536l1.04-3.391l2.083-6.853l-0.181-37.326l-13.042,48.856l-0.552,2.069h-3.977l-0.543-2.102
		l-13.599-52.628l-2.445-2.923l-1.508,2.83v39.206l0.459-0.014l7.215-4.9l4.092-2.775v4.942v12.383v2.622h-2.607h-22.633h-3.596
		l1.109-3.424l2.083-6.477c-0.009-0.872-0.009-3.15-0.028-6.166c-1.048,4.542-2.788,8.305-5.224,11.075
		c-2.946,3.317-6.69,5.076-10.857,5.076c-4.166,0-7.915-1.758-10.843-5.071c-4.027-4.58-6.203-11.817-6.361-20.958l-5.401,27.063
		l-0.436,2.241h-3.934l-0.659-1.879l-5.229-14.842l-5.243,14.842l-0.649,1.879h-3.916l-0.464-2.218l-9.075-44.152
		c0,1.471-0.102,3.095-0.372,4.863c-0.737,4.811-3.489,8.138-5.354,9.92l11.743,24.497l1.8,3.749h-4.167h-32.529h-4.06l0.005-0.014
		h-26.316h-3.545l1.03-3.391l2.097-6.853l-0.01-1.118c-0.84,2.445-2.097,4.672-3.768,6.417c-5.419,5.642-14.021,5.294-19.714,5.071
		c-0.965-0.042-1.865-0.084-2.616-0.084h-2.552v-0.028h-11.534h-2.371l-0.241-2.357L99.1,314.976l-5.377,20.155l-0.562,2.074h-3.962
		l-0.547-2.102l-4.992-19.329l-1.577,15.733l-0.241,2.357H79.47H67.416h-5.601l0.014-0.019h-7.131h-3.6l1.114-3.424l2.083-6.472
		l-0.2-41.609l-0.399-0.733l-0.135,1.09l-0.636,4.7l-3.637-3.034l-5.085-4.218l-0.404,45.623l2.543,7.883l1.114,3.428h-3.605H30.015
		h-3.596l1.109-3.419l2.506-7.827l-0.195-46.067l-0.134,0.004l-5.535,4.593l-3.647,3.034l-0.626-4.704l-1.619-12.114l-0.385-2.969
		h2.988h31.694h2.988l-0.394,2.969l-0.58,4.342h13.195h1.174h3.229h2.18H86.42h2.208l0.376,2.176l2.491,14.328l2.538-14.337
		l0.381-2.167h2.204h11.122h1.206c-0.005,0-0.009-0.014-0.009-0.014l4.083-0.125l1.564-0.042c3.234-0.106,8.644-0.274,12.022-0.125
		c3.433,0.134,14.388,1.564,16.786,13.098l-0.028-3.011l-2.552-6.143l-1.517-3.633h3.93h26.525h3.016l-0.014,0.079h0.251h14.676
		c3.642,0,6.978,0.844,9.316,2.278l-1.958-2.176h5.874h11.966h2.278l0.32,2.264l2.445,17.389l2.129-8.361l2.292-8.996l2.742,8.862
		l2.607,8.407l1.828-17.218l0.26-2.348h2.352h11.683h5.753l-3.763,4.343l-2.445,2.811l-0.501,2.534
		c1.021-2.051,2.185-3.856,3.475-5.331c2.691-3.044,5.841-4.645,9.112-4.645c7.34,0,13.456,8.101,15.979,19.863
		c-0.014-5.401-0.028-9.395-0.028-9.418l-0.032-2.705l-2.677-3.378l-3.345-4.25h5.396h30.019h2.213l0.357,2.19l2.492,15.07
		l2.533-15.079l0.366-2.181h2.213h36.524h3.025l-0.422,2.978v0.047c1.986-5.298,5.8-8.853,11.029-10.124
		c10.903-2.691,18.317,5.725,18.628,6.092l1.127,1.313l-0.761,1.555l-5.795,11.715l-2.928,5.934l-1.935-6.328l-2.083-6.853
		c-0.357-0.339-1.081-0.877-1.986-0.896c-1.438-0.037-2.139,0.441-2.557,1.694c-0.626,1.985-0.153,4.936,0.478,6.175
		c1.151,2.287,3.387,4.389,5.985,6.825c3.03,2.853,6.463,6.069,9.172,10.555C380.874,309.626,383.408,315.296,381.357,323.504
		 M39.953,242.086l16.907-28.966l-5.679-1.28l18.948-34.851l11.367,35.399l-5.883,0.78l9.419,28.97l-19.668-0.023l-5.92,17.25
		H36.826l9.687-17.269L39.953,242.086z M90.804,249.366h0.037l4.598,10.49l4.723-10.49h0.033l3.883,17.631h-3.642l-1.248-7.934
		h-0.042l-3.818,8.236h-0.051l-3.48-8.217H91.76l-1.253,7.916h-3.703L90.804,249.366z M105.433,180.742l8.658,26.945l-4.477,0.594
		l7.758,22.09H111.4l2.524,11.655h-5.145l-14.346-24.15c0,0,0.83-0.107,1.898-0.367c1.011-0.246,2.245-0.635,3.197-1.202
		l-4.287-7.892l0.093-0.172l-0.218-0.056l-2.292-4.227L105.433,180.742z M122.234,266.89h-3.614v-17.32h3.614V266.89z
		 M138.232,249.366h0.047l9.53,9.59v-9.386h3.615v17.728h-0.042l-9.53-9.785v9.377h-3.619V249.366L138.232,249.366z
		 M123.936,211.863c0,0,0.636-0.07,1.443-0.274c0.775-0.185,1.712-0.482,2.436-0.923l-3.777-6.959l9.948-18.304l7.108,22.118
		l-3.68,0.487l6.371,18.128h-4.895l3.429,15.9h-7.233l-4.283-8.087h0.005c0.023-0.005,0.093-0.014,0.204-0.037
		c0.807-0.13,3.874-0.682,5.164-1.452L123.936,211.863z M118.963,173.367c0,0,3.865-20.099,19.259-32.058
		c0,0,2.83-1.202-13.743-1.513c0,0,7.136-9.423,18.851-14.713c0,0-7.354-1.288-13.785-0.603c0,0,5.192-9.98,23.12-12.736
		l1.434-0.234c-1.155-2.049-4.036-1.202-5.178-3.197c-0.617-1.09,15.775-5.036,15.167-6.106c-0.719-1.276-14.578-4.684-15.302-5.93
		c-0.408-0.724,4.997-3.002,4.589-3.725c-0.376-0.654-3.401-2.295-6.134-4.151c-2.71-1.84-5.127-3.897-5.387-3.83
		c-2.376,0.58,0.747,23.635,0.872,24.868c0.014,0.13-2.376,0.613-2.376,0.613c-1.308-1.299-11.966-33.278-9.623-38.911
		c0.339-0.823,1.749-0.378,6.89,3.545c21.626,16.515,40.431,20.628,40.431,20.628c0.547-4.345,0-10.316,0-10.316
		c8.421,3.262,13.307,12.492,13.307,12.492l0.278-0.814c1.267-3.83,1.624-9.235,1.624-9.235c4.069,2.445,8.013,9.015,8.013,9.015
		s1.317,13.24-2.07,20.285c-1.921,4.008-8.323,6.521-14.086,6.189c0,0,1.559,2.079,3.953,3.809c1.448,1.051,4.218,2.113,4.218,2.113
		s-5.067,3.661-16.619,1.125c-1.04,0.109,5.73,6.758,15.506,10.917c4.677,1.997,6.978,9.604,0.882,9.66c0,0,5.001,5.707,5.461,9.852
		l0.775,4.132c-1.86-2.617-4.584-3.477-6.76-3.712c-0.515-0.054-0.997-0.081-1.433-0.081h-0.167
		c-0.427,0.005-0.812,0.028-1.109,0.058c0,0.005-0.014,0.005-0.014,0.005c-0.246,0.023-0.468,0.079-0.691,0.118
		c-0.144,0.035-0.306,0.051-0.436,0.088c-0.232,0.06-0.441,0.137-0.654,0.218c-0.102,0.039-0.218,0.07-0.311,0.112
		c-0.246,0.104-0.464,0.225-0.673,0.343c-0.042,0.023-0.097,0.042-0.135,0.074c-1.215,0.724-1.786,1.589-1.795,1.605
		c0.005,0,0.005,0,0.005,0c1.703-0.258,2.705-0.471,5.637,0.511c9.381,3.159,8.166,15.995,8.751,18.064
		c0.009-0.037-2.413-1.745-5.735-1.745c-0.302,0-0.585,0.051-0.877,0.105c-0.325,0.051-0.649,0.137-0.96,0.253
		c-0.038,0.014-0.075,0.023-0.107,0.035c-0.292,0.114-0.571,0.253-0.84,0.406c-0.056,0.035-0.111,0.06-0.162,0.102
		c-0.246,0.146-0.469,0.311-0.691,0.494c-0.079,0.069-0.153,0.134-0.228,0.197c-0.181,0.169-0.362,0.343-0.525,0.531
		c-0.102,0.109-0.19,0.229-0.278,0.348c-0.121,0.155-0.241,0.315-0.348,0.485c-0.116,0.183-0.209,0.366-0.302,0.559
		c-0.065,0.127-0.134,0.246-0.185,0.376c-0.121,0.274-0.204,0.556-0.274,0.84c-0.019,0.056-0.038,0.107-0.051,0.162
		c-0.074,0.353-0.116,0.707-0.116,1.062c0,1.473,0.468,2.712,1.072,3.726c0.566,0.942,1.262,1.687,1.786,2.223
		c0.682,0.675,1.35,1.429,1.359,1.814c0.014,0.251-0.232,0.341-0.909,0.172l-0.01-0.005h-0.004c-4.111-1.03-8.779-5.449-9.089-12.39
		c-0.251-5.642,1.215-8.558,3.081-9.228c0.139-0.047,0.297-0.093,0.473-0.13c0.014,0.007,0.037,0.019,0.051,0.019
		c3.28-0.774,7.507,1.951,7.507,1.951l-0.004-0.01v0.01c0,0-0.469-0.944-1.522-2.004c-1.058-1.069-2.696-2.264-5.034-2.781
		c-1.021-0.22-1.991-0.216-2.895-0.014c-2.719,0.612-4.886,3.025-6.356,6.403c-0.621,1.411-1.104,3.139-1.299,5.083
		c-0.065,0.649-0.107,1.318-0.102,2.014c0.023,1.68,0.269,3.489,0.835,5.391c1.364,4.584,2.802,10.017,4.436,13.328
		c6.217,12.529,6.5,20.436,6.124,27.729c-0.014,0.25,0.005,0.473,0.01,0.706c0.005,0.25-0.005,0.519,0.014,0.756
		c0.019,0.204,0.06,0.39,0.088,0.59c0.042,0.255,0.074,0.51,0.134,0.752c0.042,0.176,0.102,0.334,0.158,0.506
		c0.074,0.232,0.148,0.468,0.246,0.682c0.065,0.148,0.134,0.292,0.209,0.431c0.107,0.209,0.218,0.418,0.353,0.621
		c0.079,0.121,0.167,0.237,0.255,0.357c0.139,0.191,0.288,0.381,0.446,0.552c0.093,0.102,0.195,0.2,0.287,0.302
		c0.176,0.167,0.353,0.325,0.548,0.487c0.097,0.079,0.199,0.167,0.301,0.237c0.204,0.158,0.418,0.287,0.636,0.427
		c0.102,0.065,0.204,0.13,0.315,0.19c0.232,0.139,0.483,0.269,0.728,0.376c0.093,0.042,0.186,0.102,0.283,0.139
		c0.283,0.121,0.58,0.237,0.868,0.344c0.075,0.023,0.135,0.056,0.204,0.074c0.738,0.251,1.485,0.446,2.236,0.59
		c0.139,0.028,0.274,0.051,0.418,0.074c0.228,0.042,0.455,0.084,0.678,0.111c0.19,0.033,0.376,0.051,0.561,0.07
		c0.172,0.028,0.335,0.046,0.501,0.065c0.209,0.019,0.418,0.038,0.626,0.056c0.13,0.004,0.26,0.019,0.39,0.028
		c0.227,0.014,0.45,0.028,0.668,0.033c0.538,0.023,1.053,0.037,1.513,0.037c7.585,0,10.244-4.417,10.68-10.337
		c0.506-6.83-0.645-15.093,6.125-27.114c2.57-4.55-2.157,3.526-2.459,16.522c-0.306,12.393-0.06,25.978-15.812,26.284v0.005
		c-0.798,0.014-1.592,0.028-2.464-0.023c0,0-6.06-0.074-9.525-4.816c-0.64-0.877-1.151-1.846-1.587-2.872
		c-2.71-6.334-1.883-14.926-3.47-20.206c-1.508-5.011-3.735-9.567-5.401-12.596c-1.271-2.334-2.214-3.763-2.223-3.791v0.042
		c-0.097,2.399,0.009,6.136,1.967,10.296c2.07,4.417,2.278,9.432,2.297,10.936c0,0.065,0.005,0.167,0.005,0.214
		c0,0.185-0.005,0.278-0.005,0.278c-1.754-1.652-4.426-2.093-4.431-2.093c0.042,0.093,0.084,0.228,0.13,0.339
		c0.621,1.624,1.304,4.946,1.995,9.628c0.102,0.715,0.209,1.457,0.315,2.236c0.492,3.698,1.754,6.895,2.691,8.908
		c0.204,0.441,0.399,0.844,0.562,1.155h-0.005c0,0,0.005,0,0.005,0.004h-18.717l-6.862-12.959h0.005
		c0.014,0,0.083-0.009,0.167-0.028c0.664-0.106,3.183-0.561,4.236-1.192l-10.04-16.898c0,0,0.511-0.069,1.183-0.232
		c0.64-0.149,1.406-0.394,2.004-0.752l-18.378-33.809l-12.467,22.925l-3.28-6.055l-1.944-3.856
		C116.295,189.184,117.45,178.627,118.963,173.367 M220.698,254.655c0-3.382,2.677-5.289,5.313-5.289
		c1.675,0,3.378,0.728,4.667,1.967l-1.986,2.96c-0.826-0.858-1.452-1.299-2.575-1.299c-0.64,0-1.592,0.441-1.592,1.341
		c0,2.724,6.519,0.961,6.519,7.243c0,3.842-2.552,5.721-5.596,5.721c-1.8,0-3.665-0.617-5.038-2.018l2.158-3.262
		c0.677,0.937,1.656,1.383,2.738,1.383c0.747,0,1.921-0.422,1.921-1.517C227.226,259.202,220.698,260.798,220.698,254.655
		 M227.509,144.476l2.343-1.61c0,0,1.851,4.027-2.343,7.198c-4.394,3.32-7.215-1.468-7.215-1.468l1.916-1.327
		c0,0,1.619,1.478,3.832,0.443C228.251,146.689,227.509,144.476,227.509,144.476 M206.212,229.624
		c3.35-0.315,2.232-5.516,2.232-5.516c0.645,0.784,1.596,2.218,1.596,4.765c0,4.157-2.236,5.271-2.701,5.271
		c-0.487,0-1.656-0.798-1.656-2.714S206.212,229.624,206.212,229.624 M192.451,199.016c0.436-1.032,2.942-0.446,3.526,0.733
		c1.169-1.181,2.798-0.596,3.526,0.146c0.738-0.742,2.352-1.327,3.531-0.146c0.575-1.181,3.076-1.765,3.535-0.733
		c0,0,0,2.345-1.485,3.814c0,0-0.881-1.909-1.619-2.062c0,0-1.461,1.918-2.051,2.654l-1.912-2.355l-1.902,2.355
		c-0.589-0.735-2.069-2.654-2.069-2.654c-0.728,0.151-1.619,2.062-1.619,2.062C192.451,201.361,192.451,199.016,192.451,199.016
		 M190.915,224.107c0,0-1.118,5.201,2.227,5.516c0,0,0.529-0.106,0.529,1.81c0,1.911-1.165,2.71-1.647,2.71
		c-0.473,0-2.709-1.114-2.709-5.271C189.32,226.33,190.275,224.892,190.915,224.107 M188.892,207.265c0,0-2.204-1.322-2.204-5.287
		c0-5.157,2.204-6.183,2.204-6.183c0.882-0.292,1.327,0.155,2.065,0.74c0.733,0.587,1.025,2.06,1.025,2.06s-1.601,0.443-2.793,2.343
		C188.015,202.853,188.892,207.265,188.892,207.265 M203.814,236.045c-0.789,0.97-1.911,0-1.911,0s-0.946,0.803-2.232,0.162
		c-1.262,0.645-2.223-0.162-2.223-0.162s-1.118,0.97-1.912,0c-1.517-1.814-0.482-4.617-0.482-4.617s0.324,3.021,2.236,3.187
		l1.276-2.236l1.105,2.394l1.118-2.394l1.28,2.236c1.912-0.167,2.232-3.187,2.232-3.187S205.331,234.231,203.814,236.045
		 M199.819,225.643v-0.06c-5.869-0.293-8.222-6.162-8.514-11.154c-0.292-4.992,0.728-6.899,3.517-7.048
		c2.793-0.148,4.115,3.373,4.259,4.844c0.153,1.471,0.738,2.789,0.738,2.789v0.06c0,0,0.585-1.327,0.733-2.797
		c0.149-1.461,1.471-4.983,4.264-4.835c2.788,0.134,3.805,2.051,3.521,7.038C208.041,219.468,205.693,225.341,199.819,225.643
		 M209.809,200.939c-1.169-1.9-2.789-2.343-2.789-2.343s0.302-1.473,1.035-2.06c0.733-0.585,1.179-1.032,2.051-0.74
		c0,0,2.203,1.023,2.203,6.183c0,3.965-2.203,5.287-2.203,5.287S210.992,202.853,209.809,200.939 M180.551,249.57v17.728h-0.042
		l-9.549-9.785v9.377h-3.596v-17.524h0.037l9.53,9.59v-9.386H180.551L180.551,249.57z M203.911,256.363v3.624h-3.762v3.29h5.716
		l-0.886,3.623h-8.435v-17.129h8.24l0.636,3.624h-5.27v2.969H203.911L203.911,256.363z M218.888,128.311
		c0.366,2.137,1.062,4.32,1.475,3.647c1.095-1.826,8.027-5.25,8.027-5.25s-2.473,4.301-1.392,3.654
		c1.503-0.898,5.122,0.946,5.122,0.946c-10.23,3.986-18.308,8.586-21.468,14.648C210.296,143.1,218.531,126.174,218.888,128.311
		 M261.462,258.329c0,4.992-3.531,8.969-7.781,8.969c-4.245,0-7.767-3.971-7.767-8.969c0-4.992,3.521-8.964,7.767-8.964
		C257.932,249.366,261.462,253.338,261.462,258.329 M268.255,224.85l-4.626,0.301l-1.689,16.875h-18.424l5.767-10.88l2.891-5.47
		l-4.37-0.687l7.006-11.79l3.397-5.758l-3.716-0.48l11.706-21.54l3.531,21.178l-3.749,0.496L268.255,224.85z M231.745,95.905
		c13.251-4.417,33.322-19.037,33.462-19.143c6.157-5.069,8.17-6.658,9.34-6.108c0.817,0.385,1.1,1.16,1.1,1.712
		c0,0-4.654,24.467-14.495,39.723c0,0,8.639,3.13,13.056,10.305c0,0-9.168-0.192-13.705,0.726
		c4.704,2.818,15.822,13.056,18.944,18.577c-9.191-1.473-18.707-0.828-18.707-0.828c0.728,0.654,5.345,5.568,6.147,6.261
		c8.922,7.602,16.875,19.206,16.518,37.788l-0.84-5.139c-4.575-16.374-12.861-25.734-20.865-32.557
		c-1.475-1.255-9.275-7.424-10.481-8.558c0,0,5.619-0.77,7.632-1.097c3.313-0.554,9.896-0.188,13.242-0.097
		c-5.795-6.292-19.556-15.557-19.677-15.64l-1.113-0.55c5.535-1.837,15.793-1.315,16.188-1.28c0,0-3.944-4.238-10.193-7.175
		c10.504-15.798,14.165-37.162,14.248-37.157c-0.065-0.005,1.28-2.387-4.77,3.127c-0.612,0.452-6.765,5.706-14.815,13.344
		l3.109,4.886c-4.923,1.236-11.172,2.466-17.598,3.204l7.957,7.839c-7.372-3.213-13.705-8.28-21.538-9.203
		C226.715,97.812,229.128,96.833,231.745,95.905 M275.492,253.657l0.924-3.893h9.938v3.893h-3.512v13.233h-3.605v-13.233H275.492z
		 M294.757,180.742l5.41,26.353l-4.575,0.601l3.438,22.312l-5.628,0.376l-1.16,11.646h-21.05l2.946-5.568l3.526-6.662l-5.336-0.826
		l8.537-14.369l4.148-7.011L280.485,207L294.757,180.742z M315.055,266.89h-3.661l-1.485-3.266h-5.54l-1.466,3.266h-3.503
		l7.776-17.524h0.037L315.055,266.89z M317.259,212.262l-5.948-0.779l18.754-34.497l12.773,35.401l-5.544,0.738
		c3.002,6.398,9.882,22.02,12.685,27.179l-5.813,1.16l8.667,18.299c-3.972,1.545-6.871,6.389-6.871,6.389l-7.855,0.121l-9.317-24.14
		l-27.797-0.107L317.259,212.262z M382.085,293.123c0,0,9.762-20.498,9.79-20.568c-0.046-0.06-0.148-0.19-0.148-0.19
		s-0.446-0.575-0.441-0.566c-0.381-0.483-9.442-11.752-20.442-13.149l-1.262-0.121l-5.995-11.326l1.796-0.39
		c2.222-0.464,3.925-1.021,4.82-1.559c0,0,0.209-0.125,0.33-0.195c-0.075-0.112-15.933-26.813-15.933-26.813l1.749-0.496
		c1.271-0.353,2.269-0.71,2.881-1.016c0,0,0.237-0.116,0.357-0.181c-0.102-0.2-29.745-54.7-29.856-54.913
		c-0.209,0.362-19.594,36.011-19.594,36.011s-15.51-28.539-15.636-28.755c-0.111,0.209-4.988,9.175-4.988,9.175l-0.621-4.088
		c-0.571-3.753-1.633-7.256-3.132-10.411c-1.833-3.832-4.742-8.247-8.667-13.121l-2.487-3.104l3.879,0.865
		c3.447,0.775,6.106,1.981,6.417,2.134c0,0,3.512,1.703,3.749,1.816c-0.079-0.44-0.812-4.092-0.812-4.092
		c-1.188-6.018-4.31-11.669-9.289-16.798l-3.368-3.422l6.607,1.552c0,0,4.593,1.348,4.909,1.443
		c-0.269-0.478-2.529-4.463-2.529-4.463c-4.213-7.426-8.732-11.537-11.799-13.674l-0.905-0.636l0.422-1.028
		c7.136-17.499,10.75-30.912,10.75-39.862c0-7.331-2.445-9.53-3.503-10.135l-0.562-0.323c0,0-0.088-0.053-0.125-0.081
		c-0.056,0.017-0.789,0.179-0.798,0.179c-2,0.448-7.002,3.756-17.984,11.223c-5.874,4.009-12.527,8.549-17.288,11.391
		c-6.268,3.76-10.871,5.394-13.636,6.104l-1.234,0.308l-0.413-1.197c-0.858-2.392-1.364-5.939-1.48-8.393
		c0,0-0.158-3.35-0.176-3.578c-0.32,0.204-3.02,1.921-3.02,1.921c-1.935,1.246-4.408,4.041-7.146,8.103l-1.109,1.661l-1.169-1.633
		c-3.647-5.069-7.874-8.391-8.036-8.523c0,0-4.449-3.456-4.746-3.689c0.158,0.631,1.452,5.835,1.452,5.835l0.023,0.014l0.051,0.97
		l-0.186,4.28l-2.116-1.599c-4.036-3.041-8.788-5.832-9.312-6.145c0,0-3.313-1.944-3.545-2.081c0.042,0.443,0.204,1.939,0.204,1.939
		l0.529,5.058l-2.469-1.659c-5.646-3.779-12.044-5.802-12.773-6.022c0,0-3.856-1.146-4.111-1.23c0.167,0.436,1.596,3.99,1.596,3.99
		c0.594,1.501,1.099,3.603,1.47,6.069l0.376,2.598l-2.361-1.141c-9.497-4.602-27.026-15.471-33.438-20.129
		c-3.698-2.693-6.551-3.44-8.713-2.283c-2.858,1.534-2.858,5.6-2.858,6.939l0.023,1.181c0.562,12.687,7.391,31.552,10.3,39.073
		l0.418,1.079l-0.979,0.608c-9.08,5.656-15.093,13.815-15.742,14.717c0,0-2.339,3.331-2.501,3.57
		c0.468-0.032,4.333-0.302,4.338-0.302l6.203-0.056l-3.099,2.512c-7.799,6.296-11.655,13.708-11.697,13.787
		c0,0-2.13,4.062-2.283,4.341c0.501-0.151,4.714-1.399,4.714-1.399c2-0.592,4.083-1.03,6.199-1.283l3.452-0.431l-2.208,2.693
		c-4.157,5.059-7.145,11.149-8.88,18.083c-0.45,1.798-0.812,3.726-1.053,5.719l-0.548,4.294c0,0-4.895-8.999-5.01-9.215
		c-0.116,0.216-15.64,28.755-15.64,28.755s-19.464-35.798-19.584-36.011c-0.19,0.362-29.787,54.793-29.857,54.913
		c0.204,0.106,0.362,0.181,0.362,0.181c0.612,0.311,1.605,0.663,2.881,1.016l1.749,0.496c0,0-15.863,26.701-15.942,26.813
		c0.186,0.111,0.339,0.195,0.339,0.195c0.882,0.534,2.594,1.09,4.811,1.559l1.8,0.39l-6.134,11.581H8.12
		c0.023,0.158,6.579,42.245,6.612,42.454c0.283-0.191,8.013-5.317,8.013-5.317l0.241,28.015c0,0-7.039,20.192-7.099,20.368h43.21
		c-0.093-0.292-1.09-3.373-1.09-3.373h295.238l0.283,0.125c2.106,0.979,9.655,4.06,18.067,3.048
		c4.742-0.571,20.215-4.296,20.215-28.218c0-10.495-6.389-18.935-9.122-22.076L382.085,293.123z"/>
	<polygon fill="#020202" points="305.243,260.45 309.098,260.45 307.177,256.26 	"/>
	<path fill="#020202" d="M350.865,325.61l4.802-9.739l2.932-5.93l1.93,6.324l2.079,6.774c0.403,0.348,1.188,0.872,2.223,0.988
		c0.97,0.111,2.816-1.262,3.252-2.051c1.434-2.612,0.306-5.605-0.974-8.194c-0.868-1.74-3.559-4.617-6.166-7.395
		c-3.378-3.615-7.206-7.702-9.4-11.609c-1.429-2.529-2.352-5.568-2.663-8.444l-0.283,2.116l-0.668,4.783l-3.642-3.169l-3.582-3.109
		l-5.516-0.056c0.047,2.751,0.093,7.219,0.13,9.929h9.799h4.12l-1.749,3.725l-3.875,8.277l-1.002,2.148l-2.246-0.789l-5.048-1.777
		l-0.13,13.214l4.385-0.07l7.201-4.885l4.092-2.775v4.942V325.61L350.865,325.61z"/>
	<path fill="#020202" d="M113.637,284.386l-2.886-5.813c0,0-0.102-0.213-0.259-0.52l-0.506,0.849l-1.935,3.211l6.639,43.432
		L113.637,284.386z"/>
	<path fill="#A9ABAE" d="M391.81,315.89c0,23.913-15.469,27.639-20.206,28.214c-8.421,1.011-15.97-2.069-18.076-3.044l-0.283-0.125
		H58.006c0,0,0.997,3.081,1.095,3.368H15.883c0.065-0.176,7.103-20.364,7.103-20.364l-0.241-28.019c0,0-7.729,5.132-8.013,5.322
		c-0.037-0.209-6.588-42.301-6.612-42.463H30.47l6.134-11.576l-1.805-0.385c-2.213-0.473-3.93-1.025-4.807-1.559
		c0,0-0.158-0.093-0.339-0.2c0.07-0.112,15.937-26.804,15.937-26.804l-1.745-0.501c-1.28-0.357-2.269-0.71-2.886-1.016
		c0,0-0.158-0.083-0.362-0.181c0.07-0.116,29.667-54.556,29.857-54.915c0.125,0.216,19.589,36.018,19.589,36.018
		s15.52-28.543,15.64-28.757c0.112,0.213,5.006,9.214,5.006,9.214l0.543-4.296c0.246-1.997,0.608-3.923,1.053-5.721
		c1.74-6.936,4.723-13.024,8.885-18.085l2.213-2.691l-3.461,0.427c-2.111,0.262-4.199,0.696-6.199,1.285c0,0-4.203,1.246-4.7,1.402
		c0.148-0.278,2.273-4.338,2.273-4.338c0.042-0.081,3.897-7.489,11.697-13.796l3.099-2.512l-6.199,0.065
		c-0.009,0-3.879,0.262-4.342,0.295c0.158-0.229,2.501-3.566,2.501-3.566c0.654-0.905,6.658-9.061,15.738-14.717l0.979-0.608
		l-0.413-1.081c-2.904-7.521-9.739-26.384-10.3-39.073l-0.028-1.181c0-1.332,0-5.403,2.863-6.937
		c2.162-1.162,5.016-0.41,8.709,2.283c6.417,4.658,23.946,15.522,33.438,20.129l2.366,1.144l-0.38-2.603
		c-0.367-2.466-0.872-4.568-1.471-6.064c0,0-1.424-3.566-1.596-3.995c0.259,0.088,4.115,1.23,4.115,1.23
		c0.724,0.225,7.122,2.248,12.768,6.022l2.473,1.659l-0.529-5.058c0,0-0.162-1.496-0.204-1.939c0.227,0.137,3.545,2.081,3.545,2.081
		c0.524,0.306,5.271,3.099,9.312,6.145l2.111,1.592l0.19-4.278l-0.051-0.965l-0.028-0.019c0,0-1.29-5.199-1.448-5.83
		c0.297,0.239,4.737,3.689,4.737,3.689c0.181,0.132,4.403,3.459,8.054,8.528l1.151,1.626l1.123-1.659
		c2.733-4.062,5.201-6.858,7.141-8.108c0,0,2.7-1.717,3.02-1.916c0.019,0.23,0.176,3.578,0.176,3.578
		c0.116,2.45,0.622,5.997,1.48,8.393l0.413,1.197l1.234-0.313c2.765-0.707,7.368-2.343,13.636-6.097
		c4.761-2.849,11.404-7.389,17.288-11.388c10.982-7.479,15.97-10.785,17.984-11.235c0.009,0,0.733-0.16,0.798-0.174
		c0.037,0.023,0.125,0.083,0.125,0.083l0.562,0.32c1.058,0.606,3.503,2.805,3.503,10.135c0,8.95-3.615,22.361-10.75,39.858
		l-0.422,1.032l0.905,0.638c3.058,2.141,7.596,6.245,11.799,13.671c0,0,2.26,3.981,2.529,4.463
		c-0.311-0.093-4.909-1.443-4.909-1.443l-6.607-1.545l3.368,3.417c4.979,5.124,8.096,10.775,9.289,16.798
		c0,0,0.733,3.652,0.812,4.092c-0.237-0.118-3.749-1.816-3.749-1.816c-0.311-0.153-2.969-1.359-6.417-2.129l-3.879-0.875
		l2.487,3.109c3.925,4.867,6.843,9.289,8.667,13.116c1.499,3.164,2.552,6.663,3.132,10.421l0.621,4.081c0,0,4.876-8.966,4.988-9.171
		c0.125,0.216,15.636,28.752,15.636,28.752s19.385-35.656,19.589-36.014c0.116,0.216,29.759,54.716,29.861,54.916
		c-0.12,0.06-0.357,0.181-0.357,0.181c-0.612,0.301-1.61,0.658-2.881,1.016l-1.749,0.501c0,0,15.859,26.692,15.933,26.804
		c-0.112,0.069-0.33,0.195-0.33,0.195c-0.896,0.543-2.598,1.095-4.816,1.559l-1.8,0.394l5.995,11.326l1.262,0.116
		c11.001,1.406,20.062,12.671,20.447,13.154c-0.01-0.014,0.441,0.566,0.441,0.566s0.097,0.121,0.143,0.19
		c-0.028,0.065-9.79,20.568-9.79,20.568l0.603,0.687C385.431,296.95,391.81,305.395,391.81,315.89 M395.141,272.198l-1.665-2.134
		c-0.413-0.515-10.059-12.49-22.118-14.142c-0.237-0.45-2.575-4.835-3.633-6.839c1.647-0.445,3.035-0.914,3.907-1.443l2.719-1.614
		l-1.624-2.719c0-0.009-10.732-18.076-13.91-23.417c0.65-0.218,1.23-0.441,1.661-0.659c0-0.004,2.937-1.466,2.937-1.466
		l-1.568-2.895l-32.12-59.052c0,0-15.566,28.627-19.584,36.004c-0.056-0.105-15.631-28.75-15.631-28.75s-3.239,5.948-3.698,6.795
		c-0.64-2.633-1.429-5.169-2.533-7.491c-1.476-3.099-3.615-6.53-6.371-10.244c1.007,0.373,1.666,0.668,1.796,0.735
		c-0.019-0.012,3.03,1.466,3.03,1.466l5.744,2.781l-1.243-6.252c0-0.002-0.663-3.331-0.663-3.331
		c-1.03-5.206-3.429-10.131-7.034-14.708c0.78,0.23,8.978,2.652,8.978,2.652l-5.92-10.458c-4.093-7.217-8.495-11.486-11.734-13.924
		c7.002-17.334,10.569-30.773,10.569-39.906c0-8.47-3.062-11.504-4.904-12.55c0-0.007-1.647-0.94-1.647-0.94l-1.832,0.411
		c-2.515,0.559-6.927,3.459-18.879,11.602c-5.902,4.025-12.528,8.537-17.214,11.346c-5.289,3.167-9.205,4.668-11.613,5.401
		c-0.469-1.814-0.845-4.201-0.942-6.329l-0.139-2.902c0-0.005-0.274-5.477-0.274-5.477l-7.057,4.512
		c-2.004,1.276-4.311,3.783-6.839,7.326c-3.475-4.415-6.996-7.231-7.419-7.57c-0.01-0.005-11.126-8.642-11.126-8.642
		s2.84,11.333,3.183,12.715c-3.452-2.403-6.756-4.352-7.196-4.617l-8.301-4.865c0,0,0.682,6.461,0.705,6.7
		c-5.076-2.939-9.98-4.535-11.033-4.851c-0.028-0.014-9.678-2.886-9.678-2.886l3.744,9.338c0.292,0.728,0.552,1.67,0.789,2.719
		c-9.6-4.992-24.841-14.499-30.506-18.609c-4.663-3.383-8.472-4.197-11.674-2.48c-4.333,2.32-4.333,7.639-4.333,9.389l0.033,1.299
		c0.561,12.567,6.955,30.715,10.091,38.932c-8.992,5.895-14.917,13.887-15.58,14.81c-0.01,0.016-5.869,8.347-5.869,8.347
		l6.635-0.443c0,0,0.849-0.056,1.712-0.114c-6.245,5.911-9.298,11.778-9.442,12.058c0.004-0.016-1.847,3.508-1.847,3.508
		l-3.48,6.649l11.014-3.262c0.756-0.225,1.559-0.311,2.339-0.485c-3.28,4.746-5.753,10.144-7.266,16.197
		c-0.172,0.664-0.255,1.411-0.39,2.107c-0.292-0.541-3.512-6.463-3.512-6.463s-13.599,25.003-15.636,28.757
		c-0.668-1.218-19.589-36.009-19.589-36.009l-2.784,5.12l-30.896,56.82l2.941,1.471c0.427,0.218,0.993,0.445,1.652,0.663
		c-1.592,2.668-15.534,26.131-15.534,26.131l2.714,1.624c0.872,0.525,2.264,0.988,3.902,1.429c0,0.005-3.016,5.721-3.656,6.927
		H4.859l0.571,3.661l7.214,46.304c0,0,5.944-3.944,7.354-4.886c0.037,4.102,0.195,21.978,0.2,22.391
		c-0.149,0.445-8.226,23.611-8.226,23.611h50.967c0,0-0.877-2.668-1.1-3.364H352.66c2.571,1.146,10.435,4.218,19.274,3.15
		c5.317-0.64,22.67-4.774,22.67-30.979c0-10.778-6.06-19.403-9.233-23.198C386.034,291.313,395.141,272.198,395.141,272.198"/>
	<path fill="#A9ABAE" d="M121.519,199.095l12.467-22.925l18.369,33.8c-0.599,0.362-1.36,0.608-1.995,0.756
		c-0.673,0.162-1.188,0.228-1.188,0.228l10.04,16.902c-1.058,0.631-3.568,1.09-4.24,1.193c-0.079,0.019-0.144,0.028-0.158,0.028
		h-0.005l6.862,12.959h18.712c0-0.005,0-0.005,0-0.005h-7.062c-4.617-7.173-3.081-22.893-9.558-36.385
		c-1.953-4.041-3.331-7.665-4.31-10.822c-2.023,1.661-3.726,3.482-3.726,3.482c-1.967-8.393-0.209-15.063,0.71-17.714
		c-4.983,1.965-8.134,6.874-8.134,6.874s-3.099-6.781,1.513-17.538c3.178-7.414,9.354-11.312,13.77-12.792
		c-4.111-1.877-5.86-5.865-6.407-8.88c-1.062-5.897,3.072-15.372,3.072-15.372c6.788,6.505,15.71,9.479,22.039,14.348
		c6.069,4.656,7.428,8.967,7.428,8.967s-0.032-0.017-0.051-0.03c1.592,1.898,2.644,3.698,2.919,4.667c-0.023,0-0.033,0-0.051,0
		c2.176,0.232,4.9,1.093,6.76,3.712l-0.775-4.132c-0.459-4.146-5.466-9.853-5.466-9.853c6.097-0.056,3.8-7.665-0.882-9.655
		c-9.771-4.167-16.54-10.808-15.501-10.922c11.553,2.536,16.62-1.126,16.62-1.126s-2.77-1.067-4.218-2.116
		c-2.394-1.728-3.949-3.807-3.949-3.807c5.758,0.332,12.161-2.185,14.082-6.19c3.387-7.043,2.065-20.285,2.065-20.285
		s-3.934-6.572-8.013-9.015c0,0-0.348,5.405-1.615,9.236l-0.283,0.814c0,0-4.881-9.231-13.302-12.492c0,0,0.538,5.969,0,10.321
		c0,0-18.805-4.118-40.435-20.632c-5.141-3.925-6.551-4.369-6.89-3.545c-2.338,5.632,8.314,37.612,9.618,38.911
		c0,0,2.394-0.485,2.38-0.617c-0.13-1.231-3.248-24.284-0.872-24.867c0.25-0.067,2.677,1.995,5.387,3.83
		c2.728,1.856,5.753,3.496,6.134,4.15c0.404,0.724-4.997,3.002-4.593,3.726c0.719,1.241,14.582,4.654,15.306,5.925
		c0.608,1.076-15.789,5.02-15.172,6.11c1.146,1.995,4.023,1.148,5.178,3.199l-1.434,0.237
		c-17.928,2.744-23.124,12.733-23.124,12.733c6.431-0.684,13.794,0.601,13.794,0.601c-11.72,5.289-18.851,14.713-18.851,14.713
		c16.568,0.311,13.738,1.512,13.738,1.512c-15.39,11.959-19.259,32.061-19.259,32.061c-1.513,5.257-2.668,15.814-2.668,15.814
		l1.944,3.855L121.519,199.095z"/>
	<path fill="#A9ABAE" d="M193.138,174.293l0.004,0.01c0,0-4.226-2.723-7.511-1.951c2.682,0.513,6.101,4.755,7.28,7.95
		c-0.005,0-0.014,0-0.023,0.005c0.293-0.056,0.58-0.105,0.882-0.105c3.317,0,5.744,1.705,5.73,1.742
		c-0.584-2.067,0.64-14.903-8.751-18.064c-2.923-0.979-3.93-0.763-5.628-0.508C193.699,165.187,193.142,174.228,193.138,174.293"/>
	<path fill="#A9ABAE" d="M200.798,241.446c-0.033,1.461-1.267,2.942-1.276,2.946c15.756-0.306,15.515-13.891,15.808-26.284
		c0.311-12.996,5.043-21.071,2.468-16.529c-6.769,12.029-5.614,20.292-6.12,27.121c-0.441,5.92-3.095,10.337-10.685,10.337
		c-0.455,0-0.97-0.019-1.508-0.037c0.037,0.005,0.093,0.009,0.139,0.009C199.624,239.01,200.817,240.244,200.798,241.446"/>
	<path fill="#A9ABAE" d="M232.12,131.304c0,0-3.624-1.835-5.122-0.949c-1.09,0.659,1.392-3.642,1.392-3.642
		s-6.932,3.413-8.027,5.238c-0.403,0.682-1.109-1.506-1.485-3.642c-0.348-2.132-8.583,14.794-8.231,17.64
		C213.812,139.887,221.9,135.294,232.12,131.304"/>
	<path fill="#005283" d="M237.475,100.232c6.426-0.74,12.676-1.97,17.598-3.211l-3.109-4.886
		c8.05-7.633,14.202-12.887,14.824-13.344c6.05-5.505,4.705-3.125,4.761-3.12c-0.075-0.004-3.744,21.35-14.253,37.153
		c6.254,2.941,10.198,7.177,10.198,7.177c-0.404-0.035-10.653-0.557-16.188,1.283l1.118,0.55c0.125,0.081,13.882,9.344,19.672,15.64
		c-3.35-0.097-9.924-0.457-13.242,0.095c-2.014,0.329-7.632,1.102-7.632,1.102c1.211,1.13,9.006,7.293,10.49,8.553
		c8.008,6.823,16.281,16.185,20.855,32.557l0.849,5.134c0.357-18.578-7.604-30.186-16.527-37.786
		c-0.802-0.694-5.419-5.602-6.138-6.257c0,0,9.507-0.64,18.694,0.826c-3.127-5.521-14.248-15.759-18.939-18.575
		c4.537-0.926,13.705-0.733,13.705-0.733c-4.421-7.173-13.061-10.3-13.061-10.3c9.841-15.256,14.499-39.728,14.499-39.728
		c0-0.547-0.293-1.322-1.1-1.705c-1.169-0.55-3.192,1.041-9.34,6.108c-0.139,0.1-20.211,14.724-33.462,19.141
		c-2.607,0.928-5.043,1.902-7.85,2.965c7.823,0.919,14.165,5.985,21.523,9.199L237.475,100.232z"/>
	<path fill="#FCD51C" d="M226.038,147.712c-2.209,1.035-3.818-0.443-3.818-0.443l-1.917,1.331c0,0,2.812,4.781,7.206,1.46
		c4.195-3.167,2.343-7.194,2.343-7.194l-2.343,1.61C227.509,144.476,228.242,146.691,226.038,147.712"/>
	<path fill="#FFFFFF" d="M191.983,198.596c0,0-0.292-1.473-1.021-2.06c-0.743-0.585-1.188-1.032-2.07-0.74
		c0,0-2.204,1.023-2.204,6.183c0,3.965,2.204,5.292,2.204,5.292s-0.881-4.417,0.302-6.331
		C190.377,199.034,191.983,198.596,191.983,198.596"/>
	<path fill="#FFFFFF" d="M192.024,234.143c0.483,0,1.647-0.793,1.647-2.714s-0.529-1.8-0.529-1.8
		c-3.34-0.324-2.227-5.521-2.227-5.521c-0.645,0.784-1.596,2.227-1.596,4.77C189.32,233.029,191.556,234.143,192.024,234.143"/>
	<path fill="#FFFFFF" d="M212.309,201.978c0-5.153-2.203-6.187-2.203-6.187c-0.872-0.283-1.318,0.155-2.051,0.742
		c-0.742,0.584-1.03,2.065-1.03,2.065s1.615,0.439,2.784,2.345c1.183,1.909,0.297,6.322,0.297,6.322
		S212.309,205.943,212.309,201.978"/>
	<path fill="#FFFFFF" d="M195.532,200.767c0,0,1.475,1.918,2.064,2.654l1.907-2.355l1.912,2.355
		c0.589-0.735,2.055-2.654,2.055-2.654c0.742,0.151,1.619,2.062,1.619,2.062c1.48-1.469,1.48-3.814,1.48-3.814
		c-0.445-1.032-2.951-0.446-3.535,0.733c-1.179-1.181-2.793-0.596-3.531,0.146c-0.733-0.742-2.357-1.327-3.526-0.146
		c-0.584-1.181-3.09-1.765-3.526-0.733c0,0,0,2.345,1.462,3.814C193.913,202.829,194.804,200.92,195.532,200.767"/>
	<path fill="#FFFFFF" d="M202.069,234.616l-1.285-2.236l-1.109,2.394l-1.109-2.394l-1.28,2.236
		c-1.911-0.167-2.232-3.187-2.232-3.187s-1.04,2.803,0.478,4.617c0.798,0.97,1.911,0,1.911,0s0.961,0.803,2.227,0.162
		c1.276,0.645,2.232-0.162,2.232-0.162s1.118,0.97,1.907,0c1.522-1.814,0.487-4.617,0.487-4.617S203.976,234.449,202.069,234.616"/>
	<path fill="#FFFFFF" d="M207.34,234.143c0.464,0,2.701-1.118,2.701-5.266c0-2.542-0.951-3.985-1.596-4.77
		c0,0,1.118,5.192-2.232,5.521c0,0-0.529-0.121-0.529,1.8S206.853,234.143,207.34,234.143"/>
	<polygon fill="#A9ABAE" points="205.41,253.388 204.779,249.769 196.544,249.769 196.544,266.899 204.969,266.899 205.865,263.271 
		200.149,263.271 200.149,259.981 203.916,259.981 203.916,256.363 200.149,256.363 200.149,253.388 	"/>
	<polygon fill="#A9ABAE" points="167.402,249.366 167.364,249.366 167.364,266.89 170.96,266.89 170.96,257.513 180.509,267.298 
		180.551,267.298 180.551,249.57 176.927,249.57 176.927,258.956 	"/>
	<path fill="#A9ABAE" d="M225.305,263.401c-1.081,0-2.06-0.445-2.738-1.383l-2.158,3.262c1.374,1.402,3.248,2.018,5.038,2.018
		c3.044,0,5.596-1.884,5.596-5.721c0-6.282-6.528-4.519-6.528-7.243c0-0.9,0.96-1.341,1.601-1.341c1.118,0,1.749,0.441,2.584,1.295
		l1.976-2.956c-1.29-1.239-2.993-1.967-4.658-1.967c-2.645,0-5.322,1.907-5.322,5.289c0,6.143,6.519,4.547,6.519,7.229
		C227.216,262.979,226.052,263.401,225.305,263.401"/>
	<polygon fill="#A9ABAE" points="141.846,257.513 151.376,267.298 151.418,267.298 151.418,249.575 147.808,249.575 
		147.808,258.961 138.283,249.375 138.227,249.375 138.227,266.89 141.846,266.89 	"/>
	<path fill="#A9ABAE" d="M257.848,258.339c0,2.607-1.865,5.057-4.167,5.057c-2.282,0-4.161-2.45-4.161-5.057
		c0-2.622,1.874-5.076,4.161-5.076C255.983,253.263,257.848,255.717,257.848,258.339 M245.915,258.339
		c0,4.978,3.521,8.959,7.767,8.959c4.246,0,7.781-3.976,7.781-8.959c0-5.001-3.535-8.973-7.781-8.973
		C249.436,249.366,245.915,253.338,245.915,258.339"/>
	<polygon fill="#A9ABAE" points="91.756,259.077 91.802,259.077 95.277,267.294 95.324,267.294 99.142,259.063 99.189,259.063 
		100.436,266.997 104.078,266.997 100.195,249.375 100.167,249.375 95.44,259.852 90.837,249.375 90.804,249.375 86.805,266.997 
		90.503,266.997 	"/>
	<polygon fill="#A9ABAE" points="282.851,266.89 282.851,253.657 286.354,253.657 286.354,249.769 276.416,249.769 275.492,253.657 
		279.246,253.657 279.246,266.89 	"/>
	<rect x="118.624" y="249.57" fill="#A9ABAE" width="3.614" height="17.32"/>
	<path fill="#A9ABAE" d="M309.098,260.455h-3.855l1.935-4.194L309.098,260.455z M299.396,266.89h3.503l1.466-3.266h5.544
		l1.485,3.266h3.67l-7.855-17.524h-0.032L299.396,266.89z"/>
	<path fill="#FFFFFF" d="M189.667,156.163c-0.269-0.169-2.213-1.362-4.301-2.271c-1.383-0.603-2.816-1.069-3.842-1.028
		c-2.733,0.114-4.449,3.074-11.242,0.638c-5.642-2.014-5.929-7.941-5.549-11.272c0.144-1.197-1.346-2.721-2.269-4.099
		c-1.225-1.816-2.088-4.807-2.195-5.18c-0.014-0.044-0.019-0.067-0.019-0.067s-4.139,9.467-3.072,15.376
		c0.547,3.006,2.297,6.999,6.403,8.875c-4.412,1.48-10.593,5.382-13.766,12.787c-4.612,10.766-1.517,17.543-1.517,17.543
		s3.155-4.914,8.133-6.876c-0.914,2.659-2.672,9.322-0.71,17.717c0,0,1.703-1.821,3.73-3.482c0.979,3.158,2.348,6.781,4.301,10.822
		c6.491,13.497,4.951,29.211,9.567,36.385h7.062c-0.167-0.315-0.362-0.719-0.566-1.155c-0.942-2.014-2.195-5.21-2.696-8.908
		c-0.102-0.78-0.204-1.522-0.311-2.236c-0.691-4.686-1.373-8.004-1.995-9.623c-0.042-0.121-0.084-0.25-0.134-0.348
		c0.005,0,2.682,0.445,4.436,2.102c0,0,0.005-0.098,0.005-0.283c0-0.042-0.005-0.149-0.005-0.213
		c-0.014-1.503-0.223-6.514-2.297-10.936c-1.953-4.16-2.065-7.894-1.967-10.296v-0.042c0.014,0.028,0.951,1.457,2.227,3.791
		c1.661,3.027,3.888,7.581,5.396,12.592c1.587,5.285,0.766,13.877,3.471,20.211c0.436,1.025,0.942,1.995,1.587,2.872
		c3.466,4.737,9.525,4.816,9.525,4.816c0.872,0.051,1.665,0.038,2.463,0.023v-0.005c0.01-0.004,1.243-1.485,1.271-2.946
		c0.018-1.202-1.174-2.44-1.174-2.44c-0.051,0-0.097,0-0.144-0.005c-0.213-0.009-0.436-0.019-0.668-0.033
		c-0.13-0.009-0.255-0.023-0.39-0.032c-0.2-0.014-0.413-0.032-0.622-0.051c-0.171-0.019-0.334-0.033-0.501-0.06
		c-0.186-0.019-0.376-0.042-0.562-0.07c-0.228-0.032-0.45-0.074-0.678-0.116c-0.144-0.023-0.283-0.047-0.418-0.074
		c-0.752-0.144-1.503-0.339-2.236-0.589c-0.069-0.019-0.13-0.047-0.2-0.075c-0.292-0.106-0.589-0.218-0.872-0.343
		c-0.097-0.042-0.19-0.093-0.283-0.139c-0.246-0.112-0.496-0.237-0.728-0.381c-0.112-0.056-0.214-0.116-0.32-0.186
		c-0.214-0.134-0.422-0.274-0.627-0.427c-0.106-0.074-0.204-0.167-0.306-0.237c-0.186-0.162-0.371-0.32-0.543-0.492
		c-0.102-0.097-0.2-0.195-0.287-0.297c-0.158-0.172-0.311-0.362-0.45-0.552c-0.088-0.121-0.172-0.237-0.259-0.362
		c-0.125-0.2-0.237-0.409-0.353-0.622c-0.065-0.139-0.143-0.274-0.209-0.427c-0.093-0.218-0.167-0.446-0.241-0.682
		c-0.056-0.172-0.111-0.325-0.158-0.506c-0.056-0.237-0.093-0.501-0.134-0.752c-0.028-0.195-0.07-0.385-0.088-0.589
		c-0.018-0.237-0.009-0.501-0.014-0.756c-0.005-0.232-0.028-0.455-0.009-0.71c0.371-7.289,0.093-15.191-6.12-27.725
		c-1.642-3.313-3.081-8.739-4.445-13.328c-0.561-1.902-0.807-3.712-0.826-5.391c-0.005-0.696,0.032-1.357,0.102-2.014
		c0.19-1.948,0.673-3.674,1.294-5.083c1.476-3.378,3.638-5.79,6.356-6.403c0.905-0.204,1.875-0.204,2.895,0.014
		c2.339,0.517,3.976,1.712,5.034,2.777c1.053,1.067,1.527,2.009,1.527,2.009v-0.007c0-0.058,0.557-9.11-8.022-10.922
		c0,0-0.005,0-0.01,0c0.014-0.019,0.58-0.884,1.8-1.608c0.038-0.028,0.088-0.051,0.13-0.072c0.213-0.118,0.427-0.237,0.677-0.339
		c0.093-0.046,0.209-0.076,0.311-0.114c0.213-0.079,0.418-0.16,0.654-0.22c0.134-0.035,0.292-0.051,0.431-0.088
		c0.232-0.039,0.446-0.095,0.696-0.118c0.005,0,0.009,0,0.014-0.002c0.292-0.033,0.678-0.051,1.104-0.056h0.172
		c0.436,0,0.914,0.023,1.429,0.079c0.019,0,0.032,0,0.051,0C192.308,159.861,191.259,158.063,189.667,156.163"/>
	<path fill="#FFFFFF" d="M185.636,172.351c-0.014-0.002-0.033-0.012-0.051-0.017c-0.167,0.035-0.329,0.081-0.473,0.128
		c-1.865,0.673-3.331,3.587-3.081,9.228c0.311,6.943,4.978,11.363,9.098,12.393c0.005,0,0.005,0.005,0.005,0.005
		c0.678,0.169,0.928,0.072,0.909-0.174c-0.005-0.38-0.677-1.136-1.355-1.812c-0.529-0.538-1.22-1.279-1.791-2.225
		c-0.599-1.011-1.072-2.25-1.072-3.726c0-0.357,0.042-0.71,0.116-1.062c0.014-0.053,0.037-0.105,0.051-0.165
		c0.074-0.278,0.162-0.556,0.274-0.835c0.051-0.135,0.121-0.253,0.185-0.381c0.097-0.188,0.191-0.376,0.306-0.554
		c0.102-0.165,0.227-0.325,0.348-0.485c0.093-0.118,0.181-0.234,0.283-0.353c0.158-0.183,0.334-0.362,0.515-0.526
		c0.074-0.065,0.153-0.134,0.232-0.197c0.218-0.181,0.446-0.344,0.687-0.494c0.056-0.037,0.106-0.065,0.162-0.102
		c0.269-0.151,0.553-0.292,0.845-0.406c0.032-0.011,0.065-0.021,0.106-0.035c0.306-0.114,0.631-0.202,0.961-0.258
		c0.009,0,0.009-0.002,0.019-0.002C191.736,177.107,188.312,172.871,185.636,172.351"/>
	<path fill="#020202" d="M168.714,142.866l2.348,1.61c0,0-0.733,2.215,1.475,3.236c2.195,1.035,3.818-0.443,3.818-0.443l1.917,1.331
		c0,0-2.807,4.781-7.21,1.46C166.868,146.893,168.714,142.866,168.714,142.866 M162.465,138.129
		c0.928,1.374,2.413,2.898,2.269,4.099c-0.38,3.331-0.088,9.256,5.549,11.275c6.793,2.436,8.509-0.529,11.242-0.64
		c1.03-0.039,2.464,0.427,3.842,1.03c2.083,0.905,4.032,2.1,4.301,2.269c0.019,0.012,0.051,0.033,0.051,0.033
		s-1.359-4.315-7.433-8.964c-6.324-4.869-15.246-7.848-22.039-14.355c0,0,0.01,0.028,0.023,0.069
		C160.377,133.32,161.235,136.319,162.465,138.129"/>
	<path fill="#FCD51C" d="M171.062,150.06c4.399,3.322,7.21-1.464,7.21-1.464l-1.921-1.327c0,0-1.615,1.478-3.814,0.443
		c-2.208-1.023-1.475-3.232-1.475-3.232l-2.348-1.619C168.714,142.861,166.868,146.893,171.062,150.06"/>
	<path fill="#DA5E5B" d="M208.338,214.475c0.283-4.983-0.733-6.899-3.521-7.039c-2.793-0.143-4.115,3.378-4.264,4.839
		c-0.148,1.47-0.733,2.793-0.733,2.793v-0.056c0,0-0.584-1.318-0.738-2.789c-0.143-1.475-1.466-4.988-4.259-4.839
		c-2.789,0.148-3.809,2.055-3.517,7.043c0.292,4.992,2.64,10.866,8.514,11.154v0.06
		C205.693,225.341,208.041,219.472,208.338,214.475"/>
	<path fill="#005283" d="M256.841,319.17c-0.246,0.274-0.71,0.719-1.183,0.719c-1.016,0-3.953-5.215-3.953-15.163
		c0-7.363,1.731-12.676,3.322-14.49c0.367-0.432,0.603-0.511,0.631-0.511c0.047,0,0.278,0.088,0.65,0.52
		c1.591,1.8,3.303,7.108,3.303,14.481C259.616,311.482,258.177,317.644,256.841,319.17 M255.653,287.11
		c-0.9,0-1.786,0.468-2.594,1.392c-2.404,2.742-3.976,9.113-3.976,16.225c0,9.251,2.644,17.788,6.57,17.788
		c1.132,0,2.222-0.562,3.136-1.61c2.19-2.487,3.452-9.845,3.452-16.174c0-7.117-1.564-13.487-3.972-16.23
		C257.454,287.578,256.568,287.11,255.653,287.11"/>
	<path fill="#005283" d="M187.96,296.797c0.07-2.765,0.181-6.816,0.251-9.261c0.821,0.102,1.211,0.441,1.387,0.589
		c0.849,0.728,1.183,2.023,1.151,2.724C190.605,293.902,189.667,295.883,187.96,296.797 M185.872,285.05l-0.218,0.046l-0.005,0.228
		l-0.394,14.406l-0.005,0.302h0.302c6.662-0.097,7.692-6.375,7.808-9.075c0.07-1.406-0.543-3.521-2.055-4.82
		C189.941,284.962,188.118,284.604,185.872,285.05"/>
	<path fill="#005283" d="M378.814,322.863c-1.049,4.185-3.248,9.359-10.56,11.149c-9.479,2.334-16.026-5.257-16.026-5.257
		l5.795-11.72l2.264,7.424c0,0,1.596,1.884,4.259,2.171c2.301,0.25,5.025-1.939,5.832-3.392c2.097-3.818,0.459-7.85-0.923-10.62
		c-2.223-4.468-11.813-12.319-15.622-19.12c-2.092-3.726-2.816-8.319-2.241-11.326c0.696-3.587,2.812-10.012,10.124-11.817
		c9.488-2.325,16.021,5.266,16.021,5.266l-5.791,11.72l-2.255-7.433c0,0-1.592-2.111-4.268-2.171
		c-3.271-0.079-4.589,1.874-5.099,3.508c-0.854,2.64-0.329,6.287,0.622,8.175c2.825,5.6,10.398,9.525,15.255,17.543
		C378.805,311.278,380.498,316.131,378.814,322.863 M346.777,316.674l-7.205,4.885l-4.385,0.07l0.13-13.214l5.053,1.777l2.241,0.789
		l1.007-2.148l3.87-8.273l1.749-3.73h-4.12h-9.799c-0.037-2.71-0.093-7.178-0.13-9.929l5.521,0.056l3.577,3.109l3.633,3.169
		l0.678-4.779l0.297-2.12c0.301,2.881,1.225,5.92,2.649,8.444c2.199,3.907,6.022,7.994,9.4,11.609
		c2.598,2.779,5.298,5.651,6.171,7.391c1.281,2.594,2.404,5.586,0.97,8.194c-0.44,0.789-2.278,2.157-3.252,2.056
		c-1.03-0.116-1.81-0.645-2.232-0.988l-2.069-6.774l-1.93-6.319l-2.928,5.925l-4.807,9.739v-6.769v-4.942L346.777,316.674z
		 M348.239,331.224H321.69l2.204-7.238l-0.19-39.827l-2.315-5.54l-1.656,2.631l-14.216,53.203l-13.733-53.203l-3.095-3.707h12.072
		l5.043,30.585l5.141-30.585h11.13v0.009h25.398l-1.475,10.537l-4.301-3.735l-8.825-0.088l-0.348-0.074l0.009,0.357l0.195,14.629
		v0.274h0.292h12.096l-3.869,8.273l-8.509-2.988l-0.204,19.556l7.864-0.121l7.841-5.331V331.224z M286.73,324.172l7.86-5.331v12.383
		h-22.623l2.218-6.867l-0.167-39.039v-0.079l-0.047-3.6l-3.229-4.088h14.305l-2.241,4.176v42.565L286.73,324.172z M264.334,327.122
		c-2.422,2.738-5.489,4.185-8.885,4.185c-3.387,0-6.459-1.448-8.876-4.185c-3.753-4.264-5.73-11.26-5.73-20.238
		c0-10.607,2.858-20.452,7.47-25.69c2.167-2.463,4.631-3.767,7.141-3.767c8.054,0,14.62,13.223,14.62,29.458
		C270.073,315.862,268.078,322.859,264.334,327.122 M230.283,334.458l-7.697-21.876l-7.707,21.876l-10.973-53.394l-2.993-3.336
		h11.966l4.301,30.571l5.41-21.254l6.365,20.535l3.178-29.847h11.687l-2.891,3.336L230.283,334.458z M200.274,295.299
		c-0.956,6.254-6.004,9.618-6.004,9.618l12.62,26.33h-13.316l1.726-4.459l-9.019-18.229l-1.374,0.25l0.381,17.979l2.153,4.459
		h-13.084l2.209-4.872l-0.288-41.841l-3.271-6.913h14.68c3.777,0,7.168,1.016,8.927,2.621
		C198.812,282.243,201.592,286.581,200.274,295.299 M191.124,330.296l-0.543,1.411l-0.78-1.596l-1.907-3.948l-0.185-8.797
		l4.728,9.553L191.124,330.296z M173.146,327.573v-8.732v-4.937l-4.097,2.775l-7.201,4.885l-4.38,0.065l0.134-13.214l5.048,1.777
		l2.241,0.789l1.007-2.148l3.874-8.273l1.745-3.73h-4.12h-9.799c-0.037-2.71-0.093-7.173-0.13-9.924l5.521,0.051l3.568,3.109
		l3.652,3.174l0.659-4.783l0.997-7.122l1.791,3.8l0.283,40.681L173.146,327.573z M170.524,331.224h-26.553l2.218-7.238
		l-0.195-39.827l-2.765-6.607h26.525l-1.471,10.537l-4.296-3.735l-8.825-0.088l-0.348-0.074v0.357l0.2,14.629l0.004,0.274h0.283
		h12.1l-3.874,8.273l-8.5-2.988l-0.213,19.556l7.855-0.121l7.86-5.331v12.383H170.524z M138.775,303.093
		c1.842-1.902,3.827-4.76,4.644-8.393l0.07,14.532C142.523,307.088,140.895,304.861,138.775,303.093 M137.907,327.085
		c-5.461,5.693-15.339,4.19-20.443,4.19l-1.22-47.543l-3.15-6.333c2.524-0.065,9.484-0.339,13.395-0.167
		c4.32,0.181,13.256,1.958,14.583,12.374c1.118,8.588-6.227,13.414-6.301,13.455l-0.445,0.264l0.455,0.223
		c3.999,2.033,6.565,6.282,7.043,8.992C142.746,317.769,141.261,323.596,137.907,327.085 M103.373,331.247l-3.095-30.808
		l-9.085,34.014l-8.672-33.55l-3.048,30.344H67.416l0.023-0.028h-12.74l2.213-6.862l-0.2-42.676l-2.203-4.13h13.274l-2.236,4.13
		v42.611l2.144,6.626l2.807-3.373l7.034-45.989l-3.165-4.004h12.05l5.057,29.045l5.136-29.045h11.131l-2.427,4.014l7.029,45.979
		l3.095,3.702H103.373L103.373,331.247z M68.163,282.349l1.926-3.554l0.789-1.443l1.429,1.819l2.459,3.113l-6.44,42.11l-0.167-0.515
		v-41.53H68.163z M109.985,278.907l0.506-0.854c0.153,0.306,0.255,0.52,0.255,0.52l2.891,5.818l1.053,41.154l-6.644-43.442
		L109.985,278.907z M50.959,282.349l-6.245-5.182l-3.104-0.084l-0.431,49.088l2.677,8.282h-13.84l2.64-8.217l-0.209-49.153
		l-3.712,0.084l-6.24,5.182l-1.615-12.119h31.69L50.959,282.349z M369.27,295.058c-2.598-2.441-4.834-4.538-5.985-6.825
		c-0.631-1.243-1.118-4.194-0.478-6.185c0.413-1.248,1.118-1.726,2.557-1.693c0.905,0.023,1.628,0.561,1.995,0.905l2.083,6.848
		l1.921,6.328l2.932-5.934l5.786-11.715l0.77-1.559l-1.127-1.313c-0.311-0.362-7.725-8.774-18.633-6.092
		c-5.225,1.271-9.043,4.825-11.029,10.128v-0.037l0.422-2.988h-3.011H310.94h-2.204l-0.376,2.181l-2.529,15.079l-2.487-15.065
		l-0.367-2.195h-2.213h-30.019h-5.41l3.359,4.246l2.672,3.387l0.037,2.705c0,0.019,0.009,4.013,0.037,9.414
		c-2.538-11.762-8.658-19.862-15.988-19.862c-3.281,0-6.426,1.605-9.108,4.654c-1.299,1.466-2.473,3.271-3.489,5.326l0.506-2.538
		l2.44-2.812l3.772-4.343h-5.758H232.13h-2.352l-0.255,2.352l-1.819,17.214l-2.617-8.408l-2.756-8.862l-2.278,9.001l-2.134,8.361
		l-2.441-17.394l-0.32-2.264h-2.278h-11.966h-5.874l1.962,2.176c-2.343-1.433-5.674-2.278-9.316-2.278h-14.68h-0.251l0.01-0.079
		h-3.006h-26.535h-3.93l1.522,3.638l2.547,6.134l0.028,3.016c-2.394-11.534-13.349-12.963-16.786-13.098
		c-3.373-0.149-8.788,0.023-12.022,0.121l-1.559,0.051l-4.088,0.121c0,0,0,0.014,0.009,0.019h-1.206H96.614H94.41l-0.376,2.167
		l-2.543,14.332l-2.487-14.332l-0.376-2.167H86.42H74.362h-2.176h-3.234h-1.169H54.587l0.58-4.347l0.394-2.969h-2.992h-31.69h-2.988
		l0.39,2.969l1.619,12.119l0.621,4.7l3.652-3.034l5.531-4.593l0.134-0.01l0.2,46.077l-2.51,7.823l-1.109,3.42h3.601h13.836h3.6
		l-1.114-3.429l-2.543-7.883l0.409-45.622l5.08,4.218l3.642,3.039l0.627-4.704l0.144-1.081l0.39,0.724l0.204,41.609l-2.083,6.477
		l-1.109,3.415h3.596h7.136l-0.023,0.023h5.6H79.47h2.371l0.241-2.352l1.582-15.733l4.988,19.333l0.547,2.097h3.962l0.566-2.074
		l5.378-20.155l1.656,16.531l0.246,2.357h2.366h11.534v0.028h2.552c0.752,0,1.656,0.042,2.621,0.084
		c5.693,0.223,14.295,0.571,19.709-5.071c1.67-1.745,2.928-3.971,3.768-6.417l0.01,1.114l-2.093,6.853l-1.034,3.387h3.54h26.321
		l-0.009,0.023h4.064h32.534h4.166l-1.804-3.749l-11.734-24.502c1.861-1.777,4.612-5.113,5.345-9.915
		c0.274-1.768,0.381-3.392,0.372-4.863l9.075,44.152l0.459,2.218h3.916l0.659-1.879l5.243-14.847l5.229,14.847l0.654,1.879h3.939
		l0.436-2.246l5.401-27.059c0.158,9.136,2.334,16.378,6.361,20.962c2.928,3.313,6.672,5.071,10.843,5.071
		c4.167,0,7.911-1.758,10.857-5.076c2.431-2.779,4.171-6.537,5.224-11.08c0.009,3.016,0.019,5.289,0.028,6.162l-2.088,6.482
		l-1.105,3.419h3.596h22.633h2.607v-2.617v-12.388v-4.937l-4.092,2.775l-7.22,4.9l-0.455,0.014v-39.201l1.517-2.835l2.436,2.923
		l13.599,52.637l0.538,2.092h3.972l0.561-2.069l13.043-48.856l0.181,37.321l-2.088,6.858l-1.035,3.387h3.545h26.548h2.617v-2.622
		v-0.116c1.995,1.981,8.722,7.734,18.007,5.452c9.804-2.404,11.817-10.416,12.486-13.056c2.051-8.207-0.483-13.877-2.919-17.886
		C375.729,301.131,372.3,297.906,369.27,295.058"/>
	<path fill="#005283" d="M129.643,320.743c-0.385,0.324-0.956,0.534-1.554,0.663v-11.525c0.529,0.163,1.049,0.385,1.47,0.71
		c1.123,0.872,2.427,2.687,2.343,4.872C131.773,318.544,130.632,319.894,129.643,320.743 M131.156,308.517
		c-2.273-1.758-5.684-1.629-5.684-1.629v17.274c0,0,3.726,0.413,5.883-1.439c1.837-1.568,3.02-3.74,3.155-7.154
		C134.641,312.378,132.808,309.793,131.156,308.517"/>
	<path fill="#005283" d="M128.279,287.88c1.438,0.329,2.426,1.252,2.543,4.319c0.069,1.726-0.297,2.979-1.086,3.726
		c-0.413,0.39-0.928,0.645-1.457,0.812V287.88z M133.453,292.098c-0.274-6.705-4.51-6.909-6.867-7.048
		c-0.223-0.009-0.422-0.023-0.613-0.038l-0.315-0.019v0.297v14.332C125.658,299.619,133.782,300.533,133.453,292.098"/>
	<path fill="#FFFFFF" d="M258.79,320.901c-0.914,1.053-2.005,1.614-3.141,1.614c-3.925,0-6.565-8.537-6.565-17.788
		c0-7.118,1.559-13.488,3.976-16.23c0.807-0.923,1.693-1.387,2.589-1.387c0.923,0,1.795,0.464,2.626,1.387
		c2.408,2.742,3.972,9.113,3.972,16.23C262.251,311.06,260.98,318.419,258.79,320.901 M255.449,277.431
		c-2.505,0-4.96,1.299-7.127,3.763c-4.612,5.243-7.479,15.079-7.479,25.686c0,8.987,1.967,15.979,5.739,20.243
		c2.403,2.738,5.479,4.185,8.866,4.185c3.396,0,6.459-1.452,8.885-4.185c3.744-4.264,5.73-11.256,5.73-20.243
		C270.064,290.65,263.504,277.431,255.449,277.431"/>
	<polygon fill="#FFFFFF" points="243.818,277.728 232.13,277.728 228.966,307.58 222.586,287.054 217.176,308.304 212.875,277.728 
		200.914,277.728 203.902,281.06 214.879,334.458 222.586,312.587 230.283,334.458 240.927,281.06 	"/>
	<polygon fill="#FFFFFF" points="105.318,281.565 107.74,277.552 96.609,277.552 91.472,306.592 86.42,277.552 74.366,277.552 
		77.53,281.561 70.497,327.545 67.694,330.922 65.546,324.292 65.546,281.677 67.782,277.552 54.508,277.552 56.712,281.677 
		56.911,324.357 54.703,331.215 67.434,331.215 67.411,331.247 79.474,331.247 82.527,300.904 91.194,334.458 100.279,300.435 
		103.373,331.247 115.437,331.247 112.347,327.545 	"/>
	<path fill="#FFFFFF" d="M131.356,322.724c-2.162,1.856-5.888,1.443-5.888,1.443v-17.279c0,0,3.415-0.125,5.688,1.633
		c1.647,1.271,3.484,3.855,3.349,7.057C134.371,318.984,133.193,321.156,131.356,322.724 M125.658,285.291v-0.297l0.315,0.019
		c0.191,0.019,0.399,0.033,0.613,0.042c2.361,0.135,6.593,0.339,6.867,7.039c0.329,8.435-7.795,7.53-7.795,7.53V285.291z
		 M134.78,303.548l-0.455-0.223l0.445-0.259c0.074-0.047,7.419-4.872,6.306-13.46c-1.332-10.416-10.268-12.193-14.588-12.374
		c-3.916-0.172-10.866,0.102-13.395,0.167l3.15,6.338l1.225,47.539c5.099,0,14.972,1.503,20.433-4.19
		c3.359-3.489,4.844-9.316,3.921-14.545C141.345,309.83,138.784,305.585,134.78,303.548"/>
	<polygon fill="#FFFFFF" points="332.533,324.292 332.737,304.731 341.247,307.724 345.116,299.451 333.02,299.451 332.737,299.451 
		332.728,299.168 332.533,284.549 332.524,284.187 332.881,284.266 341.697,284.344 345.998,288.08 347.464,277.548 
		322.066,277.548 322.075,277.543 310.935,277.543 305.804,308.123 300.761,277.543 288.688,277.543 291.773,281.245 
		305.521,334.453 319.732,281.245 321.389,278.624 323.713,284.154 323.903,323.977 321.69,331.215 348.239,331.215 
		348.239,318.841 340.388,324.167 	"/>
	<polygon fill="#FFFFFF" points="154.818,324.292 155.023,304.731 163.527,307.724 167.397,299.451 155.306,299.451 
		155.018,299.451 155.014,299.168 154.818,284.549 154.818,284.187 155.157,284.266 163.982,284.344 168.288,288.08 
		169.749,277.548 143.229,277.548 145.989,284.154 146.189,323.977 143.976,331.215 170.524,331.215 170.524,318.841 
		162.669,324.167 	"/>
	<polygon fill="#FFFFFF" points="282.805,281.732 285.046,277.552 270.741,277.552 273.971,281.64 274.012,285.24 274.012,285.314 
		274.184,324.357 271.967,331.224 294.59,331.224 294.59,318.841 286.73,324.172 282.805,324.292 	"/>
	<path fill="#FFFFFF" d="M185.552,300.031l-0.302,0.005l0.005-0.302l0.394-14.411l0.005-0.228l0.222-0.046
		c2.236-0.446,4.065-0.088,5.429,1.086c1.513,1.299,2.125,3.415,2.055,4.825C193.24,293.656,192.214,299.934,185.552,300.031
		 M196.613,280.239c-1.758-1.601-5.15-2.612-8.932-2.612h-14.675l3.275,6.909l0.288,41.841l-2.209,4.867h13.084l-2.157-4.454
		l-0.376-17.974l1.374-0.26l9.01,18.234l-1.721,4.454h13.325l-12.629-26.326c0,0,5.044-3.373,5.999-9.618
		C201.596,286.59,198.812,282.238,196.613,280.239"/>
	<path fill="#FFFFFF" d="M360.942,289.416c-0.951-1.884-1.471-5.526-0.622-8.166c0.52-1.638,1.828-3.582,5.099-3.508
		c2.672,0.056,4.264,2.171,4.264,2.171l2.26,7.424l5.795-11.715c0,0-6.547-7.591-16.035-5.261c-7.303,1.8-9.419,8.231-10.115,11.822
		c-0.571,2.993,0.139,7.6,2.245,11.321c3.818,6.802,13.395,14.657,15.622,19.124c1.383,2.761,3.025,6.802,0.923,10.611
		c-0.807,1.457-3.526,3.652-5.832,3.397c-2.663-0.292-4.264-2.171-4.264-2.171l-2.26-7.419l-5.785,11.716
		c0,0,6.537,7.586,16.016,5.252c7.312-1.791,9.511-6.955,10.56-11.145c1.684-6.737-0.009-11.585-2.617-15.896
		C371.335,298.946,363.768,295.02,360.942,289.416"/>
	<polygon fill="#FFFFFF" points="22.498,282.349 28.734,277.172 32.446,277.088 32.655,326.241 30.02,334.453 43.855,334.453 
		41.178,326.162 41.61,277.088 44.714,277.172 50.959,282.349 52.569,270.235 20.884,270.235 	"/>
	<path fill="#14AA4D" d="M95.333,208.249l-0.097,0.167l4.287,7.892c-0.951,0.566-2.176,0.956-3.192,1.202
		c-1.072,0.265-1.898,0.367-1.898,0.367l14.351,24.154h5.136l-2.515-11.664h5.962l-7.748-22.09l4.473-0.589l-8.653-26.945
		l-12.62,23.222l2.301,4.224L95.333,208.249z"/>
	<polygon fill="#14AA4D" points="59.445,259.359 65.365,242.114 85.028,242.137 75.614,213.172 81.497,212.387 70.13,176.984 
		51.182,211.84 56.861,213.116 39.953,242.091 46.514,242.105 36.826,259.359 	"/>
	<path fill="#14AA4D" d="M130.808,233.948h-0.005l4.274,8.083h7.242l-3.429-15.9h4.895l-6.371-18.123l3.675-0.492l-7.103-22.113
		l-9.948,18.304l3.772,6.959c-0.719,0.441-1.657,0.733-2.432,0.923c-0.812,0.2-1.443,0.274-1.443,0.274l12.235,20.591
		c-1.29,0.775-4.352,1.323-5.169,1.457C130.905,233.934,130.831,233.943,130.808,233.948"/>
	<polygon fill="#14AA4D" points="285.009,207.594 280.865,214.605 272.328,228.974 277.659,229.8 274.138,236.463 271.192,242.026 
		292.242,242.026 293.402,230.385 299.03,230.004 295.587,207.692 300.167,207.095 294.757,180.742 280.481,207 	"/>
	<polygon fill="#14AA4D" points="266.195,185.421 254.489,206.961 258.214,207.441 254.809,213.199 247.803,224.989 
		252.183,225.675 249.283,231.136 243.516,242.026 261.94,242.026 263.629,225.151 268.255,224.85 265.977,207.095 269.716,206.599 
			"/>
	<path fill="#14AA4D" d="M338.11,266.273l7.851-0.116c0,0,2.9-4.839,6.876-6.394l-8.667-18.299l5.809-1.16
		c-2.803-5.159-9.683-20.781-12.685-27.179l5.544-0.738l-12.773-35.403l-18.749,34.503l5.948,0.779l-16.267,29.764l27.797,0.106
		L338.11,266.273z"/>
</g>
</svg>
