<?xml version="1.0" encoding="utf-8"?>
<!-- Generator: Adobe Illustrator 19.1.0, SVG Export Plug-In . SVG Version: 6.00 Build 0)  -->
<svg version="1.1" id="Layer_1" xmlns="http://www.w3.org/2000/svg" xmlns:xlink="http://www.w3.org/1999/xlink" x="0px" y="0px"
	 viewBox="0 0 100 100" style="enable-background:new 0 0 100 100;" xml:space="preserve">
<style type="text/css">
	.st0{fill-rule:evenodd;clip-rule:evenodd;fill:#ED1C24;}
	.st1{fill-rule:evenodd;clip-rule:evenodd;fill:#0095DA;}
	.st2{fill-rule:evenodd;clip-rule:evenodd;fill:#FFFFFF;}
	.st3{fill-rule:evenodd;clip-rule:evenodd;}
</style>
<g>
	<path class="st0" d="M10.2,28.2h12c1.7,0,3,1.4,3,3.1v34.8c0,1.7-1.4,3.1-3,3.1h-12c-1.7,0-3.1-1.4-3.1-3.1V31.2
		C7.2,29.5,8.5,28.2,10.2,28.2z"/>
	<path class="st1" d="M10.2,28.2H17L15.5,36l-1.7,9.8l6.4,14.9l0.9,8.4H10.2c-1.7,0-3.1-1.4-3.1-3.1V31.2
		C7.2,29.5,8.5,28.2,10.2,28.2z"/>
	<path class="st2" d="M22.3,46.2c1.3,0.3,2.3,1.5,2.3,3c0,1.7-1.4,3.1-3.1,3.1c-1.7,0-3.1-1.4-3.1-3.1c0-1.5,1-2.7,2.4-3
		c-0.6-1.2-1.4-2.6-1.6-3l-0.1-1c-0.3-0.7-0.3-1.3-0.5-2.3c-0.1-0.4-0.3-0.5-0.7-0.3c-0.9,0.8-1.5,1.8-1.8,3L16,43.4
		c0.9,0.7,1.3,1.7,1.3,2.9l0.4,1.3l-0.2,0.8l0.4,1.9l0.3,1.9c0,0.9-0.1,1.2,0.6,2.2c0.7,0.9,1.2,2,1.4,4.5l0.4,1.3l0.4,0.5
		c0.3,0.8,0.2,1.4-0.2,2l0.2,1.2l0.5,1.2l-0.1,1l0.5,0.5l0.2,1.7l-0.9,1l-0.5-0.1l-0.5-0.4l-0.3-0.7l0.3-2.2l-0.1-0.6L20,64.8l0.1-1
		c0-0.9-0.8-1-0.9-1.7l0.1-1.1l-0.5-1c-2.2-1.8-5.6-4.1-7.8-8.7l-0.8-0.1l-0.2-0.7c-0.6-0.9-1-2.2-1.5-3l0.2-2.3
		c0.2-0.5,0.5-1,0.9-1.4l-0.2-0.7c-0.3,0-0.7,0.2-1.1,0.1c-0.4-0.4-0.5-0.9-0.5-1.3l2.7-6.7c0.5-0.7,1.2-1.1,1.9-1.2
		c0.7-0.1,1.6,0,2.3-0.2l0.6-0.4l0.1-1.2l-0.1-0.5c-0.4,0.2-0.4-1.2,0.2-1l0.1-1.2l0.3-0.3l0.2-0.5l0.5-0.2l0.1-0.2h0.5l0.4,0
		l0.2,0.2l0.4,0.1l0.1,0.3l0.4,0.3l0.2,0.2l0.2,0.2l0.1,0.9l-0.3,0.3l-0.1,0.6c0.5,0,0,1.5-0.4,1.1c-0.3,0.4-0.5,0.6-0.6,0.8
		L17,33.5l-0.1,0.7c1.1,1,2,1.2,3.2,2.7c0.1,0.2,0,0.4,0.1,0.6c0.2,0.3,0.3,0.5,0.4,1c0,2.1,0.3,2.6,0.5,4c0.3,0.9,0.8,1.4,1,2.4
		L22.3,46.2z"/>
	<polygon class="st2" points="9.4,63.1 10.2,63.1 11,65.2 11,63.1 11.8,63.1 11.8,67.2 11.8,67.3 11.8,67.3 11,67.3 11,67.3 
		11,67.2 10.2,65.1 10.2,67.3 9.4,67.3 	"/>
	<polygon class="st3" points="29.5,32.1 35.7,32.1 42.3,49.3 42.3,32.1 48.5,32.1 48.5,65.6 48.5,65.7 48.5,65.7 42.3,65.7 
		42.3,65.7 42.3,65.6 35.7,48.4 35.7,65.7 29.5,65.7 	"/>
	<path class="st2" d="M13.4,63.8c0.4,0.1,0.4,0.9,0,1v0.6c0.4,0.1,0.4,1.1,0,1.2v0.7h0.4c0.4-0.1,0.7-0.6,0.8-1.1v-0.2
		c0-0.4-0.2-0.7-0.6-0.9c0.9-0.5,0.6-1.8-0.2-1.9h-0.4V63.8z M13.1,63.8h0.3h0v-0.7h-1.2v4.1h1.2v-0.7h0h-0.3v-1.2h0.3h0v-0.6h0
		h-0.3V63.8z"/>
	<path class="st3" d="M61.4,37.6c3.1,0.6,3.2,7.2,0,7.8v5.2c3.1,0.7,3.2,8.7,0,9.5v5.4h3c3.4-0.5,5.8-4.4,6.2-8.4v-2.5
		c-0.3-2.9-1.8-5.6-4.8-6.9c7-4,5.1-14.3-1.5-15.7h-3V37.6z M59,37.6h2.2c0.1,0,0.1,0,0.1,0v-5.5h-9.8v33.4h9.8v-5.4
		c0,0-0.1,0-0.1,0H59v-9.5h2.2c0.1,0,0.1,0,0.1,0v-5.2c0,0-0.1,0-0.1,0H59V37.6z"/>
	<path class="st2" d="M15.9,63h0.3h0.3l0.8,4.2h-0.9l-0.2-0.9h-0.3v-0.7h0.3L15.9,64V63z M15.3,63h0.3h0.3v1v-0.1l-0.3,1.7h0.3v0.7
		h-0.3l-0.2,0.9h-0.9L15.3,63z"/>
	<path class="st3" d="M81.9,31.9h2.2h2.5l6.3,33.7h-7l-1.3-7.2h-2.6v-5.6h2.2l-2.2-13.3V31.9z M77,31.9h2.5h2.4v7.6L81.8,39
		l-2.1,13.8h2.2v5.6h-2.7l-1.3,7.2h-7L77,31.9z"/>
</g>
</svg>
