<?xml version="1.0" encoding="utf-8"?>
<!-- Generator: Adobe Illustrator 19.1.0, SVG Export Plug-In . SVG Version: 6.00 Build 0)  -->
<svg version="1.1" id="Layer_1" xmlns="http://www.w3.org/2000/svg" xmlns:xlink="http://www.w3.org/1999/xlink" x="0px" y="0px"
	 viewBox="0 0 100 100" style="enable-background:new 0 0 100 100;" xml:space="preserve">
<style type="text/css">
	.st0{fill-rule:evenodd;clip-rule:evenodd;fill:#005FA7;}
	.st1{fill-rule:evenodd;clip-rule:evenodd;fill:#CCCCD1;}
	.st2{fill-rule:evenodd;clip-rule:evenodd;}
	.st3{fill-rule:evenodd;clip-rule:evenodd;fill:#E86E32;}
</style>
<g>
	<path class="st0" d="M87.9,31l-79,0.1l41,53L91.1,31L87.9,31L87.9,31z M84.7,34.1C81.4,38.5,52.1,76.2,49.9,79
		c-2.2-2.8-31.3-40.5-34.7-44.8C20.7,34.2,79.2,34.1,84.7,34.1L84.7,34.1z"/>
	<polygon class="st1" points="12,32.6 87.9,32.5 49.9,81.6 12,32.6 	"/>
	<path class="st0" d="M22.3,57.7h-1.1L13,49.5l10.8-22.7l5-2l1,0.7l0.7-1.7l1-0.1l2.6,1.7l0.6,1.2l3.5-1l0.9,2.2l0.2,0.1l0.3-2.5
		l3.9-0.6l0.8,1.5l0.3-1.4l3.9-0.3l0.6,2.6l0.4-0.6l1.9-2l4,0.3l0.6,0.3l0.3-0.2l4.1,0.5l0.3,1.9l0.7-1.7l3.9,0.6l1-1.3l1.3-1h0.9
		l7.4,2.6l3.2,6.6L78,35.1l2.7,1.7l5.4,12.9l-8.2,8.5c0,0-4.4-3.6-13.7-6c0,0-15.9-3.7-28-0.5c-6.5,1.7-10.2,3.5-10.2,3.5l-1.3-0.4
		l-0.4,1.5L22.3,57.7L22.3,57.7z"/>
	<polygon class="st2" points="28.5,36.1 31,33.6 31.9,34.6 31.2,37.6 30.4,39.6 28.5,36.1 	"/>
	<polygon class="st2" points="22.2,41.6 24.6,39.7 23.4,43.5 22.2,41.6 	"/>
	<polygon class="st2" points="16.2,51.7 18.9,49.8 23.8,55.8 21.8,57.4 16.2,51.7 	"/>
	<path class="st2" d="M47.3,42.5c-1.4,0.1-2.8,0.2-4.3,0.4l1.1,7.1c1.2-0.1,2.3-0.2,3.4-0.2L47.3,42.5L47.3,42.5z"/>
	<path class="st2" d="M57.7,42.8c-1.7-0.2-3.6-0.4-5.6-0.4l-0.7,7.4c1.7,0.1,3.5,0.2,5.4,0.4L57.7,42.8L57.7,42.8z"/>
	<path class="st2" d="M34.1,44.4c-1.8,0.4-3.4,0.8-4.7,1.2l3.1,6.4c0.1,0,0.2-0.1,0.3-0.1c1.2-0.4,2.5-0.7,3.9-1L34.1,44.4
		L34.1,44.4z"/>
	<path class="st2" d="M63.3,43.7C63.2,43.7,63.2,43.7,63.3,43.7c-1.4-0.3-2.9-0.5-4.4-0.8l-1.3,7.3c1.2,0.1,2.3,0.3,3.5,0.5
		L63.3,43.7L63.3,43.7z"/>
	<path class="st2" d="M40.9,43.1c-0.8,0.1-1.7,0.3-2.5,0.4c-0.7,0.1-1.3,0.3-2,0.4l2.3,6.7c1.3-0.2,2.6-0.4,3.8-0.5L40.9,43.1
		L40.9,43.1z"/>
	<path class="st2" d="M72.6,46.5l-3.8,6.3c5.9,2.2,9.2,4.7,9.2,4.7l5.5-5.8C81.1,50,76.9,48.1,72.6,46.5L72.6,46.5z"/>
	<path class="st2" d="M70.3,45.7c-1.6-0.6-3.3-1-4.8-1.4L63,51.1c0.9,0.2,1.7,0.4,2.6,0.6c0.6,0.2,1.1,0.3,1.6,0.5L70.3,45.7
		L70.3,45.7z"/>
	<path class="st2" d="M51.1,42.5l-1.5-1.6L49,49.7c0.2,0,0.4,0,0.7,0c0.3,0,0.6,0,0.9,0L51.1,42.5L51.1,42.5z"/>
	<path class="st2" d="M27.4,46.3c-3.6,1.2-5.3,2.2-5.3,2.2l4.3,5.9c0,0,0.9-0.6,4.6-1.9L27.4,46.3L27.4,46.3z"/>
	<polygon class="st2" points="53.9,29 56.5,29 55.5,37.9 54.1,37.9 53.9,29 	"/>
	<polygon class="st2" points="62.9,37.6 63.3,37.4 64,38 63.5,40.6 62.9,37.6 	"/>
	<polygon class="st2" points="69,34.4 76.7,39.7 75.9,41.4 75.6,40 70.2,37.9 69.1,39 68.7,36.4 68.3,36 69,34.4 	"/>
	<polygon class="st2" points="74,31.6 78.5,32.9 77.7,34.7 73.8,32.4 74,31.6 	"/>
	<path class="st0" d="M36.2,25.2c-0.7,0.1-1,0.2-1,0.2l1.7-5.5c0,0,0.3-0.1,0.9-0.3l0,0.6l0.4,0.2l0.4-1c0.3-0.1,0.6-0.1,0.9-0.2
		l-1.3,5.6c-0.4,0.1-0.7,0.1-1,0.2l0.7-2.6l-0.6-0.6L36.2,25.2L36.2,25.2z"/>
	<path class="st0" d="M42.7,18.7c-0.7,0.1-1.4,0.2-2,0.3l-1.2,5.7c0.7-0.1,1.5-0.2,2.3-0.3L42,23l-1.2,0.1l0.2-1.2l1-0.1l0.2-1
		l-1,0.1l0.2-1l1-0.2L42.7,18.7L42.7,18.7z"/>
	<path class="st0" d="M62.3,19.6c0.5,0.1,0.7,0.2,0.7,0.2l0.5,2.3l-0.2,0.5l0.4,0.2l0.7,2.3c0,0-0.3-0.1-0.9-0.2
		c0,0-0.1-0.6-0.3-1.3c-0.2-0.7-0.9-0.5-0.9-0.5l0.3,1.7c-0.3,0-0.6-0.1-0.9-0.1l-1.2-5.5c0.3,0.1,0.6,0.1,0.8,0.2l0.6,2.4
		c0,0,1,0.6,0.8-0.4C62.4,20.3,62.3,19.6,62.3,19.6L62.3,19.6z"/>
	<path class="st0" d="M51.5,23.7c-0.3,0-0.6,0-0.9,0v-1.8L50,21.7c-0.2-0.2-0.4-0.5-0.4-0.5l0-3c0.3,0,0.6,0,0.9,0l0.1,2.5
		c0,0,0.1,0.3,0.4,0.4c0.3,0,0.5-0.3,0.5-0.3l0-2.5c0.3,0,0.6,0,0.9,0l0.1,3c0,0,0,0.3-0.2,0.5c-0.2,0.2-0.7,0.2-0.7,0.2L51.5,23.7
		L51.5,23.7z"/>
	<path class="st0" d="M46.7,23.8c-0.3,0-0.6,0-0.9,0.1c-0.2,0-0.6-0.4-0.6-0.4S44.8,24,44.5,24c-0.5,0-0.8,0-1.3,0.1
		c0,0-0.5-0.2-0.4-0.8c0.2-1,0.6-4.7,0.6-4.7c0.3,0,0.6-0.1,0.9-0.1L44,22.3c0,0,0,0.3,0.3,0.3c0.3,0,0.5-0.3,0.5-0.3l0.4-3.9
		c0.2,0,0.5,0,0.7-0.1l0.1,0l-0.3,3.7c0,0,0.1,0.3,0.4,0.3c0,0,0.5,0.1,0.5-0.4c0.1-0.5,0.3-3.7,0.3-3.7c0.3,0,0.6,0,0.9,0l-0.2,4.5
		C47.6,22.8,47.3,23.7,46.7,23.8L46.7,23.8z"/>
	<path class="st0" d="M55.8,19.3c-0.1-0.8-0.7-0.9-0.7-0.9c-0.4,0-0.9-0.1-1.4-0.1c0,0-0.6,0-0.5,0.8c0,0.8,0.2,3.5,0.2,3.5
		c0,1.1,0.9,1.2,0.9,1.2c0.3,0,0.6,0.1,1,0.1c0.6,0,0.8-0.7,0.8-0.7S55.9,20.1,55.8,19.3L55.8,19.3z M54.2,22.7l-0.2-3.4l0.7,0.1
		l0.1,3.4L54.2,22.7L54.2,22.7z"/>
	<path class="st0" d="M59.9,22.4l-0.5-0.5c0,0,0.4-0.2,0.3-0.8c0,0-0.1-0.9-0.2-1.4c-0.1-0.5-0.7-0.8-0.7-0.8
		c-0.5-0.1-1.1-0.2-1.7-0.2l0.5,5.5c0.3,0,0.6,0.1,0.9,0.1l-0.2-1.9c0,0,0.6-0.2,0.8,0.4c0.1,0.6,0.2,1.6,0.2,1.6
		c0.3,0,0.6,0.1,0.9,0.1L59.9,22.4L59.9,22.4z M58.2,21.3L58,19.8c0,0,0.5-0.2,0.5,0.3c0,0,0.1,0.5,0.1,0.9
		C58.7,21.4,58.2,21.3,58.2,21.3L58.2,21.3z"/>
	<polygon class="st3" points="24.2,27 28.2,25.4 24.8,33.7 28.3,31.1 30.7,24.4 31.2,24.3 33.4,25.5 31.3,32.6 27.8,36.1 29.2,38.9 
		27.4,45.7 22.5,47.7 25.3,39.4 24.8,38.8 21.7,41.3 18.6,49.3 15.7,51.4 14,49.4 24.2,27 	"/>
	<polygon class="st3" points="34.6,27.1 37.8,26.2 39,30.8 40,26 43,25.5 40.9,42.5 36.9,43.2 37.8,38.5 36.4,32.8 33.9,43.8 
		29.5,45.1 34.6,27.1 	"/>
	<polygon class="st3" points="44.8,25.3 48,25.1 47.3,41.7 43.2,42.1 44.8,25.3 	"/>
	<polygon class="st3" points="49.8,27.1 51.3,25.1 55.9,25.3 56.1,28.3 53.1,28.3 53.6,38.7 57.5,38.7 57.6,42.1 51.5,41.9 
		49.8,40.1 49.8,27.1 	"/>
	<polygon class="st3" points="57,25.6 59.9,25.9 61.3,33.2 63.2,31 62,26.3 65.3,26.9 66.7,31.7 65.1,33.8 67.6,35.7 70.5,45.2 
		66,43.8 64.6,37.8 63,36.4 62,37.7 63.1,43.1 59.1,42.3 57,25.6 	"/>
	<path class="st3" d="M66.6,25.3l1.1-1l0.7-0.1l7.2,2.5l2.4,5.2l-4.1-1.2l-1-2.5l-2-1l-0.5,0.4l1,3.4l9,5.8l5.3,12.4l-1.8,1.8
		c0,0-3.5-2.1-5.5-3.1c-2-1-5.5-2.3-5.5-2.3l-2.2-7.2l4.4,1.6l0.7,2.6l3.4,1.8l-1.7-5.2l-8.4-5.8L66.6,25.3L66.6,25.3z"/>
	<path class="st0" d="M33.4,60.5c0,9.2,7.5,16.6,16.6,16.6c9.2,0,16.6-7.5,16.6-16.6c0-9.2-7.5-16.6-16.6-16.6
		C40.8,43.9,33.4,51.4,33.4,60.5L33.4,60.5z M34.6,60.5c0-8.5,6.9-15.4,15.4-15.4c8.5,0,15.4,6.9,15.4,15.4
		c0,8.5-6.9,15.4-15.4,15.4C41.5,75.9,34.6,69,34.6,60.5L34.6,60.5z"/>
	<path class="st3" d="M66,60.5c0,8.8-7.2,16-16,16c-8.8,0-16-7.2-16-16c0-8.8,7.2-16,16-16C58.9,44.5,66,51.7,66,60.5L66,60.5z"/>
	<path class="st0" d="M53.1,48.6c8,1.2,10.7,4.7,12.1,6.7l0-0.9c-1.5-2-3.7-5.1-12-6.4c-2.3-0.4-4-0.8-5.2-1.1c3.1-1.7,5.5-2,5.5-2
		L53,44.3c-0.1,0-2.4,0.2-5.8,2.2c-1.9-0.7-2.1-1.5-2.1-1.5l0,0.2l-0.6,0.1c0,0.1,0.2,0.8,2.1,1.6c-0.9,0.5-1.8,1.2-2.7,2
		c-2.6-0.6-4.6-0.6-4.7-0.6l-0.2,0.6c0,0,2,0,4.3,0.5c-0.8,0.8-1.5,1.6-2.1,2.5c-0.4-0.1-0.8-0.1-1.2-0.2c-2.4-0.1-5.5,3.2-5.6,3.4
		l0.2,0.6c0,0,3.3-3.4,5.4-3.4c0.3,0,0.5,0,0.8,0.1c-2.3,3.9-3,8.3-3,8.6l0,0l0,0c-0.6,8.4,2.5,12.4,2.6,12.5l0.9,0.3
		c0,0-2.9-3.9-2.9-10.6c0-0.7,0-1.4,0.1-2.1c0-0.2,0.7-4.7,3-8.5c1.5,0.5,3.2,2.2,4.3,6.9c1.4,6.4,4.3,14.6,7.7,16.8l0.7-0.2
		c-3-2-6.3-10-7.8-16.7c-0.9-4.1-2.4-6.5-4.6-7.3c0.6-0.9,1.4-1.8,2.2-2.6c1.7,0.4,3.6,1.2,5.4,2.4c4.8,3.3,7.7,6.1,10.2,10.2
		c2.6,4.1,3.2,8.2,3.2,8.2l0.5-0.5c0-0.2-0.6-3.9-3.2-8.1c-2.6-4.1-5.5-7-10.4-10.4c-1.7-1.1-3.5-1.9-5.1-2.4c1-0.8,1.9-1.4,2.7-1.9
		C48.5,47.7,50.4,48.1,53.1,48.6L53.1,48.6z"/>
</g>
</svg>
