<?xml version="1.0" encoding="utf-8"?>
<!-- Generator: Adobe Illustrator 19.1.0, SVG Export Plug-In . SVG Version: 6.00 Build 0)  -->
<svg version="1.1" id="Layer_1" xmlns="http://www.w3.org/2000/svg" xmlns:xlink="http://www.w3.org/1999/xlink" x="0px" y="0px"
	 viewBox="0 0 400 400" enable-background="new 0 0 400 400" xml:space="preserve">
<g>
	<path fill="#1F3260" d="M70.951,170.371l10.806-5.281L36.146,71.587l10.81-5.262l-5.271-10.82L9.258,71.325l5.272,10.811
		l10.82-5.267L70.951,170.371z M94.936,158.624l11.44-3.723l-16.073-49.462l11.439-3.723l16.073,49.471l11.44-3.713L93.392,37.092
		l-11.435,3.715l16.068,49.474L86.59,93.999L70.512,44.53l-11.439,3.715L94.936,158.624z M155.38,25.352l-11.887,1.876
		l16.277,102.749l-11.883,1.878L131.619,29.108l-11.887,1.89l15.486,97.768c1.554,9.795,10.854,16.547,20.644,14.993
		c9.791-1.544,16.545-10.849,15-20.641L155.38,25.352z M180.719,139.174l12.026,0.205l0.586-33.637
		c0.181-10.241-0.434-30.894-0.92-40.665l0.324,0.009c3.127,25.906,8.875,50.065,12.688,74.515l11.364,0.205l2.035-116.048
		l-12.026-0.203l-0.582,33.633c-0.176,10.246,0.434,30.908,0.901,40.66l-0.314-0.007c-3.132-25.894-8.885-50.058-12.679-74.503
		l-11.378-0.21L180.719,139.174z M225.619,140.037l23.775,3.761c6.578,1.046,12.712-3.413,13.756-10l14.395-90.862
		c1.034-6.59-3.413-12.724-10.005-13.768l-23.747-3.758L225.619,140.037z M253.784,39.168l11.883,1.883l-14.385,90.869l-11.892-1.89
		L253.784,39.168z M338.404,48.499L315.53,41.07c-6.334-2.059-13.103,1.377-15.162,7.722l-28.437,87.494
		c-2.059,6.339,1.392,13.103,7.722,15.16l22.884,7.431l3.713-11.434l-22.879-7.438l12.355-38.027l17.169,5.574l3.708-11.428
		l-17.154-5.586l12.35-38.027l22.893,7.433L338.404,48.499z M307.937,161.338l51.021-104.596l21.664,10.577
		c6.015,2.931,8.484,10.117,5.562,16.125l-18.794,38.544c-2.44,4.976-6.649,7.097-11.392,4.778l-12.903,51.719l-10.844-5.286
		l12.912-51.733l-3.518-1.716l-22.874,46.874L307.937,161.338z M364.496,72.872l-17.569,36.035l10.839,5.291l17.579-36.04
		L364.496,72.872z"/>
	<path fill="#FFFFFF" d="M80.031,331.255c-1.225-0.095-2.407-0.309-3.585-0.615c-12.116-5.267-5.834-17.832-2.216-26.016
		c4.676-10.515,9.476-20.978,14.419-31.383c-26.211,8.203-51.736,16.811-76.445,25.792c-6.196,2.631-9.962-1.516-2.812-5.734
		c25.11-15.978,52.846-30.558,82.732-43.337c-7.302-15.258-13.17-31.569-17.502-49.007l-3.422-13.792
		c43.404-22.348,80.092-34.7,129.382-34.7c49.281,0.004,85.974,12.357,129.382,34.705c-0.811,3.313-1.654,6.618-2.531,9.919
		c21.588-0.755,42.617-0.319,62.846,1.256c4.843,0.331,4.843,5.903,0.195,6.39c-22.493,3.179-45.401,6.864-68.609,11.077
		c-1.449,4.452-2.984,8.809-4.6,13.084c24.757-5.258,49.019-8.804,72.508-10.668c6.044-0.548,6.115,5.234,1.206,6.282
		c-27.469,8.422-55.453,17.75-83.776,27.965c-24.104,49.853-59.482,83.214-106.622,111.474
		c-20.949-12.574-40.053-26.526-57.575-43.557c-38.718,18.084-75.782,36.993-110.883,56.407c-5.305,3.356-10.091,0.443-3.689-5.234
		C44.273,357.59,61.523,344.082,80.031,331.255"/>
	<path fill="#137FC3" d="M30.564,374.001c22.284-19.7,47.394-38.432,74.906-55.673c5.172-2.631,10.358-5.219,15.549-7.798
		c2.15-1.058,6.349-3.094,11.625-5.629c3.537,3.985,7.212,7.85,11.02,11.616C104.15,334.953,66.337,354.196,30.564,374.001
		 M312.117,233.298c26.626-5.915,52.723-9.857,77.908-11.864c-27.917,8.556-56.354,18.051-85.168,28.47
		C307.431,244.538,309.834,239.004,312.117,233.298"/>
	<path fill="#F15533" d="M11.107,296.011c25.854-16.435,54.491-31.402,85.406-44.4c1.025,2.069,2.092,4.128,3.17,6.159
		c-1.664,3.403-3.318,6.797-4.958,10.21C65.989,276.85,38.081,286.211,11.107,296.011 M323.156,200.466
		c23.008-0.972,45.377-0.594,66.869,1.085c-23.141,3.277-46.717,7.081-70.635,11.433
		C320.706,208.894,321.96,204.726,323.156,200.466"/>
	<path fill="#FFFFFF" d="M200.581,163.672c43.581,0,77.751,10.193,116.331,29.421c-18.88,71.135-53.418,118.924-116.326,157.747
		c-23.623-14.614-43.713-30.916-60.501-49.49c7.459-3.546,15.882-7.545,23.279-11.039c2.993,0.271,5.858,0.424,8.532,0.491
		c-0.162,4.099-1.454,7.112-3.523,9.262c1.206,1.377,2.426,2.75,3.656,4.104c3.256-2.917,5.353-7.231,5.525-13.341
		c7.65-0.128,15.033-0.91,21.897-2.374c-0.391,11.216-1.954,19.467-5.143,22.736c-0.115,0.105-0.176,0.191-0.224,0.291
		c-0.801,0.848-1.516,1.544-2.126,2.092c3.079-0.572,6.111-1.287,9.099-2.126c3.847-7.96,3.899-21.916,3.956-24.338
		c7.14-1.792,13.494-3.599,19.214-5.553c0.224,6.549,2.841,12.807,7.841,15.11c2.254-1.582,4.438-3.27,6.554-5.019
		c-1.268,0.186-9.19,0.734-9.066-11.988c16.74-6.315,27.636-13.928,37.226-25.281c2.531-5.72,4.576-11.721,6.025-17.932
		c-11.478,18.094-22.045,28.666-42.684,36.95c0.595-3.646,1.659-8.022,3.346-13.237c6.025-2.526,12.312-5.534,16.092-7.097
		l9.023-9.471c2.274-8.766,4.524-17.526,6.778-26.287l-7.054,2.197l8.294-8.723c1.735-6.854,3.451-13.718,5.167-20.577
		c-4.161,0.608-8.327,1.228-12.479,1.871c0.696-3.427,1.187-6.825,1.454-10.217c-1.997-0.506-4.009-0.984-6.029-1.44
		c-0.429,3.811-1.168,8.036-2.298,12.744l-0.577,0.095c-3.899,0.653-7.889,1.928-11.359,4.859l1.111-3.375
		c-6.687,1.209-13.351,2.436-20.024,3.73l-6.635,6.976l0.224-0.567l2.15-5.579c-6.597,1.347-13.179,2.741-19.762,4.173
		c-1.373-8.892-2.745-16.926-3.947-23.425c-1.864,0.217-3.728,0.47-5.587,0.739c1.206,6.585,2.612,14.81,4.004,23.916l-4.662,1.044
		l-5.93,6.244c-4.156-4.39-12.588-1.625-17.898-0.286c-5.758,1.458-11.515,2.96-17.259,4.514c-1.716,0.472-3.427,0.996-5.1,1.568
		c-4.309-6.216-8.356-12.61-11.692-19.509l-0.61-1.28c-1.735,0.715-3.47,1.442-5.186,2.2l0.734,1.53
		c3.256,6.74,7.178,13.046,11.401,19.157c-6.196,2.76-11.926,6.592-16.883,12.054c0,0-8.065,8.446-9.009,9.481
		c-2.097,2.407-3.904,4.962-5.491,7.574c-8.465-17.045-15.181-35.582-20.215-55.882
		C122.801,173.874,156.981,163.662,200.581,163.672 M204.847,271.354c4.004-1.773,8.012-3.513,12.002-5.267l1.883-1.959
		c0.791,0.133,1.697,0.162,2.717,0.057c1.554-0.257,3.461-0.796,5.539-1.516c-1.349,4.914-2.159,9.156-2.536,12.86
		c-5.701,2.021-12.097,3.914-19.376,5.753C205.066,278.104,204.99,274.791,204.847,271.354 M177.091,283.857l3.766-1.744
		l9.657-7.765l2.15-5.939c1.392,2.822,2.154,3.932,3.537,6.783l3.17-1.401c0.114,3.065,0.167,6.034,0.167,8.88
		c-6.973,1.592-14.5,2.445-22.269,2.569L177.091,283.857z"/>
	<path fill="#F15533" d="M224.056,178.231c9.219,0,18.294,0.484,27.26,1.451c6.811,1.425,13.566,3.153,20.262,5.172
		c2.555,8.942,3.928,18.387,3.928,28.144c0,8.07-0.929,15.911-2.698,23.446c-11.478,18.094-22.045,28.666-42.684,36.95
		c0.595-3.646,1.659-8.022,3.346-13.237c6.025-2.526,12.312-5.534,16.092-7.092l9.023-9.476c2.274-8.766,4.524-17.526,6.778-26.287
		l-7.054,2.197l8.294-8.723c1.735-6.852,3.451-13.715,5.167-20.574c-4.161,0.608-8.327,1.225-12.479,1.871
		c0.696-3.427,1.187-6.825,1.454-10.217c-1.997-0.508-4.009-0.986-6.029-1.442c-0.429,3.813-1.168,8.036-2.298,12.746l-0.577,0.095
		c-3.899,0.653-7.889,1.928-11.359,4.859l1.111-3.377c-6.687,1.211-13.351,2.436-20.024,3.732l-6.635,6.973l0.224-0.565l2.15-5.579
		c-6.597,1.347-13.179,2.738-19.762,4.171c-1.373-8.89-2.745-16.926-3.947-23.425C203.589,178.839,213.737,178.231,224.056,178.231
		 M266.783,254.38c-6.43,14.509-16.13,27.236-28.16,37.27c-1.268,0.181-9.19,0.734-9.066-11.993
		C246.297,273.342,257.193,265.734,266.783,254.38 M232.068,296.669c-9.319,6.568-19.767,11.606-31.006,14.776
		c3.842-7.96,3.899-21.911,3.956-24.333c7.14-1.792,13.494-3.599,19.209-5.553C224.452,288.104,227.068,294.362,232.068,296.669
		 M191.958,313.571c-3.141,0.576-6.339,1.01-9.571,1.301c-3.565-3.47-7.021-7.05-10.358-10.706c3.26-2.917,5.358-7.226,5.525-13.341
		c7.65-0.128,15.033-0.905,21.897-2.374c-0.391,11.22-1.954,19.471-5.143,22.741c-0.11,0.1-0.176,0.186-0.224,0.286
		C193.283,312.327,192.568,313.023,191.958,313.571 M168.373,300.063c-2.474-2.846-4.89-5.748-7.24-8.699l2.231-1.053
		c2.998,0.276,5.863,0.429,8.532,0.491C171.734,294.901,170.442,297.913,168.373,300.063 M124.073,227.044
		c-3.122-7.908-5.877-16.01-8.246-24.297c2.602-1.23,5.219-2.412,7.846-3.548l0.739,1.532c3.251,6.738,7.173,13.044,11.401,19.154
		C131.657,221.735,127.715,224.066,124.073,227.044 M128.864,196.997c19.214-7.865,38.866-13.284,59.147-16.208
		c1.206,6.585,2.612,14.81,4.004,23.913l-4.662,1.046l-5.93,6.244c-4.156-4.39-12.588-1.63-17.898-0.286
		c-5.758,1.458-11.515,2.96-17.259,4.514c-1.716,0.472-3.427,0.996-5.1,1.568c-4.309-6.216-8.356-12.612-11.692-19.509
		L128.864,196.997z M204.847,271.354c4.004-1.773,8.012-3.513,12.002-5.267l1.883-1.959c0.791,0.133,1.697,0.162,2.717,0.057
		c1.554-0.257,3.461-0.796,5.539-1.516c-1.349,4.914-2.159,9.156-2.536,12.86c-5.701,2.021-12.097,3.914-19.376,5.753
		C205.066,278.104,204.99,274.791,204.847,271.354 M177.091,283.857l3.766-1.744l9.657-7.765l2.15-5.939
		c1.392,2.822,2.154,3.932,3.537,6.783l3.17-1.401c0.114,3.065,0.167,6.034,0.167,8.88c-6.973,1.592-14.5,2.445-22.269,2.569
		L177.091,283.857z"/>
	<path fill="#FBBB2F" d="M202.468,339.005c-18.508-12.54-35.024-27.307-49.291-43.88l7.955-3.761
		c2.35,2.951,4.767,5.853,7.235,8.699c1.206,1.382,2.431,2.75,3.661,4.104c10.568,11.597,22.269,22.241,35.024,31.779
		C205.538,336.975,204.013,337.995,202.468,339.005 M115.222,235.829c-5.425-11.83-9.972-24.152-13.604-36.892
		c32.288-15.244,65.72-23.466,101.212-24.422c16.597,0.143,32.722,1.876,48.485,5.167c-8.966-0.967-18.041-1.456-27.25-1.456
		c-10.329,0-20.477,0.608-30.468,1.816c-1.864,0.219-3.732,0.474-5.582,0.743c-20.291,2.927-39.938,8.344-59.143,16.211
		c-1.744,0.715-3.48,1.442-5.2,2.197c-2.622,1.139-5.238,2.319-7.846,3.551c2.364,8.284,5.124,16.392,8.246,24.3
		c-1.792,1.459-3.513,3.089-5.143,4.896L115.222,235.829z"/>
	<path fill="#1F3260" d="M74.931,188.865c41.74-21.485,78.356-33.177,125.649-33.177c47.293,0,83.919,11.69,125.631,33.177
		c-19.376,78.099-56.383,129.816-125.631,171.323c-26.125-15.654-48.956-33.995-67.942-55.277c-5.276,2.526-9.466,4.557-11.62,5.624
		c-6.535,3.246-13.07,6.521-19.571,9.834c-7.345,3.737-15.487,9.414-23.947,7.212c-9.237-4.014-3.151-15.253-0.319-21.645
		c7.183-16.187,14.681-32.255,22.503-48.161c-9.395-17.631-16.778-36.797-21.95-57.596L74.931,188.865z M200.581,163.672
		c-43.599-0.01-77.78,10.203-116.365,29.438c5.034,20.293,11.749,38.859,20.215,55.88c1.587-2.607,3.394-5.167,5.491-7.574
		c0.944-1.034,9.004-9.476,9.004-9.476c4.962-5.467,10.692-9.3,16.888-12.059c-4.223-6.111-8.151-12.417-11.401-19.154l-0.739-1.533
		c1.721-0.758,3.451-1.485,5.191-2.197l0.605,1.28c3.341,6.897,7.383,13.291,11.697,19.512c1.673-0.577,3.384-1.096,5.1-1.573
		c5.739-1.554,11.502-3.051,17.255-4.514c5.314-1.339,13.747-4.104,17.898,0.286l5.934-6.244l4.657-1.044
		c-1.387-9.104-2.798-17.329-4.004-23.916c1.863-0.269,3.727-0.519,5.591-0.739c1.196,6.499,2.569,14.536,3.947,23.425
		c6.582-1.433,13.165-2.827,19.762-4.171l-2.154,5.579l-0.224,0.565l6.639-6.973c6.669-1.294,13.337-2.521,20.024-3.732
		l-1.111,3.377c3.47-2.931,7.455-4.206,11.359-4.859l0.577-0.095c1.129-4.71,1.868-8.933,2.293-12.746
		c2.021,0.455,4.033,0.934,6.034,1.442c-0.267,3.392-0.762,6.79-1.454,10.217c4.151-0.646,8.318-1.266,12.474-1.871
		c-1.711,6.859-3.427,13.725-5.162,20.574l-8.298,8.723l7.054-2.197c-2.254,8.761-4.499,17.521-6.773,26.287l-9.028,9.476
		c-3.775,1.558-10.062,4.566-16.087,7.092c-1.687,5.215-2.755,9.59-3.346,13.237c20.639-8.284,31.206-18.856,42.684-36.95
		c-1.454,6.211-3.494,12.212-6.025,17.932c-9.595,11.358-20.486,18.966-37.226,25.281c-0.124,12.727,7.798,12.174,9.066,11.988
		c-2.116,1.749-4.304,3.437-6.554,5.024c-5.005-2.307-7.617-8.565-7.846-15.11c-5.715,1.954-12.069,3.756-19.209,5.553
		c-0.057,2.421-0.109,16.373-3.956,24.333c-2.993,0.844-6.02,1.559-9.099,2.126c0.61-0.548,1.32-1.244,2.126-2.092
		c0.043-0.1,0.109-0.186,0.224-0.286c3.189-3.275,4.752-11.521,5.138-22.741c-6.859,1.468-14.242,2.245-21.897,2.374
		c-0.167,6.116-2.264,10.425-5.524,13.341c-1.225-1.353-2.45-2.726-3.656-4.104c2.069-2.15,3.365-5.162,3.527-9.262
		c-2.674-0.062-5.539-0.214-8.537-0.491c-7.398,3.494-15.816,7.498-23.28,11.044c16.793,18.57,36.879,34.876,60.506,49.486
		c62.904-38.823,97.442-86.612,116.322-157.745C278.332,173.865,244.161,163.672,200.581,163.672 M204.847,271.354
		c0.143,3.432,0.219,6.749,0.228,9.928c7.279-1.84,13.675-3.732,19.376-5.753c0.376-3.699,1.187-7.941,2.536-12.86
		c-2.078,0.719-3.985,1.253-5.539,1.516c-1.02,0.105-1.925,0.076-2.717-0.057l-1.883,1.959
		C212.859,267.841,208.851,269.581,204.847,271.354 M177.091,283.857l0.172,1.382c7.769-0.124,15.296-0.982,22.274-2.569
		c0-2.846-0.057-5.82-0.167-8.885l-3.17,1.406c-1.387-2.85-2.145-3.961-3.542-6.787l-2.15,5.944l-9.657,7.765L177.091,283.857z"/>
	<path fill="#FFFFFF" d="M146.996,219.495c-9.814,2.664-18.575,6.864-25.587,14.614c-4.023,4.614-6.892,9.896-9.571,15.31
		c-7.85,15.949-15.367,32.036-22.569,48.271c-1.883,4.233-7.65,14.524-1.511,17.192c6.797,1.764,15.301-3.947,21.302-7.002
		c6.511-3.313,13.051-6.592,19.605-9.848c11.153-5.524,21.154-12.245,27.936-23.036c2.703-4.557,4.714-9.443,6.697-14.319
		c4.256-10.482,8.599-20.959,13.022-31.402c1.659-3.914,4.552-8.847,3.632-13.122c-1.864-5.729-11.554-2.231-15.768-1.182
		C158.454,216.434,152.716,217.931,146.996,219.495 M134.593,279.386c-5.191,2.312-10.358,4.642-15.529,7.021
		c7.502-17.384,15.281-34.653,23.398-51.783c4.543-1.435,9.099-2.855,13.675-4.247C148.702,246.611,141.533,262.951,134.593,279.386
		 M223.374,201.532c-7.188,9.387-14.285,18.854-21.307,28.378c3.289-8.718,6.597-17.422,9.943-26.102
		c-7.445,1.528-14.871,3.146-22.288,4.833c-1.93,4.486-3.842,8.975-5.729,13.475c1.587-0.448,3.203-0.891,4.8-1.33
		c-5.839,14.123-11.53,28.308-17.107,42.513c-2.293,5.781-4.562,11.563-6.835,17.34c7.445-3.518,14.9-7.002,22.374-10.443
		c3.38-9.343,6.792-18.67,10.253-27.984c3.17,6.353,6.311,12.712,9.438,19.099c4.809-2.145,9.643-4.266,14.471-6.373
		c-2.941-6.702-5.924-13.394-8.932-20.081c5.348-8.113,10.734-16.201,16.187-24.262c1.535-0.357,3.065-0.724,4.595-1.082
		c1.148-3.484,2.297-6.978,3.446-10.476C232.24,199.842,227.802,200.671,223.374,201.532 M252.216,196.599
		c-4.004,0.67-7.622,1.942-10.605,4.95c-2.45,2.641-3.747,5.777-4.833,9.128c-3.194,10.005-6.397,20.024-9.595,30.048
		c-1.258,3.956-3.308,11.168,3.046,10.629c2.164-0.357,4.204-1.249,6.229-2.111c6.421-2.736,12.85-5.439,19.295-8.098
		c1.649-6.282,3.279-12.579,4.895-18.885c-3.399,1.063-6.764,2.14-10.162,3.232c-0.796,2.827-1.583,5.677-2.364,8.508
		c-2.359,0.873-4.705,1.721-7.054,2.588c2.965-10.162,5.943-20.315,8.89-30.477c2.088-0.453,4.175-0.894,6.258-1.323
		c-0.496,1.78-0.977,3.567-1.473,5.346c3.041-0.724,6.082-1.458,9.123-2.15c1.163-4.571,2.316-9.154,3.456-13.73
		C262.288,194.99,257.24,195.769,252.216,196.599"/>
	<path fill="#137FC3" d="M279.3,187.306c3.051,1.001,5.905,2.021,8.756,3.096c7.154,2.655,13.484,5.372,18.723,7.877
		c-16.159,55.439-49.248,101.941-95.931,135.03l-3.804,2.636c-13.67-10.234-21.74-18.275-21.74-18.275l6.434-1.053
		c19.524-3.26,38.337-12.092,53.89-26.611c26.512-24.733,37.279-60.049,31.822-93.328c-0.134-0.756-0.286-1.509-0.42-2.262
		l-0.052-0.322l-0.067-0.35l-0.081-0.369l-0.067-0.353l-0.076-0.384l-0.076-0.355l-0.091-0.405l-0.09-0.384l-0.072-0.353
		l-0.057-0.305l-0.109-0.427l-0.086-0.4l-0.081-0.298l-0.053-0.3l-0.076-0.293c-0.3-1.194-0.567-2.209-0.839-3.191
		C276.492,186.387,277.903,186.846,279.3,187.306 M279.81,187.955c2.855,0.977,5.801,2.004,8.604,3.062
		C285.558,189.937,282.684,188.922,279.81,187.955"/>
</g>
</svg>
