<?xml version="1.0" encoding="utf-8"?>
<!-- Generator: Adobe Illustrator 19.1.0, SVG Export Plug-In . SVG Version: 6.00 Build 0)  -->
<svg version="1.1" id="Layer_1" xmlns="http://www.w3.org/2000/svg" xmlns:xlink="http://www.w3.org/1999/xlink" x="0px" y="0px"
	 viewBox="0 0 100 100" style="enable-background:new 0 0 100 100;" xml:space="preserve">
<style type="text/css">
	.st0{fill-rule:evenodd;clip-rule:evenodd;fill:#FFFFFF;}
	.st1{fill:none;stroke:#FFFFFF;stroke-width:1.5241;stroke-miterlimit:2.6131;}
	.st2{fill-rule:evenodd;clip-rule:evenodd;fill:#B9CAD1;}
	.st3{fill-rule:evenodd;clip-rule:evenodd;fill:#171F23;}
	.st4{fill-rule:evenodd;clip-rule:evenodd;fill:#0084C7;}
</style>
<g>
	<path class="st0" d="M87.3,50h-0.2c-0.3,0.1-0.6,0.2-0.9,0.2c-4,1-6.9-3.6,1.1-4.3h0.1c0,0-0.1-2.2-0.2-3.2L84,35.1
		c0,0-2.2,0.1-3.4,0.5l-1-3.2l6.7-3.5l0.6-3l-9.2-1.3l-3.1-10.5h-0.6l-5.1,9l-9.8-1l-0.2,3.1l4.6,4.3L63,29.2
		c-2.8,0.6-5.4,2.3-7.4,4.3l-4,0.3l-4.8-11l0.3,0.1C47,22.8,47,22.8,47,22.6l0,0v-0.1v0.1l0.1,0.1c1,1,2.7,0.4,3.5-0.2
		c0.6,0.1,1.1,0.2,1.7,0.3l0.1-1c0.7,1.8,4.5,1.5,4.9-0.4c0.5-2.7-3.7-4-4.9-1.6c-0.1-0.8-0.1-1.5-0.2-2.3L50,16.9
		c0.1,0.6,0.1,1.2,0.1,1.8c-0.3-0.1-0.6-0.2-1-0.2c-0.8,0.6-1.7,1.3-2.2,2.3c0.1-0.8,0.2-1.5,0.5-2.3l-1.7-0.5
		c-0.4,0.2-0.7,0.5-1.1,0.7c-0.6-0.2-1.3-0.3-2-0.5l-0.1,0.4l-2.3,0.1l-1-2.7c-0.4,1-0.9,1.9-1.3,2.8L36,19.2l0.1-0.9L34,17.8
		c-0.1,0.8-0.1,1.6-0.2,2.4L33.1,20l-0.7,0.1l-1.8-0.5L30.3,21c-1.3-3.2-7-1.5-6.7,1.9c0.1,0.4,0.2,0.7,0.3,1c1,1.6,3.9,2,5.6,0l0,0
		l0,0c0.1-0.2,0.3-0.3,0.4-0.6l-0.1,0.4l0.6,0.2l1.9,0.7c-0.1-0.2-0.2-0.5-0.3-0.7c-0.2-1,0.2-2.2,1.4-2.6c-0.1,0.7-0.1,1.4-0.2,2.1
		l2.1,0.5h0.1l0,0c0.2-1.2,0.2-2.4,0.3-3.6l1,0.7L36,24.1l0.2-0.2l2.8-1.8l2.7,1.8l-0.9-3l1.4-1c-0.2,0.9-0.3,1.8-0.5,2.7
		c0.8,0.2,1.6,0.3,2.3,0.6c0.1-0.7,0.2-1.5,0.6-2.2c0.1,0.5,0.1,0.9,0.2,1.4l0.9,0.2l-3.4,11.6l-1.6,0.1l-1-5.5l-9.8-4.2l-1.7,6.6
		L19,27.4l-2.3,21.4l-5.4-2L15.1,64l10.2,3.9c-3.4,3.8-6,8.2-7.5,13c5-5.3,10.1-10.4,18.1-13.4L34.4,72c6.2-4.2,14.9-5.2,22.1-3.6
		l-0.4,1.2c-4.5-1.4-9.4-1.1-14.3,0.1c5,1.2,9.1,2,13.4,4.3c0.5,7.5,7.4,14,15.3,13.2c13.2-1.4,17.3-17.7,8.8-26
		c2.1,0.9,4.5,1.3,6.6,1.3H86l1.5-9L87.3,50L87.3,50z M54.3,20.3c0.8-0.5,1.4,1,0.5,1.1C54,21.5,53.9,20.5,54.3,20.3L54.3,20.3z
		 M49.8,20.4c-0.1,0.2-0.6,1-0.9,1.1C49,20.9,49.4,20.6,49.8,20.4L49.8,20.4z M26.2,23.4c-0.8-0.5,0.6-2.9,1.5-2.6
		C28.7,21.4,27.5,23.9,26.2,23.4L26.2,23.4z M25.4,67.9l1-8l6.1,1.8C29.9,63.4,27.5,65.5,25.4,67.9L25.4,67.9z M54.3,55.8
		c-5.4,0.7-10.9,2.1-16.1,4.4l0.3-1.6c-1.9,0.7-3.7,1.7-5.4,2.8l1.3-5.4l1.3,0.4l0.7,2.3l11.3-8.2l6.7,4L54.3,55.8L54.3,55.8z"/>
	<path class="st1" d="M87.3,50h-0.2c-0.3,0.1-0.6,0.2-0.9,0.2c-4,1-6.9-3.6,1.1-4.3h0.1c0,0-0.1-2.2-0.2-3.2L84,35.1
		c0,0-2.2,0.1-3.4,0.5l-1-3.2l6.7-3.5l0.6-3l-9.2-1.3l-3.1-10.5 M73.9,14.1l-5.1,9l-9.8-1l-0.2,3.1l4.6,4.3L63,29.2
		c-2.8,0.6-5.4,2.3-7.4,4.3l-4,0.3l-4.8-11l0.3,0.1C47,22.8,47,22.8,47,22.6l0,0v-0.1v0.1l0.1,0.1c1,1,2.7,0.4,3.5-0.2
		c0.6,0.1,1.1,0.2,1.7,0.3l0.1-1c0.7,1.8,4.5,1.5,4.9-0.4c0.5-2.7-3.7-4-4.9-1.6c-0.1-0.8-0.1-1.5-0.2-2.3L50,16.9
		c0.1,0.6,0.1,1.2,0.1,1.8c-0.3-0.1-0.6-0.2-1-0.2c-0.8,0.6-1.7,1.3-2.2,2.3c0.1-0.8,0.2-1.5,0.5-2.3l-1.7-0.5
		c-0.4,0.2-0.7,0.5-1.1,0.7c-0.6-0.2-1.3-0.3-2-0.5l-0.1,0.4l-2.3,0.1l-1-2.7c-0.4,1-0.9,1.9-1.3,2.8L36,19.2l0.1-0.9L34,17.8
		c-0.1,0.8-0.1,1.6-0.2,2.4L33.1,20l-0.7,0.1l-1.8-0.5L30.3,21c-1.3-3.2-7-1.5-6.7,1.9c0.1,0.4,0.2,0.7,0.3,1c1,1.6,3.9,2,5.6,0l0,0
		l0,0c0.1-0.2,0.3-0.3,0.4-0.6l-0.1,0.4l0.6,0.2l1.9,0.7c-0.1-0.2-0.2-0.5-0.3-0.7c-0.2-1,0.2-2.2,1.4-2.6c-0.1,0.7-0.1,1.4-0.2,2.1
		l2.1,0.5h0.1l0,0c0.2-1.2,0.2-2.4,0.3-3.6l1,0.7L36,24.1l0.2-0.2l2.8-1.8l2.7,1.8l-0.9-3l1.4-1c-0.2,0.9-0.3,1.8-0.5,2.7
		c0.8,0.2,1.6,0.3,2.3,0.6c0.1-0.7,0.2-1.5,0.6-2.2c0.1,0.5,0.1,0.9,0.2,1.4l0.9,0.2l-3.4,11.6l-1.6,0.1l-1-5.5l-9.8-4.2l-1.7,6.6
		L19,27.4l-2.3,21.4l-5.4-2L15.1,64l10.2,3.9c-3.4,3.8-6,8.2-7.5,13c5-5.3,10.1-10.4,18.1-13.4L34.4,72c6.2-4.2,14.9-5.2,22.1-3.6
		l-0.4,1.2c-4.5-1.4-9.4-1.1-14.3,0.1c5,1.2,9.1,2,13.4,4.3c0.5,7.5,7.4,14,15.3,13.2c13.2-1.4,17.3-17.7,8.8-26
		c2.1,0.9,4.5,1.3,6.6,1.3H86l1.5-9L87.3,50 M54.3,20.3c0.8-0.5,1.4,1,0.5,1.1C54,21.5,53.9,20.5,54.3,20.3 M49.8,20.4
		c-0.1,0.2-0.6,1-0.9,1.1C49,20.9,49.4,20.6,49.8,20.4 M26.2,23.4c-0.8-0.5,0.6-2.9,1.5-2.6C28.7,21.4,27.5,23.9,26.2,23.4
		 M25.4,67.9l1-8l6.1,1.8C29.9,63.4,27.5,65.5,25.4,67.9 M54.3,55.8c-5.4,0.7-10.9,2.1-16.1,4.4l0.3-1.6c-1.9,0.7-3.7,1.7-5.4,2.8
		l1.3-5.4l1.3,0.4l0.7,2.3l11.3-8.2l6.7,4L54.3,55.8"/>
	<polygon class="st2" points="26.9,64 27.7,63.5 28.4,64.2 28.3,63.3 29.2,62.8 28.2,62.6 28,61.7 27.6,62.5 26.6,62.4 27.3,63.1 
		26.9,64 	"/>
	<polygon class="st2" points="46.6,56.5 48.1,55.5 49.5,56.6 49.1,54.9 50.6,53.8 48.8,53.7 48.2,52 47.5,53.7 45.7,53.7 47.1,54.8 
		46.6,56.5 	"/>
	<path class="st2" d="M87.3,50h-0.2c-0.3,0.1-0.6,0.2-0.9,0.2c-4,1-6.9-3.6,1.1-4.3h0.1c0,0-0.1-2.2-0.2-3.2L84,35.1
		c0,0-2.2,0.1-3.4,0.5l-1-3.2l6.7-3.5l0.6-3l-9.2-1.3l-3.1-10.5h-0.6l-5.1,9l-9.8-1l-0.2,3.1l4.6,4.3L63,29.2
		c-2.8,0.6-5.4,2.3-7.4,4.3l-4,0.3l-4.8-11l0.3,0.1C47,22.8,47,22.8,47,22.6l0,0v-0.1v0.1l0.1,0.1c1,1,2.7,0.4,3.5-0.2
		c0.6,0.1,1.1,0.2,1.7,0.3l0.1-1c0.7,1.8,4.5,1.5,4.9-0.4c0.5-2.7-3.7-4-4.9-1.6c-0.1-0.8-0.1-1.5-0.2-2.3L50,16.9
		c0.1,0.6,0.1,1.2,0.1,1.8c-0.3-0.1-0.6-0.2-1-0.2c-0.8,0.6-1.7,1.3-2.2,2.3c0.1-0.8,0.2-1.5,0.5-2.3l-1.7-0.5
		c-0.4,0.2-0.7,0.5-1.1,0.7c-0.6-0.2-1.3-0.3-2-0.5l-0.1,0.4l-2.3,0.1l-1-2.7c-0.4,1-0.9,1.9-1.3,2.8L36,19.2l0.1-0.9L34,17.8
		c-0.1,0.8-0.1,1.6-0.2,2.4L33.1,20l-0.7,0.1l-1.8-0.5L30.3,21c-1.3-3.2-7-1.5-6.7,1.9c0.1,0.4,0.2,0.7,0.3,1c1,1.6,3.9,2,5.6,0l0,0
		l0,0c0.1-0.2,0.3-0.3,0.4-0.6l-0.1,0.4l0.6,0.2l1.9,0.7c-0.1-0.2-0.2-0.5-0.3-0.7c-0.2-1,0.2-2.2,1.4-2.6c-0.1,0.7-0.1,1.4-0.2,2.1
		l2.1,0.5h0.1l0,0c0.2-1.2,0.2-2.4,0.3-3.6l1,0.7L36,24.1l0.2-0.2l2.8-1.8l2.7,1.8l-0.9-3l1.4-1c-0.2,0.9-0.3,1.8-0.5,2.7
		c0.8,0.2,1.6,0.3,2.3,0.6c0.1-0.7,0.2-1.5,0.6-2.2c0.1,0.5,0.1,0.9,0.2,1.4l0.9,0.2l-3.4,11.6l-1.6,0.1l-1-5.5l-9.8-4.2l-1.7,6.6
		L19,27.4l-2.3,21.4l-5.4-2L15.1,64l10.2,3.9c-3.4,3.8-6,8.2-7.5,13c5-5.3,10.1-10.4,18.1-13.4L34.4,72c6.2-4.2,14.9-5.2,22.1-3.6
		l-0.4,1.2c-4.5-1.4-9.4-1.1-14.3,0.1c5,1.2,9.1,2,13.4,4.3c0.5,7.5,7.4,14,15.3,13.2c13.2-1.4,17.3-17.7,8.8-26
		c2.1,0.9,4.5,1.3,6.6,1.3H86l1.5-9L87.3,50L87.3,50z M54.3,20.3c0.8-0.5,1.4,1,0.5,1.1C54,21.5,53.9,20.5,54.3,20.3L54.3,20.3z
		 M49.8,20.4c-0.1,0.2-0.6,1-0.9,1.1C49,20.9,49.4,20.6,49.8,20.4L49.8,20.4z M26.2,23.4c-0.8-0.5,0.6-2.9,1.5-2.6
		C28.7,21.4,27.5,23.9,26.2,23.4L26.2,23.4z M25.4,67.9l1-8l6.1,1.8C29.9,63.4,27.5,65.5,25.4,67.9L25.4,67.9z M54.3,55.8
		c-5.4,0.7-10.9,2.1-16.1,4.4l0.3-1.6c-1.9,0.7-3.7,1.7-5.4,2.8l1.3-5.4l1.3,0.4l0.7,2.3l11.3-8.2l6.7,4L54.3,55.8L54.3,55.8z"/>
	<path class="st3" d="M86.4,51.1c-1.6,0.4-4.3-0.1-4.9-1.9c-0.9-2.8,2.9-4,5-4.2l-0.1-2l-3-6.8c-1.1,0.1-2.1,0.1-3.4,0.6l-1.4-4.9
		l7-3.6l0.3-1.5L77,25.4l-2.9-9.7l-4.7,8.4l-9.5-0.9l-0.2,1.8l6.6,6l-0.5,1l-3-1.7c-3.8,0.9-6.7,4.1-6.8,4.2L51,34.8l-4.7-10.9
		L43,35.1l-3,0.2l-1-5.8l-8.4-3.6l-1.7,6.6l-9.2-3.8l-2.3,21.4l-4.8-1.9l3.3,15.1l8.7,3.4l1-8l6.7,2l1.4-6l2.6,0.9l0.5,1.6l10.7-7.8
		l7.7,4.5v1.8c3-0.3,5.9-0.3,8.7-0.2c0.2,0,0.3,0,0.5,0.1l1,1c-3.8-0.4-8.3-0.3-13.6,0.5c-5.1,0.8-10.1,2.3-14.8,4.5l0.4-1.7
		C30,63,22.5,70.8,19.5,78.2c4.7-5.3,11.4-9.9,17.6-11.9l-1.3,4c5.6-3.5,15.3-4,21.7-2.4l-1,2.8c-3.4-1.2-8.6-1.6-12.2-0.9
		c4.1,0.7,8.4,1.6,11.9,3.9c0.2,7.3,7.1,13.5,14.4,12.6c13.3-1.5,18.6-23.2-0.2-28.6l1.1-0.6l3.6,1.4v-1.9c1.5,3.6,6.6,5,10.2,5.2
		c0.3-1.9,0.6-3.8,1-5.7c0.1-0.7,0.4-2.3,0.4-2.3L86.4,51.1L86.4,51.1z"/>
	<polygon class="st2" points="37.2,52.1 37,52.6 33.7,51.4 33.2,46.2 31.1,57 26.5,55.4 24.4,48.3 23.1,62.6 17,60 15,51.2 19,52.8 
		21.3,31.3 27,33.7 28.9,40.7 31.7,28 37.4,30.5 38.1,35.5 37.4,35.5 33.9,32.2 32,33.2 30.9,40.6 35.7,41.8 35.4,47.1 37.2,52.1 	
		"/>
	<path class="st2" d="M54.6,41.2c-1,5.6,1.4,8.6,5.6,8.3l0.3-4.9c-0.6-0.1-1.7-0.5-1.8-1.4c-0.1-1.1,0.8-3.2,2.5-4.4l0.1,6.8
		c0,4.3-0.6,5.8-4.7,7.4l3.7,2.8l0.9,0.2c0,0,0.6,0.2,1-0.1c1.8-1.4,5-4.4,4.8-9.4c-0.1-2.3-0.2-6.9-0.3-9.2l-0.5,0.3l-0.4,1.5
		l-3.2,1.4l-0.7-4.1l3.1-2.5l0.3-0.6l-2.4-1.6c-1.5,0.3-3.3,1.5-4.2,2.6l1-0.1l1.9-0.9l-1.4,5.1l-4.8,2.3L54.6,41.2L54.6,41.2z"/>
	<polygon class="st2" points="68.1,36.7 68.5,50.9 73.3,53.9 72.9,35.9 72.3,35.6 71.9,36.4 70.6,36.7 69.3,37.2 68.6,36.4 
		68.1,36.7 	"/>
	<path class="st2" d="M80.3,38.1c0.6-0.2,1.4-0.3,2.2-0.4l1.9,4.6c-7.4,1.6-5.5,9.6-0.5,10.2l0.6,0.1l-0.7,5.3
		c-2.7-0.4-5.4-1.4-7.2-3.5c-2.5-2.7-4.2-11.2,1-15.2l0.4,0.4l-0.5,2.4l3.7,0.3l0.6-3.4l-1.3-0.4L80.3,38.1L80.3,38.1z"/>
	<polygon class="st4" points="22,32.5 19.6,53.7 15.9,52.2 17.5,59.6 22.6,61.6 24.3,45 27.1,54.7 30.5,55.8 33.3,41.8 34.3,50.9 
		37.2,52.1 40,43 32.9,38 32.7,36 37.4,35.5 36.7,30.9 32.2,28.9 29.1,43.4 26.3,34.2 22,32.5 	"/>
	<polygon class="st4" points="68.6,36.4 69,50.5 72.7,52.8 72.3,35.6 71.5,35 68.6,36.4 	"/>
	<path class="st4" d="M56.5,48c0.9,0.8,1.9,1.1,3.2,1.1l0.2-3.9C57.7,45,57,42,60.3,38.7c0.4-0.4,1.1-0.9,1.5-1v7.9
		c0,3.9-0.4,5.9-4.2,7.6l3,2.3c0.3,0,0.7,0,1,0c0.6-0.4,1.1-0.8,1.5-1.3c1.1-1.1,2.5-3.4,2.9-4.9c0.3-1.7,0.3-3.4,0.2-5.1
		c0-2.2-0.1-4.3-0.2-6.5l-3.4,2c0-0.4,0.1-1.8,0.1-1.8l2.1-3.9l-2.2-1.5c-1.1,0.3-2.3,0.9-3.1,1.9l1.1-0.1l-0.5,2l-5,4.5
		C54.7,43.2,54.6,46.3,56.5,48L56.5,48z"/>
	<path class="st4" d="M80.7,40l-0.3-1.3c0.5-0.2,1-0.3,1.7-0.3l1.5,3.7c-7.3,2-5.4,9.9-0.6,11c0,0,0.5,0.1,0.7,0.1l-0.5,4
		c-2.4-0.4-4.7-1.3-6.3-3.2c-2.3-2.8-3.8-10.7,0.9-14.3l2.1,2L80.7,40L80.7,40z"/>
	<polygon class="st4" points="22,32.5 19.6,53.7 15.9,52.2 17.5,59.6 22.6,61.6 24.3,45 27.1,54.7 30.5,55.8 33.3,41.8 34.3,50.9 
		37.2,52.1 35.4,47.1 35.7,41.8 30.9,40.6 32,33.2 33.9,32.2 37.4,35.5 36.7,30.9 32.2,28.9 29.1,43.4 26.3,34.2 22,32.5 	"/>
	<polygon class="st4" points="68.6,36.4 69,50.5 72.7,52.8 72.3,35.6 71.9,36.4 70.6,36.7 69.3,37.2 68.6,36.4 	"/>
	<path class="st4" d="M56.5,48c0.9,0.8,1.9,1.1,3.2,1.1l0.2-3.9C57.7,45,57,42,60.3,38.7c0.4-0.4,1.1-0.9,1.5-1v7.9
		c0,3.9-0.4,5.9-4.2,7.6l3,2.3c0.3,0,0.7,0,1,0c0.6-0.4,1.1-0.8,1.5-1.3c1.1-1.1,2.5-3.4,2.9-4.9c0.3-1.7,0.3-3.4,0.2-5.1
		c0-2.2-0.1-4.3-0.2-6.5l-0.4,1.5l-3.2,1.4l-0.7-4.1l3.1-2.5l-2.2-1.5c-1.1,0.3-2.3,0.9-3.1,1.9l1.9-0.9l-1.4,5.1l-4.8,2.3
		C54.7,43.2,54.6,46.3,56.5,48L56.5,48z"/>
	<path class="st4" d="M80.4,38.7c0.5-0.2,1-0.3,1.7-0.3l1.5,3.7c-7.3,2-5.4,9.9-0.6,11c0,0,0.5,0.1,0.7,0.1l-0.5,4
		c-2.4-0.4-4.7-1.3-6.3-3.2c-2.3-2.8-3.8-10.7,0.9-14.3l-0.5,2.4l3.7,0.3l0.6-3.4L80.4,38.7L80.4,38.7z"/>
	<polygon class="st2" points="66,58.9 68,58 69.7,59.6 69.3,57.4 71.2,56.3 68.9,55.8 68.4,53.6 67.4,55.5 65.2,55.2 66.8,56.9 
		66,58.9 	"/>
	<polygon class="st2" points="32.5,66.4 33.3,65.9 34.1,66.4 33.9,65.6 34.7,65.1 33.7,65 33.5,64.1 33.1,65 32.2,64.9 32.9,65.5 
		32.5,66.4 	"/>
	<path class="st2" d="M73,67c1-1,1.9-2.1,2.5-3.4c-2.2-1.8-6.3-3.9-16.3-3.6c4.3,0.6,8.3,1.5,10.7,2.8c-1.9-0.5-3-0.6-3-0.6
		c-0.5,0.1-1.3,0.3-1.8,0.5C68.2,63.6,70.5,64.8,73,67L73,67z M72.3,67.6c-7.2-6.5-20.4-6.6-29.1-3.3c6.2-0.8,18.6-1.6,23.6,3.1
		c-1.5-0.6-4.5-1.7-6.2-1.4c-0.5,0.7-1,1.5-1.4,2.3C63.6,69.5,68.2,70.7,72.3,67.6L72.3,67.6z M75.1,71c-0.6-1-1.4-1.9-2.2-2.8
		c-4.4,3.5-9.3,2.2-14.2,0.9c-0.9,2.6-1,5.3-0.1,7.9C64.5,76.6,70.5,74.5,75.1,71L75.1,71z M76.6,73.9c-0.3-0.7-0.6-1.4-1-2
		C70.9,75.4,65,77.5,59.1,78c2.2,4.4,6.5,6.9,11.3,6.5C71.6,80.5,72.9,76.2,76.6,73.9L76.6,73.9z M77,74.8c-3.4,2-4.5,6-5.6,9.5
		c2.3-0.5,4.4-1.5,6.1-3.2C77.9,79,77.7,76.8,77,74.8L77,74.8z M77.8,74.3c0.6,1.8,0.9,3.5,1,5.3c1.3-2,1.8-3.7,2-6.2
		C79.7,73.6,78.7,73.9,77.8,74.3L77.8,74.3z M76.4,71.3c0.4,0.7,0.7,1.4,1.1,2.2c1.1-0.5,2.1-0.8,3.3-1c-0.2-1.7-0.5-2.9-1.2-4.4
		C78.6,69.3,77.6,70.4,76.4,71.3L76.4,71.3z M73.6,67.7c0.7,0.9,1.6,1.9,2.3,2.8c1.2-1,2.2-2,3.1-3.4c-0.7-1.1-2.1-2.4-2.9-3.1
		C75.5,65.5,74.7,66.6,73.6,67.7L73.6,67.7z"/>
	<path class="st0" d="M78.3,67.2c-0.3,0.3-0.6,0.7-0.9,1c-0.4-0.7-0.9-1.4-1.4-2c0.2-0.3,0.5-0.6,0.6-1C77.4,65.8,78,66.6,78.3,67.2
		L78.3,67.2z M80,71.8c-0.4,0.1-0.7,0.1-1.1,0.2c-0.1-0.5-0.2-1.1-0.4-1.6c0.3-0.3,0.7-0.7,1-1C79.8,70.1,79.9,70.9,80,71.8L80,71.8
		z M79.1,76.8v-0.2c0.1-0.8,0.1-1.6,0.1-2.3c0.2-0.1,0.4-0.1,0.6-0.2C79.7,75.1,79.5,76,79.1,76.8L79.1,76.8z M69.2,61.6
		c-0.2-0.1-0.3-0.2-0.6-0.2c2.9,0.6,4.9,1.6,6,2.3c-0.1,0.3-0.3,0.5-0.5,0.7C72.8,63.2,71.1,62.2,69.2,61.6L69.2,61.6z"/>
	<path class="st4" d="M72.7,83.3c2.1-1,3.1-1.9,3.5-2.3c0.3-0.7,0.3-2.3,0.1-4.1l-1.1,2.4l0.2-2.2C73.6,79.5,73.1,81.2,72.7,83.3
		L72.7,83.3z M60.9,79.2c3.4-0.5,8.2-1.9,11.6-4.4c-1.9,2.3-4.1,3.8-7.4,5.9c3.8-1,5.5-2.7,7.8-4.8c-1.8,2.3-2.5,4.7-3.7,7.2
		C69.2,83.2,64.8,84.2,60.9,79.2L60.9,79.2z M59.5,70.8c3.3,1.2,5.7,1,8.9,0.9l-5,2c2.6-0.2,5.6-0.7,8-1.5
		c-5.2,3.3-11.9,3.8-11.9,3.8C58.9,74.3,58.9,72.2,59.5,70.8L59.5,70.8z"/>
	<polygon class="st0" points="46.5,27.8 44.1,36.4 34.9,37.2 41.8,42.1 38.8,51.8 47.2,45.6 55.4,50.4 51.9,41.2 58.1,35.6 
		49.8,36.2 46.5,27.8 	"/>
	<polygon class="st0" points="62,24.5 70.2,25.4 73.8,18.8 75.7,26.3 83.2,27.4 76.9,30.7 78.8,38.2 72.4,32.9 64.9,36.6 68.3,30 
		62,24.5 	"/>
	<polygon class="st2" points="51.1,41 54.1,48.8 47.1,44.8 40,50.1 42.6,41.8 36.7,37.7 44.6,37 46.6,29.9 49.4,36.9 56.3,36.4 
		51.1,41 	"/>
	<polygon class="st2" points="75.2,26.9 81.1,27.7 76.1,30.4 77.7,36.4 72.5,32.1 66.4,35.1 69.1,29.8 64,25.4 70.6,26.1 73.5,20.7 
		75.2,26.9 	"/>
	<path class="st3" d="M49.3,18.9c0.4,0.1,0.8,0.2,1.3,0.2c0.1-0.5-0.1-1.1-0.1-1.6c0.4,0.1,0.8,0.2,1.3,0.4c0.1,1.5,0.2,3,0.1,4.5
		c-0.5-0.1-0.9-0.2-1.4-0.3c-0.6,0.6-1.5,0.9-2.2,0.7C47.9,22.8,45.7,21.8,49.3,18.9L49.3,18.9z M50.6,19.5c-1,0.3-2.5,1.5-2.1,2.3
		c0.2,0.1,0.3,0.2,0.6,0C49.9,21.3,50.4,20.4,50.6,19.5L50.6,19.5z M30.9,20.1l1.1,0.2c0,0.1,0,0.2,0,0.3c0.3-0.2,0.7-0.3,1.1-0.3
		c0.3,0.1,0.7,0.2,1.1,0.3c-1.3,0.3-2,1-2.2,1.3c-0.2,0.7-0.2,1.2-0.1,1.9c-0.5-0.1-1-0.4-1.5-0.5C30.5,22.3,30.7,21.2,30.9,20.1
		L30.9,20.1z M42.9,18.8c0.5,0.1,0.9,0.1,1.4,0.3c0,0.1,0,0.2-0.1,0.3c0.6-0.2,1-0.6,1.5-0.9c0.4,0.1,0.8,0.2,1.2,0.3
		c-0.4,1.2-0.4,2.4-0.3,3.5c-0.5-0.1-0.9-0.2-1.4-0.3c-0.1-0.6-0.2-1.2-0.1-2c-0.9,0.5-1.3,1.8-1.3,2.7c-0.6-0.2-1-0.2-1.5-0.4
		C42.5,21.2,42.7,20,42.9,18.8L42.9,18.8z M34.1,21.2c0.2-0.2,0.6-0.3,1-0.3c-0.2-0.1-0.6-0.3-0.9-0.3c0.1-0.7,0.2-2.2,0.2-2.2
		c0.4,0.1,1,0.2,1.4,0.3c-0.2,1.5-0.4,4.7-0.4,4.8c-0.5-0.1-1-0.2-1.4-0.3C34,22.4,34,21.8,34.1,21.2L34.1,21.2z"/>
	<path class="st3" d="M27.1,20.5c-1.8,0.7-2.6,3.9-0.6,3.6C29.2,23.7,29.2,19.7,27.1,20.5L27.1,20.5z M25.4,20.4
		c1-0.7,2.2-0.9,3-0.6c1.8,0.5,2.6,2.8,0.5,4.4c-1.2,0.9-2.7,1-3.6,0.5C23.7,23.8,23.6,21.6,25.4,20.4L25.4,20.4z"/>
	<polygon class="st3" points="39.2,17.1 38.2,19.3 35.8,19.6 37.4,20.8 36.8,23.2 39.1,21.6 41.2,22.9 40.5,20.7 42.7,19.1 40,19.2 
		39.2,17.1 	"/>
	<path class="st3" d="M54.1,19.9c-0.8,0.3-0.6,2.1,0.7,2C56.6,21.7,55.6,19.2,54.1,19.9L54.1,19.9z M53.2,19.3
		c1.4-0.9,4.1,0.2,3.5,2.1c-0.5,1.6-3.3,1.6-4.1,0.3C52.2,21,52.5,19.8,53.2,19.3L53.2,19.3z"/>
	<polygon class="st0" points="55.4,61.6 56.7,60.8 58,61.7 57.6,60.2 58.9,59.3 57.3,59.2 56.8,57.7 56.3,59.1 54.7,59.1 55.9,60.1 
		55.4,61.6 	"/>
	<polygon class="st0" points="39.9,66.3 40.8,65.8 41.6,66.3 41.3,65.4 42.2,64.7 41.2,64.7 40.8,63.7 40.5,64.6 39.4,64.6 
		40.2,65.3 39.9,66.3 	"/>
	<polygon class="st0" points="41.4,19.6 40.1,20.6 40.5,22.1 39,21.1 37.4,22.2 37.9,20.7 36.8,19.9 38.5,19.7 39.2,18.2 39.7,19.6 
		41.4,19.6 	"/>
</g>
</svg>
