<?xml version="1.0" encoding="utf-8"?>
<!-- Generator: Adobe Illustrator 19.1.0, SVG Export Plug-In . SVG Version: 6.00 Build 0)  -->
<svg version="1.1" id="Layer_1" xmlns="http://www.w3.org/2000/svg" xmlns:xlink="http://www.w3.org/1999/xlink" x="0px" y="0px"
	 viewBox="0 0 400 400" enable-background="new 0 0 400 400" xml:space="preserve">
<g id="layer1" transform="translate(5.7592782,-176.68814)">
	<g id="g7802" transform="translate(134.97185,67.948001)">
		<g id="g5403" transform="matrix(7.8459447,0,0,-7.8459447,289.27063,247.05202)">
			<path id="path5405" fill="#C4CED4" d="M-24.309,0.845l0.162-0.011l0.345-1.56l4.241-0.377v-0.721l-4.747,0.396V0.845z
				 M-4.803-5.634v6.811l-0.01,0.003c-0.05,0.017-3.882,1.358-6.116,1.861c-2.627,0.591-3.385-1.431-3.496-1.79v2.569
				c0,0-7.198,1.388-12.339,1.31c-0.887-0.014-2.221-0.334-2.644-2.199v2.259c0,0-4.943-0.141-6.779-0.309
				c-0.455-0.042-2.432-0.214-3.06-2.454l0.001,2.179c0,0-6.515-0.781-12.349-2.662c-0.847-0.273-2.19-1.26-2.19-2.742v-14.973
				l4.901,1.564v2.582l4.468,1.058l0.001-2.572c0,0,1.139,0.24,2.201,0.46c-2.257-1.925-4.092-4.355-5.227-7.037
				c2.965,2.547,5.915,5.019,10.299,6.204l-0.994-2.309c3.488,1.91,8.17,1.971,11.896,0.772l-0.281-0.617
				c-2.302,0.972-4.932,1.091-7.567,0.686c2.577-0.887,4.745-1.572,6.906-2.994c-0.144-4.019,3.155-7.86,7.406-7.824
				c6.836,0.052,9.983,8.064,6.165,13.012c0.391-0.301,0.868-0.514,1.59-0.733c2.412-0.677,7.22-2.099,7.22-2.099v6.394
				l-3.671,1.096l-0.401-1.786c-0.241,0.079-0.587,0.093-0.593,0.27c-0.003,0.088-0.001,4.818-0.002,7.219l0.291-1.862L-4.803-5.634
				L-4.803-5.634z"/>
		</g>
		<g id="g5407" transform="matrix(7.8459447,0,0,-7.8459447,507.78095,278.55882)">
			<path id="path5409" fill="#0E1F24" d="M-37.055,2.683l0.408-2.611l3.535-1.088v0.001l0.008-0.002v5.901
				c0,0-3.521,1.235-5.788,1.749c-0.777,0.215-3.066,0.35-3.118-2.536v-9.974c0-1.719,0.907-2.865,2.624-3.316
				c2.612-0.686,6.282-1.81,6.282-1.81v5.472l-2.905,0.867l-0.4-1.779c-0.322,0.093-0.582,0.165-0.908,0.25
				c-0.357,0.093-0.433,0.285-0.448,0.475v8.601C-37.717,2.869-37.156,2.713-37.055,2.683"/>
		</g>
		<g id="g5411" transform="matrix(7.8459447,0,0,-7.8459447,364.15465,199.78867)">
			<path id="path5413" fill="#0E1F24" d="M-28.677-1.912v-15.892l0.795-0.069c0.239-0.029,2.148-0.345,2.379-0.393l1.085-0.275
				V-2.57C-24.411-2.545-27.074-2.105-28.677-1.912"/>
		</g>
		<g id="g5415" transform="matrix(7.8459447,0,0,-7.8459447,290.44043,331.69972)">
			<path id="path5417" fill="#0E1F24" d="M-24.377,5.783V2.828c-0.082,0.005-0.476-0.027-0.521,0.235v2.758L-24.377,5.783z
				 M-23.949,12.043l0.346-1.568l3.518-0.313v4.85c0,0-5.123,0.486-6.556,0.486c-0.857,0-2.494-0.314-2.554-2.491V2.626
				c0-1.796,1.038-2.868,2.849-2.944c0,0,3.764-0.183,5.211-0.396l1.05-0.198V8.56v0.002l-4.813,0.387v3.148L-23.949,12.043
				L-23.949,12.043z"/>
		</g>
		<g id="g5419" transform="matrix(7.8459447,0,0,-7.8459447,139.3448,286.82154)">
			<path id="path5421" fill="#0E1F24" d="M-15.563,3.165v3.021c0.009,0.19,0.446,0.171,0.506,0.175V3.192
				C-15.224,3.183-15.393,3.174-15.563,3.165 M-17.049,9.514c-1.752-0.163-2.798-1.338-2.798-3.144l0.005-13.028l1.031,0.194
				c0.232,0.033,2.158,0.226,2.4,0.24l0.849,0.022v5.825c0.168,0.012,0.336,0.024,0.506,0.035v-5.846l0.971,0.112
				c0.209,0.016,2.1,0.087,2.419,0.087l0.916-0.05V9.81C-10.75,9.81-15.143,9.689-17.049,9.514"/>
		</g>
		<g id="g5423" transform="matrix(7.8459447,0,0,-7.8459447,66.650547,199.98263)">
			<path id="path5425" fill="#0E1F24" d="M-11.322-1.901c0,0-3.991-0.599-5.177-0.865c-0.273-0.062-0.534-0.164-0.777-0.301
				l-0.001,0.138c0,0-3.32-0.734-5.819-1.541c-0.783-0.253-1.886-1.142-1.886-2.324v-14.33l4.022,1.274v11.935
				c0,0.218,0.191,0.387,0.567,0.502c0.018,0.005,0.042,0.011,0.071,0.018v-9.727l4.257,1.009v9.311
				c0.049,0.426,0.414,0.467,0.448,0.472V-18.57c0,0,3.308,0.665,3.496,0.689l0.8,0.07L-11.322-1.901z"/>
		</g>
		<g id="g5427" transform="matrix(7.8459447,0,0,-7.8459447,528.41421,394.24194)">
			<path id="path5429" fill="#FFFFFF" d="M-38.259,9.431l-0.399-1.777c-0.641,0.19-0.956,0.279-1.418,0.4
				c-0.451,0.118-0.721,0.377-0.805,0.772v9.09c0.15,0.514,0.818,0.079,1.653-0.091l0.409-2.614l2.565-0.79v4.843
				c0,0-3.188,1.085-5.386,1.612c-0.24,0.058-2.434,0.574-2.485-2.037V8.867c0-1.481,0.754-2.43,2.241-2.82
				c2.149-0.565,5.637-1.612,5.637-1.612V8.83L-38.259,9.431z"/>
		</g>
		<g id="g5431" transform="matrix(7.8459447,0,0,-7.8459447,418.33793,215.5176)">
			<path id="path5433" fill="#FFFFFF" d="M-31.838-0.995l-3.232,0.502v-14.836c0,0,2.613-0.394,2.778-0.433l0.456-0.116
				L-31.838-0.995z"/>
		</g>
		<g id="g5435" transform="matrix(7.8459447,0,0,-7.8459447,284.92002,232.96133)">
			<path id="path5437" fill="#FFFFFF" d="M-24.055,0.023c0.029,0,0.909-0.057,1.228-0.084l0.348-1.572l2.584-0.23v3.825
				c0,0-5.354,0.465-6.043,0.437c-0.641-0.026-1.95-0.136-2.041-1.979v-10.38c0-1.527,0.815-2.367,2.357-2.431
				c0,0,3.555-0.176,5.116-0.379l0.611-0.11v8.389v0.002l-3.911,0.315v-2.106c0,0,0.523-0.038,0.651-0.047v-3.976
				c-0.488,0.033-1.513-0.079-1.553,0.772v9.177C-24.671-0.184-24.541,0.023-24.055,0.023"/>
		</g>
		<g id="g5439" transform="matrix(7.8459447,0,0,-7.8459447,153.56479,292.98783)">
			<path id="path5441" fill="#FFFFFF" d="M-16.392,3.524c-0.017-0.001-0.986-0.048-1.459-0.08v3.552
				c0.036,0.373,0.291,0.579,0.755,0.613c0,0,0.472,0.03,0.703,0.044V3.524z M-18.818,9.826c-1.491-0.146-2.352-1.098-2.364-2.634
				h-0.001v-12.49l0.003,0.001v-0.001l0.054,0.01l0.506,0.09c0.427,0.052,2.212,0.229,2.376,0.236l0.393,0.01V0.85
				c0.473,0.038,0.961,0.072,1.459,0.101l0.004-5.811l0.443,0.043c0.152,0.015,2.119,0.09,2.466,0.09l0.441-0.023v14.856
				C-13.038,10.106-16.866,10.018-18.818,9.826"/>
		</g>
		<g id="g5443" transform="matrix(7.8459447,0,0,-7.8459447,59.260477,208.59622)">
			<path id="path5445" fill="#FFFFFF" d="M-10.891-1.398l-0.002-0.001v0.001c0,0-3.886-0.594-4.551-0.77
				c-0.528-0.139-0.917-0.349-1.38-0.868v0.569c0,0-2.697-0.593-5.173-1.393c-0.618-0.2-1.531-0.921-1.531-1.836v-13.58l2.998,0.937
				l-0.002,11.523c-0.016,0.969,1.387,1.092,1.663,1.139v-9.699l3.227,0.764c0,0,0.002,8.44,0.002,8.932
				c0.11,1.059,1.291,0.985,1.478,1.051l0.003-12.181l1.579,0.274l0.001,0.001l1.679,0.291v0.047l0.008,0.002V-1.398z"/>
		</g>
		<g id="g5447" transform="matrix(7.8459447,0,0,-7.8459447,552.1121,406.84504)">
			<path id="path5449" fill="#0B74BC" d="M-39.641,10.166l-1.367,0.408l-0.399-1.776c-0.888,0.263-1.233,0.365-1.782,0.508
				c-0.523,0.136-1.054,0.507-1.104,1.299v8.823c0.104,0.682,0.556,0.804,1.101,0.655c0.005,0.01,0.583-0.16,1.269-0.366l0.41-2.616
				l1.872-0.576v4.087c-1.036,0.361-3.068,1.027-5.105,1.516c-1.305,0.313-2.033-0.348-2.033-1.681v-9.974
				c0-1.336,0.666-2.124,1.968-2.466c2.66-0.699,5.177-1.471,5.177-1.471L-39.641,10.166z"/>
		</g>
		<g id="g5451" transform="matrix(7.8459447,0,0,-7.8459447,376.87293,418.04403)">
			<path id="path5453" fill="#0B74BC" d="M-29.419,10.82c0.155-0.014,2.348-0.375,2.5-0.413v14.105
				c-0.751,0.133-1.419,0.247-2.5,0.391V10.82z"/>
		</g>
		<g id="g5455" transform="matrix(7.8459447,0,0,-7.8459447,293.83772,319.19642)">
			<path id="path5457" fill="#0B74BC" d="M-24.575,5.053c0.129-0.01,0.651-0.047,0.651-0.047V0.295
				c-0.386,0.03-0.773,0.056-1.156,0.081c-0.565,0.036-1.133,0.401-1.133,1.157c0,0.024-0.002,9.088-0.002,9.088
				c0.079,0.679,0.735,0.781,1.135,0.755c0,0.01,0.659-0.04,1.417-0.104l0.346-1.569l1.919-0.172v3.089h-0.01v0.001
				c-3.487,0.339-5.436,0.398-5.436,0.398c-0.409,0.018-1.024,0.017-1.447-0.391c-0.268-0.256-0.458-0.684-0.458-1.216V1.032
				c0-1.335,0.676-2.01,2.007-2.065c0.003,0.043,4.673-0.286,5.345-0.41V6.17v0.002c-1.117,0.11-1.757,0.175-3.177,0.258V5.053z"/>
		</g>
		<g id="g5459" transform="matrix(7.8459447,0,0,-7.8459447,126.62577,242.50514)">
			<path id="path5461" fill="#0B74BC" d="M-14.821,0.58c0.022,0.273,0.178,0.927,1.132,0.998c0.377,0.024,0.754,0.049,1.132,0.069
				v-4.939c-0.753-0.039-1.51-0.07-2.265-0.131V0.58z M-17.347,0.723c0,0,0.005-11.802,0.005-11.969
				c0.154,0.029,2.366,0.249,2.521,0.253v5.781c0.754,0.065,1.511,0.116,2.265,0.156v-5.793c0.157,0.018,2.393,0.1,2.548,0.091
				V3.257c-1.5-0.041-3.563-0.104-5.339-0.267C-16.676,2.867-17.347,2.055-17.347,0.723"/>
		</g>
		<g id="g5463" transform="matrix(7.8459447,0,0,-7.8459447,-5.4560732,224.90825)">
			<path id="path5465" fill="#0B74BC" d="M-7.116-0.447c-0.926-0.208-1.623-1.088-1.826-2.145v1.748c0,0-2.206-0.483-4.694-1.286
				c-0.497-0.16-1.277-0.77-1.277-1.487v-13.045c0.147,0.057,2.113,0.663,2.264,0.696v11.229c0,0.785,0.644,1.176,1.193,1.343
				c0.303,0.09,1.203,0.226,1.203,0.226v-9.661l2.502,0.588v8.698c0.089,0.656,0.449,1.088,1.111,1.245
				c0.633,0.107,1.095,0.177,1.095,0.177l0.002-12.137c0.152,0.039,2.371,0.417,2.526,0.43c0,2.799,0.006,14.084,0.006,14.084
				S-5.948-0.185-7.116-0.447"/>
		</g>
		<g id="g5467" transform="matrix(7.8459447,0,0,-7.8459447,377.37664,404.02803)">
			<path id="path5469" fill="#0E1F24" d="M-29.448,10.002c9.742-3.848,5.693-15.188-1.447-15.271
				c-3.91-0.047-7.239,3.586-6.958,7.464c-1.758,1.413-3.975,2.095-6.112,2.7c1.934,0.204,4.655-0.301,6.421-1.119l0.657,1.433
				c-3.268,1.2-8.45,1.407-11.63-0.128l0.873,2.036c-3.375-0.746-7.145-2.826-9.929-5.438c1.951,3.742,6.373,7.533,10.409,8.793
				l-0.297-0.882c2.599,0.946,5.309,1.461,8.065,1.619c2.929,0.168,5.297,0.001,7.326-0.449c-0.364,0.471-0.95,1.312-0.95,1.312
				s1.573-0.4,1.875-0.477c0.162,0.262,0.48,0.775,0.48,0.775l0.49,0.797c0,0,0.24-1.649,0.28-1.936
				c0.274-0.089,1.791-0.588,1.791-0.588L-29.448,10.002z"/>
		</g>
		<g id="g5471" transform="matrix(7.8459447,0,0,-7.8459447,393.02616,484.89148)">
			<path id="path5473" fill="#C4CED4" d="M-30.361,14.719c0.368-0.49,0.76-1.065,1.055-1.605c0.702,0.476,1.309,0.973,1.859,1.617
				c-0.346,0.664-0.956,1.414-1.384,1.785C-29.227,15.809-29.737,15.228-30.361,14.719 M-29.073,12.643
				c0.172-0.392,0.324-0.789,0.456-1.196c0.601,0.198,1.179,0.299,1.806,0.335c0.016,0.904-0.106,1.567-0.397,2.411
				C-27.782,13.6-28.388,13.1-29.073,12.643 M-28.492,10.975c0.216-0.966,0.28-1.936,0.225-2.916
				c0.775,1.031,1.184,1.914,1.405,3.232C-27.417,11.243-27.968,11.151-28.492,10.975 M-28.909,10.751
				c-1.93-0.909-2.713-2.937-3.472-4.787c1.27,0.147,2.44,0.576,3.421,1.412C-28.665,8.472-28.702,9.643-28.909,10.751
				 M-29.063,11.26c-0.114,0.387-0.256,0.762-0.413,1.132c-2.742-1.61-5.954-2.407-9.127-2.383c0.921-2.426,3.067-4.035,5.684-4.063
				C-32.088,7.993-31.169,10.228-29.063,11.26 M-29.701,12.864c-0.299,0.562-0.673,1.084-1.06,1.586
				c-2.505-1.601-5.018-0.675-7.557,0.257c-0.633-1.324-0.788-2.75-0.442-4.178C-35.675,10.451-32.356,11.282-29.701,12.864
				 M-31.037,14.845c-3.494,3.837-10.444,4.597-15.265,3.288c3.346,0.09,9.978-0.09,12.346-2.909
				c-0.764,0.425-2.312,1.139-3.23,1.086c-0.327-0.36-0.614-0.759-0.871-1.171C-35.729,14.28-33.346,13.416-31.037,14.845
				 M-30.657,15.114c0.611,0.48,1.148,1.025,1.518,1.701c-1.088,1.066-3.162,2.38-8.443,2.74c2.239-0.508,4.329-1.214,5.512-2.053
				c-0.966,0.369-1.568,0.472-1.568,0.472c-0.285-0.04-0.686-0.078-0.984-0.146C-33.012,17.196-31.84,16.438-30.657,15.114"/>
		</g>
		<g id="g5475" transform="matrix(7.8459447,0,0,-7.8459447,341.64388,411.64927)">
			<path id="path5477" fill="#C4CED4" d="M-27.364,10.447l1.084,0.379l0.824-0.935l-0.097,1.22l1.05,0.458l-1.143,0.375
				l-0.177,1.217l-0.61-0.988l-1.157,0.295l0.767-0.986L-27.364,10.447z"/>
		</g>
		<g id="g5479" transform="matrix(7.8459447,0,0,-7.8459447,282.39677,498.40721)">
			<path id="path5481" fill="#0B74BC" d="M-23.908,15.508c1.661-0.779,2.976-0.811,4.669-0.89l-2.73-0.807
				c1.372-0.066,2.984,0.072,4.328,0.345c-2.943-1.469-6.508-1.361-6.508-1.361C-24.415,13.697-24.29,14.823-23.908,15.508
				 M-23.588,10.985c1.819,0.069,4.396,0.561,6.377,1.715c-1.144-1.159-2.365-1.793-4.223-2.758c2.035,0.344,3.037,1.145,4.37,2.136
				c-1.036-1.16-1.547-2.383-2.348-3.649C-19.411,8.43-21.785,8.133-23.588,10.985 M-17.565,8.212
				c1.146,0.398,1.736,0.856,1.978,1.049c0.178,0.385,0.26,1.211,0.249,2.21l-0.729-1.223l0.231,1.19
				C-16.858,10.197-17.246,9.311-17.565,8.212"/>
		</g>
		<g id="g5483" transform="matrix(7.8459447,0,0,-7.8459447,258.06254,424.35091)">
			<path id="path5485" fill="#FFFFFF" d="M-22.488,11.188l0.753,0.371l0.628-0.558l-0.123,0.83l0.725,0.422l-0.828,0.141
				l-0.178,0.819l-0.388-0.744l-0.836,0.085l0.587-0.6L-22.488,11.188z"/>
		</g>
		<g id="g5487" transform="matrix(7.8459447,0,0,-7.8459447,135.55288,448.45177)">
			<path id="path5489" fill="#FFFFFF" d="M-15.341,12.593l0.496,0.245l0.412-0.368l-0.08,0.546l0.476,0.278l-0.544,0.094
				l-0.117,0.538l-0.256-0.488l-0.55,0.054l0.387-0.394L-15.341,12.593z"/>
		</g>
		<g id="g5491" transform="matrix(7.8459447,0,0,-7.8459447,362.00097,433.67566)">
			<path id="path5493" fill="#FFFFFF" d="M-28.551,11.731c-0.094,0.049-0.189,0.096-0.289,0.14c1.528-0.453,2.558-1.043,3.135-1.492
				c-0.089-0.131-0.188-0.257-0.29-0.381C-26.701,10.733-27.565,11.33-28.551,11.731 M-23.843,3.174l-0.005,0.1
				c0.083,0.411,0.129,0.824,0.144,1.231c0.108,0.029,0.219,0.051,0.33,0.072C-23.494,4.07-23.642,3.611-23.843,3.174
				 M-23.205,5.854c-0.199-0.026-0.384-0.055-0.567-0.094c-0.041,0.295-0.1,0.588-0.175,0.876c0.198,0.167,0.388,0.336,0.581,0.517
				C-23.256,6.728-23.21,6.329-23.205,5.854 M-23.887,8.364c-0.17-0.183-0.333-0.344-0.501-0.496
				c-0.185,0.399-0.402,0.78-0.652,1.141c0.131,0.158,0.257,0.32,0.375,0.491C-24.345,9.147-24.068,8.734-23.887,8.364"/>
		</g>
		<g id="g5495" transform="matrix(7.8459447,0,0,-7.8459447,361.28536,170.37831)">
			<path id="path5497" fill="#0E1F24" d="M-28.509-3.628c0-0.109-0.056-0.16-0.132-0.15c-0.062,0.009-0.246,0.028-0.368,0.044
				c-0.083,0.011-0.133,0.033-0.133,0.187v2.312c0,0.122,0.061,0.159,0.147,0.15c0.085-0.009,0.231-0.039,0.317-0.051
				c0.086-0.013,0.169-0.031,0.169-0.14V-3.628z M-28.254-0.477c-0.267,0.047-1.23,0.206-1.292,0.204
				c-0.516-0.016-0.578-0.429-0.578-0.562v-2.759c0-0.587,0.503-0.727,0.654-0.743c0.299-0.032,1.085-0.14,1.349-0.168
				c0.279-0.029,0.586,0.159,0.586,0.545v2.742C-27.535-1.086-27.578-0.598-28.254-0.477"/>
		</g>
		<g id="g5499" transform="matrix(7.8459447,0,0,-7.8459447,273.16837,113.88688)">
			<path id="path5501" fill="#0E1F24" d="M-23.369-6.923c-0.533,0.045-1.818,0.089-1.818,0.089v-4.182l1.001-0.036v3.449
				c0,0,0.199-0.006,0.401-0.016c0.202-0.01,0.263-0.093,0.263-0.196v-3.261l0.993-0.06c0,0,0,3.251,0,3.497
				C-22.528-7.409-22.69-6.98-23.369-6.923"/>
		</g>
		<g id="g5503" transform="matrix(7.8459447,0,0,-7.8459447,224.69298,139.77598)">
			<path id="path5505" fill="#0E1F24" d="M-20.541-5.413l-0.668-0.002v1.002c0.002,0.08,0.065,0.188,0.279,0.188h0.389V-5.413z
				 M-21.432-3.509c-0.489,0-0.774-0.225-0.774-0.74c0-0.247,0.003-3.442,0.003-3.442l0.994,0.007v1.641l0.668,0.003v-1.653
				l1.003-0.004v4.169c0,0-0.798,0.019-1.061,0.019H-21.432z"/>
		</g>
		<g id="g5507" transform="matrix(7.8459447,0,0,-7.8459447,193.56812,153.74804)">
			<path id="path5509" fill="#0E1F24" d="M-18.726-4.598l-0.797-0.022l-0.196-0.693l-0.266-0.01v3.526l-0.997-0.056v-4.148
				c0,0,0.412,0.021,1.125,0.042c0.721,0.021,1.13,0.03,1.13,0.03V-4.598z"/>
		</g>
		<g id="g5511" transform="matrix(7.8459447,0,0,-7.8459447,136.22914,142.02181)">
			<path id="path5513" fill="#0E1F24" d="M-15.381-5.282c-0.201-0.026-0.439-0.044-0.439-0.044v1.085
				c0.112,0.014,0.311,0.035,0.422,0.045c0.204,0.017,0.223-0.122,0.223-0.176c0-0.047-0.001-0.685,0-0.699v-0.004
				C-15.174-5.076-15.18-5.256-15.381-5.282 M-14.174-5.852h-0.001c0.014,0.139-0.075,0.33-0.244,0.382
				c0.11,0.056,0.234,0.212,0.235,0.389v1.064c0,0.263-0.207,0.604-0.668,0.579c-0.528-0.028-1.959-0.187-1.959-0.187v-4.1
				l0.991,0.084v1.68c0.114,0.014,0.444,0.048,0.47,0.05c0.144,0.01,0.184-0.077,0.184-0.118v-1.564l0.992,0.066v0.002V-5.852z"/>
		</g>
		<g id="g5515" transform="matrix(7.8459447,0,0,-7.8459447,92.222047,169.66464)">
			<path id="path5517" fill="#0E1F24" d="M-12.814-3.67c-0.063-0.011-0.252-0.036-0.373-0.046c-0.093-0.008-0.138,0.101-0.138,0.15
				c0,0.026-0.002,2.326-0.002,2.326c0,0.045,0.022,0.127,0.11,0.144c0.091,0.016,0.281,0.044,0.375,0.061
				c0.086,0.016,0.146-0.068,0.146-0.121c0-0.098,0.003-2.292,0.003-2.354C-12.693-3.571-12.728-3.655-12.814-3.67 M-12.318-0.254
				c-0.116,0-1.02-0.114-1.287-0.165c-0.204-0.04-0.71-0.216-0.696-0.762v-2.812c0-0.237,0.132-0.546,0.547-0.502
				c0.126,0.014,1.04,0.139,1.376,0.168c0.51,0.044,0.678,0.438,0.667,0.719v2.807C-11.71-0.254-12.228-0.254-12.318-0.254"/>
		</g>
		<g id="g5519" transform="matrix(7.8459447,0,0,-7.8459447,316.87028,165.76238)">
			<path id="path5521" fill="#0E1F24" d="M-25.918-3.897c-0.016-0.081-0.086-0.108-0.198-0.099l-0.464,0.041v2.707
				c0,0,0.246-0.025,0.418-0.045c0.162-0.018,0.224-0.075,0.244-0.155V-3.897z M-25.682-0.582c-0.234,0.041-1.887,0.194-1.887,0.194
				V-4.56c0,0,1.527-0.123,1.884-0.156c0.358-0.034,0.757,0.091,0.757,0.579v2.759C-24.928-0.783-25.357-0.639-25.682-0.582"/>
		</g>
	</g>
</g>
</svg>
