<?xml version="1.0" encoding="utf-8"?>
<!-- Generator: Adobe Illustrator 19.1.0, SVG Export Plug-In . SVG Version: 6.00 Build 0)  -->
<svg version="1.1" id="Layer_1" xmlns="http://www.w3.org/2000/svg" xmlns:xlink="http://www.w3.org/1999/xlink" x="0px" y="0px"
	 viewBox="0 0 400 400" enable-background="new 0 0 400 400" xml:space="preserve">
<g id="layer1" transform="translate(-133.33682,-210.14372)">
	<g id="g47425" transform="matrix(20.524254,0,0,-20.524254,-9661.7066,6160.2969)">
		<path id="path14497" fill="#EC1E50" d="M479.628,274.499h14.739v14.71h-14.739V274.499z"/>
		<path id="path14499" fill="#0768B1" d="M479.628,271.146h14.739v2.813h-14.739V271.146z"/>
		<g id="g14505" transform="translate(502.725,264.4746)">
			<path id="path14507" fill="#A8AAAD" d="M-8.357,10.024h-0.202h-14.342h-0.195v14.71h14.739V10.024z M-23.097,6.672v2.813v0.001
				h0.195h14.342h0.202V9.485V6.672H-23.097L-23.097,6.672z M-8.182,25.083h-15.089c-0.046,0-0.091-0.018-0.123-0.051
				c-0.033-0.032-0.051-0.078-0.051-0.123V6.497c0-0.047,0.019-0.092,0.051-0.124c0.032-0.033,0.077-0.051,0.123-0.051h15.089
				c0.046,0,0.091,0.019,0.123,0.051c0.032,0.032,0.051,0.077,0.051,0.124v18.412c0,0.046-0.019,0.091-0.051,0.123
				C-8.091,25.065-8.137,25.083-8.182,25.083"/>
		</g>
		<g id="g14509" transform="translate(490.4181,287.8815)">
			<path id="path14511" fill="#0768B1" d="M-3.387,0.572c-3.644,0-6.6-2.954-6.6-6.598c0-3.645,2.955-6.599,6.6-6.599
				c3.644,0,6.599,2.955,6.599,6.599C3.211-2.382,0.256,0.572-3.387,0.572"/>
		</g>
		<g id="g14513" transform="translate(495.7422,271.8822)">
			<path id="path14515" fill="#FFFFFF" d="M-5.537,7.032c0.365-0.554,0.679-1.081,0.922-1.561C-5.696,4.486-7.268,3.852-8.806,3.89
				c-0.018,1.364,0.625,2.683,1.058,3.272c-0.069,0.049-0.11,0.092-0.173,0.169c-0.45-0.584-1.219-1.965-1.2-3.427
				c-1.813,0.12-3.409,1.034-4.443,2.399c0.537,0.175,1.074,0.385,1.607,0.629c-0.054,0.053-0.203,0.106-0.29,0.131
				c-0.486-0.212-0.977-0.396-1.467-0.547c-0.644,0.93-1.037,2.05-1.076,3.257c0.375-0.089,0.806-0.106,1.293-0.065l0,0.267
				c-0.484-0.041-0.928-0.027-1.296,0.061c0.019,1.887,0.898,3.565,2.262,4.668c0.837-0.531,2.138-1.749,3.355-3.081
				c-0.058-0.073-0.139-0.14-0.163-0.169l0.251-0.133c1.22,1.006,2.221,2.587,2.415,4.384c1.055-0.376,1.975-1.032,2.671-1.882
				c-1.039-1.497-2.482-2.998-4.125-4.278c0.01-0.088,0.052-0.17,0.101-0.219c1.653,1.276,3.113,2.77,4.196,4.275
				c0.683-0.916,1.11-2.029,1.187-3.24c-1.521-0.155-2.558-0.663-3.319-1.15c0.01-0.054,0.124-0.144,0.192-0.154
				c0.725,0.459,1.709,0.926,3.135,1.073c0.001-0.052,0.006-0.106,0.006-0.159c0-1.671-0.673-3.187-1.762-4.286
				c-0.26,0.476-0.579,0.99-0.939,1.524l-0.203-0.192"/>
		</g>
		<g id="g14517" transform="translate(489.9792,279.8365)">
			<path id="path14519" fill="#FFFFFF" d="M-3.21,3.82c-1.251,1.365-2.471,2.516-3.333,3.1c1.008,0.742,2.248,1.181,3.595,1.181
				c0.617,0,1.213-0.092,1.773-0.263C-1.334,6.236-2.161,4.801-3.21,3.82"/>
		</g>
		<g id="g14521" transform="translate(485.0269,282.9667)">
			<path id="path14523" fill="#0768B1" d="M-1.21,2.557l0.048-0.152h0.163l-0.132-0.096l0.048-0.15L-1.21,2.251l-0.127-0.092
				l0.048,0.15l-0.132,0.095h0.162L-1.21,2.557z"/>
		</g>
		<g id="g14525" transform="translate(486.6294,282.0345)">
			<path id="path14527" fill="#0768B1" d="M-1.857,2.933l0.048-0.152h0.162l-0.132-0.095l0.048-0.15l-0.127,0.093l-0.128-0.093
				l0.048,0.15l-0.132,0.095h0.163L-1.857,2.933z"/>
		</g>
		<g id="g14529" transform="translate(485.9423,282.7542)">
			<path id="path14531" fill="#0768B1" d="M-1.58,2.642l0.048-0.152h0.163l-0.132-0.096l0.048-0.15l-0.126,0.092l-0.127-0.092
				l0.048,0.15L-1.791,2.49h0.163L-1.58,2.642z"/>
		</g>
		<g id="g14533" transform="translate(486.8898,281.1519)">
			<path id="path14535" fill="#0768B1" d="M-1.963,3.289l0.048-0.152h0.163l-0.131-0.096l0.048-0.15l-0.127,0.092l-0.127-0.092
				l0.048,0.15l-0.132,0.096h0.162L-1.963,3.289z"/>
		</g>
		<g id="g14537" transform="translate(486.7758,280.2202)">
			<path id="path14539" fill="#0768B1" d="M-1.917,3.666l0.049-0.151h0.161l-0.132-0.097l0.049-0.15L-1.916,3.36l-0.127-0.094
				l0.048,0.151l-0.132,0.097h0.162L-1.917,3.666z"/>
		</g>
		<g id="g14541" transform="translate(486.2607,279.4755)">
			<path id="path14543" fill="#0768B1" d="M-1.708,3.966l0.048-0.151h0.163l-0.132-0.097l0.048-0.15l-0.126,0.092l-0.128-0.092
				l0.048,0.15L-1.92,3.815h0.163L-1.708,3.966z"/>
		</g>
		<g id="g14545" transform="translate(485.4517,279.0599)">
			<path id="path14547" fill="#0768B1" d="M-1.382,4.134l0.049-0.152h0.162l-0.132-0.096l0.048-0.15l-0.126,0.093l-0.128-0.093
				l0.048,0.151l-0.132,0.096h0.163L-1.382,4.134z"/>
		</g>
		<g id="g14549" transform="translate(483.3974,282.1165)">
			<path id="path14551" fill="#0768B1" d="M-0.552,2.9l-0.049-0.151h-0.162l0.131-0.097l-0.048-0.15l0.127,0.092l0.128-0.092
				l-0.049,0.15l0.133,0.097h-0.163L-0.552,2.9z"/>
		</g>
		<g id="g14553" transform="translate(484.0669,282.7542)">
			<path id="path14555" fill="#0768B1" d="M-0.823,2.642L-0.871,2.49h-0.162l0.131-0.096l-0.048-0.15l0.126,0.092l0.128-0.092
				l-0.048,0.15l0.132,0.096h-0.163L-0.823,2.642z"/>
		</g>
		<g id="g14557" transform="translate(483.0862,281.2671)">
			<path id="path14559" fill="#0768B1" d="M-0.427,3.243l-0.048-0.152h-0.163l0.132-0.096l-0.048-0.151l0.126,0.093l0.128-0.093
				l-0.048,0.151l0.132,0.096h-0.163L-0.427,3.243z"/>
		</g>
		<g id="g14561" transform="translate(483.1685,280.3345)">
			<path id="path14563" fill="#0768B1" d="M-0.46,3.619l-0.049-0.152H-0.67l0.131-0.096l-0.048-0.15l0.126,0.092l0.128-0.092
				l-0.049,0.15l0.132,0.096h-0.162L-0.46,3.619z"/>
		</g>
		<g id="g14565" transform="translate(483.6833,279.5736)">
			<path id="path14567" fill="#0768B1" d="M-0.668,3.927l-0.048-0.152h-0.163l0.132-0.097L-0.795,3.53l0.126,0.092L-0.54,3.53
				l-0.048,0.15l0.132,0.095h-0.162L-0.668,3.927z"/>
		</g>
		<g id="g14569" transform="translate(484.4928,279.0914)">
			<path id="path14571" fill="#0768B1" d="M-0.994,4.121l-0.048-0.152h-0.163l0.132-0.095l-0.048-0.15l0.126,0.092l0.128-0.092
				l-0.049,0.151l0.132,0.094h-0.163L-0.994,4.121z"/>
		</g>
		<g id="g14573" transform="translate(487.105,272.7885)">
			<path id="path14575" fill="#0768B1" d="M-2.049,6.667c-0.305-0.169-0.583-0.315-0.892-0.465
				c-0.015,0.063-0.035,0.172-0.035,0.245c0.277,0.135,0.554,0.278,0.828,0.43C-2.115,6.804-2.084,6.735-2.049,6.667"/>
		</g>
		<g id="g14577" transform="translate(479.4469,261.2828)">
			<path id="path14579" fill="#FFFFFF" d="M1.043,11.313c0.087,0,0.164-0.006,0.24,0.051c0.065,0.045,0.113,0.139,0.113,0.228
				c0,0.14-0.079,0.182-0.192,0.182c-0.138,0-0.138-0.034-0.159-0.171l-0.044-0.291H1.043z M0.927,10.821
				c-0.011-0.072,0.077-0.084,0.142-0.084l-0.026-0.165H0.436l0.025,0.165h0.035c0.021,0.004,0.061,0.014,0.079,0.026
				c0.055,0.036,0.06,0.108,0.07,0.17l0.114,0.754c0.011,0.069-0.058,0.088-0.137,0.088l0.025,0.165h0.588
				c0.09,0,0.216,0,0.302-0.032c0.121-0.044,0.185-0.155,0.185-0.3c0-0.159-0.076-0.311-0.197-0.387
				c-0.125-0.076-0.273-0.081-0.411-0.081H0.973L0.927,10.821z"/>
		</g>
		<g id="g14581" transform="translate(481.111,260.4641)">
			<path id="path14583" fill="#FFFFFF" d="M0.371,11.644c-0.011-0.076,0.073-0.09,0.143-0.088L0.488,11.39h-0.624l0.026,0.165h0.042
				c0.019,0.002,0.06,0.014,0.079,0.026c0.053,0.037,0.06,0.108,0.069,0.171l0.114,0.753c0.011,0.07-0.058,0.083-0.109,0.088H0.051
				l0.024,0.165H0.7l-0.026-0.165c-0.049,0.002-0.067,0-0.109-0.02c-0.064-0.034-0.069-0.107-0.079-0.177l-0.028-0.185h0.442
				l0.042,0.294c0.011,0.074-0.07,0.088-0.135,0.088l0.024,0.165h0.612l-0.024-0.165c-0.044,0.002-0.064-0.002-0.103-0.02
				c-0.063-0.034-0.07-0.107-0.08-0.177L1.121,11.64c-0.01-0.07,0.076-0.084,0.136-0.084L1.231,11.39H0.62l0.024,0.165h0.035
				c0.021,0.002,0.061,0.014,0.079,0.026c0.055,0.037,0.06,0.108,0.07,0.171l0.044,0.287H0.429L0.371,11.644z"/>
		</g>
		<g id="g14585" transform="translate(483.7772,260.0392)">
			<path id="path14587" fill="#FFFFFF" d="M-0.705,11.815h-0.616l0.024,0.165c0.042,0,0.076,0.005,0.107,0.02
				c0.063,0.03,0.07,0.109,0.08,0.177l0.113,0.753c0.011,0.07-0.058,0.083-0.109,0.088h-0.031l0.025,0.165h0.619l-0.027-0.165
				c-0.037,0-0.07-0.005-0.1-0.02c-0.063-0.03-0.07-0.109-0.081-0.176l-0.112-0.758c-0.011-0.07,0.073-0.084,0.134-0.086
				L-0.705,11.815z"/>
		</g>
		<g id="g14589" transform="translate(485.7383,260.0392)">
			<path id="path14591" fill="#FFFFFF" d="M-1.498,11.815h-1.045l0.024,0.165c0.037,0,0.07,0.005,0.1,0.02
				c0.064,0.03,0.07,0.109,0.081,0.177l0.113,0.753c0.011,0.07-0.058,0.088-0.132,0.088l0.024,0.165h0.628l-0.025-0.165
				c-0.051,0-0.07,0-0.111-0.02c-0.065-0.034-0.07-0.107-0.08-0.176l-0.119-0.776c-0.007-0.048,0.064-0.066,0.095-0.066
				c0.122,0,0.215,0.044,0.317,0.124c0.1,0.079,0.137,0.139,0.215,0.256l0.122-0.075L-1.498,11.815z"/>
		</g>
		<g id="g14593" transform="translate(487.2112,261.8526)">
			<path id="path14595" fill="#FFFFFF" d="M-2.092,11.083l-0.215-0.437h0.289L-2.092,11.083z M-1.652,10.383
				c0.007-0.038,0.023-0.11,0.037-0.144c0.021-0.053,0.061-0.057,0.106-0.069l0.021-0.004l-0.025-0.165h-0.621l0.026,0.165h0.032
				c0.044,0.01,0.141,0.014,0.125,0.078l-0.041,0.243h-0.39l-0.088-0.188c-0.011-0.024-0.02-0.043-0.02-0.07
				c0-0.059,0.1-0.057,0.136-0.063l-0.027-0.165H-2.89l0.024,0.165c0.169,0.036,0.196,0.132,0.27,0.279l0.476,0.924h0.263
				L-1.652,10.383z"/>
		</g>
		<g id="g14597" transform="translate(489.0674,260.5243)">
			<path id="path14599" fill="#FFFFFF" d="M-2.842,11.619c-0.002-0.014-0.005-0.034-0.005-0.048c0-0.066,0.084-0.076,0.125-0.076
				c0.314,0,0.471,0.356,0.471,0.674c0,0.23-0.088,0.364-0.297,0.364c-0.039,0-0.108-0.004-0.139-0.033
				c-0.028-0.027-0.033-0.09-0.039-0.128l-0.109-0.704L-2.842,11.619z M-2.578,12.698c0.147,0,0.316,0.007,0.443-0.091
				c0.142-0.11,0.193-0.283,0.193-0.471c0-0.24-0.088-0.491-0.253-0.639c-0.183-0.164-0.412-0.167-0.635-0.167h-0.505l0.029,0.165
				c0.033-0.002,0.067,0.005,0.097,0.02c0.063,0.03,0.07,0.109,0.08,0.177l0.113,0.753c0.011,0.07-0.058,0.084-0.132,0.088
				l0.024,0.165H-2.578z"/>
		</g>
		<g id="g14601" transform="translate(492.188,260.0392)">
			<path id="path14603" fill="#FFFFFF" d="M-4.102,11.815h-1.121l0.024,0.165c0.036-0.002,0.07,0.005,0.099,0.02
				c0.061,0.03,0.07,0.109,0.08,0.177l0.114,0.753c0.004,0.029-0.004,0.044-0.024,0.06c-0.025,0.02-0.065,0.028-0.095,0.028
				L-5,13.184h1.023l0.099-0.444l-0.123-0.047c-0.08,0.203-0.211,0.326-0.411,0.326c-0.042,0-0.123-0.005-0.157-0.04
				c-0.034-0.037-0.042-0.113-0.049-0.161l-0.03-0.186h0.125c0.082,0,0.128,0.116,0.146,0.211h0.128l-0.094-0.607h-0.126v0.054
				c0,0.154-0.065,0.169-0.203,0.169l-0.06-0.4c-0.011-0.072,0.092-0.078,0.137-0.078c0.253,0,0.404,0.143,0.574,0.358l0.116-0.071
				L-4.102,11.815z"/>
		</g>
		<g id="g14605" transform="translate(494.2516,260.0392)">
			<path id="path14607" fill="#FFFFFF" d="M-4.935,11.815h-1.046l0.023,0.165c0.037,0,0.071,0.005,0.102,0.02
				c0.063,0.03,0.07,0.109,0.081,0.177l0.113,0.753c0.01,0.07-0.058,0.088-0.132,0.088l0.023,0.165h0.628l-0.025-0.165
				c-0.052,0-0.07,0-0.111-0.02c-0.065-0.034-0.07-0.107-0.081-0.176l-0.118-0.776c-0.007-0.048,0.063-0.066,0.095-0.066
				c0.122,0,0.216,0.044,0.318,0.124c0.1,0.079,0.137,0.139,0.214,0.256l0.121-0.075L-4.935,11.815z"/>
		</g>
		<g id="g14609" transform="translate(495.4661,261.2828)">
			<path id="path14611" fill="#FFFFFF" d="M-5.426,11.313c0.086,0,0.164-0.006,0.239,0.051c0.066,0.045,0.113,0.139,0.113,0.228
				c0,0.14-0.079,0.182-0.191,0.182c-0.138,0-0.138-0.034-0.159-0.171l-0.044-0.291H-5.426z M-5.542,10.821
				c-0.011-0.072,0.078-0.084,0.143-0.084l-0.027-0.165h-0.608l0.025,0.165h0.035c0.021,0.004,0.062,0.014,0.079,0.026
				c0.054,0.036,0.06,0.108,0.07,0.17l0.114,0.754c0.011,0.069-0.058,0.088-0.137,0.088l0.025,0.165h0.588
				c0.09,0,0.217,0,0.301-0.032c0.122-0.044,0.185-0.155,0.185-0.3c0-0.159-0.076-0.311-0.196-0.387
				c-0.125-0.076-0.273-0.081-0.411-0.081h-0.141L-5.542,10.821z"/>
		</g>
		<g id="g14613" transform="translate(497.1888,260.4641)">
			<path id="path14615" fill="#FFFFFF" d="M-6.122,11.644c-0.011-0.076,0.074-0.09,0.143-0.088l-0.027-0.165h-0.623l0.023,0.165
				h0.042c0.02,0.002,0.061,0.014,0.079,0.026c0.054,0.037,0.06,0.108,0.069,0.171l0.115,0.753c0.011,0.07-0.058,0.083-0.109,0.088
				h-0.034l0.025,0.165h0.626l-0.027-0.165c-0.049,0.002-0.067,0-0.109-0.02c-0.063-0.034-0.069-0.107-0.079-0.177l-0.028-0.185
				h0.443l0.042,0.294c0.011,0.074-0.07,0.088-0.135,0.088l0.025,0.165h0.611l-0.025-0.165c-0.044,0.002-0.064-0.002-0.102-0.02
				c-0.064-0.034-0.07-0.107-0.081-0.177l-0.113-0.757c-0.011-0.07,0.076-0.084,0.136-0.084l-0.026-0.165h-0.612l0.025,0.165h0.035
				c0.022,0.002,0.061,0.014,0.079,0.026c0.055,0.037,0.06,0.108,0.07,0.171l0.044,0.287h-0.444L-6.122,11.644z"/>
		</g>
		<g id="g14617" transform="translate(499.8543,260.0392)">
			<path id="path14619" fill="#FFFFFF" d="M-7.198,11.815h-0.616l0.024,0.165c0.043,0,0.076,0.005,0.109,0.02
				c0.063,0.03,0.069,0.109,0.08,0.177l0.113,0.753c0.011,0.07-0.058,0.083-0.109,0.088h-0.029l0.024,0.165h0.618l-0.026-0.165
				c-0.037,0-0.07-0.005-0.101-0.02c-0.063-0.03-0.071-0.109-0.081-0.176l-0.113-0.758c-0.011-0.07,0.073-0.084,0.134-0.086
				L-7.198,11.815z"/>
		</g>
		<g id="g14621" transform="translate(501.2795,261.8526)">
			<path id="path14623" fill="#FFFFFF" d="M-7.773,11.083l-0.214-0.437H-7.7L-7.773,11.083z M-7.333,10.383
				c0.007-0.038,0.022-0.11,0.037-0.144c0.022-0.053,0.062-0.057,0.107-0.069l0.02-0.004l-0.025-0.165h-0.621l0.026,0.165h0.032
				c0.044,0.01,0.141,0.014,0.125,0.078l-0.041,0.243h-0.391l-0.088-0.188c-0.01-0.024-0.019-0.043-0.019-0.07
				c0-0.059,0.101-0.057,0.136-0.063l-0.026-0.165h-0.509l0.025,0.165c0.169,0.036,0.195,0.132,0.27,0.279l0.476,0.924h0.264
				L-7.333,10.383z"/>
		</g>
		<g id="g14625" transform="translate(495.7773,272.2524)">
			<path id="path14627" fill="#0768B1" d="M-5.552,6.883h-0.893v0.225l0.161,0.025v0.699c0,0.251-0.034,0.369-0.21,0.369v0.198
				l0.634,0.185c0.072-0.141,0.095-0.302,0.105-0.463h0.007c0.063,0.191,0.142,0.458,0.35,0.458c0.181,0,0.262-0.14,0.262-0.311
				c0-0.173-0.076-0.315-0.209-0.315c-0.091,0-0.169,0.039-0.212,0.053c-0.116,0.039-0.154-0.465-0.154-0.57V7.132l0.16-0.025V6.883
				z"/>
		</g>
		<g id="g14629" transform="translate(498.295,274.5579)">
			<path id="path14631" fill="#0768B1" d="M-6.568,5.952c0-0.139-0.119-0.209-0.246-0.209c-0.154,0-0.262,0.125-0.29,0.275
				c-0.066,0-0.112-0.034-0.112-0.145c0-0.259,0.73-0.075,0.73-0.73c0-0.491-0.354-0.613-0.695-0.613
				c-0.209,0-0.571,0.027-0.571,0.344c0,0.143,0.079,0.253,0.222,0.253c0.223,0,0.261-0.204,0.298-0.348
				c0.011-0.038,0.044-0.045,0.075-0.045c0.117,0,0.202,0.049,0.202,0.126c0,0.295-0.75,0.181-0.75,0.818
				c0,0.407,0.479,0.59,0.71,0.59C-6.733,6.269-6.568,6.181-6.568,5.952"/>
		</g>
		<g id="g14633" transform="translate(489.2514,272.495)">
			<path id="path14635" fill="#0768B1" d="M-2.916,6.785c-0.318,0-0.305,0.407-0.305,0.878c0,0.47,0.045,0.877,0.305,0.877
				c0.32,0,0.336-0.407,0.336-0.877C-2.581,7.192-2.646,6.785-2.916,6.785 M-2.522,9.092c-0.284,0-0.576-0.113-0.729-0.352h-0.006
				l0.029,0.412c0.017,0.279,0.08,1.038,0.467,1.038c0.185,0,0.144-0.247,0.165-0.36c0.051-0.262,0.166-0.563,0.525-0.563
				c0.244,0,0.501,0.162,0.501,0.494c0,0.511-0.427,0.847-0.946,0.847c-1.333,0-1.867-1.017-1.867-2.248
				c0-1.069,0.415-1.992,1.56-1.992c0.744,0,1.346,0.529,1.346,1.418C-1.477,8.535-1.875,9.092-2.522,9.092"/>
		</g>
		<g id="g14637" transform="translate(482.5327,278.9433)">
			<path id="path14639" fill="#EC1E50" d="M-0.203,4.181V2.595c0.889-0.132,1.949-0.043,2.699,1.053
				c0.032,0.046,0.05,0.014,0.03-0.027C2.316,3.195,1.821,2.8,1.393,2.463c-0.412-0.323-1.516-1.481-1.501-2.5
				c0.001-0.077,0.004-0.057,0.072-0.005c0.335,0.249,0.992,0.256,1.395,0.064c0.056-0.026,0.061-0.018,0.054,0.054
				c-0.077,0.79,0.1,1.653,0.439,2.154C2.085,2.576,2.713,3.469,2.821,4.17c0.011,0.072-0.026,0.061-0.117-0.035
				C1.993,3.383,0.707,3.402-0.123,4.199C-0.176,4.249-0.199,4.226-0.203,4.181"/>
		</g>
		<g id="g14641" transform="translate(492.8196,274.1113)">
			<path id="path14643" fill="#0768B1" d="M-4.357,6.132c0,0.128,0,0.362,0.138,0.362c0.13,0,0.161-0.197,0.161-0.306
				c0-0.13-0.061-0.161-0.152-0.185l-0.148-0.041V6.132z M-3.983,5.352c-0.197,0-0.314,0.18-0.334,0.362l0.846,0.229
				C-3.494,6.354-3.734,6.72-4.184,6.72c-0.478,0-0.795-0.372-0.795-0.922c0-0.429,0.246-0.82,0.764-0.82
				c0.297,0,0.584,0.14,0.738,0.402l-0.167,0.198C-3.727,5.451-3.822,5.352-3.983,5.352"/>
		</g>
	</g>
</g>
</svg>
