<?xml version="1.0" encoding="utf-8"?>
<!-- Generator: Adobe Illustrator 19.1.0, SVG Export Plug-In . SVG Version: 6.00 Build 0)  -->
<svg version="1.1" id="Layer_1" xmlns="http://www.w3.org/2000/svg" xmlns:xlink="http://www.w3.org/1999/xlink" x="0px" y="0px"
	 viewBox="0 0 100 100" style="enable-background:new 0 0 100 100;" xml:space="preserve">
<style type="text/css">
	.st0{fill-rule:evenodd;clip-rule:evenodd;}
	.st1{fill-rule:evenodd;clip-rule:evenodd;fill:#737B84;}
	.st2{fill-rule:evenodd;clip-rule:evenodd;fill:#5F3581;}
	.st3{fill-rule:evenodd;clip-rule:evenodd;fill:#EDB62F;}
	.st4{fill-rule:evenodd;clip-rule:evenodd;fill:#D87A39;}
	.st5{fill-rule:evenodd;clip-rule:evenodd;fill:#B53C4B;}
	.st6{fill-rule:evenodd;clip-rule:evenodd;fill:#ECB230;}
	.st7{fill-rule:evenodd;clip-rule:evenodd;fill:#ECB231;}
	.st8{fill-rule:evenodd;clip-rule:evenodd;fill:#FFFFFF;}
</style>
<g>
	<path class="st0" d="M16.1,86.7l16.1-66.1c0,0,1.5-5.1,7.7-5.1c6.2,0,45.8,0,45.8,0L70,81.9c0,0-1.2,4.8-5.2,4.8
		C60.7,86.7,16.1,86.7,16.1,86.7L16.1,86.7z"/>
	<path class="st1" d="M17.5,85.9l15.8-65.3c0,0,1.5-5,7.5-5c6,0,44.8,0,44.8,0L70.3,81.2c0,0-1.2,4.7-5.1,4.7
		C61.2,85.8,17.5,85.9,17.5,85.9L17.5,85.9z"/>
	<path class="st2" d="M25.2,63l10.4-40.9c0,0,1.8-4.7,4.8-4.7c3,0,42.4,0,42.4,0l-10,41.7c0,0-1.5,3.8-4.4,3.8
		C65.4,62.9,25.2,63,25.2,63L25.2,63z"/>
	<polygon class="st0" points="29.6,50.5 46.1,36.4 43.5,35.2 47.7,33.4 44,29 51,29.2 50.7,21.5 58.7,26 62.4,20.2 65.7,27.1 
		73.4,24.3 69.8,31.7 78.8,34.6 71.7,39.7 74.6,46.2 68.1,45 64.8,55.3 60.5,49.1 39.5,61.9 54.5,49 34.3,61.8 48.3,48.8 26.7,61.4 
		45.7,44.7 28.2,55.3 46.8,39.2 29.6,50.5 	"/>
	<polygon class="st3" points="28.4,50.8 46.4,35.5 43.5,34.2 48.1,32.2 44,27.5 51.7,27.7 51.3,19.3 60,24.2 64.1,17.9 67.7,25.4 
		76,22.4 72.1,30.4 79,33.3 73.3,37.8 76.7,44.7 70.2,44.8 66.7,56.1 62,49.4 39.2,63.3 55.5,49.2 33.5,63.1 48.7,49 25.7,63.1 
		45.8,44.8 26.9,56.1 47.1,38.6 28.4,50.8 	"/>
	<path class="st4" d="M49.3,35.7c0,7,5.7,12.7,12.7,12.7c7,0,12.7-5.7,12.7-12.7C74.7,28.7,69,23,62,23C55,23,49.3,28.7,49.3,35.7
		L49.3,35.7z"/>
	<path class="st5" d="M64.2,45.4c-6.2,0-11.2-5-11.2-11.2c0-6.1,4.8-11,10.8-11.2c-0.6-0.1-1.2-0.1-1.9-0.1c-7,0-12.7,5.7-12.7,12.7
		S55,48.4,62,48.4c5.8,0,10.6-3.8,12.2-9.1C72.4,42.9,68.6,45.4,64.2,45.4L64.2,45.4z"/>
	<path class="st6" d="M60.7,23.8c0,0,6-1.4,10.8,4.4c4.8,5.8,1.3,12.7,1.3,12.7s0.9-8.4-2.6-12C66.7,25.2,64.7,24.4,60.7,23.8
		L60.7,23.8z"/>
	<path class="st7" d="M56.8,24.2c0,0,6.1-0.3,10.3,4.2c4.2,4.5,3.6,9.9,3.6,11.1c-0.1,3.4,0,7.7-3.9,8.4c0,0,2.3-2.5,2.5-8.2
		c0.2-5.7-0.6-8.4-2.5-10.5c-2-2.1-4-4.3-10.2-4.9L56.8,24.2L56.8,24.2z"/>
	<path class="st7" d="M51.1,29.1c0,0,1.5-2.6,5.2-2.5c3.7,0.2,6.4,0.4,7.5-2.5h0.3c0,0,0.8,0.9-0.8,2.1c-1.6,1.2-4.6,0.9-4.9,0.9
		S52.4,27.8,51.1,29.1L51.1,29.1z"/>
	<path class="st7" d="M52.4,43.8c0,0-1.5-1.6-1.5-2.2c0-0.5,3.7-6.5,5.9-8.2c2.2-1.7,7.3-7.1,14.5-6.2c0,0,0.3,0.5-0.1,0.7
		c-0.4,0.2-5.4-1-12.1,4.9C53.8,37.6,52.4,43.8,52.4,43.8L52.4,43.8z"/>
	<path class="st7" d="M57.7,47.8l-0.1-0.4c0,0,3.2-0.7,4.1-6.4c1.1-7.1,6.4-12.8,13.1-6.9c0,0,0.2,0.8,0,1.3
		c-0.2,0.5-0.6-0.4-0.6-0.4s-2.4-2.7-5.1-2.2c-2.9,0.6-4,1-5.6,7.4c-1.6,6.4-1.9,6.1-2.8,8.2C60.6,48.6,57.7,47.8,57.7,47.8
		L57.7,47.8z"/>
	<path class="st0" d="M57.1,23.9c0,0,5.3-0.4,9.6,4.1c4.2,4.5,3.6,9.9,3.6,11.1c-0.1,3.4-0.1,8-4,8.6c0,0,2.4-2.8,2.5-8.5
		c0.2-5.7-0.6-8.4-2.5-10.5c-2-2.1-3.6-4-9.8-4.5L57.1,23.9L57.1,23.9z"/>
	<path class="st0" d="M51.2,28.9c0,0,1.7-3.1,5.4-2.9c3.7,0.2,6.5,0.1,7.5-2.9h0.3c0,0,0.6,1.6-1,2.8c-1.6,1.2-4.6,0.8-4.9,0.8
		C58.4,26.8,52.5,27.6,51.2,28.9L51.2,28.9z"/>
	<path class="st0" d="M52,43.6c0,0-1.5-1.7-1.5-2.4c0-0.5,3.7-6.5,5.9-8.2c2.2-1.7,8.1-6.7,15.3-5.8c0,0,0.6,0.5,0.2,0.6
		c-0.4,0.2-6.3-1-13,4.9C53.5,37.4,52,43.6,52,43.6L52,43.6z"/>
	<path class="st0" d="M57.3,47.7l-0.2-0.4c0,0,3.2-1,4.1-6.6c1.1-7.1,6.8-12.6,13.5-6.8c0,0,0.2,0.8,0,1.3c-0.2,0.5-0.6-0.4-0.6-0.4
		s-2.7-2.7-5.4-2.2c-2.7,0.6-4.1,0.8-5.7,7.2c-1.6,6.4-2,6.3-2.9,8.4C60,48.5,57.3,47.7,57.3,47.7L57.3,47.7z"/>
	<path class="st0" d="M27.9,84h-9l1.1-3.1h5.6c0,0,0.7-0.2,0.8-1c0.2-0.7-0.1-1-0.8-1c-0.7,0-3.9,0-3.9,0s-1.7-0.1-1-2
		c0.7-1.9,1.3-3.9,1.3-3.9s0.3-1.1,1.5-1.1h9.1l-0.8,3H26c0,0-0.2,0-0.5,0.6c-0.3,0.6-0.1,1.1,0.8,1.1c0.8,0,3.7,0,3.7,0
		s1.4,0.2,1.1,1.6C31,79.8,30,82.7,30,82.7S29,84,27.9,84L27.9,84z"/>
	<path class="st0" d="M64.1,84h-9l1.1-3.1h5.6c0,0,0.7-0.2,0.8-1c0.2-0.7-0.1-1-0.8-1c-0.7,0-3.9,0-3.9,0s-1.7-0.1-1-2
		c0.7-1.9,1.3-3.9,1.3-3.9s0.3-1.1,1.5-1.1h9.1L68,75h-5.8c0,0-0.2,0-0.5,0.6c-0.3,0.6-0.1,1.1,0.8,1.1c0.8,0,3.7,0,3.7,0
		s1.4,0.2,1.1,1.6c-0.2,1.4-1.2,4.3-1.2,4.3S65.2,84,64.1,84L64.1,84z"/>
	<path class="st0" d="M38.5,72h-4L32,80.4c0,0-0.4,1.2-0.1,2.3c0.4,1.1,1.4,1.3,1.4,1.3h7.5l3.9-12h-4l-2.5,8.1c0,0-0.3,0.5-0.7,0.5
		c-0.4,0-1.1,0-1.1,0s-0.5-0.1-0.3-0.7C36.3,79.2,38.5,72,38.5,72L38.5,72z"/>
	<path class="st0" d="M49.3,84h4l2.4-8.4c0,0,0.4-1.2,0.1-2.3c-0.4-1.1-1.4-1.3-1.4-1.3h-7.5L43,84h4l2.5-8.1c0,0,0.3-0.5,0.7-0.5
		c0.4,0,1.1,0,1.1,0s0.5,0.1,0.3,0.7C51.5,76.8,49.3,84,49.3,84L49.3,84z"/>
	<path class="st8" d="M29.2,82.9h-9l1.1-3.1h5.6c0,0,0.7-0.2,0.8-1c0.2-0.7-0.1-1-0.8-1s-3.9,0-3.9,0s-1.7-0.1-1-2
		c0.7-1.9,1.3-3.9,1.3-3.9s0.3-1.1,1.5-1.1h9.1l-0.8,3h-5.8c0,0-0.2,0-0.5,0.6c-0.3,0.6-0.1,1.1,0.8,1.1c0.8,0,3.7,0,3.7,0
		s1.4,0.2,1.1,1.6c-0.2,1.4-1.2,4.3-1.2,4.3S30.2,82.9,29.2,82.9L29.2,82.9z"/>
	<path class="st8" d="M65.3,82.9h-9l1.1-3.1H63c0,0,0.7-0.2,0.8-1c0.2-0.7-0.1-1-0.8-1c-0.7,0-3.9,0-3.9,0s-1.7-0.1-1-2
		c0.7-1.9,1.3-3.9,1.3-3.9s0.3-1.1,1.5-1.1h9.1l-0.8,3h-5.8c0,0-0.2,0-0.5,0.6c-0.3,0.6-0.1,1.1,0.8,1.1c0.8,0,3.7,0,3.7,0
		s1.4,0.2,1.1,1.6c-0.2,1.4-1.2,4.3-1.2,4.3S66.4,82.9,65.3,82.9L65.3,82.9z"/>
	<path class="st8" d="M39.7,70.9h-4l-2.4,8.4c0,0-0.4,1.2-0.1,2.3c0.4,1.1,1.4,1.3,1.4,1.3h7.5l3.9-12h-4l-2.5,8.1
		c0,0-0.3,0.5-0.7,0.5c-0.4,0-1.1,0-1.1,0s-0.5-0.1-0.3-0.7C37.5,78.1,39.7,70.9,39.7,70.9L39.7,70.9z"/>
	<path class="st8" d="M50.5,82.9h4l2.4-8.4c0,0,0.4-1.2,0.1-2.3c-0.4-1.1-1.4-1.3-1.4-1.3h-7.5l-3.9,12h4l2.5-8.1
		c0,0,0.3-0.5,0.7-0.5c0.4,0,1.1,0,1.1,0s0.5,0.1,0.3,0.7C52.8,75.7,50.5,82.9,50.5,82.9L50.5,82.9z"/>
	<polygon class="st0" points="61.8,70 60,70 61.5,66 63.2,66 61.8,70 	"/>
	<polygon class="st0" points="67.8,67 68.9,66 70.6,66 70.4,66.7 68.7,68 69.4,69.3 69.3,70 67.9,70 67.3,68.9 66.3,70 64.6,70 
		64.7,69.5 66.4,67.9 65.4,66.4 65.5,66 67.3,66 67.8,67 	"/>
	<path class="st0" d="M57.4,66h-3.6l-1.4,4c0,0,1.5,0,1.7,0l1.2-3.1h1.2l-1,3.1h1.7l0.9-2.9C58,67.1,58.4,66,57.4,66L57.4,66z"/>
	<polygon class="st0" points="50.5,68.5 50.8,67.5 48.3,67.4 48.5,67 51,67 51.2,66 47,66 45.8,70 50.1,70 50.4,69 47.9,69 48,68.5 
		50.5,68.5 	"/>
	<polygon class="st0" points="34.6,68.5 34.2,70 35.6,70 36.8,66 35.3,66 34.9,67.5 33.4,67.4 33.8,66 32.2,66 31,70 32.6,70 
		33.1,68.5 34.6,68.5 	"/>
	<path class="st0" d="M28.5,66h-4.1l-1.1,4H25l0.4-1.1c0,0,1.3,0,2.2,0c0.9,0,1.1-0.4,1.1-0.4s0.5-1.4,0.5-2
		C29.3,66,28.5,66,28.5,66L28.5,66z M27.6,67.9h-2l0,0l0.2-0.8h2L27.6,67.9L27.6,67.9z"/>
	<path class="st0" d="M43.4,66h-3.1c-0.7,0-0.9,0.6-0.9,0.6s-0.6,1.5-0.9,2.3C38.2,69.8,39,70,39,70h3.4c0.5,0,0.9-0.7,0.9-0.7
		s0.6-1.7,0.8-2.4C44.4,66.3,43.4,66,43.4,66L43.4,66z M41.8,68.9h-1.7l0.7-1.9h1.7L41.8,68.9L41.8,68.9z"/>
	<polygon class="st8" points="62.4,69.3 60.6,69.3 62.1,65.3 63.8,65.3 62.4,69.3 	"/>
	<polygon class="st8" points="68.4,66.3 69.5,65.3 71.2,65.3 71,65.9 69.3,67.3 70.1,68.5 69.9,69.3 68.5,69.3 67.9,68.2 66.9,69.3 
		65.2,69.3 65.3,68.7 67,67.2 66,65.6 66.1,65.3 67.9,65.3 68.4,66.3 	"/>
	<path class="st8" d="M58,65.3h-3.6l-1.4,4c0,0,1.5,0,1.7,0l1.2-3.1h1.2l-1,3.1h1.7l0.9-2.9C58.7,66.3,59,65.3,58,65.3L58,65.3z"/>
	<polygon class="st8" points="51.1,67.7 51.4,66.7 49,66.7 49.1,66.2 51.6,66.2 51.9,65.3 47.7,65.3 46.4,69.3 50.7,69.3 51,68.2 
		48.5,68.2 48.6,67.7 51.1,67.7 	"/>
	<polygon class="st8" points="35.2,67.7 34.8,69.3 36.3,69.3 37.4,65.3 35.9,65.3 35.5,66.7 34,66.6 34.4,65.3 32.8,65.3 31.6,69.3 
		33.2,69.3 33.7,67.7 35.2,67.7 	"/>
	<path class="st8" d="M29.2,65.3H25l-1.1,4h1.7l0.4-1.1c0,0,1.3,0,2.2,0c0.9,0,1.1-0.4,1.1-0.4s0.5-1.4,0.5-2
		C29.9,65.2,29.2,65.3,29.2,65.3L29.2,65.3z M28.2,67.1h-2l0,0l0.2-0.8h2L28.2,67.1L28.2,67.1z"/>
	<path class="st8" d="M44.1,65.3H41c-0.7,0-1,0.6-1,0.6s-0.6,1.5-0.9,2.3c-0.3,0.8,0.5,1.1,0.5,1.1h3.4c0.5,0,0.9-0.7,0.9-0.7
		s0.6-1.7,0.8-2.4C45,65.5,44.1,65.3,44.1,65.3L44.1,65.3z M42.4,68.2h-1.7l0.7-1.9h1.7L42.4,68.2L42.4,68.2z"/>
</g>
</svg>
