<?xml version="1.0" encoding="utf-8"?>
<!-- Generator: Adobe Illustrator 19.1.0, SVG Export Plug-In . SVG Version: 6.00 Build 0)  -->
<svg version="1.1" id="Layer_1" xmlns="http://www.w3.org/2000/svg" xmlns:xlink="http://www.w3.org/1999/xlink" x="0px" y="0px"
	 viewBox="0 0 400 400" enable-background="new 0 0 400 400" xml:space="preserve">
<g>
	<polygon fill="#C4CED4" points="146.185,6.182 41.965,393.556 253.848,393.556 358.035,6.182 	"/>
	<polygon fill="#231F20" points="247.82,385.69 52.288,385.69 152.208,14.052 347.758,14.052 	"/>
	<path fill="#C4CED4" d="M198.853,194.948l6.516-6.537c-7.446-2.292-11.654-7.393-11.654-13.93c0-3.412,1.421-6.472,3.731-8.634
		l84.918-84.953h-4.75l-79.9,72.028l-6.847,6.171c-4.06,3.875-6.592,9.342-6.592,15.388c0,1.407,0.129,2.782,0.389,4.106
		C186.16,186.208,192.502,192.679,198.853,194.948"/>
	<path fill="#C4CED4" d="M188.965,204.831l6.425-6.435c-9.962-5.074-15.508-13.523-15.508-23.916c0-6.986,2.787-13.296,7.319-17.929
		l75.59-75.653h-4.37l-70.729,62.482c-0.977,0.782-7.013,6.296-7.81,7.254c-5.856,6.231-9.439,14.615-9.439,23.845
		c0,1.639,0.135,3.227,0.375,4.796C172.42,190.448,179.406,199.892,188.965,204.831"/>
	<path fill="#C4CED4" d="M178.892,214.895l6.537-6.513c-12.152-7.472-19.393-19.628-19.393-33.905
		c0-10.555,4.167-20.138,10.925-27.216l66.276-66.366h-4l-61.572,52.96c-1.963,1.574-7.176,6.407-8.796,8.324
		c-7.611,8.592-12.258,19.916-12.258,32.299c0,1.847,0.12,3.675,0.342,5.467C158.68,194.679,167.041,207.387,178.892,214.895"/>
	<path fill="#C4CED4" d="M168.809,224.983l6.639-6.639c-14.263-9.842-23.225-25.716-23.225-43.863
		c0-14.138,5.514-26.984,14.49-36.502l56.99-57.08h-3.676l-52.383,43.414c-2.94,2.37-7.342,6.528-9.772,9.421
		c-9.393,10.949-15.092,25.202-15.092,40.747c0,2.07,0.12,4.12,0.333,6.153C144.954,198.915,154.676,214.868,168.809,224.983"/>
	<path fill="#C4CED4" d="M129.238,181.305c1.963,21.841,13.077,41.053,29.489,53.76l6.74-6.726
		c-16.42-12.259-27.058-31.845-27.058-53.862c0-17.698,6.861-33.813,18.087-45.807l47.636-47.775h-3.296l-43.22,33.864
		c-3.912,3.143-7.509,6.666-10.731,10.513c-11.175,13.323-17.934,30.493-17.934,49.205
		C128.95,176.787,129.038,179.064,129.238,181.305"/>
	<path fill="#E13B3F" d="M213.998,155.32l-6.527,6.532c7.462,2.301,11.684,7.393,11.684,13.929c0,3.398-1.463,6.467-3.759,8.634
		l-84.904,84.967h4.736l79.928-72.032l6.833-6.171c4.064-3.88,6.592-9.356,6.592-15.397c0-1.412-0.129-2.782-0.398-4.106
		C226.683,164.038,220.359,157.575,213.998,155.32"/>
	<path fill="#E13B3F" d="M223.877,145.423l-6.426,6.444c9.99,5.083,15.508,13.523,15.508,23.915c0,6.967-2.777,13.296-7.296,17.916
		l-75.613,75.685h4.389l70.725-62.492c0.972-0.801,7.018-6.31,7.824-7.268c5.842-6.226,9.425-14.624,9.425-23.841
		c0-1.625-0.12-3.236-0.371-4.786C240.422,159.802,233.45,150.381,223.877,145.423"/>
	<path fill="#E13B3F" d="M233.96,135.354l-6.518,6.537c12.11,7.481,19.36,19.629,19.36,33.896c0,10.541-4.129,20.133-10.934,27.221
		l-66.248,66.376h4.019l61.554-52.973c1.945-1.583,7.166-6.417,8.777-8.314c7.648-8.606,12.277-19.907,12.277-32.308
		c0-1.856-0.12-3.699-0.361-5.462C254.171,155.589,245.802,142.872,233.96,135.354"/>
	<path fill="#E13B3F" d="M244.033,125.272l-6.63,6.652c14.286,9.842,23.23,25.716,23.23,43.858c0,14.134-5.527,26.989-14.508,36.507
		l-56.953,57.094h3.639l52.407-43.428c2.935-2.365,7.342-6.532,9.749-9.406c9.397-10.972,15.101-25.221,15.101-40.762
		c0-2.079-0.102-4.153-0.324-6.152C267.921,151.348,258.18,135.387,244.033,125.272"/>
	<path fill="#E13B3F" d="M283.605,168.954c-1.935-21.827-13.064-41.048-29.47-53.751l-6.749,6.722
		c16.425,12.268,27.082,31.836,27.082,53.862c0,17.693-6.898,33.808-18.091,45.826l-47.645,47.77h3.278l43.248-33.896
		c3.879-3.13,7.481-6.652,10.712-10.49c11.175-13.319,17.934-30.503,17.934-49.205C283.901,173.481,283.799,171.199,283.605,168.954
		"/>
	<g>
		<g>
			<defs>
				<polygon id="SVGID_1_" points="107.28,331.115 109.262,334.67 98.869,373.552 109.799,373.552 110.817,369.733 105.243,369.733 
					115.599,331.115 				"/>
			</defs>
			<clipPath id="SVGID_2_">
				<use xlink:href="#SVGID_1_"  overflow="visible"/>
			</clipPath>
			
				<linearGradient id="SVGID_3_" gradientUnits="userSpaceOnUse" x1="-321.8882" y1="-17.6705" x2="-314.2151" y2="-17.6705" gradientTransform="matrix(0 5.5556 -5.5556 0 9.0637 2119.3972)">
				<stop  offset="0" style="stop-color:#FFFFFF"/>
				<stop  offset="0.1461" style="stop-color:#FFFFFF"/>
				<stop  offset="0.2818" style="stop-color:#FAFBFC"/>
				<stop  offset="0.4423" style="stop-color:#EDEFF1"/>
				<stop  offset="0.6148" style="stop-color:#D4DBE0"/>
				<stop  offset="0.7079" style="stop-color:#C4CED4"/>
				<stop  offset="1" style="stop-color:#C4CED4"/>
			</linearGradient>
			<rect x="98.869" y="331.115" clip-path="url(#SVGID_2_)" fill="url(#SVGID_3_)" width="16.73" height="42.437"/>
		</g>
	</g>
	<g>
		<g>
			<defs>
				<path id="SVGID_4_" d="M139.32,338.476l-4.19,20.406h-3.185L139.32,338.476z M135.89,334.55l-14.583,38.988l5.425,0.014
					l3.778-10.773h3.88l-2.324,10.773h5.592l7.805-42.437h-11.342L135.89,334.55z"/>
			</defs>
			<clipPath id="SVGID_5_">
				<use xlink:href="#SVGID_4_"  overflow="visible"/>
			</clipPath>
			
				<linearGradient id="SVGID_6_" gradientUnits="userSpaceOnUse" x1="-321.8971" y1="-21.7688" x2="-314.2255" y2="-21.7688" gradientTransform="matrix(0 5.5561 -5.5561 0 12.4354 2119.6077)">
				<stop  offset="0" style="stop-color:#FFFFFF"/>
				<stop  offset="0.1461" style="stop-color:#FFFFFF"/>
				<stop  offset="0.2818" style="stop-color:#FAFBFC"/>
				<stop  offset="0.4423" style="stop-color:#EDEFF1"/>
				<stop  offset="0.6148" style="stop-color:#D4DBE0"/>
				<stop  offset="0.7079" style="stop-color:#C4CED4"/>
				<stop  offset="1" style="stop-color:#C4CED4"/>
			</linearGradient>
			<rect x="121.307" y="331.115" clip-path="url(#SVGID_5_)" fill="url(#SVGID_6_)" width="24.156" height="42.437"/>
		</g>
	</g>
	<g>
		<g>
			<defs>
				<polygon id="SVGID_7_" points="157.629,331.115 159.726,334.791 165.272,334.791 147.426,373.552 161.633,373.552 
					162.652,369.733 154.995,369.733 172.809,331.115 				"/>
			</defs>
			<clipPath id="SVGID_8_">
				<use xlink:href="#SVGID_7_"  overflow="visible"/>
			</clipPath>
			
				<linearGradient id="SVGID_9_" gradientUnits="userSpaceOnUse" x1="-321.9034" y1="-25.9462" x2="-314.2326" y2="-25.9462" gradientTransform="matrix(0 5.5567 -5.5567 0 15.9376 2119.8357)">
				<stop  offset="0" style="stop-color:#FFFFFF"/>
				<stop  offset="0.1461" style="stop-color:#FFFFFF"/>
				<stop  offset="0.2818" style="stop-color:#FAFBFC"/>
				<stop  offset="0.4423" style="stop-color:#EDEFF1"/>
				<stop  offset="0.6148" style="stop-color:#D4DBE0"/>
				<stop  offset="0.7079" style="stop-color:#C4CED4"/>
				<stop  offset="1" style="stop-color:#C4CED4"/>
			</linearGradient>
			<rect x="147.417" y="331.115" clip-path="url(#SVGID_8_)" fill="url(#SVGID_9_)" width="25.392" height="42.437"/>
		</g>
	</g>
	<g>
		<g>
			<defs>
				<path id="SVGID_10_" d="M183.313,331.115l2.055,3.555l-10.393,38.882h11.606l1.028-3.838h-6.259c0,0,4.018-15.013,4.514-16.823
					h5.601l1.037-3.824h-5.62l3.819-14.235h6.222l0.981-3.717H183.313z"/>
			</defs>
			<clipPath id="SVGID_11_">
				<use xlink:href="#SVGID_10_"  overflow="visible"/>
			</clipPath>
			
				<linearGradient id="SVGID_12_" gradientUnits="userSpaceOnUse" x1="-321.9034" y1="-30.0664" x2="-314.2326" y2="-30.0664" gradientTransform="matrix(0 5.5567 -5.5567 0 19.3673 2119.8357)">
				<stop  offset="0" style="stop-color:#FFFFFF"/>
				<stop  offset="0.1461" style="stop-color:#FFFFFF"/>
				<stop  offset="0.2818" style="stop-color:#FAFBFC"/>
				<stop  offset="0.4423" style="stop-color:#EDEFF1"/>
				<stop  offset="0.6148" style="stop-color:#D4DBE0"/>
				<stop  offset="0.7079" style="stop-color:#C4CED4"/>
				<stop  offset="1" style="stop-color:#C4CED4"/>
			</linearGradient>
			<rect x="174.975" y="331.115" clip-path="url(#SVGID_11_)" fill="url(#SVGID_12_)" width="22.924" height="42.437"/>
		</g>
	</g>
	<g>
		<g>
			<defs>
				<path id="SVGID_13_" d="M215.156,334.578c0,0,1.935-0.134,2.592,0.12c0.574,0.208,0.593,0.731,0.315,1.815l-2.629,9.842
					c-0.398,1.5-0.694,1.726-0.982,1.995c-0.342,0.31-1.083,0.717-2.731,0.717h-0.445L215.156,334.578z M217.155,331.115h-9.453
					l2.055,3.555l-10.409,38.91h5.365c0,0,4.997-18.744,5.544-20.688h0.444c1.028,0,1.731,0.102,2.129,0.444
					c0.361,0.315,0.5,0.884,0.232,1.949l-4.944,18.295h5.379l4.786-17.814c0.435-1.634,0.805-3.18-0.324-4.245
					c-0.408-0.361-0.935-0.523-0.935-0.523s0.509-0.148,1.232-0.537c0.463-0.255,0.981-0.602,1.379-1.093
					c0.296-0.421,0.583-0.842,0.852-1.847l2.805-10.458c0,0,0.101-0.343,0.12-0.389c0.379-1.486,0.787-3.25-0.898-4.435
					c-1.555-1.125-3.574-1.125-5.342-1.125H217.155z"/>
			</defs>
			<clipPath id="SVGID_14_">
				<use xlink:href="#SVGID_13_"  overflow="visible"/>
			</clipPath>
			
				<linearGradient id="SVGID_15_" gradientUnits="userSpaceOnUse" x1="-321.9133" y1="-34.0366" x2="-314.2449" y2="-34.0366" gradientTransform="matrix(0 5.5573 -5.5573 0 22.6235 2120.0835)">
				<stop  offset="0" style="stop-color:#FFFFFF"/>
				<stop  offset="0.1461" style="stop-color:#FFFFFF"/>
				<stop  offset="0.2818" style="stop-color:#FAFBFC"/>
				<stop  offset="0.4423" style="stop-color:#EDEFF1"/>
				<stop  offset="0.6148" style="stop-color:#D4DBE0"/>
				<stop  offset="0.7079" style="stop-color:#C4CED4"/>
				<stop  offset="1" style="stop-color:#C4CED4"/>
			</linearGradient>
			<rect x="199.349" y="331.115" clip-path="url(#SVGID_14_)" fill="url(#SVGID_15_)" width="24.853" height="42.47"/>
		</g>
	</g>
	<g>
		<g>
			<defs>
				<path id="SVGID_16_" d="M241.95,331.115h-6.962l1,1.769l0.824,1.5c-0.463,0.764-0.731,1.602-0.963,2.426l-0.537,1.963
					c-0.454,1.726-0.796,3.477-0.842,4.888c-0.055,1.421,0.37,3.157,0.842,4.402c0.445,1.245,3.083,7.736,3.278,8.662
					c0.167,0.931,0.343,1.542-0.287,3.93l-2.287,8.509c-0.259,0.986-0.417,1.528-2.083,1.528c-1.667,0-1.611-0.69-1.398-1.528
					l2.907-10.726l-5.407,0.014l-2.518,9.393c-0.407,1.532-0.648,3.074,0.241,4.287c0.852,1.152,2.62,1.689,5.416,1.689
					c6.12-0.009,7.722-2.861,8.546-5.916c0,0,1.648-6.116,2.064-7.657c0.713-2.667,0.528-3.893,0.259-5.319
					c-0.268-1.44-0.852-2.713-1.259-3.764l-1.963-5.046c-0.556-1.426-0.805-2.426-0.805-3.685c0-1.306,0.407-2.699,0.88-4.481
					l0.657-2.398c0.213-0.851,0.389-1.5,2.185-1.527c0.676,0,1.12,0.12,1.296,0.361c0.157,0.194,0.157,0.569-0.037,1.171
					l-2.287,8.569h5.379l1.945-7.235c0.37-1.454,0.703-3.088-0.194-4.301c-0.843-1.171-2.565-1.694-5.305-1.694
					C243.542,330.893,242.709,330.981,241.95,331.115"/>
			</defs>
			<clipPath id="SVGID_17_">
				<use xlink:href="#SVGID_16_"  overflow="visible"/>
			</clipPath>
			
				<linearGradient id="SVGID_18_" gradientUnits="userSpaceOnUse" x1="-321.9387" y1="-38.2607" x2="-314.2641" y2="-38.2607" gradientTransform="matrix(0 5.5587 -5.5587 0 26.1314 2120.646)">
				<stop  offset="0" style="stop-color:#FFFFFF"/>
				<stop  offset="0.1461" style="stop-color:#FFFFFF"/>
				<stop  offset="0.2818" style="stop-color:#FAFBFC"/>
				<stop  offset="0.4423" style="stop-color:#EDEFF1"/>
				<stop  offset="0.6148" style="stop-color:#D4DBE0"/>
				<stop  offset="0.7079" style="stop-color:#C4CED4"/>
				<stop  offset="1" style="stop-color:#C4CED4"/>
			</linearGradient>
			<rect x="226.877" y="330.893" clip-path="url(#SVGID_17_)" fill="url(#SVGID_18_)" width="23.869" height="42.928"/>
		</g>
	</g>
	<g>
		<g>
			<defs>
				<path id="SVGID_19_" d="M80.925,352.892h0.435c1.019,0,1.736,0.102,2.125,0.449c0.375,0.31,0.509,0.884,0.227,1.949
					L80.115,368.7c-0.203,0.685-0.389,1.046-0.796,1.273c-0.389,0.208-0.959,0.283-2.065,0.283h-1.018L80.925,352.892z
					 M85.833,334.578c0,0,1.912-0.134,2.556,0.12c0.602,0.208,0.625,0.731,0.347,1.815l-2.657,9.842
					c-0.389,1.5-0.671,1.726-0.949,1.995c-0.366,0.31-1.116,0.717-2.764,0.717h-0.421L85.833,334.578z M88.258,331.115h-9.744
					l1.917,3.583l-10.416,38.854h6.351c1.787,0,4.139,0.194,6.365-1.079c2.315-1.306,2.703-3.43,3.06-4.763l3.194-11.944
					c0.449-1.634,0.824-3.176-0.301-4.24c-0.403-0.361-0.931-0.523-0.931-0.523s0.491-0.153,1.231-0.541
					c0.463-0.255,0.945-0.597,1.347-1.093c0.329-0.421,0.607-0.842,0.875-1.843l2.884-10.819c0.032-0.106,0.074-0.241,0.12-0.347
					c0.361-1.379,0.643-2.981-0.922-4.12c-1.504-1.078-3.541-1.125-4.726-1.125C88.462,331.115,88.355,331.115,88.258,331.115"/>
			</defs>
			<clipPath id="SVGID_20_">
				<use xlink:href="#SVGID_19_"  overflow="visible"/>
			</clipPath>
			
				<linearGradient id="SVGID_21_" gradientUnits="userSpaceOnUse" x1="-321.902" y1="-13.8001" x2="-314.2295" y2="-13.8001" gradientTransform="matrix(0 5.5564 -5.5564 0 5.7607 2119.7314)">
				<stop  offset="0" style="stop-color:#FFFFFF"/>
				<stop  offset="0.1461" style="stop-color:#FFFFFF"/>
				<stop  offset="0.2818" style="stop-color:#FAFBFC"/>
				<stop  offset="0.4423" style="stop-color:#EDEFF1"/>
				<stop  offset="0.6148" style="stop-color:#D4DBE0"/>
				<stop  offset="0.7079" style="stop-color:#C4CED4"/>
				<stop  offset="1" style="stop-color:#C4CED4"/>
			</linearGradient>
			<rect x="70.019" y="331.115" clip-path="url(#SVGID_20_)" fill="url(#SVGID_21_)" width="24.841" height="42.632"/>
		</g>
	</g>
	<g>
		<g>
			<defs>
				<polygon id="SVGID_22_" points="225.016,285.368 214.609,324.255 225.544,324.255 226.562,320.449 220.988,320.449 
					231.34,281.831 223.025,281.803 				"/>
			</defs>
			<clipPath id="SVGID_23_">
				<use xlink:href="#SVGID_22_"  overflow="visible"/>
			</clipPath>
			
				<linearGradient id="SVGID_24_" gradientUnits="userSpaceOnUse" x1="-329.2436" y1="-35.8686" x2="-321.5631" y2="-35.8686" gradientTransform="matrix(0 5.5271 -5.5271 0 24.7252 2101.5093)">
				<stop  offset="0" style="stop-color:#FFFFFF"/>
				<stop  offset="0.1461" style="stop-color:#FFFFFF"/>
				<stop  offset="0.2818" style="stop-color:#FAFBFC"/>
				<stop  offset="0.4423" style="stop-color:#EDEFF1"/>
				<stop  offset="0.6148" style="stop-color:#D4DBE0"/>
				<stop  offset="0.7079" style="stop-color:#C4CED4"/>
				<stop  offset="1" style="stop-color:#C4CED4"/>
			</linearGradient>
			<rect x="214.609" y="281.803" clip-path="url(#SVGID_23_)" fill="url(#SVGID_24_)" width="16.73" height="42.451"/>
		</g>
	</g>
	<g>
		<g>
			<defs>
				<path id="SVGID_25_" d="M177.401,289.187l-4.171,20.411h-3.176L177.401,289.187z M174.003,285.247l-14.587,38.989l5.421,0.018
					l3.764-10.777l3.893-0.014c-0.417,2.097-2.352,10.791-2.352,10.791h5.606l7.819-42.424h-11.342L174.003,285.247z"/>
			</defs>
			<clipPath id="SVGID_26_">
				<use xlink:href="#SVGID_25_"  overflow="visible"/>
			</clipPath>
			
				<linearGradient id="SVGID_27_" gradientUnits="userSpaceOnUse" x1="-329.2954" y1="-27.7576" x2="-321.6257" y2="-27.7576" gradientTransform="matrix(0 5.5313 -5.5313 0 17.9559 2103.1887)">
				<stop  offset="0" style="stop-color:#FFFFFF"/>
				<stop  offset="0.1461" style="stop-color:#FFFFFF"/>
				<stop  offset="0.2818" style="stop-color:#FAFBFC"/>
				<stop  offset="0.4423" style="stop-color:#EDEFF1"/>
				<stop  offset="0.6148" style="stop-color:#D4DBE0"/>
				<stop  offset="0.7079" style="stop-color:#C4CED4"/>
				<stop  offset="1" style="stop-color:#C4CED4"/>
			</linearGradient>
			<rect x="159.416" y="281.831" clip-path="url(#SVGID_26_)" fill="url(#SVGID_27_)" width="24.151" height="42.424"/>
		</g>
	</g>
	<g>
		<g>
			<defs>
				<path id="SVGID_28_" d="M147.907,285.266c0,0,1.917-0.106,2.56,0.135c0.602,0.222,0.616,0.731,0.338,1.81l-2.648,9.861
					c-0.389,1.5-0.667,1.722-0.959,1.991c-0.361,0.315-1.106,0.718-2.754,0.718h-0.421L147.907,285.266z M149.884,281.831h-9.425
					l2.055,3.537l-10.43,38.914h5.342L143,303.575h0.439c1.028,0,1.764,0.101,2.13,0.463c0.356,0.301,0.509,0.884,0.199,1.935
					l-4.889,18.309h5.37l4.764-17.832c0.458-1.62,0.82-3.162-0.305-4.208c-0.408-0.375-0.931-0.556-0.931-0.556
					s0.486-0.12,1.213-0.523c0.482-0.274,0.959-0.584,1.366-1.097c0.329-0.417,0.602-0.852,0.87-1.843l2.801-10.457
					c0,0,0.107-0.347,0.12-0.403c0.389-1.472,0.778-3.222-0.898-4.426c-1.509-1.092-3.435-1.106-5.171-1.106
					C150.009,281.831,149.944,281.831,149.884,281.831"/>
			</defs>
			<clipPath id="SVGID_29_">
				<use xlink:href="#SVGID_28_"  overflow="visible"/>
			</clipPath>
			
				<linearGradient id="SVGID_30_" gradientUnits="userSpaceOnUse" x1="-329.215" y1="-23.5281" x2="-321.5426" y2="-23.5281" gradientTransform="matrix(0 5.5249 -5.5249 0 14.5124 2100.6282)">
				<stop  offset="0" style="stop-color:#FFFFFF"/>
				<stop  offset="0.1461" style="stop-color:#FFFFFF"/>
				<stop  offset="0.2818" style="stop-color:#FAFBFC"/>
				<stop  offset="0.4423" style="stop-color:#EDEFF1"/>
				<stop  offset="0.6148" style="stop-color:#D4DBE0"/>
				<stop  offset="0.7079" style="stop-color:#C4CED4"/>
				<stop  offset="1" style="stop-color:#C4CED4"/>
			</linearGradient>
			<rect x="132.08" y="281.831" clip-path="url(#SVGID_29_)" fill="url(#SVGID_30_)" width="24.846" height="42.451"/>
		</g>
	</g>
	<g>
		<g>
			<defs>
				<polygon id="SVGID_31_" points="201.58,285.368 191.182,324.255 196.562,324.255 207.906,281.831 199.603,281.803 				"/>
			</defs>
			<clipPath id="SVGID_32_">
				<use xlink:href="#SVGID_31_"  overflow="visible"/>
			</clipPath>
			
				<linearGradient id="SVGID_33_" gradientUnits="userSpaceOnUse" x1="-329.2436" y1="-32.1822" x2="-321.5631" y2="-32.1822" gradientTransform="matrix(0 5.5271 -5.5271 0 21.6744 2101.5093)">
				<stop  offset="0" style="stop-color:#FFFFFF"/>
				<stop  offset="0.1461" style="stop-color:#FFFFFF"/>
				<stop  offset="0.2818" style="stop-color:#FAFBFC"/>
				<stop  offset="0.4423" style="stop-color:#EDEFF1"/>
				<stop  offset="0.6148" style="stop-color:#D4DBE0"/>
				<stop  offset="0.7079" style="stop-color:#C4CED4"/>
				<stop  offset="1" style="stop-color:#C4CED4"/>
			</linearGradient>
			<rect x="191.182" y="281.803" clip-path="url(#SVGID_32_)" fill="url(#SVGID_33_)" width="16.733" height="42.451"/>
		</g>
	</g>
	<g>
		<g>
			<defs>
				<polygon id="SVGID_34_" points="114.071,281.831 116.197,285.535 118.654,285.535 108.285,324.255 113.65,324.255 
					124.029,285.535 128.112,285.535 129.834,281.831 				"/>
			</defs>
			<clipPath id="SVGID_35_">
				<use xlink:href="#SVGID_34_"  overflow="visible"/>
			</clipPath>
			
				<linearGradient id="SVGID_36_" gradientUnits="userSpaceOnUse" x1="-329.2151" y1="-19.5133" x2="-321.5369" y2="-19.5133" gradientTransform="matrix(0 5.5252 -5.5252 0 11.2401 2100.7405)">
				<stop  offset="0" style="stop-color:#FFFFFF"/>
				<stop  offset="0.1461" style="stop-color:#FFFFFF"/>
				<stop  offset="0.2818" style="stop-color:#FAFBFC"/>
				<stop  offset="0.4423" style="stop-color:#EDEFF1"/>
				<stop  offset="0.6148" style="stop-color:#D4DBE0"/>
				<stop  offset="0.7079" style="stop-color:#C4CED4"/>
				<stop  offset="1" style="stop-color:#C4CED4"/>
			</linearGradient>
			<rect x="108.285" y="281.831" clip-path="url(#SVGID_35_)" fill="url(#SVGID_36_)" width="21.541" height="42.424"/>
		</g>
	</g>
	<path fill="#E13B3F" d="M147.204,299.066c0.283-0.273,0.569-0.495,0.958-1.995l2.653-9.856c0.269-1.083,0.255-1.588-0.352-1.815
		c-0.643-0.241-2.56-0.148-2.56-0.148s-0.009,0.014-0.009,0.06c0.208,0.014,0.375,0.028,0.523,0.088
		c0.597,0.227,0.63,0.731,0.329,1.815l-2.653,9.856c-0.389,1.5-0.671,1.722-0.972,1.995c-0.18,0.166-1.065,0.523-1.065,0.523
		l-0.032,0.194h0.421C146.093,299.783,146.843,299.381,147.204,299.066 M106.22,324.255h2.064l10.37-38.734h-2.051L106.22,324.255z
		 M133.07,358.882h2.07l4.18-20.406l-4.796,13.258L133.07,358.882z M159.407,324.24l14.587-38.988l-1.769-3.435h-2.083l1.782,3.435
		l-14.592,38.988H159.407z M116.197,285.521l-2.125-3.704h-2.069l2.129,3.704H116.197z M132.08,324.268l10.43-38.901l-2.051-3.551
		h-2.055l2.042,3.551l-10.453,38.901H132.08z M145.57,304.024c-0.375-0.329-1.097-0.449-2.13-0.449h-0.449
		c0,0-0.046,0.134-0.046,0.18c0.227,0.074,0.421,0.148,0.583,0.269c0.333,0.328,0.482,0.898,0.181,1.93l-4.898,18.314h2.06
		l4.907-18.314C146.079,304.922,145.926,304.353,145.57,304.024 M235.312,348.063c-0.472-1.245-0.898-2.981-0.842-4.407
		c0.046-1.421,0.38-3.176,0.842-4.884l0.537-1.963c0.231-0.824,0.5-1.662,0.963-2.412l-1.815-3.282h-2.074l1.824,3.282
		c-0.454,0.75-0.75,1.588-0.963,2.426l-0.528,1.968c-0.463,1.708-0.796,3.458-0.842,4.879c-0.055,1.425,0.38,3.166,0.833,4.421
		c0.444,1.231,3.102,7.717,3.278,8.648c0.166,0.912,0.361,1.542-0.296,3.926l-2.268,8.513c-0.195,0.704-0.324,1.167-1.028,1.375
		c0.268,0.092,0.593,0.134,1,0.134c1.676-0.014,1.824-0.537,2.083-1.514l2.287-8.522c0.639-2.389,0.454-3,0.287-3.917
		C238.395,355.813,235.756,349.308,235.312,348.063 M168.091,324.255h2.065l2.338-10.791h-2.07L168.091,324.255z M191.182,324.255
		l10.398-38.887l-1.977-3.564h-2.069l1.995,3.564l-10.416,38.887H191.182z M243.552,330.939c-0.343-0.032-0.713-0.032-1.083-0.032
		c-0.917,0-1.75,0.092-2.482,0.208h1.963C242.441,331.027,242.978,330.967,243.552,330.939 M223.016,281.803h-2.055l1.972,3.564
		l-10.398,38.887h2.065l10.416-38.887L223.016,281.803z M217.748,334.698c-0.657-0.255-2.592-0.134-2.592-0.134v0.046
		c0.213,0.028,0.389,0.06,0.5,0.102c0.611,0.209,0.648,0.731,0.371,1.81l-2.667,9.847c-0.389,1.5-0.676,1.741-0.954,1.995
		c-0.213,0.181-0.528,0.389-1.102,0.523c0,0.074-0.028,0.181-0.028,0.181h0.435c1.648,0,2.398-0.407,2.74-0.722
		c0.287-0.255,0.574-0.495,0.991-1.991l2.62-9.847C218.35,335.43,218.322,334.906,217.748,334.698 M171.161,309.598h-1.111h3.18
		l4.181-20.411l-4.796,13.309L171.161,309.598z M88.388,334.698c-0.644-0.255-2.565-0.134-2.565-0.134l-0.028,0.046
		c0,0,0.398,0.06,0.537,0.102c0.583,0.209,0.629,0.731,0.342,1.81l-2.648,9.847c-0.407,1.5-0.676,1.741-0.977,1.995
		c-0.209,0.181-1.065,0.523-1.065,0.523l-0.047,0.181h0.412c1.657,0,2.407-0.407,2.768-0.722c0.283-0.255,0.569-0.495,0.959-1.991
		l2.652-9.847C89.004,335.43,88.985,334.906,88.388,334.698 M242.709,344.124l2.296-8.574c0.195-0.597,0.195-0.972,0.028-1.153
		c-0.167-0.255-0.611-0.375-1.287-0.375c-0.481,0.014-0.824,0.06-1.12,0.134c0.166,0.06,0.287,0.139,0.361,0.241
		c0.148,0.194,0.12,0.584-0.037,1.185l-2.277,8.541H242.709L242.709,344.124z M210.702,352.892h-0.444l-0.046,0.162
		c0,0,0.407,0.166,0.556,0.287c0.361,0.31,0.509,0.884,0.222,1.949l-4.926,18.295h2.064l4.935-18.314
		c0.268-1.046,0.129-1.62-0.232-1.944C212.433,352.979,211.73,352.892,210.702,352.892 M183.331,331.115h-2.055l2.037,3.565
		l-10.425,38.891h11.643v-0.018h-9.56l10.398-38.882L183.331,331.115z M227.757,372.131c-0.88-1.213-0.639-2.773-0.241-4.287
		l2.518-9.407h-2.046l-2.519,9.425c-0.389,1.495-0.657,3.069,0.222,4.268c0.843,1.171,2.621,1.708,5.407,1.694
		c0.38,0,0.741,0,1.084-0.014C229.96,373.686,228.507,373.136,227.757,372.131 M209.758,334.67l-2.046-3.551h-2.056l2.046,3.565
		l-10.423,38.9h2.069L209.758,334.67z M159.721,334.791l-2.092-3.671h-2.064l2.111,3.685L159.721,334.791z M163.208,334.804
		l-17.818,38.766l2.037-0.018l17.846-38.762L163.208,334.804z M70.019,373.552l10.411-38.84l-1.917-3.597h-2.07l1.921,3.625
		l-10.416,38.812H70.019z M81.36,352.892h-0.435l-0.06,0.162c0,0,0.421,0.166,0.569,0.287c0.361,0.31,0.509,0.884,0.208,1.949
		L78.032,368.7c-0.181,0.704-0.361,1.046-0.764,1.273c-0.236,0.134-1.019,0.255-1.019,0.255l-0.014,0.014h1.009
		c1.12,0,1.685-0.042,2.079-0.268c0.402-0.227,0.597-0.597,0.791-1.273l3.597-13.425c0.287-1.051,0.148-1.62-0.227-1.949
		C83.097,352.979,82.37,352.892,81.36,352.892 M107.29,331.115h-2.06l1.981,3.565l-10.416,38.891l2.069-0.018l10.398-38.882
		L107.29,331.115z M121.307,373.538l14.583-38.988l-1.769-3.43h-2.069l1.769,3.43l-14.578,39.002L121.307,373.538z M132.066,373.552
		l2.324-10.773l-2.07,0.014l-2.328,10.777L132.066,373.552z"/>
	<polygon fill="#FFFFFF" points="243.376,25.833 241.737,31.352 236.543,31.352 225.692,68.081 219.683,68.081 230.534,31.352 
		227.534,31.352 225.072,25.833 	"/>
	<path fill="#FFFFFF" d="M170.036,25.829h-10.518l2.699,5.134l-10.972,37.118h6.023l4.768-16.198h2.518
		c4.643,0,8.014-2.856,9.74-8.661l2.69-9.139C178.817,27.907,176.271,25.829,170.036,25.829 M170.744,34.921l-2.986,10.032
		c-0.537,1.875-2.472,1.875-4.217,1.875l4.712-15.953h1.079C171.373,30.87,171.596,32,170.744,34.921"/>
	<path fill="#FFFFFF" d="M193.775,25.018c-1.379,0-2.833,0.218-4.361,0.852h-7.745l2.648,5.032
		c-0.176,0.375-0.315,0.783-0.449,1.236l-8.764,29.674c-1.62,5.532,2.051,7.12,5.722,7.12c3.745,0,8.346-1.588,9.981-7.12
		l8.764-29.674C201.191,26.63,197.52,25.018,193.775,25.018 M193.4,32.676l-8.453,28.6c-0.63,2.138-1.375,2.615-2.56,2.615
		c-1.273,0-1.754-0.477-1.111-2.615l8.439-28.6c0.611-2.144,1.393-2.611,2.652-2.611C193.548,30.065,194.025,30.532,193.4,32.676"/>
	<path fill="#FFFFFF" d="M215.757,25.833h-12.02l2.622,5.004l-10.983,37.248h6.009l5.937-20.193
		c2.805-0.116,3.426,0.894,2.666,3.449c-2.546,8.559-4.981,16.744-4.981,16.744h6.009c0,0,1.694-5.879,5.231-18.101
		c1.084-3.819-1-4.37-1-4.37c2.963-1.181,3.083-2.565,4-5.708l2.009-6.838C222.886,27.611,220.6,25.833,215.757,25.833
		 M215.415,32.958l-2.408,8.069c-0.454,1.528-1.268,2.717-3.351,2.717h-1.12l3.833-12.874h1.407
		C215.128,30.87,215.906,31.347,215.415,32.958"/>
	<polygon fill="#FFFFFF" points="256.755,25.833 246.58,25.833 249.265,30.898 238.274,68.081 251.931,68.081 253.56,62.563 
		245.922,62.563 	"/>
	<path fill="#FFFFFF" d="M268.948,25.861l2.658,5.022l-14.999,37.197h5.425l4.685-11.443h4.241l-2.259,11.443h6.083l7.87-42.247
		L268.948,25.861z M272.022,51.109h-3.12l6.657-17.568h0.398L272.022,51.109z"/>
	<polygon fill="#FFFFFF" points="306.502,25.833 296.011,61.924 295.808,61.924 301.9,25.833 288.762,25.833 291.41,30.865 
		280.429,68.081 285.345,68.081 295.836,32.004 296.067,32.004 290.068,68.081 298.946,68.081 311.427,25.833 	"/>
	<path fill="#FFFFFF" d="M325.723,25.838H314.26l2.722,5.148l-10.971,37.095h8.537c4.666,0,8.212-3.611,9.425-7.652l7.407-25.045
		C333.546,27.963,331.676,25.838,325.723,25.838 M325.76,34.032l-7.629,25.86c-0.824,2.74-1.666,3.157-3.194,3.157h-1.426
		l9.49-32.183h1.407C325.954,30.865,326.565,31.3,325.76,34.032"/>
</g>
</svg>
