<?xml version="1.0" encoding="utf-8"?>
<!-- Generator: Adobe Illustrator 19.1.0, SVG Export Plug-In . SVG Version: 6.00 Build 0)  -->
<svg version="1.1" id="Layer_1" xmlns="http://www.w3.org/2000/svg" xmlns:xlink="http://www.w3.org/1999/xlink" x="0px" y="0px"
	 viewBox="0 0 400 400" enable-background="new 0 0 400 400" xml:space="preserve">
<g>
	<g>
		<path fill="#FFFFFF" d="M356.269,71.175c0-1.321-0.558-2.61-1.605-3.553c-1.594-1.383-3.851-1.56-5.667-0.437
			c-7.178,4.428-27.217,23.341-41.878,37.142c-0.011,0-4.804,4.629-5.656,5.479c-1.5-0.614-3.47-1.441-4.815-1.818
			c-5.125-1.264-9.601-1.24-12.917-0.567c2.491-5.858,15.713-36.909,15.713-36.909s-34.662,18.241-39.504,20.766
			c0.52-5.773,6.375-69.821,6.375-69.821s-42.04,51.9-45.891,56.659C218.75,72.227,200.06,6.182,200.06,6.182
			s-18.833,66.031-20.498,71.889c-3.847-4.746-45.797-56.73-45.797-56.73s5.75,64.061,6.259,69.858
			c-4.85-2.562-39.478-20.839-39.478-20.839s13.162,31.064,15.653,36.908c-3.316-0.673-7.804-0.697-12.857,0.543
			c-1.405,0.392-3.448,1.204-4.876,1.831c-0.874-0.838-5.633-5.467-5.633-5.467C78.205,90.326,58.17,71.365,50.992,66.9
			c-1.805-1.108-4.062-0.919-5.667,0.484c-1.014,0.91-1.594,2.231-1.594,3.531c0,0.673,0.143,1.357,0.448,2.018
			c3.693,8.028,22.891,34.593,34.308,49.917c-4.145,4.015-6.669,8.691-6.813,13.081v0.354c0,2.717,0.935,5.1,2.596,6.718
			c0,0,1.278,1.24,2.596,2.525c-6.526-0.022-30.661-0.045-30.661-0.045l-0.045,3.304c-0.531,22.869-1.157,79.778,4.156,114.131
			c5.042,32.541,13.282,55.797,27.639,77.735l1.5,2.265l1.439-2.302c3.32-5.324,13.803-18.822,29.975-32.387
			c1.582,1.5,6.458,6.116,8.15,7.71c-2.125,2.374-49.87,56.683-49.87,56.683c-1.974,2.246-3.048,5.064-3.048,8.041
			c0,0.256,0.011,0.482,0.011,0.754c0.233,3.248,1.65,6.21,4.085,8.373c5.019,4.439,12.74,3.975,17.156-1.051
			c0,0,42.417-47.945,49.961-56.506c2.317,2.042,30.013,26.697,30.013,26.697l-1.179-13.06c-0.117-1.051-0.143-2.185-0.143-3.342
			c0-3.188,0.463-6.941,1.194-10.991c7.909,9.85,19.786,15.645,32.549,15.645h0.049c12.736,0,24.628-5.75,32.548-15.584
			c0.723,3.99,1.18,7.743,1.18,10.908c0,1.206-0.045,2.351-0.173,3.437l-1.206,13.038c0,0,25.468-22.541,30.069-26.629
			c2.208,2.506,49.87,56.57,49.87,56.57c2.163,2.442,5.113,3.892,8.361,4.107c3.248,0.199,6.376-0.863,8.795-3.011
			c5.03-4.443,5.517-12.175,1.063-17.167c0,0-47.628-54.369-49.738-56.8c1.677-1.571,6.575-6.199,8.146-7.672
			c16.15,13.622,26.621,27.115,29.93,32.454l1.417,2.314l1.523-2.276c14.368-21.915,22.691-45.138,27.77-77.679
			c3.776-24.297,4.661-59.89,4.661-86.726c0-11.119-0.177-20.732-0.298-27.415l-0.079-3.257l-1.715-0.06h-28.95
			c1.289-1.24,2.585-2.504,2.585-2.504c1.715-1.65,2.623-4.026,2.623-6.752v-0.341c-0.128-4.381-2.634-9.068-6.779-13.081
			c11.444-15.3,30.665-41.818,34.421-49.87C356.115,72.534,356.269,71.872,356.269,71.175 M354.227,72.451
			c-3.73,8.063-23.543,35.314-35.126,50.742c8.173,7.097,8.855,15.255,5.279,18.795l-5.701,5.492h33.246
			c0,2.159,2.102,74.483-4.299,115.416c-4.853,31.158-12.619,54.298-27.518,77.004c-3.425-5.517-14.417-19.779-31.452-33.852
			l-10.532,9.895l50.884,58.055c3.791,4.322,3.391,10.898-0.908,14.722c-4.311,3.791-10.908,3.376-14.711-0.919l-51.016-57.934
			l-21.557,19.138l-6.519,5.75l0.829-8.64c0.516-5.762-0.354-12.424-1.771-18.761c-7.167,10.92-19.553,18.098-33.6,18.087
			c-14.051,0-26.388-7.212-33.577-18.136c-1.417,6.341-2.302,12.977-1.771,18.738l0.803,8.64l-6.485-5.735l-21.546-19.153
			l-51.122,57.791c-3.802,4.3-10.404,4.703-14.699,0.901c-4.311-3.813-4.699-10.415-0.897-14.711l50.967-57.972l-10.52-9.906
			C93.861,319.96,82.843,334.2,79.411,339.712c-14.854-22.737-22.563-45.925-27.379-77.034
			c-6.331-40.985-4.107-113.298-4.107-115.458l33.268,0.047l-5.69-5.503c-3.625-3.517-2.89-11.687,5.29-18.748
			c-11.549-15.453-31.324-42.784-35.032-50.803c-0.543-1.226-0.249-2.632,0.72-3.504c1.006-0.899,2.457-1.04,3.576-0.32
			c7.05,4.369,27.002,23.234,41.562,37.048c2.065,1.912,4.767,4.652,6.47,6.247c2.125-0.934,4.367-1.795,5.667-2.174
			c7.273-1.807,13.079-0.85,15.585,0.686l-15.28-36.009l37.982,20.048l-6.048-67.332l44.313,54.876l19.737-69.221l19.613,69.28
			l44.403-54.805l-6.149,67.296l38.005-19.988l-15.314,35.985c2.491-1.522,8.312-2.455,15.559-0.659
			c1.3,0.377,3.542,1.274,5.679,2.195c1.714-1.607,4.416-4.333,6.458-6.247c14.594-13.765,34.568-32.607,41.629-36.976
			c1.134-0.673,2.585-0.58,3.565,0.305C354.487,69.83,354.785,71.258,354.227,72.451"/>
		<path fill="#0A1B23" d="M349.927,68.637c-7.058,4.369-27.036,23.211-41.626,36.976c-2.042,1.914-4.748,4.64-6.459,6.247
			c-2.136-0.921-4.382-1.818-5.678-2.195c-7.25-1.795-13.071-0.863-15.562,0.659l15.314-35.998l-38.005,20.001l6.153-67.309
			l-44.407,54.818l-19.613-69.28l-19.737,69.221l-44.313-54.876l6.048,67.332l-37.982-20.046l15.28,36.009
			c-2.506-1.536-8.312-2.491-15.585-0.686c-1.3,0.377-3.542,1.24-5.667,2.174c-1.703-1.595-4.405-4.335-6.47-6.247
			c-14.56-13.814-34.512-32.68-41.562-37.048c-1.119-0.708-2.573-0.578-3.576,0.318c-0.968,0.874-1.263,2.28-0.72,3.506
			c3.708,8.017,23.482,35.35,35.028,50.803c-8.18,7.05-8.912,15.231-5.287,18.748l5.69,5.501l-33.272-0.058
			c0,2.172-2.219,74.483,4.111,115.465c4.815,31.109,12.525,54.298,27.379,77.038c3.433-5.517,14.45-19.756,31.497-33.819
			l10.52,9.906l-50.967,57.972c-3.802,4.296-3.414,10.898,0.897,14.711c4.295,3.802,10.897,3.399,14.699-0.901l51.122-57.791
			l21.546,19.149l6.485,5.739l-0.803-8.64c-0.535-5.761,0.365-12.397,1.771-18.738c7.19,10.924,19.526,18.136,33.577,18.136
			c14.047,0.011,26.433-7.167,33.6-18.087c1.417,6.341,2.287,13,1.771,18.761l-0.829,8.64l6.519-5.75l21.557-19.138l51.016,57.934
			c3.802,4.3,10.4,4.71,14.711,0.919c4.3-3.825,4.699-10.4,0.908-14.722l-50.884-58.051l10.532-9.895
			c17.035,14.07,28.027,28.332,31.452,33.848c14.899-22.706,22.669-45.842,27.518-77c6.402-40.936,4.299-113.259,4.299-115.407
			l-33.246-0.011l5.701-5.49c3.587-3.542,2.894-11.7-5.279-18.797c11.583-15.431,31.395-42.679,35.126-50.743
			c0.558-1.193,0.26-2.621-0.731-3.506C352.513,68.057,351.062,67.965,349.927,68.637 M286.375,115.343
			c1.632-2.076,5.618-1.771,11.24,0.852l0.576,0.222l-7.084,7.427l-0.305-0.177c-2.585-1.5-4.394-3.695-4.804-5.878
			C285.81,116.773,285.927,115.923,286.375,115.343 M281.217,116.194l0.746,0.424c-0.607,1.123-0.701,2.444-0.237,3.874
			c1.085,3.468,5.042,7.425,10.129,10.021l0.46,0.249l-2.442,2.999l-0.298-0.083c-0.083-0.035-9.103-2.845-15.279-5.62l-0.448-0.202
			L281.217,116.194z M310.766,182.06l-19.714,0.013l-0.046,1.758c-0.309,8.133-0.098,13.152,7.958,22.443l9.149,10.389
			c2.856,3.199,5.336,5.987,7.698,8.772c0.543,0.659,1.18,1.345,1.854,2.042c4.898,5.23,13.135,13.957,7.661,39.554
			c-4.119,19.051-6.541,26.753-8.972,32.797l-0.46,1.002c-17.676-15.822-35.039-26.41-51.076-33.415
			c2.348-11.64,3.919-24.187,4.981-36.599l18.098,14.277c-0.433,3.764-0.976,7.555-1.545,11.38
			c3.613,1.914,14.145,7.898,17.416,10.298c0.354-1.793,1.428-5.716,1.677-7.299c2.645-17.115-1.842-21.922-5.204-25.536
			c-0.377-0.388-0.723-0.757-1.029-1.134c-1.455-1.677-2.562-2.845-4.266-4.627c-2.476-2.536-6.187-6.436-14.07-15.159
			c-10.272-11.414-9.657-28.406-9.503-38.83l0.294-6.553l9.281-0.011c2.751,0.697,5.113,1.076,7.012,1.076
			c1.515,0.011,3.459-0.152,5.434-1.076l37.711-0.036c0.139,10.805,0.173,26.07-0.297,42.182l-19.964-14.731
			C310.853,190.303,310.838,185.875,310.766,182.06 M293.294,163.288c-1.533,1.394-3.154,1.677-5.467,1.641
			c-6.281-0.081-17.91-4.628-30.212-9.422l-1.643-0.659c-11.685-4.569-29.323-11.476-56.065-11.487
			c-26.659-0.024-44.331,6.847-56.02,11.393l-1.654,0.65c-12.303,4.768-23.942,9.315-30.235,9.373
			c-2.302,0.011-3.919-0.248-5.418-1.63c-1.489-1.369-19.032-18.819-19.775-19.564l-0.852-0.837l1.168,0.094
			c6.519,0.52,26.316-5.383,41.762-11.368l2.905-1.134c15.645-6.14,37.048-14.522,68.168-14.486
			c31.147,0.036,52.538,8.454,68.157,14.605l2.894,1.121c15.408,6.021,35.232,11.96,41.735,11.451l1.172-0.07l-0.852,0.838
			C312.315,144.506,294.722,161.931,293.294,163.288 M252.067,157.799c-0.022,0.543-0.045,4.013-0.045,4.699
			c-0.852,0-103.354-0.083-104.206-0.083c0-0.695-0.023-4.179-0.034-4.686c12.619-4.759,29.918-10.178,52.124-10.144
			C222.149,147.597,239.448,153.04,252.067,157.799 M93.816,258.292c1.579,10.227,3.693,19.979,6.138,29.094
			c-5.547,4.024-11.097,8.618-16.753,13.693c-4.544-12.574-8.158-26.764-10.637-42.809c-4.168-26.976-4.119-69.444-3.813-90.907
			l21.237,0.011c-0.188,12.738-0.283,32.006,0.497,51.342L109.34,205c-0.365-14.334-0.233-26.989-0.011-36.637
			c0.908,0.132,1.793,0.179,2.525,0.201c2.042,0,4.631-0.424,7.615-1.202l8.075,0.034c-0.162,11.866-0.162,26.233,0.475,41.805
			l-16.222,11.689l17.589,9.978c1.063,12.359,2.728,24.922,5.042,36.573c-5.844,2.551-11.794,5.645-17.921,9.198
			c-2.363-11.346-4.002-23.599-5.124-35.785L90.993,228.81C91.585,239.391,92.467,249.674,93.816,258.292 M152.281,109.498
			c0,0-4.797-52.267-5.053-55.006c1.734,2.148,36.939,45.952,36.939,45.952s15.065-53.271,15.871-56.105
			c0.776,2.834,15.724,56.139,15.724,56.139s35.276-43.755,37.01-45.891c-0.245,2.728-5.136,54.972-5.136,54.972
			s28.445-14.959,30.473-16.033c-0.897,2.089-13.094,30.378-13.399,31.109c-17.578-6.765-37.579-12.917-64.747-12.951
			c-27.164-0.037-47.199,6.127-64.746,12.832c-0.339-0.733-12.491-29.044-13.388-31.133
			C123.874,94.458,152.281,109.498,152.281,109.498 M117.947,116.488l0.757-0.449l7.344,11.7l-0.448,0.188
			c-6.176,2.775-15.219,5.573-15.302,5.609l-0.272,0.094l-2.479-2.997l0.497-0.271c5.064-2.61,9.054-6.517,10.144-9.976
			C118.628,118.909,118.572,117.611,117.947,116.488 M102.29,116.017c5.622-2.598,9.612-2.894,11.251-0.829
			c0.437,0.603,0.58,1.428,0.392,2.446c-0.437,2.206-2.246,4.415-4.83,5.901l-0.305,0.132l-7.061-7.403L102.29,116.017z
			 M63.306,87.798c7.97,7.25,17.013,15.809,23.886,22.301l10.743,10.083c0,0.011,0.648,0.755,0.648,0.755s4.168,4.83,4.748,5.501
			c-0.475,0.307-1.123,0.733-1.123,0.733c-0.757,0.531-1.523,1.121-2.468,1.441l-0.603,0.189c0,0,4.062,4.923,4.759,5.75
			c-0.897,0.271-3.647,1.097-4.062,1.229c-0.354-0.39-8.633-9.776-8.633-9.776C84.9,117.764,72.56,101.116,63.306,87.798
			 M80.899,136.182c-2.954-2.941,0.648-6.542,3.045-8.938l0.354-0.341l0.294,0.377l6.756,8.465l-0.546,0.213
			C88.337,136.96,82.565,137.859,80.899,136.182 M104.653,300.336c-8.667,7.167-16.885,15.381-24.44,24.414l-0.411,0.497
			l-0.297-0.591c-8.961-17.379-15.487-38.216-19.349-61.91c-3.598-22.115-5.038-59.328-4.024-104.794l0.045-2.621l37.534,0.025
			l0.189,0.036l9.348,9.209l0.592,0.567l1.24,1.04l-0.022,1.016c-0.298,12.549-0.321,24.144-0.061,35.407v0.235l-10.509,7.636
			l-0.026-0.825c-0.223-8.003-0.317-16.574-0.317-25.606c0-5.385,0.023-10.933,0.106-16.636c0,0,0.045-3.625,0.06-4.333
			c-0.708,0-29.09-0.024-29.813-0.024c0,0.697-0.045,4.216-0.045,4.216c-0.083,5.253-0.132,10.873-0.132,16.693
			c0,25.227,0.84,54.509,3.99,74.932c2.457,15.822,6.127,30.499,10.886,43.604c0,0,1.794,4.981,2.163,5.961
			c0.803-0.686,4.706-4.216,4.706-4.216c4.134-3.693,7.992-6.963,11.798-9.94l0.271-0.2l6.907,5.871L104.653,300.336z
			 M129.48,330.017l-0.011,0.132l-8.124,9.16l-5.358,6.093l-10.638,12.005l-5.339,6.022L89.399,375.46l-5.241,5.927l-2.257,2.536
			c-1.748,1.997-4.827,2.197-6.835,0.392c-0.957-0.829-1.522-2.031-1.605-3.327c-0.072-1.3,0.354-2.54,1.191-3.497l8.693-9.846
			l5.253-6.022l10.611-12.077l5.339-6.07l10.626-12.077l5.347-6.104l1.82-2.042l0.143-0.045c2.004-0.464,3.896-0.046,5.253,1.108
			c1.202,1.074,1.854,2.634,1.854,4.427C129.586,329.154,129.563,329.591,129.48,330.017 M160.673,316.132
			c-2.397,8.158-3.753,15.114-4.262,21.252c-1.206-1.097-44.26-39.301-45.465-40.401c12.182-2.442,24.722-8.414,31.524-11.7
			c1.451-0.674,9.172-4.484,18.004-10.482c6.055-1.832,12.253-3.237,18.392-4.273c-12.16,7.344-19.692,20.367-19.703,34.696v0.023
			C159.162,308.931,159.671,312.605,160.673,316.132 M234.617,307.763c-0.283,3.99-1.262,7.819-2.773,11.346
			c-1.194,2.739-2.717,5.302-4.548,7.615c-0.599,0.769-1.202,1.522-1.861,2.219c-6.187,6.684-14.948,10.946-24.726,11.191
			c-0.305,0-0.614,0.011-0.942,0.011c-0.321,0-0.652-0.011-0.946-0.011c-9.763-0.271-18.524-4.545-24.677-11.229
			c-0.671-0.693-1.262-1.417-1.842-2.159c-1.842-2.351-3.421-4.947-4.593-7.743c-1.511-3.497-2.453-7.288-2.736-11.251
			c-0.049-0.852-0.106-1.688-0.106-2.528c0.008-13.554,7.755-25.287,19.04-31.086c0.641-0.317,1.217-0.588,1.865-0.87
			c4.028-1.775,8.444-2.777,13.094-2.92c0.331-0.012,0.641-0.023,0.968-0.023c0.287,0,0.614,0.011,0.957,0.023
			c4.638,0.143,9.092,1.183,13.117,2.943c0.629,0.294,1.229,0.588,1.82,0.897c11.274,5.788,18.972,17.555,18.961,31.075
			C234.689,306.109,234.689,306.938,234.617,307.763 M279.031,325.401c1.229,1.451,3.083,3.542,5.324,6.089
			c2.988,3.437,6.658,7.616,10.588,12.115c1.749,1.993,3.557,4.051,5.351,6.104c3.61,4.122,7.261,8.301,10.588,12.088
			c1.865,2.14,3.647,4.156,5.253,6.025c5.151,5.829,8.667,9.868,8.667,9.868c0.78,0.908,1.206,2.031,1.206,3.225
			c0,0.068,0,0.196-0.011,0.29c-0.06,1.311-0.652,2.506-1.605,3.331c-2.031,1.759-5.091,1.594-6.862-0.426l-2.231-2.525
			l-5.192-5.904l-10.618-12.077l-5.324-6.022l-10.615-12.077l-5.407-6.093l-8.038-9.16l-0.037-0.132
			c-0.354-2.28,0.26-4.393,1.763-5.678c1.379-1.18,3.233-1.534,5.275-1.119l0.105,0.045
			C277.215,323.37,277.897,324.112,279.031,325.401 M242.394,337.455c-0.46-5.795-1.722-12.476-3.847-20.012
			c1.244-3.93,1.877-8.018,1.877-12.171v-0.026c0-14.168-7.389-27.13-19.338-34.508c5.811,1.04,11.689,2.408,17.484,4.202
			c8.655,5.905,16.414,9.74,17.865,10.449c6.801,3.27,19.326,9.292,31.512,11.749C286.718,298.184,243.623,336.392,242.394,337.455
			 M268.228,282.193c-31.049-17.096-58.183-18.965-68.394-18.999c-10.223,0-37.357,1.831-68.466,18.923
			c-7.401,3.542-19.892,8.584-30.721,11.123l-0.365-0.78l2.197-1.616c0,0,1.971-1.428,2.374-1.711
			c-0.154-0.497-0.791-2.849-0.791-2.849c-2.479-9.314-4.51-18.949-6.01-28.668c-0.863-5.596-1.605-12.359-2.197-20.151l-0.072-0.84
			l11.549,6.816l0.011,0.233c1.251,12.518,2.917,23.908,4.993,33.826c0,0,1.002,4.865,1.202,5.856
			c1.36-0.837,5.136-3.022,5.136-3.022c6.164-3.591,11.865-6.519,17.465-8.953c0,0,2.63-1.153,3.173-1.368
			c-0.173-0.829-0.682-3.387-0.682-3.387c-2.197-11.029-3.862-23.177-4.985-36.117c0,0-0.166-1.876-0.199-2.253
			c-0.448-0.26-13.72-7.793-13.72-7.793s12.348-8.938,12.657-9.137c0-0.403-0.094-2.329-0.094-2.329
			c-0.377-8.945-0.569-18.179-0.569-27.931c0-4.43,0.049-8.936,0.143-13.59l0.045-4.262v-0.284l7.284-2.738v9.373
			c0.874,0,120.567,0.094,121.419,0.094c0-0.791,0.011-9.409,0.011-9.409l6.952,2.623l-0.2,4.567c0,0-0.298,6.528-0.305,6.649v1.049
			c-0.188,10.664-0.46,28.466,10.6,40.731l14.179,15.268l4.096,4.424l1.146,1.289c3.011,3.248,6.451,6.907,4.122,21.987
			l-0.094,0.445l-0.121,0.614l-9.703-5.595l-0.272-0.155l1.134-8.557c0,0,0.233-1.986,0.294-2.378
			c-0.46-0.365-25.193-19.858-26.245-20.694c-0.177,2.125-0.686,7.921-0.686,7.921c-1.157,13.576-2.796,25.728-4.91,36.128
			c0,0-0.558,2.833-0.674,3.399c0.742,0.332,3.176,1.383,3.176,1.383c12.288,5.37,24.395,12.514,36.034,21.237l-0.377,0.791
			C287.992,290.795,275.61,285.765,268.228,282.193 M343.236,155.556h0.437l0.045,2.645c0.908,45.454-0.576,82.679-4.213,104.779
			c-3.911,23.697-10.449,44.523-19.447,61.879l-0.305,0.591l-0.411-0.497c-7.533-9.01-15.705-17.25-24.383-24.451l-0.388-0.343
			l6.835-5.833l0.282,0.233c3.896,3,7.698,6.203,11.357,9.447c0,0,3.557,3.199,4.288,3.825c0.648-1.368,2.916-6.176,2.916-6.176
			s0.046-0.124,0.095-0.222c2.562-6.398,5.091-14.545,9.164-33.506c1.345-6.259,1.888-11.606,1.888-16.222
			c0-15.905-6.613-22.929-10.603-27.145l-1.7-1.876c0,0-7.758-8.878-7.781-8.878l-9.149-10.366
			c-5.821-6.741-6.952-10.673-6.952-16.103c0-0.189,0.011-0.98,0.011-0.98l10.875-0.025h0.448v8.689c0,0-0.027,1.854-0.027,2.21
			c0.437,0.294,27.262,20.033,28.359,20.824c0.075-2.159,0.226-8.184,0.226-8.184c0.272-8.616,0.377-17.67,0.377-27.434
			c0-4.795-0.034-9.754-0.094-14.899c0,0-0.011-3.555-0.011-4.252c-0.746,0-36.223,0.035-36.223,0.035h-1.051l7.849-7.781
			L343.236,155.556z M318.984,136.382c-1.654,1.652-7.438,0.778-9.933-0.235l-0.505-0.213l6.413-8.016l0.637-0.85l0.354,0.365
			C318.336,129.831,321.935,133.429,318.984,136.382 M308.667,126.216c0.022-0.023-7.664,8.666-8.621,9.74
			c-0.426-0.13-3.176-0.98-4.051-1.251c0.697-0.814,4.759-5.703,4.759-5.703l-0.603-0.224c-0.946-0.33-1.711-0.897-2.491-1.464
			c0,0-0.637-0.401-1.1-0.72c0.592-0.639,4.808-5.537,4.808-5.537l0.637-0.722l10.732-10.048
			c6.862-6.47,15.939-15.016,23.931-22.265C327.391,101.318,315.043,117.941,308.667,126.216"/>
		<path fill="#0A1B23" d="M97.863,294.326c-3.802,2.977-7.661,6.247-11.794,9.94c0,0-3.907,3.531-4.71,4.228
			c-0.366-0.991-2.159-5.973-2.159-5.973c-4.759-13.105-8.429-27.793-10.886-43.604c-3.154-20.434-3.99-49.704-3.99-74.932
			c0-5.831,0.045-11.44,0.128-16.693c0,0,0.049-3.519,0.049-4.216c0.72,0,29.101,0.024,29.809,0.024
			c-0.011,0.708-0.06,4.333-0.06,4.333c-0.079,5.703-0.106,11.251-0.106,16.636c0,9.032,0.098,17.602,0.32,25.606l0.023,0.825
			l10.509-7.647v-0.226c-0.26-11.263-0.233-22.855,0.061-35.43l0.026-0.98l-1.244-1.051l-0.588-0.567l-9.352-9.221l-0.189-0.024
			l-37.534-0.025l-0.045,2.621c-1.014,45.469,0.426,82.683,4.028,104.794c3.859,23.694,10.389,44.531,19.349,61.91l0.294,0.591
			l0.415-0.486c7.555-9.032,15.773-17.258,24.436-24.425l0.392-0.343l-6.907-5.87L97.863,294.326z"/>
		<path fill="#3A3F95" d="M97.863,294.326c-3.802,2.977-7.661,6.247-11.794,9.94c0,0-3.907,3.531-4.71,4.228
			c-0.366-0.991-2.159-5.973-2.159-5.973c-4.759-13.105-8.429-27.793-10.886-43.604c-3.154-20.434-3.99-49.704-3.99-74.932
			c0-5.831,0.045-11.44,0.128-16.693c0,0,0.049-3.519,0.049-4.216c0.72,0,29.101,0.024,29.809,0.024
			c-0.011,0.708-0.06,4.333-0.06,4.333c-0.079,5.703-0.106,11.251-0.106,16.636c0,9.032,0.098,17.602,0.32,25.606l0.023,0.825
			l10.509-7.647v-0.226c-0.26-11.263-0.233-22.855,0.061-35.43l0.026-0.98l-1.244-1.051l-0.588-0.567l-9.352-9.221l-0.189-0.024
			l-37.534-0.025l-0.045,2.621c-1.014,45.469,0.426,82.683,4.028,104.794c3.859,23.694,10.389,44.531,19.349,61.91l0.294,0.591
			l0.415-0.486c7.555-9.032,15.773-17.258,24.436-24.425l0.392-0.343l-6.907-5.87L97.863,294.326z"/>
		<path fill="#0A1B23" d="M313.909,142.959l-1.172,0.07c-6.504,0.509-26.328-5.43-41.735-11.44l-2.894-1.132
			c-15.619-6.152-37.01-14.569-68.157-14.605c-31.12-0.036-52.527,8.346-68.168,14.486l-2.905,1.134
			c-15.442,5.985-35.243,11.888-41.758,11.368l-1.172-0.094l0.852,0.838c0.731,0.742,18.287,18.194,19.775,19.562
			c1.5,1.381,3.116,1.641,5.418,1.63c6.293-0.058,17.932-4.605,30.235-9.386l1.655-0.625c11.689-4.558,29.361-11.428,56.02-11.404
			c26.742,0.011,44.38,6.918,56.065,11.487l1.646,0.661c12.288,4.78,23.931,9.338,30.209,9.409c2.317,0.023,3.934-0.235,5.467-1.631
			c1.428-1.357,19.021-18.795,19.764-19.49L313.909,142.959z M119.329,155.296c-2.231,0.803-5.373,1.358-7.084,1.264l-1.063,1.558
			l-1.548-4.028c2.856,0.827,6.07,0.556,8.655-0.401c1.96-0.706,3.388-1.523,3.06-2.397c-0.365-0.908-2.302-0.047-4.808,0.65
			c-4.19,1.287-7.355,1.31-8.263-1.132c-0.935-2.434,1.417-4.806,5.528-6.331c2.231-0.814,4.921-1.226,6.632-1.108l1.134-1.594
			l1.357,3.661c-2.879-0.616-5.49-0.236-8.037,0.706c-1.937,0.733-3.685,1.712-3.391,2.479c0.331,0.874,2.151-0.036,4.631-0.791
			c4.141-1.3,7.8-1.336,8.757,1.251C125.882,151.706,123.425,153.773,119.329,155.296 M135.137,149.948l1.311-3.154l-0.603-0.473
			l-5.81,2.053l-0.143,0.708l3.519,1.569c-1.722,0.569-5.641,2.031-7.872,2.845l1.606-3.471l1.39-7.768l-3.387-1.37
			c3.293-1.193,8.832-3.058,11.134-3.992l-1.854,3.257l5.961,4.831l3.591,1.605C141.38,147.503,136.73,149.357,135.137,149.948
			 M150.815,144.127c-5.102,1.453-9.601,0.236-10.592-3.105c-0.98-3.341,2.159-6.894,7.25-8.371c2.159-0.625,4.45-0.755,6.105-0.437
			l1.228-1.511l1.323,4.486c-2.822-1.275-4.488-1.287-6.99-0.58c-2.611,0.78-5.004,2.892-4.371,5.055
			c0.618,2.172,3.802,2.679,6.402,1.935c1.7-0.471,4.085-1.168,5.645-3.977l0.625,2.101
			C156.411,141.342,153.969,143.206,150.815,144.127 M209.706,136.193l2.634-2.197l0.614-6.658l-4.687,8.808l-2.185-0.081
			l-3.809-9.305l-0.238,6.79l2.551,2.408c-1.571-0.061-5.716-0.095-7.902-0.025c-3.715,0-7.732,0.401-9.465,0.448l2.087-2.596
			l-0.437-0.58l-6.089,0.401l-0.271,0.673l2.939,2.266c-1.488,0.107-4.533,0.426-6.967,0.744l0.049,0.034l-6.899,1.066
			c-1.017-0.686-1.899-1.982-2.717-3.188c-0.437-0.603-0.754-0.838-1.451-0.673l-2.694,0.603l0.449,2.148l3.165,1.76l-9.752,2.455
			l2.182-2.952l-1.406-6.647l-3.188-1.688c3.602-0.899,7.344-1.995,10.664-2.728c4.262-0.919,7.284-0.188,7.638,1.961
			c0.271,1.641-1.006,2.975-3.139,3.744l0.023,0.023c0.671-0.153,1.533-0.023,2.197,0.673c0.377,0.461,0.765,0.968,1.229,1.513
			l2.784,1.452l1.982-2.385l3.297-6.943l-2.917-2.103c4.141-0.412,8.523-0.756,11.617-0.944l-2.528,2.538l4.488,6.351l3.127,2.576
			l2.822-2.398l0.233-6.786l-2.547-2.397c2.325-0.013,6.775,0,8.757,0.094l2.434,5.762l2.882-5.562
			c2.114,0.166,6.896,0.614,9.127,0.921l-2.879,2.172l-0.663,6.564l2.562,2.764C216.542,136.736,211.805,136.265,209.706,136.193
			 M236.554,140.347c-4.454-1.038-11.715-2.489-16.564-3.188l3.142-1.948l1.168-6.611l-2.268-2.834
			c3.757,0.496,10.317,1.664,17.012,3.177l-0.848,4.096l-3.199-2.975l-6.142-1.132l-0.426,2.491l3.542,0.614l2.265-0.791
			l-0.863,4.333l-1.778-1.571l-3.497-0.624l-0.497,2.809l5.999,1.097l4.013-1.605L236.554,140.347z M256.789,136.83l-2.728,9.068
			l-4.744-1.699l-4.202-9.339l-1.244,4.994l2.053,3.175l-7.743-2.302l3.237-1.534l1.673-6.752l-2.242-3.022l7.615,2.172l4.499,9.317
			l1.417-4.867l-1.937-3.174l7.559,2.681L256.789,136.83z M272.019,142.262l-2.114-0.778l-2.491,7.095l1.805,3.213l-9.503-3.591
			l3.338-1.229l2.517-7.142l-2.103-0.827l-4.499,1.489l1.583-4.665c2.705,1.004,11.462,4.297,15.645,5.929l-1.597,4.652
			L272.019,142.262z M291.5,152.863c-1.108,3.434-5.336,4.842-10.189,3.412c-4.898-1.498-7.494-4.993-6.364-8.416
			c1.112-3.448,5.313-4.864,10.204-3.378C290,145.956,292.619,149.404,291.5,152.863"/>
		<path fill="#3A3F95" d="M313.909,142.959l-1.172,0.07c-6.504,0.509-26.328-5.43-41.735-11.44l-2.894-1.132
			c-15.619-6.152-37.01-14.569-68.157-14.605c-31.12-0.036-52.527,8.346-68.168,14.486l-2.905,1.134
			c-15.442,5.985-35.243,11.888-41.758,11.368l-1.172-0.094l0.852,0.838c0.731,0.742,18.287,18.194,19.775,19.562
			c1.5,1.381,3.116,1.641,5.418,1.63c6.293-0.058,17.932-4.605,30.235-9.386l1.655-0.625c11.689-4.558,29.361-11.428,56.02-11.404
			c26.742,0.011,44.38,6.918,56.065,11.487l1.646,0.661c12.288,4.78,23.931,9.338,30.209,9.409c2.317,0.023,3.934-0.235,5.467-1.631
			c1.428-1.357,19.021-18.795,19.764-19.49L313.909,142.959z M119.329,155.296c-2.231,0.803-5.373,1.358-7.084,1.264l-1.063,1.558
			l-1.548-4.028c2.856,0.827,6.07,0.556,8.655-0.401c1.96-0.706,3.388-1.523,3.06-2.397c-0.365-0.908-2.302-0.047-4.808,0.65
			c-4.19,1.287-7.355,1.31-8.263-1.132c-0.935-2.434,1.417-4.806,5.528-6.331c2.231-0.814,4.921-1.226,6.632-1.108l1.134-1.594
			l1.357,3.661c-2.879-0.616-5.49-0.236-8.037,0.706c-1.937,0.733-3.685,1.712-3.391,2.479c0.331,0.874,2.151-0.036,4.631-0.791
			c4.141-1.3,7.8-1.336,8.757,1.251C125.882,151.706,123.425,153.773,119.329,155.296 M135.137,149.948l1.311-3.154l-0.603-0.473
			l-5.81,2.053l-0.143,0.708l3.519,1.569c-1.722,0.569-5.641,2.031-7.872,2.845l1.606-3.471l1.39-7.768l-3.387-1.37
			c3.293-1.193,8.832-3.058,11.134-3.992l-1.854,3.257l5.961,4.831l3.591,1.605C141.38,147.503,136.73,149.357,135.137,149.948
			 M150.815,144.127c-5.102,1.453-9.601,0.236-10.592-3.105c-0.98-3.341,2.159-6.894,7.25-8.371c2.159-0.625,4.45-0.755,6.105-0.437
			l1.228-1.511l1.323,4.486c-2.822-1.275-4.488-1.287-6.99-0.58c-2.611,0.78-5.004,2.892-4.371,5.055
			c0.618,2.172,3.802,2.679,6.402,1.935c1.7-0.471,4.085-1.168,5.645-3.977l0.625,2.101
			C156.411,141.342,153.969,143.206,150.815,144.127 M209.706,136.193l2.634-2.197l0.614-6.658l-4.687,8.808l-2.185-0.081
			l-3.809-9.305l-0.238,6.79l2.551,2.408c-1.571-0.061-5.716-0.095-7.902-0.025c-3.715,0-7.732,0.401-9.465,0.448l2.087-2.596
			l-0.437-0.58l-6.089,0.401l-0.271,0.673l2.939,2.266c-1.488,0.107-4.533,0.426-6.967,0.744l0.049,0.034l-6.899,1.066
			c-1.017-0.686-1.899-1.982-2.717-3.188c-0.437-0.603-0.754-0.838-1.451-0.673l-2.694,0.603l0.449,2.148l3.165,1.76l-9.752,2.455
			l2.182-2.952l-1.406-6.647l-3.188-1.688c3.602-0.899,7.344-1.995,10.664-2.728c4.262-0.919,7.284-0.188,7.638,1.961
			c0.271,1.641-1.006,2.975-3.139,3.744l0.023,0.023c0.671-0.153,1.533-0.023,2.197,0.673c0.377,0.461,0.765,0.968,1.229,1.513
			l2.784,1.452l1.982-2.385l3.297-6.943l-2.917-2.103c4.141-0.412,8.523-0.756,11.617-0.944l-2.528,2.538l4.488,6.351l3.127,2.576
			l2.822-2.398l0.233-6.786l-2.547-2.397c2.325-0.013,6.775,0,8.757,0.094l2.434,5.762l2.882-5.562
			c2.114,0.166,6.896,0.614,9.127,0.921l-2.879,2.172l-0.663,6.564l2.562,2.764C216.542,136.736,211.805,136.265,209.706,136.193
			 M236.554,140.347c-4.454-1.038-11.715-2.489-16.564-3.188l3.142-1.948l1.168-6.611l-2.268-2.834
			c3.757,0.496,10.317,1.664,17.012,3.177l-0.848,4.096l-3.199-2.975l-6.142-1.132l-0.426,2.491l3.542,0.614l2.265-0.791
			l-0.863,4.333l-1.778-1.571l-3.497-0.624l-0.497,2.809l5.999,1.097l4.013-1.605L236.554,140.347z M256.789,136.83l-2.728,9.068
			l-4.744-1.699l-4.202-9.339l-1.244,4.994l2.053,3.175l-7.743-2.302l3.237-1.534l1.673-6.752l-2.242-3.022l7.615,2.172l4.499,9.317
			l1.417-4.867l-1.937-3.174l7.559,2.681L256.789,136.83z M272.019,142.262l-2.114-0.778l-2.491,7.095l1.805,3.213l-9.503-3.591
			l3.338-1.229l2.517-7.142l-2.103-0.827l-4.499,1.489l1.583-4.665c2.705,1.004,11.462,4.297,15.645,5.929l-1.597,4.652
			L272.019,142.262z M291.5,152.863c-1.108,3.434-5.336,4.842-10.189,3.412c-4.898-1.498-7.494-4.993-6.364-8.416
			c1.112-3.448,5.313-4.864,10.204-3.378C290,145.956,292.619,149.404,291.5,152.863"/>
		<polygon fill="#0A1B23" points="183.707,131.613 187.498,131.317 185.267,128.293 		"/>
		<polygon fill="#5B419A" points="183.707,131.613 187.498,131.317 185.267,128.293 		"/>
		<path fill="#0A1B23" d="M167.165,129.533l-3.433,0.827l0.625,2.845l3.316-0.767c1.194-0.284,1.899-0.98,1.782-1.746
			C169.305,129.654,168.359,129.298,167.165,129.533"/>
		<path fill="#5B419A" d="M167.165,129.533l-3.433,0.827l0.625,2.845l3.316-0.767c1.194-0.284,1.899-0.98,1.782-1.746
			C169.305,129.654,168.359,129.298,167.165,129.533"/>
		<polygon fill="#0A1B23" points="130.449,146.147 134.025,144.847 131.04,142.426 		"/>
		<polygon fill="#5B419A" points="130.449,146.147 134.025,144.847 131.04,142.426 		"/>
		<path fill="#0A1B23" d="M284.345,146.747c-2.28-0.671-4.284,0.343-4.97,2.479c-0.663,2.089,0.354,4.004,2.634,4.674
			c2.265,0.686,4.341-0.258,5.038-2.372C287.709,149.415,286.62,147.433,284.345,146.747"/>
		<path fill="#5B419A" d="M284.345,146.747c-2.28-0.671-4.284,0.343-4.97,2.479c-0.663,2.089,0.354,4.004,2.634,4.674
			c2.265,0.686,4.341-0.258,5.038-2.372C287.709,149.415,286.62,147.433,284.345,146.747"/>
		<path fill="#FFFFFF" d="M116.13,147.835c-2.479,0.755-4.3,1.665-4.631,0.803c-0.294-0.778,1.454-1.758,3.391-2.491
			c2.547-0.944,5.158-1.323,8.037-0.722l-1.357-3.646l-1.134,1.606c-1.711-0.132-4.401,0.294-6.632,1.096
			c-4.122,1.524-6.458,3.896-5.528,6.329c0.908,2.444,4.073,2.432,8.263,1.134c2.506-0.697,4.443-1.547,4.808-0.65
			c0.328,0.874-1.1,1.677-3.071,2.397c-2.574,0.946-5.784,1.239-8.629,0.401l1.533,4.026l1.063-1.545
			c1.711,0.094,4.853-0.473,7.084-1.287c4.1-1.511,6.553-3.576,5.562-6.185C123.93,146.512,120.26,146.535,116.13,147.835"/>
		<path fill="#FFFFFF" d="M151.169,141.601c-2.596,0.744-5.784,0.235-6.402-1.935c-0.637-2.161,1.76-4.273,4.371-5.055
			c2.502-0.706,4.167-0.684,6.99,0.58l-1.311-4.486l-1.239,1.498c-1.654-0.318-3.941-0.177-6.105,0.461
			c-5.091,1.477-8.229,5.017-7.25,8.371c0.991,3.342,5.49,4.546,10.592,3.093c3.154-0.921,5.596-2.786,6.624-4.393l-0.625-2.112
			C155.254,140.432,152.869,141.105,151.169,141.601"/>
		<path fill="#FFFFFF" d="M217.51,127.74l2.879-2.172c-2.231-0.307-7.012-0.757-9.127-0.935l-2.878,5.573l-2.434-5.761
			c-1.982-0.094-6.436-0.106-8.761-0.094l2.551,2.396l-0.237,6.788l-2.807,2.397c2.17-0.069,6.315-0.024,7.886,0.025l-2.551-2.408
			l0.237-6.788l3.813,9.303l2.182,0.081l4.687-8.808l-0.614,6.66l-2.634,2.184c2.103,0.094,6.835,0.554,9.707,0.899l-2.562-2.775
			L217.51,127.74z"/>
		<path fill="#FFFFFF" d="M227.605,136.182l0.493-2.798l3.497,0.624l1.782,1.571l0.863-4.345l-2.257,0.814l-3.553-0.639l0.426-2.479
			l6.142,1.134l3.195,2.975l0.852-4.096c-6.696-1.5-13.26-2.681-17.012-3.177l2.265,2.821l-1.168,6.624l-3.139,1.946
			c4.849,0.697,12.11,2.15,16.561,3.189l1.062-4.665l-4.013,1.607L227.605,136.182z"/>
		<polygon fill="#FFFFFF" points="252.444,132.864 254.381,136.04 252.964,140.905 248.476,131.589 240.85,129.405 243.092,132.438 
			241.419,139.192 238.186,140.726 245.925,143.029 243.872,139.854 245.115,134.859 249.317,144.199 254.072,145.898 
			256.789,136.819 260.01,135.543 		"/>
		<path fill="#FFFFFF" d="M260.553,135.826l-1.579,4.665l4.499-1.489l2.103,0.814l-2.517,7.154l-3.342,1.215l9.503,3.602
			l-1.805-3.212l2.506-7.107l2.103,0.791l2.585,4.145l1.594-4.652C272.019,140.123,263.258,136.819,260.553,135.826"/>
		<path fill="#FFFFFF" d="M285.147,144.481c-4.887-1.486-9.093-0.069-10.2,3.378c-1.134,3.435,1.466,6.918,6.364,8.416
			c4.854,1.441,9.078,0.024,10.185-3.412C292.619,149.404,290,145.956,285.147,144.481 M287.046,151.529
			c-0.697,2.114-2.773,3.058-5.038,2.372c-2.28-0.671-3.297-2.573-2.634-4.687c0.686-2.123,2.691-3.127,4.97-2.468
			C286.62,147.433,287.709,149.404,287.046,151.529"/>
		<path fill="#FFFFFF" d="M134.428,140.161l1.854-3.259c-2.302,0.921-7.841,2.8-11.134,3.992l3.387,1.369l-1.39,7.757l-1.606,3.483
			c2.242-0.827,6.15-2.28,7.872-2.856l-3.519-1.56l0.143-0.72l5.81-2.042l0.603,0.473l-1.311,3.152
			c1.594-0.59,6.247-2.444,8.843-3.351l-3.591-1.607L134.428,140.161z M130.449,146.147l0.592-3.719l2.985,2.419L130.449,146.147z"
			/>
		<path fill="#FFFFFF" d="M189.069,127.02l2.525-2.551c-3.094,0.188-7.472,0.52-11.617,0.944l2.917,2.103l-3.293,6.929l-1.982,2.385
			l-2.788-1.441c-0.46-0.554-0.848-1.04-1.229-1.524c-0.648-0.695-1.522-0.814-2.193-0.661l-0.026-0.034
			c2.136-0.757,3.414-2.089,3.139-3.73c-0.354-2.15-3.376-2.892-7.638-1.948c-3.316,0.708-7.061,1.831-10.66,2.717l3.188,1.677
			l1.405,6.669l-2.185,2.941l9.752-2.455l-3.162-1.76l-0.448-2.148l2.691-0.614c0.697-0.152,1.014,0.081,1.451,0.673
			c0.818,1.204,1.703,2.513,2.717,3.199l6.896-1.063l-0.045-0.036c2.43-0.305,5.475-0.639,6.963-0.731l-2.939-2.28l0.271-0.661
			l6.089-0.412l0.437,0.58l-2.087,2.607c1.737-0.045,5.75-0.46,9.481-0.46l-3.143-2.576L189.069,127.02z M167.662,132.438
			l-3.304,0.767l-0.625-2.845l3.433-0.827c1.195-0.247,2.14,0.107,2.291,1.146C169.573,131.447,168.868,132.154,167.662,132.438
			 M183.707,131.613l1.56-3.318l2.231,3.022L183.707,131.613z"/>
		<path fill="#3A3F95" d="M200.769,276.333l0.437,0.011c3.139,0.144,6.244,0.701,9.209,1.655l0.388,0.094l0.154-0.354
			c0.897-2.02,2.031-3.497,2.822-4.322c0,0,0.022-0.072,0.128-0.128c-4.024-1.76-8.478-2.8-13.117-2.943v0.049L200.769,276.333z"/>
		<path fill="#3A3F95" d="M188.688,277.716l0.154,0.377l0.365-0.121c3-0.953,6.093-1.484,9.236-1.628l0.422-0.011v-5.987
			c-4.65,0.143-9.066,1.157-13.094,2.916c0.049,0.034,0.083,0.128,0.083,0.128C186.661,274.22,187.769,275.697,188.688,277.716"/>
		<path fill="#3A3F95" d="M216.851,301.881c-0.015-0.034-4.315-7.024-4.315-7.024c-1.993-3.542-3.007-7.001-3.007-10.389
			c0-1.405,0.173-2.822,0.531-4.179l0.117-0.403l-0.414-0.128c-2.724-0.874-5.618-1.372-8.546-1.511h-0.448l-0.06,61.887
			c9.774-0.245,18.535-4.499,24.722-11.191v-0.034C225.431,315.212,221.644,309.319,216.851,301.881"/>
		<path fill="#3A3F95" d="M232.869,311.294c0-8.836-3.433-17.122-9.68-23.377c-3.105-3.105-6.73-5.528-10.743-7.178l-0.497-0.199
			l-0.106,0.482c-0.298,1.119-0.403,2.28-0.403,3.448c0,3.022,0.912,6.21,2.755,9.458l4.202,6.858
			c4.51,7.024,8.395,13.034,8.878,25.431c0,0,0.011,0.249,0.022,0.505c1.831-2.314,3.354-4.872,4.548-7.615
			c0.637-2.559,1.025-5.204,1.025-7.778V311.294z"/>
		<path fill="#3A3F95" d="M186.601,278.918l0.449-0.177l-0.204-0.414c-0.908-1.959-2.087-3.327-2.939-4.19
			c-11.285,5.799-19.032,17.533-19.044,31.086c0,0.84,0.06,1.677,0.105,2.525c0.203-1.251,0.354-2.231,0.354-2.231
			C167.297,293.666,175.466,283.466,186.601,278.918"/>
		<path fill="#3A3F95" d="M181.171,300.807c0-0.026,4.251-6.896,4.251-6.896c1.854-3.293,2.785-6.47,2.785-9.477
			c0-1.172-0.151-2.306-0.437-3.425l-0.106-0.486l-0.471,0.177c-4.028,1.666-7.638,4.085-10.743,7.19
			c-6.27,6.233-9.718,14.56-9.718,23.366v0.034c0,2.574,0.339,5.136,0.98,7.709c1.168,2.796,2.751,5.396,4.594,7.747v-0.569
			C172.809,313.747,176.695,307.752,181.171,300.807"/>
		<path fill="#3A3F95" d="M215.728,274.186c-0.829,0.803-1.993,2.159-2.928,4.141l-0.188,0.414l0.426,0.189
			c4.311,1.748,8.165,4.337,11.489,7.653c5.204,5.226,8.565,11.79,9.763,18.983c0,0,0.143,0.931,0.332,2.182
			c0.068-0.803,0.068-1.643,0.068-2.491C234.7,291.741,227.002,279.973,215.728,274.186"/>
		<path fill="#3A3F95" d="M198.406,278.248c-2.905,0.139-5.784,0.625-8.535,1.488l-0.377,0.128l0.095,0.426
			c0.32,1.345,0.509,2.736,0.509,4.145c0,3.361-1.006,6.847-3.033,10.423l-4.3,6.956c-4.815,7.472-8.618,13.388-8.618,27.092
			c6.15,6.684,14.91,10.958,24.673,11.229c0-9.232,0.049-61.887,0.049-61.887H198.406L198.406,278.248z"/>
		<g enable-background="new    ">
			<g>
				<path fill="#A8AAAD" d="M224.523,286.594c-3.32-3.327-7.178-5.905-11.489-7.676l-0.426-0.177l0.192-0.414
					c0.931-1.982,2.099-3.338,2.924-4.141c-0.588-0.305-1.191-0.603-1.816-0.897c-0.106,0.056-0.132,0.128-0.132,0.128
					c-0.788,0.825-1.922,2.302-2.822,4.322l-0.151,0.354l-0.392-0.094c-2.961-0.957-6.07-1.511-9.209-1.655l-0.437-0.011
					l0.027-5.938v-0.049c-0.343-0.012-0.674-0.023-0.957-0.023c-0.331,0-0.637,0.011-0.968,0.023v5.987l-0.426,0.011
					c-3.139,0.144-6.232,0.674-9.232,1.632l-0.365,0.117l-0.154-0.377c-0.919-2.02-2.031-3.497-2.834-4.322
					c0,0-0.038-0.094-0.083-0.128c-0.648,0.282-1.229,0.565-1.865,0.87c0.848,0.863,2.031,2.234,2.939,4.194l0.204,0.414
					l-0.449,0.177c-11.134,4.544-19.304,14.756-21.274,26.61c0,0-0.155,0.969-0.354,2.208c0.282,3.968,1.228,7.766,2.736,11.274
					c-0.637-2.585-0.98-5.147-0.98-7.72v-0.034c0-8.81,3.451-17.134,9.718-23.366c3.105-3.105,6.718-5.528,10.747-7.19l0.471-0.177
					l0.106,0.486c0.282,1.119,0.437,2.253,0.437,3.421c0,3.011-0.935,6.187-2.789,9.481c0,0-4.251,6.873-4.251,6.896
					c-4.472,6.941-8.358,12.939-8.866,25.374v0.565c0.58,0.742,1.168,1.466,1.842,2.159c0-13.705,3.802-19.62,8.621-27.092
					l4.296-6.967c2.031-3.564,3.033-7.061,3.033-10.415c0-1.405-0.188-2.796-0.505-4.145l-0.098-0.422l0.377-0.12
					c2.755-0.874,5.633-1.357,8.535-1.496l0.464-0.015c0,0-0.046,52.681-0.046,61.913c0.294,0,0.622,0.011,0.942,0.011
					c0.331,0,0.641-0.011,0.946-0.011l0.06-61.898h0.448c2.928,0.139,5.822,0.637,8.546,1.518l0.414,0.117l-0.117,0.403
					c-0.358,1.368-0.531,2.777-0.531,4.183c0,3.387,1.014,6.858,3.007,10.385c0,0,4.299,6.99,4.315,7.027
					c4.793,7.434,8.58,13.328,8.58,27.025v0.045c0.659-0.697,1.266-1.462,1.865-2.231c-0.015-0.26-0.022-0.509-0.022-0.509
					c-0.486-12.397-4.371-18.403-8.882-25.431l-4.202-6.858c-1.842-3.248-2.751-6.447-2.751-9.454c0-1.172,0.106-2.325,0.403-3.451
					l0.106-0.482l0.494,0.199c4.013,1.65,7.642,4.073,10.743,7.178c6.247,6.258,9.684,14.545,9.684,23.377v0.034
					c0,2.574-0.388,5.219-1.029,7.781c1.514-3.527,2.491-7.344,2.777-11.357c-0.188-1.244-0.332-2.182-0.332-2.182
					C233.091,298.365,229.726,291.809,224.523,286.594"/>
			</g>
		</g>
		<g enable-background="new    ">
			<g>
				<g>
					<defs>
						<rect id="SVGID_1_" x="83.34" y="361.624" width="6.056" height="19.764"/>
					</defs>
					<clipPath id="SVGID_2_">
						<use xlink:href="#SVGID_1_"  overflow="visible"/>
					</clipPath>
					<polygon clip-path="url(#SVGID_2_)" fill="#A8AAAD" points="88.642,362.249 88.597,361.624 83.34,367.645 83.389,368.225 
						83.435,368.836 83.695,373.384 84.121,380.735 84.158,381.387 89.399,375.46 89.339,374.868 					"/>
				</g>
			</g>
		</g>
		<g enable-background="new    ">
			<g>
				<g>
					<defs>
						<rect id="SVGID_3_" x="115.169" y="325.296" width="6.176" height="20.106"/>
					</defs>
					<clipPath id="SVGID_4_">
						<use xlink:href="#SVGID_3_"  overflow="visible"/>
					</clipPath>
					<polygon clip-path="url(#SVGID_4_)" fill="#A8AAAD" points="121.285,338.058 120.886,331.114 120.58,325.91 120.52,325.296 
						115.169,331.4 115.241,331.965 115.938,344.788 115.987,345.402 121.345,339.298 121.334,338.684 					"/>
				</g>
			</g>
		</g>
		<g enable-background="new    ">
			<g>
				<g>
					<defs>
						<rect id="SVGID_5_" x="99.208" y="343.477" width="6.142" height="19.952"/>
					</defs>
					<clipPath id="SVGID_6_">
						<use xlink:href="#SVGID_5_"  overflow="visible"/>
					</clipPath>
					<polygon clip-path="url(#SVGID_6_)" fill="#A8AAAD" points="104.592,344.091 104.547,343.477 99.208,349.543 99.28,350.135 
						99.705,357.784 99.954,362.215 99.988,362.826 100.01,363.429 105.35,357.407 105.301,356.808 					"/>
				</g>
			</g>
		</g>
		<g enable-background="new    ">
			<g>
				<g>
					<defs>
						<rect id="SVGID_7_" x="310.107" y="361.797" width="6.033" height="19.79"/>
					</defs>
					<clipPath id="SVGID_8_">
						<use xlink:href="#SVGID_7_"  overflow="visible"/>
					</clipPath>
					<path clip-path="url(#SVGID_8_)" fill="#A8AAAD" d="M310.71,365.117l-0.52,9.329l-0.071,0.611l-0.012,0.614l5.196,5.905
						l0.034-0.625l0.023-0.603l0.701-11.3l0.045-0.625l0.034-0.599c-1.605-1.877-3.391-3.885-5.253-6.025l-0.034,0.629
						L310.71,365.117z"/>
				</g>
			</g>
		</g>
		<g enable-background="new    ">
			<g>
				<g>
					<defs>
						<rect id="SVGID_9_" x="278.146" y="325.401" width="6.214" height="20.106"/>
					</defs>
					<clipPath id="SVGID_10_">
						<use xlink:href="#SVGID_9_"  overflow="visible"/>
					</clipPath>
					<path clip-path="url(#SVGID_10_)" fill="#A8AAAD" d="M278.96,326.652l-0.614,9.624l-0.139,2.525l-0.061,0.603l5.407,6.104
						l0.023-0.592l0.742-12.796l0.038-0.625c-2.246-2.551-4.096-4.638-5.324-6.093l-0.037,0.641L278.96,326.652z"/>
				</g>
			</g>
		</g>
		<g enable-background="new    ">
			<g>
				<g>
					<defs>
						<rect id="SVGID_11_" x="294.168" y="343.605" width="6.127" height="20.001"/>
					</defs>
					<clipPath id="SVGID_12_">
						<use xlink:href="#SVGID_11_"  overflow="visible"/>
					</clipPath>
					<path clip-path="url(#SVGID_12_)" fill="#A8AAAD" d="M294.876,344.882l-0.305,5.75l-0.369,6.315l-0.034,0.637l5.324,6.022
						l0.026-0.603l0.023-0.625l0.226-3.885l0.482-8.18l0.049-0.603c-1.793-2.053-3.602-4.111-5.351-6.104l-0.022,0.652
						L294.876,344.882z"/>
				</g>
			</g>
		</g>
		<g enable-background="new    ">
			<g>
				<path fill="#A8AAAD" d="M99.833,135.781c0.415-0.132,3.165-0.955,4.062-1.229c-0.693-0.827-4.755-5.75-4.755-5.75l0.603-0.189
					c0.942-0.32,1.711-0.91,2.468-1.441c0,0,0.648-0.426,1.119-0.733c-0.576-0.671-4.744-5.501-4.744-5.501
					s-0.652-0.742-0.652-0.755l-10.743-10.083c-6.873-6.492-15.913-15.04-23.882-22.301c9.255,13.318,21.591,29.966,27.895,38.206
					C91.204,126.005,99.483,135.391,99.833,135.781"/>
			</g>
		</g>
		<path fill="#0A1B23" d="M90.801,135.958l0.546-0.213l-6.756-8.476l-0.294-0.367l-0.354,0.343
			c-2.397,2.383-5.999,5.997-3.045,8.936C82.565,137.859,88.326,136.973,90.801,135.958"/>
		<path fill="#3A3F95" d="M90.801,135.958l0.546-0.213l-6.756-8.476l-0.294-0.367l-0.354,0.343
			c-2.397,2.383-5.999,5.997-3.045,8.936C82.565,137.859,88.326,136.973,90.801,135.958"/>
		<path fill="#0A1B23" d="M109.103,123.536c2.585-1.486,4.394-3.695,4.83-5.903c0.189-1.016,0.046-1.842-0.392-2.444
			c-1.639-2.067-5.63-1.771-11.251,0.827l-0.554,0.248l7.061,7.403L109.103,123.536z"/>
		<path fill="#3A3F95" d="M109.103,123.536c2.585-1.486,4.394-3.695,4.83-5.903c0.189-1.016,0.046-1.842-0.392-2.444
			c-1.639-2.067-5.63-1.771-11.251,0.827l-0.554,0.248l7.061,7.403L109.103,123.536z"/>
		<path fill="#0A1B23" d="M108.04,130.372l-0.494,0.26l2.479,2.986l0.268-0.081c0.083-0.036,9.13-2.834,15.302-5.62l0.448-0.177
			l-7.344-11.7l-0.757,0.437c0.625,1.134,0.686,2.432,0.237,3.885C117.095,123.843,113.108,127.764,108.04,130.372"/>
		<path fill="#3A3F95" d="M108.04,130.372l-0.494,0.26l2.479,2.986l0.268-0.081c0.083-0.036,9.13-2.834,15.302-5.62l0.448-0.177
			l-7.344-11.7l-0.757,0.437c0.625,1.134,0.686,2.432,0.237,3.885C117.095,123.843,113.108,127.764,108.04,130.372"/>
		<g enable-background="new    ">
			<g>
				<path fill="#A8AAAD" d="M199.966,111.684c27.164,0.034,47.165,6.186,64.747,12.951c0.305-0.731,12.502-29.02,13.399-31.109
					c-2.031,1.076-30.472,16.033-30.472,16.033s4.887-52.245,5.136-54.972c-1.737,2.138-37.01,45.891-37.01,45.891
					s-14.948-53.305-15.728-56.139c-0.803,2.834-15.867,56.105-15.867,56.105s-35.209-43.8-36.942-45.95
					c0.256,2.737,5.053,55.006,5.053,55.006s-28.407-15.04-30.45-16.116c0.897,2.089,13.045,30.401,13.388,31.133
					C152.763,117.811,172.798,111.646,199.966,111.684"/>
			</g>
		</g>
		<path fill="#0A1B23" d="M315.597,127.067l-0.641,0.838l-6.41,8.017l0.505,0.224c2.495,1.004,8.278,1.89,9.933,0.235
			c2.951-2.941-0.652-6.553-3.037-8.951L315.597,127.067z"/>
		<path fill="#3A3F95" d="M315.597,127.067l-0.641,0.838l-6.41,8.017l0.505,0.224c2.495,1.004,8.278,1.89,9.933,0.235
			c2.951-2.941-0.652-6.553-3.037-8.951L315.597,127.067z"/>
		<path fill="#0A1B23" d="M290.803,123.666l0.305,0.177l7.084-7.427l-0.576-0.222c-5.622-2.598-9.608-2.928-11.24-0.852
			c-0.448,0.58-0.565,1.43-0.377,2.434C286.409,119.972,288.218,122.166,290.803,123.666"/>
		<path fill="#3A3F95" d="M290.803,123.666l0.305,0.177l7.084-7.427l-0.576-0.222c-5.622-2.598-9.608-2.928-11.24-0.852
			c-0.448,0.58-0.565,1.43-0.377,2.434C286.409,119.972,288.218,122.166,290.803,123.666"/>
		<path fill="#0A1B23" d="M274.299,128.071c6.172,2.773,15.193,5.571,15.275,5.607l0.298,0.083l2.445-2.999l-0.46-0.249
			c-5.091-2.609-9.043-6.562-10.132-10.021c-0.46-1.43-0.366-2.753,0.237-3.874l-0.746-0.424l-7.367,11.662L274.299,128.071z"/>
		<path fill="#3A3F95" d="M274.299,128.071c6.172,2.773,15.193,5.571,15.275,5.607l0.298,0.083l2.445-2.999l-0.46-0.249
			c-5.091-2.609-9.043-6.562-10.132-10.021c-0.46-1.43-0.366-2.753,0.237-3.874l-0.746-0.424l-7.367,11.662L274.299,128.071z"/>
		<path fill="#0A1B23" d="M298.098,163.323h1.051c0,0,35.48-0.035,36.223-0.035c0,0.708,0.011,4.252,0.011,4.252
			c0.06,5.145,0.094,10.106,0.094,14.899c0,9.763-0.101,18.818-0.377,27.449c0,0-0.155,6.01-0.234,8.158
			c-1.089-0.788-27.91-20.517-28.347-20.813c0-0.365,0.027-2.195,0.027-2.195v-8.701h-0.452l-10.875,0.011
			c0,0-0.007,0.803-0.007,0.991c0,5.43,1.131,9.361,6.948,16.09l9.152,10.389c0.023,0,7.781,8.866,7.781,8.866l1.7,1.876
			c3.99,4.228,10.599,11.24,10.599,27.157c0,4.605-0.542,9.955-1.888,16.21c-4.07,18.949-6.598,27.108-9.16,33.506
			c-0.049,0.098-0.095,0.226-0.095,0.226s-2.268,4.804-2.92,6.176c-0.731-0.629-4.284-3.825-4.284-3.825
			c-3.663-3.248-7.461-6.447-11.357-9.458l-0.282-0.226l-6.835,5.822l0.388,0.343c8.678,7.212,16.847,15.453,24.379,24.473
			l0.414,0.486l0.305-0.591c8.998-17.356,15.536-38.171,19.443-61.864c3.636-22.115,5.124-59.328,4.217-104.794l-0.049-2.632h-0.437
			l-37.281-0.025L298.098,163.323z"/>
		<path fill="#3A3F95" d="M298.098,163.323h1.051c0,0,35.48-0.035,36.223-0.035c0,0.708,0.011,4.252,0.011,4.252
			c0.06,5.145,0.094,10.106,0.094,14.899c0,9.763-0.101,18.818-0.377,27.449c0,0-0.155,6.01-0.234,8.158
			c-1.089-0.788-27.91-20.517-28.347-20.813c0-0.365,0.027-2.195,0.027-2.195v-8.701h-0.452l-10.875,0.011
			c0,0-0.007,0.803-0.007,0.991c0,5.43,1.131,9.361,6.948,16.09l9.152,10.389c0.023,0,7.781,8.866,7.781,8.866l1.7,1.876
			c3.99,4.228,10.599,11.24,10.599,27.157c0,4.605-0.542,9.955-1.888,16.21c-4.07,18.949-6.598,27.108-9.16,33.506
			c-0.049,0.098-0.095,0.226-0.095,0.226s-2.268,4.804-2.92,6.176c-0.731-0.629-4.284-3.825-4.284-3.825
			c-3.663-3.248-7.461-6.447-11.357-9.458l-0.282-0.226l-6.835,5.822l0.388,0.343c8.678,7.212,16.847,15.453,24.379,24.473
			l0.414,0.486l0.305-0.591c8.998-17.356,15.536-38.171,19.443-61.864c3.636-22.115,5.124-59.328,4.217-104.794l-0.049-2.632h-0.437
			l-37.281-0.025L298.098,163.323z"/>
		<g enable-background="new    ">
			<g>
				<path fill="#A8AAAD" d="M302.009,120.337l-0.641,0.722c0,0-4.217,4.9-4.804,5.537c0.46,0.318,1.096,0.72,1.096,0.72
					c0.78,0.567,1.549,1.134,2.491,1.453l0.603,0.235c0,0-4.062,4.887-4.759,5.703c0.878,0.285,3.629,1.121,4.055,1.251
					c0.953-1.076,8.64-9.763,8.618-9.741c6.375-8.275,18.723-24.899,28.004-38.193c-7.992,7.25-17.073,15.797-23.931,22.265
					L302.009,120.337z"/>
			</g>
		</g>
		<path fill="#A8AAAD" d="M147.782,157.73c0.011,0.507,0.034,3.99,0.034,4.686c0.848,0,103.354,0.071,104.206,0.071
			c0-0.661,0.023-4.145,0.045-4.687c-12.619-4.759-29.918-10.2-52.161-10.212C177.701,147.575,160.401,152.97,147.782,157.73
			 M241.923,159.346l-84.013-0.047l6.519-4.724l70.968,0.072L241.923,159.346z"/>
		<polygon fill="#0A1B23" points="157.911,159.299 241.923,159.346 235.397,154.647 164.43,154.576 		"/>
		<polygon fill="#0A1B23" points="157.911,159.299 241.923,159.346 235.397,154.647 164.43,154.576 		"/>
		<path fill="#FFFFFF" d="M330.801,209.77c0.475-16.127,0.441-31.38,0.298-42.183l-37.722,0.036
			c-1.959,0.921-3.908,1.076-5.419,1.076c-1.899,0-4.262-0.377-7.012-1.076l-9.281,0.024l-0.294,6.542
			c-0.155,10.424-0.769,27.426,9.503,38.83c7.875,8.738,11.594,12.623,14.07,15.159c1.704,1.783,2.815,2.951,4.266,4.628
			c0.305,0.365,0.648,0.731,1.029,1.134c3.354,3.613,7.849,8.418,5.204,25.536c-0.245,1.571-1.322,5.501-1.677,7.299
			c-3.271-2.4-13.799-8.384-17.416-10.298c0.569-3.825,1.1-7.615,1.549-11.391l-18.098-14.266
			c-1.062,12.42-2.634,24.96-4.985,36.599c16.022,6.99,33.404,17.593,51.076,33.415l0.46-1.002
			c2.423-6.044,4.853-13.742,8.972-32.797c5.475-25.612-2.762-34.324-7.661-39.569c-0.674-0.693-1.311-1.368-1.854-2.031
			c-2.363-2.796-4.842-5.581-7.698-8.768l-9.149-10.388c-8.053-9.27-8.267-14.321-7.958-22.443l0.045-1.76l19.718-0.011
			c0.068,3.815,0.083,8.229,0.068,13L330.801,209.77z"/>
		<path fill="#FFFFFF" d="M116.507,276.642c6.127-3.557,12.077-6.651,17.921-9.198c-2.317-11.655-3.979-24.214-5.042-36.577
			l-17.589-9.974l16.222-11.688c-0.641-15.574-0.641-29.941-0.475-41.807l-8.075-0.034c-2.988,0.778-5.573,1.202-7.615,1.202
			c-0.731-0.022-1.617-0.069-2.525-0.201c-0.226,9.648-0.358,22.303,0.011,36.635l-18.855,13.72
			c-0.78-19.338-0.686-38.606-0.497-51.346l-21.241-0.009c-0.305,21.463-0.354,63.94,3.813,90.905
			c2.479,16.044,6.093,30.239,10.637,42.813c5.656-5.076,11.206-9.673,16.757-13.697c-2.446-9.115-4.56-18.867-6.142-29.09
			c-1.345-8.633-2.231-18.904-2.822-29.481l20.393,12.043C112.505,253.05,114.144,265.293,116.507,276.642"/>
		<path fill="#0A1B23" d="M299.149,292.604c-11.64-8.738-23.742-15.89-36.034-21.263c0,0-2.43-1.04-3.176-1.361
			c0.117-0.576,0.674-3.41,0.674-3.41c2.114-10.411,3.757-22.548,4.91-36.128c0,0,0.509-5.811,0.686-7.921
			c1.051,0.84,25.785,20.333,26.244,20.709c-0.056,0.365-0.294,2.363-0.294,2.363l-1.134,8.557l0.271,0.154l9.707,5.599l0.117-0.629
			l0.094-0.437c2.325-15.076-1.108-18.735-4.118-21.971l-1.146-1.285l-4.096-4.443l-14.179-15.264
			c-11.063-12.258-10.792-30.058-10.604-40.731v-1.051c0.011-0.117,0.305-6.647,0.305-6.647l0.2-4.569l-6.952-2.621
			c0,0-0.011,8.62-0.011,9.422c-0.848,0-120.54-0.117-121.415-0.117v-9.375l-7.284,2.739v0.294l-0.049,4.264
			c-0.094,4.651-0.143,9.162-0.143,13.587c0,9.754,0.192,18.986,0.569,27.935c0,0,0.095,1.922,0.095,2.314
			c-0.305,0.237-12.657,9.153-12.657,9.153S133,228,133.449,228.264c0.037,0.377,0.203,2.253,0.203,2.253
			c1.119,12.936,2.785,25.088,4.981,36.113c0,0,0.509,2.574,0.686,3.387c-0.543,0.23-3.176,1.372-3.176,1.372
			c-5.596,2.434-11.297,5.362-17.472,8.949c0,0-3.768,2.185-5.124,3.011c-0.204-0.98-1.206-5.829-1.206-5.829
			c-2.076-9.933-3.742-21.323-4.993-33.837l-0.011-0.233l-11.545-6.801l0.068,0.825c0.592,7.777,1.337,14.556,2.197,20.152
			c1.5,9.718,3.531,19.353,6.01,28.668c0,0,0.637,2.351,0.791,2.83c-0.403,0.297-2.374,1.726-2.374,1.726l-2.193,1.621l0.365,0.776
			c10.826-2.525,23.317-7.577,30.721-11.119c31.109-17.084,58.239-18.927,68.462-18.927c10.215,0.027,37.345,1.903,68.394,18.995
			c7.382,3.58,19.764,8.595,30.544,11.195L299.149,292.604z M161.536,262.851c-4.062,0.991-8.026,2.136-11.794,3.387
			c0,0-3.919,1.289-4.699,1.583c-0.154-0.848-0.874-4.91-0.874-4.91c-4.356-25.269-5.456-53.284-5.456-74.853
			c0-3.318,0.011-6.517,0.06-9.528c0,0,0.061-3.093,0.072-4.214c0.697,0,20.389,0.011,21.523,0.011c0,0.731-0.049,4.331-0.049,4.331
			c-0.056,3.86-0.105,7.604-0.105,11.334c0,25.546,1.526,48.392,4.548,68.05c0,0,0.471,3.21,0.588,3.851L161.536,262.851z
			 M211.643,254.456c0,0-0.298,3.425-0.343,4.111c-0.686-0.034-4.122-0.177-4.122-0.177l-7.389-0.132l-0.84-0.03
			c-0.06,0-0.505-0.037-0.505-0.037s-3.226,0.015-4.322,0.015c0-0.708,0.128-42.907,0.128-42.907l-7.958-5.241l0.011,0.803
			c0.154,17.318,0.652,31.58,1.466,43.589c0,0,0.233,3.188,0.282,4.202c-0.659,0.049-4.156,0.38-4.156,0.38l-9.198,1.157
			c0,0-3.647,0.543-4.394,0.659c-0.094-0.742-0.505-4.393-0.505-4.393c-2.186-18.641-3.275-39.938-3.275-63.494
			c0-4.699,0.038-9.514,0.132-14.426c0,0,0.072-3.201,0.072-4.203c0.72,0,15.479,0.011,15.479,0.011s3.681,0,4.378,0.025
			c-0.034,0.708-0.188,8.229-0.188,8.229l7.804,5.49c0,0-0.012-13.011-0.012-13.742c0.72,0,18.573,0.036,19.692,0.036
			c0,0.695,0.06,4.237,0.06,4.237c0.045,3.908,0.083,8.254,0.083,12.904C214.025,209.356,213.531,232.002,211.643,254.456
			 M254.709,267.844c-0.776-0.282-4.684-1.594-4.684-1.594c-9.386-3.15-19.032-5.324-29.481-6.658c0,0-3.459-0.46-4.156-0.542
			c0.071-0.697,0.448-4.19,0.448-4.19c2.408-22.563,3.719-48.205,3.956-76.234c0,0,0.034-3.555,0.034-4.252
			c0.705,0,40.329,0.06,41.038,0.06v5.1c0,6.528-0.132,13.554-0.426,21.96c0,0-0.204,5.831-0.226,7.022
			c-1.04-0.554-14.533-8.109-14.533-8.109c-1.217-0.695-1.865-1.04-2.219-1.229c0-0.401,0.06-3.672,0.06-3.672l0.022-2.125h-4.721
			v0.426c-0.486,19.147-1.394,35.136-2.777,48.878l-0.023,0.399l3.847,0.746l0.049-0.486l1.594-14.744l-0.426-0.034
			c-0.829-0.105-1.311-0.166-1.68-0.203c0.06-0.671,0.463-6.255,0.463-6.255s0.543-7.841,0.614-9.043
			c0.708,0.083,3.87,0.369,3.87,0.369c0.026,0,11.56,1.085,11.56,1.085s3.105,0.339,4.062,0.445c-0.049,0.663-0.26,4.088-0.26,4.088
			c-1.063,16.444-2.789,31.203-5.11,43.917C255.609,262.968,254.84,267.03,254.709,267.844"/>
		<path fill="#3A3F95" d="M299.149,292.604c-11.64-8.738-23.742-15.89-36.034-21.263c0,0-2.43-1.04-3.176-1.361
			c0.117-0.576,0.674-3.41,0.674-3.41c2.114-10.411,3.757-22.548,4.91-36.128c0,0,0.509-5.811,0.686-7.921
			c1.051,0.84,25.785,20.333,26.244,20.709c-0.056,0.365-0.294,2.363-0.294,2.363l-1.134,8.557l0.271,0.154l9.707,5.599l0.117-0.629
			l0.094-0.437c2.325-15.076-1.108-18.735-4.118-21.971l-1.146-1.285l-4.096-4.443l-14.179-15.264
			c-11.063-12.258-10.792-30.058-10.604-40.731v-1.051c0.011-0.117,0.305-6.647,0.305-6.647l0.2-4.569l-6.952-2.621
			c0,0-0.011,8.62-0.011,9.422c-0.848,0-120.54-0.117-121.415-0.117v-9.375l-7.284,2.739v0.294l-0.049,4.264
			c-0.094,4.651-0.143,9.162-0.143,13.587c0,9.754,0.192,18.986,0.569,27.935c0,0,0.095,1.922,0.095,2.314
			c-0.305,0.237-12.657,9.153-12.657,9.153S133,228,133.449,228.264c0.037,0.377,0.203,2.253,0.203,2.253
			c1.119,12.936,2.785,25.088,4.981,36.113c0,0,0.509,2.574,0.686,3.387c-0.543,0.23-3.176,1.372-3.176,1.372
			c-5.596,2.434-11.297,5.362-17.472,8.949c0,0-3.768,2.185-5.124,3.011c-0.204-0.98-1.206-5.829-1.206-5.829
			c-2.076-9.933-3.742-21.323-4.993-33.837l-0.011-0.233l-11.545-6.801l0.068,0.825c0.592,7.777,1.337,14.556,2.197,20.152
			c1.5,9.718,3.531,19.353,6.01,28.668c0,0,0.637,2.351,0.791,2.83c-0.403,0.297-2.374,1.726-2.374,1.726l-2.193,1.621l0.365,0.776
			c10.826-2.525,23.317-7.577,30.721-11.119c31.109-17.084,58.239-18.927,68.462-18.927c10.215,0.027,37.345,1.903,68.394,18.995
			c7.382,3.58,19.764,8.595,30.544,11.195L299.149,292.604z M161.536,262.851c-4.062,0.991-8.026,2.136-11.794,3.387
			c0,0-3.919,1.289-4.699,1.583c-0.154-0.848-0.874-4.91-0.874-4.91c-4.356-25.269-5.456-53.284-5.456-74.853
			c0-3.318,0.011-6.517,0.06-9.528c0,0,0.061-3.093,0.072-4.214c0.697,0,20.389,0.011,21.523,0.011c0,0.731-0.049,4.331-0.049,4.331
			c-0.056,3.86-0.105,7.604-0.105,11.334c0,25.546,1.526,48.392,4.548,68.05c0,0,0.471,3.21,0.588,3.851L161.536,262.851z
			 M211.643,254.456c0,0-0.298,3.425-0.343,4.111c-0.686-0.034-4.122-0.177-4.122-0.177l-7.389-0.132l-0.84-0.03
			c-0.06,0-0.505-0.037-0.505-0.037s-3.226,0.015-4.322,0.015c0-0.708,0.128-42.907,0.128-42.907l-7.958-5.241l0.011,0.803
			c0.154,17.318,0.652,31.58,1.466,43.589c0,0,0.233,3.188,0.282,4.202c-0.659,0.049-4.156,0.38-4.156,0.38l-9.198,1.157
			c0,0-3.647,0.543-4.394,0.659c-0.094-0.742-0.505-4.393-0.505-4.393c-2.186-18.641-3.275-39.938-3.275-63.494
			c0-4.699,0.038-9.514,0.132-14.426c0,0,0.072-3.201,0.072-4.203c0.72,0,15.479,0.011,15.479,0.011s3.681,0,4.378,0.025
			c-0.034,0.708-0.188,8.229-0.188,8.229l7.804,5.49c0,0-0.012-13.011-0.012-13.742c0.72,0,18.573,0.036,19.692,0.036
			c0,0.695,0.06,4.237,0.06,4.237c0.045,3.908,0.083,8.254,0.083,12.904C214.025,209.356,213.531,232.002,211.643,254.456
			 M254.709,267.844c-0.776-0.282-4.684-1.594-4.684-1.594c-9.386-3.15-19.032-5.324-29.481-6.658c0,0-3.459-0.46-4.156-0.542
			c0.071-0.697,0.448-4.19,0.448-4.19c2.408-22.563,3.719-48.205,3.956-76.234c0,0,0.034-3.555,0.034-4.252
			c0.705,0,40.329,0.06,41.038,0.06v5.1c0,6.528-0.132,13.554-0.426,21.96c0,0-0.204,5.831-0.226,7.022
			c-1.04-0.554-14.533-8.109-14.533-8.109c-1.217-0.695-1.865-1.04-2.219-1.229c0-0.401,0.06-3.672,0.06-3.672l0.022-2.125h-4.721
			v0.426c-0.486,19.147-1.394,35.136-2.777,48.878l-0.023,0.399l3.847,0.746l0.049-0.486l1.594-14.744l-0.426-0.034
			c-0.829-0.105-1.311-0.166-1.68-0.203c0.06-0.671,0.463-6.255,0.463-6.255s0.543-7.841,0.614-9.043
			c0.708,0.083,3.87,0.369,3.87,0.369c0.026,0,11.56,1.085,11.56,1.085s3.105,0.339,4.062,0.445c-0.049,0.663-0.26,4.088-0.26,4.088
			c-1.063,16.444-2.789,31.203-5.11,43.917C255.609,262.968,254.84,267.03,254.709,267.844"/>
		<path fill="#0A1B23" d="M213.885,174.375c-1.123,0-18.976-0.036-19.696-0.036c0,0.744,0.012,13.742,0.012,13.742l-7.804-5.49
			c0,0,0.154-7.508,0.188-8.229c-0.693-0.025-4.378-0.025-4.378-0.025s-14.756-0.022-15.479-0.022c0,1.002-0.08,4.215-0.08,4.215
			c-0.083,4.9-0.12,9.738-0.12,14.428c0,23.539,1.089,44.84,3.271,63.492c0,0,0.414,3.663,0.509,4.394
			c0.742-0.117,4.394-0.659,4.394-0.659l9.198-1.172c0,0,3.493-0.317,4.156-0.366c-0.049-1.014-0.286-4.216-0.286-4.216
			c-0.814-11.994-1.308-26.241-1.462-43.574l-0.012-0.795l7.958,5.245c0,0-0.132,42.195-0.132,42.892c1.1,0,4.322-0.011,4.322-0.011
			s0.448,0.034,0.509,0.034l0.84,0.026l7.389,0.139c0,0,3.437,0.144,4.122,0.166c0.045-0.671,0.343-4.096,0.343-4.096
			c1.888-22.458,2.381-45.104,2.381-62.929c0-4.663-0.034-9.021-0.079-12.926C213.946,178.601,213.885,175.084,213.885,174.375
			 M207.382,254.102c-2.717-0.117-5.245-0.154-7.582-0.154c-0.448,0-0.946-0.046-1.383-0.046c0.083-13.41,0.144-28.136,0.144-40.91
			l-16.614-10.92c0.06,16.09,0.343,35.039,1.56,52.681c-2.988,0.272-6.187,0.697-9.443,1.18c-3.391-29.067-3.436-59.421-3.12-77.317
			h11.263c-0.083,2.052-0.106,4.096-0.143,6.185l16.47,11.523c-0.034-6.046-0.045-11.937-0.045-17.687h11.168
			C209.895,196.463,209.801,225.069,207.382,254.102"/>
		<path fill="#0A1B23" d="M160.213,189.995c0-3.73,0.045-7.474,0.105-11.334c0,0,0.049-3.6,0.049-4.344
			c-1.134,0-20.83-0.023-21.523-0.023c-0.011,1.144-0.072,4.237-0.072,4.237c-0.049,3.011-0.06,6.21-0.06,9.539
			c0,21.569,1.097,49.573,5.452,74.853c0,0,0.723,4.051,0.874,4.899c0.78-0.283,4.699-1.583,4.699-1.583
			c3.768-1.251,7.736-2.393,11.798-3.387l3.813-0.957c-0.117-0.637-0.592-3.851-0.592-3.851
			C161.735,238.389,160.213,215.543,160.213,189.995 M148.385,262.177c-5.174-29.775-5.644-62.723-5.313-83.585h12.962
			c-0.32,19.645-0.061,50.517,4.476,80.092C156.622,259.626,152.526,260.797,148.385,262.177"/>
		<path fill="#0A1B23" d="M260.979,214.974c-0.953-0.117-4.062-0.46-4.062-0.46s-11.534-1.085-11.557-1.085
			c0,0-3.166-0.286-3.874-0.369c-0.068,1.206-0.614,9.043-0.614,9.043s-0.399,5.588-0.46,6.259c0.366,0.038,0.852,0.098,1.677,0.203
			l0.426,0.03l-1.594,14.748l-0.045,0.482l-3.851-0.742l0.026-0.403c1.379-13.742,2.287-29.726,2.773-48.876v-0.426h4.725
			l-0.026,2.125c0,0-0.061,3.27-0.061,3.672c0.358,0.189,1.006,0.533,2.219,1.204c0,0,13.497,7.567,14.533,8.132
			c0.027-1.191,0.226-7.022,0.226-7.022c0.298-8.405,0.426-15.43,0.426-21.96v-5.1c-0.708,0-40.33-0.061-41.038-0.061
			c0,0.697-0.034,4.239-0.034,4.239c-0.233,28.015-1.545,53.68-3.956,76.243c0,0-0.377,3.493-0.449,4.194
			c0.697,0.079,4.156,0.543,4.156,0.543c10.449,1.334,20.095,3.519,29.481,6.658c0,0,3.908,1.322,4.688,1.594
			c0.128-0.814,0.897-4.876,0.897-4.876c2.325-12.717,4.051-27.473,5.113-43.921C260.719,219.051,260.933,215.626,260.979,214.974
			 M251.381,262.199c-11.014-3.719-21.252-5.724-30.284-6.869c3.131-29.421,3.825-58.547,3.957-76.671l32.514,0.025
			c0.045,6.752-0.105,13.932-0.426,22.68l-8.357-4.723c0.045-2.397,0.094-5.288,0.094-7.532l-13.249-0.025
			c-0.283,13.294-0.908,36.162-3.293,57.602c3.885,0.543,7.981,1.334,12.182,2.302c1.172-8.806,2.02-16.892,2.645-24.12
			l-2.585-0.286c0.155-2.287,0.343-4.65,0.46-6.884c3.696,0.271,7.487,0.663,11.417,1.063
			C255.538,232.816,254.015,247.926,251.381,262.199"/>
		<path fill="#FFFFFF" d="M156.034,178.601h-12.962c-0.331,20.853,0.139,53.801,5.313,83.576c4.141-1.379,8.237-2.551,12.126-3.493
			C155.974,229.108,155.714,198.236,156.034,178.601"/>
		<path fill="#FFFFFF" d="M198.489,178.637c0,5.775,0.011,11.666,0.049,17.687l-16.47-11.536c0.034-2.067,0.061-4.12,0.14-6.174
			h-11.251c-0.328,17.898-0.283,48.252,3.108,77.315c3.256-0.482,6.455-0.908,9.443-1.176c-1.217-17.642-1.5-36.592-1.56-52.681
			l16.614,10.92c0,12.774-0.061,27.496-0.144,40.91c0.437,0,0.935,0.072,1.383,0.072c2.336,0,4.865,0.007,7.582,0.128
			c2.419-29.033,2.513-57.638,2.276-75.467h-11.168V178.637z"/>
		<path fill="#FFFFFF" d="M244.58,224.587l2.585,0.282c-0.625,7.227-1.473,15.314-2.645,24.12c-4.202-0.965-8.297-1.76-12.182-2.302
			c2.385-21.44,3.01-44.307,3.293-57.6l13.249,0.024c0,2.244-0.049,5.136-0.094,7.533l8.357,4.723
			c0.32-8.748,0.471-15.926,0.426-22.68l-32.514-0.025c-0.132,18.125-0.825,47.248-3.957,76.669
			c9.032,1.145,19.27,3.154,30.284,6.873c2.634-14.273,4.156-29.383,5.075-43.434c-3.93-0.403-7.72-0.791-11.417-1.063
			C244.923,219.933,244.735,222.295,244.58,224.587"/>
		<polygon fill="#3A3F95" points="99.705,357.784 99.28,350.135 99.208,349.543 88.597,361.624 88.642,362.249 89.339,374.868 
			89.399,375.449 100.01,363.429 99.988,362.837 		"/>
		<path fill="#3A3F95" d="M83.695,373.384l-0.305-5.147l-0.045-0.592l-8.693,9.846c-0.837,0.957-1.263,2.197-1.191,3.497
			c0.083,1.296,0.648,2.502,1.605,3.327c2.008,1.805,5.087,1.594,6.835-0.403l2.257-2.525l-0.037-0.648L83.695,373.384z"/>
		<polygon fill="#3A3F95" points="115.241,331.976 115.169,331.4 104.547,343.477 104.592,344.091 105.301,356.808 105.35,357.407 
			115.987,345.402 115.938,344.788 		"/>
		<path fill="#3A3F95" d="M122.48,323.193l-0.143,0.061l-1.816,2.053l0.06,0.599l0.305,5.207l0.448,7.566l0.011,0.629l8.124-9.175
			l0.008-0.128c0.083-0.415,0.109-0.852,0.109-1.266c0-1.778-0.652-3.353-1.854-4.412
			C126.375,323.159,124.488,322.745,122.48,323.193"/>
		<g enable-background="new    ">
			<g>
				<path fill="#A8AAAD" d="M178.868,270.527c-6.142,1.036-12.34,2.442-18.395,4.281c-8.833,5.991-16.553,9.801-18.004,10.475
					c-6.801,3.26-19.338,9.255-31.524,11.7c1.206,1.085,44.26,39.316,45.469,40.378c0.505-6.115,1.865-13.071,4.262-21.214
					c-1.006-3.542-1.515-7.216-1.515-10.886v-0.038C159.173,290.89,166.705,277.878,178.868,270.527"/>
			</g>
		</g>
		<g enable-background="new    ">
			<g>
				<path fill="#A8AAAD" d="M238.57,274.939c-5.795-1.79-11.674-3.162-17.484-4.202c11.949,7.378,19.338,20.344,19.338,34.512v0.022
					c0,4.156-0.637,8.241-1.877,12.175c2.125,7.532,3.388,14.213,3.847,20.012c1.229-1.066,44.324-39.271,45.552-40.322
					c-12.186-2.453-24.711-8.474-31.512-11.734C254.98,284.684,247.225,280.844,238.57,274.939"/>
			</g>
		</g>
		<path fill="#3A3F95" d="M277.106,323.333c-2.042-0.437-3.896-0.057-5.275,1.123c-1.5,1.289-2.114,3.365-1.759,5.656l0.034,0.143
			l8.041,9.16l0.061-0.614l0.139-2.525l0.648-10.238l0.037-0.625c-1.134-1.3-1.82-2.042-1.82-2.042L277.106,323.333z"/>
		<path fill="#3A3F95" d="M315.337,380.95l-0.034,0.625l2.231,2.54c1.771,2.02,4.831,2.182,6.862,0.422
			c0.953-0.825,1.545-2.016,1.605-3.327c0.011-0.083,0.011-0.222,0.011-0.294c0-1.18-0.426-2.317-1.206-3.214
			c0,0-3.519-4.051-8.667-9.88l-0.034,0.603L315.337,380.95z"/>
		<path fill="#3A3F95" d="M283.576,344.916l-0.023,0.592l10.615,12.077l0.034-0.637l0.369-6.315l0.354-6.376l0.022-0.652
			c-3.93-4.499-7.604-8.678-10.588-12.115l-0.038,0.648L283.576,344.916z"/>
		<path fill="#3A3F95" d="M299.767,358.496l-0.248,4.499l-0.026,0.614l10.614,12.061l0.012-0.599l0.592-9.955l0.143-2.691
			l0.034-0.629c-3.327-3.798-6.978-7.965-10.592-12.088l-0.049,0.603L299.767,358.496z"/>
	</g>
</g>
</svg>
