<?xml version="1.0" encoding="utf-8"?>
<!-- Generator: Adobe Illustrator 19.1.0, SVG Export Plug-In . SVG Version: 6.00 Build 0)  -->
<svg version="1.1" id="Layer_1" xmlns="http://www.w3.org/2000/svg" xmlns:xlink="http://www.w3.org/1999/xlink" x="0px" y="0px"
	 viewBox="0 0 100 100" style="enable-background:new 0 0 100 100;" xml:space="preserve">
<style type="text/css">
	.st0{fill-rule:evenodd;clip-rule:evenodd;fill:#C0CAD2;}
	.st1{fill-rule:evenodd;clip-rule:evenodd;}
	.st2{fill-rule:evenodd;clip-rule:evenodd;fill:#FFFFFF;}
</style>
<g>
	<path class="st0" d="M90.6,42.7c0.3-1,0.7-2.5,0.7-2.5L88,38.9c-0.1-0.1-0.3-0.1-0.4-0.2l0.6-1.7l-3.1-1c0.2-0.8,0.4-1.3,0.4-1.3
		l0.4-1.2l-1.2-0.4c-11.5-3.9-22.2-5.6-34.6-5.6c-12.4,0-23.1,1.7-34.6,5.6l-1.2,0.4l0.4,1.2c0,0,0.2,0.5,0.4,1.3l-3.1,1l0.6,1.7
		c-0.2,0.1-0.3,0.1-0.4,0.2l-3.3,1.3c0,0,0.4,1.5,0.7,2.5c-0.9,0.3-2.8,1-2.8,1l7,21.3c0,0,1.9-0.7,2.9-1c0.4,1.1,0.9,2.4,0.9,2.4
		l3.7-1.5c0.1,0,0.2-0.1,0.4-0.1l0.4,1.2l1.3-0.6c1.1-0.5,4.5-1.8,9.1-3.1c-1.7,2.4-3.4,5-3.4,5s9.6-3.1,10.6-3.4
		c0.3,0.8,4.2,10.1,4.2,10.1s2.8-9.6,3.1-10.5c0.8,0.2,12,3.1,12,3.1s-3.2-3.7-5.6-6.4c10.9,0.1,20.7,3.9,23.6,5.2l1.3,0.6l0.4-1.2
		c0.1,0.1,0.2,0.1,0.4,0.1l3.7,1.5c0,0,0.5-1.3,0.9-2.4c1,0.4,2.9,1,2.9,1l7-21.3C93.4,43.7,91.5,43,90.6,42.7L90.6,42.7z"/>
	<path class="st1" d="M88.8,43.6c0-0.1,0.7-2.5,0.7-2.5l-2.1-0.8c-0.5-0.2-1.1-0.4-1.6-0.6l0.6-1.6l-3-1c0.5-1.6,0.8-2.6,0.8-2.6
		c-10.6-3.6-21-5.6-34.2-5.6c-13.1,0-23.6,2-34.2,5.6c0,0,0.3,1,0.8,2.6l-3,1l0.6,1.6c-0.5,0.2-1.1,0.4-1.6,0.6l-2.1,0.8
		c0,0,0.7,2.4,0.7,2.5c-0.2,0.1-2.8,1-2.8,1l6.1,18.6c0,0,2.7-1,2.8-1l0.9,2.4l2.3-1c0.6-0.2,1.1-0.4,1.7-0.7
		c0.2,0.7,0.3,1.1,0.4,1.2c1.3-0.6,6.1-2.5,12.4-3.9c-1.4,2.1-3.3,5-3.3,5s8.3-2.7,8.4-2.8c0.1,0.2,3.3,8.1,3.3,8.1s2.4-8.2,2.4-8.4
		c0.2,0.1,9.6,2.5,9.6,2.5s-3.1-3.6-4.9-5.7c12.7-0.6,24.5,4.3,26.8,5.2c0.1-0.1,0.2-0.6,0.4-1.2c0.6,0.2,1.1,0.4,1.7,0.7l2.3,1
		l0.9-2.4c0.1,0.1,2.8,1,2.8,1l6.1-18.6C91.6,44.6,89,43.6,88.8,43.6L88.8,43.6z"/>
	<path class="st2" d="M13.3,42.2L13.3,42.2c0,0-0.2,0.1-0.3,0.1c0.2,0.5,0.8,2.6,0.8,2.6s-2.2,0.8-2.7,1c0.2,0.7,4.6,13.9,4.8,14.6
		c0.6-0.2,2.7-1,2.7-1s0.7,1.8,0.9,2.3c0.2-0.1,0.4-0.2,0.4-0.2c10.4-4.3,20-6.3,30.2-6.3c10.3,0,19.9,2,30.2,6.3
		c0,0,0.2,0.1,0.4,0.2c0.2-0.5,0.9-2.3,0.9-2.3s2.2,0.8,2.7,1c0.2-0.7,4.6-13.9,4.8-14.6c-0.5-0.2-2.7-1-2.7-1s0.6-2.1,0.8-2.6
		c-0.2-0.1-0.3-0.1-0.3-0.1c-11.3-4.6-24.3-7.1-36.7-7.1C37.7,35.1,24.6,37.6,13.3,42.2L13.3,42.2z"/>
	<path class="st0" d="M83.5,59c-0.8-0.3-2.7-1-2.7-1s-0.6,1.6-0.9,2.3c-10.2-4.1-19.8-6.1-29.9-6.1c-10.2,0-19.7,1.9-29.9,6.1
		c-0.3-0.7-0.9-2.3-0.9-2.3s-1.9,0.7-2.7,1c-0.4-1.3-3.7-11.3-4.1-12.4c0.8-0.3,2.7-1,2.7-1s-0.6-1.9-0.8-2.6
		c11-4.4,23.7-6.8,35.7-6.8c12,0,24.6,2.4,35.6,6.8c-0.2,0.7-0.8,2.6-0.8,2.6s1.9,0.7,2.7,1C87.2,47.8,83.9,57.8,83.5,59L83.5,59z"
		/>
	<path class="st2" d="M68.9,52.2l1.7-9.7l0-0.3c0-0.4-0.1-0.9-0.4-1.2c-0.3-0.5-0.8-0.8-1.4-0.9l-10.9-1.9l-0.8,4.5
		c0,0-1.5,8.6-1.5,9c0.6,0.1,4.4,0.7,5,0.8c0.1-0.6,0.8-4.5,0.8-4.5l3.1,0.5l-0.1,0.4c0,0-0.4,2.6-0.4,2.7c-0.1,0.6,0,0.8,0.2,1.1
		c0.2,0.3,0.5,0.4,0.9,0.5c-0.1,0,5.2,1.3,5.2,1.3L68.9,52.2L68.9,52.2z M65.5,44.5l-4-0.7l0.1-0.7l4,0.7L65.5,44.5L65.5,44.5z"/>
	<path class="st2" d="M31,51.9l-2.9-9c-0.4-1.1-1.6-1.7-2.7-1.4l0,0l-8.2,2.7c-0.5,0.2-1,0.6-1.2,1.1c-0.2,0.3-0.2,0.6-0.2,0.9
		c0,0.2,0,0.4,0.1,0.7l2.9,9c0.4,1.1,1.6,1.7,2.7,1.4l0,0c0.1,0,0.7-0.2,8.2-2.7c0.9-0.3,1.5-1.1,1.5-2C31.1,52.4,31.1,52.1,31,51.9
		L31,51.9z M21.1,48.3l-0.2-0.7l3.6-1.2l0.2,0.7L21.1,48.3L21.1,48.3z M22.5,52.4l-0.2-0.7l3.6-1.2l0.2,0.7L22.5,52.4L22.5,52.4z"/>
	<path class="st2" d="M43.1,45l-0.9-4.8c-0.1-0.6-0.4-1-0.9-1.4c-0.5-0.3-1-0.4-1.6-0.3c0,0-10.2,1.9-10.9,2.1
		c0.1,0.5,2.1,10.9,2.1,10.9l0.3,1.5l0.2,1.1c0,0,4.4-0.8,5-0.9c-0.1-0.6-0.8-4.5-0.8-4.5l5.9-1.1c0.6-0.1,1.1-0.4,1.4-0.9
		c0.3-0.4,0.4-0.8,0.4-1.3L43.1,45L43.1,45z M34.1,44.6l-0.1-0.7l4-0.8l0.1,0.7L34.1,44.6L34.1,44.6z"/>
	<path class="st2" d="M39.9,49.9c0,0.4,0.3,4.2,0.3,4.2s-4.7,0.2-5.3,0.2c0.5,0.4,4.2,3,4.2,3s-2.6,3.9-2.9,4.4
		c0.6-0.2,4.9-1.6,4.9-1.6s1.8,4.2,2,4.8c0.2-0.6,1.5-5.1,1.5-5.1s4.9,1.3,5.6,1.4c-0.4-0.5-3.6-4.2-3.6-4.2s3.8-3.3,4.3-3.7
		c-0.5,0-3,0-3,0l0.6-0.7h4.1l4.8-8.5v-6.1h-4.2l-1.8,3.3c0,0-0.2,1.7-0.2,2c-0.2,0.3-1.6,2.9-2.1,3.7c-0.2,0-0.4,0-0.7,0
		c0.7-1.3,1.7-2.9,1.7-2.9v-6.1h-4.4l-1.8,3.3c0,0-0.2,1.7-0.2,2C43.4,43.7,39.9,49.9,39.9,49.9L39.9,49.9z"/>
	<polygon class="st1" points="53.8,39.2 52.4,41.7 52.2,43.7 49.7,48.2 46.4,48.2 48.8,43.8 48.8,39.2 46.3,39.2 44.9,41.7 
		44.7,43.7 41.1,50.1 41.7,51.6 44,51.6 42.9,54.1 41.1,52.1 41.3,55.1 38,55.3 40.6,57.1 38.7,59.9 41.7,58.9 43,61.9 43.9,58.6 
		47.3,59.5 45.1,57 47.8,54.8 45,54.9 48,51.6 51.9,51.6 56.3,43.9 56.3,39.2 53.8,39.2 	"/>
	<path class="st2" d="M84,45.3c-0.3-0.5-0.7-0.9-1.2-1.1l-8.2-2.7c-0.6-0.2-1.1-0.1-1.6,0.1c-0.5,0.3-0.9,0.7-1.1,1.2l-2.9,9
		c-0.1,0.2-0.1,0.4-0.1,0.7c0,0.3,0.1,0.7,0.2,1c0.3,0.5,0.7,0.9,1.2,1.1l8.2,2.7c0.5,0.2,1.1,0.1,1.6-0.1c0.5-0.3,0.9-0.7,1.1-1.2
		l2.9-9c0.1-0.2,0.1-0.4,0.1-0.7C84.2,45.9,84.2,45.5,84,45.3L84,45.3z M77.7,52.4l-3.6-1.2l0.2-0.7l3.6,1.2L77.7,52.4L77.7,52.4z
		 M79.1,48.2L75.4,47l0.2-0.7l3.6,1.2L79.1,48.2L79.1,48.2z"/>
	<polygon class="st0" points="54.2,39.9 53.3,41.4 54.5,41.4 55.3,39.9 54.2,39.9 	"/>
	<polygon class="st0" points="47.9,39.9 46.7,39.9 45.8,41.4 47.1,41.4 47.9,39.9 	"/>
	<path class="st0" d="M50.1,48.8h-6.3l2.6-4.6h-1.2l-3.1,5.5h3.5l-2.6,5.8l-1.1-1.3l0.1,1.6L40.3,56l1.4,0.9l-1,1.4l1.6-0.5l0.6,1.6
		l0.5-1.7l1.7,0.4L44,56.9l1.4-1.2l-1.9,0.1h-0.1l4-6.1h3.5l3.1-5.5h-1.2L50.1,48.8L50.1,48.8z M42.7,57.2c-0.2,0-0.4-0.2-0.4-0.4
		c0-0.2,0.2-0.4,0.4-0.4c0.2,0,0.4,0.2,0.4,0.4C43.1,57,42.9,57.2,42.7,57.2L42.7,57.2z"/>
	<polygon class="st0" points="46.8,42.1 45.7,42.1 45.5,43.4 46.7,43.4 46.8,42.1 	"/>
	<polygon class="st0" points="53,43.4 54.1,43.4 54.2,42.1 53.1,42.1 53,43.4 	"/>
	<path class="st2" d="M20.5,37.2c0.2,0.6,0.5,0.6,1.2,0.4l1-0.3c1.1-0.3,1.3-0.5,1.1-1.2c-0.2-0.8-0.5-0.8-1.8-0.4
		c-0.9,0.2-1,0.2-1,0c0-0.1,0.1-0.2,0.2-0.3l0.9-0.2c0.4-0.1,0.4,0,0.5,0.2l0.8-0.2l0-0.1c-0.1-0.5-0.3-0.8-1.2-0.5l-1.1,0.3
		c-1,0.3-1,0.7-0.8,1.1c0.2,0.7,0.4,0.8,1.6,0.4c1.1-0.3,1.1-0.3,1.2-0.1c0.1,0.2-0.1,0.3-0.3,0.3l-1,0.3c-0.2,0.1-0.3,0.1-0.4-0.2
		L20.5,37L20.5,37.2L20.5,37.2z"/>
	<path class="st2" d="M26.4,36.4l0.9-0.2l0.1-0.5l1.7-0.4l0.4,0.4l0.9-0.2l-2.1-2.4l-1.1,0.2L26.4,36.4L26.4,36.4z M27.9,33.9
		l0.7,0.9L27.6,35L27.9,33.9L27.9,33.9z"/>
	<polygon class="st2" points="32.8,35.1 33.6,35 33.3,33 33.3,33 35.2,34.7 36.5,34.5 36,31.8 35.2,31.9 35.5,33.9 35.5,33.9 
		33.6,32.2 32.3,32.4 32.8,35.1 	"/>
	<path class="st2" d="M41.6,34l0.9-0.1l0.2-0.5l1.7-0.1l0.3,0.5l0.9-0.1L44,31.1l-1.1,0.1L41.6,34L41.6,34z M43.5,31.8l0.6,1
		L43,32.9L43.5,31.8L43.5,31.8z"/>
	<polygon class="st2" points="48.1,33.7 48.9,33.7 48.9,31.7 48.9,31.7 50.5,33.7 51.8,33.7 51.8,31 51,31 51,33 51,33 49.4,31 
		48.1,31 48.1,33.7 	"/>
	<polygon class="st2" points="54.4,31.7 55.6,31.8 55.5,33.9 56.3,33.9 56.4,31.8 57.6,31.9 57.7,31.2 54.4,31 54.4,31.7 	"/>
	<path class="st2" d="M60.1,33.2c-0.1,0.8,0.3,1,1.1,1.1l1.3,0.2c0.8,0.1,1.2-0.1,1.3-0.9l0.1-0.8c0.1-0.8-0.3-1-1.1-1.1l-1.3-0.1
		c-0.8-0.1-1.2,0.1-1.3,0.9L60.1,33.2L60.1,33.2z M61,32.7c0-0.3,0.2-0.6,0.6-0.5l1,0.1c0.4,0,0.5,0.3,0.5,0.6l0,0.3
		c0,0.4-0.1,0.5-0.5,0.5l-1.1-0.1c-0.4,0-0.5-0.2-0.4-0.6L61,32.7L61,32.7z"/>
	<polygon class="st2" points="66.3,34.9 67.2,35.1 67.5,33.1 67.5,33.1 68.7,35.4 70,35.6 70.5,32.9 69.7,32.7 69.3,34.7 69.3,34.7 
		68.1,32.4 66.8,32.2 66.3,34.9 	"/>
	<polygon class="st2" points="72.7,36.1 73.5,36.3 74.1,33.6 73.3,33.4 72.7,36.1 	"/>
	<path class="st2" d="M76.4,36c-0.2,0.8,0.2,1.1,0.9,1.3l1.3,0.3c0.7,0.2,1.2,0.1,1.4-0.6l0.2-0.8c0.2-0.8-0.2-1.1-0.9-1.3L78,34.6
		c-0.7-0.2-1.2-0.1-1.4,0.6L76.4,36L76.4,36z M77.4,35.7c0.1-0.3,0.2-0.5,0.6-0.4l1,0.3c0.4,0.1,0.4,0.3,0.4,0.7l-0.1,0.3
		c-0.1,0.4-0.2,0.5-0.6,0.4l-1-0.3c-0.4-0.1-0.4-0.3-0.3-0.7L77.4,35.7L77.4,35.7z"/>
	<path class="st1" d="M68.7,41.1l-9.8-1.7l-1.9,11.3l2.8,0.5l0.8-4.5l3.6,0.6l1.4,0.2c0.2,0,0.4,0.2,0.3,0.4l-0.6,3.4
		c-0.1,0.7,0.3,0.8,0.5,0.8c0.2,0.1,2.4,0.4,2.4,0.4c-0.1-0.1-0.2-0.3-0.1-0.8l0.7-4c0.1-0.4-0.1-0.7-0.5-0.9c0.5,0,0.7-0.4,0.7-0.8
		l0.1-0.3l0.6-3.6C69.6,41.7,69.2,41.2,68.7,41.1L68.7,41.1z M66.4,43.6l-0.2,1.2c0,0.2-0.2,0.4-0.5,0.3l-4.9-0.8l0.3-1.9l4.9,0.8
		C66.3,43.2,66.5,43.4,66.4,43.6L66.4,43.6z"/>
	<path class="st1" d="M78.2,51.2c0.2,0.1,0.3,0.3,0.2,0.5l-0.4,1.1c-0.1,0.2-0.3,0.3-0.5,0.3l-4.1-1.3c-0.2-0.1-0.3-0.3-0.3-0.5
		l0.2-0.7l-2.7-0.9L70,52.2c-0.2,0.5,0.1,1.1,0.6,1.3l8.2,2.7c0.5,0.2,1.1-0.1,1.3-0.6l1.4-4.3l0.2-0.5c0.2-0.5-0.1-1.1-0.6-1.3
		l-5.2-1.7l-0.9-0.3c-0.2-0.1-0.3-0.3-0.3-0.5l0.4-1.1c0.1-0.2,0.3-0.3,0.5-0.2l4.1,1.3c0.2,0.1,0.3,0.3,0.3,0.5l-0.2,0.6l2.7,0.9
		l0.8-2.4c0.2-0.5-0.1-1.1-0.7-1.3l-8.2-2.7c-0.5-0.2-1.1,0.1-1.3,0.6l-1.4,4.3l-0.1,0.4c-0.2,0.5,0.1,1.1,0.6,1.3l3.1,1L78.2,51.2
		L78.2,51.2z"/>
	<path class="st1" d="M22.8,50.9l-3.1,1c-0.5,0.2-1.1-0.1-1.3-0.6l-0.1-0.4l-1.4-4.3c-0.2-0.5,0.1-1.1,0.6-1.3l8.2-2.7
		c0.5-0.2,1.1,0.1,1.3,0.6l0.8,2.4l-2.6,0.8L25,45.9c-0.1-0.2-0.3-0.3-0.5-0.3L20.4,47c-0.2,0.1-0.3,0.3-0.3,0.5l0.4,1.1
		c0.1,0.2,0.3,0.3,0.5,0.3l0.9-0.3l5.2-1.7c0.5-0.2,1.1,0.1,1.3,0.6l0.2,0.5l1.4,4.3c0.2,0.5-0.1,1.1-0.6,1.3l-8.2,2.7
		c-0.5,0.2-1.1-0.1-1.3-0.6L19,53.1l2.7-0.9l0.2,0.7c0.1,0.2,0.3,0.3,0.5,0.3l4.1-1.3c0.2-0.1,0.3-0.3,0.3-0.5l-0.4-1.1
		c-0.1-0.2-0.3-0.4-0.5-0.3L22.8,50.9L22.8,50.9z"/>
	<path class="st1" d="M33.6,45.3l4.9-0.9c0.2-0.1,0.4-0.3,0.3-0.5l-0.2-1.1c-0.1-0.2-0.3-0.4-0.5-0.3l-4.9,0.9L33.6,45.3L33.6,45.3z
		 M34.9,52.2l-2.7,0.5l-2.1-11.3l9.8-1.9c0.5-0.1,1.1,0.3,1.2,0.8l0.9,4.8c0.1,0.6-0.2,1.1-0.8,1.2l-7.1,1.3L34.9,52.2L34.9,52.2z"
		/>
</g>
</svg>
