<?xml version="1.0" encoding="utf-8"?>
<!-- Generator: Adobe Illustrator 19.1.0, SVG Export Plug-In . SVG Version: 6.00 Build 0)  -->
<svg version="1.1" id="Layer_1" xmlns="http://www.w3.org/2000/svg" xmlns:xlink="http://www.w3.org/1999/xlink" x="0px" y="0px"
	 viewBox="0 0 400 400" enable-background="new 0 0 400 400" xml:space="preserve">
<g>
	<path fill="#AA9E9E" d="M313.243,211.175l16.574-3.765c-2.282-31.526-12.681-57.479-28.153-78.201l4.983-31.415l-29.369,3.7
		l-9.099-7.886l-1.616-31.951l-27.74,13.752l-10.78-5.036l-9.226-31.345l-23.925,22.288l-10.346-1.229L166.507,31.58l-17.17,28.909
		l-9.887,1.219l-24.103-22.765l-9.036,32.671l-10.022,4.226l-28.47-14.869l-0.412,33.416l-8.518,7.07l-30.094-4.734l5.498,32.865
		c-14.931,20.551-24.9,45.756-27.709,76.599l16.965,5.009c-5.15,76.31,55.586,155.053,145.974,153.567
		C249.518,365.133,318.872,296.529,313.243,211.175L313.243,211.175z"/>
	<path fill="#823865" d="M26.432,220.414c0-78.491,63.628-142.119,142.119-142.119s142.119,63.628,142.119,142.119
		s-63.628,142.119-142.119,142.119S26.432,298.905,26.432,220.414L26.432,220.414z"/>
	<path d="M38.41,212.777c-3.254,76.929,53.081,132.895,130.981,136.71c76.961-1.051,131.729-61.222,130.272-136.239l10.57-1.823
		l0.073-2.331l16.547-4.23C315.828,115.761,244.843,60.77,166.832,62.319C87.051,61.515,16.918,126.258,9.38,203.698l16.636,5.35
		v1.756L38.41,212.777L38.41,212.777z"/>
	<path fill="#AA9E9E" d="M7.598,286.013c0-19.451,15.768-35.219,35.219-35.219c19.451,0,35.22,15.768,35.22,35.219
		c0,19.451-15.768,35.22-35.22,35.22C23.366,321.232,7.598,305.464,7.598,286.013L7.598,286.013z"/>
	<path fill="#CB3B2F" d="M226.806,272.93l7.526-5.339c1.492,0.101,2.786,0.496,3.882,1.184c2.529,3.108,5.087,7.184,7.673,12.227
		c1.717,2.257,4.043,4.644,6.979,7.161c2.999-2.601,5.75-6.343,8.254-11.226l5.34,3.973c-4.737,14.652-21.905,26.971-39.472,30.579
		l-5.704-4.702c8.707-2.434,16.677-6.267,23.908-11.499c-3.172-2.499-5.742-5.33-7.708-8.493
		C234.507,280.258,230.948,275.635,226.806,272.93L226.806,272.93z"/>
	<path d="M244.997,320.122c0.016,4.374,0.5,9.139,1.45,14.295c2.135-2.513,4.446-3.825,6.934-3.935
		c-4.847,4.904-5.631,13.006-2.351,24.306c0.722,1.574,1.684,1.717,2.885,0.427l2.137-2.672c1.421-0.681,2.992-0.467,4.714,0.641
		l5.569,4.714c1.574,1.852,2.86,1.852,3.859,0c0.86-1.484,2.609-2.307,5.249-2.47c4.821,0.676,9.393,0.64,13.715-0.107
		c7.271-1.779,12.341-6.636,15.211-14.57c2.355-6.712,3.637-13.995,3.847-21.849c3.319-6.345,4.712-14.163,4.18-23.452
		c-2.41-5.946-6.087-8.412-11.031-7.398c-2.771-3.717-7.054-4.607-12.848-2.672c-2.112-1.522-3.897-2.452-5.355-2.79l-12.539-0.855
		L244.997,320.122L244.997,320.122z"/>
	<path fill="#AA9E9E" d="M271.204,335.826c-3.092,2.534-4.377,7.866-3.853,15.994c0.453,2.259,1.282,2.28,2.486,0.062
		c1.076-2.353,3.622-5.023,7.638-8.011c1.825-0.907,2.26-2.304,1.305-4.192l-3.943-4.039
		C273.428,334.929,272.217,334.991,271.204,335.826L271.204,335.826z"/>
	<path fill="#AA9E9E" d="M255.141,333.211c-2.955,2.693-3.959,8.084-3.011,16.173c0.571,2.232,1.399,2.209,2.486-0.068
		c0.952-2.406,3.355-5.206,7.208-8.4c1.775-1.001,2.137-2.419,1.084-4.255l-4.149-3.827
		C257.314,332.198,256.109,332.324,255.141,333.211L255.141,333.211z"/>
	<path fill="#AA9E9E" d="M248.443,327.497c1.765-1.212,3.822-2.185,6.171-2.918c4.884,0.056,8.334-0.252,10.351-0.922
		c2.869-1.262,2.287-4.666-1.019-5.248c-2.657-0.405-5.768-0.162-9.332,0.728C250.71,321.306,248.653,324.093,248.443,327.497
		L248.443,327.497z"/>
	<path fill="#FFFFFF" d="M115.186,217.325c-8.096,4.798,1.05,33.291,17.095,42.587c9.318,5.057,17.166,9.755,23.544,14.095
		c1.253,1.812,4.402,3.112,9.447,3.898c13.011,0.536,22.708-0.713,29.09-3.748c-2.035,2.814-5.184,4.313-9.447,4.498
		c-1.547,0.594-1.497,1.344,0.15,2.25c19.953-0.712,35.099-7.01,45.435-18.893c1.095-1.296,1.195-2.447,0.3-3.451
		c-2.252-2.863-3.102-6.712-2.548-11.547l-2.85-2.848c-0.815-1.068-1.964-0.918-3.448,0.45
		c-25.342,25.042-64.631,4.648-62.981-29.242l-4.348,0.3C158.373,263.36,128.683,259.612,115.186,217.325L115.186,217.325z"/>
	<path fill="#823865" stroke="#CB3B2F" stroke-miterlimit="3.8637" d="M165.163,221.932c0.703,24.068,30.875,39.374,50.991,20.467
		l-5.6-2.174c-13.286,10.585-36.563,1.471-41.46-17.414L165.163,221.932L165.163,221.932z"/>
	<path d="M161.85,349.215c1.652,9.147-1.67,13.221-9.966,12.223c-4.861-1.056-10.842-0.811-17.94,0.735
		c-4.235,3.966-11.808,5.759-22.719,5.381c-6.608-2.251-10.063-2.162-10.364,0.265c-1.267,2.28-2.53,2.235-3.788-0.133
		c-5.997-8.929-9.215-10.875-15.569-6.531c-5.169-13.261-5.88-23.126,4.939-29.146c0.211-1.261-0.098-2.656-0.929-4.186
		c3.811-0.421,6.092-1.639,6.841-3.655l9.435-6.974L161.85,349.215L161.85,349.215z"/>
	<path fill="#AA9E9E" d="M84.273,353.194c-1.051,1.364-1.921,1.188-2.609-0.528c-0.543-7.881,1.523-14.14,6.199-18.776
		c1.447-0.808,2.844-0.773,4.192,0.106l3.77,5.565c0.879,2.506,0.457,4.009-1.267,4.509
		C88.764,347.303,85.335,350.344,84.273,353.194L84.273,353.194z"/>
	<path fill="#AA9E9E" d="M101.814,341.324c2.233-1.802,4.018-1.943,5.354-0.422l3.559,4.752c0.999,3.182-0.106,4.509-1.764,5.248
		c-5.194,3.976-8.352,7.852-9.472,11.627c-0.94,1.572-1.705,1.326-2.292-0.739C95.663,352.837,97.201,346.015,101.814,341.324
		L101.814,341.324z"/>
	<path fill="#CB3B2F" d="M121.401,315.882c15.771,4.877,24.737,4.713,26.898-0.492v-14.597c-3.95-3.628-6.519-7.018-7.709-10.169
		l8.365,7.053c3.184,1.214,3.84,0.394,1.968-2.46c-9.844-12.992-22.146-20.373-36.903-22.142c-5.054,6.7-4.89,14.19,0.492,22.47
		C119.5,303.564,121.796,310.344,121.401,315.882L121.401,315.882z"/>
	<path fill="#CB3B2F" d="M117.793,268.154l6.396-5.576c17.713,4.756,31.348,16.807,39.855,32.966l-6.889,3.444
		C147.209,282.752,134.087,272.474,117.793,268.154L117.793,268.154z"/>
	<path d="M44.807,233.712c-5.874,2.817-11.506,4.019-16.893,3.608c-4.888,1.318-9.262,4.325-13.121,9.021
		c-2.825,0.687-3.372,3.092-1.64,7.217c-5.803,8.952-4.874,16.497,2.788,22.634c1.145-4.551,2.238-7.777,3.28-9.677
		c1.76-1.71,2.744-1.655,2.952,0.164c0.796,4.797,3.375,8.509,7.062,10.819c2.246-9.014,4.916-14.749,8.683-16.888
		c2.932-1.131,6.431-3.373,10.497-6.724c5.864,2.916,9.855,6.798,11.973,11.645c-1.271,5.877-0.287,9.54,2.952,10.989
		c-0.237,4.437-1.44,9.63-3.608,15.581c4.118,0.777,9.585-2.777,16.401-10.661l8.037-4.592L44.807,233.712L44.807,233.712z"/>
	<path d="M58.259,259.55c-3.579,2.195-6.344,6.34-8.295,12.435c-8.156,21.346-33.631,25.852-41.133,4.77
		c0.393-1.46,0.888-2.904,1.487-4.33c3.545,8.673,8.013,13.335,13.404,13.983c9.738,1.708,17.487-3.57,23.247-15.833
		c1.413-5.866,4.161-10.334,8.243-13.404L58.259,259.55L58.259,259.55z"/>
	<path d="M8.807,295.174c11.605,9.704,41.51,3.896,53.291-9.03l1.498-6.306C47.85,296.201,22.634,301.57,7.946,290.72
		C8.121,292.083,8.408,293.568,8.807,295.174L8.807,295.174z"/>
	<path d="M25.132,316.489c1.901-11.73,18.439-9.792,35.61-9.911c5.161-0.483,9.786-1.83,13.113-3.709
		c1.47-2.306,2.396-5.01,3.146-8.267c-6.928,6.751-16.676,9.805-28.71,8.608c-15.582-1.328-24.299,2.5-26.094,11.354L25.132,316.489
		L25.132,316.489z"/>
	<path d="M51.596,320.128c-20.238-2.958-31.801-28.383-25.973-47.476l2.819,2.466c-4.896,20.729,10.423,43.237,29.655,42.62
		C55.869,318.819,53.702,319.616,51.596,320.128L51.596,320.128z"/>
	<path d="M285.58,271.442c43.747-15.444,79.397-41.146,106.946-77.105c3.299-4.516,2.2-5.551-3.297-3.105
		c-36.466,26.978-68.287,42.339-95.46,46.082L285.58,271.442L285.58,271.442z"/>
	<path fill="#AA9E9E" d="M260.495,226.028c2.981,2.902,3.597,6.628,1.847,11.177c-3.384,0.082-4.842-1.279-4.374-4.082
		C259.621,230.206,260.711,228.179,260.495,226.028L260.495,226.028z"/>
	<path fill="#AA9E9E" d="M275.073,226.618c3.081,2.796,3.826,6.498,2.236,11.106c-3.38,0.2-4.884-1.109-4.514-3.927
		C274.345,230.824,275.364,228.76,275.073,226.618L275.073,226.618z"/>
	<path fill="#CB3B2F" d="M269.632,244.883c-3.805-5.443-2.638-7.581,3.499-6.415c5.535,2.459,6.22,7.289,1.749,12.246
		c-0.07,3.457-0.945,5.045-2.624,4.763c-2.597,2.933-4.832,3.16-6.707,0.68c-1.748-0.465-2.655-0.173-2.721,0.875
		c1.749,5.734-5.637,8.65-8.845,5.54c-0.9-0.416-1.645-0.449-2.235-0.097c-10.064,10.238-16.123,4.665-18.176-16.718
		c-1.512-3.68-4.104-6.401-7.775-8.164c-0.924-3.06-2.803-3.837-5.637-2.333l-12.733,0.681c-10.434,7.071-20.478,4.188-30.13-8.65
		c-2.839-3.871-1.899-5.944,2.819-6.22c4.853,0.382,8.935-1.756,12.246-6.415c1.893-1.862,1.634-3.967-0.777-6.317
		c-2.4-3.551-1.395-4.814,3.013-3.79c3.813,0.903,8.964,4.014,15.454,9.33c-5.179-6.185-4.175-9.133,3.012-8.844l12.15-0.097
		c11.64,1.016,17.958,5.162,18.952,12.44c3.835,5.083,5.779,11.693,5.831,19.827c3.843-3.02,10.108-1.069,11.469,3.207l2.042,0.194
		c1.413,0.979,2.58,2.404,3.499,4.277H269.632L269.632,244.883z"/>
	<path fill="#CB3B2F" d="M136.852,232.733c1.089,1.71,2.347,3.054,3.773,4.031h6.968c2.228,3.579-2.623,11.121-7.637,7.561
		c-11.262-4.804-18.443-16.376-21.541-34.715c-12.965-16.953-17.257-31.918-12.875-44.894c6.513-25.393,32.591-31.871,31.766-24.042
		c2.76-5.603,5.426-8.04,7.999-7.311c8.707-0.834,14.972,0.916,18.793,5.248c2.368,1.131,2.735,0.764,1.1-1.1
		c-2.793-4.244-2.426-5.856,1.1-4.836c4.816,1.197,9.056,2.533,12.719,4.011c2.123,0.715,2.002,3.047-0.688,4.401h4.401
		c5.129,1.736,12.409,3.485,21.841,5.248c5.387,1.739,8.758,9.143,4.973,12.857c1.445-0.016,2.5,0.534,3.163,1.65
		c1.384,5.857,0.559,8.485-2.475,7.884c-4.473,0.507-9.354,0.461-14.645-0.138c-5.204-3.787-9.857-5.307-13.957-4.561
		c-4.752,2.444-10.459,3.223-17.12,2.338c-5.571-2.198-9.758-1.922-12.56,0.825l-10.222,15.058
		c-2.626,5.585-0.372,7.755,6.761,6.508c3.777,0.841,6.772,3.599,8.984,8.274c6.888,10.747,17.057,15.262,30.506,13.545
		c3.278,0.394,3.515,1.632,0.71,3.713c-2.095,3.386-7.435,4.631-16.02,3.736c-6.33-0.582-11.769-4.036-16.318-10.359
		c-4.548-5.739-10.072-9.238-16.57-10.497c-11.025-2.276-17.007-7.891-17.946-16.846l-0.963,1.1
		c-0.117,8.785,2.549,14.309,7.999,16.57c7.434,1.917,13.331,4.27,17.693,7.059c3.082,2.812,2.524,4.608-1.672,5.386
		c-7.394,0.231-13.514-1.702-18.358-5.799c2.646,7.044,9.415,10.497,20.306,10.359c4.166,0.009,4.67,1.339,1.513,3.988
		c-5.629,3.633-11.756,3.908-18.381,0.825c1.417,5.979,7.269,7.637,17.555,4.973c2.509-0.871,3.288-0.084,2.338,2.36
		C147.657,231.984,143.32,233.847,136.852,232.733L136.852,232.733z"/>
	<path fill="#AA9E9E" d="M145.087,182.615c-0.581,1.43-0.084,1.698,1.49,0.806l6.53-4.907c1.891-0.839,3.071-0.213,3.54,1.879
		l0.683,4.053c0.362,1.306,0.932,1.505,1.708,0.598l3.027-2.002c1.325-0.512,2.066-0.129,2.221,1.148l-0.171,8.238
		c-0.67,1.698-0.385,1.954,0.854,0.769l3.455-2.05c1.206-1.049,1.946-0.678,2.221,1.111l0.598,7.422l3.967-2.429
		c1.125-0.547,1.695-0.291,1.708,0.769l1.917,4.223c0.511,1.238,0.966,1.352,1.367,0.342l3.028-3.075
		c0.766-0.774,0.383-1.413-1.148-1.917c-5.765-1.166-10.431-6.158-13.999-14.976c-5.364-5.276-11.508-7.737-18.431-7.384
		C147.234,177.835,145.713,180.296,145.087,182.615L145.087,182.615z"/>
	<path fill="#823865" d="M41.282,151.215c51.253-98.901,194.218-107.679,254.443-2.57l7.703-47.918l-37.073,4.268l-2.41-38.548
		l-34.043,15.569l-12.435-37.578l-29.065,25.578l-21.862-32.971l-20.736,33.841l-29.07-26.793l-11.488,38.318L70.589,65.709
		l-1.315,39.825l-37.176-5.433L41.282,151.215L41.282,151.215z"/>
	<polygon fill="#AA9E9E" points="45.383,115.874 53.842,122.612 56.036,119.949 47.81,113.134 50.396,109.766 48.124,108.042 
		40.526,117.128 42.719,119.009 45.383,115.874 	"/>
	<polygon fill="#AA9E9E" points="204.005,73.638 207.817,60.583 211.047,61.405 213.701,70.482 216.146,62.879 219.36,64.075 
		215.585,76.627 212.28,76.216 209.141,66.841 207.219,74.273 204.005,73.638 	"/>
	<polygon fill="#AA9E9E" points="252.764,82.013 246.633,90.922 249.442,92.925 255.667,84.244 259.207,86.588 260.768,84.201 
		251.174,77.256 249.451,79.574 252.764,82.013 	"/>
	<path fill="#AA9E9E" d="M76.661,87.092c0-4.082,3.309-7.391,7.391-7.391c4.082,0,7.391,3.309,7.391,7.391
		c0,4.082-3.309,7.391-7.391,7.391C79.97,94.483,76.661,91.174,76.661,87.092L76.661,87.092z"/>
	<path fill="#823865" d="M79.959,87.092c0-2.26,1.832-4.092,4.092-4.092c2.26,0,4.092,1.832,4.092,4.092
		c0,2.26-1.832,4.092-4.092,4.092C81.792,91.184,79.959,89.352,79.959,87.092L79.959,87.092z"/>
	<path fill="#AA9E9E" d="M121.508,76.316l-4.219-12.783l7.191-2.437c5.416-1.639,8.275,3.577,3.766,6.97l5.811,4.243l-4.175,0.903
		l-5.234-3.856l-1.823,0.88l1.758,5.02L121.508,76.316L121.508,76.316z"/>
	<path fill="#823865" d="M122.196,67.566l-0.755-2.735l3.49-1.037c1.727-0.597,2.702,1.729,1.067,2.484L122.196,67.566
		L122.196,67.566z"/>
	<path fill="#AA9E9E" d="M159.537,62.344c0-4.082,3.309-7.391,7.391-7.391c4.082,0,7.391,3.309,7.391,7.391
		c0,4.082-3.309,7.391-7.391,7.391C162.846,69.735,159.537,66.426,159.537,62.344L159.537,62.344z"/>
	<path fill="#823865" d="M162.836,62.344c0-2.26,1.832-4.092,4.092-4.092c2.26,0,4.092,1.832,4.092,4.092
		c0,2.26-1.832,4.092-4.092,4.092C164.668,66.436,162.836,64.604,162.836,62.344L162.836,62.344z"/>
	<path fill="#AA9E9E" d="M279.414,116.376c0-4.082,3.309-7.391,7.391-7.391c4.082,0,7.391,3.309,7.391,7.391
		c0,4.082-3.309,7.391-7.391,7.391C282.723,123.766,279.414,120.458,279.414,116.376L279.414,116.376z"/>
	<path fill="#823865" d="M282.712,116.376c0-2.26,1.832-4.092,4.093-4.092s4.092,1.832,4.092,4.092c0,2.26-1.832,4.092-4.092,4.092
		S282.712,118.636,282.712,116.376L282.712,116.376z"/>
	<path fill="#AA9E9E" d="M29.062,191.725l36.627,12.076c4.124,2.575,7.215,5.603,9.273,9.084l2.989-21.088l-14.992-5.625v-6.002
		l17.911,6.567c4.815-12.288,10.871-22.754,18.169-31.396l-7.201-7.791l4.024-3.836l7.558,8.8
		c10.883-10.256,23.201-17.084,34.559-21.149c1.29-1.245,0.748-2.131-1.626-2.656c-2.748-0.482-4.65-2.367-5.706-5.655
		c6.457-1.898,11.686-5.688,15.685-11.368c0.901-1.453,0.901-3.421,0-5.904c-1.472-4.45-3.741-9.835-6.807-16.155
		c-2.746-2.107-8.139-2.397-12.793-0.656l-22.388,9.431c-5.172,1.919-4.226,4.042,2.779,7.409l9.522,25.722
		c1.506,7.554-1.728,9.485-5.986,4.51L90.32,116.115c-3.692-2.587-10.405-2.16-14.351,1.394l-18.041,20.01
		c-3.164,4.084-1.13,4.934,5.373,4.596l21.197,20.744c3.983,3.339,0.762,8.346-3.854,6.643l-13.449-4.592
		c-2.42-1.191-4.989-0.644-7.709,1.64c-1.118,0.808-1.692,0.508-1.722-0.902c0.162-2.553-0.959-4.194-3.362-4.92l-14.761-4.264
		c-4.445-0.789-8.795,1.012-10.579,5.986l-7.381,24.766C19.385,194.513,20.861,195.087,29.062,191.725L29.062,191.725z"/>
	<path fill="#AA9E9E" d="M156.089,126.694l24.438,0.082l-0.902-3.198c-1.558-0.038-2.788-1.542-3.69-4.51l-0.164-25.422
		l11.973,6.315l0.082-15.827c-15.113-1.067-28.234-1.094-39.363-0.082l-0.328,15.827l11.891-6.478l0.082,25.75
		c-0.702,2.51-1.987,4.178-3.854,5.002L156.089,126.694L156.089,126.694z"/>
	<path fill="#AA9E9E" d="M197.381,91.163l-11.548,30.089c1.374,3.618,3.046,6.379,5.015,8.285l17.497,6.993
		c4.168,0.55,8.287,0.588,12.358,0.117l12.249-30.906c-1.356-3.181-3.223-5.979-5.599-8.394l-20.059-7.467
		C203.645,89.791,200.341,90.219,197.381,91.163L197.381,91.163z"/>
	<path fill="#AA9E9E" d="M218.909,142.023l13.061,9.67c1.198,0.839,2.526,0.708,3.985-0.395l4.184-4.421l7.181,1.737l-8.444,8.406
		c-0.659,0.831-0.524,1.906,0.079,2.722c11.364,13.527,18.462,29.114,22.415,46.604c0.454,1.435,1.782,1.646,3.985,0.632
		l22.178-7.97l3.433-22.257c0.615-2.222,3.022-3.84,7.222-4.854c1.101,3.004,1.797,5.871,2.09,8.602l-6.906,2.526
		c-1.219,0.355-1.527,1.18-0.827,3.354l2.327,10.655c0.421,3.291,4.306,3.208,3.906-1.026c-0.068-2.494,4.352-4.296,13.26-5.406
		c2.141-0.608,2.989-1.897,1.932-4.775c-2.496-9.519-6.271-20.306-11.324-32.359c-0.866-2.941-3.923-2.734-4.696,0.316
		c-0.526,3.045-5.104,5.4-13.734,7.064c-2.191-0.52-3.756,1.098-4.696,4.854l-4.143,19.73c-0.202,1.066-1.097,2.341-2.684,3.827
		c-2.257,2.208-3.874,2.392-4.853,0.553c-2.221-3.746-2.116-6.245,0.316-7.497l4.301-1.421c1.07-0.372,1.254-1.727,0.552-4.064
		l-3.117-11.286c-0.72-2.668-2.825-2.495-4.696,1.184c-1.403,1.156-4.665,2.721-9.786,4.696c-3.676,1.378-6.073-1.721-3.474-5.169
		l7.143-7.933c0.788-1.602,0.999-3.272,0.632-5.011c-0.489-1.257-0.226-1.6,0.79-1.026c3.525,0.936,6.182,0.66,7.97-0.827
		l6.275-8.959c1.015-3.815,0.489-6.972-1.579-9.47c-5.391-5.88-12.731-13.088-22.02-21.625c-2.871-2.32-4.057-0.366-3.196,5.88
		c-3.873,4.886-11.108,11.99-21.704,21.309c-1.346,1.491-3.74,2.07-7.181,1.737C218.711,140.309,218.639,141.465,218.909,142.023
		L218.909,142.023z"/>
	<path d="M37.652,177.383l13.814,5.343l-1.232-7.618l-11.35-3.258c-0.762-0.35-1.555-0.494-1.706,0.663l-0.569,3.163
		C36.429,176.784,36.609,177.108,37.652,177.383L37.652,177.383z"/>
	<polygon points="77.31,131.83 85.057,139.878 86.825,135.072 80.447,128.399 77.31,131.83 	"/>
	<path d="M128.089,99.04l-5.538,2.224l4.627,11.988l4.378-2.444c1.189-0.259,1.216-1.47,0.083-3.633L128.089,99.04L128.089,99.04z"
		/>
	<polygon points="210.556,101.543 201.812,122.77 208.578,125.682 216.623,104.229 210.556,101.543 	"/>
	<polygon points="248.303,138.529 256.34,130.009 261.039,134.774 254.781,141.625 248.303,138.529 	"/>
	<path fill="#823865" d="M100.022,173.947c-13.248,20.277-17.089,43.363-11.524,69.256h6.789c1.209-12.01,4.042-19.236,8.5-21.678
		l11.638-10.154c-2.644-6.381-5.572-11.117-8.785-14.205C101.571,189.491,99.365,181.751,100.022,173.947L100.022,173.947z"/>
	<path fill="#823865" d="M163.493,302.621c11.953,0.887,22.793-0.521,32.516-4.222c-2.768-2.724-6.756-3.701-11.962-2.931
		c-5.43,2.194-9.799,3.699-13.107,4.516C166.779,300.513,164.297,301.393,163.493,302.621L163.493,302.621z"/>
	<path fill="#823865" d="M214.006,151.472c26.193,18.666,38.496,42.931,36.91,72.792c-8.331-26.927-28.469-22.535-44.899-22.364
		c-3.721,1.423-7.677,1.195-11.867-0.685c-0.083-1.957-0.633-3.649-1.652-5.077l-3.083,3.536l-2.679-2.679
		c1.182-1.491,1.733-3.012,1.652-4.563c-2.967,0.186-5.78,0.014-8.442-0.514c1.195-2.07,2.109-4.334,2.74-6.79
		c-2.131,0.528-4.166,0.699-6.105,0.514c0.942-1.853,1.492-3.717,1.652-5.591c2.5-0.032,4.535-0.374,6.105-1.028
		c3.059-2.849,4.638-2.278,4.735,1.713l3.083,0.171c3.14-2.746,4.718-2.517,4.734,0.685c2.816,2.308,5.63,1.908,8.442-1.199
		c2.169-1.775,3.861-3.982,5.077-6.619c0.823-1.419,2.173-2.655,4.049-3.707C219.083,166.018,215.143,159.914,214.006,151.472
		L214.006,151.472z"/>
	<path fill="#FFFFFF" d="M275.706,350.547c7.863,1.684,14.488-0.314,19.876-5.993c4.878-2.914,7.674-9.404,8.386-19.47
		c1.25-6.401,3.041-13.275,5.373-20.621c0.456-5.815-0.631-9.656-3.262-11.524c-1.274-0.643-2.196-0.301-2.765,1.027
		c1.04,7.56,0.13,14.972-2.732,22.235c-1.465,2.644-2.044,5.895-1.738,9.752c-3.892,13.034-9.69,19.028-17.393,17.98
		C278.986,345.512,277.071,347.716,275.706,350.547L275.706,350.547z"/>
	<path fill="#FFFFFF" d="M260.561,327.691c-1.705,2.284-1.514,3.588,0.573,3.912c2.242,0.018,3.61,1.195,4.103,3.532
		c0.051,2.18,1.525,2.957,3.721,0.953c2.012-3.154,4.494-3.918,7.444-2.289c2.409,1.391,4.19,3.172,5.344,5.344
		c1.06,2.082,2.65,2.273,4.771,0.573c3.995-1.394,6.444-5.338,7.347-11.833l6.108-21.662c0.781-9.797-0.651-15.618-4.294-17.463
		c-1.656-0.459-3.787-0.555-6.394-0.286c-2.974-2.492-5.423-3.764-7.347-3.816c-4.176-0.618-7.262,0.145-9.258,2.291
		c-1.164,1.714-0.941,2.731,0.668,3.053c9.638-5.535,13.838,14.313,2.291,23.762c-6.108,2.003-5.63,6.678-0.286,5.535
		c4.969,0.573,7.927,1.941,8.874,4.103C272.775,321.731,264.886,323.162,260.561,327.691L260.561,327.691z"/>
	<path fill="#FFFFFF" d="M245.844,273.631c1.359,3.444,3.201,5.904,5.527,7.38c1.407,0.964,2.458,0.778,3.151-0.556
		c1.577-1.792,2.524-3.264,2.838-4.414c0.476-1.007,0.383-1.996-0.278-2.966l-1.819-1.819c-0.264-1.062-1.222-1.495-2.873-1.298
		c-0.755,1.252-2.01,1.53-3.765,0.834C246.629,270.746,245.702,271.692,245.844,273.631L245.844,273.631z"/>
	<path fill="#FFFFFF" d="M160.764,282.916c3.162,3.365,5.294,6.591,6.396,9.677c0.361,1.47,1.564,1.962,3.608,1.476
		c15.581-7.873,28.046-2.296,43.627,7.381c1.299,1.263,4.032,1.427,8.201,0.492c4.549-1.012,8.594-2.543,12.137-4.592
		c3.531-1.511,4.023-3.097,1.476-4.756c-1.419-0.311-3.497-3.099-6.232-8.365c-2.038-3.71-4.17-6.389-6.396-8.037
		c-1.601-1.219-3.569-0.837-5.904,1.148c-16.401,8.583-34.115,9.95-53.14,4.1C161.499,280.935,160.241,281.428,160.764,282.916
		L160.764,282.916z"/>
	<path fill="#FFFFFF" d="M157.645,348.051v5.882c-1.386,2.19-7.258,3-17.615,2.429c-13.426,6.428-24.767,8.037-34.025,4.826
		c-1.775-0.835-1.881-2.208-0.317-4.118l4.192-2.714c6.356,2.776,15.561,1.484,27.615-3.876
		C147.232,351.058,153.949,350.249,157.645,348.051L157.645,348.051z"/>
	<path fill="#FFFFFF" d="M121.857,319.623c9.69,4.191,19.177,4.287,28.459,0.286c1.869-0.716,3.266-0.047,4.192,2.006l0.211,7.466
		c2.033,2.29,3.008,4.592,2.925,6.907l0.211,8.205c-3.53,3.119-8.356,4.024-14.478,2.714c-4.914,0.129-9.916,1.326-15.006,3.59
		c-5.166,1.752-9.369,2.094-12.609,1.025c-1.376,0.348-1.823-0.416-1.342-2.292c-0.14-6.011-3.92-11.506-11.341-16.484
		c1.833,3.067,2.079,4.641,0.739,4.72c-1.254,1.071-2.732,1.669-4.435,1.795c-0.994-4.349-2.919-7.26-5.776-8.733
		c-1.852-0.883-1.781-1.683,0.211-2.397c13.558-3.88,23.925-1.331,31.099,7.646c1.215,0.826,1.522,0.378,0.919-1.342
		c-0.151-1.902-2.076-4.919-5.776-9.05l-0.211-2.609C117.967,320.863,118.635,319.712,121.857,319.623L121.857,319.623z"/>
	<path fill="#CB3B2F" d="M257.836,267.945l2.182,3.356c30.48,1.61,94.936-29.881,123.444-70.411c1.747-2.849,1.117-3.353-1.892-1.51
		c-42.033,32.692-73.359,40.892-100.559,44.84c-2.89,12.27-7.747,18.134-14.57,17.591
		C264.41,265.624,261.542,267.668,257.836,267.945L257.836,267.945z"/>
	<path d="M275.97,265.516c27.01-7.572,52.945-19.497,68.575-32.411l-4.443-0.115l-2.418,4.903l-5.248-1.727l-3.637,6.169
		l-4.903-1.91l-5.133,6.698l-5.939-3.291l-5.479,9.576l-8.241-5.018l-6.237,10.957l-8.357-6.975L275.97,265.516L275.97,265.516z"/>
	<path fill="#AA9E9E" d="M62.2,288.863c1.786-0.667,2.755-5.128,2.907-13.383c0.058-1.379,1.263-2.318,3.613-2.816
		c6.649-0.376,8.641,1.949,5.975,6.974c-2.575,4.092-5.922,7.5-10.043,10.224C61.442,291.154,60.625,290.821,62.2,288.863
		L62.2,288.863z"/>
	<path fill="#AA9E9E" d="M25.37,252.851c-2.32,5.62-1.745,11.898,1.726,18.833c1.569,1.84,2.816,1.433,2.089-0.908
		c0.566-4.058,1.801-7.587,3.704-10.588c2.068-2.178,1.523-4.261-1.635-6.247C28.567,251.398,26.605,251.034,25.37,252.851
		L25.37,252.851z"/>
	<path fill="#AA9E9E" d="M15.873,273.209c-0.431-5.685,1.258-10.721,5.067-15.109c2.816-2.978-2.432-5.612-4.703-4.068
		c-4.443,3.743-5.163,9.749-2.16,18.016C14.522,273.399,15.121,273.786,15.873,273.209L15.873,273.209z"/>
	<path fill="#823865" d="M137.68,254.27c9.087,0.032,16.685-1.418,22.794-4.348c2.995-0.922,6.138-0.865,9.428,0.169l5.811,5.811
		l0.113,3.279h5.755l8.696,6.936l5.811,0.112c2.131,0.616,2.225,1.428,0.281,2.435c-4.224,1.246-8.68,2.072-13.367,2.476
		l-9.203-7.837c-0.868-0.452-1.679-0.377-2.435,0.225l-1.35,2.42c-0.516,0.751-0.366,1.319,0.45,1.703l5.755,4.22l-14.436,1.253
		c-2.756-3.836-7.179-7.298-13.269-10.384C142.577,259.617,138.965,256.793,137.68,254.27L137.68,254.27z"/>
	<path fill="#FFFFFF" d="M157.211,258.168l6.824,5.642l2.42-3.504c0.354-0.751,0.335-1.557-0.056-2.42l-1.969-1.535
		c-0.637-0.525-1.444-0.525-2.42,0C161.291,257.236,159.691,257.841,157.211,258.168L157.211,258.168z"/>
	<path fill="#823865" d="M121.729,267.17l3.28-2.788c16.434,5.914,28.571,16.083,36.411,30.506l-3.772,1.968
		C148.545,281.983,136.572,272.088,121.729,267.17L121.729,267.17z"/>
	<path fill="#823865" d="M229.812,272.93l4.702-3.153c1.252-0.277,2.272,0.057,3.062,1.002c2.387,3.226,4.531,6.937,6.432,11.134
		l8.857,8.766c4.125-3.746,7.047-7.488,8.766-11.226l2.733,2.186c-6.47,13.678-18.808,23.022-37.012,28.029l-2.698-2.334
		c7.353-2.019,15.129-6.034,23.327-12.045c-3.891-3.03-6.783-6.135-8.675-9.313C234.741,278.305,231.576,273.956,229.812,272.93
		L229.812,272.93z"/>
	<path fill="#FFFFFF" d="M183.16,202.171c1.483-1.345,1.739-1.471,2.332,0c0.796,1.39,1.006,3.392,0.63,6.005
		c-2.944,0.987-4.966,0.84-6.068-0.441C180.593,205.162,181.46,203.223,183.16,202.171L183.16,202.171z"/>
	<path fill="#FFFFFF" d="M176.129,200.028l0.504,6.698c0.252,0.988-0.441,1.261-2.08,0.819l-4.177-1.702
		c-0.562-0.756-0.436-1.623,0.378-2.601C172.121,201.987,173.913,200.916,176.129,200.028L176.129,200.028z"/>
	<path fill="#FFFFFF" d="M168.36,194.905c-0.017-1.067-0.548-1.319-1.593-0.756c-3.747,1.792-4.945,3.479-3.592,5.059l1.891,2.71
		c1.289,0.582,2.282,0.203,2.979-1.134L168.36,194.905L168.36,194.905z"/>
	<path fill="#FFFFFF" d="M162.229,186.425l-0.063,5.437c-0.21,1.865-1.204,2.391-2.979,1.576l-2.08-1.45
		c-0.742-1.161-0.805-2.211-0.189-3.151C158.358,187.511,160.128,186.707,162.229,186.425L162.229,186.425z"/>
	<path fill="#FFFFFF" d="M154.316,180.925v5.816c-1.426,0.467-3.155,0.509-5.185,0.126c-1.107-0.956-1.233-1.859-0.378-2.71
		C150.555,182.278,152.409,181.201,154.316,180.925L154.316,180.925z"/>
	<path fill="#FFFFFF" d="M157.136,166.436l5.249,1.454c1.668,0.054,1.939,1.048,0.813,2.981c-2.874,4.536-4.835,5.232-5.881,2.087
		L157.136,166.436L157.136,166.436z"/>
	<path fill="#FFFFFF" d="M167.904,168.794c-0.892,0.429-1.256,1.152-1.093,2.168l-0.271,3.893c0.892,2.014,2.069,2.255,3.532,0.723
		c1.757-2.202,2.573-4.433,2.448-6.694L167.904,168.794L167.904,168.794z"/>
	<path fill="#FFFFFF" d="M174.688,168.071l5.068-1.364c1.034-0.014,1.336,0.681,0.903,2.087c-0.757,5.788-2.356,8.019-4.797,6.694
		C175.776,172.335,175.384,169.863,174.688,168.071L174.688,168.071z"/>
	<path fill="#FFFFFF" d="M183.288,166.526v8.6c0.829,0.738,1.492,0.527,1.987-0.632c0.689-1.656,1.776-2.894,3.261-3.713
		c0.524-2.477,0.1-3.955-1.274-4.435L183.288,166.526L183.288,166.526z"/>
	<path fill="#FFFFFF" d="M191.337,170.871c0.309-1.442,1.065-2.014,2.267-1.716l3.614,1.536c0.898,0.838,0.837,1.714-0.181,2.629
		c-1.652,1.044-2.766,2.248-3.343,3.613c-1.156,0.768-2.002,0.587-2.538-0.542L191.337,170.871L191.337,170.871z"/>
	<path fill="#FFFFFF" d="M200.298,171.413c2.517-0.482,4.568-0.482,6.152,0c1.174,0.709,1.144,1.766-0.09,3.171l-4.165,4.616
		c-0.947,0.815-1.579,0.574-1.897-0.723V171.413L200.298,171.413z"/>
	<path d="M146.269,166.641c-6.459,7.393-10.01,13.893-10.654,19.5c-1.319,2.279-5.248,1.022-4.462-1.965
		C132.321,176.61,137.36,170.765,146.269,166.641L146.269,166.641z"/>
	<path d="M114.425,181.206c0.277-13.159,6.649-20.784,19.114-22.873c-5.774-0.585-5.931-3.332-0.47-8.242l-1.504-0.188l0.282-2.913
		c-6.785,3.776-12.592,8.309-17.423,13.598C110.309,166.254,110.309,173.127,114.425,181.206L114.425,181.206z"/>
	<path d="M194.497,158.563c0.715-2.474,2.092-3.458,4.131-2.952c2.137,0.527,2.944,2.731,2.421,6.614
		c-0.779,0.664-1.607,0.706-2.483,0.124C198.01,160.052,196.654,158.79,194.497,158.563L194.497,158.563z"/>
	<path d="M141.461,149.885c3.378,0.548,6.892,1.461,8.245,3.028c3.777,1.054,7.129,1.459,10.057,1.216
		c5.857-0.366,10.102-2.572,12.732-6.618c-4.742,1.707-7.936,0.841-9.584-2.6c-1.42-3.357-3.732-5.289-6.936-5.796l-0.457,1.187
		c-5.606-0.74-9.561,0.158-11.866,2.692l5.34,1.278C144.066,145.517,141.555,147.388,141.461,149.885L141.461,149.885z"/>
	<path fill="#AA9E9E" d="M155.61,145.093c-3.105,5.157,1.687,10.223,1.139,0.639c3.14,0.534,6.015,2.222,8.627,5.066
		c-1.157,3.481-5.813,4.196-13.966,2.144c-3.249-2.524-3.279-5.14-0.091-7.849C152.766,144.606,154.196,144.606,155.61,145.093
		L155.61,145.093z"/>
	<path fill="#CB3B2F" d="M107.788,225.839c1.661,12.138,5.652,21.924,11.973,29.358l-0.492,3.936
		c-5.928,5.899-10.029,12.459-12.301,19.681c-0.925,1.897-2.292,2.334-4.1,1.312l-20.502-10.169
		c-1.389-0.463-2.318-1.556-2.788-3.28c-0.582-3.184-2.167-6.027-4.756-8.529c8.365,12.629-9.185,18.205-10.333,10.497
		c0.656-14.597-18.041-24.602-24.766-15.745c-1.239,1.977-2.606,2.469-4.1,1.476c-0.78-3.046-2.694-4.632-5.74-4.756
		c-2.181-0.105-2.454-1.362-0.82-3.772c2.609-3.39,5.507-5.358,8.693-5.904c6.602-2.552,12.452-3.262,17.549-2.132
		c6.778,5.4,17.767,7.915,32.966,7.545c6.261,0.551,12.111,3.722,17.549,9.513c-4.212-6.63-6.454-11.988-6.068-17.057
		C100.879,230.125,103.558,226.134,107.788,225.839L107.788,225.839z"/>
	<path fill="#CB3B2F" d="M16.891,248.364c-2.522,2.364-1.348,3.512,3.519,3.444c1.852,2.077,3.255,2.052,4.21-0.075
		c0.334-2.991,1.281-5.488,2.843-7.49c1.445-2.347,0.623-3.023-2.467-2.03C22.711,245.08,20.009,247.131,16.891,248.364
		L16.891,248.364z"/>
	<path fill="#CB3B2F" d="M239.763,311.826c11.636-5.531,20.702-13.047,26.003-21.591c3.428,0.501,6.448,1.258,9.062,2.272
		c1.88,1.056,2.991,2.288,3.335,3.694c3.348,11.932-11.573,22.668-22.654,20.396C248.911,315.081,243.663,313.491,239.763,311.826
		L239.763,311.826z"/>
	<path d="M134.466,325.79h7.435c2.247,2.461,2.916,4.95,2.006,7.466c-3.242,7.54,3.348,10.074,7.646,6.304
		c-0.814,4.193-5.65,6.052-11.944,4.826c-1.235-2.609-3.618-4.605-7.149-5.988C139.186,339.349,139.819,329.803,134.466,325.79
		L134.466,325.79z"/>
	<path fill="#AA9E9E" d="M141.062,325.809h3.909c6.697,6.049,7.81,11.202,6.148,15.102c-6.311,2.265-9.295-0.047-7.609-6.444
		C144.479,330.891,143.861,328.195,141.062,325.809L141.062,325.809z"/>
</g>
</svg>
