<?xml version="1.0" encoding="utf-8"?>
<!-- Generator: Adobe Illustrator 19.0.0, SVG Export Plug-In . SVG Version: 6.00 Build 0)  -->
<svg version="1.1" id="Layer_1" xmlns="http://www.w3.org/2000/svg" xmlns:xlink="http://www.w3.org/1999/xlink" x="0px" y="0px"
	 viewBox="0 0 200 199.6" style="enable-background:new 0 0 200 199.6;" xml:space="preserve">
<style type="text/css">
	.st0{fill:#C62135;}
	.st1{fill:#040404;}
	.st2{fill:#FEFEFE;}
	.st3{fill:#8B888A;}
</style>
<g>
	<path class="st0" d="M94.7,6.1c10.3-0.6,20.6,0.6,30.5,3.2c23.2,6.4,43.6,22.1,55.8,42.8c9.9,16.6,14.3,36.5,12.7,55.7
		c-1.3,13.1-5.1,26.1-11.6,37.6c-12.8,23-35.6,40.3-61.4,45.9c-9.4,2.2-19.2,2.6-28.8,1.9C75,192,58.7,185.9,45.1,176
		c-10.3-7.4-19.1-16.9-25.6-27.8C9,131,4.4,110.4,6.5,90.3c1.5-13.6,5.7-26.9,12.8-38.6C28.7,36,42.8,23,59.5,15.2
		C70.4,9.7,82.6,6.9,94.7,6.1L94.7,6.1z"/>
	<path class="st1" d="M87.3,11.9c7.6-1.1,15.3-1,22.9-0.4c11.6,1.5,23.1,4.9,33.2,10.8c15.6,8.6,28.2,22.1,36.3,37.8
		c4,8.5,7.2,17.5,8.3,26.9c1.8,12.8,0.9,26-2.8,38.4c-4.3,14.4-12.4,27.5-23.1,38c0,0,0,0-0.1,0c-7.6,7.4-16.7,13.4-26.4,17.8
		c-14.8,6.3-31.3,8.8-47.3,6.7c-10.8-1.6-21.5-4.7-31-10.1c-16.1-8.7-29.2-22.4-37.4-38.8c-4.1-8.6-7.2-17.8-8.3-27.3
		c-1.1-8.6-1-17.3,0.2-25.9c4-26.7,21.1-51,44.8-63.9C66.2,16.7,76.7,13.6,87.3,11.9L87.3,11.9z"/>
	<path class="st2" d="M93.8,21.6c1.1-1.1,2.1-2.1,3.1-3.2c2.9,0,5.8,0,8.6,0c1.1,1.1,2.3,2.3,3.4,3.4c0,5.7,0,11.4,0,17.1
		c-1.1,1.1-2.2,2.2-3.2,3.3c-3,0-5.9,0-8.9,0c-1-1-2-2.1-3-3.1C93.8,33.1,93.8,27.4,93.8,21.6L93.8,21.6z"/>
	<path class="st2" d="M117.3,44.1c2.8-7.3,6.2-14.4,9.1-21.7c1.8,0.6,3.6,1.4,5.4,2.2c0,4.4,0,8.7,0,13.1c1.4-3.8,3-7.5,4.6-11.2
		c1.5,0.6,3.1,1.3,4.6,2c-3.3,7.1-6.2,14.4-9.3,21.7c-1.3-0.6-2.5-1.1-3.8-1.6c-0.8-3.9-0.4-7.9-0.9-11.8c-0.1-1-0.3-2.1-0.4-3.1
		c-1.3,4.3-3.3,8.3-5.1,12.3C120.1,45.2,118.7,44.6,117.3,44.1L117.3,44.1z"/>
	<path class="st2" d="M62.5,27.9c3.4-1.5,6.8-2.9,10.1-4.4c1.5,0.6,2.9,1.2,4.4,1.7c1.2,2.7,2.3,5.4,3.6,8.1c-0.4,1.2-0.7,2.5-1,3.7
		c2.2,2.1,4.4,4.3,6.7,6.4c-1.5,0.7-3.1,1.4-4.6,2c-2.4-1.5-4.1-4.1-6.6-5.7c-0.4,0.2-1.3,0.7-1.7,0.9c0.9,2.4,1.9,4.8,3.1,7.1
		c-1.5,0.6-2.9,1.3-4.4,1.9C68.8,42.4,65.8,35.1,62.5,27.9L62.5,27.9z"/>
	<path class="st1" d="M99.1,24.1c1.4-0.6,2.9-0.2,4.4-0.2c0.3,4,0.1,8.1,0.1,12.2c-0.2,0.2-0.7,0.5-0.9,0.7
		c-1.3-0.1-2.8,0.4-3.7-0.8C98.9,32,98.7,28,99.1,24.1L99.1,24.1z"/>
	<path class="st1" d="M69,30.9c1.5-0.6,3-1.7,4.7-1.3c0.3,1.3,1.4,2.6,0.8,3.9c-1.1,0.7-2.4,1.1-3.5,1.7
		C70.4,33.8,69.7,32.4,69,30.9L69,30.9z"/>
	<path class="st2" d="M149.2,39.9c1.2-1.3,2.4-2.6,3.7-3.8c3.3,3.2,6.6,6.5,9.8,9.7c-1.3,1.2-2.5,2.4-3.7,3.7c-1-1-2.1-2-3.1-3
		c-4.2,4.5-8.6,8.8-13,13.1c-1.1-1.3-2.3-2.5-3.6-3.7c4.4-4.3,8.6-8.7,12.9-13C151.3,41.9,150.3,40.9,149.2,39.9L149.2,39.9z"/>
	<path class="st2" d="M40.1,46c1.8-2.2,4-4,5.8-6.2c1.6,0,3.1,0,4.7,0c4.2,3.9,8.1,8,12.3,11.8c0.1,1.6,0.1,3.1,0.1,4.7
		c-2.1,2-3.9,4.2-6,6.2c-1.6,0-3.2,0-4.8,0c-4-4-8.1-8-12.1-11.9C40,49,39.9,47.5,40.1,46L40.1,46z"/>
	<path class="st1" d="M45.8,48.9c-0.6-1.5,1.3-2.4,2-3.4c1.2-0.5,1.9,0.7,2.6,1.4c2.2,2.3,4.7,4.3,6.7,6.8c-0.1,1.3-1.5,2-2.2,3.1
		c-0.4,0-0.9,0-1.3,0.1C51.1,54.1,48.4,51.6,45.8,48.9L45.8,48.9z"/>
	<path class="st3" d="M79.5,54.2c4.9-2,9.8-4.4,15.1-4.5c10.1-1.1,20.2,3.5,27.2,10.7c1.9,1.9,3.8,3.8,5.2,6
		c1.1,1.7,2.6,3.2,2.8,5.3c-3.7,0.3-7.4-0.3-10.8-1.7c-0.2-0.3-0.6-1-0.7-1.3c-1.9-0.1-3.4-1.3-4.6-2.6c-1.6-0.9-3.1-1.8-4.8-2.4
		c-0.7,0.3-1.4,0.6-2,0.9c-2.2-1.1-4.3-2.2-6.5-3.3c-2.2-0.4-4.4-0.2-6.6-0.2c-1-0.9-1.9-1.9-3-2.5c-3.4-0.2-6.8-0.9-10.3-0.6
		c-4.4,1.2-8.6,3.4-13.2,4.3C70.8,58.8,75.1,56.4,79.5,54.2L79.5,54.2z"/>
	<path class="st3" d="M109.6,49.9c5.6,0.8,10.9,3.1,16,5.6c2.6,1.5,5.2,3,7.5,4.9c1.8,1.6,4,3,5.1,5.2c-1,2.5-3.2,4.8-5.9,5.2
		c-4.6-7.4-10.3-14.5-18.2-18.4C112.5,51.6,110.6,51.4,109.6,49.9L109.6,49.9z"/>
	<path class="st2" d="M152.6,65.7c5.1-2.5,10.3-4.8,15.4-7.4c1.4,0.5,3,0.9,4.3,1.6c1.3,2.6,2.5,5.2,3.7,7.8c-0.5,1.4-1,2.8-1.5,4.2
		c-5.1,2.6-10.3,5-15.5,7.4c-1.5-0.2-2.8-0.9-4.2-1.3c-1.4-2.6-2.6-5.3-3.9-7.9C151.5,68.6,151.8,67.1,152.6,65.7L152.6,65.7z"/>
	<path class="st2" d="M29.4,60.5c1.7,0.7,3.3,1.4,5,2.1c-0.6,1.3-1.2,2.6-1.8,3.9c5.6,2.5,11.2,4.9,16.8,7.4
		c-0.7,1.6-1.4,3.1-2.1,4.7c-5.7-2.3-11.2-5-16.9-7.5c-0.6,1.3-1.2,2.6-1.8,3.9c-1.6-0.7-3.2-1.5-4.8-2.2
		C25.8,68.9,27.6,64.7,29.4,60.5L29.4,60.5z"/>
	<path class="st1" d="M165.7,65.2c0.9-0.4,1.9-1.1,2.9-0.6c0.7,1,1.1,2.1,1.6,3.1c-0.4,0.6-0.9,1.2-1.7,1.5c-3,1.4-6,2.8-9.1,4.3
		c-0.3-0.1-0.9-0.3-1.1-0.4c-0.6-1.2-1.2-2.3-1.2-3.7C159.9,67.9,162.9,66.6,165.7,65.2L165.7,65.2z"/>
	<path class="st3" d="M139.7,66.9c4.8,5.6,8.7,12.3,10.2,19.6c-3.8-1.6-7.9-1.8-12-1.5c-1.5-4.1-2.8-8.2-4.6-12.2
		C136,71.5,138.2,69.4,139.7,66.9L139.7,66.9z"/>
	<path class="st3" d="M93.5,68.9c4.9-0.7,9.8-1,14.7-0.2c2.3-0.1,4.4,1.1,6,2.6c3.6-0.2,6.8,1.9,10.4,2.1c2.2,0.3,4.4,0.1,6.6-0.1
		c2.1,3.5,3.4,7.6,4.5,11.5c-1.4,0.5-2.9,0.5-4.3,0.6c-2.3,0.1-4.5,0.8-6.8,0.4c-2.3-0.4-4.5-1.3-6.8-1c-1.3,0.2-2.6-0.4-3.9-0.6
		c-2.8,0.5-5.3,2.2-8,3.1c-2.3,0.2-4.7,0-7,0.3c-0.5-0.4-1-0.8-1.5-1.3c-2.6,1.3-5.2-0.4-7.9,0.1c-2.1,1.5-3.6,3.5-5.4,5.2
		c-2.9,0.2-5.9-0.1-8.8,0c-1.3,0.9-2.5,1.7-3.8,2.6c-2.5,0.3-5.6,0-7.1,2.5c-2,0.1-4.1,0.4-5.6,1.8c-2.7,2.6-5.2,5.4-7.9,8.1
		c-0.3-2.2-0.8-4.5-0.3-6.8c0.3-5.2,0.5-10.6,2.5-15.5c4.2-3.1,8.4-6.3,12.8-9.3c3,1.1,6-0.8,8.9,0.4c1.9-1.3,3.6-2.9,5.4-4.2
		c2.7,0,5.5,0.1,8.2,0.1C90.3,71,91.7,69.4,93.5,68.9L93.5,68.9z"/>
	<path class="st3" d="M138.3,86.7c3.6-0.2,7.4,0,10.8,1.2c0.6,0.3,1.5,0.5,1.6,1.3c1.4,6.1,1.5,12.4,0.4,18.5
		c-2.8-3.7-6.8-6.2-11.4-7.2C140.1,95.9,139,91.3,138.3,86.7L138.3,86.7z"/>
	<path class="st3" d="M127.7,88.2c2.7-1.1,5.7-1.1,8.6-1.2c0.9,4.5,1.7,9,1.4,13.7c-3.5,0.4-6.9,1.5-10.1,3.1
		c-0.8-0.2-1.5-0.3-2.3-0.5c-1.3,2.4-5.3,1.1-5.8,4.1c-1.7,1.1-3.6,1.5-5.6,1.3c-1.7,1.3-4.8,0.8-4.9,3.5c-3,1.5-6,2.8-9,4.3
		c-1,1.7-2,3.4-3.1,5c-2,0.1-2.1,2-2.1,3.6c-1.7,1.7-3.5,3.3-5.2,4.9c-1.6,1.5-2.5,3.5-3.6,5.4c-2.8,0.3-5.7,0.3-8.2,1.5
		c-1.5,0.7-3.1-0.1-4.6-0.3c-0.8,0.2-1.7,0.8-2.6,0.4c-1.9-0.7-3.9-1.3-5.8-2.1c-2.9-2.4-4.9-5.7-7-8.9c-0.7-1.1,1.1-1.7,1.6-2.5
		c1.3,0,2.6-0.1,3.9-0.1c1-2.4,2-4.7,2.9-7.2c2.2-1.7,4.6-3.3,6.8-5.1c1.1-0.9,2.6-0.8,3.9-1.2c0.9-0.7,1.6-1.5,2.3-2.4
		c2.5,0,5.3,0.7,7.4-1c2.1-1.6,4.7-1.8,7.1-2.4c2.4-2.7,4.8-5.5,7.2-8.2c3.6,0.7,6.9-1.1,9.6-3.3c1.1-1,2.7-0.8,4-1.1
		c1.4-0.8,2.7-2,4-2.9C121.6,88.7,124.8,89.5,127.7,88.2L127.7,88.2z"/>
	<path class="st3" d="M125.5,107.6c3.5-2.7,7.7-4.5,12.1-4.8c0.3,6-1.1,11.9-2.7,17.7c-1.7,5.8-4.8,11.1-8.3,16
		c-3.5,4.2-7.4,8.3-12.4,10.8c-3.4,1.9-7.3,2.6-11.2,3c-3.1,0.5-6.2-0.2-9.2-0.3c1.3-2.4,5.3-2.1,5.6-5.2c3.1-1.4,4.3-4.8,6.2-7.4
		c2.2-2.7,2.3-6.4,3.4-9.7c1-0.5,2-1,2.9-1.5c0.7-3.6,1.6-7.2,3.2-10.6c1.6-1.5,3.8-2.2,5.4-3.7c1-1.1,1.7-2.5,2.5-3.8
		C123.8,108.2,124.7,108,125.5,107.6L125.5,107.6z"/>
	<path class="st3" d="M140.1,102.8c4.3,0.9,8.6,3.4,10.5,7.4c-0.2,2.6-1.2,5.2-1.9,7.7c-3.1,7.7-7.9,14.7-14.1,20.2
		c-4.5,3.6-9.4,7.1-15,8.8c-0.4,0-1.2,0.1-1.6,0.1c1.9-1.5,4.1-2.7,5.8-4.5c7.6-7.5,12.5-17.4,14.7-27.8
		C139.4,110.9,139.4,106.8,140.1,102.8L140.1,102.8z"/>
	<path class="st2" d="M25.4,131.1c7.1-3.5,13.9-7.3,21-10.8c1.7,3.1,3.4,6.3,4.9,9.5c0,1.6-0.9,3.1-1.2,4.7
		c-2.6,1.4-5.3,2.7-7.9,4.1c-1.2-0.4-2.5-0.5-3.8-0.7c-1.9,2.4-4,4.6-5.8,7c-0.8-1.6-1.6-3.2-2.5-4.7c1.8-2.1,3.6-4.3,5.4-6.4
		c-0.3-0.7-0.7-1.4-1-2.1c-2.3,1.3-4.6,2.5-6.9,3.6C26.8,133.9,26.1,132.5,25.4,131.1L25.4,131.1z"/>
	<path class="st2" d="M154.7,121.9c1.5-0.5,2.9-0.9,4.4-1.3c1,0.7,2.6,1,3.3,2c-0.7,1.5-1.6,3-2.4,4.4c-0.4-0.2-1.1-0.7-1.5-1
		c-0.7,1.3-1.3,2.7-2,4c0.9,1,2.1,1.7,3.5,1.5c1-1.8,2-3.6,2.9-5.4c1.5-0.4,3-1.2,4.6-1.2c2.4,1.1,4.6,2.5,6.9,3.6
		c0.4,1.4,0.9,2.8,1.3,4.2c-1.3,2.6-2.7,5.1-4,7.7c-1.5,0.5-3,1.2-4.6,1.3c-1.2-0.5-2.4-1.2-3.5-1.8c0.8-1.5,1.5-3,2.2-4.5
		c0.6,0.3,1.2,0.6,1.8,0.9c0.6-1.2,1.4-2.4,1.9-3.6c-0.1-1.2-1.3-1.5-2-2.1c-2.4,0.7-2.7,3.8-3.9,5.6c-1.6,0.4-3.1,1.2-4.8,1.2
		c-2.4-1.1-4.6-2.4-6.9-3.5c-0.5-1.5-1.2-3-1.3-4.6C151.9,126.8,153.4,124.4,154.7,121.9L154.7,121.9z"/>
	<path class="st1" d="M39.5,129.2c1.4-0.8,2.8-1.5,4.2-2.3c0.6,1.2,1.2,2.3,1.8,3.5c-0.1,0.3-0.4,0.9-0.5,1.3c-1,0.4-1.9,1-3,1.3
		C40.7,132.2,40.4,130.5,39.5,129.2L39.5,129.2z"/>
	<path class="st2" d="M133.9,147.7c2.9-2.3,5.7-4.9,8.7-7.2c1.5,0.3,3,0.4,4.5,0.5c1.9,2.2,3.8,4.5,5.6,6.7c0,1.3,0,2.5,0,3.8
		c2.8,1.4,5.6,2.8,8.3,4.4c-1.4,1.1-2.7,2.2-4,3.4c-2.4-1.4-4.9-2.6-7.4-3.9c-0.5,0.5-1.1,1-1.6,1.5c1.7,2,3.3,3.9,5,5.9
		c-1.2,1-2.4,2.1-3.8,3C144.2,159.6,138.9,153.8,133.9,147.7L133.9,147.7z"/>
	<path class="st2" d="M39.4,154.1c7.1-4.2,14.2-8.6,21.3-12.7c1.3,1.1,2.5,2.3,3.8,3.4c-3.7,7.5-7.3,15-11.1,22.4
		c-1.2-1.2-2.6-2.3-3.7-3.6c0.4-1.2,1-2.4,1.5-3.5c-1.6-1.5-3.2-3-4.8-4.4c-1.1,0.7-2.2,1.3-3.3,2C41.9,156.4,40.6,155.3,39.4,154.1
		L39.4,154.1z"/>
	<path class="st1" d="M141,148.6c1.1-0.8,2.1-2,3.4-2.5c1.3,0.6,2.9,2,2.8,3.6c-0.9,1-2.1,1.8-3.1,2.7
		C143,151.2,142,149.9,141,148.6L141,148.6z"/>
	<path class="st1" d="M50.8,152.9c2.1-0.9,4-2.1,5.9-3.3c-1.1,2-2.1,4-3.1,5.9C52.8,154.5,50.8,154.1,50.8,152.9L50.8,152.9z"/>
	<path class="st2" d="M74.2,151.5c3.3,1.2,6.6,2.5,9.8,4c1.1,1.2,1.3,3,2,4.5c-1.2,2.5-2.1,5.3-3.4,7.8c-0.9,0.9-2.2,1.3-3.2,1.9
		c-2.2-0.8-4.3-1.7-6.4-2.7c-1.2,2.7-2.3,5.5-3.5,8.1c-1.4-0.6-2.8-1.2-4.2-1.7C68,165.9,71.4,158.8,74.2,151.5L74.2,151.5z"/>
	<path class="st2" d="M125.3,152.4c1.4,0.6,2.8,1.2,4.1,1.8c1.5,3.8,2.9,7.6,4.4,11.4c0.5,1.6,1.1,3.2,1.8,4.7
		c-0.7,1.4-1,3.2-2.1,4.3c-2.5,1.2-5.3,1.9-7.9,3c-1.4-0.5-2.7-1.2-4.1-1.7c-2.3-5.3-3.9-10.8-6.3-16.1c0.6-1.5,1.3-2.9,1.9-4.3
		C119.9,154.4,122.6,153.5,125.3,152.4L125.3,152.4z"/>
	<path class="st2" d="M94.8,157.8c4.5,0.1,9.1-0.1,13.6-0.1c0,1.7,0,3.4,0,5c-1.4,0.1-2.9,0.2-4.4,0.2c0.1,3.2-0.1,6.4,0.1,9.5
		c0.2,2.1,0.3,4.1,0,6.2c0,0.9,0.1,1.7,0.3,2.5c-1.8,0.2-3.5,0.2-5.3,0.1c0-6.2-0.3-12.3-0.2-18.5c-1.4,0-2.8,0-4.2,0.1
		C94.8,161.2,94.8,159.5,94.8,157.8L94.8,157.8z"/>
	<path class="st1" d="M74.7,162.5c0.5-1.5,1.1-3,1.8-4.4c1,0.4,2,0.9,3,1.2c0.2,0.3,0.5,0.9,0.7,1.2c-0.6,1.1-0.7,2.6-2,3.2
		C77,163.7,75.9,162.9,74.7,162.5L74.7,162.5z"/>
	<path class="st1" d="M121.4,161c-0.5-1.7,1.7-2,2.8-2.4c1-0.4,1.8,0.6,2,1.5c1.1,3,2.3,6,3.3,9.1c0.2,1.8-2.2,1.8-3.3,2.5
		c-1.4-0.6-1.5-2.2-2.1-3.4C123.3,165.8,122.2,163.4,121.4,161L121.4,161z"/>
	<path class="st3" d="M162.1,163.5C162.1,163.5,162.2,163.5,162.1,163.5C162.2,163.5,162.1,163.5,162.1,163.5L162.1,163.5z"/>
</g>
</svg>
