<?xml version="1.0" encoding="utf-8"?>
<!-- Generator: Adobe Illustrator 19.1.0, SVG Export Plug-In . SVG Version: 6.00 Build 0)  -->
<svg version="1.1" id="Layer_1" xmlns="http://www.w3.org/2000/svg" xmlns:xlink="http://www.w3.org/1999/xlink" x="0px" y="0px"
	 viewBox="0 0 576 576" enable-background="new 0 0 576 576" xml:space="preserve">
<g>
	<path fill="#0E2A5C" d="M147.476,402.283l70.031-152.138h23.747l43.065,152.138h-52.726l-9.659-40.65h-37.028l-19.721,40.65
		H147.476z M190.541,346.74h28.174l-10.465-39.846L190.541,346.74z"/>
</g>
<g>
	<polygon fill="#005028" points="250.107,250.145 265.805,250.145 299.613,370.084 289.954,391.818 	"/>
</g>
<g>
	<polygon fill="#0E2A5C" points="450.141,250.145 537.186,250.145 471.984,389.404 555.591,389.404 549.956,402.283 
		413.224,402.283 478.022,263.427 443.701,263.427 	"/>
</g>
<g>
	<polygon fill="#005028" points="546.041,250.145 561.336,250.145 499.353,382.965 484.06,382.965 	"/>
</g>
<g>
	<polygon fill="#0E2A5C" points="287.539,250.145 417.516,250.145 352.313,389.404 410.396,389.404 404.762,402.283 
		293.552,402.283 358.352,263.427 281.1,263.427 	"/>
</g>
<g>
	<polygon fill="#005028" points="426.37,250.145 441.665,250.145 379.683,382.965 364.388,382.965 	"/>
</g>
<g>
	<path fill="#0E2A5C" d="M110.576,344.461c1.424,22.354,15.665,37.629,22.316,43.602c11.392-11.355,18.883-26.615,20.305-43.602
		H110.576z"/>
</g>
<g>
	<path fill="#0E2A5C" d="M56.387,344.461H13.901c1.418,16.955,8.884,32.191,20.239,43.537
		C40.818,381.984,54.967,366.738,56.387,344.461z"/>
</g>
<g>
	<path fill="#0E2A5C" d="M56.389,337.215c-1.402-22.561-15.496-40.533-22.34-48.006c-12.311,12.348-20.027,29.275-20.381,48.006
		H56.389z"/>
</g>
<g>
	<path fill="#0E2A5C" d="M209.055,167.234c0,0-48.297,109.475-55.542,123.963c-5.948,11.896-8.909,12.127-9.78,11.828
		c-3.001-5.074-6.61-9.744-10.754-13.889c-6.818,7.43-20.997,25.443-22.405,48.078h42.864h-0.018h0.01
		c-0.002-0.131-0.014-0.26-0.017-0.391c0.01-2.061,0.647-9.029,7.612-21.746l33.809-71.507c3.623-8.854,8.586-8.409,21.063-8.409
		c12.477,0,113.901,0,113.901,0l28.174-67.929H209.055z"/>
</g>
<g>
	<path fill="#005028" d="M103.203,340.838c0-26.994,16.396-47.971,24.365-56.573c-11.256-9.139-25.408-14.845-40.867-15.532v139.648
		c15.4-0.684,29.503-6.35,40.738-15.428C119.245,385.529,103.203,367.582,103.203,340.838z"/>
</g>
<g>
	<path fill="#FFDD00" d="M79.457,268.781c-15.129,0.874-28.965,6.558-40.006,15.546c7.99,8.641,24.309,29.579,24.309,56.51
		c0,26.674-15.959,44.598-24.173,52.059c11.019,8.926,24.803,14.566,39.87,15.435V268.781z"/>
</g>
</svg>
