<?xml version="1.0" encoding="utf-8"?>
<!-- Generator: Adobe Illustrator 19.1.0, SVG Export Plug-In . SVG Version: 6.00 Build 0)  -->
<svg version="1.1"
	 id="svg50002" xmlns:cc="http://creativecommons.org/ns#" xmlns:dc="http://purl.org/dc/elements/1.1/" xmlns:rdf="http://www.w3.org/1999/02/22-rdf-syntax-ns#" xmlns:svg="http://www.w3.org/2000/svg"
	 xmlns="http://www.w3.org/2000/svg" xmlns:xlink="http://www.w3.org/1999/xlink" x="0px" y="0px"
	 viewBox="69 -48.772 538.583 496.772" enable-background="new 69 -48.772 538.583 496.772" xml:space="preserve">
<g id="layer1" transform="translate(-112.42455,-255.11739)">
	<g id="g50141" transform="matrix(14.495173,0,0,14.495173,-10378.415,-9044.8379)">
		<g id="g40053" transform="matrix(1.25,0,0,-1.25,760.6144,644.14414)">
			<path id="path40055" fill="#E31837" d="M3.808,2.692c-0.056,0.23-0.169,0.43-0.318,0.592C3.455,3.323,3.396,3.33,3.35,3.288
				C3.16,3.084,3,2.922,2.507,2.837l0.06-0.416l1.144,0.166c0.053,0.005,0.082-0.011,0.117-0.053
				C3.863,2.492,3.809,2.684,3.808,2.692"/>
		</g>
		<g id="g40073" transform="matrix(1.25,0,0,-1.25,760.2394,645.38939)">
			<path id="path40075" fill="#E31837" d="M3.808,2.692C3.846,2.664,3.86,2.621,3.861,2.593c0.002-0.04,0.006-0.051,0.063,0.039
				c0,0,0.187,0.251,0.219,0.661C4.151,3.408,4.035,3.462,3.962,3.45L2.885,3.293L2.937,2.93C3.286,2.96,3.672,2.794,3.808,2.692"/>
		</g>
		<g id="g49792" transform="matrix(1.25,0,0,-1.25,126.77841,866.62676)">
			<g id="g39961" transform="translate(484.0092,166.2395)">
				<path id="path39963" fill="#002B5C" d="M3.808,2.692C3.806,2.701,3.805,2.709,3.803,2.718C3.584,3.807,3.57,4.929,3.744,6.026
					c0.002,0.013,0.005,0.027,0.007,0.042C3.246,5.542,2.706,5.159,2.174,4.961c-0.104-1.035,0.039-1.953,0.1-2.399
					c0.06-0.423,0.29-1.239,0.36-1.482c0.429,0.324,0.892,0.651,1.371,0.962L3.808,2.692z"/>
			</g>
			<g id="g39965" transform="translate(482.194,165.73)">
				<path id="path39967" fill="#002B5C" d="M3.808,2.692C3.643,3.486,3.56,4.181,3.648,5.336c-0.49-0.155-0.757-0.018-0.9,0.141
					c-0.013,0.015-0.022,0.03-0.034,0.046c-0.002-0.01-0.004-0.02-0.005-0.029C2.447,4.131,2.488,2.73,2.868,1.389l0.284-0.864
					C3.455,0.797,3.8,1.085,4.175,1.378C4.134,1.505,3.925,2.133,3.808,2.692"/>
			</g>
			<g id="g39969" transform="translate(484.4745,166.9046)">
				<path id="path39971" fill="#E31837" d="M3.808,2.692c0.05-0.227,0.11-0.164,0.11-0.164c2.103,1.32,4.054,2.043,4.653,2.25
					C8.398,5.266,7.965,6.493,7.92,6.62C7.318,6.36,6.729,6.094,6.164,5.801c0,0,0.676,1.526,1.272,2.188
					c-0.417,1.178-0.761,2.144-0.93,2.623c-0.6-0.64-3.45-3.918-2.739-7.696L3.808,2.692z M17.158,9.558
					c-0.626-0.899-1.331-2.087-2.007-3.403l4.688,0.906l2.732,3.559C21.805,10.503,19.738,10.164,17.158,9.558 M14.425,4.657
					c-0.015-0.029-0.029-0.06-0.044-0.09c-1.196-2.61-2.138-5.458-2.157-7.424l6.394,8.327L14.425,4.657z M0.266-1.957
					c-1.104-1.248-2.143-2.736-2.99-4.504c-0.117-0.235-0.172-0.365-0.172-0.365l3.095,2.601C0.381-4.066,1.053-3.52,1.086-3.496
					C2.86-2.133,5.059-0.989,8.346,0.05c0.618,0.211,1.188,0.385,1.697,0.529c-0.276,0.795-0.644,1.842-1.04,2.966
					C5.958,2.742,2.521,0.372,0.266-1.957 M14.22,10.369l-0.292-0.243l0.067,0.359l-0.334,0.185l0.384,0.051l0.082,0.358
					l0.171-0.327l0.387,0.038l-0.28-0.255l0.158-0.335L14.22,10.369z M16.217,12.06c0,0,0.643-0.387,0.97-0.652
					c0,0-0.361,0.838-0.774,1.502c0,0-2.239-0.826-3.975-3.386l2.129,0.438C15.011,10.729,15.386,11.227,16.217,12.06"/>
			</g>
			<g id="g39973" transform="translate(484.6345,160.4056)">
				<path id="path39975" fill="#002B5C" d="M3.808,2.692C3.692,2.587,3.629,2.451,3.62,2.28C3.611,2.117,3.651,1.941,3.716,1.779
					C3.727,1.771,3.739,1.765,3.75,1.757C4.573,1.212,5.489,0.81,6.455,0.556c0.033-0.01,0.067-0.019,0.1-0.027
					C5.445,1.074,4.539,1.844,3.808,2.692"/>
			</g>
			<g id="g39977" transform="translate(484.4006,160.6877)">
				<path id="path39979" fill="#002B5C" d="M3.808,2.692C3.605,2.945,3.419,3.201,3.245,3.461C2.936,3.27,2.642,3.074,2.361,2.874
					c0.35-0.388,0.731-0.742,1.14-1.054c0.007-0.005,0.015-0.012,0.023-0.018C3.515,1.88,3.51,1.957,3.515,2.034
					C3.525,2.234,3.591,2.487,3.808,2.692"/>
			</g>
			<g id="g39981" transform="translate(488.668,160.6479)">
				<path id="path39983" fill="#002B5C" d="M3.808,2.692c-0.057,0.023-0.114,0.047-0.171,0.07C2.222,3.104,0.721,3.018,0.072,2.64
					c1.077-1.226,2.537-2.272,4.487-2.646c0.049-0.001,0.097-0.001,0.145-0.002c2.023-0.048,4.136,0.502,6.05,1.71
					c0.486,0.307,0.94,0.644,1.363,1.006C9.624,1.636,6.421,1.674,3.808,2.692"/>
			</g>
			<g id="g39985" transform="translate(493.0754,166.896)">
				<path id="path39987" fill="#002B5C" d="M3.808,2.692C3.347,4.44,3.791,6.257,3.791,6.257C2.983,5.222,2.114,2.434,2.114,2.434
					c-0.187,2.503,0.7,4.322,1.398,5.778c-1.143-0.37-2.43-0.83-3.781-1.401c0.756-2.136,1.617-4.579,2.143-6.095
					C2.106,0.783,2.312,0.84,2.505,0.89l0.009,0.034c0,0,0.165,1.073,0.509,1.826c0.034-0.785,0.221-1.686,0.221-1.686
					C3.466,1.11,3.7,1.157,3.971,1.207C4.35,2.378,4.838,3.592,5.372,4.763c0.803,1.755,1.712,3.402,2.538,4.65
					C7.574,9.336,6.869,9.167,5.905,8.912C3.989,5.52,3.808,2.692,3.808,2.692"/>
			</g>
			<g id="g39989" transform="translate(504.9864,175.2468)">
				<path id="path39991" fill="#002B5C" d="M3.808,2.692L3.271,2.928C2.885,2.64,2.737,2.163,2.737,2.163L2.492,2.09L1.607,0.95
					c2.584,0.765,2.808,1.263,3.206,2.571C4.301,3.057,4.017,2.749,3.808,2.692"/>
			</g>
			<g id="g39993" transform="translate(493.7715,172.4487)">
				<path id="path39995" fill="#002B5C" d="M3.808,2.692c0.188,0.173,0.781,0.444,0.781,0.444l-0.77-0.209
					C3.819,2.927,3.804,2.775,3.808,2.692"/>
			</g>
			<g id="g39997" transform="translate(494.5948,174.3383)">
				<path id="path39999" fill="#002B5C" d="M3.808,2.692l0.291,0.244l0.344-0.17L4.286,3.101l0.279,0.255L4.178,3.318L4.007,3.646
					L3.924,3.287L3.54,3.235l0.335-0.183L3.808,2.692z"/>
			</g>
			<g id="g40001" transform="translate(494.7501,173.208)">
				<path id="path40003" fill="#002B5C" d="M3.808,2.692l0.426,0.146l-0.059,0.62L2.427,3.005L2.366,2.711
					C2.32,2.849,2.316,2.892,2.274,2.897c-0.152,0.015-0.093-0.14-0.105-0.171c-0.013-0.033,0.06-0.33,0.157-0.366l0.008-0.252
					l0.438,0.137l0.183,0.151l0.771,0.158L3.808,2.692z M3.605,2.924L3.051,2.946l0.596,0.207C3.706,3.059,3.66,2.954,3.605,2.924"
					/>
			</g>
			<g id="g40005" transform="translate(484.0889,170.2974)">
				<path id="path40007" fill="#002B5C" d="M3.808,2.692C3.813,2.71,3.816,2.726,3.82,2.745c0.616,2.538,2.234,4.859,4.605,6.209
					c-0.51-0.138-1.058-0.275-1.89-0.686C5.791,7.901,5.111,7.459,4.496,6.961C4.47,6.941,4.443,6.92,4.418,6.9
					C3.101,5.196,2.389,3.108,2.142,1.317C2.711,1.569,3.288,2.051,3.808,2.692"/>
			</g>
			<g id="g40009" transform="translate(481.3708,168.7672)">
				<path id="path40011" fill="#002B5C" d="M3.808,2.692c0.178-0.121,0.37-0.127,0.705,0.01c0.178,1.475,0.66,3.154,1.52,4.682
					C6.01,7.359,5.988,7.334,5.966,7.307c-1.139-1.27-1.931-2.77-2.322-4.342C3.641,2.952,3.636,2.939,3.633,2.926
					C3.664,2.838,3.717,2.753,3.808,2.692"/>
			</g>
			<g id="g40013" transform="translate(484.1335,161.6361)">
				<path id="path40015" fill="#002B5C" d="M3.808,2.692C3.98,2.438,4.164,2.185,4.366,1.937c0.543,0.361,1.574,0.49,2.663,0.395
					C7.016,2.34,7.001,2.348,6.986,2.355c-0.582,0.34-1.113,0.739-1.575,1.194C4.833,3.272,4.301,2.987,3.808,2.692"/>
			</g>
			<g id="g40017" transform="translate(489.4292,176.4582)">
				<path id="path40019" fill="#002B5C" d="M3.808,2.692c-0.409-0.146-1.177-0.5-1.904-1.283C1.962,1.245,2.076,0.925,2.23,0.492
					l0.167,0.195c0,0,0.715,0.215,1.038,0.328L3.317,1.937l0.425,0.456L3.808,2.692z"/>
			</g>
			<g id="g40021" transform="translate(495.3618,152.9844)">
				<path id="path40023" fill="#002B5C" d="M3.808,2.692L3.521,3.403C3.656,3.409,3.785,3.46,3.846,3.517
					c0.101,0.092,0.182,0.288,0.247,0.589c0,0,0.103,0.528,0.115,0.611C4.231,4.88,4.184,4.988,4.109,5.041
					c-0.073,0.054-0.212,0.08-0.413,0.08H1.534c0,0,0.188-0.127,0.156-0.307l-0.496-2.29h0.524c0.103,0,0.181,0.008,0.231,0.081
					L2.116,3.38h0.65l0.291-0.856h0.936C3.993,2.524,3.858,2.592,3.808,2.692 M3.449,4.358C3.447,4.304,3.398,4.112,3.363,4.067
					c-0.034-0.045-0.078-0.068-0.13-0.068H2.517c-0.099,0-0.206-0.087-0.309-0.195l0.148,0.692h0.988
					C3.42,4.496,3.455,4.451,3.449,4.358"/>
			</g>
			<g id="g40025" transform="translate(492.0331,155.4149)">
				<path id="path40027" fill="#002B5C" d="M3.808,2.692H2.997C2.892,2.691,2.82,2.665,2.76,2.585L1.602,0.344
					c-0.07-0.141-0.237-0.251-0.237-0.251h0.789c0.084,0.002,0.155,0.059,0.197,0.134l0.16,0.319h0.99l0.051-0.244
					c0.009-0.164-0.145-0.209-0.145-0.209h1.02L3.808,2.692z M2.802,1.169l0.397,0.828l0.172-0.828H2.802z"/>
			</g>
			<g id="g40029" transform="translate(498.7889,155.0094)">
				<path id="path40031" fill="#002B5C" d="M3.808,2.692C3.831,2.855,3.785,2.963,3.71,3.016C3.637,3.07,3.498,3.098,3.296,3.098
					H1.119c0,0,0.176-0.135,0.156-0.311L0.843,0.762C0.795,0.627,0.671,0.516,0.635,0.499l2.123-0.006
					c0.25,0,0.426,0.046,0.524,0.136c0.102,0.093,0.185,0.288,0.249,0.589l0.231,1.211C3.79,2.558,3.796,2.61,3.808,2.692
					 M3.048,2.334C3.045,2.279,2.834,1.226,2.798,1.18C2.765,1.134,2.721,1.11,2.67,1.11H1.66l0.208,0.98
					c0.013,0.061,0.045,0.214,0.079,0.381h0.994C3.018,2.471,3.053,2.426,3.048,2.334"/>
			</g>
			<g id="g40033" transform="translate(501.6729,155.4172)">
				<path id="path40035" fill="#002B5C" d="M3.808,2.692H2.127c-0.346,0-0.585-0.047-0.717-0.141
					C1.278,2.457,1.179,2.257,1.115,1.955L1.062,1.697C1.053,1.656,1.049,1.619,1.049,1.583c0-0.141,0.051-0.257,0.151-0.349
					c0.12-0.107,0.302-0.16,0.547-0.16h1.096c0.145,0,0.217-0.052,0.217-0.152c0-0.027-0.008-0.053-0.022-0.077
					c0,0-0.039-0.127-0.336-0.127H1.13c-0.162,0.01-0.234,0.259-0.234,0.259L0.761,0.294C0.74,0.137,0.848,0.091,0.986,0.091h1.737
					c0.345,0,0.583,0.047,0.716,0.142c0.133,0.094,0.219,0.28,0.283,0.58c0,0,0.045,0.225,0.052,0.29
					c0.046,0.36-0.183,0.596-0.57,0.596H2.049c-0.157,0-0.236,0.05-0.236,0.149c0,0.002,0.007,0.04,0.007,0.043
					c0.022,0.063,0.044,0.176,0.276,0.176h1.505c0.169,0,0.278-0.235,0.278-0.235s0.086,0.424,0.133,0.649
					C4.04,2.613,3.946,2.692,3.808,2.692"/>
			</g>
			<g id="g40037" transform="translate(485.7776,155.4102)">
				<path id="path40039" fill="#002B5C" d="M3.808,2.692c-0.085,0-0.173-0.002-0.209-0.065l-0.9-1.824L2.528,2.444
					C2.52,2.598,2.725,2.69,2.725,2.69s-0.68,0.002-0.686,0.002c-0.116,0-0.211-0.029-0.273-0.12L0.833,0.804L0.767,2.456
					c0.024,0.129,0.212,0.232,0.212,0.232L0.234,2.693c-0.003-0.001-0.005-0.001-0.01-0.001c-0.269-0.005-0.266-0.177-0.266-0.177
					l0.191-2.417h0.809c0.11,0,0.161,0.012,0.22,0.096l0.759,1.414l0.077-1.51h0.88C3,0.098,3.071,0.111,3.132,0.19l1.184,2.246
					c0.084,0.151,0.24,0.26,0.24,0.26C4.556,2.696,3.813,2.692,3.808,2.692"/>
			</g>
			<g id="g40041" transform="translate(486.8188,153.0565)">
				<path id="path40043" fill="#002B5C" d="M3.808,2.692c0,0,0.437,2.071,0.463,2.165c0.024,0.095,0.154,0.185,0.154,0.185
					C4.353,5.045,4.017,5.039,3.719,5.045c0,0-0.149,0.028-0.212-0.311L3.021,2.451h0.804C3.825,2.451,3.788,2.55,3.808,2.692"/>
			</g>
			<g id="g40045" transform="translate(489.9395,154.9022)">
				<path id="path40047" fill="#002B5C" d="M3.808,2.692l0.109,0.509c0,0-2.259-0.001-2.286-0.005
					C1.469,3.178,1.407,3.064,1.367,2.932L1.292,2.576l0,0L1.258,2.429c0,0,0.145,0.136,0.305,0.147h1.191L0.959,1.034L0.87,0.605
					h2.266c0.127,0,0.215,0.015,0.259,0.147l0.137,0.654c0,0-0.147-0.167-0.31-0.176H2.121L3.808,2.692z"/>
			</g>
			<g id="g40049" transform="translate(504.7362,178.311)">
				<path id="path40051" fill="#E31837" d="M3.808,2.692C3.714,2.759,3.782,2.888,3.706,2.764L3.697,2.748
					C3.596,2.585,3.539,2.406,3.515,2.211C3.503,1.997,3.57,1.908,3.659,1.916l1.116,0.162L4.716,2.493
					C4.167,2.426,3.808,2.692,3.808,2.692"/>
			</g>
			<g id="g40057" transform="translate(506.5016,178.6464)">
				<path id="path40059" fill="#E31837" d="M3.808,2.692C3.89,2.77,3.965,2.711,3.909,2.759C3.903,2.764,3.878,2.783,3.878,2.784
					C3.629,2.973,3.322,3.069,2.997,3.05c0,0-0.023-0.002-0.049-0.006l0.108-0.745C3.431,2.369,3.639,2.518,3.808,2.692"/>
			</g>
			<g id="g40061" transform="translate(505.4523,178.9707)">
				<path id="path40063" fill="#E31837" d="M3.808,2.692c-0.241-0.059-0.451-0.18-0.614-0.341c-0.075-0.073-0.077-0.2,0.025-0.258
					c0.223-0.109,0.527-0.164,0.762-0.138l-0.108,0.75C3.851,2.701,3.829,2.697,3.808,2.692"/>
			</g>
			<g id="g40065" transform="translate(505.0427,176.7058)">
				<path id="path40067" fill="#E31837" d="M3.808,2.692c-0.084-0.086-0.13-0.035-0.142-0.047c-0.009-0.012,0.06-0.056,0.06-0.056
					c0.236-0.181,0.528-0.277,0.836-0.27c0,0,0.057,0.001,0.104,0.006l-0.11,0.758C4.227,3.027,4.027,2.915,3.808,2.692"/>
			</g>
			<g id="g40069" transform="translate(506.0851,176.37)">
				<path id="path40071" fill="#E31837" d="M3.808,2.692c0.055,0.013,0.11,0.03,0.163,0.05C4.122,2.8,4.269,2.892,4.376,2.988
					c0.106,0.095,0.063,0.209-0.002,0.246C4.229,3.318,3.981,3.465,3.638,3.436l0.11-0.758C3.768,2.682,3.788,2.687,3.808,2.692"/>
			</g>
			<g id="g40077" transform="translate(504.5616,177.4046)">
				<path id="path40079" fill="#E31837" d="M3.808,2.692C3.751,2.686,3.728,2.72,3.71,2.742c-0.024,0.031-0.017-0.017,0.005-0.1
					c0.055-0.22,0.157-0.413,0.297-0.57C4.053,2.031,4.146,2.031,4.187,2.07c0.188,0.209,0.42,0.356,0.834,0.428L4.968,2.861
					L3.808,2.692z"/>
			</g>
			<g id="g40081" transform="translate(493.5073,178.0795)">
				<path id="path40083" fill="#E31837" d="M3.808,2.692L1.741,2.135l0.728,1.312L1.207,2.46l0.355,1.984L0.845,2.745L0.141,3.746
					l0.36-1.521l-1.636,0.226l1.41-0.762l-0.546-0.618l-0.066-0.3l0.774,0.174L0.395-0.514l0.782,1.518l0.907-0.998L1.557,1.389
					L3.808,2.692z"/>
			</g>
		</g>
	</g>
</g>
</svg>
