<?xml version="1.0" encoding="utf-8"?>
<!-- Generator: Adobe Illustrator 19.1.0, SVG Export Plug-In . SVG Version: 6.00 Build 0)  -->
<svg version="1.1" id="Layer_1" xmlns="http://www.w3.org/2000/svg" xmlns:xlink="http://www.w3.org/1999/xlink" x="0px" y="0px"
	 viewBox="0 0 400 400" enable-background="new 0 0 400 400" xml:space="preserve">
<path fill="#FFFFFF" d="M204.427,389.809c21.228-17.618,41.974-36.198,66.138-49.82c4.332-2.407,8.712-4.573,13.044-6.691
	c25.801-12.708,41.685-25.415,49.194-53.526c4.525-16.799,5.198-34.706,4.669-51.986c-0.866-26.426-5.632-53.382-3.177-79.76
	c1.492-15.692,5.776-30.855,15.74-45.536c1.348-1.973,1.011-5.824-0.625-7.509l-38.701-40.674c-0.674-0.722-3.514-1.925-4.525-1.877
	c-12.13,0.385-24.453-0.577-35.139-6.835c-11.601-6.739-18.051-17.858-23.105-29.844c-0.722-1.733-3.706-3.755-5.535-3.755h-83.659
	c-1.829,0-4.813,2.022-5.535,3.755c-5.054,11.986-11.504,23.105-23.105,29.844c-10.686,6.258-23.009,7.22-35.139,6.835
	c-1.011-0.048-3.851,1.155-4.525,1.877l-38.7,40.674c-1.637,1.685-1.974,5.536-0.626,7.509c9.964,14.681,14.248,29.844,15.74,45.536
	c2.455,26.378-2.311,53.334-3.177,79.76c-0.529,17.281,0.144,35.187,4.669,51.986c7.509,28.111,23.394,40.818,49.194,53.526
	c4.332,2.118,8.713,4.284,13.045,6.691c24.164,13.622,44.91,32.154,66.137,49.82C198.65,391.397,202.501,391.397,204.427,389.809z"
	/>
<path fill="#1B5FA9" d="M200.576,385.188c21.468-17.858,42.648-36.679,67.052-50.446c19.061-10.686,40.289-16.703,51.841-37.401
	c6.546-11.793,9.82-25.752,11.264-40.433c1.829-19.302,0.433-38.604-1.107-57.81c-2.84-35.523-5.776-68.833,15.451-99.977
	l-38.7-40.674c-13.43,0.433-26.522-0.77-38.364-7.653c-12.997-7.557-19.976-19.302-25.608-32.732h-83.659
	c-5.632,13.43-12.611,25.175-25.608,32.732c-11.841,6.883-24.934,8.087-38.364,7.653l-38.7,40.674
	c21.228,31.143,18.291,64.453,15.451,99.977c-1.54,19.206-2.936,38.508-1.107,57.81c1.444,14.681,4.717,28.64,11.263,40.433
	c11.553,20.698,32.78,26.715,51.841,37.401C157.928,348.509,179.156,367.33,200.576,385.188z"/>
<path fill="#FFFFFF" d="M138.434,325.981c-11.408-6.45-24.645-11.215-35.139-19.158l76.968-76.968v-20.024h-20.024l-73.791,73.839
	c-3.225-8.472-5.054-17.858-6.017-27.726c-1.781-18.676-0.289-37.449,1.155-56.029c2.792-34.609,5.632-69.988-12.66-99.736
	l10.879-11.408l79.952,79.953h20.024V148.7L99.733,68.652c14.344,0.096,27.293-2.647,38.46-9.146
	c11.215-6.498,20.409-16.655,27.196-31.384h35.187h12.515h22.672c6.787,14.729,15.981,24.886,27.196,31.384
	c11.167,6.498,24.116,9.242,38.46,9.146L221.37,148.7v20.024h20.024l79.953-79.953l10.879,11.408
	c-18.292,29.748-15.452,65.127-12.66,99.736c1.444,18.58,2.936,37.353,1.155,56.029c-0.963,9.868-2.792,19.254-6.017,27.726
	l-73.791-73.839h-20.024v20.024l76.968,76.968c-10.493,7.942-23.731,12.708-35.139,19.158
	c-22.768,12.804-42.022,29.651-62.142,46.065C180.456,355.633,161.202,338.786,138.434,325.981z"/>
<polygon fill="#ED1C24" points="248.519,113.032 152.633,113.032 185.799,146.197 185.799,174.741 157.254,174.741 124.571,142.057 
	124.571,236.98 157.736,203.815 186.28,203.815 186.28,232.359 153.596,264.995 247.556,264.995 214.872,232.359 214.872,203.815 
	243.416,203.815 276.581,236.98 276.581,142.057 243.898,174.741 215.354,174.741 215.354,146.197 "/>
<polygon fill="#FFFFFF" points="203.56,240.012 197.591,240.012 197.591,192.07 149.601,192.07 149.601,186.053 197.591,186.053 
	197.591,138.062 203.56,138.062 203.56,186.053 251.551,186.053 251.551,192.07 203.56,192.07 "/>
<path fill="#1B5FA9" d="M110.756,196.595l5.824,2.262c-0.915,3.995-2.407,6.98-4.525,8.857c-2.118,1.877-4.717,2.792-7.798,2.792
	c-3.851,0-7.028-1.492-9.434-4.476c-2.792-3.466-4.14-8.039-4.14-13.911c0-6.209,1.396-11.023,4.188-14.537
	c2.407-3.033,5.68-4.525,9.772-4.525c3.321,0,6.113,1.107,8.375,3.37c1.588,1.636,2.744,4.043,3.514,7.22l-5.969,1.733
	c-0.385-1.973-1.107-3.465-2.262-4.524c-1.107-1.059-2.455-1.54-3.995-1.54c-2.214,0-3.995,0.915-5.391,2.84
	c-1.348,1.925-2.07,5.102-2.07,9.483c0,4.573,0.674,7.846,2.022,9.771c1.396,1.877,3.129,2.84,5.295,2.84
	c1.588,0,2.936-0.626,4.092-1.829C109.408,201.216,110.274,199.29,110.756,196.595z"/>
<polygon fill="#1B5FA9" points="190.419,103.598 190.419,67.304 210.733,67.304 210.733,73.465 196.388,73.465 196.388,82.033 
	208.807,82.033 208.807,88.194 196.388,88.194 196.388,103.598 "/>
<path fill="#1B5FA9" d="M285.534,173.634h11.938c3.225,0,5.535,0.289,6.835,0.915c1.348,0.577,2.455,1.636,3.37,3.129
	c0.866,1.492,1.348,3.225,1.348,5.102c0,1.733-0.385,3.321-1.155,4.765c-0.77,1.396-1.781,2.455-3.033,3.129
	c1.781,0.626,3.129,1.685,4.14,3.225c1.011,1.492,1.492,3.322,1.492,5.536c0,2.551-0.626,4.813-1.877,6.643
	c-1.3,1.829-2.792,2.936-4.525,3.369c-1.203,0.289-3.995,0.433-8.375,0.433h-10.157V173.634L285.534,173.634z M291.551,179.699
	v8.375h3.947c2.358,0,3.851-0.048,4.428-0.096c1.011-0.193,1.781-0.626,2.407-1.3c0.577-0.722,0.866-1.685,0.866-2.888
	c0-1.059-0.241-1.925-0.722-2.599c-0.481-0.674-1.059-1.107-1.733-1.252c-0.626-0.144-2.551-0.241-5.728-0.241H291.551
	L291.551,179.699z M291.551,194.14v9.627h5.584c2.407,0,3.995-0.096,4.669-0.385c0.722-0.241,1.3-0.77,1.781-1.492
	c0.434-0.722,0.674-1.637,0.674-2.792c0-1.203-0.241-2.166-0.722-2.936c-0.53-0.77-1.203-1.3-2.022-1.588
	c-0.818-0.289-2.551-0.433-5.103-0.433H291.551z"/>
</svg>
