<?xml version="1.0" encoding="utf-8"?>
<!-- Generator: Adobe Illustrator 19.1.0, SVG Export Plug-In . SVG Version: 6.00 Build 0)  -->
<svg version="1.1" id="Layer_1" xmlns="http://www.w3.org/2000/svg" xmlns:xlink="http://www.w3.org/1999/xlink" x="0px" y="0px"
	 viewBox="0 0 400 400" enable-background="new 0 0 400 400" xml:space="preserve">
<g>
	<path fill-rule="evenodd" clip-rule="evenodd" d="M202.023,135.298c69.797,0,126.724,56.928,126.724,126.724
		c0,69.796-56.927,126.724-126.724,126.724c-69.797,0-126.725-56.928-126.725-126.724
		C75.298,192.226,132.225,135.298,202.023,135.298L202.023,135.298z"/>
	<path fill-rule="evenodd" clip-rule="evenodd" fill="#AABAC2" d="M77.067,262.022c0-68.9,56.055-124.955,124.956-124.955
		c68.901,0,124.955,56.055,124.955,124.955c0,68.901-56.054,124.955-124.955,124.955C133.122,386.977,77.067,330.923,77.067,262.022
		L77.067,262.022z"/>
	<path fill-rule="evenodd" clip-rule="evenodd" d="M94.167,262.022c0,59.471,48.384,107.855,107.855,107.855
		c59.471,0,107.855-48.384,107.855-107.855c0-59.471-48.384-107.854-107.855-107.854C142.552,154.168,94.167,202.552,94.167,262.022
		L94.167,262.022z"/>
	<path fill-rule="evenodd" clip-rule="evenodd" fill="#FFFFFF" d="M95.944,262.022c0-58.492,47.588-106.079,106.079-106.079
		c58.492,0,106.078,47.586,106.078,106.079c0,58.492-47.586,106.079-106.078,106.079C143.531,368.101,95.944,320.514,95.944,262.022
		L95.944,262.022z"/>
	<path fill-rule="evenodd" clip-rule="evenodd" d="M101.858,262.022c0,55.231,44.934,100.164,100.164,100.164
		c55.231,0,100.164-44.933,100.164-100.164c0-55.231-44.933-100.164-100.164-100.164
		C146.792,161.858,101.858,206.792,101.858,262.022L101.858,262.022z"/>
	<path fill-rule="evenodd" clip-rule="evenodd" fill="#FFFFFF" d="M103.732,262.022c0-54.198,44.094-98.29,98.29-98.29
		c54.197,0,98.289,44.092,98.289,98.29c0,54.197-44.092,98.289-98.289,98.289C147.826,360.311,103.732,316.219,103.732,262.022
		L103.732,262.022z"/>
	<path fill-rule="evenodd" clip-rule="evenodd" d="M300.4,262.835c0.003-0.272,0.011-0.542,0.011-0.813
		c0-0.323-0.01-0.644-0.012-0.966h-90.077l88.33-17.57c-0.111-0.583-0.226-1.164-0.347-1.744l-87.634,17.433l82.505-34.176
		c-0.224-0.548-0.45-1.095-0.683-1.64l-82.513,34.178l74.203-49.581c-0.326-0.493-0.656-0.986-0.99-1.473l-74.2,49.578
		l63.067-63.067c-0.415-0.422-0.835-0.839-1.258-1.253l-63.062,63.062l49.543-74.144c-0.489-0.334-0.983-0.66-1.478-0.984
		l-49.543,74.145l32.243-77.842l-1.64-0.68l-32.242,77.839l14.712-73.963l-1.742-0.347l-14.418,72.482V174.92h-2.365v76.39
		l-14.9-74.903l-1.741,0.347l15.194,76.385l-33.045-79.776l-1.641,0.681l33.046,79.778l-49.522-74.117
		c-0.496,0.323-0.989,0.65-1.478,0.985l49.522,74.114l-63.031-63.031c-0.424,0.415-0.843,0.832-1.259,1.254l63.034,63.034
		l-74.154-49.548c-0.334,0.488-0.664,0.979-0.99,1.474l74.16,49.552l-82.46-34.157c-0.234,0.544-0.458,1.092-0.682,1.64
		l82.456,34.153l-87.58-17.421c-0.122,0.58-0.235,1.161-0.347,1.744l88.264,17.557h-90.008c-0.003,0.323-0.014,0.643-0.014,0.966
		c0,0.271,0.009,0.541,0.011,0.813h88.621l-86.955,17.296c0.109,0.584,0.218,1.166,0.337,1.746l87.667-17.439l-82.603,34.215
		c0.221,0.55,0.443,1.1,0.673,1.645l82.615-34.219l-74.352,49.68c0.325,0.495,0.65,0.989,0.982,1.478l74.358-49.685l-63.247,63.246
		c0.415,0.425,0.831,0.843,1.254,1.258l63.25-63.249l-49.721,74.411c0.488,0.334,0.981,0.663,1.476,0.988l49.721-74.414
		l-34.27,82.736c0.543,0.232,1.091,0.458,1.639,0.679l36.9-89.083l36.91,89.106c0.548-0.222,1.096-0.446,1.64-0.679l-34.279-82.756
		l49.741,74.442c0.494-0.326,0.986-0.653,1.474-0.988l-49.74-74.441l63.282,63.283c0.421-0.416,0.839-0.836,1.254-1.258
		l-63.281-63.281l74.404,49.716c0.333-0.489,0.659-0.983,0.982-1.477l-74.402-49.715l82.674,34.245
		c0.231-0.544,0.452-1.093,0.673-1.643l-82.661-34.239l87.733,17.451c0.119-0.579,0.228-1.162,0.337-1.745l-87.021-17.309H300.4
		L300.4,262.835z"/>
	<path fill-rule="evenodd" clip-rule="evenodd" fill="#009248" d="M153.654,152.814c-6.648-1.632-12.277-2.397-16.037-1.907
		c-11.254,1.467-24.756,7.021-38.711,13.754c-8.948,4.318-20.056,9.964-42.264,23.069l20.685,1.557l-2.161,17.278
		c12.253-8.025,28.648-19.28,43.793-25.768c6.397-2.74,12.568-4.629,18.113-5.066c4.183-0.33,7.733,0.741,11.864,1.78
		c18.021,4.536,35.372,9.662,53.088,9.662v-25.41C185.216,161.764,167.34,156.17,153.654,152.814L153.654,152.814z"/>
	<path fill-rule="evenodd" clip-rule="evenodd" d="M278.657,199.179c-26.227,9.849-52.729,15.055-76.641,15.055
		c-23.912,0-50.414-5.206-76.642-15.055l-0.994-0.373l-0.192,1.044c-13.384,73.004,12.614,136.331,77.272,188.219l0.555,0.445
		l0.556-0.445c64.658-51.889,90.655-115.215,77.27-188.219l-0.191-1.044L278.657,199.179L278.657,199.179z"/>
	<path fill-rule="evenodd" clip-rule="evenodd" fill="#FFFFFF" d="M202.017,216.011c23.814,0,50.153-5.133,76.246-14.809
		c2.13,11.936,3.214,23.616,3.214,35.022c0,57.07-26.633,107.394-79.46,149.996c-52.827-42.603-79.461-92.927-79.461-149.998
		c0-11.405,1.084-23.085,3.214-35.021C151.862,210.878,178.203,216.011,202.017,216.011L202.017,216.011z"/>
	<path fill-rule="evenodd" clip-rule="evenodd" fill="#EE3124" d="M202.017,377.141V225.095c-24.804,0-47.038-4.038-69.536-11.699
		C124.063,278.146,150.077,329.999,202.017,377.141L202.017,377.141z"/>
	<path fill-rule="evenodd" clip-rule="evenodd" fill="#FDB913" d="M201.963,244.187c23.874,0,43.345,19.471,43.345,43.346
		s-19.472,43.347-43.345,43.347s-43.346-19.473-43.346-43.347S178.09,244.187,201.963,244.187L201.963,244.187z"/>
	<path fill-rule="evenodd" clip-rule="evenodd" d="M157.728,287.533c0,24.392,19.844,44.236,44.235,44.236
		c24.391,0,44.234-19.844,44.234-44.236c0-24.391-19.844-44.234-44.234-44.234C177.572,243.299,157.728,263.142,157.728,287.533
		L157.728,287.533z M159.506,287.533c0-23.411,19.046-42.456,42.457-42.456s42.456,19.045,42.456,42.456
		s-19.045,42.457-42.456,42.457S159.506,310.944,159.506,287.533L159.506,287.533z"/>
	<path fill-rule="evenodd" clip-rule="evenodd" d="M157.813,286.7c2.638,4.931,7.155,9.79,13.061,14.049l1.039-1.441
		c-5.688-4.103-10.023-8.752-12.534-13.445L157.813,286.7L157.813,286.7z"/>
	<path fill-rule="evenodd" clip-rule="evenodd" d="M178.68,294.977l1.353-1.15c-9.957-11.719-7.765-31.62,4.988-45.306l-1.299-1.212
		C170.365,261.645,168.151,282.582,178.68,294.977L178.68,294.977z"/>
	<path fill-rule="evenodd" clip-rule="evenodd" d="M198.429,268.9l1.7-0.517c-3.268-10.728-0.041-17.463,10.788-22.523l-0.752-1.609
		C198.513,249.695,194.894,257.297,198.429,268.9L198.429,268.9z"/>
	<path fill-rule="evenodd" clip-rule="evenodd" d="M221.079,285.355c10.177,10.55,12.443,27.178,5.053,37.067l1.423,1.065
		c8.024-10.736,5.742-28.028-5.197-39.366L221.079,285.355L221.079,285.355z"/>
	<path fill-rule="evenodd" clip-rule="evenodd" d="M230.965,274.445c7.535,6.227,11.875,15.773,11.608,25.533l1.776,0.049
		c0.283-10.304-4.297-20.379-12.252-26.951L230.965,274.445L230.965,274.445z"/>
	<path fill-rule="evenodd" clip-rule="evenodd" d="M207.129,296.658c7.184,13.337,6.054,26.985-2.749,33.188l1.024,1.453
		c9.562-6.738,10.915-21.33,3.289-35.484L207.129,296.658L207.129,296.658z"/>
	<path fill-rule="evenodd" clip-rule="evenodd" d="M190.55,317.615l-0.264,1.756c7.832,1.182,18.449-2.382,22.695-11.31
		l-1.603-0.762C207.499,315.454,197.752,318.701,190.55,317.615L190.55,317.615z"/>
	<path fill-rule="evenodd" clip-rule="evenodd" d="M271.194,212.577c-9.422,3.208-18.447,5.672-27.586,7.53l-0.261,0.054
		l-93.958,93.665l0.317,0.583c4.873,9.027,10.765,18.059,17.51,26.844l0.616,0.802l106.09-105.763l-0.004-0.373
		c-0.045-7.401-0.568-15.01-1.557-22.616l-0.139-1.075L271.194,212.577L271.194,212.577z"/>
	<path fill-rule="evenodd" clip-rule="evenodd" fill="#0095DA" d="M270.705,214.601c0.877,7.054,1.368,14.099,1.424,20.969
		c-0.543,0.54-102.674,102.355-104.107,103.784c-6.289-8.268-11.812-16.742-16.43-25.218c0.948-0.944,92.273-91.986,92.636-92.348
		C253.005,219.992,261.687,217.628,270.705,214.601L270.705,214.601z"/>
	<path fill-rule="evenodd" clip-rule="evenodd" fill="#FDB913" d="M171.625,322.839l2.476-2.475c0.97,0.881,1.996,1.327,3.086,1.335
		c1.093,0.011,2.075-0.418,2.937-1.281c0.952-0.949,1.435-1.987,1.455-3.111c0.02-1.125-0.431-2.148-1.356-3.072
		c-0.807-0.808-1.645-1.227-2.504-1.245c-0.86-0.028-2.15,0.441-3.871,1.392c-0.083,0.05-0.233,0.142-0.44,0.265
		c-1.993,1.197-3.807,1.697-5.438,1.495c-0.725-0.079-1.396-0.261-2.009-0.552c-0.618-0.295-1.179-0.696-1.694-1.21
		c-1.532-1.533-2.283-3.25-2.26-5.165c0.028-1.911,0.823-3.653,2.397-5.227c1.457-1.456,3.054-2.208,4.793-2.257
		c1.744-0.054,3.399,0.61,4.967,1.99l-2.579,2.579c-0.756-0.668-1.584-0.985-2.489-0.961c-0.909,0.029-1.711,0.398-2.422,1.108
		c-0.76,0.76-1.133,1.619-1.121,2.577c0.012,0.968,0.402,1.832,1.168,2.599c0.272,0.272,0.568,0.479,0.891,0.632
		c0.328,0.15,0.679,0.233,1.068,0.255c0.794,0.044,1.958-0.401,3.489-1.329c0.706-0.429,1.265-0.746,1.665-0.954
		c1.699-0.82,3.295-1.126,4.79-0.938c1.49,0.193,2.823,0.876,4.005,2.056c1.724,1.724,2.591,3.637,2.595,5.741
		c0.01,2.1-0.853,4.016-2.578,5.741c-1.626,1.627-3.451,2.439-5.479,2.449C175.142,325.282,173.292,324.472,171.625,322.839
		L171.625,322.839z M200.894,303.868l-2.618,2.618l-3.018-3.018l2.619-2.618L200.894,303.868L200.894,303.868z M220.988,283.772
		l-9.007,9.008l-17.856-17.856l2.762-2.762l15.39,15.391l6.245-6.247L220.988,283.772L220.988,283.772z M233.595,271.166
		l-2.619,2.62l-3.018-3.019l2.619-2.619L233.595,271.166L233.595,271.166z M237.04,246.968l0.877-0.876
		c1.425-1.425,2.238-2.64,2.436-3.649c0.201-1.013-0.16-1.983-1.093-2.916c-0.825-0.826-1.712-1.16-2.661-1.007
		c-0.947,0.152-1.983,0.795-3.119,1.93l-1.478,1.479L237.04,246.968L237.04,246.968z M244.975,254.958l2.172-2.172
		c1.277-1.277,1.993-2.438,2.15-3.489c0.159-1.047-0.232-2.036-1.166-2.97c-1.013-1.013-2.092-1.466-3.245-1.36
		c-1.153,0.107-2.342,0.769-3.567,1.993l-2.17,2.173L244.975,254.958L244.975,254.958z M230.923,238.126
		c2.034-2.032,3.994-3.154,5.886-3.382c1.887-0.221,3.629,0.465,5.222,2.06c0.737,0.737,1.212,1.56,1.433,2.469
		c0.221,0.909,0.185,1.874-0.108,2.903c1.189-0.669,2.428-0.905,3.713-0.7c1.287,0.205,2.447,0.819,3.476,1.849
		c0.832,0.833,1.449,1.781,1.852,2.844c0.397,1.067,0.548,2.13,0.445,3.197c-0.116,1.036-0.442,2.014-0.973,2.94
		c-0.532,0.926-1.463,2.049-2.79,3.375l-4.397,4.396l-17.855-17.855L230.923,238.126L230.923,238.126z M268.842,235.918
		l-2.618,2.619l-3.017-3.018l2.617-2.618L268.842,235.918L268.842,235.918z"/>
	<path fill-rule="evenodd" clip-rule="evenodd" d="M271.266,212.555c-23.345,7.95-45.35,11.653-69.249,11.653
		c-23.9,0-45.904-3.703-69.25-11.653l-1.027-0.35l-0.14,1.075c-8.025,61.724,14.161,114,69.82,164.519l0.597,0.541l0.597-0.541
		c55.658-50.519,77.845-102.795,69.819-164.519l-0.14-1.075L271.266,212.555L271.266,212.555z M131.788,237.179
		c0-7.394,0.514-14.931,1.469-22.602c23.14,7.765,45.024,11.407,68.76,11.407c23.735,0,45.62-3.643,68.76-11.407
		c0.955,7.671,1.468,15.206,1.468,22.601c0,50.817-22.724,95.424-70.228,138.745C154.514,332.602,131.788,287.996,131.788,237.179
		L131.788,237.179z"/>
	<path fill-rule="evenodd" clip-rule="evenodd" fill="#EE3124" d="M347.404,187.731c-22.209-13.106-33.317-18.751-42.264-23.069
		c-13.957-6.733-27.457-12.287-38.713-13.754c-3.759-0.489-9.389,0.275-16.037,1.907c-13.686,3.356-31.56,8.95-48.367,8.95v25.41
		c17.715,0,35.066-5.126,53.088-9.662c4.13-1.039,7.68-2.11,11.864-1.78c5.543,0.438,11.716,2.326,18.111,5.066
		c15.145,6.488,31.541,17.743,43.795,25.768l-2.161-17.278L347.404,187.731L347.404,187.731z"/>
	<path fill-rule="evenodd" clip-rule="evenodd" d="M250.178,151.952l-7.669,1.958c-12.552,3.265-26.779,6.966-40.487,6.966
		c-13.71,0-27.936-3.701-40.488-6.967l-7.668-1.957c-7.167-1.758-12.671-2.405-16.364-1.926c-9.768,1.274-21.791,5.54-38.983,13.836
		c-8.439,4.072-19.366,9.551-42.33,23.104l-2.435,1.438c0,0,20.877,1.571,22.575,1.698c-0.208,1.658-2.285,18.263-2.285,18.263
		l5.885-3.873c11.585-7.641,26.007-17.151,39.379-22.879c6.818-2.92,12.817-4.602,17.832-4.997
		c3.604-0.285,6.712,0.512,10.311,1.434l8.118,2.072c15.88,4.083,30.881,7.94,46.453,7.94c15.571,0,30.571-3.857,46.453-7.94
		l8.117-2.072c3.599-0.922,6.707-1.718,10.312-1.434c5.014,0.396,11.014,2.077,17.831,4.997
		c13.372,5.728,27.79,15.238,39.379,22.879l5.888,3.873c0,0-2.079-16.606-2.288-18.264c1.698-0.127,22.577-1.698,22.577-1.698
		l-2.437-1.438c-22.963-13.551-33.89-19.032-42.33-23.104c-17.193-8.297-29.216-12.563-38.983-13.836
		C262.849,149.547,257.344,150.193,250.178,151.952L250.178,151.952z M242.955,155.628l7.646-1.953
		c6.951-1.705,12.238-2.34,15.711-1.888c9.572,1.248,21.427,5.464,38.442,13.674c8.097,3.909,18.53,9.14,39.753,21.597
		c-4.218,0.317-18.784,1.414-18.784,1.414s1.661,13.272,2.039,16.294c-1.252-0.824-2.67-1.755-2.67-1.755
		c-11.644-7.681-26.138-17.239-39.657-23.029c-7.094-3.039-13.109-4.719-18.391-5.135c-3.898-0.308-7.294,0.562-10.891,1.483
		l-8.121,2.072c-15.769,4.054-30.663,7.883-46.009,7.883c-15.346,0-30.242-3.829-46.011-7.883l-8.12-2.072
		c-3.597-0.921-6.992-1.791-10.891-1.483c-5.282,0.416-11.297,2.096-18.392,5.135c-13.518,5.79-28.011,15.349-39.657,23.029
		c0,0-1.415,0.932-2.668,1.755c0.378-3.022,2.039-16.294,2.039-16.294s-14.566-1.097-18.784-1.414
		c21.223-12.458,31.654-17.689,39.752-21.597c17.013-8.208,28.868-12.426,38.441-13.674c3.473-0.452,8.759,0.183,15.71,1.888
		l7.644,1.953c12.655,3.292,26.999,7.024,40.936,7.024C215.959,162.652,230.302,158.921,242.955,155.628L242.955,155.628z"/>
	<path fill-rule="evenodd" clip-rule="evenodd" d="M288.291,174.986l-2.334-0.942l1.061-4.175c0.077-0.294,0.169-0.619,0.274-0.974
		c0.106-0.354,0.229-0.739,0.366-1.153c-0.212,0.363-0.524,0.801-0.928,1.311c-0.085,0.106-0.15,0.185-0.19,0.235l-2.976,3.788
		l-1.664-0.672l0.49-4.792c0.007-0.065,0.016-0.164,0.033-0.299c0.058-0.649,0.139-1.178,0.239-1.583
		c-0.166,0.337-0.334,0.666-0.502,0.992c-0.172,0.327-0.348,0.648-0.531,0.969l-2.136,3.74l-2.32-0.938l5.111-8.583l2.469,0.998
		l-0.525,5.28c-0.004,0.035-0.01,0.098-0.016,0.182c-0.039,0.473-0.104,0.866-0.192,1.181c0.081-0.156,0.187-0.324,0.312-0.505
		c0.126-0.178,0.284-0.392,0.476-0.639l3.298-4.145l2.476,1.001L288.291,174.986L288.291,174.986z M265.598,158.364l2.659,0.373
		l-0.669,4.755c-0.098,0.699-0.15,1.204-0.159,1.513c-0.007,0.309,0.017,0.572,0.074,0.79c0.066,0.263,0.22,0.48,0.453,0.648
		c0.236,0.165,0.537,0.274,0.902,0.326c0.365,0.052,0.681,0.029,0.954-0.065c0.268-0.097,0.477-0.263,0.615-0.498
		c0.116-0.192,0.211-0.44,0.289-0.738c0.078-0.3,0.166-0.799,0.265-1.499l0.095-0.668l0.573-4.087l2.652,0.373l-0.728,5.169
		c-0.15,1.072-0.325,1.855-0.527,2.347c-0.203,0.492-0.479,0.894-0.838,1.213c-0.389,0.348-0.89,0.582-1.5,0.699
		c-0.612,0.116-1.333,0.114-2.166-0.002c-0.837-0.118-1.531-0.316-2.085-0.596c-0.553-0.28-0.972-0.642-1.253-1.085
		c-0.252-0.406-0.409-0.869-0.469-1.398c-0.059-0.529-0.012-1.329,0.138-2.4l0.143-1.017L265.598,158.364L265.598,158.364z
		 M249.965,171.735l-2.556-9.537l2.508-0.672l4.916,3.94c0.095,0.081,0.263,0.251,0.504,0.511c0.239,0.261,0.509,0.571,0.811,0.938
		c-0.158-0.381-0.289-0.723-0.397-1.025c-0.106-0.3-0.191-0.571-0.254-0.811l-1.262-4.71l2.494-0.668l2.556,9.537l-2.494,0.667
		l-4.923-3.959c-0.101-0.081-0.27-0.25-0.511-0.509c-0.238-0.26-0.504-0.568-0.8-0.926c0.158,0.386,0.291,0.73,0.397,1.032
		c0.107,0.301,0.192,0.571,0.256,0.811l1.262,4.709L249.965,171.735L249.965,171.735z M234.054,165.667l2.593-0.695l1.241,4.638
		c0.184,0.683,0.333,1.167,0.445,1.456c0.114,0.287,0.24,0.52,0.379,0.698c0.162,0.216,0.387,0.356,0.669,0.419
		c0.281,0.061,0.601,0.043,0.955-0.051c0.357-0.096,0.639-0.241,0.853-0.433c0.209-0.194,0.336-0.429,0.373-0.698
		c0.031-0.223,0.021-0.487-0.022-0.793c-0.047-0.307-0.16-0.801-0.343-1.483l-0.175-0.652l-1.068-3.987l2.585-0.693l1.352,5.044
		c0.28,1.045,0.425,1.833,0.43,2.365c0.008,0.532-0.091,1.011-0.295,1.445c-0.222,0.471-0.593,0.883-1.109,1.228
		c-0.517,0.346-1.182,0.627-1.995,0.845c-0.816,0.218-1.532,0.307-2.151,0.266c-0.619-0.042-1.146-0.212-1.579-0.509
		c-0.39-0.274-0.714-0.64-0.977-1.104c-0.261-0.464-0.532-1.218-0.813-2.263l-0.265-0.991L234.054,165.667L234.054,165.667z
		 M217.229,175.79c0.473,0.376,0.923,0.643,1.343,0.794c0.423,0.155,0.824,0.199,1.204,0.131c0.354-0.062,0.629-0.209,0.821-0.439
		c0.197-0.231,0.268-0.491,0.216-0.783c-0.057-0.324-0.198-0.556-0.426-0.697c-0.228-0.139-0.707-0.242-1.434-0.306
		c-0.997-0.087-1.73-0.305-2.197-0.646c-0.467-0.342-0.764-0.872-0.89-1.589c-0.164-0.929,0.012-1.743,0.533-2.44
		c0.517-0.697,1.273-1.131,2.263-1.306c0.537-0.095,1.058-0.111,1.564-0.054c0.505,0.06,0.997,0.198,1.48,0.415l-0.494,2.053
		c-0.346-0.203-0.689-0.344-1.031-0.419c-0.34-0.074-0.663-0.084-0.972-0.03c-0.321,0.056-0.565,0.179-0.737,0.366
		c-0.174,0.187-0.238,0.401-0.196,0.64c0.043,0.245,0.166,0.425,0.365,0.54c0.201,0.116,0.564,0.195,1.086,0.24
		c0.034,0.004,0.076,0.008,0.126,0.013c1.132,0.1,1.898,0.297,2.301,0.586c0.272,0.199,0.498,0.455,0.678,0.769
		c0.179,0.311,0.302,0.673,0.374,1.079c0.182,1.032-0.01,1.921-0.577,2.666c-0.567,0.748-1.414,1.22-2.543,1.419
		c-0.678,0.12-1.316,0.112-1.912-0.02c-0.596-0.133-1.194-0.399-1.794-0.8L217.229,175.79L217.229,175.79z M203.044,170.239
		l2.677-0.188l0.334,4.79c0.05,0.705,0.104,1.209,0.159,1.514c0.059,0.303,0.136,0.556,0.238,0.757
		c0.117,0.243,0.313,0.423,0.577,0.539c0.265,0.113,0.581,0.158,0.949,0.132c0.367-0.025,0.673-0.114,0.919-0.262
		c0.243-0.151,0.411-0.357,0.499-0.615c0.073-0.213,0.114-0.475,0.129-0.782c0.014-0.311-0.004-0.817-0.053-1.521l-0.048-0.673
		l-0.287-4.118l2.67-0.186l0.365,5.207c0.074,1.08,0.067,1.881-0.028,2.404c-0.094,0.525-0.283,0.976-0.567,1.364
		c-0.307,0.42-0.75,0.752-1.323,0.993c-0.573,0.241-1.281,0.39-2.118,0.448c-0.842,0.06-1.565,0.011-2.164-0.149
		c-0.599-0.159-1.085-0.427-1.452-0.8c-0.331-0.344-0.58-0.765-0.748-1.27c-0.167-0.506-0.289-1.297-0.364-2.378l-0.073-1.024
		L203.044,170.239L203.044,170.239z"/>
	<path fill-rule="evenodd" clip-rule="evenodd" d="M116.353,174.773l-3.857-9.087l5.569-2.365l0.844,1.992l-3.152,1.339l0.669,1.576
		l2.973-1.261l0.827,1.949l-2.973,1.262l0.651,1.534l3.153-1.337l0.865,2.036L116.353,174.773L116.353,174.773z M137.27,168.569
		l-2.522,0.089l-0.345-9.868l2.811-0.098c1.1-0.038,1.876-0.012,2.326,0.08c0.448,0.093,0.831,0.264,1.151,0.516
		c0.373,0.285,0.666,0.653,0.872,1.098c0.208,0.446,0.318,0.945,0.34,1.496c0.019,0.589-0.057,1.111-0.231,1.562
		c-0.173,0.456-0.438,0.831-0.796,1.132c-0.271,0.226-0.594,0.392-0.968,0.499c-0.374,0.108-0.978,0.176-1.809,0.205l-0.457,0.017
		l-0.485,0.017L137.27,168.569L137.27,168.569z M137.08,163.145l0.513-0.019c0.646-0.022,1.095-0.128,1.343-0.314
		c0.25-0.186,0.369-0.492,0.353-0.92c-0.015-0.413-0.152-0.703-0.409-0.87c-0.256-0.166-0.706-0.237-1.343-0.215l-0.538,0.019
		L137.08,163.145L137.08,163.145z M146.41,169.655l2.554-9.536l2.6,0.697l-1.958,7.308l3.23,0.866l-0.597,2.228L146.41,169.655
		L146.41,169.655z M158.918,162.728l2.592,0.694l-1.242,4.639c-0.183,0.682-0.297,1.176-0.343,1.484
		c-0.044,0.306-0.053,0.57-0.021,0.792c0.032,0.269,0.158,0.503,0.37,0.698c0.213,0.192,0.498,0.339,0.854,0.433
		c0.356,0.095,0.673,0.111,0.954,0.051c0.28-0.064,0.506-0.203,0.672-0.418c0.139-0.178,0.262-0.411,0.377-0.698
		c0.114-0.289,0.262-0.773,0.446-1.456l0.174-0.651l1.068-3.987l2.587,0.693l-1.352,5.043c-0.28,1.046-0.549,1.8-0.81,2.265
		c-0.259,0.464-0.584,0.83-0.979,1.103c-0.428,0.298-0.955,0.469-1.573,0.51c-0.622,0.041-1.339-0.049-2.149-0.267
		c-0.816-0.218-1.483-0.5-1.998-0.844c-0.515-0.346-0.886-0.757-1.112-1.23c-0.2-0.433-0.298-0.911-0.294-1.445
		c0.006-0.532,0.149-1.321,0.429-2.366l0.266-0.991L158.918,162.728L158.918,162.728z M169.59,175.559l2.221-9.62l2.741,0.633
		c1.071,0.248,1.81,0.47,2.209,0.666c0.398,0.196,0.726,0.446,0.98,0.748c0.284,0.342,0.473,0.741,0.566,1.189
		c0.092,0.452,0.08,0.921-0.032,1.412c-0.172,0.745-0.494,1.309-0.967,1.691c-0.473,0.382-1.079,0.568-1.814,0.56l1.724,4.483
		l-2.963-0.685l-1.337-4.275l-0.87,3.766L169.59,175.559L169.59,175.559z M173.219,171.053l0.486,0.112
		c0.566,0.13,1.001,0.13,1.306-0.004c0.305-0.132,0.504-0.405,0.6-0.816c0.111-0.483,0.07-0.853-0.129-1.114
		c-0.196-0.261-0.579-0.455-1.154-0.588l-0.525-0.121L173.219,171.053L173.219,171.053z M181.321,178.003l1.715-9.723l2.677,0.472
		l-1.714,9.723L181.321,178.003L181.321,178.003z"/>
	<path fill-rule="evenodd" clip-rule="evenodd" fill="#009248" d="M137.534,160.707l-0.637,0.022l0.088,2.516l0.61-0.021
		c0.672-0.024,1.13-0.133,1.399-0.334c0.276-0.206,0.408-0.543,0.392-1.002c-0.015-0.445-0.167-0.764-0.452-0.951
		C138.657,160.76,138.199,160.684,137.534,160.707L137.534,160.707z M137.541,160.904c0.614-0.021,1.047,0.046,1.286,0.2
		c0.232,0.15,0.35,0.409,0.363,0.791c0.001,0.023,0.002,0.046,0.002,0.068c0,0.356-0.106,0.614-0.314,0.769
		c-0.232,0.175-0.666,0.273-1.287,0.294c0,0-0.285,0.011-0.414,0.015c-0.006-0.173-0.068-1.949-0.074-2.122
		C137.233,160.916,137.541,160.904,137.541,160.904L137.541,160.904z"/>
	<path fill-rule="evenodd" clip-rule="evenodd" fill="#009248" d="M173.708,168.501l-0.607,2.625l0.583,0.134
		c0.592,0.136,1.039,0.134,1.366-0.008c0.333-0.145,0.553-0.443,0.656-0.885c0.117-0.511,0.069-0.914-0.146-1.195
		c-0.21-0.281-0.607-0.485-1.211-0.625l-0.62-0.143L173.708,168.501L173.708,168.501z M173.877,168.641
		c0.128,0.03,0.428,0.099,0.428,0.099c0.55,0.126,0.919,0.312,1.099,0.551c0.111,0.148,0.167,0.341,0.167,0.577
		c0,0.137-0.018,0.289-0.056,0.456c-0.089,0.377-0.271,0.629-0.544,0.747c-0.282,0.124-0.701,0.124-1.243-0.001
		c0,0-0.266-0.062-0.391-0.09C173.377,170.808,173.838,168.812,173.877,168.641L173.877,168.641z"/>
	<path fill-rule="evenodd" clip-rule="evenodd" d="M181.645,104.837v0.107h0.106c0.683,0,2.404-0.937,3.924-1.763
		c0.894-0.487,1.738-0.946,2.138-1.079l-0.067-0.203c-0.416,0.14-1.231,0.582-2.172,1.095c-1.359,0.739-3.008,1.628-3.704,1.708
		c0.029-2.904,0.917-4.664,3.497-6.875l-0.139-0.163C182.548,99.961,181.645,101.771,181.645,104.837L181.645,104.837z"/>
	<path fill-rule="evenodd" clip-rule="evenodd" fill="#FDB913" d="M246.736,105.01c-1.957,0.694-4.077,0.242-5.215-2.016
		c-2.087,1.811-4.649,2.066-8.038,0.734L219.45,84.634l2.135-19.308c3.555,1.818,7.516,2.187,9.153,2.017
		c10.586-1.1,1.693-9.173,17.014-16.143c5.477-10.103,14.376-13.541,19.474-14.546c25.38-5.008,58.805-2.355,84.87-2.572
		l33.355-0.278c-2.062,5.08-9.202,8.259-16.435,9.852c-1.918,4.64-4.366,7.216-10.217,9.595c-0.373,1.842-1.734,7.223-14.662,11.797
		c-2.748,7.472-16.104,12.887-28.136,15.142c-3.021,5.99-13.633,7.878-18.774,7.115c-0.463,1.656-4.177,3.722-5.631,3.557
		c0.252,0.678,0.514,3.615-3.147,2.858c0.71,2.33,0.23,3.626-0.836,4.292c-1.099,0.687-2.823,0.702-4.505,0.485
		c-0.342,1.402-1.51,1.931-2.863,1.982c-1.533,0.058-3.301-0.498-4.372-1.09c0.027,1.956-1.291,2.568-3.079,2.44
		c-2.017-0.145-4.312-1.176-5.189-2.134c-0.337,2.108-2.254,2.974-4.294,3.063c-1.396,0.061-2.848-0.239-3.89-0.752
		c-0.145,1.682-1.62,2.318-2.867,2.341c-2.382,0.044-5.253-2.15-5.744-3.578C250.164,102.797,248.516,104.378,246.736,105.01
		L246.736,105.01z"/>
	<path fill-rule="evenodd" clip-rule="evenodd" d="M267.036,35.684c-4.001,0.79-13.887,3.827-19.968,14.757
		c-8.248,3.841-9.684,8.125-10.714,11.265c-0.89,2.71-1.381,4.203-5.717,4.655c-1.561,0.162-5.277-0.214-8.601-1.914l-1.275-0.652
		l-2.334,21.114l14.429,19.634l0.265,0.104c3.251,1.277,5.888,1.095,8.105-0.336c1.354,1.786,3.532,2.446,5.839,1.628
		c1.615-0.572,3.013-1.751,3.924-3.23c1.35,1.411,3.59,2.657,5.585,2.621c1.41-0.027,2.845-0.708,3.482-2.08
		c1.036,0.33,2.178,0.539,3.301,0.491c2.234-0.099,3.886-0.997,4.706-2.454c1.289,0.796,3.079,1.409,4.662,1.522
		c1.388,0.1,2.462-0.196,3.188-0.882c0.328-0.311,0.564-0.694,0.722-1.132c1.096,0.407,2.421,0.712,3.648,0.667
		c1.671-0.064,2.843-0.762,3.448-1.937c1.915,0.16,3.388-0.043,4.407-0.679c0.814-0.51,1.632-1.45,1.632-3.173
		c0-0.265-0.033-0.56-0.073-0.865c1.19-0.043,1.904-0.512,2.305-0.977c0.532-0.621,0.712-1.423,0.712-2.124
		c0-0.001-0.001-0.002-0.001-0.002c1.758-0.432,4.152-1.828,5.115-3.378c5.402,0.531,15.311-1.336,18.754-7.25
		c11.163-2.152,24.954-7.384,28.282-15.256c8.544-3.092,13.485-7.077,14.74-11.85c5.339-2.247,8.077-4.811,10.109-9.472
		c5.352-1.229,14.141-4.132,16.654-10.327l0.556-1.371l-34.836,0.29c-6.933,0.058-14.297-0.086-22.091-0.238
		C309.259,32.45,285.755,31.99,267.036,35.684L267.036,35.684z M230.841,68.325c5.609-0.583,6.473-3.216,7.389-6.003
		c0.98-2.988,2.201-6.707,9.931-10.224l0.302-0.137l0.157-0.292c5.666-10.448,15.032-13.304,18.798-14.048
		c18.509-3.651,40.893-3.214,62.539-2.791c7.81,0.152,15.185,0.296,22.147,0.238c0,0,28.676-0.24,31.688-0.264
		c-2.272,3.429-7.597,6.258-14.987,7.884l-0.504,0.111l-0.198,0.476c-1.901,4.604-4.344,6.89-9.676,9.058l-0.491,0.2l-0.106,0.519
		c-0.883,4.361-5.6,8.082-14.022,11.061l-0.437,0.155l-0.16,0.435c-2.559,6.959-15.602,12.302-27.392,14.513l-0.481,0.09
		l-0.22,0.436c-2.839,5.629-13.06,7.278-17.745,6.582l-0.862-0.128l-0.235,0.839c-0.313,1.119-3.505,2.962-4.568,2.842l-1.597-0.181
		l0.559,1.506c0.071,0.194,0.158,0.963-0.167,1.342c-0.374,0.435-1.322,0.315-1.853,0.205l-1.631-0.337l0.487,1.592
		c0.744,2.443-0.128,2.987-0.416,3.166c-0.508,0.318-1.589,0.636-3.854,0.344l-0.877-0.114l-0.209,0.859
		c-0.078,0.32-0.287,1.166-1.942,1.228c-1.356,0.052-2.95-0.464-3.855-0.965l-1.489-0.823l0.023,1.702
		c0.008,0.509-0.104,0.876-0.33,1.09c-0.299,0.281-0.899,0.406-1.691,0.349c-1.809-0.129-3.84-1.06-4.531-1.815l-1.38-1.51
		l-0.323,2.021c-0.293,1.825-2.231,2.181-3.362,2.231c-1.182,0.053-2.489-0.198-3.41-0.652l-1.297-0.639l-0.124,1.441
		c-0.113,1.304-1.482,1.431-1.901,1.438c-2.026,0.036-4.455-1.93-4.79-2.91l-0.967-2.824l-0.909,2.843
		c-0.523,1.634-1.883,3.052-3.467,3.614c-0.824,0.292-2.865,0.729-4.001-1.528l-0.571-1.133l-0.958,0.83
		c-1.772,1.537-3.882,1.721-6.787,0.638c-0.361-0.492-13.178-17.933-13.614-18.526c0.076-0.684,1.7-15.372,1.947-17.609
		C225.776,68.15,229.195,68.496,230.841,68.325L230.841,68.325z"/>
	<path fill-rule="evenodd" clip-rule="evenodd" fill="#FDB913" d="M172.801,99.594c-1.859,0.778-3.353,1.125-4.773,1.071
		c-1.421-0.054-2.68-0.508-3.889-1.337c-1.366,2.409-3.436,3.451-5.389,3.441c-2.213-0.014-4.053-1.47-5.004-3.644
		c-1.302,1.937-4.105,5.183-7.042,5.146c-1.15-0.013-2.118-0.753-2.588-2.752c-1.123,0.553-2.632,1.063-3.954,1.164
		c-1.701,0.13-3.097-0.416-2.976-2.412c-1.561,0.967-3.969,1.881-5.734,1.888c-1.559,0.006-2.616-0.69-2.149-2.675
		c-0.37,0.401-2.861,1.7-4.782,1.495c-1.007-0.107-1.856-0.627-2.162-1.905c-1.657,0.214-3.496-0.183-4.875-1.117
		c-1.379-0.934-2.297-2.403-2.106-4.335c-4.84,1.097-4.964-2.66-4.713-3.338c-1.578-0.357-4.15-1.326-4.838-2.982
		c-6.206-0.163-14.264-0.513-18.573-5.884c0,0,0.152-0.448-0.102-0.458c-9.814-0.422-23.749-5.488-26.498-12.962
		c-11.629-4.357-15.279-9.086-16.301-11.469c-6.333-2.138-11.548-4.489-12.919-9.403c-7.618-1.207-16.591-6.506-18.267-11.973
		l36.443-0.204c26.066-0.145,59.488-2.919,84.87,2.09c5.098,1.006,15.829,6.663,21.307,16.765
		c9.435,0.218,12.303,15.418,19.608,15.554c2.633,0.049,6.76-2.463,10.112-8.667c-1.422,0.418-2.801,0.603-4.111,0.592
		c-1.231-0.011-2.397-0.195-3.478-0.525c5.902-2.667,5.546-7.25,5.654-9.158c-1.37,0.61-3.719,0.786-5.522,0.2
		c1.108-1.437,2.236-4.323,1.698-6.313c-1.609,1.372-2.816,1.987-4.45,2.329c0.097-1.708-0.085-3.164-0.702-4.556
		c-2.702-6.103-11.459-4.08-11.284-10.629c1.076,1.213,2.606,2.202,4.339,2.203c0.909,0,1.813-0.32,2.617-1.123
		c0.42-0.525,0.596-1.149,0.6-1.787c0.005-0.932-0.359-1.895-0.878-2.616c-1.406-1.957-3.428-2.549-5.461-2.487
		c-3.1,0.093-6.227,1.707-7.25,2.326c0.402-5.394,5.315-7.892,9.777-7.904c2.602-0.007,5.482,0.955,6.857,2.657
		c3.023-2.145,6.246-2.296,10.351-0.138c4.589,2.41,15.058,5.269,20.118,3.936c-1.125,2.552-4.175,3.438-5.629,3.83
		c3.759-0.043,7.43,0.388,10.2,1.267c-2.101,0.991-3.88,2.203-5.696,3.195c3.252,0.29,6.413,0.448,9.094,1.788
		c-2.193,0.513-3.544,1.398-3.893,2.549c1.613,1.495,4.502,1.485,7.395,2.283c2.719,0.749,5.441,2.211,7.117,6.301
		c-1.639,0-3.329,0.219-4.751,0.875c3.751,2.967,6.384,5.867,7.337,8.436c-1.711,0.078-3.245,0.4-4.657,1.077
		c3.223,2.461,6.073,4.998,7.762,7.766c-1.954,0.238-3.907,0.63-5.861,1.177c3.189,2.29,5.578,4.89,6.812,7.49
		c-1.276-0.278-2.859-0.428-4.134-0.294c3.472,3.352,6.327,7.088,7.329,10.544c-1.257-0.489-2.647-0.773-4.107-0.951
		c0.896,2.619,1.498,5.239,1.675,7.858c5.485,4.108,8.582,8.602,8.11,15.85c-1.346-0.726-2.691-1.195-4.037-1.405
		c1.987,3.48,1.861,6.829,0.555,10.826c-0.997-1.237-2.042-2.111-3.141-2.625c0.006,4.278-0.594,7.812-1.927,10.447l-1.544-2.549
		c-1.89,4.073-5.814,9.05-9.393,7.897c-3.133,3.136-5.825,4.014-10.768,6.259c-0.712-0.787-1.749-1.459-2.693-2.188
		c-1.366,1.171-2.425,2.422-3.513,4.069c-0.951-1.317-2.002-2.488-3.196-3.444l-3.926,1.461
		c-8.445-5.779-16.196-7.311-15.316-15.563c-1.011,0.36-1.91,1.332-3.042,2.416c-0.948-2.745-1.015-7.52-0.488-11.671
		c-1.557,0.222-2.244,0.41-3.62,1.118c-0.094-1.567-0.173-5.147,1.787-9.085c-2.106,0.533-2.603,1.34-3.702,2.348
		C170.52,104.325,171.369,101.665,172.801,99.594L172.801,99.594z"/>
	<path fill-rule="evenodd" clip-rule="evenodd" d="M167.051,20.254c-4.866,0.014-10.309,2.779-10.76,8.819l-0.143,1.908l1.638-0.989
		c1.28-0.774,4.149-2.106,6.77-2.185c2.066-0.062,3.58,0.617,4.631,2.077c0.436,0.607,0.695,1.367,0.692,2.033
		c-0.003,0.465-0.133,0.86-0.384,1.176c-0.488,0.48-1.116,0.752-1.845,0.752c-1.688-0.001-2.98-1.173-3.6-1.871l-1.659-1.868
		l-0.067,2.497c-0.112,4.185,2.982,5.495,5.713,6.651c2.241,0.949,4.561,1.93,5.655,4.405c0.521,1.176,0.712,2.441,0.618,4.1
		l-0.072,1.287l1.261-0.264c1.226-0.257,2.251-0.689,3.308-1.372c-0.199,1.347-0.816,2.848-1.539,3.787l-0.857,1.109l1.333,0.433
		c1.428,0.463,3.239,0.509,4.781,0.193c-0.136,2.096-0.764,5.004-5.014,6.924l-2.392,1.08l2.51,0.766
		c1.2,0.364,2.463,0.556,3.758,0.568c0.701,0.005,1.409-0.05,2.12-0.149c-2.828,4.348-6.002,6.287-8.095,6.248
		c-2.93-0.054-5.245-3.24-7.696-6.613c-2.894-3.983-6.179-8.438-11.344-8.868c-5.488-9.709-15.924-15.679-21.702-16.818
		c-19.33-3.815-43.612-3.132-65.034-2.529c-7.056,0.198-13.718,0.386-20.032,0.421l-37.771,0.212l0.389,1.27
		C14.035,41.362,23.12,46.6,30.716,47.981c1.779,5.052,7.292,7.426,12.937,9.352c1.269,2.591,5.044,7.151,16.271,11.434
		c3.296,7.776,17.08,12.52,26.448,13.128c0.048,0.062,0.109,0.142,0.109,0.142c4.571,5.696,12.964,6.079,18.775,6.236
		c1.011,1.539,3.072,2.371,4.367,2.754c0.029,0.784,0.27,1.731,0.935,2.489c0.623,0.713,1.825,1.391,3.877,1.21
		c0.174,1.626,1.006,3.044,2.493,4.049c1.345,0.911,3.082,1.379,4.779,1.327c0.511,1.059,1.433,1.724,2.707,1.859
		c1.291,0.138,2.765-0.29,3.907-0.795c0.092,0.341,0.227,0.655,0.441,0.923c0.562,0.707,1.468,1.063,2.692,1.058
		c1.562-0.008,3.451-0.62,4.961-1.342c0.143,0.369,0.35,0.694,0.629,0.969c0.712,0.701,1.785,1.002,3.191,0.895
		c0.985-0.075,2.137-0.414,3.256-0.852c0.841,2.069,2.317,2.433,3.197,2.443c2.966,0.037,5.551-2.581,6.968-4.36
		c1.238,1.779,3.036,2.845,5.085,2.856c2.256,0.012,4.267-1.166,5.698-3.175c1.132,0.616,2.294,1.024,3.548,1.07
		c0.878,0.033,1.784-0.084,2.761-0.329c-0.778,1.783-1.218,3.74-1.218,5.726v2.31l2.207-2.109c0.22-0.216,0.422-0.402,0.629-0.577
		c-0.623,1.882-0.957,3.86-0.957,5.926c0,0.412,0.012,0.828,0.038,1.247l0.09,1.513l1.348-0.693c0.84-0.432,1.389-0.638,2.062-0.793
		c-0.117,1.25-0.206,2.588-0.206,3.981c0,2.471,0.233,4.973,0.867,6.809l0.505,1.466l1.563-1.512
		c0.323-0.312,0.615-0.579,0.906-0.84c0.297,5.409,4.525,7.877,9.784,10.878c1.922,1.099,3.91,2.234,5.975,3.647l0.423,0.288
		c0,0,3.004-1.117,3.837-1.426c0.908,0.788,1.775,1.715,2.62,2.884l0.837,1.158l0.788-1.192c0.905-1.371,1.785-2.378,2.778-3.313
		c0.013,0.011,0.075,0.057,0.075,0.057c0.688,0.508,1.337,0.986,1.797,1.495l0.481,0.53l2.763-1.234
		c3.541-1.569,5.941-2.672,8.569-5.182c3.376,0.574,6.878-2.843,9.152-6.91c0.303,0.499,1.549,2.558,1.549,2.558l0.804-1.588
		c1.188-2.348,1.815-5.377,1.968-9.123c0.491,0.405,0.978,0.889,1.451,1.476l1.142,1.417l0.566-1.731
		c0.675-2.066,1.015-3.897,1.015-5.596c0-1.444-0.34-2.782-0.835-4.098c0.631,0.218,1.264,0.496,1.894,0.836l1.355,0.731l0.1-1.536
		c0.034-0.514,0.05-1.016,0.05-1.509c0-6.018-2.538-10.566-8.225-14.93c-0.166-1.947-0.598-3.976-1.227-6.098
		c0.882,0.17,1.695,0.37,2.378,0.635l1.863,0.727l-0.556-1.921c-0.983-3.391-3.508-6.678-5.919-9.254
		c0.526,0.054,1.057,0.133,1.566,0.243l1.966,0.429l-0.863-1.818c-1.061-2.234-2.943-4.455-5.428-6.518
		c1.237-0.278,2.475-0.595,3.702-0.744l1.523-0.186l-0.799-1.309c-1.623-2.658-4.202-5.002-6.586-6.911
		c0.821-0.224,1.694-0.386,2.682-0.431l1.353-0.061l-0.472-1.268c-0.858-2.313-3.007-4.9-6.26-7.679
		c0.822-0.182,1.717-0.301,2.749-0.301h1.472l-0.557-1.362c-1.941-4.734-5.172-6.163-7.769-6.879l-2.783-0.606
		c-1.413-0.265-2.657-0.514-3.564-1.017c0.514-0.531,1.485-0.987,2.805-1.296l2.662-0.623l-2.444-1.222
		c-1.962-0.981-4.087-1.362-6.325-1.603c0.901-0.498,4.921-2.714,4.921-2.714l-2.138-0.724c-1.749-0.555-3.877-0.926-6.176-1.13
		c0.894-0.636,1.709-1.484,2.212-2.626l0.826-1.875l-1.982,0.522c-4.663,1.227-14.83-1.45-19.407-3.856
		c-4.053-2.129-7.46-2.125-10.674-0.163C172.244,21.049,169.363,20.248,167.051,20.254L167.051,20.254z M167.056,22.229
		c2.49-0.008,4.992,0.935,6.086,2.289l0.583,0.722l0.758-0.537c2.782-1.972,5.656-1.994,9.321-0.069
		c4.107,2.16,12.566,4.566,18.232,4.343c-1.043,0.786-2.352,1.275-3.541,1.595l-7.539,2.032l7.808-0.09
		c2.717-0.031,5.289,0.196,7.502,0.632c-0.72,0.396-1.501,0.826-1.501,0.826l-4.692,2.719l3.095,0.281l0.893,0.077
		c1.928,0.164,3.772,0.347,5.469,0.778c-1.217,0.708-1.81,1.529-2.017,2.21l-0.18,0.592l0.453,0.42
		c1.312,1.217,3.192,1.569,5.182,1.943l2.622,0.568c2.034,0.561,4.274,1.555,5.875,4.491c-1.376,0.126-2.642,0.367-3.661,0.837
		l-1.46,0.673l1.261,0.997c3.158,2.5,5.31,4.836,6.437,6.871c-1.297,0.182-2.507,0.468-3.571,0.978l-1.452,0.698l1.281,0.978
		c3.127,2.388,5.211,4.367,6.639,6.26c-1.471,0.241-2.944,0.538-4.405,0.948l-1.979,0.554l1.668,1.199
		c2.382,1.711,4.248,3.56,5.511,5.427c-0.841-0.069-1.662-0.088-2.361-0.015l-2.107,0.222l1.524,1.472
		c3.028,2.924,5.152,5.746,6.336,8.3c-0.708-0.162-1.47-0.295-2.309-0.398l-1.563-0.191l0.509,1.491
		c0.932,2.725,1.463,5.213,1.625,7.605l0.03,0.452l0.363,0.272c5.427,4.065,7.748,8.075,7.761,13.566
		c-0.98-0.405-1.963-0.734-2.942-0.887l-2.028-0.318l1.017,1.783c0.932,1.632,1.391,3.246,1.391,5.06
		c0,1.023-0.201,2.15-0.492,3.339c-0.714-0.66-1.445-1.224-2.209-1.583l-1.41-0.659c0,0,0.002,1.588,0.002,1.604
		c0,3.278-0.382,6.015-1.115,8.201c-0.235-0.388-1.484-2.45-1.484-2.45l-0.781,1.681c-1.96,4.222-5.497,8.24-8.196,7.372
		l-0.573-0.185l-0.427,0.427c-2.526,2.527-4.719,3.499-8.355,5.11c0,0-0.907,0.403-1.523,0.68c-0.488-0.442-1.012-0.859-1.546-1.254
		l-1.367-1.024l-0.613,0.506c-1.075,0.921-1.995,1.99-2.904,3.218c-0.816-1-1.649-1.897-2.545-2.614l-0.438-0.349
		c0,0-3.275,1.217-3.991,1.484c-1.98-1.324-3.936-2.459-5.671-3.45c-5.248-2.996-8.84-5.049-8.84-9.794
		c0-0.357,0.021-0.728,0.061-1.117l0.167-1.563l-1.481,0.528c-0.78,0.278-1.461,0.84-2.157,1.479
		c-0.245-1.316-0.379-2.923-0.379-4.683c0-1.599,0.104-3.31,0.318-4.996l0.163-1.285l-1.283,0.183c-1.03,0.147-1.734,0.3-2.491,0.58
		c0.047-2.535,0.589-4.933,1.681-7.128l0.958-1.925l-2.083,0.527c-0.981,0.248-1.666,0.561-2.212,0.911
		c0.32-1.625,0.929-3.176,1.845-4.499l1.921-2.775l-3.114,1.302c-1.759,0.736-3.102,1.043-4.356,0.995
		c-1.204-0.045-2.274-0.415-3.368-1.164l-0.888-0.608l-0.529,0.936c-1.066,1.877-2.716,2.949-4.526,2.94
		c-1.738-0.01-3.273-1.151-4.105-3.051l-0.719-1.648l-1.003,1.493c-1.474,2.19-3.984,4.738-6.211,4.71
		c-0.323-0.004-1.175-0.014-1.638-1.991l-0.284-1.208l-1.115,0.548c-1.172,0.577-2.549,0.985-3.592,1.065
		c-0.788,0.06-1.376-0.058-1.655-0.333c-0.202-0.199-0.291-0.547-0.261-1.035l0.116-1.905l-1.622,1.006
		c-1.386,0.859-3.623,1.733-5.217,1.74c-0.563,0.003-0.979-0.111-1.138-0.311c-0.158-0.198-0.173-0.606-0.046-1.15l0.714-3.035
		l-2.379,2.118c-0.313,0.277-2.415,1.371-3.973,1.204c-0.741-0.079-1.131-0.424-1.307-1.154l-0.208-0.864l-0.879,0.114
		c-1.442,0.187-3.051-0.179-4.195-0.955c-0.862-0.583-1.851-1.649-1.676-3.42l0.134-1.363l-1.336,0.303
		c-1.006,0.228-2.352,0.347-3.061-0.386c-0.423-0.436-0.521-1.071-0.521-1.43c0-0.109,0.008-0.193,0.02-0.238l0.256-0.987
		l-0.972-0.298c-1.673-0.379-3.685-1.291-4.144-2.397l-0.245-0.592l-0.64-0.017c-5.369-0.142-13.417-0.377-17.613-5.301
		c-0.019-0.185-0.039-0.376-0.164-0.557c-0.201-0.292-0.523-0.469-0.884-0.484c-10.132-0.436-23.143-5.602-25.612-12.316
		l-0.156-0.425l-0.423-0.16c-11.883-4.452-14.966-9.128-15.741-10.933l-0.173-0.406l-0.417-0.141
		c-6.711-2.266-11.108-4.516-12.284-8.732l-0.17-0.611l-0.627-0.1c-7.158-1.133-14.521-5.619-16.88-10.019
		c2.818-0.015,34.906-0.195,34.906-0.195c6.336-0.036,13.011-0.224,20.077-0.423c21.319-0.599,45.482-1.278,64.596,2.493
		c5.334,1.053,15.578,6.95,20.63,16.266l0.272,0.504l0.572,0.013c4.527,0.105,7.49,4.183,10.355,8.127
		c2.748,3.782,5.343,7.354,9.258,7.427c2.757,0.051,7.292-2.323,11-9.185l1.128-2.087l-2.276,0.669
		c-1.283,0.377-2.569,0.563-3.824,0.552c-0.223-0.002-0.426-0.083-0.648-0.097c3.554-2.686,3.72-6.202,3.783-8.054l0.084-2.078
		l-1.453,0.631c-0.824,0.367-2.191,0.492-3.51,0.352c0.66-1.274,1.212-2.907,1.212-4.439c0-0.477-0.052-0.941-0.171-1.381
		l-0.407-1.508l-1.187,1.013c-1.053,0.897-1.894,1.428-2.844,1.776c-0.051-1.35-0.278-2.552-0.765-3.651
		c-1.411-3.188-4.216-4.376-6.69-5.424c-1.674-0.708-2.87-1.323-3.626-2.191c0.798,0.364,1.629,0.577,2.468,0.577
		c1.245,0,2.39-0.488,3.315-1.413c0.602-0.742,0.885-1.572,0.89-2.48c0.006-1.085-0.382-2.25-1.064-3.198
		c-1.422-1.978-3.598-2.98-6.293-2.898c-2.201,0.067-4.34,0.827-5.82,1.491C159.914,23.861,163.645,22.238,167.056,22.229
		L167.056,22.229z M86.316,81.103c0,0-0.004,0.012-0.004,0.013c0-0.001,0-0.002,0-0.002C86.312,81.114,86.316,81.103,86.316,81.103
		L86.316,81.103z"/>
	<path fill-rule="evenodd" clip-rule="evenodd" fill="#FDB913" d="M182.787,116.278c-0.158,5.659-1.945,15.925-6.99,19.525
		c-4.262,3.042-10.342,0.949-13.507,5.224l0.396,2.561c4.776,0.052,5.77,0.4,10.87-3.15c-3.281,2.327-5.35,3.812-5.743,7.66
		c1.283,0.271,1.899,1.401,2.769,1.932c1.556-1.639,3.491-3.457,5.609-6.974c-0.281,2.751-1.6,4.682-1.6,7.328
		c1.129-0.183,2.259-0.208,3.388,0c0.99-2.167,3.568-7.043,3.568-9.55c2.96,0,5.015-0.521,7.796-0.998
		c1.257-0.214,2.617,0.117,4.286-0.148c0.156-1.245,0.014-2.336,0.014-3.448c-3.098-0.97-3.492-1.927-7.209-3.674
		c-1.336-2.947,0.415-7.704,1.369-12.617c-1.691-0.936-3.076-2.43-3.763-4.399C183.624,115.731,183.202,115.985,182.787,116.278
		L182.787,116.278z"/>
	<path fill-rule="evenodd" clip-rule="evenodd" d="M183.648,114.644l-1.91,1.103l0.061,0.502c-0.16,5.764-2.045,15.515-6.577,18.75
		c-1.695,1.209-3.733,1.518-5.893,1.845c-2.865,0.435-5.827,0.883-7.832,3.593l-0.245,0.331l0.585,3.793l1.954,0.029
		c1.677,0.03,2.906,0.04,4.149-0.213c-0.565,0.992-0.959,2.146-1.11,3.62l-0.089,0.883l0.868,0.183
		c0.546,0.116,0.945,0.498,1.407,0.941l1.757,1.451l0.525-0.745l0.595-0.621c0.625-0.649,1.328-1.394,2.068-2.258
		c-0.202,0.796-0.358,1.626-0.358,2.553v1.161l1.146-0.186c1.098-0.178,2.095-0.179,3.051-0.003l0.747,0.137l0.931-1.967
		c1.394-2.91,2.605-5.651,2.922-7.733c2.011-0.068,3.648-0.351,5.478-0.689l1.632-0.294l1.672-0.047
		c0.762,0.025,1.627,0.054,2.601-0.1l0.816-0.13l0.01-0.723l0.049-2.546l-0.048-1.729l-0.673-0.238
		c-1.64-0.515-2.438-1.005-3.541-1.685c-0.807-0.498-1.738-1.061-3.152-1.748c-0.199-0.56-0.307-1.193-0.307-1.913
		c0-1.792,0.521-4.011,1.061-6.315l0.932-4.22l-0.65-0.332c-1.592-0.88-2.736-2.214-3.308-3.86l-0.393-1.127L183.648,114.644
		L183.648,114.644z M169.626,138.799c2.293-0.348,4.665-0.707,6.745-2.192c5.241-3.74,7.049-13.544,7.35-19.393
		c0.701,1.273,1.727,2.348,2.974,3.174c-0.185,0.837-0.619,2.798-0.619,2.798c-0.565,2.41-1.112,4.734-1.112,6.766
		c0,1.105,0.162,2.123,0.569,3.023l0.15,0.331l0.329,0.154c1.557,0.732,2.507,1.317,3.347,1.835
		c0.981,0.604,1.881,1.136,3.315,1.649c0.005,0.186,0.011,0.402,0.011,0.402s-0.013,0.77-0.024,1.424
		c-0.483,0.025-0.959,0.035-1.415,0.021l-2.071,0.073l-1.657,0.298c-1.993,0.367-3.716,0.685-5.973,0.685h-0.987v0.988
		c0,1.865-1.792,5.604-2.863,7.838c0,0-0.158,0.335-0.318,0.67c-0.541-0.055-1.097-0.073-1.665-0.041
		c0.129-0.859,0.339-1.694,0.61-2.545c0.35-1.102,0.712-2.243,0.85-3.6l0.449-4.389l-2.277,3.78
		c-1.782,2.959-3.406,4.649-4.84,6.136c-0.035-0.029-0.122-0.104-0.122-0.104c-0.374-0.359-0.862-0.728-1.431-1.036
		c0.519-2.887,2.201-4.19,5.175-6.299l-1.135-1.616c-4.412,3.071-5.42,3.053-9.167,2.99c0,0-0.178-0.004-0.29-0.005
		c-0.084-0.545-0.133-0.864-0.193-1.25C164.862,139.569,167.067,139.187,169.626,138.799L169.626,138.799z"/>
	<path fill-rule="evenodd" clip-rule="evenodd" fill="#FDB913" d="M167.313,154.405c-0.731-1.105-1.201-4.382,0.157-6.236
		c0.845,0.337,2.559,0.846,3.243,1.625C169.695,150.79,167.965,152.936,167.313,154.405L167.313,154.405z"/>
	<path fill-rule="evenodd" clip-rule="evenodd" d="M166.675,147.585c-1.599,2.179-1.171,5.876-0.185,7.365l0.995,1.504l0.731-1.648
		c0.6-1.35,2.266-3.403,3.187-4.304l0.67-0.655l-0.618-0.704c-0.725-0.824-2.097-1.328-3.1-1.695l-1.221-0.459L166.675,147.585
		L166.675,147.585z M167.592,151.324c0-0.673,0.148-1.325,0.385-1.909c0.397,0.148,0.843,0.329,1.244,0.532
		c-0.508,0.577-1.051,1.271-1.563,1.994C167.639,151.731,167.592,151.543,167.592,151.324L167.592,151.324z"/>
	<path fill-rule="evenodd" clip-rule="evenodd" d="M197.062,109.623c1.022,1.057,2.447,4.443,2.447,7.682
		c0,0.623-0.054,1.24-0.171,1.833c-0.33,1.657-1.151,2.904-2.403,3.759c-0.678-2.135-2.346-5.669-4.89-7.263l-0.802-0.502
		l-0.535,0.78c-0.687,1.001-1.085,2.25-1.33,3.616c-2.076-0.771-3.706-2.295-4.405-4.302l-0.35-1.003l-0.975,0.423
		c-1.582,0.685-3.154,2.23-4.196,3.253c0,0-0.095,0.091-0.132,0.125c-1.451-1.77-2.085-3.316-2.139-5.379l-0.03-1.166l-2.864,0.561
		l0.541,1.896c0,0,0.28-0.054,0.509-0.097c0.285,2.278,1.22,4.187,3.162,6.291l0.671,0.727l0.656-0.614l1.009-0.936
		c0.741-0.727,1.779-1.732,2.798-2.395c1.221,2.42,3.454,4.237,6.276,4.89l1.121,0.26l0.085-1.149
		c0.083-1.126,0.371-2.067,0.758-2.913c2.083,1.974,3.36,5.658,3.446,6.495l0.136,1.342l1.237-0.537
		c2.458-1.067,4.044-3.065,4.581-5.777c0.845-4.246-1.09-9.512-2.792-11.273L197.062,109.623L197.062,109.623z"/>
	<path fill-rule="evenodd" clip-rule="evenodd" d="M197.429,54.445c-1.099,4.601-3.452,5.88-5.988,6.516
		c0.251-0.854,0.396-1.78,0.396-2.68c0-0.648-0.07-1.279-0.216-1.852l-0.562-2.209l-1.225,1.923c-1.63,2.556-3.922,3.89-7.004,4.076
		l0.119,1.969c2.723-0.164,4.988-1.128,6.783-2.842c-0.13,0.918-0.364,1.813-0.779,2.428l-1.313,1.95l2.312-0.428
		c2.808-0.521,6.501-1.231,8.538-5.846c0.148,0.598,0.234,1.185,0.234,1.776c0,0.537-0.05,1.079-0.129,1.641l-0.295,2.095
		l1.796-1.122c3.272-2.046,3.97-4.193,4.071-7.212l-1.972-0.065c-0.063,1.884-0.353,3.147-1.512,4.325
		c-0.044-1.431-0.39-2.981-1.448-4.725l-1.245-2.052L197.429,54.445L197.429,54.445z"/>
	<path fill-rule="evenodd" clip-rule="evenodd" d="M177.589,26.878c-1.596,0.023-2.647,0.952-2.74,2.421
		c-0.054,0.863,0.404,1.566,0.847,2.244c0.451,0.691,0.916,1.404,0.916,2.342h1.974c0-1.526-0.715-2.621-1.237-3.42
		c-0.255-0.39-0.543-0.833-0.53-1.04c0.016-0.264,0.035-0.563,0.801-0.574c1.174-0.018,2.55,0.813,4.145,1.776
		c2.5,1.511,5.61,3.391,10.023,3.423l0.015-1.974c-3.87-0.027-6.605-1.68-9.018-3.138C180.93,27.818,179.33,26.851,177.589,26.878
		L177.589,26.878z"/>
	<path fill-rule="evenodd" clip-rule="evenodd" d="M177.012,28.525c0.377,2.075,2.052,4.627,4.841,5.329
		c0.778,0.196,2.239,0.407,3.251-0.392c0.422-0.334,0.923-0.976,0.908-2.139l-1.973,0.025c0.002,0.199-0.023,0.458-0.159,0.566
		c-0.237,0.186-0.872,0.197-1.546,0.027c-1.855-0.467-3.105-2.25-3.381-3.769L177.012,28.525L177.012,28.525z"/>
	<path fill-rule="evenodd" clip-rule="evenodd" d="M210.736,51.465c1.062,1.21,1.565,2.331,1.664,3.442
		c-1.693-1.178-3.672-1.882-5.405-1.862l0.021,1.973c1.724-0.019,3.982,1.023,5.494,2.535l1.139,1.139l0.497-1.532
		c0.764-2.361,0.133-4.648-1.929-6.997L210.736,51.465L210.736,51.465z"/>
	<path fill-rule="evenodd" clip-rule="evenodd" d="M213.547,62.785c0.332,0.614,0.692,1.627,0.834,2.748
		c-1.077-1.179-2.328-2.03-4.225-2.497l-0.471,1.917c2.033,0.499,3.164,1.413,4.649,3.76l1.108,1.749l0.662-1.961
		c0.926-2.749-0.116-5.348-0.819-6.654L213.547,62.785L213.547,62.785z"/>
	<path fill-rule="evenodd" clip-rule="evenodd" d="M188.357,74.177l0.267,1.975l1.408-1.409c1.57-1.569,4.701-3,6.046-3.199
		l-0.288-1.953c-1.222,0.181-3.555,1.12-5.46,2.397c0.201-1.561,0.896-2.896,2.059-3.726l-1.146-1.606
		C189.015,68.246,187.936,71.057,188.357,74.177L188.357,74.177z"/>
	<path fill-rule="evenodd" clip-rule="evenodd" d="M206.371,74.381c0.552,0.931,0.827,2.224,0.827,3.526
		c0,0.512-0.078,1.013-0.163,1.506c-1.39-2.379-3.283-4.257-5.427-5.282l-0.85,1.781c2.296,1.097,4.367,3.506,5.544,6.444
		l0.752,1.887l1.017-1.759c1.468-2.54,1.468-6.626-0.001-9.107L206.371,74.381L206.371,74.381z"/>
	<path fill-rule="evenodd" clip-rule="evenodd" d="M218.021,73.569c0.691,1.317,1.034,2.779,1.034,4.425
		c0,0.061-0.017,0.133-0.018,0.195c-1.373-1.67-3.015-3.353-5.567-4.379l-0.737,1.831c2.668,1.071,4.14,2.951,5.699,4.942
		l1.935,2.456l0.387-2.159c0.576-3.175,0.253-5.867-0.985-8.228L218.021,73.569L218.021,73.569z"/>
	<path fill-rule="evenodd" clip-rule="evenodd" d="M219.478,84.584c0.66,0.894,0.913,1.923,0.913,2.92
		c0,0.317-0.07,0.614-0.116,0.921c-1.244-1.751-3.17-3.671-5.562-4.432l-0.597,1.881c2.608,0.829,4.859,3.693,5.559,5.367
		l0.834,1.996l0.961-1.939c1.004-2.026,1.5-5.307-0.403-7.887L219.478,84.584L219.478,84.584z"/>
	<path fill-rule="evenodd" clip-rule="evenodd" d="M185.689,89.195l0.185,2.187l1.513-1.591c1.625-1.71,4.708-3.838,6.854-4.296
		l-0.412-1.93c-1.913,0.409-4.199,1.763-6.022,3.212c0.406-2.2,1.674-3.968,3.706-4.879l-0.807-1.8
		C187.266,81.641,185.344,85.126,185.689,89.195L185.689,89.195z"/>
	<path fill-rule="evenodd" clip-rule="evenodd" d="M177.173,77.467v1.876l1.544-1.063c1.724-1.185,4.123-2.49,5.133-2.793
		l-0.567-1.891c-0.959,0.288-2.562,1.125-4.013,1.997c0.268-2.084,1.093-4.852,3.524-6.254l-0.986-1.71
		C177.624,70.045,177.173,75.314,177.173,77.467L177.173,77.467z"/>
	<path fill-rule="evenodd" clip-rule="evenodd" d="M220.799,96.566c1.418,1.191,3.311,3.463,3.982,5.949l0.453,1.684l1.21-1.257
		c2.451-2.547,1.664-5.776,1.327-7.155l-0.083-0.354l-1.93,0.413l0.095,0.409c0.143,0.577,0.34,1.386,0.34,2.264
		c0,0.506-0.066,1.035-0.247,1.556c-1.004-2.108-2.552-3.908-3.877-5.021L220.799,96.566L220.799,96.566z"/>
	<path fill-rule="evenodd" clip-rule="evenodd" d="M207.724,101.281l0.101,2.131l1.557-1.457c1.982-1.853,4.133-3.193,6.218-3.877
		l-0.614-1.875c-1.652,0.543-3.324,1.454-4.933,2.646c0.504-1.674,1.509-3.311,2.822-3.917l-0.827-1.792
		C209.201,94.456,207.587,98.391,207.724,101.281L207.724,101.281z"/>
	<path fill-rule="evenodd" clip-rule="evenodd" d="M197.159,95.335c1.396,0.521,2.87,2.563,3.534,4.547
		c-1.78-1.264-3.423-1.75-4.814-2.145l-1.135-0.339l-0.621,1.873l1.217,0.364c1.853,0.527,3.769,1.07,5.969,3.374l1.478,1.546
		l0.218-2.128c0.328-3.222-2.368-7.902-5.156-8.939L197.159,95.335L197.159,95.335z"/>
	<polygon fill-rule="evenodd" clip-rule="evenodd" points="173.032,23.676 173.093,26.197 175.065,26.149 175.005,23.627 
		173.032,23.676 	"/>
	<path fill-rule="evenodd" clip-rule="evenodd" d="M174.992,87.704l-0.053,2.029l2.72-2.025c0.689-0.521,1.289-0.968,1.918-1.344
		c-0.888,1.97-1.366,3.962-1.366,5.905c0,0.625,0.047,1.245,0.142,1.858l1.95-0.3c-0.436-2.83,0.343-5.889,2.252-8.847l1.317-2.04
		l-2.366,0.544c-1.632,0.375-2.777,1.021-3.881,1.801c0.87-1.936,2.504-3.679,4.215-4.146l-0.52-1.904
		C178.041,80.13,175.086,84.087,174.992,87.704L174.992,87.704z"/>
	<polygon fill-rule="evenodd" clip-rule="evenodd" points="178.843,93.117 179.813,94.835 179.992,94.734 179.021,93.016 
		178.843,93.117 	"/>
	<path fill-rule="evenodd" clip-rule="evenodd" d="M171.69,99.43l1.663,1.063c2.315-3.621,5.75-5.83,9.188-5.909l-0.045-1.972
		C178.337,92.707,174.399,95.193,171.69,99.43L171.69,99.43z"/>
	<path fill-rule="evenodd" clip-rule="evenodd" d="M48.619,35.539c5.221,7.835,10.037,12.078,20.52,12.061
		c8.357-0.014,17.938-2.759,24.278-4.575l-0.543-1.898c-6.236,1.787-15.657,4.487-23.739,4.5
		c-9.646,0.016-13.925-3.753-18.875-11.181L48.619,35.539L48.619,35.539z"/>
	<path fill-rule="evenodd" clip-rule="evenodd" d="M59.495,45.781c3.075,6.228,8.708,9.222,17.22,9.152
		c10.222-0.083,14.668-1.274,19.817-2.654l-0.511-1.905c-5.018,1.343-9.351,2.504-19.322,2.585
		c-7.786,0.064-12.69-2.495-15.434-8.052L59.495,45.781L59.495,45.781z"/>
	<path fill-rule="evenodd" clip-rule="evenodd" d="M95.324,62.568c2.714,5.362,9.34,8.28,18.651,8.216
		c6.178-0.043,13.195-1.43,19.758-3.906l-0.696-1.846c-6.35,2.395-13.124,3.737-19.074,3.778c-8.524,0.06-14.519-2.474-16.879-7.134
		L95.324,62.568L95.324,62.568z"/>
	<path fill-rule="evenodd" clip-rule="evenodd" d="M74.861,54.708c4.038,4.77,12.693,8.106,21.538,8.302
		c3.343,0.074,14.929,0.032,23.566-3.644l-0.772-1.816c-8.275,3.52-19.507,3.56-22.751,3.488c-9.549-0.212-17.1-4.091-20.075-7.605
		L74.861,54.708L74.861,54.708z"/>
	<path fill-rule="evenodd" clip-rule="evenodd" d="M105.406,69.735c1.345,3.36,3.896,5.728,7.579,7.038
		c8.594,3.055,21.319-0.485,27.608-3.977l-0.958-1.725c-5.793,3.216-18.061,6.661-25.988,3.842c-3.126-1.111-5.284-3.1-6.409-5.912
		L105.406,69.735L105.406,69.735z"/>
	<path fill-rule="evenodd" clip-rule="evenodd" d="M128.596,82.426c0.906,1.719,2.582,2.962,4.847,3.594
		c3.916,1.093,9.319,0.251,13.139-2.047l-1.017-1.69c-3.337,2.007-8.213,2.781-11.592,1.837c-1.754-0.489-2.975-1.367-3.631-2.613
		L128.596,82.426L128.596,82.426z"/>
	<path fill-rule="evenodd" clip-rule="evenodd" d="M118.424,77.538c0.97,1.465,3.245,4.898,9.346,5.409
		c4.39,0.367,10.118-0.821,17.027-3.534l-0.722-1.836c-6.624,2.6-12.055,3.745-16.14,3.403c-5.149-0.43-6.916-3.098-7.866-4.532
		L118.424,77.538L118.424,77.538z"/>
	<path fill-rule="evenodd" clip-rule="evenodd" d="M136.81,85.793c0.146,1.737,2.271,3.726,5.055,4.731
		c1.896,0.684,6.762,1.812,10.968-2.472l-1.408-1.383c-3.407,3.47-7.352,2.553-8.891,1.999c-2.326-0.84-3.699-2.329-3.758-3.038
		L136.81,85.793L136.81,85.793z"/>
	<path fill-rule="evenodd" clip-rule="evenodd" d="M158.254,90.551c-0.709,1.715-3.062,2.819-5.858,2.749
		c-2.336-0.058-5.288-0.996-6.57-3.451l-1.749,0.913c1.404,2.688,4.573,4.417,8.269,4.51c3.027,0.077,5.559-1.011,6.954-2.791
		c1.59,1.54,3.565,2.433,5.62,2.413c2.268-0.022,4.469-1.116,6.411-3.098c1.599,0.327,3.21,0.302,4.801-0.19l-0.584-1.885
		c-1.447,0.448-2.853,0.478-4.3,0.09l-0.582-0.157l-0.404,0.448c-1.653,1.826-3.507,2.801-5.362,2.819
		c-1.84,0.018-3.647-0.93-4.958-2.602l-1.043-1.33L158.254,90.551L158.254,90.551z"/>
	<path fill-rule="evenodd" clip-rule="evenodd" d="M31.903,46.156l-0.378,1.937c9.099,1.776,20.741,0.753,29.868-0.337l-0.234-1.96
		C52.176,46.868,40.732,47.879,31.903,46.156L31.903,46.156z"/>
	<path fill-rule="evenodd" clip-rule="evenodd" d="M44.478,55.441l-0.469,1.916c9.645,2.36,23.998,2.047,33.387-0.729l-0.56-1.892
		C67.738,57.425,53.827,57.728,44.478,55.441L44.478,55.441z"/>
	<path fill-rule="evenodd" clip-rule="evenodd" d="M60.608,68.799c16.519,5.99,38.437,2.276,44.762,0.995l-0.392-1.934
		c-6.197,1.255-27.66,4.898-43.697-0.917L60.608,68.799L60.608,68.799z"/>
	<path fill-rule="evenodd" clip-rule="evenodd" d="M87.751,79.924v1.974c8.639,0,21.257-2.349,25.962-4.833l-0.921-1.746
		C108.39,77.644,95.986,79.924,87.751,79.924L87.751,79.924z"/>
	<path fill-rule="evenodd" clip-rule="evenodd" d="M105.888,86.355l-0.075,1.971c4.362,0.165,15.128-2.474,19.659-5.911
		l-1.192-1.572C120.131,83.992,109.882,86.506,105.888,86.355L105.888,86.355z"/>
	<path fill-rule="evenodd" clip-rule="evenodd" d="M110.838,89.32l-0.157,1.967c6.312,0.504,15.819-0.848,21.845-6.316L131.2,83.51
		C125.641,88.554,116.757,89.793,110.838,89.32L110.838,89.32z"/>
	<path fill-rule="evenodd" clip-rule="evenodd" d="M121.616,98.214l1.276,1.505c1.36-1.154,2.843-2.917,4.072-4.837l-1.662-1.064
		C124.192,95.554,122.813,97.197,121.616,98.214L121.616,98.214z"/>
	<path fill-rule="evenodd" clip-rule="evenodd" d="M128.466,98.848l1.241,1.533c1.347-1.09,2.473-2.411,3.65-4.284l-1.671-1.05
		C130.631,96.728,129.638,97.901,128.466,98.848L128.466,98.848z"/>
	<polygon fill-rule="evenodd" clip-rule="evenodd" points="136.683,99.269 136.483,99.493 137.958,100.804 138.156,100.582 
		140.528,97.864 139,96.614 136.683,99.269 	"/>
	<polygon fill-rule="evenodd" clip-rule="evenodd" points="143.632,100.716 145.152,101.974 148.187,98.306 146.667,97.049 
		143.632,100.716 	"/>
	<path fill-rule="evenodd" clip-rule="evenodd" d="M85.383,44.738c1.484,3.644,5.172,7.386,9.348,7.486
		c5.234,0.126,12.688-2.155,18.548-5.676l-1.015-1.692c-5.567,3.345-12.594,5.513-17.486,5.396c-3.327-0.08-6.325-3.209-7.567-6.259
		L85.383,44.738L85.383,44.738z"/>
	<path fill-rule="evenodd" clip-rule="evenodd" d="M107.356,53.515c-2.878-0.003-5.237-1.058-7.213-3.23l-1.459,1.329
		c2.336,2.568,5.254,3.871,8.67,3.874c5.696,0.005,12.038-3.534,17.491-6.997l-1.059-1.665
		C118.879,49.942,112.575,53.519,107.356,53.515L107.356,53.515z"/>
	<path fill-rule="evenodd" clip-rule="evenodd" d="M129.606,52.461c-3.463,2.391-7.046,4.864-10.47,4.972
		c-2.525,0.08-4.822-1.153-7.02-3.768l-1.51,1.27c2.613,3.108,5.424,4.571,8.592,4.471c4.006-0.127,7.83-2.767,11.53-5.322
		l1.73-1.185l-1.102-1.637L129.606,52.461L129.606,52.461z"/>
	<path fill-rule="evenodd" clip-rule="evenodd" d="M127.347,60.21c-3.225,0.178-4.249-1.06-4.827-2.294l-1.787,0.837
		c1.166,2.491,3.365,3.612,6.723,3.427c3.755-0.207,8.28-2.406,12.107-5.882l-1.327-1.461
		C134.734,58.018,130.664,60.027,127.347,60.21L127.347,60.21z"/>
	<path fill-rule="evenodd" clip-rule="evenodd" d="M132.369,63.073c-1.238-0.354-2.177-1.11-2.795-2.246l-1.735,0.94
		c0.879,1.621,2.22,2.698,3.988,3.203c3.312,0.945,7.868-0.218,13.545-3.456l-0.978-1.714
		C137.92,63.493,134.282,63.619,132.369,63.073L132.369,63.073z"/>
	<path fill-rule="evenodd" clip-rule="evenodd" d="M131.877,64.332c0.627,2.105,1.911,3.599,3.813,4.44
		c5.47,2.419,14.049-1.448,15.715-2.248l-0.854-1.778c-3.397,1.632-10.182,3.938-14.062,2.222c-1.369-0.606-2.259-1.652-2.72-3.2
		L131.877,64.332L131.877,64.332z"/>
	<path fill-rule="evenodd" clip-rule="evenodd" d="M137.349,69.335c3.486,6.254,8.496,7.055,19.141,3.061l-0.693-1.846
		c-10.845,4.067-14.14,2.459-16.724-2.176L137.349,69.335L137.349,69.335z"/>
	<path fill-rule="evenodd" clip-rule="evenodd" d="M145.102,74.603c0.96,2.345,2.701,4.003,5.035,4.797
		c3.431,1.167,8.009,0.391,12.248-2.075l-0.993-1.705c-3.752,2.183-7.721,2.897-10.621,1.911c-1.802-0.612-3.096-1.849-3.843-3.675
		L145.102,74.603L145.102,74.603z"/>
	<path fill-rule="evenodd" clip-rule="evenodd" d="M154.053,79.714c1.034,2.359,2.775,3.984,4.903,4.576
		c2.559,0.712,5.589-0.076,8.993-2.245c1.227,2.67,3.055,3.217,5.674,3.183l-0.026-1.974c-2.247,0.03-3.326-0.244-4.23-2.99
		l-0.417-1.268l-1.089,0.771c-3.335,2.358-6.154,3.24-8.376,2.622c-1.982-0.552-3.065-2.19-3.625-3.466L154.053,79.714
		L154.053,79.714z"/>
	<path fill-rule="evenodd" clip-rule="evenodd" d="M329.86,43.008c-8.462-0.014-15.874-0.915-22.03-2.678l-0.543,1.898
		c6.332,1.814,13.925,2.74,22.571,2.755c9.149,0.015,15.035-2.962,20.315-10.273l-1.599-1.155
		C343.65,40.371,338.402,43.022,329.86,43.008L329.86,43.008z"/>
	<path fill-rule="evenodd" clip-rule="evenodd" d="M319.7,52.301c-4.043,0.027-9.35-0.758-14.562-2.154l-0.51,1.906
		c5.375,1.439,10.872,2.248,15.084,2.221c8.028-0.052,13.45-3.069,18.133-10.09l-1.642-1.096
		C331.87,49.584,327.09,52.253,319.7,52.301L319.7,52.301z"/>
	<path fill-rule="evenodd" clip-rule="evenodd" d="M268.71,64.276c4.748,3.129,11.938,7.289,19.529,7.293
		c5.336,0.002,10.267-2.052,14.654-6.104l-1.339-1.449c-4.067,3.757-8.422,5.583-13.315,5.579
		c-7.061-0.004-13.906-3.978-18.442-6.968L268.71,64.276L268.71,64.276z"/>
	<path fill-rule="evenodd" clip-rule="evenodd" d="M302.663,63.428c-5.459,0.159-16.416-2.953-21.837-7.056l-1.191,1.574
		c5.822,4.407,17.191,7.626,23.086,7.455c9.496-0.278,18.803-7.195,22.44-11.489l-1.506-1.276
		C320.24,56.672,311.519,63.169,302.663,63.428L302.663,63.428z"/>
	<path fill-rule="evenodd" clip-rule="evenodd" d="M262.795,69.67c2.761,5.128,9.793,8.911,16.719,8.994
		c6.18,0.074,11.157-2.648,14.017-7.668l-1.714-0.977c-3.36,5.894-9.135,6.711-12.28,6.673c-6.253-0.075-12.563-3.421-15.006-7.957
		L262.795,69.67L262.795,69.67z"/>
	<path fill-rule="evenodd" clip-rule="evenodd" d="M264.223,86.055c-3.292,0.104-7.036-1.061-9.316-2.899l-1.238,1.537
		c2.661,2.145,6.828,3.453,10.616,3.335c3.635-0.114,6.481-1.514,8.013-3.94l-1.669-1.053C269.049,85.536,265.938,86,264.223,86.055
		L264.223,86.055z"/>
	<path fill-rule="evenodd" clip-rule="evenodd" d="M255.247,76.932c6.623,6.312,12.823,7.095,16.859,6.641
		c5.218-0.587,8.87-3.386,9.947-5.011l-1.645-1.09c-0.714,1.076-3.85,3.614-8.523,4.14c-3.618,0.408-9.205-0.321-15.279-6.108
		L255.247,76.932L255.247,76.932z"/>
	<path fill-rule="evenodd" clip-rule="evenodd" d="M257.522,89.404c-1.746,0.167-4.318-0.131-6.649-2.506l-1.408,1.382
		c2.878,2.932,6.072,3.298,8.246,3.088c3.53-0.34,6.444-2.387,7.393-4.14l-1.735-0.939
		C262.668,87.583,260.233,89.143,257.522,89.404L257.522,89.404z"/>
	<path fill-rule="evenodd" clip-rule="evenodd" d="M242.901,91.242c-0.704,1.745-1.72,2.871-2.717,3.012
		c-1.016,0.144-1.933-0.725-2.524-1.48l-1.553,1.215c1.649,2.109,3.278,2.371,4.354,2.219c1.373-0.194,2.591-1.179,3.539-2.777
		c1.667,1.823,3.976,2.765,6.479,2.504c2.937-0.308,5.418-2.165,6.321-4.733l-1.862-0.654c-0.65,1.851-2.481,3.196-4.664,3.424
		c-2.311,0.241-4.358-0.806-5.613-2.874l-1.023-1.682L242.901,91.242L242.901,91.242z"/>
	<path fill-rule="evenodd" clip-rule="evenodd" d="M340.48,43.272c4.393,1.48,9.769,2.316,15.547,2.417
		c4.566,0.081,9.192-0.308,13.38-1.125l-0.379-1.937c-4.053,0.791-8.538,1.166-12.968,1.089c-5.579-0.098-10.749-0.9-14.952-2.316
		L340.48,43.272L340.48,43.272z"/>
	<path fill-rule="evenodd" clip-rule="evenodd" d="M339.797,55.126c-5.911-0.076-11.335-1.09-14.507-2.712l-0.899,1.756
		c3.48,1.78,9.087,2.848,15.381,2.928c6.626,0.087,13.472-0.921,19.275-2.835l-0.619-1.874
		C352.828,54.237,346.211,55.208,339.797,55.126L339.797,55.126z"/>
	<path fill-rule="evenodd" clip-rule="evenodd" d="M316.827,69.121c-6.736,0.097-13.197-0.588-18.195-1.93l-0.511,1.906
		c5.168,1.387,11.821,2.097,18.733,1.998c10.072-0.144,19.755-1.936,27.267-5.044l-0.754-1.823
		C336.079,67.243,326.653,68.981,316.827,69.121L316.827,69.121z"/>
	<path fill-rule="evenodd" clip-rule="evenodd" d="M286.875,76.327c3.886,3.805,19.908,5.976,29.493,4.882l-0.223-1.961
		c-9.625,1.099-24.742-1.248-27.89-4.33L286.875,76.327L286.875,76.327z"/>
	<path fill-rule="evenodd" clip-rule="evenodd" d="M279.444,80.367c4.407,3.342,13.324,7.901,17.837,7.732l-0.076-1.972
		c-3.644,0.137-12.044-3.899-16.569-7.333L279.444,80.367L279.444,80.367z"/>
	<path fill-rule="evenodd" clip-rule="evenodd" d="M271.496,84.072c4.667,5.652,13.627,8.709,21.789,7.434l-0.305-1.949
		c-7.508,1.172-15.718-1.599-19.964-6.742L271.496,84.072L271.496,84.072z"/>
	<path fill-rule="evenodd" clip-rule="evenodd" d="M278.406,93.061l0.951,1.517c0.982,1.578,2.093,3.368,3.095,4.653l1.556-1.213
		c-0.937-1.204-2.019-2.945-2.974-4.481l-0.964-1.54L278.406,93.061L278.406,93.061z"/>
	<path fill-rule="evenodd" clip-rule="evenodd" d="M272.427,94.319l0.929,2.04c0.596,1.391,1.159,2.705,1.86,3.468l1.453-1.334
		c-0.472-0.515-0.995-1.733-1.5-2.912l-0.988-2.168L272.427,94.319L272.427,94.319z"/>
	<path fill-rule="evenodd" clip-rule="evenodd" d="M264.979,95.567l0.682,1.797c0.781,2.164,1.096,2.946,1.42,3.311l1.506-1.273
		c-0.199-0.295-0.745-1.806-1.069-2.708l-0.762-1.986L264.979,95.567L264.979,95.567z"/>
	<polygon fill-rule="evenodd" clip-rule="evenodd" points="256.221,98.091 258.388,102.158 260.13,101.23 257.962,97.162 
		256.221,98.091 	"/>
	<path fill-rule="evenodd" clip-rule="evenodd" d="M306.383,49.91c-4.97,0.119-9.399-2.542-14.527-5.623l-1.016,1.692
		c5.391,3.239,10.048,6.036,15.589,5.904c3.989-0.096,9.252-3.844,10.828-7.714l-1.828-0.744
		C314.152,46.56,309.586,49.833,306.383,49.91L306.383,49.91z"/>
	<path fill-rule="evenodd" clip-rule="evenodd" d="M281.255,50.113l0.487,0.274c6.374,3.58,15.102,8.481,23.045,1.533l-1.3-1.485
		c-6.893,6.03-14.592,1.707-20.779-1.768l-0.488-0.274L281.255,50.113L281.255,50.113z"/>
	<path fill-rule="evenodd" clip-rule="evenodd" d="M269.953,53.014c3.958,2.663,7.084,4.765,11.782,4.913
		c2.92,0.091,6.005-0.1,8.82-3.447l-1.511-1.269c-2.25,2.676-4.615,2.825-7.247,2.743c-3.937-0.123-6.519-1.737-10.741-4.577
		L269.953,53.014L269.953,53.014z"/>
	<path fill-rule="evenodd" clip-rule="evenodd" d="M262.735,56.98c1.884,1.712,7.319,4.015,11.892,3.876
		c2.851-0.087,4.958-1.139,6.095-3.04l-1.694-1.013c-0.784,1.315-2.286,2.014-4.461,2.081c-3.958,0.12-8.942-1.945-10.504-3.364
		L262.735,56.98L262.735,56.98z"/>
	<path fill-rule="evenodd" clip-rule="evenodd" d="M266.309,63.382c-2.265-0.002-5.054-0.938-8.291-2.784l-0.978,1.713
		c3.539,2.019,6.658,3.042,9.267,3.045c3.216,0.002,5.759-1.555,7.354-4.499l-1.734-0.94
		C270.663,62.249,268.825,63.383,266.309,63.382L266.309,63.382z"/>
	<path fill-rule="evenodd" clip-rule="evenodd" d="M261.843,67.817c-2.118,0.19-4.595-0.307-6.794-1.365l-0.855,1.779
		c2.51,1.207,5.362,1.773,7.827,1.551c3.23-0.29,5.679-1.881,7.079-4.599l-1.754-0.903
		C266.255,66.397,264.404,67.587,261.843,67.817L261.843,67.817z"/>
	<path fill-rule="evenodd" clip-rule="evenodd" d="M256.652,74.198c-2.08,0.018-4.777-0.771-8.492-2.482l-0.826,1.792
		c3.988,1.837,6.954,2.683,9.333,2.664c4.174-0.035,6.299-2.842,7.827-5.585l-1.723-0.961
		C260.949,72.894,259.233,74.176,256.652,74.198L256.652,74.198z"/>
	<polygon fill-rule="evenodd" clip-rule="evenodd" points="249.708,99.771 249.708,100.909 251.682,100.909 251.682,99.771 
		249.708,99.771 	"/>
	<path fill-rule="evenodd" clip-rule="evenodd" d="M251.003,78.959c-1.894,0.139-4.277-0.498-5.928-1.583l-2.029-1.336l0.524,2.373
		c0.298,1.349,0.157,2.552-0.402,3.386c-0.353,0.529-0.859,0.865-1.461,0.971c-1.031,0.182-2.211-0.316-3.41-1.439l-1.348,1.441
		c2.11,1.975,3.937,2.146,5.102,1.941c1.128-0.198,2.108-0.844,2.759-1.817c0.556-0.831,0.834-1.861,0.863-2.988
		c1.742,0.752,3.739,1.147,5.476,1.02c2.755-0.202,4.86-1.674,5.927-4.144l-1.812-0.782
		C254.479,77.814,253.046,78.81,251.003,78.959L251.003,78.959z"/>
	<path fill-rule="evenodd" clip-rule="evenodd" d="M207.687,116.955c0.063,2.948,1.097,5.456,2.995,7.256l1.293,1.23l0.397-1.982
		c0.203-1.008,0.415-1.988,1.046-3.274c0.523,0.492,1.02,1.021,1.478,1.657l0.879,1.219l1.42-2.391
		c0.792-1.4,1.804-3.095,3.676-4.34c1.249,0.725,2.917,2.305,3.973,3.322l2.089,1.924l0.537-1.174
		c1.056-1.954,2.222-3.039,3.672-4.181c0.376,0.223,0.785,0.466,0.785,0.466l1.136-1.613l-2.152-1.276l-0.455,0.446
		c-1.237,0.949-2.723,2.151-4.049,4.166c-0.062-0.057-0.194-0.18-0.194-0.18c-1.359-1.309-3.414-3.287-5.004-3.976l-0.453-0.196
		l-0.43,0.245c-2.589,1.485-3.849,3.638-4.767,5.258c-0.563-0.632-1.153-1.215-1.832-1.726l-0.876-0.659l-0.564,0.941
		c-0.76,1.269-1.153,2.272-1.419,3.174c-0.751-1.226-1.174-2.681-1.208-4.379c-0.002-0.085-0.003-0.169-0.003-0.253
		c0-3.328,1.393-6.322,2.365-7.326l-1.418-1.372C209.128,109.486,207.605,113.156,207.687,116.955L207.687,116.955z"/>
	<path fill-rule="evenodd" clip-rule="evenodd" fill="#FDB913" d="M158.459,146.504c-0.158-1.8,1.187-5.248,3.814-6.226
		c-0.121,1.116-0.077,2.636,0.461,3.633C161.193,144.227,159.529,145.436,158.459,146.504L158.459,146.504z"/>
	<path fill-rule="evenodd" clip-rule="evenodd" d="M161.928,139.354c-3.052,1.134-4.651,4.979-4.453,7.236l0.183,2.107l1.497-1.494
		c0.903-0.9,2.432-2.049,3.776-2.325l1.303-0.267l-0.633-1.17c-0.416-0.771-0.454-2.085-0.348-3.057l0.172-1.588L161.928,139.354
		L161.928,139.354z M161.291,142.075c0.032,0.412,0.107,0.804,0.216,1.227c-0.543,0.213-1.046,0.46-1.513,0.755
		C160.305,143.34,160.713,142.635,161.291,142.075L161.291,142.075z"/>
	<path fill-rule="evenodd" clip-rule="evenodd" fill="#FDB913" d="M177.191,155.887c-1.664-0.743-3.399-2.819-2.573-5.369
		c1.057-0.196,2.473-0.32,3.529,0.071C177.669,152.353,176.998,154.386,177.191,155.887L177.191,155.887z"/>
	<path fill-rule="evenodd" clip-rule="evenodd" d="M174.437,149.547l-0.577,0.108l-0.181,0.559c-0.954,2.942,0.89,5.584,3.109,6.576
		l1.605,0.717l-0.222-1.744c-0.14-1.091,0.315-2.716,0.716-4.149l0.456-1.643l-0.854-0.309
		C177.197,149.185,175.573,149.335,174.437,149.547L174.437,149.547z M176.907,151.385c-0.248,0.889-0.443,1.771-0.578,2.636
		c-0.521-0.571-0.934-1.313-0.934-2.207c0-0.124,0.048-0.263,0.065-0.392C176.004,151.357,176.48,151.346,176.907,151.385
		L176.907,151.385z"/>
	<path fill-rule="evenodd" clip-rule="evenodd" fill="#FDB913" d="M198.71,140.747c-0.24-2.218-3.028-4.306-5.012-4.278
		c0.194,1.102,0.071,2.096,0.047,3.134C195.454,139.773,197.507,140.25,198.71,140.747L198.71,140.747z"/>
	<path fill-rule="evenodd" clip-rule="evenodd" d="M193.683,135.482l-1.16,0.017l0.201,1.143c0.13,0.729,0.097,1.431,0.062,2.173
		l-0.064,1.695l0.925,0.077c1.591,0.158,3.561,0.609,4.686,1.075l1.538,0.636l-0.179-1.655
		C199.391,137.869,196.081,135.447,193.683,135.482L193.683,135.482z M194.792,137.818c0-0.035-0.007-0.075-0.008-0.11
		c0.727,0.279,1.428,0.793,1.996,1.418c-0.66-0.157-1.341-0.282-2.014-0.382C194.778,138.441,194.792,138.135,194.792,137.818
		L194.792,137.818z"/>
	<polygon fill-rule="evenodd" clip-rule="evenodd" points="180.162,128.922 180.217,130.894 183.715,130.88 185.887,130.887 
		185.876,128.913 183.73,128.906 180.162,128.922 	"/>
	<polygon fill-rule="evenodd" clip-rule="evenodd" points="181.316,125.521 181.351,127.494 186.448,127.401 186.413,125.429 
		181.316,125.521 	"/>
	<path fill-rule="evenodd" clip-rule="evenodd" d="M186.524,122.015l-4.439,0.089l0.031,1.972l5.053-0.101l0.893-1.374
		C187.8,121.988,187.373,121.997,186.524,122.015L186.524,122.015z"/>
	<path fill-rule="evenodd" clip-rule="evenodd" d="M171.897,137.402c-1.476,0.32-2.994,0.469-4.43,0.756
		c0.157,0.16,0.368,0.267,0.58,0.373l0.147,2.354c1.03,0.294,0.84-1,1.87-1l1.885-0.582
		C171.95,139.149,171.941,138.36,171.897,137.402L171.897,137.402z M168.359,143.268c0.836-0.238,1.708-0.629,2.79-1.267
		c-0.008-0.081-0.014-0.16-0.014-0.234c-0.882,0-2.059,0.294-2.648,0.736C168.488,142.671,168.441,142.946,168.359,143.268
		L168.359,143.268z M171.176,142.198c-1.367,1.11-2.365,2.227-2.92,3.822c1.28-0.016,2.71,0.001,3.617,0.454
		C172.263,145.299,171.379,143.426,171.176,142.198L171.176,142.198z M175.758,145.227c-0.321,1.137-0.725,2.19-0.963,3.318
		l1.855-0.793c0.147-0.589,1.712-2.579,2.449-2.579C178.758,144.833,176.919,145.091,175.758,145.227L175.758,145.227z
		 M192.352,136.042c-2.382-0.544-2.666-1.846-5.539-3.292c0.348,3.028,1.826,5.192,5.358,5.192
		C192.298,137.435,192.342,136.762,192.352,136.042L192.352,136.042z"/>
	<path fill-rule="evenodd" clip-rule="evenodd" fill="#FDB913" d="M222.578,116.337c0.159,5.66,1.183,14.658,6.227,18.259
		c4.261,3.041,7.571,2.026,10.624,4.764l-0.257,3.07c-5.376-1.751-3.326-0.116-7.653-1.35c3.281,2.327,4.321,2.398,4.713,6.246
		c-1.283,0.271-1.899,1.4-2.769,1.932c-1.556-1.639-4.392-2.428-6.51-5.945c0.281,2.751,0.7,5.326,0.7,7.972
		c-1.13-0.182-2.259-0.207-3.388,0c-0.991-2.167-3.311-7.042-3.311-9.55c-2.959,0-3.084-3.094-5.867-3.57
		c-1.257-0.216-3.131,0.759-4.8,0.494c-0.156-1.244-0.014-2.335-0.014-3.447c3.098-0.971,4.006-2.957,7.725-4.704
		c1.335-2.947,0.181-6.803-0.772-11.716c0.814-1.763,2.079-2.555,3.559-3.723C221.204,115.25,222.164,116.045,222.578,116.337
		L222.578,116.337z"/>
	<path fill-rule="evenodd" clip-rule="evenodd" d="M220.175,114.293l-0.582,0.451c-1.264,0.972-2.458,1.889-3.265,3.633
		l-0.136,0.294l0.509,2.51c0.489,2.36,0.915,4.409,0.915,6.151c0,0.918-0.146,1.737-0.432,2.487c-1.618,0.81-2.732,1.655-3.7,2.408
		c-1.139,0.885-2.037,1.583-3.506,2.043l-0.673,0.211l-0.048,1.754l0.068,3.373l0.809,0.026c1.072,0.17,2.137-0.065,3.078-0.274
		c0.675-0.149,1.312-0.29,1.71-0.222c0.972,0.167,1.5,0.758,2.171,1.507c0.694,0.774,1.566,1.667,2.996,1.951
		c0.297,2.365,1.694,5.649,3.075,8.653l0.525,1.145l0.756-0.137c0.955-0.176,1.954-0.174,3.052,0.003l1.146,0.186v-1.161
		c0-1.611-0.158-3.172-0.34-4.77c0.902,0.842,1.808,1.475,2.608,2.013c0.736,0.494,1.372,0.921,1.836,1.411l0.635,0.668l0.597-0.506
		l1.05-0.867c0.463-0.443,0.862-0.825,1.408-0.94l0.869-0.183l-0.09-0.883c-0.255-2.507-0.836-3.655-1.987-4.684
		c0.59-0.005,1.421,0.104,3.638,0.827l1.187,0.386l0.402-4.802l-0.366-0.328c-1.705-1.53-3.44-1.997-5.276-2.49
		c-1.697-0.457-3.453-0.929-5.433-2.342c-4.492-3.206-5.641-11.276-5.814-17.481l-0.014-0.477l-0.857-0.645l-2.109-1.428
		L220.175,114.293L220.175,114.293z M220.797,116.311c0,0,0.03-0.023,0.033-0.025c0.317,0.226,0.663,0.472,0.663,0.472
		s0.078,0.059,0.122,0.091c0.234,6.588,1.585,14.96,6.618,18.551c2.269,1.621,4.286,2.162,6.066,2.643
		c1.523,0.409,2.852,0.798,4.1,1.777c-0.032,0.382-0.057,0.683-0.11,1.311c-2.105-0.609-2.867-0.587-3.566-0.545
		c-0.57,0.034-1.108,0.066-2.933-0.453l-5.797-1.653l6.304,4.336c1.941,1.31,2.532,1.813,2.842,3.937
		c-0.59,0.31-1.093,0.689-1.476,1.056c0,0-0.114,0.097-0.185,0.157c-0.458-0.374-0.942-0.727-1.465-1.077
		c-1.38-0.927-2.944-1.977-4.211-4.083l-2.333-3.874l0.754,6.711c0.184,1.567,0.33,3.066,0.393,4.568
		c-0.595-0.038-1.176-0.025-1.74,0.034c-1.004-2.186-2.931-6.431-2.931-8.508v-0.988h-0.988c-1.07,0-1.579-0.512-2.391-1.42
		c-0.737-0.825-1.656-1.853-3.309-2.135c-0.781-0.134-1.601,0.047-2.469,0.24c-0.519,0.114-1.034,0.192-1.532,0.232
		c-0.011-0.642-0.023-1.348-0.023-1.348s0.006-0.222,0.012-0.421c1.414-0.558,2.422-1.308,3.453-2.109
		c1.017-0.79,2.07-1.607,3.722-2.384l0.33-0.155l0.15-0.331c0.498-1.098,0.689-2.292,0.689-3.577c0-1.977-0.453-4.17-0.95-6.56
		c0,0-0.269-1.329-0.369-1.824C218.862,117.827,219.68,117.169,220.797,116.311L220.797,116.311z"/>
	<path fill-rule="evenodd" clip-rule="evenodd" fill="#FDB913" d="M236.732,153.246c0.731-1.103,1.202-4.381-0.158-6.234
		c-0.843,0.337-2.402,1.499-3.087,2.278C234.506,150.286,235.941,151.778,236.732,153.246L236.732,153.246z"/>
	<path fill-rule="evenodd" clip-rule="evenodd" d="M236.207,146.093c-1.065,0.427-2.736,1.718-3.463,2.545l-0.618,0.704l0.67,0.654
		c0.556,0.543,2.243,2.195,3.065,3.719l0.783,1.452l0.912-1.375c0.985-1.49,1.414-5.186-0.185-7.366l-0.452-0.616L236.207,146.093
		L236.207,146.093z M236.13,148.388c0.198,0.545,0.322,1.132,0.322,1.731c0,0.304-0.057,0.567-0.093,0.85
		c-0.482-0.601-0.981-1.165-1.463-1.661C235.283,148.982,235.722,148.656,236.13,148.388L236.13,148.388z"/>
	<path fill-rule="evenodd" clip-rule="evenodd" fill="#FDB913" d="M243.528,145.475c0.158-1.8-1.187-5.249-3.814-6.225
		c-0.041,1.061-0.131,2.058-0.461,3.124C240.722,142.975,242.405,144.615,243.528,145.475L243.528,145.475z"/>
	<path fill-rule="evenodd" clip-rule="evenodd" d="M238.727,139.211c-0.04,1.044-0.127,1.931-0.418,2.87l-0.268,0.865l0.837,0.342
		c0.937,0.383,2.09,1.35,3.017,2.129l2.478,2.023l0.137-1.879c0.198-2.257-1.401-6.101-4.452-7.237l-1.279-0.476L238.727,139.211
		L238.727,139.211z M240.565,140.96c0.607,0.549,1.057,1.24,1.386,1.971c-0.52-0.407-1.046-0.733-1.588-1.04
		C240.433,141.58,240.524,141.26,240.565,140.96L240.565,140.96z"/>
	<path fill-rule="evenodd" clip-rule="evenodd" fill="#FDB913" d="M225.182,156.273c1.663-0.742,3.399-2.818,2.573-5.369
		c-1.057-0.197-2.473-0.32-3.529,0.07C224.703,152.74,225.374,154.772,225.182,156.273L225.182,156.273z"/>
	<path fill-rule="evenodd" clip-rule="evenodd" d="M223.884,150.048l-0.853,0.314l0.453,1.636c0.403,1.434,0.858,3.058,0.718,4.149
		l-0.223,1.744l1.606-0.717c2.218-0.991,4.062-3.632,3.109-6.575l-0.182-0.56l-0.579-0.107
		C226.8,149.721,225.175,149.571,223.884,150.048L223.884,150.048z M226.912,151.808c0.018,0.128,0.064,0.267,0.064,0.391
		c0,0.895-0.412,1.636-0.934,2.207c-0.133-0.865-0.328-1.747-0.577-2.636C225.894,151.732,226.368,151.743,226.912,151.808
		L226.912,151.808z"/>
	<path fill-rule="evenodd" clip-rule="evenodd" fill="#FDB913" d="M205.981,140.608c-0.157-2.218,2.161-5.182,4.365-5.155
		c-0.195,1.103-0.07,2.096-0.046,3.134C208.592,139.014,207.183,139.915,205.981,140.608L205.981,140.608z"/>
	<path fill-rule="evenodd" clip-rule="evenodd" d="M206.842,136.192c-1.241,1.315-1.948,3.033-1.846,4.486l0.112,1.583l1.81-1.055
		c1.056-0.618,2.253-1.318,3.622-1.661l0.777-0.194l-0.06-1.552c-0.034-0.742-0.066-1.445,0.062-2.174l0.202-1.144l-1.162-0.015
		C209.156,134.451,207.906,135.064,206.842,136.192L206.842,136.192z M208.277,137.548c0.31-0.328,0.645-0.582,0.976-0.77
		c0,0.008-0.002,0.017-0.002,0.025c0,0.371,0.017,0.732,0.034,1.087c0,0,0.001,0.026,0.001,0.027
		c-0.606,0.208-1.196,0.415-1.721,0.682C207.772,138.235,207.98,137.865,208.277,137.548L208.277,137.548z"/>
	<polygon fill-rule="evenodd" clip-rule="evenodd" points="221.03,127.897 218.505,127.931 218.494,129.905 221.075,129.87 
		224.433,129.845 224.488,127.873 221.03,127.897 	"/>
	<polygon fill-rule="evenodd" clip-rule="evenodd" points="218.864,125.124 218.922,127.097 223.85,126.953 223.792,124.981 
		218.864,125.124 	"/>
	<path fill-rule="evenodd" clip-rule="evenodd" d="M217.645,122.422l0.772,1.686c0.372-0.028,3.883-0.281,4.724-0.269l0.031-1.973
		C223.122,121.866,218.239,121.837,217.645,122.422L217.645,122.422z"/>
	<path fill-rule="evenodd" clip-rule="evenodd" d="M231.87,136.845c1.474,0.321,3.226,0.654,4.662,0.941
		c-1.013,1.038-0.977-0.148-1.098,1.799c-1.03,0.294-0.887-0.397-1.918-0.397l-1.885-0.581
		C231.631,138.452,231.826,137.803,231.87,136.845L231.87,136.845z M231.612,141.222c1.368,1.111,3.621,3.204,4.177,4.798
		c-1.282-0.016-2.432-0.416-3.338,0.037C232.714,143.263,230.713,143.657,231.612,141.222L231.612,141.222z M226.229,145.356
		c0.321,1.137,0.725,2.19,0.963,3.317l-1.856-0.791c-0.146-0.589-0.942-2.579-1.677-2.579
		C224.001,144.962,225.068,145.219,226.229,145.356L226.229,145.356z M212.015,134.658c2.382-0.544,2.667-1.846,5.54-3.292
		c-0.349,3.027-1.826,5.192-5.358,5.192C212.07,136.05,212.025,135.378,212.015,134.658L212.015,134.658z"/>
	<path fill-rule="evenodd" clip-rule="evenodd" d="M193.264,171.667l0.663,0.047c0.766,0.053,1.276,0.169,1.529,0.346
		c0.254,0.178,0.367,0.464,0.339,0.86c-0.026,0.375-0.186,0.63-0.479,0.763c-0.294,0.134-0.821,0.175-1.582,0.122l-0.618-0.044
		L193.264,171.667L193.264,171.667z M193.015,179.984c1.292,0.09,2.224,0.116,2.799,0.078c0.573-0.038,1.061-0.138,1.461-0.303
		c0.492-0.194,0.88-0.492,1.165-0.893c0.285-0.4,0.446-0.875,0.485-1.424c0.054-0.77-0.13-1.401-0.553-1.891
		c-0.422-0.488-1.034-0.79-1.836-0.903c0.729-0.126,1.27-0.351,1.622-0.675c0.352-0.324,0.548-0.781,0.59-1.372
		c0.033-0.466-0.048-0.885-0.244-1.255c-0.194-0.37-0.493-0.675-0.896-0.918c-0.354-0.207-0.783-0.366-1.287-0.476
		c-0.503-0.11-1.395-0.211-2.675-0.3l-3.113-0.217l-0.722,10.325L193.015,179.984L193.015,179.984z M192.988,175.608l1.126,0.078
		c0.757,0.053,1.268,0.175,1.536,0.366c0.268,0.19,0.387,0.504,0.356,0.94c-0.027,0.39-0.2,0.658-0.517,0.805
		c-0.318,0.147-0.844,0.196-1.579,0.144l-1.08-0.075L192.988,175.608L192.988,175.608z"/>
</g>
</svg>
