<?xml version="1.0" encoding="utf-8"?>
<!-- Generator: Adobe Illustrator 19.1.0, SVG Export Plug-In . SVG Version: 6.00 Build 0)  -->
<svg version="1.1" id="Layer_1" xmlns="http://www.w3.org/2000/svg" xmlns:xlink="http://www.w3.org/1999/xlink" x="0px" y="0px"
	 viewBox="0 0 400 400" enable-background="new 0 0 400 400" xml:space="preserve">
<path fill="#FFFFFF" d="M168.805,386.352c-2.555,0-4.869-1.061-6.557-2.748c-2.169-2.17-2.7-4.628-2.7-7.569H88.872l7.81-8.388
	c-4.773-4.05-9.257-8.437-13.354-13.113c-6.412,2.7-13.74,3.953-20.634,4.339c-8.292,0.482-17.693-3.327-18.657-12.776
	c-0.627-5.785,2.603-10.751,7.424-13.595c-4.532-0.964-9.256-2.459-13.065-5.303c-4.725-3.519-7.521-9.16-5.833-15.09
	c1.543-5.303,6.026-8.533,11.137-9.835c-0.579-2.362-0.482-4.869,0.386-7.135c-4.435-1.35-8.967-3.134-12.969-5.544
	c-7.28-4.435-13.933-12.631-9.208-21.502c4.821-8.967,16.729-8.437,24.732-4.483c-0.096-0.82-0.193-1.591-0.289-2.363
	c-6.364-1.591-12.872-4.628-18.224-8.485c-6.991-5.062-13.258-13.933-8.003-22.611c3.375-5.544,9.883-7.135,15.861-5.978
	c0.627-0.916,1.398-1.832,2.266-2.555c-4.58-4.58-8.919-10.076-11.233-16.15c-2.362-6.075-2.314-13.451,2.989-18.031
	c6.026-5.255,14.511-3.037,20.055,1.687c0.048-0.096,0.048-0.241,0.096-0.386c-4.773-4.773-8.63-11.233-11.233-17.452
	c-2.555-6.026-4.532-13.595-2.121-20.007c3.037-7.955,11.33-10.992,18.995-6.75c2.796-2.796,6.846-3.905,10.655-2.941
	c0.482-6.846,1.832-13.933,5.544-19.814c4.677-7.473,13.885-13.595,22.948-9.305c4.05,1.928,6.267,5.303,7.087,9.064
	c1.35,6.074-0.916,11.86-4.194,16.825c-3.278,4.966-7.955,9.015-12.969,12.149c1.543,1.976,2.507,4.435,2.507,7.087
	c0,0.048,0,0.096,0,0.096c8.581,1.735,13.788,9.353,9.931,18.175c-3.085,7.039-10.799,11.329-17.597,13.884
	c10.028,3.182,11.86,14.126,6.412,22.177c-3.326,5.014-8.63,8.871-13.74,11.811c8.967-1.061,17.452,5.689,16.199,15.379
	c-0.675,5.399-4.291,9.787-8.437,13.065c-2.844,2.218-6.026,4.05-9.257,5.641c0.337,0.241,0.627,0.482,0.916,0.771
	c7.135-3.471,16.825-2.459,21.019,4.966c4.146,7.473,0.289,15.138-5.303,20.393c4.339,1.205,7.569,4.532,9.064,8.726
	c1.639,4.773,1.013,9.208-0.482,13.885c2.7-0.723,5.496-0.723,8.003,0.048c-0.337-1.784-0.482-3.712-0.482-5.833V93.57h18.995
	c-2.555-1.398-4.339-3.568-5.255-6.074c-1.205-3.278-0.868-6.894,0.723-9.98c-4.966-3.23-8.485-8.003-10.365-13.644
	c-1.735-5.11-1.253-6.219-2.218-10.751c-0.241-1.109-0.482-1.977-0.868-2.748c-0.337-0.675-0.868-1.446-1.639-2.363h0.048
	c-1.012-1.157-2.314-2.507-4.098-4.194c-6.315-5.978-4.724-13.74,1.35-19.38c2.411-2.218,5.448-4.002,8.244-4.773
	c2.7-0.771,5.255-0.723,7.81,0.482c1.784,0.771,3.278,2.025,4.725,3.809c4.339,0.096,8.292,2.362,10.558,6.026
	c0.193-0.289,0.337-0.53,0.53-0.771c-1.254-4.098-0.964-8.244,1.928-11.619c3.085-3.567,7.424-4.484,11.908-4.146
	c3.182,0.241,5.93-0.338,8.774-1.784c2.604-1.302,5.303-2.603,9.546-1.928c3.278,0.579,5.641,2.266,7.231,4.58
	c1.446,2.025,2.17,4.435,2.459,6.701c1.013,0.579,2.025,1.302,2.893,2.362c0.578-1.109,1.398-2.169,2.362-3.037
	c-0.675-6.701,3.134-12.487,10.124-13.451c1.494-0.193,3.085-0.145,4.628,0.096c4.869,0.868,8.244,0.868,13.113,0
	c1.543-0.241,3.133-0.289,4.628-0.096c6.991,0.964,10.799,6.749,10.124,13.451c0.964,0.868,1.784,1.928,2.362,3.037
	c0.868-1.061,1.88-1.784,2.893-2.362c0.289-2.266,1.012-4.676,2.459-6.701c1.591-2.314,3.953-4.001,7.232-4.58
	c4.243-0.675,6.942,0.627,9.546,1.928c2.844,1.446,5.592,2.025,8.774,1.784c4.483-0.338,8.822,0.579,11.908,4.146
	c2.893,3.375,3.182,7.521,1.929,11.619c0.193,0.241,0.337,0.482,0.53,0.771c2.266-3.664,6.219-5.93,10.558-6.026
	c1.446-1.784,2.941-3.037,4.724-3.809c2.555-1.205,5.111-1.253,7.81-0.482c2.796,0.771,5.833,2.555,8.244,4.773
	c6.075,5.641,7.666,13.402,1.35,19.38c-1.784,1.687-3.085,3.037-4.098,4.194h0.048c-0.772,0.916-1.302,1.687-1.639,2.363
	c-0.386,0.771-0.627,1.639-0.868,2.748c-0.964,4.532-0.482,5.64-2.218,10.751c-1.88,5.641-5.4,10.414-10.365,13.644
	c1.591,3.086,1.928,6.701,0.723,9.98c-0.916,2.507-2.7,4.676-5.255,6.074h18.995v207.208c0,2.121-0.145,4.05-0.482,5.833
	c2.507-0.771,5.303-0.771,8.003-0.048c-1.494-4.676-2.121-9.112-0.482-13.885c1.494-4.194,4.725-7.521,9.064-8.726
	c-5.592-5.255-9.449-12.92-5.303-20.393c4.194-7.424,13.884-8.437,21.02-4.966c0.289-0.289,0.578-0.53,0.916-0.771
	c-3.23-1.591-6.412-3.423-9.256-5.641c-4.146-3.278-7.762-7.665-8.437-13.065c-1.253-9.69,7.231-16.44,16.199-15.379
	c-5.11-2.941-10.413-6.798-13.74-11.811c-5.448-8.051-3.616-18.995,6.412-22.177c-6.798-2.555-14.511-6.846-17.597-13.884
	c-3.857-8.823,1.35-16.44,9.931-18.175c0,0,0-0.048,0-0.096c0-2.652,0.964-5.111,2.507-7.087c-5.014-3.134-9.69-7.183-12.969-12.149
	c-3.278-4.966-5.544-10.751-4.194-16.825c0.819-3.761,3.037-7.135,7.087-9.064c9.063-4.291,18.272,1.832,22.948,9.305
	c3.712,5.882,5.062,12.969,5.544,19.814c3.809-0.964,7.859,0.145,10.655,2.941c7.666-4.242,15.958-1.205,18.995,6.75
	c2.41,6.412,0.434,13.981-2.121,20.007c-2.603,6.219-6.46,12.679-11.233,17.452c0.048,0.145,0.048,0.289,0.096,0.386
	c5.544-4.725,14.029-6.942,20.056-1.687c5.303,4.58,5.351,11.956,2.989,18.031c-2.314,6.074-6.653,11.57-11.233,16.15
	c0.868,0.723,1.639,1.639,2.266,2.555c5.978-1.157,12.487,0.434,15.861,5.978c5.255,8.678-1.012,17.549-8.003,22.611
	c-5.351,3.857-11.86,6.894-18.224,8.485c-0.096,0.772-0.193,1.543-0.289,2.363c8.003-3.953,19.911-4.484,24.732,4.483
	c4.724,8.871-1.929,17.066-9.208,21.502c-4.002,2.411-8.533,4.194-12.969,5.544c0.868,2.266,0.964,4.773,0.386,7.135
	c5.11,1.302,9.594,4.532,11.136,9.835c1.687,5.93-1.109,11.571-5.833,15.09c-3.809,2.844-8.533,4.339-13.065,5.303
	c4.821,2.844,8.051,7.81,7.424,13.595c-0.964,9.449-10.365,13.258-18.657,12.776c-6.894-0.386-14.222-1.639-20.634-4.339
	c-4.098,4.676-8.582,9.063-13.355,13.113l7.81,8.388h-70.676c0,2.941-0.53,5.4-2.7,7.569c-1.687,1.687-4.002,2.748-6.557,2.748
	H168.805L168.805,386.352z M113.749,321.268c-0.289,4.098-2.073,8.099-4.194,11.667h84.995c-2.652-4.387-5.93-8.051-9.98-8.051
	h-55.394c-3.471,0-6.653-0.337-9.546-1.157C117.509,323.148,115.533,322.329,113.749,321.268L113.749,321.268z M206.602,332.935
	h84.995c-2.122-3.567-3.905-7.569-4.194-11.667c-1.784,1.061-3.761,1.88-5.882,2.459c-2.893,0.82-6.074,1.157-9.546,1.157h-55.394
	C212.532,324.884,209.254,328.548,206.602,332.935z"/>
<path d="M190.548,352.123v-10.944l-0.964-1.446h-86.779l14.704,14.801l-8.871,10.365c-7.81-5.785-14.897-12.535-21.213-20.393
	c8.292-4.05,14.849-10.847,18.561-19.332c0.964-2.218,1.254-4.676,0.868-6.75c-0.964-4.869-5.881-6.942-10.269-4.821
	c-2.507,1.254-4.58,3.664-5.882,5.834c-3.712,6.171-5.592,14.222-6.171,21.309c-3.616-4.869-6.942-10.172-9.979-15.909
	c7.858-5.785,13.499-13.258,15.861-22.852c0.627-2.507,0.53-5.014-0.193-7.087c-1.736-4.869-6.942-6.074-10.944-2.989
	c-2.314,1.784-3.953,4.676-4.869,7.135c-2.362,6.171-3.085,13.21-2.844,19.814c-3.567-7.521-4.483-9.835-1.253-18.127
	c0.048,0,0.096,0,0.193,0c6.075,0,6.075-9.305,0-9.305c-4.532,0-6.267,5.737-2.844,8.34c-0.675,1.784-1.253,3.567-1.735,5.351
	c-1.784-4.869-3.326-9.786-4.628-14.801c2.989-0.337,7.955-2.266,12.728-4.917c3.375-1.929,6.701-4.243,9.256-6.701
	c3.085-3.037,6.075-7.521,3.664-11.811c-2.218-3.953-7.714-4.146-11.426-2.555c-4.58,1.977-8.051,5.641-10.751,10.028
	c-1.977,3.278-3.519,6.942-4.773,10.655c-0.482-2.025-0.916-4.002-1.302-6.026c-0.675-3.423,1.157-5.592,3.182-7.955
	c0.627,0.289,1.35,0.482,2.121,0.482c2.555,0,4.628-2.073,4.628-4.628c0-2.555-2.073-4.677-4.628-4.677s-4.676,2.121-4.676,4.677
	c0,0.771,0.193,1.495,0.53,2.169c-0.434,0.53-0.868,1.061-1.302,1.639c-0.385,0.482-0.723,0.964-1.109,1.495
	c-0.145-0.916-0.241-1.832-0.386-2.7c-0.675-4.628-1.205-9.256-1.591-13.884c2.314-0.096,6.026-1.061,9.883-2.7
	c3.664-1.543,7.521-3.616,10.606-6.026c3.23-2.555,5.592-5.496,5.978-8.629c0.434-3.423-1.494-6.364-4.821-7.425
	c-1.88-0.578-4.098-0.578-6.267,0.193c-4.387,1.543-7.955,4.869-10.847,9.016c-1.928,2.796-3.568,5.978-4.966,9.256
	c-0.096-1.88-0.193-3.76-0.241-5.689c-0.096-3.471,1.928-5.689,4.435-7.81c0.53,0.193,1.109,0.338,1.687,0.338
	c2.555,0,4.676-2.121,4.676-4.677c0-2.555-2.121-4.628-4.676-4.628c-2.555,0-4.628,2.073-4.628,4.628
	c0,0.964,0.241,1.784,0.723,2.507c-0.82,0.771-1.591,1.543-2.314,2.362c0-1.735,0-3.471,0.048-5.207
	c0.048-2.555,0.048-5.159,0.337-7.665c1.88-0.241,4.725-1.109,7.666-2.363c4.146-1.783,8.871-4.483,12.679-7.521
	c3.905-3.182,6.846-6.846,7.039-10.51c0.193-3.423-1.928-6.219-5.303-6.99c-1.976-0.482-4.243-0.289-6.412,0.723
	c-6.846,3.423-11.522,11.329-15.138,18.561c0.289-3.182,0.675-6.316,1.109-9.449c0.482-3.375,1.495-5.303,4.146-7.473
	c0.771,0.723,1.832,1.109,2.989,1.109c2.555,0,4.628-2.073,4.628-4.58c0-2.555-2.073-4.676-4.628-4.676
	c-2.603,0-4.676,2.121-4.676,4.676c0,0.386,0.048,0.772,0.145,1.157c-0.386,0.289-0.772,0.579-1.109,0.916
	c0.627-3.471,1.398-6.99,2.266-10.414c0.82,0.145,1.784,0.145,2.844,0.096c4.002-0.193,10.028-1.591,15.476-3.857
	c5.592-2.314,10.558-5.641,12.342-9.69c1.35-3.085,0.916-6.219-2.363-7.907c-1.735-0.916-4.098-1.302-6.46-1.254
	c-5.062,0.145-9.498,2.314-13.258,5.544c-1.977,1.639-3.712,3.616-5.351,5.785c1.013-3.134,2.121-6.171,3.278-9.16
	c1.061-2.844,1.977-4.821,4.821-6.46c0.771,1.494,2.362,2.507,4.146,2.507c2.555,0,4.628-2.073,4.628-4.628
	c0-2.555-2.073-4.628-4.628-4.628c-2.266,0-4.146,1.639-4.58,3.761c-0.193,0.096-0.386,0.193-0.627,0.337
	c1.398-3.085,2.892-6.075,4.435-9.015c6.315-2.7,13.161-7.618,17.018-13.403c2.025-3.037,3.809-6.798,3.471-10.51
	c-0.578-5.978-6.412-7.569-11.281-5.158c-2.363,1.157-4.725,3.23-6.653,6.364c-3.761,5.978-4.532,13.885-4.725,20.779
	c-2.025,3.761-3.857,7.617-5.592,11.571c-0.048-0.048-0.048-0.096-0.096-0.145c-0.144-0.482-0.289-0.964-0.482-1.398
	c0.964-0.868,1.591-2.121,1.591-3.519c0-2.555-2.121-4.628-4.676-4.628c-2.555,0-4.628,2.073-4.628,4.628
	c0,2.796,2.411,4.917,5.11,4.628c0.868,2.169,1.446,4.435,0.53,6.701c-1.254,3.278-2.459,6.605-3.568,10.028
	c0.145-1.784,0.145-3.568,0.096-5.303c-0.241-5.592-1.543-10.992-4.966-15.186c-2.411-2.892-7.521-5.978-11.04-2.941
	c-1.012,0.868-1.687,1.928-2.169,3.134c-1.495,3.953-0.289,9.546,2.025,14.993c2.218,5.255,5.496,10.462,8.292,13.692
	c1.109,1.254,2.7,2.941,4.339,3.568c-1.832,7.28-3.278,14.801-4.242,22.659c-0.145-0.578-0.289-1.157-0.434-1.687
	c-1.494-5.303-4.001-10.124-8.196-13.306c-1.88-1.398-4.146-2.266-6.123-2.41c-3.712-0.241-6.026,2.121-6.46,5.544
	c-0.53,4.146,1.88,9.208,5.303,13.884c3.327,4.484,7.665,8.678,11.088,11.137c1.253,0.916,2.459,1.591,3.471,1.976
	c-0.145,2.411-0.241,4.869-0.289,7.328c0,1.639-0.048,3.278-0.048,4.917c-0.771-1.061-1.591-2.073-2.411-3.037
	c0.482-0.772,0.771-1.639,0.771-2.603c0-2.555-2.073-4.676-4.628-4.676c-2.555,0-4.628,2.121-4.628,4.676
	c0,2.555,2.073,4.628,4.628,4.628c0.579,0,1.157-0.096,1.639-0.289c2.218,2.604,4.628,5.4,4.773,8.967
	c0,1.254,0.048,2.507,0.145,3.76c-1.495-3.182-3.327-6.219-5.496-8.871c-2.941-3.519-6.508-6.267-10.847-7.472
	c-2.218-0.627-4.484-0.675-6.316-0.096c-3.278,0.964-4.917,3.905-4.387,7.231c0.53,3.278,3.327,6.412,6.99,9.064
	c3.471,2.555,7.81,4.676,11.715,6.123c3.519,1.302,6.75,2.025,8.823,2.025c0.386,4.821,0.916,9.642,1.639,14.463
	c0.578,3.953,1.302,7.907,2.121,11.812c-1.784-2.652-3.809-5.207-6.123-7.376c-3.471-3.278-7.569-5.737-12.246-6.509
	c-2.362-0.385-4.725-0.241-6.653,0.482c-3.182,1.205-4.773,4.194-4.002,7.472c0.771,3.086,3.568,5.785,7.28,8.051
	c3.519,2.121,7.907,3.857,12.004,5.062c4.773,1.446,9.305,2.122,11.86,1.832c0.916,3.519,1.928,6.99,3.085,10.462
	c-0.675-0.482-1.302-0.916-1.977-1.302c0.289-2.796-1.928-5.303-4.773-5.303c-6.316,0-6.316,9.594,0,9.594
	c1.446,0,2.796-0.627,3.664-1.687c2.748,1.784,4.532,2.941,5.64,6.123c1.109,3.085,2.266,5.689,3.519,8.388
	c-5.255-5.014-11.956-8.967-19.429-8.581c-2.362,0.096-4.628,0.771-6.315,1.88c-2.893,1.88-3.905,5.11-2.362,8.196
	c1.254,2.652,4.243,4.58,7.955,5.93c6.653,2.41,17.79,3.857,24.587,1.735c2.7,5.11,5.641,9.835,8.774,14.318
	c-6.942-3.375-14.801-5.255-22.466-3.471c-2.314,0.53-4.387,1.639-5.785,3.085c-3.278,3.423-2.169,8.389,1.88,10.606
	c2.362,1.302,5.4,1.591,7.81,1.446c6.846-0.386,16.97-2.073,22.707-6.123c6.46,8.099,13.74,15.09,21.791,21.068l-1.88,2.218h61.372
	v7.81c0,1.35,1.157,2.459,2.507,2.459h63.541c1.35,0,2.507-1.109,2.507-2.459v-7.81h61.372l-1.88-2.218
	c8.051-5.978,15.331-12.969,21.791-21.068c5.737,4.05,15.861,5.737,22.707,6.123c2.411,0.145,5.448-0.145,7.81-1.446
	c4.05-2.218,5.159-7.183,1.88-10.606c-1.398-1.446-3.471-2.555-5.785-3.085c-7.665-1.784-15.523,0.096-22.466,3.471
	c3.134-4.483,6.074-9.208,8.774-14.318c6.798,2.121,17.934,0.675,24.587-1.735c3.712-1.35,6.701-3.278,7.955-5.93
	c1.543-3.085,0.53-6.315-2.363-8.196c-1.687-1.109-3.953-1.784-6.315-1.88c-7.473-0.386-14.174,3.568-19.429,8.581
	c1.253-2.7,2.411-5.303,3.519-8.388c1.109-3.182,2.893-4.339,5.641-6.123c0.868,1.061,2.218,1.687,3.664,1.687
	c6.316,0,6.316-9.594,0-9.594c-2.844,0-5.062,2.507-4.773,5.303c-0.675,0.386-1.302,0.82-1.977,1.302
	c1.157-3.471,2.17-6.942,3.085-10.462c2.555,0.289,7.087-0.386,11.86-1.832c4.098-1.205,8.485-2.941,12.004-5.062
	c3.712-2.266,6.509-4.966,7.28-8.051c0.771-3.278-0.82-6.267-4.002-7.472c-1.928-0.723-4.291-0.868-6.653-0.482
	c-4.676,0.772-8.774,3.23-12.246,6.509c-2.314,2.169-4.339,4.724-6.123,7.376c0.82-3.905,1.543-7.859,2.122-11.812
	c0.723-4.821,1.253-9.642,1.639-14.463c2.073,0,5.303-0.723,8.822-2.025c3.905-1.446,8.244-3.568,11.715-6.123
	c3.664-2.652,6.461-5.785,6.991-9.064c0.53-3.326-1.109-6.267-4.387-7.231c-1.832-0.579-4.098-0.53-6.316,0.096
	c-4.339,1.205-7.906,3.953-10.847,7.472c-2.17,2.652-4.002,5.689-5.496,8.871c0.096-1.254,0.145-2.507,0.145-3.76
	c0.145-3.568,2.555-6.364,4.773-8.967c0.482,0.193,1.061,0.289,1.639,0.289c2.555,0,4.628-2.073,4.628-4.628
	c0-2.555-2.073-4.676-4.628-4.676c-2.555,0-4.628,2.121-4.628,4.676c0,0.964,0.289,1.832,0.771,2.603
	c-0.82,0.964-1.639,1.976-2.411,3.037c0-1.639-0.048-3.278-0.048-4.917c-0.048-2.459-0.145-4.918-0.289-7.328
	c1.013-0.385,2.218-1.061,3.471-1.976c3.423-2.459,7.762-6.653,11.088-11.137c3.423-4.676,5.833-9.738,5.303-13.884
	c-0.434-3.423-2.748-5.785-6.46-5.544c-1.977,0.144-4.242,1.012-6.123,2.41c-4.194,3.182-6.701,8.003-8.196,13.306
	c-0.145,0.53-0.289,1.109-0.434,1.687c-0.964-7.858-2.41-15.379-4.242-22.659c1.639-0.627,3.23-2.314,4.339-3.568
	c2.796-3.23,6.075-8.437,8.292-13.692c2.314-5.448,3.519-11.04,2.025-14.993c-0.482-1.205-1.157-2.266-2.17-3.134
	c-3.519-3.037-8.629,0.048-11.04,2.941c-3.423,4.194-4.725,9.594-4.966,15.186c-0.048,1.735-0.048,3.519,0.096,5.303
	c-1.109-3.423-2.314-6.75-3.568-10.028c-0.916-2.266-0.337-4.532,0.53-6.701c2.7,0.289,5.111-1.832,5.111-4.628
	c0-2.555-2.073-4.628-4.628-4.628s-4.677,2.073-4.677,4.628c0,1.398,0.627,2.652,1.591,3.519c-0.193,0.434-0.338,0.916-0.482,1.398
	c-0.048,0.048-0.048,0.096-0.096,0.145c-1.735-3.953-3.568-7.81-5.592-11.571c-0.193-6.894-0.964-14.801-4.724-20.779
	c-1.929-3.134-4.291-5.207-6.653-6.364c-4.869-2.411-10.703-0.82-11.281,5.158c-0.337,3.713,1.446,7.473,3.471,10.51
	c3.857,5.785,10.703,10.703,17.018,13.403c1.543,2.941,3.037,5.93,4.435,9.015c-0.241-0.145-0.434-0.241-0.627-0.337
	c-0.434-2.121-2.314-3.761-4.58-3.761c-2.555,0-4.628,2.073-4.628,4.628c0,2.555,2.073,4.628,4.628,4.628
	c1.784,0,3.375-1.013,4.146-2.507c2.844,1.639,3.76,3.616,4.821,6.46c1.157,2.989,2.266,6.026,3.278,9.16
	c-1.639-2.17-3.375-4.146-5.351-5.785c-3.761-3.23-8.196-5.4-13.258-5.544c-2.362-0.048-4.725,0.338-6.46,1.254
	c-3.278,1.687-3.712,4.821-2.362,7.907c1.784,4.05,6.75,7.376,12.342,9.69c5.448,2.266,11.474,3.664,15.475,3.857
	c1.061,0.048,2.025,0.048,2.844-0.096c0.868,3.423,1.639,6.942,2.266,10.414c-0.337-0.337-0.723-0.627-1.109-0.916
	c0.096-0.385,0.145-0.771,0.145-1.157c0-2.555-2.073-4.676-4.676-4.676c-2.555,0-4.628,2.121-4.628,4.676
	c0,2.507,2.073,4.58,4.628,4.58c1.157,0,2.218-0.385,2.989-1.109c2.652,2.17,3.664,4.098,4.146,7.473
	c0.434,3.133,0.82,6.267,1.109,9.449c-3.616-7.231-8.292-15.138-15.138-18.561c-2.17-1.013-4.435-1.205-6.412-0.723
	c-3.375,0.771-5.496,3.567-5.303,6.99c0.193,3.664,3.133,7.328,7.039,10.51c3.809,3.037,8.533,5.737,12.679,7.521
	c2.941,1.254,5.785,2.121,7.666,2.363c0.289,2.507,0.289,5.11,0.337,7.665c0.048,1.736,0.048,3.471,0.048,5.207
	c-0.723-0.819-1.495-1.591-2.314-2.362c0.482-0.723,0.723-1.543,0.723-2.507c0-2.555-2.073-4.628-4.628-4.628
	c-2.555,0-4.677,2.073-4.677,4.628c0,2.555,2.121,4.677,4.677,4.677c0.578,0,1.157-0.145,1.687-0.338
	c2.507,2.122,4.532,4.339,4.435,7.81c-0.048,1.929-0.145,3.809-0.241,5.689c-1.398-3.278-3.037-6.46-4.966-9.256
	c-2.892-4.146-6.46-7.473-10.847-9.016c-2.17-0.771-4.387-0.771-6.268-0.193c-3.326,1.061-5.255,4.002-4.821,7.425
	c0.385,3.133,2.748,6.074,5.978,8.629c3.086,2.411,6.942,4.484,10.607,6.026c3.857,1.639,7.569,2.603,9.883,2.7
	c-0.386,4.628-0.916,9.256-1.591,13.884c-0.145,0.868-0.241,1.784-0.386,2.7c-0.385-0.53-0.723-1.013-1.109-1.495
	c-0.434-0.579-0.868-1.109-1.302-1.639c0.337-0.675,0.53-1.398,0.53-2.169c0-2.555-2.121-4.677-4.677-4.677
	c-2.555,0-4.628,2.121-4.628,4.677c0,2.555,2.073,4.628,4.628,4.628c0.772,0,1.495-0.193,2.122-0.482
	c2.025,2.362,3.857,4.532,3.182,7.955c-0.386,2.025-0.82,4.002-1.302,6.026c-1.253-3.712-2.796-7.376-4.773-10.655
	c-2.7-4.387-6.171-8.051-10.751-10.028c-3.712-1.591-9.208-1.398-11.426,2.555c-2.41,4.291,0.579,8.774,3.664,11.811
	c2.555,2.459,5.882,4.773,9.257,6.701c4.773,2.652,9.738,4.58,12.727,4.917c-1.302,5.014-2.844,9.931-4.628,14.801
	c-0.482-1.784-1.061-3.568-1.735-5.351c3.423-2.603,1.687-8.34-2.844-8.34c-6.075,0-6.075,9.305,0,9.305c0.096,0,0.145,0,0.193,0
	c3.23,8.292,2.314,10.606-1.254,18.127c0.241-6.605-0.482-13.644-2.844-19.814c-0.916-2.459-2.555-5.352-4.869-7.135
	c-4.001-3.085-9.208-1.88-10.944,2.989c-0.723,2.073-0.819,4.58-0.193,7.087c2.362,9.594,8.003,17.067,15.861,22.852
	c-3.037,5.737-6.364,11.04-9.98,15.909c-0.578-7.087-2.459-15.138-6.171-21.309c-1.302-2.17-3.375-4.58-5.882-5.834
	c-4.387-2.121-9.305-0.048-10.269,4.821c-0.386,2.073-0.096,4.532,0.868,6.75c3.712,8.485,10.269,15.283,18.561,19.332
	c-6.316,7.858-13.403,14.608-21.213,20.393l-8.871-10.365l14.704-14.801h-86.779l-0.964,1.446v10.944H190.548z"/>
<path fill="#FFFFFF" d="M166.298,366.49v-11.86c0-0.964,0.627-1.88,1.495-2.266l16.247-9.835h-74.581l11.812,12.005l-9.835,11.956
	H166.298z"/>
<path fill="#FFFFFF" d="M234.854,366.49v-11.86c0-0.964-0.627-1.88-1.495-2.266l-16.247-9.835h74.581l-11.811,12.005l9.835,11.956
	H234.854z"/>
<rect x="169.143" y="354.967" fill="#FFFFFF" width="62.867" height="21.791"/>
<path d="M200.576,330.669c-1.977-3.761-3.182-7.087-6.942-9.69c-2.652-1.832-5.882-2.844-9.064-2.844h-55.394
	c-5.785,0-10.413-1.109-13.692-3.857c-3.327-2.796-5.111-7.135-5.111-13.499V100.32h17.452c-0.145-0.916-0.048-1.88,0.385-2.748
	c0.579-1.302,1.736-2.507,3.664-3.471l-1.784-5.833c-1.109,0.241-2.314,0.145-3.423-0.241c-3.037-1.061-4.098-4.291-2.7-7.087
	c0.723-1.543,1.928-2.555,3.471-3.134c2.266-0.964,4.58-1.832,6.894-2.652c-9.256,0.193-17.211-4.291-20.248-13.403
	c-0.434-1.302-0.772-2.7-1.013-4.194l0,0c-0.675-4.677-1.109-7.521-2.314-10.076c-1.205-2.507-3.278-4.869-7.183-8.581
	c-1.543-1.446-2.266-2.892-1.784-4.821c0.868-3.471,5.062-6.942,8.581-7.906c2.363-0.675,4.146,0,6.075,2.844l0,0
	c1.205,1.832,2.411,1.784,3.568,1.736c4.676-0.289,7.28,3.134,6.894,7.665c-0.048,0.675-0.145,1.398-0.096,2.266l0,0
	c0.144,1.736,1.446,3.037,2.7,4.05c1.543,1.302,2.507,3.471,1.976,5.496c-0.964,3.664-5.207,3.809-8.244,4.242
	c-0.289,0.048-0.578,0.096-0.916,0.145c1.35,3.664,3.471,6.219,5.978,7.714c3.037,1.784,6.75,2.121,10.269,1.157
	c3.616-1.013,7.087-3.327,9.642-6.653c2.025-2.652,3.471-5.93,4.002-9.69c-1.35,0.482-2.603,1.205-3.953,1.639
	c-3.953,1.205-6.509-0.434-6.653-5.255c-0.145-3.857-0.82-3.664-2.218-4.387c-1.928-1.012-3.182-2.844-2.314-5.062
	c0.482-1.205,1.88-2.169,2.17-3.423c0.385-1.832-1.35-4.146-1.061-6.412c0.289-1.832,1.494-3.134,3.23-3.712
	c1.977-0.675,3.712-0.289,5.544-0.241c3.182,0.048,6.749-0.675,9.69-2.025c2.025-0.916,4.002-2.314,6.605-1.88
	c2.796,0.482,3.857,3.278,4.05,5.785c0.096,1.494,0.241,2.266,0.578,2.748c1.205,1.687,3.664,1.543,4.339,4.001
	c0.337,1.253-0.048,2.603-1.061,3.616c-1.35,1.35-1.928,1.832-1.061,3.712c1.061,2.314,1.687,4.387,1.109,5.978
	c-1.253,3.616-6.171,2.652-9.015,2.844c2.025,4.146,5.014,7.039,8.388,8.726c5.978,2.941,13.21,2.218,18.465-1.88
	c2.941-2.314,5.351-5.737,6.508-10.221c-0.337,0.096-0.675,0.145-1.012,0.193c-2.796,0.53-6.605,1.736-8.389-1.205
	c-0.723-1.157-0.771-2.7-0.434-4.532c0.145-0.916,0.82-2.7,0.337-3.519c-0.53-0.916-1.928-1.398-2.652-2.266
	c-1.061-1.254-1.157-2.989-0.241-4.339c0.868-1.302,2.796-1.929,2.989-3.616c0.048-0.53,0-1.205-0.145-2.169
	c-0.723-5.351,2.748-7.28,6.846-6.605c6.557,1.157,8.871,1.157,15.427,0c4.098-0.675,7.569,1.254,6.846,6.605
	c-0.144,0.964-0.193,1.639-0.144,2.169c0.193,1.687,2.121,2.314,2.989,3.616c0.916,1.35,0.82,3.085-0.241,4.339
	c-0.723,0.868-2.121,1.35-2.652,2.266c-0.482,0.819,0.193,2.603,0.337,3.519c0.337,1.832,0.289,3.375-0.434,4.532
	c-1.784,2.941-5.592,1.736-8.388,1.205c-0.338-0.048-0.675-0.097-1.013-0.193c1.157,4.484,3.568,7.906,6.509,10.221
	c5.255,4.098,12.486,4.821,18.464,1.88c3.375-1.687,6.364-4.58,8.389-8.726c-2.844-0.193-7.762,0.771-9.016-2.844
	c-0.578-1.591,0.048-3.664,1.109-5.978c0.868-1.88,0.289-2.362-1.061-3.712c-1.013-1.012-1.398-2.362-1.061-3.616
	c0.675-2.459,3.133-2.314,4.339-4.001c0.337-0.482,0.482-1.254,0.578-2.748c0.193-2.507,1.253-5.303,4.05-5.785
	c2.603-0.434,4.58,0.964,6.605,1.88c2.941,1.35,6.509,2.073,9.69,2.025c1.832-0.048,3.567-0.434,5.544,0.241
	c1.736,0.579,2.941,1.88,3.23,3.712c0.289,2.266-1.446,4.58-1.061,6.412c0.289,1.254,1.687,2.218,2.169,3.423
	c0.868,2.218-0.385,4.05-2.314,5.062c-1.398,0.723-2.073,0.53-2.218,4.387c-0.145,4.821-2.7,6.46-6.653,5.255
	c-1.35-0.434-2.603-1.157-3.953-1.639c0.53,3.761,1.977,7.039,4.002,9.69c2.555,3.326,6.026,5.641,9.642,6.653
	c3.519,0.964,7.231,0.627,10.269-1.157c2.507-1.494,4.628-4.05,5.978-7.714c-0.338-0.048-0.627-0.096-0.916-0.145
	c-3.037-0.434-7.28-0.578-8.244-4.242c-0.53-2.025,0.434-4.194,1.977-5.496c1.254-1.012,2.555-2.314,2.7-4.05l0,0
	c0.048-0.868-0.048-1.591-0.096-2.266c-0.385-4.532,2.218-7.955,6.894-7.665c1.157,0.048,2.362,0.096,3.567-1.736l0,0
	c1.929-2.844,3.712-3.519,6.075-2.844c3.519,0.964,7.714,4.435,8.581,7.906c0.482,1.928-0.241,3.375-1.784,4.821
	c-3.905,3.712-5.978,6.075-7.183,8.581c-1.205,2.555-1.639,5.4-2.314,10.076l0,0c-0.241,1.494-0.578,2.892-1.012,4.194
	c-3.037,9.112-10.992,13.595-20.249,13.403c2.314,0.82,4.628,1.687,6.894,2.652c1.543,0.579,2.748,1.591,3.471,3.134
	c1.398,2.796,0.337,6.026-2.7,7.087c-1.109,0.385-2.314,0.482-3.423,0.241l-1.784,5.833c1.929,0.964,3.086,2.17,3.664,3.471
	c0.434,0.868,0.53,1.832,0.386,2.748h17.452v200.459c0,6.364-1.784,10.703-5.111,13.499c-3.278,2.748-7.906,3.857-13.692,3.857
	h-55.394c-3.182,0-6.412,1.013-9.064,2.844C203.758,323.582,202.552,326.909,200.576,330.669z"/>
<polygon fill="#FFFFFF" points="227.574,352.123 213.4,352.123 213.4,343.59 "/>
<polygon fill="#FFFFFF" points="173.578,352.123 187.752,352.123 187.752,343.59 "/>
<path fill="#ED1C24" d="M251.342,83.687c0.241,0.675,0.096,1.35-0.434,1.88c-1.977,1.784-7.907,0.145-8.726-2.362
	c-0.241-0.675-0.096-1.35,0.434-1.88C244.64,79.493,250.474,81.132,251.342,83.687z"/>
<polygon fill="#ED1C24" points="268.022,88.653 267.203,91.353 264.889,88.942 "/>
<path fill="#FEE000" d="M250.618,70.14c-6.701-1.784-13.499-3.182-20.345-4.194c4.098-1.205,7.762-3.471,10.799-6.412
	C243.049,63.969,246.617,67.537,250.618,70.14z"/>
<path fill="#FEE000" d="M253.752,82.337c4.05,1.205,8.099,2.555,12.053,4.05l-6.46,0.53l4.87,5.159
	c-4.05-1.543-8.148-2.893-12.245-4.146c0.385-0.193,0.675-0.434,0.964-0.675c1.205-1.109,1.639-2.7,1.109-4.243
	C253.993,82.771,253.897,82.53,253.752,82.337z"/>
<path fill="#FEE000" d="M228.393,82.627l6.026-2.314l-4.966-3.519c4.002,0.626,7.955,1.398,11.908,2.266
	c-0.289,0.193-0.53,0.386-0.771,0.579c-1.205,1.109-1.639,2.7-1.109,4.242c0.096,0.337,0.241,0.626,0.385,0.916
	C236.107,83.928,232.25,83.205,228.393,82.627z"/>
<path fill="#ED1C24" d="M149.81,83.687c-0.241,0.675-0.096,1.35,0.434,1.88c1.976,1.784,7.906,0.145,8.726-2.362
	c0.241-0.675,0.096-1.35-0.434-1.88C156.512,79.493,150.678,81.132,149.81,83.687z"/>
<polygon fill="#ED1C24" points="133.13,88.653 133.949,91.353 136.263,88.942 "/>
<path fill="#FEE000" d="M150.533,70.14c6.701-1.784,13.499-3.182,20.345-4.194c-4.098-1.205-7.762-3.471-10.799-6.412
	C158.103,63.969,154.535,67.537,150.533,70.14z"/>
<path fill="#FEE000" d="M147.4,82.337c-4.05,1.205-8.099,2.555-12.053,4.05l6.46,0.53l-4.869,5.159
	c4.05-1.543,8.148-2.893,12.246-4.146c-0.386-0.193-0.675-0.434-0.964-0.675c-1.205-1.109-1.639-2.7-1.109-4.243
	C147.159,82.771,147.255,82.53,147.4,82.337z"/>
<path fill="#FEE000" d="M172.759,82.627l-6.026-2.314l4.966-3.519c-4.001,0.626-7.955,1.398-11.908,2.266
	c0.289,0.193,0.53,0.386,0.771,0.579c1.205,1.109,1.639,2.7,1.109,4.242c-0.096,0.337-0.241,0.626-0.386,0.916
	C165.045,83.928,168.902,83.205,172.759,82.627z"/>
<path fill="#FEE000" d="M128.598,80.023c-0.916,0.337-1.591,0.868-2.073,1.832c-0.675,1.398-0.434,3.327,1.205,3.905
	c0.819,0.289,1.784,0.241,2.603-0.096c44.788-18.079,95.698-18.079,140.485,0c0.82,0.337,1.784,0.385,2.603,0.096
	c1.639-0.578,1.88-2.507,1.205-3.905c-0.482-0.964-1.157-1.494-2.073-1.832C226.61,61.559,174.542,61.559,128.598,80.023z"/>
<path fill="#FEE000" d="M200.576,55.243L200.576,55.243c-1.061,1.302-2.266,2.555-3.52,3.712c-2.218,2.025-4.676,3.712-7.279,5.014
	c7.231-0.385,14.366-0.385,21.598,0c-2.604-1.302-5.062-2.989-7.28-5.014C202.842,57.798,201.637,56.545,200.576,55.243
	L200.576,55.243z"/>
<path fill="#FEE000" d="M192.573,16.096c-2.652-0.579-4.242,0.386-3.761,3.857c0.145,1.109,0.193,1.977,0.145,2.7
	c-0.241,2.362-2.218,2.893-3.327,4.58c-0.385,0.53-0.385,1.205,0.048,1.687c0.819,1.012,2.121,1.302,2.892,2.555
	c0.53,0.964,0.627,1.977,0.241,3.616l0,0c-0.096,0.482-0.193,0.916-0.289,1.302c-0.241,1.398-0.289,2.507,0.145,3.182
	c0.771,1.302,4.194,0.096,5.544-0.145c1.591-0.289,3.182-0.386,4.773-0.53c-1.109,5.978-3.134,10.992-8.051,14.849
	c-6.171,4.821-14.752,5.64-21.743,2.169c-5.592-2.796-8.581-7.328-10.896-12.92c1.446-0.193,2.893-0.386,4.291-0.434
	c1.446-0.048,5.448,0.482,5.978-1.061c0.337-0.916-0.193-2.507-1.061-4.339c-1.35-2.844-0.482-4.194,1.543-6.219
	c0.964-0.964,0.338-1.88-0.675-2.555c-0.964-0.627-2.266-1.253-2.844-2.17c-0.675-0.916-0.916-2.025-1.061-3.905
	c-0.048-1.205-0.337-3.037-1.735-3.423c-1.591-0.434-3.23,0.868-4.628,1.494c-3.327,1.591-7.521,2.411-11.185,2.314
	c-1.446,0-3.085-0.386-4.435,0.096c-0.868,0.289-1.35,0.868-1.446,1.735c-0.337,2.266,1.495,4.243,0.964,6.605
	c-0.241,1.061-0.868,1.928-1.977,3.278l0,0c-0.145,0.193-0.241,0.337-0.289,0.482c-0.723,1.736,1.591,2.266,2.7,2.893
	c1.254,0.675,1.735,1.543,1.928,5.737c0.193,3.519,1.35,3.76,4.483,2.362c2.025-1.061,4.243-1.687,6.412-2.314
	c-0.241,5.448-1.302,10.172-4.676,14.608c-2.941,3.808-6.942,6.508-11.185,7.665c-4.339,1.157-8.871,0.771-12.631-1.494
	c-4.435-2.652-6.508-6.798-7.906-11.522c1.302-0.289,2.603-0.579,3.905-0.771c1.735-0.241,5.399-0.096,5.978-2.411
	c0.337-1.109-0.289-2.411-1.157-3.134c-1.784-1.446-3.423-3.326-3.567-5.689l0,0c-0.048-1.012,0-1.832,0.048-2.555
	c0.241-2.796-0.916-5.255-3.905-5.11c-6.894,0.386-5.159-5.737-9.449-4.387c-2.411,0.723-5.592,3.471-6.171,5.833
	c-0.241,0.964,0.193,1.784,1.109,2.652c4.194,3.953,6.364,6.46,7.714,9.305c1.35,2.796,1.784,5.785,2.507,10.703l0,0
	c0.241,1.35,0.53,2.603,0.916,3.809c3.809,11.329,15.572,13.547,25.6,10.172c8.533-2.844,13.788-8.244,16.536-16.777
	c2.314,2.507,4.676,4.773,7.28,6.509c9.497,6.219,20.827,3.568,28.83-3.712c2.17-1.977,3.857-4.194,5.544-6.509
	c1.687,2.314,3.375,4.532,5.544,6.509c8.003,7.28,19.332,9.931,28.83,3.712c2.603-1.735,4.966-4.002,7.28-6.509
	c2.748,8.533,8.003,13.933,16.536,16.777c10.028,3.375,21.791,1.157,25.6-10.172c0.386-1.205,0.675-2.459,0.916-3.809l0,0
	c0.723-4.918,1.157-7.907,2.507-10.703c1.35-2.844,3.519-5.352,7.713-9.305c0.916-0.868,1.35-1.687,1.109-2.652
	c-0.579-2.362-3.761-5.11-6.171-5.833c-4.291-1.35-2.555,4.773-9.449,4.387c-2.989-0.145-4.146,2.314-3.905,5.11
	c0.048,0.723,0.096,1.543,0.048,2.555l0,0c-0.145,2.362-1.784,4.242-3.568,5.689c-0.868,0.723-1.494,2.025-1.157,3.134
	c0.579,2.314,4.242,2.169,5.978,2.411c1.302,0.193,2.603,0.482,3.905,0.771c-1.398,4.725-3.471,8.871-7.907,11.522
	c-3.761,2.266-8.292,2.651-12.631,1.494c-4.242-1.157-8.244-3.857-11.185-7.665c-3.375-4.435-4.435-9.16-4.677-14.608
	c2.17,0.627,4.387,1.253,6.412,2.314c3.134,1.398,4.291,1.157,4.483-2.362c0.193-4.194,0.675-5.062,1.929-5.737
	c1.109-0.627,3.423-1.157,2.7-2.893c-0.048-0.144-0.145-0.289-0.289-0.482l0,0c-1.109-1.35-1.735-2.218-1.976-3.278
	c-0.53-2.362,1.302-4.339,0.964-6.605c-0.096-0.868-0.579-1.446-1.446-1.735c-1.35-0.482-2.989-0.096-4.435-0.096
	c-3.664,0.096-7.858-0.723-11.185-2.314c-1.398-0.627-3.037-1.928-4.628-1.494c-1.398,0.386-1.687,2.218-1.736,3.423
	c-0.144,1.88-0.386,2.989-1.061,3.905c-0.578,0.916-1.88,1.543-2.844,2.17c-1.012,0.675-1.639,1.591-0.675,2.555
	c2.025,2.025,2.892,3.375,1.543,6.219c-0.868,1.832-1.398,3.423-1.061,4.339c0.53,1.543,4.532,1.012,5.978,1.061
	c1.398,0.048,2.844,0.241,4.291,0.434c-2.314,5.592-5.303,10.124-10.896,12.92c-6.991,3.471-15.572,2.652-21.743-2.169
	c-4.918-3.857-6.942-8.871-8.051-14.849c1.591,0.145,3.182,0.241,4.773,0.53c1.35,0.241,4.773,1.446,5.544,0.145
	c0.434-0.675,0.386-1.784,0.145-3.182c-0.096-0.386-0.193-0.82-0.289-1.302l0,0c-0.386-1.639-0.289-2.652,0.241-3.616
	c0.772-1.254,2.073-1.543,2.893-2.555c0.434-0.482,0.434-1.157,0.048-1.687c-1.109-1.687-3.085-2.218-3.327-4.58
	c-0.048-0.723,0-1.591,0.145-2.7c0.482-3.471-1.109-4.435-3.761-3.857C202.36,17.542,198.792,17.542,192.573,16.096z"/>
<polygon fill="#ED1C24" points="176.471,76.552 172.035,79.686 176.808,81.518 181.195,78.48 "/>
<polygon fill="#ED1C24" points="224.681,76.552 229.117,79.686 224.344,81.518 219.957,78.48 "/>
<path fill="#FEE000" d="M200.576,324.402c1.302-2.314,3.182-4.243,5.351-5.737c3.134-2.121,6.894-3.375,10.655-3.375h55.394
	c5.11,0,9.16-0.916,11.86-3.182c2.7-2.218,4.098-5.833,4.098-11.329V103.164H113.219v197.615c0,5.496,1.398,9.112,4.098,11.329
	c2.7,2.266,6.75,3.182,11.86,3.182h55.394c3.761,0,7.521,1.254,10.655,3.375C197.394,320.159,199.274,322.088,200.576,324.402z"/>
<path d="M200.576,313.554c4.532-3.519,10.22-5.544,16.006-5.544h55.394c6.123,0,8.678-0.675,8.678-7.231V153.303H120.498v147.476
	c0,6.557,2.555,7.231,8.678,7.231h55.394C190.355,308.01,196.044,310.035,200.576,313.554z"/>
<rect x="120.498" y="110.492" width="160.155" height="35.483"/>
<polygon fill="#FFFFFF" points="152.558,305.166 184.57,305.166 184.57,305.166 184.57,281.398 152.558,281.398 "/>
<polygon fill="#FFFFFF" points="216.582,305.166 216.582,305.166 248.594,305.166 248.594,281.398 216.582,281.398 "/>
<rect x="123.343" y="249.338" fill="#FFFFFF" width="29.215" height="32.06"/>
<rect x="184.57" y="249.338" fill="#FFFFFF" width="32.012" height="32.06"/>
<rect x="248.594" y="249.338" fill="#FFFFFF" width="29.215" height="32.06"/>
<rect x="152.558" y="217.327" fill="#FFFFFF" width="32.012" height="32.012"/>
<rect x="216.582" y="217.327" fill="#FFFFFF" width="32.012" height="32.012"/>
<rect x="123.343" y="185.315" fill="#FFFFFF" width="29.215" height="32.012"/>
<rect x="184.57" y="185.315" fill="#FFFFFF" width="32.012" height="32.012"/>
<rect x="248.594" y="185.315" fill="#FFFFFF" width="29.215" height="32.012"/>
<rect x="152.558" y="156.099" fill="#FFFFFF" width="32.012" height="29.215"/>
<rect x="216.582" y="156.099" fill="#FFFFFF" width="32.012" height="29.215"/>
<path fill="#FEE000" d="M232.588,116.47h28.782v4.435h-24.395c-0.482,0-0.868,0.385-0.868,0.868v12.969
	c0,0.434,0.385,0.819,0.868,0.819h24.395v4.435h-28.782c-3.085,0-5.592-2.507-5.592-5.592v-12.342
	C226.995,119.025,229.502,116.47,232.588,116.47z"/>
<polygon fill="#FEE000" points="181.533,116.47 215.473,116.47 215.473,120.664 190.645,120.664 190.645,125.968 211.472,125.968 
	211.472,129.343 190.645,129.343 190.645,139.997 181.533,139.997 "/>
<rect x="212.387" y="135.947" fill="#FEE000" width="4.05" height="4.05"/>
<rect x="265.275" y="135.947" fill="#FEE000" width="4.098" height="4.05"/>
<rect x="170.589" y="135.947" fill="#FEE000" width="4.05" height="4.05"/>
<path fill="#FEE000" d="M131.78,116.47h27.094c3.23,0,7.087,1.591,6.99,5.351c-0.048,2.989-2.266,4.724-5.11,4.821
	c3.568,0.675,4.966,2.507,5.159,5.978c0.289,4.628-2.17,7.28-7.039,7.376H140.94l0,0h-9.16V116.47L131.78,116.47z M140.94,120.134
	v5.834h13.595c3.519,0,3.423-5.448,0.048-5.834H140.94L140.94,120.134z M154.053,129.343H140.94v6.991h13.161
	c2.025,0,3.037-1.687,2.892-3.616C156.897,131.174,155.74,129.343,154.053,129.343z"/>
<path d="M182.449,374.444h3.519v-16.392h-2.507c-0.386,2.025-2.652,2.555-4.435,2.555v2.555h3.423V374.444z"/>
<path d="M193.489,360.511c1.543,0,1.302,2.025,1.302,3.085c0,0.916,0.096,2.507-1.253,2.507c-1.398,0-1.302-1.591-1.302-2.603
	C192.236,362.585,192.139,360.511,193.489,360.511L193.489,360.511z M188.764,370.539c0.096,3.375,1.88,4.339,5.062,4.339
	c4.194,0,4.676-3.375,4.676-6.846v-4.435c0-3.326-1.109-5.882-4.869-5.882c-4.146,0-5.159,2.41-5.159,6.171
	c0,2.507,0.675,5.014,3.712,5.014c1.157,0,1.687-0.145,2.555-0.819v1.109c0,0.964,0.193,2.893-1.205,2.893
	c-0.482,0-0.82-0.193-1.013-0.434c-0.145-0.289-0.193-0.675-0.241-1.109H188.764z"/>
<path d="M206.699,369.961c0,0.579,0.048,2.073-1.205,2.122c-1.253,0-1.253-1.109-1.253-2.122v-7.521
	c0-0.916,0.048-1.928,1.253-1.928c1.35,0,1.205,1.687,1.205,1.928V369.961L206.699,369.961z M200.576,370.25
	c0,3.23,1.735,4.628,4.869,4.628c3.809,0,4.966-1.784,4.966-5.448v-6.026c0.096-3.76-0.916-5.689-4.918-5.689
	c-3.182,0-4.917,1.398-4.917,4.724V370.25z"/>
<path d="M215.184,367.261c0.723,0.096,1.687-0.096,2.362,0.337c0.723,0.434,0.868,1.591,0.868,2.314c0,0.964-0.193,2.17-1.398,2.17
	c-1.543,0-1.35-1.88-1.398-2.989h-3.519v1.109c0.193,2.989,1.784,4.676,4.869,4.676c3.23,0,5.158-1.591,5.158-4.966
	c0-1.784-0.578-3.616-2.652-4.098v-0.048c1.591-0.771,2.266-1.977,2.266-3.761c0-3.037-1.928-4.291-4.773-4.291
	c-2.363,0-4.773,1.543-4.869,4.05v1.205h3.567c0.048-0.868-0.096-2.41,1.205-2.41c1.061,0,1.302,0.771,1.302,1.687
	c0,0.627-0.193,1.543-0.723,1.88c-0.627,0.482-1.543,0.434-2.266,0.482V367.261z"/>
<path fill="#ED1C24" d="M196.141,76.455c-0.434,0.627-0.434,1.302-0.048,1.929c1.398,2.266,7.473,2.41,8.967,0.193
	c0.386-0.627,0.386-1.35,0-1.976C203.613,74.286,197.635,74.19,196.141,76.455z"/>
<path d="M111.483,38.128c2.121-2.844,4.773-1.254,4.773,1.928c0,0.193,0,0.337,0,0.53v0.048c0.096,1.302,0.434,2.459,1.254,3.519
	l0,0c0.048,0.096,0.145,0.241,0.289,0.337c1.832,2.073,1.446,4.869-1.929,4.773c-2.121-0.096-4.387,1.495-6.46,0.386
	c-1.735-0.916-2.7-3.23-2.652-5.11c0.048-2.073,1.157-3.182,2.652-4.435C110.133,39.526,110.856,38.9,111.483,38.128z"/>
<path d="M197.683,34.368c-2.989,1.013-4.821-1.157-3.471-3.905c0.723-1.543,0.723-3.086,0-4.628
	c-1.398-2.844,0.482-4.917,3.471-3.905c1.784,0.627,4.001,0.627,5.785,0c2.989-1.012,4.869,1.061,3.471,3.905
	c-0.723,1.543-0.723,3.086,0,4.628c1.35,2.748-0.482,4.917-3.471,3.905C201.781,33.789,199.371,33.789,197.683,34.368z"/>
<path d="M153.137,39.43c-2.748,1.591-4.966-0.241-4.146-3.182c0.434-1.639,0.145-3.182-0.868-4.532
	c-1.88-2.507-0.482-4.917,2.7-4.483c1.88,0.241,4.05-0.145,5.689-1.109c2.796-1.543,5.014,0.145,4.194,3.182
	c-0.482,1.639-0.193,3.182,0.868,4.532c1.832,2.459,0.434,4.966-2.748,4.484C157.09,38.08,154.68,38.562,153.137,39.43z"/>
<path fill="#ED1C24" d="M150.919,29.74c-1.302-0.096-0.337,0.579,0,1.205c0.964,1.591,1.254,3.182,0.964,5.014
	c-0.145,0.819-0.675,1.591,0.53,1.061c1.88-0.868,4.194-1.302,6.219-1.205c1.35,0.048,0.53-0.482,0.096-1.157
	c-0.916-1.591-1.254-3.23-0.964-5.062c0.145-0.675,0.771-1.639-0.386-1.109C155.451,29.402,152.992,29.884,150.919,29.74z"/>
<path fill="#ED1C24" d="M111.339,41.889c-1.495,1.205-2.17,2.025-1.543,4.098c0.868,2.941,2.844,1.157,5.255,1.013
	c0.819-0.096,1.254-0.241,0.53-1.013c-1.35-1.494-2.025-3.278-2.17-5.255v0.048c0,0,0,0,0-0.048
	c-0.048-0.819-0.385-0.579-0.868-0.096C112.206,41.021,111.772,41.551,111.339,41.889z"/>
<path fill="#ED1C24" d="M197.298,24.437c-1.254-0.338-0.434,0.482-0.193,1.157c0.627,1.736,0.627,3.375,0,5.11
	c-0.289,0.771-0.964,1.446,0.337,1.109c1.977-0.434,4.291-0.434,6.267,0c1.302,0.337,0.627-0.337,0.337-1.109
	c-0.626-1.736-0.626-3.375,0-5.11c0.241-0.675,1.061-1.495-0.193-1.157C201.781,24.919,199.323,24.919,197.298,24.437z"/>
<path fill="#FEE000" d="M206.843,80.553c4.339,0.145,8.63,0.482,12.969,0.916l-5.159-3.568l5.785-2.314
	c-4.532-0.482-9.016-0.82-13.547-0.964c0.241,0.241,0.482,0.53,0.675,0.82c0.82,1.398,0.82,3.037-0.096,4.387
	C207.277,80.071,207.084,80.312,206.843,80.553z"/>
<path fill="#FEE000" d="M180.713,75.588l5.785,2.314l-5.158,3.568c4.339-0.434,8.726-0.771,13.113-0.916
	c-0.338-0.289-0.627-0.627-0.868-0.964c-0.868-1.398-0.819-3.037,0.096-4.387c0.145-0.193,0.289-0.386,0.482-0.579
	C189.681,74.816,185.197,75.106,180.713,75.588z"/>
<path d="M289.669,38.128c-2.121-2.844-4.773-1.254-4.773,1.928c0,0.193,0,0.337,0,0.53v0.048c-0.096,1.302-0.434,2.459-1.254,3.519
	l0,0c-0.048,0.096-0.145,0.241-0.289,0.337c-1.832,2.073-1.446,4.869,1.928,4.773c2.121-0.096,4.387,1.495,6.46,0.386
	c1.735-0.916,2.7-3.23,2.652-5.11c-0.048-2.073-1.157-3.182-2.652-4.435C291.019,39.526,290.296,38.9,289.669,38.128z"/>
<path d="M248.015,39.43c2.748,1.591,4.966-0.241,4.146-3.182c-0.434-1.639-0.145-3.182,0.868-4.532
	c1.88-2.507,0.482-4.917-2.7-4.483c-1.88,0.241-4.05-0.145-5.689-1.109c-2.796-1.543-5.014,0.145-4.194,3.182
	c0.482,1.639,0.193,3.182-0.868,4.532c-1.832,2.459-0.434,4.966,2.748,4.484C244.062,38.08,246.472,38.562,248.015,39.43z"/>
<path fill="#ED1C24" d="M250.233,29.74c1.302-0.096,0.338,0.579,0,1.205c-0.964,1.591-1.253,3.182-0.964,5.014
	c0.145,0.819,0.675,1.591-0.53,1.061c-1.88-0.868-4.194-1.302-6.219-1.205c-1.35,0.048-0.53-0.482-0.096-1.157
	c0.916-1.591,1.253-3.23,0.964-5.062c-0.145-0.675-0.772-1.639,0.385-1.109C245.701,29.402,248.16,29.884,250.233,29.74z"/>
<path fill="#ED1C24" d="M289.814,41.889c1.495,1.205,2.169,2.025,1.543,4.098c-0.868,2.941-2.844,1.157-5.255,1.013
	c-0.82-0.096-1.254-0.241-0.53-1.013c1.35-1.494,2.025-3.278,2.169-5.255v0.048c0,0,0,0,0-0.048
	c0.048-0.819,0.386-0.579,0.868-0.096C288.946,41.021,289.38,41.551,289.814,41.889z"/>
<path fill="#ED1C24" d="M198.696,92.654v6.46c0,1.735-2.844,1.735-2.844,0v-6.46C195.851,90.919,198.696,90.919,198.696,92.654
	L198.696,92.654z M192.043,92.895v6.219c0,1.735-2.796,1.735-2.796,0v-6.219C189.247,91.16,192.043,91.16,192.043,92.895
	L192.043,92.895z M185.438,93.377v5.785c0,1.687-2.844,1.687-2.844,0v-5.785C182.594,91.69,185.438,91.69,185.438,93.377
	L185.438,93.377z M178.785,94.197v4.966c0,1.687-2.796,1.687-2.796,0v-4.966C175.989,92.51,178.785,92.51,178.785,94.197
	L178.785,94.197z M172.132,95.21v4.002c0,1.639-2.796,1.639-2.796,0V95.21C169.336,93.57,172.132,93.57,172.132,95.21L172.132,95.21
	z M165.527,96.511v2.748c0,1.543-2.844,1.543-2.844,0v-2.748C162.683,94.968,165.527,94.968,165.527,96.511L165.527,96.511z
	 M158.874,98.006v1.35c0,1.446-2.796,1.446-2.796,0v-1.35C156.078,96.608,158.874,96.608,158.874,98.006L158.874,98.006z
	 M150.823,98.729c0.964,0,1.446,0.386,1.446,0.771c0.048,0.434-0.434,0.868-1.446,0.82c-0.964,0-1.446-0.386-1.446-0.771
	C149.376,99.115,149.859,98.729,150.823,98.729L150.823,98.729z M202.456,92.654v6.46c0,1.735,2.844,1.735,2.844,0v-6.46
	C205.3,90.919,202.456,90.919,202.456,92.654L202.456,92.654z M209.109,92.895v6.219c0,1.735,2.796,1.735,2.796,0v-6.219
	C211.905,91.16,209.109,91.16,209.109,92.895L209.109,92.895z M215.714,93.377v5.785c0,1.687,2.844,1.687,2.844,0v-5.785
	C218.559,91.69,215.714,91.69,215.714,93.377L215.714,93.377z M222.367,94.197v4.966c0,1.687,2.796,1.687,2.796,0v-4.966
	C225.163,92.51,222.367,92.51,222.367,94.197L222.367,94.197z M229.02,95.21v4.002c0,1.639,2.796,1.639,2.796,0V95.21
	C231.816,93.57,229.02,93.57,229.02,95.21L229.02,95.21z M235.625,96.511v2.748c0,1.543,2.844,1.543,2.844,0v-2.748
	C238.469,94.968,235.625,94.968,235.625,96.511L235.625,96.511z M242.278,98.006v1.35c0,1.446,2.796,1.446,2.796,0v-1.35
	C245.074,96.608,242.278,96.608,242.278,98.006L242.278,98.006z M250.329,98.729c-0.964,0-1.446,0.386-1.446,0.771
	c-0.048,0.434,0.434,0.868,1.446,0.82c0.964,0,1.446-0.386,1.446-0.771C251.775,99.115,251.293,98.729,250.329,98.729z"/>
<path fill="#FEE000" d="M134.576,95.691c-1.494,0.579-3.085,1.302-3.76,2.844c-0.289,0.579-0.289,1.205-0.145,1.784h8.148
	c39.533-15.283,83.983-15.283,123.515,0h8.148c0.145-0.578,0.145-1.205-0.145-1.784c-0.675-1.543-2.266-2.266-3.76-2.844
	C224.488,78.673,176.663,78.673,134.576,95.691z"/>
<path fill="#008C3E" d="M75.856,144.625c5.255-2.603,10.751-6.605,13.981-11.522c1.639-2.459,3.327-5.689,3.037-8.678
	c-0.386-4.002-4.146-4.483-7.231-2.941c-1.929,0.916-3.857,2.7-5.544,5.351C76.916,131.946,76.145,138.695,75.856,144.625z"/>
<path fill="#008C3E" d="M82.316,344.361c-7.039-3.905-15.234-6.508-23.286-4.628c-1.784,0.385-3.375,1.253-4.387,2.314
	c-1.976,2.073-1.205,4.87,1.205,6.171c1.832,1.012,4.291,1.205,6.315,1.109C68.479,348.941,76.675,347.543,82.316,344.361z"/>
<path fill="#008C3E" d="M87.33,341.42c7.183-3.809,12.775-9.883,16.054-17.356c0.772-1.735,1.013-3.567,0.723-5.11
	c-0.627-3.085-3.568-4.146-6.267-2.796c-1.977,0.964-3.664,2.941-4.725,4.724C89.547,326.764,87.764,334.622,87.33,341.42z"/>
<path fill="#008C3E" d="M74.554,321.316c6.508-5.255,11.136-11.811,13.113-20.007c0.482-1.977,0.434-3.905-0.096-5.448
	c-1.061-3.086-4.098-3.616-6.605-1.687c-1.784,1.398-3.133,3.76-3.953,5.881C74.554,306.564,73.927,314.374,74.554,321.316z"/>
<path fill="#008C3E" d="M70.07,323.775c-5.255-6.509-12.824-13.017-21.743-12.583c-1.832,0.096-3.616,0.627-4.917,1.446
	c-1.639,1.061-2.218,2.844-1.35,4.628c0.916,1.88,3.327,3.375,6.412,4.483C54.546,323.968,63.658,325.028,70.07,323.775z"/>
<path fill="#008C3E" d="M56.764,287.955c-2.169-4.194-4.966-8.34-8.437-11.619c-3.085-2.892-6.701-5.062-10.799-5.737
	c-1.88-0.338-3.712-0.241-5.159,0.337c-1.88,0.675-2.748,2.218-2.266,4.194c0.53,2.217,2.893,4.387,5.978,6.267
	c3.326,1.976,7.473,3.664,11.378,4.821C51.124,287.28,54.498,287.906,56.764,287.955z"/>
<path fill="#008C3E" d="M62.164,287.328c2.603-0.579,6.557-2.218,10.462-4.387c3.23-1.784,6.364-3.953,8.678-6.219
	c2.025-2.025,4.869-5.448,3.182-8.485c-1.446-2.555-5.544-2.314-7.859-1.302c-3.953,1.687-7.039,4.966-9.449,8.919
	C65.057,279.325,63.417,283.327,62.164,287.328z"/>
<path fill="#008C3E" d="M51.22,252.52c-1.639-4.339-3.857-8.678-6.75-12.149c-2.603-3.134-5.737-5.544-9.449-6.605
	c-1.687-0.482-3.375-0.53-4.725-0.096c-1.928,0.579-2.748,2.17-2.41,4.098c0.386,2.459,2.7,4.966,5.833,7.232
	c3.278,2.362,7.376,4.387,11.04,5.737C47.315,251.701,49.581,252.279,51.22,252.52z"/>
<path fill="#008C3E" d="M56.668,252.665c1.929-0.289,4.677-1.109,7.569-2.314c3.471-1.446,7.087-3.423,9.979-5.689
	c2.7-2.121,4.628-4.483,4.918-6.749c0.289-2.073-0.868-3.761-2.892-4.387c-1.302-0.434-2.941-0.434-4.435,0.145
	c-3.809,1.302-6.942,4.243-9.498,7.955C60.042,244.903,58.211,248.808,56.668,252.665z"/>
<path fill="#008C3E" d="M56.282,220.364c1.494-0.338,3.326-1.013,5.351-1.88c3.953-1.687,8.437-4.242,12.005-7.087
	c3.375-2.748,5.833-5.737,6.026-8.485c0.096-2.073-1.109-3.664-3.182-4.194c-1.35-0.337-2.941-0.193-4.484,0.578
	C64.767,202.96,59.994,212.698,56.282,220.364z"/>
<path fill="#008C3E" d="M52.281,220.701c-0.193-4.243-0.723-8.823-1.88-13.065c-1.35-4.725-3.568-9.064-7.231-11.763
	c-1.398-1.109-3.086-1.784-4.58-1.88c-2.169-0.145-3.23,1.109-3.519,3.134c-0.386,3.278,1.784,7.665,4.821,11.811
	c3.182,4.291,7.231,8.244,10.462,10.558C51.076,219.978,51.702,220.412,52.281,220.701z"/>
<path fill="#008C3E" d="M57.246,182.277c0.82-4.291,1.398-9.015,1.254-13.499c-0.241-5.062-1.398-9.835-4.339-13.499
	c-1.254-1.543-4.966-4.435-7.039-2.604c-0.627,0.53-1.061,1.205-1.35,1.977c-1.205,3.182-0.096,8.1,1.928,12.92
	c2.121,5.014,5.207,9.883,7.906,12.969C56.186,181.217,56.764,181.796,57.246,182.277z"/>
<path fill="#008C3E" d="M61.682,183.917c0.434,0.048,0.916,0,1.495,0c3.761-0.193,9.401-1.494,14.56-3.664
	c4.966-2.073,9.401-4.917,10.799-8.196c0.771-1.687,0.82-3.375-1.013-4.291c-1.302-0.675-3.182-0.964-5.11-0.916
	c-4.387,0.096-8.196,1.977-11.522,4.821C67.129,174.853,64.044,179.337,61.682,183.917z"/>
<path fill="#008C3E" d="M325.296,144.625c-5.255-2.603-10.751-6.605-13.981-11.522c-1.639-2.459-3.326-5.689-3.037-8.678
	c0.386-4.002,4.146-4.483,7.232-2.941c1.928,0.916,3.857,2.7,5.544,5.351C324.236,131.946,325.007,138.695,325.296,144.625z"/>
<path fill="#008C3E" d="M318.836,344.361c7.039-3.905,15.234-6.508,23.286-4.628c1.784,0.385,3.375,1.253,4.387,2.314
	c1.977,2.073,1.205,4.87-1.205,6.171c-1.832,1.012-4.291,1.205-6.315,1.109C332.673,348.941,324.477,347.543,318.836,344.361z"/>
<path fill="#008C3E" d="M313.822,341.42c-7.183-3.809-12.776-9.883-16.054-17.356c-0.771-1.735-1.013-3.567-0.723-5.11
	c0.627-3.085,3.568-4.146,6.267-2.796c1.977,0.964,3.664,2.941,4.725,4.724C311.605,326.764,313.389,334.622,313.822,341.42z"/>
<path fill="#008C3E" d="M326.598,321.316c-6.509-5.255-11.137-11.811-13.113-20.007c-0.482-1.977-0.434-3.905,0.096-5.448
	c1.061-3.086,4.098-3.616,6.605-1.687c1.784,1.398,3.134,3.76,3.953,5.881C326.598,306.564,327.225,314.374,326.598,321.316z"/>
<path fill="#008C3E" d="M331.082,323.775c5.255-6.509,12.824-13.017,21.743-12.583c1.832,0.096,3.616,0.627,4.917,1.446
	c1.639,1.061,2.218,2.844,1.35,4.628c-0.916,1.88-3.327,3.375-6.412,4.483C346.605,323.968,337.494,325.028,331.082,323.775z"/>
<path fill="#008C3E" d="M344.388,287.955c2.169-4.194,4.966-8.34,8.437-11.619c3.085-2.892,6.701-5.062,10.799-5.737
	c1.88-0.338,3.712-0.241,5.159,0.337c1.88,0.675,2.748,2.218,2.266,4.194c-0.53,2.217-2.893,4.387-5.978,6.267
	c-3.327,1.976-7.473,3.664-11.378,4.821C350.028,287.28,346.653,287.906,344.388,287.955z"/>
<path fill="#008C3E" d="M338.988,287.328c-2.603-0.579-6.557-2.218-10.462-4.387c-3.23-1.784-6.364-3.953-8.678-6.219
	c-2.025-2.025-4.869-5.448-3.182-8.485c1.446-2.555,5.544-2.314,7.858-1.302c3.953,1.687,7.039,4.966,9.449,8.919
	C336.095,279.325,337.735,283.327,338.988,287.328z"/>
<path fill="#008C3E" d="M349.932,252.52c1.639-4.339,3.857-8.678,6.75-12.149c2.604-3.134,5.737-5.544,9.449-6.605
	c1.687-0.482,3.375-0.53,4.724-0.096c1.928,0.579,2.748,2.17,2.411,4.098c-0.386,2.459-2.7,4.966-5.833,7.232
	c-3.278,2.362-7.376,4.387-11.04,5.737C353.837,251.701,351.571,252.279,349.932,252.52z"/>
<path fill="#008C3E" d="M344.484,252.665c-1.928-0.289-4.676-1.109-7.569-2.314c-3.471-1.446-7.087-3.423-9.979-5.689
	c-2.7-2.121-4.628-4.483-4.918-6.749c-0.289-2.073,0.868-3.761,2.893-4.387c1.302-0.434,2.941-0.434,4.435,0.145
	c3.809,1.302,6.942,4.243,9.497,7.955C341.109,244.903,342.941,248.808,344.484,252.665z"/>
<path fill="#008C3E" d="M344.87,220.364c-1.495-0.338-3.326-1.013-5.351-1.88c-3.953-1.687-8.437-4.242-12.005-7.087
	c-3.375-2.748-5.833-5.737-6.026-8.485c-0.096-2.073,1.109-3.664,3.182-4.194c1.35-0.337,2.941-0.193,4.484,0.578
	C336.385,202.96,341.157,212.698,344.87,220.364z"/>
<path fill="#008C3E" d="M348.871,220.701c0.193-4.243,0.723-8.823,1.88-13.065c1.35-4.725,3.568-9.064,7.232-11.763
	c1.398-1.109,3.085-1.784,4.58-1.88c2.169-0.145,3.23,1.109,3.519,3.134c0.386,3.278-1.784,7.665-4.821,11.811
	c-3.182,4.291-7.231,8.244-10.462,10.558C350.077,219.978,349.45,220.412,348.871,220.701z"/>
<path fill="#008C3E" d="M343.905,182.277c-0.819-4.291-1.398-9.015-1.253-13.499c0.241-5.062,1.398-9.835,4.339-13.499
	c1.253-1.543,4.966-4.435,7.039-2.604c0.627,0.53,1.061,1.205,1.35,1.977c1.205,3.182,0.096,8.1-1.928,12.92
	c-2.122,5.014-5.207,9.883-7.907,12.969C344.966,181.217,344.388,181.796,343.905,182.277z"/>
<path fill="#008C3E" d="M339.47,183.917c-0.434,0.048-0.916,0-1.494,0c-3.76-0.193-9.401-1.494-14.559-3.664
	c-4.966-2.073-9.401-4.917-10.799-8.196c-0.771-1.687-0.819-3.375,1.013-4.291c1.302-0.675,3.182-0.964,5.11-0.916
	c4.387,0.096,8.196,1.977,11.522,4.821C334.023,174.853,337.108,179.337,339.47,183.917z"/>
</svg>
