<?xml version="1.0" encoding="utf-8"?>
<!-- Generator: Adobe Illustrator 19.1.0, SVG Export Plug-In . SVG Version: 6.00 Build 0)  -->
<svg version="1.1" id="Layer_1" xmlns="http://www.w3.org/2000/svg" xmlns:xlink="http://www.w3.org/1999/xlink" x="0px" y="0px"
	 viewBox="0 0 400 400" enable-background="new 0 0 400 400" xml:space="preserve">
<rect x="59.155" y="58.579" transform="matrix(-0.7071 0.7071 -0.7071 -0.7071 483.8261 199.5928)" fill="#FFFFFF" width="282.843" height="282.843"/>
<rect x="68.35" y="67.775" transform="matrix(-0.7071 0.7071 -0.7071 -0.7071 483.8259 199.5931)" width="264.451" height="264.451"/>
<rect x="74.457" y="73.881" transform="matrix(-0.7071 0.7071 -0.7071 -0.7071 483.8261 199.5928)" fill="#FFFFFF" width="252.238" height="252.238"/>
<path d="M285.107,280.874l-84.531,84.582L44.315,209.144h147.727l43.333,43.434V200c-9.906-0.102-9.906-15.037,0-15.139v-11.481
	c-9.754-0.102-9.906-14.63-0.407-15.139c-1.016-2.083-0.711-4.674,0.965-6.401c0.965-1.016,2.286-1.626,3.759-1.626
	c1.473,0,2.794,0.61,3.759,1.626l0.051,0.051l0.051-0.051c0.965-1.016,2.286-1.626,3.759-1.626c1.473,0,2.794,0.61,3.759,1.626
	l0.051,0.051l0.051-0.051c0.965-1.016,2.286-1.626,3.759-1.626c1.016,0,1.981,0.305,2.794,0.813v-26.061c0-3.404,5.08-3.404,5.08,0
	v26.061c0.813-0.508,1.727-0.813,2.743-0.813c1.473,0,2.794,0.61,3.759,1.626c0.051,0,0.051,0.051,0.051,0.051
	c0.051,0,0.051-0.051,0.051-0.051c0.965-1.016,2.286-1.626,3.759-1.626c1.473,0,2.794,0.61,3.759,1.626
	c0.051,0,0.051,0.051,0.051,0.051c0.051,0,0.051-0.051,0.051-0.051c0.965-1.016,2.337-1.626,3.759-1.626
	c1.473,0,2.845,0.61,3.81,1.626c1.625,1.727,1.981,4.318,0.965,6.401c9.449,0.508,9.296,15.037-0.457,15.139v11.481
	c9.906,0.102,9.906,15.037,0,15.139v9.144V280.874L285.107,280.874z M264.787,205.842c0-6.147-9.093-6.147-9.093,0v20.625
	c0,6.197,9.093,6.197,9.093,0V205.842z"/>
<path d="M35.12,200L196.004,39.167V200h-15.24v-57.404h-66.65L56.659,200H35.12L35.12,200z M180.764,127.356V75.997l-51.41,51.359
	H180.764z"/>
<polygon points="123.766,166.015 104.056,185.725 171.62,185.725 171.62,200 69.563,200 117.873,151.74 171.62,151.74 
	171.62,166.066 "/>
<path fill="#FFFFFF" d="M260.266,171.959c3.912,0,7.112,3.251,7.112,7.163c0,3.912-3.2,7.163-7.112,7.163
	c-3.962,0-7.163-3.251-7.163-7.163C253.103,175.21,256.304,171.959,260.266,171.959z"/>
<polygon points="366.032,200 205.148,39.167 205.148,200 220.388,200 220.388,142.596 252.443,142.596 252.443,127.356 
	220.388,127.356 220.388,75.997 271.798,127.356 267.683,127.356 267.683,142.596 287.038,142.596 344.493,200 "/>
<path fill="#FFFFFF" d="M254.932,153.264c-0.61,0-1.219,0.254-1.626,0.711c-0.914,0.965-0.914,2.54,0,3.505
	c0.407,0.457,1.016,0.711,1.626,0.711c0.66,0,1.219-0.254,1.625-0.711c0.914-0.965,0.914-2.54,0-3.505
	C256.151,153.518,255.592,153.264,254.932,153.264z"/>
<path fill="#FFFFFF" d="M247.312,153.264c-0.609,0-1.219,0.254-1.625,0.711c-0.915,0.965-0.915,2.54,0,3.505
	c0.406,0.457,1.016,0.711,1.625,0.711c0.61,0,1.219-0.254,1.626-0.711c0.914-0.965,0.914-2.54,0-3.505
	C248.531,153.518,247.922,153.264,247.312,153.264z"/>
<path fill="#FFFFFF" d="M239.692,153.264c-0.66,0-1.219,0.254-1.626,0.711c-0.914,0.965-0.914,2.54,0,3.505
	c0.407,0.457,0.965,0.711,1.626,0.711c0.609,0,1.219-0.254,1.625-0.711c0.915-0.965,0.915-2.54,0-3.505
	C240.911,153.518,240.302,153.264,239.692,153.264z"/>
<path fill="#FFFFFF" d="M265.549,153.264c0.66,0,1.219,0.254,1.625,0.711c0.915,0.965,0.915,2.54,0,3.505
	c-0.406,0.457-0.965,0.711-1.625,0.711c-0.61,0-1.219-0.254-1.626-0.711c-0.914-0.965-0.914-2.54,0-3.505
	C264.33,153.518,264.94,153.264,265.549,153.264z"/>
<path fill="#FFFFFF" d="M273.169,153.264c0.66,0,1.219,0.254,1.626,0.711c0.914,0.965,0.914,2.54,0,3.505
	c-0.407,0.457-0.965,0.711-1.626,0.711c-0.609,0-1.168-0.254-1.625-0.711c-0.915-0.965-0.915-2.54,0-3.505
	C272.001,153.518,272.56,153.264,273.169,153.264z"/>
<path fill="#FFFFFF" d="M280.79,153.264c0.66,0,1.219,0.254,1.625,0.711c0.914,0.965,0.965,2.54,0,3.505
	c-0.406,0.457-0.965,0.711-1.625,0.711c-0.61,0-1.169-0.254-1.575-0.711c-0.965-0.965-0.965-2.54,0-3.505
	C279.621,153.518,280.18,153.264,280.79,153.264z"/>
</svg>
