<?xml version="1.0" encoding="utf-8"?>
<!-- Generator: Adobe Illustrator 19.1.0, SVG Export Plug-In . SVG Version: 6.00 Build 0)  -->
<svg version="1.1" id="Layer_1" xmlns="http://www.w3.org/2000/svg" xmlns:xlink="http://www.w3.org/1999/xlink" x="0px" y="0px"
	 viewBox="0 0 400 400" enable-background="new 0 0 400 400" xml:space="preserve">
<g>
	<polygon fill-rule="evenodd" clip-rule="evenodd" fill="#0054A6" points="59.902,15.956 199.377,389 338.853,15.956 59.902,15.956 
			"/>
	<path fill-rule="evenodd" clip-rule="evenodd" fill="#FFF200" d="M333.966,19.346c-1.67,4.466-131.507,351.733-134.589,359.976
		c-3.082-8.244-132.919-355.51-134.589-359.976C69.544,19.346,329.21,19.346,333.966,19.346L333.966,19.346z"/>
	<polygon fill-rule="evenodd" clip-rule="evenodd" fill="#0054A6" points="74.444,26.042 199.377,360.192 324.311,26.042 
		74.444,26.042 	"/>
	<path fill-rule="evenodd" clip-rule="evenodd" fill="#00A1E4" d="M79.33,29.431c0.582,1.556,35.276,94.351,35.538,95.05h169.02
		c0.26-0.699,34.955-93.494,35.538-95.05C314.684,29.431,84.071,29.431,79.33,29.431L79.33,29.431z"/>
	<path fill-rule="evenodd" clip-rule="evenodd" fill="#FFF200" d="M126.754,133.273h68.055v8.223h-56.31l38.577,105.992h9.509
		v-18.73h-13.033v-8.224h21.257v35.179h-23.49L126.754,133.273L126.754,133.273z M179.304,202.717h2.537
		c2.967,0,4.744-1.933,4.744-4.9v-32.344c0-4.705-2.484-6.158-5.449-6.158h-17.63L179.304,202.717L179.304,202.717z M173.546,210.94
		l-21.784-59.85h35.188c4.365,0,7.858,2.843,7.858,7.916v43.647c0,4.986-3.084,8.287-8.182,8.287H173.546L173.546,210.94z
		 M272.001,133.273l-2.993,8.223H212.17v40.204h10.734v8.223H212.17v57.565h9.508l9.811-26.955h8.751l-12.803,35.179h-23.49V133.273
		H272.001L272.001,133.273z M225.868,209.592v-58.502h31.08c3.613,0,7.517,2.887,5.614,8.119l-8.726,23.971
		c-1.524,4.189-4.733,6.743-9.173,6.743h-10.57v19.669H225.868L225.868,209.592z M246.763,159.314h-12.671v22.386h6.529
		c3.477,0,5.722-1.975,6.634-4.483l4.564-12.537C253.537,159.957,250.029,159.314,246.763,159.314L246.763,159.314z"/>
	<path fill-rule="evenodd" clip-rule="evenodd" fill="#FFF200" d="M261.129,110.934l20.55-13.541l-2.755-3.935l-20.413,13.45
		c-1.132-1.625-2.326-3.203-3.586-4.726l29.534-23.394l-3.088-3.68l-29.633,23.473c-1.386-1.468-2.835-2.878-4.339-4.226
		l59.49-56.222l-3.397-3.397l-59.738,56.427c-1.631-1.547-2.515-2.549-4.572-3.971l27.773-39.902l-4.028-2.616l-27.941,40.156
		c-1.759-0.916-3.897-2.382-5.736-3.153l19.485-39.775l-4.318-2.106l-19.678,40.164c-1.443-0.493-3.979-1.391-5.462-1.793
		l6.162-22.045l-4.641-1.243l-6.199,22.466c-1.429-0.286-3.266-0.528-4.721-0.728l4.027-35.753l-4.777-0.502l-4.028,35.76
		c-0.877-0.061-2.436-0.106-3.321-0.135V31.716h-4.804v44.268c-0.885,0.029-2.443,0.075-3.32,0.135l-4.028-35.76l-4.777,0.502
		l4.027,35.753c-1.456,0.2-3.294,0.442-4.721,0.728l-6.2-22.466l-4.64,1.243l6.161,22.045c-1.483,0.402-4.019,1.3-5.462,1.793
		l-19.679-40.164l-4.318,2.106l19.485,39.775c-1.839,0.771-3.977,2.237-5.736,3.153l-27.94-40.156l-4.029,2.616l27.773,39.902
		c-2.057,1.422-2.94,2.424-4.57,3.971L95.263,34.735l-3.397,3.397l59.489,56.222c-1.503,1.349-2.952,2.758-4.338,4.226
		l-29.633-23.473l-3.088,3.68l29.534,23.394c-1.259,1.523-2.454,3.101-3.586,4.726l-20.412-13.45l-2.755,3.935l20.55,13.541
		c-1.687,2.796-3.182,5.718-4.482,8.743h-20.073l1.796,4.804h169.02c0,0,1.796-4.504,1.796-4.804h-20.072
		C264.311,116.652,262.816,113.73,261.129,110.934L261.129,110.934z"/>
</g>
</svg>
