<?xml version="1.0" encoding="utf-8"?>
<!-- Generator: Adobe Illustrator 19.0.0, SVG Export Plug-In . SVG Version: 6.00 Build 0)  -->
<svg version="1.1" id="Layer_1" xmlns="http://www.w3.org/2000/svg" xmlns:xlink="http://www.w3.org/1999/xlink" x="0px" y="0px"
	 viewBox="0 0 840 840" style="enable-background:new 0 0 840 840;" xml:space="preserve">
<style type="text/css">
	.st0{fill:#999999;}
	.st1{fill:#8D8D8D;}
	.st2{fill:#666666;}
	.st3{fill:#EB2227;}
	.st4{fill:#231F20;}
	.st5{fill:url(#XMLID_93_);}
	.st6{fill:url(#XMLID_94_);}
	.st7{fill:#FFFFFF;}
	.st8{fill:#005A94;}
	.st9{fill:#808184;}
</style>
<g>
	<path id="XMLID_91_" class="st0" d="M395.8,52L395.8,52C395.8,52,395.8,52,395.8,52c0.1,0,0.1,0,0.2,0c99.2,0.1,188,43,248.3,110.6
		c-49.8-85.5-142.4-143-248.5-143c-106.1,0-198.6,57.5-248.5,142.9C207.7,94.9,296.5,52,395.8,52z"/>
	<path id="XMLID_90_" class="st1" d="M632.2,428.7c10.7-27.4,16.6-57.3,16.6-88.6c0-71.2-30.4-135-78.5-178.3
		c8.6,30.4,13.3,62.9,13.3,96.6c0,140.6-88.5,257.8-201,297.4c3.7,0.1,7.4,0.4,11.1,0.4C493.9,556.2,581.8,505.4,632.2,428.7z"/>
	<path id="XMLID_89_" class="st2" d="M672,225.2c3.5,17.3,5.3,35.2,5.3,53.6c0,55.3-16.6,106.7-45.1,150
		c-50.4,76.6-138.3,127.4-238.4,127.4c-3.7,0-7.4-0.2-11.1-0.4c-94.7-3.6-177.4-52.5-226.1-125.3
		c40.9,102.1,140.8,174.2,257.5,174.2c153.2,0,277.4-124.2,277.4-277.4C691.5,291.3,684.5,256.8,672,225.2z"/>
	<g>
		<g>
			<path class="st3" d="M403.2,154.3c-23.6,0.7-104.3,5.9-152.5,45.5l-16.3,13.4l-5.6,21.6l-0.3,1.7
				c-1.3,6.7-30.2,166.3,136.1,284.4l37.1,26.5l44.1-26.5c166.3-118.2,137.4-277.7,136.1-284.4l-4-20.3L561,200.8l-1.3-1.1
				c-48.1-39.5-128.8-44.8-152.4-45.5l-2-0.1L403.2,154.3z"/>
			<path id="XMLID_87_" class="st4" d="M403.1,152.1L403.1,152.1c-23.8,0.7-105.2,6-153.9,46L232.4,212l-5.8,22.3l-0.4,1.9
				c-1.3,6.8-30.5,167.5,137,286.5l38.4,27.3l45.4-27.3c167.6-119.1,138.4-279.8,137.1-286.6l-4.2-21l-17.4-15.9l-1.4-1.1
				c-48.6-39.9-130-45.3-153.8-46L403.1,152.1z"/>
			<linearGradient id="XMLID_93_" gradientUnits="userSpaceOnUse" x1="228.0196" y1="350.5936" x2="405.2195" y2="350.5936">
				<stop  offset="0" style="stop-color:#22B14B"/>
				<stop  offset="0.1112" style="stop-color:#21A948"/>
				<stop  offset="0.2807" style="stop-color:#1C943F"/>
				<stop  offset="0.4873" style="stop-color:#167230"/>
				<stop  offset="0.723" style="stop-color:#0D421C"/>
				<stop  offset="0.9804" style="stop-color:#010502"/>
				<stop  offset="1" style="stop-color:#000000"/>
			</linearGradient>
			<path id="XMLID_86_" class="st5" d="M403.3,156.4c-23.4,0.7-103.5,5.9-151.1,44.9c0,0-14.8,12.2-15.8,13
				c-0.3,1.2-5.4,20.8-5.4,20.8l-0.3,1.7c-0.3,1.8-2.7,14.6-2.7,34.6c0,54.3,17.2,161.9,138,247.7c0,0,33.6,23.9,35.9,25.6
				c0.4-0.2,1.6-1,3.4-2V156.4C404.8,156.4,403.3,156.4,403.3,156.4z"/>
			<linearGradient id="XMLID_94_" gradientUnits="userSpaceOnUse" x1="405.2195" y1="349.5822" x2="582.4258" y2="349.5822">
				<stop  offset="0" style="stop-color:#231F20"/>
				<stop  offset="5.433232e-02" style="stop-color:#332524"/>
				<stop  offset="0.2302" style="stop-color:#60312B"/>
				<stop  offset="0.4033" style="stop-color:#8B352C"/>
				<stop  offset="0.57" style="stop-color:#B1332B"/>
				<stop  offset="0.7286" style="stop-color:#CE2C2A"/>
				<stop  offset="0.8756" style="stop-color:#E12528"/>
				<stop  offset="1" style="stop-color:#EB2227"/>
			</linearGradient>
			<path id="XMLID_85_" class="st6" d="M579.7,236.9c0,0-3.6-18.4-3.9-19.6c-1-0.9-16.3-14.9-16.3-14.9l-1.3-1.1
				c-47.5-39-127.6-44.3-151-44.9l-1.8-0.1c0,0-0.1,0-0.2,0v386.5c10.1-6.1,39.3-23.6,39.3-23.6c120.7-85.8,137.9-193.4,137.9-247.7
				C582.4,251.5,580.1,238.7,579.7,236.9z"/>
			<path id="XMLID_84_" class="st4" d="M405.2,216.2c-3.2,0.1-77.6,2.5-111.6,30.3l-0.6,0.5l-0.1,0.7c-0.2,1.3-23.4,128.1,111,223.6
				l1.3,1l1.4-1c134.5-95.5,111.3-222.3,111-223.6l-0.1-0.7l-0.6-0.5c-33.9-27.8-108.4-30.2-111.6-30.3H405.2L405.2,216.2z"/>
			<path id="XMLID_83_" class="st3" d="M405.2,216c-3.2,0.1-77.8,2.5-111.7,30.4l-0.6,0.5l-0.2,0.8c-0.2,1.3-23.3,128.3,111.1,223.8
				l1.3,1l1.6-1C541.1,376.1,518.1,249,517.8,247.7l-0.1-0.7l-0.7-0.6c-33.9-27.8-108.6-30.3-111.7-30.4h0H405.2z"/>
			<path id="XMLID_82_" class="st4" d="M404,471.2c-134.2-95.3-111.2-222.1-110.9-223.4l0.1-0.7l0.5-0.4
				c33.8-27.8,108.3-30.2,111.4-30.3h0.1c3.2,0.1,77.7,2.6,111.4,30.3l0.6,0.5l0.1,0.6c0.2,1.3,23.2,128.1-110.9,223.4l-1.4,1
				L404,471.2z"/>
			<path id="XMLID_81_" class="st4" d="M518.1,247.7l-0.1-0.6l-0.8-0.9c-34-27.9-108.7-30.3-111.9-30.4c-3.3,0.1-78,2.5-112,30.4
				l-0.5,0.3l-0.4,1.1c-0.1,0.3-1.7,9.1-1.7,23.5c0,41.4,13.1,129.6,112.8,200.5c0,0,1.5,1.3,1.5,1.3l1.8-1.3
				C541.4,376.1,518.3,249,518.1,247.7z"/>
			<path id="XMLID_80_" class="st7" d="M405.2,220.5c1.4,0,75.2,2.6,108.1,28.9c0.3,1.9,1.5,9.6,1.5,22.1
				c0,40.2-12.8,126-109.6,195.5c-96.8-69.5-109.6-155.3-109.6-195.5c0-12.5,1.2-20.2,1.5-22.1C330,223,403.9,220.5,405.2,220.5z"/>
		</g>
		<g>
			<g>
				<g>
					<path id="XMLID_79_" class="st8" d="M387.8,233.8v39.6h0c0.3,9.4,8,16.9,17.4,16.9c9.4,0,17.1-7.5,17.4-16.9h0v-39.6H387.8z"/>
					<g>
						<path id="XMLID_78_" class="st7" d="M411,258.9c0,3.2-2.6,5.8-5.8,5.8c-3.2,0-5.8-2.6-5.8-5.8c0-3.2,2.6-5.8,5.8-5.8
							C408.4,253.1,411,255.7,411,258.9z"/>
						<g>
							<g>
								<path id="XMLID_77_" class="st7" d="M401.4,242.5c0,3.2-2.6,5.8-5.8,5.8c-3.2,0-5.8-2.6-5.8-5.8c0-3.2,2.6-5.8,5.8-5.8
									C398.8,236.7,401.4,239.3,401.4,242.5z"/>
								<path id="XMLID_76_" class="st7" d="M420.6,242.5c0,3.2-2.6,5.8-5.8,5.8c-3.2,0-5.8-2.6-5.8-5.8c0-3.2,2.6-5.8,5.8-5.8
									C418,236.7,420.6,239.3,420.6,242.5z"/>
							</g>
							<g>
								<path id="XMLID_75_" class="st7" d="M401.4,275.4c0,3.2-2.6,5.8-5.8,5.8c-3.2,0-5.8-2.6-5.8-5.8c0-3.2,2.6-5.8,5.8-5.8
									C398.8,269.5,401.4,272.2,401.4,275.4z"/>
								<path id="XMLID_74_" class="st7" d="M420.6,275.4c0,3.2-2.6,5.8-5.8,5.8c-3.2,0-5.8-2.6-5.8-5.8c0-3.2,2.6-5.8,5.8-5.8
									C418,269.5,420.6,272.2,420.6,275.4z"/>
							</g>
						</g>
					</g>
				</g>
				<g>
					<path id="XMLID_73_" class="st8" d="M387.8,378.7v39.6h0c0.3,9.4,8,16.9,17.4,16.9c9.4,0,17.1-7.5,17.4-16.9h0v-39.6H387.8z"/>
					<g>
						<path id="XMLID_72_" class="st7" d="M411,403.8c0,3.2-2.6,5.8-5.8,5.8c-3.2,0-5.8-2.6-5.8-5.8c0-3.2,2.6-5.8,5.8-5.8
							C408.4,398,411,400.6,411,403.8z"/>
						<g>
							<g>
								<path id="XMLID_71_" class="st7" d="M401.4,387.4c0,3.2-2.6,5.8-5.8,5.8c-3.2,0-5.8-2.6-5.8-5.8c0-3.2,2.6-5.8,5.8-5.8
									C398.8,381.5,401.4,384.1,401.4,387.4z"/>
								<path id="XMLID_70_" class="st7" d="M420.6,387.4c0,3.2-2.6,5.8-5.8,5.8c-3.2,0-5.8-2.6-5.8-5.8c0-3.2,2.6-5.8,5.8-5.8
									C418,381.5,420.6,384.1,420.6,387.4z"/>
							</g>
							<g>
								<path id="XMLID_69_" class="st7" d="M401.4,420.2c0,3.2-2.6,5.8-5.8,5.8c-3.2,0-5.8-2.6-5.8-5.8s2.6-5.8,5.8-5.8
									C398.8,414.4,401.4,417,401.4,420.2z"/>
								<path id="XMLID_68_" class="st7" d="M420.6,420.2c0,3.2-2.6,5.8-5.8,5.8c-3.2,0-5.8-2.6-5.8-5.8s2.6-5.8,5.8-5.8
									C418,414.4,420.6,417,420.6,420.2z"/>
							</g>
						</g>
					</g>
				</g>
			</g>
			<g>
				<g>
					<path id="XMLID_67_" class="st8" d="M341.8,306.3v39.6h0c0.3,9.4,8,16.9,17.4,16.9c9.4,0,17.1-7.5,17.4-16.9h0v-39.6H341.8z"/>
					<g>
						<path id="XMLID_66_" class="st7" d="M365.1,331.4c0,3.2-2.6,5.8-5.8,5.8c-3.2,0-5.8-2.6-5.8-5.8c0-3.2,2.6-5.8,5.8-5.8
							C362.5,325.6,365.1,328.2,365.1,331.4z"/>
						<g>
							<g>
								<path id="XMLID_65_" class="st7" d="M355.5,314.9c0,3.2-2.6,5.8-5.8,5.8c-3.2,0-5.8-2.6-5.8-5.8c0-3.2,2.6-5.8,5.8-5.8
									C352.9,309.1,355.5,311.7,355.5,314.9z"/>
								<path id="XMLID_64_" class="st7" d="M374.7,314.9c0,3.2-2.6,5.8-5.8,5.8c-3.2,0-5.8-2.6-5.8-5.8c0-3.2,2.6-5.8,5.8-5.8
									C372.1,309.1,374.7,311.7,374.7,314.9z"/>
							</g>
							<g>
								<path id="XMLID_63_" class="st7" d="M355.5,347.8c0,3.2-2.6,5.8-5.8,5.8c-3.2,0-5.8-2.6-5.8-5.8c0-3.2,2.6-5.8,5.8-5.8
									C352.9,342,355.5,344.6,355.5,347.8z"/>
								<path id="XMLID_62_" class="st7" d="M374.7,347.8c0,3.2-2.6,5.8-5.8,5.8c-3.2,0-5.8-2.6-5.8-5.8c0-3.2,2.6-5.8,5.8-5.8
									C372.1,342,374.7,344.6,374.7,347.8z"/>
							</g>
						</g>
					</g>
				</g>
				<g>
					<path id="XMLID_61_" class="st8" d="M387.8,306.3v39.6h0c0.3,9.4,8,16.9,17.4,16.9c9.4,0,17.1-7.5,17.4-16.9h0v-39.6H387.8z"/>
					<g>
						<path id="XMLID_60_" class="st7" d="M411,331.4c0,3.2-2.6,5.8-5.8,5.8c-3.2,0-5.8-2.6-5.8-5.8c0-3.2,2.6-5.8,5.8-5.8
							C408.4,325.6,411,328.2,411,331.4z"/>
						<g>
							<g>
								<path id="XMLID_59_" class="st7" d="M401.4,314.9c0,3.2-2.6,5.8-5.8,5.8c-3.2,0-5.8-2.6-5.8-5.8c0-3.2,2.6-5.8,5.8-5.8
									C398.8,309.1,401.4,311.7,401.4,314.9z"/>
								<circle id="XMLID_58_" class="st7" cx="414.8" cy="314.9" r="5.8"/>
							</g>
							<g>
								<path id="XMLID_57_" class="st7" d="M401.4,347.8c0,3.2-2.6,5.8-5.8,5.8c-3.2,0-5.8-2.6-5.8-5.8c0-3.2,2.6-5.8,5.8-5.8
									C398.8,342,401.4,344.6,401.4,347.8z"/>
								<path id="XMLID_56_" class="st7" d="M420.6,347.8c0,3.2-2.6,5.8-5.8,5.8c-3.2,0-5.8-2.6-5.8-5.8c0-3.2,2.6-5.8,5.8-5.8
									C418,342,420.6,344.6,420.6,347.8z"/>
							</g>
						</g>
					</g>
				</g>
				<g>
					<path id="XMLID_55_" class="st8" d="M433.7,306.3v39.6h0c0.3,9.4,8,16.9,17.4,16.9c9.4,0,17.1-7.5,17.4-16.9h0v-39.6H433.7z"/>
					<g>
						<path id="XMLID_54_" class="st7" d="M457,331.4c0,3.2-2.6,5.8-5.8,5.8c-3.2,0-5.8-2.6-5.8-5.8c0-3.2,2.6-5.8,5.8-5.8
							C454.4,325.6,457,328.2,457,331.4z"/>
						<g>
							<g>
								<path id="XMLID_53_" class="st7" d="M447.4,314.9c0,3.2-2.6,5.8-5.8,5.8c-3.2,0-5.8-2.6-5.8-5.8c0-3.2,2.6-5.8,5.8-5.8
									C444.8,309.1,447.4,311.7,447.4,314.9z"/>
								<path id="XMLID_52_" class="st7" d="M466.6,314.9c0,3.2-2.6,5.8-5.8,5.8c-3.2,0-5.8-2.6-5.8-5.8c0-3.2,2.6-5.8,5.8-5.8
									C464,309.1,466.6,311.7,466.6,314.9z"/>
							</g>
							<g>
								<path id="XMLID_51_" class="st7" d="M447.4,347.8c0,3.2-2.6,5.8-5.8,5.8c-3.2,0-5.8-2.6-5.8-5.8c0-3.2,2.6-5.8,5.8-5.8
									C444.8,342,447.4,344.6,447.4,347.8z"/>
								<path id="XMLID_50_" class="st7" d="M466.6,347.8c0,3.2-2.6,5.8-5.8,5.8c-3.2,0-5.8-2.6-5.8-5.8c0-3.2,2.6-5.8,5.8-5.8
									C464,342,466.6,344.6,466.6,347.8z"/>
							</g>
						</g>
					</g>
				</g>
			</g>
		</g>
	</g>
</g>
<g>
	<g>
		<path class="st4" d="M271.2,661h23.1v82.9H335v19.4h-63.8V661z"/>
		<path class="st4" d="M371.9,661v102.3h-23.1V661H371.9z"/>
		<path class="st4" d="M477.4,758.6c-7.1,2.4-20.7,5.8-34.2,5.8c-18.7,0-32.2-4.7-41.6-13.7c-9.3-9-14.4-22.3-14.4-37.4
			c0.2-34,24.9-53.5,58.5-53.5c13.2,0,23.4,2.6,28.4,4.9l-4.9,18.7c-5.6-2.6-12.5-4.4-23.7-4.4c-19.3,0-34,10.9-34,33.1
			c0,21.3,13.4,33.6,32.3,33.6c5.2,0,9.4-0.6,11.2-1.4v-21.6h-15.8v-18.1h38.1V758.6z"/>
		<path class="st4" d="M519.2,737.1l-7.1,26.3h-24L519.3,661h30.2l31.9,102.3h-24.9l-7.9-26.3H519.2z M545.1,719.7l-6.4-21.7
			c-1.7-6.1-3.5-13.8-5-19.7h-0.5c-1.4,6.1-3,13.8-4.6,19.7l-6.2,21.7H545.1z"/>
	</g>
	<g>
		<path class="st9" d="M268.3,774.9c1.3-0.2,2.9-0.4,5.1-0.4c2.6,0,4.5,0.6,5.7,1.7c1.1,1,1.8,2.5,1.8,4.3c0,1.9-0.5,3.3-1.6,4.4
			c-1.4,1.5-3.7,2.2-6.3,2.2c-0.8,0-1.5,0-2.1-0.2v8.2h-2.6V774.9z M270.9,784.7c0.6,0.2,1.3,0.2,2.2,0.2c3.2,0,5.1-1.6,5.1-4.3
			c0-2.7-1.9-4-4.8-4c-1.2,0-2,0.1-2.5,0.2V784.7z"/>
		<path class="st9" d="M291.2,795.4c-5.4,0-9.2-4.2-9.2-10.4c0-6.5,4-10.7,9.5-10.7c5.6,0,9.2,4.3,9.2,10.4
			C300.7,791.7,296.4,795.4,291.2,795.4L291.2,795.4z M291.3,793.3c4.2,0,6.6-3.9,6.6-8.5c0-4.1-2.1-8.3-6.5-8.3
			c-4.4,0-6.6,4.1-6.6,8.5C284.7,789.3,287.1,793.3,291.3,793.3L291.3,793.3z"/>
		<path class="st9" d="M302.9,774.9c1.3-0.3,3.3-0.4,5.1-0.4c2.8,0,4.7,0.5,6,1.7c1,0.9,1.6,2.3,1.6,3.9c0,2.7-1.7,4.5-3.9,5.2v0.1
			c1.6,0.6,2.5,2,3,4.1c0.7,2.9,1.2,4.8,1.5,5.6h-2.7c-0.3-0.6-0.8-2.3-1.3-4.9c-0.6-2.8-1.7-3.9-4.1-4h-2.5v8.9h-2.6V774.9z
			 M305.5,784.2h2.7c2.8,0,4.6-1.5,4.6-3.9c0-2.6-1.9-3.8-4.7-3.8c-1.3,0-2.2,0.1-2.6,0.2V784.2z"/>
		<path class="st9" d="M322,776.9h-6.2v-2.2h15.2v2.2h-6.3v18.2H322V776.9z"/>
		<path class="st9" d="M334.6,774.6v12.1c0,4.6,2,6.5,4.8,6.5c3,0,5-2,5-6.5v-12.1h2.7v12c0,6.3-3.3,8.8-7.7,8.8
			c-4.2,0-7.4-2.4-7.4-8.7v-12.1H334.6z"/>
		<path class="st9" d="M366,794.2c-1.2,0.5-3.6,1.1-6.3,1.1c-3.1,0-5.6-0.8-7.7-2.7c-1.8-1.7-2.9-4.4-2.9-7.6
			c0-6.1,4.2-10.6,11.1-10.6c2.4,0,4.3,0.5,5.1,0.9l-0.7,2.2c-1.1-0.5-2.5-0.9-4.5-0.9c-5,0-8.2,3.1-8.2,8.2c0,5.2,3.1,8.3,7.9,8.3
			c1.7,0,2.9-0.2,3.5-0.5v-6.1h-4.1v-2.1h6.7V794.2z"/>
		<path class="st9" d="M371.4,774.6v12.1c0,4.6,2,6.5,4.8,6.5c3,0,5-2,5-6.5v-12.1h2.7v12c0,6.3-3.3,8.8-7.7,8.8
			c-4.2,0-7.3-2.4-7.3-8.7v-12.1H371.4z"/>
		<path class="st9" d="M397.7,785.5h-7.9v7.4h8.9v2.2h-11.5v-20.5h11.1v2.2h-8.4v6.5h7.9V785.5z"/>
		<path class="st9" d="M400.5,791.9c1.2,0.8,2.9,1.3,4.7,1.3c2.7,0,4.3-1.4,4.3-3.5c0-1.9-1.1-3-3.9-4c-3.3-1.2-5.4-3-5.4-5.8
			c0-3.2,2.6-5.6,6.6-5.6c2.1,0,3.6,0.5,4.5,1l-0.7,2.2c-0.6-0.4-2-1-3.9-1c-2.8,0-3.9,1.7-3.9,3.1c0,1.9,1.2,2.9,4.1,3.9
			c3.5,1.4,5.2,3,5.2,6c0,3.2-2.3,5.9-7.1,5.9c-2,0-4.1-0.6-5.2-1.3L400.5,791.9z"/>
		<path class="st9" d="M417.9,788.7l-2.1,6.4H413l7-20.5h3.2l7,20.5h-2.8l-2.2-6.4H417.9z M424.6,786.6l-2-5.9
			c-0.4-1.3-0.7-2.6-1-3.7h-0.1c-0.3,1.2-0.6,2.5-1,3.7l-2,5.9H424.6z"/>
		<path class="st9" d="M437.1,774.9c1.6-0.2,3.6-0.4,5.6-0.4c3.8,0,6.5,0.8,8.3,2.5c1.9,1.7,2.9,4.1,2.9,7.4c0,3.3-1.1,6.1-2.9,8
			c-1.9,1.9-5.1,2.9-9.1,2.9c-1.9,0-3.5-0.1-4.8-0.2V774.9z M439.7,793c0.7,0.1,1.6,0.1,2.7,0.1c5.6,0,8.7-3.2,8.7-8.7
			c0-4.9-2.7-7.9-8.3-7.9c-1.4,0-2.4,0.1-3.1,0.3V793z"/>
		<path class="st9" d="M466.6,785.5h-7.9v7.4h8.9v2.2H456v-20.5h11.1v2.2h-8.4v6.5h7.9V785.5z"/>
		<path class="st9" d="M474.9,774.6h11v2.2h-8.4v6.8h7.7v2.2h-7.7v9.3h-2.7V774.6z"/>
		<path class="st9" d="M491.2,774.6v12.1c0,4.6,2,6.5,4.8,6.5c3,0,5-2,5-6.5v-12.1h2.7v12c0,6.3-3.3,8.8-7.7,8.8
			c-4.2,0-7.4-2.4-7.4-8.7v-12.1H491.2z"/>
		<path class="st9" d="M510.8,776.9h-6.2v-2.2h15.2v2.2h-6.3v18.2h-2.7V776.9z"/>
		<path class="st9" d="M531.3,785.5h-7.9v7.4h8.9v2.2h-11.5v-20.5h11.1v2.2h-8.4v6.5h7.9V785.5z"/>
		<path class="st9" d="M534.5,774.9c1.2-0.3,3-0.4,4.8-0.4c2.6,0,4.3,0.4,5.6,1.5c1.1,0.8,1.7,2,1.7,3.6c0,2-1.3,3.7-3.5,4.5v0.1
			c1.9,0.5,4.2,2.1,4.2,5.1c0,1.8-0.7,3.1-1.8,4.1c-1.4,1.3-3.7,1.9-7,1.9c-1.8,0-3.2-0.1-4.1-0.2V774.9z M537.1,783.3h2.4
			c2.8,0,4.4-1.5,4.4-3.5c0-2.4-1.8-3.3-4.5-3.3c-1.2,0-1.9,0.1-2.3,0.2V783.3z M537.1,793.1c0.5,0.1,1.3,0.1,2.2,0.1
			c2.7,0,5.3-1,5.3-4c0-2.8-2.4-4-5.3-4h-2.2V793.1z"/>
		<path class="st9" d="M557.7,795.4c-5.4,0-9.2-4.2-9.2-10.4c0-6.5,4-10.7,9.5-10.7c5.6,0,9.2,4.3,9.2,10.4
			C567.2,791.7,562.9,795.4,557.7,795.4L557.7,795.4z M557.8,793.3c4.2,0,6.6-3.9,6.6-8.5c0-4.1-2.1-8.3-6.5-8.3
			c-4.4,0-6.6,4.1-6.6,8.5C551.2,789.3,553.6,793.3,557.8,793.3L557.8,793.3z"/>
		<path class="st9" d="M569.3,774.6h2.7v18.3h8.7v2.2h-11.4V774.6z"/>
	</g>
	<g>
		<path class="st9" d="M339.5,808.3c1.3-0.2,2.9-0.4,5.1-0.4c2.6,0,4.5,0.6,5.7,1.7c1.1,1,1.8,2.5,1.8,4.3c0,1.9-0.5,3.3-1.6,4.4
			c-1.4,1.5-3.7,2.2-6.3,2.2c-0.8,0-1.5,0-2.1-0.2v8.2h-2.6V808.3z M342.2,818.2c0.6,0.2,1.3,0.2,2.2,0.2c3.2,0,5.1-1.6,5.1-4.3
			c0-2.7-1.9-4-4.8-4c-1.2,0-2,0.1-2.5,0.2V818.2z"/>
		<path class="st9" d="M354.4,808.3c1.3-0.3,3.3-0.5,5.1-0.5c2.8,0,4.7,0.5,6,1.7c1,0.9,1.6,2.3,1.6,3.9c0,2.7-1.7,4.5-3.9,5.2v0.1
			c1.5,0.6,2.5,2,3,4.1c0.7,2.9,1.2,4.8,1.5,5.6H365c-0.3-0.6-0.8-2.3-1.3-4.9c-0.6-2.8-1.7-3.9-4.1-4h-2.5v8.9h-2.6V808.3z
			 M357.1,817.6h2.7c2.8,0,4.6-1.5,4.6-3.9c0-2.6-1.9-3.8-4.7-3.8c-1.3,0-2.2,0.1-2.6,0.2V817.6z"/>
		<path class="st9" d="M377.6,828.8c-5.4,0-9.2-4.2-9.2-10.4c0-6.5,4-10.7,9.5-10.7c5.6,0,9.2,4.3,9.2,10.4
			C387.1,825.1,382.8,828.8,377.6,828.8L377.6,828.8z M377.7,826.7c4.2,0,6.6-3.9,6.6-8.5c0-4.1-2.1-8.3-6.5-8.3
			c-4.4,0-6.6,4.1-6.6,8.5C371.2,822.7,373.5,826.7,377.7,826.7L377.7,826.7z"/>
		<path class="st9" d="M389.3,808h11v2.2h-8.4v6.8h7.7v2.2h-7.7v9.3h-2.7V808z"/>
		<path class="st9" d="M405.5,808v20.5h-2.7V808H405.5z"/>
		<path class="st9" d="M408.5,825.3c1.2,0.8,2.9,1.3,4.7,1.3c2.7,0,4.3-1.4,4.3-3.5c0-1.9-1.1-3-3.9-4c-3.3-1.2-5.4-3-5.4-5.8
			c0-3.2,2.6-5.6,6.6-5.6c2.1,0,3.6,0.5,4.5,1l-0.7,2.2c-0.6-0.4-2-1-3.9-1c-2.8,0-3.9,1.7-3.9,3.1c0,1.9,1.2,2.9,4.1,3.9
			c3.5,1.4,5.2,3,5.2,6c0,3.2-2.3,5.9-7.1,5.9c-2,0-4.1-0.6-5.2-1.3L408.5,825.3z"/>
		<path class="st9" d="M422.3,825.3c1.2,0.8,2.9,1.3,4.7,1.3c2.7,0,4.3-1.4,4.3-3.5c0-1.9-1.1-3-3.9-4c-3.3-1.2-5.4-3-5.4-5.8
			c0-3.2,2.6-5.6,6.6-5.6c2.1,0,3.6,0.5,4.5,1l-0.7,2.2c-0.6-0.4-2-1-3.9-1c-2.8,0-3.9,1.7-3.9,3.1c0,1.9,1.2,2.9,4.1,3.9
			c3.5,1.4,5.2,3,5.2,6c0,3.2-2.3,5.9-7.1,5.9c-2,0-4.1-0.6-5.2-1.3L422.3,825.3z"/>
		<path class="st9" d="M439,808v20.5h-2.7V808H439z"/>
		<path class="st9" d="M450.3,828.8c-5.4,0-9.2-4.2-9.2-10.4c0-6.5,4-10.7,9.5-10.7c5.6,0,9.2,4.3,9.2,10.4
			C459.8,825.1,455.5,828.8,450.3,828.8L450.3,828.8z M450.4,826.7c4.2,0,6.6-3.9,6.6-8.5c0-4.1-2.1-8.3-6.5-8.3
			c-4.4,0-6.6,4.1-6.6,8.5C443.9,822.7,446.3,826.7,450.4,826.7L450.4,826.7z"/>
		<path class="st9" d="M462,828.5V808h2.9l6.5,10.4c1.5,2.4,2.7,4.5,3.6,6.7l0.1,0c-0.2-2.7-0.3-5.2-0.3-8.4V808h2.5v20.5h-2.7
			l-6.5-10.4c-1.4-2.3-2.8-4.6-3.8-6.8l-0.1,0c0.2,2.6,0.2,5,0.2,8.4v8.7H462z"/>
		<path class="st9" d="M484.1,822.1l-2.1,6.4h-2.7l7-20.5h3.2l7,20.5h-2.8l-2.2-6.4H484.1z M490.8,820l-2-5.9
			c-0.4-1.3-0.7-2.6-1-3.7h-0.1c-0.3,1.2-0.6,2.5-1,3.7l-2,5.9H490.8z"/>
		<path class="st9" d="M498.1,808h2.7v18.3h8.7v2.2h-11.4V808z"/>
	</g>
</g>
</svg>
