<?xml version="1.0" encoding="utf-8"?>
<!-- Generator: Adobe Illustrator 19.1.0, SVG Export Plug-In . SVG Version: 6.00 Build 0)  -->
<svg version="1.1" id="Layer_1" xmlns="http://www.w3.org/2000/svg" xmlns:xlink="http://www.w3.org/1999/xlink" x="0px" y="0px"
	 viewBox="0 0 400 400" enable-background="new 0 0 400 400" xml:space="preserve">
<g>
	<path fill-rule="evenodd" clip-rule="evenodd" fill="#005030" d="M104.877,198.216c-0.02-51.621,42.003-93.636,93.679-93.659
		c25.188-0.011,48.828,9.82,66.57,27.683c17.52,17.641,27.175,41.043,27.186,65.894c0.019,51.621-42.004,93.636-93.68,93.659
		c-25.187,0.01-48.828-9.82-66.569-27.682C114.542,246.467,104.887,223.067,104.877,198.216L104.877,198.216z"/>
	<polygon fill-rule="evenodd" clip-rule="evenodd" fill="#005030" points="295.701,394.176 295.701,349.802 98.684,349.802 
		98.684,394.176 295.701,394.176 	"/>
	<path fill-rule="evenodd" clip-rule="evenodd" fill="#005030" d="M199.423,50.262C126.29,50.17,87.771,97.352,87.771,97.352
		L58.891,68.809c0,0,50.878-59.014,140.533-58.986c89.653,0.029,140.441,58.986,140.441,58.986l-28.837,28.543
		C311.028,97.352,272.556,50.355,199.423,50.262L199.423,50.262z"/>
	<path fill-rule="evenodd" clip-rule="evenodd" fill="#FFFFFF" d="M170.131,241.3c0-12.603-10.215-22.817-22.817-22.817
		c-12.602,0-22.818,10.215-22.818,22.817c0,12.602,10.216,22.816,22.818,22.816C159.916,264.116,170.131,253.901,170.131,241.3
		L170.131,241.3z"/>
	<path fill-rule="evenodd" clip-rule="evenodd" fill="#005030" d="M147.25,120.526c0,0-3.11,2.464-3.172,2.513
		c-0.015-0.011-0.163,0.02-0.163,0.02l-1.865,0.472c-3.831,1.299-6.76,3.696-8.037,6.573c0,0-0.542,1.219-0.691,1.556
		c-2.006-0.251-3.269-0.727-3.281-0.731l-2.126-0.837l-0.421,2.243c0,0.002-0.196,2.172-0.196,2.172c0,1.028,0.161,2.094,0.471,3.3
		c-0.051,0.024-0.112,0.055-0.112,0.055c-4.523,2.198-6.478,5.72-7.32,8.287c-0.478,1.455-0.72,2.949-0.72,4.44
		c0,1.711,0.339,3.336,0.929,4.461c0,0,0.69,1.311,0.727,1.383c-3.278,2.874-8.589,8.832-8.589,17.273l0.146,2.398l0.501,4.112
		l2.768-3.083c0.575-0.642,1.25-1.268,2.019-1.908c-4.241,5.108-7.019,10.896-7.395,15.965l-0.047,1.263
		c0,3.899,1.409,7.249,4.075,9.69l2.101,1.922l0.945-2.685c1.195-3.396,2.805-6.189,4.833-8.619
		c-3.544,5.27-5.859,11.941-5.859,17.704c0,2.894,0.548,5.332,1.629,7.246c0,0,0.316,0.561,0.438,0.777
		c-1.375,1.971-2.283,5.015-2.283,7.367c0,0.652,0.069,1.247,0.215,1.752c0.47,1.615,1.099,2.674,1.558,3.446l0.455,0.873
		c0.038,0.194,0.055,0.401,0.055,0.62c0,0.735-0.19,1.588-0.374,2.421c-0.193,0.863-0.373,1.666-0.373,2.456
		c0,0.187,0.01,0.373,0.031,0.557c0.141,1.164,0.596,2.092,1.308,2.806c-0.017,0.181-0.099,1.053-0.099,1.053
		c-0.007,0.089-0.011,0.187-0.011,0.291c0,1.731,1.042,5.449,6.064,5.914l4.191,0.389c0,0-0.11-0.149-0.218-0.296
		c1.279,0.299,2.555,0.314,3.797-0.142l1.658-0.612l-0.507-1.692c-0.523-1.752-1.174-2.867-1.682-3.578
		c0.564-0.514,0.896-1.227,0.896-1.984c0,0-0.006-0.054-0.008-0.07c0.155,0.006,0.255,0.012,0.368,0.016
		c1.123,1.904,4.259,3.731,7.382,3.491l2.586-0.197l-1.171-2.718l-0.356-0.869c-0.453-1.191-1.141-3.003-2.417-4.297
		c-0.001,0-0.305-0.262-0.444-0.382c-0.028-0.192-0.175-1.194-0.175-1.194s-0.028-0.1-0.069-0.242
		c1.288,1.299,3.103,2.045,4.357,2.513l3.077,1.19l0.137-2.628c0.004-0.137,0.006-0.273,0.006-0.404c0-4.799-2.61-6.804-3.646-7.412
		c-0.003-0.227-0.009-0.732-0.009-0.732c-0.015-1.1-0.628-2.221-1.72-3.4c0.879-0.321,1.624-0.83,2.195-1.636
		c0,0,0.165-0.232,0.274-0.388c1.274,0.055,2.469,0.171,3.156,0.858l3.793,3.795l-0.592-5.333c0,0-0.265-1.02-0.427-1.645
		c3.725,0.227,7.172,1.924,7.322,2c0,0,3.151,1.63,3.323,1.719c1.459,4.23,4.196,7.646,8.074,9.814c0,0,1.697,0.952,1.96,1.098
		c0.014,0.349,0.196,4.888,0.196,4.888l0.086,3.238c-0.483,4.123-1.757,11.331-2.781,17.124l-1.135,6.579
		c-0.289,1.835-0.974,3.042-1.931,3.4c-0.992,0.374-2.38-0.07-3.714-1.189l-0.533-0.447c-3.446-2.898-7.723-6.446-12.262-2.996
		c-0.05-0.04-0.221-0.175-0.221-0.175l-0.87,0.193c-1.763,0.389-4.948,2.091-4.375,5.748l0.284,1.814l1.819-0.238
		c0.966-0.128,1.865-0.33,2.519-0.527c-0.136,0.115-0.328,0.175-0.446,0.306c-0.928,1.032-1.335,2.402-1.335,3.7
		c0,1.154,0.321,2.254,0.882,3.01l1.392,1.881c0,0,1.714-1.967,1.715-1.967c0.001,0,0.437-0.441,0.437-0.441l1.919-0.798
		c0.026-0.013,0.593-0.528,0.934-0.839c0.063,0.06,0.134,0.125,0.134,0.125s0.196,0.114,0.387,0.227
		c-0.783,1.121-1.321,2.668-1.321,4.052c0,0.04,0,0.079,0.001,0.116c0.031,1.476,0.618,2.653,1.654,3.314l1.456,0.931l1.05-1.376
		c0,0,0.526-0.652,0.798-0.989c0.287,0.173,0.844,0.509,0.844,0.509c1.056,0.637,2.75,0.906,5.212,1.242
		c1.042,0.142,2.469,0.335,2.871,0.506c4.056,1.723,7.245,0.984,8.532-1.978c0.523-1.209,0.672-1.182,1.386-1.063
		c0.609,0.104,2.228,0.379,3.117-1.127c6.684-11.326,10.748-21.821,12.347-26.302c0.187,0.259,0.377,0.521,0.377,0.521l1.597,3.074
		l1.709-3.014c0.498-0.878,0.751-2.066,0.751-3.533c0-1.095-0.167-2.351-0.475-3.844c1.376,0.319,2.685,0.264,3.971-0.275
		l3.541-1.483c0,0-2.149-1.215-2.831-1.601c1.356-0.135,2.448-0.524,3.086-1.317l1.773-2.207l-2.72-0.78
		c-0.211-0.06-0.721-0.514-1.262-1.132c8.721,2.19,10.919-0.464,11.139-0.781l1.366-1.97c0,0-1.578-0.607-1.972-0.759
		c1.894-0.264,3.473-0.695,4.6-1.421c0,0,0.087-0.06,0.164-0.111c0.116,0.203,0.241,0.417,0.241,0.417
		c0.018,0.034,2.012,3.357,8.34,5.388c0.031,0.242,0.095,0.744,0.095,0.744c1.017,7.838,7.198,13.706,10.91,16.583
		c0,0.003-0.005,0.019-0.005,0.019c-1.272,4.747-6.868,11.694-14.733,15.216c-6.843,3.063-10.343,6.267-11.018,10.082l-0.206,1.177
		c0.008-0.068-0.094,0.07-0.094,0.07c-0.578,0.911-1.194,2.473-1.194,4.126c0,1.677,0.603,3.114,1.79,4.27l1.827,1.781l1.163-2.272
		c0.744-1.458,1.245-1.83,1.311-1.875c0.321-0.069,0.871-0.187,0.871-0.187s0.088-0.285,0.104-0.331
		c0.303,0.619,0.999,2.031,0.999,2.031s0.519-1.355,0.751-1.957c0.306,0.818,0.723,1.537,1.347,2.054l2.15,1.774l0.842-2.656
		c0.242-0.766,0.74-1.801,0.904-1.994c-0.015,0.015,0.282-0.352,0.543-0.676c0.151,0.397,0.434,1.15,0.434,1.15l1.797-0.754
		c1.313-0.548,2.349-1.549,2.462-1.66c0,0,0.062-0.058,0.115-0.114c0.685,0.541,1.462,0.922,2.345,1.078l2.576,0.456l-0.386-2.586
		c-0.053-0.362-0.075-0.684-0.075-0.964c0-0.377,0.063-0.542,0.112-0.775c0.034-0.011,1.149-0.344,1.149-0.344
		c2.548-0.762,6.159-3.77,8.044-6.119c0.532-0.665,0.857-1.326,1.059-1.979c0.969,0.84,2.439,1.654,4.484,1.425
		c0,0,1.338-0.148,1.497-0.165c0.153,0.074,0.668,0.325,0.668,0.325l2.138,0.796l0.376-2.25c0.373-2.24,1.237-3.592,1.244-3.607
		c0,0,0.193-0.291,0.348-0.526c0.007,0.006,0.462,0.323,0.462,0.323s0.128-0.977,0.186-1.419c0.197,0.613,0.306,1.256,0.665,1.799
		c0.911,1.374,2.113,2.161,3.302,2.158l3.13-0.008l-1.476-2.761c-0.428-0.8,0.214-2.332,0.572-2.909l-0.107,0.268l1.052-0.119
		c5.178-0.586,17.858-16.752,19.757-26.877c0.514-2.739,0.765-5,0.765-6.905c0-2.541-0.453-4.426-1.381-5.761
		c-1.308-1.88-3.139-2.196-4.352-2.405l-0.355-0.061c-0.956-0.183-1.292-0.545-1.492-0.875c-0.288-0.473-0.434-1.177-0.434-2.091
		c0-1.325,0.312-3.054,0.931-5.137l0.79-2.427c1.069-3.168,2.4-7.114,2.4-11.108c0-1.969-0.372-3.88-1.107-5.68
		c0.022,0.133,0.104-1.664,0.104-1.664c-0.209-2.16-1.419-4.301-3.504-6.411c0.024,0.004,0.808,0.098,0.808,0.098l-2.378-3.439
		c-0.706-1.021-1.759-2.101-3.106-3.263c0.706-0.132,1.392-0.269,1.911-0.566c2.086-1.194,3.389-3.499,4.357-7.707l0.282-2.471
		c0-7.869-8.208-14.259-12.801-15.626c-7.261-2.159-14.512-1.539-20.91-0.992c-3.42,0.292-6.645,0.567-9.427,0.37
		c-6.146-0.433-10.486-2.868-11.905-6.679c-0.906-2.43-0.366-5.037,1.407-6.801c2.483-2.472,6.72-2.836,11.645-1.047
		c-0.012,0.077-0.046,0.291-0.046,0.291c0,1.558,0.41,3.126,1.19,4.531c1.413,2.554,3.922,4.408,6.709,4.96
		c2.626,0.52,3.813,0.18,4.861-0.119c0.003-0.001,2.026-0.288,2.026-0.288c1.11,0.027,1.646,0.449,2.458,1.086
		c1.243,0.977,3.119,2.453,6.843,1.001l2.587-1.009c0,0-0.361-0.387-0.37-0.396c0.9,0.028,1.781-0.144,2.764-0.425l5.359-1.204
		l-0.695-2.07c-0.254-0.62-0.591-1.119-0.935-1.62c0.105-0.001,0.212-0.001,0.212-0.001l-0.622-2.34
		c-1.375-5.175-5.016-6.029-7.673-6.652c-0.961-0.225-1.868-0.437-2.447-0.809l-1.388-1.222c-1.582-1.505-3.758-3.575-6.6-4.004
		c-3.486-0.528-7.81,0.057-9.752,3.144c-9.669-3.203-17.804-2.36-22.91,2.412c-4.255,3.979-5.674,10.248-3.613,15.974
		c2.432,6.758,8.92,11.099,17.356,11.612c0.015,0.001,9.032,0.105,9.032,0.105c7.547-0.038,17.865-0.09,21.684,1.6
		c3.554,1.574,4.843,4.188,4.541,6.083c-0.312,1.97-2.347,3.336-5.442,3.654c-0.773,0.079-2.721-0.298-4.783-0.698
		c-6.656-1.288-17.792-3.443-30.331,0.106c-12.558,3.554-29.464,5.458-39.318,1.851c1.278-1.048,2.201-2.352,2.621-3.976
		l0.285-1.104l-0.847-0.764c0,0-0.086-0.073-0.171-0.146c0.151-0.132,0.303-0.263,0.303-0.263c0.433-0.646,0.897-1.798,0.897-3.196
		c0-0.814-0.158-1.71-0.57-2.638l-1.388-3.118c0,0-3.549,5.316-4.044,6.058c0.009-0.128,0.037-0.258,0.037-0.384
		c0-2.409-1.728-4.516-1.949-4.774c0,0-0.273-0.319-0.381-0.447c0.078-0.045,2.838-1.632,2.838-1.632
		c2.574-1.48,3.162-3.666,3.22-3.912c0,0,0.018-0.073,0.033-0.135c0.778,0.02,1.465-0.087,2.129-0.239
		c-0.011,0.213-0.026,0.411-0.026,0.66c0,0.582,0.039,1.246,0.158,1.917l0.501,2.821l2.389-1.581
		c2.232-1.477,2.641-3.314,2.68-3.519l0.005,0.008c1.491-0.655,2.511-2.143,2.8-4.083c0.355-2.385-0.435-4.941-1.922-6.217
		l-1.095-0.938l-1.323,0.912c0,0-0.279,0.19-0.497,0.338c-0.321-0.445-0.64-0.841-0.956-1.178c0.027-0.03,0.142-0.16,0.142-0.16
		l2.019-2.615l-0.157-0.193c-4.053-4.958-6.229-5.619-7.818-6.102c-0.715-0.217-0.955-0.289-1.396-0.797l-0.961-1.13
		c-2.103-2.506-3.494-4.163-9.61-6.81c-0.021-0.008-0.415-0.115-0.449-0.124c-0.069-0.302-0.376-1.673-0.376-1.673
		c-0.606-2.701-3.17-7.566-8.543-6.643c0,0-0.745,0.128-0.9,0.154C155.609,115.811,150.468,117.975,147.25,120.526L147.25,120.526z
		 M167.073,167.751c-0.596-0.584-1.589-1.842-1.533-3.717c0.116-3.915,3.651-9.347,9.143-9.302c1.08,0.008,2.456,0.408,3.999,0.89
		c0.035,0.228,0.094,0.617,0.094,0.617c0.153,0.896,0.25,1.897,0.25,2.485c0,0.158-0.008,0.287-0.022,0.374
		c0,0-0.438,2.611-0.508,3.03c-0.645-0.758-1.809-2.123-1.809-2.123l-0.637,4.044c-0.274,1.74-1.039,3.262-1.126,3.43
		c0,0-0.358,0.677-0.469,0.888c-0.256,0.037-1.323,0.191-1.323,0.191l-3.566,0.419C168.867,169.012,167.856,168.519,167.073,167.751
		L167.073,167.751z"/>
	<path fill-rule="evenodd" clip-rule="evenodd" fill="#FFFFFF" d="M141.289,140.953c-2.478,2.919-4.179,6-7.559,8.222
		c-3.284,2.159-8.43,3.725-11.517,4.998c-1.519-2.891-1.127-11.026,6.267-14.62c0,0,2.505,4.918,5.005,5.016
		c0,0-5.293-5.636-4.138-11.892c0,0,2.766,1.11,6.784,1.012c2.112-0.051,8.821,0.196,10.554,2.651
		c-1.608,0.935-2.891,1.981-3.99,3.078c0,0-4.457-3.867-8.831-3.394C139.414,137.56,141.289,140.953,141.289,140.953
		L141.289,140.953z"/>
	<path fill-rule="evenodd" clip-rule="evenodd" fill="#FFFFFF" d="M218.226,232.373c4.857-2.78,17.076-16.697,27.835-9.814
		c-0.355,7.965,2.19,8.504,2.19,8.504c0.395-0.196,0.411-0.634,0.411-0.634s0.671,3.722,1.412,4.795
		c-6.23,10.394,1.366,16.128,2.42,17.233c-7.914,4.531-12.94,6.899-11.498,13.707c0.153,0.723-2.113,2.721-0.009,5.836
		c0.751,1.111-0.147,2.324-0.588,2.875c-1.847,2.303-5.13,4.9-7.115,5.493c-1.544-2.16-4.107-3.031-4.107-3.031
		s-1.602-2.806,3.25-5.925c-3.43-0.457-5.684,3.904-5.939,6.423c-1.069,2.529-0.61,4.793,0.181,6.242c0,0-0.858,0.844-1.869,1.267
		c-1.733-4.588-4.655-4.703-4.655-4.703s-0.999-3.561,3.467-5.294c-5.74-0.667-6.196,5.925-6.206,6.876
		c-0.008,0.951-0.867,3.212-0.867,3.212s-1.363-2.865-4.5-3.764c0.49-2.776,3.173-5.663,9.933-8.689
		c8.755-3.92,14.448-11.469,15.783-16.45c1.009-0.016,2.119-0.016,2.119-0.016s-11.63-6.926-12.977-17.309
		c0,0,2.392-0.137,3.467-1.176C220.731,236.715,218.226,232.373,218.226,232.373L218.226,232.373z"/>
	<path fill-rule="evenodd" clip-rule="evenodd" fill="#FFFFFF" d="M180.632,155.928c0,0,0.409,2.398,0.228,3.482
		c1.949-1.121,2.327-2.714,2.327-2.714C181.755,156.305,180.632,155.928,180.632,155.928L180.632,155.928z"/>
	<path fill-rule="evenodd" clip-rule="evenodd" fill="#FFFFFF" d="M189.106,156.133c0,0,0.662,0.05,1.107,0.111
		c0.437,0.11,0.823,0.452,0.823,0.452s-0.239,1.226-1.872,2.307C188.91,157.579,189.106,156.133,189.106,156.133L189.106,156.133z"
		/>
	<path fill-rule="evenodd" clip-rule="evenodd" fill="#FFFFFF" d="M176.585,168.36c0,0,2.205-0.026,2.769,0.097
		c0.392-1.959-1.445-4.115-1.445-4.115C177.565,166.523,176.585,168.36,176.585,168.36L176.585,168.36z"/>
	<path fill-rule="evenodd" clip-rule="evenodd" fill="#FFFFFF" d="M182.822,169.317c0,0,1.825,0.563,2.021,0.758
		c0,0,1.127-1.715,0.123-3.969C184.108,167.528,182.822,169.317,182.822,169.317L182.822,169.317z"/>
	<path fill-rule="evenodd" clip-rule="evenodd" fill="#FFFFFF" d="M140.389,214.777c-2.396-0.033-3.523,2.368-6.365,2.025
		c-5.017-0.606-8.262-1.962-12.937,1.911c-1.716,1.422-3.144,6.177-2.508,8.368c0.695,2.394,1.804,3.364,2.018,4.374
		c0.49,2.303-0.788,4.761-0.603,6.3c0.309,2.57,2.373,2.354,2.373,2.354s-0.005-3.998,1.461-4.57
		c-0.78,4.59,2.098,5.429,2.098,5.429s1.287-2.016,5.43-0.227c0.366-0.318,0.273-0.723,0.273-0.723s-5.396-4.006-2.965-7.916
		c0.657,5.87,4.724,6.066,4.724,6.066s0.539-3.97,4.036-3.986c-0.459-3.121-3.742-4.493-4.198-6.153
		c2.122,0.043,4.517,1.944,4.517,1.944s0.251-3.665,3.513-3.753c-0.028-1.971-3.752-4.323-5.521-5.61
		c1.131-0.183,4.562,1.972,6.342-0.542C140.443,218.322,140.389,214.777,140.389,214.777L140.389,214.777z"/>
	<path fill-rule="evenodd" clip-rule="evenodd" fill="#FFFFFF" d="M121.209,241.991c0,0-0.294,3.749,4.351,4.179
		c-0.7-0.945-1.141-2.929-1.141-2.929s-0.147-0.907-1.495-1.053C122.336,242.139,121.209,241.991,121.209,241.991L121.209,241.991z"
		/>
	<path fill-rule="evenodd" clip-rule="evenodd" fill="#FFFFFF" d="M130.593,242.555c-0.417-0.416-2.155-0.663-2.842-0.613
		c-1.642,0.122-1.526,1.885-1.127,2.475c0.662,0.98,3.088,2.842,5.881,1.813C131.868,244.099,131.01,242.971,130.593,242.555
		L130.593,242.555z"/>
	<path fill-rule="evenodd" clip-rule="evenodd" fill="#FFFFFF" d="M135.298,238.83c0.416,1.274,3.186,3.063,5.821,2.861
		c-0.479-0.607-1.042-3.351-2.555-4.884C136.875,235.095,134.659,236.875,135.298,238.83L135.298,238.83z"/>
	<path fill-rule="evenodd" clip-rule="evenodd" fill="#FFFFFF" d="M141.766,228.319c-1.788-0.694-2.608,2.54-1.421,3.896
		c1.201,1.372,3.602,2.059,4.56,2.465C145.025,230.671,142.967,228.784,141.766,228.319L141.766,228.319z"/>
	<path fill-rule="evenodd" clip-rule="evenodd" fill="#FFFFFF" d="M143.384,215.357c-1.47,0.245-1.176,2.989-0.258,3.492
		c1.777,0.061,3.86,0.061,5.247,1.448C147.99,216.852,145.221,215.051,143.384,215.357L143.384,215.357z"/>
	<path fill-rule="evenodd" clip-rule="evenodd" fill="#FFFFFF" d="M242.979,267.523c-1.732,0.85,0.066,6.567,4.222,6.104
		c-1.216-0.843-1.654-2.734-1.838-4.34C245.234,268.143,244.744,267.981,242.979,267.523L242.979,267.523z"/>
	<path fill-rule="evenodd" clip-rule="evenodd" fill="#FFFFFF" d="M251.765,269.557c0,0-1.893-1.806-2.971-2.034
		c-0.714-0.152-0.922-0.087-1.078,0.556c-1.078,4.475,2.517,5.815,2.517,5.815C250.69,271.15,251.765,269.557,251.765,269.557
		L251.765,269.557z"/>
	<path fill-rule="evenodd" clip-rule="evenodd" fill="#FFFFFF" d="M258.926,266.253c0,0-1.081-1.409-2.873-1.086
		c-1.214,2.846,0.974,5.885,2.236,5.881C257.191,268.994,258.926,266.253,258.926,266.253L258.926,266.253z"/>
	<path fill-rule="evenodd" clip-rule="evenodd" fill="#FFFFFF" d="M214.211,286.836c0,0,0.304-2.479-1.314-3.68
		c-0.496-0.369-0.956-0.294-1.421,0.441c-0.466,0.735-1.96,3.822,0.319,6.042C213.191,286.905,214.211,286.836,214.211,286.836
		L214.211,286.836z"/>
	<path fill-rule="evenodd" clip-rule="evenodd" fill="#FFFFFF" d="M220.052,288.781c0.245-0.773,0.9-2.308,1.348-2.733
		c0.956-0.907,0.907-1.299,0.539-2.132c-0.549-1.245-1.936-1.911-2.548-0.612C218.932,284.275,218.313,287.346,220.052,288.781
		L220.052,288.781z"/>
	<path fill-rule="evenodd" clip-rule="evenodd" fill="#FFFFFF" d="M231.186,280.865c0,0-0.879-1.282-1.357-1.654
		c-0.784-0.613-1.47-0.221-1.862,0.956c-0.181,0.546-0.245,3.822,2.808,4.362C230.417,282.127,231.186,280.865,231.186,280.865
		L231.186,280.865z"/>
	<path fill-rule="evenodd" clip-rule="evenodd" fill="#FFFFFF" d="M147.735,265.531c0,0-3.371,0.743-2.921,3.619
		c1.191-0.155,2.234-0.412,2.564-0.548c0.711-0.294,0.8-0.759,0.809-1.299C148.211,265.906,147.735,265.531,147.735,265.531
		L147.735,265.531z"/>
	<path fill-rule="evenodd" clip-rule="evenodd" fill="#FFFFFF" d="M148.191,276.387c-0.74-0.999-0.764-3.106,0.338-4.331
		c1.999-2.221,5.244,0.931,2.671,2.499c-1.172,0.715-1.568,0.588-2.009,0.857C148.75,275.683,148.431,276.124,148.191,276.387
		L148.191,276.387z"/>
	<path fill-rule="evenodd" clip-rule="evenodd" fill="#FFFFFF" d="M154.943,281.589c-1.537-0.981-0.557-4.583,0.741-5.49
		c3.381-2.36,3.088,2.23,1.765,3.039C156.393,279.782,156.125,280.044,154.943,281.589L154.943,281.589z"/>
	<path fill-rule="evenodd" clip-rule="evenodd" fill="#FFFFFF" d="M192.541,148.192c0,0-0.984,0.835-2.19,1.493
		c-2.322-4.186-3.742-3.573-3.742-3.573c0.145,0.564-0.091,1.176-0.091,1.176s-2.312-0.514-2.965-4.523
		c2.417-0.696,6.89,1.356,6.89,1.356c-5.845-7.148-7.016-4.369-9.177-6.854c-2.733-3.142-3.333-4.607-9.899-7.449
		c-6.854-2.396-14.163-0.874-11.814,4.713c-5.632-4.322,2.601-10.3,9.901-7.824c0,0-1.36-6.066-6.389-5.202
		c0,0,1.76,1.899,1.78,3.211c-7.363-7.901-13.179-5.287-16.426-2.714c2.659-0.123,8.54,2.621,9.354,4.887
		c-9.635-5.255-19.681-1.334-22.038,3.98c6.816-0.07,10.786,3.458,11.817,5.021c2.203-1.024,8.525-1.906,11.453,1.357
		c-11.357-2.529-12.533,3.744-16.649,8.155c-4.117,4.41-11.957,7.35-16.368,9.899c-4.41,2.548-12.545,10.242-11.286,20.576
		c6.68-7.442,18.161-9.763,22.54-14.384c6.193-6.535,11.241-21.237,20.395-18.592c-6.884-0.342-12.211,12.963-13.957,14.997
		c-4.95,5.767-8.911,6.325-16.515,11.451c-11.434,7.71-19.537,23.719-11.139,31.406c6.043-17.162,19.173-16.446,27.017-25.068
		c7.253-7.972,7.066-29.975,22.804-25.548c-14.113,0.392-11.802,15.06-18.109,22.616c-7.438,8.911-12.241,9.694-19.494,16.163
		c-7.783,6.942-11.924,21.269-8.2,27.869c0,0,4.509-2.81,7.383-2.679c5.302,0.241,8.312-0.624,8.312-0.624
		c-4.262-14.927,10.056-20.727,16.925-27.566c9.687-9.644,1.062-20.817,8.669-28.815c-4.471,12.016,1.9,10.644-1.825,20.989
		c-2.273,6.31-5.274,8.001-14.015,15.726c-8.429,7.449-6.971,15.323-6.606,18.309c0,0,2.26-0.111,3.422,0.632
		c0,0,3.347-1.005,6.205,3.755c4.786-0.185,9.489,2.261,9.489,2.261s-1.436-6.368,3.01-13.408c0,0-5.013,3.786-8.486,3.755
		c8.941-5.405,21.29-15.304,19.162-30.533c-3.655-0.158-6.007,3.86-6.752,6.423c0.059-10.307,10.351-10.11,13.596-7.236
		c0,0,5.281-0.326,6.434-4.796c-5.367-4.841-9.863-2.398-15.286-2.126c-2.529,0.127-6.144-2.739-6.022-6.876
		c0.146-4.912,4.496-11.182,11.04-11.129c5.195,0.042,13.231,6.469,16.062-2.035c0.599,1.349-0.228,3.8-0.228,3.8
		s0.925,0.194,1.597,0.724C194.502,154.298,194.309,149.709,192.541,148.192L192.541,148.192z M170.959,139.734
		c-2.598-3.186-5.84-3.121-5.84-3.121c1.968-4.247,7.162-0.62,9.171-1.628c-0.474,1.639-3.149,1.447-3.149,1.447
		s-0.069,0.704-0.501,1.357C170.639,137.789,171.301,138.868,170.959,139.734L170.959,139.734z M175.019,148.871
		c0.3,0.156,0.528,0.483,0.528,0.483s-2.286-0.654-4.407-0.801c0,0,0.846-0.899,2.236-0.543c1.419-4.211,6.483-4.505,7.072-3.754
		C180.024,144.421,176.038,144.323,175.019,148.871L175.019,148.871z"/>
	<path fill-rule="evenodd" clip-rule="evenodd" fill="#FFFFFF" d="M275.551,227.241c-2.709-0.516-4.769-2.679-2.45-10.487
		c1.551-5.219,5.652-13.755,0.793-20.477c0,0,0.683,0,1.323,0.271c-0.45-4.591-7.029-8.458-7.029-8.458s0.502-0.576,2.282-0.362
		c-2.498-3.612-8.714-7.102-8.714-7.102c6.934,2.183,9.801,1.854,11.589-5.926c1.684-7.311-6.447-14.451-11.222-15.871
		c-10.766-3.202-21.743,0.029-29.933-0.549c-21.376-1.509-16.623-25.179,2.19-18.093c0.888-1.058,1.369-0.453,1.369-0.453
		c-1.657,4.344,1.479,9.196,5.939,10.078c3.733,0.739,3.614-0.513,6.567-0.441c4.068,0.098,3.823,4.067,8.573,2.214
		c-4.848-5.105-5.772-7.148-11.513-5.351c-2.95,0.924-6.272,0.49-7.057-2.107c2.108,1.568,3.234,1.568,7.204,0.098
		c6.067-2.247,7.889,2.155,8.772,2.842c6.175,4.802,5.391,2.695,11.174,1.862c-2.254-5.489-5.734-1.127-11.369-6.567
		c-1.547-1.493-3.431-4.018-6.744-3.308c2.922-1.053,5.323-1.201,8.214,2.083c1.59,1.804,3.088,3.676,8.484,3.618
		c-1.574-5.921-6.573-4.598-9.317-6.362c-1.568-1.009-4.018-4.46-7.253-4.95c-2.387-0.362-6.665-0.294-8.114,2.534
		c1.89,1.092,2.236,2.127,2.236,2.127c-33.915-14.855-38.423,23.174-12.647,24.742c7.437,0.453,25.385-0.784,31.364,1.862
		c7.808,3.455,7.871,12.371-1.47,13.329c-3.823,0.392-18.114-5.374-34.794-0.653c-11.04,3.125-29.696,6.044-40.947,1.657
		c-1.458,0.564-2.51,1.131-2.51,1.131c1.117,1.459,0.959,2.623,0.959,2.623c-4.819-4.668-7.682-4.072-7.682-4.072
		c3.397,9.18-2.613,18.263-6.827,21.668c-7.073,5.715-9.378,23.32,2.464,29.944c0,0,1.096-12.375,4.745-13.84
		c-3.191,13.554-1.204,21.893-1.551,24.879c-0.726,6.252-3.227,19.377-3.927,23.827c-0.915,5.817-5.227,6.273-8.711,3.358
		c-3.713-3.107-7.068-6.232-10.677-3.257c0.57,1.075,0.867,3.257,0.867,3.257s5.029-3.422,7.495,0.285
		c-4.818-1.029-5.488,1.569-5.488,1.569s2.041,1.452,2.282,3.663c-0.044,0.077,0.903-0.707,1.932-1.116
		c1.193-2.14,7.4-3.12,9.201,0.213c-5.002-1.47-6.479,0.677-6.479,0.677s2.456,2.884-0.091,6.787
		c1.437,0.867,6.41,1.017,7.847,1.628c0.744,0.317,4.762,2.015,6.069-0.996c1.709-3.94,3.951-1.284,4.609-2.397
		c8.918-15.107,13.094-28.587,13.094-28.587s1.901,0.934,2.921,2.894c1.593-2.81-1.049-10.224-1.049-10.224s2.707,3.232,6.205,1.766
		c-1.799-1.017-3.559-3.846-3.559-3.846s5.288,1.653,6.616,0c-1.98-0.57-6.162-5.208-3.679-11.579
		c1.067-2.737,3.79-9.245,1.763-15.155c3.724,3.229,2.88,10.655,1.438,13.226c-2.418,4.312-1.935,8.202-0.161,8.668
		c7.544,1.984,9.489,0.044,9.489,0.044s-3.317-1.263-4.591-3.255c1.078,0,6.371,0.36,9.115-1.405
		c10.098-6.492,15.682-17.316,30.748-10.718c0.07-1.929-0.429-8.95-9.036-13.255c9.914,0.516,11.22,11.232,11.042,13.752
		c-0.236,3.34-0.206,6.051,0,7.237c0,0,1.812-2.243,3.056-1.583c-2.095,8.619,6.204,14.761,14.328,15.063
		c-0.533,0.662-1.871,0.724-1.871,0.724s-1.483,6.031-7.789,9.396c-3.754,2.004-14.015,6.615-12.013,13.991
		c0.913,0.135,1.78,0.135,1.78,0.135s-0.401-7.363,6.459-7.266c-5.587,3.48-3.813,6.632-3.813,6.632s2.882,0.327,4.61,1.537
		c0.11-0.847,0.918-1.995,1.277-2.894c0.361-0.902-0.211-2.727-0.162-2.923c0.371-1.476,3.137-6.91,7.743-6.076
		c-7.596,3.773-5.026,7.732-5.026,7.732s3.409,0.158,4.744,2.625c4.04-0.458,16.258-15.421,18.12-25.352
		C281.732,227.603,277.845,227.677,275.551,227.241L275.551,227.241z M183.813,258.017c2.287-5.619,1.791-11.711,1.791-11.711
		S190.217,252.528,183.813,258.017L183.813,258.017z M216.995,217.357c-4.04,4.069-8.123,3.979-8.123,3.979
		s7.611-3.179,10.45-12.213c0.362,2.044-0.365,5.203-0.365,5.203s4.843-0.284,7.161-6.469
		C226.12,207.857,226.807,214.892,216.995,217.357L216.995,217.357z M240.812,198.268c0,0,8.668,0.027,8.717,9.678
		C246.606,200.974,240.812,198.268,240.812,198.268L240.812,198.268z M275.444,240.154c-0.089,4.467-2.508,6.332-2.508,6.332
		s1.897-5.458-0.23-8.458c0.821,0.123,1.688,1.039,1.688,1.039s1.877-1.96,0.413-6.15
		C278.558,235.8,275.444,240.154,275.444,240.154L275.444,240.154z"/>
	<path fill-rule="evenodd" clip-rule="evenodd" fill="#A23A34" d="M329.886,203.878V192.47h-18.527
		c-1.291-26.111-11.443-50.614-28.998-69.998l13.103-13.102l-8.066-8.066l-13.104,13.103
		c-19.387-17.561-43.862-27.709-69.997-28.999V66.881h-11.408v18.53c-26.842,1.344-51.238,12.105-69.957,29.036l-13.144-13.143
		l-8.067,8.066l13.143,13.143c-16.932,18.719-27.694,43.119-29.036,69.957H67.301v11.408h18.525
		c1.292,26.111,11.444,50.614,28.999,69.999l-13.102,13.102l8.066,8.066l13.104-13.103c19.385,17.563,43.862,27.71,69.997,28.999
		v18.526h11.408v-18.529c26.841-1.345,51.238-12.105,69.955-29.035l13.146,13.142l8.066-8.066l-13.143-13.143
		c16.933-18.719,27.694-43.119,29.038-69.957H329.886L329.886,203.878z M198.634,298.064c-26.872,0.012-52.094-10.478-71.022-29.535
		c-18.695-18.823-28.997-43.792-29.008-70.311c-0.022-55.079,44.814-99.91,99.947-99.934c26.873-0.012,52.096,10.478,71.024,29.535
		c18.694,18.823,28.996,43.793,29.008,70.312C298.605,253.209,253.768,298.04,198.634,298.064L198.634,298.064z"/>
	<path fill-rule="evenodd" clip-rule="evenodd" fill="#FFFFFF" d="M96.116,66.217l4.138-1.741c0.635,1.171,1.007,2.286,1.116,3.349
		c0.108,1.062-0.036,2.059-0.431,2.992c-0.396,0.933-1.122,1.859-2.18,2.779c-1.293,1.125-2.525,1.838-3.696,2.14
		c-1.172,0.303-2.502,0.198-3.99-0.314c-1.487-0.511-2.928-1.569-4.323-3.173c-1.861-2.138-2.768-4.235-2.72-6.295
		c0.047-2.058,1.022-3.916,2.925-5.572c1.493-1.299,2.954-1.991,4.383-2.076c1.427-0.086,2.944,0.373,4.549,1.374l-2.555,3.597
		c-0.453-0.296-0.82-0.48-1.102-0.555c-0.471-0.126-0.925-0.142-1.365-0.048c-0.44,0.094-0.844,0.302-1.214,0.624
		c-0.828,0.72-1.146,1.636-0.953,2.746c0.134,0.832,0.705,1.825,1.71,2.981c1.245,1.431,2.299,2.239,3.159,2.424
		c0.861,0.185,1.651-0.037,2.371-0.664c0.698-0.606,1.038-1.279,1.023-2.02C96.944,68.027,96.664,67.177,96.116,66.217
		L96.116,66.217z"/>
	<polygon fill-rule="evenodd" clip-rule="evenodd" fill="#FFFFFF" points="95.547,53.817 99.069,51.244 109.175,65.072 
		105.654,67.646 95.547,53.817 	"/>
	<path fill-rule="evenodd" clip-rule="evenodd" fill="#FFFFFF" d="M121.471,57.11l-3.46,2.164l-1.072-1.714
		c-0.077,1.023-0.286,1.847-0.623,2.471c-0.337,0.624-0.89,1.176-1.657,1.656c-1.019,0.638-2.027,0.805-3.021,0.504
		c-0.994-0.302-1.923-1.143-2.787-2.524l-4.189-6.699l3.718-2.325l3.616,5.783c0.412,0.66,0.818,1.058,1.217,1.194
		c0.398,0.136,0.8,0.078,1.204-0.175c0.444-0.277,0.694-0.691,0.747-1.238c0.055-0.548-0.218-1.302-0.816-2.258l-3.164-5.059
		l3.699-2.313L121.471,57.11L121.471,57.11z"/>
	<path fill-rule="evenodd" clip-rule="evenodd" fill="#FFFFFF" d="M124.198,46.201c0.126-0.598,0.457-1.031,0.992-1.299
		c0.443-0.222,0.924-0.206,1.442,0.048c0.518,0.253,0.998,0.819,1.437,1.695c0.498,0.995,0.692,1.783,0.583,2.364
		c-0.108,0.581-0.398,0.99-0.87,1.225c-0.506,0.253-1.032,0.25-1.582-0.01c-0.548-0.26-1.061-0.868-1.538-1.821
		C124.225,47.534,124.072,46.8,124.198,46.201L124.198,46.201z M123.546,55.946l3.662-1.833l-0.824-1.645
		c0.847,0.436,1.55,0.67,2.109,0.703c0.726,0.036,1.431-0.118,2.116-0.461c0.804-0.402,1.42-0.996,1.849-1.78
		c0.427-0.785,0.597-1.732,0.51-2.842c-0.088-1.109-0.436-2.27-1.042-3.481c-0.91-1.816-2.015-3.006-3.315-3.57
		c-1.3-0.563-2.573-0.534-3.816,0.09c-0.608,0.304-1.104,0.692-1.488,1.164c-0.385,0.471-0.661,1.028-0.829,1.67l-2.657-5.304
		l-3.943,1.976L123.546,55.946L123.546,55.946z"/>
	<path fill-rule="evenodd" clip-rule="evenodd" fill="#FFFFFF" d="M140.879,41.645l4.274-1.744c0.353,0.747,0.741,1.277,1.165,1.589
		c0.699,0.501,1.49,0.606,2.371,0.316c0.659-0.218,1.111-0.554,1.355-1.007c0.245-0.454,0.293-0.904,0.147-1.349
		c-0.14-0.422-0.433-0.744-0.88-0.966c-0.448-0.221-1.339-0.277-2.672-0.165c-2.184,0.17-3.84-0.014-4.969-0.553
		c-1.145-0.533-1.926-1.437-2.346-2.71c-0.276-0.836-0.314-1.699-0.117-2.589c0.199-0.891,0.676-1.696,1.431-2.417
		c0.754-0.72,1.908-1.338,3.462-1.85c1.901-0.627,3.481-0.72,4.737-0.279c1.258,0.441,2.26,1.472,3.008,3.093l-4.259,1.712
		c-0.36-0.692-0.78-1.143-1.26-1.354c-0.479-0.21-1.045-0.208-1.697,0.007c-0.533,0.176-0.895,0.433-1.087,0.771
		c-0.192,0.339-0.229,0.686-0.112,1.041c0.086,0.26,0.278,0.455,0.576,0.586c0.287,0.144,0.867,0.175,1.742,0.091
		c2.176-0.193,3.779-0.19,4.808,0.008c1.03,0.198,1.862,0.589,2.498,1.175c0.636,0.586,1.102,1.323,1.394,2.211
		c0.345,1.044,0.397,2.092,0.158,3.148c-0.239,1.055-0.759,1.966-1.559,2.735c-0.802,0.769-1.926,1.392-3.377,1.871
		c-2.539,0.837-4.472,0.885-5.8,0.142C142.544,44.416,141.546,43.245,140.879,41.645L140.879,41.645z"/>
	<path fill-rule="evenodd" clip-rule="evenodd" fill="#FFFFFF" d="M160.995,32.748c0.265-0.546,0.67-0.879,1.214-1.002
		c0.515-0.116,0.998,0.016,1.45,0.397c0.451,0.379,0.787,1.058,1.007,2.036c0.239,1.061,0.239,1.85,0.001,2.369
		c-0.238,0.52-0.606,0.835-1.104,0.946c-0.568,0.128-1.092,0.003-1.572-0.374c-0.479-0.377-0.827-1.044-1.041-1.998
		C160.716,34.084,160.731,33.292,160.995,32.748L160.995,32.748z M163.376,45.749l-1.305-5.8c0.535,0.383,1.1,0.635,1.696,0.756
		c0.596,0.122,1.226,0.108,1.889-0.041c1.357-0.305,2.361-1.087,3.011-2.346c0.65-1.26,0.749-2.896,0.296-4.908
		c-0.411-1.823-1.162-3.262-2.257-4.316c-1.094-1.054-2.388-1.415-3.883-1.078c-0.755,0.17-1.402,0.503-1.938,0.999
		c-0.405,0.371-0.798,0.995-1.178,1.871l-0.405-1.802l-3.995,0.898l3.764,16.734L163.376,45.749L163.376,45.749z"/>
	<path fill-rule="evenodd" clip-rule="evenodd" fill="#FFFFFF" d="M175.409,29.943c0.343-0.582,0.833-0.914,1.471-0.997
		c0.599-0.078,1.133,0.118,1.605,0.585c0.472,0.467,0.777,1.233,0.916,2.296c0.148,1.141,0.056,1.995-0.277,2.564
		c-0.334,0.568-0.815,0.893-1.444,0.974c-0.622,0.082-1.171-0.113-1.646-0.585c-0.476-0.471-0.785-1.253-0.928-2.347
		C174.966,31.354,175.067,30.524,175.409,29.943L175.409,29.943z M173.458,37.62c1.253,0.858,2.788,1.168,4.606,0.931
		c2.042-0.266,3.562-1.077,4.557-2.435c0.996-1.359,1.371-2.983,1.125-4.875c-0.218-1.682-0.867-3.039-1.946-4.069
		c-1.346-1.277-3.153-1.768-5.419-1.473c-1.981,0.257-3.475,1.07-4.482,2.437c-1.006,1.367-1.387,2.989-1.143,4.865
		C171.019,35.018,171.919,36.557,173.458,37.62L173.458,37.62z"/>
	<path fill-rule="evenodd" clip-rule="evenodd" fill="#FFFFFF" d="M185.831,24.966l4.087-0.224l0.112,2.04
		c0.341-0.9,0.71-1.526,1.108-1.88c0.398-0.353,0.905-0.546,1.52-0.58c0.646-0.036,1.362,0.14,2.148,0.528l-1.168,3.474
		c-0.527-0.206-0.937-0.299-1.232-0.284c-0.576,0.031-1.006,0.312-1.289,0.842c-0.411,0.748-0.563,2.113-0.454,4.096l0.228,4.151
		l-4.379,0.24L185.831,24.966L185.831,24.966z"/>
	<path fill-rule="evenodd" clip-rule="evenodd" fill="#FFFFFF" d="M202.666,19.825l-0.044,4.704l2.401,0.022l-0.034,3.48l-2.4-0.022
		l-0.041,4.406c-0.005,0.53,0.037,0.882,0.129,1.054c0.137,0.266,0.385,0.401,0.741,0.404c0.318,0.003,0.768-0.094,1.353-0.291
		l0.282,3.279c-1.075,0.247-2.085,0.366-3.026,0.356c-1.081-0.01-1.878-0.17-2.389-0.478c-0.511-0.308-0.888-0.774-1.131-1.395
		c-0.243-0.621-0.358-1.624-0.345-3.01l0.041-4.367l-1.593-0.015l0.033-3.479l1.592,0.015l0.021-2.27L202.666,19.825L202.666,19.825
		z"/>
	<polygon fill-rule="evenodd" clip-rule="evenodd" fill="#FFFFFF" points="216.735,20.414 223.069,21.341 223.985,32.004 
		227.921,22.051 234.239,22.975 231.761,39.921 227.833,39.347 229.725,26.417 224.787,38.902 221.223,38.38 220.075,25.005 
		218.184,37.936 214.256,37.361 216.735,20.414 	"/>
	<path fill-rule="evenodd" clip-rule="evenodd" fill="#FFFFFF" d="M243.011,37.565c-0.15,0.573-0.356,1.016-0.622,1.33
		c-0.263,0.313-0.632,0.54-1.105,0.682c-0.475,0.141-0.947,0.151-1.415,0.027c-0.456-0.118-0.769-0.323-0.939-0.614
		c-0.17-0.289-0.208-0.616-0.115-0.977c0.083-0.317,0.276-0.569,0.576-0.756c0.29-0.182,0.899-0.285,1.827-0.307
		c0.674-0.009,1.335-0.048,1.986-0.119L243.011,37.565L243.011,37.565z M241.079,32.556c0.404-0.15,0.959-0.134,1.658,0.048
		c0.547,0.144,0.901,0.356,1.059,0.638c0.158,0.281,0.164,0.703,0.016,1.265c-0.588,0.088-1.137,0.14-1.645,0.155
		c-0.508,0.016-1.601-0.01-3.28-0.079c-1.396-0.059-2.417,0.141-3.063,0.602c-0.653,0.458-1.1,1.143-1.338,2.056
		c-0.254,0.974-0.129,1.882,0.383,2.725c0.508,0.843,1.426,1.437,2.748,1.783c0.989,0.26,1.902,0.321,2.738,0.185
		c0.609-0.105,1.268-0.376,1.979-0.81c-0.047,0.362-0.065,0.63-0.059,0.806c0.006,0.175,0.047,0.439,0.124,0.793l3.955,1.035
		c-0.089-0.554-0.122-1-0.104-1.337c0.021-0.338,0.104-0.788,0.253-1.354l1.388-5.303c0.147-0.565,0.199-1.185,0.153-1.861
		c-0.045-0.677-0.204-1.232-0.478-1.667c-0.386-0.624-0.943-1.114-1.672-1.471c-0.731-0.356-1.73-0.701-2.999-1.033
		c-0.785-0.206-1.535-0.334-2.248-0.385c-0.714-0.051-1.293-0.01-1.74,0.121c-0.628,0.18-1.142,0.451-1.544,0.814
		c-0.403,0.364-0.777,0.907-1.13,1.632l3.905,1.529C240.441,32.969,240.756,32.672,241.079,32.556L241.079,32.556z"/>
	<path fill-rule="evenodd" clip-rule="evenodd" fill="#FFFFFF" d="M252.193,32.682l3.866,1.342l-0.669,1.931
		c0.657-0.703,1.236-1.144,1.738-1.321c0.502-0.176,1.044-0.163,1.626,0.038c0.611,0.212,1.207,0.646,1.789,1.303l-2.398,2.773
		c-0.409-0.389-0.754-0.633-1.033-0.729c-0.545-0.189-1.051-0.092-1.513,0.292c-0.664,0.536-1.32,1.742-1.971,3.617l-1.361,3.929
		l-4.144-1.437L252.193,32.682L252.193,32.682z"/>
	<path fill-rule="evenodd" clip-rule="evenodd" fill="#FFFFFF" d="M262.068,36.246l4.036,1.654l-4.711,11.495l-4.036-1.654
		L262.068,36.246L262.068,36.246z M265.854,32.369l3.47,1.421l-4.527,1.933l-1.926-0.79L265.854,32.369L265.854,32.369z"/>
	<path fill-rule="evenodd" clip-rule="evenodd" fill="#FFFFFF" d="M276.017,37.26l-2.022,4.248l2.169,1.031l-1.494,3.142
		l-2.169-1.032l-1.893,3.979c-0.23,0.479-0.337,0.815-0.328,1.01c0.012,0.299,0.181,0.526,0.502,0.68
		c0.288,0.136,0.737,0.238,1.351,0.305l-1.125,3.093c-1.081-0.23-2.046-0.547-2.895-0.951c-0.978-0.465-1.633-0.945-1.966-1.44
		c-0.333-0.495-0.48-1.075-0.438-1.741c0.041-0.665,0.36-1.624,0.954-2.876l1.877-3.944l-1.439-0.684l1.494-3.141l1.44,0.684
		l0.974-2.051L276.017,37.26L276.017,37.26z"/>
	<path fill-rule="evenodd" clip-rule="evenodd" fill="#FFFFFF" d="M280.881,39.726l3.828,2.086l-1.547,2.841l-3.83-2.087
		L280.881,39.726L280.881,39.726z M278.629,43.857l3.828,2.086l-5.945,10.909l-3.829-2.088L278.629,43.857L278.629,43.857z"/>
	<path fill-rule="evenodd" clip-rule="evenodd" fill="#FFFFFF" d="M285.894,47.618l3.372,2.277l-1.017,1.509
		c0.907-0.299,1.697-0.413,2.37-0.344c0.671,0.07,1.358,0.34,2.056,0.811c0.755,0.511,1.256,1.06,1.498,1.647
		c0.243,0.587,0.311,1.261,0.202,2.022c1.02-0.288,1.845-0.394,2.476-0.32c0.631,0.073,1.289,0.341,1.973,0.803
		c1.012,0.684,1.582,1.545,1.707,2.585c0.126,1.039-0.283,2.255-1.225,3.65l-4.362,6.46l-3.614-2.44l3.969-5.878
		c0.314-0.466,0.464-0.87,0.45-1.21c0.002-0.517-0.179-0.899-0.54-1.143c-0.427-0.289-0.885-0.352-1.375-0.192
		c-0.488,0.16-0.985,0.613-1.487,1.357l-3.596,5.325l-3.616-2.441l3.828-5.669c0.306-0.452,0.487-0.776,0.546-0.973
		c0.095-0.311,0.104-0.609,0.021-0.894c-0.079-0.286-0.251-0.517-0.51-0.691c-0.415-0.281-0.875-0.341-1.374-0.18
		c-0.501,0.161-1.014,0.632-1.544,1.413l-3.547,5.253l-3.615-2.441L285.894,47.618L285.894,47.618z"/>
	<path fill-rule="evenodd" clip-rule="evenodd" fill="#FFFFFF" d="M305.631,66.718c0.663-0.128,1.237,0.02,1.721,0.444
		c0.453,0.397,0.66,0.927,0.622,1.59c-0.04,0.663-0.412,1.398-1.118,2.205c-0.758,0.865-1.461,1.36-2.107,1.486
		c-0.647,0.126-1.209-0.02-1.685-0.438c-0.472-0.413-0.69-0.953-0.651-1.622c0.038-0.669,0.421-1.418,1.149-2.249
		C304.279,67.316,304.97,66.844,305.631,66.718L305.631,66.718z M298.581,70.329c0.183,1.507,0.966,2.864,2.346,4.072
		c1.55,1.357,3.164,1.96,4.841,1.809c1.677-0.151,3.143-0.943,4.4-2.378c1.117-1.276,1.707-2.66,1.767-4.149
		c0.068-1.855-0.757-3.535-2.478-5.041c-1.502-1.316-3.099-1.9-4.79-1.751c-1.692,0.149-3.161,0.935-4.408,2.359
		C298.921,66.778,298.362,68.471,298.581,70.329L298.581,70.329z"/>
	<polygon fill-rule="evenodd" clip-rule="evenodd" fill="#FFFFFF" points="127.43,357.809 116.479,357.809 114.655,387.8 
		122.138,387.8 123.095,364.91 128.069,387.166 134.456,387.166 140.617,364.91 140.708,364.91 141.255,387.8 149.103,387.8 
		147.551,357.809 136.921,357.809 131.947,376.761 131.765,376.761 127.43,357.809 	"/>
	<path fill-rule="evenodd" clip-rule="evenodd" fill="#FFFFFF" d="M166.076,385.809l0.411,1.991h7.21l-0.319-12.757
		c0-10.584-10.221-9.68-10.221-9.68l-5.703,0.724c-1.867,0.238-3.376,1.267-3.376,1.267l1.368,5.11c0,0,1.254-0.813,2.83-1.176
		l3.421-0.497c0,0,3.755-0.334,3.65,2.081h-1.505c0,0-11.478-0.149-11.361,8.46c0,0,0.027,6.867,7.226,6.87
		c0,0,3.996,0.052,5.868-2.168C165.74,385.838,166.076,385.809,166.076,385.809L166.076,385.809z M162.836,382.669
		c-2.501,0.03-2.418-1.943-2.418-1.943c0-2.989,3.878-2.97,3.878-2.97h1.278v1.72C165.575,382.539,162.836,382.669,162.836,382.669
		L162.836,382.669z"/>
	<path fill-rule="evenodd" clip-rule="evenodd" fill="#FFFFFF" d="M193.407,384.769l0.365,3.031h7.163l-0.182-31.621h-8.121v11.265
		c0,0-1.299-2.081-5.475-2.081c-4.177,0-9.902,2.943-9.902,11.579c0,0-0.109,11.264,9.4,11.264
		C186.655,388.206,191.191,388.175,193.407,384.769L193.407,384.769z M189.392,381.782c-4.076,0-3.918-5.172-3.918-5.172
		c0-4.949,3.534-5.095,3.534-5.095c3.43,0,3.624,2.804,3.624,2.804l-0.091,4.931C192.103,381.694,189.392,381.782,189.392,381.782
		L189.392,381.782z"/>
	<path fill-rule="evenodd" clip-rule="evenodd" fill="#FFFFFF" d="M216.037,365.363c-11.391,0-11.406,11.671-11.406,11.671
		c0,11.842,12.138,11.172,12.138,11.172c5.072,0,8.212-1.357,8.212-1.357l-0.959-5.383c-11.835,2.259-11.771-1.809-11.771-1.809
		h13.596C228.089,364.72,216.037,365.363,216.037,365.363L216.037,365.363z M218.775,374.228h-6.615c0,0,0.174-3.572,3.556-3.572
		C215.715,370.656,218.775,370.621,218.775,374.228L218.775,374.228z"/>
	<polygon fill-rule="evenodd" clip-rule="evenodd" fill="#FFFFFF" points="237.939,365.861 229.908,365.861 229.908,387.8 
		237.939,387.8 237.939,365.861 	"/>
	<path fill-rule="evenodd" clip-rule="evenodd" fill="#FFFFFF" d="M250.987,376.942V387.8h-8.073l-0.138-21.939h6.842l0.322,3.98
		c0,0,1.586-5.317,7.62-4.298v7.465C257.56,373.008,250.987,371.393,250.987,376.942L250.987,376.942z"/>
	<path fill-rule="evenodd" clip-rule="evenodd" fill="#FFFFFF" d="M238.35,359.409c0,2.274-2.006,4.117-4.481,4.117
		c-2.475,0-4.481-1.843-4.481-4.117c0-2.275,2.006-4.117,4.481-4.117C236.343,355.292,238.35,357.134,238.35,359.409L238.35,359.409
		z"/>
	<path fill-rule="evenodd" clip-rule="evenodd" fill="#FFFFFF" d="M272.712,385.809l0.411,1.991h7.209l-0.318-12.757
		c0-10.584-10.221-9.68-10.221-9.68l-5.703,0.724c-1.868,0.238-3.376,1.267-3.376,1.267l1.367,5.11c0,0,1.256-0.813,2.83-1.176
		l3.421-0.497c0,0,3.755-0.334,3.651,2.081h-1.507c0,0-11.476-0.149-11.36,8.46c0,0,0.028,6.867,7.227,6.87
		c0,0,3.996,0.052,5.868-2.168C272.376,385.838,272.712,385.809,272.712,385.809L272.712,385.809z M269.473,382.669
		c-2.501,0.03-2.418-1.943-2.418-1.943c0-2.989,3.877-2.97,3.877-2.97h1.279v1.72C272.211,382.539,269.473,382.669,269.473,382.669
		L269.473,382.669z"/>
</g>
</svg>
