<?xml version="1.0" encoding="utf-8"?>
<!-- Generator: Adobe Illustrator 19.1.0, SVG Export Plug-In . SVG Version: 6.00 Build 0)  -->
<svg version="1.1" id="Layer_1" xmlns="http://www.w3.org/2000/svg" xmlns:xlink="http://www.w3.org/1999/xlink" x="0px" y="0px"
	 viewBox="0 0 400 400" enable-background="new 0 0 400 400" xml:space="preserve">
<g>
	<path fill="#AF9831" d="M129.322,89.04c20.025,11.5,41.174,22.14,64.239,25.709c17.514,1.917,34.961-2.709,50.955-9.583
		c10.046-4.23,19.364-9.913,28.419-15.927c-2.247,7.798-4.56,15.597-5.354,23.66c-0.727,8.129-0.859,16.39-0.132,24.519
		c39.389-0.066,78.712,0,118.036,0c3.833-0.132,7.865,1.652,9.848,5.023c2.049,3.503,1.85,7.798,0.991,11.566
		c-0.661,3.37-3.371,6.212-6.741,7.005c-4.891,1.19-10.046,0.529-15.002,0.727c0.066,5.287-1.785,11.103-6.08,14.474
		c-6.609,4.098-14.738,3.106-22.074,3.04c-0.066,5.486-3.304,10.839-8.592,12.689c-8.724,3.04-18.109,1.322-27.229,1.917
		c-0.066,4.692-2.38,9.385-6.411,11.962c-3.965,2.313-8.724,1.718-13.086,1.917c-0.661,3.503-1.719,7.138-4.56,9.517
		c-4.692,4.098-11.368,3.965-17.183,3.965c-1.983,4.957-3.106,10.31-5.419,15.134c-5.288,11.434-13.483,21.083-22.074,30.071
		c-13.879,14.671-27.692,29.41-41.372,44.214c-9.98-8.195-19.431-16.986-28.551-26.173c-18.108-17.844-32.516-39.587-41.967-63.247
		c-3.569,0-7.27,0-10.772-0.991c-5.353-1.784-9.649-6.609-10.244-12.293c-5.684-0.396-12.028-0.595-16.522-4.56
		c-2.842-2.313-2.776-6.279-2.908-9.649c-7.534,0-15.134,0.066-22.669,0c-4.56,0.066-8.393-3.106-10.772-6.741
		c-1.52-2.313-1.586-5.155-1.917-7.733c-6.675,0-13.813,0.529-19.827-2.974c-5.287-3.04-7.468-9.12-9.517-14.474
		c-4.825-0.33-9.781,0.397-14.606-0.595c-3.04-0.529-5.419-2.974-6.411-5.816c-0.991-2.908-0.859-6.014-0.727-9.054
		c0.132-3.437,1.917-7.072,5.155-8.394c3.371-1.256,6.939-0.991,10.442-0.991c37.274-0.066,74.549-0.198,111.758-0.198
		c1.586-9.715,2.974-19.496,2.247-29.344C132.031,101.201,130.578,95.187,129.322,89.04L129.322,89.04z"/>
	<path fill="#196031" d="M141.284,105.893c13.548,5.023,27.031,10.508,41.24,13.35c8.46,1.983,17.184,2.908,25.775,1.784
		c18.373-2.115,35.952-8.393,53.07-15.201l-0.33,0.397c-5.419,6.279-10.905,12.491-16.39,18.704
		c-5.75,0.462-11.632,0.793-17.051,2.974c-4.56,1.85-8.856,4.362-13.152,6.741c2.511,5.816,5.419,11.5,6.411,17.778
		c-8.261,9.054-16.192,18.505-24.321,27.692c-16.522,18.901-33.045,37.737-49.501,56.639c-2.776-6.146-5.221-12.425-6.807-18.902
		c-2.313-9.186-3.37-18.637-4.296-28.022c-0.661-5.684-0.859-11.367-1.057-17.051c-0.066-13.35,1.983-26.568,3.701-39.72
		C139.632,124.002,140.425,114.948,141.284,105.893L141.284,105.893z"/>
	<path fill="#FFFFFF" d="M244.648,124.927c5.485-6.213,10.971-12.425,16.39-18.704c0.198,5.023-0.661,9.98-0.859,14.936
		c-0.661,8.394-0.727,16.853,0.066,25.246c0.661,6.807,1.322,13.614,1.388,20.422c0.331,12.293,1.983,24.717,0.066,37.01
		c-2.181,13.879-6.344,27.625-13.813,39.588c-6.08,10.707-15.332,18.968-23.395,28.022c-8.195,8.723-16.522,17.249-25.246,25.313
		c-3.899-3.041-7.931-6.015-11.764-9.253c-6.873-5.618-13.152-11.963-19.298-18.373c-8.988-9.384-15.994-20.554-21.149-32.384
		c16.456-18.902,32.979-37.737,49.501-56.639c8.129-9.187,16.06-18.637,24.321-27.692c1.057,6.279,0.991,13.086-2.115,18.836
		c-1.718,3.239-4.23,5.882-6.477,8.724c2.115,2.577,4.098,5.287,6.279,7.798c2.445-3.238,4.824-6.807,5.948-10.772
		c2.115-6.939,2.181-14.275,2.709-21.413c0.661,0.066,1.256,0.198,1.917,0.33c0.264,4.296-0.529,9.253,2.379,12.887
		c1.719,2.445,5.221,2.313,7.6,0.991c1.454-0.727,1.719-2.512,2.445-3.833c-2.049-0.529-4.098-0.727-6.213-0.727
		c-0.066-1.917-0.264-3.833-0.066-5.684c0.198-2.577,1.718-4.759,2.974-6.873c-1.652-1.851-3.437-3.569-5.221-5.287
		c-1.718,1.388-3.436,2.776-5.287,3.965c-0.462-0.33-1.322-0.926-1.718-1.256c0.132-1.52,0.33-3.04,0.396-4.56
		c4.098-4.032,7.733-8.459,11.434-12.821c1.388,0.198,2.775,0.463,4.164,0.727c-0.859,4.362-2.71,8.459-2.974,12.954
		c-0.33,2.908,2.115,5.816,5.089,5.75c1.916,0.264,4.427-0.264,4.692-2.577c0-3.503-3.767-5.684-3.767-9.186
		c-0.066-2.181,0.132-4.494,1.189-6.411c1.652-2.577,4.693-3.965,5.948-6.807c-0.132-0.793-0.264-1.586-0.462-2.379
		C249.34,124.795,247.027,124.795,244.648,124.927L244.648,124.927z"/>
	<path fill="#AF9831" d="M149.479,124.729c6.874,4.296,12.491,10.244,17.316,16.721c2.776-3.239,5.419-6.741,9.054-9.121
		c3.172-2.049,6.807-3.238,10.376-4.494c0.066,2.379,0.066,4.692,0.066,7.071c-2.379,0.991-4.759,1.983-7.138,2.908
		c-0.198,7.468,0.33,14.936,1.586,22.272c1.057,6.345,4.362,12.028,7.666,17.448c-1.652,2.71-3.635,5.221-5.882,7.534
		c-2.181-4.692-4.164-9.451-5.75-14.408c-2.512-9.054-2.445-18.571-3.106-27.89c-1.718,1.123-3.833,2.181-4.428,4.296
		c-0.397,2.247,0.595,4.362,0.793,6.543c-0.595,0.991-1.652,1.652-2.577,2.445c-2.511-3.701-4.692-7.534-7.27-11.169
		c-0.595,7.799-1.189,15.663-2.577,23.396c-1.19,6.874-4.23,13.218-7.865,19.034c-1.917-2.644-3.767-5.287-5.486-7.997
		c1.652-3.635,3.569-7.072,5.023-10.772c3.767-9.319,5.023-19.496,4.362-29.476c-0.793-2.644-3.304-4.362-4.494-6.873
		C148.686,129.752,149.215,127.174,149.479,124.729L149.479,124.729z"/>
	<path fill="#AF9831" d="M227.597,127.901c5.419-2.181,11.301-2.512,17.051-2.974c2.379-0.132,4.692-0.132,7.072-0.132
		c0.198,0.793,0.33,1.586,0.462,2.379c-1.255,2.842-4.296,4.23-5.948,6.807c-1.057,1.917-1.255,4.23-1.189,6.411
		c0,3.503,3.767,5.684,3.767,9.186c-0.265,2.313-2.776,2.842-4.692,2.577c-2.974,0.066-5.419-2.842-5.089-5.75
		c0.264-4.494,2.115-8.592,2.974-12.954c-1.388-0.264-2.776-0.529-4.164-0.727c-3.503-0.198-7.865-0.661-10.574,2.049
		c-1.652,3.304-0.661,7.204-0.86,10.772c-0.066,1.52-0.264,3.04-0.396,4.56c0.396,0.33,1.256,0.926,1.718,1.256
		c1.851-1.19,3.569-2.578,5.287-3.965c1.785,1.718,3.569,3.436,5.221,5.287c-1.256,2.115-2.776,4.296-2.974,6.873
		c-0.198,1.85,0,3.767,0.066,5.684c2.115,0,4.164,0.198,6.213,0.727c-0.727,1.322-0.991,3.106-2.445,3.833
		c-2.379,1.322-5.882,1.454-7.6-0.991c-2.908-3.635-2.115-8.592-2.379-12.887c-0.661-0.132-1.256-0.264-1.917-0.33
		c-0.529,7.138-0.594,14.474-2.709,21.413c-1.124,3.965-3.503,7.534-5.948,10.772c-2.181-2.511-4.164-5.221-6.279-7.798
		c2.247-2.842,4.759-5.485,6.477-8.724c3.106-5.75,3.172-12.557,2.115-18.836c-0.991-6.279-3.9-11.962-6.411-17.778
		C218.741,132.263,223.037,129.752,227.597,127.901L227.597,127.901z"/>
	<path fill="#196031" d="M227.267,134.774c2.709-2.71,7.071-2.247,10.574-2.049c-3.701,4.362-7.336,8.79-11.434,12.821
		C226.606,141.978,225.615,138.079,227.267,134.774L227.267,134.774z"/>
	<path fill="#AF9831" d="M211.339,216.858c1.586-0.462,3.371,0.661,3.767,2.247c0,3.106-3.37,4.56-4.031,7.336
		c-0.529,2.313-0.991,4.626-1.851,6.874c-1.52-0.463-3.965-0.066-4.494-1.983c-0.859-3.106-0.594-6.345-1.255-9.517
		c-2.247,1.057-5.089,1.388-6.742,3.437c-2.313,2.842-4.428,6.014-4.891,9.715c-0.991,6.807,0.264,13.615,0.132,20.421
		c-0.198,3.503,1.983,6.477,4.23,8.856c1.652,1.785,4.56,1.917,6.477,0.727c2.511-1.983,3.701-5.22,3.899-8.261
		c-0.066-2.511-1.784-4.493-3.106-6.476c2.379-1.983,4.692-3.9,6.939-5.882c0.793,6.08,1.123,12.292-0.066,18.373
		c-1.52,5.023-5.683,9.913-11.235,10.045c-4.097,0.132-7.468-2.512-10.244-5.156c-3.569-3.37-4.032-8.524-5.551-12.887
		c-0.991-2.974-1.983-6.08-1.586-9.252c0.397-5.75,4.23-10.244,5.882-15.531c1.652-4.692,5.023-8.724,9.385-11.037
		c2.115-0.991,4.494-0.595,6.807-0.793C206.382,218.114,208.828,217.32,211.339,216.858L211.339,216.858z"/>
</g>
</svg>
