<?xml version="1.0" encoding="utf-8"?>
<!-- Generator: Adobe Illustrator 19.1.0, SVG Export Plug-In . SVG Version: 6.00 Build 0)  -->
<svg version="1.1" id="Layer_1" xmlns="http://www.w3.org/2000/svg" xmlns:xlink="http://www.w3.org/1999/xlink" x="0px" y="0px"
	 viewBox="0 0 400 400" enable-background="new 0 0 400 400" xml:space="preserve">
<g>
	<path fill-rule="evenodd" clip-rule="evenodd" fill="#0250A4" d="M199.488,14.04c101.115,0,183.56,82.669,183.56,183.782
		c0,101.112-82.446,183.781-183.56,183.781c-101.335,0-183.781-82.669-183.781-183.781C15.707,96.709,98.153,14.04,199.488,14.04
		L199.488,14.04z"/>
	<path fill-rule="evenodd" clip-rule="evenodd" fill="#FDDB00" d="M199.488,26.263c94.448,0,171.338,77.113,171.338,171.559
		c0,94.445-76.891,171.556-171.338,171.556c-94.445,0-171.558-77.11-171.558-171.556C27.93,103.376,105.043,26.263,199.488,26.263
		L199.488,26.263z"/>
	<path fill-rule="evenodd" clip-rule="evenodd" d="M299.978,210.791c0,13.791,11.472,25.013,25.568,25.013
		c14.1,0,25.568-11.222,25.568-25.013c0-13.793-11.468-25.013-25.568-25.013C311.449,185.777,299.978,196.997,299.978,210.791
		L299.978,210.791z"/>
	<polygon fill-rule="evenodd" clip-rule="evenodd" points="345.964,219.331 349.515,214.553 345.964,219.331 	"/>
	<polygon fill-rule="evenodd" clip-rule="evenodd" points="349.301,214.399 349.272,214.437 349.53,214.976 349.73,214.707 
		349.301,214.399 	"/>
	<polygon fill-rule="evenodd" clip-rule="evenodd" points="346.179,219.483 346.379,219.214 345.803,219.214 346.179,219.483 	"/>
	<polygon fill-rule="evenodd" clip-rule="evenodd" fill="#FFFFFF" points="331.03,197.39 319.243,199.744 317.402,205.592 
		322.224,210.958 331.744,209.587 332.17,208.841 335.211,203.34 331.03,197.39 	"/>
	<path fill-rule="evenodd" clip-rule="evenodd" fill="#FFFFFF" d="M343.652,194.67l-0.156,0.204l0.646,7.172l5.157,10.95
		l0.561,0.477c0.107-0.882,0.188-1.774,0.188-2.683C350.048,204.587,347.618,198.933,343.652,194.67L343.652,194.67z"/>
	<path fill-rule="evenodd" clip-rule="evenodd" fill="#FFFFFF" d="M334.591,188.524l0.747,3.257l7.547,2.487l0.204-0.186v-0.002
		C340.707,191.686,337.815,189.782,334.591,188.524L334.591,188.524z"/>
	<path fill-rule="evenodd" clip-rule="evenodd" fill="#FFFFFF" d="M333.68,188.182c-2.547-0.88-5.283-1.363-8.135-1.363
		c-3.792,0-7.384,0.854-10.592,2.366l-0.251,3.92l4.526,5.828l11.918-2.379l3.417-4.528L333.68,188.182L333.68,188.182z"/>
	<path fill-rule="evenodd" clip-rule="evenodd" fill="#FFFFFF" d="M314.111,189.608c-4.504,2.335-8.176,6.003-10.468,10.466
		l2.233,0.28l8.012-7.261L314.111,189.608L314.111,189.608z"/>
	<path fill-rule="evenodd" clip-rule="evenodd" fill="#FFFFFF" d="M305.948,201.16l-2.527-0.316l-0.138-0.018
		c-1.424,3.036-2.224,6.41-2.224,9.964c0,3.132,0.624,6.121,1.744,8.865l2.901-1.045l2.815-12.392L305.948,201.16L305.948,201.16z"
		/>
	<polygon fill-rule="evenodd" clip-rule="evenodd" fill="#FFFFFF" points="321.711,211.59 316.696,206.009 309.226,206.695 
		306.467,218.843 312.945,225.65 320.017,221.34 321.711,211.59 	"/>
	<path fill-rule="evenodd" clip-rule="evenodd" fill="#FFFFFF" d="M320.887,221.846l-1.933,1.079l-5.885,3.586l-1.732,3.765
		c4.012,2.811,8.909,4.484,14.209,4.484c1.173,0,2.321-0.093,3.451-0.249v-8.513L320.887,221.846L320.887,221.846z"/>
	<polygon fill-rule="evenodd" clip-rule="evenodd" fill="#FFFFFF" points="348.546,213.295 343.529,202.645 336.025,203.535 
		332.589,209.753 336.889,218.243 343.905,219.315 348.546,213.295 	"/>
	<path fill-rule="evenodd" clip-rule="evenodd" fill="#FFFFFF" d="M337.047,219.093l-7.24,6.929v8.363
		c5.276-0.909,9.966-3.479,13.506-7.132l0.395-7.165l-6.019-0.919L337.047,219.093L337.047,219.093z"/>
	<path fill-rule="evenodd" clip-rule="evenodd" d="M47.643,210.791c0,13.791,11.47,25.013,25.568,25.013
		c14.098,0,25.568-11.222,25.568-25.013c0-13.793-11.469-25.013-25.568-25.013C59.113,185.777,47.643,196.997,47.643,210.791
		L47.643,210.791z"/>
	<polygon fill-rule="evenodd" clip-rule="evenodd" points="93.628,219.331 97.179,214.553 93.628,219.331 	"/>
	<polygon fill-rule="evenodd" clip-rule="evenodd" points="96.965,214.399 96.937,214.437 97.194,214.976 97.394,214.707 
		96.965,214.399 	"/>
	<polygon fill-rule="evenodd" clip-rule="evenodd" points="93.844,219.483 94.043,219.214 93.467,219.214 93.844,219.483 	"/>
	<polygon fill-rule="evenodd" clip-rule="evenodd" fill="#FFFFFF" points="78.695,197.39 66.908,199.744 65.067,205.592 
		69.887,210.958 79.408,209.587 79.835,208.841 82.875,203.34 78.695,197.39 	"/>
	<path fill-rule="evenodd" clip-rule="evenodd" fill="#FFFFFF" d="M91.316,194.67l-0.156,0.204l0.646,7.172l5.156,10.95l0.561,0.477
		c0.108-0.882,0.189-1.774,0.189-2.683C97.712,204.587,95.282,198.933,91.316,194.67L91.316,194.67z"/>
	<path fill-rule="evenodd" clip-rule="evenodd" fill="#FFFFFF" d="M82.255,188.524l0.747,3.257l7.546,2.487l0.205-0.186v-0.002
		C88.371,191.686,85.48,189.782,82.255,188.524L82.255,188.524z"/>
	<path fill-rule="evenodd" clip-rule="evenodd" fill="#FFFFFF" d="M81.345,188.182c-2.547-0.88-5.285-1.363-8.135-1.363
		c-3.794,0-7.385,0.854-10.593,2.366l-0.251,3.92l4.527,5.828l11.917-2.379l3.418-4.528L81.345,188.182L81.345,188.182z"/>
	<path fill-rule="evenodd" clip-rule="evenodd" fill="#FFFFFF" d="M61.776,189.608c-4.504,2.335-8.176,6.003-10.467,10.466
		l2.233,0.28l8.011-7.261L61.776,189.608L61.776,189.608z"/>
	<path fill-rule="evenodd" clip-rule="evenodd" fill="#FFFFFF" d="M53.612,201.16l-2.527-0.316l-0.138-0.018
		c-1.423,3.036-2.224,6.41-2.224,9.964c0,3.132,0.625,6.121,1.745,8.865l2.9-1.045l2.815-12.392L53.612,201.16L53.612,201.16z"/>
	<polygon fill-rule="evenodd" clip-rule="evenodd" fill="#FFFFFF" points="69.375,211.59 64.361,206.009 56.892,206.695 
		54.132,218.843 60.61,225.65 67.681,221.34 69.375,211.59 	"/>
	<path fill-rule="evenodd" clip-rule="evenodd" fill="#FFFFFF" d="M68.552,221.846l-1.934,1.079l-5.885,3.586L59,230.276
		c4.012,2.811,8.909,4.484,14.21,4.484c1.172,0,2.32-0.093,3.449-0.249v-8.513L68.552,221.846L68.552,221.846z"/>
	<polygon fill-rule="evenodd" clip-rule="evenodd" fill="#FFFFFF" points="96.211,213.295 91.194,202.645 83.691,203.535 
		80.253,209.753 84.553,218.243 91.569,219.315 96.211,213.295 	"/>
	<path fill-rule="evenodd" clip-rule="evenodd" fill="#FFFFFF" d="M84.711,219.093l-7.239,6.929v8.363
		c5.276-0.909,9.967-3.479,13.506-7.132l0.397-7.165l-6.02-0.919L84.711,219.093L84.711,219.093z"/>
	<path fill-rule="evenodd" clip-rule="evenodd" fill="#FFFFFF" d="M196.025,139.608c0,0,2.645-1.821,3.354-2.308
		c0.707,0.487,3.351,2.308,3.351,2.308c29.959,20.617,50.729,13.426,52.433,12.67c0.057-0.015,8.745-2.641,10.239-3.058
		c0.167,1.405,0,6.169,0,6.879c0,4.683-0.413,23.631-6.203,46.849c-8.708,34.917-28.338,62.416-56.768,79.526
		c0,0-2.408,1.449-3.053,1.837c-0.646-0.387-3.054-1.837-3.054-1.837c-28.43-17.109-48.061-44.609-56.77-79.526
		c-5.781-23.18-6.202-42.107-6.202-46.839c0-0.726-0.172-5.493,0-6.889c1.487,0.414,10.182,3.043,10.238,3.058
		C145.298,153.035,166.067,160.224,196.025,139.608L196.025,139.608z"/>
	<path fill-rule="evenodd" clip-rule="evenodd" d="M199.006,136.782l-3.353,2.308c-12.447,8.566-24.723,13.356-36.488,14.236
		c-9.688,0.725-15.253-1.601-15.307-1.624l-0.037-0.018l-0.858-0.258c-2.246-0.677-8.215-2.476-9.433-2.815l-0.729-0.203
		l-0.091,0.736c-0.129,1.04-0.082,3.625-0.025,5.966l0.02,1c0,5.171,0.449,23.844,6.221,46.989
		c8.749,35.081,28.479,62.717,57.058,79.915l3.394,2.042l3.391-2.042c28.579-17.198,48.309-44.834,57.059-79.915
		c5.773-23.152,6.223-41.827,6.223-46.999l0.019-0.981c0.039-1.69,0.111-4.836-0.024-5.971l-0.088-0.741l-0.733,0.205
		c-1.218,0.34-7.165,2.132-9.404,2.807l-0.879,0.264l-0.044,0.02c-0.055,0.024-5.616,2.349-15.307,1.625
		c-11.764-0.881-24.04-5.671-36.488-14.237l-3.724-2.565L199.006,136.782L199.006,136.782z"/>
	<path fill-rule="evenodd" clip-rule="evenodd" fill="#FFFFFF" d="M196.398,140.125c0,0,2.391-1.645,2.981-2.051
		c0.588,0.406,2.979,2.051,2.979,2.051c31.105,21.407,52.074,13.146,53.029,12.747c0.091-0.027,0.815-0.244,0.815-0.244
		c1.921-0.579,6.57-1.98,8.607-2.576c0.013,0.406,0.02,0.886,0.02,1.409c0,1.271-0.034,2.732-0.054,3.629l-0.018,1.01
		c0,5.136-0.447,23.685-6.186,46.699c-8.667,34.751-28.197,62.116-56.48,79.138c0,0-1.931,1.163-2.713,1.632
		c-0.537-0.322-2.715-1.632-2.715-1.632c-28.283-17.022-47.812-44.386-56.48-79.138C134.447,179.79,134,161.244,134,156.109
		l-0.021-1.029c-0.021-0.895-0.055-2.355-0.055-3.624c0-0.522,0.007-1,0.022-1.404c2.038,0.596,6.706,2.004,8.635,2.585
		c0,0,0.696,0.209,0.787,0.235C144.321,153.269,165.294,161.53,196.398,140.125L196.398,140.125z"/>
	<path fill-rule="evenodd" clip-rule="evenodd" d="M250.911,176.724H146.913l0.081,0.85c0.751,7.885,2.08,15.65,3.956,23.076
		c7.744,30.678,23.879,54.195,47.959,69.897l0.44,0.288l0.441-0.288c24.08-15.701,40.214-39.218,47.957-69.897
		c1.875-7.427,3.206-15.191,3.956-23.076l0.079-0.85H250.911L250.911,176.724z"/>
	<path fill-rule="evenodd" clip-rule="evenodd" fill="#FFFFFF" d="M161.574,178.172c-7.554,0-12.524,0-12.902,0
		c0.758,7.516,2.033,14.915,3.821,22c2.287,9.063,5.321,17.488,9.081,25.268V178.172L161.574,178.172z"/>
	<path fill-rule="evenodd" clip-rule="evenodd" fill="#FFFFFF" d="M191.765,178.172c-5.191,0-10.273,0-15.023,0v70.707
		c4.504,5.304,9.516,10.135,15.023,14.483V178.172L191.765,178.172z"/>
	<path fill-rule="evenodd" clip-rule="evenodd" fill="#FFFFFF" d="M237.123,178.172v47.268c3.759-7.778,6.793-16.204,9.082-25.268
		c1.787-7.085,3.064-14.484,3.82-22C249.646,178.172,244.677,178.172,237.123,178.172L237.123,178.172z"/>
	<path fill-rule="evenodd" clip-rule="evenodd" fill="#FFFFFF" d="M221.955,178.172c-4.749,0-9.831,0-15.023,0v85.19
		c5.507-4.348,10.518-9.18,15.023-14.483V178.172L221.955,178.172z"/>
	<path fill-rule="evenodd" clip-rule="evenodd" d="M219.602,153.747h-12.604c-18.194,0-32.944,4.117-32.944,9.196
		c0,5.078,14.75,9.195,32.944,9.195h12.604v1.368H201.99c-20.9,0-37.841-4.73-37.841-10.563c0-5.833,16.941-10.562,37.841-10.562
		h17.612V153.747L219.602,153.747z"/>
	<path fill-rule="evenodd" clip-rule="evenodd" d="M193.742,157.249h-11.611v0.38h-0.101v10.269h5.041v-9.912h3.37
		c11.995,0,21.719,2.22,21.719,4.958c0,2.737-9.724,4.957-21.719,4.957h-8.309v0.737h11.611c13.779,0,24.947-2.55,24.947-5.694
		C218.69,159.799,207.521,157.249,193.742,157.249L193.742,157.249z"/>
	<polygon fill-rule="evenodd" clip-rule="evenodd" points="191.637,175.917 191.637,149.97 194.297,149.97 204.634,170.36 
		204.634,149.97 207.12,149.97 207.12,175.917 204.46,175.917 194.122,155.527 194.122,175.917 191.637,175.917 	"/>
	<path fill="none" stroke="#000000" stroke-width="0.69" stroke-linecap="round" stroke-miterlimit="2.6131" d="M237.942,45.93
		c0,0-3.149,6.046-8.437,1.385"/>
	<path fill-rule="evenodd" clip-rule="evenodd" stroke="#000000" stroke-width="0.345" stroke-miterlimit="2.6131" d="
		M188.082,54.158c2.645-14.989,8.691-14.863,8.691-14.863h-0.03c0,0,6.047-0.126,8.691,14.863H188.082L188.082,54.158z"/>
	<path fill-rule="evenodd" clip-rule="evenodd" stroke="#000000" stroke-width="0.345" stroke-miterlimit="2.6131" d="
		M211.905,53.906c0,0,9.95-10.454,19.775-10.454c0,0,12.596-1.008,14.484,18.264C246.165,61.715,236.088,56.677,211.905,53.906
		L211.905,53.906z"/>
	<path fill-rule="evenodd" clip-rule="evenodd" stroke="#000000" stroke-width="0.345" stroke-miterlimit="2.6131" d="
		M186.744,53.906c0,0-9.95-10.454-19.775-10.454c0,0-12.596-1.008-14.485,18.264C152.484,61.715,162.561,56.677,186.744,53.906
		L186.744,53.906z"/>
	<path fill-rule="evenodd" clip-rule="evenodd" stroke="#000000" stroke-width="0.345" stroke-miterlimit="2.6131" d="
		M310.149,112.6c-3.904-4.66-0.756-12.595-0.756-12.595s1.764-4.03,4.66-4.03c0,0,2.141-0.127,4.283,2.014l18.01,18.138
		c0,0,2.143,1.889,2.143,4.912c0,0,0.629,5.164-4.031,5.164c0,0-3.653,0.504-4.786-1.26v9.699
		C329.672,134.643,314.159,117.386,310.149,112.6L310.149,112.6z"/>
	<path fill-rule="evenodd" clip-rule="evenodd" stroke="#000000" stroke-width="0.345" stroke-miterlimit="2.6131" d="M88.499,112.6
		c3.905-4.66,0.756-12.595,0.756-12.595s-1.764-4.03-4.66-4.03c0,0-2.142-0.127-4.283,2.014l-17.634,17.634
		c0,0-2.519,2.393-2.519,5.416c0,0-0.63,5.164,4.031,5.164c0,0,3.653,0.504,4.786-1.26v9.699
		C68.976,134.643,84.488,117.386,88.499,112.6L88.499,112.6z"/>
	<path fill-rule="evenodd" clip-rule="evenodd" stroke="#000000" stroke-width="0.345" stroke-miterlimit="2.6131" d="
		M199.462,104.036c0,0-39.543-3.531-66.503,34.259c-31.993,44.84-46.604,40.558-46.604,40.558c-24.435,0-26.2-38.793-26.2-38.793
		c7.81-0.756,32.678-32.532,36.528-37.535c12.596-16.374,24.435-24.687,24.435-24.687c37.032-26.702,78.444-24.435,78.444-24.435
		s41.061-2.267,78.092,24.435c0,0,11.84,8.313,24.435,24.687c3.85,5.003,28.717,36.779,36.527,37.535
		c0,0-1.763,38.793-26.198,38.793c0,0-14.611,4.283-46.604-40.558c-26.962-37.79-66.503-34.259-66.503-34.259H199.462
		L199.462,104.036z"/>
	<path fill-rule="evenodd" clip-rule="evenodd" fill="#0250A4" d="M199.646,99.836c-49.038,0-70.701,37.621-70.701,37.621
		c-31.237,42.656-44.002,37.447-44.002,37.447c-16.96-1.343-20.656-32.075-20.656-32.075c10.916-5.208,32.077-33.253,39.13-42.321
		c7.529-9.677,16.459-16.456,16.459-16.456c35.434-28.384,79.77-27.376,79.77-27.376s44-1.008,79.435,27.376
		c0,0,8.931,6.779,16.457,16.456c7.054,9.069,28.214,37.114,39.128,42.321c0,0-3.692,30.732-20.656,32.075
		c0,0-12.76,5.208-43.997-37.447c0,0-21.664-37.621-70.703-37.621H199.646L199.646,99.836z"/>
	<path fill-rule="evenodd" clip-rule="evenodd" fill="#FDDB00" d="M103.058,136.817l3.194-2.879
		c1.647,1.704,2.577,3.467,2.789,5.289c0.212,1.823-0.254,3.702-1.397,5.636c-1.415,2.394-3.394,3.879-5.939,4.454
		c-2.543,0.576-5.233,0.026-8.068-1.649c-2.997-1.771-4.868-3.922-5.61-6.454c-0.743-2.53-0.368-5.059,1.126-7.586
		c1.304-2.207,3.016-3.613,5.135-4.22c1.256-0.365,2.728-0.325,4.414,0.118l-1.273,4.11c-1.063-0.34-2.066-0.331-3.009,0.026
		c-0.943,0.357-1.7,1.02-2.272,1.988c-0.792,1.338-0.954,2.709-0.488,4.108c0.467,1.4,1.774,2.734,3.921,4.004
		c2.28,1.346,4.145,1.895,5.596,1.647c1.451-0.248,2.564-1.027,3.339-2.339c0.571-0.968,0.756-1.979,0.554-3.039
		C104.867,138.969,104.196,137.899,103.058,136.817L103.058,136.817z"/>
	<polygon fill-rule="evenodd" clip-rule="evenodd" fill="#FDDB00" points="114.799,133.21 111.57,130.816 113.965,127.586 
		117.194,129.981 114.799,133.21 	"/>
	<path fill-rule="evenodd" clip-rule="evenodd" fill="#FDDB00" d="M119.994,101.161c1.278-1.132,2.179-1.841,2.706-2.131
		c0.698-0.39,1.4-0.573,2.102-0.548c0.704,0.025,1.448,0.267,2.233,0.728c0.786,0.459,1.715,1.294,2.785,2.503
		c1.071,1.209,1.811,2.258,2.221,3.146c0.408,0.889,0.581,1.634,0.516,2.237c-0.064,0.603-0.293,1.195-0.688,1.772
		c-0.3,0.444-0.888,1.053-1.763,1.828l-2.34,2.074l-9.181-10.362L119.994,101.161L119.994,101.161z M126.938,118.212l5.92-5.245
		c1.162-1.029,1.993-1.962,2.491-2.797c0.663-1.121,1.032-2.19,1.105-3.206c0.099-1.344-0.161-2.758-0.779-4.241
		c-0.506-1.214-1.33-2.464-2.47-3.752c-1.298-1.465-2.559-2.546-3.785-3.243c-1.224-0.698-2.469-1.103-3.732-1.215
		c-1.263-0.113-2.47,0.101-3.624,0.641c-0.855,0.403-1.933,1.179-3.23,2.328l-5.748,5.094L126.938,118.212L126.938,118.212z"/>
	<polygon fill-rule="evenodd" clip-rule="evenodd" fill="#FDDB00" points="144.081,104.195 141.904,100.815 145.284,98.637 
		147.46,102.017 144.081,104.195 	"/>
	<polygon fill-rule="evenodd" clip-rule="evenodd" fill="#FDDB00" points="160.599,94.892 154.496,74.914 158.401,73.721 
		170.725,84.627 166.625,71.209 170.352,70.07 176.454,90.048 172.427,91.278 160.31,80.612 164.326,93.754 160.599,94.892 	"/>
	<path fill-rule="evenodd" clip-rule="evenodd" fill="#FDDB00" d="M187.513,80.5l2.167-7.959l3.557,7.481L187.513,80.5L187.513,80.5
		z M191.501,67.481l-4.429,0.37l-6.323,21.492l4.459-0.374l1.321-4.852l8.389-0.702l2.195,4.558l4.535-0.38L191.501,67.481
		L191.501,67.481z"/>
	<path fill-rule="evenodd" clip-rule="evenodd" fill="#FDDB00" d="M218.107,81.797l3.905,1.798c-0.914,2.187-2.168,3.737-3.759,4.65
		c-1.591,0.914-3.5,1.228-5.728,0.942c-2.758-0.355-4.905-1.587-6.438-3.698c-1.533-2.111-2.089-4.798-1.671-8.064
		c0.445-3.454,1.684-6.022,3.715-7.703c2.032-1.681,4.503-2.336,7.415-1.962c2.542,0.328,4.51,1.345,5.905,3.052
		c0.83,1.01,1.375,2.378,1.634,4.102l-4.278,0.453c-0.108-1.111-0.512-2.029-1.211-2.754c-0.701-0.726-1.608-1.161-2.725-1.304
		c-1.542-0.198-2.865,0.193-3.967,1.174c-1.103,0.982-1.812,2.71-2.13,5.184c-0.338,2.625-0.106,4.556,0.695,5.791
		c0.8,1.235,1.956,1.95,3.468,2.144c1.114,0.144,2.116-0.087,3.011-0.691C216.843,84.309,217.562,83.271,218.107,81.797
		L218.107,81.797z"/>
	<polygon fill-rule="evenodd" clip-rule="evenodd" fill="#FDDB00" points="225.685,91.511 231.501,71.448 235.562,72.625 
		229.745,92.688 225.685,91.511 	"/>
	<path fill-rule="evenodd" clip-rule="evenodd" fill="#FDDB00" d="M246.444,82.097c1.488-0.589,3.01-0.493,4.564,0.289
		c1.554,0.781,2.534,1.936,2.942,3.463c0.407,1.527,0.073,3.362-1.006,5.505c-1.091,2.169-2.391,3.553-3.901,4.153
		c-1.509,0.599-3.016,0.52-4.518-0.235c-1.503-0.756-2.468-1.926-2.894-3.51c-0.427-1.583-0.109-3.435,0.957-5.553
		C243.67,84.057,244.956,82.686,246.444,82.097L246.444,82.097z M237.57,92.621c0.783,2.52,2.565,4.478,5.34,5.875
		c2.742,1.378,5.361,1.629,7.857,0.749c2.495-0.879,4.501-2.828,6.02-5.845c1.531-3.043,1.901-5.834,1.11-8.373
		c-0.792-2.539-2.563-4.5-5.312-5.884c-1.521-0.765-2.986-1.192-4.396-1.285c-1.059-0.074-2.146,0.082-3.26,0.47
		c-1.115,0.387-2.124,0.95-3.026,1.688c-1.22,1.007-2.308,2.461-3.265,4.365C237.14,87.355,236.783,90.102,237.57,92.621
		L237.57,92.621z"/>
	<polygon fill-rule="evenodd" clip-rule="evenodd" fill="#FDDB00" points="255.384,105.179 268.765,89.137 271.902,91.753 
		269.517,108.037 278.505,97.262 281.497,99.758 268.116,115.799 264.882,113.102 267.179,97.122 258.376,107.676 255.384,105.179 	
		"/>
	<path fill-rule="evenodd" clip-rule="evenodd" fill="#FDDB00" d="M281.717,118.624l7.779-2.744l-4.13,7.18L281.717,118.624
		L281.717,118.624z M294.695,114.499l-2.824-3.432l-21.272,7.021l2.842,3.455l4.743-1.672l5.347,6.501l-2.501,4.398l2.892,3.515
		L294.695,114.499L294.695,114.499z"/>
	<polygon fill-rule="evenodd" clip-rule="evenodd" fill="#FDDB00" points="285.747,137.83 302.331,125.402 304.865,128.786 
		291.101,139.1 297.389,147.491 294.57,149.604 285.747,137.83 	"/>
	<path fill="none" stroke="#000000" stroke-width="0.69" stroke-linecap="round" stroke-miterlimit="2.6131" d="M201.379,350.806
		c0,0,4.533-3.023,6.297-7.683 M224.805,347.782c0,0-4.66-0.63-7.305-7.431 M172.158,347.782c0,0,4.66-0.63,7.305-7.431"/>
	<path fill-rule="evenodd" clip-rule="evenodd" stroke="#000000" stroke-width="0.345" stroke-miterlimit="2.6131" d="
		M185.319,344.381c3.023,12.343,14.107,11.965,14.107,11.965h-0.047c0,0,11.083,0.378,14.106-11.965H185.319L185.319,344.381z"/>
	<path fill-rule="evenodd" clip-rule="evenodd" stroke="#000000" stroke-width="0.345" stroke-miterlimit="2.6131" d="
		M215.248,344.004c0,0,0.757,8.061,12.469,8.061c0,0,12.848,1.26,16.121-14.232L215.248,344.004L215.248,344.004z"/>
	<path fill-rule="evenodd" clip-rule="evenodd" stroke="#000000" stroke-width="0.345" stroke-miterlimit="2.6131" d="
		M183.556,344.004c0,0-0.756,8.061-12.47,8.061c0,0-12.847,1.26-16.122-14.232L183.556,344.004L183.556,344.004z"/>
	<path fill-rule="evenodd" clip-rule="evenodd" d="M199.379,345.011c0,0-60.459,2.349-104.796-41.647
		c0,0-22.502-21.833-22.168-39.298c0,0,1.681-22.84,21.834-22.84c0,0,10.745-0.334,14.775,3.696c4.032,4.03,40.979,48.7,90.354,48.7
		c49.374,0,86.321-44.669,90.351-48.7c4.03-4.031,14.777-3.696,14.777-3.696c20.152,0,21.833,22.84,21.833,22.84
		c0.335,17.465-22.167,39.298-22.167,39.298C253.287,348.16,199.379,345.011,199.379,345.011L199.379,345.011z"/>
	<path fill-rule="evenodd" clip-rule="evenodd" fill="#0250A4" d="M199.379,297.652c-49.04,0-82.501-37.483-89.679-46.351
		c-5.713-7.052-15.116-6.046-15.116-6.046c-16.122,0-18.137,19.146-18.137,19.146c2.015,17.802,20.488,34.931,20.488,34.931
		c43.498,43.663,102.445,41.817,102.445,41.817s55.418,1.512,102.443-41.817c0,0,18.471-17.129,20.487-34.931
		c0,0-2.016-19.146-18.137-19.146c0,0-9.404-1.007-15.115,6.046C281.878,260.169,248.417,297.652,199.379,297.652L199.379,297.652z"
		/>
	<polygon fill-rule="evenodd" clip-rule="evenodd" fill="#FDDB00" points="125.897,305.933 135.729,287.502 141.314,290.481 
		137.929,304.824 147.92,294.004 153.503,296.982 143.671,315.414 140.234,313.581 147.955,299.062 136.574,311.627 
		132.993,309.718 137.093,293.268 129.336,307.767 125.897,305.933 	"/>
	<path fill-rule="evenodd" clip-rule="evenodd" fill="#FDDB00" d="M159.372,312.545l5.091-6.489l0.368,8.274L159.372,312.545
		L159.372,312.545z M168.109,302.101l-4.225-1.38l-14.183,17.34l4.252,1.39l3.105-3.955l8.002,2.616l0.249,5.053l4.327,1.416
		L168.109,302.101L168.109,302.101z"/>
	<path fill-rule="evenodd" clip-rule="evenodd" fill="#FDDB00" d="M184.718,309.57c1.693,0.227,2.819,0.445,3.38,0.656
		c0.753,0.273,1.349,0.684,1.79,1.232c0.44,0.55,0.742,1.271,0.908,2.166c0.165,0.895,0.14,2.144-0.075,3.744
		c-0.215,1.602-0.525,2.847-0.931,3.738c-0.405,0.89-0.856,1.509-1.355,1.853c-0.499,0.346-1.096,0.558-1.792,0.637
		c-0.531,0.063-1.376,0.016-2.536-0.139l-3.098-0.416l1.843-13.721L184.718,309.57L184.718,309.57z M176.351,325.967l7.838,1.054
		c1.538,0.207,2.788,0.228,3.746,0.057c1.281-0.23,2.33-0.65,3.149-1.258c1.082-0.805,1.982-1.925,2.701-3.361
		c0.589-1.177,0.995-2.618,1.225-4.322c0.26-1.94,0.254-3.601-0.019-4.985c-0.272-1.383-0.78-2.588-1.519-3.618
		c-0.74-1.029-1.692-1.803-2.853-2.325c-0.866-0.384-2.156-0.692-3.874-0.922l-7.612-1.022L176.351,325.967L176.351,325.967z"/>
	<polygon fill-rule="evenodd" clip-rule="evenodd" fill="#FDDB00" points="202.034,328.472 200.731,307.623 216.161,306.659 
		216.381,310.175 205.171,310.876 205.461,315.509 215.885,314.858 216.106,318.373 205.68,319.025 206.034,324.692 
		217.658,323.967 217.878,327.482 202.034,328.472 	"/>
	<polygon fill-rule="evenodd" clip-rule="evenodd" fill="#FDDB00" points="225.181,326.043 220.906,305.595 225.045,304.73 
		229.318,325.178 225.181,326.043 	"/>
	<path fill-rule="evenodd" clip-rule="evenodd" fill="#FDDB00" d="M235.25,305.597l3.051-1.123c1.585-0.583,2.542-0.911,2.876-0.982
		c0.673-0.125,1.26-0.047,1.758,0.234c0.498,0.282,0.87,0.755,1.114,1.42c0.219,0.593,0.269,1.137,0.151,1.63
		c-0.119,0.493-0.381,0.906-0.788,1.24c-0.408,0.333-1.549,0.845-3.423,1.534l-2.892,1.065L235.25,305.597L235.25,305.597z
		 M241.249,321.894l-3.006-8.168l0.801-0.295c0.908-0.335,1.598-0.506,2.07-0.515c0.472-0.007,0.967,0.116,1.486,0.371
		c0.519,0.256,1.565,0.952,3.135,2.09l4.425,3.237l4.664-1.717l-3.782-2.942c-1.493-1.176-2.625-1.962-3.393-2.357
		c-0.77-0.392-1.668-0.682-2.696-0.87c1.604-0.876,2.655-1.947,3.154-3.222c0.498-1.273,0.477-2.646-0.066-4.121
		c-0.427-1.16-1.091-2.088-1.991-2.78c-0.899-0.695-1.885-1.043-2.96-1.048c-1.074-0.004-2.654,0.375-4.737,1.142l-8.286,3.05
		l7.216,19.604L241.249,321.894L241.249,321.894z"/>
	<path fill-rule="evenodd" clip-rule="evenodd" fill="#FDDB00" d="M261.39,303.891l-1.518-8.108l6.462,5.184L261.39,303.891
		L261.39,303.891z M259.305,290.436l-3.824,2.262l3.676,22.101l3.85-2.279l-0.926-4.944l7.245-4.287l3.961,3.146l3.918-2.317
		L259.305,290.436L259.305,290.436z"/>
</g>
</svg>
