<?xml version="1.0" encoding="utf-8"?>
<!-- Generator: Adobe Illustrator 19.1.0, SVG Export Plug-In . SVG Version: 6.00 Build 0)  -->
<svg version="1.1" id="Layer_1" xmlns="http://www.w3.org/2000/svg" xmlns:xlink="http://www.w3.org/1999/xlink" x="0px" y="0px"
	 viewBox="0 0 400 400" enable-background="new 0 0 400 400" xml:space="preserve">
<path d="M307.324,96.704H111.873v142.204c0.007-0.005,0.004,0.214,0.004,0.214l-0.003,0.289c0,54.245,44.097,98.376,98.299,98.376
	c54.202,0,98.299-44.131,98.299-98.376l-0.007-0.513l0.007-142.194H307.324z M306.177,99.002c0,2.259,0,139.906,0,139.906
	c-0.004,0.006-0.004,0.065-0.004,0.123c0,0.06,0.004,0.381,0.004,0.381c0,52.978-43.067,96.079-96.003,96.079
	s-96.003-43.101-96.003-96.079l0.006-0.498c0,0-0.007-137.652-0.007-139.912C116.424,99.002,303.921,99.002,306.177,99.002z"/>
<path fill="#740000" d="M98.238,137.292c-0.028-0.686-0.016-1.505,0.042-2.421c-1.587,9.989-3.997,28.592-3.149,45.054
	c4.842,4.596,10.37,9.092,16.583,13.011v-37.868C111.714,155.067,98.721,149.279,98.238,137.292z"/>
<g>
	<g>
		<g>
			<path d="M274.236,63.939c0,15.669-13.076,28.369-29.199,28.369c-16.129,0-29.201-12.7-29.201-28.369
				c0-15.665,13.072-28.37,29.201-28.37C261.16,35.569,274.236,48.274,274.236,63.939z M245.036,38.613
				c-14.402,0-26.072,11.341-26.072,25.326c0,13.99,11.67,25.33,26.072,25.33c14.396,0,26.069-11.34,26.069-25.33
				C271.106,49.953,259.432,38.613,245.036,38.613z"/>
			<path d="M213.611,63.939c0,16.869,14.097,30.593,31.425,30.593c17.327,0,31.423-13.724,31.423-30.593
				c0-16.87-14.096-30.594-31.423-30.594C227.708,33.345,213.611,47.069,213.611,63.939z M218.059,63.939
				c0-14.417,12.102-26.146,26.977-26.146c14.874,0,26.975,11.729,26.975,26.146c0,14.417-12.101,26.145-26.975,26.145
				C230.161,90.084,218.059,78.355,218.059,63.939z"/>
			<path d="M216.74,63.939c0,15.193,12.693,27.554,28.296,27.554c15.601,0,28.293-12.361,28.293-27.554
				c0-15.191-12.692-27.55-28.293-27.55C229.434,36.389,216.74,48.748,216.74,63.939z M221.188,63.939
				c0-12.738,10.698-23.102,23.848-23.102c13.148,0,23.845,10.364,23.845,23.102c0,12.741-10.697,23.106-23.845,23.106
				C231.886,87.045,221.188,76.679,221.188,63.939z"/>
			<path d="M202.505,63.934c0,15.671-13.071,28.371-29.199,28.371c-16.126,0-29.201-12.7-29.201-28.371
				c0-15.666,13.075-28.363,29.201-28.363C189.434,35.571,202.505,48.269,202.505,63.934z M173.306,38.609
				c-14.397,0-26.071,11.339-26.071,25.325c0,13.99,11.674,25.331,26.071,25.331c14.401,0,26.071-11.341,26.071-25.331
				C199.378,49.949,187.707,38.609,173.306,38.609z"/>
			<path d="M141.881,63.934c0,16.87,14.097,30.595,31.425,30.595c17.327,0,31.424-13.725,31.424-30.595
				c0-16.866-14.097-30.587-31.424-30.587C155.978,33.348,141.881,47.069,141.881,63.934z M146.329,63.934
				c0-14.413,12.102-26.139,26.977-26.139c14.874,0,26.975,11.726,26.975,26.139c0,14.418-12.101,26.147-26.975,26.147
				C158.431,90.082,146.329,78.352,146.329,63.934z"/>
			<path d="M145.011,63.934c0,15.194,12.693,27.555,28.295,27.555c15.602,0,28.295-12.361,28.295-27.555
				c0-15.191-12.693-27.549-28.295-27.549C157.704,36.386,145.011,48.744,145.011,63.934z M149.459,63.934
				c0-12.738,10.698-23.101,23.848-23.101c13.15,0,23.848,10.363,23.848,23.101c0,12.741-10.698,23.107-23.848,23.107
				C160.157,87.042,149.459,76.676,149.459,63.934z"/>
		</g>
		<g>
			<path d="M309.445,39.764c0,15.666-13.075,28.366-29.2,28.366c-16.126,0-29.2-12.699-29.2-28.366
				c0-15.671,13.074-28.371,29.2-28.371C296.369,11.393,309.445,24.093,309.445,39.764z M280.244,14.436
				c-14.398,0-26.072,11.337-26.072,25.329c0,13.985,11.674,25.324,26.072,25.324c14.398,0,26.071-11.34,26.071-25.324
				C306.316,25.773,294.643,14.436,280.244,14.436z"/>
			<path d="M248.82,39.764c0,16.867,14.096,30.59,31.424,30.59c17.327,0,31.424-13.722,31.424-30.59
				c0-16.87-14.097-30.595-31.424-30.595C262.916,9.17,248.82,22.894,248.82,39.764z M253.268,39.764
				c0-14.417,12.102-26.147,26.976-26.147c14.875,0,26.977,11.73,26.977,26.147c0,14.415-12.101,26.142-26.977,26.142
				C265.37,65.906,253.268,54.179,253.268,39.764z"/>
			<path d="M251.948,39.764c0,15.19,12.694,27.548,28.296,27.548c15.602,0,28.295-12.358,28.295-27.548
				c0-15.192-12.693-27.552-28.295-27.552C264.642,12.212,251.948,24.572,251.948,39.764z M256.396,39.764
				c0-12.74,10.698-23.105,23.849-23.105c13.15,0,23.848,10.365,23.848,23.105c0,12.737-10.698,23.1-23.848,23.1
				C267.094,62.865,256.396,52.502,256.396,39.764z"/>
			<path d="M238.371,39.758c0,15.671-13.076,28.371-29.202,28.371c-16.124,0-29.199-12.701-29.199-28.371
				c0-15.666,13.075-28.363,29.199-28.363C225.295,11.395,238.371,24.092,238.371,39.758z M209.169,14.433
				c-14.397,0-26.068,11.339-26.068,25.325c0,13.991,11.671,25.331,26.068,25.331c14.4,0,26.075-11.34,26.075-25.331
				C235.243,25.772,223.569,14.433,209.169,14.433z"/>
			<path d="M177.746,39.758c0,16.87,14.096,30.595,31.423,30.595c17.328,0,31.426-13.725,31.426-30.595
				c0-16.866-14.098-30.587-31.426-30.587C191.842,9.171,177.746,22.892,177.746,39.758z M182.194,39.758
				c0-14.413,12.101-26.139,26.975-26.139c14.876,0,26.979,11.726,26.979,26.139c0,14.418-12.102,26.147-26.979,26.147
				C194.295,65.905,182.194,54.175,182.194,39.758z"/>
			<path d="M180.877,39.758c0,15.194,12.692,27.555,28.292,27.555c15.604,0,28.298-12.361,28.298-27.555
				c0-15.191-12.694-27.549-28.298-27.549C193.568,12.209,180.877,24.567,180.877,39.758z M185.325,39.758
				c0-12.738,10.697-23.101,23.844-23.101c13.151,0,23.851,10.363,23.851,23.101c0,12.741-10.699,23.107-23.851,23.107
				C196.021,62.865,185.325,52.499,185.325,39.758z"/>
			<path d="M167.297,39.763c0,15.668-13.074,28.368-29.2,28.368c-16.126,0-29.2-12.7-29.2-28.368
				c0-15.666,13.074-28.371,29.2-28.371C154.223,11.392,167.297,24.097,167.297,39.763z M138.097,14.436
				c-14.398,0-26.07,11.341-26.07,25.327c0,13.99,11.671,25.33,26.07,25.33c14.399,0,26.071-11.34,26.071-25.33
				C164.167,25.776,152.496,14.436,138.097,14.436z"/>
			<path d="M106.673,39.763c0,16.869,14.097,30.592,31.424,30.592c17.328,0,31.424-13.724,31.424-30.592
				c0-16.87-14.097-30.594-31.424-30.594C120.769,9.168,106.673,22.893,106.673,39.763z M111.121,39.763
				c0-14.418,12.101-26.147,26.976-26.147c14.875,0,26.976,11.729,26.976,26.147c0,14.416-12.101,26.145-26.976,26.145
				C123.222,65.907,111.121,54.179,111.121,39.763z"/>
			<path d="M109.803,39.763c0,15.193,12.692,27.554,28.293,27.554c15.602,0,28.295-12.36,28.295-27.554
				c0-15.192-12.693-27.551-28.295-27.551C122.495,12.212,109.803,24.571,109.803,39.763z M114.251,39.763
				c0-12.739,10.697-23.103,23.846-23.103c13.149,0,23.847,10.364,23.847,23.103c0,12.74-10.698,23.106-23.847,23.106
				C124.948,62.868,114.251,52.503,114.251,39.763z"/>
		</g>
	</g>
	<g>
		<g>
			<path fill="#EB2D2E" d="M272.63,62.868c0,15.669-13.076,28.369-29.199,28.369c-16.129,0-29.201-12.7-29.201-28.369
				c0-15.665,13.072-28.37,29.201-28.37C259.554,34.499,272.63,47.204,272.63,62.868z M243.431,37.542
				c-14.402,0-26.072,11.341-26.072,25.326c0,13.99,11.67,25.33,26.072,25.33c14.396,0,26.069-11.34,26.069-25.33
				C269.5,48.883,257.827,37.542,243.431,37.542z"/>
			<path fill="#EB2D2E" d="M212.006,62.868c0,16.869,14.097,30.593,31.425,30.593c17.327,0,31.423-13.724,31.423-30.593
				c0-16.87-14.096-30.594-31.423-30.594C226.103,32.275,212.006,45.999,212.006,62.868z M216.454,62.868
				c0-14.417,12.102-26.146,26.977-26.146c14.874,0,26.975,11.729,26.975,26.146c0,14.417-12.101,26.145-26.975,26.145
				C228.555,89.014,216.454,77.285,216.454,62.868z"/>
			<path fill="#EB2D2E" d="M215.135,62.868c0,15.193,12.693,27.554,28.296,27.554c15.601,0,28.293-12.361,28.293-27.554
				c0-15.191-12.692-27.55-28.293-27.55C227.829,35.319,215.135,47.678,215.135,62.868z M219.583,62.868
				c0-12.738,10.698-23.102,23.848-23.102c13.148,0,23.845,10.364,23.845,23.102c0,12.741-10.697,23.106-23.845,23.106
				C230.281,85.975,219.583,75.609,219.583,62.868z"/>
			<path fill="#EB2D2E" d="M200.9,62.864c0,15.671-13.071,28.371-29.199,28.371c-16.126,0-29.201-12.7-29.201-28.371
				c0-15.666,13.075-28.363,29.201-28.363C187.829,34.501,200.9,47.198,200.9,62.864z M171.701,37.539
				c-14.397,0-26.071,11.339-26.071,25.325c0,13.99,11.674,25.331,26.071,25.331c14.401,0,26.071-11.341,26.071-25.331
				C197.772,48.878,186.101,37.539,171.701,37.539z"/>
			<path fill="#EB2D2E" d="M140.276,62.864c0,16.87,14.097,30.595,31.425,30.595c17.327,0,31.424-13.725,31.424-30.595
				c0-16.866-14.097-30.587-31.424-30.587C154.373,32.277,140.276,45.999,140.276,62.864z M144.724,62.864
				c0-14.413,12.102-26.139,26.977-26.139c14.874,0,26.975,11.726,26.975,26.139c0,14.418-12.101,26.147-26.975,26.147
				C156.826,89.011,144.724,77.282,144.724,62.864z"/>
			<path fill="#EB2D2E" d="M143.406,62.864c0,15.194,12.693,27.555,28.295,27.555c15.602,0,28.295-12.361,28.295-27.555
				c0-15.191-12.693-27.549-28.295-27.549C156.099,35.315,143.406,47.674,143.406,62.864z M147.853,62.864
				c0-12.738,10.698-23.101,23.848-23.101c13.15,0,23.848,10.363,23.848,23.101c0,12.741-10.698,23.107-23.848,23.107
				C158.552,85.971,147.853,75.606,147.853,62.864z"/>
		</g>
		<g>
			<path fill="#EB2D2E" d="M307.839,38.694c0,15.666-13.075,28.366-29.2,28.366c-16.126,0-29.2-12.699-29.2-28.366
				c0-15.671,13.074-28.371,29.2-28.371C294.764,10.323,307.839,23.023,307.839,38.694z M278.639,13.366
				c-14.398,0-26.072,11.337-26.072,25.329c0,13.985,11.674,25.324,26.072,25.324c14.398,0,26.071-11.34,26.071-25.324
				C304.71,24.703,293.037,13.366,278.639,13.366z"/>
			<path fill="#EB2D2E" d="M247.215,38.694c0,16.867,14.097,30.59,31.424,30.59c17.327,0,31.424-13.722,31.424-30.59
				c0-16.87-14.097-30.595-31.424-30.595C261.311,8.099,247.215,21.824,247.215,38.694z M251.662,38.694
				c0-14.417,12.102-26.147,26.976-26.147c14.875,0,26.977,11.73,26.977,26.147c0,14.415-12.101,26.142-26.977,26.142
				C263.764,64.836,251.662,53.109,251.662,38.694z"/>
			<path fill="#EB2D2E" d="M250.343,38.694c0,15.19,12.694,27.548,28.296,27.548c15.602,0,28.295-12.358,28.295-27.548
				c0-15.192-12.693-27.553-28.295-27.553C263.037,11.142,250.343,23.502,250.343,38.694z M254.79,38.694
				c0-12.74,10.698-23.105,23.849-23.105c13.15,0,23.848,10.365,23.848,23.105c0,12.737-10.698,23.1-23.848,23.1
				C265.489,61.794,254.79,51.431,254.79,38.694z"/>
			<path fill="#EB2D2E" d="M236.766,38.688c0,15.671-13.076,28.371-29.202,28.371c-16.124,0-29.199-12.701-29.199-28.371
				c0-15.666,13.075-28.363,29.199-28.363C223.69,10.324,236.766,23.021,236.766,38.688z M207.564,13.363
				c-14.397,0-26.068,11.339-26.068,25.325c0,13.991,11.671,25.331,26.068,25.331c14.4,0,26.075-11.34,26.075-25.331
				C233.638,24.702,221.964,13.363,207.564,13.363z"/>
			<path fill="#EB2D2E" d="M176.14,38.688c0,16.87,14.096,30.595,31.423,30.595c17.328,0,31.426-13.725,31.426-30.595
				c0-16.866-14.098-30.587-31.426-30.587C190.237,8.1,176.14,21.822,176.14,38.688z M180.588,38.688
				c0-14.413,12.101-26.139,26.975-26.139c14.876,0,26.979,11.726,26.979,26.139c0,14.418-12.102,26.147-26.979,26.147
				C192.69,64.835,180.588,53.105,180.588,38.688z"/>
			<path fill="#EB2D2E" d="M179.272,38.688c0,15.194,12.692,27.555,28.292,27.555c15.604,0,28.298-12.361,28.298-27.555
				c0-15.191-12.694-27.549-28.298-27.549C191.964,11.139,179.272,23.497,179.272,38.688z M183.719,38.688
				c0-12.738,10.697-23.101,23.844-23.101c13.151,0,23.851,10.363,23.851,23.101c0,12.741-10.699,23.107-23.851,23.107
				C194.416,61.795,183.719,51.429,183.719,38.688z"/>
			<path fill="#EB2D2E" d="M165.691,38.693c0,15.668-13.074,28.368-29.2,28.368c-16.126,0-29.2-12.7-29.2-28.368
				c0-15.666,13.074-28.371,29.2-28.371C152.618,10.322,165.691,23.027,165.691,38.693z M136.491,13.366
				c-14.398,0-26.07,11.341-26.07,25.327c0,13.99,11.671,25.33,26.07,25.33c14.399,0,26.071-11.34,26.071-25.33
				C162.562,24.706,150.891,13.366,136.491,13.366z"/>
			<path fill="#EB2D2E" d="M105.067,38.693c0,16.869,14.097,30.592,31.424,30.592c17.328,0,31.424-13.724,31.424-30.592
				c0-16.87-14.097-30.594-31.424-30.594C119.164,8.098,105.067,21.823,105.067,38.693z M109.515,38.693
				c0-14.418,12.101-26.147,26.976-26.147c14.875,0,26.976,11.729,26.976,26.147c0,14.416-12.101,26.145-26.976,26.145
				C121.617,64.837,109.515,53.109,109.515,38.693z"/>
			<path fill="#EB2D2E" d="M108.198,38.693c0,15.193,12.692,27.554,28.293,27.554c15.602,0,28.295-12.36,28.295-27.554
				c0-15.192-12.693-27.551-28.295-27.551C120.89,11.142,108.198,23.501,108.198,38.693z M112.646,38.693
				c0-12.739,10.697-23.103,23.846-23.103c13.149,0,23.847,10.364,23.847,23.103c0,12.74-10.698,23.106-23.847,23.106
				C123.343,61.798,112.646,51.433,112.646,38.693z"/>
		</g>
	</g>
</g>
<linearGradient id="SVGID_1_" gradientUnits="userSpaceOnUse" x1="92.5931" y1="320.898" x2="335.2016" y2="320.898">
	<stop  offset="0" style="stop-color:#C7C7C7"/>
	<stop  offset="2.224648e-04" style="stop-color:#BFA4A5"/>
	<stop  offset="5.035675e-04" style="stop-color:#B68082"/>
	<stop  offset="8.201538e-04" style="stop-color:#AF6062"/>
	<stop  offset="0.0012" style="stop-color:#A84447"/>
	<stop  offset="0.0016" style="stop-color:#A32E32"/>
	<stop  offset="0.002" style="stop-color:#9F1D21"/>
	<stop  offset="0.0026" style="stop-color:#9C1215"/>
	<stop  offset="0.0034" style="stop-color:#9A0B0F"/>
	<stop  offset="0.0056" style="stop-color:#9A090D"/>
	<stop  offset="0.0755" style="stop-color:#A01711"/>
	<stop  offset="0.187" style="stop-color:#B0331D"/>
	<stop  offset="0.3262" style="stop-color:#CC5A33"/>
	<stop  offset="0.4663" style="stop-color:#EF8954"/>
	<stop  offset="0.511" style="stop-color:#E27E4F"/>
	<stop  offset="0.6643" style="stop-color:#B75D3E"/>
	<stop  offset="0.7796" style="stop-color:#9D4933"/>
	<stop  offset="0.8427" style="stop-color:#93422E"/>
	<stop  offset="1" style="stop-color:#874331"/>
	<stop  offset="1" style="stop-color:#000000"/>
</linearGradient>
<path fill="url(#SVGID_1_)" d="M335.139,251.611l-2.99,5.978c-0.683,32.723-22.837,57.454-22.837,57.454
	c-34.392,36.903-71.617,47.915-107.249,44.365c-79.261-5.208-109.469-56.406-109.469-56.406l0.326,47.977
	c26.276,20.223,70.374,43.485,129.751,38.53c89.732-7.488,110.283-90.629,110.283-90.629c2.318-22.025,2.248-46.051,2.248-46.051
	C335.188,252.414,335.157,252.02,335.139,251.611z"/>
<g>
	<path fill="#FFFFFF" d="M106.731,350.569l8.406-12.999l3.461,2.237c1.29,0.834,2.093,1.441,2.409,1.821
		c0.502,0.61,0.747,1.377,0.735,2.298c-0.013,0.923-0.354,1.9-1.022,2.934c-0.607,0.939-1.294,1.613-2.06,2.017
		c-0.766,0.406-1.497,0.565-2.196,0.478c-0.699-0.087-1.698-0.552-2.999-1.393l-1.41-0.912l-3.174,4.908L106.731,350.569z
		 M115.857,341.171l-2.374,3.67l1.187,0.769c0.797,0.515,1.375,0.81,1.735,0.884c0.358,0.073,0.723,0.024,1.095-0.149
		c0.372-0.172,0.694-0.471,0.968-0.894c0.278-0.43,0.417-0.853,0.418-1.269c0.001-0.417-0.105-0.764-0.318-1.044
		c-0.213-0.279-0.768-0.71-1.666-1.29L115.857,341.171z"/>
	<path fill="#FFFFFF" d="M119.54,351.897c0.538-0.962,1.218-1.731,2.039-2.308c0.822-0.576,1.65-0.89,2.486-0.942
		c0.835-0.052,1.636,0.137,2.404,0.567c1.29,0.721,2.02,1.794,2.191,3.221c0.17,1.427-0.123,2.818-0.881,4.175
		c-0.565,1.011-1.267,1.816-2.106,2.416c-0.839,0.599-1.685,0.929-2.537,0.991c-0.853,0.061-1.651-0.115-2.394-0.531
		c-1.193-0.666-1.927-1.675-2.203-3.026C118.262,355.108,118.596,353.587,119.54,351.897z M121.635,353.249
		c-0.556,0.996-0.784,1.859-0.68,2.585c0.103,0.728,0.43,1.245,0.979,1.552c0.537,0.299,1.14,0.3,1.81,0.001
		c0.669-0.3,1.284-0.951,1.844-1.953c0.546-0.977,0.768-1.832,0.666-2.562c-0.102-0.732-0.424-1.248-0.967-1.552
		c-0.537-0.299-1.142-0.3-1.814-0.002C122.8,351.616,122.188,352.259,121.635,353.249z"/>
	<path fill="#FFFFFF" d="M129.296,363.678l-2.188-1.078l4.967-10.072l2.036,1.004l-0.706,1.431c0.677-0.498,1.208-0.79,1.592-0.877
		c0.383-0.085,0.755-0.04,1.115,0.137c0.499,0.246,0.893,0.648,1.183,1.207l-1.825,1.98c-0.218-0.469-0.488-0.782-0.811-0.942
		c-0.304-0.15-0.628-0.17-0.97-0.059c-0.342,0.111-0.709,0.436-1.101,0.975c-0.393,0.54-0.977,1.599-1.755,3.176L129.296,363.678z"
		/>
	<path fill="#FFFFFF" d="M138.616,368.004l5.652-14.412l3.837,1.505c1.43,0.561,2.337,0.996,2.723,1.305
		c0.615,0.499,1.006,1.2,1.177,2.106c0.171,0.907,0.032,1.933-0.418,3.078c-0.408,1.042-0.947,1.838-1.617,2.387
		c-0.67,0.55-1.355,0.852-2.057,0.906c-0.702,0.053-1.774-0.203-3.216-0.769l-1.564-0.613l-2.134,5.441L138.616,368.004z
		 M145.69,356.978l-1.596,4.07l1.316,0.516c0.884,0.346,1.51,0.521,1.876,0.521c0.366,0.002,0.714-0.12,1.044-0.363
		c0.33-0.244,0.587-0.6,0.771-1.07c0.187-0.477,0.239-0.919,0.158-1.327c-0.082-0.408-0.255-0.727-0.519-0.959
		c-0.264-0.231-0.894-0.543-1.889-0.933L145.69,356.978z"/>
	<path fill="#FFFFFF" d="M154.431,365.541l-1.955-1.103c0.6-1.006,1.269-1.655,2.006-1.946c0.737-0.29,1.654-0.261,2.751,0.087
		c0.976,0.31,1.679,0.686,2.107,1.125c0.427,0.44,0.677,0.932,0.747,1.476c0.07,0.544-0.094,1.442-0.491,2.693l-1.072,3.303
		c-0.295,0.929-0.478,1.631-0.548,2.109c-0.069,0.477-0.085,1.004-0.044,1.579l-2.301-0.732l0.07-1.263
		c-0.544,0.344-1.081,0.564-1.608,0.66c-0.528,0.095-1.046,0.062-1.555-0.1c-0.85-0.27-1.455-0.779-1.814-1.528
		c-0.359-0.748-0.387-1.602-0.083-2.558c0.193-0.607,0.471-1.102,0.836-1.482c0.364-0.382,0.79-0.643,1.278-0.785
		c0.487-0.143,1.205-0.178,2.156-0.107c1.15,0.091,1.97,0.096,2.461,0.015c0.188-0.592,0.27-0.993,0.245-1.205
		c-0.025-0.211-0.13-0.411-0.316-0.6c-0.186-0.189-0.483-0.348-0.89-0.477c-0.414-0.131-0.769-0.141-1.066-0.029
		C155.045,364.783,154.741,365.073,154.431,365.541z M156.784,368.823c-0.333,0.028-0.835,0.024-1.508-0.01
		c-0.775-0.039-1.31,0.022-1.603,0.182c-0.294,0.159-0.498,0.422-0.614,0.787c-0.131,0.413-0.119,0.797,0.036,1.155
		c0.155,0.358,0.416,0.596,0.783,0.712c0.327,0.105,0.688,0.094,1.081-0.03c0.393-0.125,0.7-0.323,0.922-0.595
		c0.222-0.271,0.464-0.816,0.724-1.634L156.784,368.823z"/>
	<path fill="#FFFFFF" d="M160.651,380.017l0.306-1.213c0.554,0.219,1.072,0.39,1.556,0.512c0.463,0.117,0.833,0.114,1.111-0.008
		c0.277-0.123,0.451-0.325,0.522-0.606c0.064-0.253,0.023-0.484-0.123-0.692c-0.146-0.208-0.388-0.354-0.727-0.439
		c-0.352-0.089-0.732-0.112-1.139-0.069l0.474-0.975c0.486-0.073,0.991-0.044,1.514,0.087c0.646,0.163,1.118,0.473,1.416,0.932
		c0.298,0.458,0.374,0.976,0.229,1.552c-0.166,0.659-0.56,1.133-1.182,1.422c-0.621,0.289-1.404,0.315-2.346,0.077
		C161.532,380.414,160.995,380.22,160.651,380.017z M170.119,369.826l-2.448-0.068c0.115-1.184-0.284-1.89-1.195-2.119
		c-0.587-0.148-1.122-0.02-1.606,0.383c-0.484,0.404-0.873,1.192-1.168,2.365c-0.327,1.296-0.379,2.258-0.155,2.883
		c0.223,0.626,0.635,1.013,1.234,1.165c0.448,0.113,0.855,0.055,1.22-0.175c0.366-0.229,0.708-0.713,1.026-1.451l2.206,1.029
		c-1.144,2.518-2.854,3.49-5.131,2.915c-1.456-0.367-2.397-1.194-2.822-2.48c-0.424-1.287-0.44-2.712-0.046-4.273
		c0.471-1.87,1.228-3.193,2.272-3.968c1.043-0.776,2.211-1,3.505-0.675c1.046,0.264,1.83,0.757,2.351,1.477
		C169.882,367.552,170.135,368.55,170.119,369.826z"/>
	<path fill="#FFFFFF" d="M171.091,372.247c0.201-1.084,0.597-2.031,1.19-2.84c0.594-0.81,1.277-1.374,2.052-1.69
		c0.774-0.317,1.594-0.395,2.459-0.235c1.453,0.268,2.49,1.05,3.109,2.348c0.619,1.296,0.788,2.708,0.506,4.236
		c-0.211,1.139-0.617,2.127-1.219,2.964c-0.602,0.837-1.297,1.421-2.085,1.753c-0.788,0.332-1.601,0.42-2.438,0.265
		c-1.343-0.247-2.362-0.968-3.058-2.159C170.911,375.698,170.739,374.15,171.091,372.247z M173.508,372.855
		c-0.207,1.122-0.145,2.012,0.187,2.668c0.332,0.656,0.807,1.041,1.425,1.155c0.605,0.112,1.176-0.083,1.714-0.581
		c0.538-0.498,0.911-1.313,1.119-2.442c0.204-1.1,0.14-1.981-0.191-2.64c-0.331-0.659-0.803-1.046-1.414-1.159
		c-0.605-0.111-1.178,0.082-1.719,0.58C174.088,370.933,173.715,371.741,173.508,372.855z"/>
	<path fill="#FFFFFF" d="M181.522,376.739l2.476-0.161c0.07,1.192,0.648,1.853,1.735,1.983c0.578,0.069,1.023,0.009,1.336-0.18
		c0.312-0.19,0.49-0.464,0.533-0.82c0.029-0.245-0.009-0.445-0.114-0.6c-0.112-0.154-0.361-0.309-0.747-0.464
		c-1.915-0.764-3.113-1.418-3.594-1.96c-0.6-0.676-0.838-1.533-0.714-2.572c0.124-1.038,0.552-1.829,1.284-2.375
		c0.732-0.546,1.724-0.744,2.976-0.594c1.196,0.143,2.077,0.483,2.644,1.022c0.567,0.538,0.915,1.338,1.044,2.401l-2.34,0.241
		c-0.094-0.919-0.608-1.435-1.543-1.546c-0.589-0.071-1.018-0.033-1.288,0.11c-0.27,0.144-0.421,0.355-0.454,0.631
		c-0.03,0.249,0.054,0.467,0.253,0.656c0.197,0.196,0.877,0.534,2.04,1.015c1.305,0.54,2.166,1.109,2.586,1.707
		c0.412,0.596,0.564,1.343,0.457,2.24c-0.129,1.081-0.605,1.927-1.426,2.539c-0.821,0.613-1.882,0.842-3.183,0.686
		c-1.182-0.142-2.112-0.549-2.79-1.223C182.017,378.8,181.625,377.887,181.522,376.739z"/>
	<path fill="#FFFFFF" d="M197.682,381.523l0.369-15.476l9.417,0.225l-0.063,2.631l-6.857-0.164l-0.081,3.428l6.374,0.152
		l-0.062,2.607l-6.374-0.152l-0.1,4.177l7.099,0.17l-0.063,2.631L197.682,381.523z"/>
	<path fill="#FFFFFF" d="M209.193,378.528l2.419-0.551c0.258,1.166,0.932,1.728,2.026,1.684c0.582-0.023,1.013-0.153,1.291-0.389
		c0.279-0.237,0.411-0.536,0.397-0.894c-0.01-0.247-0.079-0.438-0.207-0.574c-0.134-0.136-0.405-0.249-0.811-0.341
		c-2.012-0.453-3.298-0.908-3.859-1.367c-0.699-0.573-1.069-1.381-1.111-2.427c-0.041-1.044,0.256-1.894,0.893-2.548
		c0.636-0.655,1.585-1.007,2.844-1.057c1.204-0.049,2.128,0.149,2.773,0.591c0.645,0.443,1.116,1.176,1.41,2.205l-2.272,0.609
		c-0.238-0.894-0.827-1.321-1.768-1.284c-0.592,0.025-1.01,0.129-1.254,0.314s-0.361,0.415-0.349,0.694
		c0.01,0.249,0.127,0.452,0.353,0.607c0.226,0.162,0.951,0.39,2.175,0.68c1.373,0.328,2.314,0.753,2.823,1.276
		c0.501,0.525,0.77,1.238,0.805,2.141c0.043,1.086-0.293,1.997-1.006,2.731c-0.714,0.736-1.726,1.129-3.035,1.18
		c-1.189,0.048-2.172-0.209-2.947-0.767C210.007,380.484,209.477,379.646,209.193,378.528z"/>
	<path fill="#FFFFFF" d="M218.471,370.065l1.348-0.114l-0.071-0.84c-0.086-1.013-0.052-1.756,0.102-2.227
		c0.154-0.471,0.436-0.854,0.845-1.15c0.409-0.295,0.93-0.469,1.56-0.523c0.686-0.058,1.37,0.011,2.051,0.208l-0.142,2.078
		c-0.4-0.078-0.777-0.103-1.133-0.073c-0.341,0.029-0.581,0.148-0.717,0.357c-0.136,0.209-0.18,0.601-0.132,1.176l0.067,0.787
		l1.804-0.153l0.199,2.334l-1.805,0.153l0.751,8.856l-2.43,0.206l-0.751-8.855l-1.347,0.114L218.471,370.065z"/>
	<path fill="#FFFFFF" d="M225.592,374.966c-0.166-1.088-0.102-2.114,0.193-3.073c0.296-0.96,0.756-1.716,1.384-2.269
		c0.628-0.553,1.377-0.896,2.246-1.028c1.461-0.223,2.697,0.177,3.707,1.198c1.011,1.021,1.632,2.3,1.868,3.837
		c0.174,1.144,0.115,2.211-0.18,3.199c-0.294,0.988-0.759,1.769-1.394,2.34c-0.635,0.572-1.375,0.922-2.216,1.051
		c-1.349,0.206-2.549-0.139-3.598-1.038C226.554,378.286,225.884,376.881,225.592,374.966z M228.076,374.748
		c0.172,1.129,0.522,1.948,1.051,2.458c0.528,0.512,1.103,0.72,1.724,0.624c0.608-0.092,1.084-0.463,1.429-1.11
		c0.345-0.649,0.431-1.54,0.257-2.674c-0.169-1.107-0.517-1.917-1.047-2.432c-0.529-0.514-1.1-0.725-1.715-0.631
		c-0.608,0.092-1.086,0.464-1.434,1.111C227.993,372.743,227.904,373.627,228.076,374.748z"/>
	<path fill="#FFFFFF" d="M240.809,378.101l-2.375,0.552l-2.542-10.939l2.21-0.513l0.362,1.554c0.209-0.815,0.433-1.377,0.676-1.688
		c0.243-0.309,0.558-0.51,0.949-0.6c0.541-0.126,1.101-0.065,1.679,0.184l-0.156,2.687c-0.465-0.224-0.874-0.296-1.224-0.214
		c-0.33,0.077-0.593,0.267-0.787,0.569c-0.194,0.303-0.272,0.787-0.234,1.453c0.039,0.666,0.258,1.856,0.656,3.569L240.809,378.101z
		"/>
	<path fill="#FFFFFF" d="M251.299,366.839l-2.12,1.227c-0.524-1.067-1.233-1.458-2.13-1.175c-0.577,0.182-0.966,0.573-1.165,1.17
		c-0.199,0.597-0.117,1.472,0.249,2.625c0.403,1.275,0.864,2.12,1.383,2.535c0.519,0.414,1.073,0.528,1.662,0.342
		c0.44-0.138,0.756-0.402,0.946-0.79c0.191-0.387,0.227-0.978,0.11-1.773l2.418-0.284c0.35,2.744-0.594,4.47-2.833,5.178
		c-1.432,0.453-2.668,0.244-3.705-0.629c-1.037-0.872-1.8-2.076-2.285-3.611c-0.582-1.838-0.633-3.361-0.152-4.569
		c0.48-1.208,1.356-2.013,2.628-2.415c1.029-0.326,1.954-0.319,2.776,0.02C249.902,365.029,250.641,365.746,251.299,366.839z
		 M248.599,380.485l-0.377-1.192c0.586-0.104,1.116-0.232,1.592-0.383c0.456-0.144,0.77-0.341,0.941-0.591
		c0.171-0.251,0.213-0.514,0.125-0.79c-0.078-0.248-0.235-0.423-0.468-0.523c-0.233-0.1-0.516-0.097-0.849,0.008
		c-0.346,0.11-0.682,0.289-1.006,0.54l-0.108-1.079c0.375-0.318,0.819-0.559,1.334-0.721c0.635-0.201,1.199-0.184,1.694,0.049
		c0.494,0.233,0.831,0.633,1.011,1.201c0.205,0.648,0.118,1.258-0.259,1.83c-0.377,0.572-1.029,1.005-1.956,1.299
		C249.557,380.359,248.998,380.477,248.599,380.485z"/>
	<path fill="#FFFFFF" d="M253.536,368.318c-0.439-1.012-0.637-2.019-0.596-3.022c0.04-1.003,0.295-1.851,0.761-2.546
		c0.466-0.694,1.103-1.216,1.91-1.566c1.356-0.587,2.653-0.516,3.889,0.215c1.237,0.732,2.164,1.81,2.782,3.236
		c0.46,1.063,0.674,2.11,0.641,3.14c-0.033,1.031-0.284,1.904-0.753,2.618c-0.47,0.714-1.095,1.243-1.876,1.58
		c-1.253,0.543-2.501,0.513-3.742-0.088C255.309,371.283,254.304,370.094,253.536,368.318z M255.881,367.476
		c0.453,1.047,1,1.75,1.641,2.11c0.641,0.36,1.25,0.414,1.827,0.165c0.564-0.245,0.931-0.723,1.099-1.438
		c0.168-0.714,0.024-1.597-0.432-2.651c-0.445-1.027-0.989-1.722-1.631-2.085c-0.643-0.363-1.249-0.422-1.82-0.174
		c-0.564,0.244-0.932,0.724-1.104,1.44C255.291,365.557,255.43,366.434,255.881,367.476z"/>
</g>
<path d="M307.156,203.471c0,0-0.163,42.403,0,40.35c15.294,5.918,24.954,13.647,24.954,13.647c0.014,0.04,0.025,0.081,0.039,0.122
	l2.99-5.978C333.45,213.977,307.156,203.471,307.156,203.471z"/>
<path fill="#00A94F" d="M306.777,96.699H110.519v142.363h0.007c-0.001,0.17-0.007,0.339-0.007,0.508
	c0,54.195,43.934,98.129,98.129,98.129c54.195,0,98.129-43.934,98.129-98.129c0-0.169-0.006-0.338-0.008-0.508h0.008V96.699z"/>
<line fill="#FFF200" x1="95.137" y1="179.924" x2="95.131" y2="179.918"/>
<path d="M261.956,302.032c0.327-0.288,0.57-0.706,0.6-1.302c0.028-4.578,0.083-15.316-0.01-16.492
	c0.029-0.374,0.158-0.685,0.382-0.871c0.317-0.262,0.747-0.213,0.751-0.213c0.641,0.005,14.556,0.049,15.994,0.003
	c1.794-0.057,2.208-1.384,2.225-1.441l0.014-0.054v-3.925c-0.024-0.795-0.524-2.291-2.238-2.354
	c-4.425-0.161-15.095-0.02-15.956,0.005c-0.835,0.021-1.127-0.735-1.171-0.865c0-0.137,0-6.459,0-6.459
	c-0.001-0.011-0.003-0.028-0.003-0.051c0-0.242,0.097-1.068,1.456-1.193c2.364-0.057,19.686-0.014,23.142-0.006
	c0.862-0.012,1.504-0.259,1.918-0.734c0.547-0.628,0.457-1.416,0.453-1.45l0.004-3.34c0.001,0.015,0.106-0.841-0.469-1.505
	c-0.415-0.478-1.053-0.724-1.9-0.732c-2.21-0.02-39.783,0-40.163,0l-0.382,0.001v43.54h13.745
	C260.786,302.6,261.466,302.463,261.956,302.032 M287.141,259.822c0.615,0.006,1.06,0.161,1.326,0.463
	c0.352,0.4,0.29,0.955,0.29,0.961l-0.003,3.434c0.003,0.048,0.051,0.538-0.274,0.906c-0.265,0.3-0.717,0.456-1.341,0.466
	c-3.46-0.009-20.866-0.053-23.178,0.006l-0.025,0.002c-1.828,0.165-2.206,1.406-2.151,2.039l-0.001,6.551l0.015,0.053
	c0.152,0.516,0.752,1.482,1.939,1.452c0.86-0.025,11.499-0.166,15.908-0.005c1.402,0.051,1.498,1.444,1.504,1.602
	c0,0-0.001,3.633-0.001,3.78c-0.044,0.118-0.349,0.824-1.501,0.861c-1.425,0.046-15.773,0-15.918,0
	c0.019-0.001-0.702-0.093-1.278,0.376c-0.399,0.326-0.623,0.82-0.668,1.473c0.094,1.236,0.03,12.916,0.009,16.467
	c-0.055,1.089-1.302,1.124-1.444,1.124c0,0-12.261,0-12.982,0c0-0.736,0-41.328,0-42.011
	C251.203,259.82,285.05,259.803,287.141,259.822z"/>
<path d="M247.719,126.256c0,12.127,10.245,21.993,22.837,21.993c9.856,0,18.566-6.051,21.672-15.056l0.177-0.512h-10.948
	l-0.114,0.173c-2.368,3.57-6.4,5.701-10.787,5.701c-6.664,0-8.03-4.916-8.03-12.299c0-7.382,1.366-12.299,8.03-12.299
	c4.385,0,8.418,2.131,10.787,5.701l0.115,0.173h10.947l-0.177-0.512c-3.108-9.005-11.817-15.056-21.672-15.056
	C257.964,104.263,247.719,114.129,247.719,126.256z M248.492,126.256c0-11.701,9.898-21.22,22.064-21.22
	c9.33,0,17.562,5.623,20.717,14.023c-1.027,0-9.072,0-9.417,0c-2.528-3.677-6.73-5.874-11.3-5.874
	c-7.736,0-8.803,6.283-8.803,13.072c0,6.789,1.066,13.072,8.803,13.072c4.572,0,8.773-2.197,11.3-5.874c0.345,0,8.39,0,9.417,0
	c-3.154,8.399-11.386,14.022-20.717,14.022C258.39,147.476,248.492,137.957,248.492,126.256z"/>
<g>
	<path fill="#FFFFFF" d="M276.833,361.019l2.274-0.932c0.348,1.13,0.386,2.113,0.112,2.948c-0.273,0.834-0.821,1.519-1.643,2.054
		c-1.142,0.743-2.271,0.934-3.389,0.573c-1.312-0.41-2.487-1.416-3.527-3.015c-1.025-1.575-1.476-3.076-1.353-4.504
		c0.106-1.207,0.657-2.134,1.65-2.78c1.105-0.718,2.236-0.872,3.394-0.463c1.329,0.467,2.588,1.611,3.773,3.435l0.177,0.291
		l-5.123,3.331c0.497,0.74,1.041,1.209,1.632,1.407c0.589,0.199,1.114,0.149,1.572-0.148
		C277.042,362.785,277.191,362.053,276.833,361.019z M275.288,358.423c-0.499-0.728-1.018-1.181-1.556-1.361
		c-0.539-0.181-1.012-0.138-1.42,0.127c-0.432,0.282-0.67,0.712-0.713,1.292c-0.045,0.589,0.163,1.235,0.627,1.934L275.288,358.423z
		"/>
	<path fill="#FFFFFF" d="M289.836,356.035l-13.165-9.319l2.177-1.726l9.642,6.977l-4.695-10.898l2.149-1.703l6.07,14.942
		L289.836,356.035z"/>
	<path fill="#FFFFFF" d="M288.199,340.878l-1.822-2.065l1.83-1.614l1.821,2.065L288.199,340.878z M296.634,350.44l-7.428-8.422
		l1.829-1.614l7.428,8.422L296.634,350.44z"/>
	<path fill="#FFFFFF" d="M295.892,335.859l1.615,1.698l-1.208,1.148l3.138,3.297c0.68,0.714,1.092,1.11,1.235,1.19
		c0.267,0.137,0.509,0.101,0.729-0.108c0.163-0.155,0.332-0.448,0.507-0.877l1.742,1.524c-0.204,0.603-0.564,1.15-1.079,1.64
		c-0.449,0.427-0.912,0.661-1.386,0.704c-0.476,0.042-0.952-0.097-1.429-0.414c-0.355-0.229-0.966-0.801-1.835-1.713l-3.389-3.562
		l-0.806,0.766l-1.615-1.697l0.806-0.766l-1.537-1.614l0.573-2.937l2.731,2.869L295.892,335.859z"/>
	<path fill="#FFFFFF" d="M298.044,331.663l-1.516-3.021l1.849-2l0.71,3.892L298.044,331.663z M300.667,338.89
		c-0.81-0.749-1.398-1.59-1.766-2.524c-0.368-0.934-0.478-1.814-0.333-2.637c0.146-0.825,0.518-1.559,1.115-2.205
		c1.003-1.085,2.218-1.543,3.645-1.374c1.428,0.168,2.711,0.781,3.852,1.835c0.851,0.786,1.469,1.659,1.855,2.614
		c0.386,0.956,0.508,1.856,0.368,2.699c-0.14,0.843-0.5,1.578-1.077,2.203c-0.927,1.002-2.08,1.479-3.459,1.431
		C303.489,340.886,302.088,340.205,300.667,338.89z M302.472,337.171c0.838,0.775,1.622,1.198,2.355,1.267
		c0.732,0.07,1.311-0.125,1.737-0.587c0.418-0.451,0.559-1.037,0.425-1.759c-0.134-0.72-0.623-1.471-1.466-2.25
		c-0.822-0.76-1.601-1.177-2.335-1.249c-0.735-0.072-1.313,0.119-1.734,0.576c-0.419,0.452-0.561,1.04-0.428,1.763
		C301.158,335.655,301.64,336.403,302.472,337.171z"/>
	<path fill="#FFFFFF" d="M314.541,331.828l-1.512,1.915l-8.813-6.961l1.408-1.782l1.252,0.989c-0.345-0.766-0.521-1.346-0.526-1.74
		c-0.003-0.393,0.118-0.747,0.368-1.062c0.344-0.436,0.82-0.738,1.428-0.904l1.554,2.198c-0.503,0.116-0.867,0.314-1.091,0.597
		c-0.21,0.265-0.296,0.578-0.26,0.936c0.038,0.357,0.279,0.785,0.725,1.281c0.446,0.496,1.359,1.289,2.74,2.38L314.541,331.828z"/>
	<path fill="#FFFFFF" d="M307.173,320.43l-2.258-1.576l1.397-2l2.257,1.575L307.173,320.43z M317.628,327.731l-9.208-6.43l1.396-2
		l9.209,6.429L317.628,327.731z"/>
	<path fill="#FFFFFF" d="M315.082,317.426l-1.495,1.675c-0.855-0.802-1.347-1.592-1.473-2.374c-0.127-0.782,0.098-1.672,0.672-2.669
		c0.512-0.888,1.028-1.494,1.548-1.818c0.521-0.324,1.054-0.463,1.601-0.415c0.547,0.048,1.389,0.399,2.526,1.054l2.998,1.752
		c0.843,0.486,1.492,0.815,1.943,0.985c0.452,0.17,0.964,0.297,1.534,0.381l-1.206,2.092l-1.22-0.338
		c0.22,0.606,0.32,1.176,0.301,1.712c-0.019,0.536-0.163,1.036-0.43,1.498c-0.445,0.773-1.072,1.255-1.88,1.446
		c-0.808,0.191-1.648,0.037-2.518-0.466c-0.55-0.318-0.975-0.695-1.269-1.133c-0.296-0.437-0.459-0.909-0.494-1.416
		c-0.036-0.506,0.084-1.215,0.357-2.128c0.334-1.104,0.514-1.905,0.539-2.402c-0.539-0.309-0.914-0.476-1.126-0.496
		c-0.211-0.021-0.429,0.039-0.653,0.181c-0.225,0.142-0.444,0.398-0.657,0.768c-0.216,0.376-0.301,0.722-0.254,1.035
		C314.471,316.664,314.69,317.022,315.082,317.426z M318.79,315.827c-0.043,0.331-0.154,0.822-0.332,1.471
		c-0.203,0.75-0.258,1.285-0.164,1.606c0.093,0.321,0.306,0.576,0.637,0.768c0.375,0.216,0.754,0.286,1.136,0.212
		c0.383-0.075,0.671-0.279,0.864-0.613c0.171-0.298,0.238-0.652,0.201-1.062c-0.038-0.41-0.166-0.753-0.384-1.028
		c-0.218-0.275-0.699-0.627-1.443-1.055L318.79,315.827z"/>
</g>
<path d="M174.452,152.358l-0.947,0.68l1.042,0.524c16.027,8.058,26.758,24.03,28.199,41.824
	c-17.615-1.813-33.29-12.755-41.042-28.753l-0.526-1.085l-0.688,0.991c-6.77,9.752-10.349,21.197-10.349,33.098
	c0,11.879,3.565,23.304,10.309,33.043l0.689,0.993l0.525-1.088c7.741-16.042,23.429-27.012,41.08-28.829
	c-1.445,17.843-12.215,33.836-28.306,41.879l-1.043,0.52l0.947,0.683c9.945,7.166,21.686,10.953,33.954,10.953
	c12.175,0,23.845-3.737,33.747-10.808l0.96-0.685l-1.059-0.523c-16.253-7.999-27.13-24.048-28.584-42.021
	c17.828,1.834,33.589,12.962,41.268,29.241l0.516,1.094l0.698-0.989c6.939-9.834,10.607-21.405,10.607-33.466
	c0-12.082-3.681-23.672-10.644-33.517l-0.697-0.984l-0.517,1.09c-7.69,16.232-23.438,27.329-41.231,29.16
	c1.45-17.923,12.286-33.95,28.477-41.967l1.057-0.523l-0.961-0.683c-9.879-7.02-21.511-10.73-33.637-10.73
	C196.078,141.481,184.375,145.242,174.452,152.358z M208.297,142.891c11.444,0,22.421,3.416,31.85,9.835
	c-16.295,8.541-27.101,25.053-28.277,43.417l-0.051,0.818l0.816-0.07c18.229-1.566,34.451-12.632,42.667-28.964
	c6.356,9.39,9.739,20.317,9.739,31.708c0,11.369-3.37,22.276-9.701,31.655c-8.205-16.378-24.441-27.474-42.705-29.044l-0.816-0.07
	l0.051,0.818c1.18,18.417,12.027,34.952,28.386,43.475c-9.454,6.469-20.468,9.909-31.959,9.909
	c-11.586,0-22.675-3.492-32.175-10.056c16.2-8.562,26.943-25.043,28.114-43.329l0.052-0.818l-0.815,0.07
	c-18.079,1.554-34.238,12.49-42.502,28.625c-6.147-9.281-9.419-20.044-9.419-31.236c0-11.215,3.286-21.999,9.459-31.295
	c8.188,15.924,24.084,26.755,41.896,28.483c0.563,0.102,1.269,0.234,1.269,0.234c0.088-0.705,0.023-1.52,0.023-1.52
	s-0.02-0.001-0.021-0.002c-1.364-17.991-11.991-34.181-27.947-42.663C185.706,146.358,196.758,142.891,208.297,142.891z"/>
<path fill="#EB2E2E" d="M254.83,166.316c-7.81,16.484-23.941,28.245-42.969,29.88c1.23-19.211,12.778-35.608,29.163-43.721
	c-9.452-6.716-20.996-10.678-33.473-10.678c-12.568,0-24.189,4.019-33.678,10.823c16.234,8.161,27.657,24.477,28.88,43.575
	c0.036,0.558,0.036,0.559,0,0c-18.87-1.621-34.892-13.197-42.775-29.463c-6.489,9.347-10.298,20.694-10.298,32.935
	c0,12.219,3.793,23.543,10.258,32.88c7.869-16.307,23.915-27.917,42.814-29.54c-1.226,19.142-12.697,35.489-28.988,43.631
	c9.509,6.853,21.172,10.901,33.788,10.901c12.525,0,24.11-3.992,33.583-10.755c-16.444-8.094-28.041-24.524-29.274-43.777
	c19.06,1.637,35.21,13.435,43.006,29.962c6.645-9.416,10.555-20.899,10.555-33.302C265.422,187.243,261.498,175.741,254.83,166.316z
	"/>
<linearGradient id="SVGID_2_" gradientUnits="userSpaceOnUse" x1="641.9048" y1="177.2579" x2="744.812" y2="177.2579" gradientTransform="matrix(0 1 -1 0 268.9111 -564.8936)">
	<stop  offset="0" style="stop-color:#C7C7C7"/>
	<stop  offset="0" style="stop-color:#C7C5C5"/>
	<stop  offset="0" style="stop-color:#C7BEBF"/>
	<stop  offset="0" style="stop-color:#C7B3B3"/>
	<stop  offset="0" style="stop-color:#C8A2A3"/>
	<stop  offset="0" style="stop-color:#C88C8E"/>
	<stop  offset="0" style="stop-color:#C87074"/>
	<stop  offset="0" style="stop-color:#C95055"/>
	<stop  offset="0" style="stop-color:#CA2C32"/>
	<stop  offset="0" style="stop-color:#CA171E"/>
	<stop  offset="0.1115" style="stop-color:#CB1D1F"/>
	<stop  offset="0.214" style="stop-color:#CF2D23"/>
	<stop  offset="0.313" style="stop-color:#D7412B"/>
	<stop  offset="0.4092" style="stop-color:#E15B3B"/>
	<stop  offset="0.4944" style="stop-color:#ED7750"/>
	<stop  offset="0.6353" style="stop-color:#DA6B4A"/>
	<stop  offset="0.873" style="stop-color:#BD5940"/>
	<stop  offset="1" style="stop-color:#B2533C"/>
	<stop  offset="1" style="stop-color:#A75640"/>
	<stop  offset="1" style="stop-color:#000000"/>
</linearGradient>
<path fill="url(#SVGID_2_)" d="M98.397,134.721c0.522-7.379,4.337-21.219,18.495-29.887L97.571,77.011
	c0,0-43.278,36.323-27.822,71.1c0,0,8.701,16.468,25.381,31.807C94.204,163.37,96.742,144.669,98.397,134.721z"/>
<path d="M154.39,281.847l21.504,1.478 M154.39,283.462v-1.615 M175.895,283.325v-0.004c0.077,0.004,0.156,0.004,0.233,0.004
	c5.787,0,10.477-5.35,10.477-11.946c0-6.599-4.69-11.951-10.477-11.951c-0.077,0-0.156,0.004-0.233,0.004v-0.004H154.39h-15.498
	h-0.35v7.125v9.505v7.121v19.797h15.847v-19.516 M170.626,276.913c-0.035,0-0.072-0.006-0.107-0.006v0.006l-16.128,2.955v-1.224
	v-12.089v-0.707h16.128v0.003c0.035-0.003,0.073-0.003,0.107-0.003c2.754,0,4.982,2.476,4.982,5.533
	C175.608,274.435,173.38,276.913,170.626,276.913z"/>
<path fill="#F1A32B" d="M153.932,281.266l21.382,1.467v-0.003c0.077,0.003,0.155,0.003,0.232,0.003c0.095,0,0.19-0.002,0.285-0.005
	 M153.932,281.703v-0.437 M153.932,282.706v-1.003 M175.83,282.728c5.623-0.171,10.133-5.413,10.133-11.849
	c0-6.548-4.663-11.859-10.418-11.859c-0.077,0-0.155,0.004-0.232,0.004v-0.004h-21.382h-15.41h-0.348v7.07v9.432v7.067v19.645
	h15.758v-19.527 M153.932,276.553V266.09v-0.702h16.037v0.003c0.035-0.003,0.072-0.003,0.107-0.003c2.739,0,4.954,2.457,4.954,5.49
	c0,3.032-2.215,5.491-4.954,5.491 M153.932,276.753v-0.201 M153.932,277.088v-0.334 M153.932,277.422v-0.334 M153.932,279.301
	v-1.214v-0.665 M170.075,276.369c-0.034,0-0.072-0.006-0.107-0.006v0.006l-16.037,2.932"/>
<path d="M126.436,104.561l-0.383,0.001v43.52h13.791c0.732,0.004,2.14-0.381,2.215-1.867c0.028-4.576,0.083-15.308-0.011-16.484
	c0.03-0.373,0.158-0.685,0.384-0.87c0.317-0.262,0.749-0.213,0.754-0.213c0.642,0.005,14.604,0.049,16.047,0.003
	c1.8-0.057,2.215-1.383,2.232-1.44l0.016-0.053v-3.923c-0.025-0.794-0.526-2.29-2.246-2.352c-4.441-0.162-15.146-0.02-16.011,0.004
	c-0.837,0.021-1.13-0.735-1.175-0.865c0-0.137,0-6.456,0-6.456c0-0.012-0.001-0.028-0.001-0.05c0-0.242,0.096-1.068,1.46-1.193
	c2.373-0.058,19.753-0.015,23.221-0.006c0.865-0.012,1.509-0.259,1.924-0.733c0.549-0.629,0.459-1.416,0.455-1.449l0.003-3.338
	c0.002,0.014,0.107-0.841-0.471-1.504c-0.416-0.478-1.058-0.724-1.907-0.732C164.517,104.541,126.816,104.561,126.436,104.561z
	 M166.727,105.326c0.616,0.006,1.064,0.161,1.33,0.463c0.353,0.399,0.292,0.955,0.291,0.961l-0.003,3.432
	c0.003,0.049,0.051,0.538-0.275,0.906c-0.266,0.299-0.718,0.456-1.345,0.465c-3.471-0.009-20.937-0.052-23.257,0.006l-0.025,0.001
	c-1.834,0.166-2.213,1.406-2.158,2.039l-0.001,6.548l0.015,0.053c0.153,0.515,0.756,1.482,1.946,1.451
	c0.862-0.024,11.537-0.166,15.962-0.005c1.406,0.051,1.502,1.443,1.508,1.601c0,0,0,3.631,0,3.779
	c-0.044,0.118-0.351,0.823-1.506,0.861c-1.43,0.045-15.827,0-15.973-0.001c0.021-0.001-0.703-0.094-1.283,0.376
	c-0.4,0.325-0.625,0.82-0.67,1.472c0.094,1.234,0.031,12.909,0.009,16.459c-0.055,1.089-1.306,1.123-1.449,1.124
	c0,0-12.303,0-13.025,0c0-0.734,0-41.308,0-41.991C130.668,105.323,164.628,105.307,166.727,105.326z"/>
<path fill="#F1A32B" d="M143.256,111.553c2.197-0.056,17.825-0.021,23.454-0.006c2.229-0.032,2.015-1.772,2.015-1.772v-3.421
	c0,0,0.245-1.853-2.015-1.873c-2.26-0.021-40.643,0-40.643,0v7.072v9.428v7.075v19.639h13.525c0,0,1.771,0.009,1.848-1.52
	c0.025-4.146,0.085-15.417-0.01-16.611c0.116-1.71,1.582-1.508,1.582-1.508s14.659,0.047,16.125,0
	c1.558-0.05,1.893-1.179,1.893-1.179v-3.909c0,0-0.061-1.925-1.893-1.991c-4.425-0.161-15.158-0.023-16.125,0.004
	c-1.221,0.032-1.582-1.19-1.582-1.19v-6.596C141.429,113.196,141.301,111.73,143.256,111.553z"/>
<path fill="#F1A32B" d="M281.363,132.892c-2.341,3.529-6.436,5.874-11.109,5.874c-7.279,0-8.416-5.678-8.416-12.685
	c0-7.006,1.138-12.685,8.416-12.685c4.672,0,8.768,2.347,11.109,5.874h10.198c-2.965-8.593-11.381-14.795-21.307-14.795
	c-12.398,0-22.45,9.674-22.45,21.607c0,11.933,10.052,21.607,22.45,21.607c9.926,0,18.342-6.201,21.307-14.795H281.363z"/>
<path fill="#F1A32B" d="M261.984,300.226c0.027-4.5,0.079-14.938-0.013-16.084c0.116-1.71,1.583-1.508,1.583-1.508
	s14.659,0.047,16.124,0c1.558-0.05,1.894-1.179,1.894-1.179v-3.91c0,0-0.061-1.924-1.894-1.991
	c-4.424-0.161-15.157-0.022-16.124,0.005c-1.222,0.031-1.583-1.19-1.583-1.19v-6.596c0,0-0.128-1.466,1.827-1.642
	c2.196-0.056,17.824-0.021,23.453-0.006c2.23-0.032,2.015-1.772,2.015-1.772v-3.421c0,0,0.245-1.852-2.015-1.873
	c-2.259-0.02-40.642,0-40.642,0v7.073v9.428v7.075v19.639h13.524c0,0,1.772,0.009,1.848-1.52
	C261.982,300.589,261.983,300.413,261.984,300.226"/>
</svg>
