<?xml version="1.0" encoding="utf-8"?>
<!-- Generator: Adobe Illustrator 19.1.0, SVG Export Plug-In . SVG Version: 6.00 Build 0)  -->
<svg version="1.1" id="Layer_1" xmlns="http://www.w3.org/2000/svg" xmlns:xlink="http://www.w3.org/1999/xlink" x="0px" y="0px"
	 viewBox="0 0 400 400" enable-background="new 0 0 400 400" xml:space="preserve">
<g>
	<path d="M292.807,102.512c5.5,2.677,11.681,7.641,12.362,13.676c1.022,0.097,2.044,0.39,3.115,0.876h0.049
		c2.239,0.973,4.721,2.726,6.862,4.965c2.142,2.19,3.991,4.818,5.013,7.641c0.438,1.168,0.73,2.385,0.876,3.553
		c4.818,1.947,14.163,12.265,15.526,20.831c0.097,0.681,0.146,1.314,0.146,1.898c1.655,0.779,3.504,2.141,4.818,4.186
		c1.606,2.531,2.969,5.256,4.186,8.079c1.217,2.823,2.19,5.792,3.017,8.81c0.535,1.849,0.39,3.748-0.097,5.548
		c-0.097,0.39-0.195,0.779-0.341,1.168c2.872,2.287,5.013,5.694,6.522,10.026c1.558,4.526,2.434,10.026,2.774,16.499
		c0.049,1.363-0.195,2.774-0.633,4.186c-0.292,0.876-0.633,1.801-1.071,2.628c1.46,2.726,2.385,5.695,2.823,9.15
		c0.438,3.699,0.292,7.885-0.438,12.752c-0.243,1.703-0.779,3.261-1.509,4.624c0.973,4.429,1.168,9.004,0.535,13.336
		c-0.633,4.186-2.093,8.128-4.477,11.583c-0.098,7.885-2.142,16.305-5.257,24.19c-4.624,11.681-11.827,22.194-18.933,27.596
		c-1.363,5.257-4.137,10.562-7.739,15.137c-4.916,6.327-11.34,11.389-17.57,13.531c-1.12,2.726-2.92,5.403-5.889,8.469
		c-3.163,3.212-6.424,5.597-9.831,7.155c-3.163,1.412-6.424,2.093-9.831,1.898c-39.375,32.61-115.155,32.61-154.481,0
		c-3.407,0.195-6.668-0.487-9.831-1.898c-3.407-1.557-6.668-3.942-9.832-7.155c-2.969-3.066-4.77-5.743-5.889-8.469
		c-6.23-2.142-12.655-7.203-17.57-13.531c-3.602-4.575-6.376-9.88-7.739-15.137c-7.106-5.402-14.309-15.915-18.933-27.596
		c-3.115-7.885-5.159-16.305-5.256-24.19c-2.385-3.456-3.845-7.398-4.478-11.583c-0.633-4.332-0.438-8.907,0.535-13.336
		c-0.73-1.363-1.266-2.92-1.509-4.624c-0.73-4.867-0.876-9.053-0.438-12.752c0.438-3.455,1.363-6.424,2.823-9.15
		c-0.438-0.827-0.779-1.752-1.071-2.628c-0.438-1.412-0.681-2.823-0.633-4.186c0.341-6.473,1.217-11.973,2.774-16.499
		c1.509-4.332,3.65-7.739,6.522-10.026c-0.146-0.39-0.243-0.779-0.341-1.168c-0.487-1.801-0.633-3.699-0.097-5.548
		c0.828-3.017,1.801-5.986,3.018-8.81c1.217-2.823,2.58-5.548,4.186-8.079c1.314-2.044,3.163-3.407,4.818-4.186
		c0-0.584,0.049-1.217,0.146-1.898c1.363-8.566,10.708-18.884,15.526-20.831c0.146-1.168,0.438-2.385,0.876-3.553
		c1.022-2.823,2.872-5.451,5.013-7.641c2.142-2.239,4.624-3.991,6.863-4.965h0.049c1.071-0.487,2.093-0.779,3.115-0.876
		c0.681-6.035,6.863-11,12.362-13.676c-0.292-0.292-0.536-0.584-0.633-0.973l0,0c-0.146-0.341-0.244-0.779-0.195-1.168
		c0.097-1.022,0.73-2.093,1.995-2.628l0,0c0.438-0.195,0.876-0.341,1.265-0.535c-0.194-0.146-0.341-0.341-0.487-0.535
		c-0.097-0.146-0.146-0.292-0.195-0.438c-0.584-1.411,0.292-2.677,1.411-3.455c0.146-0.097,0.341-0.195,0.487-0.244
		c-0.292-0.292-0.487-0.633-0.682-1.022l0,0c-0.097-0.341-0.194-0.73-0.146-1.12c-1.217,0.438-2.385,0.146-3.115-0.487
		c-0.292-0.292-0.535-0.633-0.682-0.973c-0.146-0.341-0.243-0.73-0.194-1.12c-0.73,0.341-1.46,0.633-2.19,0.973
		c-1.509,0.633-2.677,0.438-3.407-0.195c-0.292-0.243-0.535-0.584-0.681-0.973c-0.146-0.341-0.244-0.73-0.244-1.119l0,0
		c0-0.438,0.146-0.827,0.341-1.266L87.903,53.647c-1.849-0.925-3.407-2.044-4.672-3.407c-1.217-1.265-2.19-2.677-3.018-4.234
		l-3.602,1.509L71.89,36.223l6.619-2.774l2.385,5.646l3.651-1.557l-2.336-5.646l6.619-2.774l2.385,5.646l3.65-1.557l-2.336-5.646
		l6.619-2.774l4.721,11.292l-5.062,2.141c0.73,1.217,1.168,2.677,1.411,4.088l0,0c0.292,1.995,0.341,4.04,0.195,6.035l0.292,0.438
		c1.509-0.535,3.018-1.119,4.478-1.655l1.801,4.867c1.266-0.438,2.482-0.876,3.748-1.314l-1.704-4.916
		c2.287-0.779,4.575-1.509,6.911-2.287l1.557,4.964c1.265-0.389,2.531-0.779,3.796-1.168l-1.509-4.964
		c2.336-0.681,4.672-1.363,7.008-1.996l1.363,5.013c1.266-0.389,2.58-0.73,3.845-1.022l-1.314-5.062
		c1.752-0.438,3.504-0.876,5.208-1.265v-0.584c-1.266-1.558-2.336-3.261-3.212-5.062l0,0c-0.633-1.314-1.071-2.677-1.168-4.137
		l-5.451,1.119l-2.433-12.119l8.031-1.606l1.217,6.035l4.867-0.973l-1.217-6.035l8.031-1.655l1.217,6.035l4.916-0.974l-1.217-6.035
		l8.031-1.606l2.434,12.071l-5.451,1.119c0.487,1.363,0.584,2.823,0.535,4.234l0,0c-0.097,1.995-0.438,3.991-0.973,5.938
		l0.195,0.535c1.801-0.292,3.553-0.584,5.354-0.876l0.779,5.159c1.314-0.195,2.628-0.389,3.942-0.584l-0.681-5.11
		c2.385-0.341,4.818-0.633,7.203-0.876l0.584,5.159c1.314-0.146,2.628-0.243,3.894-0.389l-0.438-5.159
		c2.434-0.243,4.818-0.438,7.252-0.584l0.341,5.159c1.314-0.049,2.628-0.146,3.942-0.195l-0.243-5.208
		c1.703-0.097,3.407-0.146,5.062-0.195l0.097-0.584c-0.876-1.801-1.606-3.65-2.142-5.597l0,0c-0.341-1.411-0.487-2.872-0.292-4.283
		h-5.597V7.75l8.225,0.049v6.133h4.964V7.799h8.177v6.133h4.964V7.799h8.225v12.314h-5.597c0.195,1.411,0.048,2.872-0.292,4.283l0,0
		c-0.535,1.947-1.265,3.796-2.141,5.597l0.097,0.584c1.655,0.049,3.358,0.097,5.062,0.195l-0.244,5.208
		c1.314,0.049,2.628,0.146,3.942,0.195l0.341-5.159c2.434,0.146,4.819,0.341,7.252,0.584l-0.438,5.159
		c1.266,0.146,2.58,0.243,3.894,0.389l0.584-5.159c2.385,0.243,4.818,0.535,7.203,0.876l-0.682,5.11
		c1.314,0.195,2.628,0.389,3.942,0.584l0.779-5.159c1.801,0.292,3.553,0.584,5.354,0.876l0.195-0.535
		c-0.535-1.947-0.876-3.942-0.974-5.938l0,0c-0.049-1.412,0.097-2.872,0.535-4.234l-5.451-1.119l2.434-12.071l8.031,1.606
		l-1.217,6.035l4.916,0.974l1.217-6.035l8.031,1.655l-1.217,6.035l4.867,0.973l1.217-6.035l8.031,1.606l-2.434,12.119l-5.451-1.119
		c-0.097,1.46-0.535,2.823-1.168,4.137l0,0c-0.876,1.801-1.947,3.504-3.212,5.062v0.584c1.703,0.389,3.456,0.828,5.208,1.265
		l-1.314,5.062c1.266,0.292,2.531,0.633,3.845,1.022l1.363-5.013c2.336,0.633,4.672,1.314,7.009,1.996l-1.509,4.964
		c1.265,0.389,2.531,0.779,3.796,1.168l1.558-4.964c2.336,0.779,4.624,1.509,6.911,2.287l-1.703,4.916
		c1.266,0.438,2.482,0.876,3.748,1.314l1.801-4.867c1.46,0.535,2.969,1.119,4.478,1.655l0.292-0.438
		c-0.146-1.995-0.097-4.04,0.195-6.035l0,0c0.243-1.412,0.681-2.872,1.411-4.088l-5.062-2.141l4.721-11.292l6.619,2.774
		l-2.336,5.646l3.65,1.557l2.385-5.646l6.619,2.774l-2.385,5.646l3.699,1.557l2.385-5.646l6.619,2.774l-4.721,11.292l-3.602-1.509
		c-0.827,1.557-1.801,2.969-3.017,4.234c-1.314,1.363-2.823,2.482-4.672,3.407l-13.092,31.587c0.194,0.438,0.292,0.828,0.341,1.266
		l0,0c0,0.39-0.097,0.779-0.243,1.119c-0.146,0.39-0.389,0.73-0.682,0.973c-0.73,0.633-1.898,0.827-3.407,0.195
		c-0.73-0.341-1.46-0.633-2.19-0.973c0.049,0.389-0.049,0.779-0.195,1.12c-0.146,0.341-0.389,0.681-0.681,0.973
		c-0.73,0.633-1.898,0.924-3.115,0.487c0.049,0.39-0.048,0.779-0.146,1.12l0,0c-0.195,0.389-0.389,0.681-0.681,1.022
		c0.146,0.049,0.341,0.146,0.486,0.244c1.12,0.779,1.996,2.044,1.411,3.455c-0.048,0.146-0.146,0.292-0.195,0.438
		c-0.146,0.195-0.292,0.389-0.486,0.535c0.389,0.195,0.827,0.341,1.265,0.535l0,0c1.266,0.535,1.898,1.606,1.996,2.628
		c0.049,0.389-0.049,0.828-0.195,1.168l0,0C293.294,101.928,293.099,102.22,292.807,102.512L292.807,102.512z M115.159,101.247
		h170.786c-12.801-5.256-26.185-9.345-40.056-12.216c-29.787-6.084-60.839-6.084-90.625,0
		C141.392,91.902,128.008,95.99,115.159,101.247z"/>
	<path fill="#F68B1F" d="M125.331,322.261c-2.969-1.801-5.695,0.146-5.743,3.65c0,5.402,0.243,11.097,0.827,17.035
		c0.292,3.066,1.071,4.819,3.796,6.619c45.41,29.933,107.319,29.933,152.729,0c2.726-1.801,3.504-3.553,3.797-6.619
		c0.584-5.938,0.827-11.632,0.827-17.035c-0.049-3.504-2.774-5.451-5.743-3.65C226.809,352.194,174.342,352.194,125.331,322.261z"/>
	<path fill="#F68B1F" d="M126.207,318.124c48.476,30.079,100.262,30.079,148.738,0c3.261-1.996,6.133-4.77,5.743-8.956
		c-0.535-5.013-1.314-9.831-2.19-14.455c-3.894,6.522-8.615,12.508-13.969,17.813c-16.402,16.354-39.083,26.477-63.953,26.477
		s-47.552-10.124-63.954-26.477c-5.354-5.305-10.075-11.291-13.968-17.813c-0.876,4.624-1.655,9.442-2.19,14.455
		C120.074,313.354,122.946,316.128,126.207,318.124z"/>
	<path fill="#F68B1F" d="M281.467,289.311c1.752,7.836,3.066,16.256,3.699,25.309c0.876,12.849,0.341,27.158-2.385,43.414
		c-0.487,3.115,0.049,4.332,3.212,2.92c2.969-1.314,5.841-3.456,8.615-6.327c5.986-6.084,6.376-10.756,7.057-18.349
		c0.049-0.535,0.097-1.071,0.341-3.504c1.703-17.376,1.022-34.215-1.509-49.839c-2.044-12.508-5.256-24.238-9.345-34.848v0.827
		C291.152,263.418,287.648,277.143,281.467,289.311z"/>
	<path fill="#F68B1F" d="M291.152,237.817c5.986,13.044,10.659,28.083,13.287,44.485c2.579,15.964,3.31,33.145,1.509,50.861
		c0,0.049-0.146,1.849-0.292,3.456c-0.097,1.217-0.195,2.385-0.292,3.456c-0.292,2.58,0.341,3.65,2.677,2.093
		c3.504-2.287,6.911-5.5,9.734-9.15c4.283-5.5,7.349-12.022,7.787-18.154c1.509-21.123,0.292-40.883-3.748-59.038
		c-3.455-15.477-9.052-29.835-16.742-42.928c-1.606-2.725-3.942-2.92-6.23-0.633c-2.482,2.482-5.062,4.965-7.69,7.398V237.817z"/>
	<path fill="#F68B1F" d="M291.152,214.163c5.938-5.597,11.535-11.389,16.597-17.23c9.88-11.438,17.862-23.362,23.313-35.773
		c0.925-2.093,1.996-4.04,1.606-6.473c-0.973-6.084-6.132-13.336-9.734-16.354c-1.411-1.168-2.239-0.779-2.872,0.682
		c-6.765,15.428-17.229,29.202-28.91,42.782V214.163z"/>
	<path fill="#F68B1F" d="M291.152,175.567c10.318-12.265,19.42-24.773,25.406-38.547c0.827-1.849,0.682-3.942-0.097-5.987
		c-0.827-2.239-2.336-4.429-4.137-6.23c-1.217-1.266-2.58-2.336-3.845-3.164c-0.633-0.341-1.801-0.535-2.774-0.341
		c-0.925,0.195-1.655,0.779-1.996,1.363c-3.31,6.181-7.787,11.924-12.557,17.716V175.567z"/>
	<path fill="#F68B1F" d="M291.152,134.051c3.553-4.526,6.814-9.004,9.296-13.725c0.146-0.244,0.244-0.535,0.341-0.828
		c1.947-5.013-3.018-9.686-8.031-12.508c-0.389-0.195-0.973-0.341-1.606-0.389V134.051z"/>
	<path fill="#F68B1F" d="M110,106.601c-0.633,0.049-1.217,0.195-1.606,0.389c-5.013,2.823-9.977,7.495-8.031,12.508
		c0.097,0.292,0.195,0.584,0.341,0.828c2.482,4.721,5.743,9.199,9.296,13.725V106.601z"/>
	<path fill="#F68B1F" d="M110,140.378c-4.77-5.792-9.248-11.535-12.557-17.716c-0.341-0.584-1.071-1.168-1.995-1.363
		c-0.973-0.195-2.142,0-2.774,0.341c-1.265,0.827-2.628,1.898-3.845,3.164c-1.801,1.801-3.31,3.991-4.137,6.23
		c-0.779,2.044-0.925,4.137-0.097,5.987c5.987,13.774,15.088,26.282,25.406,38.547V140.378z"/>
	<path fill="#F68B1F" d="M110,181.797c-11.681-13.579-22.145-27.353-28.911-42.782c-0.633-1.46-1.46-1.849-2.872-0.682
		c-3.601,3.018-8.761,10.27-9.734,16.354c-0.39,2.433,0.681,4.38,1.606,6.473c5.451,12.411,13.433,24.335,23.314,35.773
		c5.062,5.841,10.659,11.632,16.597,17.23V181.797z"/>
	<path fill="#F68B1F" d="M110,219.663c-2.628-2.433-5.208-4.916-7.69-7.398c-2.287-2.287-4.624-2.093-6.23,0.633
		c-7.69,13.093-13.287,27.45-16.743,42.928c-4.04,18.154-5.256,37.915-3.748,59.038c0.438,6.133,3.504,12.655,7.787,18.154
		c2.823,3.651,6.23,6.863,9.734,9.15c2.336,1.558,2.969,0.487,2.677-2.093c-0.097-1.071-0.195-2.239-0.292-3.456
		c-0.146-1.606-0.292-3.407-0.292-3.456c-1.801-17.716-1.071-34.897,1.509-50.861c2.628-16.402,7.3-31.441,13.287-44.485V219.663z"
		/>
	<path fill="#F68B1F" d="M110,248.087c-4.088,10.61-7.3,22.34-9.345,34.848c-2.531,15.624-3.212,32.463-1.509,49.839
		c0.244,2.434,0.292,2.969,0.341,3.504c0.681,7.593,1.071,12.265,7.057,18.349c2.774,2.872,5.646,5.013,8.614,6.327
		c3.164,1.411,3.699,0.195,3.212-2.92c-2.725-16.256-3.261-30.565-2.385-43.414c0.633-9.053,1.947-17.473,3.699-25.309
		c-6.181-12.168-9.686-25.893-9.686-40.397V248.087z"/>
	<path fill="#F68B1F" d="M127.91,356.574c-2.19-1.265-5.987-2.823-5.5,1.314c0.244,2.093,1.655,3.991,3.212,5.305
		c38.109,31.539,111.846,31.49,149.906,0c1.557-1.314,2.969-3.212,3.212-5.305c0.487-4.137-3.31-2.579-5.5-1.314
		C229.146,382.515,172.006,382.515,127.91,356.574z"/>
	<path fill="#F68B1F" d="M310.767,199.513c2.044-2.336,4.04-4.721,5.938-7.155c2.141-2.726,3.748-2.726,5.646,0.243
		c5.694,9.053,10.513,18.69,14.601,28.813c5.013,12.606,8.81,25.99,11.341,40.008c1.606,9.004-0.438,19.858-4.429,29.835
		c-2.725,6.814-6.327,13.238-10.221,18.3c-3.455,4.429-3.893,4.137-3.699-1.168c0.876-18.933-0.487-36.795-4.234-53.392
		c-3.602-16.207-9.442-31.198-17.57-44.777C305.121,205.208,307.555,203.261,310.767,199.513z"/>
	<path fill="#F68B1F" d="M324.492,181.505c3.942-6.035,7.349-12.168,10.075-18.446c0.827-1.801,2.677-2.287,3.796-0.438
		c1.411,2.239,2.677,4.672,3.699,7.155c1.12,2.628,2.044,5.403,2.872,8.274c0.681,2.482-0.584,5.208-1.655,7.398
		c-1.703,3.553-3.651,6.911-5.841,10.124c-1.12,1.655-2.336,3.261-3.553,4.721c-0.584,0.779-1.898,0.973-2.336,0.048
		c-2.19-3.991-4.478-7.982-7.009-11.827C322.935,186.031,322.886,183.939,324.492,181.505z"/>
	<path fill="#F68B1F" d="M351.796,258.307c-0.341-1.801-0.73-3.553-1.119-5.305c-0.097-0.487-0.195-1.996,0.292-2.434
		c0.535-0.487,1.119-1.022,1.655-1.558c0.633-0.584,0.925-0.243,1.022,0.535c0.146,2.288,0.049,4.575-0.292,6.814
		c-0.097,0.584-0.195,1.168-0.292,1.703C352.526,260.4,352.137,260.206,351.796,258.307z"/>
	<path fill="#F68B1F" d="M348.097,242.198c-0.779-2.775-1.558-5.5-2.434-8.226c-0.438-1.411,0.146-3.748,1.217-4.818
		c0.974-1.022,1.947-2.044,2.872-3.163c0.779-0.925,1.558-1.898,2.288-2.969c0.681-0.925,1.849-0.535,2.142,0.487
		c0.243,1.022,0.438,2.093,0.584,3.212c0.389,3.31,0.244,7.155-0.438,11.681c-0.243,1.898-1.022,3.504-2.093,4.964
		C349.168,247.697,349.217,246.432,348.097,242.198z"/>
	<path fill="#F68B1F" d="M342.403,224.433c-0.584-1.509-1.168-3.018-1.752-4.526c-1.558-3.942-3.31-7.836-5.111-11.632
		c-0.876-1.85-0.146-3.407,0.973-4.818c1.509-1.85,2.92-3.748,4.234-5.646c1.558-2.336,3.066-4.77,4.429-7.301
		c0.633-1.168,2.093-2.482,3.261-0.779c1.022,1.46,1.898,3.261,2.628,5.354c1.411,4.088,2.239,9.248,2.531,15.38
		c0.049,0.876-0.097,1.85-0.389,2.774c-0.389,1.168-0.925,2.288-1.509,3.164c-1.655,2.628-3.309,4.964-5.013,7.009
		c-0.487,0.535-0.924,1.071-1.411,1.557C344.009,226.379,343.133,226.428,342.403,224.433z"/>
	<path fill="#F68B1F" d="M90.385,199.513c-2.044-2.336-4.04-4.721-5.938-7.155c-2.142-2.726-3.748-2.726-5.646,0.243
		c-5.695,9.053-10.513,18.69-14.601,28.813c-5.013,12.606-8.81,25.99-11.34,40.008c-1.606,9.004,0.438,19.858,4.429,29.835
		c2.726,6.814,6.327,13.238,10.221,18.3c3.455,4.429,3.894,4.137,3.699-1.168c-0.876-18.933,0.487-36.795,4.234-53.392
		c3.602-16.207,9.442-31.198,17.57-44.777C96.031,205.208,93.597,203.261,90.385,199.513z"/>
	<path fill="#F68B1F" d="M76.66,181.505c-3.942-6.035-7.349-12.168-10.075-18.446c-0.827-1.801-2.677-2.287-3.796-0.438
		c-1.412,2.239-2.677,4.672-3.699,7.155c-1.119,2.628-2.044,5.403-2.872,8.274c-0.681,2.482,0.584,5.208,1.655,7.398
		c1.703,3.553,3.65,6.911,5.84,10.124c1.12,1.655,2.336,3.261,3.553,4.721c0.584,0.779,1.898,0.973,2.336,0.048
		c2.19-3.991,4.478-7.982,7.008-11.827C78.217,186.031,78.266,183.939,76.66,181.505z"/>
	<path fill="#F68B1F" d="M49.356,258.307c0.341-1.801,0.73-3.553,1.119-5.305c0.097-0.487,0.195-1.996-0.292-2.434
		c-0.535-0.487-1.12-1.022-1.655-1.558c-0.633-0.584-0.925-0.243-1.022,0.535c-0.146,2.288-0.049,4.575,0.292,6.814
		c0.097,0.584,0.195,1.168,0.292,1.703C48.626,260.4,49.015,260.206,49.356,258.307z"/>
	<path fill="#F68B1F" d="M53.055,242.198c0.779-2.775,1.557-5.5,2.433-8.226c0.438-1.411-0.146-3.748-1.217-4.818
		c-0.973-1.022-1.947-2.044-2.872-3.163c-0.779-0.925-1.558-1.898-2.287-2.969c-0.682-0.925-1.85-0.535-2.142,0.487
		c-0.243,1.022-0.438,2.093-0.584,3.212c-0.389,3.31-0.243,7.155,0.438,11.681c0.243,1.898,1.022,3.504,2.093,4.964
		C51.984,247.697,51.935,246.432,53.055,242.198z"/>
	<path fill="#F68B1F" d="M58.749,224.433c0.584-1.509,1.168-3.018,1.752-4.526c1.558-3.942,3.31-7.836,5.11-11.632
		c0.876-1.85,0.146-3.407-0.973-4.818c-1.509-1.85-2.92-3.748-4.235-5.646c-1.557-2.336-3.066-4.77-4.429-7.301
		c-0.633-1.168-2.093-2.482-3.261-0.779c-1.022,1.46-1.898,3.261-2.628,5.354c-1.412,4.088-2.239,9.248-2.531,15.38
		c-0.049,0.876,0.097,1.85,0.389,2.774c0.39,1.168,0.925,2.288,1.509,3.164c1.655,2.628,3.31,4.964,5.013,7.009
		c0.487,0.535,0.925,1.071,1.411,1.557C57.143,226.379,58.019,226.428,58.749,224.433z"/>
	<path d="M263.556,337.982l-0.584-0.146c-0.341-0.097-0.73-0.195-1.119-0.244c-0.39,0-0.779,0-1.12,0.049
		c-0.389,0.049-0.73,0.097-1.119,0.243c-0.341,0.097-0.73,0.243-1.12,0.438c-0.341,0.243-0.681,0.438-1.022,0.682
		c-0.292,0.243-0.584,0.535-0.827,0.827c-0.243,0.244-0.438,0.584-0.633,0.876c-0.195,0.341-0.341,0.682-0.438,1.071l0,0
		c-0.146,0.389-0.195,0.827-0.243,1.217c-0.049,0.438-0.049,0.876,0,1.265l0,0c0.048,0.438,0.146,0.827,0.292,1.266l0,0
		c0.146,0.389,0.341,0.827,0.535,1.265c0.244,0.389,0.487,0.779,0.73,1.12c0.292,0.341,0.584,0.681,0.925,0.925l0,0
		c0.292,0.292,0.633,0.535,1.022,0.73c0.341,0.195,0.73,0.39,1.12,0.487l0,0c0.389,0.146,0.73,0.195,1.119,0.243
		c0.341,0.049,0.73,0,1.12,0c0.389-0.049,0.779-0.146,1.119-0.243c0.39-0.146,0.779-0.292,1.168-0.487v-0.049
		c0.389-0.195,0.73-0.438,1.071-0.681c0.341-0.244,0.633-0.535,0.876-0.827c0.243-0.292,0.438-0.633,0.632-0.925
		c0.146-0.341,0.292-0.73,0.39-1.071l0.146-0.633l0.584,0.195l2.044,0.73l0.535,0.195l-0.195,0.535
		c-0.194,0.584-0.438,1.119-0.73,1.606c-0.292,0.535-0.584,1.022-0.974,1.46l0,0c-0.389,0.438-0.827,0.827-1.314,1.217
		c-0.487,0.341-1.022,0.681-1.606,1.022l0,0c-0.584,0.292-1.168,0.535-1.752,0.73c-0.584,0.195-1.168,0.341-1.752,0.389l0,0
		c-0.633,0.097-1.217,0.097-1.801,0.049c-0.535-0.049-1.119-0.146-1.703-0.292c-0.633-0.195-1.217-0.438-1.752-0.73l0,0
		c-0.584-0.292-1.12-0.633-1.606-1.071c-0.487-0.389-0.925-0.876-1.314-1.363c-0.438-0.487-0.779-1.071-1.12-1.655
		c-0.292-0.632-0.584-1.217-0.779-1.849c-0.195-0.633-0.292-1.266-0.389-1.898l0,0c-0.049-0.633-0.049-1.265,0-1.898
		c0.097-0.633,0.195-1.217,0.389-1.85l0,0c0.195-0.584,0.438-1.119,0.73-1.606c0.292-0.535,0.633-1.022,1.022-1.46l0,0l0,0l0,0
		c0.39-0.438,0.827-0.876,1.314-1.217c0.487-0.389,1.022-0.73,1.606-1.071l0,0c0.584-0.292,1.119-0.535,1.703-0.73
		c0.535-0.195,1.119-0.292,1.703-0.389l0,0c0.535-0.097,1.12-0.097,1.655-0.049c0.584,0,1.12,0.097,1.703,0.243l0.535,0.146
		l-0.146,0.535l-0.487,2.093L263.556,337.982z"/>
	<polygon points="217.513,367.525 217.416,366.941 214.739,350.004 214.642,349.419 215.177,349.371 223.987,347.959 
		224.571,347.862 224.619,348.397 224.96,350.442 225.057,350.977 224.473,351.074 218.438,352.048 219.071,356.233 225.155,355.26 
		225.69,355.163 225.788,355.746 226.128,357.694 226.177,358.229 225.642,358.326 219.558,359.3 220.726,366.454 220.823,366.99 
		220.239,367.087 218.049,367.428 	"/>
	<path d="M169.135,365.14l0.438-0.681l9.637-15.915l0.195-0.341l0.389,0.097l1.849,0.292l0.341,0.049l0.097,0.341l4.478,18.154
		l0.195,0.779l-0.827-0.097l-2.579-0.438l-0.389-0.048l-0.097-0.389l-0.779-3.748l-7.203-1.168l-1.947,3.358l-0.195,0.341
		l-0.39-0.049l-2.385-0.389L169.135,365.14L169.135,365.14z M176.532,359.105l4.818,0.779l-1.411-6.473L176.532,359.105z"/>
	<path d="M130.49,349.663l0.243-0.487l7.787-15.331l0.244-0.486l0.535,0.243l3.455,1.801c0.973,0.487,1.801,1.022,2.434,1.606
		c0.681,0.633,1.168,1.314,1.509,2.044l0,0c0.341,0.73,0.487,1.509,0.438,2.287c-0.049,0.779-0.292,1.606-0.681,2.385
		c-0.389,0.779-0.876,1.363-1.412,1.898c-0.584,0.487-1.217,0.876-1.947,1.119c-0.73,0.243-1.46,0.341-2.19,0.292
		c-0.438-0.049-0.827-0.146-1.266-0.292l2.044,7.593l0.341,1.217l-1.119-0.584l-2.482-1.266l-0.243-0.097l-0.049-0.243l-1.606-7.252
		l-0.389-0.146l-2.434,4.721l-0.243,0.487l-0.487-0.244l-1.995-1.022L130.49,349.663L130.49,349.663z M137.79,342.752l0.925,0.438
		c0.584,0.292,1.071,0.487,1.558,0.584c0.487,0.097,0.924,0.097,1.314,0l0,0c0.341-0.049,0.681-0.243,0.973-0.487
		c0.341-0.244,0.584-0.584,0.827-1.022c0.195-0.389,0.292-0.779,0.292-1.168l0,0c0.049-0.341-0.049-0.681-0.195-1.022l0,0
		c-0.195-0.341-0.438-0.682-0.827-1.022c-0.39-0.292-0.876-0.633-1.46-0.925l-0.876-0.438L137.79,342.752z"/>
	<path d="M151.029,354.481c1.071,0,1.996,0.876,1.996,1.947c0,1.071-0.925,1.995-1.996,1.995s-1.947-0.925-1.947-1.995
		C149.082,355.357,149.958,354.481,151.029,354.481z"/>
	<path d="M192.351,363.68c1.119,0,1.995,0.876,1.995,1.947c0,1.119-0.876,1.996-1.995,1.996c-1.071,0-1.947-0.876-1.947-1.996
		C190.404,364.556,191.28,363.68,192.351,363.68z"/>
	<path d="M236.738,359.008c1.12,0,1.996,0.925,1.996,1.996c0,1.071-0.876,1.947-1.996,1.947c-1.071,0-1.947-0.876-1.947-1.947
		C234.792,359.932,235.668,359.008,236.738,359.008z"/>
	<path d="M276.551,341.778c1.071,0,1.947,0.876,1.947,1.947c0,1.119-0.876,1.995-1.947,1.995c-1.119,0-1.995-0.876-1.995-1.995
		C274.556,342.654,275.432,341.778,276.551,341.778z"/>
	<path fill="#ED1C24" d="M230.801,246.286c0.243-2.628,0.633-5.256,1.071-7.787c-3.699,0.195-7.203,1.119-10.513,2.725
		c-4.38,1.363-6.765,3.358-8.712,5.938c0.097,0,0.243,0,0.341,0C218.536,247.211,224.473,246.87,230.801,246.286z"/>
	<path fill="#ED1C24" d="M196.585,255.971c2.726-0.097,5.403-0.146,8.128-0.195c8.566-0.195,17.132-0.341,25.844-0.341
		c-0.146-2.044-0.097-4.137,0-6.279c-6.23,0.584-12.119,0.925-17.57,0.925c-5.597-0.049-10.805-0.438-15.477-1.265
		c-0.487,0.973-0.876,1.947-1.071,3.018C196.196,253.051,196.196,254.414,196.585,255.971z"/>
	<path fill="#ED1C24" d="M183.103,256.361c2.287-0.049,4.575-0.146,6.863-0.195c0.292-1.752,0.097-3.748-0.146-5.938
		c-1.363,0.973-2.677,2.093-3.942,3.261C184.953,254.414,184.028,255.387,183.103,256.361z"/>
	<path fill="#FFFFFF" d="M286.091,262.201c0.438-2.969,0.779-5.938,0.925-9.004c-2.726-1.85-5.548-3.066-8.517-3.748
		c-3.31-0.827-6.814-0.973-10.367-0.779c-0.049,2.288-0.195,4.527-0.438,6.668c-0.146,1.168-0.341,2.336-0.584,3.407
		c3.845-0.244,7.641-0.146,11.292,0.633h0.049C281.029,259.962,283.609,260.838,286.091,262.201z"/>
	<path fill="#00A651" d="M283.414,273.834c0.827-2.823,1.557-5.694,2.142-8.615c-2.482-1.509-5.062-2.434-7.739-3.018l0,0
		c-3.65-0.779-7.495-0.827-11.438-0.487c-1.071,3.845-2.677,7.398-5.013,10.61c4.77-0.682,9.442-1.022,14.017-0.487
		C278.109,272.13,280.785,272.763,283.414,273.834z"/>
	<path fill="#FFFFFF" d="M177.263,331.801c7.447,2.093,15.283,3.212,23.314,3.212c10.61,0,20.782-1.947,30.176-5.451
		c-2.093-0.195-4.234-0.487-6.424-0.779c-4.672-0.584-9.345-1.168-14.163-1.168c-4.137,0.049-8.274,0.292-12.314,0.779
		c-4.137,0.487-8.274,1.217-12.265,2.141C182.714,331.217,179.939,331.655,177.263,331.801z"/>
	<path fill="#00A651" d="M144.459,314.328c6.911,5.889,14.796,10.708,23.362,14.212c1.022,0.146,1.995,0.244,3.018,0.341
		c4.575,0.341,9.101,0.049,14.114-1.168c4.089-0.925,8.323-1.703,12.557-2.19c4.137-0.487,8.42-0.779,12.654-0.779
		c4.916-0.049,9.734,0.584,14.553,1.168c3.018,0.389,5.986,0.779,9.199,1.022c0.973,0.049,1.947,0.097,2.92,0.097
		c6.911-3.212,13.385-7.301,19.176-12.168c-0.292,0.049-0.633,0.097-0.925,0.195c-7.057,1.168-14.066,2.336-21.366,1.801
		c-2.969-0.195-6.181-0.584-9.393-1.022c-4.672-0.584-9.345-1.168-14.163-1.168c-4.137,0.049-8.274,0.292-12.314,0.779
		c-4.137,0.487-8.274,1.217-12.265,2.142c-5.354,1.265-10.124,1.606-14.99,1.265c-4.818-0.389-9.734-1.46-15.477-2.969
		C151.564,314.96,148.011,314.425,144.459,314.328z"/>
	<path fill="#FFFFFF" d="M132.729,302.209c2.093,2.628,4.332,5.159,6.717,7.495c0.584,0.584,1.168,1.168,1.752,1.703
		c4.916-0.146,9.832,0.39,14.65,1.704c5.548,1.46,10.318,2.482,14.99,2.823c4.575,0.341,9.101,0.049,14.114-1.119
		c4.089-0.973,8.323-1.703,12.557-2.239c4.137-0.487,8.42-0.73,12.654-0.779c4.916-0.049,9.734,0.584,14.553,1.217
		c3.018,0.39,5.986,0.779,9.199,0.973c7.057,0.487,13.822-0.633,20.685-1.801c1.363-0.243,2.677-0.438,4.429-0.73
		c0.341-0.049,0.682-0.097,1.022-0.146c0.535-0.535,1.119-1.071,1.655-1.606c2.92-2.92,5.646-6.035,8.177-9.393
		c-3.407,0.097-6.911,0.535-10.416,1.071c-1.217,0.195-2.823,0.438-4.38,0.73c-7.057,1.168-14.066,2.336-21.366,1.849
		c-2.969-0.243-6.181-0.633-9.393-1.022c-4.672-0.633-9.345-1.217-14.163-1.168c-4.137,0-8.274,0.292-12.314,0.779
		c-4.137,0.487-8.274,1.168-12.265,2.142c-5.354,1.217-10.124,1.558-14.99,1.217c-4.818-0.389-9.734-1.411-15.477-2.969
		c-6.376-1.655-12.849-1.996-19.42-1.168C134.724,301.917,133.751,302.062,132.729,302.209z"/>
	<path fill="#00A651" d="M125.185,291.112c1.703,2.969,3.602,5.841,5.597,8.566c1.509-0.292,3.066-0.584,4.575-0.779
		c6.911-0.876,13.774-0.535,20.49,1.266c5.548,1.46,10.318,2.482,14.99,2.823c4.575,0.341,9.101,0.049,14.114-1.119
		c4.089-0.974,8.323-1.703,12.557-2.19c4.137-0.535,8.42-0.779,12.654-0.827c4.916,0,9.734,0.584,14.553,1.217
		c3.018,0.389,5.986,0.779,9.199,0.973c7.057,0.486,13.822-0.633,20.685-1.801c1.363-0.195,2.677-0.438,4.429-0.681
		c4.332-0.682,8.663-1.217,12.898-1.12c2.093-3.018,3.991-6.132,5.694-9.393c-0.827-0.195-1.703-0.292-2.531-0.389
		c-5.062-0.633-10.318-0.049-15.624,0.779c-1.217,0.195-2.823,0.487-4.38,0.73c-7.057,1.168-14.066,2.336-21.366,1.849
		c-2.969-0.195-6.181-0.633-9.393-1.022c-4.672-0.584-9.345-1.217-14.163-1.168c-4.137,0-8.274,0.292-12.314,0.779
		c-4.137,0.487-8.274,1.217-12.265,2.141c-5.354,1.266-10.124,1.606-14.99,1.217c-4.818-0.341-9.734-1.411-15.477-2.92
		c-6.376-1.703-12.849-2.044-19.42-1.217C132.242,289.311,128.738,290.041,125.185,291.112z"/>
	<path fill="#FFFFFF" d="M119.88,279.966c1.168,2.92,2.482,5.792,3.894,8.566c3.894-1.217,7.739-2.044,11.584-2.531
		c6.911-0.876,13.774-0.535,20.49,1.217c5.548,1.509,10.318,2.482,14.99,2.872c4.575,0.341,9.101,0,14.114-1.168
		c4.089-0.973,8.323-1.703,12.557-2.19c4.137-0.487,8.42-0.779,12.654-0.779c4.916-0.049,9.734,0.584,14.553,1.168
		c3.018,0.389,5.986,0.779,9.199,1.022c7.057,0.487,13.822-0.681,20.685-1.801c1.363-0.243,2.677-0.487,4.429-0.73
		c5.548-0.876,11.048-1.46,16.354-0.827c1.217,0.097,2.385,0.292,3.553,0.584c1.363-2.823,2.531-5.792,3.553-8.761
		c-2.385-1.022-4.867-1.606-7.398-1.898c-5.062-0.584-10.318-0.048-15.624,0.828c-1.217,0.146-2.823,0.438-4.38,0.681
		c-7.057,1.217-14.066,2.385-21.366,1.85c-2.969-0.195-6.181-0.584-9.393-1.022c-4.672-0.584-9.345-1.168-14.163-1.168
		c-4.137,0.048-8.274,0.292-12.314,0.779c-4.137,0.487-8.274,1.217-12.265,2.142c-5.354,1.266-10.124,1.606-14.99,1.217
		c-4.818-0.341-9.734-1.411-15.477-2.92c-6.376-1.704-12.849-1.996-19.42-1.169C130.49,276.559,125.185,277.971,119.88,279.966z"/>
	<path fill="#00A651" d="M116.278,268.48c0.73,2.969,1.606,5.889,2.579,8.761c5.548-2.044,11.048-3.504,16.5-4.186
		c4.137-0.535,8.225-0.633,12.314-0.244c-4.234-3.066-7.885-6.424-11-9.929c-3.31,0.341-6.619,1.022-9.978,1.947
		C123.238,265.754,119.783,266.971,116.278,268.48z"/>
	<path fill="#FFFFFF" d="M114.331,256.166c0.292,3.164,0.73,6.327,1.363,9.442c3.407-1.46,6.814-2.628,10.221-3.602
		c2.823-0.779,5.694-1.363,8.517-1.752c-1.752-2.19-3.31-4.478-4.672-6.814c-0.341-0.584-0.633-1.168-0.973-1.752
		c-2.628,0.584-5.208,1.266-7.739,2.093C118.76,254.462,116.521,255.29,114.331,256.166z"/>
	<path d="M225.155,251.299c1.168-0.097,2.385-0.195,3.602-0.292c-0.049,1.022-0.049,2.044,0.097,3.066
		c-1.217-0.049-2.434-0.049-3.651-0.049C224.863,253.002,225.009,251.98,225.155,251.299z"/>
	<path d="M217.222,251.688c1.557-0.049,3.163-0.097,4.721-0.194c0,0.876-0.049,1.703-0.195,2.531c-1.411,0-2.823,0-4.235,0
		C217.173,253.295,217.124,252.516,217.222,251.688z"/>
	<path d="M209.142,251.64c1.752,0.049,3.504,0.097,5.256,0.049c0,0.827-0.097,1.558-0.292,2.336c-1.509,0-3.018,0-4.526,0.049
		C209.191,253.295,209.093,252.516,209.142,251.64z"/>
	<path d="M200.722,251.25c1.947,0.146,3.845,0.244,5.743,0.292c0.049,0.876,0,1.703-0.097,2.531
		c-1.898,0.049-3.796,0.097-5.694,0.097C200.333,253.343,200.527,252.37,200.722,251.25z"/>
	<path fill="#ED1C24" d="M246.716,257.578c-1.801-0.244-3.602-0.389-5.451-0.438c-2.58,0-5.159,0.195-7.593,0.827
		c0.243,1.85,0.633,3.65,1.168,5.354c2.482-0.243,4.916-0.389,7.349-0.341c1.558,0,3.115,0.097,4.673,0.243L246.716,257.578z"/>
	<path fill="#ED1C24" d="M263.313,261.909c0.535-1.655,0.925-3.358,1.217-5.159c-1.947-0.146-3.894-0.097-5.889,0.097
		c-1.752,0.146-3.553,0.438-5.354,0.827l1.801,4.819c0.682-0.097,1.314-0.195,1.996-0.244
		C259.176,262.007,261.22,261.909,263.313,261.909z"/>
	<path fill="#ED1C24" d="M246.911,266.144c-1.606-0.195-3.164-0.292-4.721-0.292c-2.093-0.048-4.137,0.049-6.181,0.243
		c1.606,3.212,4.039,5.889,7.641,7.739c1.266,0.633,2.336,0.779,3.407,0.73L246.911,266.144z"/>
	<path fill="#ED1C24" d="M250.415,274.174c3.115-0.389,6.765-1.119,8.177-2.92c1.509-1.996,2.726-4.137,3.699-6.424
		c-1.655,0-3.31,0.097-4.916,0.292c-1.022,0.097-2.044,0.244-3.066,0.438L250.415,274.174z"/>
	<path fill="#ED1C24" d="M231.774,263.223c-0.438-1.557-0.73-3.212-0.973-4.916c-8.761,0.049-17.376,0.146-25.99,0.341
		c-9.004,0.195-18.057,0.487-27.304,0.827c-2.044,0.049-4.089,0.244-6.084,0.438c-1.606,0.194-3.213,0.341-4.478,0.438
		c-1.801,0.097-5.354,0.292-6.765-1.071c-2.142-1.996,0.827-3.942-4.04-5.403c-9.004-2.677-15.283-6.522-19.566-11.34
		c-4.429-4.916-6.668-10.708-7.593-16.84c-0.243-1.509-0.097-4.088-2.093-4.04c-0.389,0-0.876,0-1.168,0.049
		c-1.314,0.049-1.363,1.557-1.314,2.677c0.438,8.761,1.217,18.252,8.079,24.53c3.942,3.602,8.517,6.473,13.482,8.566
		c8.323,3.601,16.986,4.818,25.99,5.11c8.42,0.243,16.743,0.146,25.065,0.049C208.607,262.542,220.142,262.444,231.774,263.223z"/>
	<path fill="#ED1C24" d="M234.353,269.161c-0.584-0.925-1.071-1.947-1.509-2.969c-12.07-0.876-23.897-0.779-35.822-0.633
		c-9.053,0.097-18.105,0.146-27.353-0.146c-8.809-0.341-17.278-2.044-24.871-5.256c-4.283-1.85-8.274-4.186-11.876-7.057
		c2.336,3.796,4.137,6.717,8.128,8.663c4.526,2.142,9.248,3.845,14.066,5.062c6.619,1.703,13.482,2.531,20.539,2.482
		c5.987-0.049,11.973-0.146,18.008-0.243C207.146,268.82,220.774,268.577,234.353,269.161z"/>
	<path fill="#ED1C24" d="M184.953,275.975c4.089-0.925,8.323-1.655,12.557-2.19c4.137-0.487,8.42-0.779,12.654-0.779
		c4.916-0.049,9.734,0.584,14.553,1.217c3.018,0.341,5.986,0.73,9.199,0.973c2.142,0.146,4.283,0.146,6.376,0.048
		c-1.363-0.925-2.579-1.947-3.651-3.066c-14.358-0.73-28.667-0.487-42.928-0.243c-6.035,0.146-12.021,0.243-18.008,0.292
		c-7.301,0.048-14.455-0.828-21.318-2.579c-3.504-0.925-6.911-2.044-10.269-3.407C155.312,276.218,170.546,279.382,184.953,275.975z
		"/>
	<path fill="#ED1C24" d="M252.313,254.949c1.996-0.438,3.991-0.779,6.035-0.973c2.239-0.243,4.429-0.292,6.57-0.097
		c0.244-2.19,0.341-4.526,0.292-6.911c-1.022-0.097-1.995-0.097-2.92-0.049c-1.217,0.097-2.288,0.292-3.31,0.633
		c-1.849,0.535-3.699,0.827-5.597,0.924c-1.168,0.049-2.336,0-3.504-0.194L252.313,254.949z"/>
	<path fill="#ED1C24" d="M233.429,255.047c2.531-0.584,5.208-0.828,7.885-0.779c1.801,0,3.602,0.146,5.354,0.389l-0.146-6.911
		c-1.996-0.341-4.088-0.438-6.132-0.292c-2.385,0.146-4.721,0.584-6.911,1.266C233.332,250.861,233.332,252.954,233.429,255.047z"/>
	<path fill="#ED1C24" d="M265.113,244.096c-0.195-4.088-0.73-8.323-1.509-12.606c-0.195-1.168,0-1.314-1.314-1.509
		c-1.655-0.243-3.358-0.438-5.062-0.584c-0.827-0.049-0.681-0.097-1.119,0.633c-0.633,1.022-1.217,2.044-1.703,3.115
		c-3.455-0.146-6.814-0.146-10.124,0.048c-0.243-1.119-0.681-2.141-1.314-3.163c-0.39-0.584-0.292-0.633-1.022-0.584
		c-1.411,0.146-2.823,0.292-4.186,0.487c-1.509,0.194-1.266-0.195-1.606,1.363c-0.925,4.429-1.898,9.393-2.385,14.358
		c2.093-0.584,4.234-0.973,6.424-1.071c2.725-0.195,5.5-0.049,8.176,0.535c1.655,0.341,3.31,0.535,4.916,0.438
		c1.606-0.049,3.261-0.292,4.867-0.779c1.217-0.39,2.531-0.633,3.942-0.73C263.021,243.998,264.043,243.998,265.113,244.096z"/>
	<path d="M257.423,238.547c1.606,0,3.164,0.049,4.77,0.146c0.195,0.048,0.389,0.146,0.584,0.292
		c0.146,0.146,0.244,0.341,0.244,0.535c0.049,0.244,0.049,0.487,0.097,0.682c0.049,0.243,0.049,0.486,0.097,0.681
		c0,0.244-0.049,0.389-0.195,0.535c-0.146,0.146-0.341,0.244-0.584,0.244c-1.606-0.049-3.212-0.049-4.818,0
		c-0.243,0-0.438-0.049-0.584-0.195c-0.146-0.146-0.244-0.341-0.292-0.584c0-0.243,0-0.487-0.049-0.73c0-0.243,0-0.535-0.049-0.779
		c0-0.195,0.097-0.438,0.243-0.584C257.034,238.644,257.229,238.547,257.423,238.547z"/>
	<path d="M248.127,238.791c1.606,0.146,3.164,0.243,4.77,0.146c0.195,0,0.438,0.097,0.584,0.195
		c0.146,0.146,0.195,0.341,0.244,0.584c0,0.244,0,0.487,0,0.779c0.049,0.243,0.049,0.487,0.049,0.779
		c0,0.195-0.097,0.438-0.243,0.584c-0.146,0.195-0.341,0.292-0.535,0.292c-1.606,0-3.261-0.195-4.867-0.341
		c-0.195,0-0.389-0.097-0.584-0.243c-0.146-0.146-0.195-0.389-0.195-0.584c0-0.243,0-0.487,0-0.779c0-0.243,0-0.487,0-0.73
		c0-0.195,0.097-0.389,0.243-0.535C247.738,238.839,247.933,238.742,248.127,238.791z"/>
	<path d="M238.88,238.644c1.557-0.243,3.163-0.389,4.721-0.389c0.243,0.049,0.438,0.146,0.584,0.292
		c0.146,0.195,0.195,0.389,0.195,0.633c0,0.292,0,0.535,0,0.827c-0.049,0.243-0.049,0.535-0.049,0.779
		c0,0.244-0.097,0.438-0.244,0.584c-0.146,0.195-0.341,0.292-0.584,0.292c-1.606,0-3.212,0.097-4.818,0.292
		c-0.244,0-0.438-0.049-0.584-0.195c-0.146-0.146-0.243-0.341-0.195-0.584c0-0.243,0.049-0.487,0.049-0.779
		c0.048-0.244,0.048-0.487,0.048-0.779c0.049-0.243,0.146-0.438,0.292-0.633C238.442,238.791,238.637,238.644,238.88,238.644z"/>
	<path fill="#FFF200" d="M174.635,226.477c-2.628,1.266-5.159,2.677-7.69,4.089c-0.244-7.934,0.292-15.867-0.146-23.752
		c-0.049-1.168,0-2.093,0.097-2.92c0.389,0.097,0.827,0.827,1.46,2.433C169.962,210.269,172.201,218.105,174.635,226.477z"/>
	<path fill="#FFF200" d="M144.945,235.14c2.385-13.19,8.372-25.698,15.186-37.866c1.704,3.018-0.341,10.659-1.217,14.114
		c-1.606,6.424-2.823,14.455-3.748,21.61c2.288-7.641,4.527-15.428,6.522-23.994c0.73,6.522,0.779,14.309,0.827,22.048
		c0.535-2.969,1.022-5.938,1.509-8.907c0.049-0.438,1.558-0.682,1.558,0.146c-0.049,11.097-0.097,22.242-0.097,33.339
		c-0.049,1.071-0.292,1.314-0.828,1.363c-0.195,0-0.925,0.049-1.655,0.049c-1.898,0.049-1.558-0.487-1.509-2.336
		c0.244-7.155,0.584-14.358,1.022-21.561c-3.066,1.801-5.987,3.553-8.858,5.305c-0.389,3.456-0.681,6.863-0.779,10.27
		c0,1.411-0.682,1.703-1.314,1.606c-0.535-0.097-0.973-0.39-0.876-1.996c0.244-2.774,0.487-5.597,0.73-8.42
		c-1.119,0.73-2.19,1.46-3.261,2.19c1.168-2.19,2.531-4.186,4.186-5.987c0.925-1.168-0.682-2.482-1.655-1.314
		c-0.973,1.314-2.142,2.872-3.018,4.186c0.195-1.217,0.438-2.482,0.73-3.699c0.341-1.411-1.655-1.947-2.044-0.487
		c-0.438,1.947-0.779,3.942-1.022,5.938C144.166,239.277,144.556,237.282,144.945,235.14z"/>
	<path fill="#FFF200" d="M166.506,183.501c-1.119,1.46-2.044,2.969-2.92,4.478c-0.681-1.12-0.73-1.168-0.681-2.434
		c0.146-8.469,0.584-16.938,1.071-25.406c0.097-1.46,1.849-1.314,1.898,0.097C166.166,167.926,166.214,175.811,166.506,183.501z"/>
	<path fill="#FFF200" d="M150.737,164.957h6.425c0.925,0,2.628,0.73,3.164,0.535c0.925-0.389,2.287-0.779,2.19,0.779
		c-0.097,1.363-0.146,2.726-0.195,4.088c-0.097,2.093-0.146,1.996-2.142,1.655c-0.779-0.097-1.801,0.341-2.725,0.341h-6.717
		c-0.487,0-0.876-0.389-0.876-0.827v-5.694C149.861,165.346,150.25,164.957,150.737,164.957z"/>
	<path fill="#FFF200" d="M183.103,245.361l-0.195,6.376c1.12-0.876,2.093-1.947,3.456-2.628c0-0.292-0.194-2.287-0.049-4.04
		c0.049-0.535,0.195-0.73,0.195-1.314c0-1.119-0.146-2.287-0.195-3.018c0-1.168-1.071-1.071-2.142-0.973
		c0.097-4.721,0.195-9.393,0.243-14.115c0.049-2.482-1.509-0.535-2.093,0.341c-2.872,3.991-5.403,8.176-7.496,12.459
		c-2.433,4.965-4.672,9.637-5.694,14.358c-0.487,2.093,0.681,1.996,1.849,0.73c3.115-3.358,6.473-6.473,10.026-9.296
		C182.519,243.025,183.103,243.852,183.103,245.361z"/>
	<path fill="#FFF200" d="M218.828,227.791c-3.894,4.624-6.571,10.61-8.615,14.504c-0.876,1.655,1.314,1.655,2.142,0.341
		c2.531-3.796,5.548-6.96,8.907-9.686L218.828,227.791z"/>
	<path fill="#FFF200" d="M188.165,214.893c0.438,7.69,0.974,15.38,1.655,22.973c0.973-0.633,1.898-1.217,2.872-1.801
		c-1.022-7.057-2.142-14.017-3.261-20.928C188.506,209.685,187.922,210.999,188.165,214.893z"/>
	<path fill="#FFF200" d="M193.47,213.433c-0.779,0.827-1.558,1.703-2.287,2.531c1.071,6.376,2.044,12.8,3.017,19.176
		c0.535-0.341,2.823-1.947,3.31-1.606c0.487,0.292,0.681,1.558,0.925,2.142c0.243,0.633,1.265,1.947,1.995,1.217
		c0.389-0.487,0-2.093-0.146-2.579c-0.292-1.168-0.73-2.677-0.925-3.164c-1.947-5.841-3.845-11.535-5.597-16.889
		C193.665,213.968,193.567,213.676,193.47,213.433z"/>
	<path fill="#FFF200" d="M180.815,223.946c1.412-0.438,3.213-0.974,3.651-1.217c0.049-5.548,0.097-11.097,0.146-16.645
		c0-2.823-0.925-2.872-1.314-0.195L180.815,223.946z"/>
	<path fill="#FFF200" d="M190.598,212.362c0.584-0.633,1.217-1.314,1.849-1.996c-0.535-1.509-1.022-3.066-1.557-4.575
		c-0.73-2.239-1.947-2.823-1.411,0.049C189.82,208.03,190.209,210.172,190.598,212.362z"/>
	<path fill="#FFF200" d="M274.458,175.421c-11.438,7.203-21.513,16.061-30.76,26.623c-2.872,3.31-6.23,6.279-9.248,9.637
		c-3.164,3.553-6.327,6.717-9.248,9.637l2.19,2.872c1.119,1.655,0.438,2.579-0.876,0.973c-4.137-4.965-8.225-10.075-12.265-15.185
		c-2.726-3.456-3.407-2.774-1.752,0.73l6.23,13.19c1.363-0.195,2.579-0.146,3.601,0.195c-0.779,0.779-1.509,1.557-2.239,2.287
		c-0.049,0.049-0.097,0.097-0.097,0.097l2.579,5.451c2.385-1.801,4.867-3.407,7.495-4.916c8.858-5.111,20.15-6.23,30.468-3.358
		c2.044,0.584,3.651,1.46,4.478-0.876c4.867-13.19,6.084-26.574,6.522-40.445c0-0.535,2.288-2.579,3.407-3.602
		C275.821,177.903,275.675,174.691,274.458,175.421z"/>
	<path fill="#FFF200" d="M209.872,226.817c2.531-1.168,5.013-2.142,7.252-2.628l-5.646-11.924c-0.73-1.46-1.898-2.19-1.85,0.049
		C209.775,217.278,209.872,222.145,209.872,226.817z"/>
	<path fill="#FFF200" d="M201.063,231.344c1.801-0.973,3.65-1.947,5.5-2.92c0.049-4.186,0.049-8.323,0.049-12.509
		c0-2.969-0.827-2.385-1.752-0.243l-4.04,14.942C200.917,230.857,201.014,231.101,201.063,231.344z"/>
	<path fill="#FFF200" d="M206.611,228.424c-0.049,4.915-0.049,9.831-0.049,14.747c0.925-1.217,1.898-2.336,3.066-3.115
		c0.146-3.601,0.244-6.668,0.244-10.561C209.872,227.985,207.633,227.888,206.611,228.424z"/>
	<path fill="#FFF200" d="M204.226,200.584c-3.115,3.893-6.327,7.787-9.54,11.438c0.195,0.584,0.389,1.168,0.584,1.752
		c1.606,4.867,3.164,9.491,4.672,14.066l6.717-25.211c0-0.341,0-0.682,0-1.022C205.589,201.46,204.713,201.071,204.226,200.584z"/>
	<path fill="#FFF200" d="M224.863,220.928c8.81-10.61,17.376-21.318,26.623-31.003c-0.292-13.774-0.146-27.597,0.292-41.37
		c2.288-3.699,5.062-6.911,8.031-9.88c1.168-1.168-1.558-2.726-2.482-1.801c-12.021,11.827-23.362,25.114-34.313,39.18
		c-4.818,6.132-9.393,12.411-14.114,18.592c0.049,1.022,0.097,1.996,0.146,3.018c1.947,0.195,3.358,1.022,3.358,1.996
		c0,0.876-1.168,1.606-2.774,1.947L224.863,220.928z"/>
	<path fill="#FFF200" d="M193.665,209.004c1.217-1.314,2.434-2.58,3.456-3.748c3.164-3.601,6.23-7.3,9.199-11.194
		c0.146-0.195,0.292-0.389,0.438-0.584c0.049-3.942,0.097-7.836,0.194-11.73c0.049-1.703,1.12-1.071,1.168,0.097
		c0.195,3.066,0.389,6.084,0.584,9.101c0.584-0.779,1.217-1.606,1.801-2.385c-0.487-16.548-1.071-33.145-2.385-49.742
		c1.12-1.849,2.044-3.845,3.456-5.403c1.363-1.557-0.049-4.916-1.996-2.969c-17.668,17.717-30.955,35.627-42.003,53.538
		c-0.389,0.633-0.827,1.314-1.217,1.996c2.434,13.336,5.889,26.623,9.491,39.91c1.12-0.487,2.19-0.973,3.261-1.411l4.186-30.176
		c-1.363-0.292-2.288-0.876-2.288-1.558c0-0.876,1.558-1.606,3.602-1.801c0-3.991,0-7.982,0-11.973c0-0.925,1.509-0.925,1.606,0.049
		c0.195,3.991,0.438,7.933,0.633,11.924c2.141,0.195,3.748,0.925,3.748,1.801c0,0.633-0.779,1.168-1.947,1.509
		C190.306,199.075,192.01,203.991,193.665,209.004z"/>
	<path fill="#FFFFFF" d="M210.213,32.183l1.266,7.398c10.902,0.438,21.61,1.558,32.074,3.212l2.774-7.009
		c-1.168-0.195-2.287-0.389-3.456-0.535l-0.779,5.11c-2.336-0.341-4.672-0.681-7.058-0.973l0.682-5.159
		c-1.314-0.195-2.677-0.341-3.991-0.487l-0.584,5.159c-2.336-0.243-4.721-0.487-7.057-0.681l0.438-5.159
		c-1.314-0.097-2.677-0.243-3.991-0.341l-0.389,5.208c-2.336-0.195-4.721-0.341-7.106-0.438l0.244-5.208
		C212.257,32.232,211.235,32.232,210.213,32.183z"/>
	<path fill="#FFFFFF" d="M211.77,41.236l0.974,5.451c0.827,0.049,1.606,0.097,2.433,0.146l0.341-5.402
		C214.253,41.333,213.036,41.284,211.77,41.236z"/>
	<path fill="#FFFFFF" d="M212.987,48.293l1.168,6.619c1.947,0.146,3.893,0.243,5.841,0.389l0.535-6.522
		C218.049,48.585,215.518,48.439,212.987,48.293z"/>
	<path fill="#FFFFFF" d="M214.447,56.567l1.314,7.398c1.849,0.146,3.748,0.243,5.597,0.438l0.682-7.301
		C219.509,56.859,216.978,56.713,214.447,56.567z"/>
	<path fill="#FFFFFF" d="M222.964,64.549c1.363,0.097,2.774,0.243,4.137,0.39l0.925-7.301c-1.46-0.146-2.92-0.292-4.38-0.389
		L222.964,64.549z"/>
	<path fill="#FFFFFF" d="M228.708,65.133c1.947,0.194,3.894,0.438,5.841,0.73l2.774-7.008c-2.579-0.389-5.11-0.73-7.69-1.022
		L228.708,65.133z"/>
	<path fill="#FFFFFF" d="M237.906,57.297l2.434-6.279c-2.482-0.389-4.964-0.73-7.495-1.022l-0.779,6.522
		C234.013,56.762,235.96,57.005,237.906,57.297z"/>
	<path fill="#FFFFFF" d="M240.973,49.51l1.996-5.159c-1.411-0.243-2.872-0.438-4.283-0.633l-0.73,5.354
		C238.929,49.169,239.951,49.364,240.973,49.51z"/>
	<path fill="#FFFFFF" d="M265.211,39.629l-0.195,7.544c10.416,2.531,20.588,5.646,30.468,9.345l4.04-6.327
		c-0.876-0.341-1.752-0.682-2.628-1.022l-1.752,4.867c-2.239-0.779-4.478-1.606-6.717-2.336l1.655-4.916
		c-1.266-0.438-2.531-0.876-3.845-1.266l-1.557,4.916c-2.288-0.682-4.527-1.411-6.814-2.093l1.46-4.964
		c-1.265-0.341-2.579-0.73-3.845-1.12l-1.363,5.013c-2.288-0.633-4.624-1.265-6.911-1.849l1.266-5.013
		C267.401,40.165,266.282,39.873,265.211,39.629z"/>
	<path fill="#FFFFFF" d="M264.968,48.779l-0.146,5.548c0.876,0.244,1.752,0.438,2.628,0.682l1.411-5.208
		C267.547,49.461,266.282,49.12,264.968,48.779z"/>
	<path fill="#FFFFFF" d="M264.773,55.983l-0.195,6.717c1.996,0.535,3.942,1.071,5.889,1.606l1.85-6.327
		C269.786,57.297,267.304,56.616,264.773,55.983z"/>
	<path fill="#FFFFFF" d="M264.578,64.354l-0.243,7.544c1.898,0.487,3.796,1.022,5.646,1.606l2.142-7.057
		C269.64,65.717,267.109,65.036,264.578,64.354z"/>
	<path fill="#FFFFFF" d="M271.538,73.942c1.314,0.39,2.677,0.828,3.991,1.217l2.385-6.96c-1.411-0.438-2.823-0.876-4.234-1.314
		L271.538,73.942z"/>
	<path fill="#FFFFFF" d="M277.038,75.646c1.703,0.584,3.358,1.168,5.062,1.752l4.089-6.425c-2.239-0.779-4.527-1.557-6.765-2.287
		L277.038,75.646z"/>
	<path fill="#FFFFFF" d="M287.064,69.61l3.65-5.645c-2.19-0.827-4.38-1.558-6.57-2.336l-2.093,6.23
		C283.754,68.443,285.409,69.027,287.064,69.61z"/>
	<path fill="#FFFFFF" d="M291.59,62.554l2.969-4.672c-1.119-0.39-2.287-0.827-3.456-1.266l-1.801,5.111
		C290.082,62.018,290.812,62.262,291.59,62.554z"/>
	<path fill="#FFFFFF" d="M230.46,56.324c-2.92-0.341-5.889-0.633-8.858-0.876l0.535-6.571c3.066,0.292,6.084,0.584,9.101,0.925
		L230.46,56.324z"/>
	<path fill="#FFFFFF" d="M237.079,43.475l-0.73,5.354c-2.92-0.39-5.841-0.73-8.761-1.022l0.535-5.402
		C231.141,42.696,234.11,43.085,237.079,43.475z"/>
	<path fill="#FFFFFF" d="M226.566,42.258l-0.584,5.354c-3.018-0.292-6.084-0.535-9.199-0.73l0.341-5.354
		C220.288,41.674,223.402,41.966,226.566,42.258z"/>
	<path fill="#FFFFFF" d="M280.542,67.372c-2.823-0.925-5.646-1.801-8.517-2.628l1.801-6.327c2.969,0.876,5.889,1.801,8.761,2.725
		L280.542,67.372z"/>
	<path fill="#FFFFFF" d="M289.595,56.129l-1.801,5.062c-2.774-0.973-5.548-1.898-8.372-2.774l1.606-5.159
		C283.9,54.182,286.772,55.107,289.595,56.129z"/>
	<path fill="#FFFFFF" d="M279.471,52.819l-1.558,5.159c-2.969-0.925-5.938-1.752-8.907-2.531l1.411-5.256
		C273.436,51.018,276.503,51.895,279.471,52.819z"/>
	<path fill="#FFFFFF" d="M154.825,35.784l2.774,7.009c10.513-1.655,21.221-2.774,32.074-3.212l1.314-7.398
		c-1.071,0.049-2.093,0.049-3.115,0.097l0.243,5.208c-2.385,0.097-4.77,0.243-7.106,0.438l-0.389-5.208
		c-1.314,0.097-2.677,0.243-3.991,0.341l0.438,5.159c-2.336,0.195-4.721,0.438-7.057,0.681l-0.584-5.159
		c-1.314,0.146-2.677,0.292-3.991,0.487l0.633,5.159c-2.336,0.292-4.672,0.633-7.057,0.973l-0.73-5.11
		C157.113,35.395,155.993,35.59,154.825,35.784z"/>
	<path fill="#FFFFFF" d="M158.184,44.351l1.996,5.159c1.022-0.146,2.044-0.341,3.018-0.438l-0.73-5.354
		C161.055,43.913,159.595,44.107,158.184,44.351z"/>
	<path fill="#FFFFFF" d="M160.812,51.018l2.434,6.279c1.947-0.292,3.893-0.535,5.841-0.779l-0.779-6.522
		C165.776,50.288,163.294,50.629,160.812,51.018z"/>
	<path fill="#FFFFFF" d="M163.829,58.854l2.774,7.008c1.947-0.292,3.894-0.535,5.841-0.73l-0.925-7.301
		C168.94,58.124,166.409,58.465,163.829,58.854z"/>
	<path fill="#FFFFFF" d="M174.05,64.938c1.363-0.146,2.774-0.292,4.137-0.39l-0.681-7.3c-1.46,0.097-2.92,0.243-4.381,0.389
		L174.05,64.938z"/>
	<path fill="#FFFFFF" d="M179.794,64.403c1.849-0.195,3.748-0.292,5.597-0.438l1.314-7.398c-2.531,0.146-5.062,0.292-7.593,0.535
		L179.794,64.403z"/>
	<path fill="#FFFFFF" d="M186.997,54.912l1.168-6.619c-2.531,0.146-5.062,0.292-7.544,0.487l0.535,6.522
		C183.103,55.155,185.05,55.058,186.997,54.912z"/>
	<path fill="#FFFFFF" d="M188.408,46.687l0.973-5.451c-1.266,0.048-2.482,0.097-3.748,0.195l0.341,5.402
		C186.802,46.784,187.581,46.735,188.408,46.687z"/>
	<path fill="#FFFFFF" d="M101.628,50.191l4.039,6.327c9.88-3.699,20.052-6.814,30.468-9.345l-0.195-7.544
		c-1.071,0.243-2.19,0.535-3.261,0.779l1.265,5.013c-2.287,0.584-4.624,1.217-6.911,1.849l-1.363-5.013
		c-1.314,0.389-2.58,0.779-3.845,1.12l1.46,4.964c-2.288,0.682-4.527,1.411-6.814,2.093l-1.606-4.916
		c-1.266,0.389-2.531,0.827-3.796,1.266l1.655,4.916c-2.239,0.73-4.478,1.557-6.717,2.336l-1.752-4.867
		C103.38,49.51,102.504,49.85,101.628,50.191z"/>
	<path fill="#FFFFFF" d="M106.593,57.881l2.969,4.672c0.779-0.292,1.509-0.536,2.287-0.827l-1.801-5.111
		C108.88,57.054,107.712,57.492,106.593,57.881z"/>
	<path fill="#FFFFFF" d="M110.438,63.965l3.65,5.645c1.655-0.584,3.31-1.168,5.013-1.752l-2.093-6.23
		C114.818,62.407,112.628,63.138,110.438,63.965z"/>
	<path fill="#FFFFFF" d="M114.964,70.973l4.088,6.425c1.703-0.633,3.358-1.168,5.062-1.752l-2.385-6.96
		C119.442,69.416,117.203,70.195,114.964,70.973z"/>
	<path fill="#FFFFFF" d="M125.623,75.159c1.314-0.389,2.677-0.827,3.991-1.217l-2.142-7.057c-1.412,0.438-2.823,0.876-4.234,1.314
		L125.623,75.159z"/>
	<path fill="#FFFFFF" d="M131.171,73.504c1.85-0.584,3.748-1.119,5.646-1.606l-0.195-7.544c-2.579,0.682-5.11,1.363-7.593,2.093
		L131.171,73.504z"/>
	<path fill="#FFFFFF" d="M136.574,62.699l-0.195-6.717c-2.531,0.633-5.013,1.314-7.544,1.996l1.849,6.327
		C132.632,63.77,134.578,63.235,136.574,62.699z"/>
	<path fill="#FFFFFF" d="M136.331,54.328l-0.146-5.548c-1.314,0.341-2.579,0.682-3.893,1.022l1.411,5.208
		C134.578,54.766,135.455,54.572,136.331,54.328z"/>
	<path fill="#FFFFFF" d="M170.692,56.324c2.92-0.341,5.889-0.633,8.858-0.876l-0.535-6.571c-3.066,0.292-6.084,0.584-9.102,0.925
		L170.692,56.324z"/>
	<path fill="#FFFFFF" d="M164.073,43.475l0.73,5.354c2.92-0.39,5.841-0.73,8.761-1.022l-0.535-5.402
		C170.011,42.696,167.042,43.085,164.073,43.475z"/>
	<path fill="#FFFFFF" d="M174.586,42.258l0.535,5.354c3.066-0.292,6.133-0.535,9.248-0.73l-0.341-5.354
		C180.864,41.674,177.749,41.966,174.586,42.258z"/>
	<path fill="#FFFFFF" d="M120.61,67.372c2.823-0.925,5.646-1.801,8.517-2.628l-1.801-6.327c-2.969,0.876-5.889,1.801-8.761,2.725
		L120.61,67.372z"/>
	<path fill="#FFFFFF" d="M111.557,56.129l1.801,5.062c2.774-0.973,5.548-1.898,8.372-2.774l-1.606-5.159
		C117.252,54.182,114.38,55.107,111.557,56.129z"/>
	<path fill="#FFFFFF" d="M121.68,52.819l1.558,5.159c2.969-0.925,5.938-1.752,8.907-2.531l-1.411-5.256
		C127.716,51.018,124.649,51.895,121.68,52.819z"/>
	<polygon fill="#FFFFFF" points="90.337,36.855 88,31.209 84.301,32.767 86.686,38.413 80.018,41.187 77.682,35.541 73.983,37.099 
		77.487,45.421 101.774,35.2 98.27,26.878 94.62,28.435 96.956,34.081 	"/>
	<path fill="#FFFFFF" d="M97.296,38.851l-15.623,6.571c0.535,0.876,1.071,1.752,1.752,2.579l15.039-6.327
		C98.221,40.7,97.832,39.678,97.296,38.851z"/>
	<path fill="#FFFFFF" d="M113.99,79.199c1.168-0.438,2.336-0.827,3.553-1.265L98.805,48.779c0-1.849,0.146-3.602-0.097-5.451
		l-14.163,5.938c1.314,1.363,2.871,2.434,4.624,3.212l3.748,9.004c2.531-0.584,6.279-0.341,8.566,0.195
		c1.46,0.535,2.677,1.606,3.942,3.65v0.049L113.99,79.199z"/>
	<path fill="#FFFFFF" d="M110.973,80.367c0.487-0.195,1.022-0.389,1.509-0.584l-8.42-13.579l0,0
		c-1.071-1.752-1.995-2.628-3.115-3.018c-1.947-0.632-5.208-0.584-7.349-0.195l0.535,1.509c2.19-0.438,5.451-0.438,7.301,0.876
		c0.389,0.389,0.827,0.925,1.266,1.655l0,0L110.973,80.367z"/>
	<path fill="#FFFFFF" d="M102.212,84.017c0.049-0.049,0.097-0.049,0.195-0.097c2.336-1.022,4.672-1.996,7.057-2.92l-0.39-0.681
		l-5.694,2.19c-1.022,0.438-1.655-1.071-0.584-1.509l5.208-2.385l-0.73-1.168l-5.159,1.996c-1.071,0.438-1.655-1.071-0.633-1.509
		l4.77-2.141l-0.73-1.217l-4.672,1.801c-1.071,0.438-1.704-1.022-0.633-1.46l4.235-1.995l-0.73-1.168l-4.186,1.557
		c-1.022,0.438-1.655-1.022-0.584-1.46l3.748-1.752l-0.633-1.071l0,0l-0.097-0.146l-3.699,1.363
		c-1.071,0.486-1.655-1.022-0.633-1.46l3.31-1.509c-1.168-1.655-4.332-1.558-6.181-1.266L102.212,84.017z"/>
	<polygon fill="#FFFFFF" points="310.815,36.855 313.152,31.209 316.851,32.767 314.466,38.413 321.134,41.187 323.47,35.541 
		327.169,37.099 323.665,45.421 299.378,35.2 302.882,26.878 306.532,28.435 304.148,34.081 	"/>
	<path fill="#FFFFFF" d="M303.855,38.851l15.624,6.571c-0.535,0.876-1.071,1.752-1.752,2.579l-15.039-6.327
		C302.882,40.7,303.32,39.678,303.855,38.851z"/>
	<path fill="#FFFFFF" d="M291.688,81c2.385,0.925,4.721,1.898,7.057,2.92c0.097,0.049,0.146,0.049,0.195,0.097l7.447-18.008
		c-1.849-0.292-5.013-0.39-6.181,1.266l3.31,1.509c1.022,0.438,0.438,1.947-0.633,1.46l-3.699-1.363l-0.097,0.146l0,0l-0.633,1.071
		l3.748,1.752c1.071,0.438,0.438,1.898-0.584,1.46l-4.186-1.557l-0.73,1.168l4.234,1.995c1.071,0.438,0.438,1.898-0.633,1.46
		l-4.672-1.801l-0.73,1.217l4.77,2.141c1.022,0.438,0.438,1.947-0.633,1.509l-5.159-1.996l-0.73,1.168L298.356,81
		c1.071,0.438,0.438,1.947-0.584,1.509l-5.694-2.19L291.688,81z"/>
	<path fill="#FFFFFF" d="M288.67,79.783c0.487,0.195,1.022,0.389,1.509,0.584l8.274-13.336l0,0c0.438-0.73,0.876-1.265,1.265-1.655
		c1.849-1.314,5.11-1.314,7.301-0.876l0.535-1.509c-2.141-0.389-5.403-0.438-7.349,0.195c-1.119,0.389-2.044,1.266-3.115,3.018l0,0
		L288.67,79.783z"/>
	<path fill="#FFFFFF" d="M283.609,77.934c1.217,0.438,2.385,0.827,3.553,1.265l8.566-13.822v-0.049
		c1.266-2.044,2.482-3.115,3.942-3.65c2.287-0.535,6.035-0.779,8.566-0.195l3.748-9.004c1.703-0.779,3.31-1.849,4.624-3.212
		l-14.163-5.938c-0.243,1.849-0.097,3.602-0.097,5.451L283.609,77.934z"/>
	<polygon fill="#FFFFFF" points="261.512,21.865 262.729,15.878 257.861,14.856 256.596,20.891 248.565,19.285 249.782,13.25 
		244.915,12.228 243.114,21.183 273.826,27.413 275.675,18.458 270.759,17.484 269.543,23.519 	"/>
	<path fill="#FFFFFF" d="M254.357,69.465c-1.168-0.292-2.385-0.535-3.601-0.827c-1.996-0.39-4.04-0.779-6.035-1.168l0.244-0.632
		l5.938,0.973c1.12,0.243,1.46-1.363,0.341-1.558l-5.597-1.314l0.487-1.265l5.451,0.876c1.119,0.243,1.411-1.314,0.292-1.558
		l-5.062-1.217l0.487-1.265l4.916,0.827c1.12,0.195,1.46-1.363,0.341-1.606l-4.575-1.071l0.487-1.314l4.429,0.73
		c1.119,0.243,1.411-1.363,0.292-1.558l-4.04-0.973l0.438-1.168l0,0l0.097-0.195l3.845,0.633c1.119,0.243,1.46-1.314,0.341-1.558
		l-3.553-0.827c0.535-1.168,1.022-1.509,2.531-1.801c0.097,0,0.195,0,0.292-0.049c0.097,0.097,0.195,0.146,0.292,0.195
		c1.509,0.973,1.655,1.46,1.606,3.31l-0.049,1.363l0,0L254.357,69.465z"/>
	<path fill="#FFFFFF" d="M257.57,70.195c-0.535-0.146-1.071-0.292-1.606-0.389l0.681-15.623l0,0c0-0.876,0-1.558-0.146-2.142
		c-0.195-0.973-0.73-1.558-1.509-2.141l0,0c-0.438-0.292-0.925-0.633-1.509-0.973c-0.633,0.097-1.217,0.195-1.752,0.341
		c-0.925,0.243-1.655,0.535-2.239,1.363c-0.341,0.487-0.633,1.071-0.925,1.898l0,0l-5.451,14.65
		c-0.535-0.097-1.071-0.146-1.606-0.244l5.548-14.942l0,0c0.73-1.898,1.46-2.969,2.482-3.602c1.022-0.584,2.385-0.876,4.283-1.12
		c1.655,0.973,2.823,1.752,3.504,2.726c0.73,0.973,0.973,2.19,0.925,4.234l0,0L257.57,70.195z"/>
	<path fill="#FFFFFF" d="M262.777,71.46c-1.217-0.292-2.433-0.584-3.65-0.925l0.682-16.256l0,0c0.097-2.385-0.244-3.942-1.168-5.256
		c-1.022-1.412-2.969-2.628-4.478-3.407c-1.752,0.146-3.942,0.487-5.451,1.411c-1.363,0.827-2.288,2.142-3.164,4.38l0,0
		l-5.646,15.234c-1.217-0.195-2.482-0.389-3.699-0.535l12.606-32.269c-0.389-1.801-0.876-3.504-1.022-5.354l18.884,3.845
		c-0.828,1.606-1.947,3.018-3.018,4.526L262.777,71.46z"/>
	<polygon fill="#FFFFFF" points="144.556,20.891 143.339,14.856 138.423,15.829 139.64,21.865 131.609,23.519 130.393,17.484 
		125.525,18.458 127.326,27.413 158.038,21.183 156.237,12.228 151.37,13.25 152.587,19.285 	"/>
	<path fill="#FFFFFF" d="M134.481,32.329c0.827,1.655,1.947,3.018,3.018,4.526l0.876,34.605c1.217-0.292,2.434-0.633,3.65-0.925
		l-0.681-16.256l0,0c-0.097-2.385,0.243-3.942,1.168-5.256c1.022-1.412,2.92-2.628,4.478-3.407c1.703,0.146,3.942,0.487,5.451,1.411
		c1.363,0.827,2.287,2.142,3.163,4.38l0,0l5.646,15.234c1.217-0.195,2.482-0.389,3.699-0.535l-12.606-32.269
		c0.389-1.801,0.876-3.504,1.022-5.354L134.481,32.329z"/>
	<path fill="#FFFFFF" d="M145.189,69.805l-0.682-15.672c0-0.827,0-1.509,0.146-2.093c0.195-0.973,0.73-1.558,1.509-2.141
		c0.438-0.292,0.925-0.633,1.509-0.973c0.633,0.097,1.217,0.195,1.752,0.341l0,0c0.925,0.243,1.655,0.535,2.239,1.363
		c0.292,0.487,0.633,1.071,0.925,1.898l0,0l5.451,14.65c0.535-0.097,1.071-0.146,1.606-0.244l-5.548-14.942l0,0
		c-0.73-1.898-1.46-2.969-2.482-3.602c-1.022-0.584-2.385-0.876-4.283-1.12c-1.655,0.973-2.823,1.752-3.504,2.726
		c-0.73,0.973-0.973,2.19-0.876,4.234h-0.049l0.682,15.964C144.118,70.049,144.653,69.903,145.189,69.805z"/>
	<path fill="#FFFFFF" d="M146.113,53.355l3.553-0.584c1.119-0.243,1.46,1.363,0.341,1.557l-3.845,0.925v0.195l0,0l0.049,1.266
		l4.137-0.682c1.12-0.243,1.46,1.314,0.292,1.558l-4.332,1.022l0.049,1.411l4.624-0.779c1.119-0.194,1.46,1.363,0.341,1.606
		l-4.867,1.12l0.049,1.411l5.159-0.876c1.12-0.243,1.46,1.363,0.292,1.558l-5.354,1.314l0.049,1.314l5.646-0.925
		c1.12-0.244,1.46,1.363,0.341,1.557l-5.889,1.411l0.049,0.682c1.168-0.243,2.385-0.487,3.601-0.779
		c1.996-0.39,4.04-0.779,6.035-1.168l-4.867-13.092l0,0l-0.486-1.266c-0.633-1.752-0.973-2.141-2.774-2.434
		c-0.097-0.048-0.195-0.048-0.292-0.097c-0.097,0.097-0.195,0.146-0.292,0.195C146.454,51.603,146.113,52.089,146.113,53.355z"/>
	<path fill="#FFFFFF" d="M133.118,27.9c0.049,0.973,0.292,1.995,0.633,2.92l19.663-3.991c0-1.022-0.195-1.996-0.535-2.92
		L133.118,27.9z"/>
	<path fill="#FFFFFF" d="M248.273,23.909c-0.341,0.925-0.535,1.898-0.535,2.92l19.663,3.991c0.341-0.973,0.584-1.947,0.633-2.92
		L248.273,23.909z"/>
	<polygon fill="#FFFFFF" points="203.058,15.537 203.058,9.405 198.094,9.405 198.094,15.537 189.917,15.537 189.917,9.405 
		184.904,9.405 184.904,18.506 216.248,18.506 216.248,9.405 211.235,9.405 211.235,15.537 	"/>
	<path fill="#FFFFFF" d="M205.492,63.575c-3.31-0.097-6.522-0.097-9.831,0l0.097-0.73l6.035-0.195c1.12,0,1.12-1.606,0-1.606
		l-5.694-0.195l0.195-1.314l5.5-0.195c1.12,0,1.12-1.606,0-1.606l-5.159-0.194l0.195-1.363l4.964-0.146c1.12,0,1.12-1.606,0-1.606
		l-4.672-0.146l0.244-1.411l4.429-0.146c1.12,0,1.12-1.606,0-1.606l-4.137-0.146l0.195-1.217l0,0l0.049-0.194l3.894-0.146
		c1.12,0,1.12-1.606,0-1.606l-3.602-0.146c0.292-1.266,0.682-1.655,2.141-2.19c0.097-0.049,0.195-0.097,0.244-0.146
		c0.097,0.049,0.194,0.097,0.243,0.146c1.704,0.681,1.996,1.071,2.239,2.92l0.243,1.363l0,0L205.492,63.575z"/>
	<path fill="#FFFFFF" d="M208.753,63.624c-0.535,0-1.119,0-1.655-0.049l-2.434-15.429c-0.146-0.876-0.292-1.557-0.535-2.044
		c-0.389-0.925-1.071-1.363-1.947-1.801l0,0c-0.438-0.243-1.022-0.438-1.606-0.681c-0.584,0.243-1.168,0.438-1.606,0.681
		c-0.925,0.389-1.558,0.876-1.947,1.801c-0.292,0.633-0.438,1.363-0.535,2.044l-2.434,15.429c-0.535,0.049-1.119,0.049-1.655,0.049
		l2.531-15.721l0,0c0.292-1.995,0.827-3.212,1.703-3.991c0.876-0.827,2.142-1.363,3.942-1.996c1.801,0.633,3.066,1.168,3.942,1.996
		c0.876,0.779,1.411,1.995,1.752,3.991l0,0L208.753,63.624z"/>
	<path fill="#FFFFFF" d="M214.106,63.868c-1.265-0.049-2.482-0.097-3.748-0.146l-2.531-16.061l0,0
		c-0.389-2.434-1.071-3.845-2.239-4.964c-1.266-1.168-3.358-1.995-5.013-2.434c-1.655,0.438-3.748,1.265-5.013,2.434
		c-1.168,1.119-1.85,2.531-2.239,4.964l0,0l-2.531,16.061c-1.266,0.049-2.482,0.097-3.748,0.146l5.986-34.07
		c-0.73-1.703-1.558-3.261-2.093-5.062h19.274c-0.535,1.801-1.314,3.358-2.093,5.062L214.106,63.868z"/>
	<path fill="#FFFFFF" d="M190.501,20.113c-0.146,1.022-0.097,1.995,0.097,3.018h20.004c0.146-1.022,0.194-1.995,0.049-3.018H190.501
		z"/>
	<path fill="#FFFFFF" d="M291.006,99.203L291.006,99.203c0.633,0.292,0.973,0.779,1.022,1.266c0,0.195,0,0.341-0.049,0.487l0,0
		c-0.341,0.779-1.411,0.487-1.996,0.244c-56.847-24.384-121.969-24.384-178.817,0c-0.584,0.243-1.655,0.535-1.996-0.244l0,0
		c-0.049-0.146-0.049-0.292-0.049-0.487c0.049-0.487,0.389-0.974,1.022-1.266l0,0C169.378,74.624,231.774,74.624,291.006,99.203z"/>
	<path fill="#FFFFFF" d="M287.745,93.654c0.39,0.146,0.73,0.292,0.973,0.487c0.487,0.292,0.73,0.584,0.876,0.876l0,0
		c0.048,0.194,0.048,0.438,0,0.584c-0.341,0.827-1.314,0.681-1.996,0.438c-55.533-22.68-118.513-22.68-174.096,0
		c-0.633,0.243-1.606,0.389-1.947-0.438c-0.049-0.146-0.049-0.389,0-0.584l0,0c0.146-0.292,0.389-0.584,0.876-0.876
		c0.243-0.195,0.584-0.341,0.973-0.487C169.086,71.168,232.066,71.168,287.745,93.654z"/>
	<path fill="#FFFFFF" d="M287.21,89.274c0.828,0.292,1.168,0.779,1.168,1.168l0,0c0.049,0.146,0,0.341-0.049,0.487l0,0l-0.049,0.049
		c-0.341,0.827-0.925,0.779-1.606,0.535l0,0c-0.146-0.097-0.341-0.195-0.438-0.195c-54.852-21.561-116.469-21.561-171.321,0
		c-0.097,0-0.292,0.097-0.438,0.195l0,0c-0.681,0.243-1.266,0.292-1.606-0.535c-0.049,0-0.049-0.049-0.049-0.049l0,0
		c-0.049-0.146-0.097-0.341-0.049-0.487l0,0c0-0.389,0.341-0.876,1.168-1.168C169.378,67.42,231.774,67.42,287.21,89.274z"/>
	<path fill="#FFFFFF" d="M291.006,86.597c0.633,0.243,1.655,0.876,1.314,1.703c-0.292,0.681-1.168,0.827-1.801,0.535
		c-57.383-23.411-122.504-23.411-179.887,0c-0.633,0.292-1.509,0.146-1.801-0.535c-0.341-0.827,0.681-1.46,1.314-1.703
		C167.869,63.186,233.283,63.186,291.006,86.597z"/>
	<path fill="#FFFFFF" d="M298.112,85.38c0.487,0.244,0.73,0.682,0.779,1.168c0,0.195-0.049,0.341-0.097,0.487
		c-0.049,0.146-0.146,0.243-0.243,0.341c-0.292,0.243-0.876,0.292-1.752-0.049c-61.131-26.525-131.314-26.525-192.493,0
		c-0.828,0.341-1.412,0.292-1.704,0.049c-0.097-0.097-0.195-0.195-0.244-0.341c-0.049-0.146-0.097-0.292-0.097-0.487
		c0.049-0.487,0.292-0.925,0.779-1.168C164.949,58.417,236.203,58.417,298.112,85.38z"/>
	<path d="M193.567,38.753l1.314-7.446c0.244-0.779,0.195-0.682,0.973-0.779h1.217c0.584,0.049,0.633,0.292,0.584,0.779l-1.363,7.544
		c-0.097,0.584-0.097,0.925-0.827,0.925h-1.168C193.373,39.775,193.422,39.581,193.567,38.753z"/>
	<path d="M207.584,38.753l-1.314-7.446c-0.243-0.779-0.195-0.682-0.973-0.779h-1.217c-0.584,0.049-0.632,0.292-0.584,0.779
		l1.314,7.544c0.146,0.584,0.146,0.925,0.876,0.925h1.168C207.779,39.775,207.731,39.581,207.584,38.753z"/>
	<path d="M139.835,45.519l-0.195-7.544c0.049-0.779,0-0.73,0.779-0.973l1.217-0.243c0.535-0.049,0.682,0.146,0.682,0.681
		l0.195,7.641c0,0.633,0.097,0.925-0.633,1.071l-1.168,0.243C139.786,46.589,139.835,46.395,139.835,45.519z"/>
	<path d="M153.56,42.744l-2.725-7.009c-0.389-0.73-0.341-0.681-1.12-0.584l-1.217,0.243c-0.535,0.146-0.584,0.389-0.389,0.876
		l2.774,7.106c0.243,0.584,0.341,0.925,1.022,0.779l1.168-0.243C153.998,43.718,153.852,43.523,153.56,42.744z"/>
	<path d="M247.592,42.744l2.726-7.009c0.389-0.73,0.341-0.681,1.119-0.584l1.217,0.243c0.535,0.146,0.535,0.389,0.389,0.876
		l-2.823,7.106c-0.195,0.584-0.292,0.925-1.022,0.779l-1.119-0.243C247.154,43.718,247.3,43.523,247.592,42.744z"/>
	<path d="M261.317,45.519l0.195-7.544c-0.049-0.779,0-0.73-0.779-0.973l-1.217-0.243c-0.535-0.049-0.682,0.146-0.682,0.681
		l-0.194,7.641c0,0.584-0.097,0.925,0.633,1.071l1.168,0.243C261.366,46.589,261.317,46.395,261.317,45.519z"/>
	<path d="M101.725,57.248l-4.039-6.327c-0.535-0.633-0.487-0.584-1.217-0.389l-1.168,0.487c-0.487,0.292-0.438,0.487-0.195,0.925
		l4.137,6.424c0.341,0.535,0.487,0.876,1.168,0.584l1.071-0.487C102.358,58.124,102.212,57.978,101.725,57.248z"/>
	<path d="M299.427,57.248l4.04-6.327c0.535-0.633,0.487-0.584,1.217-0.389l1.168,0.487c0.487,0.292,0.438,0.487,0.195,0.925
		l-4.137,6.424c-0.341,0.535-0.487,0.876-1.168,0.584l-1.071-0.487C298.794,58.124,298.94,57.978,299.427,57.248z"/>
</g>
</svg>
