<?xml version="1.0" encoding="utf-8"?>
<!-- Generator: Adobe Illustrator 19.1.0, SVG Export Plug-In . SVG Version: 6.00 Build 0)  -->
<svg version="1.1" id="Layer_1" xmlns="http://www.w3.org/2000/svg" xmlns:xlink="http://www.w3.org/1999/xlink" x="0px" y="0px"
	 viewBox="0 0 400 400" enable-background="new 0 0 400 400" xml:space="preserve">
<g>
	<polygon fill-rule="evenodd" clip-rule="evenodd" fill="#FFFFFF" points="-0.622,0 399.378,0 399.378,400 -0.622,400 -0.622,0 	"/>
	<path fill-rule="evenodd" clip-rule="evenodd" fill="#008863" d="M199.377,382.353C140.987,362.7,96.82,325.25,76.236,274.149
		h63.608c-4.074-5.789-7.504-11.935-10.149-18.511H70.019c-1.644-6.002-3.002-12.148-4.003-18.437h58.176
		c-1.072-5.933-1.715-12.078-1.787-18.512H63.944c-0.286-4.145-0.429-8.434-0.429-12.721c0-1.929,0.072-3.861,0.072-5.718h59.533
		c0.358-4.217,0.929-8.29,1.644-12.293c0.358-2.073,0.786-4.146,1.215-6.218H64.301c1.859-28.516,7.362-52.243,17.295-76.328
		c33.019-0.787,43.882-6.218,57.247-12.936c15.151-7.576,28.231-15.724,60.534-15.724c32.305,0,45.384,8.148,60.535,15.724
		c13.366,6.718,24.228,12.149,57.247,12.936c9.934,24.085,15.438,47.812,17.295,76.328h-61.678c0.43,2.072,0.858,4.145,1.215,6.218
		c0.715,4.003,1.287,8.076,1.644,12.293h59.534c0,1.857,0.072,3.789,0.072,5.718c0,4.288-0.144,8.576-0.431,12.721h-58.46
		c-0.072,6.434-0.715,12.579-1.788,18.512h58.175c-1.001,6.289-2.358,12.435-4.001,18.437h-59.676
		c-2.645,6.576-6.076,12.722-10.149,18.511h63.607C301.935,325.25,257.768,362.7,199.377,382.353L199.377,382.353z"/>
	<path fill-rule="evenodd" clip-rule="evenodd" fill="#FFFFFF" d="M328.737,255.638c-1.788,6.361-3.86,12.508-6.218,18.511h-63.607
		c4.073-5.789,7.505-11.935,10.149-18.511H328.737L328.737,255.638z"/>
	<path fill-rule="evenodd" clip-rule="evenodd" fill="#FFFFFF" d="M276.35,218.689c-0.072,6.434-0.715,12.579-1.788,18.512h58.175
		c1.001-6.005,1.644-12.222,2.072-18.512H276.35L276.35,218.689z"/>
	<path fill-rule="evenodd" clip-rule="evenodd" fill="#FFFFFF" d="M272.776,181.739c0.43,2.072,0.858,4.145,1.215,6.218
		c0.715,4.003,1.287,8.076,1.644,12.293h59.534c-0.072-6.433-0.287-12.579-0.715-18.511H272.776L272.776,181.739z"/>
	<path fill-rule="evenodd" clip-rule="evenodd" fill="#FFFFFF" d="M123.12,200.251c0.358-4.217,0.929-8.29,1.644-12.293
		c0.358-2.073,0.786-4.146,1.215-6.218H64.301c-0.429,5.932-0.643,12.078-0.714,18.511H123.12L123.12,200.251z"/>
	<path fill-rule="evenodd" clip-rule="evenodd" fill="#FFFFFF" d="M124.192,237.201c-1.072-5.933-1.715-12.078-1.787-18.512H63.944
		c0.429,6.289,1.072,12.507,2.072,18.512H124.192L124.192,237.201z"/>
	<path fill-rule="evenodd" clip-rule="evenodd" fill="#FFFFFF" d="M139.844,274.149c-4.074-5.789-7.504-11.935-10.149-18.511H70.019
		c1.786,6.361,3.859,12.508,6.217,18.511H139.844L139.844,274.149z"/>
	<path fill-rule="evenodd" clip-rule="evenodd" fill="#FFFFFF" d="M199.949,311.456h-1.143
		c-22.298-7.575-40.737-19.94-53.458-36.379c-12.15-15.792-19.011-35.375-19.011-57.888c0-10.578,0.715-19.869,2.287-28.517
		c1.573-8.648,3.931-16.724,7.29-24.871l0.5-1.144c6.575-0.214,13.294-0.5,19.654-2.216c4.502-1.215,8.576-3.287,12.722-5.36
		c7.361-3.788,14.651-7.504,30.588-7.504c15.938,0,23.228,3.716,30.589,7.504c4.145,2.073,8.218,4.145,12.721,5.36
		c6.361,1.716,13.079,2.002,19.653,2.216l0.5,1.144c3.361,8.148,5.718,16.223,7.289,24.871c1.575,8.648,2.288,17.939,2.288,28.517
		c0,22.512-6.861,42.095-19.011,57.888C240.688,291.516,222.248,303.881,199.949,311.456L199.949,311.456z"/>
	<path fill-rule="evenodd" clip-rule="evenodd" fill="#008863" d="M199.377,307.526c21.227-7.289,38.807-19.155,50.885-34.878
		c11.65-15.079,18.227-33.806,18.227-55.459c0-10.365-0.644-19.44-2.216-27.873c-1.428-7.933-3.573-15.295-6.576-22.799
		c-8.075-0.285-13.651-1.072-18.009-2.286c-4.789-1.287-9.077-3.431-13.509-5.647c-6.931-3.573-13.792-7.075-28.802-7.075
		c-15.008,0-21.869,3.502-28.802,7.075c-4.431,2.215-8.719,4.36-13.508,5.647c-4.36,1.214-9.934,2.002-18.01,2.286
		c-3.002,7.505-5.146,14.867-6.575,22.799c-1.572,8.434-2.215,17.509-2.215,27.873c0,21.653,6.575,40.379,18.224,55.459
		C160.57,288.371,178.152,300.237,199.377,307.526L199.377,307.526z"/>
	<path fill-rule="evenodd" clip-rule="evenodd" fill="#FFFFFF" d="M116.259,146.22c2.001,1.501,2.93,3.716,2.645,6.718
		c-0.286,3.002-1.715,6.289-4.359,9.935c-1.501,2.072-2.931,3.788-4.36,5.074c-1.429,1.358-2.001,1.858-3.431,2.858l-5.217-3.216
		c2.001-1.144,3.288-1.929,5.217-3.431c1.715-1.286,3.073-2.715,4.217-4.288c0.286-0.357,0.643-0.929,1.001-1.572
		c0.429-0.715,0.715-1.287,0.858-1.787c0.215-0.572,0.286-1.144,0.286-1.644c0-0.501-0.215-0.929-0.715-1.287
		c-0.5-0.357-1-0.357-1.715-0.142c-0.643,0.215-1.358,0.715-2.215,1.501c-0.858,0.786-1.786,1.715-2.715,2.645
		c-0.929,0.929-1.788,1.715-2.716,2.502c-2.144,1.715-4.002,2.644-5.575,2.93c-1.644,0.214-3.216-0.215-4.574-1.215
		c-1.929-1.429-2.716-3.574-2.43-6.504c0.358-3.002,1.716-6.146,4.074-9.434c1.215-1.643,2.572-3.216,4.002-4.646
		c1.215-1.215,2.359-2.215,3.502-3.073l3.859,3.717c-2.788,1.572-5.646,4.145-7.433,6.574c-0.429,0.501-0.786,1.072-1.072,1.645
		c-0.358,0.572-0.644,1.143-0.786,1.786c-0.214,0.572-0.286,1.072-0.214,1.572c0.071,0.501,0.286,0.929,0.643,1.215
		c0.501,0.358,1.144,0.429,1.786,0.143c0.644-0.357,1.572-1.072,2.859-2.358c0.786-0.786,1.644-1.572,2.358-2.287
		c0.787-0.787,1.644-1.501,2.573-2.287c1.929-1.572,3.645-2.502,5.217-2.788C113.4,144.79,114.83,145.219,116.259,146.22
		L116.259,146.22z"/>
	<path fill-rule="evenodd" clip-rule="evenodd" fill="#FFFFFF" d="M130.196,119.348c-1.215-0.357-2.431-0.429-3.86-0.143
		c-1.143,0.214-2.358,0.715-3.574,1.358c-1.215,0.644-2.572,1.644-4.074,2.93l-10.077,8.434l16.224,19.368l5.861-4.932l-5.289-6.289
		l4.074-3.431c1.787-1.501,3.074-2.859,3.86-4.288c0.858-1.358,1.429-2.787,1.716-4.359c0.285-1.144,0.214-2.287-0.144-3.431
		c-0.286-1.143-0.858-2.143-1.572-3.001C132.412,120.419,131.339,119.705,130.196,119.348L130.196,119.348L130.196,119.348z
		 M128.194,128.495c0.144,0.5,0.144,1.072,0,1.715c-0.215,0.715-0.572,1.358-1.215,2.072c-0.572,0.643-1.358,1.43-2.429,2.287
		l-2.216,1.859l-4.86-5.789l1.501-1.286c1.001-0.858,1.858-1.501,2.43-2.001c0.643-0.5,1.358-0.857,2.215-1.215
		c0.572-0.214,1.215-0.286,1.93-0.214c0.714,0.071,1.286,0.429,1.715,0.929C127.766,127.423,128.052,127.995,128.194,128.495
		L128.194,128.495z"/>
	<path fill-rule="evenodd" clip-rule="evenodd" fill="#FFFFFF" d="M160.141,105.411c-3.574-1.072-7.719-0.572-12.365,1.358
		c-4.716,2.001-7.933,4.645-9.648,7.933c-1.715,3.359-1.787,6.861-0.214,10.578c1.572,3.716,4.145,6.075,7.719,7.146
		c3.574,1.072,7.718,0.572,12.435-1.43c4.717-2.001,7.933-4.645,9.648-7.932c1.715-3.288,1.787-6.79,0.214-10.506
		C166.359,108.77,163.786,106.411,160.141,105.411L160.141,105.411L160.141,105.411z M158.997,124.922
		c-0.786,0.643-1.786,1.286-2.787,1.715c-1.001,0.429-2.144,0.715-3.145,0.786c-1.001,0.072-2.001,0-2.93-0.357
		c-0.929-0.357-1.787-0.929-2.574-1.715c-0.857-0.787-1.572-1.858-2.144-3.287c-0.572-1.358-0.858-2.573-0.858-3.788
		c0-1.215,0.143-2.287,0.572-3.144c0.501-0.929,1.072-1.716,1.787-2.359c0.786-0.572,1.787-1.215,2.716-1.572
		c1-0.429,2.072-0.715,3.072-0.858c1.001-0.071,2.002,0.071,2.931,0.358c0.929,0.357,1.787,0.929,2.645,1.715
		c0.857,0.786,1.501,1.93,2.143,3.288c0.501,1.286,0.858,2.501,0.858,3.645c0.071,1.072-0.143,2.144-0.572,3.216
		C160.356,123.492,159.713,124.279,158.997,124.922L158.997,124.922z"/>
	<path fill-rule="evenodd" clip-rule="evenodd" fill="#FFFFFF" d="M194.161,112.915c1.929-0.929,3.359-2.072,4.288-3.359
		c0.928-1.215,1.285-2.787,1.143-4.645c-0.143-1.358-0.5-2.43-1.215-3.288c-0.786-0.858-1.788-1.501-3.002-1.929
		c-1.214-0.501-2.429-0.715-3.788-0.786c-1.358-0.072-2.93,0-4.717,0.142l-13.221,1.144l2.215,25.228l7.432-0.715l-0.786-9.22
		l3.931-0.356c3.645,2.787,6.433,5.645,8.005,8.647l8.719-0.5C200.878,119.348,198.591,115.703,194.161,112.915L194.161,112.915
		L194.161,112.915z M191.23,108.126c-0.214,0.429-0.572,0.858-1.072,1.287c-0.572,0.428-1.286,0.714-2.144,0.858
		c-0.786,0.214-1.858,0.357-3.145,0.429l-2.715,0.286l-0.644-6.79l3.216-0.286c0.929-0.071,1.786-0.143,2.501-0.143
		c0.715-0.072,1.358,0,1.93,0.143c0.786,0.215,1.358,0.501,1.716,0.929c0.357,0.429,0.571,0.93,0.643,1.572
		C191.587,107.127,191.444,107.698,191.23,108.126L191.23,108.126z"/>
	<polygon fill-rule="evenodd" clip-rule="evenodd" fill="#FFFFFF" points="230.038,100.551 202.809,97.692 202.237,102.909 
		212.243,103.982 210.098,123.851 217.46,124.637 219.532,104.696 229.466,105.768 230.038,100.551 	"/>
	<polygon fill-rule="evenodd" clip-rule="evenodd" fill="#FFFFFF" points="243.832,104.911 236.684,102.838 229.679,127.138 
		236.899,129.138 243.832,104.911 	"/>
	<polygon fill-rule="evenodd" clip-rule="evenodd" fill="#FFFFFF" points="281.496,123.635 275.207,119.919 266.773,132.926 
		260.197,111.914 253.479,108.842 243.117,131.855 249.549,134.642 255.839,120.919 262.2,141.502 267.702,145.291 281.496,123.635 
			"/>
	<path fill-rule="evenodd" clip-rule="evenodd" fill="#FFFFFF" d="M298.719,161.585l-6.646-10.363l-3.716,2.716l2.429,3.859
		l-3.645,2.573c-2.215-2.501-5.645-7.647-5.502-11.078c0.07-2.358,1.285-4.359,3.501-6.004c1.072-0.858,2.216-1.358,3.36-1.572
		c1.142-0.215,2.214-0.215,3.286,0.072c2.359,0.643,4.575,2.644,6.004,4.502c0.716,1.001,1.285,2.002,1.786,3.002
		c1.002,2.287,1.716,5.86,2.144,8.862l4.789-3.573c-0.713-2.358-1.501-5.289-2.358-6.933c-0.929-1.644-1.931-3.359-3.216-4.931
		c-3.216-4.359-6.718-7.004-10.434-7.933c-3.717-0.929-7.148-0.286-10.292,2.072c-3.286,2.502-5.002,5.647-5.074,9.434
		c0,3.788,1.5,7.791,4.716,12.007c1.357,1.858,2.929,3.502,4.645,5.074c1.715,1.572,4.217,4.002,5.432,4.86L298.719,161.585
		L298.719,161.585z"/>
	<path fill-rule="evenodd" clip-rule="evenodd" fill="#FFFFFF" d="M128.909,310.456c-0.643,0.715-1.358,1.215-2.216,1.572
		c-0.929,0.359-1.786,0.5-2.715,0.428c-1.287-0.069-2.502-0.357-3.645-0.928c-1.215-0.5-2.429-1.429-3.788-2.645l-3.216-3.001
		l-4.503,4.789l-4.359-4.073l13.793-14.723l7.79,6.931c1.144,1.072,2.001,2.073,2.645,3.004c1.143,1.5,2.001,4.073,1.644,5.93
		C130.196,308.74,129.695,309.599,128.909,310.456L128.909,310.456L128.909,310.456z M124.121,306.239
		c0.429-0.429,0.643-0.929,0.643-1.501c0-0.5-0.143-1.072-0.429-1.501c-0.286-0.643-0.715-1.143-1.144-1.572
		c-0.429-0.5-1.072-1.072-1.858-1.788l-1.287-1.214l-4.145,4.43l1.858,1.716c0.786,0.715,1.501,1.285,2.073,1.716
		c0.572,0.428,1.144,0.641,1.715,0.713c0.5,0.072,1.001,0.072,1.43-0.141C123.334,306.954,123.764,306.667,124.121,306.239
		L124.121,306.239z"/>
	<path fill-rule="evenodd" clip-rule="evenodd" fill="#FFFFFF" d="M151.065,325.965c-1.644,2.785-3.86,4.43-6.791,4.93
		c-2.93,0.5-6.146-0.213-9.576-2.214c-3.431-2.002-5.717-4.432-6.718-7.22c-1.001-2.716-0.715-5.502,0.929-8.289
		c1.572-2.86,3.859-4.502,6.789-5.002c2.859-0.502,6.075,0.285,9.505,2.214c3.431,2.003,5.718,4.432,6.718,7.148
		C152.994,320.317,152.708,323.106,151.065,325.965L151.065,325.965L151.065,325.965z M141.273,326.179
		c0.786-0.214,1.572-0.644,2.287-1.214c0.643-0.572,1.286-1.287,1.858-2.288c0.572-1.072,0.929-2.072,1.072-2.932
		c0.142-0.928,0.071-1.785-0.143-2.501c-0.215-0.713-0.572-1.429-1.072-2.001c-0.572-0.572-1.286-1.143-1.93-1.501
		c-0.714-0.428-1.501-0.716-2.215-0.857c-0.786-0.215-1.501-0.215-2.287,0c-0.786,0.141-1.501,0.5-2.287,1.142
		c-0.714,0.572-1.358,1.358-2.001,2.431c-0.572,1.001-0.929,2.001-1.072,2.858c-0.143,0.93-0.072,1.788,0.143,2.503
		c0.215,0.714,0.572,1.429,1.072,2.001c0.572,0.572,1.215,1.144,1.93,1.501c0.715,0.428,1.572,0.785,2.359,0.928
		C139.701,326.394,140.487,326.394,141.273,326.179L141.273,326.179z"/>
	<path fill-rule="evenodd" clip-rule="evenodd" fill="#FFFFFF" d="M173.72,342.332l-7.147-2.288
		c-0.286-3.073-1.858-6.076-3.859-9.077l-3.074-1.001l-2.286,7.076l-5.789-1.859l6.218-19.225l10.22,3.286
		c1.429,0.431,2.573,0.931,3.502,1.359c1.001,0.5,1.859,1.072,2.574,1.785c0.786,0.716,1.286,1.502,1.572,2.359
		c0.285,0.857,0.285,1.788,0,2.788c-0.501,1.429-1.287,2.501-2.359,3.073c-1.144,0.644-2.501,1-4.216,1.144
		C171.076,334.54,172.648,338.044,173.72,342.332L173.72,342.332L173.72,342.332z M169.289,326.179
		c0.143-0.501,0.143-0.929,0.071-1.358c-0.142-0.428-0.5-0.859-1.001-1.215c-0.357-0.285-0.857-0.5-1.358-0.714
		c-0.571-0.215-1.215-0.431-1.929-0.715l-2.573-0.787l-1.715,5.147l2.287,0.714c0.929,0.359,1.787,0.572,2.502,0.715
		c0.643,0.144,1.287,0.144,1.787,0c0.5-0.143,0.929-0.356,1.215-0.572C168.86,327.107,169.146,326.751,169.289,326.179
		L169.289,326.179z"/>
	<polygon fill-rule="evenodd" clip-rule="evenodd" fill="#FFFFFF" points="199.377,323.534 177.58,321.677 177.223,325.822 
		185.298,326.537 183.941,342.474 189.515,342.974 190.873,327.037 199.021,327.751 199.377,323.534 	"/>
	<path fill-rule="evenodd" clip-rule="evenodd" fill="#FFFFFF" d="M224.463,321.105l-6.218,0.644l1.072,12.65
		c0.143,1.5-0.143,2.572-0.857,3.286c-0.643,0.715-2.001,1.144-3.574,1.287c-1.644,0.143-3.075-0.072-3.86-0.644
		c-0.787-0.643-1.215-1.644-1.357-3.073l-1.072-12.506l-6.148,0.428l1.072,12.935c0.215,2.503,1.359,4.288,3.288,5.432
		c2.001,1.216,4.789,1.644,8.434,1.288c3.573-0.288,6.289-1.216,8.005-2.717c1.785-1.501,2.501-3.432,2.285-5.933L224.463,321.105
		L224.463,321.105z"/>
	<path fill-rule="evenodd" clip-rule="evenodd" fill="#FFFFFF" d="M253.336,321.89l-8.862,2.716l1.072,3.645l3.431-1.072
		l1.144,3.788c-2.645,1.072-6.648,2.144-9.364,1.072c-1.785-0.716-2.929-2.145-3.645-4.289c-0.285-1.072-0.357-2.001-0.213-2.929
		c0.285-1.929,1.429-3.36,3.001-4.432c0.788-0.501,1.929-1.001,3.001-1.358c0.931-0.286,1.86-0.428,2.788-0.5
		c1.929-0.072,4.501,0.214,6.504,0.572l-1.431-4.575c-1.929-0.142-3.645-0.07-5.145,0.143c-1.429,0.215-3.001,0.5-4.502,1
		c-4.145,1.288-7.076,3.145-8.862,5.718c-1.716,2.502-2.145,5.289-1.216,8.291c0.928,3.145,2.857,5.289,5.717,6.359
		c2.788,1.072,6.218,1.002,10.291-0.214c1.716-0.5,3.432-1.215,5.075-2.072c1.644-0.859,3.145-1.716,4.145-2.36L253.336,321.89
		L253.336,321.89z"/>
	<path fill-rule="evenodd" clip-rule="evenodd" fill="#FFFFFF" d="M283.212,316.888l-5.719,3.359l-3.573-2.716l-7.934,4.645
		l0.5,4.36l-5.574,3.215l-2.144-22.085l6.361-3.645L283.212,316.888L283.212,316.888L283.212,316.888z M270.703,315.101
		l-6.217-4.717l0.928,7.79L270.703,315.101L270.703,315.101z"/>
	<polygon fill-rule="evenodd" clip-rule="evenodd" fill="#FFFFFF" points="296.79,298.305 288.357,306.167 277.351,294.375 
		272.99,298.449 286.713,313.244 299.576,301.308 296.79,298.305 	"/>
	<path fill-rule="evenodd" clip-rule="evenodd" fill="#008863" d="M111.9,74.108c2.429,0,12.221,0.286,20.296-1.929
		c5.861-1.644,11.507-5.146,10.149-8.433c-1.286-2.93-6.862-3.002-13.437-1.501c-8.29,1.93-16.652,1.286-19.511,0
		c-3.217-1.429-5.861-4.002-7.148-7.433c-1.286-3.574,0.286-8.648,3.788-12.507c3.502-3.859,8.719-7.004,15.58-9.505
		c6.575-2.431,13.222-3.645,20.083-4.36l4.431,9.505c-3.788-0.071-8.291,0.072-13.079,1.001c-4.86,0.858-10.077,2.502-13.079,5.289
		c-2.787,2.645-1.429,6.289,2.501,5.861c2.215-0.214,5.075-0.501,7.647-0.786c6.432-0.572,13.222-1.572,19.512,0.286
		c12.578,3.716,9.505,15.866,1.858,22.798c-2.93,2.645-6.432,4.718-9.505,6.146c-7.718,3.573-16.724,4.932-24.942,5.575
		L111.9,74.108L111.9,74.108z"/>
	<path fill-rule="evenodd" clip-rule="evenodd" fill="#008863" d="M227.037,22.078c-3.504-1.429-7.219-2.573-11.149-3.288
		c-3.86-0.786-8.005-1.143-12.222-1.143c-5.36,0-10.506,0.643-15.366,1.858c-8.004,2.072-16.652,6.218-21.298,13.436
		c-1.929,3.073-2.859,6.289-2.859,9.791c0,4.003,1.287,7.791,3.859,11.15c5.289,6.933,14.437,10.935,22.727,12.721
		c4.074,0.858,8.362,1.144,12.792,1.144c4.217,0,8.221-0.358,12.078-1.072c3.86-0.715,8.721-2.573,11.936-3.931l-0.071-11.65
		c-7.148,3.717-14.938,5.932-23.015,5.932c-8.79,0-22.512-3.073-22.512-14.437c0-11.292,13.651-14.365,22.512-14.365
		c7.505,0,16.295,1.787,22.586,5.718V22.078L227.037,22.078z"/>
	<path fill-rule="evenodd" clip-rule="evenodd" fill="#008863" d="M253.479,75.394l5.576-17.509l12.791,4.074
		c4.217,1.286,11.006,2.286,16.796,0.285c8.22-2.93,10.721-11.935,5.717-18.939c-2.072-2.93-5.217-5.288-8.218-6.789
		c-3.216-1.572-9.506-3.431-15.223-5.36l-18.152-6.003l-14.295,45.312L253.479,75.394L253.479,75.394L253.479,75.394z
		 M281.567,49.951c-1.143,3.788-8.434,2.93-11.221,2.072l-8.505-2.644l3.216-10.578l9.649,3.074
		C277.994,42.948,282.853,45.949,281.567,49.951L281.567,49.951z"/>
	<path fill-rule="evenodd" clip-rule="evenodd" fill="#F1BD4A" d="M213.743,166.588c-1.787,1.358-3.216,2.501-4.717,2.93
		c-0.143,0-0.143,0.215-0.072,0.215c1.144,0.5,2.645,0.428,4.217,0.428c1.501-0.07,3.145-0.07,4.573,0.287
		c1.001,0.214,1.716,0.715,2.288,1.285c0.5,0.643,0.856,1.359,0.929,2.002c-1.788-0.929-3.502-1.358-5.002-1.287
		c-0.644,0-1.288,0.144-1.788,0.429c-0.572,0.286-1.001,0.715-1.287,1.215l0,0c-0.357,0.572-0.501,1.285-0.501,2.145
		c0.072,0.071,0.144,0.142,0.215,0.071c0.715-0.429,1.429-0.715,2.145-0.858c0.644-0.214,1.285-0.285,1.929-0.214
		c1.5,0.072,2.788,0.644,3.788,1.502l0,0c1.001,0.857,1.645,2.001,1.645,3.145c0.071,1,0.143,2.072,0.357,3.001
		c0.144,0.786,0.429,1.501,0.788,2.217c-1.001-0.429-1.645-1.358-2.288-2.288c-0.929-1.215-1.858-2.501-3.574-2.787
		c-0.715-0.142-1.5,0-2.216,0.358c-0.715,0.357-1.285,1.001-1.715,1.787c-0.072,0.142,0,0.214,0.144,0.214
		c1.357-0.072,2.573,0.214,3.573,0.786c1.144,0.572,2.073,1.501,2.788,2.572c1.501,2.358,1.644,4.431,1.716,6.219
		c0.072,1.429,0.141,2.644,0.857,3.787c-1.716-0.643-2.716-2.502-3.573-4.216c-0.5-1.001-0.929-1.858-1.501-2.501
		c-0.287-0.286-0.572-0.501-0.931-0.714c-0.57-0.288-1.142-0.429-1.785-0.358l0,0c-0.644,0.142-1.216,0.429-1.716,0.93
		c-0.357,0.285-0.713,0.713-0.929,1.214c-0.072,0.072,0,0.215,0.072,0.215c1.429,0,2.786,0.572,3.858,1.644l0,0
		c1.003,0.928,1.716,2.358,2.003,4.073c0.141,1.358,0.141,2.931,0.072,4.503c-0.072,3.144-0.144,6.36,1.714,8.361
		c-3.358-0.571-4.074-3.574-4.789-6.503c-0.213-0.859-0.429-1.645-0.714-2.43c-0.359-1.143-1.001-2.073-1.716-2.787
		c-0.856-0.787-1.787-1.216-2.644-1.358c-0.072,0-0.143,0.142-0.072,0.286c1.359,1.429,1.859,3.145,1.859,5.002
		c0,1.859-0.431,3.932-1.001,6.148l0,0c-0.431,1.642-0.572,3.286-0.287,4.716c0.215,1.357,0.716,2.501,1.644,3.43
		c0.072,0.072,0.215,0,0.215-0.072c0.142-1.214,0.356-2.216,0.785-3.001c0.428-0.716,0.928-1.359,1.572-1.929
		c0,0.428,0,0.857,0,1.357c0.072,3.573,0.144,7.361,0.5,10.077c0.216,1.716,1.358,4.502,2.717,7.147
		c1.644,3.216,3.573,6.289,4.645,7.433c1.788,1.86,3.716,2.93,5.646,3.36c1.643,0.357,3.288,0.213,4.645-0.359
		c1.431-0.5,2.575-1.501,3.36-2.714c0.787-1.144,1.215-2.575,1.144-4.147c-0.143-2.214-0.5-3.93-1.644-6.574
		c-1.144-2.572-3.001-6.076-5.932-11.793c-1.5-2.857-2.714-5.859-3.216-8.862c-0.501-3.072-0.285-6.146,1.072-9.219
		c0.931-2.288,2.431-4.074,4.36-5.289c1.788-1.072,3.932-1.644,6.361-1.358c0,0,0.072-0.071,0.144-0.071
		c0.356-0.859,0.929-1.43,1.644-1.859c0.785-0.428,1.714-0.642,2.644-0.714c1.285,0,2.573,0.214,3.716,0.643
		c0.501,0.142,1.001,0.429,1.429,0.642c0.857,0.429,1.716,0.858,2.786,0.858c1.215,0.072,2.431-0.572,3.575,0
		c-0.787,0.072-1.431,0.5-2.072,0.858c-0.787,0.429-1.572,0.857-2.788,0.929c-1.357,0.072-2.429-0.285-3.716-0.786
		c-0.072-0.071-0.144,0-0.216,0.071c0,0.071,0,0.143,0,0.143c0,1.93,3.504,2.216,4.932,1.93c0.787-0.214,1.716-0.358,2.216-0.214
		c-0.715,0-1.359,0.428-2.072,0.786c-0.859,0.428-2.644,0.858-4.145,0.858c-0.858,0-1.715-0.215-2.144-0.716
		c-0.072-0.071-0.287-0.071-0.287,0.072c0,0.144,0,0.286,0.071,0.429c0.072,0.787,0.788,1.287,1.501,1.501
		c0.787,0.215,1.644,0.072,2.287,0c1.001-0.143,1.788-0.213,2.929,0c-1.141,0.287-2.072,0.715-3.073,1.144
		c-2.216,1.001-4.43,1.716-6.861,1.216c-1.572-0.358-2.858-1.288-3.286-2.788c-0.287-0.929-0.287-2.001,0-3.001
		c0-0.072,0-0.143-0.144-0.143c-1.144-0.215-2.288-0.072-3.288,0.357c-1.144,0.501-2.145,1.286-3.001,2.215
		c-1.431,1.644-2.216,3.574-2.501,5.646c-0.288,2.288,0,4.788,0.713,7.147c0.572,2.001,1.5,4.002,2.644,6.003
		c1.073,2.072,2.359,4.004,3.574,6.004c0.787,1.215,1.501,2.429,2.216,3.645c0.715,1.144,1.359,2.288,2.001,3.429
		c0.787,1.288,1.144,2.503,1.359,3.717c0.213,1.144,0.213,2.287,0.213,3.359c-0.072,2.145-0.641,4.145-1.714,5.861
		c-1.072,1.644-2.574,3.073-4.646,4.288c-0.142,0.072-0.142,0.213,0,0.213c0.643,0.287,1.359,0.429,2.072,0.215
		c0.644-0.144,1.287-0.501,1.931-1.001c-0.716,1.573-2.001,2.645-3.574,3.288c-2.003,0.785-4.432,0.856-6.933,0.356
		c-0.072,0-0.143,0.072-0.143,0.214c0.216,1.072,0.643,2.072,1.288,2.859c0.428,0.5,1,0.929,1.642,1.216
		c0.643,0.214,1.431,0.285,2.216,0.141c1-0.213,2.215-0.785,3.431-1.785c0.572,3.93-2.573,5.646-5.932,7.433
		c-0.428,0.213-0.785,0.429-1.144,0.572c-1.143,0.714-2.286,1.786-2.929,3.002c-0.572,1.144-0.859,2.429-0.501,3.645
		c0,0.143,0.142,0.143,0.213,0.071c0.716-0.715,1.716-1.144,2.788-1.643c1.716-0.787,3.645-1.716,4.932-3.86
		c0.572,0.931,0.785,1.859,0.642,2.716c-0.142,1.072-0.714,2.073-1.573,2.788c-2.285,2.073-4.145,2.573-5.074,2.93
		c-0.285,0.072-0.5,0.072-0.643,0.143c-0.572,0.285-1.072,0.643-1.644,1.072c-0.642,0.5-1.214,1.072-1.714,1.572l-0.072,0.072
		c-0.287,0.572-0.5,1.144-0.572,1.716c-0.071,0.569,0.072,1.142,0.357,1.642c0.072,0.071,0.144,0.071,0.215,0.071
		c0.428-0.285,1.144-0.356,1.857-0.428c0.572-0.072,1.144-0.144,1.644-0.285c-0.357,1.072-1.001,1.857-1.716,2.501
		c-0.857,0.643-1.857,1.215-2.929,1.716l0,0c-0.572,0.285-1.288,1.001-1.788,1.857l0,0c-0.572,0.929-1,2.001-1.285,3.145l0,0
		c-0.357,1.288-0.072,2.501,0.213,3.645c0.215,0.788,0.431,1.573,0.5,2.359c0,1.001-0.641,1.785-1.572,2.358
		c-1.142,0.715-2.786,1.143-4.217,1.215c0.715-1.429,0.431-2.431,0.215-3.431c-0.143-0.501-0.285-1.001-0.285-1.572
		c0-0.07-0.071-0.141-0.143-0.141c-0.644,0-1.359,0.856-2.073,1.714c-0.356,0.43-0.715,0.787-1.072,1.143
		c-1.144,1.072-2.716,1.144-4.145,1.216c-0.572,0-1.144,0-1.644,0.144c0-0.072,0-0.144,0.071-0.287
		c0.357-1.501,0.644-2.572,1.144-3.358c0.213-0.431,0.642-0.788,1.073-1.144c0.428-0.358,0.928-0.715,1.214-1.215
		c0.072,0,0.072-0.072,0-0.144c-0.572-1.357-2.429-1-4.358-0.641c-0.859,0.141-1.716,0.285-2.432,0.285
		c-0.072-0.716-0.072-1.357,0.072-1.858c0.072-0.643,0.285-1.072,0.572-1.287l0,0c1.216-1.357,3.001-1.072,4.861-0.787
		c1.285,0.144,2.644,0.359,3.858,0l0,0c1.359-1.07,2.503-2.213,3.504-3.501c0.928-1.357,1.785-2.716,2.429-4.289l0,0
		c0.643-1.857,0.786-3.501,0.5-4.716c-0.214-0.857-0.572-1.501-1.072-1.929v0.072c-0.572-0.501-1.285-0.716-2.073-0.644
		c-1.144,0.072-2.572,0.572-4.145,1.572c0.5-4.073-0.857-5.574-2.859-7.862c-0.069-0.071-0.213-0.215-0.285-0.356
		c-0.572-0.644-1.5-1.644-2.216-2.645c-0.785-1-1.429-2.001-1.429-2.644c0-0.144,0-0.358,0-0.5c-0.072-2.931-0.072-4.86,1.001-6.861
		c0.428-0.859,0.928-1.644,1.428-2.431c0.501-0.857,1.001-1.642,1.36-2.358c0.572-1.072,0.785-2.001,0.072-2.431
		c0.5-1,0.213-1.785-0.788-2.429c-1-0.716-2.716-1.216-4.932-1.716c-2.285-0.428-3.859-0.785-5.359-1.214
		c-1.429-0.429-2.645-1.001-3.931-1.716c-1.286-0.787-2.716-1.929-3.859-3.145c-1.072-1.001-1.858-2.072-2.144-2.929
		c1.287-0.502,2.359-1.144,3.145-2.003c0.072-0.072,0-0.213-0.072-0.213c-3.002,0.141-5.789-1.572-8.219-3.003
		c-1.787-1.001-3.359-1.929-4.573-1.929c-0.929,0-1.858,0.143-2.574,0.428c-0.714,0.286-1.286,0.715-1.715,1.359
		c0,0.072,0.072,0.213,0.143,0.213c2.216-0.428,3.431,0.572,4.717,1.716c1.001,0.857,2.072,1.788,3.859,2.288
		c-1.93,1-3.431,1.286-4.788,1.144c-1.429-0.215-2.787-1.002-4.502-1.931c-1.287-0.713-2.645-1.429-4.002-1.644
		c-1.287-0.285-2.573-0.072-3.717,0.931c-0.142,0.069-0.071,0.213,0,0.213c1.072,0.356,2.002,0.859,2.716,1.429
		c0.643,0.572,1.143,1.215,1.43,2.003c-1.358-0.431-2.716-0.859-4.002-1.144l0,0c-1.358-0.358-2.645-0.572-3.859-0.572
		c-1.43,0-2.787,0.5-4.216,1c-0.572,0.216-1.215,0.357-1.787,0.572c-3.145,0.785-4.074,1.501-5.074,2.144
		c-0.214,0.214-0.5,0.428-0.858,0.644c-0.214,0.07-0.571,0.213-0.928,0.285c-0.572,0.215-1.287,0.357-1.93,0.929
		c-0.071-0.213-0.071-0.501-0.143-0.714c-0.072-1.144,0.072-2.288,0.643-3.145c0.501-0.859,1.501-1.573,2.931-1.859
		c0.286-0.072,0.643-0.072,0.929-0.144c0.143,0,0.214-0.142,0.072-0.213c-1.644-1.931-2.573-1.573-4.288-0.929
		c-0.358,0.141-0.858,0.357-1.358,0.5c-0.214,0.072-0.428,0.285-0.572,0.572c-0.142,0.285-0.286,0.571-0.357,0.857
		c-1.144-2.573-0.143-3.86,1.429-4.504c1.715-0.642,4.074-0.642,5.288-0.642c0.072,0,0.143-0.071,0.143-0.215
		c-0.428-0.785-0.857-1.285-1.286-1.572c-0.5-0.285-1.072-0.357-1.858-0.429c-0.143,0-0.286-0.072-0.429-0.072
		c-0.358-0.143-0.858-0.215-1.358-0.072c0.072-0.785,0.287-1.429,0.644-1.858c0.357-0.428,0.857-0.643,1.572-0.643
		c1.715,0.071,3.145,0.856,4.645,1.716c1.644,0.928,3.359,1.857,5.646,1.857c1.786-0.072,3.359-0.429,4.86-1.072
		c1.501-0.643,2.929-1.429,4.359-2.429c0.644-0.428,1.144-0.787,1.716-1.144c2.072-1.5,4.074-2.859,5.932-3.429
		c0.5,0.5,1.286,0.713,2.287,0.785c1.001,0,2.286-0.216,3.788-0.644c0.357-0.141,0.715-0.213,1.072-0.285
		c1.715-0.428,3.359-0.858,4.216-1.572c1.001-0.788,1.787-1.573,2.358-2.501c0.501-0.859,0.858-1.788,1.072-2.931
		c0-0.072-0.215-0.144-0.286-0.072c-1.93,2.144-3.574,2.503-5.075,2.788c-0.786,0.144-1.572,0.357-2.358,0.785
		c-1.572,1.072-3.002,1.859-4.145,2.288l0,0l0,0l0,0c-1.072,0.429-1.929,0.572-2.572,0.429c0.285-1.573,0.858-3.073,1.715-4.217
		c0.858-1.285,2.001-2.214,3.288-2.786c1.501-0.716,3.145-1.288,4.646-1.788c3.359-1.144,6.218-2.072,6.647-4.073
		c0-0.072-0.072-0.215-0.143-0.144c-2.788,0.858-4.431,0.858-6.146,0.858c-0.786,0-1.644,0-2.573,0.142
		c0.144-0.785,0.715-1.429,1.715-2.072c1.001-0.643,2.502-1.143,4.074-1.715c0.572-0.214,1.215-0.358,1.859-0.572l0,0l0,0l0,0
		c1.929-0.571,4.217-1.215,5.36-2.43c0.5-0.429,0.714-1.001,0.786-1.501c0.071-0.286,0.071-0.572,0-0.857
		c-0.072-0.215-0.214-0.5-0.429-0.644c-0.214-0.215-0.428-0.358-0.785-0.358c-0.572-0.071-1.501,0.142-2.502,0.643
		c-0.929,0.5-2.001,1.215-3.073,2.072c-1.501-0.858-2.644-1.787-3.359-2.786c-0.571-0.93-0.786-1.859-0.429-2.717
		c4.074,0.572,6.647,0.644,8.219,0.215c1.715-0.501,2.358-1.43,2.572-2.931c0.144-0.929-0.214-1.787-0.928-2.645
		c-0.501-0.5-1.072-0.929-1.787-1.286l0,0c-0.644-0.358-1.501-0.642-2.359-0.786c-2.43-0.429-5.432,0.214-8.076,2.573
		c-0.714-0.285-1.143-0.715-1.429-1.144c-0.214-0.357-0.285-0.785-0.285-1.215c0.071-0.428,0.214-0.858,0.5-1.143
		c0.357-0.5,0.857-0.858,1.501-1c0.143-0.072,0.143-0.287,0-0.287c-0.286-0.071-0.5-0.071-0.714-0.071
		c-0.858-0.142-1.43-0.214-1.788-0.429c-0.214-0.142-0.214-0.356,0-0.714l0.644-1.215c3.002-0.786,5.003-1.144,6.575-1.072
		c1.501,0.144,2.501,0.715,3.43,1.859c0.072,0.071,0.143,0.071,0.214,0.071c0.786-0.643,1.858-1.001,2.859-1.286
		c1.358-0.5,2.572-0.858,3.072-1.787c0.072-0.072,0-0.215-0.071-0.215c-1.644,0.215-3.073,0.286-4.359,0.358l0,0l0,0l0,0
		c-1.287,0-2.287-0.072-3.145-0.215l0,0l0,0l0,0c-0.786-0.143-1.358-0.572-1.644-1.001c-0.143-0.285-0.215-0.5-0.215-0.786
		c0-0.214,0.143-0.5,0.286-0.715c0.286-0.428,0.858-0.786,1.644-0.858c0.714-0.142,1.572-0.071,2.572,0
		c1.001,0.142,2.145,0.358,3.359,0.572c0.071,0,0.143,0,0.143,0c3.645-2.644,6.004-2.001,8.79-1.214
		c2.075,0.572,4.504,1.214,7.863,0.785C213.887,166.445,213.814,166.516,213.743,166.588L213.743,166.588z"/>
	<path fill-rule="evenodd" clip-rule="evenodd" fill="#F1BD4A" d="M146.919,181.239c0.501,0.072,0.786,0.286,1.072,0.5
		c0.143,0.144,0.286,0.215,0.357,0.287c0.644,0.213,1.287,0.571,1.787,1.072c0.429,0.429,0.786,1.001,1.072,1.644
		c0,0.142-0.072,0.214-0.143,0.214c-0.715,0.072-1.286-0.285-1.931-0.714c-0.928-0.572-1.929-1.215-3.716-0.572
		c2.144,4.574,3.716,4.859,7.576,5.503c0.858,0.215,1.929,0.358,3.145,0.643c1.429,0.285,2.573,0.786,3.43,1.501
		c0.572,0.429,1.001,0.929,1.215,1.501c0.214,0.572,0.286,1.216,0.143,1.858c-0.143,0.715-0.501,1.358-1.072,2.145
		c1.143,0,2.502-0.358,3.717-0.715c1.715-0.429,3.216-0.786,4.145-0.358c0.071,0.072,0.071,0.214,0,0.286
		c-0.929,0.286-1.429,0.715-2.144,1.358c-0.929,0.858-2.215,2.002-5.217,3.503c1.072,0.5,2.072,0.641,3.145,0.572
		c1.144-0.072,2.287-0.5,3.502-1.145l0,0c0.143-0.071,0.358-0.215,0.643-0.357c1.358-0.858,3.788-2.431,5.503-1.143
		c0.071,0.071,0,0.285-0.143,0.285c-1.858-0.072-2.788,1.072-3.859,2.429c-0.787,1.072-1.715,2.216-3.288,3.145
		c3.145,0.431,5.503-0.069,7.29-1.142c1.858-1.144,3.216-2.859,4.431-4.717c1.072-1.715,2.072-2.572,2.858-3.288
		c0.358-0.286,0.643-0.572,0.858-0.787c-1.144-0.286-2.501-0.286-3.788-0.358c-1.286,0-2.501-0.071-3.645-0.214
		c-1.358-0.286-2.645-0.571-3.788-1.001c-1.215-0.429-2.288-1-3.288-1.644c-1.93-1.287-3.288-2.573-4.288-3.788
		c-1.072-1.216-1.715-2.43-2.144-3.502c-0.214-0.43-0.357-0.858-0.501-1.215c-1.001-2.502-2.001-4.932-5.646-4.502
		c0.571,0.929,1.001,1.786,1.358,2.572c0.428,0.93,0.643,1.715,0.714,2.502c0,0.143-0.214,0.214-0.286,0.071
		c-0.929-1.786-2.215-3.287-3.501-4.002c-0.644-0.357-1.287-0.572-1.859-0.643c-0.643,0-1.287,0.071-1.858,0.429
		C148.134,179.811,147.491,180.311,146.919,181.239L146.919,181.239z"/>
	<path fill-rule="evenodd" clip-rule="evenodd" fill="#F1BD4A" d="M160.427,256.281c0.286,0,0.643-0.071,1.001-0.071l0,0l0,0l0,0
		c0.287,0,0.501-0.07,0.715-0.07c1.501-0.287,2.573-0.359,3.288-0.072c0.715,0.213,1.143,0.785,1.215,1.645
		c0,0.069-0.072,0.213-0.143,0.213c-0.572,0-1.143-0.072-1.716-0.072c-1.357-0.072-2.644-0.072-3.501,0.359
		c-0.858,0.356-1.43,0.928-1.93,1.5c-0.501,0.714-0.786,1.501-0.858,2.145c-0.071,0.285,0,0.641,0.143,1.072
		c0.072,0.428,0.214,0.857,0.357,1.214c0.929-1.357,2.001-2.214,3.145-2.785c1.287-0.572,2.644-0.644,4.074-0.288
		c0.142,0,0.142,0.144,0,0.216c-0.858,0.5-2.144,1.429-3.073,2.644c-0.643,0.856-1.215,1.786-1.358,2.716
		c1.143-0.215,2.215,0,3.216,0.142c1.215,0.215,2.287,0.428,3.002-0.214c0.215-0.215,0.572-0.643,0.929-1.143
		c0.572-0.716,1.358-1.644,2.072-2.36c0.357-0.285,0.714-0.572,1.001-0.713c0.358-0.143,0.715-0.215,1.001-0.287
		c3.145-0.141,5.646-0.141,7.432,0.144l0,0c1.645,0.285,2.859,0.715,3.503,1.287c0-0.572-0.215-1.144-0.644-1.644
		c-0.571-0.643-1.501-1.288-2.786-1.859c-0.072-0.072-0.072-0.214,0-0.285c2.429-1.287,5.002-0.5,7.575,0.357
		c3.002,1,5.932,1.929,8.719-0.5c-1.072-0.072-1.93-0.644-2.788-1.357c-1.215-0.93-2.573-2.003-4.86-1.716
		c-0.071,0-0.143-0.143-0.143-0.216c0.429-0.785,1.072-1.357,1.859-1.785c0.929-0.5,2.001-0.715,2.929-0.715
		c1.287,0,2.431,0.357,3.502,0.715c1.357,0.428,2.572,0.785,4.001,0.642c-1.5-2.429-1.714-4.858-1.142-7.289
		c0.572-2.358,1.929-4.717,3.501-7.074c-1.072-0.359-2.288-0.216-3.572,0.428c-1.288,0.644-2.788,1.788-4.361,3.359
		c-0.072,0.142-0.215,0-0.215-0.143c0.572-1.859,1.359-3.36,2.359-4.432c0.785-1,1.715-1.644,2.859-2.144
		c-1.431-0.072-3.002,0-4.646,0.431c-1.929,0.428-3.931,1.285-6.003,2.573c-0.143,0-0.215-0.072-0.215-0.144
		c0.143-1.216,0.786-2.144,1.715-2.86c0.929-0.641,2.073-1.214,3.145-1.714c0.786-0.286,1.358-0.715,1.858-1.144
		c0.429-0.287,0.787-0.5,1.144-0.715c-1.001-0.072-2.216,0.143-3.573,0.356c-1.001,0.144-2.073,0.359-3.288,0.431
		c-0.644,0.072-1.287,0.072-1.931,0.141c-1.071,0-2.215,0.072-3.287,0.216c-1.644,0.356-3.073,1.144-4.074,2.288
		c-0.858,1-1.287,2.357-1.144,4.073c0.143,1.644,0.929,2.858,1.645,4.074c0.929,1.428,1.858,2.859,1.715,5.145
		c-0.142,2.144-1.358,3.431-3.002,4.145c-1.572,0.715-3.573,0.859-5.288,0.859c-1.001,0-2.002-0.072-2.859-0.144
		c-0.857-0.143-1.644-0.356-2.215-0.572c-0.643-0.285-1.215-0.572-1.787-0.929c-0.929-0.5-1.858-1.072-3.144-1.215
		c-1.144-0.072-2.358,0.144-3.288,0.787C161.427,254.496,160.784,255.281,160.427,256.281L160.427,256.281z"/>
	<path fill-rule="evenodd" clip-rule="evenodd" fill="#F1BD4A" d="M171.933,180.454c0.358,1.072,1.072,1.929,2.073,2.501
		c1.215,0.786,2.787,1.214,4.288,1.214c1.501-0.071,3.145-0.714,5.002-1.501c2.645-1.143,5.575-2.43,9.22-2.287
		c-4.217-1.001-7.648-0.072-10.506,0.714c-1.43,0.429-2.716,0.786-3.859,0.786c-1.572,0.072-2.859-0.072-3.859-0.357
		C173.292,181.239,172.577,180.882,171.933,180.454L171.933,180.454z"/>
	<path fill-rule="evenodd" clip-rule="evenodd" fill="#008863" d="M209.812,242.559c0.072-0.069,0.215,0,0.215,0.144
		c-0.288,1-0.501,2.001-0.644,3.073c-0.144,1-0.144,2.072-0.144,3.145c0.072,2.072,0.716,3.431,1.359,4.789
		c0.785,1.644,1.501,3.216,1.001,5.861c0,0.072-0.215,0.143-0.287,0c-0.785-1.929-1.642-3.216-2.358-4.361l0,0
		c-0.928-1.5-1.716-2.644-2.001-4.573c-0.144-1,0.071-2.645,0.642-4.289C208.098,244.919,208.883,243.56,209.812,242.559
		L209.812,242.559z"/>
	<path fill-rule="evenodd" clip-rule="evenodd" fill="#008863" d="M196.519,229.409c0.714,0.858,1.858,1.502,3.002,1.931
		c1.285,0.501,2.787,0.714,4.144,0.644c3.145-0.143,4.716-1.359,6.218-2.502c0.286-0.213,0.572-0.429,0.859-0.572
		c0.07-0.072,0-0.285-0.143-0.285c-2.501,0.644-4.932,1.001-7.361,1.072c-2.359,0.072-4.504-0.072-6.576-0.5
		C196.519,229.196,196.376,229.339,196.519,229.409L196.519,229.409z"/>
	<path fill-rule="evenodd" clip-rule="evenodd" fill="#008863" d="M190.444,225.692c0.858,0.788,2.001,1.359,3.288,1.788
		c1.287,0.428,2.645,0.643,4.074,0.643c1.572-0.072,3.144-0.5,4.503-1.144c1.357-0.716,2.501-1.716,3.145-2.788
		c0.069-0.142-0.072-0.285-0.215-0.214c-1.072,0.714-2.501,1.285-3.932,1.644c-1.5,0.428-3.001,0.713-4.501,0.785
		c-1.072,0.072-2.144,0-3.217-0.144c-1-0.141-2.001-0.428-2.93-0.857C190.515,225.407,190.373,225.551,190.444,225.692
		L190.444,225.692z"/>
	<path fill-rule="evenodd" clip-rule="evenodd" fill="#008863" d="M184.512,217.118c1.001,0,1.929,0.713,2.931,1.501
		c1.787,1.285,3.788,2.858,7.218,1.644c0.071-0.072,0.071-0.215,0-0.287c-1.001-0.357-1.93-1.001-2.859-1.572
		c-2.073-1.429-4.217-2.929-7.361-1.572C184.369,216.902,184.369,217.118,184.512,217.118L184.512,217.118z"/>
	<path fill-rule="evenodd" clip-rule="evenodd" fill="#008863" d="M195.09,216.259c1.787-1.501,3.43-1.714,4.932-1.929l0,0
		c1.143-0.144,2.143-0.214,3.216-0.785c2.144-1.144,3.573-2.575,4.145-4.432c0.5-1.787,0.143-4.073-1.429-6.789
		c-0.072-0.143-0.287,0-0.287,0.143c0.428,1.357,0.357,2.717-0.072,3.93c-0.5,1.288-1.429,2.501-2.644,3.288
		c-0.929,0.644-1.929,1.144-2.929,1.716c-2.359,1.286-4.646,2.43-5.218,4.718C194.804,216.259,194.947,216.331,195.09,216.259
		L195.09,216.259z"/>
	<path fill-rule="evenodd" clip-rule="evenodd" fill="#008863" d="M184.655,213.901c1.858-0.929,3.431-1.072,5.003-1.287
		c1.429-0.142,2.931-0.357,4.645-1.072c1.716-0.785,3.288-2.072,4.074-3.858c0.643-1.501,0.715-3.361-0.144-5.576
		c0-0.072-0.214-0.072-0.214,0c-1.644,3.932-3.859,4.932-6.789,6.148c-0.786,0.285-1.572,0.642-2.43,1.072
		c-1.358,0.641-2.716,1.5-3.574,2.357c-0.715,0.715-1.072,1.429-0.786,2.145C184.441,213.901,184.584,213.973,184.655,213.901
		L184.655,213.901z"/>
</g>
</svg>
