<?xml version="1.0" encoding="utf-8"?>
<!-- Generator: Adobe Illustrator 19.1.0, SVG Export Plug-In . SVG Version: 6.00 Build 0)  -->
<svg version="1.1" id="Layer_1" xmlns="http://www.w3.org/2000/svg" xmlns:xlink="http://www.w3.org/1999/xlink" x="0px" y="0px"
	 viewBox="0 0 400 400" enable-background="new 0 0 400 400" xml:space="preserve">
<g>
	<path fill="#010101" d="M368.766,3.805c-24.166,13.173-55.343,21.038-83.407,21.038c-24.923,0-63.174-6.807-84.966-19.42L200,5.194
		l-0.395,0.23c-21.793,12.613-60.041,19.42-84.964,19.42c-28.064,0-59.244-7.865-83.407-21.038L30.04,3.152l0.028,1.363
		c1.217,59.423,11.241,119.363,29.794,178.15c7.141,22.628,15.693,44.438,26.149,66.685c17.386,35.413,39.274,68.351,65.056,97.902
		c19.893,22.802,38.085,38.801,48.476,46.171l0.457,0.325l0.454-0.325c10.394-7.371,28.586-23.369,48.477-46.171
		c25.786-29.551,47.669-62.489,65.053-97.89c10.461-22.258,19.016-44.074,26.151-66.696c18.556-58.784,28.58-118.724,29.797-178.15
		l0.028-1.363L368.766,3.805z"/>
	<path fill="#2F9746" d="M31.675,5.836c1.338,58.832,11.328,118.157,29.693,176.352c7.122,22.562,15.648,44.309,26.07,66.489
		c17.317,35.267,39.129,68.088,64.82,97.537c19.51,22.365,37.353,38.139,47.742,45.599c10.389-7.46,28.232-23.234,47.742-45.599
		c25.691-29.449,47.501-62.27,64.823-97.548c10.422-22.174,18.949-43.922,26.067-66.478c18.365-58.192,28.356-117.52,29.696-176.352
		c-24.216,12.905-55.112,20.587-82.969,20.587c-24.979,0-63.263-6.802-85.359-19.406c-22.096,12.604-60.38,19.406-85.361,19.406
		C86.785,26.422,55.885,18.74,31.675,5.836"/>
	<path fill="#010101" d="M200,17.804c24.019,11.926,60.212,18.147,85.359,18.147c24.014,0,50.176-5.422,72.883-14.848
		c-2.58,52.847-12.211,105.988-28.698,158.22c-6.978,22.118-15.342,43.457-25.567,65.227
		c-16.952,34.503-38.285,66.601-63.415,95.405c-15.746,18.051-30.538,31.794-40.562,39.86c-10.021-8.066-24.813-21.81-40.562-39.86
		c-25.13-28.805-46.466-60.908-63.415-95.411c-10.223-21.764-18.587-43.097-25.57-65.221
		C53.969,127.087,44.335,73.948,41.755,21.102C64.462,30.528,90.63,35.95,114.641,35.95C139.791,35.95,175.981,29.729,200,17.804"/>
	<path fill="#FFFFFF" d="M200,19.562c-25.318,12.341-61.895,17.967-85.359,17.967c-23.343,0-48.521-4.97-71.183-14.026
		c2.751,51.868,12.338,104.122,28.504,155.342c6.958,22.051,15.297,43.322,25.489,65.03c16.878,34.352,38.138,66.337,63.176,95.041
		c17.998,20.626,32.916,33.59,39.373,38.868c6.456-5.278,21.378-18.242,39.373-38.868c25.035-28.698,46.295-60.683,63.185-95.063
		c10.181-21.68,18.522-42.951,25.484-65.008c16.161-51.22,25.747-103.472,28.501-155.342c-22.662,9.056-47.843,14.026-71.183,14.026
		C261.889,37.529,225.321,31.903,200,19.562"/>
	<path fill="#010101" d="M130.645,47.11v15.025c-7.769-3.786-16.837-5.958-24.095-5.958c-8.35,0-17.451,5.834-17.016,18.343
		c0.384,11.126,8.097,15.6,18.023,15.667c8.074,0.056,18.149-2.171,24.496-8.016l-0.003,14.262
		c-6.005,4.437-16.96,6.877-24.923,7.068c-10.262,0.244-19.229-2.462-25.396-7.957c-5.982-5.326-9.326-13.289-9.435-22.965
		c-0.21-18.78,17.201-30.319,34.63-30.72C114.083,41.694,126.651,44.689,130.645,47.11"/>
	<path fill="#010101" d="M177.568,102.966l-0.202-60.927l28.143-0.202c9.458-0.065,36.209,5.688,34.969,32.708
		c-0.847,18.57-14.102,28.218-33.365,28.42H177.568z M194.884,90.117h11.308c7.725,0,17.647-3.444,17.647-17.176
		c0-13.129-9.065-17.291-18.449-17.291h-10.506V90.117z"/>
	<polygon fill="#010101" points="290.53,103.171 290.53,55.995 268.048,55.995 268.048,41.91 327.704,41.91 327.704,55.995 
		307.836,55.995 307.836,103.171 	"/>
	<path fill="#010101" d="M64.765,108.853l0.362,1.781c4.412,21.795,10.016,43.521,16.815,65.061
		c6.807,21.568,14.963,42.382,24.934,63.62c16.492,33.544,37.227,64.733,61.64,92.718c12.276,14.074,23.024,24.429,30.495,31.11
		l0.99,0.886l0.987-0.886c7.472-6.681,18.22-17.036,30.498-31.11c24.412-27.98,45.145-59.168,61.626-92.696
		c9.979-21.26,18.141-42.074,24.945-63.642c6.799-21.54,12.403-43.266,16.817-65.061l0.359-1.781H64.765z"/>
	<path fill="#FFCD05" d="M315.224,174.803c-6.765,21.439-14.871,42.124-24.789,63.249c-16.357,33.27-36.949,64.239-61.187,92.028
		c-11.651,13.356-21.911,23.33-29.248,29.96c-7.337-6.63-17.594-16.604-29.248-29.96c-24.241-27.789-44.833-58.759-61.199-92.051
		c-9.906-21.103-18.012-41.787-24.78-63.229c-6.583-20.853-12.038-41.877-16.371-62.974h263.195
		C327.261,132.923,321.809,153.947,315.224,174.803"/>
	<path fill="#010101" d="M216.991,122.907v206.534l2.592-2.917c0.802-0.904,1.61-1.812,2.434-2.754
		c12.587-14.433,24.16-29.753,34.655-45.818l0.241-0.37V121.421h-39.922V122.907z"/>
	<path fill="#2F9746" d="M219.958,124.394h33.982v152.307c-10.299,15.735-21.646,30.751-33.982,44.904V124.394z"/>
	<path fill="#010101" d="M143.087,122.907v154.675l0.241,0.37c10.492,16.066,22.065,31.385,34.658,45.818
		c0.819,0.942,1.627,1.851,2.429,2.754l2.595,2.917V121.424h-39.922V122.907z"/>
	<path fill="#2F9746" d="M146.057,124.394h33.982v197.211c-12.333-14.158-23.68-29.175-33.982-44.909V124.394z"/>
	<path fill="#010101" d="M80.702,123.238c3.738,16.346,8.17,32.661,13.224,48.673c3.669,11.631,7.761,23.035,12.313,34.408
		l2.869,7.169v-92.068H80.283L80.702,123.238z"/>
	<path fill="#2F9746" d="M106.135,124.394v73.5c-3.396-8.888-6.515-17.815-9.376-26.875c-4.844-15.345-9.11-30.964-12.742-46.626
		H106.135z"/>
	<path fill="#010101" d="M317.854,121.421h-26.959v92.073l2.861-7.174c4.554-11.37,8.649-22.777,12.318-34.405
		c5.054-16.015,9.486-32.33,13.227-48.676l0.415-1.817H317.854z"/>
	<path fill="#2F9746" d="M303.241,171.019c-2.861,9.062-5.98,17.989-9.373,26.875v-73.5h22.118
		C312.352,140.055,308.083,155.675,303.241,171.019"/>
</g>
</svg>
