<?xml version="1.0" encoding="utf-8"?>
<!-- Generator: Adobe Illustrator 19.1.0, SVG Export Plug-In . SVG Version: 6.00 Build 0)  -->
<svg version="1.1" id="Layer_1" xmlns="http://www.w3.org/2000/svg" xmlns:xlink="http://www.w3.org/1999/xlink" x="0px" y="0px"
	 viewBox="0 0 400 400" enable-background="new 0 0 400 400" xml:space="preserve">
<g>
	<path fill-rule="evenodd" clip-rule="evenodd" fill="#FFDD00" d="M335.63,74.364c-0.148,0.161-0.299,0.315-0.448,0.477l0.449-0.341
		C335.63,74.456,335.63,74.408,335.63,74.364L335.63,74.364z"/>
	<path fill-rule="evenodd" clip-rule="evenodd" d="M341.289,69.708c-24.581,27.869-49.944,41.248-75.389,39.764
		c-38.986-2.273-65.063-39.255-65.322-39.629l-1.201-1.732l-1.202,1.732c-0.259,0.374-26.334,37.356-65.323,39.629
		c-25.443,1.484-50.806-11.895-75.385-39.764l-2.413-2.735l-0.144,3.645c-0.023,0.589-2.134,59.721,14.441,127.262
		c9.744,39.706,23.944,74.525,42.204,103.489c22.866,36.271,52.198,63.41,87.176,80.664l0.647,0.319l0.645-0.319
		c34.979-17.254,64.309-44.393,87.176-80.664c18.261-28.965,32.461-63.784,42.205-103.489
		c16.574-67.541,14.462-126.674,14.441-127.262l-0.143-3.645L341.289,69.708L341.289,69.708z"/>
	<path fill-rule="evenodd" clip-rule="evenodd" fill="#25408F" d="M200.023,73.125c-4.312,5.52-19.889,23.892-42.832,33.462v244.221
		c13.137,11.273,27.436,20.721,42.832,28.27V73.125L200.023,73.125z"/>
	<path fill-rule="evenodd" clip-rule="evenodd" fill="#FFDD00" d="M199.501,379.015c21.059-10.412,40.051-24.422,56.798-41.856
		V111.073c-30.379-6.224-51.471-30.963-56.798-37.792V379.015L199.501,379.015z"/>
	<path fill-rule="evenodd" clip-rule="evenodd" fill="#25408F" d="M298.747,274.765V106.291c-10.936,4.7-21.966,6.746-33.037,6.098
		c-3.134-0.183-6.18-0.593-9.145-1.172v225.154c10.251-10.872,19.647-23.058,28.141-36.526
		C289.7,291.926,294.375,283.549,298.747,274.765L298.747,274.765z"/>
	<path fill-rule="evenodd" clip-rule="evenodd" fill="#FFDD00" d="M298.875,106.238v0.337l1.085-0.825
		C299.598,105.911,299.236,106.082,298.875,106.238L298.875,106.238z"/>
	<path fill-rule="evenodd" clip-rule="evenodd" fill="#FFDD00" d="M298.875,170.86v103.647
		c11.415-22.982,20.695-48.842,27.673-77.253c4.793-19.521,8.013-38.326,10.173-55.209L298.875,170.86L298.875,170.86z"/>
	<path fill-rule="evenodd" clip-rule="evenodd" d="M337.225,137.988c-10.829,8.244-23.875,18.178-38.35,29.199v3.674l37.846-28.815
		C336.895,140.679,337.063,139.327,337.225,137.988L337.225,137.988z"/>
	<path fill-rule="evenodd" clip-rule="evenodd" fill="#FFDD00" d="M156.925,350.144v-70.833l-37.735,28.36
		C130.389,323.861,142.994,338.042,156.925,350.144L156.925,350.144z"/>
	<path fill-rule="evenodd" clip-rule="evenodd" fill="#FFDD00" d="M127.651,297.554c-0.755,0.575-1.505,1.146-2.253,1.716
		C126.147,298.7,126.896,298.13,127.651,297.554L127.651,297.554z"/>
	<path fill-rule="evenodd" clip-rule="evenodd" fill="#FFDD00" d="M156.1,275.895c-0.9,0.684-1.797,1.367-2.691,2.048
		C154.305,277.261,155.199,276.58,156.1,275.895L156.1,275.895z"/>
	<path fill-rule="evenodd" clip-rule="evenodd" fill="#FFDD00" d="M156.926,106.895c-7.316,2.938-15.35,4.999-24,5.493
		c-11.36,0.649-22.678-1.398-33.9-6.101v151.707l57.9-42.972V106.895L156.926,106.895z"/>
	<path fill-rule="evenodd" clip-rule="evenodd" fill="#25408F" d="M99.248,105.958C85.224,99.771,71.356,89.22,57.757,74.364
		c-0.014,1.041-0.022,2.221-0.022,3.686c0,17.81,1.374,65.867,14.473,119.204c5.778,23.534,13.144,45.311,21.989,65.161l5.051-3.846
		V105.958L99.248,105.958z"/>
	<path fill-rule="evenodd" clip-rule="evenodd" d="M279.813,181.701c-13.228,10.071-27.251,20.748-41.587,31.664
		c-1.834,1.396-3.674,2.798-5.518,4.201c-1.722,1.311-3.448,2.626-5.178,3.942c-3.096,2.357-6.199,4.721-9.309,7.088
		c-7.737,5.89-15.498,11.8-23.212,17.674c-0.839,0.638-1.68,1.278-2.518,1.916c-2.249,1.713-4.494,3.422-6.732,5.126
		c-4.548,3.462-9.065,6.902-13.542,10.311c-3.146,2.394-6.268,4.772-9.366,7.131c-0.834,0.635-1.668,1.269-2.498,1.901
		c-1.31,0.998-2.616,1.991-3.915,2.981v3.674L298.875,170.86v-3.674c-5.438,4.141-11.08,8.438-16.882,12.855
		C281.268,180.592,280.541,181.146,279.813,181.701L279.813,181.701z"/>
	<path fill-rule="evenodd" clip-rule="evenodd" d="M187.883,194.756c0.169-0.129,0.339-0.258,0.511-0.388
		c1.744-1.329,3.488-2.656,5.228-3.983c0.488-0.371,0.976-0.742,1.464-1.113c0.777-0.591,1.555-1.184,2.331-1.775
		c37.799-28.781,74.481-56.709,101.459-77.251v-3.673L156.438,215.024v3.675C166.829,210.786,177.37,202.76,187.883,194.756
		L187.883,194.756z"/>
	<path fill-rule="evenodd" clip-rule="evenodd" d="M100,261.669v-3.674l-0.752,0.573v3.674
		C99.499,262.051,99.749,261.861,100,261.669L100,261.669z"/>
	<path fill-rule="evenodd" clip-rule="evenodd" d="M156.438,218.698v-3.675L100,257.995v3.674
		C117.423,248.405,136.656,233.761,156.438,218.698L156.438,218.698z"/>
	<path fill-rule="evenodd" clip-rule="evenodd" d="M156.1,275.895c-0.902,0.685-1.795,1.366-2.691,2.048
		c-8.899,6.778-17.529,13.348-25.758,19.612c-0.756,0.576-1.505,1.146-2.253,1.716c-2.658,2.025-5.276,4.016-7.842,5.971
		c0.542,0.814,1.085,1.625,1.634,2.429l37.248-28.36v-3.674C156.326,275.722,156.213,275.808,156.1,275.895L156.1,275.895z"/>
	<path fill-rule="evenodd" clip-rule="evenodd" d="M99.248,262.242v-3.674l-5.051,3.846c0.407,0.915,0.814,1.831,1.229,2.738
		C96.689,264.191,97.964,263.219,99.248,262.242L99.248,262.242z"/>
	<path fill-rule="evenodd" clip-rule="evenodd" fill="#FFFFFF" d="M298.875,167.186c-5.438,4.141-11.082,8.438-16.882,12.855
		C287.795,175.624,293.437,171.327,298.875,167.186L298.875,167.186z"/>
	<path fill-rule="evenodd" clip-rule="evenodd" fill="#FFFFFF" d="M195.009,246.27c7.714-5.874,15.475-11.784,23.212-17.674
		C210.484,234.486,202.723,240.395,195.009,246.27L195.009,246.27z"/>
	<path fill-rule="evenodd" clip-rule="evenodd" fill="#FFFFFF" d="M185.759,253.312c2.238-1.704,4.484-3.414,6.732-5.126
		C190.24,249.9,187.997,251.608,185.759,253.312L185.759,253.312z"/>
	<path fill-rule="evenodd" clip-rule="evenodd" fill="#FFFFFF" d="M162.851,270.755c3.098-2.359,6.22-4.737,9.366-7.131
		C169.072,266.018,165.949,268.396,162.851,270.755L162.851,270.755z"/>
	<path fill-rule="evenodd" clip-rule="evenodd" fill="#FFFFFF" d="M160.353,272.656c-1.309,0.997-2.616,1.991-3.915,2.981l0,0
		C157.737,274.647,159.043,273.654,160.353,272.656L160.353,272.656z"/>
	<path fill-rule="evenodd" clip-rule="evenodd" fill="#FFFFFF" d="M238.226,213.365c14.336-10.916,28.359-21.593,41.587-31.664
		C266.584,191.773,252.564,202.448,238.226,213.365L238.226,213.365z"/>
	<path fill-rule="evenodd" clip-rule="evenodd" fill="#FFFFFF" d="M227.53,221.508c1.73-1.316,3.456-2.631,5.178-3.942
		C230.986,218.877,229.26,220.192,227.53,221.508L227.53,221.508z"/>
	<path fill-rule="evenodd" clip-rule="evenodd" fill="#FFFFFF" d="M197.416,187.498c-0.776,0.591-1.555,1.184-2.331,1.775
		C195.863,188.681,196.638,188.089,197.416,187.498L197.416,187.498z"/>
	<path fill-rule="evenodd" clip-rule="evenodd" fill="#FFFFFF" d="M193.621,190.386c-1.741,1.326-3.484,2.654-5.228,3.983
		C190.137,193.04,191.881,191.712,193.621,190.386L193.621,190.386z"/>
	<path fill-rule="evenodd" clip-rule="evenodd" fill="#FFFFFF" d="M156.438,218.698c10.391-7.911,20.932-15.938,31.445-23.942
		C177.37,202.76,166.829,210.786,156.438,218.698L156.438,218.698L156.438,218.698z"/>
	<path fill-rule="evenodd" clip-rule="evenodd" fill="#FFFFFF" d="M100,261.669L100,261.669c-0.251,0.191-0.501,0.381-0.752,0.573
		l0,0C99.499,262.051,99.749,261.861,100,261.669L100,261.669z"/>
	<path fill-rule="evenodd" clip-rule="evenodd" fill="#FFFFFF" d="M100,261.669L100,261.669
		c17.422-13.265,36.655-27.908,56.438-42.971l0,0C136.656,233.761,117.423,248.405,100,261.669L100,261.669z"/>
	<path fill-rule="evenodd" clip-rule="evenodd" fill="#FFFFFF" d="M117.557,305.241c2.566-1.955,5.184-3.946,7.842-5.971
		C122.742,301.293,120.12,303.289,117.557,305.241L117.557,305.241L117.557,305.241z"/>
	<path fill-rule="evenodd" clip-rule="evenodd" fill="#FFFFFF" d="M153.409,277.942c-8.899,6.777-17.53,13.348-25.758,19.612
		C135.88,291.29,144.51,284.72,153.409,277.942L153.409,277.942z"/>
	<path fill-rule="evenodd" clip-rule="evenodd" fill="#FFFFFF" d="M156.438,275.636L156.438,275.636
		c-0.113,0.086-0.224,0.171-0.338,0.258C156.213,275.808,156.326,275.722,156.438,275.636L156.438,275.636z"/>
	<path fill-rule="evenodd" clip-rule="evenodd" fill="#FFFFFF" d="M298.875,110.247c-26.978,20.542-63.659,48.47-101.459,77.251
		c-0.778,0.591-1.553,1.184-2.331,1.775c-0.487,0.371-0.974,0.742-1.464,1.113c-1.741,1.326-3.484,2.654-5.228,3.983
		c-0.171,0.129-0.341,0.259-0.511,0.388c-10.512,8.004-21.054,16.031-31.445,23.942c-19.748,15.036-38.947,29.654-56.345,42.901
		v-0.007c-1.524,1.18-3.039,2.352-4.539,3.513c1.451,3.227,2.932,6.415,4.446,9.557v0.09c4.375,8.789,9.053,17.17,14.049,25.092
		c1.15,1.825,2.323,3.619,3.508,5.397c2.563-1.952,5.185-3.948,7.842-5.971c0.748-0.569,1.498-1.141,2.253-1.716
		c8.228-6.264,16.858-12.835,25.758-19.612c0.894-0.681,1.791-1.364,2.691-2.048c0.114-0.087,0.225-0.172,0.338-0.258
		c1.299-0.989,2.606-1.984,3.915-2.981c0.831-0.632,1.663-1.266,2.498-1.901c3.098-2.359,6.221-4.737,9.366-7.131
		c4.476-3.409,8.995-6.85,13.542-10.311c2.238-1.705,4.481-3.412,6.732-5.126c0.839-0.638,1.676-1.276,2.518-1.916
		c7.714-5.875,15.475-11.784,23.212-17.674c3.109-2.368,6.213-4.731,9.309-7.088c1.73-1.316,3.456-2.631,5.178-3.942
		c1.844-1.404,3.684-2.805,5.518-4.201c14.338-10.917,28.359-21.592,41.587-31.664c0.729-0.556,1.455-1.109,2.18-1.66
		c5.801-4.417,11.444-8.714,16.882-12.855c14.475-11.021,27.521-20.955,38.35-29.199c3.278-27.264,3.792-49.031,3.796-59.831
		C336.78,81.387,321.124,93.306,298.875,110.247L298.875,110.247z"/>
	<path fill-rule="evenodd" clip-rule="evenodd" d="M141.116,250.336c-1.311-1.531-3.795-4.404-8.439-0.932
		c-2.697,2.016-5.706,7.067-1.64,15.879c2.585,5.601,6.819,9.207,11.576,5.652c3.109-2.324,4.34-5.988,3.252-10.311l5.619-4.199
		c2.002,7.611,0.364,15.199-6.379,20.238c-7.155,5.347-14.871,3.582-19.838-7.182c-5.028-10.896-2.161-20.512,4.769-25.69
		c8.053-6.02,14.277-2.03,16.701,2.346L141.116,250.336L141.116,250.336z"/>
	<polygon fill-rule="evenodd" clip-rule="evenodd" points="173.529,254.309 167.91,258.509 164.985,252.171 170.604,247.972 
		173.529,254.309 	"/>
	<polygon fill-rule="evenodd" clip-rule="evenodd" points="208.666,228.051 203.046,232.249 188.663,201.082 207.804,186.777 
		210.348,192.289 196.826,202.396 200.07,209.428 211.909,200.581 214.452,206.095 202.614,214.941 208.666,228.051 	"/>
	<polygon fill-rule="evenodd" clip-rule="evenodd" points="235.037,208.342 229.418,212.541 226.493,206.203 232.11,202.005 
		235.037,208.342 	"/>
	<path fill-rule="evenodd" clip-rule="evenodd" d="M281.064,159.289c3.785,8.204,1.138,14.911-5.642,19.979
		c-2.471,1.848-6.464,3.897-10.283,2.606c-2.342-0.818-4.066-2.915-5.583-5.985l-9.537-20.662l5.732-4.284l9.335,20.228
		c2.004,4.341,5.058,4.628,7.68,2.668c3.859-2.883,4.43-6.23,2.687-10.006l-9.477-20.533l5.731-4.283L281.064,159.289
		L281.064,159.289z"/>
	<polygon fill-rule="evenodd" clip-rule="evenodd" points="303.322,157.307 297.704,161.507 294.78,155.168 300.397,150.969 
		303.322,157.307 	"/>
	<path fill-rule="evenodd" clip-rule="evenodd" d="M194.336,17.789c-21.51,1.999-35.624,24.264-39.694,31.546
		c-2.282-5.07-8.438-16.623-18.724-20.807c-6.462-2.631-13.393-1.832-20.598,2.352c-1.039,0.329-26.472,8.239-58.904,4.984
		l-1.894-0.189l0.6,2.014c0.382,1.279,10.061,30.98,75.241,16.344c0.037,0.075,0.044,0.137,0.086,0.218
		c1.885,3.455,9.583,6.61,22.255,9.124c0.088,0.027,2.127,0.656,2.127,0.656l0.077,0.012c40.884,6.704,48.916,5.235,70.384,1.314
		l12.679-2.242c12.288-2.052,27.374-5.37,30.247-9.583c65.339,14.73,75.033-15.024,75.415-16.305l0.599-2.014l-1.893,0.19
		c-32.432,3.255-57.865-4.655-58.904-4.985c-7.139-4.145-14.012-4.921-20.429-2.286c-10.633,4.368-16.905,16.729-19.063,21.714
		C227.431,27.066,210.749,16.263,194.336,17.789L194.336,17.789z"/>
	<path fill-rule="evenodd" clip-rule="evenodd" fill="#FFFFFF" d="M157.581,55.837c0.149-0.303,13.119-33.07,36.973-35.278
		c15.949-1.476,29.654,12.06,46.031,35.278l4.014-0.627l4.84-1.847c0.063-0.172,2.319-17.659,14.438-22.627
		c5.771-2.366,12.014-1.619,18.556,2.222l0.111,0.065l0.122,0.038c0.253,0.084,25.311,8.044,57.665,5.273
		c-1.386,2.523-4.597,6.976-11.448,10.619c-9.412,5.003-27.658,9.348-61.125,1.642l-7.805-2.177c0,0,6.321,2.794,6.338,3.385
		c-0.138,0.285-2.513,4.186-28.686,8.558l-1.447,0.421c-37.628,5.564-40.393,5.565-80.814,0.519
		c-0.142-0.044-2.079-0.641-2.079-0.641l-0.056-0.01c-19.912-3.942-20.726-8.05-20.732-8.092c0.057-0.409,5.184-3.521,5.184-3.521
		l-6.662,2.022c-33.468,7.706-51.714,3.361-61.125-1.642c-6.852-3.642-10.062-8.095-11.449-10.618
		c32.355,2.77,57.413-5.19,57.668-5.273l0.119-0.039l0.111-0.065c6.611-3.881,12.913-4.65,18.734-2.285
		c12.005,4.875,14.718,22.061,14.779,22.226l4.509,2.152L157.581,55.837L157.581,55.837z"/>
	<polygon fill-rule="evenodd" clip-rule="evenodd" fill="#8B8F9E" points="308.039,44.709 324.147,45.981 331.254,49.036 
		308.039,44.709 	"/>
	<polygon fill-rule="evenodd" clip-rule="evenodd" fill="#8B8F9E" points="317.989,40.381 332.454,41.654 338.834,44.709 
		317.989,40.381 	"/>
	<polygon fill-rule="evenodd" clip-rule="evenodd" fill="#8B8F9E" points="289.085,48.418 310.456,49.692 319.884,52.746 
		289.085,48.418 	"/>
	<polygon fill-rule="evenodd" clip-rule="evenodd" fill="#8B8F9E" points="268.713,50.582 298.631,51.854 311.827,54.91 
		268.713,50.582 	"/>
	<path fill-rule="evenodd" clip-rule="evenodd" fill="#8B8F9E" d="M262.376,32.416c0,0,5.586-4.172,16.763,0.348l-18.006-0.348
		H262.376L262.376,32.416z"/>
	<path fill-rule="evenodd" clip-rule="evenodd" fill="#8B8F9E" d="M268.924,35.507c0,0,7.352-4.172,22.056,0.348l-23.689-0.348
		H268.924L268.924,35.507z"/>
	<path fill-rule="evenodd" clip-rule="evenodd" fill="#8B8F9E" d="M279.053,38.597c0,0,10.295-4.172,30.877,0.348l-33.164-0.348
		H279.053L279.053,38.597z"/>
	<polygon fill-rule="evenodd" clip-rule="evenodd" points="198.938,25.352 208.886,22.648 211.731,25.352 198.938,25.352 	"/>
	<polygon fill-rule="evenodd" clip-rule="evenodd" points="205.813,29.681 215.763,26.976 218.604,29.681 205.813,29.681 	"/>
	<polygon fill-rule="evenodd" clip-rule="evenodd" points="204.866,34.008 220.343,31.302 224.766,34.008 204.866,34.008 	"/>
	<polygon fill-rule="evenodd" clip-rule="evenodd" points="209.13,38.335 224.607,35.629 229.028,38.335 209.13,38.335 	"/>
	<polygon fill-rule="evenodd" clip-rule="evenodd" points="212.803,42.044 228.28,39.338 232.702,42.044 212.803,42.044 	"/>
	<polygon fill-rule="evenodd" clip-rule="evenodd" points="216.355,45.289 233.968,43.203 236.256,45.289 216.355,45.289 	"/>
	<polygon fill-rule="evenodd" clip-rule="evenodd" fill="#8B8F9E" points="90.717,45.172 74.608,46.444 67.501,49.501 
		90.717,45.172 	"/>
	<polygon fill-rule="evenodd" clip-rule="evenodd" fill="#8B8F9E" points="80.768,40.844 66.302,42.118 59.922,45.172 
		80.768,40.844 	"/>
	<polygon fill-rule="evenodd" clip-rule="evenodd" fill="#8B8F9E" points="109.669,48.882 88.3,50.155 78.872,53.209 
		109.669,48.882 	"/>
	<polygon fill-rule="evenodd" clip-rule="evenodd" fill="#8B8F9E" points="130.04,51.046 100.125,52.318 86.927,55.374 
		130.04,51.046 	"/>
	<path fill-rule="evenodd" clip-rule="evenodd" fill="#8B8F9E" d="M136.381,32.879c0,0-5.588-4.171-16.763,0.348l18.005-0.348
		H136.381L136.381,32.879z"/>
	<path fill-rule="evenodd" clip-rule="evenodd" fill="#8B8F9E" d="M129.83,35.97c0,0-7.352-4.172-22.056,0.348l23.692-0.348H129.83
		L129.83,35.97z"/>
	<path fill-rule="evenodd" clip-rule="evenodd" fill="#8B8F9E" d="M119.7,39.061c0,0-10.291-4.172-30.876,0.348l33.165-0.348H119.7
		L119.7,39.061z"/>
	<path d="M150.12,48.873c-0.038-0.022-13.424-7.959-18.47-5.384c-9.802,5-22.931,4.849-34.919,2.979
		c-11.947-1.863-22.756-5.428-27.982-7.287l0.351-0.996c5.197,1.849,15.945,5.394,27.792,7.242
		c11.805,1.841,24.708,2.002,34.278-2.88c5.564-2.839,19.444,5.394,19.484,5.418L150.12,48.873L150.12,48.873z"/>
	<path d="M244.963,49.835c0.049-0.033,17.04-11.528,22.621-8.679c9.571,4.882,22.474,4.721,34.279,2.88
		c11.848-1.848,22.595-5.392,27.792-7.242l0.351,0.996c-5.225,1.86-16.036,5.425-27.982,7.288
		c-11.989,1.869-25.118,2.021-34.92-2.979c-5.024-2.565-21.503,8.581-21.551,8.613L244.963,49.835L244.963,49.835z"/>
</g>
</svg>
