<?xml version="1.0" encoding="utf-8"?>
<!-- Generator: Adobe Illustrator 19.1.0, SVG Export Plug-In . SVG Version: 6.00 Build 0)  -->
<svg version="1.1" id="Layer_1" xmlns="http://www.w3.org/2000/svg" xmlns:xlink="http://www.w3.org/1999/xlink" x="0px" y="0px"
	 viewBox="0 0 400 400" enable-background="new 0 0 400 400" xml:space="preserve">
<g>
	<polygon fill-rule="evenodd" clip-rule="evenodd" fill="#FFFFFF" points="-0.622,0 399.378,0 399.378,400 -0.622,400 -0.622,0 	"/>
	<path fill-rule="evenodd" clip-rule="evenodd" fill="#007F3E" d="M295.716,325.371c4.439,9.814-10.514,13.552-17.991,6.776
		l-5.374-1.168l2.804-5.841c7.944,5.374,14.954,8.645,24.066,11.917c-7.945,3.271-15.889,6.542-24.534,7.944l0.935,0.234
		l8.645,3.038c-13.786,5.374-32.945,13.785-47.899,6.309c-3.038,8.411-8.645,15.655-16.589,21.262
		c-13.785,9.112-26.403,7.477-42.291,2.336c-9.814-3.505-12.384-11.215-12.384-24.066c-21.73,7.01-12.384,16.356-24.767,20.095
		c-14.253,4.439-34.815-4.673-15.889-17.524c6.075-4.206,12.851-7.244,19.627-10.281c-59.582-22.665-93.929-71.966-97.901-132.716
		c-21.263-3.972-19.627-27.338-16.589-43.226c3.738-20.095,50.469-32.478,65.656-6.542c8.412-21.263,22.898-39.254,41.357-51.638
		l-6.075-13.318c-3.271-0.935-5.608-3.972-5.608-7.477c0-0.934,0.234-1.869,0.467-2.803l-10.047-21.496l-1.869,1.168l-12.384-23.832
		l12.15-5.608v-0.467l12.15-5.841l3.738-1.869l11.916-4.907l9.346,17.992l3.271-0.935l3.038-0.701l3.505,10.281l-3.038-1.869
		l-2.103,3.505l-2.804-10.748c5.842-1.635,11.683-2.804,17.524-3.972l2.571,9.346l-2.571-1.635l-2.336,3.038l-1.402-10.048
		c3.505-0.467,0,0,3.505-0.467l-0.701-21.496c9.814-0.234,15.421-0.234,15.888-0.234c-0.234,0,0.234,0,0,0
		c6.542-0.234,13.318-0.234,19.861-0.234l15.421,0.234v21.029l1.168,0.234l3.271,0.234l-1.635,9.58l-1.636-2.804l-3.271,2.103
		l1.869-9.346c5.841,0.935,11.449,1.869,17.057,3.271L235.2,52.462l-1.635-3.038l-3.505,1.869l2.337-10.047
		c2.337,0.467,4.673,0.934,6.776,1.635l8.879-18.926l40.889,18.459l-12.617,23.832l-1.869-0.934l-3.271,7.476l-5.841,14.019
		c0.467,0.935,0.701,2.103,0.701,3.271c0,3.271-2.103,6.075-5.14,7.244l-5.842,14.019c30.375,19.159,50.469,53.273,50.469,91.592
		c0,49.068-32.478,91.359-78.508,104.678c2.336,1.635,4.206,3.271,5.841,5.14c9.346-10.514,7.944-9.346,14.487-23.365
		c1.402,5.374,2.804,10.748,4.206,16.356c6.776-7.944,9.58-14.019,14.019-23.365c1.168,4.439,2.103,8.645,3.271,12.617
		c3.505-10.047,10.047-19.393,15.421-28.739l0.701,2.804c2.102-0.701,4.673-0.935,6.542,0l0.234-1.169
		c0.701-10.281,3.972-20.561,6.776-30.608l3.972,7.711c0-0.234,0.234-0.234,0.467-0.234c-3.972-10.514-3.271-21.963-2.57-32.945
		l4.439,2.336c-1.168-4.906-1.636-10.047-2.336-14.953c8.879,3.038,18.225,5.841,24.3,13.318v-1.869
		c-8.879,1.869-20.562-3.271-28.974-6.542c3.505-4.206,6.542-8.178,10.748-11.682c-5.841-5.608-8.412-12.618-10.748-19.627
		c-11.215-7.477,3.505-19.393,15.421-9.346l8.645,3.038c-0.234-0.701-0.467-1.636-0.701-2.336l3.505,2.336
		c-28.739,3.505-38.553-15.421-48.601-37.151c7.711,3.505,14.721,7.01,23.366,8.178c-2.336-9.814-0.468-20.094,0.467-29.908
		c8.645,12.15,10.281,14.486,21.496,23.599c0.701,0.467,1.168,0.935,1.869,1.635c8.879-9.814,8.411-9.814,15.187-23.132
		c2.571,10.047,6.075,21.262,3.739,31.777c3.038,0.467,5.14,2.57,5.608,5.608c4.906-1.402,10.047-2.57,14.954-3.738
		c-7.244,10.047-8.879,11.682-12.851,22.898c-0.701,1.869-1.402,3.738-2.337,5.374c2.57,0.701,4.206,3.037,3.972,6.075
		c2.571-0.701,5.374-0.935,7.945-1.402c-0.234,5.374-0.234,10.748-1.636,16.122c4.439,0.233,8.879,1.635,13.085,3.037
		c-3.972,7.945-8.178,16.122-15.655,21.496c3.505,0.234,7.243,0.467,10.514,0.701c-3.972,8.411-7.944,18.926-15.188,25.001
		c3.038,0.468,5.842,0.935,8.879,1.169c-5.141,9.579-10.748,18.692-20.562,24.066c4.673,0.701,9.112,2.337,13.785,3.739
		c-7.009,9.112-14.486,17.524-25.468,21.73c6.309,8.879-7.944,15.188-16.356,10.514h-8.645c7.243,2.336,13.318,6.542,19.394,10.515
		C313.474,319.295,305.296,323.969,295.716,325.371L295.716,325.371z"/>
	<path fill-rule="evenodd" clip-rule="evenodd" fill="#FFDF00" d="M216.04,72.556l-2.103-12.15
		c6.075,0.234,11.916,1.402,17.524,3.271l-7.945,10.047C221.18,73.257,218.61,73.024,216.04,72.556L216.04,72.556z"/>
	<path fill-rule="evenodd" clip-rule="evenodd" fill="#FFDF00" d="M178.889,43.583l-2.804,15.888
		c-6.309,0.234-14.954,1.869-19.861,4.206l-10.982-13.085c2.57-0.935,5.608-1.168,8.412-2.103l2.57,7.244l3.739-0.935l-1.869-7.477
		c2.804-0.701,5.374-1.402,8.178-1.869l1.636,6.309l4.673-0.467l-1.168-6.542C173.749,44.284,176.319,43.816,178.889,43.583
		L178.889,43.583z"/>
	<path fill-rule="evenodd" clip-rule="evenodd" fill="#FFDF00" d="M256.93,94.753l-4.673,10.515
		c-15.889-8.879-35.749-14.486-55.376-14.486c-20.094,0-41.357,6.075-57.712,15.655l-5.141-10.748
		C170.477,74.425,217.676,72.556,256.93,94.753L256.93,94.753z"/>
	<path fill-rule="evenodd" clip-rule="evenodd" fill="#FFFFFF" d="M125.849,203.636c0,39.02,31.777,70.797,71.031,70.797
		c39.021,0,70.798-31.777,70.798-70.797c0-39.254-31.777-71.031-70.798-71.031C157.626,132.605,125.849,164.382,125.849,203.636
		L125.849,203.636z M118.84,203.636c0-43.227,35.048-78.041,78.041-78.041s77.807,34.814,77.807,78.041
		c0,42.992-34.815,77.807-77.807,77.807S118.84,246.629,118.84,203.636L118.84,203.636z"/>
	<path fill-rule="evenodd" clip-rule="evenodd" fill="#FFDF00" d="M51.781,212.515c3.738,66.358,44.862,118.463,116.126,135.754
		c14.72,3.505,28.506,3.738,40.422,2.804c0.934,0.234,1.168,0.468,1.168,0.701c0.234,1.168,0.234,1.402,0,1.869l-6.075,0.467v12.851
		c-7.711-7.243-23.599-13.552-31.309-0.935c1.168,3.972,3.505,5.841,7.009,7.009c15.421,5.141,25.936,6.309,37.385-1.402
		c13.318-9.112,18.459-22.664,17.524-39.955c-0.467-12.618-8.178-20.795-22.898-24.3c-5.608,0.934-8.411,0.701-14.253,0.701
		c-57.946,0-104.677-46.731-104.677-104.444c0-7.244,0.701-14.253,2.103-21.263c-0.468-37.852-55.376-30.842-59.115-10.281
		c-1.168,4.906-1.402,10.515-1.636,16.589c-0.234,8.412,1.869,14.019,6.542,17.291c7.711-5.141,5.374-21.029,4.206-27.104
		c2.804-0.233,5.608,0,8.645,0c0-1.168,0.467-2.57,0.935-3.738c0.935-0.935,1.635-0.701,2.57,0.467
		C53.416,188.682,51.547,198.964,51.781,212.515L51.781,212.515z"/>
	<path fill-rule="evenodd" clip-rule="evenodd" fill="#FFFFFF" d="M100.849,203.636c0,52.806,42.992,95.798,96.032,95.798
		c52.806,0,95.799-42.992,95.799-95.798c0-53.04-42.993-96.032-95.799-96.032C143.841,107.604,100.849,150.596,100.849,203.636
		L100.849,203.636z M94.072,203.636c0-56.778,46.03-102.808,102.808-102.808c56.545,0,102.575,46.03,102.575,102.808
		c0,56.544-46.03,102.574-102.575,102.574C140.102,306.211,94.072,260.181,94.072,203.636L94.072,203.636z"/>
	<path fill-rule="evenodd" clip-rule="evenodd" fill="#FFDF00" d="M139.635,107.371c16.589-9.814,36.216-15.421,57.012-15.421
		c20.328,0,39.021,5.374,55.376,14.72l-2.571,5.608c-15.421-8.879-33.646-14.019-52.572-14.019
		c-19.627,0-38.553,5.608-54.208,14.953L139.635,107.371L139.635,107.371z"/>
	<path fill-rule="evenodd" clip-rule="evenodd" fill="#FFDF00" d="M213.47,58.303l-2.804-14.954
		c2.804,0.234,5.374,0.468,8.178,0.935l-0.935,5.842l4.439,1.168l1.168-6.542c2.804,0.701,5.374,1.168,7.711,1.635l-0.935,7.01
		l4.439,1.168l1.402-7.01c2.103,0.468,4.206,1.168,6.309,1.636l-9.814,12.851C226.321,60.172,220.012,58.771,213.47,58.303
		L213.47,58.303z"/>
	<path fill-rule="evenodd" clip-rule="evenodd" fill="#FFDF00" d="M129.588,91.949c0-0.935,0.701-1.869,1.635-2.336
		c19.16-11.216,41.591-17.758,65.657-17.758c22.665,0,43.927,6.075,62.619,15.889c0.935,0.701,1.636,1.635,1.636,2.804
		c0,1.402-1.168,2.804-2.804,2.804c-0.701,0-1.168-0.234-1.869-0.701c-17.758-9.579-38.086-14.953-59.582-14.953
		c-22.898,0-44.161,6.075-62.619,16.589c-0.234,0-0.467,0.234-0.701,0.467c-0.467,0-0.467,0.234-0.934,0.234
		C130.99,94.987,129.588,93.585,129.588,91.949L129.588,91.949z"/>
	<path fill-rule="evenodd" clip-rule="evenodd" fill="#FFDF00" d="M176.085,60.873l-2.103,12.151
		c-3.037,0.467-6.075,0.934-8.879,1.869l-7.711-9.814C163.468,62.976,169.776,61.574,176.085,60.873L176.085,60.873z"/>
	<path fill-rule="evenodd" clip-rule="evenodd" fill="#FFDF00" d="M171.412,362.288c7.244-7.244,19.627-7.477,29.441-0.468
		c-0.234-2.803,0.234-5.14,0-7.711c-8.412,0-18.459-0.233-29.441-2.336C170.945,356.446,170.945,359.952,171.412,362.288
		L171.412,362.288z"/>
	<path fill-rule="evenodd" clip-rule="evenodd" fill="#FFDF00" d="M47.341,198.729c-1.168,3.505-2.336,6.542-3.972,8.412
		c1.869,0.467,3.972,1.168,6.309,1.168c-0.468-7.009,0.935-15.888,2.804-26.87c-1.635,0-3.271,0-5.14,0.234
		C48.042,188.215,48.042,194.056,47.341,198.729L47.341,198.729z"/>
	<path fill-rule="evenodd" clip-rule="evenodd" fill="#C7CA2D" d="M125.382,362.288c6.309-3.972,16.122-9.347,30.141-15.188
		c3.038,1.168,5.842,1.869,8.879,2.57c-2.804,0.935-5.141,1.869-7.244,2.571c-6.542,2.102-11.449,8.178-14.019,14.72
		c-1.168,3.038-13.318,6.542-20.094,1.869C120.709,367.428,121.877,364.625,125.382,362.288L125.382,362.288z"/>
	<path fill-rule="evenodd" clip-rule="evenodd" fill="#C7CA2D" d="M326.793,161.345c-17.524-7.009-25.469-20.328-23.366-39.955
		C314.409,136.811,330.531,134.942,326.793,161.345L326.793,161.345z"/>
	<path fill-rule="evenodd" clip-rule="evenodd" fill="#C7CA2D" d="M286.137,139.615c7.243,3.271,13.785,3.271,19.861,4.206
		c2.57,7.244,10.514,14.721,20.094,17.992C307.633,164.616,294.314,157.373,286.137,139.615L286.137,139.615z"/>
	<path fill-rule="evenodd" clip-rule="evenodd" fill="#C7CA2D" d="M336.84,123.96c3.505,13.552,0.467,24.3-8.879,32.011
		c0.467-5.608-0.234-10.281-3.972-16.122C327.727,134.942,333.335,131.437,336.84,123.96L336.84,123.96z"/>
	<path fill-rule="evenodd" clip-rule="evenodd" fill="#C7CA2D" d="M351.093,151.531c-7.244,10.515-3.038,20.095-17.291,24.768
		c-0.701-3.038-1.402-6.075-2.337-9.112C334.503,159.242,341.046,154.102,351.093,151.531L351.093,151.531z"/>
	<path fill-rule="evenodd" clip-rule="evenodd" fill="#C7CA2D" d="M330.764,189.383c0.234,2.337,0.468,4.906,0.701,7.477
		c-14.253-0.468-23.599-7.945-28.272-22.431C314.409,181.205,324.69,177.467,330.764,189.383L330.764,189.383z"/>
	<path fill-rule="evenodd" clip-rule="evenodd" fill="#C7CA2D" d="M305.997,202.468c3.271-4.206,6.542-7.243,9.814-9.346
		c5.608,3.038,10.982,4.439,15.421,4.206c0.234,1.636,0.234,3.271,0.234,4.673C327.961,208.076,320.25,207.842,305.997,202.468
		L305.997,202.468z"/>
	<path fill-rule="evenodd" clip-rule="evenodd" fill="#C7CA2D" d="M354.364,182.608c-0.701,14.953-7.01,24.3-18.225,27.338
		c0.234-4.673,0.234-9.346,0-14.019C339.176,188.682,345.251,184.243,354.364,182.608L354.364,182.608z"/>
	<path fill-rule="evenodd" clip-rule="evenodd" fill="#C7CA2D" d="M335.905,216.721c0.234-1.869,0.234-4.206,0.234-6.309
		c6.776-1.635,12.15-5.608,15.421-12.618c3.972-0.701,8.178-0.234,12.384,1.169C356.934,212.515,348.289,218.824,335.905,216.721
		L335.905,216.721z"/>
	<path fill-rule="evenodd" clip-rule="evenodd" fill="#C7CA2D" d="M298.987,166.719c0.468-1.635,3.505-2.103,6.776-1.168
		c3.271,0.701,5.608,2.57,5.374,4.206c-0.234,1.402-3.271,1.869-6.776,0.935C301.09,169.99,298.754,168.121,298.987,166.719
		L298.987,166.719z"/>
	<path fill-rule="evenodd" clip-rule="evenodd" fill="#C7CA2D" d="M342.447,147.092c1.168,0.935,0.467,3.972-1.635,6.776
		c-2.337,2.571-4.907,3.972-6.075,3.038c-1.168-0.935-0.467-3.972,1.635-6.542C338.475,147.559,341.279,146.391,342.447,147.092
		L342.447,147.092z"/>
	<path fill-rule="evenodd" clip-rule="evenodd" fill="#C7CA2D" d="M337.307,185.178c-1.168-1.168,0-3.972,2.571-6.309
		c2.57-2.336,5.374-3.038,6.308-1.869c1.168,1.169,0,3.739-2.57,6.075C341.046,185.178,338.241,186.112,337.307,185.178
		L337.307,185.178z"/>
	<path fill-rule="evenodd" clip-rule="evenodd" fill="#C7CA2D" d="M339.877,224.432c-0.701-1.402,0.935-3.739,3.505-5.608
		c2.804-1.869,5.841-2.336,6.776-1.168c0.701,1.168-0.935,3.738-3.505,5.608C343.849,225.366,340.812,225.834,339.877,224.432
		L339.877,224.432z"/>
	<path fill-rule="evenodd" clip-rule="evenodd" fill="#C7CA2D" d="M328.896,233.077c-0.234,1.402-0.468,2.804-0.701,4.206
		c-10.982-3.505-17.057-13.085-19.627-30.609C321.652,211.347,327.961,219.525,328.896,233.077L328.896,233.077z"/>
	<path fill-rule="evenodd" clip-rule="evenodd" fill="#C7CA2D" d="M358.102,222.562c-7.243,15.188-12.384,22.898-26.87,21.73
		c0.935-3.738,1.869-7.711,2.57-11.449c1.869-3.037,4.206-5.14,7.01-6.776c1.869,0,3.972-0.701,6.075-2.337l0.467-0.233
		C350.391,222.796,354.13,222.329,358.102,222.562L358.102,222.562z"/>
	<path fill-rule="evenodd" clip-rule="evenodd" fill="#C7CA2D" d="M323.288,253.872c-0.468,1.635-1.169,3.271-1.869,4.673
		c-13.318-6.075-17.992-20.094-16.589-38.553C316.746,226.301,325.157,241.488,323.288,253.872L323.288,253.872z"/>
	<path fill-rule="evenodd" clip-rule="evenodd" fill="#C7CA2D" d="M351.794,248.265c-7.711,14.019-19.627,19.861-28.74,18.692
		c1.869-3.739,3.505-7.711,4.907-11.683C333.802,248.965,341.98,246.629,351.794,248.265L351.794,248.265z"/>
	<path fill-rule="evenodd" clip-rule="evenodd" fill="#C7CA2D" d="M304.829,256.209c-1.402-2.804-1.402-5.608,0-6.542
		c1.635-0.701,3.972,0.935,5.374,3.738c1.635,2.804,1.635,5.608,0.234,6.542C309.035,260.882,306.464,259.012,304.829,256.209
		L304.829,256.209z"/>
	<path fill-rule="evenodd" clip-rule="evenodd" fill="#C7CA2D" d="M299.922,251.302c5.141,10.048,10.515,19.627,10.982,27.338
		c-2.336,3.271-4.906,6.542-7.711,9.814C294.081,280.976,295.483,268.125,299.922,251.302L299.922,251.302z"/>
	<path fill-rule="evenodd" clip-rule="evenodd" fill="#C7CA2D" d="M344.55,274.668c-10.047,12.851-24.768,19.159-35.515,14.953
		c3.505-4.439,7.009-9.346,9.813-14.486C326.559,272.097,336.84,272.097,344.55,274.668L344.55,274.668z"/>
	<path fill-rule="evenodd" clip-rule="evenodd" fill="#C7CA2D" d="M284.969,279.808c-0.701-2.804,0.467-5.374,2.336-6.075
		c1.635-0.234,3.738,1.869,4.439,4.906c0.701,2.804-0.468,5.374-2.103,5.842C287.539,284.948,285.436,282.845,284.969,279.808
		L284.969,279.808z"/>
	<path fill-rule="evenodd" clip-rule="evenodd" fill="#C7CA2D" d="M317.68,301.071c-3.271,0-5.841-1.168-5.841-3.038
		c-0.234-1.635,2.57-3.038,5.841-3.038c3.271-0.234,5.842,1.168,5.842,3.038C323.521,299.669,320.951,301.071,317.68,301.071
		L317.68,301.071z"/>
	<path fill-rule="evenodd" clip-rule="evenodd" fill="#C7CA2D" d="M284.501,306.445c-3.271,2.57-6.542,4.907-9.814,7.009
		c-6.309-7.711-1.402-17.758,7.477-33.412C284.501,291.023,286.137,300.369,284.501,306.445L284.501,306.445z"/>
	<path fill-rule="evenodd" clip-rule="evenodd" fill="#C7CA2D" d="M312.54,314.622c-12.618,7.243-26.169,9.346-32.945,2.336
		c4.439-3.037,8.645-6.075,12.384-9.579C298.754,307.846,306.231,310.651,312.54,314.622L312.54,314.622z"/>
	<path fill-rule="evenodd" clip-rule="evenodd" fill="#C7CA2D" d="M284.969,330.978c-3.271-0.467-5.608-2.57-5.141-4.206
		c0.234-1.635,3.271-2.57,6.309-1.869c3.271,0.701,5.608,2.57,5.14,4.439C291.043,330.978,288.006,331.679,284.969,330.978
		L284.969,330.978z"/>
	<path fill-rule="evenodd" clip-rule="evenodd" fill="#C7CA2D" d="M243.611,333.081c1.402-1.168,1.869-2.103,3.038-3.738
		c17.991-7.711,32.711-16.824,44.628-27.104l-2.804-17.29c0.467,0,0.701,0,1.168,0l4.439,14.486
		c8.412-7.944,15.188-16.122,20.795-25.468l-5.141-13.085c0.468,0,0.468-0.233,0.935-0.233l5.841,10.281
		c10.748-19.627,15.889-42.058,15.889-67.292c0-8.879-0.935-17.291-2.336-25.468l-18.926-7.711c0.701-0.935,0.701-1.169,0.468-1.636
		l17.758,6.542c-0.935-4.673-2.103-8.879-3.505-13.085c0.234-0.233,1.168-0.467,1.168-0.467c0.467-1.402,0.467-2.804,0.467-4.206
		c0.935,1.402,1.168,2.57,1.636,3.972l4.439-4.673c0.234,0.701,0.467,0.935,0.935,1.168l-4.674,5.842
		c2.103,7.243,3.739,14.486,4.674,21.964l1.869-1.168c0,0.233,0.234,0.467,0.468,0.701l-2.103,3.038
		c0.467,4.906,0.935,9.814,0.935,15.188c0,7.711-0.701,15.188-1.636,22.665l5.141-3.038c0,0.467,0,0.935,0.467,1.402l-6.075,4.907
		c-4.206,26.169-14.486,48.834-31.31,67.059l9.113,0.467c0,0.233-0.234,0.468-0.234,0.935c0,0.467,0.234,0.701,0.234,1.168h-11.683
		c-8.645,8.879-18.926,16.823-31.076,23.599l10.982,3.271c-0.468,0.934-0.234,1.402-0.234,1.635l-14.019-3.271
		c-6.542,3.505-12.618,6.309-20.095,9.112C244.78,333.315,244.079,333.315,243.611,333.081L243.611,333.081z"/>
	<path fill-rule="evenodd" clip-rule="evenodd" fill="#C7CA2D" d="M285.669,337.521c-14.72,6.075-30.141,4.907-35.048-5.374
		c5.141-1.869,10.047-3.972,14.954-6.776C271.65,328.175,278.426,334.717,285.669,337.521L285.669,337.521z"/>
	<path fill-rule="evenodd" clip-rule="evenodd" fill="#C7CA2D" d="M264.173,319.763c-3.739,2.103-7.477,3.972-11.216,5.841
		c-10.748-8.178,5.842-17.056,11.216-28.506C266.743,306.445,266.977,314.389,264.173,319.763L264.173,319.763z"/>
	<path fill-rule="evenodd" clip-rule="evenodd" fill="#C7CA2D" d="M245.948,303.874c3.505,13.085,3.738,23.599-3.271,29.207
		c-1.869-0.467-6.309,0.234-7.944,1.869v-3.271c0-3.972-0.935-7.243-2.337-10.281C235.667,316.258,242.91,310.651,245.948,303.874
		L245.948,303.874z"/>
	<path fill-rule="evenodd" clip-rule="evenodd" fill="#C7CA2D" d="M233.564,347.101c0.935-3.505,1.168-7.243,1.402-10.982
		c1.402-1.168,4.206-2.103,8.645-2.103c8.412,2.103,18.225,12.15,26.403,14.954C257.397,353.876,241.742,355.746,233.564,347.101
		L233.564,347.101z"/>
	<path fill-rule="evenodd" clip-rule="evenodd" fill="#00A651" d="M116.503,203.636c0,44.161,35.983,80.143,80.377,80.143
		c44.161,0,80.144-35.983,80.144-80.143c0-44.395-35.983-80.378-80.144-80.378C152.486,123.259,116.503,159.242,116.503,203.636
		L116.503,203.636z M101.783,203.636c0-52.572,42.525-95.098,95.098-95.098c52.339,0,95.098,42.525,95.098,95.098
		c0,52.572-42.759,94.863-95.098,94.863C144.308,298.5,101.783,256.209,101.783,203.636L101.783,203.636z"/>
	<path fill-rule="evenodd" clip-rule="evenodd" fill="#00A651" d="M181.226,228.638c4.206,2.804,9.112,4.673,14.486,4.906v23.132
		c-3.505-5.841-9.58-10.281-18.926-13.085c-3.739-0.935-7.01-2.103-9.814-3.505L181.226,228.638L181.226,228.638z M195.712,168.588
		v6.542c-14.954,0.467-27.104,13.318-27.104,29.206c0,2.571,0.468,5.141,1.168,7.477l-15.888,13.552
		c-1.636-6.075-1.168-13.319,1.635-21.73c4.674-14.019,2.337-23.599-7.009-27.571l12.618-14.954
		C172.814,165.784,184.497,168.355,195.712,168.588L195.712,168.588z"/>
	<path fill-rule="evenodd" clip-rule="evenodd" fill="#FFFFFF" d="M181.459,136.344c4.673-1.168,9.346-1.869,14.253-1.869v32.478
		c-2.336,0-4.673,0-7.009-0.234L181.459,136.344L181.459,136.344z"/>
	<path fill-rule="evenodd" clip-rule="evenodd" fill="#FFFFFF" d="M129.588,187.281c1.168-4.439,2.57-8.645,4.439-12.618
		l21.496,10.281c0.935,2.57,1.169,5.608,0.701,8.645L129.588,187.281L129.588,187.281z"/>
	<path fill-rule="evenodd" clip-rule="evenodd" fill="#FFFFFF" d="M195.712,272.565c-4.673,0-9.112-0.468-13.552-1.636l5.14-21.029
		c3.505,2.336,6.075,5.608,8.412,9.814V272.565L195.712,272.565z"/>
	<path fill-rule="evenodd" clip-rule="evenodd" fill="#FFFFFF" d="M211.834,270.929c-4.439,1.168-9.112,1.636-14.019,1.636v-12.618
		c2.103-4.439,4.907-7.944,8.879-10.281L211.834,270.929L211.834,270.929z"/>
	<polygon fill-rule="evenodd" clip-rule="evenodd" fill="#FFDF00" points="196.88,188.682 196.88,187.047 198.983,186.813 
		196.88,188.682 	"/>
	<path fill-rule="evenodd" clip-rule="evenodd" fill="#FFDF00" d="M223.517,204.104c0,9.814-4.906,18.225-12.383,23.132
		c5.842-6.542,9.113-18.458,7.711-28.506l3.505-2.804C223.05,198.729,223.517,201.3,223.517,204.104L223.517,204.104z"/>
	<path fill-rule="evenodd" clip-rule="evenodd" fill="#FFDF00" d="M190.806,221.161l5.608-4.673v7.009
		c-1.636,0-3.038,0.233-4.907,0.467C191.273,223.03,191.039,222.095,190.806,221.161L190.806,221.161z"/>
	<path fill-rule="evenodd" clip-rule="evenodd" fill="#FFDF00" d="M184.029,226.535l2.103-1.636l0.234,0.468
		C185.665,225.834,184.73,226.067,184.029,226.535L184.029,226.535z"/>
	<path fill-rule="evenodd" clip-rule="evenodd" fill="#FFDF00" d="M180.992,202.235l-4.907,4.205
		c-0.234-6.776,0.701-14.253,3.038-22.664c0.701-0.468,1.635-1.168,2.336-1.636c0.935,0.701,1.869,1.168,2.804,1.869
		C182.394,189.15,181.226,195.225,180.992,202.235L180.992,202.235z"/>
	<path fill-rule="evenodd" clip-rule="evenodd" fill="#FFDF00" d="M207.862,179.336l-7.477,6.308
		c-6.075,0.468-11.916-0.934-17.758-4.439c4.206-2.57,8.879-4.206,14.253-4.206C200.853,176.999,204.591,177.934,207.862,179.336
		L207.862,179.336z"/>
	<path fill-rule="evenodd" clip-rule="evenodd" fill="#FFDF00" d="M196.88,231.441c-4.673,0-9.112-1.168-12.851-3.271
		c9.346-4.439,16.356-4.439,25.235,0.234C205.526,230.273,201.32,231.441,196.88,231.441L196.88,231.441z"/>
	<path fill-rule="evenodd" clip-rule="evenodd" fill="#FFFFFF" d="M167.674,141.017c3.738-1.869,7.476-3.271,11.449-4.206
		l7.244,29.674c-2.337-0.233-4.674-0.701-7.01-1.402L167.674,141.017L167.674,141.017z"/>
	<path fill-rule="evenodd" clip-rule="evenodd" fill="#FFFFFF" d="M153.888,149.428c3.505-3.037,7.477-5.608,11.683-7.477
		l10.982,22.665c-4.674-1.168-9.346-2.803-14.019-4.673L153.888,149.428L153.888,149.428z"/>
	<path fill-rule="evenodd" clip-rule="evenodd" fill="#FFFFFF" d="M143.14,159.943c2.804-3.271,5.842-6.309,8.879-9.112l7.711,9.579
		l-6.542,7.711L143.14,159.943L143.14,159.943z"/>
	<path fill-rule="evenodd" clip-rule="evenodd" fill="#FFFFFF" d="M134.962,172.56c1.869-3.738,4.206-7.476,7.009-10.982
		l10.047,8.178l-6.075,7.009c3.271,1.168,5.608,2.804,7.243,4.907L134.962,172.56L134.962,172.56z"/>
	<path fill-rule="evenodd" clip-rule="evenodd" fill="#FFFFFF" d="M155.991,195.926c-0.468,2.103-0.935,4.439-1.636,6.776
		l-26.636,0.233c0.234-4.673,0.701-9.112,1.402-13.552L155.991,195.926L155.991,195.926z"/>
	<path fill-rule="evenodd" clip-rule="evenodd" fill="#FFFFFF" d="M153.654,204.805c-0.935,2.804-1.402,5.141-1.636,7.711
		l-22.898,4.906c-0.701-3.972-1.168-8.411-1.402-12.617H153.654L153.654,204.805z"/>
	<path fill-rule="evenodd" clip-rule="evenodd" fill="#FFFFFF" d="M151.551,215.085c-0.234,3.038,0,5.608,0.467,8.178l-18.225,8.645
		c-1.869-3.972-3.038-7.945-4.206-12.15L151.551,215.085L151.551,215.085z"/>
	<path fill-rule="evenodd" clip-rule="evenodd" fill="#FFFFFF" d="M152.72,225.6c0.701,3.038,2.336,5.608,3.972,8.178
		l-14.721,11.683c-2.804-3.505-5.374-7.477-7.243-11.449L152.72,225.6L152.72,225.6z"/>
	<path fill-rule="evenodd" clip-rule="evenodd" fill="#FFFFFF" d="M158.094,235.413c2.103,2.103,4.673,3.972,7.711,5.608
		l-12.851,15.888c-3.505-3.037-6.776-6.308-9.814-9.814L158.094,235.413L158.094,235.413z"/>
	<path fill-rule="evenodd" clip-rule="evenodd" fill="#FFFFFF" d="M167.674,241.956c2.337,1.168,4.906,2.103,7.944,2.803
		l-10.047,20.328c-3.972-1.869-7.711-4.206-11.216-7.01L167.674,241.956L167.674,241.956z"/>
	<path fill-rule="evenodd" clip-rule="evenodd" fill="#FFFFFF" d="M177.487,245.461c2.804,0.935,5.608,1.869,7.944,3.271
		l-5.141,21.963c-4.439-1.168-8.879-2.804-12.851-4.673L177.487,245.461L177.487,245.461z"/>
	<path fill-rule="evenodd" clip-rule="evenodd" fill="#FFFFFF" d="M225.386,266.256c-3.738,1.869-7.711,3.271-11.682,4.206
		l-5.141-21.964c1.869-1.168,4.206-2.103,7.009-2.804L225.386,266.256L225.386,266.256z"/>
	<path fill-rule="evenodd" clip-rule="evenodd" fill="#FFFFFF" d="M239.172,258.078c-3.739,2.804-7.711,5.374-11.916,7.477
		l-9.814-20.561c3.038-0.701,6.075-1.869,8.645-3.038L239.172,258.078L239.172,258.078z"/>
	<path fill-rule="evenodd" clip-rule="evenodd" fill="#FFFFFF" d="M249.92,247.797c-2.804,3.271-5.842,6.309-9.346,8.879
		l-12.617-15.888c2.57-1.168,4.906-3.038,6.776-4.907L249.92,247.797L249.92,247.797z"/>
	<path fill-rule="evenodd" clip-rule="evenodd" fill="#FFFFFF" d="M258.332,234.946c-2.103,3.972-4.439,7.711-7.243,11.216
		l-14.721-11.916c1.869-2.336,3.271-4.907,4.206-7.711L258.332,234.946L258.332,234.946z"/>
	<path fill-rule="evenodd" clip-rule="evenodd" fill="#FFFFFF" d="M263.706,220.927c-1.168,4.205-2.57,8.411-4.439,12.15
		l-17.991-8.645c0.467-2.571,0.935-5.608,0.701-8.412L263.706,220.927L263.706,220.927z"/>
	<path fill-rule="evenodd" clip-rule="evenodd" fill="#FFFFFF" d="M241.742,213.683c-0.233-2.804-0.935-5.608-1.869-8.879h25.936
		c0,4.906-0.701,9.58-1.635,14.019L241.742,213.683L241.742,213.683z"/>
	<path fill-rule="evenodd" clip-rule="evenodd" fill="#FFFFFF" d="M239.406,202.702c-0.701-2.103-1.402-3.972-1.869-6.075
		l27.104-5.841c0.701,3.972,1.168,7.944,1.168,11.917H239.406L239.406,202.702z"/>
	<path fill-rule="evenodd" clip-rule="evenodd" fill="#FFFFFF" d="M237.303,194.056c-0.467-2.804-0.234-5.841,0.234-8.178
		l22.431-10.515c1.869,3.972,3.038,8.412,4.206,12.851L237.303,194.056L237.303,194.056z"/>
	<path fill-rule="evenodd" clip-rule="evenodd" fill="#FFFFFF" d="M241.742,169.99l10.047-8.178
		c2.804,3.738,5.374,7.71,7.244,11.916l-20.328,9.346c1.869-2.804,4.439-4.907,8.645-6.542L241.742,169.99L241.742,169.99z"/>
	<path fill-rule="evenodd" clip-rule="evenodd" fill="#FFFFFF" d="M233.798,160.41l7.711-9.579c3.271,2.803,6.075,5.841,8.879,9.112
		l-10.281,8.178L233.798,160.41L233.798,160.41z"/>
	<path fill-rule="evenodd" clip-rule="evenodd" fill="#FFFFFF" d="M217.442,164.616l10.982-22.431
		c3.972,1.869,7.711,4.439,11.215,7.243l-8.411,10.748C226.321,161.812,221.881,163.448,217.442,164.616L217.442,164.616z"/>
	<path fill-rule="evenodd" clip-rule="evenodd" fill="#FFFFFF" d="M214.638,165.084c-2.804,0.701-5.374,1.168-8.178,1.402
		l7.009-30.142c4.439,1.168,8.879,2.804,12.851,4.673L214.638,165.084L214.638,165.084z"/>
	<path fill-rule="evenodd" clip-rule="evenodd" fill="#FFFFFF" d="M197.348,134.475c4.673,0,9.346,0.701,13.785,1.402l-7.009,31.076
		c-2.336,0-4.439,0-6.542,0L197.348,134.475L197.348,134.475z"/>
	<path fill-rule="evenodd" clip-rule="evenodd" fill="#FFFFFF" d="M209.264,177.934c-3.505-1.869-7.711-2.803-11.682-2.803v-6.542
		c9.346,0,18.926-1.869,28.739-5.141L209.264,177.934L209.264,177.934z M197.815,256.676l-0.234-23.132
		c15.188-0.467,27.571-13.318,27.571-29.207c0-3.271-0.467-6.542-1.402-9.579l12.851-10.047c-1.635,4.673-1.168,11.215,1.636,18.926
		c6.776,21.262-0.701,34.347-21.496,39.955C207.629,246.395,201.086,250.835,197.815,256.676L197.815,256.676z"/>
	<path fill-rule="evenodd" clip-rule="evenodd" fill="#FFDF00" d="M225.153,74.192l20.094-26.403l26.169,12.384l-11.449,26.87
		l-1.168-0.934l9.579-23.599c-5.841-2.103-12.617,4.206-20.094,18.692C240.807,78.164,233.097,75.827,225.153,74.192L225.153,74.192
		z"/>
	<path fill-rule="evenodd" clip-rule="evenodd" fill="#FFDF00" d="M142.205,82.603c-7.944-13.318-14.486-18.926-19.861-16.589
		l10.047,21.73l-1.635,0.935c-8.879-18.225-11.683-24.534-12.851-26.403l24.768-12.384l21.262,25.235
		C156.458,76.995,148.981,79.566,142.205,82.603L142.205,82.603z"/>
	<polygon fill-rule="evenodd" clip-rule="evenodd" fill="#FFDF00" points="115.335,62.042 146.177,46.62 138.934,32.367 
		131.924,35.638 134.728,41.714 129.821,44.05 126.784,37.741 119.541,41.246 122.578,48.022 118.139,49.891 115.101,43.816 
		107.624,47.088 115.335,62.042 	"/>
	<path fill-rule="evenodd" clip-rule="evenodd" fill="#FFDF00" d="M195.011,43.349c-6.308,0.468-9.813,10.048-9.813,28.272
		c-3.505,0.233-6.542,0.701-10.048,1.168l5.374-31.543h28.739l5.374,31.076c-3.271-0.468-6.542-0.701-10.047-0.935
		C205.059,53.162,202.021,42.648,195.011,43.349L195.011,43.349z"/>
	<polygon fill-rule="evenodd" clip-rule="evenodd" fill="#FFDF00" points="250.387,30.965 243.378,45.686 274.22,60.172 
		282.164,44.985 274.454,41.246 271.183,47.789 267.21,45.686 270.014,40.078 262.07,36.573 259.266,42.882 254.593,40.545 
		257.397,34.47 250.387,30.965 	"/>
	<polygon fill-rule="evenodd" clip-rule="evenodd" fill="#FFDF00" points="174.45,40.078 215.106,40.078 215.106,23.255 
		205.759,23.021 205.759,29.564 199.684,30.031 199.918,23.021 189.871,23.021 190.104,30.265 183.329,30.265 183.329,23.255 
		173.749,23.488 174.45,40.078 	"/>
	<path fill-rule="evenodd" clip-rule="evenodd" fill="#FFDF00" d="M212.769,203.636l4.907-3.972
		c1.168,9.347-2.804,20.328-7.711,27.338c-0.701-0.467-1.635-0.935-2.336-1.168C211.601,219.992,213.47,210.646,212.769,203.636
		L212.769,203.636z"/>
	<path fill-rule="evenodd" clip-rule="evenodd" fill="#FFDF00" d="M205.059,209.711l6.542-5.14
		c0.467,6.542-0.935,13.785-4.674,20.795c-1.402-0.468-2.57-0.701-3.972-1.168C204.357,218.824,205.059,214.151,205.059,209.711
		L205.059,209.711z"/>
	<path fill-rule="evenodd" clip-rule="evenodd" fill="#FFDF00" d="M197.114,216.02l7.01-5.608
		c-0.233,5.608-1.168,10.281-2.103,13.552c-1.636-0.233-3.271-0.467-4.907-0.467V216.02L197.114,216.02z"/>
	<path fill-rule="evenodd" clip-rule="evenodd" fill="#FFDF00" d="M191.039,186.346c1.635,0.233,3.271,0.467,4.907,0.701
		l0.234,2.336l-6.542,5.608C189.871,191.954,190.338,189.15,191.039,186.346L191.039,186.346z"/>
	<path fill-rule="evenodd" clip-rule="evenodd" fill="#FFDF00" d="M186.6,224.432l3.505-2.804c0.234,0.701,0.234,1.636,0.935,2.571
		c-1.402,0.234-2.804,0.701-4.206,1.168L186.6,224.432L186.6,224.432z"/>
	<path fill-rule="evenodd" clip-rule="evenodd" fill="#FFDF00" d="M185.198,184.243c1.402,0.701,2.804,1.168,4.205,1.636
		c-0.467,3.505-0.701,7.01-1.168,10.047l-6.075,5.374C182.394,194.758,183.329,189.383,185.198,184.243L185.198,184.243z"/>
	<path fill-rule="evenodd" clip-rule="evenodd" fill="#FFDF00" d="M170.244,204.104c0-7.711,3.038-14.486,8.178-19.393
		c-2.804,7.009-3.738,14.72-3.271,22.664l-4.205,3.271C170.477,208.777,170.244,206.44,170.244,204.104L170.244,204.104z"/>
	<path fill-rule="evenodd" clip-rule="evenodd" fill="#FFFFFF" d="M244.78,175.831l-12.384-14.72l-1.402,0.467l-76.639,64.956
		c1.869,5.374,5.842,9.579,11.216,12.617l72.199-57.479C239.406,179.336,241.742,177.233,244.78,175.831L244.78,175.831z"/>
	<path fill-rule="evenodd" clip-rule="evenodd" fill="#007F3E" d="M65.8,181.205l3.505,0.468c-1.869,1.402-3.038,3.038-3.038,4.673
		c-0.233,0.935,0,1.869,0.234,2.336c0.468,0.701,1.168,0.935,1.869,1.168c0.935,0,1.635-0.467,2.336-1.168
		c0.468-0.234,0.935-0.935,1.636-1.869c1.168-1.635,2.103-2.804,2.804-3.271c1.168-0.934,2.336-1.402,3.739-1.168
		c1.635,0,2.804,0.468,3.505,1.636c0.935,1.168,1.168,2.57,1.168,4.206c0,1.635-0.468,3.038-1.636,4.439l-3.037-0.233
		c1.402-1.402,2.102-3.038,2.336-4.439c0-0.701-0.234-1.402-0.701-2.103c-0.234-0.701-0.701-0.935-1.635-0.935
		c-0.935-0.233-2.103,0.935-3.739,3.271c0,0-0.234,0-0.234,0.233c-1.168,1.635-2.103,2.57-2.804,3.271
		c-0.934,0.701-2.336,0.935-3.972,0.701c-1.636,0-2.804-0.701-3.505-1.869c-0.935-1.168-1.169-2.336-1.169-4.206
		C63.463,184.476,64.398,182.841,65.8,181.205L65.8,181.205z"/>
	<polygon fill-rule="evenodd" clip-rule="evenodd" fill="#007F3E" points="62.996,195.926 82.39,195.692 82.623,207.375 
		80.287,207.375 80.053,198.262 74.211,198.496 74.211,207.141 71.642,207.141 71.642,198.496 65.566,198.729 65.8,207.842 
		63.23,207.842 62.996,195.926 	"/>
	<polygon fill-rule="evenodd" clip-rule="evenodd" fill="#007F3E" points="63.697,217.656 80.52,216.488 80.053,209.244 
		82.623,209.011 84.025,226.067 81.221,226.301 80.754,219.058 63.931,220.226 63.697,217.656 	"/>
	<path fill-rule="evenodd" clip-rule="evenodd" fill="#007F3E" d="M84.259,227.002l0.468,2.57l-10.982,2.103
		c-2.103,0.234-3.271,0.701-3.739,1.402c-1.168,1.402-1.635,3.037-1.168,5.14c0.234,1.402,0.701,2.804,1.636,3.739
		c1.168,0.935,2.337,1.168,3.972,0.935l12.15-2.103l0.467,2.804l-12.383,2.103c-2.103,0.468-4.206-0.233-5.608-1.635
		c-1.402-1.168-2.571-3.038-2.804-5.374c-0.701-3.038,0-5.608,1.636-7.477c0.701-0.701,1.402-1.168,2.336-1.636
		c0.701-0.234,1.635-0.467,2.804-0.701L84.259,227.002L84.259,227.002z M87.063,233.077l5.374,1.869l0.467,2.571l-5.374-3.038
		L87.063,233.077L87.063,233.077z"/>
	<path fill-rule="evenodd" clip-rule="evenodd" fill="#007F3E" d="M79.119,251.769l-5.608,1.869l1.168,3.739
		c0.935,2.337,2.336,3.271,4.206,2.57c1.869-0.701,2.336-2.336,1.168-5.14L79.119,251.769L79.119,251.769z M70.006,252.003
		l18.225-6.542l2.103,5.374c0.701,1.635,0.935,3.038,0.233,4.439c-0.233,1.402-1.168,2.337-2.803,3.038
		c-1.869,0.701-3.505,0.233-4.907-1.402c0.233,1.402,0,2.571-0.467,3.505c-0.701,1.168-1.402,2.103-2.804,2.336
		c-1.635,0.701-3.038,0.467-4.439-0.468c-1.168-0.934-2.103-2.103-2.804-3.738L70.006,252.003L70.006,252.003z M81.455,250.835
		l0.701,1.635c0.934,2.804,2.336,3.739,4.439,3.038c1.635-0.701,2.103-1.869,1.168-4.206l-0.701-2.336L81.455,250.835
		L81.455,250.835z"/>
	<path fill-rule="evenodd" clip-rule="evenodd" fill="#007F3E" d="M85.193,267.891l2.571,5.374l4.906-6.075L85.193,267.891
		L85.193,267.891z M74.679,265.789l21.262-1.169l0.935,1.636l-13.318,16.589l-1.402-2.57l3.972-4.673l-3.738-7.711l-6.309,0.701
		L74.679,265.789L74.679,265.789z"/>
	<polygon fill-rule="evenodd" clip-rule="evenodd" fill="#007F3E" points="85.427,284.948 101.549,274.2 103.185,276.303 
		88.932,285.883 94.072,293.594 92.203,294.995 85.427,284.948 	"/>
	<polygon fill-rule="evenodd" clip-rule="evenodd" fill="#007F3E" points="98.278,292.659 99.914,291.023 104.82,296.631 
		102.951,298.033 98.278,292.659 	"/>
	<path fill-rule="evenodd" clip-rule="evenodd" fill="#007F3E" d="M101.316,303.874c0.935,0,2.336-0.467,4.439-0.935
		c1.869-0.234,3.505-0.701,4.439-0.701c3.038-0.935,5.141-1.869,6.075-3.038c0.935-0.935,1.168-1.869,1.168-2.57
		c-0.234-0.935-0.468-1.636-1.402-2.336c-0.934-0.935-2.57-1.402-4.673-0.935l2.103-2.571c1.869,0.234,3.505,0.701,4.673,1.636
		c1.402,1.168,2.103,2.57,2.103,3.972c0,1.635-0.467,3.037-1.635,4.439c-1.168,1.402-3.038,2.336-5.374,3.037
		c-1.402,0.468-3.739,0.935-6.309,1.168l5.608,4.907l-1.869,2.103L101.316,303.874L101.316,303.874z"/>
	<path fill-rule="evenodd" clip-rule="evenodd" fill="#007F3E" d="M120.709,307.379c-1.168,1.635-1.636,3.037-2.103,4.205
		c-0.701,1.869-0.233,3.271,0.935,3.972c1.168,0.701,2.337,0.701,4.205-0.701c0.935-0.934,1.869-1.869,2.804-3.271
		c1.168-1.869,1.869-3.037,2.103-4.205c0.701-2.103,0.234-3.505-0.701-3.972c-1.402-0.935-2.57-0.701-4.206,0.467
		C122.578,304.809,121.644,305.977,120.709,307.379L120.709,307.379z M118.373,305.744c1.402-2.103,3.037-3.505,4.673-4.673
		c2.336-1.168,4.206-1.168,6.309,0c1.869,1.168,2.57,3.271,2.103,5.841c-0.234,1.869-1.169,3.972-2.571,6.075
		c-1.402,2.103-2.804,3.738-4.673,4.673c-2.336,1.402-4.206,1.402-6.309,0c-1.869-1.168-2.57-3.038-2.103-5.608
		C116.036,309.949,116.97,308.08,118.373,305.744L118.373,305.744z"/>
	<polygon fill-rule="evenodd" clip-rule="evenodd" fill="#007F3E" points="128.887,317.426 130.055,315.557 136.597,318.828 
		135.429,320.931 128.887,317.426 	"/>
	<polygon fill-rule="evenodd" clip-rule="evenodd" fill="#007F3E" points="140.336,328.642 147.346,310.416 149.916,311.585 
		142.906,329.81 140.336,328.642 	"/>
	<polygon fill-rule="evenodd" clip-rule="evenodd" fill="#007F3E" points="155.056,333.548 159.963,314.622 162.767,315.324 
		157.393,334.249 155.056,333.548 	"/>
	<polygon fill-rule="evenodd" clip-rule="evenodd" fill="#007F3E" points="166.038,330.511 166.505,328.408 173.749,329.576 
		173.281,331.913 166.038,330.511 	"/>
	<path fill-rule="evenodd" clip-rule="evenodd" fill="#007F3E" d="M185.198,326.539L185.198,326.539
		c0.234-0.234,0.234-0.701,0.234-1.168c0.234-1.168,0-2.103-0.468-2.804c-0.467-0.934-1.402-1.402-2.57-1.635
		c-0.935,0-1.636,0.233-2.336,0.701c-0.701,0.701-0.935,1.402-0.935,2.336c-0.234,0.935,0,1.869,0.701,2.337
		c0.467,0.701,1.168,1.168,2.103,1.168C183.095,327.707,184.263,327.474,185.198,326.539L185.198,326.539z M184.497,329.576
		c-1.168,0.467-2.336,0.701-3.271,0.467c-1.636,0-3.038-0.701-3.738-1.869c-1.169-1.169-1.402-2.571-1.169-4.206
		c0-1.636,0.701-3.271,1.869-4.206c1.402-1.168,2.804-1.402,4.673-1.168c1.869,0,3.505,0.935,4.206,2.336
		c0.935,1.402,1.402,3.038,1.168,4.906c-0.467,5.141-3.505,9.346-9.112,12.618l-1.168-2.103
		C181.226,334.483,183.562,332.146,184.497,329.576L184.497,329.576z"/>
	<polygon fill-rule="evenodd" clip-rule="evenodd" fill="#007F3E" points="195.245,338.922 195.245,319.529 198.049,319.529 
		198.049,338.922 195.245,338.922 	"/>
	<path fill-rule="evenodd" clip-rule="evenodd" fill="#007F3E" d="M207.161,329.109c0.234,1.869,0.467,3.271,0.934,4.439
		c0.701,1.869,1.869,2.804,3.271,2.571c1.402-0.233,2.337-1.168,2.804-3.038c0.234-1.402,0.467-2.804,0.234-4.673
		c-0.234-1.869-0.467-3.271-0.935-4.439c-0.935-1.869-1.869-2.804-3.505-2.571c-1.168,0-2.336,1.168-2.57,3.038
		C206.927,325.838,206.927,327.24,207.161,329.109L207.161,329.109z M204.357,329.343c-0.234-2.571,0-4.907,0.701-6.542
		c0.935-2.571,2.57-3.972,4.906-4.206c2.336,0,3.972,0.935,5.141,3.038c1.168,1.869,1.869,3.972,1.869,6.542
		c0.467,2.57,0,4.673-0.701,6.542c-0.701,2.57-2.336,3.972-4.673,3.972c-2.337,0.233-3.972-0.701-5.374-2.804
		C205.059,334.016,204.591,331.913,204.357,329.343L204.357,329.343z"/>
	<polygon fill-rule="evenodd" clip-rule="evenodd" fill="#007F3E" points="184.964,219.992 174.45,214.618 176.553,212.982 
		182.627,216.02 180.992,209.478 183.095,207.608 185.899,219.291 184.964,219.992 	"/>
	<path fill-rule="evenodd" clip-rule="evenodd" fill="#007F3E" d="M189.403,214.852c-0.234-0.467-0.234-0.701-0.234-1.168
		s0.234-0.701,0.468-0.935c0.234-0.233,0.701-0.233,1.168-0.233c0.234,0,0.701,0,0.701,0.467c0.468,0.234,0.468,0.701,0.468,0.935
		c0,0.234-0.234,0.701-0.468,0.935c-0.467,0.234-0.701,0.467-1.168,0.467C190.104,215.085,189.871,214.852,189.403,214.852
		L189.403,214.852z"/>
	<polygon fill-rule="evenodd" clip-rule="evenodd" fill="#007F3E" points="193.843,212.749 187.067,204.337 192.441,199.898 
		193.609,201.534 190.338,204.104 191.74,205.973 195.011,203.636 196.413,205.038 193.142,207.608 195.946,211.113 
		193.843,212.749 	"/>
	<path fill-rule="evenodd" clip-rule="evenodd" fill="#007F3E" d="M199.451,206.44c-0.234-0.234-0.234-0.467-0.234-0.934
		c0-0.234,0.234-0.701,0.468-0.935c0.234-0.234,0.701-0.468,1.168-0.468c0.234,0.233,0.701,0.468,0.701,0.701
		c0.468,0.234,0.468,0.467,0.468,1.168c0,0.233-0.234,0.467-0.468,0.701c-0.467,0.467-0.701,0.467-1.168,0.467
		C200.151,207.141,199.918,206.908,199.451,206.44L199.451,206.44z"/>
	<path fill-rule="evenodd" clip-rule="evenodd" fill="#007F3E" d="M210.666,198.029c-0.701,1.402-1.402,2.57-2.571,3.271
		c-1.168,1.168-2.804,1.635-4.205,1.635c-1.636-0.233-2.804-0.935-3.972-2.336c-0.935-1.168-1.402-2.57-1.168-4.206
		c0.467-1.402,1.168-2.804,2.57-3.738c0.935-0.935,2.103-1.402,3.505-1.869l1.636,2.103c-1.402,0-2.57,0.701-3.738,1.168
		c-0.701,0.701-1.169,1.636-1.402,2.336c0,0.935,0.234,1.869,0.935,2.571c0.468,0.934,1.402,1.168,2.337,1.402
		c0.701,0,1.402-0.234,2.336-0.935c0.935-0.701,1.636-1.869,2.103-3.505L210.666,198.029L210.666,198.029z"/>
	<path fill-rule="evenodd" clip-rule="evenodd" fill="#007F3E" d="M211.367,196.861c-0.234-0.234-0.234-0.701-0.234-0.935
		c0-0.468,0.234-0.701,0.468-0.935c0.234-0.234,0.701-0.234,1.168-0.234c0.234,0,0.701,0,0.701,0.467
		c0.468,0.234,0.468,0.701,0.468,0.935c0,0.234-0.234,0.701-0.468,0.935c-0.467,0.234-0.701,0.467-1.168,0.234
		C212.068,197.328,211.601,197.094,211.367,196.861L211.367,196.861z"/>
</g>
</svg>
