<?xml version="1.0" encoding="utf-8"?>
<!-- Generator: Adobe Illustrator 19.1.0, SVG Export Plug-In . SVG Version: 6.00 Build 0)  -->
<svg version="1.1" id="Layer_1" xmlns="http://www.w3.org/2000/svg" xmlns:xlink="http://www.w3.org/1999/xlink" x="0px" y="0px"
	 viewBox="0 0 400 400" enable-background="new 0 0 400 400" xml:space="preserve">
<g>
	<path fill-rule="evenodd" clip-rule="evenodd" d="M326.187,8.428H70.491v175.395c0,40.489,8.417,77.262,25.019,109.295
		c21.374,41.244,56.018,73.551,102.972,96.024l0.896,0.43l0.896-0.43c46.953-22.473,81.598-54.78,102.971-96.024
		c16.602-32.033,25.02-68.806,25.02-109.295V8.428H326.187L326.187,8.428z M324.11,12.582c0,4.056,0,171.241,0,171.241
		c0,39.818-8.261,75.948-24.553,107.384c-20.812,40.158-54.522,71.686-100.179,93.74c-45.658-22.055-79.368-53.582-100.18-93.74
		c-16.292-31.436-24.552-67.566-24.552-107.384c0,0,0-167.185,0-171.241C78.699,12.582,320.057,12.582,324.11,12.582L324.11,12.582z
		"/>
	<path fill-rule="evenodd" clip-rule="evenodd" d="M112.383,301.754L317.888,87.466V18.804h-69.452L81.031,193.365
		C82.233,227.544,90.273,266.3,112.383,301.754L112.383,301.754z"/>
	<path fill-rule="evenodd" clip-rule="evenodd" d="M242.597,141.775l4.025,1.582c2.607,8.477,1.008,20.527,0.478,29.339
		l-1.632,27.063c-0.578,9.592-5.322,74.285-18.258,99.096c-0.825-34.434,2.001-72.071,2.672-108.598
		c0.077-4.227-2.658-9.438-4.644-14.137C224.047,173.299,243.563,143.59,242.597,141.775L242.597,141.775z"/>
	<path fill-rule="evenodd" clip-rule="evenodd" fill="#FFFFFF" d="M172.865,256.414l58.729-123.996l0.125-8.087
		c-3.225-1.613-9.71-15.212-11.352-15.212c-2.204-3.755-6.679-4.809-6.565-8.772c0.071-2.505,0.191-3.761,1.005-5.582
		c0.549-1.225,2.532-7.058,2.88-9.575c2.326-16.902-6.9-23.336-10.566-25.017c-0.655-0.3-19.312,20.499-19.695,20.49
		c0.006,3.342,0.479,3.326,0.479,6.261c-0.326,0.327-2.626,1.884-2.626,2.862c0.58,1.097,0.944,3.357,2.957,3.357
		c0,0.652,2.866,5.304-0.469,5.851c-2.972,0.802-10.12,0.509-15.203,3.885c-6.098,5.324-11.14,17.784-11.98,28.238
		c-3.123,7.492-8.574,18.632-10.631,25.214c-1.699,5.433-4.295,16.041-5.973,21.594c-0.895,2.96-2.932,8.395,0.016,9.352l4.37,1.652
		c0.539,0.768-0.191,3.949,0.151,5.356l1.852,1.122c0.114,2.771,0.22,6.907-0.04,9.623c-0.676,7.042-3.183,12.693-2.356,19.117
		c-1.442,5.243-2.154,10.31-1.831,14.914c0.289,1.424,1.607,8.775,5.196,12.788c0.795,1.06,3.788,2.999,5.917,4.211L172.865,256.414
		L172.865,256.414z"/>
	<path fill-rule="evenodd" clip-rule="evenodd" d="M233.929,132.172c-2.331-2.564-2.399-3.278-2.399-4.974
		c-6.521-4.238-8.703-13.292-13.635-17.812c-3.111-2.851-5.57-4.137-6.316-5.926c-0.551-1.32-0.396-2.277-0.313-4.307
		c0.046-1.127,0.128-1.737,0.678-3.388c0.654-1.787,1.848-5.586,2.256-7.11c1.6-5.981,0.837-7.692,0.67-8.577l-16.156-5.25
		c-3.179-1.033-7.829,2.508-7.989,2.737c-1.642,2.35-1.018,14.732,1.805,19.253c0.215,0.345-0.371,1.351-0.371,2.025
		c-1.166,3-2.409,2.039-6.566,2.768c-4.717,0.828-11.657,1.474-14.164,5.584c-3.047,4.995-4.265,7.142-6.177,12.774
		c-1.306,3.849-2.351,8.714-2.224,11.539l-8.204,18.687c-3.286,7.488-6.909,23.082-7.374,24.332
		c-0.652,1.746-3.022,10.387-1.161,10.646c1.451,0.201,2.928,1.369,5.071,1.25c-0.585,1.9-0.426,3.349-0.226,5.422
		c0.06,0.62,1.378,0.503,1.431,1.16c0.402,5.032,0.877,11.286-0.379,16.453c-0.952,3.918-0.865,5.129-1.772,9.058
		c-0.074,0.317,0.268,5.383,0.171,5.693c-1.537,4.921-2.934,15.325-0.326,20.217c0.4,1.202,1.322,3.789,1.967,4.75
		c2.11,3.14,4.795,3.542,6.357,4.607c-0.368,10.422-2.098,26.134-3.071,38.985c-0.072,0.948-1.448,1.779-1.448,2.727
		c0.084,0.631-0.25,4.63-0.468,8.026l68.051-4.073c-0.608-3.226,0.253-5.551-2.988-6.465c-3.251-0.918-5.323-1.665-6.767-2.95
		c-2.064-1.838-2.616-4.442-2.616-8.925c4.564-0.163,9.782-3.748,13.695-3.748c0.326-0.653,1.956-2.283,1.956-2.936
		c0.978-3.261-1.328-13.046-0.652-16.628c4.028-21.348,1.457-52.367,1.79-77.119C226.077,179.89,241.455,136.696,233.929,132.172
		L233.929,132.172z"/>
	<path fill-rule="evenodd" clip-rule="evenodd" fill="#FFFFFF" d="M194.604,160.957c-0.09,0.722-0.436,2.506-2.117,2.001
		c-0.58-0.174-0.828,0.171-1.237,0.588c-0.256,0.262,0.744,0.9,0.466,1.133c-1.408,1.177-2.476,1.484-4.304,2.014
		c-1.336,0.387-1.958-0.373-3.288-0.373c0-0.327-0.175-0.929-0.175-0.929l-0.698-0.662l-1.1-0.638h-0.326l2.32-1.204
		C189.096,161.044,191.688,160.759,194.604,160.957L194.604,160.957z"/>
	<path fill-rule="evenodd" clip-rule="evenodd" fill="#FFFFFF" d="M191.312,167.429c-0.203-1.15,2.827-2.224,2.827-2.6
		c0.196,0,0-0.098,0.196-0.098v-0.098v-0.097c0.097,0,0.194-0.098,0.292-0.196h0.098h0.098c0-0.683,2.755-1.872,3.439-2.556
		c0.292-0.293,1.43-0.694,1.527-0.988c2.05-0.976,4.441-2.804,6.478-1.032c0.208,0.18,1.661,0.976,1.953,0.976v0.391
		c-0.098,0-0.195,0.195-0.292,0.292c-0.782,0-1.661,0.488-2.441,0.488c-0.098,0.195-0.294,0.292-0.488,0.292
		c-0.195,0.391-2.538,2.051-3.027,2.344c-0.097,0.097-0.292,0.39-0.488,0.39l-0.098,0.098c0,0.098-0.098,0.293-0.195,0.293
		c0,0.098-0.098,0.294-0.098,0.391l-0.195,0.098c0,0.293-0.098,1.172-0.195,1.562c-0.098,0.391-0.781,0.879-0.976,1.269
		c-0.488,0.977-0.586,2.344-0.976,3.222c-0.196,0-0.586,0.098-0.781,0.098v-0.195v-0.195c0,0-0.294-0.391-0.294-0.586
		c-0.097-0.098-0.488-0.586-0.683-0.586c0-0.098-0.098-0.195-0.098-0.293c0,0-0.195-0.195-0.292-0.195
		c0-0.489-1.074-1.172-1.367-1.66c-0.391,0-0.977,0.292-1.269,0.292c-0.098,0.196-0.391,0.488-0.587,0.684h-0.096h-0.098
		c-0.878,0.878-4.1,1.074-5.272,1.074c-0.488-1.074,2.148-1.855,2.831-1.855C190.939,168.064,191.947,167.966,191.312,167.429
		L191.312,167.429z"/>
	<path fill-rule="evenodd" clip-rule="evenodd" fill="#FFFFFF" d="M238.482,168.646c-0.536,0.191-3.61-0.069-5.079-0.156
		c-0.845-0.05-1.752,0.68-1.801,0.725c-1.007,0.924-1.147,2.152-1.171,3.098c-0.063,2.415,2.112,4.124,4.426,3.852
		C237.74,175.826,239.373,173.418,238.482,168.646L238.482,168.646z"/>
	<path fill-rule="evenodd" clip-rule="evenodd" fill="#FFFFFF" d="M228.35,150.685c3.425,1.142,8.416-1.076,10.698-1.076
		c0,0,3.16,2.543,3.16,2.869c6.918,1.34,3.504-6.97-2.508-7.657l1.272-96.709c-0.604-2.098-1.558-4.468-2.911-6.568
		c-1.299,2.126-2.475,4.479-3.027,6.605l-1.722,95.088c1.753,0.141,3.014,1.07,2.805,1.044c-4.157,1.461-5.757,0.832-7.79,2.341
		c-1.581,1.175-2.5,2.912-2.008,5.499L228.35,150.685L228.35,150.685z"/>
	<path fill-rule="evenodd" clip-rule="evenodd" fill="#FFFFFF" d="M210.574,104.125c0.494,0.314,1.47,2.054,1.841,2.054
		c0,0.07,0.143,0.212,0.755,0.721c0.57,0.309,1.005,0.362,1.005,1.122c1.172,0.39,1.048,1.857,2.318,2.345
		c0.292,0.684,0.975,1.367,0.78,2.149c-0.195,0-3.111-0.889-3.208-0.694c-2.421,0-3.451-0.586-4.341-2.598
		C209.394,107.567,211.434,105.353,210.574,104.125L210.574,104.125z"/>
	<path fill-rule="evenodd" clip-rule="evenodd" fill="#FFFFFF" d="M194.821,106.063c-3.422,1.613-0.44,0.797-1.038,1.395
		c0,0.7-0.37,1.03-0.904,1.175c0.257,0.088,0.514,0.174,0.772,0.258c3.19,1.063,4.083,1.712,7.514,1.858
		c1.767,0.075,2.991,0.555,4.727,0.692c0.513-0.095,1.021-0.216,1.522-0.373c0-1.123-3.085-3.055-4.574-3.779
		c-0.127,0.002-0.253,0.003-0.38,0.005c-3.067,0.032-4.657-0.6-7.464-1.193C194.937,106.088,194.879,106.076,194.821,106.063
		L194.821,106.063z"/>
	<path fill-rule="evenodd" clip-rule="evenodd" fill="#FFFFFF" d="M188.105,103.418c0,0.098,0.196,0.195,0.196,0.293h0.097h0.098
		c0.443,0.442,0.493,0.419,1.052,0.645c0.233,0.093,0.467,0.182,0.702,0.277c-0.002,0.435-0.012,0.918-0.07,1.262
		c-0.686,0-2.057,0.367-2.81,0.466c-1.189,0.156-2.071-0.266-3.541-0.604c-0.227-0.144-0.452-0.292-0.675-0.443
		c-0.503-0.342-0.506-0.421-0.982-0.795l1.36-0.547C184.576,103.732,186.714,103.418,188.105,103.418L188.105,103.418z"/>
	<path fill-rule="evenodd" clip-rule="evenodd" fill="#FFFFFF" d="M170.393,250.574v0.986c-0.658,0-1.316,0.987-1.316,1.644
		c-0.657,0-0.657,1.317-1.315,1.317c0,3.947,0.986,7.893,0.986,12.168l9.015-1.079c0.329,0,8.416,0.751,8.746,0.751
		c0.329-0.987,0.986-2.302,0.986-3.289c-0.329,0-9.915,1.595-10.572,1.595l-0.618-3.437l-5.443-0.925
		c-1.316-0.657,6.109-12.691,6.438-14.006c0.986,0,1.644-1.316,2.63-1.316c0.987-0.986,1.316-2.96,2.303-3.947
		c0-1.316,0-2.96-0.329-4.277c-0.658,0-1.644-0.327-2.302-0.327c-0.657-0.658-2.301-1.645-2.96-2.303
		c0-1.644-0.986-6.248,1.645-6.248c0.986-0.987,3.288-3.289,3.288-4.605c0.658-0.657-0.347-6.627,1.626-6.627
		c0.329-0.659,1.316-1.645,1.973-2.303h0.329h0.329l0.329-0.329c0-0.658,0.421-0.605,0.421-1.265c0.658,0,0-0.327,0.658-0.327
		v-2.632c-0.329,0-0.987-0.658-1.316-0.987c-2.631,0-1.719,0.987-4.022,0.987c-0.329,0.329-0.986,0.658-1.316,0.985h-2.301
		c0-0.657,0.986-1.314,1.644-1.314c0.365-0.731,1.038-3.525,1.922-3.643c0.329-0.329,1.487-0.789,1.816-1.118
		c0.658,0,1.563-0.473,1.891-0.801c0.658,0,2.922,1.287,3.58,1.287c0,0.329-1.57,2.631-1.57,2.96c0.329,0,4.859,0.658,5.188,0.658
		c1.19-1.19,0.768-4.494-0.329-5.59l-7.538-10.072c1.316,0,5.732-15.516,12.498-7.689c0.329-0.986-7.474,11.007-1.576,12.998
		l4.18-6.419h0.329c0,1.645,1.513-2.472,1.513-0.498c0.329,0,1.95-5.534,2.28-5.205l3.701,2.396c0,1.973-2.89,13.174-4.206,15.476
		c-0.986,0-0.327,0.329-0.986,0.329c0,0.658-0.329,0-0.329,0.987c-0.986,0-5.59,1.973-6.248,2.631c0,0,4.604,1.645,5.591,1.645
		c1.316,1.315,0.986,4.276,2.303,5.262v1.973c-0.987,0.329-1.973,0.329-2.96,0.329l-5.098-6.863l0.276,4.241
		c-1.315,1.316-1.973,2.631-1.973,4.275c0,0,0.658,0.658,0.658,0.986l3.498-3.684c0.329,0.329,2.311,3.677,3.298,3.677v6.577
		c1.645,0,1.645,4.276,1.645,5.263c-0.33,0-0.988,0.328-1.316,0.328c-0.658,0.987-1.645,0.987-2.631,0.987
		c-0.987-1.644-1.934-7.029-1.934-9.331l-2.999,1.437v5.592l0.658,0.328c0,1.317,1.416,4.708,1.416,6.352c0,0-1.65,0.138-1.65,0.467
		c-0.987,0-1.082,0.746-2.068,0.746c0,0.987-1.645,4.605-1.973,4.933c0,0.987,0.563,9.465,0.892,10.122
		c2.943-3.315,4.493-21.492,12.497-18.566c0,0.658,1.082,7.457,1.082,8.116l-0.998,3.144c-0.997,4.984-1.267-1.246-1.878,6.733
		c-0.221,2.887-0.742,6.217-0.742,7.883c0.329,0.329,0.658,0.986,0.986,1.315h0.329h0.33c0,0.328,1.314,0.658,1.644,0.658
		c0,0.329,0.329,0.657,0.658,0.987c2.253,2.121,5.349,3.681,9.537-0.987c0,0-4.904-5.792-4.904-6.122
		c-1.701-8.558,3.801,3.413,2.27-3.884c-0.658-0.658,2.963,6.058,2.963,4.743c1.644,0,0.915-2.041,2.23-2.041
		c0.33-0.327,2.308-0.59,2.965-0.59v-0.987c0.33,0,0.658-0.329,0.987-0.329c0-0.329,0.329-0.986,0.659-1.316
		c0-2.631-2.631-11.511-6.25-11.511c0-2.63,6.888,0.061,7.545-3.228c0.658-3.288,0-5.613,0-8.902
		c-0.329-0.329,0.019-4.314,0.019-4.971c-0.986-0.329-1.973-0.659-2.302-1.316c-0.658,0-1.973-0.328-2.631-0.328
		c0-0.659-0.658-1.316-1.316-1.316c-0.33-0.329-0.658-0.987-1.316-0.987c1.645-3.618,5.591-1.973,5.591-7.563
		c-0.987-0.987-2.959-0.987-4.275-0.987l-0.33-0.66c0-0.327,3.29-2.63,3.947-2.63v-0.986c-0.33,0-0.657-0.328-0.987-0.328
		c-0.329-0.329-0.657-0.987-0.986-1.316l-0.329-5.92c1.972,0,3.618-3.288,4.603-4.604c-0.658-0.329-0.658-0.329-1.315-0.329
		c-0.658-0.658-3.288-0.658-3.288-1.645h0.658h0.657c0.33-0.329,0.987-0.987,1.644-0.987c0-3.946,1.712-8.222,1.712-11.51
		c-0.329-0.329-0.658-0.987-0.986-0.987c0-1.974,0.657-4.276,0.657-6.249c-0.986,0-1.315-2.959-1.315-3.288
		c-0.329,0-0.987-0.329-0.987-0.658c-0.986,0-1.973-0.329-2.96,0v8.55c0.328,0.33,0.658,0.987,0.986,1.316
		c-0.658,0.329-1.316,0.329-1.973,0.329c0-0.987-1.325-1.555-1.325-2.87c-1.316-1.316-2.641-3.618-3.299-4.933
		c-0.029-0.392-4.142-7.351-4.45-7.659c-1.644,0-0.792,1.978-2.437,1.978c-0.329,0.329-0.658,0.658-1.315,0.658
		c-0.987,2.302-1.645,3.947-1.645,6.905c-0.986,0-2.303,0.33-3.289,0.33v0.329v0.329c-2.301,0-4.933,1.316-7.235,1.316
		c0,0.986-0.329,0.329-0.329,0.986l-0.658,0.329c0,0.657-0.329,1.316-0.329,1.974l-10.853,0.658
		c-0.329,0.658-1.315,2.302-0.986,3.289l0.329,0.329h1.315c0,0.657,0.658,1.316,0.986,1.644c0,2.96-1.973,5.92-1.973,8.552
		c-0.658,0-0.986,0.986-1.316,0.986c0,1.316-3.189,3.318-3.618,4.604c-1.383,4.15,0.55,2.451,3.782,4.584
		c0.04,1.172-1.269,7.527-4.111,7.256l-0.329,0.657l-0.329,0.33l-0.658,0.33v0.657l-0.657,0.33v0.985
		c1.644,1.644,1.973,3.288,1.973,5.262l-2.302,2.632v0.985c0.986,0.987,0.658,3.618,0.658,5.263c-0.329,0-0.987,0.657-0.987,0.986
		c-1.644,0-2.151,2.303-2.151,3.947c5.198,1.314,1.809,5.269,3.589,7.243C173.706,243.708,171.569,252.025,170.393,250.574
		L170.393,250.574z"/>
	<path fill-rule="evenodd" clip-rule="evenodd" fill="#FFFFFF" d="M204.352,115.886c-4.967-1.391-10.942-3.786-11.298-4.084
		c-1.139,0.835-12.829-5.109-16.695-5.109l-0.17,2.725l6.639,2.113c1.957,0,4.506,2.532,5.756,3.282
		c2.017,1.21,0.803,1.147,2.108,3.103c0.977,0,1.63,1.631,2.608,1.631c1.589,2.384,2.032,6.291,4.661,6.318
		c4.444,0.048,10.17-7.088,7.045-8.773C205.576,117.233,203.951,115.788,204.352,115.886L204.352,115.886z"/>
	<path fill-rule="evenodd" clip-rule="evenodd" fill="#FFFFFF" d="M200.801,128.813c-3.446,0.405,4.255,8.184,8.27,9.413
		l1.069,1.236c1.352,0,1.184-2.027,2.027-2.027c0-0.169,0.169,0.169,1.015-2.704c-0.676-0.675-0.508-0.844-1.69-1.014
		c-0.505-1.182-1.689-2.364-2.872-3.546c1.859,0.845,2.794-4.539,4.839-3.739c1.841,0.72,5.127,5.935,6.647,5.935
		c1.182-1.858,0.676-6.081,0.676-8.445c-0.507-0.507-1.182-1.352-1.858-1.689c0-0.507-0.344-1.508-0.846-1.69
		c-2.51-0.912-1.978,1.72-4.215-0.996c-1.507-1.831-1.756-0.605-2.803,3.299C210.368,125.432,207.814,127.989,200.801,128.813
		L200.801,128.813z"/>
	<path fill-rule="evenodd" clip-rule="evenodd" fill="#FFFFFF" d="M207.084,105.911c-1.63,0.225-5.442-0.097-7.257,0.021
		c0.676-0.338-0.157-1.943,0.011-2.617c2.197-0.339,6.334-3.423,8.529-4.769C208.704,99.728,208.714,104.334,207.084,105.911
		L207.084,105.911z"/>
	<path fill-rule="evenodd" clip-rule="evenodd" fill="#FFFFFF" d="M195.541,156.173c-4.292-0.816-10.345,0.033-12.318,0.754
		c-2.281,0.834-1.765,0.932-4.463,0.31c-0.207-0.727-0.104-1.557-0.726-1.971c0-0.726,3.123-1.616,3.443-2.338
		c0.509-1.146,2.06-1.979,2.698-3.112c0.297-0.528,0.072-1.632,0.726-1.867c2.594-0.932,2.11,1.358,4.947,2.324
		c2.043,0.695,3.126,2.711,5.201,3.542c0.312,0.933,0.933,0.933,1.556,1.556L195.541,156.173L195.541,156.173z"/>
	<path fill-rule="evenodd" clip-rule="evenodd" fill="#FFFFFF" d="M180.497,133.718c-0.929-0.337-1.436-1.519-1.098-2.702
		c0.169,0,0.506-0.169,0.676-0.169c0.169-0.169,0.507-0.676,0.507-0.676c0.675,0,1.52-1.351,2.195-1.351
		c2.704-5.574-6.587-4.898-8.614-6.925v-0.507c-2.534-2.533-3.041-6.419-3.041-10.135c0.507-0.168,2.027-0.168,2.534,0
		c0.338,0,0.845,1.014,1.183,1.183c0.337,0.169,1.367,1.08,1.688,1.182c3.411,1.085,4.072,2.03,6.99,3.635
		c0.468,0.257,0.923,2.217,1.43,2.386c0.169,2.365,5.769,2.424,5.769,5.127c-0.169,0-0.338,0.506-0.507,0.675
		c-3.171,0.309-5.027,3.899-4.582,5.192c-0.338,0-0.316,1.226-0.485,1.396C183.791,132.03,182.271,132.874,180.497,133.718
		L180.497,133.718z"/>
	<path fill-rule="evenodd" clip-rule="evenodd" fill="#FFFFFF" d="M209.12,290.15l0.033,0.081c-0.078,0-0.156-0.078-0.233-0.155
		c-0.233,0-0.467-0.077-0.699-0.077c-0.621-0.622-0.931-1.398-1.397-1.864c0-0.155-0.078-0.389-0.078-0.543
		c-0.543,0-1.397-0.078-1.785-0.156c0-0.157,0.232-0.233,0.31-0.311l0.086-5.305c-1.616,0.09-3.26,0.021-4.558,1.081
		c-3.994,3.605-5.802,5.182-5.042,11.011c5.592-0.316,15.688,3.256,22.06,1.595c0.252-1.44-2.983-1.125-6.165-3.084
		C210.505,291.719,209.649,290.883,209.12,290.15L209.12,290.15z"/>
	<path fill-rule="evenodd" clip-rule="evenodd" fill="#FFFFFF" d="M160.101,292.117c2.429-0.972,6.366-5.785,8.701-8.12
		c1.994-0.168,3.817-0.17,4.277-0.169c0.755,0.077,1.953,3.02,7.168,2.493c-0.453,3.489,2.104,7.703-3.657,7.262
		c-5.496-0.42-15.416,3.259-17.453,1.899C158.185,294.987,158.254,293.097,160.101,292.117L160.101,292.117z"/>
	<path fill-rule="evenodd" clip-rule="evenodd" fill="#FFFFFF" d="M160.158,267.597c0.208-0.064-0.329,1.943-0.302,2.406
		c0.905,0.621,1.975,1.087,2.901,1.313l0.546-3.413c1.304-4.565,2.608-11.086,3.26-16.304c1.305-9.781,0.335-20.213,1.631-29.996
		c2.29-17.28,2.948-36.18,3.918-52.977l-0.793-42.09l-2.097-8.489c-0.643,1.217-0.816,2.778-1.38,3.397l-0.991,1.662
		c-5.217,12.39-0.287,26.438-6.482,38.176c-1.304,2.934-0.978,5.543,0,8.151c0,3.588-0.978,11.739-3.261,14.673l0.652,0.326
		c0,6.195-1.305,12.064-1.305,18.26c0.326,0,0.652,0.325,0.979,0.651c-0.326,0.978-4.239,7.173-2.282,7.173
		c0,4.239-1.63,8.804-1.63,13.042c0.652,1.631-0.979,5.218-1.304,6.521c0.326,0.326,1.304,0.652,1.956,0.652v1.957
		c-0.652,0.652-1.305,1.304-1.305,2.608l0.653,0.652v0.979c-0.326,0.326-0.979,1.303-1.304,1.63v0.977h0.978l-0.327,7.499
		c0.653,0.652,2.61,2.935,2.61,3.588c0.326,0,0.977,0.325,1.63,0.325l0.652-0.651c1.121-1.478,0.026-1.806,0.026-3.341
		c0.768-0.987,0.768-1.973,0.768-3.29c-0.329-0.109-0.768-0.439-1.096-0.439c1.424-1.972,1.315-4.274,1.863-6.906
		c0.219-1.205,0-3.069-0.329-4.055c-0.438-1.207,0.658-2.413-0.219-3.947h-0.986c0.219-0.329,0.549-0.657,0.877-0.767
		c0.548-1.864,1.754-6.248,1.206-8.222c-1.863-0.328,0.987-1.645,1.317-1.973l-0.11-3.399c-0.219,0-0.329-0.109-0.439-0.109
		c-0.109-0.329-0.329-0.658-0.548-0.768c0.329-0.768,0.877-2.304,0.877-3.18c0.11,0-0.219-4.385-0.109-4.385l0.439-1.754
		l0.767-2.521c0.219-0.658-0.438-0.877-1.097-1.097c0.439-0.11,0.768-0.438,1.097-0.548l0.329-6.687h-0.657h-0.219
		c0-0.438,0.986-0.548,1.315-1.316c0.548-1.206,0.11-3.617,0.11-4.933l-0.657-0.438c0-2.521,1.096-5.042,0.547-7.454
		c0.658-0.658,0.658-2.083,0.658-2.961c-0.11,0-0.219-0.11-0.329-0.11c0-0.438,0.438-0.877,0.438-1.425l-0.292,0.378l0.652-4.05
		c1.679-10.426,0.805-17.104,3.261-26.925c1.131-4.529-0.978-12.879,1.63-16.792c0,13.368-0.529,27.884-1.181,41.253l-4.403,65.641
		C163.261,240.27,161.785,259.011,160.158,267.597L160.158,267.597z"/>
	<path fill-rule="evenodd" clip-rule="evenodd" fill="#FFFFFF" d="M148.48,181.028c0.364-1.583,2.412-2.863,4.532-4.357
		c-0.031,1.654-0.009,4.467-0.399,6.373C152.092,185.592,147.267,183.772,148.48,181.028L148.48,181.028z"/>
	<path fill-rule="evenodd" clip-rule="evenodd" fill="#FFFFFF" d="M152.535,174.646c-2.013,1.726-2.128,0.921-2.128,0.921v0.575
		l-0.287,0.288c-0.288,0-1.035,1.091-1.323,1.091c0-2.587,0.575-5.163,2.587-7.176c0.481-4.473,2.78-14.223,5.463-20.104
		c0-2.013,3.449-7.217,3.449-8.942c2.012,8.337-6.324,22.423-6.324,31.048l-0.575,0.287c0,0.288-0.287,0.862-0.287,1.15
		L152.535,174.646L152.535,174.646z"/>
	<path fill-rule="evenodd" clip-rule="evenodd" fill="#FFFFFF" d="M159.58,273.224c-0.547,3.9-1.623,9.313-0.8,9.107
		c0.23-0.229,1.694-3.064,2.568-4.849c-0.251-0.977-0.377-2.167-0.377-2.669L159.58,273.224L159.58,273.224z"/>
	<path fill-rule="evenodd" clip-rule="evenodd" fill="#FFFFFF" d="M209.294,269.644c3.307-0.072,4.232-1.336,7.304-2.48
		c3.463-1.29,5.876-0.016,6.889,0.779c-0.711,2.42-0.187,3.071-1.788,4.822c-1.73-0.65-3.326-1.047-5.798-0.682
		c-2.187,0.325-4.21,1.763-6.607,2.062V269.644L209.294,269.644z"/>
	<path fill-rule="evenodd" clip-rule="evenodd" fill="#FFFFFF" d="M169.106,270.125h0.104c1.295,0,4.391-1.175,6.629-1.095
		c1.579,0.055,2.868,0.636,4.426,0.915v4.28c-1.791-0.296-2.821-0.914-4.357-0.996c-3.393-0.178-5.235,0.531-7.142,0.852
		C169.156,272.448,168.932,271.049,169.106,270.125L169.106,270.125z"/>
	<path fill-rule="evenodd" clip-rule="evenodd" fill="#FFFFFF" d="M183.808,269.943c1.012-0.169,1.741-0.492,3.079-1.065
		c2.242-0.971,4.86-0.815,7.352-1.19c2.478-0.374,4.025-1.793,6.606-0.671c2.709,1.178,3.967,2.277,6.713,2.561v4.683
		c-1.355,0.028-2.712-0.079-4.03-0.401c-1.712-0.42-3.22-1.071-5.1-1.373c-1.826-0.294-4.475-0.245-8.697,0.651
		c-2.083,0.443-3.986,0.957-5.922,1.157V269.943L183.808,269.943z"/>
	<path fill-rule="evenodd" clip-rule="evenodd" fill="#FFFFFF" d="M222.98,132.536c0,4.054,5.233,5.181,8.612,5.181
		c0.506-1.689-0.507-4.56-0.846-6.418C229.923,131.894,225.671,131.19,222.98,132.536L222.98,132.536z"/>
	<polygon fill-rule="evenodd" clip-rule="evenodd" points="96.499,77.374 96.499,66.386 87.092,57.465 87.092,93.424 
		96.499,102.335 96.499,90.241 137.101,128.077 139.847,125.213 143.615,121.283 96.499,77.374 	"/>
	<path fill-rule="evenodd" clip-rule="evenodd" d="M228.606,32.639h-7.501l-9.52,9.82l3.993,3.773l-6.146,6.407l-29.607-27.61h56.08
		L228.606,32.639L228.606,32.639z M207.152,38.278l5.466-5.639h-11.441L207.152,38.278L207.152,38.278z"/>
	<path fill-rule="evenodd" clip-rule="evenodd" d="M176.684,86.793L110.55,25.029h34.943c0.749,0,1.235,0.074,1.879,0.674
		l14.287,13.303c0.925,0.862,0.837,5.302-0.459,8.855l37.381,15.102l-40.68-37.935h13.798l33.898,31.61l-13.344,13.917
		L158.47,56.908l24.727,23.093L176.684,86.793L176.684,86.793z M142.942,34.439h-8.53l15.691,14.655l3.088-4.196
		c0.259-0.352-0.072-0.952-0.391-1.251L142.942,34.439L142.942,34.439z"/>
	<polygon fill-rule="evenodd" clip-rule="evenodd" points="87.092,98.965 87.092,111.831 121.717,144.121 123.321,142.449 
		128.231,137.328 87.092,98.965 	"/>
	<polygon fill-rule="evenodd" clip-rule="evenodd" points="87.092,118.376 87.092,131.242 101.067,144.275 87.092,146.74 
		87.092,156.294 114.716,151.424 118.405,147.576 87.092,118.376 	"/>
	<path fill-rule="evenodd" clip-rule="evenodd" d="M87.092,25.029h13.304l71.53,66.726l-4.895,5.104l-15.007,15.652L87.092,51.94
		V25.029L87.092,25.029z M151.651,99.295l6.908-7.141l-61.87-57.714h-0.19v13.408L151.651,99.295L151.651,99.295z"/>
	<polygon fill-rule="evenodd" clip-rule="evenodd" points="87.092,161.248 87.092,180.235 109.185,157.192 87.092,161.248 	"/>
	<path fill-rule="evenodd" clip-rule="evenodd" fill="#FFFFFF" d="M126.062,320.937c1.526,1.882,3.103,3.751,4.725,5.604
		l123.528-13.257l-7.865-13.764l-65.015-4.305l-23.124,2.902L126.062,320.937L126.062,320.937z"/>
	<path fill-rule="evenodd" clip-rule="evenodd" fill="#FFFFFF" d="M129.863,325.484c3.57,4.137,7.383,8.193,11.444,12.159
		l122.839-10.442l-6.461-16.572l-76.913-3.462l-26.966,2.864L129.863,325.484L129.863,325.484z"/>
	<path fill-rule="evenodd" clip-rule="evenodd" fill="#FFFFFF" d="M255.486,339.543c4.653-4.421,8.979-8.965,13.008-13.604
		l-83.275-2.511l-36.684,2.886l-11.638,6.889c3.326,3.46,6.837,6.854,10.537,10.176L255.486,339.543L255.486,339.543z"/>
	<path fill-rule="evenodd" clip-rule="evenodd" d="M199.378,378.059c27.096-13.349,48.335-29.559,64.872-47.381l-78.186-1.845
		l-38.589,3.196l-7.527,4.28C155.631,351.914,175.165,366.129,199.378,378.059L199.378,378.059z"/>
	<path fill="none" stroke="#000000" stroke-width="6.4922" stroke-miterlimit="2.6131" d="M153.802,310.032l-2.448,16.045
		 M158.121,298.432l-0.742,10.97 M181.664,295.369l0.883,11.92 M180.802,307.296l1.867,16.505 M185.115,323.43l0.831,6.128
		 M148.476,326.383l-1.252,7.531"/>
	<path fill-rule="evenodd" clip-rule="evenodd" d="M299.871,166.196c-2.743-2.524-7.145-3.964-11.279-3.984
		c-5.105-0.025-9.891,2.417-12.534,6.881c-3.416,5.77-2.724,13.8-2.844,20.849l-0.012,35.523c-0.003,9.847,2.54,21.42,14.724,22.03
		c8.37,0.418,13.206-4.889,14.594-12.553c0.607-3.342,0.693-7.176,0.251-11.135c1.008-1.712,8.237-10.921,4.977-12.252
		c-0.841-0.343-2.287,0.493-3.775,2.971c0.04-2.644,0.764-7.189,4.374-6.955c6.553,0.425,1.381,12.048,0.059,14.636
		c1.49,0.451,3.278,2.558,1.639,5.717c-0.584-1.554-2.318-3.221-3.487-2.197c-0.147,6.619-0.717,12.091-2.484,16.079
		c-2.986,6.731-8.149,9.701-17.219,9.645c-13.059-0.081-22.168-11.74-22.155-26.855l0.032-36.048
		c0.009-9.091,0.913-18.309,6.311-24.609c4.139-4.832,10.595-7.345,16.868-7.435c3.283-0.046,8.436,0.807,9.231-3.61
		c0.868-4.824-0.145-8.74,1.679-13.769c0.974-2.684,3.284-4.839,6.106-4.137c2.96,0.737,4.181,6.167,0.253,13.179
		c-1.798,3.209-5.002,8.56-8.272,10.285c2.682,1.996,6.228,3.261,8.487,8.844c1.349,3.335,4.664-0.298,3.453-3.457
		c5.346,2.929,2.724,12.069-2.684,11.032c-1.22,2.746-3.253,4.467-5.593,4.621c-5.151,0.341-8.919-6.308-4.143-9.605
		c-0.087,1.941,1.676,4.78,3.913,4.248C304.278,173.198,301.804,167.976,299.871,166.196L299.871,166.196z"/>
	<path fill-rule="evenodd" clip-rule="evenodd" d="M274.324,202.79c3.709,2.726,8.848-0.15,4.014-3.759
		c-1.323-0.989-3.217-1.97-5.513-2.711c-1.407-0.453-2.862-0.727-4.286-0.769c-7.071-0.206-9.705,5.806-10.06,12.311
		c-0.146,2.666,0.682,6.199,2.207,8.807c1.705,2.915,4.305,5.49,7.39,7.879c8.482,6.57,18.478,9.733,24.402,19.3
		c3.103,5.013,4.658,11.051,4.607,17.857c-0.124,15.98-12.914,27.675-27.793,27.889c-7.661,0.11-14.846-3.319-19.277-8.939
		c-2.659-3.374-4.338-7.534-4.509-12.192c-0.286-7.775,2.357-10.031,3.169-13.925c-0.188-2.758-2.8-5.709-6.383-4.853
		c0.962-5.835,7.751-5.048,9.413-2.557c8.593-4.488,14.097,0.616,14.221,1.779c-5.546-0.209-7.408,1.634-7.777,3.408
		c6.07,2.105,6.005,11.075-0.692,13.828c0.628-3.506-1.183-7.112-3.087-7.027c-2.543,0.11-3.519,4.863-3.779,6.709
		c-0.57,4.07,0.381,7.918,2.479,11.074c3.657,5.5,9.616,7.814,15.06,7.872c15.043,0.16,20.425-14.803,20.488-26.011
		c0.026-4.681-0.586-9.186-2.394-13.202c-3.051-6.785-8.722-10.161-15.146-13.286c-10.737-5.222-20.864-10.644-19.795-24.299
		c0.772-9.879,8.547-16.805,18.416-16.395c4.867,0.2,9.257,2.025,13.419,4.348c5.204,2.904,4.94-1.566,2.634-5.603
		c6.61,1.202,9.098,10.337,2.316,13.465c0.98,6.087-1.264,11.207-7.761,12.677c2.061-3.57,2.537-6.496,0.767-8.626
		C277.689,209.163,273.494,207.064,274.324,202.79L274.324,202.79z"/>
	<path fill-rule="evenodd" clip-rule="evenodd" fill="#FFFFFF" d="M250.441,162.37c-0.13-8.814-0.726-15.689-2.353-20.764
		l-5.948-2.15l-0.004,2.333l4.322,1.522c1.055,4.539,1.598,10.916,1.72,18.818L250.441,162.37L250.441,162.37z"/>
	<path fill-rule="evenodd" clip-rule="evenodd" fill="#FFFFFF" d="M231.725,279.34c4.525-17.679,8.386-46.99,10.573-76.305
		c1.632-21.848,2.6-40.9,3.046-48.322c-0.503,0.396-0.825,0.517-1.591,0.994c-0.424,4.494-2.011,17.342-4.981,22.171
		C237.992,209.636,235.532,237.144,231.725,279.34L231.725,279.34z"/>
	<path fill-rule="evenodd" clip-rule="evenodd" fill="#FFFFFF" d="M194.626,96.442c1.493,0.379,3.859,0.912,5.525-0.533
		c0.768-0.666,1.318-1.579,1.991-2.71c0.092-0.155,0.63-1.581,1.272-2.344c0.518-0.616,2.35-2.868,2.787-3.787
		c1.117-2.347,1.513-3.093,1.647-4.904c-0.091,0.016,0.108-1.07-0.013-1.204c-0.592-0.363-0.993-1.007-1.666-0.813
		c-1.109,0.32-0.546,1.375-2.183,1.675c-1.208,0.221-2.905,0.438-3.913-0.349c-2.31-1.803-1.639-1.998-3.399-0.596
		c-0.784,0.624-2.418,0.572-3.09,0.512c-0.826-0.073-1.513-1.179-2.129-0.731c-0.197,3.739-0.595,6,0.62,9.847
		c0.432,1.368,0.477,2.705,0.938,3.926C193.385,95.412,193.645,96.193,194.626,96.442L194.626,96.442z"/>
	<path fill-rule="evenodd" clip-rule="evenodd" d="M190.078,79.572c-0.07-0.033-0.262-0.176-0.326-0.245
		c0.057-1.098,0.368-1.929,0.429-3.111c0.026-0.763,0.5-1.136,0.506-1.254l0.132-0.382c1.548-6.158,6.904-11.53,14.712-12.351
		c5.886,2.286,9.429,9.891,10,15.764c0.305,3.123-0.201,6.309-0.698,8c-4.521-0.237-3.311-6.318-13.064-7.924l-0.733,2.181
		l-0.844,7.196l-6.398-0.459c0.581-1.701,0.916-6.239,0.682-6.69l1.641-3.395C193.002,76.738,193.149,78.295,190.078,79.572
		L190.078,79.572z"/>
	<path fill-rule="evenodd" clip-rule="evenodd" d="M200.644,91.489c-0.197,0.561-0.362,0.634-0.372,0.916
		c-0.133-0.006-0.737,0.485-0.805,0.55c-0.399-0.014-1.73-0.06-1.873,0.201c-0.864-0.03-1.973-0.223-2.764-0.45
		c0.002-0.066-0.062-0.135-0.126-0.204c-0.267-0.009-0.483-0.295-0.816-0.307l-0.128-0.137c0.013-0.399-0.042-0.363-0.364-0.707
		c-0.598-0.02-0.592,0.079-0.864,0.134c-2.731,0.57-5.941-1.378-5.72-1.99c2.704-0.455,4.646-3.963,9.349-4.023
		c1.084-0.014,2.11,0.276,3.554,0.566c1.544,1.012,6.012,3.366,9.096,5.665C207.651,92.249,202.265,92.609,200.644,91.489
		L200.644,91.489z"/>
	<path fill-rule="evenodd" clip-rule="evenodd" fill="#FFFFFF" d="M207.974,73.285c-0.203-0.013-0.398-0.09-0.393-0.224l-0.199-0.01
		c0,0-0.125-0.14-0.122-0.207c-0.333-0.017-0.493-0.509-0.826-0.526c0.003-0.066-0.124-0.207-0.124-0.207l-0.132-0.007
		c-0.926-0.049-1.934,0.036-2.64-0.593c-0.248-0.221-0.318-0.284-0.584-0.503c-0.026-0.547-0.024-1.059,0.025-1.502
		c0.081-0.739,0.256-1.278,0.294-2.014c0.62-0.558,1.341-0.818,1.645-1.501c0.253-0.567,1.1-1.054,1.419-1.53
		c4.843,3.067,6.501,8.017,6.171,11.945C210.67,74.643,210.166,74.2,207.974,73.285L207.974,73.285z M197.332,67.399
		c-1.518,0.614-3.814,3.062-4.547,5.22c0.387-0.611,3.308-1.553,3.762-1.612c0.032-0.59-0.388-0.119-0.356-0.708
		c0.201-0.088-0.391-0.454-0.282-0.645c0.197,0.01,0.327-0.031,0.43-0.123l0.006-0.099l0.005-0.098
		c-0.093-0.103-0.284-0.212-0.274-0.408c0.098,0.006,0.3-0.083,0.398-0.077c0.01-0.197,0.119-0.388,0.129-0.584L197.332,67.399
		L197.332,67.399z M206.012,74.162c-0.015,0.029-0.274-0.118-0.408-0.125l-0.059-0.136c-0.598-0.031-1.115-0.4-1.725-0.157
		c-0.277,0.111-0.927-0.115-1.116-0.325l-0.2-0.01c-0.441-0.49-1.299-0.669-1.963-0.703c-0.178-0.302-3.75-0.136-4.029,0.239
		l-0.532-0.028c-0.074,0.13-0.729,0.303-0.868,0.429l-1.576,0.447c0,0-0.07,0.062-0.136,0.059c-0.004,0.066-0.144,0.192-0.144,0.192
		l-0.459,0.171c-0.735,0.662-0.879,0.412-1.214,1.105c-0.078,0.329-0.034,0.291-0.088,0.553c-0.032,0.158-0.173,0.593-0.198,0.733
		c-0.084,0.468-0.148,0.783-0.173,1.262c1.42-1.005,1.902-1.525,3.865-1.752c0.12-0.013,0.174-0.191,0.3-0.196
		c0.127-0.005,0.257-0.007,0.389-0.005c0.165-0.321,0.687-0.145,0.834-0.438c0.278-0.562,0.299-1.19,0.844-1.656
		c0.181-0.154,0.544-0.21,0.708-0.348c-1.759,3.34-2.096,7.48-2.55,11.165l3.152,0.349c0.655-4.06,1.013-7.317,1.614-11.385
		c0.007,0.002,0.496,0.283,0.535,0.695c0.031,0.321-0.048,0.699-0.011,1.064c0.016,0.162,0.165,0.501,0.182,0.646
		c0.048,0.437,0.514,0.439,0.542,0.443c6.4,1.012,7.563,3.364,11.988,6.059c0.226-1.641,0.25-2.278,0.137-3.735
		C211.562,76.81,209.135,75.379,206.012,74.162L206.012,74.162z"/>
	<path fill-rule="evenodd" clip-rule="evenodd" fill="#FFFFFF" d="M194.592,87.071c-0.666,0.133-1.132,0.2-1.598,0.666
		c-0.2,0.2-0.731,0.54-0.997,0.673c-0.399,0.2-2.749,1.068-2.229,1.078l1.373,0.028l1.143-0.105
		c0.266-0.399,1.909-0.072,2.502-0.287c0.139-0.05,0.138-0.855,0.338-0.855l0.266-0.532c-0.199-0.133-0.532-0.4-0.665-0.533
		C194.659,87.204,194.526,87.138,194.592,87.071L194.592,87.071z M199.977,87.87c-1.331,0.2-1.803,0.388-1.803,1.787
		c1.864,0.133,4.277,1.312,7.097,0.924c-0.066-0.267-2.45-1.078-2.916-1.078c-0.303-0.451-0.514-0.76-0.514-0.502
		C201.175,89,200.51,88.07,199.977,87.87L199.977,87.87z"/>
	<path fill="none" stroke="#000000" stroke-width="1.9531" stroke-miterlimit="2.6131" d="M199.378,378.059
		c95.931-47.262,118.51-130.373,118.51-194.037 M317.888,184.021V18.804H80.867v165.217 M80.867,184.021
		c0,63.665,22.58,146.775,118.511,194.037"/>
	<path fill="none" stroke="#000000" stroke-width="3.6357" stroke-miterlimit="2.6131" d="M201.007,167.312
		c6.659,12.63,13.647,25.015,21.454,36.303 M198.364,170.984c7.852,15.115,16.086,30.032,25.533,43.305 M204.282,165.303
		c6.26,11.854,12.815,23.483,20.07,34.182 M193.66,172.088c8.377,16.123,17.188,32.02,27.439,45.936 M186.169,177.895
		c7.853,15.115,27.878,46.146,38.798,61.496 M180.885,178.301c8.376,16.123,31.618,51.736,41.871,65.652 M189.014,173.423
		c8.377,16.123,25.724,44.215,35.978,58.132 M177.261,181.346c8.688,16.123,36.083,57.472,45.935,71.389 M215.179,168.818
		c3.124,5.642,6.343,11.185,9.702,16.548 M177.287,188.883c7.776,16.123,33.224,54.4,44.302,68.319 M208.271,164.418
		c5.047,9.579,10.28,19.02,15.914,27.954 M174.409,192.689c10.639,19.817,36.116,56.663,45.184,70.551 M217.733,165.568
		c3.124,5.642,6.344,11.185,9.703,16.548 M172.71,198.722c8.377,16.123,33.11,52.634,43.363,66.551 M171.861,206.812
		c9.895,17.742,30.972,48.002,40.264,60.479 M170.716,214.25c5.83,10.321,24.751,36.647,33.74,50.402 M170.31,221.913
		c3.92,7.027,18.434,26.622,23.551,35.289 M169.435,227.45c3.741,6.778,8.526,13.01,12.892,20.671 M168.633,233.746
		c5.509,9.765,12.478,20.375,19.907,32.221 M170.072,244.245c4.135,7.047,9.264,15.356,14.483,23.558 M168.417,250.345
		c3.312,5.508,7.095,11.571,10.971,17.628 M167.644,257.75c1.934,3.139,3.899,6.299,5.853,9.419 M185.478,176.26
		c-3.057,3.407-6.169,6.711-9.349,9.879 M209.767,161.48c-9.892,12.022-25.828,29.558-37.682,41.8 M213.795,163.616
		c-11.605,13.828-30.653,34.688-42.438,46.432 M193.988,172.902c-5.458,6.223-11.165,12.506-16.404,18.036 M216.41,167.378
		c-12.017,13.932-32.43,36.653-44.847,49.511 M220.758,167.897c-12.896,15.936-38.343,44.182-49.684,54.989 M225.159,176.893
		c-11.62,14.376-43.846,47.541-56.113,59.625 M225.394,183.889c-15.722,17.991-44.099,47.346-54.462,57.222 M223.878,170.96
		c-12.398,15.001-42.226,48.322-54.234,59.204 M224.138,192.113c-15.615,17.077-43.928,45.233-53.017,54.228 M221.154,201.082
		c-9.136,11.938-37.425,38.676-53.588,55.345 M223.824,211.24c-13.78,16.05-46.043,46.085-56.634,56.134 M223.57,217.269
		c-11.049,14.423-37.662,38.483-50.175,50.408 M224.879,202.584c-10.747,14.725-45.36,48.001-58.125,59.676 M225.576,222.276
		c-6.859,8.68-17.564,19.35-27.637,29.081 M188.836,259.467c-3.236,3.103-6.227,5.981-8.783,8.51 M225.421,228.585
		c-8.538,10.199-17.594,19.81-26.782,28.566 M222.1,245.249c-5.984,6.731-12.428,13.754-18.351,20.024 M223.87,250.919
		c-5.263,5.766-10.728,11.607-15.785,16.888 M225.194,235.304c-8.833,10.284-18.524,20.688-26.54,28.327 M172.148,109.501
		c2.602,4.714,8.846,14.641,13.878,22.829 M169.771,113.362c2.601,4.61,7.091,11.498,12.102,19.913 M189.707,147.112
		c2.33,3.851,4.527,7.45,6.4,10.469 M183.295,145.799c2.511,4.125,5.211,8.469,7.963,12.823 M176.998,144.035
		c3.313,5.509,6.242,10.33,10.117,16.386 M176.704,151.28c1.934,3.139,3.9,6.3,5.853,9.419 M179.102,104.783
		c3.84,6.414,8.423,13.455,12.717,20.302 M174.719,106.275c3.732,6.25,8.926,13.946,13.33,20.866 M186.752,108.959
		c2.601,4.714,9.329,15.488,14.361,23.676 M199.305,112.416c5.138,8.405,12.267,19.956,15.386,24.931 M190.112,106.275
		c3.733,6.25,16.753,27.512,21.157,34.433 M199.537,100.592c0.652,1.18,1.926,2.771,3.547,5.528 M204.842,112.585
		c4.547,7.643,10.605,16.967,13.515,21.701 M225.976,128.228c2.648,4.334,5.129,8.374,6.025,9.781 M214.433,113.97
		c-3.982,4.84-8.987,10.488-14.32,16.307 M185.712,145.648c-3.23,3.384-6.356,6.628-9.227,9.594 M218.196,116.056
		c-4.442,5.294-9.976,11.547-15.775,17.909 M190.916,146.366c-4.533,4.803-8.897,9.33-12.698,13.174 M220.012,120.539
		c-4.131,4.789-9.159,10.475-14.485,16.397 M193.854,149.777c-3.145,3.423-6.247,6.768-9.187,9.907 M222.001,124.36
		c-3.884,4.701-8.656,10.205-13.73,15.886 M196.431,153.247c-1.768,1.906-3.519,3.776-5.231,5.587 M185.282,107.882
		c-4.382,4.808-8.797,9.553-12.898,13.865 M189.584,109.794c-4.784,5.171-9.595,10.261-13.993,14.814 M180.945,105.974
		c-2.411,2.64-7.189,7.28-9.481,9.698 M206.215,98.113c-2.221,2.505-4.58,5.135-7.017,7.829 M194.46,111.149
		c-4.671,5.11-9.482,10.299-14.047,15.166 M209.642,99.161c-1.974,2.361-4.091,4.853-6.3,7.417 M198.494,112.155
		c-6.794,7.747-14.033,15.734-20.331,22.397 M209.491,113.233c-3.864,4.239-8.14,8.828-12.513,13.452 M203.4,113.05
		c-3.004,3.391-6.135,6.89-9.28,10.36 M229.268,129.714c-2.134,2.431-4.412,5.002-6.777,7.649 M231.928,132.929
		c-1.724,2.099-3.543,4.298-5.526,6.557 M203.471,98.36c1.224,2.05,3.083,5.183,5.185,8.713 M212.485,115.795
		c2.868,4.776,13.459,21.562,15.307,24.469"/>
	<path fill-rule="evenodd" clip-rule="evenodd" fill="#FFFFFF" d="M232.848,178.252l-3.888,106.072
		c3.499-22.414,5.256-65.668,6.994-106.063C235.306,178.314,234.271,178.562,232.848,178.252L232.848,178.252z"/>
	<path fill-rule="evenodd" clip-rule="evenodd" d="M235.805,197.024c2.981,0.174,6.025,0.543,7.73,0.566
		c5.05,0.068,5.416,11.621-0.839,10.89c-2.342-0.273-5.199-0.762-7.399-1.089C234.644,206.758,235.871,196.87,235.805,197.024
		L235.805,197.024z"/>
	<path fill-rule="evenodd" clip-rule="evenodd" fill="#FFFFFF" d="M238.205,199.413c1.717,0.046,3.334,0.338,4.367,0.351
		c3.727,0.18,4.211,6.893-0.5,6.401c-1.301-0.099-2.844-0.475-4.194-0.639C238.022,202.861,238.094,202.064,238.205,199.413
		L238.205,199.413z"/>
	<path fill-rule="evenodd" clip-rule="evenodd" d="M225.108,187.469c0.753,1.003,0.503,1.003,1.256,1.003
		c0.51,0.437,1.226,1.398,1.504,2.857c0.027,0.148,0.699-1.272,1.428-0.819c0.203,0.126,0.261,0.372-0.276,1.552
		c0.095,0.094-0.949,1.144-0.836,1.287c0.792,0.999,1.946,3.031,1.946,3.909c1.255,0,0,9.288,0,10.292
		c-1.004,1.004-4.017,0.502-5.271,0.502v-2.007c0.25,0,0.753-0.503,0.753-0.753l3.553-0.854l0.462-1.274
		c-0.501-0.503-1.506-1.506-2.008-2.26c-0.251,0-0.502-0.251-0.502-0.251c-0.251-0.251-0.502,0-0.502-0.753
		c-0.251,0-0.502-0.251-0.754-0.251c0-0.251-0.25-0.382-0.501-0.633l-0.252-11.798V187.469L225.108,187.469z"/>
	<path fill-rule="evenodd" clip-rule="evenodd" fill="#FFFFFF" d="M223.213,161.875c1.061,0.268,2.288-1.333,2.394-1.501
		c1.081-3.261,8.289-6.916,10.734-6.916c0.326,0.327,1.629,1.304,2.282,1.304c-0.232,2-0.738,3.021-0.706,4.225l-0.177,1.331
		l-0.747,1.291l0.651,0.652c0.683,0.052,0.105,3.227-0.053,3.683l-3.846,1.381c-3.261,0-8.925,1.832-11.859-0.45
		c-3.158-1.364-3.668-2.131-6.225-4.689c-2.707-0.731-1.715-1.544-5.166-2.518l-1.544-0.992c-1.171-0.585-5.622-3.738-6.73-4.608
		c-1.09-0.411-2.741-1.277-3.394-1.93l-0.962-0.635h-0.326v-1.305h1.304c0.326-0.326,1.63-0.978,2.282-1.304
		c-1.63,0-2.282-2.608-4.564-1.63v1.303h-0.326l-0.285,1.508c0-0.326-2.561-3.021-2.886-3.021c0-0.326,1.214-1.095,0.888-1.095
		c0-1.957-1.63-4.239-1.63-5.543h-1.304c0,0.652,0.326,1.305,0.326,1.957c0.325,0,0.979,0.652,1.305,0.652
		c0,0.652,0.652,1.957,0.326,2.609l-0.326,0.326h-0.652c-0.327-0.652-1.304-1.305-1.63-1.957c-5.833-3.742-3.993-4.576-6.891-6.88
		c0-0.653-0.609-2.903-0.609-3.554l0.326-0.327c2.608,0,3.586,0,5.543,1.957v0.979c0.977,0,0.977,2.282,0.977,2.282
		c0.327,0,0.654-0.326,0.979-0.326v-0.979l-0.326-0.326c-0.979,0-2.61-4.239-2.61-4.891c-0.652,0-1.075-0.758-1.075-1.41
		c0.326,0,0.097-1.524,0.749-1.524c0-1.631,4.565-3.261,6.195-3.261c0,0,0.979,0.979,1.305,0.979c0,1.305,3,3.481,3.326,4.459
		c2.935,0.652,3.716,6.089,6.87,7.262l1.355,1.867c0,0.652,1.492,1.411,1.818,2.063l0.652,0.326c0,0.326,0.326,0.652,0.326,0.979
		c0.978,0,1.63,2.608,2.609,2.608c0,0.325,0.326,0.652,0.326,0.979c1.304,0,1.955,1.956,2.935,1.956
		c0.652,0.978,0.978,2.283,1.957,2.609c0,0.326,0.326,0.652,0.326,0.978c0.325,0,1.723,1.251,2.048,1.251
		C220.305,155.872,223.213,156.958,223.213,161.875L223.213,161.875z M233.907,157.214c-0.461,0.23-1.851,1.642-2.312,1.642v0.808
		c0.809,0.578,0,2.31,0,3.119c0.347,0.116,0.809,0.116,1.156,0.116v-0.116v-0.115c-0.116,0-0.232-0.231-0.347-0.231
		c0-0.115,0.347-0.231,0.347-0.462c0.115,0,0.346-0.231,0.462-0.346c-0.231-0.116-0.578-0.116-0.924-0.116v-0.347h-0.115
		c-0.116-0.115,0.115-0.809,0.115-0.924c0.115,0,0.347-0.116,0.462-0.116c0-0.115,0.115-0.231,0.115-0.346
		c-0.231,0-0.347-0.116-0.462-0.116v-0.346c0.231-0.116,1.636-0.578,1.636-0.924L233.907,157.214L233.907,157.214z M200.13,141.777
		c0.154,0.154,1.33,1.299,1.33,1.44h0.664c0,0,0.221-0.221,0.221-0.333l0.222-0.11c0-0.665-0.332-1.44-0.332-2.106
		c-0.689,0-2.881-2.613-2.881-3.324c-0.443-0.221-0.997-0.221-1.44-0.111c0,0.222,0,0.665-0.332,0.665
		c-0.111,0.222-0.443,0.776-0.776,0.776c-0.351,0.351,0.094,1.33,0.443,1.33h0.111l0.554,0.554
		C197.914,141.224,199.576,141.777,200.13,141.777L200.13,141.777z"/>
</g>
</svg>
