<?xml version="1.0" encoding="utf-8"?>
<!-- Generator: Adobe Illustrator 19.1.0, SVG Export Plug-In . SVG Version: 6.00 Build 0)  -->
<svg version="1.1" id="Layer_1" xmlns="http://www.w3.org/2000/svg" xmlns:xlink="http://www.w3.org/1999/xlink" x="0px" y="0px"
	 viewBox="0 0 160 160" style="enable-background:new 0 0 160 160;" xml:space="preserve">
<style type="text/css">
	.st0{fill:#231F20;}
	.st1{fill-rule:evenodd;clip-rule:evenodd;fill:#231F20;}
</style>
<g>
	<path class="st0" d="M81.5,47.2c6.9,1.9,12,2.8,12,2.8c-2.9-2.9-5.6-6-7.9-8.9c4-5.6,7.1-9.5,7.1-9.5c-4.2,0.9-8.2,2.1-11.8,3.3
		c-3.4-4.9-5.3-8.3-5.3-8.3c-1,3.7-1.5,7.3-1.6,10.8c-5.7,2.2-9.2,4-9.2,4c3.1,1.4,6.3,2.6,9.4,3.6c0.5,6.6,1.8,11.2,1.8,11.2
		C77.7,53.1,79.6,50.1,81.5,47.2"/>
	<path class="st0" d="M112.8,45.5c-0.9,1.5-2.4,2.5-4,3.2c-0.2-4.7-0.9-8.8-0.9-8.8c-1.4,3.9-2.9,7.3-4.4,10.2c-5,0.6-10-0.1-10-0.1
		c2.7,3.3,4.8,5.2,6.5,6.5c-2.6,4.3-4.4,6.6-4.4,6.6c3.6-0.8,6.4-2.2,8.7-3.8c0.9,0.6,1.7,1.3,2.5,2.5c0,0,1.5-2.1,2-6.8
		C112.3,50.3,112.8,45.5,112.8,45.5"/>
	<path class="st0" d="M111.2,32.5c-1.6-3.6-3.9-6.3-6.4-8.4c-2.2-4.5-4.6-6.6-4.6-6.6c0.2,1,0,2.2-0.3,3.4c-5.4-2.7-10.2-3-10.2-3
		c3.1,2,5.9,4.6,8.2,7.2c-2.2,3.6-5.1,6.6-5.1,6.6c3.8-0.9,6.9-1.2,9.3-1.3c3.8,5.2,5.8,9.5,5.8,9.5c0.1-3.5-0.3-6.6-0.9-9.2
		C110.2,31.3,111.2,32.5,111.2,32.5"/>
	<path class="st0" d="M89.5,17.9c-2.6-1.3-5.1-2.2-7.4-2.8c2.9-2.5,5.7-3.1,5.7-3.1c-4.7-0.2-8.8,0.7-12.2,2
		c-5.1-0.4-8.3,0.5-8.3,0.5c0.8,0.6,1.4,1.6,2.1,2.8c-4.3,2.9-6.5,6-6.5,6c2.6-1.3,5.3-2.3,8-3c0.3,0.5,0.6,1.1,0.9,1.6
		c1.8,2.8,3.8,4.7,3.8,4.7c0.7-3.3,1.9-6,3.3-8C85,17.7,89.5,17.9,89.5,17.9"/>
	<path class="st0" d="M56.9,28.2c1.6-1.6,3.6-3.3,6-5c0,0-2.2,0-4.5,0.6c1.5-3.7,3.2-5.8,3.2-5.8s-9.8,7-11.7,19.5
		c0,0,0.8-2.3,3.6-5.7c1.1,2.5,2.4,4.1,2.4,4.1C56,33,56.3,30.4,56.9,28.2"/>
	<path class="st0" d="M64.8,41.3c-3.4,0.1-6.1,0.4-8.2,0.8c-0.6-3.6-0.7-6.3-0.7-6.3c-1.7,2.6-2.8,5-3.4,7.3c-2.4,0.9-3,1.7-3,1.7
		c0.4,1.3,1.1,2.5,2,3.6C51.3,54,53,57.6,53,57.6c0.4-1.9,1.2-3.8,2.2-5.5C58.1,54.5,61,56,61,56c-1.4-2.4-2.4-5.2-3.1-7.8
		C61.2,44.1,64.8,41.3,64.8,41.3"/>
	<path class="st0" d="M81.6,69.2c0,0-2.9-1.1-6.9-3.4c0.1-2.5,0.5-5.6,1.3-9.6c0,0-3.2,3.2-7.5,5.7c-2.4-1.7-5-3.7-7.5-6
		c0,0,1.2,3.8,3.6,7.9c-2.2,0.8-4.5,1.2-6.6,0.7c0,0,2.5,3.1,10.1,4.4c2.1,2.5,4.7,4.6,7.7,5.3c0,0-0.9-1-1.1-4.7
		C76.7,69.6,79,69.5,81.6,69.2"/>
	<path class="st0" d="M95.4,68.9c0.7-3,0.2-5.8,0.2-5.8c-1.9,2.8-3.8,4.9-5.6,6.5c-4.7,0.2-8.4-0.4-8.4-0.4s2.1,2.1,4.5,3.3
		c-3.2,2-5.4,2.2-5.4,2.2c14,0.3,22.5-8.9,22.5-8.9C100.9,67.4,98.2,68.3,95.4,68.9"/>
	<path class="st0" d="M66.1,106.3c3.5-4.1,8.8-6.6,14.6-6.6c6,0,11.3,2.7,14.9,7l0.9-0.9c-3.8-4.5-9.5-7.4-15.8-7.4
		c-6.2,0-11.7,2.7-15.5,7L66.1,106.3"/>
	<polyline class="st0" points="79,96 73.4,97.2 71.9,90.3 77.5,89.1 77.8,90.4 74.1,91.2 74.4,92.6 77.9,91.9 78.2,93.1 74.7,93.9 
		75,95.5 78.8,94.7 79,96 	"/>
	<polyline class="st0" points="89.8,91.6 86.5,90.8 86.1,92.4 89.5,93.1 89.3,94.3 85.9,93.6 85.3,96.4 83.4,96 84.8,89.2 
		90.1,90.3 89.8,91.6 	"/>
	<path class="st0" d="M98,103.3l-1.7-1.6l0.3-1.5l-2.9-2L92.4,99l-1.9-1.1l6.8-4.1l1.9,1.3L98,103.3 M97.4,95.8l-2.6,1.6l2,1.4
		L97.4,95.8z"/>
	<path class="st0" d="M66.9,100.5c-1.3,1-3.4,1.8-4.9,0l-2.3-2.9l1.5-1.2l2.2,2.8c0.8,0.9,1.8,0.8,2.6,0.1c0.8-0.6,1.2-1.6,0.5-2.6
		L64.3,94l1.5-1.2l2.2,2.9C69.3,97.5,68.5,99.2,66.9,100.5"/>
	<path class="st0" d="M104.9,96.4c-6-6.4-14.6-10.3-24-10.3c-9.6,0-18.2,4.1-24.2,10.5l-1-1C62,89,70.9,84.8,80.9,84.8
		c9.8,0,18.7,4.1,25.1,10.6L104.9,96.4"/>
	<path class="st0" d="M111.7,124.3c-4.2,0-6.7-3.5-6.7-7.4c0-4,3-6.9,6.8-6.9c4.3,0,6.9,3.4,6.9,7.2
		C118.7,121.6,115.5,124.3,111.7,124.3 M111.5,112.1c-2.6,0-3.4,2.5-3.4,4.2c0,2.5,1.1,6.1,4.1,6.1c2.1,0,3.4-1.9,3.4-4.2
		C115.6,115.6,114.6,112.1,111.5,112.1z"/>
	<path class="st0" d="M86,122.3c0,0.8,0.1,1,1.4,1.3v0.5c-1.3-0.1-2.2-0.1-2.9-0.1c-0.8,0-1.6,0.1-2.5,0.1v-0.5c0.8-0.1,1-0.5,1-1.5
		v-10.3c0-0.6-0.3-0.9-1-0.9v-0.6h6.2c3.9,0,5.3,1.9,5.3,4.3c0,2.6-2,4.2-4.7,4.2c-1,0-2.5-0.5-2.5-1c0-0.2,0.1-0.2,0.3-0.2
		c0.2,0,0.5,0.1,0.7,0.1c2.2,0,3.1-1.2,3.1-3c0-1.9-1.2-2.6-3-2.6l-1.3,0.1V122.3"/>
	<path class="st0" d="M97.5,111.7c0-0.6-0.3-0.9-1-0.9v-0.6c0.9,0.1,1.8,0.1,2.5,0.1c0.8,0,1.6-0.1,2.5-0.1v0.6c-0.7,0-1,0.3-1,0.9
		v11c0,0.6,0.3,0.9,1,0.9v0.5c-0.9-0.1-1.7-0.1-2.5-0.1c-0.8,0-1.6,0.1-2.5,0.1v-0.5c0.7,0,1-0.3,1-0.9V111.7"/>
	<path class="st0" d="M122.9,111.6c0-0.6-0.3-0.9-1-0.9v-0.6c0.9,0.1,1.7,0.1,2.5,0.1c0.6,0,1.2,0,1.9-0.1l5.8,9.4h0v-7.7
		c0-1.1-0.7-1.2-1.3-1.2v-0.5c0.7,0.1,1.4,0.1,2,0.1c0.7,0,1.4-0.1,2.1-0.1v0.5c-0.7,0-1,0.3-1,0.9v12.5h-2.2l-7-10.9h0v9.2
		c0,1.1,0.7,1.2,1.3,1.2v0.5c-0.7-0.1-1.4-0.1-2-0.1c-0.7,0-1.4,0.1-2.1,0.1v-0.5c0.7,0,1-0.3,1-0.9V111.6"/>
	<path class="st0" d="M139.3,119.3c0.4,2.4,2,3.5,4.3,3.5c1.3,0,3.1-0.4,3.1-2c0-1.3-1.3-1.6-2.3-2l-1.5-0.5
		c-2.2-0.7-4.4-1.6-4.4-4.1c0-3.4,3.3-4.4,6.5-4.4c1.4,0,2.8,0.2,4,0.7c0,1.6,0.1,2.9,0.2,4h-0.5c-0.5-2-2.1-2.9-4-2.9
		c-1.1,0-2.9,0.3-2.9,1.8c0,1.2,1,1.5,1.9,1.8l2.3,0.7c2.2,0.6,4.2,1.4,4.2,4.3c0,2.9-2.9,4.4-6.4,4.4c-1.6,0-3.3-0.3-4.7-0.8
		c0-1.7-0.1-3.2-0.2-4.5H139.3"/>
	<path class="st0" d="M29.7,111.6c0-0.6-0.3-0.9-1-0.9v-0.5c0.9,0.1,1.7,0.1,2.5,0.1c0.8,0,1.6-0.1,2.5-0.1v0.5c-0.7,0-1,0.3-1,0.9
		v4.2H38v-4.2c0-0.6-0.3-0.9-1-0.9v-0.5c0.9,0.1,1.8,0.1,2.5,0.1c0.8,0,1.6-0.1,2.5-0.1v0.6c-0.7,0-1,0.3-1,0.9l0,11
		c0,0.6,0.3,0.9,1,0.9v0.5c-0.9-0.1-1.8-0.1-2.5-0.1c-0.8,0-1.6,0.1-2.5,0.1v-0.5c0.7,0,1-0.3,1-0.9v-4.8h-5.1v4.8
		c0,0.6,0.3,0.9,1,0.9v0.5c-0.9-0.1-1.7-0.1-2.5-0.1c-0.8,0-1.6,0.1-2.5,0.1v-0.5c0.7,0,1-0.3,1-0.9V111.6"/>
	<path class="st0" d="M49.8,118.1c0.5-1.5,1.2-3.2,1.7-4.8h0c0.4,2.1,0.8,3.5,1.2,4.8H49.8 M44.7,124.1c0.7-0.1,1.5-0.1,2.2-0.1
		c0.7,0,1.5,0.1,2.2,0.1v-0.5c-0.7,0-1-0.3-1-0.7c0-0.2,0.1-0.4,0.2-0.7l0.9-2.5h4.1l0.7,2c0.1,0.3,0.2,0.8,0.2,1.1
		c0,0.5-0.3,0.7-1.1,0.8v0.5c0.9-0.1,1.8-0.1,2.7-0.1c0.9,0,1.8,0.1,2.7,0.1v-0.5c-0.6-0.2-0.9-0.4-1.3-1.4l-3.9-12
		c-0.7,0.1-1.3,0.1-2,0.1c-0.7,0-1.3-0.1-2-0.1v0.6c0.6,0,0.8,0.3,0.8,0.5c0,0.2-0.1,0.5-0.3,0.8l-4.1,10.5c-0.2,0.5-0.5,0.9-1.1,1
		V124.1z"/>
	<path class="st0" d="M62.8,113.6c0-0.6,0.1-1.2,0.1-2c0-0.7-0.1-0.7-0.9-0.8v-0.6c0.6,0.1,1.4,0.1,2.1,0.1c0.8,0,1.5-0.1,2.3-0.1
		L70,120l3.3-9.8c0.7,0.1,1.5,0.1,2.2,0.1c0.7,0,1.5-0.1,2.2-0.1v0.6c-0.7,0.1-0.8,0.3-0.8,0.9c0,0.6,0.1,1.5,0.1,2.3l0.7,9
		c0,0.5,0.7,0.6,1.1,0.7v0.5C77.9,124,77,124,76,124c-0.9,0-1.8,0.1-2.7,0.1v-0.5c1-0.1,1.3-0.3,1.3-1.3c0-0.5-0.1-1.5-0.1-2.1
		l-0.5-6.3h0l-3.5,10.4h-1.8l-4-10.5h0l-0.2,6.2c0,1.1-0.1,1.7-0.1,2.2c0,1.1,0.1,1.3,1.4,1.4v0.5c-0.8-0.1-1.6-0.1-2.4-0.1
		c-0.8,0-1.6,0.1-2.2,0.1v-0.5c0.8-0.1,1.2-0.3,1.2-1.1L62.8,113.6"/>
	<path class="st0" d="M25.6,123.3c-1.4,1.1-3.5,1.6-4.9,1.6c-5,0-7.9-3.9-7.9-7.9c0-4.1,2.8-8,8.3-8c1.9,0,3.3,0.4,3.8,0.6
		c0,1.6,0.1,3.1,0.2,4.7h-0.6c-0.4-2-1.7-3-3.7-3c-2.7,0-4.7,2.1-4.7,5.6c0,2.7,2.2,5.7,5.3,5.7c1.3,0,3.2-0.7,4.4-1.8L25.6,123.3"
		/>
	<path class="st0" d="M48.4,131.7c0-0.5-0.2-0.7-0.7-0.7v-0.4c0.7,0,1.4,0.1,2,0.1c0.7,0,1.7,0,2.1-0.1v0.4c-0.8,0-0.9,0.4-0.9,0.9
		v8h3c1.1,0,1.5-0.5,1.8-1.7h0.5c-0.2,1.1-0.4,2.1-0.4,3.2h-8.1v-0.4c0.6,0,0.7-0.2,0.7-0.7V131.7"/>
	<path class="st0" d="M58.8,131.8c0-0.5-0.2-0.7-0.7-0.7v-0.4h8.2c0,0.9,0,1.6,0.1,2.5h-0.4c-0.2-0.9-0.4-1.2-1.3-1.2h-3.5v3.1h2.2
		c0.7,0,0.8-0.2,0.9-0.8h0.4c0,0.4-0.1,1.1-0.1,1.5c0,0.4,0,1.2,0.1,1.5h-0.4c-0.1-0.6-0.2-0.8-0.9-0.8h-2.2v3.4h3.7
		c0.9,0,1.2-0.3,1.4-1.7h0.5c-0.1,1.3-0.2,2.2-0.2,3.1H58v-0.4c0.6,0,0.7-0.2,0.7-0.7V131.8"/>
	<path class="st0" d="M68.8,140.9c0.5-0.1,0.7-0.3,0.8-0.7l3.2-8.1c0.1-0.2,0.2-0.5,0.2-0.6c0-0.2-0.2-0.4-0.6-0.4v-0.4
		c0.5,0,1,0.1,1.5,0.1c0.5,0,1,0,1.5-0.1l3,9.3c0.2,0.7,0.5,0.9,1,1.1v0.4c-0.7,0-1.4-0.1-2.1-0.1c-0.7,0-1.4,0-2.1,0.1v-0.4
		c0.6-0.1,0.8-0.2,0.8-0.6c0-0.2-0.1-0.6-0.2-0.8l-0.5-1.6h-3.2l-0.7,1.9c-0.1,0.2-0.1,0.4-0.1,0.6c0,0.3,0.2,0.5,0.8,0.5v0.4
		c-0.6,0-1.1-0.1-1.7-0.1c-0.6,0-1.1,0-1.7,0.1V140.9 M75,136.7c-0.3-1.1-0.6-2.1-0.9-3.7h0c-0.4,1.3-0.9,2.6-1.3,3.7H75z"/>
	<path class="st0" d="M88.1,137.5c0-0.7-0.3-0.7-1-0.7v-0.5c0.7,0.1,1.3,0.1,2,0.1c0.7,0,1.4,0,2.2-0.1v0.5c-0.6,0-0.9,0.2-0.9,0.9
		v3.6h-0.9l-0.4-1.1c-1,1-2.1,1.3-3.2,1.3c-3.1,0-5-2.5-5-5.5c0-3.5,2.4-5.7,5.9-5.7c1.1,0,2.3,0.2,3.2,0.8c0,0.8,0,1.7,0.1,2.8
		h-0.5c-0.2-1.4-1.6-2.2-2.9-2.2c-2.3,0-3.4,1.7-3.4,3.8c0,2,1.1,4.3,3,4.3c1.2,0,1.8-0.5,1.8-1.3V137.5"/>
	<path class="st0" d="M94.6,131.7c0-0.5-0.2-0.7-0.7-0.7v-0.4c0.5,0,1.2,0.1,1.9,0.1c0.8,0,1.5,0,2.2-0.1v0.4
		c-0.7,0-0.9,0.2-0.9,0.8v6.1c0,1.8,0.8,2.2,2.1,2.2c1.3,0,2.1-0.4,2.1-2.2v-6.1c0-0.6-0.2-0.8-0.9-0.8v-0.4c0.7,0,1.3,0.1,2.2,0.1
		c0.7,0,1.3,0,1.9-0.1v0.4c-0.6,0-0.7,0.2-0.7,0.7v5.9c0,3-1.6,4-4.5,4c-2.9,0-4.5-1-4.5-3.7V131.7"/>
	<path class="st0" d="M107.8,131.8c0-0.5-0.2-0.7-0.7-0.7v-0.4h8.2c0,0.9,0,1.6,0.1,2.5h-0.4c-0.2-0.9-0.4-1.2-1.3-1.2h-3.5v3.1h2.2
		c0.7,0,0.8-0.2,0.9-0.8h0.4c0,0.4-0.1,1.1-0.1,1.5c0,0.4,0,1.2,0.1,1.5h-0.4c-0.1-0.6-0.2-0.8-0.9-0.8h-2.2v3.4h3.7
		c0.9,0,1.2-0.3,1.4-1.7h0.5c-0.1,1.3-0.2,2.2-0.2,3.1H107v-0.4c0.6,0,0.7-0.2,0.7-0.7V131.8"/>
	<path class="st1" d="M118.3,145.7c1.1,0,2-0.8,2-1.9c0-1.1-0.9-1.9-2-1.9c-1.1,0-2,0.8-2,1.9C116.3,144.9,117.3,145.7,118.3,145.7
		 M116.7,143.8c0-0.9,0.7-1.6,1.6-1.6c0.9,0,1.6,0.7,1.6,1.6c0,0.9-0.7,1.6-1.6,1.6C117.4,145.4,116.7,144.7,116.7,143.8z
		 M117.9,143.9h0.4l0.6,1h0.4l-0.6-1c0.3,0,0.6-0.2,0.6-0.6c0-0.4-0.3-0.6-0.8-0.6h-0.9v2.2h0.3V143.9z M117.9,143.6V143h0.5
		c0.2,0,0.5,0,0.5,0.3c0,0.3-0.3,0.4-0.5,0.4H117.9z"/>
</g>
</svg>
