<?xml version="1.0" encoding="utf-8"?>
<!-- Generator: Adobe Illustrator 19.1.0, SVG Export Plug-In . SVG Version: 6.00 Build 0)  -->
<svg version="1.1" id="Layer_1" xmlns="http://www.w3.org/2000/svg" xmlns:xlink="http://www.w3.org/1999/xlink" x="0px" y="0px"
	 viewBox="0 0 160 160" style="enable-background:new 0 0 160 160;" xml:space="preserve">
<style type="text/css">
	.st0{fill:#6E6F72;}
	.st1{fill:#010101;}
	.st2{fill:#F89521;}
</style>
<g>
	<g>
		<path class="st0" d="M79.9,11.2c0.3-0.1,0.7-0.3,1.1-0.4c-1.2,8.5-1.5,17-1,25.6c0.5,7.5,1.6,14.9,3.6,22.2
			c1.8,6.5,4.4,12.8,7.9,18.6C85,69.8,79.9,61.3,75.8,52.4c-5.1-11.2-8.6-23.1-11.2-35.1C69.7,15.2,74.8,13.2,79.9,11.2z"/>
		<path class="st0" d="M73.3,51.4c2.5,5.4,4.1,11.1,5.2,17c0.6,3.6,1.1,7.2,1.3,10.8c-2.7,0-5.4-0.4-8-1.1
			c1.6-6.2,2.3-12.7,2.2-19.1C73.8,56.5,73.6,53.9,73.3,51.4z"/>
	</g>
	<g>
		<path class="st1" d="M83.4,15c0.2-1.2,0.4-2.3,0.7-3.5c3.6,1.9,7,4,10.6,6c-0.6,1.4-1.3,2.7-1.9,4.2c-2.4,5.7-4.3,11.6-5.5,17.7
			c-1.3,6.4-1.8,12.9-1.2,19.4c0.1,1,0.3,2,0.4,3.1c-2-6.7-3.3-13.6-3.9-20.6C81.8,32.4,82,23.6,83.4,15z"/>
		<path class="st1" d="M79.2,63.2c2.2,4.2,4.8,8.2,7.7,12c0.7,0.9,1.5,1.8,2.2,2.6C89,77.9,88.8,78,88.7,78c-2.1,0.6-4.3,1-6.5,1.1
			C81.6,73.7,80.4,68.4,79.2,63.2z"/>
		<path class="st1" d="M103.8,75.9c0.6,0,1.3,0,1.9,0c0,0.1,0,0.2,0,0.3c-0.3,0-0.5,0-0.8,0c0,0.7,0,1.4,0,2.2c-0.1,0-0.3,0-0.4,0
			c0-0.7,0-1.4,0-2.2c-0.3,0-0.5,0-0.8,0L103.8,75.9z"/>
		<path class="st1" d="M106.1,75.9c0.1,0,0.3,0,0.4,0c0.3,0.7,0.5,1.4,0.8,2.1c0.3-0.7,0.5-1.4,0.8-2.1c0.1,0,0.3,0,0.4,0
			c0,0.8,0,1.7,0,2.5c-0.1,0-0.3,0-0.4,0c0-0.6,0-1.1,0-1.7c-0.2,0.6-0.4,1.2-0.7,1.7c-0.1,0-0.3,0-0.4,0c-0.2-0.6-0.4-1.2-0.7-1.7
			c0,0.6,0,1.2,0,1.7c-0.1,0-0.3,0-0.4,0C106.1,77.6,106.1,76.7,106.1,75.9z"/>
		<path class="st1" d="M68.3,89.1c5.8-2,12.1-2.4,18.1-1.2c7,1.3,13.5,4.9,18.4,9.9c-0.3,0.3-0.7,0.6-1,1c-3.7-3.8-8.3-6.7-13.4-8.4
			c-6-2-12.5-2.3-18.7-0.8C65.7,91,60,94.3,55.6,98.8c-0.3-0.3-0.7-0.6-1-1C58.4,93.9,63.2,90.9,68.3,89.1z"/>
		<path class="st1" d="M71.1,91.8c1.8-0.4,3.6-0.7,5.3-1.1c0.1,0.5,0.2,1.1,0.3,1.6c-1.4,0.3-2.9,0.6-4.3,0.9c0.1,0.7,0.3,1.3,0.4,2
			c1.3-0.3,2.6-0.5,4-0.8c0.1,0.5,0.2,1.1,0.3,1.6c-1.3,0.3-2.6,0.5-3.9,0.8c0.1,0.5,0.1,1,0.4,1.5c0.2,0.4,0.7,0.3,1.1,0.2
			c1.1-0.2,2.1-0.4,3.2-0.6c0.1,0.5,0.2,1.1,0.3,1.6c-1.1,0.2-2.2,0.5-3.3,0.7c-0.8,0.2-1.7,0.1-2.3-0.4c-0.6-0.4-0.8-1.1-0.9-1.8
			c-0.4-1.8-0.8-3.6-1.1-5.4C70.4,92.2,70.8,91.9,71.1,91.8z"/>
		<path class="st1" d="M85.6,91.7c0.9-0.3,1.8,0,2.6,0.2c0.8,0.2,1.7,0.4,2.5,0.7c-0.1,0.5-0.3,1.1-0.4,1.6
			c-1.1-0.3-2.2-0.6-3.2-0.8c-0.3-0.1-0.8-0.1-1,0.2c-0.3,0.4-0.3,1-0.5,1.4c1.3,0.3,2.6,0.7,3.9,1c-0.1,0.5-0.3,1.1-0.4,1.6
			c-1.3-0.3-2.6-0.7-3.9-1c-0.3,1.2-0.6,2.4-0.9,3.5c-0.4-0.1-0.9-0.2-1.3-0.4c-0.3-0.2-0.2-0.6-0.1-0.8c0.5-1.8,0.9-3.6,1.4-5.4
			C84.3,92.7,84.8,92,85.6,91.7z"/>
		<path class="st1" d="M63.6,94.9c1.1,1.4,2.2,2.7,3.3,4.1c0.5,0.6,0.8,1.3,0.9,2.1c0.2,2.6-2.8,5-5.3,4c-1-0.4-1.6-1.3-2.3-2
			c-0.9-1.1-1.8-2.2-2.7-3.3c0.5-0.4,0.9-0.7,1.4-1.1c1,1.3,2.1,2.5,3.1,3.8c0.3,0.4,0.6,0.7,1.1,0.9c1.4,0.5,3.1-0.9,2.8-2.3
			c-0.1-0.5-0.4-0.9-0.7-1.2c-1-1.3-2.1-2.5-3.1-3.8C62.7,95.6,63.2,95.3,63.6,94.9z"/>
		<path class="st1" d="M97.6,96.9c0.3-0.2,0.6-0.4,0.9-0.2c0.4,0.3,1,0.7,0.8,1.3c-0.8,3-1.7,5.9-2.5,8.9c-0.5-0.4-1-0.9-1.4-1.3
			c0.2-0.6,0.3-1.1,0.5-1.7c-0.6-0.4-1.1-0.9-1.7-1.3c0.5-0.3,1-0.6,1.5-1c0.2,0.2,0.5,0.4,0.7,0.5c0.3-1,0.6-2,0.9-3
			c-1.8,1.2-3.7,2.4-5.5,3.6c-0.5-0.3-1.1-0.6-1.6-0.9C92.6,100.2,95.1,98.6,97.6,96.9z"/>
		<path class="st1" d="M64.2,108.7c3.7-4.3,9.3-6.9,15-7c6.1-0.2,12.1,2.5,16.1,7.1c-0.3,0.3-0.7,0.6-1,0.9
			c-3.6-4.2-9.1-6.6-14.6-6.6c-5.5,0-10.9,2.5-14.5,6.6C64.8,109.3,64.5,109,64.2,108.7z"/>
		<g>
			<path class="st1" d="M85.4,113.3c2.4-0.4,5-0.1,7,1.3c2,1.4,3,3.7,3.3,6c0.3,2.5-0.1,5.3-1.5,7.4c-1.2,1.7-3.1,2.8-5.1,3.1
				c-2.4,0.4-5.1,0-7.1-1.6c-1.8-1.4-2.7-3.7-2.9-6c-0.2-2.5,0.1-5.1,1.6-7.2C81.7,114.7,83.5,113.6,85.4,113.3z M86.5,116.8
				c-1.2,0.2-2.2,1-2.8,2.1c-0.7,1.4-0.8,3.1-0.6,4.6c0.2,1.2,0.7,2.5,1.7,3.3c1.1,0.9,2.8,1.1,4.2,0.7c1.1-0.4,1.9-1.2,2.4-2.2
				c0.6-1.3,0.7-2.8,0.5-4.2c-0.2-1.3-0.6-2.6-1.6-3.4C89.1,116.8,87.7,116.5,86.5,116.8z"/>
		</g>
		<path class="st1" d="M32.3,113.5c4,0,8,0,12,0c0,1.2,0,2.4,0,3.6c-2.7,0-5.4,0-8,0c0,1.1,0,2.2,0,3.2c2.5,0,4.9,0,7.4,0
			c0,1.2,0,2.4,0,3.6c-2.5,0-4.9,0-7.4,0c0,1.1,0,2.3,0,3.4c2.7,0,5.5,0,8.2,0c0,1.2,0,2.4,0,3.6c-4.1,0-8.1,0-12.2,0
			C32.3,125.1,32.3,119.3,32.3,113.5z"/>
		<path class="st1" d="M46.8,113.5c1.3,0,2.7,0,4,0c0,3.5,0,7,0,10.5c0,1.1,0.4,2.4,1.4,3.1c1.5,1,4,0.7,4.9-0.9
			c0.4-0.7,0.5-1.6,0.5-2.4c0-3.4,0-6.8,0-10.2c1.3,0,2.7,0,4,0c0,3.6,0,7.2,0,10.8c0,1.8-0.6,3.7-2,4.9c-1.5,1.4-3.6,2-5.6,1.9
			c-2,0-4-0.7-5.4-2.1c-1.2-1.3-1.8-3-1.8-4.8C46.8,120.7,46.8,117.1,46.8,113.5z"/>
		<g>
			<path class="st1" d="M63.9,113.5c2.4,0,4.7,0,7.1,0c1.7,0,3.4,0.6,4.6,1.8c1.8,1.8,2,5,0.3,7c-0.5,0.6-1.2,1.2-1.9,1.6
				c1.3,2.3,2.6,4.6,3.9,7c-1.5,0-3,0-4.5,0c-1.2-2.1-2.3-4.2-3.5-6.3c-0.7,0-1.4,0-2.1,0c0,2.1,0,4.2,0,6.3c-1.3,0-2.7,0-4,0
				C63.9,125.1,63.9,119.3,63.9,113.5z M67.9,117.1c0,1.3,0,2.6,0,4c1.1,0,2.2,0,3.3,0c0.7,0,1.4-0.3,1.7-1c0.3-0.7,0.3-1.5-0.1-2.2
				c-0.4-0.6-1.1-0.8-1.8-0.8C70,117.1,69,117.1,67.9,117.1z"/>
		</g>
		<g>
			<path class="st1" d="M98.1,113.5c2.3,0,4.6,0,7,0c1.7,0,3.4,0.5,4.6,1.8c1.5,1.5,1.8,3.9,1.2,5.9c-0.5,1.6-1.8,2.9-3.3,3.4
				c-1.7,0.7-3.6,0.4-5.4,0.4c0,2,0,3.9,0,5.9c-1.3,0-2.7,0-4,0C98.1,125.1,98.1,119.3,98.1,113.5z M102.1,117.1c0,1.5,0,2.9,0,4.4
				c0.9,0,1.9,0,2.8,0c0.8,0,1.6-0.3,2-1c0.4-0.7,0.4-1.6,0-2.3c-0.3-0.7-1.1-1-1.9-1C104.1,117,103.1,117.1,102.1,117.1z"/>
		</g>
		<g>
			<path class="st1" d="M116.4,113.5c1.4,0,2.8,0,4.2,0c2.4,5.8,4.7,11.6,7.1,17.4c-1.5,0-3,0-4.5,0c-0.4-1.1-0.8-2.2-1.3-3.3
				c-2.3,0-4.5,0-6.8,0c-0.4,1.1-0.8,2.2-1.3,3.3c-1.5,0-3,0-4.5,0C111.7,125.1,114.1,119.3,116.4,113.5z M118.5,118.7
				c-0.7,1.8-1.3,3.5-2,5.3c1.3,0,2.7,0,4,0C119.9,122.2,119.2,120.4,118.5,118.7z"/>
		</g>
		<path class="st1" d="M81.1,137.4c1.1-1,2.5-1.5,4-1.5c1.3,0,2.6,0.3,3.6,1.2c0.7,0.6,1.1,1.4,1.4,2.3c-0.8,0.2-1.6,0.5-2.4,0.7
			c-0.2-0.6-0.5-1.2-1.1-1.5c-1.2-0.7-2.8-0.5-3.8,0.6c-0.7,0.8-1,1.9-0.9,2.9c0.1,1,0.5,1.9,1.3,2.5c1.4,0.9,3.4,0.7,4.6-0.5
			c0-0.3,0-0.5,0-0.8c-1.1,0-2.3,0-3.4,0c0-0.7,0-1.3,0-2c1.9,0,3.9,0,5.8,0c0,1.2,0,2.5,0,3.7c-0.8,1-1.9,1.8-3.1,2.2
			c-1.8,0.5-3.8,0.4-5.3-0.7C78.7,144.6,78.5,139.8,81.1,137.4z"/>
		<path class="st1" d="M49.6,136.1c0.9,0,1.7,0,2.6,0c0,2.9,0,5.9,0,8.8c1.8,0,3.5,0,5.3,0c0,0.8,0,1.5,0,2.3c-2.6,0-5.2,0-7.8,0
			C49.6,143.5,49.6,139.8,49.6,136.1z"/>
		<path class="st1" d="M58.6,136.1c2.6,0,5.1,0,7.7,0c0,0.8,0,1.5,0,2.3c-1.7,0-3.4,0-5.1,0c0,0.7,0,1.4,0,2.1c1.6,0,3.2,0,4.7,0
			c0,0.8,0,1.5,0,2.3c-1.6,0-3.2,0-4.7,0c0,0.7,0,1.4,0,2.2c1.8,0,3.5,0,5.3,0c0,0.8,0,1.5,0,2.3c-2.6,0-5.2,0-7.8,0
			C58.6,143.5,58.6,139.8,58.6,136.1z"/>
		<g>
			<path class="st1" d="M72.1,136.1c0.9,0,1.8,0,2.7,0c1.5,3.7,3,7.4,4.5,11.1c-1,0-1.9,0-2.9,0c-0.3-0.7-0.5-1.4-0.8-2.1
				c-1.4,0-2.9,0-4.3,0c-0.3,0.7-0.5,1.4-0.8,2.1c-1,0-1.9,0-2.9,0C69.1,143.5,70.6,139.8,72.1,136.1z M73.5,139.5
				c-0.4,1.1-0.9,2.2-1.3,3.4c0.9,0,1.7,0,2.6,0C74.3,141.7,73.9,140.6,73.5,139.5z"/>
		</g>
		<path class="st1" d="M91.3,136.1c0.9,0,1.7,0,2.6,0c0,2.3,0,4.5,0,6.8c0,0.8,0.3,1.7,1.1,2c0.8,0.4,1.9,0.3,2.5-0.3
			c0.5-0.5,0.7-1.2,0.6-1.9c0-2.2,0-4.4,0-6.6c0.9,0,1.7,0,2.6,0c0,2.3,0,4.6,0,6.9c0,1.2-0.5,2.5-1.4,3.3c-1.2,1-2.9,1.2-4.4,1
			c-1.3-0.2-2.5-1-3.1-2.3c-0.6-1.2-0.4-2.5-0.5-3.7C91.3,139.6,91.3,137.9,91.3,136.1z"/>
		<path class="st1" d="M102.2,136.1c2.6,0,5.1,0,7.7,0c0,0.8,0,1.5,0,2.3c-1.7,0-3.4,0-5.2,0c0,0.7,0,1.4,0,2.1c1.6,0,3.2,0,4.7,0
			c0,0.8,0,1.5,0,2.3c-1.6,0-3.2,0-4.7,0c0,0.7,0,1.4,0,2.2c1.8,0,3.5,0,5.3,0c0,0.8,0,1.5,0,2.3c-2.6,0-5.2,0-7.8,0
			C102.2,143.5,102.2,139.8,102.2,136.1z"/>
	</g>
	<g>
		<path class="st2" d="M97.4,20.6c1.8,1.1,3.5,2.5,5,4c4,4,7,9,8.5,14.5c1.7,6.6,1.3,13.7-1.2,20c-2.8,7-8.1,12.9-14.7,16.4
			c-0.2-0.3-0.4-0.6-0.5-0.9c4.1-2.2,7.4-5.6,9.8-9.5c3.3-5.4,4.9-11.7,4.9-17.9c-0.1-6-1.6-12-4.6-17.2c-1.9-3.3-4.4-6.3-7.6-8.4
			C97.1,21.3,97.2,20.9,97.4,20.6z"/>
		<path class="st2" d="M61.4,21.5c0.1,0,0.2-0.1,0.3-0.1c0.1,0.3,0.1,0.6,0.2,0.9c-2,1.6-3.8,3.5-5.2,5.7c-3.2,4.8-5,10.4-5.6,16.1
			c-0.9,8.6,1.9,17.6,7.4,24.3c2,2.4,4.3,4.5,7,6.1c0.9,0.6,1.9,1,2.9,1.5c-0.1,0.3-0.2,0.6-0.2,1c-7.6-3-13.9-9.1-17.2-16.6
			c-2.5-5.5-3.3-11.7-2.4-17.7C49.7,34.2,54.5,26.4,61.4,21.5z"/>
	</g>
</g>
</svg>
