<?xml version="1.0" encoding="utf-8"?>
<!-- Generator: Adobe Illustrator 19.1.0, SVG Export Plug-In . SVG Version: 6.00 Build 0)  -->
<svg version="1.1" id="Layer_1" xmlns="http://www.w3.org/2000/svg" xmlns:xlink="http://www.w3.org/1999/xlink" x="0px" y="0px"
	 viewBox="0 0 400 400" enable-background="new 0 0 400 400" xml:space="preserve">
<g>
	<g>
		<g>
			<linearGradient id="SVGID_1_" gradientUnits="userSpaceOnUse" x1="197.2187" y1="214.5507" x2="197.2187" y2="7.6279">
				<stop  offset="0" style="stop-color:#EFAF3E"/>
				<stop  offset="0" style="stop-color:#D17F29"/>
				<stop  offset="1" style="stop-color:#CF7C29"/>
				<stop  offset="1" style="stop-color:#E39A2A"/>
			</linearGradient>
			<path fill="url(#SVGID_1_)" d="M300.68,111.089c0,28.57-11.58,54.436-30.303,73.158s-44.588,30.303-73.158,30.303
				c-28.57,0-54.435-11.58-73.158-30.303s-30.303-44.588-30.303-73.158c0-57.14,46.322-103.461,103.461-103.461
				c28.57,0,54.435,11.58,73.158,30.303S300.68,82.519,300.68,111.089z"/>
			<linearGradient id="SVGID_2_" gradientUnits="userSpaceOnUse" x1="197.4579" y1="209.9629" x2="197.4579" y2="10.4845">
				<stop  offset="0" style="stop-color:#EFB142"/>
				<stop  offset="0" style="stop-color:#D5862C"/>
				<stop  offset="1" style="stop-color:#D3832C"/>
				<stop  offset="1" style="stop-color:#E59E2F"/>
			</linearGradient>
			<path fill="url(#SVGID_2_)" d="M196.269,10.493c27.365-0.344,53.162,10.335,72.727,29.451
				c16.382,16.382,29.878,42.582,29.313,73.099c0,24.999-11.676,50.288-30.998,68.694c-18.129,17.27-42.742,28.279-70.336,28.226
				c-24.998,0-50.357-9.642-69.742-28.414c-17.816-17.253-29.944-41.425-30.617-68.635c-0.931-37.618,22.523-77.905,60.818-94.287
				C168.173,14.137,181.533,10.678,196.269,10.493z"/>
			<linearGradient id="SVGID_3_" gradientUnits="userSpaceOnUse" x1="197.6884" y1="205.3756" x2="197.6884" y2="13.3266">
				<stop  offset="0" style="stop-color:#EFB345"/>
				<stop  offset="0" style="stop-color:#D88D32"/>
				<stop  offset="1" style="stop-color:#D68B32"/>
				<stop  offset="1" style="stop-color:#E6A235"/>
			</linearGradient>
			<path fill="url(#SVGID_3_)" d="M195.32,13.357c26.159-0.651,51.889,9.089,72.296,28.598
				c14.042,14.042,29.452,40.576,28.323,73.041c0,21.428-11.743,46.158-31.693,64.23c-17.496,15.849-40.895,26.255-67.514,26.148
				c-21.427,0-46.258-7.718-66.325-26.524c-16.874-15.814-29.582-38.207-30.931-64.111c-1.677-32.211,18.807-75.928,58.055-93.079
				C166.735,17.812,179.981,13.739,195.32,13.357z"/>
			<linearGradient id="SVGID_4_" gradientUnits="userSpaceOnUse" x1="197.9156" y1="200.7888" x2="197.9156" y2="16.1557">
				<stop  offset="0" style="stop-color:#F0B449"/>
				<stop  offset="0" style="stop-color:#DC9438"/>
				<stop  offset="1" style="stop-color:#DA9238"/>
				<stop  offset="1" style="stop-color:#E8A73B"/>
			</linearGradient>
			<path fill="url(#SVGID_4_)" d="M194.37,16.222c24.953-0.926,50.616,7.844,71.865,27.746
				c11.702,11.702,29.027,38.57,27.333,72.982c0,17.856-11.779,42.052-32.389,59.766c-16.826,14.462-39.049,24.231-64.692,24.071
				c-17.856,0-42.134-5.814-62.909-24.635c-15.901-14.405-29.218-34.926-31.245-59.587c-2.202-26.788,15.091-73.95,55.292-91.87
				C165.296,21.487,178.428,16.814,194.37,16.222z"/>
			<linearGradient id="SVGID_5_" gradientUnits="userSpaceOnUse" x1="198.1488" y1="196.2026" x2="198.1488" y2="18.9724">
				<stop  offset="0" style="stop-color:#F0B64D"/>
				<stop  offset="0" style="stop-color:#E09B3E"/>
				<stop  offset="1" style="stop-color:#DE9A3E"/>
				<stop  offset="1" style="stop-color:#E9AB42"/>
			</linearGradient>
			<path fill="url(#SVGID_5_)" d="M193.421,19.087c23.747-1.172,49.342,6.599,71.434,26.894
				c9.361,9.361,28.601,36.565,26.342,72.923c0,14.285-11.78,37.98-33.084,55.302c-16.122,13.109-37.203,22.207-61.869,21.994
				c-14.285,0-37.982-3.937-59.493-22.745c-14.898-13.026-28.847-31.571-31.559-55.064c-2.465-21.361,11.374-71.973,52.529-90.662
				C163.858,25.162,176.875,19.903,193.421,19.087z"/>
			<linearGradient id="SVGID_6_" gradientUnits="userSpaceOnUse" x1="198.3998" y1="191.6171" x2="198.3998" y2="21.776">
				<stop  offset="0" style="stop-color:#F0B851"/>
				<stop  offset="0" style="stop-color:#E4A345"/>
				<stop  offset="1" style="stop-color:#E2A245"/>
				<stop  offset="1" style="stop-color:#EBAF48"/>
			</linearGradient>
			<path fill="url(#SVGID_6_)" d="M192.471,21.951c22.542-1.392,48.069,5.353,71.004,26.042
				c7.021,7.021,28.176,34.559,25.352,72.864c0,10.714-11.744,33.952-33.779,50.837c-15.388,11.792-35.357,20.184-59.047,19.916
				c-10.714,0-33.795-2.099-56.077-20.856c-13.87-11.675-28.467-28.133-31.873-50.54c-2.423-15.944,7.658-69.996,49.766-89.454
				C162.42,28.837,175.323,23.011,192.471,21.951z"/>
			<linearGradient id="SVGID_7_" gradientUnits="userSpaceOnUse" x1="198.8522" y1="187.0327" x2="198.8522" y2="24.5654">
				<stop  offset="0" style="stop-color:#F0B955"/>
				<stop  offset="0" style="stop-color:#E8AB4C"/>
				<stop  offset="1" style="stop-color:#E7AB4C"/>
				<stop  offset="1" style="stop-color:#EDB44F"/>
			</linearGradient>
			<path fill="url(#SVGID_7_)" d="M191.522,24.816c21.339-1.59,46.796,4.108,70.573,25.19c4.681,4.681,27.75,32.553,24.362,72.806
				c0,7.143-11.665,29.981-34.475,46.373c-14.627,10.512-33.51,18.16-56.225,17.839c-7.142,0-29.566-0.311-52.661-18.966
				c-12.817-10.353-24.106-25.761-32.187-46.016c0-10.751,3.942-68.018,47.003-88.245C160.981,32.512,173.772,26.138,191.522,24.816
				z"/>
			<linearGradient id="SVGID_8_" gradientUnits="userSpaceOnUse" x1="199.1387" y1="182.4595" x2="199.1387" y2="27.3383">
				<stop  offset="0" style="stop-color:#F0BB59"/>
				<stop  offset="0" style="stop-color:#ECB454"/>
				<stop  offset="1" style="stop-color:#EBB354"/>
				<stop  offset="1" style="stop-color:#EFB856"/>
			</linearGradient>
			<path fill="url(#SVGID_8_)" d="M190.572,27.681c20.139-1.767,45.523,2.862,70.142,24.337c2.34,2.34,27.325,30.547,23.372,72.747
				c0,3.571-11.541,26.087-35.17,41.909c-13.844,9.27-31.664,16.136-53.403,15.761c-3.571,0-25.286,1.405-49.245-17.076
				c-11.746-9.06-23.074-22.623-32.5-41.493c0-5.376,0.226-66.041,44.241-87.037C159.543,36.188,172.225,29.29,190.572,27.681z"/>
			<path fill="#F0BC5D" d="M116.626,125.691c0,0-3.491-64.064,41.478-85.829c0,0,12.577-7.392,31.519-9.317
				s44.25,1.617,69.711,23.485c0,0,26.9,28.541,22.382,72.688c0,0-26.695,52.36-86.446,51.129
				C195.27,177.847,152.56,184.007,116.626,125.691z"/>
		</g>
		<g>
			<g>
				<g>
					<path fill="#4A1E1D" d="M181.135,125.124c0.42,0.973,8.391,19.455,11.711,43.449c3.358,24.253,4.944,44.139,5.027,45.186
						c-0.243,0.015-0.486,0.028-0.73,0.039c-13.488,0.605-28.342-4.639-29.124-4.915l7.224-22.311
						C182.876,161.61,181.222,126.948,181.135,125.124z"/>
				</g>
			</g>
		</g>
		<g>
			<g>
				<g>
					<path fill="#4A1E1D" d="M219.717,9.501c24.422,4.464,28.984,10.053,29.225,10.347c-5.084,7.216-13.939,39.516-20.968,70.306
						c-7.029,30.79-5.125,58.12-5.025,59.558c-0.214-0.707-4.271-14.143-8.15-34.95c-3.879-20.798-4.007-38.172-3.043-60.086
						C212.727,32.763,219.367,10.665,219.717,9.501z"/>
				</g>
			</g>
		</g>
		<g>
			<g>
				<g>
					<path fill="#4A1E1D" d="M192.435,7.201c2.392-0.107,4.763-0.065,7.098,0.144c-11.321,62.293,2.934,138.545,34.152,191.34
						c-47.915-47.25-55.691-116.967-82.044-177.48C163.505,13.676,178.319,7.834,192.435,7.201z"/>
				</g>
			</g>
		</g>
		<g>
			<g>
				<g enable-background="new    ">
					<g enable-background="new    ">
						<defs>
							<path id="SVGID_9_" enable-background="new    " d="M165.924,10.966l1.556-0.489c-7.347,2.311-14.375,5.591-20.567,9.351
								l-1.556,0.49C151.549,16.556,158.577,13.277,165.924,10.966z"/>
						</defs>
						<clipPath id="SVGID_10_">
							<use xlink:href="#SVGID_9_"  overflow="visible"/>
						</clipPath>
						<g clip-path="url(#SVGID_10_)" enable-background="new    ">
							<path fill="#A85754" d="M146.913,19.827l-1.556,0.489c6.192-3.76,13.22-7.04,20.567-9.351l1.556-0.49
								C160.133,12.787,153.105,16.067,146.913,19.827"/>
						</g>
					</g>
					<g>
						<path fill="#7E1B25" d="M188.017,6.938c2.431-0.044,4.846,0.061,7.227,0.331c-9.33,59.635,4.312,146.452,44.927,193.294
							c-55.341-44.909-64.322-118.994-93.259-180.736C158.762,12.632,173.67,7.197,188.017,6.938z"/>
					</g>
					<g enable-background="new    ">
						<defs>
							<path id="SVGID_11_" enable-background="new    " d="M240.172,200.563l-1.556,0.49
								c-55.341-44.909-64.322-118.994-93.259-180.736l1.556-0.489C175.85,81.569,184.831,155.654,240.172,200.563z"/>
						</defs>
						<clipPath id="SVGID_12_">
							<use xlink:href="#SVGID_11_"  overflow="visible"/>
						</clipPath>
						<g clip-path="url(#SVGID_12_)" enable-background="new    ">
							<path fill="#A85754" d="M240.172,200.563l-1.556,0.49c-55.341-44.909-64.322-118.994-93.259-180.736l1.556-0.489
								C175.85,81.569,184.831,155.654,240.172,200.563"/>
						</g>
					</g>
				</g>
			</g>
		</g>
		<g>
			<g>
				<g enable-background="new    ">
					<g>
						<path fill="#811F28" d="M217.103,9.666c24.413,4.464,28.976,10.053,29.216,10.348c-5.076,7.215-13.93,39.516-20.96,70.306
							c-7.029,30.79-1.316,64.485-1.016,66.258c-0.414-1.042-8.288-20.843-12.168-41.65c-3.879-20.798-4.007-38.172-3.035-60.086
							C210.105,32.928,216.753,10.829,217.103,9.666z"/>
					</g>
					<g enable-background="new    ">
						<defs>
							<path id="SVGID_13_" enable-background="new    " d="M224.344,156.578l-1.785-0.31c-0.414-1.042-8.288-20.843-12.168-41.65
								c-3.879-20.798-4.007-38.172-3.035-60.086c0.964-21.914,7.612-44.013,7.962-45.176l1.785,0.311
								c-0.35,1.163-6.998,23.262-7.962,45.176c-0.972,21.914-0.844,39.288,3.035,60.086
								C216.055,135.735,223.929,155.535,224.344,156.578z"/>
						</defs>
						<clipPath id="SVGID_14_">
							<use xlink:href="#SVGID_13_"  overflow="visible"/>
						</clipPath>
						<g clip-path="url(#SVGID_14_)" enable-background="new    ">
							<path fill="#A85754" d="M224.344,156.578l-1.785-0.311c-0.414-1.042-8.288-20.843-12.168-41.65
								c-3.879-20.798-4.007-38.172-3.035-60.086c0.964-21.914,7.612-44.013,7.962-45.176l1.785,0.311
								c-0.35,1.163-6.998,23.262-7.962,45.176c-0.972,21.914-0.844,39.288,3.035,60.086
								C216.055,135.735,223.929,155.535,224.344,156.578"/>
						</g>
					</g>
				</g>
			</g>
		</g>
		<g>
			<g>
				<g enable-background="new    ">
					<g enable-background="new    ">
						<defs>
							<path id="SVGID_15_" enable-background="new    " d="M171.854,186.724l-1.785-0.311c7.634-24.961,7.673-61.09,7.675-62.991
								l1.785,0.311C179.527,125.634,179.487,161.763,171.854,186.724z"/>
						</defs>
						<clipPath id="SVGID_16_">
							<use xlink:href="#SVGID_15_"  overflow="visible"/>
						</clipPath>
						<g clip-path="url(#SVGID_16_)" enable-background="new    ">
							<path fill="#A65654" d="M171.854,186.724l-1.785-0.311c7.634-24.961,7.673-61.09,7.675-62.991l1.785,0.311
								C179.527,125.634,179.487,161.763,171.854,186.724"/>
						</g>
					</g>
					<g enable-background="new    ">
						<defs>
							<path id="SVGID_17_" enable-background="new    " d="M179.61,212.876l-1.785-0.31c-8.096-1.408-14.484-3.662-14.989-3.84
								l1.785,0.31C165.126,209.214,171.514,211.468,179.61,212.876z"/>
						</defs>
						<clipPath id="SVGID_18_">
							<use xlink:href="#SVGID_17_"  overflow="visible"/>
						</clipPath>
						<g clip-path="url(#SVGID_18_)" enable-background="new    ">
							<path fill="#A65654" d="M179.61,212.876l-1.785-0.311c-8.096-1.408-14.484-3.662-14.989-3.84l1.785,0.31
								C165.126,209.214,171.514,211.468,179.61,212.876"/>
						</g>
					</g>
					<g>
						<path fill="#7E1E27" d="M179.529,123.733c0.33,1.05,6.608,20.999,9.928,44.993c3.358,24.253,4.944,44.139,5.027,45.186
							c-0.243,0.015-0.486,0.028-0.73,0.039c-13.488,0.605-28.35-4.639-29.133-4.915l7.233-22.312
							C179.487,161.763,179.527,125.634,179.529,123.733z"/>
					</g>
					<g>
						<polygon fill="#A65654" points="164.621,209.036 162.836,208.725 170.069,186.414 171.854,186.724 						"/>
					</g>
				</g>
			</g>
		</g>
		<g>
			<g>
				<g>
					<path fill="#4A1E1D" d="M200.516,169.22c0.3,0.5,5.992,10.006,11.578,17.911c5.594,7.904,18.241,20.298,18.907,20.95
						c-7.793,3.269-22.372,5.493-23.139,5.61L200.516,169.22z"/>
				</g>
			</g>
		</g>
		<g>
			<g>
				<g enable-background="new    ">
					<g>
						<path fill="#7E1E27" d="M200.844,167.403c0.231,0.622,4.62,12.439,10.206,20.344c5.594,7.904,18.241,20.298,18.907,20.95
							c-7.793,3.278-22.364,5.493-23.131,5.609L200.844,167.403z"/>
					</g>
					<g>
						<polygon fill="#A85956" points="206.825,214.307 205.04,213.996 199.059,167.093 200.844,167.403 						"/>
					</g>
				</g>
			</g>
		</g>
	</g>
	<g>
		<linearGradient id="SVGID_19_" gradientUnits="userSpaceOnUse" x1="77.9515" y1="293.7617" x2="77.9515" y2="339.5645">
			<stop  offset="0" style="stop-color:#C5543F"/>
			<stop  offset="0.3342" style="stop-color:#C3533F"/>
			<stop  offset="0.4546" style="stop-color:#BD4E3E"/>
			<stop  offset="0.5405" style="stop-color:#B2473C"/>
			<stop  offset="0.6098" style="stop-color:#A33D3A"/>
			<stop  offset="0.6693" style="stop-color:#902F35"/>
			<stop  offset="0.721" style="stop-color:#7B1F2F"/>
			<stop  offset="0.7637" style="stop-color:#650A27"/>
			<stop  offset="0.8077" style="stop-color:#5D0425"/>
		</linearGradient>
		<polygon fill="url(#SVGID_19_)" points="91.782,302.743 91.782,293.762 64.121,293.762 64.121,339.565 91.423,339.565 
			91.423,331.123 75.077,331.123 75.077,321.063 88.549,321.063 88.549,311.363 75.077,311.363 75.077,302.563 		"/>
		<linearGradient id="SVGID_20_" gradientUnits="userSpaceOnUse" x1="115.7154" y1="288.1079" x2="134.2883" y2="339.1365">
			<stop  offset="0" style="stop-color:#C5543F"/>
			<stop  offset="0.1366" style="stop-color:#C2523F"/>
			<stop  offset="0.2431" style="stop-color:#B94C3E"/>
			<stop  offset="0.3395" style="stop-color:#AA413B"/>
			<stop  offset="0.4299" style="stop-color:#963337"/>
			<stop  offset="0.5152" style="stop-color:#7D2130"/>
			<stop  offset="0.5879" style="stop-color:#650A27"/>
			<stop  offset="0.8077" style="stop-color:#5D0425"/>
		</linearGradient>
		<path fill="url(#SVGID_20_)" d="M103.637,292.504h10.058c0,0-0.719,7.006,0,30.177c7.184,19.219,21.195,5.569,20.297,0
			c-0.539-3.773,0-29.457,0-29.457h9.7c0,0,0.539,6.824,0,28.019c-0.539,21.195-20.657,20.477-20.657,20.477
			s-18.68-0.18-19.398-18.142C102.919,305.617,103.637,292.504,103.637,292.504z"/>
		<linearGradient id="SVGID_21_" gradientUnits="userSpaceOnUse" x1="247.2993" y1="394.9027" x2="247.2993" y2="357.5262">
			<stop  offset="0" style="stop-color:#630626"/>
			<stop  offset="0.456" style="stop-color:#951A29"/>
			<stop  offset="0.8077" style="stop-color:#5D0425"/>
		</linearGradient>
		<path fill="url(#SVGID_21_)" d="M232.167,357.526h7.615c0,0-0.545,5.32,0,22.915c5.441,14.596,16.047,4.228,15.367,0
			c-0.409-2.865,0-22.37,0-22.37h7.342c0,0,0.409,5.184,0,21.279c-0.409,16.094-15.638,15.551-15.638,15.551
			s-14.143-0.138-14.686-13.778C231.624,367.483,232.167,357.526,232.167,357.526z"/>
		<linearGradient id="SVGID_22_" gradientUnits="userSpaceOnUse" x1="223.263" y1="291.5524" x2="223.263" y2="342.327">
			<stop  offset="0" style="stop-color:#C5543F"/>
			<stop  offset="0.214" style="stop-color:#C3533F"/>
			<stop  offset="0.2911" style="stop-color:#BD4E3E"/>
			<stop  offset="0.346" style="stop-color:#B2473C"/>
			<stop  offset="0.3905" style="stop-color:#A33D3A"/>
			<stop  offset="0.4285" style="stop-color:#902F35"/>
			<stop  offset="0.4616" style="stop-color:#7B1F2F"/>
			<stop  offset="0.489" style="stop-color:#650A27"/>
			<stop  offset="0.8077" style="stop-color:#5D0425"/>
		</linearGradient>
		<path fill="url(#SVGID_22_)" d="M246.793,316.939c0,14.021-10.535,25.388-23.529,25.388c-12.997,0-23.531-11.368-23.531-25.388
			c0-14.019,10.534-25.386,23.531-25.386C236.258,291.552,246.793,302.92,246.793,316.939z M223.442,302.442
			c-6.547,0-11.853,6.3-11.853,14.069c0,7.771,5.306,14.071,11.853,14.071s11.857-6.3,11.857-14.071
			C235.299,308.742,229.99,302.442,223.442,302.442z"/>
		<linearGradient id="SVGID_23_" gradientUnits="userSpaceOnUse" x1="273.7097" y1="292.3781" x2="273.7097" y2="340.5228">
			<stop  offset="0" style="stop-color:#C5543F"/>
			<stop  offset="0.1803" style="stop-color:#C3533F"/>
			<stop  offset="0.2453" style="stop-color:#BD4E3E"/>
			<stop  offset="0.2916" style="stop-color:#B2473C"/>
			<stop  offset="0.3291" style="stop-color:#A33D3A"/>
			<stop  offset="0.3611" style="stop-color:#902F35"/>
			<stop  offset="0.389" style="stop-color:#7B1F2F"/>
			<stop  offset="0.4121" style="stop-color:#650A27"/>
			<stop  offset="0.8077" style="stop-color:#5D0425"/>
		</linearGradient>
		<path fill="url(#SVGID_23_)" d="M268.347,340.523H257.75v-47.72c0,0,5.809-0.957,13.232,0c28.665,0.824,20.761,33.38,0.36,29.817
			c0,0-0.015-8.98,0-8.141c1.945,1.466,16.539-5.091,3.593-13.594h-6.587V340.523z"/>
		<linearGradient id="SVGID_24_" gradientUnits="userSpaceOnUse" x1="312.0479" y1="292.1307" x2="312.0479" y2="340.4709">
			<stop  offset="0" style="stop-color:#C5543F"/>
			<stop  offset="0.19" style="stop-color:#C3533F"/>
			<stop  offset="0.2584" style="stop-color:#BD4E3E"/>
			<stop  offset="0.3072" style="stop-color:#B2473C"/>
			<stop  offset="0.3466" style="stop-color:#A33D3A"/>
			<stop  offset="0.3804" style="stop-color:#902F35"/>
			<stop  offset="0.4097" style="stop-color:#7B1F2F"/>
			<stop  offset="0.4341" style="stop-color:#650A27"/>
			<stop  offset="0.8077" style="stop-color:#5D0425"/>
		</linearGradient>
		<polygon fill="url(#SVGID_24_)" points="312.017,292.131 288.192,340.471 299.067,340.345 303.343,331.482 317.046,331.545 
			314.154,325.322 306.547,325.134 312.143,313.817 325.281,340.283 335.904,340.407 		"/>
		<linearGradient id="SVGID_25_" gradientUnits="userSpaceOnUse" x1="170.8012" y1="390.694" x2="170.8012" y2="355.0547">
			<stop  offset="0" style="stop-color:#630626"/>
			<stop  offset="0.456" style="stop-color:#951A29"/>
			<stop  offset="0.8077" style="stop-color:#5D0425"/>
		</linearGradient>
		<polygon fill="url(#SVGID_25_)" points="170.777,355.055 153.043,390.694 161.138,390.601 164.32,384.066 174.521,384.115 
			172.369,379.525 166.707,379.385 170.871,371.044 180.651,390.556 188.56,390.649 		"/>
		<linearGradient id="SVGID_26_" gradientUnits="userSpaceOnUse" x1="107.649" y1="391.5345" x2="107.649" y2="356.2081">
			<stop  offset="0" style="stop-color:#630626"/>
			<stop  offset="0.456" style="stop-color:#951A29"/>
			<stop  offset="0.8077" style="stop-color:#5D0425"/>
		</linearGradient>
		<polygon fill="url(#SVGID_26_)" points="96.632,356.208 104.775,356.208 104.775,384.35 118.785,384.35 118.785,391.535 
			96.513,391.535 		"/>
		<linearGradient id="SVGID_27_" gradientUnits="userSpaceOnUse" x1="136.8067" y1="391.0554" x2="136.8067" y2="356.0886">
			<stop  offset="0" style="stop-color:#630626"/>
			<stop  offset="0.456" style="stop-color:#951A29"/>
			<stop  offset="0.8077" style="stop-color:#5D0425"/>
		</linearGradient>
		<polygon fill="url(#SVGID_27_)" points="126.568,356.089 146.925,356.089 146.925,363.633 134.831,363.633 134.831,370.099 
			145.01,370.099 145.01,377.166 134.951,377.166 134.951,384.47 147.045,384.47 147.045,391.055 126.688,391.055 		"/>
		<linearGradient id="SVGID_28_" gradientUnits="userSpaceOnUse" x1="280.7415" y1="392.0138" x2="280.7415" y2="357.0488">
			<stop  offset="0" style="stop-color:#630626"/>
			<stop  offset="0.456" style="stop-color:#951A29"/>
			<stop  offset="0.8077" style="stop-color:#5D0425"/>
		</linearGradient>
		<polygon fill="url(#SVGID_28_)" points="270.503,357.049 290.861,357.049 290.861,364.591 278.765,364.591 278.765,371.058 
			288.944,371.058 288.944,378.123 278.886,378.123 278.886,385.428 290.98,385.428 290.98,392.014 270.624,392.014 		"/>
		<linearGradient id="SVGID_29_" gradientUnits="userSpaceOnUse" x1="209.0742" y1="393.597" x2="209.0742" y2="355.1635">
			<stop  offset="0" style="stop-color:#630626"/>
			<stop  offset="0.456" style="stop-color:#951A29"/>
			<stop  offset="0.8077" style="stop-color:#5D0425"/>
		</linearGradient>
		<path fill="url(#SVGID_29_)" d="M222.844,366.985l0.958-8.501c0,0-30.183-14.654-30.774,17.604
			c6.611,29.21,32.092,13.05,32.092,13.05v-16.644h-14.251v5.868h6.466v6.107c0,0-17.004,5.389-15.088-14.13
			C202.247,370.34,206.441,355.13,222.844,366.985z"/>
		<linearGradient id="SVGID_30_" gradientUnits="userSpaceOnUse" x1="176.4727" y1="292.6948" x2="176.4727" y2="340.1043">
			<stop  offset="0" style="stop-color:#C5543F"/>
			<stop  offset="0.2381" style="stop-color:#C3533F"/>
			<stop  offset="0.3238" style="stop-color:#BD4E3E"/>
			<stop  offset="0.3849" style="stop-color:#B2473C"/>
			<stop  offset="0.4344" style="stop-color:#A33D3A"/>
			<stop  offset="0.4767" style="stop-color:#902F35"/>
			<stop  offset="0.5135" style="stop-color:#7B1F2F"/>
			<stop  offset="0.544" style="stop-color:#650A27"/>
			<stop  offset="0.8077" style="stop-color:#5D0425"/>
		</linearGradient>
		<path fill="url(#SVGID_30_)" d="M174.467,292.923c9.46,0.479,23.381,16.736,7.485,26.284c-1.078,0.18-0.958,1.078-0.958,1.078
			l14.429,19.82h-12.393c0,0-11.316-16.526-12.394-17.963c-1.078-1.436-2.155-0.718-2.155-0.718v18.681h-10.956v-47.241
			C157.523,292.864,165.074,292.447,174.467,292.923z M168.739,301.158v15.026c0,0,11.438,0.318,11.478-7.532
			C180.217,308.651,181.559,300.132,168.739,301.158z"/>
		<g>
			<path fill="#5D0425" d="M254.123,253.813c-7.912-8.311-17.41-15.002-27.982-19.554c-10.172-4.378-21.355-6.779-33.088-6.735
				c-11.731,0.045-22.893,2.529-33.029,6.988c-10.536,4.627-19.984,11.396-27.834,19.761l-2.08-2.073
				c8.112-8.649,17.882-15.641,28.782-20.431c10.499-4.617,22.04-7.186,34.149-7.235c12.111-0.045,23.672,2.436,34.209,6.976
				c10.939,4.709,20.759,11.628,28.937,20.216L254.123,253.813L254.123,253.813z"/>
			<path fill="#5D0425" d="M229.008,277.848c-4.605-5.145-10.232-9.303-16.541-12.143c-6.066-2.725-12.773-4.227-19.824-4.2
				c-7.055,0.027-13.756,1.582-19.804,4.36c-6.285,2.884-11.879,7.094-16.448,12.284l-2.148-2.014c4.831-5.486,10.755-9.94,17.42-13
				c6.413-2.944,13.507-4.59,20.971-4.619c7.455-0.03,14.558,1.562,20.991,4.451c6.678,3.005,12.63,7.406,17.506,12.852
				L229.008,277.848L229.008,277.848z"/>
			<path fill-rule="evenodd" clip-rule="evenodd" fill="#5D0425" d="M152.326,244.078l6.788,8.05
				c3.964,4.703,2.235,9.099-1.525,12.469c-3.979,3.57-8.466,4.23-12.167-0.161l-6.803-8.07l3.417-3.063l6.874,8.158
				c1.719,2.036,4.181,1.987,6.149,0.222c1.81-1.622,2.656-4.096,0.517-6.636l-6.665-7.904L152.326,244.078L152.326,244.078z"/>
			<polygon fill-rule="evenodd" clip-rule="evenodd" fill="#5D0425" points="188.062,253.115 174.286,256.068 170.209,237.728 
				183.794,234.816 184.541,238.18 175.613,240.093 176.468,243.94 184.984,242.111 185.733,245.474 177.214,247.298 
				178.194,251.708 187.316,249.754 188.062,253.115 			"/>
			<polygon fill-rule="evenodd" clip-rule="evenodd" fill="#5D0425" points="215.352,240.251 206.841,238.76 206.021,242.735 
				214.531,244.226 213.855,247.496 205.345,246.005 203.831,253.327 199.01,252.483 202.698,234.644 216.028,236.98 
				215.352,240.251 			"/>
			<path fill-rule="evenodd" clip-rule="evenodd" fill="#5D0425" d="M232.629,259.358l-4.884-3.43l6.561-4.659L232.629,259.358
				L232.629,259.358z M239.146,248.964l-4.58-3.216l-17.304,11.705l4.186,2.941l3.346-2.371l7.095,4.983l-0.857,4.121l4.254,2.995
				L239.146,248.964L239.146,248.964z"/>
		</g>
	</g>
</g>
</svg>
