<?xml version="1.0" encoding="utf-8"?>
<!-- Generator: Adobe Illustrator 19.1.0, SVG Export Plug-In . SVG Version: 6.00 Build 0)  -->
<svg version="1.1" id="Layer_1" xmlns="http://www.w3.org/2000/svg" xmlns:xlink="http://www.w3.org/1999/xlink" x="0px" y="0px"
	 viewBox="0 0 160 160" style="enable-background:new 0 0 160 160;" xml:space="preserve">
<style type="text/css">
	.st0{fill:#FFFFFF;}
</style>
<polygon points="137,9.6 137,118.5 80.9,152.3 24.9,118.5 24.9,9.6 "/>
<polygon class="st0" points="27.4,12.1 27.4,117.1 80.9,149.3 134.4,117.1 134.4,12.1 "/>
<polygon points="31.2,15.8 31.2,115 80.9,144.9 130.7,115 130.7,15.8 "/>
<polygon class="st0" points="33.7,18.4 33.7,113.6 80.9,142 128.2,113.6 128.2,18.4 "/>
<polygon points="50.4,36.6 36.4,60.7 80.9,136.5 125.5,60.7 111.5,36.6 "/>
<path d="M50.7,31l-1.2,3.3h-1.6l4.3-11.4H54l4.1,11.4h-1.7L55.3,31H50.7z M54.7,29.6l-1.7-5l0,0l-1.8,5H54.7z"/>
<path d="M67,22.9h1.5v11.4h-1.7L61,25.1l0,0v9.2h-1.5V22.9h1.8l5.7,9.2l0,0V22.9z"/>
<path d="M75.9,28.2h5v6.1h-1l-0.4-1.5c-0.8,1.1-2.2,1.8-3.8,1.8c-1.9,0-2.9-0.7-3.5-1.3c-1.7-1.6-1.8-3.6-1.8-4.8
	c0-2.8,1.7-5.9,5.4-5.9c2.1,0,4.5,1.2,4.8,3.8h-1.5c-0.5-2-2.2-2.4-3.4-2.4c-2,0-3.7,1.6-3.7,4.6c0,2.3,0.8,4.7,3.8,4.7
	c0.6,0,1.5-0.1,2.3-0.7c1-0.8,1.3-1.8,1.3-3h-3.6L75.9,28.2L75.9,28.2z"/>
<path d="M91.8,34.3h-8.4V22.9h8.3v1.4H85v3.5h6.2v1.4H85V33h6.9L91.8,34.3L91.8,34.3z"/>
<path d="M95.6,34.3H94V22.9h5.3c1.9,0,3.7,0.6,3.7,3.1c0,1.7-0.9,2.3-1.6,2.7c0.6,0.3,1.3,0.6,1.4,2.1l0.1,2.1
	c0,0.6,0.1,0.9,0.6,1.1v0.3h-1.9c-0.2-0.7-0.3-2.4-0.3-2.9c0-0.9-0.2-2-2-2h-3.7V34.3z M95.6,28.1h3.6c1.1,0,2.3-0.3,2.3-2
	c0-1.8-1.3-1.9-2-1.9h-3.8L95.6,28.1L95.6,28.1z"/>
<path d="M112.2,26.3c-0.1-1.8-1.5-2.3-2.8-2.3c-1,0-2.6,0.3-2.6,2c0,1,0.7,1.3,1.3,1.4l3.2,0.7c1.5,0.3,2.6,1.2,2.6,3
	c0,2.7-2.5,3.4-4.5,3.4c-2.1,0-2.9-0.6-3.4-1.1c-1-0.9-1.2-1.8-1.2-2.9h1.4c0,2.1,1.7,2.7,3.1,2.7c1.1,0,3-0.3,3-1.9
	c0-1.2-0.6-1.6-2.4-2l-2.3-0.5c-0.7-0.2-2.4-0.7-2.4-2.7c0-1.8,1.2-3.5,3.9-3.5c4,0,4.4,2.4,4.4,3.6L112.2,26.3L112.2,26.3z"/>
<path class="st0" d="M53.3,62.5c0,1,0.5,2.9,3.8,2.9c1.8,0,3.8-0.4,3.8-2.3c0-1.4-1.4-1.8-3.3-2.2l-1.9-0.5
	c-2.9-0.7-5.7-1.3-5.7-5.3c0-2,1.1-5.5,6.9-5.5c5.5,0,7,3.6,7,5.8h-3.6c-0.1-0.8-0.4-2.7-3.7-2.7c-1.4,0-3.1,0.5-3.1,2.2
	c0,1.4,1.2,1.7,1.9,1.9l4.4,1.1c2.5,0.6,4.7,1.6,4.7,4.8c0,5.4-5.5,5.9-7.1,5.9c-6.6,0-7.7-3.8-7.7-6L53.3,62.5L53.3,62.5z"/>
<path class="st0" d="M83.9,56c-0.3-1.1-0.9-3.1-4-3.1c-1.8,0-4.5,1.2-4.5,6.3c0,3.2,1.3,6.1,4.5,6.1c2.1,0,3.5-1.2,4-3.4h3.8
	c-0.8,3.9-3.3,6.6-7.8,6.6c-4.8,0-8.2-3.2-8.2-9.4c0-6.3,3.6-9.5,8.3-9.5c5.4,0,7.6,3.7,7.8,6.4H83.9z"/>
<path class="st0" d="M103.5,49.6c2.4,0,8.6,1,8.6,9.5c0,8.4-6.3,9.5-8.6,9.5c-2.4,0-8.6-1-8.6-9.5S101.1,49.6,103.5,49.6z
	 M103.5,65.4c2,0,4.9-1.3,4.9-6.3s-2.9-6.3-4.9-6.3s-4.9,1.3-4.9,6.3S101.5,65.4,103.5,65.4z"/>
<path d="M50.1,110.9L50.1,110.9l-1.9,1.1l-0.3-1.2l2.3-1.4h1.2v11.8H50v-10.3H50.1z"/>
<path d="M56.1,120c0.3,0,0.7,0,1.1-0.1c0.8-0.1,1.6-0.5,2.2-1.1c0.7-0.7,1.2-1.7,1.4-3.1l0,0c-0.6,0.8-1.4,1.3-2.5,1.3
	c-1.9,0-3.1-1.6-3.1-3.6c0-2.2,1.4-4.2,3.6-4.2c2.1,0,3.5,1.9,3.5,5c0,2.6-0.8,4.4-1.8,5.5c-0.8,0.9-1.9,1.4-3,1.6
	c-0.5,0.1-1,0.1-1.3,0.1V120H56.1z M58.7,110.3c-1.2,0-2,1.2-2,2.9c0,1.5,0.8,2.5,2,2.5c0.9,0,1.7-0.5,2.1-1.2
	c0.1-0.1,0.1-0.3,0.1-0.6C60.8,111.9,60.2,110.3,58.7,110.3L58.7,110.3z"/>
<path d="M101.7,110.9L101.7,110.9l-1.9,1.1l-0.3-1.2l2.3-1.4h1.2v11.8h-1.4v-10.3H101.7z"/>
<path d="M107.7,120c0.3,0,0.7,0,1.1-0.1c0.8-0.1,1.6-0.5,2.2-1.1c0.7-0.7,1.2-1.7,1.4-3.1l0,0c-0.6,0.8-1.4,1.3-2.5,1.3
	c-1.9,0-3.1-1.6-3.1-3.6c0-2.2,1.4-4.2,3.6-4.2c2.1,0,3.5,1.9,3.5,5c0,2.6-0.8,4.4-1.8,5.5c-0.8,0.9-1.9,1.4-3,1.6
	c-0.5,0.1-1,0.1-1.3,0.1L107.7,120L107.7,120z M110.3,110.3c-1.2,0-2,1.2-2,2.9c0,1.5,0.8,2.5,2,2.5c0.9,0,1.7-0.5,2.1-1.2
	c0.1-0.1,0.1-0.3,0.1-0.6C112.4,111.9,111.8,110.3,110.3,110.3L110.3,110.3z"/>
<path class="st0" d="M74,122.6c3.8,6.5,6.5,11,6.9,11.7c0.4-0.7,3.1-5.2,6.9-11.7V72.8H74V122.6z"/>
<rect x="74" y="37.7" class="st0" width="13.8" height="8.8"/>
<path class="st0" d="M58.3,95.9V72.8H44.8C48.7,79.5,53.5,87.7,58.3,95.9z"/>
<path class="st0" d="M58.3,37.7H51c-1.8,3.1-3.5,6.1-5.1,8.8h12.4C58.3,46.5,58.3,37.7,58.3,37.7z"/>
<path class="st0" d="M110.8,37.7h-7.3v8.8h12.4C114.4,43.8,112.6,40.8,110.8,37.7z"/>
<path class="st0" d="M117.1,72.8h-13.6v23.1C108.4,87.7,113.2,79.5,117.1,72.8z"/>
</svg>
