<?xml version="1.0" encoding="utf-8"?>
<!-- Generator: Adobe Illustrator 19.1.0, SVG Export Plug-In . SVG Version: 6.00 Build 0)  -->
<svg version="1.1" id="Layer_1" xmlns="http://www.w3.org/2000/svg" xmlns:xlink="http://www.w3.org/1999/xlink" x="0px" y="0px"
	 viewBox="-29 31 100 100" style="enable-background:new -29 31 100 100;" xml:space="preserve">
<style type="text/css">
	.st0{fill:#D8AA28;}
	.st1{fill:#D12027;}
	.st2{fill:#FFFFFF;}
</style>
<g>
	<path class="st0" d="M4.2,56.9c0.1,0,0.2,0.1,0.3,0.1c0.1,0,0.2-0.1,0.2-0.1c0.1-0.1,0.1-0.3,0-0.4c0-0.1-1.5-1.5-2.9-3
		c-1.5-1.9-2.3-3.3-2-4.3c0.2-0.7,0.7-1.2,1.6-1.6c-0.3-0.5-0.5-1.2-0.7-1.8c-0.5,0-1.1,0-1.6,0c-0.8,0.1-1.5,0.3-2,0.6
		c-0.7,0.4-1.3,1.2-1.6,2.1C-5.5,52.3,1.3,55.5,4.2,56.9z"/>
	<path class="st0" d="M11.3,56c0.1,0.1,0.3,0.1,0.3,0.1c0.1,0,0.2,0,0.3-0.1c0.2-0.1,0.2-0.3,0.1-0.5c-2.3-2.7-6.4-8.1-5-11.4
		c1.2-2.3,4.8-1.2,5.7-1c0.4,0.1,0.7,0.2,1-0.1c0.1-0.2-0.1-0.4-0.2-0.5c-2.5-2.5-4.7-2.9-6-2.9c-0.1,0-0.2,0-0.3,0
		c-2.1,0.1-3.7,1.1-4.8,2.9c-1.8,3.2,1.2,6.6,3.2,8.9C7.9,53.9,10.9,55.8,11.3,56z"/>
	<path class="st1" d="M4.9,51.7l-0.1-0.1c-0.3-0.2-0.4-0.4-0.6-0.6c-0.3,0.6-0.2,1.6,0.3,2.7c1.1,2,1.6,2.5,1.6,2.5s1.2-0.1,3.3-0.2
		C7.5,54.5,5.9,53,4.9,51.7z"/>
	<path class="st1" d="M13,55.3c0,0,0.2,0.2,0.2,0.3c1.3-0.1,2.8-0.1,4.4-0.1c-0.2-0.5-1.6-4.5-1.7-8.8c-2.2,0.2-5.3,1-7.3,1.8
		C9.4,50.9,11.2,53.2,13,55.3z"/>
	<path class="st0" d="M18.5,37.4c-0.9,0.2-1.6,1.1-1.6,2c0,1.2,1,2.1,2.2,2.1c1.1,0,2.2-1,2.2-2.1c0-1-0.6-1.8-1.6-2v-1.9h1.9v-1.1
		h-1.9v-1.9h-0.5h-0.5v1.9h-2.2v1.1h1.9v1.9C18.4,37.4,18.5,37.4,18.5,37.4z"/>
	<path class="st0" d="M44.9,64c-0.3-0.1-8.1-3-25.9-3s-25.5,2.8-25.9,3c-0.2,0.2-1.7,8.4-1.7,16.7s1.7,19,7.5,27.5
		s17.8,19.1,20.1,20.3c2.1-1.2,14.3-11.9,20.1-20.3s7.5-19.1,7.5-27.5C46.6,72.5,45.1,64.2,44.9,64z"/>
	<path class="st0" d="M33.4,56.2c-0.1,0.1-0.1,0.3,0,0.4c0.1,0.1,0.1,0.1,0.2,0.1s0.2,0,0.3-0.1c2.9-1.5,9.6-4.6,8.7-8.3
		c-0.2-0.9-0.7-1.6-1.6-2.1c-0.5-0.3-1.2-0.5-2-0.6c-0.4,0-1-0.1-1.6,0c-0.1,0.5-0.4,1.1-0.7,1.8c0.7,0.2,1.3,0.7,1.6,1.6
		c0.3,0.9-0.4,2.5-2,4.3C34.9,54.8,33.5,56.1,33.4,56.2z"/>
	<path class="st0" d="M25.5,43.1c0.7-0.2,4.4-1.2,5.7,1c1.6,3.3-2.7,8.8-5,11.4c-0.1,0.1-0.1,0.3,0.1,0.5c0.1,0.1,0.2,0.1,0.3,0.1
		c0,0,0.2,0,0.3-0.1c0.3-0.2,3.3-2.2,5.7-4.9c2-2.2,5-5.7,3.2-8.9c-1-1.8-2.7-2.8-4.9-2.9c-0.1,0-0.2,0-0.3,0c-1.5,0-3.6,0.5-6,2.9
		c0,0-0.3,0.3-0.2,0.5C24.7,43.3,25,43.2,25.5,43.1z"/>
	<path class="st1" d="M34,51c-0.2,0.2-0.3,0.4-0.5,0.6l-0.1,0.1c-1.2,1.3-2.8,2.8-4.6,4.1c2.1,0.1,3.3,0.2,3.3,0.2s0.4-0.5,1.6-2.5
		C34.2,52.5,34.3,51.6,34,51z"/>
	<path class="st1" d="M24.9,55.6c0.1-0.1,0.2-0.2,0.2-0.3c1.7-2,3.4-4.6,4.5-6.7c-2-0.7-5-1.6-7.3-1.8c-0.1,4.3-1.6,8.2-1.7,8.8
		C22.2,55.5,23.5,55.6,24.9,55.6z"/>
	<path class="st0" d="M19.1,42.2c-1.1,0-2,1.8-2,5.4c0,2.2,1,6.8,1.7,8.1c0.1,0.1,0.2,0.2,0.2,0.2c0.1,0,0.2-0.1,0.2-0.2
		c0.6-1.1,1.7-5.9,1.7-8.1C21.1,44.1,20.1,42.2,19.1,42.2z"/>
	<path class="st0" d="M19.1,57.1c-6.8,0-12.3,0.5-12.3,0.5v2.2c0,0,5.3-0.5,12.3-0.5s12.3,0.5,12.3,0.5v-2.2
		C31.3,57.6,26,57.1,19.1,57.1z"/>
	<path class="st2" d="M42.2,66.2c-0.2-0.1-7.5-2.1-23.2-2.1C3.4,64-3.8,66.1-4.1,66.2c-0.2,0.2-1.2,8.3-1.2,15.7
		c0,7.3,1.5,17.1,6.6,24.6c5.1,7.4,15.8,17,17.8,18.1c2-1.2,12.8-10.8,17.8-18.1c5.1-7.5,6.6-17.2,6.6-24.6
		C43.5,74.6,42.5,66.4,42.2,66.2z"/>
	<path class="st0" d="M35.7,104.6c-4.8,6.8-14.8,16.2-16.7,17.2c-1.8-1-11.9-10.4-16.7-17.2S-3.9,88.7-3.9,82c0-6.6,1-14.2,1.1-14.4
		c0.2-0.1,6.9-1.9,21.8-1.9c14.6,0,21.5,1.8,21.7,1.9c0.3,0.2,1.1,7.7,1.1,14.4C41.9,88.7,40.5,97.7,35.7,104.6z"/>
	<path class="st2" d="M40.3,79.1H-2.3c0,1,0,2,0,3c0,4,0.5,14.2,5.9,21.8c4.4,6.2,12.8,14.1,15.4,16.2c2.8-2.1,11.1-10,15.4-16.2
		c5.3-7.7,5.9-17.7,5.9-21.8C40.4,81,40.3,80.1,40.3,79.1z"/>
	<path class="st1" d="M0.6,96.7c0.7,2.3,1.9,4.6,3.4,6.6c1.3,1.9,3,3.8,4.8,5.9V80.3H0.7v16.4H0.6z"/>
	<path class="st1" d="M14.4,80.3V115c2,1.9,3.6,3.4,4.7,4.4c1-0.9,2.8-2.5,4.7-4.4V80.3H14.4z"/>
	<path class="st1" d="M40.3,79.1c-0.1-4.5-0.6-8.5-0.9-10.4c-2-0.4-8.5-1.6-20.4-1.6S0.7,68.3-1.3,68.7c-0.2,1.7-0.6,5.9-0.9,10.4
		H40.3z"/>
	<path class="st1" d="M29.3,109.2c1.8-2,3.4-4,4.8-5.9c1.5-2.1,2.6-4.4,3.4-6.6V80.3h-8.1v28.9H29.3z"/>
	<path class="st2" d="M3.6,72.7c0-0.3,0.2-0.4,0.5-0.4c0.2,0,0.3,0.1,0.5,0.1l0.2-0.7c-0.2-0.1-0.5-0.2-0.9-0.2
		c-0.9,0-1.3,0.6-1.3,1.5c0,0.7,0.3,1.1,0.9,1.6C3.8,74.7,4,74.8,4,75.2c0,0.3-0.2,0.5-0.5,0.5c-0.2,0-0.3,0-0.4-0.1l-0.3,0.7
		c0.2,0.2,0.5,0.2,0.9,0.2c0.9,0,1.5-0.6,1.5-1.6C5.2,73.6,3.6,73.6,3.6,72.7"/>
	<path class="st2" d="M5.7,76.5h1.5L7.4,72l0,0v0.1l0.9,4.3H9l0.7-4.5l0,0l0.3,4.5h1.5c0,0-0.2-0.2-0.2-0.6c0-0.3-0.5-5.2-0.5-5.8
		c-0.5,0-1.1,0.1-1.7,0.1l-0.4,3.7l0,0L8.2,70c-0.5,0-1.1,0.1-1.6,0.1c-0.1,0.9-0.4,5.2-0.4,5.6C5.8,76.3,5.7,76.5,5.7,76.5"/>
	<path class="st2" d="M16.3,76.5h1.3v-3v-0.2v-0.6l0,0l1.5,3.8h1.1v-6c0-0.3,0.1-0.5,0.2-0.6c-0.4,0-0.9,0-1.3,0l0,0v3.1
		c0,0.3,0,0.6,0.1,1l0,0l-1.5-4.1c-0.4,0-0.7,0-1.2,0v6C16.5,76.3,16.3,76.5,16.3,76.5"/>
	<path class="st2" d="M25,73.2c0,1.7,1,3.3,2.8,3.3c0.4,0,0.6-0.1,0.9-0.2l-0.3-1.1c-0.1,0-0.3,0.1-0.4,0.1c-1.1,0-1.6-1.1-1.6-2.1
		c0-0.9,0.4-2,1.6-2c0.1,0,0.3,0,0.4,0.1l0.3-1c-0.2-0.1-0.4-0.2-0.6-0.2c-0.1,0-0.2,0-0.3,0C26,70.1,25,71.7,25,73.2"/>
	<polygon class="st2" points="35.9,72.4 36.1,71.4 33.8,71.4 33.8,76.5 34.8,76.5 34.8,74.4 35.6,74.4 35.6,73.5 34.8,73.5 
		34.8,72.4 	"/>
	<path class="st2" d="M38.4,75.7c-0.9,0-1.3-0.7-1.3-1.7c0-0.9,0.4-1.7,1.2-1.7c0.1,0,0.2,0,0.3,0l0.2-0.7c-0.2-0.1-0.4-0.1-0.6-0.1
		c-1.3,0-2.1,1.3-2.1,2.6c0,1.3,0.9,2.6,2.3,2.6c0.3,0,0.5-0.1,0.6-0.2l-0.2-0.7C38.7,75.6,38.6,75.7,38.4,75.7"/>
	<path class="st2" d="M13.7,75.4c-0.7,0-0.9-1.7-0.9-2.1c0-0.5,0.1-2.1,0.9-2.1c0.7,0,0.9,1.6,0.9,2.1
		C14.6,73.8,14.5,75.4,13.7,75.4 M13.7,69.9c-1.1,0-2.1,0.9-2.1,3.3c0,2.4,1.1,3.3,2.1,3.3c1.1,0,2.1-0.9,2.1-3.3
		C15.8,70.9,14.8,69.9,13.7,69.9"/>
	<path class="st2" d="M22.7,72.5l0.1-0.7l0,0l0.1,0.7l0.3,1.8h-0.9L22.7,72.5z M22,76.5l0.2-1.2h1.2l0.2,1.2H25c0,0-0.2-0.2-0.3-0.5
		s-1.1-5.2-1.3-6c-0.4,0-0.9,0-1.3,0l-1.5,6.6H22C22,76.6,22,76.5,22,76.5z"/>
	<path class="st2" d="M30.8,75.5c-0.7,0-0.9-1.6-0.9-2c0-0.5,0.1-2,0.9-2c0.7,0,0.9,1.5,0.9,2C31.7,74,31.7,75.5,30.8,75.5
		 M30.8,70.3c-1.1,0-2.1,0.9-2.1,3.1c0,2.3,1.1,3.1,2.1,3.1c1.1,0,2.1-0.9,2.1-3.1C33.1,71.2,31.9,70.3,30.8,70.3"/>
	<path class="st2" d="M0.4,74.7l0.2-1.3l0.1-0.5l0,0l0.1,0.5L1,74.7H0.4z M1.3,71.5H0.3l-1.1,5h1l0.2-1h1l0.2,1h1.1
		c0,0-0.1-0.1-0.2-0.4C2.3,75.8,1.3,71.5,1.3,71.5"/>
</g>
</svg>
