<?xml version="1.0" encoding="utf-8"?>
<!-- Generator: Adobe Illustrator 19.1.0, SVG Export Plug-In . SVG Version: 6.00 Build 0)  -->
<svg version="1.1" id="Layer_1" xmlns="http://www.w3.org/2000/svg" xmlns:xlink="http://www.w3.org/1999/xlink" x="0px" y="0px"
	 viewBox="0 0 160 160" style="enable-background:new 0 0 160 160;" xml:space="preserve">
<style type="text/css">
	.st0{fill:#241F46;}
	.st1{fill:#FFFFFF;}
</style>
<g>
	<path class="st0" d="M79.4,10.9C42.7,10.9,24,22.4,24,22.4v56.8c0,0,0,30.7,19.2,49.9c0,0,12.6,13.9,36.2,19.4
		c23.6-5.6,36.2-19.4,36.2-19.4c19.2-19.2,19.2-49.9,19.2-49.9V22.4C134.8,22.4,116,10.9,79.4,10.9z"/>
	<path class="st1" d="M79.4,14.4c29.2,0,46.7,7.5,51.9,10.1c0,3.9,0,54.7,0,54.7c0,0.3-0.3,29.5-18.2,47.5l-0.1,0.1l-0.1,0.1
		c-0.1,0.1-12,12.8-33.6,18.2c-21.6-5.4-33.5-18.1-33.6-18.2l-0.1-0.1l-0.1-0.1c-17.9-17.9-18.2-47.2-18.2-47.5c0,0,0-50.8,0-54.7
		C32.7,21.9,50.2,14.4,79.4,14.4z"/>
	<path class="st0" d="M79.4,19.6c0,0-30,0.2-46.3,9.5v50.5c0,0,0,27.2,16.5,41.9c16.4,14.5,29.8,15.8,29.8,15.8s13.4-1.3,29.8-15.8
		c16.5-14.7,16.5-41.9,16.5-41.9V29.1C109.4,19.8,79.4,19.6,79.4,19.6z"/>
	<path class="st1" d="M45,38.1c0-0.3,0-0.5-0.1-0.7c0-0.2-0.1-0.3-0.2-0.3c0,0-0.1,0-0.2,0c-0.3,0-0.4-0.1-0.4-0.3
		c0-0.1,0-0.2,0.1-0.2c0.1-0.1,0.2-0.1,0.3-0.1c0,0,0.1,0,0.2,0c0.5,0,1.1,0,1.6,0c0.5,0,1.1,0,1.7,0c0.1,0,0.2,0,0.2,0
		c0.1,0,0.2,0,0.3,0.1c0.1,0,0.1,0.1,0.1,0.2c0,0.2-0.1,0.3-0.3,0.3c-0.1,0-0.1,0-0.2,0.1c-0.2,0-0.3,0.1-0.4,0.2
		c-0.1,0.1-0.1,0.4-0.1,0.8v2.2c0,0.3,0,0.5-0.1,0.6c-0.1,0.1-0.2,0.3-0.3,0.4c-0.3,0.3-0.7,0.5-1.2,0.6c-0.5,0.1-1.1,0.2-1.6,0.2
		c-1.5,0-2.7-0.5-3.6-1.6c-0.9-1.1-1.4-2.5-1.4-4.3c0-1.7,0.5-3.2,1.5-4.3c1-1.2,2.2-1.7,3.6-1.7c0.6,0,1.1,0.1,1.6,0.2
		c0.5,0.1,0.8,0.3,1,0.5c0.1,0.1,0.1,0.2,0.1,0.3c0,0.1,0.1,0.3,0.1,0.6l0.1,1c0,0.1,0,0.1,0,0.2c0,0.1,0,0.2,0,0.3
		c0,0.2,0,0.4-0.1,0.5c-0.1,0.1-0.2,0.1-0.3,0.1c-0.2,0-0.3,0-0.4-0.1c-0.1-0.1-0.2-0.3-0.3-0.5c0-0.1-0.1-0.2-0.2-0.4
		c-0.5-1.2-1.1-1.8-1.7-1.8c-0.7,0-1.1,0.5-1.5,1.4c-0.3,0.9-0.5,2.3-0.5,4.1c0,1.5,0.2,2.7,0.6,3.7c0.4,0.9,0.8,1.4,1.4,1.4
		c0.3,0,0.5-0.1,0.6-0.3C45,40.9,45,40.6,45,40V38.1z"/>
	<path class="st1" d="M53.3,40.3c0,0.4,0,0.6,0.1,0.7c0,0.1,0.1,0.2,0.2,0.3c0,0,0.1,0,0.2,0c0.3,0,0.5,0.2,0.5,0.3
		c0,0.1,0,0.2-0.1,0.2c-0.1,0-0.2,0.1-0.4,0.1c0,0-0.1,0-0.2,0c-0.5,0-1.1-0.1-1.6-0.1c-0.5,0-1.1,0-1.7,0.1c-0.1,0-0.2,0-0.3,0
		c-0.1,0-0.2,0-0.3-0.1c-0.1,0-0.1-0.1-0.1-0.2c0-0.2,0.1-0.3,0.4-0.4c0.1,0,0.1,0,0.1,0c0.2,0,0.3-0.1,0.4-0.2
		c0.1-0.1,0.1-0.4,0.1-0.7V32c0-0.3,0-0.5-0.1-0.7c-0.1-0.1-0.1-0.2-0.3-0.3c-0.1,0-0.1,0-0.3-0.1c-0.3,0-0.5-0.2-0.5-0.3
		c0-0.1,0-0.2,0.1-0.2c0.1,0,0.2-0.1,0.3-0.1c0,0,0.1,0,0.3,0c0.6,0,1.2,0,1.7,0c0.5,0,1.1,0,1.6,0c0.1,0,0.2,0,0.2,0
		c0.2,0,0.3,0,0.3,0.1c0.1,0,0.1,0.1,0.1,0.2c0,0.2-0.1,0.3-0.3,0.3c-0.1,0-0.1,0-0.1,0c-0.2,0-0.3,0.1-0.4,0.2
		c-0.1,0.1-0.1,0.4-0.1,0.8V40.3z"/>
	<path class="st1" d="M56.1,40.2V32c0-0.3,0-0.5-0.1-0.7c-0.1-0.1-0.1-0.2-0.3-0.3c0,0-0.1,0-0.3,0c-0.3,0-0.5-0.1-0.5-0.3
		c0-0.1,0-0.2,0.1-0.2c0.1,0,0.2-0.1,0.3-0.1h1.1h3.5c1.2,0,2.1,0.2,2.7,0.7c0.6,0.5,1,1.2,1,2.1c0,0.8-0.3,1.5-0.8,1.9
		c-0.5,0.5-1.3,0.7-2.4,0.9c0.7,0,1.1,0.2,1.4,0.3c0.3,0.2,0.5,0.5,0.7,0.9l1,2.7c0.1,0.4,0.3,0.6,0.4,0.8c0.1,0.2,0.3,0.3,0.4,0.4
		c0.1,0,0.1,0.1,0.3,0.1c0.2,0.1,0.3,0.2,0.3,0.4c0,0.1,0,0.2-0.1,0.2c-0.1,0-0.2,0.1-0.3,0.1h-1.6h-1c-0.2,0-0.4-0.2-0.6-0.7
		c-0.1-0.2-0.1-0.3-0.1-0.4L60,37.6c-0.2-0.5-0.3-0.8-0.5-0.9c-0.1-0.1-0.3-0.2-0.6-0.2c-0.1,0-0.1,0-0.2,0c0,0-0.1,0-0.1,0v3.7
		c0,0.4,0,0.6,0.1,0.7c0,0.1,0.1,0.2,0.2,0.3c0,0,0.1,0,0.2,0c0.3,0.1,0.5,0.2,0.5,0.4c0,0.1,0,0.2-0.1,0.2c-0.1,0-0.2,0.1-0.3,0.1
		h-1.7h-2c-0.1,0-0.2,0-0.3-0.1c-0.1,0-0.1-0.1-0.1-0.2c0-0.2,0.1-0.3,0.4-0.4c0,0,0.1,0,0.1,0c0.2,0,0.3-0.1,0.4-0.2
		C56.1,40.8,56.1,40.6,56.1,40.2z M58.7,35.7h0.1c0.6,0,1.1-0.2,1.4-0.6c0.3-0.4,0.5-1,0.5-1.7c0-0.7-0.1-1.3-0.4-1.7
		c-0.3-0.4-0.6-0.6-1.1-0.6c-0.2,0-0.4,0-0.5,0.1c-0.1,0.1-0.1,0.3-0.1,0.6V35.7z"/>
	<path class="st1" d="M65.1,36.1c0-1.7,0.4-3.2,1.3-4.3c0.9-1.1,2-1.7,3.3-1.7c0.6,0,1.2,0.1,1.8,0.4c0.6,0.3,1.1,0.7,1.5,1.2
		c0.5,0.6,0.9,1.2,1.1,2c0.3,0.7,0.4,1.5,0.4,2.4c0,0.9-0.1,1.8-0.3,2.5c-0.2,0.7-0.6,1.4-1.1,1.9c-0.4,0.5-0.9,0.9-1.5,1.2
		c-0.6,0.3-1.2,0.4-1.8,0.4c-0.6,0-1.2-0.1-1.8-0.4c-0.6-0.3-1.1-0.7-1.5-1.2c-0.5-0.6-0.9-1.3-1.1-2C65.2,37.8,65.1,37,65.1,36.1z
		 M69.5,30.8c-0.5,0-0.8,0.4-1.1,1.1c-0.3,0.7-0.4,1.7-0.4,3c0,1.9,0.2,3.5,0.6,4.7c0.4,1.2,0.9,1.8,1.5,1.8c0.5,0,0.8-0.4,1.1-1.1
		c0.3-0.8,0.4-1.8,0.4-3.1c0-1.9-0.2-3.4-0.6-4.6C70.6,31.4,70.1,30.8,69.5,30.8z"/>
	<path class="st1" d="M76.5,39.7V32c0-0.3,0-0.6-0.1-0.7c-0.1-0.1-0.1-0.2-0.3-0.2c-0.1,0-0.1,0-0.2,0c-0.3-0.1-0.5-0.2-0.5-0.3
		c0-0.1,0-0.2,0.1-0.2c0.1,0,0.2-0.1,0.4-0.1h1.5h1.2c0.2,0,0.3,0.1,0.4,0.2c0,0,0,0,0,0l4.1,6.5v-4.2c0-0.6,0-1-0.1-1.2
		c-0.1-0.2-0.1-0.4-0.3-0.5c-0.1,0-0.3-0.1-0.6-0.1c-0.3-0.1-0.5-0.2-0.5-0.3c0-0.1,0-0.2,0.1-0.2c0.1-0.1,0.2-0.1,0.4-0.1
		c0.2,0,0.4,0,0.7,0c0.3,0,0.5,0,0.6,0c0.3,0,0.6,0,0.9,0c0.1,0,0.1,0,0.1,0c0.1,0,0.2,0,0.3,0.1c0.1,0.1,0.1,0.1,0.1,0.3
		c0,0.2-0.1,0.3-0.4,0.3c-0.1,0-0.3,0.1-0.3,0.1c-0.2,0-0.3,0.1-0.3,0.2c-0.1,0.1-0.1,0.3-0.1,0.6v0.3v9c0,0.3,0,0.5-0.1,0.6
		c-0.1,0.1-0.2,0.1-0.4,0.1c-0.2,0-0.3,0-0.4-0.1c-0.1-0.1-0.2-0.2-0.4-0.4l-5.3-8.5v6.7c0,0.5,0,0.8,0.1,1c0.1,0.2,0.2,0.3,0.4,0.4
		c0.1,0,0.2,0,0.4,0.1c0.3,0,0.5,0.1,0.5,0.3c0,0.1,0,0.2-0.1,0.2c-0.1,0-0.2,0.1-0.4,0.1h-0.9h-1.5c-0.1,0-0.2,0-0.3,0
		c0,0-0.1-0.1-0.1-0.2c0-0.2,0.1-0.3,0.3-0.4c0.1,0,0.1-0.1,0.2-0.1c0.2-0.1,0.4-0.2,0.5-0.3c0.1-0.1,0.1-0.3,0.1-0.6V39.7z"/>
	<path class="st1" d="M86.6,39.7v-7.3c0-0.4,0-0.6-0.1-0.8s-0.2-0.2-0.3-0.2c0,0-0.1,0-0.2,0c-0.1,0-0.2,0-0.3,0
		c-0.1,0-0.1,0-0.2-0.1c0,0,0-0.1,0-0.2c0-0.3,0.4-0.5,1.2-0.7c0.8-0.2,1.8-0.3,3-0.3c0.8,0,1.5,0.1,2.2,0.3
		c0.6,0.2,1.2,0.5,1.7,0.9c0.6,0.6,1.1,1.2,1.5,2c0.4,0.8,0.5,1.6,0.5,2.5c0,1.8-0.5,3.3-1.6,4.4c-1.1,1.1-2.5,1.6-4.3,1.6
		c-0.3,0-0.7,0-1.3-0.1c-0.6,0-1.1-0.1-1.5-0.1c-0.2,0-0.4,0-0.6,0c-0.2,0-0.3,0-0.4,0c-0.2,0-0.3,0-0.3-0.1
		c-0.1-0.1-0.1-0.1-0.1-0.3c0-0.2,0.2-0.2,0.5-0.3c0.1,0,0.2,0,0.2,0c0.1-0.1,0.3-0.3,0.3-0.4c0.1-0.2,0.1-0.5,0.1-0.9V39.7z
		 M89.4,32.6V40c0,0.5,0.1,0.8,0.2,1c0.1,0.2,0.4,0.3,0.7,0.3c0.7,0,1.3-0.4,1.7-1.3c0.4-0.9,0.6-2.2,0.6-3.8c0-1.6-0.2-2.8-0.7-3.8
		c-0.4-0.9-1-1.4-1.7-1.4c-0.3,0-0.5,0.1-0.6,0.4C89.5,31.5,89.4,32,89.4,32.6z"/>
	<path class="st1" d="M100.2,40.3c0,0.4,0,0.6,0.1,0.7c0,0.1,0.1,0.2,0.2,0.3c0,0,0.1,0,0.2,0c0.3,0,0.5,0.2,0.5,0.3
		c0,0.1,0,0.2-0.1,0.2c-0.1,0-0.2,0.1-0.4,0.1c0,0-0.1,0-0.2,0c-0.5,0-1.1-0.1-1.6-0.1c-0.5,0-1.1,0-1.7,0.1c-0.1,0-0.2,0-0.3,0
		c-0.1,0-0.2,0-0.3-0.1c-0.1,0-0.1-0.1-0.1-0.2c0-0.2,0.1-0.3,0.4-0.4c0.1,0,0.1,0,0.1,0c0.2,0,0.3-0.1,0.4-0.2
		c0.1-0.1,0.1-0.4,0.1-0.7V32c0-0.3,0-0.5-0.1-0.7c-0.1-0.1-0.1-0.2-0.3-0.3c-0.1,0-0.1,0-0.3-0.1c-0.3,0-0.5-0.2-0.5-0.3
		c0-0.1,0-0.2,0.1-0.2c0.1,0,0.2-0.1,0.3-0.1c0,0,0.1,0,0.3,0c0.6,0,1.2,0,1.7,0c0.5,0,1.1,0,1.6,0c0.1,0,0.2,0,0.2,0
		c0.2,0,0.3,0,0.3,0.1c0.1,0,0.1,0.1,0.1,0.2c0,0.2-0.1,0.3-0.3,0.3c-0.1,0-0.1,0-0.1,0c-0.2,0-0.3,0.1-0.4,0.2
		c-0.1,0.1-0.1,0.4-0.1,0.8V40.3z"/>
	<path class="st1" d="M103,39.7V32c0-0.3,0-0.6-0.1-0.7c-0.1-0.1-0.1-0.2-0.3-0.2c-0.1,0-0.1,0-0.2,0c-0.3-0.1-0.5-0.2-0.5-0.3
		c0-0.1,0-0.2,0.1-0.2c0.1,0,0.2-0.1,0.4-0.1h1.5h1.2c0.2,0,0.3,0.1,0.4,0.2c0,0,0,0,0,0l4.1,6.5v-4.2c0-0.6,0-1-0.1-1.2
		c-0.1-0.2-0.1-0.4-0.3-0.5c-0.1,0-0.3-0.1-0.6-0.1c-0.3-0.1-0.5-0.2-0.5-0.3c0-0.1,0-0.2,0.1-0.2c0.1-0.1,0.2-0.1,0.4-0.1
		c0.2,0,0.4,0,0.7,0c0.3,0,0.5,0,0.6,0c0.3,0,0.6,0,0.9,0c0.1,0,0.1,0,0.1,0c0.1,0,0.2,0,0.3,0.1c0.1,0.1,0.1,0.1,0.1,0.3
		c0,0.2-0.1,0.3-0.4,0.3c-0.1,0-0.3,0.1-0.3,0.1c-0.2,0-0.3,0.1-0.3,0.2c-0.1,0.1-0.1,0.3-0.1,0.6v0.3v9c0,0.3,0,0.5-0.1,0.6
		c-0.1,0.1-0.2,0.1-0.4,0.1c-0.2,0-0.3,0-0.4-0.1c-0.1-0.1-0.2-0.2-0.3-0.4l-5.3-8.5v6.7c0,0.5,0,0.8,0.1,1c0.1,0.2,0.2,0.3,0.4,0.4
		c0.1,0,0.2,0,0.4,0.1c0.3,0,0.5,0.1,0.5,0.3c0,0.1,0,0.2-0.1,0.2c-0.1,0-0.2,0.1-0.4,0.1h-0.9h-1.5c-0.1,0-0.2,0-0.3,0
		c0,0-0.1-0.1-0.1-0.2c0-0.2,0.1-0.3,0.3-0.4c0.1,0,0.1-0.1,0.2-0.1c0.2-0.1,0.4-0.2,0.5-0.3c0.1-0.1,0.1-0.3,0.1-0.6V39.7z"/>
	<path class="st1" d="M118.8,32.9c0,0.3,0,0.5-0.1,0.6c-0.1,0.1-0.1,0.1-0.3,0.1c-0.2,0-0.5-0.4-0.8-1.1c0-0.1-0.1-0.1-0.1-0.1
		c-0.3-0.7-0.6-1.2-0.8-1.3c-0.2-0.2-0.6-0.3-0.9-0.3c-0.4,0-0.7,0.1-0.9,0.3c-0.2,0.2-0.3,0.5-0.3,0.9c0,0.6,0.6,1.4,1.7,2.2
		c0.1,0.1,0.1,0.1,0.2,0.1c1.2,0.9,1.9,1.6,2.3,2.1c0.3,0.5,0.5,1.2,0.5,1.9c0,1.1-0.4,2-1.2,2.7c-0.8,0.7-1.9,1.1-3.2,1.1
		c-1,0-1.7-0.1-2.1-0.3c-0.4-0.2-0.6-0.5-0.6-0.9c0-1.3,0-2.2,0.1-2.5c0.1-0.4,0.3-0.5,0.5-0.5c0.3,0,0.5,0.4,0.7,1.1
		c0.1,0.3,0.1,0.5,0.2,0.7c0.2,0.7,0.4,1.1,0.7,1.4c0.3,0.3,0.6,0.4,1.1,0.4c0.5,0,0.8-0.2,1.2-0.5c0.3-0.3,0.5-0.7,0.5-1.2
		c0-0.4-0.1-0.8-0.3-1.2c-0.2-0.4-0.6-0.8-1.1-1.2c-0.1-0.1-0.5-0.4-1.2-0.9c-0.6-0.5-1.1-0.9-1.5-1.3c-0.2-0.3-0.4-0.5-0.5-0.9
		c-0.1-0.3-0.2-0.7-0.2-1c0-1,0.3-1.8,1-2.4c0.7-0.6,1.6-0.9,2.7-0.9c0.5,0,1,0.1,1.5,0.2c0.5,0.1,0.8,0.2,1,0.4
		c0.1,0,0.1,0.1,0.1,0.2c0,0.1,0,0.3,0,0.6L118.8,32.9z"/>
	<path class="st1" d="M83.2,74.5c0.5-0.9,0.8-1.7,0.9-2.5c1.6,0.9,3.4,2.4,4.8,4.9c0,0-1.2-5.1-4.8-7.8c-0.7-4.2-4.3-7.5-4.3-7.5
		c1.4,2.3,1.8,4.5,1.8,6.3c-0.7-0.2-1.5-0.3-2.3-0.3c-0.8,0-1.6,0.1-2.3,0.3c0-1.8,0.4-3.9,1.8-6.3c0,0-3.5,3.3-4.3,7.5
		c-3.6,2.6-4.8,7.8-4.8,7.8c1.4-2.5,3.2-4,4.8-4.9c0.2,0.8,0.5,1.7,1,2.5c0.4,0.7,0.9,1.3,1.4,1.8c-1.6,1-3.8,1.8-6.7,1.8
		c0,0,4.9,1.5,9-0.2c4.1,1.8,9,0.2,9,0.2c-2.9,0-5.1-0.8-6.7-1.8C82.3,75.9,82.7,75.3,83.2,74.5z M79.4,70.7c0,0,0.8,0,1.9,0.2
		c-0.4,1.3-0.8,2-0.8,2s-0.3,0.6-1.1,1.4c-0.7-0.8-1.1-1.4-1.1-1.4s-0.5-0.8-0.8-2C78.6,70.7,79.4,70.7,79.4,70.7z"/>
	<path class="st1" d="M63.7,76.7c0,0.1,0,0.2,0.1,0.3c0.1,0.1,0.2,0.1,0.4,0.1c0,0,0,0,0.1,0c0.2,0,0.3,0.1,0.3,0.2
		c0,0.1,0,0.1-0.1,0.1c0,0-0.1,0-0.2,0c0,0-0.2,0-0.5,0c-0.3,0-0.6,0-0.8,0c-0.3,0-0.5,0-0.8,0c-0.3,0-0.4,0-0.4,0
		c-0.1,0-0.1,0-0.2,0c0,0-0.1-0.1-0.1-0.1c0-0.1,0.1-0.1,0.3-0.2l0,0c0,0,0,0,0,0c0,0,0,0,0,0c0.2,0,0.3-0.1,0.3-0.1
		c0.1-0.1,0.1-0.2,0.1-0.3v-3.8c0-0.1,0-0.2-0.1-0.3c-0.1-0.1-0.2-0.1-0.3-0.1c0,0,0,0-0.1,0c-0.2,0-0.3-0.1-0.3-0.2
		c0-0.1,0-0.1,0.1-0.1c0,0,0.1,0,0.2,0c0,0,0.1,0,0.2,0c0.4,0,0.7,0.1,1.1,0.1h1c0.3,0,0.6,0,1,0c0.4,0,0.6,0,0.7,0
		c0.1,0,0.2,0,0.2,0c0,0,0,0.1,0,0.1v0.9c0,0.1,0,0.1,0,0.1c0,0-0.1,0-0.1,0c-0.1,0-0.2-0.1-0.3-0.3c-0.1-0.1-0.1-0.2-0.2-0.2
		c-0.1-0.1-0.2-0.2-0.3-0.3c-0.1-0.1-0.3-0.1-0.5-0.1c-0.3,0-0.4,0-0.5,0.1c-0.1,0.1-0.2,0.2-0.2,0.4v1.2c0,0.1,0,0.1,0.1,0.2
		c0.1,0,0.2,0,0.3,0c0.2,0,0.4,0,0.5,0c0.1,0,0.2-0.1,0.2-0.1c0.1-0.1,0.1-0.2,0.2-0.3c0.1-0.1,0.1-0.2,0.2-0.2c0.1,0,0.1,0,0.1,0.1
		c0,0,0,0.1,0,0.1c0,0,0,0,0,0.1c0,0.2,0,0.4,0,0.6c0,0.2,0,0.4,0,0.5c0,0.2,0,0.3,0,0.3c0,0.1,0,0.2,0,0.2c0,0-0.1,0.1-0.1,0.1
		c-0.1,0-0.2-0.1-0.3-0.3c0-0.1-0.1-0.1-0.1-0.2c-0.1-0.2-0.2-0.3-0.3-0.3c-0.1-0.1-0.3-0.1-0.5-0.1c-0.1,0-0.1,0-0.2,0
		c0,0-0.1,0-0.1,0l-0.1,0c0,0-0.1,0-0.1,0c0,0,0,0,0,0.1V76.7z"/>
	<path class="st1" d="M92.2,74.8c0-0.4,0.1-0.8,0.3-1.1c0.2-0.4,0.4-0.7,0.7-0.9c0.3-0.2,0.6-0.4,1-0.5c0.4-0.1,0.8-0.2,1.2-0.2
		c0.3,0,0.7,0,1,0.1c0.3,0.1,0.5,0.1,0.6,0.2c0,0,0.1,0.1,0.1,0.3c0,0.2,0.1,0.4,0.1,0.6c0,0.1,0,0.1,0,0.1c0,0-0.1,0-0.1,0
		c-0.1,0-0.2-0.1-0.3-0.3c-0.1-0.1-0.1-0.1-0.1-0.2c-0.2-0.2-0.3-0.4-0.5-0.4c-0.2-0.1-0.4-0.1-0.6-0.1c-0.5,0-0.9,0.2-1.3,0.7
		c-0.3,0.5-0.5,1.1-0.5,1.8c0,0.7,0.2,1.3,0.5,1.7c0.3,0.5,0.8,0.7,1.3,0.7c0.3,0,0.5-0.1,0.7-0.2c0.2-0.1,0.4-0.3,0.5-0.6
		c0,0,0.1-0.1,0.1-0.2c0.1-0.2,0.2-0.3,0.3-0.3c0.1,0,0.1,0,0.1,0.1c0,0.1,0,0.2,0,0.4v0.1c0,0.2,0,0.3,0,0.4c0,0.1-0.1,0.2-0.1,0.2
		c-0.2,0.1-0.4,0.3-0.7,0.3c-0.3,0.1-0.7,0.1-1,0.1c-1,0-1.7-0.3-2.3-0.8C92.5,76.3,92.2,75.6,92.2,74.8z"/>
	<polygon class="st1" points="79.4,107.9 95.7,91 120.8,91 79.4,130.4 37.9,91 63.1,91 	"/>
	<path class="st1" d="M72.3,92.6v-3.4c0-0.1,0-0.2,0-0.2c0,0-0.1-0.1-0.2-0.1c-0.1,0-0.2,0-0.4,0.1c-0.2,0.1-0.4,0.1-0.5,0.1
		c-0.1,0-0.1,0-0.1,0c0,0-0.1-0.1-0.1-0.1c0-0.1,0.2-0.2,0.6-0.3c0.2,0,0.3-0.1,0.4-0.1c0.4-0.1,0.7-0.2,1-0.3
		c0.3-0.1,0.5-0.2,0.5-0.2c0,0,0.1,0,0.1,0c0,0,0,0.1,0,0.1v4.3c0,0.2,0,0.3,0.1,0.4c0.1,0.1,0.2,0.1,0.3,0.2c0.1,0,0.1,0,0.2,0
		c0.3,0,0.4,0.1,0.4,0.2c0,0.1,0,0.1-0.1,0.1c0,0-0.1,0-0.2,0c-0.1,0-0.2,0-0.5,0c-0.3,0-0.6,0-0.8,0c-0.2,0-0.4,0-0.8,0
		c-0.3,0-0.6,0-0.7,0c-0.1,0-0.2,0-0.2,0c0,0-0.1-0.1-0.1-0.1c0-0.1,0.1-0.2,0.4-0.2c0,0,0.1,0,0.1,0c0,0,0.1,0,0.1,0
		c0.1,0,0.2-0.1,0.3-0.1C72.3,92.9,72.3,92.8,72.3,92.6z"/>
	<path class="st1" d="M76.1,91C76.1,91,76.1,91,76.1,91C76.2,91,76.2,91,76.1,91C76.2,90.9,76.2,90.9,76.1,91c0-0.1,0-0.1,0-0.2
		l-0.3-0.2c-0.2-0.1-0.3-0.3-0.4-0.5c-0.1-0.2-0.2-0.4-0.2-0.6c0-0.4,0.2-0.8,0.6-1.1c0.4-0.3,0.9-0.4,1.5-0.4c0.6,0,1,0.1,1.4,0.3
		c0.4,0.2,0.5,0.5,0.5,0.9c0,0.2-0.1,0.4-0.2,0.5c-0.1,0.2-0.3,0.3-0.5,0.4l-0.2,0.1c0,0,0,0,0,0c0,0,0,0,0,0c0,0,0,0,0.1,0.1
		c0,0,0,0,0,0l0.2,0.1c0.3,0.2,0.5,0.4,0.6,0.6c0.1,0.2,0.2,0.5,0.2,0.8c0,0.5-0.2,0.9-0.7,1.3c-0.4,0.3-1,0.5-1.7,0.5
		c-0.6,0-1.1-0.1-1.5-0.4c-0.4-0.3-0.6-0.6-0.6-1c0-0.3,0.1-0.5,0.2-0.7c0.2-0.2,0.4-0.4,0.6-0.5L76.1,91z M76.7,91.1
		c-0.2,0-0.3,0.1-0.4,0.3c-0.1,0.2-0.2,0.4-0.2,0.7c0,0.3,0.1,0.6,0.3,0.8c0.2,0.2,0.5,0.3,0.8,0.3c0.3,0,0.5-0.1,0.7-0.3
		c0.2-0.2,0.3-0.4,0.3-0.7c0-0.1,0-0.3-0.1-0.4c-0.1-0.1-0.2-0.2-0.3-0.3c-0.2-0.2-0.4-0.3-0.7-0.4C76.9,91.2,76.8,91.1,76.7,91.1z
		 M77.6,90.2c0.1,0,0.2-0.1,0.3-0.2c0.1-0.2,0.2-0.4,0.2-0.6c0-0.3-0.1-0.5-0.3-0.7c-0.2-0.2-0.4-0.3-0.7-0.3
		c-0.2,0-0.5,0.1-0.6,0.2c-0.2,0.1-0.2,0.3-0.2,0.5c0,0.1,0,0.2,0.1,0.3c0,0.1,0.1,0.2,0.2,0.3c0,0,0.1,0.1,0.2,0.1
		c0.1,0,0.1,0.1,0.2,0.1c0.2,0.1,0.4,0.2,0.5,0.2C77.5,90.1,77.6,90.2,77.6,90.2z"/>
	<path class="st1" d="M80.6,91C80.6,91,80.6,91,80.6,91C80.7,91,80.7,91,80.6,91C80.7,90.9,80.7,90.9,80.6,91c0-0.1,0-0.1,0-0.2
		l-0.3-0.2c-0.2-0.1-0.3-0.3-0.4-0.5c-0.1-0.2-0.2-0.4-0.2-0.6c0-0.4,0.2-0.8,0.6-1.1c0.4-0.3,0.9-0.4,1.5-0.4c0.6,0,1,0.1,1.4,0.3
		c0.4,0.2,0.5,0.5,0.5,0.9c0,0.2-0.1,0.4-0.2,0.5c-0.1,0.2-0.3,0.3-0.5,0.4l-0.2,0.1c0,0,0,0,0,0c0,0,0,0,0,0c0,0,0,0,0.1,0.1
		c0,0,0,0,0,0l0.2,0.1c0.3,0.2,0.5,0.4,0.6,0.6c0.1,0.2,0.2,0.5,0.2,0.8c0,0.5-0.2,0.9-0.7,1.3c-0.4,0.3-1,0.5-1.7,0.5
		c-0.6,0-1.1-0.1-1.5-0.4c-0.4-0.3-0.6-0.6-0.6-1c0-0.3,0.1-0.5,0.2-0.7c0.2-0.2,0.4-0.4,0.6-0.5L80.6,91z M81.2,91.1
		c-0.2,0-0.3,0.1-0.4,0.3c-0.1,0.2-0.2,0.4-0.2,0.7c0,0.3,0.1,0.6,0.3,0.8c0.2,0.2,0.5,0.3,0.8,0.3c0.3,0,0.5-0.1,0.7-0.3
		c0.2-0.2,0.3-0.4,0.3-0.7c0-0.1,0-0.3-0.1-0.4c-0.1-0.1-0.2-0.2-0.3-0.3c-0.2-0.2-0.4-0.3-0.7-0.4C81.4,91.2,81.3,91.1,81.2,91.1z
		 M82.1,90.2c0.1,0,0.2-0.1,0.3-0.2c0.1-0.2,0.2-0.4,0.2-0.6c0-0.3-0.1-0.5-0.3-0.7c-0.2-0.2-0.4-0.3-0.7-0.3
		c-0.2,0-0.5,0.1-0.6,0.2c-0.2,0.1-0.2,0.3-0.2,0.5c0,0.1,0,0.2,0.1,0.3c0,0.1,0.1,0.2,0.2,0.3c0,0,0.1,0.1,0.2,0.1
		c0.1,0,0.1,0.1,0.2,0.1c0.2,0.1,0.4,0.2,0.5,0.2C82,90.1,82.1,90.2,82.1,90.2z"/>
	<path class="st1" d="M85.8,92.6v-3.4c0-0.1,0-0.2,0-0.2c0,0-0.1-0.1-0.2-0.1c-0.1,0-0.2,0-0.4,0.1c-0.2,0.1-0.4,0.1-0.5,0.1
		c-0.1,0-0.1,0-0.1,0c0,0-0.1-0.1-0.1-0.1c0-0.1,0.2-0.2,0.6-0.3c0.2,0,0.3-0.1,0.4-0.1c0.4-0.1,0.7-0.2,1-0.3
		c0.3-0.1,0.5-0.2,0.5-0.2c0,0,0.1,0,0.1,0c0,0,0,0.1,0,0.1v4.3c0,0.2,0,0.3,0.1,0.4c0.1,0.1,0.2,0.1,0.3,0.2c0.1,0,0.1,0,0.2,0
		c0.3,0,0.4,0.1,0.4,0.2c0,0.1,0,0.1-0.1,0.1c0,0-0.1,0-0.2,0c-0.1,0-0.2,0-0.5,0c-0.3,0-0.6,0-0.8,0c-0.2,0-0.4,0-0.8,0
		c-0.3,0-0.6,0-0.7,0c-0.1,0-0.2,0-0.2,0c0,0-0.1-0.1-0.1-0.1c0-0.1,0.1-0.2,0.4-0.2c0,0,0.1,0,0.1,0c0,0,0.1,0,0.1,0
		c0.1,0,0.2-0.1,0.3-0.1C85.8,92.9,85.8,92.8,85.8,92.6z"/>
	<path class="st1" d="M40.3,48.5c0-0.2,0-0.3-0.1-0.4c0-0.1-0.1-0.1-0.2-0.1c-0.1,0-0.2,0-0.3,0.1c-0.1,0-0.2,0.1-0.3,0.1
		c0,0-0.1,0-0.1-0.1c0,0-0.1-0.1-0.1-0.2c0-0.2,0.3-0.4,0.9-0.5c0.6-0.1,1.5-0.2,2.5-0.2c0.6,0,1.2,0.1,1.7,0.3
		c0.5,0.2,0.9,0.4,1.3,0.8c0.5,0.5,0.9,1,1.1,1.6c0.3,0.6,0.4,1.3,0.4,2.1c0,1.5-0.4,2.6-1.2,3.4c-0.8,0.8-1.9,1.2-3.4,1.2
		c-0.3,0-0.6,0-1-0.1c-0.4-0.1-0.7-0.1-0.9-0.1c-0.2,0-0.4,0-0.7,0.1c-0.3,0-0.5,0.1-0.6,0.1c-0.1,0-0.2,0-0.2-0.1
		c-0.1,0-0.1-0.1-0.1-0.2c0-0.1,0.1-0.2,0.3-0.2h0c0.1,0,0.1,0,0.2,0c0,0,0,0,0,0c0.2,0,0.3-0.1,0.4-0.2c0.1-0.1,0.1-0.3,0.1-0.7
		V48.5z M41.6,48.6v6.3c0,0.5,0.1,0.9,0.2,1.1c0.1,0.2,0.4,0.3,0.8,0.3c1,0,1.7-0.4,2.3-1.2c0.6-0.8,0.8-1.8,0.8-3.1
		c0-1.2-0.3-2.3-0.9-3.1c-0.6-0.8-1.3-1.2-2.2-1.2c-0.4,0-0.7,0.1-0.9,0.2C41.7,48,41.6,48.2,41.6,48.6z"/>
	<path class="st1" d="M49,48.6c0-0.3,0-0.4-0.1-0.5c0-0.1-0.1-0.1-0.3-0.2c0,0-0.1,0-0.2,0c-0.1,0-0.1,0-0.1,0c0,0,0,0,0,0
		c-0.2,0-0.3-0.1-0.3-0.2c0-0.1,0-0.1,0.1-0.1c0,0,0.1,0,0.2,0c0,0,0.1,0,0.2,0c0.7,0,1.3,0.1,2,0.1c0.9,0,1.7,0,2.6-0.1
		c0.2,0,0.2,0,0.3,0c0.2,0,0.3,0,0.3,0.1c0.1,0,0.1,0.2,0.1,0.4V48v1.2c0,0.1,0,0.2,0,0.3c0,0.1-0.1,0.1-0.1,0.1
		c-0.1,0-0.2-0.1-0.3-0.4c-0.1-0.3-0.2-0.4-0.3-0.6c-0.2-0.2-0.4-0.4-0.8-0.5c-0.3-0.1-0.7-0.2-1.1-0.2c-0.4,0-0.7,0-0.8,0.1
		c-0.1,0.1-0.2,0.3-0.2,0.7v2.4c0,0.1,0,0.2,0,0.3c0,0,0.1,0,0.2,0h0.7c0.3,0,0.6,0,0.8-0.1c0.2-0.1,0.4-0.1,0.5-0.2
		c0.1-0.1,0.1-0.1,0.1-0.2c0-0.1,0.1-0.2,0.1-0.3l0,0c0-0.2,0.1-0.3,0.2-0.3c0.1,0,0.1,0,0.1,0.1c0,0,0,0.1,0,0.2c0,0.1,0,0.3,0,0.6
		c0,0.3,0,0.6,0,0.8c0,0.2,0,0.5,0,0.7c0,0.3,0,0.4,0,0.5c0,0.1,0,0.2,0,0.2c0,0.1-0.1,0.1-0.1,0.1c-0.1,0-0.2-0.1-0.3-0.4
		c-0.1-0.3-0.2-0.5-0.2-0.6c-0.1-0.2-0.2-0.3-0.4-0.4c-0.2-0.1-0.4-0.1-0.8-0.1h-0.7c-0.1,0-0.2,0-0.2,0.1c0,0-0.1,0.1-0.1,0.2v3
		c0,0.4,0.1,0.6,0.2,0.8c0.1,0.1,0.4,0.2,1,0.2c0.4,0,0.7,0,1-0.1c0.3-0.1,0.5-0.3,0.6-0.5c0.1-0.2,0.2-0.4,0.4-0.7
		c0.2-0.3,0.3-0.5,0.4-0.5c0,0,0.1,0,0.1,0c0,0,0,0.1,0,0.1c0,0.1,0,0.1,0,0.1c0,0,0,0.1,0,0.1l-0.2,1.5c0,0,0,0,0,0.1
		c0,0.3-0.1,0.4-0.3,0.4c-0.2,0-0.7,0-1.6-0.1c-0.9,0-1.7-0.1-2.4-0.1c-0.3,0-0.6,0-0.9,0c-0.3,0-0.4,0-0.5,0c-0.1,0-0.2,0-0.2-0.1
		c-0.1,0-0.1-0.1-0.1-0.2c0-0.1,0.1-0.2,0.4-0.2c0.1,0,0.2,0,0.3,0c0.2,0,0.3-0.1,0.3-0.2c0.1-0.1,0.1-0.3,0.1-0.7V48.6z"/>
	<path class="st1" d="M59.1,48.6c0-0.2,0-0.3-0.1-0.4c-0.1-0.1-0.2-0.1-0.3-0.1c-0.1,0-0.1,0-0.2,0c-0.1,0-0.2,0-0.2,0
		c-0.1,0-0.1,0-0.1,0c0,0,0-0.1,0-0.1c0-0.2,0.2-0.3,0.7-0.3c0.5-0.1,1.1-0.1,2-0.1c1.3,0,2.2,0.2,2.8,0.6c0.6,0.4,0.9,0.9,0.9,1.7
		c0,0.5-0.1,0.9-0.3,1.2c-0.2,0.3-0.6,0.6-1.1,0.7c0.6,0.1,1.1,0.4,1.4,0.8c0.3,0.4,0.5,1,0.5,1.7c0,0.8-0.3,1.5-0.8,2
		c-0.5,0.5-1.2,0.7-2.1,0.7c-0.3,0-0.7,0-1.3-0.1c-0.6-0.1-1-0.1-1.3-0.1c-0.2,0-0.4,0-0.6,0c-0.2,0-0.4,0-0.4,0
		c-0.1,0-0.1,0-0.2-0.1c-0.1,0-0.1-0.1-0.1-0.1c0-0.1,0-0.1,0.1-0.2c0,0,0.1-0.1,0.2-0.1c0,0,0.1,0,0.1,0c0,0,0.1,0,0.1,0
		c0.2,0,0.3-0.1,0.3-0.2c0.1-0.1,0.1-0.3,0.1-0.7V48.6z M60.4,48.6v2.4c0,0.2,0,0.3,0.1,0.4c0,0.1,0.1,0.1,0.3,0.1c0,0,0.1,0,0.2,0
		c0.1,0,0.2,0,0.3,0c0.6,0,1-0.2,1.3-0.5c0.3-0.3,0.5-0.7,0.5-1.3c0-0.6-0.2-1.1-0.5-1.4c-0.3-0.3-0.8-0.5-1.3-0.5
		c-0.3,0-0.6,0-0.7,0.1C60.4,48.1,60.4,48.3,60.4,48.6z M61.5,52h-0.9c-0.1,0-0.1,0-0.1,0.1c0,0-0.1,0.1-0.1,0.1v3
		c0,0.4,0.1,0.7,0.3,0.8c0.2,0.2,0.5,0.3,0.9,0.3c0.6,0,1-0.2,1.4-0.6c0.3-0.4,0.5-0.9,0.5-1.6c0-0.7-0.2-1.2-0.5-1.6
		C62.6,52.2,62.1,52,61.5,52z"/>
	<path class="st1" d="M69.9,47.2c0.5,0,1,0.1,1.5,0.3c0.5,0.2,0.9,0.5,1.3,0.9c0.4,0.5,0.8,1,1,1.6c0.2,0.6,0.3,1.3,0.3,2
		c0,0.7-0.1,1.3-0.3,2c-0.2,0.6-0.6,1.2-1,1.6c-0.4,0.4-0.8,0.7-1.3,1c-0.5,0.2-1,0.3-1.5,0.3c-0.5,0-1-0.1-1.5-0.3
		c-0.5-0.2-0.9-0.5-1.3-1c-0.4-0.5-0.8-1-1-1.6c-0.2-0.6-0.3-1.3-0.3-2c0-0.7,0.1-1.4,0.3-2c0.2-0.6,0.6-1.2,1-1.6
		c0.4-0.4,0.8-0.7,1.3-0.9C68.9,47.3,69.4,47.2,69.9,47.2z M70,56.6c0.8,0,1.4-0.4,1.8-1.2c0.5-0.8,0.7-1.8,0.7-3.1
		c0-1.4-0.2-2.5-0.7-3.4c-0.5-0.9-1.1-1.3-1.9-1.3c-0.8,0-1.4,0.4-1.8,1.2c-0.5,0.8-0.7,1.8-0.7,3.1c0,1.4,0.2,2.5,0.7,3.4
		C68.5,56.1,69.2,56.6,70,56.6z"/>
	<path class="st1" d="M77.1,55.3c0,0.4,0,0.6,0.1,0.7c0.1,0.1,0.2,0.2,0.4,0.2c0,0,0.1,0,0.1,0c0,0,0.1,0,0.1,0c0.1,0,0.2,0,0.2,0.1
		c0,0,0.1,0.1,0.1,0.2c0,0.1,0,0.1-0.1,0.1c0,0-0.1,0.1-0.2,0.1c-0.1,0-0.2,0-0.3,0c-0.1,0-0.2,0-0.3,0c0,0,0,0-0.1,0
		c-0.2,0-0.4,0-0.7,0c-0.3,0-0.6,0-0.9,0c-0.3,0-0.5,0-0.5,0c-0.1,0-0.2,0-0.2-0.1c-0.1,0-0.1-0.1-0.1-0.2c0-0.1,0.1-0.2,0.3-0.2h0
		c0.1,0,0.1,0,0.2,0c0,0,0,0,0,0c0.2,0,0.3-0.1,0.4-0.2c0.1-0.1,0.1-0.3,0.1-0.7v-6.7c0-0.3,0-0.4-0.1-0.5c0-0.1-0.2-0.1-0.3-0.2
		c-0.1,0-0.2,0-0.3,0c-0.2,0-0.3-0.1-0.3-0.2c0-0.1,0-0.1,0.1-0.1c0.1,0,0.1,0,0.3,0c0.1,0,0.2,0,0.4,0c0.2,0,0.3,0,0.5,0
		c0.3,0,0.8,0,1.3,0c0.5,0,0.8,0,1,0c0.8,0,1.3,0.2,1.8,0.6c0.4,0.4,0.6,0.9,0.6,1.6c0,0.6-0.1,1.1-0.4,1.5
		c-0.3,0.4-0.7,0.7-1.2,0.8c0.1,0.1,0.2,0.2,0.3,0.3c0.1,0.1,0.2,0.3,0.3,0.6l0.9,2c0,0,0,0.1,0.1,0.2c0.3,0.7,0.5,1.1,0.6,1.1
		c0.1,0,0.2,0.1,0.3,0.1c0.2,0.1,0.3,0.1,0.3,0.2c0,0.1,0,0.1,0,0.1c0,0-0.1,0-0.2,0c-0.1,0-0.2,0-0.4,0c-0.2,0-0.4,0-0.5,0
		c-0.1,0-0.2,0-0.3,0c-0.1,0-0.2,0-0.3,0c-0.2,0-0.3-0.1-0.4-0.4c0,0,0,0,0-0.1l-1.3-3.3c-0.1-0.3-0.2-0.5-0.3-0.5
		c-0.1-0.1-0.3-0.1-0.5-0.1h-0.2c-0.1,0-0.1,0-0.1,0.1c0,0-0.1,0.1-0.1,0.2V55.3z M77.1,48.6v2.8c0,0.1,0,0.2,0.1,0.3
		c0.1,0.1,0.2,0.1,0.3,0.1c0.6,0,1.1-0.1,1.4-0.4c0.3-0.3,0.4-0.8,0.4-1.4c0-0.6-0.1-1.1-0.4-1.5c-0.3-0.4-0.6-0.5-1.1-0.5
		c-0.3,0-0.5,0-0.6,0.1C77.2,48.1,77.1,48.3,77.1,48.6z"/>
	<path class="st1" d="M82.8,48.5c0-0.2,0-0.3-0.1-0.4c0-0.1-0.1-0.1-0.2-0.1c-0.1,0-0.2,0-0.3,0.1c-0.1,0-0.2,0.1-0.3,0.1
		c0,0-0.1,0-0.1-0.1c0,0-0.1-0.1-0.1-0.2c0-0.2,0.3-0.4,0.9-0.5c0.6-0.1,1.5-0.2,2.5-0.2c0.6,0,1.2,0.1,1.7,0.3
		c0.5,0.2,0.9,0.4,1.3,0.8c0.5,0.5,0.9,1,1.1,1.6c0.3,0.6,0.4,1.3,0.4,2.1c0,1.5-0.4,2.6-1.2,3.4c-0.8,0.8-1.9,1.2-3.4,1.2
		c-0.3,0-0.6,0-1-0.1c-0.4-0.1-0.7-0.1-0.9-0.1c-0.2,0-0.4,0-0.7,0.1c-0.3,0-0.5,0.1-0.6,0.1c-0.1,0-0.2,0-0.2-0.1
		c-0.1,0-0.1-0.1-0.1-0.2c0-0.1,0.1-0.2,0.3-0.2h0c0.1,0,0.1,0,0.2,0c0,0,0,0,0,0c0.2,0,0.3-0.1,0.4-0.2c0.1-0.1,0.1-0.3,0.1-0.7
		V48.5z M84.1,48.6v6.3c0,0.5,0.1,0.9,0.2,1.1c0.1,0.2,0.4,0.3,0.8,0.3c1,0,1.7-0.4,2.3-1.2c0.6-0.8,0.8-1.8,0.8-3.1
		c0-1.2-0.3-2.3-0.9-3.1c-0.6-0.8-1.3-1.2-2.2-1.2c-0.4,0-0.7,0.1-0.9,0.2C84.2,48,84.1,48.2,84.1,48.6z"/>
	<path class="st1" d="M91.5,48.6c0-0.3,0-0.4-0.1-0.5c0-0.1-0.1-0.1-0.3-0.2c0,0-0.1,0-0.2,0c-0.1,0-0.1,0-0.1,0c0,0,0,0,0,0
		c-0.2,0-0.3-0.1-0.3-0.2c0-0.1,0-0.1,0.1-0.1c0,0,0.1,0,0.2,0c0,0,0.1,0,0.2,0c0.7,0,1.3,0.1,2,0.1c0.9,0,1.7,0,2.6-0.1
		c0.2,0,0.2,0,0.3,0c0.2,0,0.3,0,0.3,0.1c0.1,0,0.1,0.2,0.1,0.4V48v1.2c0,0.1,0,0.2,0,0.3c0,0.1-0.1,0.1-0.1,0.1
		c-0.1,0-0.2-0.1-0.3-0.4c-0.1-0.3-0.2-0.4-0.3-0.6c-0.2-0.2-0.4-0.4-0.8-0.5c-0.3-0.1-0.7-0.2-1.1-0.2c-0.4,0-0.7,0-0.8,0.1
		c-0.1,0.1-0.2,0.3-0.2,0.7v2.4c0,0.1,0,0.2,0,0.3c0,0,0.1,0,0.2,0h0.7c0.3,0,0.6,0,0.8-0.1c0.2-0.1,0.4-0.1,0.5-0.2
		c0.1-0.1,0.1-0.1,0.1-0.2c0-0.1,0.1-0.2,0.1-0.3l0,0c0-0.2,0.1-0.3,0.2-0.3c0.1,0,0.1,0,0.1,0.1c0,0,0,0.1,0,0.2c0,0.1,0,0.3,0,0.6
		c0,0.3,0,0.6,0,0.8c0,0.2,0,0.5,0,0.7c0,0.3,0,0.4,0,0.5c0,0.1,0,0.2,0,0.2c0,0.1-0.1,0.1-0.1,0.1c-0.1,0-0.2-0.1-0.3-0.4
		c-0.1-0.3-0.2-0.5-0.2-0.6c-0.1-0.2-0.2-0.3-0.4-0.4c-0.2-0.1-0.4-0.1-0.8-0.1h-0.7c-0.1,0-0.2,0-0.2,0.1c0,0-0.1,0.1-0.1,0.2v3
		c0,0.4,0.1,0.6,0.2,0.8c0.1,0.1,0.4,0.2,1,0.2c0.4,0,0.7,0,1-0.1c0.3-0.1,0.5-0.3,0.6-0.5c0.1-0.2,0.2-0.4,0.4-0.7
		c0.2-0.3,0.3-0.5,0.4-0.5c0,0,0.1,0,0.1,0c0,0,0,0.1,0,0.1c0,0.1,0,0.1,0,0.1c0,0,0,0.1,0,0.1l-0.2,1.5c0,0,0,0,0,0.1
		c0,0.3-0.1,0.4-0.3,0.4c-0.2,0-0.7,0-1.6-0.1c-0.9,0-1.7-0.1-2.4-0.1c-0.3,0-0.6,0-0.9,0c-0.3,0-0.4,0-0.5,0c-0.1,0-0.2,0-0.2-0.1
		c-0.1,0-0.1-0.1-0.1-0.2c0-0.1,0.1-0.2,0.4-0.2c0.1,0,0.2,0,0.3,0c0.2,0,0.3-0.1,0.3-0.2c0.1-0.1,0.1-0.3,0.1-0.7V48.6z"/>
	<path class="st1" d="M98.5,54.7c-0.1,0.3-0.1,0.5-0.2,0.7c0,0.2-0.1,0.3-0.1,0.4c0,0.1,0,0.2,0.1,0.3s0.2,0.1,0.3,0.1
		c0,0,0,0,0.1,0c0.3,0.1,0.5,0.2,0.5,0.3c0,0.1,0,0.1-0.1,0.1c0,0-0.1,0.1-0.2,0.1c0,0-0.2,0-0.5-0.1c-0.3,0-0.6-0.1-0.8-0.1
		c-0.2,0-0.3,0-0.6,0c-0.2,0-0.3,0-0.4,0c-0.1,0-0.2,0-0.2-0.1c0,0-0.1-0.1-0.1-0.1c0-0.1,0-0.1,0.1-0.1c0,0,0.1-0.1,0.2-0.1
		c0,0,0,0,0,0c0.2,0,0.3-0.1,0.4-0.1c0.2-0.1,0.3-0.5,0.5-1.1v0l2.3-7.5c0,0,0,0,0-0.1c0.1-0.2,0.1-0.3,0.2-0.3
		c0.1,0,0.2,0.1,0.3,0.4c0,0.1,0.1,0.2,0.1,0.2l2.2,7c0.1,0.4,0.3,0.8,0.4,0.9c0.1,0.2,0.2,0.3,0.4,0.4c0,0,0.1,0.1,0.2,0.1
		c0.1,0,0.1,0,0.2,0.1l0,0c0.1,0,0.2,0.1,0.2,0.2c0,0.1,0,0.1-0.1,0.1c0,0-0.1,0-0.2,0c-0.1,0-0.3,0-0.6,0c-0.3,0-0.5,0-0.7,0
		c-0.3,0-0.7,0-1,0c-0.3,0-0.5,0-0.5,0c-0.1,0-0.2,0-0.2,0c0,0-0.1-0.1-0.1-0.1c0-0.1,0.1-0.2,0.4-0.2c0,0,0,0,0.1,0
		c0.2,0,0.3-0.1,0.3-0.1c0.1,0,0.1-0.1,0.1-0.3c0-0.1,0-0.2,0-0.3c0-0.1-0.1-0.2-0.1-0.4l-0.6-1.9c0,0,0-0.1-0.1-0.1
		c0,0-0.1,0-0.1,0H99c0,0-0.1,0-0.1,0c0,0-0.1,0.1-0.1,0.1L98.5,54.7z M99.1,52.5C99.1,52.5,99.1,52.5,99.1,52.5c0,0.1,0,0.1,0,0.1
		c0,0,0,0,0,0.1c0,0,0,0,0.1,0h1.5c0,0,0.1,0,0.1,0c0,0,0-0.1,0-0.1c0,0,0,0,0-0.1c0,0,0,0,0,0l-0.8-2.5c0,0,0-0.1,0-0.1
		c0,0,0,0-0.1,0c0,0,0,0,0,0c0,0,0,0,0,0.1L99.1,52.5z"/>
	<path class="st1" d="M110,50.2v-0.5c0-0.7,0-1.1-0.1-1.4c0-0.2-0.1-0.4-0.3-0.5c-0.1,0-0.2-0.1-0.4-0.1c-0.2,0-0.3-0.1-0.3-0.2
		c0-0.1,0-0.1,0.1-0.1c0,0,0.1-0.1,0.2-0.1c0,0,0.2,0,0.4,0c0.2,0,0.4,0,0.6,0c0.2,0,0.4,0,0.6,0c0.2,0,0.4,0,0.5,0
		c0.1,0,0.1,0,0.2,0.1c0,0,0.1,0.1,0.1,0.1c0,0.1-0.1,0.2-0.3,0.2c-0.2,0-0.4,0-0.4,0.1c-0.1,0.1-0.2,0.2-0.2,0.5
		c0,0.2-0.1,0.8-0.1,1.5v0.3v3c0,0.9,0,1.5-0.1,1.8c-0.1,0.3-0.2,0.6-0.3,0.9c-0.2,0.4-0.5,0.7-0.9,0.8c-0.4,0.2-0.9,0.3-1.5,0.3
		c-0.6,0-1.1-0.1-1.5-0.3c-0.4-0.2-0.7-0.4-1-0.8c-0.1-0.2-0.3-0.5-0.3-0.8c-0.1-0.3-0.1-0.7-0.1-1.4V53v-4.5c0-0.3,0-0.5-0.1-0.5
		c0-0.1-0.2-0.1-0.3-0.2c-0.1,0-0.2,0-0.3-0.1c-0.2,0-0.3-0.1-0.3-0.2c0-0.1,0-0.1,0.1-0.1c0,0,0.1-0.1,0.2-0.1c0,0,0.1,0,0.2,0
		c0.4,0.1,0.9,0.1,1.2,0.1c0.4,0,0.8,0,1.3-0.1c0.1,0,0.2,0,0.2,0c0.1,0,0.1,0,0.2,0.1c0,0,0.1,0.1,0.1,0.1c0,0.1-0.1,0.2-0.3,0.2
		c-0.1,0-0.2,0-0.3,0c-0.2,0-0.3,0.1-0.3,0.2c0,0.1-0.1,0.2-0.1,0.5v5.1c0,1,0.1,1.8,0.4,2.2c0.3,0.4,0.8,0.6,1.5,0.6
		c0.4,0,0.7-0.1,1.1-0.3c0.3-0.2,0.5-0.4,0.7-0.7c0.1-0.2,0.2-0.4,0.2-0.7c0-0.3,0.1-0.8,0.1-1.6V50.2z"/>
	<path class="st1" d="M116.7,49.4c0.1-0.2,0.3-0.5,0.3-0.7c0.1-0.2,0.1-0.4,0.1-0.5c0-0.1,0-0.2-0.1-0.3c-0.1-0.1-0.1-0.1-0.3-0.2
		c0,0-0.1,0-0.2,0c-0.2,0-0.3-0.1-0.3-0.2c0,0,0-0.1,0.1-0.1c0,0,0.1-0.1,0.2-0.1c0,0,0.1,0,0.1,0c0.4,0,0.8,0.1,1.2,0.1
		c0.3,0,0.6,0,0.9,0c0.3,0,0.5,0,0.5,0c0.1,0,0.1,0,0.2,0c0,0,0.1,0.1,0.1,0.1c0,0.1-0.1,0.2-0.4,0.2c-0.1,0-0.2,0-0.2,0
		c-0.2,0.1-0.4,0.2-0.6,0.3c-0.2,0.1-0.4,0.3-0.5,0.6l-1.6,2.6c0,0,0,0.1-0.1,0.1c0,0,0,0.1,0,0.1c0,0,0,0.1,0,0.1
		c0,0,0,0.1,0.1,0.1L118,55c0.2,0.4,0.4,0.7,0.5,0.8c0.1,0.2,0.2,0.3,0.3,0.3c0.1,0.1,0.2,0.1,0.4,0.1c0.2,0,0.3,0.1,0.3,0.2
		c0,0.1,0,0.1-0.1,0.2c-0.1,0-0.1,0.1-0.2,0.1c-0.1,0-0.3,0-0.7-0.1c-0.4,0-0.7-0.1-1-0.1c-0.4,0-0.8,0-1.2,0.1c-0.1,0-0.1,0-0.2,0
		c-0.1,0-0.1,0-0.2,0c0,0-0.1-0.1-0.1-0.1c0-0.1,0.1-0.2,0.3-0.2c0,0,0,0,0,0c0,0,0,0,0,0c0.2,0,0.3-0.1,0.4-0.1
		c0.1,0,0.1-0.1,0.1-0.2c0-0.1,0-0.1-0.1-0.2c0-0.1-0.1-0.2-0.2-0.4l-1.2-2.2c0,0,0-0.1-0.1-0.1c0,0,0,0-0.1,0c0,0,0,0,0,0
		c0,0,0,0.1-0.1,0.1l-1.2,2c-0.1,0.2-0.2,0.3-0.2,0.5c-0.1,0.2-0.1,0.3-0.1,0.3c0,0.1,0,0.1,0.1,0.2c0.1,0.1,0.2,0.1,0.3,0.1
		c0,0,0.1,0,0.1,0c0,0,0.1,0,0.1,0c0.1,0,0.2,0.1,0.3,0.1c0,0,0.1,0.1,0.1,0.1c0,0.1,0,0.1-0.1,0.2c-0.1,0-0.1,0.1-0.2,0.1
		c-0.1,0-0.3,0-0.6-0.1c-0.3,0-0.5-0.1-0.7-0.1c-0.2,0-0.5,0-0.8,0c-0.3,0-0.4,0-0.5,0c-0.1,0-0.1,0-0.2,0c0,0,0-0.1,0-0.1
		c0-0.1,0.1-0.2,0.3-0.3c0.1,0,0.3-0.1,0.3-0.1c0.2-0.1,0.4-0.2,0.6-0.4c0.2-0.2,0.4-0.4,0.5-0.7l1.5-2.4c0-0.1,0.1-0.1,0.1-0.1
		c0,0,0-0.1,0-0.1c0,0,0-0.1,0-0.1c0,0,0-0.1-0.1-0.1l-2.1-3.5c-0.1-0.2-0.2-0.3-0.3-0.4c-0.1-0.1-0.2-0.2-0.3-0.2
		c-0.1,0-0.2,0-0.3,0c-0.2,0-0.3-0.1-0.3-0.2c0-0.1,0-0.1,0.1-0.2c0.1,0,0.1-0.1,0.2-0.1c0.1,0,0.3,0,0.7,0.1c0.4,0,0.7,0.1,1,0.1
		c0.4,0,0.8,0,1.3-0.1c0.1,0,0.2,0,0.3,0c0.1,0,0.2,0,0.2,0c0,0,0.1,0.1,0.1,0.1c0,0.1-0.1,0.2-0.4,0.3c0,0,0,0,0,0
		c-0.2,0-0.3,0.1-0.4,0.1c-0.1,0-0.1,0.1-0.1,0.2c0,0.1,0,0.2,0.1,0.3c0,0.1,0.1,0.2,0.2,0.4l1.1,1.9c0,0,0,0.1,0.1,0.1
		c0,0,0,0,0.1,0c0,0,0.1,0,0.1,0c0,0,0-0.1,0.1-0.1L116.7,49.4z"/>
</g>
</svg>
