<?xml version="1.0" encoding="utf-8"?>
<!-- Generator: Adobe Illustrator 19.1.0, SVG Export Plug-In . SVG Version: 6.00 Build 0)  -->
<svg version="1.1" id="Layer_1" xmlns="http://www.w3.org/2000/svg" xmlns:xlink="http://www.w3.org/1999/xlink" x="0px" y="0px"
	 viewBox="0 0 160 160" style="enable-background:new 0 0 160 160;" xml:space="preserve">
<style type="text/css">
	.st0{fill:#161D3F;}
	.st1{fill:#B39C46;}
	.st2{fill:#FFFFFF;}
	.st3{fill:#E41E26;}
</style>
<path class="st0" d="M144.9,96.7c3.1-1.6,6.1-3.4,9-5.3l-6.7-7l1.1-10.8c-6.1,3.5-12.5,6.5-19.1,8.9h11.2L144.9,96.7L144.9,96.7z"/>
<path class="st0" d="M12.4,96.7c-3.1-1.6-6.1-3.4-9-5.3l6.7-7L9,73.6c6.1,3.5,12.5,6.5,19.1,8.9H16.9C16.9,82.5,12.4,96.7,12.4,96.7
	z"/>
<path class="st1" d="M140.5,82.5L140.5,82.5l-7.4,0c0.2-2.3,0.4-4.7,0.4-7.1V32.8l-0.6-0.3C116.7,24,98.3,16.2,78.7,16.2
	c-19.7,0-38,7.8-54.1,16.3l-0.6,0.3v42.6c0,2.4,0.1,4.8,0.4,7.1h-7.4v0v0c2.6,1.5,5.2,2.9,7.9,4.2c2,11.9,7,22.6,14.3,31.8
	c9.6,12,23.2,21.2,39.1,27.1l0.4,0.2l0.4-0.2c15.9-5.9,29.5-15.1,39.1-27.1c7.4-9.1,12.4-19.9,14.3-31.8
	C135.2,85.4,137.9,84,140.5,82.5L140.5,82.5z"/>
<path class="st2" d="M131.1,75.4c0,15.9-5.4,30-14.7,41.6c-9.2,11.5-22.3,20.5-37.7,26.2C63.3,137.5,50.2,128.5,41,117
	c-9.3-11.6-14.7-25.7-14.7-41.6V34.2C42.1,26,59.9,18.6,78.7,18.6c18.8,0,36.6,7.4,52.4,15.7L131.1,75.4L131.1,75.4z"/>
<path class="st0" d="M52,26.5c-6.8,2.3-14,5.4-22.5,9.7v39.2c0,7.4,1.2,14.6,3.7,21.3c2.4,6.5,5.8,12.6,10.3,18.2
	c8.5,10.6,20.7,19.2,35.1,24.8V21.8C70.2,21.8,61.5,23.4,52,26.5L52,26.5z"/>
<path class="st3" d="M113.8,115c4.5-5.6,8-11.7,10.3-18.2c2.4-6.8,3.7-13.9,3.7-21.3V36.2c-8.5-4.3-15.7-7.4-22.5-9.7
	c-9.5-3.2-18.2-4.7-26.6-4.7v117.9C93.1,134.1,105.3,125.6,113.8,115L113.8,115z"/>
<path class="st0" d="M140.5,82.5c-18.6,10.6-39.7,16.6-61.8,16.6s-43.2-6-61.8-16.6l-5.6,17.8c20,12.7,43,20,67.4,20
	s47.4-7.3,67.4-20L140.5,82.5L140.5,82.5z"/>
<path class="st2" d="M17.7,96.4c0.2-0.4,0.6-0.6,1-0.4c0.4,0.2,0.5,0.7,0.4,0.9c-0.1,0.1-0.2,0.2-0.3,0.3c0.1,0.3,0.4,0.5,0.8,0.8
	c0.7,0.3,1.2,0.3,1.5-0.3c0.3-0.5-0.1-1-0.6-1.5c-0.9-1-1.5-1.8-0.9-2.9c0.5-1,1.7-1.3,2.9-0.7c1.1,0.6,1.7,1.6,1.3,2.4
	c-0.2,0.4-0.6,0.5-1,0.4c-0.4-0.2-0.5-0.7-0.3-1c0.1-0.1,0.1-0.2,0.2-0.3c-0.1-0.2-0.3-0.4-0.7-0.6c-0.6-0.3-1.1-0.2-1.3,0.3
	c-0.3,0.5,0.1,1,0.6,1.5c0.9,1,1.5,1.8,0.9,2.9c-0.6,1.2-1.8,1.3-3.1,0.7C17.9,98.3,17.3,97.1,17.7,96.4"/>
<polygon class="st2" points="24.3,100.2 25,100.5 27,96.2 25.9,95.6 25.4,96.6 24.4,96.2 25.3,94.3 30.7,96.7 29.8,98.7 28.8,98.2 
	29.3,97.2 28.1,96.7 26.1,101 26.9,101.4 26.4,102.3 23.8,101.1 "/>
<path class="st2" d="M29,102.3l0.6,0.2l3.3-3.8l-0.7-0.3l0.4-1l3.6,1.4l-0.4,1l-0.7-0.3l-0.1,5.1l0.6,0.2l-0.4,1l-2.5-1l0.4-1
	l0.7,0.3l0.1-1.2l-2.4-0.9l-0.8,0.9l0.8,0.3l-0.4,1l-2.5-1L29,102.3L29,102.3z M33.9,102l0.1-2.9l-1.9,2.2L33.9,102L33.9,102z"/>
<path class="st2" d="M36.4,105.2l0.7,0.2l1.5-4.5l-0.7-0.2l0.3-1l2.5,0.8c2.4,0.8,3.4,2.4,2.7,4.4c-0.6,2-2.4,2.9-5,2.1l-2.3-0.8
	L36.4,105.2L36.4,105.2z M38.9,106c1.7,0.5,2.9-0.1,3.3-1.5c0.5-1.4-0.3-2.5-1.9-3.1l-0.6-0.2l-1.5,4.5L38.9,106L38.9,106z"/>
<polygon class="st2" points="43.9,107.6 44.7,107.8 45.9,103.2 45.1,103 45.4,102 50.4,103.3 49.9,105.2 48.8,104.9 49,104 
	47,103.5 46.6,105.3 48.6,105.8 48.3,106.8 46.3,106.2 45.8,108.1 47.8,108.6 48,107.8 49.1,108 48.6,109.9 43.7,108.6 "/>
<polygon class="st2" points="52.7,109.8 53.5,110 54.6,105.3 53.7,105.2 53.9,104.1 55.8,104.5 57.2,108.6 59.9,105.2 61.7,105.5 
	61.6,106.6 60.7,106.4 60.1,111.1 60.9,111.3 60.7,112.3 57.9,111.8 58.1,110.8 58.9,110.9 59.4,107.4 56.9,110.5 56.7,110.4 
	55.4,106.7 54.7,110.2 55.5,110.3 55.3,111.4 52.5,110.9 "/>
<path class="st2" d="M61.9,111.4l0.6,0.1l2.2-4.6l-0.7-0.1l0.1-1l3.9,0.4l-0.1,1l-0.7-0.1l1.2,4.9l0.6,0.1l-0.1,1l-2.6-0.3l0.1-1
	l0.8,0.1l-0.3-1.2l-2.5-0.3l-0.5,1.1l0.8,0.1l-0.1,1l-2.6-0.3L61.9,111.4L61.9,111.4z M66.5,109.8l-0.7-2.8l-1.2,2.6L66.5,109.8
	L66.5,109.8z"/>
<polygon class="st2" points="69.8,112.2 70.6,112.2 70.8,107.5 70,107.4 70.1,106.4 72.9,106.5 72.9,107.6 72,107.5 71.7,112.3 
	73.6,112.4 73.7,111.4 74.8,111.5 74.7,113.5 69.7,113.2 "/>
<polygon class="st2" points="75.9,112.5 76.7,112.5 76.7,107.7 75.9,107.7 75.9,106.7 78.7,106.7 78.7,107.7 77.8,107.7 77.8,109.5 
	81,109.5 81,107.7 80.2,107.7 80.1,106.7 83,106.6 83,107.7 82.2,107.7 82.2,112.5 83,112.5 83,113.5 80.2,113.5 80.2,112.5 
	81,112.5 81,110.6 77.9,110.6 77.9,112.5 78.7,112.5 78.7,113.5 75.9,113.6 "/>
<polygon class="st2" points="84.2,112.4 85,112.3 84.7,107.6 83.9,107.7 83.8,106.6 88.9,106.3 89.1,108.2 87.9,108.3 87.9,107.4 
	85.8,107.5 86,109.4 88,109.2 88.1,110.2 86,110.4 86.1,112.3 88.2,112.2 88.1,111.2 89.2,111.2 89.4,113.1 84.2,113.4 "/>
<path class="st2" d="M90.6,112l0.8-0.1l-0.5-4.7l-0.8,0.1l-0.1-1l2.6-0.3c1.6-0.2,2.8,0.4,2.9,1.8c0.1,0.9-0.4,1.6-1.1,2l1.3,1.7
	l0.8-0.1l0.1,1l-1.6,0.2l-1.7-2.4c-0.1,0-0.3,0.1-0.4,0.1c-0.2,0-0.4,0-0.6,0.1l0.2,1.5l0.9-0.1l0.1,1l-2.8,0.3L90.6,112L90.6,112z
	 M94.3,107.8c-0.1-0.7-0.7-1-1.7-0.9L92,107l0.3,2.2c0.1,0,0.3,0,0.7-0.1C93.8,109.1,94.4,108.5,94.3,107.8"/>
<path class="st2" d="M97.5,111.2l0.8-0.1l-0.8-4.7l-0.8,0.1l-0.2-1l2.7-0.5c1.7-0.3,2.6,0.3,2.8,1.4c0.1,0.8-0.3,1.4-0.9,1.7
	c0.9,0.1,1.5,0.5,1.6,1.4c0.2,1.1-0.6,2-2.2,2.3l-2.8,0.5L97.5,111.2L97.5,111.2z M99.7,107.8c0.8-0.1,1.2-0.6,1.1-1.2
	c-0.1-0.6-0.6-0.8-1.4-0.7l-0.8,0.1l0.3,1.9L99.7,107.8L99.7,107.8z M100.3,110.7c0.8-0.1,1.3-0.6,1.2-1.2c-0.1-0.6-0.7-0.9-1.5-0.7
	l-0.9,0.2l0.3,1.9L100.3,110.7L100.3,110.7z"/>
<polygon class="st2" points="104,110 104.8,109.8 103.8,105.2 103,105.4 102.8,104.3 107.8,103.2 108.2,105.1 107.1,105.4 
	106.9,104.5 104.9,104.9 105.3,106.7 107.3,106.3 107.5,107.2 105.5,107.7 105.9,109.6 107.9,109.1 107.7,108.3 108.8,108 
	109.3,109.9 104.3,111 "/>
<path class="st2" d="M112.3,105.6c-0.6-2,0.5-3.9,2.4-4.5c1.5-0.5,2.8,0,3,0.8c0.1,0.5-0.1,0.9-0.5,1c-0.5,0.1-0.8,0-1-0.5
	c0-0.1,0-0.3,0-0.4c-0.2-0.1-0.7-0.1-1.3,0.1c-1.3,0.4-2,1.7-1.5,3c0.4,1.3,1.6,2.1,3,1.7c0.8-0.2,1.3-0.8,1.6-1.4l1,0.6
	c-0.4,0.9-1.2,1.6-2.3,1.9C114.8,108.6,112.9,107.6,112.3,105.6"/>
<path class="st2" d="M120.1,105.7l0.6-0.2l-0.1-5.1l-0.7,0.3l-0.4-1l3.6-1.4l0.4,1l-0.7,0.3l3.3,3.9l0.6-0.2l0.4,1l-2.5,0.9l-0.4-1
	l0.7-0.3l-0.8-0.9l-2.4,0.9l0,1.2l0.8-0.3l0.4,1l-2.5,0.9L120.1,105.7L120.1,105.7z M123.5,102.2l-1.8-2.2l0,2.9L123.5,102.2
	L123.5,102.2z"/>
<polygon class="st2" points="127.5,102.9 128.2,102.6 126.3,98.2 125.6,98.5 125.2,97.5 129.9,95.5 130.6,97.3 129.6,97.7 
	129.2,96.9 127.4,97.7 128.1,99.4 130,98.6 130.4,99.5 128.5,100.3 129.3,102.1 131.2,101.3 130.8,100.4 131.8,100 132.6,101.8 
	127.9,103.8 "/>
<polygon class="st2" points="133.5,96.1 135.1,99.4 135.9,99 136.4,100 133.9,101.2 133.4,100.3 134.1,99.9 132,95.7 131.3,96 
	130.8,95.1 132.4,94.3 137.3,96.6 135.9,93.7 135.1,94.1 134.6,93.1 137.1,91.9 137.6,92.9 136.9,93.2 139.5,98.4 139,98.7 "/>
<path class="st1" d="M47.2,51.7h-2.2l-7.7,1.9l1.1,3.8l4.2-1V70h-5v3.8h14.6V70h-5C47.2,70,47.2,51.7,47.2,51.7z M92.3,51.7H90
	l-7.7,1.9l1.1,3.8l4.2-1V70h-5v3.8h14.6V70h-5C92.3,70,92.3,51.7,92.3,51.7z M115.8,65.5c-0.8-0.4-1.6-0.8-2.4-1
	c0.9-0.2,1.8-0.5,2.6-1c1.9-1.1,3.3-2.9,3.3-5.2c0-4-3.8-7-9.1-7c-4.2,0-6.7,1.6-7.9,3.3c-0.6,0.8-0.8,1.7-0.8,2.4
	c0,2,1.3,3.3,2.9,3.3s2.8-1.3,2.8-2.8c0-0.6-0.3-1.2-0.6-1.7c0.7-0.5,1.9-0.8,3.5-0.8c2.5,0,4.6,1.1,4.6,3.4c0,1.5-0.8,2.7-2.3,3.4
	c-1.2,0.6-2.7,0.9-4.5,0.9h-1.4v3.6h1.3c1.9,0,3.3,0.3,4.4,0.7c2,0.8,2.7,2.3,2.7,3.9c0,2.6-2.1,4.3-5,4.3c-1.8,0-3.4-0.4-4.5-1.3
	c0.3-0.5,0.6-1.1,0.6-1.7c0-1.5-1.3-2.8-2.8-2.8c-1.7,0-2.9,1.4-2.9,3.2c0,0.9,0.3,1.9,0.9,2.7c1.5,2.1,4.6,3.7,8.6,3.7
	c5.6,0,9.7-3,9.7-7.7C119.5,68.5,117.8,66.6,115.8,65.5 M64.4,51.3c-5.8,0-10.1,3.9-10.1,8.9c0,4.8,4,8.5,9.5,8.5
	c2.8,0,5.3-1.4,6.5-3.1c-0.2,6.4-3.9,9.6-6.7,9.6c-1,0-1.8-0.2-2.4-0.4c0.1-0.3,0.2-0.6,0.2-1c0-1.5-1.2-2.8-3-2.8
	c-1.5,0-2.8,1.3-2.8,3.1c0,1,0.4,1.9,1.1,2.7c1.3,1.4,3.7,2.3,6.5,2.3c6.2,0,11.5-5.4,11.5-15.4c0-4.4-1.2-7.7-3.3-9.8
	C69.5,52.2,67.2,51.3,64.4,51.3 M64.2,65c-3.2,0-5.2-2.1-5.2-4.7c0-2.8,2.3-5.1,5.4-5.1c1.6,0,2.9,0.6,3.9,1.5
	c1,0.9,1.6,2.1,1.6,3.4C69.8,62.8,67.3,65,64.2,65"/>
</svg>
