<?xml version="1.0" encoding="utf-8"?>
<!-- Generator: Adobe Illustrator 19.1.0, SVG Export Plug-In . SVG Version: 6.00 Build 0)  -->
<svg version="1.1" id="Layer_1" xmlns="http://www.w3.org/2000/svg" xmlns:xlink="http://www.w3.org/1999/xlink" x="0px" y="0px"
	 viewBox="0 0 160 160" style="enable-background:new 0 0 160 160;" xml:space="preserve">
<style type="text/css">
	.st0{fill:#FFFFFF;}
	.st1{fill:#010101;}
	.st2{fill:#EA6624;}
</style>
<g>
	<path class="st0" d="M79.9,151.6l-0.7-0.4c-20.7-11.6-35.1-28-42.7-48.7C30,85.1,30,68.9,30,61.9c0-16.2,3.4-37.7,3.5-37.9l0.1-0.8
		l0.7-0.3c0.3-0.1,0.6-0.3,0.9-0.4c0.3-2.3,0.5-4,0.5-4l0.1-0.8l0.7-0.3c0.2-0.1,5-2.4,12.4-4.5c6.9-1.9,17.8-4.2,30.9-4.2
		c13.1,0,24.1,2.3,30.9,4.2c7.4,2.1,12.2,4.4,12.4,4.5l0.7,0.3l0.1,0.8c0,0,0.2,1.7,0.5,4c0.3,0.1,0.7,0.3,0.9,0.4l0.7,0.3l0.1,0.8
		c0,0.2,3.5,21.6,3.5,37.9c0,7,0,23.3-6.4,40.6c-7.6,20.7-22,37.1-42.7,48.7L79.9,151.6"/>
	<path class="st1" d="M124.9,24.2c-0.6-0.3-1.7-0.8-1.7-0.8c-0.3-2.7-0.6-4.8-0.6-4.8s-4.8-2.3-12.1-4.4c-6.8-1.9-17.6-4.2-30.5-4.2
		c-13,0-23.8,2.3-30.5,4.2c-7.4,2.1-12.1,4.4-12.1,4.4s-0.3,2.1-0.6,4.8c0,0-1.1,0.5-1.7,0.8c0,0-3.4,21.3-3.4,37.6
		c0,16.3,0.7,61.3,48.4,88.1c47.7-26.8,48.4-71.8,48.4-88.1C128.3,45.6,124.9,24.2,124.9,24.2z"/>
	<path class="st0" d="M123.2,29.8c0.2,1.7,0.4,3.6,0.6,5.5c-3-0.3-11.3-0.7-24.4,1.1c-11.9,1.6-23.1,5.3-27.9,7
		c0.1-3,0.2-5.7,0.5-8.2c3.6-1.3,11.6-3.9,22.8-5.3C110.7,28,121.5,29.5,123.2,29.8z"/>
	<path class="st0" d="M96.1,15.6c16.9,0,25.7,3.6,25.7,3.6s0,0,0,0c0,0,0,0,0,0s0.2,1.5,0.5,4.1c-1.6-0.5-10.4-2.9-25.7-2
		c-10.7,0.6-19.2,2.8-23.3,3.9c0.2-1,0.4-1.9,0.6-2.7c0.5-2.1,1-3.7,1.5-5C80.1,16.6,87.1,15.6,96.1,15.6z"/>
	<path class="st0" d="M72.5,13.6c1.3,0.2,2.2,0.4,2.8,0.6c0.2,0.1,0.4,0.2,0.6,0.2c-0.2,0.2-0.7,0.5-1.4,0.8
		c-1.9,0.8-5.6,1.7-12.5,2.4c-0.2-2.4-0.5-4-0.7-4.8C66.3,12.8,70,13.2,72.5,13.6z"/>
	<path class="st2" d="M79.9,137.6c-34.1-19.8-42.5-46.7-44.5-65.3h89C122.4,90.9,114,117.8,79.9,137.6z"/>
	<path class="st2" d="M61.2,17.7c-0.2-2.1-0.4-3.6-0.6-4.4c-0.1-0.4-0.1-0.7-0.1-0.7c-10.6,1.9-18.2,4.7-21.1,6h0
		C48.8,18.5,55.9,18.2,61.2,17.7z"/>
	<path class="st0" d="M124.4,42.9c-3.8,0-14.2,0.1-27.9,2.9c-1.4,0.3-2.9,0.6-4.3,0.9H70.7c0-0.3,0-0.6,0-0.9
		c0-16.5,3.4-26.7,4.8-30.2c-0.2,0.1-0.5,0.2-0.8,0.3c-1.2,0.5-3.1,1-5.8,1.5c-5.6,1-14.8,1.8-29.9,1.8c-0.3,0-0.7,0-1,0
		c-0.2,1.4-2.1,15.6-2.9,29h89.8C124.7,46.5,124.6,44.7,124.4,42.9z"/>
	<path class="st1" d="M103.4,101.1c-0.2-0.1-0.3-0.1-0.5-0.2c-0.2-12.4-10.4-22.5-22.9-22.5c-5.6,0-10.7,2-14.6,5.3
		c-2.1-0.3-4.4-0.5-6.5,0c-0.4,0.1-1.1,0.4-0.1,1.7l1.6,2c0.1,0.2,0.3,0.8-0.3,0.8c-0.6,0-3.1-0.2-3.4,0.1c-2,2-4.2,6.7-4.2,12.5
		c0,1.6,0.3,3.3,0.9,5c0,0,0.2,0.6,0.3,0.9c4.1,10.3,13.8,17.4,25.6,17.7c0.3,0,0.5,0,0.8,0c0.2,0,0.4,0,0.6,0
		c8.5-0.2,15.9-3.9,20.9-9.8c1.3-1.5,2.4-3.1,3.4-4.9C106.7,105.7,106.2,102.3,103.4,101.1z"/>
	<path class="st2" d="M79.9,80.2c11.6,0,21,9.1,21.6,20.5c-6.3-0.8-17.2,0.1-24.8,2.2c9.5-1,17.1,0.5,19.7,4.8
		c2.9,5-4.2,15.4-15.8,15.7c-0.2,0-0.4,0-0.6,0c-3.5,0-6.7-1.2-9.6-3.2c-3.7-2.7-5.8-6.6-6-8.9c-0.3-3.6-0.4-6.5,13.5-10.5
		c3.9-1,6-1.2,8.2-1.6c2.9-0.5,7.2-1.4,10.2-4c0,0,1.1-0.1,1.3-0.2c0.3-0.1,0.4-1.3,0.3-1.5c-0.2-0.2-1.9-2.7-7-4.8
		c-3.8-1.6-10-3.3-17.7-3.3c-1.2,0-1.5,0-3.3-0.6c-0.5-0.2-1.4-0.4-2.5-0.7C70.9,81.7,75.3,80.2,79.9,80.2z"/>
	<path class="st0" d="M98.2,107.8c-2.4-4.6-11.4-6-21.4-4.9c9.5-1,17.1,0.5,19.7,4.8c2.9,5.1-4.4,15.8-16.5,15.8
		c-11.6,0-20.6-9.7-19.3-16.4c1-5.1,17.1-10.1,17.8-10.3c0.4-0.1,0.6-0.4,0.3-0.7c-1.7-1.9-2.8-3.9-3.1-4.7
		c-0.3-0.8-0.1-1.9,1.7-2.3c2.4-0.5,4.6-0.3,4.6-0.3s-4.1-0.1-4.8,1.4c-0.4,0.7,1.1,3.5,4.3,6c0.7,0.6,1.5,1,2.6,1.2
		c1.4,0.2,7.8,1.2,12.2-2.1c0,0-4.3,0.4-5.8,0.4c2.6-0.3,5.1-0.8,5.9-1.2c0.2-0.1,0.5-0.8,0.3-1.2c-0.4-0.9-2.4-3.1-6.1-4.6
		c-3.7-1.4-13.9-3.3-23.9-0.1c-16.1,5.2-11.2,20.6-6.8,25.6c7.5,8.5,16.2,9.7,20,9.7c3.8,0,6.3-0.6,10.3-2.5
		C94.1,119.8,101,113.3,98.2,107.8z"/>
	<path class="st1" d="M82.5,89.9c0,0,0.1,0.9,1.8,1.6c1.6,0.7,2.8,0.4,3.1,0.1c0.3-0.3-0.6-1-1.3-1.7c-0.8-0.8,0.9-0.7,1.2-0.6
		c0.3,0.1,0.9,0.3,1.2,0.5c1.8,0.9,1.7,1.6,1.6,2c-0.1,0.4-1.3,1.7-4.6,0.6C82.3,91.5,82.5,89.9,82.5,89.9z"/>
	<path class="st1" d="M60.4,94.2c2-1,6.9-2.7,14.9-2.1c0,0-6.7,0.4-11.2,2.1c-1.3,0.5-1.4,1.2-0.2,1.6c1.2,0.3,4.6,1,4.9,1
		c0.3,0,1.1,0,2.9-1c1.8-1,4-2.6,4-2.6s-3.1,3.3-4.3,4.2c-1.2,1-1.9,1.2-4.5,0.8c-2.6-0.4-5.7-1.3-6.7-1.7
		C59.1,96.3,58.3,95.2,60.4,94.2z"/>
	<path class="st1" d="M85.8,117.2h-1.8c-0.3,0-0.5-0.1-0.7-0.3v0.3h-4v-0.3c-0.2,0.2-0.5,0.3-0.7,0.3h-1.8c-0.3,0-0.5-0.1-0.8-0.3
		v0.3h-2.1v-4.4h-0.8l0.9-1.7l0.1-0.2h1.9v0.3c0.2-0.2,0.5-0.3,0.7-0.3h1.9c0.3,0,0.6,0.1,0.8,0.3l0.1,0.2l0.1-0.1
		c0.2-0.2,0.5-0.3,0.8-0.3H82c0.3,0,0.6,0.1,0.8,0.3l0.1,0.1l0.1-0.1c0.2-0.2,0.5-0.3,0.8-0.3h1.9c0.3,0,0.6,0.1,0.8,0.3
		c0.2,0.2,0.4,0.5,0.4,0.8v1.4h-0.3c0.2,0.2,0.3,0.5,0.3,0.8v1.8c0,0.3-0.1,0.6-0.4,0.8C86.3,117.1,86.1,117.2,85.8,117.2
		 M81.8,115.2h0.9V114L81.8,115.2z M79.6,113.4v1.3l1-1.3H79.6z"/>
	<path class="st0" d="M86.5,113V112c0-0.2-0.1-0.4-0.2-0.5c-0.2-0.1-0.3-0.2-0.5-0.2h-1.8c-0.2,0-0.4,0.1-0.5,0.2
		c-0.1,0.1-0.2,0.3-0.2,0.5v4c0,0.2,0.1,0.4,0.2,0.5c0.2,0.1,0.3,0.2,0.5,0.2h1.8c0.2,0,0.4-0.1,0.5-0.2c0.1-0.1,0.2-0.3,0.2-0.5
		v-1.8c0-0.2-0.1-0.4-0.2-0.5c-0.2-0.1-0.3-0.2-0.5-0.2h-1.3v-1.1h0.8v0.6H86.5z M85.2,114.5v1.1h-0.8v-1.1H85.2z"/>
	<path class="st0" d="M82,111.3h-1.7c-0.2,0-0.4,0.1-0.5,0.2c-0.1,0.1-0.2,0.3-0.2,0.5v0.9h1.3v-0.5h0.5v0.5l-1.8,2.5v1.4h3.1v-1.1
		h-1.8l1.8-2.5V112c0-0.2-0.1-0.4-0.2-0.5C82.4,111.4,82.2,111.3,82,111.3z"/>
	<path class="st0" d="M78.4,111.3h-1.8c-0.2,0-0.4,0.1-0.5,0.2c-0.1,0.1-0.2,0.3-0.2,0.5v1.8c0,0.2,0.1,0.4,0.2,0.5
		c0.2,0.1,0.3,0.2,0.5,0.2h1.3v1.1h-0.8v-0.6h-1.2v0.9c0,0.2,0.1,0.4,0.2,0.5c0.2,0.1,0.3,0.2,0.5,0.2h1.8c0.2,0,0.4-0.1,0.5-0.2
		c0.1-0.1,0.2-0.3,0.2-0.5v-4c0-0.2-0.1-0.4-0.2-0.5C78.7,111.4,78.6,111.3,78.4,111.3z M77.8,113.5h-0.8v-1.1h0.8V113.5z"/>
	<polygon class="st0" points="73.6,112.4 74.2,112.4 74.2,116.7 75.3,116.7 75.3,111.3 74.2,111.3 	"/>
	<path class="st1" d="M68.2,21.5c-0.3-0.6-0.5-1.3-0.8-1.9c-0.3,0.7-0.7,1.4-1.1,2.1c0.3,0.3,0.6,0.5,0.9,0.8
		C67.5,22.1,67.9,21.8,68.2,21.5z"/>
	<path class="st1" d="M40.3,39.4c-0.3-0.3-0.6-0.6-0.9-0.9c-0.9,0.3-1.9,0.6-2.8,0.8c0.8,0.3,1.6,0.6,2.4,1
		C39.4,40,39.9,39.7,40.3,39.4z"/>
	<path class="st1" d="M36.2,45.6c0.7-0.2,1.3-0.3,2-0.5c0.4,0.4,0.7,0.7,1.1,1.1c0.5-0.3,1-0.7,1.5-1c0.6,0.2,1.2,0.4,1.8,0.5
		c-0.7-2-1.3-3.9-1.9-5.9C39.1,41.7,37.7,43.7,36.2,45.6z"/>
	<path class="st1" d="M39.8,38.2c0.3,0.3,0.6,0.6,0.8,0.9c0.4-0.3,0.8-0.6,1.2-0.9c-0.2-0.7-0.4-1.3-0.6-2
		C40.8,36.9,40.3,37.6,39.8,38.2z"/>
	<path class="st1" d="M43.2,24.1c-0.3-0.3-0.5-0.6-0.8-0.9c-0.9,0.3-1.7,0.6-2.6,0.9c0.8,0.3,1.5,0.6,2.3,0.9
		C42.4,24.7,42.8,24.4,43.2,24.1z"/>
	<path class="st1" d="M44.7,25c0.9-0.3,1.7-0.6,2.6-0.9c-0.8-0.3-1.5-0.6-2.3-0.9c-0.4,0.3-0.8,0.6-1.1,0.9
		C44.1,24.4,44.4,24.7,44.7,25z"/>
	<path class="st1" d="M40.9,39.5c0.3,0.3,0.6,0.6,0.9,0.9c0.9-0.3,1.9-0.6,2.8-0.9c-0.8-0.3-1.6-0.6-2.4-0.9
		C41.8,38.9,41.4,39.2,40.9,39.5z"/>
	<path class="st1" d="M42.3,30.9c0.5-0.3,0.9-0.7,1.4-1.1c0.5,0.2,1.1,0.4,1.6,0.5c-0.6-2-1.3-3.9-1.9-5.9c-1.3,2-2.6,3.9-4,5.8
		c0.6-0.2,1.2-0.3,1.8-0.5C41.6,30.1,41.9,30.5,42.3,30.9z"/>
	<path class="st1" d="M44.7,22.9c-0.2-0.7-0.4-1.3-0.6-2c-0.4,0.7-0.9,1.3-1.3,2c0.3,0.3,0.5,0.6,0.8,0.9
		C43.9,23.5,44.3,23.2,44.7,22.9z"/>
	<path class="st1" d="M62.3,44.9c0.6-0.2,1.3-0.5,1.9-0.7c0.4,0.3,0.8,0.6,1.2,1c0.5-0.4,0.9-0.8,1.4-1.2c0.6,0.1,1.2,0.2,1.8,0.3
		c-0.9-1.9-1.8-3.8-2.6-5.6C64.8,40.8,63.6,42.9,62.3,44.9z"/>
	<path class="st1" d="M65.7,38.4c-0.3-0.3-0.6-0.5-1-0.8c-0.9,0.4-1.8,0.8-2.7,1.1c0.8,0.2,1.7,0.5,2.5,0.7
		C64.9,39.1,65.3,38.7,65.7,38.4z"/>
	<path class="st1" d="M66.4,38.3c0.3,0.3,0.6,0.5,1,0.8c0.9-0.4,1.8-0.8,2.7-1.2c-0.8-0.2-1.7-0.4-2.5-0.6
		C67.1,37.7,66.7,38,66.4,38.3z"/>
	<path class="st1" d="M49.3,45.6c0.6-0.2,1.3-0.4,1.9-0.6c0.4,0.3,0.8,0.7,1.1,1c0.5-0.4,1-0.7,1.5-1.1c0.6,0.1,1.2,0.3,1.8,0.4
		c-0.8-1.9-1.5-3.9-2.3-5.8C52,41.6,50.6,43.6,49.3,45.6z"/>
	<path class="st1" d="M48.2,32.1c-1.3,2-2.7,4-4,5.9c0.6-0.2,1.3-0.4,1.9-0.5c0.4,0.3,0.7,0.7,1.1,1c0.5-0.4,1-0.7,1.4-1.1
		c0.6,0.2,1.1,0.3,1.7,0.5C49.6,36,48.9,34,48.2,32.1z"/>
	<path class="st1" d="M60.5,31.5c-1.2,2.1-2.4,4.1-3.7,6.1c0.6-0.2,1.2-0.4,1.9-0.6c0.4,0.3,0.8,0.7,1.1,1c0.5-0.4,0.9-0.8,1.4-1.2
		c0.6,0.1,1.2,0.3,1.7,0.4C62.1,35.3,61.3,33.4,60.5,31.5z"/>
	<path class="st1" d="M53.7,39.3c0.3,0.3,0.6,0.6,0.9,0.9c0.9-0.3,1.8-0.7,2.7-1c-0.8-0.2-1.7-0.5-2.5-0.8
		C54.5,38.6,54.1,38.9,53.7,39.3z"/>
	<path class="st1" d="M49.3,39.4c0.8,0.3,1.6,0.6,2.5,0.8c0.4-0.3,0.8-0.6,1.2-0.9c-0.3-0.3-0.6-0.6-0.9-0.9
		C51.2,38.8,50.3,39.1,49.3,39.4z"/>
	<path class="st1" d="M61.6,29.8c-0.3-0.6-0.5-1.3-0.8-1.9c-0.4,0.7-0.8,1.4-1.2,2.1c0.3,0.3,0.6,0.5,0.9,0.8
		C60.9,30.5,61.3,30.2,61.6,29.8z"/>
	<path class="st1" d="M59.1,32.2c0.4-0.3,0.7-0.7,1.1-1c-0.3-0.3-0.6-0.6-0.9-0.8c-0.9,0.4-1.7,0.7-2.6,1.1
		C57.5,31.7,58.3,31.9,59.1,32.2z"/>
	<path class="st1" d="M56.5,24.6c0.8-0.4,1.7-0.7,2.5-1.1c-0.8-0.2-1.5-0.5-2.3-0.7c-0.4,0.3-0.7,0.6-1.1,1
		C56,24.1,56.3,24.3,56.5,24.6z"/>
	<path class="st1" d="M61.8,31.9c0.9-0.4,1.7-0.8,2.6-1.1c-0.8-0.2-1.6-0.5-2.4-0.7c-0.4,0.3-0.7,0.7-1.1,1
		C61.2,31.4,61.5,31.7,61.8,31.9z"/>
	<path class="st1" d="M69.7,28.8c-0.9-1.9-1.7-3.7-2.5-5.6c-1.1,2.1-2.2,4.2-3.3,6.3c0.6-0.2,1.2-0.5,1.8-0.7
		c0.4,0.3,0.7,0.6,1.1,0.9c0.4-0.4,0.9-0.8,1.3-1.2C68.5,28.5,69.1,28.7,69.7,28.8z"/>
	<path class="st1" d="M44.4,31.8c0.8,0.3,1.6,0.6,2.4,0.9c0.4-0.3,0.8-0.6,1.2-0.9c-0.3-0.3-0.6-0.6-0.9-0.9
		C46.2,31.2,45.3,31.5,44.4,31.8z"/>
	<path class="st1" d="M66.9,22.8c-0.3-0.3-0.6-0.5-0.9-0.8c-0.8,0.4-1.6,0.8-2.5,1.2c0.8,0.2,1.6,0.4,2.4,0.7
		C66.2,23.5,66.5,23.2,66.9,22.8z"/>
	<path class="st1" d="M65.1,37.2c0.3,0.3,0.6,0.5,0.9,0.8c0.4-0.3,0.7-0.7,1.1-1c-0.3-0.6-0.6-1.3-0.8-1.9
		C65.9,35.8,65.5,36.5,65.1,37.2z"/>
	<path class="st1" d="M68.4,23.6c0.8-0.4,1.6-0.8,2.5-1.2c-0.8-0.2-1.6-0.4-2.4-0.6c-0.3,0.3-0.7,0.7-1,1
		C67.8,23,68.1,23.3,68.4,23.6z"/>
	<path class="st1" d="M49.5,32.6c0.9-0.3,1.8-0.7,2.7-1c-0.8-0.3-1.6-0.5-2.4-0.8c-0.4,0.3-0.8,0.6-1.1,0.9
		C48.9,32,49.2,32.3,49.5,32.6z"/>
	<path class="st1" d="M56.5,22.5c-0.2-0.6-0.5-1.3-0.7-1.9c-0.4,0.7-0.8,1.4-1.2,2.1c0.3,0.3,0.6,0.6,0.8,0.8
		C55.8,23.1,56.1,22.8,56.5,22.5z"/>
	<path class="st1" d="M49.4,30.5c-0.2-0.7-0.4-1.3-0.7-2c-0.4,0.7-0.9,1.3-1.3,2c0.3,0.3,0.6,0.6,0.8,0.9
		C48.7,31.1,49.1,30.8,49.4,30.5z"/>
	<path class="st1" d="M55,23.8c-0.3-0.3-0.6-0.6-0.9-0.9c-0.8,0.3-1.7,0.7-2.5,1c0.8,0.3,1.5,0.5,2.3,0.8
		C54.3,24.5,54.7,24.1,55,23.8z"/>
	<path class="st1" d="M54.5,30.6c0.5-0.4,0.9-0.8,1.3-1.1c0.6,0.1,1.1,0.3,1.7,0.4c-0.8-1.9-1.5-3.8-2.2-5.8c-1.2,2-2.4,4.1-3.7,6.1
		c0.6-0.2,1.2-0.4,1.8-0.6C53.8,29.9,54.2,30.3,54.5,30.6z"/>
	<path class="st1" d="M54.5,38c-0.2-0.7-0.5-1.3-0.7-2c-0.4,0.7-0.9,1.4-1.3,2c0.3,0.3,0.6,0.6,0.9,0.8C53.8,38.6,54.1,38.3,54.5,38
		z"/>
	<path class="st0" d="M77.9,53.2c-0.4-0.4-0.9-0.6-1.5-0.6h-4.1c-0.6,0-1,0.2-1.5,0.6v0c-0.4,0.4-0.6,0.8-0.6,1.4V66
		c0,0.6,0.2,1,0.6,1.4c0.4,0.4,0.9,0.6,1.5,0.6h4.1c0.6,0,1-0.2,1.5-0.6c0.4-0.4,0.6-0.8,0.6-1.4V54.6C78.5,54,78.3,53.6,77.9,53.2
		L77.9,53.2z M75.4,65.2l-0.1,0.3l-0.3,0.1h-1.1l-0.3-0.1l-0.1-0.3h0v-9.9l0.1-0.3l0.3-0.1h1.1l0.3,0.1l0.1,0.3V65.2z"/>
	<path class="st0" d="M35.9,68h3.2V62c0-0.3,0.2-0.5,0.5-0.5h3.4v-2.4h-3.4L39.2,59l-0.1-0.3v-3.3c0-0.3,0.2-0.5,0.5-0.5h3.4v-2.3
		h-7V68z"/>
	<rect x="91.6" y="52.6" class="st0" width="3.1" height="15.5"/>
	<path class="st0" d="M97,68h7v-2.3h-3.4c-0.3,0-0.5-0.2-0.5-0.5V62c0-0.3,0.2-0.5,0.5-0.5h3.4v-2.4h-3.4c-0.3,0-0.5-0.2-0.5-0.5
		v-3.3c0-0.3,0.2-0.5,0.5-0.5h3.4v-2.3h-7V68z"/>
	<polygon class="st0" points="116.8,52.6 116.8,54.8 118.4,54.8 118.7,55 118.8,55.3 118.8,68 121.8,68 121.8,55.3 121.8,55.3 
		121.9,55 122.3,54.8 123.9,54.8 123.9,52.6 	"/>
	<path class="st0" d="M114.1,53.2c-0.4-0.4-0.9-0.6-1.5-0.6h-6.2V68h3.2V55.3l0.1-0.3l0.3-0.1h1.1l0.3,0.1l0.1,0.3h0V68h3.1V54.6
		C114.7,54,114.5,53.6,114.1,53.2L114.1,53.2z"/>
	<path class="st0" d="M53,53.2c-0.4-0.4-0.9-0.6-1.5-0.6h-4.1c-0.6,0-1,0.2-1.5,0.6v0c-0.4,0.4-0.6,0.8-0.6,1.4V66
		c0,0.6,0.2,1,0.6,1.4c0.4,0.4,0.9,0.6,1.5,0.6h4.1c0.6,0,1-0.2,1.5-0.6c0.4-0.4,0.6-0.8,0.6-1.4v-3.5h-3.1v2.8l-0.1,0.3L50,65.7
		h-1.1l-0.3-0.1l-0.1-0.3l0-9.9l0.1-0.3l0.3-0.1H50l0.3,0.1l0.1,0.3v2.8h3.1v-3.6C53.6,54,53.4,53.6,53,53.2L53,53.2z"/>
	<path class="st0" d="M87.9,61c0.3-0.2,0.4-0.3,0.7-0.6c0.4-0.3,0.6-0.8,0.6-1.4v-4.4c0-0.6-0.2-1-0.6-1.4c-0.4-0.4-0.9-0.6-1.5-0.6
		h-6.3V68h3.1v-5c0-0.2,0.2-0.4,0.4-0.5l0.1,0c0.2,0,0.4,0.1,0.4,0.3l1.9,5.1h3l-2.1-5.7C87.4,61.8,87.6,61.3,87.9,61z M85.9,58.6
		L85.8,59l-0.3,0.1h-1.1L84.1,59l-0.1-0.3v-3.3l0.1-0.3l0.3-0.1h1.1l0.3,0.1l0.1,0.3V58.6z"/>
	<polygon class="st0" points="64.5,65.5 64.4,65.2 64.4,52.6 61.2,52.6 61.2,68 68.1,68 68.1,65.7 64.9,65.7 	"/>
</g>
</svg>
