<?xml version="1.0" encoding="utf-8"?>
<!-- Generator: Adobe Illustrator 19.1.0, SVG Export Plug-In . SVG Version: 6.00 Build 0)  -->
<svg version="1.1" id="Layer_1" xmlns="http://www.w3.org/2000/svg" xmlns:xlink="http://www.w3.org/1999/xlink" x="0px" y="0px"
	 viewBox="0 0 160 160" style="enable-background:new 0 0 160 160;" xml:space="preserve">
<style type="text/css">
	.st0{fill-rule:evenodd;clip-rule:evenodd;fill:#26994E;}
	.st1{fill-rule:evenodd;clip-rule:evenodd;fill:#FFD519;}
	.st2{fill:#FFD519;}
	.st3{fill:#26994E;}
</style>
<g>
	<path class="st0" d="M29.1,27.5l6.3-7.8l2,1.4c5.6,4,12.8,6.8,19.8,4.9c6.1-1.6,11.6-7.8,14.6-13.1c1-1.7,1.8-3.5,2.5-5.4l0.6-1.7
		l8.4,0c3.6,8.6,12.3,20.4,24.6,20c4.9-0.2,9.6-2,13.5-4.8l2-1.4l6.2,8.1l-1.2,1.4c-3.1,3.7-4.5,9.3-4.4,14.1
		c0.1,2.6,0.4,5.2,1.1,7.7c0.7,2.7,1.6,5.4,2.5,8.1c1.2,3.6,2.3,7.3,3.2,11c2,7.8,2.6,16.1,2,24.2c-0.5,8.3-2.3,16.3-6.6,23.6
		c-3.3,5.7-7.9,10.4-13.2,14.3c-2.7,1.9-5.5,3.7-8.3,5.4l-25.4,15.4L54,137.5c-4-2.4-8-5-11.6-8c-10.5-8.8-16.2-21.9-16.8-35.5
		c-0.3-7.6,0.4-16.3,2.2-23.7c1.1-4.6,2.7-8.9,4.1-13.4c1.3-4.3,2.7-8.8,2.8-13.3C34.9,37.5,32.9,31.7,29.1,27.5L29.1,27.5z"/>
	<path class="st1" d="M32.4,27.6l3.5-4.3c8,5.6,15.7,7,22,5.3c7.6-2.1,15.5-10.5,18.9-19.9l5.3-0.1c3.9,9.5,11.4,16.9,19,19
		c6.3,1.7,13.9,1.2,21.9-4.4l3.5,4.4c-3.7,4.5-5.1,10.7-4.9,15.7c0.3,9.5,3.6,14.5,6.8,27.3c1.9,7.6,2.5,15.6,2,23.4
		c-0.6,8.9-2.6,16.1-6.2,22.4c-3.2,5.4-7.5,9.8-12.5,13.5c-2.4,1.8-5.1,3.5-8.1,5.3l-24,14.5l-24-14.5c-4.4-2.6-8.1-5.1-11.3-7.7
		c-10.3-8.7-15.3-21.3-15.9-33.6c-0.3-6.4,0.2-15.4,2-22.9c2.7-11.2,6.5-18.8,6.8-27.2C37.2,38.8,36.1,32.6,32.4,27.6L32.4,27.6z"/>
	<path class="st0" d="M35.4,26.9c2.9,4.8,4.4,11.5,4.2,17.1c0,0.9-0.1,1.8-0.2,2.7c-0.5,4-1.8,8-3,11.8c-1.4,4.4-2.8,8.7-3.8,13.2
		c-1.6,6.9-1.9,15.1-1.6,22.2c0.5,12.1,5.6,23.8,14.9,31.7c3.4,2.8,7.2,5.2,10.9,7.5l22.7,13.7l22.7-13.7c3-1.8,6.1-3.8,9-6
		c4-3.1,7.4-6.7,10.1-10.9c4-6.4,5.9-13.6,6.5-22.2c0.5-7.5,0.1-15.2-1.8-22.6c-0.9-3.6-1.8-7.1-3-10.6c-0.9-2.8-2-5.6-2.7-8.5
		c-0.7-2.9-1.1-5.8-1.2-8.8c-0.2-5.4,1.5-11.9,4.5-16.5l-0.3-0.4c-6.6,4.1-14.3,6.9-22.9,4.6c-8.5-2.3-17.2-11.6-20.8-20l-0.3,0
		c-3.6,8.5-11.8,17.7-20.6,20.1c-7.7,2.1-16.4-0.4-23-4.7L35.4,26.9L35.4,26.9z"/>
	<path class="st1" d="M39.2,30.6c1.6,4.3,2.3,9.1,2.2,13.4c0,1-0.1,1.9-0.2,2.9C40.6,51,39.3,55,38.1,59c-0.9,2.7-1.7,5.5-2.5,8.2
		h42.7V16.8C73.9,24.1,66.8,30.9,59.1,33c-0.5,0.1-0.9,0.2-1.4,0.3C51.6,34.6,44.9,33.3,39.2,30.6L39.2,30.6z M80.5,67.2H123
		c-0.5-2-1.1-4-1.8-6c-0.9-2.9-2-5.7-2.7-8.6c-0.7-3-1.2-6.1-1.3-9.2c-0.1-4.1,0.7-8.7,2.4-12.8c-2.1,1-4.3,1.8-6.6,2.4
		c-4.4,1-8.8,1-13.1-0.1c-7.5-2-14.9-8.9-19.3-16V67.2L80.5,67.2z M33,97.3c1.1,8.7,4.6,17,10.5,23.5V98.3h11.8V130
		c0.8,0.5,1.6,1,2.4,1.4l9.4,5.7V98.3h11.8v46l0.5,0.3l11.3-6.9V98.3h11.8v32.3c2.5-1.6,5.1-3.2,7.4-5c1.5-1.2,3-2.5,4.4-3.8V98.3
		h11.1c0-0.3,0.1-0.6,0.1-1H33L33,97.3z"/>
	<path class="st1" d="M78.9,100.8c8.3,0,15.1,6.8,15.1,15.1c0,8.3-6.8,15.1-15.1,15.1c-8.3,0-15.1-6.8-15.1-15.1
		C63.7,107.6,70.5,100.8,78.9,100.8L78.9,100.8z"/>
	<path class="st0" d="M78.9,101.6c7.9,0,14.3,6.4,14.3,14.3c0,7.9-6.4,14.3-14.3,14.3c-7.9,0-14.3-6.4-14.3-14.3
		C64.6,108,71,101.6,78.9,101.6L78.9,101.6z M79.1,110.9l4.2,3.3l3.8-0.8l-0.1-4.3l-3.8-2.9l-4.2,1.3V110.9L79.1,110.9z M83.6,114.8
		l-1.8,4.5l2,3.3l3.5-0.9l2-4.1l-1.9-3.4L83.6,114.8L83.6,114.8z M89.8,117.1l2.3,0c0-0.4,0.1-0.8,0.1-1.2c0-3-1-5.7-2.6-7.9
		l-1.9,1.2l0.1,4.4L89.8,117.1L89.8,117.1z M89.2,124.2l-1.9-2l-3.6,1l-2,3.5l0.8,2C85.3,127.9,87.6,126.3,89.2,124.2L89.2,124.2z
		 M75.2,128.7l0.8-2.1l-1.9-3.5l-3.5-0.8l-2.1,2C70.2,126.4,72.6,128,75.2,128.7L75.2,128.7z M65.6,117.2L68,117l1.9-3.5l0.2-4.3
		l-1.9-1.1c-1.6,2.2-2.6,4.9-2.6,7.9C65.6,116.3,65.6,116.7,65.6,117.2L65.6,117.2z M74,103.5l0.6,2.1l4.1,1.3l4.3-1.4l0.5-2
		c-1.5-0.6-3.1-0.9-4.8-0.9C77.1,102.6,75.5,102.9,74,103.5L74,103.5z M81.2,119.6l-4.7,0l-1.8,3.2l1.9,3.5h4.6l2-3.4L81.2,119.6
		L81.2,119.6z M75.9,119.4l-1.9-4.4l-3.7-1l-1.8,3.3l2,4.3l3.6,0.8L75.9,119.4L75.9,119.4z M74.2,114.3l4.3-3.4v-3.4l-4-1.3
		l-3.7,2.9l-0.2,4.3L74.2,114.3L74.2,114.3z"/>
	<path class="st0" d="M93.1,42.6c-0.6,3.3-1.3,5.9-3.3,8.5c0.7,0,1.2-0.1,1.9-0.9c0.3,0.8,0.9,1.5,1.4,1.7c0.5-0.1,1.1-0.8,1.4-1.6
		c0.7,0.8,1.4,0.9,1.9,0.9C94.6,48.7,93.8,46.1,93.1,42.6L93.1,42.6z"/>
	<path class="st0" d="M93.1,37.6c-0.3,0.9-0.7,1.6-0.7,2.2c0,0.3,0.2,0.8,0.7,0.8c0.6,0,0.7-0.4,0.7-0.8
		C93.8,39.3,93.4,38.5,93.1,37.6L93.1,37.6z"/>
	<path class="st0" d="M89.5,41.5c0.9,0.3,1.6,0.7,2.2,0.7c0.3,0,0.8-0.2,0.8-0.7c0-0.6-0.4-0.7-0.8-0.7
		C91.2,40.8,90.4,41.2,89.5,41.5L89.5,41.5z"/>
	<path class="st0" d="M96.7,41.5c-0.9,0.3-1.6,0.7-2.2,0.7c-0.3,0-0.8-0.2-0.8-0.7c0-0.6,0.4-0.7,0.8-0.7
		C95,40.8,95.9,41.2,96.7,41.5L96.7,41.5z"/>
	<path class="st0" d="M87.2,55c-0.6,3.3-1.3,5.9-3.3,8.5c0.7,0,1.2-0.1,1.9-0.9c0.3,0.8,0.9,1.5,1.4,1.7c0.5-0.1,1.1-0.8,1.4-1.6
		c0.7,0.8,1.4,0.9,1.9,0.9C88.7,61.2,87.8,58.6,87.2,55L87.2,55z"/>
	<path class="st0" d="M87.2,50.1c-0.3,0.9-0.7,1.6-0.7,2.2c0,0.3,0.2,0.8,0.7,0.8c0.6,0,0.7-0.4,0.7-0.8
		C87.9,51.8,87.5,51,87.2,50.1L87.2,50.1z"/>
	<path class="st0" d="M83.5,54c0.9,0.3,1.6,0.7,2.2,0.7c0.3,0,0.8-0.2,0.8-0.7c0-0.6-0.4-0.7-0.8-0.7C85.2,53.3,84.4,53.7,83.5,54
		L83.5,54z"/>
	<path class="st0" d="M90.8,54c-0.9,0.3-1.6,0.7-2.2,0.7c-0.3,0-0.8-0.2-0.8-0.7c0-0.6,0.4-0.7,0.8-0.7C89.1,53.3,89.9,53.7,90.8,54
		L90.8,54z"/>
	<path class="st0" d="M106,42.6c-0.6,3.3-1.3,5.9-3.3,8.5c0.7,0,1.2-0.1,1.9-0.9c0.3,0.8,0.9,1.5,1.4,1.7c0.5-0.1,1.1-0.8,1.4-1.6
		c0.7,0.8,1.4,0.9,1.9,0.9C107.5,48.7,106.6,46.1,106,42.6L106,42.6z"/>
	<path class="st0" d="M106,37.6c-0.3,0.9-0.7,1.6-0.7,2.2c0,0.3,0.2,0.8,0.7,0.8c0.6,0,0.7-0.4,0.7-0.8
		C106.7,39.3,106.3,38.5,106,37.6L106,37.6z"/>
	<path class="st0" d="M102.3,41.5c0.9,0.3,1.6,0.7,2.2,0.7c0.3,0,0.8-0.2,0.8-0.7c0-0.6-0.4-0.7-0.8-0.7
		C104.1,40.8,103.2,41.2,102.3,41.5L102.3,41.5z"/>
	<path class="st0" d="M109.6,41.5c-0.9,0.3-1.6,0.7-2.2,0.7c-0.3,0-0.8-0.2-0.8-0.7c0-0.6,0.4-0.7,0.8-0.7
		C107.9,40.8,108.7,41.2,109.6,41.5L109.6,41.5z"/>
	<path class="st0" d="M99.5,55c-0.6,3.3-1.3,5.9-3.3,8.5c0.7,0,1.2-0.1,1.9-0.9c0.3,0.8,0.9,1.5,1.4,1.7c0.5-0.1,1.1-0.8,1.4-1.6
		c0.7,0.8,1.4,0.9,1.9,0.9C101,61.2,100.2,58.6,99.5,55L99.5,55z"/>
	<path class="st0" d="M99.5,50.1c-0.3,0.9-0.7,1.6-0.7,2.2c0,0.3,0.2,0.8,0.7,0.8c0.6,0,0.7-0.4,0.7-0.8
		C100.2,51.8,99.8,51,99.5,50.1L99.5,50.1z"/>
	<path class="st0" d="M95.9,54c0.9,0.3,1.6,0.7,2.2,0.7c0.3,0,0.8-0.2,0.8-0.7c0-0.6-0.4-0.7-0.8-0.7C97.6,53.3,96.8,53.7,95.9,54
		L95.9,54z"/>
	<path class="st0" d="M103.1,54c-0.9,0.3-1.6,0.7-2.2,0.7c-0.3,0-0.8-0.2-0.8-0.7c0-0.6,0.4-0.7,0.8-0.7
		C101.4,53.3,102.3,53.7,103.1,54L103.1,54z"/>
	<path class="st0" d="M111.9,55c-0.6,3.3-1.3,5.9-3.3,8.5c0.7,0,1.2-0.1,1.9-0.9c0.3,0.8,0.9,1.5,1.4,1.7c0.5-0.1,1.1-0.8,1.4-1.6
		c0.7,0.8,1.4,0.9,1.9,0.9C113.4,61.2,112.5,58.6,111.9,55L111.9,55z"/>
	<path class="st0" d="M111.9,50.1c-0.3,0.9-0.7,1.6-0.7,2.2c0,0.3,0.2,0.8,0.7,0.8c0.6,0,0.7-0.4,0.7-0.8
		C112.6,51.8,112.2,51,111.9,50.1L111.9,50.1z"/>
	<path class="st0" d="M108.3,54c0.9,0.3,1.6,0.7,2.2,0.7c0.3,0,0.8-0.2,0.8-0.7c0-0.6-0.4-0.7-0.8-0.7C110,53.3,109.1,53.7,108.3,54
		L108.3,54z"/>
	<path class="st0" d="M115.5,54c-0.9,0.3-1.6,0.7-2.2,0.7c-0.3,0-0.8-0.2-0.8-0.7c0-0.6,0.4-0.7,0.8-0.7
		C113.8,53.3,114.6,53.7,115.5,54L115.5,54z"/>
	<polygon class="st1" points="37.8,89.8 38.5,91.8 40.6,91.8 38.9,93 39.5,95 37.8,93.8 36.1,95 36.7,93 35,91.8 37.2,91.8 
		37.8,89.8 	"/>
	<polygon class="st1" points="49.6,89.8 50.2,91.8 52.3,91.8 50.6,93 51.3,95 49.6,93.8 47.8,95 48.5,93 46.8,91.8 48.9,91.8 
		49.6,89.8 	"/>
	<polygon class="st1" points="61.3,89.8 62,91.8 64.1,91.8 62.4,93 63,95 61.3,93.8 59.6,95 60.2,93 58.5,91.8 60.7,91.8 61.3,89.8 
			"/>
	<polygon class="st1" points="73.1,89.8 73.7,91.8 75.8,91.8 74.1,93 74.8,95 73.1,93.8 71.3,95 72,93 70.3,91.8 72.4,91.8 
		73.1,89.8 	"/>
	<polygon class="st1" points="84.8,89.8 85.5,91.8 87.6,91.8 85.9,93 86.5,95 84.8,93.8 83.1,95 83.7,93 82,91.8 84.2,91.8 
		84.8,89.8 	"/>
	<polygon class="st1" points="96.6,89.8 97.2,91.8 99.3,91.8 97.6,93 98.3,95 96.6,93.8 94.8,95 95.5,93 93.8,91.8 95.9,91.8 
		96.6,89.8 	"/>
	<polygon class="st1" points="108.3,89.8 109,91.8 111.1,91.8 109.4,93 110,95 108.3,93.8 106.6,95 107.2,93 105.5,91.8 107.7,91.8 
		108.3,89.8 	"/>
	<polygon class="st1" points="120.1,89.8 120.7,91.8 122.8,91.8 121.1,93 121.8,95 120.1,93.8 118.3,95 119,93 117.3,91.8 
		119.4,91.8 120.1,89.8 	"/>
	<path class="st0" d="M73.3,48l-0.1,0l0-8.3l-0.5,0l0,1.9c-0.4-0.2-1.1-0.3-1.7-0.2c-1,0.3-1.7,0.9-3.7,0.7c0.3,0.2,0.9,0.4,1.6,0.7
		c-0.2,0.3-0.6,0.6-0.8,0.7c1.6,0.2,2.4,0.2,3-0.1c0.8-0.4,1-0.7,1.5-0.3v5l-0.2,0l0,1.2l-1,0V48h-1l0,1.2l-1.1,0l0-1.2h-0.9l0,1.2
		l-1,0l0-1.2l-0.9,0l0,2.2l-1.2,5.5l5.3,0l2.6-3.6L73.3,48L73.3,48z M71,50.5h1.2v1.8H71V50.5L71,50.5z M69.2,50.5h1.2v1.8h-1.2
		V50.5L69.2,50.5z M68.4,52.3l-1.2,0l0-1.8l1.2,0V52.3L68.4,52.3z"/>
	<path class="st0" d="M70.4,56.4l-5.3,0c-3.1,2-5.8,2.2-8.1,1.8c-3.7-0.8-6.2-3.5-6.7-4.1l-3.3-3.6l1.9-1.8c0.7,3.2,2.7,5.9,5.8,7.4
		c2.1,1,4.6,1.3,7.3,0.5c-3.2-0.6-7.6-2.6-9.5-6.3c4,3.4,7.9,5.1,11.2,5.3c-2-2.2-2.5-4.1-2-5.8c0.1-0.4,0.2-0.7,0.4-1.1l2.7,6.9
		l0.2-0.8l-2.6-6.7c0.1-0.1,0.2-0.3,0.2-0.4l2.7,5.6l0.1-0.7L63,47.4c0.1-0.1,0.2-0.2,0.3-0.4l2.6,4.3l0.1-0.6l-2.4-4
		c0.3-0.3,0.7-0.7,1.2-1l-2.4-0.9L62,43.9l4.5,1.8l0,0c0,0.4,0.3,0.8,0.8,0.8c0.4,0,0.8-0.3,0.8-0.8c0-0.4-0.3-0.8-0.8-0.8
		c-0.2,0-0.5,0.1-0.6,0.3l-5.1-2L59,39v-1.4h1v-0.5h-1v-1.1h-0.5v1.1h-1.1v0.5h1.1v1.2l-2.4,2.3l-5.3-2.1c0,0,0-0.1,0-0.1
		c0-0.4-0.3-0.8-0.8-0.8c-0.4,0-0.8,0.3-0.8,0.8c0,0.4,0.3,0.8,0.8,0.8c0.2,0,0.4-0.1,0.6-0.3l5.2,2L55.4,42l-3.9-1.5
		c-2.6,2.2-3,5.2-2.5,7.7l-2.1,2l-0.9-1l-0.4,0.3l4.2,4.6L46.3,54c0.2,3.1,1.1,6,2.7,8.4c0.2,0,0.5-0.1,0.8-0.1
		c3.1,0.7,6.6,0.8,9.1-0.4c3.2,1.2,6,1,8-0.6c0.7,0.5,1.2,0.7,1.9,0.8L68.6,59C69.3,58.3,70,57.5,70.4,56.4L70.4,56.4z M59.1,59.2
		h1.2v1.2h-1.2V59.2L59.1,59.2z M61.3,59.2h1.2v1.2h-1.2V59.2L61.3,59.2z M56.7,59.2H58v1.2h-1.2V59.2L56.7,59.2z M59.8,51.5
		c-1-2.7-0.2-5.1,1.3-6.6l1.3,0.5C60.5,46.9,59.7,48.7,59.8,51.5L59.8,51.5z M56.4,50.2c-1-2.7-0.2-5.1,1.3-6.6l1.3,0.5
		C57,45.5,56.3,47.4,56.4,50.2L56.4,50.2z M53.4,49.1c-1-2.7-0.2-5.1,1.3-6.6L56,43C54.1,44.4,53.3,46.3,53.4,49.1L53.4,49.1z
		 M50.7,48.1c-1-2.7-0.2-5.1,1.3-6.6l1.3,0.5C51.4,43.4,50.6,45.3,50.7,48.1L50.7,48.1z M58.8,39.5L58.8,39.5L58.8,39.5L58.8,39.5
		L58.8,39.5z M58.6,39.5L58.6,39.5l-1.9,1.8l3.1,1.2L58.6,39.5L58.6,39.5z M60.9,43L60.9,43L60.9,43L60.9,43L60.9,43z M61.3,43.6
		l-0.1,0l0.4,0.8l0.2,0.1L61.3,43.6L61.3,43.6z M60.6,43.3L60.6,43.3l0.3,0.8l0.1,0L60.6,43.3L60.6,43.3z M60,43.1l-3.7-1.4
		l-0.5,0.5l4.5,1.8L60,43.1L60,43.1z"/>
	<path class="st0" d="M72.8,61.9c-2.3,1.5-4.8,1.9-7.5,1.4c-4.7,2.1-8.9,2.1-15.6,1.5c0.1,0.1-0.1,0.2,0.1,0.3
		c3.1,1.7,9.5,1.7,15.5-1.6C67.5,64.8,71.4,64.3,72.8,61.9L72.8,61.9z"/>
	<path class="st0" d="M42.9,63.2l1,1.2c1.9-0.3,4.1-0.9,5.7-1.4c2,1.4,5.4,1.8,8.7,1.3c2.5,1.3,5.9,0.8,7.5,0
		c-2,0.2-4.8,0.4-7.4-0.6c-2.6,0.4-5.7,0.2-8.7-1C47.7,63.1,45.5,63.2,42.9,63.2L42.9,63.2z"/>
	<polygon class="st2" points="71.7,136.9 70.9,136.9 70.9,133.1 69.7,134.3 69.2,133.8 70.6,132.4 71.7,132.4 71.7,136.9 	"/>
	<path class="st2" d="M77.1,135.6c0,0.5-0.1,0.8-0.4,1.1c-0.2,0.2-0.5,0.2-0.9,0.3c-0.2,0-0.4,0-0.7,0c-0.5,0-0.9-0.1-1.1-0.2
		c-0.3-0.2-0.5-0.6-0.5-1.1h0.8c0,0.2,0,0.3,0,0.3c0,0.1,0.1,0.1,0.2,0.2c0.1,0,0.3,0.1,0.5,0.1c0.1,0,0.1,0,0.2,0
		c0.3,0,0.5,0,0.6,0c0.1,0,0.2-0.1,0.3-0.1c0.1-0.1,0.1-0.3,0.1-0.6l0-0.8h0c-0.1,0.2-0.3,0.4-0.6,0.4c-0.1,0-0.3,0-0.5,0
		c-0.3,0-0.5,0-0.7-0.1c-0.2,0-0.4-0.1-0.5-0.3c-0.2-0.2-0.3-0.6-0.3-1.1c0-0.6,0.1-1,0.4-1.2c0.2-0.2,0.5-0.2,0.8-0.3
		c0.1,0,0.3,0,0.5,0c0.5,0,0.9,0.1,1.1,0.2c0.2,0.1,0.3,0.2,0.4,0.3c0.2,0.2,0.3,0.8,0.3,1.5V135.6L77.1,135.6z M76.3,133.9v-0.2
		c0-0.3-0.1-0.4-0.2-0.5c-0.1-0.1-0.2-0.1-0.3-0.1c-0.1,0-0.1,0-0.2,0c-0.1,0-0.1,0-0.2,0c-0.4,0-0.7,0-0.8,0.1
		c-0.1,0.1-0.1,0.3-0.1,0.6c0,0.3,0,0.4,0.1,0.5c0.1,0.1,0.2,0.1,0.4,0.1c0.1,0,0.2,0,0.4,0c0.1,0,0.3,0,0.4,0
		c0.2,0,0.3-0.1,0.4-0.1C76.2,134.2,76.3,134.1,76.3,133.9L76.3,133.9z"/>
	<path class="st3" d="M83.7,136h-0.5v1h-0.8v-1h-2.5V135l2-2.6h1.3v2.9h0.5V136L83.7,136z M82.3,135.3V133l0,0l-1.8,2.3H82.3
		L82.3,135.3z"/>
	<path class="st3" d="M88.6,135.6c0,0.6-0.2,1.1-0.6,1.2c-0.2,0.1-0.7,0.2-1.3,0.2c-0.4,0-0.7,0-0.9-0.1c-0.1,0-0.3-0.1-0.4-0.2
		c-0.2-0.1-0.3-0.3-0.3-0.5c-0.1-0.2-0.1-0.5-0.1-0.8h0.8c0,0.2,0,0.4,0,0.5c0,0.1,0.1,0.2,0.1,0.2c0.1,0.1,0.1,0.1,0.2,0.1
		c0.1,0,0.2,0,0.3,0H87c0.3,0,0.5,0,0.6-0.1c0.1-0.1,0.2-0.3,0.2-0.5c0-0.3,0-0.4-0.1-0.5c-0.1-0.1-0.3-0.1-0.6-0.1h-0.6v-0.7
		c0.2,0,0.4,0,0.5,0c0.2,0,0.4,0,0.4,0c0.2-0.1,0.3-0.3,0.3-0.7c0-0.2,0-0.3-0.1-0.4c-0.1-0.1-0.4-0.1-0.8-0.1c-0.2,0-0.3,0-0.4,0
		c-0.1,0-0.2,0-0.3,0.1c-0.1,0-0.1,0.1-0.1,0.2c0,0.1,0,0.2,0,0.4h-0.8c0-0.4,0.1-0.7,0.2-1c0.1-0.1,0.1-0.2,0.2-0.3
		c0.2-0.1,0.4-0.2,0.7-0.2c0.1,0,0.3,0,0.5,0c0.6,0,1,0,1.2,0.1c0.1,0,0.2,0.1,0.3,0.2c0.1,0.1,0.2,0.2,0.3,0.4
		c0.1,0.2,0.1,0.4,0.1,0.7c0,0.5-0.3,0.8-0.7,0.8l0,0c0.2,0,0.3,0.1,0.5,0.1c0.1,0.1,0.2,0.2,0.3,0.3
		C88.5,135.2,88.6,135.4,88.6,135.6L88.6,135.6z"/>
	<polygon class="st2" points="43.3,74.8 38,74.8 38,78.5 43,78.5 43,80.7 38,80.7 38,86.5 35.9,86.5 35.9,72.5 43.3,72.5 43.3,74.8 
			"/>
	<path class="st2" d="M53.8,82.7c0,1.4-0.3,2.4-0.8,3c-0.4,0.5-1.2,0.8-2.2,0.8c-0.4,0-0.8,0.1-1.3,0.1l-0.9,0
		c-1.5,0-2.6-0.4-3.2-1.1c-0.5-0.6-0.8-1.7-0.9-3.2c0-0.7,0-1.6,0-2.7c0-2.2,0.1-3.7,0.3-4.4c0.1-0.5,0.3-1,0.6-1.4
		c0.2-0.4,0.6-0.7,1-0.9c0.7-0.3,1.7-0.5,2.9-0.5c1.2,0,2.1,0.1,2.7,0.3c0.8,0.3,1.3,0.8,1.5,1.7c0.2,0.7,0.3,1.6,0.3,2.8h-2.1v-0.9
		c0-0.6-0.1-1-0.3-1.2c-0.2-0.3-0.9-0.4-1.9-0.4H49c-1,0-1.7,0.2-2,0.6c-0.3,0.4-0.5,1.2-0.5,2.3v3.7c0,1.4,0.2,2.2,0.6,2.6
		c0.2,0.2,0.5,0.4,0.8,0.4c0.3,0.1,0.7,0.1,1.2,0.1c0.6,0,1.1,0,1.3,0c0.4-0.1,0.7-0.3,0.9-0.5c0.2-0.2,0.3-0.5,0.3-0.9
		c0-0.2,0-0.7,0.1-1.4h2.1V82.7L53.8,82.7z"/>
	<polygon class="st2" points="70.7,86.5 67,86.5 62.3,74.8 62.2,74.8 62.3,80.6 62.4,86.5 60.2,86.5 60.2,72.5 63.8,72.5 68.6,84.2 
		68.7,84.2 68.5,72.5 70.7,72.5 70.7,86.5 	"/>
	<path class="st2" d="M82.3,86.5h-2.2l-0.7-2.6h-4.9l-0.7,2.6h-2.2l3.7-14h3.2L82.3,86.5L82.3,86.5z M78.9,81.8l-1.9-7.3l0,0
		L75,81.8H78.9L78.9,81.8z"/>
	<polygon class="st2" points="93.8,86.5 90.2,86.5 85.4,74.8 85.3,74.8 85.4,80.6 85.5,86.5 83.3,86.5 83.3,72.5 86.9,72.5 
		91.7,84.2 91.8,84.2 91.6,72.5 93.8,72.5 93.8,86.5 	"/>
	<polygon class="st2" points="103.4,74.8 100,74.8 100,86.5 97.9,86.5 97.9,74.8 94.6,74.8 94.6,72.5 103.4,72.5 103.4,74.8 	"/>
	<polygon class="st2" points="111.9,86.5 104.2,86.5 104.2,72.5 111.9,72.5 111.9,74.8 106.4,74.8 106.4,78.3 111.6,78.3 
		111.6,80.5 106.4,80.5 106.4,84.2 111.9,84.2 111.9,86.5 	"/>
	<path class="st2" d="M122.1,82.5c0,0.7-0.1,1.4-0.3,2.1c-0.2,0.6-0.4,1.1-0.8,1.4c-0.5,0.5-1.6,0.7-3.2,0.7H117
		c-0.7,0-1.3,0-1.7-0.1c-0.6-0.1-1.1-0.4-1.5-0.8c-0.5-0.5-0.7-1.2-0.8-2.1c0-0.4,0-0.9,0-1.5h2.1c0,0.2,0,0.3,0,0.4
		c0,0.4,0,0.7,0.1,0.8c0,0.3,0.1,0.6,0.3,0.7c0.1,0.2,0.3,0.3,0.6,0.3c0.3,0.1,0.6,0.1,1,0.1c0.2,0,0.4,0,0.5,0c0.5,0,0.9-0.1,1-0.1
		c0.4-0.1,0.7-0.2,0.9-0.3c0.3-0.2,0.5-0.8,0.5-1.8c0-0.7-0.1-1.1-0.3-1.4c-0.1-0.1-0.2-0.2-0.3-0.2c-0.2-0.1-0.5-0.1-0.8-0.2
		c-0.1,0-0.3,0-0.6,0l-1.1-0.1c-0.8,0-1.5-0.2-2-0.4c-0.3-0.1-0.6-0.3-0.8-0.5c-0.6-0.6-0.9-1.6-0.9-3.1c0-1.6,0.3-2.7,0.9-3.3
		c0.6-0.6,1.7-0.9,3.4-0.9c1.1,0,1.8,0,2.1,0.1c0.7,0.1,1.2,0.3,1.6,0.7c0.4,0.4,0.6,0.9,0.8,1.6c0.1,0.4,0.1,1,0.1,1.9h-2.2v-0.6
		c0-0.5-0.1-0.9-0.2-1.1c-0.2-0.2-0.6-0.4-1.3-0.4h-0.9c-0.9,0-1.4,0.1-1.7,0.4c-0.1,0.1-0.2,0.3-0.3,0.5c-0.1,0.2-0.1,0.5-0.1,0.9
		c0,0.4,0,0.8,0.1,1c0.1,0.4,0.4,0.6,0.9,0.7c0.2,0.1,0.5,0.1,0.8,0.1l0.8,0.1c0.9,0.1,1.6,0.1,1.9,0.2c0.8,0.1,1.4,0.4,1.7,0.7
		c0.3,0.3,0.5,0.8,0.6,1.4c0,0.3,0.1,0.5,0.1,0.7C122.1,81.6,122.1,81.9,122.1,82.5L122.1,82.5z"/>
</g>
</svg>
