<?xml version="1.0" encoding="utf-8"?>
<!-- Generator: Adobe Illustrator 19.1.0, SVG Export Plug-In . SVG Version: 6.00 Build 0)  -->
<svg version="1.1" id="Layer_1" xmlns="http://www.w3.org/2000/svg" xmlns:xlink="http://www.w3.org/1999/xlink" x="0px" y="0px"
	 viewBox="0 0 160 160" style="enable-background:new 0 0 160 160;" xml:space="preserve">
<style type="text/css">
	.st0{fill:#B72C26;}
	.st1{fill:#D42B27;}
	.st2{fill-rule:evenodd;clip-rule:evenodd;fill:#F2C318;}
	.st3{fill-rule:evenodd;clip-rule:evenodd;fill:#D42B27;}
	.st4{fill:url(#SVGID_1_);}
	.st5{fill:url(#SVGID_2_);}
	.st6{fill:url(#SVGID_3_);}
	.st7{fill:url(#SVGID_4_);}
	.st8{fill:url(#SVGID_5_);}
	.st9{fill:url(#SVGID_6_);}
	.st10{fill:#F2C318;}
	.st11{fill-rule:evenodd;clip-rule:evenodd;fill:#B72C26;}
	.st12{fill:#010101;}
	.st13{fill-rule:evenodd;clip-rule:evenodd;fill:#FFFFFF;}
	.st14{fill:url(#SVGID_7_);}
</style>
<g>
	<path class="st0" d="M80.7,153.4c-5.8-2.1-11.4-4.6-16.7-7.8c-6-3.6-11.5-8-16.5-12.9c-5.5-5.5-10.3-11.8-14.4-18.4
		c-5.6-9.3-9.7-19.4-12.8-29.8c-1.9-6.5-3.3-13.2-4.2-19.9c-1-7.1-1.5-14.2-1.5-21.3c0-4,0.1-8,0.5-12c0.3-3.8,0.8-7.5,1.3-11.3
		c6-2.5,12-4.9,18.3-6.7c5.7-1.6,11.6-2.8,17.4-3.8c4.3-0.7,8.6-1.3,12.9-1.6c3-0.3,6.1-0.4,9.1-0.5c2.2-0.1,4.3-0.1,6.5-0.1
		c2.2,0,4.3,0,6.5,0.1c3,0.1,6.1,0.3,9.1,0.5c4.3,0.4,8.6,0.9,12.9,1.6c5.9,1,11.7,2.2,17.4,3.8c6.3,1.8,12.3,4.1,18.3,6.7
		c0.5,3.7,1,7.5,1.3,11.3c0.3,4,0.5,8,0.5,12c0,7.1-0.5,14.2-1.5,21.3c-0.9,6.7-2.3,13.4-4.2,19.9c-3.1,10.4-7.2,20.5-12.8,29.8
		c-4,6.7-8.9,12.9-14.4,18.4c-4.9,4.9-10.5,9.3-16.5,12.9C92.1,148.8,86.4,151.3,80.7,153.4z"/>
	<path class="st1" d="M16.1,38.7c0.1-1.8,0.1-3.4,0.2-4.8c0.1-1.5,0.2-3.1,0.4-4.8c0.2-1.6,0.3-3.2,0.5-4.8l0.1-0.5l0.3-2.7l2.5-1.1
		l0.4-0.2c2.4-1,4.9-2,7.3-2.8c2.5-0.9,4.9-1.6,7.2-2.3c2.3-0.6,4.7-1.2,7.2-1.8c2.4-0.5,4.8-1,7.3-1.5c2.1-0.4,3.8-0.7,5.2-0.9
		c1.7-0.3,3.4-0.5,5.2-0.7c1.8-0.2,3.6-0.4,5.3-0.5c1.5-0.1,3.3-0.3,5.3-0.4C71.2,9,72.1,9,73.1,9c0.7,0,1.6-0.1,2.5-0.1
		c0.8,0,1.6,0,2.5,0c0.8,0,1.7,0,2.5,0c0.9,0,1.7,0,2.5,0c0.9,0,1.7,0,2.5,0c1,0,1.8,0.1,2.5,0.1c1,0,1.8,0.1,2.5,0.1
		c2,0.1,3.8,0.2,5.3,0.4c1.7,0.1,3.5,0.3,5.3,0.5c1.8,0.2,3.5,0.4,5.2,0.7c1.4,0.2,3.1,0.5,5.2,0.9c2.5,0.4,4.9,0.9,7.3,1.5
		c2.5,0.6,4.9,1.1,7.2,1.8c2.3,0.7,4.7,1.4,7.2,2.3c2.4,0.8,4.9,1.8,7.3,2.8l0.4,0.2l2.5,1.1l0.3,2.7l0.1,0.5
		c0.2,1.6,0.4,3.2,0.5,4.8c0.2,1.7,0.3,3.3,0.4,4.8c0.1,1.4,0.2,3,0.2,4.8c0,1.5,0.1,3.1,0.1,4.8c0,3.6-0.1,7.2-0.4,10.6
		c-0.2,3.5-0.6,7-1.1,10.5c-0.5,3.5-1.1,6.9-1.8,10.2c-0.7,3.3-1.5,6.5-2.4,9.5c-1.3,4.3-2.7,8.4-4.2,12.3
		c-1.6,3.9-3.3,7.8-5.3,11.6c-2,3.8-4.2,7.4-6.6,10.8c-2.4,3.5-5.1,6.8-8,10c-0.8,0.9-1.7,1.9-2.7,2.8c-1,1-1.9,1.9-2.9,2.8
		c-0.9,0.8-1.9,1.6-3,2.6c-1.2,1-2.2,1.8-3.2,2.5c-1.5,1.1-3,2.2-4.7,3.3c-1.6,1-3.2,2-5.1,3c-1.8,1-3.6,1.9-5.5,2.8
		c-1.9,0.9-3.9,1.7-5.9,2.5l-0.3,0.1l-1.6,0.6l-1.6-0.6l-0.3-0.1c-2.1-0.8-4-1.6-5.9-2.5c-1.8-0.8-3.7-1.8-5.5-2.8
		c-1.8-1-3.5-2-5.1-3c-1.7-1.1-3.3-2.2-4.7-3.3c-0.9-0.7-2-1.5-3.2-2.5c-1.2-1-2.2-1.8-3-2.6c-0.9-0.8-1.9-1.8-2.9-2.8
		c-1-1-1.9-1.9-2.7-2.8c-2.9-3.2-5.6-6.6-8-10c-2.4-3.4-4.6-7.1-6.6-10.8c-2-3.8-3.7-7.6-5.3-11.6c-1.5-3.9-2.9-8-4.2-12.3
		c-0.9-3-1.7-6.2-2.4-9.5c-0.7-3.3-1.3-6.7-1.8-10.2c-0.5-3.5-0.8-7-1.1-10.5c-0.2-3.4-0.4-6.9-0.4-10.6
		C16.1,41.8,16.1,40.2,16.1,38.7z"/>
	<path class="st2" d="M21,34.1c-0.2,3-0.3,6.2-0.3,9.3c0,6.9,0.5,13.8,1.4,20.5c0.9,6.7,2.3,13.2,4,19c2.4,8.2,5.4,15.9,9.2,23
		c3.8,7.2,8.3,13.8,13.9,19.9c1.7,1.8,3.4,3.6,5.3,5.3c1.9,1.7,3.8,3.3,5.8,4.8c2.9,2.2,5.9,4.2,9.2,6c3.3,1.8,6.9,3.5,10.8,4.9
		l0.3,0.1l0.3-0.1c3.9-1.4,7.5-3.1,10.8-4.9c3.3-1.8,6.4-3.8,9.2-6c2-1.5,4-3.2,5.8-4.8c1.9-1.7,3.6-3.5,5.3-5.3
		c5.6-6.1,10.1-12.8,13.9-19.9c3.8-7.1,6.7-14.8,9.2-23c1.7-5.8,3.1-12.2,4-19c0.9-6.6,1.4-13.6,1.4-20.5c0-3.1-0.1-6.2-0.3-9.3
		c-0.2-3.1-0.5-6.2-0.9-9.3l-0.1-0.5l-0.4-0.2c-4.7-2-9.3-3.6-13.9-4.9c-4.6-1.3-9.2-2.3-14-3.2c-3.4-0.6-6.7-1.1-10.1-1.5
		c-3.4-0.4-6.8-0.7-10.3-0.9c-1.6-0.1-3.2-0.2-4.9-0.2c-1.6,0-3.3-0.1-5-0.1c-1.7,0-3.3,0-5,0.1c-1.7,0-3.3,0.1-4.9,0.2
		c-3.5,0.2-6.9,0.5-10.3,0.9c-3.4,0.4-6.7,0.9-10.1,1.5c-4.8,0.9-9.4,1.9-14,3.2c-4.6,1.3-9.2,2.9-13.9,4.9L22,24.4l-0.1,0.5
		C21.5,27.9,21.2,31,21,34.1z"/>
	<path class="st3" d="M50.6,17c6.7-1.2,13.4-2,20.3-2.4c3.2-0.2,6.5-0.3,9.8-0.3c3.3,0,6.6,0.1,9.8,0.3c6.9,0.4,13.7,1.2,20.3,2.4
		c9.5,1.7,18.4,4,27.8,8c0.8,5.9,1.2,12.2,1.2,18.4c0,13.8-2,27.8-5.4,39.2c-4.8,16.3-11.8,30.5-22.9,42.6c-3.3,3.6-7,7-11,10
		c-5.7,4.3-12.1,8-19.8,10.8c-7.7-2.9-14.1-6.5-19.8-10.8c-4-3-7.7-6.4-11-10C38.8,113.1,31.8,98.9,27,82.6
		c-3.4-11.4-5.3-25.4-5.4-39.2c0-6.2,0.4-12.5,1.2-18.4C32.1,21,41,18.7,50.6,17L50.6,17z"/>
	<radialGradient id="SVGID_1_" cx="121.9649" cy="42.7223" r="110.9785" gradientUnits="userSpaceOnUse">
		<stop  offset="5.000000e-02" style="stop-color:#1B61AB"/>
		<stop  offset="0.1897" style="stop-color:#1F5B9F"/>
		<stop  offset="0.4173" style="stop-color:#244D87"/>
		<stop  offset="0.7032" style="stop-color:#243665"/>
		<stop  offset="0.8" style="stop-color:#222E59"/>
	</radialGradient>
	<path class="st4" d="M41.6,102.6c1.6,3,3.4,6,5.3,8.8v-9.6h-5.7C41.4,102.1,41.5,102.3,41.6,102.6z"/>
	<radialGradient id="SVGID_2_" cx="121.9655" cy="42.7231" r="110.9789" gradientUnits="userSpaceOnUse">
		<stop  offset="5.000000e-02" style="stop-color:#1B61AB"/>
		<stop  offset="0.1897" style="stop-color:#1F5B9F"/>
		<stop  offset="0.4173" style="stop-color:#244D87"/>
		<stop  offset="0.7032" style="stop-color:#243665"/>
		<stop  offset="0.8" style="stop-color:#222E59"/>
	</radialGradient>
	<path class="st5" d="M54.6,121.1c0.7,0.8,1.5,1.6,2.3,2.4c0.8,0.8,1.6,1.6,2.5,2.4c0.9,0.8,1.7,1.5,2.6,2.2v-26.2h-7.3V121.1z"/>
	<radialGradient id="SVGID_3_" cx="121.9658" cy="42.7238" r="110.9774" gradientUnits="userSpaceOnUse">
		<stop  offset="5.000000e-02" style="stop-color:#1B61AB"/>
		<stop  offset="0.1897" style="stop-color:#1F5B9F"/>
		<stop  offset="0.4173" style="stop-color:#244D87"/>
		<stop  offset="0.7032" style="stop-color:#243665"/>
		<stop  offset="0.8" style="stop-color:#222E59"/>
	</radialGradient>
	<path class="st6" d="M84.5,115.9h-7.7v-14.1h-7.3v31.8c1.2,0.7,2.3,1.4,3.5,2.1c1.2,0.7,2.5,1.3,3.8,2v-11.5h7.7v11.5
		c1.4-0.6,2.6-1.3,3.8-2c1.1-0.6,2.3-1.3,3.5-2.1v-31.8h-7.3V115.9z"/>
	<radialGradient id="SVGID_4_" cx="121.9646" cy="42.7231" r="110.9787" gradientUnits="userSpaceOnUse">
		<stop  offset="5.000000e-02" style="stop-color:#1B61AB"/>
		<stop  offset="0.1897" style="stop-color:#1F5B9F"/>
		<stop  offset="0.4173" style="stop-color:#244D87"/>
		<stop  offset="0.7032" style="stop-color:#243665"/>
		<stop  offset="0.8" style="stop-color:#222E59"/>
	</radialGradient>
	<path class="st7" d="M99.5,128.1c0.8-0.7,1.7-1.4,2.6-2.2c0.9-0.8,1.7-1.6,2.5-2.4c0.8-0.8,1.5-1.5,2.3-2.4v-19.3h-7.3V128.1z"/>
	<radialGradient id="SVGID_5_" cx="121.9653" cy="42.7223" r="110.9802" gradientUnits="userSpaceOnUse">
		<stop  offset="5.000000e-02" style="stop-color:#1B61AB"/>
		<stop  offset="0.1897" style="stop-color:#1F5B9F"/>
		<stop  offset="0.4173" style="stop-color:#244D87"/>
		<stop  offset="0.7032" style="stop-color:#243665"/>
		<stop  offset="0.8" style="stop-color:#222E59"/>
	</radialGradient>
	<path class="st8" d="M114.4,111.4c1.9-2.9,3.7-5.8,5.3-8.8c0.1-0.2,0.3-0.5,0.4-0.7h-5.7V111.4z"/>
	<radialGradient id="SVGID_6_" cx="121.9653" cy="42.7238" r="110.9775" gradientUnits="userSpaceOnUse">
		<stop  offset="5.000000e-02" style="stop-color:#1B61AB"/>
		<stop  offset="0.1897" style="stop-color:#1F5B9F"/>
		<stop  offset="0.4173" style="stop-color:#244D87"/>
		<stop  offset="0.7032" style="stop-color:#243665"/>
		<stop  offset="0.8" style="stop-color:#222E59"/>
	</radialGradient>
	<path class="st9" d="M133.2,34.6c-0.1-1-0.1-2-0.2-3.1c-0.1-0.7-0.1-1.5-0.2-2.1c-1.5-0.6-3-1.1-4.4-1.6c-1.7-0.6-3.5-1.1-5.3-1.6
		c-2.2-0.6-4.4-1.2-6.6-1.7c-2.2-0.5-4.5-0.9-6.8-1.4c-1.5-0.3-3-0.5-4.7-0.8c-1.6-0.2-3.3-0.5-5-0.7c-1.6-0.2-3.3-0.4-5-0.5
		c-1.7-0.2-3.3-0.3-4.9-0.4c-0.9,0-1.7-0.1-2.4-0.1c-0.8,0-1.6-0.1-2.2-0.1c-0.8,0-1.6,0-2.4,0c-0.8,0-1.6,0-2.4,0
		c-0.8,0-1.6,0-2.4,0c-0.8,0-1.6,0-2.4,0c-0.7,0-1.4,0-2.2,0.1c-0.7,0-1.5,0.1-2.4,0.1c-1.6,0.1-3.2,0.2-4.9,0.4
		c-1.7,0.1-3.3,0.3-5,0.5c-1.7,0.2-3.4,0.4-5,0.7c-1.7,0.3-3.3,0.5-4.7,0.8c-2.3,0.4-4.5,0.9-6.8,1.4c-2.2,0.5-4.4,1-6.6,1.7
		c-1.8,0.5-3.5,1-5.3,1.6c-1.4,0.5-2.9,1-4.4,1.6c-0.1,0.7-0.1,1.4-0.2,2.1c-0.1,1.1-0.2,2.1-0.2,3.1c-0.1,1.6-0.2,3.1-0.2,4.5
		c0,1.5-0.1,2.9-0.1,4.3c0,3.2,0.1,6.5,0.4,9.8c0.2,3.3,0.6,6.6,1,9.8c0.3,2.2,0.6,4.3,1,6.4h100.9c0.4-2.1,0.7-4.2,1-6.4
		c0.4-3.2,0.8-6.5,1-9.8c0.2-3.3,0.4-6.6,0.4-9.8c0-1.4,0-2.9-0.1-4.3C133.4,37.7,133.3,36.2,133.2,34.6z"/>
	<path class="st0" d="M43.8,86.4l0.7,0c1.3,0,1.8,0.7,1.8,2.3l0,5.9c-0.2,0.2-1,1.2-2.6,1.2c-0.8,0-1.9-0.5-2.6-1.4
		c-0.9-1.4-1.2-3-1.5-4.9c-0.2-1.5-0.3-3-0.3-4.2c0-2,0.4-4.5,1.4-6.3c0.8-1.6,2-2.6,3.7-2.6c2.6,0,4.6,2.8,5.5,5.5h0.9l-0.5-7.2
		h-1.1c-0.1,0.5-0.3,1.1-0.8,1.1c-0.2,0-0.3-0.1-0.5-0.1c-0.3-0.2-0.7-0.4-1-0.5c-0.9-0.4-2-0.7-3.6-0.7c-6.3,0-8.9,5.5-8.9,11.5
		c0,2.2,0.1,4.4,0.9,6.3c0.7,1.6,1.7,3.1,3.1,4.1c1.3,1,3,1.6,5,1.6c3.9,0,5.6-1.1,7.5-2.8v-6.5c0-1.4,0.4-2.2,1.3-2.2l0.4,0V85
		h-8.8V86.4z"/>
	<path class="st0" d="M123.3,96.1c-0.9,0-1.7-1-2.3-2.6l-6.7-18.9h-2.9l-6.8,19.2c-0.4,1.2-1.1,2.3-2.2,2.3h-0.7v1.1h6.4v-1.1h-0.5
		c-1.2,0-1.3-1-1.2-1.4l1.6-4.3l6.5,0l1.5,4.3c0.2,0.7-0.4,1.5-1.5,1.5h-0.6v1.1h10.2v-1.1H123.3z M108.6,88.6l2.7-7.4l2.6,7.4
		L108.6,88.6z"/>
	<path class="st0" d="M94.9,93.8c-1.1,1.6-2.4,2.2-3.5,2.2c-1.8,0-2.9-1.1-3.5-2c-0.9-1.4-1-2.6-1.3-4.5c-0.2-1.5-0.2-3-0.2-4.1
		c0-2,0.3-4.5,1.3-6.4c0.8-1.6,1.9-2.6,3.5-2.6c2.6,0,4.6,2.9,5.2,5.5h0.9l-0.5-7.2h-1.1c-0.1,0.5-0.3,1.1-0.8,1.1
		c-0.2,0-0.3-0.1-0.5-0.1c-0.3-0.2-0.6-0.4-1-0.5c-0.9-0.4-1.8-0.7-3.4-0.7c-3.3,0-5.5,1.4-6.9,3.7c-1.3,2-1.9,4.7-1.9,7.5
		c0,2.2,0.3,4.7,1.1,6.7c0.7,1.6,1.5,2.9,2.7,3.9c1.3,1,3,1.7,5,1.7c3.9,0,6.3-2.1,7.4-5.7L96.1,91C95.8,92.1,95.4,93,94.9,93.8z"/>
	<path class="st0" d="M58.9,74.6v1.2h0.8c1.7,0,1.9,1.4,1.9,3l0,14.5c0,2.2-0.5,2.9-2,2.9h-0.7v1.1h10.4v-1.1h-0.6
		c-1.7,0-2.1-1.1-2.1-2.9v-7l3.3,0c1.5,0,2.1,0.7,2.1,2.6v0.6l0.9,0l0-8l-0.9,0l0,0.7c0,1.3-0.6,2.2-2.1,2.2l-3.4,0v-7.8l5.1,0
		c2.1,0,3,0.5,3.3,3.2h0.7l-0.3-5.2H58.9z"/>
	<path class="st10" d="M124.3,95.2c-0.9,0-1.7-1-2.3-2.6l-6.7-18.9h-2.9L105.8,93c-0.4,1.2-1.1,2.3-2.2,2.3h-0.7v1.1h6.4v-1.1h-0.5
		c-1.2,0-1.3-1-1.2-1.4l1.6-4.3l6.5,0l1.5,4.3c0.2,0.7-0.4,1.5-1.5,1.5h-0.6v1.1h10.2v-1.1H124.3z M109.6,87.7l2.7-7.4l2.6,7.4
		L109.6,87.7z"/>
	<path class="st10" d="M96,92.9c-1.1,1.6-2.4,2.2-3.5,2.2c-1.8,0-2.9-1.1-3.5-2c-0.9-1.4-1-2.6-1.3-4.5c-0.2-1.5-0.2-3-0.2-4.1
		c0-2,0.3-4.5,1.3-6.4c0.8-1.6,1.9-2.6,3.5-2.6c2.6,0,4.6,2.9,5.2,5.5h0.9l-0.5-7.2h-1.1c-0.1,0.5-0.3,1.1-0.8,1.1
		c-0.2,0-0.3-0.1-0.5-0.1c-0.3-0.2-0.6-0.4-1-0.5c-0.9-0.4-1.8-0.7-3.4-0.7c-3.3,0-5.5,1.4-6.9,3.7c-1.3,2-1.9,4.7-1.9,7.5
		c0,2.2,0.3,4.7,1.1,6.7c0.7,1.6,1.5,2.9,2.7,3.9c1.3,1,3,1.7,5,1.7c3.9,0,6.3-2.1,7.4-5.7l-1.4-1.1C96.9,91.3,96.4,92.2,96,92.9z"
		/>
	<path class="st10" d="M44.9,85.6l0.7,0c1.3,0,1.8,0.7,1.8,2.3l0,5.9c-0.2,0.2-1,1.2-2.6,1.2c-0.8,0-1.9-0.5-2.6-1.4
		c-0.9-1.4-1.2-3-1.5-4.9c-0.2-1.5-0.3-3-0.3-4.2c0-2,0.4-4.5,1.4-6.3c0.8-1.6,2-2.6,3.7-2.6c2.6,0,4.6,2.8,5.5,5.5h0.9l-0.5-7.2
		h-1.1c-0.1,0.5-0.3,1.1-0.8,1.1c-0.2,0-0.3-0.1-0.5-0.1c-0.3-0.2-0.7-0.4-1-0.5c-0.9-0.4-2-0.7-3.6-0.7c-6.3,0-8.9,5.5-8.9,11.5
		c0,2.2,0.1,4.4,0.9,6.3c0.7,1.6,1.7,3.1,3.1,4.1c1.3,1,3,1.6,5,1.6c3.9,0,5.6-1.1,7.5-2.8v-6.5c0-1.4,0.4-2.2,1.3-2.2l0.4,0v-1.3
		h-8.8V85.6z"/>
	<path class="st10" d="M60,73.7v1.2h0.8c1.7,0,1.9,1.4,1.9,3l0,14.5c0,2.2-0.5,2.9-2,2.9H60v1.1h10.4v-1.1h-0.6
		c-1.7,0-2.1-1.1-2.1-2.9v-7l3.3,0c1.5,0,2.1,0.7,2.1,2.6v0.6l0.9,0l0-8l-0.9,0l0,0.7c0,1.3-0.6,2.2-2.1,2.2l-3.4,0v-7.8l5.1,0
		c2.1,0,3,0.5,3.3,3.2h0.7l-0.3-5.2H60z"/>
	<path class="st10" d="M83.1,118.6h-0.5c-0.5,0.5-1.1,1-1.8,1.3l0.2,0.4c0.4-0.2,0.7-0.4,0.9-0.6v3.5l-0.5,0v0.3l2.2,0v-0.3l-0.5,0
		V118.6z"/>
	<path class="st10" d="M86.1,118.5c-1.2,0-1.9,1.2-1.9,2.6c0,1.4,0.8,2.6,1.9,2.6s1.9-1.2,1.9-2.6C88,119.7,87.3,118.5,86.1,118.5z
		 M86.1,123.3c-0.4,0-0.7-1-0.7-2.2c0-1.2,0.3-2.2,0.7-2.2c0.4,0,0.7,1,0.7,2.2C86.8,122.3,86.5,123.3,86.1,123.3z"/>
	<path class="st10" d="M75.6,118.6h-0.5c-0.5,0.5-1.1,1-1.8,1.3l0.2,0.4c0.4-0.2,0.7-0.4,0.9-0.6v3.5l-0.5,0v0.3l2.2,0v-0.3h-0.5
		L75.6,118.6z"/>
	<path class="st10" d="M78.6,118.5c-0.5,0-0.9,0.1-1.2,0.4c-0.3,0.3-0.6,0.8-0.6,1.3c0,0.9,0.5,1.6,1.5,1.6c0.2,0,0.6-0.2,0.8-0.3
		c0,1.4-0.3,1.9-0.8,1.9c-0.3,0-0.8-0.3-1-1.2l-0.2,0l0,1.1c0.4,0.3,0.9,0.4,1.3,0.4c0.6,0,1.2-0.3,1.5-0.8c0.4-0.6,0.5-1.4,0.5-1.9
		c0-0.9-0.2-1.6-0.6-2C79.5,118.7,79,118.5,78.6,118.5z M78.6,121.4c-0.3,0-0.5-0.6-0.5-1.2c0-0.7,0.2-1.2,0.5-1.2
		c0.3,0,0.5,0.6,0.5,1.2C79.1,120.8,78.8,121.4,78.6,121.4z"/>
	<path class="st0" d="M120.1,101.9c-0.1,0.2-0.3,0.5-0.4,0.7c-1.6,3-3.4,6-5.3,8.8v-9.6h-3.8v14.8c-1.2,1.5-2.4,3-3.7,4.4l-0.1,0.1
		c-0.7,0.8-1.5,1.6-2.3,2.4c-0.8,0.8-1.6,1.6-2.5,2.4c-0.9,0.8-1.7,1.5-2.6,2.2v-26.2h-3.8v29.2c-1,0.7-2,1.4-3,2.1
		c-0.3,0.2-0.5,0.4-0.8,0.5c-1.2,0.7-2.3,1.4-3.5,2.1c-1.2,0.7-2.5,1.3-3.8,2v-11.5h-3.8v13.1c-1.3-0.5-2.5-1.1-3.7-1.6l-0.1-0.1
		c-1.4-0.6-2.6-1.3-3.8-2c-1.1-0.6-2.3-1.3-3.5-2.1v-31.8h-3.8v29.2c-0.4-0.3-0.7-0.5-1.1-0.8c-1-0.7-1.9-1.5-2.7-2.2l0,0
		c-0.8-0.7-1.7-1.4-2.6-2.2c-0.9-0.8-1.7-1.6-2.5-2.4c-0.8-0.8-1.5-1.5-2.3-2.4v-19.3h-3.8v14.8c-1.2-1.5-2.3-2.9-3.3-4.5
		c-0.2-0.2-0.3-0.5-0.5-0.7c-1.9-2.9-3.7-5.8-5.3-8.8c-0.1-0.2-0.3-0.5-0.4-0.7h-1.7c0.2,0.5,0.5,0.9,0.7,1.4
		c3.6,6.7,7.8,13,13.1,18.8c1.6,1.7,3.2,3.3,4.9,4.9c1.7,1.6,3.5,3.1,5.4,4.5c2.7,2.1,5.6,3.9,8.6,5.6c2.6,1.4,5.4,2.7,8.4,3.9
		c3-1.2,5.8-2.5,8.4-3.9c3-1.7,5.8-3.5,8.6-5.6c1.9-1.4,3.7-2.9,5.4-4.5c1.7-1.6,3.4-3.2,4.9-4.9c5.3-5.8,9.6-12,13.1-18.8
		c0.2-0.5,0.5-0.9,0.7-1.4H120.1z"/>
	<rect x="80.7" y="101.9" class="st0" width="3.8" height="14.1"/>
	<path class="st11" d="M66.3,21.2c1.7-0.2,3.3-0.3,4.9-0.4c0.9,0,1.7-0.1,2.4-0.1c0.8,0,1.6-0.1,2.2-0.1c0.8,0,1.6,0,2.4,0
		c0.8,0,1.6,0,2.4,0c0.8,0,1.6,0,2.4,0c0.8,0,1.6,0,2.4,0c0.7,0,1.4,0,2.2,0.1c0.7,0,1.5,0.1,2.4,0.1c1.6,0.1,3.2,0.2,4.9,0.4
		c1.7,0.1,3.3,0.3,5,0.5c1.7,0.2,3.4,0.4,5,0.7c1.7,0.3,3.3,0.5,4.7,0.8c2.3,0.4,4.5,0.9,6.8,1.4c2.2,0.5,4.4,1,6.6,1.7
		c1.8,0.5,3.5,1,5.3,1.6c1.4,0.5,2.9,1,4.4,1.6c0.1,0.7,0.1,1.4,0.2,2.1c0.1,1.1,0.2,2.1,0.2,3.1c0.1,1.6,0.2,3.1,0.2,4.5
		c0,1.5,0.1,2.9,0.1,4.3c0,3.2-0.1,6.5-0.4,9.8c-0.2,3.3-0.6,6.6-1,9.8c-0.3,2.2-0.6,4.3-1,6.4h1.5c0.4-2,0.7-4.1,1-6.2
		c0.9-6.4,1.4-13.1,1.4-19.7c0-2.9-0.1-5.9-0.3-8.9c-0.1-2.1-0.3-4.2-0.5-6.2c-3.6-1.4-7.1-2.6-10.7-3.6c-4.5-1.3-8.9-2.2-13.5-3.1
		c-3.1-0.6-6.3-1.1-9.8-1.5c-3.4-0.4-6.7-0.7-10-0.9c-1.7-0.1-3.3-0.2-4.7-0.2c-1.6,0-3.2-0.1-4.8-0.1c-1.6,0-3.2,0-4.8,0.1
		c-1.4,0-3,0.1-4.7,0.2c-3.3,0.2-6.6,0.5-10,0.9c-3.4,0.4-6.7,0.9-9.8,1.5c-4.6,0.8-9.1,1.8-13.5,3.1c-3.6,1-7.1,2.2-10.7,3.6
		c-0.2,2-0.4,4.1-0.5,6.2c-0.2,3-0.3,6-0.3,8.9c0,6.6,0.5,13.3,1.4,19.7c0.3,2.1,0.6,4.2,1,6.2h1.5c-0.4-2.1-0.7-4.2-1-6.4
		c-0.4-3.2-0.8-6.5-1-9.8c-0.2-3.3-0.4-6.6-0.4-9.8c0-1.4,0-2.9,0.1-4.3c0-1.4,0.1-2.9,0.2-4.5c0.1-1,0.1-2,0.2-3.1
		c0.1-0.7,0.1-1.5,0.2-2.1c1.5-0.6,3-1.1,4.4-1.6c1.7-0.6,3.5-1.1,5.3-1.6c2.2-0.6,4.4-1.2,6.6-1.7c2.2-0.5,4.5-0.9,6.8-1.4
		c1.5-0.3,3-0.5,4.7-0.8c1.6-0.2,3.3-0.5,5-0.7C63,21.5,64.6,21.3,66.3,21.2z"/>
	<path class="st12" d="M110.8,45.6c0.2,0.1,0.3,0.2,0.4,0.2c0.2,0.4,0.4,0.8,0.6,1.3c0.1,0.4,0.2,0.8,0.3,1.2
		c0.2,0.7,0.3,1.3,0.7,1.9c0.2,0.4,0.6,0.7,1,0.9c0.6,0.3,1.2,0.5,1.8,0.8c0.3,0.1,0.7,0.3,0.9,0.6c0.1,0.2,0.3,0.6,0.4,0.9
		c0.1,0.5,0.2,1.1,0.3,1.6c-1,1.4-2.5,2.2-4.1,2.8c0.4,1,0.7,1.9,0.9,3l-2.8,2.6c0,0.4,0.1,0.7,0.3,1c0.1,0.3,0.2,0.5,0.4,0.7
		c0.2,0.2,0.5,0.4,0.8,0.5c0.3,0.1,0.7,0.1,1,0c0.8-0.3,1.1-0.9,1.3-1.6c0.1-0.4,0.7-1.2,1.3-1.8c0.3-0.3,0.7-0.6,1-0.8
		c0.3-0.2,0.6-0.4,0.8-0.6c0.1-1.1,0.1-2.2,0.5-3.3c0.1-0.3,0.3-0.5,0.5-0.8c0.4-0.6,0.8-1.6,0.8-2.4c0-0.3,0-0.4-0.1-0.7
		c-0.1-0.4-0.2-0.7-0.4-0.9c0-0.6,0-1.4,0-2c0-0.5,0-0.9-0.2-1.2c-0.2-0.3-0.5-0.7-1-0.9c-0.2-0.1-0.6-0.2-0.8-0.4
		c-0.5-0.2-1-0.3-1.9-0.8c-0.4-0.2-0.6-0.6-0.9-1.1c-0.1-0.2-0.2-0.4-0.3-0.5c0.2,0,0.4,0,0.5,0c0.2,0,0.4-0.1,0.7-0.1
		c0.7-0.2,1.4-0.5,2-0.8c0.3-0.2,0.6-0.4,0.8-0.5c0.7-0.6,1-1.7,1.3-2.8c0.2-0.6,0.3-1.2,0.6-1.8c0.2-0.6,0.4-1.1,0.7-1.7
		c0.7-1.7,1.5-3.4,2.2-5.1c0.2-0.4,0.4-0.9,0.3-1.1c0-0.2-0.2-0.5-0.5-0.7c-0.3-0.2-0.7-0.5-1.1-0.5c-0.4,0-0.1,0.2-0.1,0.8
		c0,0.4-0.1,0.6-0.4,1l-2,0.2c-0.3,0.4-0.4,0.8-0.9,1.1c-0.3,0.1-0.6,0.2-1,0.1c-0.3-0.1-0.4-0.4-0.2-0.7c0.1-0.2,0.2-0.3,0.4-0.3
		c0.2-0.1,0.4-0.2,0.7-0.2c0.6,0,1,0,1.2-0.2c0.4-0.2,0.5-0.4,0.5-0.8c0-0.5-0.3-0.7-0.7-0.9c-0.2-0.1-0.5-0.1-0.6-0.1l0-1.7
		c0-0.8-0.6-1.1-1.4-1.1c-0.4,0-0.7,0-1,0.1l-0.1,2.1l0,0.2c-0.9,0.4-1.4,0.3-1.9,0.5c-0.4,0.2-0.7,0.5-0.7,0.9
		c0,0.4,0.3,0.6,0.5,1.2c0.2,0.5,0.4,1.3,0.5,1.8c0.2,0.7,0.4,1.4,0.6,2c0.3,1.1,0.6,2.1,0.6,3c0,0.8-0.1,1.4-0.3,1.9
		c-0.1,0.5-0.3,0.8-0.6,1.1c-0.2,0.2-0.4,0.4-0.7,0.5c-0.3,0.1-0.7,0.2-1.4,0.2c-0.2,0-0.3-0.1-0.4-0.6c0.4-0.1,1,0.3,1.3-0.2
		c-0.3-0.3-0.6-1.1-0.7-1.7c0.8-0.1,1.4-0.3,1.5-0.5l-0.8-1c0.3-0.2,0.6-0.2,0.8-0.3c0.1,0,0.2-0.1,0.2-0.3c0-0.2-0.1-0.4-0.4-0.6
		c-0.3-0.2-0.4-0.3-0.5-1.2c0-0.2-0.1-0.5,0-0.6c0.1-0.1,0.3-0.5,0.4-0.6l-1.4-1.4l0.7-0.8c-0.5-0.5-0.9-0.2-1.7-1
		c-0.1-0.1-0.2-0.3-0.4-0.4c-0.5-0.7-0.5-1.5-1.3-1.6l0.3-0.6c-0.2-0.2-0.6-0.3-1-0.3c-0.4,0-0.4,0-0.8-0.2
		c-0.4-0.2-0.8-0.3-1.1-0.5c-0.3-0.1-1-0.4-1.3-0.5l-0.1-0.6c-0.3,0-0.7,0-0.9,0c-0.7,0-1.2,0-1.9-0.6c-0.1-0.1-0.2-0.1-0.3-0.1
		c-0.1,0-0.3,0-0.4,0c-0.3,0-0.6-0.1-0.9-0.2c-0.6-0.2-1.5-0.3-1.8-0.3c-0.6,0-1,0.1-1.4,0.2c0-0.3,0-0.9-0.2-1
		c-0.2,0-0.2,0.1-0.3,0.2c-0.1,0.1-0.2,0.3-0.3,0.4c-0.4,0.3-0.6,0.5-2,0.7c-0.3,0.1-0.6,0.1-0.8,0.1c-0.2,0-0.7-0.3-0.8-0.4
		c-0.2,0.2-0.3,0.4-0.4,0.6c-0.2,0.2-0.3,0.4-0.5,0.5c-0.4,0.3-0.9,0.4-1.6,0.7c-0.5,0.2-1.1,0.6-1.2,1l-0.8,0v0.4
		c0,0.3,0,0.5-0.3,0.8c-0.2,0.3-0.5,0.5-0.7,1.1c-0.1,0.4-0.1,0.9-0.5,1.2c-0.2,0.1-0.5,0.2-0.6,0.4c-0.2,0.2-0.3,0.6-0.3,0.9
		c0,0.4,0.2,0.4,0.1,0.8c-0.1,0.3-0.7,0.6-0.6,1.3c0.1,0.5-0.2,0.8-0.2,1.1c0,0.5,0.3,0.7,0.3,1.1c0,0.3-0.1,0.4-0.2,0.7
		c-0.2,0.6-0.4,1.3-0.2,1.9c0.1,0.4,0.2,0.5,0.3,0.8c-0.7,1.4-1.7,3.2-2.5,4.6c-0.3,0.4-0.5,1-0.5,1.5c0,1.1,0.9,1.1,2.1,1.1
		c0.1,1-0.4,1-0.8,1.5c-0.4,0.4-0.2,1,0.2,1.4c0.2,0.2,0.5,0.2,0.3,0.5c-0.1,0.2-0.2,0.4-0.2,0.6c0,0.9,0.7,1,1.6,1
		c0.2,0.5,0.3,0.8,0.3,1.1c0,0.7-0.3,1.1-0.3,1.7c0,0.6,0.3,1,0.6,1.4c0.9,0.7,2.3,0.9,3.2,0.9c0.6,0,2.2-0.1,2.9-0.4
		c0.1,0.7,0.7,1.8,1.6,2.4c0.7,0.5,1.3,0.9,1.7,1.4c0.8,0.9,1.2,2.2,1.5,3.9c0.5,0.2,1.1,0.3,1.8,0.3c1.3,0,2.5-0.4,3.5-1.1
		c1.3-0.9,2.8-2.6,3.7-4c0.6-0.8,1.6-2,2.9-3.1c0.9-0.7,1.9-1.2,2.9-1.7c-0.4-0.6-0.9-0.7-1.6-1.9c-0.9-1.5-1.5-2.8-1.8-4.7
		c0.1,0,0.5,0,0.8-0.1c0.6-0.1,0.3-0.3,0-0.6c-0.1-0.1-0.6-0.8-0.8-1c0.5,0,1-0.1,1.5-0.1c0-0.2-0.1-0.5-0.3-0.9
		C110.7,47,110.4,46.7,110.8,45.6z"/>
	<path class="st13" d="M91.2,33c-0.7-0.3-1.4-0.6-2.1-0.8c-0.2,0.1-0.1,0.5-0.8,0.9c-0.3,0.2-0.7,0.3-0.8,0.7c0,0.5,0.7,1,1,1.3
		c-0.2,0-0.5-0.1-0.7-0.1c-0.2,0-0.4,0.1-0.6,0.3c-0.2,0.3-0.2,0.7,0,0.9c0.2,0.2,0.8,0.5,1,0.6c-0.4,0-0.8,0-1.1-0.1
		C87,36.9,87,37.1,87,37.3c0,0.4,0.2,0.8,0.6,1c0.5,0.2,1,0.4,1.7,0.6c0.7,0.2,2.2,1,2.9,1.3c1.4,0.6,2.3,0.7,5.7,0.8
		c-0.1,0.1-0.7,0.3-1.5,0.4c1.3,0.6,2.4,1,3.3,1c0.9-1,1.8-1.7,3.1-1.7c0.8,0,1.6,0.5,2,1.2c0.4,0.8,0.4,1.5-0.2,2.4
		c-0.3,0.5-0.8,0.5-1.4,1c-0.4,0.4-0.7,1.6-1.2,2.1c-0.2,0.2-0.5,0.6-0.9,0.6c-0.3,0-0.8,0.1-1.2-0.6c0,0.7,0.8,1,1.3,1
		c0.5,0,1-0.3,1.4-1c0.5-0.8,0.5-1.4,1.2-1.9c0.4-0.3,0.9-0.4,1.3-1c0.3-0.3,0.4-0.8,0.8-0.8c0.4,0,0.7,0.3,1,0.5
		c0.3,0.2,0.5,0.3,1.3,0.3c0.5,0,1.1-0.1,1.6-0.3c-0.2-0.2-0.4-0.3-0.7-0.3c-1.2,0-1.7-0.6-2.8-0.8c0.6-0.1,1.1,0,1.8,0.2
		c0.3,0.1,0.6,0.1,1,0.1c0.4,0,0.7,0.1,0.8,0.2c0.4,0.4,1.1,0.7,1.4,0.5c0.4-0.3,0.1-0.8-0.1-1.2c-0.6-0.7-1.9-1.1-2.7-1.8
		c-1-0.9-1.8-1.5-2.8-2c-0.9-0.4-2.4-0.7-3.1-1c0.5,0,0.9-0.1,1.1-0.2c-1.2-0.1-2.4-0.7-2.9-0.9c-0.6-0.3-1.1-0.3-2-0.3
		c-1.3,0-2.9-0.4-4.3-0.9c-1.3-0.4-2.5-0.9-3-1.2c1.6,0.5,3.3,1,5,1.4c0.3,0.1,1.7,0.4,0.9-0.3c-0.3-0.3-1.8-1-3-1.6
		C93.1,33.8,92.1,33.4,91.2,33L91.2,33z M87.7,37.5c0.6-0.1,1.2-0.1,1.7-0.1c1,0,2,0.3,3,0.9c0.9,0.5,1.9,0.8,3.2,0.8
		c0.6,0,1.1-0.1,1.5-0.2c-0.4,0.3-1.3,0.4-2.2,0.4c-1.4,0-2.3-0.3-3-0.7C90.8,38.1,89.6,37.7,87.7,37.5L87.7,37.5z M99.7,38.6
		c2.9,0.6,5,2,5.8,2.9c0.3,0.4,0.8,0.4,1.2,0.4c0.5,0,0.8,0,1.4,0.2c-1.2-1.1-2.7-2-4.5-2.6c1.3,0.1,3.1,1,4.2,1.8
		c0.6,0.5,1.3,0.9,2,1.3c0.4,0.2,0.7,0.5,0.9,1.1c-0.3-0.4-0.7-0.6-1-0.7c-0.8-0.4-1.8-0.6-2.8-0.6c-1.4,0-1.3-0.3-1.8-0.8
		c-0.5-0.5-1.2-1-1.5-1.2C102.5,39.8,100.9,39.1,99.7,38.6L99.7,38.6z M88.6,41.3c0.7,1.1,1.9,1.7,3.5,2c-0.1,0.9-1.8,0.6-2.3,1.4
		c-0.4-0.4,0.4-0.9,1.3-1.1c-0.4-0.1-0.8-0.3-1.2-0.5c0,0.5-0.3,0.9-0.7,0.9c-0.3,0-0.8-0.6-0.4-1.6C88.4,42,88.3,41.6,88.6,41.3
		L88.6,41.3z M102.1,43.6c0.2,0,0.4,0.1,0.5,0.2c0.2,0.2,0.2,0.6,0.1,0.9c-0.2,0.3-0.4,0.4-0.6,0.5c-0.2,0.1-0.3,0.1-0.4,0.7
		c-0.1,0.4-0.3,0.7-0.7,0.7c-0.3,0-0.7-0.2-0.6-0.6c0-0.2,0.1-0.3,0.3-0.3c0.1,0,0.2,0,0.2,0.1c0,0.2,0.1,0.3,0.2,0.3
		c0.1,0,0.2-0.1,0.2-0.3c0.1-0.9,0.2-0.8,0.5-1c0.3-0.2,0.5-0.3,0.5-0.5c0-0.2-0.4-0.3-0.4-0.4C101.9,43.6,102,43.6,102.1,43.6
		L102.1,43.6z M100.6,43.2c-0.2,0.1-0.3,0.2-0.3,0c0-0.2,0.2-0.4,0.3-0.6c0.5-0.6,1.5-1.1,2.2-1.1c0.9,0,1.3,0.7,1.3,1.5
		c0,0.4-0.1,0.7-0.3,0.9c-0.1,0.2-0.3,0.3-0.4,0.2c0-0.1,0-0.4,0.1-0.8c0.1-0.2,0-0.7-0.2-0.9c-0.2-0.2-0.4-0.4-0.7-0.4
		c-0.4,0-0.8,0.3-1.2,0.5C101,42.8,100.7,43,100.6,43.2L100.6,43.2z M111.3,44.9c0.5-0.4,0.7-0.7,0.5-1.3c-0.1-0.2-0.2-0.3-0.1-0.4
		c0.1-0.1,0.6,0,0.7,0.2c0.5,0.7,0.1,1.4-0.6,1.8c-0.1,0.1-0.6,0.3-0.7,0C111,45.2,111.1,45,111.3,44.9L111.3,44.9z M112.9,43.5
		C112.9,43.4,112.8,43.4,112.9,43.5c1.2,0,1.8-0.4,2.3-0.9c0.6-0.7,1-1.6,1-3.3c0-1.5-0.7-3.2-1.2-5.2c0-0.1-0.4-1.3-0.4-1.5
		c0.8,0.1,1.5-0.3,2.1-0.8c0.4-0.3,1-0.9,1.8-0.9c0.3,0,1,0,1,0.5c0,0.4-0.3,0.5-1.3,0.5c-0.7,0-1.1,0.2-1.4,0.6
		c-0.4,0.5,0,1,0.1,1.2c0.4,1.2,0.4,3.1,0.1,5.3c0.6-1.2,0.7-3.5,0.3-5.2c1.3,0.4,2.1-0.5,2.4-1.2l3-0.2c-0.5,1.3-1.9,4.4-2.9,6.9
		c-0.8,1.9-0.7,3.5-1.8,4.5c-0.3,0.3-1.1,0.7-1.9,1c-0.6,0.2-0.9,0.4-1.3,0.4c-0.5,0-0.9-0.1-1.8-0.8c0-0.1,0-0.1,0-0.2
		c1.5,0.4,2.8,0.1,3.6-0.7c-0.9,0.7-2.6,0.7-3.6,0.4c0,0,0-0.1,0-0.1c1.4,0.2,3.2-0.4,3.5-1.1C115.6,43.5,114,43.6,112.9,43.5
		L112.9,43.5z M119.5,33.8c0.2-0.4,0.6-0.6,1.1-0.5C120.1,33.1,119.6,33.3,119.5,33.8L119.5,33.8z M119.1,34.2
		c-0.5,0.9-0.3,2.2,0.2,2.5C119,36.1,118.9,35.2,119.1,34.2L119.1,34.2z M121.8,32.1c0.8-0.1,1.2-0.2,1.2-0.4c0-0.2-0.4-0.7-0.9-0.8
		C122.1,31.2,122,31.6,121.8,32.1L121.8,32.1z M118.1,30.4l0-0.8c-0.3,0.2-1,0.5-1.8,0.8c-1,0.3-1.5,0.2-1.9,0.4
		c-0.3,0.1-0.5,0.4-0.4,0.7c0.4-0.3,0.7-0.4,1-0.4c-0.3,0.1-0.6,0.3-0.9,0.6c0.1,0.1,0.1,0.1,0.2,0.2c0.4-0.3,0.7-0.5,1-0.6
		c-0.3,0.2-0.6,0.4-0.8,0.7c0.7,0.2,1.5-0.3,2.2-1C116.9,30.9,117.5,30.5,118.1,30.4L118.1,30.4z M116.6,29.8l0-1.7
		c0.2,0,0.5-0.1,0.6-0.1c0.4,0,0.9,0.1,0.9,0.6C118.2,29.1,117.6,29.5,116.6,29.8L116.6,29.8z M111.7,45.8c0.2,0.3,0.4,0.7,0.6,1.2
		c0.4,1.1,0.4,2.1,1,3c0.5,0.8,1.6,1.1,2.6,1.5c0.6,0.2,1.4,0.8,1.5,1.9c0-0.5,0-1.1,0-1.6c0.2,0.5,0.3,1.3,0.3,2.5l0.1-0.1
		c0.2-0.8,0.2-1.5,0.1-2c0.2,0.2,0.3,0.8,0.3,1.5l0.2-0.2c0-0.5,0-0.8-0.1-1.2c0.1,0.2,0.2,0.5,0.3,0.9l0.4-0.5c0-0.6,0-1.3,0-1.9
		c0-0.9-0.1-1.3-1.1-1.8c-0.7-0.3-1.3-0.4-2.7-1.2c-0.5-0.3-0.9-1-1.3-1.6c-0.2-0.3-0.5-0.7-0.7-0.9c0.2,0.5,0.3,0.9,0.2,1.3
		c-0.1-0.6-0.3-1.1-0.7-1.5c0,0.1-0.1,0.1-0.1,0.2c0.5,0.6,0.7,1.1,0.7,2c-0.1-0.8-0.3-1.3-0.9-1.8c0,0-0.1,0.1-0.1,0.1
		c0,0.4,0.3,1.5,0.6,2.1c0.3,0.6,0.7,1.2,1.2,1.7c-0.6-0.4-1-0.9-1.3-1.6c-0.3-0.5-0.6-1.2-0.8-1.9
		C111.9,45.7,111.8,45.8,111.7,45.8L111.7,45.8z M113.5,57.9c1-0.4,1.9-0.9,2.7-1.5c0.6-0.5,1.2-1.1,1.7-1.8
		c0.4-0.6,0.9-1.2,1.3-1.7c0.2,0.4,0.2,0.8,0.2,1.3c0,1.5-0.8,2-1.2,3.1c-0.5,1.2-0.5,2.2-0.6,3.2c-0.1,0-0.2,0.1-0.3,0.2
		c0-0.5-0.1-0.8-0.3-1.1c0.1,0.4,0.1,0.8,0.1,1.3c-0.1,0.1-0.2,0.1-0.3,0.2c0-0.5-0.1-1-0.2-1.3c0,0.5,0,1-0.1,1.5
		c-0.1,0.1-0.2,0.1-0.3,0.2c-0.1-0.8-0.1-1.3-0.3-1.4c0.1,0.5,0.1,1.1,0,1.7c-0.1,0.1-0.2,0.1-0.2,0.2c0-0.7-0.1-1.3-0.3-1.6
		c0,0.5,0,1.1-0.1,1.9c0,0-0.1,0.1-0.1,0.1c0-0.8-0.1-1.6-0.2-1.8c0,0.4,0,1.5-0.2,2.2C114.6,60.8,114.1,59.1,113.5,57.9L113.5,57.9
		z M111.6,63.4c0.1,0.6,0.3,1.1,0.5,1.3c0.3,0.3,0.8,0.5,1.3,0.4c-0.6-0.4-1-0.8-1.1-1.2c0.4,0.5,1,0.9,1.6,1c0.1,0,0.1-0.1,0.2-0.2
		c-0.7-0.3-1.1-0.7-1.4-1.3c0.5,0.5,1,0.9,1.6,1c0-0.1,0.1-0.1,0.1-0.2c-0.7-0.3-1.2-0.7-1.4-1.2c0.6,0.6,1.1,0.9,1.5,0.9
		c0.1-0.6,0-1.4-0.4-2.7L111.6,63.4z"/>
	<g>
		<linearGradient id="SVGID_7_" gradientUnits="userSpaceOnUse" x1="54.6975" y1="36.6739" x2="64.9862" y2="36.6739">
			<stop  offset="0" style="stop-color:#FFFFFF"/>
			<stop  offset="1" style="stop-color:#000000"/>
		</linearGradient>
		<path class="st14" d="M59.8,34L59,35.9l-1.3-1.6l-0.9,1.8l-2.1-1.5c0.5,1.1,1,2.3,1.4,3.5c0.2,0.6,0.4,0.8,0.9,0.9
			c0.9,0.2,1.9,0.3,2.8,0.3c1,0,1.9-0.1,2.8-0.3c0.5-0.1,0.7-0.3,0.9-0.9c0.4-1.2,0.9-2.3,1.4-3.5l-2.1,1.5L62,34.3l-1.3,1.6
			L59.8,34z"/>
		<path class="st10" d="M77.7,39.8l-0.1-0.6c-0.2,0.2-0.7,0.8-1.2,0.8c-0.2,0-0.4-0.1-0.4-0.4c0-0.4,0.3-0.6,0.3-1.1
			c0-0.3-0.1-0.6-0.3-0.8c-0.3-0.3-0.6-0.5-1.4-0.5c-0.7,0-1,0.5-1.3,0.8c-0.3,0.3-0.6,0.4-0.8,0.2c-0.2-0.2-0.2-0.5-0.1-0.7
			c0.3-0.4,0.5-0.4,1-0.4c0.3,0,0.6,0,0.7-0.1c0.7-0.4,0.5-0.4,0.6-1.2c0-0.2,0-0.4,0.1-0.6c0.2-0.4,0.4-0.7-0.1-1.1
			c-1-0.8-1.6-0.6-2.8-0.6c-0.8,0-1.4-0.6-1.8-0.6c-0.1,0-0.3,0.2-0.3,0.4c-0.1,0.4-0.1,1-0.4,1.4c-0.3,0.5-0.3,0.7-0.1,0.9
			c0.2,0.2,0.4,0.7,0.4,1c0,0.4-0.2,0.5-0.5,0.5c-0.4,0-0.9-0.8-0.9-1.5c0.3-0.5,0.2-0.7,0.2-0.9c0.9-0.4,1.3-1.1,1.3-2
			c0.5-0.6,0.7-1.4,0.6-2.6l-0.8,0.6c0.1-1-0.2-1.8-0.8-2.4c0,0.8-0.2,1.3-0.5,1.6c0.2-2-1.2-2.8-1.6-3.4c0,0.5,0,0.9-0.1,1.1
			c-0.6-0.7-1.3-1.2-2.1-1.6l0.5,1.3c-0.8-0.6-1.5-1.1-2.3-1.5c0.1,0.4,0.3,0.8,0.4,1.2l-3-1.3c0.2,0.5,0.7,1.2,1.5,2.1
			c-0.6,0-1.1,0.3-1.4,0.8c0.9,0.1,1.2,0.4,1.8,0.6c-0.2,0.2-0.4,0.3-0.5,0.4c0.5-0.1,1.2,0,2.1,0.3c-0.1,0.1-0.2,0.1-0.2,0.2
			c0.8-0.2,1.6,0.1,2.6,0.9c-0.2,0-0.4,0-0.5,0c0.4,0.4,0.7,0.7,0.8,1.2c-0.3-0.2-0.5-0.4-0.8-0.7c0,0.7,0.2,1.2,0.5,1.7
			c-1.9-0.7-3.7-1-5.3-1.1c0.2,0.3,0.4,0.5,0.3,0.8c0,0.4-0.4,0.8-1,0.8c-0.7,0-1-0.4-1-0.8c0-0.2,0.1-0.5,0.3-0.8
			c-1.6,0.1-3.4,0.4-5.3,1.1c0.3-0.6,0.5-1.1,0.5-1.7c-0.2,0.3-0.5,0.5-0.8,0.7c0.1-0.4,0.4-0.8,0.8-1.2c-0.2,0-0.3,0-0.5,0
			c0.9-0.8,1.8-1.1,2.6-0.9c-0.1-0.1-0.1-0.1-0.2-0.2c0.9-0.4,1.5-0.5,2.1-0.3c-0.1-0.2-0.4-0.3-0.5-0.4c0.6-0.2,0.9-0.5,1.8-0.6
			c-0.3-0.4-0.8-0.7-1.4-0.8c0.8-0.9,1.3-1.6,1.5-2.1l-3,1.3c0.2-0.4,0.3-0.8,0.4-1.2c-0.8,0.4-1.5,0.9-2.3,1.5l0.5-1.3
			c-0.8,0.4-1.5,0.9-2.1,1.6c0-0.2-0.1-0.6-0.1-1.1c-0.4,0.6-1.8,1.4-1.6,3.4c-0.4-0.3-0.5-0.8-0.5-1.6c-0.6,0.6-0.9,1.4-0.8,2.4
			L49.3,30c-0.1,1.2,0.1,2.1,0.6,2.6c0,0.9,0.5,1.6,1.3,2c0,0.3-0.1,0.4,0.2,0.9c0,0.7-0.4,1.5-0.9,1.5c-0.3,0-0.5-0.1-0.5-0.5
			c0-0.3,0.2-0.8,0.4-1c0.2-0.2,0.2-0.5-0.1-0.9c-0.3-0.4-0.3-0.9-0.4-1.4c0-0.2-0.2-0.4-0.3-0.4c-0.5,0-1,0.6-1.8,0.6
			c-1.2,0-1.8-0.1-2.8,0.6c-0.5,0.4-0.2,0.7-0.1,1.1c0.1,0.2,0.1,0.4,0.1,0.6c0,0.9-0.2,0.9,0.6,1.2c0.2,0.1,0.4,0.1,0.7,0.1
			c0.4,0,0.7,0,1,0.4c0.2,0.2,0.1,0.5-0.1,0.7c-0.2,0.2-0.6,0.1-0.8-0.2c-0.3-0.3-0.6-0.8-1.3-0.8c-0.8,0-1.1,0.2-1.4,0.5
			c-0.2,0.2-0.3,0.5-0.3,0.8c0,0.5,0.3,0.7,0.3,1.1c0,0.3-0.2,0.4-0.4,0.4c-0.4,0-1-0.6-1.2-0.8L42,39.8l-0.5,0.4
			c0.9,0.4,2,0.4,2.5-0.1c0.6-0.6-0.3-1.3,0.8-1.8c0.5-0.2,1.1,0.2,1.5,0.5c0.4,0.4,1.2,0.5,1.8-0.2c0.2-0.2,0.2-0.5,0.2-0.8
			c0-0.5-0.2-1-0.5-1.3c-0.2-0.2-0.5-0.5-0.8-0.7c-0.3-0.2-0.1-0.4,0.2-0.4c0.4,0,0.6-0.1,1-0.3c0.9-0.4,1.1-0.1,1.1,0.5
			c0,0.5-0.2,1.3,0.2,1.8c0.2,0.3,0.6,0.6,1.1,0.6c0.9,0,1.7-0.5,1.9-2.1l0.4-0.1c0.1,0.2,0.1,0.4,0.1,0.6c0,0.8-0.3,1.2-0.7,1.8
			c-0.9,1.2-2.5,1.8-3.6,1.7c-0.8,0-1.7-0.4-2.5-0.7l-0.7,0.5L45,40.5c1,1.2,1.9,2.4,1.9,4.3c0,1.3-0.8,3.4-1,4.1
			c-0.7,2.3-1.1,3.3-1.1,5.2c0,1.8,0.8,3.7,2.9,5.5c0.3,0.2,1.2,1,2.2,1.6c2,1.2,4.3,2.2,4.7,3.1c-0.5-0.3-0.8-0.4-1.1-0.4
			c-0.5,0-1.1,0.2-1.4,0.7c-0.4,0.6-0.1,1.2,0.3,1.6c0.3,0.3,0.7,0.4,1.3,0.4c0.5,0,0.9-0.1,1.4-0.2c1,0,1.7-0.2,2.6-0.2
			c1,0,1.3,0.1,1.6-0.5c0.3-0.4,0.2-1.3,0.6-1.3c0.3,0,0.3,0.9,0.6,1.3c0.4,0.6,0.6,0.5,1.6,0.5c0.9,0,1.7,0.2,2.6,0.2
			c0.5,0,0.9,0.2,1.4,0.2c0.6,0,0.9-0.1,1.3-0.4c0.3-0.3,0.6-0.9,0.3-1.6c-0.3-0.5-0.9-0.7-1.4-0.7c-0.4,0-0.7,0.1-1.1,0.4
			c0.4-0.8,2.7-1.9,4.7-3.1c1-0.6,2-1.3,2.2-1.6c2.1-1.8,2.9-3.7,2.9-5.5c0-1.9-0.4-2.9-1.1-5.2c-0.2-0.6-1-2.8-1-4.1
			c0-2,0.9-3.1,1.9-4.3l-0.4-0.5l-0.7-0.5c-0.8,0.3-1.7,0.7-2.5,0.7c-1.1,0-2.7-0.5-3.6-1.7c-0.4-0.6-0.7-1-0.7-1.8
			c0-0.2,0-0.4,0.1-0.6l0.4,0.1c0.2,1.7,1,2.1,1.9,2.1c0.6,0,1-0.3,1.1-0.6c0.4-0.5,0.2-1.3,0.2-1.8c0-0.6,0.2-0.9,1.1-0.5
			c0.4,0.2,0.6,0.3,1,0.3c0.3,0,0.5,0.2,0.2,0.4c-0.3,0.1-0.6,0.4-0.8,0.7c-0.3,0.3-0.5,0.8-0.5,1.3c0,0.3,0,0.6,0.2,0.8
			c0.6,0.7,1.3,0.7,1.8,0.2c0.4-0.4,0.9-0.8,1.5-0.5c1.1,0.5,0.2,1.1,0.8,1.8c0.5,0.5,1.6,0.5,2.5,0.1L77.7,39.8z M57.9,58.3
			c0,0-0.4,0-0.4,0c-0.3,0-0.7,0.1-0.7,0.5c0,0.2,0.1,0.3,0.4,0.5l-1.3,0c-0.4,0-0.8,0.2-0.8,0.4c0,0.1,0.1,0.4,0.4,0.5l-1.8,0
			c0-0.4-0.3-0.5-0.7-0.5c-0.2,0-0.2-0.2-0.4-0.3c-0.1,0-0.3-0.1-0.5-0.1c-0.3,0-0.4,0-0.5-0.1c-0.3-0.1-0.5-0.7-0.5-1
			c0-0.4,0.2-0.5,0.5-0.6c0.3-0.2,0.7-0.3,1-0.5c0.4-0.2,0.3-0.6,0.3-1.2c0.1,0.2,0.2,0.4,0.2,0.5c0.2,0.3,0.4-0.3,0.4-0.4
			c0.1,0.1,0.1,0.5,0.2,0.6c0.2-0.1,0.2-0.3,0.3-0.5c0,0.1,0,0.3,0.2,0.3c0.1,0,0.2-0.2,0.2-0.3c0.1,0.1,0.1,0.3,0.3,0.3
			c0.1,0,0.2-0.1,0.4-0.3c-0.1,0.2-0.5,0.7-0.5,1.1c0,0.2,0.2,0.5,0.6,0.3c0.5-0.2,0.8-0.3,1.4-0.3c0.6,0,1.1,0.4,1.5,0.2V58.3z
			 M52.5,44.4h0.7C53,44.7,52.6,44.8,52.5,44.4z M57.9,55.5c-0.3,0-0.4,0.2-0.5,0.5c-0.1,0.2-0.4,0.4-0.8,0.4
			c-0.5,0-0.8-0.1-0.8-0.3c0-0.1,0.1-0.3,0.4-0.5c0.4-0.3,0.4-0.7,0.4-1c0-0.3,0-0.5-0.2-0.6c-0.2-0.2-0.5-0.2-0.8-0.2
			c-0.6,0-1.7,0-2.2,0.2c0.2-0.3,0.5-0.4,0.8-0.4l0.1,0.1c0.6-0.3,0.6-0.7,0.9-1c0,0.3,0,0.6,0.1,0.8c0.3-0.3,0.5-0.7,0.6-1.1
			c0.1,0.4,0.1,0.6,0.2,0.7c0.4-0.3,0.7-0.7,0.7-1.3c0.5,0,1,0.1,1.3,0.4V55.5z M57.9,51.1c-0.3,0-0.5,0-0.7-0.1c0-0.3,0-0.7-0.1-1
			h0.2c0-0.5-0.1-0.8-0.4-1.1c0-0.1,0-0.2-0.1-0.3c0.5-0.5,0.2-1.2,0.6-1.6c0.1-0.1,0.3-0.2,0.5-0.2V51.1z M68.1,59.2
			c-0.1,0.1-0.2,0.1-0.5,0.1c-0.2,0-0.4,0-0.5,0.1c-0.2,0.1-0.2,0.2-0.4,0.3c-0.4,0.1-0.7,0.1-0.7,0.5l-1.8,0
			c0.4-0.2,0.4-0.4,0.4-0.5c0-0.3-0.4-0.4-0.8-0.4l-1.3,0c0.3-0.1,0.4-0.3,0.4-0.5c0-0.3-0.4-0.5-0.7-0.5c0,0-0.4,0-0.4,0v-0.9
			c0.4,0.2,0.9-0.2,1.5-0.2c0.6,0,0.9,0.2,1.4,0.3c0.5,0.2,0.6,0,0.6-0.3c0-0.3-0.4-0.8-0.5-1.1c0.1,0.2,0.2,0.3,0.4,0.3
			c0.1,0,0.2-0.1,0.3-0.3c0,0,0.1,0.3,0.2,0.3c0.2,0,0.1-0.2,0.2-0.3c0.1,0.1,0.1,0.4,0.3,0.5c0.1-0.1,0.1-0.5,0.2-0.6
			c0,0.2,0.2,0.7,0.4,0.4c0.1-0.1,0.1-0.2,0.2-0.5c0,0.6-0.1,1,0.3,1.2c0.3,0.2,0.6,0.3,1,0.5c0.2,0.1,0.5,0.2,0.5,0.6
			C68.6,58.5,68.4,59.1,68.1,59.2z M62.8,48.9c-0.3,0.3-0.4,0.6-0.4,1.1h0.2c-0.1,0.3-0.1,0.6-0.1,1c-0.2,0.1-0.4,0.1-0.7,0.1v-4.3
			c0.2,0,0.4,0.1,0.5,0.2c0.3,0.4,0.1,1.1,0.6,1.6C62.8,48.6,62.8,48.8,62.8,48.9z M63,51.7c0.1,0.6,0.3,1.1,0.7,1.3
			c0.1-0.1,0.1-0.3,0.2-0.7c0.1,0.4,0.3,0.7,0.6,1.1c0.1-0.2,0.1-0.5,0.1-0.8c0.3,0.3,0.2,0.7,0.9,1l0.1-0.1c0.4,0,0.6,0.1,0.8,0.4
			c-0.5-0.1-1.6-0.2-2.2-0.2c-0.3,0-0.6,0-0.8,0.2c-0.2,0.1-0.2,0.3-0.2,0.6c0,0.3,0,0.7,0.4,1c0.3,0.2,0.4,0.3,0.4,0.5
			c0,0.2-0.4,0.3-0.8,0.3c-0.5,0-0.7-0.2-0.8-0.4c-0.1-0.2-0.2-0.5-0.5-0.5v-3.4C62.1,51.9,62.5,51.7,63,51.7z M66.6,44.4h0.7
			C67,44.8,66.7,44.7,66.6,44.4z M65.9,34.3c-0.6,0.5-0.6,1.6-0.4,2.4c0.5,1.5,1.3,2.4,2.1,3c0.8,0.6,2,0.8,3,0.8
			c1.1,0,1.8-0.3,2.9-0.8L74,40c-0.2,0.2-0.4,0.5-0.7,0.8c-1,1.3-1.4,2.7-1.4,4c0,1.5,0.8,3.7,1.4,6c0.2,0.9,0.6,2.1,0.6,3
			c0,1.2-0.4,2.3-1.1,3.3c-1.3,1.8-2.6,2.6-3.9,3.4v-0.3l-0.3,0c0-0.1,0-0.2,0.1-0.3c0.1-0.2,0.5-0.2,0.7-0.3
			c0.3-0.1,0.4-0.3,0.2-0.7c-0.2-0.3-0.4-0.7-0.1-1.1c0.3-0.3,0.1-0.5-0.1-0.5c-0.2,0-0.7-0.1-0.7-0.5c0-0.5,0.5-0.7,0.2-1.5
			c0.5,0.3,0.7,0.7,0.6,1.1c0.4-0.3,0.6-0.6,0.7-1c0.2,0.3,0.3,0.7,0.1,1c0.6-0.5,0.8-0.9,0.3-1.4c0.4-0.1,0.8,0.1,1.1,0.4
			c0.2-0.4,0-0.8-0.5-1.2c0.4-0.9,0.3-1.4-0.1-2.2c-0.4-0.7-1-1.5-1-2.2c0-0.8,0.5-1.3,1.1-1.3c0.2,0,0.5,0,0.6,0.6
			c-0.4,0.2-1,0.8-0.6,1.4c0.4,0.6,1.3,0.6,1.5,1.6c0.2-0.3,0.1-0.7-0.1-1.1c-0.1-0.2-0.2-0.7,0-1.2c0.1-0.5-0.2-0.7-0.5-0.8
			c-0.1-0.7-0.4-1-1-1c-0.6,0-0.9,0.2-1.1,0.5c-0.3,0.4-0.5,0.9-0.5,1.4c0,0.9,0.6,1.6,1,2.3c0.2,0.4,0.3,0.7,0.3,1.1
			c0,0.9-0.4,1.3-1.3,1.3c-0.2-0.5-0.5-0.8-0.9-0.9c-0.1-0.5-0.3-0.9-0.7-1c0-0.7-0.1-1.3-0.4-1.7l0.7,0c-0.4-0.3-0.6-0.8-0.7-1.4
			c0.2,0.2,0.5,0.3,1,0.3c-0.3-0.5-0.4-0.8-0.4-1c0.1,0.3,0.4,0.4,0.8,0.3c-0.2-0.2-0.2-0.3-0.2-0.6c0-0.3,0.1-0.6,0.2-1.1
			c0.1,0.5,0.4,0.8,1,0.8c-0.4-0.4-0.1-1.3-0.2-1.9c0.5,0.4,0.9,0.4,1.1,0.1c-0.5-0.1-0.6-1-1.2-1.1c0.4,0,0.7,0,0.9-0.1
			c0.2-0.1,0.3-0.3,0.3-0.5c-0.3,0.1-0.6,0.1-0.9-0.1c0.5-0.5,0.4-0.8-0.2-0.8c0.2-0.3,0-0.6-0.4-0.8c0,0.2-0.1,0.4-0.3,0.6
			c-0.1-0.3-0.4-0.4-0.5-0.6c-0.2,0.2-0.3,0.4-0.3,0.7c-0.8,0-1.2,0-1.5,0.1c-0.2,0-0.3,0.1-0.3,0.2c0,0.1,0,0.2-0.2,0.2
			c-0.3,0.1-0.7,0.1-0.9,0.1c-0.2,0-0.5,0.1-0.3,0.3c0.2,0.2,0.2,0.3,0.6,0.9c0.6-0.3,1-0.3,1.1,0.1c-0.2,0-0.4,0-0.7,0
			c-0.3,0-0.4,0-1,0.1c-0.3,0-0.6,0-0.7-0.1c-0.1-0.1-0.4-0.1-0.2,0.2c0.1,0.1,0.4,0.1,0.8,0.1c0.2,0,0.6,0,0.7,0c0.3,0,0.5,0,0.9,0
			c-0.2,0.3-0.6,0.3-0.9,0c0,0.3,0,0.6,0,0.7c0.3,0.1,0.8-0.5,0.9-0.3c0.1,0.2,0,0.3-0.2,0.4c-0.2,0.1-0.5,0.2-0.7,0.2
			c-0.3,0-0.6-0.2-0.9-0.2c-0.3,0-0.3,0.3-0.3,0.6c-0.3,0.1-0.5,0.2-0.8,0.3c-0.2-0.3-0.3-0.4-0.6-0.6c-0.2-0.1-0.5-0.5-0.5-1.2
			c0-0.4-0.6-0.6-0.9-0.6l0-1.9c0.6,0.1,0.7-0.6,0.1-0.9c0.3-0.7,0.7-1.2,1.2-1.4c0.1-0.7-0.1-0.7-0.8-0.8c-0.6-0.1-1.6-0.1-2.5-0.1
			c-0.9,0-1.9,0-2.5,0.1c-0.6,0.1-0.8,0.1-0.8,0.8c0.5,0.3,0.9,0.8,1.2,1.4c-0.6,0.3-0.5,0.9,0.1,0.9l0,1.9c-0.3,0-0.9,0.2-0.9,0.6
			c0,0.8-0.3,1.1-0.5,1.2c-0.3,0.2-0.4,0.3-0.6,0.6c-0.3-0.1-0.5-0.2-0.8-0.3c0-0.3,0-0.6-0.3-0.6c-0.3,0-0.7,0.2-0.9,0.2
			c-0.2,0-0.5-0.1-0.7-0.2c-0.2-0.1-0.3-0.2-0.2-0.4c0.1-0.2,0.6,0.3,0.9,0.3c0-0.2,0-0.4,0-0.7c-0.3,0.3-0.7,0.2-0.9,0
			c0.4,0,0.7,0,0.9,0c0.1,0,0.5,0,0.7,0c0.4,0,0.7,0,0.8-0.1c0.3-0.3,0-0.2-0.2-0.2c-0.2,0.1-0.4,0.2-0.7,0.1c-0.6,0-0.7,0-1-0.1
			c-0.2,0-0.4,0-0.7,0c0.1-0.3,0.5-0.4,1.1-0.1c0.4-0.6,0.4-0.6,0.6-0.9c0.3-0.3-0.1-0.3-0.3-0.3c-0.2,0-0.6-0.1-0.9-0.1
			c-0.2,0-0.2-0.1-0.2-0.2c0-0.1-0.1-0.2-0.3-0.2c-0.3-0.1-0.7-0.1-1.5-0.1c0-0.3,0-0.6-0.3-0.7c-0.2,0.2-0.5,0.4-0.5,0.6
			c-0.2-0.2-0.3-0.4-0.3-0.6c-0.4,0.2-0.5,0.5-0.4,0.8c-0.6,0.1-0.7,0.3-0.2,0.8c-0.3,0.2-0.6,0.2-0.9,0.1c0,0.2,0.1,0.4,0.3,0.5
			c0.2,0.1,0.5,0.2,0.9,0.1c-0.6,0.2-0.7,1-1.2,1.1c0.2,0.3,0.6,0.2,1.1-0.1c-0.1,0.6,0.2,1.4-0.2,1.9c0.6,0,0.9-0.3,1-0.8
			c0.1,0.5,0.2,0.8,0.2,1.1c0,0.3,0,0.4-0.2,0.6c0.4,0.1,0.7,0,0.8-0.3c0.1,0.2-0.1,0.5-0.4,1c0.4,0,0.8-0.1,1-0.3
			c-0.1,0.6-0.3,1.1-0.7,1.4l0.7,0c-0.3,0.5-0.4,1-0.4,1.7c-0.4,0.2-0.6,0.5-0.7,1c-0.4,0.1-0.7,0.4-0.9,0.9c-0.9,0-1.3-0.4-1.3-1.3
			c0-0.4,0.1-0.7,0.3-1.1c0.4-0.7,1-1.4,1-2.3c0-0.4-0.1-1-0.5-1.4c-0.2-0.2-0.5-0.5-1.1-0.5c-0.6,0-0.9,0.3-1,1
			c-0.3,0.2-0.6,0.3-0.5,0.8c0.1,0.5,0.1,0.9,0,1.2C47,51.3,47,51.7,47.1,52c0.2-1,1.1-1,1.5-1.6c0.4-0.6-0.1-1.2-0.6-1.4
			c0.1-0.6,0.5-0.6,0.6-0.6c0.6,0,1.1,0.6,1.1,1.3c0,0.8-0.7,1.5-1,2.2c-0.4,0.8-0.5,1.3-0.1,2.2c-0.5,0.4-0.7,0.8-0.5,1.2
			c0.3-0.3,0.7-0.5,1.1-0.4c-0.4,0.5-0.3,0.9,0.3,1.4c-0.2-0.4-0.2-0.7,0.1-1c0.1,0.4,0.3,0.7,0.7,1c-0.1-0.4,0.1-0.8,0.6-1.1
			c-0.2,0.8,0.2,0.9,0.2,1.5c0,0.4-0.5,0.5-0.7,0.5c-0.2,0-0.4,0.2-0.1,0.5c0.3,0.4,0.1,0.8-0.1,1.1c-0.3,0.4-0.1,0.6,0.2,0.7
			c0.2,0.1,0.6,0.1,0.7,0.3c0,0.1,0.1,0.2,0.1,0.3l-0.3,0v0.3c-1.3-0.8-2.6-1.6-3.9-3.4c-0.7-1-1.1-2.1-1.1-3.3c0-0.8,0.3-2.1,0.6-3
			c0.6-2.3,1.4-4.5,1.4-6c0-1.2-0.4-2.7-1.4-4c-0.3-0.3-0.5-0.6-0.7-0.8l0.4-0.3c1.1,0.5,1.8,0.8,2.9,0.8c1,0,2.1-0.2,3-0.8
			c0.8-0.6,1.7-1.4,2.1-3c0.2-0.8,0.2-1.9-0.4-2.4c-0.3-0.2-0.7-0.4-1.3-0.5c2.2-0.9,4.3-1.5,6.3-1.7c-0.1,0.2-0.2,0.4-0.2,0.6
			c0,0.5,0.4,1,1.2,1c0.8,0,1.2-0.5,1.2-1c0-0.2,0-0.4-0.2-0.6c2,0.2,4.1,0.8,6.3,1.7C66.6,34,66.2,34.1,65.9,34.3z"/>
	</g>
	<path class="st1" d="M46.9,111.4c0.2,0.3,0.3,0.5,0.5,0.7c1.1,1.5,2.2,3,3.3,4.5v-14.8h-3.8V111.4z"/>
	<path class="st1" d="M106.7,101.9v19.3c0,0,0.1-0.1,0.1-0.1c1.3-1.4,2.6-2.9,3.7-4.4v-14.8H106.7z"/>
	<rect x="76.8" y="101.9" class="st1" width="3.8" height="14.1"/>
	<path class="st1" d="M91.8,133.7c0.3-0.2,0.5-0.3,0.8-0.5c1-0.7,2-1.4,3-2.1v-29.2h-3.8V133.7z"/>
	<path class="st1" d="M61.9,128.1C61.9,128.1,61.9,128.1,61.9,128.1c0.9,0.7,1.8,1.4,2.8,2.2c0.4,0.3,0.7,0.5,1.1,0.8v-29.2h-3.8
		V128.1z"/>
	<path class="st1" d="M76.8,137.7c0,0,0.1,0,0.1,0.1c1.2,0.6,2.5,1.1,3.7,1.6v-13.1h-3.8V137.7z"/>
</g>
</svg>
