<?xml version="1.0" encoding="utf-8"?>
<!-- Generator: Adobe Illustrator 19.1.0, SVG Export Plug-In . SVG Version: 6.00 Build 0)  -->
<svg version="1.1" id="Layer_1" xmlns="http://www.w3.org/2000/svg" xmlns:xlink="http://www.w3.org/1999/xlink" x="0px" y="0px"
	 viewBox="0 0 160 160" style="enable-background:new 0 0 160 160;" xml:space="preserve">
<style type="text/css">
	.st0{fill-rule:evenodd;clip-rule:evenodd;}
	.st1{fill-rule:evenodd;clip-rule:evenodd;fill:#EB222A;}
	.st2{fill-rule:evenodd;clip-rule:evenodd;fill:#FFFFFF;}
</style>
<g>
	<polygon class="st0" points="154,35.7 4,35.7 4,122.7 154.8,122.7 154.8,35.7 154,35.7 	"/>
	<polygon class="st1" points="4.8,121.8 154,121.8 154,106.3 4.8,106.3 4.8,121.8 	"/>
	<path class="st1" d="M154,64.7V50H52.8V36.6h-48v56.3H154V78.2H52.8V64.7H154L154,64.7z M28.3,86.7c-12.2,0-22-9.9-22-22
		c0-12.2,9.9-22,22-22c12.2,0,22,9.9,22,22C50.3,76.9,40.4,86.7,28.3,86.7L28.3,86.7z"/>
	<polygon class="st2" points="10.7,104.4 10.7,94.8 16.6,94.8 16.6,96.4 12.3,96.4 12.3,98.6 16.4,98.6 16.4,100.2 12.3,100.2 
		12.3,102.8 16.8,102.8 16.8,104.4 10.7,104.4 	"/>
	<polygon class="st2" points="18.3,104.4 18.3,94.8 19.9,94.8 23.1,101.2 23.1,94.8 24.6,94.8 24.6,104.4 23,104.4 19.8,98.2 
		19.8,104.4 18.3,104.4 	"/>
	<path class="st2" d="M36.5,104.4h-1.7l-0.7-2.2h-3.2l-0.7,2.2h-1.7l3.1-9.6h1.7L36.5,104.4L36.5,104.4z M33.6,100.6l-1.1-3.6
		l-1.1,3.6H33.6L33.6,100.6z"/>
	<polygon class="st2" points="38.8,104.4 35.9,94.8 37.6,94.8 39.7,101.9 41.6,94.8 43.3,94.8 40.5,104.4 38.8,104.4 	"/>
	<path class="st2" d="M50.7,104.4H49l-0.7-2.2h-3.2l-0.7,2.2h-1.7l3.1-9.6h1.7L50.7,104.4L50.7,104.4z M47.8,100.6l-1.1-3.6
		l-1.1,3.6H47.8L47.8,100.6z"/>
	<polygon class="st2" points="51.7,104.4 51.7,94.8 53.3,94.8 56.6,101.2 56.6,94.8 58.1,94.8 58.1,104.4 56.5,104.4 53.2,98.2 
		53.2,104.4 51.7,104.4 	"/>
	<polygon class="st2" points="61.7,104.4 61.7,96.4 59.3,96.4 59.3,94.8 65.7,94.8 65.7,96.4 63.3,96.4 63.3,104.4 61.7,104.4 	"/>
	<path class="st2" d="M70.1,94.8h2.9c0.7,0,1.3,0.1,1.7,0.2c0.4,0.2,0.7,0.4,1,0.8c0.3,0.4,0.6,0.9,0.8,1.5c0.2,0.6,0.3,1.4,0.3,2.3
		c0,0.8-0.1,1.6-0.3,2.2c-0.2,0.6-0.4,1.1-0.7,1.5c-0.3,0.4-0.6,0.6-1.1,0.8c-0.4,0.2-0.9,0.3-1.6,0.3h-3V94.8L70.1,94.8z
		 M71.7,96.4v6.4H73c0.5,0,0.9,0,1.1-0.1c0.2-0.1,0.4-0.2,0.6-0.4c0.1-0.2,0.3-0.5,0.4-0.9c0.1-0.4,0.1-1,0.1-1.7
		c0-0.7-0.1-1.3-0.2-1.7c-0.1-0.4-0.3-0.7-0.5-1c-0.2-0.2-0.5-0.4-0.8-0.5c-0.2-0.1-0.7-0.1-1.3-0.1H71.7L71.7,96.4z"/>
	<polygon class="st2" points="78.4,104.4 78.4,94.8 84.3,94.8 84.3,96.4 80,96.4 80,98.6 84,98.6 84,100.2 80,100.2 80,102.8 
		84.4,102.8 84.4,104.4 78.4,104.4 	"/>
	<path class="st2" d="M92.9,100.9v-1.6h3.5v3.8c-0.3,0.4-0.8,0.8-1.5,1c-0.6,0.3-1.3,0.4-1.9,0.4c-0.8,0-1.5-0.2-2.1-0.6
		c-0.6-0.4-1.1-1-1.4-1.7c-0.4-0.8-0.5-1.7-0.5-2.7c0-1.1,0.2-2,0.5-2.7c0.4-0.8,0.8-1.3,1.4-1.7c0.6-0.4,1.2-0.6,2-0.6
		c1,0,1.7,0.2,2.3,0.7c0.6,0.5,0.9,1.2,1.1,2.1l-1.6,0.4c-0.1-0.5-0.3-0.9-0.7-1.1c-0.3-0.3-0.7-0.4-1.2-0.4c-0.7,0-1.3,0.3-1.7,0.8
		c-0.4,0.5-0.6,1.3-0.6,2.4c0,1.2,0.2,2,0.7,2.6c0.4,0.5,0.9,0.8,1.6,0.8c0.3,0,0.6-0.1,1-0.2c0.3-0.1,0.6-0.3,0.9-0.6v-1.2H92.9
		L92.9,100.9z"/>
	<path class="st2" d="M98,94.8h1.6v5.2c0,0.8,0,1.3,0.1,1.6c0.1,0.4,0.2,0.8,0.5,1c0.3,0.2,0.6,0.3,1.1,0.3c0.4,0,0.7-0.1,0.9-0.2
		c0.2-0.2,0.4-0.4,0.5-0.7c0.1-0.3,0.1-0.9,0.1-1.9v-5.3h1.6v5c0,1.3-0.1,2.2-0.2,2.8c-0.1,0.6-0.5,1-0.9,1.4
		c-0.5,0.4-1.1,0.5-1.9,0.5c-0.8,0-1.5-0.1-2-0.4c-0.5-0.3-0.8-0.7-1-1.2c-0.2-0.5-0.3-1.5-0.3-3V94.8L98,94.8z"/>
	<polygon class="st2" points="106.2,104.4 106.2,94.8 107.8,94.8 107.8,104.4 106.2,104.4 	"/>
	<polygon class="st2" points="109.5,104.4 109.5,94.8 111.1,94.8 114.4,101.2 114.4,94.8 115.9,94.8 115.9,104.4 114.2,104.4 
		111,98.2 111,104.4 109.5,104.4 	"/>
	<path class="st2" d="M121.4,100.9v-1.6h3.5v3.8c-0.4,0.4-0.8,0.8-1.5,1c-0.6,0.3-1.3,0.4-1.9,0.4c-0.8,0-1.5-0.2-2.1-0.6
		c-0.6-0.4-1.1-1-1.4-1.7c-0.4-0.8-0.5-1.7-0.5-2.7c0-1.1,0.2-2,0.5-2.7c0.4-0.8,0.8-1.3,1.4-1.7c0.6-0.4,1.2-0.6,2-0.6
		c1,0,1.7,0.2,2.3,0.7c0.6,0.5,0.9,1.2,1.1,2.1l-1.6,0.4c-0.1-0.5-0.3-0.9-0.7-1.1c-0.3-0.3-0.7-0.4-1.2-0.4c-0.7,0-1.3,0.3-1.7,0.8
		c-0.4,0.5-0.6,1.3-0.6,2.4c0,1.2,0.2,2,0.7,2.6c0.4,0.5,0.9,0.8,1.6,0.8c0.3,0,0.6-0.1,1-0.2c0.3-0.1,0.6-0.3,0.9-0.6v-1.2H121.4
		L121.4,100.9z"/>
	<path class="st2" d="M133.7,104.4H132l-0.7-2.2h-3.2l-0.7,2.2h-1.7l3.1-9.6h1.7L133.7,104.4L133.7,104.4z M130.8,100.6l-1.1-3.6
		l-1.1,3.6H130.8L130.8,100.6z"/>
	<polygon class="st2" points="134.7,104.4 134.7,94.8 137.1,94.8 138.6,101.4 140,94.8 142.4,94.8 142.4,104.4 140.9,104.4 
		140.9,96.8 139.3,104.4 137.8,104.4 136.2,96.8 136.2,104.4 134.7,104.4 	"/>
	<path class="st2" d="M144.2,104.4v-9.6h2.6c1,0,1.6,0,1.9,0.1c0.5,0.1,0.9,0.5,1.2,1c0.3,0.5,0.5,1.1,0.5,1.9
		c0,0.7-0.1,1.3-0.4,1.8c-0.3,0.5-0.6,0.8-1,1c-0.4,0.2-1.1,0.3-2.1,0.3h-1.1v3.6H144.2L144.2,104.4z M145.8,96.4v2.7h0.9
		c0.6,0,1,0,1.2-0.1c0.2-0.1,0.4-0.2,0.5-0.5c0.1-0.2,0.2-0.5,0.2-0.8c0-0.3-0.1-0.6-0.2-0.8c-0.1-0.2-0.3-0.4-0.5-0.4
		c-0.2-0.1-0.7-0.1-1.3-0.1H145.8L145.8,96.4z"/>
	<path class="st0" d="M81.2,42H57.8v46.9H82V78.9c0,0-13.4,0-14.9,0c0-1.3,0-7.9,0-9.2c1.5,0,14.1,0,14.1,0v-9.4c0,0-12.6,0-14.1,0
		c0-1.3,0-7,0-8.2c1.5,0,14.9,0,14.9,0V42H81.2L81.2,42z"/>
	<polygon class="st2" points="58.7,42.8 81.2,42.8 81.2,51.2 66.2,51.2 66.2,61.1 80.3,61.1 80.3,68.8 66.2,68.8 66.2,79.7 
		81.2,79.7 81.2,88.1 58.7,88.1 58.7,42.8 	"/>
	<path class="st0" d="M105.6,42h-9.9L84.3,88.9h9.4c0,0,1.4-7.2,1.7-8.4c1.2,0,10,0,11.1,0c0.3,1.1,2.1,8.4,2.1,8.4h9.1L106.2,42
		H105.6L105.6,42z M101,57.1c1,4,3.2,12.6,3.5,14.1c-1.5,0-5.7,0-7.2,0C97.7,69.7,99.9,61.2,101,57.1L101,57.1z"/>
	<path class="st2" d="M105.6,42.8l11,45.2h-7.4l-2.1-8.4H94.7L93,88.1h-7.7l11-45.2H105.6L105.6,42.8z M101,53.7L96.2,72h9.4
		L101,53.7L101,53.7z"/>
	<path class="st0" d="M129.9,42c-5.1,0-9.1,5.5-9.1,10.2v26.7c0,4.4,4.3,10.1,9.1,10.1h12c4.2,0,8-3.8,8-8V61.3h-15.9v10.1
		c0,0,6.3,0,7.7,0c0,1.2,0,4.5,0,4.5c0,1.9-1,3.1-2.7,3.1h-7.2c-1.7,0-2.4-1.8-2.4-3.1V54.9c0-1.7,1-2.9,2.7-2.9h7
		c2.3,0,2.7,1.6,2.7,2.5v4h8.2v-7.8c0-5.2-3.3-8.8-8-8.8H129.9L129.9,42z"/>
	<path class="st2" d="M129.9,42.8c-4.5,0-8.2,4.9-8.2,9.4c0,0,0,23.6,0,26.7c0,3.9,3.8,9.2,8.2,9.2c2.4,0,9.2,0,12,0
		c3.6,0,7.1-3.2,7.1-7.1c0-2.8,0-18.9,0-18.9h-14.2v8.4h7.7c0,0,0,2.4,0,5.3c0,2.4-1.5,3.9-3.5,3.9c-1.6,0-5.1,0-7.2,0
		c-2.1,0-3.3-2-3.3-3.9c0-1.9,0-16.7,0-20.9c0-2.3,1.5-3.7,3.5-3.7s4.4,0,7,0c2.6,0,3.5,1.7,3.5,3.4c0,2,0,3.2,0,3.2h6.6
		c0,0,0-3.6,0-7c0-4.4-2.6-8-7.1-8C139.1,42.8,129.9,42.8,129.9,42.8L129.9,42.8z"/>
	<path class="st2" d="M24,115.9h0.3v3.4H24c-0.1-0.2-0.2-0.4-0.3-0.5c-0.1-0.1-0.3-0.2-0.5-0.2c-0.2,0-0.5,0.1-1,0.3
		c-0.1,0.1-0.3,0.1-0.3,0.1l0,0c-1,0.4-2,0.6-2.9,0.6c-0.9,0-1.7-0.1-2.6-0.4c-0.8-0.3-1.6-0.7-2.3-1.2c-0.7-0.5-1.2-1-1.5-1.6
		c-0.3-0.6-0.5-1.2-0.5-1.8c0-0.8,0.2-1.5,0.5-2.1c0.4-0.7,0.9-1.3,1.5-1.8c0.7-0.5,1.4-0.9,2.2-1.1c0.8-0.3,1.7-0.4,2.6-0.4
		c0.9,0,1.9,0.2,3,0.6c0.1,0,0.1,0,0.2,0.1c0.1,0,0.2,0.1,0.3,0.1c0.4,0.1,0.6,0.2,0.8,0.2c0.2,0,0.4-0.1,0.5-0.2
		c0.1-0.1,0.2-0.3,0.2-0.4h0.3v3H24c-0.2-0.9-0.7-1.7-1.6-2.3c-0.9-0.6-2-0.9-3.2-0.9c-1.5,0-2.6,0.4-3.4,1.3
		c-0.7,0.8-1.1,2.1-1.1,3.9c0,0.8,0.1,1.4,0.2,2c0.1,0.6,0.4,1,0.7,1.4c0.4,0.4,0.9,0.8,1.5,1c0.6,0.3,1.3,0.4,1.9,0.4
		c0.8,0,1.5-0.1,2.3-0.4c0.7-0.3,1.4-0.7,1.9-1.2c0.2-0.2,0.4-0.5,0.5-0.8C23.9,116.8,23.9,116.4,24,115.9L24,115.9z"/>
	<path class="st2" d="M27.1,116.5c0-0.4,0.1-0.8,0.4-1.2c0.2-0.4,0.6-0.7,1.1-1.1c0.4-0.3,0.9-0.5,1.5-0.7c0.5-0.2,1.1-0.2,1.7-0.2
		c1.2,0,2.3,0.3,3.2,0.9c0.9,0.6,1.4,1.4,1.4,2.2c0,0.4-0.1,0.8-0.4,1.2c-0.2,0.4-0.6,0.7-1.1,1.1c-0.4,0.3-0.9,0.5-1.4,0.7
		c-0.5,0.2-1.1,0.2-1.7,0.2c-0.6,0-1.2-0.1-1.7-0.2c-0.5-0.2-1-0.4-1.5-0.7c-0.5-0.3-0.8-0.7-1.1-1
		C27.2,117.3,27.1,116.9,27.1,116.5L27.1,116.5z M28.6,112.5l2.7-2.6h1.4l2.7,2.6h-0.7l-2.7-1.5l-2.7,1.5H28.6L28.6,112.5z
		 M29.2,117.4c0,0.7,0.2,1.2,0.6,1.6c0.4,0.3,1,0.5,1.9,0.5c0.8,0,1.5-0.2,1.9-0.5c0.4-0.3,0.6-0.9,0.6-1.6v-1.8
		c0-0.7-0.2-1.2-0.6-1.6c-0.4-0.3-1-0.5-1.9-0.5c-0.8,0-1.5,0.2-1.9,0.5c-0.4,0.3-0.6,0.9-0.6,1.6V117.4L29.2,117.4z"/>
	<path class="st2" d="M41.2,118.5c0,0.3,0.1,0.6,0.2,0.7c0.2,0.1,0.4,0.2,0.8,0.2c0.4,0,0.7-0.1,1-0.2c0.3-0.1,0.5-0.4,0.7-0.6h0.3
		c-0.2,0.4-0.5,0.7-0.9,0.9c-0.4,0.2-0.9,0.3-1.5,0.3c-0.4,0-0.7,0-1.1-0.1c-0.3-0.1-0.6-0.2-0.9-0.3c-0.2-0.1-0.3-0.2-0.4-0.4
		c-0.1-0.1-0.1-0.4-0.1-0.6v-0.3v-4.2h-1.6v-0.2c0.9,0,1.6-0.2,2.1-0.5c0.5-0.3,0.8-0.8,1-1.5h0.3v2h2.6v0.2h-2.6V118.5L41.2,118.5z
		"/>
	<path class="st2" d="M48.1,115.9v1.7c0,0.6,0.2,1.1,0.6,1.4c0.4,0.3,1,0.4,1.8,0.4c0.8,0,1.5-0.2,2.1-0.5c0.6-0.3,1-0.8,1.3-1.4
		h0.4c-0.3,0.7-0.8,1.2-1.4,1.6c-0.7,0.4-1.5,0.6-2.4,0.6c-1.2,0-2.2-0.3-3.1-0.9c-0.9-0.6-1.3-1.4-1.3-2.2c0-0.9,0.4-1.7,1.2-2.3
		c0.8-0.6,1.7-0.9,2.9-0.9c1.1,0,2,0.2,2.8,0.7c0.8,0.5,1.2,1.1,1.3,1.9H48.1L48.1,115.9z M48.1,115.7h3.6V115
		c0-0.5-0.1-0.9-0.4-1.1c-0.3-0.2-0.8-0.4-1.4-0.4c-0.6,0-1,0.1-1.3,0.4c-0.3,0.3-0.4,0.7-0.4,1.3V115.7L48.1,115.7z"/>
	<path class="st2" d="M56.4,119.6v-2.1h0.2c0.3,0.7,0.7,1.2,1.1,1.5c0.5,0.3,1.1,0.5,1.8,0.5c0.7,0,1.2-0.1,1.6-0.4
		c0.4-0.2,0.6-0.6,0.6-1c0-0.4-0.2-0.6-0.6-0.8c-0.4-0.2-1-0.3-1.7-0.3c-0.9,0-1.7-0.2-2.2-0.5c-0.5-0.3-0.8-0.7-0.8-1.3
		c0-0.5,0.3-1,0.8-1.3c0.5-0.4,1.1-0.5,1.9-0.5c0.7,0,1.3,0.1,2,0.3c0.1,0,0.2,0.1,0.3,0.1c0.1,0,0.2,0,0.2-0.1c0,0,0.1-0.1,0.1-0.2
		c0,0,0-0.1,0-0.1c0,0,0,0,0-0.1l0.4,0v1.8h-0.3c-0.2-0.5-0.5-0.9-0.9-1.2c-0.4-0.3-1-0.4-1.7-0.4c-0.6,0-1,0.1-1.4,0.3
		c-0.4,0.2-0.5,0.5-0.5,0.8c0,0.1,0,0.3,0.1,0.4c0.1,0.1,0.2,0.2,0.3,0.3c0.3,0.2,0.9,0.3,1.8,0.3c0.4,0,0.7,0,0.9,0.1
		c0.8,0.1,1.4,0.3,1.8,0.6c0.4,0.3,0.7,0.7,0.7,1.2c0,0.6-0.3,1.2-0.8,1.6c-0.5,0.4-1.3,0.6-2.2,0.6c-0.8,0-1.6-0.2-2.3-0.5
		c-0.2-0.1-0.3-0.1-0.3-0.1c-0.2,0-0.3,0-0.3,0.1c-0.1,0.1-0.1,0.2-0.1,0.3H56.4L56.4,119.6z"/>
	<path class="st2" d="M78.9,118.5c-0.4,0.4-0.9,0.7-1.3,0.9c-0.5,0.2-1,0.3-1.6,0.3c-1.3,0-2.4-0.3-3.2-0.9
		c-0.8-0.6-1.3-1.4-1.3-2.3c0-0.9,0.4-1.6,1.3-2.2c0.9-0.6,1.9-0.9,3-0.9c0.7,0,1.3,0.1,1.8,0.4c0.5,0.2,1,0.6,1.3,1v-5h-1.3v-0.2
		h1.1c0.4,0,0.8,0,1.1-0.1c0.4-0.1,0.7-0.2,1-0.3v10.1h1.4v0.2h-3.3V118.5L78.9,118.5z M73.6,117.4c0,0.7,0.2,1.3,0.5,1.6
		c0.3,0.3,0.9,0.5,1.7,0.5c0.7,0,1.3-0.1,1.8-0.4c0.5-0.3,0.9-0.6,1.2-1.1v-2.7c-0.3-0.5-0.7-0.9-1.2-1.2c-0.5-0.3-1.1-0.4-1.8-0.4
		c-0.8,0-1.3,0.2-1.7,0.5c-0.4,0.3-0.6,0.8-0.6,1.5V117.4L73.6,117.4z"/>
	<path class="st2" d="M85.5,113.2h-0.4l-0.8-3.4c0,0,0-0.1,0-0.1c0,0,0-0.1,0-0.2c0-0.2,0.1-0.4,0.2-0.6c0.2-0.1,0.4-0.2,0.7-0.2
		c0.3,0,0.6,0.1,0.7,0.2c0.2,0.1,0.3,0.3,0.3,0.5c0,0,0,0.1,0,0.3c0,0,0,0,0,0.1L85.5,113.2L85.5,113.2z"/>
	<path class="st2" d="M86.6,119.5v-0.2h0.3c0.8,0,1.4-0.3,1.7-0.9l0,0l4.5-8.9h0.3l5.5,9.9h1.5v0.2h-6v-0.2h2l-1.7-3H90l-1.2,2.4
		c0,0,0,0.1-0.1,0.2c0,0.1,0,0.1,0,0.1c0,0.1,0.1,0.2,0.3,0.3c0.2,0,0.7,0.1,1.6,0.1v0.2H86.6L86.6,119.5z M90.1,116.1h4.6l-2.4-4.3
		L90.1,116.1L90.1,116.1z"/>
	<path class="st2" d="M100.2,119.5v-0.2h1.3v-5.6h-1.3v-0.2h1.1c0.5,0,0.9,0,1.3,0c0.4,0,0.7-0.1,0.9-0.1v1.6
		c0.3-0.5,0.7-0.9,1.1-1.2c0.4-0.3,0.9-0.4,1.5-0.4c0.4,0,0.8,0.1,1.1,0.2c0.3,0.1,0.4,0.3,0.4,0.6c0,0.2-0.1,0.4-0.3,0.5
		c-0.2,0.1-0.4,0.2-0.7,0.2c-0.3,0-0.5-0.1-0.7-0.2c-0.2-0.1-0.3-0.3-0.3-0.4c0-0.1,0-0.2,0.1-0.3c0.1-0.1,0.2-0.2,0.3-0.3
		c-0.1,0-0.1,0-0.2,0c0,0-0.1,0-0.1,0c-0.5,0-0.9,0.2-1.3,0.6c-0.4,0.4-0.7,0.9-1,1.6v3.5h1.3v0.2H100.2L100.2,119.5z"/>
	<path class="st2" d="M110.7,113.7h-1.3v-0.2h1.1c0.5,0,0.9,0,1.3,0c0.4,0,0.7-0.1,0.9-0.1v1.3c0.4-0.5,0.9-0.8,1.5-1
		c0.5-0.2,1.2-0.3,1.8-0.3c0.8,0,1.4,0.1,2,0.4c0.5,0.3,0.8,0.6,1,1c0.5-0.5,1-0.8,1.5-1.1c0.6-0.2,1.2-0.3,1.9-0.3
		c0.9,0,1.7,0.2,2.2,0.5c0.5,0.3,0.8,0.8,0.8,1.4v4.1h1.4v0.2H122v-0.2h1.3v-4.5c0-0.4-0.1-0.7-0.3-0.9c-0.2-0.2-0.5-0.2-1-0.2
		c-0.6,0-1.1,0.1-1.6,0.4c-0.5,0.2-1,0.6-1.4,1.1v4.2h1.4v0.2h-4.6v-0.2h1.3v-4.5c0-0.4-0.1-0.7-0.3-0.9c-0.2-0.2-0.5-0.2-1-0.2
		c-0.6,0-1.2,0.1-1.7,0.4c-0.5,0.2-1,0.6-1.4,1.1v4.2h1.3v0.2h-4.6v-0.2h1.3V113.7L110.7,113.7z"/>
	<path class="st2" d="M128.3,116.5c0-0.4,0.1-0.8,0.4-1.2c0.2-0.4,0.6-0.7,1.1-1.1c0.4-0.3,0.9-0.5,1.5-0.7c0.5-0.2,1.1-0.2,1.7-0.2
		c1.2,0,2.3,0.3,3.2,0.9c0.9,0.6,1.4,1.4,1.4,2.2c0,0.4-0.1,0.8-0.4,1.2c-0.2,0.4-0.6,0.7-1.1,1.1c-0.4,0.3-0.9,0.5-1.4,0.7
		c-0.5,0.2-1.1,0.2-1.7,0.2c-0.6,0-1.2-0.1-1.7-0.2c-0.5-0.2-1-0.4-1.5-0.7c-0.5-0.3-0.8-0.7-1.1-1
		C128.4,117.3,128.3,116.9,128.3,116.5L128.3,116.5z M130.4,117.4c0,0.7,0.2,1.2,0.6,1.6c0.4,0.3,1,0.5,1.9,0.5
		c0.8,0,1.5-0.2,1.9-0.5c0.4-0.3,0.6-0.9,0.6-1.6v-1.8c0-0.7-0.2-1.2-0.6-1.6c-0.4-0.3-1-0.5-1.9-0.5c-0.8,0-1.5,0.2-1.9,0.5
		c-0.4,0.3-0.6,0.9-0.6,1.6V117.4L130.4,117.4z"/>
	<path class="st2" d="M139.2,119.5v-0.2h1.3v-5.6h-1.3v-0.2h1.1c0.5,0,0.9,0,1.3,0c0.4,0,0.7-0.1,0.9-0.1v1.6
		c0.3-0.5,0.7-0.9,1.1-1.2c0.4-0.3,0.9-0.4,1.5-0.4c0.4,0,0.8,0.1,1.1,0.2c0.3,0.1,0.4,0.3,0.4,0.6c0,0.2-0.1,0.4-0.3,0.5
		c-0.2,0.1-0.4,0.2-0.7,0.2c-0.3,0-0.5-0.1-0.7-0.2c-0.2-0.1-0.3-0.3-0.3-0.4c0-0.1,0-0.2,0.1-0.3c0.1-0.1,0.2-0.2,0.3-0.3
		c-0.1,0-0.1,0-0.2,0c0,0-0.1,0-0.1,0c-0.5,0-0.9,0.2-1.3,0.6c-0.4,0.4-0.7,0.9-1,1.6v3.5h1.3v0.2H139.2L139.2,119.5z"/>
	<path class="st2" d="M41.2,56.5c-3.7,0-6.1,2.4-6.1,6.1c0,3.2,2.5,5.6,5.6,5.6c3.6,0,3.8-2.5,3.8-3.2c0-0.8-0.3-1.6-0.9-2.1
		c-1.2-1.1-3.5-0.9-3.5-0.9c-0.8,0-0.8,1.7,0.2,1.7c0,0,1.6,0,2.2,0.5c0.1,0.1,0.3,0.4,0.3,0.8c0,0.4,0,1.5-2.2,1.5
		c-2.2,0-3.9-1.7-3.9-3.9c0-2.8,1.6-4.4,4.4-4.4c3.2,0,5.8,3.3,5.8,7.2c0,3.7-2.3,5.8-5.8,5.8c-4.7,0-9-6.4-9-6.4
		c-1.9-3.3-1.9-5.7-1.8-8.1c0-2.2,0.1-4.5-1.5-7.3c-2.3-4-6.3-5-10.3-2.7c-4.1,2.4-5.9,7.4-3.9,10.9c1.9,3.2,5.1,4.1,8.4,2.2
		c2.7-1.6,3.6-5,2-7.7c-1.8-3.1-4.1-2.1-4.7-1.7c-0.7,0.4-1.2,1.1-1.4,1.8c-0.3,1.6,1,3.5,1,3.5c0.4,0.7,1.8-0.1,1.4-1
		c0,0-0.8-1.4-0.7-2.1c0-0.2,0.1-0.5,0.6-0.7c0.3-0.2,1.3-0.8,2.4,1.1c1.1,1.9,0.5,4.3-1.4,5.4c-2.4,1.4-4.6,0.8-6.1-1.6
		c-1.6-2.7-0.1-6.7,3.3-8.6c3.2-1.9,6.1-1.1,8,2.1c0.4,0.7,0.7,1.4,0.9,1.9c1.5,4.8-1.8,9.1-1.8,9.1c-2,3.3-4.1,4.4-6.2,5.5
		c-2,1-4,2.1-5.7,4.9c-2.4,4-1.4,7.9,2.5,10.3c4.1,2.5,9.3,1.6,11.4-1.8c1.9-3.2,1.1-6.5-2.1-8.4c-2.7-1.6-6.1-0.8-7.7,1.9
		c-1.8,3,0.1,4.6,0.8,4.9c0.7,0.4,1.5,0.6,2.2,0.3c1.6-0.5,2.6-2.5,2.6-2.5c0.4-0.7-1-1.5-1.5-0.7c0,0-0.8,1.4-1.5,1.6
		c-0.2,0.1-0.5,0.1-0.9-0.2c-0.3-0.2-1.3-0.8-0.2-2.6c1.2-1.9,3.5-2.5,5.4-1.3c2.4,1.5,3,3.7,1.5,6.1c-1.6,2.7-5.8,3.3-9.1,1.3
		c-3.2-1.9-3.9-4.8-2-8c3-4.1,10.2-4.4,10.2-4.4c3.8,0,5.9,1.3,7.9,2.5c1.9,1.2,3.9,2.4,7.1,2.4c4.6,0,7.5-2.9,7.5-7.5
		C48.7,60.6,45.3,56.5,41.2,56.5L41.2,56.5z M25.1,66.2c1.7-1.1,3.5-3,3.6-5.1c0.2,2,0.9,4.4,2.7,5.7C29.1,65.6,26.4,65.8,25.1,66.2
		L25.1,66.2z"/>
</g>
</svg>
