<?xml version="1.0" encoding="utf-8"?>
<!-- Generator: Adobe Illustrator 19.1.0, SVG Export Plug-In . SVG Version: 6.00 Build 0)  -->
<svg version="1.1" id="Layer_1" xmlns="http://www.w3.org/2000/svg" xmlns:xlink="http://www.w3.org/1999/xlink" x="0px" y="0px"
	 viewBox="0 0 100 100" style="enable-background:new 0 0 100 100;" xml:space="preserve">
<style type="text/css">
	.st0{fill:url(#path8_1_);}
	.st1{fill:url(#path15_1_);}
	.st2{fill:url(#path22_1_);}
	.st3{fill:url(#path29_1_);}
	.st4{fill:url(#path36_1_);}
	.st5{fill:url(#path43_1_);}
	.st6{fill:url(#path50_1_);}
	.st7{fill:url(#path57_1_);}
	.st8{fill:url(#path64_1_);}
	.st9{fill:url(#path71_1_);}
	.st10{fill:#4E5D65;}
</style>
<g>
	
		<radialGradient id="path8_1_" cx="53.7055" cy="68.9425" r="39.2275" gradientTransform="matrix(0.9097 0 0 -0.9097 7.9766 86.4448)" gradientUnits="userSpaceOnUse">
		<stop  offset="0" style="stop-color:#B6C6CE"/>
		<stop  offset="0.95" style="stop-color:#4E5D65"/>
	</radialGradient>
	<path id="path8" class="st0" d="M29.2,40.6c1.2-0.1,1.9-2.2,1.7-4.5c-0.3-2.3-1.5-4.1-2.7-4c-1.2,0.1-1.9,2.2-1.7,4.5
		C26.8,38.9,28,40.7,29.2,40.6z"/>
	
		<radialGradient id="path15_1_" cx="53.7042" cy="68.9422" r="39.2256" gradientTransform="matrix(0.9097 0 0 -0.9097 7.9766 86.4448)" gradientUnits="userSpaceOnUse">
		<stop  offset="0" style="stop-color:#B6C6CE"/>
		<stop  offset="0.95" style="stop-color:#4E5D65"/>
	</radialGradient>
	<path id="path15" class="st1" d="M42,16.7c5.3-1.8,9.5-3.8,9.3-4.3c-0.1-0.3-2.1-0.7-4.6-0.5c0.5,0.1,1.1,0.2,1.4,0.5l-5.6,2.5
		l-6.7,1.8c0,0-0.4,0-0.8-0.5C33.1,17.5,32,18.7,32,19C32.1,19.6,36.7,18.5,42,16.7z"/>
	
		<radialGradient id="path22_1_" cx="53.7041" cy="68.9412" r="39.2271" gradientTransform="matrix(0.9097 0 0 -0.9097 7.9766 86.4448)" gradientUnits="userSpaceOnUse">
		<stop  offset="0" style="stop-color:#B6C6CE"/>
		<stop  offset="0.95" style="stop-color:#4E5D65"/>
	</radialGradient>
	<path id="path22" class="st2" d="M40.7,13.1c-1.6,0.5-2.9,1.2-4.1,1.9c1.6-0.3,4.8-1,7.7-2.9C43.4,12.3,41.9,12.7,40.7,13.1z"/>
	
		<radialGradient id="path29_1_" cx="53.7049" cy="68.9424" r="39.2269" gradientTransform="matrix(0.9097 0 0 -0.9097 7.9766 86.4448)" gradientUnits="userSpaceOnUse">
		<stop  offset="0" style="stop-color:#B6C6CE"/>
		<stop  offset="0.95" style="stop-color:#4E5D65"/>
	</radialGradient>
	<path id="path29" class="st3" d="M30.3,24.4c-1.6,0.2-2.8,2.1-3.5,4.6c1.6-0.9,3.7-1.4,3.7-1.4s2.1,2.3,4,7.3c0,0,0,5.5-0.9,8.5
		c0,0-2.6,0.8-4.7,0.3c1.3,2.9,3.1,3.6,4.9,3.4c3-0.3,4.3-6.4,3.8-12C36.9,29.1,33.3,24,30.3,24.4z"/>
	
		<radialGradient id="path36_1_" cx="53.7044" cy="68.942" r="39.2258" gradientTransform="matrix(0.9097 0 0 -0.9097 7.9766 86.4448)" gradientUnits="userSpaceOnUse">
		<stop  offset="0" style="stop-color:#B6C6CE"/>
		<stop  offset="0.95" style="stop-color:#4E5D65"/>
	</radialGradient>
	<path id="path36" class="st4" d="M61.4,18.3c2.9,2.6,5.3,4.7,5.3,4.6c0-0.1-1.5-3-4.5-5.6c-1.9-1.6-3.5-2.5-4.2-2.9
		c-1.1-0.6-1.8-0.9-1.9-0.8C56.1,13.7,58.5,15.7,61.4,18.3z"/>
	
		<radialGradient id="path43_1_" cx="53.7042" cy="68.9422" r="39.2257" gradientTransform="matrix(0.9097 0 0 -0.9097 7.9766 86.4448)" gradientUnits="userSpaceOnUse">
		<stop  offset="0" style="stop-color:#B6C6CE"/>
		<stop  offset="0.95" style="stop-color:#4E5D65"/>
	</radialGradient>
	<path id="path43" class="st5" d="M50.9,17.5c-6.3,0.7-10.8,6.7-10,13.4c0.7,5.7,5,10.1,10.2,10.7c0,0-0.1-1.2-0.2-2.3
		c-0.1-1.1-0.3-2.3-0.3-2.3l-1.4,0.1c0,0-1.6-1.5-2.8-3.2c-1.1-1.6-2-3.5-2-3.5s0.6-2.1,1.4-3.9c0.8-1.9,1.7-3.7,1.7-3.7
		s1.8-0.4,3.7-0.7c2-0.2,4.1-0.3,4.1-0.3s1.4,1.4,2.6,3.1c1.2,1.7,2.2,3.7,2.2,3.7s-0.3,1.9-1,3.8c-0.8,1.9-2.1,3.9-2.1,3.9
		l-1.2,0.2c0,0,0.2,1.1,0.2,2.2c0.1,1.2,0.2,2.3,0.2,2.3c4.9-1.8,8.1-7,7.5-12.8C62.9,21.6,57.2,16.8,50.9,17.5z"/>
	
		<radialGradient id="path50_1_" cx="53.7043" cy="68.9422" r="39.2256" gradientTransform="matrix(0.9097 0 0 -0.9097 7.9766 86.4448)" gradientUnits="userSpaceOnUse">
		<stop  offset="0" style="stop-color:#B6C6CE"/>
		<stop  offset="0.95" style="stop-color:#4E5D65"/>
	</radialGradient>
	<path id="path50" class="st6" d="M68.5,27.3c-0.5-0.2-1.5,3.9-2.2,8.8c-0.7,4.9-0.8,9-0.3,9.1c0.8,0,2.8-4.4,3.4-8.5
		C70.1,31.7,68.8,27.4,68.5,27.3z"/>
	
		<radialGradient id="path57_1_" cx="53.7043" cy="68.9418" r="39.2255" gradientTransform="matrix(0.9097 0 0 -0.9097 7.9766 86.4448)" gradientUnits="userSpaceOnUse">
		<stop  offset="0" style="stop-color:#B6C6CE"/>
		<stop  offset="0.95" style="stop-color:#4E5D65"/>
	</radialGradient>
	<path id="path57" class="st7" d="M50.2,45.2c-6,0.9-10.8,3.6-10,6.6c0.3,1.4,1.6,2.3,4.1,2.8c-0.9-1.5-1.1-3.2-1.1-3.2
		s2.3-1.8,7.4-3.7c0,0,4.8,0.5,7.9,1.3c0,0,0.3,1.3-0.1,3.4c2.1-1.4,2.8-2.6,2.4-4.2C60.3,46.1,55.7,44.4,50.2,45.2z"/>
	
		<radialGradient id="path64_1_" cx="53.7042" cy="68.9413" r="39.2248" gradientTransform="matrix(0.9097 0 0 -0.9097 7.9766 86.4448)" gradientUnits="userSpaceOnUse">
		<stop  offset="0" style="stop-color:#B6C6CE"/>
		<stop  offset="0.95" style="stop-color:#4E5D65"/>
	</radialGradient>
	<path id="path64" class="st8" d="M51,50.8c-2.3,0.4-4.1,1.5-3.9,2.6c0.2,1.1,2.2,1.6,4.5,1.2c2.3-0.4,4.1-1.5,3.9-2.6
		C55.4,51,53.4,50.4,51,50.8z"/>
	
		<radialGradient id="path71_1_" cx="53.7043" cy="68.9422" r="39.2267" gradientTransform="matrix(0.9097 0 0 -0.9097 7.9766 86.4448)" gradientUnits="userSpaceOnUse">
		<stop  offset="0" style="stop-color:#B6C6CE"/>
		<stop  offset="0.95" style="stop-color:#4E5D65"/>
	</radialGradient>
	<path id="path71" class="st9" d="M56.5,29.1c-0.2-2.2-2.2-3.8-4.4-3.5c-2.2,0.2-3.7,2.2-3.4,4.4c0.2,2.2,2.2,3.8,4.4,3.5
		C55.2,33.2,56.8,31.3,56.5,29.1z"/>
	<polyline id="polyline73" class="st10" points="22.9,70.1 22.9,62.3 24.9,62.3 24.9,68.3 27.4,68.3 27.4,70.1 	"/>
	<rect id="rect75" x="30.7" y="62.3" class="st10" width="2" height="7.7"/>
	<path id="path77" class="st10" d="M40,62.1c1.6,0,2.7,0.6,3.5,1.9l-1.6,0.9c0,0-0.5-1.1-1.9-1.1c-1.3,0-1.9,1.1-1.9,2.5
		c0,1.3,0.6,2.4,2.1,2.4c0.9,0,1.6-0.6,1.7-1.4h-1.8v-1.6H44v0.4c0,2.3-1.1,4.2-4,4.2c-2.5,0-4-1.9-4-4.1C36,63.8,37.8,62.1,40,62.1
		"/>
	<path id="path79" class="st10" d="M49.3,62.3c0,0,0,3.2,0,4.7c0,1,0.6,1.4,1.4,1.4c0.7,0,1.4-0.4,1.4-1.3c0-1.6,0-3.3,0-4.8h2
		c0,0,0,3.2,0,4.9c0,1.8-1.2,3-3.5,3c-1.7,0-3.4-0.9-3.4-2.8c0-1.8,0-5.2,0-5.2"/>
	<polyline id="polyline81" class="st10" points="57.8,62.3 62.3,62.3 62.3,64.1 59.8,64.1 59.8,65.3 62.2,65.3 62.2,67.1 59.8,67.1 
		59.8,68.4 62.4,68.4 62.4,70.1 57.8,70.1 	"/>
	<polyline id="polyline83" class="st10" points="70.1,62.3 73.2,62.3 73.2,70.1 71.2,70.1 71.2,64 70.1,64 	"/>
	<path id="path85" class="st10" d="M50,87c0-0.5,0.4-0.8,0.8-0.8c0.5,0,0.8,0.4,0.8,0.8c0,0.5-0.4,0.8-0.8,0.8
		C50.4,87.9,50,87.5,50,87"/>
	<path id="path87" class="st10" d="M49.6,86.3c-0.2-1.3-1.2-2.5-1.2-2.5s0.4-0.6,0.6-1.3c0.3-0.6,0.4-1.3,0.3-1.7
		c0-0.1-0.1-0.1-0.1-0.1c-0.2-0.1-0.2,0.6-1,1.4c0.1-0.1,0.1-0.2,0.1-0.4c0-0.4-0.3-0.8-0.8-0.8c-0.4,0-0.8,0.3-0.8,0.8
		c0,0.4,0.3,0.8,0.8,0.8c0.1,0,0.3,0,0.4-0.1c-0.4,0.4-0.6,0.5-0.6,0.5c-1.4-1.3-2.7-2.2-2.9-2c-0.2,0.1,0.1,0.2,0.3,0.5
		c0.5,0.6,1.4,1.8,1.4,2.7c0,1.5-0.9,2.7-1,2.8c0,0.1,0,0.1,0.1,0.2c0.2,0,0.3-0.1,0.5-0.3c0.2-0.1,0.3-0.3,0.5-0.5
		c0.6-0.6,1.1-1.3,1.1-1.3s0-0.1,0.6,0.7c0.3,0.3,0.4,0.7,0.6,0.9c0.6,1,0.4,1.5,0.6,1.5c0,0,0.1,0,0.1-0.1
		C49.6,87.7,49.7,87,49.6,86.3"/>
	<path id="path89" class="st10" d="M62.6,84c0,0-1.4,0-2.5-0.2c-1.1-0.2-3.6-0.6-5.7-1.9c0,0-1.1-0.7-1.9-1.6c-1.1-1.2-2.7-2-4.4-2
		c-1.8,0-3.4,0.8-4.4,2c-0.8,0.9-1.9,1.6-1.9,1.6c-2.1,1.3-4.5,1.7-5.7,1.9C34.9,84,33.5,84,33.5,84H23v0.2v0.2h10.6
		c0,0,1.4,0,2.5,0.2c1.1,0.2,3.6,0.6,5.7,1.9c0,0,1.1,0.7,1.9,1.6c1.1,1.2,2.7,2,4.4,2c1.8,0,3.4-0.8,4.4-2c0.8-0.9,1.9-1.6,1.9-1.6
		c2.1-1.3,4.5-1.7,5.7-1.9c1.1-0.2,2.5-0.2,2.5-0.2h10.6v-0.2V84H62.6z M48.1,89.6c-3,0-5.4-2.4-5.4-5.4c0-3,2.4-5.4,5.4-5.4
		s5.4,2.4,5.4,5.4C53.4,87.2,51,89.6,48.1,89.6z"/>
</g>
</svg>
