<?xml version="1.0" encoding="utf-8"?>
<!-- Generator: Adobe Illustrator 19.1.0, SVG Export Plug-In . SVG Version: 6.00 Build 0)  -->
<svg version="1.1" id="Layer_1" xmlns="http://www.w3.org/2000/svg" xmlns:xlink="http://www.w3.org/1999/xlink" x="0px" y="0px"
	 viewBox="0 0 160 160" style="enable-background:new 0 0 160 160;" xml:space="preserve">
<style type="text/css">
	.st0{clip-path:url(#SVGID_2_);}
	.st1{clip-path:url(#SVGID_4_);fill:url(#SVGID_5_);}
	.st2{clip-path:url(#SVGID_7_);fill:url(#SVGID_8_);}
	.st3{clip-path:url(#SVGID_10_);fill:url(#SVGID_11_);}
	.st4{opacity:0.4332;clip-path:url(#SVGID_13_);}
	.st5{clip-path:url(#SVGID_15_);}
	.st6{clip-path:url(#SVGID_13_);fill:#FFFFFF;}
	.st7{clip-path:url(#SVGID_13_);fill:#CC2029;}
	.st8{clip-path:url(#SVGID_13_);fill:#292F6E;}
	.st9{opacity:0.4314;clip-path:url(#SVGID_13_);}
	.st10{clip-path:url(#SVGID_17_);}
	.st11{clip-path:url(#SVGID_19_);}
	.st12{clip-path:url(#SVGID_21_);}
	.st13{clip-path:url(#SVGID_23_);}
	.st14{clip-path:url(#SVGID_25_);}
</style>
<g>
	<g>
		<defs>
			<rect id="SVGID_1_" x="32.3" y="2.6" width="89.6" height="155.3"/>
		</defs>
		<clipPath id="SVGID_2_">
			<use xlink:href="#SVGID_1_"  style="overflow:visible;"/>
		</clipPath>
		<g class="st0">
			<defs>
				<path id="SVGID_3_" d="M39.1,18.6v2.9h0.6c1.4,0,1.4,0.4,1.4,1.2v10c0,0.6,0,1.1-1.3,1.1h-0.8v2.9h16.4v-6h-4.3v1.4
					c0,0.5,0,1-1.3,1h-2.9V22.7c0-0.7,0-1.1,1.3-1.1h1v-2.9H39.1z M63,27.8c0-2.6,0.7-6.2,4.5-6.2c4.5,0,4.3,4.5,4.3,5.9
					c0,4.2-1.2,6.3-4.4,6.3C63.8,33.8,63,30.9,63,27.8 M57,27.7c0,5.8,3.7,9.6,10.3,9.6c7.4,0,10.4-4.9,10.4-10.1
					c0-5.3-3.3-9.2-10.1-9.2C60.5,18,57,22.3,57,27.7 M81.9,19.3c-1.4,0.9-2.3,2.3-2.3,3.9c0,2.3,1.8,4,6.1,5.9
					c0.3,0.1,1.6,0.7,1.9,0.9c1.5,0.6,2.3,1.3,2.3,2.4c0,0.9-0.9,1.9-2.7,1.9c-2.6,0-2.6-1.8-2.6-2.6v-0.9h-5v5.6
					c1.1,0.3,3.7,1.1,7.8,1.1c3.6,0,5.3-0.7,6.4-1.6c1.2-0.9,2.2-2.2,2.2-4.1c0-3.1-2.6-4.3-5.5-5.6L88.2,25
					c-2.1-0.9-2.9-1.5-2.9-2.5c0-0.2,0.3-1.7,2.5-1.7c2.3,0,2.3,1.4,2.3,2.2v1h4.8v-5c-1.1-0.4-3.4-1.1-7.2-1.1
					C84.4,18,82.9,18.6,81.9,19.3 M97.8,27.7c0,3.7,1.9,9.6,10,9.6c3.6,0,5.6-0.9,7.4-1.9v-4c-1.8,1.1-4,1.8-6.1,1.8
					c-4.4,0-5.3-3.1-5.3-6c0-1.7,0.2-6,4.3-6c2.6,0,2.7,1.7,2.7,2.7v1.4h4.7v-5.9c-1-0.4-3.4-1.4-7-1.4C101,18,97.8,22.6,97.8,27.7"
					/>
			</defs>
			<clipPath id="SVGID_4_">
				<use xlink:href="#SVGID_3_"  style="overflow:visible;"/>
			</clipPath>
			
				<linearGradient id="SVGID_5_" gradientUnits="userSpaceOnUse" x1="-2.3873" y1="230.2328" x2="-1.8698" y2="230.2328" gradientTransform="matrix(0 20.2313 -20.2313 0 4735.1118 72.2747)">
				<stop  offset="0" style="stop-color:#CA2028"/>
				<stop  offset="1" style="stop-color:#8C181B"/>
			</linearGradient>
			<rect x="39.1" y="18" class="st1" width="76.2" height="19.3"/>
		</g>
		<g class="st0">
			<defs>
				<path id="SVGID_6_" d="M54,7.1c0.1,0.4,0.2,0.6,0.3,1c0.1,0,0.2,0,0.3,0c0.8-0.1,0.8,0.1,0.9,0.4c0.1,0.4,1.2,4.5,1.3,4.9
					c0.1,0.3,0.1,0.5-0.5,0.5c-0.1,0-0.2,0-0.4,0c0.1,0.4,0.2,0.6,0.3,1h8l-0.4-2.7L62,12.4c0.1,0.3,0.1,0.4,0.1,0.7
					c0.1,0.4,0.1,0.5-0.6,0.6c-0.5,0-1.8,0-2.3,0c-0.1-0.4-1.1-5-1.2-5.5c-0.1-0.4-0.1-0.6,0.6-0.7c0.2,0,0.3,0,0.5-0.1
					C59.1,7,59,6.8,58.9,6.4C57.5,6.6,55.3,6.9,54,7.1 M91.6,7.1c0.2,0,0.3,0,0.4,0c0.7,0.1,0.6,0.3,0.6,0.6
					c-0.1,0.4-0.9,5.1-0.9,5.5c-0.1,0.4-0.1,0.6-0.7,0.6c-0.2,0-0.2,0-0.4,0c-0.1,0.5-0.1,0.7-0.2,1.2H99l0.6-2.2l-1.8-0.1
					c0,0.2-0.1,0.3-0.1,0.5c-0.1,0.4-0.2,0.5-0.9,0.5c-0.5,0-2.5-0.1-3-0.1l0.5-2.4c0.4,0,2.3,0.1,2.7,0.1l0.3-1.3
					C97,10,95,9.9,94.7,9.9c0.1-0.4,0.4-1.7,0.5-2.2c0.6,0.1,2.4,0.2,2.9,0.2C98.6,8,98.9,8,98.8,8.5c0,0.2-0.1,0.2-0.1,0.4l1.8,0.2
					l0.6-2.2c-3-0.4-6-0.7-9.3-1C91.7,6.4,91.7,6.6,91.6,7.1 M64.3,5.8c0.1,0.5,0.1,0.7,0.2,1.2c0.1,0,0.2,0,0.4,0
					c0.7-0.1,0.8,0.1,0.8,0.6c0.1,0.5,0.7,5.2,0.7,5.7c0.1,0.5,0.1,0.6-0.6,0.6c-0.1,0-0.2,0-0.3,0c0.1,0.5,0.1,0.7,0.2,1.2H70
					c0-0.5-0.1-0.7-0.1-1.2c-0.1,0-0.2,0-0.3,0c-0.7,0-0.7-0.2-0.8-0.6c0-0.5-0.5-5.2-0.6-5.7c0-0.5-0.1-0.7,0.7-0.8
					c0.1,0,0.2,0,0.4,0c0-0.5-0.1-0.7-0.1-1.2C68.2,5.4,65.4,5.7,64.3,5.8 M81.3,6.5c0.1,0,0.2,0,0.4,0c0.8,0,0.8,0.2,0.7,0.7
					c0,0.5-0.3,5.5-0.3,6c0,0.4,0,0.6-0.7,0.6H81c0,0.5,0,0.8-0.1,1.3h8l0.4-2.7l-1.8,0c0,0.3-0.1,0.4-0.1,0.7
					c0,0.4-0.1,0.6-0.7,0.6c-0.5,0-1.9,0-2.3,0c0-0.5,0.5-5.7,0.5-6.2c0-0.5,0.1-0.7,0.8-0.6c0.2,0,0.3,0,0.5,0
					c0-0.5,0.1-0.7,0.1-1.2c-1-0.1-3.6-0.2-5-0.2C81.4,5.7,81.3,6,81.3,6.5 M71,5.3c0,0.5,0,0.7,0.1,1.2c0.1,0,0.2,0,0.3,0
					c0.8,0,0.8,0.2,0.8,0.6c0,0.5,0.3,5.5,0.3,6c0,0.4,0,0.6-0.6,0.6c-0.1,0-0.2,0-0.4,0c0,0.5,0,0.7,0.1,1.2h8l0.1-2.9h-1.8v0.8
					c0,0.4,0,0.6-0.7,0.6c-0.5,0-1.8,0-2.3,0c0-0.4-0.2-5.9-0.2-6.4c0-0.5,0-0.7,0.7-0.7c0.2,0,0.3,0,0.5,0c0-0.5,0-0.8,0-1.3
					C74.3,5.2,72.6,5.3,71,5.3"/>
			</defs>
			<clipPath id="SVGID_7_">
				<use xlink:href="#SVGID_6_"  style="overflow:visible;"/>
			</clipPath>
			
				<linearGradient id="SVGID_8_" gradientUnits="userSpaceOnUse" x1="-0.5956" y1="230.3239" x2="-7.810526e-02" y2="230.3239" gradientTransform="matrix(0 15.6254 -15.6254 0 3676.4443 16.1991)">
				<stop  offset="0" style="stop-color:#CA2028"/>
				<stop  offset="1" style="stop-color:#8C181B"/>
			</linearGradient>
			<rect x="54" y="5.2" class="st2" width="47.1" height="9.8"/>
		</g>
		<g class="st0">
			<defs>
				<path id="SVGID_9_" d="M76.7,42.4v4H36.1v48.6c0,26.7,20,48.7,46.4,58.6v-7.8c20.1-9.6,35.6-33.8,35.6-54.6V42.4H76.7z"/>
			</defs>
			<clipPath id="SVGID_10_">
				<use xlink:href="#SVGID_9_"  style="overflow:visible;"/>
			</clipPath>
			
				<linearGradient id="SVGID_11_" gradientUnits="userSpaceOnUse" x1="-5.2247" y1="230.0706" x2="-4.7072" y2="230.0706" gradientTransform="matrix(11.7232 -49.0178 49.0178 11.7232 -11132.5508 -2882.9431)">
				<stop  offset="0" style="stop-color:#CA2028"/>
				<stop  offset="1" style="stop-color:#8C181B"/>
			</linearGradient>
			<polygon class="st3" points="113.7,172 143.3,48.4 40.6,23.8 11,147.5 			"/>
		</g>
		<g class="st0">
			<defs>
				<rect id="SVGID_12_" x="32.3" y="2.6" width="89.6" height="155.3"/>
			</defs>
			<clipPath id="SVGID_13_">
				<use xlink:href="#SVGID_12_"  style="overflow:visible;"/>
			</clipPath>
			<g class="st4">
				<g>
					<defs>
						<rect id="SVGID_14_" x="75.8" y="54.9" width="29" height="89.8"/>
					</defs>
					<clipPath id="SVGID_15_">
						<use xlink:href="#SVGID_14_"  style="overflow:visible;"/>
					</clipPath>
					<path class="st5" d="M87.3,54.9c-0.1,0-0.2,0.2-0.2,0.7c0,1.2-0.6,2.6-1.1,3.5c-0.5,0-1,0.1-1.3,0.2c-0.9,0.4-5.4,1.3-5.4,1.3
						V136h-3.5v8.6h6.6v-6.2c0.1,0,0.4,0,0.4,0c2.8,0,4.5-2.3,4.5-5c-2.3,0.5-3.7-1.7-3.7-4.1c0-3,2.7-5.9,5.1-6.3
						c0.3,0,0.3-0.2-0.1-0.9c-0.2-0.4-0.5-0.8,0-1.4c6.4-8.2,11.5-15.5,11.5-26.9c0-0.9-0.1-1.6-0.2-2.1c-3.4-3.5-9.3-5.2-12.2-6.3
						c-1.6-0.6-2.2-2.1-2.2-3.7c0-2.9,1.6-4.3,3.3-4.3c3.1,0,4.4,3.8,7,3.8c0.9,0,2-0.5,3.6-1.4c3.2-2,3.4-6,4-8.4
						c-0.2-0.2-0.5-0.2-0.9-0.2h-0.7c-0.9,0-1-0.4-1-0.8c0-0.6,0.6-1.1,0.6-1.1c1.4,0.1,2,0.6,2.4,1c0.3-0.5,0.9-1.2,0.9-1.8
						c0-1.2-2.4-1-4.8-1.8c-3.1-1.1-3.7-1.6-3.7-1.9c0-0.1,0.1-0.2,0.2-0.3c0,0,0.3-0.4,0.3-0.9c0-0.3-0.1-0.6-0.4-1
						c-1.1-1-4.6-2.4-7.6-3.1c0.1-0.2,0.2-0.6,0.2-0.9c0-1.4-1-3.1-1.2-3.3C87.7,55.2,87.5,54.9,87.3,54.9 M91,62
						c1,0.3,3.1,1.2,3.1,2.5c-0.9,0.5-1.5,0.7-1.9,0.7c-1.2,0-1-1.8-2.4-2.1c-0.5-0.1-0.7-0.3-0.7-0.4C89.1,62.3,90.7,62,91,62"/>
				</g>
			</g>
			<path class="st6" d="M86.5,60.9c0-0.4,1.6-0.7,1.9-0.7c1,0.3,3.1,1.2,3.1,2.5c-0.9,0.5-1.5,0.7-1.9,0.7c-1.2,0-1-1.7-2.4-2.1
				C86.7,61.2,86.5,61,86.5,60.9 M115.2,91c0,23.7-19.2,45.7-35.6,52.7v-7.3c0.2,0,0.4,0.1,0.7,0.1c2.8,0,4.5-2.3,4.5-5.1
				c-2.3,0.5-3.7-1.7-3.7-4.1c0-3,2.7-5.9,5.1-6.3c0.3,0,0.3-0.2-0.1-0.9c-0.2-0.4-0.5-0.8,0-1.4c6.4-8.2,11.5-15.5,11.5-26.9
				c0-0.9-0.1-1.6-0.2-2.1c-3.4-3.5-9.3-5.2-12.2-6.3C83.7,83,83,81.4,83,79.9c0-2.9,1.7-4.4,3.4-4.4c3.1,0,4.4,3.8,7,3.8
				c0.9,0,2-0.5,3.6-1.4c3.2-2,3.4-6,4-8.4c-0.2-0.2-0.5-0.2-0.9-0.2h-0.7c-0.9,0-1-0.4-1-0.8c0-0.6,0.6-1.1,0.6-1.1
				c1.4,0.1,2,0.6,2.4,1c0.3-0.5,0.9-1.2,0.9-1.8c0-1.2-2.4-1-4.8-1.8c-3.1-1.1-3.7-1.6-3.7-1.9c0-0.1,0.1-0.2,0.2-0.3
				c0,0,0.3-0.4,0.3-0.9c0-0.3-0.1-0.6-0.4-1c-1.1-1-4.6-2.4-7.6-3.1c0.1-0.2,0.2-0.6,0.2-0.9c0-1.4-1-3.1-1.2-3.3
				c-0.1-0.1-0.3-0.4-0.4-0.4c-0.1,0-0.2,0.2-0.2,0.7c0,1.2-0.6,2.6-1.1,3.5c-0.5,0-1,0.1-1.3,0.2c-0.9,0.4-1.7,0.8-2.6,1.3V45.2
				h35.6V91z M76.7,42.4v4H36.1v48.6c0,26.7,20,48.7,46.4,58.6v-7.8c20.1-9.6,35.6-33.8,35.6-54.6V42.4H76.7z"/>
			<path class="st7" d="M59.4,112c2.2,5.9,10.3,5.3,6.3-0.7C64.9,113.3,61.7,114.3,59.4,112"/>
			<path class="st7" d="M63.8,104.3c-1.9-3-3.3-6.3-4.1-9.6c-10.5,6.7-7.8,20.3,2.8,22.5C54.5,113.5,58.3,104.7,63.8,104.3"/>
			<path class="st7" d="M75.1,54.6c0.2,0.7,0.3,1.3,0.3,2c0,7.4-14.4,14.9-14.4,30.6c0,8.2,4.2,19.9,14.4,24.3V89.7
				c-2.7-5-2.1-11.5,0.6-16.1c-4.9,3.7-6,10.2-4.4,16.1c-8-10.2,5.5-24.1,5.5-31.5C77.2,56.6,76.6,55.4,75.1,54.6"/>
			<path class="st7" d="M83.6,101.9c-7,11.5-9.5,19.4-9.5,24.7c0,3.6,1.1,6.1,2.9,7.5c0,0-1.1-1.7-1.1-5.4c0-4.4,1.6-11.6,8.7-22.5
				C84.7,104.5,84.4,102.8,83.6,101.9"/>
			<path class="st7" d="M83.7,146.4c20-9.9,35.6-34.1,35.6-55.4V41.2H75.5v4l1.2,1.2v-4h41.5V91c0,20.8-15.5,45-35.6,54.6
				L83.7,146.4z"/>
			<path class="st8" d="M82.5,145.7v7.8c-26.4-9.9-46.4-31.8-46.4-58.5V46.4h40.6l-1.2-1.2H34.9v49.7c0,28.7,21.4,50.4,48.8,60.3
				l0-8.8L82.5,145.7z"/>
			<path class="st8" d="M56.2,68.8c0-4,1.8-7.2,2.8-8.7l-3.1-4l-3.1,4c1,1.5,2.8,4.7,2.8,8.7c0,0.6,0.1,1,0.3,1
				C56,69.9,56.2,69.5,56.2,68.8"/>
			<path class="st8" d="M57.2,73c0.1,0.1,0.1,0.3,0,0.4l-1.1,1.1c-0.1,0.1-0.3,0.1-0.4,0l-1.1-1.1c-0.1-0.1-0.1-0.3,0-0.4l1.1-1.1
				c0.1-0.1,0.3-0.1,0.4,0L57.2,73z"/>
			<path class="st8" d="M53.6,72.6l-0.5-0.5c2-5.2-3.7-7.9-6.3-6.4c-0.6-1.8,0.5-3.8,2.6-3.8C52.8,62,55.9,68,53.6,72.6"/>
			<path class="st8" d="M58.1,72.6l0.5-0.5c-2-5.2,3.7-7.9,6.3-6.4c0.6-1.8-0.5-3.8-2.6-3.8C58.9,62,55.8,68,58.1,72.6"/>
			<path class="st8" d="M41.4,92.6V51.3h38.3v-2.1H39.1v45.7c0,37.9,40.5,54.2,40.5,54.2v-5.4C58.8,134,41.4,118.8,41.4,92.6"/>
			<g class="st9">
				<g>
					<defs>
						<rect id="SVGID_16_" x="53" y="94.7" width="7.6" height="21"/>
					</defs>
					<clipPath id="SVGID_17_">
						<use xlink:href="#SVGID_16_"  style="overflow:visible;"/>
					</clipPath>
					<path class="st10" d="M59.7,94.7c-9.1,5.8-8.3,16.7-1.1,21c-3.8-5.2-3.4-10.9,2.1-17.8C60.3,96.9,59.9,95.8,59.7,94.7"/>
				</g>
			</g>
			<g class="st9">
				<g>
					<defs>
						<rect id="SVGID_18_" x="59.4" y="111.3" width="6.9" height="3"/>
					</defs>
					<clipPath id="SVGID_19_">
						<use xlink:href="#SVGID_18_"  style="overflow:visible;"/>
					</clipPath>
					<path class="st11" d="M65.7,111.3c-0.8,2-4,3-6.3,0.7c0.2,0.4,0.3,0.8,0.6,1.1c2.3,2,5.5,1,6.3-0.9c0,0.1,0.1,0.1,0.1,0.2
						C66.2,112.1,66,111.7,65.7,111.3"/>
				</g>
			</g>
			<g class="st9">
				<g>
					<defs>
						<rect id="SVGID_20_" x="74.1" y="101.9" width="10.3" height="32.2"/>
					</defs>
					<clipPath id="SVGID_21_">
						<use xlink:href="#SVGID_20_"  style="overflow:visible;"/>
					</clipPath>
					<path class="st12" d="M83.6,101.9c-7,11.5-9.5,19.4-9.5,24.7c0,3.6,1.1,6.1,2.9,7.5c0,0,0,0,0,0c0,0,0,0,0,0
						c-1.1-1.4-1.7-3.5-1.7-6.3c0-5.2,2.4-13,9.1-24.1C84.3,103,84,102.4,83.6,101.9"/>
				</g>
			</g>
			<g class="st9">
				<g>
					<defs>
						<rect id="SVGID_22_" x="61.1" y="54.6" width="16.1" height="56.4"/>
					</defs>
					<clipPath id="SVGID_23_">
						<use xlink:href="#SVGID_22_"  style="overflow:visible;"/>
					</clipPath>
					<path class="st13" d="M75.1,54.6c0.2,0.7,0.3,1.3,0.3,2c0,7.4-14.4,14.9-14.4,30.6c0,7.9,3.9,19.1,13.4,23.9
						c-8.1-5.2-11.5-15.4-11.5-22.8c0-15,13.1-22.6,14.3-29.6c0-0.1,0-0.3,0-0.4C77.2,56.6,76.6,55.4,75.1,54.6"/>
				</g>
			</g>
			<g class="st9">
				<g>
					<defs>
						<rect id="SVGID_24_" x="71" y="73.6" width="5.1" height="19.6"/>
					</defs>
					<clipPath id="SVGID_25_">
						<use xlink:href="#SVGID_24_"  style="overflow:visible;"/>
					</clipPath>
					<path class="st14" d="M76.1,73.6c-4.9,3.7-6,10-4.5,15.9c0.7,1.3,1.6,2.5,3,3.6c-2.5-4.9-3.1-10.7-0.2-15.2
						C74.7,76.4,75.3,74.9,76.1,73.6"/>
				</g>
			</g>
		</g>
	</g>
</g>
</svg>
