<?xml version="1.0" encoding="utf-8"?>
<!-- Generator: Adobe Illustrator 19.1.0, SVG Export Plug-In . SVG Version: 6.00 Build 0)  -->
<svg version="1.1" id="Layer_1" xmlns="http://www.w3.org/2000/svg" xmlns:xlink="http://www.w3.org/1999/xlink" x="0px" y="0px"
	 viewBox="-29 31 100 100" style="enable-background:new -29 31 100 100;" xml:space="preserve">
<style type="text/css">
	.st0{fill:#F2C221;}
	.st1{fill:#EE3124;}
	.st2{fill:#0062AF;}
	.st3{fill:#FFFFFF;}
</style>
<g>
	<path class="st0" d="M20.4,126.9c-2.7-3.4-5-5.6-7.7-7.3c-2.8-1.8-5.8-2.6-8.7-3.1c-3.4-0.6-6.3-0.6-8.9-0.7
		c-2.5-0.1-4.7-0.5-7.5-1.8c-0.8-0.4-2.5-1.2-3.4-2.4c-0.7-1.1-1.3-2.2-1.3-3.9v-69h37.4h37.4v69.2c0,1.8-0.6,2.9-1.3,3.9
		c-0.9,1.3-2.6,2-3.4,2.4c-2.8,1.4-5,1.6-7.5,1.8c-2.6,0.1-5.4,0.1-8.9,0.7c-2.7,0.5-5.8,1.4-8.7,3.1
		C25.5,121,23.2,123.5,20.4,126.9L20.4,126.9z"/>
	<polygon class="st1" points="-15.5,63.6 20.4,63.6 56.5,63.6 56.5,39.9 20.4,39.9 -15.5,39.9 	"/>
	<path class="st2" d="M20.4,124.8c-5.4-6.6-10.9-8.8-16-9.5c-6.6-1.2-11.5,0.2-16.8-2.7c-0.7-0.4-1.8-0.9-2.5-2.1
		c-0.5-0.8-0.7-1.8-0.7-3.2V64.8h36.1l0,0h36.1v42.4c0,1.4-0.4,2.4-0.7,3.2c-0.7,1.3-1.8,1.8-2.5,2.1c-5.3,2.9-10.2,1.8-16.8,2.7
		C31.3,116.1,25.9,118.1,20.4,124.8L20.4,124.8z"/>
	<path class="st0" d="M45.2,58.4l1.6-0.2c0.2,1.2,0.8,1.8,1.8,1.8c0.5,0,0.9-0.1,1.2-0.4c0.2-0.2,0.5-0.6,0.5-0.9
		c0-0.2,0-0.4-0.1-0.6c-0.1-0.1-0.2-0.2-0.5-0.4c-0.2-0.1-0.7-0.2-1.5-0.5c-0.7-0.2-1.2-0.5-1.5-0.7c-0.3-0.2-0.6-0.6-0.8-0.9
		c-0.2-0.4-0.2-0.8-0.2-1.2c0-0.5,0.1-0.9,0.4-1.4c0.2-0.4,0.6-0.7,1.1-0.9c0.5-0.2,0.9-0.4,1.6-0.4c0.9,0,1.8,0.2,2.1,0.7
		c0.6,0.5,0.8,1.2,0.8,2l-1.8,0.2c-0.1-0.5-0.2-0.8-0.5-1.1c-0.2-0.2-0.6-0.4-1.1-0.4c-0.5,0-0.8,0.1-1.1,0.2
		c-0.2,0.1-0.4,0.4-0.4,0.7c0,0.2,0.1,0.5,0.4,0.6c0.2,0.1,0.7,0.4,1.5,0.6c0.8,0.2,1.4,0.5,1.8,0.7c0.4,0.2,0.7,0.6,0.8,0.9
		c0.2,0.4,0.4,0.8,0.4,1.4c0,0.8-0.2,1.5-0.8,1.9c-0.6,0.6-1.4,0.8-2.5,0.8C46.4,61.5,45.3,60.4,45.2,58.4L45.2,58.4z M41.9,61.2
		v-8.9h1.6v8.9H41.9L41.9,61.2z M40.4,61.2h-1.8l-0.7-2h-3.1l-0.7,2h-1.8l3.2-8.9h1.8L40.4,61.2L40.4,61.2z M37.3,57.7l-1.2-3.3
		L35,57.7H37.3L37.3,57.7z M13,61.2v-8.9h1.8l3.9,6v-6h1.8v8.9h-1.9l-3.6-5.8v5.9L13,61.2L13,61.2L13,61.2z M4.6,56.8
		c0,1.1,0.2,1.8,0.6,2.4C5.7,59.9,6.1,60,6.6,60s1.2-0.2,1.5-0.8c0.5-0.6,0.6-1.4,0.6-2.4S8.5,55,8.2,54.6c-0.4-0.5-0.9-0.8-1.5-0.8
		c-0.7,0-1.2,0.2-1.5,0.8C4.9,54.9,4.6,55.7,4.6,56.8L4.6,56.8z M3,56.8c0-1.1,0.1-1.9,0.5-2.6s0.8-1.3,1.3-1.6
		c0.6-0.4,1.2-0.5,1.9-0.5c1.2,0,1.9,0.5,2.7,1.3c0.7,0.8,1.1,1.9,1.1,3.4c0,1.5-0.4,2.7-1.2,3.5c-0.7,0.8-1.5,1.2-2.6,1.2
		s-1.9-0.4-2.6-1.2C3.5,59.6,3,58.3,3,56.8L3,56.8z M-2.5,61.2v-3.8l-2.8-5.3h1.8l1.8,3.5l1.8-3.5H2l-2.8,5.3v3.8H-2.5L-2.5,61.2z
		 M-10.1,61.2v-8.9h1.6v7.4H-5v1.5L-10.1,61.2L-10.1,61.2L-10.1,61.2z M45.9,50.8v-8.9h5.5v1.5h-4.1v2h3.8v1.5h-3.8v2.5h4.2v1.5
		L45.9,50.8L45.9,50.8z M38.8,41.9h1.5v4.9c0,0.8,0,1.3,0,1.5c0.1,0.5,0.2,0.7,0.5,0.9c0.2,0.2,0.6,0.4,1.1,0.4
		c0.4,0,0.7-0.1,0.9-0.2c0.2-0.1,0.4-0.4,0.5-0.7c0.1-0.2,0.1-0.9,0.1-1.8v-5h1.5v4.8c0,1.3-0.1,2-0.2,2.6c-0.1,0.6-0.5,1.1-0.9,1.4
		c-0.5,0.4-1.1,0.5-1.8,0.5c-0.8,0-1.4-0.1-1.8-0.5c-0.5-0.2-0.8-0.7-0.9-1.2c-0.2-0.5-0.4-1.5-0.4-2.7L38.8,41.9
		C38.7,41.9,38.8,41.9,38.8,41.9z M35.5,48.7c0.4-0.6,0.6-1.4,0.6-2.4s-0.2-1.8-0.6-2.4c-0.4-0.5-0.9-0.8-1.5-0.8
		c-0.6,0-1.2,0.2-1.5,0.8c-0.4,0.5-0.6,1.3-0.6,2.4c0,1.1,0.2,1.8,0.6,2.4c0.4,0.6,0.9,0.8,1.5,0.8c0.2,0,0.5,0,0.6-0.1
		c-0.4-0.2-0.7-0.5-0.9-0.6l0.5-1.1C34.5,48,35,48.3,35.5,48.7L35.5,48.7z M36.6,49.6c0.4,0.4,0.8,0.6,1.3,0.8l-0.6,1.3
		c-0.2-0.1-0.5-0.2-0.7-0.4c0,0-0.4-0.4-1.1-0.8c-0.5,0.2-1.1,0.4-1.8,0.4c-1.2,0-1.9-0.5-2.6-1.3c-0.7-0.8-1.1-1.9-1.1-3.5
		c0-1.5,0.4-2.7,1.1-3.5c0.7-0.8,1.6-1.3,2.6-1.3c1.2,0,1.9,0.5,2.6,1.3c0.7,0.8,1.1,1.9,1.1,3.5c0,0.7-0.1,1.4-0.2,1.9
		C37.2,48.8,37,49.3,36.6,49.6L36.6,49.6z M27.4,50.8v-8.9h1.5v8.9H27.4L27.4,50.8z M21.9,43.3v2.6h0.8c0.6,0,0.9,0,1.2-0.1
		c0.2-0.1,0.4-0.2,0.5-0.5c0.1-0.2,0.2-0.5,0.2-0.8c0-0.4-0.1-0.6-0.2-0.8c-0.1-0.2-0.4-0.4-0.5-0.5c-0.2-0.1-0.6-0.1-1.3-0.1
		L21.9,43.3L21.9,43.3z M20.3,50.8v-8.9h2.4c0.9,0,1.5,0,1.8,0.1c0.5,0.1,0.8,0.5,1.2,0.9c0.4,0.5,0.5,1.1,0.5,1.8s-0.1,1.3-0.4,1.6
		c-0.2,0.5-0.6,0.8-0.9,0.9c-0.4,0.2-1.1,0.2-1.9,0.2h-1.1v3.4h-1.6L20.3,50.8L20.3,50.8z M9.6,50.8l1.2-8.9h2.4l1.5,6.1l1.4-6.1
		h2.2l1.1,8.9h-1.5l-1.1-7.2l-1.6,7.2h-1.5l-1.6-7.2l-1.1,7.2H9.6L9.6,50.8z M5.3,50.8V47l-2.7-5.3h1.8l1.8,3.5L8,41.8h1.8L7,47v3.8
		H5.3L5.3,50.8z M-2.2,50.8v-8.9h1.5v7.4h3.6v1.5L-2.2,50.8L-2.2,50.8z M-9.2,46.2c0,1.1,0.2,1.8,0.6,2.4c0.5,0.6,0.9,0.8,1.5,0.8
		s1.2-0.2,1.5-0.8c0.4-0.6,0.6-1.4,0.6-2.4s-0.2-1.8-0.6-2.2c-0.4-0.5-0.9-0.8-1.5-0.8s-1.2,0.2-1.5,0.8C-9,44.5-9.2,45.3-9.2,46.2
		L-9.2,46.2z M-10.7,46.4c0-1.1,0.1-1.9,0.5-2.6c0.3-0.7,0.8-1.3,1.2-1.7c0.6-0.4,1.2-0.5,1.9-0.5c1.1,0,1.9,0.5,2.6,1.3
		c0.7,0.8,1.1,1.9,1.1,3.4c0,1.5-0.4,2.7-1.1,3.5C-5.1,50.7-5.9,51-7.1,51s-1.9-0.4-2.6-1.2C-10.4,49-10.7,47.9-10.7,46.4
		L-10.7,46.4z M22.8,61.2v-8.9h1.8l3.9,6v-6h1.8v8.9h-1.9l-3.6-5.8v5.9L22.8,61.2L22.8,61.2L22.8,61.2z"/>
	<path class="st0" d="M6.5,69c11.5,0,20.9,9.4,20.9,20.9S18,110.7,6.5,110.7s-20.8-9.4-20.8-20.9C-14.3,78.2-4.9,69,6.5,69L6.5,69z"
		/>
	<polygon class="st0" points="28.3,69 43.3,69 43.3,95.6 54.6,95.6 54.6,110.6 28.3,110.6 	"/>
	<path class="st3" d="M6.5,70.3c10.8,0,19.6,8.9,19.6,19.6s-8.9,19.6-19.6,19.6s-19.6-8.9-19.6-19.6C-13.1,78.9-4.3,70.3,6.5,70.3
		L6.5,70.3z"/>
	<polygon class="st3" points="29.6,70.3 42.1,70.3 42.1,96.9 53.3,96.9 53.3,109.4 29.6,109.4 	"/>
	<path class="st0" d="M16.8,79.5c-0.7,1.2-1.8,1.5-3.2,2c0-0.7,0.5-1.2,0.8-1.4c-0.4,0.1-0.9,0.1-1.5-0.1c0.4-0.7,0.7-0.8,1.1-0.9
		c-0.4,0-0.8-0.2-1.2-0.7c0.8-0.5,2.5-0.8,3.9,0c1.9-0.1,3.6,0.5,3.6,2.6c0,1.1-0.5,2-1.6,2.6c-1.1,0.6-2.7,0.7-3.8,1.5
		c-0.4,0.2-0.8,1.2-0.6,1.9c1.3-2.8,4.7-0.7,7-2.6c-1.5,3.2-4.1,1.8-5.5,3.2c-0.6,0.5-0.8,1.1-0.6,1.8c0.8-2.5,3.8-0.8,6.2-2.7
		c-1.3,2.8-3.6,2-4.9,3.2c-0.5,0.4-0.8,1.3-0.6,1.8c1.5-2.1,3.1-0.9,4.7-2.4c-0.7,1.5-1.8,2-2.9,2.4c-0.7,0.2-1.2,0.7-1.6,1.4
		c-0.6,1.1-1.3,1.5-1.9,1.6c-0.6,0.1-1.1,0-1.5-0.1c0,0.4,0.8,1.4,0.9,1.5c0.4,0,0.9-1.1,2.1,0.1c-0.7-0.1-1.1,0-1.2,0.4
		c0.2,0.4,0.7,0.2,0.7,0.2c0.4,0,1.3,0,1.2,0.8c-0.1-0.2-0.8-0.1-0.9,0.1c0,0.1,0,0.5,0.6,0.2c0.1,0,0.7-0.2,0.9,0.5
		c-0.5-0.1-0.6,0-0.7,0.4c0,0.2,0.1,0.4,0.1,0.6c0.2,0,0.6-0.2,0.8-0.4c0,0.4-0.1,0.7-0.5,0.9c0.2,0.2,0.4,0.8-0.1,1.1
		c-0.1-0.4-0.2-0.5-0.5-0.5c-0.2,0.6-0.5,0.6-0.8,1.2c0.1,0.1,0.2,0.1,0.4,0.1c0.4-0.2,0.5-0.2,0.8,0.1c-0.1,0.5-0.4,0.8-0.7,1.1
		c-0.5,0.4-0.1,0.6-0.1,0.8c-0.1,0.1-0.4,0-0.6,0c-0.5,0.1-0.7-0.1-0.8-0.5c-0.1-0.1-0.2,0-0.2,0.1c0,0.2,0.4,0.8-0.2,0.9
		c0,0,0,0.1-0.1,0.2c-0.1,0-0.1-0.1-0.2-0.1c-0.5,0.1-0.5-0.4-0.6-0.5s-0.4-0.1-0.5,0.1c0,0.1,0,0.4,0,0.6c-0.1,0.2-0.5,0.4-0.7,0.4
		c-0.5,0-0.7-0.5-0.7-0.7c-0.1,0.1-0.4,0.2-0.5,0.7c-0.5-0.4-0.1-0.9,0-1.1c-0.4,0-0.6-0.2-0.7-0.4c-0.1,0-0.4,0.1-0.5,0.2
		c-0.2-0.4,0-0.6,0.2-0.7c0-0.6,0.4-0.7,0.7-0.9c0.7-0.4,1.3,0.1,1.5,0.4c0.1-0.4,0.2-0.6,0.7-0.9c0.4-0.5-0.1-1.4,0-1.6
		c-0.7-0.4-1.6-0.6-1.8-1.2c-0.6,0.5-0.2,0.1-1.2,0.4c-0.2,0.1-0.1,0.6,0,0.7c-0.5,0-1.2-0.5-1.5-0.5c-0.5,0-0.7,1.1-0.6,1.5
		c-1.3-0.5-0.5-1.8-0.2-2c-0.1-0.2-0.5-0.2-0.6-0.1c0.2-0.8,0.8-0.7,1.3-0.6c0-0.8,0-0.4,0-0.6c-0.4-0.8-0.7-1.1-0.8-1.2
		c-1.1-0.2-2-0.5-2.2,0.2c-0.6,1.8-0.5,1.3,0.1,1.8c0.3,0.3,0.2,0.7,0.2,1.1c-0.1,0-0.2,0-0.2,0c-0.1,0.1-0.1,0.2-0.2,0.4
		c-0.2,0.2-0.7,0.6-0.8,0.7c-0.2,0.1-0.5,0.4-0.5,0.5s0,0.5,0.1,0.6c-0.4,0.2-0.8-0.2-0.9-0.2c-0.2,0.4-0.1,0.7,0.1,0.9
		c-0.2,0-0.7,0-1.1-0.4c-0.1-0.2-0.2-0.2-0.6-0.2C1,101.8,1,101.7,0.7,102c0.1,0.2,0.2,0.6,0,0.9c-0.2,0.2-0.2,0.5-0.7,0.5
		c-0.1,0.1-0.2,0.1-0.4,0.2c0-0.1,0-0.4,0-0.4c-0.1-0.2-0.4-0.6-0.4-1.1c-0.5-0.1-0.5-0.4-0.9-0.2c-0.4,0.4-1.1,0.7-1.8,0.6
		c-0.1,0.2-0.2,0.4-0.1,0.6c-0.5-0.4-0.7-1.1,0.2-1.6c0-0.2,0-0.4-0.1-0.5c-0.4,0.2-0.7,0.2-0.9-0.1c-0.4,0.1-0.5,0.2-0.6,0.4
		c-0.1-0.4,0-0.7,0.4-0.8c0.5-0.9,0.9-0.5,1.2-0.6c0-0.2,0.1-0.4,0-0.6s-0.9-0.2-1.3,0c0.2-0.7,1.3-1.1,1.8-0.9c0.1,0,1.1,0,1.1,0.7
		c0.2,0.4,0.4,0.6,0.7,0.8c0.2,0.1,0.4,0.2,0.6,0c0.6-0.6,0.9-0.1,1.5-0.7c0.2-0.2,0.4-0.4,0.5-0.6c0-0.1,0.1-0.4,0-0.5
		c-0.7-0.4-0.2-1.6-0.2-1.6l-0.8-0.2c-0.2-0.1-0.5,0-0.6-0.4c-0.8-0.2-1.3,0.2-1.2,1.2c-0.9-0.5-0.4-1.6,0.5-1.8
		c-0.8-1.3-2.9-0.5-2.4,1.2c-1.2-0.4-1.1-1.8,0-2.6c0.8-0.6,2.1-0.6,3.2,0.4c0.4-0.6,0.9-1.3,1.6-0.9c-0.4,0.1-0.8,0.7-0.7,1.2
		c0.1,0.4,1.4-0.5,1.5-0.8c1.2-0.8,1.1-0.5,2.4-0.5c0.8-0.5,1.6-0.6,2.6-0.5c-0.6-0.5-1.3-0.7-1.9-0.7c0.4-0.2,0.7-0.2,1.2-0.1
		c-0.5-0.4-1.1-1.5-2.1-1.4c-0.5-0.1-0.6,0.6-0.9,0.6c-0.1-0.1-0.1-0.2-0.2-0.4c-0.1,0-0.5,0.1-0.6,0.2c-0.5-0.1-2.2-0.1-2.2-0.5
		c-0.1,0.2,0,0.8,0.2,1.1c-0.5-0.1-0.8-0.4-1.1-0.6c0,0.5,0,0.7,0.4,0.9c-0.8,0.1-1.6,0.1-1.9-0.7C-1.9,91.6-2.2,92-2,92.2
		c-0.5,0-0.7-0.5-0.8-0.6s-0.7-0.4-0.9-0.4c-0.2,0-0.5-0.1-0.6,0.2c-0.1,0.2,0,0.8-0.6,0.9C-5,92.7-5,92.8-5.1,93
		c-0.1-0.1-0.1-0.2-0.2-0.4c-0.5,0-0.7-0.7-0.6-1.1c0,0-0.1-0.1-0.1-0.2C-6.2,91.9-6.8,92-7.2,92c-0.1,0.1-0.1,0.4-0.1,0.6
		c-0.2-0.1-0.4-0.5-0.4-0.7c-0.7-0.6-0.2-0.9,0.2-1.4c-0.2,0-0.9-0.2-1.1-0.4c-0.2,0-0.4,0.1-0.4,0.1c0-0.2,0-0.4,0.2-0.5
		c0-1.1,1.2-1.1,1.9-0.9C-7,88.7-7.2,88.3-7,88.1c0-0.2-0.2-0.4-0.5-0.4c0.2-0.4,0.8-0.2,0.9,0.1c0.7-0.2,1.8,0,2,0.9
		c0.4,0,2.6,0.4,3.8-0.5c0.1-0.2,1.1-1.2,1.4-1.4c-0.4,0-0.9-0.1-1.2-0.7c0.2,0.1,0.8,0.1,0.9-0.2c-0.1,0-1.1,0.2-1.2-0.4
		c0.4,0.2,0.6-0.4,0.5-0.5c-0.1-0.5-0.7,0.2-2.5,0.7c1.4-1.5,0.8-2.5,0.6-2.7c-0.5,0-0.7,0.1-1.2,0.6c-0.1-0.4,0.1-1.3,0.8-1.8
		c-0.5,0-0.8,0.5-1.3,0.5c-0.4,0-0.7,0-0.8-0.4c0.4,0,0.5-0.1,0.6-0.4c0-0.2,0-0.4,0.1-0.5c-0.1-0.2-0.4-0.5-0.6-0.6
		C-5,80.4-5,80.3-5.2,80.3c-0.4,0-0.5,0.4-0.7,0.6c-0.2-0.4-0.1-0.9,0-1.1c-0.2-0.6,0.1-0.8,0.6-1.3c-0.2-0.4-0.6-0.2-0.9-0.1
		c0-0.4,0.2-0.5,0.5-0.6c0.1-0.7,1.1-0.7,1.3-0.7c0.2,0,0.7,0.1,1.3,0.5c0.1-0.4,0-0.6-0.2-0.7c0.5-0.1,0.5,0,0.9,0.2
		c0.7,0.1,0.7,2,0.5,2.2c0.2,0.8,1.2,1.2,1.8,1.8c0.2,0.2,1.4,0.2,1.5,1.1c0.6-0.4,3.5-0.1,4.7,0.2c0.2-0.1,0.6-0.5,0.7-0.6
		c-0.2,0-0.7,0.2-1.3,0c-0.4-0.1-0.7-0.8-0.2-0.9c0.6,0.5,1.4,0.5,1.5,0C5.9,81,5,81,4,81.1S2.1,81.3,1.5,81c-0.8-0.5-0.9-1.2-0.4-2
		c-0.2,0.9,0.4,1.6,1.4,1.6c0.9,0,1.3-0.1,1.9-0.1c0.5-0.1,1.5,0,1.9,0.4C6.4,80.4,6,80,5.9,79.9c-0.5-0.2-1.4,0.1-1.4,0.5
		C4,80.3,3.4,79.3,3.7,79c0-0.1-0.2-0.6,0.1-0.9c0.1-0.2,0.2-0.5,0.4-0.6c0.4-0.2,0.6,0,0.9-0.1c0.9-1.5,2-1.3,3.8-1.2
		c0.1,0,0.5-0.2,0.6-0.4c0.1,0.1,0.1,0.2,0.1,0.2c0.4,0.1,0.9-0.1,1.4-0.2c0,0.2,0,0.6-0.1,0.8c0,0.1-0.1,0.4-0.1,0.5
		c0.1,0.5,0.2,0.8,0.5,1.2c0.1,0.2,0.1,0.4,0.5,0.4c0,0.1-0.1,0.5-0.4,0.5c0,0.7,0.5,1.4,0.4,2.1c0.2,0.2,0.2,0.2,0.7,0.1
		c-0.2,0.8-0.4,1.1-0.9,1.4c-0.2,0.7-0.4,1.2-0.6,1.8c0.5,0.1,0.7,0,0.8-0.1c-0.1,0.7-1.1,1.1-1.2,0.9c-0.1,0.2-0.6,1.2-0.5,1.4
		c0.1,0.2,0.8,0.1,1.1,0c0,0.6-0.9,1.1-1.2,0.9c0,0.2,0,1.2,1.2,0.7c0,0.6-0.5,0.7-0.6,0.8c0.2,0.5,0.6,0.9,1.3,1.6
		c0.5,0.5,0.9,1.2,1.1,2.1c0.7,0.2,1.2,0.4,1.6-0.2c0.7-0.8-0.4-2.6-0.9-3.3c-1.1-1.3-1.3-4,0.5-5.3c2.5-2,4.9-0.9,5.3-2.9
		C19.6,79.2,17.3,79.3,16.8,79.5L16.8,79.5z"/>
	<path class="st3" d="M6.5,78c0.2,0.1,0.6,0.2,0.5,0.4c0,0.1-0.5,0.2-0.7,0.2c-0.2-0.1-0.2-0.2-0.2-0.4C6.2,78,6.3,77.9,6.5,78
		L6.5,78z"/>
</g>
</svg>
