<?xml version="1.0" encoding="utf-8"?>
<!-- Generator: Adobe Illustrator 19.1.0, SVG Export Plug-In . SVG Version: 6.00 Build 0)  -->
<svg version="1.1" id="Layer_1" xmlns="http://www.w3.org/2000/svg" xmlns:xlink="http://www.w3.org/1999/xlink" x="0px" y="0px"
	 viewBox="-29 31 100 100" style="enable-background:new -29 31 100 100;" xml:space="preserve">
<style type="text/css">
	.st0{fill:#B9956F;}
	.st1{fill:#139FDA;}
</style>
<g>
	<polygon class="st0" points="26.8,39.4 21.8,39.4 20.2,34.6 18.8,39.4 13.7,39.4 17.7,42.3 16.2,47.1 20.2,44.1 24.3,47.1 
		22.8,42.3 	"/>
	<path class="st1" d="M48,106c-0.2-0.5-0.4-1.2-0.7-1.8c4.5-5,7.1-11.3,7.1-18.1c0-11.7-7.8-21.8-19-26.7c0.4-2.3,1.4-4.7,2.4-6.6
		c0.3-0.7,0.9-1.3,1.3-1.8l0.1-0.1c0.7-0.9,1.4-1.5,1.9-1.8l-0.4-1.1c-2.3,1.1-7,3.2-10,5.9c-1.4-1.3-4-2.7-6-3.2l-0.3,1l0.4,0.5
		c1.2,1.6,1.8,3.2,2.2,4.9c-2.3-0.4-4.5-0.5-6.7-0.5s-4.4,0.2-6.5,0.5c0.3-1.6,1-3.2,2.2-4.9l0.4-0.5l-0.4-1c-1.9,0.5-4.6,1.9-6,3.2
		c-2.9-2.7-7.8-5-10-5.9l-0.4,1.1c0.5,0.4,1.3,1.1,1.9,1.8L1.7,51c0.4,0.5,1,1.2,1.3,1.8c1.1,1.7,1.8,4.3,2.4,6.6
		c-11.3,4.9-19,14.9-19,26.7c0,6.8,2.7,13.2,7.1,18.1c-0.2,0.7-0.4,1.3-0.7,1.8c-2.4,5.3-5.9,8.3-7.9,9.6l0.4,1
		c8.3-1.2,11.1-0.3,13,0l2.2-6.5c5.5,3.5,12.4,5.5,19.9,5.5s14.1-2.1,19.9-5.5l2.2,6.5c1.8-0.3,4.6-1.2,13,0l0.4-1
		C53.8,114.3,50.4,111.4,48,106z M46,86c0,3.5-0.7,6.8-1.8,9.9c-3.8-10.3-8.5-24-9.3-31.8C41.6,69,46,77,46,86z M27,60.2
		c-0.1,1.7-0.4,3.5-1,5c0,0-0.3,1.6-0.3,1.7c0,0-4.6,18.7-5.4,21.6c-0.9-2.9-5.4-21.6-5.4-21.6l-0.3-1.7c-0.3-1.5-0.7-3.2-1-5
		c2.1-0.5,4.4-1,6.7-1C22.6,59.4,24.8,59.7,27,60.2z M-5.5,86c0-9.1,4.4-17.1,11.1-21.9c-0.7,7.8-5.4,21.6-9.3,31.8
		C-4.8,92.9-5.5,89.6-5.5,86z M20.2,112.7c-7,0-13.4-2.9-18-7.7l8.2-23.4c0.9,2.9,2.4,9,2.4,9l0.3,1.5c0.3,1.5,0.7,2.8,0.7,3.9
		c0,1.7-0.5,3.2-2.6,5.3l0.3,1c1.1,0.5,2.9,1.2,4.1,1.3c0.4,2.1,2.8,5.1,4.5,6.6c1.6-1.4,4-4.5,4.5-6.6c1.4-0.1,3.2-0.5,4.1-1.3
		l0.3-1c-1.9-2.1-2.6-3.6-2.6-5.3c0-1.2,0.2-2.4,0.7-3.9l0.3-1.6c0,0,1.6-6.1,2.4-9l8.2,23.4C33.7,109.9,27.3,112.7,20.2,112.7z"/>
	<path class="st0" d="M-10.6,122.1c-0.7-0.3-1.4-0.3-1.9-0.3h-2.9v5.4h3c1.2,0,1.7-0.2,2.3-0.7c0.7-0.5,1-1.3,1-2.2
		C-9.2,123.3-9.8,122.5-10.6,122.1z M-12.7,126h-0.7V123h0.7c0.7,0,1.2,0.1,1.2,1.4C-11.6,125.7-12.2,126-12.7,126z"/>
	<path class="st0" d="M-4,124.9c1-0.1,1.7-0.5,1.7-1.5s-0.9-1.5-3.2-1.5h-2.8v5.4h2.1v-2.2c0.4,0,0.7,0.1,1,0.5l0.9,1.5h2.4
		c-0.2-0.4-1-1.4-1.3-1.7C-3.4,125.1-3.7,124.9-4,124.9z M-5.6,124h-0.5v-1.2h0.5c0.7,0,1,0.1,1,0.4C-4.6,123.8-4.9,124-5.6,124z"/>
	<path class="st0" d="M2.2,121.6c-2.2,0-3.8,1.1-3.8,3c0,1.6,1.3,2.7,3.7,2.7c2.9,0,3.7-1.5,3.7-3C5.8,123,4.9,121.6,2.2,121.6z
		 M2.1,126.2c-1,0-1.4-0.3-1.4-1.7c0-1.1,0.3-1.7,1.4-1.7c1,0,1.3,0.3,1.3,1.7C3.3,125.7,3,126.2,2.1,126.2z"/>
	<rect x="6.7" y="121.7" class="st0" width="2.2" height="5.4"/>
	<polygon class="st0" points="9.8,122.9 11.6,122.9 11.6,127.1 13.9,127.1 13.9,122.9 15.7,122.9 15.9,121.7 9.8,121.7 	"/>
	<path class="st0" d="M20.7,121.7l-2.7,5.4h2.2l0.4-1.1h1.9l0.4,1.1h2.3l-2.4-5.4H20.7z M21.1,125.1l0.3-1c0.1-0.3,0.2-0.7,0.2-1
		c0,0.2,0.1,0.5,0.1,0.9l0.3,1.1C22.2,125.1,21.1,125.1,21.1,125.1z"/>
	<path class="st0" d="M29.6,125.3c0,0.5-0.2,0.9-1,0.9c-0.7,0-1-0.3-1-0.9v-3.6h-2.1v3.7c0,0.7,0.1,0.9,0.3,1.2
		c0.4,0.4,1.4,0.7,2.7,0.7c1.6,0,2.6-0.4,2.9-1c0.2-0.2,0.2-0.4,0.2-1v-3.8h-2.1v3.7C29.5,125.3,29.6,125.3,29.6,125.3z"/>
	<path class="st0" d="M40.4,124.2c1-0.2,1.2-0.7,1.2-1.2c0-1.1-1-1.4-2.2-1.4h-3.6v5.4H39c1.8,0,2.8-0.7,2.8-1.7
		C41.8,124.9,41.2,124.3,40.4,124.2z M37.9,122.9h0.9c0.4,0,0.7,0.1,0.7,0.4c0,0.2-0.2,0.4-0.7,0.4h-0.9V122.9z M38.8,126h-0.9V125
		h0.9c0.7,0,0.9,0.2,0.9,0.4C39.4,125.7,39.3,126,38.8,126z"/>
	<path class="st0" d="M47,125.3c0,0.5-0.2,0.9-1,0.9c-0.7,0-1-0.3-1-0.9v-3.6h-2.1v3.7c0,0.7,0.1,0.9,0.3,1.2
		c0.4,0.4,1.4,0.7,2.7,0.7c1.6,0,2.6-0.4,2.9-1c0.2-0.2,0.2-0.4,0.2-1v-3.8h-2.1v3.7C46.8,125.3,47,125.3,47,125.3z"/>
	<polygon class="st0" points="49.9,121.7 49.9,122.9 51.7,122.9 51.7,127.1 54,127.1 54,122.9 55.8,122.9 56.1,121.7 	"/>
</g>
</svg>
