<?xml version="1.0" encoding="utf-8"?>
<!-- Generator: Adobe Illustrator 19.1.0, SVG Export Plug-In . SVG Version: 6.00 Build 0)  -->
<svg version="1.1" id="Layer_1" xmlns="http://www.w3.org/2000/svg" xmlns:xlink="http://www.w3.org/1999/xlink" x="0px" y="0px"
	 viewBox="0 0 160 160" style="enable-background:new 0 0 160 160;" xml:space="preserve">
<style type="text/css">
	.st0{fill:#9DA3A7;}
	.st1{fill:#FFFFFF;}
	.st2{fill:#242E6A;}
	.st3{fill:#F47D30;}
</style>
<circle class="st0" cx="79.6" cy="79.2" r="72.8"/>
<circle class="st1" cx="79.6" cy="79.2" r="71"/>
<path class="st2" d="M28.6,99.3L28,99.7c-0.1,0.1-0.2,0.2-0.2,0.3c0,0.1,0,0.1,0,0.2c0.4,0.7,0.5,1,0.5,1.1c0,0,0,0,0,0
	c-0.1,0.1-0.4,0.3-1.7,1.1l-3.1,1.9c-1.9,1.2-3.2,2-3.9,2.3c-0.3,0.2-0.5,0.2-0.6,0.2c-0.1-0.1-0.3-0.3-0.7-0.9
	c-0.1-0.2-0.3-0.2-0.5-0.1l-0.7,0.4c-0.1,0.1-0.2,0.1-0.2,0.3s0,0.2,0.1,0.3c0.4,0.6,0.8,1.3,1.3,1.9c0.4,0.6,0.7,1.2,1.1,1.9
	c0.1,0.1,0.2,0.2,0.4,0.2c2.1-0.3,5.4-0.7,9.8-1.1c-2.2,3.5-3.6,5.6-3.9,6.1c0,0-1.5,2.2-1.5,2.2c0,0.1-0.1,0.1-0.1,0.2
	c0,0.1,0,0.2,0.1,0.2c0.4,0.6,0.9,1.3,1.3,2c0.4,0.6,0.8,1.3,1.1,1.9c0.1,0.1,0.1,0.2,0.2,0.2c0.1,0,0.2,0,0.3,0l0.7-0.4
	c0.1-0.1,0.2-0.2,0.2-0.3c0-0.1,0-0.1,0-0.2c-0.4-0.8-0.5-1-0.5-1.1c0,0,0,0,0,0c0,0,0.2-0.2,1-0.7l2.8-1.8c1.5-1,3-1.8,4.4-2.6
	c0.7-0.4,1-0.5,1-0.5c0,0,0.2,0.1,0.4,0.4l0.3,0.5c0.1,0.2,0.3,0.2,0.5,0.1l0.7-0.4c0.1-0.1,0.2-0.1,0.2-0.3c0-0.1,0-0.2-0.1-0.3
	c-0.4-0.6-0.9-1.3-1.4-2.1c-0.3-0.5-0.7-1.1-0.9-1.7c0-0.1-0.1-0.2-0.2-0.2s-0.2,0-0.3,0l-0.7,0.4c-0.1,0.1-0.2,0.2-0.2,0.3
	c0,0.1,0,0.1,0,0.2c0.4,0.7,0.5,1,0.5,1.1c0,0-0.1,0.2-0.6,0.5c-1.1,0.7-3.1,1.9-6,3.7c1.1-1.7,3.2-5,3.2-5c1-1.6,1.9-2.8,2.5-3.8
	c0-0.1,0.1-0.1,0.1-0.2c0-0.1,0-0.1-0.1-0.2l-0.3-0.5c-0.1-0.1-0.2-0.2-0.4-0.2c-0.9,0.1-2.1,0.3-3.5,0.4c-2.7,0.3-5,0.5-6.9,0.7
	c1.4-0.9,3.5-2.2,3.5-2.2c1.4-0.9,2.3-1.4,2.7-1.6c0.4-0.2,0.5-0.2,0.6-0.2c0,0,0.1,0.1,0.4,0.4l0.3,0.5c0.1,0.2,0.3,0.2,0.5,0.1
	l0.7-0.4c0.1-0.1,0.2-0.1,0.2-0.2c0-0.1,0-0.2-0.1-0.3l-1.8-2.8c-0.4-0.7-0.9-1.5-1.4-2.4c-0.1-0.1-0.1-0.2-0.2-0.2
	C28.8,99.2,28.7,99.2,28.6,99.3z"/>
<path class="st2" d="M20.6,89c-1.1,0.3-2,0.8-2.6,1.4c-0.7,0.6-1.1,1.4-1.3,2.4c-0.2,0.9-0.2,2,0.2,3.2c0.3,1.3,0.9,2.3,1.5,3
	c0.7,0.7,1.5,1.2,2.5,1.5c1,0.2,2,0.2,3.2-0.1c1.7-0.5,2.9-1.3,3.6-2.5c0.4-0.7,0.6-1.6,0.6-2.5c0-0.6-0.1-1.3-0.3-2
	c-0.3-1.2-0.8-2.2-1.5-2.9c-0.7-0.7-1.6-1.2-2.6-1.5C22.9,88.6,21.8,88.6,20.6,89z M19.9,97.6c-0.7-0.3-1.2-0.9-1.4-1.8
	c-0.3-1-0.2-1.7,0.3-2.3c0.6-0.8,1.6-1.4,3-1.8c1.4-0.4,2.4-0.4,3.2-0.1c0.8,0.3,1.2,0.9,1.4,1.7h0c0.2,0.7,0.2,1.2,0,1.7
	c-0.2,0.5-0.5,0.9-1.1,1.4c-0.6,0.5-1.4,0.8-2.4,1.1C21.7,97.9,20.6,97.9,19.9,97.6z"/>
<path class="st2" d="M16.3,76.1l-0.6,0c-0.1,0-0.2,0.1-0.3,0.1c-0.1,0.1-0.1,0.2-0.1,0.3c0.1,0.5,0.1,1.2,0.1,1.8l0,1.5
	c0,0.1,0,0.2,0.1,0.3c0.1,0.1,0.2,0.1,0.3,0.1l0.6,0c0.2,0,0.4-0.2,0.4-0.4c0-0.5,0-0.7,0-0.8c0.1,0,0.2-0.1,0.6-0.1l0,0
	c0,0,2.7-0.2,2.7-0.2s1,0,1.8-0.1c-0.5,0.5-1.1,1.1-1.8,1.7c-1.5,1.4-3,2.7-4.3,3.8c-0.1,0.1-0.1,0.2-0.1,0.3c0,0,0,0,0,0l0.1,1.3
	c0,0,0,1.6,0,1.6c0,0.1,0,0.2,0.1,0.3c0.1,0.1,0.2,0.1,0.3,0.1l0.6,0c0.2,0,0.4-0.2,0.4-0.4c0-0.6,0.1-0.8,0.1-0.9
	c0.1,0,0.4-0.1,1.2-0.1l3-0.1c0,0,2.5-0.1,2.5-0.1c0.8,0,1,0,1,0c0,0.1,0.1,0.3,0.1,0.8c0,0.2,0.2,0.4,0.4,0.4l0.6,0
	c0.1,0,0.2-0.1,0.3-0.1c0.1-0.1,0.1-0.2,0.1-0.3l-0.1-1.7c0,0,0-1.6,0-1.6c0-0.1,0-0.2-0.1-0.3c-0.1-0.1-0.2-0.1-0.3-0.1l-0.6,0
	c-0.2,0-0.4,0.2-0.4,0.4c0,0.5,0,0.7,0,0.8c-0.1,0-0.4,0.1-1.1,0.1c0,0-2.7,0.2-2.7,0.2s-0.8,0-1.6,0.1c0.5-0.4,1-0.9,1.6-1.5
	c1.9-1.8,3.6-3.3,4.8-4.6c0.1-0.1,0.1-0.2,0.1-0.2l0.1-1.2c0,0,0,0,0,0c0-0.1,0-0.2-0.1-0.3L25.9,77c-0.1-0.1-0.2-0.1-0.3-0.1
	L23.4,77l-2.8,0.1l-2.8,0.1c-0.8,0-1,0-1,0l0,0c0,0,0,0,0,0c0,0-0.1-0.2-0.1-0.8C16.6,76.3,16.5,76.1,16.3,76.1z"/>
<path class="st2" d="M17.2,64.9L17.1,65c-0.1,0.1-0.2,0.2-0.2,0.3c-0.2,1.7-0.4,3.2-0.6,4.6c-0.2,1.4-0.5,2.8-0.7,4.2
	c0,0.1,0,0.2,0,0.3l0,0.1c0.1,0.1,0.2,0.2,0.3,0.2c0.6,0,1.4,0.1,2.3,0.3c0.1,0,0.2,0,0.3-0.1c0.1-0.1,0.1-0.2,0.2-0.3l0.1-0.6
	c0,0,0,0,0-0.1c0-0.2-0.1-0.3-0.3-0.4c-0.6-0.1-0.9-0.2-1-0.2c0-0.1,0-0.2,0-0.2c0-0.5,0.1-1,0.2-1.6c0,0,0-0.1,0-0.1
	c0.3,0,1,0.1,2.5,0.4l2.7,0.4c1.6,0.3,2,0.4,2.1,0.4c0,0,0,0,0,0c0,0,0,0,0.1,0c0,0,0,0.1,0,0.1c0,0,0,0,0,0.1c0,0.2,0,0.5,0,0.7
	c0,0,0,0,0,0.1c0,0.1,0,0.2,0.1,0.2c0.1,0.1,0.2,0.1,0.3,0.2l0.6,0.1c0.1,0,0.2,0,0.3-0.1c0.1-0.1,0.1-0.2,0.1-0.3
	c0.1-0.6,0.2-1.4,0.3-2.4L27,69c0-0.1,0-0.2-0.1-0.3c-0.1-0.1-0.2-0.1-0.3-0.2l-0.6-0.1c-0.2,0-0.4,0.1-0.4,0.3
	c-0.1,0.5-0.2,0.7-0.2,0.9c0,0-0.1,0-0.3,0c-0.3,0-1.1-0.1-2.5-0.3l-4.6-0.7c0,0,0,0,0,0c0.1-0.9,0.3-1.5,0.4-1.8c0.1,0,0.4,0,1,0.1
	c0.2,0,0.4-0.1,0.4-0.3l0.1-0.6c0-0.2-0.1-0.4-0.3-0.4c-0.8-0.2-1.6-0.3-2.2-0.5C17.4,64.9,17.3,64.9,17.2,64.9z"/>
<path class="st2" d="M20.9,55.9c-0.4,0.1-0.8,0.4-1.2,0.8c-0.3,0.4-0.6,1-0.9,1.8l-0.3,1L18,61.4c0,0-0.4,1.1-0.4,1.1l-0.3,0.7
	c0,0.1,0,0.2,0,0.3s0.1,0.2,0.2,0.2l0.6,0.2c0.2,0.1,0.4,0,0.5-0.2l0.2-0.4c0.1-0.2,0.1-0.2,0.1-0.3c0.1,0,0.3,0.1,0.8,0.2
	c0.6,0.2,1.6,0.5,3,0.9l2.3,0.8c0.8,0.3,1.1,0.4,1.2,0.5c0,0.1,0,0.3-0.2,0.7c0,0,0,0.1,0,0.1c0,0.2,0.1,0.3,0.3,0.4l0.6,0.2
	c0.1,0,0.2,0,0.3,0c0.1,0,0.2-0.1,0.2-0.2l0.7-2.4l0.7-2c0-0.1,0-0.2,0-0.3c0-0.1-0.1-0.2-0.2-0.2l-0.6-0.2c-0.2-0.1-0.4,0-0.5,0.2
	c-0.2,0.6-0.3,0.8-0.4,0.9c-0.1,0-0.4-0.1-1-0.3c0,0-1.4-0.4-2.3-0.7c0.1,0,0.2-0.1,0.2-0.2l0.2-0.4l0.2-0.4
	c0.1-0.4,0.2-0.9,0.2-1.3c0-0.5-0.1-1-0.3-1.5c-0.4-0.9-1.1-1.4-2-1.7C21.8,55.8,21.4,55.8,20.9,55.9z M20.1,59.7
	c0.2-0.5,0.4-0.8,0.7-0.9c0.3-0.2,0.7-0.1,1.2,0c0.5,0.1,0.8,0.4,0.9,0.7c0.1,0.2,0.1,0.4,0.1,0.5c0,0.1,0,0.3-0.1,0.4l-0.1,0.2
	c0,0-0.1,0.2-0.1,0.2c0,0.1,0,0.1,0,0.2c0,0,0,0.1,0,0.1c-0.8-0.3-1.8-0.6-2.8-1C20,60,20,59.9,20.1,59.7z"/>
<path class="st2" d="M24.5,46.7L24.5,46.7c-0.2,0-0.3,0.1-0.4,0.2c-0.2,0.3-0.4,0.6-0.6,1c0,0-1.7,3.4-1.7,3.4l-1.2,2.3
	c0,0.1,0,0.1,0,0.2c0,0,0,0.1,0,0.1c0,0.1,0.1,0.2,0.2,0.2l0.5,0.3c0.2,0.1,0.4,0,0.5-0.1c0.3-0.4,0.4-0.6,0.5-0.7
	c0,0,0.1,0,0.2,0.1c0.5,0.2,1.4,0.7,2.8,1.4c1.9,1,3.2,1.7,3.8,2.1c0,0.1,0,0.2,0,0.4c0,0.1,0,0.1,0,0.2c0,0,0,0,0,0
	c0,0.1,0.1,0.3,0.2,0.3l0.3,0.2c0.1,0,0.2,0.1,0.3,0c0.1,0,0.2-0.1,0.2-0.2l1.1-2.2l0.9-1.7c0,0,0.7-1.3,0.7-1.3l0.5-1.1
	c0.1-0.2,0-0.4-0.2-0.5c-0.7-0.4-1.3-0.8-2-1.2c-0.1-0.1-0.2-0.1-0.3-0.1c-0.1,0-0.2,0.1-0.3,0.2l-0.3,0.5c0,0.1,0,0.1,0,0.2
	c0,0.1,0.1,0.2,0.1,0.3c0.3,0.3,0.7,0.5,0.9,0.8c-0.2,0.5-0.4,1.1-0.7,1.7c0,0-0.3,0.5-0.5,0.9c-0.6-0.3-1.4-0.7-2.4-1.2
	c0,0-0.2-0.1-0.3-0.2c0.1-0.2,0.2-0.5,0.2-0.5c0.4-0.8,0.6-1.1,0.7-1.2c0.1,0,0.3,0.1,0.8,0.3c0.2,0.1,0.4,0,0.5-0.2L30,51
	c0-0.1,0-0.1,0-0.2c0,0,0-0.1,0-0.1c0-0.1-0.1-0.2-0.2-0.2l-1.4-0.7c0,0-1.3-0.7-1.3-0.7c-0.1,0-0.2-0.1-0.3,0
	c-0.1,0-0.2,0.1-0.2,0.2l-0.3,0.5c0,0.1,0,0.1,0,0.2c0,0.1,0.1,0.3,0.2,0.3c0.4,0.3,0.6,0.4,0.6,0.4c0,0.1-0.1,0.3-0.4,0.9
	c0,0-0.3,0.5-0.5,0.9c-0.5-0.3-1.9-1.1-2.4-1.3c0.2-0.3,0.4-0.9,0.4-0.9c0.3-0.7,0.6-1.2,0.9-1.5c0,0,0,0,0,0c0.1,0,0.3,0.1,0.8,0.3
	c0.2,0.1,0.4,0,0.5-0.2l0.2-0.5c0.1-0.2,0-0.4-0.2-0.5c-0.7-0.4-1.3-0.8-1.7-1.1C24.7,46.7,24.6,46.7,24.5,46.7z"/>
<path class="st2" d="M28.4,40.7c-0.1,0-0.2,0.1-0.3,0.2L27,42.6l-1.5,2c-0.1,0.1-0.1,0.2-0.1,0.3c0,0.1,0.1,0.2,0.2,0.3l0.5,0.3
	c0.2,0.1,0.4,0.1,0.5-0.1c0.4-0.4,0.5-0.6,0.6-0.6c0.1,0,0.3,0.2,0.8,0.5c0,0,2.5,1.8,2.5,1.8c1,0.8,2,1.5,3,2.3
	c0,0.2,0,0.4-0.1,0.6c0,0,0,0,0,0.1c0,0.1,0.1,0.2,0.2,0.3l0.3,0.2c0.1,0.1,0.2,0.1,0.3,0.1c0.1,0,0.2-0.1,0.3-0.2l1.3-1.8l0.7-0.9
	l1.5-2c0,0,0.7-1,0.7-1c0.1-0.2,0.1-0.4-0.1-0.5c-0.7-0.6-1.4-1.2-1.8-1.7c-0.1-0.1-0.2-0.1-0.3-0.1c-0.1,0-0.2,0.1-0.3,0.2L35.6,43
	c0,0.1-0.1,0.1-0.1,0.2c0,0.1,0,0.2,0.1,0.3c0.3,0.3,0.6,0.7,0.8,1c-0.2,0.5-0.5,1-1,1.6c0,0-0.4,0.5-0.6,0.8
	c-0.4-0.3-1.5-1.1-1.5-1.1l-2.7-2c-1.4-1.1-1.7-1.3-1.7-1.3l0,0c0,0,0,0,0,0c0-0.1,0.1-0.3,0.4-0.8c0-0.1,0.1-0.1,0.1-0.2
	c0-0.1-0.1-0.2-0.2-0.3l-0.5-0.3C28.6,40.7,28.5,40.7,28.4,40.7z"/>
<path class="st2" d="M35.1,33.2c-0.1,0-0.2,0-0.3,0.1l-1.5,1.5l-1.8,1.7c-0.1,0.1-0.1,0.2-0.1,0.3c0,0.1,0,0.2,0.1,0.3l0.4,0.4
	c0.1,0.1,0.4,0.2,0.5,0c0.4-0.3,0.6-0.5,0.7-0.5c0.1,0.1,0.3,0.2,0.7,0.6c0,0,2.2,2.1,2.2,2.1c0.9,0.9,1.8,1.8,2.6,2.7
	c0,0.2-0.1,0.4-0.2,0.6c0,0,0,0.1,0,0.1c0,0.1,0,0.2,0.1,0.3l0.3,0.3c0.1,0.1,0.2,0.1,0.3,0.1c0.1,0,0.2,0,0.3-0.1l1.5-1.6l0.8-0.8
	l1.8-1.8c0,0,0.9-0.9,0.9-0.9c0.1-0.1,0.1-0.4,0-0.5c-0.6-0.8-1.2-1.4-1.6-1.9c-0.1-0.1-0.2-0.1-0.3-0.2c-0.1,0-0.2,0-0.3,0.1
	l-0.4,0.4c-0.1,0.1-0.1,0.2-0.1,0.3c0,0.1,0,0.1,0.1,0.2c0.3,0.4,0.5,0.8,0.7,1.1c-0.3,0.4-0.7,0.9-1.2,1.5c0,0-0.4,0.4-0.7,0.7
	c-0.4-0.3-1.3-1.3-1.3-1.3l-2.4-2.4c-1.3-1.3-1.5-1.5-1.5-1.6l0,0c0,0,0,0,0,0c0.1-0.1,0.2-0.3,0.6-0.7c0.1-0.1,0.1-0.2,0.1-0.3
	c0-0.1,0-0.2-0.1-0.3l-0.4-0.4C35.3,33.2,35.2,33.2,35.1,33.2z"/>
<path class="st2" d="M42.4,26.9c-0.5,0.4-1.1,0.9-1.8,1.5l-1.8,1.3c-0.1,0.1-0.1,0.2-0.2,0.3c0,0.1,0,0.2,0.1,0.3l0.4,0.5
	c0.1,0.2,0.4,0.2,0.5,0.1c0.4-0.3,0.6-0.4,0.7-0.4c0.1,0.1,0.3,0.3,0.8,0.9c0,0,1.7,2.2,1.7,2.2c1,1.3,1.7,2.2,2,2.7
	c0.1,0.1,0.1,0.2,0.1,0.2c-0.1,0.1-0.2,0.2-0.6,0.6c-0.1,0.1-0.1,0.2-0.1,0.3c0,0.1,0,0.2,0.1,0.2l0.4,0.5c0.1,0.1,0.2,0.1,0.3,0.1
	c0.1,0,0.2,0,0.3-0.1l1.8-1.5c0,0,1.1-0.8,1.1-0.8l0.7-0.5c0.1-0.1,0.1-0.2,0.2-0.3c0-0.1,0-0.2-0.1-0.3l-0.4-0.5
	c-0.1-0.2-0.4-0.2-0.5-0.1c-0.5,0.3-0.6,0.4-0.7,0.4c-0.1-0.1-0.3-0.3-0.7-0.8c0,0-2.3-3-2.3-3c-0.8-1.1-1.4-1.8-1.6-2.2
	c0-0.1-0.1-0.1-0.1-0.1c0.1-0.1,0.2-0.2,0.6-0.6c0.1-0.1,0.1-0.2,0.1-0.3c0-0.1,0-0.2-0.1-0.2L43,27c-0.1-0.1-0.2-0.1-0.3-0.1
	C42.6,26.8,42.5,26.8,42.4,26.9z"/>
<path class="st2" d="M50.6,21.9c-0.3,0.1-0.6,0.3-1,0.5l-3.3,2c0,0-2.3,1.3-2.3,1.3c-0.1,0.1-0.2,0.1-0.2,0.2c0,0.1,0,0.2,0,0.3
	l0.3,0.5c0.1,0.2,0.3,0.2,0.5,0.2c0.4-0.2,0.6-0.3,0.7-0.3c0,0,0.1,0.1,0.1,0.2c0.3,0.4,0.8,1.3,1.6,2.7c1.1,1.8,1.8,3.1,2.1,3.8
	c-0.1,0.2-0.2,0.3-0.3,0.5c0,0.1-0.1,0.1-0.1,0.2c0,0.1,0,0.1,0.1,0.2l0.2,0.3c0.1,0.1,0.1,0.2,0.2,0.2c0.1,0,0.2,0,0.3,0l2.1-1.3
	l1.7-0.9c0,0,1.3-0.7,1.3-0.7l1.1-0.7c0.2-0.1,0.2-0.3,0.1-0.5c-0.4-0.7-0.7-1.4-1-2.1c0-0.1-0.1-0.2-0.2-0.2c-0.1,0-0.2,0-0.3,0
	l-0.5,0.3c-0.1,0.1-0.2,0.2-0.2,0.3c0,0,0,0.1,0,0.1c0.1,0.4,0.3,0.8,0.4,1.2c-0.5,0.3-1,0.7-1.5,1c0,0-0.5,0.3-0.9,0.5
	c-0.4-0.6-0.8-1.3-1.4-2.3c0,0-0.1-0.2-0.2-0.3c0.2-0.1,0.4-0.3,0.4-0.3c0.8-0.5,1.1-0.6,1.3-0.7c0.1,0.1,0.2,0.3,0.5,0.7
	c0.1,0.2,0.3,0.2,0.5,0.1l0.5-0.3c0.1-0.1,0.2-0.1,0.2-0.2c0-0.1,0-0.2,0-0.3l-0.8-1.3c0,0-0.7-1.3-0.7-1.3
	c-0.1-0.1-0.1-0.2-0.2-0.2c-0.1,0-0.2,0-0.3,0l-0.5,0.3c-0.1,0.1-0.2,0.2-0.2,0.3c0,0.1,0,0.1,0,0.2c0.2,0.5,0.3,0.6,0.3,0.7
	c-0.1,0.1-0.3,0.2-0.8,0.5c0,0-0.5,0.3-0.9,0.5c-0.3-0.5-1.1-1.9-1.3-2.4c0.3-0.2,0.8-0.5,0.8-0.5c0.7-0.4,1.2-0.6,1.5-0.8
	c0,0,0,0,0.1,0c0.1,0.1,0.2,0.3,0.5,0.7c0.1,0.2,0.3,0.2,0.5,0.1l0.5-0.3c0.2-0.1,0.2-0.3,0.1-0.5c-0.4-0.7-0.7-1.3-0.8-1.8
	c0-0.1-0.1-0.2-0.2-0.2l-0.1,0C50.8,21.9,50.7,21.9,50.6,21.9z"/>
<path class="st2" d="M58.2,18.7L55,20c0,0-1.7,0.6-1.7,0.6c-0.1,0-0.2,0.1-0.2,0.2c0,0.1-0.1,0.2,0,0.3l0.2,0.5
	c0.1,0.2,0.3,0.3,0.5,0.2c0.4-0.1,0.6-0.1,0.7-0.1c0.1,0.1,0.2,0.4,0.6,1.3l1,2.8l0.8,2.2c0.2,0.6,0.2,0.8,0.3,0.9
	c-0.1,0-0.3,0.1-0.6,0.3c-0.1,0.1-0.2,0.2-0.2,0.4c0,0,0,0.1,0,0.1l0.2,0.5c0,0.1,0.1,0.2,0.2,0.2c0.1,0,0.2,0,0.3,0l2-0.8L61,29
	c0.1,0,0.2-0.1,0.2-0.2c0-0.1,0.1-0.2,0-0.3L61,27.9c-0.1-0.2-0.3-0.3-0.5-0.2c-0.5,0.2-0.7,0.2-0.7,0.2c0-0.1-0.2-0.3-0.4-0.9
	c-0.4-0.8-0.6-1.5-0.8-2.1c0,0-0.1-0.2-0.1-0.2c0.4,0.3,1.8,1.3,1.8,1.3l2.7,2c0.1,0.1,0.3,0.1,0.4,0c0.3-0.1,1-0.4,2.1-0.8l0.4-0.1
	c0.2-0.1,0.3-0.3,0.2-0.5l-0.2-0.5c-0.1-0.2-0.3-0.3-0.5-0.2C65.2,26,65.1,26,65.1,26c0,0-0.1,0-0.5-0.3l-1.7-1.2c0,0-1.3-1-1.8-1.3
	c0.5-0.5,0.8-1,1-1.5c0.1-0.3,0.1-0.5,0.1-0.8c0-0.3-0.1-0.7-0.2-1c-0.2-0.5-0.4-0.9-0.8-1.1c-0.4-0.3-0.8-0.4-1.2-0.5
	C59.6,18.3,59,18.5,58.2,18.7z M57.6,20.6c0.5-0.2,0.9-0.2,1.3-0.1c0.3,0.1,0.5,0.4,0.7,0.8c0.1,0.2,0.1,0.4,0.1,0.6
	c0,0.2-0.1,0.5-0.2,0.7c-0.2,0.4-0.5,0.6-0.8,0.8l-0.4,0.1c-0.1,0-0.2,0.1-0.2,0.2c-0.2-0.6-0.8-2.4-1-2.9
	C57.4,20.7,57.6,20.6,57.6,20.6z"/>
<path class="st2" d="M85.5,11.2c-1.1,0.1-2.1,0.1-3,0.1l-3.2,0c-0.1,0-0.2,0-0.3,0.1c-0.1,0.1-0.1,0.2-0.1,0.3c0,0,0,0.8,0,0.8
	c0,0.2,0.2,0.4,0.4,0.4c0.9,0,1.2,0.1,1.2,0.1c0,0,0.1,0.1,0.1,0.4c0.1,0.6,0.1,1.9,0.2,3.8c-0.6,0-1.4,0.1-2.4,0.1
	c-1.2,0-2.1,0-2.8,0c0-0.2,0-0.4,0-0.4l0-2.8c0-0.7,0.1-0.9,0.1-0.9c0,0,0,0,0,0c0,0,0.2-0.1,1.2-0.2c0.2,0,0.4-0.2,0.4-0.4
	c0,0,0-0.8,0-0.8c0-0.1,0-0.2-0.1-0.3c-0.1-0.1-0.2-0.1-0.3-0.1c-1,0.1-2,0.1-3.2,0.1l-3,0c-0.1,0-0.2,0-0.3,0.1
	c-0.1,0.1-0.1,0.2-0.1,0.3c0,0,0,0.8,0,0.8c0,0.2,0.2,0.4,0.4,0.4c1,0,1.2,0.1,1.3,0.1c0,0,0,0,0,0c0,0.1,0.1,0.5,0.1,2.8l0.1,5.3
	c0,0.8,0,1.3,0,1.7c0,0.5,0,0.8,0,0.9c0,0.1,0,0.2-0.1,0.2c-0.1,0-0.4,0.1-1.2,0.1c-0.2,0-0.4,0.2-0.4,0.4c0,0,0,0.8,0,0.8
	c0,0.1,0,0.2,0.1,0.3c0.1,0.1,0.2,0.1,0.3,0.1l3.2-0.1c0,0,1.9,0,1.9,0l1.1,0c0.1,0,0.2,0,0.3-0.1c0.1-0.1,0.1-0.2,0.1-0.3
	c0,0,0-0.8,0-0.8c0-0.2-0.2-0.4-0.4-0.4c-0.8,0-1.1-0.1-1.2-0.1c0-0.1-0.1-0.3-0.1-0.7c-0.1-0.8-0.1-2.1-0.2-3.8c0,0,0-0.1,0-0.3
	c0.6,0,3.2-0.1,3.2-0.1s1.5,0,2,0c0,1.2,0,2.1,0,2.9c0,0.6,0,1.1,0,1.4c0,0.3,0,0.5-0.1,0.5c-0.1,0-0.4,0.1-1.2,0.2
	c-0.2,0-0.4,0.2-0.4,0.4c0,0,0,0.8,0,0.8c0,0.1,0,0.2,0.1,0.3c0.1,0.1,0.2,0.1,0.3,0.1c1.3-0.1,2.4-0.1,3.3-0.1c0,0,1.9,0,1.9,0
	l1.1,0c0.1,0,0.2,0,0.3-0.1c0.1-0.1,0.1-0.2,0.1-0.3c0,0,0-0.8,0-0.8c0-0.2-0.2-0.4-0.4-0.4c-0.9,0-1.2-0.1-1.3-0.1c0,0,0,0,0-0.1
	c0,0-0.1-0.3-0.1-1.6c0,0-0.2-4.4-0.2-4.4c0,0,0-3.4,0-3.4c0-1,0-1.3,0.1-1.4c0,0,0.3-0.1,1.3-0.2c0.2,0,0.4-0.2,0.4-0.4
	c0,0,0-0.8,0-0.8c0-0.1,0-0.2-0.1-0.3C85.7,11.3,85.6,11.2,85.5,11.2z"/>
<path class="st2" d="M89.8,19.3c-0.5,0.1-0.9,0.3-1.3,0.5c-0.4,0.2-0.8,0.5-1,0.9c-0.3,0.4-0.5,1-0.6,1.7c-0.2,1.1-0.1,2.1,0.5,2.9
	c0.5,0.8,1.3,1.3,2.4,1.5c0.5,0.1,0.9,0.1,1.3,0.1c0.4,0,0.9-0.1,1.3-0.3c0.1,0,0.1-0.1,0.2-0.1l0.4-0.6c0.1-0.1,0.1-0.3,0-0.4
	l-0.2-0.2c-0.1-0.1-0.3-0.2-0.4-0.1c-0.2,0.1-0.5,0.1-0.7,0.2c-0.2,0-0.5,0-0.7,0c-0.5-0.1-0.9-0.3-1.2-0.7
	c-0.2-0.3-0.3-0.7-0.3-1.2c0.4,0.1,1,0.2,1,0.2l1.5,0.3c0,0,0,0,0,0l1.2,0c0.2,0,0.3-0.1,0.4-0.3l0.1-0.6c0.2-1,0.1-1.9-0.4-2.5
	c-0.5-0.6-1.1-1-2-1.1C90.9,19.1,90.3,19.1,89.8,19.3z M90,21c0.1-0.1,0.2-0.2,0.3-0.3c0.1-0.1,0.3-0.1,0.4,0c0.2,0,0.4,0.2,0.5,0.3
	c0.1,0.1,0.1,0.3,0.1,0.5c0,0.1,0,0.3-0.1,0.5c-0.3,0-0.8-0.1-0.8-0.1s-0.5-0.1-0.8-0.2C89.9,21.3,90,21.1,90,21z"/>
<path class="st2" d="M92,16.5c-0.1,0-0.3,0.1-1,0.6l-1.9,1.2c-0.1,0.1-0.2,0.2-0.2,0.4c0,0.2,0.2,0.3,0.3,0.3l0.7,0.1
	c0.1,0,0.1,0,0.2,0l1.9-0.6c0.7-0.2,0.9-0.3,1.1-0.4c0.2-0.1,0.3-0.3,0.3-0.6c0-0.3,0-0.5-0.2-0.7c-0.1-0.2-0.4-0.3-0.6-0.4
	C92.5,16.4,92.3,16.4,92,16.5z"/>
<path class="st2" d="M94.9,20.9l-0.2,0.5c0,0,0,0.1,0,0.1c0,0.2,0.1,0.3,0.3,0.4c0.3,0.1,0.5,0.2,0.6,0.2c0,0.1-0.1,0.6-0.5,1.8
	l-0.6,1.8c-0.1,0.3-0.2,0.4-0.2,0.5c-0.1,0-0.2,0-0.6-0.1c-0.2-0.1-0.4,0.1-0.5,0.3L93,26.9c0,0.1,0,0.2,0,0.3
	c0,0.1,0.1,0.2,0.2,0.2l0.8,0.2c0,0,1.1,0.3,1.1,0.3l1.2,0.4l0.7,0.3c0.1,0,0.2,0,0.3,0c0.1,0,0.2-0.1,0.2-0.2l0.2-0.6
	c0,0,0-0.1,0-0.1c0-0.2-0.1-0.3-0.3-0.4c-0.5-0.2-0.7-0.3-0.7-0.3l0,0c0-0.1,0.1-0.5,0.6-1.9c0.3-1,0.4-1.2,0.4-1.3
	c0.1-0.1,0.2-0.1,0.3-0.2c0.2-0.1,0.3,0,0.5,0c0.2,0,0.2,0.1,0.3,0.1c0,0,0.1,0.1,0.1,0.3c0,0.2,0.2,0.3,0.4,0.3l0.3,0
	c0.2,0,0.3-0.1,0.4-0.3c0.3-0.7,0.5-1.3,0.7-1.7c0.1-0.2,0-0.4-0.1-0.5c-0.2-0.1-0.3-0.2-0.5-0.3c-0.3-0.1-0.6-0.1-0.8-0.1
	c-0.2,0-0.5,0.2-0.8,0.4c0,0-0.1,0-0.1,0.1c0-0.1,0.1-0.2,0.1-0.2l0-0.1c0-0.1,0-0.1,0-0.2c0-0.2-0.1-0.4-0.3-0.5c0,0-0.1,0-0.1,0
	l-0.8,0c-0.4,0-1-0.1-1.9-0.3C95.2,20.6,95,20.8,94.9,20.9z"/>
<path class="st2" d="M101.7,23.2c-0.1,0-0.3,0.1-0.3,0.2l-0.1,0.3l-0.1,0.3l-0.1,0.3c-0.1,0.2,0,0.4,0.1,0.5l0.4,0.3
	c0.1,0.1,0.4,0.1,0.5,0c0,0,0.3-0.3,0.5-0.4c0.1,0,0.2,0,0.2,0c0,0,0.3,0.1,0.3,0.1c0.4,0.2,0.6,0.4,0.6,0.7c0,0,0,0.1,0,0.1
	c0,0.1,0,0.3-0.1,0.5c-1.5-0.3-2.5-0.4-3.1-0.3c-0.6,0.1-1,0.6-1.4,1.3c-0.3,0.6-0.3,1.1-0.2,1.6c0.2,0.5,0.5,0.9,1.1,1.1
	c0.2,0.1,0.5,0.2,0.7,0.2c0.1,0,0.1,0,0.2,0c0,0,0.5-0.1,1-0.2c0,0-0.1,0.1-0.1,0.1c0,0.1,0,0.1,0,0.2c0,0,0,0.1,0,0.1l0,0.1
	c0,0.1,0.1,0.2,0.2,0.2l1.1,0.5l0.7,0.4l0.5,0.2c0.1,0,0.2,0.1,0.3,0c0.1,0,0.2-0.1,0.2-0.2l0.2-0.5c0-0.1,0-0.1,0-0.2
	c0-0.1-0.1-0.3-0.2-0.3c-0.3-0.2-0.4-0.2-0.5-0.3c0-0.1,0.1-0.3,0.3-0.8l0.6-1.3l0.5-1.1c0.2-0.5,0.3-0.9,0.3-1.3c0-0.1,0-0.1,0-0.1
	c0-0.4-0.2-0.8-0.5-1.1c-0.3-0.3-0.7-0.6-1.3-0.9c-0.4-0.2-0.8-0.3-1-0.3C103.2,23.1,102.6,23.1,101.7,23.2z M101.8,28.4
	c-0.1-0.1-0.2-0.1-0.2-0.2c0-0.1,0-0.3,0-0.4c0.1-0.2,0.2-0.3,0.4-0.4c0.1,0,0.4-0.1,1,0c-0.2,0.4-0.4,0.8-0.4,1
	C102.3,28.4,102,28.5,101.8,28.4z"/>
<path class="st2" d="M108.1,26l-0.3,0.4c0,0.1-0.1,0.1-0.1,0.2c0,0.1,0.1,0.2,0.2,0.3c0.3,0.2,0.4,0.3,0.5,0.4
	c0,0.1-0.2,0.4-0.7,1.2l-1,1.6c-0.3,0.5-0.5,0.9-0.5,1.3c0,0,0,0.1,0,0.1c0,0.3,0.1,0.7,0.3,1c0.2,0.4,0.5,0.7,0.9,1
	c0.3,0.2,0.7,0.3,1.1,0.4c0,0,0.1,0,0.2,0c0.2-0.1,0.5-0.1,0.7-0.1c0,0-0.1,0.1-0.1,0.1c0,0.1-0.1,0.1-0.1,0.2l0,0.1c0,0,0,0,0,0
	c0,0.1,0.1,0.3,0.2,0.3l1,0.6l1.3,0.9c0.1,0.1,0.2,0.1,0.3,0.1c0.1,0,0.2-0.1,0.3-0.2l0.3-0.5c0-0.1,0.1-0.1,0.1-0.2
	c0-0.1-0.1-0.2-0.2-0.3c-0.3-0.2-0.4-0.3-0.5-0.4c0-0.1,0.2-0.3,0.5-0.9c1.1-1.8,2-3,2.4-3.6l0.1-0.2c0,0,0.1-0.4,0.1-0.4l-0.2-0.3
	c-0.1-0.1,0,0-0.1-0.1l-0.8-0.2c-0.4-0.1-1.1-0.4-1.9-0.8c-0.2-0.1-0.4,0-0.5,0.1l-0.3,0.4c0,0.1-0.1,0.1-0.1,0.2
	c0,0.1,0.1,0.2,0.2,0.3c0.3,0.2,0.5,0.4,0.6,0.4c-0.1,0.1-0.2,0.4-0.7,1.1c-0.7,1.1-0.9,1.4-1,1.5c-0.1,0.1-0.3,0.1-0.5,0.2
	c-0.2,0-0.4,0-0.7-0.2c-0.2-0.1-0.3-0.2-0.3-0.3c0-0.1-0.1-0.2,0-0.4c0-0.1,0.1-0.4,0.6-1c0.5-0.8,1.1-1.7,1.7-2.5l0.2-0.3
	c0.2-0.3,0.1-0.6-0.1-0.8c0,0-0.1,0-0.1-0.1l-0.7-0.2c-0.6-0.2-1.2-0.4-1.9-0.7C108.4,25.8,108.2,25.8,108.1,26z"/>
<path class="st2" d="M118.1,28.4l-0.3,0.3c-0.1,0.1-0.1,0.2-0.1,0.2c0,0.1,0,0.2,0.1,0.3c0.3,0.3,0.4,0.4,0.5,0.5
	c-0.1,0.1-0.3,0.4-0.8,1.1l-1.9,2.3l-1.9,2.3c-0.2,0.3-0.4,0.4-0.4,0.4c0,0-0.1,0-0.1-0.1l-0.4-0.3c-0.2-0.1-0.4-0.1-0.5,0.1
	l-0.4,0.4c-0.1,0.1-0.1,0.2-0.1,0.3c0,0.1,0.1,0.2,0.1,0.3l1.7,1.3c0,0,0.9,0.7,0.9,0.7l0.6,0.5c0.1,0.1,0.2,0.1,0.3,0.1
	c0.1,0,0.2-0.1,0.3-0.1l0.4-0.4c0.1-0.1,0.1-0.2,0.1-0.2c0-0.1,0-0.2-0.1-0.3c-0.3-0.3-0.4-0.4-0.5-0.5c0-0.1,0.1-0.2,0.3-0.4
	c0,0,1.1-1.4,1.1-1.4c1.9-2.3,3.4-4.1,4.5-5.3c0.1-0.1,0.1-0.2,0.1-0.3c0,0,0,0,0-0.1l0-0.2c0-0.1-0.1-0.3-0.3-0.3
	c-0.4-0.1-0.8-0.3-1.2-0.5c-0.3-0.2-0.8-0.4-1.4-0.8C118.4,28.2,118.2,28.2,118.1,28.4z"/>
<path class="st2" d="M122,33.5c0,0-1.1,1.2-1.3,1.4c-0.3-0.1-0.9-0.2-0.9-0.2c-0.1,0-0.3,0-0.4,0.1l-0.3,0.3
	c-0.1,0.1-0.1,0.2-0.1,0.3c0,0,0,0,0,0c0,0.1,0.1,0.2,0.1,0.3c0,0,0.3,0.3,0.4,0.3c-0.4,0.3-1.1,1.1-1.1,1.1c0,0-1.3,1.2-1.3,1.2
	c-0.3,0.4-0.6,0.7-0.6,1c0,0.1-0.1,0.3-0.1,0.4c0,0.2,0,0.4,0.1,0.6c0.1,0.3,0.3,0.7,0.6,1c0,0,0.3,0.3,0.3,0.3c0,0,0.4,0.3,0.4,0.3
	c0.1,0.1,0.2,0.1,0.3,0.1l1.2-0.1c0.1,0,0.3-0.1,0.3-0.3l0.1-0.3c0,0,0-0.1,0-0.1c0-0.1-0.1-0.3-0.2-0.4l-0.3-0.2
	c0,0-0.2-0.2-0.2-0.2c-0.1-0.1-0.2-0.2-0.2-0.2c0,0,0,0,0,0c0-0.1,0.2-0.4,1.7-1.9c0,0,0.4-0.4,0.6-0.6c0.1,0.1,0.1,0.1,0.1,0.1
	l0.8,0.9c0.1,0.1,0.4,0.2,0.5,0.1l0.6-0.4l0.2-0.1c0.1-0.1,0.2-0.2,0.2-0.3c0,0,0-0.1,0-0.1l0-0.1c0-0.1-0.1-0.2-0.1-0.2
	c-0.3-0.2-0.6-0.5-0.9-0.8c0,0-0.1-0.1-0.2-0.2c0.7-0.6,1.3-1.2,1.8-1.5c0.1-0.1,0.2-0.2,0.2-0.3c0,0,0,0,0-0.1l0-0.3
	c0-0.1-0.1-0.3-0.3-0.3c-0.6-0.2-1.2-0.4-1.7-0.7C122.4,33.4,122.2,33.4,122,33.5z"/>
<path class="st2" d="M130.7,41.4c-0.7,0.4-1.2,0.9-1.5,1.5c-0.3,0.6-0.4,1.2-0.4,1.9c0.1,0.6,0.4,1.6,1,3.1c0.5,1.1,0.5,1.6,0.4,1.9
	c-0.1,0.4-0.4,0.7-0.8,1c-0.5,0.3-1.1,0.4-1.7,0.2c-0.6-0.2-1.1-0.6-1.5-1.3c-0.3-0.4-0.4-0.9-0.6-1.3c-0.1-0.5-0.1-0.9-0.1-1.2
	c0.1-0.5,0.2-0.6,0.2-0.6c0,0,0.2-0.2,1.3-0.9c0.2-0.1,0.2-0.4,0.1-0.5l-0.4-0.7c-0.1-0.2-0.3-0.2-0.5-0.1c-0.7,0.4-1.3,0.8-1.8,1
	c-0.3,0.2-0.7,0.3-1.1,0.4c-0.2,0.1-0.3,0.2-0.3,0.4c0.1,0.8,0.2,1.6,0.4,2.2c0.2,0.7,0.6,1.4,1,2.1c1,1.6,2.2,2.6,3.6,3.1
	c1.4,0.4,2.8,0.3,4-0.5c0.7-0.5,1.2-1,1.5-1.6c0.3-0.6,0.4-1.3,0.3-2c-0.1-0.4-0.3-1.1-0.8-2.2c-0.6-1.3-0.7-1.9-0.8-2.1
	c-0.1-0.3,0-0.6,0.1-0.8c0.1-0.3,0.3-0.5,0.6-0.7c0.5-0.3,1-0.4,1.5-0.2c0.5,0.2,1,0.6,1.4,1.2c0.3,0.5,0.5,1,0.5,1.5
	c0,0.2,0,0.3,0,0.5c0,0.3,0,0.4-0.1,0.4c-0.1,0.1-0.3,0.3-1.2,0.9c-0.1,0.1-0.2,0.2-0.2,0.3c0,0.1,0,0.1,0.1,0.2l0.4,0.7
	c0.1,0.2,0.3,0.2,0.5,0.1c0.7-0.4,1.2-0.7,1.5-0.8c0.3-0.1,0.6-0.3,1-0.4c0.1,0,0.1-0.1,0.2-0.1l0.1-0.2c0.1-0.1,0.1-0.2,0.1-0.3
	c-0.1-0.6-0.2-1.2-0.5-1.8c-0.2-0.6-0.5-1.2-0.9-1.8c-1-1.7-2.2-2.6-3.5-2.9C133,40.5,131.8,40.7,130.7,41.4z"/>
<path class="st2" d="M134.1,53.4l-0.5,0.2c-0.1,0-0.2,0.1-0.2,0.2c0,0,0,0.1,0,0.2c0,0,0,0.1,0,0.1c0.1,0.3,0.2,0.5,0.2,0.6
	c-0.1,0.1-0.4,0.2-1.1,0.5l-2.6,1l-2.5,0.9c-0.7,0.3-1,0.4-1.2,0.4c0-0.1-0.1-0.2-0.3-0.6c-0.1-0.2-0.3-0.3-0.5-0.2l-0.5,0.2
	c-0.1,0-0.2,0.1-0.2,0.2c0,0.1,0,0.2,0,0.3c0.2,0.4,0.5,1,0.8,2c0,0,0.6,1.8,0.6,1.8c0,0.1,0.1,0.2,0.2,0.2c0.1,0,0.2,0,0.3,0
	l0.5-0.2c0.1,0,0.2-0.1,0.2-0.2c0,0,0-0.1,0-0.2c0,0,0-0.1,0-0.1c-0.2-0.4-0.2-0.6-0.2-0.7c0.1,0,0.2-0.1,0.5-0.3
	c0,0,0.9-0.4,1.4-0.6c0,0,0,0.1,0,0.1c0,0.2,0.1,0.5,0.2,0.7c0.2,0.4,0.4,0.7,0.7,1c0.1,0.1,0.3,0.2,1.4,0.9
	c0.5,0.3,0.9,0.5,1.2,0.5c0.3,0.1,0.7,0.1,1.2,0.1c0.5,0,0.9-0.1,1.3-0.3c0.9-0.3,1.5-0.9,1.8-1.6c0.2-0.4,0.2-0.7,0.2-1.1
	c0-0.4-0.1-0.8-0.2-1.2c-0.2-0.6-0.5-1-0.9-1.2c0,0-0.3-0.2-0.5-0.3c0.1,0,0.2-0.1,0.2-0.1c0,0,0.3-0.3,0.3-0.3s0-0.4,0-0.4
	c0-0.1,0,0-0.1-0.1l-0.5-0.6c-0.3-0.4-0.7-1-1-1.7C134.5,53.4,134.3,53.3,134.1,53.4z M134,57.3c0.2,0.1,0.4,0.2,0.5,0.3
	c0.2,0.1,0.3,0.3,0.3,0.5c0.1,0.1,0.1,0.3,0.1,0.4c0,0.2-0.1,0.4-0.2,0.6c-0.2,0.3-0.6,0.6-1.2,0.9c-0.8,0.3-1.4,0.4-1.8,0.3
	c-0.4-0.1-0.6-0.3-0.7-0.6c-0.1-0.2-0.1-0.3-0.1-0.5c0-0.1,0-0.1,0-0.2c0-0.2,0.1-0.4,0.2-0.6C131.4,58.3,133.7,57.4,134,57.3z"/>
<path class="st2" d="M134.7,63.1L134.7,63.1c-1.2,0.3-2.1,0.8-2.6,1.5c-0.5,0.8-0.6,1.7-0.4,2.9c0.3,1.2,0.8,2,1.7,2.5
	c0.8,0.5,1.9,0.6,3.1,0.4c1.2-0.3,2.1-0.8,2.5-1.5c0.5-0.7,0.5-1.7,0.3-2.9c-0.3-1.2-0.9-2.1-1.7-2.7
	C136.9,62.9,135.9,62.9,134.7,63.1z M133.7,68c-0.3-0.1-0.4-0.3-0.5-0.6c-0.1-0.3,0-0.6,0.2-0.8c0.4-0.4,1.2-0.7,2.3-0.9l0,0
	c0.9-0.2,1.4-0.1,1.6,0c0.3,0.1,0.4,0.3,0.5,0.6c0.1,0.4,0,0.6-0.2,0.8c-0.2,0.2-0.8,0.6-2.2,0.9C134.4,68.2,133.9,68.1,133.7,68z"
	/>
<path class="st2" d="M139.2,70.7l-0.5,0c-0.2,0-0.4,0.2-0.4,0.4c0,0,0,0,0,0c0,0.2,0,0.4,0,0.5c0,0.1,0,0.1,0,0.1
	c-0.1,0-0.6,0.1-1.8,0.2l-1.8,0.1c-0.3,0-0.5,0-0.5,0c0-0.1-0.1-0.2-0.1-0.6c0-0.2-0.2-0.3-0.4-0.3l-0.6,0.1c-0.1,0-0.2,0.1-0.3,0.1
	c-0.1,0.1-0.1,0.2-0.1,0.3l0.1,0.8c0,0,0.1,1.2,0.1,1.2l0.1,1.3l0,0.8c0,0.1,0.1,0.2,0.1,0.3c0.1,0.1,0.2,0.1,0.3,0.1l0.6-0.1
	c0.2,0,0.4-0.2,0.4-0.4c0,0,0,0,0,0c0-0.2,0-0.3,0-0.4c0-0.2,0-0.3,0-0.4l0,0c0.1,0,0.5-0.1,2-0.2c1.1-0.1,1.3-0.1,1.3-0.1
	c0.1,0,0.2,0.1,0.3,0.2c0.1,0.1,0.2,0.3,0.2,0.5c0,0.2,0,0.3,0,0.3c0,0-0.1,0.1-0.2,0.2c-0.2,0.1-0.2,0.3-0.1,0.5l0.1,0.3
	c0.1,0.1,0.2,0.2,0.4,0.2c0.8-0.1,1.4-0.1,1.9-0.1c0.2,0,0.3-0.1,0.4-0.3c0-0.1,0.1-0.3,0.1-0.4c0-0.1,0-0.1,0-0.2
	c0-0.3-0.1-0.6-0.2-0.8c-0.1-0.2-0.3-0.4-0.7-0.6c0,0-0.1,0-0.1-0.1c0.1,0,0.2,0,0.2,0l0.1,0c0,0,0.4-0.2,0.4-0.2l0.1-0.3
	c0,0,0,0,0-0.1c0,0,0,0,0-0.1l-0.3-0.7c-0.1-0.3-0.3-1-0.5-1.9C139.6,70.8,139.4,70.7,139.2,70.7z"/>
<path class="st2" d="M138.8,76.7c-0.1,0-0.2,0.1-0.3,0.1c-0.1,0.1-0.1,0.2-0.1,0.3c0,0,0,0,0,0c0,0,0,0.4,0,0.5c-0.5,0-1.6,0-1.6,0
	c0,0-1.8,0-1.8,0c-0.5,0-0.9,0.1-1.1,0.2c-0.3,0.2-0.5,0.4-0.7,0.7c-0.2,0.3-0.2,0.7-0.2,1.2c0,0,0,0.4,0,0.4c0,0,0.1,0.5,0.1,0.5
	c0,0.1,0.1,0.2,0.1,0.2l1,0.8c0.1,0.1,0.3,0.1,0.4,0.1l0.3-0.1c0.2-0.1,0.3-0.3,0.2-0.5l-0.1-0.3l0-0.3c0-0.1,0-0.3,0.1-0.3
	c0.1,0,0.5-0.1,2.5-0.1c0,0,0.5,0,0.9,0c0,0.1,0,0.2,0,0.2c0,0-0.1,1.2-0.1,1.2c0,0,0,0,0,0c0,0.2,0.1,0.4,0.3,0.4l0.7,0.1l0.3,0.1
	c0.2,0,0.3,0,0.4-0.2l0-0.1c0-0.1,0.1-0.1,0.1-0.2c0,0,0,0,0-0.1c0-0.3-0.1-0.7-0.1-1.2c0,0,0,0,0,0c0,0,0-0.1,0-0.2
	c0.9,0,1.7,0.1,2.3,0.2c0.1,0,0.3,0,0.4-0.1L143,80c0.1-0.1,0.1-0.3,0-0.4c-0.3-0.5-0.5-1.1-0.7-1.7c-0.1-0.2-0.2-0.3-0.4-0.3
	c0,0-1.6,0-1.9,0.1c-0.2-0.2-0.5-0.8-0.5-0.8c-0.1-0.1-0.2-0.2-0.3-0.2L138.8,76.7C138.8,76.7,138.8,76.7,138.8,76.7z"/>
<path class="st2" d="M136.1,88.5c-1.3,0.3-2.4,1-3.3,2c-0.9,1-1.6,2.4-2,4c-0.2,0.9-0.4,1.7-0.4,2.4c0,0.7,0.1,1.5,0.2,2.4
	c0,0.1,0.1,0.2,0.1,0.2c0.3,0.2,0.5,0.4,0.8,0.7c0.1,0.1,0.3,0.1,0.5,0l0.3-0.2c0.1-0.1,0.2-0.2,0.2-0.4c-0.1-0.8-0.2-1.4-0.2-2
	c0-0.6,0.1-1.2,0.3-1.8c0.4-1.6,1.2-2.7,2.4-3.3c1.3-0.7,2.8-0.8,4.5-0.4c1.5,0.4,2.7,1.1,3.3,2.2c0.4,0.7,0.6,1.4,0.6,2.1
	c0,0.5-0.1,0.9-0.2,1.4c-0.2,0.6-0.4,1.1-0.6,1.5c-0.3,0.4-0.5,0.8-0.8,1c-0.3,0.2-0.4,0.3-0.4,0.3c-0.1,0-0.3,0-1.5-0.3
	c-0.2,0-0.4,0.1-0.5,0.3l-0.2,0.8c-0.1,0.2,0.1,0.4,0.3,0.5c0.8,0.3,1.4,0.5,1.9,0.7c0.3,0.1,0.6,0.3,0.8,0.5
	c0.1,0.1,0.2,0.1,0.3,0.1l0.2,0c0.1,0,0.2-0.1,0.2-0.2c0.5-0.7,0.9-1.4,1.3-2.2c0.4-0.8,0.7-1.6,0.9-2.4c0.7-2.5,0.5-4.6-0.4-6.4
	c-0.9-1.8-2.4-3-4.5-3.5C138.7,88.2,137.4,88.1,136.1,88.5z"/>
<path class="st2" d="M129.3,99.6c-0.1,0-0.2,0.1-0.2,0.2l-0.8,1.9c0,0-0.5,1-0.5,1l-0.3,0.7c0,0.1-0.1,0.2,0,0.3
	c0,0.1,0.1,0.2,0.2,0.2l0.5,0.2c0.2,0.1,0.4,0,0.5-0.2c0.2-0.4,0.3-0.5,0.3-0.6c0.1,0,0.2,0.1,0.5,0.2c0,0,1.7,0.7,1.7,0.7
	c2.7,1.2,4.8,2.3,6.3,3c0.1,0.1,0.2,0.1,0.3,0l0.2-0.1c0.1-0.1,0.2-0.2,0.2-0.3c0-0.5,0.1-0.9,0.2-1.3c0.1-0.4,0.2-0.9,0.4-1.5
	c0.1-0.2,0-0.4-0.2-0.5l-0.4-0.2c-0.2-0.1-0.4,0-0.5,0.2c-0.2,0.4-0.3,0.5-0.3,0.6c-0.1,0-0.5-0.2-1.2-0.5l-2.7-1.2l-2.7-1.3
	c-0.3-0.2-0.5-0.3-0.5-0.3c0,0,0-0.1,0.1-0.1l0.2-0.5c0,0,0-0.1,0-0.1c0-0.1-0.1-0.3-0.2-0.4l-0.5-0.2
	C129.5,99.6,129.4,99.6,129.3,99.6z"/>
<path class="st2" d="M126.5,105.6c-0.4,0.2-0.7,0.5-0.9,0.9c-0.2,0.3-0.3,0.7-0.4,1.1c0,0,0,0,0,0.1c0,0,0,0.1,0,0.1
	c0.1,0.2,0.1,0.5,0.1,0.7c0,0-0.1-0.1-0.1-0.1c-0.1,0-0.1-0.1-0.2-0.1l-0.1,0c-0.2,0-0.3,0.1-0.4,0.2l-0.6,1l-0.9,1.3
	c-0.1,0.1-0.1,0.2-0.1,0.3c0,0.1,0.1,0.2,0.2,0.3l0.5,0.3c0.2,0.1,0.4,0.1,0.5-0.1c0.2-0.3,0.3-0.4,0.4-0.5c0.1,0,0.3,0.2,0.9,0.5
	c1.8,1.1,3,1.9,3.7,2.4l0.2,0.1c0.3,0.2,0.6,0.1,0.7-0.1c0,0,0-0.1,0-0.1l0.2-0.8c0.1-0.4,0.4-1.1,0.8-1.9c0.1-0.2,0-0.4-0.1-0.5
	l-0.5-0.3c-0.2-0.1-0.4-0.1-0.5,0.1c-0.2,0.3-0.3,0.5-0.4,0.6c-0.1-0.1-0.4-0.2-1.1-0.6c-1.1-0.7-1.4-0.9-1.5-1
	c-0.1-0.1-0.1-0.3-0.2-0.5c0,0,0-0.1,0-0.1c0-0.2,0.1-0.4,0.2-0.6c0.1-0.2,0.2-0.3,0.3-0.3c0.1,0,0.2-0.1,0.3,0c0.1,0,0.4,0.1,1,0.5
	c0.8,0.5,1.7,1.1,2.6,1.7l0.3,0.2c0.3,0.2,0.6,0.1,0.8-0.1c0,0,0-0.1,0.1-0.1l0.1-0.7c0.2-0.6,0.4-1.2,0.7-1.9
	c0.1-0.2,0-0.4-0.1-0.5l-0.5-0.3c-0.2-0.1-0.4-0.1-0.5,0.1c-0.2,0.3-0.3,0.4-0.4,0.5c-0.1,0-0.4-0.2-1.2-0.7l-1.6-1
	c-0.5-0.3-0.9-0.5-1.3-0.5C127.2,105.3,126.9,105.4,126.5,105.6z"/>
<path class="st2" d="M122.3,111.7l-0.3,0.2c-0.1,0.1-0.2,0.2-0.2,0.4c0,0,0,0.3,0,0.5c-0.3,0.1-0.5,0.2-0.7,0.4
	c-0.3,0.2-0.5,0.4-0.7,0.7c-0.2,0.3-0.4,0.5-0.5,0.8c-0.1,0.3-0.2,0.6-0.2,1c0,0-0.1,1.2-0.1,1.2c0,0.2,0,0.3,0,0.5
	c0,0.3,0,0.5,0.1,0.7c0.1,0.4,0.3,0.7,0.5,1.2c0.3,0.4,0.5,0.8,0.9,1c0.7,0.6,1.4,0.9,2.2,0.8c0.8,0,1.5-0.4,2.1-1.1
	c0.2-0.3,0.4-0.5,0.5-0.8c0.1-0.3,0.1-0.6,0.2-1c0,0,0-0.2,0-0.3c0.8,0.7,2.3,2.1,2.3,2.1l0.5,0.5c0.3,0.3,0.6,0.2,0.8,0
	c0,0,0.1-0.1,0.1-0.1l0.1-0.3c0.1-0.3,0.3-0.6,0.5-1.1c0.3-0.6,0.5-0.9,0.6-1c0.1-0.1,0.1-0.2,0.1-0.3c0-0.1-0.1-0.2-0.1-0.3
	l-0.4-0.3c-0.2-0.1-0.4-0.1-0.5,0c-0.3,0.3-0.4,0.4-0.5,0.5c0,0-0.1-0.1-0.2-0.2l-1.4-1.1c0,0-1.6-1.3-1.6-1.3
	c-1.5-1.3-2.6-2.3-3.4-3.1C122.6,111.7,122.5,111.6,122.3,111.7z M123.3,118.3c-0.4,0-0.9-0.2-1.4-0.7c-0.5-0.5-0.9-0.9-0.9-1.3
	c-0.1-0.4,0-0.7,0.2-1c0.2-0.2,0.3-0.3,0.5-0.4c0.2-0.1,0.4-0.1,0.6-0.1c0.2,0.1,2,1.7,2.2,1.9c0,0.1,0,0.2,0,0.2c0,0.1,0,0.2,0,0.3
	c0,0.2-0.1,0.4-0.3,0.5C124,118.2,123.7,118.3,123.3,118.3z"/>
<path class="st2" d="M66.7,131c-1.7,0.2-3.7,0.3-6.2,0.3c-0.1,0-0.2,0-0.3,0.1l-0.1,0.1c-0.1,0.1-0.1,0.2-0.1,0.3
	c0,0.3,0,0.7-0.1,1.1c0,0.1,0,0.2,0.1,0.3l0.1,0.1c0.1,0.1,0.2,0.1,0.3,0.1c0,0,2.6-0.4,2.7-0.4c-0.1,0.3-0.2,1-0.7,2.7
	c-0.4,1.3-0.8,2.9-1.4,4.6c-0.4,1.4-0.6,1.6-0.6,1.6c0,0,0,0-0.1,0c0,0-0.4,0-1.9-0.3c-0.1,0-0.2,0-0.3,0.1l-0.1,0.1
	c-0.1,0.1-0.1,0.1-0.1,0.2l-0.2,0.6c0,0.1,0,0.2,0,0.3l0.1,0.1c0,0.1,0.1,0.2,0.3,0.2c1.3,0.3,2.5,0.6,3.7,0.9l2.3,0.7l1.1,0.3
	c0.1,0,0.2,0,0.3,0l0.1-0.1c0.1-0.1,0.2-0.1,0.2-0.2l0.2-0.6c0,0,0-0.1,0-0.1c0-0.1,0-0.1,0-0.2l-0.1-0.1c0-0.1-0.1-0.1-0.2-0.2
	c-1.3-0.4-1.6-0.6-1.7-0.6c0,0,0,0,0-0.1c0,0,0,0,0,0c0-0.2,0.1-0.9,0.6-2.6c0.6-2.1,1.1-3.8,1.5-5.3c0.4-1.4,0.8-2.6,1.1-3.4
	c0,0,0-0.1,0-0.1c0-0.1,0-0.2-0.1-0.3l-0.2-0.2C67,131,66.8,131,66.7,131z"/>
<path class="st2" d="M71.4,133.4c-1,0.9-1.5,2-1.6,3.5c-0.1,1.2,0.1,2.3,0.7,3c0.6,0.8,1.4,1.2,2.4,1.3c0.6,0.1,1.2,0,1.6-0.2
	c0.1-0.1,0.4-0.2,0.9-0.6c-0.2,1-0.5,1.8-0.8,2.3c-0.4,0.7-0.9,1.2-1.5,1.6c-0.6,0.3-1.2,0.5-1.9,0.4l-0.8-0.1c-0.1,0-0.3,0-0.4,0.1
	l-0.3,0.3c-0.1,0.2-0.1,0.4,0,0.5l0.7,0.7c0.1,0.1,0.2,0.1,0.2,0.1c1.5,0.1,2.8-0.2,4-0.9c1.2-0.6,2.2-1.6,2.9-2.7
	c0.7-1.1,1.1-2.6,1.3-4.5c0.1-1.3,0-2.5-0.3-3.3c-0.3-0.9-0.8-1.6-1.5-2.1c-0.7-0.5-1.5-0.8-2.4-0.9
	C73.5,132.1,72.3,132.5,71.4,133.4z M74.3,138.9L74.3,138.9c-0.5,0-0.8-0.2-1-0.6c-0.3-0.5-0.4-1.2-0.3-2.2c0.1-0.8,0.3-1.4,0.5-1.7
	c0.3-0.3,0.6-0.4,1-0.4c0.5,0,0.8,0.3,1,0.7c0.3,0.5,0.4,1.3,0.3,2.5c-0.1,0.7-0.2,1.1-0.5,1.4C75,138.8,74.7,138.9,74.3,138.9z"/>
<path class="st2" d="M89.2,132l-3.2,0.3c-1.9,0.2-3.8,0.3-5.7,0.4c-0.1,0-0.2,0.1-0.3,0.1l-0.1,0.2c-0.1,0.1-0.1,0.2-0.1,0.3
	c0.1,0.8,0.2,1.5,0.2,2.1c0.1,0.9,0.1,1.8,0.1,2.5c0,0.1,0,0.2,0.1,0.3c0.1,0.1,0.2,0.1,0.3,0.1l0.8,0c0.1,0,0.2-0.1,0.3-0.2
	l0.1-0.1c0-0.1,0.1-0.1,0.1-0.2c0-1.3,0.1-1.7,0.1-1.7c0,0,0-0.1,0-0.1c0,0,0.3-0.1,1.6-0.2l1.7-0.1c0,0,0.9-0.1,1.4-0.1
	c-0.3,0.7-1.2,2.7-1.2,2.7l-2.2,4.6l-1.6,3.1c0,0.1,0,0.1,0,0.2c0,0.1,0,0.1,0,0.2l0.1,0.3c0.1,0.2,0.2,0.3,0.4,0.2
	c0.4-0.1,0.8-0.1,1.1-0.2l1.1,0c0.2,0,0.3-0.1,0.4-0.3c0.3-1.2,0.9-3.1,1.8-5.6c0.9-2.5,1.9-4.9,3-7.2c0-0.1,0-0.1,0-0.2l-0.1-0.9
	c0-0.1-0.1-0.2-0.1-0.3C89.4,132,89.3,132,89.2,132z"/>
<path class="st2" d="M96,130.1c-0.9,0.5-1.6,0.8-2.2,1.1c-0.1,0-0.2,0.1-0.2,0.2c-0.5,1.4-1,3-1.5,4.8c-0.5,1.8-0.8,3.5-1,5
	c0,0.1,0,0.1,0,0.2l0.2,0.5l0.1,0.2c0.1,0.2,0.3,0.3,0.5,0.2c0,0,3.6-1,4.2-1.2c0.3,1.2,0.3,1.5,0.3,1.5c0,0,0,0,0,0
	c0,0,0,0-0.1,0.1c0,0-0.3,0.1-1.6,0.6c-0.1,0-0.1,0.1-0.2,0.1l-0.1,0.1c0,0.1-0.1,0.1-0.1,0.2c0,0,0,0.1,0,0.1l0.2,0.7
	c0,0.1,0.1,0.2,0.2,0.2l0.1,0.1c0.1,0,0.2,0.1,0.3,0l2-0.6c0,0,1.2-0.3,1.2-0.3c0.8-0.2,1.8-0.5,3-0.7c0.1,0,0.2-0.1,0.2-0.1
	l0.1-0.1c0.1-0.1,0.1-0.2,0.1-0.3l-0.2-0.7c0-0.1-0.1-0.2-0.3-0.3l-0.1,0c-0.1,0-0.1,0-0.2,0c-0.9,0.2-1.2,0.2-1.3,0.2
	c-0.1-0.1-0.2-0.5-0.5-1.5c0,0,0,0,0,0c0.4-0.1,0.9-0.2,1.3-0.3c0.2,0,0.3-0.1,0.3-0.3l0-0.1c0,0,0-0.1,0-0.1c0,0,0-0.1,0-0.1
	l-0.2-0.6l-0.2-0.8c0-0.1,0-0.1-0.1-0.1l-0.1-0.1c-0.1-0.1-0.3-0.2-0.4-0.1c0,0-0.8,0.2-1.3,0.4c-0.2-0.7-1.2-4.9-1.2-4.9
	c0,0-0.6-2.7-0.6-2.7c0-0.1-0.1-0.2-0.2-0.3l-0.3-0.1C96.3,130,96.1,130,96,130.1z M93.8,136.1c0.2-0.8,0.4-1.4,0.5-1.9
	c0.4,1.5,1,4.1,1.2,4.6c-0.4,0.1-1.4,0.5-1.4,0.5c-0.3,0.1-0.6,0.2-1,0.2C93.3,138.5,93.5,137.4,93.8,136.1z"/>
<circle class="st0" cx="79.6" cy="79.2" r="49.1"/>
<polygon class="st2" points="109.8,126.2 106.6,133.3 114.4,133.2 117.6,126.1 "/>
<polygon class="st2" points="49.4,126.2 41.7,126.2 44.9,133.2 52.7,133.3 "/>
<circle class="st3" cx="79.6" cy="79.2" r="47.3"/>
<circle class="st0" cx="79.6" cy="79.2" r="38.8"/>
<path class="st1" d="M104.9,52.1c-3.7-3.5-8.2-6.2-13.1-7.9L42.7,82.9c0.5,5.3,2.1,10.2,4.6,14.6L104.9,52.1z"/>
<path class="st1" d="M111.9,60.9l-57.5,45.4c3.7,3.5,8.2,6.2,13.1,7.9l49.1-38.7C116,70.3,114.4,65.3,111.9,60.9z"/>
<path class="st1" d="M44.6,67.2l31.5-24.9C61.4,43.7,49.2,53.7,44.6,67.2z"/>
<path class="st1" d="M114.7,91.2l-31.5,24.9C97.8,114.7,110,104.7,114.7,91.2z"/>
<path class="st2" d="M104.9,52.1L47.4,97.5c1.9,3.3,4.2,6.2,6.9,8.8l57.5-45.4C110,57.6,107.7,54.7,104.9,52.1z"/>
<path class="st2" d="M42.7,82.9l49.1-38.7c-3.8-1.3-7.9-2-12.2-2c-1.2,0-2.4,0.1-3.5,0.2L44.6,67.2c-1.3,3.8-2,7.8-2,12
	C42.6,80.4,42.6,81.6,42.7,82.9z"/>
<path class="st2" d="M116.7,79.2c0-1.2-0.1-2.5-0.2-3.7l-49.1,38.7c3.8,1.3,7.9,2,12.2,2c1.2,0,2.4-0.1,3.5-0.2l31.5-24.9
	C116,87.5,116.7,83.4,116.7,79.2z"/>
</svg>
