<?xml version="1.0" encoding="utf-8"?>
<!-- Generator: Adobe Illustrator 19.1.0, SVG Export Plug-In . SVG Version: 6.00 Build 0)  -->
<svg version="1.1" id="Layer_1" xmlns="http://www.w3.org/2000/svg" xmlns:xlink="http://www.w3.org/1999/xlink" x="0px" y="0px"
	 viewBox="0 0 160 160" style="enable-background:new 0 0 160 160;" xml:space="preserve">
<style type="text/css">
	.st0{fill:#1F2A5B;}
	.st1{fill:#FFFFFF;}
	.st2{fill:#E01E26;}
</style>
<g>
	<path class="st0" d="M31.4,29.5c-13,13-20.1,30.2-20.1,48.5c0,18.3,7.1,35.6,20.1,48.5c13,13,30.2,20.1,48.5,20.1
		c18.3,0,35.6-7.1,48.5-20.1c13-13,20.1-30.2,20.1-48.5c0-18.3-7.1-35.6-20.1-48.5S98.2,9.4,79.9,9.4C61.6,9.4,44.3,16.5,31.4,29.5z
		"/>
	<path class="st1" d="M32.5,125.4C19.9,112.7,12.9,95.9,12.9,78c0-17.9,7-34.7,19.6-47.4C45.2,18,62,11,79.9,11
		c17.9,0,34.7,7,47.4,19.6c12.7,12.7,19.6,29.5,19.6,47.4c0,17.9-7,34.7-19.6,47.4C114.6,138.1,97.8,145,79.9,145
		C62,145,45.2,138.1,32.5,125.4z"/>
	<circle class="st0" cx="79.9" cy="78" r="65.4"/>
	<circle class="st1" cx="79.9" cy="78" r="51.5"/>
	<path class="st2" d="M79.9,93.3c19.7,0,22.9,15.7,22.3,29.1c5.2-2.6,9.9-6.2,13.9-10.4c-8.2-8.5-15.9-17.7-21.6-30.2H65.3
		c-5.8,12.5-13.5,21.7-21.6,30.2c4,4.2,8.6,7.8,13.9,10.4C57,109,60.2,93.3,79.9,93.3z"/>
	<path class="st2" d="M93.9,80.6c-5.7-12.9-9.3-29.3-9.3-51.9c-1.5-0.1-3.1-0.2-4.7-0.2c-1.6,0-3.1,0.1-4.7,0.2
		c0,22.6-3.6,39-9.3,51.9H93.9z"/>
	<path class="st0" d="M41,108.8c-6.7-8.5-10.7-19.1-10.7-30.8c0-25.1,18.7-45.9,42.9-49.2C73.2,71.2,57.1,94.2,41,108.8z"/>
	<path class="st0" d="M79.9,127.6c5.6,0,11-0.9,15.9-2.6c5-13.3,1.8-30.5-15.9-30.5c-17.7,0-20.9,17.3-15.9,30.5
		C68.9,126.7,74.3,127.6,79.9,127.6z"/>
	<path class="st0" d="M118.8,108.8c6.7-8.5,10.7-19.1,10.7-30.8c0-25.1-18.7-45.9-42.9-49.2C86.6,71.2,102.7,94.2,118.8,108.8z"/>
	<path class="st1" d="M85.5,104.9v9.5H66.4c0,0,0.8,0.3,1.3,1.3c0.5,1,0.8,2.6,2,3.8c1.2,1.1,1.8,1.3,4.1,1.3c0.2,0,0.9,0.7,0.9,1.4
		H75c0-0.7,0.6-1.4,0.9-1.4c2.3,0,5.7,0,8.8,0c0.2,0,0.9,0.7,0.9,1.4h0.3c0-0.7,0.6-1.4,0.9-1.4c4.7,0,5.9-3.1,5.9-6.5
		C92.5,109.1,89.9,104.9,85.5,104.9z"/>
	<path class="st1" d="M79.7,104.6c-0.4,0-0.6,0.1-0.9,1.2c-0.3,1.3-1.1,1.6-1.6,1.6c-0.2,0-0.3,0-0.4,0c0-0.9,0-1.8,0-1.8
		c1.1-1.6,1-3.2-0.4-4.7c-1.4,1.5-1.5,3.1-0.4,4.7c0,0,0,0.9,0,1.8c-0.1,0-0.2,0-0.4,0c-0.5,0-1.3-0.4-1.6-1.6
		c-0.3-1.2-0.6-1.2-0.9-1.2c-0.3,0-1.1,0.2-1,0.9c0.1,0.7,0.5,1.2,0.8,1c0.2-0.1,0.1-0.3,0.2-0.4c0.1-0.1,0.3-0.1,0.5,0.1
		c0.3,0.3,0.5,1.2,1.2,1.9c0.5,0.5,0.9,0.6,1.2,0.6c0,0.3,0,0.6,0,0.7c0,0.6-0.6,0.7-0.6,0.7l0.9,1l0.9-1c0,0-0.6-0.2-0.6-0.7
		c0-0.1,0-0.4,0-0.7c0.3,0,0.7-0.1,1.2-0.6c0.7-0.7,0.9-1.6,1.2-1.9c0.2-0.2,0.4-0.2,0.5-0.1c0.1,0.1,0.1,0.4,0.2,0.4
		c0.3,0.1,0.7-0.4,0.8-1C80.8,104.9,80,104.6,79.7,104.6z"/>
	<path class="st1" d="M67.3,132.6l0.3-1.7l3.1,0.6l-1.4,7.7l-2-0.4l1.1-6L67.3,132.6z"/>
	<path class="st1" d="M75.4,135.8c-0.7-0.1-1.2-0.7-1.2-1.4c0.1-0.7,0.7-1.2,1.4-1.2c0.7,0.1,1.2,0.7,1.2,1.4
		C76.7,135.4,76.1,135.9,75.4,135.8z M75.4,139.8l1.9-2.2c0.8-0.9,1.3-2,1.4-2.9c0.1-1.6-1.2-2.9-3-3c-2-0.1-3.4,1-3.5,2.7
		c-0.1,1.2,0.5,2.3,1.7,2.8c0.3,0.1,0.7,0.3,1,0.3l0.3,0l0.1,0l0.1,0l-2,2.1L75.4,139.8z"/>
	<path class="st1" d="M80.1,133.9l-0.1-1.7l6.7-0.4l-4,8l-2.2,0.1l3.2-6.3L80.1,133.9z"/>
	<path class="st1" d="M90.3,132.7c0.8-0.1,1.4,0.6,1.7,2.1c0.3,1.5,0,2.4-0.8,2.6c-0.8,0.1-1.4-0.6-1.7-2.1
		C89.2,133.8,89.5,132.9,90.3,132.7z M90,130.9c-1.9,0.3-2.9,2.3-2.5,4.7c0.4,2.5,2.1,3.9,4,3.5c1.9-0.4,2.9-2.2,2.5-4.7
		C93.5,132,91.9,130.6,90,130.9z"/>
	<path class="st1" d="M29,48.2l-1.7-1l0.4-0.6c0.4-0.6,0.8-0.8,1.4-0.4c0.6,0.3,0.6,0.8,0.2,1.5L29,48.2z M30.4,49l0.7-1.1
		c0.9-1.5,0.6-2.7-0.9-3.6c-0.7-0.4-1.4-0.5-2-0.4c-0.7,0.2-1.1,0.5-1.6,1.3l-1.7,2.8l6.7,4.1l1.1-1.7L30.4,49z"/>
	<path class="st1" d="M35.3,41.5l-1.1,1.3l-1.4-2.2L35.3,41.5z M36.8,42.1l1.4,0.4l1.4-1.7l-7.9-2.6L30.2,40l4.2,7.2l1.3-1.7
		l-0.7-1.3L36.8,42.1z"/>
	<path class="st1" d="M38.6,35.9l-1.3-1.4l0.3-0.3c0.3-0.3,0.5-0.4,0.8-0.4c0.3,0,0.6,0.1,0.8,0.3c0.4,0.4,0.3,1-0.2,1.6L38.6,35.9z
		 M40.8,35.3c0.3-0.5,0.5-0.9,0.4-1.4c-0.1-0.5-0.3-1-0.7-1.4c-0.4-0.5-1.1-0.8-1.7-0.8c-0.7,0-1.2,0.2-1.9,0.8l-2.3,2.2l5.4,5.7
		l1.5-1.4l-2.1-2.2l3.5,0.8l1.8-1.7L40.8,35.3z"/>
	<path class="st1" d="M47,34.3l-1.6,1.2l-4.8-6.2l1.6-1.2L47,34.3z"/>
	<path class="st1" d="M48.6,26.3c-0.6-0.1-1,0-1.4,0.3c-0.4,0.3-0.6,0.7-0.4,1c0.1,0.1,0.2,0.2,0.4,0.2c0.2,0,0.4,0,0.6,0
		c0.1,0,0.4-0.1,0.7-0.2c0.7-0.2,1.1-0.2,1.6-0.1c0.5,0.1,0.8,0.4,1.2,0.9c0.3,0.4,0.5,1,0.5,1.3c0.1,0.9-0.5,2-1.6,2.6
		c-0.5,0.3-1,0.5-1.7,0.6c-0.4,0.1-0.6,0.1-1.1,0.1l-0.2-1.8c0.8,0.1,1.4,0,1.9-0.3c0.5-0.3,0.7-0.8,0.4-1.2
		c-0.1-0.1-0.2-0.2-0.4-0.3c-0.3-0.1-0.5,0-1.1,0.2c-0.6,0.2-0.9,0.2-1.2,0.3c-0.7,0.1-1.3-0.3-1.7-1c-0.8-1.3-0.5-2.8,0.8-3.7
		c0.7-0.4,1.5-0.7,2.4-0.8L48.6,26.3z"/>
	<path class="st1" d="M57.8,21.7c-0.5-0.2-1-0.2-1.4,0c-0.5,0.2-0.7,0.6-0.5,1c0.1,0.1,0.2,0.2,0.3,0.3c0.2,0.1,0.4,0.1,0.6,0.1
		c0.1,0,0.4,0,0.7-0.1c0.7-0.1,1.2,0,1.6,0.2c0.5,0.2,0.8,0.5,1,1.1c0.2,0.4,0.3,1,0.3,1.4c-0.1,0.9-0.8,1.8-2,2.3
		c-0.6,0.2-1.1,0.3-1.8,0.3c-0.4,0-0.6,0-1.1-0.1l0.2-1.8c0.8,0.3,1.4,0.3,2,0c0.6-0.2,0.8-0.7,0.6-1.1c-0.1-0.1-0.2-0.3-0.3-0.3
		c-0.3-0.1-0.5-0.1-1.2,0c-0.7,0.1-0.9,0.1-1.3,0.1c-0.7,0-1.2-0.5-1.5-1.2c-0.6-1.4,0-2.8,1.4-3.5c0.8-0.3,1.6-0.5,2.5-0.4
		L57.8,21.7z"/>
	<path class="st1" d="M65.4,22.3l-1.6,0.4l0.2-2.6L65.4,22.3z M66.3,23.7l0.8,1.2l2.1-0.6l-4.9-6.7l-2.1,0.6l-0.8,8.3l2.1-0.6
		l0.2-1.4L66.3,23.7z"/>
	<path class="st1" d="M72,23.9l-2,0.3l-1.3-7.7l2-0.3L72,23.9z"/>
	<path class="st1" d="M73,15.8l2-0.1l3.9,4.6l-0.2-4.8l2-0.1l0.4,7.8l-2,0.1l-3.9-4.6l0.2,4.8l-2,0.1L73,15.8z"/>
	<path class="st1" d="M85.5,23.7l-2-0.2l0.5-6.1l-1.6-0.1l0.1-1.7l5.3,0.4l-0.1,1.7L86,17.6L85.5,23.7z"/>
	<path class="st1" d="M90.2,21.1L90,22.5l-2.6-0.4l0.2-1.4L90.2,21.1z"/>
	<path class="st1" d="M99,22.1c-0.1,0.3-0.1,0.5-0.2,0.6c-0.1,0.4-0.3,0.7-0.4,1c-0.9,1.6-2.6,2.3-4.4,1.8c-2.4-0.6-3.6-2.7-3-5.1
		c0.6-2.4,2.7-3.6,5.2-3c1,0.3,1.7,0.8,2.2,1.5c0.3,0.4,0.4,0.7,0.6,1.5L97,20.8c-0.1-0.5-0.1-0.7-0.3-0.9c-0.2-0.4-0.5-0.6-1-0.7
		c-1.1-0.3-2.2,0.5-2.6,1.9c-0.4,1.4,0.2,2.6,1.4,2.9c0.4,0.1,0.8,0.1,1.1-0.1c0.1-0.1,0.3-0.2,0.4-0.3c0.1-0.2,0.2-0.3,0.4-0.6
		l-1.6-0.4l0.4-1.5L99,22.1z"/>
	<path class="st1" d="M103.1,21.9l-0.5,1.2l2.1,0.9l-0.7,1.6l-2.1-0.9l-0.5,1.3l2.2,0.9l-0.7,1.6l-4.1-1.7l3-7.2l4.1,1.7l-0.7,1.6
		L103.1,21.9z"/>
	<path class="st1" d="M107.8,26.1l0.9-1.7l0.3,0.2c0.3,0.2,0.6,0.4,0.7,0.6c0.1,0.2,0.1,0.6,0,0.9c-0.3,0.5-0.9,0.6-1.6,0.2
		L107.8,26.1z M109,28c0.6,0.2,1,0.2,1.5,0c0.4-0.2,0.8-0.6,1.1-1c0.3-0.6,0.4-1.2,0.3-1.8c-0.2-0.6-0.6-1.1-1.3-1.5l-2.8-1.5
		l-3.8,6.8l1.8,1l1.5-2.6l0.2,3.6l2.2,1.2L109,28z"/>
	<path class="st1" d="M115.7,26.7l1.6,1.2l-1.3,4.3l3.9-2.2l1.6,1.2l-3.9,6.9l-1.6-1.3l2.3-3.9l-4.3,2.4l-0.6-0.5l1.4-4.6l-3.3,3.1
		l-1.6-1.2L115.7,26.7z"/>
	<path class="st1" d="M123.1,40l-1.1-1.2l2.4-1L123.1,40z M122.3,41.4l-0.7,1.3l1.5,1.6l3.8-7.4l-1.5-1.6l-7.8,3l1.4,1.6l1.4-0.5
		L122.3,41.4z"/>
	<path class="st1" d="M124.7,46.6l-1.2-1.6l6.3-4.6L131,42L124.7,46.6z"/>
	<path class="st1" d="M132.4,43.8l1,1.8l-2.3,5.6l4.1-2.4l1,1.8l-6.8,3.9l-1-1.8l2.3-5.6l-4.2,2.4l-1-1.8L132.4,43.8z"/>
</g>
</svg>
