<?xml version="1.0" encoding="utf-8"?>
<!-- Generator: Adobe Illustrator 19.1.0, SVG Export Plug-In . SVG Version: 6.00 Build 0)  -->
<svg version="1.1" id="Layer_1" xmlns="http://www.w3.org/2000/svg" xmlns:xlink="http://www.w3.org/1999/xlink" x="0px" y="0px"
	 viewBox="0 0 160 160" style="enable-background:new 0 0 160 160;" xml:space="preserve">
<style type="text/css">
	.st0{fill:#D53650;}
	.st1{fill:#FFFFFF;}
</style>
<circle class="st0" cx="80.2" cy="80.5" r="70.2"/>
<circle class="st1" cx="80.2" cy="80.5" r="69.1"/>
<path class="st0" d="M80.2,137c31.2,0,56.5-25.4,56.5-56.5c0-8-1.7-15.7-4.7-22.6l-1,0.4c3,6.8,4.6,14.3,4.6,22.2
	c0,30.6-24.9,55.4-55.4,55.4c-30.6,0-55.4-24.9-55.4-55.4c0-7.9,1.7-15.4,4.6-22.2l-1-0.4c-3,6.9-4.7,14.6-4.7,22.6
	C23.7,111.7,49,137,80.2,137z"/>
<path class="st0" d="M140.1,54.4c3.5,8,5.5,16.8,5.5,26.1c0,36-29.3,65.3-65.3,65.3c-36,0-65.3-29.3-65.3-65.3
	c0-9.3,2-18.1,5.5-26.1l-1-0.4c-3.6,8.1-5.6,17.1-5.6,26.6c0,36.6,29.8,66.4,66.4,66.4c36.6,0,66.4-29.8,66.4-66.4
	c0-9.4-2-18.4-5.6-26.6L140.1,54.4z"/>
<circle class="st0" cx="80.2" cy="80.5" r="52.7"/>
<path class="st0" d="M30.5,55.1c-0.2-0.3-0.5-0.5-0.8-0.8c-0.3-0.3-0.6-0.5-0.9-0.8l0.1-0.2c0.6,0.2,1.2,0.2,1.7,0
	c0.5-0.2,0.9-0.5,1.2-1.1c0.3-0.5,0.4-0.9,0.3-1.4c-0.1-0.4-0.3-0.8-0.8-1c-0.3-0.2-0.6-0.2-1-0.2c-0.3,0.1-0.9,0.3-1.7,0.8
	c-1.2,0.7-2.1,1.2-2.8,1.2c-0.6,0.1-1.2-0.1-1.9-0.4c-0.8-0.5-1.4-1.2-1.5-2.1c-0.2-0.9,0-1.9,0.6-2.9c0.3-0.4,0.6-0.8,0.9-1.1
	c0.3-0.3,0.7-0.6,1.1-0.7c0.2,0.3,0.4,0.5,0.7,0.7c0.2,0.2,0.4,0.4,0.6,0.6l-0.1,0.1c-0.5-0.1-1-0.1-1.4,0.1c-0.4,0.2-0.8,0.5-1.1,1
	c-0.2,0.4-0.3,0.8-0.3,1.2c0.1,0.4,0.3,0.7,0.7,0.9c0.3,0.2,0.6,0.2,1,0.2c0.3-0.1,0.9-0.3,1.6-0.8c0.2-0.1,0.4-0.2,0.7-0.4
	c0.8-0.5,1.4-0.8,1.7-0.9c0.4-0.1,0.8-0.1,1.2-0.1c0.4,0.1,0.8,0.2,1.1,0.4c0.9,0.6,1.5,1.3,1.7,2.3c0.2,1,0,2-0.7,3.1
	c-0.3,0.6-0.7,1-1,1.4C31.2,54.7,30.9,54.9,30.5,55.1z"/>
<path class="st0" d="M36.9,46.3c-0.6-0.6-1.2-1.2-1.9-1.8c-0.7-0.6-1.4-1.3-2.3-1.9c-0.3-0.2-0.7-0.6-1.3-1.1c-0.6-0.5-1.3-1-2-1.6
	l-0.2,0.3c-0.3,0.4-0.6,0.8-0.9,1.1c-0.3,0.4-0.5,0.7-0.7,1.1c0,0-0.1-0.1-0.2-0.2c-0.1-0.1-0.2-0.2-0.3-0.3
	c-0.1-0.1-0.2-0.2-0.4-0.3c-0.1,0-0.1-0.1-0.2-0.1c0.6-0.7,1.1-1.2,1.6-1.8c0.5-0.5,0.9-1,1.3-1.5c0.4-0.5,0.8-1,1.2-1.5
	c0.4-0.5,0.9-1.2,1.4-1.9c0.1,0.1,0.1,0.1,0.2,0.2c0.1,0.1,0.2,0.2,0.2,0.2c0.1,0.1,0.2,0.1,0.3,0.2c0.1,0.1,0.2,0.1,0.3,0.2
	c-0.3,0.3-0.6,0.6-0.9,0.9c-0.3,0.3-0.6,0.7-1,1.1L31,37.9c0.3,0.3,0.6,0.6,1,0.9c0.4,0.3,0.9,0.8,1.7,1.4c1.3,1.1,2.3,1.9,3.1,2.5
	c0.7,0.6,1.4,1.1,2,1.5c-0.2,0.2-0.4,0.4-0.5,0.5c-0.2,0.2-0.3,0.3-0.4,0.5c-0.1,0.2-0.3,0.3-0.4,0.5C37.2,45.9,37.1,46,36.9,46.3z"
	/>
<path class="st0" d="M38.7,35.2c-0.2-0.6-0.4-1.3-0.6-1.9c0.6,0.3,1.2,0.6,1.8,0.9c0.6,0.3,1.2,0.6,1.8,1c-0.3,0.3-0.5,0.5-0.7,0.6
	c-0.1,0.1-0.3,0.3-0.4,0.4c-0.2,0.2-0.6,0.5-1.1,0.9c0,0,0,0,0,0C39.2,36.4,38.9,35.8,38.7,35.2z M40,42.3c0.2-0.2,0.4-0.4,0.5-0.5
	c0.1-0.1,0.2-0.1,0.2-0.2c0.1-0.1,0.2-0.1,0.3-0.2c-0.1-0.4-0.3-0.8-0.5-1.2c-0.2-0.4-0.5-1.1-0.8-2c0.2-0.2,0.3-0.3,0.5-0.5
	c0.2-0.2,0.5-0.4,0.9-0.8c0.4-0.3,0.7-0.6,0.9-0.8c0.2-0.2,0.4-0.3,0.6-0.5c0.8,0.5,1.4,0.8,1.8,1.1c0.4,0.2,0.8,0.5,1.2,0.7
	c0.1-0.2,0.3-0.3,0.5-0.5c0.2-0.2,0.3-0.3,0.5-0.5c0.2-0.2,0.4-0.3,0.6-0.5c0.2-0.1,0.4-0.3,0.5-0.4c-2-0.9-3.8-1.8-5.6-2.8
	c-1.8-0.9-3.6-1.9-5.2-2.8c-0.1,0.1-0.1,0.1-0.2,0.2c-0.1,0.1-0.1,0.1-0.2,0.2c-0.1,0.1-0.2,0.1-0.2,0.2c-0.1,0.1-0.2,0.1-0.3,0.2
	c0.8,2,1.5,4,2.2,5.9C38.8,38.7,39.4,40.6,40,42.3C40,42.4,40,42.4,40,42.3z"/>
<path class="st0" d="M49.5,31.5c-0.3-0.5-0.7-1.2-1.2-2.1c-0.5-0.9-1-1.7-1.4-2.4c-0.4-0.7-0.8-1.4-1.1-2.1c0.1-0.1,0.2-0.1,0.4-0.2
	c0.3-0.2,0.5-0.3,0.6-0.3c1.3-0.8,2.4-1,3.4-0.7c0.9,0.3,1.8,1.1,2.6,2.5c0.8,1.4,1.1,2.6,0.8,3.6c-0.2,1-1,1.9-2.2,2.6
	c-0.1,0.1-0.3,0.2-0.5,0.2c-0.2,0.1-0.4,0.2-0.5,0.2C50,32.5,49.8,32,49.5,31.5z M48.7,34.9c0.3-0.2,0.6-0.4,0.8-0.5
	c0.2-0.1,0.6-0.3,1.1-0.6c0.5-0.3,1-0.5,1.3-0.7c1.9-1.1,3.2-2.4,3.7-3.8c0.5-1.4,0.3-2.9-0.7-4.6c-0.5-0.8-1-1.4-1.6-1.9
	c-0.6-0.5-1.3-0.8-2.1-0.9c-0.6-0.1-1.2,0-1.8,0.1c-0.6,0.2-1.4,0.5-2.4,1.1c-0.3,0.2-0.8,0.5-1.5,0.9c-0.6,0.4-1.1,0.7-1.4,0.8
	c-0.2,0.1-0.4,0.2-0.6,0.3c-0.2,0.1-0.4,0.2-0.6,0.3c0.3,0.4,0.7,1,1,1.5c0.4,0.6,0.8,1.4,1.4,2.4l0.4,0.8l0.7,1.3
	c0.5,0.9,0.9,1.7,1.2,2.2c0.3,0.5,0.5,1,0.7,1.5C48.6,35,48.6,35,48.7,34.9z"/>
<path class="st0" d="M59.5,29.3c-0.1-0.6-0.3-1.2-0.5-1.9c-0.2-0.7-0.6-1.8-1.1-3.4l-0.3-0.8c-0.4-1.2-0.7-2.1-1-2.7
	c-0.3-0.6-0.5-1.2-0.7-1.7c0.5-0.1,1-0.3,1.5-0.5c0.5-0.2,1-0.3,1.6-0.5c0.6-0.2,1.1-0.4,1.5-0.5c0.5-0.2,0.9-0.3,1.3-0.5
	c0,0.2,0.1,0.3,0.1,0.4c0,0.1,0.1,0.2,0.1,0.3c0,0.1,0.1,0.2,0.1,0.2c0,0.1,0.1,0.2,0.2,0.4c-0.8,0.2-1.4,0.4-2,0.6
	c-0.6,0.2-1.1,0.3-1.5,0.4c0,0.2,0.1,0.4,0.2,0.6c0.1,0.2,0.2,0.5,0.3,0.9l0.3,0.7l0.4,1c0.3-0.1,0.9-0.3,1.6-0.6
	c0.8-0.3,1.3-0.5,1.7-0.7c0,0.2,0.1,0.3,0.1,0.4c0,0.1,0.1,0.2,0.1,0.3c0,0.1,0.1,0.3,0.3,0.6c0,0,0,0,0,0c-1,0.3-1.7,0.5-2.2,0.6
	c-0.5,0.1-0.9,0.3-1.3,0.4l0.6,1.9c0.2,0.7,0.4,1.1,0.5,1.4c0.1,0.3,0.2,0.5,0.3,0.6c0.5-0.2,1-0.4,1.5-0.6c0.6-0.2,1.2-0.5,1.8-0.8
	c0,0.1,0,0.2,0.1,0.3c0,0.1,0.1,0.2,0.1,0.3c0,0.1,0.1,0.2,0.2,0.4c0.1,0.2,0.1,0.3,0.1,0.3c-1,0.3-1.8,0.6-2.4,0.7
	c-0.6,0.2-1,0.3-1.3,0.4c-0.5,0.2-0.9,0.3-1.2,0.4C60.1,29,59.8,29.1,59.5,29.3z"/>
<path class="st0" d="M74.3,23c0-0.6-0.1-1.4-0.2-2.5c-0.1-1-0.1-1.9-0.1-2.8c0-0.8-0.1-1.6-0.1-2.3c0.1,0,0.2,0,0.4,0
	c0.3,0,0.6,0,0.7-0.1c1.5-0.1,2.6,0.2,3.3,0.9c0.7,0.7,1.1,1.8,1.2,3.4c0.1,1.6-0.2,2.8-0.9,3.6c-0.7,0.8-1.7,1.3-3.1,1.4
	c-0.2,0-0.3,0-0.5,0c-0.2,0-0.4,0-0.6,0C74.4,24.1,74.3,23.6,74.3,23z M72.1,25.7c0.4,0,0.7-0.1,0.9-0.1c0.2,0,0.6,0,1.3-0.1
	c0.6,0,1.1,0,1.5-0.1c2.2-0.1,3.9-0.7,4.9-1.8c1.1-1,1.5-2.5,1.4-4.5c-0.1-0.9-0.3-1.7-0.6-2.5c-0.4-0.7-0.8-1.3-1.5-1.7
	c-0.5-0.3-1.1-0.6-1.7-0.7c-0.6-0.1-1.5-0.2-2.6-0.1c-0.4,0-1,0.1-1.7,0.1c-0.7,0.1-1.3,0.1-1.6,0.1c-0.2,0-0.4,0-0.7,0
	c-0.2,0-0.4,0-0.6,0c0.1,0.5,0.2,1.2,0.2,1.8c0.1,0.7,0.1,1.6,0.2,2.8l0.1,0.9l0.1,1.4c0.1,1.1,0.1,1.9,0.1,2.5c0,0.6,0,1.1,0,1.6
	C71.9,25.7,72,25.7,72.1,25.7z"/>
<path class="st0" d="M84.3,25.4c0.1-0.6,0.3-1.2,0.4-1.9c0.1-0.7,0.3-1.9,0.5-3.6l0.1-0.8c0.2-1.2,0.3-2.2,0.3-2.9
	c0.1-0.7,0.1-1.3,0.1-1.9c0.5,0.1,1,0.2,1.5,0.2c0.5,0.1,1.1,0.2,1.7,0.2c0.6,0.1,1.1,0.1,1.6,0.2c0.5,0,0.9,0.1,1.4,0.1
	c-0.1,0.2-0.1,0.3-0.1,0.4c0,0.1,0,0.2,0,0.3c0,0.1,0,0.2,0,0.3c0,0.1,0,0.2,0,0.4c-0.8-0.2-1.5-0.3-2.1-0.4
	c-0.6-0.1-1.1-0.2-1.5-0.2c0,0.2-0.1,0.4-0.1,0.6c0,0.2-0.1,0.5-0.1,1l-0.1,0.8l-0.1,1.1c0.3,0,0.9,0.1,1.7,0.2
	c0.8,0.1,1.4,0.1,1.9,0.2c0,0.2-0.1,0.3-0.1,0.4c0,0.1,0,0.2,0,0.3c0,0.1,0,0.4,0,0.7c0,0,0,0,0,0c-1-0.2-1.7-0.3-2.2-0.4
	c-0.5-0.1-1-0.2-1.3-0.2l-0.2,1.9c-0.1,0.7-0.1,1.2-0.2,1.5c0,0.3,0,0.5,0,0.7c0.5,0,1,0.1,1.6,0.1c0.6,0,1.3,0.1,2,0.1
	c0,0.1-0.1,0.2-0.1,0.3c0,0.1,0,0.2-0.1,0.3c0,0.1,0,0.3,0,0.4c0,0.2,0,0.3,0,0.3c-1.1-0.2-1.9-0.3-2.5-0.4c-0.6-0.1-1-0.1-1.4-0.2
	c-0.5-0.1-0.9-0.1-1.3-0.1C85,25.4,84.6,25.4,84.3,25.4z"/>
<path class="st0" d="M102.4,21.1c0.1-0.3,0.2-0.6,0.4-0.9c0.1-0.3,0.3-0.6,0.4-0.9c0,0,0.1,0,0.2,0.1c0.1,0,0.1,0,0.2,0.1
	c0.7,0.3,1.2,0.6,1.4,1.1c0.2,0.4,0.2,1-0.1,1.6c-0.3,0.8-0.7,1.3-1.2,1.5c-0.5,0.2-1.2,0.1-2-0.2l-0.1,0L102.4,21.1z M97.7,28
	c0.2,0.1,0.4,0.1,0.6,0.2c0.2,0.1,0.4,0.2,0.6,0.3c0.2,0.1,0.4,0.2,0.6,0.3c0.2-0.6,0.3-1.1,0.5-1.6c0.2-0.5,0.3-0.9,0.5-1.4
	l0.8-2.1c0.2,1.1,0.4,2.1,0.6,3.2c0.2,1,0.3,2,0.5,3c0.3,0.1,0.5,0.1,0.7,0.2c0.2,0.1,0.4,0.2,0.6,0.2c0.2,0.1,0.4,0.2,0.6,0.3
	c0.2,0.1,0.4,0.2,0.7,0.3l-1.4-6.5c0.9,0.1,1.6,0.1,2.2-0.2c0.6-0.3,1-0.8,1.3-1.5c0.3-0.9,0.3-1.7-0.1-2.3
	c-0.4-0.7-1.3-1.2-2.5-1.7c-0.5-0.2-1.1-0.4-1.7-0.6c-0.6-0.2-0.9-0.3-1-0.4c-0.1,0-0.3-0.1-0.4-0.2c-0.1-0.1-0.3-0.1-0.4-0.2
	c-0.2,0.7-0.5,1.5-0.8,2.4c-0.3,0.9-0.7,1.8-1.1,2.9c-0.4,1.1-0.8,2.1-1.2,2.9c-0.4,0.8-0.7,1.5-1,2.2C97.2,27.9,97.5,27.9,97.7,28z
	"/>
<path class="st0" d="M106.1,31.7c0.4-0.5,0.7-1,1.1-1.6c0.4-0.6,1-1.6,1.9-3.1l0.4-0.7c0.6-1.1,1.1-1.9,1.5-2.5
	c0.3-0.6,0.6-1.2,0.8-1.7c0.4,0.3,0.9,0.6,1.3,0.8c0.5,0.3,0.9,0.6,1.4,0.9c0.5,0.3,1,0.6,1.4,0.8c0.4,0.2,0.8,0.5,1.2,0.7
	c-0.1,0.1-0.2,0.3-0.3,0.3c-0.1,0.1-0.1,0.2-0.2,0.2c0,0.1-0.1,0.2-0.1,0.2c0,0.1-0.1,0.2-0.2,0.4c-0.7-0.5-1.2-0.9-1.7-1.2
	c-0.5-0.3-0.9-0.6-1.3-0.8c-0.1,0.2-0.2,0.3-0.4,0.5c-0.1,0.2-0.3,0.5-0.5,0.8l-0.4,0.7l-0.6,1c0.3,0.2,0.8,0.4,1.5,0.8
	c0.7,0.4,1.3,0.7,1.6,0.9c-0.1,0.1-0.2,0.2-0.3,0.3c-0.1,0.1-0.1,0.2-0.2,0.2c-0.1,0.1-0.2,0.3-0.3,0.6c0,0,0,0,0,0
	c-0.8-0.6-1.4-1-1.9-1.3c-0.4-0.3-0.8-0.5-1.1-0.7l-1,1.7c-0.4,0.6-0.6,1-0.7,1.3c-0.1,0.2-0.2,0.5-0.3,0.6c0.4,0.2,0.9,0.5,1.4,0.8
	c0.5,0.3,1.1,0.6,1.8,0.9c-0.1,0.1-0.1,0.2-0.2,0.2c-0.1,0.1-0.1,0.2-0.2,0.3c-0.1,0.1-0.1,0.2-0.2,0.4c-0.1,0.2-0.1,0.3-0.2,0.3
	c-0.9-0.6-1.6-1-2.1-1.3c-0.5-0.3-0.9-0.6-1.2-0.7c-0.4-0.2-0.8-0.5-1.1-0.6C106.7,32,106.4,31.8,106.1,31.7z"/>
<path class="st0" d="M113,36.1c0.5-0.5,1-1.1,1.5-1.7c0.5-0.6,1.2-1.5,2-2.5c0.8-1,1.4-1.9,2-2.6c0.5-0.7,1-1.3,1.3-1.9
	c0.2,0.2,0.3,0.3,0.5,0.5c0.2,0.2,0.4,0.3,0.5,0.5c0.2,0.1,0.4,0.3,0.6,0.4c0.2,0.1,0.4,0.2,0.6,0.4c-0.5,0.5-1,1.1-1.6,1.8
	c-0.6,0.7-1.2,1.5-2,2.5c-0.9,1.1-1.5,2-2,2.6c-0.5,0.7-0.9,1.3-1.3,1.9c-0.2-0.2-0.4-0.4-0.5-0.5c-0.2-0.2-0.3-0.3-0.5-0.4
	c-0.2-0.1-0.4-0.3-0.5-0.4C113.5,36.4,113.3,36.3,113,36.1z"/>
<path class="st0" d="M116.9,38.7c0.7-0.5,1.3-0.9,1.8-1.2c0.5-0.3,0.9-0.6,1.1-0.7l6.4-4.3c0.1,0.1,0.1,0.2,0.2,0.3
	c0.1,0.1,0.1,0.2,0.2,0.3c0.1,0.1,0.2,0.2,0.3,0.3c0.1,0.1,0.2,0.2,0.3,0.2c-0.6,1.3-1.1,2.6-1.7,3.9c-0.5,1.3-1,2.6-1.5,4
	c1.3-0.3,2.7-0.7,4-1.1c1.4-0.4,2.7-0.8,4.1-1.2c0.1,0.1,0.1,0.2,0.2,0.3c0.1,0.1,0.2,0.2,0.2,0.3c0.1,0.1,0.2,0.2,0.3,0.3
	c0.1,0.1,0.2,0.2,0.3,0.2l-5.2,5.9c-0.6,0.7-1,1.2-1.3,1.6c-0.3,0.4-0.6,0.7-0.8,1.1c-0.2-0.2-0.3-0.4-0.4-0.6
	c-0.1-0.2-0.3-0.3-0.4-0.5c-0.1-0.2-0.3-0.3-0.4-0.5c-0.2-0.2-0.3-0.3-0.5-0.5c0,0,0.1-0.1,0.1-0.1c0.8-0.8,1.3-1.3,1.5-1.5l3.5-3.9
	c-1.3,0.3-2.6,0.7-3.9,1c-1.3,0.4-2.7,0.8-4.1,1.2c0,0,0-0.1-0.1-0.1c0,0-0.1-0.1-0.1-0.2c-0.1-0.1-0.1-0.1-0.1-0.1
	c0,0-0.1-0.1-0.1-0.1c0.6-1.4,1.1-2.7,1.6-3.9c0.5-1.3,1-2.5,1.4-3.6l-2.8,2l-0.1,0.1c-1.4,1-2.4,1.8-3,2.3
	c-0.1-0.1-0.1-0.2-0.2-0.3c-0.1-0.1-0.1-0.2-0.2-0.2c-0.1-0.1-0.1-0.2-0.2-0.2C117.1,38.9,117,38.8,116.9,38.7z"/>
<path class="st0" d="M126.7,49.6c0.3-0.1,0.7-0.2,1.1-0.3c0.4-0.1,0.7-0.2,1.1-0.4l0.1,0.2c-0.5,0.4-0.8,0.9-0.8,1.5
	c-0.1,0.5,0,1.1,0.3,1.6c0.3,0.5,0.6,0.8,1.1,0.9c0.4,0.1,0.9,0.1,1.3-0.2c0.3-0.2,0.5-0.4,0.6-0.7c0.1-0.3,0.2-0.9,0.1-1.9
	c0-1.4,0-2.4,0.3-3c0.2-0.6,0.7-1,1.3-1.4c0.9-0.5,1.7-0.6,2.6-0.3c0.9,0.3,1.6,0.9,2.2,1.9c0.3,0.4,0.4,0.9,0.5,1.3
	c0.1,0.4,0.1,0.9,0.1,1.3c-0.3,0.1-0.7,0.1-1,0.2c-0.3,0.1-0.6,0.2-0.9,0.2l-0.1-0.2c0.3-0.4,0.5-0.8,0.6-1.3c0-0.5-0.1-0.9-0.3-1.4
	c-0.2-0.4-0.5-0.7-0.9-0.8c-0.4-0.1-0.7-0.1-1.1,0.1c-0.3,0.2-0.5,0.4-0.6,0.7c-0.1,0.3-0.1,0.9-0.1,1.7c0,0.2,0,0.5,0.1,0.8
	c0.1,1,0.1,1.6,0,1.9c-0.1,0.4-0.3,0.8-0.5,1.1c-0.2,0.3-0.6,0.6-0.9,0.8c-1,0.6-1.9,0.7-2.9,0.4c-1-0.3-1.7-1-2.4-2.1
	c-0.3-0.6-0.6-1.1-0.7-1.6C126.7,50.4,126.7,50,126.7,49.6z"/>
<path class="st0" d="M63.5,140.2c0.1-0.2,0.1-0.5,0.2-0.9c0.1-0.4,0.2-0.7,0.3-1c0.1-0.3,0.2-0.6,0.2-0.9c0,0,0.1,0,0.2,0
	c0.1,0,0.2,0,0.2,0.1c0.6,0.1,0.9,0.4,1.1,0.7c0.2,0.3,0.2,0.8,0,1.4c-0.2,0.6-0.4,1-0.7,1.2c-0.3,0.2-0.8,0.3-1.3,0.1
	c-0.1,0-0.1,0-0.2-0.1c-0.1,0-0.1-0.1-0.2-0.1C63.4,140.6,63.4,140.4,63.5,140.2z M62.4,141c0.1,0,0.3,0.1,0.3,0.1
	c0.1,0,0.2,0.1,0.5,0.1c0.2,0.1,0.4,0.1,0.6,0.2c0.8,0.2,1.5,0.2,2-0.1c0.5-0.2,0.9-0.7,1-1.4c0.1-0.3,0.1-0.7,0.1-1
	c0-0.3-0.2-0.6-0.3-0.8c-0.1-0.2-0.3-0.3-0.5-0.4c-0.2-0.1-0.5-0.2-0.9-0.3c-0.1,0-0.4-0.1-0.6-0.2c-0.3-0.1-0.5-0.1-0.6-0.1
	c-0.1,0-0.2,0-0.2-0.1c-0.1,0-0.1,0-0.2-0.1c0,0.2-0.1,0.4-0.1,0.7c-0.1,0.3-0.1,0.6-0.3,1.1l-0.1,0.3l-0.1,0.5
	c-0.1,0.4-0.2,0.7-0.3,0.9c-0.1,0.2-0.1,0.4-0.2,0.6C62.3,140.9,62.3,140.9,62.4,141z"/>
<path class="st0" d="M67.1,142.1c0.1-0.2,0.1-0.5,0.2-0.7c0.1-0.3,0.2-0.7,0.3-1.3l0.1-0.3c0.1-0.5,0.2-0.8,0.2-1.1
	c0-0.3,0.1-0.5,0.1-0.7c0.2,0,0.4,0.1,0.6,0.1c0.2,0,0.4,0.1,0.6,0.1c0.2,0,0.4,0.1,0.6,0.1c0.2,0,0.4,0.1,0.5,0.1
	c0,0.1,0,0.1,0,0.2c0,0,0,0.1,0,0.1c0,0,0,0.1,0,0.1c0,0,0,0.1,0,0.2c-0.3-0.1-0.6-0.1-0.8-0.2c-0.2-0.1-0.4-0.1-0.6-0.1
	c0,0.1,0,0.2-0.1,0.2c0,0.1,0,0.2-0.1,0.4l-0.1,0.3l-0.1,0.4c0.1,0,0.3,0.1,0.7,0.1c0.3,0,0.5,0.1,0.7,0.1c0,0.1,0,0.1,0,0.1
	c0,0,0,0.1,0,0.1c0,0.1,0,0.1,0,0.2c0,0,0,0,0,0c-0.4-0.1-0.6-0.2-0.8-0.2c-0.2,0-0.4-0.1-0.5-0.1l-0.1,0.7
	c-0.1,0.3-0.1,0.4-0.1,0.6c0,0.1,0,0.2,0,0.3c0.2,0,0.4,0.1,0.6,0.1c0.2,0,0.5,0.1,0.7,0.1c0,0,0,0.1,0,0.1c0,0,0,0.1,0,0.1
	c0,0,0,0.1,0,0.2c0,0.1,0,0.1,0,0.1c-0.4-0.1-0.7-0.2-0.9-0.2c-0.2,0-0.4-0.1-0.5-0.1c-0.2,0-0.3-0.1-0.5-0.1
	C67.4,142.2,67.3,142.2,67.1,142.1z"/>
<path class="st0" d="M71.8,139.7c0-0.1,0-0.2,0.1-0.3c0-0.1,0-0.2,0.1-0.3c0,0,0,0,0,0c0.1,0,0.1,0,0.2,0c0.2,0,0.4,0.1,0.5,0.3
	c0.1,0.1,0.1,0.4,0.1,0.6c0,0.3-0.1,0.5-0.3,0.7c-0.2,0.1-0.4,0.2-0.7,0.1L71.8,139.7z M70.6,142.8c0.1,0,0.2,0,0.2,0
	c0.1,0,0.2,0,0.2,0c0.1,0,0.2,0,0.3,0.1c0-0.3,0-0.5,0-0.6c0-0.1,0-0.2,0-0.3l0.1-0.9c0,0,0.1,0,0.1,0c0,0,0.1,0,0.1,0
	c0.6,0.1,1,0,1.3-0.1c0.3-0.2,0.5-0.5,0.5-0.9c0.1-0.4,0-0.7-0.2-0.9c-0.2-0.2-0.5-0.3-1-0.4c-0.1,0-0.3,0-0.6-0.1
	c-0.2,0-0.4,0-0.5-0.1c-0.1,0-0.1,0-0.2,0c-0.1,0-0.1,0-0.2,0c0,0.3,0,0.6-0.1,0.9c0,0.3-0.1,0.7-0.1,1.2c-0.1,0.5-0.1,0.9-0.2,1.2
	c-0.1,0.3-0.1,0.6-0.2,0.9C70.5,142.7,70.6,142.7,70.6,142.8z"/>
<path class="st0" d="M74.3,139c0.1,0,0.2,0,0.2,0c0.1,0,0.2,0,0.3,0c0.1,0,0.2,0,0.3,0c0.1,0,0.2,0,0.2,0c-0.1,0.3-0.1,0.7-0.1,1
	c0,0.4-0.1,0.8-0.1,1.2c0,0.4,0,0.6,0,0.8c0,0.2,0,0.3,0.1,0.4c0.1,0.2,0.2,0.3,0.3,0.4c0.2,0.1,0.3,0.2,0.6,0.2
	c0.2,0,0.4,0,0.6-0.1c0.2-0.1,0.3-0.2,0.4-0.3c0.1-0.1,0.2-0.3,0.2-0.5c0-0.2,0.1-0.5,0.1-1c0-0.4,0-0.7,0.1-1.1c0-0.3,0-0.6,0-0.9
	c0,0,0.1,0,0.1,0c0.1,0,0.1,0,0.2,0c0.1,0,0.1,0,0.2,0c0.1,0,0.1,0,0.1,0c0,0.3-0.1,0.5-0.1,0.8c0,0.2,0,0.4-0.1,0.6
	c0,0.1,0,0.2,0,0.5c0,0.2,0,0.4,0,0.5c0,0.4-0.1,0.7-0.2,0.9c-0.1,0.2-0.2,0.4-0.3,0.5c-0.2,0.2-0.4,0.3-0.6,0.4
	c-0.2,0.1-0.5,0.1-0.9,0.1c-0.4,0-0.7-0.1-0.9-0.2c-0.3-0.1-0.4-0.3-0.6-0.5c-0.1-0.1-0.1-0.3-0.2-0.5c0-0.2,0-0.6,0-1l0-0.5
	c0-0.4,0-0.7,0-0.9C74.3,139.4,74.3,139.2,74.3,139z"/>
<path class="st0" d="M78.9,143.5c0-0.3,0-0.6,0.1-0.9c0-0.3,0-0.7,0-1.2c0-0.5,0-0.9,0-1.2c0-0.3,0-0.6,0-0.9c0.1,0,0.2,0,0.3,0
	c0.1,0,0.2,0,0.3,0c0.1,0,0.2,0,0.3,0c0.1,0,0.2,0,0.3,0c0,0.3,0,0.6-0.1,0.9c0,0.3,0,0.7,0,1.2c0,0.5,0,0.9,0,1.3
	c0,0.3,0,0.6,0,0.9c-0.1,0-0.2,0-0.3,0c-0.1,0-0.2,0-0.2,0c-0.1,0-0.2,0-0.3,0C79.1,143.5,79,143.5,78.9,143.5z"/>
<path class="st0" d="M80.8,143.3c0-0.1,0.1-0.3,0.1-0.4c0-0.1,0.1-0.3,0.1-0.4l0.1,0c0.1,0.2,0.2,0.4,0.3,0.5
	c0.2,0.1,0.4,0.2,0.6,0.2c0.2,0,0.4-0.1,0.5-0.2c0.1-0.1,0.2-0.3,0.2-0.5c0-0.1,0-0.3-0.1-0.4c-0.1-0.1-0.3-0.2-0.6-0.4
	c-0.5-0.2-0.8-0.5-1-0.6c-0.2-0.2-0.2-0.4-0.2-0.7c0-0.4,0.1-0.7,0.4-0.9c0.3-0.2,0.6-0.4,1-0.4c0.2,0,0.4,0,0.5,0.1
	c0.2,0,0.3,0.1,0.5,0.2c0,0.1-0.1,0.2-0.1,0.4c0,0.1-0.1,0.2-0.1,0.3l-0.1,0c-0.1-0.2-0.2-0.3-0.3-0.4c-0.2-0.1-0.3-0.1-0.5-0.1
	c-0.2,0-0.3,0.1-0.4,0.2c-0.1,0.1-0.2,0.2-0.2,0.4c0,0.1,0,0.3,0.1,0.3c0.1,0.1,0.3,0.2,0.6,0.4c0.1,0,0.2,0.1,0.3,0.1
	c0.3,0.2,0.6,0.3,0.6,0.4c0.1,0.1,0.2,0.2,0.3,0.4c0.1,0.1,0.1,0.3,0.1,0.5c0,0.4-0.1,0.8-0.4,1c-0.3,0.3-0.6,0.4-1.1,0.4
	c-0.2,0-0.5,0-0.6-0.1C81.1,143.5,81,143.4,80.8,143.3z"/>
<path class="st0" d="M87.1,143.1c0-0.4,0-0.7-0.1-1.1c0-0.4-0.1-0.7-0.1-1.1c0-0.2-0.1-0.4-0.1-0.6c0-0.2-0.1-0.4-0.1-0.5
	c-0.1,0.1-0.2,0.1-0.3,0.2c-0.1,0.1-0.2,0.1-0.3,0.2l-0.3-0.3c0.3-0.1,0.6-0.3,0.9-0.4c0.3-0.2,0.6-0.3,0.8-0.5l0.1,0
	c0,0.2,0,0.4,0,0.7c0,0.3,0.1,0.7,0.2,1.4c0.1,0.6,0.1,1,0.2,1.3c0,0.3,0.1,0.5,0.1,0.7c-0.1,0-0.2,0-0.2,0c-0.1,0-0.2,0-0.2,0
	c-0.1,0-0.1,0-0.2,0C87.2,143.1,87.1,143.1,87.1,143.1z"/>
<path class="st0" d="M91,140.4c-0.1,0.2-0.2,0.3-0.4,0.3c-0.2,0-0.3,0-0.5-0.2c-0.1-0.1-0.2-0.4-0.3-0.7c-0.1-0.3-0.1-0.6,0-0.7
	c0.1-0.2,0.2-0.3,0.4-0.3c0.2,0,0.3,0,0.5,0.2c0.1,0.1,0.2,0.4,0.3,0.7C91.1,140,91.1,140.2,91,140.4z M91.1,141.9
	c-0.2,0.4-0.4,0.6-0.8,0.6c-0.1,0-0.2,0-0.3,0c-0.1,0-0.2,0-0.3-0.1l0.1,0.3c0.1,0,0.2,0,0.2,0c0.1,0,0.2,0,0.3,0
	c0.6-0.1,1-0.4,1.3-0.9c0.3-0.5,0.4-1.1,0.2-1.8c-0.1-0.6-0.3-1-0.6-1.2c-0.3-0.3-0.7-0.4-1.1-0.3c-0.4,0.1-0.8,0.3-1,0.6
	c-0.2,0.3-0.3,0.6-0.3,1c0.1,0.4,0.2,0.6,0.5,0.8c0.2,0.2,0.5,0.2,0.9,0.2c0.2,0,0.3-0.1,0.5-0.2c0.1-0.1,0.2-0.2,0.3-0.4
	C91.3,141.1,91.3,141.5,91.1,141.9z"/>
<path class="st0" d="M93.2,141.1c0.1,0.3,0.2,0.5,0.4,0.6c0.1,0.1,0.3,0.1,0.5,0.1c0.2,0,0.3-0.2,0.4-0.3c0.1-0.2,0.1-0.4,0-0.7
	c-0.1-0.3-0.2-0.5-0.3-0.6c-0.1-0.1-0.3-0.2-0.6-0.1c-0.1,0-0.1,0-0.1,0c0,0-0.1,0-0.1,0l-0.1-0.3c0,0,0.1,0,0.1,0c0,0,0,0,0,0
	c0.2-0.1,0.4-0.2,0.5-0.3c0.1-0.2,0.1-0.4,0-0.7c-0.1-0.2-0.1-0.4-0.3-0.5c-0.1-0.1-0.3-0.1-0.4-0.1c-0.2,0-0.3,0.1-0.3,0.3
	c-0.1,0.2-0.1,0.4,0,0.6l0,0c-0.1-0.1-0.4-0.2-0.6-0.3c0.1-0.2,0.2-0.4,0.4-0.6c0.2-0.1,0.4-0.2,0.7-0.3c0.4-0.1,0.7-0.1,1,0
	c0.3,0.1,0.4,0.3,0.5,0.6c0.1,0.2,0,0.4-0.1,0.6c-0.1,0.2-0.3,0.3-0.5,0.5l0,0c0.4,0,0.6,0,0.8,0.1c0.2,0.1,0.3,0.3,0.4,0.6
	c0.1,0.4,0,0.7-0.2,1c-0.2,0.3-0.6,0.5-1,0.6c-0.2,0.1-0.5,0.1-0.7,0.1c-0.2,0-0.4-0.1-0.6-0.2c0.1-0.2,0.1-0.3,0.2-0.4
	C93.2,141.3,93.2,141.2,93.2,141.1z"/>
<path class="st0" d="M97.6,141.1c-0.1-0.4-0.2-0.7-0.3-1.1c-0.1-0.4-0.2-0.7-0.3-1.1c-0.1-0.2-0.1-0.4-0.2-0.6
	c-0.1-0.2-0.1-0.4-0.2-0.5c-0.1,0.1-0.2,0.2-0.3,0.3c-0.1,0.1-0.2,0.2-0.3,0.3l-0.4-0.3c0.3-0.2,0.5-0.4,0.8-0.6
	c0.2-0.2,0.5-0.4,0.7-0.7l0.1,0c0,0.2,0.1,0.4,0.2,0.6c0.1,0.3,0.2,0.7,0.4,1.4c0.2,0.6,0.3,1,0.4,1.3c0.1,0.3,0.2,0.5,0.2,0.7
	c-0.1,0-0.2,0-0.2,0c-0.1,0-0.1,0-0.2,0.1c-0.1,0-0.1,0-0.2,0.1C97.8,141,97.7,141,97.6,141.1z"/>
<path class="st1" d="M66.2,112.3c0,7.7,6.3,14,14,14c7.7,0,14-6.3,14-14s-6.3-14-14-14C72.5,98.3,66.2,104.6,66.2,112.3z"/>
<path class="st0" d="M93.4,109.6c-0.7-3.6-2.8-6.6-5.8-8.5c-0.3,0-0.7,0-1,0c-1.2,0.9-2.2,2.2-3,3.5c0.7,1.3,1.4,3.3,1.8,5.4
	c1.9,0.6,4,1.6,5.4,2.8C91.7,112.2,92.6,111.1,93.4,109.6z"/>
<path class="st0" d="M75.7,122.4c1.6-0.4,3.1-1.1,4.2-2v-6.7l-4.8-3.3c-1.9,0.6-4.1,1.7-5.4,2.9c-0.3,1.5-0.4,3.3,0,4.8
	C71.3,120,73.2,121.5,75.7,122.4z"/>
<path class="st0" d="M69.6,112.8c1.4-1.2,3.5-2.2,5.4-2.8c0.3-2.1,1.1-4.1,1.8-5.4c-0.8-1.3-1.8-2.6-3-3.5c-0.3,0-0.7,0-1,0
	c-2.9,1.9-5,5-5.8,8.5C67.8,111.1,68.7,112.2,69.6,112.8z"/>
<path class="st0" d="M90.8,118.8c-1.6,1.8-3.4,3.2-5.8,4.1c-0.4,1-0.9,1.9-1.5,2.6c3.6-0.9,6.7-3.2,8.5-6.4
	C91.5,119,91.1,118.9,90.8,118.8z"/>
<path class="st0" d="M75.5,122.8c-2.5-0.9-4.3-2.3-5.8-4.1c-0.3,0.1-0.7,0.2-1.1,0.3c1.8,3.2,4.9,5.5,8.5,6.4
	C76.4,124.7,75.9,123.8,75.5,122.8z"/>
<path class="st0" d="M74.2,100.9c1.1,0.9,2.2,2.2,2.9,3.4c1-0.1,2-0.1,3.1-0.1c1.1,0,2.1,0,3.1,0.1c0.7-1.2,1.8-2.5,2.9-3.4
	c0-0.3-0.1-0.5-0.3-0.8c-1.7-0.8-3.7-1.3-5.7-1.3c-2,0-4,0.5-5.7,1.3C74.3,100.4,74.2,100.6,74.2,100.9z"/>
<path class="st0" d="M85.3,110.4l-4.8,3.3v6.7c1.1,0.8,2.6,1.6,4.2,2c2.6-0.9,4.4-2.4,6-4.3c0.4-1.6,0.3-3.3,0-4.8
	C89.3,112.1,87.2,111,85.3,110.4z"/>
<path class="st1" d="M48,70.5c0.2-0.7,0.5-1.5,0.7-2.3c0.2-0.8,0.5-1.7,0.7-2.5h0.6c0.4,1.4,1.1,2.4,2.2,3.2c1.1,0.7,2.4,1.1,4,1.1
	c1.4,0,2.6-0.3,3.4-1c0.9-0.6,1.3-1.5,1.3-2.6c0-0.8-0.3-1.4-0.8-2c-0.5-0.6-1.9-1.3-4-2.3c-3.2-1.5-5.3-2.7-6.3-3.8
	c-1-1.1-1.5-2.4-1.5-4c0-2.1,0.9-3.9,2.7-5.2c1.8-1.3,4.2-2,7.1-2c1.3,0,2.5,0.1,3.6,0.4c1.1,0.3,2.1,0.7,3.1,1.2
	c-0.3,0.7-0.5,1.3-0.8,2c-0.2,0.6-0.4,1.3-0.6,1.9h-0.5c-0.4-1-1.1-1.9-2.1-2.5c-1-0.6-2.2-0.9-3.5-0.9c-1.2,0-2.2,0.3-3,0.8
	c-0.8,0.6-1.1,1.3-1.1,2.2c0,0.8,0.3,1.4,0.8,2c0.6,0.6,1.8,1.2,3.7,2.1c0.4,0.2,1,0.5,1.8,0.8c2.2,0.9,3.7,1.7,4.3,2.2
	c0.8,0.7,1.3,1.4,1.7,2.1c0.4,0.8,0.5,1.7,0.5,2.6c0,2.4-1,4.3-2.9,5.7c-1.9,1.4-4.5,2.2-7.7,2.2c-1.7,0-3.1-0.1-4.4-0.4
	C49.9,71.4,48.8,71,48,70.5z"/>
<path class="st1" d="M100.5,53.2c0-0.8,0-1.6,0-2.4c0-0.8,0-1.6,0.1-2.5c0.1,0,0.2,0,0.4,0c0.2,0,0.3,0,0.4,0c1.8,0,3.1,0.4,3.9,1.2
	c0.8,0.8,1.2,2.1,1.2,3.8c0,2-0.5,3.5-1.4,4.5c-0.9,0.9-2.4,1.4-4.5,1.4h-0.1V53.2z M96.9,72c0.5,0,0.9,0,1.3,0c0.4,0,0.9,0,1.3,0
	c0.4,0,0.9,0.1,1.4,0.1c-0.1-1.3-0.1-2.5-0.2-3.6c0-1.1-0.1-2.2-0.1-3.3v-4.9c1.3,2.1,2.5,4.1,3.6,6.1c1.1,2,2.2,3.9,3.2,5.8
	c0.6-0.1,1.1-0.1,1.6-0.1c0.5,0,1,0,1.4,0c0.5,0,0.9,0,1.5,0c0.5,0,1,0.1,1.6,0.1l-7.7-12.3c1.8-0.5,3.2-1.2,4.1-2.3
	c0.9-1.1,1.4-2.4,1.4-4.1c0-2.1-0.7-3.7-2-4.7c-1.3-1-3.4-1.5-6.1-1.5c-1.2,0-2.5,0-3.8,0.1c-1.3,0-2.1,0.1-2.2,0.1
	c-0.3,0-0.6,0-0.9,0c-0.3,0-0.6-0.1-0.9-0.1c0.1,1.7,0.2,3.6,0.3,5.6c0.1,2,0.1,4.3,0.1,6.9c0,2.7,0,5.1-0.1,7
	c-0.1,1.9-0.2,3.7-0.3,5.4C95.9,72.1,96.4,72,96.9,72z"/>
<path class="st1" d="M120.2,68.8c-0.2-0.2-0.5-0.6-0.7-0.6c-0.1,0-0.1,0.1-0.1,0.1c0,0.1,0.1,0.2,0.1,0.3c0.3,0.4,0.6,0.7,0.9,1.2
	c0.7,1.1,1.1,2.4,1.1,3.8c0,2.8-1.6,5.4-4.5,7.8c-3,2.4-7.5,4.3-13.3,4.3c-5.5,0-10.8-1.7-15.4-4.3c3.1-2.4,6.9-4,11.2-4
	c2.3,0,4.7,0.3,6.7,1.2c1,0.5,1.3,0.7,1.6,0.7c0.1,0,0.1-0.1,0.1-0.1c0-0.3-0.5-0.7-1-1.1c-1.8-1.3-5-2.6-8.2-2.6
	c-4.2,0-8.7,1.7-12.3,4.9c-1.9-1.3-3.7-2.7-5.3-4.3c3.5-4.6,5.5-9.9,5.5-14.9c0-6.4-3-11.6-6.7-11.6c-3.7,0-6.7,5.2-6.7,11.6
	c0,5.1,2.1,10.3,5.5,14.9c-1.6,1.6-3.3,3-5.3,4.3c-3.6-3.2-8.1-4.9-12.3-4.9c-3.2,0-6.4,1.3-8.2,2.6c-0.5,0.4-1,0.9-1,1.1
	c0,0.1,0.1,0.1,0.1,0.1c0.3,0,0.6-0.3,1.6-0.7c2-1,4.4-1.2,6.7-1.2c4.3,0,8.2,1.6,11.2,4c-4.6,2.7-10,4.3-15.4,4.3
	c-5.8,0-10.2-1.8-13.3-4.3c-2.9-2.4-4.5-5-4.5-7.8c0-1.5,0.5-2.8,1.1-3.8c0.3-0.4,0.6-0.8,0.9-1.2c0.1-0.1,0.1-0.2,0.1-0.3
	c0-0.1,0-0.1-0.1-0.1c-0.2,0-0.5,0.3-0.7,0.6c-1.4,1.6-2.3,4.1-2.3,6.7c0,8,8.4,13.7,17.8,13.7c6.8,0,13.1-2.4,18.3-6.2
	c0.2,0.2,0.3,0.3,0.5,0.5c3.4,3.6,5.2,7.3,5.7,11.1c0.5-3.8,2.3-7.5,5.7-11.1c0.1-0.2,0.3-0.3,0.5-0.5c5.2,3.7,11.6,6.2,18.3,6.2
	c9.4,0,17.8-5.7,17.8-13.7C122.5,72.9,121.5,70.4,120.2,68.8z M74.6,61.9c0-5.4,2.5-9.8,5.6-9.8c3.1,0,5.6,4.4,5.6,9.8
	c0,4.4-2.1,9-5.6,12.9C76.7,70.9,74.6,66.3,74.6,61.9z M80.2,91.6c-0.8-3.9-2.5-7.1-4.7-9.6c1.7-1.4,3.3-2.9,4.7-4.6
	c1.4,1.6,3,3.2,4.7,4.6C82.7,84.6,81,87.8,80.2,91.6z"/>
</svg>
