<?xml version="1.0" encoding="utf-8"?>
<!-- Generator: Adobe Illustrator 19.1.0, SVG Export Plug-In . SVG Version: 6.00 Build 0)  -->
<svg version="1.1" id="Layer_1" xmlns="http://www.w3.org/2000/svg" xmlns:xlink="http://www.w3.org/1999/xlink" x="0px" y="0px"
	 viewBox="0 0 160 160" style="enable-background:new 0 0 160 160;" xml:space="preserve">
<style type="text/css">
	.st0{fill-rule:evenodd;clip-rule:evenodd;fill:#FBBC19;}
	.st1{fill-rule:evenodd;clip-rule:evenodd;}
	.st2{fill-rule:evenodd;clip-rule:evenodd;fill:#E13527;}
	.st3{fill-rule:evenodd;clip-rule:evenodd;fill:#FFFFFF;}
	.st4{fill-rule:evenodd;clip-rule:evenodd;fill:#D83A4A;}
	.st5{fill-rule:evenodd;clip-rule:evenodd;fill:#414042;}
</style>
<g>
	<path class="st0" d="M80.4,152.8c-1.3-2.3-2.5-4.5-4.3-6.5c-1.6-1.7-3.5-3.3-5.6-4.7c-3.7-2.5-8.1-4.6-12.8-6.4
		c-1.9-0.7-4-1.5-6-2.2c-5.6-1.9-10.9-3.8-16.1-7.4c-4.8-3.4-8.6-7.5-11.2-12.5c-2.4-4.7-3.8-10.3-3.8-16.6
		c-0.1-9.2,2.7-20.7,5.4-32.2c2.4-10.3,4.9-20.6,5.2-28.8c0.1-3.4-1.3-6-2.7-8.4c-0.6-1-1.1-1.9-1.7-2.9L39.8,9.3
		c5.2,1.3,10.5,2.3,15.8,3.1c8.1,1.1,16.5,1.7,24.9,1.7c8.4,0,16.8-0.6,24.9-1.7c5.3-0.7,10.6-1.8,15.8-3.1L134,24.1
		c-0.5,1-1.1,1.9-1.6,2.9c-1.4,2.4-2.8,5-2.7,8.4c0.3,8.3,2.8,18.6,5.2,28.8c2.7,11.5,5.5,23,5.4,32.2c-0.1,6.3-1.4,11.8-3.8,16.6
		c-2.6,5-6.4,9.2-11.2,12.5c-5.2,3.6-10.5,5.5-16.1,7.4c-2.1,0.7-4.1,1.4-6,2.2c-4.7,1.8-9.1,3.9-12.8,6.4c-2.1,1.4-4,3-5.6,4.7
		C83,148.3,81.7,150.5,80.4,152.8L80.4,152.8z"/>
	<path class="st1" d="M41,13.3l-9.8,11.3c0.1,0.2,0.3,0.5,0.4,0.7c1.7,2.9,3.3,5.9,3.2,10.3c-0.4,8.6-2.8,19.1-5.4,29.5
		c-2.7,11.3-5.4,22.6-5.3,31.4c0.1,5.7,1.3,10.7,3.4,14.9c2.3,4.5,5.7,8.2,10.1,11.2c4.8,3.4,9.9,5.1,15.2,7c2,0.7,4,1.4,6.2,2.2h0
		c4.9,1.9,9.5,4.1,13.5,6.7c3.2,2.1,5.9,4.6,8,7.3V17.7C67,17.7,53.5,16.2,41,13.3L41,13.3z"/>
	<path class="st2" d="M80.4,146c2.1-2.8,4.8-5.2,8-7.3c3.9-2.7,8.6-4.8,13.5-6.8c2.2-0.9,4.2-1.6,6.2-2.2c5.3-1.8,10.4-3.6,15.2-7
		c4.3-3,7.7-6.8,10.1-11.2c2.2-4.3,3.4-9.2,3.4-14.9c0.1-8.8-2.6-20.1-5.3-31.4c-2.5-10.5-5-20.9-5.4-29.5
		c-0.2-4.4,1.5-7.4,3.2-10.3c0.1-0.2,0.3-0.5,0.4-0.7l-9.8-11.3c-12.5,2.9-25.9,4.4-39.4,4.4V146L80.4,146z"/>
	<path class="st3" d="M108.8,113.2v-5.7h1.7c0.3,0,0.5,0,0.8,0.1c0.2,0.1,0.4,0.2,0.6,0.3c0.2,0.1,0.3,0.3,0.4,0.5
		c0.1,0.2,0.1,0.4,0.1,0.6c0,0.2,0,0.3-0.1,0.4c0,0.1-0.1,0.2-0.2,0.3c-0.1,0.1-0.2,0.2-0.3,0.3c-0.1,0-0.1,0.1-0.1,0.1
		c0.1,0.1,0.2,0.1,0.3,0.1c0.2,0.1,0.3,0.2,0.4,0.3c0.1,0.1,0.2,0.3,0.3,0.4c0.1,0.2,0.1,0.3,0.1,0.5c0,0.2-0.1,0.5-0.1,0.7
		c-0.1,0.2-0.2,0.4-0.4,0.5c-0.2,0.2-0.4,0.3-0.6,0.3c-0.2,0.1-0.5,0.1-0.8,0.1H108.8L108.8,113.2z"/>
	<path class="st4" d="M109.8,109.8h0.4c0.2,0,0.3,0,0.5-0.1c0.1,0,0.2-0.1,0.3-0.2c0.1-0.1,0.1-0.1,0.2-0.2c0.1-0.1,0.1-0.2,0.1-0.3
		c0-0.2-0.1-0.4-0.2-0.5c-0.1-0.1-0.1-0.1-0.2-0.1c-0.1,0-0.3,0-0.4,0h-0.6V109.8L109.8,109.8z"/>
	<path class="st4" d="M109.8,110.7v1.5h0.9c0.2,0,0.3,0,0.5-0.1c0.1,0,0.2-0.1,0.3-0.1c0.1-0.1,0.1-0.1,0.2-0.2
		c0-0.1,0.1-0.2,0.1-0.3c0-0.1,0-0.2-0.1-0.3c0-0.1-0.1-0.2-0.2-0.2c-0.1-0.1-0.2-0.1-0.3-0.2c-0.1,0-0.3,0-0.5,0H109.8L109.8,110.7
		z"/>
	<path class="st3" d="M102.7,107.4h1v3.3c0,0.3,0,0.6,0.1,0.7c0,0.1,0.1,0.1,0.1,0.2c0,0.1,0.1,0.1,0.1,0.1c0.1,0.1,0.2,0.2,0.2,0.2
		c0.1,0.1,0.2,0.1,0.3,0.2c0.1,0.1,0.2,0.1,0.3,0.1c0.1,0,0.2,0,0.4,0c0.2,0,0.4,0,0.6-0.1c0.2-0.1,0.3-0.1,0.5-0.3
		c0.1-0.1,0.2-0.2,0.3-0.4c0.1-0.2,0.1-0.3,0.1-0.5v-3.6h1v3.6c0,0.6-0.2,1.2-0.7,1.6c-0.2,0.2-0.5,0.3-0.8,0.5
		c-0.3,0.1-0.6,0.1-1,0.1c-0.2,0-0.4,0-0.6-0.1c-0.2,0-0.4-0.1-0.6-0.2c-0.2-0.1-0.3-0.2-0.5-0.3c-0.2-0.1-0.3-0.2-0.4-0.4
		c-0.1-0.1-0.1-0.2-0.2-0.3c-0.1-0.1-0.1-0.2-0.1-0.3c0-0.1-0.1-0.2-0.1-0.4c0-0.2,0-0.3,0-0.6V107.4L102.7,107.4z"/>
	<polygon class="st3" points="98.6,113.2 98.6,107.4 99.6,107.4 99.6,112.2 102.2,112.2 102.2,113.2 98.6,113.2 	"/>
	<path class="st3" d="M97.7,111.5v1.1l-0.1,0c-0.2,0.1-0.3,0.2-0.5,0.2c-0.2,0.1-0.3,0.1-0.5,0.2c-0.2,0.1-0.3,0.1-0.5,0.1
		c-0.2,0-0.3,0-0.5,0c-0.2,0-0.3,0-0.5,0c-0.2,0-0.3-0.1-0.5-0.1c-0.2,0-0.3-0.1-0.4-0.2c-0.1-0.1-0.3-0.1-0.4-0.2
		c-0.2-0.1-0.4-0.3-0.6-0.5c-0.2-0.2-0.3-0.4-0.4-0.6c-0.1-0.2-0.2-0.4-0.2-0.7c-0.1-0.2-0.1-0.5-0.1-0.7c0-0.2,0-0.4,0.1-0.6
		c0.1-0.2,0.1-0.4,0.2-0.5c0.1-0.2,0.2-0.3,0.3-0.5c0.1-0.2,0.2-0.3,0.4-0.5c0.1-0.1,0.3-0.3,0.5-0.4c0.2-0.1,0.3-0.2,0.5-0.3
		c0.2-0.1,0.4-0.1,0.6-0.2c0.2,0,0.4-0.1,0.7-0.1c0.2,0,0.3,0,0.5,0c0.2,0,0.3,0.1,0.5,0.1c0.2,0,0.3,0.1,0.5,0.1
		c0.2,0.1,0.3,0.1,0.5,0.2l0.1,0v1.1l-0.1-0.1c-0.2-0.1-0.3-0.2-0.5-0.2c-0.2-0.1-0.3-0.1-0.5-0.2c-0.1-0.1-0.3-0.1-0.4-0.1
		c-0.1,0-0.3,0-0.4,0c-0.6,0-1.1,0.2-1.5,0.6c-0.2,0.2-0.3,0.4-0.5,0.6c-0.1,0.2-0.1,0.5-0.1,0.8c0,0.3,0,0.5,0.1,0.8
		c0.1,0.2,0.2,0.5,0.5,0.6c0.2,0.2,0.4,0.3,0.6,0.4c0.3,0.1,0.5,0.1,0.8,0.1c0.2,0,0.3,0,0.5,0c0.2,0,0.3-0.1,0.5-0.1
		c0.2-0.1,0.3-0.1,0.5-0.2c0.2-0.1,0.3-0.2,0.5-0.3L97.7,111.5L97.7,111.5z"/>
	<polygon class="st3" points="85.1,113.2 85.1,107.4 86.1,107.4 86.1,112.2 88.7,112.2 88.7,113.2 85.1,113.2 	"/>
	<polygon class="st3" points="80.9,113.2 80.9,107.4 81.9,107.4 81.9,112.2 84.5,112.2 84.5,113.2 80.9,113.2 	"/>
	<polygon class="st3" points="74.8,113.2 74.9,113 77.3,107.5 77.3,107.4 78,107.4 78.1,107.5 80.4,113 80.5,113.2 79.4,113.2 
		79.4,113.1 78.8,111.5 76.6,111.5 75.9,113.1 75.9,113.2 74.8,113.2 	"/>
	<polygon class="st5" points="77,110.6 78.3,110.6 77.7,109 77,110.6 	"/>
	<path class="st3" d="M70.8,113.2v-5.7h1.7c0.3,0,0.6,0,0.8,0.1c0.2,0.1,0.4,0.2,0.6,0.3c0.2,0.1,0.3,0.3,0.3,0.5
		c0.1,0.2,0.1,0.4,0.1,0.6c0,0.2,0,0.3-0.1,0.4c-0.1,0.1-0.1,0.2-0.2,0.3c-0.1,0.1-0.2,0.2-0.3,0.3c0,0-0.1,0.1-0.1,0.1
		c0.1,0.1,0.2,0.1,0.3,0.1c0.2,0.1,0.3,0.2,0.4,0.3c0.1,0.1,0.2,0.3,0.3,0.4c0.1,0.2,0.1,0.3,0.1,0.5c0,0.2,0,0.5-0.1,0.7
		c-0.1,0.2-0.2,0.4-0.4,0.5c-0.2,0.2-0.4,0.3-0.6,0.3c-0.2,0.1-0.5,0.1-0.8,0.1H70.8L70.8,113.2z"/>
	<path class="st1" d="M71.8,109.8h0.4c0.2,0,0.4,0,0.5-0.1c0.1,0,0.2-0.1,0.3-0.2c0.1-0.1,0.2-0.1,0.2-0.2c0.1-0.1,0.1-0.2,0.1-0.3
		c0-0.2-0.1-0.4-0.2-0.5c-0.1-0.1-0.2-0.1-0.3-0.1c-0.1,0-0.2,0-0.4,0h-0.7V109.8L71.8,109.8z"/>
	<path class="st1" d="M71.8,110.7v1.5h1c0.2,0,0.3,0,0.5-0.1c0.1,0,0.2-0.1,0.3-0.1c0.1-0.1,0.1-0.1,0.2-0.2c0-0.1,0.1-0.2,0.1-0.3
		c0-0.1,0-0.2-0.1-0.3c-0.1-0.1-0.1-0.2-0.2-0.2c-0.1-0.1-0.2-0.1-0.3-0.2c-0.2,0-0.3,0-0.5,0H71.8L71.8,110.7z"/>
	<polygon class="st3" points="67.1,113.2 67.1,108.4 65.1,108.4 65.1,107.4 70.1,107.4 70.1,108.4 68.1,108.4 68.1,113.2 
		67.1,113.2 	"/>
	<path class="st3" d="M58.7,110.3c0-0.2,0-0.4,0.1-0.6c0-0.2,0.1-0.3,0.2-0.5c0.1-0.2,0.2-0.3,0.3-0.5c0.1-0.2,0.2-0.3,0.4-0.5
		c0.2-0.1,0.3-0.3,0.5-0.4c0.2-0.1,0.3-0.2,0.5-0.3c0.2-0.1,0.4-0.1,0.6-0.2c0.2,0,0.4-0.1,0.6-0.1c0.2,0,0.4,0,0.6,0.1
		c0.2,0,0.4,0.1,0.6,0.2c0.2,0.1,0.3,0.2,0.5,0.3c0.2,0.1,0.3,0.2,0.5,0.4c0.2,0.2,0.3,0.3,0.4,0.5c0.1,0.2,0.2,0.3,0.3,0.5
		c0.1,0.2,0.1,0.4,0.2,0.6c0,0.2,0.1,0.4,0.1,0.6c0,0.2,0,0.4-0.1,0.6c-0.1,0.2-0.1,0.4-0.2,0.6c-0.1,0.2-0.2,0.3-0.3,0.5
		c-0.1,0.2-0.2,0.3-0.4,0.5c-0.2,0.1-0.3,0.3-0.5,0.4c-0.2,0.1-0.3,0.2-0.5,0.3c-0.2,0.1-0.3,0.1-0.6,0.2c-0.2,0-0.4,0.1-0.6,0.1
		c-0.2,0-0.4,0-0.6-0.1c-0.2,0-0.4-0.1-0.6-0.2c-0.2-0.1-0.4-0.2-0.5-0.3c-0.2-0.1-0.3-0.2-0.5-0.4c-0.1-0.1-0.3-0.3-0.4-0.5
		c-0.1-0.2-0.2-0.3-0.3-0.5c-0.1-0.2-0.1-0.4-0.2-0.6C58.7,110.7,58.7,110.5,58.7,110.3L58.7,110.3z"/>
	<path class="st1" d="M59.8,110.3c0,0.3,0.1,0.5,0.2,0.7c0,0.1,0.1,0.2,0.2,0.3c0.1,0.1,0.2,0.2,0.3,0.3c0.1,0.1,0.2,0.2,0.3,0.3
		c0.1,0.1,0.2,0.1,0.3,0.2c0.1,0.1,0.2,0.1,0.4,0.1c0.1,0,0.3,0,0.4,0c0.1,0,0.3,0,0.4,0c0.1,0,0.3-0.1,0.4-0.1
		c0.1-0.1,0.2-0.1,0.3-0.2c0.1-0.1,0.2-0.2,0.3-0.3c0.1-0.1,0.2-0.2,0.2-0.3c0.1-0.1,0.1-0.2,0.2-0.3c0.1-0.1,0.1-0.2,0.1-0.4
		c0-0.1,0.1-0.2,0.1-0.4c0-0.3-0.1-0.5-0.2-0.8c-0.1-0.1-0.1-0.2-0.2-0.3c-0.1-0.1-0.2-0.2-0.3-0.3c-0.1-0.1-0.2-0.2-0.3-0.3
		c-0.1-0.1-0.2-0.1-0.3-0.2c-0.1-0.1-0.2-0.1-0.4-0.1c-0.1,0-0.2,0-0.4,0c-0.1,0-0.3,0-0.4,0c-0.1,0-0.2,0.1-0.4,0.1
		c-0.1,0.1-0.2,0.1-0.3,0.2c-0.1,0.1-0.2,0.2-0.3,0.3c-0.1,0.1-0.2,0.2-0.3,0.3c-0.1,0.1-0.1,0.2-0.2,0.3
		C59.8,109.8,59.8,110,59.8,110.3L59.8,110.3z"/>
	<path class="st3" d="M52.1,110.3c0-0.2,0-0.4,0.1-0.6c0.1-0.2,0.1-0.3,0.2-0.5c0.1-0.2,0.2-0.3,0.3-0.5c0.1-0.2,0.2-0.3,0.4-0.5
		c0.1-0.1,0.3-0.3,0.5-0.4c0.2-0.1,0.3-0.2,0.5-0.3c0.2-0.1,0.3-0.1,0.6-0.2c0.2,0,0.4-0.1,0.6-0.1c0.2,0,0.4,0,0.6,0.1
		c0.2,0,0.4,0.1,0.6,0.2c0.2,0.1,0.3,0.2,0.5,0.3c0.2,0.1,0.3,0.2,0.5,0.4c0.1,0.2,0.3,0.3,0.4,0.5c0.1,0.2,0.2,0.3,0.3,0.5
		c0.1,0.2,0.1,0.4,0.2,0.6c0.1,0.2,0.1,0.4,0.1,0.6c0,0.2,0,0.4-0.1,0.6c0,0.2-0.1,0.4-0.2,0.6c-0.1,0.2-0.2,0.3-0.3,0.5
		c-0.1,0.2-0.2,0.3-0.4,0.5c-0.2,0.1-0.3,0.3-0.5,0.4c-0.2,0.1-0.3,0.2-0.5,0.3c-0.2,0.1-0.4,0.1-0.6,0.2c-0.2,0-0.4,0.1-0.6,0.1
		c-0.2,0-0.4,0-0.6-0.1c-0.2,0-0.4-0.1-0.6-0.2c-0.2-0.1-0.3-0.2-0.5-0.3c-0.2-0.1-0.3-0.2-0.5-0.4c-0.2-0.1-0.3-0.3-0.4-0.5
		c-0.1-0.2-0.2-0.3-0.3-0.5c-0.1-0.2-0.1-0.4-0.2-0.6C52.1,110.7,52.1,110.5,52.1,110.3L52.1,110.3z"/>
	<path class="st1" d="M53.1,110.3c0,0.3,0.1,0.5,0.2,0.7c0.1,0.1,0.1,0.2,0.2,0.3c0.1,0.1,0.2,0.2,0.2,0.3c0.1,0.1,0.2,0.2,0.3,0.3
		c0.1,0.1,0.2,0.1,0.3,0.2c0.1,0.1,0.2,0.1,0.4,0.1c0.1,0,0.3,0,0.4,0c0.1,0,0.3,0,0.4,0c0.1,0,0.2-0.1,0.4-0.1
		c0.1-0.1,0.2-0.1,0.3-0.2c0.1-0.1,0.2-0.2,0.3-0.3c0.1-0.1,0.2-0.2,0.2-0.3c0.1-0.1,0.1-0.2,0.2-0.3c0.1-0.1,0.1-0.2,0.1-0.4
		c0-0.1,0-0.2,0-0.4c0-0.3-0.1-0.5-0.2-0.8c0-0.1-0.1-0.2-0.2-0.3c-0.1-0.1-0.2-0.2-0.2-0.3c-0.1-0.1-0.2-0.2-0.3-0.3
		c-0.1-0.1-0.2-0.1-0.3-0.2c-0.1-0.1-0.3-0.1-0.4-0.1c-0.1,0-0.3,0-0.4,0c-0.1,0-0.3,0-0.4,0c-0.1,0-0.3,0.1-0.4,0.1
		c-0.1,0.1-0.2,0.1-0.3,0.2c-0.1,0.1-0.2,0.2-0.3,0.3c-0.1,0.1-0.2,0.2-0.2,0.3c-0.1,0.1-0.1,0.2-0.2,0.3
		C53.2,109.8,53.1,110,53.1,110.3L53.1,110.3z"/>
	<polygon class="st3" points="48.1,113.2 48.1,107.4 51.4,107.4 51.4,108.3 49.1,108.3 49.1,109.8 51.4,109.8 51.4,110.7 
		49.1,110.7 49.1,113.2 48.1,113.2 	"/>
	<path class="st0" d="M89,119c0,0,0.1,0,0.3,0h0.2h0.3c0,0.1,0,0.2,0,0.2c0,0,0,0.1,0,0.1c0,0.1,0,0.2,0,0.5v0.7v0.4l0,2.9v0.3
		c0,0.1,0,0.1,0.1,0.2c0.1,0,0.2,0.1,0.3,0.1c0.1,0,0.2,0,0.5,0.1c0,0,0,0.1,0,0.1c0,0,0,0.1,0,0.2h-0.2c-0.1,0-0.3,0-0.6,0
		c-0.2,0-0.3,0-0.3,0c-0.1,0-0.3,0-0.8,0c-0.1,0-0.1,0-0.1,0h-0.1l-0.1,0l-0.1,0l-0.2,0c0,0-0.1,0-0.2,0c0-0.1,0-0.1,0-0.2
		c0,0,0-0.1,0-0.1c0.1,0,0.3-0.1,0.4-0.1c0.2,0,0.4-0.1,0.4-0.1c0.1,0,0.1-0.1,0.1-0.2v-0.3l0-0.3l0-0.7v-0.2c0,0,0-0.1,0-0.3
		c0-0.1,0-0.1,0-0.2c0,0,0-0.1,0-0.3l0-0.2c0-0.2,0-0.3,0-0.3c0,0,0-0.1,0-0.1V121l0-0.3l0-0.1c0-0.1,0-0.1,0-0.2c0-0.1,0-0.2,0-0.3
		c-0.2,0.1-0.5,0.3-0.8,0.5c0,0-0.2,0.1-0.4,0.2c-0.1-0.2-0.2-0.2-0.2-0.3c0.3-0.2,0.5-0.3,0.7-0.3c0.2-0.1,0.4-0.3,0.6-0.5
		C88.7,119.4,88.8,119.2,89,119L89,119z"/>
	<path class="st0" d="M81.4,121.9c0-0.3,0-0.6,0.1-0.7c0.1-0.4,0.2-0.7,0.3-0.9c0.1-0.3,0.3-0.5,0.5-0.7c0.2-0.2,0.4-0.3,0.6-0.4
		c0.1-0.1,0.3-0.1,0.6-0.1c0.3,0,0.6,0.1,0.9,0.3s0.5,0.5,0.7,0.9c0.2,0.4,0.3,1,0.3,1.6c0,0.5-0.1,0.9-0.2,1.4
		c-0.1,0.3-0.2,0.5-0.3,0.7c-0.1,0.2-0.3,0.4-0.3,0.5c-0.2,0.1-0.3,0.3-0.5,0.3c-0.2,0.1-0.3,0.1-0.5,0.1c-0.3,0-0.6,0-0.8-0.1
		c-0.2-0.1-0.3-0.2-0.5-0.3c-0.2-0.2-0.3-0.4-0.5-0.6c-0.1-0.2-0.2-0.5-0.3-0.7C81.5,122.7,81.4,122.4,81.4,121.9L81.4,121.9z"/>
	<path class="st0" d="M76.1,124.9c-0.1-0.1-0.1-0.1-0.1-0.2c0,0,0-0.1,0.1-0.1c0,0,0.1-0.1,0.3-0.1c0.3-0.1,0.6-0.3,0.8-0.4
		c0.2-0.2,0.4-0.4,0.6-0.6c0.2-0.2,0.3-0.5,0.3-0.8c0.1-0.3,0.1-0.5,0.1-0.6c0-0.1,0-0.2,0.1-0.4c0-0.1,0-0.3,0-0.5
		c0-0.7-0.1-1.3-0.3-1.5c-0.2-0.2-0.3-0.3-0.5-0.3c-0.2,0-0.4,0.1-0.5,0.3c-0.2,0.2-0.3,0.6-0.3,1c0,0.3,0,0.5,0.1,0.8
		c0,0.2,0.1,0.3,0.2,0.4c0.1,0.1,0.1,0.2,0.2,0.2c0.1,0.1,0.2,0.1,0.4,0.1c0.1,0,0.2,0,0.2,0l0.1,0c0,0,0.1,0,0.1,0.1
		c0.1,0,0.1,0.1,0.1,0.1c0,0.1-0.1,0.2-0.1,0.2c-0.2,0.1-0.4,0.1-0.6,0.1c-0.2,0-0.2,0-0.3,0c-0.3-0.1-0.5-0.2-0.5-0.2
		c-0.2-0.1-0.3-0.2-0.4-0.4c-0.1-0.1-0.2-0.3-0.2-0.4c-0.1-0.2-0.1-0.4-0.1-0.6c0-0.3,0.1-0.7,0.2-1c0.2-0.3,0.4-0.5,0.7-0.7
		c0.3-0.1,0.6-0.2,0.9-0.2c0.6,0,1.1,0.2,1.5,0.6c0.4,0.4,0.6,1,0.6,1.8c0,0.4-0.1,0.8-0.2,1.3c-0.1,0.1-0.2,0.3-0.3,0.6
		c-0.2,0.3-0.4,0.6-0.7,0.8c-0.3,0.2-0.7,0.4-1,0.5c-0.3,0.1-0.6,0.2-0.9,0.2C76.2,124.9,76.2,124.9,76.1,124.9L76.1,124.9z"/>
	<path class="st0" d="M72,119c0,0,0.1,0,0.3,0h0.2h0.3c0,0.1,0,0.2,0,0.2c0,0,0,0.1,0,0.1c0,0.1,0,0.2,0,0.5v0.7v0.4l-0.1,2.9v0.3
		c0,0.1,0,0.1,0.1,0.2c0.1,0,0.2,0.1,0.3,0.1c0.1,0,0.2,0,0.5,0.1c0,0,0,0.1,0,0.1c0,0,0,0.1,0,0.2h-0.2c-0.1,0-0.3,0-0.6,0
		c-0.2,0-0.3,0-0.3,0c-0.1,0-0.4,0-0.8,0c-0.1,0-0.1,0-0.1,0h-0.1l-0.2,0l-0.1,0l-0.2,0c0,0-0.1,0-0.2,0c0-0.1,0-0.1,0-0.2
		c0,0,0-0.1,0-0.1c0.1,0,0.3-0.1,0.4-0.1c0.2,0,0.4-0.1,0.4-0.1c0.1,0,0.1-0.1,0.1-0.2l0-0.3l0-0.3v-0.7v-0.2c0,0,0-0.1,0-0.3
		c0-0.1,0-0.1,0-0.2c0,0,0-0.1,0-0.3l0-0.2c0-0.2,0-0.3,0-0.3c0,0,0-0.1,0-0.1l0-0.1l0-0.3l0-0.1c0-0.1,0-0.1,0-0.2
		c0-0.1,0-0.2,0-0.3c-0.2,0.1-0.5,0.3-0.8,0.5c0,0-0.2,0.1-0.4,0.2c-0.1-0.2-0.2-0.2-0.2-0.3c0.3-0.2,0.6-0.3,0.7-0.3
		c0.2-0.1,0.4-0.3,0.6-0.5C71.7,119.4,71.8,119.2,72,119L72,119z"/>
	<path class="st2" d="M82.6,122.5c0,0.6,0,1.1,0.1,1.3c0.1,0.2,0.1,0.4,0.2,0.5c0.1,0.1,0.3,0.2,0.4,0.2c0.1,0,0.3,0,0.4-0.1
		c0.1-0.1,0.2-0.2,0.2-0.3c0.1-0.2,0.1-0.4,0.2-0.7c0-0.5,0.1-0.9,0.1-1.1v-0.6V121c0-0.3,0-0.6-0.1-0.8c0-0.3-0.1-0.4-0.2-0.5
		c-0.1-0.1-0.2-0.2-0.3-0.2c-0.1,0-0.2-0.1-0.3-0.1c-0.1,0-0.2,0.1-0.4,0.2c-0.1,0.1-0.2,0.3-0.3,0.6c-0.1,0.3-0.1,0.7-0.1,1.4v0.3
		C82.6,122.2,82.6,122.4,82.6,122.5L82.6,122.5z"/>
	<polygon class="st3" points="93.7,26.3 66.9,26.3 50.8,42.6 50.8,69.3 67.3,86.2 93.5,86.2 110,69.3 110,42.6 93.9,26.3 93.7,26.3 
			"/>
	<path class="st2" d="M74.4,46.8c0-3.2,2.5-5.9,5.7-6V27H67.2L51.6,42.9V69l16.1,16.4H80V52.8C76.9,52.7,74.4,50,74.4,46.8
		L74.4,46.8z"/>
	<path class="st1" d="M93.7,27H80.8v13.8c3.2,0.2,5.7,2.8,5.7,6c0,3.2-2.5,5.9-5.7,6v32.6h12.5L109.3,69V42.9L93.7,27L93.7,27z"/>
	<path class="st3" d="M82.1,39.7l0.2-2.1c0,0,3.1-0.2,5.9,2.1c0,0,2.2-6.6,5.4-7.9c0,0,0.2,0.9,0.4,0.9c0.2,0.1,1-0.8,1.2-0.7
		c0.2,0.1-0.3,2.9,6.4,5.4l-0.4,1.8c0,0-8.1-0.6-8.1,4.2c0,2.2,3.1,6,3.7,6.7c0.5,0.7,3.9,3.5,4.4,10.8c0,0,1.2-0.9,1.2-3.2
		c0-2.3-1.4-7-1.4-8.7c0-1.7-0.3-6.3,4.4-6.3V45c0,0-1.6-0.1-1.8,2c-0.2,1.8,2.1,9.5,1.1,12.4c-0.9,2.4-1.3,3.3-3,4.7
		c-1.7,1.3-7.1,5.6-1.9,9.5l-4.8,8.8c0,0-2.8,1-3,1c-0.2,0-0.8,0.1-0.4-0.4c0.4-0.5,4.2-3.9,4.2-7.7c0-3.8-5.5-5-5.5-10.7
		c0-3.8,3.3-6,3.3-6s-0.6-1.4-1.2-1.9c-0.6-0.5-3.8-2.4-4.3-3.6c0,0-3.2,2.6-5.8,2.8c0,0-0.6-1.1-0.7-1.9c0,0,6.4-0.8,6.3-7.5
		C87.6,40.9,82.1,39.7,82.1,39.7L82.1,39.7z"/>
	<path class="st3" d="M78.7,39.7l-0.2-2.1c0,0-3.1-0.2-5.9,2.1c0,0-2.2-6.6-5.4-7.9c0,0-0.2,0.9-0.4,0.9c-0.2,0.1-1-0.8-1.2-0.7
		c-0.2,0.1,0.3,2.9-6.4,5.4l0.4,1.8c0,0,8.1-0.6,8.1,4.2c0,2.2-3.1,6-3.7,6.7c-0.5,0.7-3.9,3.5-4.4,10.8c0,0-1.2-0.9-1.2-3.2
		c0-2.3,1.4-7,1.4-8.7c0-1.7,0.3-6.3-4.4-6.3V45c0,0,1.6-0.1,1.8,2c0.2,1.8-2.1,9.5-1.1,12.4c0.9,2.4,1.3,3.3,3,4.7
		c1.7,1.3,7.1,5.6,1.9,9.5l4.8,8.8c0,0,2.8,1,3,1c0.2,0,0.8,0.1,0.4-0.4c-0.4-0.5-4.2-3.9-4.2-7.7c0-3.8,5.5-5,5.5-10.7
		c0-3.8-3.3-6-3.3-6s0.6-1.4,1.2-1.9c0.6-0.5,3.8-2.4,4.3-3.6c0,0,3.2,2.6,5.7,2.8c0,0,0.6-1.1,0.7-1.9c0,0-6.4-0.8-6.3-7.5
		C73.2,40.9,78.7,39.7,78.7,39.7L78.7,39.7z"/>
	<path class="st3" d="M68.8,73.7l4.9,7.1l2.9,0.5c0,0,0.5,0,0.2-0.4c-0.3-0.4-3.6-4.2-3.9-5.2c-0.3-1-1.1-1.8,0.2-3.6
		c1.3-1.8,3.8-3.5,3.8-7.1c0-3.6-3.1-6.5-7.1-6.5c-1.8,0.1-0.3,1.1-0.2,1.4c0.4,0.5,1.5,2,1.8,4.3c0.3,2.5-1,4.1-1,4.3
		c0,0.6,0.9,0.7,0.9,2.2C71.4,72.5,68.8,73.7,68.8,73.7L68.8,73.7z"/>
	<path class="st3" d="M92.1,73.7l-4.9,7.1l-3,0.5c0,0-0.5,0-0.2-0.4c0.3-0.4,3.6-4.2,3.9-5.2c0.3-1,1.1-1.8-0.2-3.6
		c-1.3-1.8-3.8-3.5-3.8-7.1c0-3.6,3.1-6.5,7.1-6.5c1.8,0.1,0.3,1.1,0.2,1.4c-0.4,0.5-1.5,2-1.7,4.3c-0.3,2.5,1,4.1,1,4.3
		c0,0.6-0.9,0.7-0.9,2.2C89.5,72.5,92.1,73.7,92.1,73.7L92.1,73.7z"/>
	<path class="st3" d="M126.9,95.5c-0.5-0.6-1.4-0.9-2.2-0.9c-0.8,0-1.8,0.3-1.8,1.3c0,1.9,4.7,1.9,4.7,4.4c0,1.5-1.5,2.8-3.7,2.8
		c-0.8,0-1.7-0.1-2.5-0.4l-0.4-1.7c0.8,0.7,1.9,1.1,3,1.1c0.8,0,2-0.5,2-1.4c0-2.2-4.7-1.8-4.7-4.7c0-1.7,1.8-2.4,3.5-2.4
		c0.7,0,1.4,0.1,2.1,0.3V95.5L126.9,95.5z"/>
	<path class="st3" d="M118.9,95.7c0-0.6,0.1-1.7-0.6-1.9v-0.1h2.6v0.1c-0.7,0.2-0.6,1.3-0.6,1.9v5.2c0,0.6-0.1,1.6,0.6,1.9v0.1h-2.6
		v-0.1c0.7-0.2,0.6-1.3,0.6-1.9V95.7L118.9,95.7z"/>
	<path class="st3" d="M110.9,99.5l-0.7,1.9c-0.3,0.8-0.4,1.2,0.3,1.4v0.1H108v-0.1c0.8-0.4,1-1.2,1.3-1.9l2.3-5.8
		c0.2-0.5,0.5-1.1-0.2-1.3v-0.1h2.2l2.8,7.1c0.3,0.8,0.6,1.5,1.4,1.9v0.1H115v-0.1c0.7-0.3,0.6-0.5,0.2-1.4l-0.7-1.9H110.9
		L110.9,99.5z"/>
	<polygon class="st4" points="112.7,95 111.3,98.5 114,98.5 112.7,95 	"/>
	<path class="st3" d="M100.5,101.1c0,0.8,0,1.3,0.7,1.7v0.1h-2.5v-0.1c0.7-0.4,0.7-1,0.7-1.7v-5.5c0-0.8,0-1.3-0.7-1.7v-0.1h2v0
		c0.1,0.2,0.1,0.2,0.2,0.3l0.2,0.3l5,6.4v-5.2c0-0.8,0-1.3-0.7-1.7v-0.1h2.4v0.1c-0.7,0.4-0.7,1-0.7,1.7v7.7c-1-0.3-1.4-0.8-2-1.6
		l-4.7-6V101.1L100.5,101.1z"/>
	<path class="st3" d="M90.9,101.1c0,0.8,0,1.3,0.7,1.7v0.1h-2.4v-0.1c0.7-0.4,0.7-1,0.7-1.7v-5.5c0-0.8,0-1.3-0.7-1.7v-0.1h2v0
		c0.1,0.2,0.1,0.2,0.2,0.3l0.2,0.3l5,6.4v-5.2c0-0.8,0-1.3-0.7-1.7v-0.1h2.4v0.1c-0.7,0.4-0.7,1-0.7,1.7v7.7c-1-0.3-1.4-0.8-2-1.6
		l-4.7-6V101.1L90.9,101.1z"/>
	<path class="st3" d="M84.5,101.7l1.8,0.2c0.9,0.1,1.9-0.2,2.6-0.8h0l-0.6,1.8h-5.8v-0.1c0.7-0.2,0.6-1.3,0.6-1.9v-5.2
		c0-0.6,0.1-1.7-0.6-1.9v-0.1h4.4c0.2,0,0.5,0,0.6-0.1h0.1v1.6h-0.1c-0.4-0.5-1-0.6-1.6-0.6c-0.5,0-1,0-1.4,0.1v2.6h1.7
		c0.2,0,0.4,0,0.6-0.1h0.1v1.5h-0.1c-0.2-0.4-0.8-0.4-1.2-0.4h-1V101.7L84.5,101.7z"/>
	<path class="st3" d="M78.1,93.8c1.8,0,2.8,1,2.8,2.2c0,1.2-1,2.2-2.2,2.5l2,2.5c0.6,0.7,1.4,1.4,2.2,1.9h-1.3
		c-0.7,0-1.2-0.2-1.6-0.7l-1.7-2.1l-1.3-1.9c1.1-0.2,2.4-0.7,2.4-2c0-1-0.8-1.6-1.8-1.5c-0.3,0-0.6,0.1-0.9,0.1v6.2
		c0,0.6-0.1,1.7,0.6,1.9v0.1h-2.6v-0.1c0.7-0.2,0.6-1.3,0.6-1.9v-5.2c0-0.6,0.1-1.7-0.6-1.9v-0.1H78.1L78.1,93.8z"/>
	<path class="st3" d="M66.5,101.7l1.8,0.2c0.9,0.1,1.9-0.2,2.6-0.8h0.1l-0.6,1.8h-5.8v-0.1c0.7-0.2,0.6-1.3,0.6-1.9v-5.2
		c0-0.6,0.1-1.7-0.6-1.9v-0.1h4.4c0.2,0,0.5,0,0.6-0.1h0.1v1.6h-0.1c-0.4-0.5-1-0.6-1.6-0.6c-0.5,0-1,0-1.4,0.1v2.6h1.7
		c0.2,0,0.5,0,0.6-0.1h0v1.5h0c-0.2-0.4-0.8-0.4-1.2-0.4h-1V101.7L66.5,101.7z"/>
	<path class="st3" d="M56,95.7c0-0.6,0.1-1.7-0.6-1.8v-0.1h3.4c3.1,0,5.1,1.7,5.1,4.4c0,2.7-2.1,4.6-5.2,4.6h-3.3v-0.1
		c0.7-0.5,0.6-1.1,0.6-1.9V95.7L56,95.7z"/>
	<path class="st3" d="M48.1,99.5l-0.7,1.9c-0.3,0.8-0.4,1.2,0.3,1.4v0.1h-2.5v-0.1c0.8-0.4,1-1.2,1.3-1.9l2.3-5.8
		c0.2-0.5,0.5-1.1-0.2-1.3v-0.1h2.2l2.9,7.1c0.3,0.8,0.6,1.5,1.4,1.9v0.1h-2.8v-0.1c0.7-0.3,0.6-0.5,0.2-1.4l-0.7-1.9H48.1
		L48.1,99.5z"/>
	<polygon class="st1" points="49.8,95 48.4,98.5 51.2,98.5 49.8,95 	"/>
	<path class="st3" d="M43.6,101.1c0,0.8,0,1.3,0.7,1.7v0.1h-2.7v-0.1c0.7-0.3,0.6-1.3,0.6-1.9v-6.2H41c-0.6,0-1.2,0.2-1.7,0.6h0
		l0.5-1.7h0c0.2,0.1,0.3,0.1,0.5,0.1h5.5c0.2,0,0.5,0,0.6-0.1h0.1l-0.5,1.7h-0.1c-0.2-0.5-0.7-0.6-1.2-0.6h-1.3V101.1L43.6,101.1z"
		/>
	<path class="st3" d="M38.9,95.5c-0.5-0.6-1.4-0.9-2.2-0.9c-0.8,0-1.8,0.3-1.8,1.3c0,1.9,4.7,1.9,4.7,4.4c0,1.5-1.5,2.8-3.7,2.8
		c-0.8,0-1.7-0.1-2.4-0.4l-0.4-1.7c0.8,0.7,1.9,1.1,3,1.1c0.8,0,2-0.5,2-1.4c0-2.2-4.7-1.8-4.7-4.7c0-1.7,1.8-2.4,3.5-2.4
		c0.7,0,1.4,0.1,2.1,0.3V95.5L38.9,95.5z"/>
	<path class="st1" d="M57.4,101.8c0.3,0.1,0.7,0.1,1,0.1c2.1,0,3.9-1.1,3.9-3.5c0-2.4-1.4-3.6-3.7-3.6c-0.4,0-0.8,0.1-1.2,0.2V101.8
		L57.4,101.8z"/>
</g>
</svg>
