<?xml version="1.0" encoding="utf-8"?>
<!-- Generator: Adobe Illustrator 19.1.0, SVG Export Plug-In . SVG Version: 6.00 Build 0)  -->
<svg version="1.1" id="Layer_1" xmlns="http://www.w3.org/2000/svg" xmlns:xlink="http://www.w3.org/1999/xlink" x="0px" y="0px"
	 viewBox="0 0 160 160" style="enable-background:new 0 0 160 160;" xml:space="preserve">
<style type="text/css">
	.st0{fill:#76A542;}
	.st1{fill:#FFFFFF;}
	.st2{fill:#75A547;}
	.st3{fill:#2E3192;}
	.st4{fill:#ED1C24;}
	.st5{fill:none;stroke:#FFFFFF;stroke-width:4.3149;stroke-miterlimit:2.6131;}
</style>
<g>
	<path class="st0" d="M79.1,49c28.9,0,52.5,23.5,52.5,52.5c0,28.9-23.5,52.5-52.5,52.5c-28.9,0-52.5-23.5-52.5-52.5
		C26.6,72.6,50.1,49,79.1,49L79.1,49z"/>
	<path class="st1" d="M64.9,71.8v59.4c3,1.4,6.1,2.4,9.5,2.9V69C71.1,69.4,67.9,70.4,64.9,71.8L64.9,71.8z M55.6,124.5v-46
		c-5.8,6-9.4,14.1-9.4,22.9C46.2,110.4,49.7,118.5,55.6,124.5L55.6,124.5z M83.9,69v65.2c3.3-0.5,6.5-1.4,9.5-2.9V71.8
		C90.3,70.4,87.1,69.4,83.9,69L83.9,69z M102.7,78.5v46c5.8-6,9.4-14.1,9.4-22.9C112,92.6,108.4,84.5,102.7,78.5L102.7,78.5z"/>
	<polygon class="st1" points="51,92.4 107.2,92.4 107.2,110.6 51,110.6 	"/>
	<path class="st2" d="M57.9,102.7H61l-1.5-6.2L57.9,102.7L57.9,102.7z M55,108.4l3.8-13.9h1.5l3.6,13.9h-1.4l-1-4.2h-4l-1.1,4.2H55
		L55,108.4z M65.4,108.4v-2.1h1.4v2.1H65.4L65.4,108.4z M68.7,103.9H70c0.1,0.8,0.2,1.4,0.4,2c0.5,0.8,1.2,1.3,2.4,1.3
		c0.5,0,1-0.1,1.4-0.3c0.8-0.4,1.2-1.1,1.2-2.1c0-0.8-0.2-1.3-0.5-1.6c-0.4-0.3-0.9-0.5-1.6-0.8l-1.4-0.4c-0.9-0.3-1.5-0.6-1.9-0.8
		c-0.6-0.6-0.9-1.4-0.9-2.6c0-2.6,1.3-4.3,3.6-4.3c2.1,0,3.8,1.3,3.8,4.3h-1.2c-0.1-0.7-0.2-1.3-0.4-1.6c-0.4-0.7-1.1-1.1-2.2-1.1
		c-1.5,0-2.3,1.1-2.3,2.4c0,0.7,0.2,1.2,0.6,1.4c0.3,0.3,0.9,0.4,1.9,0.8l1.4,0.4c0.6,0.2,1.2,0.5,1.5,0.8c0.7,0.6,1,1.5,1,2.8
		c0,3.2-1.9,4.3-4,4.3c-1.2,0-2.3-0.4-3-1.4C69.1,106.6,68.7,105.5,68.7,103.9L68.7,103.9z M78.6,108.4v-2.1h1.4v2.1H78.6
		L78.6,108.4z M82,103.9h1.2c0.1,0.8,0.2,1.4,0.4,2c0.5,0.8,1.2,1.3,2.4,1.3c0.5,0,1-0.1,1.4-0.3c0.8-0.4,1.2-1.1,1.2-2.1
		c0-0.8-0.2-1.3-0.5-1.6c-0.4-0.3-0.9-0.5-1.6-0.8l-1.4-0.4c-0.9-0.3-1.5-0.6-1.9-0.8c-0.6-0.6-0.9-1.4-0.9-2.6
		c0-2.6,1.3-4.3,3.6-4.3c2.1,0,3.8,1.3,3.8,4.3h-1.2c-0.1-0.7-0.2-1.3-0.4-1.6c-0.4-0.7-1.1-1.1-2.2-1.1c-1.5,0-2.3,1.1-2.3,2.4
		c0,0.7,0.2,1.2,0.6,1.4c0.3,0.3,0.9,0.4,1.9,0.8l1.4,0.4c0.6,0.2,1.2,0.5,1.5,0.8c0.7,0.6,1,1.5,1,2.8c0,3.2-1.9,4.3-4,4.3
		c-1.2,0-2.3-0.4-3-1.4C82.3,106.6,82,105.5,82,103.9L82,103.9z M91.9,108.4v-2.1h1.4v2.1H91.9L91.9,108.4z M95.8,108.4V94.6h7.3
		v1.6h-6v4.3h5.6v1.5h-5.6v4.7h6.2v1.6h-7.5V108.4z"/>
	<path class="st1" d="M61.3,146l3-9l1.1,0.4l-2.6,7.9l4.6,1.5l-0.4,1L61.3,146L61.3,146z M73.4,139.4c1.6,0.2,2.8,0.8,3.4,2.2
		c0.4,0.8,0.7,2.1,0.5,3.2c-0.2,1.4-0.7,2.6-1.6,3.4c-1,0.9-2.2,1.3-3.8,1.1c-1.4-0.2-2.5-0.8-3.2-1.9c-0.6-1-0.8-2.3-0.6-3.6
		c0.2-1.3,0.7-2.3,1.4-3.2C70.5,139.5,71.8,139.2,73.4,139.4L73.4,139.4z M72.2,148.1c2.3,0.3,3.5-1.4,3.7-3.5
		c0.3-2.3-0.7-3.8-2.8-4.1c-1.9-0.3-3.5,0.8-3.8,3.5C69.1,146.1,69.9,147.8,72.2,148.1L72.2,148.1z M78.8,149.6v-9.5h1.2v9.5H78.8
		L78.8,149.6z M83.8,144l2.9-0.4c1.2-0.2,2-0.6,1.7-2c-0.1-0.6-0.4-1-0.9-1.2c-0.3-0.1-0.7-0.1-1,0l-3.1,0.4L83.8,144L83.8,144z
		 M83.1,149.4l-1.3-9.4l4.3-0.6c0.7-0.1,1.3-0.1,1.9,0.1c1,0.2,1.4,0.9,1.6,2c0.2,1.1-0.2,1.9-1,2.5c0.8,0.2,1.2,0.5,1.3,1.6
		l0.3,1.2c0.1,0.4,0.1,0.6,0.2,0.8c0,0.3,0.2,0.4,0.4,0.5v0.2l-1.6,0.2c0-0.2-0.1-0.3-0.2-1l-0.3-1.5c-0.1-0.5-0.4-1-0.8-1.1
		c-0.3-0.1-0.7-0.1-1.2,0l-2.8,0.4l0.6,4L83.1,149.4L83.1,149.4z M94,147.1l-3.4-8.8l6.5-2.5l0.4,1.1l-5.3,2.1l1,2.7l4.8-1.9
		l0.4,0.9l-4.8,1.9l1.1,3l5.4-2.1l0.4,1L94,147.1L94,147.1z M39.7,86.8l0.5-0.8c0.4,0.2,0.8,0.4,1.2,0.4c0.7,0,1.2-0.3,1.7-1.1
		c0.2-0.3,0.3-0.7,0.3-1c0.1-0.7-0.1-1.1-0.7-1.5c-0.5-0.3-0.8-0.4-1.2-0.3c-0.2,0.2-0.7,0.5-1,0.9L39.7,84
		c-0.5,0.4-0.9,0.8-1.2,0.9c-0.6,0.2-1.2,0.1-2-0.3c-1.4-0.8-2-2.4-1.1-3.8c0.8-1.4,2.3-2.1,4.1-1l-0.5,0.8
		c-0.4-0.1-0.9-0.3-1.2-0.3c-0.5,0-1,0.4-1.4,1c-0.6,1-0.3,1.9,0.4,2.3c0.4,0.2,0.7,0.3,1.1,0.1c0.2-0.1,0.6-0.4,1.2-0.9l0.7-0.8
		c0.5-0.4,0.8-0.6,1.1-0.7c0.6-0.2,1.3-0.1,2.1,0.3c1.7,1,1.7,2.8,0.9,4.2c-0.5,0.8-1,1.3-1.9,1.5C41.2,87.5,40.4,87.3,39.7,86.8
		L39.7,86.8z M44.1,78l1.7-2.4l-4.2-1.3L44.1,78L44.1,78z M45.5,82.6L40.1,74l0.8-1.1l9.7,2.9l-0.8,1.1L46.9,76l-2.2,3l1.6,2.6
		L45.5,82.6L45.5,82.6z M52.3,73.9l-6.4-7l0.9-0.8l6.4,7L52.3,73.9L52.3,73.9z M55.5,71.1l-5.1-8l1.2-0.8l8.1,3.9l-4.1-6.5l1-0.7
		l5.1,8l-1.2,0.7l-8.3-3.8l4.1,6.5L55.5,71.1L55.5,71.1z M59.2,57.9l7.3-2.6l0.4,1l-3,1l2.8,7.9l-1.2,0.4l-2.8-7.9l-3.1,1L59.2,57.9
		L59.2,57.9z M67.4,59.5l3.1-0.7l0.2,1.2l-3.1,0.7L67.4,59.5L67.4,59.5z M72.7,63.5l-0.9-9.5l6.9-0.6l0.1,1.2l-5.7,0.5l0.3,2.9
		l5.2-0.5l0.1,1l-5.2,0.5l0.3,3.2l5.8-0.5l0.1,1.1L72.7,63.5L72.7,63.5z M81.2,53.6l7.6,1l-0.1,1l-3.1-0.4l-1,8.3l-1.3-0.2l1-8.3
		l-3.2-0.4L81.2,53.6L81.2,53.6z M88.7,64.5l2.3-9.3l1.2,0.3l-2.3,9.3L88.7,64.5L88.7,64.5z M92.5,65.5l3.9-8.6l6.4,2.8l-0.5,1.1
		l-5.3-2.3l-1.1,2.6l4.7,2.2l-0.4,0.9L95.4,62L94,65l5.2,2.4l-0.5,1L92.5,65.5L92.5,65.5z M100.2,69.5l5.9-7.4l1.2,0.9l-1,8.9
		l4.7-6.1l0.9,0.7l-5.9,7.4l-1.1-0.9l0.9-9l-4.7,6.1L100.2,69.5L100.2,69.5z M107.2,75.3l7.5-5.9l0.9,1.2l-3.2,8.4l6.1-4.7l0.7,0.9
		l-7.5,5.9l-0.8-1.1l3.1-8.6l-6.1,4.7L107.2,75.3L107.2,75.3z M112.6,82.9l8.6-4l2.9,6.3l-1.1,0.5l-2.4-5.1l-2.6,1.2l2.2,4.7
		l-0.9,0.4l-2.2-4.7l-3,1.3l2.5,5.2l-1,0.5L112.6,82.9L112.6,82.9z"/>
	<polygon class="st3" points="79.1,39.4 63.6,50.5 69.6,32.4 53.7,20.9 73.3,20.9 79.1,3.2 84.9,20.9 104.4,20.9 88.6,32.4 
		94.5,50.5 	"/>
	<polygon class="st1" points="79.1,37.5 66.6,46.5 71.4,31.8 58.6,22.5 74.4,22.5 79.1,7.8 83.8,22.5 99.6,22.5 86.8,31.8 
		91.6,46.5 	"/>
	<polygon class="st4" points="79.1,36.2 68.6,43.8 72.7,31.5 61.9,23.5 75.2,23.5 79.1,11.2 83,23.5 96.3,23.5 85.5,31.5 89.6,43.8 
			"/>
	<polygon class="st1" points="79.1,34.5 71.5,39.9 74.5,30.9 66.7,25.3 76.4,25.3 79.1,16.1 81.9,25.3 91.5,25.3 83.8,30.9 
		86.6,39.9 	"/>
	<path class="st5" d="M79.1,68.5c18.2,0,33,14.8,33,33s-14.8,33-33,33s-33-14.8-33-33C46.1,83.4,60.9,68.5,79.1,68.5"/>
</g>
</svg>
