<?xml version="1.0" encoding="utf-8"?>
<!-- Generator: Adobe Illustrator 19.1.0, SVG Export Plug-In . SVG Version: 6.00 Build 0)  -->
<svg version="1.1" id="Layer_1" xmlns="http://www.w3.org/2000/svg" xmlns:xlink="http://www.w3.org/1999/xlink" x="0px" y="0px"
	 viewBox="0 0 160 160" style="enable-background:new 0 0 160 160;" xml:space="preserve">
<style type="text/css">
	.st0{fill:#164885;}
	.st1{fill:#FFFFFF;}
	.st2{fill:#1E1C22;}
	.st3{fill:#9BA6B3;}
</style>
<g>
	<path class="st0" d="M79.9,4.4c0.8-0.1,1.7,0,2.5,0.2c18.4,4,36.9,8,55.4,12c0.9,0.1,1.8,0.8,2,1.8c0.2,0.7,0.1,1.3,0.1,2
		c0,6.6,0,13.1,0,19.7c0,4.3,0,8.7-0.1,13c-0.2,3.9-0.3,7.9-0.7,11.8c-1.5,15.7-6,31.2-13.8,45c-7,12.5-16.1,23.8-27.1,33
		c-4.7,4-9.7,7.7-15.1,10.7c-0.8,0.4-1.5,0.9-2.4,1c-0.8,0-1.6-0.4-2.3-0.8C66.8,147.2,56.6,138,48,127.6
		c-10.2-12.5-18-27-22.2-42.6c-2.3-8.4-3.6-17.1-4.1-25.8c-0.2-1.3-0.1-2.6-0.2-3.9c-0.1-1.9-0.1-3.8-0.1-5.7c0-10.1,0-20.2,0-30.4
		c0-1.2,0.8-2.4,2.1-2.6C42.2,12.6,61.1,8.5,79.9,4.4L79.9,4.4z"/>
	<path class="st1" d="M79.6,4.7c1-0.3,2-0.1,2.9,0.2c18.4,4,36.8,8,55.2,12c0.4,0.1,0.9,0.2,1.3,0.5c0.7,0.5,0.8,1.5,0.8,2.3
		c0,10.6,0,21.1,0,31.7c-0.2,8.4-0.8,16.8-2.4,25c-1.7,8.6-4.2,17-7.9,25c-2.9,6.4-6.4,12.4-10.4,18.2c-5.5,8-11.9,15.3-19.1,21.7
		c-5.3,4.7-11,9-17.3,12.5c-0.8,0.5-1.9,1-2.8,0.6c-1.3-0.5-2.4-1.3-3.6-2c-8.4-5.1-16-11.5-22.7-18.7c-9-9.6-16.5-20.7-21.9-32.7
		c-6.4-14.2-9.4-29.7-9.9-45.2c-0.2-2.1-0.1-4.1-0.2-6.2c0-10.1,0-20.2,0-30.3c0-1,0.6-2.1,1.7-2.3C42,12.8,60.8,8.8,79.6,4.7
		L79.6,4.7z"/>
	<path class="st2" d="M23.8,19.1C42.5,15,61.2,11,79.9,6.9c0.8-0.2,1.6,0,2.4,0.2c18.4,4,36.8,8,55.1,12c0,5,0,10,0,14.9
		c0,10,0.2,20.1-0.7,30.1c-0.8,8.8-2.5,17.5-5.3,25.9c-2.5,7.5-5.8,14.7-9.9,21.5c-8.2,13.7-19.1,25.8-32,35.1c-2.9,2-5.8,4-9,5.6
		c-6.4-3.6-12.4-7.9-17.8-12.8c-11.2-10.1-20.6-22.2-27.3-35.8c-4-8-6.9-16.5-8.8-25.3c-1.7-8.1-2.5-16.3-2.8-24.5
		c-0.2-6.8-0.1-13.5-0.1-20.3C23.8,28.8,23.8,23.9,23.8,19.1L23.8,19.1z"/>
	<path class="st1" d="M79.9,11.9c0.6-0.1,1.2-0.1,1.9,0.1c17.2,3.5,34.3,7,51.5,10.5c0,5-0.1,10.1,0,15.1c0,4.5,0,8.9,0,13.4
		c-0.1,9.9-0.9,19.9-3.5,29.6c-2.2,8.2-5.4,16.1-9.4,23.6c-3.3,6.1-6.9,12.1-11.2,17.5c-5.1,6.5-11,12.4-17.4,17.7
		c-3.5,2.9-7.2,5.6-11.1,7.9c-6.7-4.1-12.8-9-18.4-14.4c-5.9-5.8-11.2-12.1-15.7-19c-6.6-10.4-12-21.7-15.1-33.7
		c-2.1-8-3-16.2-3.3-24.4c-0.1-4.6-0.1-9.2-0.1-13.8C28,35.5,28.1,29,28,22.5C45.3,18.9,62.6,15.5,79.9,11.9L79.9,11.9z"/>
	<path class="st0" d="M30.7,23.5c16.4-3.4,32.7-6.7,49.1-10c0.6-0.1,1.2-0.1,1.8,0c16.7,3.4,33.4,6.8,50.2,10.2
		c-0.1,9-0.1,17.9-0.1,26.9c-0.1,8.6-0.6,17.2-2.5,25.6c-3,13.9-9.2,26.9-17,38.7c-0.7-1.1-1.5-2.2-1.8-3.5c-0.2-1.6,0-3.2,0.1-4.8
		c0.3-8.7,0.7-17.4,1-26.1c0-1.7-0.1-3.6,0.8-5.2c1.4-2.5,3-5,4.4-7.6c0.4-0.8,0.5-1.7,0.5-2.6c0-4,0-7.9,0-11.9
		c-3.5-0.8-7-1.5-10.5-2.1c-0.1,1.5,0,3-0.1,4.4c-1.7-0.2-3.4-0.4-5.1-0.9c-0.2-1.4-0.1-2.8-0.1-4.1c-6-0.9-12.1-1.5-18.2-1.6
		c0,1.5,0,3.1,0,4.6c-1.6,0-3.3,0-4.9,0c0-1.5,0-3.1,0-4.6c-5.2,0-10.4,0.6-15.5,1.1c-0.9,0.1-1.8,0.3-2.7,0.5
		c-0.1,1.4-0.1,2.8-0.1,4.1c-1.7,0.2-3.5,0.5-5.2,0.7c0-1.5,0-2.9,0-4.4c-3.5,0.6-7,1.4-10.4,2.1c-0.1,4,0,8-0.1,12
		c0,0.9,0.1,1.9,0.6,2.8c1.4,2.5,2.9,5,4.4,7.5c0.4,0.7,0.6,1.6,0.6,2.4c0.4,9.9,0.8,19.8,1.2,29.8c0.1,1.3,0.2,2.6,0,3.8
		c-0.3,1.3-1.2,2.4-1.8,3.6c-6.7-10.2-12.2-21.2-15.6-32.9c-2.2-7.8-3.4-15.8-3.7-23.8c-0.2-3.6-0.2-7.1-0.2-10.7
		c-0.1-7.9,0-15.9-0.1-23.8C29.9,23.6,30.3,23.6,30.7,23.5L30.7,23.5z"/>
	<path class="st2" d="M78.7,38.2c1.4-4.1,2.1-8.4,3.4-12.5c1.3,0.1,2.6-0.1,3.8,0.1c0.3,0.1,0.6,0.1,0.8,0.3c1.3,3.9,1.9,8,3.2,11.9
		c0.1-0.5,0.1-1.1,0.1-1.6c1.4,0,2.8,0.1,4.1,0.2c0.1,0.8,0,1.6,0.3,2.4c0.4,0.8,1.9,0.7,2.1-0.2c0.3-0.9-0.3-1.8-1.1-2.1
		c-1.5-0.8-3.3-1.4-4.4-2.9c-1.3-1.9-1.2-4.8,0.4-6.5c1.1-1.1,2.7-1.4,4.2-1.3c2.1,0.1,4.1,1.4,4.9,3.4c0.1-0.9,0.1-1.7,0.2-2.6
		c1.4,0.2,2.8,0.3,4.2,0.4c-0.1,0.1-0.2,0.3-0.3,0.4c-1.1,0.1-2.3,0-3.4-0.2c0,0.8,0,1.7-0.1,2.5c1.1,0.1,2.2,0.2,3.3,0.3
		c-0.1,4.2-0.1,8.4-0.2,12.7c1,0.2,2,0.3,2.9,0.4c0.1-4.2,0.2-8.4,0.3-12.6c1.1,0.1,2.2,0.3,3.2,0.5c0-0.8,0.1-1.7,0.1-2.5
		c-2-0.4-4-0.6-6-0.9c0-0.1,0.1-0.2,0.2-0.3c2.2-0.3,4.3,0.4,6.4,0.7c0.1,1.2,0,2.4,0,3.6c-1.1-0.1-2.2-0.3-3.3-0.4
		c-0.2,4.2-0.2,8.4-0.4,12.5c-1.4-0.1-2.8-0.4-4.2-0.6c0.1-4.2,0.3-8.4,0.1-12.6c-1-0.1-2-0.2-3-0.3c-0.1,0.5-0.1,1.1-0.1,1.7
		c-1.4-0.1-2.7-0.2-4.1-0.4c-0.1-0.5-0.1-1.1-0.2-1.6c-0.2-0.8-1.4-1-1.8-0.2c-0.3,0.6-0.2,1.4,0.4,1.8c1.6,1.2,3.6,1.7,4.9,3.1
		c1.1,1.1,1.3,2.8,1.1,4.2c-0.2,1.4-0.9,2.9-2.3,3.4c-2.1,0.8-4.6,0.8-6.5-0.4c-0.7-0.4-1.3-1-1.8-1.7c0.1,0.6,0.3,1.3,0.3,1.9
		c-1.4,0-2.9-0.1-4.3-0.1C86.3,41.1,86,40,85.8,39c-1,0-1.9-0.1-2.9-0.1c-0.2,1.1-0.5,2.1-0.7,3.2c-1.5,0-2.9,0-4.4,0
		c0.2-1,0.5-2.1,0.7-3.1c-0.6,0.9-1.1,1.8-1.9,2.4c-1,0.7-2.3,0.8-3.5,0.9c-1.7,0.1-3.5,0.2-5.3,0.2c-0.1-5.4-0.2-10.8-0.3-16.2
		c2.1-0.2,4.2-0.4,6.3-0.3c1.5-0.1,3.2,0.7,3.9,2.1c0.8,1.8,0.4,3.9-0.7,5.4C78.4,34.6,78.7,36.5,78.7,38.2L78.7,38.2z"/>
	<path class="st1" d="M78.6,41.5c1.3-5,2.5-10.1,3.9-15.2c1.3,0,2.5,0.1,3.8,0c1.3,5.1,2.6,10.2,3.9,15.3c-1,0-2.1-0.1-3.1-0.1
		c-0.2-1.1-0.4-2.2-0.7-3.2c-1.3,0-2.6-0.1-3.9-0.1c-0.3,1.1-0.4,2.1-0.7,3.2C80.7,41.5,79.6,41.5,78.6,41.5L78.6,41.5z"/>
	<path class="st1" d="M68.2,26.8c2.3-0.1,4.6-0.5,6.9-0.1c0.7,0.1,1.2,0.5,1.7,1c1.4,1.8,1,4.9-1.1,5.9c1.1,0.3,2,1.3,2.3,2.4
		c0.6,2-0.3,4.6-2.4,5.4c-2.3,0.7-4.7,0.5-7.1,0.7C68.3,36.9,68.2,31.8,68.2,26.8L68.2,26.8z"/>
	<path class="st1" d="M91.7,27.9c0.6-0.8,1.6-1.2,2.6-1.3c1.7-0.2,3.7,0.3,4.9,1.6c0.8,0.9,0.8,2.1,0.9,3.3
		c-0.9-0.1-1.9-0.1-2.8-0.2c-0.2-0.8-0.3-1.7-1-2.2c-0.6-0.4-1.5-0.4-2,0.1c-0.7,0.7-0.7,2.1,0.1,2.8c1.6,1.2,3.7,1.7,5.1,3.2
		c1.1,1.2,1.1,3.1,0.7,4.6c-0.4,1.5-1.9,2.5-3.3,2.5c-1.8,0.2-3.8-0.1-5.1-1.3c-1.1-1-1.1-2.6-1.2-4c1,0,2,0.1,3,0.1
		c0,0.8,0.1,1.7,0.7,2.4c0.5,0.6,1.4,0.7,2.1,0.5c1.3-0.5,1.4-2.6,0.2-3.4c-1.6-1.2-3.7-1.5-4.9-3.1C90.6,31.8,90.5,29.5,91.7,27.9
		L91.7,27.9z"/>
	<path class="st2" d="M49.2,30.9c0.9-2.6,3.9-3.8,6.5-3.5c1.3,0.1,2.5,1,3,2.2c0.5,1.2,0.5,2.4,0.6,3.7c-1.4,0.3-2.8,0.4-4.2,0.5
		c-0.1-0.9-0.2-1.8-0.5-2.7c-0.6-0.4-1.5-0.1-1.6,0.7c-0.5,2.5-0.3,5.1,0,7.6c0.1,0.6,0.2,1.4,0.9,1.6c0.7,0,1.1-0.6,1.3-1.2
		c0.2-0.9,0.1-1.8,0.1-2.8c1.4-0.3,2.8-0.5,4.2-0.6c0,0.8-0.1,1.7-0.1,2.5c1.4-0.2,2.8-0.3,4.2-0.4c0,1.5,0.1,3,0.1,4.4
		c-1.3,0.2-2.7,0.3-4,0.4c-0.1-1.3,0.3-2.7-0.3-4c-0.1,1.8-1.2,3.6-2.8,4.4c-1.4,0.7-3.1,0.9-4.6,0.6c-1.1-0.3-2-1.1-2.5-2.1
		c-0.6-1.3-0.7-2.7-0.9-4.1C48.5,35.8,48.4,33.2,49.2,30.9L49.2,30.9z"/>
	<path class="st1" d="M101.3,27.4c1.1,0.2,2.3,0.3,3.4,0.2l0.3,0c0,0.1-0.1,0.2-0.2,0.3c2,0.2,4,0.5,6,0.9c0,0.8-0.1,1.7-0.1,2.5
		c-1.1-0.2-2.2-0.3-3.2-0.5c-0.1,4.2-0.2,8.4-0.3,12.6c-1-0.1-2-0.3-2.9-0.4c0.1-4.2,0.1-8.4,0.2-12.7c-1.1-0.1-2.2-0.2-3.3-0.3
		C101.3,29.1,101.4,28.2,101.3,27.4L101.3,27.4z"/>
	<path class="st1" d="M51.3,29.1c1.3-0.9,2.9-1.3,4.5-1c0.8,0.1,1.5,0.5,2,1.2c0.7,1,0.8,2.4,0.9,3.6c-1,0.1-2,0.3-3,0.4
		c-0.2-0.9-0.1-1.9-0.7-2.6c-0.9-0.7-2.2-0.1-2.5,1c-0.6,2.3-0.3,4.6-0.2,7c0.1,1,0.2,2.1,0.9,2.8c0.8,0.5,1.9,0.1,2.3-0.7
		c0.5-1,0.4-2.2,0.5-3.2c1-0.1,2-0.3,3-0.4c0,1.8-0.1,3.8-1.3,5.2c-1.4,1.5-3.7,2-5.7,1.5c-1.2-0.4-2-1.6-2.3-2.8
		c-0.6-2.5-0.6-5.1-0.4-7.7C49.5,31.7,50,30,51.3,29.1L51.3,29.1z"/>
	<path class="st2" d="M111.7,28.3c1.4,0.1,2.8,0.4,4.2,0.7c-0.1,5-0.4,10-0.4,15.1c1.5-4.5,2.7-9,4.2-13.5c0.1-0.2,0.2-0.6,0.5-0.7
		c1.5,0.1,2.9,0.5,4.3,1c0.4,1,0.5,2,0.7,3c0.9,4.7,1.9,9.4,2.7,14.2c-1.4-0.2-2.8-0.6-4.1-1c-0.4-1-0.4-2.3-0.7-3.4
		c-0.9-0.2-1.8-0.4-2.8-0.5c-0.3,0.9-0.5,1.9-0.8,2.8l-0.1,0.1c-2.7-0.6-5.4-1.1-8.1-1.6C111.3,39.1,111.6,33.7,111.7,28.3
		L111.7,28.3z"/>
	<path class="st2" d="M71.2,28.8c1,0,2.3-0.3,3,0.6c0.4,0.9,0.5,2.3-0.4,2.9c-0.8,0.5-1.7,0.5-2.6,0.6
		C71.2,31.5,71.2,30.1,71.2,28.8L71.2,28.8z"/>
	<path class="st1" d="M112.3,28.9c1,0.2,2,0.3,3,0.5c-0.1,5.1-0.3,10.1-0.5,15.2c-1-0.2-2-0.3-2.9-0.5C112,39,112.2,34,112.3,28.9
		L112.3,28.9z"/>
	<path class="st2" d="M82.9,35.8c0.4-2.3,0.8-4.6,1.5-6.9c0.5,2.3,1,4.6,1.5,7C84.9,35.8,83.9,35.8,82.9,35.8L82.9,35.8z"/>
	<path class="st0" d="M71.9,29.3c0.6,0.1,1.5-0.1,1.9,0.5c0.2,0.6,0.3,1.5-0.2,2c-0.5,0.3-1.1,0.4-1.7,0.6
		C71.9,31.3,71.8,30.3,71.9,29.3L71.9,29.3z"/>
	<path class="st2" d="M36.5,31.2c1.7-0.8,4-1.3,5.7-0.2c1.2,0.9,1.3,2.6,1.4,4c-1.3,0.3-2.6,0.6-3.9,0.9c-0.3-0.7-0.4-1.4-0.6-2.1
		c-0.9-0.1-1.7,0.7-1.7,1.6c0,0.3,0.2,0.6,0.3,0.9c1.9,0.8,4.3,0.5,5.8,2.1c1.9,2.6,0.7,6.8-2.2,8.2c-1.3,0.6-2.8,1.1-4.3,1.1
		c-1,0-2.2-0.4-2.8-1.3c-0.7-1.1-0.8-2.5-0.9-3.8c1.3-0.4,2.7-0.8,4-1.1c0.2,0.8,0.3,1.7,0.5,2.5c0.7-0.1,1.7-0.1,2-0.9
		c0.3-0.7,0.2-1.9-0.7-2c-1.7-0.5-3.8-0.3-5.1-1.8C32.3,36.7,33.5,32.5,36.5,31.2L36.5,31.2z"/>
	<path class="st1" d="M120.4,30.5c1.2,0.3,2.4,0.6,3.7,0.8c1.1,5.4,2.1,10.8,3.2,16.1c-1-0.2-2-0.5-3-0.8l-0.1-0.1
		c-0.2-1.1-0.4-2.2-0.5-3.3c-1.3-0.3-2.5-0.6-3.8-0.9c-0.3,1-0.5,2-0.8,3c-1-0.2-2.1-0.4-3.1-0.6C117.4,40.1,118.9,35.3,120.4,30.5
		L120.4,30.5z"/>
	<path class="st1" d="M36.5,31.8c0.9-0.5,2-0.8,3-0.9c1,0,2,0.2,2.7,1c0.6,0.8,0.7,1.7,0.7,2.6c-0.9,0.2-1.8,0.4-2.8,0.6
		c-0.2-0.7-0.4-1.7-1.3-1.9c-0.7,0-1.5,0.4-1.9,1c-0.4,0.8-0.4,1.9,0.3,2.5c1.6,0.9,3.7,0.5,5.2,1.7c0.8,0.6,1,1.7,1.1,2.6
		c0.1,1.6-0.5,3.4-1.9,4.4c-1.2,0.9-2.6,1.3-4,1.5c-0.9,0.1-2,0.1-2.7-0.7c-0.9-0.8-1-2.2-1.1-3.4c1-0.3,1.9-0.5,2.9-0.8
		c0.2,0.8,0.1,1.9,1,2.3c1.4,0.5,2.8-0.9,2.8-2.3c0-0.6-0.3-1.2-0.8-1.5c-1.5-0.7-3.2-0.4-4.6-1.3c-0.6-0.4-0.9-1-1.1-1.6
		C33.4,35.7,34.4,32.9,36.5,31.8L36.5,31.8z"/>
	<path class="st0" d="M83.7,35.3c0.2-1.1,0.3-2.2,0.7-3.3c0.2,1,0.6,2,0.7,3.1C84.6,35.2,84.2,35.3,83.7,35.3L83.7,35.3z"/>
	<path class="st2" d="M120.4,40.1c0.5-2.2,1-4.4,1.7-6.5c0.5,2.4,0.8,4.8,1.2,7.1C122.4,40.5,121.4,40.3,120.4,40.1L120.4,40.1z"/>
	<path class="st2" d="M71.3,34.8c0.9,0.1,2-0.2,2.8,0.3c1,0.8,1,2.3,0.5,3.3c-0.7,1.1-2.1,0.9-3.3,1C71.3,38,71.3,36.4,71.3,34.8
		L71.3,34.8z"/>
	<path class="st0" d="M71.9,35.4c0.8,0.1,1.9-0.1,2.2,0.8c0.2,0.6,0.2,1.3,0,1.9c-0.4,0.8-1.5,0.8-2.2,0.9
		C71.9,37.8,71.9,36.6,71.9,35.4L71.9,35.4z"/>
	<path class="st0" d="M121.9,36.8c0.5,1,0.6,2.1,0.8,3.1c-0.5-0.1-1-0.2-1.5-0.3C121.4,38.7,121.6,37.8,121.9,36.8L121.9,36.8z"/>
	<path class="st1" d="M60.3,39.4c0.9-0.1,1.8-0.2,2.8-0.3c0,1.1,0.1,2.3,0.1,3.4c-0.9,0.1-1.8,0.2-2.7,0.2
		C60.3,41.6,60.3,40.5,60.3,39.4L60.3,39.4z"/>
	<path class="st2" d="M44.5,41.4c1.2-0.3,2.5-0.7,3.7-0.6c0.3,1.4,0.2,2.9,0.2,4.3c-1.3,0.3-2.6,0.6-3.9,0.8
		C44.5,44.3,44.6,42.9,44.5,41.4L44.5,41.4z"/>
	<path class="st1" d="M45.1,41.8c0.9-0.2,1.8-0.4,2.7-0.5c0.1,1.1,0.1,2.1,0.2,3.2c-0.8,0.5-1.8,0.5-2.7,0.7
		C45.1,44.1,45.1,42.9,45.1,41.8L45.1,41.8z"/>
	<path class="st2" d="M62.7,50.1C67.8,49.5,73,49,78.2,49c0,1.5,0,3.1,0,4.6c1.6,0,3.3,0,4.9,0c0-1.5,0-3.1,0-4.6
		c6.1,0.1,12.2,0.7,18.2,1.6c0,1.4-0.1,2.8,0.1,4.1c1.7,0.5,3.4,0.6,5.1,0.9c0.1-1.5,0-3,0.1-4.4c3.5,0.7,7,1.3,10.5,2.1
		c0,4,0,7.9,0,11.9c0,0.9-0.1,1.8-0.5,2.6c-1.4,2.6-3,5-4.4,7.6c-0.9,1.6-0.7,3.4-0.8,5.2c-0.3,8.7-0.7,17.4-1,26.1
		c-0.1,1.6-0.3,3.2-0.1,4.8c0.3,1.3,1.1,2.4,1.8,3.5c-0.1,0.2-0.3,0.4-0.4,0.6c-0.7-1.2-1.3-2.4-2-3.6c-0.2-0.3-0.1-0.7-0.1-1.1
		c0.4-10.7,0.9-21.4,1.3-32.1c0.1-1.1-0.1-2.3,0.5-3.2c1.6-2.8,3.2-5.6,4.8-8.3c0.3-0.4,0.3-0.9,0.3-1.4c0-4,0-8,0-12
		c-3.1-0.7-6.2-1.3-9.3-1.9c0,1.5,0,3,0,4.5c-2.1-0.5-4.3-0.7-6.5-1.1c0-1.4,0-2.8,0-4.3c-5.6-0.8-11.3-1.4-17-1.4
		c0,1.5,0,3.1,0,4.6c-2.1,0-4.1,0-6.2,0c0-1.5,0-3.1,0-4.6c-5.7,0.1-11.4,0.7-17,1.5c0,1.4,0.1,2.8,0,4.2c-2.2,0.3-4.4,0.6-6.6,1
		c0-1.5,0-3,0-4.5c-3.1,0.6-6.2,1.3-9.3,1.9c0,3.9,0,7.8,0,11.7c0.1,0.6-0.1,1.2,0.2,1.7c1.2,2.3,2.7,4.6,3.9,6.9
		c0.5,1,1.3,1.9,1.4,3c0.4,11.3,0.9,22.6,1.4,33.9c0,1.8-1.4,3.1-2.1,4.7c-0.1-0.2-0.3-0.4-0.4-0.5c0.7-1.2,1.5-2.3,1.8-3.6
		c0.2-1.3,0-2.6,0-3.8c-0.4-9.9-0.8-19.8-1.2-29.8c0-0.8-0.2-1.7-0.6-2.4c-1.4-2.5-2.9-5-4.4-7.5c-0.5-0.8-0.6-1.8-0.6-2.8
		c0-4,0-8,0.1-12c3.5-0.7,6.9-1.5,10.4-2.1c0,1.5,0,2.9,0,4.4c1.8-0.2,3.5-0.5,5.2-0.7c0.1-1.4,0-2.8,0.1-4.1
		C60.8,50.4,61.7,50.2,62.7,50.1L62.7,50.1z"/>
	<path class="st0" d="M62.7,52.9c4.2-0.6,8.4-0.9,12.7-1.2c0,1.6,0.1,3.1,0,4.7c3.5-0.2,7-0.2,10.5,0c0-1.6,0-3.1,0-4.7
		c4.2,0.2,8.4,0.6,12.6,1.1c0,1.4,0,2.9,0,4.3c3.7,0.3,7.3,1,10.9,1.7c0.1-1.5,0-3,0-4.5c1.6,0.3,3.3,0.7,4.9,1c0,3.2,0,6.4,0,9.7
		c0,0.5,0,1-0.3,1.4c-1.6,2.8-3.3,5.6-4.9,8.4c-0.5,0.8-0.4,1.7-0.4,2.5c-0.4,11.5-1,23-1.3,34.5c0.7,1.9,1.9,3.7,2.9,5.5
		c-8.1,11-18.1,20.7-29.7,27.9C69,138.2,59,128.6,50.9,117.6c0.8-1.6,1.8-3.1,2.6-4.7c0.1-0.3,0.3-0.6,0.3-1
		c-0.4-11.6-0.9-23.1-1.4-34.7c0-0.7,0-1.4-0.3-2.1c-1.5-2.6-3-5.2-4.6-7.8c-0.3-0.5-0.6-1.1-0.6-1.7c0-3.4,0-6.7,0-10.1
		c1.6-0.4,3.3-0.7,4.9-1c0,1.5,0,3,0,4.5c3.6-0.7,7.2-1.3,10.9-1.7C62.7,55.8,62.7,54.4,62.7,52.9L62.7,52.9z"/>
	<path class="st2" d="M75.5,63.8c10.9-0.9,22.2,1,31.9,6.3c0.3,14.3-4.8,28.7-14.7,39.2c-3.5,3.7-7.6,7-12.1,9.4
		C75,115.5,70,111.2,66,106.2c-7.7-9.7-11.7-22-12-34.3c0-0.6-0.1-1.2,0.1-1.7c0.3-0.4,0.9-0.6,1.3-0.8
		C61.7,66.1,68.6,64.4,75.5,63.8L75.5,63.8z"/>
	<path class="st1" d="M55.3,70.8c10.3-5.4,22.3-7.1,33.7-5.4c5.9,0.9,11.8,2.7,17.1,5.4c-0.1,2.8-0.2,5.7-0.7,8.5
		c-1.2,8.3-4.3,16.4-9.1,23.4c-4.1,5.9-9.5,10.9-15.8,14.5c-6.9-4-12.7-9.8-16.9-16.6C58.1,91.8,55.3,81.3,55.3,70.8L55.3,70.8z"/>
	<path class="st2" d="M56.7,71.6c9.3-5.1,20.2-6.7,30.7-5.5c6,0.8,12,2.4,17.3,5.4c0.3,8-1.6,16.1-5,23.4
		c-4.1,8.6-10.7,16.1-19.1,20.6c-6.3-3.5-11.6-8.7-15.6-14.7C59.4,92.2,56.5,81.9,56.7,71.6L56.7,71.6z"/>
	<path class="st1" d="M57.2,71.9c9.8-5.2,21.3-6.7,32.2-4.9c5.1,0.8,10.2,2.5,14.8,4.9c0.1,8.8-2.1,17.7-6.3,25.4
		c-4,7.3-10,13.6-17.3,17.7c-7-4-12.8-10.1-16.8-17.1C59.4,90,57.1,80.9,57.2,71.9L57.2,71.9z"/>
	<path class="st2" d="M73.7,72.9c1.3,0.1,2.6-0.2,3.5-1.2c0,0.2,0.1,0.5,0.2,0.7c2-0.2,4,0.5,5.9,1c1,0.7,2.3,1.2,3.5,1.4
		c0.6,1.2,1.4,2.6,2.8,3.1c-0.2,0.2-0.4,0.4-0.5,0.6c0.3,0.3,0.6,0.6,1,0.9c-0.3,0.9,0.1,1.9,0.5,2.7c-0.3,0.1-0.5,0.3-0.8,0.4
		c0.2,0.3,0.4,0.6,0.7,0.8c-0.5,0.2-0.9,0.3-1.4,0.5c0.2,0.4,0.3,0.7,0.5,1.1c-0.3,0.2-0.7,0.4-1,0.7c1,0,2.2-0.4,2.4-1.5
		c0.7-2.8-0.9-5.5-1.7-8.1c0.5-0.8,1.6-0.6,2.3-1.1c0.3-0.5,0-1.1,0-1.7c0.6,0,1.3-0.1,1.7,0.3c0.2,0.4,0.1,1,0.2,1.4
		c-1.4,0.3-2.7,0.8-4,1.2c0.4,0.3,0.8,0.6,1.2,0.8c1-0.6,1.8-1.2,2.7-1.9c0.5,0.6,1.4,1,1.3,1.9c0.5-0.2,0.9-0.4,1.4-0.6
		c-0.1-0.4-0.3-0.8-0.5-1.2c0.7,0.2,1.3,0.5,1.7,1c-0.8,2.6-2.2,5-2.9,7.6c-0.3,0.9-0.4,1.8-1,2.5c-0.6,0.6-1.4,0.9-2.1,1.3
		c-0.1-0.1-0.4-0.2-0.6-0.3c-0.1,0.1-0.3,0.2-0.4,0.3c0,0.2,0,0.5,0,0.6c1,0.9,2.3,1.2,3.4,1.9c0.2,0.2,0.6,0.3,0.5,0.7
		c0,1.2,0.2,2.3,0.4,3.5c0.2,1.1-0.6,1.9-0.9,2.8c-0.4,0.9-0.1,1.9-0.7,2.7c-0.2,0.3-0.6,0.5-1,0.8c-0.9,0.8-1.4,1.8-1.9,2.8
		c-0.1,0.5-0.7,0.2-1,0.2c-0.8-0.2-1.3-0.9-1.5-1.6c0.7-0.8,1.5-1.6,2.4-2.3c-0.3-0.8-0.5-1.6-0.8-2.3c1.3-0.5,2.4-1.3,3.4-2.3
		c-0.2-0.7-0.3-1.4-0.8-2c-0.9-0.6-2.2-0.7-2.8-1.7c-0.8-1.1-0.7-2.6-0.3-3.8c-0.1-0.1-0.4-0.2-0.5-0.2c0.2-0.2,0.6-0.3,0.6-0.7
		c0-0.4-0.3-0.7-0.6-1c0,0.3-0.1,0.7-0.1,1c-0.8,0.9-1.1,2.1-0.4,3.2c-0.4,0-0.7,0.1-1.1,0.1c0.3,0.4,0.5,0.8,0.8,1.2
		c-0.4,0.1-0.7,0.1-1.1,0.2c0.5,1.9,1.4,3.8,2.8,5.2c-1.3,0.7-2.6,1.4-3.5,2.6c-1.5,1.7-2.7,3.8-4.7,5c-1,0.6-2.3,0.5-3.4,0.4
		c-0.3-1-0.5-2.1-1.2-3c-0.6-0.8-1.5-1.2-2.1-1.8c-0.4-0.4-0.6-0.9-0.9-1.3c-1.6,0.2-3.5,0.6-4.9-0.6c-0.8-0.8-0.2-2-0.2-3
		c-0.5-0.2-1-0.3-1.5-0.5c0-0.4,0.1-0.8,0.1-1.1c-0.2-0.3-0.4-0.7-0.6-1c0.3-0.5,0.7-1,1-1.6c-0.5-0.1-1.1,0-1.6-0.3
		c-0.3-0.2-0.4-0.6-0.3-0.9c0.5-1.6,1.6-3.1,2.3-4.6c0-0.4-0.2-0.8-0.2-1.2c0.5-1.4,0-2.9,0.5-4.2c0.2-0.6,0.2-1.4,0.7-1.9
		c0.8-0.8,1-1.9,1.6-2.8C71.4,74.3,72.6,73.7,73.7,72.9L73.7,72.9z"/>
	<path class="st1" d="M92,74.9c-0.1-0.5,0.2-1.2,0.8-1C93.4,74.3,92.6,75.2,92,74.9L92,74.9z"/>
	<path class="st1" d="M92.8,76.2c0.5-0.4,1.4-0.2,1.6,0.5c-0.9,0-2,0-2.6,0.8c0.4,0.8,0.6,1.7,0.5,2.6c0,0.7-0.1,1.4,0.1,2.1
		c0.2-1.2,0.2-2.4,0.1-3.6c0.8-0.1,1.5-0.6,1.9-1.2c0.7,0,1.4-0.1,2.1-0.1c-1,2.5-2.2,5.1-2.9,7.7c-0.4,1.4-2,2.4-3.4,2.2
		c0,0.1,0.1,0.3,0.1,0.3c-0.5-0.3-1-0.6-1.5-0.9c0.8,0,1.5,0.1,2.3,0.1c-0.4-0.2-0.8-0.4-1.2-0.5c0.5-0.6,1.1-1.2,1.4-1.9
		c0.5-2.4-0.5-4.6-1.2-6.8C91.3,77.3,92,76.8,92.8,76.2L92.8,76.2z"/>
	<path class="st3" d="M96.6,76.5C96.7,76.6,96.7,76.6,96.6,76.5L96.6,76.5z"/>
	<path class="st1" d="M92.5,78c-0.1-0.8,0.8-1,1.4-0.8C93.7,77.8,93.1,78.2,92.5,78L92.5,78z"/>
	<path class="st1" d="M68.5,78.6c0.5-0.4,1-0.9,1.5-1.3c2.3,1,4.7,1.7,6.7,3.3c-1.5-0.1-2.8-0.6-4.3-0.8c1.7,0.7,3.4,1.2,5.3,1.2
		c1.6,0,3,1,4.5,1.6c1,0.3,1.9,0.8,2.8,1.4c-0.3,0.1-0.6,0.2-0.9,0.3c1.3,0,2.3,0.8,3.3,1.5c0.3,0.4,0.4,0.9,0.5,1.3
		c-1.1-0.4-2.2-1-3.4-0.7c0.5,0.3,1.3,0.1,1.4,0.8l0-0.6c0.3,0.2,0.5,0.4,0.4,0.8c-0.1,0-0.4-0.1-0.6-0.2l-0.2,0.2
		c-0.8-0.1-1.5-0.4-2.2-0.7c-0.7,0.9-1.7,1.4-2.2,2.4c-0.3,0.5-0.6,1-1,1.3c-0.5,0.2-1.1-0.1-1.5-0.3c0.4-0.1,0.8-0.1,1.2-0.2
		c0.4-0.1,0.5-0.5,0.7-0.8c0.4-0.9,1.1-1.6,1.9-2.2c0.4-0.3,0.5-0.9,0.3-1.4c-0.2-0.6-0.7-1-1-1.5c-1.3,0-2.4,0.7-3.3,1.5
		c-0.7-0.1-1.3-0.4-2-0.6c0.1-0.2,0.2-0.4,0.3-0.6c-2.1,0.1-4.2-0.5-6.1-1.4c-0.7-0.3-1.6-0.4-2.1-1c-0.2-0.3-0.1-0.6-0.1-0.9
		c0.2,0,0.5-0.1,0.6-0.1c-0.2-0.3-0.6-0.6-0.6-1c0-0.3,0.2-0.5,0.4-0.8c0.2,0.2,0.4,0.5,0.6,0.7c0-0.1,0-0.2,0-0.3
		C69.1,79.2,68.8,78.9,68.5,78.6L68.5,78.6z"/>
	<path class="st2" d="M69.1,81.5c0.7-0.1,1.3,0,2,0.1c0.9,0.1,1.6,0.8,2.5,1c0.9,0.2,1.9,0.2,2.9,0.3c-1.3,0.4-2.9,0.4-4.1-0.2
		C71.3,82.2,70.2,81.9,69.1,81.5L69.1,81.5z"/>
	<path class="st1" d="M69.3,84.5c0.9,0.9,2,1.4,3.2,1.9c-0.8,0.3-1.5,0.6-2.3,1c0.3-0.4,0.6-0.9,0.9-1.3c-0.5,0.2-0.9,0.5-1.4,0.8
		C69.6,86.1,69.5,85.3,69.3,84.5L69.3,84.5z"/>
	<path class="st1" d="M78.6,86.2c0.5-0.6,1-1.3,1.8-1.5c0.4-0.1,1-0.1,1.3,0.2c0.5,0.6,0.3,1.5-0.1,2.1c-0.2-0.6,0.1-1.6-0.6-1.9
		C80.1,85.3,79.4,85.9,78.6,86.2L78.6,86.2z"/>
	<path class="st1" d="M80.5,86c0.2,0.3,0.4,0.5,0.6,0.8c-0.5,0.6-1,1.3-1.4,2c-0.3-0.3-0.6-0.5-0.9-0.8c0.3,0,0.6,0,0.8-0.1
		C80.1,87.4,80.3,86.7,80.5,86L80.5,86z"/>
	<path class="st1" d="M88.9,87.7c0.2,0.1,0.5,0.2,0.7,0.2c0.9,1.6,2.7,2.1,4.2,2.9c0.2,0.8,0.2,1.7,0.3,2.6c-0.4,0-0.8,0.1-1.2,0.1
		c-0.8-1-2.3-1.2-3.3-2C88.6,90.4,89.4,88.9,88.9,87.7L88.9,87.7z"/>
	<path class="st1" d="M89.8,97.7c2-0.8,3.4-2.5,4.6-4.2c0.4,2.2-1.5,3.9-1.4,6c-0.5,0.3-0.9,0.8-1.5,1c0,0.1,0,0.3,0,0.4
		c-0.3,0-0.5,0-0.7,0C90.5,99.9,90.1,98.8,89.8,97.7L89.8,97.7z"/>
	<path class="st1" d="M88.1,102.2c0.6-0.7,1.3-1.3,2-1.9c0.2,0.5,0.3,1.1,0.5,1.6c-0.3,0.4-0.8,0.7-0.7,1.3c-0.4,0-0.7,0.1-1.1,0.1
		C88.6,103,88.4,102.6,88.1,102.2L88.1,102.2z"/>
	<path class="st1" d="M75.2,123.4c1.2-1.2,3.6-1.1,4.4,0.6c0.4,1.3,0.3,2.6,0.3,3.9c-0.1,0.8-0.1,1.6-0.5,2.3
		c-1.2,1.7-4.4,1.2-4.8-0.9c0.5-0.1,1.1-0.1,1.6-0.2c0.3,0.4,0.6,1.3,1.3,1c0.9-0.4,0.7-1.5,0.8-2.3c-0.8,0.4-1.9,0.8-2.7,0.3
		c-0.8-0.5-1-1.6-1-2.5C74.6,124.7,74.7,123.9,75.2,123.4L75.2,123.4z"/>
	<path class="st1" d="M69.7,124.1c0.9-0.2,1.7-0.7,2.3-1.5c0.3,0,0.6,0,1,0c0,2.8,0,5.5,0,8.3c-0.6,0.1-1.1,0.1-1.7,0.1
		c0-2,0-3.9,0-5.9c-0.6,0-1.2,0-1.8-0.1C69.6,124.7,69.7,124.4,69.7,124.1L69.7,124.1z"/>
	<path class="st1" d="M82.4,122.8c1.1-0.4,2.6-0.4,3.2,0.7c0.6,1.3,0.6,2.7,0.5,4.1c-0.1,1.1-0.2,2.3-1.1,3c-1.2,0.8-3.4,0.6-3.8-1
		c-0.5-1.5-0.3-3.2-0.2-4.7C81.2,124,81.6,123.2,82.4,122.8L82.4,122.8z"/>
	<path class="st1" d="M87.6,122.7c1.4,0,2.9,0,4.3,0c0,0.4,0.1,0.9,0.1,1.3c-1,0-2.1,0.1-3.1,0.1c-0.1,0.5-0.2,1.1-0.2,1.6
		c0.8-0.3,1.8-0.6,2.6-0.2c0.8,0.5,0.9,1.4,1,2.3c0.1,1.1-0.3,2.6-1.4,3c-0.9,0.3-2,0.4-2.8-0.2c-0.7-0.5-1.1-1.3-1.1-2.1
		c0.5,0,1.1,0,1.6,0c0.2,0.4,0.3,0.9,0.6,1.2c0.6,0.4,1.2-0.3,1.3-0.8c0.1-0.7,0.1-1.6-0.2-2.3c-0.5-0.6-1.3,0-1.7,0.5
		c-0.4,0-0.9,0-1.3,0.1C87.4,125.8,87.5,124.2,87.6,122.7L87.6,122.7z"/>
	<path class="st0" d="M76.7,123.7c0.5-0.3,1.2,0,1.3,0.5c0.2,0.7,0.2,1.5,0,2.1c-0.3,0.8-1.7,0.7-1.8-0.2
		C76.2,125.4,75.9,124.3,76.7,123.7L76.7,123.7z"/>
	<path class="st0" d="M83.2,123.7c0.5-0.3,1.2,0,1.3,0.6c0.3,1.7,0.3,3.5-0.1,5.2c-0.2,0.6-1,0.5-1.5,0.5c-0.4-1.8-0.4-3.7-0.1-5.5
		C82.8,124.2,82.9,123.8,83.2,123.7L83.2,123.7z"/>
</g>
</svg>
