<?xml version="1.0" encoding="utf-8"?>
<!-- Generator: Adobe Illustrator 19.1.0, SVG Export Plug-In . SVG Version: 6.00 Build 0)  -->
<svg version="1.1" id="Layer_1" xmlns="http://www.w3.org/2000/svg" xmlns:xlink="http://www.w3.org/1999/xlink" x="0px" y="0px"
	 viewBox="0 0 160 160" style="enable-background:new 0 0 160 160;" xml:space="preserve">
<style type="text/css">
	.st0{fill:#1B181C;}
	.st1{fill:#8571AD;}
	.st2{fill:#FFFFFF;}
	.st3{fill:#FFCA08;}
	.st4{fill:#E3332B;}
</style>
<g>
	<path class="st0" d="M72.6,6.7c3.4-0.4,6.8-0.3,10.1-0.3c15.2,0.5,30.2,5.9,42.2,15.2c11.4,8.8,20.2,20.9,24.8,34.6
		c4.1,12,5,25.1,2.7,37.5c-1.9,10.1-6,19.9-11.9,28.3c-6.4,9.1-14.8,16.8-24.5,22.2c-16.1,9.1-35.8,11.7-53.8,7.2
		c-12.9-3.2-24.8-10-34.2-19.4c-9.7-9.7-16.7-22.1-19.7-35.5c-3.1-13.4-2.4-27.7,2.2-40.6C15.1,42.2,24,30,35.6,21.3
		C46.2,13.2,59.2,8,72.6,6.7L72.6,6.7z"/>
	<path class="st1" d="M72.2,9.8c10.7-1.1,21.7,0,31.8,3.7c12.2,4.4,23.2,12.3,31.3,22.4c7.9,9.9,13.1,21.9,14.8,34.5
		c1.6,12,0.2,24.5-4.4,35.8c-4.5,11.3-12,21.4-21.6,29c-9.6,7.8-21.4,12.9-33.6,14.7c-10.8,1.6-22,0.7-32.4-2.7
		c-11.7-3.8-22.3-10.8-30.6-20c-9.1-10-15.2-22.7-17.2-36.1c-1.7-11-0.9-22.5,2.6-33.1C16.7,46.2,23.8,35.5,33,27.2
		C43.9,17.5,57.7,11.3,72.2,9.8L72.2,9.8z"/>
	<path class="st0" d="M74.4,17.7c12.5-1.1,25.3,1.5,36.2,7.7c10.1,5.7,18.6,14.2,24.3,24.4c6.3,11.3,8.9,24.6,7.4,37.5
		c-1.3,11.6-6,22.9-13.4,32c-6.8,8.5-15.9,15.2-26.1,19.1c-11.9,4.7-25.2,5.5-37.6,2.5c-11.3-2.7-21.8-8.8-30-17.1
		c-8.5-8.7-14.4-19.8-16.6-31.8c-2.4-12.3-1-25.3,4-36.8C27.8,43,37.1,32.6,48.5,25.9C56.4,21.3,65.3,18.5,74.4,17.7L74.4,17.7z"/>
	<path class="st2" d="M65,20.6c9.8-2.5,20.3-2.5,30.1,0c0,5.9,0,11.8,0,17.8c-1.1,0.2-2.3,0.7-2.6,1.9c-0.5,1.1,0.2,2.3,0.8,3.2
		c-2.9,1.7-5.9,3.1-9.2,3.7c0.6-3.3,2-6.4,3.7-9.3c1,0.9,2.7,1.4,3.8,0.5c1.8-1.2,1.2-4.3-0.9-4.8c-1.8-0.5-3.3,1-3.6,2.7
		c-2.6-0.5-4.6-2.2-6.2-4.2c0.9-0.6,1.9-1.4,1.8-2.7c0.1-1.8-2-3.2-3.6-2.5c-1.4,0.4-2.1,2.2-1.6,3.5c0.3,0.8,1,1.2,1.6,1.7
		c-1.6,1.9-3.7,3.7-6.2,4.2c-0.3-1.4-1.3-2.8-2.8-2.7c-2.2-0.1-3.6,2.9-2,4.5c1.1,1.4,3.1,1,4.3-0.1c1.7,2.9,3.1,6,3.7,9.3
		c-3.3-0.6-6.4-2-9.3-3.7c0.7-0.8,1.2-1.8,1-2.9c-0.2-1.3-1.5-2-2.7-2.2C65,32.5,65,26.5,65,20.6L65,20.6z"/>
	<path class="st1" d="M35.2,38.3c7.9-8.6,18.4-14.8,29.8-17.7c0,5.9,0,11.8,0,17.8c-1.4,0.2-2.8,1.3-2.6,2.9
		c-0.1,1.5,1.3,2.5,2.7,2.7c-0.4,2.6-2.2,4.6-4.1,6.2c-0.6-0.6-1.1-1.5-2-1.7c-1.5-0.4-3.2,0.7-3.3,2.3c-0.2,1.6,1.3,3.2,2.9,3
		c1.1,0,1.8-1,2.4-1.7c1.9,1.6,3.6,3.7,4.1,6.2c-1.4,0.3-2.8,1.3-2.7,2.9c-0.1,1.5,1.3,2.5,2.6,2.7c0,25.1,0,50.3,0,75.4
		c-11.3-2.9-21.9-9.1-29.8-17.7C35.2,93.9,35.2,66.1,35.2,38.3L35.2,38.3z"/>
	<path class="st1" d="M95,20.6c11.3,2.9,21.9,9.1,29.8,17.7c0,27.8,0,55.5,0,83.3c-7.9,8.6-18.4,14.8-29.8,17.7
		c0-25.1,0-50.3,0-75.4c1.5-0.2,2.8-1.5,2.6-3.1c-0.1-1.5-1.5-2.2-2.7-2.5c0.5-2.6,2.2-4.6,4.2-6.2c0.6,0.8,1.3,1.8,2.4,1.8
		c1.6,0.2,3.2-1.3,3-3c-0.1-1.6-1.8-2.8-3.3-2.3c-0.9,0.2-1.5,1-2.1,1.7c-1.9-1.6-3.6-3.7-4.1-6.2c1.3-0.3,2.8-1.2,2.7-2.7
		c0.1-1.5-1.2-2.6-2.6-2.9C95,32.5,95,26.5,95,20.6L95,20.6z"/>
	<path class="st0" d="M79.1,26.9c1.6-0.7,3.7,0.7,3.6,2.5c0.1,1.2-0.9,2-1.8,2.7c1.6,1.9,3.7,3.7,6.2,4.2c0.2-1.7,1.8-3.2,3.6-2.7
		c2.1,0.5,2.7,3.6,0.9,4.8c-1.2,1-2.8,0.5-3.8-0.5c-1.7,2.9-3.1,5.9-3.7,9.3c3.3-0.6,6.4-2,9.2-3.7c-0.6-0.9-1.3-2-0.8-3.2
		c0.3-1.2,1.5-1.7,2.6-1.9c1.4,0.3,2.7,1.4,2.6,2.9c0,1.5-1.4,2.5-2.7,2.7c0.5,2.5,2.2,4.6,4.1,6.2c0.6-0.6,1.1-1.5,2.1-1.7
		c1.5-0.4,3.2,0.8,3.3,2.3c0.2,1.6-1.3,3.2-3,3c-1.1,0-1.8-1-2.4-1.8c-1.9,1.6-3.7,3.7-4.2,6.2c1.3,0.3,2.7,1.1,2.7,2.5
		c0.2,1.6-1.1,2.9-2.6,3.1c-1.2-0.1-2.4-0.8-2.7-2.1c-0.4-1.1,0.3-2.1,0.9-3c-2.8-1.7-6-3.1-9.3-3.7c0.6,3.3,2,6.4,3.7,9.3
		c1.2-1.3,3.5-1.4,4.5,0.2c1.2,1.7-0.2,4.3-2.3,4.1c-1.6,0.1-2.5-1.3-2.8-2.7c-2.6,0.4-4.6,2.2-6.2,4.1c1.1,0.7,2.1,1.9,1.7,3.3
		c-0.4,2.2-3.6,2.9-4.8,1c-1.1-1.5-0.2-3.5,1.3-4.3c-1.7-1.9-3.7-3.7-6.2-4.1c-0.3,1.4-1.2,2.8-2.8,2.7c-2.1,0.2-3.5-2.5-2.3-4.1
		c1-1.6,3.3-1.4,4.5-0.2c1.7-2.9,3.1-6,3.7-9.3c-3.3,0.6-6.5,2-9.3,3.7c0.6,0.7,1.2,1.6,1,2.7c-0.1,1.4-1.4,2.1-2.7,2.3
		c-1.4-0.2-2.7-1.2-2.6-2.7c-0.1-1.6,1.3-2.6,2.7-2.9c-0.5-2.5-2.2-4.6-4.1-6.2c-0.6,0.8-1.3,1.7-2.4,1.7c-1.6,0.2-3.2-1.3-2.9-3
		c0.1-1.6,1.8-2.7,3.3-2.3c0.9,0.2,1.4,1,2,1.7c1.9-1.6,3.6-3.7,4.1-6.2c-1.3-0.3-2.8-1.2-2.7-2.7c-0.2-1.6,1.2-2.6,2.6-2.9
		c1.2,0.2,2.5,0.9,2.7,2.2c0.3,1.1-0.3,2.1-1,2.9c2.9,1.7,6,3.1,9.3,3.7c-0.6-3.3-2-6.4-3.7-9.3C71.1,39,69.1,39.3,68,38
		c-1.5-1.6-0.2-4.6,2-4.5c1.6-0.1,2.6,1.4,2.8,2.7c2.6-0.5,4.6-2.2,6.2-4.2c-0.6-0.5-1.3-0.9-1.6-1.7C76.9,29.1,77.7,27.3,79.1,26.9
		L79.1,26.9z"/>
	<path class="st3" d="M79,27.6c1.3-0.8,3.2,0.2,3,1.8c0.1,1.4-1.5,2.5-2.8,1.9C77.7,30.9,77.5,28.3,79,27.6L79,27.6z"/>
	<path class="st3" d="M72.4,36.9c3.2-0.3,5.7-2.6,7.6-4.9c2,2.4,4.4,4.7,7.6,4.9c-2.1,3.3-3.8,7-4.3,10.9c3.9-0.4,7.6-2.2,10.9-4.3
		c0.3,3.2,2.6,5.6,5,7.6c-2.4,1.9-4.6,4.4-5,7.6c-3.3-2.1-7-3.8-10.9-4.3c0.5,4,2.2,7.6,4.3,11c-3.2,0.3-5.7,2.6-7.6,5
		c-1.9-2.4-4.4-4.6-7.6-5c2.1-3.3,3.8-7,4.3-11c-3.9,0.5-7.6,2.2-10.9,4.3c-0.4-3.2-2.6-5.7-5-7.6c2.4-1.9,4.6-4.4,5-7.6
		c3.3,2.1,7,3.8,10.9,4.3C76.2,43.9,74.5,40.2,72.4,36.9L72.4,36.9z"/>
	<path class="st4" d="M74.1,37.7c2.3-0.7,4.2-2.3,5.9-4.1c1.6,1.8,3.6,3.3,5.9,4.1c-2,3.4-3.5,7.2-3.7,11.2c4-0.1,7.8-1.7,11.3-3.7
		c0.7,2.3,2.3,4.3,4.1,5.9c-1.8,1.6-3.4,3.6-4.1,5.9c-3.4-2-7.3-3.5-11.3-3.7c0.2,4,1.7,7.9,3.7,11.3c-2.3,0.7-4.2,2.3-5.9,4.1
		c-1.6-1.8-3.5-3.3-5.9-4.1c2-3.5,3.5-7.3,3.7-11.3c-4,0.2-7.9,1.7-11.3,3.7c-0.7-2.3-2.3-4.2-4.1-5.9c1.8-1.6,3.3-3.6,4.1-5.9
		c3.4,2,7.3,3.6,11.3,3.7C77.7,45,76.1,41.2,74.1,37.7L74.1,37.7z"/>
	<path class="st3" d="M69,34.4c1.3-0.8,3.3,0.3,3.1,1.9c0,1.4-1.5,2.3-2.7,1.8C67.7,37.7,67.5,35.2,69,34.4L69,34.4z"/>
	<path class="st3" d="M88.9,34.4c1.3-0.8,3.4,0.2,3.1,1.9c0.1,1.6-2,2.5-3.2,1.6C87.6,37.1,87.7,35.1,88.9,34.4L88.9,34.4z"/>
	<path class="st2" d="M19,85.3c-1.6-17,4.4-34.6,16.2-47c0,27.8,0,55.5,0,83.3C25.9,111.8,20.1,98.8,19,85.3L19,85.3z"/>
	<path class="st2" d="M124.8,38.3c9.1,9.6,14.8,22.3,16.1,35.5c1.8,17.3-4.1,35.2-16.1,47.8C124.8,93.9,124.8,66.1,124.8,38.3
		L124.8,38.3z"/>
	<path class="st3" d="M64,39.4c1-0.6,2.4-0.2,2.9,0.9c0.8,1.4-0.6,3.3-2.2,2.9C62.8,43,62.3,40.2,64,39.4L64,39.4z"/>
	<path class="st3" d="M93.9,39.4c1.3-0.8,3.3,0.2,3.1,1.9c0,1.4-1.5,2.3-2.7,1.9C92.7,42.7,92.4,40.2,93.9,39.4L93.9,39.4z"/>
	<path class="st3" d="M57.2,49.4c1.3-0.9,3.4,0.2,3.1,1.8c0.1,1.5-1.8,2.4-3.1,1.7C55.9,52.2,55.9,50.1,57.2,49.4L57.2,49.4z"/>
	<path class="st3" d="M100.5,49.5c1.3-1,3.5,0,3.3,1.7c0.1,1.6-1.9,2.5-3.2,1.6C99.4,52.2,99.4,50.3,100.5,49.5L100.5,49.5z"/>
	<path class="st2" d="M66.7,58.9c2.9-1.8,6-3.1,9.3-3.7c-0.6,3.3-2,6.4-3.7,9.3c-1.2-1.3-3.5-1.5-4.5,0.2c-1.2,1.6,0.2,4.3,2.3,4.1
		c1.6,0.1,2.5-1.3,2.8-2.7c2.6,0.4,4.6,2.2,6.2,4.1c-1.5,0.8-2.4,2.8-1.3,4.3c1.2,1.9,4.4,1.2,4.8-1c0.4-1.4-0.6-2.6-1.7-3.3
		c1.7-1.9,3.7-3.7,6.2-4.1c0.3,1.4,1.2,2.8,2.8,2.7c2.1,0.2,3.5-2.5,2.3-4.1c-1-1.6-3.3-1.4-4.5-0.2c-1.7-2.9-3.1-6-3.7-9.3
		c3.3,0.6,6.4,2,9.3,3.7c-0.6,0.8-1.3,1.9-0.9,3c0.3,1.2,1.5,1.9,2.7,2.1c0,25.1,0,50.3,0,75.4c-9.8,2.5-20.3,2.5-30.1,0
		c0-25.1,0-50.3,0-75.4c1.2-0.1,2.6-0.9,2.7-2.3C67.9,60.6,67.3,59.7,66.7,58.9L66.7,58.9z"/>
	<path class="st3" d="M64,59.3c1.2-0.7,2.9,0.1,3.1,1.5c0.3,1.6-1.6,3-3,2.1C62.6,62.3,62.6,60.1,64,59.3L64,59.3z"/>
	<path class="st3" d="M93.9,59.4c1.3-0.9,3.3,0.3,3.1,1.8c0.1,1.5-1.7,2.5-3,1.7C92.6,62.3,92.6,60.1,93.9,59.4L93.9,59.4z"/>
	<path class="st3" d="M69,64.4c1.3-0.9,3.2,0.3,3.1,1.9c0.1,1.5-1.8,2.5-3,1.7C67.7,67.3,67.6,65,69,64.4L69,64.4z"/>
	<path class="st3" d="M88.9,64.4c1.3-0.8,3.3,0.3,3.1,1.8c0.2,1.6-2.1,2.6-3.2,1.6C87.6,67,87.7,65,88.9,64.4L88.9,64.4z"/>
	<path class="st3" d="M79.4,70.9c1.4-0.4,2.9,0.7,2.6,2.2c0,1.5-2,2.3-3.2,1.5C77.5,73.8,77.8,71.3,79.4,70.9L79.4,70.9z"/>
	<path class="st0" d="M37,85.3c8.7,0,17.5,0,26.2,0c0,2.5,0,5,0,7.6c-3,0-6.1,0-9.1,0c0,7.9,0,15.8,0,23.7c-2.7,0-5.4,0-8.1,0
		c0-7.9,0-15.8,0-23.7c-3,0-6,0-9,0C37,90.4,37,87.9,37,85.3L37,85.3z"/>
	<path class="st0" d="M72.7,88c2.3-2.1,5.5-2.6,8.5-2.6c3.4,0,6.9,0,10.3,0c0,2.6,0,5.1,0,7.7c-3.6,0-7.2,0-10.8,0
		c-2.3,0.1-3.7,2.3-4.1,4.3c5,0,10,0,15,0c0,2.5,0,4.9,0,7.4c-5,0-10,0-14.9,0c0,4,0,7.9,0,11.9c-2.7,0-5.4,0-8,0
		c0-5.9,0-11.9,0-17.8C68.6,94.9,69.6,90.6,72.7,88L72.7,88z"/>
	<path class="st0" d="M100.6,89.6c1.9-2.7,5.2-4.1,8.4-4.2c4.4,0,8.7,0,13.1,0c0,2.5,0,5,0,7.6c-3.6,0-7.1,0-10.7,0
		c-1.6,0-3.2,0.8-4,2.2c-1,1.8-1.2,3.9-1.2,5.9c0.1,2.1,0.3,4.5,1.6,6.2c0.9,1.2,2.5,1.7,3.9,1.7c3.5,0,6.9,0,10.4,0
		c0,2.5,0,5,0,7.6c-4.3,0-8.7,0-13,0c-3.2-0.1-6.5-1.4-8.4-4.1c-2.4-3.3-3.1-7.5-3-11.5C97.7,97.1,98.3,92.8,100.6,89.6L100.6,89.6z
		"/>
	<path class="st2" d="M38,86.4c8,0,16.1,0,24.1,0c0,1.8,0,3.6,0,5.5c-3,0-6.1,0-9.1,0c0,7.9,0,15.8,0,23.7c-2,0-4,0-6,0
		c0-7.9,0-15.8,0-23.7c-3,0-6,0-9,0C38,90,38,88.2,38,86.4L38,86.4z"/>
	<path class="st2" d="M73.2,88.9c2-1.9,4.9-2.4,7.6-2.5c3.2,0,6.4,0,9.7,0c0,1.9,0,3.7,0,5.6c-3.3,0-6.6,0-10,0
		c-3.1,0.3-5.1,3.5-5,6.4c5,0,10,0,15,0c0,1.8,0,3.5,0,5.3c-5,0-10,0-14.9,0c0,4,0,7.9,0,11.9c-2,0-4,0-5.9,0c0-5.6,0-11.2,0-16.8
		C69.7,95.2,70.5,91.4,73.2,88.9L73.2,88.9z"/>
	<path class="st2" d="M102.1,89.5c1.8-2.1,4.7-3.1,7.4-3.1c3.9,0,7.7,0,11.6,0c0,1.8,0,3.6,0,5.5c-3.2,0-6.5-0.1-9.7,0
		c-1.7,0-3.4,0.7-4.4,2c-1.5,2-1.8,4.7-1.8,7.1c0.1,2.5,0.3,5.2,2,7.2c1.1,1.3,2.9,1.8,4.6,1.8c3.1,0,6.2,0,9.3,0c0,1.8,0,3.6,0,5.5
		c-4,0-8,0-11.9,0c-3-0.1-6.1-1.5-7.8-4c-2.4-3.5-2.7-7.9-2.6-12C98.9,96,99.7,92.2,102.1,89.5L102.1,89.5z"/>
</g>
</svg>
