<?xml version="1.0" encoding="utf-8"?>
<!-- Generator: Adobe Illustrator 19.1.0, SVG Export Plug-In . SVG Version: 6.00 Build 0)  -->
<svg version="1.1" id="Layer_1" xmlns="http://www.w3.org/2000/svg" xmlns:xlink="http://www.w3.org/1999/xlink" x="0px" y="0px"
	 viewBox="0 0 160 160" style="enable-background:new 0 0 160 160;" xml:space="preserve">
<style type="text/css">
	.st0{fill-rule:evenodd;clip-rule:evenodd;fill:#B38D2F;}
	.st1{fill-rule:evenodd;clip-rule:evenodd;fill:#2162AF;}
	.st2{fill-rule:evenodd;clip-rule:evenodd;fill:#FFFFFF;}
	.st3{fill:#FFFFFF;}
	.st4{fill-rule:evenodd;clip-rule:evenodd;fill:#D5C170;}
</style>
<g>
	<path class="st0" d="M120.7,13c-2.5-1.1-5.7-2.3-9.5-3.4c-3.8-1.1-8.3-2.1-13.4-2.9C92.7,6,86.9,5.6,80.4,5.5
		C73.8,5.6,68,6,62.9,6.7c-5.1,0.8-9.6,1.7-13.4,2.9c-3.8,1.1-7,2.3-9.5,3.4c-2.5,1.1-4.4,2.1-5.6,2.9l-1.9,1.2l-1.4,2.7
		c-0.9,1.9-2,4.5-3.3,8c-1.3,3.5-2.6,7.8-3.8,12.9c-1.3,5-2.3,10.8-3,17.3c-0.9,8.7-0.6,17,0.9,25.1c1.5,8.1,4.1,15.7,7.7,22.8
		c3.5,7.2,8,13.9,13.3,20c3.7,4.2,7.4,7.9,10.9,11c3.6,3.1,7,5.7,10.2,7.8c3.2,2.1,6,3.8,8.5,5c2.4,1.3,4.3,2.1,5.7,2.6l2.2,0.8
		l2.1-0.8c1.4-0.5,3.4-1.4,5.8-2.6c2.5-1.2,5.3-2.9,8.4-5c3.2-2,6.6-4.7,10.2-7.8c3.6-3.1,7.3-6.8,11-11c5.2-6.1,9.6-12.8,13.3-20
		c3.6-7.2,6.2-14.8,7.7-22.8c1.5-8.1,1.8-16.4,0.9-25.1c-0.8-6.5-1.8-12.3-3-17.3c-1.3-5-2.6-9.3-3.8-12.9c-1.3-3.5-2.4-6.1-3.2-8
		l-1.4-2.7l-1.9-1.2C125,15.1,123.2,14.1,120.7,13"/>
	<path class="st1" d="M123.1,19.5c-1.1-0.7-2.9-1.6-5.2-2.6c-2.3-1.1-5.3-2.1-8.8-3.2c-3.5-1.1-7.8-2-12.5-2.6
		c-4.7-0.8-10.2-1.1-16.2-1.1c-6.1,0-11.5,0.4-16.3,1.1c-4.7,0.7-9,1.6-12.5,2.6c-3.5,1.1-6.5,2.1-8.8,3.2c-2.3,1.1-4.1,2-5.2,2.6
		l-1.7,1.1l-1.3,2.6c-0.8,1.7-1.9,4.1-3,7.4c-1.2,3.2-2.4,7.2-3.6,12c-1.1,4.7-2.1,10.1-2.8,16.1C24.2,66.7,24.6,74.5,26,82
		c1.4,7.5,3.8,14.5,7.2,21.2c3.3,6.7,7.4,12.9,12.3,18.5c3.5,4,6.9,7.4,10.2,10.2c3.3,2.9,6.5,5.3,9.4,7.2c2.9,1.9,5.6,3.5,7.9,4.6
		c2.3,1.1,4.1,2,5.3,2.5l2,0.7l2-0.7l5.3-2.5c2.3-1.1,5-2.7,7.9-4.6c2.9-2,6.1-4.4,9.4-7.2c3.4-2.9,6.8-6.3,10.2-10.2
		c4.9-5.6,9-11.8,12.3-18.5c3.4-6.7,5.7-13.8,7.2-21.2c1.4-7.5,1.7-15.3,0.8-23.4c-0.7-6-1.7-11.4-2.8-16.1c-1.2-4.7-2.4-8.7-3.5-12
		c-1.2-3.2-2.3-5.6-3.1-7.4l-1.3-2.6L123.1,19.5"/>
	<path class="st2" d="M63.1,28.1c-5.2,0.8-9.6,1.7-13.5,2.8c-3.8,1.1-6.9,2.1-9,2.9c-2.2,0.9-3.5,1.5-4,1.8
		c-1.1,2.9-2.2,6.6-3.3,10.8c-1.1,4.4-2,9.3-2.6,14.9c-0.8,7.3-0.5,14.3,0.8,21c1.3,6.7,3.4,13.1,6.4,19.1
		c2.9,5.9,6.6,11.5,11.1,16.6c3.9,4.4,7.7,8.1,11.4,11.1c3.7,2.9,7.1,5.3,10.1,7c3,1.7,5.4,2.9,7.2,3.6l2.8,1.1v-0.8l-2.5-1
		c-1.6-0.7-3.8-1.9-6.5-3.5c-2.7-1.7-5.7-3.9-9-6.9c-3.4-2.9-6.8-6.5-10.2-10.8c-4-5-7.3-10.4-10-16.3c-2.7-5.9-4.6-12.1-5.7-18.7
		c-1.1-6.6-1.4-13.4-0.8-20.5c0.6-5.5,1.4-10.3,2.4-14.5c1-4.3,2-7.8,2.9-10.6c0.4-0.3,1.6-0.9,3.6-1.7c2-0.9,4.7-1.9,8.1-2.9
		c3.5-1.1,7.5-2,12.2-2.7c4.6-0.8,9.8-1.2,15.5-1.3v-1.9C74,26.9,68.2,27.3,63.1,28.1"/>
	<path class="st2" d="M125,62.6c0.7,7.1,0.5,13.9-0.7,20.5c-1.1,6.6-3.1,12.8-5.7,18.7c-2.7,5.9-6,11.3-10,16.3
		c-3.5,4.4-6.9,8-10.2,10.8c-3.4,2.9-6.4,5.2-9.1,6.9c-2.6,1.7-4.8,2.9-6.4,3.5l-2.5,1v0.8l2.8-1.1c1.7-0.7,4.1-1.9,7.2-3.6
		c3-1.7,6.3-4,10-6.9c3.7-2.9,7.5-6.7,11.4-11.1c4.4-5.1,8.1-10.7,11.1-16.6c3-6,5.1-12.4,6.4-19.1c1.3-6.7,1.5-13.7,0.8-21
		c-0.7-5.6-1.5-10.5-2.6-14.9c-1.1-4.3-2.2-7.9-3.3-10.8l-3.9-1.8c-2.2-0.8-5.3-1.8-9.1-2.9c-3.8-1.1-8.2-2-13.4-2.8
		c-5.2-0.8-10.9-1.2-17.2-1.3v1.9c5.6,0.1,10.8,0.5,15.5,1.3c4.7,0.8,8.7,1.7,12.1,2.7c3.4,1.1,6.1,2,8.1,2.9c2,0.8,3.2,1.4,3.6,1.7
		c1,2.8,2,6.3,2.9,10.6C123.7,52.2,124.4,57.1,125,62.6"/>
	<path class="st3" d="M98.8,105.8L98.8,105.8 M94.9,97.4 M96.3,96.5 M89,91.5 M89.9,90.1 M80.6,89.2 M80.6,87.6 M72.3,91.5
		 M71.4,90.1 M66.3,97.4 M64.9,96.5 M64.1,105.8 M62.4,105.8 M66.3,114.2 M64.9,115.1 M72.3,120.1 M71.4,121.5 M80.6,122.4
		 M80.6,124 M89,120.1 M89.9,121.5 M94.9,114.2 M97.2,105.8c0,3.1-0.8,5.9-2.3,8.4c-1.4,2.5-3.5,4.4-6,6c-2.5,1.4-5.3,2.2-8.4,2.3
		c-3.1-0.1-5.8-0.8-8.3-2.3c-2.5-1.5-4.5-3.5-6-6c-1.4-2.5-2.2-5.3-2.2-8.4c0-3.1,0.8-5.9,2.2-8.4c1.5-2.5,3.5-4.4,6-6
		c2.5-1.4,5.2-2.2,8.3-2.3c3.1,0.1,5.9,0.8,8.4,2.3c2.5,1.5,4.5,3.5,6,6C96.4,99.9,97.2,102.7,97.2,105.8z M96.3,115.1
		c1.7-2.8,2.6-5.9,2.6-9.3c0-3.4-0.8-6.5-2.6-9.3c-1.6-2.6-3.7-4.8-6.4-6.4c-2.8-1.7-5.9-2.5-9.3-2.6c-3.4,0.1-6.4,0.9-9.2,2.6
		c-2.7,1.6-4.9,3.8-6.5,6.4c-1.7,2.8-2.5,5.9-2.5,9.3c0,3.4,0.8,6.5,2.5,9.3c1.6,2.6,3.8,4.8,6.5,6.4c2.8,1.7,5.8,2.5,9.2,2.6
		c3.4-0.1,6.5-0.9,9.3-2.6C92.6,119.9,94.7,117.7,96.3,115.1z"/>
	<polyline class="st2" points="70.3,99.4 74.2,97.9 75.3,97.9 75.3,112.8 72.9,112.8 72.9,100.4 70.3,101.4 70.3,99.4 	"/>
	<path class="st3" d="M70.4,99.6l3.8-1.5h-0.1h1.1l-0.2-0.2v14.9l0.2-0.2h-2.4l0.2,0.2v-12.4l-0.3-0.2l-2.6,1.1l0.3,0.2v-2
		L70.4,99.6 M74.1,97.7l-3.8,1.5l-0.2,0.2v2l0.3,0.2l2.6-1.1l-0.3-0.2v12.4l0.2,0.2h2.4l0.2-0.2V97.9l-0.2-0.2H74.1z"/>
	<path class="st2" d="M85.6,99.8l-1.3,0.2v-0.1c-1.1,0.4-1.6,1.1-1.6,1.9v7.3c0,0.5,0.3,1.1,0.8,1.4c0.5,0.4,1.1,0.6,1.9,0.7
		c0.8,0,1.5-0.2,2-0.6c0.6-0.4,0.9-0.9,0.9-1.5v-7.3c0-0.8-0.2-1.2-0.7-1.4C87.2,100.1,86.5,99.9,85.6,99.8 M89.7,99.4
		c0.8,0.7,1.1,1.5,1.1,2.4v7.3c0,1-0.5,1.8-1.4,2.6c-0.9,0.8-2,1.2-3.3,1.3h-0.8c-1.1,0-2.1-0.3-2.9-0.8c-0.7-0.4-1.1-0.8-1.5-1.4
		c-0.4-0.5-0.5-1.1-0.5-1.7v-7.3c0-0.5,0.2-1.1,0.5-1.7c0.4-0.5,0.8-1.1,1.4-1.4c0.5-0.3,1.1-0.5,1.6-0.6l1.9-0.1
		C87.4,98,88.7,98.4,89.7,99.4z"/>
	<path class="st3" d="M85.6,100L85.6,100 M87.8,100.1 M87.6,100.6 M88.6,101.8 M88.1,101.8 M88.6,109.1 M88.1,109.1 M87.6,110.8
		 M87.3,110.5 M85.4,111.4 M85.4,111 M83.4,110.7 M83.7,110.4 M82.5,109.1 M82.9,109.1 M82.5,101.8 M82.9,101.8 M85.6,99.5l-1.3,0.2
		l0.2,0.2v-0.1l-0.3-0.2c-1.1,0.5-1.7,1.1-1.7,2.1v7.3c0,0.6,0.3,1.1,0.9,1.6c0.5,0.5,1.2,0.7,2,0.8c0.8,0,1.6-0.2,2.2-0.7
		c0.7-0.5,1.1-1,1-1.7v-7.3c0-0.9-0.3-1.4-0.8-1.7C87.3,99.9,86.5,99.7,85.6,99.5z M84.3,100.2l1.3-0.2c0.9,0.1,1.6,0.4,2,0.6
		c0.4,0.2,0.5,0.6,0.5,1.2v7.3c0,0.5-0.3,1-0.8,1.4c-0.5,0.4-1.1,0.5-1.9,0.5c-0.7-0.1-1.3-0.2-1.7-0.6c-0.5-0.4-0.8-0.8-0.8-1.3
		v-7.3C83,101,83.5,100.5,84.3,100.2l-0.2-0.3v0.1L84.3,100.2z M89.9,99.2 M85.6,98.2 M85.6,97.7 M80.5,101.8 M80.1,101.8
		 M80.5,109.1 M80.1,109.1 M81,110.7 M80.6,111 M85.3,112.8 M85.3,113.3 M86.1,112.8 M86.1,113.3 M89.3,111.6 M89.6,111.9
		 M90.6,109.1 M91.1,109.1 M90.6,101.8 M89.6,99.5c0.7,0.7,1.1,1.4,1.1,2.3v7.3c0,0.9-0.5,1.7-1.4,2.5c-0.8,0.7-1.9,1.1-3.2,1.2
		h-0.8c-1.1-0.1-2-0.3-2.8-0.8h-0.1c-0.6-0.3-1.1-0.8-1.4-1.3c-0.3-0.5-0.5-1.1-0.5-1.6v-7.3c0-0.5,0.1-1.1,0.5-1.6v0.1
		c0.3-0.5,0.8-1.1,1.4-1.4l-0.1,0.1c0.5-0.3,1.1-0.5,1.6-0.6h-0.1l1.9-0.1C87.3,98.2,88.6,98.6,89.6,99.5z M91.1,101.8
		c0-1-0.4-1.8-1.2-2.6c-1.1-1-2.5-1.5-4.2-1.5l-1.9,0.2h-0.1c-0.5,0.1-1.1,0.3-1.6,0.6L82,98.6c-0.6,0.4-1.1,0.9-1.5,1.4v0.1
		c-0.3,0.5-0.5,1.1-0.5,1.7v7.3c-0.1,0.7,0.2,1.3,0.5,1.9c0.4,0.5,1,1.1,1.7,1.4h-0.1c0.8,0.5,1.9,0.8,3.1,0.8h0.8
		c1.4-0.1,2.5-0.5,3.5-1.4c1-0.8,1.5-1.8,1.5-2.8V101.8z"/>
	<path class="st2" d="M56.4,55.6l-9.6,1.7c0.1,0.5,0.2,1,0.5,1.4c0.2,0.4,0.5,0.7,0.9,1.1c0.4,0.4,0.8,0.6,1.1,0.8l1.4,0.1l6.5-1.1
		l0.5,2.7l-7.2,1.3l-3.3-0.3c-1.2-0.4-2.2-1.1-3-2.3c-0.8-1.2-1.3-2.6-1.6-4.2c-0.3-1.5-0.3-2.9,0.1-4.4c0.4-1.4,1.1-2.6,2-3.4
		l1.7-1c0.5-0.2,1.1-0.5,1.8-0.5l6.6-1.2l0.5,2.9L49,50.1c-0.5,0.1-1,0.2-1.4,0.5c-0.3,0.2-0.6,0.6-0.9,1.1l-0.5,1.3
		c-0.1,0.4,0,0.9,0.1,1.5l9.6-1.7L56.4,55.6"/>
	<path class="st2" d="M71.2,52.8c0.8,0.8,1.3,1.9,1.4,3.3c0.1,1.4-0.2,2.6-0.9,3.6c-0.7,1.1-1.7,1.7-2.9,1.7l-9.4,0.6l-0.2-2.9
		l7.8-0.6c0.5-0.1,1-0.2,1.4-0.5c0.4-0.4,0.5-0.8,0.5-1.4c-0.1-1.4-0.9-2-2.5-1.9l-4,0.2c-1.1,0.1-2.1-0.3-3-1.1
		c-0.9-0.8-1.4-1.9-1.5-3.2c-0.1-1.4,0.2-2.7,1-3.7c0.8-0.9,1.9-1.4,3.2-1.6l9-0.6l0.2,2.9l-7.9,0.5c-0.4,0-0.8,0.2-1.1,0.6
		c-0.4,0.4-0.5,0.8-0.5,1.3c0,0.6,0.2,1.1,0.6,1.4c0.4,0.3,0.8,0.5,1.3,0.5l4.4-0.3C69.2,51.7,70.3,52,71.2,52.8"/>
	<polyline class="st2" points="87.5,47.6 81.9,47.6 81.9,61.2 78.6,61.2 78.6,47.6 73.1,47.6 73.1,44.9 87.5,44.9 87.5,47.6 	"/>
	<path class="st2" d="M97.1,55.2l-1.6-5.8l-2.3,5.6L97.1,55.2 M97.5,45.5l5.3,16.7L99,62l-1-3.8L92,57.7l-1.7,3.6l-3.6-0.2l7.2-15.9
		L97.5,45.5z"/>
	<path class="st2" d="M116.8,51.2l-6.1-1.1c-1-0.2-1.8,0.3-2.4,1.4c-0.5,0.8-0.9,2-1.1,3.5c-0.2,1.3-0.2,2.3,0.2,3.3
		c0.4,1.1,1,1.7,2,1.9l5.9,1l-0.5,2.9l-6.5-1.1c-0.7-0.1-1.3-0.3-1.9-0.6c-1.1-0.7-2-1.8-2.6-3.4c-0.4-1.4-0.5-3.1-0.1-4.8
		c0.2-1.7,0.8-3.2,1.6-4.5c0.9-1.4,2-2.2,3.2-2.6l2.9-0.2l5.9,1L116.8,51.2"/>
	<polyline class="st4" points="50.8,72.4 47.9,72.4 47.9,79.5 46,79.5 46,72.4 43.2,72.4 43.2,71 50.8,71 50.8,72.4 	"/>
	<path class="st4" d="M61.8,73.6c0-0.4-0.2-0.7-0.4-0.9l-1.1-0.3H58v2.4h2.4c0.4,0,0.7-0.1,1-0.3C61.7,74.3,61.8,74,61.8,73.6
		 M63.5,71.8c0.4,0.5,0.6,1.2,0.6,2c0,0.6-0.2,1.1-0.5,1.5c-0.4,0.4-0.8,0.7-1.4,0.8l2.1,3.5h-2.2l-2-3.4H58v3.4h-1.8V71h5.6
		C62.5,71,63,71.3,63.5,71.8z"/>
	<path class="st4" d="M75.4,73.2c-0.4-0.5-1-0.8-1.8-0.8c-0.8,0-1.4,0.3-1.8,0.9c-0.3,0.5-0.5,1.1-0.5,2c0,0.9,0.1,1.6,0.4,2
		c0.4,0.6,1.1,0.9,2,0.9c0.8,0,1.4-0.3,1.8-0.9c0.2-0.5,0.4-1.1,0.4-2C75.9,74.4,75.8,73.7,75.4,73.2 M77.1,72
		c0.6,0.7,0.9,1.8,0.9,3.2c0,1.7-0.5,2.9-1.3,3.6c-0.7,0.6-1.7,0.9-3,0.9c-1.4,0-2.6-0.4-3.2-1.1c-0.8-0.7-1.1-1.9-1.1-3.5
		c0-1.3,0.4-2.3,1.1-3.1c0.8-0.8,1.9-1.2,3.3-1.2C75.2,70.8,76.4,71.2,77.1,72z"/>
	<polyline class="st4" points="89,71 91.4,71 87.9,75.9 87.9,79.5 86,79.5 86,75.9 82.6,71 84.9,71 86.9,74.4 89,71 	"/>
	<path class="st4" d="M100.1,72.5l-0.8,0.2l-0.6,0.5l-0.4,0.6c-0.1,0.2-0.1,0.5-0.1,0.8h5.2V76h-5.2c0.3,2.9,3,1.8,5.2,2v1.4h-3.8
		c-0.6,0.1-1.1-0.1-1.7-0.4c-0.6-0.4-1.1-0.8-1.4-1.5c-0.4-0.7-0.5-1.5-0.5-2.3c0-0.8,0.2-1.6,0.5-2.3c0.4-0.7,0.8-1.2,1.4-1.6
		l0.9-0.4l1-0.1h3.5v1.5H100.1"/>
	<path class="st4" d="M116.9,72.4h-4.7c-0.2,0-0.4,0.1-0.6,0.3c-0.2,0.2-0.3,0.5-0.3,0.7c0,0.3,0.1,0.5,0.3,0.8
		c0.2,0.2,0.4,0.3,0.7,0.3h2.6c0.8,0,1.4,0.2,1.9,0.6c0.4,0.5,0.6,1.1,0.6,1.8c0.1,0.8-0.1,1.4-0.6,1.9c-0.5,0.5-1.1,0.8-1.7,0.8
		h-5.6V78h4.5c0.4,0,0.6-0.1,0.8-0.2c0.2-0.1,0.4-0.4,0.4-0.8c0-0.7-0.5-1.1-1.4-1.1h-2.3c-0.7,0-1.2-0.2-1.7-0.8
		c-0.5-0.4-0.8-1-0.8-1.7c0-0.8,0.2-1.4,0.8-1.9c0.5-0.5,1.1-0.7,2-0.7h5.3V72.4"/>
	<polyline class="st2" points="67.3,23.8 65.3,24 64.3,15.5 66.4,15.3 67.3,23.8 	"/>
	<path class="st2" d="M71.9,18.2l3-0.2l-0.3-1.1l-0.8-0.7l-0.6-0.2L72.4,16c-0.5,0.1-0.8,0.2-1.1,0.3c-0.4,0.2-0.5,0.5-0.5,0.8
		l0.2,0.8C71.3,18.1,71.6,18.3,71.9,18.2 M75.4,15.2c0.8,0.6,1.2,1.6,1.4,3c0.1,1.3-0.2,2.4-0.6,3.3c-0.5,1.1-1.4,1.7-2.6,1.8
		l-4,0.2l-0.1-1.7l3.2-0.2h0.2l0.8-0.1l0.7-0.5l0.3-0.6l0.1-0.6l0.1-0.4l-3.5,0.2c-0.7,0-1.3-0.2-1.7-0.6c-0.5-0.5-0.8-1-0.8-1.7
		v-0.2c0-0.9,0.4-1.6,1.1-2.1c0.6-0.4,1.4-0.6,2.5-0.7C73.7,14.4,74.7,14.6,75.4,15.2z"/>
	<path class="st2" d="M81,19.9l-0.2,0.7c-0.1,0.3,0,0.5,0.2,0.8c0.2,0.2,0.5,0.3,0.7,0.3l2,0.1c0.2,0,0.5-0.1,0.8-0.2
		c0.2-0.2,0.3-0.5,0.3-0.7L84.5,20c-0.2-0.2-0.5-0.3-0.7-0.3l-2.1-0.1C81.5,19.6,81.3,19.7,81,19.9 M84,16.2h-2.2
		c-0.2,0-0.4,0.1-0.6,0.3c-0.2,0.2-0.4,0.5-0.4,0.7l0.2,0.8c0.2,0.2,0.5,0.3,0.7,0.3l2.3,0.1c0.2,0,0.4-0.1,0.6-0.3l0.3-0.7
		l-0.2-0.8C84.4,16.3,84.2,16.2,84,16.2z M86.2,15.3c0.5,0.5,0.7,1.1,0.7,1.7c0,0.5-0.2,0.9-0.4,1.3l-1.1,0.8c0.4,0.2,0.8,0.4,1,0.8
		c0.2,0.4,0.3,0.8,0.3,1.4c0,0.6-0.2,1.1-0.7,1.5c-0.5,0.4-1.1,0.5-1.7,0.5h-3.2c-0.7-0.1-1.2-0.2-1.6-0.6c-0.5-0.5-0.8-1-0.8-1.6
		c0-0.5,0.2-0.9,0.4-1.3c0.3-0.4,0.7-0.6,1.1-0.8c-0.5-0.2-0.8-0.5-1.1-0.8c-0.2-0.4-0.3-0.9-0.2-1.4c0-0.6,0.2-1.1,0.8-1.5
		c0.5-0.4,1-0.6,1.7-0.6l3,0.1C85,14.6,85.6,14.9,86.2,15.3z"/>
	<path class="st2" d="M94.6,21.7l-0.1-0.8c-0.2-0.3-0.4-0.5-0.7-0.5l-3-0.3c-0.1,0.5,0,0.8,0.1,1.2c0.1,0.4,0.3,0.6,0.6,0.8
		c0.3,0.2,0.8,0.4,1.4,0.5l1.1-0.1C94.5,22.3,94.6,22,94.6,21.7 M92.5,16.8l-0.8,0.4l-0.4,0.6l-0.2,0.5L91,18.6l3.5,0.4
		c0.7,0.1,1.2,0.3,1.6,0.8c0.4,0.5,0.6,1.1,0.5,1.7v0.3c-0.2,0.9-0.7,1.5-1.4,1.9L92.6,24c-1.3-0.2-2.3-0.5-2.9-1.1
		c-0.7-0.7-1-1.7-0.9-3.2c0.2-1.3,0.5-2.3,1.1-3.2c0.7-1.1,1.7-1.5,2.9-1.4l3.8,0.3l-0.2,1.7l-3.2-0.3L92.5,16.8z"/>
</g>
</svg>
