<?xml version="1.0" encoding="utf-8"?>
<!-- Generator: Adobe Illustrator 19.0.0, SVG Export Plug-In . SVG Version: 6.00 Build 0)  -->
<svg version="1.1" id="Layer_1" xmlns="http://www.w3.org/2000/svg" xmlns:xlink="http://www.w3.org/1999/xlink" x="0px" y="0px"
	 viewBox="0 0 840 840" style="enable-background:new 0 0 840 840;" xml:space="preserve">
<style type="text/css">
	.st0{fill:#ED174C;}
</style>
<g id="XMLID_38_">
	<g id="XMLID_46_">
		<path id="XMLID_36_" d="M160.8,572.7c-3.3,0.3-5.6,3.2-5.3,6.5c0.3,3.2,3.2,5.6,6.5,5.3c0.2,0,20.7-2,40.8,2.5
			c21.5,4.8,51.1,15.2,65.2,21l2.4,1c54.5,22.5,66.6,23.6,71.9,17.4c9.5-11-4.6-24-9.2-28.2c-2.4-2.2-6.1-2.1-8.4,0.3
			c-1,1.1-1.5,2.6-1.5,4c0,1.6,0.6,3.2,1.9,4.4c7.1,6.5,8.4,9.6,8.5,11c-4.3,0.1-17.7-2.9-58.7-19.8l-2.4-1
			c-14.6-6-45-16.7-67.2-21.6C183.4,570.5,161.7,572.6,160.8,572.7z"/>
		<path id="XMLID_35_" d="M406.4,537.5c0,0.1-1.3,12.3-6.9,24.2c-5.9,12.7-25.7,47.1-25.9,47.5c-1.3,2.2-1,4.9,0.6,6.8
			c1.7,1.9,4.3,2.6,6.7,1.6c0.2-0.1,23.7-9.5,31.5-11.5l31.3-7.8c3.1-0.8,4.3-3.9,3.5-7.1c-0.8-3.2-3-5-6.3-4.4l-31.5,7.8
			c-3.9,1-10.9,3.5-17.4,6c6.3-11.2,14.5-26.1,18.1-33.9c6.4-13.8,7.9-27.5,7.9-28c0-0.2,0-0.4,0-0.6c0-3-2.3-5.6-5.3-5.9
			C409.6,531.9,406.7,534.3,406.4,537.5z"/>
		<path id="XMLID_34_" d="M294.7,660.2c-0.9,3.1,1,6.4,4.2,7.2c0.1,0,13.3,3.7,22.5,13.6c5,5.4,9.7,15.9,11.2,22.5
			c1.2,5.6,2,17.3,2.1,17.4c0.2,3.3,3,5.7,6.3,5.5c3.3-0.2,5.7-3.1,5.5-6.3c0-0.5-0.9-12.7-2.3-19.2c-1.8-8.2-7.3-20.8-14-28
			c-11.5-12.4-27.4-16.8-28.1-16.9C298.7,655.2,295.5,657.1,294.7,660.2z"/>
		<path id="XMLID_33_" d="M609.1,574.6c-6.3,6.7-4.3,21.7,7,53.5c4.1,11.4,1.7,19.9,0.2,20.7c-2.1,1.1-8.9-1.5-14.1-7.4
			c-0.1-0.1-0.1-0.2-0.2-0.2c-16.7-17.3-25.7-22.6-33-19.7c-8.3,3.3-14.5,25.6-17.5,38.6c-4.9,21.3-8.5,26.9-10.4,28.4
			c-1.9-4-3.3-16.1-3.3-28.6c0-2.4,0.1-4.9,0.2-7.3c0,0,0-0.5,0-1.2c0-6.7-0.6-37.9-10.9-41.6c-10.7-3.9-27.6,13.6-27.7,13.8
			c-3.5,3.8-21.6,24.1-35.7,50.4c-13.1,24.5-24.2,55.2-24.7,56.5c-1.1,3.1,0.5,6.5,3.6,7.6c3.1,1.1,6.5-0.5,7.6-3.6
			c0.1-0.3,11.3-31.3,24-55c13.7-25.6,32-45.8,34-48c4-4.3,10.8-9,14.2-10.2c1.9,4.9,3.9,18.9,3.9,28.3c0,0.9,0,1.7-0.1,2.5
			c0,1.5-0.1,4.6-0.1,8.4c0,11.8,1,31.1,7.5,37.5c2,2,4.6,3,7.2,2.9c12.8-0.6,18.1-19.2,22.4-38.1c3.6-15.6,8.2-26.9,10.5-29.9
			c1.8,0.5,7,3.2,20,16.6c-0.1-0.1-0.2-0.1-0.2-0.2c7.5,8.6,19.8,14.8,28.6,10c5.9-3.1,8.3-10.5,8.3-18.6c0-5.4-1-11.2-2.9-16.4
			c-8.4-23.3-10-33.7-10-38.3c0-2,0.3-2.9,0.5-3.2c3.7-3.8,11.7-3.7,26.7,0.4c15.3,4.3,33.9,10.7,34,10.8c3.1,1.1,6.4-0.6,7.5-3.6
			c1-3.1-0.6-6.5-3.6-7.5c-0.8-0.3-19.1-6.6-34.8-11C632.9,567.5,618.1,565,609.1,574.6z"/>
		<path id="XMLID_32_" d="M531.9,570.4c-1.6,7.7-0.4,14.4,3.5,20c5.2,7.3,14.5,11,21.5,11.9c7.8,1,23.4-2.5,28.3-9.4
			c3.5-5,6.6-14.9,6.9-16c0.9-3.1-0.8-6.4-4-7.4c-3.1-0.9-6.4,0.8-7.4,3.9c-1.1,3.5-3.4,10.1-5.2,12.7c-1.7,2-11.8,5.2-17,4.5
			c-3.5-0.5-10.2-2.5-13.5-7c-2-2.8-2.5-6.3-1.5-10.7c2.7-13.2,17.4-12.8,19.1-12.7c3.3,0.2,6.1-2.3,6.3-5.6c0.2-3.3-2.3-6-5.5-6.2
			C554.2,547.8,535.8,551.7,531.9,570.4z"/>
		<path id="XMLID_31_" d="M257.8,364.5c-0.1,0.2-9.9,17.7-13.7,23.1c-3.1,4.5-15.8,29.6-15.8,35.1c0,4.8,2.2,8.5,30.7,12.8
			c3.2,0.5,6.3-1.7,6.7-4.9c0-0.3,0.1-0.6,0.1-0.9c0-2.9-2.1-5.4-5-5.8c-6.9-1.1-15-2.7-19.5-4c2.8-7,9.7-21.4,12.5-25.6
			c4-5.8,13.8-23.2,14.2-24c0.5-0.9,0.7-1.9,0.7-2.9c0-2.1-1.1-4.1-3-5.2C263,360.7,259.4,361.7,257.8,364.5z"/>
		<path id="XMLID_30_" d="M289.7,334c-14.5,13.9-14.5,18.1-14.5,19.9c0,7.1,7.7,11.7,14.9,12.4l3.2,0.2c9.8,0.5,13.6,1.4,15,2.3
			c0,1.3,0.1,4.2,0.1,4.2c0.1,1.4,0.1,3.2,0.1,5c0,0.9,0,1.8-0.1,2.5c-1.8-0.4-4.3-1.2-5.9-1.7c-6.1-1.9-11-3.4-14.9-1.5
			c-4.8,2.4-5.4,8.1-6.3,16.6c-0.5,5.2-1.2,11.7-2.9,18.6c-0.8,3.1-1.1,6.5-1.1,10c0,9,2.2,18.1,5.1,22c0,0,1,1.3,1.2,1.6
			c-2.8,0.1-8.7-0.2-23.9-2.7c-3.2-0.5-6.3,1.7-6.8,4.9c-0.5,3.2,1.6,6.3,4.9,6.8c23.7,3.9,28.2,3.2,32.1,1.9l0.4-0.1h0
			c4.4-0.7,6.1-3.5,6.7-5c0.4-1,0.6-2,0.6-3c0-3.9-2.8-7.6-5.1-10.6l-0.6-0.8c-1-1.4-2.8-7.9-2.8-14.8c0-2.4,0.2-4.9,0.8-7.2
			c1.9-7.7,2.6-14.6,3.2-20.2c0.2-2.2,0.5-4.8,0.8-6.6c1.6,0.4,3.7,1,5.1,1.5c4.9,1.5,9.5,3,13.2,2.3c7-1.3,8.2-8.2,8.2-14.9
			c0-1.7-0.1-3.4-0.1-5l-0.1-4.6c0-11.9-17.1-12.7-26.3-13.2l-2.5-0.1c-1.4-0.1-2.6-0.6-3.4-1c1.8-2.6,5.8-7,10-11
			c1.2-1.2,1.8-2.7,1.8-4.3c0-1.5-0.6-3-1.7-4.1C295.8,331.8,292.1,331.7,289.7,334z"/>
		<path id="XMLID_29_" d="M242.4,303.1c-3.5,5.5-1.5,12.6,0.7,17.5c3.1,6.6,14,14.5,17.3,16.7c2.7,1.9,6.4,1.2,8.2-1.5
			c0.7-1,1-2.2,1-3.3c0-1.9-0.9-3.7-2.5-4.9c-5.5-3.8-12.1-9.5-13.3-12c-1.2-2.7-1.6-4.6-1.6-5.6c0-0.2,0-0.3,0.1-0.5
			c0.3-0.1,0.9-0.3,2.3-0.3c9.4,0,25.7,2.9,49.8,16.7c24.1,13.7,84.4,54.1,118.5,81.8c35.2,28.5,66.6,55.8,81.8,71
			c10.3,10.3,25.8,25.8,25.8,30.6c0,0.1,0,0.2,0,0.2c-0.2,2-0.2,2.4-7.1,4.6l-4.2,1.4c-11.9,4.2-17.9,10-17.9,17.3
			c0,2.3,0.7,5.1,1.6,8.4c0.6,2.5,1.8,7.1,1.8,9.7c0,0.6-0.1,1-0.2,1.3c-1.9,2.7-6.2,2.8-12,2.6c-3.3-0.1-6.4-0.2-9.1,0.7
			c-2.2,0.7-4.5,1.9-6.9,3.3c-3.5,2-8.9,5-10.8,3.4c-2.1-1.7-3.2-4.6-3.2-8.9c0-2.8,0.4-6.1,1.3-10.1l2.3-9.1
			c1.5-5.5,2.5-9.5,2.5-12.7c0-1.6-0.3-3-0.9-4.3c-1.6-3.2-5-4.5-13.3-7.6c-3.7-1.4-10.7-3.9-12.2-5.3c-1.2-1.6-1.9-4.9-1.9-9
			c0-1.2,0.1-2.4,0.2-3.7c0.3-3.6,2.2-11.9,2.9-14.8c0.1-0.5,0.2-0.9,0.2-1.4c0-2.7-1.8-5.1-4.5-5.7c-3.2-0.8-6.3,1.2-7.1,4.4
			c-0.3,1.2-2.7,11.4-3.2,16.5c-0.2,1.5-0.3,3.1-0.3,4.8c0,5.6,1,11.9,4.6,16.4c2.7,3.4,8.4,5.7,17.3,9c1.9,0.7,4.5,1.7,6.3,2.4
			c-0.4,2.1-1.2,5.4-1.9,8l-2.4,9.6c-0.6,2.7-1.6,7.3-1.6,12.4c0,6.4,1.6,13.5,7.6,18.3c8.2,6.6,18.1,1,24-2.3c1.7-1,3.5-2,4.5-2.3
			c0.9-0.3,3.4-0.2,5.4-0.2c6.6,0.2,16.5,0.4,22.1-7.8c3.8-5.6,1.8-13.5,0-20.5c-0.5-1.9-1.2-4.6-1.2-5.5c0-0.7,1.8-3.3,10-6.2
			l3.8-1.3c6.7-2.1,14.2-4.5,15.4-14.5c1.2-9.8-9.2-20.6-29.1-40.6c-15.5-15.5-47.2-43.1-82.7-71.8c-34.5-28-95.7-68.9-120.1-82.8
			c-26.3-15-44.8-18.2-55.6-18.2C247.5,297.5,244.1,300.6,242.4,303.1z"/>
		<path id="XMLID_28_" d="M410.8,476.8c-0.7-4.4-1.5-9.3-1.7-12.6l0.1-7.7c0.1-1.9,0.1-3.7,0.1-5.4c0-5.5-0.7-9.6-4.1-11.9
			c0,0-2.9-1.8-6-3.9c-3.4-2.2-5.1-5.3-2.9-10.5c0.6-1.9,3.6-9.4,5.4-13.7c0.3-0.7,0.5-1.5,0.5-2.3c0-1.8-0.9-3.6-2.4-4.8l-30.2-22
			l-15.2-11.4c0,0,3.4,48.9,3.7,52.9c-2.8,3.7-9,12.1-10.9,15.5c-2.6,4.6-6.3,7.4-11.2,8.4l-19,3.4c-2.7,0.4-5.7,3.6-5.1,6.8
			c0.6,3.2,3.8,5,7,4.8l19.3-3.5c8.4-1.7,15-6.6,19.3-14.2c1.4-2.6,7.7-11.1,11.3-15.9c0.8-1,1.2-2.3,1.2-3.6c0-0.1,0-0.3,0-0.4
			c0,0-1.2-17.1-2.1-29.5c8.8,6.4,17.2,12.5,21.2,15.4c-1.5,3.7-3.5,8.6-4.1,10.7c-0.6,2.2-1.8,5.5-1.9,8.9
			c-0.1,3.8,2.1,9.1,6.6,12.5c0,0,4,2.6,6.1,4c1.4,0.6,1.8,2.9,1.8,4.1c0,1.6-0.1,3.5-0.1,5l0,8.8c0.2,3.9,1.1,9.2,1.9,13.8
			c0.4,2.8,1,6.3,1.2,8c-0.8,1.3-2.7,3.8-4.3,6c-4.9,6.6-11.6,15.7-15.6,24.2l-4.6,10.3c-2.4,5.6-5.4,12.6-7.1,13.7
			c-2.2,1.3-13,3.3-19.4,4.5l-11.5,2.3c-6.3,1.4-14.3,4.7-20.8,7.4c-2.9,1.2-6.4,2.6-7.6,3c-1.6-0.1-6.8-1.7-10.2-2.8
			c-4.7-1.5-10-3.2-14.7-4.1c-4-0.7-4.9-0.9-4.9-3.3c0-0.6,0-1.3,0.1-2.3c0-0.3,0-0.6,0-0.9c0-6.4-5.2-12.8-16.1-20.2
			c-4.9-3.3-12.9-10.9-13.5-17.4c0-0.2,0-0.4,0-0.7c0-5.4,5.3-11.4,9.6-16.2l3.6-4.2c2.2-2.8,3-5.7,3-8.4c0-0.5-0.1-0.9-0.2-1.3
			c5.6,0.3,11.3,0.7,11.3,0.7c3.2,0.2,6.1-2.3,6.3-5.5c0.2-3.3-2.3-6.1-5.5-6.3l-20.9-1.3c-2.4-0.2-4.7,1.2-5.7,3.4
			c-0.4,0.8-0.6,1.6-0.6,2.5c0,1.5,0.6,3,1.7,4.1c0.2,0.2,1.8,1.9,1.8,3.5c0,0.5-0.1,0.9-0.5,1.3l-3.1,3.7
			c-5.3,6.1-12.5,14.2-12.5,24c0,0.6,0,1.2,0.1,1.7c1.2,14.2,16.9,25,18.7,26.2c10.5,7,10.9,10.3,10.9,10.4
			c-0.1,0.9-0.1,1.7-0.1,2.6c0,6.9,2.4,13.2,14.5,15.4c3.9,0.7,8.8,2.3,13.1,3.7c8.2,2.6,12.6,4,16.2,3.2c1.9-0.4,4.9-1.6,9.8-3.7
			c6.1-2.5,13.6-5.6,19-6.8l11-2.2c12.1-2.3,19.8-3.8,23.4-5.9c4.8-2.9,7.6-9.4,11.9-19.2l4.4-10c3.4-7.4,9.8-15.9,14.4-22.2
			c4.8-6.4,6.2-8.4,6.6-10.7c0.1-0.5,0.1-1,0.1-1.6C412.1,485.3,411.7,482.4,410.8,476.8z"/>
		<path id="XMLID_27_" d="M447.6,212.4c-17.8,6.4-39.7,18.3-55,27.3c-18.9,11-41.2,22.7-54.2,28.5c-14.8,6.5-37.3,13.7-41.5,13.6
			c-3.3,0-6,2.6-6,5.8c0,3.3,2.6,6,5.8,6c8,0.1,34.6-9.4,46.4-14.6c13.4-5.9,36.1-17.8,55.4-29.1c21.3-12.4,39.7-21.5,53-26.3
			c15.1-5.4,31.5-10.6,51.3-9.5c20.7,1.2,27.4,3.9,35.1,7.1c8.2,3.3,20.7,10.9,20.9,11c2.8,1.7,6.4,0.8,8.1-2c1.7-2.8,0.8-6.4-2-8.1
			c-0.5-0.3-13.5-8.2-22.5-11.9c-9.5-3.9-17.9-6.7-39-7.9C481.6,201,463.2,206.8,447.6,212.4z"/>
		<path id="XMLID_66_" d="M85.4,323.3l-6.2,22.1l-31.4-21l0.1-0.3L85.4,323.3z M104.6,391.6l6.7-23.9l-16.9-12.2l9.3-33.1l20.7-1.3
			l7.2-25.8l-97.8,9.4l-8.1,28.9L104.6,391.6z"/>
		<path id="XMLID_24_" d="M149.9,292.5c2.8-4.1,5.6-12.6,6.3-17.1c1.2-7.1,1.9-14.6-10.4-23.2l-65.5-44.7l14-20l71.5,48.9
			c16.1,11.3,22.8,26.7,10.5,44.6c-2.6,3.7-5.9,8.7-5.9,8.7L149.9,292.5z"/>
		<path id="XMLID_62_" d="M223.1,138.2l-18.6,13.5l-11.5-36l0.2-0.2L223.1,138.2z M195.5,203.7l20.1-14.6L210,169l27.9-20.2l17,11.9
			l21.7-15.7l-82.4-53.6L170,108.9L195.5,203.7z"/>
		<polygon id="XMLID_21_" points="316.9,81.3 280.8,45.3 308.5,38.6 330.6,64.2 338.7,31.1 364.8,24.8 349.1,73.4 389.1,113.2 
			360.8,120.1 335.5,91.6 326.5,128.6 299.5,135.2 		"/>
		<polygon id="XMLID_20_" points="572,740.1 571.9,740.2 575.2,771.6 570.4,773.7 549.5,750.2 549.5,750.2 561.7,777.6 555.7,780.3 
			541,747.5 550.9,743 569.3,764.2 569.4,764.1 566,736.3 575.7,732 590.3,764.8 584.3,767.5 		"/>
		<path id="XMLID_19_" d="M608.8,746.3c1.5,0,4.6-0.3,7.6-2.2c2.4-1.6,3.8-4.3,1.8-7.3c-1.4-2.2-3.2-2.3-6.9-2.1l-3.8,0.2
			c-4,0.2-7.5-0.9-10-4.8c-3.4-5.4-0.8-11.1,4.3-14.3c3.2-2,6-2.6,7-2.9l2.7,4.8c-1.7,0.3-3.9,0.7-6.5,2.3c-2.8,1.7-3.3,4.1-2,6.2
			c1.5,2.3,3.5,2.2,5.8,2.1l4.4-0.2c4.8-0.3,7.8,0.6,10.4,4.9c3.9,6.2,1.4,11.9-4.4,15.6c-3,1.9-5.7,3-7.8,3L608.8,746.3z"/>
		<polygon id="XMLID_18_" points="632.4,701.2 626.1,706.2 622.8,702.1 640.5,688 643.8,692.1 637.5,697.1 656.7,721.1 651.5,725.2 
					"/>
		<polygon id="XMLID_17_" points="653.1,676.7 666.5,663.3 670.2,667.1 661.5,675.8 668.2,682.5 676.5,674.4 680.2,678.1 
			671.9,686.3 679.4,693.8 688.5,684.8 692.2,688.5 678.4,702.2 		"/>
		<path id="XMLID_48_" d="M512.1,779.6l0.3-17.5l0.1,0l8.8,14.9L512.1,779.6z M528.7,789.2l6.6-1.8l-20.8-31.5l-6.9,1.9l-2,37.9
			l6.4-1.8l0.2-9l11.9-3.3L528.7,789.2z M695.3,654.3l-8.3-6.6l1.7-2.1c2.3-2.9,4.5-3.9,7.7-1.4c2.8,2.3,2.8,5.3,0.6,8L695.3,654.3z
			 M707,672.1l4.1-5.2l-12.1-9.7l0.9-1.1c1.5-1.9,3.3-2.7,6.1-1.6l11.3,4.5l4.4-5.5l-13.6-4.9c-3.3-1.2-4.8-0.4-5.7,0.5l-0.1-0.1
			c2-3.5,1.4-7.8-2.2-10.7c-5.1-4.1-10.1-2.5-14.1,2.4l-7,8.8L707,672.1z M711.2,614.4l1.2-1.9c3.9-6.3,9.9-6.5,16.7-2.4
			c6.7,4.1,9.2,9.6,5.3,15.9l-1.1,1.9L711.2,614.4z M734.1,636.2l4.9-8c5.2-8.5,4-17.7-6.3-24.1c-10.1-6.2-18.4-4.3-24.3,5.2l-4.9,8
			L734.1,636.2z M748.1,583.3l-13.2-11.5l0-0.1l17.2,2.9L748.1,583.3z M766.2,576.7l2.8-6.2l-37.5-4.4l-3,6.6l27.7,25.9l2.7-6
			l-6.8-5.9l5.1-11.2L766.2,576.7z"/>
		<polygon id="XMLID_8_" points="756.6,512.2 756.5,512.3 782.6,530.1 781.2,535.1 749.7,535.9 749.7,536 778.5,544.3 776.7,550.6 
			742.1,540.6 745.1,530.2 773.2,529.8 773.2,529.7 749.7,514.3 752.6,504.2 787.2,514.2 785.4,520.5 		"/>
	</g>
	<path id="XMLID_7_" class="st0" d="M77.9,427c0,189.4,154.1,343.6,343.6,343.6c20.6,0,41.2-1.8,61.2-5.4l-0.5-3
		c-19.9,3.6-40.3,5.4-60.7,5.4C233.7,767.5,80.9,614.8,80.9,427H77.9z"/>
	<path id="XMLID_6_" class="st0" d="M421.5,86.4C609.3,86.4,762,239.2,762,427c0,20.1-1.8,40.1-5.2,59.7l3,0.5
		c3.5-19.7,5.3-40,5.3-60.2c0-189.5-154.1-343.6-343.6-343.6V86.4z"/>
	<path id="XMLID_5_" class="st0" d="M55.2,427c0,202,164.3,366.3,366.3,366.3c21.9,0,43.9-1.9,65.3-5.8l-2.5-13.8
		c-20.6,3.7-41.7,5.6-62.8,5.6C227.2,779.3,69.2,621.2,69.2,427H55.2z"/>
	<path id="XMLID_4_" class="st0" d="M421.5,74.6c194.3,0,352.3,158,352.3,352.3c0,20.8-1.8,41.6-5.4,61.9l13.7,2.4
		c3.7-21.1,5.6-42.7,5.6-64.3c0-202-164.3-366.3-366.3-366.3V74.6z"/>
	<path id="XMLID_3_" class="st0" d="M43.9,427c0,208.2,169.4,377.5,377.5,377.5c22.6,0,45.2-2,67.2-6l-0.5-3
		c-21.9,3.9-44.3,5.9-66.7,5.9C215,801.5,47,633.5,47,427H43.9z"/>
	<path id="XMLID_2_" class="st0" d="M421.5,52.5C628,52.5,796,220.5,796,427c0,22.1-1.9,44.2-5.8,65.7l3,0.5
		c3.9-21.7,5.8-44,5.8-66.2c0-208.2-169.4-377.5-377.5-377.5V52.5z"/>
	<path id="XMLID_1_" d="M594.8,185.6l-1.4,64.9c0,2,1,3.9,2.6,5c0.1,0.1,15,10.2,22.9,21.7c7.7,11.2,9.6,24.5,9.6,24.7
		c0.5,3.2,3.4,5.5,6.7,5c3-0.4,5.1-2.9,5.1-5.8c0-0.3,0-0.5,0-0.8c-0.1-0.6-2.2-16.1-11.7-29.8c-7.1-10.3-18.3-19.2-23.3-22.9
		c0.1-4.2,0.7-31.6,0.9-45.6c42.5,17.8,64.7,54.5,64.7,108.6c0,77.6-47.5,131.7-115.5,131.7c-61.7,0-82.8-51.4-96.8-85.4l-4.7-11.2
		c-4.6-10.4-11.5-17.4-20.4-20.7c-16.8-6.3-35.9,2.5-43,5.8c-3,1.4-4.3,4.9-2.9,7.8c1.4,3,4.9,4.3,7.8,2.9c5.9-2.7,21.7-10,33.9-5.5
		c5.9,2.2,10.4,7,13.8,14.5l4.5,10.8c14.2,34.7,38.1,92.7,107.7,92.7c75,0,127.3-59,127.3-143.5
		C682.8,245.3,651.9,202.3,594.8,185.6z"/>
</g>
</svg>
