<?xml version="1.0" encoding="utf-8"?>
<!-- Generator: Adobe Illustrator 19.0.0, SVG Export Plug-In . SVG Version: 6.00 Build 0)  -->
<svg version="1.1" id="Layer_1" xmlns="http://www.w3.org/2000/svg" xmlns:xlink="http://www.w3.org/1999/xlink" x="0px" y="0px"
	 viewBox="0 0 840 840" style="enable-background:new 0 0 840 840;" xml:space="preserve">
<style type="text/css">
	.st0{fill:#27397E;}
	.st1{fill-rule:evenodd;clip-rule:evenodd;fill:#1CABE3;}
	.st2{fill-rule:evenodd;clip-rule:evenodd;fill:#85C441;}
	.st3{fill-rule:evenodd;clip-rule:evenodd;fill:#E99A23;}
	.st4{fill-rule:evenodd;clip-rule:evenodd;fill:#DB1E2E;}
	.st5{fill-rule:evenodd;clip-rule:evenodd;fill:#27397E;}
	.st6{fill-rule:evenodd;clip-rule:evenodd;fill:#029D63;}
</style>
<g>
	<g>
		<g>
			<path class="st0" d="M141,634.9h-13.1H77.8c-12.9,0-12.9-7.7-12.9-12.5l0-46c0-3.2,0-12.1,15.8-12.2l42.7-0.1
				c17.7,0,17.7,9,17.7,14.4V595v9h-13.1c-1.8,0-4.8,0-11.7,0l-38.4,0v23.2l60.4,0L141,634.9L141,634.9z M127.9,595l-0.1-17.6
				c0-1.8-0.4-4.2-7.6-4.2H86c-7,0-8.2,1.6-8.2,4.4l0,17.5h37.5H127.9z"/>
			<path class="st0" d="M295.6,634.9h-13.1h-50.1c-12.9,0-12.9-7.7-12.9-12.5l0-46c0-3.2,0-12.1,15.8-12.2l42.7-0.1
				c17.7,0,17.7,9,17.7,14.4V595v9h-13.1c-1.8,0-4.8,0-11.7,0l-38.4,0v23.2l60.4,0L295.6,634.9L295.6,634.9z M282.5,595l-0.1-17.6
				c0-1.8-0.4-4.2-7.6-4.2h-34.2c-7,0-8.2,1.6-8.2,4.4l0,17.5h37.5H282.5z"/>
			<path class="st0" d="M768.1,634.9H755h-50.1c-12.9,0-12.9-7.7-12.9-12.5l0-46c0-3.2,0-12.1,15.8-12.2l42.7-0.1
				c17.7,0,17.7,9,17.7,14.4V595v9H755c-1.8,0-4.8,0-11.7,0l-38.4,0v23.2l60.4,0L768.1,634.9L768.1,634.9z M755,595l-0.1-17.6
				c0-1.8-0.4-4.2-7.6-4.2h-34.2c-7,0-8.2,1.6-8.2,4.4l0,17.5h37.5H755z"/>
			<path id="XMLID_24_" class="st0" d="M206.9,564.1l3.3,9h-33c-2.8,0-4.3,2.6-4.3,4.2l0,57.5H160v-70.7h12.9v3.8l2.6-3.8H206.9z"/>
			<path class="st0" d="M386.3,634.9l-9.9,0c-9.3-3.2-1.6-2.9-11.3,0l-34.2,0c-19.2,0-19.2-7.7-19.2-13.7l0-43.6
				c0-13.4,14.1-13.4,19.5-13.4h36.9l2.8,2.5v-28.2h15.4V634.9L386.3,634.9z M370.8,622.9l0.1-49.8h-35.2c-8.4,0-9.8,0-9.8,5.6v48.4
				l37.8,0C370.7,627.1,370.8,625.2,370.8,622.9z"/>
			<rect id="XMLID_21_" x="537.1" y="564.1" class="st0" width="12.9" height="70.7"/>
			<rect id="XMLID_20_" x="409.7" y="564.1" class="st0" width="12.9" height="70.7"/>
			<rect id="XMLID_19_" x="656.4" y="564.1" class="st0" width="12.9" height="70.7"/>
			<path id="XMLID_18_" class="st0" d="M526.5,564.1L497.6,618c-4.9,9.2-9,16.9-12.5,16.9h-9.4c-5.6,0-9-7.7-13.2-16.9l-24.4-53.8
				h16.2l27.6,61l32.6-61H526.5z"/>
			<path id="XMLID_17_" class="st0" d="M637.1,573.1c-15.7,0-27.7,0-48.6,0c-6.4,0-8,1.8-8,4.6l0.1,12.6c0,3.6,1.6,4.7,9.7,4.7
				l30.2,0c16.5,0,16.5,9,16.5,14.5l0,11.3c0,8.9-1.5,14.1-19.7,14.1l-36.9-0.1c-8.3,0-14.1-0.6-14.1-7.6h50.3
				c6.5,0,6.3-4.5,6.3-7.4V604c0-0.5-34.6,0.2-37.5,0.1c-12.8-0.1-19-5.9-19-14.9l0-11.7c0-7.4,5.5-13.4,14.1-13.4l42.4,0
				C637.1,564.2,637.1,565.5,637.1,573.1z"/>
		</g>
		<path class="st0" d="M784.4,525.6c2.5,0,4.9,0.6,7.3,1.9c2.4,1.3,4.2,3.1,5.5,5.5c1.3,2.4,2,4.8,2,7.4c0,2.5-0.6,5-2,7.3
			c-1.3,2.4-3.1,4.2-5.5,5.5c-2.3,1.3-4.8,2-7.3,2s-5-0.6-7.3-2c-2.3-1.3-4.2-3.1-5.5-5.5c-1.3-2.3-2-4.8-2-7.3c0-2.6,0.7-5,2-7.4
			c1.3-2.4,3.2-4.2,5.5-5.5C779.5,526.3,781.9,525.6,784.4,525.6L784.4,525.6z M784.4,528.1c-2.1,0-4.1,0.5-6.1,1.6
			c-2,1.1-3.5,2.6-4.6,4.6c-1.1,2-1.7,4-1.7,6.2c0,2.1,0.5,4.2,1.6,6.1c1.1,2,2.6,3.5,4.6,4.6c2,1.1,4,1.6,6.1,1.6
			c2.1,0,4.2-0.5,6.1-1.6c2-1.1,3.5-2.6,4.6-4.6c1.1-2,1.6-4,1.6-6.1c0-2.1-0.5-4.2-1.6-6.2c-1.1-2-2.6-3.5-4.6-4.6
			C788.5,528.6,786.4,528.1,784.4,528.1L784.4,528.1z M777.9,548.6v-15.9h5.5c1.9,0,3.2,0.1,4.1,0.4c0.8,0.3,1.5,0.8,2,1.5
			c0.5,0.7,0.7,1.5,0.7,2.3c0,1.2-0.4,2.2-1.2,3c-0.8,0.9-1.9,1.3-3.3,1.4c0.6,0.2,1,0.5,1.3,0.8c0.6,0.6,1.4,1.7,2.4,3.2l1.9,3.1
			h-3.1l-1.4-2.5c-1.1-2-2-3.2-2.7-3.7c-0.5-0.4-1.2-0.5-2.1-0.5h-1.5v6.7H777.9L777.9,548.6z M780.5,539.6h3.1c1.5,0,2.5-0.2,3-0.7
			c0.5-0.4,0.8-1,0.8-1.8c0-0.5-0.1-0.9-0.4-1.3c-0.3-0.4-0.6-0.6-1.1-0.8c-0.5-0.2-1.3-0.3-2.6-0.3h-2.9V539.6z"/>
	</g>
	<g>
		<path id="XMLID_12_" class="st1" d="M549.2,229.8c8.6-8,18.6-15.2,29.8-21.9h-463l8,21.9L549.2,229.8z"/>
		<path id="XMLID_11_" class="st2" d="M165.2,260.7h357c2-3,4.2-6,6.6-9h-367L165.2,260.7z"/>
		<path id="XMLID_10_" class="st3" d="M34.2,304.2l466,0c2.6-7.6,5.9-15.3,9.7-23H25.8L34.2,304.2z"/>
		<path id="XMLID_9_" class="st4" d="M82.1,369.9l408.9,0c-0.7-14.7,0.4-29.3,3.3-43.6l-428.2,0L82.1,369.9z"/>
		<path id="XMLID_8_" class="st5" d="M30.8,449.7l483.5,0c-7.8-13.4-13.6-27.6-17.5-42.4l-481.2,0L30.8,449.7z"/>
		<path id="XMLID_7_" class="st6" d="M140.8,502.6h419.8c-12-9.2-22.5-19.5-31.6-31.1l-399.6,0L140.8,502.6z"/>
		<g>
			<path id="XMLID_6_" class="st3" d="M668.4,301.6c10.2,5.1,20.4,11.4,29.9,18.2c9.5,6.9,18.7,14.5,27,23.1
				c-1.7,11.3-4.5,22.9-8.1,34.1c-3.6,11.1-8,22.3-13.6,32.8c-11.3,1.9-23.2,2.8-34.9,2.8c-11.7,0-23.7-0.7-35.4-2.8
				c-5.3-10.1-9.9-21.2-13.5-32.4c-3.6-11.1-6.6-22.7-8.3-34.5c8-8.1,17.1-15.9,26.6-22.8C647.6,313.3,657.7,306.8,668.4,301.6z"/>
			<path id="XMLID_5_" class="st1" d="M668.4,250c10.2-2,20.4-4.5,29.9-7.2c9.5-2.7,18.7-5.7,27-9.1c-1.7-4.4-4.5-9-8.1-13.4
				c-3.6-4.4-8-8.8-13.6-12.9c-11.3-0.7-23.2-1.1-34.9-1.1c-11.7,0-23.7,0.3-35.4,1.1c-5.3,4-9.9,8.3-13.5,12.7
				c-3.6,4.4-6.6,8.9-8.3,13.6c8,3.2,17.1,6.3,26.6,9C647.6,245.4,657.7,247.9,668.4,250z"/>
			<path id="XMLID_4_" class="st4" d="M561.9,327c1.2-10.3,2-20.8,2.2-30.7c0.3-9.9,0.3-19.6-0.5-28.5c-4.7,0.3-10,1.5-15.3,3.6
				c-5.3,2.1-10.8,4.9-16.4,9.1c-4.1,10.5-8.1,21.8-11.7,32.9c-3.6,11.2-6.9,22.6-9.7,34.1c2.2,6.2,5,11.9,8,16.7
				c3.1,4.8,6.5,9.1,10.4,12c5.5-6.6,11.2-14.4,16.6-22.6C551.2,345.4,556.7,336.6,561.9,327z"/>
			<path id="XMLID_3_" class="st2" d="M772,327c-1.2-10.3-2-20.8-2.3-30.7c-0.3-9.9-0.3-19.6,0.5-28.5c4.7,0.3,10,1.5,15.3,3.6
				c5.3,2.1,10.8,4.9,16.4,9.1c4.1,10.5,8.1,21.8,11.7,32.9c3.6,11.2,6.9,22.6,9.7,34.1c-2.2,6.2-5,11.9-8,16.7
				c-3.1,4.8-6.5,9.1-10.4,12c-5.5-6.6-11.2-14.4-16.6-22.6C782.7,345.4,777.2,336.6,772,327z"/>
			<path id="XMLID_2_" class="st5" d="M601.6,446.7c-9.5-4.2-19.3-8.1-28.6-11.3c-9.3-3.2-18.6-6.1-27.3-8c-1.2,4.6-1.5,10-1.1,15.6
				c0.4,5.7,1.5,11.8,3.7,18.4c8.8,7.1,18.4,14.2,28,21c9.6,6.7,19.6,13.4,29.6,19.4c6.6-0.2,12.9-1.2,18.4-2.7
				c5.5-1.5,10.6-3.5,14.6-6.4c-4.7-7.2-10.4-15-16.6-22.6C616.1,462.4,609.3,454.5,601.6,446.7z"/>
			<path id="XMLID_1_" class="st6" d="M729.7,446.7c9.5-4.2,19.3-8.1,28.6-11.3c9.3-3.2,18.6-6.1,27.3-8c1.2,4.6,1.5,10,1.1,15.6
				c-0.4,5.7-1.5,11.8-3.7,18.4c-8.8,7.1-18.4,14.2-28,21c-9.6,6.7-19.6,13.4-29.6,19.4c-6.6-0.2-12.9-1.2-18.3-2.7
				c-5.5-1.5-10.6-3.5-14.6-6.4c4.7-7.2,10.4-15,16.6-22.6C715.3,462.4,722.1,454.5,729.7,446.7z"/>
		</g>
	</g>
</g>
</svg>
